<?xml version="1.0" standalone="yes"?>
<!-- SVG graphic -->
<svg xmlns='http://www.w3.org/2000/svg' xmlns:xlink='http://www.w3.org/1999/xlink'
width="8064px" height="3024px" preserveAspectRatio="xMinYMin meet" viewBox="0 0 8064 3024" version="1.1">
<image x="0" y="0" width="4032px" height="3024px" opacity="1" xlink:href="/home/jeong/Code/2D-to-3D-Modeling-using-AI/Make3D/Image/20200227_180611.jpg"/>
<image x="4032" y="0" width="4032px" height="3024px" opacity="1" xlink:href="/home/jeong/Code/2D-to-3D-Modeling-using-AI/Make3D/Image/20200227_180651.jpg"/>
<polyline points="1237.14,182.906,6425.88,1461.06" stroke="rgb(250,255,0)" stroke-width="2" fill="none"></polyline>
<polyline points="962.286,216.256,5890.57,1258.77" stroke="rgb(0,169,255)" stroke-width="2" fill="none"></polyline>
<polyline points="883.391,246.947,6387.75,1834.59" stroke="rgb(93,255,0)" stroke-width="2" fill="none"></polyline>
<polyline points="1449.83,269.757,6108.88,1845.58" stroke="rgb(255,89,0)" stroke-width="2" fill="none"></polyline>
<polyline points="858.486,272.413,6830.54,1483.34" stroke="rgb(33,255,0)" stroke-width="2" fill="none"></polyline>
<polyline points="1410.96,293.424,7168.59,1710.31" stroke="rgb(135,255,0)" stroke-width="2" fill="none"></polyline>
<polyline points="1543.91,308.04,6015.78,883.017" stroke="rgb(118,0,255)" stroke-width="2" fill="none"></polyline>
<polyline points="1530.28,344.333,6757.27,1777.95" stroke="rgb(255,187,0)" stroke-width="2" fill="none"></polyline>
<polyline points="1623.86,362.021,6363.46,1837.52" stroke="rgb(0,131,255)" stroke-width="2" fill="none"></polyline>
<polyline points="1649.91,366.563,6553.34,1914.82" stroke="rgb(0,255,4)" stroke-width="2" fill="none"></polyline>
<polyline points="1039.55,407.719,7058.73,1932.07" stroke="rgb(38,255,0)" stroke-width="2" fill="none"></polyline>
<polyline points="821.141,432.693,5634.1,1205.74" stroke="rgb(255,110,0)" stroke-width="2" fill="none"></polyline>
<polyline points="919.422,439.849,5202.23,1983.97" stroke="rgb(255,221,0)" stroke-width="2" fill="none"></polyline>
<polyline points="1735.76,441.139,6967.18,1441.24" stroke="rgb(255,0,157)" stroke-width="2" fill="none"></polyline>
<polyline points="1091.07,452.413,5681.27,1743.71" stroke="rgb(255,191,0)" stroke-width="2" fill="none"></polyline>
<polyline points="1100.84,464.815,5911.95,1776.66" stroke="rgb(80,255,0)" stroke-width="2" fill="none"></polyline>
<polyline points="867.955,468.052,6007.58,1702.1" stroke="rgb(255,0,17)" stroke-width="2" fill="none"></polyline>
<polyline points="1667.8,470.613,6414.13,1457.84" stroke="rgb(0,255,55)" stroke-width="2" fill="none"></polyline>
<polyline points="1801.7,522.926,7002.07,1013.93" stroke="rgb(255,0,148)" stroke-width="2" fill="none"></polyline>
<polyline points="1843.38,523.147,6617.83,1483.31" stroke="rgb(131,255,0)" stroke-width="2" fill="none"></polyline>
<polyline points="877.969,546.096,6195.5,1637" stroke="rgb(255,144,0)" stroke-width="2" fill="none"></polyline>
<polyline points="922.158,552.893,7158.16,1503.32" stroke="rgb(0,169,255)" stroke-width="2" fill="none"></polyline>
<polyline points="917.989,555.635,6212.83,1683.67" stroke="rgb(255,0,204)" stroke-width="2" fill="none"></polyline>
<polyline points="1716.44,565.04,6783.35,1792.85" stroke="rgb(0,221,255)" stroke-width="2" fill="none"></polyline>
<polyline points="689.264,571.768,6148.55,1661.95" stroke="rgb(255,17,0)" stroke-width="2" fill="none"></polyline>
<polyline points="586.345,574,5923.97,1830.53" stroke="rgb(255,0,148)" stroke-width="2" fill="none"></polyline>
<polyline points="1909.33,613.5,5671.77,1778.6" stroke="rgb(80,255,0)" stroke-width="2" fill="none"></polyline>
<polyline points="2110.39,617.011,5519.3,1288.1" stroke="rgb(225,0,255)" stroke-width="2" fill="none"></polyline>
<polyline points="1716.93,636.6,6943.21,1969.05" stroke="rgb(255,93,0)" stroke-width="2" fill="none"></polyline>
<polyline points="1967.48,667.373,6758.44,975.743" stroke="rgb(199,255,0)" stroke-width="2" fill="none"></polyline>
<polyline points="2207.6,685.041,5993.02,1751.83" stroke="rgb(0,187,255)" stroke-width="2" fill="none"></polyline>
<polyline points="1786.4,689.15,6582.7,1642.44" stroke="rgb(157,255,0)" stroke-width="2" fill="none"></polyline>
<polyline points="2274.67,705.605,5378.29,1950.86" stroke="rgb(0,255,106)" stroke-width="2" fill="none"></polyline>
<polyline points="924.107,732.227,5092.22,1692.73" stroke="rgb(233,0,255)" stroke-width="2" fill="none"></polyline>
<polyline points="2385.29,803.433,7397.3,1624.36" stroke="rgb(255,0,97)" stroke-width="2" fill="none"></polyline>
<polyline points="2240.97,815.118,6805.59,1927.83" stroke="rgb(72,0,255)" stroke-width="2" fill="none"></polyline>
<polyline points="2088.17,820.977,6347.62,1942.26" stroke="rgb(255,97,0)" stroke-width="2" fill="none"></polyline>
<polyline points="2096.06,841.658,6738.55,2002.47" stroke="rgb(21,0,255)" stroke-width="2" fill="none"></polyline>
<polyline points="850.105,852.953,5799.83,1326.99" stroke="rgb(255,0,250)" stroke-width="2" fill="none"></polyline>
<polyline points="872.255,869.761,5761.63,1379.64" stroke="rgb(63,255,0)" stroke-width="2" fill="none"></polyline>
<polyline points="2270.68,873.777,5660.34,1394.69" stroke="rgb(0,4,255)" stroke-width="2" fill="none"></polyline>
<polyline points="1937.15,882.278,6509.81,1696.03" stroke="rgb(186,0,255)" stroke-width="2" fill="none"></polyline>
<polyline points="2086.19,892.048,6734.42,1941.34" stroke="rgb(255,12,0)" stroke-width="2" fill="none"></polyline>
<polyline points="1976.34,901.939,6984.84,1478.57" stroke="rgb(216,0,255)" stroke-width="2" fill="none"></polyline>
<polyline points="1923.34,921.471,6203.89,1951.92" stroke="rgb(29,0,255)" stroke-width="2" fill="none"></polyline>
<polyline points="2299.81,949.928,6716.23,1954.7" stroke="rgb(255,204,0)" stroke-width="2" fill="none"></polyline>
<polyline points="2213.24,956.161,5775.7,1613.6" stroke="rgb(102,0,255)" stroke-width="2" fill="none"></polyline>
<polyline points="2173.83,962.792,6867.36,1568.98" stroke="rgb(16,255,0)" stroke-width="2" fill="none"></polyline>
<polyline points="1095.86,973.262,5084.78,1688.11" stroke="rgb(255,225,0)" stroke-width="2" fill="none"></polyline>
<polyline points="2348.76,978.414,6995.56,1290.92" stroke="rgb(0,42,255)" stroke-width="2" fill="none"></polyline>
<polyline points="2440.44,987.514,6297.17,1964.64" stroke="rgb(182,255,0)" stroke-width="2" fill="none"></polyline>
<polyline points="2072.53,996.529,6074.8,1972.85" stroke="rgb(140,255,0)" stroke-width="2" fill="none"></polyline>
<polyline points="2403.68,1000.06,6621.23,1516.26" stroke="rgb(212,255,0)" stroke-width="2" fill="none"></polyline>
<polyline points="2552.2,1036.26,5612,1279.55" stroke="rgb(255,127,0)" stroke-width="2" fill="none"></polyline>
<polyline points="1106.04,1047.87,6762.08,988.236" stroke="rgb(153,0,255)" stroke-width="2" fill="none"></polyline>
<polyline points="2533.77,1053.09,6118.77,800.98" stroke="rgb(255,0,225)" stroke-width="2" fill="none"></polyline>
<polyline points="1331.02,1056.08,5466.14,1545.46" stroke="rgb(0,55,255)" stroke-width="2" fill="none"></polyline>
<polyline points="1125.28,1061.22,5750.11,1422.92" stroke="rgb(38,0,255)" stroke-width="2" fill="none"></polyline>
<polyline points="1598.04,1070,6644.48,1545.89" stroke="rgb(33,255,0)" stroke-width="2" fill="none"></polyline>
<polyline points="1435.82,1149.78,7215.54,1672.48" stroke="rgb(0,255,8)" stroke-width="2" fill="none"></polyline>
<polyline points="1239.77,1158.07,7053.43,1830.09" stroke="rgb(0,195,255)" stroke-width="2" fill="none"></polyline>
<polyline points="2562.32,1189.74,5118.17,1859.87" stroke="rgb(255,0,216)" stroke-width="2" fill="none"></polyline>
<polyline points="2510.54,1190.44,6645.21,1520.65" stroke="rgb(182,255,0)" stroke-width="2" fill="none"></polyline>
<polyline points="1160.78,1200.32,6434.42,1743.13" stroke="rgb(255,0,89)" stroke-width="2" fill="none"></polyline>
<polyline points="2481.46,1214.28,6785.37,1863.36" stroke="rgb(17,0,255)" stroke-width="2" fill="none"></polyline>
<polyline points="2534.56,1219.72,6207.36,820.503" stroke="rgb(255,229,0)" stroke-width="2" fill="none"></polyline>
<polyline points="2303.6,1249.86,5218.35,1831.47" stroke="rgb(51,255,0)" stroke-width="2" fill="none"></polyline>
<polyline points="1221.84,1252.29,6792.01,1472.61" stroke="rgb(114,0,255)" stroke-width="2" fill="none"></polyline>
<polyline points="2539.68,1252.94,6996.21,1682.64" stroke="rgb(0,255,220)" stroke-width="2" fill="none"></polyline>
<polyline points="2678.5,1262.69,6870.67,1986.47" stroke="rgb(174,0,255)" stroke-width="2" fill="none"></polyline>
<polyline points="2245.55,1293.48,5176.33,1670.32" stroke="rgb(255,51,0)" stroke-width="2" fill="none"></polyline>
<polyline points="1348.46,1308.22,5398.32,1533.78" stroke="rgb(255,216,0)" stroke-width="2" fill="none"></polyline>
<polyline points="2289.42,1331.8,7026.79,1132.21" stroke="rgb(0,148,255)" stroke-width="2" fill="none"></polyline>
<polyline points="2125.39,1333.09,5743.87,1074.01" stroke="rgb(255,63,0)" stroke-width="2" fill="none"></polyline>
<polyline points="2350.69,1341.09,6840.95,1604.55" stroke="rgb(0,110,255)" stroke-width="2" fill="none"></polyline>
<polyline points="1988.02,1342.17,6465.5,1684.84" stroke="rgb(255,0,153)" stroke-width="2" fill="none"></polyline>
<polyline points="2440.99,1351.68,6980.34,1853.13" stroke="rgb(233,0,255)" stroke-width="2" fill="none"></polyline>
<polyline points="2765.87,1351.85,5930.73,911.535" stroke="rgb(4,255,0)" stroke-width="2" fill="none"></polyline>
<polyline points="1972.16,1374.71,6092.83,1677.54" stroke="rgb(169,255,0)" stroke-width="2" fill="none"></polyline>
<polyline points="1995.11,1398.44,6643.05,940.182" stroke="rgb(255,0,51)" stroke-width="2" fill="none"></polyline>
<polyline points="2478.86,1478.67,5720.88,1864.93" stroke="rgb(255,0,46)" stroke-width="2" fill="none"></polyline>
<polyline points="2448.68,1571.06,6985.85,930.807" stroke="rgb(0,255,161)" stroke-width="2" fill="none"></polyline>
<polyline points="1335.48,1652.12,5879.79,1746.22" stroke="rgb(255,0,221)" stroke-width="2" fill="none"></polyline>
<polyline points="2472.87,1686.7,5876.25,1960.56" stroke="rgb(216,0,255)" stroke-width="2" fill="none"></polyline>
<polyline points="1636.31,1706.06,5713.95,1968.31" stroke="rgb(255,255,0)" stroke-width="2" fill="none"></polyline>
<polyline points="1657.92,1710.25,7146.98,1450.94" stroke="rgb(0,67,255)" stroke-width="2" fill="none"></polyline>
<polyline points="2512.86,1712.5,5411.3,1347.56" stroke="rgb(0,8,255)" stroke-width="2" fill="none"></polyline>
<polyline points="1632.73,1716.25,5861.22,1707.43" stroke="rgb(199,0,255)" stroke-width="2" fill="none"></polyline>
<polyline points="2150.04,1741.05,6362.45,1591.02" stroke="rgb(255,0,63)" stroke-width="2" fill="none"></polyline>
<polyline points="1629.96,1755.67,7242.33,1658.83" stroke="rgb(255,0,38)" stroke-width="2" fill="none"></polyline>
<polyline points="2185.35,1764.16,6668.2,1826.27" stroke="rgb(255,208,0)" stroke-width="2" fill="none"></polyline>
<polyline points="2070.83,1783.62,6944.22,1609.88" stroke="rgb(0,255,250)" stroke-width="2" fill="none"></polyline>
<polyline points="1754.49,1792.44,5711.25,1517.98" stroke="rgb(0,255,220)" stroke-width="2" fill="none"></polyline>
<polyline points="2401.95,1795.05,5203.45,1656.27" stroke="rgb(0,255,29)" stroke-width="2" fill="none"></polyline>
<polyline points="2079.67,1816.09,6231.89,1890.84" stroke="rgb(255,127,0)" stroke-width="2" fill="none"></polyline>
<polyline points="2404.9,1833.55,5399.9,1365.88" stroke="rgb(255,238,0)" stroke-width="2" fill="none"></polyline>
<polyline points="1560.07,1838.8,6751.37,1464.99" stroke="rgb(0,250,255)" stroke-width="2" fill="none"></polyline>
<polyline points="2087.92,1845,6409.89,1678.03" stroke="rgb(0,255,76)" stroke-width="2" fill="none"></polyline>
<polyline points="2161.43,1851.35,6524.54,1990.73" stroke="rgb(255,0,157)" stroke-width="2" fill="none"></polyline>
<polyline points="2135.79,1856.52,6776.22,1748.58" stroke="rgb(0,63,255)" stroke-width="2" fill="none"></polyline>
<polyline points="2153.3,1883.82,6874.41,1689" stroke="rgb(255,250,0)" stroke-width="2" fill="none"></polyline>
<polyline points="2095.12,1887.98,6502.1,1952.12" stroke="rgb(0,135,255)" stroke-width="2" fill="none"></polyline>
<polyline points="1577.93,1902.12,7137.99,1796.54" stroke="rgb(153,0,255)" stroke-width="2" fill="none"></polyline>
<polyline points="1570.1,1909.87,6356.2,1483.17" stroke="rgb(102,0,255)" stroke-width="2" fill="none"></polyline>
<polyline points="2480.05,1939.58,6167.4,1547.34" stroke="rgb(106,255,0)" stroke-width="2" fill="none"></polyline>
<polyline points="1445.62,1957.02,5930.73,911.535" stroke="rgb(255,12,0)" stroke-width="2" fill="none"></polyline>
<polyline points="2139.39,1980.69,6326.9,1922.97" stroke="rgb(84,255,0)" stroke-width="2" fill="none"></polyline>
<polyline points="1935.58,2033.6,6366.82,1911.67" stroke="rgb(97,0,255)" stroke-width="2" fill="none"></polyline>
<polyline points="2447.74,2037.8,6704.4,979.904" stroke="rgb(0,255,8)" stroke-width="2" fill="none"></polyline>
<polyline points="1935.08,2039.86,6729.28,1713.3" stroke="rgb(0,250,255)" stroke-width="2" fill="none"></polyline>
<polyline points="868.316,2055.86,5644.13,1197.03" stroke="rgb(0,255,12)" stroke-width="2" fill="none"></polyline>
<polyline points="1895.01,2071.15,6436.5,2035.81" stroke="rgb(255,0,72)" stroke-width="2" fill="none"></polyline>
<polyline points="954.221,2083.11,5750.62,1553.05" stroke="rgb(255,0,89)" stroke-width="2" fill="none"></polyline>
<polyline points="1596.3,2164.52,5978.95,1766.19" stroke="rgb(208,255,0)" stroke-width="2" fill="none"></polyline>
<polyline points="963.112,2348.56,5908.82,1854.2" stroke="rgb(0,255,110)" stroke-width="2" fill="none"></polyline>
<circle cx="1237.14" cy="182.906" r="4" stroke="rgb(250,255,0)" stroke-width="2" fill="none"></circle>
<circle cx="6425.88" cy="1461.06" r="4" stroke="rgb(250,255,0)" stroke-width="2" fill="none"></circle>
<circle cx="962.286" cy="216.256" r="4" stroke="rgb(0,169,255)" stroke-width="2" fill="none"></circle>
<circle cx="5890.57" cy="1258.77" r="4" stroke="rgb(0,169,255)" stroke-width="2" fill="none"></circle>
<circle cx="883.391" cy="246.947" r="4" stroke="rgb(93,255,0)" stroke-width="2" fill="none"></circle>
<circle cx="6387.75" cy="1834.59" r="4" stroke="rgb(93,255,0)" stroke-width="2" fill="none"></circle>
<circle cx="1449.83" cy="269.757" r="4" stroke="rgb(255,89,0)" stroke-width="2" fill="none"></circle>
<circle cx="6108.88" cy="1845.58" r="4" stroke="rgb(255,89,0)" stroke-width="2" fill="none"></circle>
<circle cx="858.486" cy="272.413" r="4" stroke="rgb(33,255,0)" stroke-width="2" fill="none"></circle>
<circle cx="6830.54" cy="1483.34" r="4" stroke="rgb(33,255,0)" stroke-width="2" fill="none"></circle>
<circle cx="1410.96" cy="293.424" r="4" stroke="rgb(135,255,0)" stroke-width="2" fill="none"></circle>
<circle cx="7168.59" cy="1710.31" r="4" stroke="rgb(135,255,0)" stroke-width="2" fill="none"></circle>
<circle cx="1543.91" cy="308.04" r="4" stroke="rgb(118,0,255)" stroke-width="2" fill="none"></circle>
<circle cx="6015.78" cy="883.017" r="4" stroke="rgb(118,0,255)" stroke-width="2" fill="none"></circle>
<circle cx="1530.28" cy="344.333" r="4" stroke="rgb(255,187,0)" stroke-width="2" fill="none"></circle>
<circle cx="6757.27" cy="1777.95" r="4" stroke="rgb(255,187,0)" stroke-width="2" fill="none"></circle>
<circle cx="1623.86" cy="362.021" r="4" stroke="rgb(0,131,255)" stroke-width="2" fill="none"></circle>
<circle cx="6363.46" cy="1837.52" r="4" stroke="rgb(0,131,255)" stroke-width="2" fill="none"></circle>
<circle cx="1649.91" cy="366.563" r="4" stroke="rgb(0,255,4)" stroke-width="2" fill="none"></circle>
<circle cx="6553.34" cy="1914.82" r="4" stroke="rgb(0,255,4)" stroke-width="2" fill="none"></circle>
<circle cx="1039.55" cy="407.719" r="4" stroke="rgb(38,255,0)" stroke-width="2" fill="none"></circle>
<circle cx="7058.73" cy="1932.07" r="4" stroke="rgb(38,255,0)" stroke-width="2" fill="none"></circle>
<circle cx="821.141" cy="432.693" r="4" stroke="rgb(255,110,0)" stroke-width="2" fill="none"></circle>
<circle cx="5634.1" cy="1205.74" r="4" stroke="rgb(255,110,0)" stroke-width="2" fill="none"></circle>
<circle cx="919.422" cy="439.849" r="4" stroke="rgb(255,221,0)" stroke-width="2" fill="none"></circle>
<circle cx="5202.23" cy="1983.97" r="4" stroke="rgb(255,221,0)" stroke-width="2" fill="none"></circle>
<circle cx="1735.76" cy="441.139" r="4" stroke="rgb(255,0,157)" stroke-width="2" fill="none"></circle>
<circle cx="6967.18" cy="1441.24" r="4" stroke="rgb(255,0,157)" stroke-width="2" fill="none"></circle>
<circle cx="1091.07" cy="452.413" r="4" stroke="rgb(255,191,0)" stroke-width="2" fill="none"></circle>
<circle cx="5681.27" cy="1743.71" r="4" stroke="rgb(255,191,0)" stroke-width="2" fill="none"></circle>
<circle cx="1100.84" cy="464.815" r="4" stroke="rgb(80,255,0)" stroke-width="2" fill="none"></circle>
<circle cx="5911.95" cy="1776.66" r="4" stroke="rgb(80,255,0)" stroke-width="2" fill="none"></circle>
<circle cx="867.955" cy="468.052" r="4" stroke="rgb(255,0,17)" stroke-width="2" fill="none"></circle>
<circle cx="6007.58" cy="1702.1" r="4" stroke="rgb(255,0,17)" stroke-width="2" fill="none"></circle>
<circle cx="1667.8" cy="470.613" r="4" stroke="rgb(0,255,55)" stroke-width="2" fill="none"></circle>
<circle cx="6414.13" cy="1457.84" r="4" stroke="rgb(0,255,55)" stroke-width="2" fill="none"></circle>
<circle cx="1801.7" cy="522.926" r="4" stroke="rgb(255,0,148)" stroke-width="2" fill="none"></circle>
<circle cx="7002.07" cy="1013.93" r="4" stroke="rgb(255,0,148)" stroke-width="2" fill="none"></circle>
<circle cx="1843.38" cy="523.147" r="4" stroke="rgb(131,255,0)" stroke-width="2" fill="none"></circle>
<circle cx="6617.83" cy="1483.31" r="4" stroke="rgb(131,255,0)" stroke-width="2" fill="none"></circle>
<circle cx="877.969" cy="546.096" r="4" stroke="rgb(255,144,0)" stroke-width="2" fill="none"></circle>
<circle cx="6195.5" cy="1637" r="4" stroke="rgb(255,144,0)" stroke-width="2" fill="none"></circle>
<circle cx="922.158" cy="552.893" r="4" stroke="rgb(0,169,255)" stroke-width="2" fill="none"></circle>
<circle cx="7158.16" cy="1503.32" r="4" stroke="rgb(0,169,255)" stroke-width="2" fill="none"></circle>
<circle cx="917.989" cy="555.635" r="4" stroke="rgb(255,0,204)" stroke-width="2" fill="none"></circle>
<circle cx="6212.83" cy="1683.67" r="4" stroke="rgb(255,0,204)" stroke-width="2" fill="none"></circle>
<circle cx="1716.44" cy="565.04" r="4" stroke="rgb(0,221,255)" stroke-width="2" fill="none"></circle>
<circle cx="6783.35" cy="1792.85" r="4" stroke="rgb(0,221,255)" stroke-width="2" fill="none"></circle>
<circle cx="689.264" cy="571.768" r="4" stroke="rgb(255,17,0)" stroke-width="2" fill="none"></circle>
<circle cx="6148.55" cy="1661.95" r="4" stroke="rgb(255,17,0)" stroke-width="2" fill="none"></circle>
<circle cx="586.345" cy="574" r="4" stroke="rgb(255,0,148)" stroke-width="2" fill="none"></circle>
<circle cx="5923.97" cy="1830.53" r="4" stroke="rgb(255,0,148)" stroke-width="2" fill="none"></circle>
<circle cx="1909.33" cy="613.5" r="4" stroke="rgb(80,255,0)" stroke-width="2" fill="none"></circle>
<circle cx="5671.77" cy="1778.6" r="4" stroke="rgb(80,255,0)" stroke-width="2" fill="none"></circle>
<circle cx="2110.39" cy="617.011" r="4" stroke="rgb(225,0,255)" stroke-width="2" fill="none"></circle>
<circle cx="5519.3" cy="1288.1" r="4" stroke="rgb(225,0,255)" stroke-width="2" fill="none"></circle>
<circle cx="1716.93" cy="636.6" r="4" stroke="rgb(255,93,0)" stroke-width="2" fill="none"></circle>
<circle cx="6943.21" cy="1969.05" r="4" stroke="rgb(255,93,0)" stroke-width="2" fill="none"></circle>
<circle cx="1967.48" cy="667.373" r="4" stroke="rgb(199,255,0)" stroke-width="2" fill="none"></circle>
<circle cx="6758.44" cy="975.743" r="4" stroke="rgb(199,255,0)" stroke-width="2" fill="none"></circle>
<circle cx="2207.6" cy="685.041" r="4" stroke="rgb(0,187,255)" stroke-width="2" fill="none"></circle>
<circle cx="5993.02" cy="1751.83" r="4" stroke="rgb(0,187,255)" stroke-width="2" fill="none"></circle>
<circle cx="1786.4" cy="689.15" r="4" stroke="rgb(157,255,0)" stroke-width="2" fill="none"></circle>
<circle cx="6582.7" cy="1642.44" r="4" stroke="rgb(157,255,0)" stroke-width="2" fill="none"></circle>
<circle cx="2274.67" cy="705.605" r="4" stroke="rgb(0,255,106)" stroke-width="2" fill="none"></circle>
<circle cx="5378.29" cy="1950.86" r="4" stroke="rgb(0,255,106)" stroke-width="2" fill="none"></circle>
<circle cx="924.107" cy="732.227" r="4" stroke="rgb(233,0,255)" stroke-width="2" fill="none"></circle>
<circle cx="5092.22" cy="1692.73" r="4" stroke="rgb(233,0,255)" stroke-width="2" fill="none"></circle>
<circle cx="2385.29" cy="803.433" r="4" stroke="rgb(255,0,97)" stroke-width="2" fill="none"></circle>
<circle cx="7397.3" cy="1624.36" r="4" stroke="rgb(255,0,97)" stroke-width="2" fill="none"></circle>
<circle cx="2240.97" cy="815.118" r="4" stroke="rgb(72,0,255)" stroke-width="2" fill="none"></circle>
<circle cx="6805.59" cy="1927.83" r="4" stroke="rgb(72,0,255)" stroke-width="2" fill="none"></circle>
<circle cx="2088.17" cy="820.977" r="4" stroke="rgb(255,97,0)" stroke-width="2" fill="none"></circle>
<circle cx="6347.62" cy="1942.26" r="4" stroke="rgb(255,97,0)" stroke-width="2" fill="none"></circle>
<circle cx="2096.06" cy="841.658" r="4" stroke="rgb(21,0,255)" stroke-width="2" fill="none"></circle>
<circle cx="6738.55" cy="2002.47" r="4" stroke="rgb(21,0,255)" stroke-width="2" fill="none"></circle>
<circle cx="850.105" cy="852.953" r="4" stroke="rgb(255,0,250)" stroke-width="2" fill="none"></circle>
<circle cx="5799.83" cy="1326.99" r="4" stroke="rgb(255,0,250)" stroke-width="2" fill="none"></circle>
<circle cx="872.255" cy="869.761" r="4" stroke="rgb(63,255,0)" stroke-width="2" fill="none"></circle>
<circle cx="5761.63" cy="1379.64" r="4" stroke="rgb(63,255,0)" stroke-width="2" fill="none"></circle>
<circle cx="2270.68" cy="873.777" r="4" stroke="rgb(0,4,255)" stroke-width="2" fill="none"></circle>
<circle cx="5660.34" cy="1394.69" r="4" stroke="rgb(0,4,255)" stroke-width="2" fill="none"></circle>
<circle cx="1937.15" cy="882.278" r="4" stroke="rgb(186,0,255)" stroke-width="2" fill="none"></circle>
<circle cx="6509.81" cy="1696.03" r="4" stroke="rgb(186,0,255)" stroke-width="2" fill="none"></circle>
<circle cx="2086.19" cy="892.048" r="4" stroke="rgb(255,12,0)" stroke-width="2" fill="none"></circle>
<circle cx="6734.42" cy="1941.34" r="4" stroke="rgb(255,12,0)" stroke-width="2" fill="none"></circle>
<circle cx="1976.34" cy="901.939" r="4" stroke="rgb(216,0,255)" stroke-width="2" fill="none"></circle>
<circle cx="6984.84" cy="1478.57" r="4" stroke="rgb(216,0,255)" stroke-width="2" fill="none"></circle>
<circle cx="1923.34" cy="921.471" r="4" stroke="rgb(29,0,255)" stroke-width="2" fill="none"></circle>
<circle cx="6203.89" cy="1951.92" r="4" stroke="rgb(29,0,255)" stroke-width="2" fill="none"></circle>
<circle cx="2299.81" cy="949.928" r="4" stroke="rgb(255,204,0)" stroke-width="2" fill="none"></circle>
<circle cx="6716.23" cy="1954.7" r="4" stroke="rgb(255,204,0)" stroke-width="2" fill="none"></circle>
<circle cx="2213.24" cy="956.161" r="4" stroke="rgb(102,0,255)" stroke-width="2" fill="none"></circle>
<circle cx="5775.7" cy="1613.6" r="4" stroke="rgb(102,0,255)" stroke-width="2" fill="none"></circle>
<circle cx="2173.83" cy="962.792" r="4" stroke="rgb(16,255,0)" stroke-width="2" fill="none"></circle>
<circle cx="6867.36" cy="1568.98" r="4" stroke="rgb(16,255,0)" stroke-width="2" fill="none"></circle>
<circle cx="1095.86" cy="973.262" r="4" stroke="rgb(255,225,0)" stroke-width="2" fill="none"></circle>
<circle cx="5084.78" cy="1688.11" r="4" stroke="rgb(255,225,0)" stroke-width="2" fill="none"></circle>
<circle cx="2348.76" cy="978.414" r="4" stroke="rgb(0,42,255)" stroke-width="2" fill="none"></circle>
<circle cx="6995.56" cy="1290.92" r="4" stroke="rgb(0,42,255)" stroke-width="2" fill="none"></circle>
<circle cx="2440.44" cy="987.514" r="4" stroke="rgb(182,255,0)" stroke-width="2" fill="none"></circle>
<circle cx="6297.17" cy="1964.64" r="4" stroke="rgb(182,255,0)" stroke-width="2" fill="none"></circle>
<circle cx="2072.53" cy="996.529" r="4" stroke="rgb(140,255,0)" stroke-width="2" fill="none"></circle>
<circle cx="6074.8" cy="1972.85" r="4" stroke="rgb(140,255,0)" stroke-width="2" fill="none"></circle>
<circle cx="2403.68" cy="1000.06" r="4" stroke="rgb(212,255,0)" stroke-width="2" fill="none"></circle>
<circle cx="6621.23" cy="1516.26" r="4" stroke="rgb(212,255,0)" stroke-width="2" fill="none"></circle>
<circle cx="2552.2" cy="1036.26" r="4" stroke="rgb(255,127,0)" stroke-width="2" fill="none"></circle>
<circle cx="5612" cy="1279.55" r="4" stroke="rgb(255,127,0)" stroke-width="2" fill="none"></circle>
<circle cx="1106.04" cy="1047.87" r="4" stroke="rgb(153,0,255)" stroke-width="2" fill="none"></circle>
<circle cx="6762.08" cy="988.236" r="4" stroke="rgb(153,0,255)" stroke-width="2" fill="none"></circle>
<circle cx="2533.77" cy="1053.09" r="4" stroke="rgb(255,0,225)" stroke-width="2" fill="none"></circle>
<circle cx="6118.77" cy="800.98" r="4" stroke="rgb(255,0,225)" stroke-width="2" fill="none"></circle>
<circle cx="1331.02" cy="1056.08" r="4" stroke="rgb(0,55,255)" stroke-width="2" fill="none"></circle>
<circle cx="5466.14" cy="1545.46" r="4" stroke="rgb(0,55,255)" stroke-width="2" fill="none"></circle>
<circle cx="1125.28" cy="1061.22" r="4" stroke="rgb(38,0,255)" stroke-width="2" fill="none"></circle>
<circle cx="5750.11" cy="1422.92" r="4" stroke="rgb(38,0,255)" stroke-width="2" fill="none"></circle>
<circle cx="1598.04" cy="1070" r="4" stroke="rgb(33,255,0)" stroke-width="2" fill="none"></circle>
<circle cx="6644.48" cy="1545.89" r="4" stroke="rgb(33,255,0)" stroke-width="2" fill="none"></circle>
<circle cx="1435.82" cy="1149.78" r="4" stroke="rgb(0,255,8)" stroke-width="2" fill="none"></circle>
<circle cx="7215.54" cy="1672.48" r="4" stroke="rgb(0,255,8)" stroke-width="2" fill="none"></circle>
<circle cx="1239.77" cy="1158.07" r="4" stroke="rgb(0,195,255)" stroke-width="2" fill="none"></circle>
<circle cx="7053.43" cy="1830.09" r="4" stroke="rgb(0,195,255)" stroke-width="2" fill="none"></circle>
<circle cx="2562.32" cy="1189.74" r="4" stroke="rgb(255,0,216)" stroke-width="2" fill="none"></circle>
<circle cx="5118.17" cy="1859.87" r="4" stroke="rgb(255,0,216)" stroke-width="2" fill="none"></circle>
<circle cx="2510.54" cy="1190.44" r="4" stroke="rgb(182,255,0)" stroke-width="2" fill="none"></circle>
<circle cx="6645.21" cy="1520.65" r="4" stroke="rgb(182,255,0)" stroke-width="2" fill="none"></circle>
<circle cx="1160.78" cy="1200.32" r="4" stroke="rgb(255,0,89)" stroke-width="2" fill="none"></circle>
<circle cx="6434.42" cy="1743.13" r="4" stroke="rgb(255,0,89)" stroke-width="2" fill="none"></circle>
<circle cx="2481.46" cy="1214.28" r="4" stroke="rgb(17,0,255)" stroke-width="2" fill="none"></circle>
<circle cx="6785.37" cy="1863.36" r="4" stroke="rgb(17,0,255)" stroke-width="2" fill="none"></circle>
<circle cx="2534.56" cy="1219.72" r="4" stroke="rgb(255,229,0)" stroke-width="2" fill="none"></circle>
<circle cx="6207.36" cy="820.503" r="4" stroke="rgb(255,229,0)" stroke-width="2" fill="none"></circle>
<circle cx="2303.6" cy="1249.86" r="4" stroke="rgb(51,255,0)" stroke-width="2" fill="none"></circle>
<circle cx="5218.35" cy="1831.47" r="4" stroke="rgb(51,255,0)" stroke-width="2" fill="none"></circle>
<circle cx="1221.84" cy="1252.29" r="4" stroke="rgb(114,0,255)" stroke-width="2" fill="none"></circle>
<circle cx="6792.01" cy="1472.61" r="4" stroke="rgb(114,0,255)" stroke-width="2" fill="none"></circle>
<circle cx="2539.68" cy="1252.94" r="4" stroke="rgb(0,255,220)" stroke-width="2" fill="none"></circle>
<circle cx="6996.21" cy="1682.64" r="4" stroke="rgb(0,255,220)" stroke-width="2" fill="none"></circle>
<circle cx="2678.5" cy="1262.69" r="4" stroke="rgb(174,0,255)" stroke-width="2" fill="none"></circle>
<circle cx="6870.67" cy="1986.47" r="4" stroke="rgb(174,0,255)" stroke-width="2" fill="none"></circle>
<circle cx="2245.55" cy="1293.48" r="4" stroke="rgb(255,51,0)" stroke-width="2" fill="none"></circle>
<circle cx="5176.33" cy="1670.32" r="4" stroke="rgb(255,51,0)" stroke-width="2" fill="none"></circle>
<circle cx="1348.46" cy="1308.22" r="4" stroke="rgb(255,216,0)" stroke-width="2" fill="none"></circle>
<circle cx="5398.32" cy="1533.78" r="4" stroke="rgb(255,216,0)" stroke-width="2" fill="none"></circle>
<circle cx="2289.42" cy="1331.8" r="4" stroke="rgb(0,148,255)" stroke-width="2" fill="none"></circle>
<circle cx="7026.79" cy="1132.21" r="4" stroke="rgb(0,148,255)" stroke-width="2" fill="none"></circle>
<circle cx="2125.39" cy="1333.09" r="4" stroke="rgb(255,63,0)" stroke-width="2" fill="none"></circle>
<circle cx="5743.87" cy="1074.01" r="4" stroke="rgb(255,63,0)" stroke-width="2" fill="none"></circle>
<circle cx="2350.69" cy="1341.09" r="4" stroke="rgb(0,110,255)" stroke-width="2" fill="none"></circle>
<circle cx="6840.95" cy="1604.55" r="4" stroke="rgb(0,110,255)" stroke-width="2" fill="none"></circle>
<circle cx="1988.02" cy="1342.17" r="4" stroke="rgb(255,0,153)" stroke-width="2" fill="none"></circle>
<circle cx="6465.5" cy="1684.84" r="4" stroke="rgb(255,0,153)" stroke-width="2" fill="none"></circle>
<circle cx="2440.99" cy="1351.68" r="4" stroke="rgb(233,0,255)" stroke-width="2" fill="none"></circle>
<circle cx="6980.34" cy="1853.13" r="4" stroke="rgb(233,0,255)" stroke-width="2" fill="none"></circle>
<circle cx="2765.87" cy="1351.85" r="4" stroke="rgb(4,255,0)" stroke-width="2" fill="none"></circle>
<circle cx="5930.73" cy="911.535" r="4" stroke="rgb(4,255,0)" stroke-width="2" fill="none"></circle>
<circle cx="1972.16" cy="1374.71" r="4" stroke="rgb(169,255,0)" stroke-width="2" fill="none"></circle>
<circle cx="6092.83" cy="1677.54" r="4" stroke="rgb(169,255,0)" stroke-width="2" fill="none"></circle>
<circle cx="1995.11" cy="1398.44" r="4" stroke="rgb(255,0,51)" stroke-width="2" fill="none"></circle>
<circle cx="6643.05" cy="940.182" r="4" stroke="rgb(255,0,51)" stroke-width="2" fill="none"></circle>
<circle cx="2478.86" cy="1478.67" r="4" stroke="rgb(255,0,46)" stroke-width="2" fill="none"></circle>
<circle cx="5720.88" cy="1864.93" r="4" stroke="rgb(255,0,46)" stroke-width="2" fill="none"></circle>
<circle cx="2448.68" cy="1571.06" r="4" stroke="rgb(0,255,161)" stroke-width="2" fill="none"></circle>
<circle cx="6985.85" cy="930.807" r="4" stroke="rgb(0,255,161)" stroke-width="2" fill="none"></circle>
<circle cx="1335.48" cy="1652.12" r="4" stroke="rgb(255,0,221)" stroke-width="2" fill="none"></circle>
<circle cx="5879.79" cy="1746.22" r="4" stroke="rgb(255,0,221)" stroke-width="2" fill="none"></circle>
<circle cx="2472.87" cy="1686.7" r="4" stroke="rgb(216,0,255)" stroke-width="2" fill="none"></circle>
<circle cx="5876.25" cy="1960.56" r="4" stroke="rgb(216,0,255)" stroke-width="2" fill="none"></circle>
<circle cx="1636.31" cy="1706.06" r="4" stroke="rgb(255,255,0)" stroke-width="2" fill="none"></circle>
<circle cx="5713.95" cy="1968.31" r="4" stroke="rgb(255,255,0)" stroke-width="2" fill="none"></circle>
<circle cx="1657.92" cy="1710.25" r="4" stroke="rgb(0,67,255)" stroke-width="2" fill="none"></circle>
<circle cx="7146.98" cy="1450.94" r="4" stroke="rgb(0,67,255)" stroke-width="2" fill="none"></circle>
<circle cx="2512.86" cy="1712.5" r="4" stroke="rgb(0,8,255)" stroke-width="2" fill="none"></circle>
<circle cx="5411.3" cy="1347.56" r="4" stroke="rgb(0,8,255)" stroke-width="2" fill="none"></circle>
<circle cx="1632.73" cy="1716.25" r="4" stroke="rgb(199,0,255)" stroke-width="2" fill="none"></circle>
<circle cx="5861.22" cy="1707.43" r="4" stroke="rgb(199,0,255)" stroke-width="2" fill="none"></circle>
<circle cx="2150.04" cy="1741.05" r="4" stroke="rgb(255,0,63)" stroke-width="2" fill="none"></circle>
<circle cx="6362.45" cy="1591.02" r="4" stroke="rgb(255,0,63)" stroke-width="2" fill="none"></circle>
<circle cx="1629.96" cy="1755.67" r="4" stroke="rgb(255,0,38)" stroke-width="2" fill="none"></circle>
<circle cx="7242.33" cy="1658.83" r="4" stroke="rgb(255,0,38)" stroke-width="2" fill="none"></circle>
<circle cx="2185.35" cy="1764.16" r="4" stroke="rgb(255,208,0)" stroke-width="2" fill="none"></circle>
<circle cx="6668.2" cy="1826.27" r="4" stroke="rgb(255,208,0)" stroke-width="2" fill="none"></circle>
<circle cx="2070.83" cy="1783.62" r="4" stroke="rgb(0,255,250)" stroke-width="2" fill="none"></circle>
<circle cx="6944.22" cy="1609.88" r="4" stroke="rgb(0,255,250)" stroke-width="2" fill="none"></circle>
<circle cx="1754.49" cy="1792.44" r="4" stroke="rgb(0,255,220)" stroke-width="2" fill="none"></circle>
<circle cx="5711.25" cy="1517.98" r="4" stroke="rgb(0,255,220)" stroke-width="2" fill="none"></circle>
<circle cx="2401.95" cy="1795.05" r="4" stroke="rgb(0,255,29)" stroke-width="2" fill="none"></circle>
<circle cx="5203.45" cy="1656.27" r="4" stroke="rgb(0,255,29)" stroke-width="2" fill="none"></circle>
<circle cx="2079.67" cy="1816.09" r="4" stroke="rgb(255,127,0)" stroke-width="2" fill="none"></circle>
<circle cx="6231.89" cy="1890.84" r="4" stroke="rgb(255,127,0)" stroke-width="2" fill="none"></circle>
<circle cx="2404.9" cy="1833.55" r="4" stroke="rgb(255,238,0)" stroke-width="2" fill="none"></circle>
<circle cx="5399.9" cy="1365.88" r="4" stroke="rgb(255,238,0)" stroke-width="2" fill="none"></circle>
<circle cx="1560.07" cy="1838.8" r="4" stroke="rgb(0,250,255)" stroke-width="2" fill="none"></circle>
<circle cx="6751.37" cy="1464.99" r="4" stroke="rgb(0,250,255)" stroke-width="2" fill="none"></circle>
<circle cx="2087.92" cy="1845" r="4" stroke="rgb(0,255,76)" stroke-width="2" fill="none"></circle>
<circle cx="6409.89" cy="1678.03" r="4" stroke="rgb(0,255,76)" stroke-width="2" fill="none"></circle>
<circle cx="2161.43" cy="1851.35" r="4" stroke="rgb(255,0,157)" stroke-width="2" fill="none"></circle>
<circle cx="6524.54" cy="1990.73" r="4" stroke="rgb(255,0,157)" stroke-width="2" fill="none"></circle>
<circle cx="2135.79" cy="1856.52" r="4" stroke="rgb(0,63,255)" stroke-width="2" fill="none"></circle>
<circle cx="6776.22" cy="1748.58" r="4" stroke="rgb(0,63,255)" stroke-width="2" fill="none"></circle>
<circle cx="2153.3" cy="1883.82" r="4" stroke="rgb(255,250,0)" stroke-width="2" fill="none"></circle>
<circle cx="6874.41" cy="1689" r="4" stroke="rgb(255,250,0)" stroke-width="2" fill="none"></circle>
<circle cx="2095.12" cy="1887.98" r="4" stroke="rgb(0,135,255)" stroke-width="2" fill="none"></circle>
<circle cx="6502.1" cy="1952.12" r="4" stroke="rgb(0,135,255)" stroke-width="2" fill="none"></circle>
<circle cx="1577.93" cy="1902.12" r="4" stroke="rgb(153,0,255)" stroke-width="2" fill="none"></circle>
<circle cx="7137.99" cy="1796.54" r="4" stroke="rgb(153,0,255)" stroke-width="2" fill="none"></circle>
<circle cx="1570.1" cy="1909.87" r="4" stroke="rgb(102,0,255)" stroke-width="2" fill="none"></circle>
<circle cx="6356.2" cy="1483.17" r="4" stroke="rgb(102,0,255)" stroke-width="2" fill="none"></circle>
<circle cx="2480.05" cy="1939.58" r="4" stroke="rgb(106,255,0)" stroke-width="2" fill="none"></circle>
<circle cx="6167.4" cy="1547.34" r="4" stroke="rgb(106,255,0)" stroke-width="2" fill="none"></circle>
<circle cx="1445.62" cy="1957.02" r="4" stroke="rgb(255,12,0)" stroke-width="2" fill="none"></circle>
<circle cx="5930.73" cy="911.535" r="4" stroke="rgb(255,12,0)" stroke-width="2" fill="none"></circle>
<circle cx="2139.39" cy="1980.69" r="4" stroke="rgb(84,255,0)" stroke-width="2" fill="none"></circle>
<circle cx="6326.9" cy="1922.97" r="4" stroke="rgb(84,255,0)" stroke-width="2" fill="none"></circle>
<circle cx="1935.58" cy="2033.6" r="4" stroke="rgb(97,0,255)" stroke-width="2" fill="none"></circle>
<circle cx="6366.82" cy="1911.67" r="4" stroke="rgb(97,0,255)" stroke-width="2" fill="none"></circle>
<circle cx="2447.74" cy="2037.8" r="4" stroke="rgb(0,255,8)" stroke-width="2" fill="none"></circle>
<circle cx="6704.4" cy="979.904" r="4" stroke="rgb(0,255,8)" stroke-width="2" fill="none"></circle>
<circle cx="1935.08" cy="2039.86" r="4" stroke="rgb(0,250,255)" stroke-width="2" fill="none"></circle>
<circle cx="6729.28" cy="1713.3" r="4" stroke="rgb(0,250,255)" stroke-width="2" fill="none"></circle>
<circle cx="868.316" cy="2055.86" r="4" stroke="rgb(0,255,12)" stroke-width="2" fill="none"></circle>
<circle cx="5644.13" cy="1197.03" r="4" stroke="rgb(0,255,12)" stroke-width="2" fill="none"></circle>
<circle cx="1895.01" cy="2071.15" r="4" stroke="rgb(255,0,72)" stroke-width="2" fill="none"></circle>
<circle cx="6436.5" cy="2035.81" r="4" stroke="rgb(255,0,72)" stroke-width="2" fill="none"></circle>
<circle cx="954.221" cy="2083.11" r="4" stroke="rgb(255,0,89)" stroke-width="2" fill="none"></circle>
<circle cx="5750.62" cy="1553.05" r="4" stroke="rgb(255,0,89)" stroke-width="2" fill="none"></circle>
<circle cx="1596.3" cy="2164.52" r="4" stroke="rgb(208,255,0)" stroke-width="2" fill="none"></circle>
<circle cx="5978.95" cy="1766.19" r="4" stroke="rgb(208,255,0)" stroke-width="2" fill="none"></circle>
<circle cx="963.112" cy="2348.56" r="4" stroke="rgb(0,255,110)" stroke-width="2" fill="none"></circle>
<circle cx="5908.82" cy="1854.2" r="4" stroke="rgb(0,255,110)" stroke-width="2" fill="none"></circle>
</svg>