<?xml version="1.0" standalone="yes"?>
<!-- SVG graphic -->
<svg xmlns='http://www.w3.org/2000/svg' xmlns:xlink='http://www.w3.org/1999/xlink'
width="8064px" height="3024px" preserveAspectRatio="xMinYMin meet" viewBox="0 0 8064 3024" version="1.1">
<image x="0" y="0" width="4032px" height="3024px" opacity="1" xlink:href="/home/jeong/Code/2D-to-3D-Modeling-using-AI/Make3D/Image/20200227_180634.jpg"/>
<image x="4032" y="0" width="4032px" height="3024px" opacity="1" xlink:href="/home/jeong/Code/2D-to-3D-Modeling-using-AI/Make3D/Image/20200227_180647.jpg"/>
<polyline points="2917.77,1243.6,5943.37,964.56" stroke="rgb(255,0,93)" stroke-width="2" fill="none"></polyline>
<polyline points="2605.49,1259.52,6616.74,1557.08" stroke="rgb(38,255,0)" stroke-width="2" fill="none"></polyline>
<polyline points="2623.82,1261.46,6542.43,1366.43" stroke="rgb(255,238,0)" stroke-width="2" fill="none"></polyline>
<polyline points="2518.13,1262.71,6981.53,1517.75" stroke="rgb(110,0,255)" stroke-width="2" fill="none"></polyline>
<polyline points="2586,1268.58,6432.38,1858.17" stroke="rgb(0,110,255)" stroke-width="2" fill="none"></polyline>
<polyline points="2630.36,1269.21,5966.09,805.55" stroke="rgb(246,0,255)" stroke-width="2" fill="none"></polyline>
<polyline points="2021.03,1292.58,6000.55,1235.61" stroke="rgb(255,0,12)" stroke-width="2" fill="none"></polyline>
<polyline points="2329.35,1306.02,6239.76,769.788" stroke="rgb(123,255,0)" stroke-width="2" fill="none"></polyline>
<polyline points="2457.14,1310.98,4938.98,958.688" stroke="rgb(144,255,0)" stroke-width="2" fill="none"></polyline>
<polyline points="2721.72,1337.76,6508.07,1444.08" stroke="rgb(67,0,255)" stroke-width="2" fill="none"></polyline>
<polyline points="2764.15,1345.29,6751.2,1000.98" stroke="rgb(0,255,89)" stroke-width="2" fill="none"></polyline>
<polyline points="1679.8,1354.92,6261.85,757.503" stroke="rgb(0,76,255)" stroke-width="2" fill="none"></polyline>
<polyline points="1654.67,1358.55,6432.36,1308.95" stroke="rgb(0,255,131)" stroke-width="2" fill="none"></polyline>
<polyline points="2830.76,1377.08,6991.03,1422.6" stroke="rgb(255,225,0)" stroke-width="2" fill="none"></polyline>
<polyline points="1710.52,1385.67,6603.38,1599.02" stroke="rgb(255,182,0)" stroke-width="2" fill="none"></polyline>
<polyline points="1247.07,1410.66,6838.35,1879.3" stroke="rgb(255,182,0)" stroke-width="2" fill="none"></polyline>
<polyline points="1910.81,1422.45,5172.77,1102.42" stroke="rgb(0,255,246)" stroke-width="2" fill="none"></polyline>
<polyline points="1629.29,1425.19,5820.08,2171.32" stroke="rgb(0,255,195)" stroke-width="2" fill="none"></polyline>
<polyline points="1883.83,1436.17,6415.67,1813.27" stroke="rgb(63,255,0)" stroke-width="2" fill="none"></polyline>
<polyline points="1672.7,1436.64,7023.36,1437.57" stroke="rgb(255,0,46)" stroke-width="2" fill="none"></polyline>
<polyline points="1494.2,1465.23,6106.02,1141.36" stroke="rgb(153,255,0)" stroke-width="2" fill="none"></polyline>
<polyline points="2789.69,1468.71,6560.22,2012.63" stroke="rgb(110,0,255)" stroke-width="2" fill="none"></polyline>
<polyline points="1128.79,1484.65,5841.57,906.275" stroke="rgb(0,8,255)" stroke-width="2" fill="none"></polyline>
<polyline points="1942.21,1492.02,5411.11,991.764" stroke="rgb(25,0,255)" stroke-width="2" fill="none"></polyline>
<polyline points="1832.2,1493.08,6149.79,1254.51" stroke="rgb(255,242,0)" stroke-width="2" fill="none"></polyline>
<polyline points="1752.11,1501.7,6196.76,909.392" stroke="rgb(0,255,250)" stroke-width="2" fill="none"></polyline>
<polyline points="1914.34,1540.1,6251.17,927.878" stroke="rgb(0,255,55)" stroke-width="2" fill="none"></polyline>
<polyline points="1581.02,1540.79,5283.23,2360.49" stroke="rgb(255,97,0)" stroke-width="2" fill="none"></polyline>
<polyline points="1419.45,1548.74,5369.84,833.066" stroke="rgb(0,148,255)" stroke-width="2" fill="none"></polyline>
<polyline points="1023.26,1549.25,5701.48,1578.62" stroke="rgb(255,191,0)" stroke-width="2" fill="none"></polyline>
<polyline points="1863.88,1563.53,5810.9,2170.53" stroke="rgb(255,174,0)" stroke-width="2" fill="none"></polyline>
<polyline points="2001.59,1578.85,6853.01,1231.24" stroke="rgb(0,237,255)" stroke-width="2" fill="none"></polyline>
<polyline points="2248.8,1583.1,6537.98,1380.84" stroke="rgb(255,119,0)" stroke-width="2" fill="none"></polyline>
<polyline points="1361.21,1607.85,7300.46,1904.65" stroke="rgb(93,255,0)" stroke-width="2" fill="none"></polyline>
<polyline points="2188.23,1618.25,5781.53,1562.05" stroke="rgb(255,0,161)" stroke-width="2" fill="none"></polyline>
<polyline points="2029.8,1621.67,6241.65,1212.7" stroke="rgb(8,0,255)" stroke-width="2" fill="none"></polyline>
<polyline points="2162.73,1627.27,5620.07,2193.58" stroke="rgb(255,153,0)" stroke-width="2" fill="none"></polyline>
<polyline points="1852.8,1671.54,6696.25,1347.46" stroke="rgb(0,208,255)" stroke-width="2" fill="none"></polyline>
<polyline points="1830.94,1672.54,7141.08,1895.85" stroke="rgb(0,148,255)" stroke-width="2" fill="none"></polyline>
<polyline points="1876.31,1681.36,5245.56,867.681" stroke="rgb(0,255,8)" stroke-width="2" fill="none"></polyline>
<polyline points="1876.48,1693.88,7134.73,1392.1" stroke="rgb(140,255,0)" stroke-width="2" fill="none"></polyline>
<polyline points="1822.68,1698.68,5228.25,837.07" stroke="rgb(0,93,255)" stroke-width="2" fill="none"></polyline>
<polyline points="1861.07,1713.49,7194.23,1882.27" stroke="rgb(0,101,255)" stroke-width="2" fill="none"></polyline>
<polyline points="1835.52,1715.32,5242.86,852.863" stroke="rgb(38,255,0)" stroke-width="2" fill="none"></polyline>
<polyline points="3256.25,1721.8,4808.58,1120.27" stroke="rgb(135,0,255)" stroke-width="2" fill="none"></polyline>
<polyline points="1838.49,1727.63,5592.43,1110.83" stroke="rgb(80,0,255)" stroke-width="2" fill="none"></polyline>
<polyline points="1824.92,1733.63,5745.87,1110.01" stroke="rgb(255,110,0)" stroke-width="2" fill="none"></polyline>
<polyline points="604.769,1802.23,5139.01,1151.81" stroke="rgb(255,0,161)" stroke-width="2" fill="none"></polyline>
<polyline points="567.108,1810.41,6978.85,1527.84" stroke="rgb(229,255,0)" stroke-width="2" fill="none"></polyline>
<polyline points="3039.71,1897.6,5621.6,2193.72" stroke="rgb(255,12,0)" stroke-width="2" fill="none"></polyline>
<polyline points="2885.78,1911.22,6593.78,1559.41" stroke="rgb(255,0,208)" stroke-width="2" fill="none"></polyline>
<polyline points="2862.4,1942.09,6096.6,1079.22" stroke="rgb(255,93,0)" stroke-width="2" fill="none"></polyline>
<polyline points="2875.82,1959.15,6428.95,1493.53" stroke="rgb(123,0,255)" stroke-width="2" fill="none"></polyline>
<polyline points="693.861,1966.49,5803.84,1082.42" stroke="rgb(246,255,0)" stroke-width="2" fill="none"></polyline>
<polyline points="2844.72,1996.81,6580.35,1676.36" stroke="rgb(0,255,89)" stroke-width="2" fill="none"></polyline>
<polyline points="664.192,1998.14,5440.43,810.277" stroke="rgb(0,178,255)" stroke-width="2" fill="none"></polyline>
<polyline points="2884.68,2010.49,6534.79,1371.19" stroke="rgb(4,0,255)" stroke-width="2" fill="none"></polyline>
<polyline points="2894.26,2016.98,6360.18,1433.68" stroke="rgb(144,0,255)" stroke-width="2" fill="none"></polyline>
<polyline points="2884.11,2029.92,6681.1,1415.02" stroke="rgb(114,255,0)" stroke-width="2" fill="none"></polyline>
<polyline points="2822.48,2030.49,6462.88,1491.51" stroke="rgb(255,0,174)" stroke-width="2" fill="none"></polyline>
<polyline points="2823.28,2037.32,6471.7,1358.42" stroke="rgb(255,0,169)" stroke-width="2" fill="none"></polyline>
<polyline points="2835.57,2042.19,6627.41,1691.25" stroke="rgb(0,255,63)" stroke-width="2" fill="none"></polyline>
<polyline points="2840.37,2047.2,6256.79,1263.19" stroke="rgb(255,63,0)" stroke-width="2" fill="none"></polyline>
<polyline points="2552.93,2048.86,5671.54,2156.11" stroke="rgb(0,85,255)" stroke-width="2" fill="none"></polyline>
<polyline points="2849.31,2059.18,6410.86,1728.2" stroke="rgb(0,29,255)" stroke-width="2" fill="none"></polyline>
<polyline points="451.665,2065.36,5481.37,1072.58" stroke="rgb(0,131,255)" stroke-width="2" fill="none"></polyline>
<polyline points="2909.99,2066.91,7094.48,1641.35" stroke="rgb(72,255,0)" stroke-width="2" fill="none"></polyline>
<polyline points="2852.06,2070.56,6594.96,1784.84" stroke="rgb(0,255,89)" stroke-width="2" fill="none"></polyline>
<polyline points="2935.21,2089.32,6370.49,1228.57" stroke="rgb(255,170,0)" stroke-width="2" fill="none"></polyline>
<polyline points="2466.74,2102.15,6681.33,1205.95" stroke="rgb(0,255,254)" stroke-width="2" fill="none"></polyline>
<polyline points="2871.69,2104.82,7031.97,1618.85" stroke="rgb(0,255,63)" stroke-width="2" fill="none"></polyline>
<polyline points="3087.95,2109.56,7037.1,1291.29" stroke="rgb(255,0,0)" stroke-width="2" fill="none"></polyline>
<polyline points="2897.35,2119.73,6611.21,1827.1" stroke="rgb(255,165,0)" stroke-width="2" fill="none"></polyline>
<polyline points="2909.09,2122.02,6983.88,1644.73" stroke="rgb(255,0,38)" stroke-width="2" fill="none"></polyline>
<polyline points="2850.21,2126.02,6250.43,1303.82" stroke="rgb(38,255,0)" stroke-width="2" fill="none"></polyline>
<polyline points="2969.78,2129.94,6245.01,983.215" stroke="rgb(255,0,208)" stroke-width="2" fill="none"></polyline>
<polyline points="3040.16,2131.42,6424.21,1547.35" stroke="rgb(0,255,8)" stroke-width="2" fill="none"></polyline>
<polyline points="2912.11,2134.21,6702.56,1746.32" stroke="rgb(255,38,0)" stroke-width="2" fill="none"></polyline>
<polyline points="3103.04,2136.17,6976.64,1497" stroke="rgb(0,255,106)" stroke-width="2" fill="none"></polyline>
<polyline points="2902.69,2136.2,6522.28,1645.56" stroke="rgb(255,255,0)" stroke-width="2" fill="none"></polyline>
<polyline points="2865.93,2144.58,6526.68,1564.9" stroke="rgb(255,51,0)" stroke-width="2" fill="none"></polyline>
<polyline points="2875.67,2145.27,6277.87,1284.81" stroke="rgb(97,255,0)" stroke-width="2" fill="none"></polyline>
<polyline points="3012.17,2146.59,6345.9,1886.58" stroke="rgb(157,255,0)" stroke-width="2" fill="none"></polyline>
<polyline points="1486.74,2155.75,4986.47,1417.81" stroke="rgb(0,255,140)" stroke-width="2" fill="none"></polyline>
<polyline points="2888.97,2165.57,6495.02,1584.25" stroke="rgb(255,131,0)" stroke-width="2" fill="none"></polyline>
<polyline points="2838.34,2173.01,5364.13,869.555" stroke="rgb(0,67,255)" stroke-width="2" fill="none"></polyline>
<polyline points="1082.04,2184.59,5499.72,660.874" stroke="rgb(255,0,38)" stroke-width="2" fill="none"></polyline>
<polyline points="2855.44,2187.62,6631.95,1728.38" stroke="rgb(0,255,101)" stroke-width="2" fill="none"></polyline>
<polyline points="2965.67,2190.59,6396.52,1398.18" stroke="rgb(255,42,0)" stroke-width="2" fill="none"></polyline>
<polyline points="909.133,2193.75,5165.03,1179.75" stroke="rgb(148,255,0)" stroke-width="2" fill="none"></polyline>
<polyline points="2870.18,2203.76,6679.52,1739.31" stroke="rgb(72,255,0)" stroke-width="2" fill="none"></polyline>
<polyline points="2882.45,2219.03,5295.67,914.948" stroke="rgb(0,161,255)" stroke-width="2" fill="none"></polyline>
<polyline points="908.609,2224.7,5529.74,1230.43" stroke="rgb(119,255,0)" stroke-width="2" fill="none"></polyline>
<polyline points="808.391,2226.8,6800.88,2119.86" stroke="rgb(255,0,42)" stroke-width="2" fill="none"></polyline>
<polyline points="3000.97,2247.96,5460.92,1308.01" stroke="rgb(242,255,0)" stroke-width="2" fill="none"></polyline>
<polyline points="2656.21,2264.36,4879.59,1314.31" stroke="rgb(255,0,148)" stroke-width="2" fill="none"></polyline>
<polyline points="1182.19,2279.57,5542.51,1066.5" stroke="rgb(0,174,255)" stroke-width="2" fill="none"></polyline>
<polyline points="1497.22,2288.67,5542.56,1098.13" stroke="rgb(0,255,195)" stroke-width="2" fill="none"></polyline>
<polyline points="1021.88,2295.56,5765.6,941.523" stroke="rgb(255,0,93)" stroke-width="2" fill="none"></polyline>
<polyline points="859.395,2297.72,5855.03,1533.53" stroke="rgb(33,255,0)" stroke-width="2" fill="none"></polyline>
<polyline points="3025.65,2299.95,5454.79,1305.86" stroke="rgb(255,0,59)" stroke-width="2" fill="none"></polyline>
<polyline points="2233.67,2316.14,5322.96,799.452" stroke="rgb(29,255,0)" stroke-width="2" fill="none"></polyline>
<polyline points="1123.27,2317.79,7261.35,1934.76" stroke="rgb(33,255,0)" stroke-width="2" fill="none"></polyline>
<polyline points="994.195,2325.42,5625.2,834.474" stroke="rgb(72,0,255)" stroke-width="2" fill="none"></polyline>
<polyline points="1235.05,2342,5290.58,768.081" stroke="rgb(255,0,101)" stroke-width="2" fill="none"></polyline>
<polyline points="1371.67,2361.06,6309.1,986.011" stroke="rgb(0,72,255)" stroke-width="2" fill="none"></polyline>
<polyline points="1482.29,2363.93,5400.76,1276.98" stroke="rgb(0,135,255)" stroke-width="2" fill="none"></polyline>
<polyline points="2892.08,2370.07,6023.4,1243.81" stroke="rgb(93,255,0)" stroke-width="2" fill="none"></polyline>
<polyline points="796.246,2372,5555.61,1012.32" stroke="rgb(0,33,255)" stroke-width="2" fill="none"></polyline>
<polyline points="1216.08,2385.33,7084.92,1543.04" stroke="rgb(0,59,255)" stroke-width="2" fill="none"></polyline>
<polyline points="1269.21,2418.3,5651.74,854.343" stroke="rgb(0,255,165)" stroke-width="2" fill="none"></polyline>
<polyline points="2215.38,2442.27,6263.02,891.636" stroke="rgb(17,0,255)" stroke-width="2" fill="none"></polyline>
<polyline points="2235.08,2450.75,6464.28,1773.24" stroke="rgb(255,0,157)" stroke-width="2" fill="none"></polyline>
<polyline points="2261.81,2452.28,6992.2,1497.7" stroke="rgb(8,0,255)" stroke-width="2" fill="none"></polyline>
<polyline points="2333.22,2460.12,6527.2,1526.9" stroke="rgb(255,157,0)" stroke-width="2" fill="none"></polyline>
<polyline points="1174.71,2462.37,7014.81,1513.46" stroke="rgb(0,59,255)" stroke-width="2" fill="none"></polyline>
<polyline points="2393.34,2477.64,6683.21,1624.57" stroke="rgb(255,0,93)" stroke-width="2" fill="none"></polyline>
<polyline points="2231.98,2484.51,5994.56,790.01" stroke="rgb(85,0,255)" stroke-width="2" fill="none"></polyline>
<polyline points="1702.09,2493.78,5831.88,1305.42" stroke="rgb(255,42,0)" stroke-width="2" fill="none"></polyline>
<polyline points="2220.03,2499.91,6456.45,1489.45" stroke="rgb(255,0,51)" stroke-width="2" fill="none"></polyline>
<polyline points="1229.58,2513.02,5479.74,950.784" stroke="rgb(0,97,255)" stroke-width="2" fill="none"></polyline>
<polyline points="1252.3,2520.26,6304.73,1273.81" stroke="rgb(25,255,0)" stroke-width="2" fill="none"></polyline>
<polyline points="2321.36,2525.55,6377.25,1827.08" stroke="rgb(0,208,255)" stroke-width="2" fill="none"></polyline>
<polyline points="1530.73,2535.88,5224.64,1024.73" stroke="rgb(255,0,216)" stroke-width="2" fill="none"></polyline>
<polyline points="2393.65,2554.96,5536.91,1574.5" stroke="rgb(255,0,101)" stroke-width="2" fill="none"></polyline>
<polyline points="1353.64,2584.66,7194.28,1808.34" stroke="rgb(0,255,25)" stroke-width="2" fill="none"></polyline>
<polyline points="1977.89,2595.88,6649.72,1569.93" stroke="rgb(0,255,110)" stroke-width="2" fill="none"></polyline>
<polyline points="1346.56,2596.84,7218.44,1888.59" stroke="rgb(0,255,237)" stroke-width="2" fill="none"></polyline>
<polyline points="2376.91,2597.91,5520.71,827.727" stroke="rgb(0,255,186)" stroke-width="2" fill="none"></polyline>
<polyline points="1391.11,2619.08,6967.62,1111.59" stroke="rgb(0,255,16)" stroke-width="2" fill="none"></polyline>
<polyline points="2259.19,2619.79,6688.79,1398.72" stroke="rgb(203,0,255)" stroke-width="2" fill="none"></polyline>
<polyline points="2264.1,2624.65,6224.98,1022.32" stroke="rgb(255,93,0)" stroke-width="2" fill="none"></polyline>
<polyline points="2180.85,2637.88,6601.09,1577.76" stroke="rgb(46,255,0)" stroke-width="2" fill="none"></polyline>
<polyline points="2132.67,2640.28,5356.47,2245.92" stroke="rgb(255,170,0)" stroke-width="2" fill="none"></polyline>
<polyline points="2403.63,2644.13,5444.49,1480.98" stroke="rgb(170,0,255)" stroke-width="2" fill="none"></polyline>
<polyline points="1599.51,2740.4,6810.94,1522.81" stroke="rgb(148,255,0)" stroke-width="2" fill="none"></polyline>
<polyline points="1694.29,2768.84,6232.59,1940.15" stroke="rgb(0,255,63)" stroke-width="2" fill="none"></polyline>
<polyline points="1814.62,2791.66,6637.58,2089.42" stroke="rgb(255,0,0)" stroke-width="2" fill="none"></polyline>
<polyline points="1880.75,2829.66,6762.04,2112.32" stroke="rgb(0,237,255)" stroke-width="2" fill="none"></polyline>
<polyline points="1844.97,2831.47,6454.44,844.249" stroke="rgb(0,4,255)" stroke-width="2" fill="none"></polyline>
<circle cx="2917.77" cy="1243.6" r="4" stroke="rgb(255,0,93)" stroke-width="2" fill="none"></circle>
<circle cx="5943.37" cy="964.56" r="4" stroke="rgb(255,0,93)" stroke-width="2" fill="none"></circle>
<circle cx="2605.49" cy="1259.52" r="4" stroke="rgb(38,255,0)" stroke-width="2" fill="none"></circle>
<circle cx="6616.74" cy="1557.08" r="4" stroke="rgb(38,255,0)" stroke-width="2" fill="none"></circle>
<circle cx="2623.82" cy="1261.46" r="4" stroke="rgb(255,238,0)" stroke-width="2" fill="none"></circle>
<circle cx="6542.43" cy="1366.43" r="4" stroke="rgb(255,238,0)" stroke-width="2" fill="none"></circle>
<circle cx="2518.13" cy="1262.71" r="4" stroke="rgb(110,0,255)" stroke-width="2" fill="none"></circle>
<circle cx="6981.53" cy="1517.75" r="4" stroke="rgb(110,0,255)" stroke-width="2" fill="none"></circle>
<circle cx="2586" cy="1268.58" r="4" stroke="rgb(0,110,255)" stroke-width="2" fill="none"></circle>
<circle cx="6432.38" cy="1858.17" r="4" stroke="rgb(0,110,255)" stroke-width="2" fill="none"></circle>
<circle cx="2630.36" cy="1269.21" r="4" stroke="rgb(246,0,255)" stroke-width="2" fill="none"></circle>
<circle cx="5966.09" cy="805.55" r="4" stroke="rgb(246,0,255)" stroke-width="2" fill="none"></circle>
<circle cx="2021.03" cy="1292.58" r="4" stroke="rgb(255,0,12)" stroke-width="2" fill="none"></circle>
<circle cx="6000.55" cy="1235.61" r="4" stroke="rgb(255,0,12)" stroke-width="2" fill="none"></circle>
<circle cx="2329.35" cy="1306.02" r="4" stroke="rgb(123,255,0)" stroke-width="2" fill="none"></circle>
<circle cx="6239.76" cy="769.788" r="4" stroke="rgb(123,255,0)" stroke-width="2" fill="none"></circle>
<circle cx="2457.14" cy="1310.98" r="4" stroke="rgb(144,255,0)" stroke-width="2" fill="none"></circle>
<circle cx="4938.98" cy="958.688" r="4" stroke="rgb(144,255,0)" stroke-width="2" fill="none"></circle>
<circle cx="2721.72" cy="1337.76" r="4" stroke="rgb(67,0,255)" stroke-width="2" fill="none"></circle>
<circle cx="6508.07" cy="1444.08" r="4" stroke="rgb(67,0,255)" stroke-width="2" fill="none"></circle>
<circle cx="2764.15" cy="1345.29" r="4" stroke="rgb(0,255,89)" stroke-width="2" fill="none"></circle>
<circle cx="6751.2" cy="1000.98" r="4" stroke="rgb(0,255,89)" stroke-width="2" fill="none"></circle>
<circle cx="1679.8" cy="1354.92" r="4" stroke="rgb(0,76,255)" stroke-width="2" fill="none"></circle>
<circle cx="6261.85" cy="757.503" r="4" stroke="rgb(0,76,255)" stroke-width="2" fill="none"></circle>
<circle cx="1654.67" cy="1358.55" r="4" stroke="rgb(0,255,131)" stroke-width="2" fill="none"></circle>
<circle cx="6432.36" cy="1308.95" r="4" stroke="rgb(0,255,131)" stroke-width="2" fill="none"></circle>
<circle cx="2830.76" cy="1377.08" r="4" stroke="rgb(255,225,0)" stroke-width="2" fill="none"></circle>
<circle cx="6991.03" cy="1422.6" r="4" stroke="rgb(255,225,0)" stroke-width="2" fill="none"></circle>
<circle cx="1710.52" cy="1385.67" r="4" stroke="rgb(255,182,0)" stroke-width="2" fill="none"></circle>
<circle cx="6603.38" cy="1599.02" r="4" stroke="rgb(255,182,0)" stroke-width="2" fill="none"></circle>
<circle cx="1247.07" cy="1410.66" r="4" stroke="rgb(255,182,0)" stroke-width="2" fill="none"></circle>
<circle cx="6838.35" cy="1879.3" r="4" stroke="rgb(255,182,0)" stroke-width="2" fill="none"></circle>
<circle cx="1910.81" cy="1422.45" r="4" stroke="rgb(0,255,246)" stroke-width="2" fill="none"></circle>
<circle cx="5172.77" cy="1102.42" r="4" stroke="rgb(0,255,246)" stroke-width="2" fill="none"></circle>
<circle cx="1629.29" cy="1425.19" r="4" stroke="rgb(0,255,195)" stroke-width="2" fill="none"></circle>
<circle cx="5820.08" cy="2171.32" r="4" stroke="rgb(0,255,195)" stroke-width="2" fill="none"></circle>
<circle cx="1883.83" cy="1436.17" r="4" stroke="rgb(63,255,0)" stroke-width="2" fill="none"></circle>
<circle cx="6415.67" cy="1813.27" r="4" stroke="rgb(63,255,0)" stroke-width="2" fill="none"></circle>
<circle cx="1672.7" cy="1436.64" r="4" stroke="rgb(255,0,46)" stroke-width="2" fill="none"></circle>
<circle cx="7023.36" cy="1437.57" r="4" stroke="rgb(255,0,46)" stroke-width="2" fill="none"></circle>
<circle cx="1494.2" cy="1465.23" r="4" stroke="rgb(153,255,0)" stroke-width="2" fill="none"></circle>
<circle cx="6106.02" cy="1141.36" r="4" stroke="rgb(153,255,0)" stroke-width="2" fill="none"></circle>
<circle cx="2789.69" cy="1468.71" r="4" stroke="rgb(110,0,255)" stroke-width="2" fill="none"></circle>
<circle cx="6560.22" cy="2012.63" r="4" stroke="rgb(110,0,255)" stroke-width="2" fill="none"></circle>
<circle cx="1128.79" cy="1484.65" r="4" stroke="rgb(0,8,255)" stroke-width="2" fill="none"></circle>
<circle cx="5841.57" cy="906.275" r="4" stroke="rgb(0,8,255)" stroke-width="2" fill="none"></circle>
<circle cx="1942.21" cy="1492.02" r="4" stroke="rgb(25,0,255)" stroke-width="2" fill="none"></circle>
<circle cx="5411.11" cy="991.764" r="4" stroke="rgb(25,0,255)" stroke-width="2" fill="none"></circle>
<circle cx="1832.2" cy="1493.08" r="4" stroke="rgb(255,242,0)" stroke-width="2" fill="none"></circle>
<circle cx="6149.79" cy="1254.51" r="4" stroke="rgb(255,242,0)" stroke-width="2" fill="none"></circle>
<circle cx="1752.11" cy="1501.7" r="4" stroke="rgb(0,255,250)" stroke-width="2" fill="none"></circle>
<circle cx="6196.76" cy="909.392" r="4" stroke="rgb(0,255,250)" stroke-width="2" fill="none"></circle>
<circle cx="1914.34" cy="1540.1" r="4" stroke="rgb(0,255,55)" stroke-width="2" fill="none"></circle>
<circle cx="6251.17" cy="927.878" r="4" stroke="rgb(0,255,55)" stroke-width="2" fill="none"></circle>
<circle cx="1581.02" cy="1540.79" r="4" stroke="rgb(255,97,0)" stroke-width="2" fill="none"></circle>
<circle cx="5283.23" cy="2360.49" r="4" stroke="rgb(255,97,0)" stroke-width="2" fill="none"></circle>
<circle cx="1419.45" cy="1548.74" r="4" stroke="rgb(0,148,255)" stroke-width="2" fill="none"></circle>
<circle cx="5369.84" cy="833.066" r="4" stroke="rgb(0,148,255)" stroke-width="2" fill="none"></circle>
<circle cx="1023.26" cy="1549.25" r="4" stroke="rgb(255,191,0)" stroke-width="2" fill="none"></circle>
<circle cx="5701.48" cy="1578.62" r="4" stroke="rgb(255,191,0)" stroke-width="2" fill="none"></circle>
<circle cx="1863.88" cy="1563.53" r="4" stroke="rgb(255,174,0)" stroke-width="2" fill="none"></circle>
<circle cx="5810.9" cy="2170.53" r="4" stroke="rgb(255,174,0)" stroke-width="2" fill="none"></circle>
<circle cx="2001.59" cy="1578.85" r="4" stroke="rgb(0,237,255)" stroke-width="2" fill="none"></circle>
<circle cx="6853.01" cy="1231.24" r="4" stroke="rgb(0,237,255)" stroke-width="2" fill="none"></circle>
<circle cx="2248.8" cy="1583.1" r="4" stroke="rgb(255,119,0)" stroke-width="2" fill="none"></circle>
<circle cx="6537.98" cy="1380.84" r="4" stroke="rgb(255,119,0)" stroke-width="2" fill="none"></circle>
<circle cx="1361.21" cy="1607.85" r="4" stroke="rgb(93,255,0)" stroke-width="2" fill="none"></circle>
<circle cx="7300.46" cy="1904.65" r="4" stroke="rgb(93,255,0)" stroke-width="2" fill="none"></circle>
<circle cx="2188.23" cy="1618.25" r="4" stroke="rgb(255,0,161)" stroke-width="2" fill="none"></circle>
<circle cx="5781.53" cy="1562.05" r="4" stroke="rgb(255,0,161)" stroke-width="2" fill="none"></circle>
<circle cx="2029.8" cy="1621.67" r="4" stroke="rgb(8,0,255)" stroke-width="2" fill="none"></circle>
<circle cx="6241.65" cy="1212.7" r="4" stroke="rgb(8,0,255)" stroke-width="2" fill="none"></circle>
<circle cx="2162.73" cy="1627.27" r="4" stroke="rgb(255,153,0)" stroke-width="2" fill="none"></circle>
<circle cx="5620.07" cy="2193.58" r="4" stroke="rgb(255,153,0)" stroke-width="2" fill="none"></circle>
<circle cx="1852.8" cy="1671.54" r="4" stroke="rgb(0,208,255)" stroke-width="2" fill="none"></circle>
<circle cx="6696.25" cy="1347.46" r="4" stroke="rgb(0,208,255)" stroke-width="2" fill="none"></circle>
<circle cx="1830.94" cy="1672.54" r="4" stroke="rgb(0,148,255)" stroke-width="2" fill="none"></circle>
<circle cx="7141.08" cy="1895.85" r="4" stroke="rgb(0,148,255)" stroke-width="2" fill="none"></circle>
<circle cx="1876.31" cy="1681.36" r="4" stroke="rgb(0,255,8)" stroke-width="2" fill="none"></circle>
<circle cx="5245.56" cy="867.681" r="4" stroke="rgb(0,255,8)" stroke-width="2" fill="none"></circle>
<circle cx="1876.48" cy="1693.88" r="4" stroke="rgb(140,255,0)" stroke-width="2" fill="none"></circle>
<circle cx="7134.73" cy="1392.1" r="4" stroke="rgb(140,255,0)" stroke-width="2" fill="none"></circle>
<circle cx="1822.68" cy="1698.68" r="4" stroke="rgb(0,93,255)" stroke-width="2" fill="none"></circle>
<circle cx="5228.25" cy="837.07" r="4" stroke="rgb(0,93,255)" stroke-width="2" fill="none"></circle>
<circle cx="1861.07" cy="1713.49" r="4" stroke="rgb(0,101,255)" stroke-width="2" fill="none"></circle>
<circle cx="7194.23" cy="1882.27" r="4" stroke="rgb(0,101,255)" stroke-width="2" fill="none"></circle>
<circle cx="1835.52" cy="1715.32" r="4" stroke="rgb(38,255,0)" stroke-width="2" fill="none"></circle>
<circle cx="5242.86" cy="852.863" r="4" stroke="rgb(38,255,0)" stroke-width="2" fill="none"></circle>
<circle cx="3256.25" cy="1721.8" r="4" stroke="rgb(135,0,255)" stroke-width="2" fill="none"></circle>
<circle cx="4808.58" cy="1120.27" r="4" stroke="rgb(135,0,255)" stroke-width="2" fill="none"></circle>
<circle cx="1838.49" cy="1727.63" r="4" stroke="rgb(80,0,255)" stroke-width="2" fill="none"></circle>
<circle cx="5592.43" cy="1110.83" r="4" stroke="rgb(80,0,255)" stroke-width="2" fill="none"></circle>
<circle cx="1824.92" cy="1733.63" r="4" stroke="rgb(255,110,0)" stroke-width="2" fill="none"></circle>
<circle cx="5745.87" cy="1110.01" r="4" stroke="rgb(255,110,0)" stroke-width="2" fill="none"></circle>
<circle cx="604.769" cy="1802.23" r="4" stroke="rgb(255,0,161)" stroke-width="2" fill="none"></circle>
<circle cx="5139.01" cy="1151.81" r="4" stroke="rgb(255,0,161)" stroke-width="2" fill="none"></circle>
<circle cx="567.108" cy="1810.41" r="4" stroke="rgb(229,255,0)" stroke-width="2" fill="none"></circle>
<circle cx="6978.85" cy="1527.84" r="4" stroke="rgb(229,255,0)" stroke-width="2" fill="none"></circle>
<circle cx="3039.71" cy="1897.6" r="4" stroke="rgb(255,12,0)" stroke-width="2" fill="none"></circle>
<circle cx="5621.6" cy="2193.72" r="4" stroke="rgb(255,12,0)" stroke-width="2" fill="none"></circle>
<circle cx="2885.78" cy="1911.22" r="4" stroke="rgb(255,0,208)" stroke-width="2" fill="none"></circle>
<circle cx="6593.78" cy="1559.41" r="4" stroke="rgb(255,0,208)" stroke-width="2" fill="none"></circle>
<circle cx="2862.4" cy="1942.09" r="4" stroke="rgb(255,93,0)" stroke-width="2" fill="none"></circle>
<circle cx="6096.6" cy="1079.22" r="4" stroke="rgb(255,93,0)" stroke-width="2" fill="none"></circle>
<circle cx="2875.82" cy="1959.15" r="4" stroke="rgb(123,0,255)" stroke-width="2" fill="none"></circle>
<circle cx="6428.95" cy="1493.53" r="4" stroke="rgb(123,0,255)" stroke-width="2" fill="none"></circle>
<circle cx="693.861" cy="1966.49" r="4" stroke="rgb(246,255,0)" stroke-width="2" fill="none"></circle>
<circle cx="5803.84" cy="1082.42" r="4" stroke="rgb(246,255,0)" stroke-width="2" fill="none"></circle>
<circle cx="2844.72" cy="1996.81" r="4" stroke="rgb(0,255,89)" stroke-width="2" fill="none"></circle>
<circle cx="6580.35" cy="1676.36" r="4" stroke="rgb(0,255,89)" stroke-width="2" fill="none"></circle>
<circle cx="664.192" cy="1998.14" r="4" stroke="rgb(0,178,255)" stroke-width="2" fill="none"></circle>
<circle cx="5440.43" cy="810.277" r="4" stroke="rgb(0,178,255)" stroke-width="2" fill="none"></circle>
<circle cx="2884.68" cy="2010.49" r="4" stroke="rgb(4,0,255)" stroke-width="2" fill="none"></circle>
<circle cx="6534.79" cy="1371.19" r="4" stroke="rgb(4,0,255)" stroke-width="2" fill="none"></circle>
<circle cx="2894.26" cy="2016.98" r="4" stroke="rgb(144,0,255)" stroke-width="2" fill="none"></circle>
<circle cx="6360.18" cy="1433.68" r="4" stroke="rgb(144,0,255)" stroke-width="2" fill="none"></circle>
<circle cx="2884.11" cy="2029.92" r="4" stroke="rgb(114,255,0)" stroke-width="2" fill="none"></circle>
<circle cx="6681.1" cy="1415.02" r="4" stroke="rgb(114,255,0)" stroke-width="2" fill="none"></circle>
<circle cx="2822.48" cy="2030.49" r="4" stroke="rgb(255,0,174)" stroke-width="2" fill="none"></circle>
<circle cx="6462.88" cy="1491.51" r="4" stroke="rgb(255,0,174)" stroke-width="2" fill="none"></circle>
<circle cx="2823.28" cy="2037.32" r="4" stroke="rgb(255,0,169)" stroke-width="2" fill="none"></circle>
<circle cx="6471.7" cy="1358.42" r="4" stroke="rgb(255,0,169)" stroke-width="2" fill="none"></circle>
<circle cx="2835.57" cy="2042.19" r="4" stroke="rgb(0,255,63)" stroke-width="2" fill="none"></circle>
<circle cx="6627.41" cy="1691.25" r="4" stroke="rgb(0,255,63)" stroke-width="2" fill="none"></circle>
<circle cx="2840.37" cy="2047.2" r="4" stroke="rgb(255,63,0)" stroke-width="2" fill="none"></circle>
<circle cx="6256.79" cy="1263.19" r="4" stroke="rgb(255,63,0)" stroke-width="2" fill="none"></circle>
<circle cx="2552.93" cy="2048.86" r="4" stroke="rgb(0,85,255)" stroke-width="2" fill="none"></circle>
<circle cx="5671.54" cy="2156.11" r="4" stroke="rgb(0,85,255)" stroke-width="2" fill="none"></circle>
<circle cx="2849.31" cy="2059.18" r="4" stroke="rgb(0,29,255)" stroke-width="2" fill="none"></circle>
<circle cx="6410.86" cy="1728.2" r="4" stroke="rgb(0,29,255)" stroke-width="2" fill="none"></circle>
<circle cx="451.665" cy="2065.36" r="4" stroke="rgb(0,131,255)" stroke-width="2" fill="none"></circle>
<circle cx="5481.37" cy="1072.58" r="4" stroke="rgb(0,131,255)" stroke-width="2" fill="none"></circle>
<circle cx="2909.99" cy="2066.91" r="4" stroke="rgb(72,255,0)" stroke-width="2" fill="none"></circle>
<circle cx="7094.48" cy="1641.35" r="4" stroke="rgb(72,255,0)" stroke-width="2" fill="none"></circle>
<circle cx="2852.06" cy="2070.56" r="4" stroke="rgb(0,255,89)" stroke-width="2" fill="none"></circle>
<circle cx="6594.96" cy="1784.84" r="4" stroke="rgb(0,255,89)" stroke-width="2" fill="none"></circle>
<circle cx="2935.21" cy="2089.32" r="4" stroke="rgb(255,170,0)" stroke-width="2" fill="none"></circle>
<circle cx="6370.49" cy="1228.57" r="4" stroke="rgb(255,170,0)" stroke-width="2" fill="none"></circle>
<circle cx="2466.74" cy="2102.15" r="4" stroke="rgb(0,255,254)" stroke-width="2" fill="none"></circle>
<circle cx="6681.33" cy="1205.95" r="4" stroke="rgb(0,255,254)" stroke-width="2" fill="none"></circle>
<circle cx="2871.69" cy="2104.82" r="4" stroke="rgb(0,255,63)" stroke-width="2" fill="none"></circle>
<circle cx="7031.97" cy="1618.85" r="4" stroke="rgb(0,255,63)" stroke-width="2" fill="none"></circle>
<circle cx="3087.95" cy="2109.56" r="4" stroke="rgb(255,0,0)" stroke-width="2" fill="none"></circle>
<circle cx="7037.1" cy="1291.29" r="4" stroke="rgb(255,0,0)" stroke-width="2" fill="none"></circle>
<circle cx="2897.35" cy="2119.73" r="4" stroke="rgb(255,165,0)" stroke-width="2" fill="none"></circle>
<circle cx="6611.21" cy="1827.1" r="4" stroke="rgb(255,165,0)" stroke-width="2" fill="none"></circle>
<circle cx="2909.09" cy="2122.02" r="4" stroke="rgb(255,0,38)" stroke-width="2" fill="none"></circle>
<circle cx="6983.88" cy="1644.73" r="4" stroke="rgb(255,0,38)" stroke-width="2" fill="none"></circle>
<circle cx="2850.21" cy="2126.02" r="4" stroke="rgb(38,255,0)" stroke-width="2" fill="none"></circle>
<circle cx="6250.43" cy="1303.82" r="4" stroke="rgb(38,255,0)" stroke-width="2" fill="none"></circle>
<circle cx="2969.78" cy="2129.94" r="4" stroke="rgb(255,0,208)" stroke-width="2" fill="none"></circle>
<circle cx="6245.01" cy="983.215" r="4" stroke="rgb(255,0,208)" stroke-width="2" fill="none"></circle>
<circle cx="3040.16" cy="2131.42" r="4" stroke="rgb(0,255,8)" stroke-width="2" fill="none"></circle>
<circle cx="6424.21" cy="1547.35" r="4" stroke="rgb(0,255,8)" stroke-width="2" fill="none"></circle>
<circle cx="2912.11" cy="2134.21" r="4" stroke="rgb(255,38,0)" stroke-width="2" fill="none"></circle>
<circle cx="6702.56" cy="1746.32" r="4" stroke="rgb(255,38,0)" stroke-width="2" fill="none"></circle>
<circle cx="3103.04" cy="2136.17" r="4" stroke="rgb(0,255,106)" stroke-width="2" fill="none"></circle>
<circle cx="6976.64" cy="1497" r="4" stroke="rgb(0,255,106)" stroke-width="2" fill="none"></circle>
<circle cx="2902.69" cy="2136.2" r="4" stroke="rgb(255,255,0)" stroke-width="2" fill="none"></circle>
<circle cx="6522.28" cy="1645.56" r="4" stroke="rgb(255,255,0)" stroke-width="2" fill="none"></circle>
<circle cx="2865.93" cy="2144.58" r="4" stroke="rgb(255,51,0)" stroke-width="2" fill="none"></circle>
<circle cx="6526.68" cy="1564.9" r="4" stroke="rgb(255,51,0)" stroke-width="2" fill="none"></circle>
<circle cx="2875.67" cy="2145.27" r="4" stroke="rgb(97,255,0)" stroke-width="2" fill="none"></circle>
<circle cx="6277.87" cy="1284.81" r="4" stroke="rgb(97,255,0)" stroke-width="2" fill="none"></circle>
<circle cx="3012.17" cy="2146.59" r="4" stroke="rgb(157,255,0)" stroke-width="2" fill="none"></circle>
<circle cx="6345.9" cy="1886.58" r="4" stroke="rgb(157,255,0)" stroke-width="2" fill="none"></circle>
<circle cx="1486.74" cy="2155.75" r="4" stroke="rgb(0,255,140)" stroke-width="2" fill="none"></circle>
<circle cx="4986.47" cy="1417.81" r="4" stroke="rgb(0,255,140)" stroke-width="2" fill="none"></circle>
<circle cx="2888.97" cy="2165.57" r="4" stroke="rgb(255,131,0)" stroke-width="2" fill="none"></circle>
<circle cx="6495.02" cy="1584.25" r="4" stroke="rgb(255,131,0)" stroke-width="2" fill="none"></circle>
<circle cx="2838.34" cy="2173.01" r="4" stroke="rgb(0,67,255)" stroke-width="2" fill="none"></circle>
<circle cx="5364.13" cy="869.555" r="4" stroke="rgb(0,67,255)" stroke-width="2" fill="none"></circle>
<circle cx="1082.04" cy="2184.59" r="4" stroke="rgb(255,0,38)" stroke-width="2" fill="none"></circle>
<circle cx="5499.72" cy="660.874" r="4" stroke="rgb(255,0,38)" stroke-width="2" fill="none"></circle>
<circle cx="2855.44" cy="2187.62" r="4" stroke="rgb(0,255,101)" stroke-width="2" fill="none"></circle>
<circle cx="6631.95" cy="1728.38" r="4" stroke="rgb(0,255,101)" stroke-width="2" fill="none"></circle>
<circle cx="2965.67" cy="2190.59" r="4" stroke="rgb(255,42,0)" stroke-width="2" fill="none"></circle>
<circle cx="6396.52" cy="1398.18" r="4" stroke="rgb(255,42,0)" stroke-width="2" fill="none"></circle>
<circle cx="909.133" cy="2193.75" r="4" stroke="rgb(148,255,0)" stroke-width="2" fill="none"></circle>
<circle cx="5165.03" cy="1179.75" r="4" stroke="rgb(148,255,0)" stroke-width="2" fill="none"></circle>
<circle cx="2870.18" cy="2203.76" r="4" stroke="rgb(72,255,0)" stroke-width="2" fill="none"></circle>
<circle cx="6679.52" cy="1739.31" r="4" stroke="rgb(72,255,0)" stroke-width="2" fill="none"></circle>
<circle cx="2882.45" cy="2219.03" r="4" stroke="rgb(0,161,255)" stroke-width="2" fill="none"></circle>
<circle cx="5295.67" cy="914.948" r="4" stroke="rgb(0,161,255)" stroke-width="2" fill="none"></circle>
<circle cx="908.609" cy="2224.7" r="4" stroke="rgb(119,255,0)" stroke-width="2" fill="none"></circle>
<circle cx="5529.74" cy="1230.43" r="4" stroke="rgb(119,255,0)" stroke-width="2" fill="none"></circle>
<circle cx="808.391" cy="2226.8" r="4" stroke="rgb(255,0,42)" stroke-width="2" fill="none"></circle>
<circle cx="6800.88" cy="2119.86" r="4" stroke="rgb(255,0,42)" stroke-width="2" fill="none"></circle>
<circle cx="3000.97" cy="2247.96" r="4" stroke="rgb(242,255,0)" stroke-width="2" fill="none"></circle>
<circle cx="5460.92" cy="1308.01" r="4" stroke="rgb(242,255,0)" stroke-width="2" fill="none"></circle>
<circle cx="2656.21" cy="2264.36" r="4" stroke="rgb(255,0,148)" stroke-width="2" fill="none"></circle>
<circle cx="4879.59" cy="1314.31" r="4" stroke="rgb(255,0,148)" stroke-width="2" fill="none"></circle>
<circle cx="1182.19" cy="2279.57" r="4" stroke="rgb(0,174,255)" stroke-width="2" fill="none"></circle>
<circle cx="5542.51" cy="1066.5" r="4" stroke="rgb(0,174,255)" stroke-width="2" fill="none"></circle>
<circle cx="1497.22" cy="2288.67" r="4" stroke="rgb(0,255,195)" stroke-width="2" fill="none"></circle>
<circle cx="5542.56" cy="1098.13" r="4" stroke="rgb(0,255,195)" stroke-width="2" fill="none"></circle>
<circle cx="1021.88" cy="2295.56" r="4" stroke="rgb(255,0,93)" stroke-width="2" fill="none"></circle>
<circle cx="5765.6" cy="941.523" r="4" stroke="rgb(255,0,93)" stroke-width="2" fill="none"></circle>
<circle cx="859.395" cy="2297.72" r="4" stroke="rgb(33,255,0)" stroke-width="2" fill="none"></circle>
<circle cx="5855.03" cy="1533.53" r="4" stroke="rgb(33,255,0)" stroke-width="2" fill="none"></circle>
<circle cx="3025.65" cy="2299.95" r="4" stroke="rgb(255,0,59)" stroke-width="2" fill="none"></circle>
<circle cx="5454.79" cy="1305.86" r="4" stroke="rgb(255,0,59)" stroke-width="2" fill="none"></circle>
<circle cx="2233.67" cy="2316.14" r="4" stroke="rgb(29,255,0)" stroke-width="2" fill="none"></circle>
<circle cx="5322.96" cy="799.452" r="4" stroke="rgb(29,255,0)" stroke-width="2" fill="none"></circle>
<circle cx="1123.27" cy="2317.79" r="4" stroke="rgb(33,255,0)" stroke-width="2" fill="none"></circle>
<circle cx="7261.35" cy="1934.76" r="4" stroke="rgb(33,255,0)" stroke-width="2" fill="none"></circle>
<circle cx="994.195" cy="2325.42" r="4" stroke="rgb(72,0,255)" stroke-width="2" fill="none"></circle>
<circle cx="5625.2" cy="834.474" r="4" stroke="rgb(72,0,255)" stroke-width="2" fill="none"></circle>
<circle cx="1235.05" cy="2342" r="4" stroke="rgb(255,0,101)" stroke-width="2" fill="none"></circle>
<circle cx="5290.58" cy="768.081" r="4" stroke="rgb(255,0,101)" stroke-width="2" fill="none"></circle>
<circle cx="1371.67" cy="2361.06" r="4" stroke="rgb(0,72,255)" stroke-width="2" fill="none"></circle>
<circle cx="6309.1" cy="986.011" r="4" stroke="rgb(0,72,255)" stroke-width="2" fill="none"></circle>
<circle cx="1482.29" cy="2363.93" r="4" stroke="rgb(0,135,255)" stroke-width="2" fill="none"></circle>
<circle cx="5400.76" cy="1276.98" r="4" stroke="rgb(0,135,255)" stroke-width="2" fill="none"></circle>
<circle cx="2892.08" cy="2370.07" r="4" stroke="rgb(93,255,0)" stroke-width="2" fill="none"></circle>
<circle cx="6023.4" cy="1243.81" r="4" stroke="rgb(93,255,0)" stroke-width="2" fill="none"></circle>
<circle cx="796.246" cy="2372" r="4" stroke="rgb(0,33,255)" stroke-width="2" fill="none"></circle>
<circle cx="5555.61" cy="1012.32" r="4" stroke="rgb(0,33,255)" stroke-width="2" fill="none"></circle>
<circle cx="1216.08" cy="2385.33" r="4" stroke="rgb(0,59,255)" stroke-width="2" fill="none"></circle>
<circle cx="7084.92" cy="1543.04" r="4" stroke="rgb(0,59,255)" stroke-width="2" fill="none"></circle>
<circle cx="1269.21" cy="2418.3" r="4" stroke="rgb(0,255,165)" stroke-width="2" fill="none"></circle>
<circle cx="5651.74" cy="854.343" r="4" stroke="rgb(0,255,165)" stroke-width="2" fill="none"></circle>
<circle cx="2215.38" cy="2442.27" r="4" stroke="rgb(17,0,255)" stroke-width="2" fill="none"></circle>
<circle cx="6263.02" cy="891.636" r="4" stroke="rgb(17,0,255)" stroke-width="2" fill="none"></circle>
<circle cx="2235.08" cy="2450.75" r="4" stroke="rgb(255,0,157)" stroke-width="2" fill="none"></circle>
<circle cx="6464.28" cy="1773.24" r="4" stroke="rgb(255,0,157)" stroke-width="2" fill="none"></circle>
<circle cx="2261.81" cy="2452.28" r="4" stroke="rgb(8,0,255)" stroke-width="2" fill="none"></circle>
<circle cx="6992.2" cy="1497.7" r="4" stroke="rgb(8,0,255)" stroke-width="2" fill="none"></circle>
<circle cx="2333.22" cy="2460.12" r="4" stroke="rgb(255,157,0)" stroke-width="2" fill="none"></circle>
<circle cx="6527.2" cy="1526.9" r="4" stroke="rgb(255,157,0)" stroke-width="2" fill="none"></circle>
<circle cx="1174.71" cy="2462.37" r="4" stroke="rgb(0,59,255)" stroke-width="2" fill="none"></circle>
<circle cx="7014.81" cy="1513.46" r="4" stroke="rgb(0,59,255)" stroke-width="2" fill="none"></circle>
<circle cx="2393.34" cy="2477.64" r="4" stroke="rgb(255,0,93)" stroke-width="2" fill="none"></circle>
<circle cx="6683.21" cy="1624.57" r="4" stroke="rgb(255,0,93)" stroke-width="2" fill="none"></circle>
<circle cx="2231.98" cy="2484.51" r="4" stroke="rgb(85,0,255)" stroke-width="2" fill="none"></circle>
<circle cx="5994.56" cy="790.01" r="4" stroke="rgb(85,0,255)" stroke-width="2" fill="none"></circle>
<circle cx="1702.09" cy="2493.78" r="4" stroke="rgb(255,42,0)" stroke-width="2" fill="none"></circle>
<circle cx="5831.88" cy="1305.42" r="4" stroke="rgb(255,42,0)" stroke-width="2" fill="none"></circle>
<circle cx="2220.03" cy="2499.91" r="4" stroke="rgb(255,0,51)" stroke-width="2" fill="none"></circle>
<circle cx="6456.45" cy="1489.45" r="4" stroke="rgb(255,0,51)" stroke-width="2" fill="none"></circle>
<circle cx="1229.58" cy="2513.02" r="4" stroke="rgb(0,97,255)" stroke-width="2" fill="none"></circle>
<circle cx="5479.74" cy="950.784" r="4" stroke="rgb(0,97,255)" stroke-width="2" fill="none"></circle>
<circle cx="1252.3" cy="2520.26" r="4" stroke="rgb(25,255,0)" stroke-width="2" fill="none"></circle>
<circle cx="6304.73" cy="1273.81" r="4" stroke="rgb(25,255,0)" stroke-width="2" fill="none"></circle>
<circle cx="2321.36" cy="2525.55" r="4" stroke="rgb(0,208,255)" stroke-width="2" fill="none"></circle>
<circle cx="6377.25" cy="1827.08" r="4" stroke="rgb(0,208,255)" stroke-width="2" fill="none"></circle>
<circle cx="1530.73" cy="2535.88" r="4" stroke="rgb(255,0,216)" stroke-width="2" fill="none"></circle>
<circle cx="5224.64" cy="1024.73" r="4" stroke="rgb(255,0,216)" stroke-width="2" fill="none"></circle>
<circle cx="2393.65" cy="2554.96" r="4" stroke="rgb(255,0,101)" stroke-width="2" fill="none"></circle>
<circle cx="5536.91" cy="1574.5" r="4" stroke="rgb(255,0,101)" stroke-width="2" fill="none"></circle>
<circle cx="1353.64" cy="2584.66" r="4" stroke="rgb(0,255,25)" stroke-width="2" fill="none"></circle>
<circle cx="7194.28" cy="1808.34" r="4" stroke="rgb(0,255,25)" stroke-width="2" fill="none"></circle>
<circle cx="1977.89" cy="2595.88" r="4" stroke="rgb(0,255,110)" stroke-width="2" fill="none"></circle>
<circle cx="6649.72" cy="1569.93" r="4" stroke="rgb(0,255,110)" stroke-width="2" fill="none"></circle>
<circle cx="1346.56" cy="2596.84" r="4" stroke="rgb(0,255,237)" stroke-width="2" fill="none"></circle>
<circle cx="7218.44" cy="1888.59" r="4" stroke="rgb(0,255,237)" stroke-width="2" fill="none"></circle>
<circle cx="2376.91" cy="2597.91" r="4" stroke="rgb(0,255,186)" stroke-width="2" fill="none"></circle>
<circle cx="5520.71" cy="827.727" r="4" stroke="rgb(0,255,186)" stroke-width="2" fill="none"></circle>
<circle cx="1391.11" cy="2619.08" r="4" stroke="rgb(0,255,16)" stroke-width="2" fill="none"></circle>
<circle cx="6967.62" cy="1111.59" r="4" stroke="rgb(0,255,16)" stroke-width="2" fill="none"></circle>
<circle cx="2259.19" cy="2619.79" r="4" stroke="rgb(203,0,255)" stroke-width="2" fill="none"></circle>
<circle cx="6688.79" cy="1398.72" r="4" stroke="rgb(203,0,255)" stroke-width="2" fill="none"></circle>
<circle cx="2264.1" cy="2624.65" r="4" stroke="rgb(255,93,0)" stroke-width="2" fill="none"></circle>
<circle cx="6224.98" cy="1022.32" r="4" stroke="rgb(255,93,0)" stroke-width="2" fill="none"></circle>
<circle cx="2180.85" cy="2637.88" r="4" stroke="rgb(46,255,0)" stroke-width="2" fill="none"></circle>
<circle cx="6601.09" cy="1577.76" r="4" stroke="rgb(46,255,0)" stroke-width="2" fill="none"></circle>
<circle cx="2132.67" cy="2640.28" r="4" stroke="rgb(255,170,0)" stroke-width="2" fill="none"></circle>
<circle cx="5356.47" cy="2245.92" r="4" stroke="rgb(255,170,0)" stroke-width="2" fill="none"></circle>
<circle cx="2403.63" cy="2644.13" r="4" stroke="rgb(170,0,255)" stroke-width="2" fill="none"></circle>
<circle cx="5444.49" cy="1480.98" r="4" stroke="rgb(170,0,255)" stroke-width="2" fill="none"></circle>
<circle cx="1599.51" cy="2740.4" r="4" stroke="rgb(148,255,0)" stroke-width="2" fill="none"></circle>
<circle cx="6810.94" cy="1522.81" r="4" stroke="rgb(148,255,0)" stroke-width="2" fill="none"></circle>
<circle cx="1694.29" cy="2768.84" r="4" stroke="rgb(0,255,63)" stroke-width="2" fill="none"></circle>
<circle cx="6232.59" cy="1940.15" r="4" stroke="rgb(0,255,63)" stroke-width="2" fill="none"></circle>
<circle cx="1814.62" cy="2791.66" r="4" stroke="rgb(255,0,0)" stroke-width="2" fill="none"></circle>
<circle cx="6637.58" cy="2089.42" r="4" stroke="rgb(255,0,0)" stroke-width="2" fill="none"></circle>
<circle cx="1880.75" cy="2829.66" r="4" stroke="rgb(0,237,255)" stroke-width="2" fill="none"></circle>
<circle cx="6762.04" cy="2112.32" r="4" stroke="rgb(0,237,255)" stroke-width="2" fill="none"></circle>
<circle cx="1844.97" cy="2831.47" r="4" stroke="rgb(0,4,255)" stroke-width="2" fill="none"></circle>
<circle cx="6454.44" cy="844.249" r="4" stroke="rgb(0,4,255)" stroke-width="2" fill="none"></circle>
</svg>