<?xml version="1.0" standalone="yes"?>
<!-- SVG graphic -->
<svg xmlns='http://www.w3.org/2000/svg' xmlns:xlink='http://www.w3.org/1999/xlink'
width="8064px" height="3024px" preserveAspectRatio="xMinYMin meet" viewBox="0 0 8064 3024" version="1.1">
<image x="0" y="0" width="4032px" height="3024px" opacity="1" xlink:href="/home/jeong/Code/2D-to-3D-Modeling-using-AI/Make3D/Image/20200227_180641.jpg"/>
<image x="4032" y="0" width="4032px" height="3024px" opacity="1" xlink:href="/home/jeong/Code/2D-to-3D-Modeling-using-AI/Make3D/Image/20200227_180721.jpg"/>
<polyline points="760.431,248.174,5852.4,561.91" stroke="rgb(0,255,195)" stroke-width="2" fill="none"></polyline>
<polyline points="772.434,369.712,5362.96,653.776" stroke="rgb(38,255,0)" stroke-width="2" fill="none"></polyline>
<polyline points="780.765,389.423,5861.39,756.124" stroke="rgb(0,93,255)" stroke-width="2" fill="none"></polyline>
<polyline points="842.263,429.478,5964.89,942.21" stroke="rgb(0,255,225)" stroke-width="2" fill="none"></polyline>
<polyline points="581.032,468.86,6286.43,928.191" stroke="rgb(161,0,255)" stroke-width="2" fill="none"></polyline>
<polyline points="1212.69,557.412,7131.44,1179.71" stroke="rgb(203,0,255)" stroke-width="2" fill="none"></polyline>
<polyline points="1529.12,576.528,5792.21,1365.63" stroke="rgb(255,110,0)" stroke-width="2" fill="none"></polyline>
<polyline points="1488.24,601.869,6010.61,1475.26" stroke="rgb(255,34,0)" stroke-width="2" fill="none"></polyline>
<polyline points="1733.72,613.743,5932.75,446.955" stroke="rgb(0,85,255)" stroke-width="2" fill="none"></polyline>
<polyline points="1549.4,654.622,5950.84,1176.11" stroke="rgb(255,0,55)" stroke-width="2" fill="none"></polyline>
<polyline points="2048.39,656.739,6564.94,897.378" stroke="rgb(225,255,0)" stroke-width="2" fill="none"></polyline>
<polyline points="677.243,657.91,4876.97,855.448" stroke="rgb(255,195,0)" stroke-width="2" fill="none"></polyline>
<polyline points="1199.46,698.708,6051.77,1429.65" stroke="rgb(195,0,255)" stroke-width="2" fill="none"></polyline>
<polyline points="1254.9,716.027,6651.67,584.107" stroke="rgb(255,0,153)" stroke-width="2" fill="none"></polyline>
<polyline points="1599.12,720.17,7005.45,1039.88" stroke="rgb(0,255,16)" stroke-width="2" fill="none"></polyline>
<polyline points="1197.82,749.495,5948.59,1288.64" stroke="rgb(0,169,255)" stroke-width="2" fill="none"></polyline>
<polyline points="1485.67,763.608,6034.71,688.693" stroke="rgb(127,0,255)" stroke-width="2" fill="none"></polyline>
<polyline points="1276.38,769.035,6729.97,1530.29" stroke="rgb(255,0,4)" stroke-width="2" fill="none"></polyline>
<polyline points="1176.16,777.624,6749.72,601.386" stroke="rgb(225,0,255)" stroke-width="2" fill="none"></polyline>
<polyline points="1684.35,798.224,5968.29,1197.57" stroke="rgb(0,123,255)" stroke-width="2" fill="none"></polyline>
<polyline points="1214.05,817.988,5830.98,956.75" stroke="rgb(0,106,255)" stroke-width="2" fill="none"></polyline>
<polyline points="1248.49,833.131,6019.98,1381.36" stroke="rgb(97,255,0)" stroke-width="2" fill="none"></polyline>
<polyline points="1271.53,833.926,6005.9,1392.5" stroke="rgb(0,246,255)" stroke-width="2" fill="none"></polyline>
<polyline points="1652.84,835.465,6522.78,630.374" stroke="rgb(144,255,0)" stroke-width="2" fill="none"></polyline>
<polyline points="1986.04,837.652,6897.93,1113.84" stroke="rgb(255,114,0)" stroke-width="2" fill="none"></polyline>
<polyline points="1266.07,838.12,6007.53,1387.8" stroke="rgb(33,255,0)" stroke-width="2" fill="none"></polyline>
<polyline points="980.974,846.99,6311.43,938.745" stroke="rgb(0,255,38)" stroke-width="2" fill="none"></polyline>
<polyline points="769.059,847.783,5307.38,790.606" stroke="rgb(0,255,195)" stroke-width="2" fill="none"></polyline>
<polyline points="1334.03,860.095,5431.05,837.174" stroke="rgb(0,33,255)" stroke-width="2" fill="none"></polyline>
<polyline points="1264.99,885.558,5978.43,1358.65" stroke="rgb(0,8,255)" stroke-width="2" fill="none"></polyline>
<polyline points="1271.79,890.682,5972.12,1360.68" stroke="rgb(89,255,0)" stroke-width="2" fill="none"></polyline>
<polyline points="2272.12,893.111,6521.15,1280.14" stroke="rgb(255,161,0)" stroke-width="2" fill="none"></polyline>
<polyline points="1489.2,893.186,5738.16,1276.39" stroke="rgb(255,0,46)" stroke-width="2" fill="none"></polyline>
<polyline points="1142.46,894.69,6475.47,1596.25" stroke="rgb(255,0,182)" stroke-width="2" fill="none"></polyline>
<polyline points="1289.68,907.733,5954.03,1361.59" stroke="rgb(157,255,0)" stroke-width="2" fill="none"></polyline>
<polyline points="1876.63,911.093,6883.42,1342.74" stroke="rgb(0,255,80)" stroke-width="2" fill="none"></polyline>
<polyline points="968.773,920.929,6254.03,915.381" stroke="rgb(25,0,255)" stroke-width="2" fill="none"></polyline>
<polyline points="1269.07,921.36,5957.56,1339.91" stroke="rgb(42,255,0)" stroke-width="2" fill="none"></polyline>
<polyline points="1274.92,942.235,6065.85,1521.75" stroke="rgb(255,80,0)" stroke-width="2" fill="none"></polyline>
<polyline points="1193.39,957.278,6036.49,797.172" stroke="rgb(255,0,93)" stroke-width="2" fill="none"></polyline>
<polyline points="1231.12,960.38,5830.82,1211.04" stroke="rgb(255,0,131)" stroke-width="2" fill="none"></polyline>
<polyline points="1367.59,966.868,5182.57,1129.64" stroke="rgb(144,255,0)" stroke-width="2" fill="none"></polyline>
<polyline points="1833.32,975.519,6003.54,1183.8" stroke="rgb(255,102,0)" stroke-width="2" fill="none"></polyline>
<polyline points="1196.83,983.692,5020.39,896.282" stroke="rgb(63,0,255)" stroke-width="2" fill="none"></polyline>
<polyline points="1908.72,985.476,6502.13,893.179" stroke="rgb(178,0,255)" stroke-width="2" fill="none"></polyline>
<polyline points="841.313,997.698,6663.23,664.536" stroke="rgb(255,89,0)" stroke-width="2" fill="none"></polyline>
<polyline points="1540.27,999.232,5861.85,633.087" stroke="rgb(101,255,0)" stroke-width="2" fill="none"></polyline>
<polyline points="1071.04,999.267,5957.99,701.951" stroke="rgb(233,255,0)" stroke-width="2" fill="none"></polyline>
<polyline points="1545.73,1002.24,5454.17,611.131" stroke="rgb(50,0,255)" stroke-width="2" fill="none"></polyline>
<polyline points="2507.3,1013.91,6410.28,1541.29" stroke="rgb(89,0,255)" stroke-width="2" fill="none"></polyline>
<polyline points="926.847,1018.07,6848.26,1484.46" stroke="rgb(0,255,118)" stroke-width="2" fill="none"></polyline>
<polyline points="1359.29,1025.93,5868.99,1334.6" stroke="rgb(55,255,0)" stroke-width="2" fill="none"></polyline>
<polyline points="2378.1,1026.53,6212,692.219" stroke="rgb(0,38,255)" stroke-width="2" fill="none"></polyline>
<polyline points="2579.25,1027.81,6288.82,1609.21" stroke="rgb(255,0,127)" stroke-width="2" fill="none"></polyline>
<polyline points="2526.49,1037.79,6487.1,539.338" stroke="rgb(0,199,255)" stroke-width="2" fill="none"></polyline>
<polyline points="1612.92,1059.54,5055.6,818.162" stroke="rgb(76,0,255)" stroke-width="2" fill="none"></polyline>
<polyline points="923.319,1071.81,6373.18,981.07" stroke="rgb(255,0,195)" stroke-width="2" fill="none"></polyline>
<polyline points="1614.38,1093.79,6018.18,716.261" stroke="rgb(255,0,161)" stroke-width="2" fill="none"></polyline>
<polyline points="1558.11,1115.69,6016.68,679.648" stroke="rgb(237,255,0)" stroke-width="2" fill="none"></polyline>
<polyline points="1956.53,1121.05,5698.78,1337.98" stroke="rgb(0,229,255)" stroke-width="2" fill="none"></polyline>
<polyline points="897.464,1126.37,5869.48,1183.18" stroke="rgb(203,255,0)" stroke-width="2" fill="none"></polyline>
<polyline points="1145.14,1143.75,6850.53,1321.04" stroke="rgb(0,255,182)" stroke-width="2" fill="none"></polyline>
<polyline points="1557.14,1147.86,5781.28,1355.97" stroke="rgb(97,255,0)" stroke-width="2" fill="none"></polyline>
<polyline points="930.682,1157.03,6485.27,550.789" stroke="rgb(250,255,0)" stroke-width="2" fill="none"></polyline>
<polyline points="1558.2,1157.57,5775.32,1353.11" stroke="rgb(255,0,29)" stroke-width="2" fill="none"></polyline>
<polyline points="987.398,1179.91,5614.9,863.655" stroke="rgb(0,255,254)" stroke-width="2" fill="none"></polyline>
<polyline points="1080.45,1181.32,6286.43,928.191" stroke="rgb(203,255,0)" stroke-width="2" fill="none"></polyline>
<polyline points="1120.33,1185.08,5625.61,671.103" stroke="rgb(0,4,255)" stroke-width="2" fill="none"></polyline>
<polyline points="969.713,1190.13,6657.88,1540.9" stroke="rgb(0,255,178)" stroke-width="2" fill="none"></polyline>
<polyline points="1056.34,1220.94,5845.67,534.963" stroke="rgb(123,255,0)" stroke-width="2" fill="none"></polyline>
<polyline points="1855.81,1242.65,5603.58,1219.07" stroke="rgb(0,97,255)" stroke-width="2" fill="none"></polyline>
<polyline points="1242.1,1256.17,5738.89,1092.17" stroke="rgb(0,255,50)" stroke-width="2" fill="none"></polyline>
<polyline points="1281.59,1348.21,5090.95,847.262" stroke="rgb(255,208,0)" stroke-width="2" fill="none"></polyline>
<polyline points="1610.46,1368.92,6151.23,483.723" stroke="rgb(25,255,0)" stroke-width="2" fill="none"></polyline>
<polyline points="1612.09,1382.08,6068.72,481.051" stroke="rgb(255,114,0)" stroke-width="2" fill="none"></polyline>
<polyline points="1628.67,1406.86,5068.05,831.599" stroke="rgb(0,153,255)" stroke-width="2" fill="none"></polyline>
<polyline points="2813.43,1516.67,5530.09,840.435" stroke="rgb(255,29,0)" stroke-width="2" fill="none"></polyline>
<polyline points="1259.12,1543.06,6294.7,976.028" stroke="rgb(255,0,21)" stroke-width="2" fill="none"></polyline>
<polyline points="1572.13,1592.25,5691.95,718.784" stroke="rgb(123,0,255)" stroke-width="2" fill="none"></polyline>
<polyline points="1122.96,1619.42,5154.9,897.903" stroke="rgb(80,0,255)" stroke-width="2" fill="none"></polyline>
<polyline points="1139.13,1624.73,5917.85,1319.05" stroke="rgb(72,0,255)" stroke-width="2" fill="none"></polyline>
<polyline points="2048.02,1641.09,6619,1003.85" stroke="rgb(255,242,0)" stroke-width="2" fill="none"></polyline>
<polyline points="1876.82,1674.48,5770.53,1253.63" stroke="rgb(255,25,0)" stroke-width="2" fill="none"></polyline>
<polyline points="1710.83,1681.43,5866.49,759.885" stroke="rgb(255,0,0)" stroke-width="2" fill="none"></polyline>
<polyline points="1719.2,1697.86,5675.83,696.027" stroke="rgb(255,119,0)" stroke-width="2" fill="none"></polyline>
<polyline points="1098.46,1700.97,6605.99,602.682" stroke="rgb(203,255,0)" stroke-width="2" fill="none"></polyline>
<polyline points="1595.39,1711.63,4977.33,885.891" stroke="rgb(76,0,255)" stroke-width="2" fill="none"></polyline>
<polyline points="1261.22,1714.56,5896.96,571.53" stroke="rgb(255,0,76)" stroke-width="2" fill="none"></polyline>
<polyline points="1915.08,1717.27,6963.91,900.416" stroke="rgb(110,0,255)" stroke-width="2" fill="none"></polyline>
<polyline points="1687.86,1727.04,6034.71,688.693" stroke="rgb(0,191,255)" stroke-width="2" fill="none"></polyline>
<polyline points="1699.7,1736,5829.51,946.653" stroke="rgb(255,174,0)" stroke-width="2" fill="none"></polyline>
<polyline points="2116.93,1761.07,5858.32,1350.63" stroke="rgb(255,0,89)" stroke-width="2" fill="none"></polyline>
<polyline points="1104.77,1761.1,6487.1,539.338" stroke="rgb(0,42,255)" stroke-width="2" fill="none"></polyline>
<polyline points="1685.16,1797.98,5470.6,616.803" stroke="rgb(255,42,0)" stroke-width="2" fill="none"></polyline>
<polyline points="1700.34,1811.21,5707.05,1213.48" stroke="rgb(135,0,255)" stroke-width="2" fill="none"></polyline>
<polyline points="1735.61,1815.33,5988.36,664.708" stroke="rgb(0,72,255)" stroke-width="2" fill="none"></polyline>
<polyline points="1686.28,1848.78,5880.49,674.07" stroke="rgb(0,212,255)" stroke-width="2" fill="none"></polyline>
<polyline points="941.561,1859.52,5683.03,602.788" stroke="rgb(255,0,63)" stroke-width="2" fill="none"></polyline>
<polyline points="1707.61,1860.76,5947.26,776.562" stroke="rgb(255,0,110)" stroke-width="2" fill="none"></polyline>
<polyline points="2145.21,1884.08,6645.59,1248.38" stroke="rgb(0,63,255)" stroke-width="2" fill="none"></polyline>
<polyline points="1604.36,1892.92,6966.87,1105.53" stroke="rgb(255,0,221)" stroke-width="2" fill="none"></polyline>
<polyline points="1038.96,1924.81,5488.91,749.047" stroke="rgb(237,255,0)" stroke-width="2" fill="none"></polyline>
<polyline points="2502.99,2179.09,6923.58,1477.96" stroke="rgb(255,0,12)" stroke-width="2" fill="none"></polyline>
<polyline points="603.788,2228.83,5965.06,697.869" stroke="rgb(0,42,255)" stroke-width="2" fill="none"></polyline>
<polyline points="1495.97,2233.42,5868.51,731.52" stroke="rgb(0,255,246)" stroke-width="2" fill="none"></polyline>
<polyline points="1222.57,2400.11,7008.95,1055.59" stroke="rgb(255,102,0)" stroke-width="2" fill="none"></polyline>
<circle cx="760.431" cy="248.174" r="4" stroke="rgb(0,255,195)" stroke-width="2" fill="none"></circle>
<circle cx="5852.4" cy="561.91" r="4" stroke="rgb(0,255,195)" stroke-width="2" fill="none"></circle>
<circle cx="772.434" cy="369.712" r="4" stroke="rgb(38,255,0)" stroke-width="2" fill="none"></circle>
<circle cx="5362.96" cy="653.776" r="4" stroke="rgb(38,255,0)" stroke-width="2" fill="none"></circle>
<circle cx="780.765" cy="389.423" r="4" stroke="rgb(0,93,255)" stroke-width="2" fill="none"></circle>
<circle cx="5861.39" cy="756.124" r="4" stroke="rgb(0,93,255)" stroke-width="2" fill="none"></circle>
<circle cx="842.263" cy="429.478" r="4" stroke="rgb(0,255,225)" stroke-width="2" fill="none"></circle>
<circle cx="5964.89" cy="942.21" r="4" stroke="rgb(0,255,225)" stroke-width="2" fill="none"></circle>
<circle cx="581.032" cy="468.86" r="4" stroke="rgb(161,0,255)" stroke-width="2" fill="none"></circle>
<circle cx="6286.43" cy="928.191" r="4" stroke="rgb(161,0,255)" stroke-width="2" fill="none"></circle>
<circle cx="1212.69" cy="557.412" r="4" stroke="rgb(203,0,255)" stroke-width="2" fill="none"></circle>
<circle cx="7131.44" cy="1179.71" r="4" stroke="rgb(203,0,255)" stroke-width="2" fill="none"></circle>
<circle cx="1529.12" cy="576.528" r="4" stroke="rgb(255,110,0)" stroke-width="2" fill="none"></circle>
<circle cx="5792.21" cy="1365.63" r="4" stroke="rgb(255,110,0)" stroke-width="2" fill="none"></circle>
<circle cx="1488.24" cy="601.869" r="4" stroke="rgb(255,34,0)" stroke-width="2" fill="none"></circle>
<circle cx="6010.61" cy="1475.26" r="4" stroke="rgb(255,34,0)" stroke-width="2" fill="none"></circle>
<circle cx="1733.72" cy="613.743" r="4" stroke="rgb(0,85,255)" stroke-width="2" fill="none"></circle>
<circle cx="5932.75" cy="446.955" r="4" stroke="rgb(0,85,255)" stroke-width="2" fill="none"></circle>
<circle cx="1549.4" cy="654.622" r="4" stroke="rgb(255,0,55)" stroke-width="2" fill="none"></circle>
<circle cx="5950.84" cy="1176.11" r="4" stroke="rgb(255,0,55)" stroke-width="2" fill="none"></circle>
<circle cx="2048.39" cy="656.739" r="4" stroke="rgb(225,255,0)" stroke-width="2" fill="none"></circle>
<circle cx="6564.94" cy="897.378" r="4" stroke="rgb(225,255,0)" stroke-width="2" fill="none"></circle>
<circle cx="677.243" cy="657.91" r="4" stroke="rgb(255,195,0)" stroke-width="2" fill="none"></circle>
<circle cx="4876.97" cy="855.448" r="4" stroke="rgb(255,195,0)" stroke-width="2" fill="none"></circle>
<circle cx="1199.46" cy="698.708" r="4" stroke="rgb(195,0,255)" stroke-width="2" fill="none"></circle>
<circle cx="6051.77" cy="1429.65" r="4" stroke="rgb(195,0,255)" stroke-width="2" fill="none"></circle>
<circle cx="1254.9" cy="716.027" r="4" stroke="rgb(255,0,153)" stroke-width="2" fill="none"></circle>
<circle cx="6651.67" cy="584.107" r="4" stroke="rgb(255,0,153)" stroke-width="2" fill="none"></circle>
<circle cx="1599.12" cy="720.17" r="4" stroke="rgb(0,255,16)" stroke-width="2" fill="none"></circle>
<circle cx="7005.45" cy="1039.88" r="4" stroke="rgb(0,255,16)" stroke-width="2" fill="none"></circle>
<circle cx="1197.82" cy="749.495" r="4" stroke="rgb(0,169,255)" stroke-width="2" fill="none"></circle>
<circle cx="5948.59" cy="1288.64" r="4" stroke="rgb(0,169,255)" stroke-width="2" fill="none"></circle>
<circle cx="1485.67" cy="763.608" r="4" stroke="rgb(127,0,255)" stroke-width="2" fill="none"></circle>
<circle cx="6034.71" cy="688.693" r="4" stroke="rgb(127,0,255)" stroke-width="2" fill="none"></circle>
<circle cx="1276.38" cy="769.035" r="4" stroke="rgb(255,0,4)" stroke-width="2" fill="none"></circle>
<circle cx="6729.97" cy="1530.29" r="4" stroke="rgb(255,0,4)" stroke-width="2" fill="none"></circle>
<circle cx="1176.16" cy="777.624" r="4" stroke="rgb(225,0,255)" stroke-width="2" fill="none"></circle>
<circle cx="6749.72" cy="601.386" r="4" stroke="rgb(225,0,255)" stroke-width="2" fill="none"></circle>
<circle cx="1684.35" cy="798.224" r="4" stroke="rgb(0,123,255)" stroke-width="2" fill="none"></circle>
<circle cx="5968.29" cy="1197.57" r="4" stroke="rgb(0,123,255)" stroke-width="2" fill="none"></circle>
<circle cx="1214.05" cy="817.988" r="4" stroke="rgb(0,106,255)" stroke-width="2" fill="none"></circle>
<circle cx="5830.98" cy="956.75" r="4" stroke="rgb(0,106,255)" stroke-width="2" fill="none"></circle>
<circle cx="1248.49" cy="833.131" r="4" stroke="rgb(97,255,0)" stroke-width="2" fill="none"></circle>
<circle cx="6019.98" cy="1381.36" r="4" stroke="rgb(97,255,0)" stroke-width="2" fill="none"></circle>
<circle cx="1271.53" cy="833.926" r="4" stroke="rgb(0,246,255)" stroke-width="2" fill="none"></circle>
<circle cx="6005.9" cy="1392.5" r="4" stroke="rgb(0,246,255)" stroke-width="2" fill="none"></circle>
<circle cx="1652.84" cy="835.465" r="4" stroke="rgb(144,255,0)" stroke-width="2" fill="none"></circle>
<circle cx="6522.78" cy="630.374" r="4" stroke="rgb(144,255,0)" stroke-width="2" fill="none"></circle>
<circle cx="1986.04" cy="837.652" r="4" stroke="rgb(255,114,0)" stroke-width="2" fill="none"></circle>
<circle cx="6897.93" cy="1113.84" r="4" stroke="rgb(255,114,0)" stroke-width="2" fill="none"></circle>
<circle cx="1266.07" cy="838.12" r="4" stroke="rgb(33,255,0)" stroke-width="2" fill="none"></circle>
<circle cx="6007.53" cy="1387.8" r="4" stroke="rgb(33,255,0)" stroke-width="2" fill="none"></circle>
<circle cx="980.974" cy="846.99" r="4" stroke="rgb(0,255,38)" stroke-width="2" fill="none"></circle>
<circle cx="6311.43" cy="938.745" r="4" stroke="rgb(0,255,38)" stroke-width="2" fill="none"></circle>
<circle cx="769.059" cy="847.783" r="4" stroke="rgb(0,255,195)" stroke-width="2" fill="none"></circle>
<circle cx="5307.38" cy="790.606" r="4" stroke="rgb(0,255,195)" stroke-width="2" fill="none"></circle>
<circle cx="1334.03" cy="860.095" r="4" stroke="rgb(0,33,255)" stroke-width="2" fill="none"></circle>
<circle cx="5431.05" cy="837.174" r="4" stroke="rgb(0,33,255)" stroke-width="2" fill="none"></circle>
<circle cx="1264.99" cy="885.558" r="4" stroke="rgb(0,8,255)" stroke-width="2" fill="none"></circle>
<circle cx="5978.43" cy="1358.65" r="4" stroke="rgb(0,8,255)" stroke-width="2" fill="none"></circle>
<circle cx="1271.79" cy="890.682" r="4" stroke="rgb(89,255,0)" stroke-width="2" fill="none"></circle>
<circle cx="5972.12" cy="1360.68" r="4" stroke="rgb(89,255,0)" stroke-width="2" fill="none"></circle>
<circle cx="2272.12" cy="893.111" r="4" stroke="rgb(255,161,0)" stroke-width="2" fill="none"></circle>
<circle cx="6521.15" cy="1280.14" r="4" stroke="rgb(255,161,0)" stroke-width="2" fill="none"></circle>
<circle cx="1489.2" cy="893.186" r="4" stroke="rgb(255,0,46)" stroke-width="2" fill="none"></circle>
<circle cx="5738.16" cy="1276.39" r="4" stroke="rgb(255,0,46)" stroke-width="2" fill="none"></circle>
<circle cx="1142.46" cy="894.69" r="4" stroke="rgb(255,0,182)" stroke-width="2" fill="none"></circle>
<circle cx="6475.47" cy="1596.25" r="4" stroke="rgb(255,0,182)" stroke-width="2" fill="none"></circle>
<circle cx="1289.68" cy="907.733" r="4" stroke="rgb(157,255,0)" stroke-width="2" fill="none"></circle>
<circle cx="5954.03" cy="1361.59" r="4" stroke="rgb(157,255,0)" stroke-width="2" fill="none"></circle>
<circle cx="1876.63" cy="911.093" r="4" stroke="rgb(0,255,80)" stroke-width="2" fill="none"></circle>
<circle cx="6883.42" cy="1342.74" r="4" stroke="rgb(0,255,80)" stroke-width="2" fill="none"></circle>
<circle cx="968.773" cy="920.929" r="4" stroke="rgb(25,0,255)" stroke-width="2" fill="none"></circle>
<circle cx="6254.03" cy="915.381" r="4" stroke="rgb(25,0,255)" stroke-width="2" fill="none"></circle>
<circle cx="1269.07" cy="921.36" r="4" stroke="rgb(42,255,0)" stroke-width="2" fill="none"></circle>
<circle cx="5957.56" cy="1339.91" r="4" stroke="rgb(42,255,0)" stroke-width="2" fill="none"></circle>
<circle cx="1274.92" cy="942.235" r="4" stroke="rgb(255,80,0)" stroke-width="2" fill="none"></circle>
<circle cx="6065.85" cy="1521.75" r="4" stroke="rgb(255,80,0)" stroke-width="2" fill="none"></circle>
<circle cx="1193.39" cy="957.278" r="4" stroke="rgb(255,0,93)" stroke-width="2" fill="none"></circle>
<circle cx="6036.49" cy="797.172" r="4" stroke="rgb(255,0,93)" stroke-width="2" fill="none"></circle>
<circle cx="1231.12" cy="960.38" r="4" stroke="rgb(255,0,131)" stroke-width="2" fill="none"></circle>
<circle cx="5830.82" cy="1211.04" r="4" stroke="rgb(255,0,131)" stroke-width="2" fill="none"></circle>
<circle cx="1367.59" cy="966.868" r="4" stroke="rgb(144,255,0)" stroke-width="2" fill="none"></circle>
<circle cx="5182.57" cy="1129.64" r="4" stroke="rgb(144,255,0)" stroke-width="2" fill="none"></circle>
<circle cx="1833.32" cy="975.519" r="4" stroke="rgb(255,102,0)" stroke-width="2" fill="none"></circle>
<circle cx="6003.54" cy="1183.8" r="4" stroke="rgb(255,102,0)" stroke-width="2" fill="none"></circle>
<circle cx="1196.83" cy="983.692" r="4" stroke="rgb(63,0,255)" stroke-width="2" fill="none"></circle>
<circle cx="5020.39" cy="896.282" r="4" stroke="rgb(63,0,255)" stroke-width="2" fill="none"></circle>
<circle cx="1908.72" cy="985.476" r="4" stroke="rgb(178,0,255)" stroke-width="2" fill="none"></circle>
<circle cx="6502.13" cy="893.179" r="4" stroke="rgb(178,0,255)" stroke-width="2" fill="none"></circle>
<circle cx="841.313" cy="997.698" r="4" stroke="rgb(255,89,0)" stroke-width="2" fill="none"></circle>
<circle cx="6663.23" cy="664.536" r="4" stroke="rgb(255,89,0)" stroke-width="2" fill="none"></circle>
<circle cx="1540.27" cy="999.232" r="4" stroke="rgb(101,255,0)" stroke-width="2" fill="none"></circle>
<circle cx="5861.85" cy="633.087" r="4" stroke="rgb(101,255,0)" stroke-width="2" fill="none"></circle>
<circle cx="1071.04" cy="999.267" r="4" stroke="rgb(233,255,0)" stroke-width="2" fill="none"></circle>
<circle cx="5957.99" cy="701.951" r="4" stroke="rgb(233,255,0)" stroke-width="2" fill="none"></circle>
<circle cx="1545.73" cy="1002.24" r="4" stroke="rgb(50,0,255)" stroke-width="2" fill="none"></circle>
<circle cx="5454.17" cy="611.131" r="4" stroke="rgb(50,0,255)" stroke-width="2" fill="none"></circle>
<circle cx="2507.3" cy="1013.91" r="4" stroke="rgb(89,0,255)" stroke-width="2" fill="none"></circle>
<circle cx="6410.28" cy="1541.29" r="4" stroke="rgb(89,0,255)" stroke-width="2" fill="none"></circle>
<circle cx="926.847" cy="1018.07" r="4" stroke="rgb(0,255,118)" stroke-width="2" fill="none"></circle>
<circle cx="6848.26" cy="1484.46" r="4" stroke="rgb(0,255,118)" stroke-width="2" fill="none"></circle>
<circle cx="1359.29" cy="1025.93" r="4" stroke="rgb(55,255,0)" stroke-width="2" fill="none"></circle>
<circle cx="5868.99" cy="1334.6" r="4" stroke="rgb(55,255,0)" stroke-width="2" fill="none"></circle>
<circle cx="2378.1" cy="1026.53" r="4" stroke="rgb(0,38,255)" stroke-width="2" fill="none"></circle>
<circle cx="6212" cy="692.219" r="4" stroke="rgb(0,38,255)" stroke-width="2" fill="none"></circle>
<circle cx="2579.25" cy="1027.81" r="4" stroke="rgb(255,0,127)" stroke-width="2" fill="none"></circle>
<circle cx="6288.82" cy="1609.21" r="4" stroke="rgb(255,0,127)" stroke-width="2" fill="none"></circle>
<circle cx="2526.49" cy="1037.79" r="4" stroke="rgb(0,199,255)" stroke-width="2" fill="none"></circle>
<circle cx="6487.1" cy="539.338" r="4" stroke="rgb(0,199,255)" stroke-width="2" fill="none"></circle>
<circle cx="1612.92" cy="1059.54" r="4" stroke="rgb(76,0,255)" stroke-width="2" fill="none"></circle>
<circle cx="5055.6" cy="818.162" r="4" stroke="rgb(76,0,255)" stroke-width="2" fill="none"></circle>
<circle cx="923.319" cy="1071.81" r="4" stroke="rgb(255,0,195)" stroke-width="2" fill="none"></circle>
<circle cx="6373.18" cy="981.07" r="4" stroke="rgb(255,0,195)" stroke-width="2" fill="none"></circle>
<circle cx="1614.38" cy="1093.79" r="4" stroke="rgb(255,0,161)" stroke-width="2" fill="none"></circle>
<circle cx="6018.18" cy="716.261" r="4" stroke="rgb(255,0,161)" stroke-width="2" fill="none"></circle>
<circle cx="1558.11" cy="1115.69" r="4" stroke="rgb(237,255,0)" stroke-width="2" fill="none"></circle>
<circle cx="6016.68" cy="679.648" r="4" stroke="rgb(237,255,0)" stroke-width="2" fill="none"></circle>
<circle cx="1956.53" cy="1121.05" r="4" stroke="rgb(0,229,255)" stroke-width="2" fill="none"></circle>
<circle cx="5698.78" cy="1337.98" r="4" stroke="rgb(0,229,255)" stroke-width="2" fill="none"></circle>
<circle cx="897.464" cy="1126.37" r="4" stroke="rgb(203,255,0)" stroke-width="2" fill="none"></circle>
<circle cx="5869.48" cy="1183.18" r="4" stroke="rgb(203,255,0)" stroke-width="2" fill="none"></circle>
<circle cx="1145.14" cy="1143.75" r="4" stroke="rgb(0,255,182)" stroke-width="2" fill="none"></circle>
<circle cx="6850.53" cy="1321.04" r="4" stroke="rgb(0,255,182)" stroke-width="2" fill="none"></circle>
<circle cx="1557.14" cy="1147.86" r="4" stroke="rgb(97,255,0)" stroke-width="2" fill="none"></circle>
<circle cx="5781.28" cy="1355.97" r="4" stroke="rgb(97,255,0)" stroke-width="2" fill="none"></circle>
<circle cx="930.682" cy="1157.03" r="4" stroke="rgb(250,255,0)" stroke-width="2" fill="none"></circle>
<circle cx="6485.27" cy="550.789" r="4" stroke="rgb(250,255,0)" stroke-width="2" fill="none"></circle>
<circle cx="1558.2" cy="1157.57" r="4" stroke="rgb(255,0,29)" stroke-width="2" fill="none"></circle>
<circle cx="5775.32" cy="1353.11" r="4" stroke="rgb(255,0,29)" stroke-width="2" fill="none"></circle>
<circle cx="987.398" cy="1179.91" r="4" stroke="rgb(0,255,254)" stroke-width="2" fill="none"></circle>
<circle cx="5614.9" cy="863.655" r="4" stroke="rgb(0,255,254)" stroke-width="2" fill="none"></circle>
<circle cx="1080.45" cy="1181.32" r="4" stroke="rgb(203,255,0)" stroke-width="2" fill="none"></circle>
<circle cx="6286.43" cy="928.191" r="4" stroke="rgb(203,255,0)" stroke-width="2" fill="none"></circle>
<circle cx="1120.33" cy="1185.08" r="4" stroke="rgb(0,4,255)" stroke-width="2" fill="none"></circle>
<circle cx="5625.61" cy="671.103" r="4" stroke="rgb(0,4,255)" stroke-width="2" fill="none"></circle>
<circle cx="969.713" cy="1190.13" r="4" stroke="rgb(0,255,178)" stroke-width="2" fill="none"></circle>
<circle cx="6657.88" cy="1540.9" r="4" stroke="rgb(0,255,178)" stroke-width="2" fill="none"></circle>
<circle cx="1056.34" cy="1220.94" r="4" stroke="rgb(123,255,0)" stroke-width="2" fill="none"></circle>
<circle cx="5845.67" cy="534.963" r="4" stroke="rgb(123,255,0)" stroke-width="2" fill="none"></circle>
<circle cx="1855.81" cy="1242.65" r="4" stroke="rgb(0,97,255)" stroke-width="2" fill="none"></circle>
<circle cx="5603.58" cy="1219.07" r="4" stroke="rgb(0,97,255)" stroke-width="2" fill="none"></circle>
<circle cx="1242.1" cy="1256.17" r="4" stroke="rgb(0,255,50)" stroke-width="2" fill="none"></circle>
<circle cx="5738.89" cy="1092.17" r="4" stroke="rgb(0,255,50)" stroke-width="2" fill="none"></circle>
<circle cx="1281.59" cy="1348.21" r="4" stroke="rgb(255,208,0)" stroke-width="2" fill="none"></circle>
<circle cx="5090.95" cy="847.262" r="4" stroke="rgb(255,208,0)" stroke-width="2" fill="none"></circle>
<circle cx="1610.46" cy="1368.92" r="4" stroke="rgb(25,255,0)" stroke-width="2" fill="none"></circle>
<circle cx="6151.23" cy="483.723" r="4" stroke="rgb(25,255,0)" stroke-width="2" fill="none"></circle>
<circle cx="1612.09" cy="1382.08" r="4" stroke="rgb(255,114,0)" stroke-width="2" fill="none"></circle>
<circle cx="6068.72" cy="481.051" r="4" stroke="rgb(255,114,0)" stroke-width="2" fill="none"></circle>
<circle cx="1628.67" cy="1406.86" r="4" stroke="rgb(0,153,255)" stroke-width="2" fill="none"></circle>
<circle cx="5068.05" cy="831.599" r="4" stroke="rgb(0,153,255)" stroke-width="2" fill="none"></circle>
<circle cx="2813.43" cy="1516.67" r="4" stroke="rgb(255,29,0)" stroke-width="2" fill="none"></circle>
<circle cx="5530.09" cy="840.435" r="4" stroke="rgb(255,29,0)" stroke-width="2" fill="none"></circle>
<circle cx="1259.12" cy="1543.06" r="4" stroke="rgb(255,0,21)" stroke-width="2" fill="none"></circle>
<circle cx="6294.7" cy="976.028" r="4" stroke="rgb(255,0,21)" stroke-width="2" fill="none"></circle>
<circle cx="1572.13" cy="1592.25" r="4" stroke="rgb(123,0,255)" stroke-width="2" fill="none"></circle>
<circle cx="5691.95" cy="718.784" r="4" stroke="rgb(123,0,255)" stroke-width="2" fill="none"></circle>
<circle cx="1122.96" cy="1619.42" r="4" stroke="rgb(80,0,255)" stroke-width="2" fill="none"></circle>
<circle cx="5154.9" cy="897.903" r="4" stroke="rgb(80,0,255)" stroke-width="2" fill="none"></circle>
<circle cx="1139.13" cy="1624.73" r="4" stroke="rgb(72,0,255)" stroke-width="2" fill="none"></circle>
<circle cx="5917.85" cy="1319.05" r="4" stroke="rgb(72,0,255)" stroke-width="2" fill="none"></circle>
<circle cx="2048.02" cy="1641.09" r="4" stroke="rgb(255,242,0)" stroke-width="2" fill="none"></circle>
<circle cx="6619" cy="1003.85" r="4" stroke="rgb(255,242,0)" stroke-width="2" fill="none"></circle>
<circle cx="1876.82" cy="1674.48" r="4" stroke="rgb(255,25,0)" stroke-width="2" fill="none"></circle>
<circle cx="5770.53" cy="1253.63" r="4" stroke="rgb(255,25,0)" stroke-width="2" fill="none"></circle>
<circle cx="1710.83" cy="1681.43" r="4" stroke="rgb(255,0,0)" stroke-width="2" fill="none"></circle>
<circle cx="5866.49" cy="759.885" r="4" stroke="rgb(255,0,0)" stroke-width="2" fill="none"></circle>
<circle cx="1719.2" cy="1697.86" r="4" stroke="rgb(255,119,0)" stroke-width="2" fill="none"></circle>
<circle cx="5675.83" cy="696.027" r="4" stroke="rgb(255,119,0)" stroke-width="2" fill="none"></circle>
<circle cx="1098.46" cy="1700.97" r="4" stroke="rgb(203,255,0)" stroke-width="2" fill="none"></circle>
<circle cx="6605.99" cy="602.682" r="4" stroke="rgb(203,255,0)" stroke-width="2" fill="none"></circle>
<circle cx="1595.39" cy="1711.63" r="4" stroke="rgb(76,0,255)" stroke-width="2" fill="none"></circle>
<circle cx="4977.33" cy="885.891" r="4" stroke="rgb(76,0,255)" stroke-width="2" fill="none"></circle>
<circle cx="1261.22" cy="1714.56" r="4" stroke="rgb(255,0,76)" stroke-width="2" fill="none"></circle>
<circle cx="5896.96" cy="571.53" r="4" stroke="rgb(255,0,76)" stroke-width="2" fill="none"></circle>
<circle cx="1915.08" cy="1717.27" r="4" stroke="rgb(110,0,255)" stroke-width="2" fill="none"></circle>
<circle cx="6963.91" cy="900.416" r="4" stroke="rgb(110,0,255)" stroke-width="2" fill="none"></circle>
<circle cx="1687.86" cy="1727.04" r="4" stroke="rgb(0,191,255)" stroke-width="2" fill="none"></circle>
<circle cx="6034.71" cy="688.693" r="4" stroke="rgb(0,191,255)" stroke-width="2" fill="none"></circle>
<circle cx="1699.7" cy="1736" r="4" stroke="rgb(255,174,0)" stroke-width="2" fill="none"></circle>
<circle cx="5829.51" cy="946.653" r="4" stroke="rgb(255,174,0)" stroke-width="2" fill="none"></circle>
<circle cx="2116.93" cy="1761.07" r="4" stroke="rgb(255,0,89)" stroke-width="2" fill="none"></circle>
<circle cx="5858.32" cy="1350.63" r="4" stroke="rgb(255,0,89)" stroke-width="2" fill="none"></circle>
<circle cx="1104.77" cy="1761.1" r="4" stroke="rgb(0,42,255)" stroke-width="2" fill="none"></circle>
<circle cx="6487.1" cy="539.338" r="4" stroke="rgb(0,42,255)" stroke-width="2" fill="none"></circle>
<circle cx="1685.16" cy="1797.98" r="4" stroke="rgb(255,42,0)" stroke-width="2" fill="none"></circle>
<circle cx="5470.6" cy="616.803" r="4" stroke="rgb(255,42,0)" stroke-width="2" fill="none"></circle>
<circle cx="1700.34" cy="1811.21" r="4" stroke="rgb(135,0,255)" stroke-width="2" fill="none"></circle>
<circle cx="5707.05" cy="1213.48" r="4" stroke="rgb(135,0,255)" stroke-width="2" fill="none"></circle>
<circle cx="1735.61" cy="1815.33" r="4" stroke="rgb(0,72,255)" stroke-width="2" fill="none"></circle>
<circle cx="5988.36" cy="664.708" r="4" stroke="rgb(0,72,255)" stroke-width="2" fill="none"></circle>
<circle cx="1686.28" cy="1848.78" r="4" stroke="rgb(0,212,255)" stroke-width="2" fill="none"></circle>
<circle cx="5880.49" cy="674.07" r="4" stroke="rgb(0,212,255)" stroke-width="2" fill="none"></circle>
<circle cx="941.561" cy="1859.52" r="4" stroke="rgb(255,0,63)" stroke-width="2" fill="none"></circle>
<circle cx="5683.03" cy="602.788" r="4" stroke="rgb(255,0,63)" stroke-width="2" fill="none"></circle>
<circle cx="1707.61" cy="1860.76" r="4" stroke="rgb(255,0,110)" stroke-width="2" fill="none"></circle>
<circle cx="5947.26" cy="776.562" r="4" stroke="rgb(255,0,110)" stroke-width="2" fill="none"></circle>
<circle cx="2145.21" cy="1884.08" r="4" stroke="rgb(0,63,255)" stroke-width="2" fill="none"></circle>
<circle cx="6645.59" cy="1248.38" r="4" stroke="rgb(0,63,255)" stroke-width="2" fill="none"></circle>
<circle cx="1604.36" cy="1892.92" r="4" stroke="rgb(255,0,221)" stroke-width="2" fill="none"></circle>
<circle cx="6966.87" cy="1105.53" r="4" stroke="rgb(255,0,221)" stroke-width="2" fill="none"></circle>
<circle cx="1038.96" cy="1924.81" r="4" stroke="rgb(237,255,0)" stroke-width="2" fill="none"></circle>
<circle cx="5488.91" cy="749.047" r="4" stroke="rgb(237,255,0)" stroke-width="2" fill="none"></circle>
<circle cx="2502.99" cy="2179.09" r="4" stroke="rgb(255,0,12)" stroke-width="2" fill="none"></circle>
<circle cx="6923.58" cy="1477.96" r="4" stroke="rgb(255,0,12)" stroke-width="2" fill="none"></circle>
<circle cx="603.788" cy="2228.83" r="4" stroke="rgb(0,42,255)" stroke-width="2" fill="none"></circle>
<circle cx="5965.06" cy="697.869" r="4" stroke="rgb(0,42,255)" stroke-width="2" fill="none"></circle>
<circle cx="1495.97" cy="2233.42" r="4" stroke="rgb(0,255,246)" stroke-width="2" fill="none"></circle>
<circle cx="5868.51" cy="731.52" r="4" stroke="rgb(0,255,246)" stroke-width="2" fill="none"></circle>
<circle cx="1222.57" cy="2400.11" r="4" stroke="rgb(255,102,0)" stroke-width="2" fill="none"></circle>
<circle cx="7008.95" cy="1055.59" r="4" stroke="rgb(255,102,0)" stroke-width="2" fill="none"></circle>
</svg>