<?xml version="1.0" standalone="yes"?>
<!-- SVG graphic -->
<svg xmlns='http://www.w3.org/2000/svg' xmlns:xlink='http://www.w3.org/1999/xlink'
width="8064px" height="3024px" preserveAspectRatio="xMinYMin meet" viewBox="0 0 8064 3024" version="1.1">
<image x="0" y="0" width="4032px" height="3024px" opacity="1" xlink:href="/home/jeong/Code/2D-to-3D-Modeling-using-AI/Make3D/Image/20200227_180652.jpg"/>
<image x="4032" y="0" width="4032px" height="3024px" opacity="1" xlink:href="/home/jeong/Code/2D-to-3D-Modeling-using-AI/Make3D/Image/20200227_180733.jpg"/>
<polyline points="1960.94,897.673,6987.56,1461.49" stroke="rgb(85,0,255)" stroke-width="2" fill="none"></polyline>
<polyline points="2110.31,903.25,6580.59,2853.79" stroke="rgb(0,8,255)" stroke-width="2" fill="none"></polyline>
<polyline points="1995.56,910.255,7186.32,1451.53" stroke="rgb(0,255,191)" stroke-width="2" fill="none"></polyline>
<polyline points="2397.82,910.409,6319.18,1138.93" stroke="rgb(255,0,59)" stroke-width="2" fill="none"></polyline>
<polyline points="2115.34,947.293,5912.61,1817.63" stroke="rgb(97,255,0)" stroke-width="2" fill="none"></polyline>
<polyline points="2469.52,1031.71,6821.4,1173.17" stroke="rgb(255,204,0)" stroke-width="2" fill="none"></polyline>
<polyline points="2847.45,1079.03,6028.02,1507.14" stroke="rgb(255,59,0)" stroke-width="2" fill="none"></polyline>
<polyline points="1358.38,1186.84,5901.72,2194.48" stroke="rgb(255,0,29)" stroke-width="2" fill="none"></polyline>
<polyline points="2620.78,1248.67,6446.73,1134.9" stroke="rgb(0,255,220)" stroke-width="2" fill="none"></polyline>
<polyline points="2418.82,1254.68,5908.86,2519.51" stroke="rgb(255,225,0)" stroke-width="2" fill="none"></polyline>
<polyline points="1196.75,1327.86,5973.12,1238.95" stroke="rgb(0,76,255)" stroke-width="2" fill="none"></polyline>
<polyline points="1303.07,1329.39,6506.82,2570.27" stroke="rgb(0,255,216)" stroke-width="2" fill="none"></polyline>
<polyline points="1283.07,1358.88,6484.69,2639.68" stroke="rgb(33,255,0)" stroke-width="2" fill="none"></polyline>
<polyline points="1928.29,1386.46,6513.33,2293.77" stroke="rgb(153,0,255)" stroke-width="2" fill="none"></polyline>
<polyline points="1273.47,1413.05,6567.63,1803.7" stroke="rgb(21,255,0)" stroke-width="2" fill="none"></polyline>
<polyline points="2601.63,1418.3,6476.42,2076.13" stroke="rgb(255,0,63)" stroke-width="2" fill="none"></polyline>
<polyline points="2764.99,1440.19,6585.24,1588.64" stroke="rgb(38,0,255)" stroke-width="2" fill="none"></polyline>
<polyline points="2464.96,1443.77,5951.96,2363.47" stroke="rgb(0,255,191)" stroke-width="2" fill="none"></polyline>
<polyline points="2760.69,1445.72,6371.96,1670.63" stroke="rgb(0,255,72)" stroke-width="2" fill="none"></polyline>
<polyline points="2198.82,1449.57,5907.18,2204.38" stroke="rgb(0,255,195)" stroke-width="2" fill="none"></polyline>
<polyline points="2178.01,1463.84,5986.94,2288.48" stroke="rgb(0,255,93)" stroke-width="2" fill="none"></polyline>
<polyline points="1792.24,1471.05,6449.66,2189.64" stroke="rgb(0,165,255)" stroke-width="2" fill="none"></polyline>
<polyline points="2764.24,1475.2,6071.29,2425.93" stroke="rgb(0,255,212)" stroke-width="2" fill="none"></polyline>
<polyline points="2159.04,1476.48,5867.34,2562.44" stroke="rgb(225,255,0)" stroke-width="2" fill="none"></polyline>
<polyline points="1726.15,1490.24,6051.72,1858.92" stroke="rgb(255,0,72)" stroke-width="2" fill="none"></polyline>
<polyline points="1987.26,1494.28,5922.53,2211.18" stroke="rgb(255,0,76)" stroke-width="2" fill="none"></polyline>
<polyline points="1299.62,1513.23,6458.6,2118.2" stroke="rgb(16,255,0)" stroke-width="2" fill="none"></polyline>
<polyline points="1876.62,1514.9,6403.4,1464.64" stroke="rgb(42,255,0)" stroke-width="2" fill="none"></polyline>
<polyline points="2553.6,1519.87,6878.17,2422.07" stroke="rgb(255,0,242)" stroke-width="2" fill="none"></polyline>
<polyline points="2446.17,1521.26,5880.4,2310.63" stroke="rgb(29,0,255)" stroke-width="2" fill="none"></polyline>
<polyline points="1131.14,1525.38,6489.99,2614.44" stroke="rgb(255,0,89)" stroke-width="2" fill="none"></polyline>
<polyline points="2782.38,1534.9,6555.06,2204.74" stroke="rgb(0,157,255)" stroke-width="2" fill="none"></polyline>
<polyline points="2817.64,1540.21,6266.71,1708.04" stroke="rgb(255,0,12)" stroke-width="2" fill="none"></polyline>
<polyline points="1976.63,1543.09,5911.39,2454.71" stroke="rgb(255,68,0)" stroke-width="2" fill="none"></polyline>
<polyline points="1383.26,1556.98,6229.28,1237.62" stroke="rgb(250,255,0)" stroke-width="2" fill="none"></polyline>
<polyline points="2749.6,1558.87,6542.39,2805.81" stroke="rgb(106,255,0)" stroke-width="2" fill="none"></polyline>
<polyline points="1678.08,1570.61,6007.37,2261.64" stroke="rgb(233,255,0)" stroke-width="2" fill="none"></polyline>
<polyline points="1672.27,1572.28,6010.37,2256.45" stroke="rgb(255,0,225)" stroke-width="2" fill="none"></polyline>
<polyline points="1681.89,1575.81,6000.91,2259.25" stroke="rgb(255,0,169)" stroke-width="2" fill="none"></polyline>
<polyline points="2770.04,1581.2,6585.5,2222.01" stroke="rgb(46,255,0)" stroke-width="2" fill="none"></polyline>
<polyline points="1655.67,1588.62,5907.87,2256.96" stroke="rgb(0,33,255)" stroke-width="2" fill="none"></polyline>
<polyline points="2798.45,1592.07,6396.41,2470.98" stroke="rgb(0,242,255)" stroke-width="2" fill="none"></polyline>
<polyline points="1669.39,1597.58,5896.63,2256.72" stroke="rgb(174,0,255)" stroke-width="2" fill="none"></polyline>
<polyline points="1437.57,1605.13,6155.44,1796.99" stroke="rgb(255,0,68)" stroke-width="2" fill="none"></polyline>
<polyline points="2766.32,1613.62,6524.47,2233.67" stroke="rgb(89,255,0)" stroke-width="2" fill="none"></polyline>
<polyline points="2563.34,1621.65,6594.12,2118.61" stroke="rgb(255,153,0)" stroke-width="2" fill="none"></polyline>
<polyline points="2584.62,1631.19,5796.32,2575.49" stroke="rgb(255,0,131)" stroke-width="2" fill="none"></polyline>
<polyline points="2133.97,1651.76,7020.21,1812.66" stroke="rgb(0,85,255)" stroke-width="2" fill="none"></polyline>
<polyline points="1658.92,1666.85,5845.9,2286.73" stroke="rgb(199,255,0)" stroke-width="2" fill="none"></polyline>
<polyline points="2641.4,1676.38,6946.87,1485.14" stroke="rgb(59,255,0)" stroke-width="2" fill="none"></polyline>
<polyline points="1708.59,1703.43,6940.52,1449.22" stroke="rgb(76,0,255)" stroke-width="2" fill="none"></polyline>
<polyline points="1359.04,1722.15,7069.98,1544.68" stroke="rgb(0,106,255)" stroke-width="2" fill="none"></polyline>
<polyline points="1134.5,1737.97,6189.55,2488.84" stroke="rgb(0,255,250)" stroke-width="2" fill="none"></polyline>
<polyline points="1104.05,1739.47,6189.55,2488.84" stroke="rgb(221,255,0)" stroke-width="2" fill="none"></polyline>
<polyline points="1139.37,1740.16,6416.8,1573.28" stroke="rgb(0,255,144)" stroke-width="2" fill="none"></polyline>
<polyline points="2528.01,1778.59,5854.84,2372.83" stroke="rgb(0,255,178)" stroke-width="2" fill="none"></polyline>
<polyline points="1959.46,1788.75,6061.06,1225.94" stroke="rgb(178,0,255)" stroke-width="2" fill="none"></polyline>
<polyline points="1585.53,1796.72,5897.73,2199.39" stroke="rgb(0,255,93)" stroke-width="2" fill="none"></polyline>
<polyline points="2510.88,1821.97,5853.34,2517.35" stroke="rgb(135,0,255)" stroke-width="2" fill="none"></polyline>
<polyline points="2733.82,1844.07,6839.69,2297.45" stroke="rgb(0,63,255)" stroke-width="2" fill="none"></polyline>
<polyline points="2219.56,1879.57,5934.75,1832.92" stroke="rgb(89,0,255)" stroke-width="2" fill="none"></polyline>
<polyline points="1491.15,1929.63,6853.56,2668.62" stroke="rgb(0,255,16)" stroke-width="2" fill="none"></polyline>
<polyline points="2527.66,1944.54,6659.32,1792.57" stroke="rgb(254,0,255)" stroke-width="2" fill="none"></polyline>
<polyline points="855.529,1946.09,6495.44,2382.17" stroke="rgb(80,0,255)" stroke-width="2" fill="none"></polyline>
<polyline points="1746.38,1949.1,6659.32,1792.57" stroke="rgb(0,255,84)" stroke-width="2" fill="none"></polyline>
<polyline points="1493.52,1949.18,5952.24,2371.84" stroke="rgb(255,4,0)" stroke-width="2" fill="none"></polyline>
<polyline points="1675.78,1973.73,6027.64,1924.05" stroke="rgb(0,59,255)" stroke-width="2" fill="none"></polyline>
<polyline points="2178.88,1979.92,6503.77,2434.13" stroke="rgb(182,255,0)" stroke-width="2" fill="none"></polyline>
<polyline points="1315.41,1981.53,6469.3,1499.07" stroke="rgb(255,0,221)" stroke-width="2" fill="none"></polyline>
<polyline points="1621.59,1996.75,6135.84,2140.1" stroke="rgb(0,229,255)" stroke-width="2" fill="none"></polyline>
<polyline points="1518.4,2013.84,6884.86,1346.42" stroke="rgb(0,225,255)" stroke-width="2" fill="none"></polyline>
<polyline points="2321.17,2030.62,5941.88,1791.14" stroke="rgb(0,255,254)" stroke-width="2" fill="none"></polyline>
<polyline points="1867.88,2031.44,5961.05,2381.21" stroke="rgb(4,0,255)" stroke-width="2" fill="none"></polyline>
<polyline points="1427.56,2037.99,6486.34,1520.44" stroke="rgb(51,255,0)" stroke-width="2" fill="none"></polyline>
<polyline points="1649.09,2038.19,5948.34,1835.28" stroke="rgb(0,255,186)" stroke-width="2" fill="none"></polyline>
<polyline points="1669.63,2044.08,6386.99,1196.01" stroke="rgb(0,119,255)" stroke-width="2" fill="none"></polyline>
<polyline points="1132.03,2048.04,6619.92,2378.69" stroke="rgb(0,255,101)" stroke-width="2" fill="none"></polyline>
<polyline points="1129.07,2058.03,6721.84,2076.1" stroke="rgb(255,21,0)" stroke-width="2" fill="none"></polyline>
<polyline points="1918.97,2059.37,7089.24,1992.06" stroke="rgb(199,255,0)" stroke-width="2" fill="none"></polyline>
<polyline points="2372.5,2061.86,6843.51,2686.34" stroke="rgb(0,97,255)" stroke-width="2" fill="none"></polyline>
<polyline points="2396.06,2074.7,5767.08,2577.18" stroke="rgb(255,0,68)" stroke-width="2" fill="none"></polyline>
<polyline points="1651.35,2077.43,5969.29,1798.3" stroke="rgb(255,0,123)" stroke-width="2" fill="none"></polyline>
<polyline points="1699.58,2088.9,6872.92,2433.39" stroke="rgb(255,0,233)" stroke-width="2" fill="none"></polyline>
<polyline points="953.95,2090.46,6560.87,1981.59" stroke="rgb(0,255,182)" stroke-width="2" fill="none"></polyline>
<polyline points="2041.23,2103.23,6175.11,1223.67" stroke="rgb(135,0,255)" stroke-width="2" fill="none"></polyline>
<polyline points="2339.73,2125.9,6953.26,1376.01" stroke="rgb(255,0,123)" stroke-width="2" fill="none"></polyline>
<polyline points="1857.63,2141.54,7002.15,1567.89" stroke="rgb(255,0,144)" stroke-width="2" fill="none"></polyline>
<polyline points="1111.07,2174.51,6899.19,2417.88" stroke="rgb(0,195,255)" stroke-width="2" fill="none"></polyline>
<polyline points="1662.82,2184.66,6776.45,2761.34" stroke="rgb(25,255,0)" stroke-width="2" fill="none"></polyline>
<polyline points="1142.01,2236.86,6815.32,2688.36" stroke="rgb(42,255,0)" stroke-width="2" fill="none"></polyline>
<circle cx="1960.94" cy="897.673" r="4" stroke="rgb(85,0,255)" stroke-width="2" fill="none"></circle>
<circle cx="6987.56" cy="1461.49" r="4" stroke="rgb(85,0,255)" stroke-width="2" fill="none"></circle>
<circle cx="2110.31" cy="903.25" r="4" stroke="rgb(0,8,255)" stroke-width="2" fill="none"></circle>
<circle cx="6580.59" cy="2853.79" r="4" stroke="rgb(0,8,255)" stroke-width="2" fill="none"></circle>
<circle cx="1995.56" cy="910.255" r="4" stroke="rgb(0,255,191)" stroke-width="2" fill="none"></circle>
<circle cx="7186.32" cy="1451.53" r="4" stroke="rgb(0,255,191)" stroke-width="2" fill="none"></circle>
<circle cx="2397.82" cy="910.409" r="4" stroke="rgb(255,0,59)" stroke-width="2" fill="none"></circle>
<circle cx="6319.18" cy="1138.93" r="4" stroke="rgb(255,0,59)" stroke-width="2" fill="none"></circle>
<circle cx="2115.34" cy="947.293" r="4" stroke="rgb(97,255,0)" stroke-width="2" fill="none"></circle>
<circle cx="5912.61" cy="1817.63" r="4" stroke="rgb(97,255,0)" stroke-width="2" fill="none"></circle>
<circle cx="2469.52" cy="1031.71" r="4" stroke="rgb(255,204,0)" stroke-width="2" fill="none"></circle>
<circle cx="6821.4" cy="1173.17" r="4" stroke="rgb(255,204,0)" stroke-width="2" fill="none"></circle>
<circle cx="2847.45" cy="1079.03" r="4" stroke="rgb(255,59,0)" stroke-width="2" fill="none"></circle>
<circle cx="6028.02" cy="1507.14" r="4" stroke="rgb(255,59,0)" stroke-width="2" fill="none"></circle>
<circle cx="1358.38" cy="1186.84" r="4" stroke="rgb(255,0,29)" stroke-width="2" fill="none"></circle>
<circle cx="5901.72" cy="2194.48" r="4" stroke="rgb(255,0,29)" stroke-width="2" fill="none"></circle>
<circle cx="2620.78" cy="1248.67" r="4" stroke="rgb(0,255,220)" stroke-width="2" fill="none"></circle>
<circle cx="6446.73" cy="1134.9" r="4" stroke="rgb(0,255,220)" stroke-width="2" fill="none"></circle>
<circle cx="2418.82" cy="1254.68" r="4" stroke="rgb(255,225,0)" stroke-width="2" fill="none"></circle>
<circle cx="5908.86" cy="2519.51" r="4" stroke="rgb(255,225,0)" stroke-width="2" fill="none"></circle>
<circle cx="1196.75" cy="1327.86" r="4" stroke="rgb(0,76,255)" stroke-width="2" fill="none"></circle>
<circle cx="5973.12" cy="1238.95" r="4" stroke="rgb(0,76,255)" stroke-width="2" fill="none"></circle>
<circle cx="1303.07" cy="1329.39" r="4" stroke="rgb(0,255,216)" stroke-width="2" fill="none"></circle>
<circle cx="6506.82" cy="2570.27" r="4" stroke="rgb(0,255,216)" stroke-width="2" fill="none"></circle>
<circle cx="1283.07" cy="1358.88" r="4" stroke="rgb(33,255,0)" stroke-width="2" fill="none"></circle>
<circle cx="6484.69" cy="2639.68" r="4" stroke="rgb(33,255,0)" stroke-width="2" fill="none"></circle>
<circle cx="1928.29" cy="1386.46" r="4" stroke="rgb(153,0,255)" stroke-width="2" fill="none"></circle>
<circle cx="6513.33" cy="2293.77" r="4" stroke="rgb(153,0,255)" stroke-width="2" fill="none"></circle>
<circle cx="1273.47" cy="1413.05" r="4" stroke="rgb(21,255,0)" stroke-width="2" fill="none"></circle>
<circle cx="6567.63" cy="1803.7" r="4" stroke="rgb(21,255,0)" stroke-width="2" fill="none"></circle>
<circle cx="2601.63" cy="1418.3" r="4" stroke="rgb(255,0,63)" stroke-width="2" fill="none"></circle>
<circle cx="6476.42" cy="2076.13" r="4" stroke="rgb(255,0,63)" stroke-width="2" fill="none"></circle>
<circle cx="2764.99" cy="1440.19" r="4" stroke="rgb(38,0,255)" stroke-width="2" fill="none"></circle>
<circle cx="6585.24" cy="1588.64" r="4" stroke="rgb(38,0,255)" stroke-width="2" fill="none"></circle>
<circle cx="2464.96" cy="1443.77" r="4" stroke="rgb(0,255,191)" stroke-width="2" fill="none"></circle>
<circle cx="5951.96" cy="2363.47" r="4" stroke="rgb(0,255,191)" stroke-width="2" fill="none"></circle>
<circle cx="2760.69" cy="1445.72" r="4" stroke="rgb(0,255,72)" stroke-width="2" fill="none"></circle>
<circle cx="6371.96" cy="1670.63" r="4" stroke="rgb(0,255,72)" stroke-width="2" fill="none"></circle>
<circle cx="2198.82" cy="1449.57" r="4" stroke="rgb(0,255,195)" stroke-width="2" fill="none"></circle>
<circle cx="5907.18" cy="2204.38" r="4" stroke="rgb(0,255,195)" stroke-width="2" fill="none"></circle>
<circle cx="2178.01" cy="1463.84" r="4" stroke="rgb(0,255,93)" stroke-width="2" fill="none"></circle>
<circle cx="5986.94" cy="2288.48" r="4" stroke="rgb(0,255,93)" stroke-width="2" fill="none"></circle>
<circle cx="1792.24" cy="1471.05" r="4" stroke="rgb(0,165,255)" stroke-width="2" fill="none"></circle>
<circle cx="6449.66" cy="2189.64" r="4" stroke="rgb(0,165,255)" stroke-width="2" fill="none"></circle>
<circle cx="2764.24" cy="1475.2" r="4" stroke="rgb(0,255,212)" stroke-width="2" fill="none"></circle>
<circle cx="6071.29" cy="2425.93" r="4" stroke="rgb(0,255,212)" stroke-width="2" fill="none"></circle>
<circle cx="2159.04" cy="1476.48" r="4" stroke="rgb(225,255,0)" stroke-width="2" fill="none"></circle>
<circle cx="5867.34" cy="2562.44" r="4" stroke="rgb(225,255,0)" stroke-width="2" fill="none"></circle>
<circle cx="1726.15" cy="1490.24" r="4" stroke="rgb(255,0,72)" stroke-width="2" fill="none"></circle>
<circle cx="6051.72" cy="1858.92" r="4" stroke="rgb(255,0,72)" stroke-width="2" fill="none"></circle>
<circle cx="1987.26" cy="1494.28" r="4" stroke="rgb(255,0,76)" stroke-width="2" fill="none"></circle>
<circle cx="5922.53" cy="2211.18" r="4" stroke="rgb(255,0,76)" stroke-width="2" fill="none"></circle>
<circle cx="1299.62" cy="1513.23" r="4" stroke="rgb(16,255,0)" stroke-width="2" fill="none"></circle>
<circle cx="6458.6" cy="2118.2" r="4" stroke="rgb(16,255,0)" stroke-width="2" fill="none"></circle>
<circle cx="1876.62" cy="1514.9" r="4" stroke="rgb(42,255,0)" stroke-width="2" fill="none"></circle>
<circle cx="6403.4" cy="1464.64" r="4" stroke="rgb(42,255,0)" stroke-width="2" fill="none"></circle>
<circle cx="2553.6" cy="1519.87" r="4" stroke="rgb(255,0,242)" stroke-width="2" fill="none"></circle>
<circle cx="6878.17" cy="2422.07" r="4" stroke="rgb(255,0,242)" stroke-width="2" fill="none"></circle>
<circle cx="2446.17" cy="1521.26" r="4" stroke="rgb(29,0,255)" stroke-width="2" fill="none"></circle>
<circle cx="5880.4" cy="2310.63" r="4" stroke="rgb(29,0,255)" stroke-width="2" fill="none"></circle>
<circle cx="1131.14" cy="1525.38" r="4" stroke="rgb(255,0,89)" stroke-width="2" fill="none"></circle>
<circle cx="6489.99" cy="2614.44" r="4" stroke="rgb(255,0,89)" stroke-width="2" fill="none"></circle>
<circle cx="2782.38" cy="1534.9" r="4" stroke="rgb(0,157,255)" stroke-width="2" fill="none"></circle>
<circle cx="6555.06" cy="2204.74" r="4" stroke="rgb(0,157,255)" stroke-width="2" fill="none"></circle>
<circle cx="2817.64" cy="1540.21" r="4" stroke="rgb(255,0,12)" stroke-width="2" fill="none"></circle>
<circle cx="6266.71" cy="1708.04" r="4" stroke="rgb(255,0,12)" stroke-width="2" fill="none"></circle>
<circle cx="1976.63" cy="1543.09" r="4" stroke="rgb(255,68,0)" stroke-width="2" fill="none"></circle>
<circle cx="5911.39" cy="2454.71" r="4" stroke="rgb(255,68,0)" stroke-width="2" fill="none"></circle>
<circle cx="1383.26" cy="1556.98" r="4" stroke="rgb(250,255,0)" stroke-width="2" fill="none"></circle>
<circle cx="6229.28" cy="1237.62" r="4" stroke="rgb(250,255,0)" stroke-width="2" fill="none"></circle>
<circle cx="2749.6" cy="1558.87" r="4" stroke="rgb(106,255,0)" stroke-width="2" fill="none"></circle>
<circle cx="6542.39" cy="2805.81" r="4" stroke="rgb(106,255,0)" stroke-width="2" fill="none"></circle>
<circle cx="1678.08" cy="1570.61" r="4" stroke="rgb(233,255,0)" stroke-width="2" fill="none"></circle>
<circle cx="6007.37" cy="2261.64" r="4" stroke="rgb(233,255,0)" stroke-width="2" fill="none"></circle>
<circle cx="1672.27" cy="1572.28" r="4" stroke="rgb(255,0,225)" stroke-width="2" fill="none"></circle>
<circle cx="6010.37" cy="2256.45" r="4" stroke="rgb(255,0,225)" stroke-width="2" fill="none"></circle>
<circle cx="1681.89" cy="1575.81" r="4" stroke="rgb(255,0,169)" stroke-width="2" fill="none"></circle>
<circle cx="6000.91" cy="2259.25" r="4" stroke="rgb(255,0,169)" stroke-width="2" fill="none"></circle>
<circle cx="2770.04" cy="1581.2" r="4" stroke="rgb(46,255,0)" stroke-width="2" fill="none"></circle>
<circle cx="6585.5" cy="2222.01" r="4" stroke="rgb(46,255,0)" stroke-width="2" fill="none"></circle>
<circle cx="1655.67" cy="1588.62" r="4" stroke="rgb(0,33,255)" stroke-width="2" fill="none"></circle>
<circle cx="5907.87" cy="2256.96" r="4" stroke="rgb(0,33,255)" stroke-width="2" fill="none"></circle>
<circle cx="2798.45" cy="1592.07" r="4" stroke="rgb(0,242,255)" stroke-width="2" fill="none"></circle>
<circle cx="6396.41" cy="2470.98" r="4" stroke="rgb(0,242,255)" stroke-width="2" fill="none"></circle>
<circle cx="1669.39" cy="1597.58" r="4" stroke="rgb(174,0,255)" stroke-width="2" fill="none"></circle>
<circle cx="5896.63" cy="2256.72" r="4" stroke="rgb(174,0,255)" stroke-width="2" fill="none"></circle>
<circle cx="1437.57" cy="1605.13" r="4" stroke="rgb(255,0,68)" stroke-width="2" fill="none"></circle>
<circle cx="6155.44" cy="1796.99" r="4" stroke="rgb(255,0,68)" stroke-width="2" fill="none"></circle>
<circle cx="2766.32" cy="1613.62" r="4" stroke="rgb(89,255,0)" stroke-width="2" fill="none"></circle>
<circle cx="6524.47" cy="2233.67" r="4" stroke="rgb(89,255,0)" stroke-width="2" fill="none"></circle>
<circle cx="2563.34" cy="1621.65" r="4" stroke="rgb(255,153,0)" stroke-width="2" fill="none"></circle>
<circle cx="6594.12" cy="2118.61" r="4" stroke="rgb(255,153,0)" stroke-width="2" fill="none"></circle>
<circle cx="2584.62" cy="1631.19" r="4" stroke="rgb(255,0,131)" stroke-width="2" fill="none"></circle>
<circle cx="5796.32" cy="2575.49" r="4" stroke="rgb(255,0,131)" stroke-width="2" fill="none"></circle>
<circle cx="2133.97" cy="1651.76" r="4" stroke="rgb(0,85,255)" stroke-width="2" fill="none"></circle>
<circle cx="7020.21" cy="1812.66" r="4" stroke="rgb(0,85,255)" stroke-width="2" fill="none"></circle>
<circle cx="1658.92" cy="1666.85" r="4" stroke="rgb(199,255,0)" stroke-width="2" fill="none"></circle>
<circle cx="5845.9" cy="2286.73" r="4" stroke="rgb(199,255,0)" stroke-width="2" fill="none"></circle>
<circle cx="2641.4" cy="1676.38" r="4" stroke="rgb(59,255,0)" stroke-width="2" fill="none"></circle>
<circle cx="6946.87" cy="1485.14" r="4" stroke="rgb(59,255,0)" stroke-width="2" fill="none"></circle>
<circle cx="1708.59" cy="1703.43" r="4" stroke="rgb(76,0,255)" stroke-width="2" fill="none"></circle>
<circle cx="6940.52" cy="1449.22" r="4" stroke="rgb(76,0,255)" stroke-width="2" fill="none"></circle>
<circle cx="1359.04" cy="1722.15" r="4" stroke="rgb(0,106,255)" stroke-width="2" fill="none"></circle>
<circle cx="7069.98" cy="1544.68" r="4" stroke="rgb(0,106,255)" stroke-width="2" fill="none"></circle>
<circle cx="1134.5" cy="1737.97" r="4" stroke="rgb(0,255,250)" stroke-width="2" fill="none"></circle>
<circle cx="6189.55" cy="2488.84" r="4" stroke="rgb(0,255,250)" stroke-width="2" fill="none"></circle>
<circle cx="1104.05" cy="1739.47" r="4" stroke="rgb(221,255,0)" stroke-width="2" fill="none"></circle>
<circle cx="6189.55" cy="2488.84" r="4" stroke="rgb(221,255,0)" stroke-width="2" fill="none"></circle>
<circle cx="1139.37" cy="1740.16" r="4" stroke="rgb(0,255,144)" stroke-width="2" fill="none"></circle>
<circle cx="6416.8" cy="1573.28" r="4" stroke="rgb(0,255,144)" stroke-width="2" fill="none"></circle>
<circle cx="2528.01" cy="1778.59" r="4" stroke="rgb(0,255,178)" stroke-width="2" fill="none"></circle>
<circle cx="5854.84" cy="2372.83" r="4" stroke="rgb(0,255,178)" stroke-width="2" fill="none"></circle>
<circle cx="1959.46" cy="1788.75" r="4" stroke="rgb(178,0,255)" stroke-width="2" fill="none"></circle>
<circle cx="6061.06" cy="1225.94" r="4" stroke="rgb(178,0,255)" stroke-width="2" fill="none"></circle>
<circle cx="1585.53" cy="1796.72" r="4" stroke="rgb(0,255,93)" stroke-width="2" fill="none"></circle>
<circle cx="5897.73" cy="2199.39" r="4" stroke="rgb(0,255,93)" stroke-width="2" fill="none"></circle>
<circle cx="2510.88" cy="1821.97" r="4" stroke="rgb(135,0,255)" stroke-width="2" fill="none"></circle>
<circle cx="5853.34" cy="2517.35" r="4" stroke="rgb(135,0,255)" stroke-width="2" fill="none"></circle>
<circle cx="2733.82" cy="1844.07" r="4" stroke="rgb(0,63,255)" stroke-width="2" fill="none"></circle>
<circle cx="6839.69" cy="2297.45" r="4" stroke="rgb(0,63,255)" stroke-width="2" fill="none"></circle>
<circle cx="2219.56" cy="1879.57" r="4" stroke="rgb(89,0,255)" stroke-width="2" fill="none"></circle>
<circle cx="5934.75" cy="1832.92" r="4" stroke="rgb(89,0,255)" stroke-width="2" fill="none"></circle>
<circle cx="1491.15" cy="1929.63" r="4" stroke="rgb(0,255,16)" stroke-width="2" fill="none"></circle>
<circle cx="6853.56" cy="2668.62" r="4" stroke="rgb(0,255,16)" stroke-width="2" fill="none"></circle>
<circle cx="2527.66" cy="1944.54" r="4" stroke="rgb(254,0,255)" stroke-width="2" fill="none"></circle>
<circle cx="6659.32" cy="1792.57" r="4" stroke="rgb(254,0,255)" stroke-width="2" fill="none"></circle>
<circle cx="855.529" cy="1946.09" r="4" stroke="rgb(80,0,255)" stroke-width="2" fill="none"></circle>
<circle cx="6495.44" cy="2382.17" r="4" stroke="rgb(80,0,255)" stroke-width="2" fill="none"></circle>
<circle cx="1746.38" cy="1949.1" r="4" stroke="rgb(0,255,84)" stroke-width="2" fill="none"></circle>
<circle cx="6659.32" cy="1792.57" r="4" stroke="rgb(0,255,84)" stroke-width="2" fill="none"></circle>
<circle cx="1493.52" cy="1949.18" r="4" stroke="rgb(255,4,0)" stroke-width="2" fill="none"></circle>
<circle cx="5952.24" cy="2371.84" r="4" stroke="rgb(255,4,0)" stroke-width="2" fill="none"></circle>
<circle cx="1675.78" cy="1973.73" r="4" stroke="rgb(0,59,255)" stroke-width="2" fill="none"></circle>
<circle cx="6027.64" cy="1924.05" r="4" stroke="rgb(0,59,255)" stroke-width="2" fill="none"></circle>
<circle cx="2178.88" cy="1979.92" r="4" stroke="rgb(182,255,0)" stroke-width="2" fill="none"></circle>
<circle cx="6503.77" cy="2434.13" r="4" stroke="rgb(182,255,0)" stroke-width="2" fill="none"></circle>
<circle cx="1315.41" cy="1981.53" r="4" stroke="rgb(255,0,221)" stroke-width="2" fill="none"></circle>
<circle cx="6469.3" cy="1499.07" r="4" stroke="rgb(255,0,221)" stroke-width="2" fill="none"></circle>
<circle cx="1621.59" cy="1996.75" r="4" stroke="rgb(0,229,255)" stroke-width="2" fill="none"></circle>
<circle cx="6135.84" cy="2140.1" r="4" stroke="rgb(0,229,255)" stroke-width="2" fill="none"></circle>
<circle cx="1518.4" cy="2013.84" r="4" stroke="rgb(0,225,255)" stroke-width="2" fill="none"></circle>
<circle cx="6884.86" cy="1346.42" r="4" stroke="rgb(0,225,255)" stroke-width="2" fill="none"></circle>
<circle cx="2321.17" cy="2030.62" r="4" stroke="rgb(0,255,254)" stroke-width="2" fill="none"></circle>
<circle cx="5941.88" cy="1791.14" r="4" stroke="rgb(0,255,254)" stroke-width="2" fill="none"></circle>
<circle cx="1867.88" cy="2031.44" r="4" stroke="rgb(4,0,255)" stroke-width="2" fill="none"></circle>
<circle cx="5961.05" cy="2381.21" r="4" stroke="rgb(4,0,255)" stroke-width="2" fill="none"></circle>
<circle cx="1427.56" cy="2037.99" r="4" stroke="rgb(51,255,0)" stroke-width="2" fill="none"></circle>
<circle cx="6486.34" cy="1520.44" r="4" stroke="rgb(51,255,0)" stroke-width="2" fill="none"></circle>
<circle cx="1649.09" cy="2038.19" r="4" stroke="rgb(0,255,186)" stroke-width="2" fill="none"></circle>
<circle cx="5948.34" cy="1835.28" r="4" stroke="rgb(0,255,186)" stroke-width="2" fill="none"></circle>
<circle cx="1669.63" cy="2044.08" r="4" stroke="rgb(0,119,255)" stroke-width="2" fill="none"></circle>
<circle cx="6386.99" cy="1196.01" r="4" stroke="rgb(0,119,255)" stroke-width="2" fill="none"></circle>
<circle cx="1132.03" cy="2048.04" r="4" stroke="rgb(0,255,101)" stroke-width="2" fill="none"></circle>
<circle cx="6619.92" cy="2378.69" r="4" stroke="rgb(0,255,101)" stroke-width="2" fill="none"></circle>
<circle cx="1129.07" cy="2058.03" r="4" stroke="rgb(255,21,0)" stroke-width="2" fill="none"></circle>
<circle cx="6721.84" cy="2076.1" r="4" stroke="rgb(255,21,0)" stroke-width="2" fill="none"></circle>
<circle cx="1918.97" cy="2059.37" r="4" stroke="rgb(199,255,0)" stroke-width="2" fill="none"></circle>
<circle cx="7089.24" cy="1992.06" r="4" stroke="rgb(199,255,0)" stroke-width="2" fill="none"></circle>
<circle cx="2372.5" cy="2061.86" r="4" stroke="rgb(0,97,255)" stroke-width="2" fill="none"></circle>
<circle cx="6843.51" cy="2686.34" r="4" stroke="rgb(0,97,255)" stroke-width="2" fill="none"></circle>
<circle cx="2396.06" cy="2074.7" r="4" stroke="rgb(255,0,68)" stroke-width="2" fill="none"></circle>
<circle cx="5767.08" cy="2577.18" r="4" stroke="rgb(255,0,68)" stroke-width="2" fill="none"></circle>
<circle cx="1651.35" cy="2077.43" r="4" stroke="rgb(255,0,123)" stroke-width="2" fill="none"></circle>
<circle cx="5969.29" cy="1798.3" r="4" stroke="rgb(255,0,123)" stroke-width="2" fill="none"></circle>
<circle cx="1699.58" cy="2088.9" r="4" stroke="rgb(255,0,233)" stroke-width="2" fill="none"></circle>
<circle cx="6872.92" cy="2433.39" r="4" stroke="rgb(255,0,233)" stroke-width="2" fill="none"></circle>
<circle cx="953.95" cy="2090.46" r="4" stroke="rgb(0,255,182)" stroke-width="2" fill="none"></circle>
<circle cx="6560.87" cy="1981.59" r="4" stroke="rgb(0,255,182)" stroke-width="2" fill="none"></circle>
<circle cx="2041.23" cy="2103.23" r="4" stroke="rgb(135,0,255)" stroke-width="2" fill="none"></circle>
<circle cx="6175.11" cy="1223.67" r="4" stroke="rgb(135,0,255)" stroke-width="2" fill="none"></circle>
<circle cx="2339.73" cy="2125.9" r="4" stroke="rgb(255,0,123)" stroke-width="2" fill="none"></circle>
<circle cx="6953.26" cy="1376.01" r="4" stroke="rgb(255,0,123)" stroke-width="2" fill="none"></circle>
<circle cx="1857.63" cy="2141.54" r="4" stroke="rgb(255,0,144)" stroke-width="2" fill="none"></circle>
<circle cx="7002.15" cy="1567.89" r="4" stroke="rgb(255,0,144)" stroke-width="2" fill="none"></circle>
<circle cx="1111.07" cy="2174.51" r="4" stroke="rgb(0,195,255)" stroke-width="2" fill="none"></circle>
<circle cx="6899.19" cy="2417.88" r="4" stroke="rgb(0,195,255)" stroke-width="2" fill="none"></circle>
<circle cx="1662.82" cy="2184.66" r="4" stroke="rgb(25,255,0)" stroke-width="2" fill="none"></circle>
<circle cx="6776.45" cy="2761.34" r="4" stroke="rgb(25,255,0)" stroke-width="2" fill="none"></circle>
<circle cx="1142.01" cy="2236.86" r="4" stroke="rgb(42,255,0)" stroke-width="2" fill="none"></circle>
<circle cx="6815.32" cy="2688.36" r="4" stroke="rgb(42,255,0)" stroke-width="2" fill="none"></circle>
</svg>