<?xml version="1.0" standalone="yes"?>
<!-- SVG graphic -->
<svg xmlns='http://www.w3.org/2000/svg' xmlns:xlink='http://www.w3.org/1999/xlink'
width="8064px" height="3024px" preserveAspectRatio="xMinYMin meet" viewBox="0 0 8064 3024" version="1.1">
<image x="0" y="0" width="4032px" height="3024px" opacity="1" xlink:href="/home/jeong/Code/2D-to-3D-Modeling-using-AI/Make3D/Image/20200227_180618.jpg"/>
<image x="4032" y="0" width="4032px" height="3024px" opacity="1" xlink:href="/home/jeong/Code/2D-to-3D-Modeling-using-AI/Make3D/Image/20200227_180648.jpg"/>
<polyline points="1547.34,294.271,6873.21,1889.51" stroke="rgb(255,182,0)" stroke-width="2" fill="none"></polyline>
<polyline points="1386.38,382.473,5709.72,983.544" stroke="rgb(255,144,0)" stroke-width="2" fill="none"></polyline>
<polyline points="1199.68,397.816,6393.12,1987.53" stroke="rgb(0,255,101)" stroke-width="2" fill="none"></polyline>
<polyline points="1401.48,416.716,5621.48,1047.4" stroke="rgb(0,255,106)" stroke-width="2" fill="none"></polyline>
<polyline points="1244.29,488.841,5517.47,1210.38" stroke="rgb(0,63,255)" stroke-width="2" fill="none"></polyline>
<polyline points="1422.62,500.328,5742.34,992.512" stroke="rgb(0,237,255)" stroke-width="2" fill="none"></polyline>
<polyline points="1799.64,510.597,6487.85,1886.06" stroke="rgb(0,187,255)" stroke-width="2" fill="none"></polyline>
<polyline points="878.825,515.067,5449.96,1299.58" stroke="rgb(0,255,157)" stroke-width="2" fill="none"></polyline>
<polyline points="1395.8,517.189,5746.53,960.468" stroke="rgb(0,255,250)" stroke-width="2" fill="none"></polyline>
<polyline points="854.754,531.378,5647.89,1522.22" stroke="rgb(255,0,127)" stroke-width="2" fill="none"></polyline>
<polyline points="1312.53,542.17,5380.58,890.209" stroke="rgb(0,255,174)" stroke-width="2" fill="none"></polyline>
<polyline points="1292.33,548.226,5365.34,900.643" stroke="rgb(0,114,255)" stroke-width="2" fill="none"></polyline>
<polyline points="1855.11,558.674,6728.49,1425.87" stroke="rgb(0,208,255)" stroke-width="2" fill="none"></polyline>
<polyline points="2065.81,575.09,5877.44,1837.6" stroke="rgb(242,255,0)" stroke-width="2" fill="none"></polyline>
<polyline points="1820.2,579.565,5356.66,898.71" stroke="rgb(0,208,255)" stroke-width="2" fill="none"></polyline>
<polyline points="1802.48,585.825,6012.58,1652.8" stroke="rgb(0,255,229)" stroke-width="2" fill="none"></polyline>
<polyline points="1315.21,592.289,5398.15,921.168" stroke="rgb(29,255,0)" stroke-width="2" fill="none"></polyline>
<polyline points="2294.59,613.661,6861.95,1455.8" stroke="rgb(0,199,255)" stroke-width="2" fill="none"></polyline>
<polyline points="1993.59,616.679,5767.04,978.425" stroke="rgb(148,0,255)" stroke-width="2" fill="none"></polyline>
<polyline points="2163.22,617.073,6119.16,1217.33" stroke="rgb(0,255,174)" stroke-width="2" fill="none"></polyline>
<polyline points="951.435,625.78,6124.21,978.191" stroke="rgb(123,255,0)" stroke-width="2" fill="none"></polyline>
<polyline points="2012.88,634.68,6356.1,1592.5" stroke="rgb(255,17,0)" stroke-width="2" fill="none"></polyline>
<polyline points="972.065,643.364,6027.59,943.85" stroke="rgb(255,68,0)" stroke-width="2" fill="none"></polyline>
<polyline points="986.03,653.29,6120.04,1574.77" stroke="rgb(0,255,16)" stroke-width="2" fill="none"></polyline>
<polyline points="713.2,690.474,5925.89,1279.12" stroke="rgb(0,255,59)" stroke-width="2" fill="none"></polyline>
<polyline points="1352.81,702.879,5611.04,921.213" stroke="rgb(203,255,0)" stroke-width="2" fill="none"></polyline>
<polyline points="1180.32,711.766,6951.12,1826.94" stroke="rgb(0,80,255)" stroke-width="2" fill="none"></polyline>
<polyline points="1840.89,724.778,6477.97,1949.88" stroke="rgb(221,255,0)" stroke-width="2" fill="none"></polyline>
<polyline points="1375.22,728.478,7140.54,1342.14" stroke="rgb(255,0,242)" stroke-width="2" fill="none"></polyline>
<polyline points="2299.51,733.256,6086.68,1501.64" stroke="rgb(255,68,0)" stroke-width="2" fill="none"></polyline>
<polyline points="1459.88,734.035,6757.23,1472.13" stroke="rgb(51,255,0)" stroke-width="2" fill="none"></polyline>
<polyline points="1174.78,755.445,5342.38,1056.43" stroke="rgb(0,93,255)" stroke-width="2" fill="none"></polyline>
<polyline points="1979,758.411,7103.57,1205.4" stroke="rgb(178,0,255)" stroke-width="2" fill="none"></polyline>
<polyline points="1455.33,764.226,5643.59,948.928" stroke="rgb(50,0,255)" stroke-width="2" fill="none"></polyline>
<polyline points="1441.26,789.11,5874.25,1039.06" stroke="rgb(0,17,255)" stroke-width="2" fill="none"></polyline>
<polyline points="1389.23,797.426,7071.49,1292.96" stroke="rgb(255,80,0)" stroke-width="2" fill="none"></polyline>
<polyline points="1399.54,798.095,7116.87,1339.05" stroke="rgb(187,255,0)" stroke-width="2" fill="none"></polyline>
<polyline points="1407.25,907.374,5538.62,1000.61" stroke="rgb(203,255,0)" stroke-width="2" fill="none"></polyline>
<polyline points="1503.75,925.243,5766.97,993.016" stroke="rgb(0,255,242)" stroke-width="2" fill="none"></polyline>
<polyline points="1201.06,932.026,6062.05,1023.86" stroke="rgb(63,0,255)" stroke-width="2" fill="none"></polyline>
<polyline points="1515.1,940.585,6852.56,1948.21" stroke="rgb(148,0,255)" stroke-width="2" fill="none"></polyline>
<polyline points="1432.97,954.696,5559.5,906.835" stroke="rgb(0,127,255)" stroke-width="2" fill="none"></polyline>
<polyline points="1516.71,962.587,7147.5,1318.39" stroke="rgb(255,0,80)" stroke-width="2" fill="none"></polyline>
<polyline points="2444.1,982.935,6416.85,897.681" stroke="rgb(59,255,0)" stroke-width="2" fill="none"></polyline>
<polyline points="1248.31,995.105,5640.17,973.26" stroke="rgb(140,0,255)" stroke-width="2" fill="none"></polyline>
<polyline points="1433.34,1035.7,5666.14,1075.13" stroke="rgb(0,255,220)" stroke-width="2" fill="none"></polyline>
<polyline points="1528.18,1037.73,6306.82,1510.78" stroke="rgb(170,0,255)" stroke-width="2" fill="none"></polyline>
<polyline points="1563.05,1055.46,5704.2,976.831" stroke="rgb(80,0,255)" stroke-width="2" fill="none"></polyline>
<polyline points="1476.67,1074.98,5109.65,1472.54" stroke="rgb(0,12,255)" stroke-width="2" fill="none"></polyline>
<polyline points="2545.01,1075.71,6610.05,1985.76" stroke="rgb(0,191,255)" stroke-width="2" fill="none"></polyline>
<polyline points="1121.14,1078.15,6184.85,1619.09" stroke="rgb(255,255,0)" stroke-width="2" fill="none"></polyline>
<polyline points="1991.79,1092.49,7269.47,1605.86" stroke="rgb(0,165,255)" stroke-width="2" fill="none"></polyline>
<polyline points="2104.46,1096.96,6356,814.582" stroke="rgb(208,255,0)" stroke-width="2" fill="none"></polyline>
<polyline points="1267.22,1108.5,5524.15,1232.1" stroke="rgb(182,255,0)" stroke-width="2" fill="none"></polyline>
<polyline points="1363.66,1114.89,5572.92,1184.43" stroke="rgb(255,0,148)" stroke-width="2" fill="none"></polyline>
<polyline points="1354.51,1129.68,5652.24,960.312" stroke="rgb(182,255,0)" stroke-width="2" fill="none"></polyline>
<polyline points="2495.9,1152.68,6563.22,1277.88" stroke="rgb(255,89,0)" stroke-width="2" fill="none"></polyline>
<polyline points="2647.22,1163.33,6283.75,1890.7" stroke="rgb(0,229,255)" stroke-width="2" fill="none"></polyline>
<polyline points="1227.98,1172.2,6401.39,896.423" stroke="rgb(0,255,106)" stroke-width="2" fill="none"></polyline>
<polyline points="1489.1,1190.95,5847.02,1054.78" stroke="rgb(0,182,255)" stroke-width="2" fill="none"></polyline>
<polyline points="2005.71,1208.23,5578.38,1320.53" stroke="rgb(191,255,0)" stroke-width="2" fill="none"></polyline>
<polyline points="1506.14,1209.26,5868.22,1062.41" stroke="rgb(55,0,255)" stroke-width="2" fill="none"></polyline>
<polyline points="2154.97,1227.45,6718.59,1820.34" stroke="rgb(255,233,0)" stroke-width="2" fill="none"></polyline>
<polyline points="1529.43,1261.5,7161.23,1261.78" stroke="rgb(255,0,12)" stroke-width="2" fill="none"></polyline>
<polyline points="1548.2,1268.91,5760.69,1050.25" stroke="rgb(0,255,110)" stroke-width="2" fill="none"></polyline>
<polyline points="1854.03,1330.42,6166.72,1912.67" stroke="rgb(216,0,255)" stroke-width="2" fill="none"></polyline>
<polyline points="1547.48,1334.66,5424.68,1146.79" stroke="rgb(255,72,0)" stroke-width="2" fill="none"></polyline>
<polyline points="1633.99,1356.94,7046.8,1357.54" stroke="rgb(0,76,255)" stroke-width="2" fill="none"></polyline>
<polyline points="1653.09,1357.92,5990.27,1927.43" stroke="rgb(0,17,255)" stroke-width="2" fill="none"></polyline>
<polyline points="1860.72,1384.01,6000.9,918.307" stroke="rgb(229,255,0)" stroke-width="2" fill="none"></polyline>
<polyline points="2603.2,1389.22,7304.25,1666.19" stroke="rgb(255,0,42)" stroke-width="2" fill="none"></polyline>
<polyline points="1617.58,1406.9,7081.46,1434.64" stroke="rgb(0,255,131)" stroke-width="2" fill="none"></polyline>
<polyline points="1745.54,1413.13,5923.22,980.844" stroke="rgb(153,0,255)" stroke-width="2" fill="none"></polyline>
<polyline points="1633.82,1416.34,5417.13,934.806" stroke="rgb(0,157,255)" stroke-width="2" fill="none"></polyline>
<polyline points="1442.95,1418.32,5945.5,848.522" stroke="rgb(72,0,255)" stroke-width="2" fill="none"></polyline>
<polyline points="1645.7,1420.29,5840.34,1022.8" stroke="rgb(250,255,0)" stroke-width="2" fill="none"></polyline>
<polyline points="1644.92,1445.43,5854.71,1043.99" stroke="rgb(29,0,255)" stroke-width="2" fill="none"></polyline>
<polyline points="1666.19,1455.42,5682.52,1025.18" stroke="rgb(255,208,0)" stroke-width="2" fill="none"></polyline>
<polyline points="1730.42,1455.92,5929.38,1016.7" stroke="rgb(0,203,255)" stroke-width="2" fill="none"></polyline>
<polyline points="1653.63,1459.16,5868.4,1049.38" stroke="rgb(0,255,21)" stroke-width="2" fill="none"></polyline>
<polyline points="1326.17,1466.91,5635.97,1177.9" stroke="rgb(16,255,0)" stroke-width="2" fill="none"></polyline>
<polyline points="1645.55,1471.93,5925.81,1091.49" stroke="rgb(55,0,255)" stroke-width="2" fill="none"></polyline>
<polyline points="2334.7,1522.95,5631.69,1820.57" stroke="rgb(0,178,255)" stroke-width="2" fill="none"></polyline>
<polyline points="2026.99,1530.71,7063.32,1394.72" stroke="rgb(0,225,255)" stroke-width="2" fill="none"></polyline>
<polyline points="2021.43,1536.44,5970.02,1818.39" stroke="rgb(0,161,255)" stroke-width="2" fill="none"></polyline>
<polyline points="2681.02,1539.43,7162.96,1445.48" stroke="rgb(0,255,182)" stroke-width="2" fill="none"></polyline>
<polyline points="2711.29,1547.4,7168.44,1439.81" stroke="rgb(0,255,67)" stroke-width="2" fill="none"></polyline>
<polyline points="2164.37,1560.36,6768.11,845.128" stroke="rgb(0,72,255)" stroke-width="2" fill="none"></polyline>
<polyline points="1591.78,1569.1,5790.04,1018.62" stroke="rgb(0,80,255)" stroke-width="2" fill="none"></polyline>
<polyline points="2512.24,1607.29,6774.49,893.646" stroke="rgb(174,0,255)" stroke-width="2" fill="none"></polyline>
<polyline points="2188.64,1625,6341.68,1917.96" stroke="rgb(221,0,255)" stroke-width="2" fill="none"></polyline>
<polyline points="1981.77,1627.04,6520.56,1096.21" stroke="rgb(238,0,255)" stroke-width="2" fill="none"></polyline>
<polyline points="2129.69,1629.26,6732.6,1360.53" stroke="rgb(255,195,0)" stroke-width="2" fill="none"></polyline>
<polyline points="2138.21,1629.36,6326.59,850.353" stroke="rgb(0,85,255)" stroke-width="2" fill="none"></polyline>
<polyline points="2377.65,1632.82,6349.13,950.256" stroke="rgb(229,0,255)" stroke-width="2" fill="none"></polyline>
<polyline points="2152.86,1643.4,5975.81,1943.39" stroke="rgb(0,203,255)" stroke-width="2" fill="none"></polyline>
<polyline points="2684.61,1647.15,6803.11,1469.9" stroke="rgb(255,97,0)" stroke-width="2" fill="none"></polyline>
<polyline points="1969.9,1653.18,6767.64,1409.94" stroke="rgb(0,242,255)" stroke-width="2" fill="none"></polyline>
<polyline points="2383.11,1656.42,5161.67,1132.52" stroke="rgb(199,0,255)" stroke-width="2" fill="none"></polyline>
<polyline points="1965.77,1661.59,6713.43,1341.01" stroke="rgb(80,0,255)" stroke-width="2" fill="none"></polyline>
<polyline points="1973.63,1667.04,6548.69,1224.52" stroke="rgb(0,255,4)" stroke-width="2" fill="none"></polyline>
<polyline points="1973.3,1668.18,6612.01,1302.5" stroke="rgb(0,255,123)" stroke-width="2" fill="none"></polyline>
<polyline points="2464.52,1676.88,5387.35,881.359" stroke="rgb(255,212,0)" stroke-width="2" fill="none"></polyline>
<polyline points="1966.12,1691.27,6530.11,1229.28" stroke="rgb(123,0,255)" stroke-width="2" fill="none"></polyline>
<polyline points="2018.46,1699.09,7048.63,1343.93" stroke="rgb(255,0,33)" stroke-width="2" fill="none"></polyline>
<polyline points="2001.41,1700.84,6734.48,1366.56" stroke="rgb(255,0,225)" stroke-width="2" fill="none"></polyline>
<polyline points="2007.99,1712.01,6693.88,1428.95" stroke="rgb(255,0,127)" stroke-width="2" fill="none"></polyline>
<polyline points="1974.88,1712.19,6408.58,1029.17" stroke="rgb(0,4,255)" stroke-width="2" fill="none"></polyline>
<polyline points="2016.19,1715.29,6400.2,1056.92" stroke="rgb(0,51,255)" stroke-width="2" fill="none"></polyline>
<polyline points="1993.6,1723.03,5168.11,1047.12" stroke="rgb(0,255,182)" stroke-width="2" fill="none"></polyline>
<polyline points="1977.21,1725.7,6709.64,1286.55" stroke="rgb(0,17,255)" stroke-width="2" fill="none"></polyline>
<polyline points="1928.45,1728.74,5895.52,814.462" stroke="rgb(255,0,68)" stroke-width="2" fill="none"></polyline>
<polyline points="2022,1729.01,6726.71,1361.87" stroke="rgb(203,0,255)" stroke-width="2" fill="none"></polyline>
<polyline points="2161.47,1729.66,6335.23,787.769" stroke="rgb(195,255,0)" stroke-width="2" fill="none"></polyline>
<polyline points="2030.72,1730.28,6578.72,1175.38" stroke="rgb(255,182,0)" stroke-width="2" fill="none"></polyline>
<polyline points="1800.26,1736.13,5031.69,1182.11" stroke="rgb(0,255,42)" stroke-width="2" fill="none"></polyline>
<polyline points="1991.07,1742.08,6578.13,1182.3" stroke="rgb(0,12,255)" stroke-width="2" fill="none"></polyline>
<polyline points="2026.07,1742.69,6507.77,1124.92" stroke="rgb(0,255,250)" stroke-width="2" fill="none"></polyline>
<polyline points="2035.91,1746.26,6317.6,998.449" stroke="rgb(0,63,255)" stroke-width="2" fill="none"></polyline>
<polyline points="2003.21,1759.14,5957.54,1765.54" stroke="rgb(89,255,0)" stroke-width="2" fill="none"></polyline>
<polyline points="1163.64,1775.72,5982.71,1674.02" stroke="rgb(84,255,0)" stroke-width="2" fill="none"></polyline>
<polyline points="2683.46,1776.08,7155.44,1072.11" stroke="rgb(0,255,161)" stroke-width="2" fill="none"></polyline>
<polyline points="1204.97,1827.32,6410.09,901.292" stroke="rgb(114,0,255)" stroke-width="2" fill="none"></polyline>
<polyline points="1780.89,1871.98,5991.13,1079.4" stroke="rgb(255,80,0)" stroke-width="2" fill="none"></polyline>
<polyline points="2066.87,1878.74,6375.16,986.915" stroke="rgb(42,0,255)" stroke-width="2" fill="none"></polyline>
<polyline points="2011.9,1907.59,6636.62,1397.22" stroke="rgb(199,255,0)" stroke-width="2" fill="none"></polyline>
<polyline points="2297.72,1953.79,6004.57,1847.23" stroke="rgb(157,255,0)" stroke-width="2" fill="none"></polyline>
<polyline points="2005.6,1954.03,6791.61,1449.41" stroke="rgb(140,0,255)" stroke-width="2" fill="none"></polyline>
<polyline points="2011.04,1969.6,6730.38,1352.5" stroke="rgb(67,0,255)" stroke-width="2" fill="none"></polyline>
<polyline points="1974.2,1984.12,6624.5,1378.11" stroke="rgb(255,42,0)" stroke-width="2" fill="none"></polyline>
<polyline points="2434.93,1987.82,5724.29,1055.25" stroke="rgb(0,255,225)" stroke-width="2" fill="none"></polyline>
<polyline points="2323.55,1987.83,6049.1,1720.95" stroke="rgb(38,0,255)" stroke-width="2" fill="none"></polyline>
<polyline points="2016.27,2005.93,6673.79,1406.64" stroke="rgb(255,131,0)" stroke-width="2" fill="none"></polyline>
<polyline points="2097.29,2018.85,5019.14,1345.37" stroke="rgb(0,72,255)" stroke-width="2" fill="none"></polyline>
<polyline points="2438.06,2091.24,6594.37,1861.43" stroke="rgb(0,255,161)" stroke-width="2" fill="none"></polyline>
<polyline points="2440.93,2107.79,6588.89,1186.02" stroke="rgb(255,97,0)" stroke-width="2" fill="none"></polyline>
<polyline points="2445.65,2122.74,7282.21,1588.14" stroke="rgb(255,182,0)" stroke-width="2" fill="none"></polyline>
<polyline points="2392.77,2179.73,7271.05,1638.66" stroke="rgb(0,255,38)" stroke-width="2" fill="none"></polyline>
<polyline points="1506.83,2284.14,6025.05,931.827" stroke="rgb(0,255,63)" stroke-width="2" fill="none"></polyline>
<polyline points="1855.98,2329.1,6719.88,1257.02" stroke="rgb(131,0,255)" stroke-width="2" fill="none"></polyline>
<polyline points="925.377,2365.63,5848.23,1085.84" stroke="rgb(0,255,186)" stroke-width="2" fill="none"></polyline>
<polyline points="896.604,2427.34,6003.46,773.417" stroke="rgb(255,46,0)" stroke-width="2" fill="none"></polyline>
<circle cx="1547.34" cy="294.271" r="4" stroke="rgb(255,182,0)" stroke-width="2" fill="none"></circle>
<circle cx="6873.21" cy="1889.51" r="4" stroke="rgb(255,182,0)" stroke-width="2" fill="none"></circle>
<circle cx="1386.38" cy="382.473" r="4" stroke="rgb(255,144,0)" stroke-width="2" fill="none"></circle>
<circle cx="5709.72" cy="983.544" r="4" stroke="rgb(255,144,0)" stroke-width="2" fill="none"></circle>
<circle cx="1199.68" cy="397.816" r="4" stroke="rgb(0,255,101)" stroke-width="2" fill="none"></circle>
<circle cx="6393.12" cy="1987.53" r="4" stroke="rgb(0,255,101)" stroke-width="2" fill="none"></circle>
<circle cx="1401.48" cy="416.716" r="4" stroke="rgb(0,255,106)" stroke-width="2" fill="none"></circle>
<circle cx="5621.48" cy="1047.4" r="4" stroke="rgb(0,255,106)" stroke-width="2" fill="none"></circle>
<circle cx="1244.29" cy="488.841" r="4" stroke="rgb(0,63,255)" stroke-width="2" fill="none"></circle>
<circle cx="5517.47" cy="1210.38" r="4" stroke="rgb(0,63,255)" stroke-width="2" fill="none"></circle>
<circle cx="1422.62" cy="500.328" r="4" stroke="rgb(0,237,255)" stroke-width="2" fill="none"></circle>
<circle cx="5742.34" cy="992.512" r="4" stroke="rgb(0,237,255)" stroke-width="2" fill="none"></circle>
<circle cx="1799.64" cy="510.597" r="4" stroke="rgb(0,187,255)" stroke-width="2" fill="none"></circle>
<circle cx="6487.85" cy="1886.06" r="4" stroke="rgb(0,187,255)" stroke-width="2" fill="none"></circle>
<circle cx="878.825" cy="515.067" r="4" stroke="rgb(0,255,157)" stroke-width="2" fill="none"></circle>
<circle cx="5449.96" cy="1299.58" r="4" stroke="rgb(0,255,157)" stroke-width="2" fill="none"></circle>
<circle cx="1395.8" cy="517.189" r="4" stroke="rgb(0,255,250)" stroke-width="2" fill="none"></circle>
<circle cx="5746.53" cy="960.468" r="4" stroke="rgb(0,255,250)" stroke-width="2" fill="none"></circle>
<circle cx="854.754" cy="531.378" r="4" stroke="rgb(255,0,127)" stroke-width="2" fill="none"></circle>
<circle cx="5647.89" cy="1522.22" r="4" stroke="rgb(255,0,127)" stroke-width="2" fill="none"></circle>
<circle cx="1312.53" cy="542.17" r="4" stroke="rgb(0,255,174)" stroke-width="2" fill="none"></circle>
<circle cx="5380.58" cy="890.209" r="4" stroke="rgb(0,255,174)" stroke-width="2" fill="none"></circle>
<circle cx="1292.33" cy="548.226" r="4" stroke="rgb(0,114,255)" stroke-width="2" fill="none"></circle>
<circle cx="5365.34" cy="900.643" r="4" stroke="rgb(0,114,255)" stroke-width="2" fill="none"></circle>
<circle cx="1855.11" cy="558.674" r="4" stroke="rgb(0,208,255)" stroke-width="2" fill="none"></circle>
<circle cx="6728.49" cy="1425.87" r="4" stroke="rgb(0,208,255)" stroke-width="2" fill="none"></circle>
<circle cx="2065.81" cy="575.09" r="4" stroke="rgb(242,255,0)" stroke-width="2" fill="none"></circle>
<circle cx="5877.44" cy="1837.6" r="4" stroke="rgb(242,255,0)" stroke-width="2" fill="none"></circle>
<circle cx="1820.2" cy="579.565" r="4" stroke="rgb(0,208,255)" stroke-width="2" fill="none"></circle>
<circle cx="5356.66" cy="898.71" r="4" stroke="rgb(0,208,255)" stroke-width="2" fill="none"></circle>
<circle cx="1802.48" cy="585.825" r="4" stroke="rgb(0,255,229)" stroke-width="2" fill="none"></circle>
<circle cx="6012.58" cy="1652.8" r="4" stroke="rgb(0,255,229)" stroke-width="2" fill="none"></circle>
<circle cx="1315.21" cy="592.289" r="4" stroke="rgb(29,255,0)" stroke-width="2" fill="none"></circle>
<circle cx="5398.15" cy="921.168" r="4" stroke="rgb(29,255,0)" stroke-width="2" fill="none"></circle>
<circle cx="2294.59" cy="613.661" r="4" stroke="rgb(0,199,255)" stroke-width="2" fill="none"></circle>
<circle cx="6861.95" cy="1455.8" r="4" stroke="rgb(0,199,255)" stroke-width="2" fill="none"></circle>
<circle cx="1993.59" cy="616.679" r="4" stroke="rgb(148,0,255)" stroke-width="2" fill="none"></circle>
<circle cx="5767.04" cy="978.425" r="4" stroke="rgb(148,0,255)" stroke-width="2" fill="none"></circle>
<circle cx="2163.22" cy="617.073" r="4" stroke="rgb(0,255,174)" stroke-width="2" fill="none"></circle>
<circle cx="6119.16" cy="1217.33" r="4" stroke="rgb(0,255,174)" stroke-width="2" fill="none"></circle>
<circle cx="951.435" cy="625.78" r="4" stroke="rgb(123,255,0)" stroke-width="2" fill="none"></circle>
<circle cx="6124.21" cy="978.191" r="4" stroke="rgb(123,255,0)" stroke-width="2" fill="none"></circle>
<circle cx="2012.88" cy="634.68" r="4" stroke="rgb(255,17,0)" stroke-width="2" fill="none"></circle>
<circle cx="6356.1" cy="1592.5" r="4" stroke="rgb(255,17,0)" stroke-width="2" fill="none"></circle>
<circle cx="972.065" cy="643.364" r="4" stroke="rgb(255,68,0)" stroke-width="2" fill="none"></circle>
<circle cx="6027.59" cy="943.85" r="4" stroke="rgb(255,68,0)" stroke-width="2" fill="none"></circle>
<circle cx="986.03" cy="653.29" r="4" stroke="rgb(0,255,16)" stroke-width="2" fill="none"></circle>
<circle cx="6120.04" cy="1574.77" r="4" stroke="rgb(0,255,16)" stroke-width="2" fill="none"></circle>
<circle cx="713.2" cy="690.474" r="4" stroke="rgb(0,255,59)" stroke-width="2" fill="none"></circle>
<circle cx="5925.89" cy="1279.12" r="4" stroke="rgb(0,255,59)" stroke-width="2" fill="none"></circle>
<circle cx="1352.81" cy="702.879" r="4" stroke="rgb(203,255,0)" stroke-width="2" fill="none"></circle>
<circle cx="5611.04" cy="921.213" r="4" stroke="rgb(203,255,0)" stroke-width="2" fill="none"></circle>
<circle cx="1180.32" cy="711.766" r="4" stroke="rgb(0,80,255)" stroke-width="2" fill="none"></circle>
<circle cx="6951.12" cy="1826.94" r="4" stroke="rgb(0,80,255)" stroke-width="2" fill="none"></circle>
<circle cx="1840.89" cy="724.778" r="4" stroke="rgb(221,255,0)" stroke-width="2" fill="none"></circle>
<circle cx="6477.97" cy="1949.88" r="4" stroke="rgb(221,255,0)" stroke-width="2" fill="none"></circle>
<circle cx="1375.22" cy="728.478" r="4" stroke="rgb(255,0,242)" stroke-width="2" fill="none"></circle>
<circle cx="7140.54" cy="1342.14" r="4" stroke="rgb(255,0,242)" stroke-width="2" fill="none"></circle>
<circle cx="2299.51" cy="733.256" r="4" stroke="rgb(255,68,0)" stroke-width="2" fill="none"></circle>
<circle cx="6086.68" cy="1501.64" r="4" stroke="rgb(255,68,0)" stroke-width="2" fill="none"></circle>
<circle cx="1459.88" cy="734.035" r="4" stroke="rgb(51,255,0)" stroke-width="2" fill="none"></circle>
<circle cx="6757.23" cy="1472.13" r="4" stroke="rgb(51,255,0)" stroke-width="2" fill="none"></circle>
<circle cx="1174.78" cy="755.445" r="4" stroke="rgb(0,93,255)" stroke-width="2" fill="none"></circle>
<circle cx="5342.38" cy="1056.43" r="4" stroke="rgb(0,93,255)" stroke-width="2" fill="none"></circle>
<circle cx="1979" cy="758.411" r="4" stroke="rgb(178,0,255)" stroke-width="2" fill="none"></circle>
<circle cx="7103.57" cy="1205.4" r="4" stroke="rgb(178,0,255)" stroke-width="2" fill="none"></circle>
<circle cx="1455.33" cy="764.226" r="4" stroke="rgb(50,0,255)" stroke-width="2" fill="none"></circle>
<circle cx="5643.59" cy="948.928" r="4" stroke="rgb(50,0,255)" stroke-width="2" fill="none"></circle>
<circle cx="1441.26" cy="789.11" r="4" stroke="rgb(0,17,255)" stroke-width="2" fill="none"></circle>
<circle cx="5874.25" cy="1039.06" r="4" stroke="rgb(0,17,255)" stroke-width="2" fill="none"></circle>
<circle cx="1389.23" cy="797.426" r="4" stroke="rgb(255,80,0)" stroke-width="2" fill="none"></circle>
<circle cx="7071.49" cy="1292.96" r="4" stroke="rgb(255,80,0)" stroke-width="2" fill="none"></circle>
<circle cx="1399.54" cy="798.095" r="4" stroke="rgb(187,255,0)" stroke-width="2" fill="none"></circle>
<circle cx="7116.87" cy="1339.05" r="4" stroke="rgb(187,255,0)" stroke-width="2" fill="none"></circle>
<circle cx="1407.25" cy="907.374" r="4" stroke="rgb(203,255,0)" stroke-width="2" fill="none"></circle>
<circle cx="5538.62" cy="1000.61" r="4" stroke="rgb(203,255,0)" stroke-width="2" fill="none"></circle>
<circle cx="1503.75" cy="925.243" r="4" stroke="rgb(0,255,242)" stroke-width="2" fill="none"></circle>
<circle cx="5766.97" cy="993.016" r="4" stroke="rgb(0,255,242)" stroke-width="2" fill="none"></circle>
<circle cx="1201.06" cy="932.026" r="4" stroke="rgb(63,0,255)" stroke-width="2" fill="none"></circle>
<circle cx="6062.05" cy="1023.86" r="4" stroke="rgb(63,0,255)" stroke-width="2" fill="none"></circle>
<circle cx="1515.1" cy="940.585" r="4" stroke="rgb(148,0,255)" stroke-width="2" fill="none"></circle>
<circle cx="6852.56" cy="1948.21" r="4" stroke="rgb(148,0,255)" stroke-width="2" fill="none"></circle>
<circle cx="1432.97" cy="954.696" r="4" stroke="rgb(0,127,255)" stroke-width="2" fill="none"></circle>
<circle cx="5559.5" cy="906.835" r="4" stroke="rgb(0,127,255)" stroke-width="2" fill="none"></circle>
<circle cx="1516.71" cy="962.587" r="4" stroke="rgb(255,0,80)" stroke-width="2" fill="none"></circle>
<circle cx="7147.5" cy="1318.39" r="4" stroke="rgb(255,0,80)" stroke-width="2" fill="none"></circle>
<circle cx="2444.1" cy="982.935" r="4" stroke="rgb(59,255,0)" stroke-width="2" fill="none"></circle>
<circle cx="6416.85" cy="897.681" r="4" stroke="rgb(59,255,0)" stroke-width="2" fill="none"></circle>
<circle cx="1248.31" cy="995.105" r="4" stroke="rgb(140,0,255)" stroke-width="2" fill="none"></circle>
<circle cx="5640.17" cy="973.26" r="4" stroke="rgb(140,0,255)" stroke-width="2" fill="none"></circle>
<circle cx="1433.34" cy="1035.7" r="4" stroke="rgb(0,255,220)" stroke-width="2" fill="none"></circle>
<circle cx="5666.14" cy="1075.13" r="4" stroke="rgb(0,255,220)" stroke-width="2" fill="none"></circle>
<circle cx="1528.18" cy="1037.73" r="4" stroke="rgb(170,0,255)" stroke-width="2" fill="none"></circle>
<circle cx="6306.82" cy="1510.78" r="4" stroke="rgb(170,0,255)" stroke-width="2" fill="none"></circle>
<circle cx="1563.05" cy="1055.46" r="4" stroke="rgb(80,0,255)" stroke-width="2" fill="none"></circle>
<circle cx="5704.2" cy="976.831" r="4" stroke="rgb(80,0,255)" stroke-width="2" fill="none"></circle>
<circle cx="1476.67" cy="1074.98" r="4" stroke="rgb(0,12,255)" stroke-width="2" fill="none"></circle>
<circle cx="5109.65" cy="1472.54" r="4" stroke="rgb(0,12,255)" stroke-width="2" fill="none"></circle>
<circle cx="2545.01" cy="1075.71" r="4" stroke="rgb(0,191,255)" stroke-width="2" fill="none"></circle>
<circle cx="6610.05" cy="1985.76" r="4" stroke="rgb(0,191,255)" stroke-width="2" fill="none"></circle>
<circle cx="1121.14" cy="1078.15" r="4" stroke="rgb(255,255,0)" stroke-width="2" fill="none"></circle>
<circle cx="6184.85" cy="1619.09" r="4" stroke="rgb(255,255,0)" stroke-width="2" fill="none"></circle>
<circle cx="1991.79" cy="1092.49" r="4" stroke="rgb(0,165,255)" stroke-width="2" fill="none"></circle>
<circle cx="7269.47" cy="1605.86" r="4" stroke="rgb(0,165,255)" stroke-width="2" fill="none"></circle>
<circle cx="2104.46" cy="1096.96" r="4" stroke="rgb(208,255,0)" stroke-width="2" fill="none"></circle>
<circle cx="6356" cy="814.582" r="4" stroke="rgb(208,255,0)" stroke-width="2" fill="none"></circle>
<circle cx="1267.22" cy="1108.5" r="4" stroke="rgb(182,255,0)" stroke-width="2" fill="none"></circle>
<circle cx="5524.15" cy="1232.1" r="4" stroke="rgb(182,255,0)" stroke-width="2" fill="none"></circle>
<circle cx="1363.66" cy="1114.89" r="4" stroke="rgb(255,0,148)" stroke-width="2" fill="none"></circle>
<circle cx="5572.92" cy="1184.43" r="4" stroke="rgb(255,0,148)" stroke-width="2" fill="none"></circle>
<circle cx="1354.51" cy="1129.68" r="4" stroke="rgb(182,255,0)" stroke-width="2" fill="none"></circle>
<circle cx="5652.24" cy="960.312" r="4" stroke="rgb(182,255,0)" stroke-width="2" fill="none"></circle>
<circle cx="2495.9" cy="1152.68" r="4" stroke="rgb(255,89,0)" stroke-width="2" fill="none"></circle>
<circle cx="6563.22" cy="1277.88" r="4" stroke="rgb(255,89,0)" stroke-width="2" fill="none"></circle>
<circle cx="2647.22" cy="1163.33" r="4" stroke="rgb(0,229,255)" stroke-width="2" fill="none"></circle>
<circle cx="6283.75" cy="1890.7" r="4" stroke="rgb(0,229,255)" stroke-width="2" fill="none"></circle>
<circle cx="1227.98" cy="1172.2" r="4" stroke="rgb(0,255,106)" stroke-width="2" fill="none"></circle>
<circle cx="6401.39" cy="896.423" r="4" stroke="rgb(0,255,106)" stroke-width="2" fill="none"></circle>
<circle cx="1489.1" cy="1190.95" r="4" stroke="rgb(0,182,255)" stroke-width="2" fill="none"></circle>
<circle cx="5847.02" cy="1054.78" r="4" stroke="rgb(0,182,255)" stroke-width="2" fill="none"></circle>
<circle cx="2005.71" cy="1208.23" r="4" stroke="rgb(191,255,0)" stroke-width="2" fill="none"></circle>
<circle cx="5578.38" cy="1320.53" r="4" stroke="rgb(191,255,0)" stroke-width="2" fill="none"></circle>
<circle cx="1506.14" cy="1209.26" r="4" stroke="rgb(55,0,255)" stroke-width="2" fill="none"></circle>
<circle cx="5868.22" cy="1062.41" r="4" stroke="rgb(55,0,255)" stroke-width="2" fill="none"></circle>
<circle cx="2154.97" cy="1227.45" r="4" stroke="rgb(255,233,0)" stroke-width="2" fill="none"></circle>
<circle cx="6718.59" cy="1820.34" r="4" stroke="rgb(255,233,0)" stroke-width="2" fill="none"></circle>
<circle cx="1529.43" cy="1261.5" r="4" stroke="rgb(255,0,12)" stroke-width="2" fill="none"></circle>
<circle cx="7161.23" cy="1261.78" r="4" stroke="rgb(255,0,12)" stroke-width="2" fill="none"></circle>
<circle cx="1548.2" cy="1268.91" r="4" stroke="rgb(0,255,110)" stroke-width="2" fill="none"></circle>
<circle cx="5760.69" cy="1050.25" r="4" stroke="rgb(0,255,110)" stroke-width="2" fill="none"></circle>
<circle cx="1854.03" cy="1330.42" r="4" stroke="rgb(216,0,255)" stroke-width="2" fill="none"></circle>
<circle cx="6166.72" cy="1912.67" r="4" stroke="rgb(216,0,255)" stroke-width="2" fill="none"></circle>
<circle cx="1547.48" cy="1334.66" r="4" stroke="rgb(255,72,0)" stroke-width="2" fill="none"></circle>
<circle cx="5424.68" cy="1146.79" r="4" stroke="rgb(255,72,0)" stroke-width="2" fill="none"></circle>
<circle cx="1633.99" cy="1356.94" r="4" stroke="rgb(0,76,255)" stroke-width="2" fill="none"></circle>
<circle cx="7046.8" cy="1357.54" r="4" stroke="rgb(0,76,255)" stroke-width="2" fill="none"></circle>
<circle cx="1653.09" cy="1357.92" r="4" stroke="rgb(0,17,255)" stroke-width="2" fill="none"></circle>
<circle cx="5990.27" cy="1927.43" r="4" stroke="rgb(0,17,255)" stroke-width="2" fill="none"></circle>
<circle cx="1860.72" cy="1384.01" r="4" stroke="rgb(229,255,0)" stroke-width="2" fill="none"></circle>
<circle cx="6000.9" cy="918.307" r="4" stroke="rgb(229,255,0)" stroke-width="2" fill="none"></circle>
<circle cx="2603.2" cy="1389.22" r="4" stroke="rgb(255,0,42)" stroke-width="2" fill="none"></circle>
<circle cx="7304.25" cy="1666.19" r="4" stroke="rgb(255,0,42)" stroke-width="2" fill="none"></circle>
<circle cx="1617.58" cy="1406.9" r="4" stroke="rgb(0,255,131)" stroke-width="2" fill="none"></circle>
<circle cx="7081.46" cy="1434.64" r="4" stroke="rgb(0,255,131)" stroke-width="2" fill="none"></circle>
<circle cx="1745.54" cy="1413.13" r="4" stroke="rgb(153,0,255)" stroke-width="2" fill="none"></circle>
<circle cx="5923.22" cy="980.844" r="4" stroke="rgb(153,0,255)" stroke-width="2" fill="none"></circle>
<circle cx="1633.82" cy="1416.34" r="4" stroke="rgb(0,157,255)" stroke-width="2" fill="none"></circle>
<circle cx="5417.13" cy="934.806" r="4" stroke="rgb(0,157,255)" stroke-width="2" fill="none"></circle>
<circle cx="1442.95" cy="1418.32" r="4" stroke="rgb(72,0,255)" stroke-width="2" fill="none"></circle>
<circle cx="5945.5" cy="848.522" r="4" stroke="rgb(72,0,255)" stroke-width="2" fill="none"></circle>
<circle cx="1645.7" cy="1420.29" r="4" stroke="rgb(250,255,0)" stroke-width="2" fill="none"></circle>
<circle cx="5840.34" cy="1022.8" r="4" stroke="rgb(250,255,0)" stroke-width="2" fill="none"></circle>
<circle cx="1644.92" cy="1445.43" r="4" stroke="rgb(29,0,255)" stroke-width="2" fill="none"></circle>
<circle cx="5854.71" cy="1043.99" r="4" stroke="rgb(29,0,255)" stroke-width="2" fill="none"></circle>
<circle cx="1666.19" cy="1455.42" r="4" stroke="rgb(255,208,0)" stroke-width="2" fill="none"></circle>
<circle cx="5682.52" cy="1025.18" r="4" stroke="rgb(255,208,0)" stroke-width="2" fill="none"></circle>
<circle cx="1730.42" cy="1455.92" r="4" stroke="rgb(0,203,255)" stroke-width="2" fill="none"></circle>
<circle cx="5929.38" cy="1016.7" r="4" stroke="rgb(0,203,255)" stroke-width="2" fill="none"></circle>
<circle cx="1653.63" cy="1459.16" r="4" stroke="rgb(0,255,21)" stroke-width="2" fill="none"></circle>
<circle cx="5868.4" cy="1049.38" r="4" stroke="rgb(0,255,21)" stroke-width="2" fill="none"></circle>
<circle cx="1326.17" cy="1466.91" r="4" stroke="rgb(16,255,0)" stroke-width="2" fill="none"></circle>
<circle cx="5635.97" cy="1177.9" r="4" stroke="rgb(16,255,0)" stroke-width="2" fill="none"></circle>
<circle cx="1645.55" cy="1471.93" r="4" stroke="rgb(55,0,255)" stroke-width="2" fill="none"></circle>
<circle cx="5925.81" cy="1091.49" r="4" stroke="rgb(55,0,255)" stroke-width="2" fill="none"></circle>
<circle cx="2334.7" cy="1522.95" r="4" stroke="rgb(0,178,255)" stroke-width="2" fill="none"></circle>
<circle cx="5631.69" cy="1820.57" r="4" stroke="rgb(0,178,255)" stroke-width="2" fill="none"></circle>
<circle cx="2026.99" cy="1530.71" r="4" stroke="rgb(0,225,255)" stroke-width="2" fill="none"></circle>
<circle cx="7063.32" cy="1394.72" r="4" stroke="rgb(0,225,255)" stroke-width="2" fill="none"></circle>
<circle cx="2021.43" cy="1536.44" r="4" stroke="rgb(0,161,255)" stroke-width="2" fill="none"></circle>
<circle cx="5970.02" cy="1818.39" r="4" stroke="rgb(0,161,255)" stroke-width="2" fill="none"></circle>
<circle cx="2681.02" cy="1539.43" r="4" stroke="rgb(0,255,182)" stroke-width="2" fill="none"></circle>
<circle cx="7162.96" cy="1445.48" r="4" stroke="rgb(0,255,182)" stroke-width="2" fill="none"></circle>
<circle cx="2711.29" cy="1547.4" r="4" stroke="rgb(0,255,67)" stroke-width="2" fill="none"></circle>
<circle cx="7168.44" cy="1439.81" r="4" stroke="rgb(0,255,67)" stroke-width="2" fill="none"></circle>
<circle cx="2164.37" cy="1560.36" r="4" stroke="rgb(0,72,255)" stroke-width="2" fill="none"></circle>
<circle cx="6768.11" cy="845.128" r="4" stroke="rgb(0,72,255)" stroke-width="2" fill="none"></circle>
<circle cx="1591.78" cy="1569.1" r="4" stroke="rgb(0,80,255)" stroke-width="2" fill="none"></circle>
<circle cx="5790.04" cy="1018.62" r="4" stroke="rgb(0,80,255)" stroke-width="2" fill="none"></circle>
<circle cx="2512.24" cy="1607.29" r="4" stroke="rgb(174,0,255)" stroke-width="2" fill="none"></circle>
<circle cx="6774.49" cy="893.646" r="4" stroke="rgb(174,0,255)" stroke-width="2" fill="none"></circle>
<circle cx="2188.64" cy="1625" r="4" stroke="rgb(221,0,255)" stroke-width="2" fill="none"></circle>
<circle cx="6341.68" cy="1917.96" r="4" stroke="rgb(221,0,255)" stroke-width="2" fill="none"></circle>
<circle cx="1981.77" cy="1627.04" r="4" stroke="rgb(238,0,255)" stroke-width="2" fill="none"></circle>
<circle cx="6520.56" cy="1096.21" r="4" stroke="rgb(238,0,255)" stroke-width="2" fill="none"></circle>
<circle cx="2129.69" cy="1629.26" r="4" stroke="rgb(255,195,0)" stroke-width="2" fill="none"></circle>
<circle cx="6732.6" cy="1360.53" r="4" stroke="rgb(255,195,0)" stroke-width="2" fill="none"></circle>
<circle cx="2138.21" cy="1629.36" r="4" stroke="rgb(0,85,255)" stroke-width="2" fill="none"></circle>
<circle cx="6326.59" cy="850.353" r="4" stroke="rgb(0,85,255)" stroke-width="2" fill="none"></circle>
<circle cx="2377.65" cy="1632.82" r="4" stroke="rgb(229,0,255)" stroke-width="2" fill="none"></circle>
<circle cx="6349.13" cy="950.256" r="4" stroke="rgb(229,0,255)" stroke-width="2" fill="none"></circle>
<circle cx="2152.86" cy="1643.4" r="4" stroke="rgb(0,203,255)" stroke-width="2" fill="none"></circle>
<circle cx="5975.81" cy="1943.39" r="4" stroke="rgb(0,203,255)" stroke-width="2" fill="none"></circle>
<circle cx="2684.61" cy="1647.15" r="4" stroke="rgb(255,97,0)" stroke-width="2" fill="none"></circle>
<circle cx="6803.11" cy="1469.9" r="4" stroke="rgb(255,97,0)" stroke-width="2" fill="none"></circle>
<circle cx="1969.9" cy="1653.18" r="4" stroke="rgb(0,242,255)" stroke-width="2" fill="none"></circle>
<circle cx="6767.64" cy="1409.94" r="4" stroke="rgb(0,242,255)" stroke-width="2" fill="none"></circle>
<circle cx="2383.11" cy="1656.42" r="4" stroke="rgb(199,0,255)" stroke-width="2" fill="none"></circle>
<circle cx="5161.67" cy="1132.52" r="4" stroke="rgb(199,0,255)" stroke-width="2" fill="none"></circle>
<circle cx="1965.77" cy="1661.59" r="4" stroke="rgb(80,0,255)" stroke-width="2" fill="none"></circle>
<circle cx="6713.43" cy="1341.01" r="4" stroke="rgb(80,0,255)" stroke-width="2" fill="none"></circle>
<circle cx="1973.63" cy="1667.04" r="4" stroke="rgb(0,255,4)" stroke-width="2" fill="none"></circle>
<circle cx="6548.69" cy="1224.52" r="4" stroke="rgb(0,255,4)" stroke-width="2" fill="none"></circle>
<circle cx="1973.3" cy="1668.18" r="4" stroke="rgb(0,255,123)" stroke-width="2" fill="none"></circle>
<circle cx="6612.01" cy="1302.5" r="4" stroke="rgb(0,255,123)" stroke-width="2" fill="none"></circle>
<circle cx="2464.52" cy="1676.88" r="4" stroke="rgb(255,212,0)" stroke-width="2" fill="none"></circle>
<circle cx="5387.35" cy="881.359" r="4" stroke="rgb(255,212,0)" stroke-width="2" fill="none"></circle>
<circle cx="1966.12" cy="1691.27" r="4" stroke="rgb(123,0,255)" stroke-width="2" fill="none"></circle>
<circle cx="6530.11" cy="1229.28" r="4" stroke="rgb(123,0,255)" stroke-width="2" fill="none"></circle>
<circle cx="2018.46" cy="1699.09" r="4" stroke="rgb(255,0,33)" stroke-width="2" fill="none"></circle>
<circle cx="7048.63" cy="1343.93" r="4" stroke="rgb(255,0,33)" stroke-width="2" fill="none"></circle>
<circle cx="2001.41" cy="1700.84" r="4" stroke="rgb(255,0,225)" stroke-width="2" fill="none"></circle>
<circle cx="6734.48" cy="1366.56" r="4" stroke="rgb(255,0,225)" stroke-width="2" fill="none"></circle>
<circle cx="2007.99" cy="1712.01" r="4" stroke="rgb(255,0,127)" stroke-width="2" fill="none"></circle>
<circle cx="6693.88" cy="1428.95" r="4" stroke="rgb(255,0,127)" stroke-width="2" fill="none"></circle>
<circle cx="1974.88" cy="1712.19" r="4" stroke="rgb(0,4,255)" stroke-width="2" fill="none"></circle>
<circle cx="6408.58" cy="1029.17" r="4" stroke="rgb(0,4,255)" stroke-width="2" fill="none"></circle>
<circle cx="2016.19" cy="1715.29" r="4" stroke="rgb(0,51,255)" stroke-width="2" fill="none"></circle>
<circle cx="6400.2" cy="1056.92" r="4" stroke="rgb(0,51,255)" stroke-width="2" fill="none"></circle>
<circle cx="1993.6" cy="1723.03" r="4" stroke="rgb(0,255,182)" stroke-width="2" fill="none"></circle>
<circle cx="5168.11" cy="1047.12" r="4" stroke="rgb(0,255,182)" stroke-width="2" fill="none"></circle>
<circle cx="1977.21" cy="1725.7" r="4" stroke="rgb(0,17,255)" stroke-width="2" fill="none"></circle>
<circle cx="6709.64" cy="1286.55" r="4" stroke="rgb(0,17,255)" stroke-width="2" fill="none"></circle>
<circle cx="1928.45" cy="1728.74" r="4" stroke="rgb(255,0,68)" stroke-width="2" fill="none"></circle>
<circle cx="5895.52" cy="814.462" r="4" stroke="rgb(255,0,68)" stroke-width="2" fill="none"></circle>
<circle cx="2022" cy="1729.01" r="4" stroke="rgb(203,0,255)" stroke-width="2" fill="none"></circle>
<circle cx="6726.71" cy="1361.87" r="4" stroke="rgb(203,0,255)" stroke-width="2" fill="none"></circle>
<circle cx="2161.47" cy="1729.66" r="4" stroke="rgb(195,255,0)" stroke-width="2" fill="none"></circle>
<circle cx="6335.23" cy="787.769" r="4" stroke="rgb(195,255,0)" stroke-width="2" fill="none"></circle>
<circle cx="2030.72" cy="1730.28" r="4" stroke="rgb(255,182,0)" stroke-width="2" fill="none"></circle>
<circle cx="6578.72" cy="1175.38" r="4" stroke="rgb(255,182,0)" stroke-width="2" fill="none"></circle>
<circle cx="1800.26" cy="1736.13" r="4" stroke="rgb(0,255,42)" stroke-width="2" fill="none"></circle>
<circle cx="5031.69" cy="1182.11" r="4" stroke="rgb(0,255,42)" stroke-width="2" fill="none"></circle>
<circle cx="1991.07" cy="1742.08" r="4" stroke="rgb(0,12,255)" stroke-width="2" fill="none"></circle>
<circle cx="6578.13" cy="1182.3" r="4" stroke="rgb(0,12,255)" stroke-width="2" fill="none"></circle>
<circle cx="2026.07" cy="1742.69" r="4" stroke="rgb(0,255,250)" stroke-width="2" fill="none"></circle>
<circle cx="6507.77" cy="1124.92" r="4" stroke="rgb(0,255,250)" stroke-width="2" fill="none"></circle>
<circle cx="2035.91" cy="1746.26" r="4" stroke="rgb(0,63,255)" stroke-width="2" fill="none"></circle>
<circle cx="6317.6" cy="998.449" r="4" stroke="rgb(0,63,255)" stroke-width="2" fill="none"></circle>
<circle cx="2003.21" cy="1759.14" r="4" stroke="rgb(89,255,0)" stroke-width="2" fill="none"></circle>
<circle cx="5957.54" cy="1765.54" r="4" stroke="rgb(89,255,0)" stroke-width="2" fill="none"></circle>
<circle cx="1163.64" cy="1775.72" r="4" stroke="rgb(84,255,0)" stroke-width="2" fill="none"></circle>
<circle cx="5982.71" cy="1674.02" r="4" stroke="rgb(84,255,0)" stroke-width="2" fill="none"></circle>
<circle cx="2683.46" cy="1776.08" r="4" stroke="rgb(0,255,161)" stroke-width="2" fill="none"></circle>
<circle cx="7155.44" cy="1072.11" r="4" stroke="rgb(0,255,161)" stroke-width="2" fill="none"></circle>
<circle cx="1204.97" cy="1827.32" r="4" stroke="rgb(114,0,255)" stroke-width="2" fill="none"></circle>
<circle cx="6410.09" cy="901.292" r="4" stroke="rgb(114,0,255)" stroke-width="2" fill="none"></circle>
<circle cx="1780.89" cy="1871.98" r="4" stroke="rgb(255,80,0)" stroke-width="2" fill="none"></circle>
<circle cx="5991.13" cy="1079.4" r="4" stroke="rgb(255,80,0)" stroke-width="2" fill="none"></circle>
<circle cx="2066.87" cy="1878.74" r="4" stroke="rgb(42,0,255)" stroke-width="2" fill="none"></circle>
<circle cx="6375.16" cy="986.915" r="4" stroke="rgb(42,0,255)" stroke-width="2" fill="none"></circle>
<circle cx="2011.9" cy="1907.59" r="4" stroke="rgb(199,255,0)" stroke-width="2" fill="none"></circle>
<circle cx="6636.62" cy="1397.22" r="4" stroke="rgb(199,255,0)" stroke-width="2" fill="none"></circle>
<circle cx="2297.72" cy="1953.79" r="4" stroke="rgb(157,255,0)" stroke-width="2" fill="none"></circle>
<circle cx="6004.57" cy="1847.23" r="4" stroke="rgb(157,255,0)" stroke-width="2" fill="none"></circle>
<circle cx="2005.6" cy="1954.03" r="4" stroke="rgb(140,0,255)" stroke-width="2" fill="none"></circle>
<circle cx="6791.61" cy="1449.41" r="4" stroke="rgb(140,0,255)" stroke-width="2" fill="none"></circle>
<circle cx="2011.04" cy="1969.6" r="4" stroke="rgb(67,0,255)" stroke-width="2" fill="none"></circle>
<circle cx="6730.38" cy="1352.5" r="4" stroke="rgb(67,0,255)" stroke-width="2" fill="none"></circle>
<circle cx="1974.2" cy="1984.12" r="4" stroke="rgb(255,42,0)" stroke-width="2" fill="none"></circle>
<circle cx="6624.5" cy="1378.11" r="4" stroke="rgb(255,42,0)" stroke-width="2" fill="none"></circle>
<circle cx="2434.93" cy="1987.82" r="4" stroke="rgb(0,255,225)" stroke-width="2" fill="none"></circle>
<circle cx="5724.29" cy="1055.25" r="4" stroke="rgb(0,255,225)" stroke-width="2" fill="none"></circle>
<circle cx="2323.55" cy="1987.83" r="4" stroke="rgb(38,0,255)" stroke-width="2" fill="none"></circle>
<circle cx="6049.1" cy="1720.95" r="4" stroke="rgb(38,0,255)" stroke-width="2" fill="none"></circle>
<circle cx="2016.27" cy="2005.93" r="4" stroke="rgb(255,131,0)" stroke-width="2" fill="none"></circle>
<circle cx="6673.79" cy="1406.64" r="4" stroke="rgb(255,131,0)" stroke-width="2" fill="none"></circle>
<circle cx="2097.29" cy="2018.85" r="4" stroke="rgb(0,72,255)" stroke-width="2" fill="none"></circle>
<circle cx="5019.14" cy="1345.37" r="4" stroke="rgb(0,72,255)" stroke-width="2" fill="none"></circle>
<circle cx="2438.06" cy="2091.24" r="4" stroke="rgb(0,255,161)" stroke-width="2" fill="none"></circle>
<circle cx="6594.37" cy="1861.43" r="4" stroke="rgb(0,255,161)" stroke-width="2" fill="none"></circle>
<circle cx="2440.93" cy="2107.79" r="4" stroke="rgb(255,97,0)" stroke-width="2" fill="none"></circle>
<circle cx="6588.89" cy="1186.02" r="4" stroke="rgb(255,97,0)" stroke-width="2" fill="none"></circle>
<circle cx="2445.65" cy="2122.74" r="4" stroke="rgb(255,182,0)" stroke-width="2" fill="none"></circle>
<circle cx="7282.21" cy="1588.14" r="4" stroke="rgb(255,182,0)" stroke-width="2" fill="none"></circle>
<circle cx="2392.77" cy="2179.73" r="4" stroke="rgb(0,255,38)" stroke-width="2" fill="none"></circle>
<circle cx="7271.05" cy="1638.66" r="4" stroke="rgb(0,255,38)" stroke-width="2" fill="none"></circle>
<circle cx="1506.83" cy="2284.14" r="4" stroke="rgb(0,255,63)" stroke-width="2" fill="none"></circle>
<circle cx="6025.05" cy="931.827" r="4" stroke="rgb(0,255,63)" stroke-width="2" fill="none"></circle>
<circle cx="1855.98" cy="2329.1" r="4" stroke="rgb(131,0,255)" stroke-width="2" fill="none"></circle>
<circle cx="6719.88" cy="1257.02" r="4" stroke="rgb(131,0,255)" stroke-width="2" fill="none"></circle>
<circle cx="925.377" cy="2365.63" r="4" stroke="rgb(0,255,186)" stroke-width="2" fill="none"></circle>
<circle cx="5848.23" cy="1085.84" r="4" stroke="rgb(0,255,186)" stroke-width="2" fill="none"></circle>
<circle cx="896.604" cy="2427.34" r="4" stroke="rgb(255,46,0)" stroke-width="2" fill="none"></circle>
<circle cx="6003.46" cy="773.417" r="4" stroke="rgb(255,46,0)" stroke-width="2" fill="none"></circle>
</svg>