<?xml version="1.0" standalone="yes"?>
<!-- SVG graphic -->
<svg xmlns='http://www.w3.org/2000/svg' xmlns:xlink='http://www.w3.org/1999/xlink'
width="8064px" height="3024px" preserveAspectRatio="xMinYMin meet" viewBox="0 0 8064 3024" version="1.1">
<image x="0" y="0" width="4032px" height="3024px" opacity="1" xlink:href="/home/jeong/Code/2D-to-3D-Modeling-using-AI/Make3D/Image/20200227_180717.jpg"/>
<image x="4032" y="0" width="4032px" height="3024px" opacity="1" xlink:href="/home/jeong/Code/2D-to-3D-Modeling-using-AI/Make3D/Image/20200227_180729.jpg"/>
<polyline points="2288.99,284.312,6901.79,1939.6" stroke="rgb(0,255,233)" stroke-width="2" fill="none"></polyline>
<polyline points="1861.62,447.685,5900.93,774.428" stroke="rgb(255,0,140)" stroke-width="2" fill="none"></polyline>
<polyline points="2100.15,491.838,5428.07,304.233" stroke="rgb(72,0,255)" stroke-width="2" fill="none"></polyline>
<polyline points="2434.38,492.112,5972.78,2434.45" stroke="rgb(0,255,140)" stroke-width="2" fill="none"></polyline>
<polyline points="1838.05,510.828,6647.57,1796.19" stroke="rgb(255,0,29)" stroke-width="2" fill="none"></polyline>
<polyline points="2471.07,526.335,5660.06,1025.72" stroke="rgb(255,42,0)" stroke-width="2" fill="none"></polyline>
<polyline points="1571.25,561.149,5887.2,2158" stroke="rgb(0,255,110)" stroke-width="2" fill="none"></polyline>
<polyline points="2747.46,566.511,5916.44,1747.45" stroke="rgb(0,161,255)" stroke-width="2" fill="none"></polyline>
<polyline points="2209.23,589.106,5922.95,606.028" stroke="rgb(0,242,255)" stroke-width="2" fill="none"></polyline>
<polyline points="2086.88,608.646,5121.45,673.922" stroke="rgb(0,255,233)" stroke-width="2" fill="none"></polyline>
<polyline points="1823.21,613.169,6765,1290.22" stroke="rgb(255,25,0)" stroke-width="2" fill="none"></polyline>
<polyline points="2097.77,647.843,5273.54,1009.34" stroke="rgb(85,0,255)" stroke-width="2" fill="none"></polyline>
<polyline points="2472.02,696.004,5517.15,1137.44" stroke="rgb(93,255,0)" stroke-width="2" fill="none"></polyline>
<polyline points="2360.96,697.785,5908.58,1765.08" stroke="rgb(255,51,0)" stroke-width="2" fill="none"></polyline>
<polyline points="2293.07,712.632,6956.19,1830.93" stroke="rgb(144,255,0)" stroke-width="2" fill="none"></polyline>
<polyline points="2087.14,732.399,6938.22,1113.02" stroke="rgb(0,55,255)" stroke-width="2" fill="none"></polyline>
<polyline points="1646.19,774.097,5588.8,928.318" stroke="rgb(255,131,0)" stroke-width="2" fill="none"></polyline>
<polyline points="2075.91,800.561,6551.26,794.593" stroke="rgb(72,255,0)" stroke-width="2" fill="none"></polyline>
<polyline points="2441.57,820.63,5916.88,1543.27" stroke="rgb(237,255,0)" stroke-width="2" fill="none"></polyline>
<polyline points="1895.99,846.404,6785.57,1209.63" stroke="rgb(187,255,0)" stroke-width="2" fill="none"></polyline>
<polyline points="1762.84,856.769,6553.33,870.52" stroke="rgb(255,165,0)" stroke-width="2" fill="none"></polyline>
<polyline points="2129.99,888.252,6640.18,1482.24" stroke="rgb(50,0,255)" stroke-width="2" fill="none"></polyline>
<polyline points="1414.19,892.132,5785.99,687.218" stroke="rgb(233,255,0)" stroke-width="2" fill="none"></polyline>
<polyline points="1397.75,899.471,6214.39,1074.01" stroke="rgb(255,0,93)" stroke-width="2" fill="none"></polyline>
<polyline points="2211.04,900.604,5652.84,1384.12" stroke="rgb(0,119,255)" stroke-width="2" fill="none"></polyline>
<polyline points="2134.55,938.074,6671.09,1325.56" stroke="rgb(38,255,0)" stroke-width="2" fill="none"></polyline>
<polyline points="1374.1,953.163,5907.02,665.957" stroke="rgb(17,0,255)" stroke-width="2" fill="none"></polyline>
<polyline points="1367.78,954.949,5840.41,642.822" stroke="rgb(255,0,169)" stroke-width="2" fill="none"></polyline>
<polyline points="1335.65,978.941,5879.78,804.524" stroke="rgb(0,246,255)" stroke-width="2" fill="none"></polyline>
<polyline points="2709.41,999.008,5834.38,589.562" stroke="rgb(38,255,0)" stroke-width="2" fill="none"></polyline>
<polyline points="1321.97,1014.51,6100.14,978.762" stroke="rgb(0,229,255)" stroke-width="2" fill="none"></polyline>
<polyline points="1376.73,1019.18,6070.73,1078.58" stroke="rgb(0,46,255)" stroke-width="2" fill="none"></polyline>
<polyline points="1963.5,1035.11,5893.44,1806.56" stroke="rgb(178,255,0)" stroke-width="2" fill="none"></polyline>
<polyline points="1886.13,1039.1,6742.77,908.429" stroke="rgb(157,255,0)" stroke-width="2" fill="none"></polyline>
<polyline points="2252.89,1040.81,6284.1,1163.09" stroke="rgb(255,93,0)" stroke-width="2" fill="none"></polyline>
<polyline points="1257.41,1054.89,6077.87,867.059" stroke="rgb(203,255,0)" stroke-width="2" fill="none"></polyline>
<polyline points="1844.85,1065.81,6675.17,1360.83" stroke="rgb(114,255,0)" stroke-width="2" fill="none"></polyline>
<polyline points="1937.78,1083.32,5839,1560.71" stroke="rgb(0,255,208)" stroke-width="2" fill="none"></polyline>
<polyline points="1540.05,1084.12,6927.92,1659.79" stroke="rgb(144,0,255)" stroke-width="2" fill="none"></polyline>
<polyline points="1259.62,1087.58,5870.46,668.319" stroke="rgb(0,255,118)" stroke-width="2" fill="none"></polyline>
<polyline points="1242.88,1091.24,5944.98,717.769" stroke="rgb(0,101,255)" stroke-width="2" fill="none"></polyline>
<polyline points="1921.53,1097.78,5890.78,1559.53" stroke="rgb(0,255,135)" stroke-width="2" fill="none"></polyline>
<polyline points="1263.99,1098.42,5852.56,677.03" stroke="rgb(170,0,255)" stroke-width="2" fill="none"></polyline>
<polyline points="1252.07,1102.36,5855.89,654.538" stroke="rgb(0,229,255)" stroke-width="2" fill="none"></polyline>
<polyline points="2007.12,1108.7,6859.38,1745.22" stroke="rgb(255,157,0)" stroke-width="2" fill="none"></polyline>
<polyline points="2007.93,1115.05,5921.89,1573.35" stroke="rgb(255,25,0)" stroke-width="2" fill="none"></polyline>
<polyline points="1268.31,1128.78,6206.31,1233.05" stroke="rgb(255,229,0)" stroke-width="2" fill="none"></polyline>
<polyline points="1268.48,1134.82,6186.5,1236.14" stroke="rgb(254,0,255)" stroke-width="2" fill="none"></polyline>
<polyline points="1859.22,1137.07,6665.49,1090.54" stroke="rgb(255,0,80)" stroke-width="2" fill="none"></polyline>
<polyline points="1562.36,1141.99,5448.22,682.089" stroke="rgb(8,255,0)" stroke-width="2" fill="none"></polyline>
<polyline points="1336.14,1154.1,5757.22,948.654" stroke="rgb(255,68,0)" stroke-width="2" fill="none"></polyline>
<polyline points="1409.03,1158.24,5868.6,810.879" stroke="rgb(50,0,255)" stroke-width="2" fill="none"></polyline>
<polyline points="1387.1,1164.95,6112.68,1379.04" stroke="rgb(255,42,0)" stroke-width="2" fill="none"></polyline>
<polyline points="2624.17,1170.93,6052.63,861.332" stroke="rgb(255,0,195)" stroke-width="2" fill="none"></polyline>
<polyline points="1284.78,1174.28,5946.83,923.709" stroke="rgb(0,42,255)" stroke-width="2" fill="none"></polyline>
<polyline points="1392.28,1180.89,5868.6,810.879" stroke="rgb(0,76,255)" stroke-width="2" fill="none"></polyline>
<polyline points="1230.1,1190.58,5985.17,763.622" stroke="rgb(242,0,255)" stroke-width="2" fill="none"></polyline>
<polyline points="2280.45,1195.28,6781.06,1126.19" stroke="rgb(255,0,59)" stroke-width="2" fill="none"></polyline>
<polyline points="1161.72,1197.59,6505.56,739.949" stroke="rgb(255,229,0)" stroke-width="2" fill="none"></polyline>
<polyline points="1225.18,1200.67,5728.96,431.792" stroke="rgb(4,255,0)" stroke-width="2" fill="none"></polyline>
<polyline points="1252.13,1201.82,5879.73,645.823" stroke="rgb(97,255,0)" stroke-width="2" fill="none"></polyline>
<polyline points="1241.9,1203.45,6317.74,1267.09" stroke="rgb(0,0,255)" stroke-width="2" fill="none"></polyline>
<polyline points="1387.63,1210.87,6097.56,1391.67" stroke="rgb(0,85,255)" stroke-width="2" fill="none"></polyline>
<polyline points="1226.17,1212.7,5717.12,435.894" stroke="rgb(255,204,0)" stroke-width="2" fill="none"></polyline>
<polyline points="1234.62,1212.82,5866.43,625.723" stroke="rgb(0,191,255)" stroke-width="2" fill="none"></polyline>
<polyline points="2347.27,1230.13,5770.81,1459.01" stroke="rgb(8,0,255)" stroke-width="2" fill="none"></polyline>
<polyline points="2027.03,1247.42,6178.2,1038.75" stroke="rgb(0,255,0)" stroke-width="2" fill="none"></polyline>
<polyline points="2250.08,1250.4,6778.53,1269.35" stroke="rgb(0,255,169)" stroke-width="2" fill="none"></polyline>
<polyline points="1884.06,1267.03,6956.87,1881.59" stroke="rgb(182,0,255)" stroke-width="2" fill="none"></polyline>
<polyline points="2112.2,1285.81,6680.03,1174.56" stroke="rgb(110,0,255)" stroke-width="2" fill="none"></polyline>
<polyline points="1816.75,1296.44,6643.71,817.537" stroke="rgb(255,0,221)" stroke-width="2" fill="none"></polyline>
<polyline points="1137.88,1296.5,5910.93,1360.06" stroke="rgb(0,255,84)" stroke-width="2" fill="none"></polyline>
<polyline points="1768.42,1304.88,5908.98,1488.15" stroke="rgb(216,0,255)" stroke-width="2" fill="none"></polyline>
<polyline points="1998.17,1305.17,5949.43,747.469" stroke="rgb(0,51,255)" stroke-width="2" fill="none"></polyline>
<polyline points="1671.79,1305.78,6572.99,1246.27" stroke="rgb(0,178,255)" stroke-width="2" fill="none"></polyline>
<polyline points="1705.52,1323.61,5857.3,631.731" stroke="rgb(255,0,136)" stroke-width="2" fill="none"></polyline>
<polyline points="1469.67,1332.35,6259.93,1200.84" stroke="rgb(59,255,0)" stroke-width="2" fill="none"></polyline>
<polyline points="2595.06,1342.52,5737.94,330.775" stroke="rgb(0,255,16)" stroke-width="2" fill="none"></polyline>
<polyline points="2632,1345.13,6700.13,1148.94" stroke="rgb(118,0,255)" stroke-width="2" fill="none"></polyline>
<polyline points="1845.69,1349.32,5708.87,1530.85" stroke="rgb(255,0,174)" stroke-width="2" fill="none"></polyline>
<polyline points="2443.88,1352.98,5836.74,1593" stroke="rgb(8,0,255)" stroke-width="2" fill="none"></polyline>
<polyline points="1668.23,1361.98,5138.37,668.595" stroke="rgb(0,255,157)" stroke-width="2" fill="none"></polyline>
<polyline points="1311.4,1368.24,6758.46,1884.43" stroke="rgb(0,123,255)" stroke-width="2" fill="none"></polyline>
<polyline points="2496.89,1373.62,5367.71,875.302" stroke="rgb(0,255,16)" stroke-width="2" fill="none"></polyline>
<polyline points="2229.57,1383.62,6198.17,2268.93" stroke="rgb(38,255,0)" stroke-width="2" fill="none"></polyline>
<polyline points="1123.52,1387.63,6177.51,1160.53" stroke="rgb(255,0,199)" stroke-width="2" fill="none"></polyline>
<polyline points="1748.78,1404.42,5526.2,808.17" stroke="rgb(0,89,255)" stroke-width="2" fill="none"></polyline>
<polyline points="2469.08,1412.13,5922.27,1670.92" stroke="rgb(255,204,0)" stroke-width="2" fill="none"></polyline>
<polyline points="2557.46,1436.42,6475.46,650.033" stroke="rgb(0,255,216)" stroke-width="2" fill="none"></polyline>
<polyline points="1048.11,1476.52,6142.69,1528.1" stroke="rgb(0,255,106)" stroke-width="2" fill="none"></polyline>
<polyline points="1887.68,1490.52,6148.41,572.451" stroke="rgb(255,165,0)" stroke-width="2" fill="none"></polyline>
<polyline points="2032,1507.08,5882.5,436.874" stroke="rgb(0,255,89)" stroke-width="2" fill="none"></polyline>
<polyline points="1723.08,1507.46,5579.07,874.717" stroke="rgb(255,110,0)" stroke-width="2" fill="none"></polyline>
<polyline points="2526.78,1530.93,5430.28,665.152" stroke="rgb(80,0,255)" stroke-width="2" fill="none"></polyline>
<polyline points="1578.64,1539.61,6533.31,1835.26" stroke="rgb(0,216,255)" stroke-width="2" fill="none"></polyline>
<polyline points="1946.55,1542.18,6623.58,2114.54" stroke="rgb(114,255,0)" stroke-width="2" fill="none"></polyline>
<polyline points="999.24,1555.12,6601.83,1339.16" stroke="rgb(255,55,0)" stroke-width="2" fill="none"></polyline>
<polyline points="1087.32,1566.57,6300.97,776.129" stroke="rgb(0,250,255)" stroke-width="2" fill="none"></polyline>
<polyline points="1792.87,1593.78,5192.37,950.173" stroke="rgb(59,0,255)" stroke-width="2" fill="none"></polyline>
<polyline points="1651.03,1624.07,5754.19,1479.17" stroke="rgb(242,0,255)" stroke-width="2" fill="none"></polyline>
<polyline points="2339.88,1640.03,6661.52,1418.18" stroke="rgb(140,255,0)" stroke-width="2" fill="none"></polyline>
<polyline points="960.867,1646.59,5316.94,802.598" stroke="rgb(0,161,255)" stroke-width="2" fill="none"></polyline>
<polyline points="892.575,1649.29,6023.8,693.105" stroke="rgb(255,0,216)" stroke-width="2" fill="none"></polyline>
<polyline points="1559.28,1663.84,5600.16,1204.7" stroke="rgb(42,0,255)" stroke-width="2" fill="none"></polyline>
<polyline points="2051.56,1663.85,5690.89,1468" stroke="rgb(255,0,242)" stroke-width="2" fill="none"></polyline>
<polyline points="926.492,1667.52,5280.85,781.979" stroke="rgb(255,80,0)" stroke-width="2" fill="none"></polyline>
<polyline points="1700.82,1674.79,5563.16,1262.07" stroke="rgb(0,93,255)" stroke-width="2" fill="none"></polyline>
<polyline points="1259.19,1681.49,5420.84,1040.7" stroke="rgb(174,0,255)" stroke-width="2" fill="none"></polyline>
<polyline points="1409.82,1693.24,6816.96,940.63" stroke="rgb(0,255,101)" stroke-width="2" fill="none"></polyline>
<polyline points="1597.48,1700.69,5908.03,1674.97" stroke="rgb(255,0,4)" stroke-width="2" fill="none"></polyline>
<polyline points="2026.8,1701.76,6731.46,1991.59" stroke="rgb(4,0,255)" stroke-width="2" fill="none"></polyline>
<polyline points="839.173,1715.84,6687.49,844.965" stroke="rgb(255,110,0)" stroke-width="2" fill="none"></polyline>
<polyline points="1614.76,1725.11,5922.53,1506.04" stroke="rgb(0,255,152)" stroke-width="2" fill="none"></polyline>
<polyline points="1458.29,1740.14,6993.83,1907.97" stroke="rgb(255,0,153)" stroke-width="2" fill="none"></polyline>
<polyline points="1927.87,1746.42,6557.68,973.329" stroke="rgb(255,97,0)" stroke-width="2" fill="none"></polyline>
<polyline points="2153.72,1747.53,5656.36,1396.24" stroke="rgb(114,0,255)" stroke-width="2" fill="none"></polyline>
<polyline points="2265.8,1759.04,6829.52,1399.44" stroke="rgb(161,0,255)" stroke-width="2" fill="none"></polyline>
<polyline points="1670.14,1761.34,5719.42,1141.11" stroke="rgb(25,255,0)" stroke-width="2" fill="none"></polyline>
<polyline points="1130.77,1770.62,5254.61,938.346" stroke="rgb(0,225,255)" stroke-width="2" fill="none"></polyline>
<polyline points="2284.48,1785.36,5631.62,1354.58" stroke="rgb(131,255,0)" stroke-width="2" fill="none"></polyline>
<polyline points="1545.96,1786.89,5159.13,906.374" stroke="rgb(80,0,255)" stroke-width="2" fill="none"></polyline>
<polyline points="2257.08,1807.68,5915.74,2301.69" stroke="rgb(0,59,255)" stroke-width="2" fill="none"></polyline>
<polyline points="2185.53,1827.71,5860.38,658.608" stroke="rgb(0,42,255)" stroke-width="2" fill="none"></polyline>
<polyline points="1680.2,1836.4,6541.2,828.259" stroke="rgb(0,255,157)" stroke-width="2" fill="none"></polyline>
<polyline points="1427.71,1836.77,6203.98,1214.14" stroke="rgb(255,0,12)" stroke-width="2" fill="none"></polyline>
<polyline points="2077.89,1839.81,5783.69,490.634" stroke="rgb(216,0,255)" stroke-width="2" fill="none"></polyline>
<polyline points="661.718,1866.26,6021.96,809.591" stroke="rgb(46,0,255)" stroke-width="2" fill="none"></polyline>
<polyline points="1368.55,1925.19,6044.3,1344.76" stroke="rgb(255,42,0)" stroke-width="2" fill="none"></polyline>
<polyline points="1046.15,1926.13,6508.26,1728.75" stroke="rgb(33,255,0)" stroke-width="2" fill="none"></polyline>
<polyline points="1090.7,1940.44,6335.57,631.045" stroke="rgb(0,255,106)" stroke-width="2" fill="none"></polyline>
<polyline points="1309.29,1978.76,6838.64,1845.46" stroke="rgb(0,255,250)" stroke-width="2" fill="none"></polyline>
<circle cx="2288.99" cy="284.312" r="4" stroke="rgb(0,255,233)" stroke-width="2" fill="none"></circle>
<circle cx="6901.79" cy="1939.6" r="4" stroke="rgb(0,255,233)" stroke-width="2" fill="none"></circle>
<circle cx="1861.62" cy="447.685" r="4" stroke="rgb(255,0,140)" stroke-width="2" fill="none"></circle>
<circle cx="5900.93" cy="774.428" r="4" stroke="rgb(255,0,140)" stroke-width="2" fill="none"></circle>
<circle cx="2100.15" cy="491.838" r="4" stroke="rgb(72,0,255)" stroke-width="2" fill="none"></circle>
<circle cx="5428.07" cy="304.233" r="4" stroke="rgb(72,0,255)" stroke-width="2" fill="none"></circle>
<circle cx="2434.38" cy="492.112" r="4" stroke="rgb(0,255,140)" stroke-width="2" fill="none"></circle>
<circle cx="5972.78" cy="2434.45" r="4" stroke="rgb(0,255,140)" stroke-width="2" fill="none"></circle>
<circle cx="1838.05" cy="510.828" r="4" stroke="rgb(255,0,29)" stroke-width="2" fill="none"></circle>
<circle cx="6647.57" cy="1796.19" r="4" stroke="rgb(255,0,29)" stroke-width="2" fill="none"></circle>
<circle cx="2471.07" cy="526.335" r="4" stroke="rgb(255,42,0)" stroke-width="2" fill="none"></circle>
<circle cx="5660.06" cy="1025.72" r="4" stroke="rgb(255,42,0)" stroke-width="2" fill="none"></circle>
<circle cx="1571.25" cy="561.149" r="4" stroke="rgb(0,255,110)" stroke-width="2" fill="none"></circle>
<circle cx="5887.2" cy="2158" r="4" stroke="rgb(0,255,110)" stroke-width="2" fill="none"></circle>
<circle cx="2747.46" cy="566.511" r="4" stroke="rgb(0,161,255)" stroke-width="2" fill="none"></circle>
<circle cx="5916.44" cy="1747.45" r="4" stroke="rgb(0,161,255)" stroke-width="2" fill="none"></circle>
<circle cx="2209.23" cy="589.106" r="4" stroke="rgb(0,242,255)" stroke-width="2" fill="none"></circle>
<circle cx="5922.95" cy="606.028" r="4" stroke="rgb(0,242,255)" stroke-width="2" fill="none"></circle>
<circle cx="2086.88" cy="608.646" r="4" stroke="rgb(0,255,233)" stroke-width="2" fill="none"></circle>
<circle cx="5121.45" cy="673.922" r="4" stroke="rgb(0,255,233)" stroke-width="2" fill="none"></circle>
<circle cx="1823.21" cy="613.169" r="4" stroke="rgb(255,25,0)" stroke-width="2" fill="none"></circle>
<circle cx="6765" cy="1290.22" r="4" stroke="rgb(255,25,0)" stroke-width="2" fill="none"></circle>
<circle cx="2097.77" cy="647.843" r="4" stroke="rgb(85,0,255)" stroke-width="2" fill="none"></circle>
<circle cx="5273.54" cy="1009.34" r="4" stroke="rgb(85,0,255)" stroke-width="2" fill="none"></circle>
<circle cx="2472.02" cy="696.004" r="4" stroke="rgb(93,255,0)" stroke-width="2" fill="none"></circle>
<circle cx="5517.15" cy="1137.44" r="4" stroke="rgb(93,255,0)" stroke-width="2" fill="none"></circle>
<circle cx="2360.96" cy="697.785" r="4" stroke="rgb(255,51,0)" stroke-width="2" fill="none"></circle>
<circle cx="5908.58" cy="1765.08" r="4" stroke="rgb(255,51,0)" stroke-width="2" fill="none"></circle>
<circle cx="2293.07" cy="712.632" r="4" stroke="rgb(144,255,0)" stroke-width="2" fill="none"></circle>
<circle cx="6956.19" cy="1830.93" r="4" stroke="rgb(144,255,0)" stroke-width="2" fill="none"></circle>
<circle cx="2087.14" cy="732.399" r="4" stroke="rgb(0,55,255)" stroke-width="2" fill="none"></circle>
<circle cx="6938.22" cy="1113.02" r="4" stroke="rgb(0,55,255)" stroke-width="2" fill="none"></circle>
<circle cx="1646.19" cy="774.097" r="4" stroke="rgb(255,131,0)" stroke-width="2" fill="none"></circle>
<circle cx="5588.8" cy="928.318" r="4" stroke="rgb(255,131,0)" stroke-width="2" fill="none"></circle>
<circle cx="2075.91" cy="800.561" r="4" stroke="rgb(72,255,0)" stroke-width="2" fill="none"></circle>
<circle cx="6551.26" cy="794.593" r="4" stroke="rgb(72,255,0)" stroke-width="2" fill="none"></circle>
<circle cx="2441.57" cy="820.63" r="4" stroke="rgb(237,255,0)" stroke-width="2" fill="none"></circle>
<circle cx="5916.88" cy="1543.27" r="4" stroke="rgb(237,255,0)" stroke-width="2" fill="none"></circle>
<circle cx="1895.99" cy="846.404" r="4" stroke="rgb(187,255,0)" stroke-width="2" fill="none"></circle>
<circle cx="6785.57" cy="1209.63" r="4" stroke="rgb(187,255,0)" stroke-width="2" fill="none"></circle>
<circle cx="1762.84" cy="856.769" r="4" stroke="rgb(255,165,0)" stroke-width="2" fill="none"></circle>
<circle cx="6553.33" cy="870.52" r="4" stroke="rgb(255,165,0)" stroke-width="2" fill="none"></circle>
<circle cx="2129.99" cy="888.252" r="4" stroke="rgb(50,0,255)" stroke-width="2" fill="none"></circle>
<circle cx="6640.18" cy="1482.24" r="4" stroke="rgb(50,0,255)" stroke-width="2" fill="none"></circle>
<circle cx="1414.19" cy="892.132" r="4" stroke="rgb(233,255,0)" stroke-width="2" fill="none"></circle>
<circle cx="5785.99" cy="687.218" r="4" stroke="rgb(233,255,0)" stroke-width="2" fill="none"></circle>
<circle cx="1397.75" cy="899.471" r="4" stroke="rgb(255,0,93)" stroke-width="2" fill="none"></circle>
<circle cx="6214.39" cy="1074.01" r="4" stroke="rgb(255,0,93)" stroke-width="2" fill="none"></circle>
<circle cx="2211.04" cy="900.604" r="4" stroke="rgb(0,119,255)" stroke-width="2" fill="none"></circle>
<circle cx="5652.84" cy="1384.12" r="4" stroke="rgb(0,119,255)" stroke-width="2" fill="none"></circle>
<circle cx="2134.55" cy="938.074" r="4" stroke="rgb(38,255,0)" stroke-width="2" fill="none"></circle>
<circle cx="6671.09" cy="1325.56" r="4" stroke="rgb(38,255,0)" stroke-width="2" fill="none"></circle>
<circle cx="1374.1" cy="953.163" r="4" stroke="rgb(17,0,255)" stroke-width="2" fill="none"></circle>
<circle cx="5907.02" cy="665.957" r="4" stroke="rgb(17,0,255)" stroke-width="2" fill="none"></circle>
<circle cx="1367.78" cy="954.949" r="4" stroke="rgb(255,0,169)" stroke-width="2" fill="none"></circle>
<circle cx="5840.41" cy="642.822" r="4" stroke="rgb(255,0,169)" stroke-width="2" fill="none"></circle>
<circle cx="1335.65" cy="978.941" r="4" stroke="rgb(0,246,255)" stroke-width="2" fill="none"></circle>
<circle cx="5879.78" cy="804.524" r="4" stroke="rgb(0,246,255)" stroke-width="2" fill="none"></circle>
<circle cx="2709.41" cy="999.008" r="4" stroke="rgb(38,255,0)" stroke-width="2" fill="none"></circle>
<circle cx="5834.38" cy="589.562" r="4" stroke="rgb(38,255,0)" stroke-width="2" fill="none"></circle>
<circle cx="1321.97" cy="1014.51" r="4" stroke="rgb(0,229,255)" stroke-width="2" fill="none"></circle>
<circle cx="6100.14" cy="978.762" r="4" stroke="rgb(0,229,255)" stroke-width="2" fill="none"></circle>
<circle cx="1376.73" cy="1019.18" r="4" stroke="rgb(0,46,255)" stroke-width="2" fill="none"></circle>
<circle cx="6070.73" cy="1078.58" r="4" stroke="rgb(0,46,255)" stroke-width="2" fill="none"></circle>
<circle cx="1963.5" cy="1035.11" r="4" stroke="rgb(178,255,0)" stroke-width="2" fill="none"></circle>
<circle cx="5893.44" cy="1806.56" r="4" stroke="rgb(178,255,0)" stroke-width="2" fill="none"></circle>
<circle cx="1886.13" cy="1039.1" r="4" stroke="rgb(157,255,0)" stroke-width="2" fill="none"></circle>
<circle cx="6742.77" cy="908.429" r="4" stroke="rgb(157,255,0)" stroke-width="2" fill="none"></circle>
<circle cx="2252.89" cy="1040.81" r="4" stroke="rgb(255,93,0)" stroke-width="2" fill="none"></circle>
<circle cx="6284.1" cy="1163.09" r="4" stroke="rgb(255,93,0)" stroke-width="2" fill="none"></circle>
<circle cx="1257.41" cy="1054.89" r="4" stroke="rgb(203,255,0)" stroke-width="2" fill="none"></circle>
<circle cx="6077.87" cy="867.059" r="4" stroke="rgb(203,255,0)" stroke-width="2" fill="none"></circle>
<circle cx="1844.85" cy="1065.81" r="4" stroke="rgb(114,255,0)" stroke-width="2" fill="none"></circle>
<circle cx="6675.17" cy="1360.83" r="4" stroke="rgb(114,255,0)" stroke-width="2" fill="none"></circle>
<circle cx="1937.78" cy="1083.32" r="4" stroke="rgb(0,255,208)" stroke-width="2" fill="none"></circle>
<circle cx="5839" cy="1560.71" r="4" stroke="rgb(0,255,208)" stroke-width="2" fill="none"></circle>
<circle cx="1540.05" cy="1084.12" r="4" stroke="rgb(144,0,255)" stroke-width="2" fill="none"></circle>
<circle cx="6927.92" cy="1659.79" r="4" stroke="rgb(144,0,255)" stroke-width="2" fill="none"></circle>
<circle cx="1259.62" cy="1087.58" r="4" stroke="rgb(0,255,118)" stroke-width="2" fill="none"></circle>
<circle cx="5870.46" cy="668.319" r="4" stroke="rgb(0,255,118)" stroke-width="2" fill="none"></circle>
<circle cx="1242.88" cy="1091.24" r="4" stroke="rgb(0,101,255)" stroke-width="2" fill="none"></circle>
<circle cx="5944.98" cy="717.769" r="4" stroke="rgb(0,101,255)" stroke-width="2" fill="none"></circle>
<circle cx="1921.53" cy="1097.78" r="4" stroke="rgb(0,255,135)" stroke-width="2" fill="none"></circle>
<circle cx="5890.78" cy="1559.53" r="4" stroke="rgb(0,255,135)" stroke-width="2" fill="none"></circle>
<circle cx="1263.99" cy="1098.42" r="4" stroke="rgb(170,0,255)" stroke-width="2" fill="none"></circle>
<circle cx="5852.56" cy="677.03" r="4" stroke="rgb(170,0,255)" stroke-width="2" fill="none"></circle>
<circle cx="1252.07" cy="1102.36" r="4" stroke="rgb(0,229,255)" stroke-width="2" fill="none"></circle>
<circle cx="5855.89" cy="654.538" r="4" stroke="rgb(0,229,255)" stroke-width="2" fill="none"></circle>
<circle cx="2007.12" cy="1108.7" r="4" stroke="rgb(255,157,0)" stroke-width="2" fill="none"></circle>
<circle cx="6859.38" cy="1745.22" r="4" stroke="rgb(255,157,0)" stroke-width="2" fill="none"></circle>
<circle cx="2007.93" cy="1115.05" r="4" stroke="rgb(255,25,0)" stroke-width="2" fill="none"></circle>
<circle cx="5921.89" cy="1573.35" r="4" stroke="rgb(255,25,0)" stroke-width="2" fill="none"></circle>
<circle cx="1268.31" cy="1128.78" r="4" stroke="rgb(255,229,0)" stroke-width="2" fill="none"></circle>
<circle cx="6206.31" cy="1233.05" r="4" stroke="rgb(255,229,0)" stroke-width="2" fill="none"></circle>
<circle cx="1268.48" cy="1134.82" r="4" stroke="rgb(254,0,255)" stroke-width="2" fill="none"></circle>
<circle cx="6186.5" cy="1236.14" r="4" stroke="rgb(254,0,255)" stroke-width="2" fill="none"></circle>
<circle cx="1859.22" cy="1137.07" r="4" stroke="rgb(255,0,80)" stroke-width="2" fill="none"></circle>
<circle cx="6665.49" cy="1090.54" r="4" stroke="rgb(255,0,80)" stroke-width="2" fill="none"></circle>
<circle cx="1562.36" cy="1141.99" r="4" stroke="rgb(8,255,0)" stroke-width="2" fill="none"></circle>
<circle cx="5448.22" cy="682.089" r="4" stroke="rgb(8,255,0)" stroke-width="2" fill="none"></circle>
<circle cx="1336.14" cy="1154.1" r="4" stroke="rgb(255,68,0)" stroke-width="2" fill="none"></circle>
<circle cx="5757.22" cy="948.654" r="4" stroke="rgb(255,68,0)" stroke-width="2" fill="none"></circle>
<circle cx="1409.03" cy="1158.24" r="4" stroke="rgb(50,0,255)" stroke-width="2" fill="none"></circle>
<circle cx="5868.6" cy="810.879" r="4" stroke="rgb(50,0,255)" stroke-width="2" fill="none"></circle>
<circle cx="1387.1" cy="1164.95" r="4" stroke="rgb(255,42,0)" stroke-width="2" fill="none"></circle>
<circle cx="6112.68" cy="1379.04" r="4" stroke="rgb(255,42,0)" stroke-width="2" fill="none"></circle>
<circle cx="2624.17" cy="1170.93" r="4" stroke="rgb(255,0,195)" stroke-width="2" fill="none"></circle>
<circle cx="6052.63" cy="861.332" r="4" stroke="rgb(255,0,195)" stroke-width="2" fill="none"></circle>
<circle cx="1284.78" cy="1174.28" r="4" stroke="rgb(0,42,255)" stroke-width="2" fill="none"></circle>
<circle cx="5946.83" cy="923.709" r="4" stroke="rgb(0,42,255)" stroke-width="2" fill="none"></circle>
<circle cx="1392.28" cy="1180.89" r="4" stroke="rgb(0,76,255)" stroke-width="2" fill="none"></circle>
<circle cx="5868.6" cy="810.879" r="4" stroke="rgb(0,76,255)" stroke-width="2" fill="none"></circle>
<circle cx="1230.1" cy="1190.58" r="4" stroke="rgb(242,0,255)" stroke-width="2" fill="none"></circle>
<circle cx="5985.17" cy="763.622" r="4" stroke="rgb(242,0,255)" stroke-width="2" fill="none"></circle>
<circle cx="2280.45" cy="1195.28" r="4" stroke="rgb(255,0,59)" stroke-width="2" fill="none"></circle>
<circle cx="6781.06" cy="1126.19" r="4" stroke="rgb(255,0,59)" stroke-width="2" fill="none"></circle>
<circle cx="1161.72" cy="1197.59" r="4" stroke="rgb(255,229,0)" stroke-width="2" fill="none"></circle>
<circle cx="6505.56" cy="739.949" r="4" stroke="rgb(255,229,0)" stroke-width="2" fill="none"></circle>
<circle cx="1225.18" cy="1200.67" r="4" stroke="rgb(4,255,0)" stroke-width="2" fill="none"></circle>
<circle cx="5728.96" cy="431.792" r="4" stroke="rgb(4,255,0)" stroke-width="2" fill="none"></circle>
<circle cx="1252.13" cy="1201.82" r="4" stroke="rgb(97,255,0)" stroke-width="2" fill="none"></circle>
<circle cx="5879.73" cy="645.823" r="4" stroke="rgb(97,255,0)" stroke-width="2" fill="none"></circle>
<circle cx="1241.9" cy="1203.45" r="4" stroke="rgb(0,0,255)" stroke-width="2" fill="none"></circle>
<circle cx="6317.74" cy="1267.09" r="4" stroke="rgb(0,0,255)" stroke-width="2" fill="none"></circle>
<circle cx="1387.63" cy="1210.87" r="4" stroke="rgb(0,85,255)" stroke-width="2" fill="none"></circle>
<circle cx="6097.56" cy="1391.67" r="4" stroke="rgb(0,85,255)" stroke-width="2" fill="none"></circle>
<circle cx="1226.17" cy="1212.7" r="4" stroke="rgb(255,204,0)" stroke-width="2" fill="none"></circle>
<circle cx="5717.12" cy="435.894" r="4" stroke="rgb(255,204,0)" stroke-width="2" fill="none"></circle>
<circle cx="1234.62" cy="1212.82" r="4" stroke="rgb(0,191,255)" stroke-width="2" fill="none"></circle>
<circle cx="5866.43" cy="625.723" r="4" stroke="rgb(0,191,255)" stroke-width="2" fill="none"></circle>
<circle cx="2347.27" cy="1230.13" r="4" stroke="rgb(8,0,255)" stroke-width="2" fill="none"></circle>
<circle cx="5770.81" cy="1459.01" r="4" stroke="rgb(8,0,255)" stroke-width="2" fill="none"></circle>
<circle cx="2027.03" cy="1247.42" r="4" stroke="rgb(0,255,0)" stroke-width="2" fill="none"></circle>
<circle cx="6178.2" cy="1038.75" r="4" stroke="rgb(0,255,0)" stroke-width="2" fill="none"></circle>
<circle cx="2250.08" cy="1250.4" r="4" stroke="rgb(0,255,169)" stroke-width="2" fill="none"></circle>
<circle cx="6778.53" cy="1269.35" r="4" stroke="rgb(0,255,169)" stroke-width="2" fill="none"></circle>
<circle cx="1884.06" cy="1267.03" r="4" stroke="rgb(182,0,255)" stroke-width="2" fill="none"></circle>
<circle cx="6956.87" cy="1881.59" r="4" stroke="rgb(182,0,255)" stroke-width="2" fill="none"></circle>
<circle cx="2112.2" cy="1285.81" r="4" stroke="rgb(110,0,255)" stroke-width="2" fill="none"></circle>
<circle cx="6680.03" cy="1174.56" r="4" stroke="rgb(110,0,255)" stroke-width="2" fill="none"></circle>
<circle cx="1816.75" cy="1296.44" r="4" stroke="rgb(255,0,221)" stroke-width="2" fill="none"></circle>
<circle cx="6643.71" cy="817.537" r="4" stroke="rgb(255,0,221)" stroke-width="2" fill="none"></circle>
<circle cx="1137.88" cy="1296.5" r="4" stroke="rgb(0,255,84)" stroke-width="2" fill="none"></circle>
<circle cx="5910.93" cy="1360.06" r="4" stroke="rgb(0,255,84)" stroke-width="2" fill="none"></circle>
<circle cx="1768.42" cy="1304.88" r="4" stroke="rgb(216,0,255)" stroke-width="2" fill="none"></circle>
<circle cx="5908.98" cy="1488.15" r="4" stroke="rgb(216,0,255)" stroke-width="2" fill="none"></circle>
<circle cx="1998.17" cy="1305.17" r="4" stroke="rgb(0,51,255)" stroke-width="2" fill="none"></circle>
<circle cx="5949.43" cy="747.469" r="4" stroke="rgb(0,51,255)" stroke-width="2" fill="none"></circle>
<circle cx="1671.79" cy="1305.78" r="4" stroke="rgb(0,178,255)" stroke-width="2" fill="none"></circle>
<circle cx="6572.99" cy="1246.27" r="4" stroke="rgb(0,178,255)" stroke-width="2" fill="none"></circle>
<circle cx="1705.52" cy="1323.61" r="4" stroke="rgb(255,0,136)" stroke-width="2" fill="none"></circle>
<circle cx="5857.3" cy="631.731" r="4" stroke="rgb(255,0,136)" stroke-width="2" fill="none"></circle>
<circle cx="1469.67" cy="1332.35" r="4" stroke="rgb(59,255,0)" stroke-width="2" fill="none"></circle>
<circle cx="6259.93" cy="1200.84" r="4" stroke="rgb(59,255,0)" stroke-width="2" fill="none"></circle>
<circle cx="2595.06" cy="1342.52" r="4" stroke="rgb(0,255,16)" stroke-width="2" fill="none"></circle>
<circle cx="5737.94" cy="330.775" r="4" stroke="rgb(0,255,16)" stroke-width="2" fill="none"></circle>
<circle cx="2632" cy="1345.13" r="4" stroke="rgb(118,0,255)" stroke-width="2" fill="none"></circle>
<circle cx="6700.13" cy="1148.94" r="4" stroke="rgb(118,0,255)" stroke-width="2" fill="none"></circle>
<circle cx="1845.69" cy="1349.32" r="4" stroke="rgb(255,0,174)" stroke-width="2" fill="none"></circle>
<circle cx="5708.87" cy="1530.85" r="4" stroke="rgb(255,0,174)" stroke-width="2" fill="none"></circle>
<circle cx="2443.88" cy="1352.98" r="4" stroke="rgb(8,0,255)" stroke-width="2" fill="none"></circle>
<circle cx="5836.74" cy="1593" r="4" stroke="rgb(8,0,255)" stroke-width="2" fill="none"></circle>
<circle cx="1668.23" cy="1361.98" r="4" stroke="rgb(0,255,157)" stroke-width="2" fill="none"></circle>
<circle cx="5138.37" cy="668.595" r="4" stroke="rgb(0,255,157)" stroke-width="2" fill="none"></circle>
<circle cx="1311.4" cy="1368.24" r="4" stroke="rgb(0,123,255)" stroke-width="2" fill="none"></circle>
<circle cx="6758.46" cy="1884.43" r="4" stroke="rgb(0,123,255)" stroke-width="2" fill="none"></circle>
<circle cx="2496.89" cy="1373.62" r="4" stroke="rgb(0,255,16)" stroke-width="2" fill="none"></circle>
<circle cx="5367.71" cy="875.302" r="4" stroke="rgb(0,255,16)" stroke-width="2" fill="none"></circle>
<circle cx="2229.57" cy="1383.62" r="4" stroke="rgb(38,255,0)" stroke-width="2" fill="none"></circle>
<circle cx="6198.17" cy="2268.93" r="4" stroke="rgb(38,255,0)" stroke-width="2" fill="none"></circle>
<circle cx="1123.52" cy="1387.63" r="4" stroke="rgb(255,0,199)" stroke-width="2" fill="none"></circle>
<circle cx="6177.51" cy="1160.53" r="4" stroke="rgb(255,0,199)" stroke-width="2" fill="none"></circle>
<circle cx="1748.78" cy="1404.42" r="4" stroke="rgb(0,89,255)" stroke-width="2" fill="none"></circle>
<circle cx="5526.2" cy="808.17" r="4" stroke="rgb(0,89,255)" stroke-width="2" fill="none"></circle>
<circle cx="2469.08" cy="1412.13" r="4" stroke="rgb(255,204,0)" stroke-width="2" fill="none"></circle>
<circle cx="5922.27" cy="1670.92" r="4" stroke="rgb(255,204,0)" stroke-width="2" fill="none"></circle>
<circle cx="2557.46" cy="1436.42" r="4" stroke="rgb(0,255,216)" stroke-width="2" fill="none"></circle>
<circle cx="6475.46" cy="650.033" r="4" stroke="rgb(0,255,216)" stroke-width="2" fill="none"></circle>
<circle cx="1048.11" cy="1476.52" r="4" stroke="rgb(0,255,106)" stroke-width="2" fill="none"></circle>
<circle cx="6142.69" cy="1528.1" r="4" stroke="rgb(0,255,106)" stroke-width="2" fill="none"></circle>
<circle cx="1887.68" cy="1490.52" r="4" stroke="rgb(255,165,0)" stroke-width="2" fill="none"></circle>
<circle cx="6148.41" cy="572.451" r="4" stroke="rgb(255,165,0)" stroke-width="2" fill="none"></circle>
<circle cx="2032" cy="1507.08" r="4" stroke="rgb(0,255,89)" stroke-width="2" fill="none"></circle>
<circle cx="5882.5" cy="436.874" r="4" stroke="rgb(0,255,89)" stroke-width="2" fill="none"></circle>
<circle cx="1723.08" cy="1507.46" r="4" stroke="rgb(255,110,0)" stroke-width="2" fill="none"></circle>
<circle cx="5579.07" cy="874.717" r="4" stroke="rgb(255,110,0)" stroke-width="2" fill="none"></circle>
<circle cx="2526.78" cy="1530.93" r="4" stroke="rgb(80,0,255)" stroke-width="2" fill="none"></circle>
<circle cx="5430.28" cy="665.152" r="4" stroke="rgb(80,0,255)" stroke-width="2" fill="none"></circle>
<circle cx="1578.64" cy="1539.61" r="4" stroke="rgb(0,216,255)" stroke-width="2" fill="none"></circle>
<circle cx="6533.31" cy="1835.26" r="4" stroke="rgb(0,216,255)" stroke-width="2" fill="none"></circle>
<circle cx="1946.55" cy="1542.18" r="4" stroke="rgb(114,255,0)" stroke-width="2" fill="none"></circle>
<circle cx="6623.58" cy="2114.54" r="4" stroke="rgb(114,255,0)" stroke-width="2" fill="none"></circle>
<circle cx="999.24" cy="1555.12" r="4" stroke="rgb(255,55,0)" stroke-width="2" fill="none"></circle>
<circle cx="6601.83" cy="1339.16" r="4" stroke="rgb(255,55,0)" stroke-width="2" fill="none"></circle>
<circle cx="1087.32" cy="1566.57" r="4" stroke="rgb(0,250,255)" stroke-width="2" fill="none"></circle>
<circle cx="6300.97" cy="776.129" r="4" stroke="rgb(0,250,255)" stroke-width="2" fill="none"></circle>
<circle cx="1792.87" cy="1593.78" r="4" stroke="rgb(59,0,255)" stroke-width="2" fill="none"></circle>
<circle cx="5192.37" cy="950.173" r="4" stroke="rgb(59,0,255)" stroke-width="2" fill="none"></circle>
<circle cx="1651.03" cy="1624.07" r="4" stroke="rgb(242,0,255)" stroke-width="2" fill="none"></circle>
<circle cx="5754.19" cy="1479.17" r="4" stroke="rgb(242,0,255)" stroke-width="2" fill="none"></circle>
<circle cx="2339.88" cy="1640.03" r="4" stroke="rgb(140,255,0)" stroke-width="2" fill="none"></circle>
<circle cx="6661.52" cy="1418.18" r="4" stroke="rgb(140,255,0)" stroke-width="2" fill="none"></circle>
<circle cx="960.867" cy="1646.59" r="4" stroke="rgb(0,161,255)" stroke-width="2" fill="none"></circle>
<circle cx="5316.94" cy="802.598" r="4" stroke="rgb(0,161,255)" stroke-width="2" fill="none"></circle>
<circle cx="892.575" cy="1649.29" r="4" stroke="rgb(255,0,216)" stroke-width="2" fill="none"></circle>
<circle cx="6023.8" cy="693.105" r="4" stroke="rgb(255,0,216)" stroke-width="2" fill="none"></circle>
<circle cx="1559.28" cy="1663.84" r="4" stroke="rgb(42,0,255)" stroke-width="2" fill="none"></circle>
<circle cx="5600.16" cy="1204.7" r="4" stroke="rgb(42,0,255)" stroke-width="2" fill="none"></circle>
<circle cx="2051.56" cy="1663.85" r="4" stroke="rgb(255,0,242)" stroke-width="2" fill="none"></circle>
<circle cx="5690.89" cy="1468" r="4" stroke="rgb(255,0,242)" stroke-width="2" fill="none"></circle>
<circle cx="926.492" cy="1667.52" r="4" stroke="rgb(255,80,0)" stroke-width="2" fill="none"></circle>
<circle cx="5280.85" cy="781.979" r="4" stroke="rgb(255,80,0)" stroke-width="2" fill="none"></circle>
<circle cx="1700.82" cy="1674.79" r="4" stroke="rgb(0,93,255)" stroke-width="2" fill="none"></circle>
<circle cx="5563.16" cy="1262.07" r="4" stroke="rgb(0,93,255)" stroke-width="2" fill="none"></circle>
<circle cx="1259.19" cy="1681.49" r="4" stroke="rgb(174,0,255)" stroke-width="2" fill="none"></circle>
<circle cx="5420.84" cy="1040.7" r="4" stroke="rgb(174,0,255)" stroke-width="2" fill="none"></circle>
<circle cx="1409.82" cy="1693.24" r="4" stroke="rgb(0,255,101)" stroke-width="2" fill="none"></circle>
<circle cx="6816.96" cy="940.63" r="4" stroke="rgb(0,255,101)" stroke-width="2" fill="none"></circle>
<circle cx="1597.48" cy="1700.69" r="4" stroke="rgb(255,0,4)" stroke-width="2" fill="none"></circle>
<circle cx="5908.03" cy="1674.97" r="4" stroke="rgb(255,0,4)" stroke-width="2" fill="none"></circle>
<circle cx="2026.8" cy="1701.76" r="4" stroke="rgb(4,0,255)" stroke-width="2" fill="none"></circle>
<circle cx="6731.46" cy="1991.59" r="4" stroke="rgb(4,0,255)" stroke-width="2" fill="none"></circle>
<circle cx="839.173" cy="1715.84" r="4" stroke="rgb(255,110,0)" stroke-width="2" fill="none"></circle>
<circle cx="6687.49" cy="844.965" r="4" stroke="rgb(255,110,0)" stroke-width="2" fill="none"></circle>
<circle cx="1614.76" cy="1725.11" r="4" stroke="rgb(0,255,152)" stroke-width="2" fill="none"></circle>
<circle cx="5922.53" cy="1506.04" r="4" stroke="rgb(0,255,152)" stroke-width="2" fill="none"></circle>
<circle cx="1458.29" cy="1740.14" r="4" stroke="rgb(255,0,153)" stroke-width="2" fill="none"></circle>
<circle cx="6993.83" cy="1907.97" r="4" stroke="rgb(255,0,153)" stroke-width="2" fill="none"></circle>
<circle cx="1927.87" cy="1746.42" r="4" stroke="rgb(255,97,0)" stroke-width="2" fill="none"></circle>
<circle cx="6557.68" cy="973.329" r="4" stroke="rgb(255,97,0)" stroke-width="2" fill="none"></circle>
<circle cx="2153.72" cy="1747.53" r="4" stroke="rgb(114,0,255)" stroke-width="2" fill="none"></circle>
<circle cx="5656.36" cy="1396.24" r="4" stroke="rgb(114,0,255)" stroke-width="2" fill="none"></circle>
<circle cx="2265.8" cy="1759.04" r="4" stroke="rgb(161,0,255)" stroke-width="2" fill="none"></circle>
<circle cx="6829.52" cy="1399.44" r="4" stroke="rgb(161,0,255)" stroke-width="2" fill="none"></circle>
<circle cx="1670.14" cy="1761.34" r="4" stroke="rgb(25,255,0)" stroke-width="2" fill="none"></circle>
<circle cx="5719.42" cy="1141.11" r="4" stroke="rgb(25,255,0)" stroke-width="2" fill="none"></circle>
<circle cx="1130.77" cy="1770.62" r="4" stroke="rgb(0,225,255)" stroke-width="2" fill="none"></circle>
<circle cx="5254.61" cy="938.346" r="4" stroke="rgb(0,225,255)" stroke-width="2" fill="none"></circle>
<circle cx="2284.48" cy="1785.36" r="4" stroke="rgb(131,255,0)" stroke-width="2" fill="none"></circle>
<circle cx="5631.62" cy="1354.58" r="4" stroke="rgb(131,255,0)" stroke-width="2" fill="none"></circle>
<circle cx="1545.96" cy="1786.89" r="4" stroke="rgb(80,0,255)" stroke-width="2" fill="none"></circle>
<circle cx="5159.13" cy="906.374" r="4" stroke="rgb(80,0,255)" stroke-width="2" fill="none"></circle>
<circle cx="2257.08" cy="1807.68" r="4" stroke="rgb(0,59,255)" stroke-width="2" fill="none"></circle>
<circle cx="5915.74" cy="2301.69" r="4" stroke="rgb(0,59,255)" stroke-width="2" fill="none"></circle>
<circle cx="2185.53" cy="1827.71" r="4" stroke="rgb(0,42,255)" stroke-width="2" fill="none"></circle>
<circle cx="5860.38" cy="658.608" r="4" stroke="rgb(0,42,255)" stroke-width="2" fill="none"></circle>
<circle cx="1680.2" cy="1836.4" r="4" stroke="rgb(0,255,157)" stroke-width="2" fill="none"></circle>
<circle cx="6541.2" cy="828.259" r="4" stroke="rgb(0,255,157)" stroke-width="2" fill="none"></circle>
<circle cx="1427.71" cy="1836.77" r="4" stroke="rgb(255,0,12)" stroke-width="2" fill="none"></circle>
<circle cx="6203.98" cy="1214.14" r="4" stroke="rgb(255,0,12)" stroke-width="2" fill="none"></circle>
<circle cx="2077.89" cy="1839.81" r="4" stroke="rgb(216,0,255)" stroke-width="2" fill="none"></circle>
<circle cx="5783.69" cy="490.634" r="4" stroke="rgb(216,0,255)" stroke-width="2" fill="none"></circle>
<circle cx="661.718" cy="1866.26" r="4" stroke="rgb(46,0,255)" stroke-width="2" fill="none"></circle>
<circle cx="6021.96" cy="809.591" r="4" stroke="rgb(46,0,255)" stroke-width="2" fill="none"></circle>
<circle cx="1368.55" cy="1925.19" r="4" stroke="rgb(255,42,0)" stroke-width="2" fill="none"></circle>
<circle cx="6044.3" cy="1344.76" r="4" stroke="rgb(255,42,0)" stroke-width="2" fill="none"></circle>
<circle cx="1046.15" cy="1926.13" r="4" stroke="rgb(33,255,0)" stroke-width="2" fill="none"></circle>
<circle cx="6508.26" cy="1728.75" r="4" stroke="rgb(33,255,0)" stroke-width="2" fill="none"></circle>
<circle cx="1090.7" cy="1940.44" r="4" stroke="rgb(0,255,106)" stroke-width="2" fill="none"></circle>
<circle cx="6335.57" cy="631.045" r="4" stroke="rgb(0,255,106)" stroke-width="2" fill="none"></circle>
<circle cx="1309.29" cy="1978.76" r="4" stroke="rgb(0,255,250)" stroke-width="2" fill="none"></circle>
<circle cx="6838.64" cy="1845.46" r="4" stroke="rgb(0,255,250)" stroke-width="2" fill="none"></circle>
</svg>