<?xml version="1.0" standalone="yes"?>
<!-- SVG graphic -->
<svg xmlns='http://www.w3.org/2000/svg' xmlns:xlink='http://www.w3.org/1999/xlink'
width="8064px" height="3024px" preserveAspectRatio="xMinYMin meet" viewBox="0 0 8064 3024" version="1.1">
<image x="0" y="0" width="4032px" height="3024px" opacity="1" xlink:href="/home/jeong/Code/2D-to-3D-Modeling-using-AI/Make3D/Image/20200227_180619.jpg"/>
<image x="4032" y="0" width="4032px" height="3024px" opacity="1" xlink:href="/home/jeong/Code/2D-to-3D-Modeling-using-AI/Make3D/Image/20200227_180705.jpg"/>
<polyline points="1158.36,243.56,5572.85,1111.51" stroke="rgb(114,255,0)" stroke-width="2" fill="none"></polyline>
<polyline points="1089.24,259.543,5877.83,1469.09" stroke="rgb(0,255,50)" stroke-width="2" fill="none"></polyline>
<polyline points="1319.02,436.428,5536.16,1528.14" stroke="rgb(255,0,21)" stroke-width="2" fill="none"></polyline>
<polyline points="1696.34,455.01,6108.49,1510.22" stroke="rgb(110,0,255)" stroke-width="2" fill="none"></polyline>
<polyline points="1789.46,484.762,6853.71,1347.75" stroke="rgb(0,42,255)" stroke-width="2" fill="none"></polyline>
<polyline points="1815.91,523.852,5774.21,788.522" stroke="rgb(0,255,208)" stroke-width="2" fill="none"></polyline>
<polyline points="619.157,549.259,5441.74,387.203" stroke="rgb(255,0,229)" stroke-width="2" fill="none"></polyline>
<polyline points="1798.8,555.572,5952.64,820.667" stroke="rgb(0,255,16)" stroke-width="2" fill="none"></polyline>
<polyline points="1947.71,575.859,5966.6,672.202" stroke="rgb(237,255,0)" stroke-width="2" fill="none"></polyline>
<polyline points="1474.97,578.986,6774.12,1746.48" stroke="rgb(0,148,255)" stroke-width="2" fill="none"></polyline>
<polyline points="1457.09,582.876,6670.33,1733.95" stroke="rgb(0,38,255)" stroke-width="2" fill="none"></polyline>
<polyline points="1986.22,597.603,5565.62,389.726" stroke="rgb(0,255,182)" stroke-width="2" fill="none"></polyline>
<polyline points="1979.33,598.313,6389,1062.35" stroke="rgb(255,0,229)" stroke-width="2" fill="none"></polyline>
<polyline points="1994.17,606.139,5673.53,389.963" stroke="rgb(0,250,255)" stroke-width="2" fill="none"></polyline>
<polyline points="679.561,625.309,5624.87,373.529" stroke="rgb(208,0,255)" stroke-width="2" fill="none"></polyline>
<polyline points="2096.1,637.058,5344.52,1732.98" stroke="rgb(0,199,255)" stroke-width="2" fill="none"></polyline>
<polyline points="1348.69,646.397,5020.02,1902.6" stroke="rgb(55,0,255)" stroke-width="2" fill="none"></polyline>
<polyline points="1886.58,654.74,6400.67,1009.07" stroke="rgb(255,165,0)" stroke-width="2" fill="none"></polyline>
<polyline points="1383.12,662.628,5592.85,1352.17" stroke="rgb(255,250,0)" stroke-width="2" fill="none"></polyline>
<polyline points="1959.59,674.741,6694.64,1324.39" stroke="rgb(12,0,255)" stroke-width="2" fill="none"></polyline>
<polyline points="2152.81,687.211,6524.88,768.697" stroke="rgb(0,255,254)" stroke-width="2" fill="none"></polyline>
<polyline points="2438.4,718.339,5665.11,1275.64" stroke="rgb(0,237,255)" stroke-width="2" fill="none"></polyline>
<polyline points="1492,728.802,6629.25,1677.66" stroke="rgb(255,0,237)" stroke-width="2" fill="none"></polyline>
<polyline points="1932.71,742.391,5951.75,509.843" stroke="rgb(0,255,21)" stroke-width="2" fill="none"></polyline>
<polyline points="778.803,760.976,5378.57,1756.9" stroke="rgb(0,255,80)" stroke-width="2" fill="none"></polyline>
<polyline points="1900.36,764.623,5557.34,1063.94" stroke="rgb(0,255,42)" stroke-width="2" fill="none"></polyline>
<polyline points="1533.98,780.165,5835.83,1791.41" stroke="rgb(255,80,0)" stroke-width="2" fill="none"></polyline>
<polyline points="1831.12,786.451,6497.93,2017.21" stroke="rgb(46,0,255)" stroke-width="2" fill="none"></polyline>
<polyline points="2207.14,790.708,6144.13,779.882" stroke="rgb(0,255,33)" stroke-width="2" fill="none"></polyline>
<polyline points="2054.95,795.237,6160.13,1885.32" stroke="rgb(255,106,0)" stroke-width="2" fill="none"></polyline>
<polyline points="2130.79,821.406,5791.83,782.136" stroke="rgb(255,127,0)" stroke-width="2" fill="none"></polyline>
<polyline points="2559.46,824.246,6150.42,1519.92" stroke="rgb(114,255,0)" stroke-width="2" fill="none"></polyline>
<polyline points="895.007,841.939,5498.66,1513.65" stroke="rgb(255,123,0)" stroke-width="2" fill="none"></polyline>
<polyline points="1434.1,853.268,5948.21,1590.77" stroke="rgb(255,106,0)" stroke-width="2" fill="none"></polyline>
<polyline points="1106.96,853.879,6800.74,1307.95" stroke="rgb(255,0,4)" stroke-width="2" fill="none"></polyline>
<polyline points="1395.99,864.019,5941.15,1340.81" stroke="rgb(80,0,255)" stroke-width="2" fill="none"></polyline>
<polyline points="1507.92,866.344,6054.42,1964.94" stroke="rgb(0,195,255)" stroke-width="2" fill="none"></polyline>
<polyline points="986.319,922.852,6392.09,1029.27" stroke="rgb(0,255,242)" stroke-width="2" fill="none"></polyline>
<polyline points="2051.03,950.6,5930.47,1255.27" stroke="rgb(255,102,0)" stroke-width="2" fill="none"></polyline>
<polyline points="2631.84,955.393,5640.05,1211.77" stroke="rgb(0,255,42)" stroke-width="2" fill="none"></polyline>
<polyline points="1970.91,990.194,6379.31,1081.7" stroke="rgb(63,0,255)" stroke-width="2" fill="none"></polyline>
<polyline points="1476.76,990.388,5708.02,930.164" stroke="rgb(0,255,29)" stroke-width="2" fill="none"></polyline>
<polyline points="1544.68,1009.53,6007.65,1656.31" stroke="rgb(229,0,255)" stroke-width="2" fill="none"></polyline>
<polyline points="2400.8,1032.06,5941.52,1921.27" stroke="rgb(0,165,255)" stroke-width="2" fill="none"></polyline>
<polyline points="2058.61,1034.23,5886.81,1210.88" stroke="rgb(255,0,216)" stroke-width="2" fill="none"></polyline>
<polyline points="2429.68,1041.06,6441.81,959.467" stroke="rgb(106,255,0)" stroke-width="2" fill="none"></polyline>
<polyline points="2429.87,1048.62,5756.01,1040.25" stroke="rgb(114,0,255)" stroke-width="2" fill="none"></polyline>
<polyline points="2000.22,1118.89,5987.82,1858.33" stroke="rgb(0,161,255)" stroke-width="2" fill="none"></polyline>
<polyline points="1902.96,1125.46,5809.45,762.314" stroke="rgb(0,255,59)" stroke-width="2" fill="none"></polyline>
<polyline points="1590.82,1133.24,6763.79,1156.07" stroke="rgb(0,178,255)" stroke-width="2" fill="none"></polyline>
<polyline points="1602.08,1197.78,6630.43,1668.32" stroke="rgb(255,0,182)" stroke-width="2" fill="none"></polyline>
<polyline points="1203.46,1252.62,6405.28,918.999" stroke="rgb(0,229,255)" stroke-width="2" fill="none"></polyline>
<polyline points="1930.68,1258.95,6318,1056.19" stroke="rgb(255,93,0)" stroke-width="2" fill="none"></polyline>
<polyline points="1385.52,1262.86,6825.62,1550.81" stroke="rgb(0,255,59)" stroke-width="2" fill="none"></polyline>
<polyline points="1207.06,1264.91,6068.84,789.478" stroke="rgb(255,0,208)" stroke-width="2" fill="none"></polyline>
<polyline points="2090.62,1266.7,6006.58,1034.21" stroke="rgb(255,144,0)" stroke-width="2" fill="none"></polyline>
<polyline points="1523.82,1286.74,5694.83,1942.24" stroke="rgb(102,0,255)" stroke-width="2" fill="none"></polyline>
<polyline points="2256.38,1289.09,5843.47,484.734" stroke="rgb(0,157,255)" stroke-width="2" fill="none"></polyline>
<polyline points="1218.88,1293.19,6747.75,1974.36" stroke="rgb(191,0,255)" stroke-width="2" fill="none"></polyline>
<polyline points="1239.47,1300.56,5496.21,1539.88" stroke="rgb(102,0,255)" stroke-width="2" fill="none"></polyline>
<polyline points="1332.57,1307.76,5678.21,1067.85" stroke="rgb(0,51,255)" stroke-width="2" fill="none"></polyline>
<polyline points="1216.4,1308.43,6001.55,753.413" stroke="rgb(255,0,191)" stroke-width="2" fill="none"></polyline>
<polyline points="2061.1,1310.2,6761.78,1877.89" stroke="rgb(255,0,12)" stroke-width="2" fill="none"></polyline>
<polyline points="2259.05,1328.6,6132.91,1620.74" stroke="rgb(0,255,38)" stroke-width="2" fill="none"></polyline>
<polyline points="1993.03,1330.4,6863.04,1605.12" stroke="rgb(0,119,255)" stroke-width="2" fill="none"></polyline>
<polyline points="2033.29,1372.96,5646.16,1185.32" stroke="rgb(0,46,255)" stroke-width="2" fill="none"></polyline>
<polyline points="2071.18,1382.19,6648.37,1536.69" stroke="rgb(255,123,0)" stroke-width="2" fill="none"></polyline>
<polyline points="1549.05,1387.53,6009.14,712.94" stroke="rgb(161,0,255)" stroke-width="2" fill="none"></polyline>
<polyline points="2073.38,1417.69,6036.53,1242.16" stroke="rgb(255,195,0)" stroke-width="2" fill="none"></polyline>
<polyline points="2053.79,1417.87,5706.94,403.039" stroke="rgb(191,0,255)" stroke-width="2" fill="none"></polyline>
<polyline points="2060.64,1419.98,6161.16,1439.41" stroke="rgb(255,208,0)" stroke-width="2" fill="none"></polyline>
<polyline points="2151.63,1425.4,6685.5,781.131" stroke="rgb(0,255,225)" stroke-width="2" fill="none"></polyline>
<polyline points="1623.98,1450.12,6019.93,1883.45" stroke="rgb(255,221,0)" stroke-width="2" fill="none"></polyline>
<polyline points="1858.61,1473.51,5909.69,1210.72" stroke="rgb(0,106,255)" stroke-width="2" fill="none"></polyline>
<polyline points="1411.2,1482.43,5401.52,687.233" stroke="rgb(255,63,0)" stroke-width="2" fill="none"></polyline>
<polyline points="1697.99,1490.06,5824.88,1877.65" stroke="rgb(0,29,255)" stroke-width="2" fill="none"></polyline>
<polyline points="1684.26,1492.44,6550.18,1054.76" stroke="rgb(255,0,212)" stroke-width="2" fill="none"></polyline>
<polyline points="2427.93,1493.83,6159.86,1270.99" stroke="rgb(0,255,144)" stroke-width="2" fill="none"></polyline>
<polyline points="1220.06,1534.08,5619.57,1116.16" stroke="rgb(191,255,0)" stroke-width="2" fill="none"></polyline>
<polyline points="2166.96,1537.07,5959.31,1727.54" stroke="rgb(255,0,187)" stroke-width="2" fill="none"></polyline>
<polyline points="1566.34,1537.51,5868.34,1831.76" stroke="rgb(255,0,33)" stroke-width="2" fill="none"></polyline>
<polyline points="2104.23,1570.5,5923.72,1219.36" stroke="rgb(106,0,255)" stroke-width="2" fill="none"></polyline>
<polyline points="1216.15,1601.49,5687.85,1964.82" stroke="rgb(255,59,0)" stroke-width="2" fill="none"></polyline>
<polyline points="1657.22,1605.72,5829.06,1858.57" stroke="rgb(29,0,255)" stroke-width="2" fill="none"></polyline>
<polyline points="2412.4,1610.05,6116.96,1760.14" stroke="rgb(255,165,0)" stroke-width="2" fill="none"></polyline>
<polyline points="1216.54,1621.49,5744.05,1622.21" stroke="rgb(0,178,255)" stroke-width="2" fill="none"></polyline>
<polyline points="2283.07,1624.33,6640.13,868.607" stroke="rgb(174,0,255)" stroke-width="2" fill="none"></polyline>
<polyline points="2226.21,1628.12,6485.76,792.237" stroke="rgb(0,255,233)" stroke-width="2" fill="none"></polyline>
<polyline points="1701.2,1640.18,5830.97,1836.82" stroke="rgb(255,174,0)" stroke-width="2" fill="none"></polyline>
<polyline points="1688.62,1642.86,5834.89,1837.19" stroke="rgb(178,255,0)" stroke-width="2" fill="none"></polyline>
<polyline points="1829.24,1663.32,6087.31,1133.58" stroke="rgb(255,0,204)" stroke-width="2" fill="none"></polyline>
<polyline points="2111.52,1676.08,6646.43,1007.16" stroke="rgb(0,255,89)" stroke-width="2" fill="none"></polyline>
<polyline points="2355.79,1691.39,5749.03,650.259" stroke="rgb(110,0,255)" stroke-width="2" fill="none"></polyline>
<polyline points="1376.84,1715.1,5669.87,1019.12" stroke="rgb(255,0,216)" stroke-width="2" fill="none"></polyline>
<polyline points="2356.4,1718.18,6744.97,2193.71" stroke="rgb(127,0,255)" stroke-width="2" fill="none"></polyline>
<polyline points="2102.94,1731.62,6117.65,788.816" stroke="rgb(8,255,0)" stroke-width="2" fill="none"></polyline>
<polyline points="2057.76,1788.12,5826.11,611.303" stroke="rgb(255,212,0)" stroke-width="2" fill="none"></polyline>
<polyline points="1994.01,1808.49,5959.31,1727.54" stroke="rgb(0,255,216)" stroke-width="2" fill="none"></polyline>
<polyline points="2007.3,1823.31,5820.77,1346.91" stroke="rgb(255,157,0)" stroke-width="2" fill="none"></polyline>
<polyline points="1991.47,1868.69,6006.98,645.022" stroke="rgb(255,0,131)" stroke-width="2" fill="none"></polyline>
<polyline points="1329.9,1883.67,6475.55,2000.28" stroke="rgb(255,0,136)" stroke-width="2" fill="none"></polyline>
<polyline points="2200.35,1896.91,5756.29,1135.52" stroke="rgb(255,0,178)" stroke-width="2" fill="none"></polyline>
<polyline points="1959.54,1900.77,5949.24,537.606" stroke="rgb(0,255,93)" stroke-width="2" fill="none"></polyline>
<polyline points="2003.67,1948.26,5844.1,1442.85" stroke="rgb(55,0,255)" stroke-width="2" fill="none"></polyline>
<polyline points="1983.89,1963.76,6188.2,1860.21" stroke="rgb(0,255,225)" stroke-width="2" fill="none"></polyline>
<polyline points="2454.84,1964.38,5724.16,926.075" stroke="rgb(255,123,0)" stroke-width="2" fill="none"></polyline>
<polyline points="2165.59,1969.57,5765.5,1014.18" stroke="rgb(0,255,25)" stroke-width="2" fill="none"></polyline>
<polyline points="1814.09,1994.01,5616.61,2065.15" stroke="rgb(255,0,21)" stroke-width="2" fill="none"></polyline>
<polyline points="1989.98,2007.69,5354.31,1980.12" stroke="rgb(0,242,255)" stroke-width="2" fill="none"></polyline>
<polyline points="1815.9,2053.89,5980.96,1565.28" stroke="rgb(195,255,0)" stroke-width="2" fill="none"></polyline>
<polyline points="2088.73,2073.1,6104.92,1008.36" stroke="rgb(0,242,255)" stroke-width="2" fill="none"></polyline>
<polyline points="2083.16,2075.74,5746.19,785.939" stroke="rgb(255,204,0)" stroke-width="2" fill="none"></polyline>
<polyline points="1280,2088.41,6357.27,674.463" stroke="rgb(255,0,89)" stroke-width="2" fill="none"></polyline>
<polyline points="1908.63,2091.67,5957.33,1853.74" stroke="rgb(0,182,255)" stroke-width="2" fill="none"></polyline>
<polyline points="2481.17,2112.56,5738.72,1545.91" stroke="rgb(233,0,255)" stroke-width="2" fill="none"></polyline>
<polyline points="1286.92,2141.02,6021.82,1860.27" stroke="rgb(42,0,255)" stroke-width="2" fill="none"></polyline>
<polyline points="2004.96,2155.02,6602.59,1836.54" stroke="rgb(114,0,255)" stroke-width="2" fill="none"></polyline>
<polyline points="1287.43,2182.45,5791.57,646.452" stroke="rgb(135,255,0)" stroke-width="2" fill="none"></polyline>
<polyline points="2434.11,2190.18,5700.65,1621.22" stroke="rgb(233,255,0)" stroke-width="2" fill="none"></polyline>
<polyline points="1657.19,2229.71,6189.89,1152.9" stroke="rgb(255,0,221)" stroke-width="2" fill="none"></polyline>
<polyline points="1612.74,2233.86,5854.55,1962.03" stroke="rgb(0,255,195)" stroke-width="2" fill="none"></polyline>
<polyline points="1588.49,2236.59,5282.22,427.941" stroke="rgb(255,72,0)" stroke-width="2" fill="none"></polyline>
<polyline points="2012.08,2236.99,5607.97,322.036" stroke="rgb(255,0,165)" stroke-width="2" fill="none"></polyline>
<polyline points="2061.98,2252.91,6166.95,988.258" stroke="rgb(203,255,0)" stroke-width="2" fill="none"></polyline>
<polyline points="1564.24,2347.22,6171.06,1091.89" stroke="rgb(0,174,255)" stroke-width="2" fill="none"></polyline>
<polyline points="1502.45,2355.61,5536.21,428.024" stroke="rgb(67,255,0)" stroke-width="2" fill="none"></polyline>
<polyline points="1893.63,2385.22,5960.71,1341.39" stroke="rgb(242,255,0)" stroke-width="2" fill="none"></polyline>
<polyline points="1933.73,2393.9,5008.99,1927.22" stroke="rgb(38,0,255)" stroke-width="2" fill="none"></polyline>
<polyline points="1695.04,2406.91,6577.08,774.836" stroke="rgb(148,0,255)" stroke-width="2" fill="none"></polyline>
<polyline points="1911.26,2416.2,5735.53,429.485" stroke="rgb(84,255,0)" stroke-width="2" fill="none"></polyline>
<polyline points="1503.57,2418.52,5426.53,1734.33" stroke="rgb(127,255,0)" stroke-width="2" fill="none"></polyline>
<polyline points="1328.24,2496.81,6665.95,1493.56" stroke="rgb(17,0,255)" stroke-width="2" fill="none"></polyline>
<polyline points="1671.7,2527.26,6165.31,1149.34" stroke="rgb(212,0,255)" stroke-width="2" fill="none"></polyline>
<polyline points="906.635,2528.78,6530.73,781.919" stroke="rgb(0,29,255)" stroke-width="2" fill="none"></polyline>
<polyline points="1229.5,2541.62,5822.04,1714.9" stroke="rgb(255,38,0)" stroke-width="2" fill="none"></polyline>
<polyline points="1560.32,2589.57,6872.97,1737.14" stroke="rgb(72,255,0)" stroke-width="2" fill="none"></polyline>
<circle cx="1158.36" cy="243.56" r="4" stroke="rgb(114,255,0)" stroke-width="2" fill="none"></circle>
<circle cx="5572.85" cy="1111.51" r="4" stroke="rgb(114,255,0)" stroke-width="2" fill="none"></circle>
<circle cx="1089.24" cy="259.543" r="4" stroke="rgb(0,255,50)" stroke-width="2" fill="none"></circle>
<circle cx="5877.83" cy="1469.09" r="4" stroke="rgb(0,255,50)" stroke-width="2" fill="none"></circle>
<circle cx="1319.02" cy="436.428" r="4" stroke="rgb(255,0,21)" stroke-width="2" fill="none"></circle>
<circle cx="5536.16" cy="1528.14" r="4" stroke="rgb(255,0,21)" stroke-width="2" fill="none"></circle>
<circle cx="1696.34" cy="455.01" r="4" stroke="rgb(110,0,255)" stroke-width="2" fill="none"></circle>
<circle cx="6108.49" cy="1510.22" r="4" stroke="rgb(110,0,255)" stroke-width="2" fill="none"></circle>
<circle cx="1789.46" cy="484.762" r="4" stroke="rgb(0,42,255)" stroke-width="2" fill="none"></circle>
<circle cx="6853.71" cy="1347.75" r="4" stroke="rgb(0,42,255)" stroke-width="2" fill="none"></circle>
<circle cx="1815.91" cy="523.852" r="4" stroke="rgb(0,255,208)" stroke-width="2" fill="none"></circle>
<circle cx="5774.21" cy="788.522" r="4" stroke="rgb(0,255,208)" stroke-width="2" fill="none"></circle>
<circle cx="619.157" cy="549.259" r="4" stroke="rgb(255,0,229)" stroke-width="2" fill="none"></circle>
<circle cx="5441.74" cy="387.203" r="4" stroke="rgb(255,0,229)" stroke-width="2" fill="none"></circle>
<circle cx="1798.8" cy="555.572" r="4" stroke="rgb(0,255,16)" stroke-width="2" fill="none"></circle>
<circle cx="5952.64" cy="820.667" r="4" stroke="rgb(0,255,16)" stroke-width="2" fill="none"></circle>
<circle cx="1947.71" cy="575.859" r="4" stroke="rgb(237,255,0)" stroke-width="2" fill="none"></circle>
<circle cx="5966.6" cy="672.202" r="4" stroke="rgb(237,255,0)" stroke-width="2" fill="none"></circle>
<circle cx="1474.97" cy="578.986" r="4" stroke="rgb(0,148,255)" stroke-width="2" fill="none"></circle>
<circle cx="6774.12" cy="1746.48" r="4" stroke="rgb(0,148,255)" stroke-width="2" fill="none"></circle>
<circle cx="1457.09" cy="582.876" r="4" stroke="rgb(0,38,255)" stroke-width="2" fill="none"></circle>
<circle cx="6670.33" cy="1733.95" r="4" stroke="rgb(0,38,255)" stroke-width="2" fill="none"></circle>
<circle cx="1986.22" cy="597.603" r="4" stroke="rgb(0,255,182)" stroke-width="2" fill="none"></circle>
<circle cx="5565.62" cy="389.726" r="4" stroke="rgb(0,255,182)" stroke-width="2" fill="none"></circle>
<circle cx="1979.33" cy="598.313" r="4" stroke="rgb(255,0,229)" stroke-width="2" fill="none"></circle>
<circle cx="6389" cy="1062.35" r="4" stroke="rgb(255,0,229)" stroke-width="2" fill="none"></circle>
<circle cx="1994.17" cy="606.139" r="4" stroke="rgb(0,250,255)" stroke-width="2" fill="none"></circle>
<circle cx="5673.53" cy="389.963" r="4" stroke="rgb(0,250,255)" stroke-width="2" fill="none"></circle>
<circle cx="679.561" cy="625.309" r="4" stroke="rgb(208,0,255)" stroke-width="2" fill="none"></circle>
<circle cx="5624.87" cy="373.529" r="4" stroke="rgb(208,0,255)" stroke-width="2" fill="none"></circle>
<circle cx="2096.1" cy="637.058" r="4" stroke="rgb(0,199,255)" stroke-width="2" fill="none"></circle>
<circle cx="5344.52" cy="1732.98" r="4" stroke="rgb(0,199,255)" stroke-width="2" fill="none"></circle>
<circle cx="1348.69" cy="646.397" r="4" stroke="rgb(55,0,255)" stroke-width="2" fill="none"></circle>
<circle cx="5020.02" cy="1902.6" r="4" stroke="rgb(55,0,255)" stroke-width="2" fill="none"></circle>
<circle cx="1886.58" cy="654.74" r="4" stroke="rgb(255,165,0)" stroke-width="2" fill="none"></circle>
<circle cx="6400.67" cy="1009.07" r="4" stroke="rgb(255,165,0)" stroke-width="2" fill="none"></circle>
<circle cx="1383.12" cy="662.628" r="4" stroke="rgb(255,250,0)" stroke-width="2" fill="none"></circle>
<circle cx="5592.85" cy="1352.17" r="4" stroke="rgb(255,250,0)" stroke-width="2" fill="none"></circle>
<circle cx="1959.59" cy="674.741" r="4" stroke="rgb(12,0,255)" stroke-width="2" fill="none"></circle>
<circle cx="6694.64" cy="1324.39" r="4" stroke="rgb(12,0,255)" stroke-width="2" fill="none"></circle>
<circle cx="2152.81" cy="687.211" r="4" stroke="rgb(0,255,254)" stroke-width="2" fill="none"></circle>
<circle cx="6524.88" cy="768.697" r="4" stroke="rgb(0,255,254)" stroke-width="2" fill="none"></circle>
<circle cx="2438.4" cy="718.339" r="4" stroke="rgb(0,237,255)" stroke-width="2" fill="none"></circle>
<circle cx="5665.11" cy="1275.64" r="4" stroke="rgb(0,237,255)" stroke-width="2" fill="none"></circle>
<circle cx="1492" cy="728.802" r="4" stroke="rgb(255,0,237)" stroke-width="2" fill="none"></circle>
<circle cx="6629.25" cy="1677.66" r="4" stroke="rgb(255,0,237)" stroke-width="2" fill="none"></circle>
<circle cx="1932.71" cy="742.391" r="4" stroke="rgb(0,255,21)" stroke-width="2" fill="none"></circle>
<circle cx="5951.75" cy="509.843" r="4" stroke="rgb(0,255,21)" stroke-width="2" fill="none"></circle>
<circle cx="778.803" cy="760.976" r="4" stroke="rgb(0,255,80)" stroke-width="2" fill="none"></circle>
<circle cx="5378.57" cy="1756.9" r="4" stroke="rgb(0,255,80)" stroke-width="2" fill="none"></circle>
<circle cx="1900.36" cy="764.623" r="4" stroke="rgb(0,255,42)" stroke-width="2" fill="none"></circle>
<circle cx="5557.34" cy="1063.94" r="4" stroke="rgb(0,255,42)" stroke-width="2" fill="none"></circle>
<circle cx="1533.98" cy="780.165" r="4" stroke="rgb(255,80,0)" stroke-width="2" fill="none"></circle>
<circle cx="5835.83" cy="1791.41" r="4" stroke="rgb(255,80,0)" stroke-width="2" fill="none"></circle>
<circle cx="1831.12" cy="786.451" r="4" stroke="rgb(46,0,255)" stroke-width="2" fill="none"></circle>
<circle cx="6497.93" cy="2017.21" r="4" stroke="rgb(46,0,255)" stroke-width="2" fill="none"></circle>
<circle cx="2207.14" cy="790.708" r="4" stroke="rgb(0,255,33)" stroke-width="2" fill="none"></circle>
<circle cx="6144.13" cy="779.882" r="4" stroke="rgb(0,255,33)" stroke-width="2" fill="none"></circle>
<circle cx="2054.95" cy="795.237" r="4" stroke="rgb(255,106,0)" stroke-width="2" fill="none"></circle>
<circle cx="6160.13" cy="1885.32" r="4" stroke="rgb(255,106,0)" stroke-width="2" fill="none"></circle>
<circle cx="2130.79" cy="821.406" r="4" stroke="rgb(255,127,0)" stroke-width="2" fill="none"></circle>
<circle cx="5791.83" cy="782.136" r="4" stroke="rgb(255,127,0)" stroke-width="2" fill="none"></circle>
<circle cx="2559.46" cy="824.246" r="4" stroke="rgb(114,255,0)" stroke-width="2" fill="none"></circle>
<circle cx="6150.42" cy="1519.92" r="4" stroke="rgb(114,255,0)" stroke-width="2" fill="none"></circle>
<circle cx="895.007" cy="841.939" r="4" stroke="rgb(255,123,0)" stroke-width="2" fill="none"></circle>
<circle cx="5498.66" cy="1513.65" r="4" stroke="rgb(255,123,0)" stroke-width="2" fill="none"></circle>
<circle cx="1434.1" cy="853.268" r="4" stroke="rgb(255,106,0)" stroke-width="2" fill="none"></circle>
<circle cx="5948.21" cy="1590.77" r="4" stroke="rgb(255,106,0)" stroke-width="2" fill="none"></circle>
<circle cx="1106.96" cy="853.879" r="4" stroke="rgb(255,0,4)" stroke-width="2" fill="none"></circle>
<circle cx="6800.74" cy="1307.95" r="4" stroke="rgb(255,0,4)" stroke-width="2" fill="none"></circle>
<circle cx="1395.99" cy="864.019" r="4" stroke="rgb(80,0,255)" stroke-width="2" fill="none"></circle>
<circle cx="5941.15" cy="1340.81" r="4" stroke="rgb(80,0,255)" stroke-width="2" fill="none"></circle>
<circle cx="1507.92" cy="866.344" r="4" stroke="rgb(0,195,255)" stroke-width="2" fill="none"></circle>
<circle cx="6054.42" cy="1964.94" r="4" stroke="rgb(0,195,255)" stroke-width="2" fill="none"></circle>
<circle cx="986.319" cy="922.852" r="4" stroke="rgb(0,255,242)" stroke-width="2" fill="none"></circle>
<circle cx="6392.09" cy="1029.27" r="4" stroke="rgb(0,255,242)" stroke-width="2" fill="none"></circle>
<circle cx="2051.03" cy="950.6" r="4" stroke="rgb(255,102,0)" stroke-width="2" fill="none"></circle>
<circle cx="5930.47" cy="1255.27" r="4" stroke="rgb(255,102,0)" stroke-width="2" fill="none"></circle>
<circle cx="2631.84" cy="955.393" r="4" stroke="rgb(0,255,42)" stroke-width="2" fill="none"></circle>
<circle cx="5640.05" cy="1211.77" r="4" stroke="rgb(0,255,42)" stroke-width="2" fill="none"></circle>
<circle cx="1970.91" cy="990.194" r="4" stroke="rgb(63,0,255)" stroke-width="2" fill="none"></circle>
<circle cx="6379.31" cy="1081.7" r="4" stroke="rgb(63,0,255)" stroke-width="2" fill="none"></circle>
<circle cx="1476.76" cy="990.388" r="4" stroke="rgb(0,255,29)" stroke-width="2" fill="none"></circle>
<circle cx="5708.02" cy="930.164" r="4" stroke="rgb(0,255,29)" stroke-width="2" fill="none"></circle>
<circle cx="1544.68" cy="1009.53" r="4" stroke="rgb(229,0,255)" stroke-width="2" fill="none"></circle>
<circle cx="6007.65" cy="1656.31" r="4" stroke="rgb(229,0,255)" stroke-width="2" fill="none"></circle>
<circle cx="2400.8" cy="1032.06" r="4" stroke="rgb(0,165,255)" stroke-width="2" fill="none"></circle>
<circle cx="5941.52" cy="1921.27" r="4" stroke="rgb(0,165,255)" stroke-width="2" fill="none"></circle>
<circle cx="2058.61" cy="1034.23" r="4" stroke="rgb(255,0,216)" stroke-width="2" fill="none"></circle>
<circle cx="5886.81" cy="1210.88" r="4" stroke="rgb(255,0,216)" stroke-width="2" fill="none"></circle>
<circle cx="2429.68" cy="1041.06" r="4" stroke="rgb(106,255,0)" stroke-width="2" fill="none"></circle>
<circle cx="6441.81" cy="959.467" r="4" stroke="rgb(106,255,0)" stroke-width="2" fill="none"></circle>
<circle cx="2429.87" cy="1048.62" r="4" stroke="rgb(114,0,255)" stroke-width="2" fill="none"></circle>
<circle cx="5756.01" cy="1040.25" r="4" stroke="rgb(114,0,255)" stroke-width="2" fill="none"></circle>
<circle cx="2000.22" cy="1118.89" r="4" stroke="rgb(0,161,255)" stroke-width="2" fill="none"></circle>
<circle cx="5987.82" cy="1858.33" r="4" stroke="rgb(0,161,255)" stroke-width="2" fill="none"></circle>
<circle cx="1902.96" cy="1125.46" r="4" stroke="rgb(0,255,59)" stroke-width="2" fill="none"></circle>
<circle cx="5809.45" cy="762.314" r="4" stroke="rgb(0,255,59)" stroke-width="2" fill="none"></circle>
<circle cx="1590.82" cy="1133.24" r="4" stroke="rgb(0,178,255)" stroke-width="2" fill="none"></circle>
<circle cx="6763.79" cy="1156.07" r="4" stroke="rgb(0,178,255)" stroke-width="2" fill="none"></circle>
<circle cx="1602.08" cy="1197.78" r="4" stroke="rgb(255,0,182)" stroke-width="2" fill="none"></circle>
<circle cx="6630.43" cy="1668.32" r="4" stroke="rgb(255,0,182)" stroke-width="2" fill="none"></circle>
<circle cx="1203.46" cy="1252.62" r="4" stroke="rgb(0,229,255)" stroke-width="2" fill="none"></circle>
<circle cx="6405.28" cy="918.999" r="4" stroke="rgb(0,229,255)" stroke-width="2" fill="none"></circle>
<circle cx="1930.68" cy="1258.95" r="4" stroke="rgb(255,93,0)" stroke-width="2" fill="none"></circle>
<circle cx="6318" cy="1056.19" r="4" stroke="rgb(255,93,0)" stroke-width="2" fill="none"></circle>
<circle cx="1385.52" cy="1262.86" r="4" stroke="rgb(0,255,59)" stroke-width="2" fill="none"></circle>
<circle cx="6825.62" cy="1550.81" r="4" stroke="rgb(0,255,59)" stroke-width="2" fill="none"></circle>
<circle cx="1207.06" cy="1264.91" r="4" stroke="rgb(255,0,208)" stroke-width="2" fill="none"></circle>
<circle cx="6068.84" cy="789.478" r="4" stroke="rgb(255,0,208)" stroke-width="2" fill="none"></circle>
<circle cx="2090.62" cy="1266.7" r="4" stroke="rgb(255,144,0)" stroke-width="2" fill="none"></circle>
<circle cx="6006.58" cy="1034.21" r="4" stroke="rgb(255,144,0)" stroke-width="2" fill="none"></circle>
<circle cx="1523.82" cy="1286.74" r="4" stroke="rgb(102,0,255)" stroke-width="2" fill="none"></circle>
<circle cx="5694.83" cy="1942.24" r="4" stroke="rgb(102,0,255)" stroke-width="2" fill="none"></circle>
<circle cx="2256.38" cy="1289.09" r="4" stroke="rgb(0,157,255)" stroke-width="2" fill="none"></circle>
<circle cx="5843.47" cy="484.734" r="4" stroke="rgb(0,157,255)" stroke-width="2" fill="none"></circle>
<circle cx="1218.88" cy="1293.19" r="4" stroke="rgb(191,0,255)" stroke-width="2" fill="none"></circle>
<circle cx="6747.75" cy="1974.36" r="4" stroke="rgb(191,0,255)" stroke-width="2" fill="none"></circle>
<circle cx="1239.47" cy="1300.56" r="4" stroke="rgb(102,0,255)" stroke-width="2" fill="none"></circle>
<circle cx="5496.21" cy="1539.88" r="4" stroke="rgb(102,0,255)" stroke-width="2" fill="none"></circle>
<circle cx="1332.57" cy="1307.76" r="4" stroke="rgb(0,51,255)" stroke-width="2" fill="none"></circle>
<circle cx="5678.21" cy="1067.85" r="4" stroke="rgb(0,51,255)" stroke-width="2" fill="none"></circle>
<circle cx="1216.4" cy="1308.43" r="4" stroke="rgb(255,0,191)" stroke-width="2" fill="none"></circle>
<circle cx="6001.55" cy="753.413" r="4" stroke="rgb(255,0,191)" stroke-width="2" fill="none"></circle>
<circle cx="2061.1" cy="1310.2" r="4" stroke="rgb(255,0,12)" stroke-width="2" fill="none"></circle>
<circle cx="6761.78" cy="1877.89" r="4" stroke="rgb(255,0,12)" stroke-width="2" fill="none"></circle>
<circle cx="2259.05" cy="1328.6" r="4" stroke="rgb(0,255,38)" stroke-width="2" fill="none"></circle>
<circle cx="6132.91" cy="1620.74" r="4" stroke="rgb(0,255,38)" stroke-width="2" fill="none"></circle>
<circle cx="1993.03" cy="1330.4" r="4" stroke="rgb(0,119,255)" stroke-width="2" fill="none"></circle>
<circle cx="6863.04" cy="1605.12" r="4" stroke="rgb(0,119,255)" stroke-width="2" fill="none"></circle>
<circle cx="2033.29" cy="1372.96" r="4" stroke="rgb(0,46,255)" stroke-width="2" fill="none"></circle>
<circle cx="5646.16" cy="1185.32" r="4" stroke="rgb(0,46,255)" stroke-width="2" fill="none"></circle>
<circle cx="2071.18" cy="1382.19" r="4" stroke="rgb(255,123,0)" stroke-width="2" fill="none"></circle>
<circle cx="6648.37" cy="1536.69" r="4" stroke="rgb(255,123,0)" stroke-width="2" fill="none"></circle>
<circle cx="1549.05" cy="1387.53" r="4" stroke="rgb(161,0,255)" stroke-width="2" fill="none"></circle>
<circle cx="6009.14" cy="712.94" r="4" stroke="rgb(161,0,255)" stroke-width="2" fill="none"></circle>
<circle cx="2073.38" cy="1417.69" r="4" stroke="rgb(255,195,0)" stroke-width="2" fill="none"></circle>
<circle cx="6036.53" cy="1242.16" r="4" stroke="rgb(255,195,0)" stroke-width="2" fill="none"></circle>
<circle cx="2053.79" cy="1417.87" r="4" stroke="rgb(191,0,255)" stroke-width="2" fill="none"></circle>
<circle cx="5706.94" cy="403.039" r="4" stroke="rgb(191,0,255)" stroke-width="2" fill="none"></circle>
<circle cx="2060.64" cy="1419.98" r="4" stroke="rgb(255,208,0)" stroke-width="2" fill="none"></circle>
<circle cx="6161.16" cy="1439.41" r="4" stroke="rgb(255,208,0)" stroke-width="2" fill="none"></circle>
<circle cx="2151.63" cy="1425.4" r="4" stroke="rgb(0,255,225)" stroke-width="2" fill="none"></circle>
<circle cx="6685.5" cy="781.131" r="4" stroke="rgb(0,255,225)" stroke-width="2" fill="none"></circle>
<circle cx="1623.98" cy="1450.12" r="4" stroke="rgb(255,221,0)" stroke-width="2" fill="none"></circle>
<circle cx="6019.93" cy="1883.45" r="4" stroke="rgb(255,221,0)" stroke-width="2" fill="none"></circle>
<circle cx="1858.61" cy="1473.51" r="4" stroke="rgb(0,106,255)" stroke-width="2" fill="none"></circle>
<circle cx="5909.69" cy="1210.72" r="4" stroke="rgb(0,106,255)" stroke-width="2" fill="none"></circle>
<circle cx="1411.2" cy="1482.43" r="4" stroke="rgb(255,63,0)" stroke-width="2" fill="none"></circle>
<circle cx="5401.52" cy="687.233" r="4" stroke="rgb(255,63,0)" stroke-width="2" fill="none"></circle>
<circle cx="1697.99" cy="1490.06" r="4" stroke="rgb(0,29,255)" stroke-width="2" fill="none"></circle>
<circle cx="5824.88" cy="1877.65" r="4" stroke="rgb(0,29,255)" stroke-width="2" fill="none"></circle>
<circle cx="1684.26" cy="1492.44" r="4" stroke="rgb(255,0,212)" stroke-width="2" fill="none"></circle>
<circle cx="6550.18" cy="1054.76" r="4" stroke="rgb(255,0,212)" stroke-width="2" fill="none"></circle>
<circle cx="2427.93" cy="1493.83" r="4" stroke="rgb(0,255,144)" stroke-width="2" fill="none"></circle>
<circle cx="6159.86" cy="1270.99" r="4" stroke="rgb(0,255,144)" stroke-width="2" fill="none"></circle>
<circle cx="1220.06" cy="1534.08" r="4" stroke="rgb(191,255,0)" stroke-width="2" fill="none"></circle>
<circle cx="5619.57" cy="1116.16" r="4" stroke="rgb(191,255,0)" stroke-width="2" fill="none"></circle>
<circle cx="2166.96" cy="1537.07" r="4" stroke="rgb(255,0,187)" stroke-width="2" fill="none"></circle>
<circle cx="5959.31" cy="1727.54" r="4" stroke="rgb(255,0,187)" stroke-width="2" fill="none"></circle>
<circle cx="1566.34" cy="1537.51" r="4" stroke="rgb(255,0,33)" stroke-width="2" fill="none"></circle>
<circle cx="5868.34" cy="1831.76" r="4" stroke="rgb(255,0,33)" stroke-width="2" fill="none"></circle>
<circle cx="2104.23" cy="1570.5" r="4" stroke="rgb(106,0,255)" stroke-width="2" fill="none"></circle>
<circle cx="5923.72" cy="1219.36" r="4" stroke="rgb(106,0,255)" stroke-width="2" fill="none"></circle>
<circle cx="1216.15" cy="1601.49" r="4" stroke="rgb(255,59,0)" stroke-width="2" fill="none"></circle>
<circle cx="5687.85" cy="1964.82" r="4" stroke="rgb(255,59,0)" stroke-width="2" fill="none"></circle>
<circle cx="1657.22" cy="1605.72" r="4" stroke="rgb(29,0,255)" stroke-width="2" fill="none"></circle>
<circle cx="5829.06" cy="1858.57" r="4" stroke="rgb(29,0,255)" stroke-width="2" fill="none"></circle>
<circle cx="2412.4" cy="1610.05" r="4" stroke="rgb(255,165,0)" stroke-width="2" fill="none"></circle>
<circle cx="6116.96" cy="1760.14" r="4" stroke="rgb(255,165,0)" stroke-width="2" fill="none"></circle>
<circle cx="1216.54" cy="1621.49" r="4" stroke="rgb(0,178,255)" stroke-width="2" fill="none"></circle>
<circle cx="5744.05" cy="1622.21" r="4" stroke="rgb(0,178,255)" stroke-width="2" fill="none"></circle>
<circle cx="2283.07" cy="1624.33" r="4" stroke="rgb(174,0,255)" stroke-width="2" fill="none"></circle>
<circle cx="6640.13" cy="868.607" r="4" stroke="rgb(174,0,255)" stroke-width="2" fill="none"></circle>
<circle cx="2226.21" cy="1628.12" r="4" stroke="rgb(0,255,233)" stroke-width="2" fill="none"></circle>
<circle cx="6485.76" cy="792.237" r="4" stroke="rgb(0,255,233)" stroke-width="2" fill="none"></circle>
<circle cx="1701.2" cy="1640.18" r="4" stroke="rgb(255,174,0)" stroke-width="2" fill="none"></circle>
<circle cx="5830.97" cy="1836.82" r="4" stroke="rgb(255,174,0)" stroke-width="2" fill="none"></circle>
<circle cx="1688.62" cy="1642.86" r="4" stroke="rgb(178,255,0)" stroke-width="2" fill="none"></circle>
<circle cx="5834.89" cy="1837.19" r="4" stroke="rgb(178,255,0)" stroke-width="2" fill="none"></circle>
<circle cx="1829.24" cy="1663.32" r="4" stroke="rgb(255,0,204)" stroke-width="2" fill="none"></circle>
<circle cx="6087.31" cy="1133.58" r="4" stroke="rgb(255,0,204)" stroke-width="2" fill="none"></circle>
<circle cx="2111.52" cy="1676.08" r="4" stroke="rgb(0,255,89)" stroke-width="2" fill="none"></circle>
<circle cx="6646.43" cy="1007.16" r="4" stroke="rgb(0,255,89)" stroke-width="2" fill="none"></circle>
<circle cx="2355.79" cy="1691.39" r="4" stroke="rgb(110,0,255)" stroke-width="2" fill="none"></circle>
<circle cx="5749.03" cy="650.259" r="4" stroke="rgb(110,0,255)" stroke-width="2" fill="none"></circle>
<circle cx="1376.84" cy="1715.1" r="4" stroke="rgb(255,0,216)" stroke-width="2" fill="none"></circle>
<circle cx="5669.87" cy="1019.12" r="4" stroke="rgb(255,0,216)" stroke-width="2" fill="none"></circle>
<circle cx="2356.4" cy="1718.18" r="4" stroke="rgb(127,0,255)" stroke-width="2" fill="none"></circle>
<circle cx="6744.97" cy="2193.71" r="4" stroke="rgb(127,0,255)" stroke-width="2" fill="none"></circle>
<circle cx="2102.94" cy="1731.62" r="4" stroke="rgb(8,255,0)" stroke-width="2" fill="none"></circle>
<circle cx="6117.65" cy="788.816" r="4" stroke="rgb(8,255,0)" stroke-width="2" fill="none"></circle>
<circle cx="2057.76" cy="1788.12" r="4" stroke="rgb(255,212,0)" stroke-width="2" fill="none"></circle>
<circle cx="5826.11" cy="611.303" r="4" stroke="rgb(255,212,0)" stroke-width="2" fill="none"></circle>
<circle cx="1994.01" cy="1808.49" r="4" stroke="rgb(0,255,216)" stroke-width="2" fill="none"></circle>
<circle cx="5959.31" cy="1727.54" r="4" stroke="rgb(0,255,216)" stroke-width="2" fill="none"></circle>
<circle cx="2007.3" cy="1823.31" r="4" stroke="rgb(255,157,0)" stroke-width="2" fill="none"></circle>
<circle cx="5820.77" cy="1346.91" r="4" stroke="rgb(255,157,0)" stroke-width="2" fill="none"></circle>
<circle cx="1991.47" cy="1868.69" r="4" stroke="rgb(255,0,131)" stroke-width="2" fill="none"></circle>
<circle cx="6006.98" cy="645.022" r="4" stroke="rgb(255,0,131)" stroke-width="2" fill="none"></circle>
<circle cx="1329.9" cy="1883.67" r="4" stroke="rgb(255,0,136)" stroke-width="2" fill="none"></circle>
<circle cx="6475.55" cy="2000.28" r="4" stroke="rgb(255,0,136)" stroke-width="2" fill="none"></circle>
<circle cx="2200.35" cy="1896.91" r="4" stroke="rgb(255,0,178)" stroke-width="2" fill="none"></circle>
<circle cx="5756.29" cy="1135.52" r="4" stroke="rgb(255,0,178)" stroke-width="2" fill="none"></circle>
<circle cx="1959.54" cy="1900.77" r="4" stroke="rgb(0,255,93)" stroke-width="2" fill="none"></circle>
<circle cx="5949.24" cy="537.606" r="4" stroke="rgb(0,255,93)" stroke-width="2" fill="none"></circle>
<circle cx="2003.67" cy="1948.26" r="4" stroke="rgb(55,0,255)" stroke-width="2" fill="none"></circle>
<circle cx="5844.1" cy="1442.85" r="4" stroke="rgb(55,0,255)" stroke-width="2" fill="none"></circle>
<circle cx="1983.89" cy="1963.76" r="4" stroke="rgb(0,255,225)" stroke-width="2" fill="none"></circle>
<circle cx="6188.2" cy="1860.21" r="4" stroke="rgb(0,255,225)" stroke-width="2" fill="none"></circle>
<circle cx="2454.84" cy="1964.38" r="4" stroke="rgb(255,123,0)" stroke-width="2" fill="none"></circle>
<circle cx="5724.16" cy="926.075" r="4" stroke="rgb(255,123,0)" stroke-width="2" fill="none"></circle>
<circle cx="2165.59" cy="1969.57" r="4" stroke="rgb(0,255,25)" stroke-width="2" fill="none"></circle>
<circle cx="5765.5" cy="1014.18" r="4" stroke="rgb(0,255,25)" stroke-width="2" fill="none"></circle>
<circle cx="1814.09" cy="1994.01" r="4" stroke="rgb(255,0,21)" stroke-width="2" fill="none"></circle>
<circle cx="5616.61" cy="2065.15" r="4" stroke="rgb(255,0,21)" stroke-width="2" fill="none"></circle>
<circle cx="1989.98" cy="2007.69" r="4" stroke="rgb(0,242,255)" stroke-width="2" fill="none"></circle>
<circle cx="5354.31" cy="1980.12" r="4" stroke="rgb(0,242,255)" stroke-width="2" fill="none"></circle>
<circle cx="1815.9" cy="2053.89" r="4" stroke="rgb(195,255,0)" stroke-width="2" fill="none"></circle>
<circle cx="5980.96" cy="1565.28" r="4" stroke="rgb(195,255,0)" stroke-width="2" fill="none"></circle>
<circle cx="2088.73" cy="2073.1" r="4" stroke="rgb(0,242,255)" stroke-width="2" fill="none"></circle>
<circle cx="6104.92" cy="1008.36" r="4" stroke="rgb(0,242,255)" stroke-width="2" fill="none"></circle>
<circle cx="2083.16" cy="2075.74" r="4" stroke="rgb(255,204,0)" stroke-width="2" fill="none"></circle>
<circle cx="5746.19" cy="785.939" r="4" stroke="rgb(255,204,0)" stroke-width="2" fill="none"></circle>
<circle cx="1280" cy="2088.41" r="4" stroke="rgb(255,0,89)" stroke-width="2" fill="none"></circle>
<circle cx="6357.27" cy="674.463" r="4" stroke="rgb(255,0,89)" stroke-width="2" fill="none"></circle>
<circle cx="1908.63" cy="2091.67" r="4" stroke="rgb(0,182,255)" stroke-width="2" fill="none"></circle>
<circle cx="5957.33" cy="1853.74" r="4" stroke="rgb(0,182,255)" stroke-width="2" fill="none"></circle>
<circle cx="2481.17" cy="2112.56" r="4" stroke="rgb(233,0,255)" stroke-width="2" fill="none"></circle>
<circle cx="5738.72" cy="1545.91" r="4" stroke="rgb(233,0,255)" stroke-width="2" fill="none"></circle>
<circle cx="1286.92" cy="2141.02" r="4" stroke="rgb(42,0,255)" stroke-width="2" fill="none"></circle>
<circle cx="6021.82" cy="1860.27" r="4" stroke="rgb(42,0,255)" stroke-width="2" fill="none"></circle>
<circle cx="2004.96" cy="2155.02" r="4" stroke="rgb(114,0,255)" stroke-width="2" fill="none"></circle>
<circle cx="6602.59" cy="1836.54" r="4" stroke="rgb(114,0,255)" stroke-width="2" fill="none"></circle>
<circle cx="1287.43" cy="2182.45" r="4" stroke="rgb(135,255,0)" stroke-width="2" fill="none"></circle>
<circle cx="5791.57" cy="646.452" r="4" stroke="rgb(135,255,0)" stroke-width="2" fill="none"></circle>
<circle cx="2434.11" cy="2190.18" r="4" stroke="rgb(233,255,0)" stroke-width="2" fill="none"></circle>
<circle cx="5700.65" cy="1621.22" r="4" stroke="rgb(233,255,0)" stroke-width="2" fill="none"></circle>
<circle cx="1657.19" cy="2229.71" r="4" stroke="rgb(255,0,221)" stroke-width="2" fill="none"></circle>
<circle cx="6189.89" cy="1152.9" r="4" stroke="rgb(255,0,221)" stroke-width="2" fill="none"></circle>
<circle cx="1612.74" cy="2233.86" r="4" stroke="rgb(0,255,195)" stroke-width="2" fill="none"></circle>
<circle cx="5854.55" cy="1962.03" r="4" stroke="rgb(0,255,195)" stroke-width="2" fill="none"></circle>
<circle cx="1588.49" cy="2236.59" r="4" stroke="rgb(255,72,0)" stroke-width="2" fill="none"></circle>
<circle cx="5282.22" cy="427.941" r="4" stroke="rgb(255,72,0)" stroke-width="2" fill="none"></circle>
<circle cx="2012.08" cy="2236.99" r="4" stroke="rgb(255,0,165)" stroke-width="2" fill="none"></circle>
<circle cx="5607.97" cy="322.036" r="4" stroke="rgb(255,0,165)" stroke-width="2" fill="none"></circle>
<circle cx="2061.98" cy="2252.91" r="4" stroke="rgb(203,255,0)" stroke-width="2" fill="none"></circle>
<circle cx="6166.95" cy="988.258" r="4" stroke="rgb(203,255,0)" stroke-width="2" fill="none"></circle>
<circle cx="1564.24" cy="2347.22" r="4" stroke="rgb(0,174,255)" stroke-width="2" fill="none"></circle>
<circle cx="6171.06" cy="1091.89" r="4" stroke="rgb(0,174,255)" stroke-width="2" fill="none"></circle>
<circle cx="1502.45" cy="2355.61" r="4" stroke="rgb(67,255,0)" stroke-width="2" fill="none"></circle>
<circle cx="5536.21" cy="428.024" r="4" stroke="rgb(67,255,0)" stroke-width="2" fill="none"></circle>
<circle cx="1893.63" cy="2385.22" r="4" stroke="rgb(242,255,0)" stroke-width="2" fill="none"></circle>
<circle cx="5960.71" cy="1341.39" r="4" stroke="rgb(242,255,0)" stroke-width="2" fill="none"></circle>
<circle cx="1933.73" cy="2393.9" r="4" stroke="rgb(38,0,255)" stroke-width="2" fill="none"></circle>
<circle cx="5008.99" cy="1927.22" r="4" stroke="rgb(38,0,255)" stroke-width="2" fill="none"></circle>
<circle cx="1695.04" cy="2406.91" r="4" stroke="rgb(148,0,255)" stroke-width="2" fill="none"></circle>
<circle cx="6577.08" cy="774.836" r="4" stroke="rgb(148,0,255)" stroke-width="2" fill="none"></circle>
<circle cx="1911.26" cy="2416.2" r="4" stroke="rgb(84,255,0)" stroke-width="2" fill="none"></circle>
<circle cx="5735.53" cy="429.485" r="4" stroke="rgb(84,255,0)" stroke-width="2" fill="none"></circle>
<circle cx="1503.57" cy="2418.52" r="4" stroke="rgb(127,255,0)" stroke-width="2" fill="none"></circle>
<circle cx="5426.53" cy="1734.33" r="4" stroke="rgb(127,255,0)" stroke-width="2" fill="none"></circle>
<circle cx="1328.24" cy="2496.81" r="4" stroke="rgb(17,0,255)" stroke-width="2" fill="none"></circle>
<circle cx="6665.95" cy="1493.56" r="4" stroke="rgb(17,0,255)" stroke-width="2" fill="none"></circle>
<circle cx="1671.7" cy="2527.26" r="4" stroke="rgb(212,0,255)" stroke-width="2" fill="none"></circle>
<circle cx="6165.31" cy="1149.34" r="4" stroke="rgb(212,0,255)" stroke-width="2" fill="none"></circle>
<circle cx="906.635" cy="2528.78" r="4" stroke="rgb(0,29,255)" stroke-width="2" fill="none"></circle>
<circle cx="6530.73" cy="781.919" r="4" stroke="rgb(0,29,255)" stroke-width="2" fill="none"></circle>
<circle cx="1229.5" cy="2541.62" r="4" stroke="rgb(255,38,0)" stroke-width="2" fill="none"></circle>
<circle cx="5822.04" cy="1714.9" r="4" stroke="rgb(255,38,0)" stroke-width="2" fill="none"></circle>
<circle cx="1560.32" cy="2589.57" r="4" stroke="rgb(72,255,0)" stroke-width="2" fill="none"></circle>
<circle cx="6872.97" cy="1737.14" r="4" stroke="rgb(72,255,0)" stroke-width="2" fill="none"></circle>
</svg>