<?xml version="1.0" standalone="yes"?>
<!-- SVG graphic -->
<svg xmlns='http://www.w3.org/2000/svg' xmlns:xlink='http://www.w3.org/1999/xlink'
width="8064px" height="3024px" preserveAspectRatio="xMinYMin meet" viewBox="0 0 8064 3024" version="1.1">
<image x="0" y="0" width="4032px" height="3024px" opacity="1" xlink:href="/home/jeong/Code/2D-to-3D-Modeling-using-AI/Make3D/Image/20200227_180724.jpg"/>
<image x="4032" y="0" width="4032px" height="3024px" opacity="1" xlink:href="/home/jeong/Code/2D-to-3D-Modeling-using-AI/Make3D/Image/20200227_180808.jpg"/>
<polyline points="1359.48,732.753,6855.81,2025.81" stroke="rgb(42,255,0)" stroke-width="2" fill="none"></polyline>
<polyline points="1353.84,756.158,6216.47,1238.28" stroke="rgb(255,0,97)" stroke-width="2" fill="none"></polyline>
<polyline points="2203.64,815.864,6589.26,1737.62" stroke="rgb(255,12,0)" stroke-width="2" fill="none"></polyline>
<polyline points="2205.94,818.949,5943.88,1005.93" stroke="rgb(255,97,0)" stroke-width="2" fill="none"></polyline>
<polyline points="2428.41,848.822,5672.52,1939.07" stroke="rgb(255,0,42)" stroke-width="2" fill="none"></polyline>
<polyline points="1657.13,884.142,6057.78,317.091" stroke="rgb(0,255,157)" stroke-width="2" fill="none"></polyline>
<polyline points="2269.13,899.413,5429.89,1014.15" stroke="rgb(255,8,0)" stroke-width="2" fill="none"></polyline>
<polyline points="1525.09,899.502,7199.12,1701.54" stroke="rgb(0,255,220)" stroke-width="2" fill="none"></polyline>
<polyline points="1487.69,925.443,6600.29,1008.16" stroke="rgb(0,255,131)" stroke-width="2" fill="none"></polyline>
<polyline points="2493.23,973.635,6711.35,1544.36" stroke="rgb(0,106,255)" stroke-width="2" fill="none"></polyline>
<polyline points="2441.51,983.239,6924.82,1198.11" stroke="rgb(255,0,221)" stroke-width="2" fill="none"></polyline>
<polyline points="2431.89,986.496,6016.29,1494.7" stroke="rgb(255,246,0)" stroke-width="2" fill="none"></polyline>
<polyline points="2283.59,1003.37,6895.61,1527.02" stroke="rgb(255,46,0)" stroke-width="2" fill="none"></polyline>
<polyline points="1434.25,1010.19,6616.67,1308.86" stroke="rgb(0,127,255)" stroke-width="2" fill="none"></polyline>
<polyline points="1979.32,1018.83,5878.83,1236.3" stroke="rgb(0,255,29)" stroke-width="2" fill="none"></polyline>
<polyline points="2748.49,1032.55,7045.82,580.053" stroke="rgb(255,34,0)" stroke-width="2" fill="none"></polyline>
<polyline points="2024.49,1044.95,6660.31,1406.48" stroke="rgb(255,127,0)" stroke-width="2" fill="none"></polyline>
<polyline points="2558.12,1052.14,5687,1700.11" stroke="rgb(0,255,135)" stroke-width="2" fill="none"></polyline>
<polyline points="1537.21,1066.65,5892.91,1581.83" stroke="rgb(135,255,0)" stroke-width="2" fill="none"></polyline>
<polyline points="2429.02,1067.3,6736.47,1279.21" stroke="rgb(38,0,255)" stroke-width="2" fill="none"></polyline>
<polyline points="2609.58,1069.99,6364.18,1652.28" stroke="rgb(59,255,0)" stroke-width="2" fill="none"></polyline>
<polyline points="1578.57,1080.78,7042.39,1909.17" stroke="rgb(182,255,0)" stroke-width="2" fill="none"></polyline>
<polyline points="1964.45,1095.5,5907.71,953.613" stroke="rgb(255,97,0)" stroke-width="2" fill="none"></polyline>
<polyline points="2737.46,1099.78,5722.44,1981.49" stroke="rgb(0,255,250)" stroke-width="2" fill="none"></polyline>
<polyline points="2806.24,1102.01,6619.41,2013.26" stroke="rgb(255,0,165)" stroke-width="2" fill="none"></polyline>
<polyline points="2883.98,1116.77,5730.26,1752.48" stroke="rgb(16,255,0)" stroke-width="2" fill="none"></polyline>
<polyline points="2860.14,1153.85,6289.63,1651.89" stroke="rgb(85,0,255)" stroke-width="2" fill="none"></polyline>
<polyline points="2782.74,1191.7,7011.1,1397.6" stroke="rgb(131,255,0)" stroke-width="2" fill="none"></polyline>
<polyline points="2031.8,1215.45,6093.38,1099.52" stroke="rgb(255,0,123)" stroke-width="2" fill="none"></polyline>
<polyline points="2878.17,1236.81,7038.8,1590.09" stroke="rgb(255,0,148)" stroke-width="2" fill="none"></polyline>
<polyline points="2177.31,1242.9,7224.58,1568.07" stroke="rgb(89,0,255)" stroke-width="2" fill="none"></polyline>
<polyline points="1694.56,1266.01,5517.85,2011.62" stroke="rgb(165,255,0)" stroke-width="2" fill="none"></polyline>
<polyline points="2352.49,1311.26,6027.03,957.642" stroke="rgb(255,0,246)" stroke-width="2" fill="none"></polyline>
<polyline points="2226,1314.42,6053.93,1614.61" stroke="rgb(0,255,67)" stroke-width="2" fill="none"></polyline>
<polyline points="3069.94,1337.27,6538.38,1815.06" stroke="rgb(255,0,97)" stroke-width="2" fill="none"></polyline>
<polyline points="3116.38,1351.85,6175.92,1560.92" stroke="rgb(225,0,255)" stroke-width="2" fill="none"></polyline>
<polyline points="2874.07,1372.05,6283.6,1906.14" stroke="rgb(229,0,255)" stroke-width="2" fill="none"></polyline>
<polyline points="1449.03,1376.48,5896.18,1696.23" stroke="rgb(0,123,255)" stroke-width="2" fill="none"></polyline>
<polyline points="3128.59,1401.71,6054.78,1809.13" stroke="rgb(255,0,97)" stroke-width="2" fill="none"></polyline>
<polyline points="3182.08,1411.1,5868.78,1656.6" stroke="rgb(255,0,182)" stroke-width="2" fill="none"></polyline>
<polyline points="2330.32,1423.22,6584.29,1354.48" stroke="rgb(229,255,0)" stroke-width="2" fill="none"></polyline>
<polyline points="2783.22,1436.66,6770.42,1353.93" stroke="rgb(0,255,157)" stroke-width="2" fill="none"></polyline>
<polyline points="2897.38,1454.65,6868.76,1095.86" stroke="rgb(255,63,0)" stroke-width="2" fill="none"></polyline>
<polyline points="3129.31,1472.18,6756.15,1595.9" stroke="rgb(182,255,0)" stroke-width="2" fill="none"></polyline>
<polyline points="2995.53,1478.24,5523.63,1154" stroke="rgb(255,29,0)" stroke-width="2" fill="none"></polyline>
<polyline points="2256.43,1482.83,6244.06,2013.43" stroke="rgb(255,59,0)" stroke-width="2" fill="none"></polyline>
<polyline points="2805.96,1487.71,6402.58,1892" stroke="rgb(255,0,178)" stroke-width="2" fill="none"></polyline>
<polyline points="2732.53,1494.75,6779.75,1850.83" stroke="rgb(127,0,255)" stroke-width="2" fill="none"></polyline>
<polyline points="1702.81,1501.44,5554.72,1903.48" stroke="rgb(0,255,199)" stroke-width="2" fill="none"></polyline>
<polyline points="2826.49,1502.95,6637.53,1983.32" stroke="rgb(161,0,255)" stroke-width="2" fill="none"></polyline>
<polyline points="1727.14,1525.14,6663.13,1240.52" stroke="rgb(255,131,0)" stroke-width="2" fill="none"></polyline>
<polyline points="2902.47,1527.18,6123.14,1813.65" stroke="rgb(0,255,106)" stroke-width="2" fill="none"></polyline>
<polyline points="1740.81,1551.45,6515.9,1721.55" stroke="rgb(255,0,21)" stroke-width="2" fill="none"></polyline>
<polyline points="1752.52,1570.92,6082.38,1007.74" stroke="rgb(255,229,0)" stroke-width="2" fill="none"></polyline>
<polyline points="2893.73,1573.17,6545.22,1838.83" stroke="rgb(0,187,255)" stroke-width="2" fill="none"></polyline>
<polyline points="1844.12,1576.04,6268.81,2003.35" stroke="rgb(255,0,187)" stroke-width="2" fill="none"></polyline>
<polyline points="1731.19,1590.41,6271.09,1697.41" stroke="rgb(0,255,212)" stroke-width="2" fill="none"></polyline>
<polyline points="3227.04,1603.37,6725.73,1676.14" stroke="rgb(255,0,131)" stroke-width="2" fill="none"></polyline>
<polyline points="1761.48,1615.51,6666.59,1610.61" stroke="rgb(157,0,255)" stroke-width="2" fill="none"></polyline>
<polyline points="2762.73,1618.28,5978.09,1253.76" stroke="rgb(255,55,0)" stroke-width="2" fill="none"></polyline>
<polyline points="3348.91,1621.95,5440.85,1382.92" stroke="rgb(229,0,255)" stroke-width="2" fill="none"></polyline>
<polyline points="3064.71,1628.87,5758.74,1753.36" stroke="rgb(255,212,0)" stroke-width="2" fill="none"></polyline>
<polyline points="2866,1631.96,5985.52,1574.89" stroke="rgb(255,0,144)" stroke-width="2" fill="none"></polyline>
<polyline points="1922.15,1637.15,6053.84,1356.32" stroke="rgb(0,17,255)" stroke-width="2" fill="none"></polyline>
<polyline points="1865,1652.93,6801.08,1851.84" stroke="rgb(0,225,255)" stroke-width="2" fill="none"></polyline>
<polyline points="2957,1660.37,6748.93,1826.68" stroke="rgb(0,255,233)" stroke-width="2" fill="none"></polyline>
<polyline points="1765.68,1661,7005.44,1917.26" stroke="rgb(255,174,0)" stroke-width="2" fill="none"></polyline>
<polyline points="3098.9,1714.95,6830.35,1904.06" stroke="rgb(255,0,29)" stroke-width="2" fill="none"></polyline>
<polyline points="2872.05,1716.37,6533.29,1506.48" stroke="rgb(255,110,0)" stroke-width="2" fill="none"></polyline>
<polyline points="3224.8,1726.49,5772.43,1742.87" stroke="rgb(42,0,255)" stroke-width="2" fill="none"></polyline>
<polyline points="2839.76,1727.29,6282.03,2006.93" stroke="rgb(255,0,212)" stroke-width="2" fill="none"></polyline>
<polyline points="3101.37,1750.03,6781.09,1514.93" stroke="rgb(119,255,0)" stroke-width="2" fill="none"></polyline>
<polyline points="3074.74,1777.53,5545.81,1661.28" stroke="rgb(255,204,0)" stroke-width="2" fill="none"></polyline>
<polyline points="1794.76,1784.24,6040.87,981.087" stroke="rgb(0,178,255)" stroke-width="2" fill="none"></polyline>
<polyline points="1880.5,1790.25,5755.27,2038.81" stroke="rgb(255,178,0)" stroke-width="2" fill="none"></polyline>
<polyline points="1998.42,1790.47,6021.45,1634.75" stroke="rgb(199,0,255)" stroke-width="2" fill="none"></polyline>
<polyline points="1980.85,1795.25,5939.51,1268.7" stroke="rgb(153,255,0)" stroke-width="2" fill="none"></polyline>
<polyline points="3213.25,1799.22,7062.25,1659.9" stroke="rgb(255,0,0)" stroke-width="2" fill="none"></polyline>
<polyline points="3141.15,1803.21,6232.45,1673.56" stroke="rgb(0,182,255)" stroke-width="2" fill="none"></polyline>
<polyline points="1954.57,1803.69,5750.91,1744.2" stroke="rgb(0,255,12)" stroke-width="2" fill="none"></polyline>
<polyline points="2765.14,1804.64,6021.52,939.229" stroke="rgb(161,0,255)" stroke-width="2" fill="none"></polyline>
<polyline points="1999.47,1809.32,6005.45,1037.22" stroke="rgb(84,255,0)" stroke-width="2" fill="none"></polyline>
<polyline points="1868.73,1810.75,6646.36,1809.01" stroke="rgb(123,0,255)" stroke-width="2" fill="none"></polyline>
<polyline points="1869.08,1812.92,6735.23,1692.82" stroke="rgb(0,255,106)" stroke-width="2" fill="none"></polyline>
<polyline points="1976.84,1816.72,6855.29,1778.16" stroke="rgb(0,255,144)" stroke-width="2" fill="none"></polyline>
<polyline points="2895.93,1827.05,6709.23,1287.15" stroke="rgb(63,255,0)" stroke-width="2" fill="none"></polyline>
<polyline points="2887.88,1833.26,6159.89,1271.75" stroke="rgb(80,255,0)" stroke-width="2" fill="none"></polyline>
<polyline points="2958.08,1842.54,6790.54,1923.4" stroke="rgb(0,187,255)" stroke-width="2" fill="none"></polyline>
<polyline points="1974.67,1857.33,6685.92,1601.01" stroke="rgb(195,255,0)" stroke-width="2" fill="none"></polyline>
<polyline points="1964.9,1857.78,5931.96,1062.32" stroke="rgb(42,0,255)" stroke-width="2" fill="none"></polyline>
<polyline points="2024.56,1868.34,6678.15,1236.81" stroke="rgb(0,131,255)" stroke-width="2" fill="none"></polyline>
<polyline points="2037.08,1873.46,6026.46,1083.89" stroke="rgb(0,0,255)" stroke-width="2" fill="none"></polyline>
<polyline points="1899.86,1883.42,7076.91,1419.45" stroke="rgb(255,0,250)" stroke-width="2" fill="none"></polyline>
<polyline points="2021.49,1883.88,6691.87,1351.37" stroke="rgb(255,204,0)" stroke-width="2" fill="none"></polyline>
<polyline points="1902.94,1892.7,6415.07,1880.62" stroke="rgb(12,255,0)" stroke-width="2" fill="none"></polyline>
<polyline points="2039.28,1908,6707.27,1444.38" stroke="rgb(255,0,0)" stroke-width="2" fill="none"></polyline>
<polyline points="3095.22,1919.28,6514.9,2101.8" stroke="rgb(0,72,255)" stroke-width="2" fill="none"></polyline>
<polyline points="1938.57,1922.61,6045.14,1690.87" stroke="rgb(255,127,0)" stroke-width="2" fill="none"></polyline>
<polyline points="3112.73,1925.37,6610.18,2044.58" stroke="rgb(255,0,29)" stroke-width="2" fill="none"></polyline>
<polyline points="2835.17,1932.87,6201.04,962.281" stroke="rgb(42,0,255)" stroke-width="2" fill="none"></polyline>
<polyline points="2045.27,1935.46,5680.9,1836.62" stroke="rgb(174,0,255)" stroke-width="2" fill="none"></polyline>
<polyline points="2877.41,1940.68,6549.2,994.71" stroke="rgb(0,255,233)" stroke-width="2" fill="none"></polyline>
<polyline points="2002.76,1953.38,6777.22,1587.05" stroke="rgb(255,0,76)" stroke-width="2" fill="none"></polyline>
<polyline points="2055.43,1966.59,6683.39,1595.38" stroke="rgb(255,0,131)" stroke-width="2" fill="none"></polyline>
<polyline points="1980.6,1972.39,6133.09,1305.3" stroke="rgb(21,0,255)" stroke-width="2" fill="none"></polyline>
<polyline points="3038.59,1978.73,6275.67,2070.51" stroke="rgb(255,102,0)" stroke-width="2" fill="none"></polyline>
<polyline points="2938.38,1998.44,6786.54,1518.87" stroke="rgb(0,255,33)" stroke-width="2" fill="none"></polyline>
<polyline points="2019.67,1998.53,6268.53,1208.04" stroke="rgb(255,0,127)" stroke-width="2" fill="none"></polyline>
<polyline points="2023.56,2001.59,6673.92,1646.38" stroke="rgb(67,0,255)" stroke-width="2" fill="none"></polyline>
<polyline points="2943.95,2013.57,5849.33,1811.43" stroke="rgb(255,0,144)" stroke-width="2" fill="none"></polyline>
<polyline points="2008.07,2019.84,7110.88,1761.58" stroke="rgb(114,255,0)" stroke-width="2" fill="none"></polyline>
<polyline points="2960.98,2021.74,6974.51,1155.68" stroke="rgb(255,195,0)" stroke-width="2" fill="none"></polyline>
<polyline points="2023.55,2022.17,6713.6,1898.92" stroke="rgb(229,255,0)" stroke-width="2" fill="none"></polyline>
<polyline points="1978.43,2024.79,6189.84,1860.9" stroke="rgb(0,25,255)" stroke-width="2" fill="none"></polyline>
<polyline points="2623.55,2026.81,5669.54,2012.16" stroke="rgb(0,208,255)" stroke-width="2" fill="none"></polyline>
<polyline points="2954.06,2030.95,6672.38,1466.65" stroke="rgb(114,255,0)" stroke-width="2" fill="none"></polyline>
<polyline points="1997.85,2045.88,6892.42,1766.24" stroke="rgb(255,0,85)" stroke-width="2" fill="none"></polyline>
<polyline points="2966.36,2074.44,6242.18,1130.79" stroke="rgb(0,255,186)" stroke-width="2" fill="none"></polyline>
<polyline points="2002.01,2085.66,6087.29,1477.88" stroke="rgb(208,0,255)" stroke-width="2" fill="none"></polyline>
<polyline points="3018.6,2090.52,6687.82,1175.73" stroke="rgb(195,0,255)" stroke-width="2" fill="none"></polyline>
<polyline points="3169.19,2123.1,6360.59,1988.07" stroke="rgb(199,0,255)" stroke-width="2" fill="none"></polyline>
<polyline points="2114.05,2154.23,4926.41,832.265" stroke="rgb(255,46,0)" stroke-width="2" fill="none"></polyline>
<polyline points="3145.51,2167.75,6672.67,1020.18" stroke="rgb(0,255,199)" stroke-width="2" fill="none"></polyline>
<polyline points="2954.1,2227.35,7030.07,1882.47" stroke="rgb(0,51,255)" stroke-width="2" fill="none"></polyline>
<polyline points="2974.71,2324.81,5512.39,1631.17" stroke="rgb(255,250,0)" stroke-width="2" fill="none"></polyline>
<polyline points="2801.82,2377.24,7052.04,1681.89" stroke="rgb(0,255,152)" stroke-width="2" fill="none"></polyline>
<polyline points="2723.95,2522.9,5162.93,458.657" stroke="rgb(0,51,255)" stroke-width="2" fill="none"></polyline>
<polyline points="1932.45,2617.34,6021.55,1719.02" stroke="rgb(178,0,255)" stroke-width="2" fill="none"></polyline>
<polyline points="2087.99,2627.46,6688.35,1929.94" stroke="rgb(0,229,255)" stroke-width="2" fill="none"></polyline>
<circle cx="1359.48" cy="732.753" r="4" stroke="rgb(42,255,0)" stroke-width="2" fill="none"></circle>
<circle cx="6855.81" cy="2025.81" r="4" stroke="rgb(42,255,0)" stroke-width="2" fill="none"></circle>
<circle cx="1353.84" cy="756.158" r="4" stroke="rgb(255,0,97)" stroke-width="2" fill="none"></circle>
<circle cx="6216.47" cy="1238.28" r="4" stroke="rgb(255,0,97)" stroke-width="2" fill="none"></circle>
<circle cx="2203.64" cy="815.864" r="4" stroke="rgb(255,12,0)" stroke-width="2" fill="none"></circle>
<circle cx="6589.26" cy="1737.62" r="4" stroke="rgb(255,12,0)" stroke-width="2" fill="none"></circle>
<circle cx="2205.94" cy="818.949" r="4" stroke="rgb(255,97,0)" stroke-width="2" fill="none"></circle>
<circle cx="5943.88" cy="1005.93" r="4" stroke="rgb(255,97,0)" stroke-width="2" fill="none"></circle>
<circle cx="2428.41" cy="848.822" r="4" stroke="rgb(255,0,42)" stroke-width="2" fill="none"></circle>
<circle cx="5672.52" cy="1939.07" r="4" stroke="rgb(255,0,42)" stroke-width="2" fill="none"></circle>
<circle cx="1657.13" cy="884.142" r="4" stroke="rgb(0,255,157)" stroke-width="2" fill="none"></circle>
<circle cx="6057.78" cy="317.091" r="4" stroke="rgb(0,255,157)" stroke-width="2" fill="none"></circle>
<circle cx="2269.13" cy="899.413" r="4" stroke="rgb(255,8,0)" stroke-width="2" fill="none"></circle>
<circle cx="5429.89" cy="1014.15" r="4" stroke="rgb(255,8,0)" stroke-width="2" fill="none"></circle>
<circle cx="1525.09" cy="899.502" r="4" stroke="rgb(0,255,220)" stroke-width="2" fill="none"></circle>
<circle cx="7199.12" cy="1701.54" r="4" stroke="rgb(0,255,220)" stroke-width="2" fill="none"></circle>
<circle cx="1487.69" cy="925.443" r="4" stroke="rgb(0,255,131)" stroke-width="2" fill="none"></circle>
<circle cx="6600.29" cy="1008.16" r="4" stroke="rgb(0,255,131)" stroke-width="2" fill="none"></circle>
<circle cx="2493.23" cy="973.635" r="4" stroke="rgb(0,106,255)" stroke-width="2" fill="none"></circle>
<circle cx="6711.35" cy="1544.36" r="4" stroke="rgb(0,106,255)" stroke-width="2" fill="none"></circle>
<circle cx="2441.51" cy="983.239" r="4" stroke="rgb(255,0,221)" stroke-width="2" fill="none"></circle>
<circle cx="6924.82" cy="1198.11" r="4" stroke="rgb(255,0,221)" stroke-width="2" fill="none"></circle>
<circle cx="2431.89" cy="986.496" r="4" stroke="rgb(255,246,0)" stroke-width="2" fill="none"></circle>
<circle cx="6016.29" cy="1494.7" r="4" stroke="rgb(255,246,0)" stroke-width="2" fill="none"></circle>
<circle cx="2283.59" cy="1003.37" r="4" stroke="rgb(255,46,0)" stroke-width="2" fill="none"></circle>
<circle cx="6895.61" cy="1527.02" r="4" stroke="rgb(255,46,0)" stroke-width="2" fill="none"></circle>
<circle cx="1434.25" cy="1010.19" r="4" stroke="rgb(0,127,255)" stroke-width="2" fill="none"></circle>
<circle cx="6616.67" cy="1308.86" r="4" stroke="rgb(0,127,255)" stroke-width="2" fill="none"></circle>
<circle cx="1979.32" cy="1018.83" r="4" stroke="rgb(0,255,29)" stroke-width="2" fill="none"></circle>
<circle cx="5878.83" cy="1236.3" r="4" stroke="rgb(0,255,29)" stroke-width="2" fill="none"></circle>
<circle cx="2748.49" cy="1032.55" r="4" stroke="rgb(255,34,0)" stroke-width="2" fill="none"></circle>
<circle cx="7045.82" cy="580.053" r="4" stroke="rgb(255,34,0)" stroke-width="2" fill="none"></circle>
<circle cx="2024.49" cy="1044.95" r="4" stroke="rgb(255,127,0)" stroke-width="2" fill="none"></circle>
<circle cx="6660.31" cy="1406.48" r="4" stroke="rgb(255,127,0)" stroke-width="2" fill="none"></circle>
<circle cx="2558.12" cy="1052.14" r="4" stroke="rgb(0,255,135)" stroke-width="2" fill="none"></circle>
<circle cx="5687" cy="1700.11" r="4" stroke="rgb(0,255,135)" stroke-width="2" fill="none"></circle>
<circle cx="1537.21" cy="1066.65" r="4" stroke="rgb(135,255,0)" stroke-width="2" fill="none"></circle>
<circle cx="5892.91" cy="1581.83" r="4" stroke="rgb(135,255,0)" stroke-width="2" fill="none"></circle>
<circle cx="2429.02" cy="1067.3" r="4" stroke="rgb(38,0,255)" stroke-width="2" fill="none"></circle>
<circle cx="6736.47" cy="1279.21" r="4" stroke="rgb(38,0,255)" stroke-width="2" fill="none"></circle>
<circle cx="2609.58" cy="1069.99" r="4" stroke="rgb(59,255,0)" stroke-width="2" fill="none"></circle>
<circle cx="6364.18" cy="1652.28" r="4" stroke="rgb(59,255,0)" stroke-width="2" fill="none"></circle>
<circle cx="1578.57" cy="1080.78" r="4" stroke="rgb(182,255,0)" stroke-width="2" fill="none"></circle>
<circle cx="7042.39" cy="1909.17" r="4" stroke="rgb(182,255,0)" stroke-width="2" fill="none"></circle>
<circle cx="1964.45" cy="1095.5" r="4" stroke="rgb(255,97,0)" stroke-width="2" fill="none"></circle>
<circle cx="5907.71" cy="953.613" r="4" stroke="rgb(255,97,0)" stroke-width="2" fill="none"></circle>
<circle cx="2737.46" cy="1099.78" r="4" stroke="rgb(0,255,250)" stroke-width="2" fill="none"></circle>
<circle cx="5722.44" cy="1981.49" r="4" stroke="rgb(0,255,250)" stroke-width="2" fill="none"></circle>
<circle cx="2806.24" cy="1102.01" r="4" stroke="rgb(255,0,165)" stroke-width="2" fill="none"></circle>
<circle cx="6619.41" cy="2013.26" r="4" stroke="rgb(255,0,165)" stroke-width="2" fill="none"></circle>
<circle cx="2883.98" cy="1116.77" r="4" stroke="rgb(16,255,0)" stroke-width="2" fill="none"></circle>
<circle cx="5730.26" cy="1752.48" r="4" stroke="rgb(16,255,0)" stroke-width="2" fill="none"></circle>
<circle cx="2860.14" cy="1153.85" r="4" stroke="rgb(85,0,255)" stroke-width="2" fill="none"></circle>
<circle cx="6289.63" cy="1651.89" r="4" stroke="rgb(85,0,255)" stroke-width="2" fill="none"></circle>
<circle cx="2782.74" cy="1191.7" r="4" stroke="rgb(131,255,0)" stroke-width="2" fill="none"></circle>
<circle cx="7011.1" cy="1397.6" r="4" stroke="rgb(131,255,0)" stroke-width="2" fill="none"></circle>
<circle cx="2031.8" cy="1215.45" r="4" stroke="rgb(255,0,123)" stroke-width="2" fill="none"></circle>
<circle cx="6093.38" cy="1099.52" r="4" stroke="rgb(255,0,123)" stroke-width="2" fill="none"></circle>
<circle cx="2878.17" cy="1236.81" r="4" stroke="rgb(255,0,148)" stroke-width="2" fill="none"></circle>
<circle cx="7038.8" cy="1590.09" r="4" stroke="rgb(255,0,148)" stroke-width="2" fill="none"></circle>
<circle cx="2177.31" cy="1242.9" r="4" stroke="rgb(89,0,255)" stroke-width="2" fill="none"></circle>
<circle cx="7224.58" cy="1568.07" r="4" stroke="rgb(89,0,255)" stroke-width="2" fill="none"></circle>
<circle cx="1694.56" cy="1266.01" r="4" stroke="rgb(165,255,0)" stroke-width="2" fill="none"></circle>
<circle cx="5517.85" cy="2011.62" r="4" stroke="rgb(165,255,0)" stroke-width="2" fill="none"></circle>
<circle cx="2352.49" cy="1311.26" r="4" stroke="rgb(255,0,246)" stroke-width="2" fill="none"></circle>
<circle cx="6027.03" cy="957.642" r="4" stroke="rgb(255,0,246)" stroke-width="2" fill="none"></circle>
<circle cx="2226" cy="1314.42" r="4" stroke="rgb(0,255,67)" stroke-width="2" fill="none"></circle>
<circle cx="6053.93" cy="1614.61" r="4" stroke="rgb(0,255,67)" stroke-width="2" fill="none"></circle>
<circle cx="3069.94" cy="1337.27" r="4" stroke="rgb(255,0,97)" stroke-width="2" fill="none"></circle>
<circle cx="6538.38" cy="1815.06" r="4" stroke="rgb(255,0,97)" stroke-width="2" fill="none"></circle>
<circle cx="3116.38" cy="1351.85" r="4" stroke="rgb(225,0,255)" stroke-width="2" fill="none"></circle>
<circle cx="6175.92" cy="1560.92" r="4" stroke="rgb(225,0,255)" stroke-width="2" fill="none"></circle>
<circle cx="2874.07" cy="1372.05" r="4" stroke="rgb(229,0,255)" stroke-width="2" fill="none"></circle>
<circle cx="6283.6" cy="1906.14" r="4" stroke="rgb(229,0,255)" stroke-width="2" fill="none"></circle>
<circle cx="1449.03" cy="1376.48" r="4" stroke="rgb(0,123,255)" stroke-width="2" fill="none"></circle>
<circle cx="5896.18" cy="1696.23" r="4" stroke="rgb(0,123,255)" stroke-width="2" fill="none"></circle>
<circle cx="3128.59" cy="1401.71" r="4" stroke="rgb(255,0,97)" stroke-width="2" fill="none"></circle>
<circle cx="6054.78" cy="1809.13" r="4" stroke="rgb(255,0,97)" stroke-width="2" fill="none"></circle>
<circle cx="3182.08" cy="1411.1" r="4" stroke="rgb(255,0,182)" stroke-width="2" fill="none"></circle>
<circle cx="5868.78" cy="1656.6" r="4" stroke="rgb(255,0,182)" stroke-width="2" fill="none"></circle>
<circle cx="2330.32" cy="1423.22" r="4" stroke="rgb(229,255,0)" stroke-width="2" fill="none"></circle>
<circle cx="6584.29" cy="1354.48" r="4" stroke="rgb(229,255,0)" stroke-width="2" fill="none"></circle>
<circle cx="2783.22" cy="1436.66" r="4" stroke="rgb(0,255,157)" stroke-width="2" fill="none"></circle>
<circle cx="6770.42" cy="1353.93" r="4" stroke="rgb(0,255,157)" stroke-width="2" fill="none"></circle>
<circle cx="2897.38" cy="1454.65" r="4" stroke="rgb(255,63,0)" stroke-width="2" fill="none"></circle>
<circle cx="6868.76" cy="1095.86" r="4" stroke="rgb(255,63,0)" stroke-width="2" fill="none"></circle>
<circle cx="3129.31" cy="1472.18" r="4" stroke="rgb(182,255,0)" stroke-width="2" fill="none"></circle>
<circle cx="6756.15" cy="1595.9" r="4" stroke="rgb(182,255,0)" stroke-width="2" fill="none"></circle>
<circle cx="2995.53" cy="1478.24" r="4" stroke="rgb(255,29,0)" stroke-width="2" fill="none"></circle>
<circle cx="5523.63" cy="1154" r="4" stroke="rgb(255,29,0)" stroke-width="2" fill="none"></circle>
<circle cx="2256.43" cy="1482.83" r="4" stroke="rgb(255,59,0)" stroke-width="2" fill="none"></circle>
<circle cx="6244.06" cy="2013.43" r="4" stroke="rgb(255,59,0)" stroke-width="2" fill="none"></circle>
<circle cx="2805.96" cy="1487.71" r="4" stroke="rgb(255,0,178)" stroke-width="2" fill="none"></circle>
<circle cx="6402.58" cy="1892" r="4" stroke="rgb(255,0,178)" stroke-width="2" fill="none"></circle>
<circle cx="2732.53" cy="1494.75" r="4" stroke="rgb(127,0,255)" stroke-width="2" fill="none"></circle>
<circle cx="6779.75" cy="1850.83" r="4" stroke="rgb(127,0,255)" stroke-width="2" fill="none"></circle>
<circle cx="1702.81" cy="1501.44" r="4" stroke="rgb(0,255,199)" stroke-width="2" fill="none"></circle>
<circle cx="5554.72" cy="1903.48" r="4" stroke="rgb(0,255,199)" stroke-width="2" fill="none"></circle>
<circle cx="2826.49" cy="1502.95" r="4" stroke="rgb(161,0,255)" stroke-width="2" fill="none"></circle>
<circle cx="6637.53" cy="1983.32" r="4" stroke="rgb(161,0,255)" stroke-width="2" fill="none"></circle>
<circle cx="1727.14" cy="1525.14" r="4" stroke="rgb(255,131,0)" stroke-width="2" fill="none"></circle>
<circle cx="6663.13" cy="1240.52" r="4" stroke="rgb(255,131,0)" stroke-width="2" fill="none"></circle>
<circle cx="2902.47" cy="1527.18" r="4" stroke="rgb(0,255,106)" stroke-width="2" fill="none"></circle>
<circle cx="6123.14" cy="1813.65" r="4" stroke="rgb(0,255,106)" stroke-width="2" fill="none"></circle>
<circle cx="1740.81" cy="1551.45" r="4" stroke="rgb(255,0,21)" stroke-width="2" fill="none"></circle>
<circle cx="6515.9" cy="1721.55" r="4" stroke="rgb(255,0,21)" stroke-width="2" fill="none"></circle>
<circle cx="1752.52" cy="1570.92" r="4" stroke="rgb(255,229,0)" stroke-width="2" fill="none"></circle>
<circle cx="6082.38" cy="1007.74" r="4" stroke="rgb(255,229,0)" stroke-width="2" fill="none"></circle>
<circle cx="2893.73" cy="1573.17" r="4" stroke="rgb(0,187,255)" stroke-width="2" fill="none"></circle>
<circle cx="6545.22" cy="1838.83" r="4" stroke="rgb(0,187,255)" stroke-width="2" fill="none"></circle>
<circle cx="1844.12" cy="1576.04" r="4" stroke="rgb(255,0,187)" stroke-width="2" fill="none"></circle>
<circle cx="6268.81" cy="2003.35" r="4" stroke="rgb(255,0,187)" stroke-width="2" fill="none"></circle>
<circle cx="1731.19" cy="1590.41" r="4" stroke="rgb(0,255,212)" stroke-width="2" fill="none"></circle>
<circle cx="6271.09" cy="1697.41" r="4" stroke="rgb(0,255,212)" stroke-width="2" fill="none"></circle>
<circle cx="3227.04" cy="1603.37" r="4" stroke="rgb(255,0,131)" stroke-width="2" fill="none"></circle>
<circle cx="6725.73" cy="1676.14" r="4" stroke="rgb(255,0,131)" stroke-width="2" fill="none"></circle>
<circle cx="1761.48" cy="1615.51" r="4" stroke="rgb(157,0,255)" stroke-width="2" fill="none"></circle>
<circle cx="6666.59" cy="1610.61" r="4" stroke="rgb(157,0,255)" stroke-width="2" fill="none"></circle>
<circle cx="2762.73" cy="1618.28" r="4" stroke="rgb(255,55,0)" stroke-width="2" fill="none"></circle>
<circle cx="5978.09" cy="1253.76" r="4" stroke="rgb(255,55,0)" stroke-width="2" fill="none"></circle>
<circle cx="3348.91" cy="1621.95" r="4" stroke="rgb(229,0,255)" stroke-width="2" fill="none"></circle>
<circle cx="5440.85" cy="1382.92" r="4" stroke="rgb(229,0,255)" stroke-width="2" fill="none"></circle>
<circle cx="3064.71" cy="1628.87" r="4" stroke="rgb(255,212,0)" stroke-width="2" fill="none"></circle>
<circle cx="5758.74" cy="1753.36" r="4" stroke="rgb(255,212,0)" stroke-width="2" fill="none"></circle>
<circle cx="2866" cy="1631.96" r="4" stroke="rgb(255,0,144)" stroke-width="2" fill="none"></circle>
<circle cx="5985.52" cy="1574.89" r="4" stroke="rgb(255,0,144)" stroke-width="2" fill="none"></circle>
<circle cx="1922.15" cy="1637.15" r="4" stroke="rgb(0,17,255)" stroke-width="2" fill="none"></circle>
<circle cx="6053.84" cy="1356.32" r="4" stroke="rgb(0,17,255)" stroke-width="2" fill="none"></circle>
<circle cx="1865" cy="1652.93" r="4" stroke="rgb(0,225,255)" stroke-width="2" fill="none"></circle>
<circle cx="6801.08" cy="1851.84" r="4" stroke="rgb(0,225,255)" stroke-width="2" fill="none"></circle>
<circle cx="2957" cy="1660.37" r="4" stroke="rgb(0,255,233)" stroke-width="2" fill="none"></circle>
<circle cx="6748.93" cy="1826.68" r="4" stroke="rgb(0,255,233)" stroke-width="2" fill="none"></circle>
<circle cx="1765.68" cy="1661" r="4" stroke="rgb(255,174,0)" stroke-width="2" fill="none"></circle>
<circle cx="7005.44" cy="1917.26" r="4" stroke="rgb(255,174,0)" stroke-width="2" fill="none"></circle>
<circle cx="3098.9" cy="1714.95" r="4" stroke="rgb(255,0,29)" stroke-width="2" fill="none"></circle>
<circle cx="6830.35" cy="1904.06" r="4" stroke="rgb(255,0,29)" stroke-width="2" fill="none"></circle>
<circle cx="2872.05" cy="1716.37" r="4" stroke="rgb(255,110,0)" stroke-width="2" fill="none"></circle>
<circle cx="6533.29" cy="1506.48" r="4" stroke="rgb(255,110,0)" stroke-width="2" fill="none"></circle>
<circle cx="3224.8" cy="1726.49" r="4" stroke="rgb(42,0,255)" stroke-width="2" fill="none"></circle>
<circle cx="5772.43" cy="1742.87" r="4" stroke="rgb(42,0,255)" stroke-width="2" fill="none"></circle>
<circle cx="2839.76" cy="1727.29" r="4" stroke="rgb(255,0,212)" stroke-width="2" fill="none"></circle>
<circle cx="6282.03" cy="2006.93" r="4" stroke="rgb(255,0,212)" stroke-width="2" fill="none"></circle>
<circle cx="3101.37" cy="1750.03" r="4" stroke="rgb(119,255,0)" stroke-width="2" fill="none"></circle>
<circle cx="6781.09" cy="1514.93" r="4" stroke="rgb(119,255,0)" stroke-width="2" fill="none"></circle>
<circle cx="3074.74" cy="1777.53" r="4" stroke="rgb(255,204,0)" stroke-width="2" fill="none"></circle>
<circle cx="5545.81" cy="1661.28" r="4" stroke="rgb(255,204,0)" stroke-width="2" fill="none"></circle>
<circle cx="1794.76" cy="1784.24" r="4" stroke="rgb(0,178,255)" stroke-width="2" fill="none"></circle>
<circle cx="6040.87" cy="981.087" r="4" stroke="rgb(0,178,255)" stroke-width="2" fill="none"></circle>
<circle cx="1880.5" cy="1790.25" r="4" stroke="rgb(255,178,0)" stroke-width="2" fill="none"></circle>
<circle cx="5755.27" cy="2038.81" r="4" stroke="rgb(255,178,0)" stroke-width="2" fill="none"></circle>
<circle cx="1998.42" cy="1790.47" r="4" stroke="rgb(199,0,255)" stroke-width="2" fill="none"></circle>
<circle cx="6021.45" cy="1634.75" r="4" stroke="rgb(199,0,255)" stroke-width="2" fill="none"></circle>
<circle cx="1980.85" cy="1795.25" r="4" stroke="rgb(153,255,0)" stroke-width="2" fill="none"></circle>
<circle cx="5939.51" cy="1268.7" r="4" stroke="rgb(153,255,0)" stroke-width="2" fill="none"></circle>
<circle cx="3213.25" cy="1799.22" r="4" stroke="rgb(255,0,0)" stroke-width="2" fill="none"></circle>
<circle cx="7062.25" cy="1659.9" r="4" stroke="rgb(255,0,0)" stroke-width="2" fill="none"></circle>
<circle cx="3141.15" cy="1803.21" r="4" stroke="rgb(0,182,255)" stroke-width="2" fill="none"></circle>
<circle cx="6232.45" cy="1673.56" r="4" stroke="rgb(0,182,255)" stroke-width="2" fill="none"></circle>
<circle cx="1954.57" cy="1803.69" r="4" stroke="rgb(0,255,12)" stroke-width="2" fill="none"></circle>
<circle cx="5750.91" cy="1744.2" r="4" stroke="rgb(0,255,12)" stroke-width="2" fill="none"></circle>
<circle cx="2765.14" cy="1804.64" r="4" stroke="rgb(161,0,255)" stroke-width="2" fill="none"></circle>
<circle cx="6021.52" cy="939.229" r="4" stroke="rgb(161,0,255)" stroke-width="2" fill="none"></circle>
<circle cx="1999.47" cy="1809.32" r="4" stroke="rgb(84,255,0)" stroke-width="2" fill="none"></circle>
<circle cx="6005.45" cy="1037.22" r="4" stroke="rgb(84,255,0)" stroke-width="2" fill="none"></circle>
<circle cx="1868.73" cy="1810.75" r="4" stroke="rgb(123,0,255)" stroke-width="2" fill="none"></circle>
<circle cx="6646.36" cy="1809.01" r="4" stroke="rgb(123,0,255)" stroke-width="2" fill="none"></circle>
<circle cx="1869.08" cy="1812.92" r="4" stroke="rgb(0,255,106)" stroke-width="2" fill="none"></circle>
<circle cx="6735.23" cy="1692.82" r="4" stroke="rgb(0,255,106)" stroke-width="2" fill="none"></circle>
<circle cx="1976.84" cy="1816.72" r="4" stroke="rgb(0,255,144)" stroke-width="2" fill="none"></circle>
<circle cx="6855.29" cy="1778.16" r="4" stroke="rgb(0,255,144)" stroke-width="2" fill="none"></circle>
<circle cx="2895.93" cy="1827.05" r="4" stroke="rgb(63,255,0)" stroke-width="2" fill="none"></circle>
<circle cx="6709.23" cy="1287.15" r="4" stroke="rgb(63,255,0)" stroke-width="2" fill="none"></circle>
<circle cx="2887.88" cy="1833.26" r="4" stroke="rgb(80,255,0)" stroke-width="2" fill="none"></circle>
<circle cx="6159.89" cy="1271.75" r="4" stroke="rgb(80,255,0)" stroke-width="2" fill="none"></circle>
<circle cx="2958.08" cy="1842.54" r="4" stroke="rgb(0,187,255)" stroke-width="2" fill="none"></circle>
<circle cx="6790.54" cy="1923.4" r="4" stroke="rgb(0,187,255)" stroke-width="2" fill="none"></circle>
<circle cx="1974.67" cy="1857.33" r="4" stroke="rgb(195,255,0)" stroke-width="2" fill="none"></circle>
<circle cx="6685.92" cy="1601.01" r="4" stroke="rgb(195,255,0)" stroke-width="2" fill="none"></circle>
<circle cx="1964.9" cy="1857.78" r="4" stroke="rgb(42,0,255)" stroke-width="2" fill="none"></circle>
<circle cx="5931.96" cy="1062.32" r="4" stroke="rgb(42,0,255)" stroke-width="2" fill="none"></circle>
<circle cx="2024.56" cy="1868.34" r="4" stroke="rgb(0,131,255)" stroke-width="2" fill="none"></circle>
<circle cx="6678.15" cy="1236.81" r="4" stroke="rgb(0,131,255)" stroke-width="2" fill="none"></circle>
<circle cx="2037.08" cy="1873.46" r="4" stroke="rgb(0,0,255)" stroke-width="2" fill="none"></circle>
<circle cx="6026.46" cy="1083.89" r="4" stroke="rgb(0,0,255)" stroke-width="2" fill="none"></circle>
<circle cx="1899.86" cy="1883.42" r="4" stroke="rgb(255,0,250)" stroke-width="2" fill="none"></circle>
<circle cx="7076.91" cy="1419.45" r="4" stroke="rgb(255,0,250)" stroke-width="2" fill="none"></circle>
<circle cx="2021.49" cy="1883.88" r="4" stroke="rgb(255,204,0)" stroke-width="2" fill="none"></circle>
<circle cx="6691.87" cy="1351.37" r="4" stroke="rgb(255,204,0)" stroke-width="2" fill="none"></circle>
<circle cx="1902.94" cy="1892.7" r="4" stroke="rgb(12,255,0)" stroke-width="2" fill="none"></circle>
<circle cx="6415.07" cy="1880.62" r="4" stroke="rgb(12,255,0)" stroke-width="2" fill="none"></circle>
<circle cx="2039.28" cy="1908" r="4" stroke="rgb(255,0,0)" stroke-width="2" fill="none"></circle>
<circle cx="6707.27" cy="1444.38" r="4" stroke="rgb(255,0,0)" stroke-width="2" fill="none"></circle>
<circle cx="3095.22" cy="1919.28" r="4" stroke="rgb(0,72,255)" stroke-width="2" fill="none"></circle>
<circle cx="6514.9" cy="2101.8" r="4" stroke="rgb(0,72,255)" stroke-width="2" fill="none"></circle>
<circle cx="1938.57" cy="1922.61" r="4" stroke="rgb(255,127,0)" stroke-width="2" fill="none"></circle>
<circle cx="6045.14" cy="1690.87" r="4" stroke="rgb(255,127,0)" stroke-width="2" fill="none"></circle>
<circle cx="3112.73" cy="1925.37" r="4" stroke="rgb(255,0,29)" stroke-width="2" fill="none"></circle>
<circle cx="6610.18" cy="2044.58" r="4" stroke="rgb(255,0,29)" stroke-width="2" fill="none"></circle>
<circle cx="2835.17" cy="1932.87" r="4" stroke="rgb(42,0,255)" stroke-width="2" fill="none"></circle>
<circle cx="6201.04" cy="962.281" r="4" stroke="rgb(42,0,255)" stroke-width="2" fill="none"></circle>
<circle cx="2045.27" cy="1935.46" r="4" stroke="rgb(174,0,255)" stroke-width="2" fill="none"></circle>
<circle cx="5680.9" cy="1836.62" r="4" stroke="rgb(174,0,255)" stroke-width="2" fill="none"></circle>
<circle cx="2877.41" cy="1940.68" r="4" stroke="rgb(0,255,233)" stroke-width="2" fill="none"></circle>
<circle cx="6549.2" cy="994.71" r="4" stroke="rgb(0,255,233)" stroke-width="2" fill="none"></circle>
<circle cx="2002.76" cy="1953.38" r="4" stroke="rgb(255,0,76)" stroke-width="2" fill="none"></circle>
<circle cx="6777.22" cy="1587.05" r="4" stroke="rgb(255,0,76)" stroke-width="2" fill="none"></circle>
<circle cx="2055.43" cy="1966.59" r="4" stroke="rgb(255,0,131)" stroke-width="2" fill="none"></circle>
<circle cx="6683.39" cy="1595.38" r="4" stroke="rgb(255,0,131)" stroke-width="2" fill="none"></circle>
<circle cx="1980.6" cy="1972.39" r="4" stroke="rgb(21,0,255)" stroke-width="2" fill="none"></circle>
<circle cx="6133.09" cy="1305.3" r="4" stroke="rgb(21,0,255)" stroke-width="2" fill="none"></circle>
<circle cx="3038.59" cy="1978.73" r="4" stroke="rgb(255,102,0)" stroke-width="2" fill="none"></circle>
<circle cx="6275.67" cy="2070.51" r="4" stroke="rgb(255,102,0)" stroke-width="2" fill="none"></circle>
<circle cx="2938.38" cy="1998.44" r="4" stroke="rgb(0,255,33)" stroke-width="2" fill="none"></circle>
<circle cx="6786.54" cy="1518.87" r="4" stroke="rgb(0,255,33)" stroke-width="2" fill="none"></circle>
<circle cx="2019.67" cy="1998.53" r="4" stroke="rgb(255,0,127)" stroke-width="2" fill="none"></circle>
<circle cx="6268.53" cy="1208.04" r="4" stroke="rgb(255,0,127)" stroke-width="2" fill="none"></circle>
<circle cx="2023.56" cy="2001.59" r="4" stroke="rgb(67,0,255)" stroke-width="2" fill="none"></circle>
<circle cx="6673.92" cy="1646.38" r="4" stroke="rgb(67,0,255)" stroke-width="2" fill="none"></circle>
<circle cx="2943.95" cy="2013.57" r="4" stroke="rgb(255,0,144)" stroke-width="2" fill="none"></circle>
<circle cx="5849.33" cy="1811.43" r="4" stroke="rgb(255,0,144)" stroke-width="2" fill="none"></circle>
<circle cx="2008.07" cy="2019.84" r="4" stroke="rgb(114,255,0)" stroke-width="2" fill="none"></circle>
<circle cx="7110.88" cy="1761.58" r="4" stroke="rgb(114,255,0)" stroke-width="2" fill="none"></circle>
<circle cx="2960.98" cy="2021.74" r="4" stroke="rgb(255,195,0)" stroke-width="2" fill="none"></circle>
<circle cx="6974.51" cy="1155.68" r="4" stroke="rgb(255,195,0)" stroke-width="2" fill="none"></circle>
<circle cx="2023.55" cy="2022.17" r="4" stroke="rgb(229,255,0)" stroke-width="2" fill="none"></circle>
<circle cx="6713.6" cy="1898.92" r="4" stroke="rgb(229,255,0)" stroke-width="2" fill="none"></circle>
<circle cx="1978.43" cy="2024.79" r="4" stroke="rgb(0,25,255)" stroke-width="2" fill="none"></circle>
<circle cx="6189.84" cy="1860.9" r="4" stroke="rgb(0,25,255)" stroke-width="2" fill="none"></circle>
<circle cx="2623.55" cy="2026.81" r="4" stroke="rgb(0,208,255)" stroke-width="2" fill="none"></circle>
<circle cx="5669.54" cy="2012.16" r="4" stroke="rgb(0,208,255)" stroke-width="2" fill="none"></circle>
<circle cx="2954.06" cy="2030.95" r="4" stroke="rgb(114,255,0)" stroke-width="2" fill="none"></circle>
<circle cx="6672.38" cy="1466.65" r="4" stroke="rgb(114,255,0)" stroke-width="2" fill="none"></circle>
<circle cx="1997.85" cy="2045.88" r="4" stroke="rgb(255,0,85)" stroke-width="2" fill="none"></circle>
<circle cx="6892.42" cy="1766.24" r="4" stroke="rgb(255,0,85)" stroke-width="2" fill="none"></circle>
<circle cx="2966.36" cy="2074.44" r="4" stroke="rgb(0,255,186)" stroke-width="2" fill="none"></circle>
<circle cx="6242.18" cy="1130.79" r="4" stroke="rgb(0,255,186)" stroke-width="2" fill="none"></circle>
<circle cx="2002.01" cy="2085.66" r="4" stroke="rgb(208,0,255)" stroke-width="2" fill="none"></circle>
<circle cx="6087.29" cy="1477.88" r="4" stroke="rgb(208,0,255)" stroke-width="2" fill="none"></circle>
<circle cx="3018.6" cy="2090.52" r="4" stroke="rgb(195,0,255)" stroke-width="2" fill="none"></circle>
<circle cx="6687.82" cy="1175.73" r="4" stroke="rgb(195,0,255)" stroke-width="2" fill="none"></circle>
<circle cx="3169.19" cy="2123.1" r="4" stroke="rgb(199,0,255)" stroke-width="2" fill="none"></circle>
<circle cx="6360.59" cy="1988.07" r="4" stroke="rgb(199,0,255)" stroke-width="2" fill="none"></circle>
<circle cx="2114.05" cy="2154.23" r="4" stroke="rgb(255,46,0)" stroke-width="2" fill="none"></circle>
<circle cx="4926.41" cy="832.265" r="4" stroke="rgb(255,46,0)" stroke-width="2" fill="none"></circle>
<circle cx="3145.51" cy="2167.75" r="4" stroke="rgb(0,255,199)" stroke-width="2" fill="none"></circle>
<circle cx="6672.67" cy="1020.18" r="4" stroke="rgb(0,255,199)" stroke-width="2" fill="none"></circle>
<circle cx="2954.1" cy="2227.35" r="4" stroke="rgb(0,51,255)" stroke-width="2" fill="none"></circle>
<circle cx="7030.07" cy="1882.47" r="4" stroke="rgb(0,51,255)" stroke-width="2" fill="none"></circle>
<circle cx="2974.71" cy="2324.81" r="4" stroke="rgb(255,250,0)" stroke-width="2" fill="none"></circle>
<circle cx="5512.39" cy="1631.17" r="4" stroke="rgb(255,250,0)" stroke-width="2" fill="none"></circle>
<circle cx="2801.82" cy="2377.24" r="4" stroke="rgb(0,255,152)" stroke-width="2" fill="none"></circle>
<circle cx="7052.04" cy="1681.89" r="4" stroke="rgb(0,255,152)" stroke-width="2" fill="none"></circle>
<circle cx="2723.95" cy="2522.9" r="4" stroke="rgb(0,51,255)" stroke-width="2" fill="none"></circle>
<circle cx="5162.93" cy="458.657" r="4" stroke="rgb(0,51,255)" stroke-width="2" fill="none"></circle>
<circle cx="1932.45" cy="2617.34" r="4" stroke="rgb(178,0,255)" stroke-width="2" fill="none"></circle>
<circle cx="6021.55" cy="1719.02" r="4" stroke="rgb(178,0,255)" stroke-width="2" fill="none"></circle>
<circle cx="2087.99" cy="2627.46" r="4" stroke="rgb(0,229,255)" stroke-width="2" fill="none"></circle>
<circle cx="6688.35" cy="1929.94" r="4" stroke="rgb(0,229,255)" stroke-width="2" fill="none"></circle>
</svg>