<?xml version="1.0" standalone="yes"?>
<!-- SVG graphic -->
<svg xmlns='http://www.w3.org/2000/svg' xmlns:xlink='http://www.w3.org/1999/xlink'
width="8064px" height="3024px" preserveAspectRatio="xMinYMin meet" viewBox="0 0 8064 3024" version="1.1">
<image x="0" y="0" width="4032px" height="3024px" opacity="1" xlink:href="/home/jeong/Code/2D-to-3D-Modeling-using-AI/Make3D/Image/20200227_180735.jpg"/>
<image x="4032" y="0" width="4032px" height="3024px" opacity="1" xlink:href="/home/jeong/Code/2D-to-3D-Modeling-using-AI/Make3D/Image/20200227_180808.jpg"/>
<polyline points="2232.84,865.808,5818.41,1743.44" stroke="rgb(255,0,250)" stroke-width="2" fill="none"></polyline>
<polyline points="2175.47,897.623,5388.58,1268.94" stroke="rgb(255,216,0)" stroke-width="2" fill="none"></polyline>
<polyline points="2083.16,913.336,6159.99,1218.92" stroke="rgb(119,255,0)" stroke-width="2" fill="none"></polyline>
<polyline points="2069.34,978.069,6021.55,1719.02" stroke="rgb(8,0,255)" stroke-width="2" fill="none"></polyline>
<polyline points="1940.87,1020.02,6865.25,1861" stroke="rgb(255,131,0)" stroke-width="2" fill="none"></polyline>
<polyline points="1887.45,1118.22,6210.57,1353.52" stroke="rgb(72,255,0)" stroke-width="2" fill="none"></polyline>
<polyline points="2989.1,1119.2,5457.98,1187.94" stroke="rgb(0,255,76)" stroke-width="2" fill="none"></polyline>
<polyline points="2719.15,1123.37,5983.61,1301.71" stroke="rgb(255,85,0)" stroke-width="2" fill="none"></polyline>
<polyline points="2953.03,1249.42,5165.08,1242.66" stroke="rgb(140,0,255)" stroke-width="2" fill="none"></polyline>
<polyline points="1983.17,1297.04,4653.82,896.896" stroke="rgb(255,0,191)" stroke-width="2" fill="none"></polyline>
<polyline points="1852.35,1303.74,6295.19,1082.98" stroke="rgb(0,17,255)" stroke-width="2" fill="none"></polyline>
<polyline points="2031.81,1309.37,5467.08,1463.86" stroke="rgb(38,255,0)" stroke-width="2" fill="none"></polyline>
<polyline points="1702.46,1336.3,6860.04,1564.97" stroke="rgb(0,255,114)" stroke-width="2" fill="none"></polyline>
<polyline points="1801.12,1360.83,5748.27,1718.07" stroke="rgb(67,0,255)" stroke-width="2" fill="none"></polyline>
<polyline points="1707.45,1377.47,6188.73,1067.22" stroke="rgb(0,255,144)" stroke-width="2" fill="none"></polyline>
<polyline points="1681.66,1389.52,5987.37,1510.09" stroke="rgb(255,68,0)" stroke-width="2" fill="none"></polyline>
<polyline points="1692.94,1392.37,6860.04,1564.97" stroke="rgb(148,255,0)" stroke-width="2" fill="none"></polyline>
<polyline points="1695.2,1397.56,6742.81,1815.6" stroke="rgb(55,255,0)" stroke-width="2" fill="none"></polyline>
<polyline points="3010.11,1407.84,6130.59,1956.36" stroke="rgb(255,0,208)" stroke-width="2" fill="none"></polyline>
<polyline points="1657.21,1409.93,6434.04,1816.69" stroke="rgb(0,255,101)" stroke-width="2" fill="none"></polyline>
<polyline points="1639.9,1425.41,6407.48,1904.68" stroke="rgb(0,29,255)" stroke-width="2" fill="none"></polyline>
<polyline points="1644.34,1438.51,6698.44,1091.44" stroke="rgb(0,178,255)" stroke-width="2" fill="none"></polyline>
<polyline points="1691.78,1447.77,5920.11,1568" stroke="rgb(0,255,233)" stroke-width="2" fill="none"></polyline>
<polyline points="1908.83,1447.88,5433.58,1066.55" stroke="rgb(0,229,255)" stroke-width="2" fill="none"></polyline>
<polyline points="2993.95,1451.97,6517.84,1661.02" stroke="rgb(0,255,110)" stroke-width="2" fill="none"></polyline>
<polyline points="2109.87,1461.99,7196.45,1061.06" stroke="rgb(0,255,80)" stroke-width="2" fill="none"></polyline>
<polyline points="1652.43,1462.36,6737.86,1785.99" stroke="rgb(255,0,93)" stroke-width="2" fill="none"></polyline>
<polyline points="2336.19,1463.09,6714.13,1945.02" stroke="rgb(25,255,0)" stroke-width="2" fill="none"></polyline>
<polyline points="2107.05,1481.37,5683.07,1998.05" stroke="rgb(55,0,255)" stroke-width="2" fill="none"></polyline>
<polyline points="1823.33,1484.19,6150.35,1442.65" stroke="rgb(0,8,255)" stroke-width="2" fill="none"></polyline>
<polyline points="1720.39,1499.22,6683.79,1502.62" stroke="rgb(0,255,21)" stroke-width="2" fill="none"></polyline>
<polyline points="2106.02,1513.17,6539.66,1015.67" stroke="rgb(225,255,0)" stroke-width="2" fill="none"></polyline>
<polyline points="2994.55,1563.26,6110.74,1490.97" stroke="rgb(208,0,255)" stroke-width="2" fill="none"></polyline>
<polyline points="2593.01,1566.2,5967.79,1110.99" stroke="rgb(0,97,255)" stroke-width="2" fill="none"></polyline>
<polyline points="1521.02,1581.19,6781.71,1374.37" stroke="rgb(255,0,216)" stroke-width="2" fill="none"></polyline>
<polyline points="1514.96,1602.69,7110.96,1190.82" stroke="rgb(0,199,255)" stroke-width="2" fill="none"></polyline>
<polyline points="1483.97,1617.02,6626.67,2043.69" stroke="rgb(0,203,255)" stroke-width="2" fill="none"></polyline>
<polyline points="1840.48,1618.86,6975.15,1796.25" stroke="rgb(135,255,0)" stroke-width="2" fill="none"></polyline>
<polyline points="1481.43,1635.46,7213.99,1603.45" stroke="rgb(148,255,0)" stroke-width="2" fill="none"></polyline>
<polyline points="2633.72,1640.2,5549.17,1313.27" stroke="rgb(59,255,0)" stroke-width="2" fill="none"></polyline>
<polyline points="1753.88,1644.18,6039.48,1054.51" stroke="rgb(148,0,255)" stroke-width="2" fill="none"></polyline>
<polyline points="1570.35,1686.32,6715.19,1892.6" stroke="rgb(255,0,165)" stroke-width="2" fill="none"></polyline>
<polyline points="1607.37,1689.93,6491.59,1762.8" stroke="rgb(0,97,255)" stroke-width="2" fill="none"></polyline>
<polyline points="1574.51,1693.21,5560.82,1230.91" stroke="rgb(246,255,0)" stroke-width="2" fill="none"></polyline>
<polyline points="1533.75,1709.77,6944.51,1771" stroke="rgb(0,93,255)" stroke-width="2" fill="none"></polyline>
<polyline points="1527.04,1717.83,5688.99,1946.91" stroke="rgb(17,0,255)" stroke-width="2" fill="none"></polyline>
<polyline points="1645.1,1750.74,5938.84,1469.15" stroke="rgb(255,0,208)" stroke-width="2" fill="none"></polyline>
<polyline points="1479.74,1751.79,6594.28,2023.01" stroke="rgb(0,255,233)" stroke-width="2" fill="none"></polyline>
<polyline points="1746.84,1769.25,5938.84,1469.15" stroke="rgb(0,72,255)" stroke-width="2" fill="none"></polyline>
<polyline points="1458.29,1771.53,6079.26,1420.36" stroke="rgb(0,255,59)" stroke-width="2" fill="none"></polyline>
<polyline points="1413.63,1777.39,6680.91,1138.76" stroke="rgb(255,0,169)" stroke-width="2" fill="none"></polyline>
<polyline points="1450.36,1779.88,6672.81,1686.63" stroke="rgb(255,0,136)" stroke-width="2" fill="none"></polyline>
<polyline points="2396.42,1780.92,6695.1,1060.05" stroke="rgb(255,0,119)" stroke-width="2" fill="none"></polyline>
<polyline points="1425.53,1784.57,6362.69,1790.93" stroke="rgb(0,255,63)" stroke-width="2" fill="none"></polyline>
<polyline points="2953.91,1795,7030.07,1882.47" stroke="rgb(0,255,144)" stroke-width="2" fill="none"></polyline>
<polyline points="1805.71,1798.15,6524.61,992.291" stroke="rgb(255,0,38)" stroke-width="2" fill="none"></polyline>
<polyline points="1415.02,1800.93,6711.35,1544.36" stroke="rgb(144,0,255)" stroke-width="2" fill="none"></polyline>
<polyline points="1720.33,1806.19,5485,1618.37" stroke="rgb(0,255,55)" stroke-width="2" fill="none"></polyline>
<polyline points="1521.6,1808.33,7086.93,1430.07" stroke="rgb(63,255,0)" stroke-width="2" fill="none"></polyline>
<polyline points="2943.91,1815.77,6440.82,1827.89" stroke="rgb(255,170,0)" stroke-width="2" fill="none"></polyline>
<polyline points="1424.12,1816.01,6709.25,1807.01" stroke="rgb(255,46,0)" stroke-width="2" fill="none"></polyline>
<polyline points="1698.05,1818.05,6882.8,1821.63" stroke="rgb(76,255,0)" stroke-width="2" fill="none"></polyline>
<polyline points="1348.15,1824.65,6208.37,980.3" stroke="rgb(55,255,0)" stroke-width="2" fill="none"></polyline>
<polyline points="2978.55,1826.87,6731.96,1241.08" stroke="rgb(0,255,220)" stroke-width="2" fill="none"></polyline>
<polyline points="1497.01,1831.51,6645.39,1442.35" stroke="rgb(0,208,255)" stroke-width="2" fill="none"></polyline>
<polyline points="2873.56,1832.52,6627.77,1001.76" stroke="rgb(203,0,255)" stroke-width="2" fill="none"></polyline>
<polyline points="1378.3,1849.42,6080.12,1617.52" stroke="rgb(0,12,255)" stroke-width="2" fill="none"></polyline>
<polyline points="2933.61,1854.06,5939.51,1268.7" stroke="rgb(255,102,0)" stroke-width="2" fill="none"></polyline>
<polyline points="1539.22,1864.78,6566.67,1951.86" stroke="rgb(255,68,0)" stroke-width="2" fill="none"></polyline>
<polyline points="1355.36,1868.16,6907.55,1250.43" stroke="rgb(255,0,157)" stroke-width="2" fill="none"></polyline>
<polyline points="1513.85,1896.46,6086.03,1603" stroke="rgb(255,8,0)" stroke-width="2" fill="none"></polyline>
<polyline points="1354.04,1896.53,6084.84,1196.09" stroke="rgb(0,255,186)" stroke-width="2" fill="none"></polyline>
<polyline points="2907.41,1899.52,6861.94,1480.85" stroke="rgb(186,0,255)" stroke-width="2" fill="none"></polyline>
<polyline points="1455.25,1904.78,6256.32,1758.21" stroke="rgb(0,89,255)" stroke-width="2" fill="none"></polyline>
<polyline points="1366.94,1906.13,6765.81,1655.6" stroke="rgb(93,255,0)" stroke-width="2" fill="none"></polyline>
<polyline points="1407.31,1909.76,5924.86,1580.66" stroke="rgb(255,59,0)" stroke-width="2" fill="none"></polyline>
<polyline points="1457.66,1910.68,6598.49,1996.26" stroke="rgb(255,0,106)" stroke-width="2" fill="none"></polyline>
<polyline points="1860.67,1926.08,5967.5,1962.92" stroke="rgb(255,208,0)" stroke-width="2" fill="none"></polyline>
<polyline points="1393.89,1938.51,5631.46,1120.77" stroke="rgb(0,212,255)" stroke-width="2" fill="none"></polyline>
<polyline points="1280.1,1944.25,6103.23,1692.16" stroke="rgb(0,174,255)" stroke-width="2" fill="none"></polyline>
<polyline points="1308.08,1967.76,6887.57,1576.54" stroke="rgb(0,242,255)" stroke-width="2" fill="none"></polyline>
<polyline points="1274.41,1981.56,6212.05,1063.41" stroke="rgb(255,93,0)" stroke-width="2" fill="none"></polyline>
<polyline points="1447.81,1987.25,6150.8,1808.85" stroke="rgb(0,255,199)" stroke-width="2" fill="none"></polyline>
<polyline points="1716.3,1990.11,5573.22,1382.89" stroke="rgb(255,119,0)" stroke-width="2" fill="none"></polyline>
<polyline points="1251.39,1997.11,7055.37,1775.05" stroke="rgb(0,255,157)" stroke-width="2" fill="none"></polyline>
<polyline points="1563.89,2003.58,4717.17,757.411" stroke="rgb(0,195,255)" stroke-width="2" fill="none"></polyline>
<polyline points="1339.56,2015.92,6957.17,1771.06" stroke="rgb(46,0,255)" stroke-width="2" fill="none"></polyline>
<polyline points="1396.29,2021.55,6828.22,1890.75" stroke="rgb(255,0,242)" stroke-width="2" fill="none"></polyline>
<polyline points="2842.83,2033.21,5902.22,1894.14" stroke="rgb(0,174,255)" stroke-width="2" fill="none"></polyline>
<polyline points="1544.32,2041.54,6691.3,1025.35" stroke="rgb(255,0,17)" stroke-width="2" fill="none"></polyline>
<polyline points="1346.34,2048.57,6686.19,1613.78" stroke="rgb(0,106,255)" stroke-width="2" fill="none"></polyline>
<polyline points="2758.3,2059.81,6028.6,1036.76" stroke="rgb(161,255,0)" stroke-width="2" fill="none"></polyline>
<polyline points="2076.07,2081.34,5961.11,1607.53" stroke="rgb(255,0,123)" stroke-width="2" fill="none"></polyline>
<polyline points="1269.56,2137.57,5908.56,1201.46" stroke="rgb(255,0,161)" stroke-width="2" fill="none"></polyline>
<polyline points="1376.62,2188.31,6272.14,1938.93" stroke="rgb(59,0,255)" stroke-width="2" fill="none"></polyline>
<polyline points="1251.58,2202.01,6873.76,1375.78" stroke="rgb(0,255,178)" stroke-width="2" fill="none"></polyline>
<polyline points="2663.08,2217.74,6344.91,976.312" stroke="rgb(46,0,255)" stroke-width="2" fill="none"></polyline>
<polyline points="2693.62,2224.91,6001.27,1729.03" stroke="rgb(255,17,0)" stroke-width="2" fill="none"></polyline>
<polyline points="2712.33,2252.03,6054.78,1809.13" stroke="rgb(255,246,0)" stroke-width="2" fill="none"></polyline>
<polyline points="2603.42,2277.86,6206.04,1047.29" stroke="rgb(0,255,80)" stroke-width="2" fill="none"></polyline>
<polyline points="2594.11,2282.39,5772.43,1742.87" stroke="rgb(255,0,140)" stroke-width="2" fill="none"></polyline>
<polyline points="1994.26,2316.85,5773.98,1987.39" stroke="rgb(255,255,0)" stroke-width="2" fill="none"></polyline>
<polyline points="2670.26,2358.25,5781.59,1667.97" stroke="rgb(0,255,233)" stroke-width="2" fill="none"></polyline>
<polyline points="2474.74,2380.06,6801.39,1998.23" stroke="rgb(0,255,12)" stroke-width="2" fill="none"></polyline>
<polyline points="2489.01,2458.28,6381.5,2030.16" stroke="rgb(0,255,135)" stroke-width="2" fill="none"></polyline>
<polyline points="2480.39,2459.79,5851.17,1817.77" stroke="rgb(144,0,255)" stroke-width="2" fill="none"></polyline>
<polyline points="2272.74,2491.72,6854.09,1810.18" stroke="rgb(255,42,0)" stroke-width="2" fill="none"></polyline>
<polyline points="2185.78,2530.5,6695.38,1738.87" stroke="rgb(0,255,29)" stroke-width="2" fill="none"></polyline>
<polyline points="2174.74,2579.17,6154.61,1816.62" stroke="rgb(0,191,255)" stroke-width="2" fill="none"></polyline>
<polyline points="2292,2593.83,6011.81,1266.87" stroke="rgb(203,255,0)" stroke-width="2" fill="none"></polyline>
<polyline points="1927.55,2620.56,5760.85,2004.24" stroke="rgb(0,178,255)" stroke-width="2" fill="none"></polyline>
<polyline points="1924.69,2637.12,6790.81,1219.69" stroke="rgb(255,80,0)" stroke-width="2" fill="none"></polyline>
<polyline points="1929.53,2641.69,5788.1,1764.53" stroke="rgb(110,255,0)" stroke-width="2" fill="none"></polyline>
<polyline points="1928.9,2648.16,6636.65,1361.54" stroke="rgb(0,8,255)" stroke-width="2" fill="none"></polyline>
<polyline points="1894.01,2652.82,6375.42,1748.28" stroke="rgb(165,0,255)" stroke-width="2" fill="none"></polyline>
<polyline points="1938.97,2667.82,6861.94,1480.85" stroke="rgb(0,255,12)" stroke-width="2" fill="none"></polyline>
<polyline points="1856.37,2670.38,7077.13,1868.6" stroke="rgb(203,255,0)" stroke-width="2" fill="none"></polyline>
<polyline points="1920.52,2673.66,6910.98,1108.48" stroke="rgb(0,255,212)" stroke-width="2" fill="none"></polyline>
<polyline points="1991.57,2684.93,7033.37,1822.18" stroke="rgb(246,0,255)" stroke-width="2" fill="none"></polyline>
<polyline points="1731.74,2709.75,6961.23,1326.53" stroke="rgb(131,0,255)" stroke-width="2" fill="none"></polyline>
<polyline points="1691.94,2737.4,7572.44,1439.43" stroke="rgb(255,161,0)" stroke-width="2" fill="none"></polyline>
<polyline points="1235.72,2761.83,6000.77,1762" stroke="rgb(0,255,144)" stroke-width="2" fill="none"></polyline>
<circle cx="2232.84" cy="865.808" r="4" stroke="rgb(255,0,250)" stroke-width="2" fill="none"></circle>
<circle cx="5818.41" cy="1743.44" r="4" stroke="rgb(255,0,250)" stroke-width="2" fill="none"></circle>
<circle cx="2175.47" cy="897.623" r="4" stroke="rgb(255,216,0)" stroke-width="2" fill="none"></circle>
<circle cx="5388.58" cy="1268.94" r="4" stroke="rgb(255,216,0)" stroke-width="2" fill="none"></circle>
<circle cx="2083.16" cy="913.336" r="4" stroke="rgb(119,255,0)" stroke-width="2" fill="none"></circle>
<circle cx="6159.99" cy="1218.92" r="4" stroke="rgb(119,255,0)" stroke-width="2" fill="none"></circle>
<circle cx="2069.34" cy="978.069" r="4" stroke="rgb(8,0,255)" stroke-width="2" fill="none"></circle>
<circle cx="6021.55" cy="1719.02" r="4" stroke="rgb(8,0,255)" stroke-width="2" fill="none"></circle>
<circle cx="1940.87" cy="1020.02" r="4" stroke="rgb(255,131,0)" stroke-width="2" fill="none"></circle>
<circle cx="6865.25" cy="1861" r="4" stroke="rgb(255,131,0)" stroke-width="2" fill="none"></circle>
<circle cx="1887.45" cy="1118.22" r="4" stroke="rgb(72,255,0)" stroke-width="2" fill="none"></circle>
<circle cx="6210.57" cy="1353.52" r="4" stroke="rgb(72,255,0)" stroke-width="2" fill="none"></circle>
<circle cx="2989.1" cy="1119.2" r="4" stroke="rgb(0,255,76)" stroke-width="2" fill="none"></circle>
<circle cx="5457.98" cy="1187.94" r="4" stroke="rgb(0,255,76)" stroke-width="2" fill="none"></circle>
<circle cx="2719.15" cy="1123.37" r="4" stroke="rgb(255,85,0)" stroke-width="2" fill="none"></circle>
<circle cx="5983.61" cy="1301.71" r="4" stroke="rgb(255,85,0)" stroke-width="2" fill="none"></circle>
<circle cx="2953.03" cy="1249.42" r="4" stroke="rgb(140,0,255)" stroke-width="2" fill="none"></circle>
<circle cx="5165.08" cy="1242.66" r="4" stroke="rgb(140,0,255)" stroke-width="2" fill="none"></circle>
<circle cx="1983.17" cy="1297.04" r="4" stroke="rgb(255,0,191)" stroke-width="2" fill="none"></circle>
<circle cx="4653.82" cy="896.896" r="4" stroke="rgb(255,0,191)" stroke-width="2" fill="none"></circle>
<circle cx="1852.35" cy="1303.74" r="4" stroke="rgb(0,17,255)" stroke-width="2" fill="none"></circle>
<circle cx="6295.19" cy="1082.98" r="4" stroke="rgb(0,17,255)" stroke-width="2" fill="none"></circle>
<circle cx="2031.81" cy="1309.37" r="4" stroke="rgb(38,255,0)" stroke-width="2" fill="none"></circle>
<circle cx="5467.08" cy="1463.86" r="4" stroke="rgb(38,255,0)" stroke-width="2" fill="none"></circle>
<circle cx="1702.46" cy="1336.3" r="4" stroke="rgb(0,255,114)" stroke-width="2" fill="none"></circle>
<circle cx="6860.04" cy="1564.97" r="4" stroke="rgb(0,255,114)" stroke-width="2" fill="none"></circle>
<circle cx="1801.12" cy="1360.83" r="4" stroke="rgb(67,0,255)" stroke-width="2" fill="none"></circle>
<circle cx="5748.27" cy="1718.07" r="4" stroke="rgb(67,0,255)" stroke-width="2" fill="none"></circle>
<circle cx="1707.45" cy="1377.47" r="4" stroke="rgb(0,255,144)" stroke-width="2" fill="none"></circle>
<circle cx="6188.73" cy="1067.22" r="4" stroke="rgb(0,255,144)" stroke-width="2" fill="none"></circle>
<circle cx="1681.66" cy="1389.52" r="4" stroke="rgb(255,68,0)" stroke-width="2" fill="none"></circle>
<circle cx="5987.37" cy="1510.09" r="4" stroke="rgb(255,68,0)" stroke-width="2" fill="none"></circle>
<circle cx="1692.94" cy="1392.37" r="4" stroke="rgb(148,255,0)" stroke-width="2" fill="none"></circle>
<circle cx="6860.04" cy="1564.97" r="4" stroke="rgb(148,255,0)" stroke-width="2" fill="none"></circle>
<circle cx="1695.2" cy="1397.56" r="4" stroke="rgb(55,255,0)" stroke-width="2" fill="none"></circle>
<circle cx="6742.81" cy="1815.6" r="4" stroke="rgb(55,255,0)" stroke-width="2" fill="none"></circle>
<circle cx="3010.11" cy="1407.84" r="4" stroke="rgb(255,0,208)" stroke-width="2" fill="none"></circle>
<circle cx="6130.59" cy="1956.36" r="4" stroke="rgb(255,0,208)" stroke-width="2" fill="none"></circle>
<circle cx="1657.21" cy="1409.93" r="4" stroke="rgb(0,255,101)" stroke-width="2" fill="none"></circle>
<circle cx="6434.04" cy="1816.69" r="4" stroke="rgb(0,255,101)" stroke-width="2" fill="none"></circle>
<circle cx="1639.9" cy="1425.41" r="4" stroke="rgb(0,29,255)" stroke-width="2" fill="none"></circle>
<circle cx="6407.48" cy="1904.68" r="4" stroke="rgb(0,29,255)" stroke-width="2" fill="none"></circle>
<circle cx="1644.34" cy="1438.51" r="4" stroke="rgb(0,178,255)" stroke-width="2" fill="none"></circle>
<circle cx="6698.44" cy="1091.44" r="4" stroke="rgb(0,178,255)" stroke-width="2" fill="none"></circle>
<circle cx="1691.78" cy="1447.77" r="4" stroke="rgb(0,255,233)" stroke-width="2" fill="none"></circle>
<circle cx="5920.11" cy="1568" r="4" stroke="rgb(0,255,233)" stroke-width="2" fill="none"></circle>
<circle cx="1908.83" cy="1447.88" r="4" stroke="rgb(0,229,255)" stroke-width="2" fill="none"></circle>
<circle cx="5433.58" cy="1066.55" r="4" stroke="rgb(0,229,255)" stroke-width="2" fill="none"></circle>
<circle cx="2993.95" cy="1451.97" r="4" stroke="rgb(0,255,110)" stroke-width="2" fill="none"></circle>
<circle cx="6517.84" cy="1661.02" r="4" stroke="rgb(0,255,110)" stroke-width="2" fill="none"></circle>
<circle cx="2109.87" cy="1461.99" r="4" stroke="rgb(0,255,80)" stroke-width="2" fill="none"></circle>
<circle cx="7196.45" cy="1061.06" r="4" stroke="rgb(0,255,80)" stroke-width="2" fill="none"></circle>
<circle cx="1652.43" cy="1462.36" r="4" stroke="rgb(255,0,93)" stroke-width="2" fill="none"></circle>
<circle cx="6737.86" cy="1785.99" r="4" stroke="rgb(255,0,93)" stroke-width="2" fill="none"></circle>
<circle cx="2336.19" cy="1463.09" r="4" stroke="rgb(25,255,0)" stroke-width="2" fill="none"></circle>
<circle cx="6714.13" cy="1945.02" r="4" stroke="rgb(25,255,0)" stroke-width="2" fill="none"></circle>
<circle cx="2107.05" cy="1481.37" r="4" stroke="rgb(55,0,255)" stroke-width="2" fill="none"></circle>
<circle cx="5683.07" cy="1998.05" r="4" stroke="rgb(55,0,255)" stroke-width="2" fill="none"></circle>
<circle cx="1823.33" cy="1484.19" r="4" stroke="rgb(0,8,255)" stroke-width="2" fill="none"></circle>
<circle cx="6150.35" cy="1442.65" r="4" stroke="rgb(0,8,255)" stroke-width="2" fill="none"></circle>
<circle cx="1720.39" cy="1499.22" r="4" stroke="rgb(0,255,21)" stroke-width="2" fill="none"></circle>
<circle cx="6683.79" cy="1502.62" r="4" stroke="rgb(0,255,21)" stroke-width="2" fill="none"></circle>
<circle cx="2106.02" cy="1513.17" r="4" stroke="rgb(225,255,0)" stroke-width="2" fill="none"></circle>
<circle cx="6539.66" cy="1015.67" r="4" stroke="rgb(225,255,0)" stroke-width="2" fill="none"></circle>
<circle cx="2994.55" cy="1563.26" r="4" stroke="rgb(208,0,255)" stroke-width="2" fill="none"></circle>
<circle cx="6110.74" cy="1490.97" r="4" stroke="rgb(208,0,255)" stroke-width="2" fill="none"></circle>
<circle cx="2593.01" cy="1566.2" r="4" stroke="rgb(0,97,255)" stroke-width="2" fill="none"></circle>
<circle cx="5967.79" cy="1110.99" r="4" stroke="rgb(0,97,255)" stroke-width="2" fill="none"></circle>
<circle cx="1521.02" cy="1581.19" r="4" stroke="rgb(255,0,216)" stroke-width="2" fill="none"></circle>
<circle cx="6781.71" cy="1374.37" r="4" stroke="rgb(255,0,216)" stroke-width="2" fill="none"></circle>
<circle cx="1514.96" cy="1602.69" r="4" stroke="rgb(0,199,255)" stroke-width="2" fill="none"></circle>
<circle cx="7110.96" cy="1190.82" r="4" stroke="rgb(0,199,255)" stroke-width="2" fill="none"></circle>
<circle cx="1483.97" cy="1617.02" r="4" stroke="rgb(0,203,255)" stroke-width="2" fill="none"></circle>
<circle cx="6626.67" cy="2043.69" r="4" stroke="rgb(0,203,255)" stroke-width="2" fill="none"></circle>
<circle cx="1840.48" cy="1618.86" r="4" stroke="rgb(135,255,0)" stroke-width="2" fill="none"></circle>
<circle cx="6975.15" cy="1796.25" r="4" stroke="rgb(135,255,0)" stroke-width="2" fill="none"></circle>
<circle cx="1481.43" cy="1635.46" r="4" stroke="rgb(148,255,0)" stroke-width="2" fill="none"></circle>
<circle cx="7213.99" cy="1603.45" r="4" stroke="rgb(148,255,0)" stroke-width="2" fill="none"></circle>
<circle cx="2633.72" cy="1640.2" r="4" stroke="rgb(59,255,0)" stroke-width="2" fill="none"></circle>
<circle cx="5549.17" cy="1313.27" r="4" stroke="rgb(59,255,0)" stroke-width="2" fill="none"></circle>
<circle cx="1753.88" cy="1644.18" r="4" stroke="rgb(148,0,255)" stroke-width="2" fill="none"></circle>
<circle cx="6039.48" cy="1054.51" r="4" stroke="rgb(148,0,255)" stroke-width="2" fill="none"></circle>
<circle cx="1570.35" cy="1686.32" r="4" stroke="rgb(255,0,165)" stroke-width="2" fill="none"></circle>
<circle cx="6715.19" cy="1892.6" r="4" stroke="rgb(255,0,165)" stroke-width="2" fill="none"></circle>
<circle cx="1607.37" cy="1689.93" r="4" stroke="rgb(0,97,255)" stroke-width="2" fill="none"></circle>
<circle cx="6491.59" cy="1762.8" r="4" stroke="rgb(0,97,255)" stroke-width="2" fill="none"></circle>
<circle cx="1574.51" cy="1693.21" r="4" stroke="rgb(246,255,0)" stroke-width="2" fill="none"></circle>
<circle cx="5560.82" cy="1230.91" r="4" stroke="rgb(246,255,0)" stroke-width="2" fill="none"></circle>
<circle cx="1533.75" cy="1709.77" r="4" stroke="rgb(0,93,255)" stroke-width="2" fill="none"></circle>
<circle cx="6944.51" cy="1771" r="4" stroke="rgb(0,93,255)" stroke-width="2" fill="none"></circle>
<circle cx="1527.04" cy="1717.83" r="4" stroke="rgb(17,0,255)" stroke-width="2" fill="none"></circle>
<circle cx="5688.99" cy="1946.91" r="4" stroke="rgb(17,0,255)" stroke-width="2" fill="none"></circle>
<circle cx="1645.1" cy="1750.74" r="4" stroke="rgb(255,0,208)" stroke-width="2" fill="none"></circle>
<circle cx="5938.84" cy="1469.15" r="4" stroke="rgb(255,0,208)" stroke-width="2" fill="none"></circle>
<circle cx="1479.74" cy="1751.79" r="4" stroke="rgb(0,255,233)" stroke-width="2" fill="none"></circle>
<circle cx="6594.28" cy="2023.01" r="4" stroke="rgb(0,255,233)" stroke-width="2" fill="none"></circle>
<circle cx="1746.84" cy="1769.25" r="4" stroke="rgb(0,72,255)" stroke-width="2" fill="none"></circle>
<circle cx="5938.84" cy="1469.15" r="4" stroke="rgb(0,72,255)" stroke-width="2" fill="none"></circle>
<circle cx="1458.29" cy="1771.53" r="4" stroke="rgb(0,255,59)" stroke-width="2" fill="none"></circle>
<circle cx="6079.26" cy="1420.36" r="4" stroke="rgb(0,255,59)" stroke-width="2" fill="none"></circle>
<circle cx="1413.63" cy="1777.39" r="4" stroke="rgb(255,0,169)" stroke-width="2" fill="none"></circle>
<circle cx="6680.91" cy="1138.76" r="4" stroke="rgb(255,0,169)" stroke-width="2" fill="none"></circle>
<circle cx="1450.36" cy="1779.88" r="4" stroke="rgb(255,0,136)" stroke-width="2" fill="none"></circle>
<circle cx="6672.81" cy="1686.63" r="4" stroke="rgb(255,0,136)" stroke-width="2" fill="none"></circle>
<circle cx="2396.42" cy="1780.92" r="4" stroke="rgb(255,0,119)" stroke-width="2" fill="none"></circle>
<circle cx="6695.1" cy="1060.05" r="4" stroke="rgb(255,0,119)" stroke-width="2" fill="none"></circle>
<circle cx="1425.53" cy="1784.57" r="4" stroke="rgb(0,255,63)" stroke-width="2" fill="none"></circle>
<circle cx="6362.69" cy="1790.93" r="4" stroke="rgb(0,255,63)" stroke-width="2" fill="none"></circle>
<circle cx="2953.91" cy="1795" r="4" stroke="rgb(0,255,144)" stroke-width="2" fill="none"></circle>
<circle cx="7030.07" cy="1882.47" r="4" stroke="rgb(0,255,144)" stroke-width="2" fill="none"></circle>
<circle cx="1805.71" cy="1798.15" r="4" stroke="rgb(255,0,38)" stroke-width="2" fill="none"></circle>
<circle cx="6524.61" cy="992.291" r="4" stroke="rgb(255,0,38)" stroke-width="2" fill="none"></circle>
<circle cx="1415.02" cy="1800.93" r="4" stroke="rgb(144,0,255)" stroke-width="2" fill="none"></circle>
<circle cx="6711.35" cy="1544.36" r="4" stroke="rgb(144,0,255)" stroke-width="2" fill="none"></circle>
<circle cx="1720.33" cy="1806.19" r="4" stroke="rgb(0,255,55)" stroke-width="2" fill="none"></circle>
<circle cx="5485" cy="1618.37" r="4" stroke="rgb(0,255,55)" stroke-width="2" fill="none"></circle>
<circle cx="1521.6" cy="1808.33" r="4" stroke="rgb(63,255,0)" stroke-width="2" fill="none"></circle>
<circle cx="7086.93" cy="1430.07" r="4" stroke="rgb(63,255,0)" stroke-width="2" fill="none"></circle>
<circle cx="2943.91" cy="1815.77" r="4" stroke="rgb(255,170,0)" stroke-width="2" fill="none"></circle>
<circle cx="6440.82" cy="1827.89" r="4" stroke="rgb(255,170,0)" stroke-width="2" fill="none"></circle>
<circle cx="1424.12" cy="1816.01" r="4" stroke="rgb(255,46,0)" stroke-width="2" fill="none"></circle>
<circle cx="6709.25" cy="1807.01" r="4" stroke="rgb(255,46,0)" stroke-width="2" fill="none"></circle>
<circle cx="1698.05" cy="1818.05" r="4" stroke="rgb(76,255,0)" stroke-width="2" fill="none"></circle>
<circle cx="6882.8" cy="1821.63" r="4" stroke="rgb(76,255,0)" stroke-width="2" fill="none"></circle>
<circle cx="1348.15" cy="1824.65" r="4" stroke="rgb(55,255,0)" stroke-width="2" fill="none"></circle>
<circle cx="6208.37" cy="980.3" r="4" stroke="rgb(55,255,0)" stroke-width="2" fill="none"></circle>
<circle cx="2978.55" cy="1826.87" r="4" stroke="rgb(0,255,220)" stroke-width="2" fill="none"></circle>
<circle cx="6731.96" cy="1241.08" r="4" stroke="rgb(0,255,220)" stroke-width="2" fill="none"></circle>
<circle cx="1497.01" cy="1831.51" r="4" stroke="rgb(0,208,255)" stroke-width="2" fill="none"></circle>
<circle cx="6645.39" cy="1442.35" r="4" stroke="rgb(0,208,255)" stroke-width="2" fill="none"></circle>
<circle cx="2873.56" cy="1832.52" r="4" stroke="rgb(203,0,255)" stroke-width="2" fill="none"></circle>
<circle cx="6627.77" cy="1001.76" r="4" stroke="rgb(203,0,255)" stroke-width="2" fill="none"></circle>
<circle cx="1378.3" cy="1849.42" r="4" stroke="rgb(0,12,255)" stroke-width="2" fill="none"></circle>
<circle cx="6080.12" cy="1617.52" r="4" stroke="rgb(0,12,255)" stroke-width="2" fill="none"></circle>
<circle cx="2933.61" cy="1854.06" r="4" stroke="rgb(255,102,0)" stroke-width="2" fill="none"></circle>
<circle cx="5939.51" cy="1268.7" r="4" stroke="rgb(255,102,0)" stroke-width="2" fill="none"></circle>
<circle cx="1539.22" cy="1864.78" r="4" stroke="rgb(255,68,0)" stroke-width="2" fill="none"></circle>
<circle cx="6566.67" cy="1951.86" r="4" stroke="rgb(255,68,0)" stroke-width="2" fill="none"></circle>
<circle cx="1355.36" cy="1868.16" r="4" stroke="rgb(255,0,157)" stroke-width="2" fill="none"></circle>
<circle cx="6907.55" cy="1250.43" r="4" stroke="rgb(255,0,157)" stroke-width="2" fill="none"></circle>
<circle cx="1513.85" cy="1896.46" r="4" stroke="rgb(255,8,0)" stroke-width="2" fill="none"></circle>
<circle cx="6086.03" cy="1603" r="4" stroke="rgb(255,8,0)" stroke-width="2" fill="none"></circle>
<circle cx="1354.04" cy="1896.53" r="4" stroke="rgb(0,255,186)" stroke-width="2" fill="none"></circle>
<circle cx="6084.84" cy="1196.09" r="4" stroke="rgb(0,255,186)" stroke-width="2" fill="none"></circle>
<circle cx="2907.41" cy="1899.52" r="4" stroke="rgb(186,0,255)" stroke-width="2" fill="none"></circle>
<circle cx="6861.94" cy="1480.85" r="4" stroke="rgb(186,0,255)" stroke-width="2" fill="none"></circle>
<circle cx="1455.25" cy="1904.78" r="4" stroke="rgb(0,89,255)" stroke-width="2" fill="none"></circle>
<circle cx="6256.32" cy="1758.21" r="4" stroke="rgb(0,89,255)" stroke-width="2" fill="none"></circle>
<circle cx="1366.94" cy="1906.13" r="4" stroke="rgb(93,255,0)" stroke-width="2" fill="none"></circle>
<circle cx="6765.81" cy="1655.6" r="4" stroke="rgb(93,255,0)" stroke-width="2" fill="none"></circle>
<circle cx="1407.31" cy="1909.76" r="4" stroke="rgb(255,59,0)" stroke-width="2" fill="none"></circle>
<circle cx="5924.86" cy="1580.66" r="4" stroke="rgb(255,59,0)" stroke-width="2" fill="none"></circle>
<circle cx="1457.66" cy="1910.68" r="4" stroke="rgb(255,0,106)" stroke-width="2" fill="none"></circle>
<circle cx="6598.49" cy="1996.26" r="4" stroke="rgb(255,0,106)" stroke-width="2" fill="none"></circle>
<circle cx="1860.67" cy="1926.08" r="4" stroke="rgb(255,208,0)" stroke-width="2" fill="none"></circle>
<circle cx="5967.5" cy="1962.92" r="4" stroke="rgb(255,208,0)" stroke-width="2" fill="none"></circle>
<circle cx="1393.89" cy="1938.51" r="4" stroke="rgb(0,212,255)" stroke-width="2" fill="none"></circle>
<circle cx="5631.46" cy="1120.77" r="4" stroke="rgb(0,212,255)" stroke-width="2" fill="none"></circle>
<circle cx="1280.1" cy="1944.25" r="4" stroke="rgb(0,174,255)" stroke-width="2" fill="none"></circle>
<circle cx="6103.23" cy="1692.16" r="4" stroke="rgb(0,174,255)" stroke-width="2" fill="none"></circle>
<circle cx="1308.08" cy="1967.76" r="4" stroke="rgb(0,242,255)" stroke-width="2" fill="none"></circle>
<circle cx="6887.57" cy="1576.54" r="4" stroke="rgb(0,242,255)" stroke-width="2" fill="none"></circle>
<circle cx="1274.41" cy="1981.56" r="4" stroke="rgb(255,93,0)" stroke-width="2" fill="none"></circle>
<circle cx="6212.05" cy="1063.41" r="4" stroke="rgb(255,93,0)" stroke-width="2" fill="none"></circle>
<circle cx="1447.81" cy="1987.25" r="4" stroke="rgb(0,255,199)" stroke-width="2" fill="none"></circle>
<circle cx="6150.8" cy="1808.85" r="4" stroke="rgb(0,255,199)" stroke-width="2" fill="none"></circle>
<circle cx="1716.3" cy="1990.11" r="4" stroke="rgb(255,119,0)" stroke-width="2" fill="none"></circle>
<circle cx="5573.22" cy="1382.89" r="4" stroke="rgb(255,119,0)" stroke-width="2" fill="none"></circle>
<circle cx="1251.39" cy="1997.11" r="4" stroke="rgb(0,255,157)" stroke-width="2" fill="none"></circle>
<circle cx="7055.37" cy="1775.05" r="4" stroke="rgb(0,255,157)" stroke-width="2" fill="none"></circle>
<circle cx="1563.89" cy="2003.58" r="4" stroke="rgb(0,195,255)" stroke-width="2" fill="none"></circle>
<circle cx="4717.17" cy="757.411" r="4" stroke="rgb(0,195,255)" stroke-width="2" fill="none"></circle>
<circle cx="1339.56" cy="2015.92" r="4" stroke="rgb(46,0,255)" stroke-width="2" fill="none"></circle>
<circle cx="6957.17" cy="1771.06" r="4" stroke="rgb(46,0,255)" stroke-width="2" fill="none"></circle>
<circle cx="1396.29" cy="2021.55" r="4" stroke="rgb(255,0,242)" stroke-width="2" fill="none"></circle>
<circle cx="6828.22" cy="1890.75" r="4" stroke="rgb(255,0,242)" stroke-width="2" fill="none"></circle>
<circle cx="2842.83" cy="2033.21" r="4" stroke="rgb(0,174,255)" stroke-width="2" fill="none"></circle>
<circle cx="5902.22" cy="1894.14" r="4" stroke="rgb(0,174,255)" stroke-width="2" fill="none"></circle>
<circle cx="1544.32" cy="2041.54" r="4" stroke="rgb(255,0,17)" stroke-width="2" fill="none"></circle>
<circle cx="6691.3" cy="1025.35" r="4" stroke="rgb(255,0,17)" stroke-width="2" fill="none"></circle>
<circle cx="1346.34" cy="2048.57" r="4" stroke="rgb(0,106,255)" stroke-width="2" fill="none"></circle>
<circle cx="6686.19" cy="1613.78" r="4" stroke="rgb(0,106,255)" stroke-width="2" fill="none"></circle>
<circle cx="2758.3" cy="2059.81" r="4" stroke="rgb(161,255,0)" stroke-width="2" fill="none"></circle>
<circle cx="6028.6" cy="1036.76" r="4" stroke="rgb(161,255,0)" stroke-width="2" fill="none"></circle>
<circle cx="2076.07" cy="2081.34" r="4" stroke="rgb(255,0,123)" stroke-width="2" fill="none"></circle>
<circle cx="5961.11" cy="1607.53" r="4" stroke="rgb(255,0,123)" stroke-width="2" fill="none"></circle>
<circle cx="1269.56" cy="2137.57" r="4" stroke="rgb(255,0,161)" stroke-width="2" fill="none"></circle>
<circle cx="5908.56" cy="1201.46" r="4" stroke="rgb(255,0,161)" stroke-width="2" fill="none"></circle>
<circle cx="1376.62" cy="2188.31" r="4" stroke="rgb(59,0,255)" stroke-width="2" fill="none"></circle>
<circle cx="6272.14" cy="1938.93" r="4" stroke="rgb(59,0,255)" stroke-width="2" fill="none"></circle>
<circle cx="1251.58" cy="2202.01" r="4" stroke="rgb(0,255,178)" stroke-width="2" fill="none"></circle>
<circle cx="6873.76" cy="1375.78" r="4" stroke="rgb(0,255,178)" stroke-width="2" fill="none"></circle>
<circle cx="2663.08" cy="2217.74" r="4" stroke="rgb(46,0,255)" stroke-width="2" fill="none"></circle>
<circle cx="6344.91" cy="976.312" r="4" stroke="rgb(46,0,255)" stroke-width="2" fill="none"></circle>
<circle cx="2693.62" cy="2224.91" r="4" stroke="rgb(255,17,0)" stroke-width="2" fill="none"></circle>
<circle cx="6001.27" cy="1729.03" r="4" stroke="rgb(255,17,0)" stroke-width="2" fill="none"></circle>
<circle cx="2712.33" cy="2252.03" r="4" stroke="rgb(255,246,0)" stroke-width="2" fill="none"></circle>
<circle cx="6054.78" cy="1809.13" r="4" stroke="rgb(255,246,0)" stroke-width="2" fill="none"></circle>
<circle cx="2603.42" cy="2277.86" r="4" stroke="rgb(0,255,80)" stroke-width="2" fill="none"></circle>
<circle cx="6206.04" cy="1047.29" r="4" stroke="rgb(0,255,80)" stroke-width="2" fill="none"></circle>
<circle cx="2594.11" cy="2282.39" r="4" stroke="rgb(255,0,140)" stroke-width="2" fill="none"></circle>
<circle cx="5772.43" cy="1742.87" r="4" stroke="rgb(255,0,140)" stroke-width="2" fill="none"></circle>
<circle cx="1994.26" cy="2316.85" r="4" stroke="rgb(255,255,0)" stroke-width="2" fill="none"></circle>
<circle cx="5773.98" cy="1987.39" r="4" stroke="rgb(255,255,0)" stroke-width="2" fill="none"></circle>
<circle cx="2670.26" cy="2358.25" r="4" stroke="rgb(0,255,233)" stroke-width="2" fill="none"></circle>
<circle cx="5781.59" cy="1667.97" r="4" stroke="rgb(0,255,233)" stroke-width="2" fill="none"></circle>
<circle cx="2474.74" cy="2380.06" r="4" stroke="rgb(0,255,12)" stroke-width="2" fill="none"></circle>
<circle cx="6801.39" cy="1998.23" r="4" stroke="rgb(0,255,12)" stroke-width="2" fill="none"></circle>
<circle cx="2489.01" cy="2458.28" r="4" stroke="rgb(0,255,135)" stroke-width="2" fill="none"></circle>
<circle cx="6381.5" cy="2030.16" r="4" stroke="rgb(0,255,135)" stroke-width="2" fill="none"></circle>
<circle cx="2480.39" cy="2459.79" r="4" stroke="rgb(144,0,255)" stroke-width="2" fill="none"></circle>
<circle cx="5851.17" cy="1817.77" r="4" stroke="rgb(144,0,255)" stroke-width="2" fill="none"></circle>
<circle cx="2272.74" cy="2491.72" r="4" stroke="rgb(255,42,0)" stroke-width="2" fill="none"></circle>
<circle cx="6854.09" cy="1810.18" r="4" stroke="rgb(255,42,0)" stroke-width="2" fill="none"></circle>
<circle cx="2185.78" cy="2530.5" r="4" stroke="rgb(0,255,29)" stroke-width="2" fill="none"></circle>
<circle cx="6695.38" cy="1738.87" r="4" stroke="rgb(0,255,29)" stroke-width="2" fill="none"></circle>
<circle cx="2174.74" cy="2579.17" r="4" stroke="rgb(0,191,255)" stroke-width="2" fill="none"></circle>
<circle cx="6154.61" cy="1816.62" r="4" stroke="rgb(0,191,255)" stroke-width="2" fill="none"></circle>
<circle cx="2292" cy="2593.83" r="4" stroke="rgb(203,255,0)" stroke-width="2" fill="none"></circle>
<circle cx="6011.81" cy="1266.87" r="4" stroke="rgb(203,255,0)" stroke-width="2" fill="none"></circle>
<circle cx="1927.55" cy="2620.56" r="4" stroke="rgb(0,178,255)" stroke-width="2" fill="none"></circle>
<circle cx="5760.85" cy="2004.24" r="4" stroke="rgb(0,178,255)" stroke-width="2" fill="none"></circle>
<circle cx="1924.69" cy="2637.12" r="4" stroke="rgb(255,80,0)" stroke-width="2" fill="none"></circle>
<circle cx="6790.81" cy="1219.69" r="4" stroke="rgb(255,80,0)" stroke-width="2" fill="none"></circle>
<circle cx="1929.53" cy="2641.69" r="4" stroke="rgb(110,255,0)" stroke-width="2" fill="none"></circle>
<circle cx="5788.1" cy="1764.53" r="4" stroke="rgb(110,255,0)" stroke-width="2" fill="none"></circle>
<circle cx="1928.9" cy="2648.16" r="4" stroke="rgb(0,8,255)" stroke-width="2" fill="none"></circle>
<circle cx="6636.65" cy="1361.54" r="4" stroke="rgb(0,8,255)" stroke-width="2" fill="none"></circle>
<circle cx="1894.01" cy="2652.82" r="4" stroke="rgb(165,0,255)" stroke-width="2" fill="none"></circle>
<circle cx="6375.42" cy="1748.28" r="4" stroke="rgb(165,0,255)" stroke-width="2" fill="none"></circle>
<circle cx="1938.97" cy="2667.82" r="4" stroke="rgb(0,255,12)" stroke-width="2" fill="none"></circle>
<circle cx="6861.94" cy="1480.85" r="4" stroke="rgb(0,255,12)" stroke-width="2" fill="none"></circle>
<circle cx="1856.37" cy="2670.38" r="4" stroke="rgb(203,255,0)" stroke-width="2" fill="none"></circle>
<circle cx="7077.13" cy="1868.6" r="4" stroke="rgb(203,255,0)" stroke-width="2" fill="none"></circle>
<circle cx="1920.52" cy="2673.66" r="4" stroke="rgb(0,255,212)" stroke-width="2" fill="none"></circle>
<circle cx="6910.98" cy="1108.48" r="4" stroke="rgb(0,255,212)" stroke-width="2" fill="none"></circle>
<circle cx="1991.57" cy="2684.93" r="4" stroke="rgb(246,0,255)" stroke-width="2" fill="none"></circle>
<circle cx="7033.37" cy="1822.18" r="4" stroke="rgb(246,0,255)" stroke-width="2" fill="none"></circle>
<circle cx="1731.74" cy="2709.75" r="4" stroke="rgb(131,0,255)" stroke-width="2" fill="none"></circle>
<circle cx="6961.23" cy="1326.53" r="4" stroke="rgb(131,0,255)" stroke-width="2" fill="none"></circle>
<circle cx="1691.94" cy="2737.4" r="4" stroke="rgb(255,161,0)" stroke-width="2" fill="none"></circle>
<circle cx="7572.44" cy="1439.43" r="4" stroke="rgb(255,161,0)" stroke-width="2" fill="none"></circle>
<circle cx="1235.72" cy="2761.83" r="4" stroke="rgb(0,255,144)" stroke-width="2" fill="none"></circle>
<circle cx="6000.77" cy="1762" r="4" stroke="rgb(0,255,144)" stroke-width="2" fill="none"></circle>
</svg>