<?xml version="1.0" standalone="yes"?>
<!-- SVG graphic -->
<svg xmlns='http://www.w3.org/2000/svg' xmlns:xlink='http://www.w3.org/1999/xlink'
width="8064px" height="3024px" preserveAspectRatio="xMinYMin meet" viewBox="0 0 8064 3024" version="1.1">
<image x="0" y="0" width="4032px" height="3024px" opacity="1" xlink:href="/home/jeong/Code/2D-to-3D-Modeling-using-AI/Make3D/Image/20200227_180623.jpg"/>
<image x="4032" y="0" width="4032px" height="3024px" opacity="1" xlink:href="/home/jeong/Code/2D-to-3D-Modeling-using-AI/Make3D/Image/20200227_180712.jpg"/>
<polyline points="2379,750.093,5867.01,1961.08" stroke="rgb(174,255,0)" stroke-width="2" fill="none"></polyline>
<polyline points="1176.28,763.757,6609.45,2009.71" stroke="rgb(0,114,255)" stroke-width="2" fill="none"></polyline>
<polyline points="1628.64,773.581,6968.49,1404.03" stroke="rgb(106,0,255)" stroke-width="2" fill="none"></polyline>
<polyline points="1581.01,828.968,6179.84,1825.62" stroke="rgb(0,255,131)" stroke-width="2" fill="none"></polyline>
<polyline points="2433.76,852.216,5780.45,1446.38" stroke="rgb(255,216,0)" stroke-width="2" fill="none"></polyline>
<polyline points="1904.92,880.792,5434.94,1846.72" stroke="rgb(233,255,0)" stroke-width="2" fill="none"></polyline>
<polyline points="2450.63,890.993,6447.23,1439.2" stroke="rgb(255,72,0)" stroke-width="2" fill="none"></polyline>
<polyline points="2339.02,892.946,5872.1,1959.01" stroke="rgb(0,255,25)" stroke-width="2" fill="none"></polyline>
<polyline points="1946.52,899.813,6142.18,1627.41" stroke="rgb(255,0,140)" stroke-width="2" fill="none"></polyline>
<polyline points="1955.76,901.634,6090.02,1447.97" stroke="rgb(212,255,0)" stroke-width="2" fill="none"></polyline>
<polyline points="1919.1,903.523,6298.01,2007.27" stroke="rgb(0,127,255)" stroke-width="2" fill="none"></polyline>
<polyline points="2140.06,927.108,5485.18,1720.34" stroke="rgb(21,255,0)" stroke-width="2" fill="none"></polyline>
<polyline points="2005.97,943.161,6460.34,1750.31" stroke="rgb(255,0,148)" stroke-width="2" fill="none"></polyline>
<polyline points="2162.9,943.944,5464.44,1729.49" stroke="rgb(51,255,0)" stroke-width="2" fill="none"></polyline>
<polyline points="1013.14,946.226,5592.86,2244.88" stroke="rgb(46,255,0)" stroke-width="2" fill="none"></polyline>
<polyline points="2772.55,946.75,6606.2,1796.62" stroke="rgb(0,135,255)" stroke-width="2" fill="none"></polyline>
<polyline points="2688.53,951.305,6045.99,2000.94" stroke="rgb(89,255,0)" stroke-width="2" fill="none"></polyline>
<polyline points="2025.8,954.302,6084.09,1450.89" stroke="rgb(255,204,0)" stroke-width="2" fill="none"></polyline>
<polyline points="2526.83,957.88,5690.76,1876.86" stroke="rgb(4,0,255)" stroke-width="2" fill="none"></polyline>
<polyline points="2608.11,958.997,6402.01,1380.6" stroke="rgb(12,0,255)" stroke-width="2" fill="none"></polyline>
<polyline points="1999.93,960.007,6464.3,1754.61" stroke="rgb(187,255,0)" stroke-width="2" fill="none"></polyline>
<polyline points="2038.34,962.565,5907.83,1672.21" stroke="rgb(255,123,0)" stroke-width="2" fill="none"></polyline>
<polyline points="2562.59,963.073,6045.26,1310.56" stroke="rgb(255,123,0)" stroke-width="2" fill="none"></polyline>
<polyline points="2571.12,963.533,6181.16,1223.41" stroke="rgb(0,255,110)" stroke-width="2" fill="none"></polyline>
<polyline points="2544.21,965.774,6154.88,1022.59" stroke="rgb(255,144,0)" stroke-width="2" fill="none"></polyline>
<polyline points="2575.48,973.21,6341.61,1533.22" stroke="rgb(29,255,0)" stroke-width="2" fill="none"></polyline>
<polyline points="1755.98,976.749,5602.21,1194.41" stroke="rgb(0,153,255)" stroke-width="2" fill="none"></polyline>
<polyline points="2708.15,977.006,5724.05,1507.98" stroke="rgb(255,46,0)" stroke-width="2" fill="none"></polyline>
<polyline points="2619.3,981.723,6707.75,1727.82" stroke="rgb(0,255,144)" stroke-width="2" fill="none"></polyline>
<polyline points="2820.51,983.236,6313.1,1979.96" stroke="rgb(89,255,0)" stroke-width="2" fill="none"></polyline>
<polyline points="2022.83,985.634,5727.94,1933.55" stroke="rgb(148,0,255)" stroke-width="2" fill="none"></polyline>
<polyline points="2152.64,990.753,5823.75,1308.45" stroke="rgb(0,25,255)" stroke-width="2" fill="none"></polyline>
<polyline points="2651.23,992.421,6611.83,1734.1" stroke="rgb(255,0,204)" stroke-width="2" fill="none"></polyline>
<polyline points="2105.89,1015.43,5823.99,1558.37" stroke="rgb(255,221,0)" stroke-width="2" fill="none"></polyline>
<polyline points="1932.37,1029.58,6561.06,1809.21" stroke="rgb(255,106,0)" stroke-width="2" fill="none"></polyline>
<polyline points="2908.06,1031.23,6039,1984.9" stroke="rgb(0,21,255)" stroke-width="2" fill="none"></polyline>
<polyline points="2184.42,1058.84,6136.14,1251.77" stroke="rgb(12,255,0)" stroke-width="2" fill="none"></polyline>
<polyline points="2171.3,1070,6554.37,2080.1" stroke="rgb(144,0,255)" stroke-width="2" fill="none"></polyline>
<polyline points="2030.87,1079.97,6489.65,1600.59" stroke="rgb(255,4,0)" stroke-width="2" fill="none"></polyline>
<polyline points="2120.54,1082.25,6192.66,1157.47" stroke="rgb(255,0,182)" stroke-width="2" fill="none"></polyline>
<polyline points="2932.52,1089.19,5254.8,2157.54" stroke="rgb(255,0,68)" stroke-width="2" fill="none"></polyline>
<polyline points="2183.82,1106.97,6136.14,1251.77" stroke="rgb(153,255,0)" stroke-width="2" fill="none"></polyline>
<polyline points="1986.95,1110.38,5498.78,981.077" stroke="rgb(203,255,0)" stroke-width="2" fill="none"></polyline>
<polyline points="2063.26,1122.46,6203.01,1148.25" stroke="rgb(0,250,255)" stroke-width="2" fill="none"></polyline>
<polyline points="2055.15,1148.52,6168.12,1185.92" stroke="rgb(0,203,255)" stroke-width="2" fill="none"></polyline>
<polyline points="2807.07,1154.14,5540.96,2198.19" stroke="rgb(0,250,255)" stroke-width="2" fill="none"></polyline>
<polyline points="2220.04,1154.91,6505.81,1508.39" stroke="rgb(255,127,0)" stroke-width="2" fill="none"></polyline>
<polyline points="2110.17,1156.41,6408.24,1612.85" stroke="rgb(216,0,255)" stroke-width="2" fill="none"></polyline>
<polyline points="2088.83,1156.94,6092.14,1502.06" stroke="rgb(80,255,0)" stroke-width="2" fill="none"></polyline>
<polyline points="2223.43,1160.5,6752.25,1650.56" stroke="rgb(131,0,255)" stroke-width="2" fill="none"></polyline>
<polyline points="2136,1161.3,6172.35,1136.33" stroke="rgb(255,199,0)" stroke-width="2" fill="none"></polyline>
<polyline points="2233.97,1163.73,6589.58,1225.43" stroke="rgb(0,255,242)" stroke-width="2" fill="none"></polyline>
<polyline points="2900.67,1164.81,6413.04,1463.6" stroke="rgb(0,255,220)" stroke-width="2" fill="none"></polyline>
<polyline points="2137.58,1166.06,6068.5,1058.02" stroke="rgb(187,255,0)" stroke-width="2" fill="none"></polyline>
<polyline points="2143.87,1171.94,5966.09,1605.6" stroke="rgb(0,191,255)" stroke-width="2" fill="none"></polyline>
<polyline points="2875.7,1175.77,5843.62,1239.88" stroke="rgb(174,255,0)" stroke-width="2" fill="none"></polyline>
<polyline points="2243.92,1178.68,6246.64,1183.3" stroke="rgb(0,216,255)" stroke-width="2" fill="none"></polyline>
<polyline points="2250.72,1190.57,6199.57,1384.67" stroke="rgb(255,165,0)" stroke-width="2" fill="none"></polyline>
<polyline points="2078.9,1193.24,5696.64,1967.44" stroke="rgb(127,255,0)" stroke-width="2" fill="none"></polyline>
<polyline points="2172,1197.13,6065.17,988.25" stroke="rgb(0,106,255)" stroke-width="2" fill="none"></polyline>
<polyline points="2260.97,1206.58,6105.55,1616.06" stroke="rgb(255,46,0)" stroke-width="2" fill="none"></polyline>
<polyline points="2163.93,1209.25,5908.12,1082.54" stroke="rgb(0,12,255)" stroke-width="2" fill="none"></polyline>
<polyline points="2979.93,1209.44,5589.8,1585.84" stroke="rgb(131,255,0)" stroke-width="2" fill="none"></polyline>
<polyline points="2105.03,1219.98,6224.66,1790.52" stroke="rgb(0,191,255)" stroke-width="2" fill="none"></polyline>
<polyline points="2263.59,1242.06,5990.69,1578.67" stroke="rgb(212,0,255)" stroke-width="2" fill="none"></polyline>
<polyline points="2039.39,1259.47,6597.2,1256.51" stroke="rgb(255,0,59)" stroke-width="2" fill="none"></polyline>
<polyline points="2195.82,1262.7,5921.52,1800.12" stroke="rgb(208,255,0)" stroke-width="2" fill="none"></polyline>
<polyline points="2964.89,1284.5,6205.49,1353.99" stroke="rgb(165,0,255)" stroke-width="2" fill="none"></polyline>
<polyline points="2284.1,1298.47,6130.84,1291" stroke="rgb(89,0,255)" stroke-width="2" fill="none"></polyline>
<polyline points="2370.13,1300.57,6115.97,1515.8" stroke="rgb(203,255,0)" stroke-width="2" fill="none"></polyline>
<polyline points="2991.39,1306.37,5919.39,1072.96" stroke="rgb(0,17,255)" stroke-width="2" fill="none"></polyline>
<polyline points="1279.98,1308.08,6576.21,1746.02" stroke="rgb(12,255,0)" stroke-width="2" fill="none"></polyline>
<polyline points="2289.14,1310.91,6532.79,2110.26" stroke="rgb(255,119,0)" stroke-width="2" fill="none"></polyline>
<polyline points="2125.49,1314.31,6172.54,1038.4" stroke="rgb(255,0,221)" stroke-width="2" fill="none"></polyline>
<polyline points="2291.66,1317.73,6538.91,2107.56" stroke="rgb(250,0,255)" stroke-width="2" fill="none"></polyline>
<polyline points="2219.87,1320.57,6091.73,1023.07" stroke="rgb(0,85,255)" stroke-width="2" fill="none"></polyline>
<polyline points="2209.84,1323.28,6059.21,1174.84" stroke="rgb(255,4,0)" stroke-width="2" fill="none"></polyline>
<polyline points="2117.39,1328.3,6164.49,1042.23" stroke="rgb(255,0,131)" stroke-width="2" fill="none"></polyline>
<polyline points="2305.87,1333.14,5973.78,1637.26" stroke="rgb(255,102,0)" stroke-width="2" fill="none"></polyline>
<polyline points="1384,1337.58,6159.25,1131.46" stroke="rgb(76,255,0)" stroke-width="2" fill="none"></polyline>
<polyline points="2157.58,1354.83,6231.98,1166.98" stroke="rgb(33,255,0)" stroke-width="2" fill="none"></polyline>
<polyline points="2985.76,1355.83,6648.27,1672.72" stroke="rgb(208,255,0)" stroke-width="2" fill="none"></polyline>
<polyline points="2243.7,1355.88,6095.21,1049.59" stroke="rgb(0,255,131)" stroke-width="2" fill="none"></polyline>
<polyline points="2188.98,1360.61,6258.25,1038.44" stroke="rgb(186,0,255)" stroke-width="2" fill="none"></polyline>
<polyline points="2222.19,1371.47,6172.19,1137.44" stroke="rgb(255,80,0)" stroke-width="2" fill="none"></polyline>
<polyline points="2402.01,1373.5,6217.11,1837.05" stroke="rgb(255,0,55)" stroke-width="2" fill="none"></polyline>
<polyline points="2126.03,1381.97,6726.97,1618.15" stroke="rgb(0,21,255)" stroke-width="2" fill="none"></polyline>
<polyline points="3040.28,1382.35,6607.18,1447.76" stroke="rgb(0,135,255)" stroke-width="2" fill="none"></polyline>
<polyline points="2162.12,1386.15,6166.48,1345.56" stroke="rgb(76,0,255)" stroke-width="2" fill="none"></polyline>
<polyline points="2141.01,1403.33,6151.17,1347.02" stroke="rgb(255,0,148)" stroke-width="2" fill="none"></polyline>
<polyline points="2159.24,1411.39,6156.31,1354.6" stroke="rgb(242,255,0)" stroke-width="2" fill="none"></polyline>
<polyline points="2133.81,1426.95,6269.51,2081.19" stroke="rgb(0,255,89)" stroke-width="2" fill="none"></polyline>
<polyline points="2217.21,1438.95,6451.89,1877.25" stroke="rgb(0,157,255)" stroke-width="2" fill="none"></polyline>
<polyline points="1687.12,1440.75,5454.33,1675.87" stroke="rgb(255,106,0)" stroke-width="2" fill="none"></polyline>
<polyline points="2533.65,1479.14,6138.98,1219.38" stroke="rgb(255,0,97)" stroke-width="2" fill="none"></polyline>
<polyline points="2273.25,1483.91,6588.68,1918" stroke="rgb(255,21,0)" stroke-width="2" fill="none"></polyline>
<polyline points="1732.44,1511.19,6096.09,1619.62" stroke="rgb(12,0,255)" stroke-width="2" fill="none"></polyline>
<polyline points="2138.7,1643.73,5097.73,2264.84" stroke="rgb(255,204,0)" stroke-width="2" fill="none"></polyline>
<polyline points="2220.99,1672.95,5350.9,1831.19" stroke="rgb(186,0,255)" stroke-width="2" fill="none"></polyline>
<polyline points="2135.34,1759.22,6597.03,1428.84" stroke="rgb(255,68,0)" stroke-width="2" fill="none"></polyline>
<polyline points="1638.77,1827.42,5463.45,1594" stroke="rgb(255,0,33)" stroke-width="2" fill="none"></polyline>
<polyline points="1348.85,1832.26,6668.34,1886.64" stroke="rgb(0,255,174)" stroke-width="2" fill="none"></polyline>
<polyline points="1451.27,1838.68,5406.31,1699.07" stroke="rgb(0,255,59)" stroke-width="2" fill="none"></polyline>
<polyline points="1324.57,1934.12,6336.1,2159.69" stroke="rgb(255,89,0)" stroke-width="2" fill="none"></polyline>
<polyline points="2208.26,1939.33,6761.81,1503.17" stroke="rgb(255,0,80)" stroke-width="2" fill="none"></polyline>
<polyline points="2108.64,1969.2,5761.39,1862.44" stroke="rgb(199,255,0)" stroke-width="2" fill="none"></polyline>
<polyline points="1731.98,1991.04,6554.14,1892.3" stroke="rgb(29,255,0)" stroke-width="2" fill="none"></polyline>
<polyline points="1692.49,2046.22,5685.95,2152.74" stroke="rgb(0,106,255)" stroke-width="2" fill="none"></polyline>
<polyline points="1477.89,2056.98,5514.66,883.426" stroke="rgb(144,0,255)" stroke-width="2" fill="none"></polyline>
<polyline points="2285.21,2074.76,5662.93,2084.02" stroke="rgb(255,38,0)" stroke-width="2" fill="none"></polyline>
<polyline points="2033.32,2111.73,6692.76,1674.23" stroke="rgb(255,0,182)" stroke-width="2" fill="none"></polyline>
<polyline points="2680.92,2131.16,5165.06,2172.42" stroke="rgb(255,110,0)" stroke-width="2" fill="none"></polyline>
<polyline points="2328.02,2145.97,6330.4,1750.23" stroke="rgb(169,255,0)" stroke-width="2" fill="none"></polyline>
<polyline points="2725.19,2159.19,6760.94,1692.16" stroke="rgb(255,0,80)" stroke-width="2" fill="none"></polyline>
<polyline points="2333.05,2169.3,6325.69,1769.07" stroke="rgb(0,246,255)" stroke-width="2" fill="none"></polyline>
<polyline points="2475.62,2180.18,5621.73,1603.81" stroke="rgb(89,255,0)" stroke-width="2" fill="none"></polyline>
<polyline points="2380.14,2192.21,6058.01,1969.49" stroke="rgb(0,169,255)" stroke-width="2" fill="none"></polyline>
<polyline points="2363.36,2195.26,5813.47,1437.23" stroke="rgb(255,246,0)" stroke-width="2" fill="none"></polyline>
<polyline points="2411.61,2216.1,6128.38,1675.89" stroke="rgb(0,255,250)" stroke-width="2" fill="none"></polyline>
<polyline points="2419.44,2222.04,6270.35,1042.48" stroke="rgb(255,0,127)" stroke-width="2" fill="none"></polyline>
<polyline points="2404.39,2234.79,5864.12,1673.16" stroke="rgb(255,97,0)" stroke-width="2" fill="none"></polyline>
<polyline points="2122.37,2266.79,6581.9,1951.19" stroke="rgb(21,255,0)" stroke-width="2" fill="none"></polyline>
<polyline points="1510.9,2273.58,5336.41,2148.96" stroke="rgb(33,255,0)" stroke-width="2" fill="none"></polyline>
<polyline points="1979.64,2295.13,6127.76,1272.37" stroke="rgb(93,255,0)" stroke-width="2" fill="none"></polyline>
<polyline points="2114.61,2342.26,6194.79,1265.7" stroke="rgb(255,51,0)" stroke-width="2" fill="none"></polyline>
<polyline points="2107.74,2372.04,6608.95,1576.16" stroke="rgb(131,255,0)" stroke-width="2" fill="none"></polyline>
<polyline points="2338.95,2428.39,5783.45,1416.99" stroke="rgb(72,255,0)" stroke-width="2" fill="none"></polyline>
<polyline points="2116.2,2443.39,6740.27,1309.05" stroke="rgb(63,0,255)" stroke-width="2" fill="none"></polyline>
<polyline points="2143.2,2459.04,5552.51,1654.35" stroke="rgb(0,255,72)" stroke-width="2" fill="none"></polyline>
<polyline points="1019.65,2478.8,5634.53,1928.08" stroke="rgb(255,119,0)" stroke-width="2" fill="none"></polyline>
<polyline points="1910.02,2504.33,5242.7,2233.74" stroke="rgb(135,0,255)" stroke-width="2" fill="none"></polyline>
<polyline points="1017.55,2540.85,5247.44,1935.95" stroke="rgb(255,4,0)" stroke-width="2" fill="none"></polyline>
<polyline points="1914.12,2609.64,6272.11,1057.6" stroke="rgb(250,255,0)" stroke-width="2" fill="none"></polyline>
<polyline points="1920.59,2668.48,6131.7,1378.27" stroke="rgb(255,195,0)" stroke-width="2" fill="none"></polyline>
<polyline points="940.504,2698.85,6416.74,2066.87" stroke="rgb(255,93,0)" stroke-width="2" fill="none"></polyline>
<polyline points="1250.79,2758.27,5466.21,2116.19" stroke="rgb(144,0,255)" stroke-width="2" fill="none"></polyline>
<polyline points="1509,2807.86,6604.11,2004.12" stroke="rgb(255,0,38)" stroke-width="2" fill="none"></polyline>
<polyline points="1554.72,2813.11,5991.58,1036.48" stroke="rgb(255,34,0)" stroke-width="2" fill="none"></polyline>
<polyline points="1485.26,2824.98,5642.05,2073.96" stroke="rgb(0,255,38)" stroke-width="2" fill="none"></polyline>
<polyline points="1613.6,2848.92,5852.47,1024.12" stroke="rgb(106,0,255)" stroke-width="2" fill="none"></polyline>
<circle cx="2379" cy="750.093" r="4" stroke="rgb(174,255,0)" stroke-width="2" fill="none"></circle>
<circle cx="5867.01" cy="1961.08" r="4" stroke="rgb(174,255,0)" stroke-width="2" fill="none"></circle>
<circle cx="1176.28" cy="763.757" r="4" stroke="rgb(0,114,255)" stroke-width="2" fill="none"></circle>
<circle cx="6609.45" cy="2009.71" r="4" stroke="rgb(0,114,255)" stroke-width="2" fill="none"></circle>
<circle cx="1628.64" cy="773.581" r="4" stroke="rgb(106,0,255)" stroke-width="2" fill="none"></circle>
<circle cx="6968.49" cy="1404.03" r="4" stroke="rgb(106,0,255)" stroke-width="2" fill="none"></circle>
<circle cx="1581.01" cy="828.968" r="4" stroke="rgb(0,255,131)" stroke-width="2" fill="none"></circle>
<circle cx="6179.84" cy="1825.62" r="4" stroke="rgb(0,255,131)" stroke-width="2" fill="none"></circle>
<circle cx="2433.76" cy="852.216" r="4" stroke="rgb(255,216,0)" stroke-width="2" fill="none"></circle>
<circle cx="5780.45" cy="1446.38" r="4" stroke="rgb(255,216,0)" stroke-width="2" fill="none"></circle>
<circle cx="1904.92" cy="880.792" r="4" stroke="rgb(233,255,0)" stroke-width="2" fill="none"></circle>
<circle cx="5434.94" cy="1846.72" r="4" stroke="rgb(233,255,0)" stroke-width="2" fill="none"></circle>
<circle cx="2450.63" cy="890.993" r="4" stroke="rgb(255,72,0)" stroke-width="2" fill="none"></circle>
<circle cx="6447.23" cy="1439.2" r="4" stroke="rgb(255,72,0)" stroke-width="2" fill="none"></circle>
<circle cx="2339.02" cy="892.946" r="4" stroke="rgb(0,255,25)" stroke-width="2" fill="none"></circle>
<circle cx="5872.1" cy="1959.01" r="4" stroke="rgb(0,255,25)" stroke-width="2" fill="none"></circle>
<circle cx="1946.52" cy="899.813" r="4" stroke="rgb(255,0,140)" stroke-width="2" fill="none"></circle>
<circle cx="6142.18" cy="1627.41" r="4" stroke="rgb(255,0,140)" stroke-width="2" fill="none"></circle>
<circle cx="1955.76" cy="901.634" r="4" stroke="rgb(212,255,0)" stroke-width="2" fill="none"></circle>
<circle cx="6090.02" cy="1447.97" r="4" stroke="rgb(212,255,0)" stroke-width="2" fill="none"></circle>
<circle cx="1919.1" cy="903.523" r="4" stroke="rgb(0,127,255)" stroke-width="2" fill="none"></circle>
<circle cx="6298.01" cy="2007.27" r="4" stroke="rgb(0,127,255)" stroke-width="2" fill="none"></circle>
<circle cx="2140.06" cy="927.108" r="4" stroke="rgb(21,255,0)" stroke-width="2" fill="none"></circle>
<circle cx="5485.18" cy="1720.34" r="4" stroke="rgb(21,255,0)" stroke-width="2" fill="none"></circle>
<circle cx="2005.97" cy="943.161" r="4" stroke="rgb(255,0,148)" stroke-width="2" fill="none"></circle>
<circle cx="6460.34" cy="1750.31" r="4" stroke="rgb(255,0,148)" stroke-width="2" fill="none"></circle>
<circle cx="2162.9" cy="943.944" r="4" stroke="rgb(51,255,0)" stroke-width="2" fill="none"></circle>
<circle cx="5464.44" cy="1729.49" r="4" stroke="rgb(51,255,0)" stroke-width="2" fill="none"></circle>
<circle cx="1013.14" cy="946.226" r="4" stroke="rgb(46,255,0)" stroke-width="2" fill="none"></circle>
<circle cx="5592.86" cy="2244.88" r="4" stroke="rgb(46,255,0)" stroke-width="2" fill="none"></circle>
<circle cx="2772.55" cy="946.75" r="4" stroke="rgb(0,135,255)" stroke-width="2" fill="none"></circle>
<circle cx="6606.2" cy="1796.62" r="4" stroke="rgb(0,135,255)" stroke-width="2" fill="none"></circle>
<circle cx="2688.53" cy="951.305" r="4" stroke="rgb(89,255,0)" stroke-width="2" fill="none"></circle>
<circle cx="6045.99" cy="2000.94" r="4" stroke="rgb(89,255,0)" stroke-width="2" fill="none"></circle>
<circle cx="2025.8" cy="954.302" r="4" stroke="rgb(255,204,0)" stroke-width="2" fill="none"></circle>
<circle cx="6084.09" cy="1450.89" r="4" stroke="rgb(255,204,0)" stroke-width="2" fill="none"></circle>
<circle cx="2526.83" cy="957.88" r="4" stroke="rgb(4,0,255)" stroke-width="2" fill="none"></circle>
<circle cx="5690.76" cy="1876.86" r="4" stroke="rgb(4,0,255)" stroke-width="2" fill="none"></circle>
<circle cx="2608.11" cy="958.997" r="4" stroke="rgb(12,0,255)" stroke-width="2" fill="none"></circle>
<circle cx="6402.01" cy="1380.6" r="4" stroke="rgb(12,0,255)" stroke-width="2" fill="none"></circle>
<circle cx="1999.93" cy="960.007" r="4" stroke="rgb(187,255,0)" stroke-width="2" fill="none"></circle>
<circle cx="6464.3" cy="1754.61" r="4" stroke="rgb(187,255,0)" stroke-width="2" fill="none"></circle>
<circle cx="2038.34" cy="962.565" r="4" stroke="rgb(255,123,0)" stroke-width="2" fill="none"></circle>
<circle cx="5907.83" cy="1672.21" r="4" stroke="rgb(255,123,0)" stroke-width="2" fill="none"></circle>
<circle cx="2562.59" cy="963.073" r="4" stroke="rgb(255,123,0)" stroke-width="2" fill="none"></circle>
<circle cx="6045.26" cy="1310.56" r="4" stroke="rgb(255,123,0)" stroke-width="2" fill="none"></circle>
<circle cx="2571.12" cy="963.533" r="4" stroke="rgb(0,255,110)" stroke-width="2" fill="none"></circle>
<circle cx="6181.16" cy="1223.41" r="4" stroke="rgb(0,255,110)" stroke-width="2" fill="none"></circle>
<circle cx="2544.21" cy="965.774" r="4" stroke="rgb(255,144,0)" stroke-width="2" fill="none"></circle>
<circle cx="6154.88" cy="1022.59" r="4" stroke="rgb(255,144,0)" stroke-width="2" fill="none"></circle>
<circle cx="2575.48" cy="973.21" r="4" stroke="rgb(29,255,0)" stroke-width="2" fill="none"></circle>
<circle cx="6341.61" cy="1533.22" r="4" stroke="rgb(29,255,0)" stroke-width="2" fill="none"></circle>
<circle cx="1755.98" cy="976.749" r="4" stroke="rgb(0,153,255)" stroke-width="2" fill="none"></circle>
<circle cx="5602.21" cy="1194.41" r="4" stroke="rgb(0,153,255)" stroke-width="2" fill="none"></circle>
<circle cx="2708.15" cy="977.006" r="4" stroke="rgb(255,46,0)" stroke-width="2" fill="none"></circle>
<circle cx="5724.05" cy="1507.98" r="4" stroke="rgb(255,46,0)" stroke-width="2" fill="none"></circle>
<circle cx="2619.3" cy="981.723" r="4" stroke="rgb(0,255,144)" stroke-width="2" fill="none"></circle>
<circle cx="6707.75" cy="1727.82" r="4" stroke="rgb(0,255,144)" stroke-width="2" fill="none"></circle>
<circle cx="2820.51" cy="983.236" r="4" stroke="rgb(89,255,0)" stroke-width="2" fill="none"></circle>
<circle cx="6313.1" cy="1979.96" r="4" stroke="rgb(89,255,0)" stroke-width="2" fill="none"></circle>
<circle cx="2022.83" cy="985.634" r="4" stroke="rgb(148,0,255)" stroke-width="2" fill="none"></circle>
<circle cx="5727.94" cy="1933.55" r="4" stroke="rgb(148,0,255)" stroke-width="2" fill="none"></circle>
<circle cx="2152.64" cy="990.753" r="4" stroke="rgb(0,25,255)" stroke-width="2" fill="none"></circle>
<circle cx="5823.75" cy="1308.45" r="4" stroke="rgb(0,25,255)" stroke-width="2" fill="none"></circle>
<circle cx="2651.23" cy="992.421" r="4" stroke="rgb(255,0,204)" stroke-width="2" fill="none"></circle>
<circle cx="6611.83" cy="1734.1" r="4" stroke="rgb(255,0,204)" stroke-width="2" fill="none"></circle>
<circle cx="2105.89" cy="1015.43" r="4" stroke="rgb(255,221,0)" stroke-width="2" fill="none"></circle>
<circle cx="5823.99" cy="1558.37" r="4" stroke="rgb(255,221,0)" stroke-width="2" fill="none"></circle>
<circle cx="1932.37" cy="1029.58" r="4" stroke="rgb(255,106,0)" stroke-width="2" fill="none"></circle>
<circle cx="6561.06" cy="1809.21" r="4" stroke="rgb(255,106,0)" stroke-width="2" fill="none"></circle>
<circle cx="2908.06" cy="1031.23" r="4" stroke="rgb(0,21,255)" stroke-width="2" fill="none"></circle>
<circle cx="6039" cy="1984.9" r="4" stroke="rgb(0,21,255)" stroke-width="2" fill="none"></circle>
<circle cx="2184.42" cy="1058.84" r="4" stroke="rgb(12,255,0)" stroke-width="2" fill="none"></circle>
<circle cx="6136.14" cy="1251.77" r="4" stroke="rgb(12,255,0)" stroke-width="2" fill="none"></circle>
<circle cx="2171.3" cy="1070" r="4" stroke="rgb(144,0,255)" stroke-width="2" fill="none"></circle>
<circle cx="6554.37" cy="2080.1" r="4" stroke="rgb(144,0,255)" stroke-width="2" fill="none"></circle>
<circle cx="2030.87" cy="1079.97" r="4" stroke="rgb(255,4,0)" stroke-width="2" fill="none"></circle>
<circle cx="6489.65" cy="1600.59" r="4" stroke="rgb(255,4,0)" stroke-width="2" fill="none"></circle>
<circle cx="2120.54" cy="1082.25" r="4" stroke="rgb(255,0,182)" stroke-width="2" fill="none"></circle>
<circle cx="6192.66" cy="1157.47" r="4" stroke="rgb(255,0,182)" stroke-width="2" fill="none"></circle>
<circle cx="2932.52" cy="1089.19" r="4" stroke="rgb(255,0,68)" stroke-width="2" fill="none"></circle>
<circle cx="5254.8" cy="2157.54" r="4" stroke="rgb(255,0,68)" stroke-width="2" fill="none"></circle>
<circle cx="2183.82" cy="1106.97" r="4" stroke="rgb(153,255,0)" stroke-width="2" fill="none"></circle>
<circle cx="6136.14" cy="1251.77" r="4" stroke="rgb(153,255,0)" stroke-width="2" fill="none"></circle>
<circle cx="1986.95" cy="1110.38" r="4" stroke="rgb(203,255,0)" stroke-width="2" fill="none"></circle>
<circle cx="5498.78" cy="981.077" r="4" stroke="rgb(203,255,0)" stroke-width="2" fill="none"></circle>
<circle cx="2063.26" cy="1122.46" r="4" stroke="rgb(0,250,255)" stroke-width="2" fill="none"></circle>
<circle cx="6203.01" cy="1148.25" r="4" stroke="rgb(0,250,255)" stroke-width="2" fill="none"></circle>
<circle cx="2055.15" cy="1148.52" r="4" stroke="rgb(0,203,255)" stroke-width="2" fill="none"></circle>
<circle cx="6168.12" cy="1185.92" r="4" stroke="rgb(0,203,255)" stroke-width="2" fill="none"></circle>
<circle cx="2807.07" cy="1154.14" r="4" stroke="rgb(0,250,255)" stroke-width="2" fill="none"></circle>
<circle cx="5540.96" cy="2198.19" r="4" stroke="rgb(0,250,255)" stroke-width="2" fill="none"></circle>
<circle cx="2220.04" cy="1154.91" r="4" stroke="rgb(255,127,0)" stroke-width="2" fill="none"></circle>
<circle cx="6505.81" cy="1508.39" r="4" stroke="rgb(255,127,0)" stroke-width="2" fill="none"></circle>
<circle cx="2110.17" cy="1156.41" r="4" stroke="rgb(216,0,255)" stroke-width="2" fill="none"></circle>
<circle cx="6408.24" cy="1612.85" r="4" stroke="rgb(216,0,255)" stroke-width="2" fill="none"></circle>
<circle cx="2088.83" cy="1156.94" r="4" stroke="rgb(80,255,0)" stroke-width="2" fill="none"></circle>
<circle cx="6092.14" cy="1502.06" r="4" stroke="rgb(80,255,0)" stroke-width="2" fill="none"></circle>
<circle cx="2223.43" cy="1160.5" r="4" stroke="rgb(131,0,255)" stroke-width="2" fill="none"></circle>
<circle cx="6752.25" cy="1650.56" r="4" stroke="rgb(131,0,255)" stroke-width="2" fill="none"></circle>
<circle cx="2136" cy="1161.3" r="4" stroke="rgb(255,199,0)" stroke-width="2" fill="none"></circle>
<circle cx="6172.35" cy="1136.33" r="4" stroke="rgb(255,199,0)" stroke-width="2" fill="none"></circle>
<circle cx="2233.97" cy="1163.73" r="4" stroke="rgb(0,255,242)" stroke-width="2" fill="none"></circle>
<circle cx="6589.58" cy="1225.43" r="4" stroke="rgb(0,255,242)" stroke-width="2" fill="none"></circle>
<circle cx="2900.67" cy="1164.81" r="4" stroke="rgb(0,255,220)" stroke-width="2" fill="none"></circle>
<circle cx="6413.04" cy="1463.6" r="4" stroke="rgb(0,255,220)" stroke-width="2" fill="none"></circle>
<circle cx="2137.58" cy="1166.06" r="4" stroke="rgb(187,255,0)" stroke-width="2" fill="none"></circle>
<circle cx="6068.5" cy="1058.02" r="4" stroke="rgb(187,255,0)" stroke-width="2" fill="none"></circle>
<circle cx="2143.87" cy="1171.94" r="4" stroke="rgb(0,191,255)" stroke-width="2" fill="none"></circle>
<circle cx="5966.09" cy="1605.6" r="4" stroke="rgb(0,191,255)" stroke-width="2" fill="none"></circle>
<circle cx="2875.7" cy="1175.77" r="4" stroke="rgb(174,255,0)" stroke-width="2" fill="none"></circle>
<circle cx="5843.62" cy="1239.88" r="4" stroke="rgb(174,255,0)" stroke-width="2" fill="none"></circle>
<circle cx="2243.92" cy="1178.68" r="4" stroke="rgb(0,216,255)" stroke-width="2" fill="none"></circle>
<circle cx="6246.64" cy="1183.3" r="4" stroke="rgb(0,216,255)" stroke-width="2" fill="none"></circle>
<circle cx="2250.72" cy="1190.57" r="4" stroke="rgb(255,165,0)" stroke-width="2" fill="none"></circle>
<circle cx="6199.57" cy="1384.67" r="4" stroke="rgb(255,165,0)" stroke-width="2" fill="none"></circle>
<circle cx="2078.9" cy="1193.24" r="4" stroke="rgb(127,255,0)" stroke-width="2" fill="none"></circle>
<circle cx="5696.64" cy="1967.44" r="4" stroke="rgb(127,255,0)" stroke-width="2" fill="none"></circle>
<circle cx="2172" cy="1197.13" r="4" stroke="rgb(0,106,255)" stroke-width="2" fill="none"></circle>
<circle cx="6065.17" cy="988.25" r="4" stroke="rgb(0,106,255)" stroke-width="2" fill="none"></circle>
<circle cx="2260.97" cy="1206.58" r="4" stroke="rgb(255,46,0)" stroke-width="2" fill="none"></circle>
<circle cx="6105.55" cy="1616.06" r="4" stroke="rgb(255,46,0)" stroke-width="2" fill="none"></circle>
<circle cx="2163.93" cy="1209.25" r="4" stroke="rgb(0,12,255)" stroke-width="2" fill="none"></circle>
<circle cx="5908.12" cy="1082.54" r="4" stroke="rgb(0,12,255)" stroke-width="2" fill="none"></circle>
<circle cx="2979.93" cy="1209.44" r="4" stroke="rgb(131,255,0)" stroke-width="2" fill="none"></circle>
<circle cx="5589.8" cy="1585.84" r="4" stroke="rgb(131,255,0)" stroke-width="2" fill="none"></circle>
<circle cx="2105.03" cy="1219.98" r="4" stroke="rgb(0,191,255)" stroke-width="2" fill="none"></circle>
<circle cx="6224.66" cy="1790.52" r="4" stroke="rgb(0,191,255)" stroke-width="2" fill="none"></circle>
<circle cx="2263.59" cy="1242.06" r="4" stroke="rgb(212,0,255)" stroke-width="2" fill="none"></circle>
<circle cx="5990.69" cy="1578.67" r="4" stroke="rgb(212,0,255)" stroke-width="2" fill="none"></circle>
<circle cx="2039.39" cy="1259.47" r="4" stroke="rgb(255,0,59)" stroke-width="2" fill="none"></circle>
<circle cx="6597.2" cy="1256.51" r="4" stroke="rgb(255,0,59)" stroke-width="2" fill="none"></circle>
<circle cx="2195.82" cy="1262.7" r="4" stroke="rgb(208,255,0)" stroke-width="2" fill="none"></circle>
<circle cx="5921.52" cy="1800.12" r="4" stroke="rgb(208,255,0)" stroke-width="2" fill="none"></circle>
<circle cx="2964.89" cy="1284.5" r="4" stroke="rgb(165,0,255)" stroke-width="2" fill="none"></circle>
<circle cx="6205.49" cy="1353.99" r="4" stroke="rgb(165,0,255)" stroke-width="2" fill="none"></circle>
<circle cx="2284.1" cy="1298.47" r="4" stroke="rgb(89,0,255)" stroke-width="2" fill="none"></circle>
<circle cx="6130.84" cy="1291" r="4" stroke="rgb(89,0,255)" stroke-width="2" fill="none"></circle>
<circle cx="2370.13" cy="1300.57" r="4" stroke="rgb(203,255,0)" stroke-width="2" fill="none"></circle>
<circle cx="6115.97" cy="1515.8" r="4" stroke="rgb(203,255,0)" stroke-width="2" fill="none"></circle>
<circle cx="2991.39" cy="1306.37" r="4" stroke="rgb(0,17,255)" stroke-width="2" fill="none"></circle>
<circle cx="5919.39" cy="1072.96" r="4" stroke="rgb(0,17,255)" stroke-width="2" fill="none"></circle>
<circle cx="1279.98" cy="1308.08" r="4" stroke="rgb(12,255,0)" stroke-width="2" fill="none"></circle>
<circle cx="6576.21" cy="1746.02" r="4" stroke="rgb(12,255,0)" stroke-width="2" fill="none"></circle>
<circle cx="2289.14" cy="1310.91" r="4" stroke="rgb(255,119,0)" stroke-width="2" fill="none"></circle>
<circle cx="6532.79" cy="2110.26" r="4" stroke="rgb(255,119,0)" stroke-width="2" fill="none"></circle>
<circle cx="2125.49" cy="1314.31" r="4" stroke="rgb(255,0,221)" stroke-width="2" fill="none"></circle>
<circle cx="6172.54" cy="1038.4" r="4" stroke="rgb(255,0,221)" stroke-width="2" fill="none"></circle>
<circle cx="2291.66" cy="1317.73" r="4" stroke="rgb(250,0,255)" stroke-width="2" fill="none"></circle>
<circle cx="6538.91" cy="2107.56" r="4" stroke="rgb(250,0,255)" stroke-width="2" fill="none"></circle>
<circle cx="2219.87" cy="1320.57" r="4" stroke="rgb(0,85,255)" stroke-width="2" fill="none"></circle>
<circle cx="6091.73" cy="1023.07" r="4" stroke="rgb(0,85,255)" stroke-width="2" fill="none"></circle>
<circle cx="2209.84" cy="1323.28" r="4" stroke="rgb(255,4,0)" stroke-width="2" fill="none"></circle>
<circle cx="6059.21" cy="1174.84" r="4" stroke="rgb(255,4,0)" stroke-width="2" fill="none"></circle>
<circle cx="2117.39" cy="1328.3" r="4" stroke="rgb(255,0,131)" stroke-width="2" fill="none"></circle>
<circle cx="6164.49" cy="1042.23" r="4" stroke="rgb(255,0,131)" stroke-width="2" fill="none"></circle>
<circle cx="2305.87" cy="1333.14" r="4" stroke="rgb(255,102,0)" stroke-width="2" fill="none"></circle>
<circle cx="5973.78" cy="1637.26" r="4" stroke="rgb(255,102,0)" stroke-width="2" fill="none"></circle>
<circle cx="1384" cy="1337.58" r="4" stroke="rgb(76,255,0)" stroke-width="2" fill="none"></circle>
<circle cx="6159.25" cy="1131.46" r="4" stroke="rgb(76,255,0)" stroke-width="2" fill="none"></circle>
<circle cx="2157.58" cy="1354.83" r="4" stroke="rgb(33,255,0)" stroke-width="2" fill="none"></circle>
<circle cx="6231.98" cy="1166.98" r="4" stroke="rgb(33,255,0)" stroke-width="2" fill="none"></circle>
<circle cx="2985.76" cy="1355.83" r="4" stroke="rgb(208,255,0)" stroke-width="2" fill="none"></circle>
<circle cx="6648.27" cy="1672.72" r="4" stroke="rgb(208,255,0)" stroke-width="2" fill="none"></circle>
<circle cx="2243.7" cy="1355.88" r="4" stroke="rgb(0,255,131)" stroke-width="2" fill="none"></circle>
<circle cx="6095.21" cy="1049.59" r="4" stroke="rgb(0,255,131)" stroke-width="2" fill="none"></circle>
<circle cx="2188.98" cy="1360.61" r="4" stroke="rgb(186,0,255)" stroke-width="2" fill="none"></circle>
<circle cx="6258.25" cy="1038.44" r="4" stroke="rgb(186,0,255)" stroke-width="2" fill="none"></circle>
<circle cx="2222.19" cy="1371.47" r="4" stroke="rgb(255,80,0)" stroke-width="2" fill="none"></circle>
<circle cx="6172.19" cy="1137.44" r="4" stroke="rgb(255,80,0)" stroke-width="2" fill="none"></circle>
<circle cx="2402.01" cy="1373.5" r="4" stroke="rgb(255,0,55)" stroke-width="2" fill="none"></circle>
<circle cx="6217.11" cy="1837.05" r="4" stroke="rgb(255,0,55)" stroke-width="2" fill="none"></circle>
<circle cx="2126.03" cy="1381.97" r="4" stroke="rgb(0,21,255)" stroke-width="2" fill="none"></circle>
<circle cx="6726.97" cy="1618.15" r="4" stroke="rgb(0,21,255)" stroke-width="2" fill="none"></circle>
<circle cx="3040.28" cy="1382.35" r="4" stroke="rgb(0,135,255)" stroke-width="2" fill="none"></circle>
<circle cx="6607.18" cy="1447.76" r="4" stroke="rgb(0,135,255)" stroke-width="2" fill="none"></circle>
<circle cx="2162.12" cy="1386.15" r="4" stroke="rgb(76,0,255)" stroke-width="2" fill="none"></circle>
<circle cx="6166.48" cy="1345.56" r="4" stroke="rgb(76,0,255)" stroke-width="2" fill="none"></circle>
<circle cx="2141.01" cy="1403.33" r="4" stroke="rgb(255,0,148)" stroke-width="2" fill="none"></circle>
<circle cx="6151.17" cy="1347.02" r="4" stroke="rgb(255,0,148)" stroke-width="2" fill="none"></circle>
<circle cx="2159.24" cy="1411.39" r="4" stroke="rgb(242,255,0)" stroke-width="2" fill="none"></circle>
<circle cx="6156.31" cy="1354.6" r="4" stroke="rgb(242,255,0)" stroke-width="2" fill="none"></circle>
<circle cx="2133.81" cy="1426.95" r="4" stroke="rgb(0,255,89)" stroke-width="2" fill="none"></circle>
<circle cx="6269.51" cy="2081.19" r="4" stroke="rgb(0,255,89)" stroke-width="2" fill="none"></circle>
<circle cx="2217.21" cy="1438.95" r="4" stroke="rgb(0,157,255)" stroke-width="2" fill="none"></circle>
<circle cx="6451.89" cy="1877.25" r="4" stroke="rgb(0,157,255)" stroke-width="2" fill="none"></circle>
<circle cx="1687.12" cy="1440.75" r="4" stroke="rgb(255,106,0)" stroke-width="2" fill="none"></circle>
<circle cx="5454.33" cy="1675.87" r="4" stroke="rgb(255,106,0)" stroke-width="2" fill="none"></circle>
<circle cx="2533.65" cy="1479.14" r="4" stroke="rgb(255,0,97)" stroke-width="2" fill="none"></circle>
<circle cx="6138.98" cy="1219.38" r="4" stroke="rgb(255,0,97)" stroke-width="2" fill="none"></circle>
<circle cx="2273.25" cy="1483.91" r="4" stroke="rgb(255,21,0)" stroke-width="2" fill="none"></circle>
<circle cx="6588.68" cy="1918" r="4" stroke="rgb(255,21,0)" stroke-width="2" fill="none"></circle>
<circle cx="1732.44" cy="1511.19" r="4" stroke="rgb(12,0,255)" stroke-width="2" fill="none"></circle>
<circle cx="6096.09" cy="1619.62" r="4" stroke="rgb(12,0,255)" stroke-width="2" fill="none"></circle>
<circle cx="2138.7" cy="1643.73" r="4" stroke="rgb(255,204,0)" stroke-width="2" fill="none"></circle>
<circle cx="5097.73" cy="2264.84" r="4" stroke="rgb(255,204,0)" stroke-width="2" fill="none"></circle>
<circle cx="2220.99" cy="1672.95" r="4" stroke="rgb(186,0,255)" stroke-width="2" fill="none"></circle>
<circle cx="5350.9" cy="1831.19" r="4" stroke="rgb(186,0,255)" stroke-width="2" fill="none"></circle>
<circle cx="2135.34" cy="1759.22" r="4" stroke="rgb(255,68,0)" stroke-width="2" fill="none"></circle>
<circle cx="6597.03" cy="1428.84" r="4" stroke="rgb(255,68,0)" stroke-width="2" fill="none"></circle>
<circle cx="1638.77" cy="1827.42" r="4" stroke="rgb(255,0,33)" stroke-width="2" fill="none"></circle>
<circle cx="5463.45" cy="1594" r="4" stroke="rgb(255,0,33)" stroke-width="2" fill="none"></circle>
<circle cx="1348.85" cy="1832.26" r="4" stroke="rgb(0,255,174)" stroke-width="2" fill="none"></circle>
<circle cx="6668.34" cy="1886.64" r="4" stroke="rgb(0,255,174)" stroke-width="2" fill="none"></circle>
<circle cx="1451.27" cy="1838.68" r="4" stroke="rgb(0,255,59)" stroke-width="2" fill="none"></circle>
<circle cx="5406.31" cy="1699.07" r="4" stroke="rgb(0,255,59)" stroke-width="2" fill="none"></circle>
<circle cx="1324.57" cy="1934.12" r="4" stroke="rgb(255,89,0)" stroke-width="2" fill="none"></circle>
<circle cx="6336.1" cy="2159.69" r="4" stroke="rgb(255,89,0)" stroke-width="2" fill="none"></circle>
<circle cx="2208.26" cy="1939.33" r="4" stroke="rgb(255,0,80)" stroke-width="2" fill="none"></circle>
<circle cx="6761.81" cy="1503.17" r="4" stroke="rgb(255,0,80)" stroke-width="2" fill="none"></circle>
<circle cx="2108.64" cy="1969.2" r="4" stroke="rgb(199,255,0)" stroke-width="2" fill="none"></circle>
<circle cx="5761.39" cy="1862.44" r="4" stroke="rgb(199,255,0)" stroke-width="2" fill="none"></circle>
<circle cx="1731.98" cy="1991.04" r="4" stroke="rgb(29,255,0)" stroke-width="2" fill="none"></circle>
<circle cx="6554.14" cy="1892.3" r="4" stroke="rgb(29,255,0)" stroke-width="2" fill="none"></circle>
<circle cx="1692.49" cy="2046.22" r="4" stroke="rgb(0,106,255)" stroke-width="2" fill="none"></circle>
<circle cx="5685.95" cy="2152.74" r="4" stroke="rgb(0,106,255)" stroke-width="2" fill="none"></circle>
<circle cx="1477.89" cy="2056.98" r="4" stroke="rgb(144,0,255)" stroke-width="2" fill="none"></circle>
<circle cx="5514.66" cy="883.426" r="4" stroke="rgb(144,0,255)" stroke-width="2" fill="none"></circle>
<circle cx="2285.21" cy="2074.76" r="4" stroke="rgb(255,38,0)" stroke-width="2" fill="none"></circle>
<circle cx="5662.93" cy="2084.02" r="4" stroke="rgb(255,38,0)" stroke-width="2" fill="none"></circle>
<circle cx="2033.32" cy="2111.73" r="4" stroke="rgb(255,0,182)" stroke-width="2" fill="none"></circle>
<circle cx="6692.76" cy="1674.23" r="4" stroke="rgb(255,0,182)" stroke-width="2" fill="none"></circle>
<circle cx="2680.92" cy="2131.16" r="4" stroke="rgb(255,110,0)" stroke-width="2" fill="none"></circle>
<circle cx="5165.06" cy="2172.42" r="4" stroke="rgb(255,110,0)" stroke-width="2" fill="none"></circle>
<circle cx="2328.02" cy="2145.97" r="4" stroke="rgb(169,255,0)" stroke-width="2" fill="none"></circle>
<circle cx="6330.4" cy="1750.23" r="4" stroke="rgb(169,255,0)" stroke-width="2" fill="none"></circle>
<circle cx="2725.19" cy="2159.19" r="4" stroke="rgb(255,0,80)" stroke-width="2" fill="none"></circle>
<circle cx="6760.94" cy="1692.16" r="4" stroke="rgb(255,0,80)" stroke-width="2" fill="none"></circle>
<circle cx="2333.05" cy="2169.3" r="4" stroke="rgb(0,246,255)" stroke-width="2" fill="none"></circle>
<circle cx="6325.69" cy="1769.07" r="4" stroke="rgb(0,246,255)" stroke-width="2" fill="none"></circle>
<circle cx="2475.62" cy="2180.18" r="4" stroke="rgb(89,255,0)" stroke-width="2" fill="none"></circle>
<circle cx="5621.73" cy="1603.81" r="4" stroke="rgb(89,255,0)" stroke-width="2" fill="none"></circle>
<circle cx="2380.14" cy="2192.21" r="4" stroke="rgb(0,169,255)" stroke-width="2" fill="none"></circle>
<circle cx="6058.01" cy="1969.49" r="4" stroke="rgb(0,169,255)" stroke-width="2" fill="none"></circle>
<circle cx="2363.36" cy="2195.26" r="4" stroke="rgb(255,246,0)" stroke-width="2" fill="none"></circle>
<circle cx="5813.47" cy="1437.23" r="4" stroke="rgb(255,246,0)" stroke-width="2" fill="none"></circle>
<circle cx="2411.61" cy="2216.1" r="4" stroke="rgb(0,255,250)" stroke-width="2" fill="none"></circle>
<circle cx="6128.38" cy="1675.89" r="4" stroke="rgb(0,255,250)" stroke-width="2" fill="none"></circle>
<circle cx="2419.44" cy="2222.04" r="4" stroke="rgb(255,0,127)" stroke-width="2" fill="none"></circle>
<circle cx="6270.35" cy="1042.48" r="4" stroke="rgb(255,0,127)" stroke-width="2" fill="none"></circle>
<circle cx="2404.39" cy="2234.79" r="4" stroke="rgb(255,97,0)" stroke-width="2" fill="none"></circle>
<circle cx="5864.12" cy="1673.16" r="4" stroke="rgb(255,97,0)" stroke-width="2" fill="none"></circle>
<circle cx="2122.37" cy="2266.79" r="4" stroke="rgb(21,255,0)" stroke-width="2" fill="none"></circle>
<circle cx="6581.9" cy="1951.19" r="4" stroke="rgb(21,255,0)" stroke-width="2" fill="none"></circle>
<circle cx="1510.9" cy="2273.58" r="4" stroke="rgb(33,255,0)" stroke-width="2" fill="none"></circle>
<circle cx="5336.41" cy="2148.96" r="4" stroke="rgb(33,255,0)" stroke-width="2" fill="none"></circle>
<circle cx="1979.64" cy="2295.13" r="4" stroke="rgb(93,255,0)" stroke-width="2" fill="none"></circle>
<circle cx="6127.76" cy="1272.37" r="4" stroke="rgb(93,255,0)" stroke-width="2" fill="none"></circle>
<circle cx="2114.61" cy="2342.26" r="4" stroke="rgb(255,51,0)" stroke-width="2" fill="none"></circle>
<circle cx="6194.79" cy="1265.7" r="4" stroke="rgb(255,51,0)" stroke-width="2" fill="none"></circle>
<circle cx="2107.74" cy="2372.04" r="4" stroke="rgb(131,255,0)" stroke-width="2" fill="none"></circle>
<circle cx="6608.95" cy="1576.16" r="4" stroke="rgb(131,255,0)" stroke-width="2" fill="none"></circle>
<circle cx="2338.95" cy="2428.39" r="4" stroke="rgb(72,255,0)" stroke-width="2" fill="none"></circle>
<circle cx="5783.45" cy="1416.99" r="4" stroke="rgb(72,255,0)" stroke-width="2" fill="none"></circle>
<circle cx="2116.2" cy="2443.39" r="4" stroke="rgb(63,0,255)" stroke-width="2" fill="none"></circle>
<circle cx="6740.27" cy="1309.05" r="4" stroke="rgb(63,0,255)" stroke-width="2" fill="none"></circle>
<circle cx="2143.2" cy="2459.04" r="4" stroke="rgb(0,255,72)" stroke-width="2" fill="none"></circle>
<circle cx="5552.51" cy="1654.35" r="4" stroke="rgb(0,255,72)" stroke-width="2" fill="none"></circle>
<circle cx="1019.65" cy="2478.8" r="4" stroke="rgb(255,119,0)" stroke-width="2" fill="none"></circle>
<circle cx="5634.53" cy="1928.08" r="4" stroke="rgb(255,119,0)" stroke-width="2" fill="none"></circle>
<circle cx="1910.02" cy="2504.33" r="4" stroke="rgb(135,0,255)" stroke-width="2" fill="none"></circle>
<circle cx="5242.7" cy="2233.74" r="4" stroke="rgb(135,0,255)" stroke-width="2" fill="none"></circle>
<circle cx="1017.55" cy="2540.85" r="4" stroke="rgb(255,4,0)" stroke-width="2" fill="none"></circle>
<circle cx="5247.44" cy="1935.95" r="4" stroke="rgb(255,4,0)" stroke-width="2" fill="none"></circle>
<circle cx="1914.12" cy="2609.64" r="4" stroke="rgb(250,255,0)" stroke-width="2" fill="none"></circle>
<circle cx="6272.11" cy="1057.6" r="4" stroke="rgb(250,255,0)" stroke-width="2" fill="none"></circle>
<circle cx="1920.59" cy="2668.48" r="4" stroke="rgb(255,195,0)" stroke-width="2" fill="none"></circle>
<circle cx="6131.7" cy="1378.27" r="4" stroke="rgb(255,195,0)" stroke-width="2" fill="none"></circle>
<circle cx="940.504" cy="2698.85" r="4" stroke="rgb(255,93,0)" stroke-width="2" fill="none"></circle>
<circle cx="6416.74" cy="2066.87" r="4" stroke="rgb(255,93,0)" stroke-width="2" fill="none"></circle>
<circle cx="1250.79" cy="2758.27" r="4" stroke="rgb(144,0,255)" stroke-width="2" fill="none"></circle>
<circle cx="5466.21" cy="2116.19" r="4" stroke="rgb(144,0,255)" stroke-width="2" fill="none"></circle>
<circle cx="1509" cy="2807.86" r="4" stroke="rgb(255,0,38)" stroke-width="2" fill="none"></circle>
<circle cx="6604.11" cy="2004.12" r="4" stroke="rgb(255,0,38)" stroke-width="2" fill="none"></circle>
<circle cx="1554.72" cy="2813.11" r="4" stroke="rgb(255,34,0)" stroke-width="2" fill="none"></circle>
<circle cx="5991.58" cy="1036.48" r="4" stroke="rgb(255,34,0)" stroke-width="2" fill="none"></circle>
<circle cx="1485.26" cy="2824.98" r="4" stroke="rgb(0,255,38)" stroke-width="2" fill="none"></circle>
<circle cx="5642.05" cy="2073.96" r="4" stroke="rgb(0,255,38)" stroke-width="2" fill="none"></circle>
<circle cx="1613.6" cy="2848.92" r="4" stroke="rgb(106,0,255)" stroke-width="2" fill="none"></circle>
<circle cx="5852.47" cy="1024.12" r="4" stroke="rgb(106,0,255)" stroke-width="2" fill="none"></circle>
</svg>