<?xml version="1.0" standalone="yes"?>
<!-- SVG graphic -->
<svg xmlns='http://www.w3.org/2000/svg' xmlns:xlink='http://www.w3.org/1999/xlink'
width="8064px" height="3024px" preserveAspectRatio="xMinYMin meet" viewBox="0 0 8064 3024" version="1.1">
<image x="0" y="0" width="4032px" height="3024px" opacity="1" xlink:href="/home/jeong/Code/2D-to-3D-Modeling-using-AI/Make3D/Image/20200227_180624.jpg"/>
<image x="4032" y="0" width="4032px" height="3024px" opacity="1" xlink:href="/home/jeong/Code/2D-to-3D-Modeling-using-AI/Make3D/Image/20200227_180650.jpg"/>
<polyline points="1807.17,855.058,7041.97,1339.67" stroke="rgb(0,29,255)" stroke-width="2" fill="none"></polyline>
<polyline points="2412.39,896.751,5528.2,1360.56" stroke="rgb(255,0,204)" stroke-width="2" fill="none"></polyline>
<polyline points="2485.85,905.904,6708.43,923.446" stroke="rgb(0,255,161)" stroke-width="2" fill="none"></polyline>
<polyline points="2403.91,921.679,6190.95,1394.46" stroke="rgb(255,51,0)" stroke-width="2" fill="none"></polyline>
<polyline points="2441.25,936.886,6432.58,638.907" stroke="rgb(255,12,0)" stroke-width="2" fill="none"></polyline>
<polyline points="2436.55,939.418,6733.8,777.538" stroke="rgb(0,255,16)" stroke-width="2" fill="none"></polyline>
<polyline points="957.617,957.943,5959.84,1718.85" stroke="rgb(255,21,0)" stroke-width="2" fill="none"></polyline>
<polyline points="1958.42,969.804,5877.31,1239.48" stroke="rgb(0,153,255)" stroke-width="2" fill="none"></polyline>
<polyline points="1178.02,970.266,5417.41,1652.65" stroke="rgb(255,0,68)" stroke-width="2" fill="none"></polyline>
<polyline points="2541.71,981.283,6805.42,821.893" stroke="rgb(255,0,225)" stroke-width="2" fill="none"></polyline>
<polyline points="1442.49,981.482,5827.41,1266.99" stroke="rgb(255,0,101)" stroke-width="2" fill="none"></polyline>
<polyline points="2461.26,983.69,6625.36,926.4" stroke="rgb(255,204,0)" stroke-width="2" fill="none"></polyline>
<polyline points="2458.02,988.281,6216.02,1317.26" stroke="rgb(203,0,255)" stroke-width="2" fill="none"></polyline>
<polyline points="1752.94,1019.86,6582.92,1558.29" stroke="rgb(255,204,0)" stroke-width="2" fill="none"></polyline>
<polyline points="2669.72,1026.53,6909.46,1796.34" stroke="rgb(0,255,0)" stroke-width="2" fill="none"></polyline>
<polyline points="1968.1,1031.57,6663.98,1748.73" stroke="rgb(0,255,63)" stroke-width="2" fill="none"></polyline>
<polyline points="1975.02,1046.99,6596.24,1476.03" stroke="rgb(255,0,127)" stroke-width="2" fill="none"></polyline>
<polyline points="2523.13,1053.56,6845.86,849.133" stroke="rgb(21,0,255)" stroke-width="2" fill="none"></polyline>
<polyline points="2643.75,1055.16,6668.81,1652.51" stroke="rgb(0,67,255)" stroke-width="2" fill="none"></polyline>
<polyline points="2608.24,1069.2,7081.88,844.36" stroke="rgb(25,255,0)" stroke-width="2" fill="none"></polyline>
<polyline points="2676.02,1074.84,6065.25,727.753" stroke="rgb(12,255,0)" stroke-width="2" fill="none"></polyline>
<polyline points="1803.68,1075.24,5899.47,1213.33" stroke="rgb(0,255,199)" stroke-width="2" fill="none"></polyline>
<polyline points="2861.84,1089.91,6651.97,1396.1" stroke="rgb(182,255,0)" stroke-width="2" fill="none"></polyline>
<polyline points="1019.31,1099.42,5487.95,1460.07" stroke="rgb(255,68,0)" stroke-width="2" fill="none"></polyline>
<polyline points="2671.67,1131.01,6361.89,645.197" stroke="rgb(182,255,0)" stroke-width="2" fill="none"></polyline>
<polyline points="2882.59,1137.05,6951.01,1420.66" stroke="rgb(182,0,255)" stroke-width="2" fill="none"></polyline>
<polyline points="1928.15,1154.53,5931.23,1774.65" stroke="rgb(229,255,0)" stroke-width="2" fill="none"></polyline>
<polyline points="1955.44,1162.28,7065.8,1732.8" stroke="rgb(255,34,0)" stroke-width="2" fill="none"></polyline>
<polyline points="869.787,1164.58,6896.48,905.79" stroke="rgb(255,0,59)" stroke-width="2" fill="none"></polyline>
<polyline points="2170.52,1173.86,6159.13,1545.28" stroke="rgb(0,255,50)" stroke-width="2" fill="none"></polyline>
<polyline points="2788.65,1176.54,5870.83,1763.63" stroke="rgb(0,255,144)" stroke-width="2" fill="none"></polyline>
<polyline points="2089.04,1177.52,6323.11,1627.6" stroke="rgb(0,89,255)" stroke-width="2" fill="none"></polyline>
<polyline points="636.303,1179.6,7543.82,1096.67" stroke="rgb(153,255,0)" stroke-width="2" fill="none"></polyline>
<polyline points="2239.13,1181.91,6489.05,1572.42" stroke="rgb(255,0,204)" stroke-width="2" fill="none"></polyline>
<polyline points="2103.12,1187.73,6168.08,1481.13" stroke="rgb(72,255,0)" stroke-width="2" fill="none"></polyline>
<polyline points="2126.35,1273.83,6223.29,1645.77" stroke="rgb(255,0,169)" stroke-width="2" fill="none"></polyline>
<polyline points="2094.14,1292.32,6425.93,1570.67" stroke="rgb(187,255,0)" stroke-width="2" fill="none"></polyline>
<polyline points="1410.07,1296.73,7080.66,857.155" stroke="rgb(255,0,85)" stroke-width="2" fill="none"></polyline>
<polyline points="2058.65,1306.08,6042.5,1742.66" stroke="rgb(0,255,186)" stroke-width="2" fill="none"></polyline>
<polyline points="2223.25,1318.71,6413.53,1795.27" stroke="rgb(221,0,255)" stroke-width="2" fill="none"></polyline>
<polyline points="2970.13,1319.24,6254.71,1681.82" stroke="rgb(0,255,165)" stroke-width="2" fill="none"></polyline>
<polyline points="2084.67,1323.32,6719.39,1400.43" stroke="rgb(0,255,89)" stroke-width="2" fill="none"></polyline>
<polyline points="2056.24,1331.92,6583.5,1395.56" stroke="rgb(255,0,80)" stroke-width="2" fill="none"></polyline>
<polyline points="2185.86,1335.36,6531.38,1736.13" stroke="rgb(255,0,174)" stroke-width="2" fill="none"></polyline>
<polyline points="2956.17,1343.45,6760.81,1609.49" stroke="rgb(250,255,0)" stroke-width="2" fill="none"></polyline>
<polyline points="2375.32,1361.37,7061.06,1665.63" stroke="rgb(255,0,114)" stroke-width="2" fill="none"></polyline>
<polyline points="2180.26,1387.26,6235.43,1484.22" stroke="rgb(110,255,0)" stroke-width="2" fill="none"></polyline>
<polyline points="2258.03,1387.51,6463.83,1558.6" stroke="rgb(255,131,0)" stroke-width="2" fill="none"></polyline>
<polyline points="2100.42,1426.61,6701.02,1440.12" stroke="rgb(0,93,255)" stroke-width="2" fill="none"></polyline>
<polyline points="2991.89,1436.5,6370.72,1632.78" stroke="rgb(0,208,255)" stroke-width="2" fill="none"></polyline>
<polyline points="2986.12,1446.84,6542.69,1725.35" stroke="rgb(0,255,110)" stroke-width="2" fill="none"></polyline>
<polyline points="2180.59,1450.95,6786.84,1655.3" stroke="rgb(0,140,255)" stroke-width="2" fill="none"></polyline>
<polyline points="2097,1455.82,6581.26,1426.35" stroke="rgb(255,0,8)" stroke-width="2" fill="none"></polyline>
<polyline points="2236.98,1467.82,6011.52,1690.23" stroke="rgb(106,255,0)" stroke-width="2" fill="none"></polyline>
<polyline points="2052.73,1475.6,6845.68,1437.93" stroke="rgb(106,255,0)" stroke-width="2" fill="none"></polyline>
<polyline points="2029.21,1479.27,6310.34,1569.66" stroke="rgb(255,0,225)" stroke-width="2" fill="none"></polyline>
<polyline points="2573.28,1480.19,6830.17,1658.11" stroke="rgb(42,0,255)" stroke-width="2" fill="none"></polyline>
<polyline points="3019.37,1481.98,6223.27,1720.41" stroke="rgb(255,140,0)" stroke-width="2" fill="none"></polyline>
<polyline points="2978.96,1491.86,6835.01,1519.64" stroke="rgb(255,0,191)" stroke-width="2" fill="none"></polyline>
<polyline points="2252.1,1514.88,6707.75,833.48" stroke="rgb(0,12,255)" stroke-width="2" fill="none"></polyline>
<polyline points="1677.57,1517.48,5615.81,1064.42" stroke="rgb(0,255,191)" stroke-width="2" fill="none"></polyline>
<polyline points="2106.66,1517.77,6184.04,1306.7" stroke="rgb(46,255,0)" stroke-width="2" fill="none"></polyline>
<polyline points="2109.02,1586.81,6777.94,1385.49" stroke="rgb(255,0,136)" stroke-width="2" fill="none"></polyline>
<polyline points="2235.62,1614.67,7162.08,1608.73" stroke="rgb(0,255,8)" stroke-width="2" fill="none"></polyline>
<polyline points="2241.75,1617.04,6447.96,1363.41" stroke="rgb(225,0,255)" stroke-width="2" fill="none"></polyline>
<polyline points="2231.91,1621.8,6634.13,1563.56" stroke="rgb(255,0,237)" stroke-width="2" fill="none"></polyline>
<polyline points="2228.99,1645.86,6492.85,1464.65" stroke="rgb(161,255,0)" stroke-width="2" fill="none"></polyline>
<polyline points="2251.79,1651.57,6533.32,1593.73" stroke="rgb(8,0,255)" stroke-width="2" fill="none"></polyline>
<polyline points="2239.56,1686.37,6645.87,1545.2" stroke="rgb(0,255,152)" stroke-width="2" fill="none"></polyline>
<polyline points="2138.18,1696.77,6645.8,1398.75" stroke="rgb(25,0,255)" stroke-width="2" fill="none"></polyline>
<polyline points="2135.47,1726.14,6477.78,1632.62" stroke="rgb(255,195,0)" stroke-width="2" fill="none"></polyline>
<polyline points="1188.37,1730.96,5575.36,1175.25" stroke="rgb(0,221,255)" stroke-width="2" fill="none"></polyline>
<polyline points="1242.85,1800.83,6772.01,1664.92" stroke="rgb(80,0,255)" stroke-width="2" fill="none"></polyline>
<polyline points="2076.47,1802.78,5413.08,1345.41" stroke="rgb(255,114,0)" stroke-width="2" fill="none"></polyline>
<polyline points="2106.79,1833.77,6170.36,950.219" stroke="rgb(0,255,114)" stroke-width="2" fill="none"></polyline>
<polyline points="2103.96,1841.11,6169.8,959.875" stroke="rgb(0,203,255)" stroke-width="2" fill="none"></polyline>
<polyline points="2093.16,1842.97,6200.12,1828.83" stroke="rgb(255,0,0)" stroke-width="2" fill="none"></polyline>
<polyline points="1388.41,1868.43,6585.18,1563.19" stroke="rgb(25,255,0)" stroke-width="2" fill="none"></polyline>
<polyline points="2274.01,1872.22,6224.54,1346.91" stroke="rgb(0,67,255)" stroke-width="2" fill="none"></polyline>
<polyline points="1248.27,1892.05,5362.83,1745.51" stroke="rgb(123,255,0)" stroke-width="2" fill="none"></polyline>
<polyline points="2123.72,1901.67,7041.41,1197.63" stroke="rgb(255,0,233)" stroke-width="2" fill="none"></polyline>
<polyline points="1226.2,1906.28,6180.66,1371.36" stroke="rgb(8,0,255)" stroke-width="2" fill="none"></polyline>
<polyline points="1283.82,1951.57,5439.15,1274.94" stroke="rgb(0,255,212)" stroke-width="2" fill="none"></polyline>
<polyline points="1545.9,1972.3,6709.64,1617.8" stroke="rgb(255,0,242)" stroke-width="2" fill="none"></polyline>
<polyline points="1647.52,2003.91,6711.62,1376.34" stroke="rgb(0,131,255)" stroke-width="2" fill="none"></polyline>
<polyline points="2098.17,2004.93,6151.61,1377.12" stroke="rgb(0,255,76)" stroke-width="2" fill="none"></polyline>
<polyline points="1172.15,2049.68,5795.43,1775.23" stroke="rgb(0,255,8)" stroke-width="2" fill="none"></polyline>
<polyline points="1444.41,2110.18,6420.18,1362.16" stroke="rgb(84,255,0)" stroke-width="2" fill="none"></polyline>
<polyline points="2032.15,2126.63,6203.31,1752.58" stroke="rgb(0,255,216)" stroke-width="2" fill="none"></polyline>
<polyline points="1628.47,2139.15,6935.19,1777.09" stroke="rgb(255,0,212)" stroke-width="2" fill="none"></polyline>
<polyline points="2274.33,2148.63,6037.21,1812.46" stroke="rgb(0,131,255)" stroke-width="2" fill="none"></polyline>
<polyline points="1600.67,2163.78,5473.71,1089.45" stroke="rgb(0,131,255)" stroke-width="2" fill="none"></polyline>
<polyline points="2067.64,2164.33,6472.1,1811.77" stroke="rgb(216,0,255)" stroke-width="2" fill="none"></polyline>
<polyline points="2097.83,2166.62,6248.39,1635.34" stroke="rgb(255,208,0)" stroke-width="2" fill="none"></polyline>
<polyline points="1977.12,2220.77,7224.06,966.584" stroke="rgb(255,0,123)" stroke-width="2" fill="none"></polyline>
<polyline points="2609.74,2255.64,6524.46,1854.25" stroke="rgb(0,63,255)" stroke-width="2" fill="none"></polyline>
<polyline points="1931.02,2259.22,6629.36,742.67" stroke="rgb(255,0,29)" stroke-width="2" fill="none"></polyline>
<polyline points="2589.9,2275.24,5432.77,1080.74" stroke="rgb(191,0,255)" stroke-width="2" fill="none"></polyline>
<polyline points="2047.43,2294.4,6471.17,1516.37" stroke="rgb(255,0,89)" stroke-width="2" fill="none"></polyline>
<polyline points="1472.16,2306.99,6667.97,1475.61" stroke="rgb(255,93,0)" stroke-width="2" fill="none"></polyline>
<polyline points="2283.87,2349.47,6865.29,1485.53" stroke="rgb(0,255,216)" stroke-width="2" fill="none"></polyline>
<polyline points="2009.2,2360.72,7017.24,1448.75" stroke="rgb(255,106,0)" stroke-width="2" fill="none"></polyline>
<polyline points="2306.93,2364.13,6306.32,1815.48" stroke="rgb(0,127,255)" stroke-width="2" fill="none"></polyline>
<polyline points="2285.28,2381.98,6072.12,1577.06" stroke="rgb(255,0,242)" stroke-width="2" fill="none"></polyline>
<polyline points="2106.7,2383.58,7182.25,1003.35" stroke="rgb(191,0,255)" stroke-width="2" fill="none"></polyline>
<polyline points="1180.86,2431.84,7096.01,1579.32" stroke="rgb(255,0,12)" stroke-width="2" fill="none"></polyline>
<polyline points="2320.22,2439.84,6298.25,1735.36" stroke="rgb(0,255,63)" stroke-width="2" fill="none"></polyline>
<polyline points="886.016,2447.5,5840.53,1756.73" stroke="rgb(0,255,157)" stroke-width="2" fill="none"></polyline>
<polyline points="1912.45,2508.88,7175.33,1355.38" stroke="rgb(38,255,0)" stroke-width="2" fill="none"></polyline>
<polyline points="1912.99,2521.37,7075.42,890.461" stroke="rgb(0,38,255)" stroke-width="2" fill="none"></polyline>
<polyline points="2066.99,2525.21,6442.45,1778.69" stroke="rgb(34,0,255)" stroke-width="2" fill="none"></polyline>
<polyline points="1213.94,2557.03,6418.84,1367.77" stroke="rgb(255,238,0)" stroke-width="2" fill="none"></polyline>
<polyline points="2230.93,2561.43,5655.67,969.445" stroke="rgb(29,255,0)" stroke-width="2" fill="none"></polyline>
<polyline points="2175.49,2581.02,6380.43,692.61" stroke="rgb(216,0,255)" stroke-width="2" fill="none"></polyline>
<polyline points="1797.18,2613.9,6310.62,630.251" stroke="rgb(0,38,255)" stroke-width="2" fill="none"></polyline>
<polyline points="1929.21,2634.84,5575.55,993.987" stroke="rgb(255,0,157)" stroke-width="2" fill="none"></polyline>
<polyline points="1814.66,2679.56,6507.9,677.395" stroke="rgb(216,255,0)" stroke-width="2" fill="none"></polyline>
<polyline points="1849.06,2682.41,6725.83,749.365" stroke="rgb(0,59,255)" stroke-width="2" fill="none"></polyline>
<polyline points="1805.94,2725.97,6413.7,637.992" stroke="rgb(233,0,255)" stroke-width="2" fill="none"></polyline>
<polyline points="1815.47,2743.52,6655.05,747.31" stroke="rgb(33,255,0)" stroke-width="2" fill="none"></polyline>
<polyline points="1171.66,2743.53,6294.88,950.494" stroke="rgb(0,255,237)" stroke-width="2" fill="none"></polyline>
<polyline points="672.316,2791.28,5668.07,1077.06" stroke="rgb(0,255,101)" stroke-width="2" fill="none"></polyline>
<circle cx="1807.17" cy="855.058" r="4" stroke="rgb(0,29,255)" stroke-width="2" fill="none"></circle>
<circle cx="7041.97" cy="1339.67" r="4" stroke="rgb(0,29,255)" stroke-width="2" fill="none"></circle>
<circle cx="2412.39" cy="896.751" r="4" stroke="rgb(255,0,204)" stroke-width="2" fill="none"></circle>
<circle cx="5528.2" cy="1360.56" r="4" stroke="rgb(255,0,204)" stroke-width="2" fill="none"></circle>
<circle cx="2485.85" cy="905.904" r="4" stroke="rgb(0,255,161)" stroke-width="2" fill="none"></circle>
<circle cx="6708.43" cy="923.446" r="4" stroke="rgb(0,255,161)" stroke-width="2" fill="none"></circle>
<circle cx="2403.91" cy="921.679" r="4" stroke="rgb(255,51,0)" stroke-width="2" fill="none"></circle>
<circle cx="6190.95" cy="1394.46" r="4" stroke="rgb(255,51,0)" stroke-width="2" fill="none"></circle>
<circle cx="2441.25" cy="936.886" r="4" stroke="rgb(255,12,0)" stroke-width="2" fill="none"></circle>
<circle cx="6432.58" cy="638.907" r="4" stroke="rgb(255,12,0)" stroke-width="2" fill="none"></circle>
<circle cx="2436.55" cy="939.418" r="4" stroke="rgb(0,255,16)" stroke-width="2" fill="none"></circle>
<circle cx="6733.8" cy="777.538" r="4" stroke="rgb(0,255,16)" stroke-width="2" fill="none"></circle>
<circle cx="957.617" cy="957.943" r="4" stroke="rgb(255,21,0)" stroke-width="2" fill="none"></circle>
<circle cx="5959.84" cy="1718.85" r="4" stroke="rgb(255,21,0)" stroke-width="2" fill="none"></circle>
<circle cx="1958.42" cy="969.804" r="4" stroke="rgb(0,153,255)" stroke-width="2" fill="none"></circle>
<circle cx="5877.31" cy="1239.48" r="4" stroke="rgb(0,153,255)" stroke-width="2" fill="none"></circle>
<circle cx="1178.02" cy="970.266" r="4" stroke="rgb(255,0,68)" stroke-width="2" fill="none"></circle>
<circle cx="5417.41" cy="1652.65" r="4" stroke="rgb(255,0,68)" stroke-width="2" fill="none"></circle>
<circle cx="2541.71" cy="981.283" r="4" stroke="rgb(255,0,225)" stroke-width="2" fill="none"></circle>
<circle cx="6805.42" cy="821.893" r="4" stroke="rgb(255,0,225)" stroke-width="2" fill="none"></circle>
<circle cx="1442.49" cy="981.482" r="4" stroke="rgb(255,0,101)" stroke-width="2" fill="none"></circle>
<circle cx="5827.41" cy="1266.99" r="4" stroke="rgb(255,0,101)" stroke-width="2" fill="none"></circle>
<circle cx="2461.26" cy="983.69" r="4" stroke="rgb(255,204,0)" stroke-width="2" fill="none"></circle>
<circle cx="6625.36" cy="926.4" r="4" stroke="rgb(255,204,0)" stroke-width="2" fill="none"></circle>
<circle cx="2458.02" cy="988.281" r="4" stroke="rgb(203,0,255)" stroke-width="2" fill="none"></circle>
<circle cx="6216.02" cy="1317.26" r="4" stroke="rgb(203,0,255)" stroke-width="2" fill="none"></circle>
<circle cx="1752.94" cy="1019.86" r="4" stroke="rgb(255,204,0)" stroke-width="2" fill="none"></circle>
<circle cx="6582.92" cy="1558.29" r="4" stroke="rgb(255,204,0)" stroke-width="2" fill="none"></circle>
<circle cx="2669.72" cy="1026.53" r="4" stroke="rgb(0,255,0)" stroke-width="2" fill="none"></circle>
<circle cx="6909.46" cy="1796.34" r="4" stroke="rgb(0,255,0)" stroke-width="2" fill="none"></circle>
<circle cx="1968.1" cy="1031.57" r="4" stroke="rgb(0,255,63)" stroke-width="2" fill="none"></circle>
<circle cx="6663.98" cy="1748.73" r="4" stroke="rgb(0,255,63)" stroke-width="2" fill="none"></circle>
<circle cx="1975.02" cy="1046.99" r="4" stroke="rgb(255,0,127)" stroke-width="2" fill="none"></circle>
<circle cx="6596.24" cy="1476.03" r="4" stroke="rgb(255,0,127)" stroke-width="2" fill="none"></circle>
<circle cx="2523.13" cy="1053.56" r="4" stroke="rgb(21,0,255)" stroke-width="2" fill="none"></circle>
<circle cx="6845.86" cy="849.133" r="4" stroke="rgb(21,0,255)" stroke-width="2" fill="none"></circle>
<circle cx="2643.75" cy="1055.16" r="4" stroke="rgb(0,67,255)" stroke-width="2" fill="none"></circle>
<circle cx="6668.81" cy="1652.51" r="4" stroke="rgb(0,67,255)" stroke-width="2" fill="none"></circle>
<circle cx="2608.24" cy="1069.2" r="4" stroke="rgb(25,255,0)" stroke-width="2" fill="none"></circle>
<circle cx="7081.88" cy="844.36" r="4" stroke="rgb(25,255,0)" stroke-width="2" fill="none"></circle>
<circle cx="2676.02" cy="1074.84" r="4" stroke="rgb(12,255,0)" stroke-width="2" fill="none"></circle>
<circle cx="6065.25" cy="727.753" r="4" stroke="rgb(12,255,0)" stroke-width="2" fill="none"></circle>
<circle cx="1803.68" cy="1075.24" r="4" stroke="rgb(0,255,199)" stroke-width="2" fill="none"></circle>
<circle cx="5899.47" cy="1213.33" r="4" stroke="rgb(0,255,199)" stroke-width="2" fill="none"></circle>
<circle cx="2861.84" cy="1089.91" r="4" stroke="rgb(182,255,0)" stroke-width="2" fill="none"></circle>
<circle cx="6651.97" cy="1396.1" r="4" stroke="rgb(182,255,0)" stroke-width="2" fill="none"></circle>
<circle cx="1019.31" cy="1099.42" r="4" stroke="rgb(255,68,0)" stroke-width="2" fill="none"></circle>
<circle cx="5487.95" cy="1460.07" r="4" stroke="rgb(255,68,0)" stroke-width="2" fill="none"></circle>
<circle cx="2671.67" cy="1131.01" r="4" stroke="rgb(182,255,0)" stroke-width="2" fill="none"></circle>
<circle cx="6361.89" cy="645.197" r="4" stroke="rgb(182,255,0)" stroke-width="2" fill="none"></circle>
<circle cx="2882.59" cy="1137.05" r="4" stroke="rgb(182,0,255)" stroke-width="2" fill="none"></circle>
<circle cx="6951.01" cy="1420.66" r="4" stroke="rgb(182,0,255)" stroke-width="2" fill="none"></circle>
<circle cx="1928.15" cy="1154.53" r="4" stroke="rgb(229,255,0)" stroke-width="2" fill="none"></circle>
<circle cx="5931.23" cy="1774.65" r="4" stroke="rgb(229,255,0)" stroke-width="2" fill="none"></circle>
<circle cx="1955.44" cy="1162.28" r="4" stroke="rgb(255,34,0)" stroke-width="2" fill="none"></circle>
<circle cx="7065.8" cy="1732.8" r="4" stroke="rgb(255,34,0)" stroke-width="2" fill="none"></circle>
<circle cx="869.787" cy="1164.58" r="4" stroke="rgb(255,0,59)" stroke-width="2" fill="none"></circle>
<circle cx="6896.48" cy="905.79" r="4" stroke="rgb(255,0,59)" stroke-width="2" fill="none"></circle>
<circle cx="2170.52" cy="1173.86" r="4" stroke="rgb(0,255,50)" stroke-width="2" fill="none"></circle>
<circle cx="6159.13" cy="1545.28" r="4" stroke="rgb(0,255,50)" stroke-width="2" fill="none"></circle>
<circle cx="2788.65" cy="1176.54" r="4" stroke="rgb(0,255,144)" stroke-width="2" fill="none"></circle>
<circle cx="5870.83" cy="1763.63" r="4" stroke="rgb(0,255,144)" stroke-width="2" fill="none"></circle>
<circle cx="2089.04" cy="1177.52" r="4" stroke="rgb(0,89,255)" stroke-width="2" fill="none"></circle>
<circle cx="6323.11" cy="1627.6" r="4" stroke="rgb(0,89,255)" stroke-width="2" fill="none"></circle>
<circle cx="636.303" cy="1179.6" r="4" stroke="rgb(153,255,0)" stroke-width="2" fill="none"></circle>
<circle cx="7543.82" cy="1096.67" r="4" stroke="rgb(153,255,0)" stroke-width="2" fill="none"></circle>
<circle cx="2239.13" cy="1181.91" r="4" stroke="rgb(255,0,204)" stroke-width="2" fill="none"></circle>
<circle cx="6489.05" cy="1572.42" r="4" stroke="rgb(255,0,204)" stroke-width="2" fill="none"></circle>
<circle cx="2103.12" cy="1187.73" r="4" stroke="rgb(72,255,0)" stroke-width="2" fill="none"></circle>
<circle cx="6168.08" cy="1481.13" r="4" stroke="rgb(72,255,0)" stroke-width="2" fill="none"></circle>
<circle cx="2126.35" cy="1273.83" r="4" stroke="rgb(255,0,169)" stroke-width="2" fill="none"></circle>
<circle cx="6223.29" cy="1645.77" r="4" stroke="rgb(255,0,169)" stroke-width="2" fill="none"></circle>
<circle cx="2094.14" cy="1292.32" r="4" stroke="rgb(187,255,0)" stroke-width="2" fill="none"></circle>
<circle cx="6425.93" cy="1570.67" r="4" stroke="rgb(187,255,0)" stroke-width="2" fill="none"></circle>
<circle cx="1410.07" cy="1296.73" r="4" stroke="rgb(255,0,85)" stroke-width="2" fill="none"></circle>
<circle cx="7080.66" cy="857.155" r="4" stroke="rgb(255,0,85)" stroke-width="2" fill="none"></circle>
<circle cx="2058.65" cy="1306.08" r="4" stroke="rgb(0,255,186)" stroke-width="2" fill="none"></circle>
<circle cx="6042.5" cy="1742.66" r="4" stroke="rgb(0,255,186)" stroke-width="2" fill="none"></circle>
<circle cx="2223.25" cy="1318.71" r="4" stroke="rgb(221,0,255)" stroke-width="2" fill="none"></circle>
<circle cx="6413.53" cy="1795.27" r="4" stroke="rgb(221,0,255)" stroke-width="2" fill="none"></circle>
<circle cx="2970.13" cy="1319.24" r="4" stroke="rgb(0,255,165)" stroke-width="2" fill="none"></circle>
<circle cx="6254.71" cy="1681.82" r="4" stroke="rgb(0,255,165)" stroke-width="2" fill="none"></circle>
<circle cx="2084.67" cy="1323.32" r="4" stroke="rgb(0,255,89)" stroke-width="2" fill="none"></circle>
<circle cx="6719.39" cy="1400.43" r="4" stroke="rgb(0,255,89)" stroke-width="2" fill="none"></circle>
<circle cx="2056.24" cy="1331.92" r="4" stroke="rgb(255,0,80)" stroke-width="2" fill="none"></circle>
<circle cx="6583.5" cy="1395.56" r="4" stroke="rgb(255,0,80)" stroke-width="2" fill="none"></circle>
<circle cx="2185.86" cy="1335.36" r="4" stroke="rgb(255,0,174)" stroke-width="2" fill="none"></circle>
<circle cx="6531.38" cy="1736.13" r="4" stroke="rgb(255,0,174)" stroke-width="2" fill="none"></circle>
<circle cx="2956.17" cy="1343.45" r="4" stroke="rgb(250,255,0)" stroke-width="2" fill="none"></circle>
<circle cx="6760.81" cy="1609.49" r="4" stroke="rgb(250,255,0)" stroke-width="2" fill="none"></circle>
<circle cx="2375.32" cy="1361.37" r="4" stroke="rgb(255,0,114)" stroke-width="2" fill="none"></circle>
<circle cx="7061.06" cy="1665.63" r="4" stroke="rgb(255,0,114)" stroke-width="2" fill="none"></circle>
<circle cx="2180.26" cy="1387.26" r="4" stroke="rgb(110,255,0)" stroke-width="2" fill="none"></circle>
<circle cx="6235.43" cy="1484.22" r="4" stroke="rgb(110,255,0)" stroke-width="2" fill="none"></circle>
<circle cx="2258.03" cy="1387.51" r="4" stroke="rgb(255,131,0)" stroke-width="2" fill="none"></circle>
<circle cx="6463.83" cy="1558.6" r="4" stroke="rgb(255,131,0)" stroke-width="2" fill="none"></circle>
<circle cx="2100.42" cy="1426.61" r="4" stroke="rgb(0,93,255)" stroke-width="2" fill="none"></circle>
<circle cx="6701.02" cy="1440.12" r="4" stroke="rgb(0,93,255)" stroke-width="2" fill="none"></circle>
<circle cx="2991.89" cy="1436.5" r="4" stroke="rgb(0,208,255)" stroke-width="2" fill="none"></circle>
<circle cx="6370.72" cy="1632.78" r="4" stroke="rgb(0,208,255)" stroke-width="2" fill="none"></circle>
<circle cx="2986.12" cy="1446.84" r="4" stroke="rgb(0,255,110)" stroke-width="2" fill="none"></circle>
<circle cx="6542.69" cy="1725.35" r="4" stroke="rgb(0,255,110)" stroke-width="2" fill="none"></circle>
<circle cx="2180.59" cy="1450.95" r="4" stroke="rgb(0,140,255)" stroke-width="2" fill="none"></circle>
<circle cx="6786.84" cy="1655.3" r="4" stroke="rgb(0,140,255)" stroke-width="2" fill="none"></circle>
<circle cx="2097" cy="1455.82" r="4" stroke="rgb(255,0,8)" stroke-width="2" fill="none"></circle>
<circle cx="6581.26" cy="1426.35" r="4" stroke="rgb(255,0,8)" stroke-width="2" fill="none"></circle>
<circle cx="2236.98" cy="1467.82" r="4" stroke="rgb(106,255,0)" stroke-width="2" fill="none"></circle>
<circle cx="6011.52" cy="1690.23" r="4" stroke="rgb(106,255,0)" stroke-width="2" fill="none"></circle>
<circle cx="2052.73" cy="1475.6" r="4" stroke="rgb(106,255,0)" stroke-width="2" fill="none"></circle>
<circle cx="6845.68" cy="1437.93" r="4" stroke="rgb(106,255,0)" stroke-width="2" fill="none"></circle>
<circle cx="2029.21" cy="1479.27" r="4" stroke="rgb(255,0,225)" stroke-width="2" fill="none"></circle>
<circle cx="6310.34" cy="1569.66" r="4" stroke="rgb(255,0,225)" stroke-width="2" fill="none"></circle>
<circle cx="2573.28" cy="1480.19" r="4" stroke="rgb(42,0,255)" stroke-width="2" fill="none"></circle>
<circle cx="6830.17" cy="1658.11" r="4" stroke="rgb(42,0,255)" stroke-width="2" fill="none"></circle>
<circle cx="3019.37" cy="1481.98" r="4" stroke="rgb(255,140,0)" stroke-width="2" fill="none"></circle>
<circle cx="6223.27" cy="1720.41" r="4" stroke="rgb(255,140,0)" stroke-width="2" fill="none"></circle>
<circle cx="2978.96" cy="1491.86" r="4" stroke="rgb(255,0,191)" stroke-width="2" fill="none"></circle>
<circle cx="6835.01" cy="1519.64" r="4" stroke="rgb(255,0,191)" stroke-width="2" fill="none"></circle>
<circle cx="2252.1" cy="1514.88" r="4" stroke="rgb(0,12,255)" stroke-width="2" fill="none"></circle>
<circle cx="6707.75" cy="833.48" r="4" stroke="rgb(0,12,255)" stroke-width="2" fill="none"></circle>
<circle cx="1677.57" cy="1517.48" r="4" stroke="rgb(0,255,191)" stroke-width="2" fill="none"></circle>
<circle cx="5615.81" cy="1064.42" r="4" stroke="rgb(0,255,191)" stroke-width="2" fill="none"></circle>
<circle cx="2106.66" cy="1517.77" r="4" stroke="rgb(46,255,0)" stroke-width="2" fill="none"></circle>
<circle cx="6184.04" cy="1306.7" r="4" stroke="rgb(46,255,0)" stroke-width="2" fill="none"></circle>
<circle cx="2109.02" cy="1586.81" r="4" stroke="rgb(255,0,136)" stroke-width="2" fill="none"></circle>
<circle cx="6777.94" cy="1385.49" r="4" stroke="rgb(255,0,136)" stroke-width="2" fill="none"></circle>
<circle cx="2235.62" cy="1614.67" r="4" stroke="rgb(0,255,8)" stroke-width="2" fill="none"></circle>
<circle cx="7162.08" cy="1608.73" r="4" stroke="rgb(0,255,8)" stroke-width="2" fill="none"></circle>
<circle cx="2241.75" cy="1617.04" r="4" stroke="rgb(225,0,255)" stroke-width="2" fill="none"></circle>
<circle cx="6447.96" cy="1363.41" r="4" stroke="rgb(225,0,255)" stroke-width="2" fill="none"></circle>
<circle cx="2231.91" cy="1621.8" r="4" stroke="rgb(255,0,237)" stroke-width="2" fill="none"></circle>
<circle cx="6634.13" cy="1563.56" r="4" stroke="rgb(255,0,237)" stroke-width="2" fill="none"></circle>
<circle cx="2228.99" cy="1645.86" r="4" stroke="rgb(161,255,0)" stroke-width="2" fill="none"></circle>
<circle cx="6492.85" cy="1464.65" r="4" stroke="rgb(161,255,0)" stroke-width="2" fill="none"></circle>
<circle cx="2251.79" cy="1651.57" r="4" stroke="rgb(8,0,255)" stroke-width="2" fill="none"></circle>
<circle cx="6533.32" cy="1593.73" r="4" stroke="rgb(8,0,255)" stroke-width="2" fill="none"></circle>
<circle cx="2239.56" cy="1686.37" r="4" stroke="rgb(0,255,152)" stroke-width="2" fill="none"></circle>
<circle cx="6645.87" cy="1545.2" r="4" stroke="rgb(0,255,152)" stroke-width="2" fill="none"></circle>
<circle cx="2138.18" cy="1696.77" r="4" stroke="rgb(25,0,255)" stroke-width="2" fill="none"></circle>
<circle cx="6645.8" cy="1398.75" r="4" stroke="rgb(25,0,255)" stroke-width="2" fill="none"></circle>
<circle cx="2135.47" cy="1726.14" r="4" stroke="rgb(255,195,0)" stroke-width="2" fill="none"></circle>
<circle cx="6477.78" cy="1632.62" r="4" stroke="rgb(255,195,0)" stroke-width="2" fill="none"></circle>
<circle cx="1188.37" cy="1730.96" r="4" stroke="rgb(0,221,255)" stroke-width="2" fill="none"></circle>
<circle cx="5575.36" cy="1175.25" r="4" stroke="rgb(0,221,255)" stroke-width="2" fill="none"></circle>
<circle cx="1242.85" cy="1800.83" r="4" stroke="rgb(80,0,255)" stroke-width="2" fill="none"></circle>
<circle cx="6772.01" cy="1664.92" r="4" stroke="rgb(80,0,255)" stroke-width="2" fill="none"></circle>
<circle cx="2076.47" cy="1802.78" r="4" stroke="rgb(255,114,0)" stroke-width="2" fill="none"></circle>
<circle cx="5413.08" cy="1345.41" r="4" stroke="rgb(255,114,0)" stroke-width="2" fill="none"></circle>
<circle cx="2106.79" cy="1833.77" r="4" stroke="rgb(0,255,114)" stroke-width="2" fill="none"></circle>
<circle cx="6170.36" cy="950.219" r="4" stroke="rgb(0,255,114)" stroke-width="2" fill="none"></circle>
<circle cx="2103.96" cy="1841.11" r="4" stroke="rgb(0,203,255)" stroke-width="2" fill="none"></circle>
<circle cx="6169.8" cy="959.875" r="4" stroke="rgb(0,203,255)" stroke-width="2" fill="none"></circle>
<circle cx="2093.16" cy="1842.97" r="4" stroke="rgb(255,0,0)" stroke-width="2" fill="none"></circle>
<circle cx="6200.12" cy="1828.83" r="4" stroke="rgb(255,0,0)" stroke-width="2" fill="none"></circle>
<circle cx="1388.41" cy="1868.43" r="4" stroke="rgb(25,255,0)" stroke-width="2" fill="none"></circle>
<circle cx="6585.18" cy="1563.19" r="4" stroke="rgb(25,255,0)" stroke-width="2" fill="none"></circle>
<circle cx="2274.01" cy="1872.22" r="4" stroke="rgb(0,67,255)" stroke-width="2" fill="none"></circle>
<circle cx="6224.54" cy="1346.91" r="4" stroke="rgb(0,67,255)" stroke-width="2" fill="none"></circle>
<circle cx="1248.27" cy="1892.05" r="4" stroke="rgb(123,255,0)" stroke-width="2" fill="none"></circle>
<circle cx="5362.83" cy="1745.51" r="4" stroke="rgb(123,255,0)" stroke-width="2" fill="none"></circle>
<circle cx="2123.72" cy="1901.67" r="4" stroke="rgb(255,0,233)" stroke-width="2" fill="none"></circle>
<circle cx="7041.41" cy="1197.63" r="4" stroke="rgb(255,0,233)" stroke-width="2" fill="none"></circle>
<circle cx="1226.2" cy="1906.28" r="4" stroke="rgb(8,0,255)" stroke-width="2" fill="none"></circle>
<circle cx="6180.66" cy="1371.36" r="4" stroke="rgb(8,0,255)" stroke-width="2" fill="none"></circle>
<circle cx="1283.82" cy="1951.57" r="4" stroke="rgb(0,255,212)" stroke-width="2" fill="none"></circle>
<circle cx="5439.15" cy="1274.94" r="4" stroke="rgb(0,255,212)" stroke-width="2" fill="none"></circle>
<circle cx="1545.9" cy="1972.3" r="4" stroke="rgb(255,0,242)" stroke-width="2" fill="none"></circle>
<circle cx="6709.64" cy="1617.8" r="4" stroke="rgb(255,0,242)" stroke-width="2" fill="none"></circle>
<circle cx="1647.52" cy="2003.91" r="4" stroke="rgb(0,131,255)" stroke-width="2" fill="none"></circle>
<circle cx="6711.62" cy="1376.34" r="4" stroke="rgb(0,131,255)" stroke-width="2" fill="none"></circle>
<circle cx="2098.17" cy="2004.93" r="4" stroke="rgb(0,255,76)" stroke-width="2" fill="none"></circle>
<circle cx="6151.61" cy="1377.12" r="4" stroke="rgb(0,255,76)" stroke-width="2" fill="none"></circle>
<circle cx="1172.15" cy="2049.68" r="4" stroke="rgb(0,255,8)" stroke-width="2" fill="none"></circle>
<circle cx="5795.43" cy="1775.23" r="4" stroke="rgb(0,255,8)" stroke-width="2" fill="none"></circle>
<circle cx="1444.41" cy="2110.18" r="4" stroke="rgb(84,255,0)" stroke-width="2" fill="none"></circle>
<circle cx="6420.18" cy="1362.16" r="4" stroke="rgb(84,255,0)" stroke-width="2" fill="none"></circle>
<circle cx="2032.15" cy="2126.63" r="4" stroke="rgb(0,255,216)" stroke-width="2" fill="none"></circle>
<circle cx="6203.31" cy="1752.58" r="4" stroke="rgb(0,255,216)" stroke-width="2" fill="none"></circle>
<circle cx="1628.47" cy="2139.15" r="4" stroke="rgb(255,0,212)" stroke-width="2" fill="none"></circle>
<circle cx="6935.19" cy="1777.09" r="4" stroke="rgb(255,0,212)" stroke-width="2" fill="none"></circle>
<circle cx="2274.33" cy="2148.63" r="4" stroke="rgb(0,131,255)" stroke-width="2" fill="none"></circle>
<circle cx="6037.21" cy="1812.46" r="4" stroke="rgb(0,131,255)" stroke-width="2" fill="none"></circle>
<circle cx="1600.67" cy="2163.78" r="4" stroke="rgb(0,131,255)" stroke-width="2" fill="none"></circle>
<circle cx="5473.71" cy="1089.45" r="4" stroke="rgb(0,131,255)" stroke-width="2" fill="none"></circle>
<circle cx="2067.64" cy="2164.33" r="4" stroke="rgb(216,0,255)" stroke-width="2" fill="none"></circle>
<circle cx="6472.1" cy="1811.77" r="4" stroke="rgb(216,0,255)" stroke-width="2" fill="none"></circle>
<circle cx="2097.83" cy="2166.62" r="4" stroke="rgb(255,208,0)" stroke-width="2" fill="none"></circle>
<circle cx="6248.39" cy="1635.34" r="4" stroke="rgb(255,208,0)" stroke-width="2" fill="none"></circle>
<circle cx="1977.12" cy="2220.77" r="4" stroke="rgb(255,0,123)" stroke-width="2" fill="none"></circle>
<circle cx="7224.06" cy="966.584" r="4" stroke="rgb(255,0,123)" stroke-width="2" fill="none"></circle>
<circle cx="2609.74" cy="2255.64" r="4" stroke="rgb(0,63,255)" stroke-width="2" fill="none"></circle>
<circle cx="6524.46" cy="1854.25" r="4" stroke="rgb(0,63,255)" stroke-width="2" fill="none"></circle>
<circle cx="1931.02" cy="2259.22" r="4" stroke="rgb(255,0,29)" stroke-width="2" fill="none"></circle>
<circle cx="6629.36" cy="742.67" r="4" stroke="rgb(255,0,29)" stroke-width="2" fill="none"></circle>
<circle cx="2589.9" cy="2275.24" r="4" stroke="rgb(191,0,255)" stroke-width="2" fill="none"></circle>
<circle cx="5432.77" cy="1080.74" r="4" stroke="rgb(191,0,255)" stroke-width="2" fill="none"></circle>
<circle cx="2047.43" cy="2294.4" r="4" stroke="rgb(255,0,89)" stroke-width="2" fill="none"></circle>
<circle cx="6471.17" cy="1516.37" r="4" stroke="rgb(255,0,89)" stroke-width="2" fill="none"></circle>
<circle cx="1472.16" cy="2306.99" r="4" stroke="rgb(255,93,0)" stroke-width="2" fill="none"></circle>
<circle cx="6667.97" cy="1475.61" r="4" stroke="rgb(255,93,0)" stroke-width="2" fill="none"></circle>
<circle cx="2283.87" cy="2349.47" r="4" stroke="rgb(0,255,216)" stroke-width="2" fill="none"></circle>
<circle cx="6865.29" cy="1485.53" r="4" stroke="rgb(0,255,216)" stroke-width="2" fill="none"></circle>
<circle cx="2009.2" cy="2360.72" r="4" stroke="rgb(255,106,0)" stroke-width="2" fill="none"></circle>
<circle cx="7017.24" cy="1448.75" r="4" stroke="rgb(255,106,0)" stroke-width="2" fill="none"></circle>
<circle cx="2306.93" cy="2364.13" r="4" stroke="rgb(0,127,255)" stroke-width="2" fill="none"></circle>
<circle cx="6306.32" cy="1815.48" r="4" stroke="rgb(0,127,255)" stroke-width="2" fill="none"></circle>
<circle cx="2285.28" cy="2381.98" r="4" stroke="rgb(255,0,242)" stroke-width="2" fill="none"></circle>
<circle cx="6072.12" cy="1577.06" r="4" stroke="rgb(255,0,242)" stroke-width="2" fill="none"></circle>
<circle cx="2106.7" cy="2383.58" r="4" stroke="rgb(191,0,255)" stroke-width="2" fill="none"></circle>
<circle cx="7182.25" cy="1003.35" r="4" stroke="rgb(191,0,255)" stroke-width="2" fill="none"></circle>
<circle cx="1180.86" cy="2431.84" r="4" stroke="rgb(255,0,12)" stroke-width="2" fill="none"></circle>
<circle cx="7096.01" cy="1579.32" r="4" stroke="rgb(255,0,12)" stroke-width="2" fill="none"></circle>
<circle cx="2320.22" cy="2439.84" r="4" stroke="rgb(0,255,63)" stroke-width="2" fill="none"></circle>
<circle cx="6298.25" cy="1735.36" r="4" stroke="rgb(0,255,63)" stroke-width="2" fill="none"></circle>
<circle cx="886.016" cy="2447.5" r="4" stroke="rgb(0,255,157)" stroke-width="2" fill="none"></circle>
<circle cx="5840.53" cy="1756.73" r="4" stroke="rgb(0,255,157)" stroke-width="2" fill="none"></circle>
<circle cx="1912.45" cy="2508.88" r="4" stroke="rgb(38,255,0)" stroke-width="2" fill="none"></circle>
<circle cx="7175.33" cy="1355.38" r="4" stroke="rgb(38,255,0)" stroke-width="2" fill="none"></circle>
<circle cx="1912.99" cy="2521.37" r="4" stroke="rgb(0,38,255)" stroke-width="2" fill="none"></circle>
<circle cx="7075.42" cy="890.461" r="4" stroke="rgb(0,38,255)" stroke-width="2" fill="none"></circle>
<circle cx="2066.99" cy="2525.21" r="4" stroke="rgb(34,0,255)" stroke-width="2" fill="none"></circle>
<circle cx="6442.45" cy="1778.69" r="4" stroke="rgb(34,0,255)" stroke-width="2" fill="none"></circle>
<circle cx="1213.94" cy="2557.03" r="4" stroke="rgb(255,238,0)" stroke-width="2" fill="none"></circle>
<circle cx="6418.84" cy="1367.77" r="4" stroke="rgb(255,238,0)" stroke-width="2" fill="none"></circle>
<circle cx="2230.93" cy="2561.43" r="4" stroke="rgb(29,255,0)" stroke-width="2" fill="none"></circle>
<circle cx="5655.67" cy="969.445" r="4" stroke="rgb(29,255,0)" stroke-width="2" fill="none"></circle>
<circle cx="2175.49" cy="2581.02" r="4" stroke="rgb(216,0,255)" stroke-width="2" fill="none"></circle>
<circle cx="6380.43" cy="692.61" r="4" stroke="rgb(216,0,255)" stroke-width="2" fill="none"></circle>
<circle cx="1797.18" cy="2613.9" r="4" stroke="rgb(0,38,255)" stroke-width="2" fill="none"></circle>
<circle cx="6310.62" cy="630.251" r="4" stroke="rgb(0,38,255)" stroke-width="2" fill="none"></circle>
<circle cx="1929.21" cy="2634.84" r="4" stroke="rgb(255,0,157)" stroke-width="2" fill="none"></circle>
<circle cx="5575.55" cy="993.987" r="4" stroke="rgb(255,0,157)" stroke-width="2" fill="none"></circle>
<circle cx="1814.66" cy="2679.56" r="4" stroke="rgb(216,255,0)" stroke-width="2" fill="none"></circle>
<circle cx="6507.9" cy="677.395" r="4" stroke="rgb(216,255,0)" stroke-width="2" fill="none"></circle>
<circle cx="1849.06" cy="2682.41" r="4" stroke="rgb(0,59,255)" stroke-width="2" fill="none"></circle>
<circle cx="6725.83" cy="749.365" r="4" stroke="rgb(0,59,255)" stroke-width="2" fill="none"></circle>
<circle cx="1805.94" cy="2725.97" r="4" stroke="rgb(233,0,255)" stroke-width="2" fill="none"></circle>
<circle cx="6413.7" cy="637.992" r="4" stroke="rgb(233,0,255)" stroke-width="2" fill="none"></circle>
<circle cx="1815.47" cy="2743.52" r="4" stroke="rgb(33,255,0)" stroke-width="2" fill="none"></circle>
<circle cx="6655.05" cy="747.31" r="4" stroke="rgb(33,255,0)" stroke-width="2" fill="none"></circle>
<circle cx="1171.66" cy="2743.53" r="4" stroke="rgb(0,255,237)" stroke-width="2" fill="none"></circle>
<circle cx="6294.88" cy="950.494" r="4" stroke="rgb(0,255,237)" stroke-width="2" fill="none"></circle>
<circle cx="672.316" cy="2791.28" r="4" stroke="rgb(0,255,101)" stroke-width="2" fill="none"></circle>
<circle cx="5668.07" cy="1077.06" r="4" stroke="rgb(0,255,101)" stroke-width="2" fill="none"></circle>
</svg>