<?xml version="1.0" standalone="yes"?>
<!-- SVG graphic -->
<svg xmlns='http://www.w3.org/2000/svg' xmlns:xlink='http://www.w3.org/1999/xlink'
width="8064px" height="3024px" preserveAspectRatio="xMinYMin meet" viewBox="0 0 8064 3024" version="1.1">
<image x="0" y="0" width="4032px" height="3024px" opacity="1" xlink:href="/home/jeong/Code/2D-to-3D-Modeling-using-AI/Make3D/Image/20200227_180611.jpg"/>
<image x="4032" y="0" width="4032px" height="3024px" opacity="1" xlink:href="/home/jeong/Code/2D-to-3D-Modeling-using-AI/Make3D/Image/20200227_180634.jpg"/>
<polyline points="887.606,226.692,6350.71,1302.69" stroke="rgb(63,0,255)" stroke-width="2" fill="none"></polyline>
<polyline points="947.934,237.74,5730.18,2578.64" stroke="rgb(42,255,0)" stroke-width="2" fill="none"></polyline>
<polyline points="883.413,246.929,5889.01,1514.32" stroke="rgb(140,255,0)" stroke-width="2" fill="none"></polyline>
<polyline points="1720.51,400.078,6373.06,2424.26" stroke="rgb(0,246,255)" stroke-width="2" fill="none"></polyline>
<polyline points="1039.48,407.729,6753.8,1240.68" stroke="rgb(0,255,246)" stroke-width="2" fill="none"></polyline>
<polyline points="1221.9,422.679,5372.43,2406.58" stroke="rgb(186,0,255)" stroke-width="2" fill="none"></polyline>
<polyline points="459.302,428.275,5045.58,2236.5" stroke="rgb(0,255,135)" stroke-width="2" fill="none"></polyline>
<polyline points="919.511,439.838,6924.08,2370.07" stroke="rgb(255,0,233)" stroke-width="2" fill="none"></polyline>
<polyline points="975.679,527.1,5907.69,2836.01" stroke="rgb(0,255,157)" stroke-width="2" fill="none"></polyline>
<polyline points="922.131,552.887,6439.87,2184.7" stroke="rgb(0,255,55)" stroke-width="2" fill="none"></polyline>
<polyline points="1695.7,561.149,5928.67,2825.97" stroke="rgb(0,255,203)" stroke-width="2" fill="none"></polyline>
<polyline points="1888.92,566.292,6353.36,2525.55" stroke="rgb(89,255,0)" stroke-width="2" fill="none"></polyline>
<polyline points="1868.3,578.576,5875.33,1702.97" stroke="rgb(0,255,4)" stroke-width="2" fill="none"></polyline>
<polyline points="773.6,579.046,5914.68,1380.58" stroke="rgb(250,255,0)" stroke-width="2" fill="none"></polyline>
<polyline points="2171.2,661.908,5595.95,2323.94" stroke="rgb(0,216,255)" stroke-width="2" fill="none"></polyline>
<polyline points="2171.86,670.3,6560.3,1543.51" stroke="rgb(46,255,0)" stroke-width="2" fill="none"></polyline>
<polyline points="2180.24,675.853,4687.88,2321.57" stroke="rgb(0,255,157)" stroke-width="2" fill="none"></polyline>
<polyline points="1931.23,676.568,5932.8,1618.31" stroke="rgb(255,0,42)" stroke-width="2" fill="none"></polyline>
<polyline points="2387.02,721.221,5786.9,2785.74" stroke="rgb(255,0,4)" stroke-width="2" fill="none"></polyline>
<polyline points="705.512,777.721,5832.71,1481.21" stroke="rgb(0,255,25)" stroke-width="2" fill="none"></polyline>
<polyline points="2176.91,794.383,6404.22,1273.17" stroke="rgb(0,59,255)" stroke-width="2" fill="none"></polyline>
<polyline points="746.592,794.758,4604.95,2101" stroke="rgb(178,0,255)" stroke-width="2" fill="none"></polyline>
<polyline points="2330.12,822.818,6267.93,2287.34" stroke="rgb(161,0,255)" stroke-width="2" fill="none"></polyline>
<polyline points="2151.21,828.845,6000.63,2584.81" stroke="rgb(255,34,0)" stroke-width="2" fill="none"></polyline>
<polyline points="825.575,831.405,6715.49,1345.68" stroke="rgb(255,4,0)" stroke-width="2" fill="none"></polyline>
<polyline points="2429.84,845.612,5374.83,1433.69" stroke="rgb(0,255,25)" stroke-width="2" fill="none"></polyline>
<polyline points="1117.33,847.502,5460.33,1566.16" stroke="rgb(0,63,255)" stroke-width="2" fill="none"></polyline>
<polyline points="1212.9,852.016,5206.24,2329.23" stroke="rgb(157,0,255)" stroke-width="2" fill="none"></polyline>
<polyline points="850.035,852.893,5865.46,2533.03" stroke="rgb(0,216,255)" stroke-width="2" fill="none"></polyline>
<polyline points="2098.26,858.967,7088.7,2294.86" stroke="rgb(157,255,0)" stroke-width="2" fill="none"></polyline>
<polyline points="1332.19,859.836,4964.69,2212.5" stroke="rgb(97,255,0)" stroke-width="2" fill="none"></polyline>
<polyline points="885.991,891.278,4890.04,2191.31" stroke="rgb(153,255,0)" stroke-width="2" fill="none"></polyline>
<polyline points="2240.11,967.869,5427.28,2632.01" stroke="rgb(233,255,0)" stroke-width="2" fill="none"></polyline>
<polyline points="1454.07,977.962,5719.83,2500.08" stroke="rgb(0,233,255)" stroke-width="2" fill="none"></polyline>
<polyline points="1071.59,990.702,5810.8,1319.09" stroke="rgb(114,0,255)" stroke-width="2" fill="none"></polyline>
<polyline points="2400.38,991.236,6025.8,2608.43" stroke="rgb(17,0,255)" stroke-width="2" fill="none"></polyline>
<polyline points="1331.01,1056.08,4954.28,2392.85" stroke="rgb(46,255,0)" stroke-width="2" fill="none"></polyline>
<polyline points="2345.14,1060.84,6154.15,2664.15" stroke="rgb(216,0,255)" stroke-width="2" fill="none"></polyline>
<polyline points="2610.51,1120.99,6148.33,1598.35" stroke="rgb(0,216,255)" stroke-width="2" fill="none"></polyline>
<polyline points="1902.03,1180.75,6290.73,2365.38" stroke="rgb(0,255,80)" stroke-width="2" fill="none"></polyline>
<polyline points="2510.55,1190.47,6168.65,1309.47" stroke="rgb(237,255,0)" stroke-width="2" fill="none"></polyline>
<polyline points="1154.4,1192.85,6383.79,2299.46" stroke="rgb(0,46,255)" stroke-width="2" fill="none"></polyline>
<polyline points="1917.6,1223.33,6168.65,1309.47" stroke="rgb(42,255,0)" stroke-width="2" fill="none"></polyline>
<polyline points="1163.74,1261.93,7073.01,2049.04" stroke="rgb(0,233,255)" stroke-width="2" fill="none"></polyline>
<polyline points="1183.36,1274.06,6498.74,2102.15" stroke="rgb(216,0,255)" stroke-width="2" fill="none"></polyline>
<polyline points="2611.9,1284.71,7021.02,2144.31" stroke="rgb(0,255,216)" stroke-width="2" fill="none"></polyline>
<polyline points="1213.7,1294.29,7142.53,2162.93" stroke="rgb(0,255,199)" stroke-width="2" fill="none"></polyline>
<polyline points="2744.77,1305.73,6680.52,1387.95" stroke="rgb(135,255,0)" stroke-width="2" fill="none"></polyline>
<polyline points="2047.15,1319.03,6167.63,1466.71" stroke="rgb(0,255,178)" stroke-width="2" fill="none"></polyline>
<polyline points="2496.37,1338.4,6944.84,1977.67" stroke="rgb(255,161,0)" stroke-width="2" fill="none"></polyline>
<polyline points="1167.57,1366.57,7108.37,2288.11" stroke="rgb(144,255,0)" stroke-width="2" fill="none"></polyline>
<polyline points="1324.79,1399.64,5876.55,1741.24" stroke="rgb(255,119,0)" stroke-width="2" fill="none"></polyline>
<polyline points="2001.67,1400.11,6872.37,2047.2" stroke="rgb(255,0,169)" stroke-width="2" fill="none"></polyline>
<polyline points="2055.54,1406.46,7097.44,2253.95" stroke="rgb(255,21,0)" stroke-width="2" fill="none"></polyline>
<polyline points="2171.83,1462.75,6400.37,2430.24" stroke="rgb(118,0,255)" stroke-width="2" fill="none"></polyline>
<polyline points="2178.44,1467.42,5821.37,2799.11" stroke="rgb(0,195,255)" stroke-width="2" fill="none"></polyline>
<polyline points="2032.49,1471.97,6889.82,2128.47" stroke="rgb(0,255,46)" stroke-width="2" fill="none"></polyline>
<polyline points="2583.53,1478.44,5828.31,1358.35" stroke="rgb(255,21,0)" stroke-width="2" fill="none"></polyline>
<polyline points="2157.57,1551.74,5771.08,1479.34" stroke="rgb(38,255,0)" stroke-width="2" fill="none"></polyline>
<polyline points="2072.43,1583.44,6867.8,1909.09" stroke="rgb(255,0,165)" stroke-width="2" fill="none"></polyline>
<polyline points="1899.49,1634.98,5771.92,1370.12" stroke="rgb(255,0,169)" stroke-width="2" fill="none"></polyline>
<polyline points="2326.5,1656.42,5888.78,1700.14" stroke="rgb(0,131,255)" stroke-width="2" fill="none"></polyline>
<polyline points="1989.09,1712.44,5896.02,1518.13" stroke="rgb(255,191,0)" stroke-width="2" fill="none"></polyline>
<polyline points="2150.02,1741.03,5676.27,1394.97" stroke="rgb(255,110,0)" stroke-width="2" fill="none"></polyline>
<polyline points="2006.1,1828.76,6464.32,2652.57" stroke="rgb(110,0,255)" stroke-width="2" fill="none"></polyline>
<polyline points="1560.03,1838.74,6647.08,1510.67" stroke="rgb(0,237,255)" stroke-width="2" fill="none"></polyline>
<polyline points="2087.87,1844.95,5685.16,1365.93" stroke="rgb(0,255,93)" stroke-width="2" fill="none"></polyline>
<polyline points="2008.22,1870.92,7021.03,2278.4" stroke="rgb(255,63,0)" stroke-width="2" fill="none"></polyline>
<polyline points="1222.11,1882.72,6990.23,2268.26" stroke="rgb(21,255,0)" stroke-width="2" fill="none"></polyline>
<polyline points="2205.5,1883.55,7147.52,2091.59" stroke="rgb(255,0,123)" stroke-width="2" fill="none"></polyline>
<polyline points="1950.37,2035.84,5742.52,1385.67" stroke="rgb(255,110,0)" stroke-width="2" fill="none"></polyline>
<polyline points="1934.96,2039.85,5965.94,1425.87" stroke="rgb(0,255,254)" stroke-width="2" fill="none"></polyline>
<polyline points="909.451,2073.98,5139.67,2275.75" stroke="rgb(0,169,255)" stroke-width="2" fill="none"></polyline>
<polyline points="1725.89,2076.74,5108.17,2177.17" stroke="rgb(255,38,0)" stroke-width="2" fill="none"></polyline>
<polyline points="954.307,2083.14,5433.11,2169" stroke="rgb(0,12,255)" stroke-width="2" fill="none"></polyline>
<polyline points="951.547,2092.99,4768.64,1869.81" stroke="rgb(255,12,0)" stroke-width="2" fill="none"></polyline>
<polyline points="1006.73,2109.4,4682.76,2434.08" stroke="rgb(0,255,254)" stroke-width="2" fill="none"></polyline>
<polyline points="1710.62,2176.1,4342.26,1957.87" stroke="rgb(153,0,255)" stroke-width="2" fill="none"></polyline>
<polyline points="1361.72,2195.82,5531.81,2358.73" stroke="rgb(119,255,0)" stroke-width="2" fill="none"></polyline>
<polyline points="1618.73,2207.49,6194.73,1627.27" stroke="rgb(0,110,255)" stroke-width="2" fill="none"></polyline>
<circle cx="887.606" cy="226.692" r="4" stroke="rgb(63,0,255)" stroke-width="2" fill="none"></circle>
<circle cx="6350.71" cy="1302.69" r="4" stroke="rgb(63,0,255)" stroke-width="2" fill="none"></circle>
<circle cx="947.934" cy="237.74" r="4" stroke="rgb(42,255,0)" stroke-width="2" fill="none"></circle>
<circle cx="5730.18" cy="2578.64" r="4" stroke="rgb(42,255,0)" stroke-width="2" fill="none"></circle>
<circle cx="883.413" cy="246.929" r="4" stroke="rgb(140,255,0)" stroke-width="2" fill="none"></circle>
<circle cx="5889.01" cy="1514.32" r="4" stroke="rgb(140,255,0)" stroke-width="2" fill="none"></circle>
<circle cx="1720.51" cy="400.078" r="4" stroke="rgb(0,246,255)" stroke-width="2" fill="none"></circle>
<circle cx="6373.06" cy="2424.26" r="4" stroke="rgb(0,246,255)" stroke-width="2" fill="none"></circle>
<circle cx="1039.48" cy="407.729" r="4" stroke="rgb(0,255,246)" stroke-width="2" fill="none"></circle>
<circle cx="6753.8" cy="1240.68" r="4" stroke="rgb(0,255,246)" stroke-width="2" fill="none"></circle>
<circle cx="1221.9" cy="422.679" r="4" stroke="rgb(186,0,255)" stroke-width="2" fill="none"></circle>
<circle cx="5372.43" cy="2406.58" r="4" stroke="rgb(186,0,255)" stroke-width="2" fill="none"></circle>
<circle cx="459.302" cy="428.275" r="4" stroke="rgb(0,255,135)" stroke-width="2" fill="none"></circle>
<circle cx="5045.58" cy="2236.5" r="4" stroke="rgb(0,255,135)" stroke-width="2" fill="none"></circle>
<circle cx="919.511" cy="439.838" r="4" stroke="rgb(255,0,233)" stroke-width="2" fill="none"></circle>
<circle cx="6924.08" cy="2370.07" r="4" stroke="rgb(255,0,233)" stroke-width="2" fill="none"></circle>
<circle cx="975.679" cy="527.1" r="4" stroke="rgb(0,255,157)" stroke-width="2" fill="none"></circle>
<circle cx="5907.69" cy="2836.01" r="4" stroke="rgb(0,255,157)" stroke-width="2" fill="none"></circle>
<circle cx="922.131" cy="552.887" r="4" stroke="rgb(0,255,55)" stroke-width="2" fill="none"></circle>
<circle cx="6439.87" cy="2184.7" r="4" stroke="rgb(0,255,55)" stroke-width="2" fill="none"></circle>
<circle cx="1695.7" cy="561.149" r="4" stroke="rgb(0,255,203)" stroke-width="2" fill="none"></circle>
<circle cx="5928.67" cy="2825.97" r="4" stroke="rgb(0,255,203)" stroke-width="2" fill="none"></circle>
<circle cx="1888.92" cy="566.292" r="4" stroke="rgb(89,255,0)" stroke-width="2" fill="none"></circle>
<circle cx="6353.36" cy="2525.55" r="4" stroke="rgb(89,255,0)" stroke-width="2" fill="none"></circle>
<circle cx="1868.3" cy="578.576" r="4" stroke="rgb(0,255,4)" stroke-width="2" fill="none"></circle>
<circle cx="5875.33" cy="1702.97" r="4" stroke="rgb(0,255,4)" stroke-width="2" fill="none"></circle>
<circle cx="773.6" cy="579.046" r="4" stroke="rgb(250,255,0)" stroke-width="2" fill="none"></circle>
<circle cx="5914.68" cy="1380.58" r="4" stroke="rgb(250,255,0)" stroke-width="2" fill="none"></circle>
<circle cx="2171.2" cy="661.908" r="4" stroke="rgb(0,216,255)" stroke-width="2" fill="none"></circle>
<circle cx="5595.95" cy="2323.94" r="4" stroke="rgb(0,216,255)" stroke-width="2" fill="none"></circle>
<circle cx="2171.86" cy="670.3" r="4" stroke="rgb(46,255,0)" stroke-width="2" fill="none"></circle>
<circle cx="6560.3" cy="1543.51" r="4" stroke="rgb(46,255,0)" stroke-width="2" fill="none"></circle>
<circle cx="2180.24" cy="675.853" r="4" stroke="rgb(0,255,157)" stroke-width="2" fill="none"></circle>
<circle cx="4687.88" cy="2321.57" r="4" stroke="rgb(0,255,157)" stroke-width="2" fill="none"></circle>
<circle cx="1931.23" cy="676.568" r="4" stroke="rgb(255,0,42)" stroke-width="2" fill="none"></circle>
<circle cx="5932.8" cy="1618.31" r="4" stroke="rgb(255,0,42)" stroke-width="2" fill="none"></circle>
<circle cx="2387.02" cy="721.221" r="4" stroke="rgb(255,0,4)" stroke-width="2" fill="none"></circle>
<circle cx="5786.9" cy="2785.74" r="4" stroke="rgb(255,0,4)" stroke-width="2" fill="none"></circle>
<circle cx="705.512" cy="777.721" r="4" stroke="rgb(0,255,25)" stroke-width="2" fill="none"></circle>
<circle cx="5832.71" cy="1481.21" r="4" stroke="rgb(0,255,25)" stroke-width="2" fill="none"></circle>
<circle cx="2176.91" cy="794.383" r="4" stroke="rgb(0,59,255)" stroke-width="2" fill="none"></circle>
<circle cx="6404.22" cy="1273.17" r="4" stroke="rgb(0,59,255)" stroke-width="2" fill="none"></circle>
<circle cx="746.592" cy="794.758" r="4" stroke="rgb(178,0,255)" stroke-width="2" fill="none"></circle>
<circle cx="4604.95" cy="2101" r="4" stroke="rgb(178,0,255)" stroke-width="2" fill="none"></circle>
<circle cx="2330.12" cy="822.818" r="4" stroke="rgb(161,0,255)" stroke-width="2" fill="none"></circle>
<circle cx="6267.93" cy="2287.34" r="4" stroke="rgb(161,0,255)" stroke-width="2" fill="none"></circle>
<circle cx="2151.21" cy="828.845" r="4" stroke="rgb(255,34,0)" stroke-width="2" fill="none"></circle>
<circle cx="6000.63" cy="2584.81" r="4" stroke="rgb(255,34,0)" stroke-width="2" fill="none"></circle>
<circle cx="825.575" cy="831.405" r="4" stroke="rgb(255,4,0)" stroke-width="2" fill="none"></circle>
<circle cx="6715.49" cy="1345.68" r="4" stroke="rgb(255,4,0)" stroke-width="2" fill="none"></circle>
<circle cx="2429.84" cy="845.612" r="4" stroke="rgb(0,255,25)" stroke-width="2" fill="none"></circle>
<circle cx="5374.83" cy="1433.69" r="4" stroke="rgb(0,255,25)" stroke-width="2" fill="none"></circle>
<circle cx="1117.33" cy="847.502" r="4" stroke="rgb(0,63,255)" stroke-width="2" fill="none"></circle>
<circle cx="5460.33" cy="1566.16" r="4" stroke="rgb(0,63,255)" stroke-width="2" fill="none"></circle>
<circle cx="1212.9" cy="852.016" r="4" stroke="rgb(157,0,255)" stroke-width="2" fill="none"></circle>
<circle cx="5206.24" cy="2329.23" r="4" stroke="rgb(157,0,255)" stroke-width="2" fill="none"></circle>
<circle cx="850.035" cy="852.893" r="4" stroke="rgb(0,216,255)" stroke-width="2" fill="none"></circle>
<circle cx="5865.46" cy="2533.03" r="4" stroke="rgb(0,216,255)" stroke-width="2" fill="none"></circle>
<circle cx="2098.26" cy="858.967" r="4" stroke="rgb(157,255,0)" stroke-width="2" fill="none"></circle>
<circle cx="7088.7" cy="2294.86" r="4" stroke="rgb(157,255,0)" stroke-width="2" fill="none"></circle>
<circle cx="1332.19" cy="859.836" r="4" stroke="rgb(97,255,0)" stroke-width="2" fill="none"></circle>
<circle cx="4964.69" cy="2212.5" r="4" stroke="rgb(97,255,0)" stroke-width="2" fill="none"></circle>
<circle cx="885.991" cy="891.278" r="4" stroke="rgb(153,255,0)" stroke-width="2" fill="none"></circle>
<circle cx="4890.04" cy="2191.31" r="4" stroke="rgb(153,255,0)" stroke-width="2" fill="none"></circle>
<circle cx="2240.11" cy="967.869" r="4" stroke="rgb(233,255,0)" stroke-width="2" fill="none"></circle>
<circle cx="5427.28" cy="2632.01" r="4" stroke="rgb(233,255,0)" stroke-width="2" fill="none"></circle>
<circle cx="1454.07" cy="977.962" r="4" stroke="rgb(0,233,255)" stroke-width="2" fill="none"></circle>
<circle cx="5719.83" cy="2500.08" r="4" stroke="rgb(0,233,255)" stroke-width="2" fill="none"></circle>
<circle cx="1071.59" cy="990.702" r="4" stroke="rgb(114,0,255)" stroke-width="2" fill="none"></circle>
<circle cx="5810.8" cy="1319.09" r="4" stroke="rgb(114,0,255)" stroke-width="2" fill="none"></circle>
<circle cx="2400.38" cy="991.236" r="4" stroke="rgb(17,0,255)" stroke-width="2" fill="none"></circle>
<circle cx="6025.8" cy="2608.43" r="4" stroke="rgb(17,0,255)" stroke-width="2" fill="none"></circle>
<circle cx="1331.01" cy="1056.08" r="4" stroke="rgb(46,255,0)" stroke-width="2" fill="none"></circle>
<circle cx="4954.28" cy="2392.85" r="4" stroke="rgb(46,255,0)" stroke-width="2" fill="none"></circle>
<circle cx="2345.14" cy="1060.84" r="4" stroke="rgb(216,0,255)" stroke-width="2" fill="none"></circle>
<circle cx="6154.15" cy="2664.15" r="4" stroke="rgb(216,0,255)" stroke-width="2" fill="none"></circle>
<circle cx="2610.51" cy="1120.99" r="4" stroke="rgb(0,216,255)" stroke-width="2" fill="none"></circle>
<circle cx="6148.33" cy="1598.35" r="4" stroke="rgb(0,216,255)" stroke-width="2" fill="none"></circle>
<circle cx="1902.03" cy="1180.75" r="4" stroke="rgb(0,255,80)" stroke-width="2" fill="none"></circle>
<circle cx="6290.73" cy="2365.38" r="4" stroke="rgb(0,255,80)" stroke-width="2" fill="none"></circle>
<circle cx="2510.55" cy="1190.47" r="4" stroke="rgb(237,255,0)" stroke-width="2" fill="none"></circle>
<circle cx="6168.65" cy="1309.47" r="4" stroke="rgb(237,255,0)" stroke-width="2" fill="none"></circle>
<circle cx="1154.4" cy="1192.85" r="4" stroke="rgb(0,46,255)" stroke-width="2" fill="none"></circle>
<circle cx="6383.79" cy="2299.46" r="4" stroke="rgb(0,46,255)" stroke-width="2" fill="none"></circle>
<circle cx="1917.6" cy="1223.33" r="4" stroke="rgb(42,255,0)" stroke-width="2" fill="none"></circle>
<circle cx="6168.65" cy="1309.47" r="4" stroke="rgb(42,255,0)" stroke-width="2" fill="none"></circle>
<circle cx="1163.74" cy="1261.93" r="4" stroke="rgb(0,233,255)" stroke-width="2" fill="none"></circle>
<circle cx="7073.01" cy="2049.04" r="4" stroke="rgb(0,233,255)" stroke-width="2" fill="none"></circle>
<circle cx="1183.36" cy="1274.06" r="4" stroke="rgb(216,0,255)" stroke-width="2" fill="none"></circle>
<circle cx="6498.74" cy="2102.15" r="4" stroke="rgb(216,0,255)" stroke-width="2" fill="none"></circle>
<circle cx="2611.9" cy="1284.71" r="4" stroke="rgb(0,255,216)" stroke-width="2" fill="none"></circle>
<circle cx="7021.02" cy="2144.31" r="4" stroke="rgb(0,255,216)" stroke-width="2" fill="none"></circle>
<circle cx="1213.7" cy="1294.29" r="4" stroke="rgb(0,255,199)" stroke-width="2" fill="none"></circle>
<circle cx="7142.53" cy="2162.93" r="4" stroke="rgb(0,255,199)" stroke-width="2" fill="none"></circle>
<circle cx="2744.77" cy="1305.73" r="4" stroke="rgb(135,255,0)" stroke-width="2" fill="none"></circle>
<circle cx="6680.52" cy="1387.95" r="4" stroke="rgb(135,255,0)" stroke-width="2" fill="none"></circle>
<circle cx="2047.15" cy="1319.03" r="4" stroke="rgb(0,255,178)" stroke-width="2" fill="none"></circle>
<circle cx="6167.63" cy="1466.71" r="4" stroke="rgb(0,255,178)" stroke-width="2" fill="none"></circle>
<circle cx="2496.37" cy="1338.4" r="4" stroke="rgb(255,161,0)" stroke-width="2" fill="none"></circle>
<circle cx="6944.84" cy="1977.67" r="4" stroke="rgb(255,161,0)" stroke-width="2" fill="none"></circle>
<circle cx="1167.57" cy="1366.57" r="4" stroke="rgb(144,255,0)" stroke-width="2" fill="none"></circle>
<circle cx="7108.37" cy="2288.11" r="4" stroke="rgb(144,255,0)" stroke-width="2" fill="none"></circle>
<circle cx="1324.79" cy="1399.64" r="4" stroke="rgb(255,119,0)" stroke-width="2" fill="none"></circle>
<circle cx="5876.55" cy="1741.24" r="4" stroke="rgb(255,119,0)" stroke-width="2" fill="none"></circle>
<circle cx="2001.67" cy="1400.11" r="4" stroke="rgb(255,0,169)" stroke-width="2" fill="none"></circle>
<circle cx="6872.37" cy="2047.2" r="4" stroke="rgb(255,0,169)" stroke-width="2" fill="none"></circle>
<circle cx="2055.54" cy="1406.46" r="4" stroke="rgb(255,21,0)" stroke-width="2" fill="none"></circle>
<circle cx="7097.44" cy="2253.95" r="4" stroke="rgb(255,21,0)" stroke-width="2" fill="none"></circle>
<circle cx="2171.83" cy="1462.75" r="4" stroke="rgb(118,0,255)" stroke-width="2" fill="none"></circle>
<circle cx="6400.37" cy="2430.24" r="4" stroke="rgb(118,0,255)" stroke-width="2" fill="none"></circle>
<circle cx="2178.44" cy="1467.42" r="4" stroke="rgb(0,195,255)" stroke-width="2" fill="none"></circle>
<circle cx="5821.37" cy="2799.11" r="4" stroke="rgb(0,195,255)" stroke-width="2" fill="none"></circle>
<circle cx="2032.49" cy="1471.97" r="4" stroke="rgb(0,255,46)" stroke-width="2" fill="none"></circle>
<circle cx="6889.82" cy="2128.47" r="4" stroke="rgb(0,255,46)" stroke-width="2" fill="none"></circle>
<circle cx="2583.53" cy="1478.44" r="4" stroke="rgb(255,21,0)" stroke-width="2" fill="none"></circle>
<circle cx="5828.31" cy="1358.35" r="4" stroke="rgb(255,21,0)" stroke-width="2" fill="none"></circle>
<circle cx="2157.57" cy="1551.74" r="4" stroke="rgb(38,255,0)" stroke-width="2" fill="none"></circle>
<circle cx="5771.08" cy="1479.34" r="4" stroke="rgb(38,255,0)" stroke-width="2" fill="none"></circle>
<circle cx="2072.43" cy="1583.44" r="4" stroke="rgb(255,0,165)" stroke-width="2" fill="none"></circle>
<circle cx="6867.8" cy="1909.09" r="4" stroke="rgb(255,0,165)" stroke-width="2" fill="none"></circle>
<circle cx="1899.49" cy="1634.98" r="4" stroke="rgb(255,0,169)" stroke-width="2" fill="none"></circle>
<circle cx="5771.92" cy="1370.12" r="4" stroke="rgb(255,0,169)" stroke-width="2" fill="none"></circle>
<circle cx="2326.5" cy="1656.42" r="4" stroke="rgb(0,131,255)" stroke-width="2" fill="none"></circle>
<circle cx="5888.78" cy="1700.14" r="4" stroke="rgb(0,131,255)" stroke-width="2" fill="none"></circle>
<circle cx="1989.09" cy="1712.44" r="4" stroke="rgb(255,191,0)" stroke-width="2" fill="none"></circle>
<circle cx="5896.02" cy="1518.13" r="4" stroke="rgb(255,191,0)" stroke-width="2" fill="none"></circle>
<circle cx="2150.02" cy="1741.03" r="4" stroke="rgb(255,110,0)" stroke-width="2" fill="none"></circle>
<circle cx="5676.27" cy="1394.97" r="4" stroke="rgb(255,110,0)" stroke-width="2" fill="none"></circle>
<circle cx="2006.1" cy="1828.76" r="4" stroke="rgb(110,0,255)" stroke-width="2" fill="none"></circle>
<circle cx="6464.32" cy="2652.57" r="4" stroke="rgb(110,0,255)" stroke-width="2" fill="none"></circle>
<circle cx="1560.03" cy="1838.74" r="4" stroke="rgb(0,237,255)" stroke-width="2" fill="none"></circle>
<circle cx="6647.08" cy="1510.67" r="4" stroke="rgb(0,237,255)" stroke-width="2" fill="none"></circle>
<circle cx="2087.87" cy="1844.95" r="4" stroke="rgb(0,255,93)" stroke-width="2" fill="none"></circle>
<circle cx="5685.16" cy="1365.93" r="4" stroke="rgb(0,255,93)" stroke-width="2" fill="none"></circle>
<circle cx="2008.22" cy="1870.92" r="4" stroke="rgb(255,63,0)" stroke-width="2" fill="none"></circle>
<circle cx="7021.03" cy="2278.4" r="4" stroke="rgb(255,63,0)" stroke-width="2" fill="none"></circle>
<circle cx="1222.11" cy="1882.72" r="4" stroke="rgb(21,255,0)" stroke-width="2" fill="none"></circle>
<circle cx="6990.23" cy="2268.26" r="4" stroke="rgb(21,255,0)" stroke-width="2" fill="none"></circle>
<circle cx="2205.5" cy="1883.55" r="4" stroke="rgb(255,0,123)" stroke-width="2" fill="none"></circle>
<circle cx="7147.52" cy="2091.59" r="4" stroke="rgb(255,0,123)" stroke-width="2" fill="none"></circle>
<circle cx="1950.37" cy="2035.84" r="4" stroke="rgb(255,110,0)" stroke-width="2" fill="none"></circle>
<circle cx="5742.52" cy="1385.67" r="4" stroke="rgb(255,110,0)" stroke-width="2" fill="none"></circle>
<circle cx="1934.96" cy="2039.85" r="4" stroke="rgb(0,255,254)" stroke-width="2" fill="none"></circle>
<circle cx="5965.94" cy="1425.87" r="4" stroke="rgb(0,255,254)" stroke-width="2" fill="none"></circle>
<circle cx="909.451" cy="2073.98" r="4" stroke="rgb(0,169,255)" stroke-width="2" fill="none"></circle>
<circle cx="5139.67" cy="2275.75" r="4" stroke="rgb(0,169,255)" stroke-width="2" fill="none"></circle>
<circle cx="1725.89" cy="2076.74" r="4" stroke="rgb(255,38,0)" stroke-width="2" fill="none"></circle>
<circle cx="5108.17" cy="2177.17" r="4" stroke="rgb(255,38,0)" stroke-width="2" fill="none"></circle>
<circle cx="954.307" cy="2083.14" r="4" stroke="rgb(0,12,255)" stroke-width="2" fill="none"></circle>
<circle cx="5433.11" cy="2169" r="4" stroke="rgb(0,12,255)" stroke-width="2" fill="none"></circle>
<circle cx="951.547" cy="2092.99" r="4" stroke="rgb(255,12,0)" stroke-width="2" fill="none"></circle>
<circle cx="4768.64" cy="1869.81" r="4" stroke="rgb(255,12,0)" stroke-width="2" fill="none"></circle>
<circle cx="1006.73" cy="2109.4" r="4" stroke="rgb(0,255,254)" stroke-width="2" fill="none"></circle>
<circle cx="4682.76" cy="2434.08" r="4" stroke="rgb(0,255,254)" stroke-width="2" fill="none"></circle>
<circle cx="1710.62" cy="2176.1" r="4" stroke="rgb(153,0,255)" stroke-width="2" fill="none"></circle>
<circle cx="4342.26" cy="1957.87" r="4" stroke="rgb(153,0,255)" stroke-width="2" fill="none"></circle>
<circle cx="1361.72" cy="2195.82" r="4" stroke="rgb(119,255,0)" stroke-width="2" fill="none"></circle>
<circle cx="5531.81" cy="2358.73" r="4" stroke="rgb(119,255,0)" stroke-width="2" fill="none"></circle>
<circle cx="1618.73" cy="2207.49" r="4" stroke="rgb(0,110,255)" stroke-width="2" fill="none"></circle>
<circle cx="6194.73" cy="1627.27" r="4" stroke="rgb(0,110,255)" stroke-width="2" fill="none"></circle>
</svg>