<?xml version="1.0" standalone="yes"?>
<!-- SVG graphic -->
<svg xmlns='http://www.w3.org/2000/svg' xmlns:xlink='http://www.w3.org/1999/xlink'
width="8064px" height="3024px" preserveAspectRatio="xMinYMin meet" viewBox="0 0 8064 3024" version="1.1">
<image x="0" y="0" width="4032px" height="3024px" opacity="1" xlink:href="/home/jeong/Code/2D-to-3D-Modeling-using-AI/Make3D/Image/20200227_180611.jpg"/>
<image x="4032" y="0" width="4032px" height="3024px" opacity="1" xlink:href="/home/jeong/Code/2D-to-3D-Modeling-using-AI/Make3D/Image/20200227_180648.jpg"/>
<polyline points="919.998,310.773,5846.58,901.772" stroke="rgb(255,25,0)" stroke-width="2" fill="none"></polyline>
<polyline points="1463.59,410.247,6150.64,1239.17" stroke="rgb(255,0,97)" stroke-width="2" fill="none"></polyline>
<polyline points="1241.74,454.656,5380.58,890.209" stroke="rgb(0,221,255)" stroke-width="2" fill="none"></polyline>
<polyline points="1248.15,502.797,5398.15,921.168" stroke="rgb(255,208,0)" stroke-width="2" fill="none"></polyline>
<polyline points="1270.02,509.885,5643.47,1028.79" stroke="rgb(182,255,0)" stroke-width="2" fill="none"></polyline>
<polyline points="1368.42,529.061,5713.85,948.174" stroke="rgb(255,59,0)" stroke-width="2" fill="none"></polyline>
<polyline points="993.112,556.253,5215.91,1048.11" stroke="rgb(255,0,55)" stroke-width="2" fill="none"></polyline>
<polyline points="1906.04,558.794,7118.7,1245.17" stroke="rgb(255,29,0)" stroke-width="2" fill="none"></polyline>
<polyline points="878.906,584.658,5378.95,1223.31" stroke="rgb(0,208,255)" stroke-width="2" fill="none"></polyline>
<polyline points="2073.5,607.683,5424.24,851.142" stroke="rgb(255,0,136)" stroke-width="2" fill="none"></polyline>
<polyline points="1851.65,612.214,5153.94,1124.29" stroke="rgb(0,255,93)" stroke-width="2" fill="none"></polyline>
<polyline points="1130.88,621.936,6951.12,1826.94" stroke="rgb(255,46,0)" stroke-width="2" fill="none"></polyline>
<polyline points="2094.46,647.638,7287.02,1082.99" stroke="rgb(38,0,255)" stroke-width="2" fill="none"></polyline>
<polyline points="1124.24,660.865,5342.38,1056.43" stroke="rgb(255,0,72)" stroke-width="2" fill="none"></polyline>
<polyline points="1950.59,675.699,5601.22,1193.55" stroke="rgb(29,0,255)" stroke-width="2" fill="none"></polyline>
<polyline points="2025.15,715.42,5310.34,1022.32" stroke="rgb(225,255,0)" stroke-width="2" fill="none"></polyline>
<polyline points="1455.9,719.193,5436.07,856.192" stroke="rgb(0,255,178)" stroke-width="2" fill="none"></polyline>
<polyline points="1043.97,724.772,5399.3,1206.49" stroke="rgb(114,255,0)" stroke-width="2" fill="none"></polyline>
<polyline points="2300.92,726.742,5530.71,1961.62" stroke="rgb(255,17,0)" stroke-width="2" fill="none"></polyline>
<polyline points="1794.24,728.072,5520.71,999.764" stroke="rgb(255,0,161)" stroke-width="2" fill="none"></polyline>
<polyline points="1451.87,733.617,5767.04,978.425" stroke="rgb(255,229,0)" stroke-width="2" fill="none"></polyline>
<polyline points="1950.24,761.437,6462.58,1202.13" stroke="rgb(255,0,169)" stroke-width="2" fill="none"></polyline>
<polyline points="1355.48,783.492,5546.09,1008.55" stroke="rgb(165,255,0)" stroke-width="2" fill="none"></polyline>
<polyline points="1415.96,804.929,5766.94,1043.49" stroke="rgb(153,255,0)" stroke-width="2" fill="none"></polyline>
<polyline points="1410.56,817.635,5725.04,1054.33" stroke="rgb(178,255,0)" stroke-width="2" fill="none"></polyline>
<polyline points="749.673,818.299,6776.3,1287.9" stroke="rgb(12,255,0)" stroke-width="2" fill="none"></polyline>
<polyline points="1488.99,840.475,5647.02,929.97" stroke="rgb(0,33,255)" stroke-width="2" fill="none"></polyline>
<polyline points="850.035,852.893,5922.12,1008.97" stroke="rgb(0,114,255)" stroke-width="2" fill="none"></polyline>
<polyline points="2388.36,868.051,6530.67,1515.76" stroke="rgb(0,255,135)" stroke-width="2" fill="none"></polyline>
<polyline points="1319.33,897.424,5972.32,1686.4" stroke="rgb(255,0,101)" stroke-width="2" fill="none"></polyline>
<polyline points="1065.11,906.193,5557.28,1369.74" stroke="rgb(0,80,255)" stroke-width="2" fill="none"></polyline>
<polyline points="1518.7,914.852,5417.13,934.806" stroke="rgb(0,255,161)" stroke-width="2" fill="none"></polyline>
<polyline points="1923.32,921.476,6331.55,1046.71" stroke="rgb(255,0,195)" stroke-width="2" fill="none"></polyline>
<polyline points="2228.1,935.831,6455.95,1879.71" stroke="rgb(174,0,255)" stroke-width="2" fill="none"></polyline>
<polyline points="2047.37,944.337,7029.93,1381.61" stroke="rgb(174,255,0)" stroke-width="2" fill="none"></polyline>
<polyline points="2160.35,955.176,6277.88,983.218" stroke="rgb(255,131,0)" stroke-width="2" fill="none"></polyline>
<polyline points="1951.71,957.687,5840.34,1022.8" stroke="rgb(0,255,199)" stroke-width="2" fill="none"></polyline>
<polyline points="2173.81,962.747,6457,1889.63" stroke="rgb(225,255,0)" stroke-width="2" fill="none"></polyline>
<polyline points="1949.54,968.887,7047.19,1285.61" stroke="rgb(127,0,255)" stroke-width="2" fill="none"></polyline>
<polyline points="1954.61,980.2,6259.36,925.07" stroke="rgb(255,0,8)" stroke-width="2" fill="none"></polyline>
<polyline points="1240.39,988.045,5330.16,1172.88" stroke="rgb(114,0,255)" stroke-width="2" fill="none"></polyline>
<polyline points="2409.76,1004.02,6265.05,872.042" stroke="rgb(255,225,0)" stroke-width="2" fill="none"></polyline>
<polyline points="1917.22,1069.08,7007.77,1275.66" stroke="rgb(8,0,255)" stroke-width="2" fill="none"></polyline>
<polyline points="2496.12,1085.8,7029.7,1368.93" stroke="rgb(255,119,0)" stroke-width="2" fill="none"></polyline>
<polyline points="1108.08,1133.1,6876,1190.77" stroke="rgb(118,0,255)" stroke-width="2" fill="none"></polyline>
<polyline points="2240.96,1148.45,5320.47,1171.54" stroke="rgb(0,255,38)" stroke-width="2" fill="none"></polyline>
<polyline points="1622.5,1206.01,5845.06,1046.27" stroke="rgb(106,255,0)" stroke-width="2" fill="none"></polyline>
<polyline points="1962.59,1213.63,6888.74,1985.59" stroke="rgb(212,255,0)" stroke-width="2" fill="none"></polyline>
<polyline points="1620.09,1214.42,5847.02,1054.78" stroke="rgb(106,255,0)" stroke-width="2" fill="none"></polyline>
<polyline points="1680.4,1221.37,5904.54,1038.13" stroke="rgb(255,0,119)" stroke-width="2" fill="none"></polyline>
<polyline points="1917.6,1223.33,6487.85,1886.06" stroke="rgb(102,0,255)" stroke-width="2" fill="none"></polyline>
<polyline points="1640.09,1225.21,5868.4,1049.38" stroke="rgb(0,255,123)" stroke-width="2" fill="none"></polyline>
<polyline points="1633.31,1232.87,5868.22,1062.41" stroke="rgb(0,255,186)" stroke-width="2" fill="none"></polyline>
<polyline points="1617.18,1239.43,5855.86,1078.09" stroke="rgb(255,0,63)" stroke-width="2" fill="none"></polyline>
<polyline points="1631.57,1241.22,5925.81,1091.49" stroke="rgb(59,255,0)" stroke-width="2" fill="none"></polyline>
<polyline points="2164.83,1243.07,6329.92,799.839" stroke="rgb(12,0,255)" stroke-width="2" fill="none"></polyline>
<polyline points="2232.13,1278.84,6250.33,954.01" stroke="rgb(255,0,110)" stroke-width="2" fill="none"></polyline>
<polyline points="2259.04,1339.41,5295.98,1491.53" stroke="rgb(255,0,93)" stroke-width="2" fill="none"></polyline>
<polyline points="1948.81,1361.98,6355.91,1026.86" stroke="rgb(255,0,136)" stroke-width="2" fill="none"></polyline>
<polyline points="2353.24,1362.66,6349.13,950.256" stroke="rgb(0,255,25)" stroke-width="2" fill="none"></polyline>
<polyline points="2476.2,1367.73,6774.49,893.646" stroke="rgb(255,0,191)" stroke-width="2" fill="none"></polyline>
<polyline points="1972.15,1374.71,6711.35,1457.42" stroke="rgb(250,255,0)" stroke-width="2" fill="none"></polyline>
<polyline points="1981.6,1380.36,6322.57,1027.14" stroke="rgb(0,255,157)" stroke-width="2" fill="none"></polyline>
<polyline points="1962.42,1401.64,6475.04,1182.77" stroke="rgb(0,255,89)" stroke-width="2" fill="none"></polyline>
<polyline points="1979.01,1415,6390.14,1014.05" stroke="rgb(255,0,76)" stroke-width="2" fill="none"></polyline>
<polyline points="1999.62,1419.42,6496.45,1189.68" stroke="rgb(51,255,0)" stroke-width="2" fill="none"></polyline>
<polyline points="2025.83,1429.57,6416.28,1103.96" stroke="rgb(255,187,0)" stroke-width="2" fill="none"></polyline>
<polyline points="2160.17,1431.06,6881.92,1785.9" stroke="rgb(255,89,0)" stroke-width="2" fill="none"></polyline>
<polyline points="2643.3,1436.42,6803.11,1469.9" stroke="rgb(0,255,233)" stroke-width="2" fill="none"></polyline>
<polyline points="1997.9,1440.14,6423.99,1112.85" stroke="rgb(255,0,191)" stroke-width="2" fill="none"></polyline>
<polyline points="2022.97,1444.06,6445.24,1075.19" stroke="rgb(255,85,0)" stroke-width="2" fill="none"></polyline>
<polyline points="2011.85,1456.21,6644.95,1211.4" stroke="rgb(255,0,191)" stroke-width="2" fill="none"></polyline>
<polyline points="2023.67,1459.67,6491.47,1201.7" stroke="rgb(0,0,255)" stroke-width="2" fill="none"></polyline>
<polyline points="2292.25,1501.36,6602.22,945.793" stroke="rgb(93,0,255)" stroke-width="2" fill="none"></polyline>
<polyline points="2326.17,1538.68,6665.65,976.435" stroke="rgb(255,0,72)" stroke-width="2" fill="none"></polyline>
<polyline points="1975.25,1544.14,6249.9,988.163" stroke="rgb(0,255,118)" stroke-width="2" fill="none"></polyline>
<polyline points="1978.31,1547.15,6249.9,988.163" stroke="rgb(97,0,255)" stroke-width="2" fill="none"></polyline>
<polyline points="2076.02,1588.58,6578.72,1175.38" stroke="rgb(255,0,208)" stroke-width="2" fill="none"></polyline>
<polyline points="2423.59,1592.05,6768.36,870.549" stroke="rgb(123,255,0)" stroke-width="2" fill="none"></polyline>
<polyline points="2453.93,1593.33,6439.01,790.008" stroke="rgb(255,0,8)" stroke-width="2" fill="none"></polyline>
<polyline points="2050.84,1605.45,6652.73,1406.37" stroke="rgb(182,0,255)" stroke-width="2" fill="none"></polyline>
<polyline points="2052.21,1632.74,6728.49,1425.87" stroke="rgb(0,55,255)" stroke-width="2" fill="none"></polyline>
<polyline points="2048.34,1645.07,6382.6,1056.19" stroke="rgb(255,85,0)" stroke-width="2" fill="none"></polyline>
<polyline points="2034.86,1646.96,6791.61,1449.41" stroke="rgb(255,0,174)" stroke-width="2" fill="none"></polyline>
<polyline points="2604.72,1671.14,7155.88,1177.03" stroke="rgb(0,114,255)" stroke-width="2" fill="none"></polyline>
<polyline points="2302.83,1677.01,6688.25,1403.01" stroke="rgb(0,255,25)" stroke-width="2" fill="none"></polyline>
<polyline points="2206.51,1684.79,6731.81,1489.33" stroke="rgb(0,161,255)" stroke-width="2" fill="none"></polyline>
<polyline points="2304.93,1692.87,6740.66,1109.72" stroke="rgb(0,225,255)" stroke-width="2" fill="none"></polyline>
<polyline points="2068.53,1701.16,6610.79,1320.29" stroke="rgb(67,255,0)" stroke-width="2" fill="none"></polyline>
<polyline points="1636.04,1706.14,5955.14,1175.97" stroke="rgb(0,255,216)" stroke-width="2" fill="none"></polyline>
<polyline points="2081.24,1730.74,6702.44,1403.06" stroke="rgb(0,229,255)" stroke-width="2" fill="none"></polyline>
<polyline points="2097.37,1737.35,6491.22,1133.01" stroke="rgb(216,0,255)" stroke-width="2" fill="none"></polyline>
<polyline points="2042.61,1747.83,6654.78,1356.62" stroke="rgb(67,255,0)" stroke-width="2" fill="none"></polyline>
<polyline points="2131.84,1757.28,6750.88,1401.11" stroke="rgb(255,0,72)" stroke-width="2" fill="none"></polyline>
<polyline points="1749.74,1767.89,6094.83,1181.63" stroke="rgb(255,0,237)" stroke-width="2" fill="none"></polyline>
<polyline points="1757.42,1775.41,6029.58,1207.74" stroke="rgb(140,255,0)" stroke-width="2" fill="none"></polyline>
<polyline points="2055.92,1776.81,6677.41,1391.94" stroke="rgb(255,0,157)" stroke-width="2" fill="none"></polyline>
<polyline points="1644.18,1777.19,5996.27,1220.18" stroke="rgb(255,0,46)" stroke-width="2" fill="none"></polyline>
<polyline points="2212.94,1799.77,6694.49,1080.32" stroke="rgb(51,255,0)" stroke-width="2" fill="none"></polyline>
<polyline points="2130.21,1801.25,6511.76,1172.17" stroke="rgb(255,46,0)" stroke-width="2" fill="none"></polyline>
<polyline points="1797.93,1807.97,6165.54,1200.12" stroke="rgb(0,255,237)" stroke-width="2" fill="none"></polyline>
<polyline points="2000.16,1811.65,6700.13,1936.8" stroke="rgb(255,0,0)" stroke-width="2" fill="none"></polyline>
<polyline points="2469.15,1812.3,7142.41,1410.22" stroke="rgb(255,0,144)" stroke-width="2" fill="none"></polyline>
<polyline points="2259,1829.34,6155.35,1021.7" stroke="rgb(255,238,0)" stroke-width="2" fill="none"></polyline>
<polyline points="2460.03,1829.8,7151.64,1434.92" stroke="rgb(93,0,255)" stroke-width="2" fill="none"></polyline>
<polyline points="2187.39,1829.83,6647.3,1248.71" stroke="rgb(0,250,255)" stroke-width="2" fill="none"></polyline>
<polyline points="2115.17,1840.94,6825.59,1947.28" stroke="rgb(187,255,0)" stroke-width="2" fill="none"></polyline>
<polyline points="2140.86,1847.95,6539.16,1131.05" stroke="rgb(255,161,0)" stroke-width="2" fill="none"></polyline>
<polyline points="2054.92,1882.11,6510.5,1255.53" stroke="rgb(255,17,0)" stroke-width="2" fill="none"></polyline>
<polyline points="2205.5,1883.55,6739.75,1293.23" stroke="rgb(255,165,0)" stroke-width="2" fill="none"></polyline>
<polyline points="2011.08,1884.09,6475.24,1280.41" stroke="rgb(255,153,0)" stroke-width="2" fill="none"></polyline>
<polyline points="1575.74,1901.84,6160.68,1259.9" stroke="rgb(0,255,165)" stroke-width="2" fill="none"></polyline>
<polyline points="2020.14,1908.35,6509.54,1315.52" stroke="rgb(114,0,255)" stroke-width="2" fill="none"></polyline>
<polyline points="2529.64,1929.33,6798.88,1409.14" stroke="rgb(255,238,0)" stroke-width="2" fill="none"></polyline>
<polyline points="2542.28,1931.09,7392.21,1645.48" stroke="rgb(4,255,0)" stroke-width="2" fill="none"></polyline>
<polyline points="1990.23,1938.99,6568.12,1946.34" stroke="rgb(255,0,33)" stroke-width="2" fill="none"></polyline>
<polyline points="2492.22,1966.59,6548.69,1224.52" stroke="rgb(255,229,0)" stroke-width="2" fill="none"></polyline>
<polyline points="2497.43,1972.71,6541.91,1253.82" stroke="rgb(255,0,165)" stroke-width="2" fill="none"></polyline>
<polyline points="2471.17,1974.2,7263.06,1573.8" stroke="rgb(255,216,0)" stroke-width="2" fill="none"></polyline>
<polyline points="2496.69,1984.14,6709.64,1286.55" stroke="rgb(0,255,165)" stroke-width="2" fill="none"></polyline>
<polyline points="2479.1,2003.25,6596.96,1201.32" stroke="rgb(255,17,0)" stroke-width="2" fill="none"></polyline>
<polyline points="2511.18,2003.64,7329.49,1566.75" stroke="rgb(0,12,255)" stroke-width="2" fill="none"></polyline>
<polyline points="2458.99,2012.17,6666.12,1327.27" stroke="rgb(255,0,161)" stroke-width="2" fill="none"></polyline>
<polyline points="1770.62,2019.13,6612.24,1857.44" stroke="rgb(46,255,0)" stroke-width="2" fill="none"></polyline>
<polyline points="2469.33,2029.75,6704.94,1387.63" stroke="rgb(119,255,0)" stroke-width="2" fill="none"></polyline>
<polyline points="2475.35,2030.37,6689.29,1411.19" stroke="rgb(114,0,255)" stroke-width="2" fill="none"></polyline>
<polyline points="2499.72,2032.15,6387.66,1077.31" stroke="rgb(221,255,0)" stroke-width="2" fill="none"></polyline>
<polyline points="2447.71,2037.8,6317.42,958.536" stroke="rgb(255,238,0)" stroke-width="2" fill="none"></polyline>
<polyline points="2524.36,2045.81,6754.5,1802.16" stroke="rgb(0,255,33)" stroke-width="2" fill="none"></polyline>
<polyline points="1599.63,2059.48,6086.68,1501.64" stroke="rgb(255,204,0)" stroke-width="2" fill="none"></polyline>
<polyline points="2036.49,2060.8,6349.16,1882.17" stroke="rgb(225,255,0)" stroke-width="2" fill="none"></polyline>
<polyline points="896.764,2067.9,5356.44,1737.63" stroke="rgb(255,0,237)" stroke-width="2" fill="none"></polyline>
<polyline points="948.433,2087.01,6356.1,1592.5" stroke="rgb(255,208,0)" stroke-width="2" fill="none"></polyline>
<polyline points="962.49,2090.29,6356.1,1592.5" stroke="rgb(106,0,255)" stroke-width="2" fill="none"></polyline>
<polyline points="861.708,2091.27,5893.77,750.409" stroke="rgb(0,33,255)" stroke-width="2" fill="none"></polyline>
<polyline points="1025,2134.77,5553.05,1342.07" stroke="rgb(0,242,255)" stroke-width="2" fill="none"></polyline>
<polyline points="1817.72,2156.69,6575.15,1422.31" stroke="rgb(144,255,0)" stroke-width="2" fill="none"></polyline>
<polyline points="1710.62,2176.1,5980.73,1600.65" stroke="rgb(0,255,254)" stroke-width="2" fill="none"></polyline>
<polyline points="1618.73,2207.49,6903.14,1620.43" stroke="rgb(114,255,0)" stroke-width="2" fill="none"></polyline>
<polyline points="978.36,2212.12,5503.55,1388.96" stroke="rgb(123,255,0)" stroke-width="2" fill="none"></polyline>
<polyline points="1257.23,2260.89,6903.14,1620.43" stroke="rgb(0,85,255)" stroke-width="2" fill="none"></polyline>
<polyline points="1149.71,2324.01,6478.9,1581.11" stroke="rgb(0,255,42)" stroke-width="2" fill="none"></polyline>
<circle cx="919.998" cy="310.773" r="4" stroke="rgb(255,25,0)" stroke-width="2" fill="none"></circle>
<circle cx="5846.58" cy="901.772" r="4" stroke="rgb(255,25,0)" stroke-width="2" fill="none"></circle>
<circle cx="1463.59" cy="410.247" r="4" stroke="rgb(255,0,97)" stroke-width="2" fill="none"></circle>
<circle cx="6150.64" cy="1239.17" r="4" stroke="rgb(255,0,97)" stroke-width="2" fill="none"></circle>
<circle cx="1241.74" cy="454.656" r="4" stroke="rgb(0,221,255)" stroke-width="2" fill="none"></circle>
<circle cx="5380.58" cy="890.209" r="4" stroke="rgb(0,221,255)" stroke-width="2" fill="none"></circle>
<circle cx="1248.15" cy="502.797" r="4" stroke="rgb(255,208,0)" stroke-width="2" fill="none"></circle>
<circle cx="5398.15" cy="921.168" r="4" stroke="rgb(255,208,0)" stroke-width="2" fill="none"></circle>
<circle cx="1270.02" cy="509.885" r="4" stroke="rgb(182,255,0)" stroke-width="2" fill="none"></circle>
<circle cx="5643.47" cy="1028.79" r="4" stroke="rgb(182,255,0)" stroke-width="2" fill="none"></circle>
<circle cx="1368.42" cy="529.061" r="4" stroke="rgb(255,59,0)" stroke-width="2" fill="none"></circle>
<circle cx="5713.85" cy="948.174" r="4" stroke="rgb(255,59,0)" stroke-width="2" fill="none"></circle>
<circle cx="993.112" cy="556.253" r="4" stroke="rgb(255,0,55)" stroke-width="2" fill="none"></circle>
<circle cx="5215.91" cy="1048.11" r="4" stroke="rgb(255,0,55)" stroke-width="2" fill="none"></circle>
<circle cx="1906.04" cy="558.794" r="4" stroke="rgb(255,29,0)" stroke-width="2" fill="none"></circle>
<circle cx="7118.7" cy="1245.17" r="4" stroke="rgb(255,29,0)" stroke-width="2" fill="none"></circle>
<circle cx="878.906" cy="584.658" r="4" stroke="rgb(0,208,255)" stroke-width="2" fill="none"></circle>
<circle cx="5378.95" cy="1223.31" r="4" stroke="rgb(0,208,255)" stroke-width="2" fill="none"></circle>
<circle cx="2073.5" cy="607.683" r="4" stroke="rgb(255,0,136)" stroke-width="2" fill="none"></circle>
<circle cx="5424.24" cy="851.142" r="4" stroke="rgb(255,0,136)" stroke-width="2" fill="none"></circle>
<circle cx="1851.65" cy="612.214" r="4" stroke="rgb(0,255,93)" stroke-width="2" fill="none"></circle>
<circle cx="5153.94" cy="1124.29" r="4" stroke="rgb(0,255,93)" stroke-width="2" fill="none"></circle>
<circle cx="1130.88" cy="621.936" r="4" stroke="rgb(255,46,0)" stroke-width="2" fill="none"></circle>
<circle cx="6951.12" cy="1826.94" r="4" stroke="rgb(255,46,0)" stroke-width="2" fill="none"></circle>
<circle cx="2094.46" cy="647.638" r="4" stroke="rgb(38,0,255)" stroke-width="2" fill="none"></circle>
<circle cx="7287.02" cy="1082.99" r="4" stroke="rgb(38,0,255)" stroke-width="2" fill="none"></circle>
<circle cx="1124.24" cy="660.865" r="4" stroke="rgb(255,0,72)" stroke-width="2" fill="none"></circle>
<circle cx="5342.38" cy="1056.43" r="4" stroke="rgb(255,0,72)" stroke-width="2" fill="none"></circle>
<circle cx="1950.59" cy="675.699" r="4" stroke="rgb(29,0,255)" stroke-width="2" fill="none"></circle>
<circle cx="5601.22" cy="1193.55" r="4" stroke="rgb(29,0,255)" stroke-width="2" fill="none"></circle>
<circle cx="2025.15" cy="715.42" r="4" stroke="rgb(225,255,0)" stroke-width="2" fill="none"></circle>
<circle cx="5310.34" cy="1022.32" r="4" stroke="rgb(225,255,0)" stroke-width="2" fill="none"></circle>
<circle cx="1455.9" cy="719.193" r="4" stroke="rgb(0,255,178)" stroke-width="2" fill="none"></circle>
<circle cx="5436.07" cy="856.192" r="4" stroke="rgb(0,255,178)" stroke-width="2" fill="none"></circle>
<circle cx="1043.97" cy="724.772" r="4" stroke="rgb(114,255,0)" stroke-width="2" fill="none"></circle>
<circle cx="5399.3" cy="1206.49" r="4" stroke="rgb(114,255,0)" stroke-width="2" fill="none"></circle>
<circle cx="2300.92" cy="726.742" r="4" stroke="rgb(255,17,0)" stroke-width="2" fill="none"></circle>
<circle cx="5530.71" cy="1961.62" r="4" stroke="rgb(255,17,0)" stroke-width="2" fill="none"></circle>
<circle cx="1794.24" cy="728.072" r="4" stroke="rgb(255,0,161)" stroke-width="2" fill="none"></circle>
<circle cx="5520.71" cy="999.764" r="4" stroke="rgb(255,0,161)" stroke-width="2" fill="none"></circle>
<circle cx="1451.87" cy="733.617" r="4" stroke="rgb(255,229,0)" stroke-width="2" fill="none"></circle>
<circle cx="5767.04" cy="978.425" r="4" stroke="rgb(255,229,0)" stroke-width="2" fill="none"></circle>
<circle cx="1950.24" cy="761.437" r="4" stroke="rgb(255,0,169)" stroke-width="2" fill="none"></circle>
<circle cx="6462.58" cy="1202.13" r="4" stroke="rgb(255,0,169)" stroke-width="2" fill="none"></circle>
<circle cx="1355.48" cy="783.492" r="4" stroke="rgb(165,255,0)" stroke-width="2" fill="none"></circle>
<circle cx="5546.09" cy="1008.55" r="4" stroke="rgb(165,255,0)" stroke-width="2" fill="none"></circle>
<circle cx="1415.96" cy="804.929" r="4" stroke="rgb(153,255,0)" stroke-width="2" fill="none"></circle>
<circle cx="5766.94" cy="1043.49" r="4" stroke="rgb(153,255,0)" stroke-width="2" fill="none"></circle>
<circle cx="1410.56" cy="817.635" r="4" stroke="rgb(178,255,0)" stroke-width="2" fill="none"></circle>
<circle cx="5725.04" cy="1054.33" r="4" stroke="rgb(178,255,0)" stroke-width="2" fill="none"></circle>
<circle cx="749.673" cy="818.299" r="4" stroke="rgb(12,255,0)" stroke-width="2" fill="none"></circle>
<circle cx="6776.3" cy="1287.9" r="4" stroke="rgb(12,255,0)" stroke-width="2" fill="none"></circle>
<circle cx="1488.99" cy="840.475" r="4" stroke="rgb(0,33,255)" stroke-width="2" fill="none"></circle>
<circle cx="5647.02" cy="929.97" r="4" stroke="rgb(0,33,255)" stroke-width="2" fill="none"></circle>
<circle cx="850.035" cy="852.893" r="4" stroke="rgb(0,114,255)" stroke-width="2" fill="none"></circle>
<circle cx="5922.12" cy="1008.97" r="4" stroke="rgb(0,114,255)" stroke-width="2" fill="none"></circle>
<circle cx="2388.36" cy="868.051" r="4" stroke="rgb(0,255,135)" stroke-width="2" fill="none"></circle>
<circle cx="6530.67" cy="1515.76" r="4" stroke="rgb(0,255,135)" stroke-width="2" fill="none"></circle>
<circle cx="1319.33" cy="897.424" r="4" stroke="rgb(255,0,101)" stroke-width="2" fill="none"></circle>
<circle cx="5972.32" cy="1686.4" r="4" stroke="rgb(255,0,101)" stroke-width="2" fill="none"></circle>
<circle cx="1065.11" cy="906.193" r="4" stroke="rgb(0,80,255)" stroke-width="2" fill="none"></circle>
<circle cx="5557.28" cy="1369.74" r="4" stroke="rgb(0,80,255)" stroke-width="2" fill="none"></circle>
<circle cx="1518.7" cy="914.852" r="4" stroke="rgb(0,255,161)" stroke-width="2" fill="none"></circle>
<circle cx="5417.13" cy="934.806" r="4" stroke="rgb(0,255,161)" stroke-width="2" fill="none"></circle>
<circle cx="1923.32" cy="921.476" r="4" stroke="rgb(255,0,195)" stroke-width="2" fill="none"></circle>
<circle cx="6331.55" cy="1046.71" r="4" stroke="rgb(255,0,195)" stroke-width="2" fill="none"></circle>
<circle cx="2228.1" cy="935.831" r="4" stroke="rgb(174,0,255)" stroke-width="2" fill="none"></circle>
<circle cx="6455.95" cy="1879.71" r="4" stroke="rgb(174,0,255)" stroke-width="2" fill="none"></circle>
<circle cx="2047.37" cy="944.337" r="4" stroke="rgb(174,255,0)" stroke-width="2" fill="none"></circle>
<circle cx="7029.93" cy="1381.61" r="4" stroke="rgb(174,255,0)" stroke-width="2" fill="none"></circle>
<circle cx="2160.35" cy="955.176" r="4" stroke="rgb(255,131,0)" stroke-width="2" fill="none"></circle>
<circle cx="6277.88" cy="983.218" r="4" stroke="rgb(255,131,0)" stroke-width="2" fill="none"></circle>
<circle cx="1951.71" cy="957.687" r="4" stroke="rgb(0,255,199)" stroke-width="2" fill="none"></circle>
<circle cx="5840.34" cy="1022.8" r="4" stroke="rgb(0,255,199)" stroke-width="2" fill="none"></circle>
<circle cx="2173.81" cy="962.747" r="4" stroke="rgb(225,255,0)" stroke-width="2" fill="none"></circle>
<circle cx="6457" cy="1889.63" r="4" stroke="rgb(225,255,0)" stroke-width="2" fill="none"></circle>
<circle cx="1949.54" cy="968.887" r="4" stroke="rgb(127,0,255)" stroke-width="2" fill="none"></circle>
<circle cx="7047.19" cy="1285.61" r="4" stroke="rgb(127,0,255)" stroke-width="2" fill="none"></circle>
<circle cx="1954.61" cy="980.2" r="4" stroke="rgb(255,0,8)" stroke-width="2" fill="none"></circle>
<circle cx="6259.36" cy="925.07" r="4" stroke="rgb(255,0,8)" stroke-width="2" fill="none"></circle>
<circle cx="1240.39" cy="988.045" r="4" stroke="rgb(114,0,255)" stroke-width="2" fill="none"></circle>
<circle cx="5330.16" cy="1172.88" r="4" stroke="rgb(114,0,255)" stroke-width="2" fill="none"></circle>
<circle cx="2409.76" cy="1004.02" r="4" stroke="rgb(255,225,0)" stroke-width="2" fill="none"></circle>
<circle cx="6265.05" cy="872.042" r="4" stroke="rgb(255,225,0)" stroke-width="2" fill="none"></circle>
<circle cx="1917.22" cy="1069.08" r="4" stroke="rgb(8,0,255)" stroke-width="2" fill="none"></circle>
<circle cx="7007.77" cy="1275.66" r="4" stroke="rgb(8,0,255)" stroke-width="2" fill="none"></circle>
<circle cx="2496.12" cy="1085.8" r="4" stroke="rgb(255,119,0)" stroke-width="2" fill="none"></circle>
<circle cx="7029.7" cy="1368.93" r="4" stroke="rgb(255,119,0)" stroke-width="2" fill="none"></circle>
<circle cx="1108.08" cy="1133.1" r="4" stroke="rgb(118,0,255)" stroke-width="2" fill="none"></circle>
<circle cx="6876" cy="1190.77" r="4" stroke="rgb(118,0,255)" stroke-width="2" fill="none"></circle>
<circle cx="2240.96" cy="1148.45" r="4" stroke="rgb(0,255,38)" stroke-width="2" fill="none"></circle>
<circle cx="5320.47" cy="1171.54" r="4" stroke="rgb(0,255,38)" stroke-width="2" fill="none"></circle>
<circle cx="1622.5" cy="1206.01" r="4" stroke="rgb(106,255,0)" stroke-width="2" fill="none"></circle>
<circle cx="5845.06" cy="1046.27" r="4" stroke="rgb(106,255,0)" stroke-width="2" fill="none"></circle>
<circle cx="1962.59" cy="1213.63" r="4" stroke="rgb(212,255,0)" stroke-width="2" fill="none"></circle>
<circle cx="6888.74" cy="1985.59" r="4" stroke="rgb(212,255,0)" stroke-width="2" fill="none"></circle>
<circle cx="1620.09" cy="1214.42" r="4" stroke="rgb(106,255,0)" stroke-width="2" fill="none"></circle>
<circle cx="5847.02" cy="1054.78" r="4" stroke="rgb(106,255,0)" stroke-width="2" fill="none"></circle>
<circle cx="1680.4" cy="1221.37" r="4" stroke="rgb(255,0,119)" stroke-width="2" fill="none"></circle>
<circle cx="5904.54" cy="1038.13" r="4" stroke="rgb(255,0,119)" stroke-width="2" fill="none"></circle>
<circle cx="1917.6" cy="1223.33" r="4" stroke="rgb(102,0,255)" stroke-width="2" fill="none"></circle>
<circle cx="6487.85" cy="1886.06" r="4" stroke="rgb(102,0,255)" stroke-width="2" fill="none"></circle>
<circle cx="1640.09" cy="1225.21" r="4" stroke="rgb(0,255,123)" stroke-width="2" fill="none"></circle>
<circle cx="5868.4" cy="1049.38" r="4" stroke="rgb(0,255,123)" stroke-width="2" fill="none"></circle>
<circle cx="1633.31" cy="1232.87" r="4" stroke="rgb(0,255,186)" stroke-width="2" fill="none"></circle>
<circle cx="5868.22" cy="1062.41" r="4" stroke="rgb(0,255,186)" stroke-width="2" fill="none"></circle>
<circle cx="1617.18" cy="1239.43" r="4" stroke="rgb(255,0,63)" stroke-width="2" fill="none"></circle>
<circle cx="5855.86" cy="1078.09" r="4" stroke="rgb(255,0,63)" stroke-width="2" fill="none"></circle>
<circle cx="1631.57" cy="1241.22" r="4" stroke="rgb(59,255,0)" stroke-width="2" fill="none"></circle>
<circle cx="5925.81" cy="1091.49" r="4" stroke="rgb(59,255,0)" stroke-width="2" fill="none"></circle>
<circle cx="2164.83" cy="1243.07" r="4" stroke="rgb(12,0,255)" stroke-width="2" fill="none"></circle>
<circle cx="6329.92" cy="799.839" r="4" stroke="rgb(12,0,255)" stroke-width="2" fill="none"></circle>
<circle cx="2232.13" cy="1278.84" r="4" stroke="rgb(255,0,110)" stroke-width="2" fill="none"></circle>
<circle cx="6250.33" cy="954.01" r="4" stroke="rgb(255,0,110)" stroke-width="2" fill="none"></circle>
<circle cx="2259.04" cy="1339.41" r="4" stroke="rgb(255,0,93)" stroke-width="2" fill="none"></circle>
<circle cx="5295.98" cy="1491.53" r="4" stroke="rgb(255,0,93)" stroke-width="2" fill="none"></circle>
<circle cx="1948.81" cy="1361.98" r="4" stroke="rgb(255,0,136)" stroke-width="2" fill="none"></circle>
<circle cx="6355.91" cy="1026.86" r="4" stroke="rgb(255,0,136)" stroke-width="2" fill="none"></circle>
<circle cx="2353.24" cy="1362.66" r="4" stroke="rgb(0,255,25)" stroke-width="2" fill="none"></circle>
<circle cx="6349.13" cy="950.256" r="4" stroke="rgb(0,255,25)" stroke-width="2" fill="none"></circle>
<circle cx="2476.2" cy="1367.73" r="4" stroke="rgb(255,0,191)" stroke-width="2" fill="none"></circle>
<circle cx="6774.49" cy="893.646" r="4" stroke="rgb(255,0,191)" stroke-width="2" fill="none"></circle>
<circle cx="1972.15" cy="1374.71" r="4" stroke="rgb(250,255,0)" stroke-width="2" fill="none"></circle>
<circle cx="6711.35" cy="1457.42" r="4" stroke="rgb(250,255,0)" stroke-width="2" fill="none"></circle>
<circle cx="1981.6" cy="1380.36" r="4" stroke="rgb(0,255,157)" stroke-width="2" fill="none"></circle>
<circle cx="6322.57" cy="1027.14" r="4" stroke="rgb(0,255,157)" stroke-width="2" fill="none"></circle>
<circle cx="1962.42" cy="1401.64" r="4" stroke="rgb(0,255,89)" stroke-width="2" fill="none"></circle>
<circle cx="6475.04" cy="1182.77" r="4" stroke="rgb(0,255,89)" stroke-width="2" fill="none"></circle>
<circle cx="1979.01" cy="1415" r="4" stroke="rgb(255,0,76)" stroke-width="2" fill="none"></circle>
<circle cx="6390.14" cy="1014.05" r="4" stroke="rgb(255,0,76)" stroke-width="2" fill="none"></circle>
<circle cx="1999.62" cy="1419.42" r="4" stroke="rgb(51,255,0)" stroke-width="2" fill="none"></circle>
<circle cx="6496.45" cy="1189.68" r="4" stroke="rgb(51,255,0)" stroke-width="2" fill="none"></circle>
<circle cx="2025.83" cy="1429.57" r="4" stroke="rgb(255,187,0)" stroke-width="2" fill="none"></circle>
<circle cx="6416.28" cy="1103.96" r="4" stroke="rgb(255,187,0)" stroke-width="2" fill="none"></circle>
<circle cx="2160.17" cy="1431.06" r="4" stroke="rgb(255,89,0)" stroke-width="2" fill="none"></circle>
<circle cx="6881.92" cy="1785.9" r="4" stroke="rgb(255,89,0)" stroke-width="2" fill="none"></circle>
<circle cx="2643.3" cy="1436.42" r="4" stroke="rgb(0,255,233)" stroke-width="2" fill="none"></circle>
<circle cx="6803.11" cy="1469.9" r="4" stroke="rgb(0,255,233)" stroke-width="2" fill="none"></circle>
<circle cx="1997.9" cy="1440.14" r="4" stroke="rgb(255,0,191)" stroke-width="2" fill="none"></circle>
<circle cx="6423.99" cy="1112.85" r="4" stroke="rgb(255,0,191)" stroke-width="2" fill="none"></circle>
<circle cx="2022.97" cy="1444.06" r="4" stroke="rgb(255,85,0)" stroke-width="2" fill="none"></circle>
<circle cx="6445.24" cy="1075.19" r="4" stroke="rgb(255,85,0)" stroke-width="2" fill="none"></circle>
<circle cx="2011.85" cy="1456.21" r="4" stroke="rgb(255,0,191)" stroke-width="2" fill="none"></circle>
<circle cx="6644.95" cy="1211.4" r="4" stroke="rgb(255,0,191)" stroke-width="2" fill="none"></circle>
<circle cx="2023.67" cy="1459.67" r="4" stroke="rgb(0,0,255)" stroke-width="2" fill="none"></circle>
<circle cx="6491.47" cy="1201.7" r="4" stroke="rgb(0,0,255)" stroke-width="2" fill="none"></circle>
<circle cx="2292.25" cy="1501.36" r="4" stroke="rgb(93,0,255)" stroke-width="2" fill="none"></circle>
<circle cx="6602.22" cy="945.793" r="4" stroke="rgb(93,0,255)" stroke-width="2" fill="none"></circle>
<circle cx="2326.17" cy="1538.68" r="4" stroke="rgb(255,0,72)" stroke-width="2" fill="none"></circle>
<circle cx="6665.65" cy="976.435" r="4" stroke="rgb(255,0,72)" stroke-width="2" fill="none"></circle>
<circle cx="1975.25" cy="1544.14" r="4" stroke="rgb(0,255,118)" stroke-width="2" fill="none"></circle>
<circle cx="6249.9" cy="988.163" r="4" stroke="rgb(0,255,118)" stroke-width="2" fill="none"></circle>
<circle cx="1978.31" cy="1547.15" r="4" stroke="rgb(97,0,255)" stroke-width="2" fill="none"></circle>
<circle cx="6249.9" cy="988.163" r="4" stroke="rgb(97,0,255)" stroke-width="2" fill="none"></circle>
<circle cx="2076.02" cy="1588.58" r="4" stroke="rgb(255,0,208)" stroke-width="2" fill="none"></circle>
<circle cx="6578.72" cy="1175.38" r="4" stroke="rgb(255,0,208)" stroke-width="2" fill="none"></circle>
<circle cx="2423.59" cy="1592.05" r="4" stroke="rgb(123,255,0)" stroke-width="2" fill="none"></circle>
<circle cx="6768.36" cy="870.549" r="4" stroke="rgb(123,255,0)" stroke-width="2" fill="none"></circle>
<circle cx="2453.93" cy="1593.33" r="4" stroke="rgb(255,0,8)" stroke-width="2" fill="none"></circle>
<circle cx="6439.01" cy="790.008" r="4" stroke="rgb(255,0,8)" stroke-width="2" fill="none"></circle>
<circle cx="2050.84" cy="1605.45" r="4" stroke="rgb(182,0,255)" stroke-width="2" fill="none"></circle>
<circle cx="6652.73" cy="1406.37" r="4" stroke="rgb(182,0,255)" stroke-width="2" fill="none"></circle>
<circle cx="2052.21" cy="1632.74" r="4" stroke="rgb(0,55,255)" stroke-width="2" fill="none"></circle>
<circle cx="6728.49" cy="1425.87" r="4" stroke="rgb(0,55,255)" stroke-width="2" fill="none"></circle>
<circle cx="2048.34" cy="1645.07" r="4" stroke="rgb(255,85,0)" stroke-width="2" fill="none"></circle>
<circle cx="6382.6" cy="1056.19" r="4" stroke="rgb(255,85,0)" stroke-width="2" fill="none"></circle>
<circle cx="2034.86" cy="1646.96" r="4" stroke="rgb(255,0,174)" stroke-width="2" fill="none"></circle>
<circle cx="6791.61" cy="1449.41" r="4" stroke="rgb(255,0,174)" stroke-width="2" fill="none"></circle>
<circle cx="2604.72" cy="1671.14" r="4" stroke="rgb(0,114,255)" stroke-width="2" fill="none"></circle>
<circle cx="7155.88" cy="1177.03" r="4" stroke="rgb(0,114,255)" stroke-width="2" fill="none"></circle>
<circle cx="2302.83" cy="1677.01" r="4" stroke="rgb(0,255,25)" stroke-width="2" fill="none"></circle>
<circle cx="6688.25" cy="1403.01" r="4" stroke="rgb(0,255,25)" stroke-width="2" fill="none"></circle>
<circle cx="2206.51" cy="1684.79" r="4" stroke="rgb(0,161,255)" stroke-width="2" fill="none"></circle>
<circle cx="6731.81" cy="1489.33" r="4" stroke="rgb(0,161,255)" stroke-width="2" fill="none"></circle>
<circle cx="2304.93" cy="1692.87" r="4" stroke="rgb(0,225,255)" stroke-width="2" fill="none"></circle>
<circle cx="6740.66" cy="1109.72" r="4" stroke="rgb(0,225,255)" stroke-width="2" fill="none"></circle>
<circle cx="2068.53" cy="1701.16" r="4" stroke="rgb(67,255,0)" stroke-width="2" fill="none"></circle>
<circle cx="6610.79" cy="1320.29" r="4" stroke="rgb(67,255,0)" stroke-width="2" fill="none"></circle>
<circle cx="1636.04" cy="1706.14" r="4" stroke="rgb(0,255,216)" stroke-width="2" fill="none"></circle>
<circle cx="5955.14" cy="1175.97" r="4" stroke="rgb(0,255,216)" stroke-width="2" fill="none"></circle>
<circle cx="2081.24" cy="1730.74" r="4" stroke="rgb(0,229,255)" stroke-width="2" fill="none"></circle>
<circle cx="6702.44" cy="1403.06" r="4" stroke="rgb(0,229,255)" stroke-width="2" fill="none"></circle>
<circle cx="2097.37" cy="1737.35" r="4" stroke="rgb(216,0,255)" stroke-width="2" fill="none"></circle>
<circle cx="6491.22" cy="1133.01" r="4" stroke="rgb(216,0,255)" stroke-width="2" fill="none"></circle>
<circle cx="2042.61" cy="1747.83" r="4" stroke="rgb(67,255,0)" stroke-width="2" fill="none"></circle>
<circle cx="6654.78" cy="1356.62" r="4" stroke="rgb(67,255,0)" stroke-width="2" fill="none"></circle>
<circle cx="2131.84" cy="1757.28" r="4" stroke="rgb(255,0,72)" stroke-width="2" fill="none"></circle>
<circle cx="6750.88" cy="1401.11" r="4" stroke="rgb(255,0,72)" stroke-width="2" fill="none"></circle>
<circle cx="1749.74" cy="1767.89" r="4" stroke="rgb(255,0,237)" stroke-width="2" fill="none"></circle>
<circle cx="6094.83" cy="1181.63" r="4" stroke="rgb(255,0,237)" stroke-width="2" fill="none"></circle>
<circle cx="1757.42" cy="1775.41" r="4" stroke="rgb(140,255,0)" stroke-width="2" fill="none"></circle>
<circle cx="6029.58" cy="1207.74" r="4" stroke="rgb(140,255,0)" stroke-width="2" fill="none"></circle>
<circle cx="2055.92" cy="1776.81" r="4" stroke="rgb(255,0,157)" stroke-width="2" fill="none"></circle>
<circle cx="6677.41" cy="1391.94" r="4" stroke="rgb(255,0,157)" stroke-width="2" fill="none"></circle>
<circle cx="1644.18" cy="1777.19" r="4" stroke="rgb(255,0,46)" stroke-width="2" fill="none"></circle>
<circle cx="5996.27" cy="1220.18" r="4" stroke="rgb(255,0,46)" stroke-width="2" fill="none"></circle>
<circle cx="2212.94" cy="1799.77" r="4" stroke="rgb(51,255,0)" stroke-width="2" fill="none"></circle>
<circle cx="6694.49" cy="1080.32" r="4" stroke="rgb(51,255,0)" stroke-width="2" fill="none"></circle>
<circle cx="2130.21" cy="1801.25" r="4" stroke="rgb(255,46,0)" stroke-width="2" fill="none"></circle>
<circle cx="6511.76" cy="1172.17" r="4" stroke="rgb(255,46,0)" stroke-width="2" fill="none"></circle>
<circle cx="1797.93" cy="1807.97" r="4" stroke="rgb(0,255,237)" stroke-width="2" fill="none"></circle>
<circle cx="6165.54" cy="1200.12" r="4" stroke="rgb(0,255,237)" stroke-width="2" fill="none"></circle>
<circle cx="2000.16" cy="1811.65" r="4" stroke="rgb(255,0,0)" stroke-width="2" fill="none"></circle>
<circle cx="6700.13" cy="1936.8" r="4" stroke="rgb(255,0,0)" stroke-width="2" fill="none"></circle>
<circle cx="2469.15" cy="1812.3" r="4" stroke="rgb(255,0,144)" stroke-width="2" fill="none"></circle>
<circle cx="7142.41" cy="1410.22" r="4" stroke="rgb(255,0,144)" stroke-width="2" fill="none"></circle>
<circle cx="2259" cy="1829.34" r="4" stroke="rgb(255,238,0)" stroke-width="2" fill="none"></circle>
<circle cx="6155.35" cy="1021.7" r="4" stroke="rgb(255,238,0)" stroke-width="2" fill="none"></circle>
<circle cx="2460.03" cy="1829.8" r="4" stroke="rgb(93,0,255)" stroke-width="2" fill="none"></circle>
<circle cx="7151.64" cy="1434.92" r="4" stroke="rgb(93,0,255)" stroke-width="2" fill="none"></circle>
<circle cx="2187.39" cy="1829.83" r="4" stroke="rgb(0,250,255)" stroke-width="2" fill="none"></circle>
<circle cx="6647.3" cy="1248.71" r="4" stroke="rgb(0,250,255)" stroke-width="2" fill="none"></circle>
<circle cx="2115.17" cy="1840.94" r="4" stroke="rgb(187,255,0)" stroke-width="2" fill="none"></circle>
<circle cx="6825.59" cy="1947.28" r="4" stroke="rgb(187,255,0)" stroke-width="2" fill="none"></circle>
<circle cx="2140.86" cy="1847.95" r="4" stroke="rgb(255,161,0)" stroke-width="2" fill="none"></circle>
<circle cx="6539.16" cy="1131.05" r="4" stroke="rgb(255,161,0)" stroke-width="2" fill="none"></circle>
<circle cx="2054.92" cy="1882.11" r="4" stroke="rgb(255,17,0)" stroke-width="2" fill="none"></circle>
<circle cx="6510.5" cy="1255.53" r="4" stroke="rgb(255,17,0)" stroke-width="2" fill="none"></circle>
<circle cx="2205.5" cy="1883.55" r="4" stroke="rgb(255,165,0)" stroke-width="2" fill="none"></circle>
<circle cx="6739.75" cy="1293.23" r="4" stroke="rgb(255,165,0)" stroke-width="2" fill="none"></circle>
<circle cx="2011.08" cy="1884.09" r="4" stroke="rgb(255,153,0)" stroke-width="2" fill="none"></circle>
<circle cx="6475.24" cy="1280.41" r="4" stroke="rgb(255,153,0)" stroke-width="2" fill="none"></circle>
<circle cx="1575.74" cy="1901.84" r="4" stroke="rgb(0,255,165)" stroke-width="2" fill="none"></circle>
<circle cx="6160.68" cy="1259.9" r="4" stroke="rgb(0,255,165)" stroke-width="2" fill="none"></circle>
<circle cx="2020.14" cy="1908.35" r="4" stroke="rgb(114,0,255)" stroke-width="2" fill="none"></circle>
<circle cx="6509.54" cy="1315.52" r="4" stroke="rgb(114,0,255)" stroke-width="2" fill="none"></circle>
<circle cx="2529.64" cy="1929.33" r="4" stroke="rgb(255,238,0)" stroke-width="2" fill="none"></circle>
<circle cx="6798.88" cy="1409.14" r="4" stroke="rgb(255,238,0)" stroke-width="2" fill="none"></circle>
<circle cx="2542.28" cy="1931.09" r="4" stroke="rgb(4,255,0)" stroke-width="2" fill="none"></circle>
<circle cx="7392.21" cy="1645.48" r="4" stroke="rgb(4,255,0)" stroke-width="2" fill="none"></circle>
<circle cx="1990.23" cy="1938.99" r="4" stroke="rgb(255,0,33)" stroke-width="2" fill="none"></circle>
<circle cx="6568.12" cy="1946.34" r="4" stroke="rgb(255,0,33)" stroke-width="2" fill="none"></circle>
<circle cx="2492.22" cy="1966.59" r="4" stroke="rgb(255,229,0)" stroke-width="2" fill="none"></circle>
<circle cx="6548.69" cy="1224.52" r="4" stroke="rgb(255,229,0)" stroke-width="2" fill="none"></circle>
<circle cx="2497.43" cy="1972.71" r="4" stroke="rgb(255,0,165)" stroke-width="2" fill="none"></circle>
<circle cx="6541.91" cy="1253.82" r="4" stroke="rgb(255,0,165)" stroke-width="2" fill="none"></circle>
<circle cx="2471.17" cy="1974.2" r="4" stroke="rgb(255,216,0)" stroke-width="2" fill="none"></circle>
<circle cx="7263.06" cy="1573.8" r="4" stroke="rgb(255,216,0)" stroke-width="2" fill="none"></circle>
<circle cx="2496.69" cy="1984.14" r="4" stroke="rgb(0,255,165)" stroke-width="2" fill="none"></circle>
<circle cx="6709.64" cy="1286.55" r="4" stroke="rgb(0,255,165)" stroke-width="2" fill="none"></circle>
<circle cx="2479.1" cy="2003.25" r="4" stroke="rgb(255,17,0)" stroke-width="2" fill="none"></circle>
<circle cx="6596.96" cy="1201.32" r="4" stroke="rgb(255,17,0)" stroke-width="2" fill="none"></circle>
<circle cx="2511.18" cy="2003.64" r="4" stroke="rgb(0,12,255)" stroke-width="2" fill="none"></circle>
<circle cx="7329.49" cy="1566.75" r="4" stroke="rgb(0,12,255)" stroke-width="2" fill="none"></circle>
<circle cx="2458.99" cy="2012.17" r="4" stroke="rgb(255,0,161)" stroke-width="2" fill="none"></circle>
<circle cx="6666.12" cy="1327.27" r="4" stroke="rgb(255,0,161)" stroke-width="2" fill="none"></circle>
<circle cx="1770.62" cy="2019.13" r="4" stroke="rgb(46,255,0)" stroke-width="2" fill="none"></circle>
<circle cx="6612.24" cy="1857.44" r="4" stroke="rgb(46,255,0)" stroke-width="2" fill="none"></circle>
<circle cx="2469.33" cy="2029.75" r="4" stroke="rgb(119,255,0)" stroke-width="2" fill="none"></circle>
<circle cx="6704.94" cy="1387.63" r="4" stroke="rgb(119,255,0)" stroke-width="2" fill="none"></circle>
<circle cx="2475.35" cy="2030.37" r="4" stroke="rgb(114,0,255)" stroke-width="2" fill="none"></circle>
<circle cx="6689.29" cy="1411.19" r="4" stroke="rgb(114,0,255)" stroke-width="2" fill="none"></circle>
<circle cx="2499.72" cy="2032.15" r="4" stroke="rgb(221,255,0)" stroke-width="2" fill="none"></circle>
<circle cx="6387.66" cy="1077.31" r="4" stroke="rgb(221,255,0)" stroke-width="2" fill="none"></circle>
<circle cx="2447.71" cy="2037.8" r="4" stroke="rgb(255,238,0)" stroke-width="2" fill="none"></circle>
<circle cx="6317.42" cy="958.536" r="4" stroke="rgb(255,238,0)" stroke-width="2" fill="none"></circle>
<circle cx="2524.36" cy="2045.81" r="4" stroke="rgb(0,255,33)" stroke-width="2" fill="none"></circle>
<circle cx="6754.5" cy="1802.16" r="4" stroke="rgb(0,255,33)" stroke-width="2" fill="none"></circle>
<circle cx="1599.63" cy="2059.48" r="4" stroke="rgb(255,204,0)" stroke-width="2" fill="none"></circle>
<circle cx="6086.68" cy="1501.64" r="4" stroke="rgb(255,204,0)" stroke-width="2" fill="none"></circle>
<circle cx="2036.49" cy="2060.8" r="4" stroke="rgb(225,255,0)" stroke-width="2" fill="none"></circle>
<circle cx="6349.16" cy="1882.17" r="4" stroke="rgb(225,255,0)" stroke-width="2" fill="none"></circle>
<circle cx="896.764" cy="2067.9" r="4" stroke="rgb(255,0,237)" stroke-width="2" fill="none"></circle>
<circle cx="5356.44" cy="1737.63" r="4" stroke="rgb(255,0,237)" stroke-width="2" fill="none"></circle>
<circle cx="948.433" cy="2087.01" r="4" stroke="rgb(255,208,0)" stroke-width="2" fill="none"></circle>
<circle cx="6356.1" cy="1592.5" r="4" stroke="rgb(255,208,0)" stroke-width="2" fill="none"></circle>
<circle cx="962.49" cy="2090.29" r="4" stroke="rgb(106,0,255)" stroke-width="2" fill="none"></circle>
<circle cx="6356.1" cy="1592.5" r="4" stroke="rgb(106,0,255)" stroke-width="2" fill="none"></circle>
<circle cx="861.708" cy="2091.27" r="4" stroke="rgb(0,33,255)" stroke-width="2" fill="none"></circle>
<circle cx="5893.77" cy="750.409" r="4" stroke="rgb(0,33,255)" stroke-width="2" fill="none"></circle>
<circle cx="1025" cy="2134.77" r="4" stroke="rgb(0,242,255)" stroke-width="2" fill="none"></circle>
<circle cx="5553.05" cy="1342.07" r="4" stroke="rgb(0,242,255)" stroke-width="2" fill="none"></circle>
<circle cx="1817.72" cy="2156.69" r="4" stroke="rgb(144,255,0)" stroke-width="2" fill="none"></circle>
<circle cx="6575.15" cy="1422.31" r="4" stroke="rgb(144,255,0)" stroke-width="2" fill="none"></circle>
<circle cx="1710.62" cy="2176.1" r="4" stroke="rgb(0,255,254)" stroke-width="2" fill="none"></circle>
<circle cx="5980.73" cy="1600.65" r="4" stroke="rgb(0,255,254)" stroke-width="2" fill="none"></circle>
<circle cx="1618.73" cy="2207.49" r="4" stroke="rgb(114,255,0)" stroke-width="2" fill="none"></circle>
<circle cx="6903.14" cy="1620.43" r="4" stroke="rgb(114,255,0)" stroke-width="2" fill="none"></circle>
<circle cx="978.36" cy="2212.12" r="4" stroke="rgb(123,255,0)" stroke-width="2" fill="none"></circle>
<circle cx="5503.55" cy="1388.96" r="4" stroke="rgb(123,255,0)" stroke-width="2" fill="none"></circle>
<circle cx="1257.23" cy="2260.89" r="4" stroke="rgb(0,85,255)" stroke-width="2" fill="none"></circle>
<circle cx="6903.14" cy="1620.43" r="4" stroke="rgb(0,85,255)" stroke-width="2" fill="none"></circle>
<circle cx="1149.71" cy="2324.01" r="4" stroke="rgb(0,255,42)" stroke-width="2" fill="none"></circle>
<circle cx="6478.9" cy="1581.11" r="4" stroke="rgb(0,255,42)" stroke-width="2" fill="none"></circle>
</svg>