<?xml version="1.0" standalone="yes"?>
<!-- SVG graphic -->
<svg xmlns='http://www.w3.org/2000/svg' xmlns:xlink='http://www.w3.org/1999/xlink'
width="8064px" height="3024px" preserveAspectRatio="xMinYMin meet" viewBox="0 0 8064 3024" version="1.1">
<image x="0" y="0" width="4032px" height="3024px" opacity="1" xlink:href="/home/jeong/Code/2D-to-3D-Modeling-using-AI/Make3D/Image/20200227_180638.jpg"/>
<image x="4032" y="0" width="4032px" height="3024px" opacity="1" xlink:href="/home/jeong/Code/2D-to-3D-Modeling-using-AI/Make3D/Image/20200227_180650.jpg"/>
<polyline points="2050.03,940.149,5692.12,1398.5" stroke="rgb(0,255,246)" stroke-width="2" fill="none"></polyline>
<polyline points="1902.34,940.942,6241.99,1643.17" stroke="rgb(0,148,255)" stroke-width="2" fill="none"></polyline>
<polyline points="1901.58,949.589,6743.26,1591.21" stroke="rgb(255,42,0)" stroke-width="2" fill="none"></polyline>
<polyline points="275.023,958.728,5021.9,1399" stroke="rgb(255,0,68)" stroke-width="2" fill="none"></polyline>
<polyline points="1858.69,962.38,7116.89,1664.63" stroke="rgb(0,255,42)" stroke-width="2" fill="none"></polyline>
<polyline points="1897.86,963.455,6538.74,1687.54" stroke="rgb(38,255,0)" stroke-width="2" fill="none"></polyline>
<polyline points="2002.33,976.8,6967.63,1806.3" stroke="rgb(255,21,0)" stroke-width="2" fill="none"></polyline>
<polyline points="1625.71,999.702,6700.35,851.086" stroke="rgb(0,255,29)" stroke-width="2" fill="none"></polyline>
<polyline points="2189.76,1021.73,6670.3,1699.11" stroke="rgb(0,255,55)" stroke-width="2" fill="none"></polyline>
<polyline points="1228.65,1023.55,6130.42,1746.33" stroke="rgb(25,0,255)" stroke-width="2" fill="none"></polyline>
<polyline points="1413.89,1037.86,6542.79,1662.97" stroke="rgb(29,0,255)" stroke-width="2" fill="none"></polyline>
<polyline points="1052.65,1051.2,6593.55,1371.37" stroke="rgb(255,93,0)" stroke-width="2" fill="none"></polyline>
<polyline points="1436.46,1062.3,6476.73,1786.68" stroke="rgb(0,140,255)" stroke-width="2" fill="none"></polyline>
<polyline points="1153.46,1062.94,6610.58,723.254" stroke="rgb(233,255,0)" stroke-width="2" fill="none"></polyline>
<polyline points="1351.01,1066.05,6702.34,1505.59" stroke="rgb(255,182,0)" stroke-width="2" fill="none"></polyline>
<polyline points="1391.57,1070.05,6620.75,1466.3" stroke="rgb(255,102,0)" stroke-width="2" fill="none"></polyline>
<polyline points="1094.36,1071.89,6885.45,1436.27" stroke="rgb(80,255,0)" stroke-width="2" fill="none"></polyline>
<polyline points="1420.57,1083.06,6481.8,1383.76" stroke="rgb(0,255,195)" stroke-width="2" fill="none"></polyline>
<polyline points="1217.48,1096.43,6371.58,1821.66" stroke="rgb(67,0,255)" stroke-width="2" fill="none"></polyline>
<polyline points="2385.85,1111.84,6585.18,1563.19" stroke="rgb(0,255,242)" stroke-width="2" fill="none"></polyline>
<polyline points="1334.19,1112.9,6813.79,897.311" stroke="rgb(0,255,169)" stroke-width="2" fill="none"></polyline>
<polyline points="2289.65,1117.63,7104.09,1695.56" stroke="rgb(0,42,255)" stroke-width="2" fill="none"></polyline>
<polyline points="1520.24,1118.04,6151.78,1408.13" stroke="rgb(127,0,255)" stroke-width="2" fill="none"></polyline>
<polyline points="1659.9,1118.05,6542.69,1725.35" stroke="rgb(255,72,0)" stroke-width="2" fill="none"></polyline>
<polyline points="1620.38,1123.57,6685.16,792.093" stroke="rgb(0,255,199)" stroke-width="2" fill="none"></polyline>
<polyline points="2332.99,1133.41,6537.3,1533.92" stroke="rgb(0,93,255)" stroke-width="2" fill="none"></polyline>
<polyline points="2509.8,1135.4,6823.79,837.883" stroke="rgb(255,199,0)" stroke-width="2" fill="none"></polyline>
<polyline points="1370.18,1136.02,6754.56,1743.61" stroke="rgb(255,0,119)" stroke-width="2" fill="none"></polyline>
<polyline points="2347.08,1138.07,7333.75,1648.85" stroke="rgb(255,0,33)" stroke-width="2" fill="none"></polyline>
<polyline points="1160.58,1141.53,5297.53,1342.76" stroke="rgb(0,101,255)" stroke-width="2" fill="none"></polyline>
<polyline points="1572.17,1147.3,6488.85,1489.47" stroke="rgb(0,199,255)" stroke-width="2" fill="none"></polyline>
<polyline points="1859.13,1151.29,5569.22,1543.34" stroke="rgb(0,255,212)" stroke-width="2" fill="none"></polyline>
<polyline points="1364.26,1152.56,7118.61,1584.94" stroke="rgb(225,0,255)" stroke-width="2" fill="none"></polyline>
<polyline points="1840.08,1155.64,6192.58,650.657" stroke="rgb(191,255,0)" stroke-width="2" fill="none"></polyline>
<polyline points="1827.61,1164.19,5180.3,1366.48" stroke="rgb(255,114,0)" stroke-width="2" fill="none"></polyline>
<polyline points="975.823,1169.62,6727.16,782.715" stroke="rgb(242,255,0)" stroke-width="2" fill="none"></polyline>
<polyline points="2578.6,1170.01,6716.11,1750.89" stroke="rgb(0,229,255)" stroke-width="2" fill="none"></polyline>
<polyline points="1422.19,1171.89,7107.2,1626.14" stroke="rgb(255,136,0)" stroke-width="2" fill="none"></polyline>
<polyline points="2332.12,1176.24,7096.01,1579.32" stroke="rgb(246,255,0)" stroke-width="2" fill="none"></polyline>
<polyline points="1325.92,1182.17,7135.98,1567.43" stroke="rgb(0,208,255)" stroke-width="2" fill="none"></polyline>
<polyline points="906.764,1182.53,6190.28,1693.72" stroke="rgb(0,255,127)" stroke-width="2" fill="none"></polyline>
<polyline points="1885.78,1190.96,7164.49,1686.59" stroke="rgb(255,0,216)" stroke-width="2" fill="none"></polyline>
<polyline points="1590.58,1192.26,6852.64,1582.43" stroke="rgb(0,110,255)" stroke-width="2" fill="none"></polyline>
<polyline points="1038.26,1205.4,6465.32,1416.5" stroke="rgb(255,0,12)" stroke-width="2" fill="none"></polyline>
<polyline points="1110.25,1217.51,6351.05,1563.86" stroke="rgb(29,0,255)" stroke-width="2" fill="none"></polyline>
<polyline points="1337.51,1223.41,6176.57,1491.37" stroke="rgb(0,255,38)" stroke-width="2" fill="none"></polyline>
<polyline points="946.844,1224.2,6868.11,1798.8" stroke="rgb(255,89,0)" stroke-width="2" fill="none"></polyline>
<polyline points="1059.8,1225.37,6498.07,1404.07" stroke="rgb(0,85,255)" stroke-width="2" fill="none"></polyline>
<polyline points="1005.98,1231.02,6224.22,1658.23" stroke="rgb(233,0,255)" stroke-width="2" fill="none"></polyline>
<polyline points="1032.91,1241.92,5181.43,1541.64" stroke="rgb(0,255,123)" stroke-width="2" fill="none"></polyline>
<polyline points="967.159,1244.95,6672.98,1675.47" stroke="rgb(255,157,0)" stroke-width="2" fill="none"></polyline>
<polyline points="953.562,1275.51,6508.16,1603.68" stroke="rgb(101,255,0)" stroke-width="2" fill="none"></polyline>
<polyline points="967.982,1287.12,6572.35,1456.93" stroke="rgb(46,0,255)" stroke-width="2" fill="none"></polyline>
<polyline points="928.551,1294.12,6613.11,1504.65" stroke="rgb(0,255,254)" stroke-width="2" fill="none"></polyline>
<polyline points="1686.16,1301.68,6458.88,1376.07" stroke="rgb(255,0,63)" stroke-width="2" fill="none"></polyline>
<polyline points="1283.99,1316.77,7017.24,1448.75" stroke="rgb(212,0,255)" stroke-width="2" fill="none"></polyline>
<polyline points="2106.48,1322.64,6267.77,1772.2" stroke="rgb(255,161,0)" stroke-width="2" fill="none"></polyline>
<polyline points="2454.16,1323.09,7112.05,1544.17" stroke="rgb(255,136,0)" stroke-width="2" fill="none"></polyline>
<polyline points="1041.65,1344.79,6278.67,1708.86" stroke="rgb(93,0,255)" stroke-width="2" fill="none"></polyline>
<polyline points="2532.78,1372.94,6951.01,1420.66" stroke="rgb(255,127,0)" stroke-width="2" fill="none"></polyline>
<polyline points="1447.63,1377.25,6512.84,1433.41" stroke="rgb(0,255,0)" stroke-width="2" fill="none"></polyline>
<polyline points="1100.73,1387.29,6171.15,1761.81" stroke="rgb(255,0,136)" stroke-width="2" fill="none"></polyline>
<polyline points="1441.97,1396.71,6560.45,1761.04" stroke="rgb(203,255,0)" stroke-width="2" fill="none"></polyline>
<polyline points="2776.58,1413.04,6438.67,1559.38" stroke="rgb(255,229,0)" stroke-width="2" fill="none"></polyline>
<polyline points="1913.29,1415.71,6470.72,1431" stroke="rgb(148,0,255)" stroke-width="2" fill="none"></polyline>
<polyline points="1313.27,1420.76,5513.19,1038.99" stroke="rgb(89,255,0)" stroke-width="2" fill="none"></polyline>
<polyline points="2560.27,1424.87,6370.56,1673.55" stroke="rgb(12,255,0)" stroke-width="2" fill="none"></polyline>
<polyline points="1983.52,1427.2,7089.97,1692.12" stroke="rgb(76,255,0)" stroke-width="2" fill="none"></polyline>
<polyline points="1903.73,1434,6645.8,1398.75" stroke="rgb(255,12,0)" stroke-width="2" fill="none"></polyline>
<polyline points="1787.07,1434.2,6940.89,1375.41" stroke="rgb(255,221,0)" stroke-width="2" fill="none"></polyline>
<polyline points="2772.65,1437.58,6532.85,1525.5" stroke="rgb(0,255,191)" stroke-width="2" fill="none"></polyline>
<polyline points="1751.34,1440.04,6667.87,1434.82" stroke="rgb(0,255,140)" stroke-width="2" fill="none"></polyline>
<polyline points="1778.28,1455.38,6470.51,1749.67" stroke="rgb(0,29,255)" stroke-width="2" fill="none"></polyline>
<polyline points="1192.68,1462.58,5718.37,893.528" stroke="rgb(46,0,255)" stroke-width="2" fill="none"></polyline>
<polyline points="918.725,1467.16,6255.69,1673.91" stroke="rgb(255,93,0)" stroke-width="2" fill="none"></polyline>
<polyline points="2591.96,1468.53,5691.71,1046.69" stroke="rgb(0,255,0)" stroke-width="2" fill="none"></polyline>
<polyline points="1993.01,1473.91,6888.81,1524.94" stroke="rgb(255,89,0)" stroke-width="2" fill="none"></polyline>
<polyline points="1451.57,1474.7,6218.05,1341.09" stroke="rgb(255,182,0)" stroke-width="2" fill="none"></polyline>
<polyline points="1806.42,1482.54,6602.73,1590.91" stroke="rgb(255,0,80)" stroke-width="2" fill="none"></polyline>
<polyline points="1106.46,1484.45,5572.9,984.854" stroke="rgb(255,0,187)" stroke-width="2" fill="none"></polyline>
<polyline points="2879.35,1486.12,5384.28,1317.82" stroke="rgb(237,255,0)" stroke-width="2" fill="none"></polyline>
<polyline points="1425.67,1488.11,6153.97,1245.38" stroke="rgb(255,76,0)" stroke-width="2" fill="none"></polyline>
<polyline points="1764.65,1495.56,5949.73,1757.83" stroke="rgb(186,0,255)" stroke-width="2" fill="none"></polyline>
<polyline points="1429.43,1498.51,6871.2,894.222" stroke="rgb(255,0,187)" stroke-width="2" fill="none"></polyline>
<polyline points="847.67,1499.94,6648.72,1806.36" stroke="rgb(212,255,0)" stroke-width="2" fill="none"></polyline>
<polyline points="2725.08,1510.86,5238.86,1673.2" stroke="rgb(123,0,255)" stroke-width="2" fill="none"></polyline>
<polyline points="939.817,1522.79,5226.64,1292.91" stroke="rgb(8,255,0)" stroke-width="2" fill="none"></polyline>
<polyline points="1338.25,1528.96,5801.17,1007.43" stroke="rgb(51,255,0)" stroke-width="2" fill="none"></polyline>
<polyline points="2816.7,1550.6,7100.17,752.526" stroke="rgb(255,0,250)" stroke-width="2" fill="none"></polyline>
<polyline points="1741.16,1551.12,7230.02,1577.9" stroke="rgb(55,0,255)" stroke-width="2" fill="none"></polyline>
<polyline points="630.05,1553.06,5265.34,1608.55" stroke="rgb(0,255,76)" stroke-width="2" fill="none"></polyline>
<polyline points="1030.37,1573.32,6935.19,1777.09" stroke="rgb(246,255,0)" stroke-width="2" fill="none"></polyline>
<polyline points="2041.96,1580.87,6147.91,1442.71" stroke="rgb(114,255,0)" stroke-width="2" fill="none"></polyline>
<polyline points="2157.29,1586.85,6379.55,1486.98" stroke="rgb(0,123,255)" stroke-width="2" fill="none"></polyline>
<polyline points="1005.15,1587.02,6502.67,705.042" stroke="rgb(255,0,51)" stroke-width="2" fill="none"></polyline>
<polyline points="1966.55,1595.16,6534.38,1440.61" stroke="rgb(255,34,0)" stroke-width="2" fill="none"></polyline>
<polyline points="1928.38,1599.26,6442.45,1778.69" stroke="rgb(0,246,255)" stroke-width="2" fill="none"></polyline>
<polyline points="910.635,1605.98,6881.42,1780.75" stroke="rgb(255,0,97)" stroke-width="2" fill="none"></polyline>
<polyline points="1831.15,1616.97,6170.13,1676.03" stroke="rgb(255,0,76)" stroke-width="2" fill="none"></polyline>
<polyline points="2073.11,1632.59,6199.14,1705.56" stroke="rgb(0,229,255)" stroke-width="2" fill="none"></polyline>
<polyline points="2006.1,1646.25,6463.83,1558.6" stroke="rgb(255,123,0)" stroke-width="2" fill="none"></polyline>
<polyline points="2591.15,1653.05,7123.59,740.365" stroke="rgb(0,255,118)" stroke-width="2" fill="none"></polyline>
<polyline points="2002.75,1654.55,6726.96,1859.83" stroke="rgb(0,123,255)" stroke-width="2" fill="none"></polyline>
<polyline points="2079.74,1655.44,6338.25,1774.69" stroke="rgb(0,255,63)" stroke-width="2" fill="none"></polyline>
<polyline points="1859.55,1658.29,6221.6,1441.85" stroke="rgb(131,0,255)" stroke-width="2" fill="none"></polyline>
<polyline points="2210.34,1692.13,6436.79,1463.86" stroke="rgb(0,25,255)" stroke-width="2" fill="none"></polyline>
<polyline points="1961.43,1698.84,6709.64,1617.8" stroke="rgb(63,0,255)" stroke-width="2" fill="none"></polyline>
<polyline points="2083.9,1711.81,6504.54,1756.25" stroke="rgb(221,0,255)" stroke-width="2" fill="none"></polyline>
<polyline points="1781.73,1716.65,7191.05,875.654" stroke="rgb(0,255,123)" stroke-width="2" fill="none"></polyline>
<polyline points="939.679,1724.84,5524.49,1649.89" stroke="rgb(51,255,0)" stroke-width="2" fill="none"></polyline>
<polyline points="1974.6,1728.45,6396.03,1739.8" stroke="rgb(0,255,4)" stroke-width="2" fill="none"></polyline>
<polyline points="1945.79,1745.15,6309.46,1485.82" stroke="rgb(0,110,255)" stroke-width="2" fill="none"></polyline>
<polyline points="1762.02,1747.34,7137.02,1594.46" stroke="rgb(255,0,4)" stroke-width="2" fill="none"></polyline>
<polyline points="1989.87,1747.66,6719.39,1400.43" stroke="rgb(255,191,0)" stroke-width="2" fill="none"></polyline>
<polyline points="797.545,1756.58,6116.1,1642.04" stroke="rgb(255,178,0)" stroke-width="2" fill="none"></polyline>
<polyline points="2090.04,1763.83,7167.14,1362.4" stroke="rgb(216,255,0)" stroke-width="2" fill="none"></polyline>
<polyline points="2119.76,1764.16,5233.99,1586.65" stroke="rgb(255,0,191)" stroke-width="2" fill="none"></polyline>
<polyline points="1944.61,1764.2,6526.23,1460.14" stroke="rgb(0,255,169)" stroke-width="2" fill="none"></polyline>
<polyline points="2059.71,1770.78,6595.02,916.979" stroke="rgb(0,255,246)" stroke-width="2" fill="none"></polyline>
<polyline points="1244.16,1977.76,7079.79,1050.59" stroke="rgb(0,255,33)" stroke-width="2" fill="none"></polyline>
<polyline points="604.151,2033.89,5771.45,1079.37" stroke="rgb(191,0,255)" stroke-width="2" fill="none"></polyline>
<polyline points="1245.11,2083.12,6487.93,954.606" stroke="rgb(255,0,187)" stroke-width="2" fill="none"></polyline>
<polyline points="529.764,2110.81,5830.17,807.66" stroke="rgb(246,255,0)" stroke-width="2" fill="none"></polyline>
<polyline points="1245.41,2128.46,6037.59,778.39" stroke="rgb(255,76,0)" stroke-width="2" fill="none"></polyline>
<polyline points="2776.84,2165.11,6739.79,1803.76" stroke="rgb(255,165,0)" stroke-width="2" fill="none"></polyline>
<polyline points="2609.46,2186.74,7135.98,1567.43" stroke="rgb(255,212,0)" stroke-width="2" fill="none"></polyline>
<polyline points="2713.43,2215.77,6566.19,1468.72" stroke="rgb(255,114,0)" stroke-width="2" fill="none"></polyline>
<polyline points="2767.22,2218.32,6841.57,852.968" stroke="rgb(0,76,255)" stroke-width="2" fill="none"></polyline>
<polyline points="2529.91,2228.45,6512.18,674.202" stroke="rgb(255,119,0)" stroke-width="2" fill="none"></polyline>
<polyline points="2528.06,2237.49,6361.89,645.197" stroke="rgb(255,38,0)" stroke-width="2" fill="none"></polyline>
<polyline points="2587.61,2242.27,6348.13,1663.79" stroke="rgb(170,0,255)" stroke-width="2" fill="none"></polyline>
<polyline points="2746.94,2242.67,6772.8,1659.42" stroke="rgb(208,0,255)" stroke-width="2" fill="none"></polyline>
<polyline points="2538.17,2243.74,6351.82,1611.02" stroke="rgb(255,123,0)" stroke-width="2" fill="none"></polyline>
<polyline points="2574.5,2244.82,6351.82,1611.02" stroke="rgb(0,255,46)" stroke-width="2" fill="none"></polyline>
<polyline points="2580.96,2245.92,6647.86,1860.77" stroke="rgb(237,255,0)" stroke-width="2" fill="none"></polyline>
<polyline points="2544.4,2258.98,6413.7,637.992" stroke="rgb(255,0,250)" stroke-width="2" fill="none"></polyline>
<polyline points="2656.82,2264.59,6828.99,872.482" stroke="rgb(255,21,0)" stroke-width="2" fill="none"></polyline>
<polyline points="2541.25,2268.54,6170.97,1440.88" stroke="rgb(0,203,255)" stroke-width="2" fill="none"></polyline>
<polyline points="2647.47,2274.15,7201.78,1505.15" stroke="rgb(0,29,255)" stroke-width="2" fill="none"></polyline>
<polyline points="2553.37,2277.43,6428.48,671.093" stroke="rgb(0,255,148)" stroke-width="2" fill="none"></polyline>
<polyline points="2554.53,2283.63,6477.56,684.757" stroke="rgb(254,0,255)" stroke-width="2" fill="none"></polyline>
<polyline points="2610.37,2307.59,6845.68,1437.93" stroke="rgb(0,59,255)" stroke-width="2" fill="none"></polyline>
<polyline points="2706.97,2313.04,6809.54,818.459" stroke="rgb(4,0,255)" stroke-width="2" fill="none"></polyline>
<polyline points="1096.54,2388.25,6997.15,1318.88" stroke="rgb(250,0,255)" stroke-width="2" fill="none"></polyline>
<polyline points="1170.28,2420.23,5453.05,1201.12" stroke="rgb(135,0,255)" stroke-width="2" fill="none"></polyline>
<polyline points="2154.94,2423.78,7571.99,1146.77" stroke="rgb(0,255,148)" stroke-width="2" fill="none"></polyline>
<polyline points="1122.78,2462.37,5456.16,1331.26" stroke="rgb(4,0,255)" stroke-width="2" fill="none"></polyline>
<polyline points="2053.11,2484.15,6683.77,934.25" stroke="rgb(89,255,0)" stroke-width="2" fill="none"></polyline>
<polyline points="1240.32,2615.2,5501.77,1294.02" stroke="rgb(0,225,255)" stroke-width="2" fill="none"></polyline>
<polyline points="1252,2634.02,5627.27,1174.86" stroke="rgb(255,250,0)" stroke-width="2" fill="none"></polyline>
<polyline points="1512.75,2740.64,6751.03,1837.8" stroke="rgb(89,255,0)" stroke-width="2" fill="none"></polyline>
<circle cx="2050.03" cy="940.149" r="4" stroke="rgb(0,255,246)" stroke-width="2" fill="none"></circle>
<circle cx="5692.12" cy="1398.5" r="4" stroke="rgb(0,255,246)" stroke-width="2" fill="none"></circle>
<circle cx="1902.34" cy="940.942" r="4" stroke="rgb(0,148,255)" stroke-width="2" fill="none"></circle>
<circle cx="6241.99" cy="1643.17" r="4" stroke="rgb(0,148,255)" stroke-width="2" fill="none"></circle>
<circle cx="1901.58" cy="949.589" r="4" stroke="rgb(255,42,0)" stroke-width="2" fill="none"></circle>
<circle cx="6743.26" cy="1591.21" r="4" stroke="rgb(255,42,0)" stroke-width="2" fill="none"></circle>
<circle cx="275.023" cy="958.728" r="4" stroke="rgb(255,0,68)" stroke-width="2" fill="none"></circle>
<circle cx="5021.9" cy="1399" r="4" stroke="rgb(255,0,68)" stroke-width="2" fill="none"></circle>
<circle cx="1858.69" cy="962.38" r="4" stroke="rgb(0,255,42)" stroke-width="2" fill="none"></circle>
<circle cx="7116.89" cy="1664.63" r="4" stroke="rgb(0,255,42)" stroke-width="2" fill="none"></circle>
<circle cx="1897.86" cy="963.455" r="4" stroke="rgb(38,255,0)" stroke-width="2" fill="none"></circle>
<circle cx="6538.74" cy="1687.54" r="4" stroke="rgb(38,255,0)" stroke-width="2" fill="none"></circle>
<circle cx="2002.33" cy="976.8" r="4" stroke="rgb(255,21,0)" stroke-width="2" fill="none"></circle>
<circle cx="6967.63" cy="1806.3" r="4" stroke="rgb(255,21,0)" stroke-width="2" fill="none"></circle>
<circle cx="1625.71" cy="999.702" r="4" stroke="rgb(0,255,29)" stroke-width="2" fill="none"></circle>
<circle cx="6700.35" cy="851.086" r="4" stroke="rgb(0,255,29)" stroke-width="2" fill="none"></circle>
<circle cx="2189.76" cy="1021.73" r="4" stroke="rgb(0,255,55)" stroke-width="2" fill="none"></circle>
<circle cx="6670.3" cy="1699.11" r="4" stroke="rgb(0,255,55)" stroke-width="2" fill="none"></circle>
<circle cx="1228.65" cy="1023.55" r="4" stroke="rgb(25,0,255)" stroke-width="2" fill="none"></circle>
<circle cx="6130.42" cy="1746.33" r="4" stroke="rgb(25,0,255)" stroke-width="2" fill="none"></circle>
<circle cx="1413.89" cy="1037.86" r="4" stroke="rgb(29,0,255)" stroke-width="2" fill="none"></circle>
<circle cx="6542.79" cy="1662.97" r="4" stroke="rgb(29,0,255)" stroke-width="2" fill="none"></circle>
<circle cx="1052.65" cy="1051.2" r="4" stroke="rgb(255,93,0)" stroke-width="2" fill="none"></circle>
<circle cx="6593.55" cy="1371.37" r="4" stroke="rgb(255,93,0)" stroke-width="2" fill="none"></circle>
<circle cx="1436.46" cy="1062.3" r="4" stroke="rgb(0,140,255)" stroke-width="2" fill="none"></circle>
<circle cx="6476.73" cy="1786.68" r="4" stroke="rgb(0,140,255)" stroke-width="2" fill="none"></circle>
<circle cx="1153.46" cy="1062.94" r="4" stroke="rgb(233,255,0)" stroke-width="2" fill="none"></circle>
<circle cx="6610.58" cy="723.254" r="4" stroke="rgb(233,255,0)" stroke-width="2" fill="none"></circle>
<circle cx="1351.01" cy="1066.05" r="4" stroke="rgb(255,182,0)" stroke-width="2" fill="none"></circle>
<circle cx="6702.34" cy="1505.59" r="4" stroke="rgb(255,182,0)" stroke-width="2" fill="none"></circle>
<circle cx="1391.57" cy="1070.05" r="4" stroke="rgb(255,102,0)" stroke-width="2" fill="none"></circle>
<circle cx="6620.75" cy="1466.3" r="4" stroke="rgb(255,102,0)" stroke-width="2" fill="none"></circle>
<circle cx="1094.36" cy="1071.89" r="4" stroke="rgb(80,255,0)" stroke-width="2" fill="none"></circle>
<circle cx="6885.45" cy="1436.27" r="4" stroke="rgb(80,255,0)" stroke-width="2" fill="none"></circle>
<circle cx="1420.57" cy="1083.06" r="4" stroke="rgb(0,255,195)" stroke-width="2" fill="none"></circle>
<circle cx="6481.8" cy="1383.76" r="4" stroke="rgb(0,255,195)" stroke-width="2" fill="none"></circle>
<circle cx="1217.48" cy="1096.43" r="4" stroke="rgb(67,0,255)" stroke-width="2" fill="none"></circle>
<circle cx="6371.58" cy="1821.66" r="4" stroke="rgb(67,0,255)" stroke-width="2" fill="none"></circle>
<circle cx="2385.85" cy="1111.84" r="4" stroke="rgb(0,255,242)" stroke-width="2" fill="none"></circle>
<circle cx="6585.18" cy="1563.19" r="4" stroke="rgb(0,255,242)" stroke-width="2" fill="none"></circle>
<circle cx="1334.19" cy="1112.9" r="4" stroke="rgb(0,255,169)" stroke-width="2" fill="none"></circle>
<circle cx="6813.79" cy="897.311" r="4" stroke="rgb(0,255,169)" stroke-width="2" fill="none"></circle>
<circle cx="2289.65" cy="1117.63" r="4" stroke="rgb(0,42,255)" stroke-width="2" fill="none"></circle>
<circle cx="7104.09" cy="1695.56" r="4" stroke="rgb(0,42,255)" stroke-width="2" fill="none"></circle>
<circle cx="1520.24" cy="1118.04" r="4" stroke="rgb(127,0,255)" stroke-width="2" fill="none"></circle>
<circle cx="6151.78" cy="1408.13" r="4" stroke="rgb(127,0,255)" stroke-width="2" fill="none"></circle>
<circle cx="1659.9" cy="1118.05" r="4" stroke="rgb(255,72,0)" stroke-width="2" fill="none"></circle>
<circle cx="6542.69" cy="1725.35" r="4" stroke="rgb(255,72,0)" stroke-width="2" fill="none"></circle>
<circle cx="1620.38" cy="1123.57" r="4" stroke="rgb(0,255,199)" stroke-width="2" fill="none"></circle>
<circle cx="6685.16" cy="792.093" r="4" stroke="rgb(0,255,199)" stroke-width="2" fill="none"></circle>
<circle cx="2332.99" cy="1133.41" r="4" stroke="rgb(0,93,255)" stroke-width="2" fill="none"></circle>
<circle cx="6537.3" cy="1533.92" r="4" stroke="rgb(0,93,255)" stroke-width="2" fill="none"></circle>
<circle cx="2509.8" cy="1135.4" r="4" stroke="rgb(255,199,0)" stroke-width="2" fill="none"></circle>
<circle cx="6823.79" cy="837.883" r="4" stroke="rgb(255,199,0)" stroke-width="2" fill="none"></circle>
<circle cx="1370.18" cy="1136.02" r="4" stroke="rgb(255,0,119)" stroke-width="2" fill="none"></circle>
<circle cx="6754.56" cy="1743.61" r="4" stroke="rgb(255,0,119)" stroke-width="2" fill="none"></circle>
<circle cx="2347.08" cy="1138.07" r="4" stroke="rgb(255,0,33)" stroke-width="2" fill="none"></circle>
<circle cx="7333.75" cy="1648.85" r="4" stroke="rgb(255,0,33)" stroke-width="2" fill="none"></circle>
<circle cx="1160.58" cy="1141.53" r="4" stroke="rgb(0,101,255)" stroke-width="2" fill="none"></circle>
<circle cx="5297.53" cy="1342.76" r="4" stroke="rgb(0,101,255)" stroke-width="2" fill="none"></circle>
<circle cx="1572.17" cy="1147.3" r="4" stroke="rgb(0,199,255)" stroke-width="2" fill="none"></circle>
<circle cx="6488.85" cy="1489.47" r="4" stroke="rgb(0,199,255)" stroke-width="2" fill="none"></circle>
<circle cx="1859.13" cy="1151.29" r="4" stroke="rgb(0,255,212)" stroke-width="2" fill="none"></circle>
<circle cx="5569.22" cy="1543.34" r="4" stroke="rgb(0,255,212)" stroke-width="2" fill="none"></circle>
<circle cx="1364.26" cy="1152.56" r="4" stroke="rgb(225,0,255)" stroke-width="2" fill="none"></circle>
<circle cx="7118.61" cy="1584.94" r="4" stroke="rgb(225,0,255)" stroke-width="2" fill="none"></circle>
<circle cx="1840.08" cy="1155.64" r="4" stroke="rgb(191,255,0)" stroke-width="2" fill="none"></circle>
<circle cx="6192.58" cy="650.657" r="4" stroke="rgb(191,255,0)" stroke-width="2" fill="none"></circle>
<circle cx="1827.61" cy="1164.19" r="4" stroke="rgb(255,114,0)" stroke-width="2" fill="none"></circle>
<circle cx="5180.3" cy="1366.48" r="4" stroke="rgb(255,114,0)" stroke-width="2" fill="none"></circle>
<circle cx="975.823" cy="1169.62" r="4" stroke="rgb(242,255,0)" stroke-width="2" fill="none"></circle>
<circle cx="6727.16" cy="782.715" r="4" stroke="rgb(242,255,0)" stroke-width="2" fill="none"></circle>
<circle cx="2578.6" cy="1170.01" r="4" stroke="rgb(0,229,255)" stroke-width="2" fill="none"></circle>
<circle cx="6716.11" cy="1750.89" r="4" stroke="rgb(0,229,255)" stroke-width="2" fill="none"></circle>
<circle cx="1422.19" cy="1171.89" r="4" stroke="rgb(255,136,0)" stroke-width="2" fill="none"></circle>
<circle cx="7107.2" cy="1626.14" r="4" stroke="rgb(255,136,0)" stroke-width="2" fill="none"></circle>
<circle cx="2332.12" cy="1176.24" r="4" stroke="rgb(246,255,0)" stroke-width="2" fill="none"></circle>
<circle cx="7096.01" cy="1579.32" r="4" stroke="rgb(246,255,0)" stroke-width="2" fill="none"></circle>
<circle cx="1325.92" cy="1182.17" r="4" stroke="rgb(0,208,255)" stroke-width="2" fill="none"></circle>
<circle cx="7135.98" cy="1567.43" r="4" stroke="rgb(0,208,255)" stroke-width="2" fill="none"></circle>
<circle cx="906.764" cy="1182.53" r="4" stroke="rgb(0,255,127)" stroke-width="2" fill="none"></circle>
<circle cx="6190.28" cy="1693.72" r="4" stroke="rgb(0,255,127)" stroke-width="2" fill="none"></circle>
<circle cx="1885.78" cy="1190.96" r="4" stroke="rgb(255,0,216)" stroke-width="2" fill="none"></circle>
<circle cx="7164.49" cy="1686.59" r="4" stroke="rgb(255,0,216)" stroke-width="2" fill="none"></circle>
<circle cx="1590.58" cy="1192.26" r="4" stroke="rgb(0,110,255)" stroke-width="2" fill="none"></circle>
<circle cx="6852.64" cy="1582.43" r="4" stroke="rgb(0,110,255)" stroke-width="2" fill="none"></circle>
<circle cx="1038.26" cy="1205.4" r="4" stroke="rgb(255,0,12)" stroke-width="2" fill="none"></circle>
<circle cx="6465.32" cy="1416.5" r="4" stroke="rgb(255,0,12)" stroke-width="2" fill="none"></circle>
<circle cx="1110.25" cy="1217.51" r="4" stroke="rgb(29,0,255)" stroke-width="2" fill="none"></circle>
<circle cx="6351.05" cy="1563.86" r="4" stroke="rgb(29,0,255)" stroke-width="2" fill="none"></circle>
<circle cx="1337.51" cy="1223.41" r="4" stroke="rgb(0,255,38)" stroke-width="2" fill="none"></circle>
<circle cx="6176.57" cy="1491.37" r="4" stroke="rgb(0,255,38)" stroke-width="2" fill="none"></circle>
<circle cx="946.844" cy="1224.2" r="4" stroke="rgb(255,89,0)" stroke-width="2" fill="none"></circle>
<circle cx="6868.11" cy="1798.8" r="4" stroke="rgb(255,89,0)" stroke-width="2" fill="none"></circle>
<circle cx="1059.8" cy="1225.37" r="4" stroke="rgb(0,85,255)" stroke-width="2" fill="none"></circle>
<circle cx="6498.07" cy="1404.07" r="4" stroke="rgb(0,85,255)" stroke-width="2" fill="none"></circle>
<circle cx="1005.98" cy="1231.02" r="4" stroke="rgb(233,0,255)" stroke-width="2" fill="none"></circle>
<circle cx="6224.22" cy="1658.23" r="4" stroke="rgb(233,0,255)" stroke-width="2" fill="none"></circle>
<circle cx="1032.91" cy="1241.92" r="4" stroke="rgb(0,255,123)" stroke-width="2" fill="none"></circle>
<circle cx="5181.43" cy="1541.64" r="4" stroke="rgb(0,255,123)" stroke-width="2" fill="none"></circle>
<circle cx="967.159" cy="1244.95" r="4" stroke="rgb(255,157,0)" stroke-width="2" fill="none"></circle>
<circle cx="6672.98" cy="1675.47" r="4" stroke="rgb(255,157,0)" stroke-width="2" fill="none"></circle>
<circle cx="953.562" cy="1275.51" r="4" stroke="rgb(101,255,0)" stroke-width="2" fill="none"></circle>
<circle cx="6508.16" cy="1603.68" r="4" stroke="rgb(101,255,0)" stroke-width="2" fill="none"></circle>
<circle cx="967.982" cy="1287.12" r="4" stroke="rgb(46,0,255)" stroke-width="2" fill="none"></circle>
<circle cx="6572.35" cy="1456.93" r="4" stroke="rgb(46,0,255)" stroke-width="2" fill="none"></circle>
<circle cx="928.551" cy="1294.12" r="4" stroke="rgb(0,255,254)" stroke-width="2" fill="none"></circle>
<circle cx="6613.11" cy="1504.65" r="4" stroke="rgb(0,255,254)" stroke-width="2" fill="none"></circle>
<circle cx="1686.16" cy="1301.68" r="4" stroke="rgb(255,0,63)" stroke-width="2" fill="none"></circle>
<circle cx="6458.88" cy="1376.07" r="4" stroke="rgb(255,0,63)" stroke-width="2" fill="none"></circle>
<circle cx="1283.99" cy="1316.77" r="4" stroke="rgb(212,0,255)" stroke-width="2" fill="none"></circle>
<circle cx="7017.24" cy="1448.75" r="4" stroke="rgb(212,0,255)" stroke-width="2" fill="none"></circle>
<circle cx="2106.48" cy="1322.64" r="4" stroke="rgb(255,161,0)" stroke-width="2" fill="none"></circle>
<circle cx="6267.77" cy="1772.2" r="4" stroke="rgb(255,161,0)" stroke-width="2" fill="none"></circle>
<circle cx="2454.16" cy="1323.09" r="4" stroke="rgb(255,136,0)" stroke-width="2" fill="none"></circle>
<circle cx="7112.05" cy="1544.17" r="4" stroke="rgb(255,136,0)" stroke-width="2" fill="none"></circle>
<circle cx="1041.65" cy="1344.79" r="4" stroke="rgb(93,0,255)" stroke-width="2" fill="none"></circle>
<circle cx="6278.67" cy="1708.86" r="4" stroke="rgb(93,0,255)" stroke-width="2" fill="none"></circle>
<circle cx="2532.78" cy="1372.94" r="4" stroke="rgb(255,127,0)" stroke-width="2" fill="none"></circle>
<circle cx="6951.01" cy="1420.66" r="4" stroke="rgb(255,127,0)" stroke-width="2" fill="none"></circle>
<circle cx="1447.63" cy="1377.25" r="4" stroke="rgb(0,255,0)" stroke-width="2" fill="none"></circle>
<circle cx="6512.84" cy="1433.41" r="4" stroke="rgb(0,255,0)" stroke-width="2" fill="none"></circle>
<circle cx="1100.73" cy="1387.29" r="4" stroke="rgb(255,0,136)" stroke-width="2" fill="none"></circle>
<circle cx="6171.15" cy="1761.81" r="4" stroke="rgb(255,0,136)" stroke-width="2" fill="none"></circle>
<circle cx="1441.97" cy="1396.71" r="4" stroke="rgb(203,255,0)" stroke-width="2" fill="none"></circle>
<circle cx="6560.45" cy="1761.04" r="4" stroke="rgb(203,255,0)" stroke-width="2" fill="none"></circle>
<circle cx="2776.58" cy="1413.04" r="4" stroke="rgb(255,229,0)" stroke-width="2" fill="none"></circle>
<circle cx="6438.67" cy="1559.38" r="4" stroke="rgb(255,229,0)" stroke-width="2" fill="none"></circle>
<circle cx="1913.29" cy="1415.71" r="4" stroke="rgb(148,0,255)" stroke-width="2" fill="none"></circle>
<circle cx="6470.72" cy="1431" r="4" stroke="rgb(148,0,255)" stroke-width="2" fill="none"></circle>
<circle cx="1313.27" cy="1420.76" r="4" stroke="rgb(89,255,0)" stroke-width="2" fill="none"></circle>
<circle cx="5513.19" cy="1038.99" r="4" stroke="rgb(89,255,0)" stroke-width="2" fill="none"></circle>
<circle cx="2560.27" cy="1424.87" r="4" stroke="rgb(12,255,0)" stroke-width="2" fill="none"></circle>
<circle cx="6370.56" cy="1673.55" r="4" stroke="rgb(12,255,0)" stroke-width="2" fill="none"></circle>
<circle cx="1983.52" cy="1427.2" r="4" stroke="rgb(76,255,0)" stroke-width="2" fill="none"></circle>
<circle cx="7089.97" cy="1692.12" r="4" stroke="rgb(76,255,0)" stroke-width="2" fill="none"></circle>
<circle cx="1903.73" cy="1434" r="4" stroke="rgb(255,12,0)" stroke-width="2" fill="none"></circle>
<circle cx="6645.8" cy="1398.75" r="4" stroke="rgb(255,12,0)" stroke-width="2" fill="none"></circle>
<circle cx="1787.07" cy="1434.2" r="4" stroke="rgb(255,221,0)" stroke-width="2" fill="none"></circle>
<circle cx="6940.89" cy="1375.41" r="4" stroke="rgb(255,221,0)" stroke-width="2" fill="none"></circle>
<circle cx="2772.65" cy="1437.58" r="4" stroke="rgb(0,255,191)" stroke-width="2" fill="none"></circle>
<circle cx="6532.85" cy="1525.5" r="4" stroke="rgb(0,255,191)" stroke-width="2" fill="none"></circle>
<circle cx="1751.34" cy="1440.04" r="4" stroke="rgb(0,255,140)" stroke-width="2" fill="none"></circle>
<circle cx="6667.87" cy="1434.82" r="4" stroke="rgb(0,255,140)" stroke-width="2" fill="none"></circle>
<circle cx="1778.28" cy="1455.38" r="4" stroke="rgb(0,29,255)" stroke-width="2" fill="none"></circle>
<circle cx="6470.51" cy="1749.67" r="4" stroke="rgb(0,29,255)" stroke-width="2" fill="none"></circle>
<circle cx="1192.68" cy="1462.58" r="4" stroke="rgb(46,0,255)" stroke-width="2" fill="none"></circle>
<circle cx="5718.37" cy="893.528" r="4" stroke="rgb(46,0,255)" stroke-width="2" fill="none"></circle>
<circle cx="918.725" cy="1467.16" r="4" stroke="rgb(255,93,0)" stroke-width="2" fill="none"></circle>
<circle cx="6255.69" cy="1673.91" r="4" stroke="rgb(255,93,0)" stroke-width="2" fill="none"></circle>
<circle cx="2591.96" cy="1468.53" r="4" stroke="rgb(0,255,0)" stroke-width="2" fill="none"></circle>
<circle cx="5691.71" cy="1046.69" r="4" stroke="rgb(0,255,0)" stroke-width="2" fill="none"></circle>
<circle cx="1993.01" cy="1473.91" r="4" stroke="rgb(255,89,0)" stroke-width="2" fill="none"></circle>
<circle cx="6888.81" cy="1524.94" r="4" stroke="rgb(255,89,0)" stroke-width="2" fill="none"></circle>
<circle cx="1451.57" cy="1474.7" r="4" stroke="rgb(255,182,0)" stroke-width="2" fill="none"></circle>
<circle cx="6218.05" cy="1341.09" r="4" stroke="rgb(255,182,0)" stroke-width="2" fill="none"></circle>
<circle cx="1806.42" cy="1482.54" r="4" stroke="rgb(255,0,80)" stroke-width="2" fill="none"></circle>
<circle cx="6602.73" cy="1590.91" r="4" stroke="rgb(255,0,80)" stroke-width="2" fill="none"></circle>
<circle cx="1106.46" cy="1484.45" r="4" stroke="rgb(255,0,187)" stroke-width="2" fill="none"></circle>
<circle cx="5572.9" cy="984.854" r="4" stroke="rgb(255,0,187)" stroke-width="2" fill="none"></circle>
<circle cx="2879.35" cy="1486.12" r="4" stroke="rgb(237,255,0)" stroke-width="2" fill="none"></circle>
<circle cx="5384.28" cy="1317.82" r="4" stroke="rgb(237,255,0)" stroke-width="2" fill="none"></circle>
<circle cx="1425.67" cy="1488.11" r="4" stroke="rgb(255,76,0)" stroke-width="2" fill="none"></circle>
<circle cx="6153.97" cy="1245.38" r="4" stroke="rgb(255,76,0)" stroke-width="2" fill="none"></circle>
<circle cx="1764.65" cy="1495.56" r="4" stroke="rgb(186,0,255)" stroke-width="2" fill="none"></circle>
<circle cx="5949.73" cy="1757.83" r="4" stroke="rgb(186,0,255)" stroke-width="2" fill="none"></circle>
<circle cx="1429.43" cy="1498.51" r="4" stroke="rgb(255,0,187)" stroke-width="2" fill="none"></circle>
<circle cx="6871.2" cy="894.222" r="4" stroke="rgb(255,0,187)" stroke-width="2" fill="none"></circle>
<circle cx="847.67" cy="1499.94" r="4" stroke="rgb(212,255,0)" stroke-width="2" fill="none"></circle>
<circle cx="6648.72" cy="1806.36" r="4" stroke="rgb(212,255,0)" stroke-width="2" fill="none"></circle>
<circle cx="2725.08" cy="1510.86" r="4" stroke="rgb(123,0,255)" stroke-width="2" fill="none"></circle>
<circle cx="5238.86" cy="1673.2" r="4" stroke="rgb(123,0,255)" stroke-width="2" fill="none"></circle>
<circle cx="939.817" cy="1522.79" r="4" stroke="rgb(8,255,0)" stroke-width="2" fill="none"></circle>
<circle cx="5226.64" cy="1292.91" r="4" stroke="rgb(8,255,0)" stroke-width="2" fill="none"></circle>
<circle cx="1338.25" cy="1528.96" r="4" stroke="rgb(51,255,0)" stroke-width="2" fill="none"></circle>
<circle cx="5801.17" cy="1007.43" r="4" stroke="rgb(51,255,0)" stroke-width="2" fill="none"></circle>
<circle cx="2816.7" cy="1550.6" r="4" stroke="rgb(255,0,250)" stroke-width="2" fill="none"></circle>
<circle cx="7100.17" cy="752.526" r="4" stroke="rgb(255,0,250)" stroke-width="2" fill="none"></circle>
<circle cx="1741.16" cy="1551.12" r="4" stroke="rgb(55,0,255)" stroke-width="2" fill="none"></circle>
<circle cx="7230.02" cy="1577.9" r="4" stroke="rgb(55,0,255)" stroke-width="2" fill="none"></circle>
<circle cx="630.05" cy="1553.06" r="4" stroke="rgb(0,255,76)" stroke-width="2" fill="none"></circle>
<circle cx="5265.34" cy="1608.55" r="4" stroke="rgb(0,255,76)" stroke-width="2" fill="none"></circle>
<circle cx="1030.37" cy="1573.32" r="4" stroke="rgb(246,255,0)" stroke-width="2" fill="none"></circle>
<circle cx="6935.19" cy="1777.09" r="4" stroke="rgb(246,255,0)" stroke-width="2" fill="none"></circle>
<circle cx="2041.96" cy="1580.87" r="4" stroke="rgb(114,255,0)" stroke-width="2" fill="none"></circle>
<circle cx="6147.91" cy="1442.71" r="4" stroke="rgb(114,255,0)" stroke-width="2" fill="none"></circle>
<circle cx="2157.29" cy="1586.85" r="4" stroke="rgb(0,123,255)" stroke-width="2" fill="none"></circle>
<circle cx="6379.55" cy="1486.98" r="4" stroke="rgb(0,123,255)" stroke-width="2" fill="none"></circle>
<circle cx="1005.15" cy="1587.02" r="4" stroke="rgb(255,0,51)" stroke-width="2" fill="none"></circle>
<circle cx="6502.67" cy="705.042" r="4" stroke="rgb(255,0,51)" stroke-width="2" fill="none"></circle>
<circle cx="1966.55" cy="1595.16" r="4" stroke="rgb(255,34,0)" stroke-width="2" fill="none"></circle>
<circle cx="6534.38" cy="1440.61" r="4" stroke="rgb(255,34,0)" stroke-width="2" fill="none"></circle>
<circle cx="1928.38" cy="1599.26" r="4" stroke="rgb(0,246,255)" stroke-width="2" fill="none"></circle>
<circle cx="6442.45" cy="1778.69" r="4" stroke="rgb(0,246,255)" stroke-width="2" fill="none"></circle>
<circle cx="910.635" cy="1605.98" r="4" stroke="rgb(255,0,97)" stroke-width="2" fill="none"></circle>
<circle cx="6881.42" cy="1780.75" r="4" stroke="rgb(255,0,97)" stroke-width="2" fill="none"></circle>
<circle cx="1831.15" cy="1616.97" r="4" stroke="rgb(255,0,76)" stroke-width="2" fill="none"></circle>
<circle cx="6170.13" cy="1676.03" r="4" stroke="rgb(255,0,76)" stroke-width="2" fill="none"></circle>
<circle cx="2073.11" cy="1632.59" r="4" stroke="rgb(0,229,255)" stroke-width="2" fill="none"></circle>
<circle cx="6199.14" cy="1705.56" r="4" stroke="rgb(0,229,255)" stroke-width="2" fill="none"></circle>
<circle cx="2006.1" cy="1646.25" r="4" stroke="rgb(255,123,0)" stroke-width="2" fill="none"></circle>
<circle cx="6463.83" cy="1558.6" r="4" stroke="rgb(255,123,0)" stroke-width="2" fill="none"></circle>
<circle cx="2591.15" cy="1653.05" r="4" stroke="rgb(0,255,118)" stroke-width="2" fill="none"></circle>
<circle cx="7123.59" cy="740.365" r="4" stroke="rgb(0,255,118)" stroke-width="2" fill="none"></circle>
<circle cx="2002.75" cy="1654.55" r="4" stroke="rgb(0,123,255)" stroke-width="2" fill="none"></circle>
<circle cx="6726.96" cy="1859.83" r="4" stroke="rgb(0,123,255)" stroke-width="2" fill="none"></circle>
<circle cx="2079.74" cy="1655.44" r="4" stroke="rgb(0,255,63)" stroke-width="2" fill="none"></circle>
<circle cx="6338.25" cy="1774.69" r="4" stroke="rgb(0,255,63)" stroke-width="2" fill="none"></circle>
<circle cx="1859.55" cy="1658.29" r="4" stroke="rgb(131,0,255)" stroke-width="2" fill="none"></circle>
<circle cx="6221.6" cy="1441.85" r="4" stroke="rgb(131,0,255)" stroke-width="2" fill="none"></circle>
<circle cx="2210.34" cy="1692.13" r="4" stroke="rgb(0,25,255)" stroke-width="2" fill="none"></circle>
<circle cx="6436.79" cy="1463.86" r="4" stroke="rgb(0,25,255)" stroke-width="2" fill="none"></circle>
<circle cx="1961.43" cy="1698.84" r="4" stroke="rgb(63,0,255)" stroke-width="2" fill="none"></circle>
<circle cx="6709.64" cy="1617.8" r="4" stroke="rgb(63,0,255)" stroke-width="2" fill="none"></circle>
<circle cx="2083.9" cy="1711.81" r="4" stroke="rgb(221,0,255)" stroke-width="2" fill="none"></circle>
<circle cx="6504.54" cy="1756.25" r="4" stroke="rgb(221,0,255)" stroke-width="2" fill="none"></circle>
<circle cx="1781.73" cy="1716.65" r="4" stroke="rgb(0,255,123)" stroke-width="2" fill="none"></circle>
<circle cx="7191.05" cy="875.654" r="4" stroke="rgb(0,255,123)" stroke-width="2" fill="none"></circle>
<circle cx="939.679" cy="1724.84" r="4" stroke="rgb(51,255,0)" stroke-width="2" fill="none"></circle>
<circle cx="5524.49" cy="1649.89" r="4" stroke="rgb(51,255,0)" stroke-width="2" fill="none"></circle>
<circle cx="1974.6" cy="1728.45" r="4" stroke="rgb(0,255,4)" stroke-width="2" fill="none"></circle>
<circle cx="6396.03" cy="1739.8" r="4" stroke="rgb(0,255,4)" stroke-width="2" fill="none"></circle>
<circle cx="1945.79" cy="1745.15" r="4" stroke="rgb(0,110,255)" stroke-width="2" fill="none"></circle>
<circle cx="6309.46" cy="1485.82" r="4" stroke="rgb(0,110,255)" stroke-width="2" fill="none"></circle>
<circle cx="1762.02" cy="1747.34" r="4" stroke="rgb(255,0,4)" stroke-width="2" fill="none"></circle>
<circle cx="7137.02" cy="1594.46" r="4" stroke="rgb(255,0,4)" stroke-width="2" fill="none"></circle>
<circle cx="1989.87" cy="1747.66" r="4" stroke="rgb(255,191,0)" stroke-width="2" fill="none"></circle>
<circle cx="6719.39" cy="1400.43" r="4" stroke="rgb(255,191,0)" stroke-width="2" fill="none"></circle>
<circle cx="797.545" cy="1756.58" r="4" stroke="rgb(255,178,0)" stroke-width="2" fill="none"></circle>
<circle cx="6116.1" cy="1642.04" r="4" stroke="rgb(255,178,0)" stroke-width="2" fill="none"></circle>
<circle cx="2090.04" cy="1763.83" r="4" stroke="rgb(216,255,0)" stroke-width="2" fill="none"></circle>
<circle cx="7167.14" cy="1362.4" r="4" stroke="rgb(216,255,0)" stroke-width="2" fill="none"></circle>
<circle cx="2119.76" cy="1764.16" r="4" stroke="rgb(255,0,191)" stroke-width="2" fill="none"></circle>
<circle cx="5233.99" cy="1586.65" r="4" stroke="rgb(255,0,191)" stroke-width="2" fill="none"></circle>
<circle cx="1944.61" cy="1764.2" r="4" stroke="rgb(0,255,169)" stroke-width="2" fill="none"></circle>
<circle cx="6526.23" cy="1460.14" r="4" stroke="rgb(0,255,169)" stroke-width="2" fill="none"></circle>
<circle cx="2059.71" cy="1770.78" r="4" stroke="rgb(0,255,246)" stroke-width="2" fill="none"></circle>
<circle cx="6595.02" cy="916.979" r="4" stroke="rgb(0,255,246)" stroke-width="2" fill="none"></circle>
<circle cx="1244.16" cy="1977.76" r="4" stroke="rgb(0,255,33)" stroke-width="2" fill="none"></circle>
<circle cx="7079.79" cy="1050.59" r="4" stroke="rgb(0,255,33)" stroke-width="2" fill="none"></circle>
<circle cx="604.151" cy="2033.89" r="4" stroke="rgb(191,0,255)" stroke-width="2" fill="none"></circle>
<circle cx="5771.45" cy="1079.37" r="4" stroke="rgb(191,0,255)" stroke-width="2" fill="none"></circle>
<circle cx="1245.11" cy="2083.12" r="4" stroke="rgb(255,0,187)" stroke-width="2" fill="none"></circle>
<circle cx="6487.93" cy="954.606" r="4" stroke="rgb(255,0,187)" stroke-width="2" fill="none"></circle>
<circle cx="529.764" cy="2110.81" r="4" stroke="rgb(246,255,0)" stroke-width="2" fill="none"></circle>
<circle cx="5830.17" cy="807.66" r="4" stroke="rgb(246,255,0)" stroke-width="2" fill="none"></circle>
<circle cx="1245.41" cy="2128.46" r="4" stroke="rgb(255,76,0)" stroke-width="2" fill="none"></circle>
<circle cx="6037.59" cy="778.39" r="4" stroke="rgb(255,76,0)" stroke-width="2" fill="none"></circle>
<circle cx="2776.84" cy="2165.11" r="4" stroke="rgb(255,165,0)" stroke-width="2" fill="none"></circle>
<circle cx="6739.79" cy="1803.76" r="4" stroke="rgb(255,165,0)" stroke-width="2" fill="none"></circle>
<circle cx="2609.46" cy="2186.74" r="4" stroke="rgb(255,212,0)" stroke-width="2" fill="none"></circle>
<circle cx="7135.98" cy="1567.43" r="4" stroke="rgb(255,212,0)" stroke-width="2" fill="none"></circle>
<circle cx="2713.43" cy="2215.77" r="4" stroke="rgb(255,114,0)" stroke-width="2" fill="none"></circle>
<circle cx="6566.19" cy="1468.72" r="4" stroke="rgb(255,114,0)" stroke-width="2" fill="none"></circle>
<circle cx="2767.22" cy="2218.32" r="4" stroke="rgb(0,76,255)" stroke-width="2" fill="none"></circle>
<circle cx="6841.57" cy="852.968" r="4" stroke="rgb(0,76,255)" stroke-width="2" fill="none"></circle>
<circle cx="2529.91" cy="2228.45" r="4" stroke="rgb(255,119,0)" stroke-width="2" fill="none"></circle>
<circle cx="6512.18" cy="674.202" r="4" stroke="rgb(255,119,0)" stroke-width="2" fill="none"></circle>
<circle cx="2528.06" cy="2237.49" r="4" stroke="rgb(255,38,0)" stroke-width="2" fill="none"></circle>
<circle cx="6361.89" cy="645.197" r="4" stroke="rgb(255,38,0)" stroke-width="2" fill="none"></circle>
<circle cx="2587.61" cy="2242.27" r="4" stroke="rgb(170,0,255)" stroke-width="2" fill="none"></circle>
<circle cx="6348.13" cy="1663.79" r="4" stroke="rgb(170,0,255)" stroke-width="2" fill="none"></circle>
<circle cx="2746.94" cy="2242.67" r="4" stroke="rgb(208,0,255)" stroke-width="2" fill="none"></circle>
<circle cx="6772.8" cy="1659.42" r="4" stroke="rgb(208,0,255)" stroke-width="2" fill="none"></circle>
<circle cx="2538.17" cy="2243.74" r="4" stroke="rgb(255,123,0)" stroke-width="2" fill="none"></circle>
<circle cx="6351.82" cy="1611.02" r="4" stroke="rgb(255,123,0)" stroke-width="2" fill="none"></circle>
<circle cx="2574.5" cy="2244.82" r="4" stroke="rgb(0,255,46)" stroke-width="2" fill="none"></circle>
<circle cx="6351.82" cy="1611.02" r="4" stroke="rgb(0,255,46)" stroke-width="2" fill="none"></circle>
<circle cx="2580.96" cy="2245.92" r="4" stroke="rgb(237,255,0)" stroke-width="2" fill="none"></circle>
<circle cx="6647.86" cy="1860.77" r="4" stroke="rgb(237,255,0)" stroke-width="2" fill="none"></circle>
<circle cx="2544.4" cy="2258.98" r="4" stroke="rgb(255,0,250)" stroke-width="2" fill="none"></circle>
<circle cx="6413.7" cy="637.992" r="4" stroke="rgb(255,0,250)" stroke-width="2" fill="none"></circle>
<circle cx="2656.82" cy="2264.59" r="4" stroke="rgb(255,21,0)" stroke-width="2" fill="none"></circle>
<circle cx="6828.99" cy="872.482" r="4" stroke="rgb(255,21,0)" stroke-width="2" fill="none"></circle>
<circle cx="2541.25" cy="2268.54" r="4" stroke="rgb(0,203,255)" stroke-width="2" fill="none"></circle>
<circle cx="6170.97" cy="1440.88" r="4" stroke="rgb(0,203,255)" stroke-width="2" fill="none"></circle>
<circle cx="2647.47" cy="2274.15" r="4" stroke="rgb(0,29,255)" stroke-width="2" fill="none"></circle>
<circle cx="7201.78" cy="1505.15" r="4" stroke="rgb(0,29,255)" stroke-width="2" fill="none"></circle>
<circle cx="2553.37" cy="2277.43" r="4" stroke="rgb(0,255,148)" stroke-width="2" fill="none"></circle>
<circle cx="6428.48" cy="671.093" r="4" stroke="rgb(0,255,148)" stroke-width="2" fill="none"></circle>
<circle cx="2554.53" cy="2283.63" r="4" stroke="rgb(254,0,255)" stroke-width="2" fill="none"></circle>
<circle cx="6477.56" cy="684.757" r="4" stroke="rgb(254,0,255)" stroke-width="2" fill="none"></circle>
<circle cx="2610.37" cy="2307.59" r="4" stroke="rgb(0,59,255)" stroke-width="2" fill="none"></circle>
<circle cx="6845.68" cy="1437.93" r="4" stroke="rgb(0,59,255)" stroke-width="2" fill="none"></circle>
<circle cx="2706.97" cy="2313.04" r="4" stroke="rgb(4,0,255)" stroke-width="2" fill="none"></circle>
<circle cx="6809.54" cy="818.459" r="4" stroke="rgb(4,0,255)" stroke-width="2" fill="none"></circle>
<circle cx="1096.54" cy="2388.25" r="4" stroke="rgb(250,0,255)" stroke-width="2" fill="none"></circle>
<circle cx="6997.15" cy="1318.88" r="4" stroke="rgb(250,0,255)" stroke-width="2" fill="none"></circle>
<circle cx="1170.28" cy="2420.23" r="4" stroke="rgb(135,0,255)" stroke-width="2" fill="none"></circle>
<circle cx="5453.05" cy="1201.12" r="4" stroke="rgb(135,0,255)" stroke-width="2" fill="none"></circle>
<circle cx="2154.94" cy="2423.78" r="4" stroke="rgb(0,255,148)" stroke-width="2" fill="none"></circle>
<circle cx="7571.99" cy="1146.77" r="4" stroke="rgb(0,255,148)" stroke-width="2" fill="none"></circle>
<circle cx="1122.78" cy="2462.37" r="4" stroke="rgb(4,0,255)" stroke-width="2" fill="none"></circle>
<circle cx="5456.16" cy="1331.26" r="4" stroke="rgb(4,0,255)" stroke-width="2" fill="none"></circle>
<circle cx="2053.11" cy="2484.15" r="4" stroke="rgb(89,255,0)" stroke-width="2" fill="none"></circle>
<circle cx="6683.77" cy="934.25" r="4" stroke="rgb(89,255,0)" stroke-width="2" fill="none"></circle>
<circle cx="1240.32" cy="2615.2" r="4" stroke="rgb(0,225,255)" stroke-width="2" fill="none"></circle>
<circle cx="5501.77" cy="1294.02" r="4" stroke="rgb(0,225,255)" stroke-width="2" fill="none"></circle>
<circle cx="1252" cy="2634.02" r="4" stroke="rgb(255,250,0)" stroke-width="2" fill="none"></circle>
<circle cx="5627.27" cy="1174.86" r="4" stroke="rgb(255,250,0)" stroke-width="2" fill="none"></circle>
<circle cx="1512.75" cy="2740.64" r="4" stroke="rgb(89,255,0)" stroke-width="2" fill="none"></circle>
<circle cx="6751.03" cy="1837.8" r="4" stroke="rgb(89,255,0)" stroke-width="2" fill="none"></circle>
</svg>