<?xml version="1.0" standalone="yes"?>
<!-- SVG graphic -->
<svg xmlns='http://www.w3.org/2000/svg' xmlns:xlink='http://www.w3.org/1999/xlink'
width="8064px" height="3024px" preserveAspectRatio="xMinYMin meet" viewBox="0 0 8064 3024" version="1.1">
<image x="0" y="0" width="4032px" height="3024px" opacity="1" xlink:href="/home/jeong/Code/2D-to-3D-Modeling-using-AI/Make3D/Image/20200227_180638.jpg"/>
<image x="4032" y="0" width="4032px" height="3024px" opacity="1" xlink:href="/home/jeong/Code/2D-to-3D-Modeling-using-AI/Make3D/Image/20200227_180722.jpg"/>
<polyline points="495.018,928.88,6901.44,1762.4" stroke="rgb(233,0,255)" stroke-width="2" fill="none"></polyline>
<polyline points="1840.13,955.947,5828.88,1545.01" stroke="rgb(0,255,0)" stroke-width="2" fill="none"></polyline>
<polyline points="1733.54,975.821,6463.46,887.35" stroke="rgb(255,0,59)" stroke-width="2" fill="none"></polyline>
<polyline points="2002.33,976.8,6753.78,1277.14" stroke="rgb(255,0,187)" stroke-width="2" fill="none"></polyline>
<polyline points="2032.7,977.654,7086.1,1295.9" stroke="rgb(255,29,0)" stroke-width="2" fill="none"></polyline>
<polyline points="2019.99,979.461,5848.76,1854.9" stroke="rgb(233,0,255)" stroke-width="2" fill="none"></polyline>
<polyline points="1661.79,994.487,6365.21,1874.33" stroke="rgb(229,0,255)" stroke-width="2" fill="none"></polyline>
<polyline points="1614.69,996.449,6937.99,1498.44" stroke="rgb(0,135,255)" stroke-width="2" fill="none"></polyline>
<polyline points="1625.71,999.702,6759.87,1480.5" stroke="rgb(255,46,0)" stroke-width="2" fill="none"></polyline>
<polyline points="1387.08,1014.1,5216.25,1003.74" stroke="rgb(255,123,0)" stroke-width="2" fill="none"></polyline>
<polyline points="2193.15,1028.89,5677.42,1627.35" stroke="rgb(0,119,255)" stroke-width="2" fill="none"></polyline>
<polyline points="1580.82,1029.23,5766.15,737.701" stroke="rgb(255,97,0)" stroke-width="2" fill="none"></polyline>
<polyline points="1439.81,1040.15,6338.82,893.92" stroke="rgb(255,0,136)" stroke-width="2" fill="none"></polyline>
<polyline points="2331.44,1056.05,5362.3,1136.94" stroke="rgb(255,0,101)" stroke-width="2" fill="none"></polyline>
<polyline points="2370.89,1068.72,6529.38,890.279" stroke="rgb(255,0,199)" stroke-width="2" fill="none"></polyline>
<polyline points="2245.78,1075.89,5293.94,1038.93" stroke="rgb(16,255,0)" stroke-width="2" fill="none"></polyline>
<polyline points="1378.36,1099.96,6004.48,1557.27" stroke="rgb(0,255,220)" stroke-width="2" fill="none"></polyline>
<polyline points="1106.46,1106.65,5535.9,1566.57" stroke="rgb(0,55,255)" stroke-width="2" fill="none"></polyline>
<polyline points="1204.5,1111.94,6066.05,1311.62" stroke="rgb(255,0,29)" stroke-width="2" fill="none"></polyline>
<polyline points="1304.52,1116.93,5663.98,914.993" stroke="rgb(0,255,93)" stroke-width="2" fill="none"></polyline>
<polyline points="1331.62,1125.91,4991.14,1274.27" stroke="rgb(255,255,0)" stroke-width="2" fill="none"></polyline>
<polyline points="1721.75,1130.2,5498.53,883.173" stroke="rgb(0,255,208)" stroke-width="2" fill="none"></polyline>
<polyline points="994.973,1136.87,5572.47,1556.03" stroke="rgb(25,255,0)" stroke-width="2" fill="none"></polyline>
<polyline points="1827.24,1138.35,5264.22,1424.25" stroke="rgb(255,0,178)" stroke-width="2" fill="none"></polyline>
<polyline points="1160.58,1141.53,5921.32,1531.52" stroke="rgb(0,255,144)" stroke-width="2" fill="none"></polyline>
<polyline points="1445.76,1147.1,5991.21,1135.6" stroke="rgb(0,80,255)" stroke-width="2" fill="none"></polyline>
<polyline points="2158.15,1152.72,6742.71,2012.4" stroke="rgb(38,0,255)" stroke-width="2" fill="none"></polyline>
<polyline points="2446.93,1161.08,6439.89,932.003" stroke="rgb(255,114,0)" stroke-width="2" fill="none"></polyline>
<polyline points="1243.67,1164.05,5224.12,1120.71" stroke="rgb(72,0,255)" stroke-width="2" fill="none"></polyline>
<polyline points="1673.82,1169.13,6483.92,1081.15" stroke="rgb(0,255,59)" stroke-width="2" fill="none"></polyline>
<polyline points="1447.66,1172.39,5665.89,1732.1" stroke="rgb(238,0,255)" stroke-width="2" fill="none"></polyline>
<polyline points="1384.59,1173.88,5831.57,1101.05" stroke="rgb(0,203,255)" stroke-width="2" fill="none"></polyline>
<polyline points="932.774,1181.84,5818.16,1728.89" stroke="rgb(63,0,255)" stroke-width="2" fill="none"></polyline>
<polyline points="1319.77,1196.4,6679.83,1249.93" stroke="rgb(0,255,144)" stroke-width="2" fill="none"></polyline>
<polyline points="1320.15,1204.84,6777.07,1632.32" stroke="rgb(0,255,118)" stroke-width="2" fill="none"></polyline>
<polyline points="1038.26,1205.4,5914.37,1759.55" stroke="rgb(0,255,59)" stroke-width="2" fill="none"></polyline>
<polyline points="1093.98,1210.5,5859.19,1687.24" stroke="rgb(127,255,0)" stroke-width="2" fill="none"></polyline>
<polyline points="871.098,1223.95,5902.83,1942" stroke="rgb(255,0,191)" stroke-width="2" fill="none"></polyline>
<polyline points="914.174,1227.43,6821.39,1600.72" stroke="rgb(0,110,255)" stroke-width="2" fill="none"></polyline>
<polyline points="1095.01,1229,5608.86,1564.57" stroke="rgb(255,0,114)" stroke-width="2" fill="none"></polyline>
<polyline points="1038.27,1230.58,5609.72,1655.78" stroke="rgb(255,0,68)" stroke-width="2" fill="none"></polyline>
<polyline points="878.775,1233.87,6753.95,1494.67" stroke="rgb(229,255,0)" stroke-width="2" fill="none"></polyline>
<polyline points="1602.63,1238.27,5625.01,1666.36" stroke="rgb(255,0,12)" stroke-width="2" fill="none"></polyline>
<polyline points="868.781,1240.07,6828.18,1537" stroke="rgb(0,237,255)" stroke-width="2" fill="none"></polyline>
<polyline points="1786.4,1240.67,6580.28,947.817" stroke="rgb(148,0,255)" stroke-width="2" fill="none"></polyline>
<polyline points="2728.02,1243.23,5071.15,997.067" stroke="rgb(0,246,255)" stroke-width="2" fill="none"></polyline>
<polyline points="1655.61,1245.29,5534.26,903.122" stroke="rgb(255,0,250)" stroke-width="2" fill="none"></polyline>
<polyline points="1726.76,1252.76,5916.58,1683.55" stroke="rgb(255,0,174)" stroke-width="2" fill="none"></polyline>
<polyline points="572.32,1258.28,6512.88,1674.2" stroke="rgb(178,0,255)" stroke-width="2" fill="none"></polyline>
<polyline points="921.041,1263.56,5829.02,1767.61" stroke="rgb(0,255,195)" stroke-width="2" fill="none"></polyline>
<polyline points="1862.5,1268.63,6741.41,1516.46" stroke="rgb(255,0,114)" stroke-width="2" fill="none"></polyline>
<polyline points="882.497,1271.65,6840.61,1578.17" stroke="rgb(255,0,76)" stroke-width="2" fill="none"></polyline>
<polyline points="1439.19,1273.17,5370.56,1229.31" stroke="rgb(0,140,255)" stroke-width="2" fill="none"></polyline>
<polyline points="1686.16,1301.68,5301.04,1305.01" stroke="rgb(135,255,0)" stroke-width="2" fill="none"></polyline>
<polyline points="964.699,1306.32,5714.05,1671.27" stroke="rgb(255,0,250)" stroke-width="2" fill="none"></polyline>
<polyline points="485.145,1306.91,5069.06,1099.57" stroke="rgb(0,29,255)" stroke-width="2" fill="none"></polyline>
<polyline points="2454.16,1323.09,6577.76,920.962" stroke="rgb(255,0,216)" stroke-width="2" fill="none"></polyline>
<polyline points="1385.56,1323.48,5586.54,1548.18" stroke="rgb(246,255,0)" stroke-width="2" fill="none"></polyline>
<polyline points="1876.05,1339.24,5500.25,1261.67" stroke="rgb(0,255,50)" stroke-width="2" fill="none"></polyline>
<polyline points="1287.62,1340.51,5703.92,1582.28" stroke="rgb(0,144,255)" stroke-width="2" fill="none"></polyline>
<polyline points="1762.46,1346.55,5920.05,1664.93" stroke="rgb(216,255,0)" stroke-width="2" fill="none"></polyline>
<polyline points="1683.11,1351.27,5607.72,898.892" stroke="rgb(255,0,250)" stroke-width="2" fill="none"></polyline>
<polyline points="1424.29,1376.38,5816.11,1696.64" stroke="rgb(255,165,0)" stroke-width="2" fill="none"></polyline>
<polyline points="923.905,1409.82,6636.85,1081.19" stroke="rgb(0,187,255)" stroke-width="2" fill="none"></polyline>
<polyline points="2676.59,1457.15,5515.34,732.185" stroke="rgb(106,255,0)" stroke-width="2" fill="none"></polyline>
<polyline points="2587.46,1464.26,5385.03,1140.05" stroke="rgb(255,250,0)" stroke-width="2" fill="none"></polyline>
<polyline points="1227.72,1489.6,6186.02,1680.61" stroke="rgb(255,0,127)" stroke-width="2" fill="none"></polyline>
<polyline points="1142.89,1492.35,6849.03,1770.22" stroke="rgb(255,242,0)" stroke-width="2" fill="none"></polyline>
<polyline points="1764.65,1495.56,5347.25,1083.94" stroke="rgb(25,0,255)" stroke-width="2" fill="none"></polyline>
<polyline points="664.081,1497.5,5137.5,1428.96" stroke="rgb(0,237,255)" stroke-width="2" fill="none"></polyline>
<polyline points="653.594,1521.48,5247.88,1451.85" stroke="rgb(255,131,0)" stroke-width="2" fill="none"></polyline>
<polyline points="1338.25,1528.96,6551.02,2020.26" stroke="rgb(0,38,255)" stroke-width="2" fill="none"></polyline>
<polyline points="1469.43,1530.52,5615.74,1528.57" stroke="rgb(0,255,12)" stroke-width="2" fill="none"></polyline>
<polyline points="848.173,1544.38,6168.33,1681.04" stroke="rgb(85,0,255)" stroke-width="2" fill="none"></polyline>
<polyline points="2136.46,1567.28,5872.82,750.707" stroke="rgb(255,233,0)" stroke-width="2" fill="none"></polyline>
<polyline points="1699.5,1570.99,5514.13,807.802" stroke="rgb(127,0,255)" stroke-width="2" fill="none"></polyline>
<polyline points="1682.98,1587.05,6513.56,1656.61" stroke="rgb(255,0,195)" stroke-width="2" fill="none"></polyline>
<polyline points="1760.3,1587.99,5514.44,1333.73" stroke="rgb(0,51,255)" stroke-width="2" fill="none"></polyline>
<polyline points="2139.18,1589.24,5438.75,1195.49" stroke="rgb(0,46,255)" stroke-width="2" fill="none"></polyline>
<polyline points="763.796,1608.4,5518.94,1078.26" stroke="rgb(0,17,255)" stroke-width="2" fill="none"></polyline>
<polyline points="1554.74,1611.41,5124.77,1426.9" stroke="rgb(114,0,255)" stroke-width="2" fill="none"></polyline>
<polyline points="1703.93,1616.63,6113.67,1238.79" stroke="rgb(0,157,255)" stroke-width="2" fill="none"></polyline>
<polyline points="758.39,1622.16,5767.5,1410.75" stroke="rgb(0,89,255)" stroke-width="2" fill="none"></polyline>
<polyline points="849.879,1631.95,5368.64,1058.76" stroke="rgb(25,255,0)" stroke-width="2" fill="none"></polyline>
<polyline points="740.987,1631.96,6072.47,1376.14" stroke="rgb(216,0,255)" stroke-width="2" fill="none"></polyline>
<polyline points="1724.7,1635.99,5761.41,961.887" stroke="rgb(255,136,0)" stroke-width="2" fill="none"></polyline>
<polyline points="1720.79,1648.9,6180.03,1322.11" stroke="rgb(0,85,255)" stroke-width="2" fill="none"></polyline>
<polyline points="1922.75,1666,5884.05,1632.94" stroke="rgb(33,255,0)" stroke-width="2" fill="none"></polyline>
<polyline points="641.196,1669.15,5245.84,742.927" stroke="rgb(110,255,0)" stroke-width="2" fill="none"></polyline>
<polyline points="2140.88,1673.01,5666.13,1694.87" stroke="rgb(0,67,255)" stroke-width="2" fill="none"></polyline>
<polyline points="1759.1,1704.93,5684.66,1069.81" stroke="rgb(255,0,174)" stroke-width="2" fill="none"></polyline>
<polyline points="1771.81,1720.17,6108.49,1240.21" stroke="rgb(255,148,0)" stroke-width="2" fill="none"></polyline>
<polyline points="789.156,1732.25,5892.89,1498.05" stroke="rgb(0,255,191)" stroke-width="2" fill="none"></polyline>
<polyline points="729.296,1732.72,5818.87,1414.67" stroke="rgb(0,42,255)" stroke-width="2" fill="none"></polyline>
<polyline points="2053.44,1733.71,6044.62,1303.47" stroke="rgb(0,38,255)" stroke-width="2" fill="none"></polyline>
<polyline points="787.051,1738.06,5897.93,1499.77" stroke="rgb(89,0,255)" stroke-width="2" fill="none"></polyline>
<polyline points="1945.79,1745.15,6765.03,2079.51" stroke="rgb(0,255,174)" stroke-width="2" fill="none"></polyline>
<polyline points="2122,1756.45,6495.03,1666.16" stroke="rgb(199,255,0)" stroke-width="2" fill="none"></polyline>
<polyline points="2095.41,1770.24,6505.69,1652.73" stroke="rgb(0,212,255)" stroke-width="2" fill="none"></polyline>
<polyline points="2059.71,1770.78,5541.23,1302.56" stroke="rgb(255,204,0)" stroke-width="2" fill="none"></polyline>
<polyline points="1788.91,1772.34,5812.85,1151.73" stroke="rgb(0,255,42)" stroke-width="2" fill="none"></polyline>
<polyline points="1852.71,1820.72,6496.01,1657.69" stroke="rgb(0,80,255)" stroke-width="2" fill="none"></polyline>
<polyline points="1728.58,1835.16,5117.58,949.28" stroke="rgb(0,255,131)" stroke-width="2" fill="none"></polyline>
<polyline points="1230.35,1880.96,6227.42,2471.05" stroke="rgb(0,255,21)" stroke-width="2" fill="none"></polyline>
<polyline points="747.174,1927.11,6591.35,2062.95" stroke="rgb(0,255,4)" stroke-width="2" fill="none"></polyline>
<polyline points="713.198,1951.62,6246.14,1757.37" stroke="rgb(0,144,255)" stroke-width="2" fill="none"></polyline>
<polyline points="1614.69,1959,6547.49,1634.81" stroke="rgb(255,148,0)" stroke-width="2" fill="none"></polyline>
<polyline points="3059.48,1976.01,5214.51,1203.14" stroke="rgb(255,0,221)" stroke-width="2" fill="none"></polyline>
<polyline points="1465.95,2062.32,5065.45,1385.3" stroke="rgb(255,0,225)" stroke-width="2" fill="none"></polyline>
<polyline points="893.628,2105.55,5263.11,1129.07" stroke="rgb(0,255,67)" stroke-width="2" fill="none"></polyline>
<polyline points="528.514,2124.59,5604.32,784.967" stroke="rgb(0,237,255)" stroke-width="2" fill="none"></polyline>
<polyline points="1143.64,2161.76,6207.42,1200.34" stroke="rgb(0,110,255)" stroke-width="2" fill="none"></polyline>
<polyline points="496.034,2190.11,5394.48,1239.99" stroke="rgb(255,0,89)" stroke-width="2" fill="none"></polyline>
<polyline points="2716.89,2208.97,6442.35,948.059" stroke="rgb(255,182,0)" stroke-width="2" fill="none"></polyline>
<polyline points="2620.42,2216.78,6131.6,2487.64" stroke="rgb(0,169,255)" stroke-width="2" fill="none"></polyline>
<polyline points="2757.77,2219.57,5643.06,1571.23" stroke="rgb(0,255,93)" stroke-width="2" fill="none"></polyline>
<polyline points="2677.22,2227.83,5897.87,1810.81" stroke="rgb(255,0,225)" stroke-width="2" fill="none"></polyline>
<polyline points="2496.8,2243.9,6584.83,1272.15" stroke="rgb(255,255,0)" stroke-width="2" fill="none"></polyline>
<polyline points="2574.5,2244.82,5870.4,1684.15" stroke="rgb(63,0,255)" stroke-width="2" fill="none"></polyline>
<polyline points="2610.37,2307.59,4943.68,1153.14" stroke="rgb(144,0,255)" stroke-width="2" fill="none"></polyline>
<polyline points="1016.05,2309.23,5940.49,929.394" stroke="rgb(0,255,157)" stroke-width="2" fill="none"></polyline>
<polyline points="2706.97,2313.04,7154.68,1823.88" stroke="rgb(144,255,0)" stroke-width="2" fill="none"></polyline>
<polyline points="1078.26,2338.22,6570.55,1630.39" stroke="rgb(255,0,216)" stroke-width="2" fill="none"></polyline>
<polyline points="2309.16,2341.64,5481.25,1311.45" stroke="rgb(255,0,161)" stroke-width="2" fill="none"></polyline>
<polyline points="1143.21,2341.74,5828.7,919.098" stroke="rgb(0,221,255)" stroke-width="2" fill="none"></polyline>
<polyline points="2295.83,2359.03,6473.67,1435.78" stroke="rgb(255,225,0)" stroke-width="2" fill="none"></polyline>
<polyline points="2245.01,2391.44,5635.66,814.711" stroke="rgb(106,255,0)" stroke-width="2" fill="none"></polyline>
<polyline points="1277.57,2392.41,6181.62,1354.05" stroke="rgb(255,0,46)" stroke-width="2" fill="none"></polyline>
<polyline points="2188.84,2424.52,5845.04,1538.15" stroke="rgb(0,255,25)" stroke-width="2" fill="none"></polyline>
<polyline points="2129.01,2445.11,5653.95,1698.78" stroke="rgb(195,0,255)" stroke-width="2" fill="none"></polyline>
<polyline points="1932.78,2551.18,6011.86,1561.83" stroke="rgb(255,157,0)" stroke-width="2" fill="none"></polyline>
<polyline points="1256.42,2564.24,5433.96,1274.44" stroke="rgb(0,255,33)" stroke-width="2" fill="none"></polyline>
<polyline points="1764.23,2638.25,6835,2121.9" stroke="rgb(255,80,0)" stroke-width="2" fill="none"></polyline>
<polyline points="1301.06,2719.7,5944.97,2065.84" stroke="rgb(0,221,255)" stroke-width="2" fill="none"></polyline>
<polyline points="1512.75,2740.64,5120.91,1387.75" stroke="rgb(55,0,255)" stroke-width="2" fill="none"></polyline>
<polyline points="1477.87,2773.97,5809.3,1409.69" stroke="rgb(255,55,0)" stroke-width="2" fill="none"></polyline>
<circle cx="495.018" cy="928.88" r="4" stroke="rgb(233,0,255)" stroke-width="2" fill="none"></circle>
<circle cx="6901.44" cy="1762.4" r="4" stroke="rgb(233,0,255)" stroke-width="2" fill="none"></circle>
<circle cx="1840.13" cy="955.947" r="4" stroke="rgb(0,255,0)" stroke-width="2" fill="none"></circle>
<circle cx="5828.88" cy="1545.01" r="4" stroke="rgb(0,255,0)" stroke-width="2" fill="none"></circle>
<circle cx="1733.54" cy="975.821" r="4" stroke="rgb(255,0,59)" stroke-width="2" fill="none"></circle>
<circle cx="6463.46" cy="887.35" r="4" stroke="rgb(255,0,59)" stroke-width="2" fill="none"></circle>
<circle cx="2002.33" cy="976.8" r="4" stroke="rgb(255,0,187)" stroke-width="2" fill="none"></circle>
<circle cx="6753.78" cy="1277.14" r="4" stroke="rgb(255,0,187)" stroke-width="2" fill="none"></circle>
<circle cx="2032.7" cy="977.654" r="4" stroke="rgb(255,29,0)" stroke-width="2" fill="none"></circle>
<circle cx="7086.1" cy="1295.9" r="4" stroke="rgb(255,29,0)" stroke-width="2" fill="none"></circle>
<circle cx="2019.99" cy="979.461" r="4" stroke="rgb(233,0,255)" stroke-width="2" fill="none"></circle>
<circle cx="5848.76" cy="1854.9" r="4" stroke="rgb(233,0,255)" stroke-width="2" fill="none"></circle>
<circle cx="1661.79" cy="994.487" r="4" stroke="rgb(229,0,255)" stroke-width="2" fill="none"></circle>
<circle cx="6365.21" cy="1874.33" r="4" stroke="rgb(229,0,255)" stroke-width="2" fill="none"></circle>
<circle cx="1614.69" cy="996.449" r="4" stroke="rgb(0,135,255)" stroke-width="2" fill="none"></circle>
<circle cx="6937.99" cy="1498.44" r="4" stroke="rgb(0,135,255)" stroke-width="2" fill="none"></circle>
<circle cx="1625.71" cy="999.702" r="4" stroke="rgb(255,46,0)" stroke-width="2" fill="none"></circle>
<circle cx="6759.87" cy="1480.5" r="4" stroke="rgb(255,46,0)" stroke-width="2" fill="none"></circle>
<circle cx="1387.08" cy="1014.1" r="4" stroke="rgb(255,123,0)" stroke-width="2" fill="none"></circle>
<circle cx="5216.25" cy="1003.74" r="4" stroke="rgb(255,123,0)" stroke-width="2" fill="none"></circle>
<circle cx="2193.15" cy="1028.89" r="4" stroke="rgb(0,119,255)" stroke-width="2" fill="none"></circle>
<circle cx="5677.42" cy="1627.35" r="4" stroke="rgb(0,119,255)" stroke-width="2" fill="none"></circle>
<circle cx="1580.82" cy="1029.23" r="4" stroke="rgb(255,97,0)" stroke-width="2" fill="none"></circle>
<circle cx="5766.15" cy="737.701" r="4" stroke="rgb(255,97,0)" stroke-width="2" fill="none"></circle>
<circle cx="1439.81" cy="1040.15" r="4" stroke="rgb(255,0,136)" stroke-width="2" fill="none"></circle>
<circle cx="6338.82" cy="893.92" r="4" stroke="rgb(255,0,136)" stroke-width="2" fill="none"></circle>
<circle cx="2331.44" cy="1056.05" r="4" stroke="rgb(255,0,101)" stroke-width="2" fill="none"></circle>
<circle cx="5362.3" cy="1136.94" r="4" stroke="rgb(255,0,101)" stroke-width="2" fill="none"></circle>
<circle cx="2370.89" cy="1068.72" r="4" stroke="rgb(255,0,199)" stroke-width="2" fill="none"></circle>
<circle cx="6529.38" cy="890.279" r="4" stroke="rgb(255,0,199)" stroke-width="2" fill="none"></circle>
<circle cx="2245.78" cy="1075.89" r="4" stroke="rgb(16,255,0)" stroke-width="2" fill="none"></circle>
<circle cx="5293.94" cy="1038.93" r="4" stroke="rgb(16,255,0)" stroke-width="2" fill="none"></circle>
<circle cx="1378.36" cy="1099.96" r="4" stroke="rgb(0,255,220)" stroke-width="2" fill="none"></circle>
<circle cx="6004.48" cy="1557.27" r="4" stroke="rgb(0,255,220)" stroke-width="2" fill="none"></circle>
<circle cx="1106.46" cy="1106.65" r="4" stroke="rgb(0,55,255)" stroke-width="2" fill="none"></circle>
<circle cx="5535.9" cy="1566.57" r="4" stroke="rgb(0,55,255)" stroke-width="2" fill="none"></circle>
<circle cx="1204.5" cy="1111.94" r="4" stroke="rgb(255,0,29)" stroke-width="2" fill="none"></circle>
<circle cx="6066.05" cy="1311.62" r="4" stroke="rgb(255,0,29)" stroke-width="2" fill="none"></circle>
<circle cx="1304.52" cy="1116.93" r="4" stroke="rgb(0,255,93)" stroke-width="2" fill="none"></circle>
<circle cx="5663.98" cy="914.993" r="4" stroke="rgb(0,255,93)" stroke-width="2" fill="none"></circle>
<circle cx="1331.62" cy="1125.91" r="4" stroke="rgb(255,255,0)" stroke-width="2" fill="none"></circle>
<circle cx="4991.14" cy="1274.27" r="4" stroke="rgb(255,255,0)" stroke-width="2" fill="none"></circle>
<circle cx="1721.75" cy="1130.2" r="4" stroke="rgb(0,255,208)" stroke-width="2" fill="none"></circle>
<circle cx="5498.53" cy="883.173" r="4" stroke="rgb(0,255,208)" stroke-width="2" fill="none"></circle>
<circle cx="994.973" cy="1136.87" r="4" stroke="rgb(25,255,0)" stroke-width="2" fill="none"></circle>
<circle cx="5572.47" cy="1556.03" r="4" stroke="rgb(25,255,0)" stroke-width="2" fill="none"></circle>
<circle cx="1827.24" cy="1138.35" r="4" stroke="rgb(255,0,178)" stroke-width="2" fill="none"></circle>
<circle cx="5264.22" cy="1424.25" r="4" stroke="rgb(255,0,178)" stroke-width="2" fill="none"></circle>
<circle cx="1160.58" cy="1141.53" r="4" stroke="rgb(0,255,144)" stroke-width="2" fill="none"></circle>
<circle cx="5921.32" cy="1531.52" r="4" stroke="rgb(0,255,144)" stroke-width="2" fill="none"></circle>
<circle cx="1445.76" cy="1147.1" r="4" stroke="rgb(0,80,255)" stroke-width="2" fill="none"></circle>
<circle cx="5991.21" cy="1135.6" r="4" stroke="rgb(0,80,255)" stroke-width="2" fill="none"></circle>
<circle cx="2158.15" cy="1152.72" r="4" stroke="rgb(38,0,255)" stroke-width="2" fill="none"></circle>
<circle cx="6742.71" cy="2012.4" r="4" stroke="rgb(38,0,255)" stroke-width="2" fill="none"></circle>
<circle cx="2446.93" cy="1161.08" r="4" stroke="rgb(255,114,0)" stroke-width="2" fill="none"></circle>
<circle cx="6439.89" cy="932.003" r="4" stroke="rgb(255,114,0)" stroke-width="2" fill="none"></circle>
<circle cx="1243.67" cy="1164.05" r="4" stroke="rgb(72,0,255)" stroke-width="2" fill="none"></circle>
<circle cx="5224.12" cy="1120.71" r="4" stroke="rgb(72,0,255)" stroke-width="2" fill="none"></circle>
<circle cx="1673.82" cy="1169.13" r="4" stroke="rgb(0,255,59)" stroke-width="2" fill="none"></circle>
<circle cx="6483.92" cy="1081.15" r="4" stroke="rgb(0,255,59)" stroke-width="2" fill="none"></circle>
<circle cx="1447.66" cy="1172.39" r="4" stroke="rgb(238,0,255)" stroke-width="2" fill="none"></circle>
<circle cx="5665.89" cy="1732.1" r="4" stroke="rgb(238,0,255)" stroke-width="2" fill="none"></circle>
<circle cx="1384.59" cy="1173.88" r="4" stroke="rgb(0,203,255)" stroke-width="2" fill="none"></circle>
<circle cx="5831.57" cy="1101.05" r="4" stroke="rgb(0,203,255)" stroke-width="2" fill="none"></circle>
<circle cx="932.774" cy="1181.84" r="4" stroke="rgb(63,0,255)" stroke-width="2" fill="none"></circle>
<circle cx="5818.16" cy="1728.89" r="4" stroke="rgb(63,0,255)" stroke-width="2" fill="none"></circle>
<circle cx="1319.77" cy="1196.4" r="4" stroke="rgb(0,255,144)" stroke-width="2" fill="none"></circle>
<circle cx="6679.83" cy="1249.93" r="4" stroke="rgb(0,255,144)" stroke-width="2" fill="none"></circle>
<circle cx="1320.15" cy="1204.84" r="4" stroke="rgb(0,255,118)" stroke-width="2" fill="none"></circle>
<circle cx="6777.07" cy="1632.32" r="4" stroke="rgb(0,255,118)" stroke-width="2" fill="none"></circle>
<circle cx="1038.26" cy="1205.4" r="4" stroke="rgb(0,255,59)" stroke-width="2" fill="none"></circle>
<circle cx="5914.37" cy="1759.55" r="4" stroke="rgb(0,255,59)" stroke-width="2" fill="none"></circle>
<circle cx="1093.98" cy="1210.5" r="4" stroke="rgb(127,255,0)" stroke-width="2" fill="none"></circle>
<circle cx="5859.19" cy="1687.24" r="4" stroke="rgb(127,255,0)" stroke-width="2" fill="none"></circle>
<circle cx="871.098" cy="1223.95" r="4" stroke="rgb(255,0,191)" stroke-width="2" fill="none"></circle>
<circle cx="5902.83" cy="1942" r="4" stroke="rgb(255,0,191)" stroke-width="2" fill="none"></circle>
<circle cx="914.174" cy="1227.43" r="4" stroke="rgb(0,110,255)" stroke-width="2" fill="none"></circle>
<circle cx="6821.39" cy="1600.72" r="4" stroke="rgb(0,110,255)" stroke-width="2" fill="none"></circle>
<circle cx="1095.01" cy="1229" r="4" stroke="rgb(255,0,114)" stroke-width="2" fill="none"></circle>
<circle cx="5608.86" cy="1564.57" r="4" stroke="rgb(255,0,114)" stroke-width="2" fill="none"></circle>
<circle cx="1038.27" cy="1230.58" r="4" stroke="rgb(255,0,68)" stroke-width="2" fill="none"></circle>
<circle cx="5609.72" cy="1655.78" r="4" stroke="rgb(255,0,68)" stroke-width="2" fill="none"></circle>
<circle cx="878.775" cy="1233.87" r="4" stroke="rgb(229,255,0)" stroke-width="2" fill="none"></circle>
<circle cx="6753.95" cy="1494.67" r="4" stroke="rgb(229,255,0)" stroke-width="2" fill="none"></circle>
<circle cx="1602.63" cy="1238.27" r="4" stroke="rgb(255,0,12)" stroke-width="2" fill="none"></circle>
<circle cx="5625.01" cy="1666.36" r="4" stroke="rgb(255,0,12)" stroke-width="2" fill="none"></circle>
<circle cx="868.781" cy="1240.07" r="4" stroke="rgb(0,237,255)" stroke-width="2" fill="none"></circle>
<circle cx="6828.18" cy="1537" r="4" stroke="rgb(0,237,255)" stroke-width="2" fill="none"></circle>
<circle cx="1786.4" cy="1240.67" r="4" stroke="rgb(148,0,255)" stroke-width="2" fill="none"></circle>
<circle cx="6580.28" cy="947.817" r="4" stroke="rgb(148,0,255)" stroke-width="2" fill="none"></circle>
<circle cx="2728.02" cy="1243.23" r="4" stroke="rgb(0,246,255)" stroke-width="2" fill="none"></circle>
<circle cx="5071.15" cy="997.067" r="4" stroke="rgb(0,246,255)" stroke-width="2" fill="none"></circle>
<circle cx="1655.61" cy="1245.29" r="4" stroke="rgb(255,0,250)" stroke-width="2" fill="none"></circle>
<circle cx="5534.26" cy="903.122" r="4" stroke="rgb(255,0,250)" stroke-width="2" fill="none"></circle>
<circle cx="1726.76" cy="1252.76" r="4" stroke="rgb(255,0,174)" stroke-width="2" fill="none"></circle>
<circle cx="5916.58" cy="1683.55" r="4" stroke="rgb(255,0,174)" stroke-width="2" fill="none"></circle>
<circle cx="572.32" cy="1258.28" r="4" stroke="rgb(178,0,255)" stroke-width="2" fill="none"></circle>
<circle cx="6512.88" cy="1674.2" r="4" stroke="rgb(178,0,255)" stroke-width="2" fill="none"></circle>
<circle cx="921.041" cy="1263.56" r="4" stroke="rgb(0,255,195)" stroke-width="2" fill="none"></circle>
<circle cx="5829.02" cy="1767.61" r="4" stroke="rgb(0,255,195)" stroke-width="2" fill="none"></circle>
<circle cx="1862.5" cy="1268.63" r="4" stroke="rgb(255,0,114)" stroke-width="2" fill="none"></circle>
<circle cx="6741.41" cy="1516.46" r="4" stroke="rgb(255,0,114)" stroke-width="2" fill="none"></circle>
<circle cx="882.497" cy="1271.65" r="4" stroke="rgb(255,0,76)" stroke-width="2" fill="none"></circle>
<circle cx="6840.61" cy="1578.17" r="4" stroke="rgb(255,0,76)" stroke-width="2" fill="none"></circle>
<circle cx="1439.19" cy="1273.17" r="4" stroke="rgb(0,140,255)" stroke-width="2" fill="none"></circle>
<circle cx="5370.56" cy="1229.31" r="4" stroke="rgb(0,140,255)" stroke-width="2" fill="none"></circle>
<circle cx="1686.16" cy="1301.68" r="4" stroke="rgb(135,255,0)" stroke-width="2" fill="none"></circle>
<circle cx="5301.04" cy="1305.01" r="4" stroke="rgb(135,255,0)" stroke-width="2" fill="none"></circle>
<circle cx="964.699" cy="1306.32" r="4" stroke="rgb(255,0,250)" stroke-width="2" fill="none"></circle>
<circle cx="5714.05" cy="1671.27" r="4" stroke="rgb(255,0,250)" stroke-width="2" fill="none"></circle>
<circle cx="485.145" cy="1306.91" r="4" stroke="rgb(0,29,255)" stroke-width="2" fill="none"></circle>
<circle cx="5069.06" cy="1099.57" r="4" stroke="rgb(0,29,255)" stroke-width="2" fill="none"></circle>
<circle cx="2454.16" cy="1323.09" r="4" stroke="rgb(255,0,216)" stroke-width="2" fill="none"></circle>
<circle cx="6577.76" cy="920.962" r="4" stroke="rgb(255,0,216)" stroke-width="2" fill="none"></circle>
<circle cx="1385.56" cy="1323.48" r="4" stroke="rgb(246,255,0)" stroke-width="2" fill="none"></circle>
<circle cx="5586.54" cy="1548.18" r="4" stroke="rgb(246,255,0)" stroke-width="2" fill="none"></circle>
<circle cx="1876.05" cy="1339.24" r="4" stroke="rgb(0,255,50)" stroke-width="2" fill="none"></circle>
<circle cx="5500.25" cy="1261.67" r="4" stroke="rgb(0,255,50)" stroke-width="2" fill="none"></circle>
<circle cx="1287.62" cy="1340.51" r="4" stroke="rgb(0,144,255)" stroke-width="2" fill="none"></circle>
<circle cx="5703.92" cy="1582.28" r="4" stroke="rgb(0,144,255)" stroke-width="2" fill="none"></circle>
<circle cx="1762.46" cy="1346.55" r="4" stroke="rgb(216,255,0)" stroke-width="2" fill="none"></circle>
<circle cx="5920.05" cy="1664.93" r="4" stroke="rgb(216,255,0)" stroke-width="2" fill="none"></circle>
<circle cx="1683.11" cy="1351.27" r="4" stroke="rgb(255,0,250)" stroke-width="2" fill="none"></circle>
<circle cx="5607.72" cy="898.892" r="4" stroke="rgb(255,0,250)" stroke-width="2" fill="none"></circle>
<circle cx="1424.29" cy="1376.38" r="4" stroke="rgb(255,165,0)" stroke-width="2" fill="none"></circle>
<circle cx="5816.11" cy="1696.64" r="4" stroke="rgb(255,165,0)" stroke-width="2" fill="none"></circle>
<circle cx="923.905" cy="1409.82" r="4" stroke="rgb(0,187,255)" stroke-width="2" fill="none"></circle>
<circle cx="6636.85" cy="1081.19" r="4" stroke="rgb(0,187,255)" stroke-width="2" fill="none"></circle>
<circle cx="2676.59" cy="1457.15" r="4" stroke="rgb(106,255,0)" stroke-width="2" fill="none"></circle>
<circle cx="5515.34" cy="732.185" r="4" stroke="rgb(106,255,0)" stroke-width="2" fill="none"></circle>
<circle cx="2587.46" cy="1464.26" r="4" stroke="rgb(255,250,0)" stroke-width="2" fill="none"></circle>
<circle cx="5385.03" cy="1140.05" r="4" stroke="rgb(255,250,0)" stroke-width="2" fill="none"></circle>
<circle cx="1227.72" cy="1489.6" r="4" stroke="rgb(255,0,127)" stroke-width="2" fill="none"></circle>
<circle cx="6186.02" cy="1680.61" r="4" stroke="rgb(255,0,127)" stroke-width="2" fill="none"></circle>
<circle cx="1142.89" cy="1492.35" r="4" stroke="rgb(255,242,0)" stroke-width="2" fill="none"></circle>
<circle cx="6849.03" cy="1770.22" r="4" stroke="rgb(255,242,0)" stroke-width="2" fill="none"></circle>
<circle cx="1764.65" cy="1495.56" r="4" stroke="rgb(25,0,255)" stroke-width="2" fill="none"></circle>
<circle cx="5347.25" cy="1083.94" r="4" stroke="rgb(25,0,255)" stroke-width="2" fill="none"></circle>
<circle cx="664.081" cy="1497.5" r="4" stroke="rgb(0,237,255)" stroke-width="2" fill="none"></circle>
<circle cx="5137.5" cy="1428.96" r="4" stroke="rgb(0,237,255)" stroke-width="2" fill="none"></circle>
<circle cx="653.594" cy="1521.48" r="4" stroke="rgb(255,131,0)" stroke-width="2" fill="none"></circle>
<circle cx="5247.88" cy="1451.85" r="4" stroke="rgb(255,131,0)" stroke-width="2" fill="none"></circle>
<circle cx="1338.25" cy="1528.96" r="4" stroke="rgb(0,38,255)" stroke-width="2" fill="none"></circle>
<circle cx="6551.02" cy="2020.26" r="4" stroke="rgb(0,38,255)" stroke-width="2" fill="none"></circle>
<circle cx="1469.43" cy="1530.52" r="4" stroke="rgb(0,255,12)" stroke-width="2" fill="none"></circle>
<circle cx="5615.74" cy="1528.57" r="4" stroke="rgb(0,255,12)" stroke-width="2" fill="none"></circle>
<circle cx="848.173" cy="1544.38" r="4" stroke="rgb(85,0,255)" stroke-width="2" fill="none"></circle>
<circle cx="6168.33" cy="1681.04" r="4" stroke="rgb(85,0,255)" stroke-width="2" fill="none"></circle>
<circle cx="2136.46" cy="1567.28" r="4" stroke="rgb(255,233,0)" stroke-width="2" fill="none"></circle>
<circle cx="5872.82" cy="750.707" r="4" stroke="rgb(255,233,0)" stroke-width="2" fill="none"></circle>
<circle cx="1699.5" cy="1570.99" r="4" stroke="rgb(127,0,255)" stroke-width="2" fill="none"></circle>
<circle cx="5514.13" cy="807.802" r="4" stroke="rgb(127,0,255)" stroke-width="2" fill="none"></circle>
<circle cx="1682.98" cy="1587.05" r="4" stroke="rgb(255,0,195)" stroke-width="2" fill="none"></circle>
<circle cx="6513.56" cy="1656.61" r="4" stroke="rgb(255,0,195)" stroke-width="2" fill="none"></circle>
<circle cx="1760.3" cy="1587.99" r="4" stroke="rgb(0,51,255)" stroke-width="2" fill="none"></circle>
<circle cx="5514.44" cy="1333.73" r="4" stroke="rgb(0,51,255)" stroke-width="2" fill="none"></circle>
<circle cx="2139.18" cy="1589.24" r="4" stroke="rgb(0,46,255)" stroke-width="2" fill="none"></circle>
<circle cx="5438.75" cy="1195.49" r="4" stroke="rgb(0,46,255)" stroke-width="2" fill="none"></circle>
<circle cx="763.796" cy="1608.4" r="4" stroke="rgb(0,17,255)" stroke-width="2" fill="none"></circle>
<circle cx="5518.94" cy="1078.26" r="4" stroke="rgb(0,17,255)" stroke-width="2" fill="none"></circle>
<circle cx="1554.74" cy="1611.41" r="4" stroke="rgb(114,0,255)" stroke-width="2" fill="none"></circle>
<circle cx="5124.77" cy="1426.9" r="4" stroke="rgb(114,0,255)" stroke-width="2" fill="none"></circle>
<circle cx="1703.93" cy="1616.63" r="4" stroke="rgb(0,157,255)" stroke-width="2" fill="none"></circle>
<circle cx="6113.67" cy="1238.79" r="4" stroke="rgb(0,157,255)" stroke-width="2" fill="none"></circle>
<circle cx="758.39" cy="1622.16" r="4" stroke="rgb(0,89,255)" stroke-width="2" fill="none"></circle>
<circle cx="5767.5" cy="1410.75" r="4" stroke="rgb(0,89,255)" stroke-width="2" fill="none"></circle>
<circle cx="849.879" cy="1631.95" r="4" stroke="rgb(25,255,0)" stroke-width="2" fill="none"></circle>
<circle cx="5368.64" cy="1058.76" r="4" stroke="rgb(25,255,0)" stroke-width="2" fill="none"></circle>
<circle cx="740.987" cy="1631.96" r="4" stroke="rgb(216,0,255)" stroke-width="2" fill="none"></circle>
<circle cx="6072.47" cy="1376.14" r="4" stroke="rgb(216,0,255)" stroke-width="2" fill="none"></circle>
<circle cx="1724.7" cy="1635.99" r="4" stroke="rgb(255,136,0)" stroke-width="2" fill="none"></circle>
<circle cx="5761.41" cy="961.887" r="4" stroke="rgb(255,136,0)" stroke-width="2" fill="none"></circle>
<circle cx="1720.79" cy="1648.9" r="4" stroke="rgb(0,85,255)" stroke-width="2" fill="none"></circle>
<circle cx="6180.03" cy="1322.11" r="4" stroke="rgb(0,85,255)" stroke-width="2" fill="none"></circle>
<circle cx="1922.75" cy="1666" r="4" stroke="rgb(33,255,0)" stroke-width="2" fill="none"></circle>
<circle cx="5884.05" cy="1632.94" r="4" stroke="rgb(33,255,0)" stroke-width="2" fill="none"></circle>
<circle cx="641.196" cy="1669.15" r="4" stroke="rgb(110,255,0)" stroke-width="2" fill="none"></circle>
<circle cx="5245.84" cy="742.927" r="4" stroke="rgb(110,255,0)" stroke-width="2" fill="none"></circle>
<circle cx="2140.88" cy="1673.01" r="4" stroke="rgb(0,67,255)" stroke-width="2" fill="none"></circle>
<circle cx="5666.13" cy="1694.87" r="4" stroke="rgb(0,67,255)" stroke-width="2" fill="none"></circle>
<circle cx="1759.1" cy="1704.93" r="4" stroke="rgb(255,0,174)" stroke-width="2" fill="none"></circle>
<circle cx="5684.66" cy="1069.81" r="4" stroke="rgb(255,0,174)" stroke-width="2" fill="none"></circle>
<circle cx="1771.81" cy="1720.17" r="4" stroke="rgb(255,148,0)" stroke-width="2" fill="none"></circle>
<circle cx="6108.49" cy="1240.21" r="4" stroke="rgb(255,148,0)" stroke-width="2" fill="none"></circle>
<circle cx="789.156" cy="1732.25" r="4" stroke="rgb(0,255,191)" stroke-width="2" fill="none"></circle>
<circle cx="5892.89" cy="1498.05" r="4" stroke="rgb(0,255,191)" stroke-width="2" fill="none"></circle>
<circle cx="729.296" cy="1732.72" r="4" stroke="rgb(0,42,255)" stroke-width="2" fill="none"></circle>
<circle cx="5818.87" cy="1414.67" r="4" stroke="rgb(0,42,255)" stroke-width="2" fill="none"></circle>
<circle cx="2053.44" cy="1733.71" r="4" stroke="rgb(0,38,255)" stroke-width="2" fill="none"></circle>
<circle cx="6044.62" cy="1303.47" r="4" stroke="rgb(0,38,255)" stroke-width="2" fill="none"></circle>
<circle cx="787.051" cy="1738.06" r="4" stroke="rgb(89,0,255)" stroke-width="2" fill="none"></circle>
<circle cx="5897.93" cy="1499.77" r="4" stroke="rgb(89,0,255)" stroke-width="2" fill="none"></circle>
<circle cx="1945.79" cy="1745.15" r="4" stroke="rgb(0,255,174)" stroke-width="2" fill="none"></circle>
<circle cx="6765.03" cy="2079.51" r="4" stroke="rgb(0,255,174)" stroke-width="2" fill="none"></circle>
<circle cx="2122" cy="1756.45" r="4" stroke="rgb(199,255,0)" stroke-width="2" fill="none"></circle>
<circle cx="6495.03" cy="1666.16" r="4" stroke="rgb(199,255,0)" stroke-width="2" fill="none"></circle>
<circle cx="2095.41" cy="1770.24" r="4" stroke="rgb(0,212,255)" stroke-width="2" fill="none"></circle>
<circle cx="6505.69" cy="1652.73" r="4" stroke="rgb(0,212,255)" stroke-width="2" fill="none"></circle>
<circle cx="2059.71" cy="1770.78" r="4" stroke="rgb(255,204,0)" stroke-width="2" fill="none"></circle>
<circle cx="5541.23" cy="1302.56" r="4" stroke="rgb(255,204,0)" stroke-width="2" fill="none"></circle>
<circle cx="1788.91" cy="1772.34" r="4" stroke="rgb(0,255,42)" stroke-width="2" fill="none"></circle>
<circle cx="5812.85" cy="1151.73" r="4" stroke="rgb(0,255,42)" stroke-width="2" fill="none"></circle>
<circle cx="1852.71" cy="1820.72" r="4" stroke="rgb(0,80,255)" stroke-width="2" fill="none"></circle>
<circle cx="6496.01" cy="1657.69" r="4" stroke="rgb(0,80,255)" stroke-width="2" fill="none"></circle>
<circle cx="1728.58" cy="1835.16" r="4" stroke="rgb(0,255,131)" stroke-width="2" fill="none"></circle>
<circle cx="5117.58" cy="949.28" r="4" stroke="rgb(0,255,131)" stroke-width="2" fill="none"></circle>
<circle cx="1230.35" cy="1880.96" r="4" stroke="rgb(0,255,21)" stroke-width="2" fill="none"></circle>
<circle cx="6227.42" cy="2471.05" r="4" stroke="rgb(0,255,21)" stroke-width="2" fill="none"></circle>
<circle cx="747.174" cy="1927.11" r="4" stroke="rgb(0,255,4)" stroke-width="2" fill="none"></circle>
<circle cx="6591.35" cy="2062.95" r="4" stroke="rgb(0,255,4)" stroke-width="2" fill="none"></circle>
<circle cx="713.198" cy="1951.62" r="4" stroke="rgb(0,144,255)" stroke-width="2" fill="none"></circle>
<circle cx="6246.14" cy="1757.37" r="4" stroke="rgb(0,144,255)" stroke-width="2" fill="none"></circle>
<circle cx="1614.69" cy="1959" r="4" stroke="rgb(255,148,0)" stroke-width="2" fill="none"></circle>
<circle cx="6547.49" cy="1634.81" r="4" stroke="rgb(255,148,0)" stroke-width="2" fill="none"></circle>
<circle cx="3059.48" cy="1976.01" r="4" stroke="rgb(255,0,221)" stroke-width="2" fill="none"></circle>
<circle cx="5214.51" cy="1203.14" r="4" stroke="rgb(255,0,221)" stroke-width="2" fill="none"></circle>
<circle cx="1465.95" cy="2062.32" r="4" stroke="rgb(255,0,225)" stroke-width="2" fill="none"></circle>
<circle cx="5065.45" cy="1385.3" r="4" stroke="rgb(255,0,225)" stroke-width="2" fill="none"></circle>
<circle cx="893.628" cy="2105.55" r="4" stroke="rgb(0,255,67)" stroke-width="2" fill="none"></circle>
<circle cx="5263.11" cy="1129.07" r="4" stroke="rgb(0,255,67)" stroke-width="2" fill="none"></circle>
<circle cx="528.514" cy="2124.59" r="4" stroke="rgb(0,237,255)" stroke-width="2" fill="none"></circle>
<circle cx="5604.32" cy="784.967" r="4" stroke="rgb(0,237,255)" stroke-width="2" fill="none"></circle>
<circle cx="1143.64" cy="2161.76" r="4" stroke="rgb(0,110,255)" stroke-width="2" fill="none"></circle>
<circle cx="6207.42" cy="1200.34" r="4" stroke="rgb(0,110,255)" stroke-width="2" fill="none"></circle>
<circle cx="496.034" cy="2190.11" r="4" stroke="rgb(255,0,89)" stroke-width="2" fill="none"></circle>
<circle cx="5394.48" cy="1239.99" r="4" stroke="rgb(255,0,89)" stroke-width="2" fill="none"></circle>
<circle cx="2716.89" cy="2208.97" r="4" stroke="rgb(255,182,0)" stroke-width="2" fill="none"></circle>
<circle cx="6442.35" cy="948.059" r="4" stroke="rgb(255,182,0)" stroke-width="2" fill="none"></circle>
<circle cx="2620.42" cy="2216.78" r="4" stroke="rgb(0,169,255)" stroke-width="2" fill="none"></circle>
<circle cx="6131.6" cy="2487.64" r="4" stroke="rgb(0,169,255)" stroke-width="2" fill="none"></circle>
<circle cx="2757.77" cy="2219.57" r="4" stroke="rgb(0,255,93)" stroke-width="2" fill="none"></circle>
<circle cx="5643.06" cy="1571.23" r="4" stroke="rgb(0,255,93)" stroke-width="2" fill="none"></circle>
<circle cx="2677.22" cy="2227.83" r="4" stroke="rgb(255,0,225)" stroke-width="2" fill="none"></circle>
<circle cx="5897.87" cy="1810.81" r="4" stroke="rgb(255,0,225)" stroke-width="2" fill="none"></circle>
<circle cx="2496.8" cy="2243.9" r="4" stroke="rgb(255,255,0)" stroke-width="2" fill="none"></circle>
<circle cx="6584.83" cy="1272.15" r="4" stroke="rgb(255,255,0)" stroke-width="2" fill="none"></circle>
<circle cx="2574.5" cy="2244.82" r="4" stroke="rgb(63,0,255)" stroke-width="2" fill="none"></circle>
<circle cx="5870.4" cy="1684.15" r="4" stroke="rgb(63,0,255)" stroke-width="2" fill="none"></circle>
<circle cx="2610.37" cy="2307.59" r="4" stroke="rgb(144,0,255)" stroke-width="2" fill="none"></circle>
<circle cx="4943.68" cy="1153.14" r="4" stroke="rgb(144,0,255)" stroke-width="2" fill="none"></circle>
<circle cx="1016.05" cy="2309.23" r="4" stroke="rgb(0,255,157)" stroke-width="2" fill="none"></circle>
<circle cx="5940.49" cy="929.394" r="4" stroke="rgb(0,255,157)" stroke-width="2" fill="none"></circle>
<circle cx="2706.97" cy="2313.04" r="4" stroke="rgb(144,255,0)" stroke-width="2" fill="none"></circle>
<circle cx="7154.68" cy="1823.88" r="4" stroke="rgb(144,255,0)" stroke-width="2" fill="none"></circle>
<circle cx="1078.26" cy="2338.22" r="4" stroke="rgb(255,0,216)" stroke-width="2" fill="none"></circle>
<circle cx="6570.55" cy="1630.39" r="4" stroke="rgb(255,0,216)" stroke-width="2" fill="none"></circle>
<circle cx="2309.16" cy="2341.64" r="4" stroke="rgb(255,0,161)" stroke-width="2" fill="none"></circle>
<circle cx="5481.25" cy="1311.45" r="4" stroke="rgb(255,0,161)" stroke-width="2" fill="none"></circle>
<circle cx="1143.21" cy="2341.74" r="4" stroke="rgb(0,221,255)" stroke-width="2" fill="none"></circle>
<circle cx="5828.7" cy="919.098" r="4" stroke="rgb(0,221,255)" stroke-width="2" fill="none"></circle>
<circle cx="2295.83" cy="2359.03" r="4" stroke="rgb(255,225,0)" stroke-width="2" fill="none"></circle>
<circle cx="6473.67" cy="1435.78" r="4" stroke="rgb(255,225,0)" stroke-width="2" fill="none"></circle>
<circle cx="2245.01" cy="2391.44" r="4" stroke="rgb(106,255,0)" stroke-width="2" fill="none"></circle>
<circle cx="5635.66" cy="814.711" r="4" stroke="rgb(106,255,0)" stroke-width="2" fill="none"></circle>
<circle cx="1277.57" cy="2392.41" r="4" stroke="rgb(255,0,46)" stroke-width="2" fill="none"></circle>
<circle cx="6181.62" cy="1354.05" r="4" stroke="rgb(255,0,46)" stroke-width="2" fill="none"></circle>
<circle cx="2188.84" cy="2424.52" r="4" stroke="rgb(0,255,25)" stroke-width="2" fill="none"></circle>
<circle cx="5845.04" cy="1538.15" r="4" stroke="rgb(0,255,25)" stroke-width="2" fill="none"></circle>
<circle cx="2129.01" cy="2445.11" r="4" stroke="rgb(195,0,255)" stroke-width="2" fill="none"></circle>
<circle cx="5653.95" cy="1698.78" r="4" stroke="rgb(195,0,255)" stroke-width="2" fill="none"></circle>
<circle cx="1932.78" cy="2551.18" r="4" stroke="rgb(255,157,0)" stroke-width="2" fill="none"></circle>
<circle cx="6011.86" cy="1561.83" r="4" stroke="rgb(255,157,0)" stroke-width="2" fill="none"></circle>
<circle cx="1256.42" cy="2564.24" r="4" stroke="rgb(0,255,33)" stroke-width="2" fill="none"></circle>
<circle cx="5433.96" cy="1274.44" r="4" stroke="rgb(0,255,33)" stroke-width="2" fill="none"></circle>
<circle cx="1764.23" cy="2638.25" r="4" stroke="rgb(255,80,0)" stroke-width="2" fill="none"></circle>
<circle cx="6835" cy="2121.9" r="4" stroke="rgb(255,80,0)" stroke-width="2" fill="none"></circle>
<circle cx="1301.06" cy="2719.7" r="4" stroke="rgb(0,221,255)" stroke-width="2" fill="none"></circle>
<circle cx="5944.97" cy="2065.84" r="4" stroke="rgb(0,221,255)" stroke-width="2" fill="none"></circle>
<circle cx="1512.75" cy="2740.64" r="4" stroke="rgb(55,0,255)" stroke-width="2" fill="none"></circle>
<circle cx="5120.91" cy="1387.75" r="4" stroke="rgb(55,0,255)" stroke-width="2" fill="none"></circle>
<circle cx="1477.87" cy="2773.97" r="4" stroke="rgb(255,55,0)" stroke-width="2" fill="none"></circle>
<circle cx="5809.3" cy="1409.69" r="4" stroke="rgb(255,55,0)" stroke-width="2" fill="none"></circle>
</svg>