<?xml version="1.0" standalone="yes"?>
<!-- SVG graphic -->
<svg xmlns='http://www.w3.org/2000/svg' xmlns:xlink='http://www.w3.org/1999/xlink'
width="8064px" height="3024px" preserveAspectRatio="xMinYMin meet" viewBox="0 0 8064 3024" version="1.1">
<image x="0" y="0" width="4032px" height="3024px" opacity="1" xlink:href="/home/jeong/Code/2D-to-3D-Modeling-using-AI/Make3D/Image/20200227_180652.jpg"/>
<image x="4032" y="0" width="4032px" height="3024px" opacity="1" xlink:href="/home/jeong/Code/2D-to-3D-Modeling-using-AI/Make3D/Image/20200227_180724.jpg"/>
<polyline points="1931.91,887.977,7146.23,1905.93" stroke="rgb(67,0,255)" stroke-width="2" fill="none"></polyline>
<polyline points="1963.37,904.459,5900.33,1884.15" stroke="rgb(255,85,0)" stroke-width="2" fill="none"></polyline>
<polyline points="2252.61,941.472,6997.9,2244.59" stroke="rgb(4,255,0)" stroke-width="2" fill="none"></polyline>
<polyline points="2028.34,946.676,6323.79,811.492" stroke="rgb(255,233,0)" stroke-width="2" fill="none"></polyline>
<polyline points="1779.65,954.722,5610.57,1080.78" stroke="rgb(0,59,255)" stroke-width="2" fill="none"></polyline>
<polyline points="2678.29,1015.67,5951.41,989.236" stroke="rgb(255,0,101)" stroke-width="2" fill="none"></polyline>
<polyline points="2579.61,1024.5,6168.47,1201.86" stroke="rgb(255,110,0)" stroke-width="2" fill="none"></polyline>
<polyline points="2537.38,1076.68,6608.43,1864.97" stroke="rgb(42,0,255)" stroke-width="2" fill="none"></polyline>
<polyline points="1632.64,1180.59,5954.78,931.192" stroke="rgb(0,255,169)" stroke-width="2" fill="none"></polyline>
<polyline points="1595.92,1196.57,7147.14,1941.49" stroke="rgb(255,0,29)" stroke-width="2" fill="none"></polyline>
<polyline points="1597.88,1202.42,6785.29,954.156" stroke="rgb(0,255,135)" stroke-width="2" fill="none"></polyline>
<polyline points="1587.45,1203.54,6915.19,2330.68" stroke="rgb(233,0,255)" stroke-width="2" fill="none"></polyline>
<polyline points="2407.13,1243.14,6771.25,1300.81" stroke="rgb(0,123,255)" stroke-width="2" fill="none"></polyline>
<polyline points="2418.82,1254.68,6833.82,2377.24" stroke="rgb(255,25,0)" stroke-width="2" fill="none"></polyline>
<polyline points="2510.1,1278.81,7131.31,1451.18" stroke="rgb(255,8,0)" stroke-width="2" fill="none"></polyline>
<polyline points="1308.6,1303.02,5387.44,828.12" stroke="rgb(0,255,178)" stroke-width="2" fill="none"></polyline>
<polyline points="1283.07,1358.88,6505.97,1902.66" stroke="rgb(255,255,0)" stroke-width="2" fill="none"></polyline>
<polyline points="1186.11,1361.05,6954.92,2119.92" stroke="rgb(0,157,255)" stroke-width="2" fill="none"></polyline>
<polyline points="1242.38,1373.28,5444.28,769.713" stroke="rgb(255,0,85)" stroke-width="2" fill="none"></polyline>
<polyline points="2743.77,1377.21,6040.74,1531.21" stroke="rgb(0,255,203)" stroke-width="2" fill="none"></polyline>
<polyline points="1928.29,1386.46,6039.2,1539.29" stroke="rgb(255,0,101)" stroke-width="2" fill="none"></polyline>
<polyline points="1273.47,1413.05,6113.03,1127.88" stroke="rgb(255,0,153)" stroke-width="2" fill="none"></polyline>
<polyline points="1924.57,1415.3,6471.92,1341.59" stroke="rgb(255,195,0)" stroke-width="2" fill="none"></polyline>
<polyline points="2764.99,1440.19,5889,1402.22" stroke="rgb(0,182,255)" stroke-width="2" fill="none"></polyline>
<polyline points="2760.69,1445.72,6028.47,1523" stroke="rgb(255,0,80)" stroke-width="2" fill="none"></polyline>
<polyline points="2198.82,1449.57,5955.46,1889.54" stroke="rgb(255,0,119)" stroke-width="2" fill="none"></polyline>
<polyline points="1742.56,1465.6,7160.59,1401.71" stroke="rgb(229,255,0)" stroke-width="2" fill="none"></polyline>
<polyline points="2764.24,1475.2,5847.34,1324.94" stroke="rgb(118,0,255)" stroke-width="2" fill="none"></polyline>
<polyline points="2684.55,1499.82,6982.54,1855.4" stroke="rgb(21,255,0)" stroke-width="2" fill="none"></polyline>
<polyline points="1716.58,1505.61,7271.28,1566.1" stroke="rgb(255,0,119)" stroke-width="2" fill="none"></polyline>
<polyline points="1998.61,1511.65,6061.79,1887.92" stroke="rgb(255,0,123)" stroke-width="2" fill="none"></polyline>
<polyline points="1299.62,1513.23,5976.65,1133.11" stroke="rgb(255,46,0)" stroke-width="2" fill="none"></polyline>
<polyline points="1883.21,1520.34,6131.44,1118.4" stroke="rgb(0,63,255)" stroke-width="2" fill="none"></polyline>
<polyline points="1131.14,1525.38,6592.85,1870.58" stroke="rgb(255,0,157)" stroke-width="2" fill="none"></polyline>
<polyline points="1677.83,1525.96,5954.48,1767.49" stroke="rgb(229,255,0)" stroke-width="2" fill="none"></polyline>
<polyline points="1672.54,1538.47,6064.28,1896.51" stroke="rgb(123,255,0)" stroke-width="2" fill="none"></polyline>
<polyline points="2541.01,1544.43,7243.2,2186.49" stroke="rgb(0,255,216)" stroke-width="2" fill="none"></polyline>
<polyline points="1383.26,1556.98,5551.88,640.528" stroke="rgb(119,255,0)" stroke-width="2" fill="none"></polyline>
<polyline points="1678.08,1570.61,6065.24,1988.01" stroke="rgb(255,0,80)" stroke-width="2" fill="none"></polyline>
<polyline points="1632.56,1573.91,6608.09,926.925" stroke="rgb(255,0,123)" stroke-width="2" fill="none"></polyline>
<polyline points="2434.35,1577.03,5699.89,1036.65" stroke="rgb(255,0,178)" stroke-width="2" fill="none"></polyline>
<polyline points="2437.28,1592.85,5784.91,1620.54" stroke="rgb(255,21,0)" stroke-width="2" fill="none"></polyline>
<polyline points="1437.57,1605.13,6487.12,1515.24" stroke="rgb(0,255,76)" stroke-width="2" fill="none"></polyline>
<polyline points="2766.32,1613.62,6031.78,1203.33" stroke="rgb(0,255,208)" stroke-width="2" fill="none"></polyline>
<polyline points="2774.12,1618.51,6428.31,1565.91" stroke="rgb(12,0,255)" stroke-width="2" fill="none"></polyline>
<polyline points="2563.34,1621.65,6324.39,1386.37" stroke="rgb(0,255,84)" stroke-width="2" fill="none"></polyline>
<polyline points="1214.87,1621.92,5481.03,1376.48" stroke="rgb(255,0,119)" stroke-width="2" fill="none"></polyline>
<polyline points="1241.02,1649.15,5832.23,1438.38" stroke="rgb(255,0,242)" stroke-width="2" fill="none"></polyline>
<polyline points="2099.41,1655.92,5947.52,1855.82" stroke="rgb(255,0,72)" stroke-width="2" fill="none"></polyline>
<polyline points="2628.31,1670.28,5826.91,1548.05" stroke="rgb(255,0,204)" stroke-width="2" fill="none"></polyline>
<polyline points="2790.33,1682.78,6100.33,1216.46" stroke="rgb(255,0,68)" stroke-width="2" fill="none"></polyline>
<polyline points="2738.62,1689.14,5846.13,1259.44" stroke="rgb(0,208,255)" stroke-width="2" fill="none"></polyline>
<polyline points="1698,1694.92,7186.13,1394.39" stroke="rgb(0,255,118)" stroke-width="2" fill="none"></polyline>
<polyline points="1708.59,1703.43,6977.18,1170.59" stroke="rgb(255,127,0)" stroke-width="2" fill="none"></polyline>
<polyline points="1337.9,1714.25,7292.15,1694.77" stroke="rgb(255,123,0)" stroke-width="2" fill="none"></polyline>
<polyline points="1685.74,1714.62,5967.18,1750.78" stroke="rgb(0,255,38)" stroke-width="2" fill="none"></polyline>
<polyline points="2734.39,1726.15,6352.82,1182.78" stroke="rgb(0,25,255)" stroke-width="2" fill="none"></polyline>
<polyline points="1368.31,1726.82,5626.25,1240.61" stroke="rgb(255,0,140)" stroke-width="2" fill="none"></polyline>
<polyline points="2733.23,1733.86,6726.71,1730.01" stroke="rgb(127,0,255)" stroke-width="2" fill="none"></polyline>
<polyline points="1104.05,1739.47,6205.69,1694.85" stroke="rgb(255,0,46)" stroke-width="2" fill="none"></polyline>
<polyline points="1139.37,1740.16,5635.59,964.03" stroke="rgb(0,255,220)" stroke-width="2" fill="none"></polyline>
<polyline points="1658.41,1742.93,6990.11,1883.47" stroke="rgb(29,255,0)" stroke-width="2" fill="none"></polyline>
<polyline points="1639.31,1759.05,6999.63,2046.19" stroke="rgb(255,0,0)" stroke-width="2" fill="none"></polyline>
<polyline points="1657.81,1769.23,6998.36,2074.44" stroke="rgb(255,157,0)" stroke-width="2" fill="none"></polyline>
<polyline points="1626.81,1772.21,6992.97,2021.86" stroke="rgb(187,255,0)" stroke-width="2" fill="none"></polyline>
<polyline points="1592.63,1777.37,6046.5,1973.9" stroke="rgb(246,0,255)" stroke-width="2" fill="none"></polyline>
<polyline points="2720.75,1779.78,5689.61,894.08" stroke="rgb(0,255,33)" stroke-width="2" fill="none"></polyline>
<polyline points="1636.37,1802.34,7054.55,1973.41" stroke="rgb(29,0,255)" stroke-width="2" fill="none"></polyline>
<polyline points="2777.25,1823.85,5497.14,676.35" stroke="rgb(255,131,0)" stroke-width="2" fill="none"></polyline>
<polyline points="1534.95,1850.19,6344.11,1369.74" stroke="rgb(255,0,80)" stroke-width="2" fill="none"></polyline>
<polyline points="2418.9,1854.95,6419.9,1034.66" stroke="rgb(0,93,255)" stroke-width="2" fill="none"></polyline>
<polyline points="2549.4,1858.03,6875.02,1540.55" stroke="rgb(0,80,255)" stroke-width="2" fill="none"></polyline>
<polyline points="2455.19,1905.56,5823.69,1543.21" stroke="rgb(0,93,255)" stroke-width="2" fill="none"></polyline>
<polyline points="1311.57,1917.64,5794.5,1139.78" stroke="rgb(255,0,17)" stroke-width="2" fill="none"></polyline>
<polyline points="1303.08,1920.63,5722.18,1570.52" stroke="rgb(255,127,0)" stroke-width="2" fill="none"></polyline>
<polyline points="2654.66,1921.22,6733.31,1563.48" stroke="rgb(80,255,0)" stroke-width="2" fill="none"></polyline>
<polyline points="1491.15,1929.63,6889.17,1376.89" stroke="rgb(0,255,67)" stroke-width="2" fill="none"></polyline>
<polyline points="2586.48,1933.78,6503.81,930.621" stroke="rgb(0,25,255)" stroke-width="2" fill="none"></polyline>
<polyline points="2354.13,1959.62,5965.4,957.363" stroke="rgb(153,0,255)" stroke-width="2" fill="none"></polyline>
<polyline points="2501.95,1963.96,5947.66,1644.28" stroke="rgb(255,0,33)" stroke-width="2" fill="none"></polyline>
<polyline points="1426.86,1976.95,6796.48,1763.97" stroke="rgb(255,246,0)" stroke-width="2" fill="none"></polyline>
<polyline points="1841,1979.24,6852.48,2241.29" stroke="rgb(85,0,255)" stroke-width="2" fill="none"></polyline>
<polyline points="1516.61,1991.15,7155.42,1962.51" stroke="rgb(0,242,255)" stroke-width="2" fill="none"></polyline>
<polyline points="2475.21,2011.1,6529.84,2647.73" stroke="rgb(0,144,255)" stroke-width="2" fill="none"></polyline>
<polyline points="1847.4,2014.25,6932.63,2104.33" stroke="rgb(0,255,178)" stroke-width="2" fill="none"></polyline>
<polyline points="1490.23,2016.71,6837.96,1487.71" stroke="rgb(153,255,0)" stroke-width="2" fill="none"></polyline>
<polyline points="705.82,2036.05,5627.99,906.185" stroke="rgb(0,135,255)" stroke-width="2" fill="none"></polyline>
<polyline points="2540.27,2037.15,5837.54,1459.7" stroke="rgb(255,153,0)" stroke-width="2" fill="none"></polyline>
<polyline points="1668.55,2037.79,6292.29,1303.81" stroke="rgb(255,221,0)" stroke-width="2" fill="none"></polyline>
<polyline points="1132.03,2048.04,6482.15,1435.94" stroke="rgb(8,255,0)" stroke-width="2" fill="none"></polyline>
<polyline points="2514.25,2050.13,7005.87,1130.21" stroke="rgb(255,106,0)" stroke-width="2" fill="none"></polyline>
<polyline points="1816.51,2053.64,5780.46,1344.52" stroke="rgb(0,67,255)" stroke-width="2" fill="none"></polyline>
<polyline points="2267.84,2053.91,6328.27,1379.42" stroke="rgb(72,255,0)" stroke-width="2" fill="none"></polyline>
<polyline points="2046.92,2077.04,6417.1,1464.22" stroke="rgb(72,0,255)" stroke-width="2" fill="none"></polyline>
<polyline points="2021.59,2098.55,5558.98,1078.34" stroke="rgb(0,255,55)" stroke-width="2" fill="none"></polyline>
<polyline points="2357.39,2102.98,5804.73,1711.7" stroke="rgb(0,255,254)" stroke-width="2" fill="none"></polyline>
<polyline points="2098.47,2110.35,6677.93,2105.48" stroke="rgb(0,187,255)" stroke-width="2" fill="none"></polyline>
<polyline points="2267.14,2114.23,6892.03,1206.64" stroke="rgb(0,255,55)" stroke-width="2" fill="none"></polyline>
<polyline points="2308.21,2116.15,6912.91,1693.95" stroke="rgb(250,0,255)" stroke-width="2" fill="none"></polyline>
<polyline points="2288.38,2118.36,6892.03,1206.64" stroke="rgb(89,255,0)" stroke-width="2" fill="none"></polyline>
<polyline points="2341.31,2119.4,6255.74,794.886" stroke="rgb(25,255,0)" stroke-width="2" fill="none"></polyline>
<polyline points="753.75,2120.68,5836.01,752.02" stroke="rgb(255,127,0)" stroke-width="2" fill="none"></polyline>
<polyline points="2315.58,2126.55,6982.01,1959.98" stroke="rgb(255,0,169)" stroke-width="2" fill="none"></polyline>
<polyline points="2307.5,2138.18,5379,752.858" stroke="rgb(0,153,255)" stroke-width="2" fill="none"></polyline>
<polyline points="1649.06,2152.82,6798.75,985.063" stroke="rgb(76,0,255)" stroke-width="2" fill="none"></polyline>
<polyline points="2120.05,2154.63,6964.78,1403.7" stroke="rgb(0,76,255)" stroke-width="2" fill="none"></polyline>
<polyline points="1016.49,2158.37,6861.33,1461.49" stroke="rgb(255,0,233)" stroke-width="2" fill="none"></polyline>
<polyline points="1634,2171.62,6329.75,903.534" stroke="rgb(255,148,0)" stroke-width="2" fill="none"></polyline>
<polyline points="1111.07,2174.51,6629.18,1112.25" stroke="rgb(97,255,0)" stroke-width="2" fill="none"></polyline>
<polyline points="1134.25,2273.63,6866.75,1174.2" stroke="rgb(114,255,0)" stroke-width="2" fill="none"></polyline>
<circle cx="1931.91" cy="887.977" r="4" stroke="rgb(67,0,255)" stroke-width="2" fill="none"></circle>
<circle cx="7146.23" cy="1905.93" r="4" stroke="rgb(67,0,255)" stroke-width="2" fill="none"></circle>
<circle cx="1963.37" cy="904.459" r="4" stroke="rgb(255,85,0)" stroke-width="2" fill="none"></circle>
<circle cx="5900.33" cy="1884.15" r="4" stroke="rgb(255,85,0)" stroke-width="2" fill="none"></circle>
<circle cx="2252.61" cy="941.472" r="4" stroke="rgb(4,255,0)" stroke-width="2" fill="none"></circle>
<circle cx="6997.9" cy="2244.59" r="4" stroke="rgb(4,255,0)" stroke-width="2" fill="none"></circle>
<circle cx="2028.34" cy="946.676" r="4" stroke="rgb(255,233,0)" stroke-width="2" fill="none"></circle>
<circle cx="6323.79" cy="811.492" r="4" stroke="rgb(255,233,0)" stroke-width="2" fill="none"></circle>
<circle cx="1779.65" cy="954.722" r="4" stroke="rgb(0,59,255)" stroke-width="2" fill="none"></circle>
<circle cx="5610.57" cy="1080.78" r="4" stroke="rgb(0,59,255)" stroke-width="2" fill="none"></circle>
<circle cx="2678.29" cy="1015.67" r="4" stroke="rgb(255,0,101)" stroke-width="2" fill="none"></circle>
<circle cx="5951.41" cy="989.236" r="4" stroke="rgb(255,0,101)" stroke-width="2" fill="none"></circle>
<circle cx="2579.61" cy="1024.5" r="4" stroke="rgb(255,110,0)" stroke-width="2" fill="none"></circle>
<circle cx="6168.47" cy="1201.86" r="4" stroke="rgb(255,110,0)" stroke-width="2" fill="none"></circle>
<circle cx="2537.38" cy="1076.68" r="4" stroke="rgb(42,0,255)" stroke-width="2" fill="none"></circle>
<circle cx="6608.43" cy="1864.97" r="4" stroke="rgb(42,0,255)" stroke-width="2" fill="none"></circle>
<circle cx="1632.64" cy="1180.59" r="4" stroke="rgb(0,255,169)" stroke-width="2" fill="none"></circle>
<circle cx="5954.78" cy="931.192" r="4" stroke="rgb(0,255,169)" stroke-width="2" fill="none"></circle>
<circle cx="1595.92" cy="1196.57" r="4" stroke="rgb(255,0,29)" stroke-width="2" fill="none"></circle>
<circle cx="7147.14" cy="1941.49" r="4" stroke="rgb(255,0,29)" stroke-width="2" fill="none"></circle>
<circle cx="1597.88" cy="1202.42" r="4" stroke="rgb(0,255,135)" stroke-width="2" fill="none"></circle>
<circle cx="6785.29" cy="954.156" r="4" stroke="rgb(0,255,135)" stroke-width="2" fill="none"></circle>
<circle cx="1587.45" cy="1203.54" r="4" stroke="rgb(233,0,255)" stroke-width="2" fill="none"></circle>
<circle cx="6915.19" cy="2330.68" r="4" stroke="rgb(233,0,255)" stroke-width="2" fill="none"></circle>
<circle cx="2407.13" cy="1243.14" r="4" stroke="rgb(0,123,255)" stroke-width="2" fill="none"></circle>
<circle cx="6771.25" cy="1300.81" r="4" stroke="rgb(0,123,255)" stroke-width="2" fill="none"></circle>
<circle cx="2418.82" cy="1254.68" r="4" stroke="rgb(255,25,0)" stroke-width="2" fill="none"></circle>
<circle cx="6833.82" cy="2377.24" r="4" stroke="rgb(255,25,0)" stroke-width="2" fill="none"></circle>
<circle cx="2510.1" cy="1278.81" r="4" stroke="rgb(255,8,0)" stroke-width="2" fill="none"></circle>
<circle cx="7131.31" cy="1451.18" r="4" stroke="rgb(255,8,0)" stroke-width="2" fill="none"></circle>
<circle cx="1308.6" cy="1303.02" r="4" stroke="rgb(0,255,178)" stroke-width="2" fill="none"></circle>
<circle cx="5387.44" cy="828.12" r="4" stroke="rgb(0,255,178)" stroke-width="2" fill="none"></circle>
<circle cx="1283.07" cy="1358.88" r="4" stroke="rgb(255,255,0)" stroke-width="2" fill="none"></circle>
<circle cx="6505.97" cy="1902.66" r="4" stroke="rgb(255,255,0)" stroke-width="2" fill="none"></circle>
<circle cx="1186.11" cy="1361.05" r="4" stroke="rgb(0,157,255)" stroke-width="2" fill="none"></circle>
<circle cx="6954.92" cy="2119.92" r="4" stroke="rgb(0,157,255)" stroke-width="2" fill="none"></circle>
<circle cx="1242.38" cy="1373.28" r="4" stroke="rgb(255,0,85)" stroke-width="2" fill="none"></circle>
<circle cx="5444.28" cy="769.713" r="4" stroke="rgb(255,0,85)" stroke-width="2" fill="none"></circle>
<circle cx="2743.77" cy="1377.21" r="4" stroke="rgb(0,255,203)" stroke-width="2" fill="none"></circle>
<circle cx="6040.74" cy="1531.21" r="4" stroke="rgb(0,255,203)" stroke-width="2" fill="none"></circle>
<circle cx="1928.29" cy="1386.46" r="4" stroke="rgb(255,0,101)" stroke-width="2" fill="none"></circle>
<circle cx="6039.2" cy="1539.29" r="4" stroke="rgb(255,0,101)" stroke-width="2" fill="none"></circle>
<circle cx="1273.47" cy="1413.05" r="4" stroke="rgb(255,0,153)" stroke-width="2" fill="none"></circle>
<circle cx="6113.03" cy="1127.88" r="4" stroke="rgb(255,0,153)" stroke-width="2" fill="none"></circle>
<circle cx="1924.57" cy="1415.3" r="4" stroke="rgb(255,195,0)" stroke-width="2" fill="none"></circle>
<circle cx="6471.92" cy="1341.59" r="4" stroke="rgb(255,195,0)" stroke-width="2" fill="none"></circle>
<circle cx="2764.99" cy="1440.19" r="4" stroke="rgb(0,182,255)" stroke-width="2" fill="none"></circle>
<circle cx="5889" cy="1402.22" r="4" stroke="rgb(0,182,255)" stroke-width="2" fill="none"></circle>
<circle cx="2760.69" cy="1445.72" r="4" stroke="rgb(255,0,80)" stroke-width="2" fill="none"></circle>
<circle cx="6028.47" cy="1523" r="4" stroke="rgb(255,0,80)" stroke-width="2" fill="none"></circle>
<circle cx="2198.82" cy="1449.57" r="4" stroke="rgb(255,0,119)" stroke-width="2" fill="none"></circle>
<circle cx="5955.46" cy="1889.54" r="4" stroke="rgb(255,0,119)" stroke-width="2" fill="none"></circle>
<circle cx="1742.56" cy="1465.6" r="4" stroke="rgb(229,255,0)" stroke-width="2" fill="none"></circle>
<circle cx="7160.59" cy="1401.71" r="4" stroke="rgb(229,255,0)" stroke-width="2" fill="none"></circle>
<circle cx="2764.24" cy="1475.2" r="4" stroke="rgb(118,0,255)" stroke-width="2" fill="none"></circle>
<circle cx="5847.34" cy="1324.94" r="4" stroke="rgb(118,0,255)" stroke-width="2" fill="none"></circle>
<circle cx="2684.55" cy="1499.82" r="4" stroke="rgb(21,255,0)" stroke-width="2" fill="none"></circle>
<circle cx="6982.54" cy="1855.4" r="4" stroke="rgb(21,255,0)" stroke-width="2" fill="none"></circle>
<circle cx="1716.58" cy="1505.61" r="4" stroke="rgb(255,0,119)" stroke-width="2" fill="none"></circle>
<circle cx="7271.28" cy="1566.1" r="4" stroke="rgb(255,0,119)" stroke-width="2" fill="none"></circle>
<circle cx="1998.61" cy="1511.65" r="4" stroke="rgb(255,0,123)" stroke-width="2" fill="none"></circle>
<circle cx="6061.79" cy="1887.92" r="4" stroke="rgb(255,0,123)" stroke-width="2" fill="none"></circle>
<circle cx="1299.62" cy="1513.23" r="4" stroke="rgb(255,46,0)" stroke-width="2" fill="none"></circle>
<circle cx="5976.65" cy="1133.11" r="4" stroke="rgb(255,46,0)" stroke-width="2" fill="none"></circle>
<circle cx="1883.21" cy="1520.34" r="4" stroke="rgb(0,63,255)" stroke-width="2" fill="none"></circle>
<circle cx="6131.44" cy="1118.4" r="4" stroke="rgb(0,63,255)" stroke-width="2" fill="none"></circle>
<circle cx="1131.14" cy="1525.38" r="4" stroke="rgb(255,0,157)" stroke-width="2" fill="none"></circle>
<circle cx="6592.85" cy="1870.58" r="4" stroke="rgb(255,0,157)" stroke-width="2" fill="none"></circle>
<circle cx="1677.83" cy="1525.96" r="4" stroke="rgb(229,255,0)" stroke-width="2" fill="none"></circle>
<circle cx="5954.48" cy="1767.49" r="4" stroke="rgb(229,255,0)" stroke-width="2" fill="none"></circle>
<circle cx="1672.54" cy="1538.47" r="4" stroke="rgb(123,255,0)" stroke-width="2" fill="none"></circle>
<circle cx="6064.28" cy="1896.51" r="4" stroke="rgb(123,255,0)" stroke-width="2" fill="none"></circle>
<circle cx="2541.01" cy="1544.43" r="4" stroke="rgb(0,255,216)" stroke-width="2" fill="none"></circle>
<circle cx="7243.2" cy="2186.49" r="4" stroke="rgb(0,255,216)" stroke-width="2" fill="none"></circle>
<circle cx="1383.26" cy="1556.98" r="4" stroke="rgb(119,255,0)" stroke-width="2" fill="none"></circle>
<circle cx="5551.88" cy="640.528" r="4" stroke="rgb(119,255,0)" stroke-width="2" fill="none"></circle>
<circle cx="1678.08" cy="1570.61" r="4" stroke="rgb(255,0,80)" stroke-width="2" fill="none"></circle>
<circle cx="6065.24" cy="1988.01" r="4" stroke="rgb(255,0,80)" stroke-width="2" fill="none"></circle>
<circle cx="1632.56" cy="1573.91" r="4" stroke="rgb(255,0,123)" stroke-width="2" fill="none"></circle>
<circle cx="6608.09" cy="926.925" r="4" stroke="rgb(255,0,123)" stroke-width="2" fill="none"></circle>
<circle cx="2434.35" cy="1577.03" r="4" stroke="rgb(255,0,178)" stroke-width="2" fill="none"></circle>
<circle cx="5699.89" cy="1036.65" r="4" stroke="rgb(255,0,178)" stroke-width="2" fill="none"></circle>
<circle cx="2437.28" cy="1592.85" r="4" stroke="rgb(255,21,0)" stroke-width="2" fill="none"></circle>
<circle cx="5784.91" cy="1620.54" r="4" stroke="rgb(255,21,0)" stroke-width="2" fill="none"></circle>
<circle cx="1437.57" cy="1605.13" r="4" stroke="rgb(0,255,76)" stroke-width="2" fill="none"></circle>
<circle cx="6487.12" cy="1515.24" r="4" stroke="rgb(0,255,76)" stroke-width="2" fill="none"></circle>
<circle cx="2766.32" cy="1613.62" r="4" stroke="rgb(0,255,208)" stroke-width="2" fill="none"></circle>
<circle cx="6031.78" cy="1203.33" r="4" stroke="rgb(0,255,208)" stroke-width="2" fill="none"></circle>
<circle cx="2774.12" cy="1618.51" r="4" stroke="rgb(12,0,255)" stroke-width="2" fill="none"></circle>
<circle cx="6428.31" cy="1565.91" r="4" stroke="rgb(12,0,255)" stroke-width="2" fill="none"></circle>
<circle cx="2563.34" cy="1621.65" r="4" stroke="rgb(0,255,84)" stroke-width="2" fill="none"></circle>
<circle cx="6324.39" cy="1386.37" r="4" stroke="rgb(0,255,84)" stroke-width="2" fill="none"></circle>
<circle cx="1214.87" cy="1621.92" r="4" stroke="rgb(255,0,119)" stroke-width="2" fill="none"></circle>
<circle cx="5481.03" cy="1376.48" r="4" stroke="rgb(255,0,119)" stroke-width="2" fill="none"></circle>
<circle cx="1241.02" cy="1649.15" r="4" stroke="rgb(255,0,242)" stroke-width="2" fill="none"></circle>
<circle cx="5832.23" cy="1438.38" r="4" stroke="rgb(255,0,242)" stroke-width="2" fill="none"></circle>
<circle cx="2099.41" cy="1655.92" r="4" stroke="rgb(255,0,72)" stroke-width="2" fill="none"></circle>
<circle cx="5947.52" cy="1855.82" r="4" stroke="rgb(255,0,72)" stroke-width="2" fill="none"></circle>
<circle cx="2628.31" cy="1670.28" r="4" stroke="rgb(255,0,204)" stroke-width="2" fill="none"></circle>
<circle cx="5826.91" cy="1548.05" r="4" stroke="rgb(255,0,204)" stroke-width="2" fill="none"></circle>
<circle cx="2790.33" cy="1682.78" r="4" stroke="rgb(255,0,68)" stroke-width="2" fill="none"></circle>
<circle cx="6100.33" cy="1216.46" r="4" stroke="rgb(255,0,68)" stroke-width="2" fill="none"></circle>
<circle cx="2738.62" cy="1689.14" r="4" stroke="rgb(0,208,255)" stroke-width="2" fill="none"></circle>
<circle cx="5846.13" cy="1259.44" r="4" stroke="rgb(0,208,255)" stroke-width="2" fill="none"></circle>
<circle cx="1698" cy="1694.92" r="4" stroke="rgb(0,255,118)" stroke-width="2" fill="none"></circle>
<circle cx="7186.13" cy="1394.39" r="4" stroke="rgb(0,255,118)" stroke-width="2" fill="none"></circle>
<circle cx="1708.59" cy="1703.43" r="4" stroke="rgb(255,127,0)" stroke-width="2" fill="none"></circle>
<circle cx="6977.18" cy="1170.59" r="4" stroke="rgb(255,127,0)" stroke-width="2" fill="none"></circle>
<circle cx="1337.9" cy="1714.25" r="4" stroke="rgb(255,123,0)" stroke-width="2" fill="none"></circle>
<circle cx="7292.15" cy="1694.77" r="4" stroke="rgb(255,123,0)" stroke-width="2" fill="none"></circle>
<circle cx="1685.74" cy="1714.62" r="4" stroke="rgb(0,255,38)" stroke-width="2" fill="none"></circle>
<circle cx="5967.18" cy="1750.78" r="4" stroke="rgb(0,255,38)" stroke-width="2" fill="none"></circle>
<circle cx="2734.39" cy="1726.15" r="4" stroke="rgb(0,25,255)" stroke-width="2" fill="none"></circle>
<circle cx="6352.82" cy="1182.78" r="4" stroke="rgb(0,25,255)" stroke-width="2" fill="none"></circle>
<circle cx="1368.31" cy="1726.82" r="4" stroke="rgb(255,0,140)" stroke-width="2" fill="none"></circle>
<circle cx="5626.25" cy="1240.61" r="4" stroke="rgb(255,0,140)" stroke-width="2" fill="none"></circle>
<circle cx="2733.23" cy="1733.86" r="4" stroke="rgb(127,0,255)" stroke-width="2" fill="none"></circle>
<circle cx="6726.71" cy="1730.01" r="4" stroke="rgb(127,0,255)" stroke-width="2" fill="none"></circle>
<circle cx="1104.05" cy="1739.47" r="4" stroke="rgb(255,0,46)" stroke-width="2" fill="none"></circle>
<circle cx="6205.69" cy="1694.85" r="4" stroke="rgb(255,0,46)" stroke-width="2" fill="none"></circle>
<circle cx="1139.37" cy="1740.16" r="4" stroke="rgb(0,255,220)" stroke-width="2" fill="none"></circle>
<circle cx="5635.59" cy="964.03" r="4" stroke="rgb(0,255,220)" stroke-width="2" fill="none"></circle>
<circle cx="1658.41" cy="1742.93" r="4" stroke="rgb(29,255,0)" stroke-width="2" fill="none"></circle>
<circle cx="6990.11" cy="1883.47" r="4" stroke="rgb(29,255,0)" stroke-width="2" fill="none"></circle>
<circle cx="1639.31" cy="1759.05" r="4" stroke="rgb(255,0,0)" stroke-width="2" fill="none"></circle>
<circle cx="6999.63" cy="2046.19" r="4" stroke="rgb(255,0,0)" stroke-width="2" fill="none"></circle>
<circle cx="1657.81" cy="1769.23" r="4" stroke="rgb(255,157,0)" stroke-width="2" fill="none"></circle>
<circle cx="6998.36" cy="2074.44" r="4" stroke="rgb(255,157,0)" stroke-width="2" fill="none"></circle>
<circle cx="1626.81" cy="1772.21" r="4" stroke="rgb(187,255,0)" stroke-width="2" fill="none"></circle>
<circle cx="6992.97" cy="2021.86" r="4" stroke="rgb(187,255,0)" stroke-width="2" fill="none"></circle>
<circle cx="1592.63" cy="1777.37" r="4" stroke="rgb(246,0,255)" stroke-width="2" fill="none"></circle>
<circle cx="6046.5" cy="1973.9" r="4" stroke="rgb(246,0,255)" stroke-width="2" fill="none"></circle>
<circle cx="2720.75" cy="1779.78" r="4" stroke="rgb(0,255,33)" stroke-width="2" fill="none"></circle>
<circle cx="5689.61" cy="894.08" r="4" stroke="rgb(0,255,33)" stroke-width="2" fill="none"></circle>
<circle cx="1636.37" cy="1802.34" r="4" stroke="rgb(29,0,255)" stroke-width="2" fill="none"></circle>
<circle cx="7054.55" cy="1973.41" r="4" stroke="rgb(29,0,255)" stroke-width="2" fill="none"></circle>
<circle cx="2777.25" cy="1823.85" r="4" stroke="rgb(255,131,0)" stroke-width="2" fill="none"></circle>
<circle cx="5497.14" cy="676.35" r="4" stroke="rgb(255,131,0)" stroke-width="2" fill="none"></circle>
<circle cx="1534.95" cy="1850.19" r="4" stroke="rgb(255,0,80)" stroke-width="2" fill="none"></circle>
<circle cx="6344.11" cy="1369.74" r="4" stroke="rgb(255,0,80)" stroke-width="2" fill="none"></circle>
<circle cx="2418.9" cy="1854.95" r="4" stroke="rgb(0,93,255)" stroke-width="2" fill="none"></circle>
<circle cx="6419.9" cy="1034.66" r="4" stroke="rgb(0,93,255)" stroke-width="2" fill="none"></circle>
<circle cx="2549.4" cy="1858.03" r="4" stroke="rgb(0,80,255)" stroke-width="2" fill="none"></circle>
<circle cx="6875.02" cy="1540.55" r="4" stroke="rgb(0,80,255)" stroke-width="2" fill="none"></circle>
<circle cx="2455.19" cy="1905.56" r="4" stroke="rgb(0,93,255)" stroke-width="2" fill="none"></circle>
<circle cx="5823.69" cy="1543.21" r="4" stroke="rgb(0,93,255)" stroke-width="2" fill="none"></circle>
<circle cx="1311.57" cy="1917.64" r="4" stroke="rgb(255,0,17)" stroke-width="2" fill="none"></circle>
<circle cx="5794.5" cy="1139.78" r="4" stroke="rgb(255,0,17)" stroke-width="2" fill="none"></circle>
<circle cx="1303.08" cy="1920.63" r="4" stroke="rgb(255,127,0)" stroke-width="2" fill="none"></circle>
<circle cx="5722.18" cy="1570.52" r="4" stroke="rgb(255,127,0)" stroke-width="2" fill="none"></circle>
<circle cx="2654.66" cy="1921.22" r="4" stroke="rgb(80,255,0)" stroke-width="2" fill="none"></circle>
<circle cx="6733.31" cy="1563.48" r="4" stroke="rgb(80,255,0)" stroke-width="2" fill="none"></circle>
<circle cx="1491.15" cy="1929.63" r="4" stroke="rgb(0,255,67)" stroke-width="2" fill="none"></circle>
<circle cx="6889.17" cy="1376.89" r="4" stroke="rgb(0,255,67)" stroke-width="2" fill="none"></circle>
<circle cx="2586.48" cy="1933.78" r="4" stroke="rgb(0,25,255)" stroke-width="2" fill="none"></circle>
<circle cx="6503.81" cy="930.621" r="4" stroke="rgb(0,25,255)" stroke-width="2" fill="none"></circle>
<circle cx="2354.13" cy="1959.62" r="4" stroke="rgb(153,0,255)" stroke-width="2" fill="none"></circle>
<circle cx="5965.4" cy="957.363" r="4" stroke="rgb(153,0,255)" stroke-width="2" fill="none"></circle>
<circle cx="2501.95" cy="1963.96" r="4" stroke="rgb(255,0,33)" stroke-width="2" fill="none"></circle>
<circle cx="5947.66" cy="1644.28" r="4" stroke="rgb(255,0,33)" stroke-width="2" fill="none"></circle>
<circle cx="1426.86" cy="1976.95" r="4" stroke="rgb(255,246,0)" stroke-width="2" fill="none"></circle>
<circle cx="6796.48" cy="1763.97" r="4" stroke="rgb(255,246,0)" stroke-width="2" fill="none"></circle>
<circle cx="1841" cy="1979.24" r="4" stroke="rgb(85,0,255)" stroke-width="2" fill="none"></circle>
<circle cx="6852.48" cy="2241.29" r="4" stroke="rgb(85,0,255)" stroke-width="2" fill="none"></circle>
<circle cx="1516.61" cy="1991.15" r="4" stroke="rgb(0,242,255)" stroke-width="2" fill="none"></circle>
<circle cx="7155.42" cy="1962.51" r="4" stroke="rgb(0,242,255)" stroke-width="2" fill="none"></circle>
<circle cx="2475.21" cy="2011.1" r="4" stroke="rgb(0,144,255)" stroke-width="2" fill="none"></circle>
<circle cx="6529.84" cy="2647.73" r="4" stroke="rgb(0,144,255)" stroke-width="2" fill="none"></circle>
<circle cx="1847.4" cy="2014.25" r="4" stroke="rgb(0,255,178)" stroke-width="2" fill="none"></circle>
<circle cx="6932.63" cy="2104.33" r="4" stroke="rgb(0,255,178)" stroke-width="2" fill="none"></circle>
<circle cx="1490.23" cy="2016.71" r="4" stroke="rgb(153,255,0)" stroke-width="2" fill="none"></circle>
<circle cx="6837.96" cy="1487.71" r="4" stroke="rgb(153,255,0)" stroke-width="2" fill="none"></circle>
<circle cx="705.82" cy="2036.05" r="4" stroke="rgb(0,135,255)" stroke-width="2" fill="none"></circle>
<circle cx="5627.99" cy="906.185" r="4" stroke="rgb(0,135,255)" stroke-width="2" fill="none"></circle>
<circle cx="2540.27" cy="2037.15" r="4" stroke="rgb(255,153,0)" stroke-width="2" fill="none"></circle>
<circle cx="5837.54" cy="1459.7" r="4" stroke="rgb(255,153,0)" stroke-width="2" fill="none"></circle>
<circle cx="1668.55" cy="2037.79" r="4" stroke="rgb(255,221,0)" stroke-width="2" fill="none"></circle>
<circle cx="6292.29" cy="1303.81" r="4" stroke="rgb(255,221,0)" stroke-width="2" fill="none"></circle>
<circle cx="1132.03" cy="2048.04" r="4" stroke="rgb(8,255,0)" stroke-width="2" fill="none"></circle>
<circle cx="6482.15" cy="1435.94" r="4" stroke="rgb(8,255,0)" stroke-width="2" fill="none"></circle>
<circle cx="2514.25" cy="2050.13" r="4" stroke="rgb(255,106,0)" stroke-width="2" fill="none"></circle>
<circle cx="7005.87" cy="1130.21" r="4" stroke="rgb(255,106,0)" stroke-width="2" fill="none"></circle>
<circle cx="1816.51" cy="2053.64" r="4" stroke="rgb(0,67,255)" stroke-width="2" fill="none"></circle>
<circle cx="5780.46" cy="1344.52" r="4" stroke="rgb(0,67,255)" stroke-width="2" fill="none"></circle>
<circle cx="2267.84" cy="2053.91" r="4" stroke="rgb(72,255,0)" stroke-width="2" fill="none"></circle>
<circle cx="6328.27" cy="1379.42" r="4" stroke="rgb(72,255,0)" stroke-width="2" fill="none"></circle>
<circle cx="2046.92" cy="2077.04" r="4" stroke="rgb(72,0,255)" stroke-width="2" fill="none"></circle>
<circle cx="6417.1" cy="1464.22" r="4" stroke="rgb(72,0,255)" stroke-width="2" fill="none"></circle>
<circle cx="2021.59" cy="2098.55" r="4" stroke="rgb(0,255,55)" stroke-width="2" fill="none"></circle>
<circle cx="5558.98" cy="1078.34" r="4" stroke="rgb(0,255,55)" stroke-width="2" fill="none"></circle>
<circle cx="2357.39" cy="2102.98" r="4" stroke="rgb(0,255,254)" stroke-width="2" fill="none"></circle>
<circle cx="5804.73" cy="1711.7" r="4" stroke="rgb(0,255,254)" stroke-width="2" fill="none"></circle>
<circle cx="2098.47" cy="2110.35" r="4" stroke="rgb(0,187,255)" stroke-width="2" fill="none"></circle>
<circle cx="6677.93" cy="2105.48" r="4" stroke="rgb(0,187,255)" stroke-width="2" fill="none"></circle>
<circle cx="2267.14" cy="2114.23" r="4" stroke="rgb(0,255,55)" stroke-width="2" fill="none"></circle>
<circle cx="6892.03" cy="1206.64" r="4" stroke="rgb(0,255,55)" stroke-width="2" fill="none"></circle>
<circle cx="2308.21" cy="2116.15" r="4" stroke="rgb(250,0,255)" stroke-width="2" fill="none"></circle>
<circle cx="6912.91" cy="1693.95" r="4" stroke="rgb(250,0,255)" stroke-width="2" fill="none"></circle>
<circle cx="2288.38" cy="2118.36" r="4" stroke="rgb(89,255,0)" stroke-width="2" fill="none"></circle>
<circle cx="6892.03" cy="1206.64" r="4" stroke="rgb(89,255,0)" stroke-width="2" fill="none"></circle>
<circle cx="2341.31" cy="2119.4" r="4" stroke="rgb(25,255,0)" stroke-width="2" fill="none"></circle>
<circle cx="6255.74" cy="794.886" r="4" stroke="rgb(25,255,0)" stroke-width="2" fill="none"></circle>
<circle cx="753.75" cy="2120.68" r="4" stroke="rgb(255,127,0)" stroke-width="2" fill="none"></circle>
<circle cx="5836.01" cy="752.02" r="4" stroke="rgb(255,127,0)" stroke-width="2" fill="none"></circle>
<circle cx="2315.58" cy="2126.55" r="4" stroke="rgb(255,0,169)" stroke-width="2" fill="none"></circle>
<circle cx="6982.01" cy="1959.98" r="4" stroke="rgb(255,0,169)" stroke-width="2" fill="none"></circle>
<circle cx="2307.5" cy="2138.18" r="4" stroke="rgb(0,153,255)" stroke-width="2" fill="none"></circle>
<circle cx="5379" cy="752.858" r="4" stroke="rgb(0,153,255)" stroke-width="2" fill="none"></circle>
<circle cx="1649.06" cy="2152.82" r="4" stroke="rgb(76,0,255)" stroke-width="2" fill="none"></circle>
<circle cx="6798.75" cy="985.063" r="4" stroke="rgb(76,0,255)" stroke-width="2" fill="none"></circle>
<circle cx="2120.05" cy="2154.63" r="4" stroke="rgb(0,76,255)" stroke-width="2" fill="none"></circle>
<circle cx="6964.78" cy="1403.7" r="4" stroke="rgb(0,76,255)" stroke-width="2" fill="none"></circle>
<circle cx="1016.49" cy="2158.37" r="4" stroke="rgb(255,0,233)" stroke-width="2" fill="none"></circle>
<circle cx="6861.33" cy="1461.49" r="4" stroke="rgb(255,0,233)" stroke-width="2" fill="none"></circle>
<circle cx="1634" cy="2171.62" r="4" stroke="rgb(255,148,0)" stroke-width="2" fill="none"></circle>
<circle cx="6329.75" cy="903.534" r="4" stroke="rgb(255,148,0)" stroke-width="2" fill="none"></circle>
<circle cx="1111.07" cy="2174.51" r="4" stroke="rgb(97,255,0)" stroke-width="2" fill="none"></circle>
<circle cx="6629.18" cy="1112.25" r="4" stroke="rgb(97,255,0)" stroke-width="2" fill="none"></circle>
<circle cx="1134.25" cy="2273.63" r="4" stroke="rgb(114,255,0)" stroke-width="2" fill="none"></circle>
<circle cx="6866.75" cy="1174.2" r="4" stroke="rgb(114,255,0)" stroke-width="2" fill="none"></circle>
</svg>