<?xml version="1.0" standalone="yes"?>
<!-- SVG graphic -->
<svg xmlns='http://www.w3.org/2000/svg' xmlns:xlink='http://www.w3.org/1999/xlink'
width="8064px" height="3024px" preserveAspectRatio="xMinYMin meet" viewBox="0 0 8064 3024" version="1.1">
<image x="0" y="0" width="4032px" height="3024px" opacity="1" xlink:href="/home/jeong/Code/2D-to-3D-Modeling-using-AI/Make3D/Image/20200227_180657.jpg"/>
<image x="4032" y="0" width="4032px" height="3024px" opacity="1" xlink:href="/home/jeong/Code/2D-to-3D-Modeling-using-AI/Make3D/Image/20200227_180730.jpg"/>
<polyline points="2277.91,969.824,6678.66,2249.7" stroke="rgb(0,255,191)" stroke-width="2" fill="none"></polyline>
<polyline points="2267.04,971.418,6669.12,2260.17" stroke="rgb(0,33,255)" stroke-width="2" fill="none"></polyline>
<polyline points="1039.36,1130.1,6606.96,1715.61" stroke="rgb(165,0,255)" stroke-width="2" fill="none"></polyline>
<polyline points="857.569,1130.48,5936.12,1187.76" stroke="rgb(255,0,25)" stroke-width="2" fill="none"></polyline>
<polyline points="2387.28,1264.97,6910.54,1504.6" stroke="rgb(0,157,255)" stroke-width="2" fill="none"></polyline>
<polyline points="2205.46,1294.86,5752.43,1588.92" stroke="rgb(255,165,0)" stroke-width="2" fill="none"></polyline>
<polyline points="1205.77,1330.64,5676.36,476.329" stroke="rgb(72,0,255)" stroke-width="2" fill="none"></polyline>
<polyline points="2522.67,1395.65,6327.03,1328.34" stroke="rgb(153,255,0)" stroke-width="2" fill="none"></polyline>
<polyline points="1181.24,1401.81,6410.66,859.491" stroke="rgb(0,255,254)" stroke-width="2" fill="none"></polyline>
<polyline points="1455.68,1409.68,6791.74,1500.6" stroke="rgb(0,199,255)" stroke-width="2" fill="none"></polyline>
<polyline points="2616.38,1419.29,6174.11,2540.75" stroke="rgb(0,255,59)" stroke-width="2" fill="none"></polyline>
<polyline points="1337.13,1440.58,5985.85,2414.3" stroke="rgb(242,255,0)" stroke-width="2" fill="none"></polyline>
<polyline points="2504.6,1449.82,6263.79,977.366" stroke="rgb(0,255,199)" stroke-width="2" fill="none"></polyline>
<polyline points="1430.64,1450.76,5932.2,1715.16" stroke="rgb(255,0,114)" stroke-width="2" fill="none"></polyline>
<polyline points="2567.96,1480.75,6694.87,1633.29" stroke="rgb(255,17,0)" stroke-width="2" fill="none"></polyline>
<polyline points="2528.49,1492.14,6378.91,1402.95" stroke="rgb(208,255,0)" stroke-width="2" fill="none"></polyline>
<polyline points="2561.78,1495.34,6317.37,1266.93" stroke="rgb(131,255,0)" stroke-width="2" fill="none"></polyline>
<polyline points="1921,1495.83,5853.83,1612.73" stroke="rgb(255,0,68)" stroke-width="2" fill="none"></polyline>
<polyline points="1078.27,1533.13,5932.81,1392.14" stroke="rgb(182,0,255)" stroke-width="2" fill="none"></polyline>
<polyline points="2534.32,1542.4,6111.66,1046.34" stroke="rgb(157,0,255)" stroke-width="2" fill="none"></polyline>
<polyline points="1478.5,1550.03,5819.39,1658.89" stroke="rgb(80,0,255)" stroke-width="2" fill="none"></polyline>
<polyline points="1456.91,1572.66,5954.16,1630.99" stroke="rgb(0,255,114)" stroke-width="2" fill="none"></polyline>
<polyline points="1350.85,1587.45,6475.16,887.06" stroke="rgb(0,221,255)" stroke-width="2" fill="none"></polyline>
<polyline points="1452.29,1590.36,5985.89,1785.09" stroke="rgb(255,208,0)" stroke-width="2" fill="none"></polyline>
<polyline points="1410.76,1620.36,5977.51,1687.2" stroke="rgb(0,89,255)" stroke-width="2" fill="none"></polyline>
<polyline points="2286.04,1652.41,6076.27,1723.24" stroke="rgb(76,255,0)" stroke-width="2" fill="none"></polyline>
<polyline points="1143.5,1691.09,6063.89,963.738" stroke="rgb(255,0,38)" stroke-width="2" fill="none"></polyline>
<polyline points="1313.84,1726.42,6839.13,1618.92" stroke="rgb(255,0,114)" stroke-width="2" fill="none"></polyline>
<polyline points="1115.06,1727.03,5671.61,1439.76" stroke="rgb(33,255,0)" stroke-width="2" fill="none"></polyline>
<polyline points="1028.24,1754.6,6629.58,1757.58" stroke="rgb(255,93,0)" stroke-width="2" fill="none"></polyline>
<polyline points="1711.43,1763.53,6686.77,1580.87" stroke="rgb(63,255,0)" stroke-width="2" fill="none"></polyline>
<polyline points="2378.41,1766.91,5708.93,1324.87" stroke="rgb(0,255,123)" stroke-width="2" fill="none"></polyline>
<polyline points="967.284,1791.25,6350.75,2159.63" stroke="rgb(0,255,25)" stroke-width="2" fill="none"></polyline>
<polyline points="1634.13,1811.52,5835.66,1708.76" stroke="rgb(67,0,255)" stroke-width="2" fill="none"></polyline>
<polyline points="2577.48,1848.84,6777.89,1284.02" stroke="rgb(255,63,0)" stroke-width="2" fill="none"></polyline>
<polyline points="1153.6,1858.74,6733.88,1776.91" stroke="rgb(0,165,255)" stroke-width="2" fill="none"></polyline>
<polyline points="1342.2,1867.65,6712.85,1119.58" stroke="rgb(233,0,255)" stroke-width="2" fill="none"></polyline>
<polyline points="2493.5,1868.9,6646.72,1191.16" stroke="rgb(135,0,255)" stroke-width="2" fill="none"></polyline>
<polyline points="932.144,1875.77,5498.21,464.242" stroke="rgb(195,0,255)" stroke-width="2" fill="none"></polyline>
<polyline points="1928.91,1888.67,5727.32,1386.26" stroke="rgb(255,0,55)" stroke-width="2" fill="none"></polyline>
<polyline points="1338.13,1916.57,5892.75,1827.93" stroke="rgb(255,0,93)" stroke-width="2" fill="none"></polyline>
<polyline points="1083.12,1916.87,6475.9,2297.14" stroke="rgb(255,255,0)" stroke-width="2" fill="none"></polyline>
<polyline points="2075.6,1951.52,5690.65,1290.73" stroke="rgb(178,0,255)" stroke-width="2" fill="none"></polyline>
<polyline points="1707.29,1987.97,6750.6,1324.18" stroke="rgb(0,255,106)" stroke-width="2" fill="none"></polyline>
<polyline points="2367.03,1993.11,6829.13,1335.13" stroke="rgb(255,140,0)" stroke-width="2" fill="none"></polyline>
<polyline points="1672.55,1994.62,6067.01,1760.6" stroke="rgb(199,0,255)" stroke-width="2" fill="none"></polyline>
<polyline points="815.585,2005.5,5810.71,2405.2" stroke="rgb(135,255,0)" stroke-width="2" fill="none"></polyline>
<polyline points="818.58,2073.65,6378.2,1196.77" stroke="rgb(255,0,25)" stroke-width="2" fill="none"></polyline>
<polyline points="1442.83,2087.2,6106.62,1038.16" stroke="rgb(131,0,255)" stroke-width="2" fill="none"></polyline>
<polyline points="1563.26,2095.98,6404,1179.7" stroke="rgb(255,46,0)" stroke-width="2" fill="none"></polyline>
<polyline points="1479.36,2101.61,6042.34,1019.72" stroke="rgb(0,255,97)" stroke-width="2" fill="none"></polyline>
<polyline points="1524.79,2108.83,6004.93,859.45" stroke="rgb(0,255,212)" stroke-width="2" fill="none"></polyline>
<polyline points="1596.59,2115.67,6481.07,1392.02" stroke="rgb(255,131,0)" stroke-width="2" fill="none"></polyline>
<polyline points="768.34,2120.64,5886.53,434.606" stroke="rgb(255,0,119)" stroke-width="2" fill="none"></polyline>
<polyline points="2004.91,2128.92,5301.21,998.136" stroke="rgb(119,255,0)" stroke-width="2" fill="none"></polyline>
<polyline points="2193.91,2135.95,6336.71,670.93" stroke="rgb(0,255,8)" stroke-width="2" fill="none"></polyline>
<polyline points="1971.52,2139.68,6642.61,1456.67" stroke="rgb(255,0,229)" stroke-width="2" fill="none"></polyline>
<polyline points="2323.04,2141.25,6740.77,1881.78" stroke="rgb(255,0,191)" stroke-width="2" fill="none"></polyline>
<polyline points="784.845,2144.32,6000.95,2367.97" stroke="rgb(106,255,0)" stroke-width="2" fill="none"></polyline>
<polyline points="729.25,2183.4,6579.53,1945.02" stroke="rgb(212,0,255)" stroke-width="2" fill="none"></polyline>
<polyline points="2266.52,2183.8,6396.67,1155.42" stroke="rgb(255,0,93)" stroke-width="2" fill="none"></polyline>
<polyline points="1356.14,2210.2,6107.09,1596.63" stroke="rgb(203,255,0)" stroke-width="2" fill="none"></polyline>
<polyline points="1059.99,2232.21,6693,979.374" stroke="rgb(169,255,0)" stroke-width="2" fill="none"></polyline>
<polyline points="623.489,2232.74,6758.1,1259.01" stroke="rgb(255,0,101)" stroke-width="2" fill="none"></polyline>
<polyline points="635.152,2250.54,5890.33,679.844" stroke="rgb(0,169,255)" stroke-width="2" fill="none"></polyline>
<polyline points="2313.09,2260.44,5639.15,1361.65" stroke="rgb(106,255,0)" stroke-width="2" fill="none"></polyline>
<polyline points="582.902,2282.92,6100.04,1095.55" stroke="rgb(0,255,246)" stroke-width="2" fill="none"></polyline>
<polyline points="1177.55,2287.05,6538.68,752.278" stroke="rgb(255,34,0)" stroke-width="2" fill="none"></polyline>
<polyline points="1341.89,2330.2,5832.69,1251.61" stroke="rgb(0,0,255)" stroke-width="2" fill="none"></polyline>
<polyline points="1629.17,2331.63,5696.09,1442.74" stroke="rgb(67,255,0)" stroke-width="2" fill="none"></polyline>
<polyline points="484.511,2350.04,6610.57,2156.53" stroke="rgb(0,55,255)" stroke-width="2" fill="none"></polyline>
<polyline points="1566.67,2366.59,6653.02,1561.59" stroke="rgb(0,93,255)" stroke-width="2" fill="none"></polyline>
<polyline points="1256.95,2374.07,6259,1171.96" stroke="rgb(0,255,186)" stroke-width="2" fill="none"></polyline>
<polyline points="1273.36,2377.34,6296.51,1418.71" stroke="rgb(0,255,127)" stroke-width="2" fill="none"></polyline>
<polyline points="725.844,2405.91,6057.61,1715.1" stroke="rgb(0,21,255)" stroke-width="2" fill="none"></polyline>
<polyline points="851.749,2475.07,6546.95,1183.43" stroke="rgb(216,255,0)" stroke-width="2" fill="none"></polyline>
<polyline points="805.077,2568.07,5510.06,540.827" stroke="rgb(182,255,0)" stroke-width="2" fill="none"></polyline>
<circle cx="2277.91" cy="969.824" r="4" stroke="rgb(0,255,191)" stroke-width="2" fill="none"></circle>
<circle cx="6678.66" cy="2249.7" r="4" stroke="rgb(0,255,191)" stroke-width="2" fill="none"></circle>
<circle cx="2267.04" cy="971.418" r="4" stroke="rgb(0,33,255)" stroke-width="2" fill="none"></circle>
<circle cx="6669.12" cy="2260.17" r="4" stroke="rgb(0,33,255)" stroke-width="2" fill="none"></circle>
<circle cx="1039.36" cy="1130.1" r="4" stroke="rgb(165,0,255)" stroke-width="2" fill="none"></circle>
<circle cx="6606.96" cy="1715.61" r="4" stroke="rgb(165,0,255)" stroke-width="2" fill="none"></circle>
<circle cx="857.569" cy="1130.48" r="4" stroke="rgb(255,0,25)" stroke-width="2" fill="none"></circle>
<circle cx="5936.12" cy="1187.76" r="4" stroke="rgb(255,0,25)" stroke-width="2" fill="none"></circle>
<circle cx="2387.28" cy="1264.97" r="4" stroke="rgb(0,157,255)" stroke-width="2" fill="none"></circle>
<circle cx="6910.54" cy="1504.6" r="4" stroke="rgb(0,157,255)" stroke-width="2" fill="none"></circle>
<circle cx="2205.46" cy="1294.86" r="4" stroke="rgb(255,165,0)" stroke-width="2" fill="none"></circle>
<circle cx="5752.43" cy="1588.92" r="4" stroke="rgb(255,165,0)" stroke-width="2" fill="none"></circle>
<circle cx="1205.77" cy="1330.64" r="4" stroke="rgb(72,0,255)" stroke-width="2" fill="none"></circle>
<circle cx="5676.36" cy="476.329" r="4" stroke="rgb(72,0,255)" stroke-width="2" fill="none"></circle>
<circle cx="2522.67" cy="1395.65" r="4" stroke="rgb(153,255,0)" stroke-width="2" fill="none"></circle>
<circle cx="6327.03" cy="1328.34" r="4" stroke="rgb(153,255,0)" stroke-width="2" fill="none"></circle>
<circle cx="1181.24" cy="1401.81" r="4" stroke="rgb(0,255,254)" stroke-width="2" fill="none"></circle>
<circle cx="6410.66" cy="859.491" r="4" stroke="rgb(0,255,254)" stroke-width="2" fill="none"></circle>
<circle cx="1455.68" cy="1409.68" r="4" stroke="rgb(0,199,255)" stroke-width="2" fill="none"></circle>
<circle cx="6791.74" cy="1500.6" r="4" stroke="rgb(0,199,255)" stroke-width="2" fill="none"></circle>
<circle cx="2616.38" cy="1419.29" r="4" stroke="rgb(0,255,59)" stroke-width="2" fill="none"></circle>
<circle cx="6174.11" cy="2540.75" r="4" stroke="rgb(0,255,59)" stroke-width="2" fill="none"></circle>
<circle cx="1337.13" cy="1440.58" r="4" stroke="rgb(242,255,0)" stroke-width="2" fill="none"></circle>
<circle cx="5985.85" cy="2414.3" r="4" stroke="rgb(242,255,0)" stroke-width="2" fill="none"></circle>
<circle cx="2504.6" cy="1449.82" r="4" stroke="rgb(0,255,199)" stroke-width="2" fill="none"></circle>
<circle cx="6263.79" cy="977.366" r="4" stroke="rgb(0,255,199)" stroke-width="2" fill="none"></circle>
<circle cx="1430.64" cy="1450.76" r="4" stroke="rgb(255,0,114)" stroke-width="2" fill="none"></circle>
<circle cx="5932.2" cy="1715.16" r="4" stroke="rgb(255,0,114)" stroke-width="2" fill="none"></circle>
<circle cx="2567.96" cy="1480.75" r="4" stroke="rgb(255,17,0)" stroke-width="2" fill="none"></circle>
<circle cx="6694.87" cy="1633.29" r="4" stroke="rgb(255,17,0)" stroke-width="2" fill="none"></circle>
<circle cx="2528.49" cy="1492.14" r="4" stroke="rgb(208,255,0)" stroke-width="2" fill="none"></circle>
<circle cx="6378.91" cy="1402.95" r="4" stroke="rgb(208,255,0)" stroke-width="2" fill="none"></circle>
<circle cx="2561.78" cy="1495.34" r="4" stroke="rgb(131,255,0)" stroke-width="2" fill="none"></circle>
<circle cx="6317.37" cy="1266.93" r="4" stroke="rgb(131,255,0)" stroke-width="2" fill="none"></circle>
<circle cx="1921" cy="1495.83" r="4" stroke="rgb(255,0,68)" stroke-width="2" fill="none"></circle>
<circle cx="5853.83" cy="1612.73" r="4" stroke="rgb(255,0,68)" stroke-width="2" fill="none"></circle>
<circle cx="1078.27" cy="1533.13" r="4" stroke="rgb(182,0,255)" stroke-width="2" fill="none"></circle>
<circle cx="5932.81" cy="1392.14" r="4" stroke="rgb(182,0,255)" stroke-width="2" fill="none"></circle>
<circle cx="2534.32" cy="1542.4" r="4" stroke="rgb(157,0,255)" stroke-width="2" fill="none"></circle>
<circle cx="6111.66" cy="1046.34" r="4" stroke="rgb(157,0,255)" stroke-width="2" fill="none"></circle>
<circle cx="1478.5" cy="1550.03" r="4" stroke="rgb(80,0,255)" stroke-width="2" fill="none"></circle>
<circle cx="5819.39" cy="1658.89" r="4" stroke="rgb(80,0,255)" stroke-width="2" fill="none"></circle>
<circle cx="1456.91" cy="1572.66" r="4" stroke="rgb(0,255,114)" stroke-width="2" fill="none"></circle>
<circle cx="5954.16" cy="1630.99" r="4" stroke="rgb(0,255,114)" stroke-width="2" fill="none"></circle>
<circle cx="1350.85" cy="1587.45" r="4" stroke="rgb(0,221,255)" stroke-width="2" fill="none"></circle>
<circle cx="6475.16" cy="887.06" r="4" stroke="rgb(0,221,255)" stroke-width="2" fill="none"></circle>
<circle cx="1452.29" cy="1590.36" r="4" stroke="rgb(255,208,0)" stroke-width="2" fill="none"></circle>
<circle cx="5985.89" cy="1785.09" r="4" stroke="rgb(255,208,0)" stroke-width="2" fill="none"></circle>
<circle cx="1410.76" cy="1620.36" r="4" stroke="rgb(0,89,255)" stroke-width="2" fill="none"></circle>
<circle cx="5977.51" cy="1687.2" r="4" stroke="rgb(0,89,255)" stroke-width="2" fill="none"></circle>
<circle cx="2286.04" cy="1652.41" r="4" stroke="rgb(76,255,0)" stroke-width="2" fill="none"></circle>
<circle cx="6076.27" cy="1723.24" r="4" stroke="rgb(76,255,0)" stroke-width="2" fill="none"></circle>
<circle cx="1143.5" cy="1691.09" r="4" stroke="rgb(255,0,38)" stroke-width="2" fill="none"></circle>
<circle cx="6063.89" cy="963.738" r="4" stroke="rgb(255,0,38)" stroke-width="2" fill="none"></circle>
<circle cx="1313.84" cy="1726.42" r="4" stroke="rgb(255,0,114)" stroke-width="2" fill="none"></circle>
<circle cx="6839.13" cy="1618.92" r="4" stroke="rgb(255,0,114)" stroke-width="2" fill="none"></circle>
<circle cx="1115.06" cy="1727.03" r="4" stroke="rgb(33,255,0)" stroke-width="2" fill="none"></circle>
<circle cx="5671.61" cy="1439.76" r="4" stroke="rgb(33,255,0)" stroke-width="2" fill="none"></circle>
<circle cx="1028.24" cy="1754.6" r="4" stroke="rgb(255,93,0)" stroke-width="2" fill="none"></circle>
<circle cx="6629.58" cy="1757.58" r="4" stroke="rgb(255,93,0)" stroke-width="2" fill="none"></circle>
<circle cx="1711.43" cy="1763.53" r="4" stroke="rgb(63,255,0)" stroke-width="2" fill="none"></circle>
<circle cx="6686.77" cy="1580.87" r="4" stroke="rgb(63,255,0)" stroke-width="2" fill="none"></circle>
<circle cx="2378.41" cy="1766.91" r="4" stroke="rgb(0,255,123)" stroke-width="2" fill="none"></circle>
<circle cx="5708.93" cy="1324.87" r="4" stroke="rgb(0,255,123)" stroke-width="2" fill="none"></circle>
<circle cx="967.284" cy="1791.25" r="4" stroke="rgb(0,255,25)" stroke-width="2" fill="none"></circle>
<circle cx="6350.75" cy="2159.63" r="4" stroke="rgb(0,255,25)" stroke-width="2" fill="none"></circle>
<circle cx="1634.13" cy="1811.52" r="4" stroke="rgb(67,0,255)" stroke-width="2" fill="none"></circle>
<circle cx="5835.66" cy="1708.76" r="4" stroke="rgb(67,0,255)" stroke-width="2" fill="none"></circle>
<circle cx="2577.48" cy="1848.84" r="4" stroke="rgb(255,63,0)" stroke-width="2" fill="none"></circle>
<circle cx="6777.89" cy="1284.02" r="4" stroke="rgb(255,63,0)" stroke-width="2" fill="none"></circle>
<circle cx="1153.6" cy="1858.74" r="4" stroke="rgb(0,165,255)" stroke-width="2" fill="none"></circle>
<circle cx="6733.88" cy="1776.91" r="4" stroke="rgb(0,165,255)" stroke-width="2" fill="none"></circle>
<circle cx="1342.2" cy="1867.65" r="4" stroke="rgb(233,0,255)" stroke-width="2" fill="none"></circle>
<circle cx="6712.85" cy="1119.58" r="4" stroke="rgb(233,0,255)" stroke-width="2" fill="none"></circle>
<circle cx="2493.5" cy="1868.9" r="4" stroke="rgb(135,0,255)" stroke-width="2" fill="none"></circle>
<circle cx="6646.72" cy="1191.16" r="4" stroke="rgb(135,0,255)" stroke-width="2" fill="none"></circle>
<circle cx="932.144" cy="1875.77" r="4" stroke="rgb(195,0,255)" stroke-width="2" fill="none"></circle>
<circle cx="5498.21" cy="464.242" r="4" stroke="rgb(195,0,255)" stroke-width="2" fill="none"></circle>
<circle cx="1928.91" cy="1888.67" r="4" stroke="rgb(255,0,55)" stroke-width="2" fill="none"></circle>
<circle cx="5727.32" cy="1386.26" r="4" stroke="rgb(255,0,55)" stroke-width="2" fill="none"></circle>
<circle cx="1338.13" cy="1916.57" r="4" stroke="rgb(255,0,93)" stroke-width="2" fill="none"></circle>
<circle cx="5892.75" cy="1827.93" r="4" stroke="rgb(255,0,93)" stroke-width="2" fill="none"></circle>
<circle cx="1083.12" cy="1916.87" r="4" stroke="rgb(255,255,0)" stroke-width="2" fill="none"></circle>
<circle cx="6475.9" cy="2297.14" r="4" stroke="rgb(255,255,0)" stroke-width="2" fill="none"></circle>
<circle cx="2075.6" cy="1951.52" r="4" stroke="rgb(178,0,255)" stroke-width="2" fill="none"></circle>
<circle cx="5690.65" cy="1290.73" r="4" stroke="rgb(178,0,255)" stroke-width="2" fill="none"></circle>
<circle cx="1707.29" cy="1987.97" r="4" stroke="rgb(0,255,106)" stroke-width="2" fill="none"></circle>
<circle cx="6750.6" cy="1324.18" r="4" stroke="rgb(0,255,106)" stroke-width="2" fill="none"></circle>
<circle cx="2367.03" cy="1993.11" r="4" stroke="rgb(255,140,0)" stroke-width="2" fill="none"></circle>
<circle cx="6829.13" cy="1335.13" r="4" stroke="rgb(255,140,0)" stroke-width="2" fill="none"></circle>
<circle cx="1672.55" cy="1994.62" r="4" stroke="rgb(199,0,255)" stroke-width="2" fill="none"></circle>
<circle cx="6067.01" cy="1760.6" r="4" stroke="rgb(199,0,255)" stroke-width="2" fill="none"></circle>
<circle cx="815.585" cy="2005.5" r="4" stroke="rgb(135,255,0)" stroke-width="2" fill="none"></circle>
<circle cx="5810.71" cy="2405.2" r="4" stroke="rgb(135,255,0)" stroke-width="2" fill="none"></circle>
<circle cx="818.58" cy="2073.65" r="4" stroke="rgb(255,0,25)" stroke-width="2" fill="none"></circle>
<circle cx="6378.2" cy="1196.77" r="4" stroke="rgb(255,0,25)" stroke-width="2" fill="none"></circle>
<circle cx="1442.83" cy="2087.2" r="4" stroke="rgb(131,0,255)" stroke-width="2" fill="none"></circle>
<circle cx="6106.62" cy="1038.16" r="4" stroke="rgb(131,0,255)" stroke-width="2" fill="none"></circle>
<circle cx="1563.26" cy="2095.98" r="4" stroke="rgb(255,46,0)" stroke-width="2" fill="none"></circle>
<circle cx="6404" cy="1179.7" r="4" stroke="rgb(255,46,0)" stroke-width="2" fill="none"></circle>
<circle cx="1479.36" cy="2101.61" r="4" stroke="rgb(0,255,97)" stroke-width="2" fill="none"></circle>
<circle cx="6042.34" cy="1019.72" r="4" stroke="rgb(0,255,97)" stroke-width="2" fill="none"></circle>
<circle cx="1524.79" cy="2108.83" r="4" stroke="rgb(0,255,212)" stroke-width="2" fill="none"></circle>
<circle cx="6004.93" cy="859.45" r="4" stroke="rgb(0,255,212)" stroke-width="2" fill="none"></circle>
<circle cx="1596.59" cy="2115.67" r="4" stroke="rgb(255,131,0)" stroke-width="2" fill="none"></circle>
<circle cx="6481.07" cy="1392.02" r="4" stroke="rgb(255,131,0)" stroke-width="2" fill="none"></circle>
<circle cx="768.34" cy="2120.64" r="4" stroke="rgb(255,0,119)" stroke-width="2" fill="none"></circle>
<circle cx="5886.53" cy="434.606" r="4" stroke="rgb(255,0,119)" stroke-width="2" fill="none"></circle>
<circle cx="2004.91" cy="2128.92" r="4" stroke="rgb(119,255,0)" stroke-width="2" fill="none"></circle>
<circle cx="5301.21" cy="998.136" r="4" stroke="rgb(119,255,0)" stroke-width="2" fill="none"></circle>
<circle cx="2193.91" cy="2135.95" r="4" stroke="rgb(0,255,8)" stroke-width="2" fill="none"></circle>
<circle cx="6336.71" cy="670.93" r="4" stroke="rgb(0,255,8)" stroke-width="2" fill="none"></circle>
<circle cx="1971.52" cy="2139.68" r="4" stroke="rgb(255,0,229)" stroke-width="2" fill="none"></circle>
<circle cx="6642.61" cy="1456.67" r="4" stroke="rgb(255,0,229)" stroke-width="2" fill="none"></circle>
<circle cx="2323.04" cy="2141.25" r="4" stroke="rgb(255,0,191)" stroke-width="2" fill="none"></circle>
<circle cx="6740.77" cy="1881.78" r="4" stroke="rgb(255,0,191)" stroke-width="2" fill="none"></circle>
<circle cx="784.845" cy="2144.32" r="4" stroke="rgb(106,255,0)" stroke-width="2" fill="none"></circle>
<circle cx="6000.95" cy="2367.97" r="4" stroke="rgb(106,255,0)" stroke-width="2" fill="none"></circle>
<circle cx="729.25" cy="2183.4" r="4" stroke="rgb(212,0,255)" stroke-width="2" fill="none"></circle>
<circle cx="6579.53" cy="1945.02" r="4" stroke="rgb(212,0,255)" stroke-width="2" fill="none"></circle>
<circle cx="2266.52" cy="2183.8" r="4" stroke="rgb(255,0,93)" stroke-width="2" fill="none"></circle>
<circle cx="6396.67" cy="1155.42" r="4" stroke="rgb(255,0,93)" stroke-width="2" fill="none"></circle>
<circle cx="1356.14" cy="2210.2" r="4" stroke="rgb(203,255,0)" stroke-width="2" fill="none"></circle>
<circle cx="6107.09" cy="1596.63" r="4" stroke="rgb(203,255,0)" stroke-width="2" fill="none"></circle>
<circle cx="1059.99" cy="2232.21" r="4" stroke="rgb(169,255,0)" stroke-width="2" fill="none"></circle>
<circle cx="6693" cy="979.374" r="4" stroke="rgb(169,255,0)" stroke-width="2" fill="none"></circle>
<circle cx="623.489" cy="2232.74" r="4" stroke="rgb(255,0,101)" stroke-width="2" fill="none"></circle>
<circle cx="6758.1" cy="1259.01" r="4" stroke="rgb(255,0,101)" stroke-width="2" fill="none"></circle>
<circle cx="635.152" cy="2250.54" r="4" stroke="rgb(0,169,255)" stroke-width="2" fill="none"></circle>
<circle cx="5890.33" cy="679.844" r="4" stroke="rgb(0,169,255)" stroke-width="2" fill="none"></circle>
<circle cx="2313.09" cy="2260.44" r="4" stroke="rgb(106,255,0)" stroke-width="2" fill="none"></circle>
<circle cx="5639.15" cy="1361.65" r="4" stroke="rgb(106,255,0)" stroke-width="2" fill="none"></circle>
<circle cx="582.902" cy="2282.92" r="4" stroke="rgb(0,255,246)" stroke-width="2" fill="none"></circle>
<circle cx="6100.04" cy="1095.55" r="4" stroke="rgb(0,255,246)" stroke-width="2" fill="none"></circle>
<circle cx="1177.55" cy="2287.05" r="4" stroke="rgb(255,34,0)" stroke-width="2" fill="none"></circle>
<circle cx="6538.68" cy="752.278" r="4" stroke="rgb(255,34,0)" stroke-width="2" fill="none"></circle>
<circle cx="1341.89" cy="2330.2" r="4" stroke="rgb(0,0,255)" stroke-width="2" fill="none"></circle>
<circle cx="5832.69" cy="1251.61" r="4" stroke="rgb(0,0,255)" stroke-width="2" fill="none"></circle>
<circle cx="1629.17" cy="2331.63" r="4" stroke="rgb(67,255,0)" stroke-width="2" fill="none"></circle>
<circle cx="5696.09" cy="1442.74" r="4" stroke="rgb(67,255,0)" stroke-width="2" fill="none"></circle>
<circle cx="484.511" cy="2350.04" r="4" stroke="rgb(0,55,255)" stroke-width="2" fill="none"></circle>
<circle cx="6610.57" cy="2156.53" r="4" stroke="rgb(0,55,255)" stroke-width="2" fill="none"></circle>
<circle cx="1566.67" cy="2366.59" r="4" stroke="rgb(0,93,255)" stroke-width="2" fill="none"></circle>
<circle cx="6653.02" cy="1561.59" r="4" stroke="rgb(0,93,255)" stroke-width="2" fill="none"></circle>
<circle cx="1256.95" cy="2374.07" r="4" stroke="rgb(0,255,186)" stroke-width="2" fill="none"></circle>
<circle cx="6259" cy="1171.96" r="4" stroke="rgb(0,255,186)" stroke-width="2" fill="none"></circle>
<circle cx="1273.36" cy="2377.34" r="4" stroke="rgb(0,255,127)" stroke-width="2" fill="none"></circle>
<circle cx="6296.51" cy="1418.71" r="4" stroke="rgb(0,255,127)" stroke-width="2" fill="none"></circle>
<circle cx="725.844" cy="2405.91" r="4" stroke="rgb(0,21,255)" stroke-width="2" fill="none"></circle>
<circle cx="6057.61" cy="1715.1" r="4" stroke="rgb(0,21,255)" stroke-width="2" fill="none"></circle>
<circle cx="851.749" cy="2475.07" r="4" stroke="rgb(216,255,0)" stroke-width="2" fill="none"></circle>
<circle cx="6546.95" cy="1183.43" r="4" stroke="rgb(216,255,0)" stroke-width="2" fill="none"></circle>
<circle cx="805.077" cy="2568.07" r="4" stroke="rgb(182,255,0)" stroke-width="2" fill="none"></circle>
<circle cx="5510.06" cy="540.827" r="4" stroke="rgb(182,255,0)" stroke-width="2" fill="none"></circle>
</svg>