<?xml version="1.0" standalone="yes"?>
<!-- SVG graphic -->
<svg xmlns='http://www.w3.org/2000/svg' xmlns:xlink='http://www.w3.org/1999/xlink'
width="8064px" height="3024px" preserveAspectRatio="xMinYMin meet" viewBox="0 0 8064 3024" version="1.1">
<image x="0" y="0" width="4032px" height="3024px" opacity="1" xlink:href="/home/jeong/Code/2D-to-3D-Modeling-using-AI/Make3D/Image/20200227_180704.jpg"/>
<image x="4032" y="0" width="4032px" height="3024px" opacity="1" xlink:href="/home/jeong/Code/2D-to-3D-Modeling-using-AI/Make3D/Image/20200227_180724.jpg"/>
<polyline points="1498.72,339.83,7045.57,2018.78" stroke="rgb(0,255,199)" stroke-width="2" fill="none"></polyline>
<polyline points="1371.29,367.756,6094.7,1132.03" stroke="rgb(212,255,0)" stroke-width="2" fill="none"></polyline>
<polyline points="1468.6,371.971,7070.59,1978.73" stroke="rgb(33,255,0)" stroke-width="2" fill="none"></polyline>
<polyline points="1367.07,373.961,6417.1,1464.22" stroke="rgb(0,12,255)" stroke-width="2" fill="none"></polyline>
<polyline points="1376.54,389.519,6265.87,1461.51" stroke="rgb(25,255,0)" stroke-width="2" fill="none"></polyline>
<polyline points="1492.41,403.727,5379,752.858" stroke="rgb(242,255,0)" stroke-width="2" fill="none"></polyline>
<polyline points="1431.01,406.028,5553.53,937.46" stroke="rgb(182,255,0)" stroke-width="2" fill="none"></polyline>
<polyline points="1265.12,414.502,5570.56,1075.9" stroke="rgb(255,85,0)" stroke-width="2" fill="none"></polyline>
<polyline points="1480.63,428.925,7148.38,1351.85" stroke="rgb(0,114,255)" stroke-width="2" fill="none"></polyline>
<polyline points="1715.2,447.364,6829.43,1139.71" stroke="rgb(0,242,255)" stroke-width="2" fill="none"></polyline>
<polyline points="1165.22,463.971,7246.27,2159.52" stroke="rgb(255,153,0)" stroke-width="2" fill="none"></polyline>
<polyline points="1718.81,490.349,6650.72,2059.41" stroke="rgb(255,68,0)" stroke-width="2" fill="none"></polyline>
<polyline points="1765.06,491.084,6240.1,1576.24" stroke="rgb(255,29,0)" stroke-width="2" fill="none"></polyline>
<polyline points="1727.28,532.095,6057.32,1675.69" stroke="rgb(255,0,250)" stroke-width="2" fill="none"></polyline>
<polyline points="2016.47,567.407,6974.97,1525.53" stroke="rgb(208,255,0)" stroke-width="2" fill="none"></polyline>
<polyline points="1735.59,592.712,5566.01,883.351" stroke="rgb(255,0,12)" stroke-width="2" fill="none"></polyline>
<polyline points="1661.29,606.696,7106.74,1777.53" stroke="rgb(178,0,255)" stroke-width="2" fill="none"></polyline>
<polyline points="1933.11,701.585,6282.68,1500.59" stroke="rgb(0,255,29)" stroke-width="2" fill="none"></polyline>
<polyline points="1599.13,711.538,5955.12,1480.11" stroke="rgb(255,157,0)" stroke-width="2" fill="none"></polyline>
<polyline points="1479.58,721.961,6619.12,858.922" stroke="rgb(0,153,255)" stroke-width="2" fill="none"></polyline>
<polyline points="1459.26,774.981,6479.12,1451.68" stroke="rgb(0,255,80)" stroke-width="2" fill="none"></polyline>
<polyline points="1620.21,786.482,5537.69,1098.04" stroke="rgb(0,127,255)" stroke-width="2" fill="none"></polyline>
<polyline points="1656.02,788.306,6975.61,1943.56" stroke="rgb(255,0,182)" stroke-width="2" fill="none"></polyline>
<polyline points="2587.47,799.503,6953.79,2058.4" stroke="rgb(225,255,0)" stroke-width="2" fill="none"></polyline>
<polyline points="1645.13,800.778,5981.25,1868.87" stroke="rgb(110,255,0)" stroke-width="2" fill="none"></polyline>
<polyline points="1456.58,802.451,5953.54,782.687" stroke="rgb(0,0,255)" stroke-width="2" fill="none"></polyline>
<polyline points="1661.1,806.982,6024.54,2065" stroke="rgb(110,0,255)" stroke-width="2" fill="none"></polyline>
<polyline points="1430.29,829.588,6712.97,1854.39" stroke="rgb(0,89,255)" stroke-width="2" fill="none"></polyline>
<polyline points="1443.96,829.984,6236.19,1107.37" stroke="rgb(255,0,182)" stroke-width="2" fill="none"></polyline>
<polyline points="1436.35,844.25,5877.17,701.945" stroke="rgb(255,46,0)" stroke-width="2" fill="none"></polyline>
<polyline points="1623.03,850.275,7218.21,2118.16" stroke="rgb(255,0,178)" stroke-width="2" fill="none"></polyline>
<polyline points="1338.07,854.962,6645.69,977.577" stroke="rgb(255,0,17)" stroke-width="2" fill="none"></polyline>
<polyline points="1412.61,855.667,5959.71,819.715" stroke="rgb(161,255,0)" stroke-width="2" fill="none"></polyline>
<polyline points="1408.08,860.517,6804.22,1782.66" stroke="rgb(255,0,246)" stroke-width="2" fill="none"></polyline>
<polyline points="1636.77,862.237,6004.58,1867.82" stroke="rgb(0,25,255)" stroke-width="2" fill="none"></polyline>
<polyline points="1665.62,878.555,5802.98,1717.51" stroke="rgb(221,255,0)" stroke-width="2" fill="none"></polyline>
<polyline points="1371.5,887.658,6312.37,1394.53" stroke="rgb(0,12,255)" stroke-width="2" fill="none"></polyline>
<polyline points="1515.94,888.862,6292.29,1303.81" stroke="rgb(255,0,208)" stroke-width="2" fill="none"></polyline>
<polyline points="1658.57,890.775,6034.76,1953.38" stroke="rgb(135,255,0)" stroke-width="2" fill="none"></polyline>
<polyline points="2492.83,901.806,6872.24,1681.05" stroke="rgb(127,255,0)" stroke-width="2" fill="none"></polyline>
<polyline points="2487.11,904.176,6867.09,1683.54" stroke="rgb(255,29,0)" stroke-width="2" fill="none"></polyline>
<polyline points="2715.3,907.181,6062.05,1657.06" stroke="rgb(255,0,17)" stroke-width="2" fill="none"></polyline>
<polyline points="1975.76,909.897,6093.34,1944.14" stroke="rgb(55,255,0)" stroke-width="2" fill="none"></polyline>
<polyline points="2139.71,916.474,7173.15,1803.21" stroke="rgb(255,59,0)" stroke-width="2" fill="none"></polyline>
<polyline points="2637.06,919.937,6529.84,2647.73" stroke="rgb(246,0,255)" stroke-width="2" fill="none"></polyline>
<polyline points="1674.8,921.907,6010.6,1929.82" stroke="rgb(255,212,0)" stroke-width="2" fill="none"></polyline>
<polyline points="1351.59,926.601,6935.45,1995.7" stroke="rgb(255,46,0)" stroke-width="2" fill="none"></polyline>
<polyline points="1590.75,936.903,7005.87,1130.21" stroke="rgb(119,255,0)" stroke-width="2" fill="none"></polyline>
<polyline points="1700.32,952.127,5823.84,1725.79" stroke="rgb(255,208,0)" stroke-width="2" fill="none"></polyline>
<polyline points="2107.15,964.742,6443.25,2567.78" stroke="rgb(174,0,255)" stroke-width="2" fill="none"></polyline>
<polyline points="1557.06,971.485,6596.66,882.801" stroke="rgb(238,0,255)" stroke-width="2" fill="none"></polyline>
<polyline points="1639.99,1010.55,7019.95,1887.2" stroke="rgb(0,221,255)" stroke-width="2" fill="none"></polyline>
<polyline points="2750.85,1014.31,5960.51,1785.43" stroke="rgb(255,12,0)" stroke-width="2" fill="none"></polyline>
<polyline points="1963.66,1023.73,6972.13,1962.15" stroke="rgb(0,255,21)" stroke-width="2" fill="none"></polyline>
<polyline points="1667.29,1032.22,6976.01,1840.08" stroke="rgb(0,255,33)" stroke-width="2" fill="none"></polyline>
<polyline points="1505.83,1077.23,6722.59,2136.09" stroke="rgb(97,255,0)" stroke-width="2" fill="none"></polyline>
<polyline points="1703.65,1080.82,5926.4,1894.05" stroke="rgb(0,12,255)" stroke-width="2" fill="none"></polyline>
<polyline points="1405.76,1084.88,5924.89,1633.63" stroke="rgb(110,0,255)" stroke-width="2" fill="none"></polyline>
<polyline points="1434.68,1125.93,6384.49,1311.26" stroke="rgb(0,221,255)" stroke-width="2" fill="none"></polyline>
<polyline points="1653.2,1128,5900.73,1810.75" stroke="rgb(0,191,255)" stroke-width="2" fill="none"></polyline>
<polyline points="1433,1149.28,5343.73,1039.24" stroke="rgb(161,0,255)" stroke-width="2" fill="none"></polyline>
<polyline points="2288.77,1155.4,5945.75,923.109" stroke="rgb(255,80,0)" stroke-width="2" fill="none"></polyline>
<polyline points="2048.03,1173.17,5600.03,1080.73" stroke="rgb(0,208,255)" stroke-width="2" fill="none"></polyline>
<polyline points="1633.69,1176.35,6917.79,1382.72" stroke="rgb(0,33,255)" stroke-width="2" fill="none"></polyline>
<polyline points="1673.2,1182.3,6329.75,903.534" stroke="rgb(255,0,165)" stroke-width="2" fill="none"></polyline>
<polyline points="1868.33,1189,6201.41,845.036" stroke="rgb(242,0,255)" stroke-width="2" fill="none"></polyline>
<polyline points="2063.11,1195.15,6237.94,818.949" stroke="rgb(254,0,255)" stroke-width="2" fill="none"></polyline>
<polyline points="1822.28,1202.44,6226.31,1232.85" stroke="rgb(0,174,255)" stroke-width="2" fill="none"></polyline>
<polyline points="2331.95,1214.1,5960.3,1442.2" stroke="rgb(0,255,4)" stroke-width="2" fill="none"></polyline>
<polyline points="1499.66,1217.35,6854.75,1647.66" stroke="rgb(255,123,0)" stroke-width="2" fill="none"></polyline>
<polyline points="2433.58,1224.09,6618.79,1668.4" stroke="rgb(0,255,174)" stroke-width="2" fill="none"></polyline>
<polyline points="1617.43,1225.4,6107.52,1122.18" stroke="rgb(0,255,33)" stroke-width="2" fill="none"></polyline>
<polyline points="1780.77,1226.5,5905.99,1756.22" stroke="rgb(72,0,255)" stroke-width="2" fill="none"></polyline>
<polyline points="2490.74,1237.14,6074.28,1682.66" stroke="rgb(118,0,255)" stroke-width="2" fill="none"></polyline>
<polyline points="1588.62,1245.01,6310.87,1508.95" stroke="rgb(255,59,0)" stroke-width="2" fill="none"></polyline>
<polyline points="1648.25,1248.64,6910.22,1540.04" stroke="rgb(0,191,255)" stroke-width="2" fill="none"></polyline>
<polyline points="1601.21,1254.47,6013.65,1864" stroke="rgb(0,212,255)" stroke-width="2" fill="none"></polyline>
<polyline points="1610.75,1271.06,6416.61,927.326" stroke="rgb(72,0,255)" stroke-width="2" fill="none"></polyline>
<polyline points="2102.03,1276.68,6211.31,1007.91" stroke="rgb(203,0,255)" stroke-width="2" fill="none"></polyline>
<polyline points="1789.57,1277.17,6999.33,1662.08" stroke="rgb(0,0,255)" stroke-width="2" fill="none"></polyline>
<polyline points="1807.76,1296.93,6190.82,1366.62" stroke="rgb(255,212,0)" stroke-width="2" fill="none"></polyline>
<polyline points="2605.6,1315.62,6297.63,1524.88" stroke="rgb(101,255,0)" stroke-width="2" fill="none"></polyline>
<polyline points="2566.06,1317.21,6103.18,1065.35" stroke="rgb(254,0,255)" stroke-width="2" fill="none"></polyline>
<polyline points="2617.55,1321.9,5808.92,926.567" stroke="rgb(255,225,0)" stroke-width="2" fill="none"></polyline>
<polyline points="1489.89,1322.76,5710.07,1558.54" stroke="rgb(110,255,0)" stroke-width="2" fill="none"></polyline>
<polyline points="1581.23,1324.13,6384.88,1438.93" stroke="rgb(221,255,0)" stroke-width="2" fill="none"></polyline>
<polyline points="1649.66,1330.31,6662.74,1138.99" stroke="rgb(255,93,0)" stroke-width="2" fill="none"></polyline>
<polyline points="2538.16,1351.34,6295.88,1114.56" stroke="rgb(255,0,123)" stroke-width="2" fill="none"></polyline>
<polyline points="2624.71,1364.79,6002.77,1009.36" stroke="rgb(0,140,255)" stroke-width="2" fill="none"></polyline>
<polyline points="2672.09,1367.75,7206.1,1392.46" stroke="rgb(0,123,255)" stroke-width="2" fill="none"></polyline>
<polyline points="2630.4,1385.5,7006.78,1872.74" stroke="rgb(255,161,0)" stroke-width="2" fill="none"></polyline>
<polyline points="2584.88,1393.08,6034.51,2026.56" stroke="rgb(0,255,21)" stroke-width="2" fill="none"></polyline>
<polyline points="2563.17,1438.29,6249,1567.8" stroke="rgb(0,42,255)" stroke-width="2" fill="none"></polyline>
<polyline points="1397.49,1523.08,6180.07,1357.9" stroke="rgb(76,255,0)" stroke-width="2" fill="none"></polyline>
<polyline points="1399.36,1528.62,6174.94,1374.91" stroke="rgb(0,46,255)" stroke-width="2" fill="none"></polyline>
<polyline points="2695.2,1530.76,6755.95,2522.9" stroke="rgb(242,255,0)" stroke-width="2" fill="none"></polyline>
<polyline points="2762.92,1552.08,6216.18,1834.22" stroke="rgb(255,165,0)" stroke-width="2" fill="none"></polyline>
<polyline points="2003.23,1552.96,7305.85,1561.77" stroke="rgb(0,255,208)" stroke-width="2" fill="none"></polyline>
<polyline points="2759.75,1557.95,6214.53,1820.38" stroke="rgb(0,255,59)" stroke-width="2" fill="none"></polyline>
<polyline points="1391.2,1570.4,6038.14,2819.7" stroke="rgb(0,255,169)" stroke-width="2" fill="none"></polyline>
<polyline points="2043.26,1574.17,6814.74,1191.7" stroke="rgb(212,255,0)" stroke-width="2" fill="none"></polyline>
<polyline points="1652.1,1585.61,6994.95,1880.87" stroke="rgb(238,0,255)" stroke-width="2" fill="none"></polyline>
<polyline points="2091.93,1588.32,6127.92,725.289" stroke="rgb(203,0,255)" stroke-width="2" fill="none"></polyline>
<polyline points="2322.33,1696.65,6206.34,792.477" stroke="rgb(255,0,136)" stroke-width="2" fill="none"></polyline>
<polyline points="1728.15,1700.31,6912.91,1693.95" stroke="rgb(187,255,0)" stroke-width="2" fill="none"></polyline>
<polyline points="1451.55,1731.37,5339.97,1322.94" stroke="rgb(0,255,229)" stroke-width="2" fill="none"></polyline>
<polyline points="1956.03,1736.43,6806.86,1125.22" stroke="rgb(255,148,0)" stroke-width="2" fill="none"></polyline>
<polyline points="1263.68,1748.25,7197.19,1424.6" stroke="rgb(0,255,80)" stroke-width="2" fill="none"></polyline>
<polyline points="2672.37,1796.14,6092.33,1982.72" stroke="rgb(203,255,0)" stroke-width="2" fill="none"></polyline>
<polyline points="1762.16,1805.53,6371.57,1485.74" stroke="rgb(0,191,255)" stroke-width="2" fill="none"></polyline>
<polyline points="1721.49,1828.93,6150.86,1142.08" stroke="rgb(255,80,0)" stroke-width="2" fill="none"></polyline>
<polyline points="1717.85,1839.24,6141.7,1130.92" stroke="rgb(0,255,8)" stroke-width="2" fill="none"></polyline>
<polyline points="1752.27,1856.57,5977.26,1112.15" stroke="rgb(0,255,186)" stroke-width="2" fill="none"></polyline>
<polyline points="1750,1872.5,5965.64,1121.07" stroke="rgb(0,208,255)" stroke-width="2" fill="none"></polyline>
<polyline points="1984.23,1875.51,6403.68,1469.92" stroke="rgb(255,204,0)" stroke-width="2" fill="none"></polyline>
<polyline points="2009.54,1889,6999.97,1121.31" stroke="rgb(76,0,255)" stroke-width="2" fill="none"></polyline>
<polyline points="1716.76,1910.11,6241.87,1425.2" stroke="rgb(0,255,50)" stroke-width="2" fill="none"></polyline>
<polyline points="1747,1913.78,5970.14,1108.05" stroke="rgb(212,255,0)" stroke-width="2" fill="none"></polyline>
<polyline points="2044.27,1933.33,6986.1,2227.35" stroke="rgb(80,255,0)" stroke-width="2" fill="none"></polyline>
<polyline points="1712.26,1971.92,6124.45,1113.27" stroke="rgb(255,0,89)" stroke-width="2" fill="none"></polyline>
<polyline points="1731.07,2003.37,6632.5,2169.1" stroke="rgb(174,0,255)" stroke-width="2" fill="none"></polyline>
<polyline points="2175.57,2020.65,7123.8,2007.01" stroke="rgb(0,255,84)" stroke-width="2" fill="none"></polyline>
<polyline points="1556.45,2028.27,6127.18,2648.89" stroke="rgb(255,0,101)" stroke-width="2" fill="none"></polyline>
<polyline points="1977.46,2034.1,5520.24,888.852" stroke="rgb(255,97,0)" stroke-width="2" fill="none"></polyline>
<polyline points="1302.63,2062.75,6016.32,2192.66" stroke="rgb(25,255,0)" stroke-width="2" fill="none"></polyline>
<polyline points="2708.31,2069.13,6057.13,869.546" stroke="rgb(0,148,255)" stroke-width="2" fill="none"></polyline>
<polyline points="2545.6,2077.55,5325.5,970.92" stroke="rgb(255,0,174)" stroke-width="2" fill="none"></polyline>
<polyline points="1590.39,2093.97,6732.03,2085.13" stroke="rgb(0,255,140)" stroke-width="2" fill="none"></polyline>
<polyline points="2032.03,2103.85,5723.31,1554.09" stroke="rgb(25,0,255)" stroke-width="2" fill="none"></polyline>
<polyline points="1379.16,2192.34,7146.14,1296.11" stroke="rgb(114,255,0)" stroke-width="2" fill="none"></polyline>
<circle cx="1498.72" cy="339.83" r="4" stroke="rgb(0,255,199)" stroke-width="2" fill="none"></circle>
<circle cx="7045.57" cy="2018.78" r="4" stroke="rgb(0,255,199)" stroke-width="2" fill="none"></circle>
<circle cx="1371.29" cy="367.756" r="4" stroke="rgb(212,255,0)" stroke-width="2" fill="none"></circle>
<circle cx="6094.7" cy="1132.03" r="4" stroke="rgb(212,255,0)" stroke-width="2" fill="none"></circle>
<circle cx="1468.6" cy="371.971" r="4" stroke="rgb(33,255,0)" stroke-width="2" fill="none"></circle>
<circle cx="7070.59" cy="1978.73" r="4" stroke="rgb(33,255,0)" stroke-width="2" fill="none"></circle>
<circle cx="1367.07" cy="373.961" r="4" stroke="rgb(0,12,255)" stroke-width="2" fill="none"></circle>
<circle cx="6417.1" cy="1464.22" r="4" stroke="rgb(0,12,255)" stroke-width="2" fill="none"></circle>
<circle cx="1376.54" cy="389.519" r="4" stroke="rgb(25,255,0)" stroke-width="2" fill="none"></circle>
<circle cx="6265.87" cy="1461.51" r="4" stroke="rgb(25,255,0)" stroke-width="2" fill="none"></circle>
<circle cx="1492.41" cy="403.727" r="4" stroke="rgb(242,255,0)" stroke-width="2" fill="none"></circle>
<circle cx="5379" cy="752.858" r="4" stroke="rgb(242,255,0)" stroke-width="2" fill="none"></circle>
<circle cx="1431.01" cy="406.028" r="4" stroke="rgb(182,255,0)" stroke-width="2" fill="none"></circle>
<circle cx="5553.53" cy="937.46" r="4" stroke="rgb(182,255,0)" stroke-width="2" fill="none"></circle>
<circle cx="1265.12" cy="414.502" r="4" stroke="rgb(255,85,0)" stroke-width="2" fill="none"></circle>
<circle cx="5570.56" cy="1075.9" r="4" stroke="rgb(255,85,0)" stroke-width="2" fill="none"></circle>
<circle cx="1480.63" cy="428.925" r="4" stroke="rgb(0,114,255)" stroke-width="2" fill="none"></circle>
<circle cx="7148.38" cy="1351.85" r="4" stroke="rgb(0,114,255)" stroke-width="2" fill="none"></circle>
<circle cx="1715.2" cy="447.364" r="4" stroke="rgb(0,242,255)" stroke-width="2" fill="none"></circle>
<circle cx="6829.43" cy="1139.71" r="4" stroke="rgb(0,242,255)" stroke-width="2" fill="none"></circle>
<circle cx="1165.22" cy="463.971" r="4" stroke="rgb(255,153,0)" stroke-width="2" fill="none"></circle>
<circle cx="7246.27" cy="2159.52" r="4" stroke="rgb(255,153,0)" stroke-width="2" fill="none"></circle>
<circle cx="1718.81" cy="490.349" r="4" stroke="rgb(255,68,0)" stroke-width="2" fill="none"></circle>
<circle cx="6650.72" cy="2059.41" r="4" stroke="rgb(255,68,0)" stroke-width="2" fill="none"></circle>
<circle cx="1765.06" cy="491.084" r="4" stroke="rgb(255,29,0)" stroke-width="2" fill="none"></circle>
<circle cx="6240.1" cy="1576.24" r="4" stroke="rgb(255,29,0)" stroke-width="2" fill="none"></circle>
<circle cx="1727.28" cy="532.095" r="4" stroke="rgb(255,0,250)" stroke-width="2" fill="none"></circle>
<circle cx="6057.32" cy="1675.69" r="4" stroke="rgb(255,0,250)" stroke-width="2" fill="none"></circle>
<circle cx="2016.47" cy="567.407" r="4" stroke="rgb(208,255,0)" stroke-width="2" fill="none"></circle>
<circle cx="6974.97" cy="1525.53" r="4" stroke="rgb(208,255,0)" stroke-width="2" fill="none"></circle>
<circle cx="1735.59" cy="592.712" r="4" stroke="rgb(255,0,12)" stroke-width="2" fill="none"></circle>
<circle cx="5566.01" cy="883.351" r="4" stroke="rgb(255,0,12)" stroke-width="2" fill="none"></circle>
<circle cx="1661.29" cy="606.696" r="4" stroke="rgb(178,0,255)" stroke-width="2" fill="none"></circle>
<circle cx="7106.74" cy="1777.53" r="4" stroke="rgb(178,0,255)" stroke-width="2" fill="none"></circle>
<circle cx="1933.11" cy="701.585" r="4" stroke="rgb(0,255,29)" stroke-width="2" fill="none"></circle>
<circle cx="6282.68" cy="1500.59" r="4" stroke="rgb(0,255,29)" stroke-width="2" fill="none"></circle>
<circle cx="1599.13" cy="711.538" r="4" stroke="rgb(255,157,0)" stroke-width="2" fill="none"></circle>
<circle cx="5955.12" cy="1480.11" r="4" stroke="rgb(255,157,0)" stroke-width="2" fill="none"></circle>
<circle cx="1479.58" cy="721.961" r="4" stroke="rgb(0,153,255)" stroke-width="2" fill="none"></circle>
<circle cx="6619.12" cy="858.922" r="4" stroke="rgb(0,153,255)" stroke-width="2" fill="none"></circle>
<circle cx="1459.26" cy="774.981" r="4" stroke="rgb(0,255,80)" stroke-width="2" fill="none"></circle>
<circle cx="6479.12" cy="1451.68" r="4" stroke="rgb(0,255,80)" stroke-width="2" fill="none"></circle>
<circle cx="1620.21" cy="786.482" r="4" stroke="rgb(0,127,255)" stroke-width="2" fill="none"></circle>
<circle cx="5537.69" cy="1098.04" r="4" stroke="rgb(0,127,255)" stroke-width="2" fill="none"></circle>
<circle cx="1656.02" cy="788.306" r="4" stroke="rgb(255,0,182)" stroke-width="2" fill="none"></circle>
<circle cx="6975.61" cy="1943.56" r="4" stroke="rgb(255,0,182)" stroke-width="2" fill="none"></circle>
<circle cx="2587.47" cy="799.503" r="4" stroke="rgb(225,255,0)" stroke-width="2" fill="none"></circle>
<circle cx="6953.79" cy="2058.4" r="4" stroke="rgb(225,255,0)" stroke-width="2" fill="none"></circle>
<circle cx="1645.13" cy="800.778" r="4" stroke="rgb(110,255,0)" stroke-width="2" fill="none"></circle>
<circle cx="5981.25" cy="1868.87" r="4" stroke="rgb(110,255,0)" stroke-width="2" fill="none"></circle>
<circle cx="1456.58" cy="802.451" r="4" stroke="rgb(0,0,255)" stroke-width="2" fill="none"></circle>
<circle cx="5953.54" cy="782.687" r="4" stroke="rgb(0,0,255)" stroke-width="2" fill="none"></circle>
<circle cx="1661.1" cy="806.982" r="4" stroke="rgb(110,0,255)" stroke-width="2" fill="none"></circle>
<circle cx="6024.54" cy="2065" r="4" stroke="rgb(110,0,255)" stroke-width="2" fill="none"></circle>
<circle cx="1430.29" cy="829.588" r="4" stroke="rgb(0,89,255)" stroke-width="2" fill="none"></circle>
<circle cx="6712.97" cy="1854.39" r="4" stroke="rgb(0,89,255)" stroke-width="2" fill="none"></circle>
<circle cx="1443.96" cy="829.984" r="4" stroke="rgb(255,0,182)" stroke-width="2" fill="none"></circle>
<circle cx="6236.19" cy="1107.37" r="4" stroke="rgb(255,0,182)" stroke-width="2" fill="none"></circle>
<circle cx="1436.35" cy="844.25" r="4" stroke="rgb(255,46,0)" stroke-width="2" fill="none"></circle>
<circle cx="5877.17" cy="701.945" r="4" stroke="rgb(255,46,0)" stroke-width="2" fill="none"></circle>
<circle cx="1623.03" cy="850.275" r="4" stroke="rgb(255,0,178)" stroke-width="2" fill="none"></circle>
<circle cx="7218.21" cy="2118.16" r="4" stroke="rgb(255,0,178)" stroke-width="2" fill="none"></circle>
<circle cx="1338.07" cy="854.962" r="4" stroke="rgb(255,0,17)" stroke-width="2" fill="none"></circle>
<circle cx="6645.69" cy="977.577" r="4" stroke="rgb(255,0,17)" stroke-width="2" fill="none"></circle>
<circle cx="1412.61" cy="855.667" r="4" stroke="rgb(161,255,0)" stroke-width="2" fill="none"></circle>
<circle cx="5959.71" cy="819.715" r="4" stroke="rgb(161,255,0)" stroke-width="2" fill="none"></circle>
<circle cx="1408.08" cy="860.517" r="4" stroke="rgb(255,0,246)" stroke-width="2" fill="none"></circle>
<circle cx="6804.22" cy="1782.66" r="4" stroke="rgb(255,0,246)" stroke-width="2" fill="none"></circle>
<circle cx="1636.77" cy="862.237" r="4" stroke="rgb(0,25,255)" stroke-width="2" fill="none"></circle>
<circle cx="6004.58" cy="1867.82" r="4" stroke="rgb(0,25,255)" stroke-width="2" fill="none"></circle>
<circle cx="1665.62" cy="878.555" r="4" stroke="rgb(221,255,0)" stroke-width="2" fill="none"></circle>
<circle cx="5802.98" cy="1717.51" r="4" stroke="rgb(221,255,0)" stroke-width="2" fill="none"></circle>
<circle cx="1371.5" cy="887.658" r="4" stroke="rgb(0,12,255)" stroke-width="2" fill="none"></circle>
<circle cx="6312.37" cy="1394.53" r="4" stroke="rgb(0,12,255)" stroke-width="2" fill="none"></circle>
<circle cx="1515.94" cy="888.862" r="4" stroke="rgb(255,0,208)" stroke-width="2" fill="none"></circle>
<circle cx="6292.29" cy="1303.81" r="4" stroke="rgb(255,0,208)" stroke-width="2" fill="none"></circle>
<circle cx="1658.57" cy="890.775" r="4" stroke="rgb(135,255,0)" stroke-width="2" fill="none"></circle>
<circle cx="6034.76" cy="1953.38" r="4" stroke="rgb(135,255,0)" stroke-width="2" fill="none"></circle>
<circle cx="2492.83" cy="901.806" r="4" stroke="rgb(127,255,0)" stroke-width="2" fill="none"></circle>
<circle cx="6872.24" cy="1681.05" r="4" stroke="rgb(127,255,0)" stroke-width="2" fill="none"></circle>
<circle cx="2487.11" cy="904.176" r="4" stroke="rgb(255,29,0)" stroke-width="2" fill="none"></circle>
<circle cx="6867.09" cy="1683.54" r="4" stroke="rgb(255,29,0)" stroke-width="2" fill="none"></circle>
<circle cx="2715.3" cy="907.181" r="4" stroke="rgb(255,0,17)" stroke-width="2" fill="none"></circle>
<circle cx="6062.05" cy="1657.06" r="4" stroke="rgb(255,0,17)" stroke-width="2" fill="none"></circle>
<circle cx="1975.76" cy="909.897" r="4" stroke="rgb(55,255,0)" stroke-width="2" fill="none"></circle>
<circle cx="6093.34" cy="1944.14" r="4" stroke="rgb(55,255,0)" stroke-width="2" fill="none"></circle>
<circle cx="2139.71" cy="916.474" r="4" stroke="rgb(255,59,0)" stroke-width="2" fill="none"></circle>
<circle cx="7173.15" cy="1803.21" r="4" stroke="rgb(255,59,0)" stroke-width="2" fill="none"></circle>
<circle cx="2637.06" cy="919.937" r="4" stroke="rgb(246,0,255)" stroke-width="2" fill="none"></circle>
<circle cx="6529.84" cy="2647.73" r="4" stroke="rgb(246,0,255)" stroke-width="2" fill="none"></circle>
<circle cx="1674.8" cy="921.907" r="4" stroke="rgb(255,212,0)" stroke-width="2" fill="none"></circle>
<circle cx="6010.6" cy="1929.82" r="4" stroke="rgb(255,212,0)" stroke-width="2" fill="none"></circle>
<circle cx="1351.59" cy="926.601" r="4" stroke="rgb(255,46,0)" stroke-width="2" fill="none"></circle>
<circle cx="6935.45" cy="1995.7" r="4" stroke="rgb(255,46,0)" stroke-width="2" fill="none"></circle>
<circle cx="1590.75" cy="936.903" r="4" stroke="rgb(119,255,0)" stroke-width="2" fill="none"></circle>
<circle cx="7005.87" cy="1130.21" r="4" stroke="rgb(119,255,0)" stroke-width="2" fill="none"></circle>
<circle cx="1700.32" cy="952.127" r="4" stroke="rgb(255,208,0)" stroke-width="2" fill="none"></circle>
<circle cx="5823.84" cy="1725.79" r="4" stroke="rgb(255,208,0)" stroke-width="2" fill="none"></circle>
<circle cx="2107.15" cy="964.742" r="4" stroke="rgb(174,0,255)" stroke-width="2" fill="none"></circle>
<circle cx="6443.25" cy="2567.78" r="4" stroke="rgb(174,0,255)" stroke-width="2" fill="none"></circle>
<circle cx="1557.06" cy="971.485" r="4" stroke="rgb(238,0,255)" stroke-width="2" fill="none"></circle>
<circle cx="6596.66" cy="882.801" r="4" stroke="rgb(238,0,255)" stroke-width="2" fill="none"></circle>
<circle cx="1639.99" cy="1010.55" r="4" stroke="rgb(0,221,255)" stroke-width="2" fill="none"></circle>
<circle cx="7019.95" cy="1887.2" r="4" stroke="rgb(0,221,255)" stroke-width="2" fill="none"></circle>
<circle cx="2750.85" cy="1014.31" r="4" stroke="rgb(255,12,0)" stroke-width="2" fill="none"></circle>
<circle cx="5960.51" cy="1785.43" r="4" stroke="rgb(255,12,0)" stroke-width="2" fill="none"></circle>
<circle cx="1963.66" cy="1023.73" r="4" stroke="rgb(0,255,21)" stroke-width="2" fill="none"></circle>
<circle cx="6972.13" cy="1962.15" r="4" stroke="rgb(0,255,21)" stroke-width="2" fill="none"></circle>
<circle cx="1667.29" cy="1032.22" r="4" stroke="rgb(0,255,33)" stroke-width="2" fill="none"></circle>
<circle cx="6976.01" cy="1840.08" r="4" stroke="rgb(0,255,33)" stroke-width="2" fill="none"></circle>
<circle cx="1505.83" cy="1077.23" r="4" stroke="rgb(97,255,0)" stroke-width="2" fill="none"></circle>
<circle cx="6722.59" cy="2136.09" r="4" stroke="rgb(97,255,0)" stroke-width="2" fill="none"></circle>
<circle cx="1703.65" cy="1080.82" r="4" stroke="rgb(0,12,255)" stroke-width="2" fill="none"></circle>
<circle cx="5926.4" cy="1894.05" r="4" stroke="rgb(0,12,255)" stroke-width="2" fill="none"></circle>
<circle cx="1405.76" cy="1084.88" r="4" stroke="rgb(110,0,255)" stroke-width="2" fill="none"></circle>
<circle cx="5924.89" cy="1633.63" r="4" stroke="rgb(110,0,255)" stroke-width="2" fill="none"></circle>
<circle cx="1434.68" cy="1125.93" r="4" stroke="rgb(0,221,255)" stroke-width="2" fill="none"></circle>
<circle cx="6384.49" cy="1311.26" r="4" stroke="rgb(0,221,255)" stroke-width="2" fill="none"></circle>
<circle cx="1653.2" cy="1128" r="4" stroke="rgb(0,191,255)" stroke-width="2" fill="none"></circle>
<circle cx="5900.73" cy="1810.75" r="4" stroke="rgb(0,191,255)" stroke-width="2" fill="none"></circle>
<circle cx="1433" cy="1149.28" r="4" stroke="rgb(161,0,255)" stroke-width="2" fill="none"></circle>
<circle cx="5343.73" cy="1039.24" r="4" stroke="rgb(161,0,255)" stroke-width="2" fill="none"></circle>
<circle cx="2288.77" cy="1155.4" r="4" stroke="rgb(255,80,0)" stroke-width="2" fill="none"></circle>
<circle cx="5945.75" cy="923.109" r="4" stroke="rgb(255,80,0)" stroke-width="2" fill="none"></circle>
<circle cx="2048.03" cy="1173.17" r="4" stroke="rgb(0,208,255)" stroke-width="2" fill="none"></circle>
<circle cx="5600.03" cy="1080.73" r="4" stroke="rgb(0,208,255)" stroke-width="2" fill="none"></circle>
<circle cx="1633.69" cy="1176.35" r="4" stroke="rgb(0,33,255)" stroke-width="2" fill="none"></circle>
<circle cx="6917.79" cy="1382.72" r="4" stroke="rgb(0,33,255)" stroke-width="2" fill="none"></circle>
<circle cx="1673.2" cy="1182.3" r="4" stroke="rgb(255,0,165)" stroke-width="2" fill="none"></circle>
<circle cx="6329.75" cy="903.534" r="4" stroke="rgb(255,0,165)" stroke-width="2" fill="none"></circle>
<circle cx="1868.33" cy="1189" r="4" stroke="rgb(242,0,255)" stroke-width="2" fill="none"></circle>
<circle cx="6201.41" cy="845.036" r="4" stroke="rgb(242,0,255)" stroke-width="2" fill="none"></circle>
<circle cx="2063.11" cy="1195.15" r="4" stroke="rgb(254,0,255)" stroke-width="2" fill="none"></circle>
<circle cx="6237.94" cy="818.949" r="4" stroke="rgb(254,0,255)" stroke-width="2" fill="none"></circle>
<circle cx="1822.28" cy="1202.44" r="4" stroke="rgb(0,174,255)" stroke-width="2" fill="none"></circle>
<circle cx="6226.31" cy="1232.85" r="4" stroke="rgb(0,174,255)" stroke-width="2" fill="none"></circle>
<circle cx="2331.95" cy="1214.1" r="4" stroke="rgb(0,255,4)" stroke-width="2" fill="none"></circle>
<circle cx="5960.3" cy="1442.2" r="4" stroke="rgb(0,255,4)" stroke-width="2" fill="none"></circle>
<circle cx="1499.66" cy="1217.35" r="4" stroke="rgb(255,123,0)" stroke-width="2" fill="none"></circle>
<circle cx="6854.75" cy="1647.66" r="4" stroke="rgb(255,123,0)" stroke-width="2" fill="none"></circle>
<circle cx="2433.58" cy="1224.09" r="4" stroke="rgb(0,255,174)" stroke-width="2" fill="none"></circle>
<circle cx="6618.79" cy="1668.4" r="4" stroke="rgb(0,255,174)" stroke-width="2" fill="none"></circle>
<circle cx="1617.43" cy="1225.4" r="4" stroke="rgb(0,255,33)" stroke-width="2" fill="none"></circle>
<circle cx="6107.52" cy="1122.18" r="4" stroke="rgb(0,255,33)" stroke-width="2" fill="none"></circle>
<circle cx="1780.77" cy="1226.5" r="4" stroke="rgb(72,0,255)" stroke-width="2" fill="none"></circle>
<circle cx="5905.99" cy="1756.22" r="4" stroke="rgb(72,0,255)" stroke-width="2" fill="none"></circle>
<circle cx="2490.74" cy="1237.14" r="4" stroke="rgb(118,0,255)" stroke-width="2" fill="none"></circle>
<circle cx="6074.28" cy="1682.66" r="4" stroke="rgb(118,0,255)" stroke-width="2" fill="none"></circle>
<circle cx="1588.62" cy="1245.01" r="4" stroke="rgb(255,59,0)" stroke-width="2" fill="none"></circle>
<circle cx="6310.87" cy="1508.95" r="4" stroke="rgb(255,59,0)" stroke-width="2" fill="none"></circle>
<circle cx="1648.25" cy="1248.64" r="4" stroke="rgb(0,191,255)" stroke-width="2" fill="none"></circle>
<circle cx="6910.22" cy="1540.04" r="4" stroke="rgb(0,191,255)" stroke-width="2" fill="none"></circle>
<circle cx="1601.21" cy="1254.47" r="4" stroke="rgb(0,212,255)" stroke-width="2" fill="none"></circle>
<circle cx="6013.65" cy="1864" r="4" stroke="rgb(0,212,255)" stroke-width="2" fill="none"></circle>
<circle cx="1610.75" cy="1271.06" r="4" stroke="rgb(72,0,255)" stroke-width="2" fill="none"></circle>
<circle cx="6416.61" cy="927.326" r="4" stroke="rgb(72,0,255)" stroke-width="2" fill="none"></circle>
<circle cx="2102.03" cy="1276.68" r="4" stroke="rgb(203,0,255)" stroke-width="2" fill="none"></circle>
<circle cx="6211.31" cy="1007.91" r="4" stroke="rgb(203,0,255)" stroke-width="2" fill="none"></circle>
<circle cx="1789.57" cy="1277.17" r="4" stroke="rgb(0,0,255)" stroke-width="2" fill="none"></circle>
<circle cx="6999.33" cy="1662.08" r="4" stroke="rgb(0,0,255)" stroke-width="2" fill="none"></circle>
<circle cx="1807.76" cy="1296.93" r="4" stroke="rgb(255,212,0)" stroke-width="2" fill="none"></circle>
<circle cx="6190.82" cy="1366.62" r="4" stroke="rgb(255,212,0)" stroke-width="2" fill="none"></circle>
<circle cx="2605.6" cy="1315.62" r="4" stroke="rgb(101,255,0)" stroke-width="2" fill="none"></circle>
<circle cx="6297.63" cy="1524.88" r="4" stroke="rgb(101,255,0)" stroke-width="2" fill="none"></circle>
<circle cx="2566.06" cy="1317.21" r="4" stroke="rgb(254,0,255)" stroke-width="2" fill="none"></circle>
<circle cx="6103.18" cy="1065.35" r="4" stroke="rgb(254,0,255)" stroke-width="2" fill="none"></circle>
<circle cx="2617.55" cy="1321.9" r="4" stroke="rgb(255,225,0)" stroke-width="2" fill="none"></circle>
<circle cx="5808.92" cy="926.567" r="4" stroke="rgb(255,225,0)" stroke-width="2" fill="none"></circle>
<circle cx="1489.89" cy="1322.76" r="4" stroke="rgb(110,255,0)" stroke-width="2" fill="none"></circle>
<circle cx="5710.07" cy="1558.54" r="4" stroke="rgb(110,255,0)" stroke-width="2" fill="none"></circle>
<circle cx="1581.23" cy="1324.13" r="4" stroke="rgb(221,255,0)" stroke-width="2" fill="none"></circle>
<circle cx="6384.88" cy="1438.93" r="4" stroke="rgb(221,255,0)" stroke-width="2" fill="none"></circle>
<circle cx="1649.66" cy="1330.31" r="4" stroke="rgb(255,93,0)" stroke-width="2" fill="none"></circle>
<circle cx="6662.74" cy="1138.99" r="4" stroke="rgb(255,93,0)" stroke-width="2" fill="none"></circle>
<circle cx="2538.16" cy="1351.34" r="4" stroke="rgb(255,0,123)" stroke-width="2" fill="none"></circle>
<circle cx="6295.88" cy="1114.56" r="4" stroke="rgb(255,0,123)" stroke-width="2" fill="none"></circle>
<circle cx="2624.71" cy="1364.79" r="4" stroke="rgb(0,140,255)" stroke-width="2" fill="none"></circle>
<circle cx="6002.77" cy="1009.36" r="4" stroke="rgb(0,140,255)" stroke-width="2" fill="none"></circle>
<circle cx="2672.09" cy="1367.75" r="4" stroke="rgb(0,123,255)" stroke-width="2" fill="none"></circle>
<circle cx="7206.1" cy="1392.46" r="4" stroke="rgb(0,123,255)" stroke-width="2" fill="none"></circle>
<circle cx="2630.4" cy="1385.5" r="4" stroke="rgb(255,161,0)" stroke-width="2" fill="none"></circle>
<circle cx="7006.78" cy="1872.74" r="4" stroke="rgb(255,161,0)" stroke-width="2" fill="none"></circle>
<circle cx="2584.88" cy="1393.08" r="4" stroke="rgb(0,255,21)" stroke-width="2" fill="none"></circle>
<circle cx="6034.51" cy="2026.56" r="4" stroke="rgb(0,255,21)" stroke-width="2" fill="none"></circle>
<circle cx="2563.17" cy="1438.29" r="4" stroke="rgb(0,42,255)" stroke-width="2" fill="none"></circle>
<circle cx="6249" cy="1567.8" r="4" stroke="rgb(0,42,255)" stroke-width="2" fill="none"></circle>
<circle cx="1397.49" cy="1523.08" r="4" stroke="rgb(76,255,0)" stroke-width="2" fill="none"></circle>
<circle cx="6180.07" cy="1357.9" r="4" stroke="rgb(76,255,0)" stroke-width="2" fill="none"></circle>
<circle cx="1399.36" cy="1528.62" r="4" stroke="rgb(0,46,255)" stroke-width="2" fill="none"></circle>
<circle cx="6174.94" cy="1374.91" r="4" stroke="rgb(0,46,255)" stroke-width="2" fill="none"></circle>
<circle cx="2695.2" cy="1530.76" r="4" stroke="rgb(242,255,0)" stroke-width="2" fill="none"></circle>
<circle cx="6755.95" cy="2522.9" r="4" stroke="rgb(242,255,0)" stroke-width="2" fill="none"></circle>
<circle cx="2762.92" cy="1552.08" r="4" stroke="rgb(255,165,0)" stroke-width="2" fill="none"></circle>
<circle cx="6216.18" cy="1834.22" r="4" stroke="rgb(255,165,0)" stroke-width="2" fill="none"></circle>
<circle cx="2003.23" cy="1552.96" r="4" stroke="rgb(0,255,208)" stroke-width="2" fill="none"></circle>
<circle cx="7305.85" cy="1561.77" r="4" stroke="rgb(0,255,208)" stroke-width="2" fill="none"></circle>
<circle cx="2759.75" cy="1557.95" r="4" stroke="rgb(0,255,59)" stroke-width="2" fill="none"></circle>
<circle cx="6214.53" cy="1820.38" r="4" stroke="rgb(0,255,59)" stroke-width="2" fill="none"></circle>
<circle cx="1391.2" cy="1570.4" r="4" stroke="rgb(0,255,169)" stroke-width="2" fill="none"></circle>
<circle cx="6038.14" cy="2819.7" r="4" stroke="rgb(0,255,169)" stroke-width="2" fill="none"></circle>
<circle cx="2043.26" cy="1574.17" r="4" stroke="rgb(212,255,0)" stroke-width="2" fill="none"></circle>
<circle cx="6814.74" cy="1191.7" r="4" stroke="rgb(212,255,0)" stroke-width="2" fill="none"></circle>
<circle cx="1652.1" cy="1585.61" r="4" stroke="rgb(238,0,255)" stroke-width="2" fill="none"></circle>
<circle cx="6994.95" cy="1880.87" r="4" stroke="rgb(238,0,255)" stroke-width="2" fill="none"></circle>
<circle cx="2091.93" cy="1588.32" r="4" stroke="rgb(203,0,255)" stroke-width="2" fill="none"></circle>
<circle cx="6127.92" cy="725.289" r="4" stroke="rgb(203,0,255)" stroke-width="2" fill="none"></circle>
<circle cx="2322.33" cy="1696.65" r="4" stroke="rgb(255,0,136)" stroke-width="2" fill="none"></circle>
<circle cx="6206.34" cy="792.477" r="4" stroke="rgb(255,0,136)" stroke-width="2" fill="none"></circle>
<circle cx="1728.15" cy="1700.31" r="4" stroke="rgb(187,255,0)" stroke-width="2" fill="none"></circle>
<circle cx="6912.91" cy="1693.95" r="4" stroke="rgb(187,255,0)" stroke-width="2" fill="none"></circle>
<circle cx="1451.55" cy="1731.37" r="4" stroke="rgb(0,255,229)" stroke-width="2" fill="none"></circle>
<circle cx="5339.97" cy="1322.94" r="4" stroke="rgb(0,255,229)" stroke-width="2" fill="none"></circle>
<circle cx="1956.03" cy="1736.43" r="4" stroke="rgb(255,148,0)" stroke-width="2" fill="none"></circle>
<circle cx="6806.86" cy="1125.22" r="4" stroke="rgb(255,148,0)" stroke-width="2" fill="none"></circle>
<circle cx="1263.68" cy="1748.25" r="4" stroke="rgb(0,255,80)" stroke-width="2" fill="none"></circle>
<circle cx="7197.19" cy="1424.6" r="4" stroke="rgb(0,255,80)" stroke-width="2" fill="none"></circle>
<circle cx="2672.37" cy="1796.14" r="4" stroke="rgb(203,255,0)" stroke-width="2" fill="none"></circle>
<circle cx="6092.33" cy="1982.72" r="4" stroke="rgb(203,255,0)" stroke-width="2" fill="none"></circle>
<circle cx="1762.16" cy="1805.53" r="4" stroke="rgb(0,191,255)" stroke-width="2" fill="none"></circle>
<circle cx="6371.57" cy="1485.74" r="4" stroke="rgb(0,191,255)" stroke-width="2" fill="none"></circle>
<circle cx="1721.49" cy="1828.93" r="4" stroke="rgb(255,80,0)" stroke-width="2" fill="none"></circle>
<circle cx="6150.86" cy="1142.08" r="4" stroke="rgb(255,80,0)" stroke-width="2" fill="none"></circle>
<circle cx="1717.85" cy="1839.24" r="4" stroke="rgb(0,255,8)" stroke-width="2" fill="none"></circle>
<circle cx="6141.7" cy="1130.92" r="4" stroke="rgb(0,255,8)" stroke-width="2" fill="none"></circle>
<circle cx="1752.27" cy="1856.57" r="4" stroke="rgb(0,255,186)" stroke-width="2" fill="none"></circle>
<circle cx="5977.26" cy="1112.15" r="4" stroke="rgb(0,255,186)" stroke-width="2" fill="none"></circle>
<circle cx="1750" cy="1872.5" r="4" stroke="rgb(0,208,255)" stroke-width="2" fill="none"></circle>
<circle cx="5965.64" cy="1121.07" r="4" stroke="rgb(0,208,255)" stroke-width="2" fill="none"></circle>
<circle cx="1984.23" cy="1875.51" r="4" stroke="rgb(255,204,0)" stroke-width="2" fill="none"></circle>
<circle cx="6403.68" cy="1469.92" r="4" stroke="rgb(255,204,0)" stroke-width="2" fill="none"></circle>
<circle cx="2009.54" cy="1889" r="4" stroke="rgb(76,0,255)" stroke-width="2" fill="none"></circle>
<circle cx="6999.97" cy="1121.31" r="4" stroke="rgb(76,0,255)" stroke-width="2" fill="none"></circle>
<circle cx="1716.76" cy="1910.11" r="4" stroke="rgb(0,255,50)" stroke-width="2" fill="none"></circle>
<circle cx="6241.87" cy="1425.2" r="4" stroke="rgb(0,255,50)" stroke-width="2" fill="none"></circle>
<circle cx="1747" cy="1913.78" r="4" stroke="rgb(212,255,0)" stroke-width="2" fill="none"></circle>
<circle cx="5970.14" cy="1108.05" r="4" stroke="rgb(212,255,0)" stroke-width="2" fill="none"></circle>
<circle cx="2044.27" cy="1933.33" r="4" stroke="rgb(80,255,0)" stroke-width="2" fill="none"></circle>
<circle cx="6986.1" cy="2227.35" r="4" stroke="rgb(80,255,0)" stroke-width="2" fill="none"></circle>
<circle cx="1712.26" cy="1971.92" r="4" stroke="rgb(255,0,89)" stroke-width="2" fill="none"></circle>
<circle cx="6124.45" cy="1113.27" r="4" stroke="rgb(255,0,89)" stroke-width="2" fill="none"></circle>
<circle cx="1731.07" cy="2003.37" r="4" stroke="rgb(174,0,255)" stroke-width="2" fill="none"></circle>
<circle cx="6632.5" cy="2169.1" r="4" stroke="rgb(174,0,255)" stroke-width="2" fill="none"></circle>
<circle cx="2175.57" cy="2020.65" r="4" stroke="rgb(0,255,84)" stroke-width="2" fill="none"></circle>
<circle cx="7123.8" cy="2007.01" r="4" stroke="rgb(0,255,84)" stroke-width="2" fill="none"></circle>
<circle cx="1556.45" cy="2028.27" r="4" stroke="rgb(255,0,101)" stroke-width="2" fill="none"></circle>
<circle cx="6127.18" cy="2648.89" r="4" stroke="rgb(255,0,101)" stroke-width="2" fill="none"></circle>
<circle cx="1977.46" cy="2034.1" r="4" stroke="rgb(255,97,0)" stroke-width="2" fill="none"></circle>
<circle cx="5520.24" cy="888.852" r="4" stroke="rgb(255,97,0)" stroke-width="2" fill="none"></circle>
<circle cx="1302.63" cy="2062.75" r="4" stroke="rgb(25,255,0)" stroke-width="2" fill="none"></circle>
<circle cx="6016.32" cy="2192.66" r="4" stroke="rgb(25,255,0)" stroke-width="2" fill="none"></circle>
<circle cx="2708.31" cy="2069.13" r="4" stroke="rgb(0,148,255)" stroke-width="2" fill="none"></circle>
<circle cx="6057.13" cy="869.546" r="4" stroke="rgb(0,148,255)" stroke-width="2" fill="none"></circle>
<circle cx="2545.6" cy="2077.55" r="4" stroke="rgb(255,0,174)" stroke-width="2" fill="none"></circle>
<circle cx="5325.5" cy="970.92" r="4" stroke="rgb(255,0,174)" stroke-width="2" fill="none"></circle>
<circle cx="1590.39" cy="2093.97" r="4" stroke="rgb(0,255,140)" stroke-width="2" fill="none"></circle>
<circle cx="6732.03" cy="2085.13" r="4" stroke="rgb(0,255,140)" stroke-width="2" fill="none"></circle>
<circle cx="2032.03" cy="2103.85" r="4" stroke="rgb(25,0,255)" stroke-width="2" fill="none"></circle>
<circle cx="5723.31" cy="1554.09" r="4" stroke="rgb(25,0,255)" stroke-width="2" fill="none"></circle>
<circle cx="1379.16" cy="2192.34" r="4" stroke="rgb(114,255,0)" stroke-width="2" fill="none"></circle>
<circle cx="7146.14" cy="1296.11" r="4" stroke="rgb(114,255,0)" stroke-width="2" fill="none"></circle>
</svg>