<?xml version="1.0" standalone="yes"?>
<!-- SVG graphic -->
<svg xmlns='http://www.w3.org/2000/svg' xmlns:xlink='http://www.w3.org/1999/xlink'
width="8064px" height="3024px" preserveAspectRatio="xMinYMin meet" viewBox="0 0 8064 3024" version="1.1">
<image x="0" y="0" width="4032px" height="3024px" opacity="1" xlink:href="/home/jeong/Code/2D-to-3D-Modeling-using-AI/Make3D/Image/20200227_180706.jpg"/>
<image x="4032" y="0" width="4032px" height="3024px" opacity="1" xlink:href="/home/jeong/Code/2D-to-3D-Modeling-using-AI/Make3D/Image/20200227_180732.jpg"/>
<polyline points="1276.89,244.243,6797.03,2701.84" stroke="rgb(123,255,0)" stroke-width="2" fill="none"></polyline>
<polyline points="1159.21,319.908,5798.61,2286.37" stroke="rgb(0,255,182)" stroke-width="2" fill="none"></polyline>
<polyline points="1633.69,366.831,5962.4,1487.58" stroke="rgb(0,255,42)" stroke-width="2" fill="none"></polyline>
<polyline points="1597.86,424.54,6469.52,1906.27" stroke="rgb(144,255,0)" stroke-width="2" fill="none"></polyline>
<polyline points="1527.45,441.967,5791.95,1110" stroke="rgb(255,12,0)" stroke-width="2" fill="none"></polyline>
<polyline points="1520.76,446.08,6118.6,2065.25" stroke="rgb(0,67,255)" stroke-width="2" fill="none"></polyline>
<polyline points="2168.99,530.318,5993.59,2137.34" stroke="rgb(157,0,255)" stroke-width="2" fill="none"></polyline>
<polyline points="1519.19,532.187,5970.88,1545.69" stroke="rgb(0,59,255)" stroke-width="2" fill="none"></polyline>
<polyline points="1477.47,544.189,6800.44,2559.87" stroke="rgb(144,255,0)" stroke-width="2" fill="none"></polyline>
<polyline points="1490.06,546.717,5977.5,1015.72" stroke="rgb(255,0,229)" stroke-width="2" fill="none"></polyline>
<polyline points="2135.32,600.275,6882.57,1314.71" stroke="rgb(0,255,38)" stroke-width="2" fill="none"></polyline>
<polyline points="1487.13,628.525,6448.97,1388.51" stroke="rgb(0,255,233)" stroke-width="2" fill="none"></polyline>
<polyline points="2171.57,635.77,5805.11,2451.94" stroke="rgb(255,0,153)" stroke-width="2" fill="none"></polyline>
<polyline points="1419.37,645.498,6089.31,1316.07" stroke="rgb(0,72,255)" stroke-width="2" fill="none"></polyline>
<polyline points="1455.38,647.892,5871.77,1795.76" stroke="rgb(0,255,182)" stroke-width="2" fill="none"></polyline>
<polyline points="1442.6,649.55,6345.91,1808.82" stroke="rgb(0,255,157)" stroke-width="2" fill="none"></polyline>
<polyline points="2389.88,713.089,6353.74,2067.71" stroke="rgb(0,255,118)" stroke-width="2" fill="none"></polyline>
<polyline points="1322.16,720.024,5872.84,1585.52" stroke="rgb(255,0,191)" stroke-width="2" fill="none"></polyline>
<polyline points="1315.71,733.925,6442.25,1544.47" stroke="rgb(80,255,0)" stroke-width="2" fill="none"></polyline>
<polyline points="1330.03,734.292,6537.88,1843.33" stroke="rgb(0,25,255)" stroke-width="2" fill="none"></polyline>
<polyline points="1498.76,734.658,5858.35,2230.28" stroke="rgb(42,0,255)" stroke-width="2" fill="none"></polyline>
<polyline points="1465,736.038,6696.8,2627.46" stroke="rgb(165,255,0)" stroke-width="2" fill="none"></polyline>
<polyline points="2445.12,749.282,6850.69,1655.76" stroke="rgb(0,246,255)" stroke-width="2" fill="none"></polyline>
<polyline points="2493.22,750.877,6075.9,1385.86" stroke="rgb(255,233,0)" stroke-width="2" fill="none"></polyline>
<polyline points="1444.58,755.328,5948.24,2155.02" stroke="rgb(255,0,114)" stroke-width="2" fill="none"></polyline>
<polyline points="1261.95,762.517,6506.67,1294.52" stroke="rgb(255,93,0)" stroke-width="2" fill="none"></polyline>
<polyline points="1240.05,778.566,5945.07,1671.72" stroke="rgb(0,127,255)" stroke-width="2" fill="none"></polyline>
<polyline points="1244.18,795.918,6549,1783.86" stroke="rgb(0,255,16)" stroke-width="2" fill="none"></polyline>
<polyline points="2133.34,828.6,6087.76,2066.27" stroke="rgb(89,0,255)" stroke-width="2" fill="none"></polyline>
<polyline points="2453.5,851.495,5875.95,2285.76" stroke="rgb(0,255,186)" stroke-width="2" fill="none"></polyline>
<polyline points="2538.22,853.774,6460.38,1443.95" stroke="rgb(255,148,0)" stroke-width="2" fill="none"></polyline>
<polyline points="1163.17,866.466,6059.35,1449.39" stroke="rgb(0,67,255)" stroke-width="2" fill="none"></polyline>
<polyline points="1471.38,877.516,6756.66,1506.83" stroke="rgb(0,174,255)" stroke-width="2" fill="none"></polyline>
<polyline points="1414.17,885.657,5813.55,2528.72" stroke="rgb(255,157,0)" stroke-width="2" fill="none"></polyline>
<polyline points="1497.77,894.157,5887.7,2330.9" stroke="rgb(255,0,212)" stroke-width="2" fill="none"></polyline>
<polyline points="1515.93,902.476,5869.1,1831.47" stroke="rgb(0,161,255)" stroke-width="2" fill="none"></polyline>
<polyline points="1222.74,927.429,5835.31,2838.52" stroke="rgb(89,0,255)" stroke-width="2" fill="none"></polyline>
<polyline points="1366.22,968.507,6196.63,2480.41" stroke="rgb(0,55,255)" stroke-width="2" fill="none"></polyline>
<polyline points="1475.42,973.039,5873.2,2458.42" stroke="rgb(254,0,255)" stroke-width="2" fill="none"></polyline>
<polyline points="1232.2,999.428,6240.29,1436.07" stroke="rgb(0,85,255)" stroke-width="2" fill="none"></polyline>
<polyline points="2472.78,1003.06,6361.42,1980.31" stroke="rgb(255,195,0)" stroke-width="2" fill="none"></polyline>
<polyline points="1485.78,1025.73,5905.16,2409.21" stroke="rgb(212,255,0)" stroke-width="2" fill="none"></polyline>
<polyline points="1529.49,1067.52,5830.24,2192.46" stroke="rgb(114,0,255)" stroke-width="2" fill="none"></polyline>
<polyline points="1463.98,1119.26,6757.04,2552.51" stroke="rgb(255,42,0)" stroke-width="2" fill="none"></polyline>
<polyline points="2084.57,1127.39,6753.71,1425.76" stroke="rgb(0,255,191)" stroke-width="2" fill="none"></polyline>
<polyline points="1727.61,1166.64,6591.9,1760.01" stroke="rgb(212,255,0)" stroke-width="2" fill="none"></polyline>
<polyline points="1626.35,1174.66,6178.22,2373.75" stroke="rgb(255,170,0)" stroke-width="2" fill="none"></polyline>
<polyline points="2011.42,1196.56,5621.58,1447.98" stroke="rgb(255,0,199)" stroke-width="2" fill="none"></polyline>
<polyline points="1436.89,1204.72,5727.76,1373.17" stroke="rgb(72,0,255)" stroke-width="2" fill="none"></polyline>
<polyline points="1413.47,1232.04,6865.85,2415.89" stroke="rgb(0,255,89)" stroke-width="2" fill="none"></polyline>
<polyline points="2377.27,1241.88,6010.21,1298.75" stroke="rgb(255,250,0)" stroke-width="2" fill="none"></polyline>
<polyline points="1475.41,1253.84,6161.42,1364.81" stroke="rgb(0,255,114)" stroke-width="2" fill="none"></polyline>
<polyline points="1437.22,1342.99,5939.34,2493.13" stroke="rgb(0,76,255)" stroke-width="2" fill="none"></polyline>
<polyline points="1732.73,1351.23,5871.09,1840.45" stroke="rgb(25,255,0)" stroke-width="2" fill="none"></polyline>
<polyline points="2590.72,1383.3,6754.39,1984.36" stroke="rgb(0,161,255)" stroke-width="2" fill="none"></polyline>
<polyline points="2404.14,1384.38,6471.72,1156.07" stroke="rgb(0,191,255)" stroke-width="2" fill="none"></polyline>
<polyline points="2286.8,1388.53,6737.47,1520.17" stroke="rgb(255,34,0)" stroke-width="2" fill="none"></polyline>
<polyline points="2396.01,1395.67,6567.04,2752.76" stroke="rgb(186,0,255)" stroke-width="2" fill="none"></polyline>
<polyline points="2414.94,1428.93,6476.5,1790.1" stroke="rgb(255,0,169)" stroke-width="2" fill="none"></polyline>
<polyline points="1385.43,1484.07,6326.22,1494.92" stroke="rgb(123,0,255)" stroke-width="2" fill="none"></polyline>
<polyline points="1593.44,1514.9,6087.35,2767.43" stroke="rgb(255,0,165)" stroke-width="2" fill="none"></polyline>
<polyline points="1464.84,1554.8,6851.09,1320.84" stroke="rgb(0,55,255)" stroke-width="2" fill="none"></polyline>
<polyline points="1896.77,1573.16,6419.55,1669.34" stroke="rgb(255,21,0)" stroke-width="2" fill="none"></polyline>
<polyline points="1532.97,1586.12,6444.88,2035.99" stroke="rgb(0,255,169)" stroke-width="2" fill="none"></polyline>
<polyline points="1283.96,1602,6636.15,1312.51" stroke="rgb(0,255,67)" stroke-width="2" fill="none"></polyline>
<polyline points="1444.28,1654.15,5942.78,2347.57" stroke="rgb(255,0,191)" stroke-width="2" fill="none"></polyline>
<polyline points="1497.01,1678.66,6701.43,1281.43" stroke="rgb(255,12,0)" stroke-width="2" fill="none"></polyline>
<polyline points="1030.86,1679.69,6313.04,1714.78" stroke="rgb(255,161,0)" stroke-width="2" fill="none"></polyline>
<polyline points="1862.15,1710.68,6685.54,1337.26" stroke="rgb(255,229,0)" stroke-width="2" fill="none"></polyline>
<polyline points="1086.83,1799.93,6558.29,1350.89" stroke="rgb(255,0,242)" stroke-width="2" fill="none"></polyline>
<polyline points="1562.37,1814.57,6438.22,2198.42" stroke="rgb(0,255,42)" stroke-width="2" fill="none"></polyline>
<polyline points="2468.99,1822.76,6725.98,1346.1" stroke="rgb(84,255,0)" stroke-width="2" fill="none"></polyline>
<polyline points="1835.01,1861.56,6093.03,2053.53" stroke="rgb(21,0,255)" stroke-width="2" fill="none"></polyline>
<polyline points="1591.8,1866.94,6451.12,2375.94" stroke="rgb(255,157,0)" stroke-width="2" fill="none"></polyline>
<polyline points="936.142,1880.65,6638.44,1264.46" stroke="rgb(255,0,72)" stroke-width="2" fill="none"></polyline>
<polyline points="1691.19,1886.15,6413.83,1574.77" stroke="rgb(178,0,255)" stroke-width="2" fill="none"></polyline>
<polyline points="955.792,1911.67,6802.79,2696.76" stroke="rgb(255,0,89)" stroke-width="2" fill="none"></polyline>
<polyline points="810.08,1917.49,6446.06,1431.18" stroke="rgb(255,97,0)" stroke-width="2" fill="none"></polyline>
<polyline points="2562.37,1921.23,6068.98,2116.53" stroke="rgb(55,255,0)" stroke-width="2" fill="none"></polyline>
<polyline points="1544.7,1928.82,6464.94,1792.83" stroke="rgb(51,255,0)" stroke-width="2" fill="none"></polyline>
<polyline points="895.95,1993.16,6546.52,1316.59" stroke="rgb(0,255,186)" stroke-width="2" fill="none"></polyline>
<polyline points="1642.61,1999.04,6835.52,1947.46" stroke="rgb(0,255,199)" stroke-width="2" fill="none"></polyline>
<polyline points="2246.08,2003.09,5814.62,1719.76" stroke="rgb(67,0,255)" stroke-width="2" fill="none"></polyline>
<polyline points="2227.12,2026.82,6066.95,2603.81" stroke="rgb(76,0,255)" stroke-width="2" fill="none"></polyline>
<polyline points="1591.49,2033.05,6350.21,1048.24" stroke="rgb(0,255,140)" stroke-width="2" fill="none"></polyline>
<polyline points="2308.22,2037.08,6896.83,1502.21" stroke="rgb(255,0,127)" stroke-width="2" fill="none"></polyline>
<polyline points="1135.94,2039.83,6377.85,1896.73" stroke="rgb(255,0,148)" stroke-width="2" fill="none"></polyline>
<polyline points="1030.42,2053.73,5912.86,1163.37" stroke="rgb(0,255,174)" stroke-width="2" fill="none"></polyline>
<polyline points="2349.02,2063.03,5796.87,1470.26" stroke="rgb(0,255,29)" stroke-width="2" fill="none"></polyline>
<polyline points="1034.1,2073.13,5963.72,1128.46" stroke="rgb(191,0,255)" stroke-width="2" fill="none"></polyline>
<circle cx="1276.89" cy="244.243" r="4" stroke="rgb(123,255,0)" stroke-width="2" fill="none"></circle>
<circle cx="6797.03" cy="2701.84" r="4" stroke="rgb(123,255,0)" stroke-width="2" fill="none"></circle>
<circle cx="1159.21" cy="319.908" r="4" stroke="rgb(0,255,182)" stroke-width="2" fill="none"></circle>
<circle cx="5798.61" cy="2286.37" r="4" stroke="rgb(0,255,182)" stroke-width="2" fill="none"></circle>
<circle cx="1633.69" cy="366.831" r="4" stroke="rgb(0,255,42)" stroke-width="2" fill="none"></circle>
<circle cx="5962.4" cy="1487.58" r="4" stroke="rgb(0,255,42)" stroke-width="2" fill="none"></circle>
<circle cx="1597.86" cy="424.54" r="4" stroke="rgb(144,255,0)" stroke-width="2" fill="none"></circle>
<circle cx="6469.52" cy="1906.27" r="4" stroke="rgb(144,255,0)" stroke-width="2" fill="none"></circle>
<circle cx="1527.45" cy="441.967" r="4" stroke="rgb(255,12,0)" stroke-width="2" fill="none"></circle>
<circle cx="5791.95" cy="1110" r="4" stroke="rgb(255,12,0)" stroke-width="2" fill="none"></circle>
<circle cx="1520.76" cy="446.08" r="4" stroke="rgb(0,67,255)" stroke-width="2" fill="none"></circle>
<circle cx="6118.6" cy="2065.25" r="4" stroke="rgb(0,67,255)" stroke-width="2" fill="none"></circle>
<circle cx="2168.99" cy="530.318" r="4" stroke="rgb(157,0,255)" stroke-width="2" fill="none"></circle>
<circle cx="5993.59" cy="2137.34" r="4" stroke="rgb(157,0,255)" stroke-width="2" fill="none"></circle>
<circle cx="1519.19" cy="532.187" r="4" stroke="rgb(0,59,255)" stroke-width="2" fill="none"></circle>
<circle cx="5970.88" cy="1545.69" r="4" stroke="rgb(0,59,255)" stroke-width="2" fill="none"></circle>
<circle cx="1477.47" cy="544.189" r="4" stroke="rgb(144,255,0)" stroke-width="2" fill="none"></circle>
<circle cx="6800.44" cy="2559.87" r="4" stroke="rgb(144,255,0)" stroke-width="2" fill="none"></circle>
<circle cx="1490.06" cy="546.717" r="4" stroke="rgb(255,0,229)" stroke-width="2" fill="none"></circle>
<circle cx="5977.5" cy="1015.72" r="4" stroke="rgb(255,0,229)" stroke-width="2" fill="none"></circle>
<circle cx="2135.32" cy="600.275" r="4" stroke="rgb(0,255,38)" stroke-width="2" fill="none"></circle>
<circle cx="6882.57" cy="1314.71" r="4" stroke="rgb(0,255,38)" stroke-width="2" fill="none"></circle>
<circle cx="1487.13" cy="628.525" r="4" stroke="rgb(0,255,233)" stroke-width="2" fill="none"></circle>
<circle cx="6448.97" cy="1388.51" r="4" stroke="rgb(0,255,233)" stroke-width="2" fill="none"></circle>
<circle cx="2171.57" cy="635.77" r="4" stroke="rgb(255,0,153)" stroke-width="2" fill="none"></circle>
<circle cx="5805.11" cy="2451.94" r="4" stroke="rgb(255,0,153)" stroke-width="2" fill="none"></circle>
<circle cx="1419.37" cy="645.498" r="4" stroke="rgb(0,72,255)" stroke-width="2" fill="none"></circle>
<circle cx="6089.31" cy="1316.07" r="4" stroke="rgb(0,72,255)" stroke-width="2" fill="none"></circle>
<circle cx="1455.38" cy="647.892" r="4" stroke="rgb(0,255,182)" stroke-width="2" fill="none"></circle>
<circle cx="5871.77" cy="1795.76" r="4" stroke="rgb(0,255,182)" stroke-width="2" fill="none"></circle>
<circle cx="1442.6" cy="649.55" r="4" stroke="rgb(0,255,157)" stroke-width="2" fill="none"></circle>
<circle cx="6345.91" cy="1808.82" r="4" stroke="rgb(0,255,157)" stroke-width="2" fill="none"></circle>
<circle cx="2389.88" cy="713.089" r="4" stroke="rgb(0,255,118)" stroke-width="2" fill="none"></circle>
<circle cx="6353.74" cy="2067.71" r="4" stroke="rgb(0,255,118)" stroke-width="2" fill="none"></circle>
<circle cx="1322.16" cy="720.024" r="4" stroke="rgb(255,0,191)" stroke-width="2" fill="none"></circle>
<circle cx="5872.84" cy="1585.52" r="4" stroke="rgb(255,0,191)" stroke-width="2" fill="none"></circle>
<circle cx="1315.71" cy="733.925" r="4" stroke="rgb(80,255,0)" stroke-width="2" fill="none"></circle>
<circle cx="6442.25" cy="1544.47" r="4" stroke="rgb(80,255,0)" stroke-width="2" fill="none"></circle>
<circle cx="1330.03" cy="734.292" r="4" stroke="rgb(0,25,255)" stroke-width="2" fill="none"></circle>
<circle cx="6537.88" cy="1843.33" r="4" stroke="rgb(0,25,255)" stroke-width="2" fill="none"></circle>
<circle cx="1498.76" cy="734.658" r="4" stroke="rgb(42,0,255)" stroke-width="2" fill="none"></circle>
<circle cx="5858.35" cy="2230.28" r="4" stroke="rgb(42,0,255)" stroke-width="2" fill="none"></circle>
<circle cx="1465" cy="736.038" r="4" stroke="rgb(165,255,0)" stroke-width="2" fill="none"></circle>
<circle cx="6696.8" cy="2627.46" r="4" stroke="rgb(165,255,0)" stroke-width="2" fill="none"></circle>
<circle cx="2445.12" cy="749.282" r="4" stroke="rgb(0,246,255)" stroke-width="2" fill="none"></circle>
<circle cx="6850.69" cy="1655.76" r="4" stroke="rgb(0,246,255)" stroke-width="2" fill="none"></circle>
<circle cx="2493.22" cy="750.877" r="4" stroke="rgb(255,233,0)" stroke-width="2" fill="none"></circle>
<circle cx="6075.9" cy="1385.86" r="4" stroke="rgb(255,233,0)" stroke-width="2" fill="none"></circle>
<circle cx="1444.58" cy="755.328" r="4" stroke="rgb(255,0,114)" stroke-width="2" fill="none"></circle>
<circle cx="5948.24" cy="2155.02" r="4" stroke="rgb(255,0,114)" stroke-width="2" fill="none"></circle>
<circle cx="1261.95" cy="762.517" r="4" stroke="rgb(255,93,0)" stroke-width="2" fill="none"></circle>
<circle cx="6506.67" cy="1294.52" r="4" stroke="rgb(255,93,0)" stroke-width="2" fill="none"></circle>
<circle cx="1240.05" cy="778.566" r="4" stroke="rgb(0,127,255)" stroke-width="2" fill="none"></circle>
<circle cx="5945.07" cy="1671.72" r="4" stroke="rgb(0,127,255)" stroke-width="2" fill="none"></circle>
<circle cx="1244.18" cy="795.918" r="4" stroke="rgb(0,255,16)" stroke-width="2" fill="none"></circle>
<circle cx="6549" cy="1783.86" r="4" stroke="rgb(0,255,16)" stroke-width="2" fill="none"></circle>
<circle cx="2133.34" cy="828.6" r="4" stroke="rgb(89,0,255)" stroke-width="2" fill="none"></circle>
<circle cx="6087.76" cy="2066.27" r="4" stroke="rgb(89,0,255)" stroke-width="2" fill="none"></circle>
<circle cx="2453.5" cy="851.495" r="4" stroke="rgb(0,255,186)" stroke-width="2" fill="none"></circle>
<circle cx="5875.95" cy="2285.76" r="4" stroke="rgb(0,255,186)" stroke-width="2" fill="none"></circle>
<circle cx="2538.22" cy="853.774" r="4" stroke="rgb(255,148,0)" stroke-width="2" fill="none"></circle>
<circle cx="6460.38" cy="1443.95" r="4" stroke="rgb(255,148,0)" stroke-width="2" fill="none"></circle>
<circle cx="1163.17" cy="866.466" r="4" stroke="rgb(0,67,255)" stroke-width="2" fill="none"></circle>
<circle cx="6059.35" cy="1449.39" r="4" stroke="rgb(0,67,255)" stroke-width="2" fill="none"></circle>
<circle cx="1471.38" cy="877.516" r="4" stroke="rgb(0,174,255)" stroke-width="2" fill="none"></circle>
<circle cx="6756.66" cy="1506.83" r="4" stroke="rgb(0,174,255)" stroke-width="2" fill="none"></circle>
<circle cx="1414.17" cy="885.657" r="4" stroke="rgb(255,157,0)" stroke-width="2" fill="none"></circle>
<circle cx="5813.55" cy="2528.72" r="4" stroke="rgb(255,157,0)" stroke-width="2" fill="none"></circle>
<circle cx="1497.77" cy="894.157" r="4" stroke="rgb(255,0,212)" stroke-width="2" fill="none"></circle>
<circle cx="5887.7" cy="2330.9" r="4" stroke="rgb(255,0,212)" stroke-width="2" fill="none"></circle>
<circle cx="1515.93" cy="902.476" r="4" stroke="rgb(0,161,255)" stroke-width="2" fill="none"></circle>
<circle cx="5869.1" cy="1831.47" r="4" stroke="rgb(0,161,255)" stroke-width="2" fill="none"></circle>
<circle cx="1222.74" cy="927.429" r="4" stroke="rgb(89,0,255)" stroke-width="2" fill="none"></circle>
<circle cx="5835.31" cy="2838.52" r="4" stroke="rgb(89,0,255)" stroke-width="2" fill="none"></circle>
<circle cx="1366.22" cy="968.507" r="4" stroke="rgb(0,55,255)" stroke-width="2" fill="none"></circle>
<circle cx="6196.63" cy="2480.41" r="4" stroke="rgb(0,55,255)" stroke-width="2" fill="none"></circle>
<circle cx="1475.42" cy="973.039" r="4" stroke="rgb(254,0,255)" stroke-width="2" fill="none"></circle>
<circle cx="5873.2" cy="2458.42" r="4" stroke="rgb(254,0,255)" stroke-width="2" fill="none"></circle>
<circle cx="1232.2" cy="999.428" r="4" stroke="rgb(0,85,255)" stroke-width="2" fill="none"></circle>
<circle cx="6240.29" cy="1436.07" r="4" stroke="rgb(0,85,255)" stroke-width="2" fill="none"></circle>
<circle cx="2472.78" cy="1003.06" r="4" stroke="rgb(255,195,0)" stroke-width="2" fill="none"></circle>
<circle cx="6361.42" cy="1980.31" r="4" stroke="rgb(255,195,0)" stroke-width="2" fill="none"></circle>
<circle cx="1485.78" cy="1025.73" r="4" stroke="rgb(212,255,0)" stroke-width="2" fill="none"></circle>
<circle cx="5905.16" cy="2409.21" r="4" stroke="rgb(212,255,0)" stroke-width="2" fill="none"></circle>
<circle cx="1529.49" cy="1067.52" r="4" stroke="rgb(114,0,255)" stroke-width="2" fill="none"></circle>
<circle cx="5830.24" cy="2192.46" r="4" stroke="rgb(114,0,255)" stroke-width="2" fill="none"></circle>
<circle cx="1463.98" cy="1119.26" r="4" stroke="rgb(255,42,0)" stroke-width="2" fill="none"></circle>
<circle cx="6757.04" cy="2552.51" r="4" stroke="rgb(255,42,0)" stroke-width="2" fill="none"></circle>
<circle cx="2084.57" cy="1127.39" r="4" stroke="rgb(0,255,191)" stroke-width="2" fill="none"></circle>
<circle cx="6753.71" cy="1425.76" r="4" stroke="rgb(0,255,191)" stroke-width="2" fill="none"></circle>
<circle cx="1727.61" cy="1166.64" r="4" stroke="rgb(212,255,0)" stroke-width="2" fill="none"></circle>
<circle cx="6591.9" cy="1760.01" r="4" stroke="rgb(212,255,0)" stroke-width="2" fill="none"></circle>
<circle cx="1626.35" cy="1174.66" r="4" stroke="rgb(255,170,0)" stroke-width="2" fill="none"></circle>
<circle cx="6178.22" cy="2373.75" r="4" stroke="rgb(255,170,0)" stroke-width="2" fill="none"></circle>
<circle cx="2011.42" cy="1196.56" r="4" stroke="rgb(255,0,199)" stroke-width="2" fill="none"></circle>
<circle cx="5621.58" cy="1447.98" r="4" stroke="rgb(255,0,199)" stroke-width="2" fill="none"></circle>
<circle cx="1436.89" cy="1204.72" r="4" stroke="rgb(72,0,255)" stroke-width="2" fill="none"></circle>
<circle cx="5727.76" cy="1373.17" r="4" stroke="rgb(72,0,255)" stroke-width="2" fill="none"></circle>
<circle cx="1413.47" cy="1232.04" r="4" stroke="rgb(0,255,89)" stroke-width="2" fill="none"></circle>
<circle cx="6865.85" cy="2415.89" r="4" stroke="rgb(0,255,89)" stroke-width="2" fill="none"></circle>
<circle cx="2377.27" cy="1241.88" r="4" stroke="rgb(255,250,0)" stroke-width="2" fill="none"></circle>
<circle cx="6010.21" cy="1298.75" r="4" stroke="rgb(255,250,0)" stroke-width="2" fill="none"></circle>
<circle cx="1475.41" cy="1253.84" r="4" stroke="rgb(0,255,114)" stroke-width="2" fill="none"></circle>
<circle cx="6161.42" cy="1364.81" r="4" stroke="rgb(0,255,114)" stroke-width="2" fill="none"></circle>
<circle cx="1437.22" cy="1342.99" r="4" stroke="rgb(0,76,255)" stroke-width="2" fill="none"></circle>
<circle cx="5939.34" cy="2493.13" r="4" stroke="rgb(0,76,255)" stroke-width="2" fill="none"></circle>
<circle cx="1732.73" cy="1351.23" r="4" stroke="rgb(25,255,0)" stroke-width="2" fill="none"></circle>
<circle cx="5871.09" cy="1840.45" r="4" stroke="rgb(25,255,0)" stroke-width="2" fill="none"></circle>
<circle cx="2590.72" cy="1383.3" r="4" stroke="rgb(0,161,255)" stroke-width="2" fill="none"></circle>
<circle cx="6754.39" cy="1984.36" r="4" stroke="rgb(0,161,255)" stroke-width="2" fill="none"></circle>
<circle cx="2404.14" cy="1384.38" r="4" stroke="rgb(0,191,255)" stroke-width="2" fill="none"></circle>
<circle cx="6471.72" cy="1156.07" r="4" stroke="rgb(0,191,255)" stroke-width="2" fill="none"></circle>
<circle cx="2286.8" cy="1388.53" r="4" stroke="rgb(255,34,0)" stroke-width="2" fill="none"></circle>
<circle cx="6737.47" cy="1520.17" r="4" stroke="rgb(255,34,0)" stroke-width="2" fill="none"></circle>
<circle cx="2396.01" cy="1395.67" r="4" stroke="rgb(186,0,255)" stroke-width="2" fill="none"></circle>
<circle cx="6567.04" cy="2752.76" r="4" stroke="rgb(186,0,255)" stroke-width="2" fill="none"></circle>
<circle cx="2414.94" cy="1428.93" r="4" stroke="rgb(255,0,169)" stroke-width="2" fill="none"></circle>
<circle cx="6476.5" cy="1790.1" r="4" stroke="rgb(255,0,169)" stroke-width="2" fill="none"></circle>
<circle cx="1385.43" cy="1484.07" r="4" stroke="rgb(123,0,255)" stroke-width="2" fill="none"></circle>
<circle cx="6326.22" cy="1494.92" r="4" stroke="rgb(123,0,255)" stroke-width="2" fill="none"></circle>
<circle cx="1593.44" cy="1514.9" r="4" stroke="rgb(255,0,165)" stroke-width="2" fill="none"></circle>
<circle cx="6087.35" cy="2767.43" r="4" stroke="rgb(255,0,165)" stroke-width="2" fill="none"></circle>
<circle cx="1464.84" cy="1554.8" r="4" stroke="rgb(0,55,255)" stroke-width="2" fill="none"></circle>
<circle cx="6851.09" cy="1320.84" r="4" stroke="rgb(0,55,255)" stroke-width="2" fill="none"></circle>
<circle cx="1896.77" cy="1573.16" r="4" stroke="rgb(255,21,0)" stroke-width="2" fill="none"></circle>
<circle cx="6419.55" cy="1669.34" r="4" stroke="rgb(255,21,0)" stroke-width="2" fill="none"></circle>
<circle cx="1532.97" cy="1586.12" r="4" stroke="rgb(0,255,169)" stroke-width="2" fill="none"></circle>
<circle cx="6444.88" cy="2035.99" r="4" stroke="rgb(0,255,169)" stroke-width="2" fill="none"></circle>
<circle cx="1283.96" cy="1602" r="4" stroke="rgb(0,255,67)" stroke-width="2" fill="none"></circle>
<circle cx="6636.15" cy="1312.51" r="4" stroke="rgb(0,255,67)" stroke-width="2" fill="none"></circle>
<circle cx="1444.28" cy="1654.15" r="4" stroke="rgb(255,0,191)" stroke-width="2" fill="none"></circle>
<circle cx="5942.78" cy="2347.57" r="4" stroke="rgb(255,0,191)" stroke-width="2" fill="none"></circle>
<circle cx="1497.01" cy="1678.66" r="4" stroke="rgb(255,12,0)" stroke-width="2" fill="none"></circle>
<circle cx="6701.43" cy="1281.43" r="4" stroke="rgb(255,12,0)" stroke-width="2" fill="none"></circle>
<circle cx="1030.86" cy="1679.69" r="4" stroke="rgb(255,161,0)" stroke-width="2" fill="none"></circle>
<circle cx="6313.04" cy="1714.78" r="4" stroke="rgb(255,161,0)" stroke-width="2" fill="none"></circle>
<circle cx="1862.15" cy="1710.68" r="4" stroke="rgb(255,229,0)" stroke-width="2" fill="none"></circle>
<circle cx="6685.54" cy="1337.26" r="4" stroke="rgb(255,229,0)" stroke-width="2" fill="none"></circle>
<circle cx="1086.83" cy="1799.93" r="4" stroke="rgb(255,0,242)" stroke-width="2" fill="none"></circle>
<circle cx="6558.29" cy="1350.89" r="4" stroke="rgb(255,0,242)" stroke-width="2" fill="none"></circle>
<circle cx="1562.37" cy="1814.57" r="4" stroke="rgb(0,255,42)" stroke-width="2" fill="none"></circle>
<circle cx="6438.22" cy="2198.42" r="4" stroke="rgb(0,255,42)" stroke-width="2" fill="none"></circle>
<circle cx="2468.99" cy="1822.76" r="4" stroke="rgb(84,255,0)" stroke-width="2" fill="none"></circle>
<circle cx="6725.98" cy="1346.1" r="4" stroke="rgb(84,255,0)" stroke-width="2" fill="none"></circle>
<circle cx="1835.01" cy="1861.56" r="4" stroke="rgb(21,0,255)" stroke-width="2" fill="none"></circle>
<circle cx="6093.03" cy="2053.53" r="4" stroke="rgb(21,0,255)" stroke-width="2" fill="none"></circle>
<circle cx="1591.8" cy="1866.94" r="4" stroke="rgb(255,157,0)" stroke-width="2" fill="none"></circle>
<circle cx="6451.12" cy="2375.94" r="4" stroke="rgb(255,157,0)" stroke-width="2" fill="none"></circle>
<circle cx="936.142" cy="1880.65" r="4" stroke="rgb(255,0,72)" stroke-width="2" fill="none"></circle>
<circle cx="6638.44" cy="1264.46" r="4" stroke="rgb(255,0,72)" stroke-width="2" fill="none"></circle>
<circle cx="1691.19" cy="1886.15" r="4" stroke="rgb(178,0,255)" stroke-width="2" fill="none"></circle>
<circle cx="6413.83" cy="1574.77" r="4" stroke="rgb(178,0,255)" stroke-width="2" fill="none"></circle>
<circle cx="955.792" cy="1911.67" r="4" stroke="rgb(255,0,89)" stroke-width="2" fill="none"></circle>
<circle cx="6802.79" cy="2696.76" r="4" stroke="rgb(255,0,89)" stroke-width="2" fill="none"></circle>
<circle cx="810.08" cy="1917.49" r="4" stroke="rgb(255,97,0)" stroke-width="2" fill="none"></circle>
<circle cx="6446.06" cy="1431.18" r="4" stroke="rgb(255,97,0)" stroke-width="2" fill="none"></circle>
<circle cx="2562.37" cy="1921.23" r="4" stroke="rgb(55,255,0)" stroke-width="2" fill="none"></circle>
<circle cx="6068.98" cy="2116.53" r="4" stroke="rgb(55,255,0)" stroke-width="2" fill="none"></circle>
<circle cx="1544.7" cy="1928.82" r="4" stroke="rgb(51,255,0)" stroke-width="2" fill="none"></circle>
<circle cx="6464.94" cy="1792.83" r="4" stroke="rgb(51,255,0)" stroke-width="2" fill="none"></circle>
<circle cx="895.95" cy="1993.16" r="4" stroke="rgb(0,255,186)" stroke-width="2" fill="none"></circle>
<circle cx="6546.52" cy="1316.59" r="4" stroke="rgb(0,255,186)" stroke-width="2" fill="none"></circle>
<circle cx="1642.61" cy="1999.04" r="4" stroke="rgb(0,255,199)" stroke-width="2" fill="none"></circle>
<circle cx="6835.52" cy="1947.46" r="4" stroke="rgb(0,255,199)" stroke-width="2" fill="none"></circle>
<circle cx="2246.08" cy="2003.09" r="4" stroke="rgb(67,0,255)" stroke-width="2" fill="none"></circle>
<circle cx="5814.62" cy="1719.76" r="4" stroke="rgb(67,0,255)" stroke-width="2" fill="none"></circle>
<circle cx="2227.12" cy="2026.82" r="4" stroke="rgb(76,0,255)" stroke-width="2" fill="none"></circle>
<circle cx="6066.95" cy="2603.81" r="4" stroke="rgb(76,0,255)" stroke-width="2" fill="none"></circle>
<circle cx="1591.49" cy="2033.05" r="4" stroke="rgb(0,255,140)" stroke-width="2" fill="none"></circle>
<circle cx="6350.21" cy="1048.24" r="4" stroke="rgb(0,255,140)" stroke-width="2" fill="none"></circle>
<circle cx="2308.22" cy="2037.08" r="4" stroke="rgb(255,0,127)" stroke-width="2" fill="none"></circle>
<circle cx="6896.83" cy="1502.21" r="4" stroke="rgb(255,0,127)" stroke-width="2" fill="none"></circle>
<circle cx="1135.94" cy="2039.83" r="4" stroke="rgb(255,0,148)" stroke-width="2" fill="none"></circle>
<circle cx="6377.85" cy="1896.73" r="4" stroke="rgb(255,0,148)" stroke-width="2" fill="none"></circle>
<circle cx="1030.42" cy="2053.73" r="4" stroke="rgb(0,255,174)" stroke-width="2" fill="none"></circle>
<circle cx="5912.86" cy="1163.37" r="4" stroke="rgb(0,255,174)" stroke-width="2" fill="none"></circle>
<circle cx="2349.02" cy="2063.03" r="4" stroke="rgb(0,255,29)" stroke-width="2" fill="none"></circle>
<circle cx="5796.87" cy="1470.26" r="4" stroke="rgb(0,255,29)" stroke-width="2" fill="none"></circle>
<circle cx="1034.1" cy="2073.13" r="4" stroke="rgb(191,0,255)" stroke-width="2" fill="none"></circle>
<circle cx="5963.72" cy="1128.46" r="4" stroke="rgb(191,0,255)" stroke-width="2" fill="none"></circle>
</svg>