<?xml version="1.0" standalone="yes"?>
<!-- SVG graphic -->
<svg xmlns='http://www.w3.org/2000/svg' xmlns:xlink='http://www.w3.org/1999/xlink'
width="8064px" height="3024px" preserveAspectRatio="xMinYMin meet" viewBox="0 0 8064 3024" version="1.1">
<image x="0" y="0" width="4032px" height="3024px" opacity="1" xlink:href="/home/jeong/Code/2D-to-3D-Modeling-using-AI/Make3D/Image/20200227_180709.jpg"/>
<image x="4032" y="0" width="4032px" height="3024px" opacity="1" xlink:href="/home/jeong/Code/2D-to-3D-Modeling-using-AI/Make3D/Image/20200227_180720.jpg"/>
<polyline points="1289.1,625.956,5301.33,1381.41" stroke="rgb(0,255,140)" stroke-width="2" fill="none"></polyline>
<polyline points="1237.01,708.728,5479.57,676.253" stroke="rgb(140,0,255)" stroke-width="2" fill="none"></polyline>
<polyline points="1241.32,857.977,6223.23,679.279" stroke="rgb(97,0,255)" stroke-width="2" fill="none"></polyline>
<polyline points="1395.37,868.573,5345.64,651.289" stroke="rgb(0,144,255)" stroke-width="2" fill="none"></polyline>
<polyline points="1435.59,871.758,6842.41,1268.83" stroke="rgb(238,0,255)" stroke-width="2" fill="none"></polyline>
<polyline points="1377.78,876.023,6412.13,611.746" stroke="rgb(0,255,191)" stroke-width="2" fill="none"></polyline>
<polyline points="1316.04,920.645,5917.88,1542.73" stroke="rgb(255,0,191)" stroke-width="2" fill="none"></polyline>
<polyline points="1221.73,922.934,5617.4,736.21" stroke="rgb(34,0,255)" stroke-width="2" fill="none"></polyline>
<polyline points="1363.19,934.68,6446.65,628.753" stroke="rgb(0,153,255)" stroke-width="2" fill="none"></polyline>
<polyline points="1644.97,941.129,5611.83,974.428" stroke="rgb(123,255,0)" stroke-width="2" fill="none"></polyline>
<polyline points="1515.28,962.544,5329.66,773.841" stroke="rgb(4,0,255)" stroke-width="2" fill="none"></polyline>
<polyline points="2038.49,984.909,6440.51,1415.84" stroke="rgb(255,42,0)" stroke-width="2" fill="none"></polyline>
<polyline points="1333.86,985.872,5199.66,1292.73" stroke="rgb(255,34,0)" stroke-width="2" fill="none"></polyline>
<polyline points="2112.65,1028.63,6535.19,576.687" stroke="rgb(255,182,0)" stroke-width="2" fill="none"></polyline>
<polyline points="1766.2,1110.88,5223.05,934.213" stroke="rgb(195,255,0)" stroke-width="2" fill="none"></polyline>
<polyline points="2210.01,1124.76,6287.09,892.88" stroke="rgb(42,0,255)" stroke-width="2" fill="none"></polyline>
<polyline points="1317.88,1170.02,5940.15,919.095" stroke="rgb(255,0,182)" stroke-width="2" fill="none"></polyline>
<polyline points="2407.93,1193.28,6773.93,1367.79" stroke="rgb(0,255,220)" stroke-width="2" fill="none"></polyline>
<polyline points="1269.95,1204.96,6175.02,997.015" stroke="rgb(0,255,246)" stroke-width="2" fill="none"></polyline>
<polyline points="2438.25,1212.02,5925.61,648.693" stroke="rgb(255,0,114)" stroke-width="2" fill="none"></polyline>
<polyline points="1258.58,1213.73,6363.96,1239.08" stroke="rgb(0,225,255)" stroke-width="2" fill="none"></polyline>
<polyline points="1400.59,1219.49,6029.32,1340.06" stroke="rgb(216,0,255)" stroke-width="2" fill="none"></polyline>
<polyline points="1234.89,1249.88,5621.05,607.05" stroke="rgb(0,114,255)" stroke-width="2" fill="none"></polyline>
<polyline points="2491.99,1252.11,6827.32,1362.2" stroke="rgb(0,110,255)" stroke-width="2" fill="none"></polyline>
<polyline points="2471.21,1255.83,6820.64,1348.11" stroke="rgb(255,4,0)" stroke-width="2" fill="none"></polyline>
<polyline points="1494.45,1260.88,6564.57,1322.81" stroke="rgb(0,225,255)" stroke-width="2" fill="none"></polyline>
<polyline points="2151.59,1273.26,5233.86,875.269" stroke="rgb(0,255,106)" stroke-width="2" fill="none"></polyline>
<polyline points="2464.86,1292.28,6734.83,1426.57" stroke="rgb(0,29,255)" stroke-width="2" fill="none"></polyline>
<polyline points="1353.07,1344.55,6788.05,1222.15" stroke="rgb(0,255,84)" stroke-width="2" fill="none"></polyline>
<polyline points="2540.36,1380.03,6715.55,1481.69" stroke="rgb(0,255,76)" stroke-width="2" fill="none"></polyline>
<polyline points="1505.64,1398.42,6777.97,761.668" stroke="rgb(255,140,0)" stroke-width="2" fill="none"></polyline>
<polyline points="1657.23,1430,6104.87,1415.53" stroke="rgb(0,255,191)" stroke-width="2" fill="none"></polyline>
<polyline points="1268.78,1442.29,5783.02,825.477" stroke="rgb(255,216,0)" stroke-width="2" fill="none"></polyline>
<polyline points="1533.04,1443.59,6548.81,1343.3" stroke="rgb(238,0,255)" stroke-width="2" fill="none"></polyline>
<polyline points="1247.2,1471.45,6230.27,1040.67" stroke="rgb(255,46,0)" stroke-width="2" fill="none"></polyline>
<polyline points="1221.54,1486.78,5239.86,1305.17" stroke="rgb(255,0,55)" stroke-width="2" fill="none"></polyline>
<polyline points="2560.62,1493.34,6822.95,1371.88" stroke="rgb(255,0,114)" stroke-width="2" fill="none"></polyline>
<polyline points="1364.78,1510.61,5902.92,1000.3" stroke="rgb(0,178,255)" stroke-width="2" fill="none"></polyline>
<polyline points="1358.07,1524.36,5996.71,1538.42" stroke="rgb(55,255,0)" stroke-width="2" fill="none"></polyline>
<polyline points="1454.26,1546.08,5899.69,1189.54" stroke="rgb(0,255,246)" stroke-width="2" fill="none"></polyline>
<polyline points="1262.16,1712.32,6245.11,489.309" stroke="rgb(0,255,174)" stroke-width="2" fill="none"></polyline>
<polyline points="1405.56,1747.59,5300.19,688.336" stroke="rgb(0,85,255)" stroke-width="2" fill="none"></polyline>
<polyline points="2309.42,1749.66,6000.94,573.75" stroke="rgb(0,221,255)" stroke-width="2" fill="none"></polyline>
<polyline points="1822.75,1767.14,6828.1,1407.31" stroke="rgb(255,178,0)" stroke-width="2" fill="none"></polyline>
<polyline points="1266.78,1778.34,5160.17,1381.99" stroke="rgb(102,0,255)" stroke-width="2" fill="none"></polyline>
<polyline points="1641.66,1778.48,5816.57,645.706" stroke="rgb(0,255,59)" stroke-width="2" fill="none"></polyline>
<polyline points="1799.53,1786,6150.33,1292.62" stroke="rgb(221,0,255)" stroke-width="2" fill="none"></polyline>
<polyline points="1854.6,1792.43,6868.64,1206" stroke="rgb(114,255,0)" stroke-width="2" fill="none"></polyline>
<polyline points="1631.87,1824.52,6630.42,1256.42" stroke="rgb(255,0,229)" stroke-width="2" fill="none"></polyline>
<polyline points="1156.83,1829.21,6388.49,1073.31" stroke="rgb(255,0,76)" stroke-width="2" fill="none"></polyline>
<polyline points="1504.4,1847.6,5737.55,1294.48" stroke="rgb(246,0,255)" stroke-width="2" fill="none"></polyline>
<polyline points="1532.23,1849.52,5753.54,1321.12" stroke="rgb(0,255,55)" stroke-width="2" fill="none"></polyline>
<polyline points="1528.29,1877.74,5199.86,883.865" stroke="rgb(140,0,255)" stroke-width="2" fill="none"></polyline>
<polyline points="2479.9,1886.56,6064.06,1323.58" stroke="rgb(0,255,131)" stroke-width="2" fill="none"></polyline>
<polyline points="1463.88,1910.39,5368.37,911.608" stroke="rgb(0,89,255)" stroke-width="2" fill="none"></polyline>
<polyline points="1506.41,1918.76,5692,1342.05" stroke="rgb(0,255,110)" stroke-width="2" fill="none"></polyline>
<polyline points="2416.45,1929.26,5482.34,969.804" stroke="rgb(0,123,255)" stroke-width="2" fill="none"></polyline>
<polyline points="1627.05,1933.16,5773.48,1419.13" stroke="rgb(0,12,255)" stroke-width="2" fill="none"></polyline>
<polyline points="1644.67,1939.12,5749.14,1442.95" stroke="rgb(255,80,0)" stroke-width="2" fill="none"></polyline>
<polyline points="1122.27,1943.29,5202.75,920.198" stroke="rgb(255,0,38)" stroke-width="2" fill="none"></polyline>
<polyline points="1416.42,1992.98,4804.13,1165.87" stroke="rgb(255,63,0)" stroke-width="2" fill="none"></polyline>
<polyline points="1278.25,2002.52,5612.56,1179.51" stroke="rgb(255,221,0)" stroke-width="2" fill="none"></polyline>
<polyline points="1418.9,2019.85,6347.41,541.897" stroke="rgb(255,119,0)" stroke-width="2" fill="none"></polyline>
<polyline points="1214.84,2051.85,5342.5,1184.03" stroke="rgb(246,0,255)" stroke-width="2" fill="none"></polyline>
<polyline points="988.401,2073.09,5230.8,1002.32" stroke="rgb(0,85,255)" stroke-width="2" fill="none"></polyline>
<polyline points="1160.22,2099.83,5145.76,1186.13" stroke="rgb(135,0,255)" stroke-width="2" fill="none"></polyline>
<polyline points="972.494,2110.91,5201.41,1017.6" stroke="rgb(0,255,157)" stroke-width="2" fill="none"></polyline>
<polyline points="2410.05,2133.4,5756,1300.78" stroke="rgb(0,195,255)" stroke-width="2" fill="none"></polyline>
<polyline points="947.136,2134.85,5165.07,1016.42" stroke="rgb(42,255,0)" stroke-width="2" fill="none"></polyline>
<polyline points="1435.82,2138.52,6870.66,1331.04" stroke="rgb(102,0,255)" stroke-width="2" fill="none"></polyline>
<polyline points="1432.43,2145.19,5514.25,1240.88" stroke="rgb(17,0,255)" stroke-width="2" fill="none"></polyline>
<polyline points="1641.99,2150.45,5748.05,1283.69" stroke="rgb(135,0,255)" stroke-width="2" fill="none"></polyline>
<polyline points="1418.1,2194.79,5922.95,917.88" stroke="rgb(255,0,12)" stroke-width="2" fill="none"></polyline>
<polyline points="1048.88,2201.39,6044.97,591.819" stroke="rgb(255,0,237)" stroke-width="2" fill="none"></polyline>
<polyline points="1819.35,2211.34,5522.04,1322.95" stroke="rgb(255,0,195)" stroke-width="2" fill="none"></polyline>
<polyline points="2179.58,2231.68,6118.93,1389.07" stroke="rgb(89,0,255)" stroke-width="2" fill="none"></polyline>
<polyline points="1717.59,2239.01,6534.38,1503.4" stroke="rgb(255,0,212)" stroke-width="2" fill="none"></polyline>
<polyline points="851.153,2258.19,6341.36,572.094" stroke="rgb(25,0,255)" stroke-width="2" fill="none"></polyline>
<polyline points="1510.07,2259.94,6004.9,659.593" stroke="rgb(0,59,255)" stroke-width="2" fill="none"></polyline>
<polyline points="1525.52,2261.74,5853.24,678.189" stroke="rgb(0,255,33)" stroke-width="2" fill="none"></polyline>
<polyline points="2349.92,2286.59,6511.85,1495.52" stroke="rgb(0,51,255)" stroke-width="2" fill="none"></polyline>
<polyline points="1476.05,2291.57,5795.46,727.945" stroke="rgb(0,255,186)" stroke-width="2" fill="none"></polyline>
<polyline points="1659.97,2292.81,6575.29,1480.13" stroke="rgb(89,0,255)" stroke-width="2" fill="none"></polyline>
<polyline points="1089.64,2294.04,5082.27,1323.36" stroke="rgb(255,59,0)" stroke-width="2" fill="none"></polyline>
<polyline points="2215.74,2303.54,6512.66,1406.88" stroke="rgb(0,221,255)" stroke-width="2" fill="none"></polyline>
<polyline points="2129.5,2316.39,6007.03,1537.72" stroke="rgb(255,0,33)" stroke-width="2" fill="none"></polyline>
<polyline points="1145.47,2327.88,5208.29,1325.07" stroke="rgb(0,255,169)" stroke-width="2" fill="none"></polyline>
<polyline points="1118.06,2328.28,6500.26,539.588" stroke="rgb(255,165,0)" stroke-width="2" fill="none"></polyline>
<polyline points="1491.93,2328.73,5373.78,759.168" stroke="rgb(0,46,255)" stroke-width="2" fill="none"></polyline>
<polyline points="1650.12,2338.1,6293.41,1532.08" stroke="rgb(0,255,254)" stroke-width="2" fill="none"></polyline>
<polyline points="2529.5,2338.44,4806.17,1157.45" stroke="rgb(93,0,255)" stroke-width="2" fill="none"></polyline>
<polyline points="1115.08,2339.14,6326.42,488.988" stroke="rgb(17,0,255)" stroke-width="2" fill="none"></polyline>
<polyline points="2164.93,2339.76,5510.4,1319.85" stroke="rgb(67,255,0)" stroke-width="2" fill="none"></polyline>
<polyline points="2232.97,2341.16,6346.07,531.521" stroke="rgb(212,0,255)" stroke-width="2" fill="none"></polyline>
<polyline points="1451.72,2348.52,5898.36,718.701" stroke="rgb(0,246,255)" stroke-width="2" fill="none"></polyline>
<polyline points="1002.31,2355.65,5613.98,928.863" stroke="rgb(255,0,148)" stroke-width="2" fill="none"></polyline>
<polyline points="1670.89,2375.24,6715.96,1221.6" stroke="rgb(0,161,255)" stroke-width="2" fill="none"></polyline>
<polyline points="1642.62,2375.54,6742.82,1224.95" stroke="rgb(255,0,89)" stroke-width="2" fill="none"></polyline>
<polyline points="1005.04,2382.73,5480.38,883.943" stroke="rgb(255,131,0)" stroke-width="2" fill="none"></polyline>
<polyline points="1538.32,2383.41,5257.66,959.725" stroke="rgb(0,233,255)" stroke-width="2" fill="none"></polyline>
<polyline points="779.581,2413.76,5846.87,1407.77" stroke="rgb(16,255,0)" stroke-width="2" fill="none"></polyline>
<polyline points="971.247,2420.52,6073.86,660.051" stroke="rgb(148,0,255)" stroke-width="2" fill="none"></polyline>
<polyline points="799.577,2459.24,4877.71,1172.74" stroke="rgb(97,255,0)" stroke-width="2" fill="none"></polyline>
<polyline points="1097.61,2487.21,5040.3,888.84" stroke="rgb(29,255,0)" stroke-width="2" fill="none"></polyline>
<circle cx="1289.1" cy="625.956" r="4" stroke="rgb(0,255,140)" stroke-width="2" fill="none"></circle>
<circle cx="5301.33" cy="1381.41" r="4" stroke="rgb(0,255,140)" stroke-width="2" fill="none"></circle>
<circle cx="1237.01" cy="708.728" r="4" stroke="rgb(140,0,255)" stroke-width="2" fill="none"></circle>
<circle cx="5479.57" cy="676.253" r="4" stroke="rgb(140,0,255)" stroke-width="2" fill="none"></circle>
<circle cx="1241.32" cy="857.977" r="4" stroke="rgb(97,0,255)" stroke-width="2" fill="none"></circle>
<circle cx="6223.23" cy="679.279" r="4" stroke="rgb(97,0,255)" stroke-width="2" fill="none"></circle>
<circle cx="1395.37" cy="868.573" r="4" stroke="rgb(0,144,255)" stroke-width="2" fill="none"></circle>
<circle cx="5345.64" cy="651.289" r="4" stroke="rgb(0,144,255)" stroke-width="2" fill="none"></circle>
<circle cx="1435.59" cy="871.758" r="4" stroke="rgb(238,0,255)" stroke-width="2" fill="none"></circle>
<circle cx="6842.41" cy="1268.83" r="4" stroke="rgb(238,0,255)" stroke-width="2" fill="none"></circle>
<circle cx="1377.78" cy="876.023" r="4" stroke="rgb(0,255,191)" stroke-width="2" fill="none"></circle>
<circle cx="6412.13" cy="611.746" r="4" stroke="rgb(0,255,191)" stroke-width="2" fill="none"></circle>
<circle cx="1316.04" cy="920.645" r="4" stroke="rgb(255,0,191)" stroke-width="2" fill="none"></circle>
<circle cx="5917.88" cy="1542.73" r="4" stroke="rgb(255,0,191)" stroke-width="2" fill="none"></circle>
<circle cx="1221.73" cy="922.934" r="4" stroke="rgb(34,0,255)" stroke-width="2" fill="none"></circle>
<circle cx="5617.4" cy="736.21" r="4" stroke="rgb(34,0,255)" stroke-width="2" fill="none"></circle>
<circle cx="1363.19" cy="934.68" r="4" stroke="rgb(0,153,255)" stroke-width="2" fill="none"></circle>
<circle cx="6446.65" cy="628.753" r="4" stroke="rgb(0,153,255)" stroke-width="2" fill="none"></circle>
<circle cx="1644.97" cy="941.129" r="4" stroke="rgb(123,255,0)" stroke-width="2" fill="none"></circle>
<circle cx="5611.83" cy="974.428" r="4" stroke="rgb(123,255,0)" stroke-width="2" fill="none"></circle>
<circle cx="1515.28" cy="962.544" r="4" stroke="rgb(4,0,255)" stroke-width="2" fill="none"></circle>
<circle cx="5329.66" cy="773.841" r="4" stroke="rgb(4,0,255)" stroke-width="2" fill="none"></circle>
<circle cx="2038.49" cy="984.909" r="4" stroke="rgb(255,42,0)" stroke-width="2" fill="none"></circle>
<circle cx="6440.51" cy="1415.84" r="4" stroke="rgb(255,42,0)" stroke-width="2" fill="none"></circle>
<circle cx="1333.86" cy="985.872" r="4" stroke="rgb(255,34,0)" stroke-width="2" fill="none"></circle>
<circle cx="5199.66" cy="1292.73" r="4" stroke="rgb(255,34,0)" stroke-width="2" fill="none"></circle>
<circle cx="2112.65" cy="1028.63" r="4" stroke="rgb(255,182,0)" stroke-width="2" fill="none"></circle>
<circle cx="6535.19" cy="576.687" r="4" stroke="rgb(255,182,0)" stroke-width="2" fill="none"></circle>
<circle cx="1766.2" cy="1110.88" r="4" stroke="rgb(195,255,0)" stroke-width="2" fill="none"></circle>
<circle cx="5223.05" cy="934.213" r="4" stroke="rgb(195,255,0)" stroke-width="2" fill="none"></circle>
<circle cx="2210.01" cy="1124.76" r="4" stroke="rgb(42,0,255)" stroke-width="2" fill="none"></circle>
<circle cx="6287.09" cy="892.88" r="4" stroke="rgb(42,0,255)" stroke-width="2" fill="none"></circle>
<circle cx="1317.88" cy="1170.02" r="4" stroke="rgb(255,0,182)" stroke-width="2" fill="none"></circle>
<circle cx="5940.15" cy="919.095" r="4" stroke="rgb(255,0,182)" stroke-width="2" fill="none"></circle>
<circle cx="2407.93" cy="1193.28" r="4" stroke="rgb(0,255,220)" stroke-width="2" fill="none"></circle>
<circle cx="6773.93" cy="1367.79" r="4" stroke="rgb(0,255,220)" stroke-width="2" fill="none"></circle>
<circle cx="1269.95" cy="1204.96" r="4" stroke="rgb(0,255,246)" stroke-width="2" fill="none"></circle>
<circle cx="6175.02" cy="997.015" r="4" stroke="rgb(0,255,246)" stroke-width="2" fill="none"></circle>
<circle cx="2438.25" cy="1212.02" r="4" stroke="rgb(255,0,114)" stroke-width="2" fill="none"></circle>
<circle cx="5925.61" cy="648.693" r="4" stroke="rgb(255,0,114)" stroke-width="2" fill="none"></circle>
<circle cx="1258.58" cy="1213.73" r="4" stroke="rgb(0,225,255)" stroke-width="2" fill="none"></circle>
<circle cx="6363.96" cy="1239.08" r="4" stroke="rgb(0,225,255)" stroke-width="2" fill="none"></circle>
<circle cx="1400.59" cy="1219.49" r="4" stroke="rgb(216,0,255)" stroke-width="2" fill="none"></circle>
<circle cx="6029.32" cy="1340.06" r="4" stroke="rgb(216,0,255)" stroke-width="2" fill="none"></circle>
<circle cx="1234.89" cy="1249.88" r="4" stroke="rgb(0,114,255)" stroke-width="2" fill="none"></circle>
<circle cx="5621.05" cy="607.05" r="4" stroke="rgb(0,114,255)" stroke-width="2" fill="none"></circle>
<circle cx="2491.99" cy="1252.11" r="4" stroke="rgb(0,110,255)" stroke-width="2" fill="none"></circle>
<circle cx="6827.32" cy="1362.2" r="4" stroke="rgb(0,110,255)" stroke-width="2" fill="none"></circle>
<circle cx="2471.21" cy="1255.83" r="4" stroke="rgb(255,4,0)" stroke-width="2" fill="none"></circle>
<circle cx="6820.64" cy="1348.11" r="4" stroke="rgb(255,4,0)" stroke-width="2" fill="none"></circle>
<circle cx="1494.45" cy="1260.88" r="4" stroke="rgb(0,225,255)" stroke-width="2" fill="none"></circle>
<circle cx="6564.57" cy="1322.81" r="4" stroke="rgb(0,225,255)" stroke-width="2" fill="none"></circle>
<circle cx="2151.59" cy="1273.26" r="4" stroke="rgb(0,255,106)" stroke-width="2" fill="none"></circle>
<circle cx="5233.86" cy="875.269" r="4" stroke="rgb(0,255,106)" stroke-width="2" fill="none"></circle>
<circle cx="2464.86" cy="1292.28" r="4" stroke="rgb(0,29,255)" stroke-width="2" fill="none"></circle>
<circle cx="6734.83" cy="1426.57" r="4" stroke="rgb(0,29,255)" stroke-width="2" fill="none"></circle>
<circle cx="1353.07" cy="1344.55" r="4" stroke="rgb(0,255,84)" stroke-width="2" fill="none"></circle>
<circle cx="6788.05" cy="1222.15" r="4" stroke="rgb(0,255,84)" stroke-width="2" fill="none"></circle>
<circle cx="2540.36" cy="1380.03" r="4" stroke="rgb(0,255,76)" stroke-width="2" fill="none"></circle>
<circle cx="6715.55" cy="1481.69" r="4" stroke="rgb(0,255,76)" stroke-width="2" fill="none"></circle>
<circle cx="1505.64" cy="1398.42" r="4" stroke="rgb(255,140,0)" stroke-width="2" fill="none"></circle>
<circle cx="6777.97" cy="761.668" r="4" stroke="rgb(255,140,0)" stroke-width="2" fill="none"></circle>
<circle cx="1657.23" cy="1430" r="4" stroke="rgb(0,255,191)" stroke-width="2" fill="none"></circle>
<circle cx="6104.87" cy="1415.53" r="4" stroke="rgb(0,255,191)" stroke-width="2" fill="none"></circle>
<circle cx="1268.78" cy="1442.29" r="4" stroke="rgb(255,216,0)" stroke-width="2" fill="none"></circle>
<circle cx="5783.02" cy="825.477" r="4" stroke="rgb(255,216,0)" stroke-width="2" fill="none"></circle>
<circle cx="1533.04" cy="1443.59" r="4" stroke="rgb(238,0,255)" stroke-width="2" fill="none"></circle>
<circle cx="6548.81" cy="1343.3" r="4" stroke="rgb(238,0,255)" stroke-width="2" fill="none"></circle>
<circle cx="1247.2" cy="1471.45" r="4" stroke="rgb(255,46,0)" stroke-width="2" fill="none"></circle>
<circle cx="6230.27" cy="1040.67" r="4" stroke="rgb(255,46,0)" stroke-width="2" fill="none"></circle>
<circle cx="1221.54" cy="1486.78" r="4" stroke="rgb(255,0,55)" stroke-width="2" fill="none"></circle>
<circle cx="5239.86" cy="1305.17" r="4" stroke="rgb(255,0,55)" stroke-width="2" fill="none"></circle>
<circle cx="2560.62" cy="1493.34" r="4" stroke="rgb(255,0,114)" stroke-width="2" fill="none"></circle>
<circle cx="6822.95" cy="1371.88" r="4" stroke="rgb(255,0,114)" stroke-width="2" fill="none"></circle>
<circle cx="1364.78" cy="1510.61" r="4" stroke="rgb(0,178,255)" stroke-width="2" fill="none"></circle>
<circle cx="5902.92" cy="1000.3" r="4" stroke="rgb(0,178,255)" stroke-width="2" fill="none"></circle>
<circle cx="1358.07" cy="1524.36" r="4" stroke="rgb(55,255,0)" stroke-width="2" fill="none"></circle>
<circle cx="5996.71" cy="1538.42" r="4" stroke="rgb(55,255,0)" stroke-width="2" fill="none"></circle>
<circle cx="1454.26" cy="1546.08" r="4" stroke="rgb(0,255,246)" stroke-width="2" fill="none"></circle>
<circle cx="5899.69" cy="1189.54" r="4" stroke="rgb(0,255,246)" stroke-width="2" fill="none"></circle>
<circle cx="1262.16" cy="1712.32" r="4" stroke="rgb(0,255,174)" stroke-width="2" fill="none"></circle>
<circle cx="6245.11" cy="489.309" r="4" stroke="rgb(0,255,174)" stroke-width="2" fill="none"></circle>
<circle cx="1405.56" cy="1747.59" r="4" stroke="rgb(0,85,255)" stroke-width="2" fill="none"></circle>
<circle cx="5300.19" cy="688.336" r="4" stroke="rgb(0,85,255)" stroke-width="2" fill="none"></circle>
<circle cx="2309.42" cy="1749.66" r="4" stroke="rgb(0,221,255)" stroke-width="2" fill="none"></circle>
<circle cx="6000.94" cy="573.75" r="4" stroke="rgb(0,221,255)" stroke-width="2" fill="none"></circle>
<circle cx="1822.75" cy="1767.14" r="4" stroke="rgb(255,178,0)" stroke-width="2" fill="none"></circle>
<circle cx="6828.1" cy="1407.31" r="4" stroke="rgb(255,178,0)" stroke-width="2" fill="none"></circle>
<circle cx="1266.78" cy="1778.34" r="4" stroke="rgb(102,0,255)" stroke-width="2" fill="none"></circle>
<circle cx="5160.17" cy="1381.99" r="4" stroke="rgb(102,0,255)" stroke-width="2" fill="none"></circle>
<circle cx="1641.66" cy="1778.48" r="4" stroke="rgb(0,255,59)" stroke-width="2" fill="none"></circle>
<circle cx="5816.57" cy="645.706" r="4" stroke="rgb(0,255,59)" stroke-width="2" fill="none"></circle>
<circle cx="1799.53" cy="1786" r="4" stroke="rgb(221,0,255)" stroke-width="2" fill="none"></circle>
<circle cx="6150.33" cy="1292.62" r="4" stroke="rgb(221,0,255)" stroke-width="2" fill="none"></circle>
<circle cx="1854.6" cy="1792.43" r="4" stroke="rgb(114,255,0)" stroke-width="2" fill="none"></circle>
<circle cx="6868.64" cy="1206" r="4" stroke="rgb(114,255,0)" stroke-width="2" fill="none"></circle>
<circle cx="1631.87" cy="1824.52" r="4" stroke="rgb(255,0,229)" stroke-width="2" fill="none"></circle>
<circle cx="6630.42" cy="1256.42" r="4" stroke="rgb(255,0,229)" stroke-width="2" fill="none"></circle>
<circle cx="1156.83" cy="1829.21" r="4" stroke="rgb(255,0,76)" stroke-width="2" fill="none"></circle>
<circle cx="6388.49" cy="1073.31" r="4" stroke="rgb(255,0,76)" stroke-width="2" fill="none"></circle>
<circle cx="1504.4" cy="1847.6" r="4" stroke="rgb(246,0,255)" stroke-width="2" fill="none"></circle>
<circle cx="5737.55" cy="1294.48" r="4" stroke="rgb(246,0,255)" stroke-width="2" fill="none"></circle>
<circle cx="1532.23" cy="1849.52" r="4" stroke="rgb(0,255,55)" stroke-width="2" fill="none"></circle>
<circle cx="5753.54" cy="1321.12" r="4" stroke="rgb(0,255,55)" stroke-width="2" fill="none"></circle>
<circle cx="1528.29" cy="1877.74" r="4" stroke="rgb(140,0,255)" stroke-width="2" fill="none"></circle>
<circle cx="5199.86" cy="883.865" r="4" stroke="rgb(140,0,255)" stroke-width="2" fill="none"></circle>
<circle cx="2479.9" cy="1886.56" r="4" stroke="rgb(0,255,131)" stroke-width="2" fill="none"></circle>
<circle cx="6064.06" cy="1323.58" r="4" stroke="rgb(0,255,131)" stroke-width="2" fill="none"></circle>
<circle cx="1463.88" cy="1910.39" r="4" stroke="rgb(0,89,255)" stroke-width="2" fill="none"></circle>
<circle cx="5368.37" cy="911.608" r="4" stroke="rgb(0,89,255)" stroke-width="2" fill="none"></circle>
<circle cx="1506.41" cy="1918.76" r="4" stroke="rgb(0,255,110)" stroke-width="2" fill="none"></circle>
<circle cx="5692" cy="1342.05" r="4" stroke="rgb(0,255,110)" stroke-width="2" fill="none"></circle>
<circle cx="2416.45" cy="1929.26" r="4" stroke="rgb(0,123,255)" stroke-width="2" fill="none"></circle>
<circle cx="5482.34" cy="969.804" r="4" stroke="rgb(0,123,255)" stroke-width="2" fill="none"></circle>
<circle cx="1627.05" cy="1933.16" r="4" stroke="rgb(0,12,255)" stroke-width="2" fill="none"></circle>
<circle cx="5773.48" cy="1419.13" r="4" stroke="rgb(0,12,255)" stroke-width="2" fill="none"></circle>
<circle cx="1644.67" cy="1939.12" r="4" stroke="rgb(255,80,0)" stroke-width="2" fill="none"></circle>
<circle cx="5749.14" cy="1442.95" r="4" stroke="rgb(255,80,0)" stroke-width="2" fill="none"></circle>
<circle cx="1122.27" cy="1943.29" r="4" stroke="rgb(255,0,38)" stroke-width="2" fill="none"></circle>
<circle cx="5202.75" cy="920.198" r="4" stroke="rgb(255,0,38)" stroke-width="2" fill="none"></circle>
<circle cx="1416.42" cy="1992.98" r="4" stroke="rgb(255,63,0)" stroke-width="2" fill="none"></circle>
<circle cx="4804.13" cy="1165.87" r="4" stroke="rgb(255,63,0)" stroke-width="2" fill="none"></circle>
<circle cx="1278.25" cy="2002.52" r="4" stroke="rgb(255,221,0)" stroke-width="2" fill="none"></circle>
<circle cx="5612.56" cy="1179.51" r="4" stroke="rgb(255,221,0)" stroke-width="2" fill="none"></circle>
<circle cx="1418.9" cy="2019.85" r="4" stroke="rgb(255,119,0)" stroke-width="2" fill="none"></circle>
<circle cx="6347.41" cy="541.897" r="4" stroke="rgb(255,119,0)" stroke-width="2" fill="none"></circle>
<circle cx="1214.84" cy="2051.85" r="4" stroke="rgb(246,0,255)" stroke-width="2" fill="none"></circle>
<circle cx="5342.5" cy="1184.03" r="4" stroke="rgb(246,0,255)" stroke-width="2" fill="none"></circle>
<circle cx="988.401" cy="2073.09" r="4" stroke="rgb(0,85,255)" stroke-width="2" fill="none"></circle>
<circle cx="5230.8" cy="1002.32" r="4" stroke="rgb(0,85,255)" stroke-width="2" fill="none"></circle>
<circle cx="1160.22" cy="2099.83" r="4" stroke="rgb(135,0,255)" stroke-width="2" fill="none"></circle>
<circle cx="5145.76" cy="1186.13" r="4" stroke="rgb(135,0,255)" stroke-width="2" fill="none"></circle>
<circle cx="972.494" cy="2110.91" r="4" stroke="rgb(0,255,157)" stroke-width="2" fill="none"></circle>
<circle cx="5201.41" cy="1017.6" r="4" stroke="rgb(0,255,157)" stroke-width="2" fill="none"></circle>
<circle cx="2410.05" cy="2133.4" r="4" stroke="rgb(0,195,255)" stroke-width="2" fill="none"></circle>
<circle cx="5756" cy="1300.78" r="4" stroke="rgb(0,195,255)" stroke-width="2" fill="none"></circle>
<circle cx="947.136" cy="2134.85" r="4" stroke="rgb(42,255,0)" stroke-width="2" fill="none"></circle>
<circle cx="5165.07" cy="1016.42" r="4" stroke="rgb(42,255,0)" stroke-width="2" fill="none"></circle>
<circle cx="1435.82" cy="2138.52" r="4" stroke="rgb(102,0,255)" stroke-width="2" fill="none"></circle>
<circle cx="6870.66" cy="1331.04" r="4" stroke="rgb(102,0,255)" stroke-width="2" fill="none"></circle>
<circle cx="1432.43" cy="2145.19" r="4" stroke="rgb(17,0,255)" stroke-width="2" fill="none"></circle>
<circle cx="5514.25" cy="1240.88" r="4" stroke="rgb(17,0,255)" stroke-width="2" fill="none"></circle>
<circle cx="1641.99" cy="2150.45" r="4" stroke="rgb(135,0,255)" stroke-width="2" fill="none"></circle>
<circle cx="5748.05" cy="1283.69" r="4" stroke="rgb(135,0,255)" stroke-width="2" fill="none"></circle>
<circle cx="1418.1" cy="2194.79" r="4" stroke="rgb(255,0,12)" stroke-width="2" fill="none"></circle>
<circle cx="5922.95" cy="917.88" r="4" stroke="rgb(255,0,12)" stroke-width="2" fill="none"></circle>
<circle cx="1048.88" cy="2201.39" r="4" stroke="rgb(255,0,237)" stroke-width="2" fill="none"></circle>
<circle cx="6044.97" cy="591.819" r="4" stroke="rgb(255,0,237)" stroke-width="2" fill="none"></circle>
<circle cx="1819.35" cy="2211.34" r="4" stroke="rgb(255,0,195)" stroke-width="2" fill="none"></circle>
<circle cx="5522.04" cy="1322.95" r="4" stroke="rgb(255,0,195)" stroke-width="2" fill="none"></circle>
<circle cx="2179.58" cy="2231.68" r="4" stroke="rgb(89,0,255)" stroke-width="2" fill="none"></circle>
<circle cx="6118.93" cy="1389.07" r="4" stroke="rgb(89,0,255)" stroke-width="2" fill="none"></circle>
<circle cx="1717.59" cy="2239.01" r="4" stroke="rgb(255,0,212)" stroke-width="2" fill="none"></circle>
<circle cx="6534.38" cy="1503.4" r="4" stroke="rgb(255,0,212)" stroke-width="2" fill="none"></circle>
<circle cx="851.153" cy="2258.19" r="4" stroke="rgb(25,0,255)" stroke-width="2" fill="none"></circle>
<circle cx="6341.36" cy="572.094" r="4" stroke="rgb(25,0,255)" stroke-width="2" fill="none"></circle>
<circle cx="1510.07" cy="2259.94" r="4" stroke="rgb(0,59,255)" stroke-width="2" fill="none"></circle>
<circle cx="6004.9" cy="659.593" r="4" stroke="rgb(0,59,255)" stroke-width="2" fill="none"></circle>
<circle cx="1525.52" cy="2261.74" r="4" stroke="rgb(0,255,33)" stroke-width="2" fill="none"></circle>
<circle cx="5853.24" cy="678.189" r="4" stroke="rgb(0,255,33)" stroke-width="2" fill="none"></circle>
<circle cx="2349.92" cy="2286.59" r="4" stroke="rgb(0,51,255)" stroke-width="2" fill="none"></circle>
<circle cx="6511.85" cy="1495.52" r="4" stroke="rgb(0,51,255)" stroke-width="2" fill="none"></circle>
<circle cx="1476.05" cy="2291.57" r="4" stroke="rgb(0,255,186)" stroke-width="2" fill="none"></circle>
<circle cx="5795.46" cy="727.945" r="4" stroke="rgb(0,255,186)" stroke-width="2" fill="none"></circle>
<circle cx="1659.97" cy="2292.81" r="4" stroke="rgb(89,0,255)" stroke-width="2" fill="none"></circle>
<circle cx="6575.29" cy="1480.13" r="4" stroke="rgb(89,0,255)" stroke-width="2" fill="none"></circle>
<circle cx="1089.64" cy="2294.04" r="4" stroke="rgb(255,59,0)" stroke-width="2" fill="none"></circle>
<circle cx="5082.27" cy="1323.36" r="4" stroke="rgb(255,59,0)" stroke-width="2" fill="none"></circle>
<circle cx="2215.74" cy="2303.54" r="4" stroke="rgb(0,221,255)" stroke-width="2" fill="none"></circle>
<circle cx="6512.66" cy="1406.88" r="4" stroke="rgb(0,221,255)" stroke-width="2" fill="none"></circle>
<circle cx="2129.5" cy="2316.39" r="4" stroke="rgb(255,0,33)" stroke-width="2" fill="none"></circle>
<circle cx="6007.03" cy="1537.72" r="4" stroke="rgb(255,0,33)" stroke-width="2" fill="none"></circle>
<circle cx="1145.47" cy="2327.88" r="4" stroke="rgb(0,255,169)" stroke-width="2" fill="none"></circle>
<circle cx="5208.29" cy="1325.07" r="4" stroke="rgb(0,255,169)" stroke-width="2" fill="none"></circle>
<circle cx="1118.06" cy="2328.28" r="4" stroke="rgb(255,165,0)" stroke-width="2" fill="none"></circle>
<circle cx="6500.26" cy="539.588" r="4" stroke="rgb(255,165,0)" stroke-width="2" fill="none"></circle>
<circle cx="1491.93" cy="2328.73" r="4" stroke="rgb(0,46,255)" stroke-width="2" fill="none"></circle>
<circle cx="5373.78" cy="759.168" r="4" stroke="rgb(0,46,255)" stroke-width="2" fill="none"></circle>
<circle cx="1650.12" cy="2338.1" r="4" stroke="rgb(0,255,254)" stroke-width="2" fill="none"></circle>
<circle cx="6293.41" cy="1532.08" r="4" stroke="rgb(0,255,254)" stroke-width="2" fill="none"></circle>
<circle cx="2529.5" cy="2338.44" r="4" stroke="rgb(93,0,255)" stroke-width="2" fill="none"></circle>
<circle cx="4806.17" cy="1157.45" r="4" stroke="rgb(93,0,255)" stroke-width="2" fill="none"></circle>
<circle cx="1115.08" cy="2339.14" r="4" stroke="rgb(17,0,255)" stroke-width="2" fill="none"></circle>
<circle cx="6326.42" cy="488.988" r="4" stroke="rgb(17,0,255)" stroke-width="2" fill="none"></circle>
<circle cx="2164.93" cy="2339.76" r="4" stroke="rgb(67,255,0)" stroke-width="2" fill="none"></circle>
<circle cx="5510.4" cy="1319.85" r="4" stroke="rgb(67,255,0)" stroke-width="2" fill="none"></circle>
<circle cx="2232.97" cy="2341.16" r="4" stroke="rgb(212,0,255)" stroke-width="2" fill="none"></circle>
<circle cx="6346.07" cy="531.521" r="4" stroke="rgb(212,0,255)" stroke-width="2" fill="none"></circle>
<circle cx="1451.72" cy="2348.52" r="4" stroke="rgb(0,246,255)" stroke-width="2" fill="none"></circle>
<circle cx="5898.36" cy="718.701" r="4" stroke="rgb(0,246,255)" stroke-width="2" fill="none"></circle>
<circle cx="1002.31" cy="2355.65" r="4" stroke="rgb(255,0,148)" stroke-width="2" fill="none"></circle>
<circle cx="5613.98" cy="928.863" r="4" stroke="rgb(255,0,148)" stroke-width="2" fill="none"></circle>
<circle cx="1670.89" cy="2375.24" r="4" stroke="rgb(0,161,255)" stroke-width="2" fill="none"></circle>
<circle cx="6715.96" cy="1221.6" r="4" stroke="rgb(0,161,255)" stroke-width="2" fill="none"></circle>
<circle cx="1642.62" cy="2375.54" r="4" stroke="rgb(255,0,89)" stroke-width="2" fill="none"></circle>
<circle cx="6742.82" cy="1224.95" r="4" stroke="rgb(255,0,89)" stroke-width="2" fill="none"></circle>
<circle cx="1005.04" cy="2382.73" r="4" stroke="rgb(255,131,0)" stroke-width="2" fill="none"></circle>
<circle cx="5480.38" cy="883.943" r="4" stroke="rgb(255,131,0)" stroke-width="2" fill="none"></circle>
<circle cx="1538.32" cy="2383.41" r="4" stroke="rgb(0,233,255)" stroke-width="2" fill="none"></circle>
<circle cx="5257.66" cy="959.725" r="4" stroke="rgb(0,233,255)" stroke-width="2" fill="none"></circle>
<circle cx="779.581" cy="2413.76" r="4" stroke="rgb(16,255,0)" stroke-width="2" fill="none"></circle>
<circle cx="5846.87" cy="1407.77" r="4" stroke="rgb(16,255,0)" stroke-width="2" fill="none"></circle>
<circle cx="971.247" cy="2420.52" r="4" stroke="rgb(148,0,255)" stroke-width="2" fill="none"></circle>
<circle cx="6073.86" cy="660.051" r="4" stroke="rgb(148,0,255)" stroke-width="2" fill="none"></circle>
<circle cx="799.577" cy="2459.24" r="4" stroke="rgb(97,255,0)" stroke-width="2" fill="none"></circle>
<circle cx="4877.71" cy="1172.74" r="4" stroke="rgb(97,255,0)" stroke-width="2" fill="none"></circle>
<circle cx="1097.61" cy="2487.21" r="4" stroke="rgb(29,255,0)" stroke-width="2" fill="none"></circle>
<circle cx="5040.3" cy="888.84" r="4" stroke="rgb(29,255,0)" stroke-width="2" fill="none"></circle>
</svg>