<?xml version="1.0" standalone="yes"?>
<!-- SVG graphic -->
<svg xmlns='http://www.w3.org/2000/svg' xmlns:xlink='http://www.w3.org/1999/xlink'
width="8064px" height="3024px" preserveAspectRatio="xMinYMin meet" viewBox="0 0 8064 3024" version="1.1">
<image x="0" y="0" width="4032px" height="3024px" opacity="1" xlink:href="/home/jeong/Code/2D-to-3D-Modeling-using-AI/Make3D/Image/20200227_180709.jpg"/>
<image x="4032" y="0" width="4032px" height="3024px" opacity="1" xlink:href="/home/jeong/Code/2D-to-3D-Modeling-using-AI/Make3D/Image/20200227_180721.jpg"/>
<polyline points="1315.8,656.116,6616.73,847.811" stroke="rgb(123,255,0)" stroke-width="2" fill="none"></polyline>
<polyline points="1237.01,708.728,5852.4,561.91" stroke="rgb(255,216,0)" stroke-width="2" fill="none"></polyline>
<polyline points="1394.39,847.503,5828.27,1410.43" stroke="rgb(25,0,255)" stroke-width="2" fill="none"></polyline>
<polyline points="1347.45,885.42,6498.75,534.126" stroke="rgb(255,174,0)" stroke-width="2" fill="none"></polyline>
<polyline points="1215.73,937.273,6636.3,1451.31" stroke="rgb(0,255,208)" stroke-width="2" fill="none"></polyline>
<polyline points="1001.44,956.346,6767.8,617.496" stroke="rgb(255,0,68)" stroke-width="2" fill="none"></polyline>
<polyline points="2076.66,990.19,6800.34,630.937" stroke="rgb(0,255,208)" stroke-width="2" fill="none"></polyline>
<polyline points="1398.79,1153.48,5470.6,616.803" stroke="rgb(123,0,255)" stroke-width="2" fill="none"></polyline>
<polyline points="1317.88,1170.02,5728.03,679.989" stroke="rgb(0,255,118)" stroke-width="2" fill="none"></polyline>
<polyline points="2453.42,1173.91,6834.89,1459.93" stroke="rgb(255,0,246)" stroke-width="2" fill="none"></polyline>
<polyline points="2407.93,1193.28,6657.88,1540.9" stroke="rgb(182,0,255)" stroke-width="2" fill="none"></polyline>
<polyline points="1273.58,1196.76,6956.35,1115.8" stroke="rgb(0,135,255)" stroke-width="2" fill="none"></polyline>
<polyline points="1234.89,1249.88,6123.03,644.851" stroke="rgb(229,0,255)" stroke-width="2" fill="none"></polyline>
<polyline points="2491.99,1252.11,6825.29,1464.4" stroke="rgb(255,0,187)" stroke-width="2" fill="none"></polyline>
<polyline points="2464.86,1292.28,6712.39,1515.83" stroke="rgb(4,255,0)" stroke-width="2" fill="none"></polyline>
<polyline points="1201.97,1310.95,5621.13,578.108" stroke="rgb(255,153,0)" stroke-width="2" fill="none"></polyline>
<polyline points="1209.01,1316.99,6065.31,605.343" stroke="rgb(0,255,67)" stroke-width="2" fill="none"></polyline>
<polyline points="1529.48,1323.2,5917.85,1319.05" stroke="rgb(55,0,255)" stroke-width="2" fill="none"></polyline>
<polyline points="1329.51,1324.49,6783.11,701.678" stroke="rgb(0,255,135)" stroke-width="2" fill="none"></polyline>
<polyline points="1160.93,1326.09,6281.74,919.027" stroke="rgb(33,255,0)" stroke-width="2" fill="none"></polyline>
<polyline points="1559.27,1340.16,5725.61,1306.48" stroke="rgb(255,238,0)" stroke-width="2" fill="none"></polyline>
<polyline points="1268.78,1442.29,5756.52,968.594" stroke="rgb(255,0,106)" stroke-width="2" fill="none"></polyline>
<polyline points="1221.54,1486.78,5702.6,933.09" stroke="rgb(182,255,0)" stroke-width="2" fill="none"></polyline>
<polyline points="2560.62,1493.34,4982.76,920.89" stroke="rgb(76,0,255)" stroke-width="2" fill="none"></polyline>
<polyline points="1375.95,1519.88,6129.49,517.146" stroke="rgb(0,229,255)" stroke-width="2" fill="none"></polyline>
<polyline points="2058.09,1522.79,6964.21,1055.99" stroke="rgb(255,0,85)" stroke-width="2" fill="none"></polyline>
<polyline points="1523.69,1532.47,6815.55,1467.58" stroke="rgb(157,255,0)" stroke-width="2" fill="none"></polyline>
<polyline points="1899.87,1565.26,6843.29,860.051" stroke="rgb(255,0,246)" stroke-width="2" fill="none"></polyline>
<polyline points="1257.09,1626.17,6609.6,1571.51" stroke="rgb(0,255,29)" stroke-width="2" fill="none"></polyline>
<polyline points="1409.29,1672.1,5553.22,675.193" stroke="rgb(255,221,0)" stroke-width="2" fill="none"></polyline>
<polyline points="1262.16,1712.32,5994.79,684.747" stroke="rgb(199,0,255)" stroke-width="2" fill="none"></polyline>
<polyline points="1345.9,1725.7,6297.21,1517.85" stroke="rgb(0,93,255)" stroke-width="2" fill="none"></polyline>
<polyline points="1622.04,1738.39,6381.85,1618.62" stroke="rgb(72,255,0)" stroke-width="2" fill="none"></polyline>
<polyline points="2495.58,1739.99,5322.81,794.424" stroke="rgb(255,191,0)" stroke-width="2" fill="none"></polyline>
<polyline points="2309.42,1749.66,6072.33,586.118" stroke="rgb(0,255,46)" stroke-width="2" fill="none"></polyline>
<polyline points="1605.56,1757.31,5755.43,883.667" stroke="rgb(0,255,101)" stroke-width="2" fill="none"></polyline>
<polyline points="2035,1780.84,4845.58,964.861" stroke="rgb(255,123,0)" stroke-width="2" fill="none"></polyline>
<polyline points="1914.62,1784.81,6939.79,881.002" stroke="rgb(254,0,255)" stroke-width="2" fill="none"></polyline>
<polyline points="1323.45,1832.64,5403.65,595.371" stroke="rgb(255,229,0)" stroke-width="2" fill="none"></polyline>
<polyline points="1629.48,1836.53,5742.82,1407.1" stroke="rgb(255,212,0)" stroke-width="2" fill="none"></polyline>
<polyline points="1528.29,1877.74,6574.37,622.542" stroke="rgb(25,255,0)" stroke-width="2" fill="none"></polyline>
<polyline points="1633.66,1881.08,5835.94,624.863" stroke="rgb(0,131,255)" stroke-width="2" fill="none"></polyline>
<polyline points="1657.49,1886.62,6115.76,748.56" stroke="rgb(76,0,255)" stroke-width="2" fill="none"></polyline>
<polyline points="1644.19,1912.34,6642.7,1224.41" stroke="rgb(174,0,255)" stroke-width="2" fill="none"></polyline>
<polyline points="2448.98,1929.07,5765.34,880.865" stroke="rgb(0,255,191)" stroke-width="2" fill="none"></polyline>
<polyline points="1647,1931.89,5763.66,1394.31" stroke="rgb(42,0,255)" stroke-width="2" fill="none"></polyline>
<polyline points="1639.05,1945.06,5750.83,1392.35" stroke="rgb(255,0,182)" stroke-width="2" fill="none"></polyline>
<polyline points="2312.43,1964.59,5609.65,1343.89" stroke="rgb(255,0,250)" stroke-width="2" fill="none"></polyline>
<polyline points="1603.13,1973.6,6351.95,984.168" stroke="rgb(0,255,97)" stroke-width="2" fill="none"></polyline>
<polyline points="1033.94,2015.98,6101.53,622.158" stroke="rgb(46,255,0)" stroke-width="2" fill="none"></polyline>
<polyline points="1064.1,2041.82,6064.39,622.56" stroke="rgb(195,0,255)" stroke-width="2" fill="none"></polyline>
<polyline points="1255.87,2088.07,5909.05,1497.25" stroke="rgb(0,174,255)" stroke-width="2" fill="none"></polyline>
<polyline points="1160.22,2099.83,5155.71,1240.72" stroke="rgb(255,0,187)" stroke-width="2" fill="none"></polyline>
<polyline points="970.676,2105.27,5861.39,756.124" stroke="rgb(0,21,255)" stroke-width="2" fill="none"></polyline>
<polyline points="2445.39,2123.65,5660.17,1392.82" stroke="rgb(255,0,127)" stroke-width="2" fill="none"></polyline>
<polyline points="1251.13,2144.06,5442.77,922.439" stroke="rgb(255,63,0)" stroke-width="2" fill="none"></polyline>
<polyline points="1418.1,2194.79,6651.56,1268" stroke="rgb(0,101,255)" stroke-width="2" fill="none"></polyline>
<polyline points="1053.35,2204.03,6526.88,938.359" stroke="rgb(255,225,0)" stroke-width="2" fill="none"></polyline>
<polyline points="1226.19,2210.75,6795.69,915.13" stroke="rgb(0,216,255)" stroke-width="2" fill="none"></polyline>
<polyline points="851.153,2258.19,6631.89,730.839" stroke="rgb(255,0,72)" stroke-width="2" fill="none"></polyline>
<polyline points="1525.52,2261.74,5695.34,635.673" stroke="rgb(255,0,93)" stroke-width="2" fill="none"></polyline>
<polyline points="1517.47,2262.88,7014.12,1036.04" stroke="rgb(12,255,0)" stroke-width="2" fill="none"></polyline>
<polyline points="1501.39,2263.01,5946.68,760.746" stroke="rgb(195,255,0)" stroke-width="2" fill="none"></polyline>
<polyline points="793.169,2263.74,7013.49,944.243" stroke="rgb(255,0,199)" stroke-width="2" fill="none"></polyline>
<polyline points="1482.82,2289.87,6985.26,1050.58" stroke="rgb(0,255,178)" stroke-width="2" fill="none"></polyline>
<polyline points="1514.99,2296.79,5500.03,641.258" stroke="rgb(0,148,255)" stroke-width="2" fill="none"></polyline>
<polyline points="942.56,2304.3,5109.59,1046.32" stroke="rgb(93,255,0)" stroke-width="2" fill="none"></polyline>
<polyline points="964.506,2312.51,5118.18,1068.17" stroke="rgb(0,203,255)" stroke-width="2" fill="none"></polyline>
<polyline points="2164.93,2339.76,5956.29,1513.43" stroke="rgb(255,76,0)" stroke-width="2" fill="none"></polyline>
<polyline points="1477.57,2343.26,5625.61,671.103" stroke="rgb(0,255,135)" stroke-width="2" fill="none"></polyline>
<polyline points="1013.33,2343.3,5767.43,794.325" stroke="rgb(25,255,0)" stroke-width="2" fill="none"></polyline>
<polyline points="2154.3,2344.92,6700.74,580.103" stroke="rgb(0,255,50)" stroke-width="2" fill="none"></polyline>
<polyline points="1207.23,2348.74,5944.98,937.897" stroke="rgb(0,29,255)" stroke-width="2" fill="none"></polyline>
<polyline points="1823,2359.16,5763.05,1334.72" stroke="rgb(255,51,0)" stroke-width="2" fill="none"></polyline>
<polyline points="1486.1,2387.7,5685.75,1034.18" stroke="rgb(191,0,255)" stroke-width="2" fill="none"></polyline>
<polyline points="1417.41,2394.9,5119.41,896.179" stroke="rgb(255,165,0)" stroke-width="2" fill="none"></polyline>
<polyline points="1273.96,2425.49,6254.03,915.381" stroke="rgb(93,0,255)" stroke-width="2" fill="none"></polyline>
<polyline points="974.466,2437.67,6746.03,1145.35" stroke="rgb(25,255,0)" stroke-width="2" fill="none"></polyline>
<polyline points="819.309,2459.49,6062.76,979.115" stroke="rgb(0,119,255)" stroke-width="2" fill="none"></polyline>
<polyline points="1097.61,2487.21,5956.01,583.925" stroke="rgb(161,0,255)" stroke-width="2" fill="none"></polyline>
<polyline points="1108.51,2499.08,5667.34,589.532" stroke="rgb(101,255,0)" stroke-width="2" fill="none"></polyline>
<polyline points="1020.89,2517.05,6272.12,1450.43" stroke="rgb(0,255,76)" stroke-width="2" fill="none"></polyline>
<circle cx="1315.8" cy="656.116" r="4" stroke="rgb(123,255,0)" stroke-width="2" fill="none"></circle>
<circle cx="6616.73" cy="847.811" r="4" stroke="rgb(123,255,0)" stroke-width="2" fill="none"></circle>
<circle cx="1237.01" cy="708.728" r="4" stroke="rgb(255,216,0)" stroke-width="2" fill="none"></circle>
<circle cx="5852.4" cy="561.91" r="4" stroke="rgb(255,216,0)" stroke-width="2" fill="none"></circle>
<circle cx="1394.39" cy="847.503" r="4" stroke="rgb(25,0,255)" stroke-width="2" fill="none"></circle>
<circle cx="5828.27" cy="1410.43" r="4" stroke="rgb(25,0,255)" stroke-width="2" fill="none"></circle>
<circle cx="1347.45" cy="885.42" r="4" stroke="rgb(255,174,0)" stroke-width="2" fill="none"></circle>
<circle cx="6498.75" cy="534.126" r="4" stroke="rgb(255,174,0)" stroke-width="2" fill="none"></circle>
<circle cx="1215.73" cy="937.273" r="4" stroke="rgb(0,255,208)" stroke-width="2" fill="none"></circle>
<circle cx="6636.3" cy="1451.31" r="4" stroke="rgb(0,255,208)" stroke-width="2" fill="none"></circle>
<circle cx="1001.44" cy="956.346" r="4" stroke="rgb(255,0,68)" stroke-width="2" fill="none"></circle>
<circle cx="6767.8" cy="617.496" r="4" stroke="rgb(255,0,68)" stroke-width="2" fill="none"></circle>
<circle cx="2076.66" cy="990.19" r="4" stroke="rgb(0,255,208)" stroke-width="2" fill="none"></circle>
<circle cx="6800.34" cy="630.937" r="4" stroke="rgb(0,255,208)" stroke-width="2" fill="none"></circle>
<circle cx="1398.79" cy="1153.48" r="4" stroke="rgb(123,0,255)" stroke-width="2" fill="none"></circle>
<circle cx="5470.6" cy="616.803" r="4" stroke="rgb(123,0,255)" stroke-width="2" fill="none"></circle>
<circle cx="1317.88" cy="1170.02" r="4" stroke="rgb(0,255,118)" stroke-width="2" fill="none"></circle>
<circle cx="5728.03" cy="679.989" r="4" stroke="rgb(0,255,118)" stroke-width="2" fill="none"></circle>
<circle cx="2453.42" cy="1173.91" r="4" stroke="rgb(255,0,246)" stroke-width="2" fill="none"></circle>
<circle cx="6834.89" cy="1459.93" r="4" stroke="rgb(255,0,246)" stroke-width="2" fill="none"></circle>
<circle cx="2407.93" cy="1193.28" r="4" stroke="rgb(182,0,255)" stroke-width="2" fill="none"></circle>
<circle cx="6657.88" cy="1540.9" r="4" stroke="rgb(182,0,255)" stroke-width="2" fill="none"></circle>
<circle cx="1273.58" cy="1196.76" r="4" stroke="rgb(0,135,255)" stroke-width="2" fill="none"></circle>
<circle cx="6956.35" cy="1115.8" r="4" stroke="rgb(0,135,255)" stroke-width="2" fill="none"></circle>
<circle cx="1234.89" cy="1249.88" r="4" stroke="rgb(229,0,255)" stroke-width="2" fill="none"></circle>
<circle cx="6123.03" cy="644.851" r="4" stroke="rgb(229,0,255)" stroke-width="2" fill="none"></circle>
<circle cx="2491.99" cy="1252.11" r="4" stroke="rgb(255,0,187)" stroke-width="2" fill="none"></circle>
<circle cx="6825.29" cy="1464.4" r="4" stroke="rgb(255,0,187)" stroke-width="2" fill="none"></circle>
<circle cx="2464.86" cy="1292.28" r="4" stroke="rgb(4,255,0)" stroke-width="2" fill="none"></circle>
<circle cx="6712.39" cy="1515.83" r="4" stroke="rgb(4,255,0)" stroke-width="2" fill="none"></circle>
<circle cx="1201.97" cy="1310.95" r="4" stroke="rgb(255,153,0)" stroke-width="2" fill="none"></circle>
<circle cx="5621.13" cy="578.108" r="4" stroke="rgb(255,153,0)" stroke-width="2" fill="none"></circle>
<circle cx="1209.01" cy="1316.99" r="4" stroke="rgb(0,255,67)" stroke-width="2" fill="none"></circle>
<circle cx="6065.31" cy="605.343" r="4" stroke="rgb(0,255,67)" stroke-width="2" fill="none"></circle>
<circle cx="1529.48" cy="1323.2" r="4" stroke="rgb(55,0,255)" stroke-width="2" fill="none"></circle>
<circle cx="5917.85" cy="1319.05" r="4" stroke="rgb(55,0,255)" stroke-width="2" fill="none"></circle>
<circle cx="1329.51" cy="1324.49" r="4" stroke="rgb(0,255,135)" stroke-width="2" fill="none"></circle>
<circle cx="6783.11" cy="701.678" r="4" stroke="rgb(0,255,135)" stroke-width="2" fill="none"></circle>
<circle cx="1160.93" cy="1326.09" r="4" stroke="rgb(33,255,0)" stroke-width="2" fill="none"></circle>
<circle cx="6281.74" cy="919.027" r="4" stroke="rgb(33,255,0)" stroke-width="2" fill="none"></circle>
<circle cx="1559.27" cy="1340.16" r="4" stroke="rgb(255,238,0)" stroke-width="2" fill="none"></circle>
<circle cx="5725.61" cy="1306.48" r="4" stroke="rgb(255,238,0)" stroke-width="2" fill="none"></circle>
<circle cx="1268.78" cy="1442.29" r="4" stroke="rgb(255,0,106)" stroke-width="2" fill="none"></circle>
<circle cx="5756.52" cy="968.594" r="4" stroke="rgb(255,0,106)" stroke-width="2" fill="none"></circle>
<circle cx="1221.54" cy="1486.78" r="4" stroke="rgb(182,255,0)" stroke-width="2" fill="none"></circle>
<circle cx="5702.6" cy="933.09" r="4" stroke="rgb(182,255,0)" stroke-width="2" fill="none"></circle>
<circle cx="2560.62" cy="1493.34" r="4" stroke="rgb(76,0,255)" stroke-width="2" fill="none"></circle>
<circle cx="4982.76" cy="920.89" r="4" stroke="rgb(76,0,255)" stroke-width="2" fill="none"></circle>
<circle cx="1375.95" cy="1519.88" r="4" stroke="rgb(0,229,255)" stroke-width="2" fill="none"></circle>
<circle cx="6129.49" cy="517.146" r="4" stroke="rgb(0,229,255)" stroke-width="2" fill="none"></circle>
<circle cx="2058.09" cy="1522.79" r="4" stroke="rgb(255,0,85)" stroke-width="2" fill="none"></circle>
<circle cx="6964.21" cy="1055.99" r="4" stroke="rgb(255,0,85)" stroke-width="2" fill="none"></circle>
<circle cx="1523.69" cy="1532.47" r="4" stroke="rgb(157,255,0)" stroke-width="2" fill="none"></circle>
<circle cx="6815.55" cy="1467.58" r="4" stroke="rgb(157,255,0)" stroke-width="2" fill="none"></circle>
<circle cx="1899.87" cy="1565.26" r="4" stroke="rgb(255,0,246)" stroke-width="2" fill="none"></circle>
<circle cx="6843.29" cy="860.051" r="4" stroke="rgb(255,0,246)" stroke-width="2" fill="none"></circle>
<circle cx="1257.09" cy="1626.17" r="4" stroke="rgb(0,255,29)" stroke-width="2" fill="none"></circle>
<circle cx="6609.6" cy="1571.51" r="4" stroke="rgb(0,255,29)" stroke-width="2" fill="none"></circle>
<circle cx="1409.29" cy="1672.1" r="4" stroke="rgb(255,221,0)" stroke-width="2" fill="none"></circle>
<circle cx="5553.22" cy="675.193" r="4" stroke="rgb(255,221,0)" stroke-width="2" fill="none"></circle>
<circle cx="1262.16" cy="1712.32" r="4" stroke="rgb(199,0,255)" stroke-width="2" fill="none"></circle>
<circle cx="5994.79" cy="684.747" r="4" stroke="rgb(199,0,255)" stroke-width="2" fill="none"></circle>
<circle cx="1345.9" cy="1725.7" r="4" stroke="rgb(0,93,255)" stroke-width="2" fill="none"></circle>
<circle cx="6297.21" cy="1517.85" r="4" stroke="rgb(0,93,255)" stroke-width="2" fill="none"></circle>
<circle cx="1622.04" cy="1738.39" r="4" stroke="rgb(72,255,0)" stroke-width="2" fill="none"></circle>
<circle cx="6381.85" cy="1618.62" r="4" stroke="rgb(72,255,0)" stroke-width="2" fill="none"></circle>
<circle cx="2495.58" cy="1739.99" r="4" stroke="rgb(255,191,0)" stroke-width="2" fill="none"></circle>
<circle cx="5322.81" cy="794.424" r="4" stroke="rgb(255,191,0)" stroke-width="2" fill="none"></circle>
<circle cx="2309.42" cy="1749.66" r="4" stroke="rgb(0,255,46)" stroke-width="2" fill="none"></circle>
<circle cx="6072.33" cy="586.118" r="4" stroke="rgb(0,255,46)" stroke-width="2" fill="none"></circle>
<circle cx="1605.56" cy="1757.31" r="4" stroke="rgb(0,255,101)" stroke-width="2" fill="none"></circle>
<circle cx="5755.43" cy="883.667" r="4" stroke="rgb(0,255,101)" stroke-width="2" fill="none"></circle>
<circle cx="2035" cy="1780.84" r="4" stroke="rgb(255,123,0)" stroke-width="2" fill="none"></circle>
<circle cx="4845.58" cy="964.861" r="4" stroke="rgb(255,123,0)" stroke-width="2" fill="none"></circle>
<circle cx="1914.62" cy="1784.81" r="4" stroke="rgb(254,0,255)" stroke-width="2" fill="none"></circle>
<circle cx="6939.79" cy="881.002" r="4" stroke="rgb(254,0,255)" stroke-width="2" fill="none"></circle>
<circle cx="1323.45" cy="1832.64" r="4" stroke="rgb(255,229,0)" stroke-width="2" fill="none"></circle>
<circle cx="5403.65" cy="595.371" r="4" stroke="rgb(255,229,0)" stroke-width="2" fill="none"></circle>
<circle cx="1629.48" cy="1836.53" r="4" stroke="rgb(255,212,0)" stroke-width="2" fill="none"></circle>
<circle cx="5742.82" cy="1407.1" r="4" stroke="rgb(255,212,0)" stroke-width="2" fill="none"></circle>
<circle cx="1528.29" cy="1877.74" r="4" stroke="rgb(25,255,0)" stroke-width="2" fill="none"></circle>
<circle cx="6574.37" cy="622.542" r="4" stroke="rgb(25,255,0)" stroke-width="2" fill="none"></circle>
<circle cx="1633.66" cy="1881.08" r="4" stroke="rgb(0,131,255)" stroke-width="2" fill="none"></circle>
<circle cx="5835.94" cy="624.863" r="4" stroke="rgb(0,131,255)" stroke-width="2" fill="none"></circle>
<circle cx="1657.49" cy="1886.62" r="4" stroke="rgb(76,0,255)" stroke-width="2" fill="none"></circle>
<circle cx="6115.76" cy="748.56" r="4" stroke="rgb(76,0,255)" stroke-width="2" fill="none"></circle>
<circle cx="1644.19" cy="1912.34" r="4" stroke="rgb(174,0,255)" stroke-width="2" fill="none"></circle>
<circle cx="6642.7" cy="1224.41" r="4" stroke="rgb(174,0,255)" stroke-width="2" fill="none"></circle>
<circle cx="2448.98" cy="1929.07" r="4" stroke="rgb(0,255,191)" stroke-width="2" fill="none"></circle>
<circle cx="5765.34" cy="880.865" r="4" stroke="rgb(0,255,191)" stroke-width="2" fill="none"></circle>
<circle cx="1647" cy="1931.89" r="4" stroke="rgb(42,0,255)" stroke-width="2" fill="none"></circle>
<circle cx="5763.66" cy="1394.31" r="4" stroke="rgb(42,0,255)" stroke-width="2" fill="none"></circle>
<circle cx="1639.05" cy="1945.06" r="4" stroke="rgb(255,0,182)" stroke-width="2" fill="none"></circle>
<circle cx="5750.83" cy="1392.35" r="4" stroke="rgb(255,0,182)" stroke-width="2" fill="none"></circle>
<circle cx="2312.43" cy="1964.59" r="4" stroke="rgb(255,0,250)" stroke-width="2" fill="none"></circle>
<circle cx="5609.65" cy="1343.89" r="4" stroke="rgb(255,0,250)" stroke-width="2" fill="none"></circle>
<circle cx="1603.13" cy="1973.6" r="4" stroke="rgb(0,255,97)" stroke-width="2" fill="none"></circle>
<circle cx="6351.95" cy="984.168" r="4" stroke="rgb(0,255,97)" stroke-width="2" fill="none"></circle>
<circle cx="1033.94" cy="2015.98" r="4" stroke="rgb(46,255,0)" stroke-width="2" fill="none"></circle>
<circle cx="6101.53" cy="622.158" r="4" stroke="rgb(46,255,0)" stroke-width="2" fill="none"></circle>
<circle cx="1064.1" cy="2041.82" r="4" stroke="rgb(195,0,255)" stroke-width="2" fill="none"></circle>
<circle cx="6064.39" cy="622.56" r="4" stroke="rgb(195,0,255)" stroke-width="2" fill="none"></circle>
<circle cx="1255.87" cy="2088.07" r="4" stroke="rgb(0,174,255)" stroke-width="2" fill="none"></circle>
<circle cx="5909.05" cy="1497.25" r="4" stroke="rgb(0,174,255)" stroke-width="2" fill="none"></circle>
<circle cx="1160.22" cy="2099.83" r="4" stroke="rgb(255,0,187)" stroke-width="2" fill="none"></circle>
<circle cx="5155.71" cy="1240.72" r="4" stroke="rgb(255,0,187)" stroke-width="2" fill="none"></circle>
<circle cx="970.676" cy="2105.27" r="4" stroke="rgb(0,21,255)" stroke-width="2" fill="none"></circle>
<circle cx="5861.39" cy="756.124" r="4" stroke="rgb(0,21,255)" stroke-width="2" fill="none"></circle>
<circle cx="2445.39" cy="2123.65" r="4" stroke="rgb(255,0,127)" stroke-width="2" fill="none"></circle>
<circle cx="5660.17" cy="1392.82" r="4" stroke="rgb(255,0,127)" stroke-width="2" fill="none"></circle>
<circle cx="1251.13" cy="2144.06" r="4" stroke="rgb(255,63,0)" stroke-width="2" fill="none"></circle>
<circle cx="5442.77" cy="922.439" r="4" stroke="rgb(255,63,0)" stroke-width="2" fill="none"></circle>
<circle cx="1418.1" cy="2194.79" r="4" stroke="rgb(0,101,255)" stroke-width="2" fill="none"></circle>
<circle cx="6651.56" cy="1268" r="4" stroke="rgb(0,101,255)" stroke-width="2" fill="none"></circle>
<circle cx="1053.35" cy="2204.03" r="4" stroke="rgb(255,225,0)" stroke-width="2" fill="none"></circle>
<circle cx="6526.88" cy="938.359" r="4" stroke="rgb(255,225,0)" stroke-width="2" fill="none"></circle>
<circle cx="1226.19" cy="2210.75" r="4" stroke="rgb(0,216,255)" stroke-width="2" fill="none"></circle>
<circle cx="6795.69" cy="915.13" r="4" stroke="rgb(0,216,255)" stroke-width="2" fill="none"></circle>
<circle cx="851.153" cy="2258.19" r="4" stroke="rgb(255,0,72)" stroke-width="2" fill="none"></circle>
<circle cx="6631.89" cy="730.839" r="4" stroke="rgb(255,0,72)" stroke-width="2" fill="none"></circle>
<circle cx="1525.52" cy="2261.74" r="4" stroke="rgb(255,0,93)" stroke-width="2" fill="none"></circle>
<circle cx="5695.34" cy="635.673" r="4" stroke="rgb(255,0,93)" stroke-width="2" fill="none"></circle>
<circle cx="1517.47" cy="2262.88" r="4" stroke="rgb(12,255,0)" stroke-width="2" fill="none"></circle>
<circle cx="7014.12" cy="1036.04" r="4" stroke="rgb(12,255,0)" stroke-width="2" fill="none"></circle>
<circle cx="1501.39" cy="2263.01" r="4" stroke="rgb(195,255,0)" stroke-width="2" fill="none"></circle>
<circle cx="5946.68" cy="760.746" r="4" stroke="rgb(195,255,0)" stroke-width="2" fill="none"></circle>
<circle cx="793.169" cy="2263.74" r="4" stroke="rgb(255,0,199)" stroke-width="2" fill="none"></circle>
<circle cx="7013.49" cy="944.243" r="4" stroke="rgb(255,0,199)" stroke-width="2" fill="none"></circle>
<circle cx="1482.82" cy="2289.87" r="4" stroke="rgb(0,255,178)" stroke-width="2" fill="none"></circle>
<circle cx="6985.26" cy="1050.58" r="4" stroke="rgb(0,255,178)" stroke-width="2" fill="none"></circle>
<circle cx="1514.99" cy="2296.79" r="4" stroke="rgb(0,148,255)" stroke-width="2" fill="none"></circle>
<circle cx="5500.03" cy="641.258" r="4" stroke="rgb(0,148,255)" stroke-width="2" fill="none"></circle>
<circle cx="942.56" cy="2304.3" r="4" stroke="rgb(93,255,0)" stroke-width="2" fill="none"></circle>
<circle cx="5109.59" cy="1046.32" r="4" stroke="rgb(93,255,0)" stroke-width="2" fill="none"></circle>
<circle cx="964.506" cy="2312.51" r="4" stroke="rgb(0,203,255)" stroke-width="2" fill="none"></circle>
<circle cx="5118.18" cy="1068.17" r="4" stroke="rgb(0,203,255)" stroke-width="2" fill="none"></circle>
<circle cx="2164.93" cy="2339.76" r="4" stroke="rgb(255,76,0)" stroke-width="2" fill="none"></circle>
<circle cx="5956.29" cy="1513.43" r="4" stroke="rgb(255,76,0)" stroke-width="2" fill="none"></circle>
<circle cx="1477.57" cy="2343.26" r="4" stroke="rgb(0,255,135)" stroke-width="2" fill="none"></circle>
<circle cx="5625.61" cy="671.103" r="4" stroke="rgb(0,255,135)" stroke-width="2" fill="none"></circle>
<circle cx="1013.33" cy="2343.3" r="4" stroke="rgb(25,255,0)" stroke-width="2" fill="none"></circle>
<circle cx="5767.43" cy="794.325" r="4" stroke="rgb(25,255,0)" stroke-width="2" fill="none"></circle>
<circle cx="2154.3" cy="2344.92" r="4" stroke="rgb(0,255,50)" stroke-width="2" fill="none"></circle>
<circle cx="6700.74" cy="580.103" r="4" stroke="rgb(0,255,50)" stroke-width="2" fill="none"></circle>
<circle cx="1207.23" cy="2348.74" r="4" stroke="rgb(0,29,255)" stroke-width="2" fill="none"></circle>
<circle cx="5944.98" cy="937.897" r="4" stroke="rgb(0,29,255)" stroke-width="2" fill="none"></circle>
<circle cx="1823" cy="2359.16" r="4" stroke="rgb(255,51,0)" stroke-width="2" fill="none"></circle>
<circle cx="5763.05" cy="1334.72" r="4" stroke="rgb(255,51,0)" stroke-width="2" fill="none"></circle>
<circle cx="1486.1" cy="2387.7" r="4" stroke="rgb(191,0,255)" stroke-width="2" fill="none"></circle>
<circle cx="5685.75" cy="1034.18" r="4" stroke="rgb(191,0,255)" stroke-width="2" fill="none"></circle>
<circle cx="1417.41" cy="2394.9" r="4" stroke="rgb(255,165,0)" stroke-width="2" fill="none"></circle>
<circle cx="5119.41" cy="896.179" r="4" stroke="rgb(255,165,0)" stroke-width="2" fill="none"></circle>
<circle cx="1273.96" cy="2425.49" r="4" stroke="rgb(93,0,255)" stroke-width="2" fill="none"></circle>
<circle cx="6254.03" cy="915.381" r="4" stroke="rgb(93,0,255)" stroke-width="2" fill="none"></circle>
<circle cx="974.466" cy="2437.67" r="4" stroke="rgb(25,255,0)" stroke-width="2" fill="none"></circle>
<circle cx="6746.03" cy="1145.35" r="4" stroke="rgb(25,255,0)" stroke-width="2" fill="none"></circle>
<circle cx="819.309" cy="2459.49" r="4" stroke="rgb(0,119,255)" stroke-width="2" fill="none"></circle>
<circle cx="6062.76" cy="979.115" r="4" stroke="rgb(0,119,255)" stroke-width="2" fill="none"></circle>
<circle cx="1097.61" cy="2487.21" r="4" stroke="rgb(161,0,255)" stroke-width="2" fill="none"></circle>
<circle cx="5956.01" cy="583.925" r="4" stroke="rgb(161,0,255)" stroke-width="2" fill="none"></circle>
<circle cx="1108.51" cy="2499.08" r="4" stroke="rgb(101,255,0)" stroke-width="2" fill="none"></circle>
<circle cx="5667.34" cy="589.532" r="4" stroke="rgb(101,255,0)" stroke-width="2" fill="none"></circle>
<circle cx="1020.89" cy="2517.05" r="4" stroke="rgb(0,255,76)" stroke-width="2" fill="none"></circle>
<circle cx="6272.12" cy="1450.43" r="4" stroke="rgb(0,255,76)" stroke-width="2" fill="none"></circle>
</svg>