<?xml version="1.0" standalone="yes"?>
<!-- SVG graphic -->
<svg xmlns='http://www.w3.org/2000/svg' xmlns:xlink='http://www.w3.org/1999/xlink'
width="8064px" height="3024px" preserveAspectRatio="xMinYMin meet" viewBox="0 0 8064 3024" version="1.1">
<image x="0" y="0" width="4032px" height="3024px" opacity="1" xlink:href="/home/jeong/Code/2D-to-3D-Modeling-using-AI/Make3D/Image/20200227_180722.jpg"/>
<image x="4032" y="0" width="4032px" height="3024px" opacity="1" xlink:href="/home/jeong/Code/2D-to-3D-Modeling-using-AI/Make3D/Image/20200227_180809.jpg"/>
<polyline points="1794.57,777.046,7183.49,1561.43" stroke="rgb(255,0,38)" stroke-width="2" fill="none"></polyline>
<polyline points="1474.52,781.509,5975.74,1416.89" stroke="rgb(255,131,0)" stroke-width="2" fill="none"></polyline>
<polyline points="1505.49,790.96,5817.31,2154.58" stroke="rgb(0,255,208)" stroke-width="2" fill="none"></polyline>
<polyline points="1203.24,813.974,6615.37,1077.07" stroke="rgb(0,255,38)" stroke-width="2" fill="none"></polyline>
<polyline points="2265.5,869.379,6477.73,1706.82" stroke="rgb(255,0,208)" stroke-width="2" fill="none"></polyline>
<polyline points="1048.71,878.969,6320.19,1633.33" stroke="rgb(0,255,4)" stroke-width="2" fill="none"></polyline>
<polyline points="2422.69,893.766,6467.62,1797.06" stroke="rgb(0,46,255)" stroke-width="2" fill="none"></polyline>
<polyline points="1642.81,924.449,6764.68,1433.12" stroke="rgb(255,140,0)" stroke-width="2" fill="none"></polyline>
<polyline points="1357.9,929.909,5447.06,1594.35" stroke="rgb(148,0,255)" stroke-width="2" fill="none"></polyline>
<polyline points="1898.71,930.328,7096.6,1483.23" stroke="rgb(255,246,0)" stroke-width="2" fill="none"></polyline>
<polyline points="1634.12,936.959,5642.68,1349.58" stroke="rgb(102,0,255)" stroke-width="2" fill="none"></polyline>
<polyline points="2462.51,943.568,6079.33,1905.17" stroke="rgb(0,76,255)" stroke-width="2" fill="none"></polyline>
<polyline points="2410.35,948.059,6128.6,2082.79" stroke="rgb(0,187,255)" stroke-width="2" fill="none"></polyline>
<polyline points="2522.6,965.077,5934.55,1796.33" stroke="rgb(0,123,255)" stroke-width="2" fill="none"></polyline>
<polyline points="2317.84,972.55,6546.72,1608.05" stroke="rgb(0,51,255)" stroke-width="2" fill="none"></polyline>
<polyline points="2536.45,974.614,5727.74,1852.05" stroke="rgb(161,255,0)" stroke-width="2" fill="none"></polyline>
<polyline points="2310.12,976.332,6558.27,2011.4" stroke="rgb(255,127,0)" stroke-width="2" fill="none"></polyline>
<polyline points="2291.1,979.051,5968.81,1549.09" stroke="rgb(0,255,152)" stroke-width="2" fill="none"></polyline>
<polyline points="2306.03,981.319,6496.31,1465.15" stroke="rgb(255,0,55)" stroke-width="2" fill="none"></polyline>
<polyline points="2247.05,983.614,6628.36,2080.81" stroke="rgb(0,255,29)" stroke-width="2" fill="none"></polyline>
<polyline points="1039.15,997.067,5307.94,1490.24" stroke="rgb(233,0,255)" stroke-width="2" fill="none"></polyline>
<polyline points="2559.75,999.695,6310.34,2009.89" stroke="rgb(255,85,0)" stroke-width="2" fill="none"></polyline>
<polyline points="2650.98,1002.26,5615.84,1561.15" stroke="rgb(12,255,0)" stroke-width="2" fill="none"></polyline>
<polyline points="1315.25,1083.94,5618.74,2072.53" stroke="rgb(255,0,169)" stroke-width="2" fill="none"></polyline>
<polyline points="832.537,1084.08,7025.88,1700.66" stroke="rgb(0,255,131)" stroke-width="2" fill="none"></polyline>
<polyline points="2369.42,1085.99,6678.13,1880.88" stroke="rgb(0,63,255)" stroke-width="2" fill="none"></polyline>
<polyline points="2696.93,1098.96,6760.53,1898.52" stroke="rgb(153,255,0)" stroke-width="2" fill="none"></polyline>
<polyline points="1200.81,1107.81,6057.58,1884.47" stroke="rgb(255,25,0)" stroke-width="2" fill="none"></polyline>
<polyline points="2489.08,1108.42,6320.16,2022.71" stroke="rgb(97,0,255)" stroke-width="2" fill="none"></polyline>
<polyline points="2155.74,1116.01,7075.57,1713.78" stroke="rgb(255,0,229)" stroke-width="2" fill="none"></polyline>
<polyline points="2466.41,1118.8,6359.96,1588.95" stroke="rgb(255,0,187)" stroke-width="2" fill="none"></polyline>
<polyline points="1240.67,1122.34,6267.21,1966.97" stroke="rgb(0,255,25)" stroke-width="2" fill="none"></polyline>
<polyline points="937.197,1127.58,6624.05,2284.15" stroke="rgb(255,0,97)" stroke-width="2" fill="none"></polyline>
<polyline points="2785.68,1127.76,6195.61,2071.98" stroke="rgb(0,255,21)" stroke-width="2" fill="none"></polyline>
<polyline points="2665.19,1130.44,7084.32,1556.09" stroke="rgb(63,0,255)" stroke-width="2" fill="none"></polyline>
<polyline points="2400.28,1137.73,6408.09,2078.71" stroke="rgb(0,255,169)" stroke-width="2" fill="none"></polyline>
<polyline points="913.683,1141.32,6016.64,1952.96" stroke="rgb(8,255,0)" stroke-width="2" fill="none"></polyline>
<polyline points="2140.5,1145.86,7027.2,1322.36" stroke="rgb(0,255,16)" stroke-width="2" fill="none"></polyline>
<polyline points="963.982,1146.85,5883.11,1892.11" stroke="rgb(0,199,255)" stroke-width="2" fill="none"></polyline>
<polyline points="2628.81,1155.53,6382.29,1528.83" stroke="rgb(255,144,0)" stroke-width="2" fill="none"></polyline>
<polyline points="2923.49,1175.78,5746.02,2005.47" stroke="rgb(0,246,255)" stroke-width="2" fill="none"></polyline>
<polyline points="1432.24,1176.22,4416.6,908.458" stroke="rgb(255,0,127)" stroke-width="2" fill="none"></polyline>
<polyline points="1416.17,1182.31,5821,1805.11" stroke="rgb(0,255,33)" stroke-width="2" fill="none"></polyline>
<polyline points="2675.62,1194.85,6690.53,1626.71" stroke="rgb(46,0,255)" stroke-width="2" fill="none"></polyline>
<polyline points="2547.38,1199.64,6679.18,1390.34" stroke="rgb(0,250,255)" stroke-width="2" fill="none"></polyline>
<polyline points="2481.77,1222.86,6407.84,1992.82" stroke="rgb(0,51,255)" stroke-width="2" fill="none"></polyline>
<polyline points="2564.72,1226.19,5874.75,1811.3" stroke="rgb(255,0,114)" stroke-width="2" fill="none"></polyline>
<polyline points="2801.39,1227.28,5366.38,784.569" stroke="rgb(0,123,255)" stroke-width="2" fill="none"></polyline>
<polyline points="2401.34,1230.85,6453.26,1807.29" stroke="rgb(255,106,0)" stroke-width="2" fill="none"></polyline>
<polyline points="2452.83,1241.6,5726.32,1971.08" stroke="rgb(255,0,169)" stroke-width="2" fill="none"></polyline>
<polyline points="2456.48,1245.98,6427.47,1642.19" stroke="rgb(0,127,255)" stroke-width="2" fill="none"></polyline>
<polyline points="2552.83,1272.15,6190.26,1969.17" stroke="rgb(0,203,255)" stroke-width="2" fill="none"></polyline>
<polyline points="1162.11,1283.27,5000.31,1709.5" stroke="rgb(0,119,255)" stroke-width="2" fill="none"></polyline>
<polyline points="3054.1,1295.9,6012.53,1947.13" stroke="rgb(0,169,255)" stroke-width="2" fill="none"></polyline>
<polyline points="2729.04,1304.87,6707.07,1126.45" stroke="rgb(0,255,140)" stroke-width="2" fill="none"></polyline>
<polyline points="1329.02,1332.73,6285.25,1775.84" stroke="rgb(255,12,0)" stroke-width="2" fill="none"></polyline>
<polyline points="2661.62,1337.79,5747.85,1062.02" stroke="rgb(242,0,255)" stroke-width="2" fill="none"></polyline>
<polyline points="2568.93,1371.33,6934.68,1927.81" stroke="rgb(46,255,0)" stroke-width="2" fill="none"></polyline>
<polyline points="1572.77,1393.21,4654.98,1091.45" stroke="rgb(4,0,255)" stroke-width="2" fill="none"></polyline>
<polyline points="2440.59,1397.09,6255.64,1601.95" stroke="rgb(0,169,255)" stroke-width="2" fill="none"></polyline>
<polyline points="2571.93,1398.59,6296.88,1770.16" stroke="rgb(255,233,0)" stroke-width="2" fill="none"></polyline>
<polyline points="1951.66,1428.15,6956.76,1890.67" stroke="rgb(212,255,0)" stroke-width="2" fill="none"></polyline>
<polyline points="2554.47,1428.69,5006,2320.84" stroke="rgb(255,0,140)" stroke-width="2" fill="none"></polyline>
<polyline points="2575.22,1453.18,6098.99,1220.69" stroke="rgb(102,0,255)" stroke-width="2" fill="none"></polyline>
<polyline points="1860.89,1498.05,6708.52,1250.64" stroke="rgb(225,255,0)" stroke-width="2" fill="none"></polyline>
<polyline points="1473.34,1518.86,5001.83,418.38" stroke="rgb(0,76,255)" stroke-width="2" fill="none"></polyline>
<polyline points="2817.06,1529.11,5823.77,1392.81" stroke="rgb(237,255,0)" stroke-width="2" fill="none"></polyline>
<polyline points="1542.48,1530.31,6887.24,1288.25" stroke="rgb(0,229,255)" stroke-width="2" fill="none"></polyline>
<polyline points="3036.45,1532.01,5693.41,1459.45" stroke="rgb(0,89,255)" stroke-width="2" fill="none"></polyline>
<polyline points="2661.44,1549.55,6567.16,1085.33" stroke="rgb(0,255,42)" stroke-width="2" fill="none"></polyline>
<polyline points="1700.64,1551.03,6212.12,1721.55" stroke="rgb(0,85,255)" stroke-width="2" fill="none"></polyline>
<polyline points="1725.8,1557.81,5679.29,1603.86" stroke="rgb(140,0,255)" stroke-width="2" fill="none"></polyline>
<polyline points="3047.48,1558.5,6255.42,2321.93" stroke="rgb(84,255,0)" stroke-width="2" fill="none"></polyline>
<polyline points="1558.49,1561.19,5352.39,1295.07" stroke="rgb(0,85,255)" stroke-width="2" fill="none"></polyline>
<polyline points="1576.86,1564.57,5975.85,1371.85" stroke="rgb(0,255,186)" stroke-width="2" fill="none"></polyline>
<polyline points="2931.49,1568.12,5826.25,1923.2" stroke="rgb(0,255,140)" stroke-width="2" fill="none"></polyline>
<polyline points="1609.87,1570.2,6113.42,1908.74" stroke="rgb(135,255,0)" stroke-width="2" fill="none"></polyline>
<polyline points="1611.06,1571.23,5608.24,1848.04" stroke="rgb(255,38,0)" stroke-width="2" fill="none"></polyline>
<polyline points="1678.51,1571.64,6679.75,1782.49" stroke="rgb(0,17,255)" stroke-width="2" fill="none"></polyline>
<polyline points="3018.55,1572.22,5356.26,1221.27" stroke="rgb(255,0,63)" stroke-width="2" fill="none"></polyline>
<polyline points="1561.08,1573.23,6070.64,1155.58" stroke="rgb(255,0,131)" stroke-width="2" fill="none"></polyline>
<polyline points="1769.47,1603.15,6452.79,1218.7" stroke="rgb(144,255,0)" stroke-width="2" fill="none"></polyline>
<polyline points="1808.28,1612.27,5660.2,1940.58" stroke="rgb(255,212,0)" stroke-width="2" fill="none"></polyline>
<polyline points="1874.68,1646.19,5368.57,1205.73" stroke="rgb(255,229,0)" stroke-width="2" fill="none"></polyline>
<polyline points="1664.18,1655.1,5835.99,1719.73" stroke="rgb(0,255,161)" stroke-width="2" fill="none"></polyline>
<polyline points="1644.61,1669.62,6463.95,1495.13" stroke="rgb(0,157,255)" stroke-width="2" fill="none"></polyline>
<polyline points="1807.82,1682.59,6393.5,2026.92" stroke="rgb(208,0,255)" stroke-width="2" fill="none"></polyline>
<polyline points="2904.17,1682.67,6768.2,1432.74" stroke="rgb(106,255,0)" stroke-width="2" fill="none"></polyline>
<polyline points="1838.4,1684.15,6400.17,1432.63" stroke="rgb(0,237,255)" stroke-width="2" fill="none"></polyline>
<polyline points="1745.77,1688.64,5573.77,2037.7" stroke="rgb(0,255,216)" stroke-width="2" fill="none"></polyline>
<polyline points="2909.62,1693.34,6545.87,1954.96" stroke="rgb(238,0,255)" stroke-width="2" fill="none"></polyline>
<polyline points="1908.28,1696.13,6059.1,1159.34" stroke="rgb(38,255,0)" stroke-width="2" fill="none"></polyline>
<polyline points="3019.86,1701.31,5730.93,1192.11" stroke="rgb(4,0,255)" stroke-width="2" fill="none"></polyline>
<polyline points="1837.89,1703.46,6423.75,1731.23" stroke="rgb(0,255,63)" stroke-width="2" fill="none"></polyline>
<polyline points="1823.87,1704.14,5676.72,1533.57" stroke="rgb(255,63,0)" stroke-width="2" fill="none"></polyline>
<polyline points="1799.2,1704.62,5843.69,1795.02" stroke="rgb(255,0,221)" stroke-width="2" fill="none"></polyline>
<polyline points="2974.98,1721.5,5695.83,959.948" stroke="rgb(0,46,255)" stroke-width="2" fill="none"></polyline>
<polyline points="1871.04,1727.53,6757.41,1154.62" stroke="rgb(255,0,208)" stroke-width="2" fill="none"></polyline>
<polyline points="1822.07,1738.81,6527.14,1339.38" stroke="rgb(255,25,0)" stroke-width="2" fill="none"></polyline>
<polyline points="1863.37,1740.06,6264.42,1935.29" stroke="rgb(135,255,0)" stroke-width="2" fill="none"></polyline>
<polyline points="2865.82,1745.37,5987.51,1491.42" stroke="rgb(165,255,0)" stroke-width="2" fill="none"></polyline>
<polyline points="1817.85,1757.56,6501.02,1422.6" stroke="rgb(93,255,0)" stroke-width="2" fill="none"></polyline>
<polyline points="1795.53,1758.56,6505.32,1659.18" stroke="rgb(0,25,255)" stroke-width="2" fill="none"></polyline>
<polyline points="1797.02,1767.61,6019.32,1452.77" stroke="rgb(255,225,0)" stroke-width="2" fill="none"></polyline>
<polyline points="1901.47,1776.79,5832.19,1839.23" stroke="rgb(255,0,178)" stroke-width="2" fill="none"></polyline>
<polyline points="1852.04,1778.46,6078.03,1802.39" stroke="rgb(255,161,0)" stroke-width="2" fill="none"></polyline>
<polyline points="1829.69,1786.81,6599.48,1991.46" stroke="rgb(0,144,255)" stroke-width="2" fill="none"></polyline>
<polyline points="1660.13,1791.46,6182.79,1749.06" stroke="rgb(165,0,255)" stroke-width="2" fill="none"></polyline>
<polyline points="2473.8,1791.53,4970.16,531.083" stroke="rgb(255,204,0)" stroke-width="2" fill="none"></polyline>
<polyline points="1878.46,1798.15,6505.05,1779.81" stroke="rgb(161,255,0)" stroke-width="2" fill="none"></polyline>
<polyline points="1857.49,1801.21,5763.44,1172.32" stroke="rgb(0,255,67)" stroke-width="2" fill="none"></polyline>
<polyline points="1769.6,1805.28,6772.41,1608.62" stroke="rgb(38,0,255)" stroke-width="2" fill="none"></polyline>
<polyline points="1865.87,1810.81,5976.25,1295.13" stroke="rgb(255,174,0)" stroke-width="2" fill="none"></polyline>
<polyline points="1711.91,1812.91,6577.27,1861.23" stroke="rgb(0,229,255)" stroke-width="2" fill="none"></polyline>
<polyline points="1778.19,1816.46,5362.77,1398.19" stroke="rgb(255,0,242)" stroke-width="2" fill="none"></polyline>
<polyline points="1698.92,1822.23,6484.64,1127.9" stroke="rgb(0,174,255)" stroke-width="2" fill="none"></polyline>
<polyline points="1785.21,1839.24,6872.7,1257.13" stroke="rgb(89,0,255)" stroke-width="2" fill="none"></polyline>
<polyline points="1776.01,1862.08,5944.85,1809.36" stroke="rgb(0,29,255)" stroke-width="2" fill="none"></polyline>
<polyline points="1790.97,1894.37,5934.91,1796.23" stroke="rgb(0,255,199)" stroke-width="2" fill="none"></polyline>
<polyline points="1804.58,1901.19,6113.56,2025.94" stroke="rgb(148,255,0)" stroke-width="2" fill="none"></polyline>
<polyline points="3129.16,1904.12,6051.54,1005.06" stroke="rgb(153,0,255)" stroke-width="2" fill="none"></polyline>
<polyline points="2582.6,1920.49,5793.08,1549.09" stroke="rgb(255,0,106)" stroke-width="2" fill="none"></polyline>
<polyline points="1894.56,1967.57,6474.71,2089.28" stroke="rgb(0,187,255)" stroke-width="2" fill="none"></polyline>
<polyline points="2717.67,2057.61,5489.56,1311.42" stroke="rgb(255,123,0)" stroke-width="2" fill="none"></polyline>
<polyline points="2630.71,2088.6,5681.7,1296.13" stroke="rgb(42,255,0)" stroke-width="2" fill="none"></polyline>
<polyline points="2044.49,2322.26,5077.04,2192.09" stroke="rgb(157,255,0)" stroke-width="2" fill="none"></polyline>
<polyline points="2035.12,2338.84,4559.46,1020.98" stroke="rgb(0,131,255)" stroke-width="2" fill="none"></polyline>
<polyline points="2098.8,2374.27,6388.33,2068.13" stroke="rgb(0,123,255)" stroke-width="2" fill="none"></polyline>
<circle cx="1794.57" cy="777.046" r="4" stroke="rgb(255,0,38)" stroke-width="2" fill="none"></circle>
<circle cx="7183.49" cy="1561.43" r="4" stroke="rgb(255,0,38)" stroke-width="2" fill="none"></circle>
<circle cx="1474.52" cy="781.509" r="4" stroke="rgb(255,131,0)" stroke-width="2" fill="none"></circle>
<circle cx="5975.74" cy="1416.89" r="4" stroke="rgb(255,131,0)" stroke-width="2" fill="none"></circle>
<circle cx="1505.49" cy="790.96" r="4" stroke="rgb(0,255,208)" stroke-width="2" fill="none"></circle>
<circle cx="5817.31" cy="2154.58" r="4" stroke="rgb(0,255,208)" stroke-width="2" fill="none"></circle>
<circle cx="1203.24" cy="813.974" r="4" stroke="rgb(0,255,38)" stroke-width="2" fill="none"></circle>
<circle cx="6615.37" cy="1077.07" r="4" stroke="rgb(0,255,38)" stroke-width="2" fill="none"></circle>
<circle cx="2265.5" cy="869.379" r="4" stroke="rgb(255,0,208)" stroke-width="2" fill="none"></circle>
<circle cx="6477.73" cy="1706.82" r="4" stroke="rgb(255,0,208)" stroke-width="2" fill="none"></circle>
<circle cx="1048.71" cy="878.969" r="4" stroke="rgb(0,255,4)" stroke-width="2" fill="none"></circle>
<circle cx="6320.19" cy="1633.33" r="4" stroke="rgb(0,255,4)" stroke-width="2" fill="none"></circle>
<circle cx="2422.69" cy="893.766" r="4" stroke="rgb(0,46,255)" stroke-width="2" fill="none"></circle>
<circle cx="6467.62" cy="1797.06" r="4" stroke="rgb(0,46,255)" stroke-width="2" fill="none"></circle>
<circle cx="1642.81" cy="924.449" r="4" stroke="rgb(255,140,0)" stroke-width="2" fill="none"></circle>
<circle cx="6764.68" cy="1433.12" r="4" stroke="rgb(255,140,0)" stroke-width="2" fill="none"></circle>
<circle cx="1357.9" cy="929.909" r="4" stroke="rgb(148,0,255)" stroke-width="2" fill="none"></circle>
<circle cx="5447.06" cy="1594.35" r="4" stroke="rgb(148,0,255)" stroke-width="2" fill="none"></circle>
<circle cx="1898.71" cy="930.328" r="4" stroke="rgb(255,246,0)" stroke-width="2" fill="none"></circle>
<circle cx="7096.6" cy="1483.23" r="4" stroke="rgb(255,246,0)" stroke-width="2" fill="none"></circle>
<circle cx="1634.12" cy="936.959" r="4" stroke="rgb(102,0,255)" stroke-width="2" fill="none"></circle>
<circle cx="5642.68" cy="1349.58" r="4" stroke="rgb(102,0,255)" stroke-width="2" fill="none"></circle>
<circle cx="2462.51" cy="943.568" r="4" stroke="rgb(0,76,255)" stroke-width="2" fill="none"></circle>
<circle cx="6079.33" cy="1905.17" r="4" stroke="rgb(0,76,255)" stroke-width="2" fill="none"></circle>
<circle cx="2410.35" cy="948.059" r="4" stroke="rgb(0,187,255)" stroke-width="2" fill="none"></circle>
<circle cx="6128.6" cy="2082.79" r="4" stroke="rgb(0,187,255)" stroke-width="2" fill="none"></circle>
<circle cx="2522.6" cy="965.077" r="4" stroke="rgb(0,123,255)" stroke-width="2" fill="none"></circle>
<circle cx="5934.55" cy="1796.33" r="4" stroke="rgb(0,123,255)" stroke-width="2" fill="none"></circle>
<circle cx="2317.84" cy="972.55" r="4" stroke="rgb(0,51,255)" stroke-width="2" fill="none"></circle>
<circle cx="6546.72" cy="1608.05" r="4" stroke="rgb(0,51,255)" stroke-width="2" fill="none"></circle>
<circle cx="2536.45" cy="974.614" r="4" stroke="rgb(161,255,0)" stroke-width="2" fill="none"></circle>
<circle cx="5727.74" cy="1852.05" r="4" stroke="rgb(161,255,0)" stroke-width="2" fill="none"></circle>
<circle cx="2310.12" cy="976.332" r="4" stroke="rgb(255,127,0)" stroke-width="2" fill="none"></circle>
<circle cx="6558.27" cy="2011.4" r="4" stroke="rgb(255,127,0)" stroke-width="2" fill="none"></circle>
<circle cx="2291.1" cy="979.051" r="4" stroke="rgb(0,255,152)" stroke-width="2" fill="none"></circle>
<circle cx="5968.81" cy="1549.09" r="4" stroke="rgb(0,255,152)" stroke-width="2" fill="none"></circle>
<circle cx="2306.03" cy="981.319" r="4" stroke="rgb(255,0,55)" stroke-width="2" fill="none"></circle>
<circle cx="6496.31" cy="1465.15" r="4" stroke="rgb(255,0,55)" stroke-width="2" fill="none"></circle>
<circle cx="2247.05" cy="983.614" r="4" stroke="rgb(0,255,29)" stroke-width="2" fill="none"></circle>
<circle cx="6628.36" cy="2080.81" r="4" stroke="rgb(0,255,29)" stroke-width="2" fill="none"></circle>
<circle cx="1039.15" cy="997.067" r="4" stroke="rgb(233,0,255)" stroke-width="2" fill="none"></circle>
<circle cx="5307.94" cy="1490.24" r="4" stroke="rgb(233,0,255)" stroke-width="2" fill="none"></circle>
<circle cx="2559.75" cy="999.695" r="4" stroke="rgb(255,85,0)" stroke-width="2" fill="none"></circle>
<circle cx="6310.34" cy="2009.89" r="4" stroke="rgb(255,85,0)" stroke-width="2" fill="none"></circle>
<circle cx="2650.98" cy="1002.26" r="4" stroke="rgb(12,255,0)" stroke-width="2" fill="none"></circle>
<circle cx="5615.84" cy="1561.15" r="4" stroke="rgb(12,255,0)" stroke-width="2" fill="none"></circle>
<circle cx="1315.25" cy="1083.94" r="4" stroke="rgb(255,0,169)" stroke-width="2" fill="none"></circle>
<circle cx="5618.74" cy="2072.53" r="4" stroke="rgb(255,0,169)" stroke-width="2" fill="none"></circle>
<circle cx="832.537" cy="1084.08" r="4" stroke="rgb(0,255,131)" stroke-width="2" fill="none"></circle>
<circle cx="7025.88" cy="1700.66" r="4" stroke="rgb(0,255,131)" stroke-width="2" fill="none"></circle>
<circle cx="2369.42" cy="1085.99" r="4" stroke="rgb(0,63,255)" stroke-width="2" fill="none"></circle>
<circle cx="6678.13" cy="1880.88" r="4" stroke="rgb(0,63,255)" stroke-width="2" fill="none"></circle>
<circle cx="2696.93" cy="1098.96" r="4" stroke="rgb(153,255,0)" stroke-width="2" fill="none"></circle>
<circle cx="6760.53" cy="1898.52" r="4" stroke="rgb(153,255,0)" stroke-width="2" fill="none"></circle>
<circle cx="1200.81" cy="1107.81" r="4" stroke="rgb(255,25,0)" stroke-width="2" fill="none"></circle>
<circle cx="6057.58" cy="1884.47" r="4" stroke="rgb(255,25,0)" stroke-width="2" fill="none"></circle>
<circle cx="2489.08" cy="1108.42" r="4" stroke="rgb(97,0,255)" stroke-width="2" fill="none"></circle>
<circle cx="6320.16" cy="2022.71" r="4" stroke="rgb(97,0,255)" stroke-width="2" fill="none"></circle>
<circle cx="2155.74" cy="1116.01" r="4" stroke="rgb(255,0,229)" stroke-width="2" fill="none"></circle>
<circle cx="7075.57" cy="1713.78" r="4" stroke="rgb(255,0,229)" stroke-width="2" fill="none"></circle>
<circle cx="2466.41" cy="1118.8" r="4" stroke="rgb(255,0,187)" stroke-width="2" fill="none"></circle>
<circle cx="6359.96" cy="1588.95" r="4" stroke="rgb(255,0,187)" stroke-width="2" fill="none"></circle>
<circle cx="1240.67" cy="1122.34" r="4" stroke="rgb(0,255,25)" stroke-width="2" fill="none"></circle>
<circle cx="6267.21" cy="1966.97" r="4" stroke="rgb(0,255,25)" stroke-width="2" fill="none"></circle>
<circle cx="937.197" cy="1127.58" r="4" stroke="rgb(255,0,97)" stroke-width="2" fill="none"></circle>
<circle cx="6624.05" cy="2284.15" r="4" stroke="rgb(255,0,97)" stroke-width="2" fill="none"></circle>
<circle cx="2785.68" cy="1127.76" r="4" stroke="rgb(0,255,21)" stroke-width="2" fill="none"></circle>
<circle cx="6195.61" cy="2071.98" r="4" stroke="rgb(0,255,21)" stroke-width="2" fill="none"></circle>
<circle cx="2665.19" cy="1130.44" r="4" stroke="rgb(63,0,255)" stroke-width="2" fill="none"></circle>
<circle cx="7084.32" cy="1556.09" r="4" stroke="rgb(63,0,255)" stroke-width="2" fill="none"></circle>
<circle cx="2400.28" cy="1137.73" r="4" stroke="rgb(0,255,169)" stroke-width="2" fill="none"></circle>
<circle cx="6408.09" cy="2078.71" r="4" stroke="rgb(0,255,169)" stroke-width="2" fill="none"></circle>
<circle cx="913.683" cy="1141.32" r="4" stroke="rgb(8,255,0)" stroke-width="2" fill="none"></circle>
<circle cx="6016.64" cy="1952.96" r="4" stroke="rgb(8,255,0)" stroke-width="2" fill="none"></circle>
<circle cx="2140.5" cy="1145.86" r="4" stroke="rgb(0,255,16)" stroke-width="2" fill="none"></circle>
<circle cx="7027.2" cy="1322.36" r="4" stroke="rgb(0,255,16)" stroke-width="2" fill="none"></circle>
<circle cx="963.982" cy="1146.85" r="4" stroke="rgb(0,199,255)" stroke-width="2" fill="none"></circle>
<circle cx="5883.11" cy="1892.11" r="4" stroke="rgb(0,199,255)" stroke-width="2" fill="none"></circle>
<circle cx="2628.81" cy="1155.53" r="4" stroke="rgb(255,144,0)" stroke-width="2" fill="none"></circle>
<circle cx="6382.29" cy="1528.83" r="4" stroke="rgb(255,144,0)" stroke-width="2" fill="none"></circle>
<circle cx="2923.49" cy="1175.78" r="4" stroke="rgb(0,246,255)" stroke-width="2" fill="none"></circle>
<circle cx="5746.02" cy="2005.47" r="4" stroke="rgb(0,246,255)" stroke-width="2" fill="none"></circle>
<circle cx="1432.24" cy="1176.22" r="4" stroke="rgb(255,0,127)" stroke-width="2" fill="none"></circle>
<circle cx="4416.6" cy="908.458" r="4" stroke="rgb(255,0,127)" stroke-width="2" fill="none"></circle>
<circle cx="1416.17" cy="1182.31" r="4" stroke="rgb(0,255,33)" stroke-width="2" fill="none"></circle>
<circle cx="5821" cy="1805.11" r="4" stroke="rgb(0,255,33)" stroke-width="2" fill="none"></circle>
<circle cx="2675.62" cy="1194.85" r="4" stroke="rgb(46,0,255)" stroke-width="2" fill="none"></circle>
<circle cx="6690.53" cy="1626.71" r="4" stroke="rgb(46,0,255)" stroke-width="2" fill="none"></circle>
<circle cx="2547.38" cy="1199.64" r="4" stroke="rgb(0,250,255)" stroke-width="2" fill="none"></circle>
<circle cx="6679.18" cy="1390.34" r="4" stroke="rgb(0,250,255)" stroke-width="2" fill="none"></circle>
<circle cx="2481.77" cy="1222.86" r="4" stroke="rgb(0,51,255)" stroke-width="2" fill="none"></circle>
<circle cx="6407.84" cy="1992.82" r="4" stroke="rgb(0,51,255)" stroke-width="2" fill="none"></circle>
<circle cx="2564.72" cy="1226.19" r="4" stroke="rgb(255,0,114)" stroke-width="2" fill="none"></circle>
<circle cx="5874.75" cy="1811.3" r="4" stroke="rgb(255,0,114)" stroke-width="2" fill="none"></circle>
<circle cx="2801.39" cy="1227.28" r="4" stroke="rgb(0,123,255)" stroke-width="2" fill="none"></circle>
<circle cx="5366.38" cy="784.569" r="4" stroke="rgb(0,123,255)" stroke-width="2" fill="none"></circle>
<circle cx="2401.34" cy="1230.85" r="4" stroke="rgb(255,106,0)" stroke-width="2" fill="none"></circle>
<circle cx="6453.26" cy="1807.29" r="4" stroke="rgb(255,106,0)" stroke-width="2" fill="none"></circle>
<circle cx="2452.83" cy="1241.6" r="4" stroke="rgb(255,0,169)" stroke-width="2" fill="none"></circle>
<circle cx="5726.32" cy="1971.08" r="4" stroke="rgb(255,0,169)" stroke-width="2" fill="none"></circle>
<circle cx="2456.48" cy="1245.98" r="4" stroke="rgb(0,127,255)" stroke-width="2" fill="none"></circle>
<circle cx="6427.47" cy="1642.19" r="4" stroke="rgb(0,127,255)" stroke-width="2" fill="none"></circle>
<circle cx="2552.83" cy="1272.15" r="4" stroke="rgb(0,203,255)" stroke-width="2" fill="none"></circle>
<circle cx="6190.26" cy="1969.17" r="4" stroke="rgb(0,203,255)" stroke-width="2" fill="none"></circle>
<circle cx="1162.11" cy="1283.27" r="4" stroke="rgb(0,119,255)" stroke-width="2" fill="none"></circle>
<circle cx="5000.31" cy="1709.5" r="4" stroke="rgb(0,119,255)" stroke-width="2" fill="none"></circle>
<circle cx="3054.1" cy="1295.9" r="4" stroke="rgb(0,169,255)" stroke-width="2" fill="none"></circle>
<circle cx="6012.53" cy="1947.13" r="4" stroke="rgb(0,169,255)" stroke-width="2" fill="none"></circle>
<circle cx="2729.04" cy="1304.87" r="4" stroke="rgb(0,255,140)" stroke-width="2" fill="none"></circle>
<circle cx="6707.07" cy="1126.45" r="4" stroke="rgb(0,255,140)" stroke-width="2" fill="none"></circle>
<circle cx="1329.02" cy="1332.73" r="4" stroke="rgb(255,12,0)" stroke-width="2" fill="none"></circle>
<circle cx="6285.25" cy="1775.84" r="4" stroke="rgb(255,12,0)" stroke-width="2" fill="none"></circle>
<circle cx="2661.62" cy="1337.79" r="4" stroke="rgb(242,0,255)" stroke-width="2" fill="none"></circle>
<circle cx="5747.85" cy="1062.02" r="4" stroke="rgb(242,0,255)" stroke-width="2" fill="none"></circle>
<circle cx="2568.93" cy="1371.33" r="4" stroke="rgb(46,255,0)" stroke-width="2" fill="none"></circle>
<circle cx="6934.68" cy="1927.81" r="4" stroke="rgb(46,255,0)" stroke-width="2" fill="none"></circle>
<circle cx="1572.77" cy="1393.21" r="4" stroke="rgb(4,0,255)" stroke-width="2" fill="none"></circle>
<circle cx="4654.98" cy="1091.45" r="4" stroke="rgb(4,0,255)" stroke-width="2" fill="none"></circle>
<circle cx="2440.59" cy="1397.09" r="4" stroke="rgb(0,169,255)" stroke-width="2" fill="none"></circle>
<circle cx="6255.64" cy="1601.95" r="4" stroke="rgb(0,169,255)" stroke-width="2" fill="none"></circle>
<circle cx="2571.93" cy="1398.59" r="4" stroke="rgb(255,233,0)" stroke-width="2" fill="none"></circle>
<circle cx="6296.88" cy="1770.16" r="4" stroke="rgb(255,233,0)" stroke-width="2" fill="none"></circle>
<circle cx="1951.66" cy="1428.15" r="4" stroke="rgb(212,255,0)" stroke-width="2" fill="none"></circle>
<circle cx="6956.76" cy="1890.67" r="4" stroke="rgb(212,255,0)" stroke-width="2" fill="none"></circle>
<circle cx="2554.47" cy="1428.69" r="4" stroke="rgb(255,0,140)" stroke-width="2" fill="none"></circle>
<circle cx="5006" cy="2320.84" r="4" stroke="rgb(255,0,140)" stroke-width="2" fill="none"></circle>
<circle cx="2575.22" cy="1453.18" r="4" stroke="rgb(102,0,255)" stroke-width="2" fill="none"></circle>
<circle cx="6098.99" cy="1220.69" r="4" stroke="rgb(102,0,255)" stroke-width="2" fill="none"></circle>
<circle cx="1860.89" cy="1498.05" r="4" stroke="rgb(225,255,0)" stroke-width="2" fill="none"></circle>
<circle cx="6708.52" cy="1250.64" r="4" stroke="rgb(225,255,0)" stroke-width="2" fill="none"></circle>
<circle cx="1473.34" cy="1518.86" r="4" stroke="rgb(0,76,255)" stroke-width="2" fill="none"></circle>
<circle cx="5001.83" cy="418.38" r="4" stroke="rgb(0,76,255)" stroke-width="2" fill="none"></circle>
<circle cx="2817.06" cy="1529.11" r="4" stroke="rgb(237,255,0)" stroke-width="2" fill="none"></circle>
<circle cx="5823.77" cy="1392.81" r="4" stroke="rgb(237,255,0)" stroke-width="2" fill="none"></circle>
<circle cx="1542.48" cy="1530.31" r="4" stroke="rgb(0,229,255)" stroke-width="2" fill="none"></circle>
<circle cx="6887.24" cy="1288.25" r="4" stroke="rgb(0,229,255)" stroke-width="2" fill="none"></circle>
<circle cx="3036.45" cy="1532.01" r="4" stroke="rgb(0,89,255)" stroke-width="2" fill="none"></circle>
<circle cx="5693.41" cy="1459.45" r="4" stroke="rgb(0,89,255)" stroke-width="2" fill="none"></circle>
<circle cx="2661.44" cy="1549.55" r="4" stroke="rgb(0,255,42)" stroke-width="2" fill="none"></circle>
<circle cx="6567.16" cy="1085.33" r="4" stroke="rgb(0,255,42)" stroke-width="2" fill="none"></circle>
<circle cx="1700.64" cy="1551.03" r="4" stroke="rgb(0,85,255)" stroke-width="2" fill="none"></circle>
<circle cx="6212.12" cy="1721.55" r="4" stroke="rgb(0,85,255)" stroke-width="2" fill="none"></circle>
<circle cx="1725.8" cy="1557.81" r="4" stroke="rgb(140,0,255)" stroke-width="2" fill="none"></circle>
<circle cx="5679.29" cy="1603.86" r="4" stroke="rgb(140,0,255)" stroke-width="2" fill="none"></circle>
<circle cx="3047.48" cy="1558.5" r="4" stroke="rgb(84,255,0)" stroke-width="2" fill="none"></circle>
<circle cx="6255.42" cy="2321.93" r="4" stroke="rgb(84,255,0)" stroke-width="2" fill="none"></circle>
<circle cx="1558.49" cy="1561.19" r="4" stroke="rgb(0,85,255)" stroke-width="2" fill="none"></circle>
<circle cx="5352.39" cy="1295.07" r="4" stroke="rgb(0,85,255)" stroke-width="2" fill="none"></circle>
<circle cx="1576.86" cy="1564.57" r="4" stroke="rgb(0,255,186)" stroke-width="2" fill="none"></circle>
<circle cx="5975.85" cy="1371.85" r="4" stroke="rgb(0,255,186)" stroke-width="2" fill="none"></circle>
<circle cx="2931.49" cy="1568.12" r="4" stroke="rgb(0,255,140)" stroke-width="2" fill="none"></circle>
<circle cx="5826.25" cy="1923.2" r="4" stroke="rgb(0,255,140)" stroke-width="2" fill="none"></circle>
<circle cx="1609.87" cy="1570.2" r="4" stroke="rgb(135,255,0)" stroke-width="2" fill="none"></circle>
<circle cx="6113.42" cy="1908.74" r="4" stroke="rgb(135,255,0)" stroke-width="2" fill="none"></circle>
<circle cx="1611.06" cy="1571.23" r="4" stroke="rgb(255,38,0)" stroke-width="2" fill="none"></circle>
<circle cx="5608.24" cy="1848.04" r="4" stroke="rgb(255,38,0)" stroke-width="2" fill="none"></circle>
<circle cx="1678.51" cy="1571.64" r="4" stroke="rgb(0,17,255)" stroke-width="2" fill="none"></circle>
<circle cx="6679.75" cy="1782.49" r="4" stroke="rgb(0,17,255)" stroke-width="2" fill="none"></circle>
<circle cx="3018.55" cy="1572.22" r="4" stroke="rgb(255,0,63)" stroke-width="2" fill="none"></circle>
<circle cx="5356.26" cy="1221.27" r="4" stroke="rgb(255,0,63)" stroke-width="2" fill="none"></circle>
<circle cx="1561.08" cy="1573.23" r="4" stroke="rgb(255,0,131)" stroke-width="2" fill="none"></circle>
<circle cx="6070.64" cy="1155.58" r="4" stroke="rgb(255,0,131)" stroke-width="2" fill="none"></circle>
<circle cx="1769.47" cy="1603.15" r="4" stroke="rgb(144,255,0)" stroke-width="2" fill="none"></circle>
<circle cx="6452.79" cy="1218.7" r="4" stroke="rgb(144,255,0)" stroke-width="2" fill="none"></circle>
<circle cx="1808.28" cy="1612.27" r="4" stroke="rgb(255,212,0)" stroke-width="2" fill="none"></circle>
<circle cx="5660.2" cy="1940.58" r="4" stroke="rgb(255,212,0)" stroke-width="2" fill="none"></circle>
<circle cx="1874.68" cy="1646.19" r="4" stroke="rgb(255,229,0)" stroke-width="2" fill="none"></circle>
<circle cx="5368.57" cy="1205.73" r="4" stroke="rgb(255,229,0)" stroke-width="2" fill="none"></circle>
<circle cx="1664.18" cy="1655.1" r="4" stroke="rgb(0,255,161)" stroke-width="2" fill="none"></circle>
<circle cx="5835.99" cy="1719.73" r="4" stroke="rgb(0,255,161)" stroke-width="2" fill="none"></circle>
<circle cx="1644.61" cy="1669.62" r="4" stroke="rgb(0,157,255)" stroke-width="2" fill="none"></circle>
<circle cx="6463.95" cy="1495.13" r="4" stroke="rgb(0,157,255)" stroke-width="2" fill="none"></circle>
<circle cx="1807.82" cy="1682.59" r="4" stroke="rgb(208,0,255)" stroke-width="2" fill="none"></circle>
<circle cx="6393.5" cy="2026.92" r="4" stroke="rgb(208,0,255)" stroke-width="2" fill="none"></circle>
<circle cx="2904.17" cy="1682.67" r="4" stroke="rgb(106,255,0)" stroke-width="2" fill="none"></circle>
<circle cx="6768.2" cy="1432.74" r="4" stroke="rgb(106,255,0)" stroke-width="2" fill="none"></circle>
<circle cx="1838.4" cy="1684.15" r="4" stroke="rgb(0,237,255)" stroke-width="2" fill="none"></circle>
<circle cx="6400.17" cy="1432.63" r="4" stroke="rgb(0,237,255)" stroke-width="2" fill="none"></circle>
<circle cx="1745.77" cy="1688.64" r="4" stroke="rgb(0,255,216)" stroke-width="2" fill="none"></circle>
<circle cx="5573.77" cy="2037.7" r="4" stroke="rgb(0,255,216)" stroke-width="2" fill="none"></circle>
<circle cx="2909.62" cy="1693.34" r="4" stroke="rgb(238,0,255)" stroke-width="2" fill="none"></circle>
<circle cx="6545.87" cy="1954.96" r="4" stroke="rgb(238,0,255)" stroke-width="2" fill="none"></circle>
<circle cx="1908.28" cy="1696.13" r="4" stroke="rgb(38,255,0)" stroke-width="2" fill="none"></circle>
<circle cx="6059.1" cy="1159.34" r="4" stroke="rgb(38,255,0)" stroke-width="2" fill="none"></circle>
<circle cx="3019.86" cy="1701.31" r="4" stroke="rgb(4,0,255)" stroke-width="2" fill="none"></circle>
<circle cx="5730.93" cy="1192.11" r="4" stroke="rgb(4,0,255)" stroke-width="2" fill="none"></circle>
<circle cx="1837.89" cy="1703.46" r="4" stroke="rgb(0,255,63)" stroke-width="2" fill="none"></circle>
<circle cx="6423.75" cy="1731.23" r="4" stroke="rgb(0,255,63)" stroke-width="2" fill="none"></circle>
<circle cx="1823.87" cy="1704.14" r="4" stroke="rgb(255,63,0)" stroke-width="2" fill="none"></circle>
<circle cx="5676.72" cy="1533.57" r="4" stroke="rgb(255,63,0)" stroke-width="2" fill="none"></circle>
<circle cx="1799.2" cy="1704.62" r="4" stroke="rgb(255,0,221)" stroke-width="2" fill="none"></circle>
<circle cx="5843.69" cy="1795.02" r="4" stroke="rgb(255,0,221)" stroke-width="2" fill="none"></circle>
<circle cx="2974.98" cy="1721.5" r="4" stroke="rgb(0,46,255)" stroke-width="2" fill="none"></circle>
<circle cx="5695.83" cy="959.948" r="4" stroke="rgb(0,46,255)" stroke-width="2" fill="none"></circle>
<circle cx="1871.04" cy="1727.53" r="4" stroke="rgb(255,0,208)" stroke-width="2" fill="none"></circle>
<circle cx="6757.41" cy="1154.62" r="4" stroke="rgb(255,0,208)" stroke-width="2" fill="none"></circle>
<circle cx="1822.07" cy="1738.81" r="4" stroke="rgb(255,25,0)" stroke-width="2" fill="none"></circle>
<circle cx="6527.14" cy="1339.38" r="4" stroke="rgb(255,25,0)" stroke-width="2" fill="none"></circle>
<circle cx="1863.37" cy="1740.06" r="4" stroke="rgb(135,255,0)" stroke-width="2" fill="none"></circle>
<circle cx="6264.42" cy="1935.29" r="4" stroke="rgb(135,255,0)" stroke-width="2" fill="none"></circle>
<circle cx="2865.82" cy="1745.37" r="4" stroke="rgb(165,255,0)" stroke-width="2" fill="none"></circle>
<circle cx="5987.51" cy="1491.42" r="4" stroke="rgb(165,255,0)" stroke-width="2" fill="none"></circle>
<circle cx="1817.85" cy="1757.56" r="4" stroke="rgb(93,255,0)" stroke-width="2" fill="none"></circle>
<circle cx="6501.02" cy="1422.6" r="4" stroke="rgb(93,255,0)" stroke-width="2" fill="none"></circle>
<circle cx="1795.53" cy="1758.56" r="4" stroke="rgb(0,25,255)" stroke-width="2" fill="none"></circle>
<circle cx="6505.32" cy="1659.18" r="4" stroke="rgb(0,25,255)" stroke-width="2" fill="none"></circle>
<circle cx="1797.02" cy="1767.61" r="4" stroke="rgb(255,225,0)" stroke-width="2" fill="none"></circle>
<circle cx="6019.32" cy="1452.77" r="4" stroke="rgb(255,225,0)" stroke-width="2" fill="none"></circle>
<circle cx="1901.47" cy="1776.79" r="4" stroke="rgb(255,0,178)" stroke-width="2" fill="none"></circle>
<circle cx="5832.19" cy="1839.23" r="4" stroke="rgb(255,0,178)" stroke-width="2" fill="none"></circle>
<circle cx="1852.04" cy="1778.46" r="4" stroke="rgb(255,161,0)" stroke-width="2" fill="none"></circle>
<circle cx="6078.03" cy="1802.39" r="4" stroke="rgb(255,161,0)" stroke-width="2" fill="none"></circle>
<circle cx="1829.69" cy="1786.81" r="4" stroke="rgb(0,144,255)" stroke-width="2" fill="none"></circle>
<circle cx="6599.48" cy="1991.46" r="4" stroke="rgb(0,144,255)" stroke-width="2" fill="none"></circle>
<circle cx="1660.13" cy="1791.46" r="4" stroke="rgb(165,0,255)" stroke-width="2" fill="none"></circle>
<circle cx="6182.79" cy="1749.06" r="4" stroke="rgb(165,0,255)" stroke-width="2" fill="none"></circle>
<circle cx="2473.8" cy="1791.53" r="4" stroke="rgb(255,204,0)" stroke-width="2" fill="none"></circle>
<circle cx="4970.16" cy="531.083" r="4" stroke="rgb(255,204,0)" stroke-width="2" fill="none"></circle>
<circle cx="1878.46" cy="1798.15" r="4" stroke="rgb(161,255,0)" stroke-width="2" fill="none"></circle>
<circle cx="6505.05" cy="1779.81" r="4" stroke="rgb(161,255,0)" stroke-width="2" fill="none"></circle>
<circle cx="1857.49" cy="1801.21" r="4" stroke="rgb(0,255,67)" stroke-width="2" fill="none"></circle>
<circle cx="5763.44" cy="1172.32" r="4" stroke="rgb(0,255,67)" stroke-width="2" fill="none"></circle>
<circle cx="1769.6" cy="1805.28" r="4" stroke="rgb(38,0,255)" stroke-width="2" fill="none"></circle>
<circle cx="6772.41" cy="1608.62" r="4" stroke="rgb(38,0,255)" stroke-width="2" fill="none"></circle>
<circle cx="1865.87" cy="1810.81" r="4" stroke="rgb(255,174,0)" stroke-width="2" fill="none"></circle>
<circle cx="5976.25" cy="1295.13" r="4" stroke="rgb(255,174,0)" stroke-width="2" fill="none"></circle>
<circle cx="1711.91" cy="1812.91" r="4" stroke="rgb(0,229,255)" stroke-width="2" fill="none"></circle>
<circle cx="6577.27" cy="1861.23" r="4" stroke="rgb(0,229,255)" stroke-width="2" fill="none"></circle>
<circle cx="1778.19" cy="1816.46" r="4" stroke="rgb(255,0,242)" stroke-width="2" fill="none"></circle>
<circle cx="5362.77" cy="1398.19" r="4" stroke="rgb(255,0,242)" stroke-width="2" fill="none"></circle>
<circle cx="1698.92" cy="1822.23" r="4" stroke="rgb(0,174,255)" stroke-width="2" fill="none"></circle>
<circle cx="6484.64" cy="1127.9" r="4" stroke="rgb(0,174,255)" stroke-width="2" fill="none"></circle>
<circle cx="1785.21" cy="1839.24" r="4" stroke="rgb(89,0,255)" stroke-width="2" fill="none"></circle>
<circle cx="6872.7" cy="1257.13" r="4" stroke="rgb(89,0,255)" stroke-width="2" fill="none"></circle>
<circle cx="1776.01" cy="1862.08" r="4" stroke="rgb(0,29,255)" stroke-width="2" fill="none"></circle>
<circle cx="5944.85" cy="1809.36" r="4" stroke="rgb(0,29,255)" stroke-width="2" fill="none"></circle>
<circle cx="1790.97" cy="1894.37" r="4" stroke="rgb(0,255,199)" stroke-width="2" fill="none"></circle>
<circle cx="5934.91" cy="1796.23" r="4" stroke="rgb(0,255,199)" stroke-width="2" fill="none"></circle>
<circle cx="1804.58" cy="1901.19" r="4" stroke="rgb(148,255,0)" stroke-width="2" fill="none"></circle>
<circle cx="6113.56" cy="2025.94" r="4" stroke="rgb(148,255,0)" stroke-width="2" fill="none"></circle>
<circle cx="3129.16" cy="1904.12" r="4" stroke="rgb(153,0,255)" stroke-width="2" fill="none"></circle>
<circle cx="6051.54" cy="1005.06" r="4" stroke="rgb(153,0,255)" stroke-width="2" fill="none"></circle>
<circle cx="2582.6" cy="1920.49" r="4" stroke="rgb(255,0,106)" stroke-width="2" fill="none"></circle>
<circle cx="5793.08" cy="1549.09" r="4" stroke="rgb(255,0,106)" stroke-width="2" fill="none"></circle>
<circle cx="1894.56" cy="1967.57" r="4" stroke="rgb(0,187,255)" stroke-width="2" fill="none"></circle>
<circle cx="6474.71" cy="2089.28" r="4" stroke="rgb(0,187,255)" stroke-width="2" fill="none"></circle>
<circle cx="2717.67" cy="2057.61" r="4" stroke="rgb(255,123,0)" stroke-width="2" fill="none"></circle>
<circle cx="5489.56" cy="1311.42" r="4" stroke="rgb(255,123,0)" stroke-width="2" fill="none"></circle>
<circle cx="2630.71" cy="2088.6" r="4" stroke="rgb(42,255,0)" stroke-width="2" fill="none"></circle>
<circle cx="5681.7" cy="1296.13" r="4" stroke="rgb(42,255,0)" stroke-width="2" fill="none"></circle>
<circle cx="2044.49" cy="2322.26" r="4" stroke="rgb(157,255,0)" stroke-width="2" fill="none"></circle>
<circle cx="5077.04" cy="2192.09" r="4" stroke="rgb(157,255,0)" stroke-width="2" fill="none"></circle>
<circle cx="2035.12" cy="2338.84" r="4" stroke="rgb(0,131,255)" stroke-width="2" fill="none"></circle>
<circle cx="4559.46" cy="1020.98" r="4" stroke="rgb(0,131,255)" stroke-width="2" fill="none"></circle>
<circle cx="2098.8" cy="2374.27" r="4" stroke="rgb(0,123,255)" stroke-width="2" fill="none"></circle>
<circle cx="6388.33" cy="2068.13" r="4" stroke="rgb(0,123,255)" stroke-width="2" fill="none"></circle>
</svg>