<?xml version="1.0" standalone="yes"?>
<!-- SVG graphic -->
<svg xmlns='http://www.w3.org/2000/svg' xmlns:xlink='http://www.w3.org/1999/xlink'
width="8064px" height="3024px" preserveAspectRatio="xMinYMin meet" viewBox="0 0 8064 3024" version="1.1">
<image x="0" y="0" width="4032px" height="3024px" opacity="1" xlink:href="/home/jeong/Code/2D-to-3D-Modeling-using-AI/Make3D/Image/20200227_180611.jpg"/>
<image x="4032" y="0" width="4032px" height="3024px" opacity="1" xlink:href="/home/jeong/Code/2D-to-3D-Modeling-using-AI/Make3D/Image/20200227_180638.jpg"/>
<polyline points="802.374,873.977,4897.88,2074.85" stroke="rgb(255,0,208)" stroke-width="2" fill="none"></polyline>
<polyline points="2091.67,652.766,5363.4,1014.1" stroke="rgb(255,0,123)" stroke-width="2" fill="none"></polyline>
<polyline points="780.259,811.882,6587.43,1380.99" stroke="rgb(114,0,255)" stroke-width="2" fill="none"></polyline>
<polyline points="1636.31,1706.06,6151.76,1764.16" stroke="rgb(221,255,0)" stroke-width="2" fill="none"></polyline>
<polyline points="1719.79,1700.03,6127.41,1770.24" stroke="rgb(0,0,255)" stroke-width="2" fill="none"></polyline>
<polyline points="1586.55,1976.51,5177.1,2126.87" stroke="rgb(0,229,255)" stroke-width="2" fill="none"></polyline>
<polyline points="1939.48,2029.1,6227.46,1020.04" stroke="rgb(0,255,110)" stroke-width="2" fill="none"></polyline>
<polyline points="858.486,272.413,5463.68,1021.77" stroke="rgb(0,255,97)" stroke-width="2" fill="none"></polyline>
<polyline points="984.412,209.304,5156.97,2207.09" stroke="rgb(255,114,0)" stroke-width="2" fill="none"></polyline>
<polyline points="1410.55,817.645,5823.01,1796.91" stroke="rgb(38,255,0)" stroke-width="2" fill="none"></polyline>
<polyline points="1321.32,995.211,5794.86,1800.21" stroke="rgb(225,0,255)" stroke-width="2" fill="none"></polyline>
<polyline points="2413.28,837.448,4253.71,1033.61" stroke="rgb(203,255,0)" stroke-width="2" fill="none"></polyline>
<polyline points="2350.77,2074.95,4907.48,1411.21" stroke="rgb(255,29,0)" stroke-width="2" fill="none"></polyline>
<polyline points="1246.28,1048.13,5782.76,1808.2" stroke="rgb(0,208,255)" stroke-width="2" fill="none"></polyline>
<polyline points="1762.85,1864.85,5944.43,1842.9" stroke="rgb(0,131,255)" stroke-width="2" fill="none"></polyline>
<polyline points="2091.67,652.766,5091.05,1856.55" stroke="rgb(0,225,255)" stroke-width="2" fill="none"></polyline>
<polyline points="2413.28,837.448,4246.52,1043.91" stroke="rgb(0,169,255)" stroke-width="2" fill="none"></polyline>
<polyline points="962.286,216.256,6351.4,2341.23" stroke="rgb(0,59,255)" stroke-width="2" fill="none"></polyline>
<polyline points="1474.13,842.906,6807.02,1466.61" stroke="rgb(119,255,0)" stroke-width="2" fill="none"></polyline>
<polyline points="1319.31,897.404,6623.96,1468.53" stroke="rgb(110,0,255)" stroke-width="2" fill="none"></polyline>
<polyline points="1214.58,1255.53,5376.86,1076.97" stroke="rgb(242,0,255)" stroke-width="2" fill="none"></polyline>
<polyline points="1995.11,1398.44,6576.15,2259.4" stroke="rgb(255,0,59)" stroke-width="2" fill="none"></polyline>
<polyline points="1633.97,1825.06,5859.59,2606.14" stroke="rgb(0,255,29)" stroke-width="2" fill="none"></polyline>
<polyline points="825.837,831.387,6755.6,1479.19" stroke="rgb(186,0,255)" stroke-width="2" fill="none"></polyline>
<polyline points="1698.29,945.504,5838.42,1482.54" stroke="rgb(0,242,255)" stroke-width="2" fill="none"></polyline>
<polyline points="2413.28,837.448,5839.66,1093.98" stroke="rgb(174,0,255)" stroke-width="2" fill="none"></polyline>
<polyline points="1160.1,1094.13,5875.51,1493.04" stroke="rgb(0,59,255)" stroke-width="2" fill="none"></polyline>
<polyline points="1347.41,1300.58,6845.49,1548.1" stroke="rgb(12,255,0)" stroke-width="2" fill="none"></polyline>
<polyline points="1735.76,441.139,5951.68,1583.52" stroke="rgb(255,233,0)" stroke-width="2" fill="none"></polyline>
<polyline points="1735.76,441.139,5951.68,1583.52" stroke="rgb(51,255,0)" stroke-width="2" fill="none"></polyline>
<polyline points="2091.67,652.766,5895.94,1158.12" stroke="rgb(255,0,72)" stroke-width="2" fill="none"></polyline>
<polyline points="1474.13,842.906,5728.32,1601.89" stroke="rgb(0,8,255)" stroke-width="2" fill="none"></polyline>
<polyline points="1474.13,842.906,5728.32,1601.89" stroke="rgb(255,0,208)" stroke-width="2" fill="none"></polyline>
<polyline points="1240.43,438.967,5769.17,1631.37" stroke="rgb(46,0,255)" stroke-width="2" fill="none"></polyline>
<polyline points="2049.87,2021.4,4938.76,1182.53" stroke="rgb(255,0,229)" stroke-width="2" fill="none"></polyline>
<polyline points="1760.19,2124.06,4869.04,1188.14" stroke="rgb(237,255,0)" stroke-width="2" fill="none"></polyline>
<polyline points="689.053,536.983,6708.02,1203.12" stroke="rgb(255,0,216)" stroke-width="2" fill="none"></polyline>
<polyline points="1633.49,2169.36,6242.34,1692.13" stroke="rgb(119,255,0)" stroke-width="2" fill="none"></polyline>
<polyline points="1197.82,1053.61,5181.63,1218.68" stroke="rgb(0,140,255)" stroke-width="2" fill="none"></polyline>
<polyline points="886.038,891.281,5271.45,1714.76" stroke="rgb(255,0,101)" stroke-width="2" fill="none"></polyline>
<polyline points="1604.09,1053.17,5888.31,1728.22" stroke="rgb(191,255,0)" stroke-width="2" fill="none"></polyline>
<polyline points="850.105,852.953,4915.06,1731.85" stroke="rgb(255,51,0)" stroke-width="2" fill="none"></polyline>
<polyline points="2298.92,1733.22,4925.25,1244.25" stroke="rgb(174,0,255)" stroke-width="2" fill="none"></polyline>
<polyline points="885.589,591.373,5387.73,1263.1" stroke="rgb(255,0,191)" stroke-width="2" fill="none"></polyline>
<polyline points="1636.31,1706.06,5884.71,1820.72" stroke="rgb(0,153,255)" stroke-width="2" fill="none"></polyline>
<polyline points="2176.55,781.559,6452.86,1282.17" stroke="rgb(0,255,42)" stroke-width="2" fill="none"></polyline>
<polyline points="1347.41,1300.58,5373.88,1263.95" stroke="rgb(0,255,93)" stroke-width="2" fill="none"></polyline>
<polyline points="1762.85,1864.85,5985.68,1830.78" stroke="rgb(255,187,0)" stroke-width="2" fill="none"></polyline>
<polyline points="2091.67,652.766,4286.85,1295.04" stroke="rgb(255,0,12)" stroke-width="2" fill="none"></polyline>
<polyline points="2091.67,652.766,4731.88,1963.21" stroke="rgb(0,25,255)" stroke-width="2" fill="none"></polyline>
<polyline points="1198.37,1106.24,6320.69,1301.36" stroke="rgb(0,246,255)" stroke-width="2" fill="none"></polyline>
<polyline points="2413.28,837.448,6804.89,1305.99" stroke="rgb(0,255,195)" stroke-width="2" fill="none"></polyline>
<polyline points="2091.67,652.766,4300.45,1306.03" stroke="rgb(114,255,0)" stroke-width="2" fill="none"></polyline>
<polyline points="2610.38,1120.78,6684.08,1342.92" stroke="rgb(255,0,216)" stroke-width="2" fill="none"></polyline>
<polyline points="1604.09,1053.17,5724.87,1357.46" stroke="rgb(127,255,0)" stroke-width="2" fill="none"></polyline>
<polyline points="2610.38,1120.78,6604,1357.77" stroke="rgb(153,0,255)" stroke-width="2" fill="none"></polyline>
<polyline points="2413.28,837.448,6035.84,1368.76" stroke="rgb(72,255,0)" stroke-width="2" fill="none"></polyline>
<polyline points="1204.74,1056.11,6620.23,1456.86" stroke="rgb(0,216,255)" stroke-width="2" fill="none"></polyline>
<polyline points="1197.82,1053.61,6619.46,1464.26" stroke="rgb(110,0,255)" stroke-width="2" fill="none"></polyline>
<polyline points="2009.89,1259.85,5770.07,1468" stroke="rgb(0,255,161)" stroke-width="2" fill="none"></polyline>
<polyline points="2744.77,1305.69,6787.39,1484.12" stroke="rgb(242,0,255)" stroke-width="2" fill="none"></polyline>
<polyline points="1155.98,990.138,4835.51,1647.38" stroke="rgb(38,0,255)" stroke-width="2" fill="none"></polyline>
<polyline points="886.038,891.281,5267.79,1710.67" stroke="rgb(255,153,0)" stroke-width="2" fill="none"></polyline>
<polyline points="1498.79,902.48,5752.79,1648.9" stroke="rgb(34,0,255)" stroke-width="2" fill="none"></polyline>
<polyline points="1633.97,1825.06,4734.31,1668.15" stroke="rgb(0,255,84)" stroke-width="2" fill="none"></polyline>
<polyline points="920.074,310.763,5150.71,2201.07" stroke="rgb(0,110,255)" stroke-width="2" fill="none"></polyline>
<polyline points="920.074,310.763,5149.02,2223.31" stroke="rgb(255,0,204)" stroke-width="2" fill="none"></polyline>
<polyline points="867.955,468.052,4971.68,1724.84" stroke="rgb(127,255,0)" stroke-width="2" fill="none"></polyline>
<polyline points="1765.94,2144.48,5095.66,2358.42" stroke="rgb(0,255,246)" stroke-width="2" fill="none"></polyline>
<polyline points="2205.5,1883.41,6817.32,2209.65" stroke="rgb(255,131,0)" stroke-width="2" fill="none"></polyline>
<polyline points="2049.87,2021.4,5171.6,1218.2" stroke="rgb(246,0,255)" stroke-width="2" fill="none"></polyline>
<polyline points="2176.55,781.559,6440.35,1268.26" stroke="rgb(0,255,21)" stroke-width="2" fill="none"></polyline>
<polyline points="2091.67,652.766,4344.59,1344.25" stroke="rgb(255,187,0)" stroke-width="2" fill="none"></polyline>
<polyline points="1101.37,1105.15,4662.05,1553.06" stroke="rgb(0,89,255)" stroke-width="2" fill="none"></polyline>
<polyline points="1564.36,1832.21,4942.63,1605.98" stroke="rgb(169,255,0)" stroke-width="2" fill="none"></polyline>
<polyline points="1003.53,651.987,4966.13,1381.79" stroke="rgb(0,255,0)" stroke-width="2" fill="none"></polyline>
<polyline points="963.112,2348.56,5458.76,2775.34" stroke="rgb(0,76,255)" stroke-width="2" fill="none"></polyline>
<polyline points="2278.94,1843.88,4305.29,1270.51" stroke="rgb(0,72,255)" stroke-width="2" fill="none"></polyline>
<circle cx="802.374" cy="873.977" r="4" stroke="rgb(255,0,208)" stroke-width="2" fill="none"></circle>
<circle cx="4897.88" cy="2074.85" r="4" stroke="rgb(255,0,208)" stroke-width="2" fill="none"></circle>
<circle cx="2091.67" cy="652.766" r="4" stroke="rgb(255,0,123)" stroke-width="2" fill="none"></circle>
<circle cx="5363.4" cy="1014.1" r="4" stroke="rgb(255,0,123)" stroke-width="2" fill="none"></circle>
<circle cx="780.259" cy="811.882" r="4" stroke="rgb(114,0,255)" stroke-width="2" fill="none"></circle>
<circle cx="6587.43" cy="1380.99" r="4" stroke="rgb(114,0,255)" stroke-width="2" fill="none"></circle>
<circle cx="1636.31" cy="1706.06" r="4" stroke="rgb(221,255,0)" stroke-width="2" fill="none"></circle>
<circle cx="6151.76" cy="1764.16" r="4" stroke="rgb(221,255,0)" stroke-width="2" fill="none"></circle>
<circle cx="1719.79" cy="1700.03" r="4" stroke="rgb(0,0,255)" stroke-width="2" fill="none"></circle>
<circle cx="6127.41" cy="1770.24" r="4" stroke="rgb(0,0,255)" stroke-width="2" fill="none"></circle>
<circle cx="1586.55" cy="1976.51" r="4" stroke="rgb(0,229,255)" stroke-width="2" fill="none"></circle>
<circle cx="5177.1" cy="2126.87" r="4" stroke="rgb(0,229,255)" stroke-width="2" fill="none"></circle>
<circle cx="1939.48" cy="2029.1" r="4" stroke="rgb(0,255,110)" stroke-width="2" fill="none"></circle>
<circle cx="6227.46" cy="1020.04" r="4" stroke="rgb(0,255,110)" stroke-width="2" fill="none"></circle>
<circle cx="858.486" cy="272.413" r="4" stroke="rgb(0,255,97)" stroke-width="2" fill="none"></circle>
<circle cx="5463.68" cy="1021.77" r="4" stroke="rgb(0,255,97)" stroke-width="2" fill="none"></circle>
<circle cx="984.412" cy="209.304" r="4" stroke="rgb(255,114,0)" stroke-width="2" fill="none"></circle>
<circle cx="5156.97" cy="2207.09" r="4" stroke="rgb(255,114,0)" stroke-width="2" fill="none"></circle>
<circle cx="1410.55" cy="817.645" r="4" stroke="rgb(38,255,0)" stroke-width="2" fill="none"></circle>
<circle cx="5823.01" cy="1796.91" r="4" stroke="rgb(38,255,0)" stroke-width="2" fill="none"></circle>
<circle cx="1321.32" cy="995.211" r="4" stroke="rgb(225,0,255)" stroke-width="2" fill="none"></circle>
<circle cx="5794.86" cy="1800.21" r="4" stroke="rgb(225,0,255)" stroke-width="2" fill="none"></circle>
<circle cx="2413.28" cy="837.448" r="4" stroke="rgb(203,255,0)" stroke-width="2" fill="none"></circle>
<circle cx="4253.71" cy="1033.61" r="4" stroke="rgb(203,255,0)" stroke-width="2" fill="none"></circle>
<circle cx="2350.77" cy="2074.95" r="4" stroke="rgb(255,29,0)" stroke-width="2" fill="none"></circle>
<circle cx="4907.48" cy="1411.21" r="4" stroke="rgb(255,29,0)" stroke-width="2" fill="none"></circle>
<circle cx="1246.28" cy="1048.13" r="4" stroke="rgb(0,208,255)" stroke-width="2" fill="none"></circle>
<circle cx="5782.76" cy="1808.2" r="4" stroke="rgb(0,208,255)" stroke-width="2" fill="none"></circle>
<circle cx="1762.85" cy="1864.85" r="4" stroke="rgb(0,131,255)" stroke-width="2" fill="none"></circle>
<circle cx="5944.43" cy="1842.9" r="4" stroke="rgb(0,131,255)" stroke-width="2" fill="none"></circle>
<circle cx="2091.67" cy="652.766" r="4" stroke="rgb(0,225,255)" stroke-width="2" fill="none"></circle>
<circle cx="5091.05" cy="1856.55" r="4" stroke="rgb(0,225,255)" stroke-width="2" fill="none"></circle>
<circle cx="2413.28" cy="837.448" r="4" stroke="rgb(0,169,255)" stroke-width="2" fill="none"></circle>
<circle cx="4246.52" cy="1043.91" r="4" stroke="rgb(0,169,255)" stroke-width="2" fill="none"></circle>
<circle cx="962.286" cy="216.256" r="4" stroke="rgb(0,59,255)" stroke-width="2" fill="none"></circle>
<circle cx="6351.4" cy="2341.23" r="4" stroke="rgb(0,59,255)" stroke-width="2" fill="none"></circle>
<circle cx="1474.13" cy="842.906" r="4" stroke="rgb(119,255,0)" stroke-width="2" fill="none"></circle>
<circle cx="6807.02" cy="1466.61" r="4" stroke="rgb(119,255,0)" stroke-width="2" fill="none"></circle>
<circle cx="1319.31" cy="897.404" r="4" stroke="rgb(110,0,255)" stroke-width="2" fill="none"></circle>
<circle cx="6623.96" cy="1468.53" r="4" stroke="rgb(110,0,255)" stroke-width="2" fill="none"></circle>
<circle cx="1214.58" cy="1255.53" r="4" stroke="rgb(242,0,255)" stroke-width="2" fill="none"></circle>
<circle cx="5376.86" cy="1076.97" r="4" stroke="rgb(242,0,255)" stroke-width="2" fill="none"></circle>
<circle cx="1995.11" cy="1398.44" r="4" stroke="rgb(255,0,59)" stroke-width="2" fill="none"></circle>
<circle cx="6576.15" cy="2259.4" r="4" stroke="rgb(255,0,59)" stroke-width="2" fill="none"></circle>
<circle cx="1633.97" cy="1825.06" r="4" stroke="rgb(0,255,29)" stroke-width="2" fill="none"></circle>
<circle cx="5859.59" cy="2606.14" r="4" stroke="rgb(0,255,29)" stroke-width="2" fill="none"></circle>
<circle cx="825.837" cy="831.387" r="4" stroke="rgb(186,0,255)" stroke-width="2" fill="none"></circle>
<circle cx="6755.6" cy="1479.19" r="4" stroke="rgb(186,0,255)" stroke-width="2" fill="none"></circle>
<circle cx="1698.29" cy="945.504" r="4" stroke="rgb(0,242,255)" stroke-width="2" fill="none"></circle>
<circle cx="5838.42" cy="1482.54" r="4" stroke="rgb(0,242,255)" stroke-width="2" fill="none"></circle>
<circle cx="2413.28" cy="837.448" r="4" stroke="rgb(174,0,255)" stroke-width="2" fill="none"></circle>
<circle cx="5839.66" cy="1093.98" r="4" stroke="rgb(174,0,255)" stroke-width="2" fill="none"></circle>
<circle cx="1160.1" cy="1094.13" r="4" stroke="rgb(0,59,255)" stroke-width="2" fill="none"></circle>
<circle cx="5875.51" cy="1493.04" r="4" stroke="rgb(0,59,255)" stroke-width="2" fill="none"></circle>
<circle cx="1347.41" cy="1300.58" r="4" stroke="rgb(12,255,0)" stroke-width="2" fill="none"></circle>
<circle cx="6845.49" cy="1548.1" r="4" stroke="rgb(12,255,0)" stroke-width="2" fill="none"></circle>
<circle cx="1735.76" cy="441.139" r="4" stroke="rgb(255,233,0)" stroke-width="2" fill="none"></circle>
<circle cx="5951.68" cy="1583.52" r="4" stroke="rgb(255,233,0)" stroke-width="2" fill="none"></circle>
<circle cx="1735.76" cy="441.139" r="4" stroke="rgb(51,255,0)" stroke-width="2" fill="none"></circle>
<circle cx="5951.68" cy="1583.52" r="4" stroke="rgb(51,255,0)" stroke-width="2" fill="none"></circle>
<circle cx="2091.67" cy="652.766" r="4" stroke="rgb(255,0,72)" stroke-width="2" fill="none"></circle>
<circle cx="5895.94" cy="1158.12" r="4" stroke="rgb(255,0,72)" stroke-width="2" fill="none"></circle>
<circle cx="1474.13" cy="842.906" r="4" stroke="rgb(0,8,255)" stroke-width="2" fill="none"></circle>
<circle cx="5728.32" cy="1601.89" r="4" stroke="rgb(0,8,255)" stroke-width="2" fill="none"></circle>
<circle cx="1474.13" cy="842.906" r="4" stroke="rgb(255,0,208)" stroke-width="2" fill="none"></circle>
<circle cx="5728.32" cy="1601.89" r="4" stroke="rgb(255,0,208)" stroke-width="2" fill="none"></circle>
<circle cx="1240.43" cy="438.967" r="4" stroke="rgb(46,0,255)" stroke-width="2" fill="none"></circle>
<circle cx="5769.17" cy="1631.37" r="4" stroke="rgb(46,0,255)" stroke-width="2" fill="none"></circle>
<circle cx="2049.87" cy="2021.4" r="4" stroke="rgb(255,0,229)" stroke-width="2" fill="none"></circle>
<circle cx="4938.76" cy="1182.53" r="4" stroke="rgb(255,0,229)" stroke-width="2" fill="none"></circle>
<circle cx="1760.19" cy="2124.06" r="4" stroke="rgb(237,255,0)" stroke-width="2" fill="none"></circle>
<circle cx="4869.04" cy="1188.14" r="4" stroke="rgb(237,255,0)" stroke-width="2" fill="none"></circle>
<circle cx="689.053" cy="536.983" r="4" stroke="rgb(255,0,216)" stroke-width="2" fill="none"></circle>
<circle cx="6708.02" cy="1203.12" r="4" stroke="rgb(255,0,216)" stroke-width="2" fill="none"></circle>
<circle cx="1633.49" cy="2169.36" r="4" stroke="rgb(119,255,0)" stroke-width="2" fill="none"></circle>
<circle cx="6242.34" cy="1692.13" r="4" stroke="rgb(119,255,0)" stroke-width="2" fill="none"></circle>
<circle cx="1197.82" cy="1053.61" r="4" stroke="rgb(0,140,255)" stroke-width="2" fill="none"></circle>
<circle cx="5181.63" cy="1218.68" r="4" stroke="rgb(0,140,255)" stroke-width="2" fill="none"></circle>
<circle cx="886.038" cy="891.281" r="4" stroke="rgb(255,0,101)" stroke-width="2" fill="none"></circle>
<circle cx="5271.45" cy="1714.76" r="4" stroke="rgb(255,0,101)" stroke-width="2" fill="none"></circle>
<circle cx="1604.09" cy="1053.17" r="4" stroke="rgb(191,255,0)" stroke-width="2" fill="none"></circle>
<circle cx="5888.31" cy="1728.22" r="4" stroke="rgb(191,255,0)" stroke-width="2" fill="none"></circle>
<circle cx="850.105" cy="852.953" r="4" stroke="rgb(255,51,0)" stroke-width="2" fill="none"></circle>
<circle cx="4915.06" cy="1731.85" r="4" stroke="rgb(255,51,0)" stroke-width="2" fill="none"></circle>
<circle cx="2298.92" cy="1733.22" r="4" stroke="rgb(174,0,255)" stroke-width="2" fill="none"></circle>
<circle cx="4925.25" cy="1244.25" r="4" stroke="rgb(174,0,255)" stroke-width="2" fill="none"></circle>
<circle cx="885.589" cy="591.373" r="4" stroke="rgb(255,0,191)" stroke-width="2" fill="none"></circle>
<circle cx="5387.73" cy="1263.1" r="4" stroke="rgb(255,0,191)" stroke-width="2" fill="none"></circle>
<circle cx="1636.31" cy="1706.06" r="4" stroke="rgb(0,153,255)" stroke-width="2" fill="none"></circle>
<circle cx="5884.71" cy="1820.72" r="4" stroke="rgb(0,153,255)" stroke-width="2" fill="none"></circle>
<circle cx="2176.55" cy="781.559" r="4" stroke="rgb(0,255,42)" stroke-width="2" fill="none"></circle>
<circle cx="6452.86" cy="1282.17" r="4" stroke="rgb(0,255,42)" stroke-width="2" fill="none"></circle>
<circle cx="1347.41" cy="1300.58" r="4" stroke="rgb(0,255,93)" stroke-width="2" fill="none"></circle>
<circle cx="5373.88" cy="1263.95" r="4" stroke="rgb(0,255,93)" stroke-width="2" fill="none"></circle>
<circle cx="1762.85" cy="1864.85" r="4" stroke="rgb(255,187,0)" stroke-width="2" fill="none"></circle>
<circle cx="5985.68" cy="1830.78" r="4" stroke="rgb(255,187,0)" stroke-width="2" fill="none"></circle>
<circle cx="2091.67" cy="652.766" r="4" stroke="rgb(255,0,12)" stroke-width="2" fill="none"></circle>
<circle cx="4286.85" cy="1295.04" r="4" stroke="rgb(255,0,12)" stroke-width="2" fill="none"></circle>
<circle cx="2091.67" cy="652.766" r="4" stroke="rgb(0,25,255)" stroke-width="2" fill="none"></circle>
<circle cx="4731.88" cy="1963.21" r="4" stroke="rgb(0,25,255)" stroke-width="2" fill="none"></circle>
<circle cx="1198.37" cy="1106.24" r="4" stroke="rgb(0,246,255)" stroke-width="2" fill="none"></circle>
<circle cx="6320.69" cy="1301.36" r="4" stroke="rgb(0,246,255)" stroke-width="2" fill="none"></circle>
<circle cx="2413.28" cy="837.448" r="4" stroke="rgb(0,255,195)" stroke-width="2" fill="none"></circle>
<circle cx="6804.89" cy="1305.99" r="4" stroke="rgb(0,255,195)" stroke-width="2" fill="none"></circle>
<circle cx="2091.67" cy="652.766" r="4" stroke="rgb(114,255,0)" stroke-width="2" fill="none"></circle>
<circle cx="4300.45" cy="1306.03" r="4" stroke="rgb(114,255,0)" stroke-width="2" fill="none"></circle>
<circle cx="2610.38" cy="1120.78" r="4" stroke="rgb(255,0,216)" stroke-width="2" fill="none"></circle>
<circle cx="6684.08" cy="1342.92" r="4" stroke="rgb(255,0,216)" stroke-width="2" fill="none"></circle>
<circle cx="1604.09" cy="1053.17" r="4" stroke="rgb(127,255,0)" stroke-width="2" fill="none"></circle>
<circle cx="5724.87" cy="1357.46" r="4" stroke="rgb(127,255,0)" stroke-width="2" fill="none"></circle>
<circle cx="2610.38" cy="1120.78" r="4" stroke="rgb(153,0,255)" stroke-width="2" fill="none"></circle>
<circle cx="6604" cy="1357.77" r="4" stroke="rgb(153,0,255)" stroke-width="2" fill="none"></circle>
<circle cx="2413.28" cy="837.448" r="4" stroke="rgb(72,255,0)" stroke-width="2" fill="none"></circle>
<circle cx="6035.84" cy="1368.76" r="4" stroke="rgb(72,255,0)" stroke-width="2" fill="none"></circle>
<circle cx="1204.74" cy="1056.11" r="4" stroke="rgb(0,216,255)" stroke-width="2" fill="none"></circle>
<circle cx="6620.23" cy="1456.86" r="4" stroke="rgb(0,216,255)" stroke-width="2" fill="none"></circle>
<circle cx="1197.82" cy="1053.61" r="4" stroke="rgb(110,0,255)" stroke-width="2" fill="none"></circle>
<circle cx="6619.46" cy="1464.26" r="4" stroke="rgb(110,0,255)" stroke-width="2" fill="none"></circle>
<circle cx="2009.89" cy="1259.85" r="4" stroke="rgb(0,255,161)" stroke-width="2" fill="none"></circle>
<circle cx="5770.07" cy="1468" r="4" stroke="rgb(0,255,161)" stroke-width="2" fill="none"></circle>
<circle cx="2744.77" cy="1305.69" r="4" stroke="rgb(242,0,255)" stroke-width="2" fill="none"></circle>
<circle cx="6787.39" cy="1484.12" r="4" stroke="rgb(242,0,255)" stroke-width="2" fill="none"></circle>
<circle cx="1155.98" cy="990.138" r="4" stroke="rgb(38,0,255)" stroke-width="2" fill="none"></circle>
<circle cx="4835.51" cy="1647.38" r="4" stroke="rgb(38,0,255)" stroke-width="2" fill="none"></circle>
<circle cx="886.038" cy="891.281" r="4" stroke="rgb(255,153,0)" stroke-width="2" fill="none"></circle>
<circle cx="5267.79" cy="1710.67" r="4" stroke="rgb(255,153,0)" stroke-width="2" fill="none"></circle>
<circle cx="1498.79" cy="902.48" r="4" stroke="rgb(34,0,255)" stroke-width="2" fill="none"></circle>
<circle cx="5752.79" cy="1648.9" r="4" stroke="rgb(34,0,255)" stroke-width="2" fill="none"></circle>
<circle cx="1633.97" cy="1825.06" r="4" stroke="rgb(0,255,84)" stroke-width="2" fill="none"></circle>
<circle cx="4734.31" cy="1668.15" r="4" stroke="rgb(0,255,84)" stroke-width="2" fill="none"></circle>
<circle cx="920.074" cy="310.763" r="4" stroke="rgb(0,110,255)" stroke-width="2" fill="none"></circle>
<circle cx="5150.71" cy="2201.07" r="4" stroke="rgb(0,110,255)" stroke-width="2" fill="none"></circle>
<circle cx="920.074" cy="310.763" r="4" stroke="rgb(255,0,204)" stroke-width="2" fill="none"></circle>
<circle cx="5149.02" cy="2223.31" r="4" stroke="rgb(255,0,204)" stroke-width="2" fill="none"></circle>
<circle cx="867.955" cy="468.052" r="4" stroke="rgb(127,255,0)" stroke-width="2" fill="none"></circle>
<circle cx="4971.68" cy="1724.84" r="4" stroke="rgb(127,255,0)" stroke-width="2" fill="none"></circle>
<circle cx="1765.94" cy="2144.48" r="4" stroke="rgb(0,255,246)" stroke-width="2" fill="none"></circle>
<circle cx="5095.66" cy="2358.42" r="4" stroke="rgb(0,255,246)" stroke-width="2" fill="none"></circle>
<circle cx="2205.5" cy="1883.41" r="4" stroke="rgb(255,131,0)" stroke-width="2" fill="none"></circle>
<circle cx="6817.32" cy="2209.65" r="4" stroke="rgb(255,131,0)" stroke-width="2" fill="none"></circle>
<circle cx="2049.87" cy="2021.4" r="4" stroke="rgb(246,0,255)" stroke-width="2" fill="none"></circle>
<circle cx="5171.6" cy="1218.2" r="4" stroke="rgb(246,0,255)" stroke-width="2" fill="none"></circle>
<circle cx="2176.55" cy="781.559" r="4" stroke="rgb(0,255,21)" stroke-width="2" fill="none"></circle>
<circle cx="6440.35" cy="1268.26" r="4" stroke="rgb(0,255,21)" stroke-width="2" fill="none"></circle>
<circle cx="2091.67" cy="652.766" r="4" stroke="rgb(255,187,0)" stroke-width="2" fill="none"></circle>
<circle cx="4344.59" cy="1344.25" r="4" stroke="rgb(255,187,0)" stroke-width="2" fill="none"></circle>
<circle cx="1101.37" cy="1105.15" r="4" stroke="rgb(0,89,255)" stroke-width="2" fill="none"></circle>
<circle cx="4662.05" cy="1553.06" r="4" stroke="rgb(0,89,255)" stroke-width="2" fill="none"></circle>
<circle cx="1564.36" cy="1832.21" r="4" stroke="rgb(169,255,0)" stroke-width="2" fill="none"></circle>
<circle cx="4942.63" cy="1605.98" r="4" stroke="rgb(169,255,0)" stroke-width="2" fill="none"></circle>
<circle cx="1003.53" cy="651.987" r="4" stroke="rgb(0,255,0)" stroke-width="2" fill="none"></circle>
<circle cx="4966.13" cy="1381.79" r="4" stroke="rgb(0,255,0)" stroke-width="2" fill="none"></circle>
<circle cx="963.112" cy="2348.56" r="4" stroke="rgb(0,76,255)" stroke-width="2" fill="none"></circle>
<circle cx="5458.76" cy="2775.34" r="4" stroke="rgb(0,76,255)" stroke-width="2" fill="none"></circle>
<circle cx="2278.94" cy="1843.88" r="4" stroke="rgb(0,72,255)" stroke-width="2" fill="none"></circle>
<circle cx="4305.29" cy="1270.51" r="4" stroke="rgb(0,72,255)" stroke-width="2" fill="none"></circle>
</svg>