<?xml version="1.0" standalone="yes"?>
<!-- SVG graphic -->
<svg xmlns='http://www.w3.org/2000/svg' xmlns:xlink='http://www.w3.org/1999/xlink'
width="8064px" height="3024px" preserveAspectRatio="xMinYMin meet" viewBox="0 0 8064 3024" version="1.1">
<image x="0" y="0" width="4032px" height="3024px" opacity="1" xlink:href="/home/jeong/Code/2D-to-3D-Modeling-using-AI/Make3D/Image/20200227_180611.jpg"/>
<image x="4032" y="0" width="4032px" height="3024px" opacity="1" xlink:href="/home/jeong/Code/2D-to-3D-Modeling-using-AI/Make3D/Image/20200227_180709.jpg"/>
<polyline points="2209.6,975.648,5432.27,840.171" stroke="rgb(255,76,0)" stroke-width="2" fill="none"></polyline>
<polyline points="2259,1829.19,5258.73,1421.36" stroke="rgb(255,110,0)" stroke-width="2" fill="none"></polyline>
<polyline points="2045.12,1202.53,5961.42,974.603" stroke="rgb(50,0,255)" stroke-width="2" fill="none"></polyline>
<polyline points="1823.37,864.83,5407.22,2080.46" stroke="rgb(0,255,178)" stroke-width="2" fill="none"></polyline>
<polyline points="2528.77,1704.65,5772.13,1136.44" stroke="rgb(237,255,0)" stroke-width="2" fill="none"></polyline>
<polyline points="782.274,610.166,4945.31,2158" stroke="rgb(255,238,0)" stroke-width="2" fill="none"></polyline>
<polyline points="2685.45,1213.08,5330.39,1132.43" stroke="rgb(0,199,255)" stroke-width="2" fill="none"></polyline>
<polyline points="682.118,599.797,4905.68,2245.23" stroke="rgb(255,216,0)" stroke-width="2" fill="none"></polyline>
<polyline points="746.526,794.729,5157.05,1142.16" stroke="rgb(0,255,101)" stroke-width="2" fill="none"></polyline>
<polyline points="689.264,571.768,5880.87,1174.31" stroke="rgb(225,0,255)" stroke-width="2" fill="none"></polyline>
<polyline points="689.053,536.983,5118.56,2328.35" stroke="rgb(191,255,0)" stroke-width="2" fill="none"></polyline>
<polyline points="2091.67,652.766,5950.71,2362.83" stroke="rgb(255,0,153)" stroke-width="2" fill="none"></polyline>
<polyline points="1253.54,1030.12,4739.94,2377.26" stroke="rgb(255,123,0)" stroke-width="2" fill="none"></polyline>
<polyline points="962.472,2090.28,5251.57,1342.85" stroke="rgb(157,0,255)" stroke-width="2" fill="none"></polyline>
<polyline points="2523.32,1698.57,5871.1,1208.82" stroke="rgb(255,110,0)" stroke-width="2" fill="none"></polyline>
<polyline points="2524.38,2045.84,5006.47,2437.67" stroke="rgb(255,0,25)" stroke-width="2" fill="none"></polyline>
<polyline points="2413.42,761.934,5390,1222.15" stroke="rgb(0,144,255)" stroke-width="2" fill="none"></polyline>
<polyline points="2485.08,911.704,5533.55,2355.56" stroke="rgb(0,144,255)" stroke-width="2" fill="none"></polyline>
<polyline points="1735.76,441.139,5738.42,1585.49" stroke="rgb(255,110,0)" stroke-width="2" fill="none"></polyline>
<polyline points="2240.95,1148.45,5509.98,2390.92" stroke="rgb(255,0,123)" stroke-width="2" fill="none"></polyline>
<polyline points="1080.33,2317.1,6610.15,1340.29" stroke="rgb(0,46,255)" stroke-width="2" fill="none"></polyline>
<polyline points="1348.46,1308.22,5385.07,1344.55" stroke="rgb(76,0,255)" stroke-width="2" fill="none"></polyline>
<polyline points="2571.3,1653.83,5567.63,1423.99" stroke="rgb(0,229,255)" stroke-width="2" fill="none"></polyline>
<polyline points="1212.88,851.995,5300.78,1442.29" stroke="rgb(8,255,0)" stroke-width="2" fill="none"></polyline>
<polyline points="1694.01,1706.13,6527.58,1739.99" stroke="rgb(12,0,255)" stroke-width="2" fill="none"></polyline>
<polyline points="551.858,540.591,5821.56,1767.94" stroke="rgb(255,238,0)" stroke-width="2" fill="none"></polyline>
<polyline points="2114.48,1353.66,5664.75,1875.23" stroke="rgb(59,255,0)" stroke-width="2" fill="none"></polyline>
<polyline points="778.862,618.899,4951.66,2165.1" stroke="rgb(255,72,0)" stroke-width="2" fill="none"></polyline>
<polyline points="1451.89,733.598,5775.74,2362.8" stroke="rgb(242,255,0)" stroke-width="2" fill="none"></polyline>
<polyline points="1794.25,728.088,4996.51,2312.51" stroke="rgb(170,0,255)" stroke-width="2" fill="none"></polyline>
<polyline points="2216.83,731.587,6175.48,1323.63" stroke="rgb(0,255,114)" stroke-width="2" fill="none"></polyline>
<polyline points="962.472,2090.28,5250.47,1341.6" stroke="rgb(255,0,195)" stroke-width="2" fill="none"></polyline>
<polyline points="1319.76,693.13,5306.14,1657.88" stroke="rgb(0,255,246)" stroke-width="2" fill="none"></polyline>
<polyline points="2589.41,1133.55,5112.91,1933.54" stroke="rgb(135,0,255)" stroke-width="2" fill="none"></polyline>
<polyline points="2624.88,1427.27,6317.01,2144.59" stroke="rgb(16,255,0)" stroke-width="2" fill="none"></polyline>
<polyline points="1996.74,562.283,5889.92,1471.55" stroke="rgb(8,0,255)" stroke-width="2" fill="none"></polyline>
<polyline points="2472.87,1686.7,5350.19,1554.44" stroke="rgb(255,0,136)" stroke-width="2" fill="none"></polyline>
<circle cx="2209.6" cy="975.648" r="4" stroke="rgb(255,76,0)" stroke-width="2" fill="none"></circle>
<circle cx="5432.27" cy="840.171" r="4" stroke="rgb(255,76,0)" stroke-width="2" fill="none"></circle>
<circle cx="2259" cy="1829.19" r="4" stroke="rgb(255,110,0)" stroke-width="2" fill="none"></circle>
<circle cx="5258.73" cy="1421.36" r="4" stroke="rgb(255,110,0)" stroke-width="2" fill="none"></circle>
<circle cx="2045.12" cy="1202.53" r="4" stroke="rgb(50,0,255)" stroke-width="2" fill="none"></circle>
<circle cx="5961.42" cy="974.603" r="4" stroke="rgb(50,0,255)" stroke-width="2" fill="none"></circle>
<circle cx="1823.37" cy="864.83" r="4" stroke="rgb(0,255,178)" stroke-width="2" fill="none"></circle>
<circle cx="5407.22" cy="2080.46" r="4" stroke="rgb(0,255,178)" stroke-width="2" fill="none"></circle>
<circle cx="2528.77" cy="1704.65" r="4" stroke="rgb(237,255,0)" stroke-width="2" fill="none"></circle>
<circle cx="5772.13" cy="1136.44" r="4" stroke="rgb(237,255,0)" stroke-width="2" fill="none"></circle>
<circle cx="782.274" cy="610.166" r="4" stroke="rgb(255,238,0)" stroke-width="2" fill="none"></circle>
<circle cx="4945.31" cy="2158" r="4" stroke="rgb(255,238,0)" stroke-width="2" fill="none"></circle>
<circle cx="2685.45" cy="1213.08" r="4" stroke="rgb(0,199,255)" stroke-width="2" fill="none"></circle>
<circle cx="5330.39" cy="1132.43" r="4" stroke="rgb(0,199,255)" stroke-width="2" fill="none"></circle>
<circle cx="682.118" cy="599.797" r="4" stroke="rgb(255,216,0)" stroke-width="2" fill="none"></circle>
<circle cx="4905.68" cy="2245.23" r="4" stroke="rgb(255,216,0)" stroke-width="2" fill="none"></circle>
<circle cx="746.526" cy="794.729" r="4" stroke="rgb(0,255,101)" stroke-width="2" fill="none"></circle>
<circle cx="5157.05" cy="1142.16" r="4" stroke="rgb(0,255,101)" stroke-width="2" fill="none"></circle>
<circle cx="689.264" cy="571.768" r="4" stroke="rgb(225,0,255)" stroke-width="2" fill="none"></circle>
<circle cx="5880.87" cy="1174.31" r="4" stroke="rgb(225,0,255)" stroke-width="2" fill="none"></circle>
<circle cx="689.053" cy="536.983" r="4" stroke="rgb(191,255,0)" stroke-width="2" fill="none"></circle>
<circle cx="5118.56" cy="2328.35" r="4" stroke="rgb(191,255,0)" stroke-width="2" fill="none"></circle>
<circle cx="2091.67" cy="652.766" r="4" stroke="rgb(255,0,153)" stroke-width="2" fill="none"></circle>
<circle cx="5950.71" cy="2362.83" r="4" stroke="rgb(255,0,153)" stroke-width="2" fill="none"></circle>
<circle cx="1253.54" cy="1030.12" r="4" stroke="rgb(255,123,0)" stroke-width="2" fill="none"></circle>
<circle cx="4739.94" cy="2377.26" r="4" stroke="rgb(255,123,0)" stroke-width="2" fill="none"></circle>
<circle cx="962.472" cy="2090.28" r="4" stroke="rgb(157,0,255)" stroke-width="2" fill="none"></circle>
<circle cx="5251.57" cy="1342.85" r="4" stroke="rgb(157,0,255)" stroke-width="2" fill="none"></circle>
<circle cx="2523.32" cy="1698.57" r="4" stroke="rgb(255,110,0)" stroke-width="2" fill="none"></circle>
<circle cx="5871.1" cy="1208.82" r="4" stroke="rgb(255,110,0)" stroke-width="2" fill="none"></circle>
<circle cx="2524.38" cy="2045.84" r="4" stroke="rgb(255,0,25)" stroke-width="2" fill="none"></circle>
<circle cx="5006.47" cy="2437.67" r="4" stroke="rgb(255,0,25)" stroke-width="2" fill="none"></circle>
<circle cx="2413.42" cy="761.934" r="4" stroke="rgb(0,144,255)" stroke-width="2" fill="none"></circle>
<circle cx="5390" cy="1222.15" r="4" stroke="rgb(0,144,255)" stroke-width="2" fill="none"></circle>
<circle cx="2485.08" cy="911.704" r="4" stroke="rgb(0,144,255)" stroke-width="2" fill="none"></circle>
<circle cx="5533.55" cy="2355.56" r="4" stroke="rgb(0,144,255)" stroke-width="2" fill="none"></circle>
<circle cx="1735.76" cy="441.139" r="4" stroke="rgb(255,110,0)" stroke-width="2" fill="none"></circle>
<circle cx="5738.42" cy="1585.49" r="4" stroke="rgb(255,110,0)" stroke-width="2" fill="none"></circle>
<circle cx="2240.95" cy="1148.45" r="4" stroke="rgb(255,0,123)" stroke-width="2" fill="none"></circle>
<circle cx="5509.98" cy="2390.92" r="4" stroke="rgb(255,0,123)" stroke-width="2" fill="none"></circle>
<circle cx="1080.33" cy="2317.1" r="4" stroke="rgb(0,46,255)" stroke-width="2" fill="none"></circle>
<circle cx="6610.15" cy="1340.29" r="4" stroke="rgb(0,46,255)" stroke-width="2" fill="none"></circle>
<circle cx="1348.46" cy="1308.22" r="4" stroke="rgb(76,0,255)" stroke-width="2" fill="none"></circle>
<circle cx="5385.07" cy="1344.55" r="4" stroke="rgb(76,0,255)" stroke-width="2" fill="none"></circle>
<circle cx="2571.3" cy="1653.83" r="4" stroke="rgb(0,229,255)" stroke-width="2" fill="none"></circle>
<circle cx="5567.63" cy="1423.99" r="4" stroke="rgb(0,229,255)" stroke-width="2" fill="none"></circle>
<circle cx="1212.88" cy="851.995" r="4" stroke="rgb(8,255,0)" stroke-width="2" fill="none"></circle>
<circle cx="5300.78" cy="1442.29" r="4" stroke="rgb(8,255,0)" stroke-width="2" fill="none"></circle>
<circle cx="1694.01" cy="1706.13" r="4" stroke="rgb(12,0,255)" stroke-width="2" fill="none"></circle>
<circle cx="6527.58" cy="1739.99" r="4" stroke="rgb(12,0,255)" stroke-width="2" fill="none"></circle>
<circle cx="551.858" cy="540.591" r="4" stroke="rgb(255,238,0)" stroke-width="2" fill="none"></circle>
<circle cx="5821.56" cy="1767.94" r="4" stroke="rgb(255,238,0)" stroke-width="2" fill="none"></circle>
<circle cx="2114.48" cy="1353.66" r="4" stroke="rgb(59,255,0)" stroke-width="2" fill="none"></circle>
<circle cx="5664.75" cy="1875.23" r="4" stroke="rgb(59,255,0)" stroke-width="2" fill="none"></circle>
<circle cx="778.862" cy="618.899" r="4" stroke="rgb(255,72,0)" stroke-width="2" fill="none"></circle>
<circle cx="4951.66" cy="2165.1" r="4" stroke="rgb(255,72,0)" stroke-width="2" fill="none"></circle>
<circle cx="1451.89" cy="733.598" r="4" stroke="rgb(242,255,0)" stroke-width="2" fill="none"></circle>
<circle cx="5775.74" cy="2362.8" r="4" stroke="rgb(242,255,0)" stroke-width="2" fill="none"></circle>
<circle cx="1794.25" cy="728.088" r="4" stroke="rgb(170,0,255)" stroke-width="2" fill="none"></circle>
<circle cx="4996.51" cy="2312.51" r="4" stroke="rgb(170,0,255)" stroke-width="2" fill="none"></circle>
<circle cx="2216.83" cy="731.587" r="4" stroke="rgb(0,255,114)" stroke-width="2" fill="none"></circle>
<circle cx="6175.48" cy="1323.63" r="4" stroke="rgb(0,255,114)" stroke-width="2" fill="none"></circle>
<circle cx="962.472" cy="2090.28" r="4" stroke="rgb(255,0,195)" stroke-width="2" fill="none"></circle>
<circle cx="5250.47" cy="1341.6" r="4" stroke="rgb(255,0,195)" stroke-width="2" fill="none"></circle>
<circle cx="1319.76" cy="693.13" r="4" stroke="rgb(0,255,246)" stroke-width="2" fill="none"></circle>
<circle cx="5306.14" cy="1657.88" r="4" stroke="rgb(0,255,246)" stroke-width="2" fill="none"></circle>
<circle cx="2589.41" cy="1133.55" r="4" stroke="rgb(135,0,255)" stroke-width="2" fill="none"></circle>
<circle cx="5112.91" cy="1933.54" r="4" stroke="rgb(135,0,255)" stroke-width="2" fill="none"></circle>
<circle cx="2624.88" cy="1427.27" r="4" stroke="rgb(16,255,0)" stroke-width="2" fill="none"></circle>
<circle cx="6317.01" cy="2144.59" r="4" stroke="rgb(16,255,0)" stroke-width="2" fill="none"></circle>
<circle cx="1996.74" cy="562.283" r="4" stroke="rgb(8,0,255)" stroke-width="2" fill="none"></circle>
<circle cx="5889.92" cy="1471.55" r="4" stroke="rgb(8,0,255)" stroke-width="2" fill="none"></circle>
<circle cx="2472.87" cy="1686.7" r="4" stroke="rgb(255,0,136)" stroke-width="2" fill="none"></circle>
<circle cx="5350.19" cy="1554.44" r="4" stroke="rgb(255,0,136)" stroke-width="2" fill="none"></circle>
</svg>