<?xml version="1.0" standalone="yes"?>
<!-- SVG graphic -->
<svg xmlns='http://www.w3.org/2000/svg' xmlns:xlink='http://www.w3.org/1999/xlink'
width="8064px" height="3024px" preserveAspectRatio="xMinYMin meet" viewBox="0 0 8064 3024" version="1.1">
<image x="0" y="0" width="4032px" height="3024px" opacity="1" xlink:href="/home/jeong/Code/2D-to-3D-Modeling-using-AI/Make3D/Image/20200227_180632.jpg"/>
<image x="4032" y="0" width="4032px" height="3024px" opacity="1" xlink:href="/home/jeong/Code/2D-to-3D-Modeling-using-AI/Make3D/Image/20200227_180720.jpg"/>
<polyline points="1018.04,972.221,5661.98,1137.81" stroke="rgb(199,255,0)" stroke-width="2" fill="none"></polyline>
<polyline points="2267.08,1011.47,6621.88,1503.77" stroke="rgb(255,0,101)" stroke-width="2" fill="none"></polyline>
<polyline points="2467.34,1040.95,5173.62,1292.11" stroke="rgb(0,25,255)" stroke-width="2" fill="none"></polyline>
<polyline points="1427.39,1064.54,6310.92,1134.76" stroke="rgb(255,0,93)" stroke-width="2" fill="none"></polyline>
<polyline points="1057.02,1065.14,6189.85,1362.67" stroke="rgb(114,0,255)" stroke-width="2" fill="none"></polyline>
<polyline points="2345.42,1073.13,6039.11,1532.47" stroke="rgb(118,0,255)" stroke-width="2" fill="none"></polyline>
<polyline points="1785.07,1092.36,6715.55,1481.69" stroke="rgb(165,255,0)" stroke-width="2" fill="none"></polyline>
<polyline points="1772.8,1097.78,5802.43,750.539" stroke="rgb(255,131,0)" stroke-width="2" fill="none"></polyline>
<polyline points="1713.53,1113.93,5438.86,724.621" stroke="rgb(255,59,0)" stroke-width="2" fill="none"></polyline>
<polyline points="1594.71,1123.89,5863.79,1447.97" stroke="rgb(144,0,255)" stroke-width="2" fill="none"></polyline>
<polyline points="1491.36,1213.26,5119.32,900.622" stroke="rgb(255,0,93)" stroke-width="2" fill="none"></polyline>
<polyline points="1191.27,1319.22,5562.74,1241.58" stroke="rgb(0,255,199)" stroke-width="2" fill="none"></polyline>
<polyline points="451.926,1394.68,6510.88,1569.98" stroke="rgb(0,8,255)" stroke-width="2" fill="none"></polyline>
<polyline points="2186.88,1482.83,5497.26,1234.43" stroke="rgb(0,51,255)" stroke-width="2" fill="none"></polyline>
<polyline points="2548.85,1489.55,5947.35,1279.35" stroke="rgb(0,21,255)" stroke-width="2" fill="none"></polyline>
<polyline points="2732.34,1502.95,6709.07,1231.53" stroke="rgb(0,255,123)" stroke-width="2" fill="none"></polyline>
<polyline points="2160.32,1504.3,6256.01,1064.85" stroke="rgb(34,0,255)" stroke-width="2" fill="none"></polyline>
<polyline points="1951.18,1535.29,5334.7,1100.33" stroke="rgb(0,153,255)" stroke-width="2" fill="none"></polyline>
<polyline points="2484.09,1548.81,6090.73,1458.98" stroke="rgb(0,255,84)" stroke-width="2" fill="none"></polyline>
<polyline points="894.111,1562.66,4974.07,1003.98" stroke="rgb(255,0,250)" stroke-width="2" fill="none"></polyline>
<polyline points="2684.94,1594,5967.58,1217.83" stroke="rgb(255,0,89)" stroke-width="2" fill="none"></polyline>
<polyline points="2036.1,1611.77,6418.44,1575.68" stroke="rgb(187,255,0)" stroke-width="2" fill="none"></polyline>
<polyline points="2059.61,1645.84,5907.71,1304.99" stroke="rgb(255,144,0)" stroke-width="2" fill="none"></polyline>
<polyline points="1134.81,1652.78,5940.87,1489.86" stroke="rgb(0,72,255)" stroke-width="2" fill="none"></polyline>
<polyline points="2123.18,1659.93,5361.82,648.689" stroke="rgb(0,255,67)" stroke-width="2" fill="none"></polyline>
<polyline points="816.852,1664.31,5574.15,1231.71" stroke="rgb(255,0,148)" stroke-width="2" fill="none"></polyline>
<polyline points="1995.8,1665.48,6780.75,1397.31" stroke="rgb(255,59,0)" stroke-width="2" fill="none"></polyline>
<polyline points="826.267,1665.89,5588.16,1221.71" stroke="rgb(51,255,0)" stroke-width="2" fill="none"></polyline>
<polyline points="2585.4,1680.28,6827.32,1362.2" stroke="rgb(255,89,0)" stroke-width="2" fill="none"></polyline>
<polyline points="2031.89,1680.84,6061.88,1250.54" stroke="rgb(255,0,169)" stroke-width="2" fill="none"></polyline>
<polyline points="1674.69,1690.27,5787.57,658.841" stroke="rgb(25,0,255)" stroke-width="2" fill="none"></polyline>
<polyline points="1053.61,1703.06,6028.4,1251.38" stroke="rgb(255,0,144)" stroke-width="2" fill="none"></polyline>
<polyline points="732.714,1709,5856.06,949.391" stroke="rgb(0,255,203)" stroke-width="2" fill="none"></polyline>
<polyline points="2609.32,1717.83,6354.73,1225.77" stroke="rgb(0,255,0)" stroke-width="2" fill="none"></polyline>
<polyline points="2077.27,1719.77,5736.77,1326.84" stroke="rgb(255,0,237)" stroke-width="2" fill="none"></polyline>
<polyline points="2614.9,1722.34,6339.41,476.079" stroke="rgb(191,255,0)" stroke-width="2" fill="none"></polyline>
<polyline points="747.824,1725.68,6097.24,1338.75" stroke="rgb(89,0,255)" stroke-width="2" fill="none"></polyline>
<polyline points="1247.96,1729.24,6405.66,1405.37" stroke="rgb(72,0,255)" stroke-width="2" fill="none"></polyline>
<polyline points="1705.24,1732.42,5852.33,511.054" stroke="rgb(55,255,0)" stroke-width="2" fill="none"></polyline>
<polyline points="2062.62,1732.9,6219.92,1519.2" stroke="rgb(148,0,255)" stroke-width="2" fill="none"></polyline>
<polyline points="2641.15,1737.9,5992.66,1358.37" stroke="rgb(0,255,216)" stroke-width="2" fill="none"></polyline>
<polyline points="1855.84,1737.99,5858.94,1329.17" stroke="rgb(255,0,182)" stroke-width="2" fill="none"></polyline>
<polyline points="792.47,1742.22,6020.08,1220.89" stroke="rgb(161,255,0)" stroke-width="2" fill="none"></polyline>
<polyline points="2650.52,1744.61,5294.25,925.057" stroke="rgb(174,0,255)" stroke-width="2" fill="none"></polyline>
<polyline points="2555.1,1753.29,6288.16,1303.8" stroke="rgb(0,233,255)" stroke-width="2" fill="none"></polyline>
<polyline points="301.951,1759.02,6646.69,921.746" stroke="rgb(0,212,255)" stroke-width="2" fill="none"></polyline>
<polyline points="2019.37,1770.52,6032.59,1421.6" stroke="rgb(212,255,0)" stroke-width="2" fill="none"></polyline>
<polyline points="1870.59,1771.66,6622.01,1305.76" stroke="rgb(255,0,233)" stroke-width="2" fill="none"></polyline>
<polyline points="842.048,1801.74,5727.91,1016.21" stroke="rgb(255,144,0)" stroke-width="2" fill="none"></polyline>
<polyline points="783.492,1825.75,5734.1,653.079" stroke="rgb(161,255,0)" stroke-width="2" fill="none"></polyline>
<polyline points="787.449,1835.68,5828.11,1414.11" stroke="rgb(29,0,255)" stroke-width="2" fill="none"></polyline>
<polyline points="1890.02,1854.82,5996.58,1429.64" stroke="rgb(21,0,255)" stroke-width="2" fill="none"></polyline>
<polyline points="2724.66,1877.01,6084.71,1258.24" stroke="rgb(255,131,0)" stroke-width="2" fill="none"></polyline>
<polyline points="2701.79,1913.39,6484.49,1431.47" stroke="rgb(0,255,140)" stroke-width="2" fill="none"></polyline>
<polyline points="2708.21,1913.63,6767.7,744.204" stroke="rgb(255,0,80)" stroke-width="2" fill="none"></polyline>
<polyline points="2087.58,1923.22,6359.93,564.116" stroke="rgb(0,255,199)" stroke-width="2" fill="none"></polyline>
<polyline points="2698.8,1924,6280.96,748.99" stroke="rgb(4,255,0)" stroke-width="2" fill="none"></polyline>
<polyline points="1886.76,1953.39,6038.84,1309.01" stroke="rgb(255,0,21)" stroke-width="2" fill="none"></polyline>
<polyline points="1774.36,1992.66,6661.97,1489.69" stroke="rgb(0,255,114)" stroke-width="2" fill="none"></polyline>
<polyline points="1877.48,2028.95,5718.98,1173.05" stroke="rgb(255,51,0)" stroke-width="2" fill="none"></polyline>
<polyline points="1154.26,2037.17,5849.84,730.256" stroke="rgb(0,225,255)" stroke-width="2" fill="none"></polyline>
<polyline points="1390.9,2051.67,5583.22,760.701" stroke="rgb(255,140,0)" stroke-width="2" fill="none"></polyline>
<polyline points="1218.63,2058.5,5918.71,689.261" stroke="rgb(0,127,255)" stroke-width="2" fill="none"></polyline>
<polyline points="1234.72,2063.72,5585.9,652.825" stroke="rgb(255,0,21)" stroke-width="2" fill="none"></polyline>
<polyline points="1851.23,2064.27,6590.95,1286.32" stroke="rgb(255,110,0)" stroke-width="2" fill="none"></polyline>
<polyline points="1203.92,2068.93,5648.16,767.174" stroke="rgb(255,110,0)" stroke-width="2" fill="none"></polyline>
<polyline points="333.092,2069.41,5975.89,752.302" stroke="rgb(208,255,0)" stroke-width="2" fill="none"></polyline>
<polyline points="1857.88,2079.41,6220.93,1536.86" stroke="rgb(199,0,255)" stroke-width="2" fill="none"></polyline>
<polyline points="1200.98,2080.25,5644.96,776.093" stroke="rgb(182,0,255)" stroke-width="2" fill="none"></polyline>
<polyline points="1113.13,2097.42,5670.06,766.753" stroke="rgb(255,212,0)" stroke-width="2" fill="none"></polyline>
<polyline points="1094.01,2101.67,5688.73,770.405" stroke="rgb(195,255,0)" stroke-width="2" fill="none"></polyline>
<polyline points="2141.63,2112.28,5067.65,1181.06" stroke="rgb(255,0,140)" stroke-width="2" fill="none"></polyline>
<polyline points="1095.26,2112.56,6118.01,1519.96" stroke="rgb(0,4,255)" stroke-width="2" fill="none"></polyline>
<polyline points="1156.29,2113.2,6627.82,1371.52" stroke="rgb(255,119,0)" stroke-width="2" fill="none"></polyline>
<polyline points="1130.06,2140.8,5670.69,735.422" stroke="rgb(34,0,255)" stroke-width="2" fill="none"></polyline>
<polyline points="1056.03,2144.3,5627.83,775.086" stroke="rgb(238,0,255)" stroke-width="2" fill="none"></polyline>
<polyline points="1242.92,2157.82,5647.21,679.137" stroke="rgb(0,93,255)" stroke-width="2" fill="none"></polyline>
<polyline points="1278.19,2167.8,5951.28,661.764" stroke="rgb(0,208,255)" stroke-width="2" fill="none"></polyline>
<polyline points="1244.1,2172.38,5655.75,670.718" stroke="rgb(4,0,255)" stroke-width="2" fill="none"></polyline>
<polyline points="1269.15,2180.66,5742.26,1444.13" stroke="rgb(0,255,16)" stroke-width="2" fill="none"></polyline>
<polyline points="1249,2182.8,5348.6,689.67" stroke="rgb(140,0,255)" stroke-width="2" fill="none"></polyline>
<polyline points="1027.92,2201.08,5620.57,771.212" stroke="rgb(255,0,0)" stroke-width="2" fill="none"></polyline>
<polyline points="1125.89,2211.15,5863.11,649.034" stroke="rgb(8,0,255)" stroke-width="2" fill="none"></polyline>
<polyline points="1184.82,2213.64,6410.51,1570.61" stroke="rgb(255,0,237)" stroke-width="2" fill="none"></polyline>
<polyline points="1968.56,2219.25,5857.34,1523.21" stroke="rgb(0,255,144)" stroke-width="2" fill="none"></polyline>
<polyline points="478.428,2236.12,6788.05,1222.15" stroke="rgb(0,72,255)" stroke-width="2" fill="none"></polyline>
<polyline points="1190.14,2250.84,5794.46,719.252" stroke="rgb(255,0,72)" stroke-width="2" fill="none"></polyline>
<polyline points="1196.16,2256.26,5298.74,677.427" stroke="rgb(0,255,106)" stroke-width="2" fill="none"></polyline>
<polyline points="1722.37,2422.08,6355,535.146" stroke="rgb(0,93,255)" stroke-width="2" fill="none"></polyline>
<polyline points="1686.32,2429.84,5274.25,1351.18" stroke="rgb(255,8,0)" stroke-width="2" fill="none"></polyline>
<polyline points="1005.88,2460.3,6450.44,542.082" stroke="rgb(0,255,157)" stroke-width="2" fill="none"></polyline>
<polyline points="1200.65,2461.14,5676.6,1233.05" stroke="rgb(157,0,255)" stroke-width="2" fill="none"></polyline>
<polyline points="938.449,2468.74,6083.39,648.827" stroke="rgb(118,0,255)" stroke-width="2" fill="none"></polyline>
<polyline points="1473.43,2492.15,5945.58,837.568" stroke="rgb(0,4,255)" stroke-width="2" fill="none"></polyline>
<polyline points="1449.53,2492.92,6796,1372.87" stroke="rgb(135,0,255)" stroke-width="2" fill="none"></polyline>
<polyline points="1082.76,2494.64,6715.96,1221.6" stroke="rgb(229,0,255)" stroke-width="2" fill="none"></polyline>
<polyline points="1680.01,2497.4,6870.26,862.777" stroke="rgb(106,0,255)" stroke-width="2" fill="none"></polyline>
<circle cx="1018.04" cy="972.221" r="4" stroke="rgb(199,255,0)" stroke-width="2" fill="none"></circle>
<circle cx="5661.98" cy="1137.81" r="4" stroke="rgb(199,255,0)" stroke-width="2" fill="none"></circle>
<circle cx="2267.08" cy="1011.47" r="4" stroke="rgb(255,0,101)" stroke-width="2" fill="none"></circle>
<circle cx="6621.88" cy="1503.77" r="4" stroke="rgb(255,0,101)" stroke-width="2" fill="none"></circle>
<circle cx="2467.34" cy="1040.95" r="4" stroke="rgb(0,25,255)" stroke-width="2" fill="none"></circle>
<circle cx="5173.62" cy="1292.11" r="4" stroke="rgb(0,25,255)" stroke-width="2" fill="none"></circle>
<circle cx="1427.39" cy="1064.54" r="4" stroke="rgb(255,0,93)" stroke-width="2" fill="none"></circle>
<circle cx="6310.92" cy="1134.76" r="4" stroke="rgb(255,0,93)" stroke-width="2" fill="none"></circle>
<circle cx="1057.02" cy="1065.14" r="4" stroke="rgb(114,0,255)" stroke-width="2" fill="none"></circle>
<circle cx="6189.85" cy="1362.67" r="4" stroke="rgb(114,0,255)" stroke-width="2" fill="none"></circle>
<circle cx="2345.42" cy="1073.13" r="4" stroke="rgb(118,0,255)" stroke-width="2" fill="none"></circle>
<circle cx="6039.11" cy="1532.47" r="4" stroke="rgb(118,0,255)" stroke-width="2" fill="none"></circle>
<circle cx="1785.07" cy="1092.36" r="4" stroke="rgb(165,255,0)" stroke-width="2" fill="none"></circle>
<circle cx="6715.55" cy="1481.69" r="4" stroke="rgb(165,255,0)" stroke-width="2" fill="none"></circle>
<circle cx="1772.8" cy="1097.78" r="4" stroke="rgb(255,131,0)" stroke-width="2" fill="none"></circle>
<circle cx="5802.43" cy="750.539" r="4" stroke="rgb(255,131,0)" stroke-width="2" fill="none"></circle>
<circle cx="1713.53" cy="1113.93" r="4" stroke="rgb(255,59,0)" stroke-width="2" fill="none"></circle>
<circle cx="5438.86" cy="724.621" r="4" stroke="rgb(255,59,0)" stroke-width="2" fill="none"></circle>
<circle cx="1594.71" cy="1123.89" r="4" stroke="rgb(144,0,255)" stroke-width="2" fill="none"></circle>
<circle cx="5863.79" cy="1447.97" r="4" stroke="rgb(144,0,255)" stroke-width="2" fill="none"></circle>
<circle cx="1491.36" cy="1213.26" r="4" stroke="rgb(255,0,93)" stroke-width="2" fill="none"></circle>
<circle cx="5119.32" cy="900.622" r="4" stroke="rgb(255,0,93)" stroke-width="2" fill="none"></circle>
<circle cx="1191.27" cy="1319.22" r="4" stroke="rgb(0,255,199)" stroke-width="2" fill="none"></circle>
<circle cx="5562.74" cy="1241.58" r="4" stroke="rgb(0,255,199)" stroke-width="2" fill="none"></circle>
<circle cx="451.926" cy="1394.68" r="4" stroke="rgb(0,8,255)" stroke-width="2" fill="none"></circle>
<circle cx="6510.88" cy="1569.98" r="4" stroke="rgb(0,8,255)" stroke-width="2" fill="none"></circle>
<circle cx="2186.88" cy="1482.83" r="4" stroke="rgb(0,51,255)" stroke-width="2" fill="none"></circle>
<circle cx="5497.26" cy="1234.43" r="4" stroke="rgb(0,51,255)" stroke-width="2" fill="none"></circle>
<circle cx="2548.85" cy="1489.55" r="4" stroke="rgb(0,21,255)" stroke-width="2" fill="none"></circle>
<circle cx="5947.35" cy="1279.35" r="4" stroke="rgb(0,21,255)" stroke-width="2" fill="none"></circle>
<circle cx="2732.34" cy="1502.95" r="4" stroke="rgb(0,255,123)" stroke-width="2" fill="none"></circle>
<circle cx="6709.07" cy="1231.53" r="4" stroke="rgb(0,255,123)" stroke-width="2" fill="none"></circle>
<circle cx="2160.32" cy="1504.3" r="4" stroke="rgb(34,0,255)" stroke-width="2" fill="none"></circle>
<circle cx="6256.01" cy="1064.85" r="4" stroke="rgb(34,0,255)" stroke-width="2" fill="none"></circle>
<circle cx="1951.18" cy="1535.29" r="4" stroke="rgb(0,153,255)" stroke-width="2" fill="none"></circle>
<circle cx="5334.7" cy="1100.33" r="4" stroke="rgb(0,153,255)" stroke-width="2" fill="none"></circle>
<circle cx="2484.09" cy="1548.81" r="4" stroke="rgb(0,255,84)" stroke-width="2" fill="none"></circle>
<circle cx="6090.73" cy="1458.98" r="4" stroke="rgb(0,255,84)" stroke-width="2" fill="none"></circle>
<circle cx="894.111" cy="1562.66" r="4" stroke="rgb(255,0,250)" stroke-width="2" fill="none"></circle>
<circle cx="4974.07" cy="1003.98" r="4" stroke="rgb(255,0,250)" stroke-width="2" fill="none"></circle>
<circle cx="2684.94" cy="1594" r="4" stroke="rgb(255,0,89)" stroke-width="2" fill="none"></circle>
<circle cx="5967.58" cy="1217.83" r="4" stroke="rgb(255,0,89)" stroke-width="2" fill="none"></circle>
<circle cx="2036.1" cy="1611.77" r="4" stroke="rgb(187,255,0)" stroke-width="2" fill="none"></circle>
<circle cx="6418.44" cy="1575.68" r="4" stroke="rgb(187,255,0)" stroke-width="2" fill="none"></circle>
<circle cx="2059.61" cy="1645.84" r="4" stroke="rgb(255,144,0)" stroke-width="2" fill="none"></circle>
<circle cx="5907.71" cy="1304.99" r="4" stroke="rgb(255,144,0)" stroke-width="2" fill="none"></circle>
<circle cx="1134.81" cy="1652.78" r="4" stroke="rgb(0,72,255)" stroke-width="2" fill="none"></circle>
<circle cx="5940.87" cy="1489.86" r="4" stroke="rgb(0,72,255)" stroke-width="2" fill="none"></circle>
<circle cx="2123.18" cy="1659.93" r="4" stroke="rgb(0,255,67)" stroke-width="2" fill="none"></circle>
<circle cx="5361.82" cy="648.689" r="4" stroke="rgb(0,255,67)" stroke-width="2" fill="none"></circle>
<circle cx="816.852" cy="1664.31" r="4" stroke="rgb(255,0,148)" stroke-width="2" fill="none"></circle>
<circle cx="5574.15" cy="1231.71" r="4" stroke="rgb(255,0,148)" stroke-width="2" fill="none"></circle>
<circle cx="1995.8" cy="1665.48" r="4" stroke="rgb(255,59,0)" stroke-width="2" fill="none"></circle>
<circle cx="6780.75" cy="1397.31" r="4" stroke="rgb(255,59,0)" stroke-width="2" fill="none"></circle>
<circle cx="826.267" cy="1665.89" r="4" stroke="rgb(51,255,0)" stroke-width="2" fill="none"></circle>
<circle cx="5588.16" cy="1221.71" r="4" stroke="rgb(51,255,0)" stroke-width="2" fill="none"></circle>
<circle cx="2585.4" cy="1680.28" r="4" stroke="rgb(255,89,0)" stroke-width="2" fill="none"></circle>
<circle cx="6827.32" cy="1362.2" r="4" stroke="rgb(255,89,0)" stroke-width="2" fill="none"></circle>
<circle cx="2031.89" cy="1680.84" r="4" stroke="rgb(255,0,169)" stroke-width="2" fill="none"></circle>
<circle cx="6061.88" cy="1250.54" r="4" stroke="rgb(255,0,169)" stroke-width="2" fill="none"></circle>
<circle cx="1674.69" cy="1690.27" r="4" stroke="rgb(25,0,255)" stroke-width="2" fill="none"></circle>
<circle cx="5787.57" cy="658.841" r="4" stroke="rgb(25,0,255)" stroke-width="2" fill="none"></circle>
<circle cx="1053.61" cy="1703.06" r="4" stroke="rgb(255,0,144)" stroke-width="2" fill="none"></circle>
<circle cx="6028.4" cy="1251.38" r="4" stroke="rgb(255,0,144)" stroke-width="2" fill="none"></circle>
<circle cx="732.714" cy="1709" r="4" stroke="rgb(0,255,203)" stroke-width="2" fill="none"></circle>
<circle cx="5856.06" cy="949.391" r="4" stroke="rgb(0,255,203)" stroke-width="2" fill="none"></circle>
<circle cx="2609.32" cy="1717.83" r="4" stroke="rgb(0,255,0)" stroke-width="2" fill="none"></circle>
<circle cx="6354.73" cy="1225.77" r="4" stroke="rgb(0,255,0)" stroke-width="2" fill="none"></circle>
<circle cx="2077.27" cy="1719.77" r="4" stroke="rgb(255,0,237)" stroke-width="2" fill="none"></circle>
<circle cx="5736.77" cy="1326.84" r="4" stroke="rgb(255,0,237)" stroke-width="2" fill="none"></circle>
<circle cx="2614.9" cy="1722.34" r="4" stroke="rgb(191,255,0)" stroke-width="2" fill="none"></circle>
<circle cx="6339.41" cy="476.079" r="4" stroke="rgb(191,255,0)" stroke-width="2" fill="none"></circle>
<circle cx="747.824" cy="1725.68" r="4" stroke="rgb(89,0,255)" stroke-width="2" fill="none"></circle>
<circle cx="6097.24" cy="1338.75" r="4" stroke="rgb(89,0,255)" stroke-width="2" fill="none"></circle>
<circle cx="1247.96" cy="1729.24" r="4" stroke="rgb(72,0,255)" stroke-width="2" fill="none"></circle>
<circle cx="6405.66" cy="1405.37" r="4" stroke="rgb(72,0,255)" stroke-width="2" fill="none"></circle>
<circle cx="1705.24" cy="1732.42" r="4" stroke="rgb(55,255,0)" stroke-width="2" fill="none"></circle>
<circle cx="5852.33" cy="511.054" r="4" stroke="rgb(55,255,0)" stroke-width="2" fill="none"></circle>
<circle cx="2062.62" cy="1732.9" r="4" stroke="rgb(148,0,255)" stroke-width="2" fill="none"></circle>
<circle cx="6219.92" cy="1519.2" r="4" stroke="rgb(148,0,255)" stroke-width="2" fill="none"></circle>
<circle cx="2641.15" cy="1737.9" r="4" stroke="rgb(0,255,216)" stroke-width="2" fill="none"></circle>
<circle cx="5992.66" cy="1358.37" r="4" stroke="rgb(0,255,216)" stroke-width="2" fill="none"></circle>
<circle cx="1855.84" cy="1737.99" r="4" stroke="rgb(255,0,182)" stroke-width="2" fill="none"></circle>
<circle cx="5858.94" cy="1329.17" r="4" stroke="rgb(255,0,182)" stroke-width="2" fill="none"></circle>
<circle cx="792.47" cy="1742.22" r="4" stroke="rgb(161,255,0)" stroke-width="2" fill="none"></circle>
<circle cx="6020.08" cy="1220.89" r="4" stroke="rgb(161,255,0)" stroke-width="2" fill="none"></circle>
<circle cx="2650.52" cy="1744.61" r="4" stroke="rgb(174,0,255)" stroke-width="2" fill="none"></circle>
<circle cx="5294.25" cy="925.057" r="4" stroke="rgb(174,0,255)" stroke-width="2" fill="none"></circle>
<circle cx="2555.1" cy="1753.29" r="4" stroke="rgb(0,233,255)" stroke-width="2" fill="none"></circle>
<circle cx="6288.16" cy="1303.8" r="4" stroke="rgb(0,233,255)" stroke-width="2" fill="none"></circle>
<circle cx="301.951" cy="1759.02" r="4" stroke="rgb(0,212,255)" stroke-width="2" fill="none"></circle>
<circle cx="6646.69" cy="921.746" r="4" stroke="rgb(0,212,255)" stroke-width="2" fill="none"></circle>
<circle cx="2019.37" cy="1770.52" r="4" stroke="rgb(212,255,0)" stroke-width="2" fill="none"></circle>
<circle cx="6032.59" cy="1421.6" r="4" stroke="rgb(212,255,0)" stroke-width="2" fill="none"></circle>
<circle cx="1870.59" cy="1771.66" r="4" stroke="rgb(255,0,233)" stroke-width="2" fill="none"></circle>
<circle cx="6622.01" cy="1305.76" r="4" stroke="rgb(255,0,233)" stroke-width="2" fill="none"></circle>
<circle cx="842.048" cy="1801.74" r="4" stroke="rgb(255,144,0)" stroke-width="2" fill="none"></circle>
<circle cx="5727.91" cy="1016.21" r="4" stroke="rgb(255,144,0)" stroke-width="2" fill="none"></circle>
<circle cx="783.492" cy="1825.75" r="4" stroke="rgb(161,255,0)" stroke-width="2" fill="none"></circle>
<circle cx="5734.1" cy="653.079" r="4" stroke="rgb(161,255,0)" stroke-width="2" fill="none"></circle>
<circle cx="787.449" cy="1835.68" r="4" stroke="rgb(29,0,255)" stroke-width="2" fill="none"></circle>
<circle cx="5828.11" cy="1414.11" r="4" stroke="rgb(29,0,255)" stroke-width="2" fill="none"></circle>
<circle cx="1890.02" cy="1854.82" r="4" stroke="rgb(21,0,255)" stroke-width="2" fill="none"></circle>
<circle cx="5996.58" cy="1429.64" r="4" stroke="rgb(21,0,255)" stroke-width="2" fill="none"></circle>
<circle cx="2724.66" cy="1877.01" r="4" stroke="rgb(255,131,0)" stroke-width="2" fill="none"></circle>
<circle cx="6084.71" cy="1258.24" r="4" stroke="rgb(255,131,0)" stroke-width="2" fill="none"></circle>
<circle cx="2701.79" cy="1913.39" r="4" stroke="rgb(0,255,140)" stroke-width="2" fill="none"></circle>
<circle cx="6484.49" cy="1431.47" r="4" stroke="rgb(0,255,140)" stroke-width="2" fill="none"></circle>
<circle cx="2708.21" cy="1913.63" r="4" stroke="rgb(255,0,80)" stroke-width="2" fill="none"></circle>
<circle cx="6767.7" cy="744.204" r="4" stroke="rgb(255,0,80)" stroke-width="2" fill="none"></circle>
<circle cx="2087.58" cy="1923.22" r="4" stroke="rgb(0,255,199)" stroke-width="2" fill="none"></circle>
<circle cx="6359.93" cy="564.116" r="4" stroke="rgb(0,255,199)" stroke-width="2" fill="none"></circle>
<circle cx="2698.8" cy="1924" r="4" stroke="rgb(4,255,0)" stroke-width="2" fill="none"></circle>
<circle cx="6280.96" cy="748.99" r="4" stroke="rgb(4,255,0)" stroke-width="2" fill="none"></circle>
<circle cx="1886.76" cy="1953.39" r="4" stroke="rgb(255,0,21)" stroke-width="2" fill="none"></circle>
<circle cx="6038.84" cy="1309.01" r="4" stroke="rgb(255,0,21)" stroke-width="2" fill="none"></circle>
<circle cx="1774.36" cy="1992.66" r="4" stroke="rgb(0,255,114)" stroke-width="2" fill="none"></circle>
<circle cx="6661.97" cy="1489.69" r="4" stroke="rgb(0,255,114)" stroke-width="2" fill="none"></circle>
<circle cx="1877.48" cy="2028.95" r="4" stroke="rgb(255,51,0)" stroke-width="2" fill="none"></circle>
<circle cx="5718.98" cy="1173.05" r="4" stroke="rgb(255,51,0)" stroke-width="2" fill="none"></circle>
<circle cx="1154.26" cy="2037.17" r="4" stroke="rgb(0,225,255)" stroke-width="2" fill="none"></circle>
<circle cx="5849.84" cy="730.256" r="4" stroke="rgb(0,225,255)" stroke-width="2" fill="none"></circle>
<circle cx="1390.9" cy="2051.67" r="4" stroke="rgb(255,140,0)" stroke-width="2" fill="none"></circle>
<circle cx="5583.22" cy="760.701" r="4" stroke="rgb(255,140,0)" stroke-width="2" fill="none"></circle>
<circle cx="1218.63" cy="2058.5" r="4" stroke="rgb(0,127,255)" stroke-width="2" fill="none"></circle>
<circle cx="5918.71" cy="689.261" r="4" stroke="rgb(0,127,255)" stroke-width="2" fill="none"></circle>
<circle cx="1234.72" cy="2063.72" r="4" stroke="rgb(255,0,21)" stroke-width="2" fill="none"></circle>
<circle cx="5585.9" cy="652.825" r="4" stroke="rgb(255,0,21)" stroke-width="2" fill="none"></circle>
<circle cx="1851.23" cy="2064.27" r="4" stroke="rgb(255,110,0)" stroke-width="2" fill="none"></circle>
<circle cx="6590.95" cy="1286.32" r="4" stroke="rgb(255,110,0)" stroke-width="2" fill="none"></circle>
<circle cx="1203.92" cy="2068.93" r="4" stroke="rgb(255,110,0)" stroke-width="2" fill="none"></circle>
<circle cx="5648.16" cy="767.174" r="4" stroke="rgb(255,110,0)" stroke-width="2" fill="none"></circle>
<circle cx="333.092" cy="2069.41" r="4" stroke="rgb(208,255,0)" stroke-width="2" fill="none"></circle>
<circle cx="5975.89" cy="752.302" r="4" stroke="rgb(208,255,0)" stroke-width="2" fill="none"></circle>
<circle cx="1857.88" cy="2079.41" r="4" stroke="rgb(199,0,255)" stroke-width="2" fill="none"></circle>
<circle cx="6220.93" cy="1536.86" r="4" stroke="rgb(199,0,255)" stroke-width="2" fill="none"></circle>
<circle cx="1200.98" cy="2080.25" r="4" stroke="rgb(182,0,255)" stroke-width="2" fill="none"></circle>
<circle cx="5644.96" cy="776.093" r="4" stroke="rgb(182,0,255)" stroke-width="2" fill="none"></circle>
<circle cx="1113.13" cy="2097.42" r="4" stroke="rgb(255,212,0)" stroke-width="2" fill="none"></circle>
<circle cx="5670.06" cy="766.753" r="4" stroke="rgb(255,212,0)" stroke-width="2" fill="none"></circle>
<circle cx="1094.01" cy="2101.67" r="4" stroke="rgb(195,255,0)" stroke-width="2" fill="none"></circle>
<circle cx="5688.73" cy="770.405" r="4" stroke="rgb(195,255,0)" stroke-width="2" fill="none"></circle>
<circle cx="2141.63" cy="2112.28" r="4" stroke="rgb(255,0,140)" stroke-width="2" fill="none"></circle>
<circle cx="5067.65" cy="1181.06" r="4" stroke="rgb(255,0,140)" stroke-width="2" fill="none"></circle>
<circle cx="1095.26" cy="2112.56" r="4" stroke="rgb(0,4,255)" stroke-width="2" fill="none"></circle>
<circle cx="6118.01" cy="1519.96" r="4" stroke="rgb(0,4,255)" stroke-width="2" fill="none"></circle>
<circle cx="1156.29" cy="2113.2" r="4" stroke="rgb(255,119,0)" stroke-width="2" fill="none"></circle>
<circle cx="6627.82" cy="1371.52" r="4" stroke="rgb(255,119,0)" stroke-width="2" fill="none"></circle>
<circle cx="1130.06" cy="2140.8" r="4" stroke="rgb(34,0,255)" stroke-width="2" fill="none"></circle>
<circle cx="5670.69" cy="735.422" r="4" stroke="rgb(34,0,255)" stroke-width="2" fill="none"></circle>
<circle cx="1056.03" cy="2144.3" r="4" stroke="rgb(238,0,255)" stroke-width="2" fill="none"></circle>
<circle cx="5627.83" cy="775.086" r="4" stroke="rgb(238,0,255)" stroke-width="2" fill="none"></circle>
<circle cx="1242.92" cy="2157.82" r="4" stroke="rgb(0,93,255)" stroke-width="2" fill="none"></circle>
<circle cx="5647.21" cy="679.137" r="4" stroke="rgb(0,93,255)" stroke-width="2" fill="none"></circle>
<circle cx="1278.19" cy="2167.8" r="4" stroke="rgb(0,208,255)" stroke-width="2" fill="none"></circle>
<circle cx="5951.28" cy="661.764" r="4" stroke="rgb(0,208,255)" stroke-width="2" fill="none"></circle>
<circle cx="1244.1" cy="2172.38" r="4" stroke="rgb(4,0,255)" stroke-width="2" fill="none"></circle>
<circle cx="5655.75" cy="670.718" r="4" stroke="rgb(4,0,255)" stroke-width="2" fill="none"></circle>
<circle cx="1269.15" cy="2180.66" r="4" stroke="rgb(0,255,16)" stroke-width="2" fill="none"></circle>
<circle cx="5742.26" cy="1444.13" r="4" stroke="rgb(0,255,16)" stroke-width="2" fill="none"></circle>
<circle cx="1249" cy="2182.8" r="4" stroke="rgb(140,0,255)" stroke-width="2" fill="none"></circle>
<circle cx="5348.6" cy="689.67" r="4" stroke="rgb(140,0,255)" stroke-width="2" fill="none"></circle>
<circle cx="1027.92" cy="2201.08" r="4" stroke="rgb(255,0,0)" stroke-width="2" fill="none"></circle>
<circle cx="5620.57" cy="771.212" r="4" stroke="rgb(255,0,0)" stroke-width="2" fill="none"></circle>
<circle cx="1125.89" cy="2211.15" r="4" stroke="rgb(8,0,255)" stroke-width="2" fill="none"></circle>
<circle cx="5863.11" cy="649.034" r="4" stroke="rgb(8,0,255)" stroke-width="2" fill="none"></circle>
<circle cx="1184.82" cy="2213.64" r="4" stroke="rgb(255,0,237)" stroke-width="2" fill="none"></circle>
<circle cx="6410.51" cy="1570.61" r="4" stroke="rgb(255,0,237)" stroke-width="2" fill="none"></circle>
<circle cx="1968.56" cy="2219.25" r="4" stroke="rgb(0,255,144)" stroke-width="2" fill="none"></circle>
<circle cx="5857.34" cy="1523.21" r="4" stroke="rgb(0,255,144)" stroke-width="2" fill="none"></circle>
<circle cx="478.428" cy="2236.12" r="4" stroke="rgb(0,72,255)" stroke-width="2" fill="none"></circle>
<circle cx="6788.05" cy="1222.15" r="4" stroke="rgb(0,72,255)" stroke-width="2" fill="none"></circle>
<circle cx="1190.14" cy="2250.84" r="4" stroke="rgb(255,0,72)" stroke-width="2" fill="none"></circle>
<circle cx="5794.46" cy="719.252" r="4" stroke="rgb(255,0,72)" stroke-width="2" fill="none"></circle>
<circle cx="1196.16" cy="2256.26" r="4" stroke="rgb(0,255,106)" stroke-width="2" fill="none"></circle>
<circle cx="5298.74" cy="677.427" r="4" stroke="rgb(0,255,106)" stroke-width="2" fill="none"></circle>
<circle cx="1722.37" cy="2422.08" r="4" stroke="rgb(0,93,255)" stroke-width="2" fill="none"></circle>
<circle cx="6355" cy="535.146" r="4" stroke="rgb(0,93,255)" stroke-width="2" fill="none"></circle>
<circle cx="1686.32" cy="2429.84" r="4" stroke="rgb(255,8,0)" stroke-width="2" fill="none"></circle>
<circle cx="5274.25" cy="1351.18" r="4" stroke="rgb(255,8,0)" stroke-width="2" fill="none"></circle>
<circle cx="1005.88" cy="2460.3" r="4" stroke="rgb(0,255,157)" stroke-width="2" fill="none"></circle>
<circle cx="6450.44" cy="542.082" r="4" stroke="rgb(0,255,157)" stroke-width="2" fill="none"></circle>
<circle cx="1200.65" cy="2461.14" r="4" stroke="rgb(157,0,255)" stroke-width="2" fill="none"></circle>
<circle cx="5676.6" cy="1233.05" r="4" stroke="rgb(157,0,255)" stroke-width="2" fill="none"></circle>
<circle cx="938.449" cy="2468.74" r="4" stroke="rgb(118,0,255)" stroke-width="2" fill="none"></circle>
<circle cx="6083.39" cy="648.827" r="4" stroke="rgb(118,0,255)" stroke-width="2" fill="none"></circle>
<circle cx="1473.43" cy="2492.15" r="4" stroke="rgb(0,4,255)" stroke-width="2" fill="none"></circle>
<circle cx="5945.58" cy="837.568" r="4" stroke="rgb(0,4,255)" stroke-width="2" fill="none"></circle>
<circle cx="1449.53" cy="2492.92" r="4" stroke="rgb(135,0,255)" stroke-width="2" fill="none"></circle>
<circle cx="6796" cy="1372.87" r="4" stroke="rgb(135,0,255)" stroke-width="2" fill="none"></circle>
<circle cx="1082.76" cy="2494.64" r="4" stroke="rgb(229,0,255)" stroke-width="2" fill="none"></circle>
<circle cx="6715.96" cy="1221.6" r="4" stroke="rgb(229,0,255)" stroke-width="2" fill="none"></circle>
<circle cx="1680.01" cy="2497.4" r="4" stroke="rgb(106,0,255)" stroke-width="2" fill="none"></circle>
<circle cx="6870.26" cy="862.777" r="4" stroke="rgb(106,0,255)" stroke-width="2" fill="none"></circle>
</svg>