<?xml version="1.0" standalone="yes"?>
<!-- SVG graphic -->
<svg xmlns='http://www.w3.org/2000/svg' xmlns:xlink='http://www.w3.org/1999/xlink'
width="8064px" height="3024px" preserveAspectRatio="xMinYMin meet" viewBox="0 0 8064 3024" version="1.1">
<image x="0" y="0" width="4032px" height="3024px" opacity="1" xlink:href="/home/jeong/Code/2D-to-3D-Modeling-using-AI/Make3D/Image/20200227_180632.jpg"/>
<image x="4032" y="0" width="4032px" height="3024px" opacity="1" xlink:href="/home/jeong/Code/2D-to-3D-Modeling-using-AI/Make3D/Image/20200227_180721.jpg"/>
<polyline points="1084.36,946.69,5841.72,631.394" stroke="rgb(0,4,255)" stroke-width="2" fill="none"></polyline>
<polyline points="1018.04,972.221,6798.1,1153.15" stroke="rgb(0,182,255)" stroke-width="2" fill="none"></polyline>
<polyline points="2399.25,974.476,6678.93,541.216" stroke="rgb(199,255,0)" stroke-width="2" fill="none"></polyline>
<polyline points="2327.43,996.655,5917.83,1346.98" stroke="rgb(255,229,0)" stroke-width="2" fill="none"></polyline>
<polyline points="2090.52,996.987,6794.47,710.508" stroke="rgb(255,127,0)" stroke-width="2" fill="none"></polyline>
<polyline points="1295.09,1012.76,5119.41,896.179" stroke="rgb(0,255,123)" stroke-width="2" fill="none"></polyline>
<polyline points="2289.58,1032.44,5840.73,1440.31" stroke="rgb(0,255,161)" stroke-width="2" fill="none"></polyline>
<polyline points="2172.12,1035.87,6715.27,1073.29" stroke="rgb(38,0,255)" stroke-width="2" fill="none"></polyline>
<polyline points="2467.34,1040.95,5199.15,1164.39" stroke="rgb(255,93,0)" stroke-width="2" fill="none"></polyline>
<polyline points="1676.43,1079.26,6781.15,823.315" stroke="rgb(255,89,0)" stroke-width="2" fill="none"></polyline>
<polyline points="2195.19,1096.07,4854.31,1007.61" stroke="rgb(255,12,0)" stroke-width="2" fill="none"></polyline>
<polyline points="1692.51,1102.78,6613.48,1448.71" stroke="rgb(208,0,255)" stroke-width="2" fill="none"></polyline>
<polyline points="1675.32,1106.53,6886.92,973.541" stroke="rgb(255,63,0)" stroke-width="2" fill="none"></polyline>
<polyline points="1594.71,1123.89,6494.43,695.077" stroke="rgb(85,0,255)" stroke-width="2" fill="none"></polyline>
<polyline points="1487.56,1127.95,6865.65,1150.72" stroke="rgb(250,0,255)" stroke-width="2" fill="none"></polyline>
<polyline points="744.797,1145.77,6381.85,1618.62" stroke="rgb(0,178,255)" stroke-width="2" fill="none"></polyline>
<polyline points="1497.79,1161.64,5533.54,614.287" stroke="rgb(0,195,255)" stroke-width="2" fill="none"></polyline>
<polyline points="1199.45,1167.63,6954.11,1046.67" stroke="rgb(0,174,255)" stroke-width="2" fill="none"></polyline>
<polyline points="1523.71,1191.93,5715.01,719.582" stroke="rgb(0,97,255)" stroke-width="2" fill="none"></polyline>
<polyline points="1217.94,1201.71,6297.21,1517.85" stroke="rgb(255,0,212)" stroke-width="2" fill="none"></polyline>
<polyline points="1522.9,1218.75,5878.53,663.487" stroke="rgb(0,255,237)" stroke-width="2" fill="none"></polyline>
<polyline points="2613.6,1287.47,6966.87,1105.53" stroke="rgb(0,255,46)" stroke-width="2" fill="none"></polyline>
<polyline points="1521.42,1321.35,6360.8,1337.21" stroke="rgb(255,0,242)" stroke-width="2" fill="none"></polyline>
<polyline points="2455.65,1348.26,6665.02,722.683" stroke="rgb(144,0,255)" stroke-width="2" fill="none"></polyline>
<polyline points="1219.28,1372.24,6740.01,624.332" stroke="rgb(191,255,0)" stroke-width="2" fill="none"></polyline>
<polyline points="1086.7,1378.49,6785.94,1524.68" stroke="rgb(76,0,255)" stroke-width="2" fill="none"></polyline>
<polyline points="447.926,1379.52,5804.9,1477.23" stroke="rgb(255,119,0)" stroke-width="2" fill="none"></polyline>
<polyline points="451.926,1394.68,6739.41,1135.55" stroke="rgb(0,135,255)" stroke-width="2" fill="none"></polyline>
<polyline points="2549.95,1459.55,4847.01,869.767" stroke="rgb(0,255,169)" stroke-width="2" fill="none"></polyline>
<polyline points="2531.65,1497.03,5552.37,935.11" stroke="rgb(0,255,199)" stroke-width="2" fill="none"></polyline>
<polyline points="2469.51,1500.8,5832.63,1473.13" stroke="rgb(255,0,233)" stroke-width="2" fill="none"></polyline>
<polyline points="2561.03,1518.87,7002.17,1078.19" stroke="rgb(135,0,255)" stroke-width="2" fill="none"></polyline>
<polyline points="2499.9,1520.11,5889.2,1223.07" stroke="rgb(0,17,255)" stroke-width="2" fill="none"></polyline>
<polyline points="1951.18,1535.29,4982.76,920.89" stroke="rgb(46,0,255)" stroke-width="2" fill="none"></polyline>
<polyline points="2581.95,1546.2,5983.88,1472.05" stroke="rgb(255,0,144)" stroke-width="2" fill="none"></polyline>
<polyline points="2484.09,1548.81,7123.45,1178.79" stroke="rgb(110,0,255)" stroke-width="2" fill="none"></polyline>
<polyline points="1841.55,1550.71,4983.6,928.297" stroke="rgb(135,0,255)" stroke-width="2" fill="none"></polyline>
<polyline points="2522.38,1564.22,5924.76,1184.33" stroke="rgb(0,255,16)" stroke-width="2" fill="none"></polyline>
<polyline points="2496.01,1565.46,6703.19,763.645" stroke="rgb(0,255,148)" stroke-width="2" fill="none"></polyline>
<polyline points="2583.25,1587.51,6807.83,871.048" stroke="rgb(229,0,255)" stroke-width="2" fill="none"></polyline>
<polyline points="2527.25,1594.7,5722.6,1268.85" stroke="rgb(255,72,0)" stroke-width="2" fill="none"></polyline>
<polyline points="2596.81,1601.81,6935.12,728.048" stroke="rgb(0,255,161)" stroke-width="2" fill="none"></polyline>
<polyline points="1947.85,1602.92,5877.13,1000.52" stroke="rgb(106,255,0)" stroke-width="2" fill="none"></polyline>
<polyline points="2545.79,1608.92,6850.04,929.299" stroke="rgb(255,140,0)" stroke-width="2" fill="none"></polyline>
<polyline points="1622.72,1610.88,5909.05,1497.25" stroke="rgb(255,246,0)" stroke-width="2" fill="none"></polyline>
<polyline points="2509.51,1621.41,5516.82,595.85" stroke="rgb(255,144,0)" stroke-width="2" fill="none"></polyline>
<polyline points="1869.52,1638.21,6675.4,785.556" stroke="rgb(72,255,0)" stroke-width="2" fill="none"></polyline>
<polyline points="1615.62,1640.27,5537.38,679.877" stroke="rgb(0,255,16)" stroke-width="2" fill="none"></polyline>
<polyline points="2800.5,1647.54,6258.71,1644.6" stroke="rgb(0,29,255)" stroke-width="2" fill="none"></polyline>
<polyline points="816.852,1664.31,7151.53,1199.34" stroke="rgb(255,0,169)" stroke-width="2" fill="none"></polyline>
<polyline points="826.267,1665.89,5577.28,1157.83" stroke="rgb(195,255,0)" stroke-width="2" fill="none"></polyline>
<polyline points="996.458,1668.41,6836.58,1374.06" stroke="rgb(174,0,255)" stroke-width="2" fill="none"></polyline>
<polyline points="1959.14,1676.58,5919.05,1328.82" stroke="rgb(255,0,153)" stroke-width="2" fill="none"></polyline>
<polyline points="826.696,1678.02,7231.42,1250.4" stroke="rgb(42,0,255)" stroke-width="2" fill="none"></polyline>
<polyline points="1053.17,1687.65,5765.3,850.003" stroke="rgb(221,255,0)" stroke-width="2" fill="none"></polyline>
<polyline points="2739.44,1701.07,6083.1,453.849" stroke="rgb(131,0,255)" stroke-width="2" fill="none"></polyline>
<polyline points="1011.37,1704.03,6886.45,1342.41" stroke="rgb(0,255,118)" stroke-width="2" fill="none"></polyline>
<polyline points="1970.99,1707.99,5790.61,1404.72" stroke="rgb(101,255,0)" stroke-width="2" fill="none"></polyline>
<polyline points="927.778,1713.26,6689.31,1553.62" stroke="rgb(4,255,0)" stroke-width="2" fill="none"></polyline>
<polyline points="1708.4,1715.1,6803.87,735.033" stroke="rgb(0,250,255)" stroke-width="2" fill="none"></polyline>
<polyline points="1125.82,1719.6,6260.35,549.874" stroke="rgb(0,255,63)" stroke-width="2" fill="none"></polyline>
<polyline points="2766.61,1750.7,5547.14,613.124" stroke="rgb(238,0,255)" stroke-width="2" fill="none"></polyline>
<polyline points="1915.46,1787.8,7111.6,1184.74" stroke="rgb(114,255,0)" stroke-width="2" fill="none"></polyline>
<polyline points="703.005,1789.82,7142.4,1225.17" stroke="rgb(255,51,0)" stroke-width="2" fill="none"></polyline>
<polyline points="733.015,1801.48,5611.24,1227.63" stroke="rgb(0,225,255)" stroke-width="2" fill="none"></polyline>
<polyline points="1232.58,1801.86,7106.62,1179.74" stroke="rgb(255,250,0)" stroke-width="2" fill="none"></polyline>
<polyline points="742.956,1812.83,5961.87,1219.75" stroke="rgb(161,0,255)" stroke-width="2" fill="none"></polyline>
<polyline points="227.654,1815.65,5362.96,653.776" stroke="rgb(84,255,0)" stroke-width="2" fill="none"></polyline>
<polyline points="1652.91,1817.33,5590.72,566.43" stroke="rgb(255,233,0)" stroke-width="2" fill="none"></polyline>
<polyline points="756.956,1834.77,5719.48,454.12" stroke="rgb(255,0,229)" stroke-width="2" fill="none"></polyline>
<polyline points="2678.8,1888.75,5677.47,1281.75" stroke="rgb(110,0,255)" stroke-width="2" fill="none"></polyline>
<polyline points="1914.63,1913.09,5732.06,1226.48" stroke="rgb(199,255,0)" stroke-width="2" fill="none"></polyline>
<polyline points="2701.79,1913.39,6787.53,816.474" stroke="rgb(255,0,101)" stroke-width="2" fill="none"></polyline>
<polyline points="2673.54,1943.77,5855.52,1339.97" stroke="rgb(0,25,255)" stroke-width="2" fill="none"></polyline>
<polyline points="477.715,1963.72,4969.91,864.913" stroke="rgb(255,0,93)" stroke-width="2" fill="none"></polyline>
<polyline points="816.536,1965.2,5667.25,938.18" stroke="rgb(114,0,255)" stroke-width="2" fill="none"></polyline>
<polyline points="1190.53,1996.92,5763.37,652.557" stroke="rgb(118,0,255)" stroke-width="2" fill="none"></polyline>
<polyline points="1154.26,2037.17,5888.99,651.295" stroke="rgb(165,255,0)" stroke-width="2" fill="none"></polyline>
<polyline points="1220.02,2037.84,5791,717.89" stroke="rgb(255,131,0)" stroke-width="2" fill="none"></polyline>
<polyline points="1070.74,2039.92,5106.23,1176.64" stroke="rgb(255,59,0)" stroke-width="2" fill="none"></polyline>
<polyline points="1390.9,2051.67,5684.86,705.662" stroke="rgb(144,0,255)" stroke-width="2" fill="none"></polyline>
<polyline points="1006.51,2055.47,6000.95,799.905" stroke="rgb(255,0,93)" stroke-width="2" fill="none"></polyline>
<polyline points="1399.96,2055.88,5689.77,696.185" stroke="rgb(0,255,199)" stroke-width="2" fill="none"></polyline>
<polyline points="600.999,2061.05,6914.25,903.981" stroke="rgb(0,8,255)" stroke-width="2" fill="none"></polyline>
<polyline points="1439.95,2066.41,5664.68,709.985" stroke="rgb(0,51,255)" stroke-width="2" fill="none"></polyline>
<polyline points="1545.27,2089.79,5124.73,704.359" stroke="rgb(0,21,255)" stroke-width="2" fill="none"></polyline>
<polyline points="1272.5,2093.63,5837.41,708.685" stroke="rgb(0,255,123)" stroke-width="2" fill="none"></polyline>
<polyline points="1086.29,2096.79,5962.75,934.153" stroke="rgb(34,0,255)" stroke-width="2" fill="none"></polyline>
<polyline points="1288.11,2098.28,5825.54,735.588" stroke="rgb(0,153,255)" stroke-width="2" fill="none"></polyline>
<polyline points="1094.01,2101.67,5788.05,749.896" stroke="rgb(0,255,84)" stroke-width="2" fill="none"></polyline>
<polyline points="1088.17,2110.72,5500.03,641.258" stroke="rgb(255,0,250)" stroke-width="2" fill="none"></polyline>
<polyline points="1156.29,2113.2,5574.93,668.062" stroke="rgb(255,0,89)" stroke-width="2" fill="none"></polyline>
<polyline points="1174.3,2119.36,5407.91,546.059" stroke="rgb(187,255,0)" stroke-width="2" fill="none"></polyline>
<polyline points="1441.18,2125.24,6117.35,564.894" stroke="rgb(255,144,0)" stroke-width="2" fill="none"></polyline>
<polyline points="1074.79,2130.86,5728.03,679.989" stroke="rgb(0,72,255)" stroke-width="2" fill="none"></polyline>
<polyline points="792.034,2134.12,5153.25,836.711" stroke="rgb(0,255,67)" stroke-width="2" fill="none"></polyline>
<polyline points="1116.6,2137.7,5785.33,716.199" stroke="rgb(255,0,148)" stroke-width="2" fill="none"></polyline>
<polyline points="1112.64,2139.38,6123.82,773.115" stroke="rgb(255,59,0)" stroke-width="2" fill="none"></polyline>
<polyline points="540.098,2140.52,5211.54,1174.96" stroke="rgb(51,255,0)" stroke-width="2" fill="none"></polyline>
<polyline points="1130.06,2140.8,5774.93,704.222" stroke="rgb(255,89,0)" stroke-width="2" fill="none"></polyline>
<polyline points="1148.6,2141.68,5880.49,674.07" stroke="rgb(255,0,169)" stroke-width="2" fill="none"></polyline>
<polyline points="1123.04,2144.24,5781.47,704.135" stroke="rgb(25,0,255)" stroke-width="2" fill="none"></polyline>
<polyline points="1247.43,2144.27,5750.15,636.678" stroke="rgb(255,0,144)" stroke-width="2" fill="none"></polyline>
<polyline points="65.4629,2150.13,5811.48,1473.44" stroke="rgb(0,255,203)" stroke-width="2" fill="none"></polyline>
<polyline points="1123.05,2153.91,5789.8,702.128" stroke="rgb(0,255,0)" stroke-width="2" fill="none"></polyline>
<polyline points="1242.92,2157.82,5760.84,636.069" stroke="rgb(255,0,237)" stroke-width="2" fill="none"></polyline>
<polyline points="93.3535,2160.69,6292.55,1391.86" stroke="rgb(191,255,0)" stroke-width="2" fill="none"></polyline>
<polyline points="1278.19,2167.8,5505.4,671.759" stroke="rgb(89,0,255)" stroke-width="2" fill="none"></polyline>
<polyline points="1709.75,2169.86,5673.86,1036.05" stroke="rgb(72,0,255)" stroke-width="2" fill="none"></polyline>
<polyline points="1201.33,2172.03,5443.22,553.726" stroke="rgb(55,255,0)" stroke-width="2" fill="none"></polyline>
<polyline points="1231.74,2176.44,5777.51,637.878" stroke="rgb(148,0,255)" stroke-width="2" fill="none"></polyline>
<polyline points="1032.88,2176.48,5605.09,1313.21" stroke="rgb(0,255,216)" stroke-width="2" fill="none"></polyline>
<polyline points="1235.47,2187.35,5787.38,632.311" stroke="rgb(255,0,182)" stroke-width="2" fill="none"></polyline>
<polyline points="1016.52,2190.84,5403.65,595.371" stroke="rgb(161,255,0)" stroke-width="2" fill="none"></polyline>
<polyline points="1158.29,2200.58,5553.22,675.193" stroke="rgb(174,0,255)" stroke-width="2" fill="none"></polyline>
<polyline points="1686.01,2213.08,4845.58,964.861" stroke="rgb(0,233,255)" stroke-width="2" fill="none"></polyline>
<polyline points="1184.82,2213.64,5771.4,630.379" stroke="rgb(0,212,255)" stroke-width="2" fill="none"></polyline>
<polyline points="2342.73,2254.03,5553.18,1186.64" stroke="rgb(212,255,0)" stroke-width="2" fill="none"></polyline>
<polyline points="2341.82,2255.94,6218.75,1334.05" stroke="rgb(255,0,233)" stroke-width="2" fill="none"></polyline>
<polyline points="1304.01,2290.25,6758.33,1540.5" stroke="rgb(255,144,0)" stroke-width="2" fill="none"></polyline>
<polyline points="2210.49,2324.34,6003.12,1232.43" stroke="rgb(161,255,0)" stroke-width="2" fill="none"></polyline>
<polyline points="1498.76,2372.93,4893.16,906.748" stroke="rgb(29,0,255)" stroke-width="2" fill="none"></polyline>
<polyline points="1199.83,2408.31,7191.57,1229.36" stroke="rgb(21,0,255)" stroke-width="2" fill="none"></polyline>
<polyline points="1665.55,2417.24,6346.35,632.992" stroke="rgb(255,131,0)" stroke-width="2" fill="none"></polyline>
<polyline points="737.784,2418.29,5125.11,698.649" stroke="rgb(0,255,140)" stroke-width="2" fill="none"></polyline>
<polyline points="1006.62,2421.36,6085.13,612.425" stroke="rgb(255,0,80)" stroke-width="2" fill="none"></polyline>
<polyline points="1130.7,2464.79,5904.2,1055.55" stroke="rgb(0,255,199)" stroke-width="2" fill="none"></polyline>
<polyline points="889.331,2466.16,6680.44,1474.74" stroke="rgb(4,255,0)" stroke-width="2" fill="none"></polyline>
<polyline points="1344.46,2483.3,5193.64,1260.32" stroke="rgb(255,0,21)" stroke-width="2" fill="none"></polyline>
<polyline points="1708.3,2483.91,6753.62,662.374" stroke="rgb(0,255,114)" stroke-width="2" fill="none"></polyline>
<polyline points="1467.32,2550.65,5858.58,1234.04" stroke="rgb(255,51,0)" stroke-width="2" fill="none"></polyline>
<circle cx="1084.36" cy="946.69" r="4" stroke="rgb(0,4,255)" stroke-width="2" fill="none"></circle>
<circle cx="5841.72" cy="631.394" r="4" stroke="rgb(0,4,255)" stroke-width="2" fill="none"></circle>
<circle cx="1018.04" cy="972.221" r="4" stroke="rgb(0,182,255)" stroke-width="2" fill="none"></circle>
<circle cx="6798.1" cy="1153.15" r="4" stroke="rgb(0,182,255)" stroke-width="2" fill="none"></circle>
<circle cx="2399.25" cy="974.476" r="4" stroke="rgb(199,255,0)" stroke-width="2" fill="none"></circle>
<circle cx="6678.93" cy="541.216" r="4" stroke="rgb(199,255,0)" stroke-width="2" fill="none"></circle>
<circle cx="2327.43" cy="996.655" r="4" stroke="rgb(255,229,0)" stroke-width="2" fill="none"></circle>
<circle cx="5917.83" cy="1346.98" r="4" stroke="rgb(255,229,0)" stroke-width="2" fill="none"></circle>
<circle cx="2090.52" cy="996.987" r="4" stroke="rgb(255,127,0)" stroke-width="2" fill="none"></circle>
<circle cx="6794.47" cy="710.508" r="4" stroke="rgb(255,127,0)" stroke-width="2" fill="none"></circle>
<circle cx="1295.09" cy="1012.76" r="4" stroke="rgb(0,255,123)" stroke-width="2" fill="none"></circle>
<circle cx="5119.41" cy="896.179" r="4" stroke="rgb(0,255,123)" stroke-width="2" fill="none"></circle>
<circle cx="2289.58" cy="1032.44" r="4" stroke="rgb(0,255,161)" stroke-width="2" fill="none"></circle>
<circle cx="5840.73" cy="1440.31" r="4" stroke="rgb(0,255,161)" stroke-width="2" fill="none"></circle>
<circle cx="2172.12" cy="1035.87" r="4" stroke="rgb(38,0,255)" stroke-width="2" fill="none"></circle>
<circle cx="6715.27" cy="1073.29" r="4" stroke="rgb(38,0,255)" stroke-width="2" fill="none"></circle>
<circle cx="2467.34" cy="1040.95" r="4" stroke="rgb(255,93,0)" stroke-width="2" fill="none"></circle>
<circle cx="5199.15" cy="1164.39" r="4" stroke="rgb(255,93,0)" stroke-width="2" fill="none"></circle>
<circle cx="1676.43" cy="1079.26" r="4" stroke="rgb(255,89,0)" stroke-width="2" fill="none"></circle>
<circle cx="6781.15" cy="823.315" r="4" stroke="rgb(255,89,0)" stroke-width="2" fill="none"></circle>
<circle cx="2195.19" cy="1096.07" r="4" stroke="rgb(255,12,0)" stroke-width="2" fill="none"></circle>
<circle cx="4854.31" cy="1007.61" r="4" stroke="rgb(255,12,0)" stroke-width="2" fill="none"></circle>
<circle cx="1692.51" cy="1102.78" r="4" stroke="rgb(208,0,255)" stroke-width="2" fill="none"></circle>
<circle cx="6613.48" cy="1448.71" r="4" stroke="rgb(208,0,255)" stroke-width="2" fill="none"></circle>
<circle cx="1675.32" cy="1106.53" r="4" stroke="rgb(255,63,0)" stroke-width="2" fill="none"></circle>
<circle cx="6886.92" cy="973.541" r="4" stroke="rgb(255,63,0)" stroke-width="2" fill="none"></circle>
<circle cx="1594.71" cy="1123.89" r="4" stroke="rgb(85,0,255)" stroke-width="2" fill="none"></circle>
<circle cx="6494.43" cy="695.077" r="4" stroke="rgb(85,0,255)" stroke-width="2" fill="none"></circle>
<circle cx="1487.56" cy="1127.95" r="4" stroke="rgb(250,0,255)" stroke-width="2" fill="none"></circle>
<circle cx="6865.65" cy="1150.72" r="4" stroke="rgb(250,0,255)" stroke-width="2" fill="none"></circle>
<circle cx="744.797" cy="1145.77" r="4" stroke="rgb(0,178,255)" stroke-width="2" fill="none"></circle>
<circle cx="6381.85" cy="1618.62" r="4" stroke="rgb(0,178,255)" stroke-width="2" fill="none"></circle>
<circle cx="1497.79" cy="1161.64" r="4" stroke="rgb(0,195,255)" stroke-width="2" fill="none"></circle>
<circle cx="5533.54" cy="614.287" r="4" stroke="rgb(0,195,255)" stroke-width="2" fill="none"></circle>
<circle cx="1199.45" cy="1167.63" r="4" stroke="rgb(0,174,255)" stroke-width="2" fill="none"></circle>
<circle cx="6954.11" cy="1046.67" r="4" stroke="rgb(0,174,255)" stroke-width="2" fill="none"></circle>
<circle cx="1523.71" cy="1191.93" r="4" stroke="rgb(0,97,255)" stroke-width="2" fill="none"></circle>
<circle cx="5715.01" cy="719.582" r="4" stroke="rgb(0,97,255)" stroke-width="2" fill="none"></circle>
<circle cx="1217.94" cy="1201.71" r="4" stroke="rgb(255,0,212)" stroke-width="2" fill="none"></circle>
<circle cx="6297.21" cy="1517.85" r="4" stroke="rgb(255,0,212)" stroke-width="2" fill="none"></circle>
<circle cx="1522.9" cy="1218.75" r="4" stroke="rgb(0,255,237)" stroke-width="2" fill="none"></circle>
<circle cx="5878.53" cy="663.487" r="4" stroke="rgb(0,255,237)" stroke-width="2" fill="none"></circle>
<circle cx="2613.6" cy="1287.47" r="4" stroke="rgb(0,255,46)" stroke-width="2" fill="none"></circle>
<circle cx="6966.87" cy="1105.53" r="4" stroke="rgb(0,255,46)" stroke-width="2" fill="none"></circle>
<circle cx="1521.42" cy="1321.35" r="4" stroke="rgb(255,0,242)" stroke-width="2" fill="none"></circle>
<circle cx="6360.8" cy="1337.21" r="4" stroke="rgb(255,0,242)" stroke-width="2" fill="none"></circle>
<circle cx="2455.65" cy="1348.26" r="4" stroke="rgb(144,0,255)" stroke-width="2" fill="none"></circle>
<circle cx="6665.02" cy="722.683" r="4" stroke="rgb(144,0,255)" stroke-width="2" fill="none"></circle>
<circle cx="1219.28" cy="1372.24" r="4" stroke="rgb(191,255,0)" stroke-width="2" fill="none"></circle>
<circle cx="6740.01" cy="624.332" r="4" stroke="rgb(191,255,0)" stroke-width="2" fill="none"></circle>
<circle cx="1086.7" cy="1378.49" r="4" stroke="rgb(76,0,255)" stroke-width="2" fill="none"></circle>
<circle cx="6785.94" cy="1524.68" r="4" stroke="rgb(76,0,255)" stroke-width="2" fill="none"></circle>
<circle cx="447.926" cy="1379.52" r="4" stroke="rgb(255,119,0)" stroke-width="2" fill="none"></circle>
<circle cx="5804.9" cy="1477.23" r="4" stroke="rgb(255,119,0)" stroke-width="2" fill="none"></circle>
<circle cx="451.926" cy="1394.68" r="4" stroke="rgb(0,135,255)" stroke-width="2" fill="none"></circle>
<circle cx="6739.41" cy="1135.55" r="4" stroke="rgb(0,135,255)" stroke-width="2" fill="none"></circle>
<circle cx="2549.95" cy="1459.55" r="4" stroke="rgb(0,255,169)" stroke-width="2" fill="none"></circle>
<circle cx="4847.01" cy="869.767" r="4" stroke="rgb(0,255,169)" stroke-width="2" fill="none"></circle>
<circle cx="2531.65" cy="1497.03" r="4" stroke="rgb(0,255,199)" stroke-width="2" fill="none"></circle>
<circle cx="5552.37" cy="935.11" r="4" stroke="rgb(0,255,199)" stroke-width="2" fill="none"></circle>
<circle cx="2469.51" cy="1500.8" r="4" stroke="rgb(255,0,233)" stroke-width="2" fill="none"></circle>
<circle cx="5832.63" cy="1473.13" r="4" stroke="rgb(255,0,233)" stroke-width="2" fill="none"></circle>
<circle cx="2561.03" cy="1518.87" r="4" stroke="rgb(135,0,255)" stroke-width="2" fill="none"></circle>
<circle cx="7002.17" cy="1078.19" r="4" stroke="rgb(135,0,255)" stroke-width="2" fill="none"></circle>
<circle cx="2499.9" cy="1520.11" r="4" stroke="rgb(0,17,255)" stroke-width="2" fill="none"></circle>
<circle cx="5889.2" cy="1223.07" r="4" stroke="rgb(0,17,255)" stroke-width="2" fill="none"></circle>
<circle cx="1951.18" cy="1535.29" r="4" stroke="rgb(46,0,255)" stroke-width="2" fill="none"></circle>
<circle cx="4982.76" cy="920.89" r="4" stroke="rgb(46,0,255)" stroke-width="2" fill="none"></circle>
<circle cx="2581.95" cy="1546.2" r="4" stroke="rgb(255,0,144)" stroke-width="2" fill="none"></circle>
<circle cx="5983.88" cy="1472.05" r="4" stroke="rgb(255,0,144)" stroke-width="2" fill="none"></circle>
<circle cx="2484.09" cy="1548.81" r="4" stroke="rgb(110,0,255)" stroke-width="2" fill="none"></circle>
<circle cx="7123.45" cy="1178.79" r="4" stroke="rgb(110,0,255)" stroke-width="2" fill="none"></circle>
<circle cx="1841.55" cy="1550.71" r="4" stroke="rgb(135,0,255)" stroke-width="2" fill="none"></circle>
<circle cx="4983.6" cy="928.297" r="4" stroke="rgb(135,0,255)" stroke-width="2" fill="none"></circle>
<circle cx="2522.38" cy="1564.22" r="4" stroke="rgb(0,255,16)" stroke-width="2" fill="none"></circle>
<circle cx="5924.76" cy="1184.33" r="4" stroke="rgb(0,255,16)" stroke-width="2" fill="none"></circle>
<circle cx="2496.01" cy="1565.46" r="4" stroke="rgb(0,255,148)" stroke-width="2" fill="none"></circle>
<circle cx="6703.19" cy="763.645" r="4" stroke="rgb(0,255,148)" stroke-width="2" fill="none"></circle>
<circle cx="2583.25" cy="1587.51" r="4" stroke="rgb(229,0,255)" stroke-width="2" fill="none"></circle>
<circle cx="6807.83" cy="871.048" r="4" stroke="rgb(229,0,255)" stroke-width="2" fill="none"></circle>
<circle cx="2527.25" cy="1594.7" r="4" stroke="rgb(255,72,0)" stroke-width="2" fill="none"></circle>
<circle cx="5722.6" cy="1268.85" r="4" stroke="rgb(255,72,0)" stroke-width="2" fill="none"></circle>
<circle cx="2596.81" cy="1601.81" r="4" stroke="rgb(0,255,161)" stroke-width="2" fill="none"></circle>
<circle cx="6935.12" cy="728.048" r="4" stroke="rgb(0,255,161)" stroke-width="2" fill="none"></circle>
<circle cx="1947.85" cy="1602.92" r="4" stroke="rgb(106,255,0)" stroke-width="2" fill="none"></circle>
<circle cx="5877.13" cy="1000.52" r="4" stroke="rgb(106,255,0)" stroke-width="2" fill="none"></circle>
<circle cx="2545.79" cy="1608.92" r="4" stroke="rgb(255,140,0)" stroke-width="2" fill="none"></circle>
<circle cx="6850.04" cy="929.299" r="4" stroke="rgb(255,140,0)" stroke-width="2" fill="none"></circle>
<circle cx="1622.72" cy="1610.88" r="4" stroke="rgb(255,246,0)" stroke-width="2" fill="none"></circle>
<circle cx="5909.05" cy="1497.25" r="4" stroke="rgb(255,246,0)" stroke-width="2" fill="none"></circle>
<circle cx="2509.51" cy="1621.41" r="4" stroke="rgb(255,144,0)" stroke-width="2" fill="none"></circle>
<circle cx="5516.82" cy="595.85" r="4" stroke="rgb(255,144,0)" stroke-width="2" fill="none"></circle>
<circle cx="1869.52" cy="1638.21" r="4" stroke="rgb(72,255,0)" stroke-width="2" fill="none"></circle>
<circle cx="6675.4" cy="785.556" r="4" stroke="rgb(72,255,0)" stroke-width="2" fill="none"></circle>
<circle cx="1615.62" cy="1640.27" r="4" stroke="rgb(0,255,16)" stroke-width="2" fill="none"></circle>
<circle cx="5537.38" cy="679.877" r="4" stroke="rgb(0,255,16)" stroke-width="2" fill="none"></circle>
<circle cx="2800.5" cy="1647.54" r="4" stroke="rgb(0,29,255)" stroke-width="2" fill="none"></circle>
<circle cx="6258.71" cy="1644.6" r="4" stroke="rgb(0,29,255)" stroke-width="2" fill="none"></circle>
<circle cx="816.852" cy="1664.31" r="4" stroke="rgb(255,0,169)" stroke-width="2" fill="none"></circle>
<circle cx="7151.53" cy="1199.34" r="4" stroke="rgb(255,0,169)" stroke-width="2" fill="none"></circle>
<circle cx="826.267" cy="1665.89" r="4" stroke="rgb(195,255,0)" stroke-width="2" fill="none"></circle>
<circle cx="5577.28" cy="1157.83" r="4" stroke="rgb(195,255,0)" stroke-width="2" fill="none"></circle>
<circle cx="996.458" cy="1668.41" r="4" stroke="rgb(174,0,255)" stroke-width="2" fill="none"></circle>
<circle cx="6836.58" cy="1374.06" r="4" stroke="rgb(174,0,255)" stroke-width="2" fill="none"></circle>
<circle cx="1959.14" cy="1676.58" r="4" stroke="rgb(255,0,153)" stroke-width="2" fill="none"></circle>
<circle cx="5919.05" cy="1328.82" r="4" stroke="rgb(255,0,153)" stroke-width="2" fill="none"></circle>
<circle cx="826.696" cy="1678.02" r="4" stroke="rgb(42,0,255)" stroke-width="2" fill="none"></circle>
<circle cx="7231.42" cy="1250.4" r="4" stroke="rgb(42,0,255)" stroke-width="2" fill="none"></circle>
<circle cx="1053.17" cy="1687.65" r="4" stroke="rgb(221,255,0)" stroke-width="2" fill="none"></circle>
<circle cx="5765.3" cy="850.003" r="4" stroke="rgb(221,255,0)" stroke-width="2" fill="none"></circle>
<circle cx="2739.44" cy="1701.07" r="4" stroke="rgb(131,0,255)" stroke-width="2" fill="none"></circle>
<circle cx="6083.1" cy="453.849" r="4" stroke="rgb(131,0,255)" stroke-width="2" fill="none"></circle>
<circle cx="1011.37" cy="1704.03" r="4" stroke="rgb(0,255,118)" stroke-width="2" fill="none"></circle>
<circle cx="6886.45" cy="1342.41" r="4" stroke="rgb(0,255,118)" stroke-width="2" fill="none"></circle>
<circle cx="1970.99" cy="1707.99" r="4" stroke="rgb(101,255,0)" stroke-width="2" fill="none"></circle>
<circle cx="5790.61" cy="1404.72" r="4" stroke="rgb(101,255,0)" stroke-width="2" fill="none"></circle>
<circle cx="927.778" cy="1713.26" r="4" stroke="rgb(4,255,0)" stroke-width="2" fill="none"></circle>
<circle cx="6689.31" cy="1553.62" r="4" stroke="rgb(4,255,0)" stroke-width="2" fill="none"></circle>
<circle cx="1708.4" cy="1715.1" r="4" stroke="rgb(0,250,255)" stroke-width="2" fill="none"></circle>
<circle cx="6803.87" cy="735.033" r="4" stroke="rgb(0,250,255)" stroke-width="2" fill="none"></circle>
<circle cx="1125.82" cy="1719.6" r="4" stroke="rgb(0,255,63)" stroke-width="2" fill="none"></circle>
<circle cx="6260.35" cy="549.874" r="4" stroke="rgb(0,255,63)" stroke-width="2" fill="none"></circle>
<circle cx="2766.61" cy="1750.7" r="4" stroke="rgb(238,0,255)" stroke-width="2" fill="none"></circle>
<circle cx="5547.14" cy="613.124" r="4" stroke="rgb(238,0,255)" stroke-width="2" fill="none"></circle>
<circle cx="1915.46" cy="1787.8" r="4" stroke="rgb(114,255,0)" stroke-width="2" fill="none"></circle>
<circle cx="7111.6" cy="1184.74" r="4" stroke="rgb(114,255,0)" stroke-width="2" fill="none"></circle>
<circle cx="703.005" cy="1789.82" r="4" stroke="rgb(255,51,0)" stroke-width="2" fill="none"></circle>
<circle cx="7142.4" cy="1225.17" r="4" stroke="rgb(255,51,0)" stroke-width="2" fill="none"></circle>
<circle cx="733.015" cy="1801.48" r="4" stroke="rgb(0,225,255)" stroke-width="2" fill="none"></circle>
<circle cx="5611.24" cy="1227.63" r="4" stroke="rgb(0,225,255)" stroke-width="2" fill="none"></circle>
<circle cx="1232.58" cy="1801.86" r="4" stroke="rgb(255,250,0)" stroke-width="2" fill="none"></circle>
<circle cx="7106.62" cy="1179.74" r="4" stroke="rgb(255,250,0)" stroke-width="2" fill="none"></circle>
<circle cx="742.956" cy="1812.83" r="4" stroke="rgb(161,0,255)" stroke-width="2" fill="none"></circle>
<circle cx="5961.87" cy="1219.75" r="4" stroke="rgb(161,0,255)" stroke-width="2" fill="none"></circle>
<circle cx="227.654" cy="1815.65" r="4" stroke="rgb(84,255,0)" stroke-width="2" fill="none"></circle>
<circle cx="5362.96" cy="653.776" r="4" stroke="rgb(84,255,0)" stroke-width="2" fill="none"></circle>
<circle cx="1652.91" cy="1817.33" r="4" stroke="rgb(255,233,0)" stroke-width="2" fill="none"></circle>
<circle cx="5590.72" cy="566.43" r="4" stroke="rgb(255,233,0)" stroke-width="2" fill="none"></circle>
<circle cx="756.956" cy="1834.77" r="4" stroke="rgb(255,0,229)" stroke-width="2" fill="none"></circle>
<circle cx="5719.48" cy="454.12" r="4" stroke="rgb(255,0,229)" stroke-width="2" fill="none"></circle>
<circle cx="2678.8" cy="1888.75" r="4" stroke="rgb(110,0,255)" stroke-width="2" fill="none"></circle>
<circle cx="5677.47" cy="1281.75" r="4" stroke="rgb(110,0,255)" stroke-width="2" fill="none"></circle>
<circle cx="1914.63" cy="1913.09" r="4" stroke="rgb(199,255,0)" stroke-width="2" fill="none"></circle>
<circle cx="5732.06" cy="1226.48" r="4" stroke="rgb(199,255,0)" stroke-width="2" fill="none"></circle>
<circle cx="2701.79" cy="1913.39" r="4" stroke="rgb(255,0,101)" stroke-width="2" fill="none"></circle>
<circle cx="6787.53" cy="816.474" r="4" stroke="rgb(255,0,101)" stroke-width="2" fill="none"></circle>
<circle cx="2673.54" cy="1943.77" r="4" stroke="rgb(0,25,255)" stroke-width="2" fill="none"></circle>
<circle cx="5855.52" cy="1339.97" r="4" stroke="rgb(0,25,255)" stroke-width="2" fill="none"></circle>
<circle cx="477.715" cy="1963.72" r="4" stroke="rgb(255,0,93)" stroke-width="2" fill="none"></circle>
<circle cx="4969.91" cy="864.913" r="4" stroke="rgb(255,0,93)" stroke-width="2" fill="none"></circle>
<circle cx="816.536" cy="1965.2" r="4" stroke="rgb(114,0,255)" stroke-width="2" fill="none"></circle>
<circle cx="5667.25" cy="938.18" r="4" stroke="rgb(114,0,255)" stroke-width="2" fill="none"></circle>
<circle cx="1190.53" cy="1996.92" r="4" stroke="rgb(118,0,255)" stroke-width="2" fill="none"></circle>
<circle cx="5763.37" cy="652.557" r="4" stroke="rgb(118,0,255)" stroke-width="2" fill="none"></circle>
<circle cx="1154.26" cy="2037.17" r="4" stroke="rgb(165,255,0)" stroke-width="2" fill="none"></circle>
<circle cx="5888.99" cy="651.295" r="4" stroke="rgb(165,255,0)" stroke-width="2" fill="none"></circle>
<circle cx="1220.02" cy="2037.84" r="4" stroke="rgb(255,131,0)" stroke-width="2" fill="none"></circle>
<circle cx="5791" cy="717.89" r="4" stroke="rgb(255,131,0)" stroke-width="2" fill="none"></circle>
<circle cx="1070.74" cy="2039.92" r="4" stroke="rgb(255,59,0)" stroke-width="2" fill="none"></circle>
<circle cx="5106.23" cy="1176.64" r="4" stroke="rgb(255,59,0)" stroke-width="2" fill="none"></circle>
<circle cx="1390.9" cy="2051.67" r="4" stroke="rgb(144,0,255)" stroke-width="2" fill="none"></circle>
<circle cx="5684.86" cy="705.662" r="4" stroke="rgb(144,0,255)" stroke-width="2" fill="none"></circle>
<circle cx="1006.51" cy="2055.47" r="4" stroke="rgb(255,0,93)" stroke-width="2" fill="none"></circle>
<circle cx="6000.95" cy="799.905" r="4" stroke="rgb(255,0,93)" stroke-width="2" fill="none"></circle>
<circle cx="1399.96" cy="2055.88" r="4" stroke="rgb(0,255,199)" stroke-width="2" fill="none"></circle>
<circle cx="5689.77" cy="696.185" r="4" stroke="rgb(0,255,199)" stroke-width="2" fill="none"></circle>
<circle cx="600.999" cy="2061.05" r="4" stroke="rgb(0,8,255)" stroke-width="2" fill="none"></circle>
<circle cx="6914.25" cy="903.981" r="4" stroke="rgb(0,8,255)" stroke-width="2" fill="none"></circle>
<circle cx="1439.95" cy="2066.41" r="4" stroke="rgb(0,51,255)" stroke-width="2" fill="none"></circle>
<circle cx="5664.68" cy="709.985" r="4" stroke="rgb(0,51,255)" stroke-width="2" fill="none"></circle>
<circle cx="1545.27" cy="2089.79" r="4" stroke="rgb(0,21,255)" stroke-width="2" fill="none"></circle>
<circle cx="5124.73" cy="704.359" r="4" stroke="rgb(0,21,255)" stroke-width="2" fill="none"></circle>
<circle cx="1272.5" cy="2093.63" r="4" stroke="rgb(0,255,123)" stroke-width="2" fill="none"></circle>
<circle cx="5837.41" cy="708.685" r="4" stroke="rgb(0,255,123)" stroke-width="2" fill="none"></circle>
<circle cx="1086.29" cy="2096.79" r="4" stroke="rgb(34,0,255)" stroke-width="2" fill="none"></circle>
<circle cx="5962.75" cy="934.153" r="4" stroke="rgb(34,0,255)" stroke-width="2" fill="none"></circle>
<circle cx="1288.11" cy="2098.28" r="4" stroke="rgb(0,153,255)" stroke-width="2" fill="none"></circle>
<circle cx="5825.54" cy="735.588" r="4" stroke="rgb(0,153,255)" stroke-width="2" fill="none"></circle>
<circle cx="1094.01" cy="2101.67" r="4" stroke="rgb(0,255,84)" stroke-width="2" fill="none"></circle>
<circle cx="5788.05" cy="749.896" r="4" stroke="rgb(0,255,84)" stroke-width="2" fill="none"></circle>
<circle cx="1088.17" cy="2110.72" r="4" stroke="rgb(255,0,250)" stroke-width="2" fill="none"></circle>
<circle cx="5500.03" cy="641.258" r="4" stroke="rgb(255,0,250)" stroke-width="2" fill="none"></circle>
<circle cx="1156.29" cy="2113.2" r="4" stroke="rgb(255,0,89)" stroke-width="2" fill="none"></circle>
<circle cx="5574.93" cy="668.062" r="4" stroke="rgb(255,0,89)" stroke-width="2" fill="none"></circle>
<circle cx="1174.3" cy="2119.36" r="4" stroke="rgb(187,255,0)" stroke-width="2" fill="none"></circle>
<circle cx="5407.91" cy="546.059" r="4" stroke="rgb(187,255,0)" stroke-width="2" fill="none"></circle>
<circle cx="1441.18" cy="2125.24" r="4" stroke="rgb(255,144,0)" stroke-width="2" fill="none"></circle>
<circle cx="6117.35" cy="564.894" r="4" stroke="rgb(255,144,0)" stroke-width="2" fill="none"></circle>
<circle cx="1074.79" cy="2130.86" r="4" stroke="rgb(0,72,255)" stroke-width="2" fill="none"></circle>
<circle cx="5728.03" cy="679.989" r="4" stroke="rgb(0,72,255)" stroke-width="2" fill="none"></circle>
<circle cx="792.034" cy="2134.12" r="4" stroke="rgb(0,255,67)" stroke-width="2" fill="none"></circle>
<circle cx="5153.25" cy="836.711" r="4" stroke="rgb(0,255,67)" stroke-width="2" fill="none"></circle>
<circle cx="1116.6" cy="2137.7" r="4" stroke="rgb(255,0,148)" stroke-width="2" fill="none"></circle>
<circle cx="5785.33" cy="716.199" r="4" stroke="rgb(255,0,148)" stroke-width="2" fill="none"></circle>
<circle cx="1112.64" cy="2139.38" r="4" stroke="rgb(255,59,0)" stroke-width="2" fill="none"></circle>
<circle cx="6123.82" cy="773.115" r="4" stroke="rgb(255,59,0)" stroke-width="2" fill="none"></circle>
<circle cx="540.098" cy="2140.52" r="4" stroke="rgb(51,255,0)" stroke-width="2" fill="none"></circle>
<circle cx="5211.54" cy="1174.96" r="4" stroke="rgb(51,255,0)" stroke-width="2" fill="none"></circle>
<circle cx="1130.06" cy="2140.8" r="4" stroke="rgb(255,89,0)" stroke-width="2" fill="none"></circle>
<circle cx="5774.93" cy="704.222" r="4" stroke="rgb(255,89,0)" stroke-width="2" fill="none"></circle>
<circle cx="1148.6" cy="2141.68" r="4" stroke="rgb(255,0,169)" stroke-width="2" fill="none"></circle>
<circle cx="5880.49" cy="674.07" r="4" stroke="rgb(255,0,169)" stroke-width="2" fill="none"></circle>
<circle cx="1123.04" cy="2144.24" r="4" stroke="rgb(25,0,255)" stroke-width="2" fill="none"></circle>
<circle cx="5781.47" cy="704.135" r="4" stroke="rgb(25,0,255)" stroke-width="2" fill="none"></circle>
<circle cx="1247.43" cy="2144.27" r="4" stroke="rgb(255,0,144)" stroke-width="2" fill="none"></circle>
<circle cx="5750.15" cy="636.678" r="4" stroke="rgb(255,0,144)" stroke-width="2" fill="none"></circle>
<circle cx="65.4629" cy="2150.13" r="4" stroke="rgb(0,255,203)" stroke-width="2" fill="none"></circle>
<circle cx="5811.48" cy="1473.44" r="4" stroke="rgb(0,255,203)" stroke-width="2" fill="none"></circle>
<circle cx="1123.05" cy="2153.91" r="4" stroke="rgb(0,255,0)" stroke-width="2" fill="none"></circle>
<circle cx="5789.8" cy="702.128" r="4" stroke="rgb(0,255,0)" stroke-width="2" fill="none"></circle>
<circle cx="1242.92" cy="2157.82" r="4" stroke="rgb(255,0,237)" stroke-width="2" fill="none"></circle>
<circle cx="5760.84" cy="636.069" r="4" stroke="rgb(255,0,237)" stroke-width="2" fill="none"></circle>
<circle cx="93.3535" cy="2160.69" r="4" stroke="rgb(191,255,0)" stroke-width="2" fill="none"></circle>
<circle cx="6292.55" cy="1391.86" r="4" stroke="rgb(191,255,0)" stroke-width="2" fill="none"></circle>
<circle cx="1278.19" cy="2167.8" r="4" stroke="rgb(89,0,255)" stroke-width="2" fill="none"></circle>
<circle cx="5505.4" cy="671.759" r="4" stroke="rgb(89,0,255)" stroke-width="2" fill="none"></circle>
<circle cx="1709.75" cy="2169.86" r="4" stroke="rgb(72,0,255)" stroke-width="2" fill="none"></circle>
<circle cx="5673.86" cy="1036.05" r="4" stroke="rgb(72,0,255)" stroke-width="2" fill="none"></circle>
<circle cx="1201.33" cy="2172.03" r="4" stroke="rgb(55,255,0)" stroke-width="2" fill="none"></circle>
<circle cx="5443.22" cy="553.726" r="4" stroke="rgb(55,255,0)" stroke-width="2" fill="none"></circle>
<circle cx="1231.74" cy="2176.44" r="4" stroke="rgb(148,0,255)" stroke-width="2" fill="none"></circle>
<circle cx="5777.51" cy="637.878" r="4" stroke="rgb(148,0,255)" stroke-width="2" fill="none"></circle>
<circle cx="1032.88" cy="2176.48" r="4" stroke="rgb(0,255,216)" stroke-width="2" fill="none"></circle>
<circle cx="5605.09" cy="1313.21" r="4" stroke="rgb(0,255,216)" stroke-width="2" fill="none"></circle>
<circle cx="1235.47" cy="2187.35" r="4" stroke="rgb(255,0,182)" stroke-width="2" fill="none"></circle>
<circle cx="5787.38" cy="632.311" r="4" stroke="rgb(255,0,182)" stroke-width="2" fill="none"></circle>
<circle cx="1016.52" cy="2190.84" r="4" stroke="rgb(161,255,0)" stroke-width="2" fill="none"></circle>
<circle cx="5403.65" cy="595.371" r="4" stroke="rgb(161,255,0)" stroke-width="2" fill="none"></circle>
<circle cx="1158.29" cy="2200.58" r="4" stroke="rgb(174,0,255)" stroke-width="2" fill="none"></circle>
<circle cx="5553.22" cy="675.193" r="4" stroke="rgb(174,0,255)" stroke-width="2" fill="none"></circle>
<circle cx="1686.01" cy="2213.08" r="4" stroke="rgb(0,233,255)" stroke-width="2" fill="none"></circle>
<circle cx="4845.58" cy="964.861" r="4" stroke="rgb(0,233,255)" stroke-width="2" fill="none"></circle>
<circle cx="1184.82" cy="2213.64" r="4" stroke="rgb(0,212,255)" stroke-width="2" fill="none"></circle>
<circle cx="5771.4" cy="630.379" r="4" stroke="rgb(0,212,255)" stroke-width="2" fill="none"></circle>
<circle cx="2342.73" cy="2254.03" r="4" stroke="rgb(212,255,0)" stroke-width="2" fill="none"></circle>
<circle cx="5553.18" cy="1186.64" r="4" stroke="rgb(212,255,0)" stroke-width="2" fill="none"></circle>
<circle cx="2341.82" cy="2255.94" r="4" stroke="rgb(255,0,233)" stroke-width="2" fill="none"></circle>
<circle cx="6218.75" cy="1334.05" r="4" stroke="rgb(255,0,233)" stroke-width="2" fill="none"></circle>
<circle cx="1304.01" cy="2290.25" r="4" stroke="rgb(255,144,0)" stroke-width="2" fill="none"></circle>
<circle cx="6758.33" cy="1540.5" r="4" stroke="rgb(255,144,0)" stroke-width="2" fill="none"></circle>
<circle cx="2210.49" cy="2324.34" r="4" stroke="rgb(161,255,0)" stroke-width="2" fill="none"></circle>
<circle cx="6003.12" cy="1232.43" r="4" stroke="rgb(161,255,0)" stroke-width="2" fill="none"></circle>
<circle cx="1498.76" cy="2372.93" r="4" stroke="rgb(29,0,255)" stroke-width="2" fill="none"></circle>
<circle cx="4893.16" cy="906.748" r="4" stroke="rgb(29,0,255)" stroke-width="2" fill="none"></circle>
<circle cx="1199.83" cy="2408.31" r="4" stroke="rgb(21,0,255)" stroke-width="2" fill="none"></circle>
<circle cx="7191.57" cy="1229.36" r="4" stroke="rgb(21,0,255)" stroke-width="2" fill="none"></circle>
<circle cx="1665.55" cy="2417.24" r="4" stroke="rgb(255,131,0)" stroke-width="2" fill="none"></circle>
<circle cx="6346.35" cy="632.992" r="4" stroke="rgb(255,131,0)" stroke-width="2" fill="none"></circle>
<circle cx="737.784" cy="2418.29" r="4" stroke="rgb(0,255,140)" stroke-width="2" fill="none"></circle>
<circle cx="5125.11" cy="698.649" r="4" stroke="rgb(0,255,140)" stroke-width="2" fill="none"></circle>
<circle cx="1006.62" cy="2421.36" r="4" stroke="rgb(255,0,80)" stroke-width="2" fill="none"></circle>
<circle cx="6085.13" cy="612.425" r="4" stroke="rgb(255,0,80)" stroke-width="2" fill="none"></circle>
<circle cx="1130.7" cy="2464.79" r="4" stroke="rgb(0,255,199)" stroke-width="2" fill="none"></circle>
<circle cx="5904.2" cy="1055.55" r="4" stroke="rgb(0,255,199)" stroke-width="2" fill="none"></circle>
<circle cx="889.331" cy="2466.16" r="4" stroke="rgb(4,255,0)" stroke-width="2" fill="none"></circle>
<circle cx="6680.44" cy="1474.74" r="4" stroke="rgb(4,255,0)" stroke-width="2" fill="none"></circle>
<circle cx="1344.46" cy="2483.3" r="4" stroke="rgb(255,0,21)" stroke-width="2" fill="none"></circle>
<circle cx="5193.64" cy="1260.32" r="4" stroke="rgb(255,0,21)" stroke-width="2" fill="none"></circle>
<circle cx="1708.3" cy="2483.91" r="4" stroke="rgb(0,255,114)" stroke-width="2" fill="none"></circle>
<circle cx="6753.62" cy="662.374" r="4" stroke="rgb(0,255,114)" stroke-width="2" fill="none"></circle>
<circle cx="1467.32" cy="2550.65" r="4" stroke="rgb(255,51,0)" stroke-width="2" fill="none"></circle>
<circle cx="5858.58" cy="1234.04" r="4" stroke="rgb(255,51,0)" stroke-width="2" fill="none"></circle>
</svg>