<?xml version="1.0" standalone="yes"?>
<!-- SVG graphic -->
<svg xmlns='http://www.w3.org/2000/svg' xmlns:xlink='http://www.w3.org/1999/xlink'
width="8064px" height="3024px" preserveAspectRatio="xMinYMin meet" viewBox="0 0 8064 3024" version="1.1">
<image x="0" y="0" width="4032px" height="3024px" opacity="1" xlink:href="/home/jeong/Code/2D-to-3D-Modeling-using-AI/Make3D/Image/20200227_180633.jpg"/>
<image x="4032" y="0" width="4032px" height="3024px" opacity="1" xlink:href="/home/jeong/Code/2D-to-3D-Modeling-using-AI/Make3D/Image/20200227_180716.jpg"/>
<polyline points="2028.39,1255.8,6093.02,1804.25" stroke="rgb(4,0,255)" stroke-width="2" fill="none"></polyline>
<polyline points="1836.86,1491.53,5934.12,48.1541" stroke="rgb(255,0,33)" stroke-width="2" fill="none"></polyline>
<polyline points="1985.68,2178.91,6024.57,1263.75" stroke="rgb(0,119,255)" stroke-width="2" fill="none"></polyline>
<polyline points="2361.98,1273.61,6225.82,1725.12" stroke="rgb(238,0,255)" stroke-width="2" fill="none"></polyline>
<polyline points="652.438,2616.39,5636.2,182.119" stroke="rgb(0,255,165)" stroke-width="2" fill="none"></polyline>
<polyline points="450.929,1795.91,5936.25,253.45" stroke="rgb(255,246,0)" stroke-width="2" fill="none"></polyline>
<polyline points="2033.29,2690.68,5575.24,203.53" stroke="rgb(0,255,89)" stroke-width="2" fill="none"></polyline>
<polyline points="2077.53,2060.91,6354.46,706.299" stroke="rgb(0,255,246)" stroke-width="2" fill="none"></polyline>
<polyline points="2045.97,2076.81,4798.93,1760.1" stroke="rgb(0,255,59)" stroke-width="2" fill="none"></polyline>
<polyline points="2011.63,2181.78,6036.26,1277.83" stroke="rgb(0,255,182)" stroke-width="2" fill="none"></polyline>
<polyline points="1119.6,2449.49,5399.65,1792.2" stroke="rgb(242,0,255)" stroke-width="2" fill="none"></polyline>
<polyline points="1988.4,2562.8,6279.05,469.099" stroke="rgb(255,46,0)" stroke-width="2" fill="none"></polyline>
<polyline points="1979.41,2091.08,6292.62,758.244" stroke="rgb(255,0,97)" stroke-width="2" fill="none"></polyline>
<polyline points="1781.59,1523.74,6308.21,487.571" stroke="rgb(255,0,225)" stroke-width="2" fill="none"></polyline>
<polyline points="1998.69,2180.6,6358.31,761.805" stroke="rgb(255,102,0)" stroke-width="2" fill="none"></polyline>
<polyline points="2039.12,2202.05,6530.69,1289.49" stroke="rgb(0,255,131)" stroke-width="2" fill="none"></polyline>
<polyline points="1351.61,2735.2,5234.78,2020.19" stroke="rgb(153,0,255)" stroke-width="2" fill="none"></polyline>
<polyline points="2387.61,1300.73,6035.77,530.212" stroke="rgb(255,0,127)" stroke-width="2" fill="none"></polyline>
<polyline points="2100.11,2138.65,6061.17,1296.73" stroke="rgb(255,0,208)" stroke-width="2" fill="none"></polyline>
<polyline points="2738.01,1814.11,6136.74,553.605" stroke="rgb(110,255,0)" stroke-width="2" fill="none"></polyline>
<polyline points="503.545,2049.94,5502.82,569.462" stroke="rgb(165,255,0)" stroke-width="2" fill="none"></polyline>
<polyline points="2014.13,2251.39,6343.5,793.561" stroke="rgb(153,255,0)" stroke-width="2" fill="none"></polyline>
<polyline points="2048.56,2295.06,6145.8,1308.01" stroke="rgb(0,55,255)" stroke-width="2" fill="none"></polyline>
<polyline points="2656.03,1909.99,6394.03,798.303" stroke="rgb(0,255,174)" stroke-width="2" fill="none"></polyline>
<polyline points="2656.03,1909.99,6394.03,798.303" stroke="rgb(0,212,255)" stroke-width="2" fill="none"></polyline>
<polyline points="1861.14,1511.17,5316.53,1862.67" stroke="rgb(42,0,255)" stroke-width="2" fill="none"></polyline>
<polyline points="2111.38,2152.7,6537.94,1315" stroke="rgb(123,0,255)" stroke-width="2" fill="none"></polyline>
<polyline points="2006.17,2163.5,6241.67,1320.21" stroke="rgb(0,89,255)" stroke-width="2" fill="none"></polyline>
<polyline points="1807.33,2596.33,5224.83,1972.9" stroke="rgb(63,255,0)" stroke-width="2" fill="none"></polyline>
<polyline points="1386.55,1410.56,6391.19,639.545" stroke="rgb(106,255,0)" stroke-width="2" fill="none"></polyline>
<polyline points="2621.57,1864.77,6309.7,821.567" stroke="rgb(178,255,0)" stroke-width="2" fill="none"></polyline>
<polyline points="2629.73,1868.45,6294.39,1326.54" stroke="rgb(0,93,255)" stroke-width="2" fill="none"></polyline>
<polyline points="1235.05,2556.89,5413.69,662.982" stroke="rgb(255,0,174)" stroke-width="2" fill="none"></polyline>
<polyline points="2018.36,2239.72,6285.43,850.311" stroke="rgb(212,0,255)" stroke-width="2" fill="none"></polyline>
<polyline points="2090.03,2064.23,6307.05,680.882" stroke="rgb(0,255,144)" stroke-width="2" fill="none"></polyline>
<polyline points="2024.3,2262.91,6370.84,831.441" stroke="rgb(8,255,0)" stroke-width="2" fill="none"></polyline>
<polyline points="1998.69,2180.6,6346.53,895.56" stroke="rgb(255,0,51)" stroke-width="2" fill="none"></polyline>
<polyline points="2106.66,2097.39,5951.32,851.756" stroke="rgb(0,255,199)" stroke-width="2" fill="none"></polyline>
<polyline points="2012.96,2200.38,6346.74,907.062" stroke="rgb(0,255,208)" stroke-width="2" fill="none"></polyline>
<polyline points="2012.96,2200.38,6346.74,907.062" stroke="rgb(255,0,25)" stroke-width="2" fill="none"></polyline>
<polyline points="2003.47,2221.81,6336.98,908.419" stroke="rgb(255,0,123)" stroke-width="2" fill="none"></polyline>
<polyline points="2106.66,2097.39,6333.46,843.396" stroke="rgb(255,0,93)" stroke-width="2" fill="none"></polyline>
<polyline points="1451.98,1395.28,5918.67,1405.01" stroke="rgb(255,25,0)" stroke-width="2" fill="none"></polyline>
<polyline points="1086.98,2571.15,5302.43,881.219" stroke="rgb(255,0,221)" stroke-width="2" fill="none"></polyline>
<polyline points="2014.13,2251.39,6330.46,923.659" stroke="rgb(191,0,255)" stroke-width="2" fill="none"></polyline>
<polyline points="2014.13,2251.39,6330.46,923.659" stroke="rgb(93,0,255)" stroke-width="2" fill="none"></polyline>
<polyline points="1092.76,2575.05,5300.3,889.573" stroke="rgb(89,255,0)" stroke-width="2" fill="none"></polyline>
<polyline points="1985.68,2178.91,6006.39,961.042" stroke="rgb(0,165,255)" stroke-width="2" fill="none"></polyline>
<polyline points="2039.12,2202.05,6353.45,917.269" stroke="rgb(67,255,0)" stroke-width="2" fill="none"></polyline>
<polyline points="1435.99,2575.95,5243.01,976.94" stroke="rgb(255,212,0)" stroke-width="2" fill="none"></polyline>
<polyline points="1975.93,2102.14,6238.52,982.131" stroke="rgb(238,0,255)" stroke-width="2" fill="none"></polyline>
<polyline points="2052.22,2245.11,6344.83,935.534" stroke="rgb(0,233,255)" stroke-width="2" fill="none"></polyline>
<polyline points="1846.57,1536.79,5975.89,1478.86" stroke="rgb(255,25,0)" stroke-width="2" fill="none"></polyline>
<polyline points="1846.57,1536.79,5906.5,1496.44" stroke="rgb(255,148,0)" stroke-width="2" fill="none"></polyline>
<polyline points="2109.29,2416.72,6472.14,1013.16" stroke="rgb(0,89,255)" stroke-width="2" fill="none"></polyline>
<polyline points="1314.44,2583.85,5228.36,1021.97" stroke="rgb(216,255,0)" stroke-width="2" fill="none"></polyline>
<polyline points="1314.44,2583.85,5228.36,1021.97" stroke="rgb(191,0,255)" stroke-width="2" fill="none"></polyline>
<polyline points="721.008,2344.01,5394.04,1028.2" stroke="rgb(0,255,33)" stroke-width="2" fill="none"></polyline>
<polyline points="1861.14,1511.17,6074.45,1525.3" stroke="rgb(203,0,255)" stroke-width="2" fill="none"></polyline>
<polyline points="2656.03,1909.99,6294.6,1027.74" stroke="rgb(97,0,255)" stroke-width="2" fill="none"></polyline>
<polyline points="1060.03,2595.56,5255.53,1034.9" stroke="rgb(0,72,255)" stroke-width="2" fill="none"></polyline>
<polyline points="2365.02,1935.53,5707.65,1050.35" stroke="rgb(0,8,255)" stroke-width="2" fill="none"></polyline>
<polyline points="2078.06,2070.07,6256.83,1043.93" stroke="rgb(0,255,4)" stroke-width="2" fill="none"></polyline>
<polyline points="1613.94,1581.99,5252.89,984.672" stroke="rgb(0,246,255)" stroke-width="2" fill="none"></polyline>
<polyline points="1878.42,1439.57,6114.07,1561.41" stroke="rgb(0,255,203)" stroke-width="2" fill="none"></polyline>
<polyline points="675.92,2402.73,5303.66,1064.17" stroke="rgb(0,255,118)" stroke-width="2" fill="none"></polyline>
<polyline points="1110.24,2470.12,6740.36,1005.79" stroke="rgb(0,255,225)" stroke-width="2" fill="none"></polyline>
<polyline points="1613.94,1581.99,5820.51,1573.53" stroke="rgb(255,119,0)" stroke-width="2" fill="none"></polyline>
<polyline points="2001.89,2085.02,6129.02,1103.48" stroke="rgb(255,0,191)" stroke-width="2" fill="none"></polyline>
<polyline points="2001.89,2085.02,6129.02,1103.48" stroke="rgb(255,0,76)" stroke-width="2" fill="none"></polyline>
<polyline points="1878.42,1439.57,6036.08,1659.19" stroke="rgb(255,93,0)" stroke-width="2" fill="none"></polyline>
<polyline points="1613.94,1581.99,5214.27,1148.29" stroke="rgb(195,0,255)" stroke-width="2" fill="none"></polyline>
<polyline points="2085.58,2021.68,5411.17,1679.9" stroke="rgb(255,0,169)" stroke-width="2" fill="none"></polyline>
<polyline points="1998.69,2180.6,6074.55,1186.17" stroke="rgb(85,0,255)" stroke-width="2" fill="none"></polyline>
<polyline points="2674.92,1981.08,5320.17,1709.35" stroke="rgb(59,255,0)" stroke-width="2" fill="none"></polyline>
<polyline points="1420.54,1396.43,6118.61,1136.78" stroke="rgb(21,0,255)" stroke-width="2" fill="none"></polyline>
<polyline points="2003.47,2221.81,6518.42,1170.92" stroke="rgb(255,148,0)" stroke-width="2" fill="none"></polyline>
<polyline points="2394.58,1255.09,5871.7,1763.32" stroke="rgb(182,255,0)" stroke-width="2" fill="none"></polyline>
<polyline points="1930.23,2116.75,4790.5,1767.17" stroke="rgb(255,0,178)" stroke-width="2" fill="none"></polyline>
<polyline points="2029.06,2309.17,5865.41,1222.05" stroke="rgb(0,255,80)" stroke-width="2" fill="none"></polyline>
<polyline points="2636.48,1862.93,6116.07,1210.74" stroke="rgb(255,0,0)" stroke-width="2" fill="none"></polyline>
<polyline points="2014.87,2213.86,6062.93,1218.76" stroke="rgb(0,255,25)" stroke-width="2" fill="none"></polyline>
<polyline points="1733.81,1481.2,6395.19,1263.72" stroke="rgb(0,182,255)" stroke-width="2" fill="none"></polyline>
<polyline points="2111.38,2152.7,6460.92,1230.66" stroke="rgb(0,8,255)" stroke-width="2" fill="none"></polyline>
<polyline points="2111.38,2152.7,6460.92,1230.66" stroke="rgb(255,144,0)" stroke-width="2" fill="none"></polyline>
<polyline points="2018.36,2239.72,6050.27,1234.17" stroke="rgb(255,238,0)" stroke-width="2" fill="none"></polyline>
<polyline points="2018.36,2239.72,6050.27,1234.17" stroke="rgb(255,0,225)" stroke-width="2" fill="none"></polyline>
<polyline points="2632.89,1885.5,6517.04,1234.43" stroke="rgb(0,208,255)" stroke-width="2" fill="none"></polyline>
<polyline points="1903.9,2364.54,5970.73,1235.15" stroke="rgb(255,238,0)" stroke-width="2" fill="none"></polyline>
<polyline points="2048.91,2220.5,5993.75,1202.29" stroke="rgb(0,21,255)" stroke-width="2" fill="none"></polyline>
<polyline points="2046.93,2274.88,6098.73,1247.16" stroke="rgb(110,255,0)" stroke-width="2" fill="none"></polyline>
<polyline points="2021.41,2183.61,6569.83,1289.01" stroke="rgb(0,255,131)" stroke-width="2" fill="none"></polyline>
<polyline points="2629.73,1868.45,6294.26,1327.11" stroke="rgb(29,255,0)" stroke-width="2" fill="none"></polyline>
<polyline points="652.438,2616.39,5229.69,1332.84" stroke="rgb(135,255,0)" stroke-width="2" fill="none"></polyline>
<polyline points="2859.45,1920.68,5200.93,1358.77" stroke="rgb(0,148,255)" stroke-width="2" fill="none"></polyline>
<polyline points="1733.81,1481.2,5798.35,1738.04" stroke="rgb(0,255,140)" stroke-width="2" fill="none"></polyline>
<polyline points="644.257,2488.77,5923.57,1478.91" stroke="rgb(0,17,255)" stroke-width="2" fill="none"></polyline>
<polyline points="1947.78,2628.95,5603.9,1518.81" stroke="rgb(255,76,0)" stroke-width="2" fill="none"></polyline>
<polyline points="242.022,1995.19,4999.89,1553.86" stroke="rgb(255,225,0)" stroke-width="2" fill="none"></polyline>
<polyline points="1549.34,1431.51,5996.79,1561.2" stroke="rgb(0,208,255)" stroke-width="2" fill="none"></polyline>
<polyline points="2687.89,1957.68,6024.55,774.506" stroke="rgb(255,0,0)" stroke-width="2" fill="none"></polyline>
<polyline points="2526.6,1215.37,5727.53,842.357" stroke="rgb(187,255,0)" stroke-width="2" fill="none"></polyline>
<polyline points="2876.64,2111.11,5782.05,1706.55" stroke="rgb(255,0,42)" stroke-width="2" fill="none"></polyline>
<polyline points="2665.88,1868.94,6078.9,1153.67" stroke="rgb(0,203,255)" stroke-width="2" fill="none"></polyline>
<polyline points="1560.88,2269.52,6213.6,1817.7" stroke="rgb(0,135,255)" stroke-width="2" fill="none"></polyline>
<polyline points="1593.39,1550.27,4956.88,1849.77" stroke="rgb(101,255,0)" stroke-width="2" fill="none"></polyline>
<polyline points="1506.41,1464.58,5962.26,744.288" stroke="rgb(255,0,216)" stroke-width="2" fill="none"></polyline>
<polyline points="1883.82,2635.78,5508.4,1121.11" stroke="rgb(12,0,255)" stroke-width="2" fill="none"></polyline>
<circle cx="2028.39" cy="1255.8" r="4" stroke="rgb(4,0,255)" stroke-width="2" fill="none"></circle>
<circle cx="6093.02" cy="1804.25" r="4" stroke="rgb(4,0,255)" stroke-width="2" fill="none"></circle>
<circle cx="1836.86" cy="1491.53" r="4" stroke="rgb(255,0,33)" stroke-width="2" fill="none"></circle>
<circle cx="5934.12" cy="48.1541" r="4" stroke="rgb(255,0,33)" stroke-width="2" fill="none"></circle>
<circle cx="1985.68" cy="2178.91" r="4" stroke="rgb(0,119,255)" stroke-width="2" fill="none"></circle>
<circle cx="6024.57" cy="1263.75" r="4" stroke="rgb(0,119,255)" stroke-width="2" fill="none"></circle>
<circle cx="2361.98" cy="1273.61" r="4" stroke="rgb(238,0,255)" stroke-width="2" fill="none"></circle>
<circle cx="6225.82" cy="1725.12" r="4" stroke="rgb(238,0,255)" stroke-width="2" fill="none"></circle>
<circle cx="652.438" cy="2616.39" r="4" stroke="rgb(0,255,165)" stroke-width="2" fill="none"></circle>
<circle cx="5636.2" cy="182.119" r="4" stroke="rgb(0,255,165)" stroke-width="2" fill="none"></circle>
<circle cx="450.929" cy="1795.91" r="4" stroke="rgb(255,246,0)" stroke-width="2" fill="none"></circle>
<circle cx="5936.25" cy="253.45" r="4" stroke="rgb(255,246,0)" stroke-width="2" fill="none"></circle>
<circle cx="2033.29" cy="2690.68" r="4" stroke="rgb(0,255,89)" stroke-width="2" fill="none"></circle>
<circle cx="5575.24" cy="203.53" r="4" stroke="rgb(0,255,89)" stroke-width="2" fill="none"></circle>
<circle cx="2077.53" cy="2060.91" r="4" stroke="rgb(0,255,246)" stroke-width="2" fill="none"></circle>
<circle cx="6354.46" cy="706.299" r="4" stroke="rgb(0,255,246)" stroke-width="2" fill="none"></circle>
<circle cx="2045.97" cy="2076.81" r="4" stroke="rgb(0,255,59)" stroke-width="2" fill="none"></circle>
<circle cx="4798.93" cy="1760.1" r="4" stroke="rgb(0,255,59)" stroke-width="2" fill="none"></circle>
<circle cx="2011.63" cy="2181.78" r="4" stroke="rgb(0,255,182)" stroke-width="2" fill="none"></circle>
<circle cx="6036.26" cy="1277.83" r="4" stroke="rgb(0,255,182)" stroke-width="2" fill="none"></circle>
<circle cx="1119.6" cy="2449.49" r="4" stroke="rgb(242,0,255)" stroke-width="2" fill="none"></circle>
<circle cx="5399.65" cy="1792.2" r="4" stroke="rgb(242,0,255)" stroke-width="2" fill="none"></circle>
<circle cx="1988.4" cy="2562.8" r="4" stroke="rgb(255,46,0)" stroke-width="2" fill="none"></circle>
<circle cx="6279.05" cy="469.099" r="4" stroke="rgb(255,46,0)" stroke-width="2" fill="none"></circle>
<circle cx="1979.41" cy="2091.08" r="4" stroke="rgb(255,0,97)" stroke-width="2" fill="none"></circle>
<circle cx="6292.62" cy="758.244" r="4" stroke="rgb(255,0,97)" stroke-width="2" fill="none"></circle>
<circle cx="1781.59" cy="1523.74" r="4" stroke="rgb(255,0,225)" stroke-width="2" fill="none"></circle>
<circle cx="6308.21" cy="487.571" r="4" stroke="rgb(255,0,225)" stroke-width="2" fill="none"></circle>
<circle cx="1998.69" cy="2180.6" r="4" stroke="rgb(255,102,0)" stroke-width="2" fill="none"></circle>
<circle cx="6358.31" cy="761.805" r="4" stroke="rgb(255,102,0)" stroke-width="2" fill="none"></circle>
<circle cx="2039.12" cy="2202.05" r="4" stroke="rgb(0,255,131)" stroke-width="2" fill="none"></circle>
<circle cx="6530.69" cy="1289.49" r="4" stroke="rgb(0,255,131)" stroke-width="2" fill="none"></circle>
<circle cx="1351.61" cy="2735.2" r="4" stroke="rgb(153,0,255)" stroke-width="2" fill="none"></circle>
<circle cx="5234.78" cy="2020.19" r="4" stroke="rgb(153,0,255)" stroke-width="2" fill="none"></circle>
<circle cx="2387.61" cy="1300.73" r="4" stroke="rgb(255,0,127)" stroke-width="2" fill="none"></circle>
<circle cx="6035.77" cy="530.212" r="4" stroke="rgb(255,0,127)" stroke-width="2" fill="none"></circle>
<circle cx="2100.11" cy="2138.65" r="4" stroke="rgb(255,0,208)" stroke-width="2" fill="none"></circle>
<circle cx="6061.17" cy="1296.73" r="4" stroke="rgb(255,0,208)" stroke-width="2" fill="none"></circle>
<circle cx="2738.01" cy="1814.11" r="4" stroke="rgb(110,255,0)" stroke-width="2" fill="none"></circle>
<circle cx="6136.74" cy="553.605" r="4" stroke="rgb(110,255,0)" stroke-width="2" fill="none"></circle>
<circle cx="503.545" cy="2049.94" r="4" stroke="rgb(165,255,0)" stroke-width="2" fill="none"></circle>
<circle cx="5502.82" cy="569.462" r="4" stroke="rgb(165,255,0)" stroke-width="2" fill="none"></circle>
<circle cx="2014.13" cy="2251.39" r="4" stroke="rgb(153,255,0)" stroke-width="2" fill="none"></circle>
<circle cx="6343.5" cy="793.561" r="4" stroke="rgb(153,255,0)" stroke-width="2" fill="none"></circle>
<circle cx="2048.56" cy="2295.06" r="4" stroke="rgb(0,55,255)" stroke-width="2" fill="none"></circle>
<circle cx="6145.8" cy="1308.01" r="4" stroke="rgb(0,55,255)" stroke-width="2" fill="none"></circle>
<circle cx="2656.03" cy="1909.99" r="4" stroke="rgb(0,255,174)" stroke-width="2" fill="none"></circle>
<circle cx="6394.03" cy="798.303" r="4" stroke="rgb(0,255,174)" stroke-width="2" fill="none"></circle>
<circle cx="2656.03" cy="1909.99" r="4" stroke="rgb(0,212,255)" stroke-width="2" fill="none"></circle>
<circle cx="6394.03" cy="798.303" r="4" stroke="rgb(0,212,255)" stroke-width="2" fill="none"></circle>
<circle cx="1861.14" cy="1511.17" r="4" stroke="rgb(42,0,255)" stroke-width="2" fill="none"></circle>
<circle cx="5316.53" cy="1862.67" r="4" stroke="rgb(42,0,255)" stroke-width="2" fill="none"></circle>
<circle cx="2111.38" cy="2152.7" r="4" stroke="rgb(123,0,255)" stroke-width="2" fill="none"></circle>
<circle cx="6537.94" cy="1315" r="4" stroke="rgb(123,0,255)" stroke-width="2" fill="none"></circle>
<circle cx="2006.17" cy="2163.5" r="4" stroke="rgb(0,89,255)" stroke-width="2" fill="none"></circle>
<circle cx="6241.67" cy="1320.21" r="4" stroke="rgb(0,89,255)" stroke-width="2" fill="none"></circle>
<circle cx="1807.33" cy="2596.33" r="4" stroke="rgb(63,255,0)" stroke-width="2" fill="none"></circle>
<circle cx="5224.83" cy="1972.9" r="4" stroke="rgb(63,255,0)" stroke-width="2" fill="none"></circle>
<circle cx="1386.55" cy="1410.56" r="4" stroke="rgb(106,255,0)" stroke-width="2" fill="none"></circle>
<circle cx="6391.19" cy="639.545" r="4" stroke="rgb(106,255,0)" stroke-width="2" fill="none"></circle>
<circle cx="2621.57" cy="1864.77" r="4" stroke="rgb(178,255,0)" stroke-width="2" fill="none"></circle>
<circle cx="6309.7" cy="821.567" r="4" stroke="rgb(178,255,0)" stroke-width="2" fill="none"></circle>
<circle cx="2629.73" cy="1868.45" r="4" stroke="rgb(0,93,255)" stroke-width="2" fill="none"></circle>
<circle cx="6294.39" cy="1326.54" r="4" stroke="rgb(0,93,255)" stroke-width="2" fill="none"></circle>
<circle cx="1235.05" cy="2556.89" r="4" stroke="rgb(255,0,174)" stroke-width="2" fill="none"></circle>
<circle cx="5413.69" cy="662.982" r="4" stroke="rgb(255,0,174)" stroke-width="2" fill="none"></circle>
<circle cx="2018.36" cy="2239.72" r="4" stroke="rgb(212,0,255)" stroke-width="2" fill="none"></circle>
<circle cx="6285.43" cy="850.311" r="4" stroke="rgb(212,0,255)" stroke-width="2" fill="none"></circle>
<circle cx="2090.03" cy="2064.23" r="4" stroke="rgb(0,255,144)" stroke-width="2" fill="none"></circle>
<circle cx="6307.05" cy="680.882" r="4" stroke="rgb(0,255,144)" stroke-width="2" fill="none"></circle>
<circle cx="2024.3" cy="2262.91" r="4" stroke="rgb(8,255,0)" stroke-width="2" fill="none"></circle>
<circle cx="6370.84" cy="831.441" r="4" stroke="rgb(8,255,0)" stroke-width="2" fill="none"></circle>
<circle cx="1998.69" cy="2180.6" r="4" stroke="rgb(255,0,51)" stroke-width="2" fill="none"></circle>
<circle cx="6346.53" cy="895.56" r="4" stroke="rgb(255,0,51)" stroke-width="2" fill="none"></circle>
<circle cx="2106.66" cy="2097.39" r="4" stroke="rgb(0,255,199)" stroke-width="2" fill="none"></circle>
<circle cx="5951.32" cy="851.756" r="4" stroke="rgb(0,255,199)" stroke-width="2" fill="none"></circle>
<circle cx="2012.96" cy="2200.38" r="4" stroke="rgb(0,255,208)" stroke-width="2" fill="none"></circle>
<circle cx="6346.74" cy="907.062" r="4" stroke="rgb(0,255,208)" stroke-width="2" fill="none"></circle>
<circle cx="2012.96" cy="2200.38" r="4" stroke="rgb(255,0,25)" stroke-width="2" fill="none"></circle>
<circle cx="6346.74" cy="907.062" r="4" stroke="rgb(255,0,25)" stroke-width="2" fill="none"></circle>
<circle cx="2003.47" cy="2221.81" r="4" stroke="rgb(255,0,123)" stroke-width="2" fill="none"></circle>
<circle cx="6336.98" cy="908.419" r="4" stroke="rgb(255,0,123)" stroke-width="2" fill="none"></circle>
<circle cx="2106.66" cy="2097.39" r="4" stroke="rgb(255,0,93)" stroke-width="2" fill="none"></circle>
<circle cx="6333.46" cy="843.396" r="4" stroke="rgb(255,0,93)" stroke-width="2" fill="none"></circle>
<circle cx="1451.98" cy="1395.28" r="4" stroke="rgb(255,25,0)" stroke-width="2" fill="none"></circle>
<circle cx="5918.67" cy="1405.01" r="4" stroke="rgb(255,25,0)" stroke-width="2" fill="none"></circle>
<circle cx="1086.98" cy="2571.15" r="4" stroke="rgb(255,0,221)" stroke-width="2" fill="none"></circle>
<circle cx="5302.43" cy="881.219" r="4" stroke="rgb(255,0,221)" stroke-width="2" fill="none"></circle>
<circle cx="2014.13" cy="2251.39" r="4" stroke="rgb(191,0,255)" stroke-width="2" fill="none"></circle>
<circle cx="6330.46" cy="923.659" r="4" stroke="rgb(191,0,255)" stroke-width="2" fill="none"></circle>
<circle cx="2014.13" cy="2251.39" r="4" stroke="rgb(93,0,255)" stroke-width="2" fill="none"></circle>
<circle cx="6330.46" cy="923.659" r="4" stroke="rgb(93,0,255)" stroke-width="2" fill="none"></circle>
<circle cx="1092.76" cy="2575.05" r="4" stroke="rgb(89,255,0)" stroke-width="2" fill="none"></circle>
<circle cx="5300.3" cy="889.573" r="4" stroke="rgb(89,255,0)" stroke-width="2" fill="none"></circle>
<circle cx="1985.68" cy="2178.91" r="4" stroke="rgb(0,165,255)" stroke-width="2" fill="none"></circle>
<circle cx="6006.39" cy="961.042" r="4" stroke="rgb(0,165,255)" stroke-width="2" fill="none"></circle>
<circle cx="2039.12" cy="2202.05" r="4" stroke="rgb(67,255,0)" stroke-width="2" fill="none"></circle>
<circle cx="6353.45" cy="917.269" r="4" stroke="rgb(67,255,0)" stroke-width="2" fill="none"></circle>
<circle cx="1435.99" cy="2575.95" r="4" stroke="rgb(255,212,0)" stroke-width="2" fill="none"></circle>
<circle cx="5243.01" cy="976.94" r="4" stroke="rgb(255,212,0)" stroke-width="2" fill="none"></circle>
<circle cx="1975.93" cy="2102.14" r="4" stroke="rgb(238,0,255)" stroke-width="2" fill="none"></circle>
<circle cx="6238.52" cy="982.131" r="4" stroke="rgb(238,0,255)" stroke-width="2" fill="none"></circle>
<circle cx="2052.22" cy="2245.11" r="4" stroke="rgb(0,233,255)" stroke-width="2" fill="none"></circle>
<circle cx="6344.83" cy="935.534" r="4" stroke="rgb(0,233,255)" stroke-width="2" fill="none"></circle>
<circle cx="1846.57" cy="1536.79" r="4" stroke="rgb(255,25,0)" stroke-width="2" fill="none"></circle>
<circle cx="5975.89" cy="1478.86" r="4" stroke="rgb(255,25,0)" stroke-width="2" fill="none"></circle>
<circle cx="1846.57" cy="1536.79" r="4" stroke="rgb(255,148,0)" stroke-width="2" fill="none"></circle>
<circle cx="5906.5" cy="1496.44" r="4" stroke="rgb(255,148,0)" stroke-width="2" fill="none"></circle>
<circle cx="2109.29" cy="2416.72" r="4" stroke="rgb(0,89,255)" stroke-width="2" fill="none"></circle>
<circle cx="6472.14" cy="1013.16" r="4" stroke="rgb(0,89,255)" stroke-width="2" fill="none"></circle>
<circle cx="1314.44" cy="2583.85" r="4" stroke="rgb(216,255,0)" stroke-width="2" fill="none"></circle>
<circle cx="5228.36" cy="1021.97" r="4" stroke="rgb(216,255,0)" stroke-width="2" fill="none"></circle>
<circle cx="1314.44" cy="2583.85" r="4" stroke="rgb(191,0,255)" stroke-width="2" fill="none"></circle>
<circle cx="5228.36" cy="1021.97" r="4" stroke="rgb(191,0,255)" stroke-width="2" fill="none"></circle>
<circle cx="721.008" cy="2344.01" r="4" stroke="rgb(0,255,33)" stroke-width="2" fill="none"></circle>
<circle cx="5394.04" cy="1028.2" r="4" stroke="rgb(0,255,33)" stroke-width="2" fill="none"></circle>
<circle cx="1861.14" cy="1511.17" r="4" stroke="rgb(203,0,255)" stroke-width="2" fill="none"></circle>
<circle cx="6074.45" cy="1525.3" r="4" stroke="rgb(203,0,255)" stroke-width="2" fill="none"></circle>
<circle cx="2656.03" cy="1909.99" r="4" stroke="rgb(97,0,255)" stroke-width="2" fill="none"></circle>
<circle cx="6294.6" cy="1027.74" r="4" stroke="rgb(97,0,255)" stroke-width="2" fill="none"></circle>
<circle cx="1060.03" cy="2595.56" r="4" stroke="rgb(0,72,255)" stroke-width="2" fill="none"></circle>
<circle cx="5255.53" cy="1034.9" r="4" stroke="rgb(0,72,255)" stroke-width="2" fill="none"></circle>
<circle cx="2365.02" cy="1935.53" r="4" stroke="rgb(0,8,255)" stroke-width="2" fill="none"></circle>
<circle cx="5707.65" cy="1050.35" r="4" stroke="rgb(0,8,255)" stroke-width="2" fill="none"></circle>
<circle cx="2078.06" cy="2070.07" r="4" stroke="rgb(0,255,4)" stroke-width="2" fill="none"></circle>
<circle cx="6256.83" cy="1043.93" r="4" stroke="rgb(0,255,4)" stroke-width="2" fill="none"></circle>
<circle cx="1613.94" cy="1581.99" r="4" stroke="rgb(0,246,255)" stroke-width="2" fill="none"></circle>
<circle cx="5252.89" cy="984.672" r="4" stroke="rgb(0,246,255)" stroke-width="2" fill="none"></circle>
<circle cx="1878.42" cy="1439.57" r="4" stroke="rgb(0,255,203)" stroke-width="2" fill="none"></circle>
<circle cx="6114.07" cy="1561.41" r="4" stroke="rgb(0,255,203)" stroke-width="2" fill="none"></circle>
<circle cx="675.92" cy="2402.73" r="4" stroke="rgb(0,255,118)" stroke-width="2" fill="none"></circle>
<circle cx="5303.66" cy="1064.17" r="4" stroke="rgb(0,255,118)" stroke-width="2" fill="none"></circle>
<circle cx="1110.24" cy="2470.12" r="4" stroke="rgb(0,255,225)" stroke-width="2" fill="none"></circle>
<circle cx="6740.36" cy="1005.79" r="4" stroke="rgb(0,255,225)" stroke-width="2" fill="none"></circle>
<circle cx="1613.94" cy="1581.99" r="4" stroke="rgb(255,119,0)" stroke-width="2" fill="none"></circle>
<circle cx="5820.51" cy="1573.53" r="4" stroke="rgb(255,119,0)" stroke-width="2" fill="none"></circle>
<circle cx="2001.89" cy="2085.02" r="4" stroke="rgb(255,0,191)" stroke-width="2" fill="none"></circle>
<circle cx="6129.02" cy="1103.48" r="4" stroke="rgb(255,0,191)" stroke-width="2" fill="none"></circle>
<circle cx="2001.89" cy="2085.02" r="4" stroke="rgb(255,0,76)" stroke-width="2" fill="none"></circle>
<circle cx="6129.02" cy="1103.48" r="4" stroke="rgb(255,0,76)" stroke-width="2" fill="none"></circle>
<circle cx="1878.42" cy="1439.57" r="4" stroke="rgb(255,93,0)" stroke-width="2" fill="none"></circle>
<circle cx="6036.08" cy="1659.19" r="4" stroke="rgb(255,93,0)" stroke-width="2" fill="none"></circle>
<circle cx="1613.94" cy="1581.99" r="4" stroke="rgb(195,0,255)" stroke-width="2" fill="none"></circle>
<circle cx="5214.27" cy="1148.29" r="4" stroke="rgb(195,0,255)" stroke-width="2" fill="none"></circle>
<circle cx="2085.58" cy="2021.68" r="4" stroke="rgb(255,0,169)" stroke-width="2" fill="none"></circle>
<circle cx="5411.17" cy="1679.9" r="4" stroke="rgb(255,0,169)" stroke-width="2" fill="none"></circle>
<circle cx="1998.69" cy="2180.6" r="4" stroke="rgb(85,0,255)" stroke-width="2" fill="none"></circle>
<circle cx="6074.55" cy="1186.17" r="4" stroke="rgb(85,0,255)" stroke-width="2" fill="none"></circle>
<circle cx="2674.92" cy="1981.08" r="4" stroke="rgb(59,255,0)" stroke-width="2" fill="none"></circle>
<circle cx="5320.17" cy="1709.35" r="4" stroke="rgb(59,255,0)" stroke-width="2" fill="none"></circle>
<circle cx="1420.54" cy="1396.43" r="4" stroke="rgb(21,0,255)" stroke-width="2" fill="none"></circle>
<circle cx="6118.61" cy="1136.78" r="4" stroke="rgb(21,0,255)" stroke-width="2" fill="none"></circle>
<circle cx="2003.47" cy="2221.81" r="4" stroke="rgb(255,148,0)" stroke-width="2" fill="none"></circle>
<circle cx="6518.42" cy="1170.92" r="4" stroke="rgb(255,148,0)" stroke-width="2" fill="none"></circle>
<circle cx="2394.58" cy="1255.09" r="4" stroke="rgb(182,255,0)" stroke-width="2" fill="none"></circle>
<circle cx="5871.7" cy="1763.32" r="4" stroke="rgb(182,255,0)" stroke-width="2" fill="none"></circle>
<circle cx="1930.23" cy="2116.75" r="4" stroke="rgb(255,0,178)" stroke-width="2" fill="none"></circle>
<circle cx="4790.5" cy="1767.17" r="4" stroke="rgb(255,0,178)" stroke-width="2" fill="none"></circle>
<circle cx="2029.06" cy="2309.17" r="4" stroke="rgb(0,255,80)" stroke-width="2" fill="none"></circle>
<circle cx="5865.41" cy="1222.05" r="4" stroke="rgb(0,255,80)" stroke-width="2" fill="none"></circle>
<circle cx="2636.48" cy="1862.93" r="4" stroke="rgb(255,0,0)" stroke-width="2" fill="none"></circle>
<circle cx="6116.07" cy="1210.74" r="4" stroke="rgb(255,0,0)" stroke-width="2" fill="none"></circle>
<circle cx="2014.87" cy="2213.86" r="4" stroke="rgb(0,255,25)" stroke-width="2" fill="none"></circle>
<circle cx="6062.93" cy="1218.76" r="4" stroke="rgb(0,255,25)" stroke-width="2" fill="none"></circle>
<circle cx="1733.81" cy="1481.2" r="4" stroke="rgb(0,182,255)" stroke-width="2" fill="none"></circle>
<circle cx="6395.19" cy="1263.72" r="4" stroke="rgb(0,182,255)" stroke-width="2" fill="none"></circle>
<circle cx="2111.38" cy="2152.7" r="4" stroke="rgb(0,8,255)" stroke-width="2" fill="none"></circle>
<circle cx="6460.92" cy="1230.66" r="4" stroke="rgb(0,8,255)" stroke-width="2" fill="none"></circle>
<circle cx="2111.38" cy="2152.7" r="4" stroke="rgb(255,144,0)" stroke-width="2" fill="none"></circle>
<circle cx="6460.92" cy="1230.66" r="4" stroke="rgb(255,144,0)" stroke-width="2" fill="none"></circle>
<circle cx="2018.36" cy="2239.72" r="4" stroke="rgb(255,238,0)" stroke-width="2" fill="none"></circle>
<circle cx="6050.27" cy="1234.17" r="4" stroke="rgb(255,238,0)" stroke-width="2" fill="none"></circle>
<circle cx="2018.36" cy="2239.72" r="4" stroke="rgb(255,0,225)" stroke-width="2" fill="none"></circle>
<circle cx="6050.27" cy="1234.17" r="4" stroke="rgb(255,0,225)" stroke-width="2" fill="none"></circle>
<circle cx="2632.89" cy="1885.5" r="4" stroke="rgb(0,208,255)" stroke-width="2" fill="none"></circle>
<circle cx="6517.04" cy="1234.43" r="4" stroke="rgb(0,208,255)" stroke-width="2" fill="none"></circle>
<circle cx="1903.9" cy="2364.54" r="4" stroke="rgb(255,238,0)" stroke-width="2" fill="none"></circle>
<circle cx="5970.73" cy="1235.15" r="4" stroke="rgb(255,238,0)" stroke-width="2" fill="none"></circle>
<circle cx="2048.91" cy="2220.5" r="4" stroke="rgb(0,21,255)" stroke-width="2" fill="none"></circle>
<circle cx="5993.75" cy="1202.29" r="4" stroke="rgb(0,21,255)" stroke-width="2" fill="none"></circle>
<circle cx="2046.93" cy="2274.88" r="4" stroke="rgb(110,255,0)" stroke-width="2" fill="none"></circle>
<circle cx="6098.73" cy="1247.16" r="4" stroke="rgb(110,255,0)" stroke-width="2" fill="none"></circle>
<circle cx="2021.41" cy="2183.61" r="4" stroke="rgb(0,255,131)" stroke-width="2" fill="none"></circle>
<circle cx="6569.83" cy="1289.01" r="4" stroke="rgb(0,255,131)" stroke-width="2" fill="none"></circle>
<circle cx="2629.73" cy="1868.45" r="4" stroke="rgb(29,255,0)" stroke-width="2" fill="none"></circle>
<circle cx="6294.26" cy="1327.11" r="4" stroke="rgb(29,255,0)" stroke-width="2" fill="none"></circle>
<circle cx="652.438" cy="2616.39" r="4" stroke="rgb(135,255,0)" stroke-width="2" fill="none"></circle>
<circle cx="5229.69" cy="1332.84" r="4" stroke="rgb(135,255,0)" stroke-width="2" fill="none"></circle>
<circle cx="2859.45" cy="1920.68" r="4" stroke="rgb(0,148,255)" stroke-width="2" fill="none"></circle>
<circle cx="5200.93" cy="1358.77" r="4" stroke="rgb(0,148,255)" stroke-width="2" fill="none"></circle>
<circle cx="1733.81" cy="1481.2" r="4" stroke="rgb(0,255,140)" stroke-width="2" fill="none"></circle>
<circle cx="5798.35" cy="1738.04" r="4" stroke="rgb(0,255,140)" stroke-width="2" fill="none"></circle>
<circle cx="644.257" cy="2488.77" r="4" stroke="rgb(0,17,255)" stroke-width="2" fill="none"></circle>
<circle cx="5923.57" cy="1478.91" r="4" stroke="rgb(0,17,255)" stroke-width="2" fill="none"></circle>
<circle cx="1947.78" cy="2628.95" r="4" stroke="rgb(255,76,0)" stroke-width="2" fill="none"></circle>
<circle cx="5603.9" cy="1518.81" r="4" stroke="rgb(255,76,0)" stroke-width="2" fill="none"></circle>
<circle cx="242.022" cy="1995.19" r="4" stroke="rgb(255,225,0)" stroke-width="2" fill="none"></circle>
<circle cx="4999.89" cy="1553.86" r="4" stroke="rgb(255,225,0)" stroke-width="2" fill="none"></circle>
<circle cx="1549.34" cy="1431.51" r="4" stroke="rgb(0,208,255)" stroke-width="2" fill="none"></circle>
<circle cx="5996.79" cy="1561.2" r="4" stroke="rgb(0,208,255)" stroke-width="2" fill="none"></circle>
<circle cx="2687.89" cy="1957.68" r="4" stroke="rgb(255,0,0)" stroke-width="2" fill="none"></circle>
<circle cx="6024.55" cy="774.506" r="4" stroke="rgb(255,0,0)" stroke-width="2" fill="none"></circle>
<circle cx="2526.6" cy="1215.37" r="4" stroke="rgb(187,255,0)" stroke-width="2" fill="none"></circle>
<circle cx="5727.53" cy="842.357" r="4" stroke="rgb(187,255,0)" stroke-width="2" fill="none"></circle>
<circle cx="2876.64" cy="2111.11" r="4" stroke="rgb(255,0,42)" stroke-width="2" fill="none"></circle>
<circle cx="5782.05" cy="1706.55" r="4" stroke="rgb(255,0,42)" stroke-width="2" fill="none"></circle>
<circle cx="2665.88" cy="1868.94" r="4" stroke="rgb(0,203,255)" stroke-width="2" fill="none"></circle>
<circle cx="6078.9" cy="1153.67" r="4" stroke="rgb(0,203,255)" stroke-width="2" fill="none"></circle>
<circle cx="1560.88" cy="2269.52" r="4" stroke="rgb(0,135,255)" stroke-width="2" fill="none"></circle>
<circle cx="6213.6" cy="1817.7" r="4" stroke="rgb(0,135,255)" stroke-width="2" fill="none"></circle>
<circle cx="1593.39" cy="1550.27" r="4" stroke="rgb(101,255,0)" stroke-width="2" fill="none"></circle>
<circle cx="4956.88" cy="1849.77" r="4" stroke="rgb(101,255,0)" stroke-width="2" fill="none"></circle>
<circle cx="1506.41" cy="1464.58" r="4" stroke="rgb(255,0,216)" stroke-width="2" fill="none"></circle>
<circle cx="5962.26" cy="744.288" r="4" stroke="rgb(255,0,216)" stroke-width="2" fill="none"></circle>
<circle cx="1883.82" cy="2635.78" r="4" stroke="rgb(12,0,255)" stroke-width="2" fill="none"></circle>
<circle cx="5508.4" cy="1121.11" r="4" stroke="rgb(12,0,255)" stroke-width="2" fill="none"></circle>
</svg>