<?xml version="1.0" standalone="yes"?>
<!-- SVG graphic -->
<svg xmlns='http://www.w3.org/2000/svg' xmlns:xlink='http://www.w3.org/1999/xlink'
width="8064px" height="3024px" preserveAspectRatio="xMinYMin meet" viewBox="0 0 8064 3024" version="1.1">
<image x="0" y="0" width="4032px" height="3024px" opacity="1" xlink:href="/home/jeong/Code/2D-to-3D-Modeling-using-AI/Make3D/Image/20200227_180633.jpg"/>
<image x="4032" y="0" width="4032px" height="3024px" opacity="1" xlink:href="/home/jeong/Code/2D-to-3D-Modeling-using-AI/Make3D/Image/20200227_180730.jpg"/>
<polyline points="2766.63,2079.44,6099.92,539.761" stroke="rgb(0,255,101)" stroke-width="2" fill="none"></polyline>
<polyline points="563.773,2423.92,6163.11,1073.77" stroke="rgb(233,0,255)" stroke-width="2" fill="none"></polyline>
<polyline points="1507.3,2725.68,5387.24,1085.88" stroke="rgb(0,4,255)" stroke-width="2" fill="none"></polyline>
<polyline points="1061.72,1505.7,6759.83,2133.81" stroke="rgb(255,246,0)" stroke-width="2" fill="none"></polyline>
<polyline points="1115.94,2255.94,5778.05,1162.25" stroke="rgb(169,255,0)" stroke-width="2" fill="none"></polyline>
<polyline points="2179.37,1279.98,6404,1179.7" stroke="rgb(255,246,0)" stroke-width="2" fill="none"></polyline>
<polyline points="942.63,1326.93,6148.87,1187.8" stroke="rgb(0,255,106)" stroke-width="2" fill="none"></polyline>
<polyline points="1792.15,2404.22,6370.93,806.941" stroke="rgb(255,140,0)" stroke-width="2" fill="none"></polyline>
<polyline points="816.738,1658.96,5806.76,2409.82" stroke="rgb(0,255,242)" stroke-width="2" fill="none"></polyline>
<polyline points="1114.17,2139.57,6110.87,1319.25" stroke="rgb(0,255,212)" stroke-width="2" fill="none"></polyline>
<polyline points="2114.3,2257.44,5747.36,1319.85" stroke="rgb(255,0,114)" stroke-width="2" fill="none"></polyline>
<polyline points="1069.18,1461.67,5987.64,858.276" stroke="rgb(255,0,191)" stroke-width="2" fill="none"></polyline>
<polyline points="1423.64,2598.62,5934.17,1373.02" stroke="rgb(0,255,131)" stroke-width="2" fill="none"></polyline>
<polyline points="2672.33,2056.05,6718.26,1413.73" stroke="rgb(0,255,208)" stroke-width="2" fill="none"></polyline>
<polyline points="1613.94,1581.99,6023.51,967.772" stroke="rgb(174,255,0)" stroke-width="2" fill="none"></polyline>
<polyline points="1028.73,2636.16,6438.21,1439.77" stroke="rgb(93,255,0)" stroke-width="2" fill="none"></polyline>
<polyline points="814.462,2417.79,6127.01,1507.3" stroke="rgb(246,255,0)" stroke-width="2" fill="none"></polyline>
<polyline points="776.901,2477.37,6120.65,1501.3" stroke="rgb(0,255,254)" stroke-width="2" fill="none"></polyline>
<polyline points="776.842,2469.75,6121.5,1509.62" stroke="rgb(0,93,255)" stroke-width="2" fill="none"></polyline>
<polyline points="1052.05,2115.2,5980.09,1542.69" stroke="rgb(255,93,0)" stroke-width="2" fill="none"></polyline>
<polyline points="1488.3,2244.15,6606.96,1715.61" stroke="rgb(0,242,255)" stroke-width="2" fill="none"></polyline>
<polyline points="2119.45,2167.74,5932.2,1715.16" stroke="rgb(157,0,255)" stroke-width="2" fill="none"></polyline>
<polyline points="259.127,2000.98,5493.66,523.648" stroke="rgb(255,0,59)" stroke-width="2" fill="none"></polyline>
<polyline points="537.383,2058.83,5324.72,742.057" stroke="rgb(0,255,67)" stroke-width="2" fill="none"></polyline>
<polyline points="2742.61,2009.14,5932.81,1392.14" stroke="rgb(0,233,255)" stroke-width="2" fill="none"></polyline>
<polyline points="1590.47,1629.82,6139.74,909.154" stroke="rgb(89,0,255)" stroke-width="2" fill="none"></polyline>
<polyline points="1590.47,1629.82,6139.74,909.154" stroke="rgb(0,255,123)" stroke-width="2" fill="none"></polyline>
<polyline points="1404.34,1444.57,6021.71,1502.31" stroke="rgb(0,42,255)" stroke-width="2" fill="none"></polyline>
<polyline points="1590.47,1629.82,6215.53,1056.17" stroke="rgb(0,255,212)" stroke-width="2" fill="none"></polyline>
<polyline points="1903.66,2571.56,5898.04,1841.66" stroke="rgb(255,225,0)" stroke-width="2" fill="none"></polyline>
<polyline points="493.247,2178.82,6532.89,1958.82" stroke="rgb(255,0,46)" stroke-width="2" fill="none"></polyline>
<polyline points="1082.39,2476.9,6288.36,696.326" stroke="rgb(255,0,195)" stroke-width="2" fill="none"></polyline>
<polyline points="1590.47,1629.82,6194.78,1666.17" stroke="rgb(255,0,46)" stroke-width="2" fill="none"></polyline>
<polyline points="1590.47,1629.82,6194.78,1666.17" stroke="rgb(84,255,0)" stroke-width="2" fill="none"></polyline>
<polyline points="2679.04,2061.18,6281.04,1309.74" stroke="rgb(17,0,255)" stroke-width="2" fill="none"></polyline>
<circle cx="2766.63" cy="2079.44" r="4" stroke="rgb(0,255,101)" stroke-width="2" fill="none"></circle>
<circle cx="6099.92" cy="539.761" r="4" stroke="rgb(0,255,101)" stroke-width="2" fill="none"></circle>
<circle cx="563.773" cy="2423.92" r="4" stroke="rgb(233,0,255)" stroke-width="2" fill="none"></circle>
<circle cx="6163.11" cy="1073.77" r="4" stroke="rgb(233,0,255)" stroke-width="2" fill="none"></circle>
<circle cx="1507.3" cy="2725.68" r="4" stroke="rgb(0,4,255)" stroke-width="2" fill="none"></circle>
<circle cx="5387.24" cy="1085.88" r="4" stroke="rgb(0,4,255)" stroke-width="2" fill="none"></circle>
<circle cx="1061.72" cy="1505.7" r="4" stroke="rgb(255,246,0)" stroke-width="2" fill="none"></circle>
<circle cx="6759.83" cy="2133.81" r="4" stroke="rgb(255,246,0)" stroke-width="2" fill="none"></circle>
<circle cx="1115.94" cy="2255.94" r="4" stroke="rgb(169,255,0)" stroke-width="2" fill="none"></circle>
<circle cx="5778.05" cy="1162.25" r="4" stroke="rgb(169,255,0)" stroke-width="2" fill="none"></circle>
<circle cx="2179.37" cy="1279.98" r="4" stroke="rgb(255,246,0)" stroke-width="2" fill="none"></circle>
<circle cx="6404" cy="1179.7" r="4" stroke="rgb(255,246,0)" stroke-width="2" fill="none"></circle>
<circle cx="942.63" cy="1326.93" r="4" stroke="rgb(0,255,106)" stroke-width="2" fill="none"></circle>
<circle cx="6148.87" cy="1187.8" r="4" stroke="rgb(0,255,106)" stroke-width="2" fill="none"></circle>
<circle cx="1792.15" cy="2404.22" r="4" stroke="rgb(255,140,0)" stroke-width="2" fill="none"></circle>
<circle cx="6370.93" cy="806.941" r="4" stroke="rgb(255,140,0)" stroke-width="2" fill="none"></circle>
<circle cx="816.738" cy="1658.96" r="4" stroke="rgb(0,255,242)" stroke-width="2" fill="none"></circle>
<circle cx="5806.76" cy="2409.82" r="4" stroke="rgb(0,255,242)" stroke-width="2" fill="none"></circle>
<circle cx="1114.17" cy="2139.57" r="4" stroke="rgb(0,255,212)" stroke-width="2" fill="none"></circle>
<circle cx="6110.87" cy="1319.25" r="4" stroke="rgb(0,255,212)" stroke-width="2" fill="none"></circle>
<circle cx="2114.3" cy="2257.44" r="4" stroke="rgb(255,0,114)" stroke-width="2" fill="none"></circle>
<circle cx="5747.36" cy="1319.85" r="4" stroke="rgb(255,0,114)" stroke-width="2" fill="none"></circle>
<circle cx="1069.18" cy="1461.67" r="4" stroke="rgb(255,0,191)" stroke-width="2" fill="none"></circle>
<circle cx="5987.64" cy="858.276" r="4" stroke="rgb(255,0,191)" stroke-width="2" fill="none"></circle>
<circle cx="1423.64" cy="2598.62" r="4" stroke="rgb(0,255,131)" stroke-width="2" fill="none"></circle>
<circle cx="5934.17" cy="1373.02" r="4" stroke="rgb(0,255,131)" stroke-width="2" fill="none"></circle>
<circle cx="2672.33" cy="2056.05" r="4" stroke="rgb(0,255,208)" stroke-width="2" fill="none"></circle>
<circle cx="6718.26" cy="1413.73" r="4" stroke="rgb(0,255,208)" stroke-width="2" fill="none"></circle>
<circle cx="1613.94" cy="1581.99" r="4" stroke="rgb(174,255,0)" stroke-width="2" fill="none"></circle>
<circle cx="6023.51" cy="967.772" r="4" stroke="rgb(174,255,0)" stroke-width="2" fill="none"></circle>
<circle cx="1028.73" cy="2636.16" r="4" stroke="rgb(93,255,0)" stroke-width="2" fill="none"></circle>
<circle cx="6438.21" cy="1439.77" r="4" stroke="rgb(93,255,0)" stroke-width="2" fill="none"></circle>
<circle cx="814.462" cy="2417.79" r="4" stroke="rgb(246,255,0)" stroke-width="2" fill="none"></circle>
<circle cx="6127.01" cy="1507.3" r="4" stroke="rgb(246,255,0)" stroke-width="2" fill="none"></circle>
<circle cx="776.901" cy="2477.37" r="4" stroke="rgb(0,255,254)" stroke-width="2" fill="none"></circle>
<circle cx="6120.65" cy="1501.3" r="4" stroke="rgb(0,255,254)" stroke-width="2" fill="none"></circle>
<circle cx="776.842" cy="2469.75" r="4" stroke="rgb(0,93,255)" stroke-width="2" fill="none"></circle>
<circle cx="6121.5" cy="1509.62" r="4" stroke="rgb(0,93,255)" stroke-width="2" fill="none"></circle>
<circle cx="1052.05" cy="2115.2" r="4" stroke="rgb(255,93,0)" stroke-width="2" fill="none"></circle>
<circle cx="5980.09" cy="1542.69" r="4" stroke="rgb(255,93,0)" stroke-width="2" fill="none"></circle>
<circle cx="1488.3" cy="2244.15" r="4" stroke="rgb(0,242,255)" stroke-width="2" fill="none"></circle>
<circle cx="6606.96" cy="1715.61" r="4" stroke="rgb(0,242,255)" stroke-width="2" fill="none"></circle>
<circle cx="2119.45" cy="2167.74" r="4" stroke="rgb(157,0,255)" stroke-width="2" fill="none"></circle>
<circle cx="5932.2" cy="1715.16" r="4" stroke="rgb(157,0,255)" stroke-width="2" fill="none"></circle>
<circle cx="259.127" cy="2000.98" r="4" stroke="rgb(255,0,59)" stroke-width="2" fill="none"></circle>
<circle cx="5493.66" cy="523.648" r="4" stroke="rgb(255,0,59)" stroke-width="2" fill="none"></circle>
<circle cx="537.383" cy="2058.83" r="4" stroke="rgb(0,255,67)" stroke-width="2" fill="none"></circle>
<circle cx="5324.72" cy="742.057" r="4" stroke="rgb(0,255,67)" stroke-width="2" fill="none"></circle>
<circle cx="2742.61" cy="2009.14" r="4" stroke="rgb(0,233,255)" stroke-width="2" fill="none"></circle>
<circle cx="5932.81" cy="1392.14" r="4" stroke="rgb(0,233,255)" stroke-width="2" fill="none"></circle>
<circle cx="1590.47" cy="1629.82" r="4" stroke="rgb(89,0,255)" stroke-width="2" fill="none"></circle>
<circle cx="6139.74" cy="909.154" r="4" stroke="rgb(89,0,255)" stroke-width="2" fill="none"></circle>
<circle cx="1590.47" cy="1629.82" r="4" stroke="rgb(0,255,123)" stroke-width="2" fill="none"></circle>
<circle cx="6139.74" cy="909.154" r="4" stroke="rgb(0,255,123)" stroke-width="2" fill="none"></circle>
<circle cx="1404.34" cy="1444.57" r="4" stroke="rgb(0,42,255)" stroke-width="2" fill="none"></circle>
<circle cx="6021.71" cy="1502.31" r="4" stroke="rgb(0,42,255)" stroke-width="2" fill="none"></circle>
<circle cx="1590.47" cy="1629.82" r="4" stroke="rgb(0,255,212)" stroke-width="2" fill="none"></circle>
<circle cx="6215.53" cy="1056.17" r="4" stroke="rgb(0,255,212)" stroke-width="2" fill="none"></circle>
<circle cx="1903.66" cy="2571.56" r="4" stroke="rgb(255,225,0)" stroke-width="2" fill="none"></circle>
<circle cx="5898.04" cy="1841.66" r="4" stroke="rgb(255,225,0)" stroke-width="2" fill="none"></circle>
<circle cx="493.247" cy="2178.82" r="4" stroke="rgb(255,0,46)" stroke-width="2" fill="none"></circle>
<circle cx="6532.89" cy="1958.82" r="4" stroke="rgb(255,0,46)" stroke-width="2" fill="none"></circle>
<circle cx="1082.39" cy="2476.9" r="4" stroke="rgb(255,0,195)" stroke-width="2" fill="none"></circle>
<circle cx="6288.36" cy="696.326" r="4" stroke="rgb(255,0,195)" stroke-width="2" fill="none"></circle>
<circle cx="1590.47" cy="1629.82" r="4" stroke="rgb(255,0,46)" stroke-width="2" fill="none"></circle>
<circle cx="6194.78" cy="1666.17" r="4" stroke="rgb(255,0,46)" stroke-width="2" fill="none"></circle>
<circle cx="1590.47" cy="1629.82" r="4" stroke="rgb(84,255,0)" stroke-width="2" fill="none"></circle>
<circle cx="6194.78" cy="1666.17" r="4" stroke="rgb(84,255,0)" stroke-width="2" fill="none"></circle>
<circle cx="2679.04" cy="2061.18" r="4" stroke="rgb(17,0,255)" stroke-width="2" fill="none"></circle>
<circle cx="6281.04" cy="1309.74" r="4" stroke="rgb(17,0,255)" stroke-width="2" fill="none"></circle>
</svg>