<?xml version="1.0" standalone="yes"?>
<!-- SVG graphic -->
<svg xmlns='http://www.w3.org/2000/svg' xmlns:xlink='http://www.w3.org/1999/xlink'
width="8064px" height="3024px" preserveAspectRatio="xMinYMin meet" viewBox="0 0 8064 3024" version="1.1">
<image x="0" y="0" width="4032px" height="3024px" opacity="1" xlink:href="/home/jeong/Code/2D-to-3D-Modeling-using-AI/Make3D/Image/20200227_180634.jpg"/>
<image x="4032" y="0" width="4032px" height="3024px" opacity="1" xlink:href="/home/jeong/Code/2D-to-3D-Modeling-using-AI/Make3D/Image/20200227_180718.jpg"/>
<polyline points="2734.87,1253.43,6669.29,1220.15" stroke="rgb(199,0,255)" stroke-width="2" fill="none"></polyline>
<polyline points="2280.98,1286.9,6675.64,1295.2" stroke="rgb(255,0,204)" stroke-width="2" fill="none"></polyline>
<polyline points="1919.43,1303.42,4966.69,1426.72" stroke="rgb(255,140,0)" stroke-width="2" fill="none"></polyline>
<polyline points="2665.11,1303.54,6461.51,1134.53" stroke="rgb(25,0,255)" stroke-width="2" fill="none"></polyline>
<polyline points="2424.09,1329.84,5881.68,1114.82" stroke="rgb(255,0,157)" stroke-width="2" fill="none"></polyline>
<polyline points="2727.74,1330.29,6347.94,1253.95" stroke="rgb(165,255,0)" stroke-width="2" fill="none"></polyline>
<polyline points="1736.01,1345.08,5886.07,1129.71" stroke="rgb(0,17,255)" stroke-width="2" fill="none"></polyline>
<polyline points="1531.66,1370.15,6138.66,1187.42" stroke="rgb(0,255,72)" stroke-width="2" fill="none"></polyline>
<polyline points="1802.52,1372.97,5924.16,1735.23" stroke="rgb(233,0,255)" stroke-width="2" fill="none"></polyline>
<polyline points="1780.04,1377.12,4880.96,1738.92" stroke="rgb(59,255,0)" stroke-width="2" fill="none"></polyline>
<polyline points="2562.55,1385.94,6102.63,495.102" stroke="rgb(0,0,255)" stroke-width="2" fill="none"></polyline>
<polyline points="1661.14,1387.9,6586.34,1195.11" stroke="rgb(255,0,33)" stroke-width="2" fill="none"></polyline>
<polyline points="2812.8,1393.71,5698.32,1768.84" stroke="rgb(0,225,255)" stroke-width="2" fill="none"></polyline>
<polyline points="1528.85,1408.04,5940.39,730.874" stroke="rgb(255,0,250)" stroke-width="2" fill="none"></polyline>
<polyline points="1700.94,1414.17,5468.36,1310.25" stroke="rgb(76,255,0)" stroke-width="2" fill="none"></polyline>
<polyline points="1901.5,1434.4,4914.77,1529.07" stroke="rgb(93,0,255)" stroke-width="2" fill="none"></polyline>
<polyline points="1843.14,1488.29,6187.94,1529.1" stroke="rgb(208,255,0)" stroke-width="2" fill="none"></polyline>
<polyline points="1752.11,1501.7,5972,1494.91" stroke="rgb(169,255,0)" stroke-width="2" fill="none"></polyline>
<polyline points="2061.9,1503.83,5760.62,1623.75" stroke="rgb(0,255,76)" stroke-width="2" fill="none"></polyline>
<polyline points="2615.08,1510.67,5907.84,1083.33" stroke="rgb(255,157,0)" stroke-width="2" fill="none"></polyline>
<polyline points="1845.24,1521.71,5867.06,686.494" stroke="rgb(250,0,255)" stroke-width="2" fill="none"></polyline>
<polyline points="2193.32,1527.33,5926.98,1174.41" stroke="rgb(255,0,12)" stroke-width="2" fill="none"></polyline>
<polyline points="1804.21,1527.94,5912.29,1807.02" stroke="rgb(255,0,182)" stroke-width="2" fill="none"></polyline>
<polyline points="2075.53,1530.82,5467.77,1318.87" stroke="rgb(42,0,255)" stroke-width="2" fill="none"></polyline>
<polyline points="2214.26,1543.69,5982.48,716.573" stroke="rgb(221,255,0)" stroke-width="2" fill="none"></polyline>
<polyline points="1144.1,1545.63,5271.04,1659.27" stroke="rgb(127,0,255)" stroke-width="2" fill="none"></polyline>
<polyline points="1863.88,1563.53,5981.34,1181.38" stroke="rgb(153,0,255)" stroke-width="2" fill="none"></polyline>
<polyline points="2139.11,1565.53,5823.21,1641.2" stroke="rgb(255,0,199)" stroke-width="2" fill="none"></polyline>
<polyline points="1870.37,1569.24,6322.28,1465.66" stroke="rgb(59,0,255)" stroke-width="2" fill="none"></polyline>
<polyline points="1439.05,1575.56,5338.94,1711.21" stroke="rgb(255,182,0)" stroke-width="2" fill="none"></polyline>
<polyline points="1846.85,1576.2,6259.79,1560.36" stroke="rgb(0,255,161)" stroke-width="2" fill="none"></polyline>
<polyline points="1871.54,1577.2,5580.02,1670.9" stroke="rgb(0,250,255)" stroke-width="2" fill="none"></polyline>
<polyline points="2074.19,1579.61,5836.44,1673.77" stroke="rgb(255,0,21)" stroke-width="2" fill="none"></polyline>
<polyline points="2020.65,1591.28,5624.37,1586.68" stroke="rgb(237,255,0)" stroke-width="2" fill="none"></polyline>
<polyline points="1972,1594.23,6025.7,1556.82" stroke="rgb(250,0,255)" stroke-width="2" fill="none"></polyline>
<polyline points="1995.77,1594.81,5656.87,1359.28" stroke="rgb(255,0,174)" stroke-width="2" fill="none"></polyline>
<polyline points="1918.6,1594.94,6394.74,1070.58" stroke="rgb(0,255,106)" stroke-width="2" fill="none"></polyline>
<polyline points="2108.16,1612.49,5563.88,1506.8" stroke="rgb(255,204,0)" stroke-width="2" fill="none"></polyline>
<polyline points="2011.95,1613.51,6232.22,1467.08" stroke="rgb(255,0,136)" stroke-width="2" fill="none"></polyline>
<polyline points="2245.87,1617,5709.46,1258.06" stroke="rgb(169,255,0)" stroke-width="2" fill="none"></polyline>
<polyline points="2257.61,1621.45,6041.83,1679.1" stroke="rgb(255,110,0)" stroke-width="2" fill="none"></polyline>
<polyline points="1963.98,1622.7,5941.51,1283.99" stroke="rgb(0,135,255)" stroke-width="2" fill="none"></polyline>
<polyline points="2162.73,1627.27,5541.87,1281.17" stroke="rgb(255,0,237)" stroke-width="2" fill="none"></polyline>
<polyline points="1952.1,1639.99,5649.74,1595.15" stroke="rgb(0,114,255)" stroke-width="2" fill="none"></polyline>
<polyline points="1718.96,1640.09,5605.45,1404.32" stroke="rgb(255,89,0)" stroke-width="2" fill="none"></polyline>
<polyline points="1814.61,1648.57,4957.08,1505.5" stroke="rgb(161,0,255)" stroke-width="2" fill="none"></polyline>
<polyline points="1846.84,1673.56,5037.27,1223.12" stroke="rgb(21,255,0)" stroke-width="2" fill="none"></polyline>
<polyline points="1820.14,1686.03,6448.22,1573.41" stroke="rgb(255,0,153)" stroke-width="2" fill="none"></polyline>
<polyline points="1958.04,1686.97,5278.58,1735.13" stroke="rgb(255,0,8)" stroke-width="2" fill="none"></polyline>
<polyline points="1851.43,1687.87,6663.66,1279.35" stroke="rgb(0,255,25)" stroke-width="2" fill="none"></polyline>
<polyline points="1831.89,1691.71,5498.93,1213.46" stroke="rgb(255,4,0)" stroke-width="2" fill="none"></polyline>
<polyline points="1876.48,1693.88,5506.38,964.073" stroke="rgb(0,255,208)" stroke-width="2" fill="none"></polyline>
<polyline points="3265.81,1714.71,5274.92,1046.68" stroke="rgb(255,0,21)" stroke-width="2" fill="none"></polyline>
<polyline points="3225.89,1719.37,4666.37,1613.99" stroke="rgb(0,208,255)" stroke-width="2" fill="none"></polyline>
<polyline points="1853.18,1729.99,5723.18,1601.58" stroke="rgb(216,0,255)" stroke-width="2" fill="none"></polyline>
<polyline points="1824.92,1733.63,5164.91,1791.13" stroke="rgb(233,0,255)" stroke-width="2" fill="none"></polyline>
<polyline points="3153.44,1794.71,5770.38,952.71" stroke="rgb(255,0,114)" stroke-width="2" fill="none"></polyline>
<polyline points="3126.51,1809.93,5783.25,618.993" stroke="rgb(0,140,255)" stroke-width="2" fill="none"></polyline>
<polyline points="3034.29,1844.21,5574.85,1206.86" stroke="rgb(34,0,255)" stroke-width="2" fill="none"></polyline>
<polyline points="1795.63,1876.75,5335.15,1091.21" stroke="rgb(0,55,255)" stroke-width="2" fill="none"></polyline>
<polyline points="1757.05,1877.5,5550.79,1377.61" stroke="rgb(0,255,12)" stroke-width="2" fill="none"></polyline>
<polyline points="3039.71,1897.6,5396.93,1737.54" stroke="rgb(161,0,255)" stroke-width="2" fill="none"></polyline>
<polyline points="2835.8,1909.09,4760.13,1547.11" stroke="rgb(170,0,255)" stroke-width="2" fill="none"></polyline>
<polyline points="2885.78,1911.22,6119.77,1622.94" stroke="rgb(8,255,0)" stroke-width="2" fill="none"></polyline>
<polyline points="2833.35,1914.77,5563.59,1604.21" stroke="rgb(255,0,76)" stroke-width="2" fill="none"></polyline>
<polyline points="2915.23,1954.13,5113.18,1175.68" stroke="rgb(0,89,255)" stroke-width="2" fill="none"></polyline>
<polyline points="2891.34,1973.65,6453.56,1504.11" stroke="rgb(255,0,216)" stroke-width="2" fill="none"></polyline>
<polyline points="2858.66,1992.2,5713.5,1415.43" stroke="rgb(255,0,4)" stroke-width="2" fill="none"></polyline>
<polyline points="664.192,1998.14,4792.88,1542.73" stroke="rgb(0,255,80)" stroke-width="2" fill="none"></polyline>
<polyline points="2875.42,2000.59,5728.78,1415.79" stroke="rgb(157,0,255)" stroke-width="2" fill="none"></polyline>
<polyline points="3093.01,2002.25,5725.86,1436.3" stroke="rgb(255,0,208)" stroke-width="2" fill="none"></polyline>
<polyline points="2882.96,2003.7,6285.91,1264.68" stroke="rgb(0,255,191)" stroke-width="2" fill="none"></polyline>
<polyline points="2628.52,2006.11,6374.11,1109.42" stroke="rgb(255,0,12)" stroke-width="2" fill="none"></polyline>
<polyline points="3073.39,2008.05,6450.55,1394.19" stroke="rgb(0,255,29)" stroke-width="2" fill="none"></polyline>
<polyline points="3094.22,2010.14,5673.12,1776.1" stroke="rgb(255,80,0)" stroke-width="2" fill="none"></polyline>
<polyline points="2899.84,2022.69,5833.37,1370.43" stroke="rgb(255,76,0)" stroke-width="2" fill="none"></polyline>
<polyline points="2887.07,2023.8,5997.21,1199.5" stroke="rgb(255,195,0)" stroke-width="2" fill="none"></polyline>
<polyline points="2818.27,2040.97,5312.87,1005.31" stroke="rgb(255,25,0)" stroke-width="2" fill="none"></polyline>
<polyline points="2898.12,2047.59,5800.2,1419.21" stroke="rgb(0,110,255)" stroke-width="2" fill="none"></polyline>
<polyline points="2552.93,2048.86,5918.51,881.072" stroke="rgb(153,0,255)" stroke-width="2" fill="none"></polyline>
<polyline points="2882.72,2068.01,5514.62,1669.26" stroke="rgb(255,17,0)" stroke-width="2" fill="none"></polyline>
<polyline points="3113.61,2068.74,6415.54,1618.88" stroke="rgb(0,101,255)" stroke-width="2" fill="none"></polyline>
<polyline points="3035.59,2070.35,6131.72,1192.36" stroke="rgb(144,255,0)" stroke-width="2" fill="none"></polyline>
<polyline points="2852.06,2070.56,5850.5,1252.95" stroke="rgb(255,0,4)" stroke-width="2" fill="none"></polyline>
<polyline points="2920.32,2088.62,6239.31,1382.5" stroke="rgb(165,0,255)" stroke-width="2" fill="none"></polyline>
<polyline points="2878.82,2089.18,5778.11,1434.74" stroke="rgb(255,72,0)" stroke-width="2" fill="none"></polyline>
<polyline points="2827.37,2101.05,6289.55,1441.85" stroke="rgb(229,0,255)" stroke-width="2" fill="none"></polyline>
<polyline points="3090.36,2101.51,5351.84,1620.15" stroke="rgb(50,0,255)" stroke-width="2" fill="none"></polyline>
<polyline points="3091.6,2115.09,5120.43,1357.97" stroke="rgb(97,255,0)" stroke-width="2" fill="none"></polyline>
<polyline points="2424.24,2123.79,5798.47,1027.56" stroke="rgb(255,229,0)" stroke-width="2" fill="none"></polyline>
<polyline points="2912.11,2134.21,5934.12,1301.92" stroke="rgb(255,0,38)" stroke-width="2" fill="none"></polyline>
<polyline points="1386.54,2156.5,4688.44,1607.6" stroke="rgb(0,85,255)" stroke-width="2" fill="none"></polyline>
<polyline points="3022.28,2162.51,5379.34,940.407" stroke="rgb(255,0,114)" stroke-width="2" fill="none"></polyline>
<polyline points="2965.67,2190.59,5508.32,1246.83" stroke="rgb(0,255,97)" stroke-width="2" fill="none"></polyline>
<polyline points="3087.9,2194.39,5803.69,1624.41" stroke="rgb(255,0,93)" stroke-width="2" fill="none"></polyline>
<polyline points="2882.45,2219.03,5520.33,1453.09" stroke="rgb(0,225,255)" stroke-width="2" fill="none"></polyline>
<polyline points="808.391,2226.8,5938.96,1287.82" stroke="rgb(0,25,255)" stroke-width="2" fill="none"></polyline>
<polyline points="2343.15,2230.29,5626.21,1283.96" stroke="rgb(0,255,169)" stroke-width="2" fill="none"></polyline>
<polyline points="1013.58,2236.5,4630.94,1810.73" stroke="rgb(255,250,0)" stroke-width="2" fill="none"></polyline>
<polyline points="2898.76,2240.77,6213.22,1419.47" stroke="rgb(255,59,0)" stroke-width="2" fill="none"></polyline>
<polyline points="2235.74,2244.92,6139.07,925.375" stroke="rgb(182,255,0)" stroke-width="2" fill="none"></polyline>
<polyline points="3077.63,2245.65,6305.72,1446.51" stroke="rgb(255,42,0)" stroke-width="2" fill="none"></polyline>
<polyline points="2903.79,2255.33,6676.72,1215.13" stroke="rgb(0,255,250)" stroke-width="2" fill="none"></polyline>
<polyline points="2896.64,2255.51,5216.64,1035.69" stroke="rgb(191,255,0)" stroke-width="2" fill="none"></polyline>
<polyline points="3061.64,2264.32,6024.06,1500.81" stroke="rgb(255,42,0)" stroke-width="2" fill="none"></polyline>
<polyline points="1182.19,2279.57,5299.96,1073.12" stroke="rgb(212,255,0)" stroke-width="2" fill="none"></polyline>
<polyline points="2634.86,2283.18,5909.13,742.677" stroke="rgb(255,0,148)" stroke-width="2" fill="none"></polyline>
<polyline points="1027.67,2289.34,5198.05,1830.46" stroke="rgb(255,238,0)" stroke-width="2" fill="none"></polyline>
<polyline points="2631.86,2291.63,5855.41,837.351" stroke="rgb(255,0,216)" stroke-width="2" fill="none"></polyline>
<polyline points="2210.48,2304.05,5747.37,1418.99" stroke="rgb(0,255,254)" stroke-width="2" fill="none"></polyline>
<polyline points="3071.6,2309.15,6464.42,1526.43" stroke="rgb(0,153,255)" stroke-width="2" fill="none"></polyline>
<polyline points="2205.49,2314.32,5110.96,1347.06" stroke="rgb(255,0,199)" stroke-width="2" fill="none"></polyline>
<polyline points="1125.66,2323.07,5656.26,997.534" stroke="rgb(118,0,255)" stroke-width="2" fill="none"></polyline>
<polyline points="1486.19,2339.81,5890.25,544.243" stroke="rgb(212,0,255)" stroke-width="2" fill="none"></polyline>
<polyline points="2198.6,2350.22,6119.19,1248.01" stroke="rgb(255,0,199)" stroke-width="2" fill="none"></polyline>
<polyline points="2242.08,2358.35,6261.61,1506.89" stroke="rgb(0,225,255)" stroke-width="2" fill="none"></polyline>
<polyline points="1565.06,2359.05,6126.05,483.569" stroke="rgb(0,255,254)" stroke-width="2" fill="none"></polyline>
<polyline points="1371.67,2361.06,6437.34,1518.56" stroke="rgb(4,255,0)" stroke-width="2" fill="none"></polyline>
<polyline points="1542.33,2368.83,5387.72,1043.53" stroke="rgb(255,0,208)" stroke-width="2" fill="none"></polyline>
<polyline points="1394.49,2369.95,5902.02,1591.16" stroke="rgb(157,0,255)" stroke-width="2" fill="none"></polyline>
<polyline points="2454.32,2386.06,6312.84,609.562" stroke="rgb(0,255,229)" stroke-width="2" fill="none"></polyline>
<polyline points="2339.86,2406.2,5920.31,1388.03" stroke="rgb(255,0,246)" stroke-width="2" fill="none"></polyline>
<polyline points="2208.99,2416.86,5872.59,1360.2" stroke="rgb(255,38,0)" stroke-width="2" fill="none"></polyline>
<polyline points="2226.73,2422.87,6259.84,1501.41" stroke="rgb(0,255,114)" stroke-width="2" fill="none"></polyline>
<polyline points="2253.93,2423.68,6158.28,1171.56" stroke="rgb(148,255,0)" stroke-width="2" fill="none"></polyline>
<polyline points="1604.36,2425.02,5964.4,726.287" stroke="rgb(255,0,55)" stroke-width="2" fill="none"></polyline>
<polyline points="2350.07,2430.97,6192.7,1616.03" stroke="rgb(0,144,255)" stroke-width="2" fill="none"></polyline>
<polyline points="1616.13,2436.74,5782.64,619.216" stroke="rgb(255,0,174)" stroke-width="2" fill="none"></polyline>
<polyline points="2357.9,2453.93,5967.86,1335.37" stroke="rgb(0,255,114)" stroke-width="2" fill="none"></polyline>
<polyline points="2393.34,2477.64,6154.88,1450.5" stroke="rgb(106,0,255)" stroke-width="2" fill="none"></polyline>
<polyline points="2237.27,2490.03,6415.13,1588.21" stroke="rgb(255,0,114)" stroke-width="2" fill="none"></polyline>
<polyline points="2401.17,2502.05,5994.92,496.377" stroke="rgb(97,255,0)" stroke-width="2" fill="none"></polyline>
<polyline points="2393.75,2525.55,5953.89,935.877" stroke="rgb(0,255,118)" stroke-width="2" fill="none"></polyline>
<polyline points="1250.39,2550.87,6262.63,1111.96" stroke="rgb(255,106,0)" stroke-width="2" fill="none"></polyline>
<polyline points="1368,2586.97,6537.7,1341.04" stroke="rgb(255,187,0)" stroke-width="2" fill="none"></polyline>
<polyline points="1354.86,2591.26,6230.01,1197.44" stroke="rgb(0,255,161)" stroke-width="2" fill="none"></polyline>
<polyline points="2376.91,2597.91,6632.07,1327.5" stroke="rgb(106,255,0)" stroke-width="2" fill="none"></polyline>
<polyline points="2000.31,2599.72,6550.9,718.804" stroke="rgb(4,0,255)" stroke-width="2" fill="none"></polyline>
<polyline points="2372.79,2602.69,4579.86,1707.76" stroke="rgb(144,255,0)" stroke-width="2" fill="none"></polyline>
<polyline points="2131.91,2603.72,6281.38,1545.08" stroke="rgb(255,187,0)" stroke-width="2" fill="none"></polyline>
<polyline points="2154.81,2641.51,5695.67,1398.98" stroke="rgb(250,255,0)" stroke-width="2" fill="none"></polyline>
<polyline points="2323.1,2646.87,6222.46,921.049" stroke="rgb(212,0,255)" stroke-width="2" fill="none"></polyline>
<polyline points="2164.39,2688.94,6219.65,1397.33" stroke="rgb(255,0,8)" stroke-width="2" fill="none"></polyline>
<polyline points="1534.6,2704.26,5436.26,930.073" stroke="rgb(0,165,255)" stroke-width="2" fill="none"></polyline>
<polyline points="2143.61,2714.35,6408.02,1525.86" stroke="rgb(114,255,0)" stroke-width="2" fill="none"></polyline>
<polyline points="2011.07,2737.19,5085.42,1495.25" stroke="rgb(0,242,255)" stroke-width="2" fill="none"></polyline>
<polyline points="2012.43,2744.03,5169.9,1610.89" stroke="rgb(255,119,0)" stroke-width="2" fill="none"></polyline>
<polyline points="2126.01,2760.89,5506.53,1317.01" stroke="rgb(140,0,255)" stroke-width="2" fill="none"></polyline>
<polyline points="2117.07,2763.19,5627.82,1452.5" stroke="rgb(255,0,246)" stroke-width="2" fill="none"></polyline>
<polyline points="2058.46,2784.41,6586.35,1128.83" stroke="rgb(255,0,89)" stroke-width="2" fill="none"></polyline>
<polyline points="1664.55,2786.28,5802.75,1214.82" stroke="rgb(246,255,0)" stroke-width="2" fill="none"></polyline>
<circle cx="2734.87" cy="1253.43" r="4" stroke="rgb(199,0,255)" stroke-width="2" fill="none"></circle>
<circle cx="6669.29" cy="1220.15" r="4" stroke="rgb(199,0,255)" stroke-width="2" fill="none"></circle>
<circle cx="2280.98" cy="1286.9" r="4" stroke="rgb(255,0,204)" stroke-width="2" fill="none"></circle>
<circle cx="6675.64" cy="1295.2" r="4" stroke="rgb(255,0,204)" stroke-width="2" fill="none"></circle>
<circle cx="1919.43" cy="1303.42" r="4" stroke="rgb(255,140,0)" stroke-width="2" fill="none"></circle>
<circle cx="4966.69" cy="1426.72" r="4" stroke="rgb(255,140,0)" stroke-width="2" fill="none"></circle>
<circle cx="2665.11" cy="1303.54" r="4" stroke="rgb(25,0,255)" stroke-width="2" fill="none"></circle>
<circle cx="6461.51" cy="1134.53" r="4" stroke="rgb(25,0,255)" stroke-width="2" fill="none"></circle>
<circle cx="2424.09" cy="1329.84" r="4" stroke="rgb(255,0,157)" stroke-width="2" fill="none"></circle>
<circle cx="5881.68" cy="1114.82" r="4" stroke="rgb(255,0,157)" stroke-width="2" fill="none"></circle>
<circle cx="2727.74" cy="1330.29" r="4" stroke="rgb(165,255,0)" stroke-width="2" fill="none"></circle>
<circle cx="6347.94" cy="1253.95" r="4" stroke="rgb(165,255,0)" stroke-width="2" fill="none"></circle>
<circle cx="1736.01" cy="1345.08" r="4" stroke="rgb(0,17,255)" stroke-width="2" fill="none"></circle>
<circle cx="5886.07" cy="1129.71" r="4" stroke="rgb(0,17,255)" stroke-width="2" fill="none"></circle>
<circle cx="1531.66" cy="1370.15" r="4" stroke="rgb(0,255,72)" stroke-width="2" fill="none"></circle>
<circle cx="6138.66" cy="1187.42" r="4" stroke="rgb(0,255,72)" stroke-width="2" fill="none"></circle>
<circle cx="1802.52" cy="1372.97" r="4" stroke="rgb(233,0,255)" stroke-width="2" fill="none"></circle>
<circle cx="5924.16" cy="1735.23" r="4" stroke="rgb(233,0,255)" stroke-width="2" fill="none"></circle>
<circle cx="1780.04" cy="1377.12" r="4" stroke="rgb(59,255,0)" stroke-width="2" fill="none"></circle>
<circle cx="4880.96" cy="1738.92" r="4" stroke="rgb(59,255,0)" stroke-width="2" fill="none"></circle>
<circle cx="2562.55" cy="1385.94" r="4" stroke="rgb(0,0,255)" stroke-width="2" fill="none"></circle>
<circle cx="6102.63" cy="495.102" r="4" stroke="rgb(0,0,255)" stroke-width="2" fill="none"></circle>
<circle cx="1661.14" cy="1387.9" r="4" stroke="rgb(255,0,33)" stroke-width="2" fill="none"></circle>
<circle cx="6586.34" cy="1195.11" r="4" stroke="rgb(255,0,33)" stroke-width="2" fill="none"></circle>
<circle cx="2812.8" cy="1393.71" r="4" stroke="rgb(0,225,255)" stroke-width="2" fill="none"></circle>
<circle cx="5698.32" cy="1768.84" r="4" stroke="rgb(0,225,255)" stroke-width="2" fill="none"></circle>
<circle cx="1528.85" cy="1408.04" r="4" stroke="rgb(255,0,250)" stroke-width="2" fill="none"></circle>
<circle cx="5940.39" cy="730.874" r="4" stroke="rgb(255,0,250)" stroke-width="2" fill="none"></circle>
<circle cx="1700.94" cy="1414.17" r="4" stroke="rgb(76,255,0)" stroke-width="2" fill="none"></circle>
<circle cx="5468.36" cy="1310.25" r="4" stroke="rgb(76,255,0)" stroke-width="2" fill="none"></circle>
<circle cx="1901.5" cy="1434.4" r="4" stroke="rgb(93,0,255)" stroke-width="2" fill="none"></circle>
<circle cx="4914.77" cy="1529.07" r="4" stroke="rgb(93,0,255)" stroke-width="2" fill="none"></circle>
<circle cx="1843.14" cy="1488.29" r="4" stroke="rgb(208,255,0)" stroke-width="2" fill="none"></circle>
<circle cx="6187.94" cy="1529.1" r="4" stroke="rgb(208,255,0)" stroke-width="2" fill="none"></circle>
<circle cx="1752.11" cy="1501.7" r="4" stroke="rgb(169,255,0)" stroke-width="2" fill="none"></circle>
<circle cx="5972" cy="1494.91" r="4" stroke="rgb(169,255,0)" stroke-width="2" fill="none"></circle>
<circle cx="2061.9" cy="1503.83" r="4" stroke="rgb(0,255,76)" stroke-width="2" fill="none"></circle>
<circle cx="5760.62" cy="1623.75" r="4" stroke="rgb(0,255,76)" stroke-width="2" fill="none"></circle>
<circle cx="2615.08" cy="1510.67" r="4" stroke="rgb(255,157,0)" stroke-width="2" fill="none"></circle>
<circle cx="5907.84" cy="1083.33" r="4" stroke="rgb(255,157,0)" stroke-width="2" fill="none"></circle>
<circle cx="1845.24" cy="1521.71" r="4" stroke="rgb(250,0,255)" stroke-width="2" fill="none"></circle>
<circle cx="5867.06" cy="686.494" r="4" stroke="rgb(250,0,255)" stroke-width="2" fill="none"></circle>
<circle cx="2193.32" cy="1527.33" r="4" stroke="rgb(255,0,12)" stroke-width="2" fill="none"></circle>
<circle cx="5926.98" cy="1174.41" r="4" stroke="rgb(255,0,12)" stroke-width="2" fill="none"></circle>
<circle cx="1804.21" cy="1527.94" r="4" stroke="rgb(255,0,182)" stroke-width="2" fill="none"></circle>
<circle cx="5912.29" cy="1807.02" r="4" stroke="rgb(255,0,182)" stroke-width="2" fill="none"></circle>
<circle cx="2075.53" cy="1530.82" r="4" stroke="rgb(42,0,255)" stroke-width="2" fill="none"></circle>
<circle cx="5467.77" cy="1318.87" r="4" stroke="rgb(42,0,255)" stroke-width="2" fill="none"></circle>
<circle cx="2214.26" cy="1543.69" r="4" stroke="rgb(221,255,0)" stroke-width="2" fill="none"></circle>
<circle cx="5982.48" cy="716.573" r="4" stroke="rgb(221,255,0)" stroke-width="2" fill="none"></circle>
<circle cx="1144.1" cy="1545.63" r="4" stroke="rgb(127,0,255)" stroke-width="2" fill="none"></circle>
<circle cx="5271.04" cy="1659.27" r="4" stroke="rgb(127,0,255)" stroke-width="2" fill="none"></circle>
<circle cx="1863.88" cy="1563.53" r="4" stroke="rgb(153,0,255)" stroke-width="2" fill="none"></circle>
<circle cx="5981.34" cy="1181.38" r="4" stroke="rgb(153,0,255)" stroke-width="2" fill="none"></circle>
<circle cx="2139.11" cy="1565.53" r="4" stroke="rgb(255,0,199)" stroke-width="2" fill="none"></circle>
<circle cx="5823.21" cy="1641.2" r="4" stroke="rgb(255,0,199)" stroke-width="2" fill="none"></circle>
<circle cx="1870.37" cy="1569.24" r="4" stroke="rgb(59,0,255)" stroke-width="2" fill="none"></circle>
<circle cx="6322.28" cy="1465.66" r="4" stroke="rgb(59,0,255)" stroke-width="2" fill="none"></circle>
<circle cx="1439.05" cy="1575.56" r="4" stroke="rgb(255,182,0)" stroke-width="2" fill="none"></circle>
<circle cx="5338.94" cy="1711.21" r="4" stroke="rgb(255,182,0)" stroke-width="2" fill="none"></circle>
<circle cx="1846.85" cy="1576.2" r="4" stroke="rgb(0,255,161)" stroke-width="2" fill="none"></circle>
<circle cx="6259.79" cy="1560.36" r="4" stroke="rgb(0,255,161)" stroke-width="2" fill="none"></circle>
<circle cx="1871.54" cy="1577.2" r="4" stroke="rgb(0,250,255)" stroke-width="2" fill="none"></circle>
<circle cx="5580.02" cy="1670.9" r="4" stroke="rgb(0,250,255)" stroke-width="2" fill="none"></circle>
<circle cx="2074.19" cy="1579.61" r="4" stroke="rgb(255,0,21)" stroke-width="2" fill="none"></circle>
<circle cx="5836.44" cy="1673.77" r="4" stroke="rgb(255,0,21)" stroke-width="2" fill="none"></circle>
<circle cx="2020.65" cy="1591.28" r="4" stroke="rgb(237,255,0)" stroke-width="2" fill="none"></circle>
<circle cx="5624.37" cy="1586.68" r="4" stroke="rgb(237,255,0)" stroke-width="2" fill="none"></circle>
<circle cx="1972" cy="1594.23" r="4" stroke="rgb(250,0,255)" stroke-width="2" fill="none"></circle>
<circle cx="6025.7" cy="1556.82" r="4" stroke="rgb(250,0,255)" stroke-width="2" fill="none"></circle>
<circle cx="1995.77" cy="1594.81" r="4" stroke="rgb(255,0,174)" stroke-width="2" fill="none"></circle>
<circle cx="5656.87" cy="1359.28" r="4" stroke="rgb(255,0,174)" stroke-width="2" fill="none"></circle>
<circle cx="1918.6" cy="1594.94" r="4" stroke="rgb(0,255,106)" stroke-width="2" fill="none"></circle>
<circle cx="6394.74" cy="1070.58" r="4" stroke="rgb(0,255,106)" stroke-width="2" fill="none"></circle>
<circle cx="2108.16" cy="1612.49" r="4" stroke="rgb(255,204,0)" stroke-width="2" fill="none"></circle>
<circle cx="5563.88" cy="1506.8" r="4" stroke="rgb(255,204,0)" stroke-width="2" fill="none"></circle>
<circle cx="2011.95" cy="1613.51" r="4" stroke="rgb(255,0,136)" stroke-width="2" fill="none"></circle>
<circle cx="6232.22" cy="1467.08" r="4" stroke="rgb(255,0,136)" stroke-width="2" fill="none"></circle>
<circle cx="2245.87" cy="1617" r="4" stroke="rgb(169,255,0)" stroke-width="2" fill="none"></circle>
<circle cx="5709.46" cy="1258.06" r="4" stroke="rgb(169,255,0)" stroke-width="2" fill="none"></circle>
<circle cx="2257.61" cy="1621.45" r="4" stroke="rgb(255,110,0)" stroke-width="2" fill="none"></circle>
<circle cx="6041.83" cy="1679.1" r="4" stroke="rgb(255,110,0)" stroke-width="2" fill="none"></circle>
<circle cx="1963.98" cy="1622.7" r="4" stroke="rgb(0,135,255)" stroke-width="2" fill="none"></circle>
<circle cx="5941.51" cy="1283.99" r="4" stroke="rgb(0,135,255)" stroke-width="2" fill="none"></circle>
<circle cx="2162.73" cy="1627.27" r="4" stroke="rgb(255,0,237)" stroke-width="2" fill="none"></circle>
<circle cx="5541.87" cy="1281.17" r="4" stroke="rgb(255,0,237)" stroke-width="2" fill="none"></circle>
<circle cx="1952.1" cy="1639.99" r="4" stroke="rgb(0,114,255)" stroke-width="2" fill="none"></circle>
<circle cx="5649.74" cy="1595.15" r="4" stroke="rgb(0,114,255)" stroke-width="2" fill="none"></circle>
<circle cx="1718.96" cy="1640.09" r="4" stroke="rgb(255,89,0)" stroke-width="2" fill="none"></circle>
<circle cx="5605.45" cy="1404.32" r="4" stroke="rgb(255,89,0)" stroke-width="2" fill="none"></circle>
<circle cx="1814.61" cy="1648.57" r="4" stroke="rgb(161,0,255)" stroke-width="2" fill="none"></circle>
<circle cx="4957.08" cy="1505.5" r="4" stroke="rgb(161,0,255)" stroke-width="2" fill="none"></circle>
<circle cx="1846.84" cy="1673.56" r="4" stroke="rgb(21,255,0)" stroke-width="2" fill="none"></circle>
<circle cx="5037.27" cy="1223.12" r="4" stroke="rgb(21,255,0)" stroke-width="2" fill="none"></circle>
<circle cx="1820.14" cy="1686.03" r="4" stroke="rgb(255,0,153)" stroke-width="2" fill="none"></circle>
<circle cx="6448.22" cy="1573.41" r="4" stroke="rgb(255,0,153)" stroke-width="2" fill="none"></circle>
<circle cx="1958.04" cy="1686.97" r="4" stroke="rgb(255,0,8)" stroke-width="2" fill="none"></circle>
<circle cx="5278.58" cy="1735.13" r="4" stroke="rgb(255,0,8)" stroke-width="2" fill="none"></circle>
<circle cx="1851.43" cy="1687.87" r="4" stroke="rgb(0,255,25)" stroke-width="2" fill="none"></circle>
<circle cx="6663.66" cy="1279.35" r="4" stroke="rgb(0,255,25)" stroke-width="2" fill="none"></circle>
<circle cx="1831.89" cy="1691.71" r="4" stroke="rgb(255,4,0)" stroke-width="2" fill="none"></circle>
<circle cx="5498.93" cy="1213.46" r="4" stroke="rgb(255,4,0)" stroke-width="2" fill="none"></circle>
<circle cx="1876.48" cy="1693.88" r="4" stroke="rgb(0,255,208)" stroke-width="2" fill="none"></circle>
<circle cx="5506.38" cy="964.073" r="4" stroke="rgb(0,255,208)" stroke-width="2" fill="none"></circle>
<circle cx="3265.81" cy="1714.71" r="4" stroke="rgb(255,0,21)" stroke-width="2" fill="none"></circle>
<circle cx="5274.92" cy="1046.68" r="4" stroke="rgb(255,0,21)" stroke-width="2" fill="none"></circle>
<circle cx="3225.89" cy="1719.37" r="4" stroke="rgb(0,208,255)" stroke-width="2" fill="none"></circle>
<circle cx="4666.37" cy="1613.99" r="4" stroke="rgb(0,208,255)" stroke-width="2" fill="none"></circle>
<circle cx="1853.18" cy="1729.99" r="4" stroke="rgb(216,0,255)" stroke-width="2" fill="none"></circle>
<circle cx="5723.18" cy="1601.58" r="4" stroke="rgb(216,0,255)" stroke-width="2" fill="none"></circle>
<circle cx="1824.92" cy="1733.63" r="4" stroke="rgb(233,0,255)" stroke-width="2" fill="none"></circle>
<circle cx="5164.91" cy="1791.13" r="4" stroke="rgb(233,0,255)" stroke-width="2" fill="none"></circle>
<circle cx="3153.44" cy="1794.71" r="4" stroke="rgb(255,0,114)" stroke-width="2" fill="none"></circle>
<circle cx="5770.38" cy="952.71" r="4" stroke="rgb(255,0,114)" stroke-width="2" fill="none"></circle>
<circle cx="3126.51" cy="1809.93" r="4" stroke="rgb(0,140,255)" stroke-width="2" fill="none"></circle>
<circle cx="5783.25" cy="618.993" r="4" stroke="rgb(0,140,255)" stroke-width="2" fill="none"></circle>
<circle cx="3034.29" cy="1844.21" r="4" stroke="rgb(34,0,255)" stroke-width="2" fill="none"></circle>
<circle cx="5574.85" cy="1206.86" r="4" stroke="rgb(34,0,255)" stroke-width="2" fill="none"></circle>
<circle cx="1795.63" cy="1876.75" r="4" stroke="rgb(0,55,255)" stroke-width="2" fill="none"></circle>
<circle cx="5335.15" cy="1091.21" r="4" stroke="rgb(0,55,255)" stroke-width="2" fill="none"></circle>
<circle cx="1757.05" cy="1877.5" r="4" stroke="rgb(0,255,12)" stroke-width="2" fill="none"></circle>
<circle cx="5550.79" cy="1377.61" r="4" stroke="rgb(0,255,12)" stroke-width="2" fill="none"></circle>
<circle cx="3039.71" cy="1897.6" r="4" stroke="rgb(161,0,255)" stroke-width="2" fill="none"></circle>
<circle cx="5396.93" cy="1737.54" r="4" stroke="rgb(161,0,255)" stroke-width="2" fill="none"></circle>
<circle cx="2835.8" cy="1909.09" r="4" stroke="rgb(170,0,255)" stroke-width="2" fill="none"></circle>
<circle cx="4760.13" cy="1547.11" r="4" stroke="rgb(170,0,255)" stroke-width="2" fill="none"></circle>
<circle cx="2885.78" cy="1911.22" r="4" stroke="rgb(8,255,0)" stroke-width="2" fill="none"></circle>
<circle cx="6119.77" cy="1622.94" r="4" stroke="rgb(8,255,0)" stroke-width="2" fill="none"></circle>
<circle cx="2833.35" cy="1914.77" r="4" stroke="rgb(255,0,76)" stroke-width="2" fill="none"></circle>
<circle cx="5563.59" cy="1604.21" r="4" stroke="rgb(255,0,76)" stroke-width="2" fill="none"></circle>
<circle cx="2915.23" cy="1954.13" r="4" stroke="rgb(0,89,255)" stroke-width="2" fill="none"></circle>
<circle cx="5113.18" cy="1175.68" r="4" stroke="rgb(0,89,255)" stroke-width="2" fill="none"></circle>
<circle cx="2891.34" cy="1973.65" r="4" stroke="rgb(255,0,216)" stroke-width="2" fill="none"></circle>
<circle cx="6453.56" cy="1504.11" r="4" stroke="rgb(255,0,216)" stroke-width="2" fill="none"></circle>
<circle cx="2858.66" cy="1992.2" r="4" stroke="rgb(255,0,4)" stroke-width="2" fill="none"></circle>
<circle cx="5713.5" cy="1415.43" r="4" stroke="rgb(255,0,4)" stroke-width="2" fill="none"></circle>
<circle cx="664.192" cy="1998.14" r="4" stroke="rgb(0,255,80)" stroke-width="2" fill="none"></circle>
<circle cx="4792.88" cy="1542.73" r="4" stroke="rgb(0,255,80)" stroke-width="2" fill="none"></circle>
<circle cx="2875.42" cy="2000.59" r="4" stroke="rgb(157,0,255)" stroke-width="2" fill="none"></circle>
<circle cx="5728.78" cy="1415.79" r="4" stroke="rgb(157,0,255)" stroke-width="2" fill="none"></circle>
<circle cx="3093.01" cy="2002.25" r="4" stroke="rgb(255,0,208)" stroke-width="2" fill="none"></circle>
<circle cx="5725.86" cy="1436.3" r="4" stroke="rgb(255,0,208)" stroke-width="2" fill="none"></circle>
<circle cx="2882.96" cy="2003.7" r="4" stroke="rgb(0,255,191)" stroke-width="2" fill="none"></circle>
<circle cx="6285.91" cy="1264.68" r="4" stroke="rgb(0,255,191)" stroke-width="2" fill="none"></circle>
<circle cx="2628.52" cy="2006.11" r="4" stroke="rgb(255,0,12)" stroke-width="2" fill="none"></circle>
<circle cx="6374.11" cy="1109.42" r="4" stroke="rgb(255,0,12)" stroke-width="2" fill="none"></circle>
<circle cx="3073.39" cy="2008.05" r="4" stroke="rgb(0,255,29)" stroke-width="2" fill="none"></circle>
<circle cx="6450.55" cy="1394.19" r="4" stroke="rgb(0,255,29)" stroke-width="2" fill="none"></circle>
<circle cx="3094.22" cy="2010.14" r="4" stroke="rgb(255,80,0)" stroke-width="2" fill="none"></circle>
<circle cx="5673.12" cy="1776.1" r="4" stroke="rgb(255,80,0)" stroke-width="2" fill="none"></circle>
<circle cx="2899.84" cy="2022.69" r="4" stroke="rgb(255,76,0)" stroke-width="2" fill="none"></circle>
<circle cx="5833.37" cy="1370.43" r="4" stroke="rgb(255,76,0)" stroke-width="2" fill="none"></circle>
<circle cx="2887.07" cy="2023.8" r="4" stroke="rgb(255,195,0)" stroke-width="2" fill="none"></circle>
<circle cx="5997.21" cy="1199.5" r="4" stroke="rgb(255,195,0)" stroke-width="2" fill="none"></circle>
<circle cx="2818.27" cy="2040.97" r="4" stroke="rgb(255,25,0)" stroke-width="2" fill="none"></circle>
<circle cx="5312.87" cy="1005.31" r="4" stroke="rgb(255,25,0)" stroke-width="2" fill="none"></circle>
<circle cx="2898.12" cy="2047.59" r="4" stroke="rgb(0,110,255)" stroke-width="2" fill="none"></circle>
<circle cx="5800.2" cy="1419.21" r="4" stroke="rgb(0,110,255)" stroke-width="2" fill="none"></circle>
<circle cx="2552.93" cy="2048.86" r="4" stroke="rgb(153,0,255)" stroke-width="2" fill="none"></circle>
<circle cx="5918.51" cy="881.072" r="4" stroke="rgb(153,0,255)" stroke-width="2" fill="none"></circle>
<circle cx="2882.72" cy="2068.01" r="4" stroke="rgb(255,17,0)" stroke-width="2" fill="none"></circle>
<circle cx="5514.62" cy="1669.26" r="4" stroke="rgb(255,17,0)" stroke-width="2" fill="none"></circle>
<circle cx="3113.61" cy="2068.74" r="4" stroke="rgb(0,101,255)" stroke-width="2" fill="none"></circle>
<circle cx="6415.54" cy="1618.88" r="4" stroke="rgb(0,101,255)" stroke-width="2" fill="none"></circle>
<circle cx="3035.59" cy="2070.35" r="4" stroke="rgb(144,255,0)" stroke-width="2" fill="none"></circle>
<circle cx="6131.72" cy="1192.36" r="4" stroke="rgb(144,255,0)" stroke-width="2" fill="none"></circle>
<circle cx="2852.06" cy="2070.56" r="4" stroke="rgb(255,0,4)" stroke-width="2" fill="none"></circle>
<circle cx="5850.5" cy="1252.95" r="4" stroke="rgb(255,0,4)" stroke-width="2" fill="none"></circle>
<circle cx="2920.32" cy="2088.62" r="4" stroke="rgb(165,0,255)" stroke-width="2" fill="none"></circle>
<circle cx="6239.31" cy="1382.5" r="4" stroke="rgb(165,0,255)" stroke-width="2" fill="none"></circle>
<circle cx="2878.82" cy="2089.18" r="4" stroke="rgb(255,72,0)" stroke-width="2" fill="none"></circle>
<circle cx="5778.11" cy="1434.74" r="4" stroke="rgb(255,72,0)" stroke-width="2" fill="none"></circle>
<circle cx="2827.37" cy="2101.05" r="4" stroke="rgb(229,0,255)" stroke-width="2" fill="none"></circle>
<circle cx="6289.55" cy="1441.85" r="4" stroke="rgb(229,0,255)" stroke-width="2" fill="none"></circle>
<circle cx="3090.36" cy="2101.51" r="4" stroke="rgb(50,0,255)" stroke-width="2" fill="none"></circle>
<circle cx="5351.84" cy="1620.15" r="4" stroke="rgb(50,0,255)" stroke-width="2" fill="none"></circle>
<circle cx="3091.6" cy="2115.09" r="4" stroke="rgb(97,255,0)" stroke-width="2" fill="none"></circle>
<circle cx="5120.43" cy="1357.97" r="4" stroke="rgb(97,255,0)" stroke-width="2" fill="none"></circle>
<circle cx="2424.24" cy="2123.79" r="4" stroke="rgb(255,229,0)" stroke-width="2" fill="none"></circle>
<circle cx="5798.47" cy="1027.56" r="4" stroke="rgb(255,229,0)" stroke-width="2" fill="none"></circle>
<circle cx="2912.11" cy="2134.21" r="4" stroke="rgb(255,0,38)" stroke-width="2" fill="none"></circle>
<circle cx="5934.12" cy="1301.92" r="4" stroke="rgb(255,0,38)" stroke-width="2" fill="none"></circle>
<circle cx="1386.54" cy="2156.5" r="4" stroke="rgb(0,85,255)" stroke-width="2" fill="none"></circle>
<circle cx="4688.44" cy="1607.6" r="4" stroke="rgb(0,85,255)" stroke-width="2" fill="none"></circle>
<circle cx="3022.28" cy="2162.51" r="4" stroke="rgb(255,0,114)" stroke-width="2" fill="none"></circle>
<circle cx="5379.34" cy="940.407" r="4" stroke="rgb(255,0,114)" stroke-width="2" fill="none"></circle>
<circle cx="2965.67" cy="2190.59" r="4" stroke="rgb(0,255,97)" stroke-width="2" fill="none"></circle>
<circle cx="5508.32" cy="1246.83" r="4" stroke="rgb(0,255,97)" stroke-width="2" fill="none"></circle>
<circle cx="3087.9" cy="2194.39" r="4" stroke="rgb(255,0,93)" stroke-width="2" fill="none"></circle>
<circle cx="5803.69" cy="1624.41" r="4" stroke="rgb(255,0,93)" stroke-width="2" fill="none"></circle>
<circle cx="2882.45" cy="2219.03" r="4" stroke="rgb(0,225,255)" stroke-width="2" fill="none"></circle>
<circle cx="5520.33" cy="1453.09" r="4" stroke="rgb(0,225,255)" stroke-width="2" fill="none"></circle>
<circle cx="808.391" cy="2226.8" r="4" stroke="rgb(0,25,255)" stroke-width="2" fill="none"></circle>
<circle cx="5938.96" cy="1287.82" r="4" stroke="rgb(0,25,255)" stroke-width="2" fill="none"></circle>
<circle cx="2343.15" cy="2230.29" r="4" stroke="rgb(0,255,169)" stroke-width="2" fill="none"></circle>
<circle cx="5626.21" cy="1283.96" r="4" stroke="rgb(0,255,169)" stroke-width="2" fill="none"></circle>
<circle cx="1013.58" cy="2236.5" r="4" stroke="rgb(255,250,0)" stroke-width="2" fill="none"></circle>
<circle cx="4630.94" cy="1810.73" r="4" stroke="rgb(255,250,0)" stroke-width="2" fill="none"></circle>
<circle cx="2898.76" cy="2240.77" r="4" stroke="rgb(255,59,0)" stroke-width="2" fill="none"></circle>
<circle cx="6213.22" cy="1419.47" r="4" stroke="rgb(255,59,0)" stroke-width="2" fill="none"></circle>
<circle cx="2235.74" cy="2244.92" r="4" stroke="rgb(182,255,0)" stroke-width="2" fill="none"></circle>
<circle cx="6139.07" cy="925.375" r="4" stroke="rgb(182,255,0)" stroke-width="2" fill="none"></circle>
<circle cx="3077.63" cy="2245.65" r="4" stroke="rgb(255,42,0)" stroke-width="2" fill="none"></circle>
<circle cx="6305.72" cy="1446.51" r="4" stroke="rgb(255,42,0)" stroke-width="2" fill="none"></circle>
<circle cx="2903.79" cy="2255.33" r="4" stroke="rgb(0,255,250)" stroke-width="2" fill="none"></circle>
<circle cx="6676.72" cy="1215.13" r="4" stroke="rgb(0,255,250)" stroke-width="2" fill="none"></circle>
<circle cx="2896.64" cy="2255.51" r="4" stroke="rgb(191,255,0)" stroke-width="2" fill="none"></circle>
<circle cx="5216.64" cy="1035.69" r="4" stroke="rgb(191,255,0)" stroke-width="2" fill="none"></circle>
<circle cx="3061.64" cy="2264.32" r="4" stroke="rgb(255,42,0)" stroke-width="2" fill="none"></circle>
<circle cx="6024.06" cy="1500.81" r="4" stroke="rgb(255,42,0)" stroke-width="2" fill="none"></circle>
<circle cx="1182.19" cy="2279.57" r="4" stroke="rgb(212,255,0)" stroke-width="2" fill="none"></circle>
<circle cx="5299.96" cy="1073.12" r="4" stroke="rgb(212,255,0)" stroke-width="2" fill="none"></circle>
<circle cx="2634.86" cy="2283.18" r="4" stroke="rgb(255,0,148)" stroke-width="2" fill="none"></circle>
<circle cx="5909.13" cy="742.677" r="4" stroke="rgb(255,0,148)" stroke-width="2" fill="none"></circle>
<circle cx="1027.67" cy="2289.34" r="4" stroke="rgb(255,238,0)" stroke-width="2" fill="none"></circle>
<circle cx="5198.05" cy="1830.46" r="4" stroke="rgb(255,238,0)" stroke-width="2" fill="none"></circle>
<circle cx="2631.86" cy="2291.63" r="4" stroke="rgb(255,0,216)" stroke-width="2" fill="none"></circle>
<circle cx="5855.41" cy="837.351" r="4" stroke="rgb(255,0,216)" stroke-width="2" fill="none"></circle>
<circle cx="2210.48" cy="2304.05" r="4" stroke="rgb(0,255,254)" stroke-width="2" fill="none"></circle>
<circle cx="5747.37" cy="1418.99" r="4" stroke="rgb(0,255,254)" stroke-width="2" fill="none"></circle>
<circle cx="3071.6" cy="2309.15" r="4" stroke="rgb(0,153,255)" stroke-width="2" fill="none"></circle>
<circle cx="6464.42" cy="1526.43" r="4" stroke="rgb(0,153,255)" stroke-width="2" fill="none"></circle>
<circle cx="2205.49" cy="2314.32" r="4" stroke="rgb(255,0,199)" stroke-width="2" fill="none"></circle>
<circle cx="5110.96" cy="1347.06" r="4" stroke="rgb(255,0,199)" stroke-width="2" fill="none"></circle>
<circle cx="1125.66" cy="2323.07" r="4" stroke="rgb(118,0,255)" stroke-width="2" fill="none"></circle>
<circle cx="5656.26" cy="997.534" r="4" stroke="rgb(118,0,255)" stroke-width="2" fill="none"></circle>
<circle cx="1486.19" cy="2339.81" r="4" stroke="rgb(212,0,255)" stroke-width="2" fill="none"></circle>
<circle cx="5890.25" cy="544.243" r="4" stroke="rgb(212,0,255)" stroke-width="2" fill="none"></circle>
<circle cx="2198.6" cy="2350.22" r="4" stroke="rgb(255,0,199)" stroke-width="2" fill="none"></circle>
<circle cx="6119.19" cy="1248.01" r="4" stroke="rgb(255,0,199)" stroke-width="2" fill="none"></circle>
<circle cx="2242.08" cy="2358.35" r="4" stroke="rgb(0,225,255)" stroke-width="2" fill="none"></circle>
<circle cx="6261.61" cy="1506.89" r="4" stroke="rgb(0,225,255)" stroke-width="2" fill="none"></circle>
<circle cx="1565.06" cy="2359.05" r="4" stroke="rgb(0,255,254)" stroke-width="2" fill="none"></circle>
<circle cx="6126.05" cy="483.569" r="4" stroke="rgb(0,255,254)" stroke-width="2" fill="none"></circle>
<circle cx="1371.67" cy="2361.06" r="4" stroke="rgb(4,255,0)" stroke-width="2" fill="none"></circle>
<circle cx="6437.34" cy="1518.56" r="4" stroke="rgb(4,255,0)" stroke-width="2" fill="none"></circle>
<circle cx="1542.33" cy="2368.83" r="4" stroke="rgb(255,0,208)" stroke-width="2" fill="none"></circle>
<circle cx="5387.72" cy="1043.53" r="4" stroke="rgb(255,0,208)" stroke-width="2" fill="none"></circle>
<circle cx="1394.49" cy="2369.95" r="4" stroke="rgb(157,0,255)" stroke-width="2" fill="none"></circle>
<circle cx="5902.02" cy="1591.16" r="4" stroke="rgb(157,0,255)" stroke-width="2" fill="none"></circle>
<circle cx="2454.32" cy="2386.06" r="4" stroke="rgb(0,255,229)" stroke-width="2" fill="none"></circle>
<circle cx="6312.84" cy="609.562" r="4" stroke="rgb(0,255,229)" stroke-width="2" fill="none"></circle>
<circle cx="2339.86" cy="2406.2" r="4" stroke="rgb(255,0,246)" stroke-width="2" fill="none"></circle>
<circle cx="5920.31" cy="1388.03" r="4" stroke="rgb(255,0,246)" stroke-width="2" fill="none"></circle>
<circle cx="2208.99" cy="2416.86" r="4" stroke="rgb(255,38,0)" stroke-width="2" fill="none"></circle>
<circle cx="5872.59" cy="1360.2" r="4" stroke="rgb(255,38,0)" stroke-width="2" fill="none"></circle>
<circle cx="2226.73" cy="2422.87" r="4" stroke="rgb(0,255,114)" stroke-width="2" fill="none"></circle>
<circle cx="6259.84" cy="1501.41" r="4" stroke="rgb(0,255,114)" stroke-width="2" fill="none"></circle>
<circle cx="2253.93" cy="2423.68" r="4" stroke="rgb(148,255,0)" stroke-width="2" fill="none"></circle>
<circle cx="6158.28" cy="1171.56" r="4" stroke="rgb(148,255,0)" stroke-width="2" fill="none"></circle>
<circle cx="1604.36" cy="2425.02" r="4" stroke="rgb(255,0,55)" stroke-width="2" fill="none"></circle>
<circle cx="5964.4" cy="726.287" r="4" stroke="rgb(255,0,55)" stroke-width="2" fill="none"></circle>
<circle cx="2350.07" cy="2430.97" r="4" stroke="rgb(0,144,255)" stroke-width="2" fill="none"></circle>
<circle cx="6192.7" cy="1616.03" r="4" stroke="rgb(0,144,255)" stroke-width="2" fill="none"></circle>
<circle cx="1616.13" cy="2436.74" r="4" stroke="rgb(255,0,174)" stroke-width="2" fill="none"></circle>
<circle cx="5782.64" cy="619.216" r="4" stroke="rgb(255,0,174)" stroke-width="2" fill="none"></circle>
<circle cx="2357.9" cy="2453.93" r="4" stroke="rgb(0,255,114)" stroke-width="2" fill="none"></circle>
<circle cx="5967.86" cy="1335.37" r="4" stroke="rgb(0,255,114)" stroke-width="2" fill="none"></circle>
<circle cx="2393.34" cy="2477.64" r="4" stroke="rgb(106,0,255)" stroke-width="2" fill="none"></circle>
<circle cx="6154.88" cy="1450.5" r="4" stroke="rgb(106,0,255)" stroke-width="2" fill="none"></circle>
<circle cx="2237.27" cy="2490.03" r="4" stroke="rgb(255,0,114)" stroke-width="2" fill="none"></circle>
<circle cx="6415.13" cy="1588.21" r="4" stroke="rgb(255,0,114)" stroke-width="2" fill="none"></circle>
<circle cx="2401.17" cy="2502.05" r="4" stroke="rgb(97,255,0)" stroke-width="2" fill="none"></circle>
<circle cx="5994.92" cy="496.377" r="4" stroke="rgb(97,255,0)" stroke-width="2" fill="none"></circle>
<circle cx="2393.75" cy="2525.55" r="4" stroke="rgb(0,255,118)" stroke-width="2" fill="none"></circle>
<circle cx="5953.89" cy="935.877" r="4" stroke="rgb(0,255,118)" stroke-width="2" fill="none"></circle>
<circle cx="1250.39" cy="2550.87" r="4" stroke="rgb(255,106,0)" stroke-width="2" fill="none"></circle>
<circle cx="6262.63" cy="1111.96" r="4" stroke="rgb(255,106,0)" stroke-width="2" fill="none"></circle>
<circle cx="1368" cy="2586.97" r="4" stroke="rgb(255,187,0)" stroke-width="2" fill="none"></circle>
<circle cx="6537.7" cy="1341.04" r="4" stroke="rgb(255,187,0)" stroke-width="2" fill="none"></circle>
<circle cx="1354.86" cy="2591.26" r="4" stroke="rgb(0,255,161)" stroke-width="2" fill="none"></circle>
<circle cx="6230.01" cy="1197.44" r="4" stroke="rgb(0,255,161)" stroke-width="2" fill="none"></circle>
<circle cx="2376.91" cy="2597.91" r="4" stroke="rgb(106,255,0)" stroke-width="2" fill="none"></circle>
<circle cx="6632.07" cy="1327.5" r="4" stroke="rgb(106,255,0)" stroke-width="2" fill="none"></circle>
<circle cx="2000.31" cy="2599.72" r="4" stroke="rgb(4,0,255)" stroke-width="2" fill="none"></circle>
<circle cx="6550.9" cy="718.804" r="4" stroke="rgb(4,0,255)" stroke-width="2" fill="none"></circle>
<circle cx="2372.79" cy="2602.69" r="4" stroke="rgb(144,255,0)" stroke-width="2" fill="none"></circle>
<circle cx="4579.86" cy="1707.76" r="4" stroke="rgb(144,255,0)" stroke-width="2" fill="none"></circle>
<circle cx="2131.91" cy="2603.72" r="4" stroke="rgb(255,187,0)" stroke-width="2" fill="none"></circle>
<circle cx="6281.38" cy="1545.08" r="4" stroke="rgb(255,187,0)" stroke-width="2" fill="none"></circle>
<circle cx="2154.81" cy="2641.51" r="4" stroke="rgb(250,255,0)" stroke-width="2" fill="none"></circle>
<circle cx="5695.67" cy="1398.98" r="4" stroke="rgb(250,255,0)" stroke-width="2" fill="none"></circle>
<circle cx="2323.1" cy="2646.87" r="4" stroke="rgb(212,0,255)" stroke-width="2" fill="none"></circle>
<circle cx="6222.46" cy="921.049" r="4" stroke="rgb(212,0,255)" stroke-width="2" fill="none"></circle>
<circle cx="2164.39" cy="2688.94" r="4" stroke="rgb(255,0,8)" stroke-width="2" fill="none"></circle>
<circle cx="6219.65" cy="1397.33" r="4" stroke="rgb(255,0,8)" stroke-width="2" fill="none"></circle>
<circle cx="1534.6" cy="2704.26" r="4" stroke="rgb(0,165,255)" stroke-width="2" fill="none"></circle>
<circle cx="5436.26" cy="930.073" r="4" stroke="rgb(0,165,255)" stroke-width="2" fill="none"></circle>
<circle cx="2143.61" cy="2714.35" r="4" stroke="rgb(114,255,0)" stroke-width="2" fill="none"></circle>
<circle cx="6408.02" cy="1525.86" r="4" stroke="rgb(114,255,0)" stroke-width="2" fill="none"></circle>
<circle cx="2011.07" cy="2737.19" r="4" stroke="rgb(0,242,255)" stroke-width="2" fill="none"></circle>
<circle cx="5085.42" cy="1495.25" r="4" stroke="rgb(0,242,255)" stroke-width="2" fill="none"></circle>
<circle cx="2012.43" cy="2744.03" r="4" stroke="rgb(255,119,0)" stroke-width="2" fill="none"></circle>
<circle cx="5169.9" cy="1610.89" r="4" stroke="rgb(255,119,0)" stroke-width="2" fill="none"></circle>
<circle cx="2126.01" cy="2760.89" r="4" stroke="rgb(140,0,255)" stroke-width="2" fill="none"></circle>
<circle cx="5506.53" cy="1317.01" r="4" stroke="rgb(140,0,255)" stroke-width="2" fill="none"></circle>
<circle cx="2117.07" cy="2763.19" r="4" stroke="rgb(255,0,246)" stroke-width="2" fill="none"></circle>
<circle cx="5627.82" cy="1452.5" r="4" stroke="rgb(255,0,246)" stroke-width="2" fill="none"></circle>
<circle cx="2058.46" cy="2784.41" r="4" stroke="rgb(255,0,89)" stroke-width="2" fill="none"></circle>
<circle cx="6586.35" cy="1128.83" r="4" stroke="rgb(255,0,89)" stroke-width="2" fill="none"></circle>
<circle cx="1664.55" cy="2786.28" r="4" stroke="rgb(246,255,0)" stroke-width="2" fill="none"></circle>
<circle cx="5802.75" cy="1214.82" r="4" stroke="rgb(246,255,0)" stroke-width="2" fill="none"></circle>
</svg>