<?xml version="1.0" standalone="yes"?>
<!-- SVG graphic -->
<svg xmlns='http://www.w3.org/2000/svg' xmlns:xlink='http://www.w3.org/1999/xlink'
width="8064px" height="3024px" preserveAspectRatio="xMinYMin meet" viewBox="0 0 8064 3024" version="1.1">
<image x="0" y="0" width="4032px" height="3024px" opacity="1" xlink:href="/home/jeong/Code/2D-to-3D-Modeling-using-AI/Make3D/Image/20200227_180634.jpg"/>
<image x="4032" y="0" width="4032px" height="3024px" opacity="1" xlink:href="/home/jeong/Code/2D-to-3D-Modeling-using-AI/Make3D/Image/20200227_180709.jpg"/>
<polyline points="874.175,2317.45,5931.41,1913.54" stroke="rgb(255,0,46)" stroke-width="2" fill="none"></polyline>
<polyline points="2695.59,1377.79,5422.5,882.391" stroke="rgb(255,0,76)" stroke-width="2" fill="none"></polyline>
<polyline points="1229.58,2513.02,5202.3,807.203" stroke="rgb(229,0,255)" stroke-width="2" fill="none"></polyline>
<polyline points="2147.89,2616.38,6037.72,1428.69" stroke="rgb(0,255,191)" stroke-width="2" fill="none"></polyline>
<polyline points="3104.63,2185.84,5793.98,1939.61" stroke="rgb(0,255,50)" stroke-width="2" fill="none"></polyline>
<polyline points="2147.89,2616.38,5788.32,941.189" stroke="rgb(0,255,67)" stroke-width="2" fill="none"></polyline>
<polyline points="1541.62,2026.12,5109.03,1984.51" stroke="rgb(255,8,0)" stroke-width="2" fill="none"></polyline>
<polyline points="1952.1,1639.99,5716.09,1965.39" stroke="rgb(33,255,0)" stroke-width="2" fill="none"></polyline>
<polyline points="2884.68,2010.49,5736.25,1967.78" stroke="rgb(33,255,0)" stroke-width="2" fill="none"></polyline>
<polyline points="2648.52,1387.95,5363.8,947.211" stroke="rgb(255,0,110)" stroke-width="2" fill="none"></polyline>
<polyline points="2351.79,2299.46,6169.58,1995.49" stroke="rgb(255,0,0)" stroke-width="2" fill="none"></polyline>
<polyline points="2036.21,1292.91,6141.93,1022.05" stroke="rgb(0,255,50)" stroke-width="2" fill="none"></polyline>
<polyline points="2216.55,2402.18,6165.94,2049.71" stroke="rgb(212,255,0)" stroke-width="2" fill="none"></polyline>
<polyline points="2695.59,1377.79,6371.17,2075.24" stroke="rgb(0,255,246)" stroke-width="2" fill="none"></polyline>
<polyline points="2058.22,1568.41,5821.2,1019.85" stroke="rgb(255,76,0)" stroke-width="2" fill="none"></polyline>
<polyline points="2017.91,1582.4,6187.08,1177.38" stroke="rgb(255,17,0)" stroke-width="2" fill="none"></polyline>
<polyline points="3083.11,2166.34,6138.98,2136.88" stroke="rgb(33,255,0)" stroke-width="2" fill="none"></polyline>
<polyline points="2351.79,2299.46,5784.45,2140.22" stroke="rgb(212,255,0)" stroke-width="2" fill="none"></polyline>
<polyline points="3087.95,2109.56,5887.13,1114.4" stroke="rgb(0,255,208)" stroke-width="2" fill="none"></polyline>
<polyline points="2208.99,2416.86,6444.67,2145.43" stroke="rgb(0,144,255)" stroke-width="2" fill="none"></polyline>
<polyline points="3083.11,2166.34,6444.67,2145.43" stroke="rgb(255,178,0)" stroke-width="2" fill="none"></polyline>
<polyline points="2088.55,2535.82,6251.03,2206.01" stroke="rgb(255,0,204)" stroke-width="2" fill="none"></polyline>
<polyline points="1798.79,1535.83,6429.95,2177.59" stroke="rgb(93,255,0)" stroke-width="2" fill="none"></polyline>
<polyline points="3012.26,2165.65,5788.27,2251.02" stroke="rgb(255,178,0)" stroke-width="2" fill="none"></polyline>
<polyline points="3083.11,2166.34,6095.09,2189.08" stroke="rgb(33,255,0)" stroke-width="2" fill="none"></polyline>
<polyline points="1382.63,1816.6,5290.73,2280.69" stroke="rgb(63,0,255)" stroke-width="2" fill="none"></polyline>
<polyline points="2894.26,2016.98,5756.31,1151.94" stroke="rgb(106,255,0)" stroke-width="2" fill="none"></polyline>
<polyline points="1182.19,2279.57,5390.07,1524.36" stroke="rgb(255,0,72)" stroke-width="2" fill="none"></polyline>
<polyline points="2243.32,1577.94,6364.95,2306.4" stroke="rgb(255,0,250)" stroke-width="2" fill="none"></polyline>
<polyline points="2194.73,1327.25,5661.72,2310.27" stroke="rgb(12,255,0)" stroke-width="2" fill="none"></polyline>
<polyline points="2353.04,2350.83,5753.38,1527.29" stroke="rgb(254,0,255)" stroke-width="2" fill="none"></polyline>
<polyline points="3083.11,2166.34,6075.16,2237.07" stroke="rgb(0,255,178)" stroke-width="2" fill="none"></polyline>
<polyline points="1863.88,1563.53,5587.08,2339.45" stroke="rgb(89,255,0)" stroke-width="2" fill="none"></polyline>
<polyline points="1863.88,1563.53,5587.08,2339.45" stroke="rgb(0,25,255)" stroke-width="2" fill="none"></polyline>
<polyline points="1752.11,1501.7,5623.5,2267.06" stroke="rgb(0,174,255)" stroke-width="2" fill="none"></polyline>
<polyline points="3083.11,2166.34,5843.35,1201.09" stroke="rgb(72,255,0)" stroke-width="2" fill="none"></polyline>
<polyline points="2339.63,1606.63,5848.44,2372.02" stroke="rgb(8,0,255)" stroke-width="2" fill="none"></polyline>
<polyline points="2131.91,2603.72,6346.53,1544.3" stroke="rgb(0,161,255)" stroke-width="2" fill="none"></polyline>
<polyline points="3098.76,1981.05,5753.04,1204.92" stroke="rgb(0,101,255)" stroke-width="2" fill="none"></polyline>
<polyline points="806.664,2184.6,5144.11,2516.93" stroke="rgb(0,59,255)" stroke-width="2" fill="none"></polyline>
<polyline points="2248.8,1583.1,6371.36,2305.31" stroke="rgb(255,204,0)" stroke-width="2" fill="none"></polyline>
<polyline points="2235.54,2336.36,6087.61,1551.4" stroke="rgb(135,255,0)" stroke-width="2" fill="none"></polyline>
<polyline points="1420.91,2696.74,5212.56,2561.95" stroke="rgb(0,42,255)" stroke-width="2" fill="none"></polyline>
<polyline points="1846.84,1673.56,6488.18,1235.56" stroke="rgb(8,255,0)" stroke-width="2" fill="none"></polyline>
<polyline points="2062.82,1589.11,5520.88,1560.95" stroke="rgb(110,0,255)" stroke-width="2" fill="none"></polyline>
<polyline points="2148.15,2599.61,5867.22,1230.98" stroke="rgb(38,0,255)" stroke-width="2" fill="none"></polyline>
<polyline points="1859.6,1670.37,6480.42,1232.99" stroke="rgb(255,0,25)" stroke-width="2" fill="none"></polyline>
<polyline points="2147.89,2616.38,5863.73,1238.06" stroke="rgb(42,0,255)" stroke-width="2" fill="none"></polyline>
<polyline points="1834.53,2777.66,5245.67,1261.73" stroke="rgb(255,0,174)" stroke-width="2" fill="none"></polyline>
<polyline points="2202.4,2324.53,5801.1,1241.09" stroke="rgb(255,153,0)" stroke-width="2" fill="none"></polyline>
<polyline points="2878.82,2089.18,5898.12,1242.44" stroke="rgb(255,0,136)" stroke-width="2" fill="none"></polyline>
<polyline points="2033.08,2799.27,5868.96,2358.83" stroke="rgb(255,4,0)" stroke-width="2" fill="none"></polyline>
<polyline points="2223.97,2386.28,5815.04,1255.17" stroke="rgb(255,0,51)" stroke-width="2" fill="none"></polyline>
<polyline points="3090.36,2101.51,5796.93,1589.93" stroke="rgb(250,0,255)" stroke-width="2" fill="none"></polyline>
<polyline points="2250.35,2497.94,5854.6,1312.94" stroke="rgb(148,0,255)" stroke-width="2" fill="none"></polyline>
<polyline points="922.283,2392.85,5385.07,1344.55" stroke="rgb(80,255,0)" stroke-width="2" fill="none"></polyline>
<polyline points="1894.1,1532.54,6153.51,1453.95" stroke="rgb(0,195,255)" stroke-width="2" fill="none"></polyline>
<polyline points="2390.14,2229.34,5831.53,1786" stroke="rgb(8,0,255)" stroke-width="2" fill="none"></polyline>
<polyline points="1565.06,2359.05,5304.83,1812.23" stroke="rgb(153,255,0)" stroke-width="2" fill="none"></polyline>
<polyline points="2139.11,1565.53,5678.49,1947.34" stroke="rgb(255,29,0)" stroke-width="2" fill="none"></polyline>
<polyline points="1737.45,1504.34,5696.83,2044.96" stroke="rgb(255,0,4)" stroke-width="2" fill="none"></polyline>
<polyline points="1894.1,1532.54,5710.24,2146.41" stroke="rgb(67,0,255)" stroke-width="2" fill="none"></polyline>
<polyline points="1786.81,1493.81,5631.65,2288.84" stroke="rgb(255,174,0)" stroke-width="2" fill="none"></polyline>
<polyline points="2114.64,1630.26,6133.18,1733.71" stroke="rgb(93,255,0)" stroke-width="2" fill="none"></polyline>
<polyline points="305.529,2108.48,5912.23,1794.54" stroke="rgb(255,8,0)" stroke-width="2" fill="none"></polyline>
<polyline points="857.181,1734.95,5488.28,1868.07" stroke="rgb(0,0,255)" stroke-width="2" fill="none"></polyline>
<polyline points="2228.11,2376.08,5924.59,941.077" stroke="rgb(0,165,255)" stroke-width="2" fill="none"></polyline>
<polyline points="1795.63,1876.75,5197.45,839.118" stroke="rgb(21,0,255)" stroke-width="2" fill="none"></polyline>
<polyline points="527.121,1797.83,5327.24,956.018" stroke="rgb(161,255,0)" stroke-width="2" fill="none"></polyline>
<polyline points="540.428,1813.9,5326.89,971.454" stroke="rgb(208,0,255)" stroke-width="2" fill="none"></polyline>
<polyline points="1700.94,1414.17,5689.07,2217.45" stroke="rgb(38,255,0)" stroke-width="2" fill="none"></polyline>
<polyline points="1770.69,1483.91,5637.58,2276.97" stroke="rgb(255,8,0)" stroke-width="2" fill="none"></polyline>
<polyline points="3088.06,1948.01,5685.28,2280.45" stroke="rgb(255,72,0)" stroke-width="2" fill="none"></polyline>
<polyline points="1310.56,2590.16,4996.51,2312.51" stroke="rgb(255,0,76)" stroke-width="2" fill="none"></polyline>
<polyline points="1832.2,1493.08,5636.11,2313.17" stroke="rgb(255,0,33)" stroke-width="2" fill="none"></polyline>
<polyline points="1832.2,1493.08,5636.11,2313.17" stroke="rgb(0,255,148)" stroke-width="2" fill="none"></polyline>
<polyline points="3071.6,2309.15,6292.11,1125.27" stroke="rgb(72,255,0)" stroke-width="2" fill="none"></polyline>
<polyline points="2098.26,2777.31,5132.57,1187.7" stroke="rgb(255,0,55)" stroke-width="2" fill="none"></polyline>
<polyline points="1975.48,1572.11,5580.67,1331.07" stroke="rgb(255,195,0)" stroke-width="2" fill="none"></polyline>
<polyline points="1975.48,1572.11,5580.67,1331.07" stroke="rgb(246,255,0)" stroke-width="2" fill="none"></polyline>
<polyline points="2733.83,1312.44,6503.43,1857.25" stroke="rgb(63,0,255)" stroke-width="2" fill="none"></polyline>
<polyline points="1361.53,2601.39,6242.85,1720.62" stroke="rgb(25,0,255)" stroke-width="2" fill="none"></polyline>
<polyline points="1217.51,1405.89,5495.88,1910.39" stroke="rgb(233,0,255)" stroke-width="2" fill="none"></polyline>
<polyline points="2162.73,1627.27,5570.63,2101.6" stroke="rgb(12,0,255)" stroke-width="2" fill="none"></polyline>
<polyline points="1802.52,1372.97,5796.2,2244.45" stroke="rgb(0,233,255)" stroke-width="2" fill="none"></polyline>
<polyline points="1814.08,1541.94,5601.64,2304.82" stroke="rgb(0,127,255)" stroke-width="2" fill="none"></polyline>
<polyline points="1823.54,1381.42,5888.16,2000.42" stroke="rgb(0,101,255)" stroke-width="2" fill="none"></polyline>
<polyline points="1183.92,2462.44,6321.21,2053.31" stroke="rgb(46,0,255)" stroke-width="2" fill="none"></polyline>
<polyline points="3071.6,2309.15,6238.06,1266.62" stroke="rgb(119,255,0)" stroke-width="2" fill="none"></polyline>
<circle cx="874.175" cy="2317.45" r="4" stroke="rgb(255,0,46)" stroke-width="2" fill="none"></circle>
<circle cx="5931.41" cy="1913.54" r="4" stroke="rgb(255,0,46)" stroke-width="2" fill="none"></circle>
<circle cx="2695.59" cy="1377.79" r="4" stroke="rgb(255,0,76)" stroke-width="2" fill="none"></circle>
<circle cx="5422.5" cy="882.391" r="4" stroke="rgb(255,0,76)" stroke-width="2" fill="none"></circle>
<circle cx="1229.58" cy="2513.02" r="4" stroke="rgb(229,0,255)" stroke-width="2" fill="none"></circle>
<circle cx="5202.3" cy="807.203" r="4" stroke="rgb(229,0,255)" stroke-width="2" fill="none"></circle>
<circle cx="2147.89" cy="2616.38" r="4" stroke="rgb(0,255,191)" stroke-width="2" fill="none"></circle>
<circle cx="6037.72" cy="1428.69" r="4" stroke="rgb(0,255,191)" stroke-width="2" fill="none"></circle>
<circle cx="3104.63" cy="2185.84" r="4" stroke="rgb(0,255,50)" stroke-width="2" fill="none"></circle>
<circle cx="5793.98" cy="1939.61" r="4" stroke="rgb(0,255,50)" stroke-width="2" fill="none"></circle>
<circle cx="2147.89" cy="2616.38" r="4" stroke="rgb(0,255,67)" stroke-width="2" fill="none"></circle>
<circle cx="5788.32" cy="941.189" r="4" stroke="rgb(0,255,67)" stroke-width="2" fill="none"></circle>
<circle cx="1541.62" cy="2026.12" r="4" stroke="rgb(255,8,0)" stroke-width="2" fill="none"></circle>
<circle cx="5109.03" cy="1984.51" r="4" stroke="rgb(255,8,0)" stroke-width="2" fill="none"></circle>
<circle cx="1952.1" cy="1639.99" r="4" stroke="rgb(33,255,0)" stroke-width="2" fill="none"></circle>
<circle cx="5716.09" cy="1965.39" r="4" stroke="rgb(33,255,0)" stroke-width="2" fill="none"></circle>
<circle cx="2884.68" cy="2010.49" r="4" stroke="rgb(33,255,0)" stroke-width="2" fill="none"></circle>
<circle cx="5736.25" cy="1967.78" r="4" stroke="rgb(33,255,0)" stroke-width="2" fill="none"></circle>
<circle cx="2648.52" cy="1387.95" r="4" stroke="rgb(255,0,110)" stroke-width="2" fill="none"></circle>
<circle cx="5363.8" cy="947.211" r="4" stroke="rgb(255,0,110)" stroke-width="2" fill="none"></circle>
<circle cx="2351.79" cy="2299.46" r="4" stroke="rgb(255,0,0)" stroke-width="2" fill="none"></circle>
<circle cx="6169.58" cy="1995.49" r="4" stroke="rgb(255,0,0)" stroke-width="2" fill="none"></circle>
<circle cx="2036.21" cy="1292.91" r="4" stroke="rgb(0,255,50)" stroke-width="2" fill="none"></circle>
<circle cx="6141.93" cy="1022.05" r="4" stroke="rgb(0,255,50)" stroke-width="2" fill="none"></circle>
<circle cx="2216.55" cy="2402.18" r="4" stroke="rgb(212,255,0)" stroke-width="2" fill="none"></circle>
<circle cx="6165.94" cy="2049.71" r="4" stroke="rgb(212,255,0)" stroke-width="2" fill="none"></circle>
<circle cx="2695.59" cy="1377.79" r="4" stroke="rgb(0,255,246)" stroke-width="2" fill="none"></circle>
<circle cx="6371.17" cy="2075.24" r="4" stroke="rgb(0,255,246)" stroke-width="2" fill="none"></circle>
<circle cx="2058.22" cy="1568.41" r="4" stroke="rgb(255,76,0)" stroke-width="2" fill="none"></circle>
<circle cx="5821.2" cy="1019.85" r="4" stroke="rgb(255,76,0)" stroke-width="2" fill="none"></circle>
<circle cx="2017.91" cy="1582.4" r="4" stroke="rgb(255,17,0)" stroke-width="2" fill="none"></circle>
<circle cx="6187.08" cy="1177.38" r="4" stroke="rgb(255,17,0)" stroke-width="2" fill="none"></circle>
<circle cx="3083.11" cy="2166.34" r="4" stroke="rgb(33,255,0)" stroke-width="2" fill="none"></circle>
<circle cx="6138.98" cy="2136.88" r="4" stroke="rgb(33,255,0)" stroke-width="2" fill="none"></circle>
<circle cx="2351.79" cy="2299.46" r="4" stroke="rgb(212,255,0)" stroke-width="2" fill="none"></circle>
<circle cx="5784.45" cy="2140.22" r="4" stroke="rgb(212,255,0)" stroke-width="2" fill="none"></circle>
<circle cx="3087.95" cy="2109.56" r="4" stroke="rgb(0,255,208)" stroke-width="2" fill="none"></circle>
<circle cx="5887.13" cy="1114.4" r="4" stroke="rgb(0,255,208)" stroke-width="2" fill="none"></circle>
<circle cx="2208.99" cy="2416.86" r="4" stroke="rgb(0,144,255)" stroke-width="2" fill="none"></circle>
<circle cx="6444.67" cy="2145.43" r="4" stroke="rgb(0,144,255)" stroke-width="2" fill="none"></circle>
<circle cx="3083.11" cy="2166.34" r="4" stroke="rgb(255,178,0)" stroke-width="2" fill="none"></circle>
<circle cx="6444.67" cy="2145.43" r="4" stroke="rgb(255,178,0)" stroke-width="2" fill="none"></circle>
<circle cx="2088.55" cy="2535.82" r="4" stroke="rgb(255,0,204)" stroke-width="2" fill="none"></circle>
<circle cx="6251.03" cy="2206.01" r="4" stroke="rgb(255,0,204)" stroke-width="2" fill="none"></circle>
<circle cx="1798.79" cy="1535.83" r="4" stroke="rgb(93,255,0)" stroke-width="2" fill="none"></circle>
<circle cx="6429.95" cy="2177.59" r="4" stroke="rgb(93,255,0)" stroke-width="2" fill="none"></circle>
<circle cx="3012.26" cy="2165.65" r="4" stroke="rgb(255,178,0)" stroke-width="2" fill="none"></circle>
<circle cx="5788.27" cy="2251.02" r="4" stroke="rgb(255,178,0)" stroke-width="2" fill="none"></circle>
<circle cx="3083.11" cy="2166.34" r="4" stroke="rgb(33,255,0)" stroke-width="2" fill="none"></circle>
<circle cx="6095.09" cy="2189.08" r="4" stroke="rgb(33,255,0)" stroke-width="2" fill="none"></circle>
<circle cx="1382.63" cy="1816.6" r="4" stroke="rgb(63,0,255)" stroke-width="2" fill="none"></circle>
<circle cx="5290.73" cy="2280.69" r="4" stroke="rgb(63,0,255)" stroke-width="2" fill="none"></circle>
<circle cx="2894.26" cy="2016.98" r="4" stroke="rgb(106,255,0)" stroke-width="2" fill="none"></circle>
<circle cx="5756.31" cy="1151.94" r="4" stroke="rgb(106,255,0)" stroke-width="2" fill="none"></circle>
<circle cx="1182.19" cy="2279.57" r="4" stroke="rgb(255,0,72)" stroke-width="2" fill="none"></circle>
<circle cx="5390.07" cy="1524.36" r="4" stroke="rgb(255,0,72)" stroke-width="2" fill="none"></circle>
<circle cx="2243.32" cy="1577.94" r="4" stroke="rgb(255,0,250)" stroke-width="2" fill="none"></circle>
<circle cx="6364.95" cy="2306.4" r="4" stroke="rgb(255,0,250)" stroke-width="2" fill="none"></circle>
<circle cx="2194.73" cy="1327.25" r="4" stroke="rgb(12,255,0)" stroke-width="2" fill="none"></circle>
<circle cx="5661.72" cy="2310.27" r="4" stroke="rgb(12,255,0)" stroke-width="2" fill="none"></circle>
<circle cx="2353.04" cy="2350.83" r="4" stroke="rgb(254,0,255)" stroke-width="2" fill="none"></circle>
<circle cx="5753.38" cy="1527.29" r="4" stroke="rgb(254,0,255)" stroke-width="2" fill="none"></circle>
<circle cx="3083.11" cy="2166.34" r="4" stroke="rgb(0,255,178)" stroke-width="2" fill="none"></circle>
<circle cx="6075.16" cy="2237.07" r="4" stroke="rgb(0,255,178)" stroke-width="2" fill="none"></circle>
<circle cx="1863.88" cy="1563.53" r="4" stroke="rgb(89,255,0)" stroke-width="2" fill="none"></circle>
<circle cx="5587.08" cy="2339.45" r="4" stroke="rgb(89,255,0)" stroke-width="2" fill="none"></circle>
<circle cx="1863.88" cy="1563.53" r="4" stroke="rgb(0,25,255)" stroke-width="2" fill="none"></circle>
<circle cx="5587.08" cy="2339.45" r="4" stroke="rgb(0,25,255)" stroke-width="2" fill="none"></circle>
<circle cx="1752.11" cy="1501.7" r="4" stroke="rgb(0,174,255)" stroke-width="2" fill="none"></circle>
<circle cx="5623.5" cy="2267.06" r="4" stroke="rgb(0,174,255)" stroke-width="2" fill="none"></circle>
<circle cx="3083.11" cy="2166.34" r="4" stroke="rgb(72,255,0)" stroke-width="2" fill="none"></circle>
<circle cx="5843.35" cy="1201.09" r="4" stroke="rgb(72,255,0)" stroke-width="2" fill="none"></circle>
<circle cx="2339.63" cy="1606.63" r="4" stroke="rgb(8,0,255)" stroke-width="2" fill="none"></circle>
<circle cx="5848.44" cy="2372.02" r="4" stroke="rgb(8,0,255)" stroke-width="2" fill="none"></circle>
<circle cx="2131.91" cy="2603.72" r="4" stroke="rgb(0,161,255)" stroke-width="2" fill="none"></circle>
<circle cx="6346.53" cy="1544.3" r="4" stroke="rgb(0,161,255)" stroke-width="2" fill="none"></circle>
<circle cx="3098.76" cy="1981.05" r="4" stroke="rgb(0,101,255)" stroke-width="2" fill="none"></circle>
<circle cx="5753.04" cy="1204.92" r="4" stroke="rgb(0,101,255)" stroke-width="2" fill="none"></circle>
<circle cx="806.664" cy="2184.6" r="4" stroke="rgb(0,59,255)" stroke-width="2" fill="none"></circle>
<circle cx="5144.11" cy="2516.93" r="4" stroke="rgb(0,59,255)" stroke-width="2" fill="none"></circle>
<circle cx="2248.8" cy="1583.1" r="4" stroke="rgb(255,204,0)" stroke-width="2" fill="none"></circle>
<circle cx="6371.36" cy="2305.31" r="4" stroke="rgb(255,204,0)" stroke-width="2" fill="none"></circle>
<circle cx="2235.54" cy="2336.36" r="4" stroke="rgb(135,255,0)" stroke-width="2" fill="none"></circle>
<circle cx="6087.61" cy="1551.4" r="4" stroke="rgb(135,255,0)" stroke-width="2" fill="none"></circle>
<circle cx="1420.91" cy="2696.74" r="4" stroke="rgb(0,42,255)" stroke-width="2" fill="none"></circle>
<circle cx="5212.56" cy="2561.95" r="4" stroke="rgb(0,42,255)" stroke-width="2" fill="none"></circle>
<circle cx="1846.84" cy="1673.56" r="4" stroke="rgb(8,255,0)" stroke-width="2" fill="none"></circle>
<circle cx="6488.18" cy="1235.56" r="4" stroke="rgb(8,255,0)" stroke-width="2" fill="none"></circle>
<circle cx="2062.82" cy="1589.11" r="4" stroke="rgb(110,0,255)" stroke-width="2" fill="none"></circle>
<circle cx="5520.88" cy="1560.95" r="4" stroke="rgb(110,0,255)" stroke-width="2" fill="none"></circle>
<circle cx="2148.15" cy="2599.61" r="4" stroke="rgb(38,0,255)" stroke-width="2" fill="none"></circle>
<circle cx="5867.22" cy="1230.98" r="4" stroke="rgb(38,0,255)" stroke-width="2" fill="none"></circle>
<circle cx="1859.6" cy="1670.37" r="4" stroke="rgb(255,0,25)" stroke-width="2" fill="none"></circle>
<circle cx="6480.42" cy="1232.99" r="4" stroke="rgb(255,0,25)" stroke-width="2" fill="none"></circle>
<circle cx="2147.89" cy="2616.38" r="4" stroke="rgb(42,0,255)" stroke-width="2" fill="none"></circle>
<circle cx="5863.73" cy="1238.06" r="4" stroke="rgb(42,0,255)" stroke-width="2" fill="none"></circle>
<circle cx="1834.53" cy="2777.66" r="4" stroke="rgb(255,0,174)" stroke-width="2" fill="none"></circle>
<circle cx="5245.67" cy="1261.73" r="4" stroke="rgb(255,0,174)" stroke-width="2" fill="none"></circle>
<circle cx="2202.4" cy="2324.53" r="4" stroke="rgb(255,153,0)" stroke-width="2" fill="none"></circle>
<circle cx="5801.1" cy="1241.09" r="4" stroke="rgb(255,153,0)" stroke-width="2" fill="none"></circle>
<circle cx="2878.82" cy="2089.18" r="4" stroke="rgb(255,0,136)" stroke-width="2" fill="none"></circle>
<circle cx="5898.12" cy="1242.44" r="4" stroke="rgb(255,0,136)" stroke-width="2" fill="none"></circle>
<circle cx="2033.08" cy="2799.27" r="4" stroke="rgb(255,4,0)" stroke-width="2" fill="none"></circle>
<circle cx="5868.96" cy="2358.83" r="4" stroke="rgb(255,4,0)" stroke-width="2" fill="none"></circle>
<circle cx="2223.97" cy="2386.28" r="4" stroke="rgb(255,0,51)" stroke-width="2" fill="none"></circle>
<circle cx="5815.04" cy="1255.17" r="4" stroke="rgb(255,0,51)" stroke-width="2" fill="none"></circle>
<circle cx="3090.36" cy="2101.51" r="4" stroke="rgb(250,0,255)" stroke-width="2" fill="none"></circle>
<circle cx="5796.93" cy="1589.93" r="4" stroke="rgb(250,0,255)" stroke-width="2" fill="none"></circle>
<circle cx="2250.35" cy="2497.94" r="4" stroke="rgb(148,0,255)" stroke-width="2" fill="none"></circle>
<circle cx="5854.6" cy="1312.94" r="4" stroke="rgb(148,0,255)" stroke-width="2" fill="none"></circle>
<circle cx="922.283" cy="2392.85" r="4" stroke="rgb(80,255,0)" stroke-width="2" fill="none"></circle>
<circle cx="5385.07" cy="1344.55" r="4" stroke="rgb(80,255,0)" stroke-width="2" fill="none"></circle>
<circle cx="1894.1" cy="1532.54" r="4" stroke="rgb(0,195,255)" stroke-width="2" fill="none"></circle>
<circle cx="6153.51" cy="1453.95" r="4" stroke="rgb(0,195,255)" stroke-width="2" fill="none"></circle>
<circle cx="2390.14" cy="2229.34" r="4" stroke="rgb(8,0,255)" stroke-width="2" fill="none"></circle>
<circle cx="5831.53" cy="1786" r="4" stroke="rgb(8,0,255)" stroke-width="2" fill="none"></circle>
<circle cx="1565.06" cy="2359.05" r="4" stroke="rgb(153,255,0)" stroke-width="2" fill="none"></circle>
<circle cx="5304.83" cy="1812.23" r="4" stroke="rgb(153,255,0)" stroke-width="2" fill="none"></circle>
<circle cx="2139.11" cy="1565.53" r="4" stroke="rgb(255,29,0)" stroke-width="2" fill="none"></circle>
<circle cx="5678.49" cy="1947.34" r="4" stroke="rgb(255,29,0)" stroke-width="2" fill="none"></circle>
<circle cx="1737.45" cy="1504.34" r="4" stroke="rgb(255,0,4)" stroke-width="2" fill="none"></circle>
<circle cx="5696.83" cy="2044.96" r="4" stroke="rgb(255,0,4)" stroke-width="2" fill="none"></circle>
<circle cx="1894.1" cy="1532.54" r="4" stroke="rgb(67,0,255)" stroke-width="2" fill="none"></circle>
<circle cx="5710.24" cy="2146.41" r="4" stroke="rgb(67,0,255)" stroke-width="2" fill="none"></circle>
<circle cx="1786.81" cy="1493.81" r="4" stroke="rgb(255,174,0)" stroke-width="2" fill="none"></circle>
<circle cx="5631.65" cy="2288.84" r="4" stroke="rgb(255,174,0)" stroke-width="2" fill="none"></circle>
<circle cx="2114.64" cy="1630.26" r="4" stroke="rgb(93,255,0)" stroke-width="2" fill="none"></circle>
<circle cx="6133.18" cy="1733.71" r="4" stroke="rgb(93,255,0)" stroke-width="2" fill="none"></circle>
<circle cx="305.529" cy="2108.48" r="4" stroke="rgb(255,8,0)" stroke-width="2" fill="none"></circle>
<circle cx="5912.23" cy="1794.54" r="4" stroke="rgb(255,8,0)" stroke-width="2" fill="none"></circle>
<circle cx="857.181" cy="1734.95" r="4" stroke="rgb(0,0,255)" stroke-width="2" fill="none"></circle>
<circle cx="5488.28" cy="1868.07" r="4" stroke="rgb(0,0,255)" stroke-width="2" fill="none"></circle>
<circle cx="2228.11" cy="2376.08" r="4" stroke="rgb(0,165,255)" stroke-width="2" fill="none"></circle>
<circle cx="5924.59" cy="941.077" r="4" stroke="rgb(0,165,255)" stroke-width="2" fill="none"></circle>
<circle cx="1795.63" cy="1876.75" r="4" stroke="rgb(21,0,255)" stroke-width="2" fill="none"></circle>
<circle cx="5197.45" cy="839.118" r="4" stroke="rgb(21,0,255)" stroke-width="2" fill="none"></circle>
<circle cx="527.121" cy="1797.83" r="4" stroke="rgb(161,255,0)" stroke-width="2" fill="none"></circle>
<circle cx="5327.24" cy="956.018" r="4" stroke="rgb(161,255,0)" stroke-width="2" fill="none"></circle>
<circle cx="540.428" cy="1813.9" r="4" stroke="rgb(208,0,255)" stroke-width="2" fill="none"></circle>
<circle cx="5326.89" cy="971.454" r="4" stroke="rgb(208,0,255)" stroke-width="2" fill="none"></circle>
<circle cx="1700.94" cy="1414.17" r="4" stroke="rgb(38,255,0)" stroke-width="2" fill="none"></circle>
<circle cx="5689.07" cy="2217.45" r="4" stroke="rgb(38,255,0)" stroke-width="2" fill="none"></circle>
<circle cx="1770.69" cy="1483.91" r="4" stroke="rgb(255,8,0)" stroke-width="2" fill="none"></circle>
<circle cx="5637.58" cy="2276.97" r="4" stroke="rgb(255,8,0)" stroke-width="2" fill="none"></circle>
<circle cx="3088.06" cy="1948.01" r="4" stroke="rgb(255,72,0)" stroke-width="2" fill="none"></circle>
<circle cx="5685.28" cy="2280.45" r="4" stroke="rgb(255,72,0)" stroke-width="2" fill="none"></circle>
<circle cx="1310.56" cy="2590.16" r="4" stroke="rgb(255,0,76)" stroke-width="2" fill="none"></circle>
<circle cx="4996.51" cy="2312.51" r="4" stroke="rgb(255,0,76)" stroke-width="2" fill="none"></circle>
<circle cx="1832.2" cy="1493.08" r="4" stroke="rgb(255,0,33)" stroke-width="2" fill="none"></circle>
<circle cx="5636.11" cy="2313.17" r="4" stroke="rgb(255,0,33)" stroke-width="2" fill="none"></circle>
<circle cx="1832.2" cy="1493.08" r="4" stroke="rgb(0,255,148)" stroke-width="2" fill="none"></circle>
<circle cx="5636.11" cy="2313.17" r="4" stroke="rgb(0,255,148)" stroke-width="2" fill="none"></circle>
<circle cx="3071.6" cy="2309.15" r="4" stroke="rgb(72,255,0)" stroke-width="2" fill="none"></circle>
<circle cx="6292.11" cy="1125.27" r="4" stroke="rgb(72,255,0)" stroke-width="2" fill="none"></circle>
<circle cx="2098.26" cy="2777.31" r="4" stroke="rgb(255,0,55)" stroke-width="2" fill="none"></circle>
<circle cx="5132.57" cy="1187.7" r="4" stroke="rgb(255,0,55)" stroke-width="2" fill="none"></circle>
<circle cx="1975.48" cy="1572.11" r="4" stroke="rgb(255,195,0)" stroke-width="2" fill="none"></circle>
<circle cx="5580.67" cy="1331.07" r="4" stroke="rgb(255,195,0)" stroke-width="2" fill="none"></circle>
<circle cx="1975.48" cy="1572.11" r="4" stroke="rgb(246,255,0)" stroke-width="2" fill="none"></circle>
<circle cx="5580.67" cy="1331.07" r="4" stroke="rgb(246,255,0)" stroke-width="2" fill="none"></circle>
<circle cx="2733.83" cy="1312.44" r="4" stroke="rgb(63,0,255)" stroke-width="2" fill="none"></circle>
<circle cx="6503.43" cy="1857.25" r="4" stroke="rgb(63,0,255)" stroke-width="2" fill="none"></circle>
<circle cx="1361.53" cy="2601.39" r="4" stroke="rgb(25,0,255)" stroke-width="2" fill="none"></circle>
<circle cx="6242.85" cy="1720.62" r="4" stroke="rgb(25,0,255)" stroke-width="2" fill="none"></circle>
<circle cx="1217.51" cy="1405.89" r="4" stroke="rgb(233,0,255)" stroke-width="2" fill="none"></circle>
<circle cx="5495.88" cy="1910.39" r="4" stroke="rgb(233,0,255)" stroke-width="2" fill="none"></circle>
<circle cx="2162.73" cy="1627.27" r="4" stroke="rgb(12,0,255)" stroke-width="2" fill="none"></circle>
<circle cx="5570.63" cy="2101.6" r="4" stroke="rgb(12,0,255)" stroke-width="2" fill="none"></circle>
<circle cx="1802.52" cy="1372.97" r="4" stroke="rgb(0,233,255)" stroke-width="2" fill="none"></circle>
<circle cx="5796.2" cy="2244.45" r="4" stroke="rgb(0,233,255)" stroke-width="2" fill="none"></circle>
<circle cx="1814.08" cy="1541.94" r="4" stroke="rgb(0,127,255)" stroke-width="2" fill="none"></circle>
<circle cx="5601.64" cy="2304.82" r="4" stroke="rgb(0,127,255)" stroke-width="2" fill="none"></circle>
<circle cx="1823.54" cy="1381.42" r="4" stroke="rgb(0,101,255)" stroke-width="2" fill="none"></circle>
<circle cx="5888.16" cy="2000.42" r="4" stroke="rgb(0,101,255)" stroke-width="2" fill="none"></circle>
<circle cx="1183.92" cy="2462.44" r="4" stroke="rgb(46,0,255)" stroke-width="2" fill="none"></circle>
<circle cx="6321.21" cy="2053.31" r="4" stroke="rgb(46,0,255)" stroke-width="2" fill="none"></circle>
<circle cx="3071.6" cy="2309.15" r="4" stroke="rgb(119,255,0)" stroke-width="2" fill="none"></circle>
<circle cx="6238.06" cy="1266.62" r="4" stroke="rgb(119,255,0)" stroke-width="2" fill="none"></circle>
</svg>