<?xml version="1.0" standalone="yes"?>
<!-- SVG graphic -->
<svg xmlns='http://www.w3.org/2000/svg' xmlns:xlink='http://www.w3.org/1999/xlink'
width="8064px" height="3024px" preserveAspectRatio="xMinYMin meet" viewBox="0 0 8064 3024" version="1.1">
<image x="0" y="0" width="4032px" height="3024px" opacity="1" xlink:href="/home/jeong/Code/2D-to-3D-Modeling-using-AI/Make3D/Image/20200227_180634.jpg"/>
<image x="4032" y="0" width="4032px" height="3024px" opacity="1" xlink:href="/home/jeong/Code/2D-to-3D-Modeling-using-AI/Make3D/Image/20200227_180712.jpg"/>
<polyline points="2904.4,2013.05,6119.25,1156.81" stroke="rgb(29,255,0)" stroke-width="2" fill="none"></polyline>
<polyline points="2256.69,2445.31,6255.88,1064.51" stroke="rgb(0,255,4)" stroke-width="2" fill="none"></polyline>
<polyline points="3265.81,1714.71,5495.72,1755.31" stroke="rgb(255,170,0)" stroke-width="2" fill="none"></polyline>
<polyline points="1355.24,1690.23,6914.8,1215.27" stroke="rgb(0,140,255)" stroke-width="2" fill="none"></polyline>
<polyline points="2062.82,1589.11,5789.37,1616.56" stroke="rgb(46,255,0)" stroke-width="2" fill="none"></polyline>
<polyline points="1812.27,1722.58,6687.23,1795.77" stroke="rgb(255,0,51)" stroke-width="2" fill="none"></polyline>
<polyline points="2202.4,2324.53,6222.22,1241.56" stroke="rgb(255,38,0)" stroke-width="2" fill="none"></polyline>
<polyline points="922.283,2392.85,5660.4,1278.98" stroke="rgb(0,255,72)" stroke-width="2" fill="none"></polyline>
<polyline points="2162.73,1627.27,6481.85,1852.61" stroke="rgb(174,0,255)" stroke-width="2" fill="none"></polyline>
<polyline points="2253.93,2423.68,6204.55,1188.34" stroke="rgb(0,255,89)" stroke-width="2" fill="none"></polyline>
<polyline points="1846.84,1673.56,6744.92,1303.06" stroke="rgb(0,255,72)" stroke-width="2" fill="none"></polyline>
<polyline points="2302.66,1280.63,6551.89,1927.24" stroke="rgb(0,153,255)" stroke-width="2" fill="none"></polyline>
<polyline points="1361.21,1607.85,5633.26,1939.34" stroke="rgb(255,0,225)" stroke-width="2" fill="none"></polyline>
<polyline points="2906.4,2053.85,6601.45,1318.83" stroke="rgb(255,0,242)" stroke-width="2" fill="none"></polyline>
<polyline points="2202.4,2324.53,6063.76,1326.94" stroke="rgb(0,33,255)" stroke-width="2" fill="none"></polyline>
<polyline points="2884.68,2010.49,5911.7,1962.36" stroke="rgb(0,46,255)" stroke-width="2" fill="none"></polyline>
<polyline points="3082.15,2197.37,6319.03,1976.68" stroke="rgb(0,255,229)" stroke-width="2" fill="none"></polyline>
<polyline points="2658.12,2234.96,5549.13,1422.05" stroke="rgb(255,21,0)" stroke-width="2" fill="none"></polyline>
<polyline points="3094.33,2229.09,6333.21,1981.94" stroke="rgb(29,0,255)" stroke-width="2" fill="none"></polyline>
<polyline points="1182.19,2279.57,5170.06,1989.26" stroke="rgb(255,25,0)" stroke-width="2" fill="none"></polyline>
<polyline points="920.181,2214.49,5751.25,2034.9" stroke="rgb(255,0,101)" stroke-width="2" fill="none"></polyline>
<polyline points="3077.63,2245.65,6028.17,2036.23" stroke="rgb(0,255,152)" stroke-width="2" fill="none"></polyline>
<polyline points="1770.69,1483.91,5960.33,1534.97" stroke="rgb(255,0,42)" stroke-width="2" fill="none"></polyline>
<polyline points="3097.72,2213.23,6499.32,2134.79" stroke="rgb(255,17,0)" stroke-width="2" fill="none"></polyline>
<polyline points="1694.29,2768.84,5485.64,2152.22" stroke="rgb(0,255,29)" stroke-width="2" fill="none"></polyline>
<polyline points="2884.68,2010.49,5912.31,1961.06" stroke="rgb(255,76,0)" stroke-width="2" fill="none"></polyline>
<polyline points="3063.81,2233.42,6340.41,1971.13" stroke="rgb(255,0,165)" stroke-width="2" fill="none"></polyline>
<polyline points="2883.39,2049.28,6102.71,1353.27" stroke="rgb(255,4,0)" stroke-width="2" fill="none"></polyline>
<polyline points="2883.39,2049.28,6102.71,1353.27" stroke="rgb(225,255,0)" stroke-width="2" fill="none"></polyline>
<polyline points="1894.1,1532.54,6465.34,1568.56" stroke="rgb(0,255,195)" stroke-width="2" fill="none"></polyline>
<polyline points="2605.49,1259.52,6439.63,2195.33" stroke="rgb(76,0,255)" stroke-width="2" fill="none"></polyline>
<polyline points="976.159,2438.05,5540.96,2198.19" stroke="rgb(0,255,254)" stroke-width="2" fill="none"></polyline>
<polyline points="2208.99,2416.86,6327.78,1993.54" stroke="rgb(199,0,255)" stroke-width="2" fill="none"></polyline>
<polyline points="1862.64,1379.63,5972.69,2137.54" stroke="rgb(250,0,255)" stroke-width="2" fill="none"></polyline>
<polyline points="2971.42,2255.72,5368.38,2169.13" stroke="rgb(85,0,255)" stroke-width="2" fill="none"></polyline>
<polyline points="2223.97,2386.28,5984.56,1528.58" stroke="rgb(255,157,0)" stroke-width="2" fill="none"></polyline>
<polyline points="2764.15,1345.29,5761.39,1862.44" stroke="rgb(0,255,165)" stroke-width="2" fill="none"></polyline>
<polyline points="2898.12,2047.59,6415.23,1637.15" stroke="rgb(0,255,89)" stroke-width="2" fill="none"></polyline>
<polyline points="2131.91,2603.72,6543.15,1638.83" stroke="rgb(255,195,0)" stroke-width="2" fill="none"></polyline>
<polyline points="2228.11,2376.08,6178.84,1659.07" stroke="rgb(169,255,0)" stroke-width="2" fill="none"></polyline>
<polyline points="2083.42,1559.01,5714.6,2158.18" stroke="rgb(182,0,255)" stroke-width="2" fill="none"></polyline>
<polyline points="1803.66,1504.09,5778.75,2166.14" stroke="rgb(0,242,255)" stroke-width="2" fill="none"></polyline>
<polyline points="1879.26,1392.97,5951.58,2147.3" stroke="rgb(191,0,255)" stroke-width="2" fill="none"></polyline>
<polyline points="1975.48,1572.11,5844.06,1396.87" stroke="rgb(0,42,255)" stroke-width="2" fill="none"></polyline>
<polyline points="1494.2,1465.23,5711.05,1813.07" stroke="rgb(255,0,4)" stroke-width="2" fill="none"></polyline>
<polyline points="2866.02,2019.51,6408.89,1733.73" stroke="rgb(0,255,157)" stroke-width="2" fill="none"></polyline>
<polyline points="1361.53,2601.39,6414.56,1787.54" stroke="rgb(255,0,123)" stroke-width="2" fill="none"></polyline>
<polyline points="1299.14,1591.14,5680,2088.19" stroke="rgb(255,191,0)" stroke-width="2" fill="none"></polyline>
<polyline points="1823.54,1381.42,6045.99,2000.94" stroke="rgb(0,255,178)" stroke-width="2" fill="none"></polyline>
<polyline points="2903.79,2255.33,6739.31,1259.43" stroke="rgb(127,255,0)" stroke-width="2" fill="none"></polyline>
<polyline points="3115.52,2091.59,6606.2,1796.62" stroke="rgb(255,221,0)" stroke-width="2" fill="none"></polyline>
<polyline points="3035.59,2070.35,6088.31,1887.18" stroke="rgb(255,42,0)" stroke-width="2" fill="none"></polyline>
<polyline points="3035.59,2070.35,6088.31,1887.18" stroke="rgb(29,0,255)" stroke-width="2" fill="none"></polyline>
<polyline points="1802.52,1372.97,6072.15,1928.49" stroke="rgb(144,0,255)" stroke-width="2" fill="none"></polyline>
<circle cx="2904.4" cy="2013.05" r="4" stroke="rgb(29,255,0)" stroke-width="2" fill="none"></circle>
<circle cx="6119.25" cy="1156.81" r="4" stroke="rgb(29,255,0)" stroke-width="2" fill="none"></circle>
<circle cx="2256.69" cy="2445.31" r="4" stroke="rgb(0,255,4)" stroke-width="2" fill="none"></circle>
<circle cx="6255.88" cy="1064.51" r="4" stroke="rgb(0,255,4)" stroke-width="2" fill="none"></circle>
<circle cx="3265.81" cy="1714.71" r="4" stroke="rgb(255,170,0)" stroke-width="2" fill="none"></circle>
<circle cx="5495.72" cy="1755.31" r="4" stroke="rgb(255,170,0)" stroke-width="2" fill="none"></circle>
<circle cx="1355.24" cy="1690.23" r="4" stroke="rgb(0,140,255)" stroke-width="2" fill="none"></circle>
<circle cx="6914.8" cy="1215.27" r="4" stroke="rgb(0,140,255)" stroke-width="2" fill="none"></circle>
<circle cx="2062.82" cy="1589.11" r="4" stroke="rgb(46,255,0)" stroke-width="2" fill="none"></circle>
<circle cx="5789.37" cy="1616.56" r="4" stroke="rgb(46,255,0)" stroke-width="2" fill="none"></circle>
<circle cx="1812.27" cy="1722.58" r="4" stroke="rgb(255,0,51)" stroke-width="2" fill="none"></circle>
<circle cx="6687.23" cy="1795.77" r="4" stroke="rgb(255,0,51)" stroke-width="2" fill="none"></circle>
<circle cx="2202.4" cy="2324.53" r="4" stroke="rgb(255,38,0)" stroke-width="2" fill="none"></circle>
<circle cx="6222.22" cy="1241.56" r="4" stroke="rgb(255,38,0)" stroke-width="2" fill="none"></circle>
<circle cx="922.283" cy="2392.85" r="4" stroke="rgb(0,255,72)" stroke-width="2" fill="none"></circle>
<circle cx="5660.4" cy="1278.98" r="4" stroke="rgb(0,255,72)" stroke-width="2" fill="none"></circle>
<circle cx="2162.73" cy="1627.27" r="4" stroke="rgb(174,0,255)" stroke-width="2" fill="none"></circle>
<circle cx="6481.85" cy="1852.61" r="4" stroke="rgb(174,0,255)" stroke-width="2" fill="none"></circle>
<circle cx="2253.93" cy="2423.68" r="4" stroke="rgb(0,255,89)" stroke-width="2" fill="none"></circle>
<circle cx="6204.55" cy="1188.34" r="4" stroke="rgb(0,255,89)" stroke-width="2" fill="none"></circle>
<circle cx="1846.84" cy="1673.56" r="4" stroke="rgb(0,255,72)" stroke-width="2" fill="none"></circle>
<circle cx="6744.92" cy="1303.06" r="4" stroke="rgb(0,255,72)" stroke-width="2" fill="none"></circle>
<circle cx="2302.66" cy="1280.63" r="4" stroke="rgb(0,153,255)" stroke-width="2" fill="none"></circle>
<circle cx="6551.89" cy="1927.24" r="4" stroke="rgb(0,153,255)" stroke-width="2" fill="none"></circle>
<circle cx="1361.21" cy="1607.85" r="4" stroke="rgb(255,0,225)" stroke-width="2" fill="none"></circle>
<circle cx="5633.26" cy="1939.34" r="4" stroke="rgb(255,0,225)" stroke-width="2" fill="none"></circle>
<circle cx="2906.4" cy="2053.85" r="4" stroke="rgb(255,0,242)" stroke-width="2" fill="none"></circle>
<circle cx="6601.45" cy="1318.83" r="4" stroke="rgb(255,0,242)" stroke-width="2" fill="none"></circle>
<circle cx="2202.4" cy="2324.53" r="4" stroke="rgb(0,33,255)" stroke-width="2" fill="none"></circle>
<circle cx="6063.76" cy="1326.94" r="4" stroke="rgb(0,33,255)" stroke-width="2" fill="none"></circle>
<circle cx="2884.68" cy="2010.49" r="4" stroke="rgb(0,46,255)" stroke-width="2" fill="none"></circle>
<circle cx="5911.7" cy="1962.36" r="4" stroke="rgb(0,46,255)" stroke-width="2" fill="none"></circle>
<circle cx="3082.15" cy="2197.37" r="4" stroke="rgb(0,255,229)" stroke-width="2" fill="none"></circle>
<circle cx="6319.03" cy="1976.68" r="4" stroke="rgb(0,255,229)" stroke-width="2" fill="none"></circle>
<circle cx="2658.12" cy="2234.96" r="4" stroke="rgb(255,21,0)" stroke-width="2" fill="none"></circle>
<circle cx="5549.13" cy="1422.05" r="4" stroke="rgb(255,21,0)" stroke-width="2" fill="none"></circle>
<circle cx="3094.33" cy="2229.09" r="4" stroke="rgb(29,0,255)" stroke-width="2" fill="none"></circle>
<circle cx="6333.21" cy="1981.94" r="4" stroke="rgb(29,0,255)" stroke-width="2" fill="none"></circle>
<circle cx="1182.19" cy="2279.57" r="4" stroke="rgb(255,25,0)" stroke-width="2" fill="none"></circle>
<circle cx="5170.06" cy="1989.26" r="4" stroke="rgb(255,25,0)" stroke-width="2" fill="none"></circle>
<circle cx="920.181" cy="2214.49" r="4" stroke="rgb(255,0,101)" stroke-width="2" fill="none"></circle>
<circle cx="5751.25" cy="2034.9" r="4" stroke="rgb(255,0,101)" stroke-width="2" fill="none"></circle>
<circle cx="3077.63" cy="2245.65" r="4" stroke="rgb(0,255,152)" stroke-width="2" fill="none"></circle>
<circle cx="6028.17" cy="2036.23" r="4" stroke="rgb(0,255,152)" stroke-width="2" fill="none"></circle>
<circle cx="1770.69" cy="1483.91" r="4" stroke="rgb(255,0,42)" stroke-width="2" fill="none"></circle>
<circle cx="5960.33" cy="1534.97" r="4" stroke="rgb(255,0,42)" stroke-width="2" fill="none"></circle>
<circle cx="3097.72" cy="2213.23" r="4" stroke="rgb(255,17,0)" stroke-width="2" fill="none"></circle>
<circle cx="6499.32" cy="2134.79" r="4" stroke="rgb(255,17,0)" stroke-width="2" fill="none"></circle>
<circle cx="1694.29" cy="2768.84" r="4" stroke="rgb(0,255,29)" stroke-width="2" fill="none"></circle>
<circle cx="5485.64" cy="2152.22" r="4" stroke="rgb(0,255,29)" stroke-width="2" fill="none"></circle>
<circle cx="2884.68" cy="2010.49" r="4" stroke="rgb(255,76,0)" stroke-width="2" fill="none"></circle>
<circle cx="5912.31" cy="1961.06" r="4" stroke="rgb(255,76,0)" stroke-width="2" fill="none"></circle>
<circle cx="3063.81" cy="2233.42" r="4" stroke="rgb(255,0,165)" stroke-width="2" fill="none"></circle>
<circle cx="6340.41" cy="1971.13" r="4" stroke="rgb(255,0,165)" stroke-width="2" fill="none"></circle>
<circle cx="2883.39" cy="2049.28" r="4" stroke="rgb(255,4,0)" stroke-width="2" fill="none"></circle>
<circle cx="6102.71" cy="1353.27" r="4" stroke="rgb(255,4,0)" stroke-width="2" fill="none"></circle>
<circle cx="2883.39" cy="2049.28" r="4" stroke="rgb(225,255,0)" stroke-width="2" fill="none"></circle>
<circle cx="6102.71" cy="1353.27" r="4" stroke="rgb(225,255,0)" stroke-width="2" fill="none"></circle>
<circle cx="1894.1" cy="1532.54" r="4" stroke="rgb(0,255,195)" stroke-width="2" fill="none"></circle>
<circle cx="6465.34" cy="1568.56" r="4" stroke="rgb(0,255,195)" stroke-width="2" fill="none"></circle>
<circle cx="2605.49" cy="1259.52" r="4" stroke="rgb(76,0,255)" stroke-width="2" fill="none"></circle>
<circle cx="6439.63" cy="2195.33" r="4" stroke="rgb(76,0,255)" stroke-width="2" fill="none"></circle>
<circle cx="976.159" cy="2438.05" r="4" stroke="rgb(0,255,254)" stroke-width="2" fill="none"></circle>
<circle cx="5540.96" cy="2198.19" r="4" stroke="rgb(0,255,254)" stroke-width="2" fill="none"></circle>
<circle cx="2208.99" cy="2416.86" r="4" stroke="rgb(199,0,255)" stroke-width="2" fill="none"></circle>
<circle cx="6327.78" cy="1993.54" r="4" stroke="rgb(199,0,255)" stroke-width="2" fill="none"></circle>
<circle cx="1862.64" cy="1379.63" r="4" stroke="rgb(250,0,255)" stroke-width="2" fill="none"></circle>
<circle cx="5972.69" cy="2137.54" r="4" stroke="rgb(250,0,255)" stroke-width="2" fill="none"></circle>
<circle cx="2971.42" cy="2255.72" r="4" stroke="rgb(85,0,255)" stroke-width="2" fill="none"></circle>
<circle cx="5368.38" cy="2169.13" r="4" stroke="rgb(85,0,255)" stroke-width="2" fill="none"></circle>
<circle cx="2223.97" cy="2386.28" r="4" stroke="rgb(255,157,0)" stroke-width="2" fill="none"></circle>
<circle cx="5984.56" cy="1528.58" r="4" stroke="rgb(255,157,0)" stroke-width="2" fill="none"></circle>
<circle cx="2764.15" cy="1345.29" r="4" stroke="rgb(0,255,165)" stroke-width="2" fill="none"></circle>
<circle cx="5761.39" cy="1862.44" r="4" stroke="rgb(0,255,165)" stroke-width="2" fill="none"></circle>
<circle cx="2898.12" cy="2047.59" r="4" stroke="rgb(0,255,89)" stroke-width="2" fill="none"></circle>
<circle cx="6415.23" cy="1637.15" r="4" stroke="rgb(0,255,89)" stroke-width="2" fill="none"></circle>
<circle cx="2131.91" cy="2603.72" r="4" stroke="rgb(255,195,0)" stroke-width="2" fill="none"></circle>
<circle cx="6543.15" cy="1638.83" r="4" stroke="rgb(255,195,0)" stroke-width="2" fill="none"></circle>
<circle cx="2228.11" cy="2376.08" r="4" stroke="rgb(169,255,0)" stroke-width="2" fill="none"></circle>
<circle cx="6178.84" cy="1659.07" r="4" stroke="rgb(169,255,0)" stroke-width="2" fill="none"></circle>
<circle cx="2083.42" cy="1559.01" r="4" stroke="rgb(182,0,255)" stroke-width="2" fill="none"></circle>
<circle cx="5714.6" cy="2158.18" r="4" stroke="rgb(182,0,255)" stroke-width="2" fill="none"></circle>
<circle cx="1803.66" cy="1504.09" r="4" stroke="rgb(0,242,255)" stroke-width="2" fill="none"></circle>
<circle cx="5778.75" cy="2166.14" r="4" stroke="rgb(0,242,255)" stroke-width="2" fill="none"></circle>
<circle cx="1879.26" cy="1392.97" r="4" stroke="rgb(191,0,255)" stroke-width="2" fill="none"></circle>
<circle cx="5951.58" cy="2147.3" r="4" stroke="rgb(191,0,255)" stroke-width="2" fill="none"></circle>
<circle cx="1975.48" cy="1572.11" r="4" stroke="rgb(0,42,255)" stroke-width="2" fill="none"></circle>
<circle cx="5844.06" cy="1396.87" r="4" stroke="rgb(0,42,255)" stroke-width="2" fill="none"></circle>
<circle cx="1494.2" cy="1465.23" r="4" stroke="rgb(255,0,4)" stroke-width="2" fill="none"></circle>
<circle cx="5711.05" cy="1813.07" r="4" stroke="rgb(255,0,4)" stroke-width="2" fill="none"></circle>
<circle cx="2866.02" cy="2019.51" r="4" stroke="rgb(0,255,157)" stroke-width="2" fill="none"></circle>
<circle cx="6408.89" cy="1733.73" r="4" stroke="rgb(0,255,157)" stroke-width="2" fill="none"></circle>
<circle cx="1361.53" cy="2601.39" r="4" stroke="rgb(255,0,123)" stroke-width="2" fill="none"></circle>
<circle cx="6414.56" cy="1787.54" r="4" stroke="rgb(255,0,123)" stroke-width="2" fill="none"></circle>
<circle cx="1299.14" cy="1591.14" r="4" stroke="rgb(255,191,0)" stroke-width="2" fill="none"></circle>
<circle cx="5680" cy="2088.19" r="4" stroke="rgb(255,191,0)" stroke-width="2" fill="none"></circle>
<circle cx="1823.54" cy="1381.42" r="4" stroke="rgb(0,255,178)" stroke-width="2" fill="none"></circle>
<circle cx="6045.99" cy="2000.94" r="4" stroke="rgb(0,255,178)" stroke-width="2" fill="none"></circle>
<circle cx="2903.79" cy="2255.33" r="4" stroke="rgb(127,255,0)" stroke-width="2" fill="none"></circle>
<circle cx="6739.31" cy="1259.43" r="4" stroke="rgb(127,255,0)" stroke-width="2" fill="none"></circle>
<circle cx="3115.52" cy="2091.59" r="4" stroke="rgb(255,221,0)" stroke-width="2" fill="none"></circle>
<circle cx="6606.2" cy="1796.62" r="4" stroke="rgb(255,221,0)" stroke-width="2" fill="none"></circle>
<circle cx="3035.59" cy="2070.35" r="4" stroke="rgb(255,42,0)" stroke-width="2" fill="none"></circle>
<circle cx="6088.31" cy="1887.18" r="4" stroke="rgb(255,42,0)" stroke-width="2" fill="none"></circle>
<circle cx="3035.59" cy="2070.35" r="4" stroke="rgb(29,0,255)" stroke-width="2" fill="none"></circle>
<circle cx="6088.31" cy="1887.18" r="4" stroke="rgb(29,0,255)" stroke-width="2" fill="none"></circle>
<circle cx="1802.52" cy="1372.97" r="4" stroke="rgb(144,0,255)" stroke-width="2" fill="none"></circle>
<circle cx="6072.15" cy="1928.49" r="4" stroke="rgb(144,0,255)" stroke-width="2" fill="none"></circle>
</svg>