<?xml version="1.0" standalone="yes"?>
<!-- SVG graphic -->
<svg xmlns='http://www.w3.org/2000/svg' xmlns:xlink='http://www.w3.org/1999/xlink'
width="8064px" height="3024px" preserveAspectRatio="xMinYMin meet" viewBox="0 0 8064 3024" version="1.1">
<image x="0" y="0" width="4032px" height="3024px" opacity="1" xlink:href="/home/jeong/Code/2D-to-3D-Modeling-using-AI/Make3D/Image/20200227_180634.jpg"/>
<image x="4032" y="0" width="4032px" height="3024px" opacity="1" xlink:href="/home/jeong/Code/2D-to-3D-Modeling-using-AI/Make3D/Image/20200227_180732.jpg"/>
<polyline points="1423.89,2630.09,6378.31,1854.15" stroke="rgb(93,0,255)" stroke-width="2" fill="none"></polyline>
<polyline points="269.756,2054.68,6382.31,3004.67" stroke="rgb(0,255,123)" stroke-width="2" fill="none"></polyline>
<polyline points="2166.63,1312.69,5949.44,1023.11" stroke="rgb(0,119,255)" stroke-width="2" fill="none"></polyline>
<polyline points="1791.53,2533.13,5945.07,1671.72" stroke="rgb(229,255,0)" stroke-width="2" fill="none"></polyline>
<polyline points="1193.89,2327.57,6000.98,1303.68" stroke="rgb(255,0,25)" stroke-width="2" fill="none"></polyline>
<polyline points="1392.06,2600.58,5821,1707.23" stroke="rgb(250,0,255)" stroke-width="2" fill="none"></polyline>
<polyline points="689.245,2002.05,6514.23,1708.53" stroke="rgb(97,0,255)" stroke-width="2" fill="none"></polyline>
<polyline points="1242.09,1418.52,6027.84,1715.7" stroke="rgb(255,0,0)" stroke-width="2" fill="none"></polyline>
<polyline points="2474.29,1298.11,5603.26,1313.62" stroke="rgb(0,195,255)" stroke-width="2" fill="none"></polyline>
<polyline points="908.609,2224.7,6558.29,1350.89" stroke="rgb(0,255,212)" stroke-width="2" fill="none"></polyline>
<polyline points="1348.55,1610.28,5912.41,1360.07" stroke="rgb(255,199,0)" stroke-width="2" fill="none"></polyline>
<polyline points="1768.58,1570.24,5746.67,1358.17" stroke="rgb(161,0,255)" stroke-width="2" fill="none"></polyline>
<polyline points="1350.32,2608.36,6446.61,1397.93" stroke="rgb(0,153,255)" stroke-width="2" fill="none"></polyline>
<polyline points="1377.65,2406.4,6093.03,2053.53" stroke="rgb(38,255,0)" stroke-width="2" fill="none"></polyline>
<polyline points="1538.81,2515.23,6141.29,1832.1" stroke="rgb(255,178,0)" stroke-width="2" fill="none"></polyline>
<polyline points="1664.55,2786.28,6059.35,1449.39" stroke="rgb(255,0,21)" stroke-width="2" fill="none"></polyline>
<polyline points="2454.32,2386.06,6397.39,2321.64" stroke="rgb(135,255,0)" stroke-width="2" fill="none"></polyline>
<polyline points="1016.73,2380.15,6664.68,1521.12" stroke="rgb(255,165,0)" stroke-width="2" fill="none"></polyline>
<polyline points="980.055,2343.1,6173.98,2378.31" stroke="rgb(0,255,152)" stroke-width="2" fill="none"></polyline>
<polyline points="3043.23,2170.52,5988.22,2046.69" stroke="rgb(229,255,0)" stroke-width="2" fill="none"></polyline>
<polyline points="1206.2,2451.93,6359.27,2230.93" stroke="rgb(0,157,255)" stroke-width="2" fill="none"></polyline>
<polyline points="1844.55,1741.24,6403.1,1702.28" stroke="rgb(225,255,0)" stroke-width="2" fill="none"></polyline>
<polyline points="689.245,2002.05,6498.74,2581.04" stroke="rgb(0,255,233)" stroke-width="2" fill="none"></polyline>
<polyline points="2145.14,2658.63,5912.61,2592.26" stroke="rgb(255,0,63)" stroke-width="2" fill="none"></polyline>
<polyline points="1652.77,2475.96,6537.88,1843.33" stroke="rgb(0,123,255)" stroke-width="2" fill="none"></polyline>
<polyline points="1559.56,2337.09,7089.05,2060.26" stroke="rgb(255,0,68)" stroke-width="2" fill="none"></polyline>
<polyline points="1206.2,2451.93,6360.6,2230.99" stroke="rgb(0,255,76)" stroke-width="2" fill="none"></polyline>
<polyline points="1649.18,2455.13,6517.85,2613.85" stroke="rgb(229,0,255)" stroke-width="2" fill="none"></polyline>
<polyline points="1968.63,2584.81,6686.62,2714.14" stroke="rgb(255,157,0)" stroke-width="2" fill="none"></polyline>
<polyline points="2892.08,2370.07,6028.67,1775.43" stroke="rgb(0,114,255)" stroke-width="2" fill="none"></polyline>
<polyline points="980.055,2343.1,6176.6,2375.59" stroke="rgb(16,255,0)" stroke-width="2" fill="none"></polyline>
<polyline points="1698.18,2578.64,6536.04,1893.1" stroke="rgb(254,0,255)" stroke-width="2" fill="none"></polyline>
<polyline points="1915.28,1452.22,5817.78,1952.85" stroke="rgb(255,12,0)" stroke-width="2" fill="none"></polyline>
<polyline points="922.283,2392.85,6196.63,2480.41" stroke="rgb(255,0,136)" stroke-width="2" fill="none"></polyline>
<polyline points="1419.45,1548.74,6460.27,2128.95" stroke="rgb(0,8,255)" stroke-width="2" fill="none"></polyline>
<polyline points="2909.09,2122.02,5908.4,2350.78" stroke="rgb(255,0,12)" stroke-width="2" fill="none"></polyline>
<polyline points="980.055,2343.1,6178.22,2373.75" stroke="rgb(114,0,255)" stroke-width="2" fill="none"></polyline>
<polyline points="1886.95,1418.05,6653.19,2620.7" stroke="rgb(0,255,89)" stroke-width="2" fill="none"></polyline>
<polyline points="2264.56,2272.23,5875.3,2676.48" stroke="rgb(255,0,12)" stroke-width="2" fill="none"></polyline>
<polyline points="1961.42,1480.43,6970.94,2084.15" stroke="rgb(80,255,0)" stroke-width="2" fill="none"></polyline>
<polyline points="1961.42,1480.43,6970.94,2084.15" stroke="rgb(0,242,255)" stroke-width="2" fill="none"></polyline>
<polyline points="980.055,2343.1,6179.82,2371.81" stroke="rgb(153,0,255)" stroke-width="2" fill="none"></polyline>
<polyline points="1439.05,1575.56,5938.73,1394.14" stroke="rgb(255,80,0)" stroke-width="2" fill="none"></polyline>
<circle cx="1423.89" cy="2630.09" r="4" stroke="rgb(93,0,255)" stroke-width="2" fill="none"></circle>
<circle cx="6378.31" cy="1854.15" r="4" stroke="rgb(93,0,255)" stroke-width="2" fill="none"></circle>
<circle cx="269.756" cy="2054.68" r="4" stroke="rgb(0,255,123)" stroke-width="2" fill="none"></circle>
<circle cx="6382.31" cy="3004.67" r="4" stroke="rgb(0,255,123)" stroke-width="2" fill="none"></circle>
<circle cx="2166.63" cy="1312.69" r="4" stroke="rgb(0,119,255)" stroke-width="2" fill="none"></circle>
<circle cx="5949.44" cy="1023.11" r="4" stroke="rgb(0,119,255)" stroke-width="2" fill="none"></circle>
<circle cx="1791.53" cy="2533.13" r="4" stroke="rgb(229,255,0)" stroke-width="2" fill="none"></circle>
<circle cx="5945.07" cy="1671.72" r="4" stroke="rgb(229,255,0)" stroke-width="2" fill="none"></circle>
<circle cx="1193.89" cy="2327.57" r="4" stroke="rgb(255,0,25)" stroke-width="2" fill="none"></circle>
<circle cx="6000.98" cy="1303.68" r="4" stroke="rgb(255,0,25)" stroke-width="2" fill="none"></circle>
<circle cx="1392.06" cy="2600.58" r="4" stroke="rgb(250,0,255)" stroke-width="2" fill="none"></circle>
<circle cx="5821" cy="1707.23" r="4" stroke="rgb(250,0,255)" stroke-width="2" fill="none"></circle>
<circle cx="689.245" cy="2002.05" r="4" stroke="rgb(97,0,255)" stroke-width="2" fill="none"></circle>
<circle cx="6514.23" cy="1708.53" r="4" stroke="rgb(97,0,255)" stroke-width="2" fill="none"></circle>
<circle cx="1242.09" cy="1418.52" r="4" stroke="rgb(255,0,0)" stroke-width="2" fill="none"></circle>
<circle cx="6027.84" cy="1715.7" r="4" stroke="rgb(255,0,0)" stroke-width="2" fill="none"></circle>
<circle cx="2474.29" cy="1298.11" r="4" stroke="rgb(0,195,255)" stroke-width="2" fill="none"></circle>
<circle cx="5603.26" cy="1313.62" r="4" stroke="rgb(0,195,255)" stroke-width="2" fill="none"></circle>
<circle cx="908.609" cy="2224.7" r="4" stroke="rgb(0,255,212)" stroke-width="2" fill="none"></circle>
<circle cx="6558.29" cy="1350.89" r="4" stroke="rgb(0,255,212)" stroke-width="2" fill="none"></circle>
<circle cx="1348.55" cy="1610.28" r="4" stroke="rgb(255,199,0)" stroke-width="2" fill="none"></circle>
<circle cx="5912.41" cy="1360.07" r="4" stroke="rgb(255,199,0)" stroke-width="2" fill="none"></circle>
<circle cx="1768.58" cy="1570.24" r="4" stroke="rgb(161,0,255)" stroke-width="2" fill="none"></circle>
<circle cx="5746.67" cy="1358.17" r="4" stroke="rgb(161,0,255)" stroke-width="2" fill="none"></circle>
<circle cx="1350.32" cy="2608.36" r="4" stroke="rgb(0,153,255)" stroke-width="2" fill="none"></circle>
<circle cx="6446.61" cy="1397.93" r="4" stroke="rgb(0,153,255)" stroke-width="2" fill="none"></circle>
<circle cx="1377.65" cy="2406.4" r="4" stroke="rgb(38,255,0)" stroke-width="2" fill="none"></circle>
<circle cx="6093.03" cy="2053.53" r="4" stroke="rgb(38,255,0)" stroke-width="2" fill="none"></circle>
<circle cx="1538.81" cy="2515.23" r="4" stroke="rgb(255,178,0)" stroke-width="2" fill="none"></circle>
<circle cx="6141.29" cy="1832.1" r="4" stroke="rgb(255,178,0)" stroke-width="2" fill="none"></circle>
<circle cx="1664.55" cy="2786.28" r="4" stroke="rgb(255,0,21)" stroke-width="2" fill="none"></circle>
<circle cx="6059.35" cy="1449.39" r="4" stroke="rgb(255,0,21)" stroke-width="2" fill="none"></circle>
<circle cx="2454.32" cy="2386.06" r="4" stroke="rgb(135,255,0)" stroke-width="2" fill="none"></circle>
<circle cx="6397.39" cy="2321.64" r="4" stroke="rgb(135,255,0)" stroke-width="2" fill="none"></circle>
<circle cx="1016.73" cy="2380.15" r="4" stroke="rgb(255,165,0)" stroke-width="2" fill="none"></circle>
<circle cx="6664.68" cy="1521.12" r="4" stroke="rgb(255,165,0)" stroke-width="2" fill="none"></circle>
<circle cx="980.055" cy="2343.1" r="4" stroke="rgb(0,255,152)" stroke-width="2" fill="none"></circle>
<circle cx="6173.98" cy="2378.31" r="4" stroke="rgb(0,255,152)" stroke-width="2" fill="none"></circle>
<circle cx="3043.23" cy="2170.52" r="4" stroke="rgb(229,255,0)" stroke-width="2" fill="none"></circle>
<circle cx="5988.22" cy="2046.69" r="4" stroke="rgb(229,255,0)" stroke-width="2" fill="none"></circle>
<circle cx="1206.2" cy="2451.93" r="4" stroke="rgb(0,157,255)" stroke-width="2" fill="none"></circle>
<circle cx="6359.27" cy="2230.93" r="4" stroke="rgb(0,157,255)" stroke-width="2" fill="none"></circle>
<circle cx="1844.55" cy="1741.24" r="4" stroke="rgb(225,255,0)" stroke-width="2" fill="none"></circle>
<circle cx="6403.1" cy="1702.28" r="4" stroke="rgb(225,255,0)" stroke-width="2" fill="none"></circle>
<circle cx="689.245" cy="2002.05" r="4" stroke="rgb(0,255,233)" stroke-width="2" fill="none"></circle>
<circle cx="6498.74" cy="2581.04" r="4" stroke="rgb(0,255,233)" stroke-width="2" fill="none"></circle>
<circle cx="2145.14" cy="2658.63" r="4" stroke="rgb(255,0,63)" stroke-width="2" fill="none"></circle>
<circle cx="5912.61" cy="2592.26" r="4" stroke="rgb(255,0,63)" stroke-width="2" fill="none"></circle>
<circle cx="1652.77" cy="2475.96" r="4" stroke="rgb(0,123,255)" stroke-width="2" fill="none"></circle>
<circle cx="6537.88" cy="1843.33" r="4" stroke="rgb(0,123,255)" stroke-width="2" fill="none"></circle>
<circle cx="1559.56" cy="2337.09" r="4" stroke="rgb(255,0,68)" stroke-width="2" fill="none"></circle>
<circle cx="7089.05" cy="2060.26" r="4" stroke="rgb(255,0,68)" stroke-width="2" fill="none"></circle>
<circle cx="1206.2" cy="2451.93" r="4" stroke="rgb(0,255,76)" stroke-width="2" fill="none"></circle>
<circle cx="6360.6" cy="2230.99" r="4" stroke="rgb(0,255,76)" stroke-width="2" fill="none"></circle>
<circle cx="1649.18" cy="2455.13" r="4" stroke="rgb(229,0,255)" stroke-width="2" fill="none"></circle>
<circle cx="6517.85" cy="2613.85" r="4" stroke="rgb(229,0,255)" stroke-width="2" fill="none"></circle>
<circle cx="1968.63" cy="2584.81" r="4" stroke="rgb(255,157,0)" stroke-width="2" fill="none"></circle>
<circle cx="6686.62" cy="2714.14" r="4" stroke="rgb(255,157,0)" stroke-width="2" fill="none"></circle>
<circle cx="2892.08" cy="2370.07" r="4" stroke="rgb(0,114,255)" stroke-width="2" fill="none"></circle>
<circle cx="6028.67" cy="1775.43" r="4" stroke="rgb(0,114,255)" stroke-width="2" fill="none"></circle>
<circle cx="980.055" cy="2343.1" r="4" stroke="rgb(16,255,0)" stroke-width="2" fill="none"></circle>
<circle cx="6176.6" cy="2375.59" r="4" stroke="rgb(16,255,0)" stroke-width="2" fill="none"></circle>
<circle cx="1698.18" cy="2578.64" r="4" stroke="rgb(254,0,255)" stroke-width="2" fill="none"></circle>
<circle cx="6536.04" cy="1893.1" r="4" stroke="rgb(254,0,255)" stroke-width="2" fill="none"></circle>
<circle cx="1915.28" cy="1452.22" r="4" stroke="rgb(255,12,0)" stroke-width="2" fill="none"></circle>
<circle cx="5817.78" cy="1952.85" r="4" stroke="rgb(255,12,0)" stroke-width="2" fill="none"></circle>
<circle cx="922.283" cy="2392.85" r="4" stroke="rgb(255,0,136)" stroke-width="2" fill="none"></circle>
<circle cx="6196.63" cy="2480.41" r="4" stroke="rgb(255,0,136)" stroke-width="2" fill="none"></circle>
<circle cx="1419.45" cy="1548.74" r="4" stroke="rgb(0,8,255)" stroke-width="2" fill="none"></circle>
<circle cx="6460.27" cy="2128.95" r="4" stroke="rgb(0,8,255)" stroke-width="2" fill="none"></circle>
<circle cx="2909.09" cy="2122.02" r="4" stroke="rgb(255,0,12)" stroke-width="2" fill="none"></circle>
<circle cx="5908.4" cy="2350.78" r="4" stroke="rgb(255,0,12)" stroke-width="2" fill="none"></circle>
<circle cx="980.055" cy="2343.1" r="4" stroke="rgb(114,0,255)" stroke-width="2" fill="none"></circle>
<circle cx="6178.22" cy="2373.75" r="4" stroke="rgb(114,0,255)" stroke-width="2" fill="none"></circle>
<circle cx="1886.95" cy="1418.05" r="4" stroke="rgb(0,255,89)" stroke-width="2" fill="none"></circle>
<circle cx="6653.19" cy="2620.7" r="4" stroke="rgb(0,255,89)" stroke-width="2" fill="none"></circle>
<circle cx="2264.56" cy="2272.23" r="4" stroke="rgb(255,0,12)" stroke-width="2" fill="none"></circle>
<circle cx="5875.3" cy="2676.48" r="4" stroke="rgb(255,0,12)" stroke-width="2" fill="none"></circle>
<circle cx="1961.42" cy="1480.43" r="4" stroke="rgb(80,255,0)" stroke-width="2" fill="none"></circle>
<circle cx="6970.94" cy="2084.15" r="4" stroke="rgb(80,255,0)" stroke-width="2" fill="none"></circle>
<circle cx="1961.42" cy="1480.43" r="4" stroke="rgb(0,242,255)" stroke-width="2" fill="none"></circle>
<circle cx="6970.94" cy="2084.15" r="4" stroke="rgb(0,242,255)" stroke-width="2" fill="none"></circle>
<circle cx="980.055" cy="2343.1" r="4" stroke="rgb(153,0,255)" stroke-width="2" fill="none"></circle>
<circle cx="6179.82" cy="2371.81" r="4" stroke="rgb(153,0,255)" stroke-width="2" fill="none"></circle>
<circle cx="1439.05" cy="1575.56" r="4" stroke="rgb(255,80,0)" stroke-width="2" fill="none"></circle>
<circle cx="5938.73" cy="1394.14" r="4" stroke="rgb(255,80,0)" stroke-width="2" fill="none"></circle>
</svg>