<?xml version="1.0" standalone="yes"?>
<!-- SVG graphic -->
<svg xmlns='http://www.w3.org/2000/svg' xmlns:xlink='http://www.w3.org/1999/xlink'
width="8064px" height="3024px" preserveAspectRatio="xMinYMin meet" viewBox="0 0 8064 3024" version="1.1">
<image x="0" y="0" width="4032px" height="3024px" opacity="1" xlink:href="/home/jeong/Code/2D-to-3D-Modeling-using-AI/Make3D/Image/20200227_180634.jpg"/>
<image x="4032" y="0" width="4032px" height="3024px" opacity="1" xlink:href="/home/jeong/Code/2D-to-3D-Modeling-using-AI/Make3D/Image/20200227_180729.jpg"/>
<polyline points="2734.87,1253.43,6318.61,561.367" stroke="rgb(182,255,0)" stroke-width="2" fill="none"></polyline>
<polyline points="2682.72,1269.1,5948.9,2358.04" stroke="rgb(255,144,0)" stroke-width="2" fill="none"></polyline>
<polyline points="2651.48,1301.13,6832.7,1756.94" stroke="rgb(153,255,0)" stroke-width="2" fill="none"></polyline>
<polyline points="2359.45,1312.79,5262.35,383.554" stroke="rgb(0,255,152)" stroke-width="2" fill="none"></polyline>
<polyline points="2731.93,1322.44,6461.63,904.536" stroke="rgb(101,255,0)" stroke-width="2" fill="none"></polyline>
<polyline points="2710.22,1335.62,5642.89,1435.95" stroke="rgb(186,0,255)" stroke-width="2" fill="none"></polyline>
<polyline points="2453.69,1343.13,5900.86,384.65" stroke="rgb(255,229,0)" stroke-width="2" fill="none"></polyline>
<polyline points="2725.95,1346.37,5642.89,1435.95" stroke="rgb(186,0,255)" stroke-width="2" fill="none"></polyline>
<polyline points="2703.5,1348.51,5802.69,1627.5" stroke="rgb(255,0,233)" stroke-width="2" fill="none"></polyline>
<polyline points="1531.66,1370.15,6259.24,1166.07" stroke="rgb(16,255,0)" stroke-width="2" fill="none"></polyline>
<polyline points="2614.04,1373.44,6670.98,1442.59" stroke="rgb(97,0,255)" stroke-width="2" fill="none"></polyline>
<polyline points="1652.55,1379.28,6840.62,1375.25" stroke="rgb(255,0,127)" stroke-width="2" fill="none"></polyline>
<polyline points="1795.87,1382.97,6745.63,1621.97" stroke="rgb(0,255,33)" stroke-width="2" fill="none"></polyline>
<polyline points="1665.22,1407.8,5638.95,1013.38" stroke="rgb(144,0,255)" stroke-width="2" fill="none"></polyline>
<polyline points="1611.37,1424.76,5351.64,662.18" stroke="rgb(255,0,136)" stroke-width="2" fill="none"></polyline>
<polyline points="1412.29,1440.24,5910.64,1796.28" stroke="rgb(255,0,106)" stroke-width="2" fill="none"></polyline>
<polyline points="1848.89,1479.89,6755.94,1501.35" stroke="rgb(255,0,199)" stroke-width="2" fill="none"></polyline>
<polyline points="1942.21,1492.02,5919.75,707" stroke="rgb(123,255,0)" stroke-width="2" fill="none"></polyline>
<polyline points="1425.26,1505.33,6648.12,1008.35" stroke="rgb(255,246,0)" stroke-width="2" fill="none"></polyline>
<polyline points="1984.65,1523.02,5798.96,520.735" stroke="rgb(0,255,76)" stroke-width="2" fill="none"></polyline>
<polyline points="1770.94,1529.96,5941.62,1631.62" stroke="rgb(51,255,0)" stroke-width="2" fill="none"></polyline>
<polyline points="2163.02,1543.11,6806.61,1154.63" stroke="rgb(255,0,51)" stroke-width="2" fill="none"></polyline>
<polyline points="1428.33,1566.16,5686.85,980.717" stroke="rgb(255,42,0)" stroke-width="2" fill="none"></polyline>
<polyline points="1705.56,1574.01,5585.38,1176.03" stroke="rgb(255,0,110)" stroke-width="2" fill="none"></polyline>
<polyline points="1439.05,1575.56,6125.68,2243.91" stroke="rgb(255,0,174)" stroke-width="2" fill="none"></polyline>
<polyline points="2067.32,1581.49,6317.92,765.598" stroke="rgb(255,34,0)" stroke-width="2" fill="none"></polyline>
<polyline points="2258.46,1582.94,6013.22,1585.38" stroke="rgb(255,119,0)" stroke-width="2" fill="none"></polyline>
<polyline points="1861.88,1584.92,5837.04,1708.56" stroke="rgb(255,246,0)" stroke-width="2" fill="none"></polyline>
<polyline points="2062.82,1589.11,5892.68,1531.34" stroke="rgb(255,0,136)" stroke-width="2" fill="none"></polyline>
<polyline points="2061.76,1598.35,5790.67,506.958" stroke="rgb(238,0,255)" stroke-width="2" fill="none"></polyline>
<polyline points="1880.15,1601.18,6132.12,2383.09" stroke="rgb(25,255,0)" stroke-width="2" fill="none"></polyline>
<polyline points="1901.47,1609.11,5720.56,565.495" stroke="rgb(161,0,255)" stroke-width="2" fill="none"></polyline>
<polyline points="1936.09,1617.48,5746.26,589.925" stroke="rgb(0,161,255)" stroke-width="2" fill="none"></polyline>
<polyline points="2093.51,1623.11,5829.93,1130.62" stroke="rgb(0,174,255)" stroke-width="2" fill="none"></polyline>
<polyline points="2114.64,1630.26,5847.19,609.346" stroke="rgb(195,255,0)" stroke-width="2" fill="none"></polyline>
<polyline points="1817.47,1640.46,5612.21,553.113" stroke="rgb(246,0,255)" stroke-width="2" fill="none"></polyline>
<polyline points="1970.9,1644.69,5916.88,1543.27" stroke="rgb(255,0,21)" stroke-width="2" fill="none"></polyline>
<polyline points="1815.94,1662.83,6038.37,1577.1" stroke="rgb(255,0,0)" stroke-width="2" fill="none"></polyline>
<polyline points="1859.6,1670.37,5900.59,795.12" stroke="rgb(110,255,0)" stroke-width="2" fill="none"></polyline>
<polyline points="1852.8,1671.54,5755.85,653.081" stroke="rgb(254,0,255)" stroke-width="2" fill="none"></polyline>
<polyline points="1867.83,1678.23,6291.78,1250.53" stroke="rgb(16,255,0)" stroke-width="2" fill="none"></polyline>
<polyline points="1831.89,1691.71,6298.97,1254.69" stroke="rgb(255,0,12)" stroke-width="2" fill="none"></polyline>
<polyline points="1876.48,1693.88,6203.98,1214.14" stroke="rgb(127,0,255)" stroke-width="2" fill="none"></polyline>
<polyline points="1840.48,1693.91,6101.58,920.741" stroke="rgb(21,0,255)" stroke-width="2" fill="none"></polyline>
<polyline points="1364.58,1703.45,5182.47,585.898" stroke="rgb(131,0,255)" stroke-width="2" fill="none"></polyline>
<polyline points="1824.92,1733.63,5766.45,623.061" stroke="rgb(0,4,255)" stroke-width="2" fill="none"></polyline>
<polyline points="436.011,1741.4,6596.29,1776.92" stroke="rgb(0,85,255)" stroke-width="2" fill="none"></polyline>
<polyline points="3126.51,1809.93,6009.14,1240.64" stroke="rgb(101,255,0)" stroke-width="2" fill="none"></polyline>
<polyline points="540.428,1813.9,6045.08,834.822" stroke="rgb(0,161,255)" stroke-width="2" fill="none"></polyline>
<polyline points="3099.19,1820.26,6616.49,1998.96" stroke="rgb(0,255,127)" stroke-width="2" fill="none"></polyline>
<polyline points="772.635,1821.98,5276.27,987.484" stroke="rgb(59,255,0)" stroke-width="2" fill="none"></polyline>
<polyline points="2848.69,1925.07,6593.14,1327.71" stroke="rgb(255,0,208)" stroke-width="2" fill="none"></polyline>
<polyline points="2771.47,1933.1,5387.9,359.089" stroke="rgb(0,255,76)" stroke-width="2" fill="none"></polyline>
<polyline points="3088.06,1948.01,6071.33,2406.48" stroke="rgb(16,255,0)" stroke-width="2" fill="none"></polyline>
<polyline points="2875.82,1959.15,6685.58,1367.54" stroke="rgb(0,255,157)" stroke-width="2" fill="none"></polyline>
<polyline points="3066.03,1992.24,7008.34,1161.07" stroke="rgb(255,0,127)" stroke-width="2" fill="none"></polyline>
<polyline points="664.192,1998.14,5746.26,589.925" stroke="rgb(255,0,12)" stroke-width="2" fill="none"></polyline>
<polyline points="2815.58,2010.95,6639.79,1372.36" stroke="rgb(0,233,255)" stroke-width="2" fill="none"></polyline>
<polyline points="3000.06,2040.64,5579.07,874.717" stroke="rgb(255,119,0)" stroke-width="2" fill="none"></polyline>
<polyline points="2818.27,2040.97,5947.74,738.337" stroke="rgb(0,182,255)" stroke-width="2" fill="none"></polyline>
<polyline points="2840.37,2047.2,6655.04,1350.73" stroke="rgb(255,0,29)" stroke-width="2" fill="none"></polyline>
<polyline points="659.292,2052.34,5715.99,558.4" stroke="rgb(255,63,0)" stroke-width="2" fill="none"></polyline>
<polyline points="2852.06,2070.56,5841.68,1527.5" stroke="rgb(21,255,0)" stroke-width="2" fill="none"></polyline>
<polyline points="3000.13,2071.1,5814.01,1164.33" stroke="rgb(0,191,255)" stroke-width="2" fill="none"></polyline>
<polyline points="2897.35,2119.73,5839,1560.71" stroke="rgb(144,255,0)" stroke-width="2" fill="none"></polyline>
<polyline points="2845.23,2135.37,5943.13,1610.54" stroke="rgb(0,212,255)" stroke-width="2" fill="none"></polyline>
<polyline points="2866.23,2154.03,5896.77,1682.44" stroke="rgb(255,21,0)" stroke-width="2" fill="none"></polyline>
<polyline points="1082.04,2184.59,6838.64,1845.46" stroke="rgb(165,255,0)" stroke-width="2" fill="none"></polyline>
<polyline points="2906.05,2189.85,6676.33,1108.31" stroke="rgb(246,255,0)" stroke-width="2" fill="none"></polyline>
<polyline points="2965.67,2190.59,5529.19,628.315" stroke="rgb(89,255,0)" stroke-width="2" fill="none"></polyline>
<polyline points="2619.54,2198.93,5295.63,702.97" stroke="rgb(255,89,0)" stroke-width="2" fill="none"></polyline>
<polyline points="2343.15,2230.29,6073.96,922.75" stroke="rgb(0,255,250)" stroke-width="2" fill="none"></polyline>
<polyline points="1434.25,2239.55,6182.01,2253.95" stroke="rgb(97,255,0)" stroke-width="2" fill="none"></polyline>
<polyline points="2346.59,2241.94,5822.81,1155.04" stroke="rgb(221,0,255)" stroke-width="2" fill="none"></polyline>
<polyline points="949.026,2247.3,5959.02,1379.67" stroke="rgb(238,0,255)" stroke-width="2" fill="none"></polyline>
<polyline points="1057.52,2266.74,6729.65,1515.78" stroke="rgb(0,0,255)" stroke-width="2" fill="none"></polyline>
<polyline points="2929.59,2271.41,6660.78,1211.49" stroke="rgb(255,182,0)" stroke-width="2" fill="none"></polyline>
<polyline points="1040.74,2274.19,6611.92,1806.2" stroke="rgb(0,255,152)" stroke-width="2" fill="none"></polyline>
<polyline points="1490.82,2275.03,5594.16,1157.3" stroke="rgb(255,0,97)" stroke-width="2" fill="none"></polyline>
<polyline points="1500.02,2277.17,6021.96,809.591" stroke="rgb(21,0,255)" stroke-width="2" fill="none"></polyline>
<polyline points="1182.19,2279.57,5896.3,711.791" stroke="rgb(255,0,229)" stroke-width="2" fill="none"></polyline>
<polyline points="3056.7,2294.86,6591.36,850.276" stroke="rgb(157,255,0)" stroke-width="2" fill="none"></polyline>
<polyline points="994.195,2325.42,6171.58,793.272" stroke="rgb(221,255,0)" stroke-width="2" fill="none"></polyline>
<polyline points="2346.11,2331.76,5908.58,1765.08" stroke="rgb(255,0,182)" stroke-width="2" fill="none"></polyline>
<polyline points="2250.98,2336.66,5803.83,1591.41" stroke="rgb(0,169,255)" stroke-width="2" fill="none"></polyline>
<polyline points="1399.43,2342.86,5173.18,943.545" stroke="rgb(0,63,255)" stroke-width="2" fill="none"></polyline>
<polyline points="980.055,2343.1,6044.3,1344.76" stroke="rgb(199,0,255)" stroke-width="2" fill="none"></polyline>
<polyline points="1340.4,2390,5138.37,668.595" stroke="rgb(216,255,0)" stroke-width="2" fill="none"></polyline>
<polyline points="922.283,2392.85,5578.22,883.055" stroke="rgb(182,0,255)" stroke-width="2" fill="none"></polyline>
<polyline points="1326.02,2399.99,5726.96,544.136" stroke="rgb(0,225,255)" stroke-width="2" fill="none"></polyline>
<polyline points="1424.05,2401.89,5852.64,1023.14" stroke="rgb(110,0,255)" stroke-width="2" fill="none"></polyline>
<polyline points="2216.55,2402.18,5867.31,1659.6" stroke="rgb(153,0,255)" stroke-width="2" fill="none"></polyline>
<polyline points="1340.43,2406.58,5728.96,431.792" stroke="rgb(0,161,255)" stroke-width="2" fill="none"></polyline>
<polyline points="1409.09,2407.39,5725.95,1121.01" stroke="rgb(255,93,0)" stroke-width="2" fill="none"></polyline>
<polyline points="1200.19,2422.17,5710.31,1129.98" stroke="rgb(255,0,68)" stroke-width="2" fill="none"></polyline>
<polyline points="2226.73,2422.87,5899.74,1650.73" stroke="rgb(203,0,255)" stroke-width="2" fill="none"></polyline>
<polyline points="1226.3,2424.63,5889.94,1120.87" stroke="rgb(153,255,0)" stroke-width="2" fill="none"></polyline>
<polyline points="1200.89,2446,5942.11,912.692" stroke="rgb(0,80,255)" stroke-width="2" fill="none"></polyline>
<polyline points="1206.2,2451.93,6156.11,1179.76" stroke="rgb(255,38,0)" stroke-width="2" fill="none"></polyline>
<polyline points="1649.18,2455.13,6310.05,1620.51" stroke="rgb(0,255,110)" stroke-width="2" fill="none"></polyline>
<polyline points="2351.51,2459.11,5826.43,1669.19" stroke="rgb(0,199,255)" stroke-width="2" fill="none"></polyline>
<polyline points="1987.52,2461.65,6355.13,837.33" stroke="rgb(97,0,255)" stroke-width="2" fill="none"></polyline>
<polyline points="1174.71,2462.37,5839.88,642.809" stroke="rgb(0,182,255)" stroke-width="2" fill="none"></polyline>
<polyline points="1185.26,2492.75,6150.98,528.627" stroke="rgb(0,255,178)" stroke-width="2" fill="none"></polyline>
<polyline points="1711.88,2500.51,5388.53,343.286" stroke="rgb(225,255,0)" stroke-width="2" fill="none"></polyline>
<polyline points="2325.88,2508.95,6714.64,1215.94" stroke="rgb(0,255,55)" stroke-width="2" fill="none"></polyline>
<polyline points="1229.58,2513.02,5819.84,525.151" stroke="rgb(255,178,0)" stroke-width="2" fill="none"></polyline>
<polyline points="1538.81,2515.23,5563.5,617.958" stroke="rgb(42,255,0)" stroke-width="2" fill="none"></polyline>
<polyline points="2114.13,2532.04,6770.52,1950.4" stroke="rgb(0,255,174)" stroke-width="2" fill="none"></polyline>
<polyline points="1791.53,2533.13,6073.65,1056.5" stroke="rgb(255,80,0)" stroke-width="2" fill="none"></polyline>
<polyline points="2121.23,2538.48,5430.5,559.654" stroke="rgb(0,55,255)" stroke-width="2" fill="none"></polyline>
<polyline points="2126.89,2542.01,6745.92,1442.24" stroke="rgb(51,255,0)" stroke-width="2" fill="none"></polyline>
<polyline points="1233.82,2561.53,5632.08,690.888" stroke="rgb(255,0,106)" stroke-width="2" fill="none"></polyline>
<polyline points="2122.86,2562.24,5654.43,1015.24" stroke="rgb(0,255,203)" stroke-width="2" fill="none"></polyline>
<polyline points="1732.55,2573.55,6616.52,2008.75" stroke="rgb(242,0,255)" stroke-width="2" fill="none"></polyline>
<polyline points="2122.12,2573.91,6683.2,1221.19" stroke="rgb(0,255,233)" stroke-width="2" fill="none"></polyline>
<polyline points="1353.64,2584.66,5830.49,1422.51" stroke="rgb(106,0,255)" stroke-width="2" fill="none"></polyline>
<polyline points="2276.79,2587.33,5858.29,1652.29" stroke="rgb(0,67,255)" stroke-width="2" fill="none"></polyline>
<polyline points="2292.85,2611.57,5949.91,1633.12" stroke="rgb(16,255,0)" stroke-width="2" fill="none"></polyline>
<polyline points="1435.33,2635.65,5892.69,778.017" stroke="rgb(0,221,255)" stroke-width="2" fill="none"></polyline>
<polyline points="2103.56,2636.58,5883.02,1106.2" stroke="rgb(255,216,0)" stroke-width="2" fill="none"></polyline>
<polyline points="2180.85,2637.88,6916.61,1182.34" stroke="rgb(255,93,0)" stroke-width="2" fill="none"></polyline>
<polyline points="2403.63,2644.13,6420.51,677.919" stroke="rgb(255,0,97)" stroke-width="2" fill="none"></polyline>
<polyline points="2122.15,2664.15,5643.63,1236.93" stroke="rgb(0,255,25)" stroke-width="2" fill="none"></polyline>
<polyline points="2115.89,2676.47,5936.09,1493.58" stroke="rgb(153,0,255)" stroke-width="2" fill="none"></polyline>
<polyline points="1967.07,2677.4,6952.6,1236.09" stroke="rgb(0,199,255)" stroke-width="2" fill="none"></polyline>
<polyline points="1534.6,2704.26,5794.41,474.657" stroke="rgb(255,229,0)" stroke-width="2" fill="none"></polyline>
<polyline points="1789.37,2799.11,6799.35,1136.24" stroke="rgb(0,33,255)" stroke-width="2" fill="none"></polyline>
<polyline points="1986.25,2827.15,6328.05,2231.02" stroke="rgb(255,229,0)" stroke-width="2" fill="none"></polyline>
<polyline points="1867.89,2834.59,6627.14,2012.29" stroke="rgb(238,0,255)" stroke-width="2" fill="none"></polyline>
<circle cx="2734.87" cy="1253.43" r="4" stroke="rgb(182,255,0)" stroke-width="2" fill="none"></circle>
<circle cx="6318.61" cy="561.367" r="4" stroke="rgb(182,255,0)" stroke-width="2" fill="none"></circle>
<circle cx="2682.72" cy="1269.1" r="4" stroke="rgb(255,144,0)" stroke-width="2" fill="none"></circle>
<circle cx="5948.9" cy="2358.04" r="4" stroke="rgb(255,144,0)" stroke-width="2" fill="none"></circle>
<circle cx="2651.48" cy="1301.13" r="4" stroke="rgb(153,255,0)" stroke-width="2" fill="none"></circle>
<circle cx="6832.7" cy="1756.94" r="4" stroke="rgb(153,255,0)" stroke-width="2" fill="none"></circle>
<circle cx="2359.45" cy="1312.79" r="4" stroke="rgb(0,255,152)" stroke-width="2" fill="none"></circle>
<circle cx="5262.35" cy="383.554" r="4" stroke="rgb(0,255,152)" stroke-width="2" fill="none"></circle>
<circle cx="2731.93" cy="1322.44" r="4" stroke="rgb(101,255,0)" stroke-width="2" fill="none"></circle>
<circle cx="6461.63" cy="904.536" r="4" stroke="rgb(101,255,0)" stroke-width="2" fill="none"></circle>
<circle cx="2710.22" cy="1335.62" r="4" stroke="rgb(186,0,255)" stroke-width="2" fill="none"></circle>
<circle cx="5642.89" cy="1435.95" r="4" stroke="rgb(186,0,255)" stroke-width="2" fill="none"></circle>
<circle cx="2453.69" cy="1343.13" r="4" stroke="rgb(255,229,0)" stroke-width="2" fill="none"></circle>
<circle cx="5900.86" cy="384.65" r="4" stroke="rgb(255,229,0)" stroke-width="2" fill="none"></circle>
<circle cx="2725.95" cy="1346.37" r="4" stroke="rgb(186,0,255)" stroke-width="2" fill="none"></circle>
<circle cx="5642.89" cy="1435.95" r="4" stroke="rgb(186,0,255)" stroke-width="2" fill="none"></circle>
<circle cx="2703.5" cy="1348.51" r="4" stroke="rgb(255,0,233)" stroke-width="2" fill="none"></circle>
<circle cx="5802.69" cy="1627.5" r="4" stroke="rgb(255,0,233)" stroke-width="2" fill="none"></circle>
<circle cx="1531.66" cy="1370.15" r="4" stroke="rgb(16,255,0)" stroke-width="2" fill="none"></circle>
<circle cx="6259.24" cy="1166.07" r="4" stroke="rgb(16,255,0)" stroke-width="2" fill="none"></circle>
<circle cx="2614.04" cy="1373.44" r="4" stroke="rgb(97,0,255)" stroke-width="2" fill="none"></circle>
<circle cx="6670.98" cy="1442.59" r="4" stroke="rgb(97,0,255)" stroke-width="2" fill="none"></circle>
<circle cx="1652.55" cy="1379.28" r="4" stroke="rgb(255,0,127)" stroke-width="2" fill="none"></circle>
<circle cx="6840.62" cy="1375.25" r="4" stroke="rgb(255,0,127)" stroke-width="2" fill="none"></circle>
<circle cx="1795.87" cy="1382.97" r="4" stroke="rgb(0,255,33)" stroke-width="2" fill="none"></circle>
<circle cx="6745.63" cy="1621.97" r="4" stroke="rgb(0,255,33)" stroke-width="2" fill="none"></circle>
<circle cx="1665.22" cy="1407.8" r="4" stroke="rgb(144,0,255)" stroke-width="2" fill="none"></circle>
<circle cx="5638.95" cy="1013.38" r="4" stroke="rgb(144,0,255)" stroke-width="2" fill="none"></circle>
<circle cx="1611.37" cy="1424.76" r="4" stroke="rgb(255,0,136)" stroke-width="2" fill="none"></circle>
<circle cx="5351.64" cy="662.18" r="4" stroke="rgb(255,0,136)" stroke-width="2" fill="none"></circle>
<circle cx="1412.29" cy="1440.24" r="4" stroke="rgb(255,0,106)" stroke-width="2" fill="none"></circle>
<circle cx="5910.64" cy="1796.28" r="4" stroke="rgb(255,0,106)" stroke-width="2" fill="none"></circle>
<circle cx="1848.89" cy="1479.89" r="4" stroke="rgb(255,0,199)" stroke-width="2" fill="none"></circle>
<circle cx="6755.94" cy="1501.35" r="4" stroke="rgb(255,0,199)" stroke-width="2" fill="none"></circle>
<circle cx="1942.21" cy="1492.02" r="4" stroke="rgb(123,255,0)" stroke-width="2" fill="none"></circle>
<circle cx="5919.75" cy="707" r="4" stroke="rgb(123,255,0)" stroke-width="2" fill="none"></circle>
<circle cx="1425.26" cy="1505.33" r="4" stroke="rgb(255,246,0)" stroke-width="2" fill="none"></circle>
<circle cx="6648.12" cy="1008.35" r="4" stroke="rgb(255,246,0)" stroke-width="2" fill="none"></circle>
<circle cx="1984.65" cy="1523.02" r="4" stroke="rgb(0,255,76)" stroke-width="2" fill="none"></circle>
<circle cx="5798.96" cy="520.735" r="4" stroke="rgb(0,255,76)" stroke-width="2" fill="none"></circle>
<circle cx="1770.94" cy="1529.96" r="4" stroke="rgb(51,255,0)" stroke-width="2" fill="none"></circle>
<circle cx="5941.62" cy="1631.62" r="4" stroke="rgb(51,255,0)" stroke-width="2" fill="none"></circle>
<circle cx="2163.02" cy="1543.11" r="4" stroke="rgb(255,0,51)" stroke-width="2" fill="none"></circle>
<circle cx="6806.61" cy="1154.63" r="4" stroke="rgb(255,0,51)" stroke-width="2" fill="none"></circle>
<circle cx="1428.33" cy="1566.16" r="4" stroke="rgb(255,42,0)" stroke-width="2" fill="none"></circle>
<circle cx="5686.85" cy="980.717" r="4" stroke="rgb(255,42,0)" stroke-width="2" fill="none"></circle>
<circle cx="1705.56" cy="1574.01" r="4" stroke="rgb(255,0,110)" stroke-width="2" fill="none"></circle>
<circle cx="5585.38" cy="1176.03" r="4" stroke="rgb(255,0,110)" stroke-width="2" fill="none"></circle>
<circle cx="1439.05" cy="1575.56" r="4" stroke="rgb(255,0,174)" stroke-width="2" fill="none"></circle>
<circle cx="6125.68" cy="2243.91" r="4" stroke="rgb(255,0,174)" stroke-width="2" fill="none"></circle>
<circle cx="2067.32" cy="1581.49" r="4" stroke="rgb(255,34,0)" stroke-width="2" fill="none"></circle>
<circle cx="6317.92" cy="765.598" r="4" stroke="rgb(255,34,0)" stroke-width="2" fill="none"></circle>
<circle cx="2258.46" cy="1582.94" r="4" stroke="rgb(255,119,0)" stroke-width="2" fill="none"></circle>
<circle cx="6013.22" cy="1585.38" r="4" stroke="rgb(255,119,0)" stroke-width="2" fill="none"></circle>
<circle cx="1861.88" cy="1584.92" r="4" stroke="rgb(255,246,0)" stroke-width="2" fill="none"></circle>
<circle cx="5837.04" cy="1708.56" r="4" stroke="rgb(255,246,0)" stroke-width="2" fill="none"></circle>
<circle cx="2062.82" cy="1589.11" r="4" stroke="rgb(255,0,136)" stroke-width="2" fill="none"></circle>
<circle cx="5892.68" cy="1531.34" r="4" stroke="rgb(255,0,136)" stroke-width="2" fill="none"></circle>
<circle cx="2061.76" cy="1598.35" r="4" stroke="rgb(238,0,255)" stroke-width="2" fill="none"></circle>
<circle cx="5790.67" cy="506.958" r="4" stroke="rgb(238,0,255)" stroke-width="2" fill="none"></circle>
<circle cx="1880.15" cy="1601.18" r="4" stroke="rgb(25,255,0)" stroke-width="2" fill="none"></circle>
<circle cx="6132.12" cy="2383.09" r="4" stroke="rgb(25,255,0)" stroke-width="2" fill="none"></circle>
<circle cx="1901.47" cy="1609.11" r="4" stroke="rgb(161,0,255)" stroke-width="2" fill="none"></circle>
<circle cx="5720.56" cy="565.495" r="4" stroke="rgb(161,0,255)" stroke-width="2" fill="none"></circle>
<circle cx="1936.09" cy="1617.48" r="4" stroke="rgb(0,161,255)" stroke-width="2" fill="none"></circle>
<circle cx="5746.26" cy="589.925" r="4" stroke="rgb(0,161,255)" stroke-width="2" fill="none"></circle>
<circle cx="2093.51" cy="1623.11" r="4" stroke="rgb(0,174,255)" stroke-width="2" fill="none"></circle>
<circle cx="5829.93" cy="1130.62" r="4" stroke="rgb(0,174,255)" stroke-width="2" fill="none"></circle>
<circle cx="2114.64" cy="1630.26" r="4" stroke="rgb(195,255,0)" stroke-width="2" fill="none"></circle>
<circle cx="5847.19" cy="609.346" r="4" stroke="rgb(195,255,0)" stroke-width="2" fill="none"></circle>
<circle cx="1817.47" cy="1640.46" r="4" stroke="rgb(246,0,255)" stroke-width="2" fill="none"></circle>
<circle cx="5612.21" cy="553.113" r="4" stroke="rgb(246,0,255)" stroke-width="2" fill="none"></circle>
<circle cx="1970.9" cy="1644.69" r="4" stroke="rgb(255,0,21)" stroke-width="2" fill="none"></circle>
<circle cx="5916.88" cy="1543.27" r="4" stroke="rgb(255,0,21)" stroke-width="2" fill="none"></circle>
<circle cx="1815.94" cy="1662.83" r="4" stroke="rgb(255,0,0)" stroke-width="2" fill="none"></circle>
<circle cx="6038.37" cy="1577.1" r="4" stroke="rgb(255,0,0)" stroke-width="2" fill="none"></circle>
<circle cx="1859.6" cy="1670.37" r="4" stroke="rgb(110,255,0)" stroke-width="2" fill="none"></circle>
<circle cx="5900.59" cy="795.12" r="4" stroke="rgb(110,255,0)" stroke-width="2" fill="none"></circle>
<circle cx="1852.8" cy="1671.54" r="4" stroke="rgb(254,0,255)" stroke-width="2" fill="none"></circle>
<circle cx="5755.85" cy="653.081" r="4" stroke="rgb(254,0,255)" stroke-width="2" fill="none"></circle>
<circle cx="1867.83" cy="1678.23" r="4" stroke="rgb(16,255,0)" stroke-width="2" fill="none"></circle>
<circle cx="6291.78" cy="1250.53" r="4" stroke="rgb(16,255,0)" stroke-width="2" fill="none"></circle>
<circle cx="1831.89" cy="1691.71" r="4" stroke="rgb(255,0,12)" stroke-width="2" fill="none"></circle>
<circle cx="6298.97" cy="1254.69" r="4" stroke="rgb(255,0,12)" stroke-width="2" fill="none"></circle>
<circle cx="1876.48" cy="1693.88" r="4" stroke="rgb(127,0,255)" stroke-width="2" fill="none"></circle>
<circle cx="6203.98" cy="1214.14" r="4" stroke="rgb(127,0,255)" stroke-width="2" fill="none"></circle>
<circle cx="1840.48" cy="1693.91" r="4" stroke="rgb(21,0,255)" stroke-width="2" fill="none"></circle>
<circle cx="6101.58" cy="920.741" r="4" stroke="rgb(21,0,255)" stroke-width="2" fill="none"></circle>
<circle cx="1364.58" cy="1703.45" r="4" stroke="rgb(131,0,255)" stroke-width="2" fill="none"></circle>
<circle cx="5182.47" cy="585.898" r="4" stroke="rgb(131,0,255)" stroke-width="2" fill="none"></circle>
<circle cx="1824.92" cy="1733.63" r="4" stroke="rgb(0,4,255)" stroke-width="2" fill="none"></circle>
<circle cx="5766.45" cy="623.061" r="4" stroke="rgb(0,4,255)" stroke-width="2" fill="none"></circle>
<circle cx="436.011" cy="1741.4" r="4" stroke="rgb(0,85,255)" stroke-width="2" fill="none"></circle>
<circle cx="6596.29" cy="1776.92" r="4" stroke="rgb(0,85,255)" stroke-width="2" fill="none"></circle>
<circle cx="3126.51" cy="1809.93" r="4" stroke="rgb(101,255,0)" stroke-width="2" fill="none"></circle>
<circle cx="6009.14" cy="1240.64" r="4" stroke="rgb(101,255,0)" stroke-width="2" fill="none"></circle>
<circle cx="540.428" cy="1813.9" r="4" stroke="rgb(0,161,255)" stroke-width="2" fill="none"></circle>
<circle cx="6045.08" cy="834.822" r="4" stroke="rgb(0,161,255)" stroke-width="2" fill="none"></circle>
<circle cx="3099.19" cy="1820.26" r="4" stroke="rgb(0,255,127)" stroke-width="2" fill="none"></circle>
<circle cx="6616.49" cy="1998.96" r="4" stroke="rgb(0,255,127)" stroke-width="2" fill="none"></circle>
<circle cx="772.635" cy="1821.98" r="4" stroke="rgb(59,255,0)" stroke-width="2" fill="none"></circle>
<circle cx="5276.27" cy="987.484" r="4" stroke="rgb(59,255,0)" stroke-width="2" fill="none"></circle>
<circle cx="2848.69" cy="1925.07" r="4" stroke="rgb(255,0,208)" stroke-width="2" fill="none"></circle>
<circle cx="6593.14" cy="1327.71" r="4" stroke="rgb(255,0,208)" stroke-width="2" fill="none"></circle>
<circle cx="2771.47" cy="1933.1" r="4" stroke="rgb(0,255,76)" stroke-width="2" fill="none"></circle>
<circle cx="5387.9" cy="359.089" r="4" stroke="rgb(0,255,76)" stroke-width="2" fill="none"></circle>
<circle cx="3088.06" cy="1948.01" r="4" stroke="rgb(16,255,0)" stroke-width="2" fill="none"></circle>
<circle cx="6071.33" cy="2406.48" r="4" stroke="rgb(16,255,0)" stroke-width="2" fill="none"></circle>
<circle cx="2875.82" cy="1959.15" r="4" stroke="rgb(0,255,157)" stroke-width="2" fill="none"></circle>
<circle cx="6685.58" cy="1367.54" r="4" stroke="rgb(0,255,157)" stroke-width="2" fill="none"></circle>
<circle cx="3066.03" cy="1992.24" r="4" stroke="rgb(255,0,127)" stroke-width="2" fill="none"></circle>
<circle cx="7008.34" cy="1161.07" r="4" stroke="rgb(255,0,127)" stroke-width="2" fill="none"></circle>
<circle cx="664.192" cy="1998.14" r="4" stroke="rgb(255,0,12)" stroke-width="2" fill="none"></circle>
<circle cx="5746.26" cy="589.925" r="4" stroke="rgb(255,0,12)" stroke-width="2" fill="none"></circle>
<circle cx="2815.58" cy="2010.95" r="4" stroke="rgb(0,233,255)" stroke-width="2" fill="none"></circle>
<circle cx="6639.79" cy="1372.36" r="4" stroke="rgb(0,233,255)" stroke-width="2" fill="none"></circle>
<circle cx="3000.06" cy="2040.64" r="4" stroke="rgb(255,119,0)" stroke-width="2" fill="none"></circle>
<circle cx="5579.07" cy="874.717" r="4" stroke="rgb(255,119,0)" stroke-width="2" fill="none"></circle>
<circle cx="2818.27" cy="2040.97" r="4" stroke="rgb(0,182,255)" stroke-width="2" fill="none"></circle>
<circle cx="5947.74" cy="738.337" r="4" stroke="rgb(0,182,255)" stroke-width="2" fill="none"></circle>
<circle cx="2840.37" cy="2047.2" r="4" stroke="rgb(255,0,29)" stroke-width="2" fill="none"></circle>
<circle cx="6655.04" cy="1350.73" r="4" stroke="rgb(255,0,29)" stroke-width="2" fill="none"></circle>
<circle cx="659.292" cy="2052.34" r="4" stroke="rgb(255,63,0)" stroke-width="2" fill="none"></circle>
<circle cx="5715.99" cy="558.4" r="4" stroke="rgb(255,63,0)" stroke-width="2" fill="none"></circle>
<circle cx="2852.06" cy="2070.56" r="4" stroke="rgb(21,255,0)" stroke-width="2" fill="none"></circle>
<circle cx="5841.68" cy="1527.5" r="4" stroke="rgb(21,255,0)" stroke-width="2" fill="none"></circle>
<circle cx="3000.13" cy="2071.1" r="4" stroke="rgb(0,191,255)" stroke-width="2" fill="none"></circle>
<circle cx="5814.01" cy="1164.33" r="4" stroke="rgb(0,191,255)" stroke-width="2" fill="none"></circle>
<circle cx="2897.35" cy="2119.73" r="4" stroke="rgb(144,255,0)" stroke-width="2" fill="none"></circle>
<circle cx="5839" cy="1560.71" r="4" stroke="rgb(144,255,0)" stroke-width="2" fill="none"></circle>
<circle cx="2845.23" cy="2135.37" r="4" stroke="rgb(0,212,255)" stroke-width="2" fill="none"></circle>
<circle cx="5943.13" cy="1610.54" r="4" stroke="rgb(0,212,255)" stroke-width="2" fill="none"></circle>
<circle cx="2866.23" cy="2154.03" r="4" stroke="rgb(255,21,0)" stroke-width="2" fill="none"></circle>
<circle cx="5896.77" cy="1682.44" r="4" stroke="rgb(255,21,0)" stroke-width="2" fill="none"></circle>
<circle cx="1082.04" cy="2184.59" r="4" stroke="rgb(165,255,0)" stroke-width="2" fill="none"></circle>
<circle cx="6838.64" cy="1845.46" r="4" stroke="rgb(165,255,0)" stroke-width="2" fill="none"></circle>
<circle cx="2906.05" cy="2189.85" r="4" stroke="rgb(246,255,0)" stroke-width="2" fill="none"></circle>
<circle cx="6676.33" cy="1108.31" r="4" stroke="rgb(246,255,0)" stroke-width="2" fill="none"></circle>
<circle cx="2965.67" cy="2190.59" r="4" stroke="rgb(89,255,0)" stroke-width="2" fill="none"></circle>
<circle cx="5529.19" cy="628.315" r="4" stroke="rgb(89,255,0)" stroke-width="2" fill="none"></circle>
<circle cx="2619.54" cy="2198.93" r="4" stroke="rgb(255,89,0)" stroke-width="2" fill="none"></circle>
<circle cx="5295.63" cy="702.97" r="4" stroke="rgb(255,89,0)" stroke-width="2" fill="none"></circle>
<circle cx="2343.15" cy="2230.29" r="4" stroke="rgb(0,255,250)" stroke-width="2" fill="none"></circle>
<circle cx="6073.96" cy="922.75" r="4" stroke="rgb(0,255,250)" stroke-width="2" fill="none"></circle>
<circle cx="1434.25" cy="2239.55" r="4" stroke="rgb(97,255,0)" stroke-width="2" fill="none"></circle>
<circle cx="6182.01" cy="2253.95" r="4" stroke="rgb(97,255,0)" stroke-width="2" fill="none"></circle>
<circle cx="2346.59" cy="2241.94" r="4" stroke="rgb(221,0,255)" stroke-width="2" fill="none"></circle>
<circle cx="5822.81" cy="1155.04" r="4" stroke="rgb(221,0,255)" stroke-width="2" fill="none"></circle>
<circle cx="949.026" cy="2247.3" r="4" stroke="rgb(238,0,255)" stroke-width="2" fill="none"></circle>
<circle cx="5959.02" cy="1379.67" r="4" stroke="rgb(238,0,255)" stroke-width="2" fill="none"></circle>
<circle cx="1057.52" cy="2266.74" r="4" stroke="rgb(0,0,255)" stroke-width="2" fill="none"></circle>
<circle cx="6729.65" cy="1515.78" r="4" stroke="rgb(0,0,255)" stroke-width="2" fill="none"></circle>
<circle cx="2929.59" cy="2271.41" r="4" stroke="rgb(255,182,0)" stroke-width="2" fill="none"></circle>
<circle cx="6660.78" cy="1211.49" r="4" stroke="rgb(255,182,0)" stroke-width="2" fill="none"></circle>
<circle cx="1040.74" cy="2274.19" r="4" stroke="rgb(0,255,152)" stroke-width="2" fill="none"></circle>
<circle cx="6611.92" cy="1806.2" r="4" stroke="rgb(0,255,152)" stroke-width="2" fill="none"></circle>
<circle cx="1490.82" cy="2275.03" r="4" stroke="rgb(255,0,97)" stroke-width="2" fill="none"></circle>
<circle cx="5594.16" cy="1157.3" r="4" stroke="rgb(255,0,97)" stroke-width="2" fill="none"></circle>
<circle cx="1500.02" cy="2277.17" r="4" stroke="rgb(21,0,255)" stroke-width="2" fill="none"></circle>
<circle cx="6021.96" cy="809.591" r="4" stroke="rgb(21,0,255)" stroke-width="2" fill="none"></circle>
<circle cx="1182.19" cy="2279.57" r="4" stroke="rgb(255,0,229)" stroke-width="2" fill="none"></circle>
<circle cx="5896.3" cy="711.791" r="4" stroke="rgb(255,0,229)" stroke-width="2" fill="none"></circle>
<circle cx="3056.7" cy="2294.86" r="4" stroke="rgb(157,255,0)" stroke-width="2" fill="none"></circle>
<circle cx="6591.36" cy="850.276" r="4" stroke="rgb(157,255,0)" stroke-width="2" fill="none"></circle>
<circle cx="994.195" cy="2325.42" r="4" stroke="rgb(221,255,0)" stroke-width="2" fill="none"></circle>
<circle cx="6171.58" cy="793.272" r="4" stroke="rgb(221,255,0)" stroke-width="2" fill="none"></circle>
<circle cx="2346.11" cy="2331.76" r="4" stroke="rgb(255,0,182)" stroke-width="2" fill="none"></circle>
<circle cx="5908.58" cy="1765.08" r="4" stroke="rgb(255,0,182)" stroke-width="2" fill="none"></circle>
<circle cx="2250.98" cy="2336.66" r="4" stroke="rgb(0,169,255)" stroke-width="2" fill="none"></circle>
<circle cx="5803.83" cy="1591.41" r="4" stroke="rgb(0,169,255)" stroke-width="2" fill="none"></circle>
<circle cx="1399.43" cy="2342.86" r="4" stroke="rgb(0,63,255)" stroke-width="2" fill="none"></circle>
<circle cx="5173.18" cy="943.545" r="4" stroke="rgb(0,63,255)" stroke-width="2" fill="none"></circle>
<circle cx="980.055" cy="2343.1" r="4" stroke="rgb(199,0,255)" stroke-width="2" fill="none"></circle>
<circle cx="6044.3" cy="1344.76" r="4" stroke="rgb(199,0,255)" stroke-width="2" fill="none"></circle>
<circle cx="1340.4" cy="2390" r="4" stroke="rgb(216,255,0)" stroke-width="2" fill="none"></circle>
<circle cx="5138.37" cy="668.595" r="4" stroke="rgb(216,255,0)" stroke-width="2" fill="none"></circle>
<circle cx="922.283" cy="2392.85" r="4" stroke="rgb(182,0,255)" stroke-width="2" fill="none"></circle>
<circle cx="5578.22" cy="883.055" r="4" stroke="rgb(182,0,255)" stroke-width="2" fill="none"></circle>
<circle cx="1326.02" cy="2399.99" r="4" stroke="rgb(0,225,255)" stroke-width="2" fill="none"></circle>
<circle cx="5726.96" cy="544.136" r="4" stroke="rgb(0,225,255)" stroke-width="2" fill="none"></circle>
<circle cx="1424.05" cy="2401.89" r="4" stroke="rgb(110,0,255)" stroke-width="2" fill="none"></circle>
<circle cx="5852.64" cy="1023.14" r="4" stroke="rgb(110,0,255)" stroke-width="2" fill="none"></circle>
<circle cx="2216.55" cy="2402.18" r="4" stroke="rgb(153,0,255)" stroke-width="2" fill="none"></circle>
<circle cx="5867.31" cy="1659.6" r="4" stroke="rgb(153,0,255)" stroke-width="2" fill="none"></circle>
<circle cx="1340.43" cy="2406.58" r="4" stroke="rgb(0,161,255)" stroke-width="2" fill="none"></circle>
<circle cx="5728.96" cy="431.792" r="4" stroke="rgb(0,161,255)" stroke-width="2" fill="none"></circle>
<circle cx="1409.09" cy="2407.39" r="4" stroke="rgb(255,93,0)" stroke-width="2" fill="none"></circle>
<circle cx="5725.95" cy="1121.01" r="4" stroke="rgb(255,93,0)" stroke-width="2" fill="none"></circle>
<circle cx="1200.19" cy="2422.17" r="4" stroke="rgb(255,0,68)" stroke-width="2" fill="none"></circle>
<circle cx="5710.31" cy="1129.98" r="4" stroke="rgb(255,0,68)" stroke-width="2" fill="none"></circle>
<circle cx="2226.73" cy="2422.87" r="4" stroke="rgb(203,0,255)" stroke-width="2" fill="none"></circle>
<circle cx="5899.74" cy="1650.73" r="4" stroke="rgb(203,0,255)" stroke-width="2" fill="none"></circle>
<circle cx="1226.3" cy="2424.63" r="4" stroke="rgb(153,255,0)" stroke-width="2" fill="none"></circle>
<circle cx="5889.94" cy="1120.87" r="4" stroke="rgb(153,255,0)" stroke-width="2" fill="none"></circle>
<circle cx="1200.89" cy="2446" r="4" stroke="rgb(0,80,255)" stroke-width="2" fill="none"></circle>
<circle cx="5942.11" cy="912.692" r="4" stroke="rgb(0,80,255)" stroke-width="2" fill="none"></circle>
<circle cx="1206.2" cy="2451.93" r="4" stroke="rgb(255,38,0)" stroke-width="2" fill="none"></circle>
<circle cx="6156.11" cy="1179.76" r="4" stroke="rgb(255,38,0)" stroke-width="2" fill="none"></circle>
<circle cx="1649.18" cy="2455.13" r="4" stroke="rgb(0,255,110)" stroke-width="2" fill="none"></circle>
<circle cx="6310.05" cy="1620.51" r="4" stroke="rgb(0,255,110)" stroke-width="2" fill="none"></circle>
<circle cx="2351.51" cy="2459.11" r="4" stroke="rgb(0,199,255)" stroke-width="2" fill="none"></circle>
<circle cx="5826.43" cy="1669.19" r="4" stroke="rgb(0,199,255)" stroke-width="2" fill="none"></circle>
<circle cx="1987.52" cy="2461.65" r="4" stroke="rgb(97,0,255)" stroke-width="2" fill="none"></circle>
<circle cx="6355.13" cy="837.33" r="4" stroke="rgb(97,0,255)" stroke-width="2" fill="none"></circle>
<circle cx="1174.71" cy="2462.37" r="4" stroke="rgb(0,182,255)" stroke-width="2" fill="none"></circle>
<circle cx="5839.88" cy="642.809" r="4" stroke="rgb(0,182,255)" stroke-width="2" fill="none"></circle>
<circle cx="1185.26" cy="2492.75" r="4" stroke="rgb(0,255,178)" stroke-width="2" fill="none"></circle>
<circle cx="6150.98" cy="528.627" r="4" stroke="rgb(0,255,178)" stroke-width="2" fill="none"></circle>
<circle cx="1711.88" cy="2500.51" r="4" stroke="rgb(225,255,0)" stroke-width="2" fill="none"></circle>
<circle cx="5388.53" cy="343.286" r="4" stroke="rgb(225,255,0)" stroke-width="2" fill="none"></circle>
<circle cx="2325.88" cy="2508.95" r="4" stroke="rgb(0,255,55)" stroke-width="2" fill="none"></circle>
<circle cx="6714.64" cy="1215.94" r="4" stroke="rgb(0,255,55)" stroke-width="2" fill="none"></circle>
<circle cx="1229.58" cy="2513.02" r="4" stroke="rgb(255,178,0)" stroke-width="2" fill="none"></circle>
<circle cx="5819.84" cy="525.151" r="4" stroke="rgb(255,178,0)" stroke-width="2" fill="none"></circle>
<circle cx="1538.81" cy="2515.23" r="4" stroke="rgb(42,255,0)" stroke-width="2" fill="none"></circle>
<circle cx="5563.5" cy="617.958" r="4" stroke="rgb(42,255,0)" stroke-width="2" fill="none"></circle>
<circle cx="2114.13" cy="2532.04" r="4" stroke="rgb(0,255,174)" stroke-width="2" fill="none"></circle>
<circle cx="6770.52" cy="1950.4" r="4" stroke="rgb(0,255,174)" stroke-width="2" fill="none"></circle>
<circle cx="1791.53" cy="2533.13" r="4" stroke="rgb(255,80,0)" stroke-width="2" fill="none"></circle>
<circle cx="6073.65" cy="1056.5" r="4" stroke="rgb(255,80,0)" stroke-width="2" fill="none"></circle>
<circle cx="2121.23" cy="2538.48" r="4" stroke="rgb(0,55,255)" stroke-width="2" fill="none"></circle>
<circle cx="5430.5" cy="559.654" r="4" stroke="rgb(0,55,255)" stroke-width="2" fill="none"></circle>
<circle cx="2126.89" cy="2542.01" r="4" stroke="rgb(51,255,0)" stroke-width="2" fill="none"></circle>
<circle cx="6745.92" cy="1442.24" r="4" stroke="rgb(51,255,0)" stroke-width="2" fill="none"></circle>
<circle cx="1233.82" cy="2561.53" r="4" stroke="rgb(255,0,106)" stroke-width="2" fill="none"></circle>
<circle cx="5632.08" cy="690.888" r="4" stroke="rgb(255,0,106)" stroke-width="2" fill="none"></circle>
<circle cx="2122.86" cy="2562.24" r="4" stroke="rgb(0,255,203)" stroke-width="2" fill="none"></circle>
<circle cx="5654.43" cy="1015.24" r="4" stroke="rgb(0,255,203)" stroke-width="2" fill="none"></circle>
<circle cx="1732.55" cy="2573.55" r="4" stroke="rgb(242,0,255)" stroke-width="2" fill="none"></circle>
<circle cx="6616.52" cy="2008.75" r="4" stroke="rgb(242,0,255)" stroke-width="2" fill="none"></circle>
<circle cx="2122.12" cy="2573.91" r="4" stroke="rgb(0,255,233)" stroke-width="2" fill="none"></circle>
<circle cx="6683.2" cy="1221.19" r="4" stroke="rgb(0,255,233)" stroke-width="2" fill="none"></circle>
<circle cx="1353.64" cy="2584.66" r="4" stroke="rgb(106,0,255)" stroke-width="2" fill="none"></circle>
<circle cx="5830.49" cy="1422.51" r="4" stroke="rgb(106,0,255)" stroke-width="2" fill="none"></circle>
<circle cx="2276.79" cy="2587.33" r="4" stroke="rgb(0,67,255)" stroke-width="2" fill="none"></circle>
<circle cx="5858.29" cy="1652.29" r="4" stroke="rgb(0,67,255)" stroke-width="2" fill="none"></circle>
<circle cx="2292.85" cy="2611.57" r="4" stroke="rgb(16,255,0)" stroke-width="2" fill="none"></circle>
<circle cx="5949.91" cy="1633.12" r="4" stroke="rgb(16,255,0)" stroke-width="2" fill="none"></circle>
<circle cx="1435.33" cy="2635.65" r="4" stroke="rgb(0,221,255)" stroke-width="2" fill="none"></circle>
<circle cx="5892.69" cy="778.017" r="4" stroke="rgb(0,221,255)" stroke-width="2" fill="none"></circle>
<circle cx="2103.56" cy="2636.58" r="4" stroke="rgb(255,216,0)" stroke-width="2" fill="none"></circle>
<circle cx="5883.02" cy="1106.2" r="4" stroke="rgb(255,216,0)" stroke-width="2" fill="none"></circle>
<circle cx="2180.85" cy="2637.88" r="4" stroke="rgb(255,93,0)" stroke-width="2" fill="none"></circle>
<circle cx="6916.61" cy="1182.34" r="4" stroke="rgb(255,93,0)" stroke-width="2" fill="none"></circle>
<circle cx="2403.63" cy="2644.13" r="4" stroke="rgb(255,0,97)" stroke-width="2" fill="none"></circle>
<circle cx="6420.51" cy="677.919" r="4" stroke="rgb(255,0,97)" stroke-width="2" fill="none"></circle>
<circle cx="2122.15" cy="2664.15" r="4" stroke="rgb(0,255,25)" stroke-width="2" fill="none"></circle>
<circle cx="5643.63" cy="1236.93" r="4" stroke="rgb(0,255,25)" stroke-width="2" fill="none"></circle>
<circle cx="2115.89" cy="2676.47" r="4" stroke="rgb(153,0,255)" stroke-width="2" fill="none"></circle>
<circle cx="5936.09" cy="1493.58" r="4" stroke="rgb(153,0,255)" stroke-width="2" fill="none"></circle>
<circle cx="1967.07" cy="2677.4" r="4" stroke="rgb(0,199,255)" stroke-width="2" fill="none"></circle>
<circle cx="6952.6" cy="1236.09" r="4" stroke="rgb(0,199,255)" stroke-width="2" fill="none"></circle>
<circle cx="1534.6" cy="2704.26" r="4" stroke="rgb(255,229,0)" stroke-width="2" fill="none"></circle>
<circle cx="5794.41" cy="474.657" r="4" stroke="rgb(255,229,0)" stroke-width="2" fill="none"></circle>
<circle cx="1789.37" cy="2799.11" r="4" stroke="rgb(0,33,255)" stroke-width="2" fill="none"></circle>
<circle cx="6799.35" cy="1136.24" r="4" stroke="rgb(0,33,255)" stroke-width="2" fill="none"></circle>
<circle cx="1986.25" cy="2827.15" r="4" stroke="rgb(255,229,0)" stroke-width="2" fill="none"></circle>
<circle cx="6328.05" cy="2231.02" r="4" stroke="rgb(255,229,0)" stroke-width="2" fill="none"></circle>
<circle cx="1867.89" cy="2834.59" r="4" stroke="rgb(238,0,255)" stroke-width="2" fill="none"></circle>
<circle cx="6627.14" cy="2012.29" r="4" stroke="rgb(238,0,255)" stroke-width="2" fill="none"></circle>
</svg>