<?xml version="1.0" standalone="yes"?>
<!-- SVG graphic -->
<svg xmlns='http://www.w3.org/2000/svg' xmlns:xlink='http://www.w3.org/1999/xlink'
width="8064px" height="3024px" preserveAspectRatio="xMinYMin meet" viewBox="0 0 8064 3024" version="1.1">
<image x="0" y="0" width="4032px" height="3024px" opacity="1" xlink:href="/home/jeong/Code/2D-to-3D-Modeling-using-AI/Make3D/Image/20200227_180635.jpg"/>
<image x="4032" y="0" width="4032px" height="3024px" opacity="1" xlink:href="/home/jeong/Code/2D-to-3D-Modeling-using-AI/Make3D/Image/20200227_180651.jpg"/>
<polyline points="2969.72,2160.56,7179.84,1692.91" stroke="rgb(0,255,50)" stroke-width="2" fill="none"></polyline>
<polyline points="1601.6,1308.28,6225.97,779.516" stroke="rgb(46,0,255)" stroke-width="2" fill="none"></polyline>
<polyline points="1605.73,2318.5,5597.94,1231.39" stroke="rgb(238,0,255)" stroke-width="2" fill="none"></polyline>
<polyline points="1756.32,2626.04,5910.57,1246.48" stroke="rgb(203,255,0)" stroke-width="2" fill="none"></polyline>
<polyline points="1722.79,1187.21,6729.28,1713.3" stroke="rgb(255,0,174)" stroke-width="2" fill="none"></polyline>
<polyline points="2855.58,2053.07,6563.87,886.639" stroke="rgb(255,97,0)" stroke-width="2" fill="none"></polyline>
<polyline points="1103.7,1457,6644.5,897.339" stroke="rgb(255,144,0)" stroke-width="2" fill="none"></polyline>
<polyline points="1465.09,2086.46,5669.22,1375.42" stroke="rgb(255,0,4)" stroke-width="2" fill="none"></polyline>
<polyline points="2574.54,2329.77,5993.14,906.828" stroke="rgb(0,195,255)" stroke-width="2" fill="none"></polyline>
<polyline points="2127.01,1635.73,6554.68,1747.32" stroke="rgb(254,0,255)" stroke-width="2" fill="none"></polyline>
<polyline points="2852.01,2165.05,6862.53,1766.12" stroke="rgb(110,255,0)" stroke-width="2" fill="none"></polyline>
<polyline points="2201.28,1641.88,6744.93,1470.55" stroke="rgb(255,127,0)" stroke-width="2" fill="none"></polyline>
<polyline points="1901.72,1161.78,6052.98,1167.29" stroke="rgb(55,255,0)" stroke-width="2" fill="none"></polyline>
<polyline points="1633.14,2277.09,5822.56,2024.24" stroke="rgb(255,136,0)" stroke-width="2" fill="none"></polyline>
<polyline points="2132.95,1322.99,7050.05,1825.69" stroke="rgb(255,212,0)" stroke-width="2" fill="none"></polyline>
<polyline points="1236.42,1750.58,5404.06,1519.51" stroke="rgb(0,255,157)" stroke-width="2" fill="none"></polyline>
<polyline points="1502.76,1235.34,6448.97,1466.88" stroke="rgb(0,255,80)" stroke-width="2" fill="none"></polyline>
<polyline points="1819.06,1386.86,6868.53,1469.81" stroke="rgb(255,25,0)" stroke-width="2" fill="none"></polyline>
<polyline points="1666.51,1198.82,6291.53,1903.17" stroke="rgb(97,255,0)" stroke-width="2" fill="none"></polyline>
<polyline points="2211.57,1465.28,6644.72,1545.67" stroke="rgb(0,255,246)" stroke-width="2" fill="none"></polyline>
<polyline points="2748.51,1452.37,5775.98,1934.2" stroke="rgb(0,255,46)" stroke-width="2" fill="none"></polyline>
<polyline points="1286.86,2217.01,5265.29,1616.78" stroke="rgb(157,0,255)" stroke-width="2" fill="none"></polyline>
<polyline points="2132.95,1322.99,6266.24,1618.16" stroke="rgb(0,169,255)" stroke-width="2" fill="none"></polyline>
<polyline points="2319.89,1611.52,5847.49,1988.67" stroke="rgb(97,255,0)" stroke-width="2" fill="none"></polyline>
<polyline points="802.264,1942.71,5353.11,1940.46" stroke="rgb(255,17,0)" stroke-width="2" fill="none"></polyline>
<polyline points="1602.13,1528.2,5323.2,1965.56" stroke="rgb(127,255,0)" stroke-width="2" fill="none"></polyline>
<polyline points="1819.06,1386.86,6414.13,1457.84" stroke="rgb(153,255,0)" stroke-width="2" fill="none"></polyline>
<polyline points="1473.43,1588.35,5689.09,1765.73" stroke="rgb(0,255,182)" stroke-width="2" fill="none"></polyline>
<polyline points="1464.24,1294.89,7099.18,1830.46" stroke="rgb(255,0,119)" stroke-width="2" fill="none"></polyline>
<polyline points="2235.32,2475.91,7047.72,1879.98" stroke="rgb(255,0,144)" stroke-width="2" fill="none"></polyline>
<polyline points="1446.85,2022.18,5911.95,1776.66" stroke="rgb(255,0,12)" stroke-width="2" fill="none"></polyline>
<polyline points="1465.09,2086.46,7250.87,1650.01" stroke="rgb(255,0,101)" stroke-width="2" fill="none"></polyline>
<polyline points="3034.68,2065.17,6621.57,1528.43" stroke="rgb(131,255,0)" stroke-width="2" fill="none"></polyline>
<polyline points="1496.36,2140.48,5862.9,2032.83" stroke="rgb(225,0,255)" stroke-width="2" fill="none"></polyline>
<polyline points="2263.65,2466.06,6035.08,2001.13" stroke="rgb(170,0,255)" stroke-width="2" fill="none"></polyline>
<polyline points="1399.94,1309.94,5212.12,1863.36" stroke="rgb(255,204,0)" stroke-width="2" fill="none"></polyline>
<circle cx="2969.72" cy="2160.56" r="4" stroke="rgb(0,255,50)" stroke-width="2" fill="none"></circle>
<circle cx="7179.84" cy="1692.91" r="4" stroke="rgb(0,255,50)" stroke-width="2" fill="none"></circle>
<circle cx="1601.6" cy="1308.28" r="4" stroke="rgb(46,0,255)" stroke-width="2" fill="none"></circle>
<circle cx="6225.97" cy="779.516" r="4" stroke="rgb(46,0,255)" stroke-width="2" fill="none"></circle>
<circle cx="1605.73" cy="2318.5" r="4" stroke="rgb(238,0,255)" stroke-width="2" fill="none"></circle>
<circle cx="5597.94" cy="1231.39" r="4" stroke="rgb(238,0,255)" stroke-width="2" fill="none"></circle>
<circle cx="1756.32" cy="2626.04" r="4" stroke="rgb(203,255,0)" stroke-width="2" fill="none"></circle>
<circle cx="5910.57" cy="1246.48" r="4" stroke="rgb(203,255,0)" stroke-width="2" fill="none"></circle>
<circle cx="1722.79" cy="1187.21" r="4" stroke="rgb(255,0,174)" stroke-width="2" fill="none"></circle>
<circle cx="6729.28" cy="1713.3" r="4" stroke="rgb(255,0,174)" stroke-width="2" fill="none"></circle>
<circle cx="2855.58" cy="2053.07" r="4" stroke="rgb(255,97,0)" stroke-width="2" fill="none"></circle>
<circle cx="6563.87" cy="886.639" r="4" stroke="rgb(255,97,0)" stroke-width="2" fill="none"></circle>
<circle cx="1103.7" cy="1457" r="4" stroke="rgb(255,144,0)" stroke-width="2" fill="none"></circle>
<circle cx="6644.5" cy="897.339" r="4" stroke="rgb(255,144,0)" stroke-width="2" fill="none"></circle>
<circle cx="1465.09" cy="2086.46" r="4" stroke="rgb(255,0,4)" stroke-width="2" fill="none"></circle>
<circle cx="5669.22" cy="1375.42" r="4" stroke="rgb(255,0,4)" stroke-width="2" fill="none"></circle>
<circle cx="2574.54" cy="2329.77" r="4" stroke="rgb(0,195,255)" stroke-width="2" fill="none"></circle>
<circle cx="5993.14" cy="906.828" r="4" stroke="rgb(0,195,255)" stroke-width="2" fill="none"></circle>
<circle cx="2127.01" cy="1635.73" r="4" stroke="rgb(254,0,255)" stroke-width="2" fill="none"></circle>
<circle cx="6554.68" cy="1747.32" r="4" stroke="rgb(254,0,255)" stroke-width="2" fill="none"></circle>
<circle cx="2852.01" cy="2165.05" r="4" stroke="rgb(110,255,0)" stroke-width="2" fill="none"></circle>
<circle cx="6862.53" cy="1766.12" r="4" stroke="rgb(110,255,0)" stroke-width="2" fill="none"></circle>
<circle cx="2201.28" cy="1641.88" r="4" stroke="rgb(255,127,0)" stroke-width="2" fill="none"></circle>
<circle cx="6744.93" cy="1470.55" r="4" stroke="rgb(255,127,0)" stroke-width="2" fill="none"></circle>
<circle cx="1901.72" cy="1161.78" r="4" stroke="rgb(55,255,0)" stroke-width="2" fill="none"></circle>
<circle cx="6052.98" cy="1167.29" r="4" stroke="rgb(55,255,0)" stroke-width="2" fill="none"></circle>
<circle cx="1633.14" cy="2277.09" r="4" stroke="rgb(255,136,0)" stroke-width="2" fill="none"></circle>
<circle cx="5822.56" cy="2024.24" r="4" stroke="rgb(255,136,0)" stroke-width="2" fill="none"></circle>
<circle cx="2132.95" cy="1322.99" r="4" stroke="rgb(255,212,0)" stroke-width="2" fill="none"></circle>
<circle cx="7050.05" cy="1825.69" r="4" stroke="rgb(255,212,0)" stroke-width="2" fill="none"></circle>
<circle cx="1236.42" cy="1750.58" r="4" stroke="rgb(0,255,157)" stroke-width="2" fill="none"></circle>
<circle cx="5404.06" cy="1519.51" r="4" stroke="rgb(0,255,157)" stroke-width="2" fill="none"></circle>
<circle cx="1502.76" cy="1235.34" r="4" stroke="rgb(0,255,80)" stroke-width="2" fill="none"></circle>
<circle cx="6448.97" cy="1466.88" r="4" stroke="rgb(0,255,80)" stroke-width="2" fill="none"></circle>
<circle cx="1819.06" cy="1386.86" r="4" stroke="rgb(255,25,0)" stroke-width="2" fill="none"></circle>
<circle cx="6868.53" cy="1469.81" r="4" stroke="rgb(255,25,0)" stroke-width="2" fill="none"></circle>
<circle cx="1666.51" cy="1198.82" r="4" stroke="rgb(97,255,0)" stroke-width="2" fill="none"></circle>
<circle cx="6291.53" cy="1903.17" r="4" stroke="rgb(97,255,0)" stroke-width="2" fill="none"></circle>
<circle cx="2211.57" cy="1465.28" r="4" stroke="rgb(0,255,246)" stroke-width="2" fill="none"></circle>
<circle cx="6644.72" cy="1545.67" r="4" stroke="rgb(0,255,246)" stroke-width="2" fill="none"></circle>
<circle cx="2748.51" cy="1452.37" r="4" stroke="rgb(0,255,46)" stroke-width="2" fill="none"></circle>
<circle cx="5775.98" cy="1934.2" r="4" stroke="rgb(0,255,46)" stroke-width="2" fill="none"></circle>
<circle cx="1286.86" cy="2217.01" r="4" stroke="rgb(157,0,255)" stroke-width="2" fill="none"></circle>
<circle cx="5265.29" cy="1616.78" r="4" stroke="rgb(157,0,255)" stroke-width="2" fill="none"></circle>
<circle cx="2132.95" cy="1322.99" r="4" stroke="rgb(0,169,255)" stroke-width="2" fill="none"></circle>
<circle cx="6266.24" cy="1618.16" r="4" stroke="rgb(0,169,255)" stroke-width="2" fill="none"></circle>
<circle cx="2319.89" cy="1611.52" r="4" stroke="rgb(97,255,0)" stroke-width="2" fill="none"></circle>
<circle cx="5847.49" cy="1988.67" r="4" stroke="rgb(97,255,0)" stroke-width="2" fill="none"></circle>
<circle cx="802.264" cy="1942.71" r="4" stroke="rgb(255,17,0)" stroke-width="2" fill="none"></circle>
<circle cx="5353.11" cy="1940.46" r="4" stroke="rgb(255,17,0)" stroke-width="2" fill="none"></circle>
<circle cx="1602.13" cy="1528.2" r="4" stroke="rgb(127,255,0)" stroke-width="2" fill="none"></circle>
<circle cx="5323.2" cy="1965.56" r="4" stroke="rgb(127,255,0)" stroke-width="2" fill="none"></circle>
<circle cx="1819.06" cy="1386.86" r="4" stroke="rgb(153,255,0)" stroke-width="2" fill="none"></circle>
<circle cx="6414.13" cy="1457.84" r="4" stroke="rgb(153,255,0)" stroke-width="2" fill="none"></circle>
<circle cx="1473.43" cy="1588.35" r="4" stroke="rgb(0,255,182)" stroke-width="2" fill="none"></circle>
<circle cx="5689.09" cy="1765.73" r="4" stroke="rgb(0,255,182)" stroke-width="2" fill="none"></circle>
<circle cx="1464.24" cy="1294.89" r="4" stroke="rgb(255,0,119)" stroke-width="2" fill="none"></circle>
<circle cx="7099.18" cy="1830.46" r="4" stroke="rgb(255,0,119)" stroke-width="2" fill="none"></circle>
<circle cx="2235.32" cy="2475.91" r="4" stroke="rgb(255,0,144)" stroke-width="2" fill="none"></circle>
<circle cx="7047.72" cy="1879.98" r="4" stroke="rgb(255,0,144)" stroke-width="2" fill="none"></circle>
<circle cx="1446.85" cy="2022.18" r="4" stroke="rgb(255,0,12)" stroke-width="2" fill="none"></circle>
<circle cx="5911.95" cy="1776.66" r="4" stroke="rgb(255,0,12)" stroke-width="2" fill="none"></circle>
<circle cx="1465.09" cy="2086.46" r="4" stroke="rgb(255,0,101)" stroke-width="2" fill="none"></circle>
<circle cx="7250.87" cy="1650.01" r="4" stroke="rgb(255,0,101)" stroke-width="2" fill="none"></circle>
<circle cx="3034.68" cy="2065.17" r="4" stroke="rgb(131,255,0)" stroke-width="2" fill="none"></circle>
<circle cx="6621.57" cy="1528.43" r="4" stroke="rgb(131,255,0)" stroke-width="2" fill="none"></circle>
<circle cx="1496.36" cy="2140.48" r="4" stroke="rgb(225,0,255)" stroke-width="2" fill="none"></circle>
<circle cx="5862.9" cy="2032.83" r="4" stroke="rgb(225,0,255)" stroke-width="2" fill="none"></circle>
<circle cx="2263.65" cy="2466.06" r="4" stroke="rgb(170,0,255)" stroke-width="2" fill="none"></circle>
<circle cx="6035.08" cy="2001.13" r="4" stroke="rgb(170,0,255)" stroke-width="2" fill="none"></circle>
<circle cx="1399.94" cy="1309.94" r="4" stroke="rgb(255,204,0)" stroke-width="2" fill="none"></circle>
<circle cx="5212.12" cy="1863.36" r="4" stroke="rgb(255,204,0)" stroke-width="2" fill="none"></circle>
</svg>