<?xml version="1.0" standalone="yes"?>
<!-- SVG graphic -->
<svg xmlns='http://www.w3.org/2000/svg' xmlns:xlink='http://www.w3.org/1999/xlink'
width="8064px" height="3024px" preserveAspectRatio="xMinYMin meet" viewBox="0 0 8064 3024" version="1.1">
<image x="0" y="0" width="4032px" height="3024px" opacity="1" xlink:href="/home/jeong/Code/2D-to-3D-Modeling-using-AI/Make3D/Image/20200227_180635.jpg"/>
<image x="4032" y="0" width="4032px" height="3024px" opacity="1" xlink:href="/home/jeong/Code/2D-to-3D-Modeling-using-AI/Make3D/Image/20200227_180712.jpg"/>
<polyline points="1933.16,1944.69,5435.1,893.566" stroke="rgb(255,0,63)" stroke-width="2" fill="none"></polyline>
<polyline points="1608.66,1547.66,5617.15,924.065" stroke="rgb(255,0,178)" stroke-width="2" fill="none"></polyline>
<polyline points="2156,1613.93,6354.51,1692.21" stroke="rgb(135,255,0)" stroke-width="2" fill="none"></polyline>
<polyline points="2353.73,2381.87,6533.66,1694.55" stroke="rgb(255,174,0)" stroke-width="2" fill="none"></polyline>
<polyline points="1782.82,1300.21,6081.29,977.699" stroke="rgb(0,212,255)" stroke-width="2" fill="none"></polyline>
<polyline points="1791.69,1305.54,6083.72,984.879" stroke="rgb(0,246,255)" stroke-width="2" fill="none"></polyline>
<polyline points="1801.45,1302.48,6092.04,989.49" stroke="rgb(246,0,255)" stroke-width="2" fill="none"></polyline>
<polyline points="1797.95,1308.63,6086.94,993.393" stroke="rgb(255,199,0)" stroke-width="2" fill="none"></polyline>
<polyline points="1801.45,1302.48,6091.73,1023.07" stroke="rgb(255,102,0)" stroke-width="2" fill="none"></polyline>
<polyline points="1801.45,1302.48,6133.21,1044.24" stroke="rgb(0,255,250)" stroke-width="2" fill="none"></polyline>
<polyline points="2887.08,2069.91,6511.78,1168.73" stroke="rgb(255,0,119)" stroke-width="2" fill="none"></polyline>
<polyline points="1891.33,1425.83,6190.47,1170.7" stroke="rgb(255,0,199)" stroke-width="2" fill="none"></polyline>
<polyline points="1801.45,1302.48,6066.26,1176.77" stroke="rgb(0,255,55)" stroke-width="2" fill="none"></polyline>
<polyline points="1801.45,1302.48,6129.29,1074.28" stroke="rgb(55,0,255)" stroke-width="2" fill="none"></polyline>
<polyline points="2726.11,1253.06,5682.99,1081.17" stroke="rgb(0,114,255)" stroke-width="2" fill="none"></polyline>
<polyline points="2016.02,1575.07,6168.12,1185.92" stroke="rgb(63,255,0)" stroke-width="2" fill="none"></polyline>
<polyline points="2016.02,1575.07,6168.12,1185.92" stroke="rgb(0,225,255)" stroke-width="2" fill="none"></polyline>
<polyline points="1667.64,2481.04,5602.21,1194.41" stroke="rgb(0,33,255)" stroke-width="2" fill="none"></polyline>
<polyline points="2791.77,1358.93,6163.23,1098.42" stroke="rgb(255,161,0)" stroke-width="2" fill="none"></polyline>
<polyline points="2036.12,1588.83,5905.94,1210.49" stroke="rgb(255,110,0)" stroke-width="2" fill="none"></polyline>
<polyline points="2430.64,2276.08,5691.81,1111.18" stroke="rgb(255,0,237)" stroke-width="2" fill="none"></polyline>
<polyline points="2704.25,1139.55,5890.22,1087.5" stroke="rgb(255,119,0)" stroke-width="2" fill="none"></polyline>
<polyline points="2296.83,1438.89,6176.6,1115.61" stroke="rgb(0,255,148)" stroke-width="2" fill="none"></polyline>
<polyline points="2903.79,2007.53,6542.89,1767.82" stroke="rgb(255,0,148)" stroke-width="2" fill="none"></polyline>
<polyline points="2138.27,1553.09,6203.28,1105.08" stroke="rgb(238,0,255)" stroke-width="2" fill="none"></polyline>
<polyline points="2200.66,1573.34,5789.37,1616.56" stroke="rgb(131,255,0)" stroke-width="2" fill="none"></polyline>
<polyline points="2231.71,2453.91,6063.44,1110.32" stroke="rgb(0,255,195)" stroke-width="2" fill="none"></polyline>
<polyline points="2887.85,1260.65,6172.35,1136.33" stroke="rgb(255,0,72)" stroke-width="2" fill="none"></polyline>
<polyline points="1876.07,1521.71,5699.09,1247.15" stroke="rgb(67,0,255)" stroke-width="2" fill="none"></polyline>
<polyline points="1846.74,1328.18,6136.14,1251.77" stroke="rgb(255,0,12)" stroke-width="2" fill="none"></polyline>
<polyline points="1647.19,1157.11,5646.31,1260.92" stroke="rgb(0,101,255)" stroke-width="2" fill="none"></polyline>
<polyline points="1426.01,1323.55,5847.37,1806.99" stroke="rgb(29,255,0)" stroke-width="2" fill="none"></polyline>
<polyline points="1819.06,1386.86,6019.07,1825.95" stroke="rgb(0,221,255)" stroke-width="2" fill="none"></polyline>
<polyline points="545.893,1379.3,5404.93,1828.48" stroke="rgb(0,255,242)" stroke-width="2" fill="none"></polyline>
<polyline points="2200.98,1549.33,6280.94,1649.87" stroke="rgb(0,255,144)" stroke-width="2" fill="none"></polyline>
<polyline points="1488.93,1284.43,5872.39,1858.49" stroke="rgb(42,0,255)" stroke-width="2" fill="none"></polyline>
<polyline points="1499.27,1280.47,5875.77,1866.8" stroke="rgb(255,0,4)" stroke-width="2" fill="none"></polyline>
<polyline points="1499.27,1280.47,5875.77,1866.8" stroke="rgb(255,0,153)" stroke-width="2" fill="none"></polyline>
<polyline points="2130.22,2564.48,6451.89,1877.25" stroke="rgb(0,255,208)" stroke-width="2" fill="none"></polyline>
<polyline points="1533.54,1397.73,5815.43,1199.03" stroke="rgb(255,97,0)" stroke-width="2" fill="none"></polyline>
<polyline points="2378.22,1566.36,6114.71,1288.51" stroke="rgb(0,255,97)" stroke-width="2" fill="none"></polyline>
<polyline points="2008.49,1522.66,6329.07,1657.85" stroke="rgb(0,255,89)" stroke-width="2" fill="none"></polyline>
<polyline points="1700.09,1411.73,5298.25,1900.16" stroke="rgb(255,0,101)" stroke-width="2" fill="none"></polyline>
<polyline points="2026.4,1506.72,6149.09,1662.78" stroke="rgb(157,0,255)" stroke-width="2" fill="none"></polyline>
<polyline points="1998.26,1489.82,6136.47,1291.83" stroke="rgb(255,144,0)" stroke-width="2" fill="none"></polyline>
<polyline points="2215.44,1570.55,6279.11,1667.76" stroke="rgb(246,255,0)" stroke-width="2" fill="none"></polyline>
<polyline points="2078.79,1618.51,6210.05,1314.21" stroke="rgb(59,0,255)" stroke-width="2" fill="none"></polyline>
<polyline points="2734.3,1186.25,6544.42,1941.19" stroke="rgb(0,76,255)" stroke-width="2" fill="none"></polyline>
<polyline points="2375.32,2304.53,6313.1,1979.96" stroke="rgb(229,0,255)" stroke-width="2" fill="none"></polyline>
<polyline points="1338.64,1339.38,6486.19,1983.39" stroke="rgb(0,255,191)" stroke-width="2" fill="none"></polyline>
<polyline points="2887.08,2069.91,6147.3,1352.94" stroke="rgb(0,255,0)" stroke-width="2" fill="none"></polyline>
<polyline points="2025.49,1260.6,6053.83,2040.92" stroke="rgb(42,255,0)" stroke-width="2" fill="none"></polyline>
<polyline points="1534.8,1652.97,6779.73,1374.06" stroke="rgb(233,255,0)" stroke-width="2" fill="none"></polyline>
<polyline points="2156,1613.93,6658.23,1375.77" stroke="rgb(148,0,255)" stroke-width="2" fill="none"></polyline>
<polyline points="1356.42,1860.11,5477.05,1768.62" stroke="rgb(191,255,0)" stroke-width="2" fill="none"></polyline>
<polyline points="2378.22,1566.36,6532.79,2110.26" stroke="rgb(0,29,255)" stroke-width="2" fill="none"></polyline>
<polyline points="1509.01,1276.69,5879.28,1873.06" stroke="rgb(0,12,255)" stroke-width="2" fill="none"></polyline>
<polyline points="1969.17,1215.45,5983.61,2126.59" stroke="rgb(25,255,0)" stroke-width="2" fill="none"></polyline>
<polyline points="1808.38,1336.21,5741.72,1892.98" stroke="rgb(0,101,255)" stroke-width="2" fill="none"></polyline>
<polyline points="1996.13,1271.36,5951.53,2131.41" stroke="rgb(255,21,0)" stroke-width="2" fill="none"></polyline>
<polyline points="2055.49,1460.31,5923.61,1902.5" stroke="rgb(38,255,0)" stroke-width="2" fill="none"></polyline>
<polyline points="545.893,1379.3,5254.88,1930.16" stroke="rgb(199,255,0)" stroke-width="2" fill="none"></polyline>
<polyline points="2015.88,1692.33,5412.99,2156.63" stroke="rgb(4,255,0)" stroke-width="2" fill="none"></polyline>
<polyline points="1801.45,1302.48,6034.28,1345.34" stroke="rgb(0,255,216)" stroke-width="2" fill="none"></polyline>
<polyline points="1846.74,1328.18,5992.28,1442.72" stroke="rgb(42,0,255)" stroke-width="2" fill="none"></polyline>
<polyline points="1905.32,1417.67,6003.75,1982.55" stroke="rgb(0,255,106)" stroke-width="2" fill="none"></polyline>
<polyline points="1905.32,1417.67,6003.75,1982.55" stroke="rgb(225,0,255)" stroke-width="2" fill="none"></polyline>
<polyline points="1616.85,1353.59,5259.13,2209.87" stroke="rgb(38,0,255)" stroke-width="2" fill="none"></polyline>
<polyline points="2631.73,2261.81,5248.74,2239.62" stroke="rgb(42,255,0)" stroke-width="2" fill="none"></polyline>
<polyline points="2895.81,1307.6,5929.1,2030.56" stroke="rgb(72,255,0)" stroke-width="2" fill="none"></polyline>
<polyline points="2053.01,1543.9,5984.63,1485.18" stroke="rgb(0,255,101)" stroke-width="2" fill="none"></polyline>
<polyline points="2200.98,1549.33,6066.8,1396.42" stroke="rgb(0,255,21)" stroke-width="2" fill="none"></polyline>
<polyline points="2130.22,2564.48,6263.58,1491.03" stroke="rgb(17,0,255)" stroke-width="2" fill="none"></polyline>
<polyline points="1250.31,1503.38,5592.86,2244.88" stroke="rgb(0,255,4)" stroke-width="2" fill="none"></polyline>
<polyline points="1846.74,1328.18,5910.54,1525.55" stroke="rgb(255,178,0)" stroke-width="2" fill="none"></polyline>
<polyline points="2447.81,2243.05,5550.35,1493.06" stroke="rgb(0,255,131)" stroke-width="2" fill="none"></polyline>
<polyline points="2231.58,2442.42,5968.4,1564.34" stroke="rgb(255,233,0)" stroke-width="2" fill="none"></polyline>
<polyline points="2130.22,2564.48,6247.87,1573.6" stroke="rgb(0,255,208)" stroke-width="2" fill="none"></polyline>
<polyline points="1801.45,1302.48,6436,1590.19" stroke="rgb(21,0,255)" stroke-width="2" fill="none"></polyline>
<polyline points="1846.74,1328.18,6225.1,1598.13" stroke="rgb(255,0,46)" stroke-width="2" fill="none"></polyline>
<polyline points="1915,1391.3,5890.08,2023.84" stroke="rgb(255,0,110)" stroke-width="2" fill="none"></polyline>
<polyline points="1905.32,1417.67,5872.72,2026.33" stroke="rgb(255,21,0)" stroke-width="2" fill="none"></polyline>
<polyline points="1160.25,1440.56,6142.18,1627.41" stroke="rgb(255,0,119)" stroke-width="2" fill="none"></polyline>
<polyline points="2026.4,1506.72,5946.8,2049.31" stroke="rgb(255,165,0)" stroke-width="2" fill="none"></polyline>
<polyline points="2026.4,1506.72,5858.5,2083.88" stroke="rgb(0,255,140)" stroke-width="2" fill="none"></polyline>
<polyline points="2123.88,2568.77,6543.15,1638.83" stroke="rgb(165,0,255)" stroke-width="2" fill="none"></polyline>
<polyline points="2048.66,1458.92,5992.46,1646.01" stroke="rgb(135,0,255)" stroke-width="2" fill="none"></polyline>
<polyline points="1989.94,1529.62,6317.14,1647.86" stroke="rgb(93,0,255)" stroke-width="2" fill="none"></polyline>
<polyline points="1957.02,1436.11,5778.75,2166.14" stroke="rgb(255,140,0)" stroke-width="2" fill="none"></polyline>
<polyline points="1986.02,1429.7,5786.49,2176.92" stroke="rgb(255,4,0)" stroke-width="2" fill="none"></polyline>
<polyline points="1054.26,1507.05,6597.2,1256.51" stroke="rgb(114,0,255)" stroke-width="2" fill="none"></polyline>
<polyline points="1345.36,1311.85,6554.37,2080.1" stroke="rgb(255,72,0)" stroke-width="2" fill="none"></polyline>
<polyline points="2979.14,2141.52,5921.52,1800.12" stroke="rgb(255,0,229)" stroke-width="2" fill="none"></polyline>
<polyline points="2027.98,1404.35,5950.57,1849.03" stroke="rgb(76,0,255)" stroke-width="2" fill="none"></polyline>
<polyline points="1847.24,1346.1,5900.38,1969.9" stroke="rgb(0,221,255)" stroke-width="2" fill="none"></polyline>
<polyline points="1858.84,1336.82,5911.71,1976.38" stroke="rgb(0,187,255)" stroke-width="2" fill="none"></polyline>
<polyline points="654.799,1334.51,5687.56,2013.37" stroke="rgb(255,187,0)" stroke-width="2" fill="none"></polyline>
<polyline points="1267.91,1440.94,5704.46,1906.1" stroke="rgb(0,255,8)" stroke-width="2" fill="none"></polyline>
<polyline points="1700.33,1522.11,6664.05,1595.65" stroke="rgb(255,0,182)" stroke-width="2" fill="none"></polyline>
<polyline points="2888.7,1287.66,6173.27,1281.03" stroke="rgb(0,255,144)" stroke-width="2" fill="none"></polyline>
<polyline points="2133.16,2476.21,5844.39,1396.7" stroke="rgb(0,63,255)" stroke-width="2" fill="none"></polyline>
<polyline points="3035.01,2047.43,6099.53,1853.28" stroke="rgb(255,0,114)" stroke-width="2" fill="none"></polyline>
<polyline points="1966.91,1245.9,6072.15,1928.49" stroke="rgb(165,0,255)" stroke-width="2" fill="none"></polyline>
<polyline points="1966.91,1245.9,6072.15,1928.49" stroke="rgb(255,0,80)" stroke-width="2" fill="none"></polyline>
<circle cx="1933.16" cy="1944.69" r="4" stroke="rgb(255,0,63)" stroke-width="2" fill="none"></circle>
<circle cx="5435.1" cy="893.566" r="4" stroke="rgb(255,0,63)" stroke-width="2" fill="none"></circle>
<circle cx="1608.66" cy="1547.66" r="4" stroke="rgb(255,0,178)" stroke-width="2" fill="none"></circle>
<circle cx="5617.15" cy="924.065" r="4" stroke="rgb(255,0,178)" stroke-width="2" fill="none"></circle>
<circle cx="2156" cy="1613.93" r="4" stroke="rgb(135,255,0)" stroke-width="2" fill="none"></circle>
<circle cx="6354.51" cy="1692.21" r="4" stroke="rgb(135,255,0)" stroke-width="2" fill="none"></circle>
<circle cx="2353.73" cy="2381.87" r="4" stroke="rgb(255,174,0)" stroke-width="2" fill="none"></circle>
<circle cx="6533.66" cy="1694.55" r="4" stroke="rgb(255,174,0)" stroke-width="2" fill="none"></circle>
<circle cx="1782.82" cy="1300.21" r="4" stroke="rgb(0,212,255)" stroke-width="2" fill="none"></circle>
<circle cx="6081.29" cy="977.699" r="4" stroke="rgb(0,212,255)" stroke-width="2" fill="none"></circle>
<circle cx="1791.69" cy="1305.54" r="4" stroke="rgb(0,246,255)" stroke-width="2" fill="none"></circle>
<circle cx="6083.72" cy="984.879" r="4" stroke="rgb(0,246,255)" stroke-width="2" fill="none"></circle>
<circle cx="1801.45" cy="1302.48" r="4" stroke="rgb(246,0,255)" stroke-width="2" fill="none"></circle>
<circle cx="6092.04" cy="989.49" r="4" stroke="rgb(246,0,255)" stroke-width="2" fill="none"></circle>
<circle cx="1797.95" cy="1308.63" r="4" stroke="rgb(255,199,0)" stroke-width="2" fill="none"></circle>
<circle cx="6086.94" cy="993.393" r="4" stroke="rgb(255,199,0)" stroke-width="2" fill="none"></circle>
<circle cx="1801.45" cy="1302.48" r="4" stroke="rgb(255,102,0)" stroke-width="2" fill="none"></circle>
<circle cx="6091.73" cy="1023.07" r="4" stroke="rgb(255,102,0)" stroke-width="2" fill="none"></circle>
<circle cx="1801.45" cy="1302.48" r="4" stroke="rgb(0,255,250)" stroke-width="2" fill="none"></circle>
<circle cx="6133.21" cy="1044.24" r="4" stroke="rgb(0,255,250)" stroke-width="2" fill="none"></circle>
<circle cx="2887.08" cy="2069.91" r="4" stroke="rgb(255,0,119)" stroke-width="2" fill="none"></circle>
<circle cx="6511.78" cy="1168.73" r="4" stroke="rgb(255,0,119)" stroke-width="2" fill="none"></circle>
<circle cx="1891.33" cy="1425.83" r="4" stroke="rgb(255,0,199)" stroke-width="2" fill="none"></circle>
<circle cx="6190.47" cy="1170.7" r="4" stroke="rgb(255,0,199)" stroke-width="2" fill="none"></circle>
<circle cx="1801.45" cy="1302.48" r="4" stroke="rgb(0,255,55)" stroke-width="2" fill="none"></circle>
<circle cx="6066.26" cy="1176.77" r="4" stroke="rgb(0,255,55)" stroke-width="2" fill="none"></circle>
<circle cx="1801.45" cy="1302.48" r="4" stroke="rgb(55,0,255)" stroke-width="2" fill="none"></circle>
<circle cx="6129.29" cy="1074.28" r="4" stroke="rgb(55,0,255)" stroke-width="2" fill="none"></circle>
<circle cx="2726.11" cy="1253.06" r="4" stroke="rgb(0,114,255)" stroke-width="2" fill="none"></circle>
<circle cx="5682.99" cy="1081.17" r="4" stroke="rgb(0,114,255)" stroke-width="2" fill="none"></circle>
<circle cx="2016.02" cy="1575.07" r="4" stroke="rgb(63,255,0)" stroke-width="2" fill="none"></circle>
<circle cx="6168.12" cy="1185.92" r="4" stroke="rgb(63,255,0)" stroke-width="2" fill="none"></circle>
<circle cx="2016.02" cy="1575.07" r="4" stroke="rgb(0,225,255)" stroke-width="2" fill="none"></circle>
<circle cx="6168.12" cy="1185.92" r="4" stroke="rgb(0,225,255)" stroke-width="2" fill="none"></circle>
<circle cx="1667.64" cy="2481.04" r="4" stroke="rgb(0,33,255)" stroke-width="2" fill="none"></circle>
<circle cx="5602.21" cy="1194.41" r="4" stroke="rgb(0,33,255)" stroke-width="2" fill="none"></circle>
<circle cx="2791.77" cy="1358.93" r="4" stroke="rgb(255,161,0)" stroke-width="2" fill="none"></circle>
<circle cx="6163.23" cy="1098.42" r="4" stroke="rgb(255,161,0)" stroke-width="2" fill="none"></circle>
<circle cx="2036.12" cy="1588.83" r="4" stroke="rgb(255,110,0)" stroke-width="2" fill="none"></circle>
<circle cx="5905.94" cy="1210.49" r="4" stroke="rgb(255,110,0)" stroke-width="2" fill="none"></circle>
<circle cx="2430.64" cy="2276.08" r="4" stroke="rgb(255,0,237)" stroke-width="2" fill="none"></circle>
<circle cx="5691.81" cy="1111.18" r="4" stroke="rgb(255,0,237)" stroke-width="2" fill="none"></circle>
<circle cx="2704.25" cy="1139.55" r="4" stroke="rgb(255,119,0)" stroke-width="2" fill="none"></circle>
<circle cx="5890.22" cy="1087.5" r="4" stroke="rgb(255,119,0)" stroke-width="2" fill="none"></circle>
<circle cx="2296.83" cy="1438.89" r="4" stroke="rgb(0,255,148)" stroke-width="2" fill="none"></circle>
<circle cx="6176.6" cy="1115.61" r="4" stroke="rgb(0,255,148)" stroke-width="2" fill="none"></circle>
<circle cx="2903.79" cy="2007.53" r="4" stroke="rgb(255,0,148)" stroke-width="2" fill="none"></circle>
<circle cx="6542.89" cy="1767.82" r="4" stroke="rgb(255,0,148)" stroke-width="2" fill="none"></circle>
<circle cx="2138.27" cy="1553.09" r="4" stroke="rgb(238,0,255)" stroke-width="2" fill="none"></circle>
<circle cx="6203.28" cy="1105.08" r="4" stroke="rgb(238,0,255)" stroke-width="2" fill="none"></circle>
<circle cx="2200.66" cy="1573.34" r="4" stroke="rgb(131,255,0)" stroke-width="2" fill="none"></circle>
<circle cx="5789.37" cy="1616.56" r="4" stroke="rgb(131,255,0)" stroke-width="2" fill="none"></circle>
<circle cx="2231.71" cy="2453.91" r="4" stroke="rgb(0,255,195)" stroke-width="2" fill="none"></circle>
<circle cx="6063.44" cy="1110.32" r="4" stroke="rgb(0,255,195)" stroke-width="2" fill="none"></circle>
<circle cx="2887.85" cy="1260.65" r="4" stroke="rgb(255,0,72)" stroke-width="2" fill="none"></circle>
<circle cx="6172.35" cy="1136.33" r="4" stroke="rgb(255,0,72)" stroke-width="2" fill="none"></circle>
<circle cx="1876.07" cy="1521.71" r="4" stroke="rgb(67,0,255)" stroke-width="2" fill="none"></circle>
<circle cx="5699.09" cy="1247.15" r="4" stroke="rgb(67,0,255)" stroke-width="2" fill="none"></circle>
<circle cx="1846.74" cy="1328.18" r="4" stroke="rgb(255,0,12)" stroke-width="2" fill="none"></circle>
<circle cx="6136.14" cy="1251.77" r="4" stroke="rgb(255,0,12)" stroke-width="2" fill="none"></circle>
<circle cx="1647.19" cy="1157.11" r="4" stroke="rgb(0,101,255)" stroke-width="2" fill="none"></circle>
<circle cx="5646.31" cy="1260.92" r="4" stroke="rgb(0,101,255)" stroke-width="2" fill="none"></circle>
<circle cx="1426.01" cy="1323.55" r="4" stroke="rgb(29,255,0)" stroke-width="2" fill="none"></circle>
<circle cx="5847.37" cy="1806.99" r="4" stroke="rgb(29,255,0)" stroke-width="2" fill="none"></circle>
<circle cx="1819.06" cy="1386.86" r="4" stroke="rgb(0,221,255)" stroke-width="2" fill="none"></circle>
<circle cx="6019.07" cy="1825.95" r="4" stroke="rgb(0,221,255)" stroke-width="2" fill="none"></circle>
<circle cx="545.893" cy="1379.3" r="4" stroke="rgb(0,255,242)" stroke-width="2" fill="none"></circle>
<circle cx="5404.93" cy="1828.48" r="4" stroke="rgb(0,255,242)" stroke-width="2" fill="none"></circle>
<circle cx="2200.98" cy="1549.33" r="4" stroke="rgb(0,255,144)" stroke-width="2" fill="none"></circle>
<circle cx="6280.94" cy="1649.87" r="4" stroke="rgb(0,255,144)" stroke-width="2" fill="none"></circle>
<circle cx="1488.93" cy="1284.43" r="4" stroke="rgb(42,0,255)" stroke-width="2" fill="none"></circle>
<circle cx="5872.39" cy="1858.49" r="4" stroke="rgb(42,0,255)" stroke-width="2" fill="none"></circle>
<circle cx="1499.27" cy="1280.47" r="4" stroke="rgb(255,0,4)" stroke-width="2" fill="none"></circle>
<circle cx="5875.77" cy="1866.8" r="4" stroke="rgb(255,0,4)" stroke-width="2" fill="none"></circle>
<circle cx="1499.27" cy="1280.47" r="4" stroke="rgb(255,0,153)" stroke-width="2" fill="none"></circle>
<circle cx="5875.77" cy="1866.8" r="4" stroke="rgb(255,0,153)" stroke-width="2" fill="none"></circle>
<circle cx="2130.22" cy="2564.48" r="4" stroke="rgb(0,255,208)" stroke-width="2" fill="none"></circle>
<circle cx="6451.89" cy="1877.25" r="4" stroke="rgb(0,255,208)" stroke-width="2" fill="none"></circle>
<circle cx="1533.54" cy="1397.73" r="4" stroke="rgb(255,97,0)" stroke-width="2" fill="none"></circle>
<circle cx="5815.43" cy="1199.03" r="4" stroke="rgb(255,97,0)" stroke-width="2" fill="none"></circle>
<circle cx="2378.22" cy="1566.36" r="4" stroke="rgb(0,255,97)" stroke-width="2" fill="none"></circle>
<circle cx="6114.71" cy="1288.51" r="4" stroke="rgb(0,255,97)" stroke-width="2" fill="none"></circle>
<circle cx="2008.49" cy="1522.66" r="4" stroke="rgb(0,255,89)" stroke-width="2" fill="none"></circle>
<circle cx="6329.07" cy="1657.85" r="4" stroke="rgb(0,255,89)" stroke-width="2" fill="none"></circle>
<circle cx="1700.09" cy="1411.73" r="4" stroke="rgb(255,0,101)" stroke-width="2" fill="none"></circle>
<circle cx="5298.25" cy="1900.16" r="4" stroke="rgb(255,0,101)" stroke-width="2" fill="none"></circle>
<circle cx="2026.4" cy="1506.72" r="4" stroke="rgb(157,0,255)" stroke-width="2" fill="none"></circle>
<circle cx="6149.09" cy="1662.78" r="4" stroke="rgb(157,0,255)" stroke-width="2" fill="none"></circle>
<circle cx="1998.26" cy="1489.82" r="4" stroke="rgb(255,144,0)" stroke-width="2" fill="none"></circle>
<circle cx="6136.47" cy="1291.83" r="4" stroke="rgb(255,144,0)" stroke-width="2" fill="none"></circle>
<circle cx="2215.44" cy="1570.55" r="4" stroke="rgb(246,255,0)" stroke-width="2" fill="none"></circle>
<circle cx="6279.11" cy="1667.76" r="4" stroke="rgb(246,255,0)" stroke-width="2" fill="none"></circle>
<circle cx="2078.79" cy="1618.51" r="4" stroke="rgb(59,0,255)" stroke-width="2" fill="none"></circle>
<circle cx="6210.05" cy="1314.21" r="4" stroke="rgb(59,0,255)" stroke-width="2" fill="none"></circle>
<circle cx="2734.3" cy="1186.25" r="4" stroke="rgb(0,76,255)" stroke-width="2" fill="none"></circle>
<circle cx="6544.42" cy="1941.19" r="4" stroke="rgb(0,76,255)" stroke-width="2" fill="none"></circle>
<circle cx="2375.32" cy="2304.53" r="4" stroke="rgb(229,0,255)" stroke-width="2" fill="none"></circle>
<circle cx="6313.1" cy="1979.96" r="4" stroke="rgb(229,0,255)" stroke-width="2" fill="none"></circle>
<circle cx="1338.64" cy="1339.38" r="4" stroke="rgb(0,255,191)" stroke-width="2" fill="none"></circle>
<circle cx="6486.19" cy="1983.39" r="4" stroke="rgb(0,255,191)" stroke-width="2" fill="none"></circle>
<circle cx="2887.08" cy="2069.91" r="4" stroke="rgb(0,255,0)" stroke-width="2" fill="none"></circle>
<circle cx="6147.3" cy="1352.94" r="4" stroke="rgb(0,255,0)" stroke-width="2" fill="none"></circle>
<circle cx="2025.49" cy="1260.6" r="4" stroke="rgb(42,255,0)" stroke-width="2" fill="none"></circle>
<circle cx="6053.83" cy="2040.92" r="4" stroke="rgb(42,255,0)" stroke-width="2" fill="none"></circle>
<circle cx="1534.8" cy="1652.97" r="4" stroke="rgb(233,255,0)" stroke-width="2" fill="none"></circle>
<circle cx="6779.73" cy="1374.06" r="4" stroke="rgb(233,255,0)" stroke-width="2" fill="none"></circle>
<circle cx="2156" cy="1613.93" r="4" stroke="rgb(148,0,255)" stroke-width="2" fill="none"></circle>
<circle cx="6658.23" cy="1375.77" r="4" stroke="rgb(148,0,255)" stroke-width="2" fill="none"></circle>
<circle cx="1356.42" cy="1860.11" r="4" stroke="rgb(191,255,0)" stroke-width="2" fill="none"></circle>
<circle cx="5477.05" cy="1768.62" r="4" stroke="rgb(191,255,0)" stroke-width="2" fill="none"></circle>
<circle cx="2378.22" cy="1566.36" r="4" stroke="rgb(0,29,255)" stroke-width="2" fill="none"></circle>
<circle cx="6532.79" cy="2110.26" r="4" stroke="rgb(0,29,255)" stroke-width="2" fill="none"></circle>
<circle cx="1509.01" cy="1276.69" r="4" stroke="rgb(0,12,255)" stroke-width="2" fill="none"></circle>
<circle cx="5879.28" cy="1873.06" r="4" stroke="rgb(0,12,255)" stroke-width="2" fill="none"></circle>
<circle cx="1969.17" cy="1215.45" r="4" stroke="rgb(25,255,0)" stroke-width="2" fill="none"></circle>
<circle cx="5983.61" cy="2126.59" r="4" stroke="rgb(25,255,0)" stroke-width="2" fill="none"></circle>
<circle cx="1808.38" cy="1336.21" r="4" stroke="rgb(0,101,255)" stroke-width="2" fill="none"></circle>
<circle cx="5741.72" cy="1892.98" r="4" stroke="rgb(0,101,255)" stroke-width="2" fill="none"></circle>
<circle cx="1996.13" cy="1271.36" r="4" stroke="rgb(255,21,0)" stroke-width="2" fill="none"></circle>
<circle cx="5951.53" cy="2131.41" r="4" stroke="rgb(255,21,0)" stroke-width="2" fill="none"></circle>
<circle cx="2055.49" cy="1460.31" r="4" stroke="rgb(38,255,0)" stroke-width="2" fill="none"></circle>
<circle cx="5923.61" cy="1902.5" r="4" stroke="rgb(38,255,0)" stroke-width="2" fill="none"></circle>
<circle cx="545.893" cy="1379.3" r="4" stroke="rgb(199,255,0)" stroke-width="2" fill="none"></circle>
<circle cx="5254.88" cy="1930.16" r="4" stroke="rgb(199,255,0)" stroke-width="2" fill="none"></circle>
<circle cx="2015.88" cy="1692.33" r="4" stroke="rgb(4,255,0)" stroke-width="2" fill="none"></circle>
<circle cx="5412.99" cy="2156.63" r="4" stroke="rgb(4,255,0)" stroke-width="2" fill="none"></circle>
<circle cx="1801.45" cy="1302.48" r="4" stroke="rgb(0,255,216)" stroke-width="2" fill="none"></circle>
<circle cx="6034.28" cy="1345.34" r="4" stroke="rgb(0,255,216)" stroke-width="2" fill="none"></circle>
<circle cx="1846.74" cy="1328.18" r="4" stroke="rgb(42,0,255)" stroke-width="2" fill="none"></circle>
<circle cx="5992.28" cy="1442.72" r="4" stroke="rgb(42,0,255)" stroke-width="2" fill="none"></circle>
<circle cx="1905.32" cy="1417.67" r="4" stroke="rgb(0,255,106)" stroke-width="2" fill="none"></circle>
<circle cx="6003.75" cy="1982.55" r="4" stroke="rgb(0,255,106)" stroke-width="2" fill="none"></circle>
<circle cx="1905.32" cy="1417.67" r="4" stroke="rgb(225,0,255)" stroke-width="2" fill="none"></circle>
<circle cx="6003.75" cy="1982.55" r="4" stroke="rgb(225,0,255)" stroke-width="2" fill="none"></circle>
<circle cx="1616.85" cy="1353.59" r="4" stroke="rgb(38,0,255)" stroke-width="2" fill="none"></circle>
<circle cx="5259.13" cy="2209.87" r="4" stroke="rgb(38,0,255)" stroke-width="2" fill="none"></circle>
<circle cx="2631.73" cy="2261.81" r="4" stroke="rgb(42,255,0)" stroke-width="2" fill="none"></circle>
<circle cx="5248.74" cy="2239.62" r="4" stroke="rgb(42,255,0)" stroke-width="2" fill="none"></circle>
<circle cx="2895.81" cy="1307.6" r="4" stroke="rgb(72,255,0)" stroke-width="2" fill="none"></circle>
<circle cx="5929.1" cy="2030.56" r="4" stroke="rgb(72,255,0)" stroke-width="2" fill="none"></circle>
<circle cx="2053.01" cy="1543.9" r="4" stroke="rgb(0,255,101)" stroke-width="2" fill="none"></circle>
<circle cx="5984.63" cy="1485.18" r="4" stroke="rgb(0,255,101)" stroke-width="2" fill="none"></circle>
<circle cx="2200.98" cy="1549.33" r="4" stroke="rgb(0,255,21)" stroke-width="2" fill="none"></circle>
<circle cx="6066.8" cy="1396.42" r="4" stroke="rgb(0,255,21)" stroke-width="2" fill="none"></circle>
<circle cx="2130.22" cy="2564.48" r="4" stroke="rgb(17,0,255)" stroke-width="2" fill="none"></circle>
<circle cx="6263.58" cy="1491.03" r="4" stroke="rgb(17,0,255)" stroke-width="2" fill="none"></circle>
<circle cx="1250.31" cy="1503.38" r="4" stroke="rgb(0,255,4)" stroke-width="2" fill="none"></circle>
<circle cx="5592.86" cy="2244.88" r="4" stroke="rgb(0,255,4)" stroke-width="2" fill="none"></circle>
<circle cx="1846.74" cy="1328.18" r="4" stroke="rgb(255,178,0)" stroke-width="2" fill="none"></circle>
<circle cx="5910.54" cy="1525.55" r="4" stroke="rgb(255,178,0)" stroke-width="2" fill="none"></circle>
<circle cx="2447.81" cy="2243.05" r="4" stroke="rgb(0,255,131)" stroke-width="2" fill="none"></circle>
<circle cx="5550.35" cy="1493.06" r="4" stroke="rgb(0,255,131)" stroke-width="2" fill="none"></circle>
<circle cx="2231.58" cy="2442.42" r="4" stroke="rgb(255,233,0)" stroke-width="2" fill="none"></circle>
<circle cx="5968.4" cy="1564.34" r="4" stroke="rgb(255,233,0)" stroke-width="2" fill="none"></circle>
<circle cx="2130.22" cy="2564.48" r="4" stroke="rgb(0,255,208)" stroke-width="2" fill="none"></circle>
<circle cx="6247.87" cy="1573.6" r="4" stroke="rgb(0,255,208)" stroke-width="2" fill="none"></circle>
<circle cx="1801.45" cy="1302.48" r="4" stroke="rgb(21,0,255)" stroke-width="2" fill="none"></circle>
<circle cx="6436" cy="1590.19" r="4" stroke="rgb(21,0,255)" stroke-width="2" fill="none"></circle>
<circle cx="1846.74" cy="1328.18" r="4" stroke="rgb(255,0,46)" stroke-width="2" fill="none"></circle>
<circle cx="6225.1" cy="1598.13" r="4" stroke="rgb(255,0,46)" stroke-width="2" fill="none"></circle>
<circle cx="1915" cy="1391.3" r="4" stroke="rgb(255,0,110)" stroke-width="2" fill="none"></circle>
<circle cx="5890.08" cy="2023.84" r="4" stroke="rgb(255,0,110)" stroke-width="2" fill="none"></circle>
<circle cx="1905.32" cy="1417.67" r="4" stroke="rgb(255,21,0)" stroke-width="2" fill="none"></circle>
<circle cx="5872.72" cy="2026.33" r="4" stroke="rgb(255,21,0)" stroke-width="2" fill="none"></circle>
<circle cx="1160.25" cy="1440.56" r="4" stroke="rgb(255,0,119)" stroke-width="2" fill="none"></circle>
<circle cx="6142.18" cy="1627.41" r="4" stroke="rgb(255,0,119)" stroke-width="2" fill="none"></circle>
<circle cx="2026.4" cy="1506.72" r="4" stroke="rgb(255,165,0)" stroke-width="2" fill="none"></circle>
<circle cx="5946.8" cy="2049.31" r="4" stroke="rgb(255,165,0)" stroke-width="2" fill="none"></circle>
<circle cx="2026.4" cy="1506.72" r="4" stroke="rgb(0,255,140)" stroke-width="2" fill="none"></circle>
<circle cx="5858.5" cy="2083.88" r="4" stroke="rgb(0,255,140)" stroke-width="2" fill="none"></circle>
<circle cx="2123.88" cy="2568.77" r="4" stroke="rgb(165,0,255)" stroke-width="2" fill="none"></circle>
<circle cx="6543.15" cy="1638.83" r="4" stroke="rgb(165,0,255)" stroke-width="2" fill="none"></circle>
<circle cx="2048.66" cy="1458.92" r="4" stroke="rgb(135,0,255)" stroke-width="2" fill="none"></circle>
<circle cx="5992.46" cy="1646.01" r="4" stroke="rgb(135,0,255)" stroke-width="2" fill="none"></circle>
<circle cx="1989.94" cy="1529.62" r="4" stroke="rgb(93,0,255)" stroke-width="2" fill="none"></circle>
<circle cx="6317.14" cy="1647.86" r="4" stroke="rgb(93,0,255)" stroke-width="2" fill="none"></circle>
<circle cx="1957.02" cy="1436.11" r="4" stroke="rgb(255,140,0)" stroke-width="2" fill="none"></circle>
<circle cx="5778.75" cy="2166.14" r="4" stroke="rgb(255,140,0)" stroke-width="2" fill="none"></circle>
<circle cx="1986.02" cy="1429.7" r="4" stroke="rgb(255,4,0)" stroke-width="2" fill="none"></circle>
<circle cx="5786.49" cy="2176.92" r="4" stroke="rgb(255,4,0)" stroke-width="2" fill="none"></circle>
<circle cx="1054.26" cy="1507.05" r="4" stroke="rgb(114,0,255)" stroke-width="2" fill="none"></circle>
<circle cx="6597.2" cy="1256.51" r="4" stroke="rgb(114,0,255)" stroke-width="2" fill="none"></circle>
<circle cx="1345.36" cy="1311.85" r="4" stroke="rgb(255,72,0)" stroke-width="2" fill="none"></circle>
<circle cx="6554.37" cy="2080.1" r="4" stroke="rgb(255,72,0)" stroke-width="2" fill="none"></circle>
<circle cx="2979.14" cy="2141.52" r="4" stroke="rgb(255,0,229)" stroke-width="2" fill="none"></circle>
<circle cx="5921.52" cy="1800.12" r="4" stroke="rgb(255,0,229)" stroke-width="2" fill="none"></circle>
<circle cx="2027.98" cy="1404.35" r="4" stroke="rgb(76,0,255)" stroke-width="2" fill="none"></circle>
<circle cx="5950.57" cy="1849.03" r="4" stroke="rgb(76,0,255)" stroke-width="2" fill="none"></circle>
<circle cx="1847.24" cy="1346.1" r="4" stroke="rgb(0,221,255)" stroke-width="2" fill="none"></circle>
<circle cx="5900.38" cy="1969.9" r="4" stroke="rgb(0,221,255)" stroke-width="2" fill="none"></circle>
<circle cx="1858.84" cy="1336.82" r="4" stroke="rgb(0,187,255)" stroke-width="2" fill="none"></circle>
<circle cx="5911.71" cy="1976.38" r="4" stroke="rgb(0,187,255)" stroke-width="2" fill="none"></circle>
<circle cx="654.799" cy="1334.51" r="4" stroke="rgb(255,187,0)" stroke-width="2" fill="none"></circle>
<circle cx="5687.56" cy="2013.37" r="4" stroke="rgb(255,187,0)" stroke-width="2" fill="none"></circle>
<circle cx="1267.91" cy="1440.94" r="4" stroke="rgb(0,255,8)" stroke-width="2" fill="none"></circle>
<circle cx="5704.46" cy="1906.1" r="4" stroke="rgb(0,255,8)" stroke-width="2" fill="none"></circle>
<circle cx="1700.33" cy="1522.11" r="4" stroke="rgb(255,0,182)" stroke-width="2" fill="none"></circle>
<circle cx="6664.05" cy="1595.65" r="4" stroke="rgb(255,0,182)" stroke-width="2" fill="none"></circle>
<circle cx="2888.7" cy="1287.66" r="4" stroke="rgb(0,255,144)" stroke-width="2" fill="none"></circle>
<circle cx="6173.27" cy="1281.03" r="4" stroke="rgb(0,255,144)" stroke-width="2" fill="none"></circle>
<circle cx="2133.16" cy="2476.21" r="4" stroke="rgb(0,63,255)" stroke-width="2" fill="none"></circle>
<circle cx="5844.39" cy="1396.7" r="4" stroke="rgb(0,63,255)" stroke-width="2" fill="none"></circle>
<circle cx="3035.01" cy="2047.43" r="4" stroke="rgb(255,0,114)" stroke-width="2" fill="none"></circle>
<circle cx="6099.53" cy="1853.28" r="4" stroke="rgb(255,0,114)" stroke-width="2" fill="none"></circle>
<circle cx="1966.91" cy="1245.9" r="4" stroke="rgb(165,0,255)" stroke-width="2" fill="none"></circle>
<circle cx="6072.15" cy="1928.49" r="4" stroke="rgb(165,0,255)" stroke-width="2" fill="none"></circle>
<circle cx="1966.91" cy="1245.9" r="4" stroke="rgb(255,0,80)" stroke-width="2" fill="none"></circle>
<circle cx="6072.15" cy="1928.49" r="4" stroke="rgb(255,0,80)" stroke-width="2" fill="none"></circle>
</svg>