<?xml version="1.0" standalone="yes"?>
<!-- SVG graphic -->
<svg xmlns='http://www.w3.org/2000/svg' xmlns:xlink='http://www.w3.org/1999/xlink'
width="8064px" height="3024px" preserveAspectRatio="xMinYMin meet" viewBox="0 0 8064 3024" version="1.1">
<image x="0" y="0" width="4032px" height="3024px" opacity="1" xlink:href="/home/jeong/Code/2D-to-3D-Modeling-using-AI/Make3D/Image/20200227_180638.jpg"/>
<image x="4032" y="0" width="4032px" height="3024px" opacity="1" xlink:href="/home/jeong/Code/2D-to-3D-Modeling-using-AI/Make3D/Image/20200227_180719.jpg"/>
<polyline points="993.643,1176.03,5915.37,1251.22" stroke="rgb(255,106,0)" stroke-width="2" fill="none"></polyline>
<polyline points="1067.71,1250.73,5798.63,1259.41" stroke="rgb(242,255,0)" stroke-width="2" fill="none"></polyline>
<polyline points="1044.95,1219.89,5839.91,1261.24" stroke="rgb(0,148,255)" stroke-width="2" fill="none"></polyline>
<polyline points="1387.08,1014.1,5821.56,659.267" stroke="rgb(255,0,208)" stroke-width="2" fill="none"></polyline>
<polyline points="1761.45,1783.9,5741.75,675.928" stroke="rgb(0,225,255)" stroke-width="2" fill="none"></polyline>
<polyline points="1699.5,1570.99,5652.97,657.421" stroke="rgb(255,21,0)" stroke-width="2" fill="none"></polyline>
<polyline points="1950.22,939.336,5540.81,682.368" stroke="rgb(63,255,0)" stroke-width="2" fill="none"></polyline>
<polyline points="1441.49,1268.64,6035.75,1529.21" stroke="rgb(25,255,0)" stroke-width="2" fill="none"></polyline>
<polyline points="1759.1,1704.93,5658.63,694.847" stroke="rgb(0,110,255)" stroke-width="2" fill="none"></polyline>
<polyline points="1724.7,1635.99,5360.82,703.748" stroke="rgb(255,0,187)" stroke-width="2" fill="none"></polyline>
<polyline points="1724.7,1635.99,5419.91,774.072" stroke="rgb(255,0,59)" stroke-width="2" fill="none"></polyline>
<polyline points="3074.96,1487.97,6130.69,1158.42" stroke="rgb(0,229,255)" stroke-width="2" fill="none"></polyline>
<polyline points="1674.96,1647.08,5600.51,707.376" stroke="rgb(135,0,255)" stroke-width="2" fill="none"></polyline>
<polyline points="2284.28,2357.71,6211.03,804.123" stroke="rgb(0,97,255)" stroke-width="2" fill="none"></polyline>
<polyline points="572.32,1258.28,5611.4,746.062" stroke="rgb(255,0,4)" stroke-width="2" fill="none"></polyline>
<polyline points="572.32,1258.28,5611.4,746.062" stroke="rgb(255,0,63)" stroke-width="2" fill="none"></polyline>
<polyline points="2591.96,1468.53,5714.74,1172.31" stroke="rgb(255,4,0)" stroke-width="2" fill="none"></polyline>
<polyline points="896.531,1674.59,5382.14,922.953" stroke="rgb(255,12,0)" stroke-width="2" fill="none"></polyline>
<polyline points="582.824,1581.69,6210.02,1220.95" stroke="rgb(255,25,0)" stroke-width="2" fill="none"></polyline>
<polyline points="1256.42,2564.24,6079.08,998.568" stroke="rgb(254,0,255)" stroke-width="2" fill="none"></polyline>
<polyline points="1344.86,1076.97,5084.9,1399.97" stroke="rgb(186,0,255)" stroke-width="2" fill="none"></polyline>
<polyline points="1032.89,1281.52,6149.14,1231.75" stroke="rgb(0,153,255)" stroke-width="2" fill="none"></polyline>
<polyline points="1245.03,1632.6,6089.77,1018.52" stroke="rgb(21,0,255)" stroke-width="2" fill="none"></polyline>
<polyline points="1288.68,1157.41,5755.83,1407.87" stroke="rgb(255,187,0)" stroke-width="2" fill="none"></polyline>
<polyline points="533.002,2116.43,6345.11,1022.93" stroke="rgb(174,0,255)" stroke-width="2" fill="none"></polyline>
<polyline points="2454.16,1323.09,6650.15,1253.36" stroke="rgb(242,0,255)" stroke-width="2" fill="none"></polyline>
<polyline points="1030.35,1212.59,5856.74,1255.48" stroke="rgb(0,255,76)" stroke-width="2" fill="none"></polyline>
<polyline points="2582.54,1189.01,5551.38,1086.96" stroke="rgb(148,255,0)" stroke-width="2" fill="none"></polyline>
<polyline points="657.717,1571.52,5008.07,1439.42" stroke="rgb(153,255,0)" stroke-width="2" fill="none"></polyline>
<polyline points="988.035,1200.32,5899.03,1234.76" stroke="rgb(255,0,187)" stroke-width="2" fill="none"></polyline>
<polyline points="657.717,1571.52,5008.07,1439.42" stroke="rgb(0,255,169)" stroke-width="2" fill="none"></polyline>
<polyline points="1376.75,1124.85,5744.59,1455.67" stroke="rgb(46,255,0)" stroke-width="2" fill="none"></polyline>
<polyline points="2053.46,1578.11,6447.47,1273.79" stroke="rgb(46,0,255)" stroke-width="2" fill="none"></polyline>
<polyline points="2053.46,1578.11,6447.47,1273.79" stroke="rgb(0,8,255)" stroke-width="2" fill="none"></polyline>
<polyline points="1643.34,1100.47,6098.6,1457.88" stroke="rgb(225,0,255)" stroke-width="2" fill="none"></polyline>
<polyline points="1095.79,1254.96,5780.57,1271.32" stroke="rgb(255,0,212)" stroke-width="2" fill="none"></polyline>
<polyline points="1036.56,1170.48,5892.28,1277.45" stroke="rgb(12,0,255)" stroke-width="2" fill="none"></polyline>
<polyline points="1097.15,1191.46,5834.07,1300.18" stroke="rgb(127,0,255)" stroke-width="2" fill="none"></polyline>
<polyline points="632.952,2021.02,5538.65,1503.3" stroke="rgb(237,255,0)" stroke-width="2" fill="none"></polyline>
<polyline points="1348.49,1084.04,5911.94,1512.65" stroke="rgb(255,0,131)" stroke-width="2" fill="none"></polyline>
<polyline points="1348.49,1084.04,5911.94,1512.65" stroke="rgb(0,59,255)" stroke-width="2" fill="none"></polyline>
<polyline points="1629.12,1657.51,5601.15,1517.79" stroke="rgb(178,0,255)" stroke-width="2" fill="none"></polyline>
<polyline points="854.562,1476.17,6286.61,1518.3" stroke="rgb(255,114,0)" stroke-width="2" fill="none"></polyline>
<polyline points="1348.49,1084.04,5937.79,1519.99" stroke="rgb(255,46,0)" stroke-width="2" fill="none"></polyline>
<polyline points="991.597,1207.82,5891.06,1232.22" stroke="rgb(0,255,84)" stroke-width="2" fill="none"></polyline>
<polyline points="1006.5,1136.04,5446.02,1344.49" stroke="rgb(255,110,0)" stroke-width="2" fill="none"></polyline>
<polyline points="1404.03,1121.25,5736.06,1464.45" stroke="rgb(255,0,17)" stroke-width="2" fill="none"></polyline>
<polyline points="1370.18,1136.02,5742.26,1445.91" stroke="rgb(255,55,0)" stroke-width="2" fill="none"></polyline>
<polyline points="1682.98,1587.05,5658.86,1463.58" stroke="rgb(89,0,255)" stroke-width="2" fill="none"></polyline>
<polyline points="870.687,1208.41,5416.48,1353.21" stroke="rgb(0,21,255)" stroke-width="2" fill="none"></polyline>
<polyline points="1788.91,1772.34,6307.31,1171.13" stroke="rgb(255,0,195)" stroke-width="2" fill="none"></polyline>
<polyline points="1737.17,1631.37,4911.62,1071.65" stroke="rgb(0,233,255)" stroke-width="2" fill="none"></polyline>
<polyline points="914.358,1132.81,5873.91,1118.01" stroke="rgb(174,255,0)" stroke-width="2" fill="none"></polyline>
<polyline points="975.823,1169.62,5937.33,1244.46" stroke="rgb(208,255,0)" stroke-width="2" fill="none"></polyline>
<polyline points="3015.07,1367.1,5312.16,793.786" stroke="rgb(80,255,0)" stroke-width="2" fill="none"></polyline>
<polyline points="1359.54,1438.69,5453.21,1273.71" stroke="rgb(0,33,255)" stroke-width="2" fill="none"></polyline>
<polyline points="1054.03,1199.82,5855.11,1274.94" stroke="rgb(0,0,255)" stroke-width="2" fill="none"></polyline>
<polyline points="902.443,1195.97,5988.72,1171.58" stroke="rgb(0,4,255)" stroke-width="2" fill="none"></polyline>
<polyline points="1237.53,1954.46,4999.95,969.337" stroke="rgb(0,216,255)" stroke-width="2" fill="none"></polyline>
<polyline points="969.018,1181.83,5931.33,1230.18" stroke="rgb(255,0,153)" stroke-width="2" fill="none"></polyline>
<polyline points="1261.5,2366.61,5373.72,1287.5" stroke="rgb(0,187,255)" stroke-width="2" fill="none"></polyline>
<polyline points="1073.77,1217.71,5822.56,1277.57" stroke="rgb(255,0,42)" stroke-width="2" fill="none"></polyline>
<polyline points="1733.49,1715.54,5571.89,1287.92" stroke="rgb(199,255,0)" stroke-width="2" fill="none"></polyline>
<polyline points="962.18,1202.25,5926.3,1215.08" stroke="rgb(255,0,174)" stroke-width="2" fill="none"></polyline>
<polyline points="962.18,1202.25,5926.3,1215.08" stroke="rgb(0,51,255)" stroke-width="2" fill="none"></polyline>
<polyline points="893.628,2105.55,6974.12,868.736" stroke="rgb(255,25,0)" stroke-width="2" fill="none"></polyline>
<polyline points="965.637,1273.29,6146.91,518.98" stroke="rgb(127,0,255)" stroke-width="2" fill="none"></polyline>
<circle cx="993.643" cy="1176.03" r="4" stroke="rgb(255,106,0)" stroke-width="2" fill="none"></circle>
<circle cx="5915.37" cy="1251.22" r="4" stroke="rgb(255,106,0)" stroke-width="2" fill="none"></circle>
<circle cx="1067.71" cy="1250.73" r="4" stroke="rgb(242,255,0)" stroke-width="2" fill="none"></circle>
<circle cx="5798.63" cy="1259.41" r="4" stroke="rgb(242,255,0)" stroke-width="2" fill="none"></circle>
<circle cx="1044.95" cy="1219.89" r="4" stroke="rgb(0,148,255)" stroke-width="2" fill="none"></circle>
<circle cx="5839.91" cy="1261.24" r="4" stroke="rgb(0,148,255)" stroke-width="2" fill="none"></circle>
<circle cx="1387.08" cy="1014.1" r="4" stroke="rgb(255,0,208)" stroke-width="2" fill="none"></circle>
<circle cx="5821.56" cy="659.267" r="4" stroke="rgb(255,0,208)" stroke-width="2" fill="none"></circle>
<circle cx="1761.45" cy="1783.9" r="4" stroke="rgb(0,225,255)" stroke-width="2" fill="none"></circle>
<circle cx="5741.75" cy="675.928" r="4" stroke="rgb(0,225,255)" stroke-width="2" fill="none"></circle>
<circle cx="1699.5" cy="1570.99" r="4" stroke="rgb(255,21,0)" stroke-width="2" fill="none"></circle>
<circle cx="5652.97" cy="657.421" r="4" stroke="rgb(255,21,0)" stroke-width="2" fill="none"></circle>
<circle cx="1950.22" cy="939.336" r="4" stroke="rgb(63,255,0)" stroke-width="2" fill="none"></circle>
<circle cx="5540.81" cy="682.368" r="4" stroke="rgb(63,255,0)" stroke-width="2" fill="none"></circle>
<circle cx="1441.49" cy="1268.64" r="4" stroke="rgb(25,255,0)" stroke-width="2" fill="none"></circle>
<circle cx="6035.75" cy="1529.21" r="4" stroke="rgb(25,255,0)" stroke-width="2" fill="none"></circle>
<circle cx="1759.1" cy="1704.93" r="4" stroke="rgb(0,110,255)" stroke-width="2" fill="none"></circle>
<circle cx="5658.63" cy="694.847" r="4" stroke="rgb(0,110,255)" stroke-width="2" fill="none"></circle>
<circle cx="1724.7" cy="1635.99" r="4" stroke="rgb(255,0,187)" stroke-width="2" fill="none"></circle>
<circle cx="5360.82" cy="703.748" r="4" stroke="rgb(255,0,187)" stroke-width="2" fill="none"></circle>
<circle cx="1724.7" cy="1635.99" r="4" stroke="rgb(255,0,59)" stroke-width="2" fill="none"></circle>
<circle cx="5419.91" cy="774.072" r="4" stroke="rgb(255,0,59)" stroke-width="2" fill="none"></circle>
<circle cx="3074.96" cy="1487.97" r="4" stroke="rgb(0,229,255)" stroke-width="2" fill="none"></circle>
<circle cx="6130.69" cy="1158.42" r="4" stroke="rgb(0,229,255)" stroke-width="2" fill="none"></circle>
<circle cx="1674.96" cy="1647.08" r="4" stroke="rgb(135,0,255)" stroke-width="2" fill="none"></circle>
<circle cx="5600.51" cy="707.376" r="4" stroke="rgb(135,0,255)" stroke-width="2" fill="none"></circle>
<circle cx="2284.28" cy="2357.71" r="4" stroke="rgb(0,97,255)" stroke-width="2" fill="none"></circle>
<circle cx="6211.03" cy="804.123" r="4" stroke="rgb(0,97,255)" stroke-width="2" fill="none"></circle>
<circle cx="572.32" cy="1258.28" r="4" stroke="rgb(255,0,4)" stroke-width="2" fill="none"></circle>
<circle cx="5611.4" cy="746.062" r="4" stroke="rgb(255,0,4)" stroke-width="2" fill="none"></circle>
<circle cx="572.32" cy="1258.28" r="4" stroke="rgb(255,0,63)" stroke-width="2" fill="none"></circle>
<circle cx="5611.4" cy="746.062" r="4" stroke="rgb(255,0,63)" stroke-width="2" fill="none"></circle>
<circle cx="2591.96" cy="1468.53" r="4" stroke="rgb(255,4,0)" stroke-width="2" fill="none"></circle>
<circle cx="5714.74" cy="1172.31" r="4" stroke="rgb(255,4,0)" stroke-width="2" fill="none"></circle>
<circle cx="896.531" cy="1674.59" r="4" stroke="rgb(255,12,0)" stroke-width="2" fill="none"></circle>
<circle cx="5382.14" cy="922.953" r="4" stroke="rgb(255,12,0)" stroke-width="2" fill="none"></circle>
<circle cx="582.824" cy="1581.69" r="4" stroke="rgb(255,25,0)" stroke-width="2" fill="none"></circle>
<circle cx="6210.02" cy="1220.95" r="4" stroke="rgb(255,25,0)" stroke-width="2" fill="none"></circle>
<circle cx="1256.42" cy="2564.24" r="4" stroke="rgb(254,0,255)" stroke-width="2" fill="none"></circle>
<circle cx="6079.08" cy="998.568" r="4" stroke="rgb(254,0,255)" stroke-width="2" fill="none"></circle>
<circle cx="1344.86" cy="1076.97" r="4" stroke="rgb(186,0,255)" stroke-width="2" fill="none"></circle>
<circle cx="5084.9" cy="1399.97" r="4" stroke="rgb(186,0,255)" stroke-width="2" fill="none"></circle>
<circle cx="1032.89" cy="1281.52" r="4" stroke="rgb(0,153,255)" stroke-width="2" fill="none"></circle>
<circle cx="6149.14" cy="1231.75" r="4" stroke="rgb(0,153,255)" stroke-width="2" fill="none"></circle>
<circle cx="1245.03" cy="1632.6" r="4" stroke="rgb(21,0,255)" stroke-width="2" fill="none"></circle>
<circle cx="6089.77" cy="1018.52" r="4" stroke="rgb(21,0,255)" stroke-width="2" fill="none"></circle>
<circle cx="1288.68" cy="1157.41" r="4" stroke="rgb(255,187,0)" stroke-width="2" fill="none"></circle>
<circle cx="5755.83" cy="1407.87" r="4" stroke="rgb(255,187,0)" stroke-width="2" fill="none"></circle>
<circle cx="533.002" cy="2116.43" r="4" stroke="rgb(174,0,255)" stroke-width="2" fill="none"></circle>
<circle cx="6345.11" cy="1022.93" r="4" stroke="rgb(174,0,255)" stroke-width="2" fill="none"></circle>
<circle cx="2454.16" cy="1323.09" r="4" stroke="rgb(242,0,255)" stroke-width="2" fill="none"></circle>
<circle cx="6650.15" cy="1253.36" r="4" stroke="rgb(242,0,255)" stroke-width="2" fill="none"></circle>
<circle cx="1030.35" cy="1212.59" r="4" stroke="rgb(0,255,76)" stroke-width="2" fill="none"></circle>
<circle cx="5856.74" cy="1255.48" r="4" stroke="rgb(0,255,76)" stroke-width="2" fill="none"></circle>
<circle cx="2582.54" cy="1189.01" r="4" stroke="rgb(148,255,0)" stroke-width="2" fill="none"></circle>
<circle cx="5551.38" cy="1086.96" r="4" stroke="rgb(148,255,0)" stroke-width="2" fill="none"></circle>
<circle cx="657.717" cy="1571.52" r="4" stroke="rgb(153,255,0)" stroke-width="2" fill="none"></circle>
<circle cx="5008.07" cy="1439.42" r="4" stroke="rgb(153,255,0)" stroke-width="2" fill="none"></circle>
<circle cx="988.035" cy="1200.32" r="4" stroke="rgb(255,0,187)" stroke-width="2" fill="none"></circle>
<circle cx="5899.03" cy="1234.76" r="4" stroke="rgb(255,0,187)" stroke-width="2" fill="none"></circle>
<circle cx="657.717" cy="1571.52" r="4" stroke="rgb(0,255,169)" stroke-width="2" fill="none"></circle>
<circle cx="5008.07" cy="1439.42" r="4" stroke="rgb(0,255,169)" stroke-width="2" fill="none"></circle>
<circle cx="1376.75" cy="1124.85" r="4" stroke="rgb(46,255,0)" stroke-width="2" fill="none"></circle>
<circle cx="5744.59" cy="1455.67" r="4" stroke="rgb(46,255,0)" stroke-width="2" fill="none"></circle>
<circle cx="2053.46" cy="1578.11" r="4" stroke="rgb(46,0,255)" stroke-width="2" fill="none"></circle>
<circle cx="6447.47" cy="1273.79" r="4" stroke="rgb(46,0,255)" stroke-width="2" fill="none"></circle>
<circle cx="2053.46" cy="1578.11" r="4" stroke="rgb(0,8,255)" stroke-width="2" fill="none"></circle>
<circle cx="6447.47" cy="1273.79" r="4" stroke="rgb(0,8,255)" stroke-width="2" fill="none"></circle>
<circle cx="1643.34" cy="1100.47" r="4" stroke="rgb(225,0,255)" stroke-width="2" fill="none"></circle>
<circle cx="6098.6" cy="1457.88" r="4" stroke="rgb(225,0,255)" stroke-width="2" fill="none"></circle>
<circle cx="1095.79" cy="1254.96" r="4" stroke="rgb(255,0,212)" stroke-width="2" fill="none"></circle>
<circle cx="5780.57" cy="1271.32" r="4" stroke="rgb(255,0,212)" stroke-width="2" fill="none"></circle>
<circle cx="1036.56" cy="1170.48" r="4" stroke="rgb(12,0,255)" stroke-width="2" fill="none"></circle>
<circle cx="5892.28" cy="1277.45" r="4" stroke="rgb(12,0,255)" stroke-width="2" fill="none"></circle>
<circle cx="1097.15" cy="1191.46" r="4" stroke="rgb(127,0,255)" stroke-width="2" fill="none"></circle>
<circle cx="5834.07" cy="1300.18" r="4" stroke="rgb(127,0,255)" stroke-width="2" fill="none"></circle>
<circle cx="632.952" cy="2021.02" r="4" stroke="rgb(237,255,0)" stroke-width="2" fill="none"></circle>
<circle cx="5538.65" cy="1503.3" r="4" stroke="rgb(237,255,0)" stroke-width="2" fill="none"></circle>
<circle cx="1348.49" cy="1084.04" r="4" stroke="rgb(255,0,131)" stroke-width="2" fill="none"></circle>
<circle cx="5911.94" cy="1512.65" r="4" stroke="rgb(255,0,131)" stroke-width="2" fill="none"></circle>
<circle cx="1348.49" cy="1084.04" r="4" stroke="rgb(0,59,255)" stroke-width="2" fill="none"></circle>
<circle cx="5911.94" cy="1512.65" r="4" stroke="rgb(0,59,255)" stroke-width="2" fill="none"></circle>
<circle cx="1629.12" cy="1657.51" r="4" stroke="rgb(178,0,255)" stroke-width="2" fill="none"></circle>
<circle cx="5601.15" cy="1517.79" r="4" stroke="rgb(178,0,255)" stroke-width="2" fill="none"></circle>
<circle cx="854.562" cy="1476.17" r="4" stroke="rgb(255,114,0)" stroke-width="2" fill="none"></circle>
<circle cx="6286.61" cy="1518.3" r="4" stroke="rgb(255,114,0)" stroke-width="2" fill="none"></circle>
<circle cx="1348.49" cy="1084.04" r="4" stroke="rgb(255,46,0)" stroke-width="2" fill="none"></circle>
<circle cx="5937.79" cy="1519.99" r="4" stroke="rgb(255,46,0)" stroke-width="2" fill="none"></circle>
<circle cx="991.597" cy="1207.82" r="4" stroke="rgb(0,255,84)" stroke-width="2" fill="none"></circle>
<circle cx="5891.06" cy="1232.22" r="4" stroke="rgb(0,255,84)" stroke-width="2" fill="none"></circle>
<circle cx="1006.5" cy="1136.04" r="4" stroke="rgb(255,110,0)" stroke-width="2" fill="none"></circle>
<circle cx="5446.02" cy="1344.49" r="4" stroke="rgb(255,110,0)" stroke-width="2" fill="none"></circle>
<circle cx="1404.03" cy="1121.25" r="4" stroke="rgb(255,0,17)" stroke-width="2" fill="none"></circle>
<circle cx="5736.06" cy="1464.45" r="4" stroke="rgb(255,0,17)" stroke-width="2" fill="none"></circle>
<circle cx="1370.18" cy="1136.02" r="4" stroke="rgb(255,55,0)" stroke-width="2" fill="none"></circle>
<circle cx="5742.26" cy="1445.91" r="4" stroke="rgb(255,55,0)" stroke-width="2" fill="none"></circle>
<circle cx="1682.98" cy="1587.05" r="4" stroke="rgb(89,0,255)" stroke-width="2" fill="none"></circle>
<circle cx="5658.86" cy="1463.58" r="4" stroke="rgb(89,0,255)" stroke-width="2" fill="none"></circle>
<circle cx="870.687" cy="1208.41" r="4" stroke="rgb(0,21,255)" stroke-width="2" fill="none"></circle>
<circle cx="5416.48" cy="1353.21" r="4" stroke="rgb(0,21,255)" stroke-width="2" fill="none"></circle>
<circle cx="1788.91" cy="1772.34" r="4" stroke="rgb(255,0,195)" stroke-width="2" fill="none"></circle>
<circle cx="6307.31" cy="1171.13" r="4" stroke="rgb(255,0,195)" stroke-width="2" fill="none"></circle>
<circle cx="1737.17" cy="1631.37" r="4" stroke="rgb(0,233,255)" stroke-width="2" fill="none"></circle>
<circle cx="4911.62" cy="1071.65" r="4" stroke="rgb(0,233,255)" stroke-width="2" fill="none"></circle>
<circle cx="914.358" cy="1132.81" r="4" stroke="rgb(174,255,0)" stroke-width="2" fill="none"></circle>
<circle cx="5873.91" cy="1118.01" r="4" stroke="rgb(174,255,0)" stroke-width="2" fill="none"></circle>
<circle cx="975.823" cy="1169.62" r="4" stroke="rgb(208,255,0)" stroke-width="2" fill="none"></circle>
<circle cx="5937.33" cy="1244.46" r="4" stroke="rgb(208,255,0)" stroke-width="2" fill="none"></circle>
<circle cx="3015.07" cy="1367.1" r="4" stroke="rgb(80,255,0)" stroke-width="2" fill="none"></circle>
<circle cx="5312.16" cy="793.786" r="4" stroke="rgb(80,255,0)" stroke-width="2" fill="none"></circle>
<circle cx="1359.54" cy="1438.69" r="4" stroke="rgb(0,33,255)" stroke-width="2" fill="none"></circle>
<circle cx="5453.21" cy="1273.71" r="4" stroke="rgb(0,33,255)" stroke-width="2" fill="none"></circle>
<circle cx="1054.03" cy="1199.82" r="4" stroke="rgb(0,0,255)" stroke-width="2" fill="none"></circle>
<circle cx="5855.11" cy="1274.94" r="4" stroke="rgb(0,0,255)" stroke-width="2" fill="none"></circle>
<circle cx="902.443" cy="1195.97" r="4" stroke="rgb(0,4,255)" stroke-width="2" fill="none"></circle>
<circle cx="5988.72" cy="1171.58" r="4" stroke="rgb(0,4,255)" stroke-width="2" fill="none"></circle>
<circle cx="1237.53" cy="1954.46" r="4" stroke="rgb(0,216,255)" stroke-width="2" fill="none"></circle>
<circle cx="4999.95" cy="969.337" r="4" stroke="rgb(0,216,255)" stroke-width="2" fill="none"></circle>
<circle cx="969.018" cy="1181.83" r="4" stroke="rgb(255,0,153)" stroke-width="2" fill="none"></circle>
<circle cx="5931.33" cy="1230.18" r="4" stroke="rgb(255,0,153)" stroke-width="2" fill="none"></circle>
<circle cx="1261.5" cy="2366.61" r="4" stroke="rgb(0,187,255)" stroke-width="2" fill="none"></circle>
<circle cx="5373.72" cy="1287.5" r="4" stroke="rgb(0,187,255)" stroke-width="2" fill="none"></circle>
<circle cx="1073.77" cy="1217.71" r="4" stroke="rgb(255,0,42)" stroke-width="2" fill="none"></circle>
<circle cx="5822.56" cy="1277.57" r="4" stroke="rgb(255,0,42)" stroke-width="2" fill="none"></circle>
<circle cx="1733.49" cy="1715.54" r="4" stroke="rgb(199,255,0)" stroke-width="2" fill="none"></circle>
<circle cx="5571.89" cy="1287.92" r="4" stroke="rgb(199,255,0)" stroke-width="2" fill="none"></circle>
<circle cx="962.18" cy="1202.25" r="4" stroke="rgb(255,0,174)" stroke-width="2" fill="none"></circle>
<circle cx="5926.3" cy="1215.08" r="4" stroke="rgb(255,0,174)" stroke-width="2" fill="none"></circle>
<circle cx="962.18" cy="1202.25" r="4" stroke="rgb(0,51,255)" stroke-width="2" fill="none"></circle>
<circle cx="5926.3" cy="1215.08" r="4" stroke="rgb(0,51,255)" stroke-width="2" fill="none"></circle>
<circle cx="893.628" cy="2105.55" r="4" stroke="rgb(255,25,0)" stroke-width="2" fill="none"></circle>
<circle cx="6974.12" cy="868.736" r="4" stroke="rgb(255,25,0)" stroke-width="2" fill="none"></circle>
<circle cx="965.637" cy="1273.29" r="4" stroke="rgb(127,0,255)" stroke-width="2" fill="none"></circle>
<circle cx="6146.91" cy="518.98" r="4" stroke="rgb(127,0,255)" stroke-width="2" fill="none"></circle>
</svg>