<?xml version="1.0" standalone="yes"?>
<!-- SVG graphic -->
<svg xmlns='http://www.w3.org/2000/svg' xmlns:xlink='http://www.w3.org/1999/xlink'
width="8064px" height="3024px" preserveAspectRatio="xMinYMin meet" viewBox="0 0 8064 3024" version="1.1">
<image x="0" y="0" width="4032px" height="3024px" opacity="1" xlink:href="/home/jeong/Code/2D-to-3D-Modeling-using-AI/Make3D/Image/20200227_180638.jpg"/>
<image x="4032" y="0" width="4032px" height="3024px" opacity="1" xlink:href="/home/jeong/Code/2D-to-3D-Modeling-using-AI/Make3D/Image/20200227_180718.jpg"/>
<polyline points="586.882,2049.22,6343.59,538.43" stroke="rgb(255,0,199)" stroke-width="2" fill="none"></polyline>
<polyline points="1304.52,1116.93,5232.64,1036.99" stroke="rgb(0,255,76)" stroke-width="2" fill="none"></polyline>
<polyline points="720.178,1155.19,5841.72,1046.84" stroke="rgb(229,255,0)" stroke-width="2" fill="none"></polyline>
<polyline points="1245,2075,5884.74,580.671" stroke="rgb(169,255,0)" stroke-width="2" fill="none"></polyline>
<polyline points="2055.29,985.783,6302.57,637.697" stroke="rgb(0,101,255)" stroke-width="2" fill="none"></polyline>
<polyline points="1814.4,1645.79,5444.86,889.1" stroke="rgb(0,203,255)" stroke-width="2" fill="none"></polyline>
<polyline points="2101.69,1660.83,6289.11,961.7" stroke="rgb(255,8,0)" stroke-width="2" fill="none"></polyline>
<polyline points="881.585,1110.54,5917.32,1087.05" stroke="rgb(0,76,255)" stroke-width="2" fill="none"></polyline>
<polyline points="1721.75,1130.2,5438.83,917.835" stroke="rgb(255,0,161)" stroke-width="2" fill="none"></polyline>
<polyline points="1791.01,1796.91,5411.44,928.799" stroke="rgb(135,0,255)" stroke-width="2" fill="none"></polyline>
<polyline points="1304.52,1116.93,5379.34,940.407" stroke="rgb(255,212,0)" stroke-width="2" fill="none"></polyline>
<polyline points="1791.01,1796.91,5403.62,947.927" stroke="rgb(97,255,0)" stroke-width="2" fill="none"></polyline>
<polyline points="2591.96,1468.53,5685.78,1381.44" stroke="rgb(0,255,0)" stroke-width="2" fill="none"></polyline>
<polyline points="1020.5,1207.15,5847.68,1390.99" stroke="rgb(225,0,255)" stroke-width="2" fill="none"></polyline>
<polyline points="1304.52,1116.93,5447.06,896.788" stroke="rgb(0,67,255)" stroke-width="2" fill="none"></polyline>
<polyline points="1699.5,1570.99,5253.49,1125.56" stroke="rgb(0,255,220)" stroke-width="2" fill="none"></polyline>
<polyline points="895.969,1472.99,5708.53,1002.07" stroke="rgb(229,255,0)" stroke-width="2" fill="none"></polyline>
<polyline points="1699.5,1570.99,5253.49,1125.56" stroke="rgb(255,80,0)" stroke-width="2" fill="none"></polyline>
<polyline points="1699.5,1570.99,5445.03,1008.63" stroke="rgb(0,12,255)" stroke-width="2" fill="none"></polyline>
<polyline points="1030.35,1212.59,5837.72,1398.55" stroke="rgb(255,174,0)" stroke-width="2" fill="none"></polyline>
<polyline points="1721.75,1130.2,5286.17,1017.83" stroke="rgb(12,255,0)" stroke-width="2" fill="none"></polyline>
<polyline points="1023.13,1169.49,5884.89,1399.62" stroke="rgb(174,255,0)" stroke-width="2" fill="none"></polyline>
<polyline points="1721.75,1130.2,5286.17,1017.83" stroke="rgb(174,255,0)" stroke-width="2" fill="none"></polyline>
<polyline points="1791.5,1805.4,5195.3,1134.09" stroke="rgb(255,119,0)" stroke-width="2" fill="none"></polyline>
<polyline points="1985.42,1553.79,5367.71,1027.79" stroke="rgb(255,0,233)" stroke-width="2" fill="none"></polyline>
<polyline points="1771.31,1831.22,5413.92,947.794" stroke="rgb(225,0,255)" stroke-width="2" fill="none"></polyline>
<polyline points="1699.5,1570.99,5274.92,1046.68" stroke="rgb(203,0,255)" stroke-width="2" fill="none"></polyline>
<polyline points="849.879,1631.95,5456.83,1053.29" stroke="rgb(255,0,208)" stroke-width="2" fill="none"></polyline>
<polyline points="1058.52,1236.49,5800.2,1419.21" stroke="rgb(233,255,0)" stroke-width="2" fill="none"></polyline>
<polyline points="2000.91,1785.64,5891.7,1076.3" stroke="rgb(0,255,254)" stroke-width="2" fill="none"></polyline>
<polyline points="1059.8,1225.37,5810.2,1423.11" stroke="rgb(0,255,250)" stroke-width="2" fill="none"></polyline>
<polyline points="1059.8,1225.37,5810.2,1423.11" stroke="rgb(46,0,255)" stroke-width="2" fill="none"></polyline>
<polyline points="1028.09,1328.52,6586.34,1195.11" stroke="rgb(255,0,178)" stroke-width="2" fill="none"></polyline>
<polyline points="2432.77,1285.64,6670.94,1433.26" stroke="rgb(25,0,255)" stroke-width="2" fill="none"></polyline>
<polyline points="388.578,937.326,5261.16,1124.66" stroke="rgb(0,157,255)" stroke-width="2" fill="none"></polyline>
<polyline points="1748.3,1673.31,5199.07,1128.06" stroke="rgb(255,195,0)" stroke-width="2" fill="none"></polyline>
<polyline points="961.741,1778.64,6183.65,1151.08" stroke="rgb(178,255,0)" stroke-width="2" fill="none"></polyline>
<polyline points="1989.87,1747.66,5854.52,1145.63" stroke="rgb(0,148,255)" stroke-width="2" fill="none"></polyline>
<polyline points="1989.87,1747.66,5854.52,1145.63" stroke="rgb(0,255,84)" stroke-width="2" fill="none"></polyline>
<polyline points="975.823,1169.62,6100.02,1172.16" stroke="rgb(140,0,255)" stroke-width="2" fill="none"></polyline>
<polyline points="1086.07,1187.61,5837.15,1449.48" stroke="rgb(255,0,42)" stroke-width="2" fill="none"></polyline>
<polyline points="1109.61,1265.87,5753.21,1455.15" stroke="rgb(0,208,255)" stroke-width="2" fill="none"></polyline>
<polyline points="789.156,1732.25,5508.32,1246.83" stroke="rgb(8,0,255)" stroke-width="2" fill="none"></polyline>
<polyline points="789.156,1732.25,5508.32,1246.83" stroke="rgb(255,0,76)" stroke-width="2" fill="none"></polyline>
<polyline points="1970.04,1717.05,6054.04,1466.04" stroke="rgb(255,0,17)" stroke-width="2" fill="none"></polyline>
<polyline points="1260.91,1281.67,5637.96,1480.41" stroke="rgb(255,0,93)" stroke-width="2" fill="none"></polyline>
<polyline points="1149.63,1218.68,5779.53,1494.76" stroke="rgb(0,255,144)" stroke-width="2" fill="none"></polyline>
<polyline points="2454.16,1323.09,6652.07,1212.26" stroke="rgb(242,255,0)" stroke-width="2" fill="none"></polyline>
<polyline points="2496.8,2243.9,5779.75,1304.83" stroke="rgb(0,42,255)" stroke-width="2" fill="none"></polyline>
<polyline points="2020.08,1647.85,5920.38,1507.12" stroke="rgb(255,131,0)" stroke-width="2" fill="none"></polyline>
<polyline points="948.744,1143.09,5956.65,1330.07" stroke="rgb(67,255,0)" stroke-width="2" fill="none"></polyline>
<polyline points="849.879,1631.95,5287.27,1252.6" stroke="rgb(255,0,55)" stroke-width="2" fill="none"></polyline>
<polyline points="2496.8,2243.9,5764.93,1355.58" stroke="rgb(255,0,76)" stroke-width="2" fill="none"></polyline>
<polyline points="989.842,1185.25,5886.32,1364.82" stroke="rgb(255,233,0)" stroke-width="2" fill="none"></polyline>
<polyline points="964.479,1543.96,5520.18,1367.74" stroke="rgb(255,63,0)" stroke-width="2" fill="none"></polyline>
<polyline points="993.643,1176.03,5893.56,1371.22" stroke="rgb(203,0,255)" stroke-width="2" fill="none"></polyline>
<polyline points="2739.22,2262.27,6222.94,1297.21" stroke="rgb(0,85,255)" stroke-width="2" fill="none"></polyline>
<polyline points="1011.99,1134.23,5924.19,1384.43" stroke="rgb(0,255,233)" stroke-width="2" fill="none"></polyline>
<polyline points="1095.79,1254.96,5768.13,1445.48" stroke="rgb(0,4,255)" stroke-width="2" fill="none"></polyline>
<polyline points="1088.84,1200.68,5823.82,1449.35" stroke="rgb(0,255,157)" stroke-width="2" fill="none"></polyline>
<polyline points="1038.27,1230.58,5815.34,1402.56" stroke="rgb(255,0,21)" stroke-width="2" fill="none"></polyline>
<polyline points="1036.56,1170.48,5878.6,1409.59" stroke="rgb(255,250,0)" stroke-width="2" fill="none"></polyline>
<polyline points="1044.95,1219.89,5822.31,1411.12" stroke="rgb(255,204,0)" stroke-width="2" fill="none"></polyline>
<polyline points="1048.04,1149.7,5896.03,1421.91" stroke="rgb(0,229,255)" stroke-width="2" fill="none"></polyline>
<polyline points="1734.97,1275.1,5482.86,1624.18" stroke="rgb(0,255,242)" stroke-width="2" fill="none"></polyline>
<polyline points="1734.97,1275.1,5482.86,1624.18" stroke="rgb(46,0,255)" stroke-width="2" fill="none"></polyline>
<polyline points="1733.78,1266.59,5488.94,1624.63" stroke="rgb(67,255,0)" stroke-width="2" fill="none"></polyline>
<polyline points="1342.61,1137.99,5783.95,1642.41" stroke="rgb(0,255,29)" stroke-width="2" fill="none"></polyline>
<polyline points="1080.64,1250.14,5778.11,1434.74" stroke="rgb(255,0,131)" stroke-width="2" fill="none"></polyline>
<polyline points="1080.64,1250.14,5778.11,1434.74" stroke="rgb(21,0,255)" stroke-width="2" fill="none"></polyline>
<polyline points="1351.81,1136.35,5782.4,1647.95" stroke="rgb(255,170,0)" stroke-width="2" fill="none"></polyline>
<polyline points="1788.53,1203.36,5899.8,1650.95" stroke="rgb(0,208,255)" stroke-width="2" fill="none"></polyline>
<polyline points="1091.18,1265.67,5758,1442.62" stroke="rgb(255,0,221)" stroke-width="2" fill="none"></polyline>
<polyline points="1381.29,1135.58,5776.63,1662.7" stroke="rgb(0,255,148)" stroke-width="2" fill="none"></polyline>
<polyline points="1348.49,1084.04,6003.88,1690.45" stroke="rgb(255,191,0)" stroke-width="2" fill="none"></polyline>
<polyline points="1780.26,1808.24,5322.93,1695.31" stroke="rgb(255,0,237)" stroke-width="2" fill="none"></polyline>
<polyline points="1097.15,1191.46,5829.4,1457.72" stroke="rgb(255,21,0)" stroke-width="2" fill="none"></polyline>
<polyline points="1761.1,1696.13,5350.85,1706.88" stroke="rgb(0,174,255)" stroke-width="2" fill="none"></polyline>
<polyline points="1781.73,1716.65,5338.94,1711.21" stroke="rgb(0,4,255)" stroke-width="2" fill="none"></polyline>
<polyline points="1643.34,1100.47,6147.66,1585.49" stroke="rgb(0,21,255)" stroke-width="2" fill="none"></polyline>
<polyline points="1403.4,1157.35,5760.58,1666.76" stroke="rgb(76,255,0)" stroke-width="2" fill="none"></polyline>
<polyline points="1865.42,1826.88,5278.58,1735.13" stroke="rgb(0,106,255)" stroke-width="2" fill="none"></polyline>
<polyline points="2273.61,1758.19,5574.2,1735.22" stroke="rgb(0,72,255)" stroke-width="2" fill="none"></polyline>
<polyline points="1424.29,1376.38,5630.21,1592.22" stroke="rgb(153,255,0)" stroke-width="2" fill="none"></polyline>
<polyline points="1288.68,1157.41,5782.05,1606.78" stroke="rgb(127,0,255)" stroke-width="2" fill="none"></polyline>
<polyline points="2309.16,2341.64,4674.29,1610.09" stroke="rgb(0,8,255)" stroke-width="2" fill="none"></polyline>
<polyline points="1370.18,1136.02,5779.36,1655.9" stroke="rgb(17,0,255)" stroke-width="2" fill="none"></polyline>
<polyline points="1376.75,1124.85,5786.34,1664.91" stroke="rgb(0,255,42)" stroke-width="2" fill="none"></polyline>
<polyline points="1348.49,1084.04,5974.43,1685.95" stroke="rgb(195,0,255)" stroke-width="2" fill="none"></polyline>
<polyline points="1348.49,1084.04,6003.28,1690.67" stroke="rgb(0,255,16)" stroke-width="2" fill="none"></polyline>
<polyline points="1674.99,1406.38,5717.12,1735.78" stroke="rgb(203,0,255)" stroke-width="2" fill="none"></polyline>
<polyline points="969.018,1181.83,5902.75,1343.1" stroke="rgb(0,255,140)" stroke-width="2" fill="none"></polyline>
<polyline points="1234.26,1729.33,6649.97,1062.8" stroke="rgb(255,233,0)" stroke-width="2" fill="none"></polyline>
<polyline points="2698.19,2248.84,5092.18,1105.39" stroke="rgb(0,135,255)" stroke-width="2" fill="none"></polyline>
<polyline points="1044.02,1185.82,5854.48,1418.1" stroke="rgb(255,0,89)" stroke-width="2" fill="none"></polyline>
<polyline points="2181.86,1652.41,5896.09,1132.49" stroke="rgb(0,33,255)" stroke-width="2" fill="none"></polyline>
<polyline points="2181.86,1652.41,5864.06,1165.53" stroke="rgb(255,0,119)" stroke-width="2" fill="none"></polyline>
<polyline points="1937.61,1535.3,5255.86,1336.81" stroke="rgb(255,0,187)" stroke-width="2" fill="none"></polyline>
<polyline points="975.823,1169.62,5912.21,1356.39" stroke="rgb(255,0,4)" stroke-width="2" fill="none"></polyline>
<polyline points="923.689,1107.18,6015.95,1305.81" stroke="rgb(255,0,250)" stroke-width="2" fill="none"></polyline>
<polyline points="1054.03,1199.82,5841.03,1421.09" stroke="rgb(0,165,255)" stroke-width="2" fill="none"></polyline>
<polyline points="1054.03,1199.82,5832.77,1424.45" stroke="rgb(135,0,255)" stroke-width="2" fill="none"></polyline>
<polyline points="1403.4,1157.35,5760.48,1666.11" stroke="rgb(255,17,0)" stroke-width="2" fill="none"></polyline>
<polyline points="1228.65,1023.55,6278.12,1350.54" stroke="rgb(255,89,0)" stroke-width="2" fill="none"></polyline>
<polyline points="2273.61,1758.19,5574.51,1735.57" stroke="rgb(250,0,255)" stroke-width="2" fill="none"></polyline>
<polyline points="2398.51,1133.7,5906.95,1743.08" stroke="rgb(255,208,0)" stroke-width="2" fill="none"></polyline>
<polyline points="1226.41,1484.5,4861.07,1486.59" stroke="rgb(255,0,148)" stroke-width="2" fill="none"></polyline>
<polyline points="1636.6,1225.67,5184.88,1324.42" stroke="rgb(255,0,237)" stroke-width="2" fill="none"></polyline>
<polyline points="970.37,1134.2,5957.05,1350.44" stroke="rgb(0,255,0)" stroke-width="2" fill="none"></polyline>
<polyline points="962.18,1202.25,5890.74,1330.34" stroke="rgb(182,255,0)" stroke-width="2" fill="none"></polyline>
<polyline points="962.18,1202.25,5890.74,1330.34" stroke="rgb(0,255,254)" stroke-width="2" fill="none"></polyline>
<polyline points="2245.78,1075.89,4939.75,1394.87" stroke="rgb(0,76,255)" stroke-width="2" fill="none"></polyline>
<polyline points="1048.56,1230.9,5807.59,1412.59" stroke="rgb(221,0,255)" stroke-width="2" fill="none"></polyline>
<polyline points="1073.77,1217.71,5811.57,1436.41" stroke="rgb(148,0,255)" stroke-width="2" fill="none"></polyline>
<polyline points="1122.23,1245.16,5769.15,1468.8" stroke="rgb(0,255,246)" stroke-width="2" fill="none"></polyline>
<polyline points="1005.91,1270.08,5934.86,1275.79" stroke="rgb(191,255,0)" stroke-width="2" fill="none"></polyline>
<circle cx="586.882" cy="2049.22" r="4" stroke="rgb(255,0,199)" stroke-width="2" fill="none"></circle>
<circle cx="6343.59" cy="538.43" r="4" stroke="rgb(255,0,199)" stroke-width="2" fill="none"></circle>
<circle cx="1304.52" cy="1116.93" r="4" stroke="rgb(0,255,76)" stroke-width="2" fill="none"></circle>
<circle cx="5232.64" cy="1036.99" r="4" stroke="rgb(0,255,76)" stroke-width="2" fill="none"></circle>
<circle cx="720.178" cy="1155.19" r="4" stroke="rgb(229,255,0)" stroke-width="2" fill="none"></circle>
<circle cx="5841.72" cy="1046.84" r="4" stroke="rgb(229,255,0)" stroke-width="2" fill="none"></circle>
<circle cx="1245" cy="2075" r="4" stroke="rgb(169,255,0)" stroke-width="2" fill="none"></circle>
<circle cx="5884.74" cy="580.671" r="4" stroke="rgb(169,255,0)" stroke-width="2" fill="none"></circle>
<circle cx="2055.29" cy="985.783" r="4" stroke="rgb(0,101,255)" stroke-width="2" fill="none"></circle>
<circle cx="6302.57" cy="637.697" r="4" stroke="rgb(0,101,255)" stroke-width="2" fill="none"></circle>
<circle cx="1814.4" cy="1645.79" r="4" stroke="rgb(0,203,255)" stroke-width="2" fill="none"></circle>
<circle cx="5444.86" cy="889.1" r="4" stroke="rgb(0,203,255)" stroke-width="2" fill="none"></circle>
<circle cx="2101.69" cy="1660.83" r="4" stroke="rgb(255,8,0)" stroke-width="2" fill="none"></circle>
<circle cx="6289.11" cy="961.7" r="4" stroke="rgb(255,8,0)" stroke-width="2" fill="none"></circle>
<circle cx="881.585" cy="1110.54" r="4" stroke="rgb(0,76,255)" stroke-width="2" fill="none"></circle>
<circle cx="5917.32" cy="1087.05" r="4" stroke="rgb(0,76,255)" stroke-width="2" fill="none"></circle>
<circle cx="1721.75" cy="1130.2" r="4" stroke="rgb(255,0,161)" stroke-width="2" fill="none"></circle>
<circle cx="5438.83" cy="917.835" r="4" stroke="rgb(255,0,161)" stroke-width="2" fill="none"></circle>
<circle cx="1791.01" cy="1796.91" r="4" stroke="rgb(135,0,255)" stroke-width="2" fill="none"></circle>
<circle cx="5411.44" cy="928.799" r="4" stroke="rgb(135,0,255)" stroke-width="2" fill="none"></circle>
<circle cx="1304.52" cy="1116.93" r="4" stroke="rgb(255,212,0)" stroke-width="2" fill="none"></circle>
<circle cx="5379.34" cy="940.407" r="4" stroke="rgb(255,212,0)" stroke-width="2" fill="none"></circle>
<circle cx="1791.01" cy="1796.91" r="4" stroke="rgb(97,255,0)" stroke-width="2" fill="none"></circle>
<circle cx="5403.62" cy="947.927" r="4" stroke="rgb(97,255,0)" stroke-width="2" fill="none"></circle>
<circle cx="2591.96" cy="1468.53" r="4" stroke="rgb(0,255,0)" stroke-width="2" fill="none"></circle>
<circle cx="5685.78" cy="1381.44" r="4" stroke="rgb(0,255,0)" stroke-width="2" fill="none"></circle>
<circle cx="1020.5" cy="1207.15" r="4" stroke="rgb(225,0,255)" stroke-width="2" fill="none"></circle>
<circle cx="5847.68" cy="1390.99" r="4" stroke="rgb(225,0,255)" stroke-width="2" fill="none"></circle>
<circle cx="1304.52" cy="1116.93" r="4" stroke="rgb(0,67,255)" stroke-width="2" fill="none"></circle>
<circle cx="5447.06" cy="896.788" r="4" stroke="rgb(0,67,255)" stroke-width="2" fill="none"></circle>
<circle cx="1699.5" cy="1570.99" r="4" stroke="rgb(0,255,220)" stroke-width="2" fill="none"></circle>
<circle cx="5253.49" cy="1125.56" r="4" stroke="rgb(0,255,220)" stroke-width="2" fill="none"></circle>
<circle cx="895.969" cy="1472.99" r="4" stroke="rgb(229,255,0)" stroke-width="2" fill="none"></circle>
<circle cx="5708.53" cy="1002.07" r="4" stroke="rgb(229,255,0)" stroke-width="2" fill="none"></circle>
<circle cx="1699.5" cy="1570.99" r="4" stroke="rgb(255,80,0)" stroke-width="2" fill="none"></circle>
<circle cx="5253.49" cy="1125.56" r="4" stroke="rgb(255,80,0)" stroke-width="2" fill="none"></circle>
<circle cx="1699.5" cy="1570.99" r="4" stroke="rgb(0,12,255)" stroke-width="2" fill="none"></circle>
<circle cx="5445.03" cy="1008.63" r="4" stroke="rgb(0,12,255)" stroke-width="2" fill="none"></circle>
<circle cx="1030.35" cy="1212.59" r="4" stroke="rgb(255,174,0)" stroke-width="2" fill="none"></circle>
<circle cx="5837.72" cy="1398.55" r="4" stroke="rgb(255,174,0)" stroke-width="2" fill="none"></circle>
<circle cx="1721.75" cy="1130.2" r="4" stroke="rgb(12,255,0)" stroke-width="2" fill="none"></circle>
<circle cx="5286.17" cy="1017.83" r="4" stroke="rgb(12,255,0)" stroke-width="2" fill="none"></circle>
<circle cx="1023.13" cy="1169.49" r="4" stroke="rgb(174,255,0)" stroke-width="2" fill="none"></circle>
<circle cx="5884.89" cy="1399.62" r="4" stroke="rgb(174,255,0)" stroke-width="2" fill="none"></circle>
<circle cx="1721.75" cy="1130.2" r="4" stroke="rgb(174,255,0)" stroke-width="2" fill="none"></circle>
<circle cx="5286.17" cy="1017.83" r="4" stroke="rgb(174,255,0)" stroke-width="2" fill="none"></circle>
<circle cx="1791.5" cy="1805.4" r="4" stroke="rgb(255,119,0)" stroke-width="2" fill="none"></circle>
<circle cx="5195.3" cy="1134.09" r="4" stroke="rgb(255,119,0)" stroke-width="2" fill="none"></circle>
<circle cx="1985.42" cy="1553.79" r="4" stroke="rgb(255,0,233)" stroke-width="2" fill="none"></circle>
<circle cx="5367.71" cy="1027.79" r="4" stroke="rgb(255,0,233)" stroke-width="2" fill="none"></circle>
<circle cx="1771.31" cy="1831.22" r="4" stroke="rgb(225,0,255)" stroke-width="2" fill="none"></circle>
<circle cx="5413.92" cy="947.794" r="4" stroke="rgb(225,0,255)" stroke-width="2" fill="none"></circle>
<circle cx="1699.5" cy="1570.99" r="4" stroke="rgb(203,0,255)" stroke-width="2" fill="none"></circle>
<circle cx="5274.92" cy="1046.68" r="4" stroke="rgb(203,0,255)" stroke-width="2" fill="none"></circle>
<circle cx="849.879" cy="1631.95" r="4" stroke="rgb(255,0,208)" stroke-width="2" fill="none"></circle>
<circle cx="5456.83" cy="1053.29" r="4" stroke="rgb(255,0,208)" stroke-width="2" fill="none"></circle>
<circle cx="1058.52" cy="1236.49" r="4" stroke="rgb(233,255,0)" stroke-width="2" fill="none"></circle>
<circle cx="5800.2" cy="1419.21" r="4" stroke="rgb(233,255,0)" stroke-width="2" fill="none"></circle>
<circle cx="2000.91" cy="1785.64" r="4" stroke="rgb(0,255,254)" stroke-width="2" fill="none"></circle>
<circle cx="5891.7" cy="1076.3" r="4" stroke="rgb(0,255,254)" stroke-width="2" fill="none"></circle>
<circle cx="1059.8" cy="1225.37" r="4" stroke="rgb(0,255,250)" stroke-width="2" fill="none"></circle>
<circle cx="5810.2" cy="1423.11" r="4" stroke="rgb(0,255,250)" stroke-width="2" fill="none"></circle>
<circle cx="1059.8" cy="1225.37" r="4" stroke="rgb(46,0,255)" stroke-width="2" fill="none"></circle>
<circle cx="5810.2" cy="1423.11" r="4" stroke="rgb(46,0,255)" stroke-width="2" fill="none"></circle>
<circle cx="1028.09" cy="1328.52" r="4" stroke="rgb(255,0,178)" stroke-width="2" fill="none"></circle>
<circle cx="6586.34" cy="1195.11" r="4" stroke="rgb(255,0,178)" stroke-width="2" fill="none"></circle>
<circle cx="2432.77" cy="1285.64" r="4" stroke="rgb(25,0,255)" stroke-width="2" fill="none"></circle>
<circle cx="6670.94" cy="1433.26" r="4" stroke="rgb(25,0,255)" stroke-width="2" fill="none"></circle>
<circle cx="388.578" cy="937.326" r="4" stroke="rgb(0,157,255)" stroke-width="2" fill="none"></circle>
<circle cx="5261.16" cy="1124.66" r="4" stroke="rgb(0,157,255)" stroke-width="2" fill="none"></circle>
<circle cx="1748.3" cy="1673.31" r="4" stroke="rgb(255,195,0)" stroke-width="2" fill="none"></circle>
<circle cx="5199.07" cy="1128.06" r="4" stroke="rgb(255,195,0)" stroke-width="2" fill="none"></circle>
<circle cx="961.741" cy="1778.64" r="4" stroke="rgb(178,255,0)" stroke-width="2" fill="none"></circle>
<circle cx="6183.65" cy="1151.08" r="4" stroke="rgb(178,255,0)" stroke-width="2" fill="none"></circle>
<circle cx="1989.87" cy="1747.66" r="4" stroke="rgb(0,148,255)" stroke-width="2" fill="none"></circle>
<circle cx="5854.52" cy="1145.63" r="4" stroke="rgb(0,148,255)" stroke-width="2" fill="none"></circle>
<circle cx="1989.87" cy="1747.66" r="4" stroke="rgb(0,255,84)" stroke-width="2" fill="none"></circle>
<circle cx="5854.52" cy="1145.63" r="4" stroke="rgb(0,255,84)" stroke-width="2" fill="none"></circle>
<circle cx="975.823" cy="1169.62" r="4" stroke="rgb(140,0,255)" stroke-width="2" fill="none"></circle>
<circle cx="6100.02" cy="1172.16" r="4" stroke="rgb(140,0,255)" stroke-width="2" fill="none"></circle>
<circle cx="1086.07" cy="1187.61" r="4" stroke="rgb(255,0,42)" stroke-width="2" fill="none"></circle>
<circle cx="5837.15" cy="1449.48" r="4" stroke="rgb(255,0,42)" stroke-width="2" fill="none"></circle>
<circle cx="1109.61" cy="1265.87" r="4" stroke="rgb(0,208,255)" stroke-width="2" fill="none"></circle>
<circle cx="5753.21" cy="1455.15" r="4" stroke="rgb(0,208,255)" stroke-width="2" fill="none"></circle>
<circle cx="789.156" cy="1732.25" r="4" stroke="rgb(8,0,255)" stroke-width="2" fill="none"></circle>
<circle cx="5508.32" cy="1246.83" r="4" stroke="rgb(8,0,255)" stroke-width="2" fill="none"></circle>
<circle cx="789.156" cy="1732.25" r="4" stroke="rgb(255,0,76)" stroke-width="2" fill="none"></circle>
<circle cx="5508.32" cy="1246.83" r="4" stroke="rgb(255,0,76)" stroke-width="2" fill="none"></circle>
<circle cx="1970.04" cy="1717.05" r="4" stroke="rgb(255,0,17)" stroke-width="2" fill="none"></circle>
<circle cx="6054.04" cy="1466.04" r="4" stroke="rgb(255,0,17)" stroke-width="2" fill="none"></circle>
<circle cx="1260.91" cy="1281.67" r="4" stroke="rgb(255,0,93)" stroke-width="2" fill="none"></circle>
<circle cx="5637.96" cy="1480.41" r="4" stroke="rgb(255,0,93)" stroke-width="2" fill="none"></circle>
<circle cx="1149.63" cy="1218.68" r="4" stroke="rgb(0,255,144)" stroke-width="2" fill="none"></circle>
<circle cx="5779.53" cy="1494.76" r="4" stroke="rgb(0,255,144)" stroke-width="2" fill="none"></circle>
<circle cx="2454.16" cy="1323.09" r="4" stroke="rgb(242,255,0)" stroke-width="2" fill="none"></circle>
<circle cx="6652.07" cy="1212.26" r="4" stroke="rgb(242,255,0)" stroke-width="2" fill="none"></circle>
<circle cx="2496.8" cy="2243.9" r="4" stroke="rgb(0,42,255)" stroke-width="2" fill="none"></circle>
<circle cx="5779.75" cy="1304.83" r="4" stroke="rgb(0,42,255)" stroke-width="2" fill="none"></circle>
<circle cx="2020.08" cy="1647.85" r="4" stroke="rgb(255,131,0)" stroke-width="2" fill="none"></circle>
<circle cx="5920.38" cy="1507.12" r="4" stroke="rgb(255,131,0)" stroke-width="2" fill="none"></circle>
<circle cx="948.744" cy="1143.09" r="4" stroke="rgb(67,255,0)" stroke-width="2" fill="none"></circle>
<circle cx="5956.65" cy="1330.07" r="4" stroke="rgb(67,255,0)" stroke-width="2" fill="none"></circle>
<circle cx="849.879" cy="1631.95" r="4" stroke="rgb(255,0,55)" stroke-width="2" fill="none"></circle>
<circle cx="5287.27" cy="1252.6" r="4" stroke="rgb(255,0,55)" stroke-width="2" fill="none"></circle>
<circle cx="2496.8" cy="2243.9" r="4" stroke="rgb(255,0,76)" stroke-width="2" fill="none"></circle>
<circle cx="5764.93" cy="1355.58" r="4" stroke="rgb(255,0,76)" stroke-width="2" fill="none"></circle>
<circle cx="989.842" cy="1185.25" r="4" stroke="rgb(255,233,0)" stroke-width="2" fill="none"></circle>
<circle cx="5886.32" cy="1364.82" r="4" stroke="rgb(255,233,0)" stroke-width="2" fill="none"></circle>
<circle cx="964.479" cy="1543.96" r="4" stroke="rgb(255,63,0)" stroke-width="2" fill="none"></circle>
<circle cx="5520.18" cy="1367.74" r="4" stroke="rgb(255,63,0)" stroke-width="2" fill="none"></circle>
<circle cx="993.643" cy="1176.03" r="4" stroke="rgb(203,0,255)" stroke-width="2" fill="none"></circle>
<circle cx="5893.56" cy="1371.22" r="4" stroke="rgb(203,0,255)" stroke-width="2" fill="none"></circle>
<circle cx="2739.22" cy="2262.27" r="4" stroke="rgb(0,85,255)" stroke-width="2" fill="none"></circle>
<circle cx="6222.94" cy="1297.21" r="4" stroke="rgb(0,85,255)" stroke-width="2" fill="none"></circle>
<circle cx="1011.99" cy="1134.23" r="4" stroke="rgb(0,255,233)" stroke-width="2" fill="none"></circle>
<circle cx="5924.19" cy="1384.43" r="4" stroke="rgb(0,255,233)" stroke-width="2" fill="none"></circle>
<circle cx="1095.79" cy="1254.96" r="4" stroke="rgb(0,4,255)" stroke-width="2" fill="none"></circle>
<circle cx="5768.13" cy="1445.48" r="4" stroke="rgb(0,4,255)" stroke-width="2" fill="none"></circle>
<circle cx="1088.84" cy="1200.68" r="4" stroke="rgb(0,255,157)" stroke-width="2" fill="none"></circle>
<circle cx="5823.82" cy="1449.35" r="4" stroke="rgb(0,255,157)" stroke-width="2" fill="none"></circle>
<circle cx="1038.27" cy="1230.58" r="4" stroke="rgb(255,0,21)" stroke-width="2" fill="none"></circle>
<circle cx="5815.34" cy="1402.56" r="4" stroke="rgb(255,0,21)" stroke-width="2" fill="none"></circle>
<circle cx="1036.56" cy="1170.48" r="4" stroke="rgb(255,250,0)" stroke-width="2" fill="none"></circle>
<circle cx="5878.6" cy="1409.59" r="4" stroke="rgb(255,250,0)" stroke-width="2" fill="none"></circle>
<circle cx="1044.95" cy="1219.89" r="4" stroke="rgb(255,204,0)" stroke-width="2" fill="none"></circle>
<circle cx="5822.31" cy="1411.12" r="4" stroke="rgb(255,204,0)" stroke-width="2" fill="none"></circle>
<circle cx="1048.04" cy="1149.7" r="4" stroke="rgb(0,229,255)" stroke-width="2" fill="none"></circle>
<circle cx="5896.03" cy="1421.91" r="4" stroke="rgb(0,229,255)" stroke-width="2" fill="none"></circle>
<circle cx="1734.97" cy="1275.1" r="4" stroke="rgb(0,255,242)" stroke-width="2" fill="none"></circle>
<circle cx="5482.86" cy="1624.18" r="4" stroke="rgb(0,255,242)" stroke-width="2" fill="none"></circle>
<circle cx="1734.97" cy="1275.1" r="4" stroke="rgb(46,0,255)" stroke-width="2" fill="none"></circle>
<circle cx="5482.86" cy="1624.18" r="4" stroke="rgb(46,0,255)" stroke-width="2" fill="none"></circle>
<circle cx="1733.78" cy="1266.59" r="4" stroke="rgb(67,255,0)" stroke-width="2" fill="none"></circle>
<circle cx="5488.94" cy="1624.63" r="4" stroke="rgb(67,255,0)" stroke-width="2" fill="none"></circle>
<circle cx="1342.61" cy="1137.99" r="4" stroke="rgb(0,255,29)" stroke-width="2" fill="none"></circle>
<circle cx="5783.95" cy="1642.41" r="4" stroke="rgb(0,255,29)" stroke-width="2" fill="none"></circle>
<circle cx="1080.64" cy="1250.14" r="4" stroke="rgb(255,0,131)" stroke-width="2" fill="none"></circle>
<circle cx="5778.11" cy="1434.74" r="4" stroke="rgb(255,0,131)" stroke-width="2" fill="none"></circle>
<circle cx="1080.64" cy="1250.14" r="4" stroke="rgb(21,0,255)" stroke-width="2" fill="none"></circle>
<circle cx="5778.11" cy="1434.74" r="4" stroke="rgb(21,0,255)" stroke-width="2" fill="none"></circle>
<circle cx="1351.81" cy="1136.35" r="4" stroke="rgb(255,170,0)" stroke-width="2" fill="none"></circle>
<circle cx="5782.4" cy="1647.95" r="4" stroke="rgb(255,170,0)" stroke-width="2" fill="none"></circle>
<circle cx="1788.53" cy="1203.36" r="4" stroke="rgb(0,208,255)" stroke-width="2" fill="none"></circle>
<circle cx="5899.8" cy="1650.95" r="4" stroke="rgb(0,208,255)" stroke-width="2" fill="none"></circle>
<circle cx="1091.18" cy="1265.67" r="4" stroke="rgb(255,0,221)" stroke-width="2" fill="none"></circle>
<circle cx="5758" cy="1442.62" r="4" stroke="rgb(255,0,221)" stroke-width="2" fill="none"></circle>
<circle cx="1381.29" cy="1135.58" r="4" stroke="rgb(0,255,148)" stroke-width="2" fill="none"></circle>
<circle cx="5776.63" cy="1662.7" r="4" stroke="rgb(0,255,148)" stroke-width="2" fill="none"></circle>
<circle cx="1348.49" cy="1084.04" r="4" stroke="rgb(255,191,0)" stroke-width="2" fill="none"></circle>
<circle cx="6003.88" cy="1690.45" r="4" stroke="rgb(255,191,0)" stroke-width="2" fill="none"></circle>
<circle cx="1780.26" cy="1808.24" r="4" stroke="rgb(255,0,237)" stroke-width="2" fill="none"></circle>
<circle cx="5322.93" cy="1695.31" r="4" stroke="rgb(255,0,237)" stroke-width="2" fill="none"></circle>
<circle cx="1097.15" cy="1191.46" r="4" stroke="rgb(255,21,0)" stroke-width="2" fill="none"></circle>
<circle cx="5829.4" cy="1457.72" r="4" stroke="rgb(255,21,0)" stroke-width="2" fill="none"></circle>
<circle cx="1761.1" cy="1696.13" r="4" stroke="rgb(0,174,255)" stroke-width="2" fill="none"></circle>
<circle cx="5350.85" cy="1706.88" r="4" stroke="rgb(0,174,255)" stroke-width="2" fill="none"></circle>
<circle cx="1781.73" cy="1716.65" r="4" stroke="rgb(0,4,255)" stroke-width="2" fill="none"></circle>
<circle cx="5338.94" cy="1711.21" r="4" stroke="rgb(0,4,255)" stroke-width="2" fill="none"></circle>
<circle cx="1643.34" cy="1100.47" r="4" stroke="rgb(0,21,255)" stroke-width="2" fill="none"></circle>
<circle cx="6147.66" cy="1585.49" r="4" stroke="rgb(0,21,255)" stroke-width="2" fill="none"></circle>
<circle cx="1403.4" cy="1157.35" r="4" stroke="rgb(76,255,0)" stroke-width="2" fill="none"></circle>
<circle cx="5760.58" cy="1666.76" r="4" stroke="rgb(76,255,0)" stroke-width="2" fill="none"></circle>
<circle cx="1865.42" cy="1826.88" r="4" stroke="rgb(0,106,255)" stroke-width="2" fill="none"></circle>
<circle cx="5278.58" cy="1735.13" r="4" stroke="rgb(0,106,255)" stroke-width="2" fill="none"></circle>
<circle cx="2273.61" cy="1758.19" r="4" stroke="rgb(0,72,255)" stroke-width="2" fill="none"></circle>
<circle cx="5574.2" cy="1735.22" r="4" stroke="rgb(0,72,255)" stroke-width="2" fill="none"></circle>
<circle cx="1424.29" cy="1376.38" r="4" stroke="rgb(153,255,0)" stroke-width="2" fill="none"></circle>
<circle cx="5630.21" cy="1592.22" r="4" stroke="rgb(153,255,0)" stroke-width="2" fill="none"></circle>
<circle cx="1288.68" cy="1157.41" r="4" stroke="rgb(127,0,255)" stroke-width="2" fill="none"></circle>
<circle cx="5782.05" cy="1606.78" r="4" stroke="rgb(127,0,255)" stroke-width="2" fill="none"></circle>
<circle cx="2309.16" cy="2341.64" r="4" stroke="rgb(0,8,255)" stroke-width="2" fill="none"></circle>
<circle cx="4674.29" cy="1610.09" r="4" stroke="rgb(0,8,255)" stroke-width="2" fill="none"></circle>
<circle cx="1370.18" cy="1136.02" r="4" stroke="rgb(17,0,255)" stroke-width="2" fill="none"></circle>
<circle cx="5779.36" cy="1655.9" r="4" stroke="rgb(17,0,255)" stroke-width="2" fill="none"></circle>
<circle cx="1376.75" cy="1124.85" r="4" stroke="rgb(0,255,42)" stroke-width="2" fill="none"></circle>
<circle cx="5786.34" cy="1664.91" r="4" stroke="rgb(0,255,42)" stroke-width="2" fill="none"></circle>
<circle cx="1348.49" cy="1084.04" r="4" stroke="rgb(195,0,255)" stroke-width="2" fill="none"></circle>
<circle cx="5974.43" cy="1685.95" r="4" stroke="rgb(195,0,255)" stroke-width="2" fill="none"></circle>
<circle cx="1348.49" cy="1084.04" r="4" stroke="rgb(0,255,16)" stroke-width="2" fill="none"></circle>
<circle cx="6003.28" cy="1690.67" r="4" stroke="rgb(0,255,16)" stroke-width="2" fill="none"></circle>
<circle cx="1674.99" cy="1406.38" r="4" stroke="rgb(203,0,255)" stroke-width="2" fill="none"></circle>
<circle cx="5717.12" cy="1735.78" r="4" stroke="rgb(203,0,255)" stroke-width="2" fill="none"></circle>
<circle cx="969.018" cy="1181.83" r="4" stroke="rgb(0,255,140)" stroke-width="2" fill="none"></circle>
<circle cx="5902.75" cy="1343.1" r="4" stroke="rgb(0,255,140)" stroke-width="2" fill="none"></circle>
<circle cx="1234.26" cy="1729.33" r="4" stroke="rgb(255,233,0)" stroke-width="2" fill="none"></circle>
<circle cx="6649.97" cy="1062.8" r="4" stroke="rgb(255,233,0)" stroke-width="2" fill="none"></circle>
<circle cx="2698.19" cy="2248.84" r="4" stroke="rgb(0,135,255)" stroke-width="2" fill="none"></circle>
<circle cx="5092.18" cy="1105.39" r="4" stroke="rgb(0,135,255)" stroke-width="2" fill="none"></circle>
<circle cx="1044.02" cy="1185.82" r="4" stroke="rgb(255,0,89)" stroke-width="2" fill="none"></circle>
<circle cx="5854.48" cy="1418.1" r="4" stroke="rgb(255,0,89)" stroke-width="2" fill="none"></circle>
<circle cx="2181.86" cy="1652.41" r="4" stroke="rgb(0,33,255)" stroke-width="2" fill="none"></circle>
<circle cx="5896.09" cy="1132.49" r="4" stroke="rgb(0,33,255)" stroke-width="2" fill="none"></circle>
<circle cx="2181.86" cy="1652.41" r="4" stroke="rgb(255,0,119)" stroke-width="2" fill="none"></circle>
<circle cx="5864.06" cy="1165.53" r="4" stroke="rgb(255,0,119)" stroke-width="2" fill="none"></circle>
<circle cx="1937.61" cy="1535.3" r="4" stroke="rgb(255,0,187)" stroke-width="2" fill="none"></circle>
<circle cx="5255.86" cy="1336.81" r="4" stroke="rgb(255,0,187)" stroke-width="2" fill="none"></circle>
<circle cx="975.823" cy="1169.62" r="4" stroke="rgb(255,0,4)" stroke-width="2" fill="none"></circle>
<circle cx="5912.21" cy="1356.39" r="4" stroke="rgb(255,0,4)" stroke-width="2" fill="none"></circle>
<circle cx="923.689" cy="1107.18" r="4" stroke="rgb(255,0,250)" stroke-width="2" fill="none"></circle>
<circle cx="6015.95" cy="1305.81" r="4" stroke="rgb(255,0,250)" stroke-width="2" fill="none"></circle>
<circle cx="1054.03" cy="1199.82" r="4" stroke="rgb(0,165,255)" stroke-width="2" fill="none"></circle>
<circle cx="5841.03" cy="1421.09" r="4" stroke="rgb(0,165,255)" stroke-width="2" fill="none"></circle>
<circle cx="1054.03" cy="1199.82" r="4" stroke="rgb(135,0,255)" stroke-width="2" fill="none"></circle>
<circle cx="5832.77" cy="1424.45" r="4" stroke="rgb(135,0,255)" stroke-width="2" fill="none"></circle>
<circle cx="1403.4" cy="1157.35" r="4" stroke="rgb(255,17,0)" stroke-width="2" fill="none"></circle>
<circle cx="5760.48" cy="1666.11" r="4" stroke="rgb(255,17,0)" stroke-width="2" fill="none"></circle>
<circle cx="1228.65" cy="1023.55" r="4" stroke="rgb(255,89,0)" stroke-width="2" fill="none"></circle>
<circle cx="6278.12" cy="1350.54" r="4" stroke="rgb(255,89,0)" stroke-width="2" fill="none"></circle>
<circle cx="2273.61" cy="1758.19" r="4" stroke="rgb(250,0,255)" stroke-width="2" fill="none"></circle>
<circle cx="5574.51" cy="1735.57" r="4" stroke="rgb(250,0,255)" stroke-width="2" fill="none"></circle>
<circle cx="2398.51" cy="1133.7" r="4" stroke="rgb(255,208,0)" stroke-width="2" fill="none"></circle>
<circle cx="5906.95" cy="1743.08" r="4" stroke="rgb(255,208,0)" stroke-width="2" fill="none"></circle>
<circle cx="1226.41" cy="1484.5" r="4" stroke="rgb(255,0,148)" stroke-width="2" fill="none"></circle>
<circle cx="4861.07" cy="1486.59" r="4" stroke="rgb(255,0,148)" stroke-width="2" fill="none"></circle>
<circle cx="1636.6" cy="1225.67" r="4" stroke="rgb(255,0,237)" stroke-width="2" fill="none"></circle>
<circle cx="5184.88" cy="1324.42" r="4" stroke="rgb(255,0,237)" stroke-width="2" fill="none"></circle>
<circle cx="970.37" cy="1134.2" r="4" stroke="rgb(0,255,0)" stroke-width="2" fill="none"></circle>
<circle cx="5957.05" cy="1350.44" r="4" stroke="rgb(0,255,0)" stroke-width="2" fill="none"></circle>
<circle cx="962.18" cy="1202.25" r="4" stroke="rgb(182,255,0)" stroke-width="2" fill="none"></circle>
<circle cx="5890.74" cy="1330.34" r="4" stroke="rgb(182,255,0)" stroke-width="2" fill="none"></circle>
<circle cx="962.18" cy="1202.25" r="4" stroke="rgb(0,255,254)" stroke-width="2" fill="none"></circle>
<circle cx="5890.74" cy="1330.34" r="4" stroke="rgb(0,255,254)" stroke-width="2" fill="none"></circle>
<circle cx="2245.78" cy="1075.89" r="4" stroke="rgb(0,76,255)" stroke-width="2" fill="none"></circle>
<circle cx="4939.75" cy="1394.87" r="4" stroke="rgb(0,76,255)" stroke-width="2" fill="none"></circle>
<circle cx="1048.56" cy="1230.9" r="4" stroke="rgb(221,0,255)" stroke-width="2" fill="none"></circle>
<circle cx="5807.59" cy="1412.59" r="4" stroke="rgb(221,0,255)" stroke-width="2" fill="none"></circle>
<circle cx="1073.77" cy="1217.71" r="4" stroke="rgb(148,0,255)" stroke-width="2" fill="none"></circle>
<circle cx="5811.57" cy="1436.41" r="4" stroke="rgb(148,0,255)" stroke-width="2" fill="none"></circle>
<circle cx="1122.23" cy="1245.16" r="4" stroke="rgb(0,255,246)" stroke-width="2" fill="none"></circle>
<circle cx="5769.15" cy="1468.8" r="4" stroke="rgb(0,255,246)" stroke-width="2" fill="none"></circle>
<circle cx="1005.91" cy="1270.08" r="4" stroke="rgb(191,255,0)" stroke-width="2" fill="none"></circle>
<circle cx="5934.86" cy="1275.79" r="4" stroke="rgb(191,255,0)" stroke-width="2" fill="none"></circle>
</svg>