<?xml version="1.0" standalone="yes"?>
<!-- SVG graphic -->
<svg xmlns='http://www.w3.org/2000/svg' xmlns:xlink='http://www.w3.org/1999/xlink'
width="8064px" height="3024px" preserveAspectRatio="xMinYMin meet" viewBox="0 0 8064 3024" version="1.1">
<image x="0" y="0" width="4032px" height="3024px" opacity="1" xlink:href="/home/jeong/Code/2D-to-3D-Modeling-using-AI/Make3D/Image/20200227_180638.jpg"/>
<image x="4032" y="0" width="4032px" height="3024px" opacity="1" xlink:href="/home/jeong/Code/2D-to-3D-Modeling-using-AI/Make3D/Image/20200227_180724.jpg"/>
<polyline points="849.879,1631.95,5647.1,1040.59" stroke="rgb(174,0,255)" stroke-width="2" fill="none"></polyline>
<polyline points="1946.84,1799.23,6811.89,2432.91" stroke="rgb(255,0,127)" stroke-width="2" fill="none"></polyline>
<polyline points="1985.42,1553.79,5847,763.861" stroke="rgb(148,255,0)" stroke-width="2" fill="none"></polyline>
<polyline points="1985.42,1553.79,5824.77,771.186" stroke="rgb(33,255,0)" stroke-width="2" fill="none"></polyline>
<polyline points="2245.01,2391.44,6024.97,893.819" stroke="rgb(29,255,0)" stroke-width="2" fill="none"></polyline>
<polyline points="1759.1,1704.93,6432.95,1514.09" stroke="rgb(255,0,51)" stroke-width="2" fill="none"></polyline>
<polyline points="1699.5,1570.99,5887.21,795.858" stroke="rgb(255,0,106)" stroke-width="2" fill="none"></polyline>
<polyline points="1699.5,1570.99,5887.21,795.858" stroke="rgb(0,157,255)" stroke-width="2" fill="none"></polyline>
<polyline points="563.976,1639.68,6442.52,1533.65" stroke="rgb(255,136,0)" stroke-width="2" fill="none"></polyline>
<polyline points="2245.78,1075.89,5561.74,980.968" stroke="rgb(255,161,0)" stroke-width="2" fill="none"></polyline>
<polyline points="896.531,1674.59,6039.2,1539.29" stroke="rgb(0,255,225)" stroke-width="2" fill="none"></polyline>
<polyline points="1699.5,1570.99,6094.7,1132.03" stroke="rgb(148,255,0)" stroke-width="2" fill="none"></polyline>
<polyline points="1699.5,1570.99,6050.85,1147.29" stroke="rgb(255,165,0)" stroke-width="2" fill="none"></polyline>
<polyline points="1732.41,1824.09,5369.49,867.739" stroke="rgb(0,255,135)" stroke-width="2" fill="none"></polyline>
<polyline points="1721.75,1130.2,6020.78,1171.58" stroke="rgb(0,182,255)" stroke-width="2" fill="none"></polyline>
<polyline points="1096.54,2388.25,5635.59,964.03" stroke="rgb(246,0,255)" stroke-width="2" fill="none"></polyline>
<polyline points="1721.75,1130.2,6020.78,1171.58" stroke="rgb(0,233,255)" stroke-width="2" fill="none"></polyline>
<polyline points="1243.67,1164.05,5482.4,1061.81" stroke="rgb(55,255,0)" stroke-width="2" fill="none"></polyline>
<polyline points="2245.01,2391.44,6183.86,1065.11" stroke="rgb(255,0,140)" stroke-width="2" fill="none"></polyline>
<polyline points="1721.75,1130.2,6020.3,1172.19" stroke="rgb(0,187,255)" stroke-width="2" fill="none"></polyline>
<polyline points="1721.75,1130.2,6020.3,1172.19" stroke="rgb(255,4,0)" stroke-width="2" fill="none"></polyline>
<polyline points="895.969,1472.99,5994.03,1107.98" stroke="rgb(0,174,255)" stroke-width="2" fill="none"></polyline>
<polyline points="2245.01,2391.44,6340,1236.38" stroke="rgb(0,203,255)" stroke-width="2" fill="none"></polyline>
<polyline points="1998.8,1361.67,6254.87,1648.37" stroke="rgb(255,148,0)" stroke-width="2" fill="none"></polyline>
<polyline points="2245.78,1075.89,5560.32,979.587" stroke="rgb(212,0,255)" stroke-width="2" fill="none"></polyline>
<polyline points="1762.08,1840.86,5951.41,989.236" stroke="rgb(148,0,255)" stroke-width="2" fill="none"></polyline>
<polyline points="1304.52,1116.93,6146.81,1291.43" stroke="rgb(255,0,144)" stroke-width="2" fill="none"></polyline>
<polyline points="1703.93,1616.63,6188.76,1202.13" stroke="rgb(255,221,0)" stroke-width="2" fill="none"></polyline>
<polyline points="1699.5,1570.99,6163.57,1373.98" stroke="rgb(255,0,153)" stroke-width="2" fill="none"></polyline>
<polyline points="946.294,1178.18,5953.62,1782.02" stroke="rgb(0,255,72)" stroke-width="2" fill="none"></polyline>
<polyline points="797.545,1756.58,5791.8,1265.16" stroke="rgb(255,0,229)" stroke-width="2" fill="none"></polyline>
<polyline points="1699.5,1570.99,6189.5,1345.3" stroke="rgb(21,0,255)" stroke-width="2" fill="none"></polyline>
<polyline points="2019.99,979.461,7128.68,1353.16" stroke="rgb(255,0,89)" stroke-width="2" fill="none"></polyline>
<polyline points="1137.12,2314.79,6414.85,1329.19" stroke="rgb(102,0,255)" stroke-width="2" fill="none"></polyline>
<polyline points="849.879,1631.95,6122.77,1457.73" stroke="rgb(255,0,12)" stroke-width="2" fill="none"></polyline>
<polyline points="1699.5,1570.99,6371.57,1485.74" stroke="rgb(114,255,0)" stroke-width="2" fill="none"></polyline>
<polyline points="2357.49,1103.52,7206.1,1392.46" stroke="rgb(50,0,255)" stroke-width="2" fill="none"></polyline>
<polyline points="1138.83,2324.65,5816.27,1422.46" stroke="rgb(0,148,255)" stroke-width="2" fill="none"></polyline>
<polyline points="1703.93,1616.63,6352.6,1423.1" stroke="rgb(0,255,203)" stroke-width="2" fill="none"></polyline>
<polyline points="1143.21,2341.74,5819.91,1428.23" stroke="rgb(0,255,152)" stroke-width="2" fill="none"></polyline>
<polyline points="1727.58,1676.36,6408.78,1535.16" stroke="rgb(21,255,0)" stroke-width="2" fill="none"></polyline>
<polyline points="852.345,1140.17,6320.28,2012.58" stroke="rgb(0,114,255)" stroke-width="2" fill="none"></polyline>
<polyline points="789.156,1732.25,5952.83,1566.76" stroke="rgb(4,0,255)" stroke-width="2" fill="none"></polyline>
<polyline points="1330.48,1099.75,7021.23,2222.58" stroke="rgb(255,110,0)" stroke-width="2" fill="none"></polyline>
<polyline points="702.308,1668.15,6007.2,796.961" stroke="rgb(0,12,255)" stroke-width="2" fill="none"></polyline>
<polyline points="1732.41,1824.09,5370.02,868.194" stroke="rgb(174,255,0)" stroke-width="2" fill="none"></polyline>
<polyline points="1096.54,2388.25,6205.69,1694.85" stroke="rgb(255,0,153)" stroke-width="2" fill="none"></polyline>
<polyline points="1683.11,1351.27,5915.88,913.577" stroke="rgb(246,255,0)" stroke-width="2" fill="none"></polyline>
<polyline points="1683.11,1351.27,5915.88,913.577" stroke="rgb(255,246,0)" stroke-width="2" fill="none"></polyline>
<polyline points="1762.08,1840.86,6127.71,1186.05" stroke="rgb(216,0,255)" stroke-width="2" fill="none"></polyline>
<polyline points="2716.89,2208.97,6814.74,1191.7" stroke="rgb(0,255,46)" stroke-width="2" fill="none"></polyline>
<polyline points="2716.89,2208.97,6814.74,1191.7" stroke="rgb(255,250,0)" stroke-width="2" fill="none"></polyline>
<polyline points="1674.96,1647.08,5939.16,965.878" stroke="rgb(255,12,0)" stroke-width="2" fill="none"></polyline>
<polyline points="1248.85,2601.33,7068.49,1206.51" stroke="rgb(255,0,157)" stroke-width="2" fill="none"></polyline>
<polyline points="1683.11,1351.27,6168.32,1216.3" stroke="rgb(255,0,144)" stroke-width="2" fill="none"></polyline>
<polyline points="1683.11,1351.27,6168.32,1216.3" stroke="rgb(0,255,191)" stroke-width="2" fill="none"></polyline>
<polyline points="1113.52,2364.82,6151.5,1639.47" stroke="rgb(42,255,0)" stroke-width="2" fill="none"></polyline>
<polyline points="975.823,1169.62,6062.25,1978.03" stroke="rgb(0,255,186)" stroke-width="2" fill="none"></polyline>
<polyline points="1683.11,1351.27,6347.58,1424.23" stroke="rgb(127,255,0)" stroke-width="2" fill="none"></polyline>
<polyline points="1683.11,1351.27,6347.58,1424.23" stroke="rgb(195,255,0)" stroke-width="2" fill="none"></polyline>
<polyline points="2612.27,2237.55,7147.86,1445.65" stroke="rgb(255,0,250)" stroke-width="2" fill="none"></polyline>
<polyline points="572.32,1258.28,6660.03,2052.73" stroke="rgb(255,153,0)" stroke-width="2" fill="none"></polyline>
<polyline points="1671.94,986.565,6626.4,1049.58" stroke="rgb(255,0,169)" stroke-width="2" fill="none"></polyline>
<circle cx="849.879" cy="1631.95" r="4" stroke="rgb(174,0,255)" stroke-width="2" fill="none"></circle>
<circle cx="5647.1" cy="1040.59" r="4" stroke="rgb(174,0,255)" stroke-width="2" fill="none"></circle>
<circle cx="1946.84" cy="1799.23" r="4" stroke="rgb(255,0,127)" stroke-width="2" fill="none"></circle>
<circle cx="6811.89" cy="2432.91" r="4" stroke="rgb(255,0,127)" stroke-width="2" fill="none"></circle>
<circle cx="1985.42" cy="1553.79" r="4" stroke="rgb(148,255,0)" stroke-width="2" fill="none"></circle>
<circle cx="5847" cy="763.861" r="4" stroke="rgb(148,255,0)" stroke-width="2" fill="none"></circle>
<circle cx="1985.42" cy="1553.79" r="4" stroke="rgb(33,255,0)" stroke-width="2" fill="none"></circle>
<circle cx="5824.77" cy="771.186" r="4" stroke="rgb(33,255,0)" stroke-width="2" fill="none"></circle>
<circle cx="2245.01" cy="2391.44" r="4" stroke="rgb(29,255,0)" stroke-width="2" fill="none"></circle>
<circle cx="6024.97" cy="893.819" r="4" stroke="rgb(29,255,0)" stroke-width="2" fill="none"></circle>
<circle cx="1759.1" cy="1704.93" r="4" stroke="rgb(255,0,51)" stroke-width="2" fill="none"></circle>
<circle cx="6432.95" cy="1514.09" r="4" stroke="rgb(255,0,51)" stroke-width="2" fill="none"></circle>
<circle cx="1699.5" cy="1570.99" r="4" stroke="rgb(255,0,106)" stroke-width="2" fill="none"></circle>
<circle cx="5887.21" cy="795.858" r="4" stroke="rgb(255,0,106)" stroke-width="2" fill="none"></circle>
<circle cx="1699.5" cy="1570.99" r="4" stroke="rgb(0,157,255)" stroke-width="2" fill="none"></circle>
<circle cx="5887.21" cy="795.858" r="4" stroke="rgb(0,157,255)" stroke-width="2" fill="none"></circle>
<circle cx="563.976" cy="1639.68" r="4" stroke="rgb(255,136,0)" stroke-width="2" fill="none"></circle>
<circle cx="6442.52" cy="1533.65" r="4" stroke="rgb(255,136,0)" stroke-width="2" fill="none"></circle>
<circle cx="2245.78" cy="1075.89" r="4" stroke="rgb(255,161,0)" stroke-width="2" fill="none"></circle>
<circle cx="5561.74" cy="980.968" r="4" stroke="rgb(255,161,0)" stroke-width="2" fill="none"></circle>
<circle cx="896.531" cy="1674.59" r="4" stroke="rgb(0,255,225)" stroke-width="2" fill="none"></circle>
<circle cx="6039.2" cy="1539.29" r="4" stroke="rgb(0,255,225)" stroke-width="2" fill="none"></circle>
<circle cx="1699.5" cy="1570.99" r="4" stroke="rgb(148,255,0)" stroke-width="2" fill="none"></circle>
<circle cx="6094.7" cy="1132.03" r="4" stroke="rgb(148,255,0)" stroke-width="2" fill="none"></circle>
<circle cx="1699.5" cy="1570.99" r="4" stroke="rgb(255,165,0)" stroke-width="2" fill="none"></circle>
<circle cx="6050.85" cy="1147.29" r="4" stroke="rgb(255,165,0)" stroke-width="2" fill="none"></circle>
<circle cx="1732.41" cy="1824.09" r="4" stroke="rgb(0,255,135)" stroke-width="2" fill="none"></circle>
<circle cx="5369.49" cy="867.739" r="4" stroke="rgb(0,255,135)" stroke-width="2" fill="none"></circle>
<circle cx="1721.75" cy="1130.2" r="4" stroke="rgb(0,182,255)" stroke-width="2" fill="none"></circle>
<circle cx="6020.78" cy="1171.58" r="4" stroke="rgb(0,182,255)" stroke-width="2" fill="none"></circle>
<circle cx="1096.54" cy="2388.25" r="4" stroke="rgb(246,0,255)" stroke-width="2" fill="none"></circle>
<circle cx="5635.59" cy="964.03" r="4" stroke="rgb(246,0,255)" stroke-width="2" fill="none"></circle>
<circle cx="1721.75" cy="1130.2" r="4" stroke="rgb(0,233,255)" stroke-width="2" fill="none"></circle>
<circle cx="6020.78" cy="1171.58" r="4" stroke="rgb(0,233,255)" stroke-width="2" fill="none"></circle>
<circle cx="1243.67" cy="1164.05" r="4" stroke="rgb(55,255,0)" stroke-width="2" fill="none"></circle>
<circle cx="5482.4" cy="1061.81" r="4" stroke="rgb(55,255,0)" stroke-width="2" fill="none"></circle>
<circle cx="2245.01" cy="2391.44" r="4" stroke="rgb(255,0,140)" stroke-width="2" fill="none"></circle>
<circle cx="6183.86" cy="1065.11" r="4" stroke="rgb(255,0,140)" stroke-width="2" fill="none"></circle>
<circle cx="1721.75" cy="1130.2" r="4" stroke="rgb(0,187,255)" stroke-width="2" fill="none"></circle>
<circle cx="6020.3" cy="1172.19" r="4" stroke="rgb(0,187,255)" stroke-width="2" fill="none"></circle>
<circle cx="1721.75" cy="1130.2" r="4" stroke="rgb(255,4,0)" stroke-width="2" fill="none"></circle>
<circle cx="6020.3" cy="1172.19" r="4" stroke="rgb(255,4,0)" stroke-width="2" fill="none"></circle>
<circle cx="895.969" cy="1472.99" r="4" stroke="rgb(0,174,255)" stroke-width="2" fill="none"></circle>
<circle cx="5994.03" cy="1107.98" r="4" stroke="rgb(0,174,255)" stroke-width="2" fill="none"></circle>
<circle cx="2245.01" cy="2391.44" r="4" stroke="rgb(0,203,255)" stroke-width="2" fill="none"></circle>
<circle cx="6340" cy="1236.38" r="4" stroke="rgb(0,203,255)" stroke-width="2" fill="none"></circle>
<circle cx="1998.8" cy="1361.67" r="4" stroke="rgb(255,148,0)" stroke-width="2" fill="none"></circle>
<circle cx="6254.87" cy="1648.37" r="4" stroke="rgb(255,148,0)" stroke-width="2" fill="none"></circle>
<circle cx="2245.78" cy="1075.89" r="4" stroke="rgb(212,0,255)" stroke-width="2" fill="none"></circle>
<circle cx="5560.32" cy="979.587" r="4" stroke="rgb(212,0,255)" stroke-width="2" fill="none"></circle>
<circle cx="1762.08" cy="1840.86" r="4" stroke="rgb(148,0,255)" stroke-width="2" fill="none"></circle>
<circle cx="5951.41" cy="989.236" r="4" stroke="rgb(148,0,255)" stroke-width="2" fill="none"></circle>
<circle cx="1304.52" cy="1116.93" r="4" stroke="rgb(255,0,144)" stroke-width="2" fill="none"></circle>
<circle cx="6146.81" cy="1291.43" r="4" stroke="rgb(255,0,144)" stroke-width="2" fill="none"></circle>
<circle cx="1703.93" cy="1616.63" r="4" stroke="rgb(255,221,0)" stroke-width="2" fill="none"></circle>
<circle cx="6188.76" cy="1202.13" r="4" stroke="rgb(255,221,0)" stroke-width="2" fill="none"></circle>
<circle cx="1699.5" cy="1570.99" r="4" stroke="rgb(255,0,153)" stroke-width="2" fill="none"></circle>
<circle cx="6163.57" cy="1373.98" r="4" stroke="rgb(255,0,153)" stroke-width="2" fill="none"></circle>
<circle cx="946.294" cy="1178.18" r="4" stroke="rgb(0,255,72)" stroke-width="2" fill="none"></circle>
<circle cx="5953.62" cy="1782.02" r="4" stroke="rgb(0,255,72)" stroke-width="2" fill="none"></circle>
<circle cx="797.545" cy="1756.58" r="4" stroke="rgb(255,0,229)" stroke-width="2" fill="none"></circle>
<circle cx="5791.8" cy="1265.16" r="4" stroke="rgb(255,0,229)" stroke-width="2" fill="none"></circle>
<circle cx="1699.5" cy="1570.99" r="4" stroke="rgb(21,0,255)" stroke-width="2" fill="none"></circle>
<circle cx="6189.5" cy="1345.3" r="4" stroke="rgb(21,0,255)" stroke-width="2" fill="none"></circle>
<circle cx="2019.99" cy="979.461" r="4" stroke="rgb(255,0,89)" stroke-width="2" fill="none"></circle>
<circle cx="7128.68" cy="1353.16" r="4" stroke="rgb(255,0,89)" stroke-width="2" fill="none"></circle>
<circle cx="1137.12" cy="2314.79" r="4" stroke="rgb(102,0,255)" stroke-width="2" fill="none"></circle>
<circle cx="6414.85" cy="1329.19" r="4" stroke="rgb(102,0,255)" stroke-width="2" fill="none"></circle>
<circle cx="849.879" cy="1631.95" r="4" stroke="rgb(255,0,12)" stroke-width="2" fill="none"></circle>
<circle cx="6122.77" cy="1457.73" r="4" stroke="rgb(255,0,12)" stroke-width="2" fill="none"></circle>
<circle cx="1699.5" cy="1570.99" r="4" stroke="rgb(114,255,0)" stroke-width="2" fill="none"></circle>
<circle cx="6371.57" cy="1485.74" r="4" stroke="rgb(114,255,0)" stroke-width="2" fill="none"></circle>
<circle cx="2357.49" cy="1103.52" r="4" stroke="rgb(50,0,255)" stroke-width="2" fill="none"></circle>
<circle cx="7206.1" cy="1392.46" r="4" stroke="rgb(50,0,255)" stroke-width="2" fill="none"></circle>
<circle cx="1138.83" cy="2324.65" r="4" stroke="rgb(0,148,255)" stroke-width="2" fill="none"></circle>
<circle cx="5816.27" cy="1422.46" r="4" stroke="rgb(0,148,255)" stroke-width="2" fill="none"></circle>
<circle cx="1703.93" cy="1616.63" r="4" stroke="rgb(0,255,203)" stroke-width="2" fill="none"></circle>
<circle cx="6352.6" cy="1423.1" r="4" stroke="rgb(0,255,203)" stroke-width="2" fill="none"></circle>
<circle cx="1143.21" cy="2341.74" r="4" stroke="rgb(0,255,152)" stroke-width="2" fill="none"></circle>
<circle cx="5819.91" cy="1428.23" r="4" stroke="rgb(0,255,152)" stroke-width="2" fill="none"></circle>
<circle cx="1727.58" cy="1676.36" r="4" stroke="rgb(21,255,0)" stroke-width="2" fill="none"></circle>
<circle cx="6408.78" cy="1535.16" r="4" stroke="rgb(21,255,0)" stroke-width="2" fill="none"></circle>
<circle cx="852.345" cy="1140.17" r="4" stroke="rgb(0,114,255)" stroke-width="2" fill="none"></circle>
<circle cx="6320.28" cy="2012.58" r="4" stroke="rgb(0,114,255)" stroke-width="2" fill="none"></circle>
<circle cx="789.156" cy="1732.25" r="4" stroke="rgb(4,0,255)" stroke-width="2" fill="none"></circle>
<circle cx="5952.83" cy="1566.76" r="4" stroke="rgb(4,0,255)" stroke-width="2" fill="none"></circle>
<circle cx="1330.48" cy="1099.75" r="4" stroke="rgb(255,110,0)" stroke-width="2" fill="none"></circle>
<circle cx="7021.23" cy="2222.58" r="4" stroke="rgb(255,110,0)" stroke-width="2" fill="none"></circle>
<circle cx="702.308" cy="1668.15" r="4" stroke="rgb(0,12,255)" stroke-width="2" fill="none"></circle>
<circle cx="6007.2" cy="796.961" r="4" stroke="rgb(0,12,255)" stroke-width="2" fill="none"></circle>
<circle cx="1732.41" cy="1824.09" r="4" stroke="rgb(174,255,0)" stroke-width="2" fill="none"></circle>
<circle cx="5370.02" cy="868.194" r="4" stroke="rgb(174,255,0)" stroke-width="2" fill="none"></circle>
<circle cx="1096.54" cy="2388.25" r="4" stroke="rgb(255,0,153)" stroke-width="2" fill="none"></circle>
<circle cx="6205.69" cy="1694.85" r="4" stroke="rgb(255,0,153)" stroke-width="2" fill="none"></circle>
<circle cx="1683.11" cy="1351.27" r="4" stroke="rgb(246,255,0)" stroke-width="2" fill="none"></circle>
<circle cx="5915.88" cy="913.577" r="4" stroke="rgb(246,255,0)" stroke-width="2" fill="none"></circle>
<circle cx="1683.11" cy="1351.27" r="4" stroke="rgb(255,246,0)" stroke-width="2" fill="none"></circle>
<circle cx="5915.88" cy="913.577" r="4" stroke="rgb(255,246,0)" stroke-width="2" fill="none"></circle>
<circle cx="1762.08" cy="1840.86" r="4" stroke="rgb(216,0,255)" stroke-width="2" fill="none"></circle>
<circle cx="6127.71" cy="1186.05" r="4" stroke="rgb(216,0,255)" stroke-width="2" fill="none"></circle>
<circle cx="2716.89" cy="2208.97" r="4" stroke="rgb(0,255,46)" stroke-width="2" fill="none"></circle>
<circle cx="6814.74" cy="1191.7" r="4" stroke="rgb(0,255,46)" stroke-width="2" fill="none"></circle>
<circle cx="2716.89" cy="2208.97" r="4" stroke="rgb(255,250,0)" stroke-width="2" fill="none"></circle>
<circle cx="6814.74" cy="1191.7" r="4" stroke="rgb(255,250,0)" stroke-width="2" fill="none"></circle>
<circle cx="1674.96" cy="1647.08" r="4" stroke="rgb(255,12,0)" stroke-width="2" fill="none"></circle>
<circle cx="5939.16" cy="965.878" r="4" stroke="rgb(255,12,0)" stroke-width="2" fill="none"></circle>
<circle cx="1248.85" cy="2601.33" r="4" stroke="rgb(255,0,157)" stroke-width="2" fill="none"></circle>
<circle cx="7068.49" cy="1206.51" r="4" stroke="rgb(255,0,157)" stroke-width="2" fill="none"></circle>
<circle cx="1683.11" cy="1351.27" r="4" stroke="rgb(255,0,144)" stroke-width="2" fill="none"></circle>
<circle cx="6168.32" cy="1216.3" r="4" stroke="rgb(255,0,144)" stroke-width="2" fill="none"></circle>
<circle cx="1683.11" cy="1351.27" r="4" stroke="rgb(0,255,191)" stroke-width="2" fill="none"></circle>
<circle cx="6168.32" cy="1216.3" r="4" stroke="rgb(0,255,191)" stroke-width="2" fill="none"></circle>
<circle cx="1113.52" cy="2364.82" r="4" stroke="rgb(42,255,0)" stroke-width="2" fill="none"></circle>
<circle cx="6151.5" cy="1639.47" r="4" stroke="rgb(42,255,0)" stroke-width="2" fill="none"></circle>
<circle cx="975.823" cy="1169.62" r="4" stroke="rgb(0,255,186)" stroke-width="2" fill="none"></circle>
<circle cx="6062.25" cy="1978.03" r="4" stroke="rgb(0,255,186)" stroke-width="2" fill="none"></circle>
<circle cx="1683.11" cy="1351.27" r="4" stroke="rgb(127,255,0)" stroke-width="2" fill="none"></circle>
<circle cx="6347.58" cy="1424.23" r="4" stroke="rgb(127,255,0)" stroke-width="2" fill="none"></circle>
<circle cx="1683.11" cy="1351.27" r="4" stroke="rgb(195,255,0)" stroke-width="2" fill="none"></circle>
<circle cx="6347.58" cy="1424.23" r="4" stroke="rgb(195,255,0)" stroke-width="2" fill="none"></circle>
<circle cx="2612.27" cy="2237.55" r="4" stroke="rgb(255,0,250)" stroke-width="2" fill="none"></circle>
<circle cx="7147.86" cy="1445.65" r="4" stroke="rgb(255,0,250)" stroke-width="2" fill="none"></circle>
<circle cx="572.32" cy="1258.28" r="4" stroke="rgb(255,153,0)" stroke-width="2" fill="none"></circle>
<circle cx="6660.03" cy="2052.73" r="4" stroke="rgb(255,153,0)" stroke-width="2" fill="none"></circle>
<circle cx="1671.94" cy="986.565" r="4" stroke="rgb(255,0,169)" stroke-width="2" fill="none"></circle>
<circle cx="6626.4" cy="1049.58" r="4" stroke="rgb(255,0,169)" stroke-width="2" fill="none"></circle>
</svg>