<?xml version="1.0" standalone="yes"?>
<!-- SVG graphic -->
<svg xmlns='http://www.w3.org/2000/svg' xmlns:xlink='http://www.w3.org/1999/xlink'
width="8064px" height="3024px" preserveAspectRatio="xMinYMin meet" viewBox="0 0 8064 3024" version="1.1">
<image x="0" y="0" width="4032px" height="3024px" opacity="1" xlink:href="/home/jeong/Code/2D-to-3D-Modeling-using-AI/Make3D/Image/20200227_180638.jpg"/>
<image x="4032" y="0" width="4032px" height="3024px" opacity="1" xlink:href="/home/jeong/Code/2D-to-3D-Modeling-using-AI/Make3D/Image/20200227_180731.jpg"/>
<polyline points="844.364,1526.8,5924.99,2725.35" stroke="rgb(0,255,21)" stroke-width="2" fill="none"></polyline>
<polyline points="2309.16,2341.64,6024.24,608.398" stroke="rgb(255,29,0)" stroke-width="2" fill="none"></polyline>
<polyline points="2245.01,2391.44,5661.95,586.571" stroke="rgb(0,250,255)" stroke-width="2" fill="none"></polyline>
<polyline points="921.316,1188.82,5941.09,1883.49" stroke="rgb(140,255,0)" stroke-width="2" fill="none"></polyline>
<polyline points="1728.88,1827.44,6012.1,735.82" stroke="rgb(255,0,59)" stroke-width="2" fill="none"></polyline>
<polyline points="758.39,1622.16,6150.83,1929.13" stroke="rgb(255,233,0)" stroke-width="2" fill="none"></polyline>
<polyline points="758.39,1622.16,5880.47,794.24" stroke="rgb(255,0,12)" stroke-width="2" fill="none"></polyline>
<polyline points="2671.34,2266.3,6620.94,1123.7" stroke="rgb(21,0,255)" stroke-width="2" fill="none"></polyline>
<polyline points="2154.94,2423.78,5503.46,1185.26" stroke="rgb(0,4,255)" stroke-width="2" fill="none"></polyline>
<polyline points="1494.6,1372.79,6815.95,2030" stroke="rgb(0,80,255)" stroke-width="2" fill="none"></polyline>
<polyline points="2259.43,2363.81,6348.13,2074.48" stroke="rgb(255,191,0)" stroke-width="2" fill="none"></polyline>
<polyline points="2198.48,2398.07,6298.91,2085.13" stroke="rgb(0,157,255)" stroke-width="2" fill="none"></polyline>
<polyline points="1358.46,2338.69,5653.44,1256.87" stroke="rgb(101,255,0)" stroke-width="2" fill="none"></polyline>
<polyline points="887.901,1178.71,5876.02,2113.33" stroke="rgb(255,191,0)" stroke-width="2" fill="none"></polyline>
<polyline points="549.542,1317.09,6455.99,2191.6" stroke="rgb(51,255,0)" stroke-width="2" fill="none"></polyline>
<polyline points="1636.89,1674.3,6637.87,2254.77" stroke="rgb(0,255,21)" stroke-width="2" fill="none"></polyline>
<polyline points="1512.75,2740.64,5490.29,979.163" stroke="rgb(0,255,16)" stroke-width="2" fill="none"></polyline>
<polyline points="2245.78,1075.89,5732.86,991.805" stroke="rgb(8,0,255)" stroke-width="2" fill="none"></polyline>
<polyline points="586.882,2049.22,6537.3,2388.18" stroke="rgb(255,21,0)" stroke-width="2" fill="none"></polyline>
<polyline points="1512.75,2740.64,5518.39,997.223" stroke="rgb(255,187,0)" stroke-width="2" fill="none"></polyline>
<polyline points="1512.75,2740.64,5518.39,997.223" stroke="rgb(0,255,165)" stroke-width="2" fill="none"></polyline>
<polyline points="2309.16,2341.64,6736.08,1007.78" stroke="rgb(255,131,0)" stroke-width="2" fill="none"></polyline>
<polyline points="1759.1,1704.93,6252.09,1404.83" stroke="rgb(255,0,127)" stroke-width="2" fill="none"></polyline>
<polyline points="2521.43,2301.08,6626.89,1434.57" stroke="rgb(0,144,255)" stroke-width="2" fill="none"></polyline>
<polyline points="2360.75,1088.34,6775.22,1122.58" stroke="rgb(0,0,255)" stroke-width="2" fill="none"></polyline>
<polyline points="1680.25,1666.46,6101.52,959.055" stroke="rgb(169,255,0)" stroke-width="2" fill="none"></polyline>
<polyline points="1680.25,1666.46,6101.52,959.055" stroke="rgb(195,255,0)" stroke-width="2" fill="none"></polyline>
<polyline points="1721.75,1130.2,6092.5,1209.06" stroke="rgb(0,89,255)" stroke-width="2" fill="none"></polyline>
<polyline points="1510.44,1563.58,5672.77,1338.97" stroke="rgb(255,0,212)" stroke-width="2" fill="none"></polyline>
<polyline points="1207.91,1926.96,6539.87,1353.65" stroke="rgb(101,255,0)" stroke-width="2" fill="none"></polyline>
<polyline points="1699.5,1570.99,6072.48,1201.79" stroke="rgb(0,255,106)" stroke-width="2" fill="none"></polyline>
<polyline points="1721.75,1130.2,6092.12,1209.19" stroke="rgb(255,0,225)" stroke-width="2" fill="none"></polyline>
<polyline points="1949.55,1734.92,5908.58,1727.02" stroke="rgb(72,255,0)" stroke-width="2" fill="none"></polyline>
<polyline points="1949.55,1734.92,5866.4,1728.92" stroke="rgb(255,0,144)" stroke-width="2" fill="none"></polyline>
<polyline points="1397.18,1304.64,5918.69,1773.28" stroke="rgb(255,144,0)" stroke-width="2" fill="none"></polyline>
<polyline points="1429.43,1498.51,5736.02,1392.51" stroke="rgb(255,0,161)" stroke-width="2" fill="none"></polyline>
<polyline points="1699.5,1570.99,6286.52,1486.79" stroke="rgb(59,0,255)" stroke-width="2" fill="none"></polyline>
<polyline points="1699.5,1570.99,6286.52,1486.79" stroke="rgb(255,136,0)" stroke-width="2" fill="none"></polyline>
<polyline points="1767.9,1757.86,6225.54,1489.3" stroke="rgb(0,140,255)" stroke-width="2" fill="none"></polyline>
<polyline points="1721.75,1130.2,6305.94,1490.43" stroke="rgb(0,255,55)" stroke-width="2" fill="none"></polyline>
<polyline points="1699.5,1570.99,6261.84,1544.19" stroke="rgb(0,255,21)" stroke-width="2" fill="none"></polyline>
<polyline points="1699.5,1570.99,6261.84,1544.19" stroke="rgb(0,255,16)" stroke-width="2" fill="none"></polyline>
<polyline points="1674.96,1647.08,6370.21,1672.84" stroke="rgb(0,135,255)" stroke-width="2" fill="none"></polyline>
<polyline points="1674.96,1647.08,6370.21,1672.84" stroke="rgb(0,80,255)" stroke-width="2" fill="none"></polyline>
<polyline points="975.823,1169.62,5903.59,1917.69" stroke="rgb(0,255,208)" stroke-width="2" fill="none"></polyline>
<polyline points="1728.58,1835.16,5577.3,641.72" stroke="rgb(255,0,187)" stroke-width="2" fill="none"></polyline>
<polyline points="1113.52,2364.82,5808.66,823.453" stroke="rgb(0,93,255)" stroke-width="2" fill="none"></polyline>
<polyline points="975.823,1169.62,5880.86,2000.89" stroke="rgb(229,0,255)" stroke-width="2" fill="none"></polyline>
<polyline points="1304.52,1116.93,6185.22,1103.9" stroke="rgb(212,255,0)" stroke-width="2" fill="none"></polyline>
<polyline points="1683.11,1351.27,6061.34,915.714" stroke="rgb(106,255,0)" stroke-width="2" fill="none"></polyline>
<polyline points="1683.11,1351.27,6061.34,915.714" stroke="rgb(255,0,93)" stroke-width="2" fill="none"></polyline>
<polyline points="1683.11,1351.27,6220.1,1301.98" stroke="rgb(0,46,255)" stroke-width="2" fill="none"></polyline>
<polyline points="1683.11,1351.27,6220.1,1301.98" stroke="rgb(0,255,25)" stroke-width="2" fill="none"></polyline>
<polyline points="1636.89,1674.3,6643.83,2248.05" stroke="rgb(255,0,221)" stroke-width="2" fill="none"></polyline>
<polyline points="1683.11,1351.27,6320.94,1541.13" stroke="rgb(255,0,221)" stroke-width="2" fill="none"></polyline>
<polyline points="789.156,1732.25,5877.99,1604.13" stroke="rgb(0,8,255)" stroke-width="2" fill="none"></polyline>
<polyline points="1699.5,1570.99,6332.37,1613.14" stroke="rgb(85,0,255)" stroke-width="2" fill="none"></polyline>
<polyline points="1699.5,1570.99,6332.37,1613.14" stroke="rgb(255,93,0)" stroke-width="2" fill="none"></polyline>
<polyline points="1113.52,2364.82,6104.54,1706.35" stroke="rgb(93,255,0)" stroke-width="2" fill="none"></polyline>
<polyline points="921.041,1263.56,5830.18,1751.89" stroke="rgb(0,127,255)" stroke-width="2" fill="none"></polyline>
<polyline points="1341.88,1263.95,6148.83,1763.44" stroke="rgb(8,255,0)" stroke-width="2" fill="none"></polyline>
<polyline points="1004.2,1293.46,5865.53,2030.8" stroke="rgb(21,255,0)" stroke-width="2" fill="none"></polyline>
<polyline points="558.851,1282.78,6471.81,2198.12" stroke="rgb(0,255,161)" stroke-width="2" fill="none"></polyline>
<polyline points="572.32,1258.28,6448.29,2205.97" stroke="rgb(110,255,0)" stroke-width="2" fill="none"></polyline>
<polyline points="572.32,1258.28,6448.29,2205.97" stroke="rgb(255,0,199)" stroke-width="2" fill="none"></polyline>
<polyline points="2673.51,2332.74,6525.34,1137.76" stroke="rgb(237,255,0)" stroke-width="2" fill="none"></polyline>
<circle cx="844.364" cy="1526.8" r="4" stroke="rgb(0,255,21)" stroke-width="2" fill="none"></circle>
<circle cx="5924.99" cy="2725.35" r="4" stroke="rgb(0,255,21)" stroke-width="2" fill="none"></circle>
<circle cx="2309.16" cy="2341.64" r="4" stroke="rgb(255,29,0)" stroke-width="2" fill="none"></circle>
<circle cx="6024.24" cy="608.398" r="4" stroke="rgb(255,29,0)" stroke-width="2" fill="none"></circle>
<circle cx="2245.01" cy="2391.44" r="4" stroke="rgb(0,250,255)" stroke-width="2" fill="none"></circle>
<circle cx="5661.95" cy="586.571" r="4" stroke="rgb(0,250,255)" stroke-width="2" fill="none"></circle>
<circle cx="921.316" cy="1188.82" r="4" stroke="rgb(140,255,0)" stroke-width="2" fill="none"></circle>
<circle cx="5941.09" cy="1883.49" r="4" stroke="rgb(140,255,0)" stroke-width="2" fill="none"></circle>
<circle cx="1728.88" cy="1827.44" r="4" stroke="rgb(255,0,59)" stroke-width="2" fill="none"></circle>
<circle cx="6012.1" cy="735.82" r="4" stroke="rgb(255,0,59)" stroke-width="2" fill="none"></circle>
<circle cx="758.39" cy="1622.16" r="4" stroke="rgb(255,233,0)" stroke-width="2" fill="none"></circle>
<circle cx="6150.83" cy="1929.13" r="4" stroke="rgb(255,233,0)" stroke-width="2" fill="none"></circle>
<circle cx="758.39" cy="1622.16" r="4" stroke="rgb(255,0,12)" stroke-width="2" fill="none"></circle>
<circle cx="5880.47" cy="794.24" r="4" stroke="rgb(255,0,12)" stroke-width="2" fill="none"></circle>
<circle cx="2671.34" cy="2266.3" r="4" stroke="rgb(21,0,255)" stroke-width="2" fill="none"></circle>
<circle cx="6620.94" cy="1123.7" r="4" stroke="rgb(21,0,255)" stroke-width="2" fill="none"></circle>
<circle cx="2154.94" cy="2423.78" r="4" stroke="rgb(0,4,255)" stroke-width="2" fill="none"></circle>
<circle cx="5503.46" cy="1185.26" r="4" stroke="rgb(0,4,255)" stroke-width="2" fill="none"></circle>
<circle cx="1494.6" cy="1372.79" r="4" stroke="rgb(0,80,255)" stroke-width="2" fill="none"></circle>
<circle cx="6815.95" cy="2030" r="4" stroke="rgb(0,80,255)" stroke-width="2" fill="none"></circle>
<circle cx="2259.43" cy="2363.81" r="4" stroke="rgb(255,191,0)" stroke-width="2" fill="none"></circle>
<circle cx="6348.13" cy="2074.48" r="4" stroke="rgb(255,191,0)" stroke-width="2" fill="none"></circle>
<circle cx="2198.48" cy="2398.07" r="4" stroke="rgb(0,157,255)" stroke-width="2" fill="none"></circle>
<circle cx="6298.91" cy="2085.13" r="4" stroke="rgb(0,157,255)" stroke-width="2" fill="none"></circle>
<circle cx="1358.46" cy="2338.69" r="4" stroke="rgb(101,255,0)" stroke-width="2" fill="none"></circle>
<circle cx="5653.44" cy="1256.87" r="4" stroke="rgb(101,255,0)" stroke-width="2" fill="none"></circle>
<circle cx="887.901" cy="1178.71" r="4" stroke="rgb(255,191,0)" stroke-width="2" fill="none"></circle>
<circle cx="5876.02" cy="2113.33" r="4" stroke="rgb(255,191,0)" stroke-width="2" fill="none"></circle>
<circle cx="549.542" cy="1317.09" r="4" stroke="rgb(51,255,0)" stroke-width="2" fill="none"></circle>
<circle cx="6455.99" cy="2191.6" r="4" stroke="rgb(51,255,0)" stroke-width="2" fill="none"></circle>
<circle cx="1636.89" cy="1674.3" r="4" stroke="rgb(0,255,21)" stroke-width="2" fill="none"></circle>
<circle cx="6637.87" cy="2254.77" r="4" stroke="rgb(0,255,21)" stroke-width="2" fill="none"></circle>
<circle cx="1512.75" cy="2740.64" r="4" stroke="rgb(0,255,16)" stroke-width="2" fill="none"></circle>
<circle cx="5490.29" cy="979.163" r="4" stroke="rgb(0,255,16)" stroke-width="2" fill="none"></circle>
<circle cx="2245.78" cy="1075.89" r="4" stroke="rgb(8,0,255)" stroke-width="2" fill="none"></circle>
<circle cx="5732.86" cy="991.805" r="4" stroke="rgb(8,0,255)" stroke-width="2" fill="none"></circle>
<circle cx="586.882" cy="2049.22" r="4" stroke="rgb(255,21,0)" stroke-width="2" fill="none"></circle>
<circle cx="6537.3" cy="2388.18" r="4" stroke="rgb(255,21,0)" stroke-width="2" fill="none"></circle>
<circle cx="1512.75" cy="2740.64" r="4" stroke="rgb(255,187,0)" stroke-width="2" fill="none"></circle>
<circle cx="5518.39" cy="997.223" r="4" stroke="rgb(255,187,0)" stroke-width="2" fill="none"></circle>
<circle cx="1512.75" cy="2740.64" r="4" stroke="rgb(0,255,165)" stroke-width="2" fill="none"></circle>
<circle cx="5518.39" cy="997.223" r="4" stroke="rgb(0,255,165)" stroke-width="2" fill="none"></circle>
<circle cx="2309.16" cy="2341.64" r="4" stroke="rgb(255,131,0)" stroke-width="2" fill="none"></circle>
<circle cx="6736.08" cy="1007.78" r="4" stroke="rgb(255,131,0)" stroke-width="2" fill="none"></circle>
<circle cx="1759.1" cy="1704.93" r="4" stroke="rgb(255,0,127)" stroke-width="2" fill="none"></circle>
<circle cx="6252.09" cy="1404.83" r="4" stroke="rgb(255,0,127)" stroke-width="2" fill="none"></circle>
<circle cx="2521.43" cy="2301.08" r="4" stroke="rgb(0,144,255)" stroke-width="2" fill="none"></circle>
<circle cx="6626.89" cy="1434.57" r="4" stroke="rgb(0,144,255)" stroke-width="2" fill="none"></circle>
<circle cx="2360.75" cy="1088.34" r="4" stroke="rgb(0,0,255)" stroke-width="2" fill="none"></circle>
<circle cx="6775.22" cy="1122.58" r="4" stroke="rgb(0,0,255)" stroke-width="2" fill="none"></circle>
<circle cx="1680.25" cy="1666.46" r="4" stroke="rgb(169,255,0)" stroke-width="2" fill="none"></circle>
<circle cx="6101.52" cy="959.055" r="4" stroke="rgb(169,255,0)" stroke-width="2" fill="none"></circle>
<circle cx="1680.25" cy="1666.46" r="4" stroke="rgb(195,255,0)" stroke-width="2" fill="none"></circle>
<circle cx="6101.52" cy="959.055" r="4" stroke="rgb(195,255,0)" stroke-width="2" fill="none"></circle>
<circle cx="1721.75" cy="1130.2" r="4" stroke="rgb(0,89,255)" stroke-width="2" fill="none"></circle>
<circle cx="6092.5" cy="1209.06" r="4" stroke="rgb(0,89,255)" stroke-width="2" fill="none"></circle>
<circle cx="1510.44" cy="1563.58" r="4" stroke="rgb(255,0,212)" stroke-width="2" fill="none"></circle>
<circle cx="5672.77" cy="1338.97" r="4" stroke="rgb(255,0,212)" stroke-width="2" fill="none"></circle>
<circle cx="1207.91" cy="1926.96" r="4" stroke="rgb(101,255,0)" stroke-width="2" fill="none"></circle>
<circle cx="6539.87" cy="1353.65" r="4" stroke="rgb(101,255,0)" stroke-width="2" fill="none"></circle>
<circle cx="1699.5" cy="1570.99" r="4" stroke="rgb(0,255,106)" stroke-width="2" fill="none"></circle>
<circle cx="6072.48" cy="1201.79" r="4" stroke="rgb(0,255,106)" stroke-width="2" fill="none"></circle>
<circle cx="1721.75" cy="1130.2" r="4" stroke="rgb(255,0,225)" stroke-width="2" fill="none"></circle>
<circle cx="6092.12" cy="1209.19" r="4" stroke="rgb(255,0,225)" stroke-width="2" fill="none"></circle>
<circle cx="1949.55" cy="1734.92" r="4" stroke="rgb(72,255,0)" stroke-width="2" fill="none"></circle>
<circle cx="5908.58" cy="1727.02" r="4" stroke="rgb(72,255,0)" stroke-width="2" fill="none"></circle>
<circle cx="1949.55" cy="1734.92" r="4" stroke="rgb(255,0,144)" stroke-width="2" fill="none"></circle>
<circle cx="5866.4" cy="1728.92" r="4" stroke="rgb(255,0,144)" stroke-width="2" fill="none"></circle>
<circle cx="1397.18" cy="1304.64" r="4" stroke="rgb(255,144,0)" stroke-width="2" fill="none"></circle>
<circle cx="5918.69" cy="1773.28" r="4" stroke="rgb(255,144,0)" stroke-width="2" fill="none"></circle>
<circle cx="1429.43" cy="1498.51" r="4" stroke="rgb(255,0,161)" stroke-width="2" fill="none"></circle>
<circle cx="5736.02" cy="1392.51" r="4" stroke="rgb(255,0,161)" stroke-width="2" fill="none"></circle>
<circle cx="1699.5" cy="1570.99" r="4" stroke="rgb(59,0,255)" stroke-width="2" fill="none"></circle>
<circle cx="6286.52" cy="1486.79" r="4" stroke="rgb(59,0,255)" stroke-width="2" fill="none"></circle>
<circle cx="1699.5" cy="1570.99" r="4" stroke="rgb(255,136,0)" stroke-width="2" fill="none"></circle>
<circle cx="6286.52" cy="1486.79" r="4" stroke="rgb(255,136,0)" stroke-width="2" fill="none"></circle>
<circle cx="1767.9" cy="1757.86" r="4" stroke="rgb(0,140,255)" stroke-width="2" fill="none"></circle>
<circle cx="6225.54" cy="1489.3" r="4" stroke="rgb(0,140,255)" stroke-width="2" fill="none"></circle>
<circle cx="1721.75" cy="1130.2" r="4" stroke="rgb(0,255,55)" stroke-width="2" fill="none"></circle>
<circle cx="6305.94" cy="1490.43" r="4" stroke="rgb(0,255,55)" stroke-width="2" fill="none"></circle>
<circle cx="1699.5" cy="1570.99" r="4" stroke="rgb(0,255,21)" stroke-width="2" fill="none"></circle>
<circle cx="6261.84" cy="1544.19" r="4" stroke="rgb(0,255,21)" stroke-width="2" fill="none"></circle>
<circle cx="1699.5" cy="1570.99" r="4" stroke="rgb(0,255,16)" stroke-width="2" fill="none"></circle>
<circle cx="6261.84" cy="1544.19" r="4" stroke="rgb(0,255,16)" stroke-width="2" fill="none"></circle>
<circle cx="1674.96" cy="1647.08" r="4" stroke="rgb(0,135,255)" stroke-width="2" fill="none"></circle>
<circle cx="6370.21" cy="1672.84" r="4" stroke="rgb(0,135,255)" stroke-width="2" fill="none"></circle>
<circle cx="1674.96" cy="1647.08" r="4" stroke="rgb(0,80,255)" stroke-width="2" fill="none"></circle>
<circle cx="6370.21" cy="1672.84" r="4" stroke="rgb(0,80,255)" stroke-width="2" fill="none"></circle>
<circle cx="975.823" cy="1169.62" r="4" stroke="rgb(0,255,208)" stroke-width="2" fill="none"></circle>
<circle cx="5903.59" cy="1917.69" r="4" stroke="rgb(0,255,208)" stroke-width="2" fill="none"></circle>
<circle cx="1728.58" cy="1835.16" r="4" stroke="rgb(255,0,187)" stroke-width="2" fill="none"></circle>
<circle cx="5577.3" cy="641.72" r="4" stroke="rgb(255,0,187)" stroke-width="2" fill="none"></circle>
<circle cx="1113.52" cy="2364.82" r="4" stroke="rgb(0,93,255)" stroke-width="2" fill="none"></circle>
<circle cx="5808.66" cy="823.453" r="4" stroke="rgb(0,93,255)" stroke-width="2" fill="none"></circle>
<circle cx="975.823" cy="1169.62" r="4" stroke="rgb(229,0,255)" stroke-width="2" fill="none"></circle>
<circle cx="5880.86" cy="2000.89" r="4" stroke="rgb(229,0,255)" stroke-width="2" fill="none"></circle>
<circle cx="1304.52" cy="1116.93" r="4" stroke="rgb(212,255,0)" stroke-width="2" fill="none"></circle>
<circle cx="6185.22" cy="1103.9" r="4" stroke="rgb(212,255,0)" stroke-width="2" fill="none"></circle>
<circle cx="1683.11" cy="1351.27" r="4" stroke="rgb(106,255,0)" stroke-width="2" fill="none"></circle>
<circle cx="6061.34" cy="915.714" r="4" stroke="rgb(106,255,0)" stroke-width="2" fill="none"></circle>
<circle cx="1683.11" cy="1351.27" r="4" stroke="rgb(255,0,93)" stroke-width="2" fill="none"></circle>
<circle cx="6061.34" cy="915.714" r="4" stroke="rgb(255,0,93)" stroke-width="2" fill="none"></circle>
<circle cx="1683.11" cy="1351.27" r="4" stroke="rgb(0,46,255)" stroke-width="2" fill="none"></circle>
<circle cx="6220.1" cy="1301.98" r="4" stroke="rgb(0,46,255)" stroke-width="2" fill="none"></circle>
<circle cx="1683.11" cy="1351.27" r="4" stroke="rgb(0,255,25)" stroke-width="2" fill="none"></circle>
<circle cx="6220.1" cy="1301.98" r="4" stroke="rgb(0,255,25)" stroke-width="2" fill="none"></circle>
<circle cx="1636.89" cy="1674.3" r="4" stroke="rgb(255,0,221)" stroke-width="2" fill="none"></circle>
<circle cx="6643.83" cy="2248.05" r="4" stroke="rgb(255,0,221)" stroke-width="2" fill="none"></circle>
<circle cx="1683.11" cy="1351.27" r="4" stroke="rgb(255,0,221)" stroke-width="2" fill="none"></circle>
<circle cx="6320.94" cy="1541.13" r="4" stroke="rgb(255,0,221)" stroke-width="2" fill="none"></circle>
<circle cx="789.156" cy="1732.25" r="4" stroke="rgb(0,8,255)" stroke-width="2" fill="none"></circle>
<circle cx="5877.99" cy="1604.13" r="4" stroke="rgb(0,8,255)" stroke-width="2" fill="none"></circle>
<circle cx="1699.5" cy="1570.99" r="4" stroke="rgb(85,0,255)" stroke-width="2" fill="none"></circle>
<circle cx="6332.37" cy="1613.14" r="4" stroke="rgb(85,0,255)" stroke-width="2" fill="none"></circle>
<circle cx="1699.5" cy="1570.99" r="4" stroke="rgb(255,93,0)" stroke-width="2" fill="none"></circle>
<circle cx="6332.37" cy="1613.14" r="4" stroke="rgb(255,93,0)" stroke-width="2" fill="none"></circle>
<circle cx="1113.52" cy="2364.82" r="4" stroke="rgb(93,255,0)" stroke-width="2" fill="none"></circle>
<circle cx="6104.54" cy="1706.35" r="4" stroke="rgb(93,255,0)" stroke-width="2" fill="none"></circle>
<circle cx="921.041" cy="1263.56" r="4" stroke="rgb(0,127,255)" stroke-width="2" fill="none"></circle>
<circle cx="5830.18" cy="1751.89" r="4" stroke="rgb(0,127,255)" stroke-width="2" fill="none"></circle>
<circle cx="1341.88" cy="1263.95" r="4" stroke="rgb(8,255,0)" stroke-width="2" fill="none"></circle>
<circle cx="6148.83" cy="1763.44" r="4" stroke="rgb(8,255,0)" stroke-width="2" fill="none"></circle>
<circle cx="1004.2" cy="1293.46" r="4" stroke="rgb(21,255,0)" stroke-width="2" fill="none"></circle>
<circle cx="5865.53" cy="2030.8" r="4" stroke="rgb(21,255,0)" stroke-width="2" fill="none"></circle>
<circle cx="558.851" cy="1282.78" r="4" stroke="rgb(0,255,161)" stroke-width="2" fill="none"></circle>
<circle cx="6471.81" cy="2198.12" r="4" stroke="rgb(0,255,161)" stroke-width="2" fill="none"></circle>
<circle cx="572.32" cy="1258.28" r="4" stroke="rgb(110,255,0)" stroke-width="2" fill="none"></circle>
<circle cx="6448.29" cy="2205.97" r="4" stroke="rgb(110,255,0)" stroke-width="2" fill="none"></circle>
<circle cx="572.32" cy="1258.28" r="4" stroke="rgb(255,0,199)" stroke-width="2" fill="none"></circle>
<circle cx="6448.29" cy="2205.97" r="4" stroke="rgb(255,0,199)" stroke-width="2" fill="none"></circle>
<circle cx="2673.51" cy="2332.74" r="4" stroke="rgb(237,255,0)" stroke-width="2" fill="none"></circle>
<circle cx="6525.34" cy="1137.76" r="4" stroke="rgb(237,255,0)" stroke-width="2" fill="none"></circle>
</svg>