<?xml version="1.0" standalone="yes"?>
<!-- SVG graphic -->
<svg xmlns='http://www.w3.org/2000/svg' xmlns:xlink='http://www.w3.org/1999/xlink'
width="8064px" height="3024px" preserveAspectRatio="xMinYMin meet" viewBox="0 0 8064 3024" version="1.1">
<image x="0" y="0" width="4032px" height="3024px" opacity="1" xlink:href="/home/jeong/Code/2D-to-3D-Modeling-using-AI/Make3D/Image/20200227_180638.jpg"/>
<image x="4032" y="0" width="4032px" height="3024px" opacity="1" xlink:href="/home/jeong/Code/2D-to-3D-Modeling-using-AI/Make3D/Image/20200227_180733.jpg"/>
<polyline points="425.163,886.639,6853.2,2576.29" stroke="rgb(255,204,0)" stroke-width="2" fill="none"></polyline>
<polyline points="388.578,937.326,6617.93,1927.52" stroke="rgb(0,255,16)" stroke-width="2" fill="none"></polyline>
<polyline points="1840.13,955.947,6434.25,2439.99" stroke="rgb(182,255,0)" stroke-width="2" fill="none"></polyline>
<polyline points="1907.95,963.059,6542.8,2840.72" stroke="rgb(0,255,21)" stroke-width="2" fill="none"></polyline>
<polyline points="2055.29,985.783,6650.46,2643.55" stroke="rgb(255,51,0)" stroke-width="2" fill="none"></polyline>
<polyline points="2189.76,1021.73,5823.64,2326.67" stroke="rgb(114,255,0)" stroke-width="2" fill="none"></polyline>
<polyline points="1659.85,1039.52,5797.2,2591.37" stroke="rgb(0,127,255)" stroke-width="2" fill="none"></polyline>
<polyline points="901.202,1054.92,5784.62,2505.96" stroke="rgb(255,51,0)" stroke-width="2" fill="none"></polyline>
<polyline points="1759.43,1070.77,6232.35,1621.42" stroke="rgb(50,0,255)" stroke-width="2" fill="none"></polyline>
<polyline points="1348.49,1084.04,7024.46,1897.49" stroke="rgb(0,255,8)" stroke-width="2" fill="none"></polyline>
<polyline points="1637.14,1091.22,5858.87,2319.68" stroke="rgb(0,255,42)" stroke-width="2" fill="none"></polyline>
<polyline points="1602.51,1099.35,6027.64,1924.05" stroke="rgb(255,21,0)" stroke-width="2" fill="none"></polyline>
<polyline points="1583.83,1106.04,5877.74,2515.96" stroke="rgb(255,0,140)" stroke-width="2" fill="none"></polyline>
<polyline points="2423.34,1110.36,6542.39,2805.81" stroke="rgb(199,255,0)" stroke-width="2" fill="none"></polyline>
<polyline points="1304.52,1116.93,6492.4,2201.26" stroke="rgb(255,0,225)" stroke-width="2" fill="none"></polyline>
<polyline points="1128.8,1127.17,6074.76,2529.94" stroke="rgb(199,0,255)" stroke-width="2" fill="none"></polyline>
<polyline points="2325.08,1129.03,5849.13,2220.92" stroke="rgb(255,0,76)" stroke-width="2" fill="none"></polyline>
<polyline points="1721.75,1130.2,6567.63,1803.7" stroke="rgb(0,114,255)" stroke-width="2" fill="none"></polyline>
<polyline points="970.37,1134.2,5832.71,2494.55" stroke="rgb(255,136,0)" stroke-width="2" fill="none"></polyline>
<polyline points="2509.8,1135.4,6956.99,1419.33" stroke="rgb(255,0,119)" stroke-width="2" fill="none"></polyline>
<polyline points="1006.5,1136.04,5975.78,2349.92" stroke="rgb(255,0,89)" stroke-width="2" fill="none"></polyline>
<polyline points="1273.07,1136.56,6536.08,2208" stroke="rgb(12,255,0)" stroke-width="2" fill="none"></polyline>
<polyline points="1300.83,1141.15,6335.76,1569.6" stroke="rgb(85,0,255)" stroke-width="2" fill="none"></polyline>
<polyline points="1541.72,1144.93,5868.84,2203.45" stroke="rgb(203,0,255)" stroke-width="2" fill="none"></polyline>
<polyline points="1403.4,1157.35,5913.06,1930.83" stroke="rgb(0,229,255)" stroke-width="2" fill="none"></polyline>
<polyline points="1539.57,1161.29,5947.47,2292.14" stroke="rgb(148,255,0)" stroke-width="2" fill="none"></polyline>
<polyline points="2321.66,1165.25,6592.92,2628.26" stroke="rgb(33,255,0)" stroke-width="2" fill="none"></polyline>
<polyline points="954.174,1170.14,5893.93,2135.46" stroke="rgb(255,0,136)" stroke-width="2" fill="none"></polyline>
<polyline points="2596.92,1170.27,6133.75,1166.85" stroke="rgb(0,255,63)" stroke-width="2" fill="none"></polyline>
<polyline points="1430.07,1171.88,5991.18,1803.23" stroke="rgb(123,255,0)" stroke-width="2" fill="none"></polyline>
<polyline points="1384.59,1173.88,6514.76,2298.52" stroke="rgb(0,255,165)" stroke-width="2" fill="none"></polyline>
<polyline points="1383.28,1177.06,6480.1,2206.52" stroke="rgb(255,233,0)" stroke-width="2" fill="none"></polyline>
<polyline points="969.018,1181.83,6016.72,2120.68" stroke="rgb(0,106,255)" stroke-width="2" fill="none"></polyline>
<polyline points="932.774,1181.84,5906.57,2134.41" stroke="rgb(0,17,255)" stroke-width="2" fill="none"></polyline>
<polyline points="1088.84,1200.68,5901.84,2525.53" stroke="rgb(0,255,254)" stroke-width="2" fill="none"></polyline>
<polyline points="857.119,1210.46,6755.2,2617.57" stroke="rgb(84,255,0)" stroke-width="2" fill="none"></polyline>
<polyline points="815.696,1219.31,7010.15,1910.41" stroke="rgb(255,0,131)" stroke-width="2" fill="none"></polyline>
<polyline points="1146.1,1241.44,5872.75,2587.96" stroke="rgb(93,0,255)" stroke-width="2" fill="none"></polyline>
<polyline points="945.012,1243.58,5954.48,2318.87" stroke="rgb(33,255,0)" stroke-width="2" fill="none"></polyline>
<polyline points="1886.03,1254.27,6625.37,2019.19" stroke="rgb(0,76,255)" stroke-width="2" fill="none"></polyline>
<polyline points="1095.79,1254.96,5801.96,2467.65" stroke="rgb(255,102,0)" stroke-width="2" fill="none"></polyline>
<polyline points="868.976,1255.85,6612.53,2866.38" stroke="rgb(8,0,255)" stroke-width="2" fill="none"></polyline>
<polyline points="572.32,1258.28,6545.54,2192.45" stroke="rgb(89,255,0)" stroke-width="2" fill="none"></polyline>
<polyline points="1441.49,1268.64,5976.74,1659.34" stroke="rgb(255,0,33)" stroke-width="2" fill="none"></polyline>
<polyline points="1001.84,1271.3,5911.39,2454.71" stroke="rgb(0,225,255)" stroke-width="2" fill="none"></polyline>
<polyline points="1133.37,1283.07,5878.18,2539.15" stroke="rgb(255,199,0)" stroke-width="2" fill="none"></polyline>
<polyline points="935.295,1293.09,5880.41,2601.01" stroke="rgb(0,255,131)" stroke-width="2" fill="none"></polyline>
<polyline points="1296.42,1293.54,5851.82,2500.06" stroke="rgb(0,255,212)" stroke-width="2" fill="none"></polyline>
<polyline points="2652.89,1297.94,7039.92,1505.95" stroke="rgb(0,255,50)" stroke-width="2" fill="none"></polyline>
<polyline points="2725.08,1302.2,5994.98,2563.72" stroke="rgb(0,242,255)" stroke-width="2" fill="none"></polyline>
<polyline points="1301.45,1305.4,5858.01,2429.16" stroke="rgb(0,255,93)" stroke-width="2" fill="none"></polyline>
<polyline points="2443.47,1309.09,6739.97,1966.07" stroke="rgb(255,0,68)" stroke-width="2" fill="none"></polyline>
<polyline points="453.058,1311.56,6524.36,2539.69" stroke="rgb(0,255,220)" stroke-width="2" fill="none"></polyline>
<polyline points="1028.09,1328.52,5901.11,2125.76" stroke="rgb(144,0,255)" stroke-width="2" fill="none"></polyline>
<polyline points="1220.12,1340.87,6021.84,1823.06" stroke="rgb(135,0,255)" stroke-width="2" fill="none"></polyline>
<polyline points="1224.78,1353.57,6106.26,1364.9" stroke="rgb(0,42,255)" stroke-width="2" fill="none"></polyline>
<polyline points="3015.07,1367.1,6684.79,1421.7" stroke="rgb(255,0,4)" stroke-width="2" fill="none"></polyline>
<polyline points="1340.72,1369.96,6022.76,1785.01" stroke="rgb(67,0,255)" stroke-width="2" fill="none"></polyline>
<polyline points="1368.74,1375.3,6032.46,1767.17" stroke="rgb(0,178,255)" stroke-width="2" fill="none"></polyline>
<polyline points="1418.9,1377.78,5972.14,2106.68" stroke="rgb(255,29,0)" stroke-width="2" fill="none"></polyline>
<polyline points="1310.44,1396.95,6853.56,2668.62" stroke="rgb(255,0,55)" stroke-width="2" fill="none"></polyline>
<polyline points="907.843,1404.94,6884.81,2664.31" stroke="rgb(255,0,12)" stroke-width="2" fill="none"></polyline>
<polyline points="947.004,1414.58,6462.54,1498.57" stroke="rgb(246,255,0)" stroke-width="2" fill="none"></polyline>
<polyline points="1385.09,1420.49,5877.49,2347.4" stroke="rgb(0,157,255)" stroke-width="2" fill="none"></polyline>
<polyline points="2830.55,1422.45,6835.9,2414.19" stroke="rgb(0,25,255)" stroke-width="2" fill="none"></polyline>
<polyline points="1864.34,1479.09,5859.7,2646.56" stroke="rgb(21,255,0)" stroke-width="2" fill="none"></polyline>
<polyline points="1095.68,1508.21,6660.04,1118.95" stroke="rgb(0,255,233)" stroke-width="2" fill="none"></polyline>
<polyline points="2807.97,1516.85,6989.82,1865.34" stroke="rgb(191,255,0)" stroke-width="2" fill="none"></polyline>
<polyline points="1520.17,1519.32,6655.54,1982.14" stroke="rgb(255,72,0)" stroke-width="2" fill="none"></polyline>
<polyline points="653.594,1521.48,6538.55,2906.85" stroke="rgb(0,255,165)" stroke-width="2" fill="none"></polyline>
<polyline points="939.817,1522.79,6800.98,2788.62" stroke="rgb(0,255,208)" stroke-width="2" fill="none"></polyline>
<polyline points="1937.61,1535.3,5930.5,1811.29" stroke="rgb(255,178,0)" stroke-width="2" fill="none"></polyline>
<polyline points="1699.5,1570.99,6495.44,2382.17" stroke="rgb(140,0,255)" stroke-width="2" fill="none"></polyline>
<polyline points="1672.16,1586.95,6886.93,1369.48" stroke="rgb(123,0,255)" stroke-width="2" fill="none"></polyline>
<polyline points="1682.98,1587.05,6225.94,2203.76" stroke="rgb(110,0,255)" stroke-width="2" fill="none"></polyline>
<polyline points="1653.67,1603.26,6471.4,2478.81" stroke="rgb(84,255,0)" stroke-width="2" fill="none"></polyline>
<polyline points="763.796,1608.4,6089.18,2706.62" stroke="rgb(0,221,255)" stroke-width="2" fill="none"></polyline>
<polyline points="1831.15,1616.97,5924.04,2317.38" stroke="rgb(208,0,255)" stroke-width="2" fill="none"></polyline>
<polyline points="758.39,1622.16,6084.97,2727.42" stroke="rgb(0,255,93)" stroke-width="2" fill="none"></polyline>
<polyline points="899.969,1631.91,6222.18,2053.67" stroke="rgb(255,0,169)" stroke-width="2" fill="none"></polyline>
<polyline points="849.879,1631.95,6394.2,1835.55" stroke="rgb(255,0,63)" stroke-width="2" fill="none"></polyline>
<polyline points="846.924,1636.94,6062.26,2413.82" stroke="rgb(191,0,255)" stroke-width="2" fill="none"></polyline>
<polyline points="563.976,1639.68,6612.03,2186.39" stroke="rgb(0,255,237)" stroke-width="2" fill="none"></polyline>
<polyline points="1850.26,1646.95,5888.92,2522.02" stroke="rgb(255,123,0)" stroke-width="2" fill="none"></polyline>
<polyline points="2079.74,1655.44,5900.5,2370.23" stroke="rgb(208,255,0)" stroke-width="2" fill="none"></polyline>
<polyline points="1866.49,1662.7,6498.65,2505.59" stroke="rgb(131,255,0)" stroke-width="2" fill="none"></polyline>
<polyline points="1680.25,1666.46,6119.89,2699.85" stroke="rgb(85,0,255)" stroke-width="2" fill="none"></polyline>
<polyline points="1690.9,1670.29,6752.64,1612.03" stroke="rgb(255,0,242)" stroke-width="2" fill="none"></polyline>
<polyline points="1748.3,1673.31,6587.87,1764.34" stroke="rgb(255,0,63)" stroke-width="2" fill="none"></polyline>
<polyline points="896.531,1674.59,6513.33,2293.77" stroke="rgb(255,0,127)" stroke-width="2" fill="none"></polyline>
<polyline points="697.358,1675.17,6602.77,2597.22" stroke="rgb(255,0,212)" stroke-width="2" fill="none"></polyline>
<polyline points="1802.61,1679.14,5684.28,2713.3" stroke="rgb(0,148,255)" stroke-width="2" fill="none"></polyline>
<polyline points="1724.03,1690.98,6752.64,1612.03" stroke="rgb(0,169,255)" stroke-width="2" fill="none"></polyline>
<polyline points="1921.28,1691.18,6645.43,1841.91" stroke="rgb(17,0,255)" stroke-width="2" fill="none"></polyline>
<polyline points="691.036,1696.17,7024.46,1897.49" stroke="rgb(170,0,255)" stroke-width="2" fill="none"></polyline>
<polyline points="1319.59,1699.16,6473.13,2189.03" stroke="rgb(255,0,229)" stroke-width="2" fill="none"></polyline>
<polyline points="856.506,1709.41,6385.95,1654.65" stroke="rgb(255,0,4)" stroke-width="2" fill="none"></polyline>
<polyline points="680.93,1719.07,6337.27,2262.43" stroke="rgb(106,255,0)" stroke-width="2" fill="none"></polyline>
<polyline points="1748.2,1721.19,6426.53,2315.94" stroke="rgb(255,89,0)" stroke-width="2" fill="none"></polyline>
<polyline points="895.974,1738.33,6695.19,2191.72" stroke="rgb(255,72,0)" stroke-width="2" fill="none"></polyline>
<polyline points="1874.02,1742.56,6165.35,2328.68" stroke="rgb(59,0,255)" stroke-width="2" fill="none"></polyline>
<polyline points="1745.32,1768.59,6424.51,1611.75" stroke="rgb(242,255,0)" stroke-width="2" fill="none"></polyline>
<polyline points="1788.91,1772.34,6607.46,2101.56" stroke="rgb(216,0,255)" stroke-width="2" fill="none"></polyline>
<polyline points="1888.68,1777.39,6401.7,1484.26" stroke="rgb(255,165,0)" stroke-width="2" fill="none"></polyline>
<polyline points="1791.01,1796.91,6437.6,2363.05" stroke="rgb(0,153,255)" stroke-width="2" fill="none"></polyline>
<polyline points="1791.5,1805.4,6512.44,2131.09" stroke="rgb(216,255,0)" stroke-width="2" fill="none"></polyline>
<polyline points="1758.12,1830.45,7058.71,1405.43" stroke="rgb(0,255,80)" stroke-width="2" fill="none"></polyline>
<polyline points="1763.87,1832.44,6520.2,1992.93" stroke="rgb(255,136,0)" stroke-width="2" fill="none"></polyline>
<polyline points="1649.09,1915.75,5789.29,2679.82" stroke="rgb(255,0,8)" stroke-width="2" fill="none"></polyline>
<polyline points="1237.53,1954.46,5973.12,1238.95" stroke="rgb(178,0,255)" stroke-width="2" fill="none"></polyline>
<polyline points="1245,2075,6423.34,2924.07" stroke="rgb(0,67,255)" stroke-width="2" fill="none"></polyline>
<polyline points="2799.29,2119.12,5788.51,2492.13" stroke="rgb(255,0,72)" stroke-width="2" fill="none"></polyline>
<polyline points="2757.77,2219.57,6633.82,1980.86" stroke="rgb(174,255,0)" stroke-width="2" fill="none"></polyline>
<polyline points="2496.8,2243.9,5892.59,2302.54" stroke="rgb(255,174,0)" stroke-width="2" fill="none"></polyline>
<polyline points="2542.84,2249.18,5867.5,2239.63" stroke="rgb(255,55,0)" stroke-width="2" fill="none"></polyline>
<polyline points="2735.49,2257.06,6653.14,1973.8" stroke="rgb(255,93,0)" stroke-width="2" fill="none"></polyline>
<polyline points="2545.94,2266.59,6603.21,2840.62" stroke="rgb(255,8,0)" stroke-width="2" fill="none"></polyline>
<polyline points="2541.25,2268.54,6615.45,2757.2" stroke="rgb(0,255,106)" stroke-width="2" fill="none"></polyline>
<polyline points="2715.5,2272.33,5942.78,2254.51" stroke="rgb(0,182,255)" stroke-width="2" fill="none"></polyline>
<polyline points="2737.56,2274.86,5780.47,2541.45" stroke="rgb(0,89,255)" stroke-width="2" fill="none"></polyline>
<polyline points="2610.37,2307.59,6895.8,2681.11" stroke="rgb(255,0,55)" stroke-width="2" fill="none"></polyline>
<polyline points="1016.05,2309.23,6538.78,2819.04" stroke="rgb(0,255,114)" stroke-width="2" fill="none"></polyline>
<polyline points="1137.12,2314.79,6682.27,2233.4" stroke="rgb(237,255,0)" stroke-width="2" fill="none"></polyline>
<polyline points="1138.83,2324.65,6590.06,2474.57" stroke="rgb(0,225,255)" stroke-width="2" fill="none"></polyline>
<polyline points="2309.16,2341.64,6851.73,1422.7" stroke="rgb(102,0,255)" stroke-width="2" fill="none"></polyline>
<polyline points="1143.21,2341.74,6620.89,1697.1" stroke="rgb(0,101,255)" stroke-width="2" fill="none"></polyline>
<polyline points="1063.66,2358.42,5898.57,1294.42" stroke="rgb(0,255,55)" stroke-width="2" fill="none"></polyline>
<polyline points="1113.52,2364.82,6189.55,2488.84" stroke="rgb(97,0,255)" stroke-width="2" fill="none"></polyline>
<polyline points="1764.23,2638.25,6780.79,1139.76" stroke="rgb(0,242,255)" stroke-width="2" fill="none"></polyline>
<circle cx="425.163" cy="886.639" r="4" stroke="rgb(255,204,0)" stroke-width="2" fill="none"></circle>
<circle cx="6853.2" cy="2576.29" r="4" stroke="rgb(255,204,0)" stroke-width="2" fill="none"></circle>
<circle cx="388.578" cy="937.326" r="4" stroke="rgb(0,255,16)" stroke-width="2" fill="none"></circle>
<circle cx="6617.93" cy="1927.52" r="4" stroke="rgb(0,255,16)" stroke-width="2" fill="none"></circle>
<circle cx="1840.13" cy="955.947" r="4" stroke="rgb(182,255,0)" stroke-width="2" fill="none"></circle>
<circle cx="6434.25" cy="2439.99" r="4" stroke="rgb(182,255,0)" stroke-width="2" fill="none"></circle>
<circle cx="1907.95" cy="963.059" r="4" stroke="rgb(0,255,21)" stroke-width="2" fill="none"></circle>
<circle cx="6542.8" cy="2840.72" r="4" stroke="rgb(0,255,21)" stroke-width="2" fill="none"></circle>
<circle cx="2055.29" cy="985.783" r="4" stroke="rgb(255,51,0)" stroke-width="2" fill="none"></circle>
<circle cx="6650.46" cy="2643.55" r="4" stroke="rgb(255,51,0)" stroke-width="2" fill="none"></circle>
<circle cx="2189.76" cy="1021.73" r="4" stroke="rgb(114,255,0)" stroke-width="2" fill="none"></circle>
<circle cx="5823.64" cy="2326.67" r="4" stroke="rgb(114,255,0)" stroke-width="2" fill="none"></circle>
<circle cx="1659.85" cy="1039.52" r="4" stroke="rgb(0,127,255)" stroke-width="2" fill="none"></circle>
<circle cx="5797.2" cy="2591.37" r="4" stroke="rgb(0,127,255)" stroke-width="2" fill="none"></circle>
<circle cx="901.202" cy="1054.92" r="4" stroke="rgb(255,51,0)" stroke-width="2" fill="none"></circle>
<circle cx="5784.62" cy="2505.96" r="4" stroke="rgb(255,51,0)" stroke-width="2" fill="none"></circle>
<circle cx="1759.43" cy="1070.77" r="4" stroke="rgb(50,0,255)" stroke-width="2" fill="none"></circle>
<circle cx="6232.35" cy="1621.42" r="4" stroke="rgb(50,0,255)" stroke-width="2" fill="none"></circle>
<circle cx="1348.49" cy="1084.04" r="4" stroke="rgb(0,255,8)" stroke-width="2" fill="none"></circle>
<circle cx="7024.46" cy="1897.49" r="4" stroke="rgb(0,255,8)" stroke-width="2" fill="none"></circle>
<circle cx="1637.14" cy="1091.22" r="4" stroke="rgb(0,255,42)" stroke-width="2" fill="none"></circle>
<circle cx="5858.87" cy="2319.68" r="4" stroke="rgb(0,255,42)" stroke-width="2" fill="none"></circle>
<circle cx="1602.51" cy="1099.35" r="4" stroke="rgb(255,21,0)" stroke-width="2" fill="none"></circle>
<circle cx="6027.64" cy="1924.05" r="4" stroke="rgb(255,21,0)" stroke-width="2" fill="none"></circle>
<circle cx="1583.83" cy="1106.04" r="4" stroke="rgb(255,0,140)" stroke-width="2" fill="none"></circle>
<circle cx="5877.74" cy="2515.96" r="4" stroke="rgb(255,0,140)" stroke-width="2" fill="none"></circle>
<circle cx="2423.34" cy="1110.36" r="4" stroke="rgb(199,255,0)" stroke-width="2" fill="none"></circle>
<circle cx="6542.39" cy="2805.81" r="4" stroke="rgb(199,255,0)" stroke-width="2" fill="none"></circle>
<circle cx="1304.52" cy="1116.93" r="4" stroke="rgb(255,0,225)" stroke-width="2" fill="none"></circle>
<circle cx="6492.4" cy="2201.26" r="4" stroke="rgb(255,0,225)" stroke-width="2" fill="none"></circle>
<circle cx="1128.8" cy="1127.17" r="4" stroke="rgb(199,0,255)" stroke-width="2" fill="none"></circle>
<circle cx="6074.76" cy="2529.94" r="4" stroke="rgb(199,0,255)" stroke-width="2" fill="none"></circle>
<circle cx="2325.08" cy="1129.03" r="4" stroke="rgb(255,0,76)" stroke-width="2" fill="none"></circle>
<circle cx="5849.13" cy="2220.92" r="4" stroke="rgb(255,0,76)" stroke-width="2" fill="none"></circle>
<circle cx="1721.75" cy="1130.2" r="4" stroke="rgb(0,114,255)" stroke-width="2" fill="none"></circle>
<circle cx="6567.63" cy="1803.7" r="4" stroke="rgb(0,114,255)" stroke-width="2" fill="none"></circle>
<circle cx="970.37" cy="1134.2" r="4" stroke="rgb(255,136,0)" stroke-width="2" fill="none"></circle>
<circle cx="5832.71" cy="2494.55" r="4" stroke="rgb(255,136,0)" stroke-width="2" fill="none"></circle>
<circle cx="2509.8" cy="1135.4" r="4" stroke="rgb(255,0,119)" stroke-width="2" fill="none"></circle>
<circle cx="6956.99" cy="1419.33" r="4" stroke="rgb(255,0,119)" stroke-width="2" fill="none"></circle>
<circle cx="1006.5" cy="1136.04" r="4" stroke="rgb(255,0,89)" stroke-width="2" fill="none"></circle>
<circle cx="5975.78" cy="2349.92" r="4" stroke="rgb(255,0,89)" stroke-width="2" fill="none"></circle>
<circle cx="1273.07" cy="1136.56" r="4" stroke="rgb(12,255,0)" stroke-width="2" fill="none"></circle>
<circle cx="6536.08" cy="2208" r="4" stroke="rgb(12,255,0)" stroke-width="2" fill="none"></circle>
<circle cx="1300.83" cy="1141.15" r="4" stroke="rgb(85,0,255)" stroke-width="2" fill="none"></circle>
<circle cx="6335.76" cy="1569.6" r="4" stroke="rgb(85,0,255)" stroke-width="2" fill="none"></circle>
<circle cx="1541.72" cy="1144.93" r="4" stroke="rgb(203,0,255)" stroke-width="2" fill="none"></circle>
<circle cx="5868.84" cy="2203.45" r="4" stroke="rgb(203,0,255)" stroke-width="2" fill="none"></circle>
<circle cx="1403.4" cy="1157.35" r="4" stroke="rgb(0,229,255)" stroke-width="2" fill="none"></circle>
<circle cx="5913.06" cy="1930.83" r="4" stroke="rgb(0,229,255)" stroke-width="2" fill="none"></circle>
<circle cx="1539.57" cy="1161.29" r="4" stroke="rgb(148,255,0)" stroke-width="2" fill="none"></circle>
<circle cx="5947.47" cy="2292.14" r="4" stroke="rgb(148,255,0)" stroke-width="2" fill="none"></circle>
<circle cx="2321.66" cy="1165.25" r="4" stroke="rgb(33,255,0)" stroke-width="2" fill="none"></circle>
<circle cx="6592.92" cy="2628.26" r="4" stroke="rgb(33,255,0)" stroke-width="2" fill="none"></circle>
<circle cx="954.174" cy="1170.14" r="4" stroke="rgb(255,0,136)" stroke-width="2" fill="none"></circle>
<circle cx="5893.93" cy="2135.46" r="4" stroke="rgb(255,0,136)" stroke-width="2" fill="none"></circle>
<circle cx="2596.92" cy="1170.27" r="4" stroke="rgb(0,255,63)" stroke-width="2" fill="none"></circle>
<circle cx="6133.75" cy="1166.85" r="4" stroke="rgb(0,255,63)" stroke-width="2" fill="none"></circle>
<circle cx="1430.07" cy="1171.88" r="4" stroke="rgb(123,255,0)" stroke-width="2" fill="none"></circle>
<circle cx="5991.18" cy="1803.23" r="4" stroke="rgb(123,255,0)" stroke-width="2" fill="none"></circle>
<circle cx="1384.59" cy="1173.88" r="4" stroke="rgb(0,255,165)" stroke-width="2" fill="none"></circle>
<circle cx="6514.76" cy="2298.52" r="4" stroke="rgb(0,255,165)" stroke-width="2" fill="none"></circle>
<circle cx="1383.28" cy="1177.06" r="4" stroke="rgb(255,233,0)" stroke-width="2" fill="none"></circle>
<circle cx="6480.1" cy="2206.52" r="4" stroke="rgb(255,233,0)" stroke-width="2" fill="none"></circle>
<circle cx="969.018" cy="1181.83" r="4" stroke="rgb(0,106,255)" stroke-width="2" fill="none"></circle>
<circle cx="6016.72" cy="2120.68" r="4" stroke="rgb(0,106,255)" stroke-width="2" fill="none"></circle>
<circle cx="932.774" cy="1181.84" r="4" stroke="rgb(0,17,255)" stroke-width="2" fill="none"></circle>
<circle cx="5906.57" cy="2134.41" r="4" stroke="rgb(0,17,255)" stroke-width="2" fill="none"></circle>
<circle cx="1088.84" cy="1200.68" r="4" stroke="rgb(0,255,254)" stroke-width="2" fill="none"></circle>
<circle cx="5901.84" cy="2525.53" r="4" stroke="rgb(0,255,254)" stroke-width="2" fill="none"></circle>
<circle cx="857.119" cy="1210.46" r="4" stroke="rgb(84,255,0)" stroke-width="2" fill="none"></circle>
<circle cx="6755.2" cy="2617.57" r="4" stroke="rgb(84,255,0)" stroke-width="2" fill="none"></circle>
<circle cx="815.696" cy="1219.31" r="4" stroke="rgb(255,0,131)" stroke-width="2" fill="none"></circle>
<circle cx="7010.15" cy="1910.41" r="4" stroke="rgb(255,0,131)" stroke-width="2" fill="none"></circle>
<circle cx="1146.1" cy="1241.44" r="4" stroke="rgb(93,0,255)" stroke-width="2" fill="none"></circle>
<circle cx="5872.75" cy="2587.96" r="4" stroke="rgb(93,0,255)" stroke-width="2" fill="none"></circle>
<circle cx="945.012" cy="1243.58" r="4" stroke="rgb(33,255,0)" stroke-width="2" fill="none"></circle>
<circle cx="5954.48" cy="2318.87" r="4" stroke="rgb(33,255,0)" stroke-width="2" fill="none"></circle>
<circle cx="1886.03" cy="1254.27" r="4" stroke="rgb(0,76,255)" stroke-width="2" fill="none"></circle>
<circle cx="6625.37" cy="2019.19" r="4" stroke="rgb(0,76,255)" stroke-width="2" fill="none"></circle>
<circle cx="1095.79" cy="1254.96" r="4" stroke="rgb(255,102,0)" stroke-width="2" fill="none"></circle>
<circle cx="5801.96" cy="2467.65" r="4" stroke="rgb(255,102,0)" stroke-width="2" fill="none"></circle>
<circle cx="868.976" cy="1255.85" r="4" stroke="rgb(8,0,255)" stroke-width="2" fill="none"></circle>
<circle cx="6612.53" cy="2866.38" r="4" stroke="rgb(8,0,255)" stroke-width="2" fill="none"></circle>
<circle cx="572.32" cy="1258.28" r="4" stroke="rgb(89,255,0)" stroke-width="2" fill="none"></circle>
<circle cx="6545.54" cy="2192.45" r="4" stroke="rgb(89,255,0)" stroke-width="2" fill="none"></circle>
<circle cx="1441.49" cy="1268.64" r="4" stroke="rgb(255,0,33)" stroke-width="2" fill="none"></circle>
<circle cx="5976.74" cy="1659.34" r="4" stroke="rgb(255,0,33)" stroke-width="2" fill="none"></circle>
<circle cx="1001.84" cy="1271.3" r="4" stroke="rgb(0,225,255)" stroke-width="2" fill="none"></circle>
<circle cx="5911.39" cy="2454.71" r="4" stroke="rgb(0,225,255)" stroke-width="2" fill="none"></circle>
<circle cx="1133.37" cy="1283.07" r="4" stroke="rgb(255,199,0)" stroke-width="2" fill="none"></circle>
<circle cx="5878.18" cy="2539.15" r="4" stroke="rgb(255,199,0)" stroke-width="2" fill="none"></circle>
<circle cx="935.295" cy="1293.09" r="4" stroke="rgb(0,255,131)" stroke-width="2" fill="none"></circle>
<circle cx="5880.41" cy="2601.01" r="4" stroke="rgb(0,255,131)" stroke-width="2" fill="none"></circle>
<circle cx="1296.42" cy="1293.54" r="4" stroke="rgb(0,255,212)" stroke-width="2" fill="none"></circle>
<circle cx="5851.82" cy="2500.06" r="4" stroke="rgb(0,255,212)" stroke-width="2" fill="none"></circle>
<circle cx="2652.89" cy="1297.94" r="4" stroke="rgb(0,255,50)" stroke-width="2" fill="none"></circle>
<circle cx="7039.92" cy="1505.95" r="4" stroke="rgb(0,255,50)" stroke-width="2" fill="none"></circle>
<circle cx="2725.08" cy="1302.2" r="4" stroke="rgb(0,242,255)" stroke-width="2" fill="none"></circle>
<circle cx="5994.98" cy="2563.72" r="4" stroke="rgb(0,242,255)" stroke-width="2" fill="none"></circle>
<circle cx="1301.45" cy="1305.4" r="4" stroke="rgb(0,255,93)" stroke-width="2" fill="none"></circle>
<circle cx="5858.01" cy="2429.16" r="4" stroke="rgb(0,255,93)" stroke-width="2" fill="none"></circle>
<circle cx="2443.47" cy="1309.09" r="4" stroke="rgb(255,0,68)" stroke-width="2" fill="none"></circle>
<circle cx="6739.97" cy="1966.07" r="4" stroke="rgb(255,0,68)" stroke-width="2" fill="none"></circle>
<circle cx="453.058" cy="1311.56" r="4" stroke="rgb(0,255,220)" stroke-width="2" fill="none"></circle>
<circle cx="6524.36" cy="2539.69" r="4" stroke="rgb(0,255,220)" stroke-width="2" fill="none"></circle>
<circle cx="1028.09" cy="1328.52" r="4" stroke="rgb(144,0,255)" stroke-width="2" fill="none"></circle>
<circle cx="5901.11" cy="2125.76" r="4" stroke="rgb(144,0,255)" stroke-width="2" fill="none"></circle>
<circle cx="1220.12" cy="1340.87" r="4" stroke="rgb(135,0,255)" stroke-width="2" fill="none"></circle>
<circle cx="6021.84" cy="1823.06" r="4" stroke="rgb(135,0,255)" stroke-width="2" fill="none"></circle>
<circle cx="1224.78" cy="1353.57" r="4" stroke="rgb(0,42,255)" stroke-width="2" fill="none"></circle>
<circle cx="6106.26" cy="1364.9" r="4" stroke="rgb(0,42,255)" stroke-width="2" fill="none"></circle>
<circle cx="3015.07" cy="1367.1" r="4" stroke="rgb(255,0,4)" stroke-width="2" fill="none"></circle>
<circle cx="6684.79" cy="1421.7" r="4" stroke="rgb(255,0,4)" stroke-width="2" fill="none"></circle>
<circle cx="1340.72" cy="1369.96" r="4" stroke="rgb(67,0,255)" stroke-width="2" fill="none"></circle>
<circle cx="6022.76" cy="1785.01" r="4" stroke="rgb(67,0,255)" stroke-width="2" fill="none"></circle>
<circle cx="1368.74" cy="1375.3" r="4" stroke="rgb(0,178,255)" stroke-width="2" fill="none"></circle>
<circle cx="6032.46" cy="1767.17" r="4" stroke="rgb(0,178,255)" stroke-width="2" fill="none"></circle>
<circle cx="1418.9" cy="1377.78" r="4" stroke="rgb(255,29,0)" stroke-width="2" fill="none"></circle>
<circle cx="5972.14" cy="2106.68" r="4" stroke="rgb(255,29,0)" stroke-width="2" fill="none"></circle>
<circle cx="1310.44" cy="1396.95" r="4" stroke="rgb(255,0,55)" stroke-width="2" fill="none"></circle>
<circle cx="6853.56" cy="2668.62" r="4" stroke="rgb(255,0,55)" stroke-width="2" fill="none"></circle>
<circle cx="907.843" cy="1404.94" r="4" stroke="rgb(255,0,12)" stroke-width="2" fill="none"></circle>
<circle cx="6884.81" cy="2664.31" r="4" stroke="rgb(255,0,12)" stroke-width="2" fill="none"></circle>
<circle cx="947.004" cy="1414.58" r="4" stroke="rgb(246,255,0)" stroke-width="2" fill="none"></circle>
<circle cx="6462.54" cy="1498.57" r="4" stroke="rgb(246,255,0)" stroke-width="2" fill="none"></circle>
<circle cx="1385.09" cy="1420.49" r="4" stroke="rgb(0,157,255)" stroke-width="2" fill="none"></circle>
<circle cx="5877.49" cy="2347.4" r="4" stroke="rgb(0,157,255)" stroke-width="2" fill="none"></circle>
<circle cx="2830.55" cy="1422.45" r="4" stroke="rgb(0,25,255)" stroke-width="2" fill="none"></circle>
<circle cx="6835.9" cy="2414.19" r="4" stroke="rgb(0,25,255)" stroke-width="2" fill="none"></circle>
<circle cx="1864.34" cy="1479.09" r="4" stroke="rgb(21,255,0)" stroke-width="2" fill="none"></circle>
<circle cx="5859.7" cy="2646.56" r="4" stroke="rgb(21,255,0)" stroke-width="2" fill="none"></circle>
<circle cx="1095.68" cy="1508.21" r="4" stroke="rgb(0,255,233)" stroke-width="2" fill="none"></circle>
<circle cx="6660.04" cy="1118.95" r="4" stroke="rgb(0,255,233)" stroke-width="2" fill="none"></circle>
<circle cx="2807.97" cy="1516.85" r="4" stroke="rgb(191,255,0)" stroke-width="2" fill="none"></circle>
<circle cx="6989.82" cy="1865.34" r="4" stroke="rgb(191,255,0)" stroke-width="2" fill="none"></circle>
<circle cx="1520.17" cy="1519.32" r="4" stroke="rgb(255,72,0)" stroke-width="2" fill="none"></circle>
<circle cx="6655.54" cy="1982.14" r="4" stroke="rgb(255,72,0)" stroke-width="2" fill="none"></circle>
<circle cx="653.594" cy="1521.48" r="4" stroke="rgb(0,255,165)" stroke-width="2" fill="none"></circle>
<circle cx="6538.55" cy="2906.85" r="4" stroke="rgb(0,255,165)" stroke-width="2" fill="none"></circle>
<circle cx="939.817" cy="1522.79" r="4" stroke="rgb(0,255,208)" stroke-width="2" fill="none"></circle>
<circle cx="6800.98" cy="2788.62" r="4" stroke="rgb(0,255,208)" stroke-width="2" fill="none"></circle>
<circle cx="1937.61" cy="1535.3" r="4" stroke="rgb(255,178,0)" stroke-width="2" fill="none"></circle>
<circle cx="5930.5" cy="1811.29" r="4" stroke="rgb(255,178,0)" stroke-width="2" fill="none"></circle>
<circle cx="1699.5" cy="1570.99" r="4" stroke="rgb(140,0,255)" stroke-width="2" fill="none"></circle>
<circle cx="6495.44" cy="2382.17" r="4" stroke="rgb(140,0,255)" stroke-width="2" fill="none"></circle>
<circle cx="1672.16" cy="1586.95" r="4" stroke="rgb(123,0,255)" stroke-width="2" fill="none"></circle>
<circle cx="6886.93" cy="1369.48" r="4" stroke="rgb(123,0,255)" stroke-width="2" fill="none"></circle>
<circle cx="1682.98" cy="1587.05" r="4" stroke="rgb(110,0,255)" stroke-width="2" fill="none"></circle>
<circle cx="6225.94" cy="2203.76" r="4" stroke="rgb(110,0,255)" stroke-width="2" fill="none"></circle>
<circle cx="1653.67" cy="1603.26" r="4" stroke="rgb(84,255,0)" stroke-width="2" fill="none"></circle>
<circle cx="6471.4" cy="2478.81" r="4" stroke="rgb(84,255,0)" stroke-width="2" fill="none"></circle>
<circle cx="763.796" cy="1608.4" r="4" stroke="rgb(0,221,255)" stroke-width="2" fill="none"></circle>
<circle cx="6089.18" cy="2706.62" r="4" stroke="rgb(0,221,255)" stroke-width="2" fill="none"></circle>
<circle cx="1831.15" cy="1616.97" r="4" stroke="rgb(208,0,255)" stroke-width="2" fill="none"></circle>
<circle cx="5924.04" cy="2317.38" r="4" stroke="rgb(208,0,255)" stroke-width="2" fill="none"></circle>
<circle cx="758.39" cy="1622.16" r="4" stroke="rgb(0,255,93)" stroke-width="2" fill="none"></circle>
<circle cx="6084.97" cy="2727.42" r="4" stroke="rgb(0,255,93)" stroke-width="2" fill="none"></circle>
<circle cx="899.969" cy="1631.91" r="4" stroke="rgb(255,0,169)" stroke-width="2" fill="none"></circle>
<circle cx="6222.18" cy="2053.67" r="4" stroke="rgb(255,0,169)" stroke-width="2" fill="none"></circle>
<circle cx="849.879" cy="1631.95" r="4" stroke="rgb(255,0,63)" stroke-width="2" fill="none"></circle>
<circle cx="6394.2" cy="1835.55" r="4" stroke="rgb(255,0,63)" stroke-width="2" fill="none"></circle>
<circle cx="846.924" cy="1636.94" r="4" stroke="rgb(191,0,255)" stroke-width="2" fill="none"></circle>
<circle cx="6062.26" cy="2413.82" r="4" stroke="rgb(191,0,255)" stroke-width="2" fill="none"></circle>
<circle cx="563.976" cy="1639.68" r="4" stroke="rgb(0,255,237)" stroke-width="2" fill="none"></circle>
<circle cx="6612.03" cy="2186.39" r="4" stroke="rgb(0,255,237)" stroke-width="2" fill="none"></circle>
<circle cx="1850.26" cy="1646.95" r="4" stroke="rgb(255,123,0)" stroke-width="2" fill="none"></circle>
<circle cx="5888.92" cy="2522.02" r="4" stroke="rgb(255,123,0)" stroke-width="2" fill="none"></circle>
<circle cx="2079.74" cy="1655.44" r="4" stroke="rgb(208,255,0)" stroke-width="2" fill="none"></circle>
<circle cx="5900.5" cy="2370.23" r="4" stroke="rgb(208,255,0)" stroke-width="2" fill="none"></circle>
<circle cx="1866.49" cy="1662.7" r="4" stroke="rgb(131,255,0)" stroke-width="2" fill="none"></circle>
<circle cx="6498.65" cy="2505.59" r="4" stroke="rgb(131,255,0)" stroke-width="2" fill="none"></circle>
<circle cx="1680.25" cy="1666.46" r="4" stroke="rgb(85,0,255)" stroke-width="2" fill="none"></circle>
<circle cx="6119.89" cy="2699.85" r="4" stroke="rgb(85,0,255)" stroke-width="2" fill="none"></circle>
<circle cx="1690.9" cy="1670.29" r="4" stroke="rgb(255,0,242)" stroke-width="2" fill="none"></circle>
<circle cx="6752.64" cy="1612.03" r="4" stroke="rgb(255,0,242)" stroke-width="2" fill="none"></circle>
<circle cx="1748.3" cy="1673.31" r="4" stroke="rgb(255,0,63)" stroke-width="2" fill="none"></circle>
<circle cx="6587.87" cy="1764.34" r="4" stroke="rgb(255,0,63)" stroke-width="2" fill="none"></circle>
<circle cx="896.531" cy="1674.59" r="4" stroke="rgb(255,0,127)" stroke-width="2" fill="none"></circle>
<circle cx="6513.33" cy="2293.77" r="4" stroke="rgb(255,0,127)" stroke-width="2" fill="none"></circle>
<circle cx="697.358" cy="1675.17" r="4" stroke="rgb(255,0,212)" stroke-width="2" fill="none"></circle>
<circle cx="6602.77" cy="2597.22" r="4" stroke="rgb(255,0,212)" stroke-width="2" fill="none"></circle>
<circle cx="1802.61" cy="1679.14" r="4" stroke="rgb(0,148,255)" stroke-width="2" fill="none"></circle>
<circle cx="5684.28" cy="2713.3" r="4" stroke="rgb(0,148,255)" stroke-width="2" fill="none"></circle>
<circle cx="1724.03" cy="1690.98" r="4" stroke="rgb(0,169,255)" stroke-width="2" fill="none"></circle>
<circle cx="6752.64" cy="1612.03" r="4" stroke="rgb(0,169,255)" stroke-width="2" fill="none"></circle>
<circle cx="1921.28" cy="1691.18" r="4" stroke="rgb(17,0,255)" stroke-width="2" fill="none"></circle>
<circle cx="6645.43" cy="1841.91" r="4" stroke="rgb(17,0,255)" stroke-width="2" fill="none"></circle>
<circle cx="691.036" cy="1696.17" r="4" stroke="rgb(170,0,255)" stroke-width="2" fill="none"></circle>
<circle cx="7024.46" cy="1897.49" r="4" stroke="rgb(170,0,255)" stroke-width="2" fill="none"></circle>
<circle cx="1319.59" cy="1699.16" r="4" stroke="rgb(255,0,229)" stroke-width="2" fill="none"></circle>
<circle cx="6473.13" cy="2189.03" r="4" stroke="rgb(255,0,229)" stroke-width="2" fill="none"></circle>
<circle cx="856.506" cy="1709.41" r="4" stroke="rgb(255,0,4)" stroke-width="2" fill="none"></circle>
<circle cx="6385.95" cy="1654.65" r="4" stroke="rgb(255,0,4)" stroke-width="2" fill="none"></circle>
<circle cx="680.93" cy="1719.07" r="4" stroke="rgb(106,255,0)" stroke-width="2" fill="none"></circle>
<circle cx="6337.27" cy="2262.43" r="4" stroke="rgb(106,255,0)" stroke-width="2" fill="none"></circle>
<circle cx="1748.2" cy="1721.19" r="4" stroke="rgb(255,89,0)" stroke-width="2" fill="none"></circle>
<circle cx="6426.53" cy="2315.94" r="4" stroke="rgb(255,89,0)" stroke-width="2" fill="none"></circle>
<circle cx="895.974" cy="1738.33" r="4" stroke="rgb(255,72,0)" stroke-width="2" fill="none"></circle>
<circle cx="6695.19" cy="2191.72" r="4" stroke="rgb(255,72,0)" stroke-width="2" fill="none"></circle>
<circle cx="1874.02" cy="1742.56" r="4" stroke="rgb(59,0,255)" stroke-width="2" fill="none"></circle>
<circle cx="6165.35" cy="2328.68" r="4" stroke="rgb(59,0,255)" stroke-width="2" fill="none"></circle>
<circle cx="1745.32" cy="1768.59" r="4" stroke="rgb(242,255,0)" stroke-width="2" fill="none"></circle>
<circle cx="6424.51" cy="1611.75" r="4" stroke="rgb(242,255,0)" stroke-width="2" fill="none"></circle>
<circle cx="1788.91" cy="1772.34" r="4" stroke="rgb(216,0,255)" stroke-width="2" fill="none"></circle>
<circle cx="6607.46" cy="2101.56" r="4" stroke="rgb(216,0,255)" stroke-width="2" fill="none"></circle>
<circle cx="1888.68" cy="1777.39" r="4" stroke="rgb(255,165,0)" stroke-width="2" fill="none"></circle>
<circle cx="6401.7" cy="1484.26" r="4" stroke="rgb(255,165,0)" stroke-width="2" fill="none"></circle>
<circle cx="1791.01" cy="1796.91" r="4" stroke="rgb(0,153,255)" stroke-width="2" fill="none"></circle>
<circle cx="6437.6" cy="2363.05" r="4" stroke="rgb(0,153,255)" stroke-width="2" fill="none"></circle>
<circle cx="1791.5" cy="1805.4" r="4" stroke="rgb(216,255,0)" stroke-width="2" fill="none"></circle>
<circle cx="6512.44" cy="2131.09" r="4" stroke="rgb(216,255,0)" stroke-width="2" fill="none"></circle>
<circle cx="1758.12" cy="1830.45" r="4" stroke="rgb(0,255,80)" stroke-width="2" fill="none"></circle>
<circle cx="7058.71" cy="1405.43" r="4" stroke="rgb(0,255,80)" stroke-width="2" fill="none"></circle>
<circle cx="1763.87" cy="1832.44" r="4" stroke="rgb(255,136,0)" stroke-width="2" fill="none"></circle>
<circle cx="6520.2" cy="1992.93" r="4" stroke="rgb(255,136,0)" stroke-width="2" fill="none"></circle>
<circle cx="1649.09" cy="1915.75" r="4" stroke="rgb(255,0,8)" stroke-width="2" fill="none"></circle>
<circle cx="5789.29" cy="2679.82" r="4" stroke="rgb(255,0,8)" stroke-width="2" fill="none"></circle>
<circle cx="1237.53" cy="1954.46" r="4" stroke="rgb(178,0,255)" stroke-width="2" fill="none"></circle>
<circle cx="5973.12" cy="1238.95" r="4" stroke="rgb(178,0,255)" stroke-width="2" fill="none"></circle>
<circle cx="1245" cy="2075" r="4" stroke="rgb(0,67,255)" stroke-width="2" fill="none"></circle>
<circle cx="6423.34" cy="2924.07" r="4" stroke="rgb(0,67,255)" stroke-width="2" fill="none"></circle>
<circle cx="2799.29" cy="2119.12" r="4" stroke="rgb(255,0,72)" stroke-width="2" fill="none"></circle>
<circle cx="5788.51" cy="2492.13" r="4" stroke="rgb(255,0,72)" stroke-width="2" fill="none"></circle>
<circle cx="2757.77" cy="2219.57" r="4" stroke="rgb(174,255,0)" stroke-width="2" fill="none"></circle>
<circle cx="6633.82" cy="1980.86" r="4" stroke="rgb(174,255,0)" stroke-width="2" fill="none"></circle>
<circle cx="2496.8" cy="2243.9" r="4" stroke="rgb(255,174,0)" stroke-width="2" fill="none"></circle>
<circle cx="5892.59" cy="2302.54" r="4" stroke="rgb(255,174,0)" stroke-width="2" fill="none"></circle>
<circle cx="2542.84" cy="2249.18" r="4" stroke="rgb(255,55,0)" stroke-width="2" fill="none"></circle>
<circle cx="5867.5" cy="2239.63" r="4" stroke="rgb(255,55,0)" stroke-width="2" fill="none"></circle>
<circle cx="2735.49" cy="2257.06" r="4" stroke="rgb(255,93,0)" stroke-width="2" fill="none"></circle>
<circle cx="6653.14" cy="1973.8" r="4" stroke="rgb(255,93,0)" stroke-width="2" fill="none"></circle>
<circle cx="2545.94" cy="2266.59" r="4" stroke="rgb(255,8,0)" stroke-width="2" fill="none"></circle>
<circle cx="6603.21" cy="2840.62" r="4" stroke="rgb(255,8,0)" stroke-width="2" fill="none"></circle>
<circle cx="2541.25" cy="2268.54" r="4" stroke="rgb(0,255,106)" stroke-width="2" fill="none"></circle>
<circle cx="6615.45" cy="2757.2" r="4" stroke="rgb(0,255,106)" stroke-width="2" fill="none"></circle>
<circle cx="2715.5" cy="2272.33" r="4" stroke="rgb(0,182,255)" stroke-width="2" fill="none"></circle>
<circle cx="5942.78" cy="2254.51" r="4" stroke="rgb(0,182,255)" stroke-width="2" fill="none"></circle>
<circle cx="2737.56" cy="2274.86" r="4" stroke="rgb(0,89,255)" stroke-width="2" fill="none"></circle>
<circle cx="5780.47" cy="2541.45" r="4" stroke="rgb(0,89,255)" stroke-width="2" fill="none"></circle>
<circle cx="2610.37" cy="2307.59" r="4" stroke="rgb(255,0,55)" stroke-width="2" fill="none"></circle>
<circle cx="6895.8" cy="2681.11" r="4" stroke="rgb(255,0,55)" stroke-width="2" fill="none"></circle>
<circle cx="1016.05" cy="2309.23" r="4" stroke="rgb(0,255,114)" stroke-width="2" fill="none"></circle>
<circle cx="6538.78" cy="2819.04" r="4" stroke="rgb(0,255,114)" stroke-width="2" fill="none"></circle>
<circle cx="1137.12" cy="2314.79" r="4" stroke="rgb(237,255,0)" stroke-width="2" fill="none"></circle>
<circle cx="6682.27" cy="2233.4" r="4" stroke="rgb(237,255,0)" stroke-width="2" fill="none"></circle>
<circle cx="1138.83" cy="2324.65" r="4" stroke="rgb(0,225,255)" stroke-width="2" fill="none"></circle>
<circle cx="6590.06" cy="2474.57" r="4" stroke="rgb(0,225,255)" stroke-width="2" fill="none"></circle>
<circle cx="2309.16" cy="2341.64" r="4" stroke="rgb(102,0,255)" stroke-width="2" fill="none"></circle>
<circle cx="6851.73" cy="1422.7" r="4" stroke="rgb(102,0,255)" stroke-width="2" fill="none"></circle>
<circle cx="1143.21" cy="2341.74" r="4" stroke="rgb(0,101,255)" stroke-width="2" fill="none"></circle>
<circle cx="6620.89" cy="1697.1" r="4" stroke="rgb(0,101,255)" stroke-width="2" fill="none"></circle>
<circle cx="1063.66" cy="2358.42" r="4" stroke="rgb(0,255,55)" stroke-width="2" fill="none"></circle>
<circle cx="5898.57" cy="1294.42" r="4" stroke="rgb(0,255,55)" stroke-width="2" fill="none"></circle>
<circle cx="1113.52" cy="2364.82" r="4" stroke="rgb(97,0,255)" stroke-width="2" fill="none"></circle>
<circle cx="6189.55" cy="2488.84" r="4" stroke="rgb(97,0,255)" stroke-width="2" fill="none"></circle>
<circle cx="1764.23" cy="2638.25" r="4" stroke="rgb(0,242,255)" stroke-width="2" fill="none"></circle>
<circle cx="6780.79" cy="1139.76" r="4" stroke="rgb(0,242,255)" stroke-width="2" fill="none"></circle>
</svg>