<?xml version="1.0" standalone="yes"?>
<!-- SVG graphic -->
<svg xmlns='http://www.w3.org/2000/svg' xmlns:xlink='http://www.w3.org/1999/xlink'
width="8064px" height="3024px" preserveAspectRatio="xMinYMin meet" viewBox="0 0 8064 3024" version="1.1">
<image x="0" y="0" width="4032px" height="3024px" opacity="1" xlink:href="/home/jeong/Code/2D-to-3D-Modeling-using-AI/Make3D/Image/20200227_180639.jpg"/>
<image x="4032" y="0" width="4032px" height="3024px" opacity="1" xlink:href="/home/jeong/Code/2D-to-3D-Modeling-using-AI/Make3D/Image/20200227_180651.jpg"/>
<polyline points="2188.44,802.68,6478.39,1688.37" stroke="rgb(255,0,97)" stroke-width="2" fill="none"></polyline>
<polyline points="1560.72,1835.75,5642.74,1341.49" stroke="rgb(0,255,8)" stroke-width="2" fill="none"></polyline>
<polyline points="1339.63,1118.81,6713.79,1978.67" stroke="rgb(0,255,42)" stroke-width="2" fill="none"></polyline>
<polyline points="1191.18,1841.72,5714.28,1754.92" stroke="rgb(186,0,255)" stroke-width="2" fill="none"></polyline>
<polyline points="1302.02,1458.14,7108.89,1168.74" stroke="rgb(0,255,50)" stroke-width="2" fill="none"></polyline>
<polyline points="2027.76,1889.25,6244.15,2009.36" stroke="rgb(0,8,255)" stroke-width="2" fill="none"></polyline>
<polyline points="1736.88,790.199,6584.34,1770.94" stroke="rgb(0,255,12)" stroke-width="2" fill="none"></polyline>
<polyline points="1281.05,1573.98,5731.11,1773.43" stroke="rgb(255,0,131)" stroke-width="2" fill="none"></polyline>
<polyline points="1736.88,790.199,6625.04,1779.67" stroke="rgb(255,0,72)" stroke-width="2" fill="none"></polyline>
<polyline points="1736.88,790.199,6411.95,1500.12" stroke="rgb(0,255,16)" stroke-width="2" fill="none"></polyline>
<polyline points="1285.55,1064.06,6695.27,2035.09" stroke="rgb(97,255,0)" stroke-width="2" fill="none"></polyline>
<polyline points="1232.78,1112.21,6105.16,2044.76" stroke="rgb(255,0,165)" stroke-width="2" fill="none"></polyline>
<polyline points="2013,997.089,7042.06,1843.43" stroke="rgb(250,0,255)" stroke-width="2" fill="none"></polyline>
<polyline points="2307.83,906.779,6247.06,1803.54" stroke="rgb(8,0,255)" stroke-width="2" fill="none"></polyline>
<polyline points="2027.76,1889.25,6799.48,1467.75" stroke="rgb(80,0,255)" stroke-width="2" fill="none"></polyline>
<polyline points="1401.19,2057.06,5658.74,1411.79" stroke="rgb(255,170,0)" stroke-width="2" fill="none"></polyline>
<polyline points="1736.88,790.199,6849.06,1555.25" stroke="rgb(187,255,0)" stroke-width="2" fill="none"></polyline>
<polyline points="1736.88,790.199,6114.58,1842.12" stroke="rgb(148,255,0)" stroke-width="2" fill="none"></polyline>
<polyline points="2480.13,973.557,6853.1,1616.72" stroke="rgb(0,212,255)" stroke-width="2" fill="none"></polyline>
<polyline points="850.112,930.864,6189.94,1641.97" stroke="rgb(0,21,255)" stroke-width="2" fill="none"></polyline>
<polyline points="2642.92,1424.95,7115.51,1650.23" stroke="rgb(0,255,233)" stroke-width="2" fill="none"></polyline>
<polyline points="1233.21,1131.85,5999.83,1999.88" stroke="rgb(255,238,0)" stroke-width="2" fill="none"></polyline>
<polyline points="2490.77,950.009,6409.17,1936.4" stroke="rgb(8,255,0)" stroke-width="2" fill="none"></polyline>
<polyline points="851.599,1238.18,6105.8,2031.71" stroke="rgb(0,161,255)" stroke-width="2" fill="none"></polyline>
<polyline points="1358.47,1524.13,6067.51,2058.79" stroke="rgb(255,174,0)" stroke-width="2" fill="none"></polyline>
<polyline points="1337.08,1218.58,5612,1279.55" stroke="rgb(174,255,0)" stroke-width="2" fill="none"></polyline>
<polyline points="1589.12,1319.13,6702.06,915.952" stroke="rgb(233,255,0)" stroke-width="2" fill="none"></polyline>
<polyline points="765.655,1167.16,5639.08,1051.99" stroke="rgb(0,255,199)" stroke-width="2" fill="none"></polyline>
<polyline points="1443.78,1837.79,5681.27,1743.71" stroke="rgb(255,221,0)" stroke-width="2" fill="none"></polyline>
<polyline points="2070.22,1101.09,5768.52,1941.19" stroke="rgb(255,89,0)" stroke-width="2" fill="none"></polyline>
<polyline points="1241.75,910.295,6613.1,1549.14" stroke="rgb(102,0,255)" stroke-width="2" fill="none"></polyline>
<polyline points="1406.28,2060.52,5875.22,1723.83" stroke="rgb(93,0,255)" stroke-width="2" fill="none"></polyline>
<polyline points="1307.32,1105.77,6474.81,1737.9" stroke="rgb(0,255,97)" stroke-width="2" fill="none"></polyline>
<polyline points="1680.73,1111.53,5866.65,1955.64" stroke="rgb(110,0,255)" stroke-width="2" fill="none"></polyline>
<circle cx="2188.44" cy="802.68" r="4" stroke="rgb(255,0,97)" stroke-width="2" fill="none"></circle>
<circle cx="6478.39" cy="1688.37" r="4" stroke="rgb(255,0,97)" stroke-width="2" fill="none"></circle>
<circle cx="1560.72" cy="1835.75" r="4" stroke="rgb(0,255,8)" stroke-width="2" fill="none"></circle>
<circle cx="5642.74" cy="1341.49" r="4" stroke="rgb(0,255,8)" stroke-width="2" fill="none"></circle>
<circle cx="1339.63" cy="1118.81" r="4" stroke="rgb(0,255,42)" stroke-width="2" fill="none"></circle>
<circle cx="6713.79" cy="1978.67" r="4" stroke="rgb(0,255,42)" stroke-width="2" fill="none"></circle>
<circle cx="1191.18" cy="1841.72" r="4" stroke="rgb(186,0,255)" stroke-width="2" fill="none"></circle>
<circle cx="5714.28" cy="1754.92" r="4" stroke="rgb(186,0,255)" stroke-width="2" fill="none"></circle>
<circle cx="1302.02" cy="1458.14" r="4" stroke="rgb(0,255,50)" stroke-width="2" fill="none"></circle>
<circle cx="7108.89" cy="1168.74" r="4" stroke="rgb(0,255,50)" stroke-width="2" fill="none"></circle>
<circle cx="2027.76" cy="1889.25" r="4" stroke="rgb(0,8,255)" stroke-width="2" fill="none"></circle>
<circle cx="6244.15" cy="2009.36" r="4" stroke="rgb(0,8,255)" stroke-width="2" fill="none"></circle>
<circle cx="1736.88" cy="790.199" r="4" stroke="rgb(0,255,12)" stroke-width="2" fill="none"></circle>
<circle cx="6584.34" cy="1770.94" r="4" stroke="rgb(0,255,12)" stroke-width="2" fill="none"></circle>
<circle cx="1281.05" cy="1573.98" r="4" stroke="rgb(255,0,131)" stroke-width="2" fill="none"></circle>
<circle cx="5731.11" cy="1773.43" r="4" stroke="rgb(255,0,131)" stroke-width="2" fill="none"></circle>
<circle cx="1736.88" cy="790.199" r="4" stroke="rgb(255,0,72)" stroke-width="2" fill="none"></circle>
<circle cx="6625.04" cy="1779.67" r="4" stroke="rgb(255,0,72)" stroke-width="2" fill="none"></circle>
<circle cx="1736.88" cy="790.199" r="4" stroke="rgb(0,255,16)" stroke-width="2" fill="none"></circle>
<circle cx="6411.95" cy="1500.12" r="4" stroke="rgb(0,255,16)" stroke-width="2" fill="none"></circle>
<circle cx="1285.55" cy="1064.06" r="4" stroke="rgb(97,255,0)" stroke-width="2" fill="none"></circle>
<circle cx="6695.27" cy="2035.09" r="4" stroke="rgb(97,255,0)" stroke-width="2" fill="none"></circle>
<circle cx="1232.78" cy="1112.21" r="4" stroke="rgb(255,0,165)" stroke-width="2" fill="none"></circle>
<circle cx="6105.16" cy="2044.76" r="4" stroke="rgb(255,0,165)" stroke-width="2" fill="none"></circle>
<circle cx="2013" cy="997.089" r="4" stroke="rgb(250,0,255)" stroke-width="2" fill="none"></circle>
<circle cx="7042.06" cy="1843.43" r="4" stroke="rgb(250,0,255)" stroke-width="2" fill="none"></circle>
<circle cx="2307.83" cy="906.779" r="4" stroke="rgb(8,0,255)" stroke-width="2" fill="none"></circle>
<circle cx="6247.06" cy="1803.54" r="4" stroke="rgb(8,0,255)" stroke-width="2" fill="none"></circle>
<circle cx="2027.76" cy="1889.25" r="4" stroke="rgb(80,0,255)" stroke-width="2" fill="none"></circle>
<circle cx="6799.48" cy="1467.75" r="4" stroke="rgb(80,0,255)" stroke-width="2" fill="none"></circle>
<circle cx="1401.19" cy="2057.06" r="4" stroke="rgb(255,170,0)" stroke-width="2" fill="none"></circle>
<circle cx="5658.74" cy="1411.79" r="4" stroke="rgb(255,170,0)" stroke-width="2" fill="none"></circle>
<circle cx="1736.88" cy="790.199" r="4" stroke="rgb(187,255,0)" stroke-width="2" fill="none"></circle>
<circle cx="6849.06" cy="1555.25" r="4" stroke="rgb(187,255,0)" stroke-width="2" fill="none"></circle>
<circle cx="1736.88" cy="790.199" r="4" stroke="rgb(148,255,0)" stroke-width="2" fill="none"></circle>
<circle cx="6114.58" cy="1842.12" r="4" stroke="rgb(148,255,0)" stroke-width="2" fill="none"></circle>
<circle cx="2480.13" cy="973.557" r="4" stroke="rgb(0,212,255)" stroke-width="2" fill="none"></circle>
<circle cx="6853.1" cy="1616.72" r="4" stroke="rgb(0,212,255)" stroke-width="2" fill="none"></circle>
<circle cx="850.112" cy="930.864" r="4" stroke="rgb(0,21,255)" stroke-width="2" fill="none"></circle>
<circle cx="6189.94" cy="1641.97" r="4" stroke="rgb(0,21,255)" stroke-width="2" fill="none"></circle>
<circle cx="2642.92" cy="1424.95" r="4" stroke="rgb(0,255,233)" stroke-width="2" fill="none"></circle>
<circle cx="7115.51" cy="1650.23" r="4" stroke="rgb(0,255,233)" stroke-width="2" fill="none"></circle>
<circle cx="1233.21" cy="1131.85" r="4" stroke="rgb(255,238,0)" stroke-width="2" fill="none"></circle>
<circle cx="5999.83" cy="1999.88" r="4" stroke="rgb(255,238,0)" stroke-width="2" fill="none"></circle>
<circle cx="2490.77" cy="950.009" r="4" stroke="rgb(8,255,0)" stroke-width="2" fill="none"></circle>
<circle cx="6409.17" cy="1936.4" r="4" stroke="rgb(8,255,0)" stroke-width="2" fill="none"></circle>
<circle cx="851.599" cy="1238.18" r="4" stroke="rgb(0,161,255)" stroke-width="2" fill="none"></circle>
<circle cx="6105.8" cy="2031.71" r="4" stroke="rgb(0,161,255)" stroke-width="2" fill="none"></circle>
<circle cx="1358.47" cy="1524.13" r="4" stroke="rgb(255,174,0)" stroke-width="2" fill="none"></circle>
<circle cx="6067.51" cy="2058.79" r="4" stroke="rgb(255,174,0)" stroke-width="2" fill="none"></circle>
<circle cx="1337.08" cy="1218.58" r="4" stroke="rgb(174,255,0)" stroke-width="2" fill="none"></circle>
<circle cx="5612" cy="1279.55" r="4" stroke="rgb(174,255,0)" stroke-width="2" fill="none"></circle>
<circle cx="1589.12" cy="1319.13" r="4" stroke="rgb(233,255,0)" stroke-width="2" fill="none"></circle>
<circle cx="6702.06" cy="915.952" r="4" stroke="rgb(233,255,0)" stroke-width="2" fill="none"></circle>
<circle cx="765.655" cy="1167.16" r="4" stroke="rgb(0,255,199)" stroke-width="2" fill="none"></circle>
<circle cx="5639.08" cy="1051.99" r="4" stroke="rgb(0,255,199)" stroke-width="2" fill="none"></circle>
<circle cx="1443.78" cy="1837.79" r="4" stroke="rgb(255,221,0)" stroke-width="2" fill="none"></circle>
<circle cx="5681.27" cy="1743.71" r="4" stroke="rgb(255,221,0)" stroke-width="2" fill="none"></circle>
<circle cx="2070.22" cy="1101.09" r="4" stroke="rgb(255,89,0)" stroke-width="2" fill="none"></circle>
<circle cx="5768.52" cy="1941.19" r="4" stroke="rgb(255,89,0)" stroke-width="2" fill="none"></circle>
<circle cx="1241.75" cy="910.295" r="4" stroke="rgb(102,0,255)" stroke-width="2" fill="none"></circle>
<circle cx="6613.1" cy="1549.14" r="4" stroke="rgb(102,0,255)" stroke-width="2" fill="none"></circle>
<circle cx="1406.28" cy="2060.52" r="4" stroke="rgb(93,0,255)" stroke-width="2" fill="none"></circle>
<circle cx="5875.22" cy="1723.83" r="4" stroke="rgb(93,0,255)" stroke-width="2" fill="none"></circle>
<circle cx="1307.32" cy="1105.77" r="4" stroke="rgb(0,255,97)" stroke-width="2" fill="none"></circle>
<circle cx="6474.81" cy="1737.9" r="4" stroke="rgb(0,255,97)" stroke-width="2" fill="none"></circle>
<circle cx="1680.73" cy="1111.53" r="4" stroke="rgb(110,0,255)" stroke-width="2" fill="none"></circle>
<circle cx="5866.65" cy="1955.64" r="4" stroke="rgb(110,0,255)" stroke-width="2" fill="none"></circle>
</svg>