<?xml version="1.0" standalone="yes"?>
<!-- SVG graphic -->
<svg xmlns='http://www.w3.org/2000/svg' xmlns:xlink='http://www.w3.org/1999/xlink'
width="8064px" height="3024px" preserveAspectRatio="xMinYMin meet" viewBox="0 0 8064 3024" version="1.1">
<image x="0" y="0" width="4032px" height="3024px" opacity="1" xlink:href="/home/jeong/Code/2D-to-3D-Modeling-using-AI/Make3D/Image/20200227_180639.jpg"/>
<image x="4032" y="0" width="4032px" height="3024px" opacity="1" xlink:href="/home/jeong/Code/2D-to-3D-Modeling-using-AI/Make3D/Image/20200227_180741.jpg"/>
<polyline points="1738.13,797.138,5460.31,791.723" stroke="rgb(255,153,0)" stroke-width="2" fill="none"></polyline>
<polyline points="1973.2,1362.97,5652.05,668.024" stroke="rgb(255,0,0)" stroke-width="2" fill="none"></polyline>
<polyline points="1973.2,1362.97,5652.05,668.024" stroke="rgb(97,255,0)" stroke-width="2" fill="none"></polyline>
<polyline points="732.481,962.943,6368.59,1377.88" stroke="rgb(89,255,0)" stroke-width="2" fill="none"></polyline>
<polyline points="2055.29,1678.52,5629.45,793.709" stroke="rgb(0,255,199)" stroke-width="2" fill="none"></polyline>
<polyline points="1979.07,1257.33,5686.37,671.531" stroke="rgb(255,110,0)" stroke-width="2" fill="none"></polyline>
<polyline points="2055.29,1678.52,5629.45,793.709" stroke="rgb(255,0,204)" stroke-width="2" fill="none"></polyline>
<polyline points="1660.28,1295.32,5922.03,676.718" stroke="rgb(4,0,255)" stroke-width="2" fill="none"></polyline>
<polyline points="1959.04,1497.51,5197.6,237.027" stroke="rgb(118,0,255)" stroke-width="2" fill="none"></polyline>
<polyline points="1858.55,1089.99,5751.4,521.468" stroke="rgb(255,0,8)" stroke-width="2" fill="none"></polyline>
<polyline points="1449.18,1810.16,4470.11,804.9" stroke="rgb(255,106,0)" stroke-width="2" fill="none"></polyline>
<polyline points="2511.28,865.86,5373.7,2573.46" stroke="rgb(0,255,89)" stroke-width="2" fill="none"></polyline>
<polyline points="2916.66,1386.51,5488.26,808.23" stroke="rgb(0,212,255)" stroke-width="2" fill="none"></polyline>
<polyline points="1277.24,1129.36,6750.7,528.289" stroke="rgb(255,0,8)" stroke-width="2" fill="none"></polyline>
<polyline points="1897.85,1445.18,5632.93,807.669" stroke="rgb(246,255,0)" stroke-width="2" fill="none"></polyline>
<polyline points="1656.71,937.231,5743.17,809.008" stroke="rgb(0,174,255)" stroke-width="2" fill="none"></polyline>
<polyline points="2761.55,1333.56,5180.4,329.45" stroke="rgb(161,0,255)" stroke-width="2" fill="none"></polyline>
<polyline points="1979.91,1867.82,5862.49,688.662" stroke="rgb(110,0,255)" stroke-width="2" fill="none"></polyline>
<polyline points="1979.91,1867.82,5862.49,688.662" stroke="rgb(255,29,0)" stroke-width="2" fill="none"></polyline>
<polyline points="2426.65,973.612,4815.3,821.827" stroke="rgb(255,12,0)" stroke-width="2" fill="none"></polyline>
<polyline points="2004.57,1659.68,5644.05,374.036" stroke="rgb(63,255,0)" stroke-width="2" fill="none"></polyline>
<polyline points="2032.26,1615.25,5497.89,708.203" stroke="rgb(0,255,148)" stroke-width="2" fill="none"></polyline>
<polyline points="1274.73,2258.79,5245.14,1446.32" stroke="rgb(255,0,131)" stroke-width="2" fill="none"></polyline>
<polyline points="1979.07,1257.33,5508.22,543.4" stroke="rgb(0,157,255)" stroke-width="2" fill="none"></polyline>
<polyline points="2032.26,1615.25,6797.03,543.252" stroke="rgb(0,178,255)" stroke-width="2" fill="none"></polyline>
<polyline points="2919.78,1506.49,6797.03,543.252" stroke="rgb(246,0,255)" stroke-width="2" fill="none"></polyline>
<polyline points="2936.05,1627.63,5449.13,549.827" stroke="rgb(114,0,255)" stroke-width="2" fill="none"></polyline>
<polyline points="2004.57,1659.68,5734.11,855.653" stroke="rgb(203,0,255)" stroke-width="2" fill="none"></polyline>
<polyline points="2606.24,1211.41,5698.28,427.68" stroke="rgb(0,255,8)" stroke-width="2" fill="none"></polyline>
<polyline points="1905.05,1372.94,5503.62,560.194" stroke="rgb(255,0,25)" stroke-width="2" fill="none"></polyline>
<polyline points="1325.01,1000.95,5817.24,430.483" stroke="rgb(169,255,0)" stroke-width="2" fill="none"></polyline>
<polyline points="1893.99,1383.3,5487.44,569.221" stroke="rgb(0,255,161)" stroke-width="2" fill="none"></polyline>
<polyline points="1979.91,1867.82,5536.4,582.058" stroke="rgb(255,0,25)" stroke-width="2" fill="none"></polyline>
<polyline points="1979.91,1867.82,5536.4,582.058" stroke="rgb(255,208,0)" stroke-width="2" fill="none"></polyline>
<polyline points="1881.24,1392.66,5651.24,597.161" stroke="rgb(0,255,38)" stroke-width="2" fill="none"></polyline>
<polyline points="1535.66,1005.7,5801.09,910.747" stroke="rgb(255,144,0)" stroke-width="2" fill="none"></polyline>
<polyline points="1535.66,1005.7,5867,915.113" stroke="rgb(191,255,0)" stroke-width="2" fill="none"></polyline>
<polyline points="2561.41,1073.95,5305.79,2977.91" stroke="rgb(165,255,0)" stroke-width="2" fill="none"></polyline>
<polyline points="2905.12,1638.15,6734.92,491.95" stroke="rgb(148,0,255)" stroke-width="2" fill="none"></polyline>
<polyline points="2051.74,1611.56,6837.25,491.881" stroke="rgb(0,101,255)" stroke-width="2" fill="none"></polyline>
<polyline points="1543.08,994.738,5473.81,495.168" stroke="rgb(174,255,0)" stroke-width="2" fill="none"></polyline>
<polyline points="2747.31,1661.6,5510.78,498.187" stroke="rgb(0,255,220)" stroke-width="2" fill="none"></polyline>
<polyline points="2004.57,1659.68,5597.46,837.429" stroke="rgb(255,0,12)" stroke-width="2" fill="none"></polyline>
<polyline points="1892.48,1370.97,5646.14,633.307" stroke="rgb(0,255,93)" stroke-width="2" fill="none"></polyline>
<polyline points="2763.57,1518.27,5346.74,2041.1" stroke="rgb(0,255,212)" stroke-width="2" fill="none"></polyline>
<polyline points="2936.05,1627.63,5551.91,642.557" stroke="rgb(255,250,0)" stroke-width="2" fill="none"></polyline>
<polyline points="2969.7,1757.83,4860.53,516.276" stroke="rgb(0,114,255)" stroke-width="2" fill="none"></polyline>
<polyline points="1555.77,938.561,5596.06,864.934" stroke="rgb(131,255,0)" stroke-width="2" fill="none"></polyline>
<polyline points="1656.71,937.231,6819.28,529.026" stroke="rgb(0,178,255)" stroke-width="2" fill="none"></polyline>
<polyline points="1855.82,1267.47,5546.34,677.256" stroke="rgb(0,85,255)" stroke-width="2" fill="none"></polyline>
<polyline points="2113.69,1707.91,5474.73,558.208" stroke="rgb(119,255,0)" stroke-width="2" fill="none"></polyline>
<polyline points="1897.85,1445.18,5704.75,558.808" stroke="rgb(255,0,242)" stroke-width="2" fill="none"></polyline>
<polyline points="1839.81,1240.98,5558.39,389.312" stroke="rgb(29,0,255)" stroke-width="2" fill="none"></polyline>
<polyline points="1897.85,1445.18,5709.29,569.284" stroke="rgb(229,0,255)" stroke-width="2" fill="none"></polyline>
<polyline points="2106.81,1639.13,5941.87,1012.52" stroke="rgb(0,255,114)" stroke-width="2" fill="none"></polyline>
<polyline points="1535.66,1005.7,5653.37,929.807" stroke="rgb(255,0,182)" stroke-width="2" fill="none"></polyline>
<polyline points="2936.05,1627.63,5462.52,418.165" stroke="rgb(0,33,255)" stroke-width="2" fill="none"></polyline>
<polyline points="2747.31,1661.6,5027.64,2084.1" stroke="rgb(195,0,255)" stroke-width="2" fill="none"></polyline>
<polyline points="2008.93,1572.67,5568.1,423.457" stroke="rgb(12,255,0)" stroke-width="2" fill="none"></polyline>
<polyline points="1535.66,1005.7,5624.43,935.808" stroke="rgb(0,59,255)" stroke-width="2" fill="none"></polyline>
<polyline points="2747.31,1661.6,5775.02,611.511" stroke="rgb(174,0,255)" stroke-width="2" fill="none"></polyline>
<polyline points="1668.91,931.863,5462.24,615.753" stroke="rgb(0,182,255)" stroke-width="2" fill="none"></polyline>
<polyline points="1973.2,1362.97,5633.24,616.992" stroke="rgb(72,0,255)" stroke-width="2" fill="none"></polyline>
<polyline points="1535.66,1005.7,5574,946.021" stroke="rgb(0,255,114)" stroke-width="2" fill="none"></polyline>
<polyline points="2680.46,1383.48,5709.12,733.472" stroke="rgb(4,255,0)" stroke-width="2" fill="none"></polyline>
<polyline points="1535.66,1005.7,5618.04,957.381" stroke="rgb(255,110,0)" stroke-width="2" fill="none"></polyline>
<polyline points="811.149,934.705,4918.4,2150.5" stroke="rgb(0,250,255)" stroke-width="2" fill="none"></polyline>
<polyline points="2176.16,840.206,6687.3,2158.06" stroke="rgb(0,195,255)" stroke-width="2" fill="none"></polyline>
<polyline points="1865.01,1328.12,5491.54,757.457" stroke="rgb(51,255,0)" stroke-width="2" fill="none"></polyline>
<polyline points="2032.26,1615.25,5478.75,638.885" stroke="rgb(255,0,131)" stroke-width="2" fill="none"></polyline>
<polyline points="2919.78,1506.49,5478.75,638.885" stroke="rgb(255,212,0)" stroke-width="2" fill="none"></polyline>
<polyline points="1979.91,1867.82,5848.6,642.956" stroke="rgb(255,250,0)" stroke-width="2" fill="none"></polyline>
<polyline points="1897.85,1445.18,5588.93,643.51" stroke="rgb(255,55,0)" stroke-width="2" fill="none"></polyline>
<polyline points="1409.66,744.318,6803.47,479.908" stroke="rgb(170,0,255)" stroke-width="2" fill="none"></polyline>
<polyline points="2936.05,1627.63,5645.64,485.767" stroke="rgb(0,165,255)" stroke-width="2" fill="none"></polyline>
<polyline points="1979.91,1867.82,5706.71,662.077" stroke="rgb(0,237,255)" stroke-width="2" fill="none"></polyline>
<polyline points="1979.91,1867.82,5706.71,662.077" stroke="rgb(0,123,255)" stroke-width="2" fill="none"></polyline>
<polyline points="1129.88,1386.67,4957.08,2231.19" stroke="rgb(255,229,0)" stroke-width="2" fill="none"></polyline>
<polyline points="1420.82,914.379,5134.74,1738.97" stroke="rgb(0,255,106)" stroke-width="2" fill="none"></polyline>
<polyline points="1302.02,1458.14,5925.58,2244.15" stroke="rgb(255,208,0)" stroke-width="2" fill="none"></polyline>
<polyline points="2581.05,1075.14,4732.26,891.222" stroke="rgb(0,255,110)" stroke-width="2" fill="none"></polyline>
<polyline points="1896.24,1726.57,4964.9,891.992" stroke="rgb(46,255,0)" stroke-width="2" fill="none"></polyline>
<polyline points="1870.21,1315.12,5743.22,524.429" stroke="rgb(0,63,255)" stroke-width="2" fill="none"></polyline>
<polyline points="1979.91,1867.82,5719.49,700.252" stroke="rgb(110,0,255)" stroke-width="2" fill="none"></polyline>
<polyline points="1535.66,1005.7,5799.98,910.048" stroke="rgb(148,0,255)" stroke-width="2" fill="none"></polyline>
<polyline points="2604.6,939.424,7287.7,1146.2" stroke="rgb(17,0,255)" stroke-width="2" fill="none"></polyline>
<polyline points="1535.66,1005.7,5815.78,910.779" stroke="rgb(106,255,0)" stroke-width="2" fill="none"></polyline>
<polyline points="1955.87,1667.89,5354.32,536.049" stroke="rgb(255,80,0)" stroke-width="2" fill="none"></polyline>
<polyline points="1535.66,1005.7,5739.93,921.297" stroke="rgb(0,255,212)" stroke-width="2" fill="none"></polyline>
<polyline points="1292.27,1580.21,4836.92,1156.6" stroke="rgb(0,114,255)" stroke-width="2" fill="none"></polyline>
<polyline points="1896.24,1726.57,5016.43,936.326" stroke="rgb(25,0,255)" stroke-width="2" fill="none"></polyline>
<polyline points="1896.24,1726.57,5016.43,936.326" stroke="rgb(255,0,157)" stroke-width="2" fill="none"></polyline>
<polyline points="2831.73,1259.12,6973.26,545.98" stroke="rgb(178,0,255)" stroke-width="2" fill="none"></polyline>
<polyline points="1889.43,1516.64,4503.82,737.779" stroke="rgb(0,255,97)" stroke-width="2" fill="none"></polyline>
<polyline points="1897.85,1445.18,5617.49,737.153" stroke="rgb(255,0,72)" stroke-width="2" fill="none"></polyline>
<polyline points="1990.41,1813.15,5566.06,738.812" stroke="rgb(255,174,0)" stroke-width="2" fill="none"></polyline>
<polyline points="1046.29,1401.33,4777.01,968.105" stroke="rgb(0,255,208)" stroke-width="2" fill="none"></polyline>
<polyline points="1897.85,1445.18,5454.14,760.693" stroke="rgb(255,153,0)" stroke-width="2" fill="none"></polyline>
<polyline points="2944.42,1496.64,5453.5,580.198" stroke="rgb(51,255,0)" stroke-width="2" fill="none"></polyline>
<polyline points="2944.42,1496.64,5453.5,580.198" stroke="rgb(0,255,123)" stroke-width="2" fill="none"></polyline>
<polyline points="1979.91,1867.82,5687.68,612.985" stroke="rgb(0,12,255)" stroke-width="2" fill="none"></polyline>
<polyline points="1979.07,1257.33,5668.53,622.223" stroke="rgb(255,127,0)" stroke-width="2" fill="none"></polyline>
<polyline points="1881.24,1392.66,5468.06,646.177" stroke="rgb(0,131,255)" stroke-width="2" fill="none"></polyline>
<polyline points="866.84,848.077,7275.94,2489.29" stroke="rgb(46,0,255)" stroke-width="2" fill="none"></polyline>
<polyline points="2753.48,1568.59,4976.96,2537.73" stroke="rgb(0,246,255)" stroke-width="2" fill="none"></polyline>
<polyline points="928.756,1141.14,5497.14,2600.79" stroke="rgb(178,0,255)" stroke-width="2" fill="none"></polyline>
<polyline points="857.966,1993.68,5602.86,1903.69" stroke="rgb(191,255,0)" stroke-width="2" fill="none"></polyline>
<polyline points="1443.85,1860.55,6646.25,2701.07" stroke="rgb(255,144,0)" stroke-width="2" fill="none"></polyline>
<polyline points="2460.28,962.439,5530.13,1446.05" stroke="rgb(0,131,255)" stroke-width="2" fill="none"></polyline>
<polyline points="1473.14,1307.2,5122.06,1336.21" stroke="rgb(119,255,0)" stroke-width="2" fill="none"></polyline>
<polyline points="1960.52,804.203,5720.4,2745.37" stroke="rgb(255,0,191)" stroke-width="2" fill="none"></polyline>
<polyline points="2187.83,834.604,5639.3,2771.59" stroke="rgb(255,0,21)" stroke-width="2" fill="none"></polyline>
<polyline points="1487.39,1421.95,5335.57,1757.63" stroke="rgb(199,255,0)" stroke-width="2" fill="none"></polyline>
<polyline points="1473.14,1307.2,5132.84,1824.98" stroke="rgb(0,255,254)" stroke-width="2" fill="none"></polyline>
<polyline points="2860.31,1580.91,5414.63,2249" stroke="rgb(0,255,55)" stroke-width="2" fill="none"></polyline>
<polyline points="2860.31,1580.91,5163.03,2609.88" stroke="rgb(255,0,46)" stroke-width="2" fill="none"></polyline>
<polyline points="1874.77,1097.38,5674.39,719.489" stroke="rgb(237,255,0)" stroke-width="2" fill="none"></polyline>
<polyline points="1871.27,1616.98,5062.17,751.82" stroke="rgb(0,46,255)" stroke-width="2" fill="none"></polyline>
<polyline points="1871.27,1616.98,5062.17,751.82" stroke="rgb(255,34,0)" stroke-width="2" fill="none"></polyline>
<polyline points="2860.31,1580.91,5397.89,2378.21" stroke="rgb(55,255,0)" stroke-width="2" fill="none"></polyline>
<polyline points="1871.27,1616.98,5087.18,821.666" stroke="rgb(255,0,195)" stroke-width="2" fill="none"></polyline>
<polyline points="1871.27,1616.98,5087.18,821.666" stroke="rgb(59,0,255)" stroke-width="2" fill="none"></polyline>
<polyline points="2131.64,1651.33,5361.36,2630.67" stroke="rgb(255,0,246)" stroke-width="2" fill="none"></polyline>
<polyline points="1896.24,1726.57,4966.04,892.516" stroke="rgb(51,255,0)" stroke-width="2" fill="none"></polyline>
<polyline points="757.881,412.849,5222.24,1192.95" stroke="rgb(123,0,255)" stroke-width="2" fill="none"></polyline>
<polyline points="1535.66,1005.7,5815.85,910.022" stroke="rgb(191,0,255)" stroke-width="2" fill="none"></polyline>
<polyline points="1896.24,1726.57,5045.69,950.548" stroke="rgb(0,255,127)" stroke-width="2" fill="none"></polyline>
<polyline points="1901.14,1355.31,5659.82,616.937" stroke="rgb(255,0,208)" stroke-width="2" fill="none"></polyline>
<polyline points="1901.14,1355.31,5677.33,666.237" stroke="rgb(0,195,255)" stroke-width="2" fill="none"></polyline>
<polyline points="1896.01,1364.61,5649.7,623.164" stroke="rgb(0,255,42)" stroke-width="2" fill="none"></polyline>
<polyline points="1806.52,1156.52,5766.43,579.147" stroke="rgb(84,255,0)" stroke-width="2" fill="none"></polyline>
<polyline points="1258.98,1696.73,6921.68,1354.04" stroke="rgb(208,255,0)" stroke-width="2" fill="none"></polyline>
<polyline points="1891.56,1357.22,5643.77,615.088" stroke="rgb(0,255,169)" stroke-width="2" fill="none"></polyline>
<polyline points="2381.21,1174.98,5781.65,652.112" stroke="rgb(0,250,255)" stroke-width="2" fill="none"></polyline>
<polyline points="1891.56,1357.22,5661.21,665.265" stroke="rgb(255,0,161)" stroke-width="2" fill="none"></polyline>
<polyline points="1896.01,1364.61,5669.45,676.585" stroke="rgb(0,106,255)" stroke-width="2" fill="none"></polyline>
<polyline points="1871.27,1616.98,5000.19,734.902" stroke="rgb(67,255,0)" stroke-width="2" fill="none"></polyline>
<polyline points="2268.64,1684.81,5492.91,700.299" stroke="rgb(123,0,255)" stroke-width="2" fill="none"></polyline>
<polyline points="1764.62,1719.06,5057.01,2811.65" stroke="rgb(38,0,255)" stroke-width="2" fill="none"></polyline>
<polyline points="902.363,1284.05,6236.41,1615.58" stroke="rgb(0,233,255)" stroke-width="2" fill="none"></polyline>
<circle cx="1738.13" cy="797.138" r="4" stroke="rgb(255,153,0)" stroke-width="2" fill="none"></circle>
<circle cx="5460.31" cy="791.723" r="4" stroke="rgb(255,153,0)" stroke-width="2" fill="none"></circle>
<circle cx="1973.2" cy="1362.97" r="4" stroke="rgb(255,0,0)" stroke-width="2" fill="none"></circle>
<circle cx="5652.05" cy="668.024" r="4" stroke="rgb(255,0,0)" stroke-width="2" fill="none"></circle>
<circle cx="1973.2" cy="1362.97" r="4" stroke="rgb(97,255,0)" stroke-width="2" fill="none"></circle>
<circle cx="5652.05" cy="668.024" r="4" stroke="rgb(97,255,0)" stroke-width="2" fill="none"></circle>
<circle cx="732.481" cy="962.943" r="4" stroke="rgb(89,255,0)" stroke-width="2" fill="none"></circle>
<circle cx="6368.59" cy="1377.88" r="4" stroke="rgb(89,255,0)" stroke-width="2" fill="none"></circle>
<circle cx="2055.29" cy="1678.52" r="4" stroke="rgb(0,255,199)" stroke-width="2" fill="none"></circle>
<circle cx="5629.45" cy="793.709" r="4" stroke="rgb(0,255,199)" stroke-width="2" fill="none"></circle>
<circle cx="1979.07" cy="1257.33" r="4" stroke="rgb(255,110,0)" stroke-width="2" fill="none"></circle>
<circle cx="5686.37" cy="671.531" r="4" stroke="rgb(255,110,0)" stroke-width="2" fill="none"></circle>
<circle cx="2055.29" cy="1678.52" r="4" stroke="rgb(255,0,204)" stroke-width="2" fill="none"></circle>
<circle cx="5629.45" cy="793.709" r="4" stroke="rgb(255,0,204)" stroke-width="2" fill="none"></circle>
<circle cx="1660.28" cy="1295.32" r="4" stroke="rgb(4,0,255)" stroke-width="2" fill="none"></circle>
<circle cx="5922.03" cy="676.718" r="4" stroke="rgb(4,0,255)" stroke-width="2" fill="none"></circle>
<circle cx="1959.04" cy="1497.51" r="4" stroke="rgb(118,0,255)" stroke-width="2" fill="none"></circle>
<circle cx="5197.6" cy="237.027" r="4" stroke="rgb(118,0,255)" stroke-width="2" fill="none"></circle>
<circle cx="1858.55" cy="1089.99" r="4" stroke="rgb(255,0,8)" stroke-width="2" fill="none"></circle>
<circle cx="5751.4" cy="521.468" r="4" stroke="rgb(255,0,8)" stroke-width="2" fill="none"></circle>
<circle cx="1449.18" cy="1810.16" r="4" stroke="rgb(255,106,0)" stroke-width="2" fill="none"></circle>
<circle cx="4470.11" cy="804.9" r="4" stroke="rgb(255,106,0)" stroke-width="2" fill="none"></circle>
<circle cx="2511.28" cy="865.86" r="4" stroke="rgb(0,255,89)" stroke-width="2" fill="none"></circle>
<circle cx="5373.7" cy="2573.46" r="4" stroke="rgb(0,255,89)" stroke-width="2" fill="none"></circle>
<circle cx="2916.66" cy="1386.51" r="4" stroke="rgb(0,212,255)" stroke-width="2" fill="none"></circle>
<circle cx="5488.26" cy="808.23" r="4" stroke="rgb(0,212,255)" stroke-width="2" fill="none"></circle>
<circle cx="1277.24" cy="1129.36" r="4" stroke="rgb(255,0,8)" stroke-width="2" fill="none"></circle>
<circle cx="6750.7" cy="528.289" r="4" stroke="rgb(255,0,8)" stroke-width="2" fill="none"></circle>
<circle cx="1897.85" cy="1445.18" r="4" stroke="rgb(246,255,0)" stroke-width="2" fill="none"></circle>
<circle cx="5632.93" cy="807.669" r="4" stroke="rgb(246,255,0)" stroke-width="2" fill="none"></circle>
<circle cx="1656.71" cy="937.231" r="4" stroke="rgb(0,174,255)" stroke-width="2" fill="none"></circle>
<circle cx="5743.17" cy="809.008" r="4" stroke="rgb(0,174,255)" stroke-width="2" fill="none"></circle>
<circle cx="2761.55" cy="1333.56" r="4" stroke="rgb(161,0,255)" stroke-width="2" fill="none"></circle>
<circle cx="5180.4" cy="329.45" r="4" stroke="rgb(161,0,255)" stroke-width="2" fill="none"></circle>
<circle cx="1979.91" cy="1867.82" r="4" stroke="rgb(110,0,255)" stroke-width="2" fill="none"></circle>
<circle cx="5862.49" cy="688.662" r="4" stroke="rgb(110,0,255)" stroke-width="2" fill="none"></circle>
<circle cx="1979.91" cy="1867.82" r="4" stroke="rgb(255,29,0)" stroke-width="2" fill="none"></circle>
<circle cx="5862.49" cy="688.662" r="4" stroke="rgb(255,29,0)" stroke-width="2" fill="none"></circle>
<circle cx="2426.65" cy="973.612" r="4" stroke="rgb(255,12,0)" stroke-width="2" fill="none"></circle>
<circle cx="4815.3" cy="821.827" r="4" stroke="rgb(255,12,0)" stroke-width="2" fill="none"></circle>
<circle cx="2004.57" cy="1659.68" r="4" stroke="rgb(63,255,0)" stroke-width="2" fill="none"></circle>
<circle cx="5644.05" cy="374.036" r="4" stroke="rgb(63,255,0)" stroke-width="2" fill="none"></circle>
<circle cx="2032.26" cy="1615.25" r="4" stroke="rgb(0,255,148)" stroke-width="2" fill="none"></circle>
<circle cx="5497.89" cy="708.203" r="4" stroke="rgb(0,255,148)" stroke-width="2" fill="none"></circle>
<circle cx="1274.73" cy="2258.79" r="4" stroke="rgb(255,0,131)" stroke-width="2" fill="none"></circle>
<circle cx="5245.14" cy="1446.32" r="4" stroke="rgb(255,0,131)" stroke-width="2" fill="none"></circle>
<circle cx="1979.07" cy="1257.33" r="4" stroke="rgb(0,157,255)" stroke-width="2" fill="none"></circle>
<circle cx="5508.22" cy="543.4" r="4" stroke="rgb(0,157,255)" stroke-width="2" fill="none"></circle>
<circle cx="2032.26" cy="1615.25" r="4" stroke="rgb(0,178,255)" stroke-width="2" fill="none"></circle>
<circle cx="6797.03" cy="543.252" r="4" stroke="rgb(0,178,255)" stroke-width="2" fill="none"></circle>
<circle cx="2919.78" cy="1506.49" r="4" stroke="rgb(246,0,255)" stroke-width="2" fill="none"></circle>
<circle cx="6797.03" cy="543.252" r="4" stroke="rgb(246,0,255)" stroke-width="2" fill="none"></circle>
<circle cx="2936.05" cy="1627.63" r="4" stroke="rgb(114,0,255)" stroke-width="2" fill="none"></circle>
<circle cx="5449.13" cy="549.827" r="4" stroke="rgb(114,0,255)" stroke-width="2" fill="none"></circle>
<circle cx="2004.57" cy="1659.68" r="4" stroke="rgb(203,0,255)" stroke-width="2" fill="none"></circle>
<circle cx="5734.11" cy="855.653" r="4" stroke="rgb(203,0,255)" stroke-width="2" fill="none"></circle>
<circle cx="2606.24" cy="1211.41" r="4" stroke="rgb(0,255,8)" stroke-width="2" fill="none"></circle>
<circle cx="5698.28" cy="427.68" r="4" stroke="rgb(0,255,8)" stroke-width="2" fill="none"></circle>
<circle cx="1905.05" cy="1372.94" r="4" stroke="rgb(255,0,25)" stroke-width="2" fill="none"></circle>
<circle cx="5503.62" cy="560.194" r="4" stroke="rgb(255,0,25)" stroke-width="2" fill="none"></circle>
<circle cx="1325.01" cy="1000.95" r="4" stroke="rgb(169,255,0)" stroke-width="2" fill="none"></circle>
<circle cx="5817.24" cy="430.483" r="4" stroke="rgb(169,255,0)" stroke-width="2" fill="none"></circle>
<circle cx="1893.99" cy="1383.3" r="4" stroke="rgb(0,255,161)" stroke-width="2" fill="none"></circle>
<circle cx="5487.44" cy="569.221" r="4" stroke="rgb(0,255,161)" stroke-width="2" fill="none"></circle>
<circle cx="1979.91" cy="1867.82" r="4" stroke="rgb(255,0,25)" stroke-width="2" fill="none"></circle>
<circle cx="5536.4" cy="582.058" r="4" stroke="rgb(255,0,25)" stroke-width="2" fill="none"></circle>
<circle cx="1979.91" cy="1867.82" r="4" stroke="rgb(255,208,0)" stroke-width="2" fill="none"></circle>
<circle cx="5536.4" cy="582.058" r="4" stroke="rgb(255,208,0)" stroke-width="2" fill="none"></circle>
<circle cx="1881.24" cy="1392.66" r="4" stroke="rgb(0,255,38)" stroke-width="2" fill="none"></circle>
<circle cx="5651.24" cy="597.161" r="4" stroke="rgb(0,255,38)" stroke-width="2" fill="none"></circle>
<circle cx="1535.66" cy="1005.7" r="4" stroke="rgb(255,144,0)" stroke-width="2" fill="none"></circle>
<circle cx="5801.09" cy="910.747" r="4" stroke="rgb(255,144,0)" stroke-width="2" fill="none"></circle>
<circle cx="1535.66" cy="1005.7" r="4" stroke="rgb(191,255,0)" stroke-width="2" fill="none"></circle>
<circle cx="5867" cy="915.113" r="4" stroke="rgb(191,255,0)" stroke-width="2" fill="none"></circle>
<circle cx="2561.41" cy="1073.95" r="4" stroke="rgb(165,255,0)" stroke-width="2" fill="none"></circle>
<circle cx="5305.79" cy="2977.91" r="4" stroke="rgb(165,255,0)" stroke-width="2" fill="none"></circle>
<circle cx="2905.12" cy="1638.15" r="4" stroke="rgb(148,0,255)" stroke-width="2" fill="none"></circle>
<circle cx="6734.92" cy="491.95" r="4" stroke="rgb(148,0,255)" stroke-width="2" fill="none"></circle>
<circle cx="2051.74" cy="1611.56" r="4" stroke="rgb(0,101,255)" stroke-width="2" fill="none"></circle>
<circle cx="6837.25" cy="491.881" r="4" stroke="rgb(0,101,255)" stroke-width="2" fill="none"></circle>
<circle cx="1543.08" cy="994.738" r="4" stroke="rgb(174,255,0)" stroke-width="2" fill="none"></circle>
<circle cx="5473.81" cy="495.168" r="4" stroke="rgb(174,255,0)" stroke-width="2" fill="none"></circle>
<circle cx="2747.31" cy="1661.6" r="4" stroke="rgb(0,255,220)" stroke-width="2" fill="none"></circle>
<circle cx="5510.78" cy="498.187" r="4" stroke="rgb(0,255,220)" stroke-width="2" fill="none"></circle>
<circle cx="2004.57" cy="1659.68" r="4" stroke="rgb(255,0,12)" stroke-width="2" fill="none"></circle>
<circle cx="5597.46" cy="837.429" r="4" stroke="rgb(255,0,12)" stroke-width="2" fill="none"></circle>
<circle cx="1892.48" cy="1370.97" r="4" stroke="rgb(0,255,93)" stroke-width="2" fill="none"></circle>
<circle cx="5646.14" cy="633.307" r="4" stroke="rgb(0,255,93)" stroke-width="2" fill="none"></circle>
<circle cx="2763.57" cy="1518.27" r="4" stroke="rgb(0,255,212)" stroke-width="2" fill="none"></circle>
<circle cx="5346.74" cy="2041.1" r="4" stroke="rgb(0,255,212)" stroke-width="2" fill="none"></circle>
<circle cx="2936.05" cy="1627.63" r="4" stroke="rgb(255,250,0)" stroke-width="2" fill="none"></circle>
<circle cx="5551.91" cy="642.557" r="4" stroke="rgb(255,250,0)" stroke-width="2" fill="none"></circle>
<circle cx="2969.7" cy="1757.83" r="4" stroke="rgb(0,114,255)" stroke-width="2" fill="none"></circle>
<circle cx="4860.53" cy="516.276" r="4" stroke="rgb(0,114,255)" stroke-width="2" fill="none"></circle>
<circle cx="1555.77" cy="938.561" r="4" stroke="rgb(131,255,0)" stroke-width="2" fill="none"></circle>
<circle cx="5596.06" cy="864.934" r="4" stroke="rgb(131,255,0)" stroke-width="2" fill="none"></circle>
<circle cx="1656.71" cy="937.231" r="4" stroke="rgb(0,178,255)" stroke-width="2" fill="none"></circle>
<circle cx="6819.28" cy="529.026" r="4" stroke="rgb(0,178,255)" stroke-width="2" fill="none"></circle>
<circle cx="1855.82" cy="1267.47" r="4" stroke="rgb(0,85,255)" stroke-width="2" fill="none"></circle>
<circle cx="5546.34" cy="677.256" r="4" stroke="rgb(0,85,255)" stroke-width="2" fill="none"></circle>
<circle cx="2113.69" cy="1707.91" r="4" stroke="rgb(119,255,0)" stroke-width="2" fill="none"></circle>
<circle cx="5474.73" cy="558.208" r="4" stroke="rgb(119,255,0)" stroke-width="2" fill="none"></circle>
<circle cx="1897.85" cy="1445.18" r="4" stroke="rgb(255,0,242)" stroke-width="2" fill="none"></circle>
<circle cx="5704.75" cy="558.808" r="4" stroke="rgb(255,0,242)" stroke-width="2" fill="none"></circle>
<circle cx="1839.81" cy="1240.98" r="4" stroke="rgb(29,0,255)" stroke-width="2" fill="none"></circle>
<circle cx="5558.39" cy="389.312" r="4" stroke="rgb(29,0,255)" stroke-width="2" fill="none"></circle>
<circle cx="1897.85" cy="1445.18" r="4" stroke="rgb(229,0,255)" stroke-width="2" fill="none"></circle>
<circle cx="5709.29" cy="569.284" r="4" stroke="rgb(229,0,255)" stroke-width="2" fill="none"></circle>
<circle cx="2106.81" cy="1639.13" r="4" stroke="rgb(0,255,114)" stroke-width="2" fill="none"></circle>
<circle cx="5941.87" cy="1012.52" r="4" stroke="rgb(0,255,114)" stroke-width="2" fill="none"></circle>
<circle cx="1535.66" cy="1005.7" r="4" stroke="rgb(255,0,182)" stroke-width="2" fill="none"></circle>
<circle cx="5653.37" cy="929.807" r="4" stroke="rgb(255,0,182)" stroke-width="2" fill="none"></circle>
<circle cx="2936.05" cy="1627.63" r="4" stroke="rgb(0,33,255)" stroke-width="2" fill="none"></circle>
<circle cx="5462.52" cy="418.165" r="4" stroke="rgb(0,33,255)" stroke-width="2" fill="none"></circle>
<circle cx="2747.31" cy="1661.6" r="4" stroke="rgb(195,0,255)" stroke-width="2" fill="none"></circle>
<circle cx="5027.64" cy="2084.1" r="4" stroke="rgb(195,0,255)" stroke-width="2" fill="none"></circle>
<circle cx="2008.93" cy="1572.67" r="4" stroke="rgb(12,255,0)" stroke-width="2" fill="none"></circle>
<circle cx="5568.1" cy="423.457" r="4" stroke="rgb(12,255,0)" stroke-width="2" fill="none"></circle>
<circle cx="1535.66" cy="1005.7" r="4" stroke="rgb(0,59,255)" stroke-width="2" fill="none"></circle>
<circle cx="5624.43" cy="935.808" r="4" stroke="rgb(0,59,255)" stroke-width="2" fill="none"></circle>
<circle cx="2747.31" cy="1661.6" r="4" stroke="rgb(174,0,255)" stroke-width="2" fill="none"></circle>
<circle cx="5775.02" cy="611.511" r="4" stroke="rgb(174,0,255)" stroke-width="2" fill="none"></circle>
<circle cx="1668.91" cy="931.863" r="4" stroke="rgb(0,182,255)" stroke-width="2" fill="none"></circle>
<circle cx="5462.24" cy="615.753" r="4" stroke="rgb(0,182,255)" stroke-width="2" fill="none"></circle>
<circle cx="1973.2" cy="1362.97" r="4" stroke="rgb(72,0,255)" stroke-width="2" fill="none"></circle>
<circle cx="5633.24" cy="616.992" r="4" stroke="rgb(72,0,255)" stroke-width="2" fill="none"></circle>
<circle cx="1535.66" cy="1005.7" r="4" stroke="rgb(0,255,114)" stroke-width="2" fill="none"></circle>
<circle cx="5574" cy="946.021" r="4" stroke="rgb(0,255,114)" stroke-width="2" fill="none"></circle>
<circle cx="2680.46" cy="1383.48" r="4" stroke="rgb(4,255,0)" stroke-width="2" fill="none"></circle>
<circle cx="5709.12" cy="733.472" r="4" stroke="rgb(4,255,0)" stroke-width="2" fill="none"></circle>
<circle cx="1535.66" cy="1005.7" r="4" stroke="rgb(255,110,0)" stroke-width="2" fill="none"></circle>
<circle cx="5618.04" cy="957.381" r="4" stroke="rgb(255,110,0)" stroke-width="2" fill="none"></circle>
<circle cx="811.149" cy="934.705" r="4" stroke="rgb(0,250,255)" stroke-width="2" fill="none"></circle>
<circle cx="4918.4" cy="2150.5" r="4" stroke="rgb(0,250,255)" stroke-width="2" fill="none"></circle>
<circle cx="2176.16" cy="840.206" r="4" stroke="rgb(0,195,255)" stroke-width="2" fill="none"></circle>
<circle cx="6687.3" cy="2158.06" r="4" stroke="rgb(0,195,255)" stroke-width="2" fill="none"></circle>
<circle cx="1865.01" cy="1328.12" r="4" stroke="rgb(51,255,0)" stroke-width="2" fill="none"></circle>
<circle cx="5491.54" cy="757.457" r="4" stroke="rgb(51,255,0)" stroke-width="2" fill="none"></circle>
<circle cx="2032.26" cy="1615.25" r="4" stroke="rgb(255,0,131)" stroke-width="2" fill="none"></circle>
<circle cx="5478.75" cy="638.885" r="4" stroke="rgb(255,0,131)" stroke-width="2" fill="none"></circle>
<circle cx="2919.78" cy="1506.49" r="4" stroke="rgb(255,212,0)" stroke-width="2" fill="none"></circle>
<circle cx="5478.75" cy="638.885" r="4" stroke="rgb(255,212,0)" stroke-width="2" fill="none"></circle>
<circle cx="1979.91" cy="1867.82" r="4" stroke="rgb(255,250,0)" stroke-width="2" fill="none"></circle>
<circle cx="5848.6" cy="642.956" r="4" stroke="rgb(255,250,0)" stroke-width="2" fill="none"></circle>
<circle cx="1897.85" cy="1445.18" r="4" stroke="rgb(255,55,0)" stroke-width="2" fill="none"></circle>
<circle cx="5588.93" cy="643.51" r="4" stroke="rgb(255,55,0)" stroke-width="2" fill="none"></circle>
<circle cx="1409.66" cy="744.318" r="4" stroke="rgb(170,0,255)" stroke-width="2" fill="none"></circle>
<circle cx="6803.47" cy="479.908" r="4" stroke="rgb(170,0,255)" stroke-width="2" fill="none"></circle>
<circle cx="2936.05" cy="1627.63" r="4" stroke="rgb(0,165,255)" stroke-width="2" fill="none"></circle>
<circle cx="5645.64" cy="485.767" r="4" stroke="rgb(0,165,255)" stroke-width="2" fill="none"></circle>
<circle cx="1979.91" cy="1867.82" r="4" stroke="rgb(0,237,255)" stroke-width="2" fill="none"></circle>
<circle cx="5706.71" cy="662.077" r="4" stroke="rgb(0,237,255)" stroke-width="2" fill="none"></circle>
<circle cx="1979.91" cy="1867.82" r="4" stroke="rgb(0,123,255)" stroke-width="2" fill="none"></circle>
<circle cx="5706.71" cy="662.077" r="4" stroke="rgb(0,123,255)" stroke-width="2" fill="none"></circle>
<circle cx="1129.88" cy="1386.67" r="4" stroke="rgb(255,229,0)" stroke-width="2" fill="none"></circle>
<circle cx="4957.08" cy="2231.19" r="4" stroke="rgb(255,229,0)" stroke-width="2" fill="none"></circle>
<circle cx="1420.82" cy="914.379" r="4" stroke="rgb(0,255,106)" stroke-width="2" fill="none"></circle>
<circle cx="5134.74" cy="1738.97" r="4" stroke="rgb(0,255,106)" stroke-width="2" fill="none"></circle>
<circle cx="1302.02" cy="1458.14" r="4" stroke="rgb(255,208,0)" stroke-width="2" fill="none"></circle>
<circle cx="5925.58" cy="2244.15" r="4" stroke="rgb(255,208,0)" stroke-width="2" fill="none"></circle>
<circle cx="2581.05" cy="1075.14" r="4" stroke="rgb(0,255,110)" stroke-width="2" fill="none"></circle>
<circle cx="4732.26" cy="891.222" r="4" stroke="rgb(0,255,110)" stroke-width="2" fill="none"></circle>
<circle cx="1896.24" cy="1726.57" r="4" stroke="rgb(46,255,0)" stroke-width="2" fill="none"></circle>
<circle cx="4964.9" cy="891.992" r="4" stroke="rgb(46,255,0)" stroke-width="2" fill="none"></circle>
<circle cx="1870.21" cy="1315.12" r="4" stroke="rgb(0,63,255)" stroke-width="2" fill="none"></circle>
<circle cx="5743.22" cy="524.429" r="4" stroke="rgb(0,63,255)" stroke-width="2" fill="none"></circle>
<circle cx="1979.91" cy="1867.82" r="4" stroke="rgb(110,0,255)" stroke-width="2" fill="none"></circle>
<circle cx="5719.49" cy="700.252" r="4" stroke="rgb(110,0,255)" stroke-width="2" fill="none"></circle>
<circle cx="1535.66" cy="1005.7" r="4" stroke="rgb(148,0,255)" stroke-width="2" fill="none"></circle>
<circle cx="5799.98" cy="910.048" r="4" stroke="rgb(148,0,255)" stroke-width="2" fill="none"></circle>
<circle cx="2604.6" cy="939.424" r="4" stroke="rgb(17,0,255)" stroke-width="2" fill="none"></circle>
<circle cx="7287.7" cy="1146.2" r="4" stroke="rgb(17,0,255)" stroke-width="2" fill="none"></circle>
<circle cx="1535.66" cy="1005.7" r="4" stroke="rgb(106,255,0)" stroke-width="2" fill="none"></circle>
<circle cx="5815.78" cy="910.779" r="4" stroke="rgb(106,255,0)" stroke-width="2" fill="none"></circle>
<circle cx="1955.87" cy="1667.89" r="4" stroke="rgb(255,80,0)" stroke-width="2" fill="none"></circle>
<circle cx="5354.32" cy="536.049" r="4" stroke="rgb(255,80,0)" stroke-width="2" fill="none"></circle>
<circle cx="1535.66" cy="1005.7" r="4" stroke="rgb(0,255,212)" stroke-width="2" fill="none"></circle>
<circle cx="5739.93" cy="921.297" r="4" stroke="rgb(0,255,212)" stroke-width="2" fill="none"></circle>
<circle cx="1292.27" cy="1580.21" r="4" stroke="rgb(0,114,255)" stroke-width="2" fill="none"></circle>
<circle cx="4836.92" cy="1156.6" r="4" stroke="rgb(0,114,255)" stroke-width="2" fill="none"></circle>
<circle cx="1896.24" cy="1726.57" r="4" stroke="rgb(25,0,255)" stroke-width="2" fill="none"></circle>
<circle cx="5016.43" cy="936.326" r="4" stroke="rgb(25,0,255)" stroke-width="2" fill="none"></circle>
<circle cx="1896.24" cy="1726.57" r="4" stroke="rgb(255,0,157)" stroke-width="2" fill="none"></circle>
<circle cx="5016.43" cy="936.326" r="4" stroke="rgb(255,0,157)" stroke-width="2" fill="none"></circle>
<circle cx="2831.73" cy="1259.12" r="4" stroke="rgb(178,0,255)" stroke-width="2" fill="none"></circle>
<circle cx="6973.26" cy="545.98" r="4" stroke="rgb(178,0,255)" stroke-width="2" fill="none"></circle>
<circle cx="1889.43" cy="1516.64" r="4" stroke="rgb(0,255,97)" stroke-width="2" fill="none"></circle>
<circle cx="4503.82" cy="737.779" r="4" stroke="rgb(0,255,97)" stroke-width="2" fill="none"></circle>
<circle cx="1897.85" cy="1445.18" r="4" stroke="rgb(255,0,72)" stroke-width="2" fill="none"></circle>
<circle cx="5617.49" cy="737.153" r="4" stroke="rgb(255,0,72)" stroke-width="2" fill="none"></circle>
<circle cx="1990.41" cy="1813.15" r="4" stroke="rgb(255,174,0)" stroke-width="2" fill="none"></circle>
<circle cx="5566.06" cy="738.812" r="4" stroke="rgb(255,174,0)" stroke-width="2" fill="none"></circle>
<circle cx="1046.29" cy="1401.33" r="4" stroke="rgb(0,255,208)" stroke-width="2" fill="none"></circle>
<circle cx="4777.01" cy="968.105" r="4" stroke="rgb(0,255,208)" stroke-width="2" fill="none"></circle>
<circle cx="1897.85" cy="1445.18" r="4" stroke="rgb(255,153,0)" stroke-width="2" fill="none"></circle>
<circle cx="5454.14" cy="760.693" r="4" stroke="rgb(255,153,0)" stroke-width="2" fill="none"></circle>
<circle cx="2944.42" cy="1496.64" r="4" stroke="rgb(51,255,0)" stroke-width="2" fill="none"></circle>
<circle cx="5453.5" cy="580.198" r="4" stroke="rgb(51,255,0)" stroke-width="2" fill="none"></circle>
<circle cx="2944.42" cy="1496.64" r="4" stroke="rgb(0,255,123)" stroke-width="2" fill="none"></circle>
<circle cx="5453.5" cy="580.198" r="4" stroke="rgb(0,255,123)" stroke-width="2" fill="none"></circle>
<circle cx="1979.91" cy="1867.82" r="4" stroke="rgb(0,12,255)" stroke-width="2" fill="none"></circle>
<circle cx="5687.68" cy="612.985" r="4" stroke="rgb(0,12,255)" stroke-width="2" fill="none"></circle>
<circle cx="1979.07" cy="1257.33" r="4" stroke="rgb(255,127,0)" stroke-width="2" fill="none"></circle>
<circle cx="5668.53" cy="622.223" r="4" stroke="rgb(255,127,0)" stroke-width="2" fill="none"></circle>
<circle cx="1881.24" cy="1392.66" r="4" stroke="rgb(0,131,255)" stroke-width="2" fill="none"></circle>
<circle cx="5468.06" cy="646.177" r="4" stroke="rgb(0,131,255)" stroke-width="2" fill="none"></circle>
<circle cx="866.84" cy="848.077" r="4" stroke="rgb(46,0,255)" stroke-width="2" fill="none"></circle>
<circle cx="7275.94" cy="2489.29" r="4" stroke="rgb(46,0,255)" stroke-width="2" fill="none"></circle>
<circle cx="2753.48" cy="1568.59" r="4" stroke="rgb(0,246,255)" stroke-width="2" fill="none"></circle>
<circle cx="4976.96" cy="2537.73" r="4" stroke="rgb(0,246,255)" stroke-width="2" fill="none"></circle>
<circle cx="928.756" cy="1141.14" r="4" stroke="rgb(178,0,255)" stroke-width="2" fill="none"></circle>
<circle cx="5497.14" cy="2600.79" r="4" stroke="rgb(178,0,255)" stroke-width="2" fill="none"></circle>
<circle cx="857.966" cy="1993.68" r="4" stroke="rgb(191,255,0)" stroke-width="2" fill="none"></circle>
<circle cx="5602.86" cy="1903.69" r="4" stroke="rgb(191,255,0)" stroke-width="2" fill="none"></circle>
<circle cx="1443.85" cy="1860.55" r="4" stroke="rgb(255,144,0)" stroke-width="2" fill="none"></circle>
<circle cx="6646.25" cy="2701.07" r="4" stroke="rgb(255,144,0)" stroke-width="2" fill="none"></circle>
<circle cx="2460.28" cy="962.439" r="4" stroke="rgb(0,131,255)" stroke-width="2" fill="none"></circle>
<circle cx="5530.13" cy="1446.05" r="4" stroke="rgb(0,131,255)" stroke-width="2" fill="none"></circle>
<circle cx="1473.14" cy="1307.2" r="4" stroke="rgb(119,255,0)" stroke-width="2" fill="none"></circle>
<circle cx="5122.06" cy="1336.21" r="4" stroke="rgb(119,255,0)" stroke-width="2" fill="none"></circle>
<circle cx="1960.52" cy="804.203" r="4" stroke="rgb(255,0,191)" stroke-width="2" fill="none"></circle>
<circle cx="5720.4" cy="2745.37" r="4" stroke="rgb(255,0,191)" stroke-width="2" fill="none"></circle>
<circle cx="2187.83" cy="834.604" r="4" stroke="rgb(255,0,21)" stroke-width="2" fill="none"></circle>
<circle cx="5639.3" cy="2771.59" r="4" stroke="rgb(255,0,21)" stroke-width="2" fill="none"></circle>
<circle cx="1487.39" cy="1421.95" r="4" stroke="rgb(199,255,0)" stroke-width="2" fill="none"></circle>
<circle cx="5335.57" cy="1757.63" r="4" stroke="rgb(199,255,0)" stroke-width="2" fill="none"></circle>
<circle cx="1473.14" cy="1307.2" r="4" stroke="rgb(0,255,254)" stroke-width="2" fill="none"></circle>
<circle cx="5132.84" cy="1824.98" r="4" stroke="rgb(0,255,254)" stroke-width="2" fill="none"></circle>
<circle cx="2860.31" cy="1580.91" r="4" stroke="rgb(0,255,55)" stroke-width="2" fill="none"></circle>
<circle cx="5414.63" cy="2249" r="4" stroke="rgb(0,255,55)" stroke-width="2" fill="none"></circle>
<circle cx="2860.31" cy="1580.91" r="4" stroke="rgb(255,0,46)" stroke-width="2" fill="none"></circle>
<circle cx="5163.03" cy="2609.88" r="4" stroke="rgb(255,0,46)" stroke-width="2" fill="none"></circle>
<circle cx="1874.77" cy="1097.38" r="4" stroke="rgb(237,255,0)" stroke-width="2" fill="none"></circle>
<circle cx="5674.39" cy="719.489" r="4" stroke="rgb(237,255,0)" stroke-width="2" fill="none"></circle>
<circle cx="1871.27" cy="1616.98" r="4" stroke="rgb(0,46,255)" stroke-width="2" fill="none"></circle>
<circle cx="5062.17" cy="751.82" r="4" stroke="rgb(0,46,255)" stroke-width="2" fill="none"></circle>
<circle cx="1871.27" cy="1616.98" r="4" stroke="rgb(255,34,0)" stroke-width="2" fill="none"></circle>
<circle cx="5062.17" cy="751.82" r="4" stroke="rgb(255,34,0)" stroke-width="2" fill="none"></circle>
<circle cx="2860.31" cy="1580.91" r="4" stroke="rgb(55,255,0)" stroke-width="2" fill="none"></circle>
<circle cx="5397.89" cy="2378.21" r="4" stroke="rgb(55,255,0)" stroke-width="2" fill="none"></circle>
<circle cx="1871.27" cy="1616.98" r="4" stroke="rgb(255,0,195)" stroke-width="2" fill="none"></circle>
<circle cx="5087.18" cy="821.666" r="4" stroke="rgb(255,0,195)" stroke-width="2" fill="none"></circle>
<circle cx="1871.27" cy="1616.98" r="4" stroke="rgb(59,0,255)" stroke-width="2" fill="none"></circle>
<circle cx="5087.18" cy="821.666" r="4" stroke="rgb(59,0,255)" stroke-width="2" fill="none"></circle>
<circle cx="2131.64" cy="1651.33" r="4" stroke="rgb(255,0,246)" stroke-width="2" fill="none"></circle>
<circle cx="5361.36" cy="2630.67" r="4" stroke="rgb(255,0,246)" stroke-width="2" fill="none"></circle>
<circle cx="1896.24" cy="1726.57" r="4" stroke="rgb(51,255,0)" stroke-width="2" fill="none"></circle>
<circle cx="4966.04" cy="892.516" r="4" stroke="rgb(51,255,0)" stroke-width="2" fill="none"></circle>
<circle cx="757.881" cy="412.849" r="4" stroke="rgb(123,0,255)" stroke-width="2" fill="none"></circle>
<circle cx="5222.24" cy="1192.95" r="4" stroke="rgb(123,0,255)" stroke-width="2" fill="none"></circle>
<circle cx="1535.66" cy="1005.7" r="4" stroke="rgb(191,0,255)" stroke-width="2" fill="none"></circle>
<circle cx="5815.85" cy="910.022" r="4" stroke="rgb(191,0,255)" stroke-width="2" fill="none"></circle>
<circle cx="1896.24" cy="1726.57" r="4" stroke="rgb(0,255,127)" stroke-width="2" fill="none"></circle>
<circle cx="5045.69" cy="950.548" r="4" stroke="rgb(0,255,127)" stroke-width="2" fill="none"></circle>
<circle cx="1901.14" cy="1355.31" r="4" stroke="rgb(255,0,208)" stroke-width="2" fill="none"></circle>
<circle cx="5659.82" cy="616.937" r="4" stroke="rgb(255,0,208)" stroke-width="2" fill="none"></circle>
<circle cx="1901.14" cy="1355.31" r="4" stroke="rgb(0,195,255)" stroke-width="2" fill="none"></circle>
<circle cx="5677.33" cy="666.237" r="4" stroke="rgb(0,195,255)" stroke-width="2" fill="none"></circle>
<circle cx="1896.01" cy="1364.61" r="4" stroke="rgb(0,255,42)" stroke-width="2" fill="none"></circle>
<circle cx="5649.7" cy="623.164" r="4" stroke="rgb(0,255,42)" stroke-width="2" fill="none"></circle>
<circle cx="1806.52" cy="1156.52" r="4" stroke="rgb(84,255,0)" stroke-width="2" fill="none"></circle>
<circle cx="5766.43" cy="579.147" r="4" stroke="rgb(84,255,0)" stroke-width="2" fill="none"></circle>
<circle cx="1258.98" cy="1696.73" r="4" stroke="rgb(208,255,0)" stroke-width="2" fill="none"></circle>
<circle cx="6921.68" cy="1354.04" r="4" stroke="rgb(208,255,0)" stroke-width="2" fill="none"></circle>
<circle cx="1891.56" cy="1357.22" r="4" stroke="rgb(0,255,169)" stroke-width="2" fill="none"></circle>
<circle cx="5643.77" cy="615.088" r="4" stroke="rgb(0,255,169)" stroke-width="2" fill="none"></circle>
<circle cx="2381.21" cy="1174.98" r="4" stroke="rgb(0,250,255)" stroke-width="2" fill="none"></circle>
<circle cx="5781.65" cy="652.112" r="4" stroke="rgb(0,250,255)" stroke-width="2" fill="none"></circle>
<circle cx="1891.56" cy="1357.22" r="4" stroke="rgb(255,0,161)" stroke-width="2" fill="none"></circle>
<circle cx="5661.21" cy="665.265" r="4" stroke="rgb(255,0,161)" stroke-width="2" fill="none"></circle>
<circle cx="1896.01" cy="1364.61" r="4" stroke="rgb(0,106,255)" stroke-width="2" fill="none"></circle>
<circle cx="5669.45" cy="676.585" r="4" stroke="rgb(0,106,255)" stroke-width="2" fill="none"></circle>
<circle cx="1871.27" cy="1616.98" r="4" stroke="rgb(67,255,0)" stroke-width="2" fill="none"></circle>
<circle cx="5000.19" cy="734.902" r="4" stroke="rgb(67,255,0)" stroke-width="2" fill="none"></circle>
<circle cx="2268.64" cy="1684.81" r="4" stroke="rgb(123,0,255)" stroke-width="2" fill="none"></circle>
<circle cx="5492.91" cy="700.299" r="4" stroke="rgb(123,0,255)" stroke-width="2" fill="none"></circle>
<circle cx="1764.62" cy="1719.06" r="4" stroke="rgb(38,0,255)" stroke-width="2" fill="none"></circle>
<circle cx="5057.01" cy="2811.65" r="4" stroke="rgb(38,0,255)" stroke-width="2" fill="none"></circle>
<circle cx="902.363" cy="1284.05" r="4" stroke="rgb(0,233,255)" stroke-width="2" fill="none"></circle>
<circle cx="6236.41" cy="1615.58" r="4" stroke="rgb(0,233,255)" stroke-width="2" fill="none"></circle>
</svg>