<?xml version="1.0" standalone="yes"?>
<!-- SVG graphic -->
<svg xmlns='http://www.w3.org/2000/svg' xmlns:xlink='http://www.w3.org/1999/xlink'
width="8064px" height="3024px" preserveAspectRatio="xMinYMin meet" viewBox="0 0 8064 3024" version="1.1">
<image x="0" y="0" width="4032px" height="3024px" opacity="1" xlink:href="/home/jeong/Code/2D-to-3D-Modeling-using-AI/Make3D/Image/20200227_180641.jpg"/>
<image x="4032" y="0" width="4032px" height="3024px" opacity="1" xlink:href="/home/jeong/Code/2D-to-3D-Modeling-using-AI/Make3D/Image/20200227_180732.jpg"/>
<polyline points="935.015,1051.44,6675.61,1282.34" stroke="rgb(255,119,0)" stroke-width="2" fill="none"></polyline>
<polyline points="989.447,1118.66,6118.06,1932.55" stroke="rgb(51,255,0)" stroke-width="2" fill="none"></polyline>
<polyline points="1208.93,857.168,5852.83,1759.26" stroke="rgb(182,255,0)" stroke-width="2" fill="none"></polyline>
<polyline points="997.561,1122.09,6020.01,1296.32" stroke="rgb(255,0,148)" stroke-width="2" fill="none"></polyline>
<polyline points="2782.08,1820.81,6010.21,1298.75" stroke="rgb(0,255,97)" stroke-width="2" fill="none"></polyline>
<polyline points="805.978,368.191,6027.84,1715.7" stroke="rgb(255,0,212)" stroke-width="2" fill="none"></polyline>
<polyline points="1261.22,1714.56,6517.76,1383.67" stroke="rgb(255,0,76)" stroke-width="2" fill="none"></polyline>
<polyline points="1488.9,2254.8,6402.51,1777.98" stroke="rgb(255,131,0)" stroke-width="2" fill="none"></polyline>
<polyline points="998.435,1128.44,6199.72,1363.2" stroke="rgb(0,255,16)" stroke-width="2" fill="none"></polyline>
<polyline points="780.765,389.423,6352.2,2258.2" stroke="rgb(255,0,93)" stroke-width="2" fill="none"></polyline>
<polyline points="1098.31,1249.48,6064.63,1402.04" stroke="rgb(0,59,255)" stroke-width="2" fill="none"></polyline>
<polyline points="1722.15,1929.72,6378.31,2061.99" stroke="rgb(191,0,255)" stroke-width="2" fill="none"></polyline>
<polyline points="2394.59,2211.47,6356.71,1838.03" stroke="rgb(0,255,195)" stroke-width="2" fill="none"></polyline>
<polyline points="998.435,1128.44,6240.29,1436.07" stroke="rgb(0,242,255)" stroke-width="2" fill="none"></polyline>
<polyline points="998.435,1128.44,6179.49,1437.91" stroke="rgb(255,0,216)" stroke-width="2" fill="none"></polyline>
<polyline points="1148.1,1388.15,6059.35,1449.39" stroke="rgb(255,51,0)" stroke-width="2" fill="none"></polyline>
<polyline points="755.944,295.586,6959.33,1873.75" stroke="rgb(255,195,0)" stroke-width="2" fill="none"></polyline>
<polyline points="1073.73,1011.65,6411.18,1453.84" stroke="rgb(97,255,0)" stroke-width="2" fill="none"></polyline>
<polyline points="1298.26,1282.54,5958.04,2352.79" stroke="rgb(29,0,255)" stroke-width="2" fill="none"></polyline>
<polyline points="1806.96,913.27,6325.32,1960.21" stroke="rgb(212,0,255)" stroke-width="2" fill="none"></polyline>
<polyline points="932.994,1104.46,6617.13,2395.02" stroke="rgb(140,255,0)" stroke-width="2" fill="none"></polyline>
<polyline points="1926.7,1442.11,6657.99,1908.19" stroke="rgb(255,0,169)" stroke-width="2" fill="none"></polyline>
<polyline points="1085.9,1793.55,6013.29,1914.98" stroke="rgb(0,195,255)" stroke-width="2" fill="none"></polyline>
<polyline points="1950.78,1919.74,6376.88,1990.65" stroke="rgb(255,0,208)" stroke-width="2" fill="none"></polyline>
<polyline points="790.534,397.098,6330.45,2033.88" stroke="rgb(216,0,255)" stroke-width="2" fill="none"></polyline>
<polyline points="1073.73,1011.65,6476.5,1790.1" stroke="rgb(0,165,255)" stroke-width="2" fill="none"></polyline>
<polyline points="1167.94,2036.46,6472.54,2166.92" stroke="rgb(0,25,255)" stroke-width="2" fill="none"></polyline>
<polyline points="932.994,1104.46,6126.67,2557.62" stroke="rgb(255,208,0)" stroke-width="2" fill="none"></polyline>
<polyline points="1203.2,556.826,5934.68,2645.92" stroke="rgb(0,255,246)" stroke-width="2" fill="none"></polyline>
<polyline points="987.088,1111.79,6802.79,2696.76" stroke="rgb(255,0,246)" stroke-width="2" fill="none"></polyline>
<polyline points="1261.22,1714.56,6514.26,2698.99" stroke="rgb(0,42,255)" stroke-width="2" fill="none"></polyline>
<polyline points="1641.26,1403.99,5816.28,2470" stroke="rgb(0,140,255)" stroke-width="2" fill="none"></polyline>
<polyline points="1387.65,576.317,6091.56,1418.04" stroke="rgb(255,216,0)" stroke-width="2" fill="none"></polyline>
<polyline points="2493.41,1315.41,5948,2541.58" stroke="rgb(255,0,221)" stroke-width="2" fill="none"></polyline>
<circle cx="935.015" cy="1051.44" r="4" stroke="rgb(255,119,0)" stroke-width="2" fill="none"></circle>
<circle cx="6675.61" cy="1282.34" r="4" stroke="rgb(255,119,0)" stroke-width="2" fill="none"></circle>
<circle cx="989.447" cy="1118.66" r="4" stroke="rgb(51,255,0)" stroke-width="2" fill="none"></circle>
<circle cx="6118.06" cy="1932.55" r="4" stroke="rgb(51,255,0)" stroke-width="2" fill="none"></circle>
<circle cx="1208.93" cy="857.168" r="4" stroke="rgb(182,255,0)" stroke-width="2" fill="none"></circle>
<circle cx="5852.83" cy="1759.26" r="4" stroke="rgb(182,255,0)" stroke-width="2" fill="none"></circle>
<circle cx="997.561" cy="1122.09" r="4" stroke="rgb(255,0,148)" stroke-width="2" fill="none"></circle>
<circle cx="6020.01" cy="1296.32" r="4" stroke="rgb(255,0,148)" stroke-width="2" fill="none"></circle>
<circle cx="2782.08" cy="1820.81" r="4" stroke="rgb(0,255,97)" stroke-width="2" fill="none"></circle>
<circle cx="6010.21" cy="1298.75" r="4" stroke="rgb(0,255,97)" stroke-width="2" fill="none"></circle>
<circle cx="805.978" cy="368.191" r="4" stroke="rgb(255,0,212)" stroke-width="2" fill="none"></circle>
<circle cx="6027.84" cy="1715.7" r="4" stroke="rgb(255,0,212)" stroke-width="2" fill="none"></circle>
<circle cx="1261.22" cy="1714.56" r="4" stroke="rgb(255,0,76)" stroke-width="2" fill="none"></circle>
<circle cx="6517.76" cy="1383.67" r="4" stroke="rgb(255,0,76)" stroke-width="2" fill="none"></circle>
<circle cx="1488.9" cy="2254.8" r="4" stroke="rgb(255,131,0)" stroke-width="2" fill="none"></circle>
<circle cx="6402.51" cy="1777.98" r="4" stroke="rgb(255,131,0)" stroke-width="2" fill="none"></circle>
<circle cx="998.435" cy="1128.44" r="4" stroke="rgb(0,255,16)" stroke-width="2" fill="none"></circle>
<circle cx="6199.72" cy="1363.2" r="4" stroke="rgb(0,255,16)" stroke-width="2" fill="none"></circle>
<circle cx="780.765" cy="389.423" r="4" stroke="rgb(255,0,93)" stroke-width="2" fill="none"></circle>
<circle cx="6352.2" cy="2258.2" r="4" stroke="rgb(255,0,93)" stroke-width="2" fill="none"></circle>
<circle cx="1098.31" cy="1249.48" r="4" stroke="rgb(0,59,255)" stroke-width="2" fill="none"></circle>
<circle cx="6064.63" cy="1402.04" r="4" stroke="rgb(0,59,255)" stroke-width="2" fill="none"></circle>
<circle cx="1722.15" cy="1929.72" r="4" stroke="rgb(191,0,255)" stroke-width="2" fill="none"></circle>
<circle cx="6378.31" cy="2061.99" r="4" stroke="rgb(191,0,255)" stroke-width="2" fill="none"></circle>
<circle cx="2394.59" cy="2211.47" r="4" stroke="rgb(0,255,195)" stroke-width="2" fill="none"></circle>
<circle cx="6356.71" cy="1838.03" r="4" stroke="rgb(0,255,195)" stroke-width="2" fill="none"></circle>
<circle cx="998.435" cy="1128.44" r="4" stroke="rgb(0,242,255)" stroke-width="2" fill="none"></circle>
<circle cx="6240.29" cy="1436.07" r="4" stroke="rgb(0,242,255)" stroke-width="2" fill="none"></circle>
<circle cx="998.435" cy="1128.44" r="4" stroke="rgb(255,0,216)" stroke-width="2" fill="none"></circle>
<circle cx="6179.49" cy="1437.91" r="4" stroke="rgb(255,0,216)" stroke-width="2" fill="none"></circle>
<circle cx="1148.1" cy="1388.15" r="4" stroke="rgb(255,51,0)" stroke-width="2" fill="none"></circle>
<circle cx="6059.35" cy="1449.39" r="4" stroke="rgb(255,51,0)" stroke-width="2" fill="none"></circle>
<circle cx="755.944" cy="295.586" r="4" stroke="rgb(255,195,0)" stroke-width="2" fill="none"></circle>
<circle cx="6959.33" cy="1873.75" r="4" stroke="rgb(255,195,0)" stroke-width="2" fill="none"></circle>
<circle cx="1073.73" cy="1011.65" r="4" stroke="rgb(97,255,0)" stroke-width="2" fill="none"></circle>
<circle cx="6411.18" cy="1453.84" r="4" stroke="rgb(97,255,0)" stroke-width="2" fill="none"></circle>
<circle cx="1298.26" cy="1282.54" r="4" stroke="rgb(29,0,255)" stroke-width="2" fill="none"></circle>
<circle cx="5958.04" cy="2352.79" r="4" stroke="rgb(29,0,255)" stroke-width="2" fill="none"></circle>
<circle cx="1806.96" cy="913.27" r="4" stroke="rgb(212,0,255)" stroke-width="2" fill="none"></circle>
<circle cx="6325.32" cy="1960.21" r="4" stroke="rgb(212,0,255)" stroke-width="2" fill="none"></circle>
<circle cx="932.994" cy="1104.46" r="4" stroke="rgb(140,255,0)" stroke-width="2" fill="none"></circle>
<circle cx="6617.13" cy="2395.02" r="4" stroke="rgb(140,255,0)" stroke-width="2" fill="none"></circle>
<circle cx="1926.7" cy="1442.11" r="4" stroke="rgb(255,0,169)" stroke-width="2" fill="none"></circle>
<circle cx="6657.99" cy="1908.19" r="4" stroke="rgb(255,0,169)" stroke-width="2" fill="none"></circle>
<circle cx="1085.9" cy="1793.55" r="4" stroke="rgb(0,195,255)" stroke-width="2" fill="none"></circle>
<circle cx="6013.29" cy="1914.98" r="4" stroke="rgb(0,195,255)" stroke-width="2" fill="none"></circle>
<circle cx="1950.78" cy="1919.74" r="4" stroke="rgb(255,0,208)" stroke-width="2" fill="none"></circle>
<circle cx="6376.88" cy="1990.65" r="4" stroke="rgb(255,0,208)" stroke-width="2" fill="none"></circle>
<circle cx="790.534" cy="397.098" r="4" stroke="rgb(216,0,255)" stroke-width="2" fill="none"></circle>
<circle cx="6330.45" cy="2033.88" r="4" stroke="rgb(216,0,255)" stroke-width="2" fill="none"></circle>
<circle cx="1073.73" cy="1011.65" r="4" stroke="rgb(0,165,255)" stroke-width="2" fill="none"></circle>
<circle cx="6476.5" cy="1790.1" r="4" stroke="rgb(0,165,255)" stroke-width="2" fill="none"></circle>
<circle cx="1167.94" cy="2036.46" r="4" stroke="rgb(0,25,255)" stroke-width="2" fill="none"></circle>
<circle cx="6472.54" cy="2166.92" r="4" stroke="rgb(0,25,255)" stroke-width="2" fill="none"></circle>
<circle cx="932.994" cy="1104.46" r="4" stroke="rgb(255,208,0)" stroke-width="2" fill="none"></circle>
<circle cx="6126.67" cy="2557.62" r="4" stroke="rgb(255,208,0)" stroke-width="2" fill="none"></circle>
<circle cx="1203.2" cy="556.826" r="4" stroke="rgb(0,255,246)" stroke-width="2" fill="none"></circle>
<circle cx="5934.68" cy="2645.92" r="4" stroke="rgb(0,255,246)" stroke-width="2" fill="none"></circle>
<circle cx="987.088" cy="1111.79" r="4" stroke="rgb(255,0,246)" stroke-width="2" fill="none"></circle>
<circle cx="6802.79" cy="2696.76" r="4" stroke="rgb(255,0,246)" stroke-width="2" fill="none"></circle>
<circle cx="1261.22" cy="1714.56" r="4" stroke="rgb(0,42,255)" stroke-width="2" fill="none"></circle>
<circle cx="6514.26" cy="2698.99" r="4" stroke="rgb(0,42,255)" stroke-width="2" fill="none"></circle>
<circle cx="1641.26" cy="1403.99" r="4" stroke="rgb(0,140,255)" stroke-width="2" fill="none"></circle>
<circle cx="5816.28" cy="2470" r="4" stroke="rgb(0,140,255)" stroke-width="2" fill="none"></circle>
<circle cx="1387.65" cy="576.317" r="4" stroke="rgb(255,216,0)" stroke-width="2" fill="none"></circle>
<circle cx="6091.56" cy="1418.04" r="4" stroke="rgb(255,216,0)" stroke-width="2" fill="none"></circle>
<circle cx="2493.41" cy="1315.41" r="4" stroke="rgb(255,0,221)" stroke-width="2" fill="none"></circle>
<circle cx="5948" cy="2541.58" r="4" stroke="rgb(255,0,221)" stroke-width="2" fill="none"></circle>
</svg>