<?xml version="1.0" standalone="yes"?>
<!-- SVG graphic -->
<svg xmlns='http://www.w3.org/2000/svg' xmlns:xlink='http://www.w3.org/1999/xlink'
width="8064px" height="3024px" preserveAspectRatio="xMinYMin meet" viewBox="0 0 8064 3024" version="1.1">
<image x="0" y="0" width="4032px" height="3024px" opacity="1" xlink:href="/home/jeong/Code/2D-to-3D-Modeling-using-AI/Make3D/Image/20200227_180641.jpg"/>
<image x="4032" y="0" width="4032px" height="3024px" opacity="1" xlink:href="/home/jeong/Code/2D-to-3D-Modeling-using-AI/Make3D/Image/20200227_180753.jpg"/>
<polyline points="1261.22,1714.56,4884.41,131.43" stroke="rgb(0,255,212)" stroke-width="2" fill="none"></polyline>
<polyline points="2291.69,890.323,4911.68,2115.25" stroke="rgb(0,255,63)" stroke-width="2" fill="none"></polyline>
<polyline points="1933.91,1905.28,5592.05,316.265" stroke="rgb(208,255,0)" stroke-width="2" fill="none"></polyline>
<polyline points="2475.25,1071.04,4995.99,1210.58" stroke="rgb(186,0,255)" stroke-width="2" fill="none"></polyline>
<polyline points="2678.98,1239.51,5539.76,317.708" stroke="rgb(216,255,0)" stroke-width="2" fill="none"></polyline>
<polyline points="2678.98,1239.51,5539.76,317.708" stroke="rgb(255,59,0)" stroke-width="2" fill="none"></polyline>
<polyline points="1316.87,1000.6,5628.73,331.397" stroke="rgb(0,255,84)" stroke-width="2" fill="none"></polyline>
<polyline points="1090.02,2191.51,5533.18,2427.24" stroke="rgb(254,0,255)" stroke-width="2" fill="none"></polyline>
<polyline points="2678.98,1239.51,5646.08,320.068" stroke="rgb(255,0,212)" stroke-width="2" fill="none"></polyline>
<polyline points="2493.03,1549.47,4813.7,2450.07" stroke="rgb(0,55,255)" stroke-width="2" fill="none"></polyline>
<polyline points="2678.98,1239.51,5646.08,320.068" stroke="rgb(59,0,255)" stroke-width="2" fill="none"></polyline>
<polyline points="1561.04,760.711,5929.45,1468.51" stroke="rgb(0,0,255)" stroke-width="2" fill="none"></polyline>
<polyline points="1928.54,1904.2,5489.46,344.13" stroke="rgb(255,212,0)" stroke-width="2" fill="none"></polyline>
<polyline points="1538.31,783.684,5492.02,328.796" stroke="rgb(0,51,255)" stroke-width="2" fill="none"></polyline>
<polyline points="3039.58,1622.58,5736.12,1491.49" stroke="rgb(0,255,55)" stroke-width="2" fill="none"></polyline>
<polyline points="1480.49,723.078,5529.24,356.242" stroke="rgb(0,76,255)" stroke-width="2" fill="none"></polyline>
<polyline points="1773.19,1872.05,5559.16,364.886" stroke="rgb(255,0,148)" stroke-width="2" fill="none"></polyline>
<polyline points="1788.8,1867.06,5399.39,363.177" stroke="rgb(0,255,76)" stroke-width="2" fill="none"></polyline>
<polyline points="1500.57,760.417,5550.18,406.608" stroke="rgb(255,0,72)" stroke-width="2" fill="none"></polyline>
<polyline points="1542.96,2507.18,5852.36,2340.05" stroke="rgb(0,255,131)" stroke-width="2" fill="none"></polyline>
<polyline points="1469.66,756.091,5512.81,389.882" stroke="rgb(178,0,255)" stroke-width="2" fill="none"></polyline>
<polyline points="2182.18,824.251,5516.12,402.419" stroke="rgb(0,21,255)" stroke-width="2" fill="none"></polyline>
<polyline points="1215.06,1338.43,5092.33,972.736" stroke="rgb(255,0,68)" stroke-width="2" fill="none"></polyline>
<polyline points="1215.06,1338.43,5092.33,972.736" stroke="rgb(0,255,148)" stroke-width="2" fill="none"></polyline>
<polyline points="1261.96,963.475,5837.98,2547.65" stroke="rgb(255,0,59)" stroke-width="2" fill="none"></polyline>
<polyline points="1735.61,1815.33,5055.41,1031.68" stroke="rgb(0,255,182)" stroke-width="2" fill="none"></polyline>
<polyline points="2698.49,1279.78,5443.66,438.373" stroke="rgb(255,0,165)" stroke-width="2" fill="none"></polyline>
<polyline points="2191.36,743.214,5614.08,298.109" stroke="rgb(67,0,255)" stroke-width="2" fill="none"></polyline>
<polyline points="1696.67,1906.17,5162.47,1371.74" stroke="rgb(255,0,169)" stroke-width="2" fill="none"></polyline>
<polyline points="2698.49,1279.78,5443.66,438.373" stroke="rgb(0,255,165)" stroke-width="2" fill="none"></polyline>
<polyline points="2549.06,1739.82,5362.61,319.595" stroke="rgb(0,0,255)" stroke-width="2" fill="none"></polyline>
<polyline points="1754.81,1460.51,5552.52,454.41" stroke="rgb(0,255,42)" stroke-width="2" fill="none"></polyline>
<polyline points="1754.81,1460.51,5552.52,454.41" stroke="rgb(233,0,255)" stroke-width="2" fill="none"></polyline>
<polyline points="2678.98,1239.51,5732.83,460.906" stroke="rgb(255,0,208)" stroke-width="2" fill="none"></polyline>
<polyline points="2782.08,1820.81,4847.79,473.885" stroke="rgb(255,229,0)" stroke-width="2" fill="none"></polyline>
<polyline points="1534.95,776.099,5611.85,355.24" stroke="rgb(0,17,255)" stroke-width="2" fill="none"></polyline>
<polyline points="2224.76,838.787,5880.33,1498.14" stroke="rgb(255,0,144)" stroke-width="2" fill="none"></polyline>
<polyline points="2678.98,1239.51,5616.78,498.665" stroke="rgb(225,255,0)" stroke-width="2" fill="none"></polyline>
<polyline points="2678.98,1239.51,5616.78,498.665" stroke="rgb(255,204,0)" stroke-width="2" fill="none"></polyline>
<polyline points="3039.58,1622.58,5085.23,1486.1" stroke="rgb(0,255,118)" stroke-width="2" fill="none"></polyline>
<polyline points="1794.6,1883.52,5480.7,519.691" stroke="rgb(229,0,255)" stroke-width="2" fill="none"></polyline>
<polyline points="2532.17,1477.96,5608.78,519.855" stroke="rgb(255,0,242)" stroke-width="2" fill="none"></polyline>
<polyline points="1209.67,767.847,5945.89,1559.64" stroke="rgb(85,0,255)" stroke-width="2" fill="none"></polyline>
<polyline points="2210.8,1038.12,5452.05,410.751" stroke="rgb(255,0,68)" stroke-width="2" fill="none"></polyline>
<polyline points="797.92,221.907,4337.45,569.883" stroke="rgb(255,182,0)" stroke-width="2" fill="none"></polyline>
<polyline points="2670.33,1530.83,5148.75,681.8" stroke="rgb(255,140,0)" stroke-width="2" fill="none"></polyline>
<polyline points="1120.8,1372.7,5861.02,682.465" stroke="rgb(174,255,0)" stroke-width="2" fill="none"></polyline>
<polyline points="1756.05,1692.59,4911.97,587.751" stroke="rgb(255,34,0)" stroke-width="2" fill="none"></polyline>
<polyline points="1534.95,776.099,5656.31,430.362" stroke="rgb(255,182,0)" stroke-width="2" fill="none"></polyline>
<polyline points="2761.19,1507.58,5577.43,610.334" stroke="rgb(246,255,0)" stroke-width="2" fill="none"></polyline>
<polyline points="1162.9,2410.86,5509.39,1274.15" stroke="rgb(255,131,0)" stroke-width="2" fill="none"></polyline>
<polyline points="1654.84,999.917,5394.66,433.58" stroke="rgb(0,178,255)" stroke-width="2" fill="none"></polyline>
<polyline points="2768.19,1520.38,5436.77,615.945" stroke="rgb(0,255,212)" stroke-width="2" fill="none"></polyline>
<polyline points="1775.18,1960.7,5904.88,707.809" stroke="rgb(255,63,0)" stroke-width="2" fill="none"></polyline>
<polyline points="1801.39,1923.45,5509.74,619.225" stroke="rgb(0,63,255)" stroke-width="2" fill="none"></polyline>
<polyline points="2761.19,1507.58,5435.81,625.046" stroke="rgb(255,119,0)" stroke-width="2" fill="none"></polyline>
<polyline points="2761.19,1507.58,5435.81,625.046" stroke="rgb(0,255,246)" stroke-width="2" fill="none"></polyline>
<polyline points="1800.63,1929.8,5503.58,627.678" stroke="rgb(255,246,0)" stroke-width="2" fill="none"></polyline>
<polyline points="1193.39,957.278,5466.19,631.233" stroke="rgb(186,0,255)" stroke-width="2" fill="none"></polyline>
<polyline points="1705.71,1713.13,5224.72,1639.87" stroke="rgb(0,255,80)" stroke-width="2" fill="none"></polyline>
<polyline points="1916.7,1347.7,5616.17,730.203" stroke="rgb(0,97,255)" stroke-width="2" fill="none"></polyline>
<polyline points="1852.08,717.606,5593.37,496.151" stroke="rgb(0,255,186)" stroke-width="2" fill="none"></polyline>
<polyline points="910.912,1010.19,5380.11,1888.82" stroke="rgb(0,255,89)" stroke-width="2" fill="none"></polyline>
<polyline points="2524.24,1046.75,4778.91,875.032" stroke="rgb(255,102,0)" stroke-width="2" fill="none"></polyline>
<polyline points="1726.43,1348.94,5483.91,535.9" stroke="rgb(255,0,51)" stroke-width="2" fill="none"></polyline>
<polyline points="768.447,361.813,5071.72,947.561" stroke="rgb(0,187,255)" stroke-width="2" fill="none"></polyline>
<polyline points="968.773,920.929,4318.82,543.418" stroke="rgb(89,0,255)" stroke-width="2" fill="none"></polyline>
<polyline points="2683.02,1352.69,5235.43,1776.84" stroke="rgb(0,229,255)" stroke-width="2" fill="none"></polyline>
<polyline points="1665.74,925.566,4936.98,1844.2" stroke="rgb(0,255,63)" stroke-width="2" fill="none"></polyline>
<polyline points="1214.36,649.198,5766.92,659.792" stroke="rgb(255,0,216)" stroke-width="2" fill="none"></polyline>
<polyline points="2782.08,1820.81,4873.76,2022.37" stroke="rgb(255,0,110)" stroke-width="2" fill="none"></polyline>
<polyline points="1540.27,999.232,5003.05,734.56" stroke="rgb(216,255,0)" stroke-width="2" fill="none"></polyline>
<polyline points="1129.26,1389.7,4745.51,755.908" stroke="rgb(50,0,255)" stroke-width="2" fill="none"></polyline>
<polyline points="1806.96,913.27,5428.99,763.733" stroke="rgb(59,255,0)" stroke-width="2" fill="none"></polyline>
<polyline points="1761.88,1961.79,5382.25,785.254" stroke="rgb(191,0,255)" stroke-width="2" fill="none"></polyline>
<polyline points="910.912,1010.19,5146.22,2367" stroke="rgb(0,255,199)" stroke-width="2" fill="none"></polyline>
<polyline points="1148.95,1087.97,5838,2259.66" stroke="rgb(255,46,0)" stroke-width="2" fill="none"></polyline>
<polyline points="1119.14,1121.91,5114.75,2622.9" stroke="rgb(255,17,0)" stroke-width="2" fill="none"></polyline>
<polyline points="1756.97,1490.12,5071.17,741.757" stroke="rgb(0,255,233)" stroke-width="2" fill="none"></polyline>
<polyline points="1756.97,1490.12,5071.17,741.757" stroke="rgb(255,229,0)" stroke-width="2" fill="none"></polyline>
<polyline points="1240.44,693.21,5762.08,391.694" stroke="rgb(250,0,255)" stroke-width="2" fill="none"></polyline>
<polyline points="1686.28,1848.78,4935.33,737.24" stroke="rgb(0,144,255)" stroke-width="2" fill="none"></polyline>
<polyline points="1643.14,672.327,5672.23,398.922" stroke="rgb(0,255,16)" stroke-width="2" fill="none"></polyline>
<polyline points="910.912,1010.19,5146.55,2367.02" stroke="rgb(46,255,0)" stroke-width="2" fill="none"></polyline>
<polyline points="1137.85,770.446,6546.01,450.48" stroke="rgb(110,255,0)" stroke-width="2" fill="none"></polyline>
<polyline points="2260.72,720.475,5566.23,473.679" stroke="rgb(255,0,46)" stroke-width="2" fill="none"></polyline>
<polyline points="1670.23,1756.27,5042.77,920.843" stroke="rgb(0,255,72)" stroke-width="2" fill="none"></polyline>
<polyline points="1402.9,2182.84,5295.8,1876.87" stroke="rgb(135,0,255)" stroke-width="2" fill="none"></polyline>
<polyline points="1223.43,960.657,5950.16,1450.42" stroke="rgb(255,199,0)" stroke-width="2" fill="none"></polyline>
<polyline points="1228.8,927.861,5777.19,415.63" stroke="rgb(229,0,255)" stroke-width="2" fill="none"></polyline>
<polyline points="1634.61,1132,5029.53,1067.23" stroke="rgb(182,0,255)" stroke-width="2" fill="none"></polyline>
<polyline points="1679.35,1824.39,5044.9,1070.84" stroke="rgb(106,0,255)" stroke-width="2" fill="none"></polyline>
<polyline points="1129.26,1389.7,4739.25,662.053" stroke="rgb(93,255,0)" stroke-width="2" fill="none"></polyline>
<polyline points="1710.83,1681.43,4976.21,575.33" stroke="rgb(242,0,255)" stroke-width="2" fill="none"></polyline>
<polyline points="1710.83,1681.43,5032.43,582.285" stroke="rgb(0,255,174)" stroke-width="2" fill="none"></polyline>
<polyline points="1185.11,1147.29,6256.19,657.982" stroke="rgb(255,0,178)" stroke-width="2" fill="none"></polyline>
<polyline points="1660.89,1958.21,4850.86,2349.53" stroke="rgb(0,255,55)" stroke-width="2" fill="none"></polyline>
<polyline points="1104.77,1761.1,4708.39,819.315" stroke="rgb(246,255,0)" stroke-width="2" fill="none"></polyline>
<polyline points="976.146,892.927,4932.61,2728.78" stroke="rgb(0,255,101)" stroke-width="2" fill="none"></polyline>
<polyline points="1380.42,547.263,6548.83,1470.27" stroke="rgb(118,0,255)" stroke-width="2" fill="none"></polyline>
<polyline points="1380.42,547.263,6548.83,1470.27" stroke="rgb(17,0,255)" stroke-width="2" fill="none"></polyline>
<polyline points="1602.63,1141.09,5457.93,1653.73" stroke="rgb(255,0,42)" stroke-width="2" fill="none"></polyline>
<polyline points="1104.77,1761.1,5527.95,2112.09" stroke="rgb(0,131,255)" stroke-width="2" fill="none"></polyline>
<polyline points="1069.76,899.625,5195.81,1176.68" stroke="rgb(255,34,0)" stroke-width="2" fill="none"></polyline>
<polyline points="1819.99,660.638,6665.65,2522.51" stroke="rgb(255,0,136)" stroke-width="2" fill="none"></polyline>
<polyline points="2596.65,1034.68,6742.19,1636.56" stroke="rgb(0,255,59)" stroke-width="2" fill="none"></polyline>
<polyline points="1520.56,739.558,4904.22,553.34" stroke="rgb(0,255,237)" stroke-width="2" fill="none"></polyline>
<polyline points="1780.99,1204.04,6802.45,1701.48" stroke="rgb(255,0,89)" stroke-width="2" fill="none"></polyline>
<circle cx="1261.22" cy="1714.56" r="4" stroke="rgb(0,255,212)" stroke-width="2" fill="none"></circle>
<circle cx="4884.41" cy="131.43" r="4" stroke="rgb(0,255,212)" stroke-width="2" fill="none"></circle>
<circle cx="2291.69" cy="890.323" r="4" stroke="rgb(0,255,63)" stroke-width="2" fill="none"></circle>
<circle cx="4911.68" cy="2115.25" r="4" stroke="rgb(0,255,63)" stroke-width="2" fill="none"></circle>
<circle cx="1933.91" cy="1905.28" r="4" stroke="rgb(208,255,0)" stroke-width="2" fill="none"></circle>
<circle cx="5592.05" cy="316.265" r="4" stroke="rgb(208,255,0)" stroke-width="2" fill="none"></circle>
<circle cx="2475.25" cy="1071.04" r="4" stroke="rgb(186,0,255)" stroke-width="2" fill="none"></circle>
<circle cx="4995.99" cy="1210.58" r="4" stroke="rgb(186,0,255)" stroke-width="2" fill="none"></circle>
<circle cx="2678.98" cy="1239.51" r="4" stroke="rgb(216,255,0)" stroke-width="2" fill="none"></circle>
<circle cx="5539.76" cy="317.708" r="4" stroke="rgb(216,255,0)" stroke-width="2" fill="none"></circle>
<circle cx="2678.98" cy="1239.51" r="4" stroke="rgb(255,59,0)" stroke-width="2" fill="none"></circle>
<circle cx="5539.76" cy="317.708" r="4" stroke="rgb(255,59,0)" stroke-width="2" fill="none"></circle>
<circle cx="1316.87" cy="1000.6" r="4" stroke="rgb(0,255,84)" stroke-width="2" fill="none"></circle>
<circle cx="5628.73" cy="331.397" r="4" stroke="rgb(0,255,84)" stroke-width="2" fill="none"></circle>
<circle cx="1090.02" cy="2191.51" r="4" stroke="rgb(254,0,255)" stroke-width="2" fill="none"></circle>
<circle cx="5533.18" cy="2427.24" r="4" stroke="rgb(254,0,255)" stroke-width="2" fill="none"></circle>
<circle cx="2678.98" cy="1239.51" r="4" stroke="rgb(255,0,212)" stroke-width="2" fill="none"></circle>
<circle cx="5646.08" cy="320.068" r="4" stroke="rgb(255,0,212)" stroke-width="2" fill="none"></circle>
<circle cx="2493.03" cy="1549.47" r="4" stroke="rgb(0,55,255)" stroke-width="2" fill="none"></circle>
<circle cx="4813.7" cy="2450.07" r="4" stroke="rgb(0,55,255)" stroke-width="2" fill="none"></circle>
<circle cx="2678.98" cy="1239.51" r="4" stroke="rgb(59,0,255)" stroke-width="2" fill="none"></circle>
<circle cx="5646.08" cy="320.068" r="4" stroke="rgb(59,0,255)" stroke-width="2" fill="none"></circle>
<circle cx="1561.04" cy="760.711" r="4" stroke="rgb(0,0,255)" stroke-width="2" fill="none"></circle>
<circle cx="5929.45" cy="1468.51" r="4" stroke="rgb(0,0,255)" stroke-width="2" fill="none"></circle>
<circle cx="1928.54" cy="1904.2" r="4" stroke="rgb(255,212,0)" stroke-width="2" fill="none"></circle>
<circle cx="5489.46" cy="344.13" r="4" stroke="rgb(255,212,0)" stroke-width="2" fill="none"></circle>
<circle cx="1538.31" cy="783.684" r="4" stroke="rgb(0,51,255)" stroke-width="2" fill="none"></circle>
<circle cx="5492.02" cy="328.796" r="4" stroke="rgb(0,51,255)" stroke-width="2" fill="none"></circle>
<circle cx="3039.58" cy="1622.58" r="4" stroke="rgb(0,255,55)" stroke-width="2" fill="none"></circle>
<circle cx="5736.12" cy="1491.49" r="4" stroke="rgb(0,255,55)" stroke-width="2" fill="none"></circle>
<circle cx="1480.49" cy="723.078" r="4" stroke="rgb(0,76,255)" stroke-width="2" fill="none"></circle>
<circle cx="5529.24" cy="356.242" r="4" stroke="rgb(0,76,255)" stroke-width="2" fill="none"></circle>
<circle cx="1773.19" cy="1872.05" r="4" stroke="rgb(255,0,148)" stroke-width="2" fill="none"></circle>
<circle cx="5559.16" cy="364.886" r="4" stroke="rgb(255,0,148)" stroke-width="2" fill="none"></circle>
<circle cx="1788.8" cy="1867.06" r="4" stroke="rgb(0,255,76)" stroke-width="2" fill="none"></circle>
<circle cx="5399.39" cy="363.177" r="4" stroke="rgb(0,255,76)" stroke-width="2" fill="none"></circle>
<circle cx="1500.57" cy="760.417" r="4" stroke="rgb(255,0,72)" stroke-width="2" fill="none"></circle>
<circle cx="5550.18" cy="406.608" r="4" stroke="rgb(255,0,72)" stroke-width="2" fill="none"></circle>
<circle cx="1542.96" cy="2507.18" r="4" stroke="rgb(0,255,131)" stroke-width="2" fill="none"></circle>
<circle cx="5852.36" cy="2340.05" r="4" stroke="rgb(0,255,131)" stroke-width="2" fill="none"></circle>
<circle cx="1469.66" cy="756.091" r="4" stroke="rgb(178,0,255)" stroke-width="2" fill="none"></circle>
<circle cx="5512.81" cy="389.882" r="4" stroke="rgb(178,0,255)" stroke-width="2" fill="none"></circle>
<circle cx="2182.18" cy="824.251" r="4" stroke="rgb(0,21,255)" stroke-width="2" fill="none"></circle>
<circle cx="5516.12" cy="402.419" r="4" stroke="rgb(0,21,255)" stroke-width="2" fill="none"></circle>
<circle cx="1215.06" cy="1338.43" r="4" stroke="rgb(255,0,68)" stroke-width="2" fill="none"></circle>
<circle cx="5092.33" cy="972.736" r="4" stroke="rgb(255,0,68)" stroke-width="2" fill="none"></circle>
<circle cx="1215.06" cy="1338.43" r="4" stroke="rgb(0,255,148)" stroke-width="2" fill="none"></circle>
<circle cx="5092.33" cy="972.736" r="4" stroke="rgb(0,255,148)" stroke-width="2" fill="none"></circle>
<circle cx="1261.96" cy="963.475" r="4" stroke="rgb(255,0,59)" stroke-width="2" fill="none"></circle>
<circle cx="5837.98" cy="2547.65" r="4" stroke="rgb(255,0,59)" stroke-width="2" fill="none"></circle>
<circle cx="1735.61" cy="1815.33" r="4" stroke="rgb(0,255,182)" stroke-width="2" fill="none"></circle>
<circle cx="5055.41" cy="1031.68" r="4" stroke="rgb(0,255,182)" stroke-width="2" fill="none"></circle>
<circle cx="2698.49" cy="1279.78" r="4" stroke="rgb(255,0,165)" stroke-width="2" fill="none"></circle>
<circle cx="5443.66" cy="438.373" r="4" stroke="rgb(255,0,165)" stroke-width="2" fill="none"></circle>
<circle cx="2191.36" cy="743.214" r="4" stroke="rgb(67,0,255)" stroke-width="2" fill="none"></circle>
<circle cx="5614.08" cy="298.109" r="4" stroke="rgb(67,0,255)" stroke-width="2" fill="none"></circle>
<circle cx="1696.67" cy="1906.17" r="4" stroke="rgb(255,0,169)" stroke-width="2" fill="none"></circle>
<circle cx="5162.47" cy="1371.74" r="4" stroke="rgb(255,0,169)" stroke-width="2" fill="none"></circle>
<circle cx="2698.49" cy="1279.78" r="4" stroke="rgb(0,255,165)" stroke-width="2" fill="none"></circle>
<circle cx="5443.66" cy="438.373" r="4" stroke="rgb(0,255,165)" stroke-width="2" fill="none"></circle>
<circle cx="2549.06" cy="1739.82" r="4" stroke="rgb(0,0,255)" stroke-width="2" fill="none"></circle>
<circle cx="5362.61" cy="319.595" r="4" stroke="rgb(0,0,255)" stroke-width="2" fill="none"></circle>
<circle cx="1754.81" cy="1460.51" r="4" stroke="rgb(0,255,42)" stroke-width="2" fill="none"></circle>
<circle cx="5552.52" cy="454.41" r="4" stroke="rgb(0,255,42)" stroke-width="2" fill="none"></circle>
<circle cx="1754.81" cy="1460.51" r="4" stroke="rgb(233,0,255)" stroke-width="2" fill="none"></circle>
<circle cx="5552.52" cy="454.41" r="4" stroke="rgb(233,0,255)" stroke-width="2" fill="none"></circle>
<circle cx="2678.98" cy="1239.51" r="4" stroke="rgb(255,0,208)" stroke-width="2" fill="none"></circle>
<circle cx="5732.83" cy="460.906" r="4" stroke="rgb(255,0,208)" stroke-width="2" fill="none"></circle>
<circle cx="2782.08" cy="1820.81" r="4" stroke="rgb(255,229,0)" stroke-width="2" fill="none"></circle>
<circle cx="4847.79" cy="473.885" r="4" stroke="rgb(255,229,0)" stroke-width="2" fill="none"></circle>
<circle cx="1534.95" cy="776.099" r="4" stroke="rgb(0,17,255)" stroke-width="2" fill="none"></circle>
<circle cx="5611.85" cy="355.24" r="4" stroke="rgb(0,17,255)" stroke-width="2" fill="none"></circle>
<circle cx="2224.76" cy="838.787" r="4" stroke="rgb(255,0,144)" stroke-width="2" fill="none"></circle>
<circle cx="5880.33" cy="1498.14" r="4" stroke="rgb(255,0,144)" stroke-width="2" fill="none"></circle>
<circle cx="2678.98" cy="1239.51" r="4" stroke="rgb(225,255,0)" stroke-width="2" fill="none"></circle>
<circle cx="5616.78" cy="498.665" r="4" stroke="rgb(225,255,0)" stroke-width="2" fill="none"></circle>
<circle cx="2678.98" cy="1239.51" r="4" stroke="rgb(255,204,0)" stroke-width="2" fill="none"></circle>
<circle cx="5616.78" cy="498.665" r="4" stroke="rgb(255,204,0)" stroke-width="2" fill="none"></circle>
<circle cx="3039.58" cy="1622.58" r="4" stroke="rgb(0,255,118)" stroke-width="2" fill="none"></circle>
<circle cx="5085.23" cy="1486.1" r="4" stroke="rgb(0,255,118)" stroke-width="2" fill="none"></circle>
<circle cx="1794.6" cy="1883.52" r="4" stroke="rgb(229,0,255)" stroke-width="2" fill="none"></circle>
<circle cx="5480.7" cy="519.691" r="4" stroke="rgb(229,0,255)" stroke-width="2" fill="none"></circle>
<circle cx="2532.17" cy="1477.96" r="4" stroke="rgb(255,0,242)" stroke-width="2" fill="none"></circle>
<circle cx="5608.78" cy="519.855" r="4" stroke="rgb(255,0,242)" stroke-width="2" fill="none"></circle>
<circle cx="1209.67" cy="767.847" r="4" stroke="rgb(85,0,255)" stroke-width="2" fill="none"></circle>
<circle cx="5945.89" cy="1559.64" r="4" stroke="rgb(85,0,255)" stroke-width="2" fill="none"></circle>
<circle cx="2210.8" cy="1038.12" r="4" stroke="rgb(255,0,68)" stroke-width="2" fill="none"></circle>
<circle cx="5452.05" cy="410.751" r="4" stroke="rgb(255,0,68)" stroke-width="2" fill="none"></circle>
<circle cx="797.92" cy="221.907" r="4" stroke="rgb(255,182,0)" stroke-width="2" fill="none"></circle>
<circle cx="4337.45" cy="569.883" r="4" stroke="rgb(255,182,0)" stroke-width="2" fill="none"></circle>
<circle cx="2670.33" cy="1530.83" r="4" stroke="rgb(255,140,0)" stroke-width="2" fill="none"></circle>
<circle cx="5148.75" cy="681.8" r="4" stroke="rgb(255,140,0)" stroke-width="2" fill="none"></circle>
<circle cx="1120.8" cy="1372.7" r="4" stroke="rgb(174,255,0)" stroke-width="2" fill="none"></circle>
<circle cx="5861.02" cy="682.465" r="4" stroke="rgb(174,255,0)" stroke-width="2" fill="none"></circle>
<circle cx="1756.05" cy="1692.59" r="4" stroke="rgb(255,34,0)" stroke-width="2" fill="none"></circle>
<circle cx="4911.97" cy="587.751" r="4" stroke="rgb(255,34,0)" stroke-width="2" fill="none"></circle>
<circle cx="1534.95" cy="776.099" r="4" stroke="rgb(255,182,0)" stroke-width="2" fill="none"></circle>
<circle cx="5656.31" cy="430.362" r="4" stroke="rgb(255,182,0)" stroke-width="2" fill="none"></circle>
<circle cx="2761.19" cy="1507.58" r="4" stroke="rgb(246,255,0)" stroke-width="2" fill="none"></circle>
<circle cx="5577.43" cy="610.334" r="4" stroke="rgb(246,255,0)" stroke-width="2" fill="none"></circle>
<circle cx="1162.9" cy="2410.86" r="4" stroke="rgb(255,131,0)" stroke-width="2" fill="none"></circle>
<circle cx="5509.39" cy="1274.15" r="4" stroke="rgb(255,131,0)" stroke-width="2" fill="none"></circle>
<circle cx="1654.84" cy="999.917" r="4" stroke="rgb(0,178,255)" stroke-width="2" fill="none"></circle>
<circle cx="5394.66" cy="433.58" r="4" stroke="rgb(0,178,255)" stroke-width="2" fill="none"></circle>
<circle cx="2768.19" cy="1520.38" r="4" stroke="rgb(0,255,212)" stroke-width="2" fill="none"></circle>
<circle cx="5436.77" cy="615.945" r="4" stroke="rgb(0,255,212)" stroke-width="2" fill="none"></circle>
<circle cx="1775.18" cy="1960.7" r="4" stroke="rgb(255,63,0)" stroke-width="2" fill="none"></circle>
<circle cx="5904.88" cy="707.809" r="4" stroke="rgb(255,63,0)" stroke-width="2" fill="none"></circle>
<circle cx="1801.39" cy="1923.45" r="4" stroke="rgb(0,63,255)" stroke-width="2" fill="none"></circle>
<circle cx="5509.74" cy="619.225" r="4" stroke="rgb(0,63,255)" stroke-width="2" fill="none"></circle>
<circle cx="2761.19" cy="1507.58" r="4" stroke="rgb(255,119,0)" stroke-width="2" fill="none"></circle>
<circle cx="5435.81" cy="625.046" r="4" stroke="rgb(255,119,0)" stroke-width="2" fill="none"></circle>
<circle cx="2761.19" cy="1507.58" r="4" stroke="rgb(0,255,246)" stroke-width="2" fill="none"></circle>
<circle cx="5435.81" cy="625.046" r="4" stroke="rgb(0,255,246)" stroke-width="2" fill="none"></circle>
<circle cx="1800.63" cy="1929.8" r="4" stroke="rgb(255,246,0)" stroke-width="2" fill="none"></circle>
<circle cx="5503.58" cy="627.678" r="4" stroke="rgb(255,246,0)" stroke-width="2" fill="none"></circle>
<circle cx="1193.39" cy="957.278" r="4" stroke="rgb(186,0,255)" stroke-width="2" fill="none"></circle>
<circle cx="5466.19" cy="631.233" r="4" stroke="rgb(186,0,255)" stroke-width="2" fill="none"></circle>
<circle cx="1705.71" cy="1713.13" r="4" stroke="rgb(0,255,80)" stroke-width="2" fill="none"></circle>
<circle cx="5224.72" cy="1639.87" r="4" stroke="rgb(0,255,80)" stroke-width="2" fill="none"></circle>
<circle cx="1916.7" cy="1347.7" r="4" stroke="rgb(0,97,255)" stroke-width="2" fill="none"></circle>
<circle cx="5616.17" cy="730.203" r="4" stroke="rgb(0,97,255)" stroke-width="2" fill="none"></circle>
<circle cx="1852.08" cy="717.606" r="4" stroke="rgb(0,255,186)" stroke-width="2" fill="none"></circle>
<circle cx="5593.37" cy="496.151" r="4" stroke="rgb(0,255,186)" stroke-width="2" fill="none"></circle>
<circle cx="910.912" cy="1010.19" r="4" stroke="rgb(0,255,89)" stroke-width="2" fill="none"></circle>
<circle cx="5380.11" cy="1888.82" r="4" stroke="rgb(0,255,89)" stroke-width="2" fill="none"></circle>
<circle cx="2524.24" cy="1046.75" r="4" stroke="rgb(255,102,0)" stroke-width="2" fill="none"></circle>
<circle cx="4778.91" cy="875.032" r="4" stroke="rgb(255,102,0)" stroke-width="2" fill="none"></circle>
<circle cx="1726.43" cy="1348.94" r="4" stroke="rgb(255,0,51)" stroke-width="2" fill="none"></circle>
<circle cx="5483.91" cy="535.9" r="4" stroke="rgb(255,0,51)" stroke-width="2" fill="none"></circle>
<circle cx="768.447" cy="361.813" r="4" stroke="rgb(0,187,255)" stroke-width="2" fill="none"></circle>
<circle cx="5071.72" cy="947.561" r="4" stroke="rgb(0,187,255)" stroke-width="2" fill="none"></circle>
<circle cx="968.773" cy="920.929" r="4" stroke="rgb(89,0,255)" stroke-width="2" fill="none"></circle>
<circle cx="4318.82" cy="543.418" r="4" stroke="rgb(89,0,255)" stroke-width="2" fill="none"></circle>
<circle cx="2683.02" cy="1352.69" r="4" stroke="rgb(0,229,255)" stroke-width="2" fill="none"></circle>
<circle cx="5235.43" cy="1776.84" r="4" stroke="rgb(0,229,255)" stroke-width="2" fill="none"></circle>
<circle cx="1665.74" cy="925.566" r="4" stroke="rgb(0,255,63)" stroke-width="2" fill="none"></circle>
<circle cx="4936.98" cy="1844.2" r="4" stroke="rgb(0,255,63)" stroke-width="2" fill="none"></circle>
<circle cx="1214.36" cy="649.198" r="4" stroke="rgb(255,0,216)" stroke-width="2" fill="none"></circle>
<circle cx="5766.92" cy="659.792" r="4" stroke="rgb(255,0,216)" stroke-width="2" fill="none"></circle>
<circle cx="2782.08" cy="1820.81" r="4" stroke="rgb(255,0,110)" stroke-width="2" fill="none"></circle>
<circle cx="4873.76" cy="2022.37" r="4" stroke="rgb(255,0,110)" stroke-width="2" fill="none"></circle>
<circle cx="1540.27" cy="999.232" r="4" stroke="rgb(216,255,0)" stroke-width="2" fill="none"></circle>
<circle cx="5003.05" cy="734.56" r="4" stroke="rgb(216,255,0)" stroke-width="2" fill="none"></circle>
<circle cx="1129.26" cy="1389.7" r="4" stroke="rgb(50,0,255)" stroke-width="2" fill="none"></circle>
<circle cx="4745.51" cy="755.908" r="4" stroke="rgb(50,0,255)" stroke-width="2" fill="none"></circle>
<circle cx="1806.96" cy="913.27" r="4" stroke="rgb(59,255,0)" stroke-width="2" fill="none"></circle>
<circle cx="5428.99" cy="763.733" r="4" stroke="rgb(59,255,0)" stroke-width="2" fill="none"></circle>
<circle cx="1761.88" cy="1961.79" r="4" stroke="rgb(191,0,255)" stroke-width="2" fill="none"></circle>
<circle cx="5382.25" cy="785.254" r="4" stroke="rgb(191,0,255)" stroke-width="2" fill="none"></circle>
<circle cx="910.912" cy="1010.19" r="4" stroke="rgb(0,255,199)" stroke-width="2" fill="none"></circle>
<circle cx="5146.22" cy="2367" r="4" stroke="rgb(0,255,199)" stroke-width="2" fill="none"></circle>
<circle cx="1148.95" cy="1087.97" r="4" stroke="rgb(255,46,0)" stroke-width="2" fill="none"></circle>
<circle cx="5838" cy="2259.66" r="4" stroke="rgb(255,46,0)" stroke-width="2" fill="none"></circle>
<circle cx="1119.14" cy="1121.91" r="4" stroke="rgb(255,17,0)" stroke-width="2" fill="none"></circle>
<circle cx="5114.75" cy="2622.9" r="4" stroke="rgb(255,17,0)" stroke-width="2" fill="none"></circle>
<circle cx="1756.97" cy="1490.12" r="4" stroke="rgb(0,255,233)" stroke-width="2" fill="none"></circle>
<circle cx="5071.17" cy="741.757" r="4" stroke="rgb(0,255,233)" stroke-width="2" fill="none"></circle>
<circle cx="1756.97" cy="1490.12" r="4" stroke="rgb(255,229,0)" stroke-width="2" fill="none"></circle>
<circle cx="5071.17" cy="741.757" r="4" stroke="rgb(255,229,0)" stroke-width="2" fill="none"></circle>
<circle cx="1240.44" cy="693.21" r="4" stroke="rgb(250,0,255)" stroke-width="2" fill="none"></circle>
<circle cx="5762.08" cy="391.694" r="4" stroke="rgb(250,0,255)" stroke-width="2" fill="none"></circle>
<circle cx="1686.28" cy="1848.78" r="4" stroke="rgb(0,144,255)" stroke-width="2" fill="none"></circle>
<circle cx="4935.33" cy="737.24" r="4" stroke="rgb(0,144,255)" stroke-width="2" fill="none"></circle>
<circle cx="1643.14" cy="672.327" r="4" stroke="rgb(0,255,16)" stroke-width="2" fill="none"></circle>
<circle cx="5672.23" cy="398.922" r="4" stroke="rgb(0,255,16)" stroke-width="2" fill="none"></circle>
<circle cx="910.912" cy="1010.19" r="4" stroke="rgb(46,255,0)" stroke-width="2" fill="none"></circle>
<circle cx="5146.55" cy="2367.02" r="4" stroke="rgb(46,255,0)" stroke-width="2" fill="none"></circle>
<circle cx="1137.85" cy="770.446" r="4" stroke="rgb(110,255,0)" stroke-width="2" fill="none"></circle>
<circle cx="6546.01" cy="450.48" r="4" stroke="rgb(110,255,0)" stroke-width="2" fill="none"></circle>
<circle cx="2260.72" cy="720.475" r="4" stroke="rgb(255,0,46)" stroke-width="2" fill="none"></circle>
<circle cx="5566.23" cy="473.679" r="4" stroke="rgb(255,0,46)" stroke-width="2" fill="none"></circle>
<circle cx="1670.23" cy="1756.27" r="4" stroke="rgb(0,255,72)" stroke-width="2" fill="none"></circle>
<circle cx="5042.77" cy="920.843" r="4" stroke="rgb(0,255,72)" stroke-width="2" fill="none"></circle>
<circle cx="1402.9" cy="2182.84" r="4" stroke="rgb(135,0,255)" stroke-width="2" fill="none"></circle>
<circle cx="5295.8" cy="1876.87" r="4" stroke="rgb(135,0,255)" stroke-width="2" fill="none"></circle>
<circle cx="1223.43" cy="960.657" r="4" stroke="rgb(255,199,0)" stroke-width="2" fill="none"></circle>
<circle cx="5950.16" cy="1450.42" r="4" stroke="rgb(255,199,0)" stroke-width="2" fill="none"></circle>
<circle cx="1228.8" cy="927.861" r="4" stroke="rgb(229,0,255)" stroke-width="2" fill="none"></circle>
<circle cx="5777.19" cy="415.63" r="4" stroke="rgb(229,0,255)" stroke-width="2" fill="none"></circle>
<circle cx="1634.61" cy="1132" r="4" stroke="rgb(182,0,255)" stroke-width="2" fill="none"></circle>
<circle cx="5029.53" cy="1067.23" r="4" stroke="rgb(182,0,255)" stroke-width="2" fill="none"></circle>
<circle cx="1679.35" cy="1824.39" r="4" stroke="rgb(106,0,255)" stroke-width="2" fill="none"></circle>
<circle cx="5044.9" cy="1070.84" r="4" stroke="rgb(106,0,255)" stroke-width="2" fill="none"></circle>
<circle cx="1129.26" cy="1389.7" r="4" stroke="rgb(93,255,0)" stroke-width="2" fill="none"></circle>
<circle cx="4739.25" cy="662.053" r="4" stroke="rgb(93,255,0)" stroke-width="2" fill="none"></circle>
<circle cx="1710.83" cy="1681.43" r="4" stroke="rgb(242,0,255)" stroke-width="2" fill="none"></circle>
<circle cx="4976.21" cy="575.33" r="4" stroke="rgb(242,0,255)" stroke-width="2" fill="none"></circle>
<circle cx="1710.83" cy="1681.43" r="4" stroke="rgb(0,255,174)" stroke-width="2" fill="none"></circle>
<circle cx="5032.43" cy="582.285" r="4" stroke="rgb(0,255,174)" stroke-width="2" fill="none"></circle>
<circle cx="1185.11" cy="1147.29" r="4" stroke="rgb(255,0,178)" stroke-width="2" fill="none"></circle>
<circle cx="6256.19" cy="657.982" r="4" stroke="rgb(255,0,178)" stroke-width="2" fill="none"></circle>
<circle cx="1660.89" cy="1958.21" r="4" stroke="rgb(0,255,55)" stroke-width="2" fill="none"></circle>
<circle cx="4850.86" cy="2349.53" r="4" stroke="rgb(0,255,55)" stroke-width="2" fill="none"></circle>
<circle cx="1104.77" cy="1761.1" r="4" stroke="rgb(246,255,0)" stroke-width="2" fill="none"></circle>
<circle cx="4708.39" cy="819.315" r="4" stroke="rgb(246,255,0)" stroke-width="2" fill="none"></circle>
<circle cx="976.146" cy="892.927" r="4" stroke="rgb(0,255,101)" stroke-width="2" fill="none"></circle>
<circle cx="4932.61" cy="2728.78" r="4" stroke="rgb(0,255,101)" stroke-width="2" fill="none"></circle>
<circle cx="1380.42" cy="547.263" r="4" stroke="rgb(118,0,255)" stroke-width="2" fill="none"></circle>
<circle cx="6548.83" cy="1470.27" r="4" stroke="rgb(118,0,255)" stroke-width="2" fill="none"></circle>
<circle cx="1380.42" cy="547.263" r="4" stroke="rgb(17,0,255)" stroke-width="2" fill="none"></circle>
<circle cx="6548.83" cy="1470.27" r="4" stroke="rgb(17,0,255)" stroke-width="2" fill="none"></circle>
<circle cx="1602.63" cy="1141.09" r="4" stroke="rgb(255,0,42)" stroke-width="2" fill="none"></circle>
<circle cx="5457.93" cy="1653.73" r="4" stroke="rgb(255,0,42)" stroke-width="2" fill="none"></circle>
<circle cx="1104.77" cy="1761.1" r="4" stroke="rgb(0,131,255)" stroke-width="2" fill="none"></circle>
<circle cx="5527.95" cy="2112.09" r="4" stroke="rgb(0,131,255)" stroke-width="2" fill="none"></circle>
<circle cx="1069.76" cy="899.625" r="4" stroke="rgb(255,34,0)" stroke-width="2" fill="none"></circle>
<circle cx="5195.81" cy="1176.68" r="4" stroke="rgb(255,34,0)" stroke-width="2" fill="none"></circle>
<circle cx="1819.99" cy="660.638" r="4" stroke="rgb(255,0,136)" stroke-width="2" fill="none"></circle>
<circle cx="6665.65" cy="2522.51" r="4" stroke="rgb(255,0,136)" stroke-width="2" fill="none"></circle>
<circle cx="2596.65" cy="1034.68" r="4" stroke="rgb(0,255,59)" stroke-width="2" fill="none"></circle>
<circle cx="6742.19" cy="1636.56" r="4" stroke="rgb(0,255,59)" stroke-width="2" fill="none"></circle>
<circle cx="1520.56" cy="739.558" r="4" stroke="rgb(0,255,237)" stroke-width="2" fill="none"></circle>
<circle cx="4904.22" cy="553.34" r="4" stroke="rgb(0,255,237)" stroke-width="2" fill="none"></circle>
<circle cx="1780.99" cy="1204.04" r="4" stroke="rgb(255,0,89)" stroke-width="2" fill="none"></circle>
<circle cx="6802.45" cy="1701.48" r="4" stroke="rgb(255,0,89)" stroke-width="2" fill="none"></circle>
</svg>