<?xml version="1.0" standalone="yes"?>
<!-- SVG graphic -->
<svg xmlns='http://www.w3.org/2000/svg' xmlns:xlink='http://www.w3.org/1999/xlink'
width="8064px" height="3024px" preserveAspectRatio="xMinYMin meet" viewBox="0 0 8064 3024" version="1.1">
<image x="0" y="0" width="4032px" height="3024px" opacity="1" xlink:href="/home/jeong/Code/2D-to-3D-Modeling-using-AI/Make3D/Image/20200227_180641.jpg"/>
<image x="4032" y="0" width="4032px" height="3024px" opacity="1" xlink:href="/home/jeong/Code/2D-to-3D-Modeling-using-AI/Make3D/Image/20200227_180809.jpg"/>
<polyline points="1834.59,1783.94,6124.12,1049.74" stroke="rgb(165,0,255)" stroke-width="2" fill="none"></polyline>
<polyline points="1834.59,1783.94,6368,1986.26" stroke="rgb(0,93,255)" stroke-width="2" fill="none"></polyline>
<polyline points="2641,1730.01,5671.09,963.158" stroke="rgb(255,178,0)" stroke-width="2" fill="none"></polyline>
<polyline points="2641,1730.01,5683.08,971.611" stroke="rgb(0,178,255)" stroke-width="2" fill="none"></polyline>
<polyline points="1605.14,941.598,5577.9,985.623" stroke="rgb(4,255,0)" stroke-width="2" fill="none"></polyline>
<polyline points="2664.47,1471.09,5681.75,993.457" stroke="rgb(255,208,0)" stroke-width="2" fill="none"></polyline>
<polyline points="1773.19,1872.05,5982.26,1599.88" stroke="rgb(255,0,178)" stroke-width="2" fill="none"></polyline>
<polyline points="980.974,846.99,4725.33,1201.91" stroke="rgb(0,221,255)" stroke-width="2" fill="none"></polyline>
<polyline points="1261.22,1714.56,4723.23,1208.29" stroke="rgb(0,255,84)" stroke-width="2" fill="none"></polyline>
<polyline points="2746.97,1419.51,6539.02,1666.48" stroke="rgb(89,255,0)" stroke-width="2" fill="none"></polyline>
<polyline points="1605.14,941.598,5551.77,1247.55" stroke="rgb(80,255,0)" stroke-width="2" fill="none"></polyline>
<polyline points="1604.66,638.637,5959.73,1508.42" stroke="rgb(0,67,255)" stroke-width="2" fill="none"></polyline>
<polyline points="2691.53,1469.19,5905.9,1306.26" stroke="rgb(17,0,255)" stroke-width="2" fill="none"></polyline>
<polyline points="2261.93,1148.12,6008.61,1301.15" stroke="rgb(0,233,255)" stroke-width="2" fill="none"></polyline>
<polyline points="1907.69,675.044,6550.87,2050.91" stroke="rgb(0,72,255)" stroke-width="2" fill="none"></polyline>
<polyline points="1584.27,1078.99,6239.21,2066.53" stroke="rgb(255,255,0)" stroke-width="2" fill="none"></polyline>
<polyline points="1584.27,1078.99,6239.21,2066.53" stroke="rgb(0,255,63)" stroke-width="2" fill="none"></polyline>
<polyline points="1259.12,1543.06,5602.85,2178.53" stroke="rgb(255,0,21)" stroke-width="2" fill="none"></polyline>
<polyline points="1885.15,1237.39,5804.51,1404.26" stroke="rgb(255,144,0)" stroke-width="2" fill="none"></polyline>
<polyline points="2625.85,1730.68,6208.21,1018.3" stroke="rgb(0,255,195)" stroke-width="2" fill="none"></polyline>
<polyline points="1289.47,822.576,6797.36,1635.97" stroke="rgb(8,0,255)" stroke-width="2" fill="none"></polyline>
<polyline points="2641,1730.01,5746.84,1051.46" stroke="rgb(255,0,178)" stroke-width="2" fill="none"></polyline>
<polyline points="1872.12,1441.9,6205.26,1459.43" stroke="rgb(0,174,255)" stroke-width="2" fill="none"></polyline>
<polyline points="1289.47,822.576,6507.36,1648.48" stroke="rgb(0,131,255)" stroke-width="2" fill="none"></polyline>
<polyline points="1872.12,1441.9,6561.78,1118.36" stroke="rgb(0,255,246)" stroke-width="2" fill="none"></polyline>
<polyline points="2716.12,1723.27,5511.34,1474.77" stroke="rgb(255,0,237)" stroke-width="2" fill="none"></polyline>
<polyline points="871.807,711.253,6995.93,1811.19" stroke="rgb(255,0,93)" stroke-width="2" fill="none"></polyline>
<polyline points="1773.19,1872.05,5696.29,1425.05" stroke="rgb(123,255,0)" stroke-width="2" fill="none"></polyline>
<polyline points="1474.48,733.428,5587.23,1788.69" stroke="rgb(255,0,216)" stroke-width="2" fill="none"></polyline>
<polyline points="1298.26,1282.54,5869.79,1830.68" stroke="rgb(0,255,186)" stroke-width="2" fill="none"></polyline>
<polyline points="1372.7,581.735,6381.17,1519.34" stroke="rgb(0,165,255)" stroke-width="2" fill="none"></polyline>
<polyline points="1875.92,1039.23,5992.85,1855.25" stroke="rgb(80,255,0)" stroke-width="2" fill="none"></polyline>
<polyline points="1712.98,925.347,6436.32,1042.9" stroke="rgb(255,97,0)" stroke-width="2" fill="none"></polyline>
<polyline points="1403.65,755.383,5869.37,1548.73" stroke="rgb(12,0,255)" stroke-width="2" fill="none"></polyline>
<polyline points="1254.9,716.027,5776.81,1751.14" stroke="rgb(250,0,255)" stroke-width="2" fill="none"></polyline>
<polyline points="2002.84,831.028,6111.18,1868.82" stroke="rgb(255,59,0)" stroke-width="2" fill="none"></polyline>
<polyline points="1254.9,716.027,6133.58,1840.37" stroke="rgb(221,0,255)" stroke-width="2" fill="none"></polyline>
<polyline points="2772.69,1599.17,5746.12,1906.95" stroke="rgb(72,0,255)" stroke-width="2" fill="none"></polyline>
<polyline points="2261.93,1148.12,5936.39,1568.02" stroke="rgb(0,161,255)" stroke-width="2" fill="none"></polyline>
<polyline points="2419.73,781.557,5944.36,1847.77" stroke="rgb(255,0,237)" stroke-width="2" fill="none"></polyline>
<polyline points="1720.43,798.441,5888.88,1612.42" stroke="rgb(0,51,255)" stroke-width="2" fill="none"></polyline>
<polyline points="2746.56,1714.18,5840.26,1241.27" stroke="rgb(255,0,242)" stroke-width="2" fill="none"></polyline>
<polyline points="1750.89,1434.67,5681.7,1296.13" stroke="rgb(0,255,208)" stroke-width="2" fill="none"></polyline>
<polyline points="2530.53,1466.38,5883.52,1315.54" stroke="rgb(33,255,0)" stroke-width="2" fill="none"></polyline>
<polyline points="1289.47,822.576,6694.27,1343.12" stroke="rgb(255,4,0)" stroke-width="2" fill="none"></polyline>
<polyline points="1464.91,913.082,5743.04,1392.58" stroke="rgb(255,136,0)" stroke-width="2" fill="none"></polyline>
<polyline points="1712.98,925.347,5690.03,2115.53" stroke="rgb(255,187,0)" stroke-width="2" fill="none"></polyline>
<polyline points="1882.93,690.932,6314.35,1655.03" stroke="rgb(0,255,67)" stroke-width="2" fill="none"></polyline>
<polyline points="1755.21,1447.08,5724.26,1073.63" stroke="rgb(85,0,255)" stroke-width="2" fill="none"></polyline>
<polyline points="1766.68,814.228,5717.41,1117.33" stroke="rgb(174,255,0)" stroke-width="2" fill="none"></polyline>
<polyline points="1254.9,716.027,5777.03,1750.94" stroke="rgb(0,255,233)" stroke-width="2" fill="none"></polyline>
<polyline points="1449.35,790.507,5516.81,1834.08" stroke="rgb(255,59,0)" stroke-width="2" fill="none"></polyline>
<polyline points="1346.29,969.898,6039.53,1219.85" stroke="rgb(255,157,0)" stroke-width="2" fill="none"></polyline>
<polyline points="2036.21,747.822,6275.29,1919.84" stroke="rgb(255,59,0)" stroke-width="2" fill="none"></polyline>
<polyline points="2042.53,848.41,5941.08,1053.65" stroke="rgb(101,255,0)" stroke-width="2" fill="none"></polyline>
<polyline points="1474.35,591.962,5830.49,1367.01" stroke="rgb(140,255,0)" stroke-width="2" fill="none"></polyline>
<polyline points="1755.21,1447.08,5730.73,1010.44" stroke="rgb(255,0,178)" stroke-width="2" fill="none"></polyline>
<polyline points="1638.01,637.044,6011.05,1522.32" stroke="rgb(195,255,0)" stroke-width="2" fill="none"></polyline>
<polyline points="1870.07,818.271,6021.25,1979.51" stroke="rgb(0,255,250)" stroke-width="2" fill="none"></polyline>
<polyline points="1098.34,1071.57,5284.31,1667.39" stroke="rgb(0,255,84)" stroke-width="2" fill="none"></polyline>
<polyline points="1365.55,998.787,6065.69,1151.07" stroke="rgb(0,4,255)" stroke-width="2" fill="none"></polyline>
<polyline points="1411.9,755.496,5498.95,1776.18" stroke="rgb(255,85,0)" stroke-width="2" fill="none"></polyline>
<polyline points="1208.93,857.168,5331.49,1460.58" stroke="rgb(4,0,255)" stroke-width="2" fill="none"></polyline>
<polyline points="1636.22,961.054,5603.02,2077.71" stroke="rgb(0,255,59)" stroke-width="2" fill="none"></polyline>
<polyline points="1396.28,720.773,5504.09,1725.63" stroke="rgb(0,255,67)" stroke-width="2" fill="none"></polyline>
<polyline points="1081.34,1625.84,5115.67,1225.34" stroke="rgb(0,255,254)" stroke-width="2" fill="none"></polyline>
<polyline points="2069.54,786.834,6298.36,2045.35" stroke="rgb(0,255,118)" stroke-width="2" fill="none"></polyline>
<circle cx="1834.59" cy="1783.94" r="4" stroke="rgb(165,0,255)" stroke-width="2" fill="none"></circle>
<circle cx="6124.12" cy="1049.74" r="4" stroke="rgb(165,0,255)" stroke-width="2" fill="none"></circle>
<circle cx="1834.59" cy="1783.94" r="4" stroke="rgb(0,93,255)" stroke-width="2" fill="none"></circle>
<circle cx="6368" cy="1986.26" r="4" stroke="rgb(0,93,255)" stroke-width="2" fill="none"></circle>
<circle cx="2641" cy="1730.01" r="4" stroke="rgb(255,178,0)" stroke-width="2" fill="none"></circle>
<circle cx="5671.09" cy="963.158" r="4" stroke="rgb(255,178,0)" stroke-width="2" fill="none"></circle>
<circle cx="2641" cy="1730.01" r="4" stroke="rgb(0,178,255)" stroke-width="2" fill="none"></circle>
<circle cx="5683.08" cy="971.611" r="4" stroke="rgb(0,178,255)" stroke-width="2" fill="none"></circle>
<circle cx="1605.14" cy="941.598" r="4" stroke="rgb(4,255,0)" stroke-width="2" fill="none"></circle>
<circle cx="5577.9" cy="985.623" r="4" stroke="rgb(4,255,0)" stroke-width="2" fill="none"></circle>
<circle cx="2664.47" cy="1471.09" r="4" stroke="rgb(255,208,0)" stroke-width="2" fill="none"></circle>
<circle cx="5681.75" cy="993.457" r="4" stroke="rgb(255,208,0)" stroke-width="2" fill="none"></circle>
<circle cx="1773.19" cy="1872.05" r="4" stroke="rgb(255,0,178)" stroke-width="2" fill="none"></circle>
<circle cx="5982.26" cy="1599.88" r="4" stroke="rgb(255,0,178)" stroke-width="2" fill="none"></circle>
<circle cx="980.974" cy="846.99" r="4" stroke="rgb(0,221,255)" stroke-width="2" fill="none"></circle>
<circle cx="4725.33" cy="1201.91" r="4" stroke="rgb(0,221,255)" stroke-width="2" fill="none"></circle>
<circle cx="1261.22" cy="1714.56" r="4" stroke="rgb(0,255,84)" stroke-width="2" fill="none"></circle>
<circle cx="4723.23" cy="1208.29" r="4" stroke="rgb(0,255,84)" stroke-width="2" fill="none"></circle>
<circle cx="2746.97" cy="1419.51" r="4" stroke="rgb(89,255,0)" stroke-width="2" fill="none"></circle>
<circle cx="6539.02" cy="1666.48" r="4" stroke="rgb(89,255,0)" stroke-width="2" fill="none"></circle>
<circle cx="1605.14" cy="941.598" r="4" stroke="rgb(80,255,0)" stroke-width="2" fill="none"></circle>
<circle cx="5551.77" cy="1247.55" r="4" stroke="rgb(80,255,0)" stroke-width="2" fill="none"></circle>
<circle cx="1604.66" cy="638.637" r="4" stroke="rgb(0,67,255)" stroke-width="2" fill="none"></circle>
<circle cx="5959.73" cy="1508.42" r="4" stroke="rgb(0,67,255)" stroke-width="2" fill="none"></circle>
<circle cx="2691.53" cy="1469.19" r="4" stroke="rgb(17,0,255)" stroke-width="2" fill="none"></circle>
<circle cx="5905.9" cy="1306.26" r="4" stroke="rgb(17,0,255)" stroke-width="2" fill="none"></circle>
<circle cx="2261.93" cy="1148.12" r="4" stroke="rgb(0,233,255)" stroke-width="2" fill="none"></circle>
<circle cx="6008.61" cy="1301.15" r="4" stroke="rgb(0,233,255)" stroke-width="2" fill="none"></circle>
<circle cx="1907.69" cy="675.044" r="4" stroke="rgb(0,72,255)" stroke-width="2" fill="none"></circle>
<circle cx="6550.87" cy="2050.91" r="4" stroke="rgb(0,72,255)" stroke-width="2" fill="none"></circle>
<circle cx="1584.27" cy="1078.99" r="4" stroke="rgb(255,255,0)" stroke-width="2" fill="none"></circle>
<circle cx="6239.21" cy="2066.53" r="4" stroke="rgb(255,255,0)" stroke-width="2" fill="none"></circle>
<circle cx="1584.27" cy="1078.99" r="4" stroke="rgb(0,255,63)" stroke-width="2" fill="none"></circle>
<circle cx="6239.21" cy="2066.53" r="4" stroke="rgb(0,255,63)" stroke-width="2" fill="none"></circle>
<circle cx="1259.12" cy="1543.06" r="4" stroke="rgb(255,0,21)" stroke-width="2" fill="none"></circle>
<circle cx="5602.85" cy="2178.53" r="4" stroke="rgb(255,0,21)" stroke-width="2" fill="none"></circle>
<circle cx="1885.15" cy="1237.39" r="4" stroke="rgb(255,144,0)" stroke-width="2" fill="none"></circle>
<circle cx="5804.51" cy="1404.26" r="4" stroke="rgb(255,144,0)" stroke-width="2" fill="none"></circle>
<circle cx="2625.85" cy="1730.68" r="4" stroke="rgb(0,255,195)" stroke-width="2" fill="none"></circle>
<circle cx="6208.21" cy="1018.3" r="4" stroke="rgb(0,255,195)" stroke-width="2" fill="none"></circle>
<circle cx="1289.47" cy="822.576" r="4" stroke="rgb(8,0,255)" stroke-width="2" fill="none"></circle>
<circle cx="6797.36" cy="1635.97" r="4" stroke="rgb(8,0,255)" stroke-width="2" fill="none"></circle>
<circle cx="2641" cy="1730.01" r="4" stroke="rgb(255,0,178)" stroke-width="2" fill="none"></circle>
<circle cx="5746.84" cy="1051.46" r="4" stroke="rgb(255,0,178)" stroke-width="2" fill="none"></circle>
<circle cx="1872.12" cy="1441.9" r="4" stroke="rgb(0,174,255)" stroke-width="2" fill="none"></circle>
<circle cx="6205.26" cy="1459.43" r="4" stroke="rgb(0,174,255)" stroke-width="2" fill="none"></circle>
<circle cx="1289.47" cy="822.576" r="4" stroke="rgb(0,131,255)" stroke-width="2" fill="none"></circle>
<circle cx="6507.36" cy="1648.48" r="4" stroke="rgb(0,131,255)" stroke-width="2" fill="none"></circle>
<circle cx="1872.12" cy="1441.9" r="4" stroke="rgb(0,255,246)" stroke-width="2" fill="none"></circle>
<circle cx="6561.78" cy="1118.36" r="4" stroke="rgb(0,255,246)" stroke-width="2" fill="none"></circle>
<circle cx="2716.12" cy="1723.27" r="4" stroke="rgb(255,0,237)" stroke-width="2" fill="none"></circle>
<circle cx="5511.34" cy="1474.77" r="4" stroke="rgb(255,0,237)" stroke-width="2" fill="none"></circle>
<circle cx="871.807" cy="711.253" r="4" stroke="rgb(255,0,93)" stroke-width="2" fill="none"></circle>
<circle cx="6995.93" cy="1811.19" r="4" stroke="rgb(255,0,93)" stroke-width="2" fill="none"></circle>
<circle cx="1773.19" cy="1872.05" r="4" stroke="rgb(123,255,0)" stroke-width="2" fill="none"></circle>
<circle cx="5696.29" cy="1425.05" r="4" stroke="rgb(123,255,0)" stroke-width="2" fill="none"></circle>
<circle cx="1474.48" cy="733.428" r="4" stroke="rgb(255,0,216)" stroke-width="2" fill="none"></circle>
<circle cx="5587.23" cy="1788.69" r="4" stroke="rgb(255,0,216)" stroke-width="2" fill="none"></circle>
<circle cx="1298.26" cy="1282.54" r="4" stroke="rgb(0,255,186)" stroke-width="2" fill="none"></circle>
<circle cx="5869.79" cy="1830.68" r="4" stroke="rgb(0,255,186)" stroke-width="2" fill="none"></circle>
<circle cx="1372.7" cy="581.735" r="4" stroke="rgb(0,165,255)" stroke-width="2" fill="none"></circle>
<circle cx="6381.17" cy="1519.34" r="4" stroke="rgb(0,165,255)" stroke-width="2" fill="none"></circle>
<circle cx="1875.92" cy="1039.23" r="4" stroke="rgb(80,255,0)" stroke-width="2" fill="none"></circle>
<circle cx="5992.85" cy="1855.25" r="4" stroke="rgb(80,255,0)" stroke-width="2" fill="none"></circle>
<circle cx="1712.98" cy="925.347" r="4" stroke="rgb(255,97,0)" stroke-width="2" fill="none"></circle>
<circle cx="6436.32" cy="1042.9" r="4" stroke="rgb(255,97,0)" stroke-width="2" fill="none"></circle>
<circle cx="1403.65" cy="755.383" r="4" stroke="rgb(12,0,255)" stroke-width="2" fill="none"></circle>
<circle cx="5869.37" cy="1548.73" r="4" stroke="rgb(12,0,255)" stroke-width="2" fill="none"></circle>
<circle cx="1254.9" cy="716.027" r="4" stroke="rgb(250,0,255)" stroke-width="2" fill="none"></circle>
<circle cx="5776.81" cy="1751.14" r="4" stroke="rgb(250,0,255)" stroke-width="2" fill="none"></circle>
<circle cx="2002.84" cy="831.028" r="4" stroke="rgb(255,59,0)" stroke-width="2" fill="none"></circle>
<circle cx="6111.18" cy="1868.82" r="4" stroke="rgb(255,59,0)" stroke-width="2" fill="none"></circle>
<circle cx="1254.9" cy="716.027" r="4" stroke="rgb(221,0,255)" stroke-width="2" fill="none"></circle>
<circle cx="6133.58" cy="1840.37" r="4" stroke="rgb(221,0,255)" stroke-width="2" fill="none"></circle>
<circle cx="2772.69" cy="1599.17" r="4" stroke="rgb(72,0,255)" stroke-width="2" fill="none"></circle>
<circle cx="5746.12" cy="1906.95" r="4" stroke="rgb(72,0,255)" stroke-width="2" fill="none"></circle>
<circle cx="2261.93" cy="1148.12" r="4" stroke="rgb(0,161,255)" stroke-width="2" fill="none"></circle>
<circle cx="5936.39" cy="1568.02" r="4" stroke="rgb(0,161,255)" stroke-width="2" fill="none"></circle>
<circle cx="2419.73" cy="781.557" r="4" stroke="rgb(255,0,237)" stroke-width="2" fill="none"></circle>
<circle cx="5944.36" cy="1847.77" r="4" stroke="rgb(255,0,237)" stroke-width="2" fill="none"></circle>
<circle cx="1720.43" cy="798.441" r="4" stroke="rgb(0,51,255)" stroke-width="2" fill="none"></circle>
<circle cx="5888.88" cy="1612.42" r="4" stroke="rgb(0,51,255)" stroke-width="2" fill="none"></circle>
<circle cx="2746.56" cy="1714.18" r="4" stroke="rgb(255,0,242)" stroke-width="2" fill="none"></circle>
<circle cx="5840.26" cy="1241.27" r="4" stroke="rgb(255,0,242)" stroke-width="2" fill="none"></circle>
<circle cx="1750.89" cy="1434.67" r="4" stroke="rgb(0,255,208)" stroke-width="2" fill="none"></circle>
<circle cx="5681.7" cy="1296.13" r="4" stroke="rgb(0,255,208)" stroke-width="2" fill="none"></circle>
<circle cx="2530.53" cy="1466.38" r="4" stroke="rgb(33,255,0)" stroke-width="2" fill="none"></circle>
<circle cx="5883.52" cy="1315.54" r="4" stroke="rgb(33,255,0)" stroke-width="2" fill="none"></circle>
<circle cx="1289.47" cy="822.576" r="4" stroke="rgb(255,4,0)" stroke-width="2" fill="none"></circle>
<circle cx="6694.27" cy="1343.12" r="4" stroke="rgb(255,4,0)" stroke-width="2" fill="none"></circle>
<circle cx="1464.91" cy="913.082" r="4" stroke="rgb(255,136,0)" stroke-width="2" fill="none"></circle>
<circle cx="5743.04" cy="1392.58" r="4" stroke="rgb(255,136,0)" stroke-width="2" fill="none"></circle>
<circle cx="1712.98" cy="925.347" r="4" stroke="rgb(255,187,0)" stroke-width="2" fill="none"></circle>
<circle cx="5690.03" cy="2115.53" r="4" stroke="rgb(255,187,0)" stroke-width="2" fill="none"></circle>
<circle cx="1882.93" cy="690.932" r="4" stroke="rgb(0,255,67)" stroke-width="2" fill="none"></circle>
<circle cx="6314.35" cy="1655.03" r="4" stroke="rgb(0,255,67)" stroke-width="2" fill="none"></circle>
<circle cx="1755.21" cy="1447.08" r="4" stroke="rgb(85,0,255)" stroke-width="2" fill="none"></circle>
<circle cx="5724.26" cy="1073.63" r="4" stroke="rgb(85,0,255)" stroke-width="2" fill="none"></circle>
<circle cx="1766.68" cy="814.228" r="4" stroke="rgb(174,255,0)" stroke-width="2" fill="none"></circle>
<circle cx="5717.41" cy="1117.33" r="4" stroke="rgb(174,255,0)" stroke-width="2" fill="none"></circle>
<circle cx="1254.9" cy="716.027" r="4" stroke="rgb(0,255,233)" stroke-width="2" fill="none"></circle>
<circle cx="5777.03" cy="1750.94" r="4" stroke="rgb(0,255,233)" stroke-width="2" fill="none"></circle>
<circle cx="1449.35" cy="790.507" r="4" stroke="rgb(255,59,0)" stroke-width="2" fill="none"></circle>
<circle cx="5516.81" cy="1834.08" r="4" stroke="rgb(255,59,0)" stroke-width="2" fill="none"></circle>
<circle cx="1346.29" cy="969.898" r="4" stroke="rgb(255,157,0)" stroke-width="2" fill="none"></circle>
<circle cx="6039.53" cy="1219.85" r="4" stroke="rgb(255,157,0)" stroke-width="2" fill="none"></circle>
<circle cx="2036.21" cy="747.822" r="4" stroke="rgb(255,59,0)" stroke-width="2" fill="none"></circle>
<circle cx="6275.29" cy="1919.84" r="4" stroke="rgb(255,59,0)" stroke-width="2" fill="none"></circle>
<circle cx="2042.53" cy="848.41" r="4" stroke="rgb(101,255,0)" stroke-width="2" fill="none"></circle>
<circle cx="5941.08" cy="1053.65" r="4" stroke="rgb(101,255,0)" stroke-width="2" fill="none"></circle>
<circle cx="1474.35" cy="591.962" r="4" stroke="rgb(140,255,0)" stroke-width="2" fill="none"></circle>
<circle cx="5830.49" cy="1367.01" r="4" stroke="rgb(140,255,0)" stroke-width="2" fill="none"></circle>
<circle cx="1755.21" cy="1447.08" r="4" stroke="rgb(255,0,178)" stroke-width="2" fill="none"></circle>
<circle cx="5730.73" cy="1010.44" r="4" stroke="rgb(255,0,178)" stroke-width="2" fill="none"></circle>
<circle cx="1638.01" cy="637.044" r="4" stroke="rgb(195,255,0)" stroke-width="2" fill="none"></circle>
<circle cx="6011.05" cy="1522.32" r="4" stroke="rgb(195,255,0)" stroke-width="2" fill="none"></circle>
<circle cx="1870.07" cy="818.271" r="4" stroke="rgb(0,255,250)" stroke-width="2" fill="none"></circle>
<circle cx="6021.25" cy="1979.51" r="4" stroke="rgb(0,255,250)" stroke-width="2" fill="none"></circle>
<circle cx="1098.34" cy="1071.57" r="4" stroke="rgb(0,255,84)" stroke-width="2" fill="none"></circle>
<circle cx="5284.31" cy="1667.39" r="4" stroke="rgb(0,255,84)" stroke-width="2" fill="none"></circle>
<circle cx="1365.55" cy="998.787" r="4" stroke="rgb(0,4,255)" stroke-width="2" fill="none"></circle>
<circle cx="6065.69" cy="1151.07" r="4" stroke="rgb(0,4,255)" stroke-width="2" fill="none"></circle>
<circle cx="1411.9" cy="755.496" r="4" stroke="rgb(255,85,0)" stroke-width="2" fill="none"></circle>
<circle cx="5498.95" cy="1776.18" r="4" stroke="rgb(255,85,0)" stroke-width="2" fill="none"></circle>
<circle cx="1208.93" cy="857.168" r="4" stroke="rgb(4,0,255)" stroke-width="2" fill="none"></circle>
<circle cx="5331.49" cy="1460.58" r="4" stroke="rgb(4,0,255)" stroke-width="2" fill="none"></circle>
<circle cx="1636.22" cy="961.054" r="4" stroke="rgb(0,255,59)" stroke-width="2" fill="none"></circle>
<circle cx="5603.02" cy="2077.71" r="4" stroke="rgb(0,255,59)" stroke-width="2" fill="none"></circle>
<circle cx="1396.28" cy="720.773" r="4" stroke="rgb(0,255,67)" stroke-width="2" fill="none"></circle>
<circle cx="5504.09" cy="1725.63" r="4" stroke="rgb(0,255,67)" stroke-width="2" fill="none"></circle>
<circle cx="1081.34" cy="1625.84" r="4" stroke="rgb(0,255,254)" stroke-width="2" fill="none"></circle>
<circle cx="5115.67" cy="1225.34" r="4" stroke="rgb(0,255,254)" stroke-width="2" fill="none"></circle>
<circle cx="2069.54" cy="786.834" r="4" stroke="rgb(0,255,118)" stroke-width="2" fill="none"></circle>
<circle cx="6298.36" cy="2045.35" r="4" stroke="rgb(0,255,118)" stroke-width="2" fill="none"></circle>
</svg>