<?xml version="1.0" standalone="yes"?>
<!-- SVG graphic -->
<svg xmlns='http://www.w3.org/2000/svg' xmlns:xlink='http://www.w3.org/1999/xlink'
width="8064px" height="3024px" preserveAspectRatio="xMinYMin meet" viewBox="0 0 8064 3024" version="1.1">
<image x="0" y="0" width="4032px" height="3024px" opacity="1" xlink:href="/home/jeong/Code/2D-to-3D-Modeling-using-AI/Make3D/Image/20200227_180647.jpg"/>
<image x="4032" y="0" width="4032px" height="3024px" opacity="1" xlink:href="/home/jeong/Code/2D-to-3D-Modeling-using-AI/Make3D/Image/20200227_180749.jpg"/>
<polyline points="1148.94,2356.83,6156.87,321.133" stroke="rgb(255,0,169)" stroke-width="2" fill="none"></polyline>
<polyline points="1528.67,2276.79,5039.17,345.975" stroke="rgb(255,72,0)" stroke-width="2" fill="none"></polyline>
<polyline points="1528.67,2276.79,5024.31,353.212" stroke="rgb(0,255,50)" stroke-width="2" fill="none"></polyline>
<polyline points="2626.93,1480.53,4683.31,391.82" stroke="rgb(178,0,255)" stroke-width="2" fill="none"></polyline>
<polyline points="2927.62,1405.33,5740.91,1498.07" stroke="rgb(42,0,255)" stroke-width="2" fill="none"></polyline>
<polyline points="959.492,1079.9,7141.89,842.802" stroke="rgb(0,199,255)" stroke-width="2" fill="none"></polyline>
<polyline points="2701.76,1542.36,6933.69,872.442" stroke="rgb(144,255,0)" stroke-width="2" fill="none"></polyline>
<polyline points="1783.13,2125.21,4837.29,522.139" stroke="rgb(255,0,204)" stroke-width="2" fill="none"></polyline>
<polyline points="1833.2,834.712,6287.4,2198.28" stroke="rgb(255,76,0)" stroke-width="2" fill="none"></polyline>
<polyline points="1468.61,1254.16,5408.28,888.04" stroke="rgb(255,42,0)" stroke-width="2" fill="none"></polyline>
<polyline points="959.492,1079.9,5737.07,543.962" stroke="rgb(119,255,0)" stroke-width="2" fill="none"></polyline>
<polyline points="1773.64,2024.91,5693.63,2210.44" stroke="rgb(0,242,255)" stroke-width="2" fill="none"></polyline>
<polyline points="1997.31,1293.9,5621.25,550.017" stroke="rgb(0,195,255)" stroke-width="2" fill="none"></polyline>
<polyline points="1398,1223.37,5656.13,551.358" stroke="rgb(221,0,255)" stroke-width="2" fill="none"></polyline>
<polyline points="2214.09,1027.43,6033.5,2284.61" stroke="rgb(255,0,29)" stroke-width="2" fill="none"></polyline>
<polyline points="1468.61,1254.16,5409.65,902.858" stroke="rgb(16,255,0)" stroke-width="2" fill="none"></polyline>
<polyline points="1760.22,1578.2,5877.07,587.123" stroke="rgb(0,255,229)" stroke-width="2" fill="none"></polyline>
<polyline points="2364.52,1398.18,6667.56,573.523" stroke="rgb(0,255,135)" stroke-width="2" fill="none"></polyline>
<polyline points="2123.7,1093.7,6594.61,593.169" stroke="rgb(0,208,255)" stroke-width="2" fill="none"></polyline>
<polyline points="959.492,1079.9,5613.81,596.354" stroke="rgb(0,255,191)" stroke-width="2" fill="none"></polyline>
<polyline points="2123.7,1093.7,6616.69,600.837" stroke="rgb(0,255,97)" stroke-width="2" fill="none"></polyline>
<polyline points="1140.15,1334.87,4958.12,966.179" stroke="rgb(0,255,59)" stroke-width="2" fill="none"></polyline>
<polyline points="1752.76,956.464,4731.3,2349.77" stroke="rgb(0,255,72)" stroke-width="2" fill="none"></polyline>
<polyline points="2047.98,940.538,6083.39,1615.77" stroke="rgb(199,0,255)" stroke-width="2" fill="none"></polyline>
<polyline points="1778.9,2170.53,5965.58,1012.19" stroke="rgb(0,216,255)" stroke-width="2" fill="none"></polyline>
<polyline points="1997.31,1293.9,5813.54,633.14" stroke="rgb(255,72,0)" stroke-width="2" fill="none"></polyline>
<polyline points="2345.25,1827.08,5988.02,2307.72" stroke="rgb(0,208,255)" stroke-width="2" fill="none"></polyline>
<polyline points="2429.69,857.787,5055.19,820.5" stroke="rgb(255,114,0)" stroke-width="2" fill="none"></polyline>
<polyline points="3005.1,1291.29,5689.83,821.791" stroke="rgb(0,93,255)" stroke-width="2" fill="none"></polyline>
<polyline points="1997.31,1293.9,5504.9,652.172" stroke="rgb(255,0,33)" stroke-width="2" fill="none"></polyline>
<polyline points="2448.3,2032.34,6404.21,1669.07" stroke="rgb(0,255,38)" stroke-width="2" fill="none"></polyline>
<polyline points="1468.61,1254.16,5436.51,1060.97" stroke="rgb(0,255,246)" stroke-width="2" fill="none"></polyline>
<polyline points="1468.61,1254.16,5436.54,1061.21" stroke="rgb(255,38,0)" stroke-width="2" fill="none"></polyline>
<polyline points="1997.31,1293.9,5826.39,660.11" stroke="rgb(93,0,255)" stroke-width="2" fill="none"></polyline>
<polyline points="2168.58,1129.43,5575.56,2611" stroke="rgb(255,0,119)" stroke-width="2" fill="none"></polyline>
<polyline points="2244.73,891.275,5847.54,2533.94" stroke="rgb(80,0,255)" stroke-width="2" fill="none"></polyline>
<polyline points="1412.77,1176.68,5806.85,682.998" stroke="rgb(255,0,140)" stroke-width="2" fill="none"></polyline>
<polyline points="3005.1,1291.29,5740.58,715.307" stroke="rgb(212,0,255)" stroke-width="2" fill="none"></polyline>
<polyline points="1786.67,2167.71,5767.01,706.872" stroke="rgb(0,119,255)" stroke-width="2" fill="none"></polyline>
<polyline points="2180.76,765.31,5739.9,1245.21" stroke="rgb(0,97,255)" stroke-width="2" fill="none"></polyline>
<polyline points="1760.22,1578.2,6033.02,1127.01" stroke="rgb(254,0,255)" stroke-width="2" fill="none"></polyline>
<polyline points="1468.61,1254.16,5623.62,1128.76" stroke="rgb(0,255,237)" stroke-width="2" fill="none"></polyline>
<polyline points="1398,1223.37,5613.73,1269.21" stroke="rgb(255,174,0)" stroke-width="2" fill="none"></polyline>
<polyline points="1803.98,1539.38,5115.7,1148.34" stroke="rgb(255,29,0)" stroke-width="2" fill="none"></polyline>
<polyline points="2508.87,975.975,6392.41,1869.21" stroke="rgb(51,255,0)" stroke-width="2" fill="none"></polyline>
<polyline points="959.492,1079.9,5899.05,1161.58" stroke="rgb(110,0,255)" stroke-width="2" fill="none"></polyline>
<polyline points="1360.44,2583.17,7028.64,737.989" stroke="rgb(255,0,21)" stroke-width="2" fill="none"></polyline>
<polyline points="959.492,1079.9,5806.22,742.693" stroke="rgb(178,0,255)" stroke-width="2" fill="none"></polyline>
<polyline points="2664.25,1347.46,7135.68,1173.39" stroke="rgb(255,246,0)" stroke-width="2" fill="none"></polyline>
<polyline points="1523.61,1012.32,4934.29,1300.97" stroke="rgb(255,246,0)" stroke-width="2" fill="none"></polyline>
<polyline points="1522.92,1073.99,6961.84,757.007" stroke="rgb(255,0,174)" stroke-width="2" fill="none"></polyline>
<polyline points="2515,1146.46,6225.33,1934.09" stroke="rgb(0,165,255)" stroke-width="2" fill="none"></polyline>
<polyline points="2737.58,1101.29,5612.38,1339.89" stroke="rgb(0,199,255)" stroke-width="2" fill="none"></polyline>
<polyline points="1398,1223.37,5046.07,1995.18" stroke="rgb(101,255,0)" stroke-width="2" fill="none"></polyline>
<polyline points="990.432,1077.61,4833.52,1269.43" stroke="rgb(255,0,0)" stroke-width="2" fill="none"></polyline>
<polyline points="2168.58,1129.43,6590.72,598.986" stroke="rgb(59,0,255)" stroke-width="2" fill="none"></polyline>
<polyline points="2338.49,1228.57,4742.84,1094.13" stroke="rgb(29,255,0)" stroke-width="2" fill="none"></polyline>
<polyline points="2338.49,1228.57,4742.84,1094.13" stroke="rgb(0,208,255)" stroke-width="2" fill="none"></polyline>
<polyline points="1265.6,2028.47,6355.03,1437.91" stroke="rgb(0,255,140)" stroke-width="2" fill="none"></polyline>
<polyline points="1241.4,767.891,5078.42,1329.01" stroke="rgb(0,153,255)" stroke-width="2" fill="none"></polyline>
<polyline points="1040.53,1070.96,5794.06,655.877" stroke="rgb(0,237,255)" stroke-width="2" fill="none"></polyline>
<polyline points="1570.21,999.488,5132.31,1358.8" stroke="rgb(182,0,255)" stroke-width="2" fill="none"></polyline>
<polyline points="2508.54,2021.8,6719.88,1371.78" stroke="rgb(59,0,255)" stroke-width="2" fill="none"></polyline>
<polyline points="1504.67,840.977,5257,1379.45" stroke="rgb(233,255,0)" stroke-width="2" fill="none"></polyline>
<polyline points="2681.06,1155.22,5544.94,1200.06" stroke="rgb(255,242,0)" stroke-width="2" fill="none"></polyline>
<polyline points="1435.74,771.481,6391.81,1563.24" stroke="rgb(0,55,255)" stroke-width="2" fill="none"></polyline>
<polyline points="1523.61,1012.32,5033.32,1436.53" stroke="rgb(0,182,255)" stroke-width="2" fill="none"></polyline>
<polyline points="2127.16,1120.3,7304.39,1376.58" stroke="rgb(255,102,0)" stroke-width="2" fill="none"></polyline>
<polyline points="1542.71,979.97,5029.9,1417.36" stroke="rgb(0,255,157)" stroke-width="2" fill="none"></polyline>
<polyline points="1347.98,919.211,5892.32,1524.47" stroke="rgb(255,208,0)" stroke-width="2" fill="none"></polyline>
<polyline points="2726.93,2076.66,5887.63,1990.98" stroke="rgb(4,0,255)" stroke-width="2" fill="none"></polyline>
<polyline points="1529.11,2211.2,6650.47,2286.61" stroke="rgb(255,0,127)" stroke-width="2" fill="none"></polyline>
<polyline points="2534.59,1144.73,5611.04,2397.5" stroke="rgb(0,63,255)" stroke-width="2" fill="none"></polyline>
<polyline points="2227.41,870.837,5858.6,2503.9" stroke="rgb(0,255,144)" stroke-width="2" fill="none"></polyline>
<polyline points="2236.73,903.426,5829.25,2536.59" stroke="rgb(255,0,97)" stroke-width="2" fill="none"></polyline>
<polyline points="2183.48,1009.24,5687.62,2553.48" stroke="rgb(0,148,255)" stroke-width="2" fill="none"></polyline>
<polyline points="2183.33,1110.75,5600.96,2612.47" stroke="rgb(255,255,0)" stroke-width="2" fill="none"></polyline>
<polyline points="2183.33,1110.75,5600.96,2612.47" stroke="rgb(0,153,255)" stroke-width="2" fill="none"></polyline>
<polyline points="2114.51,1469.47,5280.84,333.429" stroke="rgb(255,0,4)" stroke-width="2" fill="none"></polyline>
<polyline points="2746.07,1254.83,4290.75,766.853" stroke="rgb(8,255,0)" stroke-width="2" fill="none"></polyline>
<polyline points="1140.77,1102.42,6354.31,471.531" stroke="rgb(93,0,255)" stroke-width="2" fill="none"></polyline>
<polyline points="2188.35,1032.39,5669.53,2574.54" stroke="rgb(255,0,178)" stroke-width="2" fill="none"></polyline>
<polyline points="2039.01,1046.04,5609.3,2382.37" stroke="rgb(0,208,255)" stroke-width="2" fill="none"></polyline>
<polyline points="2171.44,1115.38,5588.83,2608.17" stroke="rgb(255,0,140)" stroke-width="2" fill="none"></polyline>
<polyline points="2177.43,1139.84,5575.12,2623.05" stroke="rgb(199,0,255)" stroke-width="2" fill="none"></polyline>
<polyline points="2599.95,1728.38,7291.81,1534.81" stroke="rgb(0,203,255)" stroke-width="2" fill="none"></polyline>
<polyline points="2223.03,891.334,5834.94,2513.39" stroke="rgb(0,80,255)" stroke-width="2" fill="none"></polyline>
<polyline points="2599.95,1728.38,7121.26,1238.51" stroke="rgb(135,0,255)" stroke-width="2" fill="none"></polyline>
<polyline points="1797.09,1428.44,5729.49,1538.85" stroke="rgb(255,97,0)" stroke-width="2" fill="none"></polyline>
<polyline points="2242.57,880.997,5856.13,2527.93" stroke="rgb(255,63,0)" stroke-width="2" fill="none"></polyline>
<polyline points="2168.79,1005.3,5684.14,2538.17" stroke="rgb(16,255,0)" stroke-width="2" fill="none"></polyline>
<polyline points="2000.79,1294.75,6219.72,1554.03" stroke="rgb(174,255,0)" stroke-width="2" fill="none"></polyline>
<polyline points="2125.99,1089.63,5584.82,2551.8" stroke="rgb(0,255,212)" stroke-width="2" fill="none"></polyline>
<polyline points="3261.23,1941.32,5949.12,1753.71" stroke="rgb(255,46,0)" stroke-width="2" fill="none"></polyline>
<polyline points="2599.95,1728.38,7049.89,1091.67" stroke="rgb(255,72,0)" stroke-width="2" fill="none"></polyline>
<polyline points="2396.71,832.289,4832.09,982.476" stroke="rgb(0,55,255)" stroke-width="2" fill="none"></polyline>
<polyline points="2165.92,1951.77,5225.72,1940.98" stroke="rgb(0,8,255)" stroke-width="2" fill="none"></polyline>
<polyline points="2599.95,1728.38,7172.14,1318.06" stroke="rgb(0,110,255)" stroke-width="2" fill="none"></polyline>
<polyline points="1768.88,2169.94,5384.23,1043.88" stroke="rgb(46,0,255)" stroke-width="2" fill="none"></polyline>
<polyline points="1766.87,800.818,5503.7,2052.91" stroke="rgb(114,0,255)" stroke-width="2" fill="none"></polyline>
<polyline points="994.973,935.679,6926.52,694.363" stroke="rgb(0,255,63)" stroke-width="2" fill="none"></polyline>
<polyline points="1672.68,892.366,5335.2,2070.05" stroke="rgb(255,17,0)" stroke-width="2" fill="none"></polyline>
<polyline points="1561.93,1035.64,5015.9,1069.08" stroke="rgb(0,12,255)" stroke-width="2" fill="none"></polyline>
<polyline points="1807.52,802.072,5537.31,2104.93" stroke="rgb(0,33,255)" stroke-width="2" fill="none"></polyline>
<polyline points="1327.92,677.892,5972.99,2127.81" stroke="rgb(255,131,0)" stroke-width="2" fill="none"></polyline>
<polyline points="2951.02,1498.16,5899.89,1231.48" stroke="rgb(144,255,0)" stroke-width="2" fill="none"></polyline>
<polyline points="1358.2,2561.43,5985.69,1729.61" stroke="rgb(182,255,0)" stroke-width="2" fill="none"></polyline>
<polyline points="1619.74,854.343,5286.55,1776.47" stroke="rgb(123,255,0)" stroke-width="2" fill="none"></polyline>
<polyline points="1593.2,834.474,5308.1,1904.04" stroke="rgb(212,0,255)" stroke-width="2" fill="none"></polyline>
<polyline points="1740,757.96,5529.08,1949.88" stroke="rgb(255,0,221)" stroke-width="2" fill="none"></polyline>
<polyline points="1755.85,786.436,5508.19,2024.15" stroke="rgb(161,255,0)" stroke-width="2" fill="none"></polyline>
<polyline points="1962.56,790.01,5702.57,2232.86" stroke="rgb(233,255,0)" stroke-width="2" fill="none"></polyline>
<polyline points="2013.13,1117.52,5529.36,2420.27" stroke="rgb(110,0,255)" stroke-width="2" fill="none"></polyline>
<polyline points="2154.51,941.361,5757.27,2456.75" stroke="rgb(140,0,255)" stroke-width="2" fill="none"></polyline>
<polyline points="1645.66,694.103,5511.3,1712.62" stroke="rgb(102,0,255)" stroke-width="2" fill="none"></polyline>
<polyline points="1731.7,749.724,5528.91,1924.45" stroke="rgb(0,199,255)" stroke-width="2" fill="none"></polyline>
<polyline points="2267.18,1184.49,5072.05,460.292" stroke="rgb(63,255,0)" stroke-width="2" fill="none"></polyline>
<polyline points="1745.2,743.237,5556.55,1926.66" stroke="rgb(0,255,25)" stroke-width="2" fill="none"></polyline>
<polyline points="1786.43,687.976,5673.49,2554.8" stroke="rgb(59,255,0)" stroke-width="2" fill="none"></polyline>
<polyline points="2217.5,1012.81,5706.59,2584.4" stroke="rgb(255,4,0)" stroke-width="2" fill="none"></polyline>
<polyline points="1805.27,799.333,5538,2097.18" stroke="rgb(255,55,0)" stroke-width="2" fill="none"></polyline>
<polyline points="2252.48,868.819,5780.76,2220.3" stroke="rgb(110,255,0)" stroke-width="2" fill="none"></polyline>
<polyline points="2013.13,1117.52,5528.96,2443.47" stroke="rgb(255,0,204)" stroke-width="2" fill="none"></polyline>
<polyline points="3241.96,1845.17,6878.86,948.092" stroke="rgb(0,242,255)" stroke-width="2" fill="none"></polyline>
<polyline points="1782.85,767.32,5558.29,2010.3" stroke="rgb(63,255,0)" stroke-width="2" fill="none"></polyline>
<polyline points="1782.85,767.32,5558.98,2009.91" stroke="rgb(0,165,255)" stroke-width="2" fill="none"></polyline>
<circle cx="1148.94" cy="2356.83" r="4" stroke="rgb(255,0,169)" stroke-width="2" fill="none"></circle>
<circle cx="6156.87" cy="321.133" r="4" stroke="rgb(255,0,169)" stroke-width="2" fill="none"></circle>
<circle cx="1528.67" cy="2276.79" r="4" stroke="rgb(255,72,0)" stroke-width="2" fill="none"></circle>
<circle cx="5039.17" cy="345.975" r="4" stroke="rgb(255,72,0)" stroke-width="2" fill="none"></circle>
<circle cx="1528.67" cy="2276.79" r="4" stroke="rgb(0,255,50)" stroke-width="2" fill="none"></circle>
<circle cx="5024.31" cy="353.212" r="4" stroke="rgb(0,255,50)" stroke-width="2" fill="none"></circle>
<circle cx="2626.93" cy="1480.53" r="4" stroke="rgb(178,0,255)" stroke-width="2" fill="none"></circle>
<circle cx="4683.31" cy="391.82" r="4" stroke="rgb(178,0,255)" stroke-width="2" fill="none"></circle>
<circle cx="2927.62" cy="1405.33" r="4" stroke="rgb(42,0,255)" stroke-width="2" fill="none"></circle>
<circle cx="5740.91" cy="1498.07" r="4" stroke="rgb(42,0,255)" stroke-width="2" fill="none"></circle>
<circle cx="959.492" cy="1079.9" r="4" stroke="rgb(0,199,255)" stroke-width="2" fill="none"></circle>
<circle cx="7141.89" cy="842.802" r="4" stroke="rgb(0,199,255)" stroke-width="2" fill="none"></circle>
<circle cx="2701.76" cy="1542.36" r="4" stroke="rgb(144,255,0)" stroke-width="2" fill="none"></circle>
<circle cx="6933.69" cy="872.442" r="4" stroke="rgb(144,255,0)" stroke-width="2" fill="none"></circle>
<circle cx="1783.13" cy="2125.21" r="4" stroke="rgb(255,0,204)" stroke-width="2" fill="none"></circle>
<circle cx="4837.29" cy="522.139" r="4" stroke="rgb(255,0,204)" stroke-width="2" fill="none"></circle>
<circle cx="1833.2" cy="834.712" r="4" stroke="rgb(255,76,0)" stroke-width="2" fill="none"></circle>
<circle cx="6287.4" cy="2198.28" r="4" stroke="rgb(255,76,0)" stroke-width="2" fill="none"></circle>
<circle cx="1468.61" cy="1254.16" r="4" stroke="rgb(255,42,0)" stroke-width="2" fill="none"></circle>
<circle cx="5408.28" cy="888.04" r="4" stroke="rgb(255,42,0)" stroke-width="2" fill="none"></circle>
<circle cx="959.492" cy="1079.9" r="4" stroke="rgb(119,255,0)" stroke-width="2" fill="none"></circle>
<circle cx="5737.07" cy="543.962" r="4" stroke="rgb(119,255,0)" stroke-width="2" fill="none"></circle>
<circle cx="1773.64" cy="2024.91" r="4" stroke="rgb(0,242,255)" stroke-width="2" fill="none"></circle>
<circle cx="5693.63" cy="2210.44" r="4" stroke="rgb(0,242,255)" stroke-width="2" fill="none"></circle>
<circle cx="1997.31" cy="1293.9" r="4" stroke="rgb(0,195,255)" stroke-width="2" fill="none"></circle>
<circle cx="5621.25" cy="550.017" r="4" stroke="rgb(0,195,255)" stroke-width="2" fill="none"></circle>
<circle cx="1398" cy="1223.37" r="4" stroke="rgb(221,0,255)" stroke-width="2" fill="none"></circle>
<circle cx="5656.13" cy="551.358" r="4" stroke="rgb(221,0,255)" stroke-width="2" fill="none"></circle>
<circle cx="2214.09" cy="1027.43" r="4" stroke="rgb(255,0,29)" stroke-width="2" fill="none"></circle>
<circle cx="6033.5" cy="2284.61" r="4" stroke="rgb(255,0,29)" stroke-width="2" fill="none"></circle>
<circle cx="1468.61" cy="1254.16" r="4" stroke="rgb(16,255,0)" stroke-width="2" fill="none"></circle>
<circle cx="5409.65" cy="902.858" r="4" stroke="rgb(16,255,0)" stroke-width="2" fill="none"></circle>
<circle cx="1760.22" cy="1578.2" r="4" stroke="rgb(0,255,229)" stroke-width="2" fill="none"></circle>
<circle cx="5877.07" cy="587.123" r="4" stroke="rgb(0,255,229)" stroke-width="2" fill="none"></circle>
<circle cx="2364.52" cy="1398.18" r="4" stroke="rgb(0,255,135)" stroke-width="2" fill="none"></circle>
<circle cx="6667.56" cy="573.523" r="4" stroke="rgb(0,255,135)" stroke-width="2" fill="none"></circle>
<circle cx="2123.7" cy="1093.7" r="4" stroke="rgb(0,208,255)" stroke-width="2" fill="none"></circle>
<circle cx="6594.61" cy="593.169" r="4" stroke="rgb(0,208,255)" stroke-width="2" fill="none"></circle>
<circle cx="959.492" cy="1079.9" r="4" stroke="rgb(0,255,191)" stroke-width="2" fill="none"></circle>
<circle cx="5613.81" cy="596.354" r="4" stroke="rgb(0,255,191)" stroke-width="2" fill="none"></circle>
<circle cx="2123.7" cy="1093.7" r="4" stroke="rgb(0,255,97)" stroke-width="2" fill="none"></circle>
<circle cx="6616.69" cy="600.837" r="4" stroke="rgb(0,255,97)" stroke-width="2" fill="none"></circle>
<circle cx="1140.15" cy="1334.87" r="4" stroke="rgb(0,255,59)" stroke-width="2" fill="none"></circle>
<circle cx="4958.12" cy="966.179" r="4" stroke="rgb(0,255,59)" stroke-width="2" fill="none"></circle>
<circle cx="1752.76" cy="956.464" r="4" stroke="rgb(0,255,72)" stroke-width="2" fill="none"></circle>
<circle cx="4731.3" cy="2349.77" r="4" stroke="rgb(0,255,72)" stroke-width="2" fill="none"></circle>
<circle cx="2047.98" cy="940.538" r="4" stroke="rgb(199,0,255)" stroke-width="2" fill="none"></circle>
<circle cx="6083.39" cy="1615.77" r="4" stroke="rgb(199,0,255)" stroke-width="2" fill="none"></circle>
<circle cx="1778.9" cy="2170.53" r="4" stroke="rgb(0,216,255)" stroke-width="2" fill="none"></circle>
<circle cx="5965.58" cy="1012.19" r="4" stroke="rgb(0,216,255)" stroke-width="2" fill="none"></circle>
<circle cx="1997.31" cy="1293.9" r="4" stroke="rgb(255,72,0)" stroke-width="2" fill="none"></circle>
<circle cx="5813.54" cy="633.14" r="4" stroke="rgb(255,72,0)" stroke-width="2" fill="none"></circle>
<circle cx="2345.25" cy="1827.08" r="4" stroke="rgb(0,208,255)" stroke-width="2" fill="none"></circle>
<circle cx="5988.02" cy="2307.72" r="4" stroke="rgb(0,208,255)" stroke-width="2" fill="none"></circle>
<circle cx="2429.69" cy="857.787" r="4" stroke="rgb(255,114,0)" stroke-width="2" fill="none"></circle>
<circle cx="5055.19" cy="820.5" r="4" stroke="rgb(255,114,0)" stroke-width="2" fill="none"></circle>
<circle cx="3005.1" cy="1291.29" r="4" stroke="rgb(0,93,255)" stroke-width="2" fill="none"></circle>
<circle cx="5689.83" cy="821.791" r="4" stroke="rgb(0,93,255)" stroke-width="2" fill="none"></circle>
<circle cx="1997.31" cy="1293.9" r="4" stroke="rgb(255,0,33)" stroke-width="2" fill="none"></circle>
<circle cx="5504.9" cy="652.172" r="4" stroke="rgb(255,0,33)" stroke-width="2" fill="none"></circle>
<circle cx="2448.3" cy="2032.34" r="4" stroke="rgb(0,255,38)" stroke-width="2" fill="none"></circle>
<circle cx="6404.21" cy="1669.07" r="4" stroke="rgb(0,255,38)" stroke-width="2" fill="none"></circle>
<circle cx="1468.61" cy="1254.16" r="4" stroke="rgb(0,255,246)" stroke-width="2" fill="none"></circle>
<circle cx="5436.51" cy="1060.97" r="4" stroke="rgb(0,255,246)" stroke-width="2" fill="none"></circle>
<circle cx="1468.61" cy="1254.16" r="4" stroke="rgb(255,38,0)" stroke-width="2" fill="none"></circle>
<circle cx="5436.54" cy="1061.21" r="4" stroke="rgb(255,38,0)" stroke-width="2" fill="none"></circle>
<circle cx="1997.31" cy="1293.9" r="4" stroke="rgb(93,0,255)" stroke-width="2" fill="none"></circle>
<circle cx="5826.39" cy="660.11" r="4" stroke="rgb(93,0,255)" stroke-width="2" fill="none"></circle>
<circle cx="2168.58" cy="1129.43" r="4" stroke="rgb(255,0,119)" stroke-width="2" fill="none"></circle>
<circle cx="5575.56" cy="2611" r="4" stroke="rgb(255,0,119)" stroke-width="2" fill="none"></circle>
<circle cx="2244.73" cy="891.275" r="4" stroke="rgb(80,0,255)" stroke-width="2" fill="none"></circle>
<circle cx="5847.54" cy="2533.94" r="4" stroke="rgb(80,0,255)" stroke-width="2" fill="none"></circle>
<circle cx="1412.77" cy="1176.68" r="4" stroke="rgb(255,0,140)" stroke-width="2" fill="none"></circle>
<circle cx="5806.85" cy="682.998" r="4" stroke="rgb(255,0,140)" stroke-width="2" fill="none"></circle>
<circle cx="3005.1" cy="1291.29" r="4" stroke="rgb(212,0,255)" stroke-width="2" fill="none"></circle>
<circle cx="5740.58" cy="715.307" r="4" stroke="rgb(212,0,255)" stroke-width="2" fill="none"></circle>
<circle cx="1786.67" cy="2167.71" r="4" stroke="rgb(0,119,255)" stroke-width="2" fill="none"></circle>
<circle cx="5767.01" cy="706.872" r="4" stroke="rgb(0,119,255)" stroke-width="2" fill="none"></circle>
<circle cx="2180.76" cy="765.31" r="4" stroke="rgb(0,97,255)" stroke-width="2" fill="none"></circle>
<circle cx="5739.9" cy="1245.21" r="4" stroke="rgb(0,97,255)" stroke-width="2" fill="none"></circle>
<circle cx="1760.22" cy="1578.2" r="4" stroke="rgb(254,0,255)" stroke-width="2" fill="none"></circle>
<circle cx="6033.02" cy="1127.01" r="4" stroke="rgb(254,0,255)" stroke-width="2" fill="none"></circle>
<circle cx="1468.61" cy="1254.16" r="4" stroke="rgb(0,255,237)" stroke-width="2" fill="none"></circle>
<circle cx="5623.62" cy="1128.76" r="4" stroke="rgb(0,255,237)" stroke-width="2" fill="none"></circle>
<circle cx="1398" cy="1223.37" r="4" stroke="rgb(255,174,0)" stroke-width="2" fill="none"></circle>
<circle cx="5613.73" cy="1269.21" r="4" stroke="rgb(255,174,0)" stroke-width="2" fill="none"></circle>
<circle cx="1803.98" cy="1539.38" r="4" stroke="rgb(255,29,0)" stroke-width="2" fill="none"></circle>
<circle cx="5115.7" cy="1148.34" r="4" stroke="rgb(255,29,0)" stroke-width="2" fill="none"></circle>
<circle cx="2508.87" cy="975.975" r="4" stroke="rgb(51,255,0)" stroke-width="2" fill="none"></circle>
<circle cx="6392.41" cy="1869.21" r="4" stroke="rgb(51,255,0)" stroke-width="2" fill="none"></circle>
<circle cx="959.492" cy="1079.9" r="4" stroke="rgb(110,0,255)" stroke-width="2" fill="none"></circle>
<circle cx="5899.05" cy="1161.58" r="4" stroke="rgb(110,0,255)" stroke-width="2" fill="none"></circle>
<circle cx="1360.44" cy="2583.17" r="4" stroke="rgb(255,0,21)" stroke-width="2" fill="none"></circle>
<circle cx="7028.64" cy="737.989" r="4" stroke="rgb(255,0,21)" stroke-width="2" fill="none"></circle>
<circle cx="959.492" cy="1079.9" r="4" stroke="rgb(178,0,255)" stroke-width="2" fill="none"></circle>
<circle cx="5806.22" cy="742.693" r="4" stroke="rgb(178,0,255)" stroke-width="2" fill="none"></circle>
<circle cx="2664.25" cy="1347.46" r="4" stroke="rgb(255,246,0)" stroke-width="2" fill="none"></circle>
<circle cx="7135.68" cy="1173.39" r="4" stroke="rgb(255,246,0)" stroke-width="2" fill="none"></circle>
<circle cx="1523.61" cy="1012.32" r="4" stroke="rgb(255,246,0)" stroke-width="2" fill="none"></circle>
<circle cx="4934.29" cy="1300.97" r="4" stroke="rgb(255,246,0)" stroke-width="2" fill="none"></circle>
<circle cx="1522.92" cy="1073.99" r="4" stroke="rgb(255,0,174)" stroke-width="2" fill="none"></circle>
<circle cx="6961.84" cy="757.007" r="4" stroke="rgb(255,0,174)" stroke-width="2" fill="none"></circle>
<circle cx="2515" cy="1146.46" r="4" stroke="rgb(0,165,255)" stroke-width="2" fill="none"></circle>
<circle cx="6225.33" cy="1934.09" r="4" stroke="rgb(0,165,255)" stroke-width="2" fill="none"></circle>
<circle cx="2737.58" cy="1101.29" r="4" stroke="rgb(0,199,255)" stroke-width="2" fill="none"></circle>
<circle cx="5612.38" cy="1339.89" r="4" stroke="rgb(0,199,255)" stroke-width="2" fill="none"></circle>
<circle cx="1398" cy="1223.37" r="4" stroke="rgb(101,255,0)" stroke-width="2" fill="none"></circle>
<circle cx="5046.07" cy="1995.18" r="4" stroke="rgb(101,255,0)" stroke-width="2" fill="none"></circle>
<circle cx="990.432" cy="1077.61" r="4" stroke="rgb(255,0,0)" stroke-width="2" fill="none"></circle>
<circle cx="4833.52" cy="1269.43" r="4" stroke="rgb(255,0,0)" stroke-width="2" fill="none"></circle>
<circle cx="2168.58" cy="1129.43" r="4" stroke="rgb(59,0,255)" stroke-width="2" fill="none"></circle>
<circle cx="6590.72" cy="598.986" r="4" stroke="rgb(59,0,255)" stroke-width="2" fill="none"></circle>
<circle cx="2338.49" cy="1228.57" r="4" stroke="rgb(29,255,0)" stroke-width="2" fill="none"></circle>
<circle cx="4742.84" cy="1094.13" r="4" stroke="rgb(29,255,0)" stroke-width="2" fill="none"></circle>
<circle cx="2338.49" cy="1228.57" r="4" stroke="rgb(0,208,255)" stroke-width="2" fill="none"></circle>
<circle cx="4742.84" cy="1094.13" r="4" stroke="rgb(0,208,255)" stroke-width="2" fill="none"></circle>
<circle cx="1265.6" cy="2028.47" r="4" stroke="rgb(0,255,140)" stroke-width="2" fill="none"></circle>
<circle cx="6355.03" cy="1437.91" r="4" stroke="rgb(0,255,140)" stroke-width="2" fill="none"></circle>
<circle cx="1241.4" cy="767.891" r="4" stroke="rgb(0,153,255)" stroke-width="2" fill="none"></circle>
<circle cx="5078.42" cy="1329.01" r="4" stroke="rgb(0,153,255)" stroke-width="2" fill="none"></circle>
<circle cx="1040.53" cy="1070.96" r="4" stroke="rgb(0,237,255)" stroke-width="2" fill="none"></circle>
<circle cx="5794.06" cy="655.877" r="4" stroke="rgb(0,237,255)" stroke-width="2" fill="none"></circle>
<circle cx="1570.21" cy="999.488" r="4" stroke="rgb(182,0,255)" stroke-width="2" fill="none"></circle>
<circle cx="5132.31" cy="1358.8" r="4" stroke="rgb(182,0,255)" stroke-width="2" fill="none"></circle>
<circle cx="2508.54" cy="2021.8" r="4" stroke="rgb(59,0,255)" stroke-width="2" fill="none"></circle>
<circle cx="6719.88" cy="1371.78" r="4" stroke="rgb(59,0,255)" stroke-width="2" fill="none"></circle>
<circle cx="1504.67" cy="840.977" r="4" stroke="rgb(233,255,0)" stroke-width="2" fill="none"></circle>
<circle cx="5257" cy="1379.45" r="4" stroke="rgb(233,255,0)" stroke-width="2" fill="none"></circle>
<circle cx="2681.06" cy="1155.22" r="4" stroke="rgb(255,242,0)" stroke-width="2" fill="none"></circle>
<circle cx="5544.94" cy="1200.06" r="4" stroke="rgb(255,242,0)" stroke-width="2" fill="none"></circle>
<circle cx="1435.74" cy="771.481" r="4" stroke="rgb(0,55,255)" stroke-width="2" fill="none"></circle>
<circle cx="6391.81" cy="1563.24" r="4" stroke="rgb(0,55,255)" stroke-width="2" fill="none"></circle>
<circle cx="1523.61" cy="1012.32" r="4" stroke="rgb(0,182,255)" stroke-width="2" fill="none"></circle>
<circle cx="5033.32" cy="1436.53" r="4" stroke="rgb(0,182,255)" stroke-width="2" fill="none"></circle>
<circle cx="2127.16" cy="1120.3" r="4" stroke="rgb(255,102,0)" stroke-width="2" fill="none"></circle>
<circle cx="7304.39" cy="1376.58" r="4" stroke="rgb(255,102,0)" stroke-width="2" fill="none"></circle>
<circle cx="1542.71" cy="979.97" r="4" stroke="rgb(0,255,157)" stroke-width="2" fill="none"></circle>
<circle cx="5029.9" cy="1417.36" r="4" stroke="rgb(0,255,157)" stroke-width="2" fill="none"></circle>
<circle cx="1347.98" cy="919.211" r="4" stroke="rgb(255,208,0)" stroke-width="2" fill="none"></circle>
<circle cx="5892.32" cy="1524.47" r="4" stroke="rgb(255,208,0)" stroke-width="2" fill="none"></circle>
<circle cx="2726.93" cy="2076.66" r="4" stroke="rgb(4,0,255)" stroke-width="2" fill="none"></circle>
<circle cx="5887.63" cy="1990.98" r="4" stroke="rgb(4,0,255)" stroke-width="2" fill="none"></circle>
<circle cx="1529.11" cy="2211.2" r="4" stroke="rgb(255,0,127)" stroke-width="2" fill="none"></circle>
<circle cx="6650.47" cy="2286.61" r="4" stroke="rgb(255,0,127)" stroke-width="2" fill="none"></circle>
<circle cx="2534.59" cy="1144.73" r="4" stroke="rgb(0,63,255)" stroke-width="2" fill="none"></circle>
<circle cx="5611.04" cy="2397.5" r="4" stroke="rgb(0,63,255)" stroke-width="2" fill="none"></circle>
<circle cx="2227.41" cy="870.837" r="4" stroke="rgb(0,255,144)" stroke-width="2" fill="none"></circle>
<circle cx="5858.6" cy="2503.9" r="4" stroke="rgb(0,255,144)" stroke-width="2" fill="none"></circle>
<circle cx="2236.73" cy="903.426" r="4" stroke="rgb(255,0,97)" stroke-width="2" fill="none"></circle>
<circle cx="5829.25" cy="2536.59" r="4" stroke="rgb(255,0,97)" stroke-width="2" fill="none"></circle>
<circle cx="2183.48" cy="1009.24" r="4" stroke="rgb(0,148,255)" stroke-width="2" fill="none"></circle>
<circle cx="5687.62" cy="2553.48" r="4" stroke="rgb(0,148,255)" stroke-width="2" fill="none"></circle>
<circle cx="2183.33" cy="1110.75" r="4" stroke="rgb(255,255,0)" stroke-width="2" fill="none"></circle>
<circle cx="5600.96" cy="2612.47" r="4" stroke="rgb(255,255,0)" stroke-width="2" fill="none"></circle>
<circle cx="2183.33" cy="1110.75" r="4" stroke="rgb(0,153,255)" stroke-width="2" fill="none"></circle>
<circle cx="5600.96" cy="2612.47" r="4" stroke="rgb(0,153,255)" stroke-width="2" fill="none"></circle>
<circle cx="2114.51" cy="1469.47" r="4" stroke="rgb(255,0,4)" stroke-width="2" fill="none"></circle>
<circle cx="5280.84" cy="333.429" r="4" stroke="rgb(255,0,4)" stroke-width="2" fill="none"></circle>
<circle cx="2746.07" cy="1254.83" r="4" stroke="rgb(8,255,0)" stroke-width="2" fill="none"></circle>
<circle cx="4290.75" cy="766.853" r="4" stroke="rgb(8,255,0)" stroke-width="2" fill="none"></circle>
<circle cx="1140.77" cy="1102.42" r="4" stroke="rgb(93,0,255)" stroke-width="2" fill="none"></circle>
<circle cx="6354.31" cy="471.531" r="4" stroke="rgb(93,0,255)" stroke-width="2" fill="none"></circle>
<circle cx="2188.35" cy="1032.39" r="4" stroke="rgb(255,0,178)" stroke-width="2" fill="none"></circle>
<circle cx="5669.53" cy="2574.54" r="4" stroke="rgb(255,0,178)" stroke-width="2" fill="none"></circle>
<circle cx="2039.01" cy="1046.04" r="4" stroke="rgb(0,208,255)" stroke-width="2" fill="none"></circle>
<circle cx="5609.3" cy="2382.37" r="4" stroke="rgb(0,208,255)" stroke-width="2" fill="none"></circle>
<circle cx="2171.44" cy="1115.38" r="4" stroke="rgb(255,0,140)" stroke-width="2" fill="none"></circle>
<circle cx="5588.83" cy="2608.17" r="4" stroke="rgb(255,0,140)" stroke-width="2" fill="none"></circle>
<circle cx="2177.43" cy="1139.84" r="4" stroke="rgb(199,0,255)" stroke-width="2" fill="none"></circle>
<circle cx="5575.12" cy="2623.05" r="4" stroke="rgb(199,0,255)" stroke-width="2" fill="none"></circle>
<circle cx="2599.95" cy="1728.38" r="4" stroke="rgb(0,203,255)" stroke-width="2" fill="none"></circle>
<circle cx="7291.81" cy="1534.81" r="4" stroke="rgb(0,203,255)" stroke-width="2" fill="none"></circle>
<circle cx="2223.03" cy="891.334" r="4" stroke="rgb(0,80,255)" stroke-width="2" fill="none"></circle>
<circle cx="5834.94" cy="2513.39" r="4" stroke="rgb(0,80,255)" stroke-width="2" fill="none"></circle>
<circle cx="2599.95" cy="1728.38" r="4" stroke="rgb(135,0,255)" stroke-width="2" fill="none"></circle>
<circle cx="7121.26" cy="1238.51" r="4" stroke="rgb(135,0,255)" stroke-width="2" fill="none"></circle>
<circle cx="1797.09" cy="1428.44" r="4" stroke="rgb(255,97,0)" stroke-width="2" fill="none"></circle>
<circle cx="5729.49" cy="1538.85" r="4" stroke="rgb(255,97,0)" stroke-width="2" fill="none"></circle>
<circle cx="2242.57" cy="880.997" r="4" stroke="rgb(255,63,0)" stroke-width="2" fill="none"></circle>
<circle cx="5856.13" cy="2527.93" r="4" stroke="rgb(255,63,0)" stroke-width="2" fill="none"></circle>
<circle cx="2168.79" cy="1005.3" r="4" stroke="rgb(16,255,0)" stroke-width="2" fill="none"></circle>
<circle cx="5684.14" cy="2538.17" r="4" stroke="rgb(16,255,0)" stroke-width="2" fill="none"></circle>
<circle cx="2000.79" cy="1294.75" r="4" stroke="rgb(174,255,0)" stroke-width="2" fill="none"></circle>
<circle cx="6219.72" cy="1554.03" r="4" stroke="rgb(174,255,0)" stroke-width="2" fill="none"></circle>
<circle cx="2125.99" cy="1089.63" r="4" stroke="rgb(0,255,212)" stroke-width="2" fill="none"></circle>
<circle cx="5584.82" cy="2551.8" r="4" stroke="rgb(0,255,212)" stroke-width="2" fill="none"></circle>
<circle cx="3261.23" cy="1941.32" r="4" stroke="rgb(255,46,0)" stroke-width="2" fill="none"></circle>
<circle cx="5949.12" cy="1753.71" r="4" stroke="rgb(255,46,0)" stroke-width="2" fill="none"></circle>
<circle cx="2599.95" cy="1728.38" r="4" stroke="rgb(255,72,0)" stroke-width="2" fill="none"></circle>
<circle cx="7049.89" cy="1091.67" r="4" stroke="rgb(255,72,0)" stroke-width="2" fill="none"></circle>
<circle cx="2396.71" cy="832.289" r="4" stroke="rgb(0,55,255)" stroke-width="2" fill="none"></circle>
<circle cx="4832.09" cy="982.476" r="4" stroke="rgb(0,55,255)" stroke-width="2" fill="none"></circle>
<circle cx="2165.92" cy="1951.77" r="4" stroke="rgb(0,8,255)" stroke-width="2" fill="none"></circle>
<circle cx="5225.72" cy="1940.98" r="4" stroke="rgb(0,8,255)" stroke-width="2" fill="none"></circle>
<circle cx="2599.95" cy="1728.38" r="4" stroke="rgb(0,110,255)" stroke-width="2" fill="none"></circle>
<circle cx="7172.14" cy="1318.06" r="4" stroke="rgb(0,110,255)" stroke-width="2" fill="none"></circle>
<circle cx="1768.88" cy="2169.94" r="4" stroke="rgb(46,0,255)" stroke-width="2" fill="none"></circle>
<circle cx="5384.23" cy="1043.88" r="4" stroke="rgb(46,0,255)" stroke-width="2" fill="none"></circle>
<circle cx="1766.87" cy="800.818" r="4" stroke="rgb(114,0,255)" stroke-width="2" fill="none"></circle>
<circle cx="5503.7" cy="2052.91" r="4" stroke="rgb(114,0,255)" stroke-width="2" fill="none"></circle>
<circle cx="994.973" cy="935.679" r="4" stroke="rgb(0,255,63)" stroke-width="2" fill="none"></circle>
<circle cx="6926.52" cy="694.363" r="4" stroke="rgb(0,255,63)" stroke-width="2" fill="none"></circle>
<circle cx="1672.68" cy="892.366" r="4" stroke="rgb(255,17,0)" stroke-width="2" fill="none"></circle>
<circle cx="5335.2" cy="2070.05" r="4" stroke="rgb(255,17,0)" stroke-width="2" fill="none"></circle>
<circle cx="1561.93" cy="1035.64" r="4" stroke="rgb(0,12,255)" stroke-width="2" fill="none"></circle>
<circle cx="5015.9" cy="1069.08" r="4" stroke="rgb(0,12,255)" stroke-width="2" fill="none"></circle>
<circle cx="1807.52" cy="802.072" r="4" stroke="rgb(0,33,255)" stroke-width="2" fill="none"></circle>
<circle cx="5537.31" cy="2104.93" r="4" stroke="rgb(0,33,255)" stroke-width="2" fill="none"></circle>
<circle cx="1327.92" cy="677.892" r="4" stroke="rgb(255,131,0)" stroke-width="2" fill="none"></circle>
<circle cx="5972.99" cy="2127.81" r="4" stroke="rgb(255,131,0)" stroke-width="2" fill="none"></circle>
<circle cx="2951.02" cy="1498.16" r="4" stroke="rgb(144,255,0)" stroke-width="2" fill="none"></circle>
<circle cx="5899.89" cy="1231.48" r="4" stroke="rgb(144,255,0)" stroke-width="2" fill="none"></circle>
<circle cx="1358.2" cy="2561.43" r="4" stroke="rgb(182,255,0)" stroke-width="2" fill="none"></circle>
<circle cx="5985.69" cy="1729.61" r="4" stroke="rgb(182,255,0)" stroke-width="2" fill="none"></circle>
<circle cx="1619.74" cy="854.343" r="4" stroke="rgb(123,255,0)" stroke-width="2" fill="none"></circle>
<circle cx="5286.55" cy="1776.47" r="4" stroke="rgb(123,255,0)" stroke-width="2" fill="none"></circle>
<circle cx="1593.2" cy="834.474" r="4" stroke="rgb(212,0,255)" stroke-width="2" fill="none"></circle>
<circle cx="5308.1" cy="1904.04" r="4" stroke="rgb(212,0,255)" stroke-width="2" fill="none"></circle>
<circle cx="1740" cy="757.96" r="4" stroke="rgb(255,0,221)" stroke-width="2" fill="none"></circle>
<circle cx="5529.08" cy="1949.88" r="4" stroke="rgb(255,0,221)" stroke-width="2" fill="none"></circle>
<circle cx="1755.85" cy="786.436" r="4" stroke="rgb(161,255,0)" stroke-width="2" fill="none"></circle>
<circle cx="5508.19" cy="2024.15" r="4" stroke="rgb(161,255,0)" stroke-width="2" fill="none"></circle>
<circle cx="1962.56" cy="790.01" r="4" stroke="rgb(233,255,0)" stroke-width="2" fill="none"></circle>
<circle cx="5702.57" cy="2232.86" r="4" stroke="rgb(233,255,0)" stroke-width="2" fill="none"></circle>
<circle cx="2013.13" cy="1117.52" r="4" stroke="rgb(110,0,255)" stroke-width="2" fill="none"></circle>
<circle cx="5529.36" cy="2420.27" r="4" stroke="rgb(110,0,255)" stroke-width="2" fill="none"></circle>
<circle cx="2154.51" cy="941.361" r="4" stroke="rgb(140,0,255)" stroke-width="2" fill="none"></circle>
<circle cx="5757.27" cy="2456.75" r="4" stroke="rgb(140,0,255)" stroke-width="2" fill="none"></circle>
<circle cx="1645.66" cy="694.103" r="4" stroke="rgb(102,0,255)" stroke-width="2" fill="none"></circle>
<circle cx="5511.3" cy="1712.62" r="4" stroke="rgb(102,0,255)" stroke-width="2" fill="none"></circle>
<circle cx="1731.7" cy="749.724" r="4" stroke="rgb(0,199,255)" stroke-width="2" fill="none"></circle>
<circle cx="5528.91" cy="1924.45" r="4" stroke="rgb(0,199,255)" stroke-width="2" fill="none"></circle>
<circle cx="2267.18" cy="1184.49" r="4" stroke="rgb(63,255,0)" stroke-width="2" fill="none"></circle>
<circle cx="5072.05" cy="460.292" r="4" stroke="rgb(63,255,0)" stroke-width="2" fill="none"></circle>
<circle cx="1745.2" cy="743.237" r="4" stroke="rgb(0,255,25)" stroke-width="2" fill="none"></circle>
<circle cx="5556.55" cy="1926.66" r="4" stroke="rgb(0,255,25)" stroke-width="2" fill="none"></circle>
<circle cx="1786.43" cy="687.976" r="4" stroke="rgb(59,255,0)" stroke-width="2" fill="none"></circle>
<circle cx="5673.49" cy="2554.8" r="4" stroke="rgb(59,255,0)" stroke-width="2" fill="none"></circle>
<circle cx="2217.5" cy="1012.81" r="4" stroke="rgb(255,4,0)" stroke-width="2" fill="none"></circle>
<circle cx="5706.59" cy="2584.4" r="4" stroke="rgb(255,4,0)" stroke-width="2" fill="none"></circle>
<circle cx="1805.27" cy="799.333" r="4" stroke="rgb(255,55,0)" stroke-width="2" fill="none"></circle>
<circle cx="5538" cy="2097.18" r="4" stroke="rgb(255,55,0)" stroke-width="2" fill="none"></circle>
<circle cx="2252.48" cy="868.819" r="4" stroke="rgb(110,255,0)" stroke-width="2" fill="none"></circle>
<circle cx="5780.76" cy="2220.3" r="4" stroke="rgb(110,255,0)" stroke-width="2" fill="none"></circle>
<circle cx="2013.13" cy="1117.52" r="4" stroke="rgb(255,0,204)" stroke-width="2" fill="none"></circle>
<circle cx="5528.96" cy="2443.47" r="4" stroke="rgb(255,0,204)" stroke-width="2" fill="none"></circle>
<circle cx="3241.96" cy="1845.17" r="4" stroke="rgb(0,242,255)" stroke-width="2" fill="none"></circle>
<circle cx="6878.86" cy="948.092" r="4" stroke="rgb(0,242,255)" stroke-width="2" fill="none"></circle>
<circle cx="1782.85" cy="767.32" r="4" stroke="rgb(63,255,0)" stroke-width="2" fill="none"></circle>
<circle cx="5558.29" cy="2010.3" r="4" stroke="rgb(63,255,0)" stroke-width="2" fill="none"></circle>
<circle cx="1782.85" cy="767.32" r="4" stroke="rgb(0,165,255)" stroke-width="2" fill="none"></circle>
<circle cx="5558.98" cy="2009.91" r="4" stroke="rgb(0,165,255)" stroke-width="2" fill="none"></circle>
</svg>