<?xml version="1.0" standalone="yes"?>
<!-- SVG graphic -->
<svg xmlns='http://www.w3.org/2000/svg' xmlns:xlink='http://www.w3.org/1999/xlink'
width="8064px" height="3024px" preserveAspectRatio="xMinYMin meet" viewBox="0 0 8064 3024" version="1.1">
<image x="0" y="0" width="4032px" height="3024px" opacity="1" xlink:href="/home/jeong/Code/2D-to-3D-Modeling-using-AI/Make3D/Image/20200227_180648.jpg"/>
<image x="4032" y="0" width="4032px" height="3024px" opacity="1" xlink:href="/home/jeong/Code/2D-to-3D-Modeling-using-AI/Make3D/Image/20200227_180659.jpg"/>
<polyline points="3012.56,1350.74,6597.28,1407.74" stroke="rgb(169,255,0)" stroke-width="2" fill="none"></polyline>
<polyline points="1684.24,984.679,5147.7,995.289" stroke="rgb(0,55,255)" stroke-width="2" fill="none"></polyline>
<polyline points="2991.15,1653.98,4582.18,2640.56" stroke="rgb(8,0,255)" stroke-width="2" fill="none"></polyline>
<polyline points="2432.68,1871.57,4987.27,2702.65" stroke="rgb(0,255,225)" stroke-width="2" fill="none"></polyline>
<polyline points="1919.13,1260.85,5887.96,1979.86" stroke="rgb(199,255,0)" stroke-width="2" fill="none"></polyline>
<polyline points="3100.65,1249.61,5937.55,1488.79" stroke="rgb(178,0,255)" stroke-width="2" fill="none"></polyline>
<polyline points="2324.1,1592.5,5205.02,1195.17" stroke="rgb(80,255,0)" stroke-width="2" fill="none"></polyline>
<polyline points="2324.1,1592.5,5205.02,1195.17" stroke="rgb(255,0,242)" stroke-width="2" fill="none"></polyline>
<polyline points="1968.23,1927.68,5863.97,1188.32" stroke="rgb(255,238,0)" stroke-width="2" fill="none"></polyline>
<polyline points="2251.25,1910.72,5833.09,2161.94" stroke="rgb(97,0,255)" stroke-width="2" fill="none"></polyline>
<polyline points="1919.13,1260.85,6352.31,2141.1" stroke="rgb(255,221,0)" stroke-width="2" fill="none"></polyline>
<polyline points="1323.69,1211.83,6458.19,2180.99" stroke="rgb(0,255,25)" stroke-width="2" fill="none"></polyline>
<polyline points="1323.69,1211.83,5629.89,1205.7" stroke="rgb(0,195,255)" stroke-width="2" fill="none"></polyline>
<polyline points="1958.02,1255.03,6409.8,2189.28" stroke="rgb(34,0,255)" stroke-width="2" fill="none"></polyline>
<polyline points="2127.59,1027.52,5383.1,2199.06" stroke="rgb(255,0,21)" stroke-width="2" fill="none"></polyline>
<polyline points="1919.13,1260.85,6561.93,2247.06" stroke="rgb(0,255,84)" stroke-width="2" fill="none"></polyline>
<polyline points="2173.75,1887.82,5140.79,2283.2" stroke="rgb(63,255,0)" stroke-width="2" fill="none"></polyline>
<polyline points="2173.75,1887.82,5135.22,2289.13" stroke="rgb(212,0,255)" stroke-width="2" fill="none"></polyline>
<polyline points="1919.13,1260.85,5630.36,2291.19" stroke="rgb(0,255,148)" stroke-width="2" fill="none"></polyline>
<polyline points="1968.23,1927.68,5847.98,1566.01" stroke="rgb(144,255,0)" stroke-width="2" fill="none"></polyline>
<polyline points="1919.13,1260.85,6532.79,2359.05" stroke="rgb(255,123,0)" stroke-width="2" fill="none"></polyline>
<polyline points="2991.15,1653.98,5195.67,2431.09" stroke="rgb(255,161,0)" stroke-width="2" fill="none"></polyline>
<polyline points="1089.76,1384.49,4762.56,2434.92" stroke="rgb(0,42,255)" stroke-width="2" fill="none"></polyline>
<polyline points="1968.23,1927.68,5794.7,1594.07" stroke="rgb(186,0,255)" stroke-width="2" fill="none"></polyline>
<polyline points="2256.73,1614.27,6467.96,2478.94" stroke="rgb(174,255,0)" stroke-width="2" fill="none"></polyline>
<polyline points="3050.69,1352.4,5485.83,2531" stroke="rgb(131,255,0)" stroke-width="2" fill="none"></polyline>
<polyline points="1919.13,1260.85,6460.18,2488.05" stroke="rgb(0,76,255)" stroke-width="2" fill="none"></polyline>
<polyline points="2100.22,1592.01,5546.19,2496.63" stroke="rgb(255,0,85)" stroke-width="2" fill="none"></polyline>
<polyline points="3080.06,1254.37,5683.12,2570.88" stroke="rgb(0,255,101)" stroke-width="2" fill="none"></polyline>
<polyline points="1698.75,969.564,5610.19,1968.77" stroke="rgb(255,0,38)" stroke-width="2" fill="none"></polyline>
<polyline points="3071.57,1205.4,5507.85,1649.04" stroke="rgb(140,255,0)" stroke-width="2" fill="none"></polyline>
<polyline points="2747.54,1971.02,5735.32,2481.68" stroke="rgb(101,255,0)" stroke-width="2" fill="none"></polyline>
<polyline points="1596.05,1092.23,6035.87,940.714" stroke="rgb(127,255,0)" stroke-width="2" fill="none"></polyline>
<polyline points="2558.35,1925.95,6557.19,929.356" stroke="rgb(255,0,131)" stroke-width="2" fill="none"></polyline>
<polyline points="2817.33,1934.05,5324.57,963.039" stroke="rgb(0,255,89)" stroke-width="2" fill="none"></polyline>
<polyline points="2460.12,1986.21,5440.83,1400.74" stroke="rgb(0,255,186)" stroke-width="2" fill="none"></polyline>
<polyline points="1949.37,1822.24,5864.22,1416.86" stroke="rgb(0,255,16)" stroke-width="2" fill="none"></polyline>
<polyline points="2702,1507.67,5398.22,1810.49" stroke="rgb(12,0,255)" stroke-width="2" fill="none"></polyline>
<polyline points="2289.7,1889.02,6153.01,1874.1" stroke="rgb(255,0,89)" stroke-width="2" fill="none"></polyline>
<polyline points="1893.89,1279.12,6566.96,2167.4" stroke="rgb(255,221,0)" stroke-width="2" fill="none"></polyline>
<polyline points="2817.33,1934.05,6563.46,1313.96" stroke="rgb(0,255,110)" stroke-width="2" fill="none"></polyline>
<polyline points="1893.89,1279.12,6562.74,2172.21" stroke="rgb(102,0,255)" stroke-width="2" fill="none"></polyline>
<polyline points="2519.89,1956.42,5580.91,2351.05" stroke="rgb(0,255,246)" stroke-width="2" fill="none"></polyline>
<circle cx="3012.56" cy="1350.74" r="4" stroke="rgb(169,255,0)" stroke-width="2" fill="none"></circle>
<circle cx="6597.28" cy="1407.74" r="4" stroke="rgb(169,255,0)" stroke-width="2" fill="none"></circle>
<circle cx="1684.24" cy="984.679" r="4" stroke="rgb(0,55,255)" stroke-width="2" fill="none"></circle>
<circle cx="5147.7" cy="995.289" r="4" stroke="rgb(0,55,255)" stroke-width="2" fill="none"></circle>
<circle cx="2991.15" cy="1653.98" r="4" stroke="rgb(8,0,255)" stroke-width="2" fill="none"></circle>
<circle cx="4582.18" cy="2640.56" r="4" stroke="rgb(8,0,255)" stroke-width="2" fill="none"></circle>
<circle cx="2432.68" cy="1871.57" r="4" stroke="rgb(0,255,225)" stroke-width="2" fill="none"></circle>
<circle cx="4987.27" cy="2702.65" r="4" stroke="rgb(0,255,225)" stroke-width="2" fill="none"></circle>
<circle cx="1919.13" cy="1260.85" r="4" stroke="rgb(199,255,0)" stroke-width="2" fill="none"></circle>
<circle cx="5887.96" cy="1979.86" r="4" stroke="rgb(199,255,0)" stroke-width="2" fill="none"></circle>
<circle cx="3100.65" cy="1249.61" r="4" stroke="rgb(178,0,255)" stroke-width="2" fill="none"></circle>
<circle cx="5937.55" cy="1488.79" r="4" stroke="rgb(178,0,255)" stroke-width="2" fill="none"></circle>
<circle cx="2324.1" cy="1592.5" r="4" stroke="rgb(80,255,0)" stroke-width="2" fill="none"></circle>
<circle cx="5205.02" cy="1195.17" r="4" stroke="rgb(80,255,0)" stroke-width="2" fill="none"></circle>
<circle cx="2324.1" cy="1592.5" r="4" stroke="rgb(255,0,242)" stroke-width="2" fill="none"></circle>
<circle cx="5205.02" cy="1195.17" r="4" stroke="rgb(255,0,242)" stroke-width="2" fill="none"></circle>
<circle cx="1968.23" cy="1927.68" r="4" stroke="rgb(255,238,0)" stroke-width="2" fill="none"></circle>
<circle cx="5863.97" cy="1188.32" r="4" stroke="rgb(255,238,0)" stroke-width="2" fill="none"></circle>
<circle cx="2251.25" cy="1910.72" r="4" stroke="rgb(97,0,255)" stroke-width="2" fill="none"></circle>
<circle cx="5833.09" cy="2161.94" r="4" stroke="rgb(97,0,255)" stroke-width="2" fill="none"></circle>
<circle cx="1919.13" cy="1260.85" r="4" stroke="rgb(255,221,0)" stroke-width="2" fill="none"></circle>
<circle cx="6352.31" cy="2141.1" r="4" stroke="rgb(255,221,0)" stroke-width="2" fill="none"></circle>
<circle cx="1323.69" cy="1211.83" r="4" stroke="rgb(0,255,25)" stroke-width="2" fill="none"></circle>
<circle cx="6458.19" cy="2180.99" r="4" stroke="rgb(0,255,25)" stroke-width="2" fill="none"></circle>
<circle cx="1323.69" cy="1211.83" r="4" stroke="rgb(0,195,255)" stroke-width="2" fill="none"></circle>
<circle cx="5629.89" cy="1205.7" r="4" stroke="rgb(0,195,255)" stroke-width="2" fill="none"></circle>
<circle cx="1958.02" cy="1255.03" r="4" stroke="rgb(34,0,255)" stroke-width="2" fill="none"></circle>
<circle cx="6409.8" cy="2189.28" r="4" stroke="rgb(34,0,255)" stroke-width="2" fill="none"></circle>
<circle cx="2127.59" cy="1027.52" r="4" stroke="rgb(255,0,21)" stroke-width="2" fill="none"></circle>
<circle cx="5383.1" cy="2199.06" r="4" stroke="rgb(255,0,21)" stroke-width="2" fill="none"></circle>
<circle cx="1919.13" cy="1260.85" r="4" stroke="rgb(0,255,84)" stroke-width="2" fill="none"></circle>
<circle cx="6561.93" cy="2247.06" r="4" stroke="rgb(0,255,84)" stroke-width="2" fill="none"></circle>
<circle cx="2173.75" cy="1887.82" r="4" stroke="rgb(63,255,0)" stroke-width="2" fill="none"></circle>
<circle cx="5140.79" cy="2283.2" r="4" stroke="rgb(63,255,0)" stroke-width="2" fill="none"></circle>
<circle cx="2173.75" cy="1887.82" r="4" stroke="rgb(212,0,255)" stroke-width="2" fill="none"></circle>
<circle cx="5135.22" cy="2289.13" r="4" stroke="rgb(212,0,255)" stroke-width="2" fill="none"></circle>
<circle cx="1919.13" cy="1260.85" r="4" stroke="rgb(0,255,148)" stroke-width="2" fill="none"></circle>
<circle cx="5630.36" cy="2291.19" r="4" stroke="rgb(0,255,148)" stroke-width="2" fill="none"></circle>
<circle cx="1968.23" cy="1927.68" r="4" stroke="rgb(144,255,0)" stroke-width="2" fill="none"></circle>
<circle cx="5847.98" cy="1566.01" r="4" stroke="rgb(144,255,0)" stroke-width="2" fill="none"></circle>
<circle cx="1919.13" cy="1260.85" r="4" stroke="rgb(255,123,0)" stroke-width="2" fill="none"></circle>
<circle cx="6532.79" cy="2359.05" r="4" stroke="rgb(255,123,0)" stroke-width="2" fill="none"></circle>
<circle cx="2991.15" cy="1653.98" r="4" stroke="rgb(255,161,0)" stroke-width="2" fill="none"></circle>
<circle cx="5195.67" cy="2431.09" r="4" stroke="rgb(255,161,0)" stroke-width="2" fill="none"></circle>
<circle cx="1089.76" cy="1384.49" r="4" stroke="rgb(0,42,255)" stroke-width="2" fill="none"></circle>
<circle cx="4762.56" cy="2434.92" r="4" stroke="rgb(0,42,255)" stroke-width="2" fill="none"></circle>
<circle cx="1968.23" cy="1927.68" r="4" stroke="rgb(186,0,255)" stroke-width="2" fill="none"></circle>
<circle cx="5794.7" cy="1594.07" r="4" stroke="rgb(186,0,255)" stroke-width="2" fill="none"></circle>
<circle cx="2256.73" cy="1614.27" r="4" stroke="rgb(174,255,0)" stroke-width="2" fill="none"></circle>
<circle cx="6467.96" cy="2478.94" r="4" stroke="rgb(174,255,0)" stroke-width="2" fill="none"></circle>
<circle cx="3050.69" cy="1352.4" r="4" stroke="rgb(131,255,0)" stroke-width="2" fill="none"></circle>
<circle cx="5485.83" cy="2531" r="4" stroke="rgb(131,255,0)" stroke-width="2" fill="none"></circle>
<circle cx="1919.13" cy="1260.85" r="4" stroke="rgb(0,76,255)" stroke-width="2" fill="none"></circle>
<circle cx="6460.18" cy="2488.05" r="4" stroke="rgb(0,76,255)" stroke-width="2" fill="none"></circle>
<circle cx="2100.22" cy="1592.01" r="4" stroke="rgb(255,0,85)" stroke-width="2" fill="none"></circle>
<circle cx="5546.19" cy="2496.63" r="4" stroke="rgb(255,0,85)" stroke-width="2" fill="none"></circle>
<circle cx="3080.06" cy="1254.37" r="4" stroke="rgb(0,255,101)" stroke-width="2" fill="none"></circle>
<circle cx="5683.12" cy="2570.88" r="4" stroke="rgb(0,255,101)" stroke-width="2" fill="none"></circle>
<circle cx="1698.75" cy="969.564" r="4" stroke="rgb(255,0,38)" stroke-width="2" fill="none"></circle>
<circle cx="5610.19" cy="1968.77" r="4" stroke="rgb(255,0,38)" stroke-width="2" fill="none"></circle>
<circle cx="3071.57" cy="1205.4" r="4" stroke="rgb(140,255,0)" stroke-width="2" fill="none"></circle>
<circle cx="5507.85" cy="1649.04" r="4" stroke="rgb(140,255,0)" stroke-width="2" fill="none"></circle>
<circle cx="2747.54" cy="1971.02" r="4" stroke="rgb(101,255,0)" stroke-width="2" fill="none"></circle>
<circle cx="5735.32" cy="2481.68" r="4" stroke="rgb(101,255,0)" stroke-width="2" fill="none"></circle>
<circle cx="1596.05" cy="1092.23" r="4" stroke="rgb(127,255,0)" stroke-width="2" fill="none"></circle>
<circle cx="6035.87" cy="940.714" r="4" stroke="rgb(127,255,0)" stroke-width="2" fill="none"></circle>
<circle cx="2558.35" cy="1925.95" r="4" stroke="rgb(255,0,131)" stroke-width="2" fill="none"></circle>
<circle cx="6557.19" cy="929.356" r="4" stroke="rgb(255,0,131)" stroke-width="2" fill="none"></circle>
<circle cx="2817.33" cy="1934.05" r="4" stroke="rgb(0,255,89)" stroke-width="2" fill="none"></circle>
<circle cx="5324.57" cy="963.039" r="4" stroke="rgb(0,255,89)" stroke-width="2" fill="none"></circle>
<circle cx="2460.12" cy="1986.21" r="4" stroke="rgb(0,255,186)" stroke-width="2" fill="none"></circle>
<circle cx="5440.83" cy="1400.74" r="4" stroke="rgb(0,255,186)" stroke-width="2" fill="none"></circle>
<circle cx="1949.37" cy="1822.24" r="4" stroke="rgb(0,255,16)" stroke-width="2" fill="none"></circle>
<circle cx="5864.22" cy="1416.86" r="4" stroke="rgb(0,255,16)" stroke-width="2" fill="none"></circle>
<circle cx="2702" cy="1507.67" r="4" stroke="rgb(12,0,255)" stroke-width="2" fill="none"></circle>
<circle cx="5398.22" cy="1810.49" r="4" stroke="rgb(12,0,255)" stroke-width="2" fill="none"></circle>
<circle cx="2289.7" cy="1889.02" r="4" stroke="rgb(255,0,89)" stroke-width="2" fill="none"></circle>
<circle cx="6153.01" cy="1874.1" r="4" stroke="rgb(255,0,89)" stroke-width="2" fill="none"></circle>
<circle cx="1893.89" cy="1279.12" r="4" stroke="rgb(255,221,0)" stroke-width="2" fill="none"></circle>
<circle cx="6566.96" cy="2167.4" r="4" stroke="rgb(255,221,0)" stroke-width="2" fill="none"></circle>
<circle cx="2817.33" cy="1934.05" r="4" stroke="rgb(0,255,110)" stroke-width="2" fill="none"></circle>
<circle cx="6563.46" cy="1313.96" r="4" stroke="rgb(0,255,110)" stroke-width="2" fill="none"></circle>
<circle cx="1893.89" cy="1279.12" r="4" stroke="rgb(102,0,255)" stroke-width="2" fill="none"></circle>
<circle cx="6562.74" cy="2172.21" r="4" stroke="rgb(102,0,255)" stroke-width="2" fill="none"></circle>
<circle cx="2519.89" cy="1956.42" r="4" stroke="rgb(0,255,246)" stroke-width="2" fill="none"></circle>
<circle cx="5580.91" cy="2351.05" r="4" stroke="rgb(0,255,246)" stroke-width="2" fill="none"></circle>
</svg>