<?xml version="1.0" standalone="yes"?>
<!-- SVG graphic -->
<svg xmlns='http://www.w3.org/2000/svg' xmlns:xlink='http://www.w3.org/1999/xlink'
width="8064px" height="3024px" preserveAspectRatio="xMinYMin meet" viewBox="0 0 8064 3024" version="1.1">
<image x="0" y="0" width="4032px" height="3024px" opacity="1" xlink:href="/home/jeong/Code/2D-to-3D-Modeling-using-AI/Make3D/Image/20200227_180648.jpg"/>
<image x="4032" y="0" width="4032px" height="3024px" opacity="1" xlink:href="/home/jeong/Code/2D-to-3D-Modeling-using-AI/Make3D/Image/20200227_180711.jpg"/>
<polyline points="2471.8,1598.92,6322.65,1819.68" stroke="rgb(255,212,0)" stroke-width="2" fill="none"></polyline>
<polyline points="1504.43,1927.93,5368.71,837.596" stroke="rgb(255,51,0)" stroke-width="2" fill="none"></polyline>
<polyline points="1831.21,1071.41,6205.14,1703.23" stroke="rgb(85,0,255)" stroke-width="2" fill="none"></polyline>
<polyline points="1682.76,1529.55,5313.9,969.61" stroke="rgb(191,0,255)" stroke-width="2" fill="none"></polyline>
<polyline points="1540.98,2255.14,5339.99,1291.38" stroke="rgb(50,0,255)" stroke-width="2" fill="none"></polyline>
<polyline points="2065.15,1019.93,5904.07,1301.86" stroke="rgb(0,255,16)" stroke-width="2" fill="none"></polyline>
<polyline points="1928.59,955.402,5860.58,1306.06" stroke="rgb(0,255,110)" stroke-width="2" fill="none"></polyline>
<polyline points="1983.18,933.863,6135.1,1897.78" stroke="rgb(255,21,0)" stroke-width="2" fill="none"></polyline>
<polyline points="2173.75,1887.82,5877.1,1124.54" stroke="rgb(63,255,0)" stroke-width="2" fill="none"></polyline>
<polyline points="2173.75,1887.82,5876.89,1131.87" stroke="rgb(255,0,110)" stroke-width="2" fill="none"></polyline>
<polyline points="1968.23,1927.68,5965.37,1172.46" stroke="rgb(127,0,255)" stroke-width="2" fill="none"></polyline>
<polyline points="1323.69,1211.83,6426.16,2009.68" stroke="rgb(255,51,0)" stroke-width="2" fill="none"></polyline>
<polyline points="1833.06,1787.85,5500.48,1230.25" stroke="rgb(153,0,255)" stroke-width="2" fill="none"></polyline>
<polyline points="2203.5,1907.76,6010.39,1424.03" stroke="rgb(16,255,0)" stroke-width="2" fill="none"></polyline>
<polyline points="2065.15,1019.93,6130.85,1428.9" stroke="rgb(255,221,0)" stroke-width="2" fill="none"></polyline>
<polyline points="1968.23,1927.68,5978.21,1439.25" stroke="rgb(21,255,0)" stroke-width="2" fill="none"></polyline>
<polyline points="1968.23,1927.68,5978.21,1439.25" stroke="rgb(255,0,169)" stroke-width="2" fill="none"></polyline>
<polyline points="2173.75,1887.82,5867.85,1227.98" stroke="rgb(178,0,255)" stroke-width="2" fill="none"></polyline>
<polyline points="1684.24,984.679,5528.71,1252.84" stroke="rgb(0,255,169)" stroke-width="2" fill="none"></polyline>
<polyline points="2173.75,1887.82,5866.99,1233.89" stroke="rgb(255,0,195)" stroke-width="2" fill="none"></polyline>
<polyline points="1968.23,1927.68,6042.51,1240.1" stroke="rgb(123,255,0)" stroke-width="2" fill="none"></polyline>
<polyline points="1867.82,1831.75,5614.18,2088.74" stroke="rgb(0,93,255)" stroke-width="2" fill="none"></polyline>
<polyline points="2258.13,961.977,5611.94,2101.95" stroke="rgb(182,255,0)" stroke-width="2" fill="none"></polyline>
<polyline points="3077.38,1319.61,6404.46,1427.55" stroke="rgb(255,114,0)" stroke-width="2" fill="none"></polyline>
<polyline points="1885.34,1850.75,5924.43,1267.43" stroke="rgb(0,255,114)" stroke-width="2" fill="none"></polyline>
<polyline points="3100.65,1249.61,6087.16,1507.69" stroke="rgb(233,0,255)" stroke-width="2" fill="none"></polyline>
<polyline points="1769.06,985.85,6641.31,1310.23" stroke="rgb(255,80,0)" stroke-width="2" fill="none"></polyline>
<polyline points="2852.66,1922.73,5382.09,1323.32" stroke="rgb(42,255,0)" stroke-width="2" fill="none"></polyline>
<polyline points="1919.13,1260.85,5781.93,2165.54" stroke="rgb(46,255,0)" stroke-width="2" fill="none"></polyline>
<polyline points="1566.96,1147.43,6257.67,2195.56" stroke="rgb(0,255,182)" stroke-width="2" fill="none"></polyline>
<polyline points="1309.33,1150.92,5562.28,1574.05" stroke="rgb(0,148,255)" stroke-width="2" fill="none"></polyline>
<polyline points="3113.54,1392.77,5807.42,2028.39" stroke="rgb(0,255,169)" stroke-width="2" fill="none"></polyline>
<polyline points="1968.23,1927.68,5958.89,1600.2" stroke="rgb(0,255,233)" stroke-width="2" fill="none"></polyline>
<polyline points="1930.45,1180.2,6599.52,2108.72" stroke="rgb(63,255,0)" stroke-width="2" fill="none"></polyline>
<polyline points="3031.32,1394.72,6729.14,1625.16" stroke="rgb(148,255,0)" stroke-width="2" fill="none"></polyline>
<polyline points="1919.13,1260.85,6503.27,2335.6" stroke="rgb(254,0,255)" stroke-width="2" fill="none"></polyline>
<polyline points="1602.26,932.615,5815.6,1663.63" stroke="rgb(80,255,0)" stroke-width="2" fill="none"></polyline>
<polyline points="1602.26,932.615,5815.6,1663.63" stroke="rgb(0,33,255)" stroke-width="2" fill="none"></polyline>
<polyline points="3011.52,1284.47,5923.31,1665.09" stroke="rgb(255,0,233)" stroke-width="2" fill="none"></polyline>
<polyline points="1678.72,807.457,6305.04,2299.1" stroke="rgb(0,144,255)" stroke-width="2" fill="none"></polyline>
<polyline points="2747.54,1971.02,5857.28,2319.27" stroke="rgb(178,255,0)" stroke-width="2" fill="none"></polyline>
<polyline points="1441.67,880.743,6347.7,1710.89" stroke="rgb(0,101,255)" stroke-width="2" fill="none"></polyline>
<polyline points="1946.6,1213.76,5743.09,1824.74" stroke="rgb(0,89,255)" stroke-width="2" fill="none"></polyline>
<polyline points="2713.91,1256.94,5639.73,1615.04" stroke="rgb(255,0,25)" stroke-width="2" fill="none"></polyline>
<polyline points="2645.05,1537.56,6069.13,1085.58" stroke="rgb(255,0,119)" stroke-width="2" fill="none"></polyline>
<polyline points="1562.91,981.948,5794.38,1879.28" stroke="rgb(0,255,97)" stroke-width="2" fill="none"></polyline>
<polyline points="3021.28,1437.69,5794.38,1879.28" stroke="rgb(255,0,80)" stroke-width="2" fill="none"></polyline>
<polyline points="2668.13,1936.8,6611.85,1465.3" stroke="rgb(0,255,186)" stroke-width="2" fill="none"></polyline>
<polyline points="2530.46,859.558,5191.94,2482.15" stroke="rgb(242,0,255)" stroke-width="2" fill="none"></polyline>
<polyline points="2350.86,1941.8,5665.14,1301.69" stroke="rgb(255,59,0)" stroke-width="2" fill="none"></polyline>
<polyline points="2350.86,1941.8,5665.14,1301.69" stroke="rgb(255,0,38)" stroke-width="2" fill="none"></polyline>
<polyline points="2834.51,1945.26,6686.2,1354.14" stroke="rgb(85,0,255)" stroke-width="2" fill="none"></polyline>
<polyline points="2375.01,1894.4,5996.05,1593.41" stroke="rgb(0,33,255)" stroke-width="2" fill="none"></polyline>
<polyline points="2610.28,1971.92,6629.78,1540.46" stroke="rgb(221,255,0)" stroke-width="2" fill="none"></polyline>
<polyline points="2350.25,1086.09,5968.46,1575.7" stroke="rgb(199,0,255)" stroke-width="2" fill="none"></polyline>
<polyline points="1893.89,1279.12,6595.84,2103.96" stroke="rgb(255,80,0)" stroke-width="2" fill="none"></polyline>
<polyline points="1596.05,1092.23,6200.84,968.183" stroke="rgb(255,12,0)" stroke-width="2" fill="none"></polyline>
<polyline points="2817.33,1934.05,6664.91,1358.89" stroke="rgb(0,255,246)" stroke-width="2" fill="none"></polyline>
<polyline points="2673.8,1055.39,5218.37,2377.12" stroke="rgb(0,255,38)" stroke-width="2" fill="none"></polyline>
<circle cx="2471.8" cy="1598.92" r="4" stroke="rgb(255,212,0)" stroke-width="2" fill="none"></circle>
<circle cx="6322.65" cy="1819.68" r="4" stroke="rgb(255,212,0)" stroke-width="2" fill="none"></circle>
<circle cx="1504.43" cy="1927.93" r="4" stroke="rgb(255,51,0)" stroke-width="2" fill="none"></circle>
<circle cx="5368.71" cy="837.596" r="4" stroke="rgb(255,51,0)" stroke-width="2" fill="none"></circle>
<circle cx="1831.21" cy="1071.41" r="4" stroke="rgb(85,0,255)" stroke-width="2" fill="none"></circle>
<circle cx="6205.14" cy="1703.23" r="4" stroke="rgb(85,0,255)" stroke-width="2" fill="none"></circle>
<circle cx="1682.76" cy="1529.55" r="4" stroke="rgb(191,0,255)" stroke-width="2" fill="none"></circle>
<circle cx="5313.9" cy="969.61" r="4" stroke="rgb(191,0,255)" stroke-width="2" fill="none"></circle>
<circle cx="1540.98" cy="2255.14" r="4" stroke="rgb(50,0,255)" stroke-width="2" fill="none"></circle>
<circle cx="5339.99" cy="1291.38" r="4" stroke="rgb(50,0,255)" stroke-width="2" fill="none"></circle>
<circle cx="2065.15" cy="1019.93" r="4" stroke="rgb(0,255,16)" stroke-width="2" fill="none"></circle>
<circle cx="5904.07" cy="1301.86" r="4" stroke="rgb(0,255,16)" stroke-width="2" fill="none"></circle>
<circle cx="1928.59" cy="955.402" r="4" stroke="rgb(0,255,110)" stroke-width="2" fill="none"></circle>
<circle cx="5860.58" cy="1306.06" r="4" stroke="rgb(0,255,110)" stroke-width="2" fill="none"></circle>
<circle cx="1983.18" cy="933.863" r="4" stroke="rgb(255,21,0)" stroke-width="2" fill="none"></circle>
<circle cx="6135.1" cy="1897.78" r="4" stroke="rgb(255,21,0)" stroke-width="2" fill="none"></circle>
<circle cx="2173.75" cy="1887.82" r="4" stroke="rgb(63,255,0)" stroke-width="2" fill="none"></circle>
<circle cx="5877.1" cy="1124.54" r="4" stroke="rgb(63,255,0)" stroke-width="2" fill="none"></circle>
<circle cx="2173.75" cy="1887.82" r="4" stroke="rgb(255,0,110)" stroke-width="2" fill="none"></circle>
<circle cx="5876.89" cy="1131.87" r="4" stroke="rgb(255,0,110)" stroke-width="2" fill="none"></circle>
<circle cx="1968.23" cy="1927.68" r="4" stroke="rgb(127,0,255)" stroke-width="2" fill="none"></circle>
<circle cx="5965.37" cy="1172.46" r="4" stroke="rgb(127,0,255)" stroke-width="2" fill="none"></circle>
<circle cx="1323.69" cy="1211.83" r="4" stroke="rgb(255,51,0)" stroke-width="2" fill="none"></circle>
<circle cx="6426.16" cy="2009.68" r="4" stroke="rgb(255,51,0)" stroke-width="2" fill="none"></circle>
<circle cx="1833.06" cy="1787.85" r="4" stroke="rgb(153,0,255)" stroke-width="2" fill="none"></circle>
<circle cx="5500.48" cy="1230.25" r="4" stroke="rgb(153,0,255)" stroke-width="2" fill="none"></circle>
<circle cx="2203.5" cy="1907.76" r="4" stroke="rgb(16,255,0)" stroke-width="2" fill="none"></circle>
<circle cx="6010.39" cy="1424.03" r="4" stroke="rgb(16,255,0)" stroke-width="2" fill="none"></circle>
<circle cx="2065.15" cy="1019.93" r="4" stroke="rgb(255,221,0)" stroke-width="2" fill="none"></circle>
<circle cx="6130.85" cy="1428.9" r="4" stroke="rgb(255,221,0)" stroke-width="2" fill="none"></circle>
<circle cx="1968.23" cy="1927.68" r="4" stroke="rgb(21,255,0)" stroke-width="2" fill="none"></circle>
<circle cx="5978.21" cy="1439.25" r="4" stroke="rgb(21,255,0)" stroke-width="2" fill="none"></circle>
<circle cx="1968.23" cy="1927.68" r="4" stroke="rgb(255,0,169)" stroke-width="2" fill="none"></circle>
<circle cx="5978.21" cy="1439.25" r="4" stroke="rgb(255,0,169)" stroke-width="2" fill="none"></circle>
<circle cx="2173.75" cy="1887.82" r="4" stroke="rgb(178,0,255)" stroke-width="2" fill="none"></circle>
<circle cx="5867.85" cy="1227.98" r="4" stroke="rgb(178,0,255)" stroke-width="2" fill="none"></circle>
<circle cx="1684.24" cy="984.679" r="4" stroke="rgb(0,255,169)" stroke-width="2" fill="none"></circle>
<circle cx="5528.71" cy="1252.84" r="4" stroke="rgb(0,255,169)" stroke-width="2" fill="none"></circle>
<circle cx="2173.75" cy="1887.82" r="4" stroke="rgb(255,0,195)" stroke-width="2" fill="none"></circle>
<circle cx="5866.99" cy="1233.89" r="4" stroke="rgb(255,0,195)" stroke-width="2" fill="none"></circle>
<circle cx="1968.23" cy="1927.68" r="4" stroke="rgb(123,255,0)" stroke-width="2" fill="none"></circle>
<circle cx="6042.51" cy="1240.1" r="4" stroke="rgb(123,255,0)" stroke-width="2" fill="none"></circle>
<circle cx="1867.82" cy="1831.75" r="4" stroke="rgb(0,93,255)" stroke-width="2" fill="none"></circle>
<circle cx="5614.18" cy="2088.74" r="4" stroke="rgb(0,93,255)" stroke-width="2" fill="none"></circle>
<circle cx="2258.13" cy="961.977" r="4" stroke="rgb(182,255,0)" stroke-width="2" fill="none"></circle>
<circle cx="5611.94" cy="2101.95" r="4" stroke="rgb(182,255,0)" stroke-width="2" fill="none"></circle>
<circle cx="3077.38" cy="1319.61" r="4" stroke="rgb(255,114,0)" stroke-width="2" fill="none"></circle>
<circle cx="6404.46" cy="1427.55" r="4" stroke="rgb(255,114,0)" stroke-width="2" fill="none"></circle>
<circle cx="1885.34" cy="1850.75" r="4" stroke="rgb(0,255,114)" stroke-width="2" fill="none"></circle>
<circle cx="5924.43" cy="1267.43" r="4" stroke="rgb(0,255,114)" stroke-width="2" fill="none"></circle>
<circle cx="3100.65" cy="1249.61" r="4" stroke="rgb(233,0,255)" stroke-width="2" fill="none"></circle>
<circle cx="6087.16" cy="1507.69" r="4" stroke="rgb(233,0,255)" stroke-width="2" fill="none"></circle>
<circle cx="1769.06" cy="985.85" r="4" stroke="rgb(255,80,0)" stroke-width="2" fill="none"></circle>
<circle cx="6641.31" cy="1310.23" r="4" stroke="rgb(255,80,0)" stroke-width="2" fill="none"></circle>
<circle cx="2852.66" cy="1922.73" r="4" stroke="rgb(42,255,0)" stroke-width="2" fill="none"></circle>
<circle cx="5382.09" cy="1323.32" r="4" stroke="rgb(42,255,0)" stroke-width="2" fill="none"></circle>
<circle cx="1919.13" cy="1260.85" r="4" stroke="rgb(46,255,0)" stroke-width="2" fill="none"></circle>
<circle cx="5781.93" cy="2165.54" r="4" stroke="rgb(46,255,0)" stroke-width="2" fill="none"></circle>
<circle cx="1566.96" cy="1147.43" r="4" stroke="rgb(0,255,182)" stroke-width="2" fill="none"></circle>
<circle cx="6257.67" cy="2195.56" r="4" stroke="rgb(0,255,182)" stroke-width="2" fill="none"></circle>
<circle cx="1309.33" cy="1150.92" r="4" stroke="rgb(0,148,255)" stroke-width="2" fill="none"></circle>
<circle cx="5562.28" cy="1574.05" r="4" stroke="rgb(0,148,255)" stroke-width="2" fill="none"></circle>
<circle cx="3113.54" cy="1392.77" r="4" stroke="rgb(0,255,169)" stroke-width="2" fill="none"></circle>
<circle cx="5807.42" cy="2028.39" r="4" stroke="rgb(0,255,169)" stroke-width="2" fill="none"></circle>
<circle cx="1968.23" cy="1927.68" r="4" stroke="rgb(0,255,233)" stroke-width="2" fill="none"></circle>
<circle cx="5958.89" cy="1600.2" r="4" stroke="rgb(0,255,233)" stroke-width="2" fill="none"></circle>
<circle cx="1930.45" cy="1180.2" r="4" stroke="rgb(63,255,0)" stroke-width="2" fill="none"></circle>
<circle cx="6599.52" cy="2108.72" r="4" stroke="rgb(63,255,0)" stroke-width="2" fill="none"></circle>
<circle cx="3031.32" cy="1394.72" r="4" stroke="rgb(148,255,0)" stroke-width="2" fill="none"></circle>
<circle cx="6729.14" cy="1625.16" r="4" stroke="rgb(148,255,0)" stroke-width="2" fill="none"></circle>
<circle cx="1919.13" cy="1260.85" r="4" stroke="rgb(254,0,255)" stroke-width="2" fill="none"></circle>
<circle cx="6503.27" cy="2335.6" r="4" stroke="rgb(254,0,255)" stroke-width="2" fill="none"></circle>
<circle cx="1602.26" cy="932.615" r="4" stroke="rgb(80,255,0)" stroke-width="2" fill="none"></circle>
<circle cx="5815.6" cy="1663.63" r="4" stroke="rgb(80,255,0)" stroke-width="2" fill="none"></circle>
<circle cx="1602.26" cy="932.615" r="4" stroke="rgb(0,33,255)" stroke-width="2" fill="none"></circle>
<circle cx="5815.6" cy="1663.63" r="4" stroke="rgb(0,33,255)" stroke-width="2" fill="none"></circle>
<circle cx="3011.52" cy="1284.47" r="4" stroke="rgb(255,0,233)" stroke-width="2" fill="none"></circle>
<circle cx="5923.31" cy="1665.09" r="4" stroke="rgb(255,0,233)" stroke-width="2" fill="none"></circle>
<circle cx="1678.72" cy="807.457" r="4" stroke="rgb(0,144,255)" stroke-width="2" fill="none"></circle>
<circle cx="6305.04" cy="2299.1" r="4" stroke="rgb(0,144,255)" stroke-width="2" fill="none"></circle>
<circle cx="2747.54" cy="1971.02" r="4" stroke="rgb(178,255,0)" stroke-width="2" fill="none"></circle>
<circle cx="5857.28" cy="2319.27" r="4" stroke="rgb(178,255,0)" stroke-width="2" fill="none"></circle>
<circle cx="1441.67" cy="880.743" r="4" stroke="rgb(0,101,255)" stroke-width="2" fill="none"></circle>
<circle cx="6347.7" cy="1710.89" r="4" stroke="rgb(0,101,255)" stroke-width="2" fill="none"></circle>
<circle cx="1946.6" cy="1213.76" r="4" stroke="rgb(0,89,255)" stroke-width="2" fill="none"></circle>
<circle cx="5743.09" cy="1824.74" r="4" stroke="rgb(0,89,255)" stroke-width="2" fill="none"></circle>
<circle cx="2713.91" cy="1256.94" r="4" stroke="rgb(255,0,25)" stroke-width="2" fill="none"></circle>
<circle cx="5639.73" cy="1615.04" r="4" stroke="rgb(255,0,25)" stroke-width="2" fill="none"></circle>
<circle cx="2645.05" cy="1537.56" r="4" stroke="rgb(255,0,119)" stroke-width="2" fill="none"></circle>
<circle cx="6069.13" cy="1085.58" r="4" stroke="rgb(255,0,119)" stroke-width="2" fill="none"></circle>
<circle cx="1562.91" cy="981.948" r="4" stroke="rgb(0,255,97)" stroke-width="2" fill="none"></circle>
<circle cx="5794.38" cy="1879.28" r="4" stroke="rgb(0,255,97)" stroke-width="2" fill="none"></circle>
<circle cx="3021.28" cy="1437.69" r="4" stroke="rgb(255,0,80)" stroke-width="2" fill="none"></circle>
<circle cx="5794.38" cy="1879.28" r="4" stroke="rgb(255,0,80)" stroke-width="2" fill="none"></circle>
<circle cx="2668.13" cy="1936.8" r="4" stroke="rgb(0,255,186)" stroke-width="2" fill="none"></circle>
<circle cx="6611.85" cy="1465.3" r="4" stroke="rgb(0,255,186)" stroke-width="2" fill="none"></circle>
<circle cx="2530.46" cy="859.558" r="4" stroke="rgb(242,0,255)" stroke-width="2" fill="none"></circle>
<circle cx="5191.94" cy="2482.15" r="4" stroke="rgb(242,0,255)" stroke-width="2" fill="none"></circle>
<circle cx="2350.86" cy="1941.8" r="4" stroke="rgb(255,59,0)" stroke-width="2" fill="none"></circle>
<circle cx="5665.14" cy="1301.69" r="4" stroke="rgb(255,59,0)" stroke-width="2" fill="none"></circle>
<circle cx="2350.86" cy="1941.8" r="4" stroke="rgb(255,0,38)" stroke-width="2" fill="none"></circle>
<circle cx="5665.14" cy="1301.69" r="4" stroke="rgb(255,0,38)" stroke-width="2" fill="none"></circle>
<circle cx="2834.51" cy="1945.26" r="4" stroke="rgb(85,0,255)" stroke-width="2" fill="none"></circle>
<circle cx="6686.2" cy="1354.14" r="4" stroke="rgb(85,0,255)" stroke-width="2" fill="none"></circle>
<circle cx="2375.01" cy="1894.4" r="4" stroke="rgb(0,33,255)" stroke-width="2" fill="none"></circle>
<circle cx="5996.05" cy="1593.41" r="4" stroke="rgb(0,33,255)" stroke-width="2" fill="none"></circle>
<circle cx="2610.28" cy="1971.92" r="4" stroke="rgb(221,255,0)" stroke-width="2" fill="none"></circle>
<circle cx="6629.78" cy="1540.46" r="4" stroke="rgb(221,255,0)" stroke-width="2" fill="none"></circle>
<circle cx="2350.25" cy="1086.09" r="4" stroke="rgb(199,0,255)" stroke-width="2" fill="none"></circle>
<circle cx="5968.46" cy="1575.7" r="4" stroke="rgb(199,0,255)" stroke-width="2" fill="none"></circle>
<circle cx="1893.89" cy="1279.12" r="4" stroke="rgb(255,80,0)" stroke-width="2" fill="none"></circle>
<circle cx="6595.84" cy="2103.96" r="4" stroke="rgb(255,80,0)" stroke-width="2" fill="none"></circle>
<circle cx="1596.05" cy="1092.23" r="4" stroke="rgb(255,12,0)" stroke-width="2" fill="none"></circle>
<circle cx="6200.84" cy="968.183" r="4" stroke="rgb(255,12,0)" stroke-width="2" fill="none"></circle>
<circle cx="2817.33" cy="1934.05" r="4" stroke="rgb(0,255,246)" stroke-width="2" fill="none"></circle>
<circle cx="6664.91" cy="1358.89" r="4" stroke="rgb(0,255,246)" stroke-width="2" fill="none"></circle>
<circle cx="2673.8" cy="1055.39" r="4" stroke="rgb(0,255,38)" stroke-width="2" fill="none"></circle>
<circle cx="5218.37" cy="2377.12" r="4" stroke="rgb(0,255,38)" stroke-width="2" fill="none"></circle>
</svg>