<?xml version="1.0" standalone="yes"?>
<!-- SVG graphic -->
<svg xmlns='http://www.w3.org/2000/svg' xmlns:xlink='http://www.w3.org/1999/xlink'
width="8064px" height="3024px" preserveAspectRatio="xMinYMin meet" viewBox="0 0 8064 3024" version="1.1">
<image x="0" y="0" width="4032px" height="3024px" opacity="1" xlink:href="/home/jeong/Code/2D-to-3D-Modeling-using-AI/Make3D/Image/20200227_180649.jpg"/>
<image x="4032" y="0" width="4032px" height="3024px" opacity="1" xlink:href="/home/jeong/Code/2D-to-3D-Modeling-using-AI/Make3D/Image/20200227_180701.jpg"/>
<polyline points="1908.97,1823.07,5204.86,480.847" stroke="rgb(255,0,68)" stroke-width="2" fill="none"></polyline>
<polyline points="1908.97,1823.07,5484.23,529.888" stroke="rgb(0,255,195)" stroke-width="2" fill="none"></polyline>
<polyline points="2312.64,1919.87,5913.86,848.282" stroke="rgb(0,4,255)" stroke-width="2" fill="none"></polyline>
<polyline points="1711.54,1904.8,5212.99,941.605" stroke="rgb(255,250,0)" stroke-width="2" fill="none"></polyline>
<polyline points="1910.36,1033.09,5060.88,952.244" stroke="rgb(0,169,255)" stroke-width="2" fill="none"></polyline>
<polyline points="2528.35,1902.16,5941.8,712.201" stroke="rgb(0,255,191)" stroke-width="2" fill="none"></polyline>
<polyline points="1848.82,1852.87,5233.28,891.488" stroke="rgb(255,0,178)" stroke-width="2" fill="none"></polyline>
<polyline points="2008.27,1804.71,5824.87,716.76" stroke="rgb(0,255,233)" stroke-width="2" fill="none"></polyline>
<polyline points="1600.03,1061.22,4756.24,2026.98" stroke="rgb(0,255,84)" stroke-width="2" fill="none"></polyline>
<polyline points="976.785,1327.75,5200.02,763.461" stroke="rgb(123,255,0)" stroke-width="2" fill="none"></polyline>
<polyline points="1543.72,1303.08,5837.68,2053.02" stroke="rgb(0,25,255)" stroke-width="2" fill="none"></polyline>
<polyline points="1590.14,2162.94,5206.14,766.401" stroke="rgb(0,182,255)" stroke-width="2" fill="none"></polyline>
<polyline points="2518.98,1898.1,6446.63,2109.05" stroke="rgb(255,0,178)" stroke-width="2" fill="none"></polyline>
<polyline points="2829.1,2003.53,6297.04,2123.16" stroke="rgb(255,250,0)" stroke-width="2" fill="none"></polyline>
<polyline points="1668.4,1102.04,5467.26,2125.14" stroke="rgb(255,0,191)" stroke-width="2" fill="none"></polyline>
<polyline points="2586.84,2029.44,4686.77,2126.5" stroke="rgb(123,0,255)" stroke-width="2" fill="none"></polyline>
<polyline points="1357.86,1330.7,5688.41,1459.29" stroke="rgb(255,0,46)" stroke-width="2" fill="none"></polyline>
<polyline points="1793.22,928.024,5766.49,2169.02" stroke="rgb(0,255,203)" stroke-width="2" fill="none"></polyline>
<polyline points="1898.34,974.861,5996.13,1473.47" stroke="rgb(76,255,0)" stroke-width="2" fill="none"></polyline>
<polyline points="1357.86,1330.7,5872.87,1477.28" stroke="rgb(229,255,0)" stroke-width="2" fill="none"></polyline>
<polyline points="1910.36,1033.09,4987.39,2191.66" stroke="rgb(255,127,0)" stroke-width="2" fill="none"></polyline>
<polyline points="1814.29,1101.42,5446.86,2200.04" stroke="rgb(255,195,0)" stroke-width="2" fill="none"></polyline>
<polyline points="1793.22,928.024,6176.64,2208.85" stroke="rgb(255,0,153)" stroke-width="2" fill="none"></polyline>
<polyline points="2506.18,1888.89,5553.79,2242.67" stroke="rgb(80,255,0)" stroke-width="2" fill="none"></polyline>
<polyline points="1777.77,924.035,4729.06,2265.88" stroke="rgb(72,0,255)" stroke-width="2" fill="none"></polyline>
<polyline points="2128.79,1044.77,6282.35,2266.03" stroke="rgb(0,255,148)" stroke-width="2" fill="none"></polyline>
<polyline points="1653.86,1839.22,5906.54,2264.86" stroke="rgb(0,187,255)" stroke-width="2" fill="none"></polyline>
<polyline points="1470.13,1072.68,5291.37,1585.79" stroke="rgb(255,0,144)" stroke-width="2" fill="none"></polyline>
<polyline points="2179.07,1954.61,5154.15,1137.92" stroke="rgb(123,0,255)" stroke-width="2" fill="none"></polyline>
<polyline points="2894.71,2000.84,5752.99,1792.42" stroke="rgb(118,0,255)" stroke-width="2" fill="none"></polyline>
<polyline points="1549.69,981.732,5028.83,1816.78" stroke="rgb(195,0,255)" stroke-width="2" fill="none"></polyline>
<polyline points="2778.86,1851.96,5893.2,1296.57" stroke="rgb(55,0,255)" stroke-width="2" fill="none"></polyline>
<polyline points="1371.05,1820.32,5528.61,1233.99" stroke="rgb(195,255,0)" stroke-width="2" fill="none"></polyline>
<polyline points="1621.71,1012.99,5792.67,1873.4" stroke="rgb(0,255,191)" stroke-width="2" fill="none"></polyline>
<polyline points="1621.71,1012.99,5792.67,1873.4" stroke="rgb(0,233,255)" stroke-width="2" fill="none"></polyline>
<polyline points="1774.6,1042.84,6460.85,1281.81" stroke="rgb(0,255,114)" stroke-width="2" fill="none"></polyline>
<polyline points="1198.53,1222.94,5791.09,1225.48" stroke="rgb(0,161,255)" stroke-width="2" fill="none"></polyline>
<polyline points="1714.19,1043.34,5607.05,1500.73" stroke="rgb(0,255,97)" stroke-width="2" fill="none"></polyline>
<polyline points="2034.42,1956.84,6327.14,1410.53" stroke="rgb(0,195,255)" stroke-width="2" fill="none"></polyline>
<polyline points="1357.86,1330.7,5925.03,1484.89" stroke="rgb(255,0,76)" stroke-width="2" fill="none"></polyline>
<polyline points="2705.51,1017.67,5354.92,1500.09" stroke="rgb(0,25,255)" stroke-width="2" fill="none"></polyline>
<polyline points="2017.32,1943.14,4982.54,1845.69" stroke="rgb(221,255,0)" stroke-width="2" fill="none"></polyline>
<polyline points="1454.8,1398.85,5062.33,2332.36" stroke="rgb(0,255,250)" stroke-width="2" fill="none"></polyline>
<polyline points="1470.13,1072.68,5203.82,381.826" stroke="rgb(237,255,0)" stroke-width="2" fill="none"></polyline>
<polyline points="1027.46,1494.04,4888.7,2102.51" stroke="rgb(255,0,4)" stroke-width="2" fill="none"></polyline>
<polyline points="2829.1,2003.53,5272.95,489.528" stroke="rgb(0,255,59)" stroke-width="2" fill="none"></polyline>
<polyline points="1939.9,1834.22,5420.57,1940.81" stroke="rgb(0,144,255)" stroke-width="2" fill="none"></polyline>
<polyline points="2998.29,1832.69,6585.35,975.242" stroke="rgb(0,85,255)" stroke-width="2" fill="none"></polyline>
<polyline points="1641.12,2221.68,5237.01,385.564" stroke="rgb(0,255,229)" stroke-width="2" fill="none"></polyline>
<polyline points="1586.81,1366.31,5507.27,785.098" stroke="rgb(0,255,254)" stroke-width="2" fill="none"></polyline>
<polyline points="1509.34,1495.7,5059.75,970.195" stroke="rgb(199,0,255)" stroke-width="2" fill="none"></polyline>
<polyline points="2923.76,1978.98,6535.01,977.458" stroke="rgb(187,255,0)" stroke-width="2" fill="none"></polyline>
<polyline points="1930.61,1592.7,5447.26,1771.61" stroke="rgb(0,59,255)" stroke-width="2" fill="none"></polyline>
<polyline points="2829.1,2003.53,6510.19,1016.97" stroke="rgb(46,0,255)" stroke-width="2" fill="none"></polyline>
<polyline points="2434.12,1998.65,6351.24,1173.99" stroke="rgb(0,255,242)" stroke-width="2" fill="none"></polyline>
<polyline points="1505.55,1287.92,5337.07,1195.94" stroke="rgb(255,0,21)" stroke-width="2" fill="none"></polyline>
<polyline points="1220.6,1341.84,5303.09,1096.28" stroke="rgb(255,195,0)" stroke-width="2" fill="none"></polyline>
<polyline points="2906.72,1966.83,6514.78,982.395" stroke="rgb(25,0,255)" stroke-width="2" fill="none"></polyline>
<polyline points="2778.86,1851.96,5870.28,1783.55" stroke="rgb(255,0,161)" stroke-width="2" fill="none"></polyline>
<polyline points="3137.03,1210.07,5402.71,1790.17" stroke="rgb(255,0,187)" stroke-width="2" fill="none"></polyline>
<polyline points="2523.78,1908.5,5845.06,1880.77" stroke="rgb(255,110,0)" stroke-width="2" fill="none"></polyline>
<polyline points="2218.57,1581.6,6400.35,897.079" stroke="rgb(34,0,255)" stroke-width="2" fill="none"></polyline>
<polyline points="3098.12,1210.35,5869.61,1721.28" stroke="rgb(165,255,0)" stroke-width="2" fill="none"></polyline>
<circle cx="1908.97" cy="1823.07" r="4" stroke="rgb(255,0,68)" stroke-width="2" fill="none"></circle>
<circle cx="5204.86" cy="480.847" r="4" stroke="rgb(255,0,68)" stroke-width="2" fill="none"></circle>
<circle cx="1908.97" cy="1823.07" r="4" stroke="rgb(0,255,195)" stroke-width="2" fill="none"></circle>
<circle cx="5484.23" cy="529.888" r="4" stroke="rgb(0,255,195)" stroke-width="2" fill="none"></circle>
<circle cx="2312.64" cy="1919.87" r="4" stroke="rgb(0,4,255)" stroke-width="2" fill="none"></circle>
<circle cx="5913.86" cy="848.282" r="4" stroke="rgb(0,4,255)" stroke-width="2" fill="none"></circle>
<circle cx="1711.54" cy="1904.8" r="4" stroke="rgb(255,250,0)" stroke-width="2" fill="none"></circle>
<circle cx="5212.99" cy="941.605" r="4" stroke="rgb(255,250,0)" stroke-width="2" fill="none"></circle>
<circle cx="1910.36" cy="1033.09" r="4" stroke="rgb(0,169,255)" stroke-width="2" fill="none"></circle>
<circle cx="5060.88" cy="952.244" r="4" stroke="rgb(0,169,255)" stroke-width="2" fill="none"></circle>
<circle cx="2528.35" cy="1902.16" r="4" stroke="rgb(0,255,191)" stroke-width="2" fill="none"></circle>
<circle cx="5941.8" cy="712.201" r="4" stroke="rgb(0,255,191)" stroke-width="2" fill="none"></circle>
<circle cx="1848.82" cy="1852.87" r="4" stroke="rgb(255,0,178)" stroke-width="2" fill="none"></circle>
<circle cx="5233.28" cy="891.488" r="4" stroke="rgb(255,0,178)" stroke-width="2" fill="none"></circle>
<circle cx="2008.27" cy="1804.71" r="4" stroke="rgb(0,255,233)" stroke-width="2" fill="none"></circle>
<circle cx="5824.87" cy="716.76" r="4" stroke="rgb(0,255,233)" stroke-width="2" fill="none"></circle>
<circle cx="1600.03" cy="1061.22" r="4" stroke="rgb(0,255,84)" stroke-width="2" fill="none"></circle>
<circle cx="4756.24" cy="2026.98" r="4" stroke="rgb(0,255,84)" stroke-width="2" fill="none"></circle>
<circle cx="976.785" cy="1327.75" r="4" stroke="rgb(123,255,0)" stroke-width="2" fill="none"></circle>
<circle cx="5200.02" cy="763.461" r="4" stroke="rgb(123,255,0)" stroke-width="2" fill="none"></circle>
<circle cx="1543.72" cy="1303.08" r="4" stroke="rgb(0,25,255)" stroke-width="2" fill="none"></circle>
<circle cx="5837.68" cy="2053.02" r="4" stroke="rgb(0,25,255)" stroke-width="2" fill="none"></circle>
<circle cx="1590.14" cy="2162.94" r="4" stroke="rgb(0,182,255)" stroke-width="2" fill="none"></circle>
<circle cx="5206.14" cy="766.401" r="4" stroke="rgb(0,182,255)" stroke-width="2" fill="none"></circle>
<circle cx="2518.98" cy="1898.1" r="4" stroke="rgb(255,0,178)" stroke-width="2" fill="none"></circle>
<circle cx="6446.63" cy="2109.05" r="4" stroke="rgb(255,0,178)" stroke-width="2" fill="none"></circle>
<circle cx="2829.1" cy="2003.53" r="4" stroke="rgb(255,250,0)" stroke-width="2" fill="none"></circle>
<circle cx="6297.04" cy="2123.16" r="4" stroke="rgb(255,250,0)" stroke-width="2" fill="none"></circle>
<circle cx="1668.4" cy="1102.04" r="4" stroke="rgb(255,0,191)" stroke-width="2" fill="none"></circle>
<circle cx="5467.26" cy="2125.14" r="4" stroke="rgb(255,0,191)" stroke-width="2" fill="none"></circle>
<circle cx="2586.84" cy="2029.44" r="4" stroke="rgb(123,0,255)" stroke-width="2" fill="none"></circle>
<circle cx="4686.77" cy="2126.5" r="4" stroke="rgb(123,0,255)" stroke-width="2" fill="none"></circle>
<circle cx="1357.86" cy="1330.7" r="4" stroke="rgb(255,0,46)" stroke-width="2" fill="none"></circle>
<circle cx="5688.41" cy="1459.29" r="4" stroke="rgb(255,0,46)" stroke-width="2" fill="none"></circle>
<circle cx="1793.22" cy="928.024" r="4" stroke="rgb(0,255,203)" stroke-width="2" fill="none"></circle>
<circle cx="5766.49" cy="2169.02" r="4" stroke="rgb(0,255,203)" stroke-width="2" fill="none"></circle>
<circle cx="1898.34" cy="974.861" r="4" stroke="rgb(76,255,0)" stroke-width="2" fill="none"></circle>
<circle cx="5996.13" cy="1473.47" r="4" stroke="rgb(76,255,0)" stroke-width="2" fill="none"></circle>
<circle cx="1357.86" cy="1330.7" r="4" stroke="rgb(229,255,0)" stroke-width="2" fill="none"></circle>
<circle cx="5872.87" cy="1477.28" r="4" stroke="rgb(229,255,0)" stroke-width="2" fill="none"></circle>
<circle cx="1910.36" cy="1033.09" r="4" stroke="rgb(255,127,0)" stroke-width="2" fill="none"></circle>
<circle cx="4987.39" cy="2191.66" r="4" stroke="rgb(255,127,0)" stroke-width="2" fill="none"></circle>
<circle cx="1814.29" cy="1101.42" r="4" stroke="rgb(255,195,0)" stroke-width="2" fill="none"></circle>
<circle cx="5446.86" cy="2200.04" r="4" stroke="rgb(255,195,0)" stroke-width="2" fill="none"></circle>
<circle cx="1793.22" cy="928.024" r="4" stroke="rgb(255,0,153)" stroke-width="2" fill="none"></circle>
<circle cx="6176.64" cy="2208.85" r="4" stroke="rgb(255,0,153)" stroke-width="2" fill="none"></circle>
<circle cx="2506.18" cy="1888.89" r="4" stroke="rgb(80,255,0)" stroke-width="2" fill="none"></circle>
<circle cx="5553.79" cy="2242.67" r="4" stroke="rgb(80,255,0)" stroke-width="2" fill="none"></circle>
<circle cx="1777.77" cy="924.035" r="4" stroke="rgb(72,0,255)" stroke-width="2" fill="none"></circle>
<circle cx="4729.06" cy="2265.88" r="4" stroke="rgb(72,0,255)" stroke-width="2" fill="none"></circle>
<circle cx="2128.79" cy="1044.77" r="4" stroke="rgb(0,255,148)" stroke-width="2" fill="none"></circle>
<circle cx="6282.35" cy="2266.03" r="4" stroke="rgb(0,255,148)" stroke-width="2" fill="none"></circle>
<circle cx="1653.86" cy="1839.22" r="4" stroke="rgb(0,187,255)" stroke-width="2" fill="none"></circle>
<circle cx="5906.54" cy="2264.86" r="4" stroke="rgb(0,187,255)" stroke-width="2" fill="none"></circle>
<circle cx="1470.13" cy="1072.68" r="4" stroke="rgb(255,0,144)" stroke-width="2" fill="none"></circle>
<circle cx="5291.37" cy="1585.79" r="4" stroke="rgb(255,0,144)" stroke-width="2" fill="none"></circle>
<circle cx="2179.07" cy="1954.61" r="4" stroke="rgb(123,0,255)" stroke-width="2" fill="none"></circle>
<circle cx="5154.15" cy="1137.92" r="4" stroke="rgb(123,0,255)" stroke-width="2" fill="none"></circle>
<circle cx="2894.71" cy="2000.84" r="4" stroke="rgb(118,0,255)" stroke-width="2" fill="none"></circle>
<circle cx="5752.99" cy="1792.42" r="4" stroke="rgb(118,0,255)" stroke-width="2" fill="none"></circle>
<circle cx="1549.69" cy="981.732" r="4" stroke="rgb(195,0,255)" stroke-width="2" fill="none"></circle>
<circle cx="5028.83" cy="1816.78" r="4" stroke="rgb(195,0,255)" stroke-width="2" fill="none"></circle>
<circle cx="2778.86" cy="1851.96" r="4" stroke="rgb(55,0,255)" stroke-width="2" fill="none"></circle>
<circle cx="5893.2" cy="1296.57" r="4" stroke="rgb(55,0,255)" stroke-width="2" fill="none"></circle>
<circle cx="1371.05" cy="1820.32" r="4" stroke="rgb(195,255,0)" stroke-width="2" fill="none"></circle>
<circle cx="5528.61" cy="1233.99" r="4" stroke="rgb(195,255,0)" stroke-width="2" fill="none"></circle>
<circle cx="1621.71" cy="1012.99" r="4" stroke="rgb(0,255,191)" stroke-width="2" fill="none"></circle>
<circle cx="5792.67" cy="1873.4" r="4" stroke="rgb(0,255,191)" stroke-width="2" fill="none"></circle>
<circle cx="1621.71" cy="1012.99" r="4" stroke="rgb(0,233,255)" stroke-width="2" fill="none"></circle>
<circle cx="5792.67" cy="1873.4" r="4" stroke="rgb(0,233,255)" stroke-width="2" fill="none"></circle>
<circle cx="1774.6" cy="1042.84" r="4" stroke="rgb(0,255,114)" stroke-width="2" fill="none"></circle>
<circle cx="6460.85" cy="1281.81" r="4" stroke="rgb(0,255,114)" stroke-width="2" fill="none"></circle>
<circle cx="1198.53" cy="1222.94" r="4" stroke="rgb(0,161,255)" stroke-width="2" fill="none"></circle>
<circle cx="5791.09" cy="1225.48" r="4" stroke="rgb(0,161,255)" stroke-width="2" fill="none"></circle>
<circle cx="1714.19" cy="1043.34" r="4" stroke="rgb(0,255,97)" stroke-width="2" fill="none"></circle>
<circle cx="5607.05" cy="1500.73" r="4" stroke="rgb(0,255,97)" stroke-width="2" fill="none"></circle>
<circle cx="2034.42" cy="1956.84" r="4" stroke="rgb(0,195,255)" stroke-width="2" fill="none"></circle>
<circle cx="6327.14" cy="1410.53" r="4" stroke="rgb(0,195,255)" stroke-width="2" fill="none"></circle>
<circle cx="1357.86" cy="1330.7" r="4" stroke="rgb(255,0,76)" stroke-width="2" fill="none"></circle>
<circle cx="5925.03" cy="1484.89" r="4" stroke="rgb(255,0,76)" stroke-width="2" fill="none"></circle>
<circle cx="2705.51" cy="1017.67" r="4" stroke="rgb(0,25,255)" stroke-width="2" fill="none"></circle>
<circle cx="5354.92" cy="1500.09" r="4" stroke="rgb(0,25,255)" stroke-width="2" fill="none"></circle>
<circle cx="2017.32" cy="1943.14" r="4" stroke="rgb(221,255,0)" stroke-width="2" fill="none"></circle>
<circle cx="4982.54" cy="1845.69" r="4" stroke="rgb(221,255,0)" stroke-width="2" fill="none"></circle>
<circle cx="1454.8" cy="1398.85" r="4" stroke="rgb(0,255,250)" stroke-width="2" fill="none"></circle>
<circle cx="5062.33" cy="2332.36" r="4" stroke="rgb(0,255,250)" stroke-width="2" fill="none"></circle>
<circle cx="1470.13" cy="1072.68" r="4" stroke="rgb(237,255,0)" stroke-width="2" fill="none"></circle>
<circle cx="5203.82" cy="381.826" r="4" stroke="rgb(237,255,0)" stroke-width="2" fill="none"></circle>
<circle cx="1027.46" cy="1494.04" r="4" stroke="rgb(255,0,4)" stroke-width="2" fill="none"></circle>
<circle cx="4888.7" cy="2102.51" r="4" stroke="rgb(255,0,4)" stroke-width="2" fill="none"></circle>
<circle cx="2829.1" cy="2003.53" r="4" stroke="rgb(0,255,59)" stroke-width="2" fill="none"></circle>
<circle cx="5272.95" cy="489.528" r="4" stroke="rgb(0,255,59)" stroke-width="2" fill="none"></circle>
<circle cx="1939.9" cy="1834.22" r="4" stroke="rgb(0,144,255)" stroke-width="2" fill="none"></circle>
<circle cx="5420.57" cy="1940.81" r="4" stroke="rgb(0,144,255)" stroke-width="2" fill="none"></circle>
<circle cx="2998.29" cy="1832.69" r="4" stroke="rgb(0,85,255)" stroke-width="2" fill="none"></circle>
<circle cx="6585.35" cy="975.242" r="4" stroke="rgb(0,85,255)" stroke-width="2" fill="none"></circle>
<circle cx="1641.12" cy="2221.68" r="4" stroke="rgb(0,255,229)" stroke-width="2" fill="none"></circle>
<circle cx="5237.01" cy="385.564" r="4" stroke="rgb(0,255,229)" stroke-width="2" fill="none"></circle>
<circle cx="1586.81" cy="1366.31" r="4" stroke="rgb(0,255,254)" stroke-width="2" fill="none"></circle>
<circle cx="5507.27" cy="785.098" r="4" stroke="rgb(0,255,254)" stroke-width="2" fill="none"></circle>
<circle cx="1509.34" cy="1495.7" r="4" stroke="rgb(199,0,255)" stroke-width="2" fill="none"></circle>
<circle cx="5059.75" cy="970.195" r="4" stroke="rgb(199,0,255)" stroke-width="2" fill="none"></circle>
<circle cx="2923.76" cy="1978.98" r="4" stroke="rgb(187,255,0)" stroke-width="2" fill="none"></circle>
<circle cx="6535.01" cy="977.458" r="4" stroke="rgb(187,255,0)" stroke-width="2" fill="none"></circle>
<circle cx="1930.61" cy="1592.7" r="4" stroke="rgb(0,59,255)" stroke-width="2" fill="none"></circle>
<circle cx="5447.26" cy="1771.61" r="4" stroke="rgb(0,59,255)" stroke-width="2" fill="none"></circle>
<circle cx="2829.1" cy="2003.53" r="4" stroke="rgb(46,0,255)" stroke-width="2" fill="none"></circle>
<circle cx="6510.19" cy="1016.97" r="4" stroke="rgb(46,0,255)" stroke-width="2" fill="none"></circle>
<circle cx="2434.12" cy="1998.65" r="4" stroke="rgb(0,255,242)" stroke-width="2" fill="none"></circle>
<circle cx="6351.24" cy="1173.99" r="4" stroke="rgb(0,255,242)" stroke-width="2" fill="none"></circle>
<circle cx="1505.55" cy="1287.92" r="4" stroke="rgb(255,0,21)" stroke-width="2" fill="none"></circle>
<circle cx="5337.07" cy="1195.94" r="4" stroke="rgb(255,0,21)" stroke-width="2" fill="none"></circle>
<circle cx="1220.6" cy="1341.84" r="4" stroke="rgb(255,195,0)" stroke-width="2" fill="none"></circle>
<circle cx="5303.09" cy="1096.28" r="4" stroke="rgb(255,195,0)" stroke-width="2" fill="none"></circle>
<circle cx="2906.72" cy="1966.83" r="4" stroke="rgb(25,0,255)" stroke-width="2" fill="none"></circle>
<circle cx="6514.78" cy="982.395" r="4" stroke="rgb(25,0,255)" stroke-width="2" fill="none"></circle>
<circle cx="2778.86" cy="1851.96" r="4" stroke="rgb(255,0,161)" stroke-width="2" fill="none"></circle>
<circle cx="5870.28" cy="1783.55" r="4" stroke="rgb(255,0,161)" stroke-width="2" fill="none"></circle>
<circle cx="3137.03" cy="1210.07" r="4" stroke="rgb(255,0,187)" stroke-width="2" fill="none"></circle>
<circle cx="5402.71" cy="1790.17" r="4" stroke="rgb(255,0,187)" stroke-width="2" fill="none"></circle>
<circle cx="2523.78" cy="1908.5" r="4" stroke="rgb(255,110,0)" stroke-width="2" fill="none"></circle>
<circle cx="5845.06" cy="1880.77" r="4" stroke="rgb(255,110,0)" stroke-width="2" fill="none"></circle>
<circle cx="2218.57" cy="1581.6" r="4" stroke="rgb(34,0,255)" stroke-width="2" fill="none"></circle>
<circle cx="6400.35" cy="897.079" r="4" stroke="rgb(34,0,255)" stroke-width="2" fill="none"></circle>
<circle cx="3098.12" cy="1210.35" r="4" stroke="rgb(165,255,0)" stroke-width="2" fill="none"></circle>
<circle cx="5869.61" cy="1721.28" r="4" stroke="rgb(165,255,0)" stroke-width="2" fill="none"></circle>
</svg>