<?xml version="1.0" standalone="yes"?>
<!-- SVG graphic -->
<svg xmlns='http://www.w3.org/2000/svg' xmlns:xlink='http://www.w3.org/1999/xlink'
width="8064px" height="3024px" preserveAspectRatio="xMinYMin meet" viewBox="0 0 8064 3024" version="1.1">
<image x="0" y="0" width="4032px" height="3024px" opacity="1" xlink:href="/home/jeong/Code/2D-to-3D-Modeling-using-AI/Make3D/Image/20200227_180649.jpg"/>
<image x="4032" y="0" width="4032px" height="3024px" opacity="1" xlink:href="/home/jeong/Code/2D-to-3D-Modeling-using-AI/Make3D/Image/20200227_180659.jpg"/>
<polyline points="2338.42,1121.12,4889.17,2538.05" stroke="rgb(255,204,0)" stroke-width="2" fill="none"></polyline>
<polyline points="1693.7,1059.69,5175.25,1886.85" stroke="rgb(0,25,255)" stroke-width="2" fill="none"></polyline>
<polyline points="1793.22,928.024,5196.73,1899.92" stroke="rgb(0,119,255)" stroke-width="2" fill="none"></polyline>
<polyline points="3007.3,1809.8,5633.17,1900.8" stroke="rgb(161,255,0)" stroke-width="2" fill="none"></polyline>
<polyline points="1966.11,1956.17,5764.6,1420.81" stroke="rgb(110,255,0)" stroke-width="2" fill="none"></polyline>
<polyline points="2668.13,1217.36,5794.89,962.565" stroke="rgb(255,0,8)" stroke-width="2" fill="none"></polyline>
<polyline points="1543.72,1303.08,6276.56,1937.01" stroke="rgb(0,216,255)" stroke-width="2" fill="none"></polyline>
<polyline points="1793.22,928.024,5742.42,1920.43" stroke="rgb(255,0,89)" stroke-width="2" fill="none"></polyline>
<polyline points="1357.86,1330.7,5939.86,1954.21" stroke="rgb(0,29,255)" stroke-width="2" fill="none"></polyline>
<polyline points="1357.86,1330.7,5696.36,1933.95" stroke="rgb(106,255,0)" stroke-width="2" fill="none"></polyline>
<polyline points="1344.97,1750.64,5208.33,1972.9" stroke="rgb(29,255,0)" stroke-width="2" fill="none"></polyline>
<polyline points="1380.99,1970.88,5887.96,1979.86" stroke="rgb(144,0,255)" stroke-width="2" fill="none"></polyline>
<polyline points="1198.53,1222.94,5738.92,1029.55" stroke="rgb(0,255,72)" stroke-width="2" fill="none"></polyline>
<polyline points="1575.65,1243.94,5873.85,1028.84" stroke="rgb(0,0,255)" stroke-width="2" fill="none"></polyline>
<polyline points="1198.53,1222.94,5738.92,1029.55" stroke="rgb(0,255,254)" stroke-width="2" fill="none"></polyline>
<polyline points="1592.06,1358.96,6442.53,1991.96" stroke="rgb(255,0,97)" stroke-width="2" fill="none"></polyline>
<polyline points="2034.42,1956.84,5533.96,2006.58" stroke="rgb(110,0,255)" stroke-width="2" fill="none"></polyline>
<polyline points="1500.88,921.606,5331.1,2020.14" stroke="rgb(246,255,0)" stroke-width="2" fill="none"></polyline>
<polyline points="1793.22,928.024,5948.9,2027.43" stroke="rgb(255,102,0)" stroke-width="2" fill="none"></polyline>
<polyline points="1547.52,1378.86,5078.04,2149.85" stroke="rgb(0,89,255)" stroke-width="2" fill="none"></polyline>
<polyline points="1334.41,1473.83,5018.95,2166.51" stroke="rgb(178,0,255)" stroke-width="2" fill="none"></polyline>
<polyline points="1543.72,1303.08,5924.95,2259.98" stroke="rgb(67,255,0)" stroke-width="2" fill="none"></polyline>
<polyline points="1080.42,1548.09,5189.46,1549.49" stroke="rgb(255,76,0)" stroke-width="2" fill="none"></polyline>
<polyline points="2894.71,2000.84,5755.61,2264.99" stroke="rgb(0,42,255)" stroke-width="2" fill="none"></polyline>
<polyline points="2923.76,1978.98,5057.57,1271.93" stroke="rgb(106,255,0)" stroke-width="2" fill="none"></polyline>
<polyline points="2998.29,1832.69,6614.57,1257.79" stroke="rgb(0,255,131)" stroke-width="2" fill="none"></polyline>
<polyline points="1450.68,1238.81,5235.73,1569.91" stroke="rgb(0,157,255)" stroke-width="2" fill="none"></polyline>
<polyline points="1520.55,2210.72,5883.87,2360.91" stroke="rgb(255,144,0)" stroke-width="2" fill="none"></polyline>
<polyline points="1338.85,1361.78,5003.06,2407.12" stroke="rgb(255,229,0)" stroke-width="2" fill="none"></polyline>
<polyline points="1653.86,1839.22,5580.82,2443.28" stroke="rgb(76,0,255)" stroke-width="2" fill="none"></polyline>
<polyline points="2045.77,1949.03,5482.33,1337.06" stroke="rgb(76,255,0)" stroke-width="2" fill="none"></polyline>
<polyline points="2275.84,1902.46,5392.6,1401.44" stroke="rgb(76,255,0)" stroke-width="2" fill="none"></polyline>
<polyline points="2034.42,1956.84,5872.56,1636.27" stroke="rgb(0,255,55)" stroke-width="2" fill="none"></polyline>
<polyline points="1571.44,2021.41,5460.1,2608.99" stroke="rgb(0,225,255)" stroke-width="2" fill="none"></polyline>
<polyline points="1549.69,981.732,5261.24,1506.78" stroke="rgb(255,242,0)" stroke-width="2" fill="none"></polyline>
<polyline points="2165.36,992.737,5225.92,1724.51" stroke="rgb(0,55,255)" stroke-width="2" fill="none"></polyline>
<polyline points="1848.82,1852.87,5325.68,1751.36" stroke="rgb(0,233,255)" stroke-width="2" fill="none"></polyline>
<polyline points="1714.19,1043.34,5610.19,1968.77" stroke="rgb(25,0,255)" stroke-width="2" fill="none"></polyline>
<polyline points="2034.42,1956.84,5511.38,1634.1" stroke="rgb(174,255,0)" stroke-width="2" fill="none"></polyline>
<polyline points="2034.42,1956.84,6354.85,1836.58" stroke="rgb(255,246,0)" stroke-width="2" fill="none"></polyline>
<polyline points="1662.54,1077.76,5171.27,1854.38" stroke="rgb(0,114,255)" stroke-width="2" fill="none"></polyline>
<polyline points="2836.9,2012.12,5255.92,991.908" stroke="rgb(0,203,255)" stroke-width="2" fill="none"></polyline>
<polyline points="3007.26,1774.66,5883.88,1954.25" stroke="rgb(0,148,255)" stroke-width="2" fill="none"></polyline>
<polyline points="1191.34,1585,5174.52,1967.51" stroke="rgb(0,76,255)" stroke-width="2" fill="none"></polyline>
<polyline points="2712.82,1894.77,5451.01,1771.98" stroke="rgb(203,255,0)" stroke-width="2" fill="none"></polyline>
<polyline points="2712.82,1894.77,5451.68,1789.52" stroke="rgb(72,0,255)" stroke-width="2" fill="none"></polyline>
<polyline points="2045.77,1949.03,6604.96,1988.96" stroke="rgb(0,174,255)" stroke-width="2" fill="none"></polyline>
<polyline points="1802.79,1048.51,5451.87,2128.88" stroke="rgb(255,0,93)" stroke-width="2" fill="none"></polyline>
<polyline points="2836.9,2012.12,5848.98,2172.04" stroke="rgb(255,0,174)" stroke-width="2" fill="none"></polyline>
<polyline points="2906.72,1966.83,6563.46,1313.96" stroke="rgb(106,255,0)" stroke-width="2" fill="none"></polyline>
<polyline points="2434.12,1998.65,6388.6,1585.41" stroke="rgb(216,255,0)" stroke-width="2" fill="none"></polyline>
<polyline points="2712.82,1894.77,6292.4,2374.36" stroke="rgb(25,255,0)" stroke-width="2" fill="none"></polyline>
<polyline points="2829.1,2003.53,6556.88,1355.16" stroke="rgb(0,174,255)" stroke-width="2" fill="none"></polyline>
<polyline points="1220.6,1341.84,5294.1,1438.18" stroke="rgb(140,255,0)" stroke-width="2" fill="none"></polyline>
<circle cx="2338.42" cy="1121.12" r="4" stroke="rgb(255,204,0)" stroke-width="2" fill="none"></circle>
<circle cx="4889.17" cy="2538.05" r="4" stroke="rgb(255,204,0)" stroke-width="2" fill="none"></circle>
<circle cx="1693.7" cy="1059.69" r="4" stroke="rgb(0,25,255)" stroke-width="2" fill="none"></circle>
<circle cx="5175.25" cy="1886.85" r="4" stroke="rgb(0,25,255)" stroke-width="2" fill="none"></circle>
<circle cx="1793.22" cy="928.024" r="4" stroke="rgb(0,119,255)" stroke-width="2" fill="none"></circle>
<circle cx="5196.73" cy="1899.92" r="4" stroke="rgb(0,119,255)" stroke-width="2" fill="none"></circle>
<circle cx="3007.3" cy="1809.8" r="4" stroke="rgb(161,255,0)" stroke-width="2" fill="none"></circle>
<circle cx="5633.17" cy="1900.8" r="4" stroke="rgb(161,255,0)" stroke-width="2" fill="none"></circle>
<circle cx="1966.11" cy="1956.17" r="4" stroke="rgb(110,255,0)" stroke-width="2" fill="none"></circle>
<circle cx="5764.6" cy="1420.81" r="4" stroke="rgb(110,255,0)" stroke-width="2" fill="none"></circle>
<circle cx="2668.13" cy="1217.36" r="4" stroke="rgb(255,0,8)" stroke-width="2" fill="none"></circle>
<circle cx="5794.89" cy="962.565" r="4" stroke="rgb(255,0,8)" stroke-width="2" fill="none"></circle>
<circle cx="1543.72" cy="1303.08" r="4" stroke="rgb(0,216,255)" stroke-width="2" fill="none"></circle>
<circle cx="6276.56" cy="1937.01" r="4" stroke="rgb(0,216,255)" stroke-width="2" fill="none"></circle>
<circle cx="1793.22" cy="928.024" r="4" stroke="rgb(255,0,89)" stroke-width="2" fill="none"></circle>
<circle cx="5742.42" cy="1920.43" r="4" stroke="rgb(255,0,89)" stroke-width="2" fill="none"></circle>
<circle cx="1357.86" cy="1330.7" r="4" stroke="rgb(0,29,255)" stroke-width="2" fill="none"></circle>
<circle cx="5939.86" cy="1954.21" r="4" stroke="rgb(0,29,255)" stroke-width="2" fill="none"></circle>
<circle cx="1357.86" cy="1330.7" r="4" stroke="rgb(106,255,0)" stroke-width="2" fill="none"></circle>
<circle cx="5696.36" cy="1933.95" r="4" stroke="rgb(106,255,0)" stroke-width="2" fill="none"></circle>
<circle cx="1344.97" cy="1750.64" r="4" stroke="rgb(29,255,0)" stroke-width="2" fill="none"></circle>
<circle cx="5208.33" cy="1972.9" r="4" stroke="rgb(29,255,0)" stroke-width="2" fill="none"></circle>
<circle cx="1380.99" cy="1970.88" r="4" stroke="rgb(144,0,255)" stroke-width="2" fill="none"></circle>
<circle cx="5887.96" cy="1979.86" r="4" stroke="rgb(144,0,255)" stroke-width="2" fill="none"></circle>
<circle cx="1198.53" cy="1222.94" r="4" stroke="rgb(0,255,72)" stroke-width="2" fill="none"></circle>
<circle cx="5738.92" cy="1029.55" r="4" stroke="rgb(0,255,72)" stroke-width="2" fill="none"></circle>
<circle cx="1575.65" cy="1243.94" r="4" stroke="rgb(0,0,255)" stroke-width="2" fill="none"></circle>
<circle cx="5873.85" cy="1028.84" r="4" stroke="rgb(0,0,255)" stroke-width="2" fill="none"></circle>
<circle cx="1198.53" cy="1222.94" r="4" stroke="rgb(0,255,254)" stroke-width="2" fill="none"></circle>
<circle cx="5738.92" cy="1029.55" r="4" stroke="rgb(0,255,254)" stroke-width="2" fill="none"></circle>
<circle cx="1592.06" cy="1358.96" r="4" stroke="rgb(255,0,97)" stroke-width="2" fill="none"></circle>
<circle cx="6442.53" cy="1991.96" r="4" stroke="rgb(255,0,97)" stroke-width="2" fill="none"></circle>
<circle cx="2034.42" cy="1956.84" r="4" stroke="rgb(110,0,255)" stroke-width="2" fill="none"></circle>
<circle cx="5533.96" cy="2006.58" r="4" stroke="rgb(110,0,255)" stroke-width="2" fill="none"></circle>
<circle cx="1500.88" cy="921.606" r="4" stroke="rgb(246,255,0)" stroke-width="2" fill="none"></circle>
<circle cx="5331.1" cy="2020.14" r="4" stroke="rgb(246,255,0)" stroke-width="2" fill="none"></circle>
<circle cx="1793.22" cy="928.024" r="4" stroke="rgb(255,102,0)" stroke-width="2" fill="none"></circle>
<circle cx="5948.9" cy="2027.43" r="4" stroke="rgb(255,102,0)" stroke-width="2" fill="none"></circle>
<circle cx="1547.52" cy="1378.86" r="4" stroke="rgb(0,89,255)" stroke-width="2" fill="none"></circle>
<circle cx="5078.04" cy="2149.85" r="4" stroke="rgb(0,89,255)" stroke-width="2" fill="none"></circle>
<circle cx="1334.41" cy="1473.83" r="4" stroke="rgb(178,0,255)" stroke-width="2" fill="none"></circle>
<circle cx="5018.95" cy="2166.51" r="4" stroke="rgb(178,0,255)" stroke-width="2" fill="none"></circle>
<circle cx="1543.72" cy="1303.08" r="4" stroke="rgb(67,255,0)" stroke-width="2" fill="none"></circle>
<circle cx="5924.95" cy="2259.98" r="4" stroke="rgb(67,255,0)" stroke-width="2" fill="none"></circle>
<circle cx="1080.42" cy="1548.09" r="4" stroke="rgb(255,76,0)" stroke-width="2" fill="none"></circle>
<circle cx="5189.46" cy="1549.49" r="4" stroke="rgb(255,76,0)" stroke-width="2" fill="none"></circle>
<circle cx="2894.71" cy="2000.84" r="4" stroke="rgb(0,42,255)" stroke-width="2" fill="none"></circle>
<circle cx="5755.61" cy="2264.99" r="4" stroke="rgb(0,42,255)" stroke-width="2" fill="none"></circle>
<circle cx="2923.76" cy="1978.98" r="4" stroke="rgb(106,255,0)" stroke-width="2" fill="none"></circle>
<circle cx="5057.57" cy="1271.93" r="4" stroke="rgb(106,255,0)" stroke-width="2" fill="none"></circle>
<circle cx="2998.29" cy="1832.69" r="4" stroke="rgb(0,255,131)" stroke-width="2" fill="none"></circle>
<circle cx="6614.57" cy="1257.79" r="4" stroke="rgb(0,255,131)" stroke-width="2" fill="none"></circle>
<circle cx="1450.68" cy="1238.81" r="4" stroke="rgb(0,157,255)" stroke-width="2" fill="none"></circle>
<circle cx="5235.73" cy="1569.91" r="4" stroke="rgb(0,157,255)" stroke-width="2" fill="none"></circle>
<circle cx="1520.55" cy="2210.72" r="4" stroke="rgb(255,144,0)" stroke-width="2" fill="none"></circle>
<circle cx="5883.87" cy="2360.91" r="4" stroke="rgb(255,144,0)" stroke-width="2" fill="none"></circle>
<circle cx="1338.85" cy="1361.78" r="4" stroke="rgb(255,229,0)" stroke-width="2" fill="none"></circle>
<circle cx="5003.06" cy="2407.12" r="4" stroke="rgb(255,229,0)" stroke-width="2" fill="none"></circle>
<circle cx="1653.86" cy="1839.22" r="4" stroke="rgb(76,0,255)" stroke-width="2" fill="none"></circle>
<circle cx="5580.82" cy="2443.28" r="4" stroke="rgb(76,0,255)" stroke-width="2" fill="none"></circle>
<circle cx="2045.77" cy="1949.03" r="4" stroke="rgb(76,255,0)" stroke-width="2" fill="none"></circle>
<circle cx="5482.33" cy="1337.06" r="4" stroke="rgb(76,255,0)" stroke-width="2" fill="none"></circle>
<circle cx="2275.84" cy="1902.46" r="4" stroke="rgb(76,255,0)" stroke-width="2" fill="none"></circle>
<circle cx="5392.6" cy="1401.44" r="4" stroke="rgb(76,255,0)" stroke-width="2" fill="none"></circle>
<circle cx="2034.42" cy="1956.84" r="4" stroke="rgb(0,255,55)" stroke-width="2" fill="none"></circle>
<circle cx="5872.56" cy="1636.27" r="4" stroke="rgb(0,255,55)" stroke-width="2" fill="none"></circle>
<circle cx="1571.44" cy="2021.41" r="4" stroke="rgb(0,225,255)" stroke-width="2" fill="none"></circle>
<circle cx="5460.1" cy="2608.99" r="4" stroke="rgb(0,225,255)" stroke-width="2" fill="none"></circle>
<circle cx="1549.69" cy="981.732" r="4" stroke="rgb(255,242,0)" stroke-width="2" fill="none"></circle>
<circle cx="5261.24" cy="1506.78" r="4" stroke="rgb(255,242,0)" stroke-width="2" fill="none"></circle>
<circle cx="2165.36" cy="992.737" r="4" stroke="rgb(0,55,255)" stroke-width="2" fill="none"></circle>
<circle cx="5225.92" cy="1724.51" r="4" stroke="rgb(0,55,255)" stroke-width="2" fill="none"></circle>
<circle cx="1848.82" cy="1852.87" r="4" stroke="rgb(0,233,255)" stroke-width="2" fill="none"></circle>
<circle cx="5325.68" cy="1751.36" r="4" stroke="rgb(0,233,255)" stroke-width="2" fill="none"></circle>
<circle cx="1714.19" cy="1043.34" r="4" stroke="rgb(25,0,255)" stroke-width="2" fill="none"></circle>
<circle cx="5610.19" cy="1968.77" r="4" stroke="rgb(25,0,255)" stroke-width="2" fill="none"></circle>
<circle cx="2034.42" cy="1956.84" r="4" stroke="rgb(174,255,0)" stroke-width="2" fill="none"></circle>
<circle cx="5511.38" cy="1634.1" r="4" stroke="rgb(174,255,0)" stroke-width="2" fill="none"></circle>
<circle cx="2034.42" cy="1956.84" r="4" stroke="rgb(255,246,0)" stroke-width="2" fill="none"></circle>
<circle cx="6354.85" cy="1836.58" r="4" stroke="rgb(255,246,0)" stroke-width="2" fill="none"></circle>
<circle cx="1662.54" cy="1077.76" r="4" stroke="rgb(0,114,255)" stroke-width="2" fill="none"></circle>
<circle cx="5171.27" cy="1854.38" r="4" stroke="rgb(0,114,255)" stroke-width="2" fill="none"></circle>
<circle cx="2836.9" cy="2012.12" r="4" stroke="rgb(0,203,255)" stroke-width="2" fill="none"></circle>
<circle cx="5255.92" cy="991.908" r="4" stroke="rgb(0,203,255)" stroke-width="2" fill="none"></circle>
<circle cx="3007.26" cy="1774.66" r="4" stroke="rgb(0,148,255)" stroke-width="2" fill="none"></circle>
<circle cx="5883.88" cy="1954.25" r="4" stroke="rgb(0,148,255)" stroke-width="2" fill="none"></circle>
<circle cx="1191.34" cy="1585" r="4" stroke="rgb(0,76,255)" stroke-width="2" fill="none"></circle>
<circle cx="5174.52" cy="1967.51" r="4" stroke="rgb(0,76,255)" stroke-width="2" fill="none"></circle>
<circle cx="2712.82" cy="1894.77" r="4" stroke="rgb(203,255,0)" stroke-width="2" fill="none"></circle>
<circle cx="5451.01" cy="1771.98" r="4" stroke="rgb(203,255,0)" stroke-width="2" fill="none"></circle>
<circle cx="2712.82" cy="1894.77" r="4" stroke="rgb(72,0,255)" stroke-width="2" fill="none"></circle>
<circle cx="5451.68" cy="1789.52" r="4" stroke="rgb(72,0,255)" stroke-width="2" fill="none"></circle>
<circle cx="2045.77" cy="1949.03" r="4" stroke="rgb(0,174,255)" stroke-width="2" fill="none"></circle>
<circle cx="6604.96" cy="1988.96" r="4" stroke="rgb(0,174,255)" stroke-width="2" fill="none"></circle>
<circle cx="1802.79" cy="1048.51" r="4" stroke="rgb(255,0,93)" stroke-width="2" fill="none"></circle>
<circle cx="5451.87" cy="2128.88" r="4" stroke="rgb(255,0,93)" stroke-width="2" fill="none"></circle>
<circle cx="2836.9" cy="2012.12" r="4" stroke="rgb(255,0,174)" stroke-width="2" fill="none"></circle>
<circle cx="5848.98" cy="2172.04" r="4" stroke="rgb(255,0,174)" stroke-width="2" fill="none"></circle>
<circle cx="2906.72" cy="1966.83" r="4" stroke="rgb(106,255,0)" stroke-width="2" fill="none"></circle>
<circle cx="6563.46" cy="1313.96" r="4" stroke="rgb(106,255,0)" stroke-width="2" fill="none"></circle>
<circle cx="2434.12" cy="1998.65" r="4" stroke="rgb(216,255,0)" stroke-width="2" fill="none"></circle>
<circle cx="6388.6" cy="1585.41" r="4" stroke="rgb(216,255,0)" stroke-width="2" fill="none"></circle>
<circle cx="2712.82" cy="1894.77" r="4" stroke="rgb(25,255,0)" stroke-width="2" fill="none"></circle>
<circle cx="6292.4" cy="2374.36" r="4" stroke="rgb(25,255,0)" stroke-width="2" fill="none"></circle>
<circle cx="2829.1" cy="2003.53" r="4" stroke="rgb(0,174,255)" stroke-width="2" fill="none"></circle>
<circle cx="6556.88" cy="1355.16" r="4" stroke="rgb(0,174,255)" stroke-width="2" fill="none"></circle>
<circle cx="1220.6" cy="1341.84" r="4" stroke="rgb(140,255,0)" stroke-width="2" fill="none"></circle>
<circle cx="5294.1" cy="1438.18" r="4" stroke="rgb(140,255,0)" stroke-width="2" fill="none"></circle>
</svg>