<?xml version="1.0" standalone="yes"?>
<!-- SVG graphic -->
<svg xmlns='http://www.w3.org/2000/svg' xmlns:xlink='http://www.w3.org/1999/xlink'
width="8064px" height="3024px" preserveAspectRatio="xMinYMin meet" viewBox="0 0 8064 3024" version="1.1">
<image x="0" y="0" width="4032px" height="3024px" opacity="1" xlink:href="/home/jeong/Code/2D-to-3D-Modeling-using-AI/Make3D/Image/20200227_180649.jpg"/>
<image x="4032" y="0" width="4032px" height="3024px" opacity="1" xlink:href="/home/jeong/Code/2D-to-3D-Modeling-using-AI/Make3D/Image/20200227_180732.jpg"/>
<polyline points="2718.55,842.323,6726.9,2549.95" stroke="rgb(255,0,110)" stroke-width="2" fill="none"></polyline>
<polyline points="1701.99,854.731,6120.03,2055.12" stroke="rgb(0,38,255)" stroke-width="2" fill="none"></polyline>
<polyline points="2445.84,910.767,5934.51,2455.4" stroke="rgb(0,17,255)" stroke-width="2" fill="none"></polyline>
<polyline points="2749.95,915.065,5904.28,2328" stroke="rgb(0,255,106)" stroke-width="2" fill="none"></polyline>
<polyline points="1760.38,921.956,6970.14,1925.55" stroke="rgb(0,0,255)" stroke-width="2" fill="none"></polyline>
<polyline points="1793.22,928.024,6630.03,1512.27" stroke="rgb(255,0,8)" stroke-width="2" fill="none"></polyline>
<polyline points="2169.73,928.452,5883.64,1933.99" stroke="rgb(8,255,0)" stroke-width="2" fill="none"></polyline>
<polyline points="1818.95,935.204,6085.94,1301.71" stroke="rgb(255,170,0)" stroke-width="2" fill="none"></polyline>
<polyline points="1864.65,953.125,6595.03,2295.45" stroke="rgb(67,255,0)" stroke-width="2" fill="none"></polyline>
<polyline points="1675.45,953.379,6043.46,2689.72" stroke="rgb(255,0,97)" stroke-width="2" fill="none"></polyline>
<polyline points="2251.47,954.784,5855.06,2672.51" stroke="rgb(0,255,80)" stroke-width="2" fill="none"></polyline>
<polyline points="1417.09,962.916,6472.54,2156.36" stroke="rgb(255,0,33)" stroke-width="2" fill="none"></polyline>
<polyline points="1397.7,974.738,6457.23,1881.1" stroke="rgb(255,242,0)" stroke-width="2" fill="none"></polyline>
<polyline points="2145.88,993.511,6092.02,1346.98" stroke="rgb(0,67,255)" stroke-width="2" fill="none"></polyline>
<polyline points="1595.83,995.578,6797.03,2701.84" stroke="rgb(255,0,8)" stroke-width="2" fill="none"></polyline>
<polyline points="1576.27,997.322,6032.58,2232.58" stroke="rgb(255,148,0)" stroke-width="2" fill="none"></polyline>
<polyline points="2382.26,998.376,6423.24,1487.89" stroke="rgb(0,255,50)" stroke-width="2" fill="none"></polyline>
<polyline points="2361.68,1001.42,5871.09,1840.45" stroke="rgb(0,255,16)" stroke-width="2" fill="none"></polyline>
<polyline points="1627.41,1004.97,6324.66,1865.51" stroke="rgb(0,255,157)" stroke-width="2" fill="none"></polyline>
<polyline points="1434.84,1005.5,6404.61,1540.41" stroke="rgb(165,0,255)" stroke-width="2" fill="none"></polyline>
<polyline points="1617.2,1007.51,6430.43,2068.99" stroke="rgb(135,255,0)" stroke-width="2" fill="none"></polyline>
<polyline points="2251.84,1009.03,6907.98,2412.75" stroke="rgb(255,0,97)" stroke-width="2" fill="none"></polyline>
<polyline points="1601.59,1012.62,6449.79,1958.44" stroke="rgb(85,0,255)" stroke-width="2" fill="none"></polyline>
<polyline points="1454.53,1020.68,6024.95,2603.14" stroke="rgb(46,0,255)" stroke-width="2" fill="none"></polyline>
<polyline points="1881.2,1031.12,6495.95,1344.39" stroke="rgb(67,0,255)" stroke-width="2" fill="none"></polyline>
<polyline points="1910.36,1033.09,6510.95,2679.17" stroke="rgb(46,0,255)" stroke-width="2" fill="none"></polyline>
<polyline points="1738.97,1034.82,6419.34,1944.73" stroke="rgb(0,174,255)" stroke-width="2" fill="none"></polyline>
<polyline points="1819.6,1040.96,6689.52,1642.08" stroke="rgb(255,0,59)" stroke-width="2" fill="none"></polyline>
<polyline points="1610.78,1041.11,5895.6,2615.44" stroke="rgb(255,68,0)" stroke-width="2" fill="none"></polyline>
<polyline points="1714.19,1043.34,6450.51,2150.37" stroke="rgb(12,0,255)" stroke-width="2" fill="none"></polyline>
<polyline points="2128.79,1044.77,6179.49,1437.91" stroke="rgb(255,0,178)" stroke-width="2" fill="none"></polyline>
<polyline points="2273.84,1046.06,6331.44,1626.57" stroke="rgb(0,76,255)" stroke-width="2" fill="none"></polyline>
<polyline points="1802.79,1048.51,6333.14,1595.25" stroke="rgb(255,0,59)" stroke-width="2" fill="none"></polyline>
<polyline points="1618.76,1049.32,6147.04,1464.84" stroke="rgb(229,255,0)" stroke-width="2" fill="none"></polyline>
<polyline points="2295.91,1051.66,6328.1,1634.63" stroke="rgb(0,0,255)" stroke-width="2" fill="none"></polyline>
<polyline points="1480.18,1057.9,6376.63,1789.9" stroke="rgb(0,59,255)" stroke-width="2" fill="none"></polyline>
<polyline points="1367.18,1058.46,5995.85,1113.39" stroke="rgb(233,255,0)" stroke-width="2" fill="none"></polyline>
<polyline points="1471.67,1062.27,6004.93,2092.05" stroke="rgb(255,0,8)" stroke-width="2" fill="none"></polyline>
<polyline points="2219.2,1076.07,6552.44,2639.83" stroke="rgb(110,0,255)" stroke-width="2" fill="none"></polyline>
<polyline points="1548.52,1109.89,5875.88,1834" stroke="rgb(0,255,208)" stroke-width="2" fill="none"></polyline>
<polyline points="1854.77,1111.44,6120.03,1320.26" stroke="rgb(0,140,255)" stroke-width="2" fill="none"></polyline>
<polyline points="1567.79,1127.87,6335.78,1610.77" stroke="rgb(157,0,255)" stroke-width="2" fill="none"></polyline>
<polyline points="1734.02,1129.69,6334.44,2004.74" stroke="rgb(255,140,0)" stroke-width="2" fill="none"></polyline>
<polyline points="1606.07,1132.89,6444.53,1696.16" stroke="rgb(102,0,255)" stroke-width="2" fill="none"></polyline>
<polyline points="1592.75,1134.87,6390.71,1636.38" stroke="rgb(0,255,93)" stroke-width="2" fill="none"></polyline>
<polyline points="1755.41,1134.93,6444.99,1681.24" stroke="rgb(255,131,0)" stroke-width="2" fill="none"></polyline>
<polyline points="1664.94,1140.92,6415.14,2402.07" stroke="rgb(250,0,255)" stroke-width="2" fill="none"></polyline>
<polyline points="1662.55,1151.47,5812.28,2584.44" stroke="rgb(0,255,110)" stroke-width="2" fill="none"></polyline>
<polyline points="2647.21,1170.57,6829.04,2167.47" stroke="rgb(255,119,0)" stroke-width="2" fill="none"></polyline>
<polyline points="2138.47,1202.8,6646.25,2748.25" stroke="rgb(101,255,0)" stroke-width="2" fill="none"></polyline>
<polyline points="2717.9,1209.66,5806.29,2023.05" stroke="rgb(242,0,255)" stroke-width="2" fill="none"></polyline>
<polyline points="3098.12,1210.35,6664.6,2667.24" stroke="rgb(16,255,0)" stroke-width="2" fill="none"></polyline>
<polyline points="2614.42,1213.86,6313.04,1714.78" stroke="rgb(255,0,229)" stroke-width="2" fill="none"></polyline>
<polyline points="1997.46,1222.61,6113.5,1941.54" stroke="rgb(0,182,255)" stroke-width="2" fill="none"></polyline>
<polyline points="1450.68,1238.81,5997.63,1327.03" stroke="rgb(0,0,255)" stroke-width="2" fill="none"></polyline>
<polyline points="1633.36,1240.96,6070.62,2241.76" stroke="rgb(0,161,255)" stroke-width="2" fill="none"></polyline>
<polyline points="1413.23,1250.48,5660.95,1478.59" stroke="rgb(131,255,0)" stroke-width="2" fill="none"></polyline>
<polyline points="3120.68,1252.73,6915.93,2100.52" stroke="rgb(174,255,0)" stroke-width="2" fill="none"></polyline>
<polyline points="2700.82,1253.2,6655.75,2666.09" stroke="rgb(255,255,0)" stroke-width="2" fill="none"></polyline>
<polyline points="1444.77,1261.97,6174.95,1700.5" stroke="rgb(255,0,97)" stroke-width="2" fill="none"></polyline>
<polyline points="2187.29,1269.29,6314.66,1016.42" stroke="rgb(0,195,255)" stroke-width="2" fill="none"></polyline>
<polyline points="3014.66,1271.33,6337.24,1811.38" stroke="rgb(255,76,0)" stroke-width="2" fill="none"></polyline>
<polyline points="1305.81,1286.13,6178.22,2373.75" stroke="rgb(0,169,255)" stroke-width="2" fill="none"></polyline>
<polyline points="2753.96,1292.25,5883.92,1805.3" stroke="rgb(0,255,254)" stroke-width="2" fill="none"></polyline>
<polyline points="3071.67,1292.94,5869.78,2599.51" stroke="rgb(255,0,182)" stroke-width="2" fill="none"></polyline>
<polyline points="1543.72,1303.08,6597.52,1796.61" stroke="rgb(169,255,0)" stroke-width="2" fill="none"></polyline>
<polyline points="1668.94,1308.02,5918.31,2474.58" stroke="rgb(161,0,255)" stroke-width="2" fill="none"></polyline>
<polyline points="1373.53,1322.7,6857.73,1839.82" stroke="rgb(255,93,0)" stroke-width="2" fill="none"></polyline>
<polyline points="1125.67,1335.26,6053.16,1594.45" stroke="rgb(255,0,212)" stroke-width="2" fill="none"></polyline>
<polyline points="1565.13,1382.05,6356.32,1506.89" stroke="rgb(255,238,0)" stroke-width="2" fill="none"></polyline>
<polyline points="1531.1,1401.74,6528.17,2796.83" stroke="rgb(242,255,0)" stroke-width="2" fill="none"></polyline>
<polyline points="2824.95,1401.8,5819.12,1710.3" stroke="rgb(0,255,157)" stroke-width="2" fill="none"></polyline>
<polyline points="2823.75,1409.99,6383.15,1633.37" stroke="rgb(255,0,110)" stroke-width="2" fill="none"></polyline>
<polyline points="1524.35,1437.02,6358,2194.61" stroke="rgb(97,255,0)" stroke-width="2" fill="none"></polyline>
<polyline points="1522.32,1448.68,5897.52,2497.4" stroke="rgb(250,255,0)" stroke-width="2" fill="none"></polyline>
<polyline points="1027.46,1494.04,6927.41,2074.03" stroke="rgb(255,0,51)" stroke-width="2" fill="none"></polyline>
<polyline points="1502.55,1506.9,6087.35,2767.43" stroke="rgb(255,0,0)" stroke-width="2" fill="none"></polyline>
<polyline points="2238.69,1527.17,6840.03,1298.66" stroke="rgb(0,33,255)" stroke-width="2" fill="none"></polyline>
<polyline points="1473.48,1534.48,6405.86,1576.99" stroke="rgb(255,25,0)" stroke-width="2" fill="none"></polyline>
<polyline points="1475.7,1535.46,6353.35,1993.61" stroke="rgb(255,119,0)" stroke-width="2" fill="none"></polyline>
<polyline points="1076.86,1552.61,6755.95,1595.09" stroke="rgb(255,0,131)" stroke-width="2" fill="none"></polyline>
<polyline points="1930.61,1592.7,5892.22,2460.55" stroke="rgb(255,0,237)" stroke-width="2" fill="none"></polyline>
<polyline points="3422.12,1608.45,5891.52,1894.11" stroke="rgb(255,72,0)" stroke-width="2" fill="none"></polyline>
<polyline points="1243.6,1615.82,5950.17,1138.26" stroke="rgb(0,255,114)" stroke-width="2" fill="none"></polyline>
<polyline points="1346.05,1757.78,5689.24,1514.29" stroke="rgb(0,255,89)" stroke-width="2" fill="none"></polyline>
<polyline points="2016.74,1782.4,6724.8,1430.88" stroke="rgb(72,0,255)" stroke-width="2" fill="none"></polyline>
<polyline points="2768.7,1830.59,6699.73,2722.92" stroke="rgb(0,80,255)" stroke-width="2" fill="none"></polyline>
<polyline points="2025.13,1833.8,5851.38,2560.5" stroke="rgb(76,255,0)" stroke-width="2" fill="none"></polyline>
<polyline points="1939.9,1834.22,6845.53,1294.92" stroke="rgb(0,135,255)" stroke-width="2" fill="none"></polyline>
<polyline points="1977.76,1836.01,6735.16,2534.71" stroke="rgb(174,0,255)" stroke-width="2" fill="none"></polyline>
<polyline points="1969.93,1836.56,6767.43,1573.34" stroke="rgb(169,255,0)" stroke-width="2" fill="none"></polyline>
<polyline points="1897.13,1837.77,5993.5,1894.76" stroke="rgb(148,0,255)" stroke-width="2" fill="none"></polyline>
<polyline points="1986.22,1838.78,5811.43,1904.89" stroke="rgb(0,255,216)" stroke-width="2" fill="none"></polyline>
<polyline points="1653.86,1839.22,5972.13,2189.91" stroke="rgb(170,0,255)" stroke-width="2" fill="none"></polyline>
<polyline points="1872.93,1850.06,6423.94,1982.05" stroke="rgb(106,255,0)" stroke-width="2" fill="none"></polyline>
<polyline points="2778.86,1851.96,6436.92,1116.29" stroke="rgb(0,255,33)" stroke-width="2" fill="none"></polyline>
<polyline points="2039.36,1859.88,6143.75,2875.85" stroke="rgb(0,33,255)" stroke-width="2" fill="none"></polyline>
<polyline points="2782.17,1860.51,6709.03,2695.41" stroke="rgb(25,0,255)" stroke-width="2" fill="none"></polyline>
<polyline points="1846.12,1861.83,6540.88,2790.15" stroke="rgb(255,93,0)" stroke-width="2" fill="none"></polyline>
<polyline points="1588.98,1874.42,6376.88,1990.65" stroke="rgb(0,246,255)" stroke-width="2" fill="none"></polyline>
<polyline points="2663.62,1878.57,6825.28,2560.46" stroke="rgb(255,0,246)" stroke-width="2" fill="none"></polyline>
<polyline points="1937.42,1889.83,5899.62,2310.96" stroke="rgb(144,255,0)" stroke-width="2" fill="none"></polyline>
<polyline points="2712.82,1894.77,6350.21,1048.24" stroke="rgb(255,0,89)" stroke-width="2" fill="none"></polyline>
<polyline points="1992.05,1894.82,5960.93,2346.63" stroke="rgb(0,255,118)" stroke-width="2" fill="none"></polyline>
<polyline points="2629.25,1896.61,6652.57,1339.42" stroke="rgb(255,233,0)" stroke-width="2" fill="none"></polyline>
<polyline points="2512.91,1897.19,6757.04,2552.51" stroke="rgb(135,0,255)" stroke-width="2" fill="none"></polyline>
<polyline points="1940.3,1898.22,5905,2159.87" stroke="rgb(0,255,67)" stroke-width="2" fill="none"></polyline>
<polyline points="2537.67,1900.57,6631.98,1306.27" stroke="rgb(255,233,0)" stroke-width="2" fill="none"></polyline>
<polyline points="2516.56,1901.74,5964.1,2236.52" stroke="rgb(0,255,101)" stroke-width="2" fill="none"></polyline>
<polyline points="2275.84,1902.46,6325.32,1960.21" stroke="rgb(255,63,0)" stroke-width="2" fill="none"></polyline>
<polyline points="2489.98,1902.61,5847.27,2303.37" stroke="rgb(153,255,0)" stroke-width="2" fill="none"></polyline>
<polyline points="1711.54,1904.8,6521.3,1420.08" stroke="rgb(255,0,63)" stroke-width="2" fill="none"></polyline>
<polyline points="2577.34,1905.86,5910.67,1714.95" stroke="rgb(255,0,174)" stroke-width="2" fill="none"></polyline>
<polyline points="2617.76,1909.87,5956.96,1019.97" stroke="rgb(255,0,114)" stroke-width="2" fill="none"></polyline>
<polyline points="2312.64,1919.87,6636.15,1312.51" stroke="rgb(255,17,0)" stroke-width="2" fill="none"></polyline>
<polyline points="2422.36,1920.17,5925.99,2372.2" stroke="rgb(255,0,119)" stroke-width="2" fill="none"></polyline>
<polyline points="2197.29,1936.79,6475.19,1168.2" stroke="rgb(76,255,0)" stroke-width="2" fill="none"></polyline>
<polyline points="2439.23,1941.32,6933.88,2122.7" stroke="rgb(0,63,255)" stroke-width="2" fill="none"></polyline>
<polyline points="1916.56,1942.55,5907.45,2631.94" stroke="rgb(191,255,0)" stroke-width="2" fill="none"></polyline>
<polyline points="1898.11,1942.94,6872.57,1309.42" stroke="rgb(255,0,212)" stroke-width="2" fill="none"></polyline>
<polyline points="2017.32,1943.14,5861.81,2096.09" stroke="rgb(0,255,110)" stroke-width="2" fill="none"></polyline>
<polyline points="2007.42,1954.83,6766.6,2585.7" stroke="rgb(255,114,0)" stroke-width="2" fill="none"></polyline>
<polyline points="1966.11,1956.17,5891.56,2408.53" stroke="rgb(0,63,255)" stroke-width="2" fill="none"></polyline>
<polyline points="2034.42,1956.84,5896.03,2383.34" stroke="rgb(0,212,255)" stroke-width="2" fill="none"></polyline>
<polyline points="2051.9,1957.22,5879.6,2573.73" stroke="rgb(0,255,250)" stroke-width="2" fill="none"></polyline>
<polyline points="1948.89,1970.14,6373.37,1778.76" stroke="rgb(0,199,255)" stroke-width="2" fill="none"></polyline>
<polyline points="2679.57,1992.9,6080.83,1403.61" stroke="rgb(0,212,255)" stroke-width="2" fill="none"></polyline>
<polyline points="2472.91,1994.99,6234.35,2102.65" stroke="rgb(255,216,0)" stroke-width="2" fill="none"></polyline>
<polyline points="2457.56,1998.78,6102.8,1902.85" stroke="rgb(255,0,208)" stroke-width="2" fill="none"></polyline>
<polyline points="2894.71,2000.84,6601.3,1285.56" stroke="rgb(0,114,255)" stroke-width="2" fill="none"></polyline>
<polyline points="2829.1,2003.53,6820.04,2150.17" stroke="rgb(63,255,0)" stroke-width="2" fill="none"></polyline>
<polyline points="2878.84,2013.63,6698.27,2613.76" stroke="rgb(55,0,255)" stroke-width="2" fill="none"></polyline>
<polyline points="2977.51,2016.67,5791.95,1110" stroke="rgb(0,255,216)" stroke-width="2" fill="none"></polyline>
<polyline points="1563.75,2023.5,6568.48,1209.69" stroke="rgb(255,0,187)" stroke-width="2" fill="none"></polyline>
<polyline points="2560.96,2059.59,6446.06,1431.18" stroke="rgb(255,178,0)" stroke-width="2" fill="none"></polyline>
<polyline points="1773.99,2203.12,6596.27,1227.7" stroke="rgb(0,59,255)" stroke-width="2" fill="none"></polyline>
<polyline points="1628.53,2209.61,5740.88,1419.73" stroke="rgb(0,51,255)" stroke-width="2" fill="none"></polyline>
<polyline points="1520.55,2210.72,5987.81,1459.84" stroke="rgb(255,212,0)" stroke-width="2" fill="none"></polyline>
<polyline points="1641.12,2221.68,6423.82,1737.41" stroke="rgb(174,0,255)" stroke-width="2" fill="none"></polyline>
<circle cx="2718.55" cy="842.323" r="4" stroke="rgb(255,0,110)" stroke-width="2" fill="none"></circle>
<circle cx="6726.9" cy="2549.95" r="4" stroke="rgb(255,0,110)" stroke-width="2" fill="none"></circle>
<circle cx="1701.99" cy="854.731" r="4" stroke="rgb(0,38,255)" stroke-width="2" fill="none"></circle>
<circle cx="6120.03" cy="2055.12" r="4" stroke="rgb(0,38,255)" stroke-width="2" fill="none"></circle>
<circle cx="2445.84" cy="910.767" r="4" stroke="rgb(0,17,255)" stroke-width="2" fill="none"></circle>
<circle cx="5934.51" cy="2455.4" r="4" stroke="rgb(0,17,255)" stroke-width="2" fill="none"></circle>
<circle cx="2749.95" cy="915.065" r="4" stroke="rgb(0,255,106)" stroke-width="2" fill="none"></circle>
<circle cx="5904.28" cy="2328" r="4" stroke="rgb(0,255,106)" stroke-width="2" fill="none"></circle>
<circle cx="1760.38" cy="921.956" r="4" stroke="rgb(0,0,255)" stroke-width="2" fill="none"></circle>
<circle cx="6970.14" cy="1925.55" r="4" stroke="rgb(0,0,255)" stroke-width="2" fill="none"></circle>
<circle cx="1793.22" cy="928.024" r="4" stroke="rgb(255,0,8)" stroke-width="2" fill="none"></circle>
<circle cx="6630.03" cy="1512.27" r="4" stroke="rgb(255,0,8)" stroke-width="2" fill="none"></circle>
<circle cx="2169.73" cy="928.452" r="4" stroke="rgb(8,255,0)" stroke-width="2" fill="none"></circle>
<circle cx="5883.64" cy="1933.99" r="4" stroke="rgb(8,255,0)" stroke-width="2" fill="none"></circle>
<circle cx="1818.95" cy="935.204" r="4" stroke="rgb(255,170,0)" stroke-width="2" fill="none"></circle>
<circle cx="6085.94" cy="1301.71" r="4" stroke="rgb(255,170,0)" stroke-width="2" fill="none"></circle>
<circle cx="1864.65" cy="953.125" r="4" stroke="rgb(67,255,0)" stroke-width="2" fill="none"></circle>
<circle cx="6595.03" cy="2295.45" r="4" stroke="rgb(67,255,0)" stroke-width="2" fill="none"></circle>
<circle cx="1675.45" cy="953.379" r="4" stroke="rgb(255,0,97)" stroke-width="2" fill="none"></circle>
<circle cx="6043.46" cy="2689.72" r="4" stroke="rgb(255,0,97)" stroke-width="2" fill="none"></circle>
<circle cx="2251.47" cy="954.784" r="4" stroke="rgb(0,255,80)" stroke-width="2" fill="none"></circle>
<circle cx="5855.06" cy="2672.51" r="4" stroke="rgb(0,255,80)" stroke-width="2" fill="none"></circle>
<circle cx="1417.09" cy="962.916" r="4" stroke="rgb(255,0,33)" stroke-width="2" fill="none"></circle>
<circle cx="6472.54" cy="2156.36" r="4" stroke="rgb(255,0,33)" stroke-width="2" fill="none"></circle>
<circle cx="1397.7" cy="974.738" r="4" stroke="rgb(255,242,0)" stroke-width="2" fill="none"></circle>
<circle cx="6457.23" cy="1881.1" r="4" stroke="rgb(255,242,0)" stroke-width="2" fill="none"></circle>
<circle cx="2145.88" cy="993.511" r="4" stroke="rgb(0,67,255)" stroke-width="2" fill="none"></circle>
<circle cx="6092.02" cy="1346.98" r="4" stroke="rgb(0,67,255)" stroke-width="2" fill="none"></circle>
<circle cx="1595.83" cy="995.578" r="4" stroke="rgb(255,0,8)" stroke-width="2" fill="none"></circle>
<circle cx="6797.03" cy="2701.84" r="4" stroke="rgb(255,0,8)" stroke-width="2" fill="none"></circle>
<circle cx="1576.27" cy="997.322" r="4" stroke="rgb(255,148,0)" stroke-width="2" fill="none"></circle>
<circle cx="6032.58" cy="2232.58" r="4" stroke="rgb(255,148,0)" stroke-width="2" fill="none"></circle>
<circle cx="2382.26" cy="998.376" r="4" stroke="rgb(0,255,50)" stroke-width="2" fill="none"></circle>
<circle cx="6423.24" cy="1487.89" r="4" stroke="rgb(0,255,50)" stroke-width="2" fill="none"></circle>
<circle cx="2361.68" cy="1001.42" r="4" stroke="rgb(0,255,16)" stroke-width="2" fill="none"></circle>
<circle cx="5871.09" cy="1840.45" r="4" stroke="rgb(0,255,16)" stroke-width="2" fill="none"></circle>
<circle cx="1627.41" cy="1004.97" r="4" stroke="rgb(0,255,157)" stroke-width="2" fill="none"></circle>
<circle cx="6324.66" cy="1865.51" r="4" stroke="rgb(0,255,157)" stroke-width="2" fill="none"></circle>
<circle cx="1434.84" cy="1005.5" r="4" stroke="rgb(165,0,255)" stroke-width="2" fill="none"></circle>
<circle cx="6404.61" cy="1540.41" r="4" stroke="rgb(165,0,255)" stroke-width="2" fill="none"></circle>
<circle cx="1617.2" cy="1007.51" r="4" stroke="rgb(135,255,0)" stroke-width="2" fill="none"></circle>
<circle cx="6430.43" cy="2068.99" r="4" stroke="rgb(135,255,0)" stroke-width="2" fill="none"></circle>
<circle cx="2251.84" cy="1009.03" r="4" stroke="rgb(255,0,97)" stroke-width="2" fill="none"></circle>
<circle cx="6907.98" cy="2412.75" r="4" stroke="rgb(255,0,97)" stroke-width="2" fill="none"></circle>
<circle cx="1601.59" cy="1012.62" r="4" stroke="rgb(85,0,255)" stroke-width="2" fill="none"></circle>
<circle cx="6449.79" cy="1958.44" r="4" stroke="rgb(85,0,255)" stroke-width="2" fill="none"></circle>
<circle cx="1454.53" cy="1020.68" r="4" stroke="rgb(46,0,255)" stroke-width="2" fill="none"></circle>
<circle cx="6024.95" cy="2603.14" r="4" stroke="rgb(46,0,255)" stroke-width="2" fill="none"></circle>
<circle cx="1881.2" cy="1031.12" r="4" stroke="rgb(67,0,255)" stroke-width="2" fill="none"></circle>
<circle cx="6495.95" cy="1344.39" r="4" stroke="rgb(67,0,255)" stroke-width="2" fill="none"></circle>
<circle cx="1910.36" cy="1033.09" r="4" stroke="rgb(46,0,255)" stroke-width="2" fill="none"></circle>
<circle cx="6510.95" cy="2679.17" r="4" stroke="rgb(46,0,255)" stroke-width="2" fill="none"></circle>
<circle cx="1738.97" cy="1034.82" r="4" stroke="rgb(0,174,255)" stroke-width="2" fill="none"></circle>
<circle cx="6419.34" cy="1944.73" r="4" stroke="rgb(0,174,255)" stroke-width="2" fill="none"></circle>
<circle cx="1819.6" cy="1040.96" r="4" stroke="rgb(255,0,59)" stroke-width="2" fill="none"></circle>
<circle cx="6689.52" cy="1642.08" r="4" stroke="rgb(255,0,59)" stroke-width="2" fill="none"></circle>
<circle cx="1610.78" cy="1041.11" r="4" stroke="rgb(255,68,0)" stroke-width="2" fill="none"></circle>
<circle cx="5895.6" cy="2615.44" r="4" stroke="rgb(255,68,0)" stroke-width="2" fill="none"></circle>
<circle cx="1714.19" cy="1043.34" r="4" stroke="rgb(12,0,255)" stroke-width="2" fill="none"></circle>
<circle cx="6450.51" cy="2150.37" r="4" stroke="rgb(12,0,255)" stroke-width="2" fill="none"></circle>
<circle cx="2128.79" cy="1044.77" r="4" stroke="rgb(255,0,178)" stroke-width="2" fill="none"></circle>
<circle cx="6179.49" cy="1437.91" r="4" stroke="rgb(255,0,178)" stroke-width="2" fill="none"></circle>
<circle cx="2273.84" cy="1046.06" r="4" stroke="rgb(0,76,255)" stroke-width="2" fill="none"></circle>
<circle cx="6331.44" cy="1626.57" r="4" stroke="rgb(0,76,255)" stroke-width="2" fill="none"></circle>
<circle cx="1802.79" cy="1048.51" r="4" stroke="rgb(255,0,59)" stroke-width="2" fill="none"></circle>
<circle cx="6333.14" cy="1595.25" r="4" stroke="rgb(255,0,59)" stroke-width="2" fill="none"></circle>
<circle cx="1618.76" cy="1049.32" r="4" stroke="rgb(229,255,0)" stroke-width="2" fill="none"></circle>
<circle cx="6147.04" cy="1464.84" r="4" stroke="rgb(229,255,0)" stroke-width="2" fill="none"></circle>
<circle cx="2295.91" cy="1051.66" r="4" stroke="rgb(0,0,255)" stroke-width="2" fill="none"></circle>
<circle cx="6328.1" cy="1634.63" r="4" stroke="rgb(0,0,255)" stroke-width="2" fill="none"></circle>
<circle cx="1480.18" cy="1057.9" r="4" stroke="rgb(0,59,255)" stroke-width="2" fill="none"></circle>
<circle cx="6376.63" cy="1789.9" r="4" stroke="rgb(0,59,255)" stroke-width="2" fill="none"></circle>
<circle cx="1367.18" cy="1058.46" r="4" stroke="rgb(233,255,0)" stroke-width="2" fill="none"></circle>
<circle cx="5995.85" cy="1113.39" r="4" stroke="rgb(233,255,0)" stroke-width="2" fill="none"></circle>
<circle cx="1471.67" cy="1062.27" r="4" stroke="rgb(255,0,8)" stroke-width="2" fill="none"></circle>
<circle cx="6004.93" cy="2092.05" r="4" stroke="rgb(255,0,8)" stroke-width="2" fill="none"></circle>
<circle cx="2219.2" cy="1076.07" r="4" stroke="rgb(110,0,255)" stroke-width="2" fill="none"></circle>
<circle cx="6552.44" cy="2639.83" r="4" stroke="rgb(110,0,255)" stroke-width="2" fill="none"></circle>
<circle cx="1548.52" cy="1109.89" r="4" stroke="rgb(0,255,208)" stroke-width="2" fill="none"></circle>
<circle cx="5875.88" cy="1834" r="4" stroke="rgb(0,255,208)" stroke-width="2" fill="none"></circle>
<circle cx="1854.77" cy="1111.44" r="4" stroke="rgb(0,140,255)" stroke-width="2" fill="none"></circle>
<circle cx="6120.03" cy="1320.26" r="4" stroke="rgb(0,140,255)" stroke-width="2" fill="none"></circle>
<circle cx="1567.79" cy="1127.87" r="4" stroke="rgb(157,0,255)" stroke-width="2" fill="none"></circle>
<circle cx="6335.78" cy="1610.77" r="4" stroke="rgb(157,0,255)" stroke-width="2" fill="none"></circle>
<circle cx="1734.02" cy="1129.69" r="4" stroke="rgb(255,140,0)" stroke-width="2" fill="none"></circle>
<circle cx="6334.44" cy="2004.74" r="4" stroke="rgb(255,140,0)" stroke-width="2" fill="none"></circle>
<circle cx="1606.07" cy="1132.89" r="4" stroke="rgb(102,0,255)" stroke-width="2" fill="none"></circle>
<circle cx="6444.53" cy="1696.16" r="4" stroke="rgb(102,0,255)" stroke-width="2" fill="none"></circle>
<circle cx="1592.75" cy="1134.87" r="4" stroke="rgb(0,255,93)" stroke-width="2" fill="none"></circle>
<circle cx="6390.71" cy="1636.38" r="4" stroke="rgb(0,255,93)" stroke-width="2" fill="none"></circle>
<circle cx="1755.41" cy="1134.93" r="4" stroke="rgb(255,131,0)" stroke-width="2" fill="none"></circle>
<circle cx="6444.99" cy="1681.24" r="4" stroke="rgb(255,131,0)" stroke-width="2" fill="none"></circle>
<circle cx="1664.94" cy="1140.92" r="4" stroke="rgb(250,0,255)" stroke-width="2" fill="none"></circle>
<circle cx="6415.14" cy="2402.07" r="4" stroke="rgb(250,0,255)" stroke-width="2" fill="none"></circle>
<circle cx="1662.55" cy="1151.47" r="4" stroke="rgb(0,255,110)" stroke-width="2" fill="none"></circle>
<circle cx="5812.28" cy="2584.44" r="4" stroke="rgb(0,255,110)" stroke-width="2" fill="none"></circle>
<circle cx="2647.21" cy="1170.57" r="4" stroke="rgb(255,119,0)" stroke-width="2" fill="none"></circle>
<circle cx="6829.04" cy="2167.47" r="4" stroke="rgb(255,119,0)" stroke-width="2" fill="none"></circle>
<circle cx="2138.47" cy="1202.8" r="4" stroke="rgb(101,255,0)" stroke-width="2" fill="none"></circle>
<circle cx="6646.25" cy="2748.25" r="4" stroke="rgb(101,255,0)" stroke-width="2" fill="none"></circle>
<circle cx="2717.9" cy="1209.66" r="4" stroke="rgb(242,0,255)" stroke-width="2" fill="none"></circle>
<circle cx="5806.29" cy="2023.05" r="4" stroke="rgb(242,0,255)" stroke-width="2" fill="none"></circle>
<circle cx="3098.12" cy="1210.35" r="4" stroke="rgb(16,255,0)" stroke-width="2" fill="none"></circle>
<circle cx="6664.6" cy="2667.24" r="4" stroke="rgb(16,255,0)" stroke-width="2" fill="none"></circle>
<circle cx="2614.42" cy="1213.86" r="4" stroke="rgb(255,0,229)" stroke-width="2" fill="none"></circle>
<circle cx="6313.04" cy="1714.78" r="4" stroke="rgb(255,0,229)" stroke-width="2" fill="none"></circle>
<circle cx="1997.46" cy="1222.61" r="4" stroke="rgb(0,182,255)" stroke-width="2" fill="none"></circle>
<circle cx="6113.5" cy="1941.54" r="4" stroke="rgb(0,182,255)" stroke-width="2" fill="none"></circle>
<circle cx="1450.68" cy="1238.81" r="4" stroke="rgb(0,0,255)" stroke-width="2" fill="none"></circle>
<circle cx="5997.63" cy="1327.03" r="4" stroke="rgb(0,0,255)" stroke-width="2" fill="none"></circle>
<circle cx="1633.36" cy="1240.96" r="4" stroke="rgb(0,161,255)" stroke-width="2" fill="none"></circle>
<circle cx="6070.62" cy="2241.76" r="4" stroke="rgb(0,161,255)" stroke-width="2" fill="none"></circle>
<circle cx="1413.23" cy="1250.48" r="4" stroke="rgb(131,255,0)" stroke-width="2" fill="none"></circle>
<circle cx="5660.95" cy="1478.59" r="4" stroke="rgb(131,255,0)" stroke-width="2" fill="none"></circle>
<circle cx="3120.68" cy="1252.73" r="4" stroke="rgb(174,255,0)" stroke-width="2" fill="none"></circle>
<circle cx="6915.93" cy="2100.52" r="4" stroke="rgb(174,255,0)" stroke-width="2" fill="none"></circle>
<circle cx="2700.82" cy="1253.2" r="4" stroke="rgb(255,255,0)" stroke-width="2" fill="none"></circle>
<circle cx="6655.75" cy="2666.09" r="4" stroke="rgb(255,255,0)" stroke-width="2" fill="none"></circle>
<circle cx="1444.77" cy="1261.97" r="4" stroke="rgb(255,0,97)" stroke-width="2" fill="none"></circle>
<circle cx="6174.95" cy="1700.5" r="4" stroke="rgb(255,0,97)" stroke-width="2" fill="none"></circle>
<circle cx="2187.29" cy="1269.29" r="4" stroke="rgb(0,195,255)" stroke-width="2" fill="none"></circle>
<circle cx="6314.66" cy="1016.42" r="4" stroke="rgb(0,195,255)" stroke-width="2" fill="none"></circle>
<circle cx="3014.66" cy="1271.33" r="4" stroke="rgb(255,76,0)" stroke-width="2" fill="none"></circle>
<circle cx="6337.24" cy="1811.38" r="4" stroke="rgb(255,76,0)" stroke-width="2" fill="none"></circle>
<circle cx="1305.81" cy="1286.13" r="4" stroke="rgb(0,169,255)" stroke-width="2" fill="none"></circle>
<circle cx="6178.22" cy="2373.75" r="4" stroke="rgb(0,169,255)" stroke-width="2" fill="none"></circle>
<circle cx="2753.96" cy="1292.25" r="4" stroke="rgb(0,255,254)" stroke-width="2" fill="none"></circle>
<circle cx="5883.92" cy="1805.3" r="4" stroke="rgb(0,255,254)" stroke-width="2" fill="none"></circle>
<circle cx="3071.67" cy="1292.94" r="4" stroke="rgb(255,0,182)" stroke-width="2" fill="none"></circle>
<circle cx="5869.78" cy="2599.51" r="4" stroke="rgb(255,0,182)" stroke-width="2" fill="none"></circle>
<circle cx="1543.72" cy="1303.08" r="4" stroke="rgb(169,255,0)" stroke-width="2" fill="none"></circle>
<circle cx="6597.52" cy="1796.61" r="4" stroke="rgb(169,255,0)" stroke-width="2" fill="none"></circle>
<circle cx="1668.94" cy="1308.02" r="4" stroke="rgb(161,0,255)" stroke-width="2" fill="none"></circle>
<circle cx="5918.31" cy="2474.58" r="4" stroke="rgb(161,0,255)" stroke-width="2" fill="none"></circle>
<circle cx="1373.53" cy="1322.7" r="4" stroke="rgb(255,93,0)" stroke-width="2" fill="none"></circle>
<circle cx="6857.73" cy="1839.82" r="4" stroke="rgb(255,93,0)" stroke-width="2" fill="none"></circle>
<circle cx="1125.67" cy="1335.26" r="4" stroke="rgb(255,0,212)" stroke-width="2" fill="none"></circle>
<circle cx="6053.16" cy="1594.45" r="4" stroke="rgb(255,0,212)" stroke-width="2" fill="none"></circle>
<circle cx="1565.13" cy="1382.05" r="4" stroke="rgb(255,238,0)" stroke-width="2" fill="none"></circle>
<circle cx="6356.32" cy="1506.89" r="4" stroke="rgb(255,238,0)" stroke-width="2" fill="none"></circle>
<circle cx="1531.1" cy="1401.74" r="4" stroke="rgb(242,255,0)" stroke-width="2" fill="none"></circle>
<circle cx="6528.17" cy="2796.83" r="4" stroke="rgb(242,255,0)" stroke-width="2" fill="none"></circle>
<circle cx="2824.95" cy="1401.8" r="4" stroke="rgb(0,255,157)" stroke-width="2" fill="none"></circle>
<circle cx="5819.12" cy="1710.3" r="4" stroke="rgb(0,255,157)" stroke-width="2" fill="none"></circle>
<circle cx="2823.75" cy="1409.99" r="4" stroke="rgb(255,0,110)" stroke-width="2" fill="none"></circle>
<circle cx="6383.15" cy="1633.37" r="4" stroke="rgb(255,0,110)" stroke-width="2" fill="none"></circle>
<circle cx="1524.35" cy="1437.02" r="4" stroke="rgb(97,255,0)" stroke-width="2" fill="none"></circle>
<circle cx="6358" cy="2194.61" r="4" stroke="rgb(97,255,0)" stroke-width="2" fill="none"></circle>
<circle cx="1522.32" cy="1448.68" r="4" stroke="rgb(250,255,0)" stroke-width="2" fill="none"></circle>
<circle cx="5897.52" cy="2497.4" r="4" stroke="rgb(250,255,0)" stroke-width="2" fill="none"></circle>
<circle cx="1027.46" cy="1494.04" r="4" stroke="rgb(255,0,51)" stroke-width="2" fill="none"></circle>
<circle cx="6927.41" cy="2074.03" r="4" stroke="rgb(255,0,51)" stroke-width="2" fill="none"></circle>
<circle cx="1502.55" cy="1506.9" r="4" stroke="rgb(255,0,0)" stroke-width="2" fill="none"></circle>
<circle cx="6087.35" cy="2767.43" r="4" stroke="rgb(255,0,0)" stroke-width="2" fill="none"></circle>
<circle cx="2238.69" cy="1527.17" r="4" stroke="rgb(0,33,255)" stroke-width="2" fill="none"></circle>
<circle cx="6840.03" cy="1298.66" r="4" stroke="rgb(0,33,255)" stroke-width="2" fill="none"></circle>
<circle cx="1473.48" cy="1534.48" r="4" stroke="rgb(255,25,0)" stroke-width="2" fill="none"></circle>
<circle cx="6405.86" cy="1576.99" r="4" stroke="rgb(255,25,0)" stroke-width="2" fill="none"></circle>
<circle cx="1475.7" cy="1535.46" r="4" stroke="rgb(255,119,0)" stroke-width="2" fill="none"></circle>
<circle cx="6353.35" cy="1993.61" r="4" stroke="rgb(255,119,0)" stroke-width="2" fill="none"></circle>
<circle cx="1076.86" cy="1552.61" r="4" stroke="rgb(255,0,131)" stroke-width="2" fill="none"></circle>
<circle cx="6755.95" cy="1595.09" r="4" stroke="rgb(255,0,131)" stroke-width="2" fill="none"></circle>
<circle cx="1930.61" cy="1592.7" r="4" stroke="rgb(255,0,237)" stroke-width="2" fill="none"></circle>
<circle cx="5892.22" cy="2460.55" r="4" stroke="rgb(255,0,237)" stroke-width="2" fill="none"></circle>
<circle cx="3422.12" cy="1608.45" r="4" stroke="rgb(255,72,0)" stroke-width="2" fill="none"></circle>
<circle cx="5891.52" cy="1894.11" r="4" stroke="rgb(255,72,0)" stroke-width="2" fill="none"></circle>
<circle cx="1243.6" cy="1615.82" r="4" stroke="rgb(0,255,114)" stroke-width="2" fill="none"></circle>
<circle cx="5950.17" cy="1138.26" r="4" stroke="rgb(0,255,114)" stroke-width="2" fill="none"></circle>
<circle cx="1346.05" cy="1757.78" r="4" stroke="rgb(0,255,89)" stroke-width="2" fill="none"></circle>
<circle cx="5689.24" cy="1514.29" r="4" stroke="rgb(0,255,89)" stroke-width="2" fill="none"></circle>
<circle cx="2016.74" cy="1782.4" r="4" stroke="rgb(72,0,255)" stroke-width="2" fill="none"></circle>
<circle cx="6724.8" cy="1430.88" r="4" stroke="rgb(72,0,255)" stroke-width="2" fill="none"></circle>
<circle cx="2768.7" cy="1830.59" r="4" stroke="rgb(0,80,255)" stroke-width="2" fill="none"></circle>
<circle cx="6699.73" cy="2722.92" r="4" stroke="rgb(0,80,255)" stroke-width="2" fill="none"></circle>
<circle cx="2025.13" cy="1833.8" r="4" stroke="rgb(76,255,0)" stroke-width="2" fill="none"></circle>
<circle cx="5851.38" cy="2560.5" r="4" stroke="rgb(76,255,0)" stroke-width="2" fill="none"></circle>
<circle cx="1939.9" cy="1834.22" r="4" stroke="rgb(0,135,255)" stroke-width="2" fill="none"></circle>
<circle cx="6845.53" cy="1294.92" r="4" stroke="rgb(0,135,255)" stroke-width="2" fill="none"></circle>
<circle cx="1977.76" cy="1836.01" r="4" stroke="rgb(174,0,255)" stroke-width="2" fill="none"></circle>
<circle cx="6735.16" cy="2534.71" r="4" stroke="rgb(174,0,255)" stroke-width="2" fill="none"></circle>
<circle cx="1969.93" cy="1836.56" r="4" stroke="rgb(169,255,0)" stroke-width="2" fill="none"></circle>
<circle cx="6767.43" cy="1573.34" r="4" stroke="rgb(169,255,0)" stroke-width="2" fill="none"></circle>
<circle cx="1897.13" cy="1837.77" r="4" stroke="rgb(148,0,255)" stroke-width="2" fill="none"></circle>
<circle cx="5993.5" cy="1894.76" r="4" stroke="rgb(148,0,255)" stroke-width="2" fill="none"></circle>
<circle cx="1986.22" cy="1838.78" r="4" stroke="rgb(0,255,216)" stroke-width="2" fill="none"></circle>
<circle cx="5811.43" cy="1904.89" r="4" stroke="rgb(0,255,216)" stroke-width="2" fill="none"></circle>
<circle cx="1653.86" cy="1839.22" r="4" stroke="rgb(170,0,255)" stroke-width="2" fill="none"></circle>
<circle cx="5972.13" cy="2189.91" r="4" stroke="rgb(170,0,255)" stroke-width="2" fill="none"></circle>
<circle cx="1872.93" cy="1850.06" r="4" stroke="rgb(106,255,0)" stroke-width="2" fill="none"></circle>
<circle cx="6423.94" cy="1982.05" r="4" stroke="rgb(106,255,0)" stroke-width="2" fill="none"></circle>
<circle cx="2778.86" cy="1851.96" r="4" stroke="rgb(0,255,33)" stroke-width="2" fill="none"></circle>
<circle cx="6436.92" cy="1116.29" r="4" stroke="rgb(0,255,33)" stroke-width="2" fill="none"></circle>
<circle cx="2039.36" cy="1859.88" r="4" stroke="rgb(0,33,255)" stroke-width="2" fill="none"></circle>
<circle cx="6143.75" cy="2875.85" r="4" stroke="rgb(0,33,255)" stroke-width="2" fill="none"></circle>
<circle cx="2782.17" cy="1860.51" r="4" stroke="rgb(25,0,255)" stroke-width="2" fill="none"></circle>
<circle cx="6709.03" cy="2695.41" r="4" stroke="rgb(25,0,255)" stroke-width="2" fill="none"></circle>
<circle cx="1846.12" cy="1861.83" r="4" stroke="rgb(255,93,0)" stroke-width="2" fill="none"></circle>
<circle cx="6540.88" cy="2790.15" r="4" stroke="rgb(255,93,0)" stroke-width="2" fill="none"></circle>
<circle cx="1588.98" cy="1874.42" r="4" stroke="rgb(0,246,255)" stroke-width="2" fill="none"></circle>
<circle cx="6376.88" cy="1990.65" r="4" stroke="rgb(0,246,255)" stroke-width="2" fill="none"></circle>
<circle cx="2663.62" cy="1878.57" r="4" stroke="rgb(255,0,246)" stroke-width="2" fill="none"></circle>
<circle cx="6825.28" cy="2560.46" r="4" stroke="rgb(255,0,246)" stroke-width="2" fill="none"></circle>
<circle cx="1937.42" cy="1889.83" r="4" stroke="rgb(144,255,0)" stroke-width="2" fill="none"></circle>
<circle cx="5899.62" cy="2310.96" r="4" stroke="rgb(144,255,0)" stroke-width="2" fill="none"></circle>
<circle cx="2712.82" cy="1894.77" r="4" stroke="rgb(255,0,89)" stroke-width="2" fill="none"></circle>
<circle cx="6350.21" cy="1048.24" r="4" stroke="rgb(255,0,89)" stroke-width="2" fill="none"></circle>
<circle cx="1992.05" cy="1894.82" r="4" stroke="rgb(0,255,118)" stroke-width="2" fill="none"></circle>
<circle cx="5960.93" cy="2346.63" r="4" stroke="rgb(0,255,118)" stroke-width="2" fill="none"></circle>
<circle cx="2629.25" cy="1896.61" r="4" stroke="rgb(255,233,0)" stroke-width="2" fill="none"></circle>
<circle cx="6652.57" cy="1339.42" r="4" stroke="rgb(255,233,0)" stroke-width="2" fill="none"></circle>
<circle cx="2512.91" cy="1897.19" r="4" stroke="rgb(135,0,255)" stroke-width="2" fill="none"></circle>
<circle cx="6757.04" cy="2552.51" r="4" stroke="rgb(135,0,255)" stroke-width="2" fill="none"></circle>
<circle cx="1940.3" cy="1898.22" r="4" stroke="rgb(0,255,67)" stroke-width="2" fill="none"></circle>
<circle cx="5905" cy="2159.87" r="4" stroke="rgb(0,255,67)" stroke-width="2" fill="none"></circle>
<circle cx="2537.67" cy="1900.57" r="4" stroke="rgb(255,233,0)" stroke-width="2" fill="none"></circle>
<circle cx="6631.98" cy="1306.27" r="4" stroke="rgb(255,233,0)" stroke-width="2" fill="none"></circle>
<circle cx="2516.56" cy="1901.74" r="4" stroke="rgb(0,255,101)" stroke-width="2" fill="none"></circle>
<circle cx="5964.1" cy="2236.52" r="4" stroke="rgb(0,255,101)" stroke-width="2" fill="none"></circle>
<circle cx="2275.84" cy="1902.46" r="4" stroke="rgb(255,63,0)" stroke-width="2" fill="none"></circle>
<circle cx="6325.32" cy="1960.21" r="4" stroke="rgb(255,63,0)" stroke-width="2" fill="none"></circle>
<circle cx="2489.98" cy="1902.61" r="4" stroke="rgb(153,255,0)" stroke-width="2" fill="none"></circle>
<circle cx="5847.27" cy="2303.37" r="4" stroke="rgb(153,255,0)" stroke-width="2" fill="none"></circle>
<circle cx="1711.54" cy="1904.8" r="4" stroke="rgb(255,0,63)" stroke-width="2" fill="none"></circle>
<circle cx="6521.3" cy="1420.08" r="4" stroke="rgb(255,0,63)" stroke-width="2" fill="none"></circle>
<circle cx="2577.34" cy="1905.86" r="4" stroke="rgb(255,0,174)" stroke-width="2" fill="none"></circle>
<circle cx="5910.67" cy="1714.95" r="4" stroke="rgb(255,0,174)" stroke-width="2" fill="none"></circle>
<circle cx="2617.76" cy="1909.87" r="4" stroke="rgb(255,0,114)" stroke-width="2" fill="none"></circle>
<circle cx="5956.96" cy="1019.97" r="4" stroke="rgb(255,0,114)" stroke-width="2" fill="none"></circle>
<circle cx="2312.64" cy="1919.87" r="4" stroke="rgb(255,17,0)" stroke-width="2" fill="none"></circle>
<circle cx="6636.15" cy="1312.51" r="4" stroke="rgb(255,17,0)" stroke-width="2" fill="none"></circle>
<circle cx="2422.36" cy="1920.17" r="4" stroke="rgb(255,0,119)" stroke-width="2" fill="none"></circle>
<circle cx="5925.99" cy="2372.2" r="4" stroke="rgb(255,0,119)" stroke-width="2" fill="none"></circle>
<circle cx="2197.29" cy="1936.79" r="4" stroke="rgb(76,255,0)" stroke-width="2" fill="none"></circle>
<circle cx="6475.19" cy="1168.2" r="4" stroke="rgb(76,255,0)" stroke-width="2" fill="none"></circle>
<circle cx="2439.23" cy="1941.32" r="4" stroke="rgb(0,63,255)" stroke-width="2" fill="none"></circle>
<circle cx="6933.88" cy="2122.7" r="4" stroke="rgb(0,63,255)" stroke-width="2" fill="none"></circle>
<circle cx="1916.56" cy="1942.55" r="4" stroke="rgb(191,255,0)" stroke-width="2" fill="none"></circle>
<circle cx="5907.45" cy="2631.94" r="4" stroke="rgb(191,255,0)" stroke-width="2" fill="none"></circle>
<circle cx="1898.11" cy="1942.94" r="4" stroke="rgb(255,0,212)" stroke-width="2" fill="none"></circle>
<circle cx="6872.57" cy="1309.42" r="4" stroke="rgb(255,0,212)" stroke-width="2" fill="none"></circle>
<circle cx="2017.32" cy="1943.14" r="4" stroke="rgb(0,255,110)" stroke-width="2" fill="none"></circle>
<circle cx="5861.81" cy="2096.09" r="4" stroke="rgb(0,255,110)" stroke-width="2" fill="none"></circle>
<circle cx="2007.42" cy="1954.83" r="4" stroke="rgb(255,114,0)" stroke-width="2" fill="none"></circle>
<circle cx="6766.6" cy="2585.7" r="4" stroke="rgb(255,114,0)" stroke-width="2" fill="none"></circle>
<circle cx="1966.11" cy="1956.17" r="4" stroke="rgb(0,63,255)" stroke-width="2" fill="none"></circle>
<circle cx="5891.56" cy="2408.53" r="4" stroke="rgb(0,63,255)" stroke-width="2" fill="none"></circle>
<circle cx="2034.42" cy="1956.84" r="4" stroke="rgb(0,212,255)" stroke-width="2" fill="none"></circle>
<circle cx="5896.03" cy="2383.34" r="4" stroke="rgb(0,212,255)" stroke-width="2" fill="none"></circle>
<circle cx="2051.9" cy="1957.22" r="4" stroke="rgb(0,255,250)" stroke-width="2" fill="none"></circle>
<circle cx="5879.6" cy="2573.73" r="4" stroke="rgb(0,255,250)" stroke-width="2" fill="none"></circle>
<circle cx="1948.89" cy="1970.14" r="4" stroke="rgb(0,199,255)" stroke-width="2" fill="none"></circle>
<circle cx="6373.37" cy="1778.76" r="4" stroke="rgb(0,199,255)" stroke-width="2" fill="none"></circle>
<circle cx="2679.57" cy="1992.9" r="4" stroke="rgb(0,212,255)" stroke-width="2" fill="none"></circle>
<circle cx="6080.83" cy="1403.61" r="4" stroke="rgb(0,212,255)" stroke-width="2" fill="none"></circle>
<circle cx="2472.91" cy="1994.99" r="4" stroke="rgb(255,216,0)" stroke-width="2" fill="none"></circle>
<circle cx="6234.35" cy="2102.65" r="4" stroke="rgb(255,216,0)" stroke-width="2" fill="none"></circle>
<circle cx="2457.56" cy="1998.78" r="4" stroke="rgb(255,0,208)" stroke-width="2" fill="none"></circle>
<circle cx="6102.8" cy="1902.85" r="4" stroke="rgb(255,0,208)" stroke-width="2" fill="none"></circle>
<circle cx="2894.71" cy="2000.84" r="4" stroke="rgb(0,114,255)" stroke-width="2" fill="none"></circle>
<circle cx="6601.3" cy="1285.56" r="4" stroke="rgb(0,114,255)" stroke-width="2" fill="none"></circle>
<circle cx="2829.1" cy="2003.53" r="4" stroke="rgb(63,255,0)" stroke-width="2" fill="none"></circle>
<circle cx="6820.04" cy="2150.17" r="4" stroke="rgb(63,255,0)" stroke-width="2" fill="none"></circle>
<circle cx="2878.84" cy="2013.63" r="4" stroke="rgb(55,0,255)" stroke-width="2" fill="none"></circle>
<circle cx="6698.27" cy="2613.76" r="4" stroke="rgb(55,0,255)" stroke-width="2" fill="none"></circle>
<circle cx="2977.51" cy="2016.67" r="4" stroke="rgb(0,255,216)" stroke-width="2" fill="none"></circle>
<circle cx="5791.95" cy="1110" r="4" stroke="rgb(0,255,216)" stroke-width="2" fill="none"></circle>
<circle cx="1563.75" cy="2023.5" r="4" stroke="rgb(255,0,187)" stroke-width="2" fill="none"></circle>
<circle cx="6568.48" cy="1209.69" r="4" stroke="rgb(255,0,187)" stroke-width="2" fill="none"></circle>
<circle cx="2560.96" cy="2059.59" r="4" stroke="rgb(255,178,0)" stroke-width="2" fill="none"></circle>
<circle cx="6446.06" cy="1431.18" r="4" stroke="rgb(255,178,0)" stroke-width="2" fill="none"></circle>
<circle cx="1773.99" cy="2203.12" r="4" stroke="rgb(0,59,255)" stroke-width="2" fill="none"></circle>
<circle cx="6596.27" cy="1227.7" r="4" stroke="rgb(0,59,255)" stroke-width="2" fill="none"></circle>
<circle cx="1628.53" cy="2209.61" r="4" stroke="rgb(0,51,255)" stroke-width="2" fill="none"></circle>
<circle cx="5740.88" cy="1419.73" r="4" stroke="rgb(0,51,255)" stroke-width="2" fill="none"></circle>
<circle cx="1520.55" cy="2210.72" r="4" stroke="rgb(255,212,0)" stroke-width="2" fill="none"></circle>
<circle cx="5987.81" cy="1459.84" r="4" stroke="rgb(255,212,0)" stroke-width="2" fill="none"></circle>
<circle cx="1641.12" cy="2221.68" r="4" stroke="rgb(174,0,255)" stroke-width="2" fill="none"></circle>
<circle cx="6423.82" cy="1737.41" r="4" stroke="rgb(174,0,255)" stroke-width="2" fill="none"></circle>
</svg>