<?xml version="1.0" standalone="yes"?>
<!-- SVG graphic -->
<svg xmlns='http://www.w3.org/2000/svg' xmlns:xlink='http://www.w3.org/1999/xlink'
width="8064px" height="3024px" preserveAspectRatio="xMinYMin meet" viewBox="0 0 8064 3024" version="1.1">
<image x="0" y="0" width="4032px" height="3024px" opacity="1" xlink:href="/home/jeong/Code/2D-to-3D-Modeling-using-AI/Make3D/Image/20200227_180649.jpg"/>
<image x="4032" y="0" width="4032px" height="3024px" opacity="1" xlink:href="/home/jeong/Code/2D-to-3D-Modeling-using-AI/Make3D/Image/20200227_180801.jpg"/>
<polyline points="1704.09,1021.28,4852.52,854.796" stroke="rgb(93,0,255)" stroke-width="2" fill="none"></polyline>
<polyline points="1704.09,1021.28,4852.52,854.796" stroke="rgb(255,12,0)" stroke-width="2" fill="none"></polyline>
<polyline points="2508.36,2004.56,6683.81,1474.91" stroke="rgb(153,0,255)" stroke-width="2" fill="none"></polyline>
<polyline points="2813.71,1368.63,5217.1,189.955" stroke="rgb(0,119,255)" stroke-width="2" fill="none"></polyline>
<polyline points="2814.69,1372.08,5167.04,182.984" stroke="rgb(0,255,127)" stroke-width="2" fill="none"></polyline>
<polyline points="1843.75,1106.86,5444.83,2114.23" stroke="rgb(255,174,0)" stroke-width="2" fill="none"></polyline>
<polyline points="1669.71,844.269,5470.76,2118.15" stroke="rgb(178,0,255)" stroke-width="2" fill="none"></polyline>
<polyline points="2709.73,1443.83,5196.18,239.245" stroke="rgb(0,255,144)" stroke-width="2" fill="none"></polyline>
<polyline points="2709.73,1443.83,5196.18,239.245" stroke="rgb(110,255,0)" stroke-width="2" fill="none"></polyline>
<polyline points="1975.9,1463.64,6630.37,957.879" stroke="rgb(0,255,152)" stroke-width="2" fill="none"></polyline>
<polyline points="1220.64,1620.17,5731.1,274.835" stroke="rgb(0,255,157)" stroke-width="2" fill="none"></polyline>
<polyline points="2301.06,1213.1,5947.15,2226.11" stroke="rgb(4,255,0)" stroke-width="2" fill="none"></polyline>
<polyline points="1671.72,1049.43,6564.35,2178.67" stroke="rgb(225,255,0)" stroke-width="2" fill="none"></polyline>
<polyline points="2763.27,1328.04,5661.97,1134.99" stroke="rgb(0,255,123)" stroke-width="2" fill="none"></polyline>
<polyline points="2366.98,1927.88,5609.35,1104.95" stroke="rgb(0,187,255)" stroke-width="2" fill="none"></polyline>
<polyline points="1836.61,1123.23,6424.5,411.939" stroke="rgb(0,221,255)" stroke-width="2" fill="none"></polyline>
<polyline points="3014.21,1812.71,4964.1,2374.31" stroke="rgb(255,0,106)" stroke-width="2" fill="none"></polyline>
<polyline points="2717.9,1209.66,4802.63,1619.37" stroke="rgb(0,255,118)" stroke-width="2" fill="none"></polyline>
<polyline points="2366.98,1927.88,5907.33,2273.35" stroke="rgb(255,0,225)" stroke-width="2" fill="none"></polyline>
<polyline points="1514.89,1254.12,4975.33,2397.97" stroke="rgb(174,0,255)" stroke-width="2" fill="none"></polyline>
<polyline points="1267.61,1261.76,5393.72,473.483" stroke="rgb(208,0,255)" stroke-width="2" fill="none"></polyline>
<polyline points="3039.63,1039.29,6603.87,2299.94" stroke="rgb(55,255,0)" stroke-width="2" fill="none"></polyline>
<polyline points="2998.29,1832.69,4904,1658" stroke="rgb(0,114,255)" stroke-width="2" fill="none"></polyline>
<polyline points="1450.68,1238.81,4821.5,1060.07" stroke="rgb(255,212,0)" stroke-width="2" fill="none"></polyline>
<polyline points="1588.21,1235.47,5430.9,486.92" stroke="rgb(0,255,250)" stroke-width="2" fill="none"></polyline>
<polyline points="802.34,1298.14,4157.63,465.983" stroke="rgb(0,191,255)" stroke-width="2" fill="none"></polyline>
<polyline points="3042.12,1219.82,5766.22,1677.79" stroke="rgb(255,102,0)" stroke-width="2" fill="none"></polyline>
<polyline points="1897.13,1837.77,4961.09,515.697" stroke="rgb(250,0,255)" stroke-width="2" fill="none"></polyline>
<polyline points="1791.81,1052.42,5572.72,2352.59" stroke="rgb(199,0,255)" stroke-width="2" fill="none"></polyline>
<polyline points="1392.84,1003.35,5613.52,2387.9" stroke="rgb(216,255,0)" stroke-width="2" fill="none"></polyline>
<polyline points="1624,1121.85,4756.09,567.356" stroke="rgb(255,221,0)" stroke-width="2" fill="none"></polyline>
<polyline points="2251.74,830.264,5581.17,570.561" stroke="rgb(0,216,255)" stroke-width="2" fill="none"></polyline>
<polyline points="1881.2,1031.12,4997.88,610.29" stroke="rgb(255,0,233)" stroke-width="2" fill="none"></polyline>
<polyline points="2712.82,1894.77,5962.34,1142.59" stroke="rgb(255,0,136)" stroke-width="2" fill="none"></polyline>
<polyline points="2924.75,1342.17,6561.8,1154.85" stroke="rgb(140,0,255)" stroke-width="2" fill="none"></polyline>
<polyline points="1966.64,1463.82,5875.04,655.977" stroke="rgb(255,0,140)" stroke-width="2" fill="none"></polyline>
<polyline points="1547.32,1061.45,4898.51,668.049" stroke="rgb(4,0,255)" stroke-width="2" fill="none"></polyline>
<polyline points="1338.85,1361.78,4312.5,684.062" stroke="rgb(0,187,255)" stroke-width="2" fill="none"></polyline>
<polyline points="2318.01,858.113,6543.3,1317.88" stroke="rgb(0,255,4)" stroke-width="2" fill="none"></polyline>
<polyline points="1338.85,1361.78,4320.76,688.287" stroke="rgb(255,0,106)" stroke-width="2" fill="none"></polyline>
<polyline points="1687.65,1026.92,4930.31,691.95" stroke="rgb(0,67,255)" stroke-width="2" fill="none"></polyline>
<polyline points="1543.72,1303.08,4476.63,696.992" stroke="rgb(0,255,131)" stroke-width="2" fill="none"></polyline>
<polyline points="2716.76,1231.15,5657.26,1190.48" stroke="rgb(255,0,140)" stroke-width="2" fill="none"></polyline>
<polyline points="2508.74,2033.47,5816.2,1214.92" stroke="rgb(216,0,255)" stroke-width="2" fill="none"></polyline>
<polyline points="2720.63,863.623,6563.07,1620.75" stroke="rgb(0,255,220)" stroke-width="2" fill="none"></polyline>
<polyline points="1693.7,1059.69,4840.51,858.126" stroke="rgb(255,148,0)" stroke-width="2" fill="none"></polyline>
<polyline points="1693.7,1059.69,4840.51,858.126" stroke="rgb(255,0,38)" stroke-width="2" fill="none"></polyline>
<polyline points="1592.06,1358.96,4729.66,1876.34" stroke="rgb(0,255,114)" stroke-width="2" fill="none"></polyline>
<polyline points="2366.98,1927.88,5787.18,1249.7" stroke="rgb(0,242,255)" stroke-width="2" fill="none"></polyline>
<polyline points="1514.89,1254.12,4615.8,844.769" stroke="rgb(250,0,255)" stroke-width="2" fill="none"></polyline>
<polyline points="2998.29,1832.69,4881.72,1671.04" stroke="rgb(255,0,250)" stroke-width="2" fill="none"></polyline>
<polyline points="1450.68,1238.81,4713.89,1907.78" stroke="rgb(255,0,68)" stroke-width="2" fill="none"></polyline>
<polyline points="2674.31,1450.14,5363.84,1776.96" stroke="rgb(255,195,0)" stroke-width="2" fill="none"></polyline>
<polyline points="1334.41,1473.83,6662.78,1935.16" stroke="rgb(0,255,144)" stroke-width="2" fill="none"></polyline>
<polyline points="1894.28,930.472,5398.93,1292.64" stroke="rgb(255,144,0)" stroke-width="2" fill="none"></polyline>
<polyline points="1881.2,1031.12,5234.08,1954.78" stroke="rgb(97,255,0)" stroke-width="2" fill="none"></polyline>
<polyline points="2712.82,1894.77,5881.43,1302.23" stroke="rgb(255,0,42)" stroke-width="2" fill="none"></polyline>
<polyline points="2008.27,1804.71,6203.36,1834.79" stroke="rgb(212,0,255)" stroke-width="2" fill="none"></polyline>
<polyline points="1726.74,1065.58,4876.6,495.067" stroke="rgb(255,157,0)" stroke-width="2" fill="none"></polyline>
<polyline points="2252.63,998.827,5635.81,1986.6" stroke="rgb(0,255,123)" stroke-width="2" fill="none"></polyline>
<polyline points="3099.27,1434.6,6313.02,2008.47" stroke="rgb(255,0,4)" stroke-width="2" fill="none"></polyline>
<polyline points="1611.86,1856.07,4892.81,1588.14" stroke="rgb(131,255,0)" stroke-width="2" fill="none"></polyline>
<polyline points="3121.88,1223.5,6318.17,1970.53" stroke="rgb(0,127,255)" stroke-width="2" fill="none"></polyline>
<polyline points="1344.97,1750.64,4762.88,1629.57" stroke="rgb(0,255,237)" stroke-width="2" fill="none"></polyline>
<polyline points="2998.29,1832.69,4892.04,1666.9" stroke="rgb(212,0,255)" stroke-width="2" fill="none"></polyline>
<polyline points="1713.42,2185.35,6360.66,1382.99" stroke="rgb(0,255,12)" stroke-width="2" fill="none"></polyline>
<polyline points="3048.77,1342.34,5527.72,1390.93" stroke="rgb(0,255,97)" stroke-width="2" fill="none"></polyline>
<polyline points="1048.54,1314.29,4309.04,638.634" stroke="rgb(255,182,0)" stroke-width="2" fill="none"></polyline>
<polyline points="1712.51,1127.58,4814.32,639.952" stroke="rgb(0,208,255)" stroke-width="2" fill="none"></polyline>
<polyline points="1927.63,1087.97,4911.46,649.79" stroke="rgb(0,255,72)" stroke-width="2" fill="none"></polyline>
<polyline points="1675.45,953.379,4591.6,683.202" stroke="rgb(255,80,0)" stroke-width="2" fill="none"></polyline>
<polyline points="1632.86,1208.84,4582.92,686.388" stroke="rgb(255,233,0)" stroke-width="2" fill="none"></polyline>
<polyline points="1517.92,1028.88,4886.25,882.141" stroke="rgb(203,0,255)" stroke-width="2" fill="none"></polyline>
<polyline points="3121.88,1223.5,5325.85,2065.74" stroke="rgb(0,93,255)" stroke-width="2" fill="none"></polyline>
<polyline points="3121.88,1223.5,5343.96,2075.7" stroke="rgb(0,89,255)" stroke-width="2" fill="none"></polyline>
<polyline points="2998.29,1832.69,4483.28,2669.76" stroke="rgb(255,0,119)" stroke-width="2" fill="none"></polyline>
<polyline points="1518.77,1077.47,4902.98,954.42" stroke="rgb(0,255,21)" stroke-width="2" fill="none"></polyline>
<polyline points="1528.09,1087.34,4907.93,964.713" stroke="rgb(0,127,255)" stroke-width="2" fill="none"></polyline>
<polyline points="2020.62,1227.91,4934.63,2444.84" stroke="rgb(255,0,33)" stroke-width="2" fill="none"></polyline>
<polyline points="1454.53,1020.68,5728.05,1133.52" stroke="rgb(255,0,221)" stroke-width="2" fill="none"></polyline>
<polyline points="2392.68,995.384,6618.33,2029.91" stroke="rgb(0,255,123)" stroke-width="2" fill="none"></polyline>
<polyline points="3039.63,1039.29,6354.24,1249.68" stroke="rgb(225,0,255)" stroke-width="2" fill="none"></polyline>
<polyline points="2032.38,1146.11,5648.31,526.466" stroke="rgb(221,0,255)" stroke-width="2" fill="none"></polyline>
<polyline points="1374.07,1042.82,4802.7,616.213" stroke="rgb(221,255,0)" stroke-width="2" fill="none"></polyline>
<polyline points="2348.67,1931.23,5642.17,2061.38" stroke="rgb(140,255,0)" stroke-width="2" fill="none"></polyline>
<polyline points="1704.09,1021.28,4847.07,864.893" stroke="rgb(0,178,255)" stroke-width="2" fill="none"></polyline>
<polyline points="2310.47,1054.57,5348.95,2278.29" stroke="rgb(0,255,191)" stroke-width="2" fill="none"></polyline>
<polyline points="2668.13,1217.36,5534.51,2340.69" stroke="rgb(255,0,216)" stroke-width="2" fill="none"></polyline>
<polyline points="1533.54,1859.7,4666.46,2117.41" stroke="rgb(255,0,0)" stroke-width="2" fill="none"></polyline>
<polyline points="2998.29,1832.69,4483.7,2670.02" stroke="rgb(195,255,0)" stroke-width="2" fill="none"></polyline>
<polyline points="2138.47,1202.8,5039.7,2449.78" stroke="rgb(93,255,0)" stroke-width="2" fill="none"></polyline>
<polyline points="1595.26,1245.37,6072.08,2452.56" stroke="rgb(255,0,4)" stroke-width="2" fill="none"></polyline>
<polyline points="2858.26,1355.34,5750.94,491.607" stroke="rgb(255,153,0)" stroke-width="2" fill="none"></polyline>
<polyline points="2108.15,1200.86,5014.1,2441.08" stroke="rgb(255,0,221)" stroke-width="2" fill="none"></polyline>
<polyline points="1595.26,1245.37,6073.22,2451.31" stroke="rgb(0,255,237)" stroke-width="2" fill="none"></polyline>
<polyline points="2729.92,1027.82,6615.13,1600.73" stroke="rgb(255,0,144)" stroke-width="2" fill="none"></polyline>
<polyline points="2128.61,996.332,5891.85,966.366" stroke="rgb(255,0,237)" stroke-width="2" fill="none"></polyline>
<polyline points="2295.91,1051.66,5331.93,2267.09" stroke="rgb(255,0,174)" stroke-width="2" fill="none"></polyline>
<polyline points="1062.89,1326.43,6702.07,1845.28" stroke="rgb(255,38,0)" stroke-width="2" fill="none"></polyline>
<polyline points="3116.52,1327.58,5743.47,1187.28" stroke="rgb(0,255,63)" stroke-width="2" fill="none"></polyline>
<polyline points="1713.42,2185.35,6565.78,1826.87" stroke="rgb(101,255,0)" stroke-width="2" fill="none"></polyline>
<polyline points="2042.39,1163.46,4979.82,2345.36" stroke="rgb(85,0,255)" stroke-width="2" fill="none"></polyline>
<polyline points="2042.39,1163.46,4979.82,2345.36" stroke="rgb(242,255,0)" stroke-width="2" fill="none"></polyline>
<polyline points="2302.43,1158.48,5257.21,2414.36" stroke="rgb(67,0,255)" stroke-width="2" fill="none"></polyline>
<polyline points="1984.23,1230.77,4898.98,2433.58" stroke="rgb(255,0,42)" stroke-width="2" fill="none"></polyline>
<polyline points="1984.23,1230.77,4888.89,2429" stroke="rgb(178,0,255)" stroke-width="2" fill="none"></polyline>
<polyline points="2572.28,2032.1,6566.34,1014.57" stroke="rgb(80,255,0)" stroke-width="2" fill="none"></polyline>
<polyline points="2355.33,979.626,4625.87,2454.51" stroke="rgb(21,255,0)" stroke-width="2" fill="none"></polyline>
<polyline points="1403.58,1076.65,5255.21,2221.58" stroke="rgb(255,17,0)" stroke-width="2" fill="none"></polyline>
<polyline points="1152.95,1203.4,6446.33,1368.08" stroke="rgb(114,255,0)" stroke-width="2" fill="none"></polyline>
<circle cx="1704.09" cy="1021.28" r="4" stroke="rgb(93,0,255)" stroke-width="2" fill="none"></circle>
<circle cx="4852.52" cy="854.796" r="4" stroke="rgb(93,0,255)" stroke-width="2" fill="none"></circle>
<circle cx="1704.09" cy="1021.28" r="4" stroke="rgb(255,12,0)" stroke-width="2" fill="none"></circle>
<circle cx="4852.52" cy="854.796" r="4" stroke="rgb(255,12,0)" stroke-width="2" fill="none"></circle>
<circle cx="2508.36" cy="2004.56" r="4" stroke="rgb(153,0,255)" stroke-width="2" fill="none"></circle>
<circle cx="6683.81" cy="1474.91" r="4" stroke="rgb(153,0,255)" stroke-width="2" fill="none"></circle>
<circle cx="2813.71" cy="1368.63" r="4" stroke="rgb(0,119,255)" stroke-width="2" fill="none"></circle>
<circle cx="5217.1" cy="189.955" r="4" stroke="rgb(0,119,255)" stroke-width="2" fill="none"></circle>
<circle cx="2814.69" cy="1372.08" r="4" stroke="rgb(0,255,127)" stroke-width="2" fill="none"></circle>
<circle cx="5167.04" cy="182.984" r="4" stroke="rgb(0,255,127)" stroke-width="2" fill="none"></circle>
<circle cx="1843.75" cy="1106.86" r="4" stroke="rgb(255,174,0)" stroke-width="2" fill="none"></circle>
<circle cx="5444.83" cy="2114.23" r="4" stroke="rgb(255,174,0)" stroke-width="2" fill="none"></circle>
<circle cx="1669.71" cy="844.269" r="4" stroke="rgb(178,0,255)" stroke-width="2" fill="none"></circle>
<circle cx="5470.76" cy="2118.15" r="4" stroke="rgb(178,0,255)" stroke-width="2" fill="none"></circle>
<circle cx="2709.73" cy="1443.83" r="4" stroke="rgb(0,255,144)" stroke-width="2" fill="none"></circle>
<circle cx="5196.18" cy="239.245" r="4" stroke="rgb(0,255,144)" stroke-width="2" fill="none"></circle>
<circle cx="2709.73" cy="1443.83" r="4" stroke="rgb(110,255,0)" stroke-width="2" fill="none"></circle>
<circle cx="5196.18" cy="239.245" r="4" stroke="rgb(110,255,0)" stroke-width="2" fill="none"></circle>
<circle cx="1975.9" cy="1463.64" r="4" stroke="rgb(0,255,152)" stroke-width="2" fill="none"></circle>
<circle cx="6630.37" cy="957.879" r="4" stroke="rgb(0,255,152)" stroke-width="2" fill="none"></circle>
<circle cx="1220.64" cy="1620.17" r="4" stroke="rgb(0,255,157)" stroke-width="2" fill="none"></circle>
<circle cx="5731.1" cy="274.835" r="4" stroke="rgb(0,255,157)" stroke-width="2" fill="none"></circle>
<circle cx="2301.06" cy="1213.1" r="4" stroke="rgb(4,255,0)" stroke-width="2" fill="none"></circle>
<circle cx="5947.15" cy="2226.11" r="4" stroke="rgb(4,255,0)" stroke-width="2" fill="none"></circle>
<circle cx="1671.72" cy="1049.43" r="4" stroke="rgb(225,255,0)" stroke-width="2" fill="none"></circle>
<circle cx="6564.35" cy="2178.67" r="4" stroke="rgb(225,255,0)" stroke-width="2" fill="none"></circle>
<circle cx="2763.27" cy="1328.04" r="4" stroke="rgb(0,255,123)" stroke-width="2" fill="none"></circle>
<circle cx="5661.97" cy="1134.99" r="4" stroke="rgb(0,255,123)" stroke-width="2" fill="none"></circle>
<circle cx="2366.98" cy="1927.88" r="4" stroke="rgb(0,187,255)" stroke-width="2" fill="none"></circle>
<circle cx="5609.35" cy="1104.95" r="4" stroke="rgb(0,187,255)" stroke-width="2" fill="none"></circle>
<circle cx="1836.61" cy="1123.23" r="4" stroke="rgb(0,221,255)" stroke-width="2" fill="none"></circle>
<circle cx="6424.5" cy="411.939" r="4" stroke="rgb(0,221,255)" stroke-width="2" fill="none"></circle>
<circle cx="3014.21" cy="1812.71" r="4" stroke="rgb(255,0,106)" stroke-width="2" fill="none"></circle>
<circle cx="4964.1" cy="2374.31" r="4" stroke="rgb(255,0,106)" stroke-width="2" fill="none"></circle>
<circle cx="2717.9" cy="1209.66" r="4" stroke="rgb(0,255,118)" stroke-width="2" fill="none"></circle>
<circle cx="4802.63" cy="1619.37" r="4" stroke="rgb(0,255,118)" stroke-width="2" fill="none"></circle>
<circle cx="2366.98" cy="1927.88" r="4" stroke="rgb(255,0,225)" stroke-width="2" fill="none"></circle>
<circle cx="5907.33" cy="2273.35" r="4" stroke="rgb(255,0,225)" stroke-width="2" fill="none"></circle>
<circle cx="1514.89" cy="1254.12" r="4" stroke="rgb(174,0,255)" stroke-width="2" fill="none"></circle>
<circle cx="4975.33" cy="2397.97" r="4" stroke="rgb(174,0,255)" stroke-width="2" fill="none"></circle>
<circle cx="1267.61" cy="1261.76" r="4" stroke="rgb(208,0,255)" stroke-width="2" fill="none"></circle>
<circle cx="5393.72" cy="473.483" r="4" stroke="rgb(208,0,255)" stroke-width="2" fill="none"></circle>
<circle cx="3039.63" cy="1039.29" r="4" stroke="rgb(55,255,0)" stroke-width="2" fill="none"></circle>
<circle cx="6603.87" cy="2299.94" r="4" stroke="rgb(55,255,0)" stroke-width="2" fill="none"></circle>
<circle cx="2998.29" cy="1832.69" r="4" stroke="rgb(0,114,255)" stroke-width="2" fill="none"></circle>
<circle cx="4904" cy="1658" r="4" stroke="rgb(0,114,255)" stroke-width="2" fill="none"></circle>
<circle cx="1450.68" cy="1238.81" r="4" stroke="rgb(255,212,0)" stroke-width="2" fill="none"></circle>
<circle cx="4821.5" cy="1060.07" r="4" stroke="rgb(255,212,0)" stroke-width="2" fill="none"></circle>
<circle cx="1588.21" cy="1235.47" r="4" stroke="rgb(0,255,250)" stroke-width="2" fill="none"></circle>
<circle cx="5430.9" cy="486.92" r="4" stroke="rgb(0,255,250)" stroke-width="2" fill="none"></circle>
<circle cx="802.34" cy="1298.14" r="4" stroke="rgb(0,191,255)" stroke-width="2" fill="none"></circle>
<circle cx="4157.63" cy="465.983" r="4" stroke="rgb(0,191,255)" stroke-width="2" fill="none"></circle>
<circle cx="3042.12" cy="1219.82" r="4" stroke="rgb(255,102,0)" stroke-width="2" fill="none"></circle>
<circle cx="5766.22" cy="1677.79" r="4" stroke="rgb(255,102,0)" stroke-width="2" fill="none"></circle>
<circle cx="1897.13" cy="1837.77" r="4" stroke="rgb(250,0,255)" stroke-width="2" fill="none"></circle>
<circle cx="4961.09" cy="515.697" r="4" stroke="rgb(250,0,255)" stroke-width="2" fill="none"></circle>
<circle cx="1791.81" cy="1052.42" r="4" stroke="rgb(199,0,255)" stroke-width="2" fill="none"></circle>
<circle cx="5572.72" cy="2352.59" r="4" stroke="rgb(199,0,255)" stroke-width="2" fill="none"></circle>
<circle cx="1392.84" cy="1003.35" r="4" stroke="rgb(216,255,0)" stroke-width="2" fill="none"></circle>
<circle cx="5613.52" cy="2387.9" r="4" stroke="rgb(216,255,0)" stroke-width="2" fill="none"></circle>
<circle cx="1624" cy="1121.85" r="4" stroke="rgb(255,221,0)" stroke-width="2" fill="none"></circle>
<circle cx="4756.09" cy="567.356" r="4" stroke="rgb(255,221,0)" stroke-width="2" fill="none"></circle>
<circle cx="2251.74" cy="830.264" r="4" stroke="rgb(0,216,255)" stroke-width="2" fill="none"></circle>
<circle cx="5581.17" cy="570.561" r="4" stroke="rgb(0,216,255)" stroke-width="2" fill="none"></circle>
<circle cx="1881.2" cy="1031.12" r="4" stroke="rgb(255,0,233)" stroke-width="2" fill="none"></circle>
<circle cx="4997.88" cy="610.29" r="4" stroke="rgb(255,0,233)" stroke-width="2" fill="none"></circle>
<circle cx="2712.82" cy="1894.77" r="4" stroke="rgb(255,0,136)" stroke-width="2" fill="none"></circle>
<circle cx="5962.34" cy="1142.59" r="4" stroke="rgb(255,0,136)" stroke-width="2" fill="none"></circle>
<circle cx="2924.75" cy="1342.17" r="4" stroke="rgb(140,0,255)" stroke-width="2" fill="none"></circle>
<circle cx="6561.8" cy="1154.85" r="4" stroke="rgb(140,0,255)" stroke-width="2" fill="none"></circle>
<circle cx="1966.64" cy="1463.82" r="4" stroke="rgb(255,0,140)" stroke-width="2" fill="none"></circle>
<circle cx="5875.04" cy="655.977" r="4" stroke="rgb(255,0,140)" stroke-width="2" fill="none"></circle>
<circle cx="1547.32" cy="1061.45" r="4" stroke="rgb(4,0,255)" stroke-width="2" fill="none"></circle>
<circle cx="4898.51" cy="668.049" r="4" stroke="rgb(4,0,255)" stroke-width="2" fill="none"></circle>
<circle cx="1338.85" cy="1361.78" r="4" stroke="rgb(0,187,255)" stroke-width="2" fill="none"></circle>
<circle cx="4312.5" cy="684.062" r="4" stroke="rgb(0,187,255)" stroke-width="2" fill="none"></circle>
<circle cx="2318.01" cy="858.113" r="4" stroke="rgb(0,255,4)" stroke-width="2" fill="none"></circle>
<circle cx="6543.3" cy="1317.88" r="4" stroke="rgb(0,255,4)" stroke-width="2" fill="none"></circle>
<circle cx="1338.85" cy="1361.78" r="4" stroke="rgb(255,0,106)" stroke-width="2" fill="none"></circle>
<circle cx="4320.76" cy="688.287" r="4" stroke="rgb(255,0,106)" stroke-width="2" fill="none"></circle>
<circle cx="1687.65" cy="1026.92" r="4" stroke="rgb(0,67,255)" stroke-width="2" fill="none"></circle>
<circle cx="4930.31" cy="691.95" r="4" stroke="rgb(0,67,255)" stroke-width="2" fill="none"></circle>
<circle cx="1543.72" cy="1303.08" r="4" stroke="rgb(0,255,131)" stroke-width="2" fill="none"></circle>
<circle cx="4476.63" cy="696.992" r="4" stroke="rgb(0,255,131)" stroke-width="2" fill="none"></circle>
<circle cx="2716.76" cy="1231.15" r="4" stroke="rgb(255,0,140)" stroke-width="2" fill="none"></circle>
<circle cx="5657.26" cy="1190.48" r="4" stroke="rgb(255,0,140)" stroke-width="2" fill="none"></circle>
<circle cx="2508.74" cy="2033.47" r="4" stroke="rgb(216,0,255)" stroke-width="2" fill="none"></circle>
<circle cx="5816.2" cy="1214.92" r="4" stroke="rgb(216,0,255)" stroke-width="2" fill="none"></circle>
<circle cx="2720.63" cy="863.623" r="4" stroke="rgb(0,255,220)" stroke-width="2" fill="none"></circle>
<circle cx="6563.07" cy="1620.75" r="4" stroke="rgb(0,255,220)" stroke-width="2" fill="none"></circle>
<circle cx="1693.7" cy="1059.69" r="4" stroke="rgb(255,148,0)" stroke-width="2" fill="none"></circle>
<circle cx="4840.51" cy="858.126" r="4" stroke="rgb(255,148,0)" stroke-width="2" fill="none"></circle>
<circle cx="1693.7" cy="1059.69" r="4" stroke="rgb(255,0,38)" stroke-width="2" fill="none"></circle>
<circle cx="4840.51" cy="858.126" r="4" stroke="rgb(255,0,38)" stroke-width="2" fill="none"></circle>
<circle cx="1592.06" cy="1358.96" r="4" stroke="rgb(0,255,114)" stroke-width="2" fill="none"></circle>
<circle cx="4729.66" cy="1876.34" r="4" stroke="rgb(0,255,114)" stroke-width="2" fill="none"></circle>
<circle cx="2366.98" cy="1927.88" r="4" stroke="rgb(0,242,255)" stroke-width="2" fill="none"></circle>
<circle cx="5787.18" cy="1249.7" r="4" stroke="rgb(0,242,255)" stroke-width="2" fill="none"></circle>
<circle cx="1514.89" cy="1254.12" r="4" stroke="rgb(250,0,255)" stroke-width="2" fill="none"></circle>
<circle cx="4615.8" cy="844.769" r="4" stroke="rgb(250,0,255)" stroke-width="2" fill="none"></circle>
<circle cx="2998.29" cy="1832.69" r="4" stroke="rgb(255,0,250)" stroke-width="2" fill="none"></circle>
<circle cx="4881.72" cy="1671.04" r="4" stroke="rgb(255,0,250)" stroke-width="2" fill="none"></circle>
<circle cx="1450.68" cy="1238.81" r="4" stroke="rgb(255,0,68)" stroke-width="2" fill="none"></circle>
<circle cx="4713.89" cy="1907.78" r="4" stroke="rgb(255,0,68)" stroke-width="2" fill="none"></circle>
<circle cx="2674.31" cy="1450.14" r="4" stroke="rgb(255,195,0)" stroke-width="2" fill="none"></circle>
<circle cx="5363.84" cy="1776.96" r="4" stroke="rgb(255,195,0)" stroke-width="2" fill="none"></circle>
<circle cx="1334.41" cy="1473.83" r="4" stroke="rgb(0,255,144)" stroke-width="2" fill="none"></circle>
<circle cx="6662.78" cy="1935.16" r="4" stroke="rgb(0,255,144)" stroke-width="2" fill="none"></circle>
<circle cx="1894.28" cy="930.472" r="4" stroke="rgb(255,144,0)" stroke-width="2" fill="none"></circle>
<circle cx="5398.93" cy="1292.64" r="4" stroke="rgb(255,144,0)" stroke-width="2" fill="none"></circle>
<circle cx="1881.2" cy="1031.12" r="4" stroke="rgb(97,255,0)" stroke-width="2" fill="none"></circle>
<circle cx="5234.08" cy="1954.78" r="4" stroke="rgb(97,255,0)" stroke-width="2" fill="none"></circle>
<circle cx="2712.82" cy="1894.77" r="4" stroke="rgb(255,0,42)" stroke-width="2" fill="none"></circle>
<circle cx="5881.43" cy="1302.23" r="4" stroke="rgb(255,0,42)" stroke-width="2" fill="none"></circle>
<circle cx="2008.27" cy="1804.71" r="4" stroke="rgb(212,0,255)" stroke-width="2" fill="none"></circle>
<circle cx="6203.36" cy="1834.79" r="4" stroke="rgb(212,0,255)" stroke-width="2" fill="none"></circle>
<circle cx="1726.74" cy="1065.58" r="4" stroke="rgb(255,157,0)" stroke-width="2" fill="none"></circle>
<circle cx="4876.6" cy="495.067" r="4" stroke="rgb(255,157,0)" stroke-width="2" fill="none"></circle>
<circle cx="2252.63" cy="998.827" r="4" stroke="rgb(0,255,123)" stroke-width="2" fill="none"></circle>
<circle cx="5635.81" cy="1986.6" r="4" stroke="rgb(0,255,123)" stroke-width="2" fill="none"></circle>
<circle cx="3099.27" cy="1434.6" r="4" stroke="rgb(255,0,4)" stroke-width="2" fill="none"></circle>
<circle cx="6313.02" cy="2008.47" r="4" stroke="rgb(255,0,4)" stroke-width="2" fill="none"></circle>
<circle cx="1611.86" cy="1856.07" r="4" stroke="rgb(131,255,0)" stroke-width="2" fill="none"></circle>
<circle cx="4892.81" cy="1588.14" r="4" stroke="rgb(131,255,0)" stroke-width="2" fill="none"></circle>
<circle cx="3121.88" cy="1223.5" r="4" stroke="rgb(0,127,255)" stroke-width="2" fill="none"></circle>
<circle cx="6318.17" cy="1970.53" r="4" stroke="rgb(0,127,255)" stroke-width="2" fill="none"></circle>
<circle cx="1344.97" cy="1750.64" r="4" stroke="rgb(0,255,237)" stroke-width="2" fill="none"></circle>
<circle cx="4762.88" cy="1629.57" r="4" stroke="rgb(0,255,237)" stroke-width="2" fill="none"></circle>
<circle cx="2998.29" cy="1832.69" r="4" stroke="rgb(212,0,255)" stroke-width="2" fill="none"></circle>
<circle cx="4892.04" cy="1666.9" r="4" stroke="rgb(212,0,255)" stroke-width="2" fill="none"></circle>
<circle cx="1713.42" cy="2185.35" r="4" stroke="rgb(0,255,12)" stroke-width="2" fill="none"></circle>
<circle cx="6360.66" cy="1382.99" r="4" stroke="rgb(0,255,12)" stroke-width="2" fill="none"></circle>
<circle cx="3048.77" cy="1342.34" r="4" stroke="rgb(0,255,97)" stroke-width="2" fill="none"></circle>
<circle cx="5527.72" cy="1390.93" r="4" stroke="rgb(0,255,97)" stroke-width="2" fill="none"></circle>
<circle cx="1048.54" cy="1314.29" r="4" stroke="rgb(255,182,0)" stroke-width="2" fill="none"></circle>
<circle cx="4309.04" cy="638.634" r="4" stroke="rgb(255,182,0)" stroke-width="2" fill="none"></circle>
<circle cx="1712.51" cy="1127.58" r="4" stroke="rgb(0,208,255)" stroke-width="2" fill="none"></circle>
<circle cx="4814.32" cy="639.952" r="4" stroke="rgb(0,208,255)" stroke-width="2" fill="none"></circle>
<circle cx="1927.63" cy="1087.97" r="4" stroke="rgb(0,255,72)" stroke-width="2" fill="none"></circle>
<circle cx="4911.46" cy="649.79" r="4" stroke="rgb(0,255,72)" stroke-width="2" fill="none"></circle>
<circle cx="1675.45" cy="953.379" r="4" stroke="rgb(255,80,0)" stroke-width="2" fill="none"></circle>
<circle cx="4591.6" cy="683.202" r="4" stroke="rgb(255,80,0)" stroke-width="2" fill="none"></circle>
<circle cx="1632.86" cy="1208.84" r="4" stroke="rgb(255,233,0)" stroke-width="2" fill="none"></circle>
<circle cx="4582.92" cy="686.388" r="4" stroke="rgb(255,233,0)" stroke-width="2" fill="none"></circle>
<circle cx="1517.92" cy="1028.88" r="4" stroke="rgb(203,0,255)" stroke-width="2" fill="none"></circle>
<circle cx="4886.25" cy="882.141" r="4" stroke="rgb(203,0,255)" stroke-width="2" fill="none"></circle>
<circle cx="3121.88" cy="1223.5" r="4" stroke="rgb(0,93,255)" stroke-width="2" fill="none"></circle>
<circle cx="5325.85" cy="2065.74" r="4" stroke="rgb(0,93,255)" stroke-width="2" fill="none"></circle>
<circle cx="3121.88" cy="1223.5" r="4" stroke="rgb(0,89,255)" stroke-width="2" fill="none"></circle>
<circle cx="5343.96" cy="2075.7" r="4" stroke="rgb(0,89,255)" stroke-width="2" fill="none"></circle>
<circle cx="2998.29" cy="1832.69" r="4" stroke="rgb(255,0,119)" stroke-width="2" fill="none"></circle>
<circle cx="4483.28" cy="2669.76" r="4" stroke="rgb(255,0,119)" stroke-width="2" fill="none"></circle>
<circle cx="1518.77" cy="1077.47" r="4" stroke="rgb(0,255,21)" stroke-width="2" fill="none"></circle>
<circle cx="4902.98" cy="954.42" r="4" stroke="rgb(0,255,21)" stroke-width="2" fill="none"></circle>
<circle cx="1528.09" cy="1087.34" r="4" stroke="rgb(0,127,255)" stroke-width="2" fill="none"></circle>
<circle cx="4907.93" cy="964.713" r="4" stroke="rgb(0,127,255)" stroke-width="2" fill="none"></circle>
<circle cx="2020.62" cy="1227.91" r="4" stroke="rgb(255,0,33)" stroke-width="2" fill="none"></circle>
<circle cx="4934.63" cy="2444.84" r="4" stroke="rgb(255,0,33)" stroke-width="2" fill="none"></circle>
<circle cx="1454.53" cy="1020.68" r="4" stroke="rgb(255,0,221)" stroke-width="2" fill="none"></circle>
<circle cx="5728.05" cy="1133.52" r="4" stroke="rgb(255,0,221)" stroke-width="2" fill="none"></circle>
<circle cx="2392.68" cy="995.384" r="4" stroke="rgb(0,255,123)" stroke-width="2" fill="none"></circle>
<circle cx="6618.33" cy="2029.91" r="4" stroke="rgb(0,255,123)" stroke-width="2" fill="none"></circle>
<circle cx="3039.63" cy="1039.29" r="4" stroke="rgb(225,0,255)" stroke-width="2" fill="none"></circle>
<circle cx="6354.24" cy="1249.68" r="4" stroke="rgb(225,0,255)" stroke-width="2" fill="none"></circle>
<circle cx="2032.38" cy="1146.11" r="4" stroke="rgb(221,0,255)" stroke-width="2" fill="none"></circle>
<circle cx="5648.31" cy="526.466" r="4" stroke="rgb(221,0,255)" stroke-width="2" fill="none"></circle>
<circle cx="1374.07" cy="1042.82" r="4" stroke="rgb(221,255,0)" stroke-width="2" fill="none"></circle>
<circle cx="4802.7" cy="616.213" r="4" stroke="rgb(221,255,0)" stroke-width="2" fill="none"></circle>
<circle cx="2348.67" cy="1931.23" r="4" stroke="rgb(140,255,0)" stroke-width="2" fill="none"></circle>
<circle cx="5642.17" cy="2061.38" r="4" stroke="rgb(140,255,0)" stroke-width="2" fill="none"></circle>
<circle cx="1704.09" cy="1021.28" r="4" stroke="rgb(0,178,255)" stroke-width="2" fill="none"></circle>
<circle cx="4847.07" cy="864.893" r="4" stroke="rgb(0,178,255)" stroke-width="2" fill="none"></circle>
<circle cx="2310.47" cy="1054.57" r="4" stroke="rgb(0,255,191)" stroke-width="2" fill="none"></circle>
<circle cx="5348.95" cy="2278.29" r="4" stroke="rgb(0,255,191)" stroke-width="2" fill="none"></circle>
<circle cx="2668.13" cy="1217.36" r="4" stroke="rgb(255,0,216)" stroke-width="2" fill="none"></circle>
<circle cx="5534.51" cy="2340.69" r="4" stroke="rgb(255,0,216)" stroke-width="2" fill="none"></circle>
<circle cx="1533.54" cy="1859.7" r="4" stroke="rgb(255,0,0)" stroke-width="2" fill="none"></circle>
<circle cx="4666.46" cy="2117.41" r="4" stroke="rgb(255,0,0)" stroke-width="2" fill="none"></circle>
<circle cx="2998.29" cy="1832.69" r="4" stroke="rgb(195,255,0)" stroke-width="2" fill="none"></circle>
<circle cx="4483.7" cy="2670.02" r="4" stroke="rgb(195,255,0)" stroke-width="2" fill="none"></circle>
<circle cx="2138.47" cy="1202.8" r="4" stroke="rgb(93,255,0)" stroke-width="2" fill="none"></circle>
<circle cx="5039.7" cy="2449.78" r="4" stroke="rgb(93,255,0)" stroke-width="2" fill="none"></circle>
<circle cx="1595.26" cy="1245.37" r="4" stroke="rgb(255,0,4)" stroke-width="2" fill="none"></circle>
<circle cx="6072.08" cy="2452.56" r="4" stroke="rgb(255,0,4)" stroke-width="2" fill="none"></circle>
<circle cx="2858.26" cy="1355.34" r="4" stroke="rgb(255,153,0)" stroke-width="2" fill="none"></circle>
<circle cx="5750.94" cy="491.607" r="4" stroke="rgb(255,153,0)" stroke-width="2" fill="none"></circle>
<circle cx="2108.15" cy="1200.86" r="4" stroke="rgb(255,0,221)" stroke-width="2" fill="none"></circle>
<circle cx="5014.1" cy="2441.08" r="4" stroke="rgb(255,0,221)" stroke-width="2" fill="none"></circle>
<circle cx="1595.26" cy="1245.37" r="4" stroke="rgb(0,255,237)" stroke-width="2" fill="none"></circle>
<circle cx="6073.22" cy="2451.31" r="4" stroke="rgb(0,255,237)" stroke-width="2" fill="none"></circle>
<circle cx="2729.92" cy="1027.82" r="4" stroke="rgb(255,0,144)" stroke-width="2" fill="none"></circle>
<circle cx="6615.13" cy="1600.73" r="4" stroke="rgb(255,0,144)" stroke-width="2" fill="none"></circle>
<circle cx="2128.61" cy="996.332" r="4" stroke="rgb(255,0,237)" stroke-width="2" fill="none"></circle>
<circle cx="5891.85" cy="966.366" r="4" stroke="rgb(255,0,237)" stroke-width="2" fill="none"></circle>
<circle cx="2295.91" cy="1051.66" r="4" stroke="rgb(255,0,174)" stroke-width="2" fill="none"></circle>
<circle cx="5331.93" cy="2267.09" r="4" stroke="rgb(255,0,174)" stroke-width="2" fill="none"></circle>
<circle cx="1062.89" cy="1326.43" r="4" stroke="rgb(255,38,0)" stroke-width="2" fill="none"></circle>
<circle cx="6702.07" cy="1845.28" r="4" stroke="rgb(255,38,0)" stroke-width="2" fill="none"></circle>
<circle cx="3116.52" cy="1327.58" r="4" stroke="rgb(0,255,63)" stroke-width="2" fill="none"></circle>
<circle cx="5743.47" cy="1187.28" r="4" stroke="rgb(0,255,63)" stroke-width="2" fill="none"></circle>
<circle cx="1713.42" cy="2185.35" r="4" stroke="rgb(101,255,0)" stroke-width="2" fill="none"></circle>
<circle cx="6565.78" cy="1826.87" r="4" stroke="rgb(101,255,0)" stroke-width="2" fill="none"></circle>
<circle cx="2042.39" cy="1163.46" r="4" stroke="rgb(85,0,255)" stroke-width="2" fill="none"></circle>
<circle cx="4979.82" cy="2345.36" r="4" stroke="rgb(85,0,255)" stroke-width="2" fill="none"></circle>
<circle cx="2042.39" cy="1163.46" r="4" stroke="rgb(242,255,0)" stroke-width="2" fill="none"></circle>
<circle cx="4979.82" cy="2345.36" r="4" stroke="rgb(242,255,0)" stroke-width="2" fill="none"></circle>
<circle cx="2302.43" cy="1158.48" r="4" stroke="rgb(67,0,255)" stroke-width="2" fill="none"></circle>
<circle cx="5257.21" cy="2414.36" r="4" stroke="rgb(67,0,255)" stroke-width="2" fill="none"></circle>
<circle cx="1984.23" cy="1230.77" r="4" stroke="rgb(255,0,42)" stroke-width="2" fill="none"></circle>
<circle cx="4898.98" cy="2433.58" r="4" stroke="rgb(255,0,42)" stroke-width="2" fill="none"></circle>
<circle cx="1984.23" cy="1230.77" r="4" stroke="rgb(178,0,255)" stroke-width="2" fill="none"></circle>
<circle cx="4888.89" cy="2429" r="4" stroke="rgb(178,0,255)" stroke-width="2" fill="none"></circle>
<circle cx="2572.28" cy="2032.1" r="4" stroke="rgb(80,255,0)" stroke-width="2" fill="none"></circle>
<circle cx="6566.34" cy="1014.57" r="4" stroke="rgb(80,255,0)" stroke-width="2" fill="none"></circle>
<circle cx="2355.33" cy="979.626" r="4" stroke="rgb(21,255,0)" stroke-width="2" fill="none"></circle>
<circle cx="4625.87" cy="2454.51" r="4" stroke="rgb(21,255,0)" stroke-width="2" fill="none"></circle>
<circle cx="1403.58" cy="1076.65" r="4" stroke="rgb(255,17,0)" stroke-width="2" fill="none"></circle>
<circle cx="5255.21" cy="2221.58" r="4" stroke="rgb(255,17,0)" stroke-width="2" fill="none"></circle>
<circle cx="1152.95" cy="1203.4" r="4" stroke="rgb(114,255,0)" stroke-width="2" fill="none"></circle>
<circle cx="6446.33" cy="1368.08" r="4" stroke="rgb(114,255,0)" stroke-width="2" fill="none"></circle>
</svg>