<?xml version="1.0" standalone="yes"?>
<!-- SVG graphic -->
<svg xmlns='http://www.w3.org/2000/svg' xmlns:xlink='http://www.w3.org/1999/xlink'
width="8064px" height="3024px" preserveAspectRatio="xMinYMin meet" viewBox="0 0 8064 3024" version="1.1">
<image x="0" y="0" width="4032px" height="3024px" opacity="1" xlink:href="/home/jeong/Code/2D-to-3D-Modeling-using-AI/Make3D/Image/20200227_180649.jpg"/>
<image x="4032" y="0" width="4032px" height="3024px" opacity="1" xlink:href="/home/jeong/Code/2D-to-3D-Modeling-using-AI/Make3D/Image/20200227_180752.jpg"/>
<polyline points="1486.04,1041.35,5824.24,858.071" stroke="rgb(199,255,0)" stroke-width="2" fill="none"></polyline>
<polyline points="1174.5,1544.3,5135.6,179.214" stroke="rgb(255,0,127)" stroke-width="2" fill="none"></polyline>
<polyline points="1777.96,2199.76,5284.77,197.099" stroke="rgb(255,216,0)" stroke-width="2" fill="none"></polyline>
<polyline points="1267.61,1261.76,5927.9,787.255" stroke="rgb(255,0,72)" stroke-width="2" fill="none"></polyline>
<polyline points="1628.53,2209.61,5047.42,144.786" stroke="rgb(0,131,255)" stroke-width="2" fill="none"></polyline>
<polyline points="1475.7,1535.46,5184.01,221.917" stroke="rgb(255,89,0)" stroke-width="2" fill="none"></polyline>
<polyline points="1444.77,1261.97,5162.99,1930.01" stroke="rgb(255,0,101)" stroke-width="2" fill="none"></polyline>
<polyline points="3017.22,1802.04,6109.09,257.762" stroke="rgb(114,255,0)" stroke-width="2" fill="none"></polyline>
<polyline points="1267.61,1261.76,5680.26,795.271" stroke="rgb(255,55,0)" stroke-width="2" fill="none"></polyline>
<polyline points="1881.2,1031.12,4839.9,268.689" stroke="rgb(42,255,0)" stroke-width="2" fill="none"></polyline>
<polyline points="1713.42,2185.35,6642.91,1875.52" stroke="rgb(0,255,165)" stroke-width="2" fill="none"></polyline>
<polyline points="2348.67,1931.23,5652.6,730.028" stroke="rgb(255,0,110)" stroke-width="2" fill="none"></polyline>
<polyline points="1543.45,1977.48,7074.47,877.162" stroke="rgb(0,255,229)" stroke-width="2" fill="none"></polyline>
<polyline points="1364.63,1938.84,5803.78,197.863" stroke="rgb(242,255,0)" stroke-width="2" fill="none"></polyline>
<polyline points="2823.75,1409.99,6371.01,1894.63" stroke="rgb(255,106,0)" stroke-width="2" fill="none"></polyline>
<polyline points="3007.26,1774.66,5715.95,838.62" stroke="rgb(255,0,246)" stroke-width="2" fill="none"></polyline>
<polyline points="1736.15,2256.04,4715.12,745.654" stroke="rgb(255,225,0)" stroke-width="2" fill="none"></polyline>
<polyline points="2348.67,1931.23,5507.14,747.133" stroke="rgb(97,0,255)" stroke-width="2" fill="none"></polyline>
<polyline points="1881.2,1031.12,5425.87,2028.03" stroke="rgb(174,255,0)" stroke-width="2" fill="none"></polyline>
<polyline points="2629.25,1896.61,5505.96,344.948" stroke="rgb(0,33,255)" stroke-width="2" fill="none"></polyline>
<polyline points="1894.28,930.472,5612.88,1361.71" stroke="rgb(93,0,255)" stroke-width="2" fill="none"></polyline>
<polyline points="1048.54,1314.29,4775.23,361.315" stroke="rgb(0,255,203)" stroke-width="2" fill="none"></polyline>
<polyline points="1220.64,1620.17,6815.92,372.405" stroke="rgb(0,21,255)" stroke-width="2" fill="none"></polyline>
<polyline points="1213.1,1240.6,5437.66,377.175" stroke="rgb(182,255,0)" stroke-width="2" fill="none"></polyline>
<polyline points="1505.55,1287.92,6128.66,392.863" stroke="rgb(0,255,246)" stroke-width="2" fill="none"></polyline>
<polyline points="1927.63,1087.97,5080.6,912.199" stroke="rgb(255,212,0)" stroke-width="2" fill="none"></polyline>
<polyline points="2629.25,1896.61,5770.58,427.352" stroke="rgb(242,255,0)" stroke-width="2" fill="none"></polyline>
<polyline points="1805.7,1107.11,5132.22,1001.97" stroke="rgb(255,174,0)" stroke-width="2" fill="none"></polyline>
<polyline points="1334.41,1473.83,6776.9,2026.88" stroke="rgb(72,255,0)" stroke-width="2" fill="none"></polyline>
<polyline points="3084.07,1123.62,5750.2,437.836" stroke="rgb(0,255,182)" stroke-width="2" fill="none"></polyline>
<polyline points="1793.22,928.024,5486.59,2041.05" stroke="rgb(93,255,0)" stroke-width="2" fill="none"></polyline>
<polyline points="1140.3,1171.74,5148.28,1035.13" stroke="rgb(255,204,0)" stroke-width="2" fill="none"></polyline>
<polyline points="2337.82,1931.32,5937.87,2054.6" stroke="rgb(255,21,0)" stroke-width="2" fill="none"></polyline>
<polyline points="2128.79,1044.77,6146.9,420.332" stroke="rgb(255,93,0)" stroke-width="2" fill="none"></polyline>
<polyline points="1727.55,1115.47,5155.49,828.459" stroke="rgb(102,0,255)" stroke-width="2" fill="none"></polyline>
<polyline points="1267.61,1261.76,5459.55,829.568" stroke="rgb(0,106,255)" stroke-width="2" fill="none"></polyline>
<polyline points="1727.55,1115.47,5811.25,1460.07" stroke="rgb(255,182,0)" stroke-width="2" fill="none"></polyline>
<polyline points="1333.13,1033.96,5923.53,2114.91" stroke="rgb(0,0,255)" stroke-width="2" fill="none"></polyline>
<polyline points="2537.67,1900.57,6910.85,479.009" stroke="rgb(0,255,254)" stroke-width="2" fill="none"></polyline>
<polyline points="3099.27,1434.6,6317.71,2173.45" stroke="rgb(255,242,0)" stroke-width="2" fill="none"></polyline>
<polyline points="2142.67,1976.12,4834.31,2187.05" stroke="rgb(255,0,38)" stroke-width="2" fill="none"></polyline>
<polyline points="2577.34,1905.86,5811.42,501.549" stroke="rgb(255,0,89)" stroke-width="2" fill="none"></polyline>
<polyline points="2003.99,1981.93,4822.21,2373.12" stroke="rgb(97,0,255)" stroke-width="2" fill="none"></polyline>
<polyline points="2045.77,1949.03,5370.55,468.77" stroke="rgb(0,255,191)" stroke-width="2" fill="none"></polyline>
<polyline points="1027.46,1494.04,5491.02,2426.34" stroke="rgb(255,182,0)" stroke-width="2" fill="none"></polyline>
<polyline points="1675.45,953.379,5189.03,2430.87" stroke="rgb(203,0,255)" stroke-width="2" fill="none"></polyline>
<polyline points="2629.25,1896.61,5568.83,559.074" stroke="rgb(55,255,0)" stroke-width="2" fill="none"></polyline>
<polyline points="2577.34,1905.86,5707.44,558.25" stroke="rgb(101,255,0)" stroke-width="2" fill="none"></polyline>
<polyline points="1213.1,1240.6,5737.89,564.306" stroke="rgb(242,255,0)" stroke-width="2" fill="none"></polyline>
<polyline points="2629.25,1896.61,5421.65,566.138" stroke="rgb(0,229,255)" stroke-width="2" fill="none"></polyline>
<polyline points="2629.25,1896.61,5421.65,566.138" stroke="rgb(0,165,255)" stroke-width="2" fill="none"></polyline>
<polyline points="1897.13,1837.77,5417.44,2292.44" stroke="rgb(0,182,255)" stroke-width="2" fill="none"></polyline>
<polyline points="1547.32,1061.45,5058.73,935.279" stroke="rgb(0,55,255)" stroke-width="2" fill="none"></polyline>
<polyline points="2829.1,2003.53,5897.67,1611.76" stroke="rgb(187,255,0)" stroke-width="2" fill="none"></polyline>
<polyline points="2624.03,2054.14,5464.02,584.166" stroke="rgb(148,0,255)" stroke-width="2" fill="none"></polyline>
<polyline points="1380.99,1970.88,4947.48,613.34" stroke="rgb(157,0,255)" stroke-width="2" fill="none"></polyline>
<polyline points="1376.43,993.136,5600.81,1339.48" stroke="rgb(255,0,8)" stroke-width="2" fill="none"></polyline>
<polyline points="2629.25,1896.61,5436.55,628.223" stroke="rgb(0,127,255)" stroke-width="2" fill="none"></polyline>
<polyline points="2629.25,1896.61,5436.55,628.223" stroke="rgb(255,0,178)" stroke-width="2" fill="none"></polyline>
<polyline points="2629.25,1896.61,5436.55,628.223" stroke="rgb(255,0,114)" stroke-width="2" fill="none"></polyline>
<polyline points="2629.25,1896.61,5436.55,628.223" stroke="rgb(255,55,0)" stroke-width="2" fill="none"></polyline>
<polyline points="2608.7,2010.19,5114.08,1339.96" stroke="rgb(208,0,255)" stroke-width="2" fill="none"></polyline>
<polyline points="2624.03,2054.14,6148.15,2633.35" stroke="rgb(255,93,0)" stroke-width="2" fill="none"></polyline>
<polyline points="1450.68,1238.81,5133.29,207.105" stroke="rgb(255,80,0)" stroke-width="2" fill="none"></polyline>
<polyline points="1704.09,1021.28,5084.07,1115.09" stroke="rgb(255,0,208)" stroke-width="2" fill="none"></polyline>
<polyline points="2629.25,1896.61,5543.09,676.943" stroke="rgb(195,0,255)" stroke-width="2" fill="none"></polyline>
<polyline points="1213.1,1240.6,5613.28,602.232" stroke="rgb(59,255,0)" stroke-width="2" fill="none"></polyline>
<polyline points="2629.25,1896.61,5872.34,682.699" stroke="rgb(255,0,25)" stroke-width="2" fill="none"></polyline>
<polyline points="2629.25,1896.61,5872.34,682.699" stroke="rgb(255,161,0)" stroke-width="2" fill="none"></polyline>
<polyline points="1711.54,1904.8,5301.66,1716" stroke="rgb(195,0,255)" stroke-width="2" fill="none"></polyline>
<polyline points="1865.87,1785.07,6979.3,693.617" stroke="rgb(182,0,255)" stroke-width="2" fill="none"></polyline>
<polyline points="1805.7,1107.11,5057.91,1160.89" stroke="rgb(255,123,0)" stroke-width="2" fill="none"></polyline>
<polyline points="1489.58,1693.08,5782.13,1166.18" stroke="rgb(106,0,255)" stroke-width="2" fill="none"></polyline>
<polyline points="1267.61,1261.76,5131.01,1514.26" stroke="rgb(0,229,255)" stroke-width="2" fill="none"></polyline>
<polyline points="1512.22,1459.74,6547.76,1744.34" stroke="rgb(225,255,0)" stroke-width="2" fill="none"></polyline>
<polyline points="1894.28,930.472,5652.18,1744.81" stroke="rgb(255,0,221)" stroke-width="2" fill="none"></polyline>
<polyline points="1547.32,1061.45,4953.52,775.573" stroke="rgb(255,0,59)" stroke-width="2" fill="none"></polyline>
<polyline points="2763.27,1328.04,5930.28,1606.14" stroke="rgb(255,195,0)" stroke-width="2" fill="none"></polyline>
<polyline points="1267.61,1261.76,5552.12,816.296" stroke="rgb(157,0,255)" stroke-width="2" fill="none"></polyline>
<polyline points="2010.89,1577.71,5651.45,851.006" stroke="rgb(255,212,0)" stroke-width="2" fill="none"></polyline>
<polyline points="1883.08,1099.15,5148.72,1717.91" stroke="rgb(63,255,0)" stroke-width="2" fill="none"></polyline>
<polyline points="2045.77,1949.03,5373.75,489.135" stroke="rgb(8,255,0)" stroke-width="2" fill="none"></polyline>
<polyline points="1438.84,1710.72,5790.21,1927.24" stroke="rgb(29,0,255)" stroke-width="2" fill="none"></polyline>
<polyline points="1543.72,1303.08,4965.39,1959.31" stroke="rgb(0,153,255)" stroke-width="2" fill="none"></polyline>
<polyline points="1543.72,1303.08,4965.39,1959.31" stroke="rgb(229,255,0)" stroke-width="2" fill="none"></polyline>
<polyline points="1334.41,1473.83,5524.26,1784.14" stroke="rgb(255,144,0)" stroke-width="2" fill="none"></polyline>
<polyline points="1509.34,1495.7,4431.63,669.727" stroke="rgb(0,255,4)" stroke-width="2" fill="none"></polyline>
<polyline points="1421.87,985.711,6014.26,2305.82" stroke="rgb(237,255,0)" stroke-width="2" fill="none"></polyline>
<polyline points="2774.83,1445.8,5602.35,2317.48" stroke="rgb(17,0,255)" stroke-width="2" fill="none"></polyline>
<polyline points="2774.83,1445.8,5613.75,2341.77" stroke="rgb(255,0,208)" stroke-width="2" fill="none"></polyline>
<polyline points="2737.69,1383.46,5613.75,2341.77" stroke="rgb(127,0,255)" stroke-width="2" fill="none"></polyline>
<polyline points="2737.69,1383.46,5625.23,2368.09" stroke="rgb(76,0,255)" stroke-width="2" fill="none"></polyline>
<polyline points="3121.88,1223.5,5555.96,2440.49" stroke="rgb(0,0,255)" stroke-width="2" fill="none"></polyline>
<polyline points="2661.7,820.525,5944.11,2091.7" stroke="rgb(221,0,255)" stroke-width="2" fill="none"></polyline>
<polyline points="2291.83,1926.58,5730.47,2262.39" stroke="rgb(0,255,123)" stroke-width="2" fill="none"></polyline>
<polyline points="1726.74,1065.58,5101.72,725.977" stroke="rgb(0,208,255)" stroke-width="2" fill="none"></polyline>
<polyline points="1471.67,1062.27,6240.11,373.248" stroke="rgb(127,255,0)" stroke-width="2" fill="none"></polyline>
<polyline points="1533.54,1859.7,4928.33,2365.58" stroke="rgb(63,0,255)" stroke-width="2" fill="none"></polyline>
<polyline points="2790.1,1459.81,6408.41,407.676" stroke="rgb(0,229,255)" stroke-width="2" fill="none"></polyline>
<polyline points="1645.41,1212.38,4861.63,1071.7" stroke="rgb(0,255,33)" stroke-width="2" fill="none"></polyline>
<polyline points="2751.38,1470.32,6713.34,2541.54" stroke="rgb(255,225,0)" stroke-width="2" fill="none"></polyline>
<polyline points="2451.46,2020.83,5896.05,1255.24" stroke="rgb(46,255,0)" stroke-width="2" fill="none"></polyline>
<polyline points="1357.86,1330.7,4779.48,2630.74" stroke="rgb(255,127,0)" stroke-width="2" fill="none"></polyline>
<polyline points="2032.38,1146.11,5222.2,2589.53" stroke="rgb(255,0,178)" stroke-width="2" fill="none"></polyline>
<polyline points="1588.21,1235.47,4909.55,589.479" stroke="rgb(0,255,203)" stroke-width="2" fill="none"></polyline>
<polyline points="1520.55,2210.72,6265.45,1009.66" stroke="rgb(97,255,0)" stroke-width="2" fill="none"></polyline>
<polyline points="3004.21,1839.49,5102.93,1964.28" stroke="rgb(0,255,80)" stroke-width="2" fill="none"></polyline>
<polyline points="1378.86,1055.46,5027.62,842.999" stroke="rgb(0,255,144)" stroke-width="2" fill="none"></polyline>
<polyline points="1534.69,1322.34,4978.58,2142.8" stroke="rgb(255,63,0)" stroke-width="2" fill="none"></polyline>
<polyline points="2261.42,957.175,5909.79,2169.67" stroke="rgb(203,0,255)" stroke-width="2" fill="none"></polyline>
<polyline points="2729.92,1027.82,6881.29,2068.81" stroke="rgb(187,255,0)" stroke-width="2" fill="none"></polyline>
<polyline points="1339.03,1008.57,4980.01,752.34" stroke="rgb(0,255,0)" stroke-width="2" fill="none"></polyline>
<polyline points="2218.57,1581.6,6141.32,2183.52" stroke="rgb(161,0,255)" stroke-width="2" fill="none"></polyline>
<polyline points="1374.07,1042.82,5024.89,824.1" stroke="rgb(255,0,153)" stroke-width="2" fill="none"></polyline>
<polyline points="1561.75,1758.59,6282.1,2545.12" stroke="rgb(0,187,255)" stroke-width="2" fill="none"></polyline>
<polyline points="2977.51,2016.67,6275.41,2581.12" stroke="rgb(255,0,68)" stroke-width="2" fill="none"></polyline>
<polyline points="2977.51,2016.67,6279.79,2579.44" stroke="rgb(0,42,255)" stroke-width="2" fill="none"></polyline>
<polyline points="3335.46,1482.56,5081.46,2675.79" stroke="rgb(255,0,182)" stroke-width="2" fill="none"></polyline>
<polyline points="1645.41,1212.38,4863.31,1074.29" stroke="rgb(170,0,255)" stroke-width="2" fill="none"></polyline>
<polyline points="1355.31,1013.48,4998.21,771.502" stroke="rgb(21,255,0)" stroke-width="2" fill="none"></polyline>
<polyline points="3112.91,1296.52,4811.81,604.158" stroke="rgb(0,255,89)" stroke-width="2" fill="none"></polyline>
<polyline points="1473.48,1534.48,4358.38,511.669" stroke="rgb(0,212,255)" stroke-width="2" fill="none"></polyline>
<polyline points="2836.9,2012.12,5327.27,731.064" stroke="rgb(255,55,0)" stroke-width="2" fill="none"></polyline>
<polyline points="1645.41,1212.38,4866.9,1079.5" stroke="rgb(255,89,0)" stroke-width="2" fill="none"></polyline>
<polyline points="1919.93,826.626,6362.22,1923.97" stroke="rgb(255,0,25)" stroke-width="2" fill="none"></polyline>
<polyline points="2128.61,996.332,6184.27,1424.91" stroke="rgb(255,144,0)" stroke-width="2" fill="none"></polyline>
<polyline points="1974.72,1189.84,5151.93,2599.15" stroke="rgb(148,255,0)" stroke-width="2" fill="none"></polyline>
<polyline points="2042.39,1163.46,5225.74,2612.48" stroke="rgb(153,255,0)" stroke-width="2" fill="none"></polyline>
<polyline points="2042.39,1163.46,5225.74,2612.48" stroke="rgb(0,255,174)" stroke-width="2" fill="none"></polyline>
<polyline points="1669.71,844.269,5447.99,881.275" stroke="rgb(131,0,255)" stroke-width="2" fill="none"></polyline>
<polyline points="1984.23,1230.77,5135.13,2655" stroke="rgb(0,114,255)" stroke-width="2" fill="none"></polyline>
<polyline points="2910.33,1945.81,6870.6,1320.07" stroke="rgb(0,110,255)" stroke-width="2" fill="none"></polyline>
<circle cx="1486.04" cy="1041.35" r="4" stroke="rgb(199,255,0)" stroke-width="2" fill="none"></circle>
<circle cx="5824.24" cy="858.071" r="4" stroke="rgb(199,255,0)" stroke-width="2" fill="none"></circle>
<circle cx="1174.5" cy="1544.3" r="4" stroke="rgb(255,0,127)" stroke-width="2" fill="none"></circle>
<circle cx="5135.6" cy="179.214" r="4" stroke="rgb(255,0,127)" stroke-width="2" fill="none"></circle>
<circle cx="1777.96" cy="2199.76" r="4" stroke="rgb(255,216,0)" stroke-width="2" fill="none"></circle>
<circle cx="5284.77" cy="197.099" r="4" stroke="rgb(255,216,0)" stroke-width="2" fill="none"></circle>
<circle cx="1267.61" cy="1261.76" r="4" stroke="rgb(255,0,72)" stroke-width="2" fill="none"></circle>
<circle cx="5927.9" cy="787.255" r="4" stroke="rgb(255,0,72)" stroke-width="2" fill="none"></circle>
<circle cx="1628.53" cy="2209.61" r="4" stroke="rgb(0,131,255)" stroke-width="2" fill="none"></circle>
<circle cx="5047.42" cy="144.786" r="4" stroke="rgb(0,131,255)" stroke-width="2" fill="none"></circle>
<circle cx="1475.7" cy="1535.46" r="4" stroke="rgb(255,89,0)" stroke-width="2" fill="none"></circle>
<circle cx="5184.01" cy="221.917" r="4" stroke="rgb(255,89,0)" stroke-width="2" fill="none"></circle>
<circle cx="1444.77" cy="1261.97" r="4" stroke="rgb(255,0,101)" stroke-width="2" fill="none"></circle>
<circle cx="5162.99" cy="1930.01" r="4" stroke="rgb(255,0,101)" stroke-width="2" fill="none"></circle>
<circle cx="3017.22" cy="1802.04" r="4" stroke="rgb(114,255,0)" stroke-width="2" fill="none"></circle>
<circle cx="6109.09" cy="257.762" r="4" stroke="rgb(114,255,0)" stroke-width="2" fill="none"></circle>
<circle cx="1267.61" cy="1261.76" r="4" stroke="rgb(255,55,0)" stroke-width="2" fill="none"></circle>
<circle cx="5680.26" cy="795.271" r="4" stroke="rgb(255,55,0)" stroke-width="2" fill="none"></circle>
<circle cx="1881.2" cy="1031.12" r="4" stroke="rgb(42,255,0)" stroke-width="2" fill="none"></circle>
<circle cx="4839.9" cy="268.689" r="4" stroke="rgb(42,255,0)" stroke-width="2" fill="none"></circle>
<circle cx="1713.42" cy="2185.35" r="4" stroke="rgb(0,255,165)" stroke-width="2" fill="none"></circle>
<circle cx="6642.91" cy="1875.52" r="4" stroke="rgb(0,255,165)" stroke-width="2" fill="none"></circle>
<circle cx="2348.67" cy="1931.23" r="4" stroke="rgb(255,0,110)" stroke-width="2" fill="none"></circle>
<circle cx="5652.6" cy="730.028" r="4" stroke="rgb(255,0,110)" stroke-width="2" fill="none"></circle>
<circle cx="1543.45" cy="1977.48" r="4" stroke="rgb(0,255,229)" stroke-width="2" fill="none"></circle>
<circle cx="7074.47" cy="877.162" r="4" stroke="rgb(0,255,229)" stroke-width="2" fill="none"></circle>
<circle cx="1364.63" cy="1938.84" r="4" stroke="rgb(242,255,0)" stroke-width="2" fill="none"></circle>
<circle cx="5803.78" cy="197.863" r="4" stroke="rgb(242,255,0)" stroke-width="2" fill="none"></circle>
<circle cx="2823.75" cy="1409.99" r="4" stroke="rgb(255,106,0)" stroke-width="2" fill="none"></circle>
<circle cx="6371.01" cy="1894.63" r="4" stroke="rgb(255,106,0)" stroke-width="2" fill="none"></circle>
<circle cx="3007.26" cy="1774.66" r="4" stroke="rgb(255,0,246)" stroke-width="2" fill="none"></circle>
<circle cx="5715.95" cy="838.62" r="4" stroke="rgb(255,0,246)" stroke-width="2" fill="none"></circle>
<circle cx="1736.15" cy="2256.04" r="4" stroke="rgb(255,225,0)" stroke-width="2" fill="none"></circle>
<circle cx="4715.12" cy="745.654" r="4" stroke="rgb(255,225,0)" stroke-width="2" fill="none"></circle>
<circle cx="2348.67" cy="1931.23" r="4" stroke="rgb(97,0,255)" stroke-width="2" fill="none"></circle>
<circle cx="5507.14" cy="747.133" r="4" stroke="rgb(97,0,255)" stroke-width="2" fill="none"></circle>
<circle cx="1881.2" cy="1031.12" r="4" stroke="rgb(174,255,0)" stroke-width="2" fill="none"></circle>
<circle cx="5425.87" cy="2028.03" r="4" stroke="rgb(174,255,0)" stroke-width="2" fill="none"></circle>
<circle cx="2629.25" cy="1896.61" r="4" stroke="rgb(0,33,255)" stroke-width="2" fill="none"></circle>
<circle cx="5505.96" cy="344.948" r="4" stroke="rgb(0,33,255)" stroke-width="2" fill="none"></circle>
<circle cx="1894.28" cy="930.472" r="4" stroke="rgb(93,0,255)" stroke-width="2" fill="none"></circle>
<circle cx="5612.88" cy="1361.71" r="4" stroke="rgb(93,0,255)" stroke-width="2" fill="none"></circle>
<circle cx="1048.54" cy="1314.29" r="4" stroke="rgb(0,255,203)" stroke-width="2" fill="none"></circle>
<circle cx="4775.23" cy="361.315" r="4" stroke="rgb(0,255,203)" stroke-width="2" fill="none"></circle>
<circle cx="1220.64" cy="1620.17" r="4" stroke="rgb(0,21,255)" stroke-width="2" fill="none"></circle>
<circle cx="6815.92" cy="372.405" r="4" stroke="rgb(0,21,255)" stroke-width="2" fill="none"></circle>
<circle cx="1213.1" cy="1240.6" r="4" stroke="rgb(182,255,0)" stroke-width="2" fill="none"></circle>
<circle cx="5437.66" cy="377.175" r="4" stroke="rgb(182,255,0)" stroke-width="2" fill="none"></circle>
<circle cx="1505.55" cy="1287.92" r="4" stroke="rgb(0,255,246)" stroke-width="2" fill="none"></circle>
<circle cx="6128.66" cy="392.863" r="4" stroke="rgb(0,255,246)" stroke-width="2" fill="none"></circle>
<circle cx="1927.63" cy="1087.97" r="4" stroke="rgb(255,212,0)" stroke-width="2" fill="none"></circle>
<circle cx="5080.6" cy="912.199" r="4" stroke="rgb(255,212,0)" stroke-width="2" fill="none"></circle>
<circle cx="2629.25" cy="1896.61" r="4" stroke="rgb(242,255,0)" stroke-width="2" fill="none"></circle>
<circle cx="5770.58" cy="427.352" r="4" stroke="rgb(242,255,0)" stroke-width="2" fill="none"></circle>
<circle cx="1805.7" cy="1107.11" r="4" stroke="rgb(255,174,0)" stroke-width="2" fill="none"></circle>
<circle cx="5132.22" cy="1001.97" r="4" stroke="rgb(255,174,0)" stroke-width="2" fill="none"></circle>
<circle cx="1334.41" cy="1473.83" r="4" stroke="rgb(72,255,0)" stroke-width="2" fill="none"></circle>
<circle cx="6776.9" cy="2026.88" r="4" stroke="rgb(72,255,0)" stroke-width="2" fill="none"></circle>
<circle cx="3084.07" cy="1123.62" r="4" stroke="rgb(0,255,182)" stroke-width="2" fill="none"></circle>
<circle cx="5750.2" cy="437.836" r="4" stroke="rgb(0,255,182)" stroke-width="2" fill="none"></circle>
<circle cx="1793.22" cy="928.024" r="4" stroke="rgb(93,255,0)" stroke-width="2" fill="none"></circle>
<circle cx="5486.59" cy="2041.05" r="4" stroke="rgb(93,255,0)" stroke-width="2" fill="none"></circle>
<circle cx="1140.3" cy="1171.74" r="4" stroke="rgb(255,204,0)" stroke-width="2" fill="none"></circle>
<circle cx="5148.28" cy="1035.13" r="4" stroke="rgb(255,204,0)" stroke-width="2" fill="none"></circle>
<circle cx="2337.82" cy="1931.32" r="4" stroke="rgb(255,21,0)" stroke-width="2" fill="none"></circle>
<circle cx="5937.87" cy="2054.6" r="4" stroke="rgb(255,21,0)" stroke-width="2" fill="none"></circle>
<circle cx="2128.79" cy="1044.77" r="4" stroke="rgb(255,93,0)" stroke-width="2" fill="none"></circle>
<circle cx="6146.9" cy="420.332" r="4" stroke="rgb(255,93,0)" stroke-width="2" fill="none"></circle>
<circle cx="1727.55" cy="1115.47" r="4" stroke="rgb(102,0,255)" stroke-width="2" fill="none"></circle>
<circle cx="5155.49" cy="828.459" r="4" stroke="rgb(102,0,255)" stroke-width="2" fill="none"></circle>
<circle cx="1267.61" cy="1261.76" r="4" stroke="rgb(0,106,255)" stroke-width="2" fill="none"></circle>
<circle cx="5459.55" cy="829.568" r="4" stroke="rgb(0,106,255)" stroke-width="2" fill="none"></circle>
<circle cx="1727.55" cy="1115.47" r="4" stroke="rgb(255,182,0)" stroke-width="2" fill="none"></circle>
<circle cx="5811.25" cy="1460.07" r="4" stroke="rgb(255,182,0)" stroke-width="2" fill="none"></circle>
<circle cx="1333.13" cy="1033.96" r="4" stroke="rgb(0,0,255)" stroke-width="2" fill="none"></circle>
<circle cx="5923.53" cy="2114.91" r="4" stroke="rgb(0,0,255)" stroke-width="2" fill="none"></circle>
<circle cx="2537.67" cy="1900.57" r="4" stroke="rgb(0,255,254)" stroke-width="2" fill="none"></circle>
<circle cx="6910.85" cy="479.009" r="4" stroke="rgb(0,255,254)" stroke-width="2" fill="none"></circle>
<circle cx="3099.27" cy="1434.6" r="4" stroke="rgb(255,242,0)" stroke-width="2" fill="none"></circle>
<circle cx="6317.71" cy="2173.45" r="4" stroke="rgb(255,242,0)" stroke-width="2" fill="none"></circle>
<circle cx="2142.67" cy="1976.12" r="4" stroke="rgb(255,0,38)" stroke-width="2" fill="none"></circle>
<circle cx="4834.31" cy="2187.05" r="4" stroke="rgb(255,0,38)" stroke-width="2" fill="none"></circle>
<circle cx="2577.34" cy="1905.86" r="4" stroke="rgb(255,0,89)" stroke-width="2" fill="none"></circle>
<circle cx="5811.42" cy="501.549" r="4" stroke="rgb(255,0,89)" stroke-width="2" fill="none"></circle>
<circle cx="2003.99" cy="1981.93" r="4" stroke="rgb(97,0,255)" stroke-width="2" fill="none"></circle>
<circle cx="4822.21" cy="2373.12" r="4" stroke="rgb(97,0,255)" stroke-width="2" fill="none"></circle>
<circle cx="2045.77" cy="1949.03" r="4" stroke="rgb(0,255,191)" stroke-width="2" fill="none"></circle>
<circle cx="5370.55" cy="468.77" r="4" stroke="rgb(0,255,191)" stroke-width="2" fill="none"></circle>
<circle cx="1027.46" cy="1494.04" r="4" stroke="rgb(255,182,0)" stroke-width="2" fill="none"></circle>
<circle cx="5491.02" cy="2426.34" r="4" stroke="rgb(255,182,0)" stroke-width="2" fill="none"></circle>
<circle cx="1675.45" cy="953.379" r="4" stroke="rgb(203,0,255)" stroke-width="2" fill="none"></circle>
<circle cx="5189.03" cy="2430.87" r="4" stroke="rgb(203,0,255)" stroke-width="2" fill="none"></circle>
<circle cx="2629.25" cy="1896.61" r="4" stroke="rgb(55,255,0)" stroke-width="2" fill="none"></circle>
<circle cx="5568.83" cy="559.074" r="4" stroke="rgb(55,255,0)" stroke-width="2" fill="none"></circle>
<circle cx="2577.34" cy="1905.86" r="4" stroke="rgb(101,255,0)" stroke-width="2" fill="none"></circle>
<circle cx="5707.44" cy="558.25" r="4" stroke="rgb(101,255,0)" stroke-width="2" fill="none"></circle>
<circle cx="1213.1" cy="1240.6" r="4" stroke="rgb(242,255,0)" stroke-width="2" fill="none"></circle>
<circle cx="5737.89" cy="564.306" r="4" stroke="rgb(242,255,0)" stroke-width="2" fill="none"></circle>
<circle cx="2629.25" cy="1896.61" r="4" stroke="rgb(0,229,255)" stroke-width="2" fill="none"></circle>
<circle cx="5421.65" cy="566.138" r="4" stroke="rgb(0,229,255)" stroke-width="2" fill="none"></circle>
<circle cx="2629.25" cy="1896.61" r="4" stroke="rgb(0,165,255)" stroke-width="2" fill="none"></circle>
<circle cx="5421.65" cy="566.138" r="4" stroke="rgb(0,165,255)" stroke-width="2" fill="none"></circle>
<circle cx="1897.13" cy="1837.77" r="4" stroke="rgb(0,182,255)" stroke-width="2" fill="none"></circle>
<circle cx="5417.44" cy="2292.44" r="4" stroke="rgb(0,182,255)" stroke-width="2" fill="none"></circle>
<circle cx="1547.32" cy="1061.45" r="4" stroke="rgb(0,55,255)" stroke-width="2" fill="none"></circle>
<circle cx="5058.73" cy="935.279" r="4" stroke="rgb(0,55,255)" stroke-width="2" fill="none"></circle>
<circle cx="2829.1" cy="2003.53" r="4" stroke="rgb(187,255,0)" stroke-width="2" fill="none"></circle>
<circle cx="5897.67" cy="1611.76" r="4" stroke="rgb(187,255,0)" stroke-width="2" fill="none"></circle>
<circle cx="2624.03" cy="2054.14" r="4" stroke="rgb(148,0,255)" stroke-width="2" fill="none"></circle>
<circle cx="5464.02" cy="584.166" r="4" stroke="rgb(148,0,255)" stroke-width="2" fill="none"></circle>
<circle cx="1380.99" cy="1970.88" r="4" stroke="rgb(157,0,255)" stroke-width="2" fill="none"></circle>
<circle cx="4947.48" cy="613.34" r="4" stroke="rgb(157,0,255)" stroke-width="2" fill="none"></circle>
<circle cx="1376.43" cy="993.136" r="4" stroke="rgb(255,0,8)" stroke-width="2" fill="none"></circle>
<circle cx="5600.81" cy="1339.48" r="4" stroke="rgb(255,0,8)" stroke-width="2" fill="none"></circle>
<circle cx="2629.25" cy="1896.61" r="4" stroke="rgb(0,127,255)" stroke-width="2" fill="none"></circle>
<circle cx="5436.55" cy="628.223" r="4" stroke="rgb(0,127,255)" stroke-width="2" fill="none"></circle>
<circle cx="2629.25" cy="1896.61" r="4" stroke="rgb(255,0,178)" stroke-width="2" fill="none"></circle>
<circle cx="5436.55" cy="628.223" r="4" stroke="rgb(255,0,178)" stroke-width="2" fill="none"></circle>
<circle cx="2629.25" cy="1896.61" r="4" stroke="rgb(255,0,114)" stroke-width="2" fill="none"></circle>
<circle cx="5436.55" cy="628.223" r="4" stroke="rgb(255,0,114)" stroke-width="2" fill="none"></circle>
<circle cx="2629.25" cy="1896.61" r="4" stroke="rgb(255,55,0)" stroke-width="2" fill="none"></circle>
<circle cx="5436.55" cy="628.223" r="4" stroke="rgb(255,55,0)" stroke-width="2" fill="none"></circle>
<circle cx="2608.7" cy="2010.19" r="4" stroke="rgb(208,0,255)" stroke-width="2" fill="none"></circle>
<circle cx="5114.08" cy="1339.96" r="4" stroke="rgb(208,0,255)" stroke-width="2" fill="none"></circle>
<circle cx="2624.03" cy="2054.14" r="4" stroke="rgb(255,93,0)" stroke-width="2" fill="none"></circle>
<circle cx="6148.15" cy="2633.35" r="4" stroke="rgb(255,93,0)" stroke-width="2" fill="none"></circle>
<circle cx="1450.68" cy="1238.81" r="4" stroke="rgb(255,80,0)" stroke-width="2" fill="none"></circle>
<circle cx="5133.29" cy="207.105" r="4" stroke="rgb(255,80,0)" stroke-width="2" fill="none"></circle>
<circle cx="1704.09" cy="1021.28" r="4" stroke="rgb(255,0,208)" stroke-width="2" fill="none"></circle>
<circle cx="5084.07" cy="1115.09" r="4" stroke="rgb(255,0,208)" stroke-width="2" fill="none"></circle>
<circle cx="2629.25" cy="1896.61" r="4" stroke="rgb(195,0,255)" stroke-width="2" fill="none"></circle>
<circle cx="5543.09" cy="676.943" r="4" stroke="rgb(195,0,255)" stroke-width="2" fill="none"></circle>
<circle cx="1213.1" cy="1240.6" r="4" stroke="rgb(59,255,0)" stroke-width="2" fill="none"></circle>
<circle cx="5613.28" cy="602.232" r="4" stroke="rgb(59,255,0)" stroke-width="2" fill="none"></circle>
<circle cx="2629.25" cy="1896.61" r="4" stroke="rgb(255,0,25)" stroke-width="2" fill="none"></circle>
<circle cx="5872.34" cy="682.699" r="4" stroke="rgb(255,0,25)" stroke-width="2" fill="none"></circle>
<circle cx="2629.25" cy="1896.61" r="4" stroke="rgb(255,161,0)" stroke-width="2" fill="none"></circle>
<circle cx="5872.34" cy="682.699" r="4" stroke="rgb(255,161,0)" stroke-width="2" fill="none"></circle>
<circle cx="1711.54" cy="1904.8" r="4" stroke="rgb(195,0,255)" stroke-width="2" fill="none"></circle>
<circle cx="5301.66" cy="1716" r="4" stroke="rgb(195,0,255)" stroke-width="2" fill="none"></circle>
<circle cx="1865.87" cy="1785.07" r="4" stroke="rgb(182,0,255)" stroke-width="2" fill="none"></circle>
<circle cx="6979.3" cy="693.617" r="4" stroke="rgb(182,0,255)" stroke-width="2" fill="none"></circle>
<circle cx="1805.7" cy="1107.11" r="4" stroke="rgb(255,123,0)" stroke-width="2" fill="none"></circle>
<circle cx="5057.91" cy="1160.89" r="4" stroke="rgb(255,123,0)" stroke-width="2" fill="none"></circle>
<circle cx="1489.58" cy="1693.08" r="4" stroke="rgb(106,0,255)" stroke-width="2" fill="none"></circle>
<circle cx="5782.13" cy="1166.18" r="4" stroke="rgb(106,0,255)" stroke-width="2" fill="none"></circle>
<circle cx="1267.61" cy="1261.76" r="4" stroke="rgb(0,229,255)" stroke-width="2" fill="none"></circle>
<circle cx="5131.01" cy="1514.26" r="4" stroke="rgb(0,229,255)" stroke-width="2" fill="none"></circle>
<circle cx="1512.22" cy="1459.74" r="4" stroke="rgb(225,255,0)" stroke-width="2" fill="none"></circle>
<circle cx="6547.76" cy="1744.34" r="4" stroke="rgb(225,255,0)" stroke-width="2" fill="none"></circle>
<circle cx="1894.28" cy="930.472" r="4" stroke="rgb(255,0,221)" stroke-width="2" fill="none"></circle>
<circle cx="5652.18" cy="1744.81" r="4" stroke="rgb(255,0,221)" stroke-width="2" fill="none"></circle>
<circle cx="1547.32" cy="1061.45" r="4" stroke="rgb(255,0,59)" stroke-width="2" fill="none"></circle>
<circle cx="4953.52" cy="775.573" r="4" stroke="rgb(255,0,59)" stroke-width="2" fill="none"></circle>
<circle cx="2763.27" cy="1328.04" r="4" stroke="rgb(255,195,0)" stroke-width="2" fill="none"></circle>
<circle cx="5930.28" cy="1606.14" r="4" stroke="rgb(255,195,0)" stroke-width="2" fill="none"></circle>
<circle cx="1267.61" cy="1261.76" r="4" stroke="rgb(157,0,255)" stroke-width="2" fill="none"></circle>
<circle cx="5552.12" cy="816.296" r="4" stroke="rgb(157,0,255)" stroke-width="2" fill="none"></circle>
<circle cx="2010.89" cy="1577.71" r="4" stroke="rgb(255,212,0)" stroke-width="2" fill="none"></circle>
<circle cx="5651.45" cy="851.006" r="4" stroke="rgb(255,212,0)" stroke-width="2" fill="none"></circle>
<circle cx="1883.08" cy="1099.15" r="4" stroke="rgb(63,255,0)" stroke-width="2" fill="none"></circle>
<circle cx="5148.72" cy="1717.91" r="4" stroke="rgb(63,255,0)" stroke-width="2" fill="none"></circle>
<circle cx="2045.77" cy="1949.03" r="4" stroke="rgb(8,255,0)" stroke-width="2" fill="none"></circle>
<circle cx="5373.75" cy="489.135" r="4" stroke="rgb(8,255,0)" stroke-width="2" fill="none"></circle>
<circle cx="1438.84" cy="1710.72" r="4" stroke="rgb(29,0,255)" stroke-width="2" fill="none"></circle>
<circle cx="5790.21" cy="1927.24" r="4" stroke="rgb(29,0,255)" stroke-width="2" fill="none"></circle>
<circle cx="1543.72" cy="1303.08" r="4" stroke="rgb(0,153,255)" stroke-width="2" fill="none"></circle>
<circle cx="4965.39" cy="1959.31" r="4" stroke="rgb(0,153,255)" stroke-width="2" fill="none"></circle>
<circle cx="1543.72" cy="1303.08" r="4" stroke="rgb(229,255,0)" stroke-width="2" fill="none"></circle>
<circle cx="4965.39" cy="1959.31" r="4" stroke="rgb(229,255,0)" stroke-width="2" fill="none"></circle>
<circle cx="1334.41" cy="1473.83" r="4" stroke="rgb(255,144,0)" stroke-width="2" fill="none"></circle>
<circle cx="5524.26" cy="1784.14" r="4" stroke="rgb(255,144,0)" stroke-width="2" fill="none"></circle>
<circle cx="1509.34" cy="1495.7" r="4" stroke="rgb(0,255,4)" stroke-width="2" fill="none"></circle>
<circle cx="4431.63" cy="669.727" r="4" stroke="rgb(0,255,4)" stroke-width="2" fill="none"></circle>
<circle cx="1421.87" cy="985.711" r="4" stroke="rgb(237,255,0)" stroke-width="2" fill="none"></circle>
<circle cx="6014.26" cy="2305.82" r="4" stroke="rgb(237,255,0)" stroke-width="2" fill="none"></circle>
<circle cx="2774.83" cy="1445.8" r="4" stroke="rgb(17,0,255)" stroke-width="2" fill="none"></circle>
<circle cx="5602.35" cy="2317.48" r="4" stroke="rgb(17,0,255)" stroke-width="2" fill="none"></circle>
<circle cx="2774.83" cy="1445.8" r="4" stroke="rgb(255,0,208)" stroke-width="2" fill="none"></circle>
<circle cx="5613.75" cy="2341.77" r="4" stroke="rgb(255,0,208)" stroke-width="2" fill="none"></circle>
<circle cx="2737.69" cy="1383.46" r="4" stroke="rgb(127,0,255)" stroke-width="2" fill="none"></circle>
<circle cx="5613.75" cy="2341.77" r="4" stroke="rgb(127,0,255)" stroke-width="2" fill="none"></circle>
<circle cx="2737.69" cy="1383.46" r="4" stroke="rgb(76,0,255)" stroke-width="2" fill="none"></circle>
<circle cx="5625.23" cy="2368.09" r="4" stroke="rgb(76,0,255)" stroke-width="2" fill="none"></circle>
<circle cx="3121.88" cy="1223.5" r="4" stroke="rgb(0,0,255)" stroke-width="2" fill="none"></circle>
<circle cx="5555.96" cy="2440.49" r="4" stroke="rgb(0,0,255)" stroke-width="2" fill="none"></circle>
<circle cx="2661.7" cy="820.525" r="4" stroke="rgb(221,0,255)" stroke-width="2" fill="none"></circle>
<circle cx="5944.11" cy="2091.7" r="4" stroke="rgb(221,0,255)" stroke-width="2" fill="none"></circle>
<circle cx="2291.83" cy="1926.58" r="4" stroke="rgb(0,255,123)" stroke-width="2" fill="none"></circle>
<circle cx="5730.47" cy="2262.39" r="4" stroke="rgb(0,255,123)" stroke-width="2" fill="none"></circle>
<circle cx="1726.74" cy="1065.58" r="4" stroke="rgb(0,208,255)" stroke-width="2" fill="none"></circle>
<circle cx="5101.72" cy="725.977" r="4" stroke="rgb(0,208,255)" stroke-width="2" fill="none"></circle>
<circle cx="1471.67" cy="1062.27" r="4" stroke="rgb(127,255,0)" stroke-width="2" fill="none"></circle>
<circle cx="6240.11" cy="373.248" r="4" stroke="rgb(127,255,0)" stroke-width="2" fill="none"></circle>
<circle cx="1533.54" cy="1859.7" r="4" stroke="rgb(63,0,255)" stroke-width="2" fill="none"></circle>
<circle cx="4928.33" cy="2365.58" r="4" stroke="rgb(63,0,255)" stroke-width="2" fill="none"></circle>
<circle cx="2790.1" cy="1459.81" r="4" stroke="rgb(0,229,255)" stroke-width="2" fill="none"></circle>
<circle cx="6408.41" cy="407.676" r="4" stroke="rgb(0,229,255)" stroke-width="2" fill="none"></circle>
<circle cx="1645.41" cy="1212.38" r="4" stroke="rgb(0,255,33)" stroke-width="2" fill="none"></circle>
<circle cx="4861.63" cy="1071.7" r="4" stroke="rgb(0,255,33)" stroke-width="2" fill="none"></circle>
<circle cx="2751.38" cy="1470.32" r="4" stroke="rgb(255,225,0)" stroke-width="2" fill="none"></circle>
<circle cx="6713.34" cy="2541.54" r="4" stroke="rgb(255,225,0)" stroke-width="2" fill="none"></circle>
<circle cx="2451.46" cy="2020.83" r="4" stroke="rgb(46,255,0)" stroke-width="2" fill="none"></circle>
<circle cx="5896.05" cy="1255.24" r="4" stroke="rgb(46,255,0)" stroke-width="2" fill="none"></circle>
<circle cx="1357.86" cy="1330.7" r="4" stroke="rgb(255,127,0)" stroke-width="2" fill="none"></circle>
<circle cx="4779.48" cy="2630.74" r="4" stroke="rgb(255,127,0)" stroke-width="2" fill="none"></circle>
<circle cx="2032.38" cy="1146.11" r="4" stroke="rgb(255,0,178)" stroke-width="2" fill="none"></circle>
<circle cx="5222.2" cy="2589.53" r="4" stroke="rgb(255,0,178)" stroke-width="2" fill="none"></circle>
<circle cx="1588.21" cy="1235.47" r="4" stroke="rgb(0,255,203)" stroke-width="2" fill="none"></circle>
<circle cx="4909.55" cy="589.479" r="4" stroke="rgb(0,255,203)" stroke-width="2" fill="none"></circle>
<circle cx="1520.55" cy="2210.72" r="4" stroke="rgb(97,255,0)" stroke-width="2" fill="none"></circle>
<circle cx="6265.45" cy="1009.66" r="4" stroke="rgb(97,255,0)" stroke-width="2" fill="none"></circle>
<circle cx="3004.21" cy="1839.49" r="4" stroke="rgb(0,255,80)" stroke-width="2" fill="none"></circle>
<circle cx="5102.93" cy="1964.28" r="4" stroke="rgb(0,255,80)" stroke-width="2" fill="none"></circle>
<circle cx="1378.86" cy="1055.46" r="4" stroke="rgb(0,255,144)" stroke-width="2" fill="none"></circle>
<circle cx="5027.62" cy="842.999" r="4" stroke="rgb(0,255,144)" stroke-width="2" fill="none"></circle>
<circle cx="1534.69" cy="1322.34" r="4" stroke="rgb(255,63,0)" stroke-width="2" fill="none"></circle>
<circle cx="4978.58" cy="2142.8" r="4" stroke="rgb(255,63,0)" stroke-width="2" fill="none"></circle>
<circle cx="2261.42" cy="957.175" r="4" stroke="rgb(203,0,255)" stroke-width="2" fill="none"></circle>
<circle cx="5909.79" cy="2169.67" r="4" stroke="rgb(203,0,255)" stroke-width="2" fill="none"></circle>
<circle cx="2729.92" cy="1027.82" r="4" stroke="rgb(187,255,0)" stroke-width="2" fill="none"></circle>
<circle cx="6881.29" cy="2068.81" r="4" stroke="rgb(187,255,0)" stroke-width="2" fill="none"></circle>
<circle cx="1339.03" cy="1008.57" r="4" stroke="rgb(0,255,0)" stroke-width="2" fill="none"></circle>
<circle cx="4980.01" cy="752.34" r="4" stroke="rgb(0,255,0)" stroke-width="2" fill="none"></circle>
<circle cx="2218.57" cy="1581.6" r="4" stroke="rgb(161,0,255)" stroke-width="2" fill="none"></circle>
<circle cx="6141.32" cy="2183.52" r="4" stroke="rgb(161,0,255)" stroke-width="2" fill="none"></circle>
<circle cx="1374.07" cy="1042.82" r="4" stroke="rgb(255,0,153)" stroke-width="2" fill="none"></circle>
<circle cx="5024.89" cy="824.1" r="4" stroke="rgb(255,0,153)" stroke-width="2" fill="none"></circle>
<circle cx="1561.75" cy="1758.59" r="4" stroke="rgb(0,187,255)" stroke-width="2" fill="none"></circle>
<circle cx="6282.1" cy="2545.12" r="4" stroke="rgb(0,187,255)" stroke-width="2" fill="none"></circle>
<circle cx="2977.51" cy="2016.67" r="4" stroke="rgb(255,0,68)" stroke-width="2" fill="none"></circle>
<circle cx="6275.41" cy="2581.12" r="4" stroke="rgb(255,0,68)" stroke-width="2" fill="none"></circle>
<circle cx="2977.51" cy="2016.67" r="4" stroke="rgb(0,42,255)" stroke-width="2" fill="none"></circle>
<circle cx="6279.79" cy="2579.44" r="4" stroke="rgb(0,42,255)" stroke-width="2" fill="none"></circle>
<circle cx="3335.46" cy="1482.56" r="4" stroke="rgb(255,0,182)" stroke-width="2" fill="none"></circle>
<circle cx="5081.46" cy="2675.79" r="4" stroke="rgb(255,0,182)" stroke-width="2" fill="none"></circle>
<circle cx="1645.41" cy="1212.38" r="4" stroke="rgb(170,0,255)" stroke-width="2" fill="none"></circle>
<circle cx="4863.31" cy="1074.29" r="4" stroke="rgb(170,0,255)" stroke-width="2" fill="none"></circle>
<circle cx="1355.31" cy="1013.48" r="4" stroke="rgb(21,255,0)" stroke-width="2" fill="none"></circle>
<circle cx="4998.21" cy="771.502" r="4" stroke="rgb(21,255,0)" stroke-width="2" fill="none"></circle>
<circle cx="3112.91" cy="1296.52" r="4" stroke="rgb(0,255,89)" stroke-width="2" fill="none"></circle>
<circle cx="4811.81" cy="604.158" r="4" stroke="rgb(0,255,89)" stroke-width="2" fill="none"></circle>
<circle cx="1473.48" cy="1534.48" r="4" stroke="rgb(0,212,255)" stroke-width="2" fill="none"></circle>
<circle cx="4358.38" cy="511.669" r="4" stroke="rgb(0,212,255)" stroke-width="2" fill="none"></circle>
<circle cx="2836.9" cy="2012.12" r="4" stroke="rgb(255,55,0)" stroke-width="2" fill="none"></circle>
<circle cx="5327.27" cy="731.064" r="4" stroke="rgb(255,55,0)" stroke-width="2" fill="none"></circle>
<circle cx="1645.41" cy="1212.38" r="4" stroke="rgb(255,89,0)" stroke-width="2" fill="none"></circle>
<circle cx="4866.9" cy="1079.5" r="4" stroke="rgb(255,89,0)" stroke-width="2" fill="none"></circle>
<circle cx="1919.93" cy="826.626" r="4" stroke="rgb(255,0,25)" stroke-width="2" fill="none"></circle>
<circle cx="6362.22" cy="1923.97" r="4" stroke="rgb(255,0,25)" stroke-width="2" fill="none"></circle>
<circle cx="2128.61" cy="996.332" r="4" stroke="rgb(255,144,0)" stroke-width="2" fill="none"></circle>
<circle cx="6184.27" cy="1424.91" r="4" stroke="rgb(255,144,0)" stroke-width="2" fill="none"></circle>
<circle cx="1974.72" cy="1189.84" r="4" stroke="rgb(148,255,0)" stroke-width="2" fill="none"></circle>
<circle cx="5151.93" cy="2599.15" r="4" stroke="rgb(148,255,0)" stroke-width="2" fill="none"></circle>
<circle cx="2042.39" cy="1163.46" r="4" stroke="rgb(153,255,0)" stroke-width="2" fill="none"></circle>
<circle cx="5225.74" cy="2612.48" r="4" stroke="rgb(153,255,0)" stroke-width="2" fill="none"></circle>
<circle cx="2042.39" cy="1163.46" r="4" stroke="rgb(0,255,174)" stroke-width="2" fill="none"></circle>
<circle cx="5225.74" cy="2612.48" r="4" stroke="rgb(0,255,174)" stroke-width="2" fill="none"></circle>
<circle cx="1669.71" cy="844.269" r="4" stroke="rgb(131,0,255)" stroke-width="2" fill="none"></circle>
<circle cx="5447.99" cy="881.275" r="4" stroke="rgb(131,0,255)" stroke-width="2" fill="none"></circle>
<circle cx="1984.23" cy="1230.77" r="4" stroke="rgb(0,114,255)" stroke-width="2" fill="none"></circle>
<circle cx="5135.13" cy="2655" r="4" stroke="rgb(0,114,255)" stroke-width="2" fill="none"></circle>
<circle cx="2910.33" cy="1945.81" r="4" stroke="rgb(0,110,255)" stroke-width="2" fill="none"></circle>
<circle cx="6870.6" cy="1320.07" r="4" stroke="rgb(0,110,255)" stroke-width="2" fill="none"></circle>
</svg>