<?xml version="1.0" standalone="yes"?>
<!-- SVG graphic -->
<svg xmlns='http://www.w3.org/2000/svg' xmlns:xlink='http://www.w3.org/1999/xlink'
width="8064px" height="3024px" preserveAspectRatio="xMinYMin meet" viewBox="0 0 8064 3024" version="1.1">
<image x="0" y="0" width="4032px" height="3024px" opacity="1" xlink:href="/home/jeong/Code/2D-to-3D-Modeling-using-AI/Make3D/Image/20200227_180649.jpg"/>
<image x="4032" y="0" width="4032px" height="3024px" opacity="1" xlink:href="/home/jeong/Code/2D-to-3D-Modeling-using-AI/Make3D/Image/20200227_180809.jpg"/>
<polyline points="1338.85,1361.78,5881.09,1006.25" stroke="rgb(0,255,161)" stroke-width="2" fill="none"></polyline>
<polyline points="2003.99,1981.93,5178.85,1588.07" stroke="rgb(255,4,0)" stroke-width="2" fill="none"></polyline>
<polyline points="2017.32,1943.14,5368.57,1205.73" stroke="rgb(0,255,186)" stroke-width="2" fill="none"></polyline>
<polyline points="2534.75,1189.25,6504.39,1995.73" stroke="rgb(0,255,59)" stroke-width="2" fill="none"></polyline>
<polyline points="2878.84,2013.63,6683.04,2003.44" stroke="rgb(106,0,255)" stroke-width="2" fill="none"></polyline>
<polyline points="1910.36,1033.09,4723.23,1208.29" stroke="rgb(255,0,225)" stroke-width="2" fill="none"></polyline>
<polyline points="2537.52,2069.96,5754.3,1493.89" stroke="rgb(0,255,233)" stroke-width="2" fill="none"></polyline>
<polyline points="2026.82,1976.3,6539.02,1666.48" stroke="rgb(0,33,255)" stroke-width="2" fill="none"></polyline>
<polyline points="2860.22,1993.14,6072.01,1248.28" stroke="rgb(144,0,255)" stroke-width="2" fill="none"></polyline>
<polyline points="1894.28,930.472,6493.37,1692.51" stroke="rgb(0,97,255)" stroke-width="2" fill="none"></polyline>
<polyline points="3098.12,1210.35,6487.72,1697.84" stroke="rgb(0,67,255)" stroke-width="2" fill="none"></polyline>
<polyline points="1910.36,1033.09,5028.87,1287.41" stroke="rgb(242,255,0)" stroke-width="2" fill="none"></polyline>
<polyline points="2860.22,1993.14,5614.18,1702.25" stroke="rgb(255,0,110)" stroke-width="2" fill="none"></polyline>
<polyline points="3111.08,1246.26,7033.58,1558.24" stroke="rgb(102,0,255)" stroke-width="2" fill="none"></polyline>
<polyline points="1364.63,1938.84,4641.91,1316.91" stroke="rgb(93,0,255)" stroke-width="2" fill="none"></polyline>
<polyline points="3098.12,1210.35,6763.67,1356.62" stroke="rgb(255,0,0)" stroke-width="2" fill="none"></polyline>
<polyline points="2041.46,1965.56,6370.25,2079.18" stroke="rgb(255,204,0)" stroke-width="2" fill="none"></polyline>
<polyline points="2016.74,1782.4,6402.21,2073.05" stroke="rgb(255,72,0)" stroke-width="2" fill="none"></polyline>
<polyline points="1556.41,2052.67,4477.52,853.534" stroke="rgb(255,182,0)" stroke-width="2" fill="none"></polyline>
<polyline points="1520.55,2210.72,5461.78,1468.31" stroke="rgb(8,255,0)" stroke-width="2" fill="none"></polyline>
<polyline points="2705.51,1017.67,5957.15,1153.89" stroke="rgb(0,255,46)" stroke-width="2" fill="none"></polyline>
<polyline points="1563.01,1274.11,6595.42,1423.89" stroke="rgb(0,255,21)" stroke-width="2" fill="none"></polyline>
<polyline points="3098.12,1210.35,5992.49,1496.43" stroke="rgb(170,0,255)" stroke-width="2" fill="none"></polyline>
<polyline points="1531.1,1401.74,7025.88,1700.66" stroke="rgb(21,0,255)" stroke-width="2" fill="none"></polyline>
<polyline points="2586.84,2029.44,5985.12,1835.81" stroke="rgb(101,255,0)" stroke-width="2" fill="none"></polyline>
<polyline points="1401.03,1297.76,5429.12,1841.77" stroke="rgb(255,0,25)" stroke-width="2" fill="none"></polyline>
<polyline points="2017.32,1943.14,6388.48,1527.5" stroke="rgb(131,255,0)" stroke-width="2" fill="none"></polyline>
<polyline points="2312.64,1919.87,6866.06,1473.04" stroke="rgb(63,0,255)" stroke-width="2" fill="none"></polyline>
<polyline points="3111.08,1246.26,6101.19,1060.42" stroke="rgb(246,0,255)" stroke-width="2" fill="none"></polyline>
<polyline points="2586.84,2029.44,6383.27,1552.6" stroke="rgb(255,0,29)" stroke-width="2" fill="none"></polyline>
<polyline points="3007.3,1809.8,7180.68,1478.1" stroke="rgb(255,199,0)" stroke-width="2" fill="none"></polyline>
<polyline points="1894.28,930.472,6386.76,1826.23" stroke="rgb(97,255,0)" stroke-width="2" fill="none"></polyline>
<polyline points="2390.81,1903.34,5881.03,1778.47" stroke="rgb(255,0,25)" stroke-width="2" fill="none"></polyline>
<polyline points="1964.34,1833.96,6799.71,1903.71" stroke="rgb(157,255,0)" stroke-width="2" fill="none"></polyline>
<polyline points="3042.65,1278.47,5874.75,1811.3" stroke="rgb(72,255,0)" stroke-width="2" fill="none"></polyline>
<polyline points="2860.22,1993.14,5656.58,1912.24" stroke="rgb(0,255,50)" stroke-width="2" fill="none"></polyline>
<polyline points="1802.79,1048.51,5793.07,1164.78" stroke="rgb(97,0,255)" stroke-width="2" fill="none"></polyline>
<polyline points="1543.72,1303.08,7175.99,1557.05" stroke="rgb(0,255,127)" stroke-width="2" fill="none"></polyline>
<polyline points="2705.51,1017.67,5560.54,1824.11" stroke="rgb(0,17,255)" stroke-width="2" fill="none"></polyline>
<polyline points="3335.46,1482.56,6989.24,1856.74" stroke="rgb(0,255,242)" stroke-width="2" fill="none"></polyline>
<polyline points="2829.1,2003.53,6058.26,1947.22" stroke="rgb(255,34,0)" stroke-width="2" fill="none"></polyline>
<polyline points="2366.98,1927.88,5874.79,1888.9" stroke="rgb(255,0,119)" stroke-width="2" fill="none"></polyline>
<polyline points="1595.26,1245.37,6446.95,1273.31" stroke="rgb(33,255,0)" stroke-width="2" fill="none"></polyline>
<polyline points="2045.77,1949.03,5639.28,1916.18" stroke="rgb(0,110,255)" stroke-width="2" fill="none"></polyline>
<polyline points="2298.96,1920.31,5672.96,1350.65" stroke="rgb(0,17,255)" stroke-width="2" fill="none"></polyline>
<polyline points="2016.74,1782.4,6693.01,1964.07" stroke="rgb(255,59,0)" stroke-width="2" fill="none"></polyline>
<polyline points="2523.78,1908.5,6710.56,1333.38" stroke="rgb(0,110,255)" stroke-width="2" fill="none"></polyline>
<polyline points="2998.29,1832.69,7179.8,1310.23" stroke="rgb(191,0,255)" stroke-width="2" fill="none"></polyline>
<polyline points="1802.79,1048.51,5716.2,1088.03" stroke="rgb(102,0,255)" stroke-width="2" fill="none"></polyline>
<polyline points="2572.28,2032.1,5716.45,2239.79" stroke="rgb(0,255,42)" stroke-width="2" fill="none"></polyline>
<polyline points="2291.83,1926.58,6686.44,1208.67" stroke="rgb(148,0,255)" stroke-width="2" fill="none"></polyline>
<polyline points="1571.44,2021.41,4503.53,935.776" stroke="rgb(255,148,0)" stroke-width="2" fill="none"></polyline>
<polyline points="1948.41,1889.52,5674.18,1916.43" stroke="rgb(63,0,255)" stroke-width="2" fill="none"></polyline>
<polyline points="3335.46,1482.56,6989.46,1857.08" stroke="rgb(0,191,255)" stroke-width="2" fill="none"></polyline>
<polyline points="2489.98,1902.61,5769.96,1903.95" stroke="rgb(0,255,135)" stroke-width="2" fill="none"></polyline>
<polyline points="1948.41,1889.52,5914.82,1937.08" stroke="rgb(0,72,255)" stroke-width="2" fill="none"></polyline>
<polyline points="2039.1,1805.97,6527.81,1424.96" stroke="rgb(0,212,255)" stroke-width="2" fill="none"></polyline>
<polyline points="2495.6,1909.94,6065.39,1076.67" stroke="rgb(4,0,255)" stroke-width="2" fill="none"></polyline>
<polyline points="2894.71,2000.84,7084.32,1556.09" stroke="rgb(8,255,0)" stroke-width="2" fill="none"></polyline>
<polyline points="2860.22,1993.14,7036.85,1333.81" stroke="rgb(255,0,0)" stroke-width="2" fill="none"></polyline>
<polyline points="2168.32,1198.09,5421.1,2159.54" stroke="rgb(59,255,0)" stroke-width="2" fill="none"></polyline>
<polyline points="2923.76,1978.98,7086.55,1492.72" stroke="rgb(255,157,0)" stroke-width="2" fill="none"></polyline>
<polyline points="2829.1,2003.53,7003.06,1549.13" stroke="rgb(255,0,131)" stroke-width="2" fill="none"></polyline>
<polyline points="2906.72,1966.83,7046.38,1488.27" stroke="rgb(255,0,114)" stroke-width="2" fill="none"></polyline>
<polyline points="1255.79,1607.04,7203.44,1377.61" stroke="rgb(0,255,4)" stroke-width="2" fill="none"></polyline>
<polyline points="3044.67,1209.99,4603.34,2072.48" stroke="rgb(203,255,0)" stroke-width="2" fill="none"></polyline>
<polyline points="1595.26,1245.37,4832.84,574.981" stroke="rgb(63,255,0)" stroke-width="2" fill="none"></polyline>
<circle cx="1338.85" cy="1361.78" r="4" stroke="rgb(0,255,161)" stroke-width="2" fill="none"></circle>
<circle cx="5881.09" cy="1006.25" r="4" stroke="rgb(0,255,161)" stroke-width="2" fill="none"></circle>
<circle cx="2003.99" cy="1981.93" r="4" stroke="rgb(255,4,0)" stroke-width="2" fill="none"></circle>
<circle cx="5178.85" cy="1588.07" r="4" stroke="rgb(255,4,0)" stroke-width="2" fill="none"></circle>
<circle cx="2017.32" cy="1943.14" r="4" stroke="rgb(0,255,186)" stroke-width="2" fill="none"></circle>
<circle cx="5368.57" cy="1205.73" r="4" stroke="rgb(0,255,186)" stroke-width="2" fill="none"></circle>
<circle cx="2534.75" cy="1189.25" r="4" stroke="rgb(0,255,59)" stroke-width="2" fill="none"></circle>
<circle cx="6504.39" cy="1995.73" r="4" stroke="rgb(0,255,59)" stroke-width="2" fill="none"></circle>
<circle cx="2878.84" cy="2013.63" r="4" stroke="rgb(106,0,255)" stroke-width="2" fill="none"></circle>
<circle cx="6683.04" cy="2003.44" r="4" stroke="rgb(106,0,255)" stroke-width="2" fill="none"></circle>
<circle cx="1910.36" cy="1033.09" r="4" stroke="rgb(255,0,225)" stroke-width="2" fill="none"></circle>
<circle cx="4723.23" cy="1208.29" r="4" stroke="rgb(255,0,225)" stroke-width="2" fill="none"></circle>
<circle cx="2537.52" cy="2069.96" r="4" stroke="rgb(0,255,233)" stroke-width="2" fill="none"></circle>
<circle cx="5754.3" cy="1493.89" r="4" stroke="rgb(0,255,233)" stroke-width="2" fill="none"></circle>
<circle cx="2026.82" cy="1976.3" r="4" stroke="rgb(0,33,255)" stroke-width="2" fill="none"></circle>
<circle cx="6539.02" cy="1666.48" r="4" stroke="rgb(0,33,255)" stroke-width="2" fill="none"></circle>
<circle cx="2860.22" cy="1993.14" r="4" stroke="rgb(144,0,255)" stroke-width="2" fill="none"></circle>
<circle cx="6072.01" cy="1248.28" r="4" stroke="rgb(144,0,255)" stroke-width="2" fill="none"></circle>
<circle cx="1894.28" cy="930.472" r="4" stroke="rgb(0,97,255)" stroke-width="2" fill="none"></circle>
<circle cx="6493.37" cy="1692.51" r="4" stroke="rgb(0,97,255)" stroke-width="2" fill="none"></circle>
<circle cx="3098.12" cy="1210.35" r="4" stroke="rgb(0,67,255)" stroke-width="2" fill="none"></circle>
<circle cx="6487.72" cy="1697.84" r="4" stroke="rgb(0,67,255)" stroke-width="2" fill="none"></circle>
<circle cx="1910.36" cy="1033.09" r="4" stroke="rgb(242,255,0)" stroke-width="2" fill="none"></circle>
<circle cx="5028.87" cy="1287.41" r="4" stroke="rgb(242,255,0)" stroke-width="2" fill="none"></circle>
<circle cx="2860.22" cy="1993.14" r="4" stroke="rgb(255,0,110)" stroke-width="2" fill="none"></circle>
<circle cx="5614.18" cy="1702.25" r="4" stroke="rgb(255,0,110)" stroke-width="2" fill="none"></circle>
<circle cx="3111.08" cy="1246.26" r="4" stroke="rgb(102,0,255)" stroke-width="2" fill="none"></circle>
<circle cx="7033.58" cy="1558.24" r="4" stroke="rgb(102,0,255)" stroke-width="2" fill="none"></circle>
<circle cx="1364.63" cy="1938.84" r="4" stroke="rgb(93,0,255)" stroke-width="2" fill="none"></circle>
<circle cx="4641.91" cy="1316.91" r="4" stroke="rgb(93,0,255)" stroke-width="2" fill="none"></circle>
<circle cx="3098.12" cy="1210.35" r="4" stroke="rgb(255,0,0)" stroke-width="2" fill="none"></circle>
<circle cx="6763.67" cy="1356.62" r="4" stroke="rgb(255,0,0)" stroke-width="2" fill="none"></circle>
<circle cx="2041.46" cy="1965.56" r="4" stroke="rgb(255,204,0)" stroke-width="2" fill="none"></circle>
<circle cx="6370.25" cy="2079.18" r="4" stroke="rgb(255,204,0)" stroke-width="2" fill="none"></circle>
<circle cx="2016.74" cy="1782.4" r="4" stroke="rgb(255,72,0)" stroke-width="2" fill="none"></circle>
<circle cx="6402.21" cy="2073.05" r="4" stroke="rgb(255,72,0)" stroke-width="2" fill="none"></circle>
<circle cx="1556.41" cy="2052.67" r="4" stroke="rgb(255,182,0)" stroke-width="2" fill="none"></circle>
<circle cx="4477.52" cy="853.534" r="4" stroke="rgb(255,182,0)" stroke-width="2" fill="none"></circle>
<circle cx="1520.55" cy="2210.72" r="4" stroke="rgb(8,255,0)" stroke-width="2" fill="none"></circle>
<circle cx="5461.78" cy="1468.31" r="4" stroke="rgb(8,255,0)" stroke-width="2" fill="none"></circle>
<circle cx="2705.51" cy="1017.67" r="4" stroke="rgb(0,255,46)" stroke-width="2" fill="none"></circle>
<circle cx="5957.15" cy="1153.89" r="4" stroke="rgb(0,255,46)" stroke-width="2" fill="none"></circle>
<circle cx="1563.01" cy="1274.11" r="4" stroke="rgb(0,255,21)" stroke-width="2" fill="none"></circle>
<circle cx="6595.42" cy="1423.89" r="4" stroke="rgb(0,255,21)" stroke-width="2" fill="none"></circle>
<circle cx="3098.12" cy="1210.35" r="4" stroke="rgb(170,0,255)" stroke-width="2" fill="none"></circle>
<circle cx="5992.49" cy="1496.43" r="4" stroke="rgb(170,0,255)" stroke-width="2" fill="none"></circle>
<circle cx="1531.1" cy="1401.74" r="4" stroke="rgb(21,0,255)" stroke-width="2" fill="none"></circle>
<circle cx="7025.88" cy="1700.66" r="4" stroke="rgb(21,0,255)" stroke-width="2" fill="none"></circle>
<circle cx="2586.84" cy="2029.44" r="4" stroke="rgb(101,255,0)" stroke-width="2" fill="none"></circle>
<circle cx="5985.12" cy="1835.81" r="4" stroke="rgb(101,255,0)" stroke-width="2" fill="none"></circle>
<circle cx="1401.03" cy="1297.76" r="4" stroke="rgb(255,0,25)" stroke-width="2" fill="none"></circle>
<circle cx="5429.12" cy="1841.77" r="4" stroke="rgb(255,0,25)" stroke-width="2" fill="none"></circle>
<circle cx="2017.32" cy="1943.14" r="4" stroke="rgb(131,255,0)" stroke-width="2" fill="none"></circle>
<circle cx="6388.48" cy="1527.5" r="4" stroke="rgb(131,255,0)" stroke-width="2" fill="none"></circle>
<circle cx="2312.64" cy="1919.87" r="4" stroke="rgb(63,0,255)" stroke-width="2" fill="none"></circle>
<circle cx="6866.06" cy="1473.04" r="4" stroke="rgb(63,0,255)" stroke-width="2" fill="none"></circle>
<circle cx="3111.08" cy="1246.26" r="4" stroke="rgb(246,0,255)" stroke-width="2" fill="none"></circle>
<circle cx="6101.19" cy="1060.42" r="4" stroke="rgb(246,0,255)" stroke-width="2" fill="none"></circle>
<circle cx="2586.84" cy="2029.44" r="4" stroke="rgb(255,0,29)" stroke-width="2" fill="none"></circle>
<circle cx="6383.27" cy="1552.6" r="4" stroke="rgb(255,0,29)" stroke-width="2" fill="none"></circle>
<circle cx="3007.3" cy="1809.8" r="4" stroke="rgb(255,199,0)" stroke-width="2" fill="none"></circle>
<circle cx="7180.68" cy="1478.1" r="4" stroke="rgb(255,199,0)" stroke-width="2" fill="none"></circle>
<circle cx="1894.28" cy="930.472" r="4" stroke="rgb(97,255,0)" stroke-width="2" fill="none"></circle>
<circle cx="6386.76" cy="1826.23" r="4" stroke="rgb(97,255,0)" stroke-width="2" fill="none"></circle>
<circle cx="2390.81" cy="1903.34" r="4" stroke="rgb(255,0,25)" stroke-width="2" fill="none"></circle>
<circle cx="5881.03" cy="1778.47" r="4" stroke="rgb(255,0,25)" stroke-width="2" fill="none"></circle>
<circle cx="1964.34" cy="1833.96" r="4" stroke="rgb(157,255,0)" stroke-width="2" fill="none"></circle>
<circle cx="6799.71" cy="1903.71" r="4" stroke="rgb(157,255,0)" stroke-width="2" fill="none"></circle>
<circle cx="3042.65" cy="1278.47" r="4" stroke="rgb(72,255,0)" stroke-width="2" fill="none"></circle>
<circle cx="5874.75" cy="1811.3" r="4" stroke="rgb(72,255,0)" stroke-width="2" fill="none"></circle>
<circle cx="2860.22" cy="1993.14" r="4" stroke="rgb(0,255,50)" stroke-width="2" fill="none"></circle>
<circle cx="5656.58" cy="1912.24" r="4" stroke="rgb(0,255,50)" stroke-width="2" fill="none"></circle>
<circle cx="1802.79" cy="1048.51" r="4" stroke="rgb(97,0,255)" stroke-width="2" fill="none"></circle>
<circle cx="5793.07" cy="1164.78" r="4" stroke="rgb(97,0,255)" stroke-width="2" fill="none"></circle>
<circle cx="1543.72" cy="1303.08" r="4" stroke="rgb(0,255,127)" stroke-width="2" fill="none"></circle>
<circle cx="7175.99" cy="1557.05" r="4" stroke="rgb(0,255,127)" stroke-width="2" fill="none"></circle>
<circle cx="2705.51" cy="1017.67" r="4" stroke="rgb(0,17,255)" stroke-width="2" fill="none"></circle>
<circle cx="5560.54" cy="1824.11" r="4" stroke="rgb(0,17,255)" stroke-width="2" fill="none"></circle>
<circle cx="3335.46" cy="1482.56" r="4" stroke="rgb(0,255,242)" stroke-width="2" fill="none"></circle>
<circle cx="6989.24" cy="1856.74" r="4" stroke="rgb(0,255,242)" stroke-width="2" fill="none"></circle>
<circle cx="2829.1" cy="2003.53" r="4" stroke="rgb(255,34,0)" stroke-width="2" fill="none"></circle>
<circle cx="6058.26" cy="1947.22" r="4" stroke="rgb(255,34,0)" stroke-width="2" fill="none"></circle>
<circle cx="2366.98" cy="1927.88" r="4" stroke="rgb(255,0,119)" stroke-width="2" fill="none"></circle>
<circle cx="5874.79" cy="1888.9" r="4" stroke="rgb(255,0,119)" stroke-width="2" fill="none"></circle>
<circle cx="1595.26" cy="1245.37" r="4" stroke="rgb(33,255,0)" stroke-width="2" fill="none"></circle>
<circle cx="6446.95" cy="1273.31" r="4" stroke="rgb(33,255,0)" stroke-width="2" fill="none"></circle>
<circle cx="2045.77" cy="1949.03" r="4" stroke="rgb(0,110,255)" stroke-width="2" fill="none"></circle>
<circle cx="5639.28" cy="1916.18" r="4" stroke="rgb(0,110,255)" stroke-width="2" fill="none"></circle>
<circle cx="2298.96" cy="1920.31" r="4" stroke="rgb(0,17,255)" stroke-width="2" fill="none"></circle>
<circle cx="5672.96" cy="1350.65" r="4" stroke="rgb(0,17,255)" stroke-width="2" fill="none"></circle>
<circle cx="2016.74" cy="1782.4" r="4" stroke="rgb(255,59,0)" stroke-width="2" fill="none"></circle>
<circle cx="6693.01" cy="1964.07" r="4" stroke="rgb(255,59,0)" stroke-width="2" fill="none"></circle>
<circle cx="2523.78" cy="1908.5" r="4" stroke="rgb(0,110,255)" stroke-width="2" fill="none"></circle>
<circle cx="6710.56" cy="1333.38" r="4" stroke="rgb(0,110,255)" stroke-width="2" fill="none"></circle>
<circle cx="2998.29" cy="1832.69" r="4" stroke="rgb(191,0,255)" stroke-width="2" fill="none"></circle>
<circle cx="7179.8" cy="1310.23" r="4" stroke="rgb(191,0,255)" stroke-width="2" fill="none"></circle>
<circle cx="1802.79" cy="1048.51" r="4" stroke="rgb(102,0,255)" stroke-width="2" fill="none"></circle>
<circle cx="5716.2" cy="1088.03" r="4" stroke="rgb(102,0,255)" stroke-width="2" fill="none"></circle>
<circle cx="2572.28" cy="2032.1" r="4" stroke="rgb(0,255,42)" stroke-width="2" fill="none"></circle>
<circle cx="5716.45" cy="2239.79" r="4" stroke="rgb(0,255,42)" stroke-width="2" fill="none"></circle>
<circle cx="2291.83" cy="1926.58" r="4" stroke="rgb(148,0,255)" stroke-width="2" fill="none"></circle>
<circle cx="6686.44" cy="1208.67" r="4" stroke="rgb(148,0,255)" stroke-width="2" fill="none"></circle>
<circle cx="1571.44" cy="2021.41" r="4" stroke="rgb(255,148,0)" stroke-width="2" fill="none"></circle>
<circle cx="4503.53" cy="935.776" r="4" stroke="rgb(255,148,0)" stroke-width="2" fill="none"></circle>
<circle cx="1948.41" cy="1889.52" r="4" stroke="rgb(63,0,255)" stroke-width="2" fill="none"></circle>
<circle cx="5674.18" cy="1916.43" r="4" stroke="rgb(63,0,255)" stroke-width="2" fill="none"></circle>
<circle cx="3335.46" cy="1482.56" r="4" stroke="rgb(0,191,255)" stroke-width="2" fill="none"></circle>
<circle cx="6989.46" cy="1857.08" r="4" stroke="rgb(0,191,255)" stroke-width="2" fill="none"></circle>
<circle cx="2489.98" cy="1902.61" r="4" stroke="rgb(0,255,135)" stroke-width="2" fill="none"></circle>
<circle cx="5769.96" cy="1903.95" r="4" stroke="rgb(0,255,135)" stroke-width="2" fill="none"></circle>
<circle cx="1948.41" cy="1889.52" r="4" stroke="rgb(0,72,255)" stroke-width="2" fill="none"></circle>
<circle cx="5914.82" cy="1937.08" r="4" stroke="rgb(0,72,255)" stroke-width="2" fill="none"></circle>
<circle cx="2039.1" cy="1805.97" r="4" stroke="rgb(0,212,255)" stroke-width="2" fill="none"></circle>
<circle cx="6527.81" cy="1424.96" r="4" stroke="rgb(0,212,255)" stroke-width="2" fill="none"></circle>
<circle cx="2495.6" cy="1909.94" r="4" stroke="rgb(4,0,255)" stroke-width="2" fill="none"></circle>
<circle cx="6065.39" cy="1076.67" r="4" stroke="rgb(4,0,255)" stroke-width="2" fill="none"></circle>
<circle cx="2894.71" cy="2000.84" r="4" stroke="rgb(8,255,0)" stroke-width="2" fill="none"></circle>
<circle cx="7084.32" cy="1556.09" r="4" stroke="rgb(8,255,0)" stroke-width="2" fill="none"></circle>
<circle cx="2860.22" cy="1993.14" r="4" stroke="rgb(255,0,0)" stroke-width="2" fill="none"></circle>
<circle cx="7036.85" cy="1333.81" r="4" stroke="rgb(255,0,0)" stroke-width="2" fill="none"></circle>
<circle cx="2168.32" cy="1198.09" r="4" stroke="rgb(59,255,0)" stroke-width="2" fill="none"></circle>
<circle cx="5421.1" cy="2159.54" r="4" stroke="rgb(59,255,0)" stroke-width="2" fill="none"></circle>
<circle cx="2923.76" cy="1978.98" r="4" stroke="rgb(255,157,0)" stroke-width="2" fill="none"></circle>
<circle cx="7086.55" cy="1492.72" r="4" stroke="rgb(255,157,0)" stroke-width="2" fill="none"></circle>
<circle cx="2829.1" cy="2003.53" r="4" stroke="rgb(255,0,131)" stroke-width="2" fill="none"></circle>
<circle cx="7003.06" cy="1549.13" r="4" stroke="rgb(255,0,131)" stroke-width="2" fill="none"></circle>
<circle cx="2906.72" cy="1966.83" r="4" stroke="rgb(255,0,114)" stroke-width="2" fill="none"></circle>
<circle cx="7046.38" cy="1488.27" r="4" stroke="rgb(255,0,114)" stroke-width="2" fill="none"></circle>
<circle cx="1255.79" cy="1607.04" r="4" stroke="rgb(0,255,4)" stroke-width="2" fill="none"></circle>
<circle cx="7203.44" cy="1377.61" r="4" stroke="rgb(0,255,4)" stroke-width="2" fill="none"></circle>
<circle cx="3044.67" cy="1209.99" r="4" stroke="rgb(203,255,0)" stroke-width="2" fill="none"></circle>
<circle cx="4603.34" cy="2072.48" r="4" stroke="rgb(203,255,0)" stroke-width="2" fill="none"></circle>
<circle cx="1595.26" cy="1245.37" r="4" stroke="rgb(63,255,0)" stroke-width="2" fill="none"></circle>
<circle cx="4832.84" cy="574.981" r="4" stroke="rgb(63,255,0)" stroke-width="2" fill="none"></circle>
</svg>