<?xml version="1.0" standalone="yes"?>
<!-- SVG graphic -->
<svg xmlns='http://www.w3.org/2000/svg' xmlns:xlink='http://www.w3.org/1999/xlink'
width="8064px" height="3024px" preserveAspectRatio="xMinYMin meet" viewBox="0 0 8064 3024" version="1.1">
<image x="0" y="0" width="4032px" height="3024px" opacity="1" xlink:href="/home/jeong/Code/2D-to-3D-Modeling-using-AI/Make3D/Image/20200227_180612.jpg"/>
<image x="4032" y="0" width="4032px" height="3024px" opacity="1" xlink:href="/home/jeong/Code/2D-to-3D-Modeling-using-AI/Make3D/Image/20200227_180651.jpg"/>
<polyline points="1561.54,1140.14,7107.07,1689.22" stroke="rgb(0,255,208)" stroke-width="2" fill="none"></polyline>
<polyline points="2193.74,819.524,6646.03,864.069" stroke="rgb(63,255,0)" stroke-width="2" fill="none"></polyline>
<polyline points="1757.71,1170.05,6416.04,1962.4" stroke="rgb(255,0,199)" stroke-width="2" fill="none"></polyline>
<polyline points="1738.33,754.431,5942.26,2001.38" stroke="rgb(0,191,255)" stroke-width="2" fill="none"></polyline>
<polyline points="2063.3,658.543,6058.6,1150.02" stroke="rgb(89,255,0)" stroke-width="2" fill="none"></polyline>
<polyline points="1625.7,1401.78,5708.51,1154.14" stroke="rgb(255,0,131)" stroke-width="2" fill="none"></polyline>
<polyline points="1619.38,1863.04,5920.43,1768.15" stroke="rgb(191,255,0)" stroke-width="2" fill="none"></polyline>
<polyline points="1225.69,389.736,5566.17,1241.01" stroke="rgb(255,0,161)" stroke-width="2" fill="none"></polyline>
<polyline points="1215.79,381.727,5558.46,1243.65" stroke="rgb(0,114,255)" stroke-width="2" fill="none"></polyline>
<polyline points="1101.16,982.283,7050.05,1825.69" stroke="rgb(255,199,0)" stroke-width="2" fill="none"></polyline>
<polyline points="1907.54,1641.34,5723.88,1792.78" stroke="rgb(165,0,255)" stroke-width="2" fill="none"></polyline>
<polyline points="2046.79,846.239,6434.3,1543.23" stroke="rgb(255,0,199)" stroke-width="2" fill="none"></polyline>
<polyline points="2046.79,846.239,6480.09,1559.75" stroke="rgb(255,131,0)" stroke-width="2" fill="none"></polyline>
<polyline points="1918.98,398.927,5336.97,1585.97" stroke="rgb(80,255,0)" stroke-width="2" fill="none"></polyline>
<polyline points="1714.77,510.42,5711.92,1871.46" stroke="rgb(67,255,0)" stroke-width="2" fill="none"></polyline>
<polyline points="1267.47,1750.93,5306.14,1930.01" stroke="rgb(255,51,0)" stroke-width="2" fill="none"></polyline>
<polyline points="940.27,806.219,5245.35,1580.64" stroke="rgb(255,250,0)" stroke-width="2" fill="none"></polyline>
<polyline points="1261.75,1733.1,6229.66,1660.73" stroke="rgb(255,229,0)" stroke-width="2" fill="none"></polyline>
<polyline points="1684.74,1235.92,5967.32,1927.79" stroke="rgb(255,102,0)" stroke-width="2" fill="none"></polyline>
<polyline points="1965.56,807.726,5825.97,1666.57" stroke="rgb(0,208,255)" stroke-width="2" fill="none"></polyline>
<polyline points="1614.41,478.595,6961.68,1917.72" stroke="rgb(0,114,255)" stroke-width="2" fill="none"></polyline>
<polyline points="2102.88,469.613,5691.33,1166.91" stroke="rgb(0,203,255)" stroke-width="2" fill="none"></polyline>
<polyline points="868.846,679.228,7448.55,1277.46" stroke="rgb(255,0,38)" stroke-width="2" fill="none"></polyline>
<polyline points="2357.92,1175.74,6461.92,1633.79" stroke="rgb(255,174,0)" stroke-width="2" fill="none"></polyline>
<polyline points="1403.49,1572.16,7154.1,1485.17" stroke="rgb(255,238,0)" stroke-width="2" fill="none"></polyline>
<polyline points="868.846,679.228,6302.39,1025.87" stroke="rgb(255,157,0)" stroke-width="2" fill="none"></polyline>
<polyline points="1568.46,167.898,5357.99,2024.55" stroke="rgb(0,229,255)" stroke-width="2" fill="none"></polyline>
<polyline points="1545.18,380.674,6943.21,1969.05" stroke="rgb(255,46,0)" stroke-width="2" fill="none"></polyline>
<polyline points="879.859,35.6439,5253.77,2011.88" stroke="rgb(255,165,0)" stroke-width="2" fill="none"></polyline>
<polyline points="857.819,589.568,5745.35,1574.37" stroke="rgb(12,0,255)" stroke-width="2" fill="none"></polyline>
<polyline points="857.819,589.568,5745.52,1573.68" stroke="rgb(255,93,0)" stroke-width="2" fill="none"></polyline>
<polyline points="1743.11,1398.19,5875.22,1723.83" stroke="rgb(169,255,0)" stroke-width="2" fill="none"></polyline>
<polyline points="1446.54,1612.26,5711.25,1517.98" stroke="rgb(255,0,51)" stroke-width="2" fill="none"></polyline>
<polyline points="1446.54,1612.26,5711.25,1517.98" stroke="rgb(0,135,255)" stroke-width="2" fill="none"></polyline>
<circle cx="1561.54" cy="1140.14" r="4" stroke="rgb(0,255,208)" stroke-width="2" fill="none"></circle>
<circle cx="7107.07" cy="1689.22" r="4" stroke="rgb(0,255,208)" stroke-width="2" fill="none"></circle>
<circle cx="2193.74" cy="819.524" r="4" stroke="rgb(63,255,0)" stroke-width="2" fill="none"></circle>
<circle cx="6646.03" cy="864.069" r="4" stroke="rgb(63,255,0)" stroke-width="2" fill="none"></circle>
<circle cx="1757.71" cy="1170.05" r="4" stroke="rgb(255,0,199)" stroke-width="2" fill="none"></circle>
<circle cx="6416.04" cy="1962.4" r="4" stroke="rgb(255,0,199)" stroke-width="2" fill="none"></circle>
<circle cx="1738.33" cy="754.431" r="4" stroke="rgb(0,191,255)" stroke-width="2" fill="none"></circle>
<circle cx="5942.26" cy="2001.38" r="4" stroke="rgb(0,191,255)" stroke-width="2" fill="none"></circle>
<circle cx="2063.3" cy="658.543" r="4" stroke="rgb(89,255,0)" stroke-width="2" fill="none"></circle>
<circle cx="6058.6" cy="1150.02" r="4" stroke="rgb(89,255,0)" stroke-width="2" fill="none"></circle>
<circle cx="1625.7" cy="1401.78" r="4" stroke="rgb(255,0,131)" stroke-width="2" fill="none"></circle>
<circle cx="5708.51" cy="1154.14" r="4" stroke="rgb(255,0,131)" stroke-width="2" fill="none"></circle>
<circle cx="1619.38" cy="1863.04" r="4" stroke="rgb(191,255,0)" stroke-width="2" fill="none"></circle>
<circle cx="5920.43" cy="1768.15" r="4" stroke="rgb(191,255,0)" stroke-width="2" fill="none"></circle>
<circle cx="1225.69" cy="389.736" r="4" stroke="rgb(255,0,161)" stroke-width="2" fill="none"></circle>
<circle cx="5566.17" cy="1241.01" r="4" stroke="rgb(255,0,161)" stroke-width="2" fill="none"></circle>
<circle cx="1215.79" cy="381.727" r="4" stroke="rgb(0,114,255)" stroke-width="2" fill="none"></circle>
<circle cx="5558.46" cy="1243.65" r="4" stroke="rgb(0,114,255)" stroke-width="2" fill="none"></circle>
<circle cx="1101.16" cy="982.283" r="4" stroke="rgb(255,199,0)" stroke-width="2" fill="none"></circle>
<circle cx="7050.05" cy="1825.69" r="4" stroke="rgb(255,199,0)" stroke-width="2" fill="none"></circle>
<circle cx="1907.54" cy="1641.34" r="4" stroke="rgb(165,0,255)" stroke-width="2" fill="none"></circle>
<circle cx="5723.88" cy="1792.78" r="4" stroke="rgb(165,0,255)" stroke-width="2" fill="none"></circle>
<circle cx="2046.79" cy="846.239" r="4" stroke="rgb(255,0,199)" stroke-width="2" fill="none"></circle>
<circle cx="6434.3" cy="1543.23" r="4" stroke="rgb(255,0,199)" stroke-width="2" fill="none"></circle>
<circle cx="2046.79" cy="846.239" r="4" stroke="rgb(255,131,0)" stroke-width="2" fill="none"></circle>
<circle cx="6480.09" cy="1559.75" r="4" stroke="rgb(255,131,0)" stroke-width="2" fill="none"></circle>
<circle cx="1918.98" cy="398.927" r="4" stroke="rgb(80,255,0)" stroke-width="2" fill="none"></circle>
<circle cx="5336.97" cy="1585.97" r="4" stroke="rgb(80,255,0)" stroke-width="2" fill="none"></circle>
<circle cx="1714.77" cy="510.42" r="4" stroke="rgb(67,255,0)" stroke-width="2" fill="none"></circle>
<circle cx="5711.92" cy="1871.46" r="4" stroke="rgb(67,255,0)" stroke-width="2" fill="none"></circle>
<circle cx="1267.47" cy="1750.93" r="4" stroke="rgb(255,51,0)" stroke-width="2" fill="none"></circle>
<circle cx="5306.14" cy="1930.01" r="4" stroke="rgb(255,51,0)" stroke-width="2" fill="none"></circle>
<circle cx="940.27" cy="806.219" r="4" stroke="rgb(255,250,0)" stroke-width="2" fill="none"></circle>
<circle cx="5245.35" cy="1580.64" r="4" stroke="rgb(255,250,0)" stroke-width="2" fill="none"></circle>
<circle cx="1261.75" cy="1733.1" r="4" stroke="rgb(255,229,0)" stroke-width="2" fill="none"></circle>
<circle cx="6229.66" cy="1660.73" r="4" stroke="rgb(255,229,0)" stroke-width="2" fill="none"></circle>
<circle cx="1684.74" cy="1235.92" r="4" stroke="rgb(255,102,0)" stroke-width="2" fill="none"></circle>
<circle cx="5967.32" cy="1927.79" r="4" stroke="rgb(255,102,0)" stroke-width="2" fill="none"></circle>
<circle cx="1965.56" cy="807.726" r="4" stroke="rgb(0,208,255)" stroke-width="2" fill="none"></circle>
<circle cx="5825.97" cy="1666.57" r="4" stroke="rgb(0,208,255)" stroke-width="2" fill="none"></circle>
<circle cx="1614.41" cy="478.595" r="4" stroke="rgb(0,114,255)" stroke-width="2" fill="none"></circle>
<circle cx="6961.68" cy="1917.72" r="4" stroke="rgb(0,114,255)" stroke-width="2" fill="none"></circle>
<circle cx="2102.88" cy="469.613" r="4" stroke="rgb(0,203,255)" stroke-width="2" fill="none"></circle>
<circle cx="5691.33" cy="1166.91" r="4" stroke="rgb(0,203,255)" stroke-width="2" fill="none"></circle>
<circle cx="868.846" cy="679.228" r="4" stroke="rgb(255,0,38)" stroke-width="2" fill="none"></circle>
<circle cx="7448.55" cy="1277.46" r="4" stroke="rgb(255,0,38)" stroke-width="2" fill="none"></circle>
<circle cx="2357.92" cy="1175.74" r="4" stroke="rgb(255,174,0)" stroke-width="2" fill="none"></circle>
<circle cx="6461.92" cy="1633.79" r="4" stroke="rgb(255,174,0)" stroke-width="2" fill="none"></circle>
<circle cx="1403.49" cy="1572.16" r="4" stroke="rgb(255,238,0)" stroke-width="2" fill="none"></circle>
<circle cx="7154.1" cy="1485.17" r="4" stroke="rgb(255,238,0)" stroke-width="2" fill="none"></circle>
<circle cx="868.846" cy="679.228" r="4" stroke="rgb(255,157,0)" stroke-width="2" fill="none"></circle>
<circle cx="6302.39" cy="1025.87" r="4" stroke="rgb(255,157,0)" stroke-width="2" fill="none"></circle>
<circle cx="1568.46" cy="167.898" r="4" stroke="rgb(0,229,255)" stroke-width="2" fill="none"></circle>
<circle cx="5357.99" cy="2024.55" r="4" stroke="rgb(0,229,255)" stroke-width="2" fill="none"></circle>
<circle cx="1545.18" cy="380.674" r="4" stroke="rgb(255,46,0)" stroke-width="2" fill="none"></circle>
<circle cx="6943.21" cy="1969.05" r="4" stroke="rgb(255,46,0)" stroke-width="2" fill="none"></circle>
<circle cx="879.859" cy="35.6439" r="4" stroke="rgb(255,165,0)" stroke-width="2" fill="none"></circle>
<circle cx="5253.77" cy="2011.88" r="4" stroke="rgb(255,165,0)" stroke-width="2" fill="none"></circle>
<circle cx="857.819" cy="589.568" r="4" stroke="rgb(12,0,255)" stroke-width="2" fill="none"></circle>
<circle cx="5745.35" cy="1574.37" r="4" stroke="rgb(12,0,255)" stroke-width="2" fill="none"></circle>
<circle cx="857.819" cy="589.568" r="4" stroke="rgb(255,93,0)" stroke-width="2" fill="none"></circle>
<circle cx="5745.52" cy="1573.68" r="4" stroke="rgb(255,93,0)" stroke-width="2" fill="none"></circle>
<circle cx="1743.11" cy="1398.19" r="4" stroke="rgb(169,255,0)" stroke-width="2" fill="none"></circle>
<circle cx="5875.22" cy="1723.83" r="4" stroke="rgb(169,255,0)" stroke-width="2" fill="none"></circle>
<circle cx="1446.54" cy="1612.26" r="4" stroke="rgb(255,0,51)" stroke-width="2" fill="none"></circle>
<circle cx="5711.25" cy="1517.98" r="4" stroke="rgb(255,0,51)" stroke-width="2" fill="none"></circle>
<circle cx="1446.54" cy="1612.26" r="4" stroke="rgb(0,135,255)" stroke-width="2" fill="none"></circle>
<circle cx="5711.25" cy="1517.98" r="4" stroke="rgb(0,135,255)" stroke-width="2" fill="none"></circle>
</svg>