<?xml version="1.0" standalone="yes"?>
<!-- SVG graphic -->
<svg xmlns='http://www.w3.org/2000/svg' xmlns:xlink='http://www.w3.org/1999/xlink'
width="8064px" height="3024px" preserveAspectRatio="xMinYMin meet" viewBox="0 0 8064 3024" version="1.1">
<image x="0" y="0" width="4032px" height="3024px" opacity="1" xlink:href="/home/jeong/Code/2D-to-3D-Modeling-using-AI/Make3D/Image/20200227_180612.jpg"/>
<image x="4032" y="0" width="4032px" height="3024px" opacity="1" xlink:href="/home/jeong/Code/2D-to-3D-Modeling-using-AI/Make3D/Image/20200227_180704.jpg"/>
<polyline points="1068.39,76.4996,5620.62,1245.01" stroke="rgb(187,255,0)" stroke-width="2" fill="none"></polyline>
<polyline points="1529.29,87.0378,5977.01,618.284" stroke="rgb(0,208,255)" stroke-width="2" fill="none"></polyline>
<polyline points="1037.14,125.866,6753.94,1135.3" stroke="rgb(67,0,255)" stroke-width="2" fill="none"></polyline>
<polyline points="1084.28,130.712,6753.09,1176.97" stroke="rgb(195,255,0)" stroke-width="2" fill="none"></polyline>
<polyline points="1582,136.944,5981.04,771.08" stroke="rgb(255,0,76)" stroke-width="2" fill="none"></polyline>
<polyline points="1170.58,141.887,5932.31,1910.71" stroke="rgb(0,255,237)" stroke-width="2" fill="none"></polyline>
<polyline points="1634.25,170.366,6751.86,1767.9" stroke="rgb(255,131,0)" stroke-width="2" fill="none"></polyline>
<polyline points="1645.71,181.064,5328.74,850.323" stroke="rgb(169,255,0)" stroke-width="2" fill="none"></polyline>
<polyline points="628.852,183.062,5772.18,1595.34" stroke="rgb(0,89,255)" stroke-width="2" fill="none"></polyline>
<polyline points="1641.62,186.55,5816.64,1215.8" stroke="rgb(255,195,0)" stroke-width="2" fill="none"></polyline>
<polyline points="1671.56,193.36,5592.27,394.117" stroke="rgb(0,255,182)" stroke-width="2" fill="none"></polyline>
<polyline points="742.326,201.088,5946.25,1943.63" stroke="rgb(0,255,101)" stroke-width="2" fill="none"></polyline>
<polyline points="1721.11,228.913,6656.71,1364.79" stroke="rgb(0,110,255)" stroke-width="2" fill="none"></polyline>
<polyline points="1552.15,230.283,6102.78,666.45" stroke="rgb(255,0,199)" stroke-width="2" fill="none"></polyline>
<polyline points="1180.5,239.948,5613.23,1324.13" stroke="rgb(255,119,0)" stroke-width="2" fill="none"></polyline>
<polyline points="1165.94,240.644,5512.85,308.134" stroke="rgb(169,255,0)" stroke-width="2" fill="none"></polyline>
<polyline points="1155.7,272.231,5970.37,955.647" stroke="rgb(250,255,0)" stroke-width="2" fill="none"></polyline>
<polyline points="1268.04,307.901,6369.34,754.172" stroke="rgb(187,255,0)" stroke-width="2" fill="none"></polyline>
<polyline points="1239.26,380.304,6050.8,575.531" stroke="rgb(255,0,97)" stroke-width="2" fill="none"></polyline>
<polyline points="749.528,387.653,5549.1,1235.18" stroke="rgb(67,255,0)" stroke-width="2" fill="none"></polyline>
<polyline points="1918.98,398.927,6783.15,1999.12" stroke="rgb(0,25,255)" stroke-width="2" fill="none"></polyline>
<polyline points="1844.11,430.772,5657.68,831.937" stroke="rgb(255,0,59)" stroke-width="2" fill="none"></polyline>
<polyline points="1185.17,441.148,5500.25,1164.45" stroke="rgb(233,255,0)" stroke-width="2" fill="none"></polyline>
<polyline points="1130.6,449.103,5270.44,1650.38" stroke="rgb(0,255,25)" stroke-width="2" fill="none"></polyline>
<polyline points="1250.99,450.133,5643.12,1218.9" stroke="rgb(0,255,114)" stroke-width="2" fill="none"></polyline>
<polyline points="1853.47,453.573,6721.32,1354.03" stroke="rgb(246,255,0)" stroke-width="2" fill="none"></polyline>
<polyline points="1614.41,478.595,6081.91,1422.73" stroke="rgb(157,255,0)" stroke-width="2" fill="none"></polyline>
<polyline points="1203.73,492.087,5756.98,1802.86" stroke="rgb(0,255,216)" stroke-width="2" fill="none"></polyline>
<polyline points="1283.09,512.752,5904.04,1619.66" stroke="rgb(63,0,255)" stroke-width="2" fill="none"></polyline>
<polyline points="1205.84,528.252,5782,1872.5" stroke="rgb(255,199,0)" stroke-width="2" fill="none"></polyline>
<polyline points="1635.46,530.057,5633.35,1804.2" stroke="rgb(195,0,255)" stroke-width="2" fill="none"></polyline>
<polyline points="1903.13,550.278,6318.46,1088.02" stroke="rgb(0,157,255)" stroke-width="2" fill="none"></polyline>
<polyline points="1799.38,560.378,6074.82,904.366" stroke="rgb(38,255,0)" stroke-width="2" fill="none"></polyline>
<polyline points="1290.1,561.994,5993.06,1891.5" stroke="rgb(255,229,0)" stroke-width="2" fill="none"></polyline>
<polyline points="1289.28,562.717,6544.16,1744.99" stroke="rgb(157,0,255)" stroke-width="2" fill="none"></polyline>
<polyline points="2125.72,564.413,5323.83,1695.02" stroke="rgb(255,0,148)" stroke-width="2" fill="none"></polyline>
<polyline points="1269.83,569.81,6704.63,1779.4" stroke="rgb(0,42,255)" stroke-width="2" fill="none"></polyline>
<polyline points="1464.89,584.476,6640.18,859.075" stroke="rgb(0,255,254)" stroke-width="2" fill="none"></polyline>
<polyline points="857.819,589.568,5266.58,2003.92" stroke="rgb(255,195,0)" stroke-width="2" fill="none"></polyline>
<polyline points="1227.66,608.781,5854.28,1202.44" stroke="rgb(255,0,161)" stroke-width="2" fill="none"></polyline>
<polyline points="1299.48,609.096,5760.1,1843.77" stroke="rgb(0,55,255)" stroke-width="2" fill="none"></polyline>
<polyline points="1904.04,622.225,6686.84,1927.04" stroke="rgb(165,255,0)" stroke-width="2" fill="none"></polyline>
<polyline points="1198.57,623.993,6657.44,1068.47" stroke="rgb(59,255,0)" stroke-width="2" fill="none"></polyline>
<polyline points="1196.04,630.846,5893.8,1475.81" stroke="rgb(165,255,0)" stroke-width="2" fill="none"></polyline>
<polyline points="2042.33,658.838,6174.73,2038.04" stroke="rgb(255,144,0)" stroke-width="2" fill="none"></polyline>
<polyline points="896.531,659.241,5771.62,492.843" stroke="rgb(0,255,63)" stroke-width="2" fill="none"></polyline>
<polyline points="1300.3,665.718,5591.28,704.351" stroke="rgb(0,255,178)" stroke-width="2" fill="none"></polyline>
<polyline points="1747.4,669.523,6604.25,896.039" stroke="rgb(255,0,136)" stroke-width="2" fill="none"></polyline>
<polyline points="1818.01,692.059,6715.12,1432.38" stroke="rgb(0,123,255)" stroke-width="2" fill="none"></polyline>
<polyline points="1905.25,719.639,6645.8,815.383" stroke="rgb(255,46,0)" stroke-width="2" fill="none"></polyline>
<polyline points="975.217,726.425,5683.62,1353.3" stroke="rgb(203,255,0)" stroke-width="2" fill="none"></polyline>
<polyline points="1747.35,735.996,5515.73,1354.58" stroke="rgb(148,255,0)" stroke-width="2" fill="none"></polyline>
<polyline points="1963.29,745.726,5878.58,865.111" stroke="rgb(255,0,12)" stroke-width="2" fill="none"></polyline>
<polyline points="1259.54,752.341,6408.97,833.203" stroke="rgb(255,38,0)" stroke-width="2" fill="none"></polyline>
<polyline points="1243.95,762.202,6749.57,1667.53" stroke="rgb(157,255,0)" stroke-width="2" fill="none"></polyline>
<polyline points="2001.23,772.358,5434.56,1559.09" stroke="rgb(0,255,101)" stroke-width="2" fill="none"></polyline>
<polyline points="1949.25,779.342,5603.1,1991.89" stroke="rgb(208,255,0)" stroke-width="2" fill="none"></polyline>
<polyline points="896.924,779.887,6155.31,1033.16" stroke="rgb(0,255,199)" stroke-width="2" fill="none"></polyline>
<polyline points="1156.76,791.241,6570.16,1351.34" stroke="rgb(0,225,255)" stroke-width="2" fill="none"></polyline>
<polyline points="900.654,799.918,6095.11,1195.15" stroke="rgb(0,174,255)" stroke-width="2" fill="none"></polyline>
<polyline points="2032.52,805.802,6281.35,1105.54" stroke="rgb(144,255,0)" stroke-width="2" fill="none"></polyline>
<polyline points="2174.44,806.545,5709.63,774.317" stroke="rgb(25,255,0)" stroke-width="2" fill="none"></polyline>
<polyline points="1557.04,820.46,5832.76,1252.77" stroke="rgb(255,178,0)" stroke-width="2" fill="none"></polyline>
<polyline points="901.149,829.042,6429.48,963.78" stroke="rgb(216,255,0)" stroke-width="2" fill="none"></polyline>
<polyline points="1018.06,829.613,5899.75,1552.41" stroke="rgb(255,170,0)" stroke-width="2" fill="none"></polyline>
<polyline points="912.758,834.098,6101.06,684.22" stroke="rgb(255,0,169)" stroke-width="2" fill="none"></polyline>
<polyline points="1843.7,834.762,6728.9,913.26" stroke="rgb(255,148,0)" stroke-width="2" fill="none"></polyline>
<polyline points="1897.81,842.568,5651.7,1586.97" stroke="rgb(131,0,255)" stroke-width="2" fill="none"></polyline>
<polyline points="890.239,842.858,6354.04,746.766" stroke="rgb(255,51,0)" stroke-width="2" fill="none"></polyline>
<polyline points="2046.2,853.99,5680.28,889.425" stroke="rgb(165,255,0)" stroke-width="2" fill="none"></polyline>
<polyline points="2191.79,859.668,6051.79,1427.03" stroke="rgb(0,29,255)" stroke-width="2" fill="none"></polyline>
<polyline points="1764.88,870.782,6404.89,805.976" stroke="rgb(0,4,255)" stroke-width="2" fill="none"></polyline>
<polyline points="1769.02,880.842,6048.06,678.35" stroke="rgb(0,255,178)" stroke-width="2" fill="none"></polyline>
<polyline points="1770.8,887.895,6093.15,894.317" stroke="rgb(0,123,255)" stroke-width="2" fill="none"></polyline>
<polyline points="2050.5,889.493,6530.05,957.564" stroke="rgb(255,0,165)" stroke-width="2" fill="none"></polyline>
<polyline points="1397.49,895.447,6320.77,1155.4" stroke="rgb(221,255,0)" stroke-width="2" fill="none"></polyline>
<polyline points="1872.21,896.586,6093.7,1420.81" stroke="rgb(255,0,59)" stroke-width="2" fill="none"></polyline>
<polyline points="1378.02,897.923,6101.7,1419.46" stroke="rgb(255,0,21)" stroke-width="2" fill="none"></polyline>
<polyline points="1010.26,907.582,6488.44,1155.63" stroke="rgb(118,0,255)" stroke-width="2" fill="none"></polyline>
<polyline points="1268.46,911.902,5877.18,1272.69" stroke="rgb(0,182,255)" stroke-width="2" fill="none"></polyline>
<polyline points="1063.03,923.622,5455.4,1088.7" stroke="rgb(255,25,0)" stroke-width="2" fill="none"></polyline>
<polyline points="2218.12,956.294,6390.8,1158.78" stroke="rgb(0,114,255)" stroke-width="2" fill="none"></polyline>
<polyline points="1846.05,959.147,6569.81,941.913" stroke="rgb(0,255,144)" stroke-width="2" fill="none"></polyline>
<polyline points="1386.59,961.46,5728.29,1959.54" stroke="rgb(0,21,255)" stroke-width="2" fill="none"></polyline>
<polyline points="1363.1,961.535,5878.37,1229.3" stroke="rgb(0,76,255)" stroke-width="2" fill="none"></polyline>
<polyline points="993.003,979.95,6159.3,1199.26" stroke="rgb(0,8,255)" stroke-width="2" fill="none"></polyline>
<polyline points="1873.72,980.268,6046.95,920.397" stroke="rgb(46,0,255)" stroke-width="2" fill="none"></polyline>
<polyline points="1989.42,981.178,6622.14,1423.51" stroke="rgb(0,255,195)" stroke-width="2" fill="none"></polyline>
<polyline points="1826.24,981.31,6390.9,956.306" stroke="rgb(157,0,255)" stroke-width="2" fill="none"></polyline>
<polyline points="1101.16,982.283,6767.87,1874" stroke="rgb(174,255,0)" stroke-width="2" fill="none"></polyline>
<polyline points="1986.79,991.667,5742.82,582.846" stroke="rgb(0,12,255)" stroke-width="2" fill="none"></polyline>
<polyline points="943.073,1009.28,5797.06,491.084" stroke="rgb(0,21,255)" stroke-width="2" fill="none"></polyline>
<polyline points="1381.69,1012.54,5934.22,731.183" stroke="rgb(233,255,0)" stroke-width="2" fill="none"></polyline>
<polyline points="1871.93,1017.9,6606.45,806.084" stroke="rgb(165,0,255)" stroke-width="2" fill="none"></polyline>
<polyline points="1808.72,1031.39,6679.98,1558.41" stroke="rgb(255,0,233)" stroke-width="2" fill="none"></polyline>
<polyline points="1111.88,1046.65,6755.86,1928.56" stroke="rgb(63,255,0)" stroke-width="2" fill="none"></polyline>
<polyline points="1086.9,1055.76,5575.01,1026.32" stroke="rgb(38,255,0)" stroke-width="2" fill="none"></polyline>
<polyline points="1795.84,1060.14,5964.86,1996.19" stroke="rgb(255,0,85)" stroke-width="2" fill="none"></polyline>
<polyline points="1711.09,1071.9,6569.15,1587.13" stroke="rgb(34,0,255)" stroke-width="2" fill="none"></polyline>
<polyline points="1767.25,1087.84,5724.46,846.744" stroke="rgb(0,255,16)" stroke-width="2" fill="none"></polyline>
<polyline points="911.907,1112.14,5677.15,431.333" stroke="rgb(225,0,255)" stroke-width="2" fill="none"></polyline>
<polyline points="1898.81,1128.02,5606.51,1181.32" stroke="rgb(0,255,4)" stroke-width="2" fill="none"></polyline>
<polyline points="1908.2,1132.04,5515.2,278.021" stroke="rgb(0,21,255)" stroke-width="2" fill="none"></polyline>
<polyline points="1786.38,1137.7,6665.84,1091.08" stroke="rgb(255,0,140)" stroke-width="2" fill="none"></polyline>
<polyline points="1829.88,1149.69,6711.11,881.318" stroke="rgb(255,0,114)" stroke-width="2" fill="none"></polyline>
<polyline points="1815.6,1159.28,5883.44,766.083" stroke="rgb(221,255,0)" stroke-width="2" fill="none"></polyline>
<polyline points="1838.56,1160.37,5638.98,1785.36" stroke="rgb(114,0,255)" stroke-width="2" fill="none"></polyline>
<polyline points="1055.16,1163.58,5736.18,1923.95" stroke="rgb(0,208,255)" stroke-width="2" fill="none"></polyline>
<polyline points="1726.51,1166.98,6006.62,550.257" stroke="rgb(242,255,0)" stroke-width="2" fill="none"></polyline>
<polyline points="1757.71,1170.05,5542.96,299.109" stroke="rgb(0,255,237)" stroke-width="2" fill="none"></polyline>
<polyline points="1683.78,1170.52,6567.06,1602.29" stroke="rgb(255,123,0)" stroke-width="2" fill="none"></polyline>
<polyline points="1877.71,1187.68,6282.21,682.474" stroke="rgb(255,0,250)" stroke-width="2" fill="none"></polyline>
<polyline points="1708.91,1199.51,6046.15,1710.71" stroke="rgb(255,123,0)" stroke-width="2" fill="none"></polyline>
<polyline points="1070.09,1201.74,5750.81,490.349" stroke="rgb(255,233,0)" stroke-width="2" fill="none"></polyline>
<polyline points="2190.47,1204.11,6049.9,557.971" stroke="rgb(255,204,0)" stroke-width="2" fill="none"></polyline>
<polyline points="1747.45,1209.52,5779.88,1571.27" stroke="rgb(0,255,12)" stroke-width="2" fill="none"></polyline>
<polyline points="2209.9,1215.94,5852.8,1990.83" stroke="rgb(0,255,191)" stroke-width="2" fill="none"></polyline>
<polyline points="1684.74,1235.92,6277.79,714.317" stroke="rgb(254,0,255)" stroke-width="2" fill="none"></polyline>
<polyline points="1741.08,1242.41,5854.72,1978.03" stroke="rgb(208,0,255)" stroke-width="2" fill="none"></polyline>
<polyline points="1750.25,1247.07,6730.06,1658.35" stroke="rgb(255,0,195)" stroke-width="2" fill="none"></polyline>
<polyline points="1695.78,1255.88,6417.55,1117.16" stroke="rgb(255,80,0)" stroke-width="2" fill="none"></polyline>
<polyline points="1735.34,1272.64,5761.25,1333.57" stroke="rgb(255,161,0)" stroke-width="2" fill="none"></polyline>
<polyline points="1894.4,1308.44,5683.51,1048.41" stroke="rgb(0,212,255)" stroke-width="2" fill="none"></polyline>
<polyline points="1717.98,1313.01,6219.07,1092.84" stroke="rgb(153,255,0)" stroke-width="2" fill="none"></polyline>
<polyline points="1653.13,1314.2,5539.87,368.206" stroke="rgb(255,0,178)" stroke-width="2" fill="none"></polyline>
<polyline points="862.57,1315.78,5097.29,1909.18" stroke="rgb(255,29,0)" stroke-width="2" fill="none"></polyline>
<polyline points="1756.39,1321.5,5758.82,1510.62" stroke="rgb(250,255,0)" stroke-width="2" fill="none"></polyline>
<polyline points="1634.56,1343.99,5852.79,1774.55" stroke="rgb(255,0,250)" stroke-width="2" fill="none"></polyline>
<polyline points="1788.65,1364.25,6284.29,732.411" stroke="rgb(0,89,255)" stroke-width="2" fill="none"></polyline>
<polyline points="1786.39,1370.45,5524.41,403.727" stroke="rgb(255,0,212)" stroke-width="2" fill="none"></polyline>
<polyline points="1656.85,1389.87,5386.54,702.236" stroke="rgb(242,0,255)" stroke-width="2" fill="none"></polyline>
<polyline points="1825.06,1407.93,5695.05,932.74" stroke="rgb(0,255,135)" stroke-width="2" fill="none"></polyline>
<polyline points="2279.26,1422.9,5755.77,1464.87" stroke="rgb(255,0,242)" stroke-width="2" fill="none"></polyline>
<polyline points="1739.26,1432.61,6483.79,1031.29" stroke="rgb(0,255,225)" stroke-width="2" fill="none"></polyline>
<polyline points="1743.21,1485.46,6516.79,1858.1" stroke="rgb(4,255,0)" stroke-width="2" fill="none"></polyline>
<polyline points="1625.98,1500.47,6752.82,917.3" stroke="rgb(153,0,255)" stroke-width="2" fill="none"></polyline>
<polyline points="2086.67,1502.73,6507.37,1149.99" stroke="rgb(4,0,255)" stroke-width="2" fill="none"></polyline>
<polyline points="1365.71,1567.75,5674.93,392.702" stroke="rgb(76,0,255)" stroke-width="2" fill="none"></polyline>
<polyline points="2079.44,1594.04,5661.6,1596.37" stroke="rgb(255,0,85)" stroke-width="2" fill="none"></polyline>
<polyline points="2106.12,1599.07,5915.58,586.879" stroke="rgb(0,255,242)" stroke-width="2" fill="none"></polyline>
<polyline points="2140.73,1601.74,6734.25,966.626" stroke="rgb(195,255,0)" stroke-width="2" fill="none"></polyline>
<polyline points="2130.81,1606.32,5715.18,1030.22" stroke="rgb(4,0,255)" stroke-width="2" fill="none"></polyline>
<polyline points="1749.45,1612.36,6190.97,998.428" stroke="rgb(255,0,42)" stroke-width="2" fill="none"></polyline>
<polyline points="2077.68,1615.28,6193.88,960.863" stroke="rgb(255,0,106)" stroke-width="2" fill="none"></polyline>
<polyline points="1779,1645.43,6724.6,1660.58" stroke="rgb(238,0,255)" stroke-width="2" fill="none"></polyline>
<polyline points="1893.73,1647.28,6707.42,1528.15" stroke="rgb(255,165,0)" stroke-width="2" fill="none"></polyline>
<polyline points="1768.29,1665.32,5744.02,548.304" stroke="rgb(89,255,0)" stroke-width="2" fill="none"></polyline>
<polyline points="1287.44,1678.5,6020.67,1568.2" stroke="rgb(76,255,0)" stroke-width="2" fill="none"></polyline>
<polyline points="1267.47,1750.93,5492.5,354.583" stroke="rgb(255,0,89)" stroke-width="2" fill="none"></polyline>
<polyline points="1599.19,1806.1,5941.99,936.012" stroke="rgb(85,0,255)" stroke-width="2" fill="none"></polyline>
<polyline points="1071.39,1834.7,5630.71,832.041" stroke="rgb(203,0,255)" stroke-width="2" fill="none"></polyline>
<circle cx="1068.39" cy="76.4996" r="4" stroke="rgb(187,255,0)" stroke-width="2" fill="none"></circle>
<circle cx="5620.62" cy="1245.01" r="4" stroke="rgb(187,255,0)" stroke-width="2" fill="none"></circle>
<circle cx="1529.29" cy="87.0378" r="4" stroke="rgb(0,208,255)" stroke-width="2" fill="none"></circle>
<circle cx="5977.01" cy="618.284" r="4" stroke="rgb(0,208,255)" stroke-width="2" fill="none"></circle>
<circle cx="1037.14" cy="125.866" r="4" stroke="rgb(67,0,255)" stroke-width="2" fill="none"></circle>
<circle cx="6753.94" cy="1135.3" r="4" stroke="rgb(67,0,255)" stroke-width="2" fill="none"></circle>
<circle cx="1084.28" cy="130.712" r="4" stroke="rgb(195,255,0)" stroke-width="2" fill="none"></circle>
<circle cx="6753.09" cy="1176.97" r="4" stroke="rgb(195,255,0)" stroke-width="2" fill="none"></circle>
<circle cx="1582" cy="136.944" r="4" stroke="rgb(255,0,76)" stroke-width="2" fill="none"></circle>
<circle cx="5981.04" cy="771.08" r="4" stroke="rgb(255,0,76)" stroke-width="2" fill="none"></circle>
<circle cx="1170.58" cy="141.887" r="4" stroke="rgb(0,255,237)" stroke-width="2" fill="none"></circle>
<circle cx="5932.31" cy="1910.71" r="4" stroke="rgb(0,255,237)" stroke-width="2" fill="none"></circle>
<circle cx="1634.25" cy="170.366" r="4" stroke="rgb(255,131,0)" stroke-width="2" fill="none"></circle>
<circle cx="6751.86" cy="1767.9" r="4" stroke="rgb(255,131,0)" stroke-width="2" fill="none"></circle>
<circle cx="1645.71" cy="181.064" r="4" stroke="rgb(169,255,0)" stroke-width="2" fill="none"></circle>
<circle cx="5328.74" cy="850.323" r="4" stroke="rgb(169,255,0)" stroke-width="2" fill="none"></circle>
<circle cx="628.852" cy="183.062" r="4" stroke="rgb(0,89,255)" stroke-width="2" fill="none"></circle>
<circle cx="5772.18" cy="1595.34" r="4" stroke="rgb(0,89,255)" stroke-width="2" fill="none"></circle>
<circle cx="1641.62" cy="186.55" r="4" stroke="rgb(255,195,0)" stroke-width="2" fill="none"></circle>
<circle cx="5816.64" cy="1215.8" r="4" stroke="rgb(255,195,0)" stroke-width="2" fill="none"></circle>
<circle cx="1671.56" cy="193.36" r="4" stroke="rgb(0,255,182)" stroke-width="2" fill="none"></circle>
<circle cx="5592.27" cy="394.117" r="4" stroke="rgb(0,255,182)" stroke-width="2" fill="none"></circle>
<circle cx="742.326" cy="201.088" r="4" stroke="rgb(0,255,101)" stroke-width="2" fill="none"></circle>
<circle cx="5946.25" cy="1943.63" r="4" stroke="rgb(0,255,101)" stroke-width="2" fill="none"></circle>
<circle cx="1721.11" cy="228.913" r="4" stroke="rgb(0,110,255)" stroke-width="2" fill="none"></circle>
<circle cx="6656.71" cy="1364.79" r="4" stroke="rgb(0,110,255)" stroke-width="2" fill="none"></circle>
<circle cx="1552.15" cy="230.283" r="4" stroke="rgb(255,0,199)" stroke-width="2" fill="none"></circle>
<circle cx="6102.78" cy="666.45" r="4" stroke="rgb(255,0,199)" stroke-width="2" fill="none"></circle>
<circle cx="1180.5" cy="239.948" r="4" stroke="rgb(255,119,0)" stroke-width="2" fill="none"></circle>
<circle cx="5613.23" cy="1324.13" r="4" stroke="rgb(255,119,0)" stroke-width="2" fill="none"></circle>
<circle cx="1165.94" cy="240.644" r="4" stroke="rgb(169,255,0)" stroke-width="2" fill="none"></circle>
<circle cx="5512.85" cy="308.134" r="4" stroke="rgb(169,255,0)" stroke-width="2" fill="none"></circle>
<circle cx="1155.7" cy="272.231" r="4" stroke="rgb(250,255,0)" stroke-width="2" fill="none"></circle>
<circle cx="5970.37" cy="955.647" r="4" stroke="rgb(250,255,0)" stroke-width="2" fill="none"></circle>
<circle cx="1268.04" cy="307.901" r="4" stroke="rgb(187,255,0)" stroke-width="2" fill="none"></circle>
<circle cx="6369.34" cy="754.172" r="4" stroke="rgb(187,255,0)" stroke-width="2" fill="none"></circle>
<circle cx="1239.26" cy="380.304" r="4" stroke="rgb(255,0,97)" stroke-width="2" fill="none"></circle>
<circle cx="6050.8" cy="575.531" r="4" stroke="rgb(255,0,97)" stroke-width="2" fill="none"></circle>
<circle cx="749.528" cy="387.653" r="4" stroke="rgb(67,255,0)" stroke-width="2" fill="none"></circle>
<circle cx="5549.1" cy="1235.18" r="4" stroke="rgb(67,255,0)" stroke-width="2" fill="none"></circle>
<circle cx="1918.98" cy="398.927" r="4" stroke="rgb(0,25,255)" stroke-width="2" fill="none"></circle>
<circle cx="6783.15" cy="1999.12" r="4" stroke="rgb(0,25,255)" stroke-width="2" fill="none"></circle>
<circle cx="1844.11" cy="430.772" r="4" stroke="rgb(255,0,59)" stroke-width="2" fill="none"></circle>
<circle cx="5657.68" cy="831.937" r="4" stroke="rgb(255,0,59)" stroke-width="2" fill="none"></circle>
<circle cx="1185.17" cy="441.148" r="4" stroke="rgb(233,255,0)" stroke-width="2" fill="none"></circle>
<circle cx="5500.25" cy="1164.45" r="4" stroke="rgb(233,255,0)" stroke-width="2" fill="none"></circle>
<circle cx="1130.6" cy="449.103" r="4" stroke="rgb(0,255,25)" stroke-width="2" fill="none"></circle>
<circle cx="5270.44" cy="1650.38" r="4" stroke="rgb(0,255,25)" stroke-width="2" fill="none"></circle>
<circle cx="1250.99" cy="450.133" r="4" stroke="rgb(0,255,114)" stroke-width="2" fill="none"></circle>
<circle cx="5643.12" cy="1218.9" r="4" stroke="rgb(0,255,114)" stroke-width="2" fill="none"></circle>
<circle cx="1853.47" cy="453.573" r="4" stroke="rgb(246,255,0)" stroke-width="2" fill="none"></circle>
<circle cx="6721.32" cy="1354.03" r="4" stroke="rgb(246,255,0)" stroke-width="2" fill="none"></circle>
<circle cx="1614.41" cy="478.595" r="4" stroke="rgb(157,255,0)" stroke-width="2" fill="none"></circle>
<circle cx="6081.91" cy="1422.73" r="4" stroke="rgb(157,255,0)" stroke-width="2" fill="none"></circle>
<circle cx="1203.73" cy="492.087" r="4" stroke="rgb(0,255,216)" stroke-width="2" fill="none"></circle>
<circle cx="5756.98" cy="1802.86" r="4" stroke="rgb(0,255,216)" stroke-width="2" fill="none"></circle>
<circle cx="1283.09" cy="512.752" r="4" stroke="rgb(63,0,255)" stroke-width="2" fill="none"></circle>
<circle cx="5904.04" cy="1619.66" r="4" stroke="rgb(63,0,255)" stroke-width="2" fill="none"></circle>
<circle cx="1205.84" cy="528.252" r="4" stroke="rgb(255,199,0)" stroke-width="2" fill="none"></circle>
<circle cx="5782" cy="1872.5" r="4" stroke="rgb(255,199,0)" stroke-width="2" fill="none"></circle>
<circle cx="1635.46" cy="530.057" r="4" stroke="rgb(195,0,255)" stroke-width="2" fill="none"></circle>
<circle cx="5633.35" cy="1804.2" r="4" stroke="rgb(195,0,255)" stroke-width="2" fill="none"></circle>
<circle cx="1903.13" cy="550.278" r="4" stroke="rgb(0,157,255)" stroke-width="2" fill="none"></circle>
<circle cx="6318.46" cy="1088.02" r="4" stroke="rgb(0,157,255)" stroke-width="2" fill="none"></circle>
<circle cx="1799.38" cy="560.378" r="4" stroke="rgb(38,255,0)" stroke-width="2" fill="none"></circle>
<circle cx="6074.82" cy="904.366" r="4" stroke="rgb(38,255,0)" stroke-width="2" fill="none"></circle>
<circle cx="1290.1" cy="561.994" r="4" stroke="rgb(255,229,0)" stroke-width="2" fill="none"></circle>
<circle cx="5993.06" cy="1891.5" r="4" stroke="rgb(255,229,0)" stroke-width="2" fill="none"></circle>
<circle cx="1289.28" cy="562.717" r="4" stroke="rgb(157,0,255)" stroke-width="2" fill="none"></circle>
<circle cx="6544.16" cy="1744.99" r="4" stroke="rgb(157,0,255)" stroke-width="2" fill="none"></circle>
<circle cx="2125.72" cy="564.413" r="4" stroke="rgb(255,0,148)" stroke-width="2" fill="none"></circle>
<circle cx="5323.83" cy="1695.02" r="4" stroke="rgb(255,0,148)" stroke-width="2" fill="none"></circle>
<circle cx="1269.83" cy="569.81" r="4" stroke="rgb(0,42,255)" stroke-width="2" fill="none"></circle>
<circle cx="6704.63" cy="1779.4" r="4" stroke="rgb(0,42,255)" stroke-width="2" fill="none"></circle>
<circle cx="1464.89" cy="584.476" r="4" stroke="rgb(0,255,254)" stroke-width="2" fill="none"></circle>
<circle cx="6640.18" cy="859.075" r="4" stroke="rgb(0,255,254)" stroke-width="2" fill="none"></circle>
<circle cx="857.819" cy="589.568" r="4" stroke="rgb(255,195,0)" stroke-width="2" fill="none"></circle>
<circle cx="5266.58" cy="2003.92" r="4" stroke="rgb(255,195,0)" stroke-width="2" fill="none"></circle>
<circle cx="1227.66" cy="608.781" r="4" stroke="rgb(255,0,161)" stroke-width="2" fill="none"></circle>
<circle cx="5854.28" cy="1202.44" r="4" stroke="rgb(255,0,161)" stroke-width="2" fill="none"></circle>
<circle cx="1299.48" cy="609.096" r="4" stroke="rgb(0,55,255)" stroke-width="2" fill="none"></circle>
<circle cx="5760.1" cy="1843.77" r="4" stroke="rgb(0,55,255)" stroke-width="2" fill="none"></circle>
<circle cx="1904.04" cy="622.225" r="4" stroke="rgb(165,255,0)" stroke-width="2" fill="none"></circle>
<circle cx="6686.84" cy="1927.04" r="4" stroke="rgb(165,255,0)" stroke-width="2" fill="none"></circle>
<circle cx="1198.57" cy="623.993" r="4" stroke="rgb(59,255,0)" stroke-width="2" fill="none"></circle>
<circle cx="6657.44" cy="1068.47" r="4" stroke="rgb(59,255,0)" stroke-width="2" fill="none"></circle>
<circle cx="1196.04" cy="630.846" r="4" stroke="rgb(165,255,0)" stroke-width="2" fill="none"></circle>
<circle cx="5893.8" cy="1475.81" r="4" stroke="rgb(165,255,0)" stroke-width="2" fill="none"></circle>
<circle cx="2042.33" cy="658.838" r="4" stroke="rgb(255,144,0)" stroke-width="2" fill="none"></circle>
<circle cx="6174.73" cy="2038.04" r="4" stroke="rgb(255,144,0)" stroke-width="2" fill="none"></circle>
<circle cx="896.531" cy="659.241" r="4" stroke="rgb(0,255,63)" stroke-width="2" fill="none"></circle>
<circle cx="5771.62" cy="492.843" r="4" stroke="rgb(0,255,63)" stroke-width="2" fill="none"></circle>
<circle cx="1300.3" cy="665.718" r="4" stroke="rgb(0,255,178)" stroke-width="2" fill="none"></circle>
<circle cx="5591.28" cy="704.351" r="4" stroke="rgb(0,255,178)" stroke-width="2" fill="none"></circle>
<circle cx="1747.4" cy="669.523" r="4" stroke="rgb(255,0,136)" stroke-width="2" fill="none"></circle>
<circle cx="6604.25" cy="896.039" r="4" stroke="rgb(255,0,136)" stroke-width="2" fill="none"></circle>
<circle cx="1818.01" cy="692.059" r="4" stroke="rgb(0,123,255)" stroke-width="2" fill="none"></circle>
<circle cx="6715.12" cy="1432.38" r="4" stroke="rgb(0,123,255)" stroke-width="2" fill="none"></circle>
<circle cx="1905.25" cy="719.639" r="4" stroke="rgb(255,46,0)" stroke-width="2" fill="none"></circle>
<circle cx="6645.8" cy="815.383" r="4" stroke="rgb(255,46,0)" stroke-width="2" fill="none"></circle>
<circle cx="975.217" cy="726.425" r="4" stroke="rgb(203,255,0)" stroke-width="2" fill="none"></circle>
<circle cx="5683.62" cy="1353.3" r="4" stroke="rgb(203,255,0)" stroke-width="2" fill="none"></circle>
<circle cx="1747.35" cy="735.996" r="4" stroke="rgb(148,255,0)" stroke-width="2" fill="none"></circle>
<circle cx="5515.73" cy="1354.58" r="4" stroke="rgb(148,255,0)" stroke-width="2" fill="none"></circle>
<circle cx="1963.29" cy="745.726" r="4" stroke="rgb(255,0,12)" stroke-width="2" fill="none"></circle>
<circle cx="5878.58" cy="865.111" r="4" stroke="rgb(255,0,12)" stroke-width="2" fill="none"></circle>
<circle cx="1259.54" cy="752.341" r="4" stroke="rgb(255,38,0)" stroke-width="2" fill="none"></circle>
<circle cx="6408.97" cy="833.203" r="4" stroke="rgb(255,38,0)" stroke-width="2" fill="none"></circle>
<circle cx="1243.95" cy="762.202" r="4" stroke="rgb(157,255,0)" stroke-width="2" fill="none"></circle>
<circle cx="6749.57" cy="1667.53" r="4" stroke="rgb(157,255,0)" stroke-width="2" fill="none"></circle>
<circle cx="2001.23" cy="772.358" r="4" stroke="rgb(0,255,101)" stroke-width="2" fill="none"></circle>
<circle cx="5434.56" cy="1559.09" r="4" stroke="rgb(0,255,101)" stroke-width="2" fill="none"></circle>
<circle cx="1949.25" cy="779.342" r="4" stroke="rgb(208,255,0)" stroke-width="2" fill="none"></circle>
<circle cx="5603.1" cy="1991.89" r="4" stroke="rgb(208,255,0)" stroke-width="2" fill="none"></circle>
<circle cx="896.924" cy="779.887" r="4" stroke="rgb(0,255,199)" stroke-width="2" fill="none"></circle>
<circle cx="6155.31" cy="1033.16" r="4" stroke="rgb(0,255,199)" stroke-width="2" fill="none"></circle>
<circle cx="1156.76" cy="791.241" r="4" stroke="rgb(0,225,255)" stroke-width="2" fill="none"></circle>
<circle cx="6570.16" cy="1351.34" r="4" stroke="rgb(0,225,255)" stroke-width="2" fill="none"></circle>
<circle cx="900.654" cy="799.918" r="4" stroke="rgb(0,174,255)" stroke-width="2" fill="none"></circle>
<circle cx="6095.11" cy="1195.15" r="4" stroke="rgb(0,174,255)" stroke-width="2" fill="none"></circle>
<circle cx="2032.52" cy="805.802" r="4" stroke="rgb(144,255,0)" stroke-width="2" fill="none"></circle>
<circle cx="6281.35" cy="1105.54" r="4" stroke="rgb(144,255,0)" stroke-width="2" fill="none"></circle>
<circle cx="2174.44" cy="806.545" r="4" stroke="rgb(25,255,0)" stroke-width="2" fill="none"></circle>
<circle cx="5709.63" cy="774.317" r="4" stroke="rgb(25,255,0)" stroke-width="2" fill="none"></circle>
<circle cx="1557.04" cy="820.46" r="4" stroke="rgb(255,178,0)" stroke-width="2" fill="none"></circle>
<circle cx="5832.76" cy="1252.77" r="4" stroke="rgb(255,178,0)" stroke-width="2" fill="none"></circle>
<circle cx="901.149" cy="829.042" r="4" stroke="rgb(216,255,0)" stroke-width="2" fill="none"></circle>
<circle cx="6429.48" cy="963.78" r="4" stroke="rgb(216,255,0)" stroke-width="2" fill="none"></circle>
<circle cx="1018.06" cy="829.613" r="4" stroke="rgb(255,170,0)" stroke-width="2" fill="none"></circle>
<circle cx="5899.75" cy="1552.41" r="4" stroke="rgb(255,170,0)" stroke-width="2" fill="none"></circle>
<circle cx="912.758" cy="834.098" r="4" stroke="rgb(255,0,169)" stroke-width="2" fill="none"></circle>
<circle cx="6101.06" cy="684.22" r="4" stroke="rgb(255,0,169)" stroke-width="2" fill="none"></circle>
<circle cx="1843.7" cy="834.762" r="4" stroke="rgb(255,148,0)" stroke-width="2" fill="none"></circle>
<circle cx="6728.9" cy="913.26" r="4" stroke="rgb(255,148,0)" stroke-width="2" fill="none"></circle>
<circle cx="1897.81" cy="842.568" r="4" stroke="rgb(131,0,255)" stroke-width="2" fill="none"></circle>
<circle cx="5651.7" cy="1586.97" r="4" stroke="rgb(131,0,255)" stroke-width="2" fill="none"></circle>
<circle cx="890.239" cy="842.858" r="4" stroke="rgb(255,51,0)" stroke-width="2" fill="none"></circle>
<circle cx="6354.04" cy="746.766" r="4" stroke="rgb(255,51,0)" stroke-width="2" fill="none"></circle>
<circle cx="2046.2" cy="853.99" r="4" stroke="rgb(165,255,0)" stroke-width="2" fill="none"></circle>
<circle cx="5680.28" cy="889.425" r="4" stroke="rgb(165,255,0)" stroke-width="2" fill="none"></circle>
<circle cx="2191.79" cy="859.668" r="4" stroke="rgb(0,29,255)" stroke-width="2" fill="none"></circle>
<circle cx="6051.79" cy="1427.03" r="4" stroke="rgb(0,29,255)" stroke-width="2" fill="none"></circle>
<circle cx="1764.88" cy="870.782" r="4" stroke="rgb(0,4,255)" stroke-width="2" fill="none"></circle>
<circle cx="6404.89" cy="805.976" r="4" stroke="rgb(0,4,255)" stroke-width="2" fill="none"></circle>
<circle cx="1769.02" cy="880.842" r="4" stroke="rgb(0,255,178)" stroke-width="2" fill="none"></circle>
<circle cx="6048.06" cy="678.35" r="4" stroke="rgb(0,255,178)" stroke-width="2" fill="none"></circle>
<circle cx="1770.8" cy="887.895" r="4" stroke="rgb(0,123,255)" stroke-width="2" fill="none"></circle>
<circle cx="6093.15" cy="894.317" r="4" stroke="rgb(0,123,255)" stroke-width="2" fill="none"></circle>
<circle cx="2050.5" cy="889.493" r="4" stroke="rgb(255,0,165)" stroke-width="2" fill="none"></circle>
<circle cx="6530.05" cy="957.564" r="4" stroke="rgb(255,0,165)" stroke-width="2" fill="none"></circle>
<circle cx="1397.49" cy="895.447" r="4" stroke="rgb(221,255,0)" stroke-width="2" fill="none"></circle>
<circle cx="6320.77" cy="1155.4" r="4" stroke="rgb(221,255,0)" stroke-width="2" fill="none"></circle>
<circle cx="1872.21" cy="896.586" r="4" stroke="rgb(255,0,59)" stroke-width="2" fill="none"></circle>
<circle cx="6093.7" cy="1420.81" r="4" stroke="rgb(255,0,59)" stroke-width="2" fill="none"></circle>
<circle cx="1378.02" cy="897.923" r="4" stroke="rgb(255,0,21)" stroke-width="2" fill="none"></circle>
<circle cx="6101.7" cy="1419.46" r="4" stroke="rgb(255,0,21)" stroke-width="2" fill="none"></circle>
<circle cx="1010.26" cy="907.582" r="4" stroke="rgb(118,0,255)" stroke-width="2" fill="none"></circle>
<circle cx="6488.44" cy="1155.63" r="4" stroke="rgb(118,0,255)" stroke-width="2" fill="none"></circle>
<circle cx="1268.46" cy="911.902" r="4" stroke="rgb(0,182,255)" stroke-width="2" fill="none"></circle>
<circle cx="5877.18" cy="1272.69" r="4" stroke="rgb(0,182,255)" stroke-width="2" fill="none"></circle>
<circle cx="1063.03" cy="923.622" r="4" stroke="rgb(255,25,0)" stroke-width="2" fill="none"></circle>
<circle cx="5455.4" cy="1088.7" r="4" stroke="rgb(255,25,0)" stroke-width="2" fill="none"></circle>
<circle cx="2218.12" cy="956.294" r="4" stroke="rgb(0,114,255)" stroke-width="2" fill="none"></circle>
<circle cx="6390.8" cy="1158.78" r="4" stroke="rgb(0,114,255)" stroke-width="2" fill="none"></circle>
<circle cx="1846.05" cy="959.147" r="4" stroke="rgb(0,255,144)" stroke-width="2" fill="none"></circle>
<circle cx="6569.81" cy="941.913" r="4" stroke="rgb(0,255,144)" stroke-width="2" fill="none"></circle>
<circle cx="1386.59" cy="961.46" r="4" stroke="rgb(0,21,255)" stroke-width="2" fill="none"></circle>
<circle cx="5728.29" cy="1959.54" r="4" stroke="rgb(0,21,255)" stroke-width="2" fill="none"></circle>
<circle cx="1363.1" cy="961.535" r="4" stroke="rgb(0,76,255)" stroke-width="2" fill="none"></circle>
<circle cx="5878.37" cy="1229.3" r="4" stroke="rgb(0,76,255)" stroke-width="2" fill="none"></circle>
<circle cx="993.003" cy="979.95" r="4" stroke="rgb(0,8,255)" stroke-width="2" fill="none"></circle>
<circle cx="6159.3" cy="1199.26" r="4" stroke="rgb(0,8,255)" stroke-width="2" fill="none"></circle>
<circle cx="1873.72" cy="980.268" r="4" stroke="rgb(46,0,255)" stroke-width="2" fill="none"></circle>
<circle cx="6046.95" cy="920.397" r="4" stroke="rgb(46,0,255)" stroke-width="2" fill="none"></circle>
<circle cx="1989.42" cy="981.178" r="4" stroke="rgb(0,255,195)" stroke-width="2" fill="none"></circle>
<circle cx="6622.14" cy="1423.51" r="4" stroke="rgb(0,255,195)" stroke-width="2" fill="none"></circle>
<circle cx="1826.24" cy="981.31" r="4" stroke="rgb(157,0,255)" stroke-width="2" fill="none"></circle>
<circle cx="6390.9" cy="956.306" r="4" stroke="rgb(157,0,255)" stroke-width="2" fill="none"></circle>
<circle cx="1101.16" cy="982.283" r="4" stroke="rgb(174,255,0)" stroke-width="2" fill="none"></circle>
<circle cx="6767.87" cy="1874" r="4" stroke="rgb(174,255,0)" stroke-width="2" fill="none"></circle>
<circle cx="1986.79" cy="991.667" r="4" stroke="rgb(0,12,255)" stroke-width="2" fill="none"></circle>
<circle cx="5742.82" cy="582.846" r="4" stroke="rgb(0,12,255)" stroke-width="2" fill="none"></circle>
<circle cx="943.073" cy="1009.28" r="4" stroke="rgb(0,21,255)" stroke-width="2" fill="none"></circle>
<circle cx="5797.06" cy="491.084" r="4" stroke="rgb(0,21,255)" stroke-width="2" fill="none"></circle>
<circle cx="1381.69" cy="1012.54" r="4" stroke="rgb(233,255,0)" stroke-width="2" fill="none"></circle>
<circle cx="5934.22" cy="731.183" r="4" stroke="rgb(233,255,0)" stroke-width="2" fill="none"></circle>
<circle cx="1871.93" cy="1017.9" r="4" stroke="rgb(165,0,255)" stroke-width="2" fill="none"></circle>
<circle cx="6606.45" cy="806.084" r="4" stroke="rgb(165,0,255)" stroke-width="2" fill="none"></circle>
<circle cx="1808.72" cy="1031.39" r="4" stroke="rgb(255,0,233)" stroke-width="2" fill="none"></circle>
<circle cx="6679.98" cy="1558.41" r="4" stroke="rgb(255,0,233)" stroke-width="2" fill="none"></circle>
<circle cx="1111.88" cy="1046.65" r="4" stroke="rgb(63,255,0)" stroke-width="2" fill="none"></circle>
<circle cx="6755.86" cy="1928.56" r="4" stroke="rgb(63,255,0)" stroke-width="2" fill="none"></circle>
<circle cx="1086.9" cy="1055.76" r="4" stroke="rgb(38,255,0)" stroke-width="2" fill="none"></circle>
<circle cx="5575.01" cy="1026.32" r="4" stroke="rgb(38,255,0)" stroke-width="2" fill="none"></circle>
<circle cx="1795.84" cy="1060.14" r="4" stroke="rgb(255,0,85)" stroke-width="2" fill="none"></circle>
<circle cx="5964.86" cy="1996.19" r="4" stroke="rgb(255,0,85)" stroke-width="2" fill="none"></circle>
<circle cx="1711.09" cy="1071.9" r="4" stroke="rgb(34,0,255)" stroke-width="2" fill="none"></circle>
<circle cx="6569.15" cy="1587.13" r="4" stroke="rgb(34,0,255)" stroke-width="2" fill="none"></circle>
<circle cx="1767.25" cy="1087.84" r="4" stroke="rgb(0,255,16)" stroke-width="2" fill="none"></circle>
<circle cx="5724.46" cy="846.744" r="4" stroke="rgb(0,255,16)" stroke-width="2" fill="none"></circle>
<circle cx="911.907" cy="1112.14" r="4" stroke="rgb(225,0,255)" stroke-width="2" fill="none"></circle>
<circle cx="5677.15" cy="431.333" r="4" stroke="rgb(225,0,255)" stroke-width="2" fill="none"></circle>
<circle cx="1898.81" cy="1128.02" r="4" stroke="rgb(0,255,4)" stroke-width="2" fill="none"></circle>
<circle cx="5606.51" cy="1181.32" r="4" stroke="rgb(0,255,4)" stroke-width="2" fill="none"></circle>
<circle cx="1908.2" cy="1132.04" r="4" stroke="rgb(0,21,255)" stroke-width="2" fill="none"></circle>
<circle cx="5515.2" cy="278.021" r="4" stroke="rgb(0,21,255)" stroke-width="2" fill="none"></circle>
<circle cx="1786.38" cy="1137.7" r="4" stroke="rgb(255,0,140)" stroke-width="2" fill="none"></circle>
<circle cx="6665.84" cy="1091.08" r="4" stroke="rgb(255,0,140)" stroke-width="2" fill="none"></circle>
<circle cx="1829.88" cy="1149.69" r="4" stroke="rgb(255,0,114)" stroke-width="2" fill="none"></circle>
<circle cx="6711.11" cy="881.318" r="4" stroke="rgb(255,0,114)" stroke-width="2" fill="none"></circle>
<circle cx="1815.6" cy="1159.28" r="4" stroke="rgb(221,255,0)" stroke-width="2" fill="none"></circle>
<circle cx="5883.44" cy="766.083" r="4" stroke="rgb(221,255,0)" stroke-width="2" fill="none"></circle>
<circle cx="1838.56" cy="1160.37" r="4" stroke="rgb(114,0,255)" stroke-width="2" fill="none"></circle>
<circle cx="5638.98" cy="1785.36" r="4" stroke="rgb(114,0,255)" stroke-width="2" fill="none"></circle>
<circle cx="1055.16" cy="1163.58" r="4" stroke="rgb(0,208,255)" stroke-width="2" fill="none"></circle>
<circle cx="5736.18" cy="1923.95" r="4" stroke="rgb(0,208,255)" stroke-width="2" fill="none"></circle>
<circle cx="1726.51" cy="1166.98" r="4" stroke="rgb(242,255,0)" stroke-width="2" fill="none"></circle>
<circle cx="6006.62" cy="550.257" r="4" stroke="rgb(242,255,0)" stroke-width="2" fill="none"></circle>
<circle cx="1757.71" cy="1170.05" r="4" stroke="rgb(0,255,237)" stroke-width="2" fill="none"></circle>
<circle cx="5542.96" cy="299.109" r="4" stroke="rgb(0,255,237)" stroke-width="2" fill="none"></circle>
<circle cx="1683.78" cy="1170.52" r="4" stroke="rgb(255,123,0)" stroke-width="2" fill="none"></circle>
<circle cx="6567.06" cy="1602.29" r="4" stroke="rgb(255,123,0)" stroke-width="2" fill="none"></circle>
<circle cx="1877.71" cy="1187.68" r="4" stroke="rgb(255,0,250)" stroke-width="2" fill="none"></circle>
<circle cx="6282.21" cy="682.474" r="4" stroke="rgb(255,0,250)" stroke-width="2" fill="none"></circle>
<circle cx="1708.91" cy="1199.51" r="4" stroke="rgb(255,123,0)" stroke-width="2" fill="none"></circle>
<circle cx="6046.15" cy="1710.71" r="4" stroke="rgb(255,123,0)" stroke-width="2" fill="none"></circle>
<circle cx="1070.09" cy="1201.74" r="4" stroke="rgb(255,233,0)" stroke-width="2" fill="none"></circle>
<circle cx="5750.81" cy="490.349" r="4" stroke="rgb(255,233,0)" stroke-width="2" fill="none"></circle>
<circle cx="2190.47" cy="1204.11" r="4" stroke="rgb(255,204,0)" stroke-width="2" fill="none"></circle>
<circle cx="6049.9" cy="557.971" r="4" stroke="rgb(255,204,0)" stroke-width="2" fill="none"></circle>
<circle cx="1747.45" cy="1209.52" r="4" stroke="rgb(0,255,12)" stroke-width="2" fill="none"></circle>
<circle cx="5779.88" cy="1571.27" r="4" stroke="rgb(0,255,12)" stroke-width="2" fill="none"></circle>
<circle cx="2209.9" cy="1215.94" r="4" stroke="rgb(0,255,191)" stroke-width="2" fill="none"></circle>
<circle cx="5852.8" cy="1990.83" r="4" stroke="rgb(0,255,191)" stroke-width="2" fill="none"></circle>
<circle cx="1684.74" cy="1235.92" r="4" stroke="rgb(254,0,255)" stroke-width="2" fill="none"></circle>
<circle cx="6277.79" cy="714.317" r="4" stroke="rgb(254,0,255)" stroke-width="2" fill="none"></circle>
<circle cx="1741.08" cy="1242.41" r="4" stroke="rgb(208,0,255)" stroke-width="2" fill="none"></circle>
<circle cx="5854.72" cy="1978.03" r="4" stroke="rgb(208,0,255)" stroke-width="2" fill="none"></circle>
<circle cx="1750.25" cy="1247.07" r="4" stroke="rgb(255,0,195)" stroke-width="2" fill="none"></circle>
<circle cx="6730.06" cy="1658.35" r="4" stroke="rgb(255,0,195)" stroke-width="2" fill="none"></circle>
<circle cx="1695.78" cy="1255.88" r="4" stroke="rgb(255,80,0)" stroke-width="2" fill="none"></circle>
<circle cx="6417.55" cy="1117.16" r="4" stroke="rgb(255,80,0)" stroke-width="2" fill="none"></circle>
<circle cx="1735.34" cy="1272.64" r="4" stroke="rgb(255,161,0)" stroke-width="2" fill="none"></circle>
<circle cx="5761.25" cy="1333.57" r="4" stroke="rgb(255,161,0)" stroke-width="2" fill="none"></circle>
<circle cx="1894.4" cy="1308.44" r="4" stroke="rgb(0,212,255)" stroke-width="2" fill="none"></circle>
<circle cx="5683.51" cy="1048.41" r="4" stroke="rgb(0,212,255)" stroke-width="2" fill="none"></circle>
<circle cx="1717.98" cy="1313.01" r="4" stroke="rgb(153,255,0)" stroke-width="2" fill="none"></circle>
<circle cx="6219.07" cy="1092.84" r="4" stroke="rgb(153,255,0)" stroke-width="2" fill="none"></circle>
<circle cx="1653.13" cy="1314.2" r="4" stroke="rgb(255,0,178)" stroke-width="2" fill="none"></circle>
<circle cx="5539.87" cy="368.206" r="4" stroke="rgb(255,0,178)" stroke-width="2" fill="none"></circle>
<circle cx="862.57" cy="1315.78" r="4" stroke="rgb(255,29,0)" stroke-width="2" fill="none"></circle>
<circle cx="5097.29" cy="1909.18" r="4" stroke="rgb(255,29,0)" stroke-width="2" fill="none"></circle>
<circle cx="1756.39" cy="1321.5" r="4" stroke="rgb(250,255,0)" stroke-width="2" fill="none"></circle>
<circle cx="5758.82" cy="1510.62" r="4" stroke="rgb(250,255,0)" stroke-width="2" fill="none"></circle>
<circle cx="1634.56" cy="1343.99" r="4" stroke="rgb(255,0,250)" stroke-width="2" fill="none"></circle>
<circle cx="5852.79" cy="1774.55" r="4" stroke="rgb(255,0,250)" stroke-width="2" fill="none"></circle>
<circle cx="1788.65" cy="1364.25" r="4" stroke="rgb(0,89,255)" stroke-width="2" fill="none"></circle>
<circle cx="6284.29" cy="732.411" r="4" stroke="rgb(0,89,255)" stroke-width="2" fill="none"></circle>
<circle cx="1786.39" cy="1370.45" r="4" stroke="rgb(255,0,212)" stroke-width="2" fill="none"></circle>
<circle cx="5524.41" cy="403.727" r="4" stroke="rgb(255,0,212)" stroke-width="2" fill="none"></circle>
<circle cx="1656.85" cy="1389.87" r="4" stroke="rgb(242,0,255)" stroke-width="2" fill="none"></circle>
<circle cx="5386.54" cy="702.236" r="4" stroke="rgb(242,0,255)" stroke-width="2" fill="none"></circle>
<circle cx="1825.06" cy="1407.93" r="4" stroke="rgb(0,255,135)" stroke-width="2" fill="none"></circle>
<circle cx="5695.05" cy="932.74" r="4" stroke="rgb(0,255,135)" stroke-width="2" fill="none"></circle>
<circle cx="2279.26" cy="1422.9" r="4" stroke="rgb(255,0,242)" stroke-width="2" fill="none"></circle>
<circle cx="5755.77" cy="1464.87" r="4" stroke="rgb(255,0,242)" stroke-width="2" fill="none"></circle>
<circle cx="1739.26" cy="1432.61" r="4" stroke="rgb(0,255,225)" stroke-width="2" fill="none"></circle>
<circle cx="6483.79" cy="1031.29" r="4" stroke="rgb(0,255,225)" stroke-width="2" fill="none"></circle>
<circle cx="1743.21" cy="1485.46" r="4" stroke="rgb(4,255,0)" stroke-width="2" fill="none"></circle>
<circle cx="6516.79" cy="1858.1" r="4" stroke="rgb(4,255,0)" stroke-width="2" fill="none"></circle>
<circle cx="1625.98" cy="1500.47" r="4" stroke="rgb(153,0,255)" stroke-width="2" fill="none"></circle>
<circle cx="6752.82" cy="917.3" r="4" stroke="rgb(153,0,255)" stroke-width="2" fill="none"></circle>
<circle cx="2086.67" cy="1502.73" r="4" stroke="rgb(4,0,255)" stroke-width="2" fill="none"></circle>
<circle cx="6507.37" cy="1149.99" r="4" stroke="rgb(4,0,255)" stroke-width="2" fill="none"></circle>
<circle cx="1365.71" cy="1567.75" r="4" stroke="rgb(76,0,255)" stroke-width="2" fill="none"></circle>
<circle cx="5674.93" cy="392.702" r="4" stroke="rgb(76,0,255)" stroke-width="2" fill="none"></circle>
<circle cx="2079.44" cy="1594.04" r="4" stroke="rgb(255,0,85)" stroke-width="2" fill="none"></circle>
<circle cx="5661.6" cy="1596.37" r="4" stroke="rgb(255,0,85)" stroke-width="2" fill="none"></circle>
<circle cx="2106.12" cy="1599.07" r="4" stroke="rgb(0,255,242)" stroke-width="2" fill="none"></circle>
<circle cx="5915.58" cy="586.879" r="4" stroke="rgb(0,255,242)" stroke-width="2" fill="none"></circle>
<circle cx="2140.73" cy="1601.74" r="4" stroke="rgb(195,255,0)" stroke-width="2" fill="none"></circle>
<circle cx="6734.25" cy="966.626" r="4" stroke="rgb(195,255,0)" stroke-width="2" fill="none"></circle>
<circle cx="2130.81" cy="1606.32" r="4" stroke="rgb(4,0,255)" stroke-width="2" fill="none"></circle>
<circle cx="5715.18" cy="1030.22" r="4" stroke="rgb(4,0,255)" stroke-width="2" fill="none"></circle>
<circle cx="1749.45" cy="1612.36" r="4" stroke="rgb(255,0,42)" stroke-width="2" fill="none"></circle>
<circle cx="6190.97" cy="998.428" r="4" stroke="rgb(255,0,42)" stroke-width="2" fill="none"></circle>
<circle cx="2077.68" cy="1615.28" r="4" stroke="rgb(255,0,106)" stroke-width="2" fill="none"></circle>
<circle cx="6193.88" cy="960.863" r="4" stroke="rgb(255,0,106)" stroke-width="2" fill="none"></circle>
<circle cx="1779" cy="1645.43" r="4" stroke="rgb(238,0,255)" stroke-width="2" fill="none"></circle>
<circle cx="6724.6" cy="1660.58" r="4" stroke="rgb(238,0,255)" stroke-width="2" fill="none"></circle>
<circle cx="1893.73" cy="1647.28" r="4" stroke="rgb(255,165,0)" stroke-width="2" fill="none"></circle>
<circle cx="6707.42" cy="1528.15" r="4" stroke="rgb(255,165,0)" stroke-width="2" fill="none"></circle>
<circle cx="1768.29" cy="1665.32" r="4" stroke="rgb(89,255,0)" stroke-width="2" fill="none"></circle>
<circle cx="5744.02" cy="548.304" r="4" stroke="rgb(89,255,0)" stroke-width="2" fill="none"></circle>
<circle cx="1287.44" cy="1678.5" r="4" stroke="rgb(76,255,0)" stroke-width="2" fill="none"></circle>
<circle cx="6020.67" cy="1568.2" r="4" stroke="rgb(76,255,0)" stroke-width="2" fill="none"></circle>
<circle cx="1267.47" cy="1750.93" r="4" stroke="rgb(255,0,89)" stroke-width="2" fill="none"></circle>
<circle cx="5492.5" cy="354.583" r="4" stroke="rgb(255,0,89)" stroke-width="2" fill="none"></circle>
<circle cx="1599.19" cy="1806.1" r="4" stroke="rgb(85,0,255)" stroke-width="2" fill="none"></circle>
<circle cx="5941.99" cy="936.012" r="4" stroke="rgb(85,0,255)" stroke-width="2" fill="none"></circle>
<circle cx="1071.39" cy="1834.7" r="4" stroke="rgb(203,0,255)" stroke-width="2" fill="none"></circle>
<circle cx="5630.71" cy="832.041" r="4" stroke="rgb(203,0,255)" stroke-width="2" fill="none"></circle>
</svg>