<?xml version="1.0" standalone="yes"?>
<!-- SVG graphic -->
<svg xmlns='http://www.w3.org/2000/svg' xmlns:xlink='http://www.w3.org/1999/xlink'
width="8064px" height="3024px" preserveAspectRatio="xMinYMin meet" viewBox="0 0 8064 3024" version="1.1">
<image x="0" y="0" width="4032px" height="3024px" opacity="1" xlink:href="/home/jeong/Code/2D-to-3D-Modeling-using-AI/Make3D/Image/20200227_180612.jpg"/>
<image x="4032" y="0" width="4032px" height="3024px" opacity="1" xlink:href="/home/jeong/Code/2D-to-3D-Modeling-using-AI/Make3D/Image/20200227_180706.jpg"/>
<polyline points="1634.79,1333.33,5337.62,207.801" stroke="rgb(0,255,174)" stroke-width="2" fill="none"></polyline>
<polyline points="1671.56,193.36,5398.6,325.399" stroke="rgb(255,0,242)" stroke-width="2" fill="none"></polyline>
<polyline points="731.042,227.794,5927.05,1780.83" stroke="rgb(178,0,255)" stroke-width="2" fill="none"></polyline>
<polyline points="1068.39,76.4996,5450.65,1227.73" stroke="rgb(212,255,0)" stroke-width="2" fill="none"></polyline>
<polyline points="1243.95,762.202,6217.56,1787.47" stroke="rgb(255,178,0)" stroke-width="2" fill="none"></polyline>
<polyline points="1963.29,745.726,5091.45,1804.87" stroke="rgb(255,0,237)" stroke-width="2" fill="none"></polyline>
<polyline points="1083.13,1644.22,5158.35,1790.08" stroke="rgb(67,255,0)" stroke-width="2" fill="none"></polyline>
<polyline points="1203.73,492.087,5594.37,1814.57" stroke="rgb(255,0,29)" stroke-width="2" fill="none"></polyline>
<polyline points="902.855,784.881,6154.44,734.172" stroke="rgb(174,0,255)" stroke-width="2" fill="none"></polyline>
<polyline points="1243.95,762.202,5771.12,1260.18" stroke="rgb(255,0,80)" stroke-width="2" fill="none"></polyline>
<polyline points="1561.54,1140.14,6327.47,1830.45" stroke="rgb(255,0,246)" stroke-width="2" fill="none"></polyline>
<polyline points="1684.74,1235.92,5709.42,541.475" stroke="rgb(0,255,12)" stroke-width="2" fill="none"></polyline>
<polyline points="1719.82,1384.47,5323.86,658.065" stroke="rgb(255,0,38)" stroke-width="2" fill="none"></polyline>
<polyline points="1170.58,141.887,5776.11,1918.97" stroke="rgb(127,0,255)" stroke-width="2" fill="none"></polyline>
<polyline points="1249.91,1692.12,5874.12,1919.59" stroke="rgb(59,0,255)" stroke-width="2" fill="none"></polyline>
<polyline points="1369.24,850.822,5831.97,610.767" stroke="rgb(221,0,255)" stroke-width="2" fill="none"></polyline>
<polyline points="1055.16,1163.58,5576.7,1928.82" stroke="rgb(225,255,0)" stroke-width="2" fill="none"></polyline>
<polyline points="1055.16,1163.58,5576.7,1928.82" stroke="rgb(0,182,255)" stroke-width="2" fill="none"></polyline>
<polyline points="1026.05,614.863,5060.65,1934.99" stroke="rgb(0,67,255)" stroke-width="2" fill="none"></polyline>
<polyline points="2030.5,843.416,5703.75,1999.79" stroke="rgb(0,195,255)" stroke-width="2" fill="none"></polyline>
<polyline points="2050.77,860.612,5380.62,729.797" stroke="rgb(0,255,80)" stroke-width="2" fill="none"></polyline>
<polyline points="2042.33,658.838,5935.67,2022.75" stroke="rgb(0,229,255)" stroke-width="2" fill="none"></polyline>
<polyline points="2050.77,860.612,5440.09,749.031" stroke="rgb(195,255,0)" stroke-width="2" fill="none"></polyline>
<polyline points="1721.11,228.913,5337.46,250.355" stroke="rgb(255,0,33)" stroke-width="2" fill="none"></polyline>
<polyline points="1217.76,723.806,5245.69,1520.23" stroke="rgb(0,255,12)" stroke-width="2" fill="none"></polyline>
<polyline points="1070.09,1201.74,6421.88,713.089" stroke="rgb(255,0,221)" stroke-width="2" fill="none"></polyline>
<polyline points="2050.77,860.612,5389.84,730.726" stroke="rgb(0,123,255)" stroke-width="2" fill="none"></polyline>
<polyline points="1334.08,1580.91,6295.7,545.015" stroke="rgb(0,72,255)" stroke-width="2" fill="none"></polyline>
<polyline points="940.27,806.219,6611.27,1609.14" stroke="rgb(0,255,55)" stroke-width="2" fill="none"></polyline>
<polyline points="1283.09,512.752,5743.01,1640.26" stroke="rgb(51,255,0)" stroke-width="2" fill="none"></polyline>
<polyline points="940.27,806.219,6612.84,1657.11" stroke="rgb(97,255,0)" stroke-width="2" fill="none"></polyline>
<polyline points="1647.62,1405.88,6025.34,976.926" stroke="rgb(233,0,255)" stroke-width="2" fill="none"></polyline>
<polyline points="1086.9,1055.76,5399.02,969.06" stroke="rgb(255,216,0)" stroke-width="2" fill="none"></polyline>
<polyline points="2422.34,1105.85,5935.26,1678.57" stroke="rgb(255,80,0)" stroke-width="2" fill="none"></polyline>
<polyline points="1063.03,923.622,5269.03,1052.86" stroke="rgb(255,21,0)" stroke-width="2" fill="none"></polyline>
<polyline points="1141.44,308.216,5328.66,1072.6" stroke="rgb(114,255,0)" stroke-width="2" fill="none"></polyline>
<polyline points="2279.26,1422.9,5590,1375.36" stroke="rgb(0,187,255)" stroke-width="2" fill="none"></polyline>
<polyline points="2279.26,1422.9,5590,1375.36" stroke="rgb(255,0,80)" stroke-width="2" fill="none"></polyline>
<polyline points="1290.1,561.994,5896.68,1641.46" stroke="rgb(144,255,0)" stroke-width="2" fill="none"></polyline>
<polyline points="1787.76,1658.54,6335.01,1932.46" stroke="rgb(12,255,0)" stroke-width="2" fill="none"></polyline>
<polyline points="696.665,1864.6,5243.99,369.966" stroke="rgb(255,0,157)" stroke-width="2" fill="none"></polyline>
<polyline points="943.073,1009.28,5621.63,420.383" stroke="rgb(85,0,255)" stroke-width="2" fill="none"></polyline>
<polyline points="1843.7,834.762,6450.59,1325.09" stroke="rgb(0,0,255)" stroke-width="2" fill="none"></polyline>
<polyline points="902.855,784.881,5977.66,999.977" stroke="rgb(0,229,255)" stroke-width="2" fill="none"></polyline>
<polyline points="1388.48,999.095,6493.76,1037.19" stroke="rgb(0,255,216)" stroke-width="2" fill="none"></polyline>
<polyline points="1599.19,1806.1,6617.47,1386.04" stroke="rgb(0,255,63)" stroke-width="2" fill="none"></polyline>
<polyline points="1180.5,239.948,5468.89,1204.72" stroke="rgb(4,255,0)" stroke-width="2" fill="none"></polyline>
<polyline points="1071.39,1834.7,5248.57,319.052" stroke="rgb(42,255,0)" stroke-width="2" fill="none"></polyline>
<circle cx="1634.79" cy="1333.33" r="4" stroke="rgb(0,255,174)" stroke-width="2" fill="none"></circle>
<circle cx="5337.62" cy="207.801" r="4" stroke="rgb(0,255,174)" stroke-width="2" fill="none"></circle>
<circle cx="1671.56" cy="193.36" r="4" stroke="rgb(255,0,242)" stroke-width="2" fill="none"></circle>
<circle cx="5398.6" cy="325.399" r="4" stroke="rgb(255,0,242)" stroke-width="2" fill="none"></circle>
<circle cx="731.042" cy="227.794" r="4" stroke="rgb(178,0,255)" stroke-width="2" fill="none"></circle>
<circle cx="5927.05" cy="1780.83" r="4" stroke="rgb(178,0,255)" stroke-width="2" fill="none"></circle>
<circle cx="1068.39" cy="76.4996" r="4" stroke="rgb(212,255,0)" stroke-width="2" fill="none"></circle>
<circle cx="5450.65" cy="1227.73" r="4" stroke="rgb(212,255,0)" stroke-width="2" fill="none"></circle>
<circle cx="1243.95" cy="762.202" r="4" stroke="rgb(255,178,0)" stroke-width="2" fill="none"></circle>
<circle cx="6217.56" cy="1787.47" r="4" stroke="rgb(255,178,0)" stroke-width="2" fill="none"></circle>
<circle cx="1963.29" cy="745.726" r="4" stroke="rgb(255,0,237)" stroke-width="2" fill="none"></circle>
<circle cx="5091.45" cy="1804.87" r="4" stroke="rgb(255,0,237)" stroke-width="2" fill="none"></circle>
<circle cx="1083.13" cy="1644.22" r="4" stroke="rgb(67,255,0)" stroke-width="2" fill="none"></circle>
<circle cx="5158.35" cy="1790.08" r="4" stroke="rgb(67,255,0)" stroke-width="2" fill="none"></circle>
<circle cx="1203.73" cy="492.087" r="4" stroke="rgb(255,0,29)" stroke-width="2" fill="none"></circle>
<circle cx="5594.37" cy="1814.57" r="4" stroke="rgb(255,0,29)" stroke-width="2" fill="none"></circle>
<circle cx="902.855" cy="784.881" r="4" stroke="rgb(174,0,255)" stroke-width="2" fill="none"></circle>
<circle cx="6154.44" cy="734.172" r="4" stroke="rgb(174,0,255)" stroke-width="2" fill="none"></circle>
<circle cx="1243.95" cy="762.202" r="4" stroke="rgb(255,0,80)" stroke-width="2" fill="none"></circle>
<circle cx="5771.12" cy="1260.18" r="4" stroke="rgb(255,0,80)" stroke-width="2" fill="none"></circle>
<circle cx="1561.54" cy="1140.14" r="4" stroke="rgb(255,0,246)" stroke-width="2" fill="none"></circle>
<circle cx="6327.47" cy="1830.45" r="4" stroke="rgb(255,0,246)" stroke-width="2" fill="none"></circle>
<circle cx="1684.74" cy="1235.92" r="4" stroke="rgb(0,255,12)" stroke-width="2" fill="none"></circle>
<circle cx="5709.42" cy="541.475" r="4" stroke="rgb(0,255,12)" stroke-width="2" fill="none"></circle>
<circle cx="1719.82" cy="1384.47" r="4" stroke="rgb(255,0,38)" stroke-width="2" fill="none"></circle>
<circle cx="5323.86" cy="658.065" r="4" stroke="rgb(255,0,38)" stroke-width="2" fill="none"></circle>
<circle cx="1170.58" cy="141.887" r="4" stroke="rgb(127,0,255)" stroke-width="2" fill="none"></circle>
<circle cx="5776.11" cy="1918.97" r="4" stroke="rgb(127,0,255)" stroke-width="2" fill="none"></circle>
<circle cx="1249.91" cy="1692.12" r="4" stroke="rgb(59,0,255)" stroke-width="2" fill="none"></circle>
<circle cx="5874.12" cy="1919.59" r="4" stroke="rgb(59,0,255)" stroke-width="2" fill="none"></circle>
<circle cx="1369.24" cy="850.822" r="4" stroke="rgb(221,0,255)" stroke-width="2" fill="none"></circle>
<circle cx="5831.97" cy="610.767" r="4" stroke="rgb(221,0,255)" stroke-width="2" fill="none"></circle>
<circle cx="1055.16" cy="1163.58" r="4" stroke="rgb(225,255,0)" stroke-width="2" fill="none"></circle>
<circle cx="5576.7" cy="1928.82" r="4" stroke="rgb(225,255,0)" stroke-width="2" fill="none"></circle>
<circle cx="1055.16" cy="1163.58" r="4" stroke="rgb(0,182,255)" stroke-width="2" fill="none"></circle>
<circle cx="5576.7" cy="1928.82" r="4" stroke="rgb(0,182,255)" stroke-width="2" fill="none"></circle>
<circle cx="1026.05" cy="614.863" r="4" stroke="rgb(0,67,255)" stroke-width="2" fill="none"></circle>
<circle cx="5060.65" cy="1934.99" r="4" stroke="rgb(0,67,255)" stroke-width="2" fill="none"></circle>
<circle cx="2030.5" cy="843.416" r="4" stroke="rgb(0,195,255)" stroke-width="2" fill="none"></circle>
<circle cx="5703.75" cy="1999.79" r="4" stroke="rgb(0,195,255)" stroke-width="2" fill="none"></circle>
<circle cx="2050.77" cy="860.612" r="4" stroke="rgb(0,255,80)" stroke-width="2" fill="none"></circle>
<circle cx="5380.62" cy="729.797" r="4" stroke="rgb(0,255,80)" stroke-width="2" fill="none"></circle>
<circle cx="2042.33" cy="658.838" r="4" stroke="rgb(0,229,255)" stroke-width="2" fill="none"></circle>
<circle cx="5935.67" cy="2022.75" r="4" stroke="rgb(0,229,255)" stroke-width="2" fill="none"></circle>
<circle cx="2050.77" cy="860.612" r="4" stroke="rgb(195,255,0)" stroke-width="2" fill="none"></circle>
<circle cx="5440.09" cy="749.031" r="4" stroke="rgb(195,255,0)" stroke-width="2" fill="none"></circle>
<circle cx="1721.11" cy="228.913" r="4" stroke="rgb(255,0,33)" stroke-width="2" fill="none"></circle>
<circle cx="5337.46" cy="250.355" r="4" stroke="rgb(255,0,33)" stroke-width="2" fill="none"></circle>
<circle cx="1217.76" cy="723.806" r="4" stroke="rgb(0,255,12)" stroke-width="2" fill="none"></circle>
<circle cx="5245.69" cy="1520.23" r="4" stroke="rgb(0,255,12)" stroke-width="2" fill="none"></circle>
<circle cx="1070.09" cy="1201.74" r="4" stroke="rgb(255,0,221)" stroke-width="2" fill="none"></circle>
<circle cx="6421.88" cy="713.089" r="4" stroke="rgb(255,0,221)" stroke-width="2" fill="none"></circle>
<circle cx="2050.77" cy="860.612" r="4" stroke="rgb(0,123,255)" stroke-width="2" fill="none"></circle>
<circle cx="5389.84" cy="730.726" r="4" stroke="rgb(0,123,255)" stroke-width="2" fill="none"></circle>
<circle cx="1334.08" cy="1580.91" r="4" stroke="rgb(0,72,255)" stroke-width="2" fill="none"></circle>
<circle cx="6295.7" cy="545.015" r="4" stroke="rgb(0,72,255)" stroke-width="2" fill="none"></circle>
<circle cx="940.27" cy="806.219" r="4" stroke="rgb(0,255,55)" stroke-width="2" fill="none"></circle>
<circle cx="6611.27" cy="1609.14" r="4" stroke="rgb(0,255,55)" stroke-width="2" fill="none"></circle>
<circle cx="1283.09" cy="512.752" r="4" stroke="rgb(51,255,0)" stroke-width="2" fill="none"></circle>
<circle cx="5743.01" cy="1640.26" r="4" stroke="rgb(51,255,0)" stroke-width="2" fill="none"></circle>
<circle cx="940.27" cy="806.219" r="4" stroke="rgb(97,255,0)" stroke-width="2" fill="none"></circle>
<circle cx="6612.84" cy="1657.11" r="4" stroke="rgb(97,255,0)" stroke-width="2" fill="none"></circle>
<circle cx="1647.62" cy="1405.88" r="4" stroke="rgb(233,0,255)" stroke-width="2" fill="none"></circle>
<circle cx="6025.34" cy="976.926" r="4" stroke="rgb(233,0,255)" stroke-width="2" fill="none"></circle>
<circle cx="1086.9" cy="1055.76" r="4" stroke="rgb(255,216,0)" stroke-width="2" fill="none"></circle>
<circle cx="5399.02" cy="969.06" r="4" stroke="rgb(255,216,0)" stroke-width="2" fill="none"></circle>
<circle cx="2422.34" cy="1105.85" r="4" stroke="rgb(255,80,0)" stroke-width="2" fill="none"></circle>
<circle cx="5935.26" cy="1678.57" r="4" stroke="rgb(255,80,0)" stroke-width="2" fill="none"></circle>
<circle cx="1063.03" cy="923.622" r="4" stroke="rgb(255,21,0)" stroke-width="2" fill="none"></circle>
<circle cx="5269.03" cy="1052.86" r="4" stroke="rgb(255,21,0)" stroke-width="2" fill="none"></circle>
<circle cx="1141.44" cy="308.216" r="4" stroke="rgb(114,255,0)" stroke-width="2" fill="none"></circle>
<circle cx="5328.66" cy="1072.6" r="4" stroke="rgb(114,255,0)" stroke-width="2" fill="none"></circle>
<circle cx="2279.26" cy="1422.9" r="4" stroke="rgb(0,187,255)" stroke-width="2" fill="none"></circle>
<circle cx="5590" cy="1375.36" r="4" stroke="rgb(0,187,255)" stroke-width="2" fill="none"></circle>
<circle cx="2279.26" cy="1422.9" r="4" stroke="rgb(255,0,80)" stroke-width="2" fill="none"></circle>
<circle cx="5590" cy="1375.36" r="4" stroke="rgb(255,0,80)" stroke-width="2" fill="none"></circle>
<circle cx="1290.1" cy="561.994" r="4" stroke="rgb(144,255,0)" stroke-width="2" fill="none"></circle>
<circle cx="5896.68" cy="1641.46" r="4" stroke="rgb(144,255,0)" stroke-width="2" fill="none"></circle>
<circle cx="1787.76" cy="1658.54" r="4" stroke="rgb(12,255,0)" stroke-width="2" fill="none"></circle>
<circle cx="6335.01" cy="1932.46" r="4" stroke="rgb(12,255,0)" stroke-width="2" fill="none"></circle>
<circle cx="696.665" cy="1864.6" r="4" stroke="rgb(255,0,157)" stroke-width="2" fill="none"></circle>
<circle cx="5243.99" cy="369.966" r="4" stroke="rgb(255,0,157)" stroke-width="2" fill="none"></circle>
<circle cx="943.073" cy="1009.28" r="4" stroke="rgb(85,0,255)" stroke-width="2" fill="none"></circle>
<circle cx="5621.63" cy="420.383" r="4" stroke="rgb(85,0,255)" stroke-width="2" fill="none"></circle>
<circle cx="1843.7" cy="834.762" r="4" stroke="rgb(0,0,255)" stroke-width="2" fill="none"></circle>
<circle cx="6450.59" cy="1325.09" r="4" stroke="rgb(0,0,255)" stroke-width="2" fill="none"></circle>
<circle cx="902.855" cy="784.881" r="4" stroke="rgb(0,229,255)" stroke-width="2" fill="none"></circle>
<circle cx="5977.66" cy="999.977" r="4" stroke="rgb(0,229,255)" stroke-width="2" fill="none"></circle>
<circle cx="1388.48" cy="999.095" r="4" stroke="rgb(0,255,216)" stroke-width="2" fill="none"></circle>
<circle cx="6493.76" cy="1037.19" r="4" stroke="rgb(0,255,216)" stroke-width="2" fill="none"></circle>
<circle cx="1599.19" cy="1806.1" r="4" stroke="rgb(0,255,63)" stroke-width="2" fill="none"></circle>
<circle cx="6617.47" cy="1386.04" r="4" stroke="rgb(0,255,63)" stroke-width="2" fill="none"></circle>
<circle cx="1180.5" cy="239.948" r="4" stroke="rgb(4,255,0)" stroke-width="2" fill="none"></circle>
<circle cx="5468.89" cy="1204.72" r="4" stroke="rgb(4,255,0)" stroke-width="2" fill="none"></circle>
<circle cx="1071.39" cy="1834.7" r="4" stroke="rgb(42,255,0)" stroke-width="2" fill="none"></circle>
<circle cx="5248.57" cy="319.052" r="4" stroke="rgb(42,255,0)" stroke-width="2" fill="none"></circle>
</svg>