<?xml version="1.0" standalone="yes"?>
<!-- SVG graphic -->
<svg xmlns='http://www.w3.org/2000/svg' xmlns:xlink='http://www.w3.org/1999/xlink'
width="8064px" height="3024px" preserveAspectRatio="xMinYMin meet" viewBox="0 0 8064 3024" version="1.1">
<image x="0" y="0" width="4032px" height="3024px" opacity="1" xlink:href="/home/jeong/Code/2D-to-3D-Modeling-using-AI/Make3D/Image/20200227_180612.jpg"/>
<image x="4032" y="0" width="4032px" height="3024px" opacity="1" xlink:href="/home/jeong/Code/2D-to-3D-Modeling-using-AI/Make3D/Image/20200227_180732.jpg"/>
<polyline points="1773.41,1247.86,6710.28,2660.03" stroke="rgb(63,255,0)" stroke-width="2" fill="none"></polyline>
<polyline points="1072.09,1792.33,6004.93,2092.05" stroke="rgb(255,89,0)" stroke-width="2" fill="none"></polyline>
<polyline points="957.867,283.745,6092.85,1567.69" stroke="rgb(0,55,255)" stroke-width="2" fill="none"></polyline>
<polyline points="1561.54,1140.14,6565.93,2782.1" stroke="rgb(0,255,199)" stroke-width="2" fill="none"></polyline>
<polyline points="572.998,106.947,6755.95,1595.09" stroke="rgb(127,255,0)" stroke-width="2" fill="none"></polyline>
<polyline points="2424.24,1117.63,6562.89,1202.91" stroke="rgb(161,255,0)" stroke-width="2" fill="none"></polyline>
<polyline points="2156.38,1538.99,6893.33,1330.72" stroke="rgb(0,0,255)" stroke-width="2" fill="none"></polyline>
<polyline points="952.281,327.008,6081.95,1237.27" stroke="rgb(178,0,255)" stroke-width="2" fill="none"></polyline>
<polyline points="1134.94,73.7817,6339.86,2189.78" stroke="rgb(85,0,255)" stroke-width="2" fill="none"></polyline>
<polyline points="1690.91,211.802,6845.53,1294.92" stroke="rgb(0,255,67)" stroke-width="2" fill="none"></polyline>
<polyline points="1463.98,1607.89,6018.35,1779.31" stroke="rgb(255,0,148)" stroke-width="2" fill="none"></polyline>
<polyline points="1634.56,1343.99,6360.04,2288.24" stroke="rgb(114,0,255)" stroke-width="2" fill="none"></polyline>
<polyline points="994.592,538.636,6459.35,1867.42" stroke="rgb(255,131,0)" stroke-width="2" fill="none"></polyline>
<polyline points="2074.29,1415.08,6704.37,1450.79" stroke="rgb(131,255,0)" stroke-width="2" fill="none"></polyline>
<polyline points="1818.87,1136.77,5834.17,2440.16" stroke="rgb(255,0,114)" stroke-width="2" fill="none"></polyline>
<polyline points="1111.88,1046.65,6632.36,1625.48" stroke="rgb(80,255,0)" stroke-width="2" fill="none"></polyline>
<polyline points="994.592,538.636,6173.56,1626.36" stroke="rgb(216,0,255)" stroke-width="2" fill="none"></polyline>
<polyline points="1288.92,1360.82,6509.94,1563.4" stroke="rgb(0,4,255)" stroke-width="2" fill="none"></polyline>
<polyline points="1100.55,325.164,6343.91,2069.28" stroke="rgb(255,148,0)" stroke-width="2" fill="none"></polyline>
<polyline points="1104.13,1981.36,6334.01,1693.72" stroke="rgb(42,255,0)" stroke-width="2" fill="none"></polyline>
<polyline points="1817.13,984.396,5969.23,2249.66" stroke="rgb(0,255,55)" stroke-width="2" fill="none"></polyline>
<polyline points="1562.02,1332.29,6547.75,1776.16" stroke="rgb(0,255,174)" stroke-width="2" fill="none"></polyline>
<polyline points="1687.71,190.788,5944.96,2322.09" stroke="rgb(0,97,255)" stroke-width="2" fill="none"></polyline>
<polyline points="1156.76,791.241,6139.11,2637.11" stroke="rgb(182,0,255)" stroke-width="2" fill="none"></polyline>
<polyline points="1871.93,1017.9,6825,2432.71" stroke="rgb(131,0,255)" stroke-width="2" fill="none"></polyline>
<polyline points="1368.83,1009.36,6342.69,2150.49" stroke="rgb(135,0,255)" stroke-width="2" fill="none"></polyline>
<polyline points="1366.86,1379.32,6492.97,2518.84" stroke="rgb(0,255,254)" stroke-width="2" fill="none"></polyline>
<polyline points="1101.75,976.984,6126.67,2557.62" stroke="rgb(80,255,0)" stroke-width="2" fill="none"></polyline>
<polyline points="1838.56,1160.37,6775.22,2577.26" stroke="rgb(199,255,0)" stroke-width="2" fill="none"></polyline>
<polyline points="1757.71,1170.05,6707.86,2582.79" stroke="rgb(114,0,255)" stroke-width="2" fill="none"></polyline>
<polyline points="1757.71,1170.05,6710.28,2589.28" stroke="rgb(255,0,114)" stroke-width="2" fill="none"></polyline>
<polyline points="1773.41,1247.86,6712.1,2666.03" stroke="rgb(255,212,0)" stroke-width="2" fill="none"></polyline>
<polyline points="1692.28,1274.25,6641.59,2689.98" stroke="rgb(0,255,174)" stroke-width="2" fill="none"></polyline>
<polyline points="1859.09,1741.31,5849.27,2712.78" stroke="rgb(0,169,255)" stroke-width="2" fill="none"></polyline>
<polyline points="1827.56,1034.12,6784.51,2442.46" stroke="rgb(0,97,255)" stroke-width="2" fill="none"></polyline>
<polyline points="1827.56,1034.12,6784.46,2442.33" stroke="rgb(46,0,255)" stroke-width="2" fill="none"></polyline>
<polyline points="1758.8,1090.87,6719.86,2499.75" stroke="rgb(0,255,148)" stroke-width="2" fill="none"></polyline>
<polyline points="1489.63,203.452,6689.52,1642.08" stroke="rgb(255,0,131)" stroke-width="2" fill="none"></polyline>
<polyline points="1727,1014.72,6703.65,2413.44" stroke="rgb(255,191,0)" stroke-width="2" fill="none"></polyline>
<polyline points="1681.23,1299.45,6628.88,2715.75" stroke="rgb(199,0,255)" stroke-width="2" fill="none"></polyline>
<polyline points="1928.58,1035.25,6868.53,2453.41" stroke="rgb(255,0,93)" stroke-width="2" fill="none"></polyline>
<polyline points="1152.2,348.206,6446.96,1370.39" stroke="rgb(8,0,255)" stroke-width="2" fill="none"></polyline>
<polyline points="1055.16,1163.58,6464.94,1792.83" stroke="rgb(229,255,0)" stroke-width="2" fill="none"></polyline>
<polyline points="1073.86,990.067,6196.63,2480.41" stroke="rgb(255,38,0)" stroke-width="2" fill="none"></polyline>
<polyline points="1891.75,1107.16,6827.09,2518.14" stroke="rgb(255,0,123)" stroke-width="2" fill="none"></polyline>
<polyline points="1651.23,1108.03,6632.6,2587.28" stroke="rgb(255,165,0)" stroke-width="2" fill="none"></polyline>
<polyline points="1119.51,819.982,6598.58,2051.25" stroke="rgb(255,0,76)" stroke-width="2" fill="none"></polyline>
<polyline points="1489.74,202.12,6692,1640.16" stroke="rgb(93,0,255)" stroke-width="2" fill="none"></polyline>
<polyline points="1921.78,665.284,6927.41,2074.03" stroke="rgb(165,0,255)" stroke-width="2" fill="none"></polyline>
<polyline points="1622.66,460.599,6755.55,1922.25" stroke="rgb(42,0,255)" stroke-width="2" fill="none"></polyline>
<polyline points="1363.1,961.535,6430.52,2097.41" stroke="rgb(21,0,255)" stroke-width="2" fill="none"></polyline>
<polyline points="1852.42,662.99,6884.14,2097.94" stroke="rgb(186,0,255)" stroke-width="2" fill="none"></polyline>
<polyline points="1245.94,518.096,6419.34,1944.73" stroke="rgb(255,216,0)" stroke-width="2" fill="none"></polyline>
<polyline points="1287.41,585.732,6447.15,2026.07" stroke="rgb(76,255,0)" stroke-width="2" fill="none"></polyline>
<polyline points="768.353,222.795,5983.11,2139.52" stroke="rgb(0,140,255)" stroke-width="2" fill="none"></polyline>
<polyline points="1936.81,707.164,6933.88,2122.7" stroke="rgb(0,195,255)" stroke-width="2" fill="none"></polyline>
<polyline points="1905.25,719.639,6911.4,2146.3" stroke="rgb(25,0,255)" stroke-width="2" fill="none"></polyline>
<polyline points="1368.83,1009.36,6342.29,2149.9" stroke="rgb(80,0,255)" stroke-width="2" fill="none"></polyline>
<polyline points="1305.1,656.871,6445.85,2092.14" stroke="rgb(233,0,255)" stroke-width="2" fill="none"></polyline>
<polyline points="1152.2,348.206,6472.54,2156.36" stroke="rgb(255,0,174)" stroke-width="2" fill="none"></polyline>
<polyline points="2266.63,930.153,6056.16,1439.07" stroke="rgb(0,255,199)" stroke-width="2" fill="none"></polyline>
<polyline points="1738.33,754.431,6792.87,2223.09" stroke="rgb(118,0,255)" stroke-width="2" fill="none"></polyline>
<polyline points="1923.43,717.974,6922.82,2137.46" stroke="rgb(4,0,255)" stroke-width="2" fill="none"></polyline>
<polyline points="1396.47,920.516,6475.92,2358.77" stroke="rgb(255,0,136)" stroke-width="2" fill="none"></polyline>
<polyline points="628.852,183.062,5833.76,2495.09" stroke="rgb(255,0,80)" stroke-width="2" fill="none"></polyline>
<polyline points="1923.5,1092.26,6853.67,2509.63" stroke="rgb(93,255,0)" stroke-width="2" fill="none"></polyline>
<polyline points="2250.28,1147.71,5918.77,2560.98" stroke="rgb(0,89,255)" stroke-width="2" fill="none"></polyline>
<polyline points="1740.03,1043.91,6709.94,2447.19" stroke="rgb(255,34,0)" stroke-width="2" fill="none"></polyline>
<polyline points="1872.01,1182.01,6795.22,2593.97" stroke="rgb(250,0,255)" stroke-width="2" fill="none"></polyline>
<polyline points="1801.64,1174.98,6746.6,2596.24" stroke="rgb(0,255,67)" stroke-width="2" fill="none"></polyline>
<polyline points="1684.74,1235.92,6640.37,2651.26" stroke="rgb(233,0,255)" stroke-width="2" fill="none"></polyline>
<polyline points="1756.6,1087.18,6718.14,2496.11" stroke="rgb(157,0,255)" stroke-width="2" fill="none"></polyline>
<polyline points="1868.99,1143.54,6800.44,2559.87" stroke="rgb(255,76,0)" stroke-width="2" fill="none"></polyline>
<polyline points="1489.47,175.096,6695.23,1610.93" stroke="rgb(255,8,0)" stroke-width="2" fill="none"></polyline>
<polyline points="1088.2,96.4383,6616.5,2796.02" stroke="rgb(195,0,255)" stroke-width="2" fill="none"></polyline>
<polyline points="1511.81,151.031,6721.26,1591.93" stroke="rgb(255,0,42)" stroke-width="2" fill="none"></polyline>
<polyline points="1489.63,203.452,6688.35,1642.82" stroke="rgb(140,0,255)" stroke-width="2" fill="none"></polyline>
<polyline points="1543.07,163.132,6744.57,1606.52" stroke="rgb(0,255,89)" stroke-width="2" fill="none"></polyline>
<polyline points="1197.77,262.601,6419.55,1669.34" stroke="rgb(0,255,16)" stroke-width="2" fill="none"></polyline>
<polyline points="1414.42,1542.62,6395.17,2966.31" stroke="rgb(0,203,255)" stroke-width="2" fill="none"></polyline>
<polyline points="1088.65,292.23,6318.32,1691.91" stroke="rgb(97,0,255)" stroke-width="2" fill="none"></polyline>
<polyline points="1553.82,287.53,6731.03,1742.89" stroke="rgb(255,38,0)" stroke-width="2" fill="none"></polyline>
<polyline points="1155.7,272.231,6382.37,1691.04" stroke="rgb(255,0,46)" stroke-width="2" fill="none"></polyline>
<polyline points="2193.74,819.524,6860.28,1739.15" stroke="rgb(255,0,195)" stroke-width="2" fill="none"></polyline>
<polyline points="1902.46,1006.02,6851.71,2423.11" stroke="rgb(255,0,72)" stroke-width="2" fill="none"></polyline>
<polyline points="1701.13,1034.45,6679.25,2431.4" stroke="rgb(0,187,255)" stroke-width="2" fill="none"></polyline>
<polyline points="1143.76,367.253,6362.83,1790.66" stroke="rgb(255,85,0)" stroke-width="2" fill="none"></polyline>
<polyline points="1499.39,400.141,6673.1,1868.19" stroke="rgb(0,46,255)" stroke-width="2" fill="none"></polyline>
<polyline points="1879.76,1028.77,6830.29,2443.95" stroke="rgb(101,255,0)" stroke-width="2" fill="none"></polyline>
<polyline points="1635.46,530.057,6754.39,1984.36" stroke="rgb(255,0,191)" stroke-width="2" fill="none"></polyline>
<polyline points="1826.52,860.863,6832.32,2302.83" stroke="rgb(255,255,0)" stroke-width="2" fill="none"></polyline>
<polyline points="1212.82,931.006,6314.78,2353" stroke="rgb(0,255,63)" stroke-width="2" fill="none"></polyline>
<polyline points="1132.72,186.026,6373.19,1570.77" stroke="rgb(106,255,0)" stroke-width="2" fill="none"></polyline>
<polyline points="1132.72,186.026,6367.01,1608.78" stroke="rgb(255,0,250)" stroke-width="2" fill="none"></polyline>
<polyline points="917.469,302.898,6157.29,1667.14" stroke="rgb(72,255,0)" stroke-width="2" fill="none"></polyline>
<polyline points="1155.7,272.231,6369.05,1657.57" stroke="rgb(255,0,221)" stroke-width="2" fill="none"></polyline>
<polyline points="682.758,152.559,5965.83,1475.73" stroke="rgb(131,0,255)" stroke-width="2" fill="none"></polyline>
<polyline points="1171.75,416.778,6381.39,1828.34" stroke="rgb(0,195,255)" stroke-width="2" fill="none"></polyline>
<polyline points="781.339,149.148,6077.76,1506.31" stroke="rgb(255,0,187)" stroke-width="2" fill="none"></polyline>
<polyline points="1578.63,1016.79,6580.27,2424.14" stroke="rgb(0,123,255)" stroke-width="2" fill="none"></polyline>
<polyline points="781.339,149.148,6077.76,1506.31" stroke="rgb(255,0,127)" stroke-width="2" fill="none"></polyline>
<polyline points="1055.16,1163.58,6166.17,2605.4" stroke="rgb(0,255,16)" stroke-width="2" fill="none"></polyline>
<polyline points="1055.16,1163.58,6166.17,2605.4" stroke="rgb(0,255,33)" stroke-width="2" fill="none"></polyline>
<polyline points="1514.41,379.077,6687.17,1837.92" stroke="rgb(255,0,51)" stroke-width="2" fill="none"></polyline>
<polyline points="1718.84,598.434,6809.38,2057.96" stroke="rgb(255,0,8)" stroke-width="2" fill="none"></polyline>
<polyline points="790.758,310.867,6052.51,1667.92" stroke="rgb(199,0,255)" stroke-width="2" fill="none"></polyline>
<polyline points="1158.35,996.189,6249.63,2414.71" stroke="rgb(0,127,255)" stroke-width="2" fill="none"></polyline>
<polyline points="790.758,310.867,6052.51,1667.92" stroke="rgb(131,0,255)" stroke-width="2" fill="none"></polyline>
<polyline points="872.955,391.327,6088.03,1751.46" stroke="rgb(254,0,255)" stroke-width="2" fill="none"></polyline>
<polyline points="781.339,149.148,6076.11,1501.55" stroke="rgb(255,0,106)" stroke-width="2" fill="none"></polyline>
<polyline points="1598.24,554.027,6720.52,2001.06" stroke="rgb(255,0,101)" stroke-width="2" fill="none"></polyline>
<circle cx="1773.41" cy="1247.86" r="4" stroke="rgb(63,255,0)" stroke-width="2" fill="none"></circle>
<circle cx="6710.28" cy="2660.03" r="4" stroke="rgb(63,255,0)" stroke-width="2" fill="none"></circle>
<circle cx="1072.09" cy="1792.33" r="4" stroke="rgb(255,89,0)" stroke-width="2" fill="none"></circle>
<circle cx="6004.93" cy="2092.05" r="4" stroke="rgb(255,89,0)" stroke-width="2" fill="none"></circle>
<circle cx="957.867" cy="283.745" r="4" stroke="rgb(0,55,255)" stroke-width="2" fill="none"></circle>
<circle cx="6092.85" cy="1567.69" r="4" stroke="rgb(0,55,255)" stroke-width="2" fill="none"></circle>
<circle cx="1561.54" cy="1140.14" r="4" stroke="rgb(0,255,199)" stroke-width="2" fill="none"></circle>
<circle cx="6565.93" cy="2782.1" r="4" stroke="rgb(0,255,199)" stroke-width="2" fill="none"></circle>
<circle cx="572.998" cy="106.947" r="4" stroke="rgb(127,255,0)" stroke-width="2" fill="none"></circle>
<circle cx="6755.95" cy="1595.09" r="4" stroke="rgb(127,255,0)" stroke-width="2" fill="none"></circle>
<circle cx="2424.24" cy="1117.63" r="4" stroke="rgb(161,255,0)" stroke-width="2" fill="none"></circle>
<circle cx="6562.89" cy="1202.91" r="4" stroke="rgb(161,255,0)" stroke-width="2" fill="none"></circle>
<circle cx="2156.38" cy="1538.99" r="4" stroke="rgb(0,0,255)" stroke-width="2" fill="none"></circle>
<circle cx="6893.33" cy="1330.72" r="4" stroke="rgb(0,0,255)" stroke-width="2" fill="none"></circle>
<circle cx="952.281" cy="327.008" r="4" stroke="rgb(178,0,255)" stroke-width="2" fill="none"></circle>
<circle cx="6081.95" cy="1237.27" r="4" stroke="rgb(178,0,255)" stroke-width="2" fill="none"></circle>
<circle cx="1134.94" cy="73.7817" r="4" stroke="rgb(85,0,255)" stroke-width="2" fill="none"></circle>
<circle cx="6339.86" cy="2189.78" r="4" stroke="rgb(85,0,255)" stroke-width="2" fill="none"></circle>
<circle cx="1690.91" cy="211.802" r="4" stroke="rgb(0,255,67)" stroke-width="2" fill="none"></circle>
<circle cx="6845.53" cy="1294.92" r="4" stroke="rgb(0,255,67)" stroke-width="2" fill="none"></circle>
<circle cx="1463.98" cy="1607.89" r="4" stroke="rgb(255,0,148)" stroke-width="2" fill="none"></circle>
<circle cx="6018.35" cy="1779.31" r="4" stroke="rgb(255,0,148)" stroke-width="2" fill="none"></circle>
<circle cx="1634.56" cy="1343.99" r="4" stroke="rgb(114,0,255)" stroke-width="2" fill="none"></circle>
<circle cx="6360.04" cy="2288.24" r="4" stroke="rgb(114,0,255)" stroke-width="2" fill="none"></circle>
<circle cx="994.592" cy="538.636" r="4" stroke="rgb(255,131,0)" stroke-width="2" fill="none"></circle>
<circle cx="6459.35" cy="1867.42" r="4" stroke="rgb(255,131,0)" stroke-width="2" fill="none"></circle>
<circle cx="2074.29" cy="1415.08" r="4" stroke="rgb(131,255,0)" stroke-width="2" fill="none"></circle>
<circle cx="6704.37" cy="1450.79" r="4" stroke="rgb(131,255,0)" stroke-width="2" fill="none"></circle>
<circle cx="1818.87" cy="1136.77" r="4" stroke="rgb(255,0,114)" stroke-width="2" fill="none"></circle>
<circle cx="5834.17" cy="2440.16" r="4" stroke="rgb(255,0,114)" stroke-width="2" fill="none"></circle>
<circle cx="1111.88" cy="1046.65" r="4" stroke="rgb(80,255,0)" stroke-width="2" fill="none"></circle>
<circle cx="6632.36" cy="1625.48" r="4" stroke="rgb(80,255,0)" stroke-width="2" fill="none"></circle>
<circle cx="994.592" cy="538.636" r="4" stroke="rgb(216,0,255)" stroke-width="2" fill="none"></circle>
<circle cx="6173.56" cy="1626.36" r="4" stroke="rgb(216,0,255)" stroke-width="2" fill="none"></circle>
<circle cx="1288.92" cy="1360.82" r="4" stroke="rgb(0,4,255)" stroke-width="2" fill="none"></circle>
<circle cx="6509.94" cy="1563.4" r="4" stroke="rgb(0,4,255)" stroke-width="2" fill="none"></circle>
<circle cx="1100.55" cy="325.164" r="4" stroke="rgb(255,148,0)" stroke-width="2" fill="none"></circle>
<circle cx="6343.91" cy="2069.28" r="4" stroke="rgb(255,148,0)" stroke-width="2" fill="none"></circle>
<circle cx="1104.13" cy="1981.36" r="4" stroke="rgb(42,255,0)" stroke-width="2" fill="none"></circle>
<circle cx="6334.01" cy="1693.72" r="4" stroke="rgb(42,255,0)" stroke-width="2" fill="none"></circle>
<circle cx="1817.13" cy="984.396" r="4" stroke="rgb(0,255,55)" stroke-width="2" fill="none"></circle>
<circle cx="5969.23" cy="2249.66" r="4" stroke="rgb(0,255,55)" stroke-width="2" fill="none"></circle>
<circle cx="1562.02" cy="1332.29" r="4" stroke="rgb(0,255,174)" stroke-width="2" fill="none"></circle>
<circle cx="6547.75" cy="1776.16" r="4" stroke="rgb(0,255,174)" stroke-width="2" fill="none"></circle>
<circle cx="1687.71" cy="190.788" r="4" stroke="rgb(0,97,255)" stroke-width="2" fill="none"></circle>
<circle cx="5944.96" cy="2322.09" r="4" stroke="rgb(0,97,255)" stroke-width="2" fill="none"></circle>
<circle cx="1156.76" cy="791.241" r="4" stroke="rgb(182,0,255)" stroke-width="2" fill="none"></circle>
<circle cx="6139.11" cy="2637.11" r="4" stroke="rgb(182,0,255)" stroke-width="2" fill="none"></circle>
<circle cx="1871.93" cy="1017.9" r="4" stroke="rgb(131,0,255)" stroke-width="2" fill="none"></circle>
<circle cx="6825" cy="2432.71" r="4" stroke="rgb(131,0,255)" stroke-width="2" fill="none"></circle>
<circle cx="1368.83" cy="1009.36" r="4" stroke="rgb(135,0,255)" stroke-width="2" fill="none"></circle>
<circle cx="6342.69" cy="2150.49" r="4" stroke="rgb(135,0,255)" stroke-width="2" fill="none"></circle>
<circle cx="1366.86" cy="1379.32" r="4" stroke="rgb(0,255,254)" stroke-width="2" fill="none"></circle>
<circle cx="6492.97" cy="2518.84" r="4" stroke="rgb(0,255,254)" stroke-width="2" fill="none"></circle>
<circle cx="1101.75" cy="976.984" r="4" stroke="rgb(80,255,0)" stroke-width="2" fill="none"></circle>
<circle cx="6126.67" cy="2557.62" r="4" stroke="rgb(80,255,0)" stroke-width="2" fill="none"></circle>
<circle cx="1838.56" cy="1160.37" r="4" stroke="rgb(199,255,0)" stroke-width="2" fill="none"></circle>
<circle cx="6775.22" cy="2577.26" r="4" stroke="rgb(199,255,0)" stroke-width="2" fill="none"></circle>
<circle cx="1757.71" cy="1170.05" r="4" stroke="rgb(114,0,255)" stroke-width="2" fill="none"></circle>
<circle cx="6707.86" cy="2582.79" r="4" stroke="rgb(114,0,255)" stroke-width="2" fill="none"></circle>
<circle cx="1757.71" cy="1170.05" r="4" stroke="rgb(255,0,114)" stroke-width="2" fill="none"></circle>
<circle cx="6710.28" cy="2589.28" r="4" stroke="rgb(255,0,114)" stroke-width="2" fill="none"></circle>
<circle cx="1773.41" cy="1247.86" r="4" stroke="rgb(255,212,0)" stroke-width="2" fill="none"></circle>
<circle cx="6712.1" cy="2666.03" r="4" stroke="rgb(255,212,0)" stroke-width="2" fill="none"></circle>
<circle cx="1692.28" cy="1274.25" r="4" stroke="rgb(0,255,174)" stroke-width="2" fill="none"></circle>
<circle cx="6641.59" cy="2689.98" r="4" stroke="rgb(0,255,174)" stroke-width="2" fill="none"></circle>
<circle cx="1859.09" cy="1741.31" r="4" stroke="rgb(0,169,255)" stroke-width="2" fill="none"></circle>
<circle cx="5849.27" cy="2712.78" r="4" stroke="rgb(0,169,255)" stroke-width="2" fill="none"></circle>
<circle cx="1827.56" cy="1034.12" r="4" stroke="rgb(0,97,255)" stroke-width="2" fill="none"></circle>
<circle cx="6784.51" cy="2442.46" r="4" stroke="rgb(0,97,255)" stroke-width="2" fill="none"></circle>
<circle cx="1827.56" cy="1034.12" r="4" stroke="rgb(46,0,255)" stroke-width="2" fill="none"></circle>
<circle cx="6784.46" cy="2442.33" r="4" stroke="rgb(46,0,255)" stroke-width="2" fill="none"></circle>
<circle cx="1758.8" cy="1090.87" r="4" stroke="rgb(0,255,148)" stroke-width="2" fill="none"></circle>
<circle cx="6719.86" cy="2499.75" r="4" stroke="rgb(0,255,148)" stroke-width="2" fill="none"></circle>
<circle cx="1489.63" cy="203.452" r="4" stroke="rgb(255,0,131)" stroke-width="2" fill="none"></circle>
<circle cx="6689.52" cy="1642.08" r="4" stroke="rgb(255,0,131)" stroke-width="2" fill="none"></circle>
<circle cx="1727" cy="1014.72" r="4" stroke="rgb(255,191,0)" stroke-width="2" fill="none"></circle>
<circle cx="6703.65" cy="2413.44" r="4" stroke="rgb(255,191,0)" stroke-width="2" fill="none"></circle>
<circle cx="1681.23" cy="1299.45" r="4" stroke="rgb(199,0,255)" stroke-width="2" fill="none"></circle>
<circle cx="6628.88" cy="2715.75" r="4" stroke="rgb(199,0,255)" stroke-width="2" fill="none"></circle>
<circle cx="1928.58" cy="1035.25" r="4" stroke="rgb(255,0,93)" stroke-width="2" fill="none"></circle>
<circle cx="6868.53" cy="2453.41" r="4" stroke="rgb(255,0,93)" stroke-width="2" fill="none"></circle>
<circle cx="1152.2" cy="348.206" r="4" stroke="rgb(8,0,255)" stroke-width="2" fill="none"></circle>
<circle cx="6446.96" cy="1370.39" r="4" stroke="rgb(8,0,255)" stroke-width="2" fill="none"></circle>
<circle cx="1055.16" cy="1163.58" r="4" stroke="rgb(229,255,0)" stroke-width="2" fill="none"></circle>
<circle cx="6464.94" cy="1792.83" r="4" stroke="rgb(229,255,0)" stroke-width="2" fill="none"></circle>
<circle cx="1073.86" cy="990.067" r="4" stroke="rgb(255,38,0)" stroke-width="2" fill="none"></circle>
<circle cx="6196.63" cy="2480.41" r="4" stroke="rgb(255,38,0)" stroke-width="2" fill="none"></circle>
<circle cx="1891.75" cy="1107.16" r="4" stroke="rgb(255,0,123)" stroke-width="2" fill="none"></circle>
<circle cx="6827.09" cy="2518.14" r="4" stroke="rgb(255,0,123)" stroke-width="2" fill="none"></circle>
<circle cx="1651.23" cy="1108.03" r="4" stroke="rgb(255,165,0)" stroke-width="2" fill="none"></circle>
<circle cx="6632.6" cy="2587.28" r="4" stroke="rgb(255,165,0)" stroke-width="2" fill="none"></circle>
<circle cx="1119.51" cy="819.982" r="4" stroke="rgb(255,0,76)" stroke-width="2" fill="none"></circle>
<circle cx="6598.58" cy="2051.25" r="4" stroke="rgb(255,0,76)" stroke-width="2" fill="none"></circle>
<circle cx="1489.74" cy="202.12" r="4" stroke="rgb(93,0,255)" stroke-width="2" fill="none"></circle>
<circle cx="6692" cy="1640.16" r="4" stroke="rgb(93,0,255)" stroke-width="2" fill="none"></circle>
<circle cx="1921.78" cy="665.284" r="4" stroke="rgb(165,0,255)" stroke-width="2" fill="none"></circle>
<circle cx="6927.41" cy="2074.03" r="4" stroke="rgb(165,0,255)" stroke-width="2" fill="none"></circle>
<circle cx="1622.66" cy="460.599" r="4" stroke="rgb(42,0,255)" stroke-width="2" fill="none"></circle>
<circle cx="6755.55" cy="1922.25" r="4" stroke="rgb(42,0,255)" stroke-width="2" fill="none"></circle>
<circle cx="1363.1" cy="961.535" r="4" stroke="rgb(21,0,255)" stroke-width="2" fill="none"></circle>
<circle cx="6430.52" cy="2097.41" r="4" stroke="rgb(21,0,255)" stroke-width="2" fill="none"></circle>
<circle cx="1852.42" cy="662.99" r="4" stroke="rgb(186,0,255)" stroke-width="2" fill="none"></circle>
<circle cx="6884.14" cy="2097.94" r="4" stroke="rgb(186,0,255)" stroke-width="2" fill="none"></circle>
<circle cx="1245.94" cy="518.096" r="4" stroke="rgb(255,216,0)" stroke-width="2" fill="none"></circle>
<circle cx="6419.34" cy="1944.73" r="4" stroke="rgb(255,216,0)" stroke-width="2" fill="none"></circle>
<circle cx="1287.41" cy="585.732" r="4" stroke="rgb(76,255,0)" stroke-width="2" fill="none"></circle>
<circle cx="6447.15" cy="2026.07" r="4" stroke="rgb(76,255,0)" stroke-width="2" fill="none"></circle>
<circle cx="768.353" cy="222.795" r="4" stroke="rgb(0,140,255)" stroke-width="2" fill="none"></circle>
<circle cx="5983.11" cy="2139.52" r="4" stroke="rgb(0,140,255)" stroke-width="2" fill="none"></circle>
<circle cx="1936.81" cy="707.164" r="4" stroke="rgb(0,195,255)" stroke-width="2" fill="none"></circle>
<circle cx="6933.88" cy="2122.7" r="4" stroke="rgb(0,195,255)" stroke-width="2" fill="none"></circle>
<circle cx="1905.25" cy="719.639" r="4" stroke="rgb(25,0,255)" stroke-width="2" fill="none"></circle>
<circle cx="6911.4" cy="2146.3" r="4" stroke="rgb(25,0,255)" stroke-width="2" fill="none"></circle>
<circle cx="1368.83" cy="1009.36" r="4" stroke="rgb(80,0,255)" stroke-width="2" fill="none"></circle>
<circle cx="6342.29" cy="2149.9" r="4" stroke="rgb(80,0,255)" stroke-width="2" fill="none"></circle>
<circle cx="1305.1" cy="656.871" r="4" stroke="rgb(233,0,255)" stroke-width="2" fill="none"></circle>
<circle cx="6445.85" cy="2092.14" r="4" stroke="rgb(233,0,255)" stroke-width="2" fill="none"></circle>
<circle cx="1152.2" cy="348.206" r="4" stroke="rgb(255,0,174)" stroke-width="2" fill="none"></circle>
<circle cx="6472.54" cy="2156.36" r="4" stroke="rgb(255,0,174)" stroke-width="2" fill="none"></circle>
<circle cx="2266.63" cy="930.153" r="4" stroke="rgb(0,255,199)" stroke-width="2" fill="none"></circle>
<circle cx="6056.16" cy="1439.07" r="4" stroke="rgb(0,255,199)" stroke-width="2" fill="none"></circle>
<circle cx="1738.33" cy="754.431" r="4" stroke="rgb(118,0,255)" stroke-width="2" fill="none"></circle>
<circle cx="6792.87" cy="2223.09" r="4" stroke="rgb(118,0,255)" stroke-width="2" fill="none"></circle>
<circle cx="1923.43" cy="717.974" r="4" stroke="rgb(4,0,255)" stroke-width="2" fill="none"></circle>
<circle cx="6922.82" cy="2137.46" r="4" stroke="rgb(4,0,255)" stroke-width="2" fill="none"></circle>
<circle cx="1396.47" cy="920.516" r="4" stroke="rgb(255,0,136)" stroke-width="2" fill="none"></circle>
<circle cx="6475.92" cy="2358.77" r="4" stroke="rgb(255,0,136)" stroke-width="2" fill="none"></circle>
<circle cx="628.852" cy="183.062" r="4" stroke="rgb(255,0,80)" stroke-width="2" fill="none"></circle>
<circle cx="5833.76" cy="2495.09" r="4" stroke="rgb(255,0,80)" stroke-width="2" fill="none"></circle>
<circle cx="1923.5" cy="1092.26" r="4" stroke="rgb(93,255,0)" stroke-width="2" fill="none"></circle>
<circle cx="6853.67" cy="2509.63" r="4" stroke="rgb(93,255,0)" stroke-width="2" fill="none"></circle>
<circle cx="2250.28" cy="1147.71" r="4" stroke="rgb(0,89,255)" stroke-width="2" fill="none"></circle>
<circle cx="5918.77" cy="2560.98" r="4" stroke="rgb(0,89,255)" stroke-width="2" fill="none"></circle>
<circle cx="1740.03" cy="1043.91" r="4" stroke="rgb(255,34,0)" stroke-width="2" fill="none"></circle>
<circle cx="6709.94" cy="2447.19" r="4" stroke="rgb(255,34,0)" stroke-width="2" fill="none"></circle>
<circle cx="1872.01" cy="1182.01" r="4" stroke="rgb(250,0,255)" stroke-width="2" fill="none"></circle>
<circle cx="6795.22" cy="2593.97" r="4" stroke="rgb(250,0,255)" stroke-width="2" fill="none"></circle>
<circle cx="1801.64" cy="1174.98" r="4" stroke="rgb(0,255,67)" stroke-width="2" fill="none"></circle>
<circle cx="6746.6" cy="2596.24" r="4" stroke="rgb(0,255,67)" stroke-width="2" fill="none"></circle>
<circle cx="1684.74" cy="1235.92" r="4" stroke="rgb(233,0,255)" stroke-width="2" fill="none"></circle>
<circle cx="6640.37" cy="2651.26" r="4" stroke="rgb(233,0,255)" stroke-width="2" fill="none"></circle>
<circle cx="1756.6" cy="1087.18" r="4" stroke="rgb(157,0,255)" stroke-width="2" fill="none"></circle>
<circle cx="6718.14" cy="2496.11" r="4" stroke="rgb(157,0,255)" stroke-width="2" fill="none"></circle>
<circle cx="1868.99" cy="1143.54" r="4" stroke="rgb(255,76,0)" stroke-width="2" fill="none"></circle>
<circle cx="6800.44" cy="2559.87" r="4" stroke="rgb(255,76,0)" stroke-width="2" fill="none"></circle>
<circle cx="1489.47" cy="175.096" r="4" stroke="rgb(255,8,0)" stroke-width="2" fill="none"></circle>
<circle cx="6695.23" cy="1610.93" r="4" stroke="rgb(255,8,0)" stroke-width="2" fill="none"></circle>
<circle cx="1088.2" cy="96.4383" r="4" stroke="rgb(195,0,255)" stroke-width="2" fill="none"></circle>
<circle cx="6616.5" cy="2796.02" r="4" stroke="rgb(195,0,255)" stroke-width="2" fill="none"></circle>
<circle cx="1511.81" cy="151.031" r="4" stroke="rgb(255,0,42)" stroke-width="2" fill="none"></circle>
<circle cx="6721.26" cy="1591.93" r="4" stroke="rgb(255,0,42)" stroke-width="2" fill="none"></circle>
<circle cx="1489.63" cy="203.452" r="4" stroke="rgb(140,0,255)" stroke-width="2" fill="none"></circle>
<circle cx="6688.35" cy="1642.82" r="4" stroke="rgb(140,0,255)" stroke-width="2" fill="none"></circle>
<circle cx="1543.07" cy="163.132" r="4" stroke="rgb(0,255,89)" stroke-width="2" fill="none"></circle>
<circle cx="6744.57" cy="1606.52" r="4" stroke="rgb(0,255,89)" stroke-width="2" fill="none"></circle>
<circle cx="1197.77" cy="262.601" r="4" stroke="rgb(0,255,16)" stroke-width="2" fill="none"></circle>
<circle cx="6419.55" cy="1669.34" r="4" stroke="rgb(0,255,16)" stroke-width="2" fill="none"></circle>
<circle cx="1414.42" cy="1542.62" r="4" stroke="rgb(0,203,255)" stroke-width="2" fill="none"></circle>
<circle cx="6395.17" cy="2966.31" r="4" stroke="rgb(0,203,255)" stroke-width="2" fill="none"></circle>
<circle cx="1088.65" cy="292.23" r="4" stroke="rgb(97,0,255)" stroke-width="2" fill="none"></circle>
<circle cx="6318.32" cy="1691.91" r="4" stroke="rgb(97,0,255)" stroke-width="2" fill="none"></circle>
<circle cx="1553.82" cy="287.53" r="4" stroke="rgb(255,38,0)" stroke-width="2" fill="none"></circle>
<circle cx="6731.03" cy="1742.89" r="4" stroke="rgb(255,38,0)" stroke-width="2" fill="none"></circle>
<circle cx="1155.7" cy="272.231" r="4" stroke="rgb(255,0,46)" stroke-width="2" fill="none"></circle>
<circle cx="6382.37" cy="1691.04" r="4" stroke="rgb(255,0,46)" stroke-width="2" fill="none"></circle>
<circle cx="2193.74" cy="819.524" r="4" stroke="rgb(255,0,195)" stroke-width="2" fill="none"></circle>
<circle cx="6860.28" cy="1739.15" r="4" stroke="rgb(255,0,195)" stroke-width="2" fill="none"></circle>
<circle cx="1902.46" cy="1006.02" r="4" stroke="rgb(255,0,72)" stroke-width="2" fill="none"></circle>
<circle cx="6851.71" cy="2423.11" r="4" stroke="rgb(255,0,72)" stroke-width="2" fill="none"></circle>
<circle cx="1701.13" cy="1034.45" r="4" stroke="rgb(0,187,255)" stroke-width="2" fill="none"></circle>
<circle cx="6679.25" cy="2431.4" r="4" stroke="rgb(0,187,255)" stroke-width="2" fill="none"></circle>
<circle cx="1143.76" cy="367.253" r="4" stroke="rgb(255,85,0)" stroke-width="2" fill="none"></circle>
<circle cx="6362.83" cy="1790.66" r="4" stroke="rgb(255,85,0)" stroke-width="2" fill="none"></circle>
<circle cx="1499.39" cy="400.141" r="4" stroke="rgb(0,46,255)" stroke-width="2" fill="none"></circle>
<circle cx="6673.1" cy="1868.19" r="4" stroke="rgb(0,46,255)" stroke-width="2" fill="none"></circle>
<circle cx="1879.76" cy="1028.77" r="4" stroke="rgb(101,255,0)" stroke-width="2" fill="none"></circle>
<circle cx="6830.29" cy="2443.95" r="4" stroke="rgb(101,255,0)" stroke-width="2" fill="none"></circle>
<circle cx="1635.46" cy="530.057" r="4" stroke="rgb(255,0,191)" stroke-width="2" fill="none"></circle>
<circle cx="6754.39" cy="1984.36" r="4" stroke="rgb(255,0,191)" stroke-width="2" fill="none"></circle>
<circle cx="1826.52" cy="860.863" r="4" stroke="rgb(255,255,0)" stroke-width="2" fill="none"></circle>
<circle cx="6832.32" cy="2302.83" r="4" stroke="rgb(255,255,0)" stroke-width="2" fill="none"></circle>
<circle cx="1212.82" cy="931.006" r="4" stroke="rgb(0,255,63)" stroke-width="2" fill="none"></circle>
<circle cx="6314.78" cy="2353" r="4" stroke="rgb(0,255,63)" stroke-width="2" fill="none"></circle>
<circle cx="1132.72" cy="186.026" r="4" stroke="rgb(106,255,0)" stroke-width="2" fill="none"></circle>
<circle cx="6373.19" cy="1570.77" r="4" stroke="rgb(106,255,0)" stroke-width="2" fill="none"></circle>
<circle cx="1132.72" cy="186.026" r="4" stroke="rgb(255,0,250)" stroke-width="2" fill="none"></circle>
<circle cx="6367.01" cy="1608.78" r="4" stroke="rgb(255,0,250)" stroke-width="2" fill="none"></circle>
<circle cx="917.469" cy="302.898" r="4" stroke="rgb(72,255,0)" stroke-width="2" fill="none"></circle>
<circle cx="6157.29" cy="1667.14" r="4" stroke="rgb(72,255,0)" stroke-width="2" fill="none"></circle>
<circle cx="1155.7" cy="272.231" r="4" stroke="rgb(255,0,221)" stroke-width="2" fill="none"></circle>
<circle cx="6369.05" cy="1657.57" r="4" stroke="rgb(255,0,221)" stroke-width="2" fill="none"></circle>
<circle cx="682.758" cy="152.559" r="4" stroke="rgb(131,0,255)" stroke-width="2" fill="none"></circle>
<circle cx="5965.83" cy="1475.73" r="4" stroke="rgb(131,0,255)" stroke-width="2" fill="none"></circle>
<circle cx="1171.75" cy="416.778" r="4" stroke="rgb(0,195,255)" stroke-width="2" fill="none"></circle>
<circle cx="6381.39" cy="1828.34" r="4" stroke="rgb(0,195,255)" stroke-width="2" fill="none"></circle>
<circle cx="781.339" cy="149.148" r="4" stroke="rgb(255,0,187)" stroke-width="2" fill="none"></circle>
<circle cx="6077.76" cy="1506.31" r="4" stroke="rgb(255,0,187)" stroke-width="2" fill="none"></circle>
<circle cx="1578.63" cy="1016.79" r="4" stroke="rgb(0,123,255)" stroke-width="2" fill="none"></circle>
<circle cx="6580.27" cy="2424.14" r="4" stroke="rgb(0,123,255)" stroke-width="2" fill="none"></circle>
<circle cx="781.339" cy="149.148" r="4" stroke="rgb(255,0,127)" stroke-width="2" fill="none"></circle>
<circle cx="6077.76" cy="1506.31" r="4" stroke="rgb(255,0,127)" stroke-width="2" fill="none"></circle>
<circle cx="1055.16" cy="1163.58" r="4" stroke="rgb(0,255,16)" stroke-width="2" fill="none"></circle>
<circle cx="6166.17" cy="2605.4" r="4" stroke="rgb(0,255,16)" stroke-width="2" fill="none"></circle>
<circle cx="1055.16" cy="1163.58" r="4" stroke="rgb(0,255,33)" stroke-width="2" fill="none"></circle>
<circle cx="6166.17" cy="2605.4" r="4" stroke="rgb(0,255,33)" stroke-width="2" fill="none"></circle>
<circle cx="1514.41" cy="379.077" r="4" stroke="rgb(255,0,51)" stroke-width="2" fill="none"></circle>
<circle cx="6687.17" cy="1837.92" r="4" stroke="rgb(255,0,51)" stroke-width="2" fill="none"></circle>
<circle cx="1718.84" cy="598.434" r="4" stroke="rgb(255,0,8)" stroke-width="2" fill="none"></circle>
<circle cx="6809.38" cy="2057.96" r="4" stroke="rgb(255,0,8)" stroke-width="2" fill="none"></circle>
<circle cx="790.758" cy="310.867" r="4" stroke="rgb(199,0,255)" stroke-width="2" fill="none"></circle>
<circle cx="6052.51" cy="1667.92" r="4" stroke="rgb(199,0,255)" stroke-width="2" fill="none"></circle>
<circle cx="1158.35" cy="996.189" r="4" stroke="rgb(0,127,255)" stroke-width="2" fill="none"></circle>
<circle cx="6249.63" cy="2414.71" r="4" stroke="rgb(0,127,255)" stroke-width="2" fill="none"></circle>
<circle cx="790.758" cy="310.867" r="4" stroke="rgb(131,0,255)" stroke-width="2" fill="none"></circle>
<circle cx="6052.51" cy="1667.92" r="4" stroke="rgb(131,0,255)" stroke-width="2" fill="none"></circle>
<circle cx="872.955" cy="391.327" r="4" stroke="rgb(254,0,255)" stroke-width="2" fill="none"></circle>
<circle cx="6088.03" cy="1751.46" r="4" stroke="rgb(254,0,255)" stroke-width="2" fill="none"></circle>
<circle cx="781.339" cy="149.148" r="4" stroke="rgb(255,0,106)" stroke-width="2" fill="none"></circle>
<circle cx="6076.11" cy="1501.55" r="4" stroke="rgb(255,0,106)" stroke-width="2" fill="none"></circle>
<circle cx="1598.24" cy="554.027" r="4" stroke="rgb(255,0,101)" stroke-width="2" fill="none"></circle>
<circle cx="6720.52" cy="2001.06" r="4" stroke="rgb(255,0,101)" stroke-width="2" fill="none"></circle>
</svg>