<?xml version="1.0" standalone="yes"?>
<!-- SVG graphic -->
<svg xmlns='http://www.w3.org/2000/svg' xmlns:xlink='http://www.w3.org/1999/xlink'
width="8064px" height="3024px" preserveAspectRatio="xMinYMin meet" viewBox="0 0 8064 3024" version="1.1">
<image x="0" y="0" width="4032px" height="3024px" opacity="1" xlink:href="/home/jeong/Code/2D-to-3D-Modeling-using-AI/Make3D/Image/20200227_180650.jpg"/>
<image x="4032" y="0" width="4032px" height="3024px" opacity="1" xlink:href="/home/jeong/Code/2D-to-3D-Modeling-using-AI/Make3D/Image/20200227_180731.jpg"/>
<polyline points="1716.09,996.507,5520.88,666.987" stroke="rgb(8,0,255)" stroke-width="2" fill="none"></polyline>
<polyline points="2345.47,878.782,5427.38,745.799" stroke="rgb(255,242,0)" stroke-width="2" fill="none"></polyline>
<polyline points="1368.53,1661.35,5681.48,746.891" stroke="rgb(0,12,255)" stroke-width="2" fill="none"></polyline>
<polyline points="3260.14,1248.62,5420.84,767.18" stroke="rgb(250,255,0)" stroke-width="2" fill="none"></polyline>
<polyline points="1816.55,1276.48,6532.18,1941.36" stroke="rgb(114,0,255)" stroke-width="2" fill="none"></polyline>
<polyline points="1573.18,1007.89,6045.97,1087.75" stroke="rgb(12,255,0)" stroke-width="2" fill="none"></polyline>
<polyline points="2821.23,1695.01,6359.02,830.996" stroke="rgb(0,255,216)" stroke-width="2" fill="none"></polyline>
<polyline points="2286.86,628.402,6618.58,1774.46" stroke="rgb(255,0,68)" stroke-width="2" fill="none"></polyline>
<polyline points="1398.12,1051.82,5403.73,862.025" stroke="rgb(191,255,0)" stroke-width="2" fill="none"></polyline>
<polyline points="3270.85,1692.86,5443.66,878.258" stroke="rgb(0,55,255)" stroke-width="2" fill="none"></polyline>
<polyline points="1542.7,1183.33,6795.75,2083.55" stroke="rgb(59,0,255)" stroke-width="2" fill="none"></polyline>
<polyline points="2864.48,905.79,6189.24,2112.33" stroke="rgb(0,255,191)" stroke-width="2" fill="none"></polyline>
<polyline points="1583.81,1064.42,6077.82,950.762" stroke="rgb(118,0,255)" stroke-width="2" fill="none"></polyline>
<polyline points="2876.64,1674.18,5841.74,1849.24" stroke="rgb(0,89,255)" stroke-width="2" fill="none"></polyline>
<polyline points="1583.81,1064.42,6247.05,1328.65" stroke="rgb(51,255,0)" stroke-width="2" fill="none"></polyline>
<polyline points="1583.81,1064.42,6156.81,1332.49" stroke="rgb(255,93,0)" stroke-width="2" fill="none"></polyline>
<polyline points="2142.66,1034.43,6537.3,2388.18" stroke="rgb(0,187,255)" stroke-width="2" fill="none"></polyline>
<polyline points="2674.84,929.736,5728.08,1377.83" stroke="rgb(148,255,0)" stroke-width="2" fill="none"></polyline>
<polyline points="1816.55,1276.48,6218.01,1021.63" stroke="rgb(34,0,255)" stroke-width="2" fill="none"></polyline>
<polyline points="1573.18,1007.89,6252.09,1404.83" stroke="rgb(255,0,114)" stroke-width="2" fill="none"></polyline>
<polyline points="1935.62,1186.36,6548.28,2034.41" stroke="rgb(255,12,0)" stroke-width="2" fill="none"></polyline>
<polyline points="1583.81,1064.42,6092.5,1209.06" stroke="rgb(72,0,255)" stroke-width="2" fill="none"></polyline>
<polyline points="1207.27,1567.29,6267.75,1537.17" stroke="rgb(0,255,195)" stroke-width="2" fill="none"></polyline>
<polyline points="2849.16,899.931,5628.67,1303.51" stroke="rgb(246,0,255)" stroke-width="2" fill="none"></polyline>
<polyline points="3148.01,839.967,6273.15,1381.82" stroke="rgb(186,0,255)" stroke-width="2" fill="none"></polyline>
<polyline points="1583.81,1064.42,6276.86,1422.3" stroke="rgb(0,255,165)" stroke-width="2" fill="none"></polyline>
<polyline points="1586.68,988.117,6164.3,1148.84" stroke="rgb(93,255,0)" stroke-width="2" fill="none"></polyline>
<polyline points="1302.03,1352.26,6105.56,1194.69" stroke="rgb(255,0,144)" stroke-width="2" fill="none"></polyline>
<polyline points="1566.21,1069.79,6072.48,1201.79" stroke="rgb(59,0,255)" stroke-width="2" fill="none"></polyline>
<polyline points="1566.21,1069.79,6072.48,1201.79" stroke="rgb(255,0,17)" stroke-width="2" fill="none"></polyline>
<polyline points="1583.81,1064.42,6092.12,1209.19" stroke="rgb(0,42,255)" stroke-width="2" fill="none"></polyline>
<polyline points="1591.48,1070.55,6087.48,1223.07" stroke="rgb(0,255,67)" stroke-width="2" fill="none"></polyline>
<polyline points="1407.15,1274.94,6103.83,1708.2" stroke="rgb(191,0,255)" stroke-width="2" fill="none"></polyline>
<polyline points="1566.21,1069.79,6286.52,1486.79" stroke="rgb(255,0,89)" stroke-width="2" fill="none"></polyline>
<polyline points="1407.15,1274.94,5919.52,1538.94" stroke="rgb(0,178,255)" stroke-width="2" fill="none"></polyline>
<polyline points="1407.15,1274.94,5919.52,1538.94" stroke="rgb(233,255,0)" stroke-width="2" fill="none"></polyline>
<polyline points="1567.27,1476.15,6482.9,2448.39" stroke="rgb(255,0,136)" stroke-width="2" fill="none"></polyline>
<polyline points="1816.55,1276.48,5684.14,542.597" stroke="rgb(4,0,255)" stroke-width="2" fill="none"></polyline>
<polyline points="1699.2,1180.72,6612.27,1970.74" stroke="rgb(255,208,0)" stroke-width="2" fill="none"></polyline>
<polyline points="1935.62,1186.36,6318.42,2059.61" stroke="rgb(255,182,0)" stroke-width="2" fill="none"></polyline>
<polyline points="1935.62,1186.36,6332.37,2079.47" stroke="rgb(255,0,85)" stroke-width="2" fill="none"></polyline>
<polyline points="1935.62,1186.36,6303.03,2085.96" stroke="rgb(0,255,233)" stroke-width="2" fill="none"></polyline>
<polyline points="3144.38,1557.72,6602.3,1294.98" stroke="rgb(169,255,0)" stroke-width="2" fill="none"></polyline>
<polyline points="1566.21,1069.79,6287.45,1486.49" stroke="rgb(38,0,255)" stroke-width="2" fill="none"></polyline>
<polyline points="1566.21,1069.79,6287.45,1486.49" stroke="rgb(255,148,0)" stroke-width="2" fill="none"></polyline>
<polyline points="1407.15,1274.94,5920.88,1538.82" stroke="rgb(255,255,0)" stroke-width="2" fill="none"></polyline>
<polyline points="1407.15,1274.94,5920.88,1538.82" stroke="rgb(0,255,97)" stroke-width="2" fill="none"></polyline>
<polyline points="1390.17,1228.16,5904.14,1611.96" stroke="rgb(0,38,255)" stroke-width="2" fill="none"></polyline>
<polyline points="1407.15,1274.94,6104.54,1706.35" stroke="rgb(255,76,0)" stroke-width="2" fill="none"></polyline>
<polyline points="1266.4,1245.59,5994.55,1664.32" stroke="rgb(255,131,0)" stroke-width="2" fill="none"></polyline>
<polyline points="1407.15,1274.94,6146.16,1775.88" stroke="rgb(187,255,0)" stroke-width="2" fill="none"></polyline>
<polyline points="1935.62,1186.36,6260.95,2070.24" stroke="rgb(255,89,0)" stroke-width="2" fill="none"></polyline>
<polyline points="1868.55,1819.1,5978.46,1990.99" stroke="rgb(0,255,169)" stroke-width="2" fill="none"></polyline>
<polyline points="1752.97,1013.34,6458.3,1069.99" stroke="rgb(21,255,0)" stroke-width="2" fill="none"></polyline>
<circle cx="1716.09" cy="996.507" r="4" stroke="rgb(8,0,255)" stroke-width="2" fill="none"></circle>
<circle cx="5520.88" cy="666.987" r="4" stroke="rgb(8,0,255)" stroke-width="2" fill="none"></circle>
<circle cx="2345.47" cy="878.782" r="4" stroke="rgb(255,242,0)" stroke-width="2" fill="none"></circle>
<circle cx="5427.38" cy="745.799" r="4" stroke="rgb(255,242,0)" stroke-width="2" fill="none"></circle>
<circle cx="1368.53" cy="1661.35" r="4" stroke="rgb(0,12,255)" stroke-width="2" fill="none"></circle>
<circle cx="5681.48" cy="746.891" r="4" stroke="rgb(0,12,255)" stroke-width="2" fill="none"></circle>
<circle cx="3260.14" cy="1248.62" r="4" stroke="rgb(250,255,0)" stroke-width="2" fill="none"></circle>
<circle cx="5420.84" cy="767.18" r="4" stroke="rgb(250,255,0)" stroke-width="2" fill="none"></circle>
<circle cx="1816.55" cy="1276.48" r="4" stroke="rgb(114,0,255)" stroke-width="2" fill="none"></circle>
<circle cx="6532.18" cy="1941.36" r="4" stroke="rgb(114,0,255)" stroke-width="2" fill="none"></circle>
<circle cx="1573.18" cy="1007.89" r="4" stroke="rgb(12,255,0)" stroke-width="2" fill="none"></circle>
<circle cx="6045.97" cy="1087.75" r="4" stroke="rgb(12,255,0)" stroke-width="2" fill="none"></circle>
<circle cx="2821.23" cy="1695.01" r="4" stroke="rgb(0,255,216)" stroke-width="2" fill="none"></circle>
<circle cx="6359.02" cy="830.996" r="4" stroke="rgb(0,255,216)" stroke-width="2" fill="none"></circle>
<circle cx="2286.86" cy="628.402" r="4" stroke="rgb(255,0,68)" stroke-width="2" fill="none"></circle>
<circle cx="6618.58" cy="1774.46" r="4" stroke="rgb(255,0,68)" stroke-width="2" fill="none"></circle>
<circle cx="1398.12" cy="1051.82" r="4" stroke="rgb(191,255,0)" stroke-width="2" fill="none"></circle>
<circle cx="5403.73" cy="862.025" r="4" stroke="rgb(191,255,0)" stroke-width="2" fill="none"></circle>
<circle cx="3270.85" cy="1692.86" r="4" stroke="rgb(0,55,255)" stroke-width="2" fill="none"></circle>
<circle cx="5443.66" cy="878.258" r="4" stroke="rgb(0,55,255)" stroke-width="2" fill="none"></circle>
<circle cx="1542.7" cy="1183.33" r="4" stroke="rgb(59,0,255)" stroke-width="2" fill="none"></circle>
<circle cx="6795.75" cy="2083.55" r="4" stroke="rgb(59,0,255)" stroke-width="2" fill="none"></circle>
<circle cx="2864.48" cy="905.79" r="4" stroke="rgb(0,255,191)" stroke-width="2" fill="none"></circle>
<circle cx="6189.24" cy="2112.33" r="4" stroke="rgb(0,255,191)" stroke-width="2" fill="none"></circle>
<circle cx="1583.81" cy="1064.42" r="4" stroke="rgb(118,0,255)" stroke-width="2" fill="none"></circle>
<circle cx="6077.82" cy="950.762" r="4" stroke="rgb(118,0,255)" stroke-width="2" fill="none"></circle>
<circle cx="2876.64" cy="1674.18" r="4" stroke="rgb(0,89,255)" stroke-width="2" fill="none"></circle>
<circle cx="5841.74" cy="1849.24" r="4" stroke="rgb(0,89,255)" stroke-width="2" fill="none"></circle>
<circle cx="1583.81" cy="1064.42" r="4" stroke="rgb(51,255,0)" stroke-width="2" fill="none"></circle>
<circle cx="6247.05" cy="1328.65" r="4" stroke="rgb(51,255,0)" stroke-width="2" fill="none"></circle>
<circle cx="1583.81" cy="1064.42" r="4" stroke="rgb(255,93,0)" stroke-width="2" fill="none"></circle>
<circle cx="6156.81" cy="1332.49" r="4" stroke="rgb(255,93,0)" stroke-width="2" fill="none"></circle>
<circle cx="2142.66" cy="1034.43" r="4" stroke="rgb(0,187,255)" stroke-width="2" fill="none"></circle>
<circle cx="6537.3" cy="2388.18" r="4" stroke="rgb(0,187,255)" stroke-width="2" fill="none"></circle>
<circle cx="2674.84" cy="929.736" r="4" stroke="rgb(148,255,0)" stroke-width="2" fill="none"></circle>
<circle cx="5728.08" cy="1377.83" r="4" stroke="rgb(148,255,0)" stroke-width="2" fill="none"></circle>
<circle cx="1816.55" cy="1276.48" r="4" stroke="rgb(34,0,255)" stroke-width="2" fill="none"></circle>
<circle cx="6218.01" cy="1021.63" r="4" stroke="rgb(34,0,255)" stroke-width="2" fill="none"></circle>
<circle cx="1573.18" cy="1007.89" r="4" stroke="rgb(255,0,114)" stroke-width="2" fill="none"></circle>
<circle cx="6252.09" cy="1404.83" r="4" stroke="rgb(255,0,114)" stroke-width="2" fill="none"></circle>
<circle cx="1935.62" cy="1186.36" r="4" stroke="rgb(255,12,0)" stroke-width="2" fill="none"></circle>
<circle cx="6548.28" cy="2034.41" r="4" stroke="rgb(255,12,0)" stroke-width="2" fill="none"></circle>
<circle cx="1583.81" cy="1064.42" r="4" stroke="rgb(72,0,255)" stroke-width="2" fill="none"></circle>
<circle cx="6092.5" cy="1209.06" r="4" stroke="rgb(72,0,255)" stroke-width="2" fill="none"></circle>
<circle cx="1207.27" cy="1567.29" r="4" stroke="rgb(0,255,195)" stroke-width="2" fill="none"></circle>
<circle cx="6267.75" cy="1537.17" r="4" stroke="rgb(0,255,195)" stroke-width="2" fill="none"></circle>
<circle cx="2849.16" cy="899.931" r="4" stroke="rgb(246,0,255)" stroke-width="2" fill="none"></circle>
<circle cx="5628.67" cy="1303.51" r="4" stroke="rgb(246,0,255)" stroke-width="2" fill="none"></circle>
<circle cx="3148.01" cy="839.967" r="4" stroke="rgb(186,0,255)" stroke-width="2" fill="none"></circle>
<circle cx="6273.15" cy="1381.82" r="4" stroke="rgb(186,0,255)" stroke-width="2" fill="none"></circle>
<circle cx="1583.81" cy="1064.42" r="4" stroke="rgb(0,255,165)" stroke-width="2" fill="none"></circle>
<circle cx="6276.86" cy="1422.3" r="4" stroke="rgb(0,255,165)" stroke-width="2" fill="none"></circle>
<circle cx="1586.68" cy="988.117" r="4" stroke="rgb(93,255,0)" stroke-width="2" fill="none"></circle>
<circle cx="6164.3" cy="1148.84" r="4" stroke="rgb(93,255,0)" stroke-width="2" fill="none"></circle>
<circle cx="1302.03" cy="1352.26" r="4" stroke="rgb(255,0,144)" stroke-width="2" fill="none"></circle>
<circle cx="6105.56" cy="1194.69" r="4" stroke="rgb(255,0,144)" stroke-width="2" fill="none"></circle>
<circle cx="1566.21" cy="1069.79" r="4" stroke="rgb(59,0,255)" stroke-width="2" fill="none"></circle>
<circle cx="6072.48" cy="1201.79" r="4" stroke="rgb(59,0,255)" stroke-width="2" fill="none"></circle>
<circle cx="1566.21" cy="1069.79" r="4" stroke="rgb(255,0,17)" stroke-width="2" fill="none"></circle>
<circle cx="6072.48" cy="1201.79" r="4" stroke="rgb(255,0,17)" stroke-width="2" fill="none"></circle>
<circle cx="1583.81" cy="1064.42" r="4" stroke="rgb(0,42,255)" stroke-width="2" fill="none"></circle>
<circle cx="6092.12" cy="1209.19" r="4" stroke="rgb(0,42,255)" stroke-width="2" fill="none"></circle>
<circle cx="1591.48" cy="1070.55" r="4" stroke="rgb(0,255,67)" stroke-width="2" fill="none"></circle>
<circle cx="6087.48" cy="1223.07" r="4" stroke="rgb(0,255,67)" stroke-width="2" fill="none"></circle>
<circle cx="1407.15" cy="1274.94" r="4" stroke="rgb(191,0,255)" stroke-width="2" fill="none"></circle>
<circle cx="6103.83" cy="1708.2" r="4" stroke="rgb(191,0,255)" stroke-width="2" fill="none"></circle>
<circle cx="1566.21" cy="1069.79" r="4" stroke="rgb(255,0,89)" stroke-width="2" fill="none"></circle>
<circle cx="6286.52" cy="1486.79" r="4" stroke="rgb(255,0,89)" stroke-width="2" fill="none"></circle>
<circle cx="1407.15" cy="1274.94" r="4" stroke="rgb(0,178,255)" stroke-width="2" fill="none"></circle>
<circle cx="5919.52" cy="1538.94" r="4" stroke="rgb(0,178,255)" stroke-width="2" fill="none"></circle>
<circle cx="1407.15" cy="1274.94" r="4" stroke="rgb(233,255,0)" stroke-width="2" fill="none"></circle>
<circle cx="5919.52" cy="1538.94" r="4" stroke="rgb(233,255,0)" stroke-width="2" fill="none"></circle>
<circle cx="1567.27" cy="1476.15" r="4" stroke="rgb(255,0,136)" stroke-width="2" fill="none"></circle>
<circle cx="6482.9" cy="2448.39" r="4" stroke="rgb(255,0,136)" stroke-width="2" fill="none"></circle>
<circle cx="1816.55" cy="1276.48" r="4" stroke="rgb(4,0,255)" stroke-width="2" fill="none"></circle>
<circle cx="5684.14" cy="542.597" r="4" stroke="rgb(4,0,255)" stroke-width="2" fill="none"></circle>
<circle cx="1699.2" cy="1180.72" r="4" stroke="rgb(255,208,0)" stroke-width="2" fill="none"></circle>
<circle cx="6612.27" cy="1970.74" r="4" stroke="rgb(255,208,0)" stroke-width="2" fill="none"></circle>
<circle cx="1935.62" cy="1186.36" r="4" stroke="rgb(255,182,0)" stroke-width="2" fill="none"></circle>
<circle cx="6318.42" cy="2059.61" r="4" stroke="rgb(255,182,0)" stroke-width="2" fill="none"></circle>
<circle cx="1935.62" cy="1186.36" r="4" stroke="rgb(255,0,85)" stroke-width="2" fill="none"></circle>
<circle cx="6332.37" cy="2079.47" r="4" stroke="rgb(255,0,85)" stroke-width="2" fill="none"></circle>
<circle cx="1935.62" cy="1186.36" r="4" stroke="rgb(0,255,233)" stroke-width="2" fill="none"></circle>
<circle cx="6303.03" cy="2085.96" r="4" stroke="rgb(0,255,233)" stroke-width="2" fill="none"></circle>
<circle cx="3144.38" cy="1557.72" r="4" stroke="rgb(169,255,0)" stroke-width="2" fill="none"></circle>
<circle cx="6602.3" cy="1294.98" r="4" stroke="rgb(169,255,0)" stroke-width="2" fill="none"></circle>
<circle cx="1566.21" cy="1069.79" r="4" stroke="rgb(38,0,255)" stroke-width="2" fill="none"></circle>
<circle cx="6287.45" cy="1486.49" r="4" stroke="rgb(38,0,255)" stroke-width="2" fill="none"></circle>
<circle cx="1566.21" cy="1069.79" r="4" stroke="rgb(255,148,0)" stroke-width="2" fill="none"></circle>
<circle cx="6287.45" cy="1486.49" r="4" stroke="rgb(255,148,0)" stroke-width="2" fill="none"></circle>
<circle cx="1407.15" cy="1274.94" r="4" stroke="rgb(255,255,0)" stroke-width="2" fill="none"></circle>
<circle cx="5920.88" cy="1538.82" r="4" stroke="rgb(255,255,0)" stroke-width="2" fill="none"></circle>
<circle cx="1407.15" cy="1274.94" r="4" stroke="rgb(0,255,97)" stroke-width="2" fill="none"></circle>
<circle cx="5920.88" cy="1538.82" r="4" stroke="rgb(0,255,97)" stroke-width="2" fill="none"></circle>
<circle cx="1390.17" cy="1228.16" r="4" stroke="rgb(0,38,255)" stroke-width="2" fill="none"></circle>
<circle cx="5904.14" cy="1611.96" r="4" stroke="rgb(0,38,255)" stroke-width="2" fill="none"></circle>
<circle cx="1407.15" cy="1274.94" r="4" stroke="rgb(255,76,0)" stroke-width="2" fill="none"></circle>
<circle cx="6104.54" cy="1706.35" r="4" stroke="rgb(255,76,0)" stroke-width="2" fill="none"></circle>
<circle cx="1266.4" cy="1245.59" r="4" stroke="rgb(255,131,0)" stroke-width="2" fill="none"></circle>
<circle cx="5994.55" cy="1664.32" r="4" stroke="rgb(255,131,0)" stroke-width="2" fill="none"></circle>
<circle cx="1407.15" cy="1274.94" r="4" stroke="rgb(187,255,0)" stroke-width="2" fill="none"></circle>
<circle cx="6146.16" cy="1775.88" r="4" stroke="rgb(187,255,0)" stroke-width="2" fill="none"></circle>
<circle cx="1935.62" cy="1186.36" r="4" stroke="rgb(255,89,0)" stroke-width="2" fill="none"></circle>
<circle cx="6260.95" cy="2070.24" r="4" stroke="rgb(255,89,0)" stroke-width="2" fill="none"></circle>
<circle cx="1868.55" cy="1819.1" r="4" stroke="rgb(0,255,169)" stroke-width="2" fill="none"></circle>
<circle cx="5978.46" cy="1990.99" r="4" stroke="rgb(0,255,169)" stroke-width="2" fill="none"></circle>
<circle cx="1752.97" cy="1013.34" r="4" stroke="rgb(21,255,0)" stroke-width="2" fill="none"></circle>
<circle cx="6458.3" cy="1069.99" r="4" stroke="rgb(21,255,0)" stroke-width="2" fill="none"></circle>
</svg>