<?xml version="1.0" standalone="yes"?>
<!-- SVG graphic -->
<svg xmlns='http://www.w3.org/2000/svg' xmlns:xlink='http://www.w3.org/1999/xlink'
width="8064px" height="3024px" preserveAspectRatio="xMinYMin meet" viewBox="0 0 8064 3024" version="1.1">
<image x="0" y="0" width="4032px" height="3024px" opacity="1" xlink:href="/home/jeong/Code/2D-to-3D-Modeling-using-AI/Make3D/Image/20200227_180650.jpg"/>
<image x="4032" y="0" width="4032px" height="3024px" opacity="1" xlink:href="/home/jeong/Code/2D-to-3D-Modeling-using-AI/Make3D/Image/20200227_180756.jpg"/>
<polyline points="1797.53,1306.57,5117.29,1509.41" stroke="rgb(255,80,0)" stroke-width="2" fill="none"></polyline>
<polyline points="2662.45,920.166,5164.38,384.57" stroke="rgb(255,72,0)" stroke-width="2" fill="none"></polyline>
<polyline points="1726.62,850.835,5095.88,2268.58" stroke="rgb(255,0,178)" stroke-width="2" fill="none"></polyline>
<polyline points="2729.52,1415.46,5073.96,465.402" stroke="rgb(255,0,140)" stroke-width="2" fill="none"></polyline>
<polyline points="2506.74,1687.54,5181.15,2301.32" stroke="rgb(0,174,255)" stroke-width="2" fill="none"></polyline>
<polyline points="1959.32,1783.73,5285.3,507.461" stroke="rgb(0,255,93)" stroke-width="2" fill="none"></polyline>
<polyline points="2729.52,1415.46,5336.22,506.788" stroke="rgb(255,0,212)" stroke-width="2" fill="none"></polyline>
<polyline points="3511.82,1096.67,5280.23,2314.84" stroke="rgb(0,229,255)" stroke-width="2" fill="none"></polyline>
<polyline points="1542.7,1183.33,6209.2,519.813" stroke="rgb(255,0,114)" stroke-width="2" fill="none"></polyline>
<polyline points="2011.29,1601.43,4652.8,1055.96" stroke="rgb(0,255,59)" stroke-width="2" fill="none"></polyline>
<polyline points="1968.51,1790.11,5293.77,518.774" stroke="rgb(0,255,178)" stroke-width="2" fill="none"></polyline>
<polyline points="1573.18,1007.89,4740.6,1096.76" stroke="rgb(0,255,212)" stroke-width="2" fill="none"></polyline>
<polyline points="1726.62,850.835,5137.9,2395.3" stroke="rgb(255,131,0)" stroke-width="2" fill="none"></polyline>
<polyline points="1726.62,850.835,5137.16,2404.99" stroke="rgb(165,0,255)" stroke-width="2" fill="none"></polyline>
<polyline points="2445.66,1420.6,5257.79,586.258" stroke="rgb(0,63,255)" stroke-width="2" fill="none"></polyline>
<polyline points="2099.32,1838.38,5186.68,619.023" stroke="rgb(255,93,0)" stroke-width="2" fill="none"></polyline>
<polyline points="1369.39,1261.99,5062.32,2365.01" stroke="rgb(199,255,0)" stroke-width="2" fill="none"></polyline>
<polyline points="1713.6,1417.95,4145.01,679.131" stroke="rgb(93,0,255)" stroke-width="2" fill="none"></polyline>
<polyline points="1702.52,1759.2,5425.83,690.983" stroke="rgb(195,255,0)" stroke-width="2" fill="none"></polyline>
<polyline points="2674.34,749.787,5447.32,2584.81" stroke="rgb(255,0,169)" stroke-width="2" fill="none"></polyline>
<polyline points="1796.69,940.927,5176.85,704.768" stroke="rgb(255,76,0)" stroke-width="2" fill="none"></polyline>
<polyline points="2767.33,907.071,6472.38,2586.88" stroke="rgb(0,255,67)" stroke-width="2" fill="none"></polyline>
<polyline points="2618.22,1842.97,5574.91,1415.17" stroke="rgb(135,0,255)" stroke-width="2" fill="none"></polyline>
<polyline points="1726.62,850.835,4893.52,731.721" stroke="rgb(255,34,0)" stroke-width="2" fill="none"></polyline>
<polyline points="2674.34,749.787,5646.63,2618.92" stroke="rgb(255,0,12)" stroke-width="2" fill="none"></polyline>
<polyline points="2674.34,749.787,5646.63,2618.92" stroke="rgb(255,34,0)" stroke-width="2" fill="none"></polyline>
<polyline points="2674.34,749.787,5662.3,2626.25" stroke="rgb(0,255,165)" stroke-width="2" fill="none"></polyline>
<polyline points="2674.34,749.787,5677.16,2633.2" stroke="rgb(255,131,0)" stroke-width="2" fill="none"></polyline>
<polyline points="1583.81,1064.42,4716.7,778.741" stroke="rgb(255,51,0)" stroke-width="2" fill="none"></polyline>
<polyline points="1596.77,1315.84,4704.96,1785.78" stroke="rgb(0,182,255)" stroke-width="2" fill="none"></polyline>
<polyline points="3135.92,1346.84,4911.92,2550.03" stroke="rgb(0,255,174)" stroke-width="2" fill="none"></polyline>
<polyline points="3152.56,1352.38,4846.03,2551.43" stroke="rgb(97,0,255)" stroke-width="2" fill="none"></polyline>
<polyline points="1567.56,1005.79,4998.56,1814.57" stroke="rgb(144,255,0)" stroke-width="2" fill="none"></polyline>
<polyline points="1726.62,850.835,5159.89,1822.92" stroke="rgb(255,0,38)" stroke-width="2" fill="none"></polyline>
<polyline points="1935.62,1186.36,4968.82,1502.74" stroke="rgb(0,38,255)" stroke-width="2" fill="none"></polyline>
<polyline points="3348.04,1585.14,4274.64,846.197" stroke="rgb(191,0,255)" stroke-width="2" fill="none"></polyline>
<polyline points="2161.82,1585.87,4678.7,1854.01" stroke="rgb(0,255,59)" stroke-width="2" fill="none"></polyline>
<polyline points="2510.48,675.423,5140.15,412.498" stroke="rgb(255,225,0)" stroke-width="2" fill="none"></polyline>
<polyline points="1757.41,1006.63,4854.67,865.691" stroke="rgb(38,255,0)" stroke-width="2" fill="none"></polyline>
<polyline points="2674.34,749.787,5692.92,2638.35" stroke="rgb(255,0,89)" stroke-width="2" fill="none"></polyline>
<polyline points="1637.69,1268.15,4398.83,910.823" stroke="rgb(255,255,0)" stroke-width="2" fill="none"></polyline>
<polyline points="1937.93,1703.14,5744.1,2763.18" stroke="rgb(0,255,106)" stroke-width="2" fill="none"></polyline>
<polyline points="3043.42,890.461,5765.93,1571.25" stroke="rgb(255,89,0)" stroke-width="2" fill="none"></polyline>
<polyline points="2115.91,1442.71,5391.81,1937.41" stroke="rgb(255,0,157)" stroke-width="2" fill="none"></polyline>
<polyline points="2298.09,628.126,6304.56,545.378" stroke="rgb(237,255,0)" stroke-width="2" fill="none"></polyline>
<polyline points="1573.18,1007.89,4812.73,1094.98" stroke="rgb(25,0,255)" stroke-width="2" fill="none"></polyline>
<polyline points="1797.53,1306.57,5105.05,1452.59" stroke="rgb(255,0,63)" stroke-width="2" fill="none"></polyline>
<polyline points="3152.56,1352.38,4588.81,630.843" stroke="rgb(255,42,0)" stroke-width="2" fill="none"></polyline>
<polyline points="2600.23,1372.89,4926.73,1505.05" stroke="rgb(255,85,0)" stroke-width="2" fill="none"></polyline>
<polyline points="3109.52,860.702,5000.98,1836.56" stroke="rgb(216,0,255)" stroke-width="2" fill="none"></polyline>
<polyline points="2674.34,749.787,5412.43,2558.86" stroke="rgb(255,0,127)" stroke-width="2" fill="none"></polyline>
<polyline points="1874.06,921.16,6649.36,2063.9" stroke="rgb(255,165,0)" stroke-width="2" fill="none"></polyline>
<polyline points="1595.53,963.575,4867.58,859.578" stroke="rgb(221,255,0)" stroke-width="2" fill="none"></polyline>
<polyline points="1596.77,1315.84,4355.88,888.818" stroke="rgb(25,255,0)" stroke-width="2" fill="none"></polyline>
<polyline points="2674.34,749.787,5615.78,2599.74" stroke="rgb(165,0,255)" stroke-width="2" fill="none"></polyline>
<polyline points="2674.34,749.787,5497.42,2618.36" stroke="rgb(242,0,255)" stroke-width="2" fill="none"></polyline>
<polyline points="2675.85,792.55,5564.87,2651.23" stroke="rgb(255,0,25)" stroke-width="2" fill="none"></polyline>
<polyline points="1737.12,1087,4688.36,2937.7" stroke="rgb(178,255,0)" stroke-width="2" fill="none"></polyline>
<polyline points="1831.76,1238.85,5101.69,360.794" stroke="rgb(0,165,255)" stroke-width="2" fill="none"></polyline>
<polyline points="1197.72,1606.11,4892.59,2558.96" stroke="rgb(255,25,0)" stroke-width="2" fill="none"></polyline>
<polyline points="1702.52,1759.2,5647.88,578.674" stroke="rgb(153,0,255)" stroke-width="2" fill="none"></polyline>
<polyline points="1596.77,1315.84,6512.41,1110.92" stroke="rgb(0,25,255)" stroke-width="2" fill="none"></polyline>
<polyline points="2329.89,645.197,6385.38,609.271" stroke="rgb(123,0,255)" stroke-width="2" fill="none"></polyline>
<polyline points="2329.89,645.197,6405.89,619.991" stroke="rgb(0,25,255)" stroke-width="2" fill="none"></polyline>
<polyline points="2329.89,645.197,6427.7,629.05" stroke="rgb(0,59,255)" stroke-width="2" fill="none"></polyline>
<polyline points="3152.56,1352.38,4588.65,630.648" stroke="rgb(255,51,0)" stroke-width="2" fill="none"></polyline>
<polyline points="2329.89,645.197,6491.4,662.182" stroke="rgb(0,255,169)" stroke-width="2" fill="none"></polyline>
<polyline points="1566.21,1069.79,4798.21,694.391" stroke="rgb(255,0,0)" stroke-width="2" fill="none"></polyline>
<polyline points="1816.55,1276.48,4877.53,707.294" stroke="rgb(246,0,255)" stroke-width="2" fill="none"></polyline>
<polyline points="1618.67,1389.37,6203.71,773.619" stroke="rgb(0,255,97)" stroke-width="2" fill="none"></polyline>
<polyline points="1441.71,1089.45,4724.32,811.125" stroke="rgb(255,0,89)" stroke-width="2" fill="none"></polyline>
<polyline points="1438.82,1098.89,4717.87,826.423" stroke="rgb(0,42,255)" stroke-width="2" fill="none"></polyline>
<polyline points="3152.56,1352.38,4847.75,2553.43" stroke="rgb(208,0,255)" stroke-width="2" fill="none"></polyline>
<polyline points="2480.18,674.202,6483.04,2553.7" stroke="rgb(0,33,255)" stroke-width="2" fill="none"></polyline>
<polyline points="3091.59,740.365,6684.74,2180.34" stroke="rgb(0,199,255)" stroke-width="2" fill="none"></polyline>
<polyline points="2702.57,875.557,6458.26,2564.92" stroke="rgb(0,63,255)" stroke-width="2" fill="none"></polyline>
<polyline points="1618.67,1389.37,6204.21,771.998" stroke="rgb(8,255,0)" stroke-width="2" fill="none"></polyline>
<polyline points="2163.42,1552.25,6543.88,1418.21" stroke="rgb(255,212,0)" stroke-width="2" fill="none"></polyline>
<polyline points="2956.4,1402.25,4518.08,831.088" stroke="rgb(0,21,255)" stroke-width="2" fill="none"></polyline>
<polyline points="1567.27,1476.15,5309.24,2841.11" stroke="rgb(255,46,0)" stroke-width="2" fill="none"></polyline>
<polyline points="2033.25,727.753,5157.6,1927.78" stroke="rgb(0,114,255)" stroke-width="2" fill="none"></polyline>
<polyline points="1393.92,1078.08,6548.13,2224.77" stroke="rgb(182,255,0)" stroke-width="2" fill="none"></polyline>
<polyline points="3260.14,1248.62,5592.72,1793.43" stroke="rgb(255,212,0)" stroke-width="2" fill="none"></polyline>
<polyline points="2099.5,1370.44,5467.28,2646.62" stroke="rgb(0,255,140)" stroke-width="2" fill="none"></polyline>
<circle cx="1797.53" cy="1306.57" r="4" stroke="rgb(255,80,0)" stroke-width="2" fill="none"></circle>
<circle cx="5117.29" cy="1509.41" r="4" stroke="rgb(255,80,0)" stroke-width="2" fill="none"></circle>
<circle cx="2662.45" cy="920.166" r="4" stroke="rgb(255,72,0)" stroke-width="2" fill="none"></circle>
<circle cx="5164.38" cy="384.57" r="4" stroke="rgb(255,72,0)" stroke-width="2" fill="none"></circle>
<circle cx="1726.62" cy="850.835" r="4" stroke="rgb(255,0,178)" stroke-width="2" fill="none"></circle>
<circle cx="5095.88" cy="2268.58" r="4" stroke="rgb(255,0,178)" stroke-width="2" fill="none"></circle>
<circle cx="2729.52" cy="1415.46" r="4" stroke="rgb(255,0,140)" stroke-width="2" fill="none"></circle>
<circle cx="5073.96" cy="465.402" r="4" stroke="rgb(255,0,140)" stroke-width="2" fill="none"></circle>
<circle cx="2506.74" cy="1687.54" r="4" stroke="rgb(0,174,255)" stroke-width="2" fill="none"></circle>
<circle cx="5181.15" cy="2301.32" r="4" stroke="rgb(0,174,255)" stroke-width="2" fill="none"></circle>
<circle cx="1959.32" cy="1783.73" r="4" stroke="rgb(0,255,93)" stroke-width="2" fill="none"></circle>
<circle cx="5285.3" cy="507.461" r="4" stroke="rgb(0,255,93)" stroke-width="2" fill="none"></circle>
<circle cx="2729.52" cy="1415.46" r="4" stroke="rgb(255,0,212)" stroke-width="2" fill="none"></circle>
<circle cx="5336.22" cy="506.788" r="4" stroke="rgb(255,0,212)" stroke-width="2" fill="none"></circle>
<circle cx="3511.82" cy="1096.67" r="4" stroke="rgb(0,229,255)" stroke-width="2" fill="none"></circle>
<circle cx="5280.23" cy="2314.84" r="4" stroke="rgb(0,229,255)" stroke-width="2" fill="none"></circle>
<circle cx="1542.7" cy="1183.33" r="4" stroke="rgb(255,0,114)" stroke-width="2" fill="none"></circle>
<circle cx="6209.2" cy="519.813" r="4" stroke="rgb(255,0,114)" stroke-width="2" fill="none"></circle>
<circle cx="2011.29" cy="1601.43" r="4" stroke="rgb(0,255,59)" stroke-width="2" fill="none"></circle>
<circle cx="4652.8" cy="1055.96" r="4" stroke="rgb(0,255,59)" stroke-width="2" fill="none"></circle>
<circle cx="1968.51" cy="1790.11" r="4" stroke="rgb(0,255,178)" stroke-width="2" fill="none"></circle>
<circle cx="5293.77" cy="518.774" r="4" stroke="rgb(0,255,178)" stroke-width="2" fill="none"></circle>
<circle cx="1573.18" cy="1007.89" r="4" stroke="rgb(0,255,212)" stroke-width="2" fill="none"></circle>
<circle cx="4740.6" cy="1096.76" r="4" stroke="rgb(0,255,212)" stroke-width="2" fill="none"></circle>
<circle cx="1726.62" cy="850.835" r="4" stroke="rgb(255,131,0)" stroke-width="2" fill="none"></circle>
<circle cx="5137.9" cy="2395.3" r="4" stroke="rgb(255,131,0)" stroke-width="2" fill="none"></circle>
<circle cx="1726.62" cy="850.835" r="4" stroke="rgb(165,0,255)" stroke-width="2" fill="none"></circle>
<circle cx="5137.16" cy="2404.99" r="4" stroke="rgb(165,0,255)" stroke-width="2" fill="none"></circle>
<circle cx="2445.66" cy="1420.6" r="4" stroke="rgb(0,63,255)" stroke-width="2" fill="none"></circle>
<circle cx="5257.79" cy="586.258" r="4" stroke="rgb(0,63,255)" stroke-width="2" fill="none"></circle>
<circle cx="2099.32" cy="1838.38" r="4" stroke="rgb(255,93,0)" stroke-width="2" fill="none"></circle>
<circle cx="5186.68" cy="619.023" r="4" stroke="rgb(255,93,0)" stroke-width="2" fill="none"></circle>
<circle cx="1369.39" cy="1261.99" r="4" stroke="rgb(199,255,0)" stroke-width="2" fill="none"></circle>
<circle cx="5062.32" cy="2365.01" r="4" stroke="rgb(199,255,0)" stroke-width="2" fill="none"></circle>
<circle cx="1713.6" cy="1417.95" r="4" stroke="rgb(93,0,255)" stroke-width="2" fill="none"></circle>
<circle cx="4145.01" cy="679.131" r="4" stroke="rgb(93,0,255)" stroke-width="2" fill="none"></circle>
<circle cx="1702.52" cy="1759.2" r="4" stroke="rgb(195,255,0)" stroke-width="2" fill="none"></circle>
<circle cx="5425.83" cy="690.983" r="4" stroke="rgb(195,255,0)" stroke-width="2" fill="none"></circle>
<circle cx="2674.34" cy="749.787" r="4" stroke="rgb(255,0,169)" stroke-width="2" fill="none"></circle>
<circle cx="5447.32" cy="2584.81" r="4" stroke="rgb(255,0,169)" stroke-width="2" fill="none"></circle>
<circle cx="1796.69" cy="940.927" r="4" stroke="rgb(255,76,0)" stroke-width="2" fill="none"></circle>
<circle cx="5176.85" cy="704.768" r="4" stroke="rgb(255,76,0)" stroke-width="2" fill="none"></circle>
<circle cx="2767.33" cy="907.071" r="4" stroke="rgb(0,255,67)" stroke-width="2" fill="none"></circle>
<circle cx="6472.38" cy="2586.88" r="4" stroke="rgb(0,255,67)" stroke-width="2" fill="none"></circle>
<circle cx="2618.22" cy="1842.97" r="4" stroke="rgb(135,0,255)" stroke-width="2" fill="none"></circle>
<circle cx="5574.91" cy="1415.17" r="4" stroke="rgb(135,0,255)" stroke-width="2" fill="none"></circle>
<circle cx="1726.62" cy="850.835" r="4" stroke="rgb(255,34,0)" stroke-width="2" fill="none"></circle>
<circle cx="4893.52" cy="731.721" r="4" stroke="rgb(255,34,0)" stroke-width="2" fill="none"></circle>
<circle cx="2674.34" cy="749.787" r="4" stroke="rgb(255,0,12)" stroke-width="2" fill="none"></circle>
<circle cx="5646.63" cy="2618.92" r="4" stroke="rgb(255,0,12)" stroke-width="2" fill="none"></circle>
<circle cx="2674.34" cy="749.787" r="4" stroke="rgb(255,34,0)" stroke-width="2" fill="none"></circle>
<circle cx="5646.63" cy="2618.92" r="4" stroke="rgb(255,34,0)" stroke-width="2" fill="none"></circle>
<circle cx="2674.34" cy="749.787" r="4" stroke="rgb(0,255,165)" stroke-width="2" fill="none"></circle>
<circle cx="5662.3" cy="2626.25" r="4" stroke="rgb(0,255,165)" stroke-width="2" fill="none"></circle>
<circle cx="2674.34" cy="749.787" r="4" stroke="rgb(255,131,0)" stroke-width="2" fill="none"></circle>
<circle cx="5677.16" cy="2633.2" r="4" stroke="rgb(255,131,0)" stroke-width="2" fill="none"></circle>
<circle cx="1583.81" cy="1064.42" r="4" stroke="rgb(255,51,0)" stroke-width="2" fill="none"></circle>
<circle cx="4716.7" cy="778.741" r="4" stroke="rgb(255,51,0)" stroke-width="2" fill="none"></circle>
<circle cx="1596.77" cy="1315.84" r="4" stroke="rgb(0,182,255)" stroke-width="2" fill="none"></circle>
<circle cx="4704.96" cy="1785.78" r="4" stroke="rgb(0,182,255)" stroke-width="2" fill="none"></circle>
<circle cx="3135.92" cy="1346.84" r="4" stroke="rgb(0,255,174)" stroke-width="2" fill="none"></circle>
<circle cx="4911.92" cy="2550.03" r="4" stroke="rgb(0,255,174)" stroke-width="2" fill="none"></circle>
<circle cx="3152.56" cy="1352.38" r="4" stroke="rgb(97,0,255)" stroke-width="2" fill="none"></circle>
<circle cx="4846.03" cy="2551.43" r="4" stroke="rgb(97,0,255)" stroke-width="2" fill="none"></circle>
<circle cx="1567.56" cy="1005.79" r="4" stroke="rgb(144,255,0)" stroke-width="2" fill="none"></circle>
<circle cx="4998.56" cy="1814.57" r="4" stroke="rgb(144,255,0)" stroke-width="2" fill="none"></circle>
<circle cx="1726.62" cy="850.835" r="4" stroke="rgb(255,0,38)" stroke-width="2" fill="none"></circle>
<circle cx="5159.89" cy="1822.92" r="4" stroke="rgb(255,0,38)" stroke-width="2" fill="none"></circle>
<circle cx="1935.62" cy="1186.36" r="4" stroke="rgb(0,38,255)" stroke-width="2" fill="none"></circle>
<circle cx="4968.82" cy="1502.74" r="4" stroke="rgb(0,38,255)" stroke-width="2" fill="none"></circle>
<circle cx="3348.04" cy="1585.14" r="4" stroke="rgb(191,0,255)" stroke-width="2" fill="none"></circle>
<circle cx="4274.64" cy="846.197" r="4" stroke="rgb(191,0,255)" stroke-width="2" fill="none"></circle>
<circle cx="2161.82" cy="1585.87" r="4" stroke="rgb(0,255,59)" stroke-width="2" fill="none"></circle>
<circle cx="4678.7" cy="1854.01" r="4" stroke="rgb(0,255,59)" stroke-width="2" fill="none"></circle>
<circle cx="2510.48" cy="675.423" r="4" stroke="rgb(255,225,0)" stroke-width="2" fill="none"></circle>
<circle cx="5140.15" cy="412.498" r="4" stroke="rgb(255,225,0)" stroke-width="2" fill="none"></circle>
<circle cx="1757.41" cy="1006.63" r="4" stroke="rgb(38,255,0)" stroke-width="2" fill="none"></circle>
<circle cx="4854.67" cy="865.691" r="4" stroke="rgb(38,255,0)" stroke-width="2" fill="none"></circle>
<circle cx="2674.34" cy="749.787" r="4" stroke="rgb(255,0,89)" stroke-width="2" fill="none"></circle>
<circle cx="5692.92" cy="2638.35" r="4" stroke="rgb(255,0,89)" stroke-width="2" fill="none"></circle>
<circle cx="1637.69" cy="1268.15" r="4" stroke="rgb(255,255,0)" stroke-width="2" fill="none"></circle>
<circle cx="4398.83" cy="910.823" r="4" stroke="rgb(255,255,0)" stroke-width="2" fill="none"></circle>
<circle cx="1937.93" cy="1703.14" r="4" stroke="rgb(0,255,106)" stroke-width="2" fill="none"></circle>
<circle cx="5744.1" cy="2763.18" r="4" stroke="rgb(0,255,106)" stroke-width="2" fill="none"></circle>
<circle cx="3043.42" cy="890.461" r="4" stroke="rgb(255,89,0)" stroke-width="2" fill="none"></circle>
<circle cx="5765.93" cy="1571.25" r="4" stroke="rgb(255,89,0)" stroke-width="2" fill="none"></circle>
<circle cx="2115.91" cy="1442.71" r="4" stroke="rgb(255,0,157)" stroke-width="2" fill="none"></circle>
<circle cx="5391.81" cy="1937.41" r="4" stroke="rgb(255,0,157)" stroke-width="2" fill="none"></circle>
<circle cx="2298.09" cy="628.126" r="4" stroke="rgb(237,255,0)" stroke-width="2" fill="none"></circle>
<circle cx="6304.56" cy="545.378" r="4" stroke="rgb(237,255,0)" stroke-width="2" fill="none"></circle>
<circle cx="1573.18" cy="1007.89" r="4" stroke="rgb(25,0,255)" stroke-width="2" fill="none"></circle>
<circle cx="4812.73" cy="1094.98" r="4" stroke="rgb(25,0,255)" stroke-width="2" fill="none"></circle>
<circle cx="1797.53" cy="1306.57" r="4" stroke="rgb(255,0,63)" stroke-width="2" fill="none"></circle>
<circle cx="5105.05" cy="1452.59" r="4" stroke="rgb(255,0,63)" stroke-width="2" fill="none"></circle>
<circle cx="3152.56" cy="1352.38" r="4" stroke="rgb(255,42,0)" stroke-width="2" fill="none"></circle>
<circle cx="4588.81" cy="630.843" r="4" stroke="rgb(255,42,0)" stroke-width="2" fill="none"></circle>
<circle cx="2600.23" cy="1372.89" r="4" stroke="rgb(255,85,0)" stroke-width="2" fill="none"></circle>
<circle cx="4926.73" cy="1505.05" r="4" stroke="rgb(255,85,0)" stroke-width="2" fill="none"></circle>
<circle cx="3109.52" cy="860.702" r="4" stroke="rgb(216,0,255)" stroke-width="2" fill="none"></circle>
<circle cx="5000.98" cy="1836.56" r="4" stroke="rgb(216,0,255)" stroke-width="2" fill="none"></circle>
<circle cx="2674.34" cy="749.787" r="4" stroke="rgb(255,0,127)" stroke-width="2" fill="none"></circle>
<circle cx="5412.43" cy="2558.86" r="4" stroke="rgb(255,0,127)" stroke-width="2" fill="none"></circle>
<circle cx="1874.06" cy="921.16" r="4" stroke="rgb(255,165,0)" stroke-width="2" fill="none"></circle>
<circle cx="6649.36" cy="2063.9" r="4" stroke="rgb(255,165,0)" stroke-width="2" fill="none"></circle>
<circle cx="1595.53" cy="963.575" r="4" stroke="rgb(221,255,0)" stroke-width="2" fill="none"></circle>
<circle cx="4867.58" cy="859.578" r="4" stroke="rgb(221,255,0)" stroke-width="2" fill="none"></circle>
<circle cx="1596.77" cy="1315.84" r="4" stroke="rgb(25,255,0)" stroke-width="2" fill="none"></circle>
<circle cx="4355.88" cy="888.818" r="4" stroke="rgb(25,255,0)" stroke-width="2" fill="none"></circle>
<circle cx="2674.34" cy="749.787" r="4" stroke="rgb(165,0,255)" stroke-width="2" fill="none"></circle>
<circle cx="5615.78" cy="2599.74" r="4" stroke="rgb(165,0,255)" stroke-width="2" fill="none"></circle>
<circle cx="2674.34" cy="749.787" r="4" stroke="rgb(242,0,255)" stroke-width="2" fill="none"></circle>
<circle cx="5497.42" cy="2618.36" r="4" stroke="rgb(242,0,255)" stroke-width="2" fill="none"></circle>
<circle cx="2675.85" cy="792.55" r="4" stroke="rgb(255,0,25)" stroke-width="2" fill="none"></circle>
<circle cx="5564.87" cy="2651.23" r="4" stroke="rgb(255,0,25)" stroke-width="2" fill="none"></circle>
<circle cx="1737.12" cy="1087" r="4" stroke="rgb(178,255,0)" stroke-width="2" fill="none"></circle>
<circle cx="4688.36" cy="2937.7" r="4" stroke="rgb(178,255,0)" stroke-width="2" fill="none"></circle>
<circle cx="1831.76" cy="1238.85" r="4" stroke="rgb(0,165,255)" stroke-width="2" fill="none"></circle>
<circle cx="5101.69" cy="360.794" r="4" stroke="rgb(0,165,255)" stroke-width="2" fill="none"></circle>
<circle cx="1197.72" cy="1606.11" r="4" stroke="rgb(255,25,0)" stroke-width="2" fill="none"></circle>
<circle cx="4892.59" cy="2558.96" r="4" stroke="rgb(255,25,0)" stroke-width="2" fill="none"></circle>
<circle cx="1702.52" cy="1759.2" r="4" stroke="rgb(153,0,255)" stroke-width="2" fill="none"></circle>
<circle cx="5647.88" cy="578.674" r="4" stroke="rgb(153,0,255)" stroke-width="2" fill="none"></circle>
<circle cx="1596.77" cy="1315.84" r="4" stroke="rgb(0,25,255)" stroke-width="2" fill="none"></circle>
<circle cx="6512.41" cy="1110.92" r="4" stroke="rgb(0,25,255)" stroke-width="2" fill="none"></circle>
<circle cx="2329.89" cy="645.197" r="4" stroke="rgb(123,0,255)" stroke-width="2" fill="none"></circle>
<circle cx="6385.38" cy="609.271" r="4" stroke="rgb(123,0,255)" stroke-width="2" fill="none"></circle>
<circle cx="2329.89" cy="645.197" r="4" stroke="rgb(0,25,255)" stroke-width="2" fill="none"></circle>
<circle cx="6405.89" cy="619.991" r="4" stroke="rgb(0,25,255)" stroke-width="2" fill="none"></circle>
<circle cx="2329.89" cy="645.197" r="4" stroke="rgb(0,59,255)" stroke-width="2" fill="none"></circle>
<circle cx="6427.7" cy="629.05" r="4" stroke="rgb(0,59,255)" stroke-width="2" fill="none"></circle>
<circle cx="3152.56" cy="1352.38" r="4" stroke="rgb(255,51,0)" stroke-width="2" fill="none"></circle>
<circle cx="4588.65" cy="630.648" r="4" stroke="rgb(255,51,0)" stroke-width="2" fill="none"></circle>
<circle cx="2329.89" cy="645.197" r="4" stroke="rgb(0,255,169)" stroke-width="2" fill="none"></circle>
<circle cx="6491.4" cy="662.182" r="4" stroke="rgb(0,255,169)" stroke-width="2" fill="none"></circle>
<circle cx="1566.21" cy="1069.79" r="4" stroke="rgb(255,0,0)" stroke-width="2" fill="none"></circle>
<circle cx="4798.21" cy="694.391" r="4" stroke="rgb(255,0,0)" stroke-width="2" fill="none"></circle>
<circle cx="1816.55" cy="1276.48" r="4" stroke="rgb(246,0,255)" stroke-width="2" fill="none"></circle>
<circle cx="4877.53" cy="707.294" r="4" stroke="rgb(246,0,255)" stroke-width="2" fill="none"></circle>
<circle cx="1618.67" cy="1389.37" r="4" stroke="rgb(0,255,97)" stroke-width="2" fill="none"></circle>
<circle cx="6203.71" cy="773.619" r="4" stroke="rgb(0,255,97)" stroke-width="2" fill="none"></circle>
<circle cx="1441.71" cy="1089.45" r="4" stroke="rgb(255,0,89)" stroke-width="2" fill="none"></circle>
<circle cx="4724.32" cy="811.125" r="4" stroke="rgb(255,0,89)" stroke-width="2" fill="none"></circle>
<circle cx="1438.82" cy="1098.89" r="4" stroke="rgb(0,42,255)" stroke-width="2" fill="none"></circle>
<circle cx="4717.87" cy="826.423" r="4" stroke="rgb(0,42,255)" stroke-width="2" fill="none"></circle>
<circle cx="3152.56" cy="1352.38" r="4" stroke="rgb(208,0,255)" stroke-width="2" fill="none"></circle>
<circle cx="4847.75" cy="2553.43" r="4" stroke="rgb(208,0,255)" stroke-width="2" fill="none"></circle>
<circle cx="2480.18" cy="674.202" r="4" stroke="rgb(0,33,255)" stroke-width="2" fill="none"></circle>
<circle cx="6483.04" cy="2553.7" r="4" stroke="rgb(0,33,255)" stroke-width="2" fill="none"></circle>
<circle cx="3091.59" cy="740.365" r="4" stroke="rgb(0,199,255)" stroke-width="2" fill="none"></circle>
<circle cx="6684.74" cy="2180.34" r="4" stroke="rgb(0,199,255)" stroke-width="2" fill="none"></circle>
<circle cx="2702.57" cy="875.557" r="4" stroke="rgb(0,63,255)" stroke-width="2" fill="none"></circle>
<circle cx="6458.26" cy="2564.92" r="4" stroke="rgb(0,63,255)" stroke-width="2" fill="none"></circle>
<circle cx="1618.67" cy="1389.37" r="4" stroke="rgb(8,255,0)" stroke-width="2" fill="none"></circle>
<circle cx="6204.21" cy="771.998" r="4" stroke="rgb(8,255,0)" stroke-width="2" fill="none"></circle>
<circle cx="2163.42" cy="1552.25" r="4" stroke="rgb(255,212,0)" stroke-width="2" fill="none"></circle>
<circle cx="6543.88" cy="1418.21" r="4" stroke="rgb(255,212,0)" stroke-width="2" fill="none"></circle>
<circle cx="2956.4" cy="1402.25" r="4" stroke="rgb(0,21,255)" stroke-width="2" fill="none"></circle>
<circle cx="4518.08" cy="831.088" r="4" stroke="rgb(0,21,255)" stroke-width="2" fill="none"></circle>
<circle cx="1567.27" cy="1476.15" r="4" stroke="rgb(255,46,0)" stroke-width="2" fill="none"></circle>
<circle cx="5309.24" cy="2841.11" r="4" stroke="rgb(255,46,0)" stroke-width="2" fill="none"></circle>
<circle cx="2033.25" cy="727.753" r="4" stroke="rgb(0,114,255)" stroke-width="2" fill="none"></circle>
<circle cx="5157.6" cy="1927.78" r="4" stroke="rgb(0,114,255)" stroke-width="2" fill="none"></circle>
<circle cx="1393.92" cy="1078.08" r="4" stroke="rgb(182,255,0)" stroke-width="2" fill="none"></circle>
<circle cx="6548.13" cy="2224.77" r="4" stroke="rgb(182,255,0)" stroke-width="2" fill="none"></circle>
<circle cx="3260.14" cy="1248.62" r="4" stroke="rgb(255,212,0)" stroke-width="2" fill="none"></circle>
<circle cx="5592.72" cy="1793.43" r="4" stroke="rgb(255,212,0)" stroke-width="2" fill="none"></circle>
<circle cx="2099.5" cy="1370.44" r="4" stroke="rgb(0,255,140)" stroke-width="2" fill="none"></circle>
<circle cx="5467.28" cy="2646.62" r="4" stroke="rgb(0,255,140)" stroke-width="2" fill="none"></circle>
</svg>