<?xml version="1.0" standalone="yes"?>
<!-- SVG graphic -->
<svg xmlns='http://www.w3.org/2000/svg' xmlns:xlink='http://www.w3.org/1999/xlink'
width="8064px" height="3024px" preserveAspectRatio="xMinYMin meet" viewBox="0 0 8064 3024" version="1.1">
<image x="0" y="0" width="4032px" height="3024px" opacity="1" xlink:href="/home/jeong/Code/2D-to-3D-Modeling-using-AI/Make3D/Image/20200227_180650.jpg"/>
<image x="4032" y="0" width="4032px" height="3024px" opacity="1" xlink:href="/home/jeong/Code/2D-to-3D-Modeling-using-AI/Make3D/Image/20200227_180752.jpg"/>
<polyline points="2423.78,1370.31,5652.83,711.187" stroke="rgb(255,0,191)" stroke-width="2" fill="none"></polyline>
<polyline points="1576.64,1577.74,5942.85,2742.42" stroke="rgb(255,0,25)" stroke-width="2" fill="none"></polyline>
<polyline points="1595.53,963.575,5117.27,796.283" stroke="rgb(255,0,165)" stroke-width="2" fill="none"></polyline>
<polyline points="1695.94,1630.46,6292.45,287.136" stroke="rgb(0,255,118)" stroke-width="2" fill="none"></polyline>
<polyline points="1905.2,770.612,5331.69,1957.86" stroke="rgb(110,255,0)" stroke-width="2" fill="none"></polyline>
<polyline points="2424.95,1383.06,5561.89,742.316" stroke="rgb(178,0,255)" stroke-width="2" fill="none"></polyline>
<polyline points="2426.88,1376.07,5567.67,741.689" stroke="rgb(135,255,0)" stroke-width="2" fill="none"></polyline>
<polyline points="1695.94,1630.46,4634.88,752.835" stroke="rgb(195,255,0)" stroke-width="2" fill="none"></polyline>
<polyline points="1726.62,850.835,5194.81,758.802" stroke="rgb(0,255,12)" stroke-width="2" fill="none"></polyline>
<polyline points="1816.55,1276.48,5141.9,788.667" stroke="rgb(255,114,0)" stroke-width="2" fill="none"></polyline>
<polyline points="1702.52,1759.2,5786.71,793.139" stroke="rgb(238,0,255)" stroke-width="2" fill="none"></polyline>
<polyline points="1596.77,1315.84,6109.21,385.56" stroke="rgb(255,246,0)" stroke-width="2" fill="none"></polyline>
<polyline points="1595.53,963.575,5054.14,892.585" stroke="rgb(255,229,0)" stroke-width="2" fill="none"></polyline>
<polyline points="1726.62,850.835,5178.4,362.592" stroke="rgb(255,0,33)" stroke-width="2" fill="none"></polyline>
<polyline points="3348.04,1585.14,6121.56,387.53" stroke="rgb(255,221,0)" stroke-width="2" fill="none"></polyline>
<polyline points="3260.14,1248.62,5859.91,815.679" stroke="rgb(0,8,255)" stroke-width="2" fill="none"></polyline>
<polyline points="1717.63,1003.63,6666.18,417.415" stroke="rgb(182,255,0)" stroke-width="2" fill="none"></polyline>
<polyline points="1596.77,1315.84,6146.9,420.332" stroke="rgb(131,0,255)" stroke-width="2" fill="none"></polyline>
<polyline points="3172.52,962.725,5618.8,470.006" stroke="rgb(255,157,0)" stroke-width="2" fill="none"></polyline>
<polyline points="1456.9,1095.9,5077.77,1023.35" stroke="rgb(255,89,0)" stroke-width="2" fill="none"></polyline>
<polyline points="2567.2,1854.52,6640.92,1491.97" stroke="rgb(0,255,246)" stroke-width="2" fill="none"></polyline>
<polyline points="3133.16,1567,6688.2,471.123" stroke="rgb(255,242,0)" stroke-width="2" fill="none"></polyline>
<polyline points="2729.91,1566.12,6910.85,479.009" stroke="rgb(46,0,255)" stroke-width="2" fill="none"></polyline>
<polyline points="1206.86,1673.2,5498.36,484.162" stroke="rgb(255,12,0)" stroke-width="2" fill="none"></polyline>
<polyline points="2707.16,1445.91,5494.71,523.748" stroke="rgb(0,255,182)" stroke-width="2" fill="none"></polyline>
<polyline points="3038.58,1716.14,5756.98,1134.92" stroke="rgb(0,255,114)" stroke-width="2" fill="none"></polyline>
<polyline points="1726.62,850.835,5184.87,469.769" stroke="rgb(93,255,0)" stroke-width="2" fill="none"></polyline>
<polyline points="2590.18,1407.13,5788.85,541.472" stroke="rgb(161,255,0)" stroke-width="2" fill="none"></polyline>
<polyline points="2783.16,1410.87,6715.58,472.107" stroke="rgb(0,51,255)" stroke-width="2" fill="none"></polyline>
<polyline points="1726.62,850.835,5417.44,2292.44" stroke="rgb(153,0,255)" stroke-width="2" fill="none"></polyline>
<polyline points="2274.84,685.574,5096.23,1605.11" stroke="rgb(187,255,0)" stroke-width="2" fill="none"></polyline>
<polyline points="1737.18,1303.07,5441.99,2537.05" stroke="rgb(255,233,0)" stroke-width="2" fill="none"></polyline>
<polyline points="2590.18,1407.13,5669.13,589.271" stroke="rgb(0,255,93)" stroke-width="2" fill="none"></polyline>
<polyline points="1352.28,1317.82,6291.18,1001" stroke="rgb(255,161,0)" stroke-width="2" fill="none"></polyline>
<polyline points="1527.15,1068.6,5392.79,2478.02" stroke="rgb(0,157,255)" stroke-width="2" fill="none"></polyline>
<polyline points="2386.84,1367.77,4964.9,1016.73" stroke="rgb(0,17,255)" stroke-width="2" fill="none"></polyline>
<polyline points="2701.86,912.524,5317.32,218.141" stroke="rgb(0,203,255)" stroke-width="2" fill="none"></polyline>
<polyline points="1483.7,1560.69,4850.56,1062.27" stroke="rgb(216,0,255)" stroke-width="2" fill="none"></polyline>
<polyline points="2732.65,1385.58,5654.02,569.088" stroke="rgb(0,246,255)" stroke-width="2" fill="none"></polyline>
<polyline points="1702.52,1759.2,4757.64,660.094" stroke="rgb(255,0,191)" stroke-width="2" fill="none"></polyline>
<polyline points="1743.06,1453.07,4430.5,661.492" stroke="rgb(0,208,255)" stroke-width="2" fill="none"></polyline>
<polyline points="2445.66,1420.6,5606.89,665.722" stroke="rgb(8,255,0)" stroke-width="2" fill="none"></polyline>
<polyline points="1816.55,1276.48,5114.55,1214.3" stroke="rgb(21,0,255)" stroke-width="2" fill="none"></polyline>
<polyline points="1816.55,1276.48,5120.45,1216.43" stroke="rgb(12,255,0)" stroke-width="2" fill="none"></polyline>
<polyline points="1957.41,1777.03,5498.05,709.544" stroke="rgb(255,0,72)" stroke-width="2" fill="none"></polyline>
<polyline points="2423.78,1370.31,5507.73,726.042" stroke="rgb(242,0,255)" stroke-width="2" fill="none"></polyline>
<polyline points="1596.77,1315.84,4640.92,793.481" stroke="rgb(0,55,255)" stroke-width="2" fill="none"></polyline>
<polyline points="1968.51,1790.11,5632.58,515.323" stroke="rgb(255,255,0)" stroke-width="2" fill="none"></polyline>
<polyline points="2496.09,1493.51,6584.42,1785.92" stroke="rgb(169,255,0)" stroke-width="2" fill="none"></polyline>
<polyline points="3545.77,1104.61,5845.26,1789.51" stroke="rgb(106,0,255)" stroke-width="2" fill="none"></polyline>
<polyline points="1968.51,1790.11,5649.52,556.529" stroke="rgb(255,0,199)" stroke-width="2" fill="none"></polyline>
<polyline points="2390.4,608.351,5643.99,1947.04" stroke="rgb(0,255,42)" stroke-width="2" fill="none"></polyline>
<polyline points="2445.66,1420.6,5607.93,666.54" stroke="rgb(0,195,255)" stroke-width="2" fill="none"></polyline>
<polyline points="1407.15,1274.94,5045.96,1851.67" stroke="rgb(0,153,255)" stroke-width="2" fill="none"></polyline>
<polyline points="1726.62,850.835,5422.1,2258.97" stroke="rgb(255,21,0)" stroke-width="2" fill="none"></polyline>
<polyline points="1726.62,850.835,5409.09,2361.44" stroke="rgb(255,0,12)" stroke-width="2" fill="none"></polyline>
<polyline points="1596.77,1315.84,5788.62,2714.37" stroke="rgb(0,72,255)" stroke-width="2" fill="none"></polyline>
<polyline points="3091.59,740.365,6719.08,967.614" stroke="rgb(255,0,106)" stroke-width="2" fill="none"></polyline>
<polyline points="1566.21,1069.79,5101.72,725.977" stroke="rgb(255,0,208)" stroke-width="2" fill="none"></polyline>
<polyline points="1438.82,1098.89,5016.88,837.872" stroke="rgb(123,255,0)" stroke-width="2" fill="none"></polyline>
<polyline points="3511.82,1096.67,5239.29,839.08" stroke="rgb(46,0,255)" stroke-width="2" fill="none"></polyline>
<polyline points="1412.87,1088.49,6203.26,1726.32" stroke="rgb(255,119,0)" stroke-width="2" fill="none"></polyline>
<polyline points="1596.77,1315.84,6944.35,1311.03" stroke="rgb(0,255,110)" stroke-width="2" fill="none"></polyline>
<polyline points="2031.34,1560.48,5704.58,316.226" stroke="rgb(255,140,0)" stroke-width="2" fill="none"></polyline>
<polyline points="1407.15,1274.94,4920.37,601.592" stroke="rgb(246,0,255)" stroke-width="2" fill="none"></polyline>
<polyline points="1707.56,1190.36,5229.21,1063.69" stroke="rgb(0,76,255)" stroke-width="2" fill="none"></polyline>
<polyline points="1441.71,1089.45,5024.89,824.1" stroke="rgb(0,255,93)" stroke-width="2" fill="none"></polyline>
<polyline points="2163.42,1552.25,6936.8,1664.08" stroke="rgb(255,8,0)" stroke-width="2" fill="none"></polyline>
<polyline points="2701.86,912.524,5685.62,370.492" stroke="rgb(0,255,140)" stroke-width="2" fill="none"></polyline>
<polyline points="1591.77,1319.38,6964.84,1311.54" stroke="rgb(255,0,153)" stroke-width="2" fill="none"></polyline>
<polyline points="3359.57,1078.63,5846.19,795.101" stroke="rgb(0,216,255)" stroke-width="2" fill="none"></polyline>
<circle cx="2423.78" cy="1370.31" r="4" stroke="rgb(255,0,191)" stroke-width="2" fill="none"></circle>
<circle cx="5652.83" cy="711.187" r="4" stroke="rgb(255,0,191)" stroke-width="2" fill="none"></circle>
<circle cx="1576.64" cy="1577.74" r="4" stroke="rgb(255,0,25)" stroke-width="2" fill="none"></circle>
<circle cx="5942.85" cy="2742.42" r="4" stroke="rgb(255,0,25)" stroke-width="2" fill="none"></circle>
<circle cx="1595.53" cy="963.575" r="4" stroke="rgb(255,0,165)" stroke-width="2" fill="none"></circle>
<circle cx="5117.27" cy="796.283" r="4" stroke="rgb(255,0,165)" stroke-width="2" fill="none"></circle>
<circle cx="1695.94" cy="1630.46" r="4" stroke="rgb(0,255,118)" stroke-width="2" fill="none"></circle>
<circle cx="6292.45" cy="287.136" r="4" stroke="rgb(0,255,118)" stroke-width="2" fill="none"></circle>
<circle cx="1905.2" cy="770.612" r="4" stroke="rgb(110,255,0)" stroke-width="2" fill="none"></circle>
<circle cx="5331.69" cy="1957.86" r="4" stroke="rgb(110,255,0)" stroke-width="2" fill="none"></circle>
<circle cx="2424.95" cy="1383.06" r="4" stroke="rgb(178,0,255)" stroke-width="2" fill="none"></circle>
<circle cx="5561.89" cy="742.316" r="4" stroke="rgb(178,0,255)" stroke-width="2" fill="none"></circle>
<circle cx="2426.88" cy="1376.07" r="4" stroke="rgb(135,255,0)" stroke-width="2" fill="none"></circle>
<circle cx="5567.67" cy="741.689" r="4" stroke="rgb(135,255,0)" stroke-width="2" fill="none"></circle>
<circle cx="1695.94" cy="1630.46" r="4" stroke="rgb(195,255,0)" stroke-width="2" fill="none"></circle>
<circle cx="4634.88" cy="752.835" r="4" stroke="rgb(195,255,0)" stroke-width="2" fill="none"></circle>
<circle cx="1726.62" cy="850.835" r="4" stroke="rgb(0,255,12)" stroke-width="2" fill="none"></circle>
<circle cx="5194.81" cy="758.802" r="4" stroke="rgb(0,255,12)" stroke-width="2" fill="none"></circle>
<circle cx="1816.55" cy="1276.48" r="4" stroke="rgb(255,114,0)" stroke-width="2" fill="none"></circle>
<circle cx="5141.9" cy="788.667" r="4" stroke="rgb(255,114,0)" stroke-width="2" fill="none"></circle>
<circle cx="1702.52" cy="1759.2" r="4" stroke="rgb(238,0,255)" stroke-width="2" fill="none"></circle>
<circle cx="5786.71" cy="793.139" r="4" stroke="rgb(238,0,255)" stroke-width="2" fill="none"></circle>
<circle cx="1596.77" cy="1315.84" r="4" stroke="rgb(255,246,0)" stroke-width="2" fill="none"></circle>
<circle cx="6109.21" cy="385.56" r="4" stroke="rgb(255,246,0)" stroke-width="2" fill="none"></circle>
<circle cx="1595.53" cy="963.575" r="4" stroke="rgb(255,229,0)" stroke-width="2" fill="none"></circle>
<circle cx="5054.14" cy="892.585" r="4" stroke="rgb(255,229,0)" stroke-width="2" fill="none"></circle>
<circle cx="1726.62" cy="850.835" r="4" stroke="rgb(255,0,33)" stroke-width="2" fill="none"></circle>
<circle cx="5178.4" cy="362.592" r="4" stroke="rgb(255,0,33)" stroke-width="2" fill="none"></circle>
<circle cx="3348.04" cy="1585.14" r="4" stroke="rgb(255,221,0)" stroke-width="2" fill="none"></circle>
<circle cx="6121.56" cy="387.53" r="4" stroke="rgb(255,221,0)" stroke-width="2" fill="none"></circle>
<circle cx="3260.14" cy="1248.62" r="4" stroke="rgb(0,8,255)" stroke-width="2" fill="none"></circle>
<circle cx="5859.91" cy="815.679" r="4" stroke="rgb(0,8,255)" stroke-width="2" fill="none"></circle>
<circle cx="1717.63" cy="1003.63" r="4" stroke="rgb(182,255,0)" stroke-width="2" fill="none"></circle>
<circle cx="6666.18" cy="417.415" r="4" stroke="rgb(182,255,0)" stroke-width="2" fill="none"></circle>
<circle cx="1596.77" cy="1315.84" r="4" stroke="rgb(131,0,255)" stroke-width="2" fill="none"></circle>
<circle cx="6146.9" cy="420.332" r="4" stroke="rgb(131,0,255)" stroke-width="2" fill="none"></circle>
<circle cx="3172.52" cy="962.725" r="4" stroke="rgb(255,157,0)" stroke-width="2" fill="none"></circle>
<circle cx="5618.8" cy="470.006" r="4" stroke="rgb(255,157,0)" stroke-width="2" fill="none"></circle>
<circle cx="1456.9" cy="1095.9" r="4" stroke="rgb(255,89,0)" stroke-width="2" fill="none"></circle>
<circle cx="5077.77" cy="1023.35" r="4" stroke="rgb(255,89,0)" stroke-width="2" fill="none"></circle>
<circle cx="2567.2" cy="1854.52" r="4" stroke="rgb(0,255,246)" stroke-width="2" fill="none"></circle>
<circle cx="6640.92" cy="1491.97" r="4" stroke="rgb(0,255,246)" stroke-width="2" fill="none"></circle>
<circle cx="3133.16" cy="1567" r="4" stroke="rgb(255,242,0)" stroke-width="2" fill="none"></circle>
<circle cx="6688.2" cy="471.123" r="4" stroke="rgb(255,242,0)" stroke-width="2" fill="none"></circle>
<circle cx="2729.91" cy="1566.12" r="4" stroke="rgb(46,0,255)" stroke-width="2" fill="none"></circle>
<circle cx="6910.85" cy="479.009" r="4" stroke="rgb(46,0,255)" stroke-width="2" fill="none"></circle>
<circle cx="1206.86" cy="1673.2" r="4" stroke="rgb(255,12,0)" stroke-width="2" fill="none"></circle>
<circle cx="5498.36" cy="484.162" r="4" stroke="rgb(255,12,0)" stroke-width="2" fill="none"></circle>
<circle cx="2707.16" cy="1445.91" r="4" stroke="rgb(0,255,182)" stroke-width="2" fill="none"></circle>
<circle cx="5494.71" cy="523.748" r="4" stroke="rgb(0,255,182)" stroke-width="2" fill="none"></circle>
<circle cx="3038.58" cy="1716.14" r="4" stroke="rgb(0,255,114)" stroke-width="2" fill="none"></circle>
<circle cx="5756.98" cy="1134.92" r="4" stroke="rgb(0,255,114)" stroke-width="2" fill="none"></circle>
<circle cx="1726.62" cy="850.835" r="4" stroke="rgb(93,255,0)" stroke-width="2" fill="none"></circle>
<circle cx="5184.87" cy="469.769" r="4" stroke="rgb(93,255,0)" stroke-width="2" fill="none"></circle>
<circle cx="2590.18" cy="1407.13" r="4" stroke="rgb(161,255,0)" stroke-width="2" fill="none"></circle>
<circle cx="5788.85" cy="541.472" r="4" stroke="rgb(161,255,0)" stroke-width="2" fill="none"></circle>
<circle cx="2783.16" cy="1410.87" r="4" stroke="rgb(0,51,255)" stroke-width="2" fill="none"></circle>
<circle cx="6715.58" cy="472.107" r="4" stroke="rgb(0,51,255)" stroke-width="2" fill="none"></circle>
<circle cx="1726.62" cy="850.835" r="4" stroke="rgb(153,0,255)" stroke-width="2" fill="none"></circle>
<circle cx="5417.44" cy="2292.44" r="4" stroke="rgb(153,0,255)" stroke-width="2" fill="none"></circle>
<circle cx="2274.84" cy="685.574" r="4" stroke="rgb(187,255,0)" stroke-width="2" fill="none"></circle>
<circle cx="5096.23" cy="1605.11" r="4" stroke="rgb(187,255,0)" stroke-width="2" fill="none"></circle>
<circle cx="1737.18" cy="1303.07" r="4" stroke="rgb(255,233,0)" stroke-width="2" fill="none"></circle>
<circle cx="5441.99" cy="2537.05" r="4" stroke="rgb(255,233,0)" stroke-width="2" fill="none"></circle>
<circle cx="2590.18" cy="1407.13" r="4" stroke="rgb(0,255,93)" stroke-width="2" fill="none"></circle>
<circle cx="5669.13" cy="589.271" r="4" stroke="rgb(0,255,93)" stroke-width="2" fill="none"></circle>
<circle cx="1352.28" cy="1317.82" r="4" stroke="rgb(255,161,0)" stroke-width="2" fill="none"></circle>
<circle cx="6291.18" cy="1001" r="4" stroke="rgb(255,161,0)" stroke-width="2" fill="none"></circle>
<circle cx="1527.15" cy="1068.6" r="4" stroke="rgb(0,157,255)" stroke-width="2" fill="none"></circle>
<circle cx="5392.79" cy="2478.02" r="4" stroke="rgb(0,157,255)" stroke-width="2" fill="none"></circle>
<circle cx="2386.84" cy="1367.77" r="4" stroke="rgb(0,17,255)" stroke-width="2" fill="none"></circle>
<circle cx="4964.9" cy="1016.73" r="4" stroke="rgb(0,17,255)" stroke-width="2" fill="none"></circle>
<circle cx="2701.86" cy="912.524" r="4" stroke="rgb(0,203,255)" stroke-width="2" fill="none"></circle>
<circle cx="5317.32" cy="218.141" r="4" stroke="rgb(0,203,255)" stroke-width="2" fill="none"></circle>
<circle cx="1483.7" cy="1560.69" r="4" stroke="rgb(216,0,255)" stroke-width="2" fill="none"></circle>
<circle cx="4850.56" cy="1062.27" r="4" stroke="rgb(216,0,255)" stroke-width="2" fill="none"></circle>
<circle cx="2732.65" cy="1385.58" r="4" stroke="rgb(0,246,255)" stroke-width="2" fill="none"></circle>
<circle cx="5654.02" cy="569.088" r="4" stroke="rgb(0,246,255)" stroke-width="2" fill="none"></circle>
<circle cx="1702.52" cy="1759.2" r="4" stroke="rgb(255,0,191)" stroke-width="2" fill="none"></circle>
<circle cx="4757.64" cy="660.094" r="4" stroke="rgb(255,0,191)" stroke-width="2" fill="none"></circle>
<circle cx="1743.06" cy="1453.07" r="4" stroke="rgb(0,208,255)" stroke-width="2" fill="none"></circle>
<circle cx="4430.5" cy="661.492" r="4" stroke="rgb(0,208,255)" stroke-width="2" fill="none"></circle>
<circle cx="2445.66" cy="1420.6" r="4" stroke="rgb(8,255,0)" stroke-width="2" fill="none"></circle>
<circle cx="5606.89" cy="665.722" r="4" stroke="rgb(8,255,0)" stroke-width="2" fill="none"></circle>
<circle cx="1816.55" cy="1276.48" r="4" stroke="rgb(21,0,255)" stroke-width="2" fill="none"></circle>
<circle cx="5114.55" cy="1214.3" r="4" stroke="rgb(21,0,255)" stroke-width="2" fill="none"></circle>
<circle cx="1816.55" cy="1276.48" r="4" stroke="rgb(12,255,0)" stroke-width="2" fill="none"></circle>
<circle cx="5120.45" cy="1216.43" r="4" stroke="rgb(12,255,0)" stroke-width="2" fill="none"></circle>
<circle cx="1957.41" cy="1777.03" r="4" stroke="rgb(255,0,72)" stroke-width="2" fill="none"></circle>
<circle cx="5498.05" cy="709.544" r="4" stroke="rgb(255,0,72)" stroke-width="2" fill="none"></circle>
<circle cx="2423.78" cy="1370.31" r="4" stroke="rgb(242,0,255)" stroke-width="2" fill="none"></circle>
<circle cx="5507.73" cy="726.042" r="4" stroke="rgb(242,0,255)" stroke-width="2" fill="none"></circle>
<circle cx="1596.77" cy="1315.84" r="4" stroke="rgb(0,55,255)" stroke-width="2" fill="none"></circle>
<circle cx="4640.92" cy="793.481" r="4" stroke="rgb(0,55,255)" stroke-width="2" fill="none"></circle>
<circle cx="1968.51" cy="1790.11" r="4" stroke="rgb(255,255,0)" stroke-width="2" fill="none"></circle>
<circle cx="5632.58" cy="515.323" r="4" stroke="rgb(255,255,0)" stroke-width="2" fill="none"></circle>
<circle cx="2496.09" cy="1493.51" r="4" stroke="rgb(169,255,0)" stroke-width="2" fill="none"></circle>
<circle cx="6584.42" cy="1785.92" r="4" stroke="rgb(169,255,0)" stroke-width="2" fill="none"></circle>
<circle cx="3545.77" cy="1104.61" r="4" stroke="rgb(106,0,255)" stroke-width="2" fill="none"></circle>
<circle cx="5845.26" cy="1789.51" r="4" stroke="rgb(106,0,255)" stroke-width="2" fill="none"></circle>
<circle cx="1968.51" cy="1790.11" r="4" stroke="rgb(255,0,199)" stroke-width="2" fill="none"></circle>
<circle cx="5649.52" cy="556.529" r="4" stroke="rgb(255,0,199)" stroke-width="2" fill="none"></circle>
<circle cx="2390.4" cy="608.351" r="4" stroke="rgb(0,255,42)" stroke-width="2" fill="none"></circle>
<circle cx="5643.99" cy="1947.04" r="4" stroke="rgb(0,255,42)" stroke-width="2" fill="none"></circle>
<circle cx="2445.66" cy="1420.6" r="4" stroke="rgb(0,195,255)" stroke-width="2" fill="none"></circle>
<circle cx="5607.93" cy="666.54" r="4" stroke="rgb(0,195,255)" stroke-width="2" fill="none"></circle>
<circle cx="1407.15" cy="1274.94" r="4" stroke="rgb(0,153,255)" stroke-width="2" fill="none"></circle>
<circle cx="5045.96" cy="1851.67" r="4" stroke="rgb(0,153,255)" stroke-width="2" fill="none"></circle>
<circle cx="1726.62" cy="850.835" r="4" stroke="rgb(255,21,0)" stroke-width="2" fill="none"></circle>
<circle cx="5422.1" cy="2258.97" r="4" stroke="rgb(255,21,0)" stroke-width="2" fill="none"></circle>
<circle cx="1726.62" cy="850.835" r="4" stroke="rgb(255,0,12)" stroke-width="2" fill="none"></circle>
<circle cx="5409.09" cy="2361.44" r="4" stroke="rgb(255,0,12)" stroke-width="2" fill="none"></circle>
<circle cx="1596.77" cy="1315.84" r="4" stroke="rgb(0,72,255)" stroke-width="2" fill="none"></circle>
<circle cx="5788.62" cy="2714.37" r="4" stroke="rgb(0,72,255)" stroke-width="2" fill="none"></circle>
<circle cx="3091.59" cy="740.365" r="4" stroke="rgb(255,0,106)" stroke-width="2" fill="none"></circle>
<circle cx="6719.08" cy="967.614" r="4" stroke="rgb(255,0,106)" stroke-width="2" fill="none"></circle>
<circle cx="1566.21" cy="1069.79" r="4" stroke="rgb(255,0,208)" stroke-width="2" fill="none"></circle>
<circle cx="5101.72" cy="725.977" r="4" stroke="rgb(255,0,208)" stroke-width="2" fill="none"></circle>
<circle cx="1438.82" cy="1098.89" r="4" stroke="rgb(123,255,0)" stroke-width="2" fill="none"></circle>
<circle cx="5016.88" cy="837.872" r="4" stroke="rgb(123,255,0)" stroke-width="2" fill="none"></circle>
<circle cx="3511.82" cy="1096.67" r="4" stroke="rgb(46,0,255)" stroke-width="2" fill="none"></circle>
<circle cx="5239.29" cy="839.08" r="4" stroke="rgb(46,0,255)" stroke-width="2" fill="none"></circle>
<circle cx="1412.87" cy="1088.49" r="4" stroke="rgb(255,119,0)" stroke-width="2" fill="none"></circle>
<circle cx="6203.26" cy="1726.32" r="4" stroke="rgb(255,119,0)" stroke-width="2" fill="none"></circle>
<circle cx="1596.77" cy="1315.84" r="4" stroke="rgb(0,255,110)" stroke-width="2" fill="none"></circle>
<circle cx="6944.35" cy="1311.03" r="4" stroke="rgb(0,255,110)" stroke-width="2" fill="none"></circle>
<circle cx="2031.34" cy="1560.48" r="4" stroke="rgb(255,140,0)" stroke-width="2" fill="none"></circle>
<circle cx="5704.58" cy="316.226" r="4" stroke="rgb(255,140,0)" stroke-width="2" fill="none"></circle>
<circle cx="1407.15" cy="1274.94" r="4" stroke="rgb(246,0,255)" stroke-width="2" fill="none"></circle>
<circle cx="4920.37" cy="601.592" r="4" stroke="rgb(246,0,255)" stroke-width="2" fill="none"></circle>
<circle cx="1707.56" cy="1190.36" r="4" stroke="rgb(0,76,255)" stroke-width="2" fill="none"></circle>
<circle cx="5229.21" cy="1063.69" r="4" stroke="rgb(0,76,255)" stroke-width="2" fill="none"></circle>
<circle cx="1441.71" cy="1089.45" r="4" stroke="rgb(0,255,93)" stroke-width="2" fill="none"></circle>
<circle cx="5024.89" cy="824.1" r="4" stroke="rgb(0,255,93)" stroke-width="2" fill="none"></circle>
<circle cx="2163.42" cy="1552.25" r="4" stroke="rgb(255,8,0)" stroke-width="2" fill="none"></circle>
<circle cx="6936.8" cy="1664.08" r="4" stroke="rgb(255,8,0)" stroke-width="2" fill="none"></circle>
<circle cx="2701.86" cy="912.524" r="4" stroke="rgb(0,255,140)" stroke-width="2" fill="none"></circle>
<circle cx="5685.62" cy="370.492" r="4" stroke="rgb(0,255,140)" stroke-width="2" fill="none"></circle>
<circle cx="1591.77" cy="1319.38" r="4" stroke="rgb(255,0,153)" stroke-width="2" fill="none"></circle>
<circle cx="6964.84" cy="1311.54" r="4" stroke="rgb(255,0,153)" stroke-width="2" fill="none"></circle>
<circle cx="3359.57" cy="1078.63" r="4" stroke="rgb(0,216,255)" stroke-width="2" fill="none"></circle>
<circle cx="5846.19" cy="795.101" r="4" stroke="rgb(0,216,255)" stroke-width="2" fill="none"></circle>
</svg>