<?xml version="1.0" standalone="yes"?>
<!-- SVG graphic -->
<svg xmlns='http://www.w3.org/2000/svg' xmlns:xlink='http://www.w3.org/1999/xlink'
width="8064px" height="3024px" preserveAspectRatio="xMinYMin meet" viewBox="0 0 8064 3024" version="1.1">
<image x="0" y="0" width="4032px" height="3024px" opacity="1" xlink:href="/home/jeong/Code/2D-to-3D-Modeling-using-AI/Make3D/Image/20200227_180650.jpg"/>
<image x="4032" y="0" width="4032px" height="3024px" opacity="1" xlink:href="/home/jeong/Code/2D-to-3D-Modeling-using-AI/Make3D/Image/20200227_180801.jpg"/>
<polyline points="2182.03,1739.88,5567.04,1473.13" stroke="rgb(242,255,0)" stroke-width="2" fill="none"></polyline>
<polyline points="2662.45,920.166,5238.46,199.689" stroke="rgb(255,0,131)" stroke-width="2" fill="none"></polyline>
<polyline points="2813.27,914.261,5397.03,216.96" stroke="rgb(123,255,0)" stroke-width="2" fill="none"></polyline>
<polyline points="1586.34,1040.06,4976.96,876.087" stroke="rgb(255,242,0)" stroke-width="2" fill="none"></polyline>
<polyline points="3306.35,1111.81,4551.02,2142.2" stroke="rgb(255,204,0)" stroke-width="2" fill="none"></polyline>
<polyline points="3511.82,1096.67,5277.22,2151.23" stroke="rgb(0,255,186)" stroke-width="2" fill="none"></polyline>
<polyline points="3511.82,1096.67,5277.22,2151.23" stroke="rgb(233,0,255)" stroke-width="2" fill="none"></polyline>
<polyline points="2739.68,1792.31,5823.07,919.083" stroke="rgb(0,187,255)" stroke-width="2" fill="none"></polyline>
<polyline points="1968.51,1790.11,5364.18,320.788" stroke="rgb(255,161,0)" stroke-width="2" fill="none"></polyline>
<polyline points="2636.81,1652.51,6478.71,1535.15" stroke="rgb(0,148,255)" stroke-width="2" fill="none"></polyline>
<polyline points="2376.54,1473.44,5341.38,322.235" stroke="rgb(212,255,0)" stroke-width="2" fill="none"></polyline>
<polyline points="2791.79,837.883,6664.25,1037.92" stroke="rgb(102,0,255)" stroke-width="2" fill="none"></polyline>
<polyline points="3361.99,1527.02,6094.23,329.224" stroke="rgb(131,255,0)" stroke-width="2" fill="none"></polyline>
<polyline points="2194.5,1560.89,6265.01,345.166" stroke="rgb(76,255,0)" stroke-width="2" fill="none"></polyline>
<polyline points="2729.52,1415.46,5456.8,405.969" stroke="rgb(0,255,67)" stroke-width="2" fill="none"></polyline>
<polyline points="2729.52,1415.46,5456.8,405.969" stroke="rgb(80,0,255)" stroke-width="2" fill="none"></polyline>
<polyline points="2445.66,1420.6,5330.82,382.149" stroke="rgb(8,255,0)" stroke-width="2" fill="none"></polyline>
<polyline points="2845.85,911.405,6716.14,2249.04" stroke="rgb(255,0,55)" stroke-width="2" fill="none"></polyline>
<polyline points="2618.22,1842.97,5645,1188.04" stroke="rgb(0,255,38)" stroke-width="2" fill="none"></polyline>
<polyline points="2099.32,1838.38,5259.74,411.394" stroke="rgb(165,0,255)" stroke-width="2" fill="none"></polyline>
<polyline points="1424.16,1331.26,4601.88,2285.36" stroke="rgb(0,89,255)" stroke-width="2" fill="none"></polyline>
<polyline points="2674.34,749.787,5702.09,2394.66" stroke="rgb(0,195,255)" stroke-width="2" fill="none"></polyline>
<polyline points="2674.34,749.787,5716.84,2404.77" stroke="rgb(0,255,101)" stroke-width="2" fill="none"></polyline>
<polyline points="2674.34,749.787,5716.84,2404.77" stroke="rgb(0,127,255)" stroke-width="2" fill="none"></polyline>
<polyline points="2194.5,1560.89,4904,1658" stroke="rgb(17,0,255)" stroke-width="2" fill="none"></polyline>
<polyline points="2767.33,907.071,6542.28,2412.17" stroke="rgb(50,0,255)" stroke-width="2" fill="none"></polyline>
<polyline points="3098.62,788.485,5782.76,1063.44" stroke="rgb(0,80,255)" stroke-width="2" fill="none"></polyline>
<polyline points="2674.34,749.787,5732.02,2413.57" stroke="rgb(93,255,0)" stroke-width="2" fill="none"></polyline>
<polyline points="2322.78,962.334,4186.1,492.582" stroke="rgb(255,0,131)" stroke-width="2" fill="none"></polyline>
<polyline points="2674.34,749.787,5732.02,2413.57" stroke="rgb(131,0,255)" stroke-width="2" fill="none"></polyline>
<polyline points="3135.92,1346.84,4986.26,2321.13" stroke="rgb(46,0,255)" stroke-width="2" fill="none"></polyline>
<polyline points="3039.8,1634.56,5230.11,2328.14" stroke="rgb(255,140,0)" stroke-width="2" fill="none"></polyline>
<polyline points="1298.42,1216.12,5759.86,505.411" stroke="rgb(33,255,0)" stroke-width="2" fill="none"></polyline>
<polyline points="2674.34,749.787,5746.97,2421.88" stroke="rgb(0,110,255)" stroke-width="2" fill="none"></polyline>
<polyline points="2396.87,1193.11,6701,1683.62" stroke="rgb(255,0,161)" stroke-width="2" fill="none"></polyline>
<polyline points="1726.62,850.835,4961.09,515.697" stroke="rgb(255,136,0)" stroke-width="2" fill="none"></polyline>
<polyline points="3135.92,1346.84,5292.06,522.912" stroke="rgb(255,76,0)" stroke-width="2" fill="none"></polyline>
<polyline points="2674.34,749.787,5762.63,2428.97" stroke="rgb(76,0,255)" stroke-width="2" fill="none"></polyline>
<polyline points="2674.34,749.787,5633.75,2438.42" stroke="rgb(84,255,0)" stroke-width="2" fill="none"></polyline>
<polyline points="2525.41,951.202,4904.59,606.256" stroke="rgb(255,242,0)" stroke-width="2" fill="none"></polyline>
<polyline points="1695.94,1630.46,4363.02,627.923" stroke="rgb(255,0,106)" stroke-width="2" fill="none"></polyline>
<polyline points="1721.18,1086.66,6656.71,1285.96" stroke="rgb(255,182,0)" stroke-width="2" fill="none"></polyline>
<polyline points="2674.34,749.787,5600.63,2456.93" stroke="rgb(0,199,255)" stroke-width="2" fill="none"></polyline>
<polyline points="3348.04,1585.14,4330.22,653.114" stroke="rgb(238,0,255)" stroke-width="2" fill="none"></polyline>
<polyline points="2771.67,851.404,6743.12,672.463" stroke="rgb(255,72,0)" stroke-width="2" fill="none"></polyline>
<polyline points="1637.69,1268.15,4487.85,736.886" stroke="rgb(255,0,127)" stroke-width="2" fill="none"></polyline>
<polyline points="1816.55,1276.48,4417.86,726.986" stroke="rgb(0,187,255)" stroke-width="2" fill="none"></polyline>
<polyline points="1816.55,1276.48,4975.15,777.614" stroke="rgb(0,255,63)" stroke-width="2" fill="none"></polyline>
<polyline points="1797.53,1306.57,5179.41,1228.01" stroke="rgb(255,0,182)" stroke-width="2" fill="none"></polyline>
<polyline points="2760.77,1726.37,5799.42,1713.85" stroke="rgb(0,182,255)" stroke-width="2" fill="none"></polyline>
<polyline points="2949.29,1658.56,6291.94,1757.34" stroke="rgb(195,0,255)" stroke-width="2" fill="none"></polyline>
<polyline points="2390.5,600.251,5626.14,1990.4" stroke="rgb(0,255,242)" stroke-width="2" fill="none"></polyline>
<polyline points="1874.06,921.16,6718.89,1856.26" stroke="rgb(255,136,0)" stroke-width="2" fill="none"></polyline>
<polyline points="1410.49,1317.22,4762.88,1629.57" stroke="rgb(255,0,242)" stroke-width="2" fill="none"></polyline>
<polyline points="2903.19,1777.09,6666.08,2049.86" stroke="rgb(255,114,0)" stroke-width="2" fill="none"></polyline>
<polyline points="2194.5,1560.89,4892.04,1666.9" stroke="rgb(0,255,118)" stroke-width="2" fill="none"></polyline>
<polyline points="2228.99,755.164,5815.04,2117.16" stroke="rgb(0,191,255)" stroke-width="2" fill="none"></polyline>
<polyline points="3091.59,740.365,6357.67,640.223" stroke="rgb(0,255,0)" stroke-width="2" fill="none"></polyline>
<polyline points="1543.55,993.987,4822.79,655.896" stroke="rgb(8,255,0)" stroke-width="2" fill="none"></polyline>
<polyline points="1595.53,963.575,4944.11,660.931" stroke="rgb(255,153,0)" stroke-width="2" fill="none"></polyline>
<polyline points="2480.18,674.202,6552.91,2379.37" stroke="rgb(255,131,0)" stroke-width="2" fill="none"></polyline>
<polyline points="2774.47,1788.2,5998.32,1966.46" stroke="rgb(8,0,255)" stroke-width="2" fill="none"></polyline>
<polyline points="3077.04,1598.31,6494.99,2418.6" stroke="rgb(255,0,250)" stroke-width="2" fill="none"></polyline>
<polyline points="3511.82,1096.67,5343.96,2075.7" stroke="rgb(255,63,0)" stroke-width="2" fill="none"></polyline>
<polyline points="3084.32,1337.75,5068.19,2509.86" stroke="rgb(101,255,0)" stroke-width="2" fill="none"></polyline>
<polyline points="1831.76,1238.85,5573.09,2594.96" stroke="rgb(102,0,255)" stroke-width="2" fill="none"></polyline>
<polyline points="3009.41,1197.63,4487.73,2697.96" stroke="rgb(170,0,255)" stroke-width="2" fill="none"></polyline>
<polyline points="1596.77,1315.84,6601.13,924.299" stroke="rgb(255,0,55)" stroke-width="2" fill="none"></polyline>
<polyline points="3067.83,908.244,5872.69,1168.5" stroke="rgb(255,144,0)" stroke-width="2" fill="none"></polyline>
<polyline points="2038.84,1149.28,5325.95,1455.9" stroke="rgb(255,85,0)" stroke-width="2" fill="none"></polyline>
<polyline points="2329.89,645.197,6472.7,432.898" stroke="rgb(153,0,255)" stroke-width="2" fill="none"></polyline>
<polyline points="2374.11,916.372,6166.18,487.163" stroke="rgb(255,38,0)" stroke-width="2" fill="none"></polyline>
<polyline points="2329.89,645.197,6494.33,440.829" stroke="rgb(233,0,255)" stroke-width="2" fill="none"></polyline>
<polyline points="2329.89,645.197,6516.15,449.346" stroke="rgb(46,255,0)" stroke-width="2" fill="none"></polyline>
<polyline points="1566.21,1069.79,4876.05,495.432" stroke="rgb(0,255,242)" stroke-width="2" fill="none"></polyline>
<polyline points="2480.18,674.202,6552.98,2379.28" stroke="rgb(255,0,199)" stroke-width="2" fill="none"></polyline>
<polyline points="2787.14,907.557,6631.66,2425.71" stroke="rgb(255,0,208)" stroke-width="2" fill="none"></polyline>
<polyline points="1438.82,1098.89,4795.54,632.915" stroke="rgb(255,55,0)" stroke-width="2" fill="none"></polyline>
<polyline points="2813.27,914.261,6555.95,2429.97" stroke="rgb(255,0,169)" stroke-width="2" fill="none"></polyline>
<polyline points="3091.59,740.365,6344.88,631.523" stroke="rgb(0,255,89)" stroke-width="2" fill="none"></polyline>
<polyline points="3091.59,740.365,6754.44,1978.09" stroke="rgb(0,123,255)" stroke-width="2" fill="none"></polyline>
<polyline points="2798.17,1658.11,5262.48,1011.51" stroke="rgb(29,0,255)" stroke-width="2" fill="none"></polyline>
<polyline points="1596.77,1315.84,6582.45,904.704" stroke="rgb(255,0,178)" stroke-width="2" fill="none"></polyline>
<polyline points="2137.8,959.875,4870.14,2640.12" stroke="rgb(21,255,0)" stroke-width="2" fill="none"></polyline>
<polyline points="2137.8,959.875,4872.01,2643.12" stroke="rgb(0,212,255)" stroke-width="2" fill="none"></polyline>
<polyline points="3260.14,1248.62,5664.96,1556.95" stroke="rgb(0,97,255)" stroke-width="2" fill="none"></polyline>
<circle cx="2182.03" cy="1739.88" r="4" stroke="rgb(242,255,0)" stroke-width="2" fill="none"></circle>
<circle cx="5567.04" cy="1473.13" r="4" stroke="rgb(242,255,0)" stroke-width="2" fill="none"></circle>
<circle cx="2662.45" cy="920.166" r="4" stroke="rgb(255,0,131)" stroke-width="2" fill="none"></circle>
<circle cx="5238.46" cy="199.689" r="4" stroke="rgb(255,0,131)" stroke-width="2" fill="none"></circle>
<circle cx="2813.27" cy="914.261" r="4" stroke="rgb(123,255,0)" stroke-width="2" fill="none"></circle>
<circle cx="5397.03" cy="216.96" r="4" stroke="rgb(123,255,0)" stroke-width="2" fill="none"></circle>
<circle cx="1586.34" cy="1040.06" r="4" stroke="rgb(255,242,0)" stroke-width="2" fill="none"></circle>
<circle cx="4976.96" cy="876.087" r="4" stroke="rgb(255,242,0)" stroke-width="2" fill="none"></circle>
<circle cx="3306.35" cy="1111.81" r="4" stroke="rgb(255,204,0)" stroke-width="2" fill="none"></circle>
<circle cx="4551.02" cy="2142.2" r="4" stroke="rgb(255,204,0)" stroke-width="2" fill="none"></circle>
<circle cx="3511.82" cy="1096.67" r="4" stroke="rgb(0,255,186)" stroke-width="2" fill="none"></circle>
<circle cx="5277.22" cy="2151.23" r="4" stroke="rgb(0,255,186)" stroke-width="2" fill="none"></circle>
<circle cx="3511.82" cy="1096.67" r="4" stroke="rgb(233,0,255)" stroke-width="2" fill="none"></circle>
<circle cx="5277.22" cy="2151.23" r="4" stroke="rgb(233,0,255)" stroke-width="2" fill="none"></circle>
<circle cx="2739.68" cy="1792.31" r="4" stroke="rgb(0,187,255)" stroke-width="2" fill="none"></circle>
<circle cx="5823.07" cy="919.083" r="4" stroke="rgb(0,187,255)" stroke-width="2" fill="none"></circle>
<circle cx="1968.51" cy="1790.11" r="4" stroke="rgb(255,161,0)" stroke-width="2" fill="none"></circle>
<circle cx="5364.18" cy="320.788" r="4" stroke="rgb(255,161,0)" stroke-width="2" fill="none"></circle>
<circle cx="2636.81" cy="1652.51" r="4" stroke="rgb(0,148,255)" stroke-width="2" fill="none"></circle>
<circle cx="6478.71" cy="1535.15" r="4" stroke="rgb(0,148,255)" stroke-width="2" fill="none"></circle>
<circle cx="2376.54" cy="1473.44" r="4" stroke="rgb(212,255,0)" stroke-width="2" fill="none"></circle>
<circle cx="5341.38" cy="322.235" r="4" stroke="rgb(212,255,0)" stroke-width="2" fill="none"></circle>
<circle cx="2791.79" cy="837.883" r="4" stroke="rgb(102,0,255)" stroke-width="2" fill="none"></circle>
<circle cx="6664.25" cy="1037.92" r="4" stroke="rgb(102,0,255)" stroke-width="2" fill="none"></circle>
<circle cx="3361.99" cy="1527.02" r="4" stroke="rgb(131,255,0)" stroke-width="2" fill="none"></circle>
<circle cx="6094.23" cy="329.224" r="4" stroke="rgb(131,255,0)" stroke-width="2" fill="none"></circle>
<circle cx="2194.5" cy="1560.89" r="4" stroke="rgb(76,255,0)" stroke-width="2" fill="none"></circle>
<circle cx="6265.01" cy="345.166" r="4" stroke="rgb(76,255,0)" stroke-width="2" fill="none"></circle>
<circle cx="2729.52" cy="1415.46" r="4" stroke="rgb(0,255,67)" stroke-width="2" fill="none"></circle>
<circle cx="5456.8" cy="405.969" r="4" stroke="rgb(0,255,67)" stroke-width="2" fill="none"></circle>
<circle cx="2729.52" cy="1415.46" r="4" stroke="rgb(80,0,255)" stroke-width="2" fill="none"></circle>
<circle cx="5456.8" cy="405.969" r="4" stroke="rgb(80,0,255)" stroke-width="2" fill="none"></circle>
<circle cx="2445.66" cy="1420.6" r="4" stroke="rgb(8,255,0)" stroke-width="2" fill="none"></circle>
<circle cx="5330.82" cy="382.149" r="4" stroke="rgb(8,255,0)" stroke-width="2" fill="none"></circle>
<circle cx="2845.85" cy="911.405" r="4" stroke="rgb(255,0,55)" stroke-width="2" fill="none"></circle>
<circle cx="6716.14" cy="2249.04" r="4" stroke="rgb(255,0,55)" stroke-width="2" fill="none"></circle>
<circle cx="2618.22" cy="1842.97" r="4" stroke="rgb(0,255,38)" stroke-width="2" fill="none"></circle>
<circle cx="5645" cy="1188.04" r="4" stroke="rgb(0,255,38)" stroke-width="2" fill="none"></circle>
<circle cx="2099.32" cy="1838.38" r="4" stroke="rgb(165,0,255)" stroke-width="2" fill="none"></circle>
<circle cx="5259.74" cy="411.394" r="4" stroke="rgb(165,0,255)" stroke-width="2" fill="none"></circle>
<circle cx="1424.16" cy="1331.26" r="4" stroke="rgb(0,89,255)" stroke-width="2" fill="none"></circle>
<circle cx="4601.88" cy="2285.36" r="4" stroke="rgb(0,89,255)" stroke-width="2" fill="none"></circle>
<circle cx="2674.34" cy="749.787" r="4" stroke="rgb(0,195,255)" stroke-width="2" fill="none"></circle>
<circle cx="5702.09" cy="2394.66" r="4" stroke="rgb(0,195,255)" stroke-width="2" fill="none"></circle>
<circle cx="2674.34" cy="749.787" r="4" stroke="rgb(0,255,101)" stroke-width="2" fill="none"></circle>
<circle cx="5716.84" cy="2404.77" r="4" stroke="rgb(0,255,101)" stroke-width="2" fill="none"></circle>
<circle cx="2674.34" cy="749.787" r="4" stroke="rgb(0,127,255)" stroke-width="2" fill="none"></circle>
<circle cx="5716.84" cy="2404.77" r="4" stroke="rgb(0,127,255)" stroke-width="2" fill="none"></circle>
<circle cx="2194.5" cy="1560.89" r="4" stroke="rgb(17,0,255)" stroke-width="2" fill="none"></circle>
<circle cx="4904" cy="1658" r="4" stroke="rgb(17,0,255)" stroke-width="2" fill="none"></circle>
<circle cx="2767.33" cy="907.071" r="4" stroke="rgb(50,0,255)" stroke-width="2" fill="none"></circle>
<circle cx="6542.28" cy="2412.17" r="4" stroke="rgb(50,0,255)" stroke-width="2" fill="none"></circle>
<circle cx="3098.62" cy="788.485" r="4" stroke="rgb(0,80,255)" stroke-width="2" fill="none"></circle>
<circle cx="5782.76" cy="1063.44" r="4" stroke="rgb(0,80,255)" stroke-width="2" fill="none"></circle>
<circle cx="2674.34" cy="749.787" r="4" stroke="rgb(93,255,0)" stroke-width="2" fill="none"></circle>
<circle cx="5732.02" cy="2413.57" r="4" stroke="rgb(93,255,0)" stroke-width="2" fill="none"></circle>
<circle cx="2322.78" cy="962.334" r="4" stroke="rgb(255,0,131)" stroke-width="2" fill="none"></circle>
<circle cx="4186.1" cy="492.582" r="4" stroke="rgb(255,0,131)" stroke-width="2" fill="none"></circle>
<circle cx="2674.34" cy="749.787" r="4" stroke="rgb(131,0,255)" stroke-width="2" fill="none"></circle>
<circle cx="5732.02" cy="2413.57" r="4" stroke="rgb(131,0,255)" stroke-width="2" fill="none"></circle>
<circle cx="3135.92" cy="1346.84" r="4" stroke="rgb(46,0,255)" stroke-width="2" fill="none"></circle>
<circle cx="4986.26" cy="2321.13" r="4" stroke="rgb(46,0,255)" stroke-width="2" fill="none"></circle>
<circle cx="3039.8" cy="1634.56" r="4" stroke="rgb(255,140,0)" stroke-width="2" fill="none"></circle>
<circle cx="5230.11" cy="2328.14" r="4" stroke="rgb(255,140,0)" stroke-width="2" fill="none"></circle>
<circle cx="1298.42" cy="1216.12" r="4" stroke="rgb(33,255,0)" stroke-width="2" fill="none"></circle>
<circle cx="5759.86" cy="505.411" r="4" stroke="rgb(33,255,0)" stroke-width="2" fill="none"></circle>
<circle cx="2674.34" cy="749.787" r="4" stroke="rgb(0,110,255)" stroke-width="2" fill="none"></circle>
<circle cx="5746.97" cy="2421.88" r="4" stroke="rgb(0,110,255)" stroke-width="2" fill="none"></circle>
<circle cx="2396.87" cy="1193.11" r="4" stroke="rgb(255,0,161)" stroke-width="2" fill="none"></circle>
<circle cx="6701" cy="1683.62" r="4" stroke="rgb(255,0,161)" stroke-width="2" fill="none"></circle>
<circle cx="1726.62" cy="850.835" r="4" stroke="rgb(255,136,0)" stroke-width="2" fill="none"></circle>
<circle cx="4961.09" cy="515.697" r="4" stroke="rgb(255,136,0)" stroke-width="2" fill="none"></circle>
<circle cx="3135.92" cy="1346.84" r="4" stroke="rgb(255,76,0)" stroke-width="2" fill="none"></circle>
<circle cx="5292.06" cy="522.912" r="4" stroke="rgb(255,76,0)" stroke-width="2" fill="none"></circle>
<circle cx="2674.34" cy="749.787" r="4" stroke="rgb(76,0,255)" stroke-width="2" fill="none"></circle>
<circle cx="5762.63" cy="2428.97" r="4" stroke="rgb(76,0,255)" stroke-width="2" fill="none"></circle>
<circle cx="2674.34" cy="749.787" r="4" stroke="rgb(84,255,0)" stroke-width="2" fill="none"></circle>
<circle cx="5633.75" cy="2438.42" r="4" stroke="rgb(84,255,0)" stroke-width="2" fill="none"></circle>
<circle cx="2525.41" cy="951.202" r="4" stroke="rgb(255,242,0)" stroke-width="2" fill="none"></circle>
<circle cx="4904.59" cy="606.256" r="4" stroke="rgb(255,242,0)" stroke-width="2" fill="none"></circle>
<circle cx="1695.94" cy="1630.46" r="4" stroke="rgb(255,0,106)" stroke-width="2" fill="none"></circle>
<circle cx="4363.02" cy="627.923" r="4" stroke="rgb(255,0,106)" stroke-width="2" fill="none"></circle>
<circle cx="1721.18" cy="1086.66" r="4" stroke="rgb(255,182,0)" stroke-width="2" fill="none"></circle>
<circle cx="6656.71" cy="1285.96" r="4" stroke="rgb(255,182,0)" stroke-width="2" fill="none"></circle>
<circle cx="2674.34" cy="749.787" r="4" stroke="rgb(0,199,255)" stroke-width="2" fill="none"></circle>
<circle cx="5600.63" cy="2456.93" r="4" stroke="rgb(0,199,255)" stroke-width="2" fill="none"></circle>
<circle cx="3348.04" cy="1585.14" r="4" stroke="rgb(238,0,255)" stroke-width="2" fill="none"></circle>
<circle cx="4330.22" cy="653.114" r="4" stroke="rgb(238,0,255)" stroke-width="2" fill="none"></circle>
<circle cx="2771.67" cy="851.404" r="4" stroke="rgb(255,72,0)" stroke-width="2" fill="none"></circle>
<circle cx="6743.12" cy="672.463" r="4" stroke="rgb(255,72,0)" stroke-width="2" fill="none"></circle>
<circle cx="1637.69" cy="1268.15" r="4" stroke="rgb(255,0,127)" stroke-width="2" fill="none"></circle>
<circle cx="4487.85" cy="736.886" r="4" stroke="rgb(255,0,127)" stroke-width="2" fill="none"></circle>
<circle cx="1816.55" cy="1276.48" r="4" stroke="rgb(0,187,255)" stroke-width="2" fill="none"></circle>
<circle cx="4417.86" cy="726.986" r="4" stroke="rgb(0,187,255)" stroke-width="2" fill="none"></circle>
<circle cx="1816.55" cy="1276.48" r="4" stroke="rgb(0,255,63)" stroke-width="2" fill="none"></circle>
<circle cx="4975.15" cy="777.614" r="4" stroke="rgb(0,255,63)" stroke-width="2" fill="none"></circle>
<circle cx="1797.53" cy="1306.57" r="4" stroke="rgb(255,0,182)" stroke-width="2" fill="none"></circle>
<circle cx="5179.41" cy="1228.01" r="4" stroke="rgb(255,0,182)" stroke-width="2" fill="none"></circle>
<circle cx="2760.77" cy="1726.37" r="4" stroke="rgb(0,182,255)" stroke-width="2" fill="none"></circle>
<circle cx="5799.42" cy="1713.85" r="4" stroke="rgb(0,182,255)" stroke-width="2" fill="none"></circle>
<circle cx="2949.29" cy="1658.56" r="4" stroke="rgb(195,0,255)" stroke-width="2" fill="none"></circle>
<circle cx="6291.94" cy="1757.34" r="4" stroke="rgb(195,0,255)" stroke-width="2" fill="none"></circle>
<circle cx="2390.5" cy="600.251" r="4" stroke="rgb(0,255,242)" stroke-width="2" fill="none"></circle>
<circle cx="5626.14" cy="1990.4" r="4" stroke="rgb(0,255,242)" stroke-width="2" fill="none"></circle>
<circle cx="1874.06" cy="921.16" r="4" stroke="rgb(255,136,0)" stroke-width="2" fill="none"></circle>
<circle cx="6718.89" cy="1856.26" r="4" stroke="rgb(255,136,0)" stroke-width="2" fill="none"></circle>
<circle cx="1410.49" cy="1317.22" r="4" stroke="rgb(255,0,242)" stroke-width="2" fill="none"></circle>
<circle cx="4762.88" cy="1629.57" r="4" stroke="rgb(255,0,242)" stroke-width="2" fill="none"></circle>
<circle cx="2903.19" cy="1777.09" r="4" stroke="rgb(255,114,0)" stroke-width="2" fill="none"></circle>
<circle cx="6666.08" cy="2049.86" r="4" stroke="rgb(255,114,0)" stroke-width="2" fill="none"></circle>
<circle cx="2194.5" cy="1560.89" r="4" stroke="rgb(0,255,118)" stroke-width="2" fill="none"></circle>
<circle cx="4892.04" cy="1666.9" r="4" stroke="rgb(0,255,118)" stroke-width="2" fill="none"></circle>
<circle cx="2228.99" cy="755.164" r="4" stroke="rgb(0,191,255)" stroke-width="2" fill="none"></circle>
<circle cx="5815.04" cy="2117.16" r="4" stroke="rgb(0,191,255)" stroke-width="2" fill="none"></circle>
<circle cx="3091.59" cy="740.365" r="4" stroke="rgb(0,255,0)" stroke-width="2" fill="none"></circle>
<circle cx="6357.67" cy="640.223" r="4" stroke="rgb(0,255,0)" stroke-width="2" fill="none"></circle>
<circle cx="1543.55" cy="993.987" r="4" stroke="rgb(8,255,0)" stroke-width="2" fill="none"></circle>
<circle cx="4822.79" cy="655.896" r="4" stroke="rgb(8,255,0)" stroke-width="2" fill="none"></circle>
<circle cx="1595.53" cy="963.575" r="4" stroke="rgb(255,153,0)" stroke-width="2" fill="none"></circle>
<circle cx="4944.11" cy="660.931" r="4" stroke="rgb(255,153,0)" stroke-width="2" fill="none"></circle>
<circle cx="2480.18" cy="674.202" r="4" stroke="rgb(255,131,0)" stroke-width="2" fill="none"></circle>
<circle cx="6552.91" cy="2379.37" r="4" stroke="rgb(255,131,0)" stroke-width="2" fill="none"></circle>
<circle cx="2774.47" cy="1788.2" r="4" stroke="rgb(8,0,255)" stroke-width="2" fill="none"></circle>
<circle cx="5998.32" cy="1966.46" r="4" stroke="rgb(8,0,255)" stroke-width="2" fill="none"></circle>
<circle cx="3077.04" cy="1598.31" r="4" stroke="rgb(255,0,250)" stroke-width="2" fill="none"></circle>
<circle cx="6494.99" cy="2418.6" r="4" stroke="rgb(255,0,250)" stroke-width="2" fill="none"></circle>
<circle cx="3511.82" cy="1096.67" r="4" stroke="rgb(255,63,0)" stroke-width="2" fill="none"></circle>
<circle cx="5343.96" cy="2075.7" r="4" stroke="rgb(255,63,0)" stroke-width="2" fill="none"></circle>
<circle cx="3084.32" cy="1337.75" r="4" stroke="rgb(101,255,0)" stroke-width="2" fill="none"></circle>
<circle cx="5068.19" cy="2509.86" r="4" stroke="rgb(101,255,0)" stroke-width="2" fill="none"></circle>
<circle cx="1831.76" cy="1238.85" r="4" stroke="rgb(102,0,255)" stroke-width="2" fill="none"></circle>
<circle cx="5573.09" cy="2594.96" r="4" stroke="rgb(102,0,255)" stroke-width="2" fill="none"></circle>
<circle cx="3009.41" cy="1197.63" r="4" stroke="rgb(170,0,255)" stroke-width="2" fill="none"></circle>
<circle cx="4487.73" cy="2697.96" r="4" stroke="rgb(170,0,255)" stroke-width="2" fill="none"></circle>
<circle cx="1596.77" cy="1315.84" r="4" stroke="rgb(255,0,55)" stroke-width="2" fill="none"></circle>
<circle cx="6601.13" cy="924.299" r="4" stroke="rgb(255,0,55)" stroke-width="2" fill="none"></circle>
<circle cx="3067.83" cy="908.244" r="4" stroke="rgb(255,144,0)" stroke-width="2" fill="none"></circle>
<circle cx="5872.69" cy="1168.5" r="4" stroke="rgb(255,144,0)" stroke-width="2" fill="none"></circle>
<circle cx="2038.84" cy="1149.28" r="4" stroke="rgb(255,85,0)" stroke-width="2" fill="none"></circle>
<circle cx="5325.95" cy="1455.9" r="4" stroke="rgb(255,85,0)" stroke-width="2" fill="none"></circle>
<circle cx="2329.89" cy="645.197" r="4" stroke="rgb(153,0,255)" stroke-width="2" fill="none"></circle>
<circle cx="6472.7" cy="432.898" r="4" stroke="rgb(153,0,255)" stroke-width="2" fill="none"></circle>
<circle cx="2374.11" cy="916.372" r="4" stroke="rgb(255,38,0)" stroke-width="2" fill="none"></circle>
<circle cx="6166.18" cy="487.163" r="4" stroke="rgb(255,38,0)" stroke-width="2" fill="none"></circle>
<circle cx="2329.89" cy="645.197" r="4" stroke="rgb(233,0,255)" stroke-width="2" fill="none"></circle>
<circle cx="6494.33" cy="440.829" r="4" stroke="rgb(233,0,255)" stroke-width="2" fill="none"></circle>
<circle cx="2329.89" cy="645.197" r="4" stroke="rgb(46,255,0)" stroke-width="2" fill="none"></circle>
<circle cx="6516.15" cy="449.346" r="4" stroke="rgb(46,255,0)" stroke-width="2" fill="none"></circle>
<circle cx="1566.21" cy="1069.79" r="4" stroke="rgb(0,255,242)" stroke-width="2" fill="none"></circle>
<circle cx="4876.05" cy="495.432" r="4" stroke="rgb(0,255,242)" stroke-width="2" fill="none"></circle>
<circle cx="2480.18" cy="674.202" r="4" stroke="rgb(255,0,199)" stroke-width="2" fill="none"></circle>
<circle cx="6552.98" cy="2379.28" r="4" stroke="rgb(255,0,199)" stroke-width="2" fill="none"></circle>
<circle cx="2787.14" cy="907.557" r="4" stroke="rgb(255,0,208)" stroke-width="2" fill="none"></circle>
<circle cx="6631.66" cy="2425.71" r="4" stroke="rgb(255,0,208)" stroke-width="2" fill="none"></circle>
<circle cx="1438.82" cy="1098.89" r="4" stroke="rgb(255,55,0)" stroke-width="2" fill="none"></circle>
<circle cx="4795.54" cy="632.915" r="4" stroke="rgb(255,55,0)" stroke-width="2" fill="none"></circle>
<circle cx="2813.27" cy="914.261" r="4" stroke="rgb(255,0,169)" stroke-width="2" fill="none"></circle>
<circle cx="6555.95" cy="2429.97" r="4" stroke="rgb(255,0,169)" stroke-width="2" fill="none"></circle>
<circle cx="3091.59" cy="740.365" r="4" stroke="rgb(0,255,89)" stroke-width="2" fill="none"></circle>
<circle cx="6344.88" cy="631.523" r="4" stroke="rgb(0,255,89)" stroke-width="2" fill="none"></circle>
<circle cx="3091.59" cy="740.365" r="4" stroke="rgb(0,123,255)" stroke-width="2" fill="none"></circle>
<circle cx="6754.44" cy="1978.09" r="4" stroke="rgb(0,123,255)" stroke-width="2" fill="none"></circle>
<circle cx="2798.17" cy="1658.11" r="4" stroke="rgb(29,0,255)" stroke-width="2" fill="none"></circle>
<circle cx="5262.48" cy="1011.51" r="4" stroke="rgb(29,0,255)" stroke-width="2" fill="none"></circle>
<circle cx="1596.77" cy="1315.84" r="4" stroke="rgb(255,0,178)" stroke-width="2" fill="none"></circle>
<circle cx="6582.45" cy="904.704" r="4" stroke="rgb(255,0,178)" stroke-width="2" fill="none"></circle>
<circle cx="2137.8" cy="959.875" r="4" stroke="rgb(21,255,0)" stroke-width="2" fill="none"></circle>
<circle cx="4870.14" cy="2640.12" r="4" stroke="rgb(21,255,0)" stroke-width="2" fill="none"></circle>
<circle cx="2137.8" cy="959.875" r="4" stroke="rgb(0,212,255)" stroke-width="2" fill="none"></circle>
<circle cx="4872.01" cy="2643.12" r="4" stroke="rgb(0,212,255)" stroke-width="2" fill="none"></circle>
<circle cx="3260.14" cy="1248.62" r="4" stroke="rgb(0,97,255)" stroke-width="2" fill="none"></circle>
<circle cx="5664.96" cy="1556.95" r="4" stroke="rgb(0,97,255)" stroke-width="2" fill="none"></circle>
</svg>