<?xml version="1.0" standalone="yes"?>
<!-- SVG graphic -->
<svg xmlns='http://www.w3.org/2000/svg' xmlns:xlink='http://www.w3.org/1999/xlink'
width="8064px" height="3024px" preserveAspectRatio="xMinYMin meet" viewBox="0 0 8064 3024" version="1.1">
<image x="0" y="0" width="4032px" height="3024px" opacity="1" xlink:href="/home/jeong/Code/2D-to-3D-Modeling-using-AI/Make3D/Image/20200227_180651.jpg"/>
<image x="4032" y="0" width="4032px" height="3024px" opacity="1" xlink:href="/home/jeong/Code/2D-to-3D-Modeling-using-AI/Make3D/Image/20200227_180708.jpg"/>
<polyline points="3461.13,1222.95,5756.93,733.041" stroke="rgb(0,157,255)" stroke-width="2" fill="none"></polyline>
<polyline points="3021.43,1830.09,5772.97,493.284" stroke="rgb(67,0,255)" stroke-width="2" fill="none"></polyline>
<polyline points="1736.52,1941.19,6016.04,1904.73" stroke="rgb(255,204,0)" stroke-width="2" fill="none"></polyline>
<polyline points="3123.12,1621.09,5453.47,545.539" stroke="rgb(114,0,255)" stroke-width="2" fill="none"></polyline>
<polyline points="1650.67,1064.59,5750.94,758.008" stroke="rgb(106,255,0)" stroke-width="2" fill="none"></polyline>
<polyline points="2931.5,1592.55,5818.57,1880.75" stroke="rgb(0,255,84)" stroke-width="2" fill="none"></polyline>
<polyline points="2280.43,1946.72,6198.73,1277.41" stroke="rgb(255,174,0)" stroke-width="2" fill="none"></polyline>
<polyline points="3109.91,1634.28,6005.74,1889.91" stroke="rgb(255,0,225)" stroke-width="2" fill="none"></polyline>
<polyline points="2533.29,1572.03,5911.78,625.193" stroke="rgb(246,0,255)" stroke-width="2" fill="none"></polyline>
<polyline points="2813.05,1594.94,6242.68,798.184" stroke="rgb(0,255,8)" stroke-width="2" fill="none"></polyline>
<polyline points="2463.26,1501.41,6328.58,1307.84" stroke="rgb(255,85,0)" stroke-width="2" fill="none"></polyline>
<polyline points="2266.64,1272.46,6158.95,718.367" stroke="rgb(0,255,106)" stroke-width="2" fill="none"></polyline>
<polyline points="1967.8,1720.33,5747.59,868.688" stroke="rgb(21,255,0)" stroke-width="2" fill="none"></polyline>
<polyline points="2116.55,1661.95,5966.04,878.612" stroke="rgb(255,153,0)" stroke-width="2" fill="none"></polyline>
<polyline points="3126.16,1503.32,6561.08,2137.09" stroke="rgb(255,110,0)" stroke-width="2" fill="none"></polyline>
<polyline points="3132.68,1520.44,6564.58,2143.52" stroke="rgb(0,76,255)" stroke-width="2" fill="none"></polyline>
<polyline points="2023.35,2055.37,6286.97,2147.81" stroke="rgb(0,85,255)" stroke-width="2" fill="none"></polyline>
<polyline points="2396.37,1450.03,4946.14,2151.02" stroke="rgb(165,0,255)" stroke-width="2" fill="none"></polyline>
<polyline points="3147.14,1808.84,6065.41,2184.89" stroke="rgb(255,0,237)" stroke-width="2" fill="none"></polyline>
<polyline points="1832.69,2000.9,5942.58,1481.94" stroke="rgb(255,38,0)" stroke-width="2" fill="none"></polyline>
<polyline points="1576.34,1851.91,5590.64,2337.23" stroke="rgb(157,255,0)" stroke-width="2" fill="none"></polyline>
<polyline points="2515.5,1003.5,5703.24,2326.7" stroke="rgb(0,255,178)" stroke-width="2" fill="none"></polyline>
<polyline points="2879.35,1882.99,6447.65,1038.77" stroke="rgb(255,148,0)" stroke-width="2" fill="none"></polyline>
<polyline points="2458.93,1512.18,5834.29,1190.54" stroke="rgb(255,199,0)" stroke-width="2" fill="none"></polyline>
<polyline points="2600.84,1565.38,5846.28,1234.89" stroke="rgb(255,136,0)" stroke-width="2" fill="none"></polyline>
<polyline points="3179.89,1757.21,6663.06,1825.23" stroke="rgb(255,0,187)" stroke-width="2" fill="none"></polyline>
<polyline points="2672.44,1866.5,5776.09,1176.65" stroke="rgb(255,0,4)" stroke-width="2" fill="none"></polyline>
<polyline points="1226.5,1619.72,5126.17,1855.52" stroke="rgb(135,255,0)" stroke-width="2" fill="none"></polyline>
<polyline points="2405.09,1523.34,5939.33,1223.04" stroke="rgb(255,140,0)" stroke-width="2" fill="none"></polyline>
<polyline points="2616.35,1973.77,5526.68,1482.9" stroke="rgb(255,178,0)" stroke-width="2" fill="none"></polyline>
<polyline points="1832.69,2000.9,6001.68,1486.78" stroke="rgb(255,208,0)" stroke-width="2" fill="none"></polyline>
<polyline points="3197.5,1678.07,6151.99,1491.28" stroke="rgb(51,255,0)" stroke-width="2" fill="none"></polyline>
<polyline points="1815.49,1988.67,6005.45,1494.3" stroke="rgb(246,0,255)" stroke-width="2" fill="none"></polyline>
<polyline points="1144.54,1848.84,5102.3,2074.06" stroke="rgb(97,255,0)" stroke-width="2" fill="none"></polyline>
<polyline points="1293.89,1625.1,5193.7,1833.99" stroke="rgb(255,63,0)" stroke-width="2" fill="none"></polyline>
<polyline points="2621.62,1491.73,6294.03,1862.37" stroke="rgb(255,140,0)" stroke-width="2" fill="none"></polyline>
<polyline points="3179.89,1757.21,6657.2,1874.71" stroke="rgb(0,12,255)" stroke-width="2" fill="none"></polyline>
<polyline points="1813.39,1119.48,5334.01,590.537" stroke="rgb(255,238,0)" stroke-width="2" fill="none"></polyline>
<polyline points="3123.41,1729.31,6630.3,983.146" stroke="rgb(0,114,255)" stroke-width="2" fill="none"></polyline>
<polyline points="3123.41,1729.31,6630.3,983.146" stroke="rgb(255,204,0)" stroke-width="2" fill="none"></polyline>
<polyline points="1138.04,1861.01,5102,2088.41" stroke="rgb(255,212,0)" stroke-width="2" fill="none"></polyline>
<polyline points="1634.85,1292.52,5710.19,2100.61" stroke="rgb(0,29,255)" stroke-width="2" fill="none"></polyline>
<polyline points="3123.12,1621.09,5253.79,936.531" stroke="rgb(233,255,0)" stroke-width="2" fill="none"></polyline>
<polyline points="1734.36,972.503,5060.07,2191.06" stroke="rgb(0,255,191)" stroke-width="2" fill="none"></polyline>
<polyline points="2716.64,1826.74,6344.46,1035.45" stroke="rgb(0,255,93)" stroke-width="2" fill="none"></polyline>
<polyline points="2644.12,1891.65,6340.98,1122.33" stroke="rgb(255,0,157)" stroke-width="2" fill="none"></polyline>
<polyline points="2482.94,1908.27,5996.49,1135.78" stroke="rgb(80,0,255)" stroke-width="2" fill="none"></polyline>
<polyline points="2961.56,1802.53,6571.27,1084.04" stroke="rgb(0,25,255)" stroke-width="2" fill="none"></polyline>
<polyline points="3053.47,1873.2,6689.56,1099.18" stroke="rgb(12,0,255)" stroke-width="2" fill="none"></polyline>
<polyline points="2769.16,1654.57,6250.68,856.333" stroke="rgb(0,153,255)" stroke-width="2" fill="none"></polyline>
<polyline points="1356.98,1611.83,5264.01,873.118" stroke="rgb(12,0,255)" stroke-width="2" fill="none"></polyline>
<polyline points="1848.67,2009.84,5821.55,1687.62" stroke="rgb(0,178,255)" stroke-width="2" fill="none"></polyline>
<polyline points="1315.28,1614.43,5209.07,1815.82" stroke="rgb(0,8,255)" stroke-width="2" fill="none"></polyline>
<polyline points="2677.88,1965.22,6427.51,1192.5" stroke="rgb(0,255,131)" stroke-width="2" fill="none"></polyline>
<polyline points="2926.78,1844.41,6576.46,1122.08" stroke="rgb(21,0,255)" stroke-width="2" fill="none"></polyline>
<polyline points="2835.88,2000.36,5958.33,2178.94" stroke="rgb(0,255,93)" stroke-width="2" fill="none"></polyline>
<circle cx="3461.13" cy="1222.95" r="4" stroke="rgb(0,157,255)" stroke-width="2" fill="none"></circle>
<circle cx="5756.93" cy="733.041" r="4" stroke="rgb(0,157,255)" stroke-width="2" fill="none"></circle>
<circle cx="3021.43" cy="1830.09" r="4" stroke="rgb(67,0,255)" stroke-width="2" fill="none"></circle>
<circle cx="5772.97" cy="493.284" r="4" stroke="rgb(67,0,255)" stroke-width="2" fill="none"></circle>
<circle cx="1736.52" cy="1941.19" r="4" stroke="rgb(255,204,0)" stroke-width="2" fill="none"></circle>
<circle cx="6016.04" cy="1904.73" r="4" stroke="rgb(255,204,0)" stroke-width="2" fill="none"></circle>
<circle cx="3123.12" cy="1621.09" r="4" stroke="rgb(114,0,255)" stroke-width="2" fill="none"></circle>
<circle cx="5453.47" cy="545.539" r="4" stroke="rgb(114,0,255)" stroke-width="2" fill="none"></circle>
<circle cx="1650.67" cy="1064.59" r="4" stroke="rgb(106,255,0)" stroke-width="2" fill="none"></circle>
<circle cx="5750.94" cy="758.008" r="4" stroke="rgb(106,255,0)" stroke-width="2" fill="none"></circle>
<circle cx="2931.5" cy="1592.55" r="4" stroke="rgb(0,255,84)" stroke-width="2" fill="none"></circle>
<circle cx="5818.57" cy="1880.75" r="4" stroke="rgb(0,255,84)" stroke-width="2" fill="none"></circle>
<circle cx="2280.43" cy="1946.72" r="4" stroke="rgb(255,174,0)" stroke-width="2" fill="none"></circle>
<circle cx="6198.73" cy="1277.41" r="4" stroke="rgb(255,174,0)" stroke-width="2" fill="none"></circle>
<circle cx="3109.91" cy="1634.28" r="4" stroke="rgb(255,0,225)" stroke-width="2" fill="none"></circle>
<circle cx="6005.74" cy="1889.91" r="4" stroke="rgb(255,0,225)" stroke-width="2" fill="none"></circle>
<circle cx="2533.29" cy="1572.03" r="4" stroke="rgb(246,0,255)" stroke-width="2" fill="none"></circle>
<circle cx="5911.78" cy="625.193" r="4" stroke="rgb(246,0,255)" stroke-width="2" fill="none"></circle>
<circle cx="2813.05" cy="1594.94" r="4" stroke="rgb(0,255,8)" stroke-width="2" fill="none"></circle>
<circle cx="6242.68" cy="798.184" r="4" stroke="rgb(0,255,8)" stroke-width="2" fill="none"></circle>
<circle cx="2463.26" cy="1501.41" r="4" stroke="rgb(255,85,0)" stroke-width="2" fill="none"></circle>
<circle cx="6328.58" cy="1307.84" r="4" stroke="rgb(255,85,0)" stroke-width="2" fill="none"></circle>
<circle cx="2266.64" cy="1272.46" r="4" stroke="rgb(0,255,106)" stroke-width="2" fill="none"></circle>
<circle cx="6158.95" cy="718.367" r="4" stroke="rgb(0,255,106)" stroke-width="2" fill="none"></circle>
<circle cx="1967.8" cy="1720.33" r="4" stroke="rgb(21,255,0)" stroke-width="2" fill="none"></circle>
<circle cx="5747.59" cy="868.688" r="4" stroke="rgb(21,255,0)" stroke-width="2" fill="none"></circle>
<circle cx="2116.55" cy="1661.95" r="4" stroke="rgb(255,153,0)" stroke-width="2" fill="none"></circle>
<circle cx="5966.04" cy="878.612" r="4" stroke="rgb(255,153,0)" stroke-width="2" fill="none"></circle>
<circle cx="3126.16" cy="1503.32" r="4" stroke="rgb(255,110,0)" stroke-width="2" fill="none"></circle>
<circle cx="6561.08" cy="2137.09" r="4" stroke="rgb(255,110,0)" stroke-width="2" fill="none"></circle>
<circle cx="3132.68" cy="1520.44" r="4" stroke="rgb(0,76,255)" stroke-width="2" fill="none"></circle>
<circle cx="6564.58" cy="2143.52" r="4" stroke="rgb(0,76,255)" stroke-width="2" fill="none"></circle>
<circle cx="2023.35" cy="2055.37" r="4" stroke="rgb(0,85,255)" stroke-width="2" fill="none"></circle>
<circle cx="6286.97" cy="2147.81" r="4" stroke="rgb(0,85,255)" stroke-width="2" fill="none"></circle>
<circle cx="2396.37" cy="1450.03" r="4" stroke="rgb(165,0,255)" stroke-width="2" fill="none"></circle>
<circle cx="4946.14" cy="2151.02" r="4" stroke="rgb(165,0,255)" stroke-width="2" fill="none"></circle>
<circle cx="3147.14" cy="1808.84" r="4" stroke="rgb(255,0,237)" stroke-width="2" fill="none"></circle>
<circle cx="6065.41" cy="2184.89" r="4" stroke="rgb(255,0,237)" stroke-width="2" fill="none"></circle>
<circle cx="1832.69" cy="2000.9" r="4" stroke="rgb(255,38,0)" stroke-width="2" fill="none"></circle>
<circle cx="5942.58" cy="1481.94" r="4" stroke="rgb(255,38,0)" stroke-width="2" fill="none"></circle>
<circle cx="1576.34" cy="1851.91" r="4" stroke="rgb(157,255,0)" stroke-width="2" fill="none"></circle>
<circle cx="5590.64" cy="2337.23" r="4" stroke="rgb(157,255,0)" stroke-width="2" fill="none"></circle>
<circle cx="2515.5" cy="1003.5" r="4" stroke="rgb(0,255,178)" stroke-width="2" fill="none"></circle>
<circle cx="5703.24" cy="2326.7" r="4" stroke="rgb(0,255,178)" stroke-width="2" fill="none"></circle>
<circle cx="2879.35" cy="1882.99" r="4" stroke="rgb(255,148,0)" stroke-width="2" fill="none"></circle>
<circle cx="6447.65" cy="1038.77" r="4" stroke="rgb(255,148,0)" stroke-width="2" fill="none"></circle>
<circle cx="2458.93" cy="1512.18" r="4" stroke="rgb(255,199,0)" stroke-width="2" fill="none"></circle>
<circle cx="5834.29" cy="1190.54" r="4" stroke="rgb(255,199,0)" stroke-width="2" fill="none"></circle>
<circle cx="2600.84" cy="1565.38" r="4" stroke="rgb(255,136,0)" stroke-width="2" fill="none"></circle>
<circle cx="5846.28" cy="1234.89" r="4" stroke="rgb(255,136,0)" stroke-width="2" fill="none"></circle>
<circle cx="3179.89" cy="1757.21" r="4" stroke="rgb(255,0,187)" stroke-width="2" fill="none"></circle>
<circle cx="6663.06" cy="1825.23" r="4" stroke="rgb(255,0,187)" stroke-width="2" fill="none"></circle>
<circle cx="2672.44" cy="1866.5" r="4" stroke="rgb(255,0,4)" stroke-width="2" fill="none"></circle>
<circle cx="5776.09" cy="1176.65" r="4" stroke="rgb(255,0,4)" stroke-width="2" fill="none"></circle>
<circle cx="1226.5" cy="1619.72" r="4" stroke="rgb(135,255,0)" stroke-width="2" fill="none"></circle>
<circle cx="5126.17" cy="1855.52" r="4" stroke="rgb(135,255,0)" stroke-width="2" fill="none"></circle>
<circle cx="2405.09" cy="1523.34" r="4" stroke="rgb(255,140,0)" stroke-width="2" fill="none"></circle>
<circle cx="5939.33" cy="1223.04" r="4" stroke="rgb(255,140,0)" stroke-width="2" fill="none"></circle>
<circle cx="2616.35" cy="1973.77" r="4" stroke="rgb(255,178,0)" stroke-width="2" fill="none"></circle>
<circle cx="5526.68" cy="1482.9" r="4" stroke="rgb(255,178,0)" stroke-width="2" fill="none"></circle>
<circle cx="1832.69" cy="2000.9" r="4" stroke="rgb(255,208,0)" stroke-width="2" fill="none"></circle>
<circle cx="6001.68" cy="1486.78" r="4" stroke="rgb(255,208,0)" stroke-width="2" fill="none"></circle>
<circle cx="3197.5" cy="1678.07" r="4" stroke="rgb(51,255,0)" stroke-width="2" fill="none"></circle>
<circle cx="6151.99" cy="1491.28" r="4" stroke="rgb(51,255,0)" stroke-width="2" fill="none"></circle>
<circle cx="1815.49" cy="1988.67" r="4" stroke="rgb(246,0,255)" stroke-width="2" fill="none"></circle>
<circle cx="6005.45" cy="1494.3" r="4" stroke="rgb(246,0,255)" stroke-width="2" fill="none"></circle>
<circle cx="1144.54" cy="1848.84" r="4" stroke="rgb(97,255,0)" stroke-width="2" fill="none"></circle>
<circle cx="5102.3" cy="2074.06" r="4" stroke="rgb(97,255,0)" stroke-width="2" fill="none"></circle>
<circle cx="1293.89" cy="1625.1" r="4" stroke="rgb(255,63,0)" stroke-width="2" fill="none"></circle>
<circle cx="5193.7" cy="1833.99" r="4" stroke="rgb(255,63,0)" stroke-width="2" fill="none"></circle>
<circle cx="2621.62" cy="1491.73" r="4" stroke="rgb(255,140,0)" stroke-width="2" fill="none"></circle>
<circle cx="6294.03" cy="1862.37" r="4" stroke="rgb(255,140,0)" stroke-width="2" fill="none"></circle>
<circle cx="3179.89" cy="1757.21" r="4" stroke="rgb(0,12,255)" stroke-width="2" fill="none"></circle>
<circle cx="6657.2" cy="1874.71" r="4" stroke="rgb(0,12,255)" stroke-width="2" fill="none"></circle>
<circle cx="1813.39" cy="1119.48" r="4" stroke="rgb(255,238,0)" stroke-width="2" fill="none"></circle>
<circle cx="5334.01" cy="590.537" r="4" stroke="rgb(255,238,0)" stroke-width="2" fill="none"></circle>
<circle cx="3123.41" cy="1729.31" r="4" stroke="rgb(0,114,255)" stroke-width="2" fill="none"></circle>
<circle cx="6630.3" cy="983.146" r="4" stroke="rgb(0,114,255)" stroke-width="2" fill="none"></circle>
<circle cx="3123.41" cy="1729.31" r="4" stroke="rgb(255,204,0)" stroke-width="2" fill="none"></circle>
<circle cx="6630.3" cy="983.146" r="4" stroke="rgb(255,204,0)" stroke-width="2" fill="none"></circle>
<circle cx="1138.04" cy="1861.01" r="4" stroke="rgb(255,212,0)" stroke-width="2" fill="none"></circle>
<circle cx="5102" cy="2088.41" r="4" stroke="rgb(255,212,0)" stroke-width="2" fill="none"></circle>
<circle cx="1634.85" cy="1292.52" r="4" stroke="rgb(0,29,255)" stroke-width="2" fill="none"></circle>
<circle cx="5710.19" cy="2100.61" r="4" stroke="rgb(0,29,255)" stroke-width="2" fill="none"></circle>
<circle cx="3123.12" cy="1621.09" r="4" stroke="rgb(233,255,0)" stroke-width="2" fill="none"></circle>
<circle cx="5253.79" cy="936.531" r="4" stroke="rgb(233,255,0)" stroke-width="2" fill="none"></circle>
<circle cx="1734.36" cy="972.503" r="4" stroke="rgb(0,255,191)" stroke-width="2" fill="none"></circle>
<circle cx="5060.07" cy="2191.06" r="4" stroke="rgb(0,255,191)" stroke-width="2" fill="none"></circle>
<circle cx="2716.64" cy="1826.74" r="4" stroke="rgb(0,255,93)" stroke-width="2" fill="none"></circle>
<circle cx="6344.46" cy="1035.45" r="4" stroke="rgb(0,255,93)" stroke-width="2" fill="none"></circle>
<circle cx="2644.12" cy="1891.65" r="4" stroke="rgb(255,0,157)" stroke-width="2" fill="none"></circle>
<circle cx="6340.98" cy="1122.33" r="4" stroke="rgb(255,0,157)" stroke-width="2" fill="none"></circle>
<circle cx="2482.94" cy="1908.27" r="4" stroke="rgb(80,0,255)" stroke-width="2" fill="none"></circle>
<circle cx="5996.49" cy="1135.78" r="4" stroke="rgb(80,0,255)" stroke-width="2" fill="none"></circle>
<circle cx="2961.56" cy="1802.53" r="4" stroke="rgb(0,25,255)" stroke-width="2" fill="none"></circle>
<circle cx="6571.27" cy="1084.04" r="4" stroke="rgb(0,25,255)" stroke-width="2" fill="none"></circle>
<circle cx="3053.47" cy="1873.2" r="4" stroke="rgb(12,0,255)" stroke-width="2" fill="none"></circle>
<circle cx="6689.56" cy="1099.18" r="4" stroke="rgb(12,0,255)" stroke-width="2" fill="none"></circle>
<circle cx="2769.16" cy="1654.57" r="4" stroke="rgb(0,153,255)" stroke-width="2" fill="none"></circle>
<circle cx="6250.68" cy="856.333" r="4" stroke="rgb(0,153,255)" stroke-width="2" fill="none"></circle>
<circle cx="1356.98" cy="1611.83" r="4" stroke="rgb(12,0,255)" stroke-width="2" fill="none"></circle>
<circle cx="5264.01" cy="873.118" r="4" stroke="rgb(12,0,255)" stroke-width="2" fill="none"></circle>
<circle cx="1848.67" cy="2009.84" r="4" stroke="rgb(0,178,255)" stroke-width="2" fill="none"></circle>
<circle cx="5821.55" cy="1687.62" r="4" stroke="rgb(0,178,255)" stroke-width="2" fill="none"></circle>
<circle cx="1315.28" cy="1614.43" r="4" stroke="rgb(0,8,255)" stroke-width="2" fill="none"></circle>
<circle cx="5209.07" cy="1815.82" r="4" stroke="rgb(0,8,255)" stroke-width="2" fill="none"></circle>
<circle cx="2677.88" cy="1965.22" r="4" stroke="rgb(0,255,131)" stroke-width="2" fill="none"></circle>
<circle cx="6427.51" cy="1192.5" r="4" stroke="rgb(0,255,131)" stroke-width="2" fill="none"></circle>
<circle cx="2926.78" cy="1844.41" r="4" stroke="rgb(21,0,255)" stroke-width="2" fill="none"></circle>
<circle cx="6576.46" cy="1122.08" r="4" stroke="rgb(21,0,255)" stroke-width="2" fill="none"></circle>
<circle cx="2835.88" cy="2000.36" r="4" stroke="rgb(0,255,93)" stroke-width="2" fill="none"></circle>
<circle cx="5958.33" cy="2178.94" r="4" stroke="rgb(0,255,93)" stroke-width="2" fill="none"></circle>
</svg>