<?xml version="1.0" standalone="yes"?>
<!-- SVG graphic -->
<svg xmlns='http://www.w3.org/2000/svg' xmlns:xlink='http://www.w3.org/1999/xlink'
width="8064px" height="3024px" preserveAspectRatio="xMinYMin meet" viewBox="0 0 8064 3024" version="1.1">
<image x="0" y="0" width="4032px" height="3024px" opacity="1" xlink:href="/home/jeong/Code/2D-to-3D-Modeling-using-AI/Make3D/Image/20200227_180651.jpg"/>
<image x="4032" y="0" width="4032px" height="3024px" opacity="1" xlink:href="/home/jeong/Code/2D-to-3D-Modeling-using-AI/Make3D/Image/20200227_180735.jpg"/>
<polyline points="2384.94,771.372,6324.91,1374.61" stroke="rgb(0,144,255)" stroke-width="2" fill="none"></polyline>
<polyline points="2175.5,784.11,6059.15,2623.41" stroke="rgb(255,0,59)" stroke-width="2" fill="none"></polyline>
<polyline points="2860.11,838.697,5969.07,2600.75" stroke="rgb(0,255,144)" stroke-width="2" fill="none"></polyline>
<polyline points="3119.04,853.682,5215.07,2129.12" stroke="rgb(80,0,255)" stroke-width="2" fill="none"></polyline>
<polyline points="2491.47,865.349,5532.46,1736.09" stroke="rgb(255,0,204)" stroke-width="2" fill="none"></polyline>
<polyline points="2622.69,866.041,6459.5,2513.03" stroke="rgb(186,0,255)" stroke-width="2" fill="none"></polyline>
<polyline points="1921.85,896.028,5317.7,1901.69" stroke="rgb(0,255,131)" stroke-width="2" fill="none"></polyline>
<polyline points="2612.5,897.339,6029.24,2190.8" stroke="rgb(16,255,0)" stroke-width="2" fill="none"></polyline>
<polyline points="2935.15,932.961,5523.5,2055.74" stroke="rgb(255,191,0)" stroke-width="2" fill="none"></polyline>
<polyline points="2618.05,934.547,5449.34,1923.27" stroke="rgb(0,157,255)" stroke-width="2" fill="none"></polyline>
<polyline points="2940.95,939.025,5414.89,1952.75" stroke="rgb(0,255,97)" stroke-width="2" fill="none"></polyline>
<polyline points="2618.8,948.667,6023.02,2180.41" stroke="rgb(238,0,255)" stroke-width="2" fill="none"></polyline>
<polyline points="3008.36,953.882,5632.5,1724.22" stroke="rgb(255,225,0)" stroke-width="2" fill="none"></polyline>
<polyline points="2737.95,968.245,6079.02,2455.49" stroke="rgb(0,119,255)" stroke-width="2" fill="none"></polyline>
<polyline points="2726.44,975.743,6248.59,912.948" stroke="rgb(0,178,255)" stroke-width="2" fill="none"></polyline>
<polyline points="2569.84,979.226,5889.05,940.12" stroke="rgb(59,255,0)" stroke-width="2" fill="none"></polyline>
<polyline points="2240.25,990.569,5889.98,1268.66" stroke="rgb(144,0,255)" stroke-width="2" fill="none"></polyline>
<polyline points="3012.12,1002.01,6565.4,879.064" stroke="rgb(72,255,0)" stroke-width="2" fill="none"></polyline>
<polyline points="1607.08,1051.99,5719.8,1877.42" stroke="rgb(0,255,220)" stroke-width="2" fill="none"></polyline>
<polyline points="1650.67,1064.59,6250.69,1706.24" stroke="rgb(0,144,255)" stroke-width="2" fill="none"></polyline>
<polyline points="3042.65,1069.74,5300.43,2116.28" stroke="rgb(255,187,0)" stroke-width="2" fill="none"></polyline>
<polyline points="1813.39,1119.48,6707.32,1736.54" stroke="rgb(255,123,0)" stroke-width="2" fill="none"></polyline>
<polyline points="1725.45,1123.95,6515.77,1369.71" stroke="rgb(255,68,0)" stroke-width="2" fill="none"></polyline>
<polyline points="1708.47,1132.68,5583.51,1539.57" stroke="rgb(0,161,255)" stroke-width="2" fill="none"></polyline>
<polyline points="3405.08,1141.46,6561.82,1078.11" stroke="rgb(255,0,106)" stroke-width="2" fill="none"></polyline>
<polyline points="3317.34,1146.01,5908.29,1092.75" stroke="rgb(255,0,68)" stroke-width="2" fill="none"></polyline>
<polyline points="2020.98,1167.29,6926.84,1244.29" stroke="rgb(174,0,255)" stroke-width="2" fill="none"></polyline>
<polyline points="3169.58,1168.13,6653.27,1012.33" stroke="rgb(255,85,0)" stroke-width="2" fill="none"></polyline>
<polyline points="2048.02,1175.92,5412.22,2299.37" stroke="rgb(0,157,255)" stroke-width="2" fill="none"></polyline>
<polyline points="2019.09,1178.73,6904.16,1989.83" stroke="rgb(0,255,29)" stroke-width="2" fill="none"></polyline>
<polyline points="1996.88,1186.76,6056.9,1279.97" stroke="rgb(0,225,255)" stroke-width="2" fill="none"></polyline>
<polyline points="1556.8,1188.09,5428.46,1829.83" stroke="rgb(255,212,0)" stroke-width="2" fill="none"></polyline>
<polyline points="1885.12,1248.45,7036.77,1592.52" stroke="rgb(25,255,0)" stroke-width="2" fill="none"></polyline>
<polyline points="1841.33,1284.71,6717.6,1145.69" stroke="rgb(255,0,80)" stroke-width="2" fill="none"></polyline>
<polyline points="1634.85,1292.52,7026.24,1639.83" stroke="rgb(0,250,255)" stroke-width="2" fill="none"></polyline>
<polyline points="1808.55,1296.27,5800.55,1791.6" stroke="rgb(229,255,0)" stroke-width="2" fill="none"></polyline>
<polyline points="1366.06,1374.43,6054.58,2352.8" stroke="rgb(106,0,255)" stroke-width="2" fill="none"></polyline>
<polyline points="1710.34,1381.96,5747.01,1446.15" stroke="rgb(0,153,255)" stroke-width="2" fill="none"></polyline>
<polyline points="2939.8,1414.24,6748.26,1725.29" stroke="rgb(255,229,0)" stroke-width="2" fill="none"></polyline>
<polyline points="1651.44,1441.98,5856.77,1641.84" stroke="rgb(0,246,255)" stroke-width="2" fill="none"></polyline>
<polyline points="2884.53,1463.02,6454.66,1398.99" stroke="rgb(255,199,0)" stroke-width="2" fill="none"></polyline>
<polyline points="2388.42,1463.42,5837.71,1798.15" stroke="rgb(0,182,255)" stroke-width="2" fill="none"></polyline>
<polyline points="2505.41,1470.12,5452,1882.52" stroke="rgb(8,255,0)" stroke-width="2" fill="none"></polyline>
<polyline points="3124.21,1478.19,5919.34,1770.29" stroke="rgb(255,0,119)" stroke-width="2" fill="none"></polyline>
<polyline points="2593.8,1478.58,5597.54,1884.84" stroke="rgb(174,0,255)" stroke-width="2" fill="none"></polyline>
<polyline points="2460.48,1480.83,5441.37,2127.54" stroke="rgb(0,216,255)" stroke-width="2" fill="none"></polyline>
<polyline points="1264.97,1480.97,5759.1,1400.29" stroke="rgb(178,255,0)" stroke-width="2" fill="none"></polyline>
<polyline points="2556.34,1481.03,5828.21,1549.48" stroke="rgb(0,187,255)" stroke-width="2" fill="none"></polyline>
<polyline points="2837.07,1487.08,6917.83,1226.95" stroke="rgb(221,0,255)" stroke-width="2" fill="none"></polyline>
<polyline points="2529.17,1488.41,6205.24,2185.05" stroke="rgb(0,255,8)" stroke-width="2" fill="none"></polyline>
<polyline points="1271.03,1491.4,5718.17,2034.2" stroke="rgb(144,0,255)" stroke-width="2" fill="none"></polyline>
<polyline points="2540.21,1495.84,5819.54,1514.96" stroke="rgb(255,0,97)" stroke-width="2" fill="none"></polyline>
<polyline points="2031.9,1507.91,6117.82,2542.69" stroke="rgb(0,255,131)" stroke-width="2" fill="none"></polyline>
<polyline points="2455.22,1508.01,5489.34,1918.11" stroke="rgb(212,0,255)" stroke-width="2" fill="none"></polyline>
<polyline points="2437.12,1511.78,5498.45,1749.27" stroke="rgb(0,255,250)" stroke-width="2" fill="none"></polyline>
<polyline points="2562.89,1513.69,5554.94,1853.62" stroke="rgb(255,0,8)" stroke-width="2" fill="none"></polyline>
<polyline points="2589.23,1516.26,5283.39,1997.11" stroke="rgb(144,0,255)" stroke-width="2" fill="none"></polyline>
<polyline points="3132.68,1520.44,5763.9,2380" stroke="rgb(255,0,119)" stroke-width="2" fill="none"></polyline>
<polyline points="2144.16,1524.49,5959.55,2620.56" stroke="rgb(255,80,0)" stroke-width="2" fill="none"></polyline>
<polyline points="2504.9,1525.25,5583.28,1873.97" stroke="rgb(255,0,42)" stroke-width="2" fill="none"></polyline>
<polyline points="2311.84,1526.37,6448.06,2193.55" stroke="rgb(89,255,0)" stroke-width="2" fill="none"></polyline>
<polyline points="1323.71,1526.63,5691.79,2240.02" stroke="rgb(0,144,255)" stroke-width="2" fill="none"></polyline>
<polyline points="1366.32,1533.78,5697.14,2244.99" stroke="rgb(255,170,0)" stroke-width="2" fill="none"></polyline>
<polyline points="1434.14,1545.46,5647.21,2343.08" stroke="rgb(148,255,0)" stroke-width="2" fill="none"></polyline>
<polyline points="2038.22,1552.02,5884.35,1303.74" stroke="rgb(0,225,255)" stroke-width="2" fill="none"></polyline>
<polyline points="1268.71,1556.61,5462.93,1732.92" stroke="rgb(114,255,0)" stroke-width="2" fill="none"></polyline>
<polyline points="2857.37,1560.84,5423.16,2009.02" stroke="rgb(0,255,135)" stroke-width="2" fill="none"></polyline>
<polyline points="2843.29,1561.16,5748.75,1414.81" stroke="rgb(255,0,148)" stroke-width="2" fill="none"></polyline>
<polyline points="2482.44,1562.87,5381.74,1944.25" stroke="rgb(242,0,255)" stroke-width="2" fill="none"></polyline>
<polyline points="2159.37,1568.19,6125.16,2616.15" stroke="rgb(0,144,255)" stroke-width="2" fill="none"></polyline>
<polyline points="3118.08,1568.77,6556.06,1502.11" stroke="rgb(255,80,0)" stroke-width="2" fill="none"></polyline>
<polyline points="2870.69,1576.1,5723.14,1462.4" stroke="rgb(0,101,255)" stroke-width="2" fill="none"></polyline>
<polyline points="2028.25,1577.15,6427.44,1975.37" stroke="rgb(153,0,255)" stroke-width="2" fill="none"></polyline>
<polyline points="1213.35,1580.64,5395.13,1963.17" stroke="rgb(255,42,0)" stroke-width="2" fill="none"></polyline>
<polyline points="2476.11,1590.85,5835.83,1440.29" stroke="rgb(0,221,255)" stroke-width="2" fill="none"></polyline>
<polyline points="3100.98,1600.7,6206.13,2335.02" stroke="rgb(0,182,255)" stroke-width="2" fill="none"></polyline>
<polyline points="1253.64,1605.87,5895.98,1910.54" stroke="rgb(0,174,255)" stroke-width="2" fill="none"></polyline>
<polyline points="2067.97,1619.34,5460.3,1978.19" stroke="rgb(110,0,255)" stroke-width="2" fill="none"></polyline>
<polyline points="2155.24,1620.97,6052.37,801.182" stroke="rgb(106,0,255)" stroke-width="2" fill="none"></polyline>
<polyline points="1266.41,1625.59,6238.27,2006.86" stroke="rgb(0,255,46)" stroke-width="2" fill="none"></polyline>
<polyline points="3097.13,1626.85,6247.77,2305.33" stroke="rgb(255,119,0)" stroke-width="2" fill="none"></polyline>
<polyline points="2102.64,1629.61,5256.16,2112.01" stroke="rgb(0,255,250)" stroke-width="2" fill="none"></polyline>
<polyline points="1741.56,1629.71,5352.86,2613.88" stroke="rgb(255,0,85)" stroke-width="2" fill="none"></polyline>
<polyline points="3118.97,1631.55,5273.23,1961.9" stroke="rgb(255,221,0)" stroke-width="2" fill="none"></polyline>
<polyline points="2835.91,1635.06,6730.74,1726.95" stroke="rgb(46,255,0)" stroke-width="2" fill="none"></polyline>
<polyline points="1795.72,1662.22,6555.62,908.664" stroke="rgb(255,131,0)" stroke-width="2" fill="none"></polyline>
<polyline points="1112.6,1670.86,6599.11,918.291" stroke="rgb(255,212,0)" stroke-width="2" fill="none"></polyline>
<polyline points="2763.75,1671.23,5522.57,2141.5" stroke="rgb(67,0,255)" stroke-width="2" fill="none"></polyline>
<polyline points="2433.5,1684.84,5503.02,1960.19" stroke="rgb(255,12,0)" stroke-width="2" fill="none"></polyline>
<polyline points="2069.23,1685.56,5666.23,1737.9" stroke="rgb(216,255,0)" stroke-width="2" fill="none"></polyline>
<polyline points="2436.78,1691.61,5838.37,1338.58" stroke="rgb(25,0,255)" stroke-width="2" fill="none"></polyline>
<polyline points="3115.63,1696.23,5387.12,1827.84" stroke="rgb(255,0,106)" stroke-width="2" fill="none"></polyline>
<polyline points="3123.98,1697.02,5552.29,1643.64" stroke="rgb(0,255,114)" stroke-width="2" fill="none"></polyline>
<polyline points="2079.68,1697.29,5589.59,1828.42" stroke="rgb(0,255,161)" stroke-width="2" fill="none"></polyline>
<polyline points="3191.76,1698.19,5862.72,1606.04" stroke="rgb(255,255,0)" stroke-width="2" fill="none"></polyline>
<polyline points="2440.8,1698.66,5450.58,1942.56" stroke="rgb(255,0,106)" stroke-width="2" fill="none"></polyline>
<polyline points="3129.05,1699.58,5860.63,1787.23" stroke="rgb(0,255,12)" stroke-width="2" fill="none"></polyline>
<polyline points="975.015,1703.5,5489.23,1661.74" stroke="rgb(153,255,0)" stroke-width="2" fill="none"></polyline>
<polyline points="1967.8,1720.33,5629.15,1949.86" stroke="rgb(0,255,220)" stroke-width="2" fill="none"></polyline>
<polyline points="1857.95,1724.2,5983.05,860.795" stroke="rgb(255,255,0)" stroke-width="2" fill="none"></polyline>
<polyline points="2952.78,1726.42,6138.6,2518.35" stroke="rgb(216,0,255)" stroke-width="2" fill="none"></polyline>
<polyline points="3123.41,1729.31,5836.09,2675.37" stroke="rgb(242,255,0)" stroke-width="2" fill="none"></polyline>
<polyline points="889.605,1734.01,5791.58,2073.14" stroke="rgb(153,0,255)" stroke-width="2" fill="none"></polyline>
<polyline points="1847.79,1746.22,6398.83,1819.86" stroke="rgb(174,255,0)" stroke-width="2" fill="none"></polyline>
<polyline points="2344.08,1760.17,5521.29,1856.07" stroke="rgb(199,255,0)" stroke-width="2" fill="none"></polyline>
<polyline points="2966.48,1766.73,6530.54,1351.45" stroke="rgb(255,0,101)" stroke-width="2" fill="none"></polyline>
<polyline points="1639.77,1778.6,6140.23,1472.62" stroke="rgb(153,0,255)" stroke-width="2" fill="none"></polyline>
<polyline points="2650.33,1791.93,5994.89,1913.8" stroke="rgb(135,0,255)" stroke-width="2" fill="none"></polyline>
<polyline points="1817.57,1801.81,5895.99,1727.73" stroke="rgb(8,0,255)" stroke-width="2" fill="none"></polyline>
<polyline points="1900.44,1803.36,6023.67,816.471" stroke="rgb(0,246,255)" stroke-width="2" fill="none"></polyline>
<polyline points="1903.87,1818.46,5428.24,2304.55" stroke="rgb(153,0,255)" stroke-width="2" fill="none"></polyline>
<polyline points="1644.53,1821.92,5454.39,2118.38" stroke="rgb(0,255,93)" stroke-width="2" fill="none"></polyline>
<polyline points="2229.5,1827.61,5724.76,1431.74" stroke="rgb(255,4,0)" stroke-width="2" fill="none"></polyline>
<polyline points="3021.43,1830.09,6644.73,875.726" stroke="rgb(0,255,33)" stroke-width="2" fill="none"></polyline>
<polyline points="3067.18,1830.46,5681.68,1430.17" stroke="rgb(0,195,255)" stroke-width="2" fill="none"></polyline>
<polyline points="2404.01,1842.3,5348.84,2020.96" stroke="rgb(255,0,72)" stroke-width="2" fill="none"></polyline>
<polyline points="3010.06,1843.43,5669.68,2089.6" stroke="rgb(255,136,0)" stroke-width="2" fill="none"></polyline>
<polyline points="1576.34,1851.91,4662.85,2288.51" stroke="rgb(21,0,255)" stroke-width="2" fill="none"></polyline>
<polyline points="1138.04,1861.01,5856.4,1722.09" stroke="rgb(38,255,0)" stroke-width="2" fill="none"></polyline>
<polyline points="3001.71,1862.51,6490.66,2348.99" stroke="rgb(255,148,0)" stroke-width="2" fill="none"></polyline>
<polyline points="3033.99,1867.58,6991.13,1807.49" stroke="rgb(0,229,255)" stroke-width="2" fill="none"></polyline>
<polyline points="3034.51,1883.3,5926.78,1050.2" stroke="rgb(0,46,255)" stroke-width="2" fill="none"></polyline>
<polyline points="2263.18,1887.88,5848.5,1555.63" stroke="rgb(8,0,255)" stroke-width="2" fill="none"></polyline>
<polyline points="2621.08,1903.26,5888.37,1315.08" stroke="rgb(255,0,110)" stroke-width="2" fill="none"></polyline>
<polyline points="2753.23,1904.58,5498.03,1773.63" stroke="rgb(80,0,255)" stroke-width="2" fill="none"></polyline>
<polyline points="1850.31,1917.14,5513,1766.94" stroke="rgb(255,0,242)" stroke-width="2" fill="none"></polyline>
<polyline points="3026.73,1932.07,5030.66,2544.05" stroke="rgb(0,250,255)" stroke-width="2" fill="none"></polyline>
<polyline points="2445.2,1933.66,6975.92,1755.04" stroke="rgb(255,93,0)" stroke-width="2" fill="none"></polyline>
<polyline points="1743.98,1934.2,4666.98,2278.4" stroke="rgb(255,114,0)" stroke-width="2" fill="none"></polyline>
<polyline points="2953.48,1938.73,5229.59,2030.17" stroke="rgb(0,63,255)" stroke-width="2" fill="none"></polyline>
<polyline points="2177.83,1940.85,6010.17,2167.35" stroke="rgb(255,0,195)" stroke-width="2" fill="none"></polyline>
<polyline points="2827.09,1945.38,5633.5,1508.51" stroke="rgb(0,212,255)" stroke-width="2" fill="none"></polyline>
<polyline points="2077.41,1946.39,5660.25,1457.53" stroke="rgb(203,0,255)" stroke-width="2" fill="none"></polyline>
<polyline points="1346.29,1950.86,5734.68,2045.31" stroke="rgb(0,42,255)" stroke-width="2" fill="none"></polyline>
<polyline points="1366.03,1985.1,6347.39,2429.41" stroke="rgb(123,0,255)" stroke-width="2" fill="none"></polyline>
<polyline points="2835.88,2000.36,5729.55,1322.22" stroke="rgb(255,8,0)" stroke-width="2" fill="none"></polyline>
<polyline points="2003.08,2001.13,5844.85,2679.28" stroke="rgb(178,255,0)" stroke-width="2" fill="none"></polyline>
<polyline points="1928.05,2002.55,5473.03,1970.98" stroke="rgb(255,246,0)" stroke-width="2" fill="none"></polyline>
<polyline points="1937.47,2006.07,6065.03,2329.89" stroke="rgb(0,255,110)" stroke-width="2" fill="none"></polyline>
<polyline points="1903.85,2006.26,5414.9,2015.02" stroke="rgb(255,0,169)" stroke-width="2" fill="none"></polyline>
<polyline points="1980.17,2007.92,5334.42,1905.88" stroke="rgb(33,255,0)" stroke-width="2" fill="none"></polyline>
<polyline points="2412.25,2044.13,5763.32,1299.84" stroke="rgb(229,0,255)" stroke-width="2" fill="none"></polyline>
<polyline points="2035.51,2058.79,5872.13,1780.47" stroke="rgb(255,0,110)" stroke-width="2" fill="none"></polyline>
<circle cx="2384.94" cy="771.372" r="4" stroke="rgb(0,144,255)" stroke-width="2" fill="none"></circle>
<circle cx="6324.91" cy="1374.61" r="4" stroke="rgb(0,144,255)" stroke-width="2" fill="none"></circle>
<circle cx="2175.5" cy="784.11" r="4" stroke="rgb(255,0,59)" stroke-width="2" fill="none"></circle>
<circle cx="6059.15" cy="2623.41" r="4" stroke="rgb(255,0,59)" stroke-width="2" fill="none"></circle>
<circle cx="2860.11" cy="838.697" r="4" stroke="rgb(0,255,144)" stroke-width="2" fill="none"></circle>
<circle cx="5969.07" cy="2600.75" r="4" stroke="rgb(0,255,144)" stroke-width="2" fill="none"></circle>
<circle cx="3119.04" cy="853.682" r="4" stroke="rgb(80,0,255)" stroke-width="2" fill="none"></circle>
<circle cx="5215.07" cy="2129.12" r="4" stroke="rgb(80,0,255)" stroke-width="2" fill="none"></circle>
<circle cx="2491.47" cy="865.349" r="4" stroke="rgb(255,0,204)" stroke-width="2" fill="none"></circle>
<circle cx="5532.46" cy="1736.09" r="4" stroke="rgb(255,0,204)" stroke-width="2" fill="none"></circle>
<circle cx="2622.69" cy="866.041" r="4" stroke="rgb(186,0,255)" stroke-width="2" fill="none"></circle>
<circle cx="6459.5" cy="2513.03" r="4" stroke="rgb(186,0,255)" stroke-width="2" fill="none"></circle>
<circle cx="1921.85" cy="896.028" r="4" stroke="rgb(0,255,131)" stroke-width="2" fill="none"></circle>
<circle cx="5317.7" cy="1901.69" r="4" stroke="rgb(0,255,131)" stroke-width="2" fill="none"></circle>
<circle cx="2612.5" cy="897.339" r="4" stroke="rgb(16,255,0)" stroke-width="2" fill="none"></circle>
<circle cx="6029.24" cy="2190.8" r="4" stroke="rgb(16,255,0)" stroke-width="2" fill="none"></circle>
<circle cx="2935.15" cy="932.961" r="4" stroke="rgb(255,191,0)" stroke-width="2" fill="none"></circle>
<circle cx="5523.5" cy="2055.74" r="4" stroke="rgb(255,191,0)" stroke-width="2" fill="none"></circle>
<circle cx="2618.05" cy="934.547" r="4" stroke="rgb(0,157,255)" stroke-width="2" fill="none"></circle>
<circle cx="5449.34" cy="1923.27" r="4" stroke="rgb(0,157,255)" stroke-width="2" fill="none"></circle>
<circle cx="2940.95" cy="939.025" r="4" stroke="rgb(0,255,97)" stroke-width="2" fill="none"></circle>
<circle cx="5414.89" cy="1952.75" r="4" stroke="rgb(0,255,97)" stroke-width="2" fill="none"></circle>
<circle cx="2618.8" cy="948.667" r="4" stroke="rgb(238,0,255)" stroke-width="2" fill="none"></circle>
<circle cx="6023.02" cy="2180.41" r="4" stroke="rgb(238,0,255)" stroke-width="2" fill="none"></circle>
<circle cx="3008.36" cy="953.882" r="4" stroke="rgb(255,225,0)" stroke-width="2" fill="none"></circle>
<circle cx="5632.5" cy="1724.22" r="4" stroke="rgb(255,225,0)" stroke-width="2" fill="none"></circle>
<circle cx="2737.95" cy="968.245" r="4" stroke="rgb(0,119,255)" stroke-width="2" fill="none"></circle>
<circle cx="6079.02" cy="2455.49" r="4" stroke="rgb(0,119,255)" stroke-width="2" fill="none"></circle>
<circle cx="2726.44" cy="975.743" r="4" stroke="rgb(0,178,255)" stroke-width="2" fill="none"></circle>
<circle cx="6248.59" cy="912.948" r="4" stroke="rgb(0,178,255)" stroke-width="2" fill="none"></circle>
<circle cx="2569.84" cy="979.226" r="4" stroke="rgb(59,255,0)" stroke-width="2" fill="none"></circle>
<circle cx="5889.05" cy="940.12" r="4" stroke="rgb(59,255,0)" stroke-width="2" fill="none"></circle>
<circle cx="2240.25" cy="990.569" r="4" stroke="rgb(144,0,255)" stroke-width="2" fill="none"></circle>
<circle cx="5889.98" cy="1268.66" r="4" stroke="rgb(144,0,255)" stroke-width="2" fill="none"></circle>
<circle cx="3012.12" cy="1002.01" r="4" stroke="rgb(72,255,0)" stroke-width="2" fill="none"></circle>
<circle cx="6565.4" cy="879.064" r="4" stroke="rgb(72,255,0)" stroke-width="2" fill="none"></circle>
<circle cx="1607.08" cy="1051.99" r="4" stroke="rgb(0,255,220)" stroke-width="2" fill="none"></circle>
<circle cx="5719.8" cy="1877.42" r="4" stroke="rgb(0,255,220)" stroke-width="2" fill="none"></circle>
<circle cx="1650.67" cy="1064.59" r="4" stroke="rgb(0,144,255)" stroke-width="2" fill="none"></circle>
<circle cx="6250.69" cy="1706.24" r="4" stroke="rgb(0,144,255)" stroke-width="2" fill="none"></circle>
<circle cx="3042.65" cy="1069.74" r="4" stroke="rgb(255,187,0)" stroke-width="2" fill="none"></circle>
<circle cx="5300.43" cy="2116.28" r="4" stroke="rgb(255,187,0)" stroke-width="2" fill="none"></circle>
<circle cx="1813.39" cy="1119.48" r="4" stroke="rgb(255,123,0)" stroke-width="2" fill="none"></circle>
<circle cx="6707.32" cy="1736.54" r="4" stroke="rgb(255,123,0)" stroke-width="2" fill="none"></circle>
<circle cx="1725.45" cy="1123.95" r="4" stroke="rgb(255,68,0)" stroke-width="2" fill="none"></circle>
<circle cx="6515.77" cy="1369.71" r="4" stroke="rgb(255,68,0)" stroke-width="2" fill="none"></circle>
<circle cx="1708.47" cy="1132.68" r="4" stroke="rgb(0,161,255)" stroke-width="2" fill="none"></circle>
<circle cx="5583.51" cy="1539.57" r="4" stroke="rgb(0,161,255)" stroke-width="2" fill="none"></circle>
<circle cx="3405.08" cy="1141.46" r="4" stroke="rgb(255,0,106)" stroke-width="2" fill="none"></circle>
<circle cx="6561.82" cy="1078.11" r="4" stroke="rgb(255,0,106)" stroke-width="2" fill="none"></circle>
<circle cx="3317.34" cy="1146.01" r="4" stroke="rgb(255,0,68)" stroke-width="2" fill="none"></circle>
<circle cx="5908.29" cy="1092.75" r="4" stroke="rgb(255,0,68)" stroke-width="2" fill="none"></circle>
<circle cx="2020.98" cy="1167.29" r="4" stroke="rgb(174,0,255)" stroke-width="2" fill="none"></circle>
<circle cx="6926.84" cy="1244.29" r="4" stroke="rgb(174,0,255)" stroke-width="2" fill="none"></circle>
<circle cx="3169.58" cy="1168.13" r="4" stroke="rgb(255,85,0)" stroke-width="2" fill="none"></circle>
<circle cx="6653.27" cy="1012.33" r="4" stroke="rgb(255,85,0)" stroke-width="2" fill="none"></circle>
<circle cx="2048.02" cy="1175.92" r="4" stroke="rgb(0,157,255)" stroke-width="2" fill="none"></circle>
<circle cx="5412.22" cy="2299.37" r="4" stroke="rgb(0,157,255)" stroke-width="2" fill="none"></circle>
<circle cx="2019.09" cy="1178.73" r="4" stroke="rgb(0,255,29)" stroke-width="2" fill="none"></circle>
<circle cx="6904.16" cy="1989.83" r="4" stroke="rgb(0,255,29)" stroke-width="2" fill="none"></circle>
<circle cx="1996.88" cy="1186.76" r="4" stroke="rgb(0,225,255)" stroke-width="2" fill="none"></circle>
<circle cx="6056.9" cy="1279.97" r="4" stroke="rgb(0,225,255)" stroke-width="2" fill="none"></circle>
<circle cx="1556.8" cy="1188.09" r="4" stroke="rgb(255,212,0)" stroke-width="2" fill="none"></circle>
<circle cx="5428.46" cy="1829.83" r="4" stroke="rgb(255,212,0)" stroke-width="2" fill="none"></circle>
<circle cx="1885.12" cy="1248.45" r="4" stroke="rgb(25,255,0)" stroke-width="2" fill="none"></circle>
<circle cx="7036.77" cy="1592.52" r="4" stroke="rgb(25,255,0)" stroke-width="2" fill="none"></circle>
<circle cx="1841.33" cy="1284.71" r="4" stroke="rgb(255,0,80)" stroke-width="2" fill="none"></circle>
<circle cx="6717.6" cy="1145.69" r="4" stroke="rgb(255,0,80)" stroke-width="2" fill="none"></circle>
<circle cx="1634.85" cy="1292.52" r="4" stroke="rgb(0,250,255)" stroke-width="2" fill="none"></circle>
<circle cx="7026.24" cy="1639.83" r="4" stroke="rgb(0,250,255)" stroke-width="2" fill="none"></circle>
<circle cx="1808.55" cy="1296.27" r="4" stroke="rgb(229,255,0)" stroke-width="2" fill="none"></circle>
<circle cx="5800.55" cy="1791.6" r="4" stroke="rgb(229,255,0)" stroke-width="2" fill="none"></circle>
<circle cx="1366.06" cy="1374.43" r="4" stroke="rgb(106,0,255)" stroke-width="2" fill="none"></circle>
<circle cx="6054.58" cy="2352.8" r="4" stroke="rgb(106,0,255)" stroke-width="2" fill="none"></circle>
<circle cx="1710.34" cy="1381.96" r="4" stroke="rgb(0,153,255)" stroke-width="2" fill="none"></circle>
<circle cx="5747.01" cy="1446.15" r="4" stroke="rgb(0,153,255)" stroke-width="2" fill="none"></circle>
<circle cx="2939.8" cy="1414.24" r="4" stroke="rgb(255,229,0)" stroke-width="2" fill="none"></circle>
<circle cx="6748.26" cy="1725.29" r="4" stroke="rgb(255,229,0)" stroke-width="2" fill="none"></circle>
<circle cx="1651.44" cy="1441.98" r="4" stroke="rgb(0,246,255)" stroke-width="2" fill="none"></circle>
<circle cx="5856.77" cy="1641.84" r="4" stroke="rgb(0,246,255)" stroke-width="2" fill="none"></circle>
<circle cx="2884.53" cy="1463.02" r="4" stroke="rgb(255,199,0)" stroke-width="2" fill="none"></circle>
<circle cx="6454.66" cy="1398.99" r="4" stroke="rgb(255,199,0)" stroke-width="2" fill="none"></circle>
<circle cx="2388.42" cy="1463.42" r="4" stroke="rgb(0,182,255)" stroke-width="2" fill="none"></circle>
<circle cx="5837.71" cy="1798.15" r="4" stroke="rgb(0,182,255)" stroke-width="2" fill="none"></circle>
<circle cx="2505.41" cy="1470.12" r="4" stroke="rgb(8,255,0)" stroke-width="2" fill="none"></circle>
<circle cx="5452" cy="1882.52" r="4" stroke="rgb(8,255,0)" stroke-width="2" fill="none"></circle>
<circle cx="3124.21" cy="1478.19" r="4" stroke="rgb(255,0,119)" stroke-width="2" fill="none"></circle>
<circle cx="5919.34" cy="1770.29" r="4" stroke="rgb(255,0,119)" stroke-width="2" fill="none"></circle>
<circle cx="2593.8" cy="1478.58" r="4" stroke="rgb(174,0,255)" stroke-width="2" fill="none"></circle>
<circle cx="5597.54" cy="1884.84" r="4" stroke="rgb(174,0,255)" stroke-width="2" fill="none"></circle>
<circle cx="2460.48" cy="1480.83" r="4" stroke="rgb(0,216,255)" stroke-width="2" fill="none"></circle>
<circle cx="5441.37" cy="2127.54" r="4" stroke="rgb(0,216,255)" stroke-width="2" fill="none"></circle>
<circle cx="1264.97" cy="1480.97" r="4" stroke="rgb(178,255,0)" stroke-width="2" fill="none"></circle>
<circle cx="5759.1" cy="1400.29" r="4" stroke="rgb(178,255,0)" stroke-width="2" fill="none"></circle>
<circle cx="2556.34" cy="1481.03" r="4" stroke="rgb(0,187,255)" stroke-width="2" fill="none"></circle>
<circle cx="5828.21" cy="1549.48" r="4" stroke="rgb(0,187,255)" stroke-width="2" fill="none"></circle>
<circle cx="2837.07" cy="1487.08" r="4" stroke="rgb(221,0,255)" stroke-width="2" fill="none"></circle>
<circle cx="6917.83" cy="1226.95" r="4" stroke="rgb(221,0,255)" stroke-width="2" fill="none"></circle>
<circle cx="2529.17" cy="1488.41" r="4" stroke="rgb(0,255,8)" stroke-width="2" fill="none"></circle>
<circle cx="6205.24" cy="2185.05" r="4" stroke="rgb(0,255,8)" stroke-width="2" fill="none"></circle>
<circle cx="1271.03" cy="1491.4" r="4" stroke="rgb(144,0,255)" stroke-width="2" fill="none"></circle>
<circle cx="5718.17" cy="2034.2" r="4" stroke="rgb(144,0,255)" stroke-width="2" fill="none"></circle>
<circle cx="2540.21" cy="1495.84" r="4" stroke="rgb(255,0,97)" stroke-width="2" fill="none"></circle>
<circle cx="5819.54" cy="1514.96" r="4" stroke="rgb(255,0,97)" stroke-width="2" fill="none"></circle>
<circle cx="2031.9" cy="1507.91" r="4" stroke="rgb(0,255,131)" stroke-width="2" fill="none"></circle>
<circle cx="6117.82" cy="2542.69" r="4" stroke="rgb(0,255,131)" stroke-width="2" fill="none"></circle>
<circle cx="2455.22" cy="1508.01" r="4" stroke="rgb(212,0,255)" stroke-width="2" fill="none"></circle>
<circle cx="5489.34" cy="1918.11" r="4" stroke="rgb(212,0,255)" stroke-width="2" fill="none"></circle>
<circle cx="2437.12" cy="1511.78" r="4" stroke="rgb(0,255,250)" stroke-width="2" fill="none"></circle>
<circle cx="5498.45" cy="1749.27" r="4" stroke="rgb(0,255,250)" stroke-width="2" fill="none"></circle>
<circle cx="2562.89" cy="1513.69" r="4" stroke="rgb(255,0,8)" stroke-width="2" fill="none"></circle>
<circle cx="5554.94" cy="1853.62" r="4" stroke="rgb(255,0,8)" stroke-width="2" fill="none"></circle>
<circle cx="2589.23" cy="1516.26" r="4" stroke="rgb(144,0,255)" stroke-width="2" fill="none"></circle>
<circle cx="5283.39" cy="1997.11" r="4" stroke="rgb(144,0,255)" stroke-width="2" fill="none"></circle>
<circle cx="3132.68" cy="1520.44" r="4" stroke="rgb(255,0,119)" stroke-width="2" fill="none"></circle>
<circle cx="5763.9" cy="2380" r="4" stroke="rgb(255,0,119)" stroke-width="2" fill="none"></circle>
<circle cx="2144.16" cy="1524.49" r="4" stroke="rgb(255,80,0)" stroke-width="2" fill="none"></circle>
<circle cx="5959.55" cy="2620.56" r="4" stroke="rgb(255,80,0)" stroke-width="2" fill="none"></circle>
<circle cx="2504.9" cy="1525.25" r="4" stroke="rgb(255,0,42)" stroke-width="2" fill="none"></circle>
<circle cx="5583.28" cy="1873.97" r="4" stroke="rgb(255,0,42)" stroke-width="2" fill="none"></circle>
<circle cx="2311.84" cy="1526.37" r="4" stroke="rgb(89,255,0)" stroke-width="2" fill="none"></circle>
<circle cx="6448.06" cy="2193.55" r="4" stroke="rgb(89,255,0)" stroke-width="2" fill="none"></circle>
<circle cx="1323.71" cy="1526.63" r="4" stroke="rgb(0,144,255)" stroke-width="2" fill="none"></circle>
<circle cx="5691.79" cy="2240.02" r="4" stroke="rgb(0,144,255)" stroke-width="2" fill="none"></circle>
<circle cx="1366.32" cy="1533.78" r="4" stroke="rgb(255,170,0)" stroke-width="2" fill="none"></circle>
<circle cx="5697.14" cy="2244.99" r="4" stroke="rgb(255,170,0)" stroke-width="2" fill="none"></circle>
<circle cx="1434.14" cy="1545.46" r="4" stroke="rgb(148,255,0)" stroke-width="2" fill="none"></circle>
<circle cx="5647.21" cy="2343.08" r="4" stroke="rgb(148,255,0)" stroke-width="2" fill="none"></circle>
<circle cx="2038.22" cy="1552.02" r="4" stroke="rgb(0,225,255)" stroke-width="2" fill="none"></circle>
<circle cx="5884.35" cy="1303.74" r="4" stroke="rgb(0,225,255)" stroke-width="2" fill="none"></circle>
<circle cx="1268.71" cy="1556.61" r="4" stroke="rgb(114,255,0)" stroke-width="2" fill="none"></circle>
<circle cx="5462.93" cy="1732.92" r="4" stroke="rgb(114,255,0)" stroke-width="2" fill="none"></circle>
<circle cx="2857.37" cy="1560.84" r="4" stroke="rgb(0,255,135)" stroke-width="2" fill="none"></circle>
<circle cx="5423.16" cy="2009.02" r="4" stroke="rgb(0,255,135)" stroke-width="2" fill="none"></circle>
<circle cx="2843.29" cy="1561.16" r="4" stroke="rgb(255,0,148)" stroke-width="2" fill="none"></circle>
<circle cx="5748.75" cy="1414.81" r="4" stroke="rgb(255,0,148)" stroke-width="2" fill="none"></circle>
<circle cx="2482.44" cy="1562.87" r="4" stroke="rgb(242,0,255)" stroke-width="2" fill="none"></circle>
<circle cx="5381.74" cy="1944.25" r="4" stroke="rgb(242,0,255)" stroke-width="2" fill="none"></circle>
<circle cx="2159.37" cy="1568.19" r="4" stroke="rgb(0,144,255)" stroke-width="2" fill="none"></circle>
<circle cx="6125.16" cy="2616.15" r="4" stroke="rgb(0,144,255)" stroke-width="2" fill="none"></circle>
<circle cx="3118.08" cy="1568.77" r="4" stroke="rgb(255,80,0)" stroke-width="2" fill="none"></circle>
<circle cx="6556.06" cy="1502.11" r="4" stroke="rgb(255,80,0)" stroke-width="2" fill="none"></circle>
<circle cx="2870.69" cy="1576.1" r="4" stroke="rgb(0,101,255)" stroke-width="2" fill="none"></circle>
<circle cx="5723.14" cy="1462.4" r="4" stroke="rgb(0,101,255)" stroke-width="2" fill="none"></circle>
<circle cx="2028.25" cy="1577.15" r="4" stroke="rgb(153,0,255)" stroke-width="2" fill="none"></circle>
<circle cx="6427.44" cy="1975.37" r="4" stroke="rgb(153,0,255)" stroke-width="2" fill="none"></circle>
<circle cx="1213.35" cy="1580.64" r="4" stroke="rgb(255,42,0)" stroke-width="2" fill="none"></circle>
<circle cx="5395.13" cy="1963.17" r="4" stroke="rgb(255,42,0)" stroke-width="2" fill="none"></circle>
<circle cx="2476.11" cy="1590.85" r="4" stroke="rgb(0,221,255)" stroke-width="2" fill="none"></circle>
<circle cx="5835.83" cy="1440.29" r="4" stroke="rgb(0,221,255)" stroke-width="2" fill="none"></circle>
<circle cx="3100.98" cy="1600.7" r="4" stroke="rgb(0,182,255)" stroke-width="2" fill="none"></circle>
<circle cx="6206.13" cy="2335.02" r="4" stroke="rgb(0,182,255)" stroke-width="2" fill="none"></circle>
<circle cx="1253.64" cy="1605.87" r="4" stroke="rgb(0,174,255)" stroke-width="2" fill="none"></circle>
<circle cx="5895.98" cy="1910.54" r="4" stroke="rgb(0,174,255)" stroke-width="2" fill="none"></circle>
<circle cx="2067.97" cy="1619.34" r="4" stroke="rgb(110,0,255)" stroke-width="2" fill="none"></circle>
<circle cx="5460.3" cy="1978.19" r="4" stroke="rgb(110,0,255)" stroke-width="2" fill="none"></circle>
<circle cx="2155.24" cy="1620.97" r="4" stroke="rgb(106,0,255)" stroke-width="2" fill="none"></circle>
<circle cx="6052.37" cy="801.182" r="4" stroke="rgb(106,0,255)" stroke-width="2" fill="none"></circle>
<circle cx="1266.41" cy="1625.59" r="4" stroke="rgb(0,255,46)" stroke-width="2" fill="none"></circle>
<circle cx="6238.27" cy="2006.86" r="4" stroke="rgb(0,255,46)" stroke-width="2" fill="none"></circle>
<circle cx="3097.13" cy="1626.85" r="4" stroke="rgb(255,119,0)" stroke-width="2" fill="none"></circle>
<circle cx="6247.77" cy="2305.33" r="4" stroke="rgb(255,119,0)" stroke-width="2" fill="none"></circle>
<circle cx="2102.64" cy="1629.61" r="4" stroke="rgb(0,255,250)" stroke-width="2" fill="none"></circle>
<circle cx="5256.16" cy="2112.01" r="4" stroke="rgb(0,255,250)" stroke-width="2" fill="none"></circle>
<circle cx="1741.56" cy="1629.71" r="4" stroke="rgb(255,0,85)" stroke-width="2" fill="none"></circle>
<circle cx="5352.86" cy="2613.88" r="4" stroke="rgb(255,0,85)" stroke-width="2" fill="none"></circle>
<circle cx="3118.97" cy="1631.55" r="4" stroke="rgb(255,221,0)" stroke-width="2" fill="none"></circle>
<circle cx="5273.23" cy="1961.9" r="4" stroke="rgb(255,221,0)" stroke-width="2" fill="none"></circle>
<circle cx="2835.91" cy="1635.06" r="4" stroke="rgb(46,255,0)" stroke-width="2" fill="none"></circle>
<circle cx="6730.74" cy="1726.95" r="4" stroke="rgb(46,255,0)" stroke-width="2" fill="none"></circle>
<circle cx="1795.72" cy="1662.22" r="4" stroke="rgb(255,131,0)" stroke-width="2" fill="none"></circle>
<circle cx="6555.62" cy="908.664" r="4" stroke="rgb(255,131,0)" stroke-width="2" fill="none"></circle>
<circle cx="1112.6" cy="1670.86" r="4" stroke="rgb(255,212,0)" stroke-width="2" fill="none"></circle>
<circle cx="6599.11" cy="918.291" r="4" stroke="rgb(255,212,0)" stroke-width="2" fill="none"></circle>
<circle cx="2763.75" cy="1671.23" r="4" stroke="rgb(67,0,255)" stroke-width="2" fill="none"></circle>
<circle cx="5522.57" cy="2141.5" r="4" stroke="rgb(67,0,255)" stroke-width="2" fill="none"></circle>
<circle cx="2433.5" cy="1684.84" r="4" stroke="rgb(255,12,0)" stroke-width="2" fill="none"></circle>
<circle cx="5503.02" cy="1960.19" r="4" stroke="rgb(255,12,0)" stroke-width="2" fill="none"></circle>
<circle cx="2069.23" cy="1685.56" r="4" stroke="rgb(216,255,0)" stroke-width="2" fill="none"></circle>
<circle cx="5666.23" cy="1737.9" r="4" stroke="rgb(216,255,0)" stroke-width="2" fill="none"></circle>
<circle cx="2436.78" cy="1691.61" r="4" stroke="rgb(25,0,255)" stroke-width="2" fill="none"></circle>
<circle cx="5838.37" cy="1338.58" r="4" stroke="rgb(25,0,255)" stroke-width="2" fill="none"></circle>
<circle cx="3115.63" cy="1696.23" r="4" stroke="rgb(255,0,106)" stroke-width="2" fill="none"></circle>
<circle cx="5387.12" cy="1827.84" r="4" stroke="rgb(255,0,106)" stroke-width="2" fill="none"></circle>
<circle cx="3123.98" cy="1697.02" r="4" stroke="rgb(0,255,114)" stroke-width="2" fill="none"></circle>
<circle cx="5552.29" cy="1643.64" r="4" stroke="rgb(0,255,114)" stroke-width="2" fill="none"></circle>
<circle cx="2079.68" cy="1697.29" r="4" stroke="rgb(0,255,161)" stroke-width="2" fill="none"></circle>
<circle cx="5589.59" cy="1828.42" r="4" stroke="rgb(0,255,161)" stroke-width="2" fill="none"></circle>
<circle cx="3191.76" cy="1698.19" r="4" stroke="rgb(255,255,0)" stroke-width="2" fill="none"></circle>
<circle cx="5862.72" cy="1606.04" r="4" stroke="rgb(255,255,0)" stroke-width="2" fill="none"></circle>
<circle cx="2440.8" cy="1698.66" r="4" stroke="rgb(255,0,106)" stroke-width="2" fill="none"></circle>
<circle cx="5450.58" cy="1942.56" r="4" stroke="rgb(255,0,106)" stroke-width="2" fill="none"></circle>
<circle cx="3129.05" cy="1699.58" r="4" stroke="rgb(0,255,12)" stroke-width="2" fill="none"></circle>
<circle cx="5860.63" cy="1787.23" r="4" stroke="rgb(0,255,12)" stroke-width="2" fill="none"></circle>
<circle cx="975.015" cy="1703.5" r="4" stroke="rgb(153,255,0)" stroke-width="2" fill="none"></circle>
<circle cx="5489.23" cy="1661.74" r="4" stroke="rgb(153,255,0)" stroke-width="2" fill="none"></circle>
<circle cx="1967.8" cy="1720.33" r="4" stroke="rgb(0,255,220)" stroke-width="2" fill="none"></circle>
<circle cx="5629.15" cy="1949.86" r="4" stroke="rgb(0,255,220)" stroke-width="2" fill="none"></circle>
<circle cx="1857.95" cy="1724.2" r="4" stroke="rgb(255,255,0)" stroke-width="2" fill="none"></circle>
<circle cx="5983.05" cy="860.795" r="4" stroke="rgb(255,255,0)" stroke-width="2" fill="none"></circle>
<circle cx="2952.78" cy="1726.42" r="4" stroke="rgb(216,0,255)" stroke-width="2" fill="none"></circle>
<circle cx="6138.6" cy="2518.35" r="4" stroke="rgb(216,0,255)" stroke-width="2" fill="none"></circle>
<circle cx="3123.41" cy="1729.31" r="4" stroke="rgb(242,255,0)" stroke-width="2" fill="none"></circle>
<circle cx="5836.09" cy="2675.37" r="4" stroke="rgb(242,255,0)" stroke-width="2" fill="none"></circle>
<circle cx="889.605" cy="1734.01" r="4" stroke="rgb(153,0,255)" stroke-width="2" fill="none"></circle>
<circle cx="5791.58" cy="2073.14" r="4" stroke="rgb(153,0,255)" stroke-width="2" fill="none"></circle>
<circle cx="1847.79" cy="1746.22" r="4" stroke="rgb(174,255,0)" stroke-width="2" fill="none"></circle>
<circle cx="6398.83" cy="1819.86" r="4" stroke="rgb(174,255,0)" stroke-width="2" fill="none"></circle>
<circle cx="2344.08" cy="1760.17" r="4" stroke="rgb(199,255,0)" stroke-width="2" fill="none"></circle>
<circle cx="5521.29" cy="1856.07" r="4" stroke="rgb(199,255,0)" stroke-width="2" fill="none"></circle>
<circle cx="2966.48" cy="1766.73" r="4" stroke="rgb(255,0,101)" stroke-width="2" fill="none"></circle>
<circle cx="6530.54" cy="1351.45" r="4" stroke="rgb(255,0,101)" stroke-width="2" fill="none"></circle>
<circle cx="1639.77" cy="1778.6" r="4" stroke="rgb(153,0,255)" stroke-width="2" fill="none"></circle>
<circle cx="6140.23" cy="1472.62" r="4" stroke="rgb(153,0,255)" stroke-width="2" fill="none"></circle>
<circle cx="2650.33" cy="1791.93" r="4" stroke="rgb(135,0,255)" stroke-width="2" fill="none"></circle>
<circle cx="5994.89" cy="1913.8" r="4" stroke="rgb(135,0,255)" stroke-width="2" fill="none"></circle>
<circle cx="1817.57" cy="1801.81" r="4" stroke="rgb(8,0,255)" stroke-width="2" fill="none"></circle>
<circle cx="5895.99" cy="1727.73" r="4" stroke="rgb(8,0,255)" stroke-width="2" fill="none"></circle>
<circle cx="1900.44" cy="1803.36" r="4" stroke="rgb(0,246,255)" stroke-width="2" fill="none"></circle>
<circle cx="6023.67" cy="816.471" r="4" stroke="rgb(0,246,255)" stroke-width="2" fill="none"></circle>
<circle cx="1903.87" cy="1818.46" r="4" stroke="rgb(153,0,255)" stroke-width="2" fill="none"></circle>
<circle cx="5428.24" cy="2304.55" r="4" stroke="rgb(153,0,255)" stroke-width="2" fill="none"></circle>
<circle cx="1644.53" cy="1821.92" r="4" stroke="rgb(0,255,93)" stroke-width="2" fill="none"></circle>
<circle cx="5454.39" cy="2118.38" r="4" stroke="rgb(0,255,93)" stroke-width="2" fill="none"></circle>
<circle cx="2229.5" cy="1827.61" r="4" stroke="rgb(255,4,0)" stroke-width="2" fill="none"></circle>
<circle cx="5724.76" cy="1431.74" r="4" stroke="rgb(255,4,0)" stroke-width="2" fill="none"></circle>
<circle cx="3021.43" cy="1830.09" r="4" stroke="rgb(0,255,33)" stroke-width="2" fill="none"></circle>
<circle cx="6644.73" cy="875.726" r="4" stroke="rgb(0,255,33)" stroke-width="2" fill="none"></circle>
<circle cx="3067.18" cy="1830.46" r="4" stroke="rgb(0,195,255)" stroke-width="2" fill="none"></circle>
<circle cx="5681.68" cy="1430.17" r="4" stroke="rgb(0,195,255)" stroke-width="2" fill="none"></circle>
<circle cx="2404.01" cy="1842.3" r="4" stroke="rgb(255,0,72)" stroke-width="2" fill="none"></circle>
<circle cx="5348.84" cy="2020.96" r="4" stroke="rgb(255,0,72)" stroke-width="2" fill="none"></circle>
<circle cx="3010.06" cy="1843.43" r="4" stroke="rgb(255,136,0)" stroke-width="2" fill="none"></circle>
<circle cx="5669.68" cy="2089.6" r="4" stroke="rgb(255,136,0)" stroke-width="2" fill="none"></circle>
<circle cx="1576.34" cy="1851.91" r="4" stroke="rgb(21,0,255)" stroke-width="2" fill="none"></circle>
<circle cx="4662.85" cy="2288.51" r="4" stroke="rgb(21,0,255)" stroke-width="2" fill="none"></circle>
<circle cx="1138.04" cy="1861.01" r="4" stroke="rgb(38,255,0)" stroke-width="2" fill="none"></circle>
<circle cx="5856.4" cy="1722.09" r="4" stroke="rgb(38,255,0)" stroke-width="2" fill="none"></circle>
<circle cx="3001.71" cy="1862.51" r="4" stroke="rgb(255,148,0)" stroke-width="2" fill="none"></circle>
<circle cx="6490.66" cy="2348.99" r="4" stroke="rgb(255,148,0)" stroke-width="2" fill="none"></circle>
<circle cx="3033.99" cy="1867.58" r="4" stroke="rgb(0,229,255)" stroke-width="2" fill="none"></circle>
<circle cx="6991.13" cy="1807.49" r="4" stroke="rgb(0,229,255)" stroke-width="2" fill="none"></circle>
<circle cx="3034.51" cy="1883.3" r="4" stroke="rgb(0,46,255)" stroke-width="2" fill="none"></circle>
<circle cx="5926.78" cy="1050.2" r="4" stroke="rgb(0,46,255)" stroke-width="2" fill="none"></circle>
<circle cx="2263.18" cy="1887.88" r="4" stroke="rgb(8,0,255)" stroke-width="2" fill="none"></circle>
<circle cx="5848.5" cy="1555.63" r="4" stroke="rgb(8,0,255)" stroke-width="2" fill="none"></circle>
<circle cx="2621.08" cy="1903.26" r="4" stroke="rgb(255,0,110)" stroke-width="2" fill="none"></circle>
<circle cx="5888.37" cy="1315.08" r="4" stroke="rgb(255,0,110)" stroke-width="2" fill="none"></circle>
<circle cx="2753.23" cy="1904.58" r="4" stroke="rgb(80,0,255)" stroke-width="2" fill="none"></circle>
<circle cx="5498.03" cy="1773.63" r="4" stroke="rgb(80,0,255)" stroke-width="2" fill="none"></circle>
<circle cx="1850.31" cy="1917.14" r="4" stroke="rgb(255,0,242)" stroke-width="2" fill="none"></circle>
<circle cx="5513" cy="1766.94" r="4" stroke="rgb(255,0,242)" stroke-width="2" fill="none"></circle>
<circle cx="3026.73" cy="1932.07" r="4" stroke="rgb(0,250,255)" stroke-width="2" fill="none"></circle>
<circle cx="5030.66" cy="2544.05" r="4" stroke="rgb(0,250,255)" stroke-width="2" fill="none"></circle>
<circle cx="2445.2" cy="1933.66" r="4" stroke="rgb(255,93,0)" stroke-width="2" fill="none"></circle>
<circle cx="6975.92" cy="1755.04" r="4" stroke="rgb(255,93,0)" stroke-width="2" fill="none"></circle>
<circle cx="1743.98" cy="1934.2" r="4" stroke="rgb(255,114,0)" stroke-width="2" fill="none"></circle>
<circle cx="4666.98" cy="2278.4" r="4" stroke="rgb(255,114,0)" stroke-width="2" fill="none"></circle>
<circle cx="2953.48" cy="1938.73" r="4" stroke="rgb(0,63,255)" stroke-width="2" fill="none"></circle>
<circle cx="5229.59" cy="2030.17" r="4" stroke="rgb(0,63,255)" stroke-width="2" fill="none"></circle>
<circle cx="2177.83" cy="1940.85" r="4" stroke="rgb(255,0,195)" stroke-width="2" fill="none"></circle>
<circle cx="6010.17" cy="2167.35" r="4" stroke="rgb(255,0,195)" stroke-width="2" fill="none"></circle>
<circle cx="2827.09" cy="1945.38" r="4" stroke="rgb(0,212,255)" stroke-width="2" fill="none"></circle>
<circle cx="5633.5" cy="1508.51" r="4" stroke="rgb(0,212,255)" stroke-width="2" fill="none"></circle>
<circle cx="2077.41" cy="1946.39" r="4" stroke="rgb(203,0,255)" stroke-width="2" fill="none"></circle>
<circle cx="5660.25" cy="1457.53" r="4" stroke="rgb(203,0,255)" stroke-width="2" fill="none"></circle>
<circle cx="1346.29" cy="1950.86" r="4" stroke="rgb(0,42,255)" stroke-width="2" fill="none"></circle>
<circle cx="5734.68" cy="2045.31" r="4" stroke="rgb(0,42,255)" stroke-width="2" fill="none"></circle>
<circle cx="1366.03" cy="1985.1" r="4" stroke="rgb(123,0,255)" stroke-width="2" fill="none"></circle>
<circle cx="6347.39" cy="2429.41" r="4" stroke="rgb(123,0,255)" stroke-width="2" fill="none"></circle>
<circle cx="2835.88" cy="2000.36" r="4" stroke="rgb(255,8,0)" stroke-width="2" fill="none"></circle>
<circle cx="5729.55" cy="1322.22" r="4" stroke="rgb(255,8,0)" stroke-width="2" fill="none"></circle>
<circle cx="2003.08" cy="2001.13" r="4" stroke="rgb(178,255,0)" stroke-width="2" fill="none"></circle>
<circle cx="5844.85" cy="2679.28" r="4" stroke="rgb(178,255,0)" stroke-width="2" fill="none"></circle>
<circle cx="1928.05" cy="2002.55" r="4" stroke="rgb(255,246,0)" stroke-width="2" fill="none"></circle>
<circle cx="5473.03" cy="1970.98" r="4" stroke="rgb(255,246,0)" stroke-width="2" fill="none"></circle>
<circle cx="1937.47" cy="2006.07" r="4" stroke="rgb(0,255,110)" stroke-width="2" fill="none"></circle>
<circle cx="6065.03" cy="2329.89" r="4" stroke="rgb(0,255,110)" stroke-width="2" fill="none"></circle>
<circle cx="1903.85" cy="2006.26" r="4" stroke="rgb(255,0,169)" stroke-width="2" fill="none"></circle>
<circle cx="5414.9" cy="2015.02" r="4" stroke="rgb(255,0,169)" stroke-width="2" fill="none"></circle>
<circle cx="1980.17" cy="2007.92" r="4" stroke="rgb(33,255,0)" stroke-width="2" fill="none"></circle>
<circle cx="5334.42" cy="1905.88" r="4" stroke="rgb(33,255,0)" stroke-width="2" fill="none"></circle>
<circle cx="2412.25" cy="2044.13" r="4" stroke="rgb(229,0,255)" stroke-width="2" fill="none"></circle>
<circle cx="5763.32" cy="1299.84" r="4" stroke="rgb(229,0,255)" stroke-width="2" fill="none"></circle>
<circle cx="2035.51" cy="2058.79" r="4" stroke="rgb(255,0,110)" stroke-width="2" fill="none"></circle>
<circle cx="5872.13" cy="1780.47" r="4" stroke="rgb(255,0,110)" stroke-width="2" fill="none"></circle>
</svg>