<?xml version="1.0" standalone="yes"?>
<!-- SVG graphic -->
<svg xmlns='http://www.w3.org/2000/svg' xmlns:xlink='http://www.w3.org/1999/xlink'
width="8064px" height="3024px" preserveAspectRatio="xMinYMin meet" viewBox="0 0 8064 3024" version="1.1">
<image x="0" y="0" width="4032px" height="3024px" opacity="1" xlink:href="/home/jeong/Code/2D-to-3D-Modeling-using-AI/Make3D/Image/20200227_180651.jpg"/>
<image x="4032" y="0" width="4032px" height="3024px" opacity="1" xlink:href="/home/jeong/Code/2D-to-3D-Modeling-using-AI/Make3D/Image/20200227_180746.jpg"/>
<polyline points="1666.77,1153.27,4875.43,322.801" stroke="rgb(55,0,255)" stroke-width="2" fill="none"></polyline>
<polyline points="2998.62,1869.45,5108.15,850.765" stroke="rgb(255,51,0)" stroke-width="2" fill="none"></polyline>
<polyline points="1086.17,1859.87,5363.21,2030.11" stroke="rgb(0,255,174)" stroke-width="2" fill="none"></polyline>
<polyline points="2931.5,1592.55,5453.76,860.305" stroke="rgb(255,0,144)" stroke-width="2" fill="none"></polyline>
<polyline points="2579.21,917.018,5404.67,2762" stroke="rgb(144,0,255)" stroke-width="2" fill="none"></polyline>
<polyline points="1042.59,1685.75,5372.28,2787.67" stroke="rgb(97,255,0)" stroke-width="2" fill="none"></polyline>
<polyline points="1325.17,1911.7,4544.92,422.928" stroke="rgb(0,255,127)" stroke-width="2" fill="none"></polyline>
<polyline points="3021.43,1830.09,4898.41,425.024" stroke="rgb(229,255,0)" stroke-width="2" fill="none"></polyline>
<polyline points="1967.8,1720.33,5546.67,496.507" stroke="rgb(127,0,255)" stroke-width="2" fill="none"></polyline>
<polyline points="1967.8,1720.33,4558.72,307.943" stroke="rgb(119,255,0)" stroke-width="2" fill="none"></polyline>
<polyline points="3126.86,1637.03,5727.15,2141.97" stroke="rgb(174,0,255)" stroke-width="2" fill="none"></polyline>
<polyline points="2648.83,989.46,5317.87,358.02" stroke="rgb(229,255,0)" stroke-width="2" fill="none"></polyline>
<polyline points="1434.14,1545.46,4792.65,949.679" stroke="rgb(195,0,255)" stroke-width="2" fill="none"></polyline>
<polyline points="3132.2,1481.73,6208.22,397.156" stroke="rgb(255,153,0)" stroke-width="2" fill="none"></polyline>
<polyline points="3021.43,1830.09,4845.32,490.361" stroke="rgb(42,255,0)" stroke-width="2" fill="none"></polyline>
<polyline points="2038.22,1552.02,6924.3,883.23" stroke="rgb(135,255,0)" stroke-width="2" fill="none"></polyline>
<polyline points="3126.16,1503.32,4918.4,2249.89" stroke="rgb(0,255,118)" stroke-width="2" fill="none"></polyline>
<polyline points="1366.03,1985.1,4950.05,2209.41" stroke="rgb(0,25,255)" stroke-width="2" fill="none"></polyline>
<polyline points="2081.61,1684.37,5540.27,621.826" stroke="rgb(0,255,148)" stroke-width="2" fill="none"></polyline>
<polyline points="1739.42,1837.05,5680.84,947.637" stroke="rgb(51,255,0)" stroke-width="2" fill="none"></polyline>
<polyline points="1607.08,1051.99,5543.05,1028.56" stroke="rgb(187,255,0)" stroke-width="2" fill="none"></polyline>
<polyline points="2563.29,1645.87,5845.65,2235.67" stroke="rgb(0,85,255)" stroke-width="2" fill="none"></polyline>
<polyline points="2655.65,2000.33,5999.19,1034.49" stroke="rgb(0,255,76)" stroke-width="2" fill="none"></polyline>
<polyline points="1903.85,2006.26,5553.68,560.322" stroke="rgb(38,255,0)" stroke-width="2" fill="none"></polyline>
<polyline points="1271.03,1491.4,4612.33,654.586" stroke="rgb(0,246,255)" stroke-width="2" fill="none"></polyline>
<polyline points="2709.36,1486.24,5617.24,655.179" stroke="rgb(255,0,165)" stroke-width="2" fill="none"></polyline>
<polyline points="2017.89,1730.91,5342.81,1041.13" stroke="rgb(0,255,46)" stroke-width="2" fill="none"></polyline>
<polyline points="3125.38,1691.05,5890.48,2244.7" stroke="rgb(110,0,255)" stroke-width="2" fill="none"></polyline>
<polyline points="3029.53,1031.55,6418.19,2320.86" stroke="rgb(0,255,21)" stroke-width="2" fill="none"></polyline>
<polyline points="2518.55,1551.19,5356.5,586.759" stroke="rgb(255,178,0)" stroke-width="2" fill="none"></polyline>
<polyline points="3050.59,1051.49,5451.39,1723.32" stroke="rgb(255,0,208)" stroke-width="2" fill="none"></polyline>
<polyline points="3024.17,1001.41,6097.41,1229.3" stroke="rgb(42,0,255)" stroke-width="2" fill="none"></polyline>
<polyline points="1725.45,1123.95,5722.01,1242.29" stroke="rgb(199,0,255)" stroke-width="2" fill="none"></polyline>
<polyline points="1323.71,1526.63,5387.21,1090.77" stroke="rgb(33,255,0)" stroke-width="2" fill="none"></polyline>
<polyline points="2076.17,1521.51,6249.7,1257.45" stroke="rgb(131,255,0)" stroke-width="2" fill="none"></polyline>
<polyline points="1725.45,1123.95,5611.81,1262.81" stroke="rgb(0,165,255)" stroke-width="2" fill="none"></polyline>
<polyline points="1725.45,1123.95,5564.95,1275.77" stroke="rgb(165,255,0)" stroke-width="2" fill="none"></polyline>
<polyline points="1725.45,1123.95,5466.1,1282" stroke="rgb(0,4,255)" stroke-width="2" fill="none"></polyline>
<polyline points="1271.03,1491.4,4735.59,2403.36" stroke="rgb(114,0,255)" stroke-width="2" fill="none"></polyline>
<polyline points="1725.45,1123.95,5379.91,1300.36" stroke="rgb(255,0,38)" stroke-width="2" fill="none"></polyline>
<polyline points="3020.68,1105.78,5605.44,2348.43" stroke="rgb(0,157,255)" stroke-width="2" fill="none"></polyline>
<polyline points="2752.65,1505.02,5446.79,1143.35" stroke="rgb(255,255,0)" stroke-width="2" fill="none"></polyline>
<polyline points="2752.65,1505.02,5446.79,1143.35" stroke="rgb(255,242,0)" stroke-width="2" fill="none"></polyline>
<polyline points="1678.77,1499.72,5335.12,1841.96" stroke="rgb(0,255,38)" stroke-width="2" fill="none"></polyline>
<polyline points="3092.72,1813.16,6726.95,758.24" stroke="rgb(101,255,0)" stroke-width="2" fill="none"></polyline>
<polyline points="1712.06,1879.93,5287.25,1052.35" stroke="rgb(0,255,199)" stroke-width="2" fill="none"></polyline>
<polyline points="1892.28,1250.35,4998.98,1156.56" stroke="rgb(131,255,0)" stroke-width="2" fill="none"></polyline>
<polyline points="1103.29,1903.58,4679.16,1062.01" stroke="rgb(12,255,0)" stroke-width="2" fill="none"></polyline>
<polyline points="2683.89,1961.29,5548.47,680.12" stroke="rgb(140,0,255)" stroke-width="2" fill="none"></polyline>
<polyline points="1529.06,1806.18,6142.29,781.355" stroke="rgb(21,0,255)" stroke-width="2" fill="none"></polyline>
<polyline points="2117.29,1873,5691.47,2451.44" stroke="rgb(0,63,255)" stroke-width="2" fill="none"></polyline>
<polyline points="2754.13,1498.01,5546.37,1199.24" stroke="rgb(255,0,46)" stroke-width="2" fill="none"></polyline>
<polyline points="2300.5,803.454,6460.39,704.396" stroke="rgb(255,0,97)" stroke-width="2" fill="none"></polyline>
<polyline points="1696.4,1894.8,5994.22,829.043" stroke="rgb(0,21,255)" stroke-width="2" fill="none"></polyline>
<polyline points="3123.12,1621.09,4533.16,837.549" stroke="rgb(255,0,114)" stroke-width="2" fill="none"></polyline>
<polyline points="3021.43,1830.09,5220,2525.34" stroke="rgb(0,255,169)" stroke-width="2" fill="none"></polyline>
<polyline points="1725.45,1123.95,5734.89,1252.66" stroke="rgb(216,255,0)" stroke-width="2" fill="none"></polyline>
<polyline points="1226.5,1619.72,4722.94,1265.18" stroke="rgb(67,255,0)" stroke-width="2" fill="none"></polyline>
<polyline points="1725.45,1123.95,5557.02,1270.06" stroke="rgb(229,255,0)" stroke-width="2" fill="none"></polyline>
<polyline points="1725.45,1123.95,5606.93,1271.97" stroke="rgb(229,255,0)" stroke-width="2" fill="none"></polyline>
<polyline points="1725.45,1123.95,5436.08,1289.81" stroke="rgb(255,80,0)" stroke-width="2" fill="none"></polyline>
<polyline points="1725.45,1123.95,5370.05,1295.47" stroke="rgb(38,0,255)" stroke-width="2" fill="none"></polyline>
<polyline points="1323.71,1526.63,5612.3,1298" stroke="rgb(255,0,182)" stroke-width="2" fill="none"></polyline>
<polyline points="2648.83,989.46,5252.69,346.952" stroke="rgb(255,0,229)" stroke-width="2" fill="none"></polyline>
<polyline points="1841.8,1943.59,5375.22,397.132" stroke="rgb(255,4,0)" stroke-width="2" fill="none"></polyline>
<polyline points="2841.77,1781.03,6183.47,1331.8" stroke="rgb(255,195,0)" stroke-width="2" fill="none"></polyline>
<polyline points="1372.06,1519.51,4398.31,865.59" stroke="rgb(0,255,114)" stroke-width="2" fill="none"></polyline>
<polyline points="2663.77,991.878,6697.85,468.053" stroke="rgb(161,255,0)" stroke-width="2" fill="none"></polyline>
<polyline points="1712.06,1879.93,5510.65,911.079" stroke="rgb(0,255,157)" stroke-width="2" fill="none"></polyline>
<polyline points="2047.59,1022.49,5351.41,1375.17" stroke="rgb(199,0,255)" stroke-width="2" fill="none"></polyline>
<polyline points="1138.04,1861.01,5343.24,1875.77" stroke="rgb(199,255,0)" stroke-width="2" fill="none"></polyline>
<polyline points="1138.04,1861.01,5343.24,1875.77" stroke="rgb(255,0,0)" stroke-width="2" fill="none"></polyline>
<polyline points="2035.51,2058.79,6467.36,2683.57" stroke="rgb(0,89,255)" stroke-width="2" fill="none"></polyline>
<polyline points="1624.88,1355.14,5707.33,1309.15" stroke="rgb(255,8,0)" stroke-width="2" fill="none"></polyline>
<polyline points="925.532,1719.45,4407.95,1014.34" stroke="rgb(255,4,0)" stroke-width="2" fill="none"></polyline>
<polyline points="1739.42,1837.05,5334.45,830.171" stroke="rgb(0,221,255)" stroke-width="2" fill="none"></polyline>
<polyline points="2925.87,1868.56,5383.11,2505.75" stroke="rgb(255,174,0)" stroke-width="2" fill="none"></polyline>
<polyline points="3147.14,1808.84,7046.92,925.492" stroke="rgb(123,255,0)" stroke-width="2" fill="none"></polyline>
<polyline points="1279.66,2029.69,4624.02,956.598" stroke="rgb(255,0,233)" stroke-width="2" fill="none"></polyline>
<polyline points="2405.09,1523.34,5470.23,961.958" stroke="rgb(255,0,195)" stroke-width="2" fill="none"></polyline>
<polyline points="2730,1691.1,5356.03,2759.53" stroke="rgb(0,135,255)" stroke-width="2" fill="none"></polyline>
<polyline points="1644.53,1821.92,5273.99,968.977" stroke="rgb(255,178,0)" stroke-width="2" fill="none"></polyline>
<polyline points="3001.71,1862.51,7091.44,1017.89" stroke="rgb(0,255,233)" stroke-width="2" fill="none"></polyline>
<polyline points="1865.21,1872.61,4920.27,1604.7" stroke="rgb(0,233,255)" stroke-width="2" fill="none"></polyline>
<polyline points="3147.14,1808.84,7132.16,1118.92" stroke="rgb(161,0,255)" stroke-width="2" fill="none"></polyline>
<polyline points="2690.36,1881.65,6796.4,952.247" stroke="rgb(0,255,118)" stroke-width="2" fill="none"></polyline>
<polyline points="2123.15,853.78,4945.46,768.412" stroke="rgb(0,97,255)" stroke-width="2" fill="none"></polyline>
<polyline points="2048.08,2057.37,5355.65,2570.57" stroke="rgb(0,89,255)" stroke-width="2" fill="none"></polyline>
<polyline points="2695.78,971.139,6292.14,526.739" stroke="rgb(0,255,21)" stroke-width="2" fill="none"></polyline>
<polyline points="1644.86,1809.74,5404.13,686.108" stroke="rgb(0,255,148)" stroke-width="2" fill="none"></polyline>
<polyline points="2618.05,934.547,5444.6,874.355" stroke="rgb(191,0,255)" stroke-width="2" fill="none"></polyline>
<polyline points="2126.39,1499.61,4677.62,2666.03" stroke="rgb(0,255,101)" stroke-width="2" fill="none"></polyline>
<polyline points="2304.97,1712.99,5809.24,2659.01" stroke="rgb(255,187,0)" stroke-width="2" fill="none"></polyline>
<polyline points="2737.95,968.245,4408.72,2595.45" stroke="rgb(8,0,255)" stroke-width="2" fill="none"></polyline>
<polyline points="1921.17,1959.17,5840.51,2794.73" stroke="rgb(127,255,0)" stroke-width="2" fill="none"></polyline>
<polyline points="2312.07,1721.15,4782.6,2220.2" stroke="rgb(255,191,0)" stroke-width="2" fill="none"></polyline>
<circle cx="1666.77" cy="1153.27" r="4" stroke="rgb(55,0,255)" stroke-width="2" fill="none"></circle>
<circle cx="4875.43" cy="322.801" r="4" stroke="rgb(55,0,255)" stroke-width="2" fill="none"></circle>
<circle cx="2998.62" cy="1869.45" r="4" stroke="rgb(255,51,0)" stroke-width="2" fill="none"></circle>
<circle cx="5108.15" cy="850.765" r="4" stroke="rgb(255,51,0)" stroke-width="2" fill="none"></circle>
<circle cx="1086.17" cy="1859.87" r="4" stroke="rgb(0,255,174)" stroke-width="2" fill="none"></circle>
<circle cx="5363.21" cy="2030.11" r="4" stroke="rgb(0,255,174)" stroke-width="2" fill="none"></circle>
<circle cx="2931.5" cy="1592.55" r="4" stroke="rgb(255,0,144)" stroke-width="2" fill="none"></circle>
<circle cx="5453.76" cy="860.305" r="4" stroke="rgb(255,0,144)" stroke-width="2" fill="none"></circle>
<circle cx="2579.21" cy="917.018" r="4" stroke="rgb(144,0,255)" stroke-width="2" fill="none"></circle>
<circle cx="5404.67" cy="2762" r="4" stroke="rgb(144,0,255)" stroke-width="2" fill="none"></circle>
<circle cx="1042.59" cy="1685.75" r="4" stroke="rgb(97,255,0)" stroke-width="2" fill="none"></circle>
<circle cx="5372.28" cy="2787.67" r="4" stroke="rgb(97,255,0)" stroke-width="2" fill="none"></circle>
<circle cx="1325.17" cy="1911.7" r="4" stroke="rgb(0,255,127)" stroke-width="2" fill="none"></circle>
<circle cx="4544.92" cy="422.928" r="4" stroke="rgb(0,255,127)" stroke-width="2" fill="none"></circle>
<circle cx="3021.43" cy="1830.09" r="4" stroke="rgb(229,255,0)" stroke-width="2" fill="none"></circle>
<circle cx="4898.41" cy="425.024" r="4" stroke="rgb(229,255,0)" stroke-width="2" fill="none"></circle>
<circle cx="1967.8" cy="1720.33" r="4" stroke="rgb(127,0,255)" stroke-width="2" fill="none"></circle>
<circle cx="5546.67" cy="496.507" r="4" stroke="rgb(127,0,255)" stroke-width="2" fill="none"></circle>
<circle cx="1967.8" cy="1720.33" r="4" stroke="rgb(119,255,0)" stroke-width="2" fill="none"></circle>
<circle cx="4558.72" cy="307.943" r="4" stroke="rgb(119,255,0)" stroke-width="2" fill="none"></circle>
<circle cx="3126.86" cy="1637.03" r="4" stroke="rgb(174,0,255)" stroke-width="2" fill="none"></circle>
<circle cx="5727.15" cy="2141.97" r="4" stroke="rgb(174,0,255)" stroke-width="2" fill="none"></circle>
<circle cx="2648.83" cy="989.46" r="4" stroke="rgb(229,255,0)" stroke-width="2" fill="none"></circle>
<circle cx="5317.87" cy="358.02" r="4" stroke="rgb(229,255,0)" stroke-width="2" fill="none"></circle>
<circle cx="1434.14" cy="1545.46" r="4" stroke="rgb(195,0,255)" stroke-width="2" fill="none"></circle>
<circle cx="4792.65" cy="949.679" r="4" stroke="rgb(195,0,255)" stroke-width="2" fill="none"></circle>
<circle cx="3132.2" cy="1481.73" r="4" stroke="rgb(255,153,0)" stroke-width="2" fill="none"></circle>
<circle cx="6208.22" cy="397.156" r="4" stroke="rgb(255,153,0)" stroke-width="2" fill="none"></circle>
<circle cx="3021.43" cy="1830.09" r="4" stroke="rgb(42,255,0)" stroke-width="2" fill="none"></circle>
<circle cx="4845.32" cy="490.361" r="4" stroke="rgb(42,255,0)" stroke-width="2" fill="none"></circle>
<circle cx="2038.22" cy="1552.02" r="4" stroke="rgb(135,255,0)" stroke-width="2" fill="none"></circle>
<circle cx="6924.3" cy="883.23" r="4" stroke="rgb(135,255,0)" stroke-width="2" fill="none"></circle>
<circle cx="3126.16" cy="1503.32" r="4" stroke="rgb(0,255,118)" stroke-width="2" fill="none"></circle>
<circle cx="4918.4" cy="2249.89" r="4" stroke="rgb(0,255,118)" stroke-width="2" fill="none"></circle>
<circle cx="1366.03" cy="1985.1" r="4" stroke="rgb(0,25,255)" stroke-width="2" fill="none"></circle>
<circle cx="4950.05" cy="2209.41" r="4" stroke="rgb(0,25,255)" stroke-width="2" fill="none"></circle>
<circle cx="2081.61" cy="1684.37" r="4" stroke="rgb(0,255,148)" stroke-width="2" fill="none"></circle>
<circle cx="5540.27" cy="621.826" r="4" stroke="rgb(0,255,148)" stroke-width="2" fill="none"></circle>
<circle cx="1739.42" cy="1837.05" r="4" stroke="rgb(51,255,0)" stroke-width="2" fill="none"></circle>
<circle cx="5680.84" cy="947.637" r="4" stroke="rgb(51,255,0)" stroke-width="2" fill="none"></circle>
<circle cx="1607.08" cy="1051.99" r="4" stroke="rgb(187,255,0)" stroke-width="2" fill="none"></circle>
<circle cx="5543.05" cy="1028.56" r="4" stroke="rgb(187,255,0)" stroke-width="2" fill="none"></circle>
<circle cx="2563.29" cy="1645.87" r="4" stroke="rgb(0,85,255)" stroke-width="2" fill="none"></circle>
<circle cx="5845.65" cy="2235.67" r="4" stroke="rgb(0,85,255)" stroke-width="2" fill="none"></circle>
<circle cx="2655.65" cy="2000.33" r="4" stroke="rgb(0,255,76)" stroke-width="2" fill="none"></circle>
<circle cx="5999.19" cy="1034.49" r="4" stroke="rgb(0,255,76)" stroke-width="2" fill="none"></circle>
<circle cx="1903.85" cy="2006.26" r="4" stroke="rgb(38,255,0)" stroke-width="2" fill="none"></circle>
<circle cx="5553.68" cy="560.322" r="4" stroke="rgb(38,255,0)" stroke-width="2" fill="none"></circle>
<circle cx="1271.03" cy="1491.4" r="4" stroke="rgb(0,246,255)" stroke-width="2" fill="none"></circle>
<circle cx="4612.33" cy="654.586" r="4" stroke="rgb(0,246,255)" stroke-width="2" fill="none"></circle>
<circle cx="2709.36" cy="1486.24" r="4" stroke="rgb(255,0,165)" stroke-width="2" fill="none"></circle>
<circle cx="5617.24" cy="655.179" r="4" stroke="rgb(255,0,165)" stroke-width="2" fill="none"></circle>
<circle cx="2017.89" cy="1730.91" r="4" stroke="rgb(0,255,46)" stroke-width="2" fill="none"></circle>
<circle cx="5342.81" cy="1041.13" r="4" stroke="rgb(0,255,46)" stroke-width="2" fill="none"></circle>
<circle cx="3125.38" cy="1691.05" r="4" stroke="rgb(110,0,255)" stroke-width="2" fill="none"></circle>
<circle cx="5890.48" cy="2244.7" r="4" stroke="rgb(110,0,255)" stroke-width="2" fill="none"></circle>
<circle cx="3029.53" cy="1031.55" r="4" stroke="rgb(0,255,21)" stroke-width="2" fill="none"></circle>
<circle cx="6418.19" cy="2320.86" r="4" stroke="rgb(0,255,21)" stroke-width="2" fill="none"></circle>
<circle cx="2518.55" cy="1551.19" r="4" stroke="rgb(255,178,0)" stroke-width="2" fill="none"></circle>
<circle cx="5356.5" cy="586.759" r="4" stroke="rgb(255,178,0)" stroke-width="2" fill="none"></circle>
<circle cx="3050.59" cy="1051.49" r="4" stroke="rgb(255,0,208)" stroke-width="2" fill="none"></circle>
<circle cx="5451.39" cy="1723.32" r="4" stroke="rgb(255,0,208)" stroke-width="2" fill="none"></circle>
<circle cx="3024.17" cy="1001.41" r="4" stroke="rgb(42,0,255)" stroke-width="2" fill="none"></circle>
<circle cx="6097.41" cy="1229.3" r="4" stroke="rgb(42,0,255)" stroke-width="2" fill="none"></circle>
<circle cx="1725.45" cy="1123.95" r="4" stroke="rgb(199,0,255)" stroke-width="2" fill="none"></circle>
<circle cx="5722.01" cy="1242.29" r="4" stroke="rgb(199,0,255)" stroke-width="2" fill="none"></circle>
<circle cx="1323.71" cy="1526.63" r="4" stroke="rgb(33,255,0)" stroke-width="2" fill="none"></circle>
<circle cx="5387.21" cy="1090.77" r="4" stroke="rgb(33,255,0)" stroke-width="2" fill="none"></circle>
<circle cx="2076.17" cy="1521.51" r="4" stroke="rgb(131,255,0)" stroke-width="2" fill="none"></circle>
<circle cx="6249.7" cy="1257.45" r="4" stroke="rgb(131,255,0)" stroke-width="2" fill="none"></circle>
<circle cx="1725.45" cy="1123.95" r="4" stroke="rgb(0,165,255)" stroke-width="2" fill="none"></circle>
<circle cx="5611.81" cy="1262.81" r="4" stroke="rgb(0,165,255)" stroke-width="2" fill="none"></circle>
<circle cx="1725.45" cy="1123.95" r="4" stroke="rgb(165,255,0)" stroke-width="2" fill="none"></circle>
<circle cx="5564.95" cy="1275.77" r="4" stroke="rgb(165,255,0)" stroke-width="2" fill="none"></circle>
<circle cx="1725.45" cy="1123.95" r="4" stroke="rgb(0,4,255)" stroke-width="2" fill="none"></circle>
<circle cx="5466.1" cy="1282" r="4" stroke="rgb(0,4,255)" stroke-width="2" fill="none"></circle>
<circle cx="1271.03" cy="1491.4" r="4" stroke="rgb(114,0,255)" stroke-width="2" fill="none"></circle>
<circle cx="4735.59" cy="2403.36" r="4" stroke="rgb(114,0,255)" stroke-width="2" fill="none"></circle>
<circle cx="1725.45" cy="1123.95" r="4" stroke="rgb(255,0,38)" stroke-width="2" fill="none"></circle>
<circle cx="5379.91" cy="1300.36" r="4" stroke="rgb(255,0,38)" stroke-width="2" fill="none"></circle>
<circle cx="3020.68" cy="1105.78" r="4" stroke="rgb(0,157,255)" stroke-width="2" fill="none"></circle>
<circle cx="5605.44" cy="2348.43" r="4" stroke="rgb(0,157,255)" stroke-width="2" fill="none"></circle>
<circle cx="2752.65" cy="1505.02" r="4" stroke="rgb(255,255,0)" stroke-width="2" fill="none"></circle>
<circle cx="5446.79" cy="1143.35" r="4" stroke="rgb(255,255,0)" stroke-width="2" fill="none"></circle>
<circle cx="2752.65" cy="1505.02" r="4" stroke="rgb(255,242,0)" stroke-width="2" fill="none"></circle>
<circle cx="5446.79" cy="1143.35" r="4" stroke="rgb(255,242,0)" stroke-width="2" fill="none"></circle>
<circle cx="1678.77" cy="1499.72" r="4" stroke="rgb(0,255,38)" stroke-width="2" fill="none"></circle>
<circle cx="5335.12" cy="1841.96" r="4" stroke="rgb(0,255,38)" stroke-width="2" fill="none"></circle>
<circle cx="3092.72" cy="1813.16" r="4" stroke="rgb(101,255,0)" stroke-width="2" fill="none"></circle>
<circle cx="6726.95" cy="758.24" r="4" stroke="rgb(101,255,0)" stroke-width="2" fill="none"></circle>
<circle cx="1712.06" cy="1879.93" r="4" stroke="rgb(0,255,199)" stroke-width="2" fill="none"></circle>
<circle cx="5287.25" cy="1052.35" r="4" stroke="rgb(0,255,199)" stroke-width="2" fill="none"></circle>
<circle cx="1892.28" cy="1250.35" r="4" stroke="rgb(131,255,0)" stroke-width="2" fill="none"></circle>
<circle cx="4998.98" cy="1156.56" r="4" stroke="rgb(131,255,0)" stroke-width="2" fill="none"></circle>
<circle cx="1103.29" cy="1903.58" r="4" stroke="rgb(12,255,0)" stroke-width="2" fill="none"></circle>
<circle cx="4679.16" cy="1062.01" r="4" stroke="rgb(12,255,0)" stroke-width="2" fill="none"></circle>
<circle cx="2683.89" cy="1961.29" r="4" stroke="rgb(140,0,255)" stroke-width="2" fill="none"></circle>
<circle cx="5548.47" cy="680.12" r="4" stroke="rgb(140,0,255)" stroke-width="2" fill="none"></circle>
<circle cx="1529.06" cy="1806.18" r="4" stroke="rgb(21,0,255)" stroke-width="2" fill="none"></circle>
<circle cx="6142.29" cy="781.355" r="4" stroke="rgb(21,0,255)" stroke-width="2" fill="none"></circle>
<circle cx="2117.29" cy="1873" r="4" stroke="rgb(0,63,255)" stroke-width="2" fill="none"></circle>
<circle cx="5691.47" cy="2451.44" r="4" stroke="rgb(0,63,255)" stroke-width="2" fill="none"></circle>
<circle cx="2754.13" cy="1498.01" r="4" stroke="rgb(255,0,46)" stroke-width="2" fill="none"></circle>
<circle cx="5546.37" cy="1199.24" r="4" stroke="rgb(255,0,46)" stroke-width="2" fill="none"></circle>
<circle cx="2300.5" cy="803.454" r="4" stroke="rgb(255,0,97)" stroke-width="2" fill="none"></circle>
<circle cx="6460.39" cy="704.396" r="4" stroke="rgb(255,0,97)" stroke-width="2" fill="none"></circle>
<circle cx="1696.4" cy="1894.8" r="4" stroke="rgb(0,21,255)" stroke-width="2" fill="none"></circle>
<circle cx="5994.22" cy="829.043" r="4" stroke="rgb(0,21,255)" stroke-width="2" fill="none"></circle>
<circle cx="3123.12" cy="1621.09" r="4" stroke="rgb(255,0,114)" stroke-width="2" fill="none"></circle>
<circle cx="4533.16" cy="837.549" r="4" stroke="rgb(255,0,114)" stroke-width="2" fill="none"></circle>
<circle cx="3021.43" cy="1830.09" r="4" stroke="rgb(0,255,169)" stroke-width="2" fill="none"></circle>
<circle cx="5220" cy="2525.34" r="4" stroke="rgb(0,255,169)" stroke-width="2" fill="none"></circle>
<circle cx="1725.45" cy="1123.95" r="4" stroke="rgb(216,255,0)" stroke-width="2" fill="none"></circle>
<circle cx="5734.89" cy="1252.66" r="4" stroke="rgb(216,255,0)" stroke-width="2" fill="none"></circle>
<circle cx="1226.5" cy="1619.72" r="4" stroke="rgb(67,255,0)" stroke-width="2" fill="none"></circle>
<circle cx="4722.94" cy="1265.18" r="4" stroke="rgb(67,255,0)" stroke-width="2" fill="none"></circle>
<circle cx="1725.45" cy="1123.95" r="4" stroke="rgb(229,255,0)" stroke-width="2" fill="none"></circle>
<circle cx="5557.02" cy="1270.06" r="4" stroke="rgb(229,255,0)" stroke-width="2" fill="none"></circle>
<circle cx="1725.45" cy="1123.95" r="4" stroke="rgb(229,255,0)" stroke-width="2" fill="none"></circle>
<circle cx="5606.93" cy="1271.97" r="4" stroke="rgb(229,255,0)" stroke-width="2" fill="none"></circle>
<circle cx="1725.45" cy="1123.95" r="4" stroke="rgb(255,80,0)" stroke-width="2" fill="none"></circle>
<circle cx="5436.08" cy="1289.81" r="4" stroke="rgb(255,80,0)" stroke-width="2" fill="none"></circle>
<circle cx="1725.45" cy="1123.95" r="4" stroke="rgb(38,0,255)" stroke-width="2" fill="none"></circle>
<circle cx="5370.05" cy="1295.47" r="4" stroke="rgb(38,0,255)" stroke-width="2" fill="none"></circle>
<circle cx="1323.71" cy="1526.63" r="4" stroke="rgb(255,0,182)" stroke-width="2" fill="none"></circle>
<circle cx="5612.3" cy="1298" r="4" stroke="rgb(255,0,182)" stroke-width="2" fill="none"></circle>
<circle cx="2648.83" cy="989.46" r="4" stroke="rgb(255,0,229)" stroke-width="2" fill="none"></circle>
<circle cx="5252.69" cy="346.952" r="4" stroke="rgb(255,0,229)" stroke-width="2" fill="none"></circle>
<circle cx="1841.8" cy="1943.59" r="4" stroke="rgb(255,4,0)" stroke-width="2" fill="none"></circle>
<circle cx="5375.22" cy="397.132" r="4" stroke="rgb(255,4,0)" stroke-width="2" fill="none"></circle>
<circle cx="2841.77" cy="1781.03" r="4" stroke="rgb(255,195,0)" stroke-width="2" fill="none"></circle>
<circle cx="6183.47" cy="1331.8" r="4" stroke="rgb(255,195,0)" stroke-width="2" fill="none"></circle>
<circle cx="1372.06" cy="1519.51" r="4" stroke="rgb(0,255,114)" stroke-width="2" fill="none"></circle>
<circle cx="4398.31" cy="865.59" r="4" stroke="rgb(0,255,114)" stroke-width="2" fill="none"></circle>
<circle cx="2663.77" cy="991.878" r="4" stroke="rgb(161,255,0)" stroke-width="2" fill="none"></circle>
<circle cx="6697.85" cy="468.053" r="4" stroke="rgb(161,255,0)" stroke-width="2" fill="none"></circle>
<circle cx="1712.06" cy="1879.93" r="4" stroke="rgb(0,255,157)" stroke-width="2" fill="none"></circle>
<circle cx="5510.65" cy="911.079" r="4" stroke="rgb(0,255,157)" stroke-width="2" fill="none"></circle>
<circle cx="2047.59" cy="1022.49" r="4" stroke="rgb(199,0,255)" stroke-width="2" fill="none"></circle>
<circle cx="5351.41" cy="1375.17" r="4" stroke="rgb(199,0,255)" stroke-width="2" fill="none"></circle>
<circle cx="1138.04" cy="1861.01" r="4" stroke="rgb(199,255,0)" stroke-width="2" fill="none"></circle>
<circle cx="5343.24" cy="1875.77" r="4" stroke="rgb(199,255,0)" stroke-width="2" fill="none"></circle>
<circle cx="1138.04" cy="1861.01" r="4" stroke="rgb(255,0,0)" stroke-width="2" fill="none"></circle>
<circle cx="5343.24" cy="1875.77" r="4" stroke="rgb(255,0,0)" stroke-width="2" fill="none"></circle>
<circle cx="2035.51" cy="2058.79" r="4" stroke="rgb(0,89,255)" stroke-width="2" fill="none"></circle>
<circle cx="6467.36" cy="2683.57" r="4" stroke="rgb(0,89,255)" stroke-width="2" fill="none"></circle>
<circle cx="1624.88" cy="1355.14" r="4" stroke="rgb(255,8,0)" stroke-width="2" fill="none"></circle>
<circle cx="5707.33" cy="1309.15" r="4" stroke="rgb(255,8,0)" stroke-width="2" fill="none"></circle>
<circle cx="925.532" cy="1719.45" r="4" stroke="rgb(255,4,0)" stroke-width="2" fill="none"></circle>
<circle cx="4407.95" cy="1014.34" r="4" stroke="rgb(255,4,0)" stroke-width="2" fill="none"></circle>
<circle cx="1739.42" cy="1837.05" r="4" stroke="rgb(0,221,255)" stroke-width="2" fill="none"></circle>
<circle cx="5334.45" cy="830.171" r="4" stroke="rgb(0,221,255)" stroke-width="2" fill="none"></circle>
<circle cx="2925.87" cy="1868.56" r="4" stroke="rgb(255,174,0)" stroke-width="2" fill="none"></circle>
<circle cx="5383.11" cy="2505.75" r="4" stroke="rgb(255,174,0)" stroke-width="2" fill="none"></circle>
<circle cx="3147.14" cy="1808.84" r="4" stroke="rgb(123,255,0)" stroke-width="2" fill="none"></circle>
<circle cx="7046.92" cy="925.492" r="4" stroke="rgb(123,255,0)" stroke-width="2" fill="none"></circle>
<circle cx="1279.66" cy="2029.69" r="4" stroke="rgb(255,0,233)" stroke-width="2" fill="none"></circle>
<circle cx="4624.02" cy="956.598" r="4" stroke="rgb(255,0,233)" stroke-width="2" fill="none"></circle>
<circle cx="2405.09" cy="1523.34" r="4" stroke="rgb(255,0,195)" stroke-width="2" fill="none"></circle>
<circle cx="5470.23" cy="961.958" r="4" stroke="rgb(255,0,195)" stroke-width="2" fill="none"></circle>
<circle cx="2730" cy="1691.1" r="4" stroke="rgb(0,135,255)" stroke-width="2" fill="none"></circle>
<circle cx="5356.03" cy="2759.53" r="4" stroke="rgb(0,135,255)" stroke-width="2" fill="none"></circle>
<circle cx="1644.53" cy="1821.92" r="4" stroke="rgb(255,178,0)" stroke-width="2" fill="none"></circle>
<circle cx="5273.99" cy="968.977" r="4" stroke="rgb(255,178,0)" stroke-width="2" fill="none"></circle>
<circle cx="3001.71" cy="1862.51" r="4" stroke="rgb(0,255,233)" stroke-width="2" fill="none"></circle>
<circle cx="7091.44" cy="1017.89" r="4" stroke="rgb(0,255,233)" stroke-width="2" fill="none"></circle>
<circle cx="1865.21" cy="1872.61" r="4" stroke="rgb(0,233,255)" stroke-width="2" fill="none"></circle>
<circle cx="4920.27" cy="1604.7" r="4" stroke="rgb(0,233,255)" stroke-width="2" fill="none"></circle>
<circle cx="3147.14" cy="1808.84" r="4" stroke="rgb(161,0,255)" stroke-width="2" fill="none"></circle>
<circle cx="7132.16" cy="1118.92" r="4" stroke="rgb(161,0,255)" stroke-width="2" fill="none"></circle>
<circle cx="2690.36" cy="1881.65" r="4" stroke="rgb(0,255,118)" stroke-width="2" fill="none"></circle>
<circle cx="6796.4" cy="952.247" r="4" stroke="rgb(0,255,118)" stroke-width="2" fill="none"></circle>
<circle cx="2123.15" cy="853.78" r="4" stroke="rgb(0,97,255)" stroke-width="2" fill="none"></circle>
<circle cx="4945.46" cy="768.412" r="4" stroke="rgb(0,97,255)" stroke-width="2" fill="none"></circle>
<circle cx="2048.08" cy="2057.37" r="4" stroke="rgb(0,89,255)" stroke-width="2" fill="none"></circle>
<circle cx="5355.65" cy="2570.57" r="4" stroke="rgb(0,89,255)" stroke-width="2" fill="none"></circle>
<circle cx="2695.78" cy="971.139" r="4" stroke="rgb(0,255,21)" stroke-width="2" fill="none"></circle>
<circle cx="6292.14" cy="526.739" r="4" stroke="rgb(0,255,21)" stroke-width="2" fill="none"></circle>
<circle cx="1644.86" cy="1809.74" r="4" stroke="rgb(0,255,148)" stroke-width="2" fill="none"></circle>
<circle cx="5404.13" cy="686.108" r="4" stroke="rgb(0,255,148)" stroke-width="2" fill="none"></circle>
<circle cx="2618.05" cy="934.547" r="4" stroke="rgb(191,0,255)" stroke-width="2" fill="none"></circle>
<circle cx="5444.6" cy="874.355" r="4" stroke="rgb(191,0,255)" stroke-width="2" fill="none"></circle>
<circle cx="2126.39" cy="1499.61" r="4" stroke="rgb(0,255,101)" stroke-width="2" fill="none"></circle>
<circle cx="4677.62" cy="2666.03" r="4" stroke="rgb(0,255,101)" stroke-width="2" fill="none"></circle>
<circle cx="2304.97" cy="1712.99" r="4" stroke="rgb(255,187,0)" stroke-width="2" fill="none"></circle>
<circle cx="5809.24" cy="2659.01" r="4" stroke="rgb(255,187,0)" stroke-width="2" fill="none"></circle>
<circle cx="2737.95" cy="968.245" r="4" stroke="rgb(8,0,255)" stroke-width="2" fill="none"></circle>
<circle cx="4408.72" cy="2595.45" r="4" stroke="rgb(8,0,255)" stroke-width="2" fill="none"></circle>
<circle cx="1921.17" cy="1959.17" r="4" stroke="rgb(127,255,0)" stroke-width="2" fill="none"></circle>
<circle cx="5840.51" cy="2794.73" r="4" stroke="rgb(127,255,0)" stroke-width="2" fill="none"></circle>
<circle cx="2312.07" cy="1721.15" r="4" stroke="rgb(255,191,0)" stroke-width="2" fill="none"></circle>
<circle cx="4782.6" cy="2220.2" r="4" stroke="rgb(255,191,0)" stroke-width="2" fill="none"></circle>
</svg>