<?xml version="1.0" standalone="yes"?>
<!-- SVG graphic -->
<svg xmlns='http://www.w3.org/2000/svg' xmlns:xlink='http://www.w3.org/1999/xlink'
width="8064px" height="3024px" preserveAspectRatio="xMinYMin meet" viewBox="0 0 8064 3024" version="1.1">
<image x="0" y="0" width="4032px" height="3024px" opacity="1" xlink:href="/home/jeong/Code/2D-to-3D-Modeling-using-AI/Make3D/Image/20200227_180652.jpg"/>
<image x="4032" y="0" width="4032px" height="3024px" opacity="1" xlink:href="/home/jeong/Code/2D-to-3D-Modeling-using-AI/Make3D/Image/20200227_180729.jpg"/>
<polyline points="1383.26,1556.98,5428.07,304.233" stroke="rgb(255,38,0)" stroke-width="2" fill="none"></polyline>
<polyline points="1383.26,1556.98,5421.98,308.821" stroke="rgb(89,0,255)" stroke-width="2" fill="none"></polyline>
<polyline points="1273.47,1413.05,6019.68,825.54" stroke="rgb(255,0,199)" stroke-width="2" fill="none"></polyline>
<polyline points="1324.89,1280.8,5760.5,461.925" stroke="rgb(255,59,0)" stroke-width="2" fill="none"></polyline>
<polyline points="1273.47,1413.05,5798.96,520.735" stroke="rgb(72,255,0)" stroke-width="2" fill="none"></polyline>
<polyline points="1273.47,1413.05,5798.96,520.735" stroke="rgb(255,174,0)" stroke-width="2" fill="none"></polyline>
<polyline points="2341.31,2119.4,6548.31,853.475" stroke="rgb(255,140,0)" stroke-width="2" fill="none"></polyline>
<polyline points="1383.26,1556.98,5903.58,548.897" stroke="rgb(255,29,0)" stroke-width="2" fill="none"></polyline>
<polyline points="1274.41,1425.26,5734,558.677" stroke="rgb(0,255,55)" stroke-width="2" fill="none"></polyline>
<polyline points="1273.47,1413.05,5783.69,490.634" stroke="rgb(255,4,0)" stroke-width="2" fill="none"></polyline>
<polyline points="1681.89,1575.81,5918.45,1680.23" stroke="rgb(0,255,93)" stroke-width="2" fill="none"></polyline>
<polyline points="1683.94,1565.64,5927.29,1681.19" stroke="rgb(255,127,0)" stroke-width="2" fill="none"></polyline>
<polyline points="2788.37,1475.18,5384.22,741.559" stroke="rgb(153,255,0)" stroke-width="2" fill="none"></polyline>
<polyline points="1683.94,1565.64,5911.91,1537.38" stroke="rgb(255,161,0)" stroke-width="2" fill="none"></polyline>
<polyline points="1955.86,901.368,6616.52,2008.75" stroke="rgb(0,8,255)" stroke-width="2" fill="none"></polyline>
<polyline points="1587.45,1203.54,6721.51,2013.28" stroke="rgb(0,38,255)" stroke-width="2" fill="none"></polyline>
<polyline points="1273.47,1413.05,5785.99,687.218" stroke="rgb(255,89,0)" stroke-width="2" fill="none"></polyline>
<polyline points="2527.66,1944.54,5973.64,775.934" stroke="rgb(191,255,0)" stroke-width="2" fill="none"></polyline>
<polyline points="1666.13,1531.69,5927.07,1583.63" stroke="rgb(4,0,255)" stroke-width="2" fill="none"></polyline>
<polyline points="1273.47,1413.05,6207.97,1083.36" stroke="rgb(0,255,97)" stroke-width="2" fill="none"></polyline>
<polyline points="1273.47,1413.05,6207.97,1083.36" stroke="rgb(255,0,165)" stroke-width="2" fill="none"></polyline>
<polyline points="1613.72,2104.67,5617.66,1391.59" stroke="rgb(242,255,0)" stroke-width="2" fill="none"></polyline>
<polyline points="1274.41,1425.26,5936.92,864.035" stroke="rgb(255,0,233)" stroke-width="2" fill="none"></polyline>
<polyline points="1273.47,1413.05,5920.05,868.59" stroke="rgb(255,153,0)" stroke-width="2" fill="none"></polyline>
<polyline points="1398.09,1106.05,6757.74,1158.15" stroke="rgb(0,110,255)" stroke-width="2" fill="none"></polyline>
<polyline points="2826.73,1476.12,6604.94,1810.13" stroke="rgb(42,0,255)" stroke-width="2" fill="none"></polyline>
<polyline points="1301.02,1682.81,5629.7,944.069" stroke="rgb(0,165,255)" stroke-width="2" fill="none"></polyline>
<polyline points="1273.47,1413.05,6217.87,1098.92" stroke="rgb(0,242,255)" stroke-width="2" fill="none"></polyline>
<polyline points="1273.47,1413.05,6217.87,1098.92" stroke="rgb(0,255,50)" stroke-width="2" fill="none"></polyline>
<polyline points="1241.02,1649.15,5710.31,1129.98" stroke="rgb(106,0,255)" stroke-width="2" fill="none"></polyline>
<polyline points="2418.82,1254.68,5829.93,1130.62" stroke="rgb(255,8,0)" stroke-width="2" fill="none"></polyline>
<polyline points="2743.77,1377.21,6576.94,1707.27" stroke="rgb(255,55,0)" stroke-width="2" fill="none"></polyline>
<polyline points="1134.5,1737.97,6044.3,1344.76" stroke="rgb(255,165,0)" stroke-width="2" fill="none"></polyline>
<polyline points="1196.75,1327.86,5588.8,928.318" stroke="rgb(0,225,255)" stroke-width="2" fill="none"></polyline>
<polyline points="1139.37,1740.16,5831.44,1260.95" stroke="rgb(80,0,255)" stroke-width="2" fill="none"></polyline>
<polyline points="1139.37,1740.16,5831.44,1260.95" stroke="rgb(0,255,93)" stroke-width="2" fill="none"></polyline>
<polyline points="1284.06,1669.3,6730.17,2011.36" stroke="rgb(80,255,0)" stroke-width="2" fill="none"></polyline>
<polyline points="1273.47,1413.05,6218.1,1098.57" stroke="rgb(221,0,255)" stroke-width="2" fill="none"></polyline>
<polyline points="1273.47,1413.05,6218.1,1098.57" stroke="rgb(255,89,0)" stroke-width="2" fill="none"></polyline>
<polyline points="1724.07,1699.27,5896.26,1551.44" stroke="rgb(0,25,255)" stroke-width="2" fill="none"></polyline>
<polyline points="1142.01,2236.86,5222.34,476.863" stroke="rgb(0,255,191)" stroke-width="2" fill="none"></polyline>
<polyline points="1491.15,1929.63,6741.53,1125.42" stroke="rgb(0,255,182)" stroke-width="2" fill="none"></polyline>
<polyline points="2561.9,1027.01,5802.81,695.959" stroke="rgb(102,0,255)" stroke-width="2" fill="none"></polyline>
<polyline points="1335.5,2113.19,5215.63,682.206" stroke="rgb(38,0,255)" stroke-width="2" fill="none"></polyline>
<polyline points="1233.06,1350.36,6008.68,1241.5" stroke="rgb(0,161,255)" stroke-width="2" fill="none"></polyline>
<polyline points="1640.57,1622.51,5618.39,1212.31" stroke="rgb(255,63,0)" stroke-width="2" fill="none"></polyline>
<polyline points="2140.77,1586.03,5868.97,1597.62" stroke="rgb(255,0,29)" stroke-width="2" fill="none"></polyline>
<polyline points="2140.77,1586.03,5809.56,1528.55" stroke="rgb(0,72,255)" stroke-width="2" fill="none"></polyline>
<polyline points="2140.77,1586.03,5809.56,1528.55" stroke="rgb(127,255,0)" stroke-width="2" fill="none"></polyline>
<polyline points="2713.72,1369.3,6740.43,1579.78" stroke="rgb(59,255,0)" stroke-width="2" fill="none"></polyline>
<polyline points="2156.9,1625.39,5858.29,1652.29" stroke="rgb(0,8,255)" stroke-width="2" fill="none"></polyline>
<polyline points="2252.61,941.472,6764.93,1960.05" stroke="rgb(182,0,255)" stroke-width="2" fill="none"></polyline>
<polyline points="1139.37,1740.16,5839.03,1257.41" stroke="rgb(255,178,0)" stroke-width="2" fill="none"></polyline>
<polyline points="2605.57,1987.73,6633.08,1000.52" stroke="rgb(0,242,255)" stroke-width="2" fill="none"></polyline>
<polyline points="2776.57,1510.54,6626.97,1446.97" stroke="rgb(255,0,169)" stroke-width="2" fill="none"></polyline>
<circle cx="1383.26" cy="1556.98" r="4" stroke="rgb(255,38,0)" stroke-width="2" fill="none"></circle>
<circle cx="5428.07" cy="304.233" r="4" stroke="rgb(255,38,0)" stroke-width="2" fill="none"></circle>
<circle cx="1383.26" cy="1556.98" r="4" stroke="rgb(89,0,255)" stroke-width="2" fill="none"></circle>
<circle cx="5421.98" cy="308.821" r="4" stroke="rgb(89,0,255)" stroke-width="2" fill="none"></circle>
<circle cx="1273.47" cy="1413.05" r="4" stroke="rgb(255,0,199)" stroke-width="2" fill="none"></circle>
<circle cx="6019.68" cy="825.54" r="4" stroke="rgb(255,0,199)" stroke-width="2" fill="none"></circle>
<circle cx="1324.89" cy="1280.8" r="4" stroke="rgb(255,59,0)" stroke-width="2" fill="none"></circle>
<circle cx="5760.5" cy="461.925" r="4" stroke="rgb(255,59,0)" stroke-width="2" fill="none"></circle>
<circle cx="1273.47" cy="1413.05" r="4" stroke="rgb(72,255,0)" stroke-width="2" fill="none"></circle>
<circle cx="5798.96" cy="520.735" r="4" stroke="rgb(72,255,0)" stroke-width="2" fill="none"></circle>
<circle cx="1273.47" cy="1413.05" r="4" stroke="rgb(255,174,0)" stroke-width="2" fill="none"></circle>
<circle cx="5798.96" cy="520.735" r="4" stroke="rgb(255,174,0)" stroke-width="2" fill="none"></circle>
<circle cx="2341.31" cy="2119.4" r="4" stroke="rgb(255,140,0)" stroke-width="2" fill="none"></circle>
<circle cx="6548.31" cy="853.475" r="4" stroke="rgb(255,140,0)" stroke-width="2" fill="none"></circle>
<circle cx="1383.26" cy="1556.98" r="4" stroke="rgb(255,29,0)" stroke-width="2" fill="none"></circle>
<circle cx="5903.58" cy="548.897" r="4" stroke="rgb(255,29,0)" stroke-width="2" fill="none"></circle>
<circle cx="1274.41" cy="1425.26" r="4" stroke="rgb(0,255,55)" stroke-width="2" fill="none"></circle>
<circle cx="5734" cy="558.677" r="4" stroke="rgb(0,255,55)" stroke-width="2" fill="none"></circle>
<circle cx="1273.47" cy="1413.05" r="4" stroke="rgb(255,4,0)" stroke-width="2" fill="none"></circle>
<circle cx="5783.69" cy="490.634" r="4" stroke="rgb(255,4,0)" stroke-width="2" fill="none"></circle>
<circle cx="1681.89" cy="1575.81" r="4" stroke="rgb(0,255,93)" stroke-width="2" fill="none"></circle>
<circle cx="5918.45" cy="1680.23" r="4" stroke="rgb(0,255,93)" stroke-width="2" fill="none"></circle>
<circle cx="1683.94" cy="1565.64" r="4" stroke="rgb(255,127,0)" stroke-width="2" fill="none"></circle>
<circle cx="5927.29" cy="1681.19" r="4" stroke="rgb(255,127,0)" stroke-width="2" fill="none"></circle>
<circle cx="2788.37" cy="1475.18" r="4" stroke="rgb(153,255,0)" stroke-width="2" fill="none"></circle>
<circle cx="5384.22" cy="741.559" r="4" stroke="rgb(153,255,0)" stroke-width="2" fill="none"></circle>
<circle cx="1683.94" cy="1565.64" r="4" stroke="rgb(255,161,0)" stroke-width="2" fill="none"></circle>
<circle cx="5911.91" cy="1537.38" r="4" stroke="rgb(255,161,0)" stroke-width="2" fill="none"></circle>
<circle cx="1955.86" cy="901.368" r="4" stroke="rgb(0,8,255)" stroke-width="2" fill="none"></circle>
<circle cx="6616.52" cy="2008.75" r="4" stroke="rgb(0,8,255)" stroke-width="2" fill="none"></circle>
<circle cx="1587.45" cy="1203.54" r="4" stroke="rgb(0,38,255)" stroke-width="2" fill="none"></circle>
<circle cx="6721.51" cy="2013.28" r="4" stroke="rgb(0,38,255)" stroke-width="2" fill="none"></circle>
<circle cx="1273.47" cy="1413.05" r="4" stroke="rgb(255,89,0)" stroke-width="2" fill="none"></circle>
<circle cx="5785.99" cy="687.218" r="4" stroke="rgb(255,89,0)" stroke-width="2" fill="none"></circle>
<circle cx="2527.66" cy="1944.54" r="4" stroke="rgb(191,255,0)" stroke-width="2" fill="none"></circle>
<circle cx="5973.64" cy="775.934" r="4" stroke="rgb(191,255,0)" stroke-width="2" fill="none"></circle>
<circle cx="1666.13" cy="1531.69" r="4" stroke="rgb(4,0,255)" stroke-width="2" fill="none"></circle>
<circle cx="5927.07" cy="1583.63" r="4" stroke="rgb(4,0,255)" stroke-width="2" fill="none"></circle>
<circle cx="1273.47" cy="1413.05" r="4" stroke="rgb(0,255,97)" stroke-width="2" fill="none"></circle>
<circle cx="6207.97" cy="1083.36" r="4" stroke="rgb(0,255,97)" stroke-width="2" fill="none"></circle>
<circle cx="1273.47" cy="1413.05" r="4" stroke="rgb(255,0,165)" stroke-width="2" fill="none"></circle>
<circle cx="6207.97" cy="1083.36" r="4" stroke="rgb(255,0,165)" stroke-width="2" fill="none"></circle>
<circle cx="1613.72" cy="2104.67" r="4" stroke="rgb(242,255,0)" stroke-width="2" fill="none"></circle>
<circle cx="5617.66" cy="1391.59" r="4" stroke="rgb(242,255,0)" stroke-width="2" fill="none"></circle>
<circle cx="1274.41" cy="1425.26" r="4" stroke="rgb(255,0,233)" stroke-width="2" fill="none"></circle>
<circle cx="5936.92" cy="864.035" r="4" stroke="rgb(255,0,233)" stroke-width="2" fill="none"></circle>
<circle cx="1273.47" cy="1413.05" r="4" stroke="rgb(255,153,0)" stroke-width="2" fill="none"></circle>
<circle cx="5920.05" cy="868.59" r="4" stroke="rgb(255,153,0)" stroke-width="2" fill="none"></circle>
<circle cx="1398.09" cy="1106.05" r="4" stroke="rgb(0,110,255)" stroke-width="2" fill="none"></circle>
<circle cx="6757.74" cy="1158.15" r="4" stroke="rgb(0,110,255)" stroke-width="2" fill="none"></circle>
<circle cx="2826.73" cy="1476.12" r="4" stroke="rgb(42,0,255)" stroke-width="2" fill="none"></circle>
<circle cx="6604.94" cy="1810.13" r="4" stroke="rgb(42,0,255)" stroke-width="2" fill="none"></circle>
<circle cx="1301.02" cy="1682.81" r="4" stroke="rgb(0,165,255)" stroke-width="2" fill="none"></circle>
<circle cx="5629.7" cy="944.069" r="4" stroke="rgb(0,165,255)" stroke-width="2" fill="none"></circle>
<circle cx="1273.47" cy="1413.05" r="4" stroke="rgb(0,242,255)" stroke-width="2" fill="none"></circle>
<circle cx="6217.87" cy="1098.92" r="4" stroke="rgb(0,242,255)" stroke-width="2" fill="none"></circle>
<circle cx="1273.47" cy="1413.05" r="4" stroke="rgb(0,255,50)" stroke-width="2" fill="none"></circle>
<circle cx="6217.87" cy="1098.92" r="4" stroke="rgb(0,255,50)" stroke-width="2" fill="none"></circle>
<circle cx="1241.02" cy="1649.15" r="4" stroke="rgb(106,0,255)" stroke-width="2" fill="none"></circle>
<circle cx="5710.31" cy="1129.98" r="4" stroke="rgb(106,0,255)" stroke-width="2" fill="none"></circle>
<circle cx="2418.82" cy="1254.68" r="4" stroke="rgb(255,8,0)" stroke-width="2" fill="none"></circle>
<circle cx="5829.93" cy="1130.62" r="4" stroke="rgb(255,8,0)" stroke-width="2" fill="none"></circle>
<circle cx="2743.77" cy="1377.21" r="4" stroke="rgb(255,55,0)" stroke-width="2" fill="none"></circle>
<circle cx="6576.94" cy="1707.27" r="4" stroke="rgb(255,55,0)" stroke-width="2" fill="none"></circle>
<circle cx="1134.5" cy="1737.97" r="4" stroke="rgb(255,165,0)" stroke-width="2" fill="none"></circle>
<circle cx="6044.3" cy="1344.76" r="4" stroke="rgb(255,165,0)" stroke-width="2" fill="none"></circle>
<circle cx="1196.75" cy="1327.86" r="4" stroke="rgb(0,225,255)" stroke-width="2" fill="none"></circle>
<circle cx="5588.8" cy="928.318" r="4" stroke="rgb(0,225,255)" stroke-width="2" fill="none"></circle>
<circle cx="1139.37" cy="1740.16" r="4" stroke="rgb(80,0,255)" stroke-width="2" fill="none"></circle>
<circle cx="5831.44" cy="1260.95" r="4" stroke="rgb(80,0,255)" stroke-width="2" fill="none"></circle>
<circle cx="1139.37" cy="1740.16" r="4" stroke="rgb(0,255,93)" stroke-width="2" fill="none"></circle>
<circle cx="5831.44" cy="1260.95" r="4" stroke="rgb(0,255,93)" stroke-width="2" fill="none"></circle>
<circle cx="1284.06" cy="1669.3" r="4" stroke="rgb(80,255,0)" stroke-width="2" fill="none"></circle>
<circle cx="6730.17" cy="2011.36" r="4" stroke="rgb(80,255,0)" stroke-width="2" fill="none"></circle>
<circle cx="1273.47" cy="1413.05" r="4" stroke="rgb(221,0,255)" stroke-width="2" fill="none"></circle>
<circle cx="6218.1" cy="1098.57" r="4" stroke="rgb(221,0,255)" stroke-width="2" fill="none"></circle>
<circle cx="1273.47" cy="1413.05" r="4" stroke="rgb(255,89,0)" stroke-width="2" fill="none"></circle>
<circle cx="6218.1" cy="1098.57" r="4" stroke="rgb(255,89,0)" stroke-width="2" fill="none"></circle>
<circle cx="1724.07" cy="1699.27" r="4" stroke="rgb(0,25,255)" stroke-width="2" fill="none"></circle>
<circle cx="5896.26" cy="1551.44" r="4" stroke="rgb(0,25,255)" stroke-width="2" fill="none"></circle>
<circle cx="1142.01" cy="2236.86" r="4" stroke="rgb(0,255,191)" stroke-width="2" fill="none"></circle>
<circle cx="5222.34" cy="476.863" r="4" stroke="rgb(0,255,191)" stroke-width="2" fill="none"></circle>
<circle cx="1491.15" cy="1929.63" r="4" stroke="rgb(0,255,182)" stroke-width="2" fill="none"></circle>
<circle cx="6741.53" cy="1125.42" r="4" stroke="rgb(0,255,182)" stroke-width="2" fill="none"></circle>
<circle cx="2561.9" cy="1027.01" r="4" stroke="rgb(102,0,255)" stroke-width="2" fill="none"></circle>
<circle cx="5802.81" cy="695.959" r="4" stroke="rgb(102,0,255)" stroke-width="2" fill="none"></circle>
<circle cx="1335.5" cy="2113.19" r="4" stroke="rgb(38,0,255)" stroke-width="2" fill="none"></circle>
<circle cx="5215.63" cy="682.206" r="4" stroke="rgb(38,0,255)" stroke-width="2" fill="none"></circle>
<circle cx="1233.06" cy="1350.36" r="4" stroke="rgb(0,161,255)" stroke-width="2" fill="none"></circle>
<circle cx="6008.68" cy="1241.5" r="4" stroke="rgb(0,161,255)" stroke-width="2" fill="none"></circle>
<circle cx="1640.57" cy="1622.51" r="4" stroke="rgb(255,63,0)" stroke-width="2" fill="none"></circle>
<circle cx="5618.39" cy="1212.31" r="4" stroke="rgb(255,63,0)" stroke-width="2" fill="none"></circle>
<circle cx="2140.77" cy="1586.03" r="4" stroke="rgb(255,0,29)" stroke-width="2" fill="none"></circle>
<circle cx="5868.97" cy="1597.62" r="4" stroke="rgb(255,0,29)" stroke-width="2" fill="none"></circle>
<circle cx="2140.77" cy="1586.03" r="4" stroke="rgb(0,72,255)" stroke-width="2" fill="none"></circle>
<circle cx="5809.56" cy="1528.55" r="4" stroke="rgb(0,72,255)" stroke-width="2" fill="none"></circle>
<circle cx="2140.77" cy="1586.03" r="4" stroke="rgb(127,255,0)" stroke-width="2" fill="none"></circle>
<circle cx="5809.56" cy="1528.55" r="4" stroke="rgb(127,255,0)" stroke-width="2" fill="none"></circle>
<circle cx="2713.72" cy="1369.3" r="4" stroke="rgb(59,255,0)" stroke-width="2" fill="none"></circle>
<circle cx="6740.43" cy="1579.78" r="4" stroke="rgb(59,255,0)" stroke-width="2" fill="none"></circle>
<circle cx="2156.9" cy="1625.39" r="4" stroke="rgb(0,8,255)" stroke-width="2" fill="none"></circle>
<circle cx="5858.29" cy="1652.29" r="4" stroke="rgb(0,8,255)" stroke-width="2" fill="none"></circle>
<circle cx="2252.61" cy="941.472" r="4" stroke="rgb(182,0,255)" stroke-width="2" fill="none"></circle>
<circle cx="6764.93" cy="1960.05" r="4" stroke="rgb(182,0,255)" stroke-width="2" fill="none"></circle>
<circle cx="1139.37" cy="1740.16" r="4" stroke="rgb(255,178,0)" stroke-width="2" fill="none"></circle>
<circle cx="5839.03" cy="1257.41" r="4" stroke="rgb(255,178,0)" stroke-width="2" fill="none"></circle>
<circle cx="2605.57" cy="1987.73" r="4" stroke="rgb(0,242,255)" stroke-width="2" fill="none"></circle>
<circle cx="6633.08" cy="1000.52" r="4" stroke="rgb(0,242,255)" stroke-width="2" fill="none"></circle>
<circle cx="2776.57" cy="1510.54" r="4" stroke="rgb(255,0,169)" stroke-width="2" fill="none"></circle>
<circle cx="6626.97" cy="1446.97" r="4" stroke="rgb(255,0,169)" stroke-width="2" fill="none"></circle>
</svg>