<?xml version="1.0" standalone="yes"?>
<!-- SVG graphic -->
<svg xmlns='http://www.w3.org/2000/svg' xmlns:xlink='http://www.w3.org/1999/xlink'
width="8064px" height="3024px" preserveAspectRatio="xMinYMin meet" viewBox="0 0 8064 3024" version="1.1">
<image x="0" y="0" width="4032px" height="3024px" opacity="1" xlink:href="/home/jeong/Code/2D-to-3D-Modeling-using-AI/Make3D/Image/20200227_180652.jpg"/>
<image x="4032" y="0" width="4032px" height="3024px" opacity="1" xlink:href="/home/jeong/Code/2D-to-3D-Modeling-using-AI/Make3D/Image/20200227_180730.jpg"/>
<polyline points="2744.86,1369.39,6163.11,1073.77" stroke="rgb(67,0,255)" stroke-width="2" fill="none"></polyline>
<polyline points="2643.47,1967.55,6297.14,648.132" stroke="rgb(255,0,233)" stroke-width="2" fill="none"></polyline>
<polyline points="1931.91,887.977,6285.26,639.639" stroke="rgb(0,255,174)" stroke-width="2" fill="none"></polyline>
<polyline points="1928.29,1386.46,5793.8,1139.21" stroke="rgb(255,0,208)" stroke-width="2" fill="none"></polyline>
<polyline points="1269.71,1737.67,6018.24,759.394" stroke="rgb(255,0,216)" stroke-width="2" fill="none"></polyline>
<polyline points="1299.62,1513.23,6030.49,762.212" stroke="rgb(246,0,255)" stroke-width="2" fill="none"></polyline>
<polyline points="2566.36,2051.96,5360.72,778.835" stroke="rgb(0,233,255)" stroke-width="2" fill="none"></polyline>
<polyline points="1239.19,1736.3,6369.07,1179.29" stroke="rgb(0,195,255)" stroke-width="2" fill="none"></polyline>
<polyline points="763.469,2155.63,6033.08,2530.65" stroke="rgb(255,0,97)" stroke-width="2" fill="none"></polyline>
<polyline points="2396.06,2074.7,6743.34,931.09" stroke="rgb(255,55,0)" stroke-width="2" fill="none"></polyline>
<polyline points="2255.67,1931.83,5707.08,1357.9" stroke="rgb(114,255,0)" stroke-width="2" fill="none"></polyline>
<polyline points="1491.58,1913.08,5754.77,1368.77" stroke="rgb(255,0,33)" stroke-width="2" fill="none"></polyline>
<polyline points="1134.5,1737.97,6127.01,1507.3" stroke="rgb(25,255,0)" stroke-width="2" fill="none"></polyline>
<polyline points="1621.59,1996.75,6121.5,1509.62" stroke="rgb(72,0,255)" stroke-width="2" fill="none"></polyline>
<polyline points="1924.57,1415.3,6601.92,1651.68" stroke="rgb(21,0,255)" stroke-width="2" fill="none"></polyline>
<polyline points="1708.59,1703.43,6809.01,1219.52" stroke="rgb(0,85,255)" stroke-width="2" fill="none"></polyline>
<polyline points="1283.07,1358.88,6567.63,1653" stroke="rgb(229,0,255)" stroke-width="2" fill="none"></polyline>
<polyline points="3029.75,1551.1,6793.69,2100.51" stroke="rgb(174,0,255)" stroke-width="2" fill="none"></polyline>
<polyline points="1139.37,1740.16,5928.2,1381.63" stroke="rgb(0,255,21)" stroke-width="2" fill="none"></polyline>
<polyline points="2763,1890.66,6618.25,2082.59" stroke="rgb(255,238,0)" stroke-width="2" fill="none"></polyline>
<polyline points="1332.9,1218.03,5617.54,397.428" stroke="rgb(0,255,12)" stroke-width="2" fill="none"></polyline>
<polyline points="1491.15,1929.63,6796.16,1368.93" stroke="rgb(0,255,84)" stroke-width="2" fill="none"></polyline>
<polyline points="1319.6,1519.96,7040.56,1414.88" stroke="rgb(255,208,0)" stroke-width="2" fill="none"></polyline>
<polyline points="2140.77,1586.03,5863.04,1620.09" stroke="rgb(0,93,255)" stroke-width="2" fill="none"></polyline>
<polyline points="2140.77,1586.03,5912.87,1696.71" stroke="rgb(76,255,0)" stroke-width="2" fill="none"></polyline>
<polyline points="1131.14,1525.38,6413.68,1809.67" stroke="rgb(255,114,0)" stroke-width="2" fill="none"></polyline>
<polyline points="2782.38,1534.9,6198,1099.3" stroke="rgb(101,255,0)" stroke-width="2" fill="none"></polyline>
<polyline points="1283.07,1358.88,6531.88,1778.14" stroke="rgb(255,110,0)" stroke-width="2" fill="none"></polyline>
<polyline points="1131.14,1525.38,6459.89,1797.96" stroke="rgb(216,255,0)" stroke-width="2" fill="none"></polyline>
<polyline points="2565.66,1987.59,6898.21,1191.31" stroke="rgb(0,255,131)" stroke-width="2" fill="none"></polyline>
<polyline points="2605.57,1987.73,6712.51,1238.54" stroke="rgb(255,0,59)" stroke-width="2" fill="none"></polyline>
<polyline points="1159.08,2212.8,5481.13,779.074" stroke="rgb(0,182,255)" stroke-width="2" fill="none"></polyline>
<polyline points="2776.57,1510.54,6657.04,1676.74" stroke="rgb(255,0,136)" stroke-width="2" fill="none"></polyline>
<circle cx="2744.86" cy="1369.39" r="4" stroke="rgb(67,0,255)" stroke-width="2" fill="none"></circle>
<circle cx="6163.11" cy="1073.77" r="4" stroke="rgb(67,0,255)" stroke-width="2" fill="none"></circle>
<circle cx="2643.47" cy="1967.55" r="4" stroke="rgb(255,0,233)" stroke-width="2" fill="none"></circle>
<circle cx="6297.14" cy="648.132" r="4" stroke="rgb(255,0,233)" stroke-width="2" fill="none"></circle>
<circle cx="1931.91" cy="887.977" r="4" stroke="rgb(0,255,174)" stroke-width="2" fill="none"></circle>
<circle cx="6285.26" cy="639.639" r="4" stroke="rgb(0,255,174)" stroke-width="2" fill="none"></circle>
<circle cx="1928.29" cy="1386.46" r="4" stroke="rgb(255,0,208)" stroke-width="2" fill="none"></circle>
<circle cx="5793.8" cy="1139.21" r="4" stroke="rgb(255,0,208)" stroke-width="2" fill="none"></circle>
<circle cx="1269.71" cy="1737.67" r="4" stroke="rgb(255,0,216)" stroke-width="2" fill="none"></circle>
<circle cx="6018.24" cy="759.394" r="4" stroke="rgb(255,0,216)" stroke-width="2" fill="none"></circle>
<circle cx="1299.62" cy="1513.23" r="4" stroke="rgb(246,0,255)" stroke-width="2" fill="none"></circle>
<circle cx="6030.49" cy="762.212" r="4" stroke="rgb(246,0,255)" stroke-width="2" fill="none"></circle>
<circle cx="2566.36" cy="2051.96" r="4" stroke="rgb(0,233,255)" stroke-width="2" fill="none"></circle>
<circle cx="5360.72" cy="778.835" r="4" stroke="rgb(0,233,255)" stroke-width="2" fill="none"></circle>
<circle cx="1239.19" cy="1736.3" r="4" stroke="rgb(0,195,255)" stroke-width="2" fill="none"></circle>
<circle cx="6369.07" cy="1179.29" r="4" stroke="rgb(0,195,255)" stroke-width="2" fill="none"></circle>
<circle cx="763.469" cy="2155.63" r="4" stroke="rgb(255,0,97)" stroke-width="2" fill="none"></circle>
<circle cx="6033.08" cy="2530.65" r="4" stroke="rgb(255,0,97)" stroke-width="2" fill="none"></circle>
<circle cx="2396.06" cy="2074.7" r="4" stroke="rgb(255,55,0)" stroke-width="2" fill="none"></circle>
<circle cx="6743.34" cy="931.09" r="4" stroke="rgb(255,55,0)" stroke-width="2" fill="none"></circle>
<circle cx="2255.67" cy="1931.83" r="4" stroke="rgb(114,255,0)" stroke-width="2" fill="none"></circle>
<circle cx="5707.08" cy="1357.9" r="4" stroke="rgb(114,255,0)" stroke-width="2" fill="none"></circle>
<circle cx="1491.58" cy="1913.08" r="4" stroke="rgb(255,0,33)" stroke-width="2" fill="none"></circle>
<circle cx="5754.77" cy="1368.77" r="4" stroke="rgb(255,0,33)" stroke-width="2" fill="none"></circle>
<circle cx="1134.5" cy="1737.97" r="4" stroke="rgb(25,255,0)" stroke-width="2" fill="none"></circle>
<circle cx="6127.01" cy="1507.3" r="4" stroke="rgb(25,255,0)" stroke-width="2" fill="none"></circle>
<circle cx="1621.59" cy="1996.75" r="4" stroke="rgb(72,0,255)" stroke-width="2" fill="none"></circle>
<circle cx="6121.5" cy="1509.62" r="4" stroke="rgb(72,0,255)" stroke-width="2" fill="none"></circle>
<circle cx="1924.57" cy="1415.3" r="4" stroke="rgb(21,0,255)" stroke-width="2" fill="none"></circle>
<circle cx="6601.92" cy="1651.68" r="4" stroke="rgb(21,0,255)" stroke-width="2" fill="none"></circle>
<circle cx="1708.59" cy="1703.43" r="4" stroke="rgb(0,85,255)" stroke-width="2" fill="none"></circle>
<circle cx="6809.01" cy="1219.52" r="4" stroke="rgb(0,85,255)" stroke-width="2" fill="none"></circle>
<circle cx="1283.07" cy="1358.88" r="4" stroke="rgb(229,0,255)" stroke-width="2" fill="none"></circle>
<circle cx="6567.63" cy="1653" r="4" stroke="rgb(229,0,255)" stroke-width="2" fill="none"></circle>
<circle cx="3029.75" cy="1551.1" r="4" stroke="rgb(174,0,255)" stroke-width="2" fill="none"></circle>
<circle cx="6793.69" cy="2100.51" r="4" stroke="rgb(174,0,255)" stroke-width="2" fill="none"></circle>
<circle cx="1139.37" cy="1740.16" r="4" stroke="rgb(0,255,21)" stroke-width="2" fill="none"></circle>
<circle cx="5928.2" cy="1381.63" r="4" stroke="rgb(0,255,21)" stroke-width="2" fill="none"></circle>
<circle cx="2763" cy="1890.66" r="4" stroke="rgb(255,238,0)" stroke-width="2" fill="none"></circle>
<circle cx="6618.25" cy="2082.59" r="4" stroke="rgb(255,238,0)" stroke-width="2" fill="none"></circle>
<circle cx="1332.9" cy="1218.03" r="4" stroke="rgb(0,255,12)" stroke-width="2" fill="none"></circle>
<circle cx="5617.54" cy="397.428" r="4" stroke="rgb(0,255,12)" stroke-width="2" fill="none"></circle>
<circle cx="1491.15" cy="1929.63" r="4" stroke="rgb(0,255,84)" stroke-width="2" fill="none"></circle>
<circle cx="6796.16" cy="1368.93" r="4" stroke="rgb(0,255,84)" stroke-width="2" fill="none"></circle>
<circle cx="1319.6" cy="1519.96" r="4" stroke="rgb(255,208,0)" stroke-width="2" fill="none"></circle>
<circle cx="7040.56" cy="1414.88" r="4" stroke="rgb(255,208,0)" stroke-width="2" fill="none"></circle>
<circle cx="2140.77" cy="1586.03" r="4" stroke="rgb(0,93,255)" stroke-width="2" fill="none"></circle>
<circle cx="5863.04" cy="1620.09" r="4" stroke="rgb(0,93,255)" stroke-width="2" fill="none"></circle>
<circle cx="2140.77" cy="1586.03" r="4" stroke="rgb(76,255,0)" stroke-width="2" fill="none"></circle>
<circle cx="5912.87" cy="1696.71" r="4" stroke="rgb(76,255,0)" stroke-width="2" fill="none"></circle>
<circle cx="1131.14" cy="1525.38" r="4" stroke="rgb(255,114,0)" stroke-width="2" fill="none"></circle>
<circle cx="6413.68" cy="1809.67" r="4" stroke="rgb(255,114,0)" stroke-width="2" fill="none"></circle>
<circle cx="2782.38" cy="1534.9" r="4" stroke="rgb(101,255,0)" stroke-width="2" fill="none"></circle>
<circle cx="6198" cy="1099.3" r="4" stroke="rgb(101,255,0)" stroke-width="2" fill="none"></circle>
<circle cx="1283.07" cy="1358.88" r="4" stroke="rgb(255,110,0)" stroke-width="2" fill="none"></circle>
<circle cx="6531.88" cy="1778.14" r="4" stroke="rgb(255,110,0)" stroke-width="2" fill="none"></circle>
<circle cx="1131.14" cy="1525.38" r="4" stroke="rgb(216,255,0)" stroke-width="2" fill="none"></circle>
<circle cx="6459.89" cy="1797.96" r="4" stroke="rgb(216,255,0)" stroke-width="2" fill="none"></circle>
<circle cx="2565.66" cy="1987.59" r="4" stroke="rgb(0,255,131)" stroke-width="2" fill="none"></circle>
<circle cx="6898.21" cy="1191.31" r="4" stroke="rgb(0,255,131)" stroke-width="2" fill="none"></circle>
<circle cx="2605.57" cy="1987.73" r="4" stroke="rgb(255,0,59)" stroke-width="2" fill="none"></circle>
<circle cx="6712.51" cy="1238.54" r="4" stroke="rgb(255,0,59)" stroke-width="2" fill="none"></circle>
<circle cx="1159.08" cy="2212.8" r="4" stroke="rgb(0,182,255)" stroke-width="2" fill="none"></circle>
<circle cx="5481.13" cy="779.074" r="4" stroke="rgb(0,182,255)" stroke-width="2" fill="none"></circle>
<circle cx="2776.57" cy="1510.54" r="4" stroke="rgb(255,0,136)" stroke-width="2" fill="none"></circle>
<circle cx="6657.04" cy="1676.74" r="4" stroke="rgb(255,0,136)" stroke-width="2" fill="none"></circle>
</svg>