<?xml version="1.0" standalone="yes"?>
<!-- SVG graphic -->
<svg xmlns='http://www.w3.org/2000/svg' xmlns:xlink='http://www.w3.org/1999/xlink'
width="8064px" height="3024px" preserveAspectRatio="xMinYMin meet" viewBox="0 0 8064 3024" version="1.1">
<image x="0" y="0" width="4032px" height="3024px" opacity="1" xlink:href="/home/jeong/Code/2D-to-3D-Modeling-using-AI/Make3D/Image/20200227_180652.jpg"/>
<image x="4032" y="0" width="4032px" height="3024px" opacity="1" xlink:href="/home/jeong/Code/2D-to-3D-Modeling-using-AI/Make3D/Image/20200227_180741.jpg"/>
<polyline points="1915.96,1763.52,5827.66,665.883" stroke="rgb(255,242,0)" stroke-width="2" fill="none"></polyline>
<polyline points="1705.44,2044.59,5649.98,792.519" stroke="rgb(0,255,4)" stroke-width="2" fill="none"></polyline>
<polyline points="1353.01,1199,4848.51,192.746" stroke="rgb(153,255,0)" stroke-width="2" fill="none"></polyline>
<polyline points="3030.16,1558.53,5284.45,203.652" stroke="rgb(255,0,229)" stroke-width="2" fill="none"></polyline>
<polyline points="1231.07,1661.87,5972.81,228.027" stroke="rgb(0,255,8)" stroke-width="2" fill="none"></polyline>
<polyline points="1311.57,1917.64,6556.66,795.882" stroke="rgb(0,135,255)" stroke-width="2" fill="none"></polyline>
<polyline points="1973.99,1627.74,5260.9,306.93" stroke="rgb(255,0,136)" stroke-width="2" fill="none"></polyline>
<polyline points="1851.19,2110.53,5677.43,809.178" stroke="rgb(0,255,178)" stroke-width="2" fill="none"></polyline>
<polyline points="2464.23,1418.98,6950.86,704.122" stroke="rgb(0,255,186)" stroke-width="2" fill="none"></polyline>
<polyline points="1437.57,1605.13,4411.52,713.911" stroke="rgb(29,255,0)" stroke-width="2" fill="none"></polyline>
<polyline points="1737.44,1476.58,5541.25,1457.16" stroke="rgb(255,0,242)" stroke-width="2" fill="none"></polyline>
<polyline points="1273.47,1413.05,5656.07,2660.25" stroke="rgb(97,0,255)" stroke-width="2" fill="none"></polyline>
<polyline points="1621.59,1996.75,5019.62,1969.65" stroke="rgb(0,187,255)" stroke-width="2" fill="none"></polyline>
<polyline points="2464.23,1418.98,7138.62,849.497" stroke="rgb(0,169,255)" stroke-width="2" fill="none"></polyline>
<polyline points="2392.43,1798.81,5698.28,427.68" stroke="rgb(25,255,0)" stroke-width="2" fill="none"></polyline>
<polyline points="1132.03,2048.04,5240.24,1499.51" stroke="rgb(255,165,0)" stroke-width="2" fill="none"></polyline>
<polyline points="1410.78,1949.17,6982.78,771.336" stroke="rgb(255,0,191)" stroke-width="2" fill="none"></polyline>
<polyline points="1304.91,1975.86,5801.09,910.747" stroke="rgb(255,0,101)" stroke-width="2" fill="none"></polyline>
<polyline points="2028.34,946.676,6885.4,484.625" stroke="rgb(191,255,0)" stroke-width="2" fill="none"></polyline>
<polyline points="1851.19,2110.53,5521.72,828.264" stroke="rgb(246,255,0)" stroke-width="2" fill="none"></polyline>
<polyline points="1273.47,1413.05,5271.69,2025.48" stroke="rgb(255,165,0)" stroke-width="2" fill="none"></polyline>
<polyline points="1989.3,1385.18,5677.19,833.112" stroke="rgb(255,221,0)" stroke-width="2" fill="none"></polyline>
<polyline points="2850.84,1744.4,5136.09,2001.87" stroke="rgb(255,0,51)" stroke-width="2" fill="none"></polyline>
<polyline points="2017.21,1434.73,5646.14,633.307" stroke="rgb(246,255,0)" stroke-width="2" fill="none"></polyline>
<polyline points="2017.21,1434.73,5646.14,633.307" stroke="rgb(97,255,0)" stroke-width="2" fill="none"></polyline>
<polyline points="1636.95,2008.61,5581.1,506.487" stroke="rgb(0,255,157)" stroke-width="2" fill="none"></polyline>
<polyline points="2056.88,1392.4,5468.26,646.158" stroke="rgb(255,106,0)" stroke-width="2" fill="none"></polyline>
<polyline points="2056.88,1392.4,5468.26,646.158" stroke="rgb(0,101,255)" stroke-width="2" fill="none"></polyline>
<polyline points="1132.03,2048.04,5341.88,2020.44" stroke="rgb(0,110,255)" stroke-width="2" fill="none"></polyline>
<polyline points="2297.66,1481.46,5689.12,518.335" stroke="rgb(0,255,174)" stroke-width="2" fill="none"></polyline>
<polyline points="1132.03,2048.04,5350.19,2036.21" stroke="rgb(0,255,114)" stroke-width="2" fill="none"></polyline>
<polyline points="2743.77,1377.21,5830.95,975.769" stroke="rgb(0,255,101)" stroke-width="2" fill="none"></polyline>
<polyline points="2743.77,1377.21,5748.91,981.612" stroke="rgb(178,0,255)" stroke-width="2" fill="none"></polyline>
<polyline points="1390.86,2055.56,6864.23,384.23" stroke="rgb(0,38,255)" stroke-width="2" fill="none"></polyline>
<polyline points="2639.73,1802.43,4278.08,547.817" stroke="rgb(127,255,0)" stroke-width="2" fill="none"></polyline>
<polyline points="1980.54,1773.83,5732.94,385.815" stroke="rgb(157,0,255)" stroke-width="2" fill="none"></polyline>
<polyline points="1414.02,1976.56,6304.04,393.332" stroke="rgb(174,255,0)" stroke-width="2" fill="none"></polyline>
<polyline points="2297.66,1481.46,5713.44,578.467" stroke="rgb(212,0,255)" stroke-width="2" fill="none"></polyline>
<polyline points="2357.39,2102.98,6750.77,1613.21" stroke="rgb(174,255,0)" stroke-width="2" fill="none"></polyline>
<polyline points="2031.92,1662.37,5387.33,600.967" stroke="rgb(16,255,0)" stroke-width="2" fill="none"></polyline>
<polyline points="2135.61,1458.5,5803.46,713.405" stroke="rgb(255,187,0)" stroke-width="2" fill="none"></polyline>
<polyline points="2056.88,1392.4,5483.07,717.888" stroke="rgb(59,0,255)" stroke-width="2" fill="none"></polyline>
<polyline points="1437.57,1605.13,5402.42,2106.69" stroke="rgb(255,80,0)" stroke-width="2" fill="none"></polyline>
<polyline points="1621.59,1996.75,5463.32,624.34" stroke="rgb(0,0,255)" stroke-width="2" fill="none"></polyline>
<polyline points="1304.91,1975.86,5618.04,957.381" stroke="rgb(110,255,0)" stroke-width="2" fill="none"></polyline>
<polyline points="2760.69,1445.72,4923.17,1040.33" stroke="rgb(255,21,0)" stroke-width="2" fill="none"></polyline>
<polyline points="2046.92,2077.04,5195.7,1653.43" stroke="rgb(0,255,131)" stroke-width="2" fill="none"></polyline>
<polyline points="1552,1959.25,5650.04,2128.41" stroke="rgb(255,212,0)" stroke-width="2" fill="none"></polyline>
<polyline points="2239.09,1462.22,5620.47,464.05" stroke="rgb(0,110,255)" stroke-width="2" fill="none"></polyline>
<polyline points="1273.47,1413.05,5032.88,772.71" stroke="rgb(0,59,255)" stroke-width="2" fill="none"></polyline>
<polyline points="1080.63,1834.33,6782.06,1690.52" stroke="rgb(33,255,0)" stroke-width="2" fill="none"></polyline>
<polyline points="2315.91,1385.73,5681.41,658.852" stroke="rgb(0,255,21)" stroke-width="2" fill="none"></polyline>
<polyline points="1632.64,1180.59,5046.31,807.044" stroke="rgb(0,255,127)" stroke-width="2" fill="none"></polyline>
<polyline points="1851.19,2110.53,5551.79,842.352" stroke="rgb(80,255,0)" stroke-width="2" fill="none"></polyline>
<polyline points="1928.29,1386.46,4947.9,2276.02" stroke="rgb(255,255,0)" stroke-width="2" fill="none"></polyline>
<polyline points="1928.29,1386.46,4952.02,2271.2" stroke="rgb(34,0,255)" stroke-width="2" fill="none"></polyline>
<polyline points="1274.41,1425.26,5066.22,1061.7" stroke="rgb(0,255,42)" stroke-width="2" fill="none"></polyline>
<polyline points="1791.69,1904.1,5766.27,529.203" stroke="rgb(148,255,0)" stroke-width="2" fill="none"></polyline>
<polyline points="1928.29,1386.46,4942.18,1108.26" stroke="rgb(67,255,0)" stroke-width="2" fill="none"></polyline>
<polyline points="2297.66,1481.46,5617.49,737.153" stroke="rgb(255,0,63)" stroke-width="2" fill="none"></polyline>
<polyline points="1103.85,1723.16,6316.38,2380.75" stroke="rgb(4,255,0)" stroke-width="2" fill="none"></polyline>
<polyline points="1273.47,1413.05,5136.73,1149.7" stroke="rgb(0,255,12)" stroke-width="2" fill="none"></polyline>
<polyline points="2169.49,1408.46,5651.99,566.162" stroke="rgb(0,255,38)" stroke-width="2" fill="none"></polyline>
<polyline points="1273.47,1413.05,5126.7,1178.26" stroke="rgb(140,0,255)" stroke-width="2" fill="none"></polyline>
<polyline points="1273.47,1413.05,5126.7,1178.26" stroke="rgb(255,0,25)" stroke-width="2" fill="none"></polyline>
<polyline points="2060.05,1561.62,5360.26,584.585" stroke="rgb(123,255,0)" stroke-width="2" fill="none"></polyline>
<polyline points="1679.22,1607.08,6114.99,2490.85" stroke="rgb(0,212,255)" stroke-width="2" fill="none"></polyline>
<polyline points="2135.61,1458.5,5526.77,624.003" stroke="rgb(255,0,229)" stroke-width="2" fill="none"></polyline>
<polyline points="2608.7,1032.17,5042.5,1255.29" stroke="rgb(255,93,0)" stroke-width="2" fill="none"></polyline>
<polyline points="2056.88,1392.4,5468.06,646.177" stroke="rgb(0,255,89)" stroke-width="2" fill="none"></polyline>
<polyline points="2056.88,1392.4,5468.06,646.177" stroke="rgb(229,0,255)" stroke-width="2" fill="none"></polyline>
<polyline points="1296.21,1220.99,6341.75,1050.49" stroke="rgb(229,255,0)" stroke-width="2" fill="none"></polyline>
<polyline points="1610.79,949.034,4984.07,1336.93" stroke="rgb(255,153,0)" stroke-width="2" fill="none"></polyline>
<polyline points="2608.7,1032.17,5042.76,1255.56" stroke="rgb(255,0,199)" stroke-width="2" fill="none"></polyline>
<polyline points="1474.92,1896.01,6638.33,1522.83" stroke="rgb(0,255,246)" stroke-width="2" fill="none"></polyline>
<polyline points="1185.7,1323.16,5293.58,2831.25" stroke="rgb(0,255,42)" stroke-width="2" fill="none"></polyline>
<polyline points="1196.75,1327.86,5307.26,2848.51" stroke="rgb(0,208,255)" stroke-width="2" fill="none"></polyline>
<polyline points="2572.52,1487.87,5628.44,467.837" stroke="rgb(255,0,131)" stroke-width="2" fill="none"></polyline>
<polyline points="1994.18,1592.91,5595.18,503.493" stroke="rgb(255,221,0)" stroke-width="2" fill="none"></polyline>
<polyline points="2717.47,1897.61,6247.72,2077.2" stroke="rgb(255,191,0)" stroke-width="2" fill="none"></polyline>
<polyline points="1437.57,1605.13,5415.42,2127.09" stroke="rgb(221,255,0)" stroke-width="2" fill="none"></polyline>
<polyline points="1283.07,1358.88,5409.11,2474.94" stroke="rgb(0,255,191)" stroke-width="2" fill="none"></polyline>
<polyline points="1377.98,1052.07,4607.2,2535.65" stroke="rgb(255,178,0)" stroke-width="2" fill="none"></polyline>
<polyline points="1341.75,1518.14,4931.04,2800.47" stroke="rgb(0,93,255)" stroke-width="2" fill="none"></polyline>
<polyline points="1390.86,2055.56,6020,2832.42" stroke="rgb(0,255,76)" stroke-width="2" fill="none"></polyline>
<polyline points="2041.23,2103.23,5483.16,2165.44" stroke="rgb(76,255,0)" stroke-width="2" fill="none"></polyline>
<polyline points="2548.54,945.932,5962.72,2172.92" stroke="rgb(59,255,0)" stroke-width="2" fill="none"></polyline>
<polyline points="1684.61,1523.44,5674.39,719.489" stroke="rgb(0,255,84)" stroke-width="2" fill="none"></polyline>
<polyline points="2093.48,1452.08,5808.68,729.204" stroke="rgb(0,221,255)" stroke-width="2" fill="none"></polyline>
<polyline points="1299.62,1513.23,5908.15,356.33" stroke="rgb(161,255,0)" stroke-width="2" fill="none"></polyline>
<polyline points="2133.97,1651.76,5618.11,388.652" stroke="rgb(0,255,21)" stroke-width="2" fill="none"></polyline>
<polyline points="1283.07,1358.88,5409.7,2474.89" stroke="rgb(0,255,250)" stroke-width="2" fill="none"></polyline>
<polyline points="2133.97,1651.76,5496.34,411.384" stroke="rgb(0,148,255)" stroke-width="2" fill="none"></polyline>
<polyline points="2450.88,1781.61,6404.88,445.146" stroke="rgb(0,255,25)" stroke-width="2" fill="none"></polyline>
<polyline points="2133.97,1651.76,5435.01,456.873" stroke="rgb(119,255,0)" stroke-width="2" fill="none"></polyline>
<polyline points="1541.67,1711.55,5089.47,1705.86" stroke="rgb(0,169,255)" stroke-width="2" fill="none"></polyline>
<polyline points="1044.57,2132.14,4914.96,570.232" stroke="rgb(127,255,0)" stroke-width="2" fill="none"></polyline>
<polyline points="1796.57,1965.12,6062,1449.04" stroke="rgb(182,0,255)" stroke-width="2" fill="none"></polyline>
<polyline points="1104.05,1739.47,4890.58,653.791" stroke="rgb(255,76,0)" stroke-width="2" fill="none"></polyline>
<polyline points="1134.5,1737.97,4890.58,653.791" stroke="rgb(33,255,0)" stroke-width="2" fill="none"></polyline>
<polyline points="2121.32,1429.21,5473.3,565.426" stroke="rgb(237,255,0)" stroke-width="2" fill="none"></polyline>
<polyline points="1767.42,1602.5,5643.77,615.088" stroke="rgb(255,0,204)" stroke-width="2" fill="none"></polyline>
<polyline points="2608.53,1064.92,6248.99,1934.89" stroke="rgb(255,212,0)" stroke-width="2" fill="none"></polyline>
<polyline points="2622.32,1368.41,5384.97,1995.09" stroke="rgb(255,0,119)" stroke-width="2" fill="none"></polyline>
<polyline points="2118.25,895.976,7139.21,767.987" stroke="rgb(106,0,255)" stroke-width="2" fill="none"></polyline>
<polyline points="2298.38,1803.95,6340.81,786.708" stroke="rgb(0,51,255)" stroke-width="2" fill="none"></polyline>
<polyline points="2608.7,1032.17,4970.51,894.66" stroke="rgb(72,255,0)" stroke-width="2" fill="none"></polyline>
<polyline points="2608.7,1032.17,4970.51,894.66" stroke="rgb(255,0,136)" stroke-width="2" fill="none"></polyline>
<polyline points="1436.03,1889.78,6809.06,1086.15" stroke="rgb(0,182,255)" stroke-width="2" fill="none"></polyline>
<polyline points="2255.67,1931.83,5470.34,435.543" stroke="rgb(0,255,148)" stroke-width="2" fill="none"></polyline>
<polyline points="1437.57,1605.13,6328.85,441.292" stroke="rgb(21,0,255)" stroke-width="2" fill="none"></polyline>
<polyline points="2584.62,1631.19,6691.82,1654.88" stroke="rgb(106,0,255)" stroke-width="2" fill="none"></polyline>
<polyline points="2412.16,1251.81,5630.76,2629.11" stroke="rgb(0,203,255)" stroke-width="2" fill="none"></polyline>
<circle cx="1915.96" cy="1763.52" r="4" stroke="rgb(255,242,0)" stroke-width="2" fill="none"></circle>
<circle cx="5827.66" cy="665.883" r="4" stroke="rgb(255,242,0)" stroke-width="2" fill="none"></circle>
<circle cx="1705.44" cy="2044.59" r="4" stroke="rgb(0,255,4)" stroke-width="2" fill="none"></circle>
<circle cx="5649.98" cy="792.519" r="4" stroke="rgb(0,255,4)" stroke-width="2" fill="none"></circle>
<circle cx="1353.01" cy="1199" r="4" stroke="rgb(153,255,0)" stroke-width="2" fill="none"></circle>
<circle cx="4848.51" cy="192.746" r="4" stroke="rgb(153,255,0)" stroke-width="2" fill="none"></circle>
<circle cx="3030.16" cy="1558.53" r="4" stroke="rgb(255,0,229)" stroke-width="2" fill="none"></circle>
<circle cx="5284.45" cy="203.652" r="4" stroke="rgb(255,0,229)" stroke-width="2" fill="none"></circle>
<circle cx="1231.07" cy="1661.87" r="4" stroke="rgb(0,255,8)" stroke-width="2" fill="none"></circle>
<circle cx="5972.81" cy="228.027" r="4" stroke="rgb(0,255,8)" stroke-width="2" fill="none"></circle>
<circle cx="1311.57" cy="1917.64" r="4" stroke="rgb(0,135,255)" stroke-width="2" fill="none"></circle>
<circle cx="6556.66" cy="795.882" r="4" stroke="rgb(0,135,255)" stroke-width="2" fill="none"></circle>
<circle cx="1973.99" cy="1627.74" r="4" stroke="rgb(255,0,136)" stroke-width="2" fill="none"></circle>
<circle cx="5260.9" cy="306.93" r="4" stroke="rgb(255,0,136)" stroke-width="2" fill="none"></circle>
<circle cx="1851.19" cy="2110.53" r="4" stroke="rgb(0,255,178)" stroke-width="2" fill="none"></circle>
<circle cx="5677.43" cy="809.178" r="4" stroke="rgb(0,255,178)" stroke-width="2" fill="none"></circle>
<circle cx="2464.23" cy="1418.98" r="4" stroke="rgb(0,255,186)" stroke-width="2" fill="none"></circle>
<circle cx="6950.86" cy="704.122" r="4" stroke="rgb(0,255,186)" stroke-width="2" fill="none"></circle>
<circle cx="1437.57" cy="1605.13" r="4" stroke="rgb(29,255,0)" stroke-width="2" fill="none"></circle>
<circle cx="4411.52" cy="713.911" r="4" stroke="rgb(29,255,0)" stroke-width="2" fill="none"></circle>
<circle cx="1737.44" cy="1476.58" r="4" stroke="rgb(255,0,242)" stroke-width="2" fill="none"></circle>
<circle cx="5541.25" cy="1457.16" r="4" stroke="rgb(255,0,242)" stroke-width="2" fill="none"></circle>
<circle cx="1273.47" cy="1413.05" r="4" stroke="rgb(97,0,255)" stroke-width="2" fill="none"></circle>
<circle cx="5656.07" cy="2660.25" r="4" stroke="rgb(97,0,255)" stroke-width="2" fill="none"></circle>
<circle cx="1621.59" cy="1996.75" r="4" stroke="rgb(0,187,255)" stroke-width="2" fill="none"></circle>
<circle cx="5019.62" cy="1969.65" r="4" stroke="rgb(0,187,255)" stroke-width="2" fill="none"></circle>
<circle cx="2464.23" cy="1418.98" r="4" stroke="rgb(0,169,255)" stroke-width="2" fill="none"></circle>
<circle cx="7138.62" cy="849.497" r="4" stroke="rgb(0,169,255)" stroke-width="2" fill="none"></circle>
<circle cx="2392.43" cy="1798.81" r="4" stroke="rgb(25,255,0)" stroke-width="2" fill="none"></circle>
<circle cx="5698.28" cy="427.68" r="4" stroke="rgb(25,255,0)" stroke-width="2" fill="none"></circle>
<circle cx="1132.03" cy="2048.04" r="4" stroke="rgb(255,165,0)" stroke-width="2" fill="none"></circle>
<circle cx="5240.24" cy="1499.51" r="4" stroke="rgb(255,165,0)" stroke-width="2" fill="none"></circle>
<circle cx="1410.78" cy="1949.17" r="4" stroke="rgb(255,0,191)" stroke-width="2" fill="none"></circle>
<circle cx="6982.78" cy="771.336" r="4" stroke="rgb(255,0,191)" stroke-width="2" fill="none"></circle>
<circle cx="1304.91" cy="1975.86" r="4" stroke="rgb(255,0,101)" stroke-width="2" fill="none"></circle>
<circle cx="5801.09" cy="910.747" r="4" stroke="rgb(255,0,101)" stroke-width="2" fill="none"></circle>
<circle cx="2028.34" cy="946.676" r="4" stroke="rgb(191,255,0)" stroke-width="2" fill="none"></circle>
<circle cx="6885.4" cy="484.625" r="4" stroke="rgb(191,255,0)" stroke-width="2" fill="none"></circle>
<circle cx="1851.19" cy="2110.53" r="4" stroke="rgb(246,255,0)" stroke-width="2" fill="none"></circle>
<circle cx="5521.72" cy="828.264" r="4" stroke="rgb(246,255,0)" stroke-width="2" fill="none"></circle>
<circle cx="1273.47" cy="1413.05" r="4" stroke="rgb(255,165,0)" stroke-width="2" fill="none"></circle>
<circle cx="5271.69" cy="2025.48" r="4" stroke="rgb(255,165,0)" stroke-width="2" fill="none"></circle>
<circle cx="1989.3" cy="1385.18" r="4" stroke="rgb(255,221,0)" stroke-width="2" fill="none"></circle>
<circle cx="5677.19" cy="833.112" r="4" stroke="rgb(255,221,0)" stroke-width="2" fill="none"></circle>
<circle cx="2850.84" cy="1744.4" r="4" stroke="rgb(255,0,51)" stroke-width="2" fill="none"></circle>
<circle cx="5136.09" cy="2001.87" r="4" stroke="rgb(255,0,51)" stroke-width="2" fill="none"></circle>
<circle cx="2017.21" cy="1434.73" r="4" stroke="rgb(246,255,0)" stroke-width="2" fill="none"></circle>
<circle cx="5646.14" cy="633.307" r="4" stroke="rgb(246,255,0)" stroke-width="2" fill="none"></circle>
<circle cx="2017.21" cy="1434.73" r="4" stroke="rgb(97,255,0)" stroke-width="2" fill="none"></circle>
<circle cx="5646.14" cy="633.307" r="4" stroke="rgb(97,255,0)" stroke-width="2" fill="none"></circle>
<circle cx="1636.95" cy="2008.61" r="4" stroke="rgb(0,255,157)" stroke-width="2" fill="none"></circle>
<circle cx="5581.1" cy="506.487" r="4" stroke="rgb(0,255,157)" stroke-width="2" fill="none"></circle>
<circle cx="2056.88" cy="1392.4" r="4" stroke="rgb(255,106,0)" stroke-width="2" fill="none"></circle>
<circle cx="5468.26" cy="646.158" r="4" stroke="rgb(255,106,0)" stroke-width="2" fill="none"></circle>
<circle cx="2056.88" cy="1392.4" r="4" stroke="rgb(0,101,255)" stroke-width="2" fill="none"></circle>
<circle cx="5468.26" cy="646.158" r="4" stroke="rgb(0,101,255)" stroke-width="2" fill="none"></circle>
<circle cx="1132.03" cy="2048.04" r="4" stroke="rgb(0,110,255)" stroke-width="2" fill="none"></circle>
<circle cx="5341.88" cy="2020.44" r="4" stroke="rgb(0,110,255)" stroke-width="2" fill="none"></circle>
<circle cx="2297.66" cy="1481.46" r="4" stroke="rgb(0,255,174)" stroke-width="2" fill="none"></circle>
<circle cx="5689.12" cy="518.335" r="4" stroke="rgb(0,255,174)" stroke-width="2" fill="none"></circle>
<circle cx="1132.03" cy="2048.04" r="4" stroke="rgb(0,255,114)" stroke-width="2" fill="none"></circle>
<circle cx="5350.19" cy="2036.21" r="4" stroke="rgb(0,255,114)" stroke-width="2" fill="none"></circle>
<circle cx="2743.77" cy="1377.21" r="4" stroke="rgb(0,255,101)" stroke-width="2" fill="none"></circle>
<circle cx="5830.95" cy="975.769" r="4" stroke="rgb(0,255,101)" stroke-width="2" fill="none"></circle>
<circle cx="2743.77" cy="1377.21" r="4" stroke="rgb(178,0,255)" stroke-width="2" fill="none"></circle>
<circle cx="5748.91" cy="981.612" r="4" stroke="rgb(178,0,255)" stroke-width="2" fill="none"></circle>
<circle cx="1390.86" cy="2055.56" r="4" stroke="rgb(0,38,255)" stroke-width="2" fill="none"></circle>
<circle cx="6864.23" cy="384.23" r="4" stroke="rgb(0,38,255)" stroke-width="2" fill="none"></circle>
<circle cx="2639.73" cy="1802.43" r="4" stroke="rgb(127,255,0)" stroke-width="2" fill="none"></circle>
<circle cx="4278.08" cy="547.817" r="4" stroke="rgb(127,255,0)" stroke-width="2" fill="none"></circle>
<circle cx="1980.54" cy="1773.83" r="4" stroke="rgb(157,0,255)" stroke-width="2" fill="none"></circle>
<circle cx="5732.94" cy="385.815" r="4" stroke="rgb(157,0,255)" stroke-width="2" fill="none"></circle>
<circle cx="1414.02" cy="1976.56" r="4" stroke="rgb(174,255,0)" stroke-width="2" fill="none"></circle>
<circle cx="6304.04" cy="393.332" r="4" stroke="rgb(174,255,0)" stroke-width="2" fill="none"></circle>
<circle cx="2297.66" cy="1481.46" r="4" stroke="rgb(212,0,255)" stroke-width="2" fill="none"></circle>
<circle cx="5713.44" cy="578.467" r="4" stroke="rgb(212,0,255)" stroke-width="2" fill="none"></circle>
<circle cx="2357.39" cy="2102.98" r="4" stroke="rgb(174,255,0)" stroke-width="2" fill="none"></circle>
<circle cx="6750.77" cy="1613.21" r="4" stroke="rgb(174,255,0)" stroke-width="2" fill="none"></circle>
<circle cx="2031.92" cy="1662.37" r="4" stroke="rgb(16,255,0)" stroke-width="2" fill="none"></circle>
<circle cx="5387.33" cy="600.967" r="4" stroke="rgb(16,255,0)" stroke-width="2" fill="none"></circle>
<circle cx="2135.61" cy="1458.5" r="4" stroke="rgb(255,187,0)" stroke-width="2" fill="none"></circle>
<circle cx="5803.46" cy="713.405" r="4" stroke="rgb(255,187,0)" stroke-width="2" fill="none"></circle>
<circle cx="2056.88" cy="1392.4" r="4" stroke="rgb(59,0,255)" stroke-width="2" fill="none"></circle>
<circle cx="5483.07" cy="717.888" r="4" stroke="rgb(59,0,255)" stroke-width="2" fill="none"></circle>
<circle cx="1437.57" cy="1605.13" r="4" stroke="rgb(255,80,0)" stroke-width="2" fill="none"></circle>
<circle cx="5402.42" cy="2106.69" r="4" stroke="rgb(255,80,0)" stroke-width="2" fill="none"></circle>
<circle cx="1621.59" cy="1996.75" r="4" stroke="rgb(0,0,255)" stroke-width="2" fill="none"></circle>
<circle cx="5463.32" cy="624.34" r="4" stroke="rgb(0,0,255)" stroke-width="2" fill="none"></circle>
<circle cx="1304.91" cy="1975.86" r="4" stroke="rgb(110,255,0)" stroke-width="2" fill="none"></circle>
<circle cx="5618.04" cy="957.381" r="4" stroke="rgb(110,255,0)" stroke-width="2" fill="none"></circle>
<circle cx="2760.69" cy="1445.72" r="4" stroke="rgb(255,21,0)" stroke-width="2" fill="none"></circle>
<circle cx="4923.17" cy="1040.33" r="4" stroke="rgb(255,21,0)" stroke-width="2" fill="none"></circle>
<circle cx="2046.92" cy="2077.04" r="4" stroke="rgb(0,255,131)" stroke-width="2" fill="none"></circle>
<circle cx="5195.7" cy="1653.43" r="4" stroke="rgb(0,255,131)" stroke-width="2" fill="none"></circle>
<circle cx="1552" cy="1959.25" r="4" stroke="rgb(255,212,0)" stroke-width="2" fill="none"></circle>
<circle cx="5650.04" cy="2128.41" r="4" stroke="rgb(255,212,0)" stroke-width="2" fill="none"></circle>
<circle cx="2239.09" cy="1462.22" r="4" stroke="rgb(0,110,255)" stroke-width="2" fill="none"></circle>
<circle cx="5620.47" cy="464.05" r="4" stroke="rgb(0,110,255)" stroke-width="2" fill="none"></circle>
<circle cx="1273.47" cy="1413.05" r="4" stroke="rgb(0,59,255)" stroke-width="2" fill="none"></circle>
<circle cx="5032.88" cy="772.71" r="4" stroke="rgb(0,59,255)" stroke-width="2" fill="none"></circle>
<circle cx="1080.63" cy="1834.33" r="4" stroke="rgb(33,255,0)" stroke-width="2" fill="none"></circle>
<circle cx="6782.06" cy="1690.52" r="4" stroke="rgb(33,255,0)" stroke-width="2" fill="none"></circle>
<circle cx="2315.91" cy="1385.73" r="4" stroke="rgb(0,255,21)" stroke-width="2" fill="none"></circle>
<circle cx="5681.41" cy="658.852" r="4" stroke="rgb(0,255,21)" stroke-width="2" fill="none"></circle>
<circle cx="1632.64" cy="1180.59" r="4" stroke="rgb(0,255,127)" stroke-width="2" fill="none"></circle>
<circle cx="5046.31" cy="807.044" r="4" stroke="rgb(0,255,127)" stroke-width="2" fill="none"></circle>
<circle cx="1851.19" cy="2110.53" r="4" stroke="rgb(80,255,0)" stroke-width="2" fill="none"></circle>
<circle cx="5551.79" cy="842.352" r="4" stroke="rgb(80,255,0)" stroke-width="2" fill="none"></circle>
<circle cx="1928.29" cy="1386.46" r="4" stroke="rgb(255,255,0)" stroke-width="2" fill="none"></circle>
<circle cx="4947.9" cy="2276.02" r="4" stroke="rgb(255,255,0)" stroke-width="2" fill="none"></circle>
<circle cx="1928.29" cy="1386.46" r="4" stroke="rgb(34,0,255)" stroke-width="2" fill="none"></circle>
<circle cx="4952.02" cy="2271.2" r="4" stroke="rgb(34,0,255)" stroke-width="2" fill="none"></circle>
<circle cx="1274.41" cy="1425.26" r="4" stroke="rgb(0,255,42)" stroke-width="2" fill="none"></circle>
<circle cx="5066.22" cy="1061.7" r="4" stroke="rgb(0,255,42)" stroke-width="2" fill="none"></circle>
<circle cx="1791.69" cy="1904.1" r="4" stroke="rgb(148,255,0)" stroke-width="2" fill="none"></circle>
<circle cx="5766.27" cy="529.203" r="4" stroke="rgb(148,255,0)" stroke-width="2" fill="none"></circle>
<circle cx="1928.29" cy="1386.46" r="4" stroke="rgb(67,255,0)" stroke-width="2" fill="none"></circle>
<circle cx="4942.18" cy="1108.26" r="4" stroke="rgb(67,255,0)" stroke-width="2" fill="none"></circle>
<circle cx="2297.66" cy="1481.46" r="4" stroke="rgb(255,0,63)" stroke-width="2" fill="none"></circle>
<circle cx="5617.49" cy="737.153" r="4" stroke="rgb(255,0,63)" stroke-width="2" fill="none"></circle>
<circle cx="1103.85" cy="1723.16" r="4" stroke="rgb(4,255,0)" stroke-width="2" fill="none"></circle>
<circle cx="6316.38" cy="2380.75" r="4" stroke="rgb(4,255,0)" stroke-width="2" fill="none"></circle>
<circle cx="1273.47" cy="1413.05" r="4" stroke="rgb(0,255,12)" stroke-width="2" fill="none"></circle>
<circle cx="5136.73" cy="1149.7" r="4" stroke="rgb(0,255,12)" stroke-width="2" fill="none"></circle>
<circle cx="2169.49" cy="1408.46" r="4" stroke="rgb(0,255,38)" stroke-width="2" fill="none"></circle>
<circle cx="5651.99" cy="566.162" r="4" stroke="rgb(0,255,38)" stroke-width="2" fill="none"></circle>
<circle cx="1273.47" cy="1413.05" r="4" stroke="rgb(140,0,255)" stroke-width="2" fill="none"></circle>
<circle cx="5126.7" cy="1178.26" r="4" stroke="rgb(140,0,255)" stroke-width="2" fill="none"></circle>
<circle cx="1273.47" cy="1413.05" r="4" stroke="rgb(255,0,25)" stroke-width="2" fill="none"></circle>
<circle cx="5126.7" cy="1178.26" r="4" stroke="rgb(255,0,25)" stroke-width="2" fill="none"></circle>
<circle cx="2060.05" cy="1561.62" r="4" stroke="rgb(123,255,0)" stroke-width="2" fill="none"></circle>
<circle cx="5360.26" cy="584.585" r="4" stroke="rgb(123,255,0)" stroke-width="2" fill="none"></circle>
<circle cx="1679.22" cy="1607.08" r="4" stroke="rgb(0,212,255)" stroke-width="2" fill="none"></circle>
<circle cx="6114.99" cy="2490.85" r="4" stroke="rgb(0,212,255)" stroke-width="2" fill="none"></circle>
<circle cx="2135.61" cy="1458.5" r="4" stroke="rgb(255,0,229)" stroke-width="2" fill="none"></circle>
<circle cx="5526.77" cy="624.003" r="4" stroke="rgb(255,0,229)" stroke-width="2" fill="none"></circle>
<circle cx="2608.7" cy="1032.17" r="4" stroke="rgb(255,93,0)" stroke-width="2" fill="none"></circle>
<circle cx="5042.5" cy="1255.29" r="4" stroke="rgb(255,93,0)" stroke-width="2" fill="none"></circle>
<circle cx="2056.88" cy="1392.4" r="4" stroke="rgb(0,255,89)" stroke-width="2" fill="none"></circle>
<circle cx="5468.06" cy="646.177" r="4" stroke="rgb(0,255,89)" stroke-width="2" fill="none"></circle>
<circle cx="2056.88" cy="1392.4" r="4" stroke="rgb(229,0,255)" stroke-width="2" fill="none"></circle>
<circle cx="5468.06" cy="646.177" r="4" stroke="rgb(229,0,255)" stroke-width="2" fill="none"></circle>
<circle cx="1296.21" cy="1220.99" r="4" stroke="rgb(229,255,0)" stroke-width="2" fill="none"></circle>
<circle cx="6341.75" cy="1050.49" r="4" stroke="rgb(229,255,0)" stroke-width="2" fill="none"></circle>
<circle cx="1610.79" cy="949.034" r="4" stroke="rgb(255,153,0)" stroke-width="2" fill="none"></circle>
<circle cx="4984.07" cy="1336.93" r="4" stroke="rgb(255,153,0)" stroke-width="2" fill="none"></circle>
<circle cx="2608.7" cy="1032.17" r="4" stroke="rgb(255,0,199)" stroke-width="2" fill="none"></circle>
<circle cx="5042.76" cy="1255.56" r="4" stroke="rgb(255,0,199)" stroke-width="2" fill="none"></circle>
<circle cx="1474.92" cy="1896.01" r="4" stroke="rgb(0,255,246)" stroke-width="2" fill="none"></circle>
<circle cx="6638.33" cy="1522.83" r="4" stroke="rgb(0,255,246)" stroke-width="2" fill="none"></circle>
<circle cx="1185.7" cy="1323.16" r="4" stroke="rgb(0,255,42)" stroke-width="2" fill="none"></circle>
<circle cx="5293.58" cy="2831.25" r="4" stroke="rgb(0,255,42)" stroke-width="2" fill="none"></circle>
<circle cx="1196.75" cy="1327.86" r="4" stroke="rgb(0,208,255)" stroke-width="2" fill="none"></circle>
<circle cx="5307.26" cy="2848.51" r="4" stroke="rgb(0,208,255)" stroke-width="2" fill="none"></circle>
<circle cx="2572.52" cy="1487.87" r="4" stroke="rgb(255,0,131)" stroke-width="2" fill="none"></circle>
<circle cx="5628.44" cy="467.837" r="4" stroke="rgb(255,0,131)" stroke-width="2" fill="none"></circle>
<circle cx="1994.18" cy="1592.91" r="4" stroke="rgb(255,221,0)" stroke-width="2" fill="none"></circle>
<circle cx="5595.18" cy="503.493" r="4" stroke="rgb(255,221,0)" stroke-width="2" fill="none"></circle>
<circle cx="2717.47" cy="1897.61" r="4" stroke="rgb(255,191,0)" stroke-width="2" fill="none"></circle>
<circle cx="6247.72" cy="2077.2" r="4" stroke="rgb(255,191,0)" stroke-width="2" fill="none"></circle>
<circle cx="1437.57" cy="1605.13" r="4" stroke="rgb(221,255,0)" stroke-width="2" fill="none"></circle>
<circle cx="5415.42" cy="2127.09" r="4" stroke="rgb(221,255,0)" stroke-width="2" fill="none"></circle>
<circle cx="1283.07" cy="1358.88" r="4" stroke="rgb(0,255,191)" stroke-width="2" fill="none"></circle>
<circle cx="5409.11" cy="2474.94" r="4" stroke="rgb(0,255,191)" stroke-width="2" fill="none"></circle>
<circle cx="1377.98" cy="1052.07" r="4" stroke="rgb(255,178,0)" stroke-width="2" fill="none"></circle>
<circle cx="4607.2" cy="2535.65" r="4" stroke="rgb(255,178,0)" stroke-width="2" fill="none"></circle>
<circle cx="1341.75" cy="1518.14" r="4" stroke="rgb(0,93,255)" stroke-width="2" fill="none"></circle>
<circle cx="4931.04" cy="2800.47" r="4" stroke="rgb(0,93,255)" stroke-width="2" fill="none"></circle>
<circle cx="1390.86" cy="2055.56" r="4" stroke="rgb(0,255,76)" stroke-width="2" fill="none"></circle>
<circle cx="6020" cy="2832.42" r="4" stroke="rgb(0,255,76)" stroke-width="2" fill="none"></circle>
<circle cx="2041.23" cy="2103.23" r="4" stroke="rgb(76,255,0)" stroke-width="2" fill="none"></circle>
<circle cx="5483.16" cy="2165.44" r="4" stroke="rgb(76,255,0)" stroke-width="2" fill="none"></circle>
<circle cx="2548.54" cy="945.932" r="4" stroke="rgb(59,255,0)" stroke-width="2" fill="none"></circle>
<circle cx="5962.72" cy="2172.92" r="4" stroke="rgb(59,255,0)" stroke-width="2" fill="none"></circle>
<circle cx="1684.61" cy="1523.44" r="4" stroke="rgb(0,255,84)" stroke-width="2" fill="none"></circle>
<circle cx="5674.39" cy="719.489" r="4" stroke="rgb(0,255,84)" stroke-width="2" fill="none"></circle>
<circle cx="2093.48" cy="1452.08" r="4" stroke="rgb(0,221,255)" stroke-width="2" fill="none"></circle>
<circle cx="5808.68" cy="729.204" r="4" stroke="rgb(0,221,255)" stroke-width="2" fill="none"></circle>
<circle cx="1299.62" cy="1513.23" r="4" stroke="rgb(161,255,0)" stroke-width="2" fill="none"></circle>
<circle cx="5908.15" cy="356.33" r="4" stroke="rgb(161,255,0)" stroke-width="2" fill="none"></circle>
<circle cx="2133.97" cy="1651.76" r="4" stroke="rgb(0,255,21)" stroke-width="2" fill="none"></circle>
<circle cx="5618.11" cy="388.652" r="4" stroke="rgb(0,255,21)" stroke-width="2" fill="none"></circle>
<circle cx="1283.07" cy="1358.88" r="4" stroke="rgb(0,255,250)" stroke-width="2" fill="none"></circle>
<circle cx="5409.7" cy="2474.89" r="4" stroke="rgb(0,255,250)" stroke-width="2" fill="none"></circle>
<circle cx="2133.97" cy="1651.76" r="4" stroke="rgb(0,148,255)" stroke-width="2" fill="none"></circle>
<circle cx="5496.34" cy="411.384" r="4" stroke="rgb(0,148,255)" stroke-width="2" fill="none"></circle>
<circle cx="2450.88" cy="1781.61" r="4" stroke="rgb(0,255,25)" stroke-width="2" fill="none"></circle>
<circle cx="6404.88" cy="445.146" r="4" stroke="rgb(0,255,25)" stroke-width="2" fill="none"></circle>
<circle cx="2133.97" cy="1651.76" r="4" stroke="rgb(119,255,0)" stroke-width="2" fill="none"></circle>
<circle cx="5435.01" cy="456.873" r="4" stroke="rgb(119,255,0)" stroke-width="2" fill="none"></circle>
<circle cx="1541.67" cy="1711.55" r="4" stroke="rgb(0,169,255)" stroke-width="2" fill="none"></circle>
<circle cx="5089.47" cy="1705.86" r="4" stroke="rgb(0,169,255)" stroke-width="2" fill="none"></circle>
<circle cx="1044.57" cy="2132.14" r="4" stroke="rgb(127,255,0)" stroke-width="2" fill="none"></circle>
<circle cx="4914.96" cy="570.232" r="4" stroke="rgb(127,255,0)" stroke-width="2" fill="none"></circle>
<circle cx="1796.57" cy="1965.12" r="4" stroke="rgb(182,0,255)" stroke-width="2" fill="none"></circle>
<circle cx="6062" cy="1449.04" r="4" stroke="rgb(182,0,255)" stroke-width="2" fill="none"></circle>
<circle cx="1104.05" cy="1739.47" r="4" stroke="rgb(255,76,0)" stroke-width="2" fill="none"></circle>
<circle cx="4890.58" cy="653.791" r="4" stroke="rgb(255,76,0)" stroke-width="2" fill="none"></circle>
<circle cx="1134.5" cy="1737.97" r="4" stroke="rgb(33,255,0)" stroke-width="2" fill="none"></circle>
<circle cx="4890.58" cy="653.791" r="4" stroke="rgb(33,255,0)" stroke-width="2" fill="none"></circle>
<circle cx="2121.32" cy="1429.21" r="4" stroke="rgb(237,255,0)" stroke-width="2" fill="none"></circle>
<circle cx="5473.3" cy="565.426" r="4" stroke="rgb(237,255,0)" stroke-width="2" fill="none"></circle>
<circle cx="1767.42" cy="1602.5" r="4" stroke="rgb(255,0,204)" stroke-width="2" fill="none"></circle>
<circle cx="5643.77" cy="615.088" r="4" stroke="rgb(255,0,204)" stroke-width="2" fill="none"></circle>
<circle cx="2608.53" cy="1064.92" r="4" stroke="rgb(255,212,0)" stroke-width="2" fill="none"></circle>
<circle cx="6248.99" cy="1934.89" r="4" stroke="rgb(255,212,0)" stroke-width="2" fill="none"></circle>
<circle cx="2622.32" cy="1368.41" r="4" stroke="rgb(255,0,119)" stroke-width="2" fill="none"></circle>
<circle cx="5384.97" cy="1995.09" r="4" stroke="rgb(255,0,119)" stroke-width="2" fill="none"></circle>
<circle cx="2118.25" cy="895.976" r="4" stroke="rgb(106,0,255)" stroke-width="2" fill="none"></circle>
<circle cx="7139.21" cy="767.987" r="4" stroke="rgb(106,0,255)" stroke-width="2" fill="none"></circle>
<circle cx="2298.38" cy="1803.95" r="4" stroke="rgb(0,51,255)" stroke-width="2" fill="none"></circle>
<circle cx="6340.81" cy="786.708" r="4" stroke="rgb(0,51,255)" stroke-width="2" fill="none"></circle>
<circle cx="2608.7" cy="1032.17" r="4" stroke="rgb(72,255,0)" stroke-width="2" fill="none"></circle>
<circle cx="4970.51" cy="894.66" r="4" stroke="rgb(72,255,0)" stroke-width="2" fill="none"></circle>
<circle cx="2608.7" cy="1032.17" r="4" stroke="rgb(255,0,136)" stroke-width="2" fill="none"></circle>
<circle cx="4970.51" cy="894.66" r="4" stroke="rgb(255,0,136)" stroke-width="2" fill="none"></circle>
<circle cx="1436.03" cy="1889.78" r="4" stroke="rgb(0,182,255)" stroke-width="2" fill="none"></circle>
<circle cx="6809.06" cy="1086.15" r="4" stroke="rgb(0,182,255)" stroke-width="2" fill="none"></circle>
<circle cx="2255.67" cy="1931.83" r="4" stroke="rgb(0,255,148)" stroke-width="2" fill="none"></circle>
<circle cx="5470.34" cy="435.543" r="4" stroke="rgb(0,255,148)" stroke-width="2" fill="none"></circle>
<circle cx="1437.57" cy="1605.13" r="4" stroke="rgb(21,0,255)" stroke-width="2" fill="none"></circle>
<circle cx="6328.85" cy="441.292" r="4" stroke="rgb(21,0,255)" stroke-width="2" fill="none"></circle>
<circle cx="2584.62" cy="1631.19" r="4" stroke="rgb(106,0,255)" stroke-width="2" fill="none"></circle>
<circle cx="6691.82" cy="1654.88" r="4" stroke="rgb(106,0,255)" stroke-width="2" fill="none"></circle>
<circle cx="2412.16" cy="1251.81" r="4" stroke="rgb(0,203,255)" stroke-width="2" fill="none"></circle>
<circle cx="5630.76" cy="2629.11" r="4" stroke="rgb(0,203,255)" stroke-width="2" fill="none"></circle>
</svg>