<?xml version="1.0" standalone="yes"?>
<!-- SVG graphic -->
<svg xmlns='http://www.w3.org/2000/svg' xmlns:xlink='http://www.w3.org/1999/xlink'
width="8064px" height="3024px" preserveAspectRatio="xMinYMin meet" viewBox="0 0 8064 3024" version="1.1">
<image x="0" y="0" width="4032px" height="3024px" opacity="1" xlink:href="/home/jeong/Code/2D-to-3D-Modeling-using-AI/Make3D/Image/20200227_180653.jpg"/>
<image x="4032" y="0" width="4032px" height="3024px" opacity="1" xlink:href="/home/jeong/Code/2D-to-3D-Modeling-using-AI/Make3D/Image/20200227_180720.jpg"/>
<polyline points="1596.05,694.569,5535.04,1335.29" stroke="rgb(233,255,0)" stroke-width="2" fill="none"></polyline>
<polyline points="2103.8,738.164,5876.73,931.311" stroke="rgb(255,0,237)" stroke-width="2" fill="none"></polyline>
<polyline points="1377.72,740.46,6128.71,1027.03" stroke="rgb(153,0,255)" stroke-width="2" fill="none"></polyline>
<polyline points="1433.39,756.209,5803.81,953.18" stroke="rgb(255,0,246)" stroke-width="2" fill="none"></polyline>
<polyline points="2547.95,786.165,6904.48,700.528" stroke="rgb(33,255,0)" stroke-width="2" fill="none"></polyline>
<polyline points="1317.06,817.231,6067.88,553.618" stroke="rgb(255,170,0)" stroke-width="2" fill="none"></polyline>
<polyline points="2242.12,838.298,6636.07,1441.96" stroke="rgb(93,0,255)" stroke-width="2" fill="none"></polyline>
<polyline points="1768.44,1124.1,5960.32,1511.13" stroke="rgb(255,0,144)" stroke-width="2" fill="none"></polyline>
<polyline points="1031.99,1185.18,6062.46,496.339" stroke="rgb(0,33,255)" stroke-width="2" fill="none"></polyline>
<polyline points="2393.77,1186.05,6774.77,1427.9" stroke="rgb(255,0,225)" stroke-width="2" fill="none"></polyline>
<polyline points="2581.36,1188.42,6866.38,1207.31" stroke="rgb(255,17,0)" stroke-width="2" fill="none"></polyline>
<polyline points="1695.75,1232.78,5316.22,691.073" stroke="rgb(0,255,186)" stroke-width="2" fill="none"></polyline>
<polyline points="1105.04,1237.55,6545.9,584.064" stroke="rgb(0,255,110)" stroke-width="2" fill="none"></polyline>
<polyline points="2577.62,1260.41,6842.41,1268.83" stroke="rgb(0,80,255)" stroke-width="2" fill="none"></polyline>
<polyline points="2018.6,1269.9,5692.58,1057.91" stroke="rgb(0,221,255)" stroke-width="2" fill="none"></polyline>
<polyline points="1433.52,1279.38,5575.57,659.543" stroke="rgb(255,0,233)" stroke-width="2" fill="none"></polyline>
<polyline points="1615.07,1295.94,6567.89,1287.57" stroke="rgb(255,0,199)" stroke-width="2" fill="none"></polyline>
<polyline points="2876.66,1313.27,5529.22,1226.86" stroke="rgb(255,0,119)" stroke-width="2" fill="none"></polyline>
<polyline points="2699.26,1324.46,6870.64,1331.21" stroke="rgb(255,114,0)" stroke-width="2" fill="none"></polyline>
<polyline points="2664.13,1330.17,6856.32,1322.1" stroke="rgb(0,255,110)" stroke-width="2" fill="none"></polyline>
<polyline points="1241.85,1347.54,5505.07,723.411" stroke="rgb(255,195,0)" stroke-width="2" fill="none"></polyline>
<polyline points="1043.72,1348.65,6353.71,621.135" stroke="rgb(255,233,0)" stroke-width="2" fill="none"></polyline>
<polyline points="2266.77,1358.89,5449.87,717.706" stroke="rgb(187,255,0)" stroke-width="2" fill="none"></polyline>
<polyline points="1277.37,1389.56,5479.57,676.253" stroke="rgb(255,0,127)" stroke-width="2" fill="none"></polyline>
<polyline points="1470.21,1409,6047.79,1281.07" stroke="rgb(255,0,221)" stroke-width="2" fill="none"></polyline>
<polyline points="1887.99,1429.4,6306.57,1113.94" stroke="rgb(0,255,229)" stroke-width="2" fill="none"></polyline>
<polyline points="1260.39,1433.88,6083.39,648.827" stroke="rgb(255,114,0)" stroke-width="2" fill="none"></polyline>
<polyline points="1204.2,1435.84,5462.99,675.107" stroke="rgb(178,255,0)" stroke-width="2" fill="none"></polyline>
<polyline points="2649.95,1443.99,5863.11,649.034" stroke="rgb(0,255,233)" stroke-width="2" fill="none"></polyline>
<polyline points="2656.1,1458.89,6783.69,1414.61" stroke="rgb(229,255,0)" stroke-width="2" fill="none"></polyline>
<polyline points="2629.46,1459.1,6769.11,1409.42" stroke="rgb(255,0,199)" stroke-width="2" fill="none"></polyline>
<polyline points="2633.45,1467.04,5395.52,759.124" stroke="rgb(33,255,0)" stroke-width="2" fill="none"></polyline>
<polyline points="2591.98,1468.92,6769.13,1372.82" stroke="rgb(255,42,0)" stroke-width="2" fill="none"></polyline>
<polyline points="2259.95,1474.15,6678.55,1231.64" stroke="rgb(0,46,255)" stroke-width="2" fill="none"></polyline>
<polyline points="2629.21,1481.79,5356.81,748.444" stroke="rgb(255,229,0)" stroke-width="2" fill="none"></polyline>
<polyline points="2722.14,1482.81,6806.56,1443.45" stroke="rgb(255,0,25)" stroke-width="2" fill="none"></polyline>
<polyline points="1465.56,1503.18,6489.12,1358.89" stroke="rgb(0,255,93)" stroke-width="2" fill="none"></polyline>
<polyline points="2610.47,1512.2,5794.46,719.252" stroke="rgb(0,221,255)" stroke-width="2" fill="none"></polyline>
<polyline points="1183.4,1523.62,5254.27,1318.41" stroke="rgb(255,0,165)" stroke-width="2" fill="none"></polyline>
<polyline points="2599.94,1524.01,6705.39,1338.19" stroke="rgb(255,59,0)" stroke-width="2" fill="none"></polyline>
<polyline points="1099.23,1524.68,5492.78,878.819" stroke="rgb(255,29,0)" stroke-width="2" fill="none"></polyline>
<polyline points="1114.93,1533.7,5986.48,747.448" stroke="rgb(0,182,255)" stroke-width="2" fill="none"></polyline>
<polyline points="2621.68,1535.81,5735.56,663.765" stroke="rgb(255,212,0)" stroke-width="2" fill="none"></polyline>
<polyline points="2610.74,1540.93,5834.16,751.488" stroke="rgb(0,255,140)" stroke-width="2" fill="none"></polyline>
<polyline points="1125.19,1541.33,5904.29,1465.07" stroke="rgb(255,246,0)" stroke-width="2" fill="none"></polyline>
<polyline points="1455.68,1545.36,6074.01,1303.78" stroke="rgb(42,255,0)" stroke-width="2" fill="none"></polyline>
<polyline points="1069.1,1545.6,6562.32,638.397" stroke="rgb(89,255,0)" stroke-width="2" fill="none"></polyline>
<polyline points="2643.97,1552.31,5902.48,1424.98" stroke="rgb(12,0,255)" stroke-width="2" fill="none"></polyline>
<polyline points="1470.96,1556.6,6622.3,1253.45" stroke="rgb(161,255,0)" stroke-width="2" fill="none"></polyline>
<polyline points="1600.46,1561.89,5947.2,790.529" stroke="rgb(255,0,8)" stroke-width="2" fill="none"></polyline>
<polyline points="1492.19,1567.33,6687.47,1267.42" stroke="rgb(93,0,255)" stroke-width="2" fill="none"></polyline>
<polyline points="2471.67,1568.13,5999.31,1336.59" stroke="rgb(0,255,33)" stroke-width="2" fill="none"></polyline>
<polyline points="2634.82,1576.35,5156.44,917.474" stroke="rgb(255,225,0)" stroke-width="2" fill="none"></polyline>
<polyline points="1158.52,1580.39,5783.02,825.477" stroke="rgb(255,0,93)" stroke-width="2" fill="none"></polyline>
<polyline points="1690.07,1585.08,5919.53,1420.79" stroke="rgb(255,0,127)" stroke-width="2" fill="none"></polyline>
<polyline points="2607.12,1588.66,5585.9,652.825" stroke="rgb(0,29,255)" stroke-width="2" fill="none"></polyline>
<polyline points="2610.09,1615.12,5807.06,735.544" stroke="rgb(255,102,0)" stroke-width="2" fill="none"></polyline>
<polyline points="1386.33,1621.24,5900.35,1159.23" stroke="rgb(255,0,12)" stroke-width="2" fill="none"></polyline>
<polyline points="1025.25,1643.6,5406,949.766" stroke="rgb(255,0,208)" stroke-width="2" fill="none"></polyline>
<polyline points="1824.67,1656.74,5586.85,1273.32" stroke="rgb(208,255,0)" stroke-width="2" fill="none"></polyline>
<polyline points="968.676,1664.72,6133.41,1547.79" stroke="rgb(238,0,255)" stroke-width="2" fill="none"></polyline>
<polyline points="1589.41,1669.84,6104.87,1415.53" stroke="rgb(106,0,255)" stroke-width="2" fill="none"></polyline>
<polyline points="2198.58,1680.23,5607.4,1343.63" stroke="rgb(0,242,255)" stroke-width="2" fill="none"></polyline>
<polyline points="2505.82,1694.55,6577.21,1520.29" stroke="rgb(255,0,229)" stroke-width="2" fill="none"></polyline>
<polyline points="2446.94,1696.21,6309.8,1057.02" stroke="rgb(255,25,0)" stroke-width="2" fill="none"></polyline>
<polyline points="1279.67,1700.42,5802.43,750.539" stroke="rgb(46,255,0)" stroke-width="2" fill="none"></polyline>
<polyline points="1862.04,1709.42,5806.77,672.512" stroke="rgb(0,255,225)" stroke-width="2" fill="none"></polyline>
<polyline points="1405.34,1709.93,5896.94,1336.49" stroke="rgb(0,255,118)" stroke-width="2" fill="none"></polyline>
<polyline points="2473.54,1723.46,6279.93,1481.21" stroke="rgb(242,0,255)" stroke-width="2" fill="none"></polyline>
<polyline points="967.135,1734.65,5294.2,723.64" stroke="rgb(255,25,0)" stroke-width="2" fill="none"></polyline>
<polyline points="1398.06,1736.78,6469.86,1292.56" stroke="rgb(255,144,0)" stroke-width="2" fill="none"></polyline>
<polyline points="1883.36,1754.04,6303.32,1548.83" stroke="rgb(0,255,242)" stroke-width="2" fill="none"></polyline>
<polyline points="2565.03,1766.33,5807.46,1432.01" stroke="rgb(0,157,255)" stroke-width="2" fill="none"></polyline>
<polyline points="917.472,1767.73,5658.48,692.146" stroke="rgb(255,0,182)" stroke-width="2" fill="none"></polyline>
<polyline points="2547.18,1792.27,6723.14,1453.08" stroke="rgb(255,0,127)" stroke-width="2" fill="none"></polyline>
<polyline points="2453.99,1799.31,5749.14,1442.95" stroke="rgb(0,255,55)" stroke-width="2" fill="none"></polyline>
<polyline points="2021.31,1803.69,6002.7,1433.83" stroke="rgb(225,255,0)" stroke-width="2" fill="none"></polyline>
<polyline points="835.837,1815.07,6006.19,690.384" stroke="rgb(255,0,250)" stroke-width="2" fill="none"></polyline>
<polyline points="2525.02,1816.36,6577.85,1537.88" stroke="rgb(255,72,0)" stroke-width="2" fill="none"></polyline>
<polyline points="1297.04,1823.18,6144.13,1339.99" stroke="rgb(0,255,127)" stroke-width="2" fill="none"></polyline>
<polyline points="1342.55,1837.1,5816.87,1343.17" stroke="rgb(250,0,255)" stroke-width="2" fill="none"></polyline>
<polyline points="1397.39,1854.86,6777.97,761.668" stroke="rgb(165,0,255)" stroke-width="2" fill="none"></polyline>
<polyline points="1488.23,1856.38,5823.07,1257.27" stroke="rgb(161,0,255)" stroke-width="2" fill="none"></polyline>
<polyline points="1705.09,1860.55,5958.28,1433.67" stroke="rgb(255,0,33)" stroke-width="2" fill="none"></polyline>
<polyline points="2325.89,1867.12,6206.09,1497.85" stroke="rgb(0,255,38)" stroke-width="2" fill="none"></polyline>
<polyline points="1285.51,1872.07,5090.24,1255.26" stroke="rgb(38,0,255)" stroke-width="2" fill="none"></polyline>
<polyline points="672.414,1892.81,6098.9,682.812" stroke="rgb(0,63,255)" stroke-width="2" fill="none"></polyline>
<polyline points="698.029,1895.36,5806.57,673.022" stroke="rgb(255,106,0)" stroke-width="2" fill="none"></polyline>
<polyline points="1567.01,1898.32,5242.96,896.908" stroke="rgb(8,255,0)" stroke-width="2" fill="none"></polyline>
<polyline points="2200.5,1903.88,5851.75,1218.28" stroke="rgb(255,208,0)" stroke-width="2" fill="none"></polyline>
<polyline points="927.725,1940.59,5167.5,909.11" stroke="rgb(101,255,0)" stroke-width="2" fill="none"></polyline>
<polyline points="1363.59,1944.8,5611.5,1338.94" stroke="rgb(255,229,0)" stroke-width="2" fill="none"></polyline>
<polyline points="1116.18,1949.93,5359.88,921.171" stroke="rgb(0,229,255)" stroke-width="2" fill="none"></polyline>
<polyline points="2202.8,1952.34,5988.02,746.906" stroke="rgb(0,255,131)" stroke-width="2" fill="none"></polyline>
<polyline points="956.945,1969.48,6396.15,490.304" stroke="rgb(0,29,255)" stroke-width="2" fill="none"></polyline>
<polyline points="987.832,1978.33,6545.78,1365.6" stroke="rgb(0,203,255)" stroke-width="2" fill="none"></polyline>
<polyline points="2213.08,1998.21,6245.11,489.309" stroke="rgb(85,0,255)" stroke-width="2" fill="none"></polyline>
<polyline points="2178.53,2002.29,5996.71,1538.42" stroke="rgb(255,195,0)" stroke-width="2" fill="none"></polyline>
<polyline points="1729.54,2006.68,6621.88,1503.77" stroke="rgb(0,114,255)" stroke-width="2" fill="none"></polyline>
<polyline points="2146.28,2050.57,6524.52,1360.17" stroke="rgb(216,255,0)" stroke-width="2" fill="none"></polyline>
<polyline points="2187.39,2051.84,6032.63,1512" stroke="rgb(255,221,0)" stroke-width="2" fill="none"></polyline>
<polyline points="2171.64,2053.39,5862.93,1522.94" stroke="rgb(29,0,255)" stroke-width="2" fill="none"></polyline>
<polyline points="2124.76,2054.66,6500.26,539.588" stroke="rgb(25,0,255)" stroke-width="2" fill="none"></polyline>
<polyline points="1604.3,2060.49,6140.13,694.505" stroke="rgb(0,255,29)" stroke-width="2" fill="none"></polyline>
<polyline points="1297.63,2078.87,6230.27,1040.67" stroke="rgb(0,153,255)" stroke-width="2" fill="none"></polyline>
<polyline points="1005.79,2083.25,5208.29,1325.07" stroke="rgb(131,255,0)" stroke-width="2" fill="none"></polyline>
<polyline points="1052.42,2121.57,6837.96,654.669" stroke="rgb(85,0,255)" stroke-width="2" fill="none"></polyline>
<polyline points="1056.29,2129.85,6052.51,799.782" stroke="rgb(0,255,101)" stroke-width="2" fill="none"></polyline>
<circle cx="1596.05" cy="694.569" r="4" stroke="rgb(233,255,0)" stroke-width="2" fill="none"></circle>
<circle cx="5535.04" cy="1335.29" r="4" stroke="rgb(233,255,0)" stroke-width="2" fill="none"></circle>
<circle cx="2103.8" cy="738.164" r="4" stroke="rgb(255,0,237)" stroke-width="2" fill="none"></circle>
<circle cx="5876.73" cy="931.311" r="4" stroke="rgb(255,0,237)" stroke-width="2" fill="none"></circle>
<circle cx="1377.72" cy="740.46" r="4" stroke="rgb(153,0,255)" stroke-width="2" fill="none"></circle>
<circle cx="6128.71" cy="1027.03" r="4" stroke="rgb(153,0,255)" stroke-width="2" fill="none"></circle>
<circle cx="1433.39" cy="756.209" r="4" stroke="rgb(255,0,246)" stroke-width="2" fill="none"></circle>
<circle cx="5803.81" cy="953.18" r="4" stroke="rgb(255,0,246)" stroke-width="2" fill="none"></circle>
<circle cx="2547.95" cy="786.165" r="4" stroke="rgb(33,255,0)" stroke-width="2" fill="none"></circle>
<circle cx="6904.48" cy="700.528" r="4" stroke="rgb(33,255,0)" stroke-width="2" fill="none"></circle>
<circle cx="1317.06" cy="817.231" r="4" stroke="rgb(255,170,0)" stroke-width="2" fill="none"></circle>
<circle cx="6067.88" cy="553.618" r="4" stroke="rgb(255,170,0)" stroke-width="2" fill="none"></circle>
<circle cx="2242.12" cy="838.298" r="4" stroke="rgb(93,0,255)" stroke-width="2" fill="none"></circle>
<circle cx="6636.07" cy="1441.96" r="4" stroke="rgb(93,0,255)" stroke-width="2" fill="none"></circle>
<circle cx="1768.44" cy="1124.1" r="4" stroke="rgb(255,0,144)" stroke-width="2" fill="none"></circle>
<circle cx="5960.32" cy="1511.13" r="4" stroke="rgb(255,0,144)" stroke-width="2" fill="none"></circle>
<circle cx="1031.99" cy="1185.18" r="4" stroke="rgb(0,33,255)" stroke-width="2" fill="none"></circle>
<circle cx="6062.46" cy="496.339" r="4" stroke="rgb(0,33,255)" stroke-width="2" fill="none"></circle>
<circle cx="2393.77" cy="1186.05" r="4" stroke="rgb(255,0,225)" stroke-width="2" fill="none"></circle>
<circle cx="6774.77" cy="1427.9" r="4" stroke="rgb(255,0,225)" stroke-width="2" fill="none"></circle>
<circle cx="2581.36" cy="1188.42" r="4" stroke="rgb(255,17,0)" stroke-width="2" fill="none"></circle>
<circle cx="6866.38" cy="1207.31" r="4" stroke="rgb(255,17,0)" stroke-width="2" fill="none"></circle>
<circle cx="1695.75" cy="1232.78" r="4" stroke="rgb(0,255,186)" stroke-width="2" fill="none"></circle>
<circle cx="5316.22" cy="691.073" r="4" stroke="rgb(0,255,186)" stroke-width="2" fill="none"></circle>
<circle cx="1105.04" cy="1237.55" r="4" stroke="rgb(0,255,110)" stroke-width="2" fill="none"></circle>
<circle cx="6545.9" cy="584.064" r="4" stroke="rgb(0,255,110)" stroke-width="2" fill="none"></circle>
<circle cx="2577.62" cy="1260.41" r="4" stroke="rgb(0,80,255)" stroke-width="2" fill="none"></circle>
<circle cx="6842.41" cy="1268.83" r="4" stroke="rgb(0,80,255)" stroke-width="2" fill="none"></circle>
<circle cx="2018.6" cy="1269.9" r="4" stroke="rgb(0,221,255)" stroke-width="2" fill="none"></circle>
<circle cx="5692.58" cy="1057.91" r="4" stroke="rgb(0,221,255)" stroke-width="2" fill="none"></circle>
<circle cx="1433.52" cy="1279.38" r="4" stroke="rgb(255,0,233)" stroke-width="2" fill="none"></circle>
<circle cx="5575.57" cy="659.543" r="4" stroke="rgb(255,0,233)" stroke-width="2" fill="none"></circle>
<circle cx="1615.07" cy="1295.94" r="4" stroke="rgb(255,0,199)" stroke-width="2" fill="none"></circle>
<circle cx="6567.89" cy="1287.57" r="4" stroke="rgb(255,0,199)" stroke-width="2" fill="none"></circle>
<circle cx="2876.66" cy="1313.27" r="4" stroke="rgb(255,0,119)" stroke-width="2" fill="none"></circle>
<circle cx="5529.22" cy="1226.86" r="4" stroke="rgb(255,0,119)" stroke-width="2" fill="none"></circle>
<circle cx="2699.26" cy="1324.46" r="4" stroke="rgb(255,114,0)" stroke-width="2" fill="none"></circle>
<circle cx="6870.64" cy="1331.21" r="4" stroke="rgb(255,114,0)" stroke-width="2" fill="none"></circle>
<circle cx="2664.13" cy="1330.17" r="4" stroke="rgb(0,255,110)" stroke-width="2" fill="none"></circle>
<circle cx="6856.32" cy="1322.1" r="4" stroke="rgb(0,255,110)" stroke-width="2" fill="none"></circle>
<circle cx="1241.85" cy="1347.54" r="4" stroke="rgb(255,195,0)" stroke-width="2" fill="none"></circle>
<circle cx="5505.07" cy="723.411" r="4" stroke="rgb(255,195,0)" stroke-width="2" fill="none"></circle>
<circle cx="1043.72" cy="1348.65" r="4" stroke="rgb(255,233,0)" stroke-width="2" fill="none"></circle>
<circle cx="6353.71" cy="621.135" r="4" stroke="rgb(255,233,0)" stroke-width="2" fill="none"></circle>
<circle cx="2266.77" cy="1358.89" r="4" stroke="rgb(187,255,0)" stroke-width="2" fill="none"></circle>
<circle cx="5449.87" cy="717.706" r="4" stroke="rgb(187,255,0)" stroke-width="2" fill="none"></circle>
<circle cx="1277.37" cy="1389.56" r="4" stroke="rgb(255,0,127)" stroke-width="2" fill="none"></circle>
<circle cx="5479.57" cy="676.253" r="4" stroke="rgb(255,0,127)" stroke-width="2" fill="none"></circle>
<circle cx="1470.21" cy="1409" r="4" stroke="rgb(255,0,221)" stroke-width="2" fill="none"></circle>
<circle cx="6047.79" cy="1281.07" r="4" stroke="rgb(255,0,221)" stroke-width="2" fill="none"></circle>
<circle cx="1887.99" cy="1429.4" r="4" stroke="rgb(0,255,229)" stroke-width="2" fill="none"></circle>
<circle cx="6306.57" cy="1113.94" r="4" stroke="rgb(0,255,229)" stroke-width="2" fill="none"></circle>
<circle cx="1260.39" cy="1433.88" r="4" stroke="rgb(255,114,0)" stroke-width="2" fill="none"></circle>
<circle cx="6083.39" cy="648.827" r="4" stroke="rgb(255,114,0)" stroke-width="2" fill="none"></circle>
<circle cx="1204.2" cy="1435.84" r="4" stroke="rgb(178,255,0)" stroke-width="2" fill="none"></circle>
<circle cx="5462.99" cy="675.107" r="4" stroke="rgb(178,255,0)" stroke-width="2" fill="none"></circle>
<circle cx="2649.95" cy="1443.99" r="4" stroke="rgb(0,255,233)" stroke-width="2" fill="none"></circle>
<circle cx="5863.11" cy="649.034" r="4" stroke="rgb(0,255,233)" stroke-width="2" fill="none"></circle>
<circle cx="2656.1" cy="1458.89" r="4" stroke="rgb(229,255,0)" stroke-width="2" fill="none"></circle>
<circle cx="6783.69" cy="1414.61" r="4" stroke="rgb(229,255,0)" stroke-width="2" fill="none"></circle>
<circle cx="2629.46" cy="1459.1" r="4" stroke="rgb(255,0,199)" stroke-width="2" fill="none"></circle>
<circle cx="6769.11" cy="1409.42" r="4" stroke="rgb(255,0,199)" stroke-width="2" fill="none"></circle>
<circle cx="2633.45" cy="1467.04" r="4" stroke="rgb(33,255,0)" stroke-width="2" fill="none"></circle>
<circle cx="5395.52" cy="759.124" r="4" stroke="rgb(33,255,0)" stroke-width="2" fill="none"></circle>
<circle cx="2591.98" cy="1468.92" r="4" stroke="rgb(255,42,0)" stroke-width="2" fill="none"></circle>
<circle cx="6769.13" cy="1372.82" r="4" stroke="rgb(255,42,0)" stroke-width="2" fill="none"></circle>
<circle cx="2259.95" cy="1474.15" r="4" stroke="rgb(0,46,255)" stroke-width="2" fill="none"></circle>
<circle cx="6678.55" cy="1231.64" r="4" stroke="rgb(0,46,255)" stroke-width="2" fill="none"></circle>
<circle cx="2629.21" cy="1481.79" r="4" stroke="rgb(255,229,0)" stroke-width="2" fill="none"></circle>
<circle cx="5356.81" cy="748.444" r="4" stroke="rgb(255,229,0)" stroke-width="2" fill="none"></circle>
<circle cx="2722.14" cy="1482.81" r="4" stroke="rgb(255,0,25)" stroke-width="2" fill="none"></circle>
<circle cx="6806.56" cy="1443.45" r="4" stroke="rgb(255,0,25)" stroke-width="2" fill="none"></circle>
<circle cx="1465.56" cy="1503.18" r="4" stroke="rgb(0,255,93)" stroke-width="2" fill="none"></circle>
<circle cx="6489.12" cy="1358.89" r="4" stroke="rgb(0,255,93)" stroke-width="2" fill="none"></circle>
<circle cx="2610.47" cy="1512.2" r="4" stroke="rgb(0,221,255)" stroke-width="2" fill="none"></circle>
<circle cx="5794.46" cy="719.252" r="4" stroke="rgb(0,221,255)" stroke-width="2" fill="none"></circle>
<circle cx="1183.4" cy="1523.62" r="4" stroke="rgb(255,0,165)" stroke-width="2" fill="none"></circle>
<circle cx="5254.27" cy="1318.41" r="4" stroke="rgb(255,0,165)" stroke-width="2" fill="none"></circle>
<circle cx="2599.94" cy="1524.01" r="4" stroke="rgb(255,59,0)" stroke-width="2" fill="none"></circle>
<circle cx="6705.39" cy="1338.19" r="4" stroke="rgb(255,59,0)" stroke-width="2" fill="none"></circle>
<circle cx="1099.23" cy="1524.68" r="4" stroke="rgb(255,29,0)" stroke-width="2" fill="none"></circle>
<circle cx="5492.78" cy="878.819" r="4" stroke="rgb(255,29,0)" stroke-width="2" fill="none"></circle>
<circle cx="1114.93" cy="1533.7" r="4" stroke="rgb(0,182,255)" stroke-width="2" fill="none"></circle>
<circle cx="5986.48" cy="747.448" r="4" stroke="rgb(0,182,255)" stroke-width="2" fill="none"></circle>
<circle cx="2621.68" cy="1535.81" r="4" stroke="rgb(255,212,0)" stroke-width="2" fill="none"></circle>
<circle cx="5735.56" cy="663.765" r="4" stroke="rgb(255,212,0)" stroke-width="2" fill="none"></circle>
<circle cx="2610.74" cy="1540.93" r="4" stroke="rgb(0,255,140)" stroke-width="2" fill="none"></circle>
<circle cx="5834.16" cy="751.488" r="4" stroke="rgb(0,255,140)" stroke-width="2" fill="none"></circle>
<circle cx="1125.19" cy="1541.33" r="4" stroke="rgb(255,246,0)" stroke-width="2" fill="none"></circle>
<circle cx="5904.29" cy="1465.07" r="4" stroke="rgb(255,246,0)" stroke-width="2" fill="none"></circle>
<circle cx="1455.68" cy="1545.36" r="4" stroke="rgb(42,255,0)" stroke-width="2" fill="none"></circle>
<circle cx="6074.01" cy="1303.78" r="4" stroke="rgb(42,255,0)" stroke-width="2" fill="none"></circle>
<circle cx="1069.1" cy="1545.6" r="4" stroke="rgb(89,255,0)" stroke-width="2" fill="none"></circle>
<circle cx="6562.32" cy="638.397" r="4" stroke="rgb(89,255,0)" stroke-width="2" fill="none"></circle>
<circle cx="2643.97" cy="1552.31" r="4" stroke="rgb(12,0,255)" stroke-width="2" fill="none"></circle>
<circle cx="5902.48" cy="1424.98" r="4" stroke="rgb(12,0,255)" stroke-width="2" fill="none"></circle>
<circle cx="1470.96" cy="1556.6" r="4" stroke="rgb(161,255,0)" stroke-width="2" fill="none"></circle>
<circle cx="6622.3" cy="1253.45" r="4" stroke="rgb(161,255,0)" stroke-width="2" fill="none"></circle>
<circle cx="1600.46" cy="1561.89" r="4" stroke="rgb(255,0,8)" stroke-width="2" fill="none"></circle>
<circle cx="5947.2" cy="790.529" r="4" stroke="rgb(255,0,8)" stroke-width="2" fill="none"></circle>
<circle cx="1492.19" cy="1567.33" r="4" stroke="rgb(93,0,255)" stroke-width="2" fill="none"></circle>
<circle cx="6687.47" cy="1267.42" r="4" stroke="rgb(93,0,255)" stroke-width="2" fill="none"></circle>
<circle cx="2471.67" cy="1568.13" r="4" stroke="rgb(0,255,33)" stroke-width="2" fill="none"></circle>
<circle cx="5999.31" cy="1336.59" r="4" stroke="rgb(0,255,33)" stroke-width="2" fill="none"></circle>
<circle cx="2634.82" cy="1576.35" r="4" stroke="rgb(255,225,0)" stroke-width="2" fill="none"></circle>
<circle cx="5156.44" cy="917.474" r="4" stroke="rgb(255,225,0)" stroke-width="2" fill="none"></circle>
<circle cx="1158.52" cy="1580.39" r="4" stroke="rgb(255,0,93)" stroke-width="2" fill="none"></circle>
<circle cx="5783.02" cy="825.477" r="4" stroke="rgb(255,0,93)" stroke-width="2" fill="none"></circle>
<circle cx="1690.07" cy="1585.08" r="4" stroke="rgb(255,0,127)" stroke-width="2" fill="none"></circle>
<circle cx="5919.53" cy="1420.79" r="4" stroke="rgb(255,0,127)" stroke-width="2" fill="none"></circle>
<circle cx="2607.12" cy="1588.66" r="4" stroke="rgb(0,29,255)" stroke-width="2" fill="none"></circle>
<circle cx="5585.9" cy="652.825" r="4" stroke="rgb(0,29,255)" stroke-width="2" fill="none"></circle>
<circle cx="2610.09" cy="1615.12" r="4" stroke="rgb(255,102,0)" stroke-width="2" fill="none"></circle>
<circle cx="5807.06" cy="735.544" r="4" stroke="rgb(255,102,0)" stroke-width="2" fill="none"></circle>
<circle cx="1386.33" cy="1621.24" r="4" stroke="rgb(255,0,12)" stroke-width="2" fill="none"></circle>
<circle cx="5900.35" cy="1159.23" r="4" stroke="rgb(255,0,12)" stroke-width="2" fill="none"></circle>
<circle cx="1025.25" cy="1643.6" r="4" stroke="rgb(255,0,208)" stroke-width="2" fill="none"></circle>
<circle cx="5406" cy="949.766" r="4" stroke="rgb(255,0,208)" stroke-width="2" fill="none"></circle>
<circle cx="1824.67" cy="1656.74" r="4" stroke="rgb(208,255,0)" stroke-width="2" fill="none"></circle>
<circle cx="5586.85" cy="1273.32" r="4" stroke="rgb(208,255,0)" stroke-width="2" fill="none"></circle>
<circle cx="968.676" cy="1664.72" r="4" stroke="rgb(238,0,255)" stroke-width="2" fill="none"></circle>
<circle cx="6133.41" cy="1547.79" r="4" stroke="rgb(238,0,255)" stroke-width="2" fill="none"></circle>
<circle cx="1589.41" cy="1669.84" r="4" stroke="rgb(106,0,255)" stroke-width="2" fill="none"></circle>
<circle cx="6104.87" cy="1415.53" r="4" stroke="rgb(106,0,255)" stroke-width="2" fill="none"></circle>
<circle cx="2198.58" cy="1680.23" r="4" stroke="rgb(0,242,255)" stroke-width="2" fill="none"></circle>
<circle cx="5607.4" cy="1343.63" r="4" stroke="rgb(0,242,255)" stroke-width="2" fill="none"></circle>
<circle cx="2505.82" cy="1694.55" r="4" stroke="rgb(255,0,229)" stroke-width="2" fill="none"></circle>
<circle cx="6577.21" cy="1520.29" r="4" stroke="rgb(255,0,229)" stroke-width="2" fill="none"></circle>
<circle cx="2446.94" cy="1696.21" r="4" stroke="rgb(255,25,0)" stroke-width="2" fill="none"></circle>
<circle cx="6309.8" cy="1057.02" r="4" stroke="rgb(255,25,0)" stroke-width="2" fill="none"></circle>
<circle cx="1279.67" cy="1700.42" r="4" stroke="rgb(46,255,0)" stroke-width="2" fill="none"></circle>
<circle cx="5802.43" cy="750.539" r="4" stroke="rgb(46,255,0)" stroke-width="2" fill="none"></circle>
<circle cx="1862.04" cy="1709.42" r="4" stroke="rgb(0,255,225)" stroke-width="2" fill="none"></circle>
<circle cx="5806.77" cy="672.512" r="4" stroke="rgb(0,255,225)" stroke-width="2" fill="none"></circle>
<circle cx="1405.34" cy="1709.93" r="4" stroke="rgb(0,255,118)" stroke-width="2" fill="none"></circle>
<circle cx="5896.94" cy="1336.49" r="4" stroke="rgb(0,255,118)" stroke-width="2" fill="none"></circle>
<circle cx="2473.54" cy="1723.46" r="4" stroke="rgb(242,0,255)" stroke-width="2" fill="none"></circle>
<circle cx="6279.93" cy="1481.21" r="4" stroke="rgb(242,0,255)" stroke-width="2" fill="none"></circle>
<circle cx="967.135" cy="1734.65" r="4" stroke="rgb(255,25,0)" stroke-width="2" fill="none"></circle>
<circle cx="5294.2" cy="723.64" r="4" stroke="rgb(255,25,0)" stroke-width="2" fill="none"></circle>
<circle cx="1398.06" cy="1736.78" r="4" stroke="rgb(255,144,0)" stroke-width="2" fill="none"></circle>
<circle cx="6469.86" cy="1292.56" r="4" stroke="rgb(255,144,0)" stroke-width="2" fill="none"></circle>
<circle cx="1883.36" cy="1754.04" r="4" stroke="rgb(0,255,242)" stroke-width="2" fill="none"></circle>
<circle cx="6303.32" cy="1548.83" r="4" stroke="rgb(0,255,242)" stroke-width="2" fill="none"></circle>
<circle cx="2565.03" cy="1766.33" r="4" stroke="rgb(0,157,255)" stroke-width="2" fill="none"></circle>
<circle cx="5807.46" cy="1432.01" r="4" stroke="rgb(0,157,255)" stroke-width="2" fill="none"></circle>
<circle cx="917.472" cy="1767.73" r="4" stroke="rgb(255,0,182)" stroke-width="2" fill="none"></circle>
<circle cx="5658.48" cy="692.146" r="4" stroke="rgb(255,0,182)" stroke-width="2" fill="none"></circle>
<circle cx="2547.18" cy="1792.27" r="4" stroke="rgb(255,0,127)" stroke-width="2" fill="none"></circle>
<circle cx="6723.14" cy="1453.08" r="4" stroke="rgb(255,0,127)" stroke-width="2" fill="none"></circle>
<circle cx="2453.99" cy="1799.31" r="4" stroke="rgb(0,255,55)" stroke-width="2" fill="none"></circle>
<circle cx="5749.14" cy="1442.95" r="4" stroke="rgb(0,255,55)" stroke-width="2" fill="none"></circle>
<circle cx="2021.31" cy="1803.69" r="4" stroke="rgb(225,255,0)" stroke-width="2" fill="none"></circle>
<circle cx="6002.7" cy="1433.83" r="4" stroke="rgb(225,255,0)" stroke-width="2" fill="none"></circle>
<circle cx="835.837" cy="1815.07" r="4" stroke="rgb(255,0,250)" stroke-width="2" fill="none"></circle>
<circle cx="6006.19" cy="690.384" r="4" stroke="rgb(255,0,250)" stroke-width="2" fill="none"></circle>
<circle cx="2525.02" cy="1816.36" r="4" stroke="rgb(255,72,0)" stroke-width="2" fill="none"></circle>
<circle cx="6577.85" cy="1537.88" r="4" stroke="rgb(255,72,0)" stroke-width="2" fill="none"></circle>
<circle cx="1297.04" cy="1823.18" r="4" stroke="rgb(0,255,127)" stroke-width="2" fill="none"></circle>
<circle cx="6144.13" cy="1339.99" r="4" stroke="rgb(0,255,127)" stroke-width="2" fill="none"></circle>
<circle cx="1342.55" cy="1837.1" r="4" stroke="rgb(250,0,255)" stroke-width="2" fill="none"></circle>
<circle cx="5816.87" cy="1343.17" r="4" stroke="rgb(250,0,255)" stroke-width="2" fill="none"></circle>
<circle cx="1397.39" cy="1854.86" r="4" stroke="rgb(165,0,255)" stroke-width="2" fill="none"></circle>
<circle cx="6777.97" cy="761.668" r="4" stroke="rgb(165,0,255)" stroke-width="2" fill="none"></circle>
<circle cx="1488.23" cy="1856.38" r="4" stroke="rgb(161,0,255)" stroke-width="2" fill="none"></circle>
<circle cx="5823.07" cy="1257.27" r="4" stroke="rgb(161,0,255)" stroke-width="2" fill="none"></circle>
<circle cx="1705.09" cy="1860.55" r="4" stroke="rgb(255,0,33)" stroke-width="2" fill="none"></circle>
<circle cx="5958.28" cy="1433.67" r="4" stroke="rgb(255,0,33)" stroke-width="2" fill="none"></circle>
<circle cx="2325.89" cy="1867.12" r="4" stroke="rgb(0,255,38)" stroke-width="2" fill="none"></circle>
<circle cx="6206.09" cy="1497.85" r="4" stroke="rgb(0,255,38)" stroke-width="2" fill="none"></circle>
<circle cx="1285.51" cy="1872.07" r="4" stroke="rgb(38,0,255)" stroke-width="2" fill="none"></circle>
<circle cx="5090.24" cy="1255.26" r="4" stroke="rgb(38,0,255)" stroke-width="2" fill="none"></circle>
<circle cx="672.414" cy="1892.81" r="4" stroke="rgb(0,63,255)" stroke-width="2" fill="none"></circle>
<circle cx="6098.9" cy="682.812" r="4" stroke="rgb(0,63,255)" stroke-width="2" fill="none"></circle>
<circle cx="698.029" cy="1895.36" r="4" stroke="rgb(255,106,0)" stroke-width="2" fill="none"></circle>
<circle cx="5806.57" cy="673.022" r="4" stroke="rgb(255,106,0)" stroke-width="2" fill="none"></circle>
<circle cx="1567.01" cy="1898.32" r="4" stroke="rgb(8,255,0)" stroke-width="2" fill="none"></circle>
<circle cx="5242.96" cy="896.908" r="4" stroke="rgb(8,255,0)" stroke-width="2" fill="none"></circle>
<circle cx="2200.5" cy="1903.88" r="4" stroke="rgb(255,208,0)" stroke-width="2" fill="none"></circle>
<circle cx="5851.75" cy="1218.28" r="4" stroke="rgb(255,208,0)" stroke-width="2" fill="none"></circle>
<circle cx="927.725" cy="1940.59" r="4" stroke="rgb(101,255,0)" stroke-width="2" fill="none"></circle>
<circle cx="5167.5" cy="909.11" r="4" stroke="rgb(101,255,0)" stroke-width="2" fill="none"></circle>
<circle cx="1363.59" cy="1944.8" r="4" stroke="rgb(255,229,0)" stroke-width="2" fill="none"></circle>
<circle cx="5611.5" cy="1338.94" r="4" stroke="rgb(255,229,0)" stroke-width="2" fill="none"></circle>
<circle cx="1116.18" cy="1949.93" r="4" stroke="rgb(0,229,255)" stroke-width="2" fill="none"></circle>
<circle cx="5359.88" cy="921.171" r="4" stroke="rgb(0,229,255)" stroke-width="2" fill="none"></circle>
<circle cx="2202.8" cy="1952.34" r="4" stroke="rgb(0,255,131)" stroke-width="2" fill="none"></circle>
<circle cx="5988.02" cy="746.906" r="4" stroke="rgb(0,255,131)" stroke-width="2" fill="none"></circle>
<circle cx="956.945" cy="1969.48" r="4" stroke="rgb(0,29,255)" stroke-width="2" fill="none"></circle>
<circle cx="6396.15" cy="490.304" r="4" stroke="rgb(0,29,255)" stroke-width="2" fill="none"></circle>
<circle cx="987.832" cy="1978.33" r="4" stroke="rgb(0,203,255)" stroke-width="2" fill="none"></circle>
<circle cx="6545.78" cy="1365.6" r="4" stroke="rgb(0,203,255)" stroke-width="2" fill="none"></circle>
<circle cx="2213.08" cy="1998.21" r="4" stroke="rgb(85,0,255)" stroke-width="2" fill="none"></circle>
<circle cx="6245.11" cy="489.309" r="4" stroke="rgb(85,0,255)" stroke-width="2" fill="none"></circle>
<circle cx="2178.53" cy="2002.29" r="4" stroke="rgb(255,195,0)" stroke-width="2" fill="none"></circle>
<circle cx="5996.71" cy="1538.42" r="4" stroke="rgb(255,195,0)" stroke-width="2" fill="none"></circle>
<circle cx="1729.54" cy="2006.68" r="4" stroke="rgb(0,114,255)" stroke-width="2" fill="none"></circle>
<circle cx="6621.88" cy="1503.77" r="4" stroke="rgb(0,114,255)" stroke-width="2" fill="none"></circle>
<circle cx="2146.28" cy="2050.57" r="4" stroke="rgb(216,255,0)" stroke-width="2" fill="none"></circle>
<circle cx="6524.52" cy="1360.17" r="4" stroke="rgb(216,255,0)" stroke-width="2" fill="none"></circle>
<circle cx="2187.39" cy="2051.84" r="4" stroke="rgb(255,221,0)" stroke-width="2" fill="none"></circle>
<circle cx="6032.63" cy="1512" r="4" stroke="rgb(255,221,0)" stroke-width="2" fill="none"></circle>
<circle cx="2171.64" cy="2053.39" r="4" stroke="rgb(29,0,255)" stroke-width="2" fill="none"></circle>
<circle cx="5862.93" cy="1522.94" r="4" stroke="rgb(29,0,255)" stroke-width="2" fill="none"></circle>
<circle cx="2124.76" cy="2054.66" r="4" stroke="rgb(25,0,255)" stroke-width="2" fill="none"></circle>
<circle cx="6500.26" cy="539.588" r="4" stroke="rgb(25,0,255)" stroke-width="2" fill="none"></circle>
<circle cx="1604.3" cy="2060.49" r="4" stroke="rgb(0,255,29)" stroke-width="2" fill="none"></circle>
<circle cx="6140.13" cy="694.505" r="4" stroke="rgb(0,255,29)" stroke-width="2" fill="none"></circle>
<circle cx="1297.63" cy="2078.87" r="4" stroke="rgb(0,153,255)" stroke-width="2" fill="none"></circle>
<circle cx="6230.27" cy="1040.67" r="4" stroke="rgb(0,153,255)" stroke-width="2" fill="none"></circle>
<circle cx="1005.79" cy="2083.25" r="4" stroke="rgb(131,255,0)" stroke-width="2" fill="none"></circle>
<circle cx="5208.29" cy="1325.07" r="4" stroke="rgb(131,255,0)" stroke-width="2" fill="none"></circle>
<circle cx="1052.42" cy="2121.57" r="4" stroke="rgb(85,0,255)" stroke-width="2" fill="none"></circle>
<circle cx="6837.96" cy="654.669" r="4" stroke="rgb(85,0,255)" stroke-width="2" fill="none"></circle>
<circle cx="1056.29" cy="2129.85" r="4" stroke="rgb(0,255,101)" stroke-width="2" fill="none"></circle>
<circle cx="6052.51" cy="799.782" r="4" stroke="rgb(0,255,101)" stroke-width="2" fill="none"></circle>
</svg>