<?xml version="1.0" standalone="yes"?>
<!-- SVG graphic -->
<svg xmlns='http://www.w3.org/2000/svg' xmlns:xlink='http://www.w3.org/1999/xlink'
width="8064px" height="3024px" preserveAspectRatio="xMinYMin meet" viewBox="0 0 8064 3024" version="1.1">
<image x="0" y="0" width="4032px" height="3024px" opacity="1" xlink:href="/home/jeong/Code/2D-to-3D-Modeling-using-AI/Make3D/Image/20200227_180653.jpg"/>
<image x="4032" y="0" width="4032px" height="3024px" opacity="1" xlink:href="/home/jeong/Code/2D-to-3D-Modeling-using-AI/Make3D/Image/20200227_180729.jpg"/>
<polyline points="1480.12,697.909,6261.66,2398.18" stroke="rgb(89,0,255)" stroke-width="2" fill="none"></polyline>
<polyline points="2017.5,728.135,5625.15,1367.24" stroke="rgb(80,255,0)" stroke-width="2" fill="none"></polyline>
<polyline points="2234.75,791.72,5437.82,762.517" stroke="rgb(89,0,255)" stroke-width="2" fill="none"></polyline>
<polyline points="2280.13,801.877,6015.33,1604.54" stroke="rgb(0,255,93)" stroke-width="2" fill="none"></polyline>
<polyline points="1277.39,843.297,5182.47,585.898" stroke="rgb(0,255,4)" stroke-width="2" fill="none"></polyline>
<polyline points="2340.85,849.089,6531.25,778.543" stroke="rgb(0,8,255)" stroke-width="2" fill="none"></polyline>
<polyline points="2215.59,1032.79,5376.94,739.986" stroke="rgb(255,0,55)" stroke-width="2" fill="none"></polyline>
<polyline points="978.64,1066.18,5588.8,928.318" stroke="rgb(255,0,68)" stroke-width="2" fill="none"></polyline>
<polyline points="1816.16,1117.51,6631.83,1511.78" stroke="rgb(255,178,0)" stroke-width="2" fill="none"></polyline>
<polyline points="1523.12,1138.64,5939.12,2105.47" stroke="rgb(178,255,0)" stroke-width="2" fill="none"></polyline>
<polyline points="2145.46,1149.99,6547.8,1408.12" stroke="rgb(0,216,255)" stroke-width="2" fill="none"></polyline>
<polyline points="1991.85,1189.78,5996.42,1360.63" stroke="rgb(0,51,255)" stroke-width="2" fill="none"></polyline>
<polyline points="2653.25,1220.02,5914.48,2408.7" stroke="rgb(55,0,255)" stroke-width="2" fill="none"></polyline>
<polyline points="2009.46,1235.41,5847.28,1467.55" stroke="rgb(221,0,255)" stroke-width="2" fill="none"></polyline>
<polyline points="1840.92,1241.67,6570.42,973.937" stroke="rgb(85,0,255)" stroke-width="2" fill="none"></polyline>
<polyline points="1176.58,1250.27,6743.42,1505.53" stroke="rgb(255,0,85)" stroke-width="2" fill="none"></polyline>
<polyline points="1864.16,1252.79,6960.9,1164.39" stroke="rgb(148,0,255)" stroke-width="2" fill="none"></polyline>
<polyline points="1538.48,1274.55,5299.32,797.334" stroke="rgb(0,106,255)" stroke-width="2" fill="none"></polyline>
<polyline points="2633.58,1278.35,5384.22,741.559" stroke="rgb(0,255,84)" stroke-width="2" fill="none"></polyline>
<polyline points="2874.02,1304.75,6811.56,1983.79" stroke="rgb(46,0,255)" stroke-width="2" fill="none"></polyline>
<polyline points="2409.69,1319.83,6954.31,1291.52" stroke="rgb(255,42,0)" stroke-width="2" fill="none"></polyline>
<polyline points="2011.52,1327.14,5806.03,1612.83" stroke="rgb(131,0,255)" stroke-width="2" fill="none"></polyline>
<polyline points="1959.61,1334.34,5627.97,1331.78" stroke="rgb(255,0,136)" stroke-width="2" fill="none"></polyline>
<polyline points="2629.14,1339.08,6236.33,1140.49" stroke="rgb(93,255,0)" stroke-width="2" fill="none"></polyline>
<polyline points="2452.32,1339.29,6620.31,1340.04" stroke="rgb(110,0,255)" stroke-width="2" fill="none"></polyline>
<polyline points="2602.97,1340.1,6745.63,1621.97" stroke="rgb(76,255,0)" stroke-width="2" fill="none"></polyline>
<polyline points="1511.74,1350.8,5886.16,1690.65" stroke="rgb(0,255,55)" stroke-width="2" fill="none"></polyline>
<polyline points="1964.94,1355.26,5868.97,1597.62" stroke="rgb(80,0,255)" stroke-width="2" fill="none"></polyline>
<polyline points="2647.5,1358.6,6296.26,1260.82" stroke="rgb(255,34,0)" stroke-width="2" fill="none"></polyline>
<polyline points="2455.61,1358.87,5933.11,1742.62" stroke="rgb(63,0,255)" stroke-width="2" fill="none"></polyline>
<polyline points="1353.45,1372.05,6536.21,1138.39" stroke="rgb(0,153,255)" stroke-width="2" fill="none"></polyline>
<polyline points="1347.3,1377.75,6799.35,1136.24" stroke="rgb(0,255,89)" stroke-width="2" fill="none"></polyline>
<polyline points="1094.41,1384.71,6385.93,1597.78" stroke="rgb(255,0,12)" stroke-width="2" fill="none"></polyline>
<polyline points="1985.35,1399.94,6543.62,874.446" stroke="rgb(255,0,97)" stroke-width="2" fill="none"></polyline>
<polyline points="1148.88,1431.76,5752.03,428.275" stroke="rgb(182,0,255)" stroke-width="2" fill="none"></polyline>
<polyline points="1278.88,1432.45,6196.82,1191.03" stroke="rgb(8,255,0)" stroke-width="2" fill="none"></polyline>
<polyline points="2381.6,1433.37,5849.8,1605.79" stroke="rgb(135,255,0)" stroke-width="2" fill="none"></polyline>
<polyline points="1204.2,1435.84,5428.07,304.233" stroke="rgb(0,255,97)" stroke-width="2" fill="none"></polyline>
<polyline points="1492.84,1458.24,6725.07,914.952" stroke="rgb(72,255,0)" stroke-width="2" fill="none"></polyline>
<polyline points="1548.62,1470.6,5896.26,1551.44" stroke="rgb(255,8,0)" stroke-width="2" fill="none"></polyline>
<polyline points="2648.57,1473.93,6108.99,921.193" stroke="rgb(0,80,255)" stroke-width="2" fill="none"></polyline>
<polyline points="1533.79,1476,5826.91,1690.26" stroke="rgb(0,255,186)" stroke-width="2" fill="none"></polyline>
<polyline points="2613.17,1487.51,5974.07,881.76" stroke="rgb(0,38,255)" stroke-width="2" fill="none"></polyline>
<polyline points="1513.07,1491.36,5904.5,1526.11" stroke="rgb(255,0,59)" stroke-width="2" fill="none"></polyline>
<polyline points="1465.56,1503.18,6693.95,1446.53" stroke="rgb(101,255,0)" stroke-width="2" fill="none"></polyline>
<polyline points="1330.87,1519,5471.22,619.32" stroke="rgb(0,255,46)" stroke-width="2" fill="none"></polyline>
<polyline points="1183.4,1523.62,5667.5,754.847" stroke="rgb(255,0,140)" stroke-width="2" fill="none"></polyline>
<polyline points="1209.98,1523.79,5900.12,1004.45" stroke="rgb(255,51,0)" stroke-width="2" fill="none"></polyline>
<polyline points="2599.94,1524.01,6843.94,1773.15" stroke="rgb(0,93,255)" stroke-width="2" fill="none"></polyline>
<polyline points="1099.23,1524.68,5931.41,1002.78" stroke="rgb(255,0,89)" stroke-width="2" fill="none"></polyline>
<polyline points="1406.77,1528.63,6497.23,895.666" stroke="rgb(97,0,255)" stroke-width="2" fill="none"></polyline>
<polyline points="1125.19,1541.33,5771.14,1002.02" stroke="rgb(0,46,255)" stroke-width="2" fill="none"></polyline>
<polyline points="2629.31,1551.13,6218.1,1098.57" stroke="rgb(0,255,12)" stroke-width="2" fill="none"></polyline>
<polyline points="2591.62,1551.16,6097.73,695.556" stroke="rgb(72,255,0)" stroke-width="2" fill="none"></polyline>
<polyline points="2347.68,1561.43,5555.85,1289.28" stroke="rgb(0,174,255)" stroke-width="2" fill="none"></polyline>
<polyline points="1158.52,1580.39,6186,1293.81" stroke="rgb(255,123,0)" stroke-width="2" fill="none"></polyline>
<polyline points="1436.88,1584.16,6675.81,1309.39" stroke="rgb(0,144,255)" stroke-width="2" fill="none"></polyline>
<polyline points="1011.19,1591.78,5719.17,335.759" stroke="rgb(0,148,255)" stroke-width="2" fill="none"></polyline>
<polyline points="1265.9,1605.07,5820.16,1126.26" stroke="rgb(0,255,174)" stroke-width="2" fill="none"></polyline>
<polyline points="946.309,1686.58,6019.68,825.54" stroke="rgb(144,255,0)" stroke-width="2" fill="none"></polyline>
<polyline points="1315.21,1687.36,7024.31,1223.39" stroke="rgb(84,255,0)" stroke-width="2" fill="none"></polyline>
<polyline points="2357.89,1700.84,6768.83,1524.7" stroke="rgb(255,21,0)" stroke-width="2" fill="none"></polyline>
<polyline points="2381.18,1707.02,5924.5,1520.96" stroke="rgb(0,51,255)" stroke-width="2" fill="none"></polyline>
<polyline points="1714.51,1723.83,5350.92,897.009" stroke="rgb(97,255,0)" stroke-width="2" fill="none"></polyline>
<polyline points="995.429,1727.15,5738.17,1581.52" stroke="rgb(0,106,255)" stroke-width="2" fill="none"></polyline>
<polyline points="2473.99,1733,6621.13,977.746" stroke="rgb(255,97,0)" stroke-width="2" fill="none"></polyline>
<polyline points="2408.84,1795.04,5606.2,1237.64" stroke="rgb(135,255,0)" stroke-width="2" fill="none"></polyline>
<polyline points="2514.3,1806.06,6675.56,987.049" stroke="rgb(255,0,242)" stroke-width="2" fill="none"></polyline>
<polyline points="803.99,1824.06,5769.12,1317.34" stroke="rgb(0,255,195)" stroke-width="2" fill="none"></polyline>
<polyline points="770.727,1824.93,6026.01,1191.73" stroke="rgb(242,255,0)" stroke-width="2" fill="none"></polyline>
<polyline points="2459.28,1840.25,6281.22,1205.39" stroke="rgb(255,0,233)" stroke-width="2" fill="none"></polyline>
<polyline points="2530.07,1849.94,6270.8,996.891" stroke="rgb(80,0,255)" stroke-width="2" fill="none"></polyline>
<polyline points="731.258,1859.43,5783.69,490.634" stroke="rgb(0,55,255)" stroke-width="2" fill="none"></polyline>
<polyline points="2388.95,1861.5,5985.17,763.622" stroke="rgb(0,255,237)" stroke-width="2" fill="none"></polyline>
<polyline points="1187.44,1870.85,6622.38,887.906" stroke="rgb(25,0,255)" stroke-width="2" fill="none"></polyline>
<polyline points="733.377,1872.84,5805.02,533.945" stroke="rgb(0,191,255)" stroke-width="2" fill="none"></polyline>
<polyline points="2484.93,1882.59,6501.95,662.292" stroke="rgb(0,255,250)" stroke-width="2" fill="none"></polyline>
<polyline points="1732.47,1909.51,6030.45,2262.98" stroke="rgb(148,255,0)" stroke-width="2" fill="none"></polyline>
<polyline points="2275.43,1964.12,6028.53,890.099" stroke="rgb(174,255,0)" stroke-width="2" fill="none"></polyline>
<polyline points="956.945,1969.48,6152.34,1643.98" stroke="rgb(255,161,0)" stroke-width="2" fill="none"></polyline>
<polyline points="2340.48,1986.94,6101.65,1069.57" stroke="rgb(237,255,0)" stroke-width="2" fill="none"></polyline>
<polyline points="2224.66,1988.98,6319.9,709.774" stroke="rgb(0,106,255)" stroke-width="2" fill="none"></polyline>
<polyline points="2129.36,2028.87,5737.94,330.775" stroke="rgb(0,255,80)" stroke-width="2" fill="none"></polyline>
<polyline points="872.931,2030.01,6986.58,1907.3" stroke="rgb(0,225,255)" stroke-width="2" fill="none"></polyline>
<polyline points="2245.58,2030.58,6648.3,1491.51" stroke="rgb(255,0,178)" stroke-width="2" fill="none"></polyline>
<polyline points="1739.9,2032.8,6829.52,1399.44" stroke="rgb(255,0,93)" stroke-width="2" fill="none"></polyline>
<polyline points="1056.9,2034.99,6449.32,1016" stroke="rgb(131,255,0)" stroke-width="2" fill="none"></polyline>
<polyline points="618.053,2038.18,6348,569.035" stroke="rgb(255,153,0)" stroke-width="2" fill="none"></polyline>
<polyline points="2100.02,2044.14,6575.79,837.185" stroke="rgb(255,233,0)" stroke-width="2" fill="none"></polyline>
<polyline points="2146.28,2050.57,6584.59,1331.27" stroke="rgb(42,0,255)" stroke-width="2" fill="none"></polyline>
<polyline points="964.36,2070.84,5868.4,371.451" stroke="rgb(0,255,12)" stroke-width="2" fill="none"></polyline>
<polyline points="1302.41,2075.36,5829.93,1130.62" stroke="rgb(0,255,152)" stroke-width="2" fill="none"></polyline>
<polyline points="1005.79,2083.25,6801.98,1112.92" stroke="rgb(63,0,255)" stroke-width="2" fill="none"></polyline>
<polyline points="1052.42,2121.57,6822.35,1374.31" stroke="rgb(255,0,38)" stroke-width="2" fill="none"></polyline>
<polyline points="916.602,2139.03,5295.01,475.191" stroke="rgb(0,255,21)" stroke-width="2" fill="none"></polyline>
<polyline points="1031.14,2155.5,5641.39,1222.21" stroke="rgb(255,0,76)" stroke-width="2" fill="none"></polyline>
<polyline points="1008.66,2193.68,5755.85,653.081" stroke="rgb(255,59,0)" stroke-width="2" fill="none"></polyline>
<circle cx="1480.12" cy="697.909" r="4" stroke="rgb(89,0,255)" stroke-width="2" fill="none"></circle>
<circle cx="6261.66" cy="2398.18" r="4" stroke="rgb(89,0,255)" stroke-width="2" fill="none"></circle>
<circle cx="2017.5" cy="728.135" r="4" stroke="rgb(80,255,0)" stroke-width="2" fill="none"></circle>
<circle cx="5625.15" cy="1367.24" r="4" stroke="rgb(80,255,0)" stroke-width="2" fill="none"></circle>
<circle cx="2234.75" cy="791.72" r="4" stroke="rgb(89,0,255)" stroke-width="2" fill="none"></circle>
<circle cx="5437.82" cy="762.517" r="4" stroke="rgb(89,0,255)" stroke-width="2" fill="none"></circle>
<circle cx="2280.13" cy="801.877" r="4" stroke="rgb(0,255,93)" stroke-width="2" fill="none"></circle>
<circle cx="6015.33" cy="1604.54" r="4" stroke="rgb(0,255,93)" stroke-width="2" fill="none"></circle>
<circle cx="1277.39" cy="843.297" r="4" stroke="rgb(0,255,4)" stroke-width="2" fill="none"></circle>
<circle cx="5182.47" cy="585.898" r="4" stroke="rgb(0,255,4)" stroke-width="2" fill="none"></circle>
<circle cx="2340.85" cy="849.089" r="4" stroke="rgb(0,8,255)" stroke-width="2" fill="none"></circle>
<circle cx="6531.25" cy="778.543" r="4" stroke="rgb(0,8,255)" stroke-width="2" fill="none"></circle>
<circle cx="2215.59" cy="1032.79" r="4" stroke="rgb(255,0,55)" stroke-width="2" fill="none"></circle>
<circle cx="5376.94" cy="739.986" r="4" stroke="rgb(255,0,55)" stroke-width="2" fill="none"></circle>
<circle cx="978.64" cy="1066.18" r="4" stroke="rgb(255,0,68)" stroke-width="2" fill="none"></circle>
<circle cx="5588.8" cy="928.318" r="4" stroke="rgb(255,0,68)" stroke-width="2" fill="none"></circle>
<circle cx="1816.16" cy="1117.51" r="4" stroke="rgb(255,178,0)" stroke-width="2" fill="none"></circle>
<circle cx="6631.83" cy="1511.78" r="4" stroke="rgb(255,178,0)" stroke-width="2" fill="none"></circle>
<circle cx="1523.12" cy="1138.64" r="4" stroke="rgb(178,255,0)" stroke-width="2" fill="none"></circle>
<circle cx="5939.12" cy="2105.47" r="4" stroke="rgb(178,255,0)" stroke-width="2" fill="none"></circle>
<circle cx="2145.46" cy="1149.99" r="4" stroke="rgb(0,216,255)" stroke-width="2" fill="none"></circle>
<circle cx="6547.8" cy="1408.12" r="4" stroke="rgb(0,216,255)" stroke-width="2" fill="none"></circle>
<circle cx="1991.85" cy="1189.78" r="4" stroke="rgb(0,51,255)" stroke-width="2" fill="none"></circle>
<circle cx="5996.42" cy="1360.63" r="4" stroke="rgb(0,51,255)" stroke-width="2" fill="none"></circle>
<circle cx="2653.25" cy="1220.02" r="4" stroke="rgb(55,0,255)" stroke-width="2" fill="none"></circle>
<circle cx="5914.48" cy="2408.7" r="4" stroke="rgb(55,0,255)" stroke-width="2" fill="none"></circle>
<circle cx="2009.46" cy="1235.41" r="4" stroke="rgb(221,0,255)" stroke-width="2" fill="none"></circle>
<circle cx="5847.28" cy="1467.55" r="4" stroke="rgb(221,0,255)" stroke-width="2" fill="none"></circle>
<circle cx="1840.92" cy="1241.67" r="4" stroke="rgb(85,0,255)" stroke-width="2" fill="none"></circle>
<circle cx="6570.42" cy="973.937" r="4" stroke="rgb(85,0,255)" stroke-width="2" fill="none"></circle>
<circle cx="1176.58" cy="1250.27" r="4" stroke="rgb(255,0,85)" stroke-width="2" fill="none"></circle>
<circle cx="6743.42" cy="1505.53" r="4" stroke="rgb(255,0,85)" stroke-width="2" fill="none"></circle>
<circle cx="1864.16" cy="1252.79" r="4" stroke="rgb(148,0,255)" stroke-width="2" fill="none"></circle>
<circle cx="6960.9" cy="1164.39" r="4" stroke="rgb(148,0,255)" stroke-width="2" fill="none"></circle>
<circle cx="1538.48" cy="1274.55" r="4" stroke="rgb(0,106,255)" stroke-width="2" fill="none"></circle>
<circle cx="5299.32" cy="797.334" r="4" stroke="rgb(0,106,255)" stroke-width="2" fill="none"></circle>
<circle cx="2633.58" cy="1278.35" r="4" stroke="rgb(0,255,84)" stroke-width="2" fill="none"></circle>
<circle cx="5384.22" cy="741.559" r="4" stroke="rgb(0,255,84)" stroke-width="2" fill="none"></circle>
<circle cx="2874.02" cy="1304.75" r="4" stroke="rgb(46,0,255)" stroke-width="2" fill="none"></circle>
<circle cx="6811.56" cy="1983.79" r="4" stroke="rgb(46,0,255)" stroke-width="2" fill="none"></circle>
<circle cx="2409.69" cy="1319.83" r="4" stroke="rgb(255,42,0)" stroke-width="2" fill="none"></circle>
<circle cx="6954.31" cy="1291.52" r="4" stroke="rgb(255,42,0)" stroke-width="2" fill="none"></circle>
<circle cx="2011.52" cy="1327.14" r="4" stroke="rgb(131,0,255)" stroke-width="2" fill="none"></circle>
<circle cx="5806.03" cy="1612.83" r="4" stroke="rgb(131,0,255)" stroke-width="2" fill="none"></circle>
<circle cx="1959.61" cy="1334.34" r="4" stroke="rgb(255,0,136)" stroke-width="2" fill="none"></circle>
<circle cx="5627.97" cy="1331.78" r="4" stroke="rgb(255,0,136)" stroke-width="2" fill="none"></circle>
<circle cx="2629.14" cy="1339.08" r="4" stroke="rgb(93,255,0)" stroke-width="2" fill="none"></circle>
<circle cx="6236.33" cy="1140.49" r="4" stroke="rgb(93,255,0)" stroke-width="2" fill="none"></circle>
<circle cx="2452.32" cy="1339.29" r="4" stroke="rgb(110,0,255)" stroke-width="2" fill="none"></circle>
<circle cx="6620.31" cy="1340.04" r="4" stroke="rgb(110,0,255)" stroke-width="2" fill="none"></circle>
<circle cx="2602.97" cy="1340.1" r="4" stroke="rgb(76,255,0)" stroke-width="2" fill="none"></circle>
<circle cx="6745.63" cy="1621.97" r="4" stroke="rgb(76,255,0)" stroke-width="2" fill="none"></circle>
<circle cx="1511.74" cy="1350.8" r="4" stroke="rgb(0,255,55)" stroke-width="2" fill="none"></circle>
<circle cx="5886.16" cy="1690.65" r="4" stroke="rgb(0,255,55)" stroke-width="2" fill="none"></circle>
<circle cx="1964.94" cy="1355.26" r="4" stroke="rgb(80,0,255)" stroke-width="2" fill="none"></circle>
<circle cx="5868.97" cy="1597.62" r="4" stroke="rgb(80,0,255)" stroke-width="2" fill="none"></circle>
<circle cx="2647.5" cy="1358.6" r="4" stroke="rgb(255,34,0)" stroke-width="2" fill="none"></circle>
<circle cx="6296.26" cy="1260.82" r="4" stroke="rgb(255,34,0)" stroke-width="2" fill="none"></circle>
<circle cx="2455.61" cy="1358.87" r="4" stroke="rgb(63,0,255)" stroke-width="2" fill="none"></circle>
<circle cx="5933.11" cy="1742.62" r="4" stroke="rgb(63,0,255)" stroke-width="2" fill="none"></circle>
<circle cx="1353.45" cy="1372.05" r="4" stroke="rgb(0,153,255)" stroke-width="2" fill="none"></circle>
<circle cx="6536.21" cy="1138.39" r="4" stroke="rgb(0,153,255)" stroke-width="2" fill="none"></circle>
<circle cx="1347.3" cy="1377.75" r="4" stroke="rgb(0,255,89)" stroke-width="2" fill="none"></circle>
<circle cx="6799.35" cy="1136.24" r="4" stroke="rgb(0,255,89)" stroke-width="2" fill="none"></circle>
<circle cx="1094.41" cy="1384.71" r="4" stroke="rgb(255,0,12)" stroke-width="2" fill="none"></circle>
<circle cx="6385.93" cy="1597.78" r="4" stroke="rgb(255,0,12)" stroke-width="2" fill="none"></circle>
<circle cx="1985.35" cy="1399.94" r="4" stroke="rgb(255,0,97)" stroke-width="2" fill="none"></circle>
<circle cx="6543.62" cy="874.446" r="4" stroke="rgb(255,0,97)" stroke-width="2" fill="none"></circle>
<circle cx="1148.88" cy="1431.76" r="4" stroke="rgb(182,0,255)" stroke-width="2" fill="none"></circle>
<circle cx="5752.03" cy="428.275" r="4" stroke="rgb(182,0,255)" stroke-width="2" fill="none"></circle>
<circle cx="1278.88" cy="1432.45" r="4" stroke="rgb(8,255,0)" stroke-width="2" fill="none"></circle>
<circle cx="6196.82" cy="1191.03" r="4" stroke="rgb(8,255,0)" stroke-width="2" fill="none"></circle>
<circle cx="2381.6" cy="1433.37" r="4" stroke="rgb(135,255,0)" stroke-width="2" fill="none"></circle>
<circle cx="5849.8" cy="1605.79" r="4" stroke="rgb(135,255,0)" stroke-width="2" fill="none"></circle>
<circle cx="1204.2" cy="1435.84" r="4" stroke="rgb(0,255,97)" stroke-width="2" fill="none"></circle>
<circle cx="5428.07" cy="304.233" r="4" stroke="rgb(0,255,97)" stroke-width="2" fill="none"></circle>
<circle cx="1492.84" cy="1458.24" r="4" stroke="rgb(72,255,0)" stroke-width="2" fill="none"></circle>
<circle cx="6725.07" cy="914.952" r="4" stroke="rgb(72,255,0)" stroke-width="2" fill="none"></circle>
<circle cx="1548.62" cy="1470.6" r="4" stroke="rgb(255,8,0)" stroke-width="2" fill="none"></circle>
<circle cx="5896.26" cy="1551.44" r="4" stroke="rgb(255,8,0)" stroke-width="2" fill="none"></circle>
<circle cx="2648.57" cy="1473.93" r="4" stroke="rgb(0,80,255)" stroke-width="2" fill="none"></circle>
<circle cx="6108.99" cy="921.193" r="4" stroke="rgb(0,80,255)" stroke-width="2" fill="none"></circle>
<circle cx="1533.79" cy="1476" r="4" stroke="rgb(0,255,186)" stroke-width="2" fill="none"></circle>
<circle cx="5826.91" cy="1690.26" r="4" stroke="rgb(0,255,186)" stroke-width="2" fill="none"></circle>
<circle cx="2613.17" cy="1487.51" r="4" stroke="rgb(0,38,255)" stroke-width="2" fill="none"></circle>
<circle cx="5974.07" cy="881.76" r="4" stroke="rgb(0,38,255)" stroke-width="2" fill="none"></circle>
<circle cx="1513.07" cy="1491.36" r="4" stroke="rgb(255,0,59)" stroke-width="2" fill="none"></circle>
<circle cx="5904.5" cy="1526.11" r="4" stroke="rgb(255,0,59)" stroke-width="2" fill="none"></circle>
<circle cx="1465.56" cy="1503.18" r="4" stroke="rgb(101,255,0)" stroke-width="2" fill="none"></circle>
<circle cx="6693.95" cy="1446.53" r="4" stroke="rgb(101,255,0)" stroke-width="2" fill="none"></circle>
<circle cx="1330.87" cy="1519" r="4" stroke="rgb(0,255,46)" stroke-width="2" fill="none"></circle>
<circle cx="5471.22" cy="619.32" r="4" stroke="rgb(0,255,46)" stroke-width="2" fill="none"></circle>
<circle cx="1183.4" cy="1523.62" r="4" stroke="rgb(255,0,140)" stroke-width="2" fill="none"></circle>
<circle cx="5667.5" cy="754.847" r="4" stroke="rgb(255,0,140)" stroke-width="2" fill="none"></circle>
<circle cx="1209.98" cy="1523.79" r="4" stroke="rgb(255,51,0)" stroke-width="2" fill="none"></circle>
<circle cx="5900.12" cy="1004.45" r="4" stroke="rgb(255,51,0)" stroke-width="2" fill="none"></circle>
<circle cx="2599.94" cy="1524.01" r="4" stroke="rgb(0,93,255)" stroke-width="2" fill="none"></circle>
<circle cx="6843.94" cy="1773.15" r="4" stroke="rgb(0,93,255)" stroke-width="2" fill="none"></circle>
<circle cx="1099.23" cy="1524.68" r="4" stroke="rgb(255,0,89)" stroke-width="2" fill="none"></circle>
<circle cx="5931.41" cy="1002.78" r="4" stroke="rgb(255,0,89)" stroke-width="2" fill="none"></circle>
<circle cx="1406.77" cy="1528.63" r="4" stroke="rgb(97,0,255)" stroke-width="2" fill="none"></circle>
<circle cx="6497.23" cy="895.666" r="4" stroke="rgb(97,0,255)" stroke-width="2" fill="none"></circle>
<circle cx="1125.19" cy="1541.33" r="4" stroke="rgb(0,46,255)" stroke-width="2" fill="none"></circle>
<circle cx="5771.14" cy="1002.02" r="4" stroke="rgb(0,46,255)" stroke-width="2" fill="none"></circle>
<circle cx="2629.31" cy="1551.13" r="4" stroke="rgb(0,255,12)" stroke-width="2" fill="none"></circle>
<circle cx="6218.1" cy="1098.57" r="4" stroke="rgb(0,255,12)" stroke-width="2" fill="none"></circle>
<circle cx="2591.62" cy="1551.16" r="4" stroke="rgb(72,255,0)" stroke-width="2" fill="none"></circle>
<circle cx="6097.73" cy="695.556" r="4" stroke="rgb(72,255,0)" stroke-width="2" fill="none"></circle>
<circle cx="2347.68" cy="1561.43" r="4" stroke="rgb(0,174,255)" stroke-width="2" fill="none"></circle>
<circle cx="5555.85" cy="1289.28" r="4" stroke="rgb(0,174,255)" stroke-width="2" fill="none"></circle>
<circle cx="1158.52" cy="1580.39" r="4" stroke="rgb(255,123,0)" stroke-width="2" fill="none"></circle>
<circle cx="6186" cy="1293.81" r="4" stroke="rgb(255,123,0)" stroke-width="2" fill="none"></circle>
<circle cx="1436.88" cy="1584.16" r="4" stroke="rgb(0,144,255)" stroke-width="2" fill="none"></circle>
<circle cx="6675.81" cy="1309.39" r="4" stroke="rgb(0,144,255)" stroke-width="2" fill="none"></circle>
<circle cx="1011.19" cy="1591.78" r="4" stroke="rgb(0,148,255)" stroke-width="2" fill="none"></circle>
<circle cx="5719.17" cy="335.759" r="4" stroke="rgb(0,148,255)" stroke-width="2" fill="none"></circle>
<circle cx="1265.9" cy="1605.07" r="4" stroke="rgb(0,255,174)" stroke-width="2" fill="none"></circle>
<circle cx="5820.16" cy="1126.26" r="4" stroke="rgb(0,255,174)" stroke-width="2" fill="none"></circle>
<circle cx="946.309" cy="1686.58" r="4" stroke="rgb(144,255,0)" stroke-width="2" fill="none"></circle>
<circle cx="6019.68" cy="825.54" r="4" stroke="rgb(144,255,0)" stroke-width="2" fill="none"></circle>
<circle cx="1315.21" cy="1687.36" r="4" stroke="rgb(84,255,0)" stroke-width="2" fill="none"></circle>
<circle cx="7024.31" cy="1223.39" r="4" stroke="rgb(84,255,0)" stroke-width="2" fill="none"></circle>
<circle cx="2357.89" cy="1700.84" r="4" stroke="rgb(255,21,0)" stroke-width="2" fill="none"></circle>
<circle cx="6768.83" cy="1524.7" r="4" stroke="rgb(255,21,0)" stroke-width="2" fill="none"></circle>
<circle cx="2381.18" cy="1707.02" r="4" stroke="rgb(0,51,255)" stroke-width="2" fill="none"></circle>
<circle cx="5924.5" cy="1520.96" r="4" stroke="rgb(0,51,255)" stroke-width="2" fill="none"></circle>
<circle cx="1714.51" cy="1723.83" r="4" stroke="rgb(97,255,0)" stroke-width="2" fill="none"></circle>
<circle cx="5350.92" cy="897.009" r="4" stroke="rgb(97,255,0)" stroke-width="2" fill="none"></circle>
<circle cx="995.429" cy="1727.15" r="4" stroke="rgb(0,106,255)" stroke-width="2" fill="none"></circle>
<circle cx="5738.17" cy="1581.52" r="4" stroke="rgb(0,106,255)" stroke-width="2" fill="none"></circle>
<circle cx="2473.99" cy="1733" r="4" stroke="rgb(255,97,0)" stroke-width="2" fill="none"></circle>
<circle cx="6621.13" cy="977.746" r="4" stroke="rgb(255,97,0)" stroke-width="2" fill="none"></circle>
<circle cx="2408.84" cy="1795.04" r="4" stroke="rgb(135,255,0)" stroke-width="2" fill="none"></circle>
<circle cx="5606.2" cy="1237.64" r="4" stroke="rgb(135,255,0)" stroke-width="2" fill="none"></circle>
<circle cx="2514.3" cy="1806.06" r="4" stroke="rgb(255,0,242)" stroke-width="2" fill="none"></circle>
<circle cx="6675.56" cy="987.049" r="4" stroke="rgb(255,0,242)" stroke-width="2" fill="none"></circle>
<circle cx="803.99" cy="1824.06" r="4" stroke="rgb(0,255,195)" stroke-width="2" fill="none"></circle>
<circle cx="5769.12" cy="1317.34" r="4" stroke="rgb(0,255,195)" stroke-width="2" fill="none"></circle>
<circle cx="770.727" cy="1824.93" r="4" stroke="rgb(242,255,0)" stroke-width="2" fill="none"></circle>
<circle cx="6026.01" cy="1191.73" r="4" stroke="rgb(242,255,0)" stroke-width="2" fill="none"></circle>
<circle cx="2459.28" cy="1840.25" r="4" stroke="rgb(255,0,233)" stroke-width="2" fill="none"></circle>
<circle cx="6281.22" cy="1205.39" r="4" stroke="rgb(255,0,233)" stroke-width="2" fill="none"></circle>
<circle cx="2530.07" cy="1849.94" r="4" stroke="rgb(80,0,255)" stroke-width="2" fill="none"></circle>
<circle cx="6270.8" cy="996.891" r="4" stroke="rgb(80,0,255)" stroke-width="2" fill="none"></circle>
<circle cx="731.258" cy="1859.43" r="4" stroke="rgb(0,55,255)" stroke-width="2" fill="none"></circle>
<circle cx="5783.69" cy="490.634" r="4" stroke="rgb(0,55,255)" stroke-width="2" fill="none"></circle>
<circle cx="2388.95" cy="1861.5" r="4" stroke="rgb(0,255,237)" stroke-width="2" fill="none"></circle>
<circle cx="5985.17" cy="763.622" r="4" stroke="rgb(0,255,237)" stroke-width="2" fill="none"></circle>
<circle cx="1187.44" cy="1870.85" r="4" stroke="rgb(25,0,255)" stroke-width="2" fill="none"></circle>
<circle cx="6622.38" cy="887.906" r="4" stroke="rgb(25,0,255)" stroke-width="2" fill="none"></circle>
<circle cx="733.377" cy="1872.84" r="4" stroke="rgb(0,191,255)" stroke-width="2" fill="none"></circle>
<circle cx="5805.02" cy="533.945" r="4" stroke="rgb(0,191,255)" stroke-width="2" fill="none"></circle>
<circle cx="2484.93" cy="1882.59" r="4" stroke="rgb(0,255,250)" stroke-width="2" fill="none"></circle>
<circle cx="6501.95" cy="662.292" r="4" stroke="rgb(0,255,250)" stroke-width="2" fill="none"></circle>
<circle cx="1732.47" cy="1909.51" r="4" stroke="rgb(148,255,0)" stroke-width="2" fill="none"></circle>
<circle cx="6030.45" cy="2262.98" r="4" stroke="rgb(148,255,0)" stroke-width="2" fill="none"></circle>
<circle cx="2275.43" cy="1964.12" r="4" stroke="rgb(174,255,0)" stroke-width="2" fill="none"></circle>
<circle cx="6028.53" cy="890.099" r="4" stroke="rgb(174,255,0)" stroke-width="2" fill="none"></circle>
<circle cx="956.945" cy="1969.48" r="4" stroke="rgb(255,161,0)" stroke-width="2" fill="none"></circle>
<circle cx="6152.34" cy="1643.98" r="4" stroke="rgb(255,161,0)" stroke-width="2" fill="none"></circle>
<circle cx="2340.48" cy="1986.94" r="4" stroke="rgb(237,255,0)" stroke-width="2" fill="none"></circle>
<circle cx="6101.65" cy="1069.57" r="4" stroke="rgb(237,255,0)" stroke-width="2" fill="none"></circle>
<circle cx="2224.66" cy="1988.98" r="4" stroke="rgb(0,106,255)" stroke-width="2" fill="none"></circle>
<circle cx="6319.9" cy="709.774" r="4" stroke="rgb(0,106,255)" stroke-width="2" fill="none"></circle>
<circle cx="2129.36" cy="2028.87" r="4" stroke="rgb(0,255,80)" stroke-width="2" fill="none"></circle>
<circle cx="5737.94" cy="330.775" r="4" stroke="rgb(0,255,80)" stroke-width="2" fill="none"></circle>
<circle cx="872.931" cy="2030.01" r="4" stroke="rgb(0,225,255)" stroke-width="2" fill="none"></circle>
<circle cx="6986.58" cy="1907.3" r="4" stroke="rgb(0,225,255)" stroke-width="2" fill="none"></circle>
<circle cx="2245.58" cy="2030.58" r="4" stroke="rgb(255,0,178)" stroke-width="2" fill="none"></circle>
<circle cx="6648.3" cy="1491.51" r="4" stroke="rgb(255,0,178)" stroke-width="2" fill="none"></circle>
<circle cx="1739.9" cy="2032.8" r="4" stroke="rgb(255,0,93)" stroke-width="2" fill="none"></circle>
<circle cx="6829.52" cy="1399.44" r="4" stroke="rgb(255,0,93)" stroke-width="2" fill="none"></circle>
<circle cx="1056.9" cy="2034.99" r="4" stroke="rgb(131,255,0)" stroke-width="2" fill="none"></circle>
<circle cx="6449.32" cy="1016" r="4" stroke="rgb(131,255,0)" stroke-width="2" fill="none"></circle>
<circle cx="618.053" cy="2038.18" r="4" stroke="rgb(255,153,0)" stroke-width="2" fill="none"></circle>
<circle cx="6348" cy="569.035" r="4" stroke="rgb(255,153,0)" stroke-width="2" fill="none"></circle>
<circle cx="2100.02" cy="2044.14" r="4" stroke="rgb(255,233,0)" stroke-width="2" fill="none"></circle>
<circle cx="6575.79" cy="837.185" r="4" stroke="rgb(255,233,0)" stroke-width="2" fill="none"></circle>
<circle cx="2146.28" cy="2050.57" r="4" stroke="rgb(42,0,255)" stroke-width="2" fill="none"></circle>
<circle cx="6584.59" cy="1331.27" r="4" stroke="rgb(42,0,255)" stroke-width="2" fill="none"></circle>
<circle cx="964.36" cy="2070.84" r="4" stroke="rgb(0,255,12)" stroke-width="2" fill="none"></circle>
<circle cx="5868.4" cy="371.451" r="4" stroke="rgb(0,255,12)" stroke-width="2" fill="none"></circle>
<circle cx="1302.41" cy="2075.36" r="4" stroke="rgb(0,255,152)" stroke-width="2" fill="none"></circle>
<circle cx="5829.93" cy="1130.62" r="4" stroke="rgb(0,255,152)" stroke-width="2" fill="none"></circle>
<circle cx="1005.79" cy="2083.25" r="4" stroke="rgb(63,0,255)" stroke-width="2" fill="none"></circle>
<circle cx="6801.98" cy="1112.92" r="4" stroke="rgb(63,0,255)" stroke-width="2" fill="none"></circle>
<circle cx="1052.42" cy="2121.57" r="4" stroke="rgb(255,0,38)" stroke-width="2" fill="none"></circle>
<circle cx="6822.35" cy="1374.31" r="4" stroke="rgb(255,0,38)" stroke-width="2" fill="none"></circle>
<circle cx="916.602" cy="2139.03" r="4" stroke="rgb(0,255,21)" stroke-width="2" fill="none"></circle>
<circle cx="5295.01" cy="475.191" r="4" stroke="rgb(0,255,21)" stroke-width="2" fill="none"></circle>
<circle cx="1031.14" cy="2155.5" r="4" stroke="rgb(255,0,76)" stroke-width="2" fill="none"></circle>
<circle cx="5641.39" cy="1222.21" r="4" stroke="rgb(255,0,76)" stroke-width="2" fill="none"></circle>
<circle cx="1008.66" cy="2193.68" r="4" stroke="rgb(255,59,0)" stroke-width="2" fill="none"></circle>
<circle cx="5755.85" cy="653.081" r="4" stroke="rgb(255,59,0)" stroke-width="2" fill="none"></circle>
</svg>