<?xml version="1.0" standalone="yes"?>
<!-- SVG graphic -->
<svg xmlns='http://www.w3.org/2000/svg' xmlns:xlink='http://www.w3.org/1999/xlink'
width="8064px" height="3024px" preserveAspectRatio="xMinYMin meet" viewBox="0 0 8064 3024" version="1.1">
<image x="0" y="0" width="4032px" height="3024px" opacity="1" xlink:href="/home/jeong/Code/2D-to-3D-Modeling-using-AI/Make3D/Image/20200227_180653.jpg"/>
<image x="4032" y="0" width="4032px" height="3024px" opacity="1" xlink:href="/home/jeong/Code/2D-to-3D-Modeling-using-AI/Make3D/Image/20200227_180730.jpg"/>
<polyline points="1099.23,1524.68,5778.97,396.155" stroke="rgb(144,255,0)" stroke-width="2" fill="none"></polyline>
<polyline points="654.738,1900.85,6476.38,1051.63" stroke="rgb(255,42,0)" stroke-width="2" fill="none"></polyline>
<polyline points="1328.08,838.445,6568.68,2292.87" stroke="rgb(178,0,255)" stroke-width="2" fill="none"></polyline>
<polyline points="2202.54,2024.75,5455.61,1071.28" stroke="rgb(255,0,85)" stroke-width="2" fill="none"></polyline>
<polyline points="1732.47,1909.51,6016.65,2390.06" stroke="rgb(255,0,29)" stroke-width="2" fill="none"></polyline>
<polyline points="1183.4,1523.62,5936.12,1187.76" stroke="rgb(225,0,255)" stroke-width="2" fill="none"></polyline>
<polyline points="1166.32,1907.84,5380.66,729.107" stroke="rgb(25,255,0)" stroke-width="2" fill="none"></polyline>
<polyline points="2154.35,2050.6,6396.67,1155.42" stroke="rgb(144,255,0)" stroke-width="2" fill="none"></polyline>
<polyline points="1249.29,1616.79,6032.99,779" stroke="rgb(255,131,0)" stroke-width="2" fill="none"></polyline>
<polyline points="976.928,1168,6716.52,1240.14" stroke="rgb(255,34,0)" stroke-width="2" fill="none"></polyline>
<polyline points="1288.24,2017.8,5990.01,886.4" stroke="rgb(255,0,4)" stroke-width="2" fill="none"></polyline>
<polyline points="2200.02,1850.94,6177.69,1008.02" stroke="rgb(246,0,255)" stroke-width="2" fill="none"></polyline>
<polyline points="2591.62,1551.16,6073.89,1561.85" stroke="rgb(0,255,165)" stroke-width="2" fill="none"></polyline>
<polyline points="1345.96,1989.48,6005.95,1152.55" stroke="rgb(0,255,246)" stroke-width="2" fill="none"></polyline>
<polyline points="2145.46,1149.99,6601.92,1651.68" stroke="rgb(0,255,246)" stroke-width="2" fill="none"></polyline>
<polyline points="2600.88,1377.86,6142.86,1643.51" stroke="rgb(51,255,0)" stroke-width="2" fill="none"></polyline>
<polyline points="1183.4,1523.62,6194.7,1710.53" stroke="rgb(0,255,199)" stroke-width="2" fill="none"></polyline>
<polyline points="1455.68,1545.36,5905.09,1859.21" stroke="rgb(255,93,0)" stroke-width="2" fill="none"></polyline>
<polyline points="1315.21,1687.36,7022.36,1450.4" stroke="rgb(102,0,255)" stroke-width="2" fill="none"></polyline>
<polyline points="2619.57,1372.62,6392.03,1453.55" stroke="rgb(42,0,255)" stroke-width="2" fill="none"></polyline>
<polyline points="2619.57,1372.62,6392.03,1453.55" stroke="rgb(255,187,0)" stroke-width="2" fill="none"></polyline>
<polyline points="1494.78,1173.81,5988.41,1481.37" stroke="rgb(0,255,42)" stroke-width="2" fill="none"></polyline>
<polyline points="1533.79,1476,5819.39,1658.89" stroke="rgb(0,21,255)" stroke-width="2" fill="none"></polyline>
<polyline points="1183.4,1523.62,6177.93,1700.55" stroke="rgb(255,46,0)" stroke-width="2" fill="none"></polyline>
<polyline points="1069.18,1509.1,5958.7,1927.31" stroke="rgb(123,0,255)" stroke-width="2" fill="none"></polyline>
<polyline points="1975.45,1963.49,5410.88,504.026" stroke="rgb(55,255,0)" stroke-width="2" fill="none"></polyline>
<polyline points="2613.17,1487.51,5937.86,692.077" stroke="rgb(0,216,255)" stroke-width="2" fill="none"></polyline>
<polyline points="1023.42,1080.65,5515.37,521.436" stroke="rgb(0,255,195)" stroke-width="2" fill="none"></polyline>
<polyline points="1842.81,2075.48,6796.41,1457.85" stroke="rgb(255,72,0)" stroke-width="2" fill="none"></polyline>
<polyline points="1964.94,1355.26,5863.04,1620.09" stroke="rgb(255,0,199)" stroke-width="2" fill="none"></polyline>
<polyline points="1964.94,1355.26,5863.04,1620.09" stroke="rgb(0,255,237)" stroke-width="2" fill="none"></polyline>
<polyline points="1099.23,1524.68,5828.71,967.817" stroke="rgb(255,0,101)" stroke-width="2" fill="none"></polyline>
<polyline points="2613.17,1487.51,6111.66,1046.34" stroke="rgb(0,187,255)" stroke-width="2" fill="none"></polyline>
<polyline points="1094.41,1384.71,6413.68,1809.67" stroke="rgb(255,0,127)" stroke-width="2" fill="none"></polyline>
<polyline points="770.727,1824.93,6127.48,1336.42" stroke="rgb(255,0,187)" stroke-width="2" fill="none"></polyline>
<polyline points="1204.2,1435.84,6307.95,1834.08" stroke="rgb(0,216,255)" stroke-width="2" fill="none"></polyline>
<polyline points="813.257,1826.1,6558.32,2038.49" stroke="rgb(0,255,67)" stroke-width="2" fill="none"></polyline>
<polyline points="2859.62,1250.3,6761.99,2121.57" stroke="rgb(255,0,246)" stroke-width="2" fill="none"></polyline>
<polyline points="686.126,1916.03,6618.13,1123.01" stroke="rgb(0,255,114)" stroke-width="2" fill="none"></polyline>
<polyline points="1325.7,2003.9,5993.12,2320.73" stroke="rgb(0,255,199)" stroke-width="2" fill="none"></polyline>
<circle cx="1099.23" cy="1524.68" r="4" stroke="rgb(144,255,0)" stroke-width="2" fill="none"></circle>
<circle cx="5778.97" cy="396.155" r="4" stroke="rgb(144,255,0)" stroke-width="2" fill="none"></circle>
<circle cx="654.738" cy="1900.85" r="4" stroke="rgb(255,42,0)" stroke-width="2" fill="none"></circle>
<circle cx="6476.38" cy="1051.63" r="4" stroke="rgb(255,42,0)" stroke-width="2" fill="none"></circle>
<circle cx="1328.08" cy="838.445" r="4" stroke="rgb(178,0,255)" stroke-width="2" fill="none"></circle>
<circle cx="6568.68" cy="2292.87" r="4" stroke="rgb(178,0,255)" stroke-width="2" fill="none"></circle>
<circle cx="2202.54" cy="2024.75" r="4" stroke="rgb(255,0,85)" stroke-width="2" fill="none"></circle>
<circle cx="5455.61" cy="1071.28" r="4" stroke="rgb(255,0,85)" stroke-width="2" fill="none"></circle>
<circle cx="1732.47" cy="1909.51" r="4" stroke="rgb(255,0,29)" stroke-width="2" fill="none"></circle>
<circle cx="6016.65" cy="2390.06" r="4" stroke="rgb(255,0,29)" stroke-width="2" fill="none"></circle>
<circle cx="1183.4" cy="1523.62" r="4" stroke="rgb(225,0,255)" stroke-width="2" fill="none"></circle>
<circle cx="5936.12" cy="1187.76" r="4" stroke="rgb(225,0,255)" stroke-width="2" fill="none"></circle>
<circle cx="1166.32" cy="1907.84" r="4" stroke="rgb(25,255,0)" stroke-width="2" fill="none"></circle>
<circle cx="5380.66" cy="729.107" r="4" stroke="rgb(25,255,0)" stroke-width="2" fill="none"></circle>
<circle cx="2154.35" cy="2050.6" r="4" stroke="rgb(144,255,0)" stroke-width="2" fill="none"></circle>
<circle cx="6396.67" cy="1155.42" r="4" stroke="rgb(144,255,0)" stroke-width="2" fill="none"></circle>
<circle cx="1249.29" cy="1616.79" r="4" stroke="rgb(255,131,0)" stroke-width="2" fill="none"></circle>
<circle cx="6032.99" cy="779" r="4" stroke="rgb(255,131,0)" stroke-width="2" fill="none"></circle>
<circle cx="976.928" cy="1168" r="4" stroke="rgb(255,34,0)" stroke-width="2" fill="none"></circle>
<circle cx="6716.52" cy="1240.14" r="4" stroke="rgb(255,34,0)" stroke-width="2" fill="none"></circle>
<circle cx="1288.24" cy="2017.8" r="4" stroke="rgb(255,0,4)" stroke-width="2" fill="none"></circle>
<circle cx="5990.01" cy="886.4" r="4" stroke="rgb(255,0,4)" stroke-width="2" fill="none"></circle>
<circle cx="2200.02" cy="1850.94" r="4" stroke="rgb(246,0,255)" stroke-width="2" fill="none"></circle>
<circle cx="6177.69" cy="1008.02" r="4" stroke="rgb(246,0,255)" stroke-width="2" fill="none"></circle>
<circle cx="2591.62" cy="1551.16" r="4" stroke="rgb(0,255,165)" stroke-width="2" fill="none"></circle>
<circle cx="6073.89" cy="1561.85" r="4" stroke="rgb(0,255,165)" stroke-width="2" fill="none"></circle>
<circle cx="1345.96" cy="1989.48" r="4" stroke="rgb(0,255,246)" stroke-width="2" fill="none"></circle>
<circle cx="6005.95" cy="1152.55" r="4" stroke="rgb(0,255,246)" stroke-width="2" fill="none"></circle>
<circle cx="2145.46" cy="1149.99" r="4" stroke="rgb(0,255,246)" stroke-width="2" fill="none"></circle>
<circle cx="6601.92" cy="1651.68" r="4" stroke="rgb(0,255,246)" stroke-width="2" fill="none"></circle>
<circle cx="2600.88" cy="1377.86" r="4" stroke="rgb(51,255,0)" stroke-width="2" fill="none"></circle>
<circle cx="6142.86" cy="1643.51" r="4" stroke="rgb(51,255,0)" stroke-width="2" fill="none"></circle>
<circle cx="1183.4" cy="1523.62" r="4" stroke="rgb(0,255,199)" stroke-width="2" fill="none"></circle>
<circle cx="6194.7" cy="1710.53" r="4" stroke="rgb(0,255,199)" stroke-width="2" fill="none"></circle>
<circle cx="1455.68" cy="1545.36" r="4" stroke="rgb(255,93,0)" stroke-width="2" fill="none"></circle>
<circle cx="5905.09" cy="1859.21" r="4" stroke="rgb(255,93,0)" stroke-width="2" fill="none"></circle>
<circle cx="1315.21" cy="1687.36" r="4" stroke="rgb(102,0,255)" stroke-width="2" fill="none"></circle>
<circle cx="7022.36" cy="1450.4" r="4" stroke="rgb(102,0,255)" stroke-width="2" fill="none"></circle>
<circle cx="2619.57" cy="1372.62" r="4" stroke="rgb(42,0,255)" stroke-width="2" fill="none"></circle>
<circle cx="6392.03" cy="1453.55" r="4" stroke="rgb(42,0,255)" stroke-width="2" fill="none"></circle>
<circle cx="2619.57" cy="1372.62" r="4" stroke="rgb(255,187,0)" stroke-width="2" fill="none"></circle>
<circle cx="6392.03" cy="1453.55" r="4" stroke="rgb(255,187,0)" stroke-width="2" fill="none"></circle>
<circle cx="1494.78" cy="1173.81" r="4" stroke="rgb(0,255,42)" stroke-width="2" fill="none"></circle>
<circle cx="5988.41" cy="1481.37" r="4" stroke="rgb(0,255,42)" stroke-width="2" fill="none"></circle>
<circle cx="1533.79" cy="1476" r="4" stroke="rgb(0,21,255)" stroke-width="2" fill="none"></circle>
<circle cx="5819.39" cy="1658.89" r="4" stroke="rgb(0,21,255)" stroke-width="2" fill="none"></circle>
<circle cx="1183.4" cy="1523.62" r="4" stroke="rgb(255,46,0)" stroke-width="2" fill="none"></circle>
<circle cx="6177.93" cy="1700.55" r="4" stroke="rgb(255,46,0)" stroke-width="2" fill="none"></circle>
<circle cx="1069.18" cy="1509.1" r="4" stroke="rgb(123,0,255)" stroke-width="2" fill="none"></circle>
<circle cx="5958.7" cy="1927.31" r="4" stroke="rgb(123,0,255)" stroke-width="2" fill="none"></circle>
<circle cx="1975.45" cy="1963.49" r="4" stroke="rgb(55,255,0)" stroke-width="2" fill="none"></circle>
<circle cx="5410.88" cy="504.026" r="4" stroke="rgb(55,255,0)" stroke-width="2" fill="none"></circle>
<circle cx="2613.17" cy="1487.51" r="4" stroke="rgb(0,216,255)" stroke-width="2" fill="none"></circle>
<circle cx="5937.86" cy="692.077" r="4" stroke="rgb(0,216,255)" stroke-width="2" fill="none"></circle>
<circle cx="1023.42" cy="1080.65" r="4" stroke="rgb(0,255,195)" stroke-width="2" fill="none"></circle>
<circle cx="5515.37" cy="521.436" r="4" stroke="rgb(0,255,195)" stroke-width="2" fill="none"></circle>
<circle cx="1842.81" cy="2075.48" r="4" stroke="rgb(255,72,0)" stroke-width="2" fill="none"></circle>
<circle cx="6796.41" cy="1457.85" r="4" stroke="rgb(255,72,0)" stroke-width="2" fill="none"></circle>
<circle cx="1964.94" cy="1355.26" r="4" stroke="rgb(255,0,199)" stroke-width="2" fill="none"></circle>
<circle cx="5863.04" cy="1620.09" r="4" stroke="rgb(255,0,199)" stroke-width="2" fill="none"></circle>
<circle cx="1964.94" cy="1355.26" r="4" stroke="rgb(0,255,237)" stroke-width="2" fill="none"></circle>
<circle cx="5863.04" cy="1620.09" r="4" stroke="rgb(0,255,237)" stroke-width="2" fill="none"></circle>
<circle cx="1099.23" cy="1524.68" r="4" stroke="rgb(255,0,101)" stroke-width="2" fill="none"></circle>
<circle cx="5828.71" cy="967.817" r="4" stroke="rgb(255,0,101)" stroke-width="2" fill="none"></circle>
<circle cx="2613.17" cy="1487.51" r="4" stroke="rgb(0,187,255)" stroke-width="2" fill="none"></circle>
<circle cx="6111.66" cy="1046.34" r="4" stroke="rgb(0,187,255)" stroke-width="2" fill="none"></circle>
<circle cx="1094.41" cy="1384.71" r="4" stroke="rgb(255,0,127)" stroke-width="2" fill="none"></circle>
<circle cx="6413.68" cy="1809.67" r="4" stroke="rgb(255,0,127)" stroke-width="2" fill="none"></circle>
<circle cx="770.727" cy="1824.93" r="4" stroke="rgb(255,0,187)" stroke-width="2" fill="none"></circle>
<circle cx="6127.48" cy="1336.42" r="4" stroke="rgb(255,0,187)" stroke-width="2" fill="none"></circle>
<circle cx="1204.2" cy="1435.84" r="4" stroke="rgb(0,216,255)" stroke-width="2" fill="none"></circle>
<circle cx="6307.95" cy="1834.08" r="4" stroke="rgb(0,216,255)" stroke-width="2" fill="none"></circle>
<circle cx="813.257" cy="1826.1" r="4" stroke="rgb(0,255,67)" stroke-width="2" fill="none"></circle>
<circle cx="6558.32" cy="2038.49" r="4" stroke="rgb(0,255,67)" stroke-width="2" fill="none"></circle>
<circle cx="2859.62" cy="1250.3" r="4" stroke="rgb(255,0,246)" stroke-width="2" fill="none"></circle>
<circle cx="6761.99" cy="2121.57" r="4" stroke="rgb(255,0,246)" stroke-width="2" fill="none"></circle>
<circle cx="686.126" cy="1916.03" r="4" stroke="rgb(0,255,114)" stroke-width="2" fill="none"></circle>
<circle cx="6618.13" cy="1123.01" r="4" stroke="rgb(0,255,114)" stroke-width="2" fill="none"></circle>
<circle cx="1325.7" cy="2003.9" r="4" stroke="rgb(0,255,199)" stroke-width="2" fill="none"></circle>
<circle cx="5993.12" cy="2320.73" r="4" stroke="rgb(0,255,199)" stroke-width="2" fill="none"></circle>
</svg>