<?xml version="1.0" standalone="yes"?>
<!-- SVG graphic -->
<svg xmlns='http://www.w3.org/2000/svg' xmlns:xlink='http://www.w3.org/1999/xlink'
width="8064px" height="3024px" preserveAspectRatio="xMinYMin meet" viewBox="0 0 8064 3024" version="1.1">
<image x="0" y="0" width="4032px" height="3024px" opacity="1" xlink:href="/home/jeong/Code/2D-to-3D-Modeling-using-AI/Make3D/Image/20200227_180653.jpg"/>
<image x="4032" y="0" width="4032px" height="3024px" opacity="1" xlink:href="/home/jeong/Code/2D-to-3D-Modeling-using-AI/Make3D/Image/20200227_180731.jpg"/>
<polyline points="1324.18,706.812,6789.13,2127.9" stroke="rgb(195,255,0)" stroke-width="2" fill="none"></polyline>
<polyline points="2103.8,738.164,5493.08,656.473" stroke="rgb(255,233,0)" stroke-width="2" fill="none"></polyline>
<polyline points="2264.57,820.055,6819.69,1705.84" stroke="rgb(255,216,0)" stroke-width="2" fill="none"></polyline>
<polyline points="2843.28,884.143,5973.34,1477.17" stroke="rgb(0,169,255)" stroke-width="2" fill="none"></polyline>
<polyline points="1937.38,987.521,5739.95,2434.42" stroke="rgb(255,199,0)" stroke-width="2" fill="none"></polyline>
<polyline points="2228.1,1034.45,5420.84,767.18" stroke="rgb(255,0,195)" stroke-width="2" fill="none"></polyline>
<polyline points="978.64,1066.18,5771.06,1179.59" stroke="rgb(0,255,46)" stroke-width="2" fill="none"></polyline>
<polyline points="1846.04,1125.13,6079.55,634.048" stroke="rgb(0,135,255)" stroke-width="2" fill="none"></polyline>
<polyline points="1523.12,1138.64,6296.29,772.494" stroke="rgb(0,255,216)" stroke-width="2" fill="none"></polyline>
<polyline points="2007.1,1163.78,5941.09,1883.49" stroke="rgb(187,255,0)" stroke-width="2" fill="none"></polyline>
<polyline points="1897.56,1178.49,5918.24,1841.84" stroke="rgb(51,255,0)" stroke-width="2" fill="none"></polyline>
<polyline points="2628.54,1181.19,5708.36,1549.26" stroke="rgb(255,0,114)" stroke-width="2" fill="none"></polyline>
<polyline points="1628.62,1253.97,5728.8,554.894" stroke="rgb(255,0,199)" stroke-width="2" fill="none"></polyline>
<polyline points="2296.87,1258.26,6812.71,1574.93" stroke="rgb(199,255,0)" stroke-width="2" fill="none"></polyline>
<polyline points="1636.42,1275.73,6632.86,1804.78" stroke="rgb(216,0,255)" stroke-width="2" fill="none"></polyline>
<polyline points="1573.78,1279.1,6390.48,912.971" stroke="rgb(255,0,148)" stroke-width="2" fill="none"></polyline>
<polyline points="1609.2,1289.06,5882.55,1885.96" stroke="rgb(0,255,46)" stroke-width="2" fill="none"></polyline>
<polyline points="985.405,1304.96,6515.87,1313.08" stroke="rgb(0,237,255)" stroke-width="2" fill="none"></polyline>
<polyline points="2397.27,1327.51,6779.69,2157.86" stroke="rgb(255,0,25)" stroke-width="2" fill="none"></polyline>
<polyline points="2621.81,1334.26,6308.54,1539.1" stroke="rgb(21,0,255)" stroke-width="2" fill="none"></polyline>
<polyline points="2622.01,1343.43,6318.91,1553.4" stroke="rgb(255,119,0)" stroke-width="2" fill="none"></polyline>
<polyline points="1511.74,1350.8,5923.12,1787.45" stroke="rgb(0,221,255)" stroke-width="2" fill="none"></polyline>
<polyline points="2411.89,1359.78,5853.04,1712.47" stroke="rgb(72,255,0)" stroke-width="2" fill="none"></polyline>
<polyline points="1353.45,1372.05,6590.56,1591.54" stroke="rgb(0,255,72)" stroke-width="2" fill="none"></polyline>
<polyline points="2619.57,1372.62,6370.21,1672.84" stroke="rgb(0,255,169)" stroke-width="2" fill="none"></polyline>
<polyline points="1504.6,1372.88,5880.86,2000.89" stroke="rgb(0,255,242)" stroke-width="2" fill="none"></polyline>
<polyline points="1347.3,1377.75,6866.55,1776.25" stroke="rgb(255,144,0)" stroke-width="2" fill="none"></polyline>
<polyline points="1094.41,1384.71,6555.53,1983.46" stroke="rgb(255,0,144)" stroke-width="2" fill="none"></polyline>
<polyline points="1433.37,1398.92,6625.91,1116.36" stroke="rgb(0,4,255)" stroke-width="2" fill="none"></polyline>
<polyline points="1148.88,1431.76,6040.71,738.492" stroke="rgb(255,0,174)" stroke-width="2" fill="none"></polyline>
<polyline points="1204.2,1435.84,5748.57,519.018" stroke="rgb(0,255,127)" stroke-width="2" fill="none"></polyline>
<polyline points="1239.16,1451.95,5740.48,501.678" stroke="rgb(0,233,255)" stroke-width="2" fill="none"></polyline>
<polyline points="2305.9,1459.04,6488.09,1239.51" stroke="rgb(25,0,255)" stroke-width="2" fill="none"></polyline>
<polyline points="1523.03,1467.35,5850.18,1728.34" stroke="rgb(199,255,0)" stroke-width="2" fill="none"></polyline>
<polyline points="2591.98,1468.92,6778.54,1267.52" stroke="rgb(255,106,0)" stroke-width="2" fill="none"></polyline>
<polyline points="2613.58,1471.59,6332.99,1503.21" stroke="rgb(225,0,255)" stroke-width="2" fill="none"></polyline>
<polyline points="2648.57,1473.93,6257.57,1313.84" stroke="rgb(255,119,0)" stroke-width="2" fill="none"></polyline>
<polyline points="1502.73,1479.79,5813.13,1784.29" stroke="rgb(255,123,0)" stroke-width="2" fill="none"></polyline>
<polyline points="2613.17,1487.51,6140.96,1234.33" stroke="rgb(255,59,0)" stroke-width="2" fill="none"></polyline>
<polyline points="1513.07,1491.36,5918.69,1773.28" stroke="rgb(208,255,0)" stroke-width="2" fill="none"></polyline>
<polyline points="1920.6,1502.46,5845.61,1779.45" stroke="rgb(255,0,97)" stroke-width="2" fill="none"></polyline>
<polyline points="2653.18,1503.01,6694.39,2150.76" stroke="rgb(255,0,25)" stroke-width="2" fill="none"></polyline>
<polyline points="2610.47,1512.2,6105.35,1139.83" stroke="rgb(255,191,0)" stroke-width="2" fill="none"></polyline>
<polyline points="1183.4,1523.62,6150.83,1929.13" stroke="rgb(0,255,178)" stroke-width="2" fill="none"></polyline>
<polyline points="1209.98,1523.79,5817.18,1280.91" stroke="rgb(221,255,0)" stroke-width="2" fill="none"></polyline>
<polyline points="1450.47,1527.28,5807.8,1819.1" stroke="rgb(0,135,255)" stroke-width="2" fill="none"></polyline>
<polyline points="1406.77,1528.63,6614.59,1355.82" stroke="rgb(0,255,29)" stroke-width="2" fill="none"></polyline>
<polyline points="1030.76,1534.83,5767.71,599.408" stroke="rgb(208,255,0)" stroke-width="2" fill="none"></polyline>
<polyline points="1125.19,1541.33,5950.78,1351.36" stroke="rgb(255,136,0)" stroke-width="2" fill="none"></polyline>
<polyline points="1455.68,1545.36,5857.16,2040.84" stroke="rgb(0,255,8)" stroke-width="2" fill="none"></polyline>
<polyline points="2629.31,1551.13,6011.84,998.158" stroke="rgb(255,0,187)" stroke-width="2" fill="none"></polyline>
<polyline points="1251.94,1553.4,6027.3,742.804" stroke="rgb(225,0,255)" stroke-width="2" fill="none"></polyline>
<polyline points="1470.96,1556.6,6769.4,1425.7" stroke="rgb(0,246,255)" stroke-width="2" fill="none"></polyline>
<polyline points="1239.74,1570.4,6515.34,1106.46" stroke="rgb(255,250,0)" stroke-width="2" fill="none"></polyline>
<polyline points="1465.73,1570.76,5715.05,1629.42" stroke="rgb(212,255,0)" stroke-width="2" fill="none"></polyline>
<polyline points="2653.05,1597.2,6634.43,2074.61" stroke="rgb(255,0,76)" stroke-width="2" fill="none"></polyline>
<polyline points="2587.53,1601.7,6116.75,1414.25" stroke="rgb(51,255,0)" stroke-width="2" fill="none"></polyline>
<polyline points="2614.84,1604.68,5997.63,900.487" stroke="rgb(255,0,101)" stroke-width="2" fill="none"></polyline>
<polyline points="1790.48,1619.37,5711.09,1444.74" stroke="rgb(0,255,254)" stroke-width="2" fill="none"></polyline>
<polyline points="2688.77,1624.37,6232.52,1683.99" stroke="rgb(0,89,255)" stroke-width="2" fill="none"></polyline>
<polyline points="1783.4,1627.49,5692.19,1582.48" stroke="rgb(0,255,199)" stroke-width="2" fill="none"></polyline>
<polyline points="2622.19,1629.62,6353.23,1688.42" stroke="rgb(0,157,255)" stroke-width="2" fill="none"></polyline>
<polyline points="1818.55,1630.55,5827.8,1853.28" stroke="rgb(255,191,0)" stroke-width="2" fill="none"></polyline>
<polyline points="2276.86,1634.49,6734.57,1776.92" stroke="rgb(255,225,0)" stroke-width="2" fill="none"></polyline>
<polyline points="1714.26,1648.24,6056.69,1067.3" stroke="rgb(153,0,255)" stroke-width="2" fill="none"></polyline>
<polyline points="946.309,1686.58,6196.59,1197.96" stroke="rgb(255,0,246)" stroke-width="2" fill="none"></polyline>
<polyline points="1046.49,1702.25,6166.58,1239.73" stroke="rgb(0,89,255)" stroke-width="2" fill="none"></polyline>
<polyline points="1820.97,1706.29,6179.56,1130.24" stroke="rgb(0,255,237)" stroke-width="2" fill="none"></polyline>
<polyline points="1051.86,1706.48,6743.69,1644.23" stroke="rgb(255,0,123)" stroke-width="2" fill="none"></polyline>
<polyline points="1328.05,1722.29,6583.02,1403.55" stroke="rgb(63,255,0)" stroke-width="2" fill="none"></polyline>
<polyline points="977.84,1730.05,6070.54,1209.06" stroke="rgb(34,0,255)" stroke-width="2" fill="none"></polyline>
<polyline points="967.135,1734.65,6014.84,889.356" stroke="rgb(255,0,221)" stroke-width="2" fill="none"></polyline>
<polyline points="2347.83,1751,5797.06,1493.95" stroke="rgb(89,255,0)" stroke-width="2" fill="none"></polyline>
<polyline points="2220.39,1776.18,6095.33,973.167" stroke="rgb(225,0,255)" stroke-width="2" fill="none"></polyline>
<polyline points="2514.3,1806.06,6686.54,1445.76" stroke="rgb(42,255,0)" stroke-width="2" fill="none"></polyline>
<polyline points="2035.93,1814.01,6170.66,1263.15" stroke="rgb(0,255,199)" stroke-width="2" fill="none"></polyline>
<polyline points="1321.56,1816.05,5422.2,1164.97" stroke="rgb(255,55,0)" stroke-width="2" fill="none"></polyline>
<polyline points="811.743,1820.32,5549.06,1022.74" stroke="rgb(42,255,0)" stroke-width="2" fill="none"></polyline>
<polyline points="2530.07,1849.94,6258.98,1082.83" stroke="rgb(42,255,0)" stroke-width="2" fill="none"></polyline>
<polyline points="731.258,1859.43,6131.16,1056.31" stroke="rgb(255,195,0)" stroke-width="2" fill="none"></polyline>
<polyline points="2388.95,1861.5,6187.28,2083.16" stroke="rgb(67,255,0)" stroke-width="2" fill="none"></polyline>
<polyline points="1076.7,1869.54,5706.33,1331.2" stroke="rgb(229,255,0)" stroke-width="2" fill="none"></polyline>
<polyline points="1187.44,1870.85,6727.79,1354.46" stroke="rgb(255,0,89)" stroke-width="2" fill="none"></polyline>
<polyline points="733.377,1872.84,6089.14,1194.69" stroke="rgb(195,0,255)" stroke-width="2" fill="none"></polyline>
<polyline points="2123.25,1893.66,6672.89,1822.83" stroke="rgb(255,0,12)" stroke-width="2" fill="none"></polyline>
<polyline points="2376.79,1897.02,5818.79,1970.46" stroke="rgb(174,0,255)" stroke-width="2" fill="none"></polyline>
<polyline points="1141.07,1898.87,6717.71,1185.59" stroke="rgb(0,255,84)" stroke-width="2" fill="none"></polyline>
<polyline points="2366.76,1900.31,6562.53,1354.47" stroke="rgb(255,0,93)" stroke-width="2" fill="none"></polyline>
<polyline points="1116.18,1949.93,6144.33,1775.36" stroke="rgb(0,255,38)" stroke-width="2" fill="none"></polyline>
<polyline points="2013.34,1950.95,6385.64,979.838" stroke="rgb(0,199,255)" stroke-width="2" fill="none"></polyline>
<polyline points="2202.8,1952.34,5628.46,1302.99" stroke="rgb(0,182,255)" stroke-width="2" fill="none"></polyline>
<polyline points="1523.25,1961.79,6860.81,1473.16" stroke="rgb(238,0,255)" stroke-width="2" fill="none"></polyline>
<polyline points="1322.62,1968.87,5570.58,864.178" stroke="rgb(255,153,0)" stroke-width="2" fill="none"></polyline>
<polyline points="1408.26,1982.16,5692.27,2567.96" stroke="rgb(25,255,0)" stroke-width="2" fill="none"></polyline>
<polyline points="1345.96,1989.48,5427.38,745.799" stroke="rgb(255,0,46)" stroke-width="2" fill="none"></polyline>
<polyline points="1276.67,2005.63,6053.42,850.71" stroke="rgb(0,237,255)" stroke-width="2" fill="none"></polyline>
<polyline points="1776.89,2010.48,6826.17,1648.81" stroke="rgb(255,242,0)" stroke-width="2" fill="none"></polyline>
<polyline points="1385.1,2015.85,6160.42,2640.52" stroke="rgb(169,255,0)" stroke-width="2" fill="none"></polyline>
<polyline points="872.931,2030.01,5893.65,2554.23" stroke="rgb(255,4,0)" stroke-width="2" fill="none"></polyline>
<polyline points="1739.9,2032.8,6854.21,1655.84" stroke="rgb(255,119,0)" stroke-width="2" fill="none"></polyline>
<polyline points="1256.72,2033.62,6278.92,1486.75" stroke="rgb(255,242,0)" stroke-width="2" fill="none"></polyline>
<polyline points="1056.9,2034.99,6543.67,1471.35" stroke="rgb(38,0,255)" stroke-width="2" fill="none"></polyline>
<polyline points="2100.02,2044.14,6795.75,2083.55" stroke="rgb(0,131,255)" stroke-width="2" fill="none"></polyline>
<polyline points="2146.28,2050.57,6591.23,1794.81" stroke="rgb(0,255,157)" stroke-width="2" fill="none"></polyline>
<polyline points="2154.35,2050.6,6775.27,1931.47" stroke="rgb(255,229,0)" stroke-width="2" fill="none"></polyline>
<polyline points="1042.29,2054.79,5996.52,1678.88" stroke="rgb(0,208,255)" stroke-width="2" fill="none"></polyline>
<polyline points="1264.77,2059.7,6540.81,2264.21" stroke="rgb(0,187,255)" stroke-width="2" fill="none"></polyline>
<polyline points="1695.52,2060.44,5519.95,600.25" stroke="rgb(250,0,255)" stroke-width="2" fill="none"></polyline>
<polyline points="2252.31,2063.59,6607.24,1352.31" stroke="rgb(0,255,225)" stroke-width="2" fill="none"></polyline>
<polyline points="1941.75,2063.9,6892.33,1739.21" stroke="rgb(255,0,225)" stroke-width="2" fill="none"></polyline>
<polyline points="1842.81,2075.48,6345.48,787.236" stroke="rgb(255,0,63)" stroke-width="2" fill="none"></polyline>
<polyline points="1005.79,2083.25,6592.73,1410.31" stroke="rgb(157,0,255)" stroke-width="2" fill="none"></polyline>
<circle cx="1324.18" cy="706.812" r="4" stroke="rgb(195,255,0)" stroke-width="2" fill="none"></circle>
<circle cx="6789.13" cy="2127.9" r="4" stroke="rgb(195,255,0)" stroke-width="2" fill="none"></circle>
<circle cx="2103.8" cy="738.164" r="4" stroke="rgb(255,233,0)" stroke-width="2" fill="none"></circle>
<circle cx="5493.08" cy="656.473" r="4" stroke="rgb(255,233,0)" stroke-width="2" fill="none"></circle>
<circle cx="2264.57" cy="820.055" r="4" stroke="rgb(255,216,0)" stroke-width="2" fill="none"></circle>
<circle cx="6819.69" cy="1705.84" r="4" stroke="rgb(255,216,0)" stroke-width="2" fill="none"></circle>
<circle cx="2843.28" cy="884.143" r="4" stroke="rgb(0,169,255)" stroke-width="2" fill="none"></circle>
<circle cx="5973.34" cy="1477.17" r="4" stroke="rgb(0,169,255)" stroke-width="2" fill="none"></circle>
<circle cx="1937.38" cy="987.521" r="4" stroke="rgb(255,199,0)" stroke-width="2" fill="none"></circle>
<circle cx="5739.95" cy="2434.42" r="4" stroke="rgb(255,199,0)" stroke-width="2" fill="none"></circle>
<circle cx="2228.1" cy="1034.45" r="4" stroke="rgb(255,0,195)" stroke-width="2" fill="none"></circle>
<circle cx="5420.84" cy="767.18" r="4" stroke="rgb(255,0,195)" stroke-width="2" fill="none"></circle>
<circle cx="978.64" cy="1066.18" r="4" stroke="rgb(0,255,46)" stroke-width="2" fill="none"></circle>
<circle cx="5771.06" cy="1179.59" r="4" stroke="rgb(0,255,46)" stroke-width="2" fill="none"></circle>
<circle cx="1846.04" cy="1125.13" r="4" stroke="rgb(0,135,255)" stroke-width="2" fill="none"></circle>
<circle cx="6079.55" cy="634.048" r="4" stroke="rgb(0,135,255)" stroke-width="2" fill="none"></circle>
<circle cx="1523.12" cy="1138.64" r="4" stroke="rgb(0,255,216)" stroke-width="2" fill="none"></circle>
<circle cx="6296.29" cy="772.494" r="4" stroke="rgb(0,255,216)" stroke-width="2" fill="none"></circle>
<circle cx="2007.1" cy="1163.78" r="4" stroke="rgb(187,255,0)" stroke-width="2" fill="none"></circle>
<circle cx="5941.09" cy="1883.49" r="4" stroke="rgb(187,255,0)" stroke-width="2" fill="none"></circle>
<circle cx="1897.56" cy="1178.49" r="4" stroke="rgb(51,255,0)" stroke-width="2" fill="none"></circle>
<circle cx="5918.24" cy="1841.84" r="4" stroke="rgb(51,255,0)" stroke-width="2" fill="none"></circle>
<circle cx="2628.54" cy="1181.19" r="4" stroke="rgb(255,0,114)" stroke-width="2" fill="none"></circle>
<circle cx="5708.36" cy="1549.26" r="4" stroke="rgb(255,0,114)" stroke-width="2" fill="none"></circle>
<circle cx="1628.62" cy="1253.97" r="4" stroke="rgb(255,0,199)" stroke-width="2" fill="none"></circle>
<circle cx="5728.8" cy="554.894" r="4" stroke="rgb(255,0,199)" stroke-width="2" fill="none"></circle>
<circle cx="2296.87" cy="1258.26" r="4" stroke="rgb(199,255,0)" stroke-width="2" fill="none"></circle>
<circle cx="6812.71" cy="1574.93" r="4" stroke="rgb(199,255,0)" stroke-width="2" fill="none"></circle>
<circle cx="1636.42" cy="1275.73" r="4" stroke="rgb(216,0,255)" stroke-width="2" fill="none"></circle>
<circle cx="6632.86" cy="1804.78" r="4" stroke="rgb(216,0,255)" stroke-width="2" fill="none"></circle>
<circle cx="1573.78" cy="1279.1" r="4" stroke="rgb(255,0,148)" stroke-width="2" fill="none"></circle>
<circle cx="6390.48" cy="912.971" r="4" stroke="rgb(255,0,148)" stroke-width="2" fill="none"></circle>
<circle cx="1609.2" cy="1289.06" r="4" stroke="rgb(0,255,46)" stroke-width="2" fill="none"></circle>
<circle cx="5882.55" cy="1885.96" r="4" stroke="rgb(0,255,46)" stroke-width="2" fill="none"></circle>
<circle cx="985.405" cy="1304.96" r="4" stroke="rgb(0,237,255)" stroke-width="2" fill="none"></circle>
<circle cx="6515.87" cy="1313.08" r="4" stroke="rgb(0,237,255)" stroke-width="2" fill="none"></circle>
<circle cx="2397.27" cy="1327.51" r="4" stroke="rgb(255,0,25)" stroke-width="2" fill="none"></circle>
<circle cx="6779.69" cy="2157.86" r="4" stroke="rgb(255,0,25)" stroke-width="2" fill="none"></circle>
<circle cx="2621.81" cy="1334.26" r="4" stroke="rgb(21,0,255)" stroke-width="2" fill="none"></circle>
<circle cx="6308.54" cy="1539.1" r="4" stroke="rgb(21,0,255)" stroke-width="2" fill="none"></circle>
<circle cx="2622.01" cy="1343.43" r="4" stroke="rgb(255,119,0)" stroke-width="2" fill="none"></circle>
<circle cx="6318.91" cy="1553.4" r="4" stroke="rgb(255,119,0)" stroke-width="2" fill="none"></circle>
<circle cx="1511.74" cy="1350.8" r="4" stroke="rgb(0,221,255)" stroke-width="2" fill="none"></circle>
<circle cx="5923.12" cy="1787.45" r="4" stroke="rgb(0,221,255)" stroke-width="2" fill="none"></circle>
<circle cx="2411.89" cy="1359.78" r="4" stroke="rgb(72,255,0)" stroke-width="2" fill="none"></circle>
<circle cx="5853.04" cy="1712.47" r="4" stroke="rgb(72,255,0)" stroke-width="2" fill="none"></circle>
<circle cx="1353.45" cy="1372.05" r="4" stroke="rgb(0,255,72)" stroke-width="2" fill="none"></circle>
<circle cx="6590.56" cy="1591.54" r="4" stroke="rgb(0,255,72)" stroke-width="2" fill="none"></circle>
<circle cx="2619.57" cy="1372.62" r="4" stroke="rgb(0,255,169)" stroke-width="2" fill="none"></circle>
<circle cx="6370.21" cy="1672.84" r="4" stroke="rgb(0,255,169)" stroke-width="2" fill="none"></circle>
<circle cx="1504.6" cy="1372.88" r="4" stroke="rgb(0,255,242)" stroke-width="2" fill="none"></circle>
<circle cx="5880.86" cy="2000.89" r="4" stroke="rgb(0,255,242)" stroke-width="2" fill="none"></circle>
<circle cx="1347.3" cy="1377.75" r="4" stroke="rgb(255,144,0)" stroke-width="2" fill="none"></circle>
<circle cx="6866.55" cy="1776.25" r="4" stroke="rgb(255,144,0)" stroke-width="2" fill="none"></circle>
<circle cx="1094.41" cy="1384.71" r="4" stroke="rgb(255,0,144)" stroke-width="2" fill="none"></circle>
<circle cx="6555.53" cy="1983.46" r="4" stroke="rgb(255,0,144)" stroke-width="2" fill="none"></circle>
<circle cx="1433.37" cy="1398.92" r="4" stroke="rgb(0,4,255)" stroke-width="2" fill="none"></circle>
<circle cx="6625.91" cy="1116.36" r="4" stroke="rgb(0,4,255)" stroke-width="2" fill="none"></circle>
<circle cx="1148.88" cy="1431.76" r="4" stroke="rgb(255,0,174)" stroke-width="2" fill="none"></circle>
<circle cx="6040.71" cy="738.492" r="4" stroke="rgb(255,0,174)" stroke-width="2" fill="none"></circle>
<circle cx="1204.2" cy="1435.84" r="4" stroke="rgb(0,255,127)" stroke-width="2" fill="none"></circle>
<circle cx="5748.57" cy="519.018" r="4" stroke="rgb(0,255,127)" stroke-width="2" fill="none"></circle>
<circle cx="1239.16" cy="1451.95" r="4" stroke="rgb(0,233,255)" stroke-width="2" fill="none"></circle>
<circle cx="5740.48" cy="501.678" r="4" stroke="rgb(0,233,255)" stroke-width="2" fill="none"></circle>
<circle cx="2305.9" cy="1459.04" r="4" stroke="rgb(25,0,255)" stroke-width="2" fill="none"></circle>
<circle cx="6488.09" cy="1239.51" r="4" stroke="rgb(25,0,255)" stroke-width="2" fill="none"></circle>
<circle cx="1523.03" cy="1467.35" r="4" stroke="rgb(199,255,0)" stroke-width="2" fill="none"></circle>
<circle cx="5850.18" cy="1728.34" r="4" stroke="rgb(199,255,0)" stroke-width="2" fill="none"></circle>
<circle cx="2591.98" cy="1468.92" r="4" stroke="rgb(255,106,0)" stroke-width="2" fill="none"></circle>
<circle cx="6778.54" cy="1267.52" r="4" stroke="rgb(255,106,0)" stroke-width="2" fill="none"></circle>
<circle cx="2613.58" cy="1471.59" r="4" stroke="rgb(225,0,255)" stroke-width="2" fill="none"></circle>
<circle cx="6332.99" cy="1503.21" r="4" stroke="rgb(225,0,255)" stroke-width="2" fill="none"></circle>
<circle cx="2648.57" cy="1473.93" r="4" stroke="rgb(255,119,0)" stroke-width="2" fill="none"></circle>
<circle cx="6257.57" cy="1313.84" r="4" stroke="rgb(255,119,0)" stroke-width="2" fill="none"></circle>
<circle cx="1502.73" cy="1479.79" r="4" stroke="rgb(255,123,0)" stroke-width="2" fill="none"></circle>
<circle cx="5813.13" cy="1784.29" r="4" stroke="rgb(255,123,0)" stroke-width="2" fill="none"></circle>
<circle cx="2613.17" cy="1487.51" r="4" stroke="rgb(255,59,0)" stroke-width="2" fill="none"></circle>
<circle cx="6140.96" cy="1234.33" r="4" stroke="rgb(255,59,0)" stroke-width="2" fill="none"></circle>
<circle cx="1513.07" cy="1491.36" r="4" stroke="rgb(208,255,0)" stroke-width="2" fill="none"></circle>
<circle cx="5918.69" cy="1773.28" r="4" stroke="rgb(208,255,0)" stroke-width="2" fill="none"></circle>
<circle cx="1920.6" cy="1502.46" r="4" stroke="rgb(255,0,97)" stroke-width="2" fill="none"></circle>
<circle cx="5845.61" cy="1779.45" r="4" stroke="rgb(255,0,97)" stroke-width="2" fill="none"></circle>
<circle cx="2653.18" cy="1503.01" r="4" stroke="rgb(255,0,25)" stroke-width="2" fill="none"></circle>
<circle cx="6694.39" cy="2150.76" r="4" stroke="rgb(255,0,25)" stroke-width="2" fill="none"></circle>
<circle cx="2610.47" cy="1512.2" r="4" stroke="rgb(255,191,0)" stroke-width="2" fill="none"></circle>
<circle cx="6105.35" cy="1139.83" r="4" stroke="rgb(255,191,0)" stroke-width="2" fill="none"></circle>
<circle cx="1183.4" cy="1523.62" r="4" stroke="rgb(0,255,178)" stroke-width="2" fill="none"></circle>
<circle cx="6150.83" cy="1929.13" r="4" stroke="rgb(0,255,178)" stroke-width="2" fill="none"></circle>
<circle cx="1209.98" cy="1523.79" r="4" stroke="rgb(221,255,0)" stroke-width="2" fill="none"></circle>
<circle cx="5817.18" cy="1280.91" r="4" stroke="rgb(221,255,0)" stroke-width="2" fill="none"></circle>
<circle cx="1450.47" cy="1527.28" r="4" stroke="rgb(0,135,255)" stroke-width="2" fill="none"></circle>
<circle cx="5807.8" cy="1819.1" r="4" stroke="rgb(0,135,255)" stroke-width="2" fill="none"></circle>
<circle cx="1406.77" cy="1528.63" r="4" stroke="rgb(0,255,29)" stroke-width="2" fill="none"></circle>
<circle cx="6614.59" cy="1355.82" r="4" stroke="rgb(0,255,29)" stroke-width="2" fill="none"></circle>
<circle cx="1030.76" cy="1534.83" r="4" stroke="rgb(208,255,0)" stroke-width="2" fill="none"></circle>
<circle cx="5767.71" cy="599.408" r="4" stroke="rgb(208,255,0)" stroke-width="2" fill="none"></circle>
<circle cx="1125.19" cy="1541.33" r="4" stroke="rgb(255,136,0)" stroke-width="2" fill="none"></circle>
<circle cx="5950.78" cy="1351.36" r="4" stroke="rgb(255,136,0)" stroke-width="2" fill="none"></circle>
<circle cx="1455.68" cy="1545.36" r="4" stroke="rgb(0,255,8)" stroke-width="2" fill="none"></circle>
<circle cx="5857.16" cy="2040.84" r="4" stroke="rgb(0,255,8)" stroke-width="2" fill="none"></circle>
<circle cx="2629.31" cy="1551.13" r="4" stroke="rgb(255,0,187)" stroke-width="2" fill="none"></circle>
<circle cx="6011.84" cy="998.158" r="4" stroke="rgb(255,0,187)" stroke-width="2" fill="none"></circle>
<circle cx="1251.94" cy="1553.4" r="4" stroke="rgb(225,0,255)" stroke-width="2" fill="none"></circle>
<circle cx="6027.3" cy="742.804" r="4" stroke="rgb(225,0,255)" stroke-width="2" fill="none"></circle>
<circle cx="1470.96" cy="1556.6" r="4" stroke="rgb(0,246,255)" stroke-width="2" fill="none"></circle>
<circle cx="6769.4" cy="1425.7" r="4" stroke="rgb(0,246,255)" stroke-width="2" fill="none"></circle>
<circle cx="1239.74" cy="1570.4" r="4" stroke="rgb(255,250,0)" stroke-width="2" fill="none"></circle>
<circle cx="6515.34" cy="1106.46" r="4" stroke="rgb(255,250,0)" stroke-width="2" fill="none"></circle>
<circle cx="1465.73" cy="1570.76" r="4" stroke="rgb(212,255,0)" stroke-width="2" fill="none"></circle>
<circle cx="5715.05" cy="1629.42" r="4" stroke="rgb(212,255,0)" stroke-width="2" fill="none"></circle>
<circle cx="2653.05" cy="1597.2" r="4" stroke="rgb(255,0,76)" stroke-width="2" fill="none"></circle>
<circle cx="6634.43" cy="2074.61" r="4" stroke="rgb(255,0,76)" stroke-width="2" fill="none"></circle>
<circle cx="2587.53" cy="1601.7" r="4" stroke="rgb(51,255,0)" stroke-width="2" fill="none"></circle>
<circle cx="6116.75" cy="1414.25" r="4" stroke="rgb(51,255,0)" stroke-width="2" fill="none"></circle>
<circle cx="2614.84" cy="1604.68" r="4" stroke="rgb(255,0,101)" stroke-width="2" fill="none"></circle>
<circle cx="5997.63" cy="900.487" r="4" stroke="rgb(255,0,101)" stroke-width="2" fill="none"></circle>
<circle cx="1790.48" cy="1619.37" r="4" stroke="rgb(0,255,254)" stroke-width="2" fill="none"></circle>
<circle cx="5711.09" cy="1444.74" r="4" stroke="rgb(0,255,254)" stroke-width="2" fill="none"></circle>
<circle cx="2688.77" cy="1624.37" r="4" stroke="rgb(0,89,255)" stroke-width="2" fill="none"></circle>
<circle cx="6232.52" cy="1683.99" r="4" stroke="rgb(0,89,255)" stroke-width="2" fill="none"></circle>
<circle cx="1783.4" cy="1627.49" r="4" stroke="rgb(0,255,199)" stroke-width="2" fill="none"></circle>
<circle cx="5692.19" cy="1582.48" r="4" stroke="rgb(0,255,199)" stroke-width="2" fill="none"></circle>
<circle cx="2622.19" cy="1629.62" r="4" stroke="rgb(0,157,255)" stroke-width="2" fill="none"></circle>
<circle cx="6353.23" cy="1688.42" r="4" stroke="rgb(0,157,255)" stroke-width="2" fill="none"></circle>
<circle cx="1818.55" cy="1630.55" r="4" stroke="rgb(255,191,0)" stroke-width="2" fill="none"></circle>
<circle cx="5827.8" cy="1853.28" r="4" stroke="rgb(255,191,0)" stroke-width="2" fill="none"></circle>
<circle cx="2276.86" cy="1634.49" r="4" stroke="rgb(255,225,0)" stroke-width="2" fill="none"></circle>
<circle cx="6734.57" cy="1776.92" r="4" stroke="rgb(255,225,0)" stroke-width="2" fill="none"></circle>
<circle cx="1714.26" cy="1648.24" r="4" stroke="rgb(153,0,255)" stroke-width="2" fill="none"></circle>
<circle cx="6056.69" cy="1067.3" r="4" stroke="rgb(153,0,255)" stroke-width="2" fill="none"></circle>
<circle cx="946.309" cy="1686.58" r="4" stroke="rgb(255,0,246)" stroke-width="2" fill="none"></circle>
<circle cx="6196.59" cy="1197.96" r="4" stroke="rgb(255,0,246)" stroke-width="2" fill="none"></circle>
<circle cx="1046.49" cy="1702.25" r="4" stroke="rgb(0,89,255)" stroke-width="2" fill="none"></circle>
<circle cx="6166.58" cy="1239.73" r="4" stroke="rgb(0,89,255)" stroke-width="2" fill="none"></circle>
<circle cx="1820.97" cy="1706.29" r="4" stroke="rgb(0,255,237)" stroke-width="2" fill="none"></circle>
<circle cx="6179.56" cy="1130.24" r="4" stroke="rgb(0,255,237)" stroke-width="2" fill="none"></circle>
<circle cx="1051.86" cy="1706.48" r="4" stroke="rgb(255,0,123)" stroke-width="2" fill="none"></circle>
<circle cx="6743.69" cy="1644.23" r="4" stroke="rgb(255,0,123)" stroke-width="2" fill="none"></circle>
<circle cx="1328.05" cy="1722.29" r="4" stroke="rgb(63,255,0)" stroke-width="2" fill="none"></circle>
<circle cx="6583.02" cy="1403.55" r="4" stroke="rgb(63,255,0)" stroke-width="2" fill="none"></circle>
<circle cx="977.84" cy="1730.05" r="4" stroke="rgb(34,0,255)" stroke-width="2" fill="none"></circle>
<circle cx="6070.54" cy="1209.06" r="4" stroke="rgb(34,0,255)" stroke-width="2" fill="none"></circle>
<circle cx="967.135" cy="1734.65" r="4" stroke="rgb(255,0,221)" stroke-width="2" fill="none"></circle>
<circle cx="6014.84" cy="889.356" r="4" stroke="rgb(255,0,221)" stroke-width="2" fill="none"></circle>
<circle cx="2347.83" cy="1751" r="4" stroke="rgb(89,255,0)" stroke-width="2" fill="none"></circle>
<circle cx="5797.06" cy="1493.95" r="4" stroke="rgb(89,255,0)" stroke-width="2" fill="none"></circle>
<circle cx="2220.39" cy="1776.18" r="4" stroke="rgb(225,0,255)" stroke-width="2" fill="none"></circle>
<circle cx="6095.33" cy="973.167" r="4" stroke="rgb(225,0,255)" stroke-width="2" fill="none"></circle>
<circle cx="2514.3" cy="1806.06" r="4" stroke="rgb(42,255,0)" stroke-width="2" fill="none"></circle>
<circle cx="6686.54" cy="1445.76" r="4" stroke="rgb(42,255,0)" stroke-width="2" fill="none"></circle>
<circle cx="2035.93" cy="1814.01" r="4" stroke="rgb(0,255,199)" stroke-width="2" fill="none"></circle>
<circle cx="6170.66" cy="1263.15" r="4" stroke="rgb(0,255,199)" stroke-width="2" fill="none"></circle>
<circle cx="1321.56" cy="1816.05" r="4" stroke="rgb(255,55,0)" stroke-width="2" fill="none"></circle>
<circle cx="5422.2" cy="1164.97" r="4" stroke="rgb(255,55,0)" stroke-width="2" fill="none"></circle>
<circle cx="811.743" cy="1820.32" r="4" stroke="rgb(42,255,0)" stroke-width="2" fill="none"></circle>
<circle cx="5549.06" cy="1022.74" r="4" stroke="rgb(42,255,0)" stroke-width="2" fill="none"></circle>
<circle cx="2530.07" cy="1849.94" r="4" stroke="rgb(42,255,0)" stroke-width="2" fill="none"></circle>
<circle cx="6258.98" cy="1082.83" r="4" stroke="rgb(42,255,0)" stroke-width="2" fill="none"></circle>
<circle cx="731.258" cy="1859.43" r="4" stroke="rgb(255,195,0)" stroke-width="2" fill="none"></circle>
<circle cx="6131.16" cy="1056.31" r="4" stroke="rgb(255,195,0)" stroke-width="2" fill="none"></circle>
<circle cx="2388.95" cy="1861.5" r="4" stroke="rgb(67,255,0)" stroke-width="2" fill="none"></circle>
<circle cx="6187.28" cy="2083.16" r="4" stroke="rgb(67,255,0)" stroke-width="2" fill="none"></circle>
<circle cx="1076.7" cy="1869.54" r="4" stroke="rgb(229,255,0)" stroke-width="2" fill="none"></circle>
<circle cx="5706.33" cy="1331.2" r="4" stroke="rgb(229,255,0)" stroke-width="2" fill="none"></circle>
<circle cx="1187.44" cy="1870.85" r="4" stroke="rgb(255,0,89)" stroke-width="2" fill="none"></circle>
<circle cx="6727.79" cy="1354.46" r="4" stroke="rgb(255,0,89)" stroke-width="2" fill="none"></circle>
<circle cx="733.377" cy="1872.84" r="4" stroke="rgb(195,0,255)" stroke-width="2" fill="none"></circle>
<circle cx="6089.14" cy="1194.69" r="4" stroke="rgb(195,0,255)" stroke-width="2" fill="none"></circle>
<circle cx="2123.25" cy="1893.66" r="4" stroke="rgb(255,0,12)" stroke-width="2" fill="none"></circle>
<circle cx="6672.89" cy="1822.83" r="4" stroke="rgb(255,0,12)" stroke-width="2" fill="none"></circle>
<circle cx="2376.79" cy="1897.02" r="4" stroke="rgb(174,0,255)" stroke-width="2" fill="none"></circle>
<circle cx="5818.79" cy="1970.46" r="4" stroke="rgb(174,0,255)" stroke-width="2" fill="none"></circle>
<circle cx="1141.07" cy="1898.87" r="4" stroke="rgb(0,255,84)" stroke-width="2" fill="none"></circle>
<circle cx="6717.71" cy="1185.59" r="4" stroke="rgb(0,255,84)" stroke-width="2" fill="none"></circle>
<circle cx="2366.76" cy="1900.31" r="4" stroke="rgb(255,0,93)" stroke-width="2" fill="none"></circle>
<circle cx="6562.53" cy="1354.47" r="4" stroke="rgb(255,0,93)" stroke-width="2" fill="none"></circle>
<circle cx="1116.18" cy="1949.93" r="4" stroke="rgb(0,255,38)" stroke-width="2" fill="none"></circle>
<circle cx="6144.33" cy="1775.36" r="4" stroke="rgb(0,255,38)" stroke-width="2" fill="none"></circle>
<circle cx="2013.34" cy="1950.95" r="4" stroke="rgb(0,199,255)" stroke-width="2" fill="none"></circle>
<circle cx="6385.64" cy="979.838" r="4" stroke="rgb(0,199,255)" stroke-width="2" fill="none"></circle>
<circle cx="2202.8" cy="1952.34" r="4" stroke="rgb(0,182,255)" stroke-width="2" fill="none"></circle>
<circle cx="5628.46" cy="1302.99" r="4" stroke="rgb(0,182,255)" stroke-width="2" fill="none"></circle>
<circle cx="1523.25" cy="1961.79" r="4" stroke="rgb(238,0,255)" stroke-width="2" fill="none"></circle>
<circle cx="6860.81" cy="1473.16" r="4" stroke="rgb(238,0,255)" stroke-width="2" fill="none"></circle>
<circle cx="1322.62" cy="1968.87" r="4" stroke="rgb(255,153,0)" stroke-width="2" fill="none"></circle>
<circle cx="5570.58" cy="864.178" r="4" stroke="rgb(255,153,0)" stroke-width="2" fill="none"></circle>
<circle cx="1408.26" cy="1982.16" r="4" stroke="rgb(25,255,0)" stroke-width="2" fill="none"></circle>
<circle cx="5692.27" cy="2567.96" r="4" stroke="rgb(25,255,0)" stroke-width="2" fill="none"></circle>
<circle cx="1345.96" cy="1989.48" r="4" stroke="rgb(255,0,46)" stroke-width="2" fill="none"></circle>
<circle cx="5427.38" cy="745.799" r="4" stroke="rgb(255,0,46)" stroke-width="2" fill="none"></circle>
<circle cx="1276.67" cy="2005.63" r="4" stroke="rgb(0,237,255)" stroke-width="2" fill="none"></circle>
<circle cx="6053.42" cy="850.71" r="4" stroke="rgb(0,237,255)" stroke-width="2" fill="none"></circle>
<circle cx="1776.89" cy="2010.48" r="4" stroke="rgb(255,242,0)" stroke-width="2" fill="none"></circle>
<circle cx="6826.17" cy="1648.81" r="4" stroke="rgb(255,242,0)" stroke-width="2" fill="none"></circle>
<circle cx="1385.1" cy="2015.85" r="4" stroke="rgb(169,255,0)" stroke-width="2" fill="none"></circle>
<circle cx="6160.42" cy="2640.52" r="4" stroke="rgb(169,255,0)" stroke-width="2" fill="none"></circle>
<circle cx="872.931" cy="2030.01" r="4" stroke="rgb(255,4,0)" stroke-width="2" fill="none"></circle>
<circle cx="5893.65" cy="2554.23" r="4" stroke="rgb(255,4,0)" stroke-width="2" fill="none"></circle>
<circle cx="1739.9" cy="2032.8" r="4" stroke="rgb(255,119,0)" stroke-width="2" fill="none"></circle>
<circle cx="6854.21" cy="1655.84" r="4" stroke="rgb(255,119,0)" stroke-width="2" fill="none"></circle>
<circle cx="1256.72" cy="2033.62" r="4" stroke="rgb(255,242,0)" stroke-width="2" fill="none"></circle>
<circle cx="6278.92" cy="1486.75" r="4" stroke="rgb(255,242,0)" stroke-width="2" fill="none"></circle>
<circle cx="1056.9" cy="2034.99" r="4" stroke="rgb(38,0,255)" stroke-width="2" fill="none"></circle>
<circle cx="6543.67" cy="1471.35" r="4" stroke="rgb(38,0,255)" stroke-width="2" fill="none"></circle>
<circle cx="2100.02" cy="2044.14" r="4" stroke="rgb(0,131,255)" stroke-width="2" fill="none"></circle>
<circle cx="6795.75" cy="2083.55" r="4" stroke="rgb(0,131,255)" stroke-width="2" fill="none"></circle>
<circle cx="2146.28" cy="2050.57" r="4" stroke="rgb(0,255,157)" stroke-width="2" fill="none"></circle>
<circle cx="6591.23" cy="1794.81" r="4" stroke="rgb(0,255,157)" stroke-width="2" fill="none"></circle>
<circle cx="2154.35" cy="2050.6" r="4" stroke="rgb(255,229,0)" stroke-width="2" fill="none"></circle>
<circle cx="6775.27" cy="1931.47" r="4" stroke="rgb(255,229,0)" stroke-width="2" fill="none"></circle>
<circle cx="1042.29" cy="2054.79" r="4" stroke="rgb(0,208,255)" stroke-width="2" fill="none"></circle>
<circle cx="5996.52" cy="1678.88" r="4" stroke="rgb(0,208,255)" stroke-width="2" fill="none"></circle>
<circle cx="1264.77" cy="2059.7" r="4" stroke="rgb(0,187,255)" stroke-width="2" fill="none"></circle>
<circle cx="6540.81" cy="2264.21" r="4" stroke="rgb(0,187,255)" stroke-width="2" fill="none"></circle>
<circle cx="1695.52" cy="2060.44" r="4" stroke="rgb(250,0,255)" stroke-width="2" fill="none"></circle>
<circle cx="5519.95" cy="600.25" r="4" stroke="rgb(250,0,255)" stroke-width="2" fill="none"></circle>
<circle cx="2252.31" cy="2063.59" r="4" stroke="rgb(0,255,225)" stroke-width="2" fill="none"></circle>
<circle cx="6607.24" cy="1352.31" r="4" stroke="rgb(0,255,225)" stroke-width="2" fill="none"></circle>
<circle cx="1941.75" cy="2063.9" r="4" stroke="rgb(255,0,225)" stroke-width="2" fill="none"></circle>
<circle cx="6892.33" cy="1739.21" r="4" stroke="rgb(255,0,225)" stroke-width="2" fill="none"></circle>
<circle cx="1842.81" cy="2075.48" r="4" stroke="rgb(255,0,63)" stroke-width="2" fill="none"></circle>
<circle cx="6345.48" cy="787.236" r="4" stroke="rgb(255,0,63)" stroke-width="2" fill="none"></circle>
<circle cx="1005.79" cy="2083.25" r="4" stroke="rgb(157,0,255)" stroke-width="2" fill="none"></circle>
<circle cx="6592.73" cy="1410.31" r="4" stroke="rgb(157,0,255)" stroke-width="2" fill="none"></circle>
</svg>