<?xml version="1.0" standalone="yes"?>
<!-- SVG graphic -->
<svg xmlns='http://www.w3.org/2000/svg' xmlns:xlink='http://www.w3.org/1999/xlink'
width="8064px" height="3024px" preserveAspectRatio="xMinYMin meet" viewBox="0 0 8064 3024" version="1.1">
<image x="0" y="0" width="4032px" height="3024px" opacity="1" xlink:href="/home/jeong/Code/2D-to-3D-Modeling-using-AI/Make3D/Image/20200227_180657.jpg"/>
<image x="4032" y="0" width="4032px" height="3024px" opacity="1" xlink:href="/home/jeong/Code/2D-to-3D-Modeling-using-AI/Make3D/Image/20200227_180753.jpg"/>
<polyline points="1650.89,1659.32,6502.02,2080.72" stroke="rgb(0,203,255)" stroke-width="2" fill="none"></polyline>
<polyline points="571.029,2291.85,4997.03,123.155" stroke="rgb(0,250,255)" stroke-width="2" fill="none"></polyline>
<polyline points="2175.84,2252.17,5043.46,205.768" stroke="rgb(191,255,0)" stroke-width="2" fill="none"></polyline>
<polyline points="1925.09,2127.93,5038.91,267.566" stroke="rgb(110,0,255)" stroke-width="2" fill="none"></polyline>
<polyline points="1111.09,1577.02,4774.1,753.269" stroke="rgb(246,255,0)" stroke-width="2" fill="none"></polyline>
<polyline points="1155.69,881.717,6549.89,768.919" stroke="rgb(255,182,0)" stroke-width="2" fill="none"></polyline>
<polyline points="2324.05,1534.03,5367.25,282.786" stroke="rgb(255,38,0)" stroke-width="2" fill="none"></polyline>
<polyline points="2323.04,2141.25,5451.52,312.308" stroke="rgb(255,0,187)" stroke-width="2" fill="none"></polyline>
<polyline points="908.376,2482.54,4688.06,2381.09" stroke="rgb(0,187,255)" stroke-width="2" fill="none"></polyline>
<polyline points="1524.79,2108.83,5353.27,2405.75" stroke="rgb(106,255,0)" stroke-width="2" fill="none"></polyline>
<polyline points="802.182,2546.74,5406.88,2435.63" stroke="rgb(255,0,59)" stroke-width="2" fill="none"></polyline>
<polyline points="2127.83,2236.56,5871.3,325.158" stroke="rgb(0,255,38)" stroke-width="2" fill="none"></polyline>
<polyline points="1251.64,2112.2,5996.28,343.005" stroke="rgb(144,255,0)" stroke-width="2" fill="none"></polyline>
<polyline points="1564.35,2406.14,5813.51,1209.22" stroke="rgb(0,255,229)" stroke-width="2" fill="none"></polyline>
<polyline points="1550.22,2182.12,5619.53,359.095" stroke="rgb(42,0,255)" stroke-width="2" fill="none"></polyline>
<polyline points="1556.17,2179.11,5616.19,365.586" stroke="rgb(255,0,169)" stroke-width="2" fill="none"></polyline>
<polyline points="1819.3,1186.98,5544.65,370.696" stroke="rgb(255,119,0)" stroke-width="2" fill="none"></polyline>
<polyline points="1556.17,2179.11,5616.19,365.586" stroke="rgb(0,101,255)" stroke-width="2" fill="none"></polyline>
<polyline points="1793.36,1189.15,5509.66,371.854" stroke="rgb(0,182,255)" stroke-width="2" fill="none"></polyline>
<polyline points="2323.04,2141.25,5736.26,420.733" stroke="rgb(255,0,38)" stroke-width="2" fill="none"></polyline>
<polyline points="1488.29,2077.07,5266.89,438.136" stroke="rgb(0,255,93)" stroke-width="2" fill="none"></polyline>
<polyline points="1033.73,2175.9,6039.72,1339.24" stroke="rgb(254,0,255)" stroke-width="2" fill="none"></polyline>
<polyline points="1550.22,2182.12,5400.55,426.426" stroke="rgb(153,255,0)" stroke-width="2" fill="none"></polyline>
<polyline points="2268.23,2317.87,5169.42,2588.51" stroke="rgb(0,255,242)" stroke-width="2" fill="none"></polyline>
<polyline points="1819.3,1186.98,5455.73,456.145" stroke="rgb(0,46,255)" stroke-width="2" fill="none"></polyline>
<polyline points="1770.76,1264.06,5732.83,460.906" stroke="rgb(135,0,255)" stroke-width="2" fill="none"></polyline>
<polyline points="1842.16,1257.26,5399.07,468.812" stroke="rgb(0,255,246)" stroke-width="2" fill="none"></polyline>
<polyline points="1925.09,2127.93,5289.71,530.993" stroke="rgb(17,0,255)" stroke-width="2" fill="none"></polyline>
<polyline points="1819.3,1186.98,5461.93,475.099" stroke="rgb(255,89,0)" stroke-width="2" fill="none"></polyline>
<polyline points="818.58,2073.65,5045.37,361.605" stroke="rgb(250,0,255)" stroke-width="2" fill="none"></polyline>
<polyline points="1371.25,1661.64,5915.61,1507.03" stroke="rgb(221,0,255)" stroke-width="2" fill="none"></polyline>
<polyline points="1819.3,1186.98,5385.5,365.128" stroke="rgb(0,114,255)" stroke-width="2" fill="none"></polyline>
<polyline points="1825.61,1169.57,5375.06,381.861" stroke="rgb(0,255,4)" stroke-width="2" fill="none"></polyline>
<polyline points="1925.09,2127.93,5285.49,518.084" stroke="rgb(0,0,255)" stroke-width="2" fill="none"></polyline>
<polyline points="2336.4,2173.18,5449.32,639.148" stroke="rgb(0,255,0)" stroke-width="2" fill="none"></polyline>
<polyline points="2336.4,2173.18,5705.03,529.988" stroke="rgb(255,233,0)" stroke-width="2" fill="none"></polyline>
<polyline points="899.698,1989.35,4902.98,660.465" stroke="rgb(182,0,255)" stroke-width="2" fill="none"></polyline>
<polyline points="987.225,1460.1,5464.1,685.705" stroke="rgb(0,255,38)" stroke-width="2" fill="none"></polyline>
<polyline points="1346.83,787.417,5650.14,690.631" stroke="rgb(255,46,0)" stroke-width="2" fill="none"></polyline>
<polyline points="1202.87,2182.98,5591.41,1579.36" stroke="rgb(255,0,38)" stroke-width="2" fill="none"></polyline>
<polyline points="987.225,1460.1,5455.37,696.51" stroke="rgb(101,255,0)" stroke-width="2" fill="none"></polyline>
<polyline points="2323.04,2141.25,5494.18,628.472" stroke="rgb(255,0,8)" stroke-width="2" fill="none"></polyline>
<polyline points="1849.84,1252.5,5412.4,459.815" stroke="rgb(0,255,0)" stroke-width="2" fill="none"></polyline>
<polyline points="1434.5,1210.01,6241.22,1863.48" stroke="rgb(0,242,255)" stroke-width="2" fill="none"></polyline>
<polyline points="2272.56,2305.98,5063.07,1888.03" stroke="rgb(255,187,0)" stroke-width="2" fill="none"></polyline>
<polyline points="1305.21,1723.73,4778.91,875.032" stroke="rgb(8,0,255)" stroke-width="2" fill="none"></polyline>
<polyline points="1164.51,1711.3,4936.79,2002.06" stroke="rgb(0,255,97)" stroke-width="2" fill="none"></polyline>
<polyline points="1086.77,1932.15,5035.86,895.788" stroke="rgb(255,0,233)" stroke-width="2" fill="none"></polyline>
<polyline points="977.045,1771.61,4318.82,543.418" stroke="rgb(255,0,127)" stroke-width="2" fill="none"></polyline>
<polyline points="827.827,2537.75,5374.43,1847.22" stroke="rgb(0,119,255)" stroke-width="2" fill="none"></polyline>
<polyline points="1965.07,2374.87,5601.64,560.119" stroke="rgb(238,0,255)" stroke-width="2" fill="none"></polyline>
<polyline points="631.463,2238.92,5206.65,1771.48" stroke="rgb(33,255,0)" stroke-width="2" fill="none"></polyline>
<polyline points="818.58,2073.65,5339.15,1808.77" stroke="rgb(255,102,0)" stroke-width="2" fill="none"></polyline>
<polyline points="818.58,2073.65,5326.37,1819.59" stroke="rgb(255,85,0)" stroke-width="2" fill="none"></polyline>
<polyline points="804.368,2069.44,5007.32,606.03" stroke="rgb(0,255,174)" stroke-width="2" fill="none"></polyline>
<polyline points="899.698,1989.35,5700.74,724.949" stroke="rgb(55,0,255)" stroke-width="2" fill="none"></polyline>
<polyline points="818.58,2073.65,5365.05,2315.19" stroke="rgb(0,255,191)" stroke-width="2" fill="none"></polyline>
<polyline points="1256.95,2374.07,4991.33,782.222" stroke="rgb(0,123,255)" stroke-width="2" fill="none"></polyline>
<polyline points="1163.89,1259.52,4899.58,2653.44" stroke="rgb(0,255,72)" stroke-width="2" fill="none"></polyline>
<polyline points="1177.55,2287.05,4943.35,2763.21" stroke="rgb(0,229,255)" stroke-width="2" fill="none"></polyline>
<polyline points="1852.74,1207.33,5399.3,395.468" stroke="rgb(0,255,131)" stroke-width="2" fill="none"></polyline>
<polyline points="818.58,2073.65,5146.55,2367.02" stroke="rgb(255,0,246)" stroke-width="2" fill="none"></polyline>
<polyline points="2172.48,1666.58,6644.28,413.136" stroke="rgb(135,0,255)" stroke-width="2" fill="none"></polyline>
<polyline points="802.182,2546.74,4575.74,764.654" stroke="rgb(0,255,101)" stroke-width="2" fill="none"></polyline>
<polyline points="1256.95,2374.07,4992.05,782.397" stroke="rgb(0,246,255)" stroke-width="2" fill="none"></polyline>
<polyline points="1850.54,1246.13,5409.48,449.092" stroke="rgb(102,0,255)" stroke-width="2" fill="none"></polyline>
<polyline points="818.923,2011.23,6642.06,465.413" stroke="rgb(0,174,255)" stroke-width="2" fill="none"></polyline>
<polyline points="1004.07,1246.1,6546.01,450.48" stroke="rgb(255,0,97)" stroke-width="2" fill="none"></polyline>
<polyline points="2353.86,1362.6,5567.74,512.303" stroke="rgb(106,0,255)" stroke-width="2" fill="none"></polyline>
<polyline points="635.23,2244.26,4976.21,575.33" stroke="rgb(157,255,0)" stroke-width="2" fill="none"></polyline>
<polyline points="2441.18,1803.99,6781.25,2547.56" stroke="rgb(255,0,136)" stroke-width="2" fill="none"></polyline>
<polyline points="2315.89,2171.55,6592.29,1610.39" stroke="rgb(255,8,0)" stroke-width="2" fill="none"></polyline>
<polyline points="1290.93,1957.78,5789.56,2186.96" stroke="rgb(255,0,199)" stroke-width="2" fill="none"></polyline>
<polyline points="1299.73,1336.28,5821.42,2093.65" stroke="rgb(255,0,165)" stroke-width="2" fill="none"></polyline>
<polyline points="1238.95,1904.54,5330.74,2628.43" stroke="rgb(255,242,0)" stroke-width="2" fill="none"></polyline>
<circle cx="1650.89" cy="1659.32" r="4" stroke="rgb(0,203,255)" stroke-width="2" fill="none"></circle>
<circle cx="6502.02" cy="2080.72" r="4" stroke="rgb(0,203,255)" stroke-width="2" fill="none"></circle>
<circle cx="571.029" cy="2291.85" r="4" stroke="rgb(0,250,255)" stroke-width="2" fill="none"></circle>
<circle cx="4997.03" cy="123.155" r="4" stroke="rgb(0,250,255)" stroke-width="2" fill="none"></circle>
<circle cx="2175.84" cy="2252.17" r="4" stroke="rgb(191,255,0)" stroke-width="2" fill="none"></circle>
<circle cx="5043.46" cy="205.768" r="4" stroke="rgb(191,255,0)" stroke-width="2" fill="none"></circle>
<circle cx="1925.09" cy="2127.93" r="4" stroke="rgb(110,0,255)" stroke-width="2" fill="none"></circle>
<circle cx="5038.91" cy="267.566" r="4" stroke="rgb(110,0,255)" stroke-width="2" fill="none"></circle>
<circle cx="1111.09" cy="1577.02" r="4" stroke="rgb(246,255,0)" stroke-width="2" fill="none"></circle>
<circle cx="4774.1" cy="753.269" r="4" stroke="rgb(246,255,0)" stroke-width="2" fill="none"></circle>
<circle cx="1155.69" cy="881.717" r="4" stroke="rgb(255,182,0)" stroke-width="2" fill="none"></circle>
<circle cx="6549.89" cy="768.919" r="4" stroke="rgb(255,182,0)" stroke-width="2" fill="none"></circle>
<circle cx="2324.05" cy="1534.03" r="4" stroke="rgb(255,38,0)" stroke-width="2" fill="none"></circle>
<circle cx="5367.25" cy="282.786" r="4" stroke="rgb(255,38,0)" stroke-width="2" fill="none"></circle>
<circle cx="2323.04" cy="2141.25" r="4" stroke="rgb(255,0,187)" stroke-width="2" fill="none"></circle>
<circle cx="5451.52" cy="312.308" r="4" stroke="rgb(255,0,187)" stroke-width="2" fill="none"></circle>
<circle cx="908.376" cy="2482.54" r="4" stroke="rgb(0,187,255)" stroke-width="2" fill="none"></circle>
<circle cx="4688.06" cy="2381.09" r="4" stroke="rgb(0,187,255)" stroke-width="2" fill="none"></circle>
<circle cx="1524.79" cy="2108.83" r="4" stroke="rgb(106,255,0)" stroke-width="2" fill="none"></circle>
<circle cx="5353.27" cy="2405.75" r="4" stroke="rgb(106,255,0)" stroke-width="2" fill="none"></circle>
<circle cx="802.182" cy="2546.74" r="4" stroke="rgb(255,0,59)" stroke-width="2" fill="none"></circle>
<circle cx="5406.88" cy="2435.63" r="4" stroke="rgb(255,0,59)" stroke-width="2" fill="none"></circle>
<circle cx="2127.83" cy="2236.56" r="4" stroke="rgb(0,255,38)" stroke-width="2" fill="none"></circle>
<circle cx="5871.3" cy="325.158" r="4" stroke="rgb(0,255,38)" stroke-width="2" fill="none"></circle>
<circle cx="1251.64" cy="2112.2" r="4" stroke="rgb(144,255,0)" stroke-width="2" fill="none"></circle>
<circle cx="5996.28" cy="343.005" r="4" stroke="rgb(144,255,0)" stroke-width="2" fill="none"></circle>
<circle cx="1564.35" cy="2406.14" r="4" stroke="rgb(0,255,229)" stroke-width="2" fill="none"></circle>
<circle cx="5813.51" cy="1209.22" r="4" stroke="rgb(0,255,229)" stroke-width="2" fill="none"></circle>
<circle cx="1550.22" cy="2182.12" r="4" stroke="rgb(42,0,255)" stroke-width="2" fill="none"></circle>
<circle cx="5619.53" cy="359.095" r="4" stroke="rgb(42,0,255)" stroke-width="2" fill="none"></circle>
<circle cx="1556.17" cy="2179.11" r="4" stroke="rgb(255,0,169)" stroke-width="2" fill="none"></circle>
<circle cx="5616.19" cy="365.586" r="4" stroke="rgb(255,0,169)" stroke-width="2" fill="none"></circle>
<circle cx="1819.3" cy="1186.98" r="4" stroke="rgb(255,119,0)" stroke-width="2" fill="none"></circle>
<circle cx="5544.65" cy="370.696" r="4" stroke="rgb(255,119,0)" stroke-width="2" fill="none"></circle>
<circle cx="1556.17" cy="2179.11" r="4" stroke="rgb(0,101,255)" stroke-width="2" fill="none"></circle>
<circle cx="5616.19" cy="365.586" r="4" stroke="rgb(0,101,255)" stroke-width="2" fill="none"></circle>
<circle cx="1793.36" cy="1189.15" r="4" stroke="rgb(0,182,255)" stroke-width="2" fill="none"></circle>
<circle cx="5509.66" cy="371.854" r="4" stroke="rgb(0,182,255)" stroke-width="2" fill="none"></circle>
<circle cx="2323.04" cy="2141.25" r="4" stroke="rgb(255,0,38)" stroke-width="2" fill="none"></circle>
<circle cx="5736.26" cy="420.733" r="4" stroke="rgb(255,0,38)" stroke-width="2" fill="none"></circle>
<circle cx="1488.29" cy="2077.07" r="4" stroke="rgb(0,255,93)" stroke-width="2" fill="none"></circle>
<circle cx="5266.89" cy="438.136" r="4" stroke="rgb(0,255,93)" stroke-width="2" fill="none"></circle>
<circle cx="1033.73" cy="2175.9" r="4" stroke="rgb(254,0,255)" stroke-width="2" fill="none"></circle>
<circle cx="6039.72" cy="1339.24" r="4" stroke="rgb(254,0,255)" stroke-width="2" fill="none"></circle>
<circle cx="1550.22" cy="2182.12" r="4" stroke="rgb(153,255,0)" stroke-width="2" fill="none"></circle>
<circle cx="5400.55" cy="426.426" r="4" stroke="rgb(153,255,0)" stroke-width="2" fill="none"></circle>
<circle cx="2268.23" cy="2317.87" r="4" stroke="rgb(0,255,242)" stroke-width="2" fill="none"></circle>
<circle cx="5169.42" cy="2588.51" r="4" stroke="rgb(0,255,242)" stroke-width="2" fill="none"></circle>
<circle cx="1819.3" cy="1186.98" r="4" stroke="rgb(0,46,255)" stroke-width="2" fill="none"></circle>
<circle cx="5455.73" cy="456.145" r="4" stroke="rgb(0,46,255)" stroke-width="2" fill="none"></circle>
<circle cx="1770.76" cy="1264.06" r="4" stroke="rgb(135,0,255)" stroke-width="2" fill="none"></circle>
<circle cx="5732.83" cy="460.906" r="4" stroke="rgb(135,0,255)" stroke-width="2" fill="none"></circle>
<circle cx="1842.16" cy="1257.26" r="4" stroke="rgb(0,255,246)" stroke-width="2" fill="none"></circle>
<circle cx="5399.07" cy="468.812" r="4" stroke="rgb(0,255,246)" stroke-width="2" fill="none"></circle>
<circle cx="1925.09" cy="2127.93" r="4" stroke="rgb(17,0,255)" stroke-width="2" fill="none"></circle>
<circle cx="5289.71" cy="530.993" r="4" stroke="rgb(17,0,255)" stroke-width="2" fill="none"></circle>
<circle cx="1819.3" cy="1186.98" r="4" stroke="rgb(255,89,0)" stroke-width="2" fill="none"></circle>
<circle cx="5461.93" cy="475.099" r="4" stroke="rgb(255,89,0)" stroke-width="2" fill="none"></circle>
<circle cx="818.58" cy="2073.65" r="4" stroke="rgb(250,0,255)" stroke-width="2" fill="none"></circle>
<circle cx="5045.37" cy="361.605" r="4" stroke="rgb(250,0,255)" stroke-width="2" fill="none"></circle>
<circle cx="1371.25" cy="1661.64" r="4" stroke="rgb(221,0,255)" stroke-width="2" fill="none"></circle>
<circle cx="5915.61" cy="1507.03" r="4" stroke="rgb(221,0,255)" stroke-width="2" fill="none"></circle>
<circle cx="1819.3" cy="1186.98" r="4" stroke="rgb(0,114,255)" stroke-width="2" fill="none"></circle>
<circle cx="5385.5" cy="365.128" r="4" stroke="rgb(0,114,255)" stroke-width="2" fill="none"></circle>
<circle cx="1825.61" cy="1169.57" r="4" stroke="rgb(0,255,4)" stroke-width="2" fill="none"></circle>
<circle cx="5375.06" cy="381.861" r="4" stroke="rgb(0,255,4)" stroke-width="2" fill="none"></circle>
<circle cx="1925.09" cy="2127.93" r="4" stroke="rgb(0,0,255)" stroke-width="2" fill="none"></circle>
<circle cx="5285.49" cy="518.084" r="4" stroke="rgb(0,0,255)" stroke-width="2" fill="none"></circle>
<circle cx="2336.4" cy="2173.18" r="4" stroke="rgb(0,255,0)" stroke-width="2" fill="none"></circle>
<circle cx="5449.32" cy="639.148" r="4" stroke="rgb(0,255,0)" stroke-width="2" fill="none"></circle>
<circle cx="2336.4" cy="2173.18" r="4" stroke="rgb(255,233,0)" stroke-width="2" fill="none"></circle>
<circle cx="5705.03" cy="529.988" r="4" stroke="rgb(255,233,0)" stroke-width="2" fill="none"></circle>
<circle cx="899.698" cy="1989.35" r="4" stroke="rgb(182,0,255)" stroke-width="2" fill="none"></circle>
<circle cx="4902.98" cy="660.465" r="4" stroke="rgb(182,0,255)" stroke-width="2" fill="none"></circle>
<circle cx="987.225" cy="1460.1" r="4" stroke="rgb(0,255,38)" stroke-width="2" fill="none"></circle>
<circle cx="5464.1" cy="685.705" r="4" stroke="rgb(0,255,38)" stroke-width="2" fill="none"></circle>
<circle cx="1346.83" cy="787.417" r="4" stroke="rgb(255,46,0)" stroke-width="2" fill="none"></circle>
<circle cx="5650.14" cy="690.631" r="4" stroke="rgb(255,46,0)" stroke-width="2" fill="none"></circle>
<circle cx="1202.87" cy="2182.98" r="4" stroke="rgb(255,0,38)" stroke-width="2" fill="none"></circle>
<circle cx="5591.41" cy="1579.36" r="4" stroke="rgb(255,0,38)" stroke-width="2" fill="none"></circle>
<circle cx="987.225" cy="1460.1" r="4" stroke="rgb(101,255,0)" stroke-width="2" fill="none"></circle>
<circle cx="5455.37" cy="696.51" r="4" stroke="rgb(101,255,0)" stroke-width="2" fill="none"></circle>
<circle cx="2323.04" cy="2141.25" r="4" stroke="rgb(255,0,8)" stroke-width="2" fill="none"></circle>
<circle cx="5494.18" cy="628.472" r="4" stroke="rgb(255,0,8)" stroke-width="2" fill="none"></circle>
<circle cx="1849.84" cy="1252.5" r="4" stroke="rgb(0,255,0)" stroke-width="2" fill="none"></circle>
<circle cx="5412.4" cy="459.815" r="4" stroke="rgb(0,255,0)" stroke-width="2" fill="none"></circle>
<circle cx="1434.5" cy="1210.01" r="4" stroke="rgb(0,242,255)" stroke-width="2" fill="none"></circle>
<circle cx="6241.22" cy="1863.48" r="4" stroke="rgb(0,242,255)" stroke-width="2" fill="none"></circle>
<circle cx="2272.56" cy="2305.98" r="4" stroke="rgb(255,187,0)" stroke-width="2" fill="none"></circle>
<circle cx="5063.07" cy="1888.03" r="4" stroke="rgb(255,187,0)" stroke-width="2" fill="none"></circle>
<circle cx="1305.21" cy="1723.73" r="4" stroke="rgb(8,0,255)" stroke-width="2" fill="none"></circle>
<circle cx="4778.91" cy="875.032" r="4" stroke="rgb(8,0,255)" stroke-width="2" fill="none"></circle>
<circle cx="1164.51" cy="1711.3" r="4" stroke="rgb(0,255,97)" stroke-width="2" fill="none"></circle>
<circle cx="4936.79" cy="2002.06" r="4" stroke="rgb(0,255,97)" stroke-width="2" fill="none"></circle>
<circle cx="1086.77" cy="1932.15" r="4" stroke="rgb(255,0,233)" stroke-width="2" fill="none"></circle>
<circle cx="5035.86" cy="895.788" r="4" stroke="rgb(255,0,233)" stroke-width="2" fill="none"></circle>
<circle cx="977.045" cy="1771.61" r="4" stroke="rgb(255,0,127)" stroke-width="2" fill="none"></circle>
<circle cx="4318.82" cy="543.418" r="4" stroke="rgb(255,0,127)" stroke-width="2" fill="none"></circle>
<circle cx="827.827" cy="2537.75" r="4" stroke="rgb(0,119,255)" stroke-width="2" fill="none"></circle>
<circle cx="5374.43" cy="1847.22" r="4" stroke="rgb(0,119,255)" stroke-width="2" fill="none"></circle>
<circle cx="1965.07" cy="2374.87" r="4" stroke="rgb(238,0,255)" stroke-width="2" fill="none"></circle>
<circle cx="5601.64" cy="560.119" r="4" stroke="rgb(238,0,255)" stroke-width="2" fill="none"></circle>
<circle cx="631.463" cy="2238.92" r="4" stroke="rgb(33,255,0)" stroke-width="2" fill="none"></circle>
<circle cx="5206.65" cy="1771.48" r="4" stroke="rgb(33,255,0)" stroke-width="2" fill="none"></circle>
<circle cx="818.58" cy="2073.65" r="4" stroke="rgb(255,102,0)" stroke-width="2" fill="none"></circle>
<circle cx="5339.15" cy="1808.77" r="4" stroke="rgb(255,102,0)" stroke-width="2" fill="none"></circle>
<circle cx="818.58" cy="2073.65" r="4" stroke="rgb(255,85,0)" stroke-width="2" fill="none"></circle>
<circle cx="5326.37" cy="1819.59" r="4" stroke="rgb(255,85,0)" stroke-width="2" fill="none"></circle>
<circle cx="804.368" cy="2069.44" r="4" stroke="rgb(0,255,174)" stroke-width="2" fill="none"></circle>
<circle cx="5007.32" cy="606.03" r="4" stroke="rgb(0,255,174)" stroke-width="2" fill="none"></circle>
<circle cx="899.698" cy="1989.35" r="4" stroke="rgb(55,0,255)" stroke-width="2" fill="none"></circle>
<circle cx="5700.74" cy="724.949" r="4" stroke="rgb(55,0,255)" stroke-width="2" fill="none"></circle>
<circle cx="818.58" cy="2073.65" r="4" stroke="rgb(0,255,191)" stroke-width="2" fill="none"></circle>
<circle cx="5365.05" cy="2315.19" r="4" stroke="rgb(0,255,191)" stroke-width="2" fill="none"></circle>
<circle cx="1256.95" cy="2374.07" r="4" stroke="rgb(0,123,255)" stroke-width="2" fill="none"></circle>
<circle cx="4991.33" cy="782.222" r="4" stroke="rgb(0,123,255)" stroke-width="2" fill="none"></circle>
<circle cx="1163.89" cy="1259.52" r="4" stroke="rgb(0,255,72)" stroke-width="2" fill="none"></circle>
<circle cx="4899.58" cy="2653.44" r="4" stroke="rgb(0,255,72)" stroke-width="2" fill="none"></circle>
<circle cx="1177.55" cy="2287.05" r="4" stroke="rgb(0,229,255)" stroke-width="2" fill="none"></circle>
<circle cx="4943.35" cy="2763.21" r="4" stroke="rgb(0,229,255)" stroke-width="2" fill="none"></circle>
<circle cx="1852.74" cy="1207.33" r="4" stroke="rgb(0,255,131)" stroke-width="2" fill="none"></circle>
<circle cx="5399.3" cy="395.468" r="4" stroke="rgb(0,255,131)" stroke-width="2" fill="none"></circle>
<circle cx="818.58" cy="2073.65" r="4" stroke="rgb(255,0,246)" stroke-width="2" fill="none"></circle>
<circle cx="5146.55" cy="2367.02" r="4" stroke="rgb(255,0,246)" stroke-width="2" fill="none"></circle>
<circle cx="2172.48" cy="1666.58" r="4" stroke="rgb(135,0,255)" stroke-width="2" fill="none"></circle>
<circle cx="6644.28" cy="413.136" r="4" stroke="rgb(135,0,255)" stroke-width="2" fill="none"></circle>
<circle cx="802.182" cy="2546.74" r="4" stroke="rgb(0,255,101)" stroke-width="2" fill="none"></circle>
<circle cx="4575.74" cy="764.654" r="4" stroke="rgb(0,255,101)" stroke-width="2" fill="none"></circle>
<circle cx="1256.95" cy="2374.07" r="4" stroke="rgb(0,246,255)" stroke-width="2" fill="none"></circle>
<circle cx="4992.05" cy="782.397" r="4" stroke="rgb(0,246,255)" stroke-width="2" fill="none"></circle>
<circle cx="1850.54" cy="1246.13" r="4" stroke="rgb(102,0,255)" stroke-width="2" fill="none"></circle>
<circle cx="5409.48" cy="449.092" r="4" stroke="rgb(102,0,255)" stroke-width="2" fill="none"></circle>
<circle cx="818.923" cy="2011.23" r="4" stroke="rgb(0,174,255)" stroke-width="2" fill="none"></circle>
<circle cx="6642.06" cy="465.413" r="4" stroke="rgb(0,174,255)" stroke-width="2" fill="none"></circle>
<circle cx="1004.07" cy="1246.1" r="4" stroke="rgb(255,0,97)" stroke-width="2" fill="none"></circle>
<circle cx="6546.01" cy="450.48" r="4" stroke="rgb(255,0,97)" stroke-width="2" fill="none"></circle>
<circle cx="2353.86" cy="1362.6" r="4" stroke="rgb(106,0,255)" stroke-width="2" fill="none"></circle>
<circle cx="5567.74" cy="512.303" r="4" stroke="rgb(106,0,255)" stroke-width="2" fill="none"></circle>
<circle cx="635.23" cy="2244.26" r="4" stroke="rgb(157,255,0)" stroke-width="2" fill="none"></circle>
<circle cx="4976.21" cy="575.33" r="4" stroke="rgb(157,255,0)" stroke-width="2" fill="none"></circle>
<circle cx="2441.18" cy="1803.99" r="4" stroke="rgb(255,0,136)" stroke-width="2" fill="none"></circle>
<circle cx="6781.25" cy="2547.56" r="4" stroke="rgb(255,0,136)" stroke-width="2" fill="none"></circle>
<circle cx="2315.89" cy="2171.55" r="4" stroke="rgb(255,8,0)" stroke-width="2" fill="none"></circle>
<circle cx="6592.29" cy="1610.39" r="4" stroke="rgb(255,8,0)" stroke-width="2" fill="none"></circle>
<circle cx="1290.93" cy="1957.78" r="4" stroke="rgb(255,0,199)" stroke-width="2" fill="none"></circle>
<circle cx="5789.56" cy="2186.96" r="4" stroke="rgb(255,0,199)" stroke-width="2" fill="none"></circle>
<circle cx="1299.73" cy="1336.28" r="4" stroke="rgb(255,0,165)" stroke-width="2" fill="none"></circle>
<circle cx="5821.42" cy="2093.65" r="4" stroke="rgb(255,0,165)" stroke-width="2" fill="none"></circle>
<circle cx="1238.95" cy="1904.54" r="4" stroke="rgb(255,242,0)" stroke-width="2" fill="none"></circle>
<circle cx="5330.74" cy="2628.43" r="4" stroke="rgb(255,242,0)" stroke-width="2" fill="none"></circle>
</svg>