<?xml version="1.0" standalone="yes"?>
<!-- SVG graphic -->
<svg xmlns='http://www.w3.org/2000/svg' xmlns:xlink='http://www.w3.org/1999/xlink'
width="8064px" height="3024px" preserveAspectRatio="xMinYMin meet" viewBox="0 0 8064 3024" version="1.1">
<image x="0" y="0" width="4032px" height="3024px" opacity="1" xlink:href="/home/jeong/Code/2D-to-3D-Modeling-using-AI/Make3D/Image/20200227_180659.jpg"/>
<image x="4032" y="0" width="4032px" height="3024px" opacity="1" xlink:href="/home/jeong/Code/2D-to-3D-Modeling-using-AI/Make3D/Image/20200227_180732.jpg"/>
<polyline points="1216.55,796.208,6056.16,1439.07" stroke="rgb(208,0,255)" stroke-width="2" fill="none"></polyline>
<polyline points="1605.14,987.009,6404.47,2031.78" stroke="rgb(16,255,0)" stroke-width="2" fill="none"></polyline>
<polyline points="1127.35,987.656,5992.58,1679.12" stroke="rgb(84,255,0)" stroke-width="2" fill="none"></polyline>
<polyline points="1886.8,1007.71,6459.27,2215.36" stroke="rgb(221,255,0)" stroke-width="2" fill="none"></polyline>
<polyline points="1128.14,1025.06,6364.6,2075.51" stroke="rgb(255,0,199)" stroke-width="2" fill="none"></polyline>
<polyline points="1194.19,1049.17,6393.26,2240.48" stroke="rgb(255,0,106)" stroke-width="2" fill="none"></polyline>
<polyline points="1538.71,1087.04,6802.61,1613.03" stroke="rgb(0,59,255)" stroke-width="2" fill="none"></polyline>
<polyline points="1681.11,1089.66,6567.82,1263.78" stroke="rgb(0,255,195)" stroke-width="2" fill="none"></polyline>
<polyline points="1890.22,1091.8,5787.02,1199.29" stroke="rgb(0,221,255)" stroke-width="2" fill="none"></polyline>
<polyline points="1609.68,1119.38,6890.33,1471.66" stroke="rgb(97,255,0)" stroke-width="2" fill="none"></polyline>
<polyline points="1452.38,1154.7,6862.73,2127.63" stroke="rgb(246,255,0)" stroke-width="2" fill="none"></polyline>
<polyline points="1372.64,1189.42,6913.05,1347.16" stroke="rgb(255,114,0)" stroke-width="2" fill="none"></polyline>
<polyline points="1396.58,1191.39,6435.2,1669.33" stroke="rgb(17,0,255)" stroke-width="2" fill="none"></polyline>
<polyline points="1279.62,1206.43,6441.09,1128.69" stroke="rgb(255,0,72)" stroke-width="2" fill="none"></polyline>
<polyline points="1370.56,1219.99,6043.46,2689.72" stroke="rgb(255,0,101)" stroke-width="2" fill="none"></polyline>
<polyline points="1334.31,1225.63,6313.04,1714.78" stroke="rgb(0,255,118)" stroke-width="2" fill="none"></polyline>
<polyline points="1267.9,1245.63,6352.2,2258.2" stroke="rgb(255,0,161)" stroke-width="2" fill="none"></polyline>
<polyline points="1761.25,1264.31,6365.51,2271.64" stroke="rgb(144,255,0)" stroke-width="2" fill="none"></polyline>
<polyline points="1341.13,1266.42,5805.11,2451.94" stroke="rgb(0,165,255)" stroke-width="2" fill="none"></polyline>
<polyline points="1025.57,1271.93,6745.87,1410.19" stroke="rgb(255,59,0)" stroke-width="2" fill="none"></polyline>
<polyline points="1403.17,1277.48,5596.91,1298.1" stroke="rgb(255,12,0)" stroke-width="2" fill="none"></polyline>
<polyline points="1152.02,1341.83,6959.33,1873.75" stroke="rgb(89,255,0)" stroke-width="2" fill="none"></polyline>
<polyline points="1391.87,1347.05,6922.82,2137.46" stroke="rgb(255,0,221)" stroke-width="2" fill="none"></polyline>
<polyline points="1152.55,1348.92,6545.19,1765.63" stroke="rgb(0,255,8)" stroke-width="2" fill="none"></polyline>
<polyline points="2524.88,1355.16,5822.88,2497.44" stroke="rgb(0,255,186)" stroke-width="2" fill="none"></polyline>
<polyline points="1698.78,1385.72,6947.85,2101.83" stroke="rgb(0,29,255)" stroke-width="2" fill="none"></polyline>
<polyline points="1328.86,1393.56,5857.16,2598.63" stroke="rgb(0,119,255)" stroke-width="2" fill="none"></polyline>
<polyline points="2166.9,1394.7,6432.36,1886.14" stroke="rgb(34,0,255)" stroke-width="2" fill="none"></polyline>
<polyline points="2309.29,1400.31,5919.43,2648.14" stroke="rgb(0,182,255)" stroke-width="2" fill="none"></polyline>
<polyline points="1070.85,1414.6,6161.42,1364.81" stroke="rgb(221,255,0)" stroke-width="2" fill="none"></polyline>
<polyline points="2330.08,1430.95,6304.65,1592.48" stroke="rgb(233,0,255)" stroke-width="2" fill="none"></polyline>
<polyline points="1433.15,1459.44,5839.2,2469.22" stroke="rgb(255,0,4)" stroke-width="2" fill="none"></polyline>
<polyline points="1260.74,1460.2,6405.91,1694.2" stroke="rgb(255,238,0)" stroke-width="2" fill="none"></polyline>
<polyline points="1419.95,1470.1,5928.51,2539.42" stroke="rgb(114,0,255)" stroke-width="2" fill="none"></polyline>
<polyline points="1157.46,1549.49,6050.6,1517.35" stroke="rgb(225,255,0)" stroke-width="2" fill="none"></polyline>
<polyline points="2539.31,1553.74,6423.24,1487.89" stroke="rgb(255,38,0)" stroke-width="2" fill="none"></polyline>
<polyline points="1203.73,1569.91,6174.95,1700.5" stroke="rgb(25,255,0)" stroke-width="2" fill="none"></polyline>
<polyline points="1305,1593.94,6141.29,1832.1" stroke="rgb(225,0,255)" stroke-width="2" fill="none"></polyline>
<polyline points="1426.76,1602.57,5901.4,2540.35" stroke="rgb(0,255,233)" stroke-width="2" fill="none"></polyline>
<polyline points="1430.16,1611.8,5850.09,2328.48" stroke="rgb(255,0,242)" stroke-width="2" fill="none"></polyline>
<polyline points="2491.92,1679.01,6718.14,2496.11" stroke="rgb(97,0,255)" stroke-width="2" fill="none"></polyline>
<polyline points="1193.92,1724.51,6299.44,1596.6" stroke="rgb(46,255,0)" stroke-width="2" fill="none"></polyline>
<polyline points="1273.94,1733.59,5800.5,2749.05" stroke="rgb(255,0,127)" stroke-width="2" fill="none"></polyline>
<polyline points="1220.17,1757.28,6740.03,2557.32" stroke="rgb(0,255,114)" stroke-width="2" fill="none"></polyline>
<polyline points="1481.54,1757.96,5835.02,2156.82" stroke="rgb(119,255,0)" stroke-width="2" fill="none"></polyline>
<polyline points="2219.1,1801.35,6235.07,1857.11" stroke="rgb(0,255,246)" stroke-width="2" fill="none"></polyline>
<polyline points="1358.8,1814.72,6590.16,2822.61" stroke="rgb(0,255,199)" stroke-width="2" fill="none"></polyline>
<polyline points="1218,1864.33,6369.67,1507" stroke="rgb(199,0,255)" stroke-width="2" fill="none"></polyline>
<polyline points="1164.73,1899.92,6551.25,1342.83" stroke="rgb(0,255,67)" stroke-width="2" fill="none"></polyline>
<polyline points="1362.17,1918.66,6791.68,2361.52" stroke="rgb(255,34,0)" stroke-width="2" fill="none"></polyline>
<polyline points="1565.21,1994.72,6049.09,1516.57" stroke="rgb(0,255,225)" stroke-width="2" fill="none"></polyline>
<polyline points="2437.67,2085.91,6480.8,2239.09" stroke="rgb(255,51,0)" stroke-width="2" fill="none"></polyline>
<polyline points="1517.15,2109.8,6285.44,2048" stroke="rgb(255,0,89)" stroke-width="2" fill="none"></polyline>
<polyline points="1571.56,2162.44,6834,1781.89" stroke="rgb(0,255,4)" stroke-width="2" fill="none"></polyline>
<polyline points="1647.41,2203.89,6695.23,1610.93" stroke="rgb(0,255,59)" stroke-width="2" fill="none"></polyline>
<polyline points="1366.81,2205.5,6851.09,1320.84" stroke="rgb(0,255,97)" stroke-width="2" fill="none"></polyline>
<polyline points="2532.75,2212.52,6997.94,2001.05" stroke="rgb(255,0,25)" stroke-width="2" fill="none"></polyline>
<polyline points="1171.25,2225.26,6830.18,2087.03" stroke="rgb(255,0,55)" stroke-width="2" fill="none"></polyline>
<polyline points="1234.74,2233.95,5806.29,2023.05" stroke="rgb(97,0,255)" stroke-width="2" fill="none"></polyline>
<polyline points="1157.01,2238.3,6546.52,1316.59" stroke="rgb(237,255,0)" stroke-width="2" fill="none"></polyline>
<polyline points="930.44,2258.9,6325.99,1481.75" stroke="rgb(199,0,255)" stroke-width="2" fill="none"></polyline>
<polyline points="891.11,2294.64,6414.94,1608.33" stroke="rgb(0,178,255)" stroke-width="2" fill="none"></polyline>
<polyline points="1379.9,2314.63,6888.13,2439.82" stroke="rgb(242,255,0)" stroke-width="2" fill="none"></polyline>
<polyline points="1372.18,2320.52,5656.71,1468.24" stroke="rgb(0,106,255)" stroke-width="2" fill="none"></polyline>
<polyline points="1417.81,2339.47,5954.42,2374.03" stroke="rgb(255,0,97)" stroke-width="2" fill="none"></polyline>
<polyline points="917.583,2463.38,6428.54,1417.77" stroke="rgb(0,255,42)" stroke-width="2" fill="none"></polyline>
<polyline points="1698.4,2473.82,6011.64,2537.61" stroke="rgb(0,67,255)" stroke-width="2" fill="none"></polyline>
<polyline points="2346.78,2498.9,5856.83,2653.13" stroke="rgb(255,0,153)" stroke-width="2" fill="none"></polyline>
<polyline points="2453.81,2506.06,6736.35,1948.12" stroke="rgb(242,255,0)" stroke-width="2" fill="none"></polyline>
<polyline points="1700.85,2506.37,6806.97,2169.18" stroke="rgb(131,0,255)" stroke-width="2" fill="none"></polyline>
<polyline points="1087.58,2511.58,6469.52,1906.27" stroke="rgb(114,0,255)" stroke-width="2" fill="none"></polyline>
<polyline points="2445.08,2514,5571.97,1191.99" stroke="rgb(0,178,255)" stroke-width="2" fill="none"></polyline>
<polyline points="1457.12,2537.59,6450.51,2150.37" stroke="rgb(255,85,0)" stroke-width="2" fill="none"></polyline>
<polyline points="1451.89,2543.54,6416.19,1795.08" stroke="rgb(46,255,0)" stroke-width="2" fill="none"></polyline>
<polyline points="1651.12,2570.88,6427.23,1552.08" stroke="rgb(0,97,255)" stroke-width="2" fill="none"></polyline>
<polyline points="1024.3,2573.66,6714.74,1323.21" stroke="rgb(255,0,63)" stroke-width="2" fill="none"></polyline>
<polyline points="1073.18,2695.43,5878.96,1938.33" stroke="rgb(0,255,169)" stroke-width="2" fill="none"></polyline>
<polyline points="963.617,2707.66,5963.65,1724.86" stroke="rgb(255,102,0)" stroke-width="2" fill="none"></polyline>
<polyline points="994.325,2728.01,6535.66,2754.94" stroke="rgb(135,0,255)" stroke-width="2" fill="none"></polyline>
<polyline points="1013.13,2740.46,5933.98,1661.67" stroke="rgb(0,255,203)" stroke-width="2" fill="none"></polyline>
<polyline points="1018.92,2743.31,6497.86,1362.3" stroke="rgb(102,0,255)" stroke-width="2" fill="none"></polyline>
<polyline points="1101.31,2811.93,6436.92,1116.29" stroke="rgb(148,255,0)" stroke-width="2" fill="none"></polyline>
<circle cx="1216.55" cy="796.208" r="4" stroke="rgb(208,0,255)" stroke-width="2" fill="none"></circle>
<circle cx="6056.16" cy="1439.07" r="4" stroke="rgb(208,0,255)" stroke-width="2" fill="none"></circle>
<circle cx="1605.14" cy="987.009" r="4" stroke="rgb(16,255,0)" stroke-width="2" fill="none"></circle>
<circle cx="6404.47" cy="2031.78" r="4" stroke="rgb(16,255,0)" stroke-width="2" fill="none"></circle>
<circle cx="1127.35" cy="987.656" r="4" stroke="rgb(84,255,0)" stroke-width="2" fill="none"></circle>
<circle cx="5992.58" cy="1679.12" r="4" stroke="rgb(84,255,0)" stroke-width="2" fill="none"></circle>
<circle cx="1886.8" cy="1007.71" r="4" stroke="rgb(221,255,0)" stroke-width="2" fill="none"></circle>
<circle cx="6459.27" cy="2215.36" r="4" stroke="rgb(221,255,0)" stroke-width="2" fill="none"></circle>
<circle cx="1128.14" cy="1025.06" r="4" stroke="rgb(255,0,199)" stroke-width="2" fill="none"></circle>
<circle cx="6364.6" cy="2075.51" r="4" stroke="rgb(255,0,199)" stroke-width="2" fill="none"></circle>
<circle cx="1194.19" cy="1049.17" r="4" stroke="rgb(255,0,106)" stroke-width="2" fill="none"></circle>
<circle cx="6393.26" cy="2240.48" r="4" stroke="rgb(255,0,106)" stroke-width="2" fill="none"></circle>
<circle cx="1538.71" cy="1087.04" r="4" stroke="rgb(0,59,255)" stroke-width="2" fill="none"></circle>
<circle cx="6802.61" cy="1613.03" r="4" stroke="rgb(0,59,255)" stroke-width="2" fill="none"></circle>
<circle cx="1681.11" cy="1089.66" r="4" stroke="rgb(0,255,195)" stroke-width="2" fill="none"></circle>
<circle cx="6567.82" cy="1263.78" r="4" stroke="rgb(0,255,195)" stroke-width="2" fill="none"></circle>
<circle cx="1890.22" cy="1091.8" r="4" stroke="rgb(0,221,255)" stroke-width="2" fill="none"></circle>
<circle cx="5787.02" cy="1199.29" r="4" stroke="rgb(0,221,255)" stroke-width="2" fill="none"></circle>
<circle cx="1609.68" cy="1119.38" r="4" stroke="rgb(97,255,0)" stroke-width="2" fill="none"></circle>
<circle cx="6890.33" cy="1471.66" r="4" stroke="rgb(97,255,0)" stroke-width="2" fill="none"></circle>
<circle cx="1452.38" cy="1154.7" r="4" stroke="rgb(246,255,0)" stroke-width="2" fill="none"></circle>
<circle cx="6862.73" cy="2127.63" r="4" stroke="rgb(246,255,0)" stroke-width="2" fill="none"></circle>
<circle cx="1372.64" cy="1189.42" r="4" stroke="rgb(255,114,0)" stroke-width="2" fill="none"></circle>
<circle cx="6913.05" cy="1347.16" r="4" stroke="rgb(255,114,0)" stroke-width="2" fill="none"></circle>
<circle cx="1396.58" cy="1191.39" r="4" stroke="rgb(17,0,255)" stroke-width="2" fill="none"></circle>
<circle cx="6435.2" cy="1669.33" r="4" stroke="rgb(17,0,255)" stroke-width="2" fill="none"></circle>
<circle cx="1279.62" cy="1206.43" r="4" stroke="rgb(255,0,72)" stroke-width="2" fill="none"></circle>
<circle cx="6441.09" cy="1128.69" r="4" stroke="rgb(255,0,72)" stroke-width="2" fill="none"></circle>
<circle cx="1370.56" cy="1219.99" r="4" stroke="rgb(255,0,101)" stroke-width="2" fill="none"></circle>
<circle cx="6043.46" cy="2689.72" r="4" stroke="rgb(255,0,101)" stroke-width="2" fill="none"></circle>
<circle cx="1334.31" cy="1225.63" r="4" stroke="rgb(0,255,118)" stroke-width="2" fill="none"></circle>
<circle cx="6313.04" cy="1714.78" r="4" stroke="rgb(0,255,118)" stroke-width="2" fill="none"></circle>
<circle cx="1267.9" cy="1245.63" r="4" stroke="rgb(255,0,161)" stroke-width="2" fill="none"></circle>
<circle cx="6352.2" cy="2258.2" r="4" stroke="rgb(255,0,161)" stroke-width="2" fill="none"></circle>
<circle cx="1761.25" cy="1264.31" r="4" stroke="rgb(144,255,0)" stroke-width="2" fill="none"></circle>
<circle cx="6365.51" cy="2271.64" r="4" stroke="rgb(144,255,0)" stroke-width="2" fill="none"></circle>
<circle cx="1341.13" cy="1266.42" r="4" stroke="rgb(0,165,255)" stroke-width="2" fill="none"></circle>
<circle cx="5805.11" cy="2451.94" r="4" stroke="rgb(0,165,255)" stroke-width="2" fill="none"></circle>
<circle cx="1025.57" cy="1271.93" r="4" stroke="rgb(255,59,0)" stroke-width="2" fill="none"></circle>
<circle cx="6745.87" cy="1410.19" r="4" stroke="rgb(255,59,0)" stroke-width="2" fill="none"></circle>
<circle cx="1403.17" cy="1277.48" r="4" stroke="rgb(255,12,0)" stroke-width="2" fill="none"></circle>
<circle cx="5596.91" cy="1298.1" r="4" stroke="rgb(255,12,0)" stroke-width="2" fill="none"></circle>
<circle cx="1152.02" cy="1341.83" r="4" stroke="rgb(89,255,0)" stroke-width="2" fill="none"></circle>
<circle cx="6959.33" cy="1873.75" r="4" stroke="rgb(89,255,0)" stroke-width="2" fill="none"></circle>
<circle cx="1391.87" cy="1347.05" r="4" stroke="rgb(255,0,221)" stroke-width="2" fill="none"></circle>
<circle cx="6922.82" cy="2137.46" r="4" stroke="rgb(255,0,221)" stroke-width="2" fill="none"></circle>
<circle cx="1152.55" cy="1348.92" r="4" stroke="rgb(0,255,8)" stroke-width="2" fill="none"></circle>
<circle cx="6545.19" cy="1765.63" r="4" stroke="rgb(0,255,8)" stroke-width="2" fill="none"></circle>
<circle cx="2524.88" cy="1355.16" r="4" stroke="rgb(0,255,186)" stroke-width="2" fill="none"></circle>
<circle cx="5822.88" cy="2497.44" r="4" stroke="rgb(0,255,186)" stroke-width="2" fill="none"></circle>
<circle cx="1698.78" cy="1385.72" r="4" stroke="rgb(0,29,255)" stroke-width="2" fill="none"></circle>
<circle cx="6947.85" cy="2101.83" r="4" stroke="rgb(0,29,255)" stroke-width="2" fill="none"></circle>
<circle cx="1328.86" cy="1393.56" r="4" stroke="rgb(0,119,255)" stroke-width="2" fill="none"></circle>
<circle cx="5857.16" cy="2598.63" r="4" stroke="rgb(0,119,255)" stroke-width="2" fill="none"></circle>
<circle cx="2166.9" cy="1394.7" r="4" stroke="rgb(34,0,255)" stroke-width="2" fill="none"></circle>
<circle cx="6432.36" cy="1886.14" r="4" stroke="rgb(34,0,255)" stroke-width="2" fill="none"></circle>
<circle cx="2309.29" cy="1400.31" r="4" stroke="rgb(0,182,255)" stroke-width="2" fill="none"></circle>
<circle cx="5919.43" cy="2648.14" r="4" stroke="rgb(0,182,255)" stroke-width="2" fill="none"></circle>
<circle cx="1070.85" cy="1414.6" r="4" stroke="rgb(221,255,0)" stroke-width="2" fill="none"></circle>
<circle cx="6161.42" cy="1364.81" r="4" stroke="rgb(221,255,0)" stroke-width="2" fill="none"></circle>
<circle cx="2330.08" cy="1430.95" r="4" stroke="rgb(233,0,255)" stroke-width="2" fill="none"></circle>
<circle cx="6304.65" cy="1592.48" r="4" stroke="rgb(233,0,255)" stroke-width="2" fill="none"></circle>
<circle cx="1433.15" cy="1459.44" r="4" stroke="rgb(255,0,4)" stroke-width="2" fill="none"></circle>
<circle cx="5839.2" cy="2469.22" r="4" stroke="rgb(255,0,4)" stroke-width="2" fill="none"></circle>
<circle cx="1260.74" cy="1460.2" r="4" stroke="rgb(255,238,0)" stroke-width="2" fill="none"></circle>
<circle cx="6405.91" cy="1694.2" r="4" stroke="rgb(255,238,0)" stroke-width="2" fill="none"></circle>
<circle cx="1419.95" cy="1470.1" r="4" stroke="rgb(114,0,255)" stroke-width="2" fill="none"></circle>
<circle cx="5928.51" cy="2539.42" r="4" stroke="rgb(114,0,255)" stroke-width="2" fill="none"></circle>
<circle cx="1157.46" cy="1549.49" r="4" stroke="rgb(225,255,0)" stroke-width="2" fill="none"></circle>
<circle cx="6050.6" cy="1517.35" r="4" stroke="rgb(225,255,0)" stroke-width="2" fill="none"></circle>
<circle cx="2539.31" cy="1553.74" r="4" stroke="rgb(255,38,0)" stroke-width="2" fill="none"></circle>
<circle cx="6423.24" cy="1487.89" r="4" stroke="rgb(255,38,0)" stroke-width="2" fill="none"></circle>
<circle cx="1203.73" cy="1569.91" r="4" stroke="rgb(25,255,0)" stroke-width="2" fill="none"></circle>
<circle cx="6174.95" cy="1700.5" r="4" stroke="rgb(25,255,0)" stroke-width="2" fill="none"></circle>
<circle cx="1305" cy="1593.94" r="4" stroke="rgb(225,0,255)" stroke-width="2" fill="none"></circle>
<circle cx="6141.29" cy="1832.1" r="4" stroke="rgb(225,0,255)" stroke-width="2" fill="none"></circle>
<circle cx="1426.76" cy="1602.57" r="4" stroke="rgb(0,255,233)" stroke-width="2" fill="none"></circle>
<circle cx="5901.4" cy="2540.35" r="4" stroke="rgb(0,255,233)" stroke-width="2" fill="none"></circle>
<circle cx="1430.16" cy="1611.8" r="4" stroke="rgb(255,0,242)" stroke-width="2" fill="none"></circle>
<circle cx="5850.09" cy="2328.48" r="4" stroke="rgb(255,0,242)" stroke-width="2" fill="none"></circle>
<circle cx="2491.92" cy="1679.01" r="4" stroke="rgb(97,0,255)" stroke-width="2" fill="none"></circle>
<circle cx="6718.14" cy="2496.11" r="4" stroke="rgb(97,0,255)" stroke-width="2" fill="none"></circle>
<circle cx="1193.92" cy="1724.51" r="4" stroke="rgb(46,255,0)" stroke-width="2" fill="none"></circle>
<circle cx="6299.44" cy="1596.6" r="4" stroke="rgb(46,255,0)" stroke-width="2" fill="none"></circle>
<circle cx="1273.94" cy="1733.59" r="4" stroke="rgb(255,0,127)" stroke-width="2" fill="none"></circle>
<circle cx="5800.5" cy="2749.05" r="4" stroke="rgb(255,0,127)" stroke-width="2" fill="none"></circle>
<circle cx="1220.17" cy="1757.28" r="4" stroke="rgb(0,255,114)" stroke-width="2" fill="none"></circle>
<circle cx="6740.03" cy="2557.32" r="4" stroke="rgb(0,255,114)" stroke-width="2" fill="none"></circle>
<circle cx="1481.54" cy="1757.96" r="4" stroke="rgb(119,255,0)" stroke-width="2" fill="none"></circle>
<circle cx="5835.02" cy="2156.82" r="4" stroke="rgb(119,255,0)" stroke-width="2" fill="none"></circle>
<circle cx="2219.1" cy="1801.35" r="4" stroke="rgb(0,255,246)" stroke-width="2" fill="none"></circle>
<circle cx="6235.07" cy="1857.11" r="4" stroke="rgb(0,255,246)" stroke-width="2" fill="none"></circle>
<circle cx="1358.8" cy="1814.72" r="4" stroke="rgb(0,255,199)" stroke-width="2" fill="none"></circle>
<circle cx="6590.16" cy="2822.61" r="4" stroke="rgb(0,255,199)" stroke-width="2" fill="none"></circle>
<circle cx="1218" cy="1864.33" r="4" stroke="rgb(199,0,255)" stroke-width="2" fill="none"></circle>
<circle cx="6369.67" cy="1507" r="4" stroke="rgb(199,0,255)" stroke-width="2" fill="none"></circle>
<circle cx="1164.73" cy="1899.92" r="4" stroke="rgb(0,255,67)" stroke-width="2" fill="none"></circle>
<circle cx="6551.25" cy="1342.83" r="4" stroke="rgb(0,255,67)" stroke-width="2" fill="none"></circle>
<circle cx="1362.17" cy="1918.66" r="4" stroke="rgb(255,34,0)" stroke-width="2" fill="none"></circle>
<circle cx="6791.68" cy="2361.52" r="4" stroke="rgb(255,34,0)" stroke-width="2" fill="none"></circle>
<circle cx="1565.21" cy="1994.72" r="4" stroke="rgb(0,255,225)" stroke-width="2" fill="none"></circle>
<circle cx="6049.09" cy="1516.57" r="4" stroke="rgb(0,255,225)" stroke-width="2" fill="none"></circle>
<circle cx="2437.67" cy="2085.91" r="4" stroke="rgb(255,51,0)" stroke-width="2" fill="none"></circle>
<circle cx="6480.8" cy="2239.09" r="4" stroke="rgb(255,51,0)" stroke-width="2" fill="none"></circle>
<circle cx="1517.15" cy="2109.8" r="4" stroke="rgb(255,0,89)" stroke-width="2" fill="none"></circle>
<circle cx="6285.44" cy="2048" r="4" stroke="rgb(255,0,89)" stroke-width="2" fill="none"></circle>
<circle cx="1571.56" cy="2162.44" r="4" stroke="rgb(0,255,4)" stroke-width="2" fill="none"></circle>
<circle cx="6834" cy="1781.89" r="4" stroke="rgb(0,255,4)" stroke-width="2" fill="none"></circle>
<circle cx="1647.41" cy="2203.89" r="4" stroke="rgb(0,255,59)" stroke-width="2" fill="none"></circle>
<circle cx="6695.23" cy="1610.93" r="4" stroke="rgb(0,255,59)" stroke-width="2" fill="none"></circle>
<circle cx="1366.81" cy="2205.5" r="4" stroke="rgb(0,255,97)" stroke-width="2" fill="none"></circle>
<circle cx="6851.09" cy="1320.84" r="4" stroke="rgb(0,255,97)" stroke-width="2" fill="none"></circle>
<circle cx="2532.75" cy="2212.52" r="4" stroke="rgb(255,0,25)" stroke-width="2" fill="none"></circle>
<circle cx="6997.94" cy="2001.05" r="4" stroke="rgb(255,0,25)" stroke-width="2" fill="none"></circle>
<circle cx="1171.25" cy="2225.26" r="4" stroke="rgb(255,0,55)" stroke-width="2" fill="none"></circle>
<circle cx="6830.18" cy="2087.03" r="4" stroke="rgb(255,0,55)" stroke-width="2" fill="none"></circle>
<circle cx="1234.74" cy="2233.95" r="4" stroke="rgb(97,0,255)" stroke-width="2" fill="none"></circle>
<circle cx="5806.29" cy="2023.05" r="4" stroke="rgb(97,0,255)" stroke-width="2" fill="none"></circle>
<circle cx="1157.01" cy="2238.3" r="4" stroke="rgb(237,255,0)" stroke-width="2" fill="none"></circle>
<circle cx="6546.52" cy="1316.59" r="4" stroke="rgb(237,255,0)" stroke-width="2" fill="none"></circle>
<circle cx="930.44" cy="2258.9" r="4" stroke="rgb(199,0,255)" stroke-width="2" fill="none"></circle>
<circle cx="6325.99" cy="1481.75" r="4" stroke="rgb(199,0,255)" stroke-width="2" fill="none"></circle>
<circle cx="891.11" cy="2294.64" r="4" stroke="rgb(0,178,255)" stroke-width="2" fill="none"></circle>
<circle cx="6414.94" cy="1608.33" r="4" stroke="rgb(0,178,255)" stroke-width="2" fill="none"></circle>
<circle cx="1379.9" cy="2314.63" r="4" stroke="rgb(242,255,0)" stroke-width="2" fill="none"></circle>
<circle cx="6888.13" cy="2439.82" r="4" stroke="rgb(242,255,0)" stroke-width="2" fill="none"></circle>
<circle cx="1372.18" cy="2320.52" r="4" stroke="rgb(0,106,255)" stroke-width="2" fill="none"></circle>
<circle cx="5656.71" cy="1468.24" r="4" stroke="rgb(0,106,255)" stroke-width="2" fill="none"></circle>
<circle cx="1417.81" cy="2339.47" r="4" stroke="rgb(255,0,97)" stroke-width="2" fill="none"></circle>
<circle cx="5954.42" cy="2374.03" r="4" stroke="rgb(255,0,97)" stroke-width="2" fill="none"></circle>
<circle cx="917.583" cy="2463.38" r="4" stroke="rgb(0,255,42)" stroke-width="2" fill="none"></circle>
<circle cx="6428.54" cy="1417.77" r="4" stroke="rgb(0,255,42)" stroke-width="2" fill="none"></circle>
<circle cx="1698.4" cy="2473.82" r="4" stroke="rgb(0,67,255)" stroke-width="2" fill="none"></circle>
<circle cx="6011.64" cy="2537.61" r="4" stroke="rgb(0,67,255)" stroke-width="2" fill="none"></circle>
<circle cx="2346.78" cy="2498.9" r="4" stroke="rgb(255,0,153)" stroke-width="2" fill="none"></circle>
<circle cx="5856.83" cy="2653.13" r="4" stroke="rgb(255,0,153)" stroke-width="2" fill="none"></circle>
<circle cx="2453.81" cy="2506.06" r="4" stroke="rgb(242,255,0)" stroke-width="2" fill="none"></circle>
<circle cx="6736.35" cy="1948.12" r="4" stroke="rgb(242,255,0)" stroke-width="2" fill="none"></circle>
<circle cx="1700.85" cy="2506.37" r="4" stroke="rgb(131,0,255)" stroke-width="2" fill="none"></circle>
<circle cx="6806.97" cy="2169.18" r="4" stroke="rgb(131,0,255)" stroke-width="2" fill="none"></circle>
<circle cx="1087.58" cy="2511.58" r="4" stroke="rgb(114,0,255)" stroke-width="2" fill="none"></circle>
<circle cx="6469.52" cy="1906.27" r="4" stroke="rgb(114,0,255)" stroke-width="2" fill="none"></circle>
<circle cx="2445.08" cy="2514" r="4" stroke="rgb(0,178,255)" stroke-width="2" fill="none"></circle>
<circle cx="5571.97" cy="1191.99" r="4" stroke="rgb(0,178,255)" stroke-width="2" fill="none"></circle>
<circle cx="1457.12" cy="2537.59" r="4" stroke="rgb(255,85,0)" stroke-width="2" fill="none"></circle>
<circle cx="6450.51" cy="2150.37" r="4" stroke="rgb(255,85,0)" stroke-width="2" fill="none"></circle>
<circle cx="1451.89" cy="2543.54" r="4" stroke="rgb(46,255,0)" stroke-width="2" fill="none"></circle>
<circle cx="6416.19" cy="1795.08" r="4" stroke="rgb(46,255,0)" stroke-width="2" fill="none"></circle>
<circle cx="1651.12" cy="2570.88" r="4" stroke="rgb(0,97,255)" stroke-width="2" fill="none"></circle>
<circle cx="6427.23" cy="1552.08" r="4" stroke="rgb(0,97,255)" stroke-width="2" fill="none"></circle>
<circle cx="1024.3" cy="2573.66" r="4" stroke="rgb(255,0,63)" stroke-width="2" fill="none"></circle>
<circle cx="6714.74" cy="1323.21" r="4" stroke="rgb(255,0,63)" stroke-width="2" fill="none"></circle>
<circle cx="1073.18" cy="2695.43" r="4" stroke="rgb(0,255,169)" stroke-width="2" fill="none"></circle>
<circle cx="5878.96" cy="1938.33" r="4" stroke="rgb(0,255,169)" stroke-width="2" fill="none"></circle>
<circle cx="963.617" cy="2707.66" r="4" stroke="rgb(255,102,0)" stroke-width="2" fill="none"></circle>
<circle cx="5963.65" cy="1724.86" r="4" stroke="rgb(255,102,0)" stroke-width="2" fill="none"></circle>
<circle cx="994.325" cy="2728.01" r="4" stroke="rgb(135,0,255)" stroke-width="2" fill="none"></circle>
<circle cx="6535.66" cy="2754.94" r="4" stroke="rgb(135,0,255)" stroke-width="2" fill="none"></circle>
<circle cx="1013.13" cy="2740.46" r="4" stroke="rgb(0,255,203)" stroke-width="2" fill="none"></circle>
<circle cx="5933.98" cy="1661.67" r="4" stroke="rgb(0,255,203)" stroke-width="2" fill="none"></circle>
<circle cx="1018.92" cy="2743.31" r="4" stroke="rgb(102,0,255)" stroke-width="2" fill="none"></circle>
<circle cx="6497.86" cy="1362.3" r="4" stroke="rgb(102,0,255)" stroke-width="2" fill="none"></circle>
<circle cx="1101.31" cy="2811.93" r="4" stroke="rgb(148,255,0)" stroke-width="2" fill="none"></circle>
<circle cx="6436.92" cy="1116.29" r="4" stroke="rgb(148,255,0)" stroke-width="2" fill="none"></circle>
</svg>