<?xml version="1.0" standalone="yes"?>
<!-- SVG graphic -->
<svg xmlns='http://www.w3.org/2000/svg' xmlns:xlink='http://www.w3.org/1999/xlink'
width="8064px" height="3024px" preserveAspectRatio="xMinYMin meet" viewBox="0 0 8064 3024" version="1.1">
<image x="0" y="0" width="4032px" height="3024px" opacity="1" xlink:href="/home/jeong/Code/2D-to-3D-Modeling-using-AI/Make3D/Image/20200227_180701.jpg"/>
<image x="4032" y="0" width="4032px" height="3024px" opacity="1" xlink:href="/home/jeong/Code/2D-to-3D-Modeling-using-AI/Make3D/Image/20200227_180732.jpg"/>
<polyline points="1180.99,941.605,6524.51,2672.35" stroke="rgb(0,242,255)" stroke-width="2" fill="none"></polyline>
<polyline points="1028.88,952.244,6506.67,1294.52" stroke="rgb(0,255,12)" stroke-width="2" fill="none"></polyline>
<polyline points="1180.99,941.605,6534.03,2747.43" stroke="rgb(0,255,186)" stroke-width="2" fill="none"></polyline>
<polyline points="2252.46,2096.83,6567.04,2752.76" stroke="rgb(118,0,255)" stroke-width="2" fill="none"></polyline>
<polyline points="1180.99,941.605,6525.49,2767.59" stroke="rgb(0,255,254)" stroke-width="2" fill="none"></polyline>
<polyline points="2423.76,1648.32,6601.3,1285.56" stroke="rgb(255,119,0)" stroke-width="2" fill="none"></polyline>
<polyline points="1234.68,572.837,6390.29,2231.35" stroke="rgb(0,237,255)" stroke-width="2" fill="none"></polyline>
<polyline points="1228.44,2287.96,6921.25,2051.18" stroke="rgb(255,0,114)" stroke-width="2" fill="none"></polyline>
<polyline points="1124.46,1623.5,7090.77,2077.32" stroke="rgb(0,67,255)" stroke-width="2" fill="none"></polyline>
<polyline points="854.669,2221.55,5830.75,1492.81" stroke="rgb(255,182,0)" stroke-width="2" fill="none"></polyline>
<polyline points="1447.13,511.276,6331.21,2107.21" stroke="rgb(0,178,255)" stroke-width="2" fill="none"></polyline>
<polyline points="2156.88,1490.49,5922.85,1489.89" stroke="rgb(255,17,0)" stroke-width="2" fill="none"></polyline>
<polyline points="1301.4,1559.02,6013.29,1914.98" stroke="rgb(101,255,0)" stroke-width="2" fill="none"></polyline>
<polyline points="1507.05,1859.68,6376.88,1990.65" stroke="rgb(255,17,0)" stroke-width="2" fill="none"></polyline>
<polyline points="1447.13,511.276,6431.46,2192.9" stroke="rgb(38,0,255)" stroke-width="2" fill="none"></polyline>
<polyline points="1273.56,1354.23,6664.48,2535.02" stroke="rgb(255,255,0)" stroke-width="2" fill="none"></polyline>
<polyline points="1447.13,511.276,6393.26,2240.48" stroke="rgb(255,131,0)" stroke-width="2" fill="none"></polyline>
<polyline points="1180.99,941.605,6545.19,1765.63" stroke="rgb(250,255,0)" stroke-width="2" fill="none"></polyline>
<polyline points="976.359,2066,6069.68,2290.11" stroke="rgb(255,195,0)" stroke-width="2" fill="none"></polyline>
<polyline points="1309.54,953.868,6473.07,2056.8" stroke="rgb(0,255,195)" stroke-width="2" fill="none"></polyline>
<polyline points="1776.51,2180.95,5857.68,2418.05" stroke="rgb(255,51,0)" stroke-width="2" fill="none"></polyline>
<polyline points="1373.67,2005.05,6472.54,2166.92" stroke="rgb(0,140,255)" stroke-width="2" fill="none"></polyline>
<polyline points="1421.95,916.22,5836.24,2569.55" stroke="rgb(0,187,255)" stroke-width="2" fill="none"></polyline>
<polyline points="1426.04,1166.52,5835.42,2235.62" stroke="rgb(255,0,123)" stroke-width="2" fill="none"></polyline>
<polyline points="1028.88,952.244,6501.91,2614.12" stroke="rgb(0,165,255)" stroke-width="2" fill="none"></polyline>
<polyline points="1193.85,921.968,5811.28,2628.56" stroke="rgb(0,255,186)" stroke-width="2" fill="none"></polyline>
<polyline points="2100.72,2241.44,6797.03,2701.84" stroke="rgb(255,0,191)" stroke-width="2" fill="none"></polyline>
<polyline points="973.353,2289.31,6535.95,1879.98" stroke="rgb(255,195,0)" stroke-width="2" fill="none"></polyline>
<polyline points="1301.4,1559.02,6015.72,1915.36" stroke="rgb(255,0,29)" stroke-width="2" fill="none"></polyline>
<polyline points="910.804,1873.34,6347.23,1482.25" stroke="rgb(0,255,140)" stroke-width="2" fill="none"></polyline>
<polyline points="1373.67,2005.05,6470.89,2167.46" stroke="rgb(0,255,0)" stroke-width="2" fill="none"></polyline>
<polyline points="1426.92,1064.62,5861.19,2212.54" stroke="rgb(255,204,0)" stroke-width="2" fill="none"></polyline>
<polyline points="1426.04,1193.19,5850.95,2300.15" stroke="rgb(0,255,118)" stroke-width="2" fill="none"></polyline>
<polyline points="1426.04,1166.52,5850.09,2328.48" stroke="rgb(186,0,255)" stroke-width="2" fill="none"></polyline>
<polyline points="1138.11,776.073,6913.05,1347.16" stroke="rgb(0,221,255)" stroke-width="2" fill="none"></polyline>
<polyline points="1369.52,879.936,5899.28,1442.41" stroke="rgb(255,0,136)" stroke-width="2" fill="none"></polyline>
<polyline points="1078.02,2373.83,6419.55,1669.34" stroke="rgb(0,233,255)" stroke-width="2" fill="none"></polyline>
<polyline points="1415.86,977.491,5913.08,2273.33" stroke="rgb(255,55,0)" stroke-width="2" fill="none"></polyline>
<polyline points="1570.7,1689.83,5954.32,2310.28" stroke="rgb(0,255,229)" stroke-width="2" fill="none"></polyline>
<polyline points="1575.05,1500.73,6452.52,2178.63" stroke="rgb(255,208,0)" stroke-width="2" fill="none"></polyline>
<polyline points="1196.5,1576.68,6764.99,2574.07" stroke="rgb(203,0,255)" stroke-width="2" fill="none"></polyline>
<polyline points="796.049,2156.71,6776.28,2681.78" stroke="rgb(255,51,0)" stroke-width="2" fill="none"></polyline>
<circle cx="1180.99" cy="941.605" r="4" stroke="rgb(0,242,255)" stroke-width="2" fill="none"></circle>
<circle cx="6524.51" cy="2672.35" r="4" stroke="rgb(0,242,255)" stroke-width="2" fill="none"></circle>
<circle cx="1028.88" cy="952.244" r="4" stroke="rgb(0,255,12)" stroke-width="2" fill="none"></circle>
<circle cx="6506.67" cy="1294.52" r="4" stroke="rgb(0,255,12)" stroke-width="2" fill="none"></circle>
<circle cx="1180.99" cy="941.605" r="4" stroke="rgb(0,255,186)" stroke-width="2" fill="none"></circle>
<circle cx="6534.03" cy="2747.43" r="4" stroke="rgb(0,255,186)" stroke-width="2" fill="none"></circle>
<circle cx="2252.46" cy="2096.83" r="4" stroke="rgb(118,0,255)" stroke-width="2" fill="none"></circle>
<circle cx="6567.04" cy="2752.76" r="4" stroke="rgb(118,0,255)" stroke-width="2" fill="none"></circle>
<circle cx="1180.99" cy="941.605" r="4" stroke="rgb(0,255,254)" stroke-width="2" fill="none"></circle>
<circle cx="6525.49" cy="2767.59" r="4" stroke="rgb(0,255,254)" stroke-width="2" fill="none"></circle>
<circle cx="2423.76" cy="1648.32" r="4" stroke="rgb(255,119,0)" stroke-width="2" fill="none"></circle>
<circle cx="6601.3" cy="1285.56" r="4" stroke="rgb(255,119,0)" stroke-width="2" fill="none"></circle>
<circle cx="1234.68" cy="572.837" r="4" stroke="rgb(0,237,255)" stroke-width="2" fill="none"></circle>
<circle cx="6390.29" cy="2231.35" r="4" stroke="rgb(0,237,255)" stroke-width="2" fill="none"></circle>
<circle cx="1228.44" cy="2287.96" r="4" stroke="rgb(255,0,114)" stroke-width="2" fill="none"></circle>
<circle cx="6921.25" cy="2051.18" r="4" stroke="rgb(255,0,114)" stroke-width="2" fill="none"></circle>
<circle cx="1124.46" cy="1623.5" r="4" stroke="rgb(0,67,255)" stroke-width="2" fill="none"></circle>
<circle cx="7090.77" cy="2077.32" r="4" stroke="rgb(0,67,255)" stroke-width="2" fill="none"></circle>
<circle cx="854.669" cy="2221.55" r="4" stroke="rgb(255,182,0)" stroke-width="2" fill="none"></circle>
<circle cx="5830.75" cy="1492.81" r="4" stroke="rgb(255,182,0)" stroke-width="2" fill="none"></circle>
<circle cx="1447.13" cy="511.276" r="4" stroke="rgb(0,178,255)" stroke-width="2" fill="none"></circle>
<circle cx="6331.21" cy="2107.21" r="4" stroke="rgb(0,178,255)" stroke-width="2" fill="none"></circle>
<circle cx="2156.88" cy="1490.49" r="4" stroke="rgb(255,17,0)" stroke-width="2" fill="none"></circle>
<circle cx="5922.85" cy="1489.89" r="4" stroke="rgb(255,17,0)" stroke-width="2" fill="none"></circle>
<circle cx="1301.4" cy="1559.02" r="4" stroke="rgb(101,255,0)" stroke-width="2" fill="none"></circle>
<circle cx="6013.29" cy="1914.98" r="4" stroke="rgb(101,255,0)" stroke-width="2" fill="none"></circle>
<circle cx="1507.05" cy="1859.68" r="4" stroke="rgb(255,17,0)" stroke-width="2" fill="none"></circle>
<circle cx="6376.88" cy="1990.65" r="4" stroke="rgb(255,17,0)" stroke-width="2" fill="none"></circle>
<circle cx="1447.13" cy="511.276" r="4" stroke="rgb(38,0,255)" stroke-width="2" fill="none"></circle>
<circle cx="6431.46" cy="2192.9" r="4" stroke="rgb(38,0,255)" stroke-width="2" fill="none"></circle>
<circle cx="1273.56" cy="1354.23" r="4" stroke="rgb(255,255,0)" stroke-width="2" fill="none"></circle>
<circle cx="6664.48" cy="2535.02" r="4" stroke="rgb(255,255,0)" stroke-width="2" fill="none"></circle>
<circle cx="1447.13" cy="511.276" r="4" stroke="rgb(255,131,0)" stroke-width="2" fill="none"></circle>
<circle cx="6393.26" cy="2240.48" r="4" stroke="rgb(255,131,0)" stroke-width="2" fill="none"></circle>
<circle cx="1180.99" cy="941.605" r="4" stroke="rgb(250,255,0)" stroke-width="2" fill="none"></circle>
<circle cx="6545.19" cy="1765.63" r="4" stroke="rgb(250,255,0)" stroke-width="2" fill="none"></circle>
<circle cx="976.359" cy="2066" r="4" stroke="rgb(255,195,0)" stroke-width="2" fill="none"></circle>
<circle cx="6069.68" cy="2290.11" r="4" stroke="rgb(255,195,0)" stroke-width="2" fill="none"></circle>
<circle cx="1309.54" cy="953.868" r="4" stroke="rgb(0,255,195)" stroke-width="2" fill="none"></circle>
<circle cx="6473.07" cy="2056.8" r="4" stroke="rgb(0,255,195)" stroke-width="2" fill="none"></circle>
<circle cx="1776.51" cy="2180.95" r="4" stroke="rgb(255,51,0)" stroke-width="2" fill="none"></circle>
<circle cx="5857.68" cy="2418.05" r="4" stroke="rgb(255,51,0)" stroke-width="2" fill="none"></circle>
<circle cx="1373.67" cy="2005.05" r="4" stroke="rgb(0,140,255)" stroke-width="2" fill="none"></circle>
<circle cx="6472.54" cy="2166.92" r="4" stroke="rgb(0,140,255)" stroke-width="2" fill="none"></circle>
<circle cx="1421.95" cy="916.22" r="4" stroke="rgb(0,187,255)" stroke-width="2" fill="none"></circle>
<circle cx="5836.24" cy="2569.55" r="4" stroke="rgb(0,187,255)" stroke-width="2" fill="none"></circle>
<circle cx="1426.04" cy="1166.52" r="4" stroke="rgb(255,0,123)" stroke-width="2" fill="none"></circle>
<circle cx="5835.42" cy="2235.62" r="4" stroke="rgb(255,0,123)" stroke-width="2" fill="none"></circle>
<circle cx="1028.88" cy="952.244" r="4" stroke="rgb(0,165,255)" stroke-width="2" fill="none"></circle>
<circle cx="6501.91" cy="2614.12" r="4" stroke="rgb(0,165,255)" stroke-width="2" fill="none"></circle>
<circle cx="1193.85" cy="921.968" r="4" stroke="rgb(0,255,186)" stroke-width="2" fill="none"></circle>
<circle cx="5811.28" cy="2628.56" r="4" stroke="rgb(0,255,186)" stroke-width="2" fill="none"></circle>
<circle cx="2100.72" cy="2241.44" r="4" stroke="rgb(255,0,191)" stroke-width="2" fill="none"></circle>
<circle cx="6797.03" cy="2701.84" r="4" stroke="rgb(255,0,191)" stroke-width="2" fill="none"></circle>
<circle cx="973.353" cy="2289.31" r="4" stroke="rgb(255,195,0)" stroke-width="2" fill="none"></circle>
<circle cx="6535.95" cy="1879.98" r="4" stroke="rgb(255,195,0)" stroke-width="2" fill="none"></circle>
<circle cx="1301.4" cy="1559.02" r="4" stroke="rgb(255,0,29)" stroke-width="2" fill="none"></circle>
<circle cx="6015.72" cy="1915.36" r="4" stroke="rgb(255,0,29)" stroke-width="2" fill="none"></circle>
<circle cx="910.804" cy="1873.34" r="4" stroke="rgb(0,255,140)" stroke-width="2" fill="none"></circle>
<circle cx="6347.23" cy="1482.25" r="4" stroke="rgb(0,255,140)" stroke-width="2" fill="none"></circle>
<circle cx="1373.67" cy="2005.05" r="4" stroke="rgb(0,255,0)" stroke-width="2" fill="none"></circle>
<circle cx="6470.89" cy="2167.46" r="4" stroke="rgb(0,255,0)" stroke-width="2" fill="none"></circle>
<circle cx="1426.92" cy="1064.62" r="4" stroke="rgb(255,204,0)" stroke-width="2" fill="none"></circle>
<circle cx="5861.19" cy="2212.54" r="4" stroke="rgb(255,204,0)" stroke-width="2" fill="none"></circle>
<circle cx="1426.04" cy="1193.19" r="4" stroke="rgb(0,255,118)" stroke-width="2" fill="none"></circle>
<circle cx="5850.95" cy="2300.15" r="4" stroke="rgb(0,255,118)" stroke-width="2" fill="none"></circle>
<circle cx="1426.04" cy="1166.52" r="4" stroke="rgb(186,0,255)" stroke-width="2" fill="none"></circle>
<circle cx="5850.09" cy="2328.48" r="4" stroke="rgb(186,0,255)" stroke-width="2" fill="none"></circle>
<circle cx="1138.11" cy="776.073" r="4" stroke="rgb(0,221,255)" stroke-width="2" fill="none"></circle>
<circle cx="6913.05" cy="1347.16" r="4" stroke="rgb(0,221,255)" stroke-width="2" fill="none"></circle>
<circle cx="1369.52" cy="879.936" r="4" stroke="rgb(255,0,136)" stroke-width="2" fill="none"></circle>
<circle cx="5899.28" cy="1442.41" r="4" stroke="rgb(255,0,136)" stroke-width="2" fill="none"></circle>
<circle cx="1078.02" cy="2373.83" r="4" stroke="rgb(0,233,255)" stroke-width="2" fill="none"></circle>
<circle cx="6419.55" cy="1669.34" r="4" stroke="rgb(0,233,255)" stroke-width="2" fill="none"></circle>
<circle cx="1415.86" cy="977.491" r="4" stroke="rgb(255,55,0)" stroke-width="2" fill="none"></circle>
<circle cx="5913.08" cy="2273.33" r="4" stroke="rgb(255,55,0)" stroke-width="2" fill="none"></circle>
<circle cx="1570.7" cy="1689.83" r="4" stroke="rgb(0,255,229)" stroke-width="2" fill="none"></circle>
<circle cx="5954.32" cy="2310.28" r="4" stroke="rgb(0,255,229)" stroke-width="2" fill="none"></circle>
<circle cx="1575.05" cy="1500.73" r="4" stroke="rgb(255,208,0)" stroke-width="2" fill="none"></circle>
<circle cx="6452.52" cy="2178.63" r="4" stroke="rgb(255,208,0)" stroke-width="2" fill="none"></circle>
<circle cx="1196.5" cy="1576.68" r="4" stroke="rgb(203,0,255)" stroke-width="2" fill="none"></circle>
<circle cx="6764.99" cy="2574.07" r="4" stroke="rgb(203,0,255)" stroke-width="2" fill="none"></circle>
<circle cx="796.049" cy="2156.71" r="4" stroke="rgb(255,51,0)" stroke-width="2" fill="none"></circle>
<circle cx="6776.28" cy="2681.78" r="4" stroke="rgb(255,51,0)" stroke-width="2" fill="none"></circle>
</svg>