<?xml version="1.0" standalone="yes"?>
<!-- SVG graphic -->
<svg xmlns='http://www.w3.org/2000/svg' xmlns:xlink='http://www.w3.org/1999/xlink'
width="8064px" height="3024px" preserveAspectRatio="xMinYMin meet" viewBox="0 0 8064 3024" version="1.1">
<image x="0" y="0" width="4032px" height="3024px" opacity="1" xlink:href="/home/jeong/Code/2D-to-3D-Modeling-using-AI/Make3D/Image/20200227_180704.jpg"/>
<image x="4032" y="0" width="4032px" height="3024px" opacity="1" xlink:href="/home/jeong/Code/2D-to-3D-Modeling-using-AI/Make3D/Image/20200227_180720.jpg"/>
<polyline points="2559.02,1518.24,6031.98,557.108" stroke="rgb(110,0,255)" stroke-width="2" fill="none"></polyline>
<polyline points="1430.29,829.588,6010.32,596.837" stroke="rgb(250,255,0)" stroke-width="2" fill="none"></polyline>
<polyline points="2731.8,1408.67,6665.66,1249.64" stroke="rgb(165,0,255)" stroke-width="2" fill="none"></polyline>
<polyline points="2441.26,1917.59,6106.21,590.143" stroke="rgb(182,255,0)" stroke-width="2" fill="none"></polyline>
<polyline points="1458.51,447.177,5951.28,661.764" stroke="rgb(238,0,255)" stroke-width="2" fill="none"></polyline>
<polyline points="1711.16,1883.79,6028.92,667.645" stroke="rgb(0,255,12)" stroke-width="2" fill="none"></polyline>
<polyline points="1711.16,1883.79,6028.92,667.645" stroke="rgb(0,255,89)" stroke-width="2" fill="none"></polyline>
<polyline points="1515.94,888.862,5790.56,764.318" stroke="rgb(255,89,0)" stroke-width="2" fill="none"></polyline>
<polyline points="1252.6,1811.15,5522.04,1322.95" stroke="rgb(255,0,93)" stroke-width="2" fill="none"></polyline>
<polyline points="1252.6,1811.15,5527.55,1327.79" stroke="rgb(0,148,255)" stroke-width="2" fill="none"></polyline>
<polyline points="1750,1872.5,5763.31,671.502" stroke="rgb(225,255,0)" stroke-width="2" fill="none"></polyline>
<polyline points="1252.6,1811.15,5535.04,1335.29" stroke="rgb(216,255,0)" stroke-width="2" fill="none"></polyline>
<polyline points="2098.05,1433.71,5531.84,1343.71" stroke="rgb(0,63,255)" stroke-width="2" fill="none"></polyline>
<polyline points="1822.28,1202.44,5350.35,725.897" stroke="rgb(221,255,0)" stroke-width="2" fill="none"></polyline>
<polyline points="1762.16,1805.53,5853.24,678.189" stroke="rgb(182,0,255)" stroke-width="2" fill="none"></polyline>
<polyline points="1367.07,373.961,5762.93,729.459" stroke="rgb(233,255,0)" stroke-width="2" fill="none"></polyline>
<polyline points="1724.98,1802.86,5372.52,687.783" stroke="rgb(255,110,0)" stroke-width="2" fill="none"></polyline>
<polyline points="1329.86,1787.83,5141.98,1393.35" stroke="rgb(195,0,255)" stroke-width="2" fill="none"></polyline>
<polyline points="1238.44,1650.38,5165.07,1016.42" stroke="rgb(255,0,8)" stroke-width="2" fill="none"></polyline>
<polyline points="1457.13,1388.12,6117.85,694.018" stroke="rgb(255,127,0)" stroke-width="2" fill="none"></polyline>
<polyline points="2701.82,829.528,5604.94,1407.41" stroke="rgb(0,237,255)" stroke-width="2" fill="none"></polyline>
<polyline points="1026.2,1949.9,5003.75,1189.64" stroke="rgb(0,255,131)" stroke-width="2" fill="none"></polyline>
<polyline points="1793.94,2012,5912.84,1484.73" stroke="rgb(255,246,0)" stroke-width="2" fill="none"></polyline>
<polyline points="1762.16,1805.53,5565.55,765.587" stroke="rgb(114,255,0)" stroke-width="2" fill="none"></polyline>
<polyline points="1431.8,1624.82,6347.41,541.897" stroke="rgb(148,255,0)" stroke-width="2" fill="none"></polyline>
<polyline points="1712.26,1971.92,5863.11,649.034" stroke="rgb(216,0,255)" stroke-width="2" fill="none"></polyline>
<polyline points="1712.26,1971.92,5863.11,649.034" stroke="rgb(80,255,0)" stroke-width="2" fill="none"></polyline>
<polyline points="1414.05,930.339,6412.26,652.587" stroke="rgb(131,255,0)" stroke-width="2" fill="none"></polyline>
<polyline points="1592.8,1390.71,6430.61,1389.22" stroke="rgb(0,255,152)" stroke-width="2" fill="none"></polyline>
<polyline points="1431.8,1624.82,6535.19,576.687" stroke="rgb(0,255,76)" stroke-width="2" fill="none"></polyline>
<polyline points="2701.82,829.528,5604.92,1407.39" stroke="rgb(0,255,165)" stroke-width="2" fill="none"></polyline>
<polyline points="1498.72,339.83,6734.83,1426.57" stroke="rgb(246,255,0)" stroke-width="2" fill="none"></polyline>
<polyline points="1668.83,1820.63,6046.53,889.815" stroke="rgb(0,169,255)" stroke-width="2" fill="none"></polyline>
<polyline points="1667.29,1032.22,5933.36,1300.5" stroke="rgb(255,0,208)" stroke-width="2" fill="none"></polyline>
<polyline points="1485.16,1484.83,6063.73,726.217" stroke="rgb(255,51,0)" stroke-width="2" fill="none"></polyline>
<polyline points="1165.22,463.971,6862.36,733.89" stroke="rgb(0,255,67)" stroke-width="2" fill="none"></polyline>
<polyline points="2465.86,1919.77,5484.1,983.006" stroke="rgb(195,255,0)" stroke-width="2" fill="none"></polyline>
<polyline points="1807.76,1296.93,5600.74,755.192" stroke="rgb(0,255,140)" stroke-width="2" fill="none"></polyline>
<polyline points="1642.7,752.375,5890.59,755.899" stroke="rgb(255,123,0)" stroke-width="2" fill="none"></polyline>
<polyline points="1252.6,1811.15,5882.49,1022.1" stroke="rgb(191,0,255)" stroke-width="2" fill="none"></polyline>
<polyline points="1592.8,1390.71,6428.5,1371.21" stroke="rgb(0,38,255)" stroke-width="2" fill="none"></polyline>
<polyline points="1402.09,866.769,6362.31,1265.19" stroke="rgb(255,0,131)" stroke-width="2" fill="none"></polyline>
<polyline points="1414.05,930.339,5053.53,1275.45" stroke="rgb(255,0,25)" stroke-width="2" fill="none"></polyline>
<polyline points="2740.75,1393.85,6064.06,1323.58" stroke="rgb(255,0,136)" stroke-width="2" fill="none"></polyline>
<polyline points="1312.26,1779.64,6115.56,1169.91" stroke="rgb(255,157,0)" stroke-width="2" fill="none"></polyline>
<circle cx="2559.02" cy="1518.24" r="4" stroke="rgb(110,0,255)" stroke-width="2" fill="none"></circle>
<circle cx="6031.98" cy="557.108" r="4" stroke="rgb(110,0,255)" stroke-width="2" fill="none"></circle>
<circle cx="1430.29" cy="829.588" r="4" stroke="rgb(250,255,0)" stroke-width="2" fill="none"></circle>
<circle cx="6010.32" cy="596.837" r="4" stroke="rgb(250,255,0)" stroke-width="2" fill="none"></circle>
<circle cx="2731.8" cy="1408.67" r="4" stroke="rgb(165,0,255)" stroke-width="2" fill="none"></circle>
<circle cx="6665.66" cy="1249.64" r="4" stroke="rgb(165,0,255)" stroke-width="2" fill="none"></circle>
<circle cx="2441.26" cy="1917.59" r="4" stroke="rgb(182,255,0)" stroke-width="2" fill="none"></circle>
<circle cx="6106.21" cy="590.143" r="4" stroke="rgb(182,255,0)" stroke-width="2" fill="none"></circle>
<circle cx="1458.51" cy="447.177" r="4" stroke="rgb(238,0,255)" stroke-width="2" fill="none"></circle>
<circle cx="5951.28" cy="661.764" r="4" stroke="rgb(238,0,255)" stroke-width="2" fill="none"></circle>
<circle cx="1711.16" cy="1883.79" r="4" stroke="rgb(0,255,12)" stroke-width="2" fill="none"></circle>
<circle cx="6028.92" cy="667.645" r="4" stroke="rgb(0,255,12)" stroke-width="2" fill="none"></circle>
<circle cx="1711.16" cy="1883.79" r="4" stroke="rgb(0,255,89)" stroke-width="2" fill="none"></circle>
<circle cx="6028.92" cy="667.645" r="4" stroke="rgb(0,255,89)" stroke-width="2" fill="none"></circle>
<circle cx="1515.94" cy="888.862" r="4" stroke="rgb(255,89,0)" stroke-width="2" fill="none"></circle>
<circle cx="5790.56" cy="764.318" r="4" stroke="rgb(255,89,0)" stroke-width="2" fill="none"></circle>
<circle cx="1252.6" cy="1811.15" r="4" stroke="rgb(255,0,93)" stroke-width="2" fill="none"></circle>
<circle cx="5522.04" cy="1322.95" r="4" stroke="rgb(255,0,93)" stroke-width="2" fill="none"></circle>
<circle cx="1252.6" cy="1811.15" r="4" stroke="rgb(0,148,255)" stroke-width="2" fill="none"></circle>
<circle cx="5527.55" cy="1327.79" r="4" stroke="rgb(0,148,255)" stroke-width="2" fill="none"></circle>
<circle cx="1750" cy="1872.5" r="4" stroke="rgb(225,255,0)" stroke-width="2" fill="none"></circle>
<circle cx="5763.31" cy="671.502" r="4" stroke="rgb(225,255,0)" stroke-width="2" fill="none"></circle>
<circle cx="1252.6" cy="1811.15" r="4" stroke="rgb(216,255,0)" stroke-width="2" fill="none"></circle>
<circle cx="5535.04" cy="1335.29" r="4" stroke="rgb(216,255,0)" stroke-width="2" fill="none"></circle>
<circle cx="2098.05" cy="1433.71" r="4" stroke="rgb(0,63,255)" stroke-width="2" fill="none"></circle>
<circle cx="5531.84" cy="1343.71" r="4" stroke="rgb(0,63,255)" stroke-width="2" fill="none"></circle>
<circle cx="1822.28" cy="1202.44" r="4" stroke="rgb(221,255,0)" stroke-width="2" fill="none"></circle>
<circle cx="5350.35" cy="725.897" r="4" stroke="rgb(221,255,0)" stroke-width="2" fill="none"></circle>
<circle cx="1762.16" cy="1805.53" r="4" stroke="rgb(182,0,255)" stroke-width="2" fill="none"></circle>
<circle cx="5853.24" cy="678.189" r="4" stroke="rgb(182,0,255)" stroke-width="2" fill="none"></circle>
<circle cx="1367.07" cy="373.961" r="4" stroke="rgb(233,255,0)" stroke-width="2" fill="none"></circle>
<circle cx="5762.93" cy="729.459" r="4" stroke="rgb(233,255,0)" stroke-width="2" fill="none"></circle>
<circle cx="1724.98" cy="1802.86" r="4" stroke="rgb(255,110,0)" stroke-width="2" fill="none"></circle>
<circle cx="5372.52" cy="687.783" r="4" stroke="rgb(255,110,0)" stroke-width="2" fill="none"></circle>
<circle cx="1329.86" cy="1787.83" r="4" stroke="rgb(195,0,255)" stroke-width="2" fill="none"></circle>
<circle cx="5141.98" cy="1393.35" r="4" stroke="rgb(195,0,255)" stroke-width="2" fill="none"></circle>
<circle cx="1238.44" cy="1650.38" r="4" stroke="rgb(255,0,8)" stroke-width="2" fill="none"></circle>
<circle cx="5165.07" cy="1016.42" r="4" stroke="rgb(255,0,8)" stroke-width="2" fill="none"></circle>
<circle cx="1457.13" cy="1388.12" r="4" stroke="rgb(255,127,0)" stroke-width="2" fill="none"></circle>
<circle cx="6117.85" cy="694.018" r="4" stroke="rgb(255,127,0)" stroke-width="2" fill="none"></circle>
<circle cx="2701.82" cy="829.528" r="4" stroke="rgb(0,237,255)" stroke-width="2" fill="none"></circle>
<circle cx="5604.94" cy="1407.41" r="4" stroke="rgb(0,237,255)" stroke-width="2" fill="none"></circle>
<circle cx="1026.2" cy="1949.9" r="4" stroke="rgb(0,255,131)" stroke-width="2" fill="none"></circle>
<circle cx="5003.75" cy="1189.64" r="4" stroke="rgb(0,255,131)" stroke-width="2" fill="none"></circle>
<circle cx="1793.94" cy="2012" r="4" stroke="rgb(255,246,0)" stroke-width="2" fill="none"></circle>
<circle cx="5912.84" cy="1484.73" r="4" stroke="rgb(255,246,0)" stroke-width="2" fill="none"></circle>
<circle cx="1762.16" cy="1805.53" r="4" stroke="rgb(114,255,0)" stroke-width="2" fill="none"></circle>
<circle cx="5565.55" cy="765.587" r="4" stroke="rgb(114,255,0)" stroke-width="2" fill="none"></circle>
<circle cx="1431.8" cy="1624.82" r="4" stroke="rgb(148,255,0)" stroke-width="2" fill="none"></circle>
<circle cx="6347.41" cy="541.897" r="4" stroke="rgb(148,255,0)" stroke-width="2" fill="none"></circle>
<circle cx="1712.26" cy="1971.92" r="4" stroke="rgb(216,0,255)" stroke-width="2" fill="none"></circle>
<circle cx="5863.11" cy="649.034" r="4" stroke="rgb(216,0,255)" stroke-width="2" fill="none"></circle>
<circle cx="1712.26" cy="1971.92" r="4" stroke="rgb(80,255,0)" stroke-width="2" fill="none"></circle>
<circle cx="5863.11" cy="649.034" r="4" stroke="rgb(80,255,0)" stroke-width="2" fill="none"></circle>
<circle cx="1414.05" cy="930.339" r="4" stroke="rgb(131,255,0)" stroke-width="2" fill="none"></circle>
<circle cx="6412.26" cy="652.587" r="4" stroke="rgb(131,255,0)" stroke-width="2" fill="none"></circle>
<circle cx="1592.8" cy="1390.71" r="4" stroke="rgb(0,255,152)" stroke-width="2" fill="none"></circle>
<circle cx="6430.61" cy="1389.22" r="4" stroke="rgb(0,255,152)" stroke-width="2" fill="none"></circle>
<circle cx="1431.8" cy="1624.82" r="4" stroke="rgb(0,255,76)" stroke-width="2" fill="none"></circle>
<circle cx="6535.19" cy="576.687" r="4" stroke="rgb(0,255,76)" stroke-width="2" fill="none"></circle>
<circle cx="2701.82" cy="829.528" r="4" stroke="rgb(0,255,165)" stroke-width="2" fill="none"></circle>
<circle cx="5604.92" cy="1407.39" r="4" stroke="rgb(0,255,165)" stroke-width="2" fill="none"></circle>
<circle cx="1498.72" cy="339.83" r="4" stroke="rgb(246,255,0)" stroke-width="2" fill="none"></circle>
<circle cx="6734.83" cy="1426.57" r="4" stroke="rgb(246,255,0)" stroke-width="2" fill="none"></circle>
<circle cx="1668.83" cy="1820.63" r="4" stroke="rgb(0,169,255)" stroke-width="2" fill="none"></circle>
<circle cx="6046.53" cy="889.815" r="4" stroke="rgb(0,169,255)" stroke-width="2" fill="none"></circle>
<circle cx="1667.29" cy="1032.22" r="4" stroke="rgb(255,0,208)" stroke-width="2" fill="none"></circle>
<circle cx="5933.36" cy="1300.5" r="4" stroke="rgb(255,0,208)" stroke-width="2" fill="none"></circle>
<circle cx="1485.16" cy="1484.83" r="4" stroke="rgb(255,51,0)" stroke-width="2" fill="none"></circle>
<circle cx="6063.73" cy="726.217" r="4" stroke="rgb(255,51,0)" stroke-width="2" fill="none"></circle>
<circle cx="1165.22" cy="463.971" r="4" stroke="rgb(0,255,67)" stroke-width="2" fill="none"></circle>
<circle cx="6862.36" cy="733.89" r="4" stroke="rgb(0,255,67)" stroke-width="2" fill="none"></circle>
<circle cx="2465.86" cy="1919.77" r="4" stroke="rgb(195,255,0)" stroke-width="2" fill="none"></circle>
<circle cx="5484.1" cy="983.006" r="4" stroke="rgb(195,255,0)" stroke-width="2" fill="none"></circle>
<circle cx="1807.76" cy="1296.93" r="4" stroke="rgb(0,255,140)" stroke-width="2" fill="none"></circle>
<circle cx="5600.74" cy="755.192" r="4" stroke="rgb(0,255,140)" stroke-width="2" fill="none"></circle>
<circle cx="1642.7" cy="752.375" r="4" stroke="rgb(255,123,0)" stroke-width="2" fill="none"></circle>
<circle cx="5890.59" cy="755.899" r="4" stroke="rgb(255,123,0)" stroke-width="2" fill="none"></circle>
<circle cx="1252.6" cy="1811.15" r="4" stroke="rgb(191,0,255)" stroke-width="2" fill="none"></circle>
<circle cx="5882.49" cy="1022.1" r="4" stroke="rgb(191,0,255)" stroke-width="2" fill="none"></circle>
<circle cx="1592.8" cy="1390.71" r="4" stroke="rgb(0,38,255)" stroke-width="2" fill="none"></circle>
<circle cx="6428.5" cy="1371.21" r="4" stroke="rgb(0,38,255)" stroke-width="2" fill="none"></circle>
<circle cx="1402.09" cy="866.769" r="4" stroke="rgb(255,0,131)" stroke-width="2" fill="none"></circle>
<circle cx="6362.31" cy="1265.19" r="4" stroke="rgb(255,0,131)" stroke-width="2" fill="none"></circle>
<circle cx="1414.05" cy="930.339" r="4" stroke="rgb(255,0,25)" stroke-width="2" fill="none"></circle>
<circle cx="5053.53" cy="1275.45" r="4" stroke="rgb(255,0,25)" stroke-width="2" fill="none"></circle>
<circle cx="2740.75" cy="1393.85" r="4" stroke="rgb(255,0,136)" stroke-width="2" fill="none"></circle>
<circle cx="6064.06" cy="1323.58" r="4" stroke="rgb(255,0,136)" stroke-width="2" fill="none"></circle>
<circle cx="1312.26" cy="1779.64" r="4" stroke="rgb(255,157,0)" stroke-width="2" fill="none"></circle>
<circle cx="6115.56" cy="1169.91" r="4" stroke="rgb(255,157,0)" stroke-width="2" fill="none"></circle>
</svg>