<?xml version="1.0" standalone="yes"?>
<!-- SVG graphic -->
<svg xmlns='http://www.w3.org/2000/svg' xmlns:xlink='http://www.w3.org/1999/xlink'
width="8064px" height="3024px" preserveAspectRatio="xMinYMin meet" viewBox="0 0 8064 3024" version="1.1">
<image x="0" y="0" width="4032px" height="3024px" opacity="1" xlink:href="/home/jeong/Code/2D-to-3D-Modeling-using-AI/Make3D/Image/20200227_180704.jpg"/>
<image x="4032" y="0" width="4032px" height="3024px" opacity="1" xlink:href="/home/jeong/Code/2D-to-3D-Modeling-using-AI/Make3D/Image/20200227_180719.jpg"/>
<polyline points="1685.57,1007.35,5875,1274.69" stroke="rgb(8,255,0)" stroke-width="2" fill="none"></polyline>
<polyline points="2617.55,1321.9,5801.02,594.755" stroke="rgb(178,0,255)" stroke-width="2" fill="none"></polyline>
<polyline points="1724.98,1802.86,5609.77,633.209" stroke="rgb(255,0,216)" stroke-width="2" fill="none"></polyline>
<polyline points="2617.55,1321.9,5800.12,632.17" stroke="rgb(255,0,76)" stroke-width="2" fill="none"></polyline>
<polyline points="1762.16,1805.53,5652.97,657.421" stroke="rgb(0,237,255)" stroke-width="2" fill="none"></polyline>
<polyline points="2617.55,1321.9,5658.63,694.847" stroke="rgb(255,85,0)" stroke-width="2" fill="none"></polyline>
<polyline points="2605.6,1315.62,5677.4,720.001" stroke="rgb(212,0,255)" stroke-width="2" fill="none"></polyline>
<polyline points="1696.29,1959.54,5716.9,674.064" stroke="rgb(255,0,17)" stroke-width="2" fill="none"></polyline>
<polyline points="2708.63,926.009,5443.15,679.519" stroke="rgb(255,0,242)" stroke-width="2" fill="none"></polyline>
<polyline points="1334.96,848.583,5841.16,752.909" stroke="rgb(0,255,12)" stroke-width="2" fill="none"></polyline>
<polyline points="2617.55,1321.9,5507.55,784.126" stroke="rgb(255,59,0)" stroke-width="2" fill="none"></polyline>
<polyline points="1296.62,1908.57,5205.3,787.573" stroke="rgb(0,255,46)" stroke-width="2" fill="none"></polyline>
<polyline points="1479.58,721.961,6211.03,804.123" stroke="rgb(0,127,255)" stroke-width="2" fill="none"></polyline>
<polyline points="2352.44,1026.35,5893.99,1190.69" stroke="rgb(46,0,255)" stroke-width="2" fill="none"></polyline>
<polyline points="2352.44,1026.35,5893.99,1190.69" stroke="rgb(255,85,0)" stroke-width="2" fill="none"></polyline>
<polyline points="1378.17,952.17,5053.2,889.824" stroke="rgb(0,123,255)" stroke-width="2" fill="none"></polyline>
<polyline points="2322.33,1696.65,5573.83,897.059" stroke="rgb(12,0,255)" stroke-width="2" fill="none"></polyline>
<polyline points="1645.15,431.333,6066.23,970.552" stroke="rgb(255,0,0)" stroke-width="2" fill="none"></polyline>
<polyline points="1693.04,697.694,6150.48,1217.83" stroke="rgb(135,255,0)" stroke-width="2" fill="none"></polyline>
<polyline points="1599.13,711.538,5503.24,987.549" stroke="rgb(255,12,0)" stroke-width="2" fill="none"></polyline>
<polyline points="2522.58,789.571,5451.04,995.353" stroke="rgb(153,255,0)" stroke-width="2" fill="none"></polyline>
<polyline points="2527.94,1617.58,5253.08,1003.37" stroke="rgb(255,0,191)" stroke-width="2" fill="none"></polyline>
<polyline points="1418.29,427.323,5943.51,1007.97" stroke="rgb(255,80,0)" stroke-width="2" fill="none"></polyline>
<polyline points="1704.62,518.036,5586.25,1010.02" stroke="rgb(0,255,250)" stroke-width="2" fill="none"></polyline>
<polyline points="1588.86,472.2,5433.76,1036.24" stroke="rgb(153,255,0)" stroke-width="2" fill="none"></polyline>
<polyline points="1693.88,769.673,6081.69,1240.85" stroke="rgb(0,255,123)" stroke-width="2" fill="none"></polyline>
<polyline points="1693.88,769.673,6081.69,1240.85" stroke="rgb(110,255,0)" stroke-width="2" fill="none"></polyline>
<polyline points="1698,781.002,6073.42,1246.89" stroke="rgb(255,199,0)" stroke-width="2" fill="none"></polyline>
<polyline points="1707.53,754.319,6102.52,1246.73" stroke="rgb(255,93,0)" stroke-width="2" fill="none"></polyline>
<polyline points="1660.32,746.365,6063.68,1249.87" stroke="rgb(0,89,255)" stroke-width="2" fill="none"></polyline>
<polyline points="1977.46,2034.1,5206.36,898.024" stroke="rgb(255,97,0)" stroke-width="2" fill="none"></polyline>
<polyline points="1619.51,1655.75,5008.07,1439.42" stroke="rgb(255,51,0)" stroke-width="2" fill="none"></polyline>
<polyline points="1431.8,1624.82,5008.07,1439.42" stroke="rgb(0,255,89)" stroke-width="2" fill="none"></polyline>
<polyline points="1619.51,1655.75,5008.07,1439.42" stroke="rgb(255,0,119)" stroke-width="2" fill="none"></polyline>
<polyline points="1431.8,1624.82,5008.07,1439.42" stroke="rgb(0,59,255)" stroke-width="2" fill="none"></polyline>
<polyline points="1837.24,1230.05,5778,1445.09" stroke="rgb(0,178,255)" stroke-width="2" fill="none"></polyline>
<polyline points="1837.24,1230.05,5778,1445.09" stroke="rgb(255,0,29)" stroke-width="2" fill="none"></polyline>
<polyline points="1843.5,1222.04,5785.14,1446.97" stroke="rgb(255,123,0)" stroke-width="2" fill="none"></polyline>
<polyline points="1845.24,1363.87,5690.49,1453.17" stroke="rgb(0,195,255)" stroke-width="2" fill="none"></polyline>
<polyline points="1690.11,987.868,5892.28,1277.45" stroke="rgb(0,255,203)" stroke-width="2" fill="none"></polyline>
<polyline points="1845.57,1376.26,5680.14,1462.65" stroke="rgb(255,102,0)" stroke-width="2" fill="none"></polyline>
<polyline points="1793.94,2012,5851.77,1471" stroke="rgb(0,131,255)" stroke-width="2" fill="none"></polyline>
<polyline points="1883.76,1378.46,5696.04,1495.52" stroke="rgb(0,255,216)" stroke-width="2" fill="none"></polyline>
<polyline points="1793.94,2012,5882.18,1496.12" stroke="rgb(0,25,255)" stroke-width="2" fill="none"></polyline>
<polyline points="2627.96,1421.73,5937.79,1519.99" stroke="rgb(255,0,119)" stroke-width="2" fill="none"></polyline>
<polyline points="1725.48,1371.55,5623.83,1362.43" stroke="rgb(237,255,0)" stroke-width="2" fill="none"></polyline>
<polyline points="1704.78,764.269,6091.56,1247.3" stroke="rgb(148,255,0)" stroke-width="2" fill="none"></polyline>
<polyline points="1818.16,1102.32,5863.08,1405.9" stroke="rgb(0,106,255)" stroke-width="2" fill="none"></polyline>
<polyline points="1255.14,1945.9,5164.02,1400.65" stroke="rgb(237,255,0)" stroke-width="2" fill="none"></polyline>
<polyline points="1889.86,1166.75,5861.05,1459.12" stroke="rgb(0,255,229)" stroke-width="2" fill="none"></polyline>
<polyline points="1793.94,2012,5852.4,1471.18" stroke="rgb(127,255,0)" stroke-width="2" fill="none"></polyline>
<polyline points="1712.26,1971.92,5657.77,627.598" stroke="rgb(0,255,118)" stroke-width="2" fill="none"></polyline>
<polyline points="1712.26,1971.92,5657.77,627.598" stroke="rgb(255,4,0)" stroke-width="2" fill="none"></polyline>
<polyline points="1731.07,2003.37,4953.74,1347.35" stroke="rgb(255,0,76)" stroke-width="2" fill="none"></polyline>
<polyline points="1679.57,800.598,6047.11,1235.06" stroke="rgb(255,0,140)" stroke-width="2" fill="none"></polyline>
<polyline points="1679.57,800.598,6047.11,1235.06" stroke="rgb(148,255,0)" stroke-width="2" fill="none"></polyline>
<polyline points="1807.76,1296.93,5404.67,782.867" stroke="rgb(255,12,0)" stroke-width="2" fill="none"></polyline>
<polyline points="1683.18,1030.22,5855.11,1274.94" stroke="rgb(250,255,0)" stroke-width="2" fill="none"></polyline>
<polyline points="1684.79,1092.83,5808.44,1281.89" stroke="rgb(0,255,50)" stroke-width="2" fill="none"></polyline>
<polyline points="1677.63,774.317,6069.18,1227.52" stroke="rgb(255,106,0)" stroke-width="2" fill="none"></polyline>
<polyline points="1697.21,800.12,6055,1250.76" stroke="rgb(170,0,255)" stroke-width="2" fill="none"></polyline>
<polyline points="1697.21,800.12,6055,1250.76" stroke="rgb(255,119,0)" stroke-width="2" fill="none"></polyline>
<polyline points="1683.17,876.833,5981.1,1253.43" stroke="rgb(123,0,255)" stroke-width="2" fill="none"></polyline>
<polyline points="1844.66,1008.11,5955.41,1400.96" stroke="rgb(229,0,255)" stroke-width="2" fill="none"></polyline>
<polyline points="1668.94,494.465,5642.94,1505.26" stroke="rgb(255,0,0)" stroke-width="2" fill="none"></polyline>
<polyline points="1731.07,2003.37,6551.29,697.145" stroke="rgb(0,255,67)" stroke-width="2" fill="none"></polyline>
<polyline points="1700.32,952.127,5017.74,1019.9" stroke="rgb(0,255,50)" stroke-width="2" fill="none"></polyline>
<polyline points="2635.69,2201.31,5948.02,1020.12" stroke="rgb(0,63,255)" stroke-width="2" fill="none"></polyline>
<polyline points="2042.34,1188.98,5342.09,1302.16" stroke="rgb(0,255,191)" stroke-width="2" fill="none"></polyline>
<polyline points="1882.18,1203.8,5821.95,1459.46" stroke="rgb(0,178,255)" stroke-width="2" fill="none"></polyline>
<circle cx="1685.57" cy="1007.35" r="4" stroke="rgb(8,255,0)" stroke-width="2" fill="none"></circle>
<circle cx="5875" cy="1274.69" r="4" stroke="rgb(8,255,0)" stroke-width="2" fill="none"></circle>
<circle cx="2617.55" cy="1321.9" r="4" stroke="rgb(178,0,255)" stroke-width="2" fill="none"></circle>
<circle cx="5801.02" cy="594.755" r="4" stroke="rgb(178,0,255)" stroke-width="2" fill="none"></circle>
<circle cx="1724.98" cy="1802.86" r="4" stroke="rgb(255,0,216)" stroke-width="2" fill="none"></circle>
<circle cx="5609.77" cy="633.209" r="4" stroke="rgb(255,0,216)" stroke-width="2" fill="none"></circle>
<circle cx="2617.55" cy="1321.9" r="4" stroke="rgb(255,0,76)" stroke-width="2" fill="none"></circle>
<circle cx="5800.12" cy="632.17" r="4" stroke="rgb(255,0,76)" stroke-width="2" fill="none"></circle>
<circle cx="1762.16" cy="1805.53" r="4" stroke="rgb(0,237,255)" stroke-width="2" fill="none"></circle>
<circle cx="5652.97" cy="657.421" r="4" stroke="rgb(0,237,255)" stroke-width="2" fill="none"></circle>
<circle cx="2617.55" cy="1321.9" r="4" stroke="rgb(255,85,0)" stroke-width="2" fill="none"></circle>
<circle cx="5658.63" cy="694.847" r="4" stroke="rgb(255,85,0)" stroke-width="2" fill="none"></circle>
<circle cx="2605.6" cy="1315.62" r="4" stroke="rgb(212,0,255)" stroke-width="2" fill="none"></circle>
<circle cx="5677.4" cy="720.001" r="4" stroke="rgb(212,0,255)" stroke-width="2" fill="none"></circle>
<circle cx="1696.29" cy="1959.54" r="4" stroke="rgb(255,0,17)" stroke-width="2" fill="none"></circle>
<circle cx="5716.9" cy="674.064" r="4" stroke="rgb(255,0,17)" stroke-width="2" fill="none"></circle>
<circle cx="2708.63" cy="926.009" r="4" stroke="rgb(255,0,242)" stroke-width="2" fill="none"></circle>
<circle cx="5443.15" cy="679.519" r="4" stroke="rgb(255,0,242)" stroke-width="2" fill="none"></circle>
<circle cx="1334.96" cy="848.583" r="4" stroke="rgb(0,255,12)" stroke-width="2" fill="none"></circle>
<circle cx="5841.16" cy="752.909" r="4" stroke="rgb(0,255,12)" stroke-width="2" fill="none"></circle>
<circle cx="2617.55" cy="1321.9" r="4" stroke="rgb(255,59,0)" stroke-width="2" fill="none"></circle>
<circle cx="5507.55" cy="784.126" r="4" stroke="rgb(255,59,0)" stroke-width="2" fill="none"></circle>
<circle cx="1296.62" cy="1908.57" r="4" stroke="rgb(0,255,46)" stroke-width="2" fill="none"></circle>
<circle cx="5205.3" cy="787.573" r="4" stroke="rgb(0,255,46)" stroke-width="2" fill="none"></circle>
<circle cx="1479.58" cy="721.961" r="4" stroke="rgb(0,127,255)" stroke-width="2" fill="none"></circle>
<circle cx="6211.03" cy="804.123" r="4" stroke="rgb(0,127,255)" stroke-width="2" fill="none"></circle>
<circle cx="2352.44" cy="1026.35" r="4" stroke="rgb(46,0,255)" stroke-width="2" fill="none"></circle>
<circle cx="5893.99" cy="1190.69" r="4" stroke="rgb(46,0,255)" stroke-width="2" fill="none"></circle>
<circle cx="2352.44" cy="1026.35" r="4" stroke="rgb(255,85,0)" stroke-width="2" fill="none"></circle>
<circle cx="5893.99" cy="1190.69" r="4" stroke="rgb(255,85,0)" stroke-width="2" fill="none"></circle>
<circle cx="1378.17" cy="952.17" r="4" stroke="rgb(0,123,255)" stroke-width="2" fill="none"></circle>
<circle cx="5053.2" cy="889.824" r="4" stroke="rgb(0,123,255)" stroke-width="2" fill="none"></circle>
<circle cx="2322.33" cy="1696.65" r="4" stroke="rgb(12,0,255)" stroke-width="2" fill="none"></circle>
<circle cx="5573.83" cy="897.059" r="4" stroke="rgb(12,0,255)" stroke-width="2" fill="none"></circle>
<circle cx="1645.15" cy="431.333" r="4" stroke="rgb(255,0,0)" stroke-width="2" fill="none"></circle>
<circle cx="6066.23" cy="970.552" r="4" stroke="rgb(255,0,0)" stroke-width="2" fill="none"></circle>
<circle cx="1693.04" cy="697.694" r="4" stroke="rgb(135,255,0)" stroke-width="2" fill="none"></circle>
<circle cx="6150.48" cy="1217.83" r="4" stroke="rgb(135,255,0)" stroke-width="2" fill="none"></circle>
<circle cx="1599.13" cy="711.538" r="4" stroke="rgb(255,12,0)" stroke-width="2" fill="none"></circle>
<circle cx="5503.24" cy="987.549" r="4" stroke="rgb(255,12,0)" stroke-width="2" fill="none"></circle>
<circle cx="2522.58" cy="789.571" r="4" stroke="rgb(153,255,0)" stroke-width="2" fill="none"></circle>
<circle cx="5451.04" cy="995.353" r="4" stroke="rgb(153,255,0)" stroke-width="2" fill="none"></circle>
<circle cx="2527.94" cy="1617.58" r="4" stroke="rgb(255,0,191)" stroke-width="2" fill="none"></circle>
<circle cx="5253.08" cy="1003.37" r="4" stroke="rgb(255,0,191)" stroke-width="2" fill="none"></circle>
<circle cx="1418.29" cy="427.323" r="4" stroke="rgb(255,80,0)" stroke-width="2" fill="none"></circle>
<circle cx="5943.51" cy="1007.97" r="4" stroke="rgb(255,80,0)" stroke-width="2" fill="none"></circle>
<circle cx="1704.62" cy="518.036" r="4" stroke="rgb(0,255,250)" stroke-width="2" fill="none"></circle>
<circle cx="5586.25" cy="1010.02" r="4" stroke="rgb(0,255,250)" stroke-width="2" fill="none"></circle>
<circle cx="1588.86" cy="472.2" r="4" stroke="rgb(153,255,0)" stroke-width="2" fill="none"></circle>
<circle cx="5433.76" cy="1036.24" r="4" stroke="rgb(153,255,0)" stroke-width="2" fill="none"></circle>
<circle cx="1693.88" cy="769.673" r="4" stroke="rgb(0,255,123)" stroke-width="2" fill="none"></circle>
<circle cx="6081.69" cy="1240.85" r="4" stroke="rgb(0,255,123)" stroke-width="2" fill="none"></circle>
<circle cx="1693.88" cy="769.673" r="4" stroke="rgb(110,255,0)" stroke-width="2" fill="none"></circle>
<circle cx="6081.69" cy="1240.85" r="4" stroke="rgb(110,255,0)" stroke-width="2" fill="none"></circle>
<circle cx="1698" cy="781.002" r="4" stroke="rgb(255,199,0)" stroke-width="2" fill="none"></circle>
<circle cx="6073.42" cy="1246.89" r="4" stroke="rgb(255,199,0)" stroke-width="2" fill="none"></circle>
<circle cx="1707.53" cy="754.319" r="4" stroke="rgb(255,93,0)" stroke-width="2" fill="none"></circle>
<circle cx="6102.52" cy="1246.73" r="4" stroke="rgb(255,93,0)" stroke-width="2" fill="none"></circle>
<circle cx="1660.32" cy="746.365" r="4" stroke="rgb(0,89,255)" stroke-width="2" fill="none"></circle>
<circle cx="6063.68" cy="1249.87" r="4" stroke="rgb(0,89,255)" stroke-width="2" fill="none"></circle>
<circle cx="1977.46" cy="2034.1" r="4" stroke="rgb(255,97,0)" stroke-width="2" fill="none"></circle>
<circle cx="5206.36" cy="898.024" r="4" stroke="rgb(255,97,0)" stroke-width="2" fill="none"></circle>
<circle cx="1619.51" cy="1655.75" r="4" stroke="rgb(255,51,0)" stroke-width="2" fill="none"></circle>
<circle cx="5008.07" cy="1439.42" r="4" stroke="rgb(255,51,0)" stroke-width="2" fill="none"></circle>
<circle cx="1431.8" cy="1624.82" r="4" stroke="rgb(0,255,89)" stroke-width="2" fill="none"></circle>
<circle cx="5008.07" cy="1439.42" r="4" stroke="rgb(0,255,89)" stroke-width="2" fill="none"></circle>
<circle cx="1619.51" cy="1655.75" r="4" stroke="rgb(255,0,119)" stroke-width="2" fill="none"></circle>
<circle cx="5008.07" cy="1439.42" r="4" stroke="rgb(255,0,119)" stroke-width="2" fill="none"></circle>
<circle cx="1431.8" cy="1624.82" r="4" stroke="rgb(0,59,255)" stroke-width="2" fill="none"></circle>
<circle cx="5008.07" cy="1439.42" r="4" stroke="rgb(0,59,255)" stroke-width="2" fill="none"></circle>
<circle cx="1837.24" cy="1230.05" r="4" stroke="rgb(0,178,255)" stroke-width="2" fill="none"></circle>
<circle cx="5778" cy="1445.09" r="4" stroke="rgb(0,178,255)" stroke-width="2" fill="none"></circle>
<circle cx="1837.24" cy="1230.05" r="4" stroke="rgb(255,0,29)" stroke-width="2" fill="none"></circle>
<circle cx="5778" cy="1445.09" r="4" stroke="rgb(255,0,29)" stroke-width="2" fill="none"></circle>
<circle cx="1843.5" cy="1222.04" r="4" stroke="rgb(255,123,0)" stroke-width="2" fill="none"></circle>
<circle cx="5785.14" cy="1446.97" r="4" stroke="rgb(255,123,0)" stroke-width="2" fill="none"></circle>
<circle cx="1845.24" cy="1363.87" r="4" stroke="rgb(0,195,255)" stroke-width="2" fill="none"></circle>
<circle cx="5690.49" cy="1453.17" r="4" stroke="rgb(0,195,255)" stroke-width="2" fill="none"></circle>
<circle cx="1690.11" cy="987.868" r="4" stroke="rgb(0,255,203)" stroke-width="2" fill="none"></circle>
<circle cx="5892.28" cy="1277.45" r="4" stroke="rgb(0,255,203)" stroke-width="2" fill="none"></circle>
<circle cx="1845.57" cy="1376.26" r="4" stroke="rgb(255,102,0)" stroke-width="2" fill="none"></circle>
<circle cx="5680.14" cy="1462.65" r="4" stroke="rgb(255,102,0)" stroke-width="2" fill="none"></circle>
<circle cx="1793.94" cy="2012" r="4" stroke="rgb(0,131,255)" stroke-width="2" fill="none"></circle>
<circle cx="5851.77" cy="1471" r="4" stroke="rgb(0,131,255)" stroke-width="2" fill="none"></circle>
<circle cx="1883.76" cy="1378.46" r="4" stroke="rgb(0,255,216)" stroke-width="2" fill="none"></circle>
<circle cx="5696.04" cy="1495.52" r="4" stroke="rgb(0,255,216)" stroke-width="2" fill="none"></circle>
<circle cx="1793.94" cy="2012" r="4" stroke="rgb(0,25,255)" stroke-width="2" fill="none"></circle>
<circle cx="5882.18" cy="1496.12" r="4" stroke="rgb(0,25,255)" stroke-width="2" fill="none"></circle>
<circle cx="2627.96" cy="1421.73" r="4" stroke="rgb(255,0,119)" stroke-width="2" fill="none"></circle>
<circle cx="5937.79" cy="1519.99" r="4" stroke="rgb(255,0,119)" stroke-width="2" fill="none"></circle>
<circle cx="1725.48" cy="1371.55" r="4" stroke="rgb(237,255,0)" stroke-width="2" fill="none"></circle>
<circle cx="5623.83" cy="1362.43" r="4" stroke="rgb(237,255,0)" stroke-width="2" fill="none"></circle>
<circle cx="1704.78" cy="764.269" r="4" stroke="rgb(148,255,0)" stroke-width="2" fill="none"></circle>
<circle cx="6091.56" cy="1247.3" r="4" stroke="rgb(148,255,0)" stroke-width="2" fill="none"></circle>
<circle cx="1818.16" cy="1102.32" r="4" stroke="rgb(0,106,255)" stroke-width="2" fill="none"></circle>
<circle cx="5863.08" cy="1405.9" r="4" stroke="rgb(0,106,255)" stroke-width="2" fill="none"></circle>
<circle cx="1255.14" cy="1945.9" r="4" stroke="rgb(237,255,0)" stroke-width="2" fill="none"></circle>
<circle cx="5164.02" cy="1400.65" r="4" stroke="rgb(237,255,0)" stroke-width="2" fill="none"></circle>
<circle cx="1889.86" cy="1166.75" r="4" stroke="rgb(0,255,229)" stroke-width="2" fill="none"></circle>
<circle cx="5861.05" cy="1459.12" r="4" stroke="rgb(0,255,229)" stroke-width="2" fill="none"></circle>
<circle cx="1793.94" cy="2012" r="4" stroke="rgb(127,255,0)" stroke-width="2" fill="none"></circle>
<circle cx="5852.4" cy="1471.18" r="4" stroke="rgb(127,255,0)" stroke-width="2" fill="none"></circle>
<circle cx="1712.26" cy="1971.92" r="4" stroke="rgb(0,255,118)" stroke-width="2" fill="none"></circle>
<circle cx="5657.77" cy="627.598" r="4" stroke="rgb(0,255,118)" stroke-width="2" fill="none"></circle>
<circle cx="1712.26" cy="1971.92" r="4" stroke="rgb(255,4,0)" stroke-width="2" fill="none"></circle>
<circle cx="5657.77" cy="627.598" r="4" stroke="rgb(255,4,0)" stroke-width="2" fill="none"></circle>
<circle cx="1731.07" cy="2003.37" r="4" stroke="rgb(255,0,76)" stroke-width="2" fill="none"></circle>
<circle cx="4953.74" cy="1347.35" r="4" stroke="rgb(255,0,76)" stroke-width="2" fill="none"></circle>
<circle cx="1679.57" cy="800.598" r="4" stroke="rgb(255,0,140)" stroke-width="2" fill="none"></circle>
<circle cx="6047.11" cy="1235.06" r="4" stroke="rgb(255,0,140)" stroke-width="2" fill="none"></circle>
<circle cx="1679.57" cy="800.598" r="4" stroke="rgb(148,255,0)" stroke-width="2" fill="none"></circle>
<circle cx="6047.11" cy="1235.06" r="4" stroke="rgb(148,255,0)" stroke-width="2" fill="none"></circle>
<circle cx="1807.76" cy="1296.93" r="4" stroke="rgb(255,12,0)" stroke-width="2" fill="none"></circle>
<circle cx="5404.67" cy="782.867" r="4" stroke="rgb(255,12,0)" stroke-width="2" fill="none"></circle>
<circle cx="1683.18" cy="1030.22" r="4" stroke="rgb(250,255,0)" stroke-width="2" fill="none"></circle>
<circle cx="5855.11" cy="1274.94" r="4" stroke="rgb(250,255,0)" stroke-width="2" fill="none"></circle>
<circle cx="1684.79" cy="1092.83" r="4" stroke="rgb(0,255,50)" stroke-width="2" fill="none"></circle>
<circle cx="5808.44" cy="1281.89" r="4" stroke="rgb(0,255,50)" stroke-width="2" fill="none"></circle>
<circle cx="1677.63" cy="774.317" r="4" stroke="rgb(255,106,0)" stroke-width="2" fill="none"></circle>
<circle cx="6069.18" cy="1227.52" r="4" stroke="rgb(255,106,0)" stroke-width="2" fill="none"></circle>
<circle cx="1697.21" cy="800.12" r="4" stroke="rgb(170,0,255)" stroke-width="2" fill="none"></circle>
<circle cx="6055" cy="1250.76" r="4" stroke="rgb(170,0,255)" stroke-width="2" fill="none"></circle>
<circle cx="1697.21" cy="800.12" r="4" stroke="rgb(255,119,0)" stroke-width="2" fill="none"></circle>
<circle cx="6055" cy="1250.76" r="4" stroke="rgb(255,119,0)" stroke-width="2" fill="none"></circle>
<circle cx="1683.17" cy="876.833" r="4" stroke="rgb(123,0,255)" stroke-width="2" fill="none"></circle>
<circle cx="5981.1" cy="1253.43" r="4" stroke="rgb(123,0,255)" stroke-width="2" fill="none"></circle>
<circle cx="1844.66" cy="1008.11" r="4" stroke="rgb(229,0,255)" stroke-width="2" fill="none"></circle>
<circle cx="5955.41" cy="1400.96" r="4" stroke="rgb(229,0,255)" stroke-width="2" fill="none"></circle>
<circle cx="1668.94" cy="494.465" r="4" stroke="rgb(255,0,0)" stroke-width="2" fill="none"></circle>
<circle cx="5642.94" cy="1505.26" r="4" stroke="rgb(255,0,0)" stroke-width="2" fill="none"></circle>
<circle cx="1731.07" cy="2003.37" r="4" stroke="rgb(0,255,67)" stroke-width="2" fill="none"></circle>
<circle cx="6551.29" cy="697.145" r="4" stroke="rgb(0,255,67)" stroke-width="2" fill="none"></circle>
<circle cx="1700.32" cy="952.127" r="4" stroke="rgb(0,255,50)" stroke-width="2" fill="none"></circle>
<circle cx="5017.74" cy="1019.9" r="4" stroke="rgb(0,255,50)" stroke-width="2" fill="none"></circle>
<circle cx="2635.69" cy="2201.31" r="4" stroke="rgb(0,63,255)" stroke-width="2" fill="none"></circle>
<circle cx="5948.02" cy="1020.12" r="4" stroke="rgb(0,63,255)" stroke-width="2" fill="none"></circle>
<circle cx="2042.34" cy="1188.98" r="4" stroke="rgb(0,255,191)" stroke-width="2" fill="none"></circle>
<circle cx="5342.09" cy="1302.16" r="4" stroke="rgb(0,255,191)" stroke-width="2" fill="none"></circle>
<circle cx="1882.18" cy="1203.8" r="4" stroke="rgb(0,178,255)" stroke-width="2" fill="none"></circle>
<circle cx="5821.95" cy="1459.46" r="4" stroke="rgb(0,178,255)" stroke-width="2" fill="none"></circle>
</svg>