<?xml version="1.0" standalone="yes"?>
<!-- SVG graphic -->
<svg xmlns='http://www.w3.org/2000/svg' xmlns:xlink='http://www.w3.org/1999/xlink'
width="8064px" height="3024px" preserveAspectRatio="xMinYMin meet" viewBox="0 0 8064 3024" version="1.1">
<image x="0" y="0" width="4032px" height="3024px" opacity="1" xlink:href="/home/jeong/Code/2D-to-3D-Modeling-using-AI/Make3D/Image/20200227_180705.jpg"/>
<image x="4032" y="0" width="4032px" height="3024px" opacity="1" xlink:href="/home/jeong/Code/2D-to-3D-Modeling-using-AI/Make3D/Image/20200227_180731.jpg"/>
<polyline points="1743.36,948.855,5823.97,1878.5" stroke="rgb(0,255,195)" stroke-width="2" fill="none"></polyline>
<polyline points="1798.77,1949.96,5924.99,2725.35" stroke="rgb(0,80,255)" stroke-width="2" fill="none"></polyline>
<polyline points="2141.89,892.186,5820.22,1946.71" stroke="rgb(0,255,254)" stroke-width="2" fill="none"></polyline>
<polyline points="2538.88,1758.65,6169.65,788.465" stroke="rgb(0,131,255)" stroke-width="2" fill="none"></polyline>
<polyline points="1494.45,1016.88,5472.36,828.191" stroke="rgb(0,199,255)" stroke-width="2" fill="none"></polyline>
<polyline points="1748.22,870.134,5837.4,1960.59" stroke="rgb(255,63,0)" stroke-width="2" fill="none"></polyline>
<polyline points="1755.56,1035.46,5864.68,1980.37" stroke="rgb(178,255,0)" stroke-width="2" fill="none"></polyline>
<polyline points="2444.42,2004.87,5633.6,845.034" stroke="rgb(255,131,0)" stroke-width="2" fill="none"></polyline>
<polyline points="1742.21,788.522,5829.2,1985.63" stroke="rgb(255,80,0)" stroke-width="2" fill="none"></polyline>
<polyline points="1741.42,441.797,5410.11,918.179" stroke="rgb(0,195,255)" stroke-width="2" fill="none"></polyline>
<polyline points="2538.88,1758.65,6359.89,1234.05" stroke="rgb(0,255,63)" stroke-width="2" fill="none"></polyline>
<polyline points="2148.04,1142.63,6249.99,1259.61" stroke="rgb(255,0,25)" stroke-width="2" fill="none"></polyline>
<polyline points="2968.76,1980.08,5912.29,2198.34" stroke="rgb(76,0,255)" stroke-width="2" fill="none"></polyline>
<polyline points="2148.04,1142.63,6119.06,1318.87" stroke="rgb(255,0,63)" stroke-width="2" fill="none"></polyline>
<polyline points="2545.08,774.836,6446.72,851.881" stroke="rgb(0,255,67)" stroke-width="2" fill="none"></polyline>
<polyline points="1923.77,1233.22,5995.61,872.486" stroke="rgb(255,46,0)" stroke-width="2" fill="none"></polyline>
<polyline points="2148.04,1142.63,6278.92,1486.75" stroke="rgb(102,0,255)" stroke-width="2" fill="none"></polyline>
<polyline points="1803.83,1791.41,6101.52,959.055" stroke="rgb(255,12,0)" stroke-width="2" fill="none"></polyline>
<polyline points="1803.83,1791.41,6101.52,959.055" stroke="rgb(0,255,242)" stroke-width="2" fill="none"></polyline>
<polyline points="1748.79,1028.35,5629.55,1181.54" stroke="rgb(97,255,0)" stroke-width="2" fill="none"></polyline>
<polyline points="1807.4,1781.07,6107.68,975.536" stroke="rgb(0,255,242)" stroke-width="2" fill="none"></polyline>
<polyline points="2612.61,1304.48,6107.79,1502.15" stroke="rgb(0,255,16)" stroke-width="2" fill="none"></polyline>
<polyline points="1400.9,690.553,5876.54,2182" stroke="rgb(102,0,255)" stroke-width="2" fill="none"></polyline>
<polyline points="1355.12,2161.59,5755.56,1003.6" stroke="rgb(255,110,0)" stroke-width="2" fill="none"></polyline>
<polyline points="1564.63,1505.68,6657.34,1295.53" stroke="rgb(0,255,16)" stroke-width="2" fill="none"></polyline>
<polyline points="1807.4,1781.07,6037.3,1017.56" stroke="rgb(255,199,0)" stroke-width="2" fill="none"></polyline>
<polyline points="1807.4,1781.07,6165,1076.26" stroke="rgb(255,0,174)" stroke-width="2" fill="none"></polyline>
<polyline points="2354.23,1168.72,5644.99,1424.71" stroke="rgb(63,0,255)" stroke-width="2" fill="none"></polyline>
<polyline points="1597.54,779.618,6256.1,1555.06" stroke="rgb(233,255,0)" stroke-width="2" fill="none"></polyline>
<polyline points="1846.46,1756.1,6072.48,1201.79" stroke="rgb(255,204,0)" stroke-width="2" fill="none"></polyline>
<polyline points="1741.73,1032.77,5808.8,1792.15" stroke="rgb(140,255,0)" stroke-width="2" fill="none"></polyline>
<polyline points="1807.4,1781.07,6225.05,1227.46" stroke="rgb(0,33,255)" stroke-width="2" fill="none"></polyline>
<polyline points="1758.93,978.516,5807.48,1848.33" stroke="rgb(123,0,255)" stroke-width="2" fill="none"></polyline>
<polyline points="1447.25,1611.9,6747.63,1235.04" stroke="rgb(0,255,84)" stroke-width="2" fill="none"></polyline>
<polyline points="1898.1,1161.66,6269.13,1337.55" stroke="rgb(165,255,0)" stroke-width="2" fill="none"></polyline>
<polyline points="1846.46,1756.1,6286.52,1486.79" stroke="rgb(76,255,0)" stroke-width="2" fill="none"></polyline>
<polyline points="1846.46,1756.1,6286.52,1486.79" stroke="rgb(255,114,0)" stroke-width="2" fill="none"></polyline>
<polyline points="1885.35,1246.79,5714.5,1603.14" stroke="rgb(255,131,0)" stroke-width="2" fill="none"></polyline>
<polyline points="1807.4,1781.07,6370.21,1672.84" stroke="rgb(255,21,0)" stroke-width="2" fill="none"></polyline>
<polyline points="1800.48,1923.95,6207.28,1190.3" stroke="rgb(255,199,0)" stroke-width="2" fill="none"></polyline>
<polyline points="1800.48,1923.95,6207.28,1190.3" stroke="rgb(97,255,0)" stroke-width="2" fill="none"></polyline>
<polyline points="2438.14,652.807,6703.81,2259.66" stroke="rgb(255,51,0)" stroke-width="2" fill="none"></polyline>
<polyline points="1717.66,1913.91,5629.98,1306.43" stroke="rgb(140,0,255)" stroke-width="2" fill="none"></polyline>
<polyline points="1807.4,1781.07,6068.46,975.039" stroke="rgb(255,0,21)" stroke-width="2" fill="none"></polyline>
<polyline points="1898.1,1161.66,6301.17,1428.63" stroke="rgb(255,0,12)" stroke-width="2" fill="none"></polyline>
<polyline points="1898.1,1161.66,6301.17,1428.63" stroke="rgb(174,0,255)" stroke-width="2" fill="none"></polyline>
<polyline points="2968.76,1980.08,6282.06,1434.82" stroke="rgb(0,4,255)" stroke-width="2" fill="none"></polyline>
<polyline points="1297.84,2148.12,5973.34,1477.17" stroke="rgb(93,0,255)" stroke-width="2" fill="none"></polyline>
<polyline points="1846.46,1756.1,6287.45,1486.49" stroke="rgb(186,0,255)" stroke-width="2" fill="none"></polyline>
<polyline points="1800.48,1923.95,6318.27,1481.47" stroke="rgb(255,238,0)" stroke-width="2" fill="none"></polyline>
<polyline points="1717.03,650.259,6549.09,1483.19" stroke="rgb(255,0,4)" stroke-width="2" fill="none"></polyline>
<polyline points="2453.76,792.237,6776.69,1599.47" stroke="rgb(80,255,0)" stroke-width="2" fill="none"></polyline>
<polyline points="1804.98,1863.43,6225.74,1512.21" stroke="rgb(255,221,0)" stroke-width="2" fill="none"></polyline>
<polyline points="1764.53,1040.74,5818.11,1802.03" stroke="rgb(0,255,63)" stroke-width="2" fill="none"></polyline>
<polyline points="1752.07,915.943,5871.27,1836.16" stroke="rgb(255,0,0)" stroke-width="2" fill="none"></polyline>
<polyline points="1942.43,1147.28,6400.45,2318.64" stroke="rgb(0,255,242)" stroke-width="2" fill="none"></polyline>
<polyline points="2653.5,781.131,6691.2,1432.45" stroke="rgb(255,229,0)" stroke-width="2" fill="none"></polyline>
<circle cx="1743.36" cy="948.855" r="4" stroke="rgb(0,255,195)" stroke-width="2" fill="none"></circle>
<circle cx="5823.97" cy="1878.5" r="4" stroke="rgb(0,255,195)" stroke-width="2" fill="none"></circle>
<circle cx="1798.77" cy="1949.96" r="4" stroke="rgb(0,80,255)" stroke-width="2" fill="none"></circle>
<circle cx="5924.99" cy="2725.35" r="4" stroke="rgb(0,80,255)" stroke-width="2" fill="none"></circle>
<circle cx="2141.89" cy="892.186" r="4" stroke="rgb(0,255,254)" stroke-width="2" fill="none"></circle>
<circle cx="5820.22" cy="1946.71" r="4" stroke="rgb(0,255,254)" stroke-width="2" fill="none"></circle>
<circle cx="2538.88" cy="1758.65" r="4" stroke="rgb(0,131,255)" stroke-width="2" fill="none"></circle>
<circle cx="6169.65" cy="788.465" r="4" stroke="rgb(0,131,255)" stroke-width="2" fill="none"></circle>
<circle cx="1494.45" cy="1016.88" r="4" stroke="rgb(0,199,255)" stroke-width="2" fill="none"></circle>
<circle cx="5472.36" cy="828.191" r="4" stroke="rgb(0,199,255)" stroke-width="2" fill="none"></circle>
<circle cx="1748.22" cy="870.134" r="4" stroke="rgb(255,63,0)" stroke-width="2" fill="none"></circle>
<circle cx="5837.4" cy="1960.59" r="4" stroke="rgb(255,63,0)" stroke-width="2" fill="none"></circle>
<circle cx="1755.56" cy="1035.46" r="4" stroke="rgb(178,255,0)" stroke-width="2" fill="none"></circle>
<circle cx="5864.68" cy="1980.37" r="4" stroke="rgb(178,255,0)" stroke-width="2" fill="none"></circle>
<circle cx="2444.42" cy="2004.87" r="4" stroke="rgb(255,131,0)" stroke-width="2" fill="none"></circle>
<circle cx="5633.6" cy="845.034" r="4" stroke="rgb(255,131,0)" stroke-width="2" fill="none"></circle>
<circle cx="1742.21" cy="788.522" r="4" stroke="rgb(255,80,0)" stroke-width="2" fill="none"></circle>
<circle cx="5829.2" cy="1985.63" r="4" stroke="rgb(255,80,0)" stroke-width="2" fill="none"></circle>
<circle cx="1741.42" cy="441.797" r="4" stroke="rgb(0,195,255)" stroke-width="2" fill="none"></circle>
<circle cx="5410.11" cy="918.179" r="4" stroke="rgb(0,195,255)" stroke-width="2" fill="none"></circle>
<circle cx="2538.88" cy="1758.65" r="4" stroke="rgb(0,255,63)" stroke-width="2" fill="none"></circle>
<circle cx="6359.89" cy="1234.05" r="4" stroke="rgb(0,255,63)" stroke-width="2" fill="none"></circle>
<circle cx="2148.04" cy="1142.63" r="4" stroke="rgb(255,0,25)" stroke-width="2" fill="none"></circle>
<circle cx="6249.99" cy="1259.61" r="4" stroke="rgb(255,0,25)" stroke-width="2" fill="none"></circle>
<circle cx="2968.76" cy="1980.08" r="4" stroke="rgb(76,0,255)" stroke-width="2" fill="none"></circle>
<circle cx="5912.29" cy="2198.34" r="4" stroke="rgb(76,0,255)" stroke-width="2" fill="none"></circle>
<circle cx="2148.04" cy="1142.63" r="4" stroke="rgb(255,0,63)" stroke-width="2" fill="none"></circle>
<circle cx="6119.06" cy="1318.87" r="4" stroke="rgb(255,0,63)" stroke-width="2" fill="none"></circle>
<circle cx="2545.08" cy="774.836" r="4" stroke="rgb(0,255,67)" stroke-width="2" fill="none"></circle>
<circle cx="6446.72" cy="851.881" r="4" stroke="rgb(0,255,67)" stroke-width="2" fill="none"></circle>
<circle cx="1923.77" cy="1233.22" r="4" stroke="rgb(255,46,0)" stroke-width="2" fill="none"></circle>
<circle cx="5995.61" cy="872.486" r="4" stroke="rgb(255,46,0)" stroke-width="2" fill="none"></circle>
<circle cx="2148.04" cy="1142.63" r="4" stroke="rgb(102,0,255)" stroke-width="2" fill="none"></circle>
<circle cx="6278.92" cy="1486.75" r="4" stroke="rgb(102,0,255)" stroke-width="2" fill="none"></circle>
<circle cx="1803.83" cy="1791.41" r="4" stroke="rgb(255,12,0)" stroke-width="2" fill="none"></circle>
<circle cx="6101.52" cy="959.055" r="4" stroke="rgb(255,12,0)" stroke-width="2" fill="none"></circle>
<circle cx="1803.83" cy="1791.41" r="4" stroke="rgb(0,255,242)" stroke-width="2" fill="none"></circle>
<circle cx="6101.52" cy="959.055" r="4" stroke="rgb(0,255,242)" stroke-width="2" fill="none"></circle>
<circle cx="1748.79" cy="1028.35" r="4" stroke="rgb(97,255,0)" stroke-width="2" fill="none"></circle>
<circle cx="5629.55" cy="1181.54" r="4" stroke="rgb(97,255,0)" stroke-width="2" fill="none"></circle>
<circle cx="1807.4" cy="1781.07" r="4" stroke="rgb(0,255,242)" stroke-width="2" fill="none"></circle>
<circle cx="6107.68" cy="975.536" r="4" stroke="rgb(0,255,242)" stroke-width="2" fill="none"></circle>
<circle cx="2612.61" cy="1304.48" r="4" stroke="rgb(0,255,16)" stroke-width="2" fill="none"></circle>
<circle cx="6107.79" cy="1502.15" r="4" stroke="rgb(0,255,16)" stroke-width="2" fill="none"></circle>
<circle cx="1400.9" cy="690.553" r="4" stroke="rgb(102,0,255)" stroke-width="2" fill="none"></circle>
<circle cx="5876.54" cy="2182" r="4" stroke="rgb(102,0,255)" stroke-width="2" fill="none"></circle>
<circle cx="1355.12" cy="2161.59" r="4" stroke="rgb(255,110,0)" stroke-width="2" fill="none"></circle>
<circle cx="5755.56" cy="1003.6" r="4" stroke="rgb(255,110,0)" stroke-width="2" fill="none"></circle>
<circle cx="1564.63" cy="1505.68" r="4" stroke="rgb(0,255,16)" stroke-width="2" fill="none"></circle>
<circle cx="6657.34" cy="1295.53" r="4" stroke="rgb(0,255,16)" stroke-width="2" fill="none"></circle>
<circle cx="1807.4" cy="1781.07" r="4" stroke="rgb(255,199,0)" stroke-width="2" fill="none"></circle>
<circle cx="6037.3" cy="1017.56" r="4" stroke="rgb(255,199,0)" stroke-width="2" fill="none"></circle>
<circle cx="1807.4" cy="1781.07" r="4" stroke="rgb(255,0,174)" stroke-width="2" fill="none"></circle>
<circle cx="6165" cy="1076.26" r="4" stroke="rgb(255,0,174)" stroke-width="2" fill="none"></circle>
<circle cx="2354.23" cy="1168.72" r="4" stroke="rgb(63,0,255)" stroke-width="2" fill="none"></circle>
<circle cx="5644.99" cy="1424.71" r="4" stroke="rgb(63,0,255)" stroke-width="2" fill="none"></circle>
<circle cx="1597.54" cy="779.618" r="4" stroke="rgb(233,255,0)" stroke-width="2" fill="none"></circle>
<circle cx="6256.1" cy="1555.06" r="4" stroke="rgb(233,255,0)" stroke-width="2" fill="none"></circle>
<circle cx="1846.46" cy="1756.1" r="4" stroke="rgb(255,204,0)" stroke-width="2" fill="none"></circle>
<circle cx="6072.48" cy="1201.79" r="4" stroke="rgb(255,204,0)" stroke-width="2" fill="none"></circle>
<circle cx="1741.73" cy="1032.77" r="4" stroke="rgb(140,255,0)" stroke-width="2" fill="none"></circle>
<circle cx="5808.8" cy="1792.15" r="4" stroke="rgb(140,255,0)" stroke-width="2" fill="none"></circle>
<circle cx="1807.4" cy="1781.07" r="4" stroke="rgb(0,33,255)" stroke-width="2" fill="none"></circle>
<circle cx="6225.05" cy="1227.46" r="4" stroke="rgb(0,33,255)" stroke-width="2" fill="none"></circle>
<circle cx="1758.93" cy="978.516" r="4" stroke="rgb(123,0,255)" stroke-width="2" fill="none"></circle>
<circle cx="5807.48" cy="1848.33" r="4" stroke="rgb(123,0,255)" stroke-width="2" fill="none"></circle>
<circle cx="1447.25" cy="1611.9" r="4" stroke="rgb(0,255,84)" stroke-width="2" fill="none"></circle>
<circle cx="6747.63" cy="1235.04" r="4" stroke="rgb(0,255,84)" stroke-width="2" fill="none"></circle>
<circle cx="1898.1" cy="1161.66" r="4" stroke="rgb(165,255,0)" stroke-width="2" fill="none"></circle>
<circle cx="6269.13" cy="1337.55" r="4" stroke="rgb(165,255,0)" stroke-width="2" fill="none"></circle>
<circle cx="1846.46" cy="1756.1" r="4" stroke="rgb(76,255,0)" stroke-width="2" fill="none"></circle>
<circle cx="6286.52" cy="1486.79" r="4" stroke="rgb(76,255,0)" stroke-width="2" fill="none"></circle>
<circle cx="1846.46" cy="1756.1" r="4" stroke="rgb(255,114,0)" stroke-width="2" fill="none"></circle>
<circle cx="6286.52" cy="1486.79" r="4" stroke="rgb(255,114,0)" stroke-width="2" fill="none"></circle>
<circle cx="1885.35" cy="1246.79" r="4" stroke="rgb(255,131,0)" stroke-width="2" fill="none"></circle>
<circle cx="5714.5" cy="1603.14" r="4" stroke="rgb(255,131,0)" stroke-width="2" fill="none"></circle>
<circle cx="1807.4" cy="1781.07" r="4" stroke="rgb(255,21,0)" stroke-width="2" fill="none"></circle>
<circle cx="6370.21" cy="1672.84" r="4" stroke="rgb(255,21,0)" stroke-width="2" fill="none"></circle>
<circle cx="1800.48" cy="1923.95" r="4" stroke="rgb(255,199,0)" stroke-width="2" fill="none"></circle>
<circle cx="6207.28" cy="1190.3" r="4" stroke="rgb(255,199,0)" stroke-width="2" fill="none"></circle>
<circle cx="1800.48" cy="1923.95" r="4" stroke="rgb(97,255,0)" stroke-width="2" fill="none"></circle>
<circle cx="6207.28" cy="1190.3" r="4" stroke="rgb(97,255,0)" stroke-width="2" fill="none"></circle>
<circle cx="2438.14" cy="652.807" r="4" stroke="rgb(255,51,0)" stroke-width="2" fill="none"></circle>
<circle cx="6703.81" cy="2259.66" r="4" stroke="rgb(255,51,0)" stroke-width="2" fill="none"></circle>
<circle cx="1717.66" cy="1913.91" r="4" stroke="rgb(140,0,255)" stroke-width="2" fill="none"></circle>
<circle cx="5629.98" cy="1306.43" r="4" stroke="rgb(140,0,255)" stroke-width="2" fill="none"></circle>
<circle cx="1807.4" cy="1781.07" r="4" stroke="rgb(255,0,21)" stroke-width="2" fill="none"></circle>
<circle cx="6068.46" cy="975.039" r="4" stroke="rgb(255,0,21)" stroke-width="2" fill="none"></circle>
<circle cx="1898.1" cy="1161.66" r="4" stroke="rgb(255,0,12)" stroke-width="2" fill="none"></circle>
<circle cx="6301.17" cy="1428.63" r="4" stroke="rgb(255,0,12)" stroke-width="2" fill="none"></circle>
<circle cx="1898.1" cy="1161.66" r="4" stroke="rgb(174,0,255)" stroke-width="2" fill="none"></circle>
<circle cx="6301.17" cy="1428.63" r="4" stroke="rgb(174,0,255)" stroke-width="2" fill="none"></circle>
<circle cx="2968.76" cy="1980.08" r="4" stroke="rgb(0,4,255)" stroke-width="2" fill="none"></circle>
<circle cx="6282.06" cy="1434.82" r="4" stroke="rgb(0,4,255)" stroke-width="2" fill="none"></circle>
<circle cx="1297.84" cy="2148.12" r="4" stroke="rgb(93,0,255)" stroke-width="2" fill="none"></circle>
<circle cx="5973.34" cy="1477.17" r="4" stroke="rgb(93,0,255)" stroke-width="2" fill="none"></circle>
<circle cx="1846.46" cy="1756.1" r="4" stroke="rgb(186,0,255)" stroke-width="2" fill="none"></circle>
<circle cx="6287.45" cy="1486.49" r="4" stroke="rgb(186,0,255)" stroke-width="2" fill="none"></circle>
<circle cx="1800.48" cy="1923.95" r="4" stroke="rgb(255,238,0)" stroke-width="2" fill="none"></circle>
<circle cx="6318.27" cy="1481.47" r="4" stroke="rgb(255,238,0)" stroke-width="2" fill="none"></circle>
<circle cx="1717.03" cy="650.259" r="4" stroke="rgb(255,0,4)" stroke-width="2" fill="none"></circle>
<circle cx="6549.09" cy="1483.19" r="4" stroke="rgb(255,0,4)" stroke-width="2" fill="none"></circle>
<circle cx="2453.76" cy="792.237" r="4" stroke="rgb(80,255,0)" stroke-width="2" fill="none"></circle>
<circle cx="6776.69" cy="1599.47" r="4" stroke="rgb(80,255,0)" stroke-width="2" fill="none"></circle>
<circle cx="1804.98" cy="1863.43" r="4" stroke="rgb(255,221,0)" stroke-width="2" fill="none"></circle>
<circle cx="6225.74" cy="1512.21" r="4" stroke="rgb(255,221,0)" stroke-width="2" fill="none"></circle>
<circle cx="1764.53" cy="1040.74" r="4" stroke="rgb(0,255,63)" stroke-width="2" fill="none"></circle>
<circle cx="5818.11" cy="1802.03" r="4" stroke="rgb(0,255,63)" stroke-width="2" fill="none"></circle>
<circle cx="1752.07" cy="915.943" r="4" stroke="rgb(255,0,0)" stroke-width="2" fill="none"></circle>
<circle cx="5871.27" cy="1836.16" r="4" stroke="rgb(255,0,0)" stroke-width="2" fill="none"></circle>
<circle cx="1942.43" cy="1147.28" r="4" stroke="rgb(0,255,242)" stroke-width="2" fill="none"></circle>
<circle cx="6400.45" cy="2318.64" r="4" stroke="rgb(0,255,242)" stroke-width="2" fill="none"></circle>
<circle cx="2653.5" cy="781.131" r="4" stroke="rgb(255,229,0)" stroke-width="2" fill="none"></circle>
<circle cx="6691.2" cy="1432.45" r="4" stroke="rgb(255,229,0)" stroke-width="2" fill="none"></circle>
</svg>