<?xml version="1.0" standalone="yes"?>
<!-- SVG graphic -->
<svg xmlns='http://www.w3.org/2000/svg' xmlns:xlink='http://www.w3.org/1999/xlink'
width="8064px" height="3024px" preserveAspectRatio="xMinYMin meet" viewBox="0 0 8064 3024" version="1.1">
<image x="0" y="0" width="4032px" height="3024px" opacity="1" xlink:href="/home/jeong/Code/2D-to-3D-Modeling-using-AI/Make3D/Image/20200227_180705.jpg"/>
<image x="4032" y="0" width="4032px" height="3024px" opacity="1" xlink:href="/home/jeong/Code/2D-to-3D-Modeling-using-AI/Make3D/Image/20200227_180733.jpg"/>
<polyline points="1457.67,369.359,5426.63,2828.51" stroke="rgb(0,255,67)" stroke-width="2" fill="none"></polyline>
<polyline points="1592.87,373.529,6528.79,1143.97" stroke="rgb(255,221,0)" stroke-width="2" fill="none"></polyline>
<polyline points="1461.96,388.968,6651.02,2029.91" stroke="rgb(59,255,0)" stroke-width="2" fill="none"></polyline>
<polyline points="1741.42,441.797,6858.41,1322.2" stroke="rgb(0,8,255)" stroke-width="2" fill="none"></polyline>
<polyline points="1786.05,516.757,5992.8,2641.51" stroke="rgb(255,242,0)" stroke-width="2" fill="none"></polyline>
<polyline points="1972.77,538.435,5983.94,1792.25" stroke="rgb(148,0,255)" stroke-width="2" fill="none"></polyline>
<polyline points="1320.15,610.609,6683.47,2396.15" stroke="rgb(255,0,191)" stroke-width="2" fill="none"></polyline>
<polyline points="1759.57,646.452,6620.89,1697.1" stroke="rgb(8,255,0)" stroke-width="2" fill="none"></polyline>
<polyline points="2311.02,649.248,6473.68,2958.31" stroke="rgb(0,250,255)" stroke-width="2" fill="none"></polyline>
<polyline points="2633.11,675.377,6951.08,1252.78" stroke="rgb(0,255,131)" stroke-width="2" fill="none"></polyline>
<polyline points="2643.12,679.062,6773.07,1133.01" stroke="rgb(97,255,0)" stroke-width="2" fill="none"></polyline>
<polyline points="1647.84,702.09,6660.14,1839.82" stroke="rgb(208,0,255)" stroke-width="2" fill="none"></polyline>
<polyline points="1468.67,704,6496.44,2173.42" stroke="rgb(0,169,255)" stroke-width="2" fill="none"></polyline>
<polyline points="2353.31,752.912,6084.7,1221.79" stroke="rgb(131,0,255)" stroke-width="2" fill="none"></polyline>
<polyline points="2603.3,770.196,6412.47,1350.08" stroke="rgb(255,0,76)" stroke-width="2" fill="none"></polyline>
<polyline points="1597.54,779.618,6495.53,2182.22" stroke="rgb(0,114,255)" stroke-width="2" fill="none"></polyline>
<polyline points="1585.45,783.188,6583.3,2082.37" stroke="rgb(0,255,80)" stroke-width="2" fill="none"></polyline>
<polyline points="1742.21,788.522,5814.17,2358.07" stroke="rgb(199,255,0)" stroke-width="2" fill="none"></polyline>
<polyline points="2020.69,792.985,5797.92,2518.98" stroke="rgb(255,17,0)" stroke-width="2" fill="none"></polyline>
<polyline points="2043.45,793.429,5895.81,2279.08" stroke="rgb(80,0,255)" stroke-width="2" fill="none"></polyline>
<polyline points="1990.49,825.258,5918.55,1902.49" stroke="rgb(255,0,0)" stroke-width="2" fill="none"></polyline>
<polyline points="1723.88,836.922,6567.32,1803.51" stroke="rgb(0,255,80)" stroke-width="2" fill="none"></polyline>
<polyline points="1748.26,856.449,5906.91,2358.05" stroke="rgb(0,38,255)" stroke-width="2" fill="none"></polyline>
<polyline points="1439.81,858.214,5952.86,1770.64" stroke="rgb(0,255,250)" stroke-width="2" fill="none"></polyline>
<polyline points="2943.75,858.694,5767.08,2577.18" stroke="rgb(255,0,225)" stroke-width="2" fill="none"></polyline>
<polyline points="1488.29,871.131,5974.66,2650.84" stroke="rgb(255,0,106)" stroke-width="2" fill="none"></polyline>
<polyline points="2059.26,899.299,6071.34,1837.23" stroke="rgb(0,255,8)" stroke-width="2" fill="none"></polyline>
<polyline points="1921.14,939.967,5927.33,2469.06" stroke="rgb(0,255,97)" stroke-width="2" fill="none"></polyline>
<polyline points="2070.54,960.614,6058.6,1812.65" stroke="rgb(182,0,255)" stroke-width="2" fill="none"></polyline>
<polyline points="2521.23,990.83,5934.64,2320.91" stroke="rgb(0,255,169)" stroke-width="2" fill="none"></polyline>
<polyline points="1765.8,994.058,6739.95,1617.92" stroke="rgb(140,0,255)" stroke-width="2" fill="none"></polyline>
<polyline points="1477.13,1002.51,5963.19,1905.97" stroke="rgb(255,250,0)" stroke-width="2" fill="none"></polyline>
<polyline points="2801.41,1005.86,6075.29,1233.86" stroke="rgb(153,255,0)" stroke-width="2" fill="none"></polyline>
<polyline points="2636.99,1009.88,6688.16,1761.81" stroke="rgb(46,0,255)" stroke-width="2" fill="none"></polyline>
<polyline points="2834.9,1016.72,5891.74,2558.32" stroke="rgb(0,255,208)" stroke-width="2" fill="none"></polyline>
<polyline points="1637.87,1019.12,5922.63,2487.49" stroke="rgb(255,55,0)" stroke-width="2" fill="none"></polyline>
<polyline points="1743.61,1019.17,6004.54,2114.83" stroke="rgb(0,255,195)" stroke-width="2" fill="none"></polyline>
<polyline points="1754.49,1025.11,5819.43,2392.66" stroke="rgb(255,0,17)" stroke-width="2" fill="none"></polyline>
<polyline points="2043.21,1048.62,6059.71,1845.04" stroke="rgb(0,255,46)" stroke-width="2" fill="none"></polyline>
<polyline points="2654.08,1052.83,6580.59,2853.79" stroke="rgb(255,0,55)" stroke-width="2" fill="none"></polyline>
<polyline points="2351.43,1065.81,5830.82,2306.72" stroke="rgb(255,80,0)" stroke-width="2" fill="none"></polyline>
<polyline points="2765.06,1091.14,5996.51,2246.8" stroke="rgb(0,46,255)" stroke-width="2" fill="none"></polyline>
<polyline points="1713.28,1119.74,5974.94,1711.86" stroke="rgb(0,255,118)" stroke-width="2" fill="none"></polyline>
<polyline points="1753.6,1145.02,5947.81,2068.46" stroke="rgb(0,89,255)" stroke-width="2" fill="none"></polyline>
<polyline points="2747.05,1163.86,5869.67,2509.35" stroke="rgb(0,255,84)" stroke-width="2" fill="none"></polyline>
<polyline points="1735.98,1172.61,6982.75,1538.21" stroke="rgb(0,255,42)" stroke-width="2" fill="none"></polyline>
<polyline points="2590.29,1193.92,6366.21,1375.72" stroke="rgb(255,0,237)" stroke-width="2" fill="none"></polyline>
<polyline points="1875.51,1195.1,6520.15,2371.17" stroke="rgb(0,255,135)" stroke-width="2" fill="none"></polyline>
<polyline points="1913,1214.01,6434.25,2439.99" stroke="rgb(191,255,0)" stroke-width="2" fill="none"></polyline>
<polyline points="1858.98,1229.07,6689.79,2382.41" stroke="rgb(255,0,221)" stroke-width="2" fill="none"></polyline>
<polyline points="1633.32,1231.09,6750.69,2780.1" stroke="rgb(255,216,0)" stroke-width="2" fill="none"></polyline>
<polyline points="1860.39,1237.67,5886.98,2129.62" stroke="rgb(187,255,0)" stroke-width="2" fill="none"></polyline>
<polyline points="1884.71,1254.93,5946.42,1881.12" stroke="rgb(135,255,0)" stroke-width="2" fill="none"></polyline>
<polyline points="2649.31,1266.25,6466.25,2470.27" stroke="rgb(178,0,255)" stroke-width="2" fill="none"></polyline>
<polyline points="1925.15,1268.19,6545.54,2192.45" stroke="rgb(0,255,29)" stroke-width="2" fill="none"></polyline>
<polyline points="2612.61,1304.48,6370.03,2245.2" stroke="rgb(114,0,255)" stroke-width="2" fill="none"></polyline>
<polyline points="2013.44,1312.73,5945.14,2297.73" stroke="rgb(0,255,42)" stroke-width="2" fill="none"></polyline>
<polyline points="1570.49,1345.88,6659.32,1792.57" stroke="rgb(0,255,8)" stroke-width="2" fill="none"></polyline>
<polyline points="2464.16,1351.38,5994.73,1781.87" stroke="rgb(255,212,0)" stroke-width="2" fill="none"></polyline>
<polyline points="2707.53,1351.71,7039.92,1505.95" stroke="rgb(255,225,0)" stroke-width="2" fill="none"></polyline>
<polyline points="2624.86,1359.89,6985.08,1366.81" stroke="rgb(178,0,255)" stroke-width="2" fill="none"></polyline>
<polyline points="2686.56,1399.32,6464.37,2244.38" stroke="rgb(0,191,255)" stroke-width="2" fill="none"></polyline>
<polyline points="1590.86,1409.59,6604.15,2186.84" stroke="rgb(255,0,68)" stroke-width="2" fill="none"></polyline>
<polyline points="2179.57,1446.59,6152.68,2200.13" stroke="rgb(255,25,0)" stroke-width="2" fill="none"></polyline>
<polyline points="1940.34,1469.45,5879.39,2423.95" stroke="rgb(140,255,0)" stroke-width="2" fill="none"></polyline>
<polyline points="1556.68,1480.33,7023.65,1379.19" stroke="rgb(255,106,0)" stroke-width="2" fill="none"></polyline>
<polyline points="1775.87,1482.58,5870.75,2371.89" stroke="rgb(50,0,255)" stroke-width="2" fill="none"></polyline>
<polyline points="1794.91,1482.85,5854.84,2372.83" stroke="rgb(55,0,255)" stroke-width="2" fill="none"></polyline>
<polyline points="1770.51,1501.13,5875.28,2353.27" stroke="rgb(255,89,0)" stroke-width="2" fill="none"></polyline>
<polyline points="1768.04,1506.28,5877.49,2347.4" stroke="rgb(255,97,0)" stroke-width="2" fill="none"></polyline>
<polyline points="1464.21,1539.88,6228.3,1820.55" stroke="rgb(29,255,0)" stroke-width="2" fill="none"></polyline>
<polyline points="2120.11,1568.51,7051.94,1572.59" stroke="rgb(140,0,255)" stroke-width="2" fill="none"></polyline>
<polyline points="1729.19,1604.17,5810.34,2421.71" stroke="rgb(50,0,255)" stroke-width="2" fill="none"></polyline>
<polyline points="2831.04,1605.12,6835.9,2414.19" stroke="rgb(89,0,255)" stroke-width="2" fill="none"></polyline>
<polyline points="1447.25,1611.9,7107.83,2216.87" stroke="rgb(255,17,0)" stroke-width="2" fill="none"></polyline>
<polyline points="1766.54,1677.61,6454.25,2517.38" stroke="rgb(106,0,255)" stroke-width="2" fill="none"></polyline>
<polyline points="1548.89,1701.91,6411.14,2325.68" stroke="rgb(102,0,255)" stroke-width="2" fill="none"></polyline>
<polyline points="1557.35,1702.82,6398.89,2493.75" stroke="rgb(255,0,216)" stroke-width="2" fill="none"></polyline>
<polyline points="1142.52,1750.78,6863.94,2110.1" stroke="rgb(255,242,0)" stroke-width="2" fill="none"></polyline>
<polyline points="1810.02,1754.24,6471.4,2478.81" stroke="rgb(255,0,89)" stroke-width="2" fill="none"></polyline>
<polyline points="1846.46,1756.1,6540.09,1814.68" stroke="rgb(72,0,255)" stroke-width="2" fill="none"></polyline>
<polyline points="2538.88,1758.65,6738.1,2444.78" stroke="rgb(51,255,0)" stroke-width="2" fill="none"></polyline>
<polyline points="1803.83,1791.41,6613.82,2132.85" stroke="rgb(199,0,255)" stroke-width="2" fill="none"></polyline>
<polyline points="1842.35,1791.46,6562.37,2915.49" stroke="rgb(0,97,255)" stroke-width="2" fill="none"></polyline>
<polyline points="2094,1799.55,6499.74,1146.97" stroke="rgb(93,0,255)" stroke-width="2" fill="none"></polyline>
<polyline points="1890.59,1802.46,5952.16,2388.73" stroke="rgb(199,0,255)" stroke-width="2" fill="none"></polyline>
<polyline points="1838.05,1808.31,6727.24,1686.51" stroke="rgb(0,255,21)" stroke-width="2" fill="none"></polyline>
<polyline points="1338.48,1825.07,6199.37,1650.51" stroke="rgb(255,136,0)" stroke-width="2" fill="none"></polyline>
<polyline points="2050.01,1845.84,5780.47,2541.45" stroke="rgb(255,208,0)" stroke-width="2" fill="none"></polyline>
<polyline points="2877.81,1857.34,6239.65,1685.85" stroke="rgb(0,255,233)" stroke-width="2" fill="none"></polyline>
<polyline points="2723.37,1861.02,6560.09,2199.5" stroke="rgb(255,0,182)" stroke-width="2" fill="none"></polyline>
<polyline points="1739.95,1906.58,6084.16,2280.37" stroke="rgb(255,0,123)" stroke-width="2" fill="none"></polyline>
<polyline points="2714.67,1906.81,7051.64,1641.65" stroke="rgb(12,0,255)" stroke-width="2" fill="none"></polyline>
<polyline points="1829.86,1916.58,6625.37,2019.19" stroke="rgb(255,0,250)" stroke-width="2" fill="none"></polyline>
<polyline points="1802.92,1917.26,6611.14,2037.73" stroke="rgb(0,131,255)" stroke-width="2" fill="none"></polyline>
<polyline points="1793.04,1918.62,6438.41,2341.32" stroke="rgb(255,0,127)" stroke-width="2" fill="none"></polyline>
<polyline points="2941.84,1930.77,6899.19,2417.88" stroke="rgb(255,0,144)" stroke-width="2" fill="none"></polyline>
<polyline points="1383.25,1937.88,6764.69,1809.65" stroke="rgb(80,255,0)" stroke-width="2" fill="none"></polyline>
<polyline points="2483.92,1955.77,5950.51,1752.07" stroke="rgb(106,255,0)" stroke-width="2" fill="none"></polyline>
<polyline points="1328.1,1960.42,6195.4,1271.08" stroke="rgb(0,85,255)" stroke-width="2" fill="none"></polyline>
<polyline points="2968.76,1980.08,5575.62,2996.66" stroke="rgb(0,255,21)" stroke-width="2" fill="none"></polyline>
<polyline points="2028.67,1986.04,5939.72,2336.66" stroke="rgb(169,255,0)" stroke-width="2" fill="none"></polyline>
<polyline points="3016.18,1986.99,5773.98,2692.99" stroke="rgb(255,21,0)" stroke-width="2" fill="none"></polyline>
<polyline points="2443.55,2000.28,6279.1,1480.36" stroke="rgb(38,0,255)" stroke-width="2" fill="none"></polyline>
<polyline points="2444.42,2004.87,6572.16,1603.72" stroke="rgb(0,110,255)" stroke-width="2" fill="none"></polyline>
<polyline points="2465.93,2017.21,6407.27,1458.88" stroke="rgb(255,38,0)" stroke-width="2" fill="none"></polyline>
<polyline points="1614.14,2034.52,7069.98,1544.68" stroke="rgb(0,255,144)" stroke-width="2" fill="none"></polyline>
<polyline points="2736.25,2049.5,6118.85,2302.27" stroke="rgb(8,255,0)" stroke-width="2" fill="none"></polyline>
<polyline points="1592.35,2065.82,6602.52,2177.9" stroke="rgb(255,0,178)" stroke-width="2" fill="none"></polyline>
<polyline points="2161.16,2071.29,6233.91,2228.95" stroke="rgb(157,255,0)" stroke-width="2" fill="none"></polyline>
<polyline points="1579.95,2082.36,6886.93,1369.48" stroke="rgb(255,0,131)" stroke-width="2" fill="none"></polyline>
<polyline points="1485.31,2113.42,6851.73,1422.7" stroke="rgb(0,101,255)" stroke-width="2" fill="none"></polyline>
<polyline points="1472.81,2133.77,6389.79,1116.46" stroke="rgb(0,208,255)" stroke-width="2" fill="none"></polyline>
<polyline points="1294.53,2150.89,6192.84,2485.5" stroke="rgb(0,255,38)" stroke-width="2" fill="none"></polyline>
<circle cx="1457.67" cy="369.359" r="4" stroke="rgb(0,255,67)" stroke-width="2" fill="none"></circle>
<circle cx="5426.63" cy="2828.51" r="4" stroke="rgb(0,255,67)" stroke-width="2" fill="none"></circle>
<circle cx="1592.87" cy="373.529" r="4" stroke="rgb(255,221,0)" stroke-width="2" fill="none"></circle>
<circle cx="6528.79" cy="1143.97" r="4" stroke="rgb(255,221,0)" stroke-width="2" fill="none"></circle>
<circle cx="1461.96" cy="388.968" r="4" stroke="rgb(59,255,0)" stroke-width="2" fill="none"></circle>
<circle cx="6651.02" cy="2029.91" r="4" stroke="rgb(59,255,0)" stroke-width="2" fill="none"></circle>
<circle cx="1741.42" cy="441.797" r="4" stroke="rgb(0,8,255)" stroke-width="2" fill="none"></circle>
<circle cx="6858.41" cy="1322.2" r="4" stroke="rgb(0,8,255)" stroke-width="2" fill="none"></circle>
<circle cx="1786.05" cy="516.757" r="4" stroke="rgb(255,242,0)" stroke-width="2" fill="none"></circle>
<circle cx="5992.8" cy="2641.51" r="4" stroke="rgb(255,242,0)" stroke-width="2" fill="none"></circle>
<circle cx="1972.77" cy="538.435" r="4" stroke="rgb(148,0,255)" stroke-width="2" fill="none"></circle>
<circle cx="5983.94" cy="1792.25" r="4" stroke="rgb(148,0,255)" stroke-width="2" fill="none"></circle>
<circle cx="1320.15" cy="610.609" r="4" stroke="rgb(255,0,191)" stroke-width="2" fill="none"></circle>
<circle cx="6683.47" cy="2396.15" r="4" stroke="rgb(255,0,191)" stroke-width="2" fill="none"></circle>
<circle cx="1759.57" cy="646.452" r="4" stroke="rgb(8,255,0)" stroke-width="2" fill="none"></circle>
<circle cx="6620.89" cy="1697.1" r="4" stroke="rgb(8,255,0)" stroke-width="2" fill="none"></circle>
<circle cx="2311.02" cy="649.248" r="4" stroke="rgb(0,250,255)" stroke-width="2" fill="none"></circle>
<circle cx="6473.68" cy="2958.31" r="4" stroke="rgb(0,250,255)" stroke-width="2" fill="none"></circle>
<circle cx="2633.11" cy="675.377" r="4" stroke="rgb(0,255,131)" stroke-width="2" fill="none"></circle>
<circle cx="6951.08" cy="1252.78" r="4" stroke="rgb(0,255,131)" stroke-width="2" fill="none"></circle>
<circle cx="2643.12" cy="679.062" r="4" stroke="rgb(97,255,0)" stroke-width="2" fill="none"></circle>
<circle cx="6773.07" cy="1133.01" r="4" stroke="rgb(97,255,0)" stroke-width="2" fill="none"></circle>
<circle cx="1647.84" cy="702.09" r="4" stroke="rgb(208,0,255)" stroke-width="2" fill="none"></circle>
<circle cx="6660.14" cy="1839.82" r="4" stroke="rgb(208,0,255)" stroke-width="2" fill="none"></circle>
<circle cx="1468.67" cy="704" r="4" stroke="rgb(0,169,255)" stroke-width="2" fill="none"></circle>
<circle cx="6496.44" cy="2173.42" r="4" stroke="rgb(0,169,255)" stroke-width="2" fill="none"></circle>
<circle cx="2353.31" cy="752.912" r="4" stroke="rgb(131,0,255)" stroke-width="2" fill="none"></circle>
<circle cx="6084.7" cy="1221.79" r="4" stroke="rgb(131,0,255)" stroke-width="2" fill="none"></circle>
<circle cx="2603.3" cy="770.196" r="4" stroke="rgb(255,0,76)" stroke-width="2" fill="none"></circle>
<circle cx="6412.47" cy="1350.08" r="4" stroke="rgb(255,0,76)" stroke-width="2" fill="none"></circle>
<circle cx="1597.54" cy="779.618" r="4" stroke="rgb(0,114,255)" stroke-width="2" fill="none"></circle>
<circle cx="6495.53" cy="2182.22" r="4" stroke="rgb(0,114,255)" stroke-width="2" fill="none"></circle>
<circle cx="1585.45" cy="783.188" r="4" stroke="rgb(0,255,80)" stroke-width="2" fill="none"></circle>
<circle cx="6583.3" cy="2082.37" r="4" stroke="rgb(0,255,80)" stroke-width="2" fill="none"></circle>
<circle cx="1742.21" cy="788.522" r="4" stroke="rgb(199,255,0)" stroke-width="2" fill="none"></circle>
<circle cx="5814.17" cy="2358.07" r="4" stroke="rgb(199,255,0)" stroke-width="2" fill="none"></circle>
<circle cx="2020.69" cy="792.985" r="4" stroke="rgb(255,17,0)" stroke-width="2" fill="none"></circle>
<circle cx="5797.92" cy="2518.98" r="4" stroke="rgb(255,17,0)" stroke-width="2" fill="none"></circle>
<circle cx="2043.45" cy="793.429" r="4" stroke="rgb(80,0,255)" stroke-width="2" fill="none"></circle>
<circle cx="5895.81" cy="2279.08" r="4" stroke="rgb(80,0,255)" stroke-width="2" fill="none"></circle>
<circle cx="1990.49" cy="825.258" r="4" stroke="rgb(255,0,0)" stroke-width="2" fill="none"></circle>
<circle cx="5918.55" cy="1902.49" r="4" stroke="rgb(255,0,0)" stroke-width="2" fill="none"></circle>
<circle cx="1723.88" cy="836.922" r="4" stroke="rgb(0,255,80)" stroke-width="2" fill="none"></circle>
<circle cx="6567.32" cy="1803.51" r="4" stroke="rgb(0,255,80)" stroke-width="2" fill="none"></circle>
<circle cx="1748.26" cy="856.449" r="4" stroke="rgb(0,38,255)" stroke-width="2" fill="none"></circle>
<circle cx="5906.91" cy="2358.05" r="4" stroke="rgb(0,38,255)" stroke-width="2" fill="none"></circle>
<circle cx="1439.81" cy="858.214" r="4" stroke="rgb(0,255,250)" stroke-width="2" fill="none"></circle>
<circle cx="5952.86" cy="1770.64" r="4" stroke="rgb(0,255,250)" stroke-width="2" fill="none"></circle>
<circle cx="2943.75" cy="858.694" r="4" stroke="rgb(255,0,225)" stroke-width="2" fill="none"></circle>
<circle cx="5767.08" cy="2577.18" r="4" stroke="rgb(255,0,225)" stroke-width="2" fill="none"></circle>
<circle cx="1488.29" cy="871.131" r="4" stroke="rgb(255,0,106)" stroke-width="2" fill="none"></circle>
<circle cx="5974.66" cy="2650.84" r="4" stroke="rgb(255,0,106)" stroke-width="2" fill="none"></circle>
<circle cx="2059.26" cy="899.299" r="4" stroke="rgb(0,255,8)" stroke-width="2" fill="none"></circle>
<circle cx="6071.34" cy="1837.23" r="4" stroke="rgb(0,255,8)" stroke-width="2" fill="none"></circle>
<circle cx="1921.14" cy="939.967" r="4" stroke="rgb(0,255,97)" stroke-width="2" fill="none"></circle>
<circle cx="5927.33" cy="2469.06" r="4" stroke="rgb(0,255,97)" stroke-width="2" fill="none"></circle>
<circle cx="2070.54" cy="960.614" r="4" stroke="rgb(182,0,255)" stroke-width="2" fill="none"></circle>
<circle cx="6058.6" cy="1812.65" r="4" stroke="rgb(182,0,255)" stroke-width="2" fill="none"></circle>
<circle cx="2521.23" cy="990.83" r="4" stroke="rgb(0,255,169)" stroke-width="2" fill="none"></circle>
<circle cx="5934.64" cy="2320.91" r="4" stroke="rgb(0,255,169)" stroke-width="2" fill="none"></circle>
<circle cx="1765.8" cy="994.058" r="4" stroke="rgb(140,0,255)" stroke-width="2" fill="none"></circle>
<circle cx="6739.95" cy="1617.92" r="4" stroke="rgb(140,0,255)" stroke-width="2" fill="none"></circle>
<circle cx="1477.13" cy="1002.51" r="4" stroke="rgb(255,250,0)" stroke-width="2" fill="none"></circle>
<circle cx="5963.19" cy="1905.97" r="4" stroke="rgb(255,250,0)" stroke-width="2" fill="none"></circle>
<circle cx="2801.41" cy="1005.86" r="4" stroke="rgb(153,255,0)" stroke-width="2" fill="none"></circle>
<circle cx="6075.29" cy="1233.86" r="4" stroke="rgb(153,255,0)" stroke-width="2" fill="none"></circle>
<circle cx="2636.99" cy="1009.88" r="4" stroke="rgb(46,0,255)" stroke-width="2" fill="none"></circle>
<circle cx="6688.16" cy="1761.81" r="4" stroke="rgb(46,0,255)" stroke-width="2" fill="none"></circle>
<circle cx="2834.9" cy="1016.72" r="4" stroke="rgb(0,255,208)" stroke-width="2" fill="none"></circle>
<circle cx="5891.74" cy="2558.32" r="4" stroke="rgb(0,255,208)" stroke-width="2" fill="none"></circle>
<circle cx="1637.87" cy="1019.12" r="4" stroke="rgb(255,55,0)" stroke-width="2" fill="none"></circle>
<circle cx="5922.63" cy="2487.49" r="4" stroke="rgb(255,55,0)" stroke-width="2" fill="none"></circle>
<circle cx="1743.61" cy="1019.17" r="4" stroke="rgb(0,255,195)" stroke-width="2" fill="none"></circle>
<circle cx="6004.54" cy="2114.83" r="4" stroke="rgb(0,255,195)" stroke-width="2" fill="none"></circle>
<circle cx="1754.49" cy="1025.11" r="4" stroke="rgb(255,0,17)" stroke-width="2" fill="none"></circle>
<circle cx="5819.43" cy="2392.66" r="4" stroke="rgb(255,0,17)" stroke-width="2" fill="none"></circle>
<circle cx="2043.21" cy="1048.62" r="4" stroke="rgb(0,255,46)" stroke-width="2" fill="none"></circle>
<circle cx="6059.71" cy="1845.04" r="4" stroke="rgb(0,255,46)" stroke-width="2" fill="none"></circle>
<circle cx="2654.08" cy="1052.83" r="4" stroke="rgb(255,0,55)" stroke-width="2" fill="none"></circle>
<circle cx="6580.59" cy="2853.79" r="4" stroke="rgb(255,0,55)" stroke-width="2" fill="none"></circle>
<circle cx="2351.43" cy="1065.81" r="4" stroke="rgb(255,80,0)" stroke-width="2" fill="none"></circle>
<circle cx="5830.82" cy="2306.72" r="4" stroke="rgb(255,80,0)" stroke-width="2" fill="none"></circle>
<circle cx="2765.06" cy="1091.14" r="4" stroke="rgb(0,46,255)" stroke-width="2" fill="none"></circle>
<circle cx="5996.51" cy="2246.8" r="4" stroke="rgb(0,46,255)" stroke-width="2" fill="none"></circle>
<circle cx="1713.28" cy="1119.74" r="4" stroke="rgb(0,255,118)" stroke-width="2" fill="none"></circle>
<circle cx="5974.94" cy="1711.86" r="4" stroke="rgb(0,255,118)" stroke-width="2" fill="none"></circle>
<circle cx="1753.6" cy="1145.02" r="4" stroke="rgb(0,89,255)" stroke-width="2" fill="none"></circle>
<circle cx="5947.81" cy="2068.46" r="4" stroke="rgb(0,89,255)" stroke-width="2" fill="none"></circle>
<circle cx="2747.05" cy="1163.86" r="4" stroke="rgb(0,255,84)" stroke-width="2" fill="none"></circle>
<circle cx="5869.67" cy="2509.35" r="4" stroke="rgb(0,255,84)" stroke-width="2" fill="none"></circle>
<circle cx="1735.98" cy="1172.61" r="4" stroke="rgb(0,255,42)" stroke-width="2" fill="none"></circle>
<circle cx="6982.75" cy="1538.21" r="4" stroke="rgb(0,255,42)" stroke-width="2" fill="none"></circle>
<circle cx="2590.29" cy="1193.92" r="4" stroke="rgb(255,0,237)" stroke-width="2" fill="none"></circle>
<circle cx="6366.21" cy="1375.72" r="4" stroke="rgb(255,0,237)" stroke-width="2" fill="none"></circle>
<circle cx="1875.51" cy="1195.1" r="4" stroke="rgb(0,255,135)" stroke-width="2" fill="none"></circle>
<circle cx="6520.15" cy="2371.17" r="4" stroke="rgb(0,255,135)" stroke-width="2" fill="none"></circle>
<circle cx="1913" cy="1214.01" r="4" stroke="rgb(191,255,0)" stroke-width="2" fill="none"></circle>
<circle cx="6434.25" cy="2439.99" r="4" stroke="rgb(191,255,0)" stroke-width="2" fill="none"></circle>
<circle cx="1858.98" cy="1229.07" r="4" stroke="rgb(255,0,221)" stroke-width="2" fill="none"></circle>
<circle cx="6689.79" cy="2382.41" r="4" stroke="rgb(255,0,221)" stroke-width="2" fill="none"></circle>
<circle cx="1633.32" cy="1231.09" r="4" stroke="rgb(255,216,0)" stroke-width="2" fill="none"></circle>
<circle cx="6750.69" cy="2780.1" r="4" stroke="rgb(255,216,0)" stroke-width="2" fill="none"></circle>
<circle cx="1860.39" cy="1237.67" r="4" stroke="rgb(187,255,0)" stroke-width="2" fill="none"></circle>
<circle cx="5886.98" cy="2129.62" r="4" stroke="rgb(187,255,0)" stroke-width="2" fill="none"></circle>
<circle cx="1884.71" cy="1254.93" r="4" stroke="rgb(135,255,0)" stroke-width="2" fill="none"></circle>
<circle cx="5946.42" cy="1881.12" r="4" stroke="rgb(135,255,0)" stroke-width="2" fill="none"></circle>
<circle cx="2649.31" cy="1266.25" r="4" stroke="rgb(178,0,255)" stroke-width="2" fill="none"></circle>
<circle cx="6466.25" cy="2470.27" r="4" stroke="rgb(178,0,255)" stroke-width="2" fill="none"></circle>
<circle cx="1925.15" cy="1268.19" r="4" stroke="rgb(0,255,29)" stroke-width="2" fill="none"></circle>
<circle cx="6545.54" cy="2192.45" r="4" stroke="rgb(0,255,29)" stroke-width="2" fill="none"></circle>
<circle cx="2612.61" cy="1304.48" r="4" stroke="rgb(114,0,255)" stroke-width="2" fill="none"></circle>
<circle cx="6370.03" cy="2245.2" r="4" stroke="rgb(114,0,255)" stroke-width="2" fill="none"></circle>
<circle cx="2013.44" cy="1312.73" r="4" stroke="rgb(0,255,42)" stroke-width="2" fill="none"></circle>
<circle cx="5945.14" cy="2297.73" r="4" stroke="rgb(0,255,42)" stroke-width="2" fill="none"></circle>
<circle cx="1570.49" cy="1345.88" r="4" stroke="rgb(0,255,8)" stroke-width="2" fill="none"></circle>
<circle cx="6659.32" cy="1792.57" r="4" stroke="rgb(0,255,8)" stroke-width="2" fill="none"></circle>
<circle cx="2464.16" cy="1351.38" r="4" stroke="rgb(255,212,0)" stroke-width="2" fill="none"></circle>
<circle cx="5994.73" cy="1781.87" r="4" stroke="rgb(255,212,0)" stroke-width="2" fill="none"></circle>
<circle cx="2707.53" cy="1351.71" r="4" stroke="rgb(255,225,0)" stroke-width="2" fill="none"></circle>
<circle cx="7039.92" cy="1505.95" r="4" stroke="rgb(255,225,0)" stroke-width="2" fill="none"></circle>
<circle cx="2624.86" cy="1359.89" r="4" stroke="rgb(178,0,255)" stroke-width="2" fill="none"></circle>
<circle cx="6985.08" cy="1366.81" r="4" stroke="rgb(178,0,255)" stroke-width="2" fill="none"></circle>
<circle cx="2686.56" cy="1399.32" r="4" stroke="rgb(0,191,255)" stroke-width="2" fill="none"></circle>
<circle cx="6464.37" cy="2244.38" r="4" stroke="rgb(0,191,255)" stroke-width="2" fill="none"></circle>
<circle cx="1590.86" cy="1409.59" r="4" stroke="rgb(255,0,68)" stroke-width="2" fill="none"></circle>
<circle cx="6604.15" cy="2186.84" r="4" stroke="rgb(255,0,68)" stroke-width="2" fill="none"></circle>
<circle cx="2179.57" cy="1446.59" r="4" stroke="rgb(255,25,0)" stroke-width="2" fill="none"></circle>
<circle cx="6152.68" cy="2200.13" r="4" stroke="rgb(255,25,0)" stroke-width="2" fill="none"></circle>
<circle cx="1940.34" cy="1469.45" r="4" stroke="rgb(140,255,0)" stroke-width="2" fill="none"></circle>
<circle cx="5879.39" cy="2423.95" r="4" stroke="rgb(140,255,0)" stroke-width="2" fill="none"></circle>
<circle cx="1556.68" cy="1480.33" r="4" stroke="rgb(255,106,0)" stroke-width="2" fill="none"></circle>
<circle cx="7023.65" cy="1379.19" r="4" stroke="rgb(255,106,0)" stroke-width="2" fill="none"></circle>
<circle cx="1775.87" cy="1482.58" r="4" stroke="rgb(50,0,255)" stroke-width="2" fill="none"></circle>
<circle cx="5870.75" cy="2371.89" r="4" stroke="rgb(50,0,255)" stroke-width="2" fill="none"></circle>
<circle cx="1794.91" cy="1482.85" r="4" stroke="rgb(55,0,255)" stroke-width="2" fill="none"></circle>
<circle cx="5854.84" cy="2372.83" r="4" stroke="rgb(55,0,255)" stroke-width="2" fill="none"></circle>
<circle cx="1770.51" cy="1501.13" r="4" stroke="rgb(255,89,0)" stroke-width="2" fill="none"></circle>
<circle cx="5875.28" cy="2353.27" r="4" stroke="rgb(255,89,0)" stroke-width="2" fill="none"></circle>
<circle cx="1768.04" cy="1506.28" r="4" stroke="rgb(255,97,0)" stroke-width="2" fill="none"></circle>
<circle cx="5877.49" cy="2347.4" r="4" stroke="rgb(255,97,0)" stroke-width="2" fill="none"></circle>
<circle cx="1464.21" cy="1539.88" r="4" stroke="rgb(29,255,0)" stroke-width="2" fill="none"></circle>
<circle cx="6228.3" cy="1820.55" r="4" stroke="rgb(29,255,0)" stroke-width="2" fill="none"></circle>
<circle cx="2120.11" cy="1568.51" r="4" stroke="rgb(140,0,255)" stroke-width="2" fill="none"></circle>
<circle cx="7051.94" cy="1572.59" r="4" stroke="rgb(140,0,255)" stroke-width="2" fill="none"></circle>
<circle cx="1729.19" cy="1604.17" r="4" stroke="rgb(50,0,255)" stroke-width="2" fill="none"></circle>
<circle cx="5810.34" cy="2421.71" r="4" stroke="rgb(50,0,255)" stroke-width="2" fill="none"></circle>
<circle cx="2831.04" cy="1605.12" r="4" stroke="rgb(89,0,255)" stroke-width="2" fill="none"></circle>
<circle cx="6835.9" cy="2414.19" r="4" stroke="rgb(89,0,255)" stroke-width="2" fill="none"></circle>
<circle cx="1447.25" cy="1611.9" r="4" stroke="rgb(255,17,0)" stroke-width="2" fill="none"></circle>
<circle cx="7107.83" cy="2216.87" r="4" stroke="rgb(255,17,0)" stroke-width="2" fill="none"></circle>
<circle cx="1766.54" cy="1677.61" r="4" stroke="rgb(106,0,255)" stroke-width="2" fill="none"></circle>
<circle cx="6454.25" cy="2517.38" r="4" stroke="rgb(106,0,255)" stroke-width="2" fill="none"></circle>
<circle cx="1548.89" cy="1701.91" r="4" stroke="rgb(102,0,255)" stroke-width="2" fill="none"></circle>
<circle cx="6411.14" cy="2325.68" r="4" stroke="rgb(102,0,255)" stroke-width="2" fill="none"></circle>
<circle cx="1557.35" cy="1702.82" r="4" stroke="rgb(255,0,216)" stroke-width="2" fill="none"></circle>
<circle cx="6398.89" cy="2493.75" r="4" stroke="rgb(255,0,216)" stroke-width="2" fill="none"></circle>
<circle cx="1142.52" cy="1750.78" r="4" stroke="rgb(255,242,0)" stroke-width="2" fill="none"></circle>
<circle cx="6863.94" cy="2110.1" r="4" stroke="rgb(255,242,0)" stroke-width="2" fill="none"></circle>
<circle cx="1810.02" cy="1754.24" r="4" stroke="rgb(255,0,89)" stroke-width="2" fill="none"></circle>
<circle cx="6471.4" cy="2478.81" r="4" stroke="rgb(255,0,89)" stroke-width="2" fill="none"></circle>
<circle cx="1846.46" cy="1756.1" r="4" stroke="rgb(72,0,255)" stroke-width="2" fill="none"></circle>
<circle cx="6540.09" cy="1814.68" r="4" stroke="rgb(72,0,255)" stroke-width="2" fill="none"></circle>
<circle cx="2538.88" cy="1758.65" r="4" stroke="rgb(51,255,0)" stroke-width="2" fill="none"></circle>
<circle cx="6738.1" cy="2444.78" r="4" stroke="rgb(51,255,0)" stroke-width="2" fill="none"></circle>
<circle cx="1803.83" cy="1791.41" r="4" stroke="rgb(199,0,255)" stroke-width="2" fill="none"></circle>
<circle cx="6613.82" cy="2132.85" r="4" stroke="rgb(199,0,255)" stroke-width="2" fill="none"></circle>
<circle cx="1842.35" cy="1791.46" r="4" stroke="rgb(0,97,255)" stroke-width="2" fill="none"></circle>
<circle cx="6562.37" cy="2915.49" r="4" stroke="rgb(0,97,255)" stroke-width="2" fill="none"></circle>
<circle cx="2094" cy="1799.55" r="4" stroke="rgb(93,0,255)" stroke-width="2" fill="none"></circle>
<circle cx="6499.74" cy="1146.97" r="4" stroke="rgb(93,0,255)" stroke-width="2" fill="none"></circle>
<circle cx="1890.59" cy="1802.46" r="4" stroke="rgb(199,0,255)" stroke-width="2" fill="none"></circle>
<circle cx="5952.16" cy="2388.73" r="4" stroke="rgb(199,0,255)" stroke-width="2" fill="none"></circle>
<circle cx="1838.05" cy="1808.31" r="4" stroke="rgb(0,255,21)" stroke-width="2" fill="none"></circle>
<circle cx="6727.24" cy="1686.51" r="4" stroke="rgb(0,255,21)" stroke-width="2" fill="none"></circle>
<circle cx="1338.48" cy="1825.07" r="4" stroke="rgb(255,136,0)" stroke-width="2" fill="none"></circle>
<circle cx="6199.37" cy="1650.51" r="4" stroke="rgb(255,136,0)" stroke-width="2" fill="none"></circle>
<circle cx="2050.01" cy="1845.84" r="4" stroke="rgb(255,208,0)" stroke-width="2" fill="none"></circle>
<circle cx="5780.47" cy="2541.45" r="4" stroke="rgb(255,208,0)" stroke-width="2" fill="none"></circle>
<circle cx="2877.81" cy="1857.34" r="4" stroke="rgb(0,255,233)" stroke-width="2" fill="none"></circle>
<circle cx="6239.65" cy="1685.85" r="4" stroke="rgb(0,255,233)" stroke-width="2" fill="none"></circle>
<circle cx="2723.37" cy="1861.02" r="4" stroke="rgb(255,0,182)" stroke-width="2" fill="none"></circle>
<circle cx="6560.09" cy="2199.5" r="4" stroke="rgb(255,0,182)" stroke-width="2" fill="none"></circle>
<circle cx="1739.95" cy="1906.58" r="4" stroke="rgb(255,0,123)" stroke-width="2" fill="none"></circle>
<circle cx="6084.16" cy="2280.37" r="4" stroke="rgb(255,0,123)" stroke-width="2" fill="none"></circle>
<circle cx="2714.67" cy="1906.81" r="4" stroke="rgb(12,0,255)" stroke-width="2" fill="none"></circle>
<circle cx="7051.64" cy="1641.65" r="4" stroke="rgb(12,0,255)" stroke-width="2" fill="none"></circle>
<circle cx="1829.86" cy="1916.58" r="4" stroke="rgb(255,0,250)" stroke-width="2" fill="none"></circle>
<circle cx="6625.37" cy="2019.19" r="4" stroke="rgb(255,0,250)" stroke-width="2" fill="none"></circle>
<circle cx="1802.92" cy="1917.26" r="4" stroke="rgb(0,131,255)" stroke-width="2" fill="none"></circle>
<circle cx="6611.14" cy="2037.73" r="4" stroke="rgb(0,131,255)" stroke-width="2" fill="none"></circle>
<circle cx="1793.04" cy="1918.62" r="4" stroke="rgb(255,0,127)" stroke-width="2" fill="none"></circle>
<circle cx="6438.41" cy="2341.32" r="4" stroke="rgb(255,0,127)" stroke-width="2" fill="none"></circle>
<circle cx="2941.84" cy="1930.77" r="4" stroke="rgb(255,0,144)" stroke-width="2" fill="none"></circle>
<circle cx="6899.19" cy="2417.88" r="4" stroke="rgb(255,0,144)" stroke-width="2" fill="none"></circle>
<circle cx="1383.25" cy="1937.88" r="4" stroke="rgb(80,255,0)" stroke-width="2" fill="none"></circle>
<circle cx="6764.69" cy="1809.65" r="4" stroke="rgb(80,255,0)" stroke-width="2" fill="none"></circle>
<circle cx="2483.92" cy="1955.77" r="4" stroke="rgb(106,255,0)" stroke-width="2" fill="none"></circle>
<circle cx="5950.51" cy="1752.07" r="4" stroke="rgb(106,255,0)" stroke-width="2" fill="none"></circle>
<circle cx="1328.1" cy="1960.42" r="4" stroke="rgb(0,85,255)" stroke-width="2" fill="none"></circle>
<circle cx="6195.4" cy="1271.08" r="4" stroke="rgb(0,85,255)" stroke-width="2" fill="none"></circle>
<circle cx="2968.76" cy="1980.08" r="4" stroke="rgb(0,255,21)" stroke-width="2" fill="none"></circle>
<circle cx="5575.62" cy="2996.66" r="4" stroke="rgb(0,255,21)" stroke-width="2" fill="none"></circle>
<circle cx="2028.67" cy="1986.04" r="4" stroke="rgb(169,255,0)" stroke-width="2" fill="none"></circle>
<circle cx="5939.72" cy="2336.66" r="4" stroke="rgb(169,255,0)" stroke-width="2" fill="none"></circle>
<circle cx="3016.18" cy="1986.99" r="4" stroke="rgb(255,21,0)" stroke-width="2" fill="none"></circle>
<circle cx="5773.98" cy="2692.99" r="4" stroke="rgb(255,21,0)" stroke-width="2" fill="none"></circle>
<circle cx="2443.55" cy="2000.28" r="4" stroke="rgb(38,0,255)" stroke-width="2" fill="none"></circle>
<circle cx="6279.1" cy="1480.36" r="4" stroke="rgb(38,0,255)" stroke-width="2" fill="none"></circle>
<circle cx="2444.42" cy="2004.87" r="4" stroke="rgb(0,110,255)" stroke-width="2" fill="none"></circle>
<circle cx="6572.16" cy="1603.72" r="4" stroke="rgb(0,110,255)" stroke-width="2" fill="none"></circle>
<circle cx="2465.93" cy="2017.21" r="4" stroke="rgb(255,38,0)" stroke-width="2" fill="none"></circle>
<circle cx="6407.27" cy="1458.88" r="4" stroke="rgb(255,38,0)" stroke-width="2" fill="none"></circle>
<circle cx="1614.14" cy="2034.52" r="4" stroke="rgb(0,255,144)" stroke-width="2" fill="none"></circle>
<circle cx="7069.98" cy="1544.68" r="4" stroke="rgb(0,255,144)" stroke-width="2" fill="none"></circle>
<circle cx="2736.25" cy="2049.5" r="4" stroke="rgb(8,255,0)" stroke-width="2" fill="none"></circle>
<circle cx="6118.85" cy="2302.27" r="4" stroke="rgb(8,255,0)" stroke-width="2" fill="none"></circle>
<circle cx="1592.35" cy="2065.82" r="4" stroke="rgb(255,0,178)" stroke-width="2" fill="none"></circle>
<circle cx="6602.52" cy="2177.9" r="4" stroke="rgb(255,0,178)" stroke-width="2" fill="none"></circle>
<circle cx="2161.16" cy="2071.29" r="4" stroke="rgb(157,255,0)" stroke-width="2" fill="none"></circle>
<circle cx="6233.91" cy="2228.95" r="4" stroke="rgb(157,255,0)" stroke-width="2" fill="none"></circle>
<circle cx="1579.95" cy="2082.36" r="4" stroke="rgb(255,0,131)" stroke-width="2" fill="none"></circle>
<circle cx="6886.93" cy="1369.48" r="4" stroke="rgb(255,0,131)" stroke-width="2" fill="none"></circle>
<circle cx="1485.31" cy="2113.42" r="4" stroke="rgb(0,101,255)" stroke-width="2" fill="none"></circle>
<circle cx="6851.73" cy="1422.7" r="4" stroke="rgb(0,101,255)" stroke-width="2" fill="none"></circle>
<circle cx="1472.81" cy="2133.77" r="4" stroke="rgb(0,208,255)" stroke-width="2" fill="none"></circle>
<circle cx="6389.79" cy="1116.46" r="4" stroke="rgb(0,208,255)" stroke-width="2" fill="none"></circle>
<circle cx="1294.53" cy="2150.89" r="4" stroke="rgb(0,255,38)" stroke-width="2" fill="none"></circle>
<circle cx="6192.84" cy="2485.5" r="4" stroke="rgb(0,255,38)" stroke-width="2" fill="none"></circle>
</svg>