<?xml version="1.0" standalone="yes"?>
<!-- SVG graphic -->
<svg xmlns='http://www.w3.org/2000/svg' xmlns:xlink='http://www.w3.org/1999/xlink'
width="8064px" height="3024px" preserveAspectRatio="xMinYMin meet" viewBox="0 0 8064 3024" version="1.1">
<image x="0" y="0" width="4032px" height="3024px" opacity="1" xlink:href="/home/jeong/Code/2D-to-3D-Modeling-using-AI/Make3D/Image/20200227_180618.jpg"/>
<image x="4032" y="0" width="4032px" height="3024px" opacity="1" xlink:href="/home/jeong/Code/2D-to-3D-Modeling-using-AI/Make3D/Image/20200227_180634.jpg"/>
<polyline points="2109.34,2058.14,6540.09,1270.08" stroke="rgb(72,255,0)" stroke-width="2" fill="none"></polyline>
<polyline points="1904,1020.21,4637.44,1996.24" stroke="rgb(255,0,119)" stroke-width="2" fill="none"></polyline>
<polyline points="1914.7,1686.7,6249.12,1281.9" stroke="rgb(195,0,255)" stroke-width="2" fill="none"></polyline>
<polyline points="1541.22,297.058,6485.69,1343.13" stroke="rgb(195,0,255)" stroke-width="2" fill="none"></polyline>
<polyline points="1421.27,567.18,6644.16,1339.9" stroke="rgb(0,148,255)" stroke-width="2" fill="none"></polyline>
<polyline points="1214.51,1241.18,7123.6,2115.09" stroke="rgb(255,136,0)" stroke-width="2" fill="none"></polyline>
<polyline points="1129.5,468.969,6998.91,2175.01" stroke="rgb(255,0,225)" stroke-width="2" fill="none"></polyline>
<polyline points="1919.08,1852.4,5131.65,2178.43" stroke="rgb(221,255,0)" stroke-width="2" fill="none"></polyline>
<polyline points="2109.34,2058.14,6727.59,1377.79" stroke="rgb(221,0,255)" stroke-width="2" fill="none"></polyline>
<polyline points="1359.85,1198.23,6997.67,2190.59" stroke="rgb(127,255,0)" stroke-width="2" fill="none"></polyline>
<polyline points="1428.75,1154.46,4932.73,2248.35" stroke="rgb(106,255,0)" stroke-width="2" fill="none"></polyline>
<polyline points="979.173,653.423,6009.46,1425.67" stroke="rgb(208,255,0)" stroke-width="2" fill="none"></polyline>
<polyline points="979.173,653.423,6020.2,1430.61" stroke="rgb(174,0,255)" stroke-width="2" fill="none"></polyline>
<polyline points="1192.68,1436.25,5155.27,2317.79" stroke="rgb(140,0,255)" stroke-width="2" fill="none"></polyline>
<polyline points="979.173,653.423,6046.68,1443.09" stroke="rgb(0,76,255)" stroke-width="2" fill="none"></polyline>
<polyline points="979.173,653.423,6083.76,1463.76" stroke="rgb(25,255,0)" stroke-width="2" fill="none"></polyline>
<polyline points="1428.75,1154.46,5026.19,2325.42" stroke="rgb(203,0,255)" stroke-width="2" fill="none"></polyline>
<polyline points="979.173,653.423,6058.57,1448.9" stroke="rgb(76,255,0)" stroke-width="2" fill="none"></polyline>
<polyline points="2114.64,1992.17,6350,2210.92" stroke="rgb(255,0,229)" stroke-width="2" fill="none"></polyline>
<polyline points="1204.88,1476.44,5209.1,2333.27" stroke="rgb(21,255,0)" stroke-width="2" fill="none"></polyline>
<polyline points="2234.01,1601.97,5506.1,2215.01" stroke="rgb(0,255,140)" stroke-width="2" fill="none"></polyline>
<polyline points="979.173,653.423,6068.98,1455.02" stroke="rgb(212,255,0)" stroke-width="2" fill="none"></polyline>
<polyline points="2123.03,1044.77,5862.27,1535.57" stroke="rgb(255,89,0)" stroke-width="2" fill="none"></polyline>
<polyline points="956.493,734.662,5284.37,1567.48" stroke="rgb(195,255,0)" stroke-width="2" fill="none"></polyline>
<polyline points="834.514,394.913,5299.28,1575.13" stroke="rgb(233,255,0)" stroke-width="2" fill="none"></polyline>
<polyline points="1840.89,724.778,5874.51,1584.54" stroke="rgb(255,0,80)" stroke-width="2" fill="none"></polyline>
<polyline points="1959.15,650.985,7064.86,2295.13" stroke="rgb(255,153,0)" stroke-width="2" fill="none"></polyline>
<polyline points="1148.39,916.958,4891.4,2297.72" stroke="rgb(191,0,255)" stroke-width="2" fill="none"></polyline>
<polyline points="1890.64,1816.01,5911.25,2532.69" stroke="rgb(0,255,8)" stroke-width="2" fill="none"></polyline>
<polyline points="1776.85,1716.05,5820.27,2613.5" stroke="rgb(242,0,255)" stroke-width="2" fill="none"></polyline>
<polyline points="834.514,394.913,4358.22,1925.52" stroke="rgb(0,237,255)" stroke-width="2" fill="none"></polyline>
<polyline points="1875.4,876.445,6296.85,2675.9" stroke="rgb(97,255,0)" stroke-width="2" fill="none"></polyline>
<polyline points="2083.8,1816.01,5841.79,2787.69" stroke="rgb(0,255,93)" stroke-width="2" fill="none"></polyline>
<polyline points="1718.83,1359.09,5846.62,2791.66" stroke="rgb(42,255,0)" stroke-width="2" fill="none"></polyline>
<polyline points="1363.66,1114.89,7025.9,2047.94" stroke="rgb(67,0,255)" stroke-width="2" fill="none"></polyline>
<polyline points="1812.94,1273.86,7069.51,2081.49" stroke="rgb(0,89,255)" stroke-width="2" fill="none"></polyline>
<polyline points="1065.8,648.193,5562.73,2535.88" stroke="rgb(255,63,0)" stroke-width="2" fill="none"></polyline>
<polyline points="1547.34,294.271,6023.27,2760.29" stroke="rgb(191,255,0)" stroke-width="2" fill="none"></polyline>
<polyline points="1547.34,294.271,6013.81,2770.44" stroke="rgb(199,0,255)" stroke-width="2" fill="none"></polyline>
<polyline points="1547.34,294.271,6002.27,2780.97" stroke="rgb(255,0,225)" stroke-width="2" fill="none"></polyline>
<polyline points="1875.4,876.445,6195.25,2709.47" stroke="rgb(255,157,0)" stroke-width="2" fill="none"></polyline>
<polyline points="2106.6,1916.65,6963.09,2023.18" stroke="rgb(63,0,255)" stroke-width="2" fill="none"></polyline>
<polyline points="2106.6,1916.65,6963.09,2023.18" stroke="rgb(46,0,255)" stroke-width="2" fill="none"></polyline>
<polyline points="1541.22,297.058,6545.76,1382.24" stroke="rgb(255,0,178)" stroke-width="2" fill="none"></polyline>
<polyline points="982.754,298.153,4813.73,2192.24" stroke="rgb(255,170,0)" stroke-width="2" fill="none"></polyline>
<polyline points="2497.79,2190.22,5096.66,2423.18" stroke="rgb(29,255,0)" stroke-width="2" fill="none"></polyline>
<polyline points="2428.72,2175.03,4597.07,1768.36" stroke="rgb(255,0,237)" stroke-width="2" fill="none"></polyline>
<polyline points="1022.04,219.226,5730.18,2578.64" stroke="rgb(255,0,136)" stroke-width="2" fill="none"></polyline>
<polyline points="1872.35,523.022,6286.3,2662.39" stroke="rgb(135,255,0)" stroke-width="2" fill="none"></polyline>
<polyline points="1347.75,1542.06,4954.28,2392.85" stroke="rgb(42,0,255)" stroke-width="2" fill="none"></polyline>
<polyline points="1347.75,1542.06,4954.28,2392.85" stroke="rgb(255,0,191)" stroke-width="2" fill="none"></polyline>
<polyline points="2445.8,2130.89,6371.86,2406.2" stroke="rgb(29,255,0)" stroke-width="2" fill="none"></polyline>
<polyline points="2210.97,1393.54,5331.14,1591.14" stroke="rgb(0,199,255)" stroke-width="2" fill="none"></polyline>
<polyline points="2451.32,2086.7,4790.77,2369.16" stroke="rgb(255,0,101)" stroke-width="2" fill="none"></polyline>
<polyline points="2622.19,1173.07,6619.84,2227.86" stroke="rgb(0,225,255)" stroke-width="2" fill="none"></polyline>
<circle cx="2109.34" cy="2058.14" r="4" stroke="rgb(72,255,0)" stroke-width="2" fill="none"></circle>
<circle cx="6540.09" cy="1270.08" r="4" stroke="rgb(72,255,0)" stroke-width="2" fill="none"></circle>
<circle cx="1904" cy="1020.21" r="4" stroke="rgb(255,0,119)" stroke-width="2" fill="none"></circle>
<circle cx="4637.44" cy="1996.24" r="4" stroke="rgb(255,0,119)" stroke-width="2" fill="none"></circle>
<circle cx="1914.7" cy="1686.7" r="4" stroke="rgb(195,0,255)" stroke-width="2" fill="none"></circle>
<circle cx="6249.12" cy="1281.9" r="4" stroke="rgb(195,0,255)" stroke-width="2" fill="none"></circle>
<circle cx="1541.22" cy="297.058" r="4" stroke="rgb(195,0,255)" stroke-width="2" fill="none"></circle>
<circle cx="6485.69" cy="1343.13" r="4" stroke="rgb(195,0,255)" stroke-width="2" fill="none"></circle>
<circle cx="1421.27" cy="567.18" r="4" stroke="rgb(0,148,255)" stroke-width="2" fill="none"></circle>
<circle cx="6644.16" cy="1339.9" r="4" stroke="rgb(0,148,255)" stroke-width="2" fill="none"></circle>
<circle cx="1214.51" cy="1241.18" r="4" stroke="rgb(255,136,0)" stroke-width="2" fill="none"></circle>
<circle cx="7123.6" cy="2115.09" r="4" stroke="rgb(255,136,0)" stroke-width="2" fill="none"></circle>
<circle cx="1129.5" cy="468.969" r="4" stroke="rgb(255,0,225)" stroke-width="2" fill="none"></circle>
<circle cx="6998.91" cy="2175.01" r="4" stroke="rgb(255,0,225)" stroke-width="2" fill="none"></circle>
<circle cx="1919.08" cy="1852.4" r="4" stroke="rgb(221,255,0)" stroke-width="2" fill="none"></circle>
<circle cx="5131.65" cy="2178.43" r="4" stroke="rgb(221,255,0)" stroke-width="2" fill="none"></circle>
<circle cx="2109.34" cy="2058.14" r="4" stroke="rgb(221,0,255)" stroke-width="2" fill="none"></circle>
<circle cx="6727.59" cy="1377.79" r="4" stroke="rgb(221,0,255)" stroke-width="2" fill="none"></circle>
<circle cx="1359.85" cy="1198.23" r="4" stroke="rgb(127,255,0)" stroke-width="2" fill="none"></circle>
<circle cx="6997.67" cy="2190.59" r="4" stroke="rgb(127,255,0)" stroke-width="2" fill="none"></circle>
<circle cx="1428.75" cy="1154.46" r="4" stroke="rgb(106,255,0)" stroke-width="2" fill="none"></circle>
<circle cx="4932.73" cy="2248.35" r="4" stroke="rgb(106,255,0)" stroke-width="2" fill="none"></circle>
<circle cx="979.173" cy="653.423" r="4" stroke="rgb(208,255,0)" stroke-width="2" fill="none"></circle>
<circle cx="6009.46" cy="1425.67" r="4" stroke="rgb(208,255,0)" stroke-width="2" fill="none"></circle>
<circle cx="979.173" cy="653.423" r="4" stroke="rgb(174,0,255)" stroke-width="2" fill="none"></circle>
<circle cx="6020.2" cy="1430.61" r="4" stroke="rgb(174,0,255)" stroke-width="2" fill="none"></circle>
<circle cx="1192.68" cy="1436.25" r="4" stroke="rgb(140,0,255)" stroke-width="2" fill="none"></circle>
<circle cx="5155.27" cy="2317.79" r="4" stroke="rgb(140,0,255)" stroke-width="2" fill="none"></circle>
<circle cx="979.173" cy="653.423" r="4" stroke="rgb(0,76,255)" stroke-width="2" fill="none"></circle>
<circle cx="6046.68" cy="1443.09" r="4" stroke="rgb(0,76,255)" stroke-width="2" fill="none"></circle>
<circle cx="979.173" cy="653.423" r="4" stroke="rgb(25,255,0)" stroke-width="2" fill="none"></circle>
<circle cx="6083.76" cy="1463.76" r="4" stroke="rgb(25,255,0)" stroke-width="2" fill="none"></circle>
<circle cx="1428.75" cy="1154.46" r="4" stroke="rgb(203,0,255)" stroke-width="2" fill="none"></circle>
<circle cx="5026.19" cy="2325.42" r="4" stroke="rgb(203,0,255)" stroke-width="2" fill="none"></circle>
<circle cx="979.173" cy="653.423" r="4" stroke="rgb(76,255,0)" stroke-width="2" fill="none"></circle>
<circle cx="6058.57" cy="1448.9" r="4" stroke="rgb(76,255,0)" stroke-width="2" fill="none"></circle>
<circle cx="2114.64" cy="1992.17" r="4" stroke="rgb(255,0,229)" stroke-width="2" fill="none"></circle>
<circle cx="6350" cy="2210.92" r="4" stroke="rgb(255,0,229)" stroke-width="2" fill="none"></circle>
<circle cx="1204.88" cy="1476.44" r="4" stroke="rgb(21,255,0)" stroke-width="2" fill="none"></circle>
<circle cx="5209.1" cy="2333.27" r="4" stroke="rgb(21,255,0)" stroke-width="2" fill="none"></circle>
<circle cx="2234.01" cy="1601.97" r="4" stroke="rgb(0,255,140)" stroke-width="2" fill="none"></circle>
<circle cx="5506.1" cy="2215.01" r="4" stroke="rgb(0,255,140)" stroke-width="2" fill="none"></circle>
<circle cx="979.173" cy="653.423" r="4" stroke="rgb(212,255,0)" stroke-width="2" fill="none"></circle>
<circle cx="6068.98" cy="1455.02" r="4" stroke="rgb(212,255,0)" stroke-width="2" fill="none"></circle>
<circle cx="2123.03" cy="1044.77" r="4" stroke="rgb(255,89,0)" stroke-width="2" fill="none"></circle>
<circle cx="5862.27" cy="1535.57" r="4" stroke="rgb(255,89,0)" stroke-width="2" fill="none"></circle>
<circle cx="956.493" cy="734.662" r="4" stroke="rgb(195,255,0)" stroke-width="2" fill="none"></circle>
<circle cx="5284.37" cy="1567.48" r="4" stroke="rgb(195,255,0)" stroke-width="2" fill="none"></circle>
<circle cx="834.514" cy="394.913" r="4" stroke="rgb(233,255,0)" stroke-width="2" fill="none"></circle>
<circle cx="5299.28" cy="1575.13" r="4" stroke="rgb(233,255,0)" stroke-width="2" fill="none"></circle>
<circle cx="1840.89" cy="724.778" r="4" stroke="rgb(255,0,80)" stroke-width="2" fill="none"></circle>
<circle cx="5874.51" cy="1584.54" r="4" stroke="rgb(255,0,80)" stroke-width="2" fill="none"></circle>
<circle cx="1959.15" cy="650.985" r="4" stroke="rgb(255,153,0)" stroke-width="2" fill="none"></circle>
<circle cx="7064.86" cy="2295.13" r="4" stroke="rgb(255,153,0)" stroke-width="2" fill="none"></circle>
<circle cx="1148.39" cy="916.958" r="4" stroke="rgb(191,0,255)" stroke-width="2" fill="none"></circle>
<circle cx="4891.4" cy="2297.72" r="4" stroke="rgb(191,0,255)" stroke-width="2" fill="none"></circle>
<circle cx="1890.64" cy="1816.01" r="4" stroke="rgb(0,255,8)" stroke-width="2" fill="none"></circle>
<circle cx="5911.25" cy="2532.69" r="4" stroke="rgb(0,255,8)" stroke-width="2" fill="none"></circle>
<circle cx="1776.85" cy="1716.05" r="4" stroke="rgb(242,0,255)" stroke-width="2" fill="none"></circle>
<circle cx="5820.27" cy="2613.5" r="4" stroke="rgb(242,0,255)" stroke-width="2" fill="none"></circle>
<circle cx="834.514" cy="394.913" r="4" stroke="rgb(0,237,255)" stroke-width="2" fill="none"></circle>
<circle cx="4358.22" cy="1925.52" r="4" stroke="rgb(0,237,255)" stroke-width="2" fill="none"></circle>
<circle cx="1875.4" cy="876.445" r="4" stroke="rgb(97,255,0)" stroke-width="2" fill="none"></circle>
<circle cx="6296.85" cy="2675.9" r="4" stroke="rgb(97,255,0)" stroke-width="2" fill="none"></circle>
<circle cx="2083.8" cy="1816.01" r="4" stroke="rgb(0,255,93)" stroke-width="2" fill="none"></circle>
<circle cx="5841.79" cy="2787.69" r="4" stroke="rgb(0,255,93)" stroke-width="2" fill="none"></circle>
<circle cx="1718.83" cy="1359.09" r="4" stroke="rgb(42,255,0)" stroke-width="2" fill="none"></circle>
<circle cx="5846.62" cy="2791.66" r="4" stroke="rgb(42,255,0)" stroke-width="2" fill="none"></circle>
<circle cx="1363.66" cy="1114.89" r="4" stroke="rgb(67,0,255)" stroke-width="2" fill="none"></circle>
<circle cx="7025.9" cy="2047.94" r="4" stroke="rgb(67,0,255)" stroke-width="2" fill="none"></circle>
<circle cx="1812.94" cy="1273.86" r="4" stroke="rgb(0,89,255)" stroke-width="2" fill="none"></circle>
<circle cx="7069.51" cy="2081.49" r="4" stroke="rgb(0,89,255)" stroke-width="2" fill="none"></circle>
<circle cx="1065.8" cy="648.193" r="4" stroke="rgb(255,63,0)" stroke-width="2" fill="none"></circle>
<circle cx="5562.73" cy="2535.88" r="4" stroke="rgb(255,63,0)" stroke-width="2" fill="none"></circle>
<circle cx="1547.34" cy="294.271" r="4" stroke="rgb(191,255,0)" stroke-width="2" fill="none"></circle>
<circle cx="6023.27" cy="2760.29" r="4" stroke="rgb(191,255,0)" stroke-width="2" fill="none"></circle>
<circle cx="1547.34" cy="294.271" r="4" stroke="rgb(199,0,255)" stroke-width="2" fill="none"></circle>
<circle cx="6013.81" cy="2770.44" r="4" stroke="rgb(199,0,255)" stroke-width="2" fill="none"></circle>
<circle cx="1547.34" cy="294.271" r="4" stroke="rgb(255,0,225)" stroke-width="2" fill="none"></circle>
<circle cx="6002.27" cy="2780.97" r="4" stroke="rgb(255,0,225)" stroke-width="2" fill="none"></circle>
<circle cx="1875.4" cy="876.445" r="4" stroke="rgb(255,157,0)" stroke-width="2" fill="none"></circle>
<circle cx="6195.25" cy="2709.47" r="4" stroke="rgb(255,157,0)" stroke-width="2" fill="none"></circle>
<circle cx="2106.6" cy="1916.65" r="4" stroke="rgb(63,0,255)" stroke-width="2" fill="none"></circle>
<circle cx="6963.09" cy="2023.18" r="4" stroke="rgb(63,0,255)" stroke-width="2" fill="none"></circle>
<circle cx="2106.6" cy="1916.65" r="4" stroke="rgb(46,0,255)" stroke-width="2" fill="none"></circle>
<circle cx="6963.09" cy="2023.18" r="4" stroke="rgb(46,0,255)" stroke-width="2" fill="none"></circle>
<circle cx="1541.22" cy="297.058" r="4" stroke="rgb(255,0,178)" stroke-width="2" fill="none"></circle>
<circle cx="6545.76" cy="1382.24" r="4" stroke="rgb(255,0,178)" stroke-width="2" fill="none"></circle>
<circle cx="982.754" cy="298.153" r="4" stroke="rgb(255,170,0)" stroke-width="2" fill="none"></circle>
<circle cx="4813.73" cy="2192.24" r="4" stroke="rgb(255,170,0)" stroke-width="2" fill="none"></circle>
<circle cx="2497.79" cy="2190.22" r="4" stroke="rgb(29,255,0)" stroke-width="2" fill="none"></circle>
<circle cx="5096.66" cy="2423.18" r="4" stroke="rgb(29,255,0)" stroke-width="2" fill="none"></circle>
<circle cx="2428.72" cy="2175.03" r="4" stroke="rgb(255,0,237)" stroke-width="2" fill="none"></circle>
<circle cx="4597.07" cy="1768.36" r="4" stroke="rgb(255,0,237)" stroke-width="2" fill="none"></circle>
<circle cx="1022.04" cy="219.226" r="4" stroke="rgb(255,0,136)" stroke-width="2" fill="none"></circle>
<circle cx="5730.18" cy="2578.64" r="4" stroke="rgb(255,0,136)" stroke-width="2" fill="none"></circle>
<circle cx="1872.35" cy="523.022" r="4" stroke="rgb(135,255,0)" stroke-width="2" fill="none"></circle>
<circle cx="6286.3" cy="2662.39" r="4" stroke="rgb(135,255,0)" stroke-width="2" fill="none"></circle>
<circle cx="1347.75" cy="1542.06" r="4" stroke="rgb(42,0,255)" stroke-width="2" fill="none"></circle>
<circle cx="4954.28" cy="2392.85" r="4" stroke="rgb(42,0,255)" stroke-width="2" fill="none"></circle>
<circle cx="1347.75" cy="1542.06" r="4" stroke="rgb(255,0,191)" stroke-width="2" fill="none"></circle>
<circle cx="4954.28" cy="2392.85" r="4" stroke="rgb(255,0,191)" stroke-width="2" fill="none"></circle>
<circle cx="2445.8" cy="2130.89" r="4" stroke="rgb(29,255,0)" stroke-width="2" fill="none"></circle>
<circle cx="6371.86" cy="2406.2" r="4" stroke="rgb(29,255,0)" stroke-width="2" fill="none"></circle>
<circle cx="2210.97" cy="1393.54" r="4" stroke="rgb(0,199,255)" stroke-width="2" fill="none"></circle>
<circle cx="5331.14" cy="1591.14" r="4" stroke="rgb(0,199,255)" stroke-width="2" fill="none"></circle>
<circle cx="2451.32" cy="2086.7" r="4" stroke="rgb(255,0,101)" stroke-width="2" fill="none"></circle>
<circle cx="4790.77" cy="2369.16" r="4" stroke="rgb(255,0,101)" stroke-width="2" fill="none"></circle>
<circle cx="2622.19" cy="1173.07" r="4" stroke="rgb(0,225,255)" stroke-width="2" fill="none"></circle>
<circle cx="6619.84" cy="2227.86" r="4" stroke="rgb(0,225,255)" stroke-width="2" fill="none"></circle>
</svg>