<?xml version="1.0" standalone="yes"?>
<!-- SVG graphic -->
<svg xmlns='http://www.w3.org/2000/svg' xmlns:xlink='http://www.w3.org/1999/xlink'
width="8064px" height="3024px" preserveAspectRatio="xMinYMin meet" viewBox="0 0 8064 3024" version="1.1">
<image x="0" y="0" width="4032px" height="3024px" opacity="1" xlink:href="/home/jeong/Code/2D-to-3D-Modeling-using-AI/Make3D/Image/20200227_180706.jpg"/>
<image x="4032" y="0" width="4032px" height="3024px" opacity="1" xlink:href="/home/jeong/Code/2D-to-3D-Modeling-using-AI/Make3D/Image/20200227_180718.jpg"/>
<polyline points="1261.95,762.517,6204.28,759.485" stroke="rgb(255,17,0)" stroke-width="2" fill="none"></polyline>
<polyline points="725.168,2074.38,4630.94,1810.73" stroke="rgb(0,0,255)" stroke-width="2" fill="none"></polyline>
<polyline points="1405.56,880.852,5119.83,1819.81" stroke="rgb(0,255,84)" stroke-width="2" fill="none"></polyline>
<polyline points="1268.54,1620.4,5692.1,854.725" stroke="rgb(101,255,0)" stroke-width="2" fill="none"></polyline>
<polyline points="1555.29,1972.03,5547.29,857.353" stroke="rgb(238,0,255)" stroke-width="2" fill="none"></polyline>
<polyline points="1144.39,2013.08,5006.5,1879.3" stroke="rgb(0,242,255)" stroke-width="2" fill="none"></polyline>
<polyline points="1552.1,1978.47,5491.26,875.994" stroke="rgb(0,255,216)" stroke-width="2" fill="none"></polyline>
<polyline points="1552.1,1978.47,5491.26,875.994" stroke="rgb(0,199,255)" stroke-width="2" fill="none"></polyline>
<polyline points="1225.38,1425.59,5982.48,716.573" stroke="rgb(0,46,255)" stroke-width="2" fill="none"></polyline>
<polyline points="2194.42,778.616,6472.25,1361.79" stroke="rgb(0,255,38)" stroke-width="2" fill="none"></polyline>
<polyline points="1553.35,1906.35,5483.96,963.435" stroke="rgb(21,255,0)" stroke-width="2" fill="none"></polyline>
<polyline points="2562.37,1921.23,6067.42,1368.38" stroke="rgb(255,250,0)" stroke-width="2" fill="none"></polyline>
<polyline points="1557.08,1915.9,5377.55,973.094" stroke="rgb(67,0,255)" stroke-width="2" fill="none"></polyline>
<polyline points="2377.27,1241.88,4995.67,1374.99" stroke="rgb(255,4,0)" stroke-width="2" fill="none"></polyline>
<polyline points="2295.47,1830.45,6011.36,984.838" stroke="rgb(0,255,212)" stroke-width="2" fill="none"></polyline>
<polyline points="1527.41,925.507,5916.42,1404.85" stroke="rgb(93,255,0)" stroke-width="2" fill="none"></polyline>
<polyline points="1587.35,1922.15,5413.92,947.794" stroke="rgb(0,255,21)" stroke-width="2" fill="none"></polyline>
<polyline points="1587.35,1922.15,5413.92,947.794" stroke="rgb(170,0,255)" stroke-width="2" fill="none"></polyline>
<polyline points="2414.94,1428.93,5456.83,1053.29" stroke="rgb(255,221,0)" stroke-width="2" fill="none"></polyline>
<polyline points="1191.17,1791.87,5616.06,1061.35" stroke="rgb(0,255,203)" stroke-width="2" fill="none"></polyline>
<polyline points="1113.68,1615,5157.4,1421.85" stroke="rgb(0,135,255)" stroke-width="2" fill="none"></polyline>
<polyline points="1559.24,1839.13,5298.78,996.05" stroke="rgb(255,0,33)" stroke-width="2" fill="none"></polyline>
<polyline points="1886.69,1984.71,5810.2,1423.11" stroke="rgb(0,144,255)" stroke-width="2" fill="none"></polyline>
<polyline points="1086.83,1799.93,5134.03,1116.1" stroke="rgb(50,0,255)" stroke-width="2" fill="none"></polyline>
<polyline points="1647.93,1202.7,4883.14,1433.99" stroke="rgb(0,255,25)" stroke-width="2" fill="none"></polyline>
<polyline points="1536.12,978.557,5887.31,1434.54" stroke="rgb(0,135,255)" stroke-width="2" fill="none"></polyline>
<polyline points="1590.28,1880.29,5199.07,1128.06" stroke="rgb(255,0,110)" stroke-width="2" fill="none"></polyline>
<polyline points="1175.14,1916.92,5056.74,1133.74" stroke="rgb(0,255,63)" stroke-width="2" fill="none"></polyline>
<polyline points="2487.82,2049.15,6183.65,1151.08" stroke="rgb(255,0,119)" stroke-width="2" fill="none"></polyline>
<polyline points="1624.36,871.966,6019.37,1146.33" stroke="rgb(255,0,225)" stroke-width="2" fill="none"></polyline>
<polyline points="2545.19,861.702,6669.29,1220.15" stroke="rgb(114,255,0)" stroke-width="2" fill="none"></polyline>
<polyline points="1062.55,1645.96,5067.08,1448.72" stroke="rgb(0,135,255)" stroke-width="2" fill="none"></polyline>
<polyline points="1535.52,583.107,6183.4,1210.78" stroke="rgb(255,250,0)" stroke-width="2" fill="none"></polyline>
<polyline points="2394.48,1115.61,6396.94,1470.84" stroke="rgb(0,25,255)" stroke-width="2" fill="none"></polyline>
<polyline points="1477.59,756.481,6004.75,1277.65" stroke="rgb(0,255,237)" stroke-width="2" fill="none"></polyline>
<polyline points="1435.09,1341.37,6524.18,1485.89" stroke="rgb(255,0,21)" stroke-width="2" fill="none"></polyline>
<polyline points="1520.84,743.278,6046.24,1309.85" stroke="rgb(208,0,255)" stroke-width="2" fill="none"></polyline>
<polyline points="1540.02,955.577,5929.75,1236.73" stroke="rgb(255,0,51)" stroke-width="2" fill="none"></polyline>
<polyline points="1696.05,965.099,6008.86,1519.8" stroke="rgb(255,255,0)" stroke-width="2" fill="none"></polyline>
<polyline points="1593.44,1514.9,5147.19,1330.65" stroke="rgb(0,255,161)" stroke-width="2" fill="none"></polyline>
<polyline points="2226.15,1030.66,6324.18,1529.32" stroke="rgb(255,0,46)" stroke-width="2" fill="none"></polyline>
<polyline points="1526.39,808.425,6001.46,1349.46" stroke="rgb(255,204,0)" stroke-width="2" fill="none"></polyline>
<polyline points="1647.41,1032.28,5928.73,1535.23" stroke="rgb(131,255,0)" stroke-width="2" fill="none"></polyline>
<polyline points="1366.22,968.507,5173.44,1345.85" stroke="rgb(21,0,255)" stroke-width="2" fill="none"></polyline>
<polyline points="1531.84,663.323,6116.21,1268.29" stroke="rgb(255,208,0)" stroke-width="2" fill="none"></polyline>
<polyline points="1525.86,907.993,5928.23,1395.76" stroke="rgb(0,255,50)" stroke-width="2" fill="none"></polyline>
<polyline points="1524.08,686.679,6092.08,1279.87" stroke="rgb(255,0,72)" stroke-width="2" fill="none"></polyline>
<polyline points="1521.78,693.326,6086.64,1281.16" stroke="rgb(255,195,0)" stroke-width="2" fill="none"></polyline>
<polyline points="1509.99,972.875,5870.03,1407.05" stroke="rgb(186,0,255)" stroke-width="2" fill="none"></polyline>
<polyline points="1085.42,1716.85,5269.66,1568.27" stroke="rgb(114,0,255)" stroke-width="2" fill="none"></polyline>
<polyline points="1524.16,705.804,6078.11,1290.46" stroke="rgb(0,110,255)" stroke-width="2" fill="none"></polyline>
<polyline points="1127.02,1604.1,5142.45,1426.68" stroke="rgb(255,21,0)" stroke-width="2" fill="none"></polyline>
<polyline points="1515.93,902.476,5924.19,1384.43" stroke="rgb(85,0,255)" stroke-width="2" fill="none"></polyline>
<polyline points="2377.27,1241.88,4989.67,1387.07" stroke="rgb(250,255,0)" stroke-width="2" fill="none"></polyline>
<polyline points="1122.12,1610.15,5133.33,1430.09" stroke="rgb(72,0,255)" stroke-width="2" fill="none"></polyline>
<polyline points="1634.67,1098.85,5888.97,1306.75" stroke="rgb(76,0,255)" stroke-width="2" fill="none"></polyline>
<polyline points="1480.26,704.167,6037.6,1316.51" stroke="rgb(0,255,89)" stroke-width="2" fill="none"></polyline>
<polyline points="2207.05,1006.5,5856.01,1317.07" stroke="rgb(72,255,0)" stroke-width="2" fill="none"></polyline>
<polyline points="1541.09,983.465,5885.17,1441.32" stroke="rgb(110,0,255)" stroke-width="2" fill="none"></polyline>
<polyline points="1499.52,1107.28,5768.13,1445.48" stroke="rgb(255,0,63)" stroke-width="2" fill="none"></polyline>
<polyline points="1502.7,965.816,5869.37,1397.99" stroke="rgb(255,212,0)" stroke-width="2" fill="none"></polyline>
<polyline points="821.737,2012.95,5907.24,1599.52" stroke="rgb(255,0,4)" stroke-width="2" fill="none"></polyline>
<polyline points="1994.97,1092.49,6116.74,1603.06" stroke="rgb(0,195,255)" stroke-width="2" fill="none"></polyline>
<polyline points="1509.5,959.895,5877.53,1401.96" stroke="rgb(255,0,80)" stroke-width="2" fill="none"></polyline>
<polyline points="2224.65,808.43,6465.96,1405.68" stroke="rgb(0,29,255)" stroke-width="2" fill="none"></polyline>
<polyline points="1515.16,966.025,5878.6,1409.59" stroke="rgb(255,42,0)" stroke-width="2" fill="none"></polyline>
<polyline points="1612.17,934.059,5972.92,1467.15" stroke="rgb(0,131,255)" stroke-width="2" fill="none"></polyline>
<polyline points="1528.42,949.564,5900.14,1414.37" stroke="rgb(255,148,0)" stroke-width="2" fill="none"></polyline>
<polyline points="1656.54,1202.69,5821.83,1617.95" stroke="rgb(0,42,255)" stroke-width="2" fill="none"></polyline>
<polyline points="2259.66,992.124,5537.57,1621.39" stroke="rgb(123,0,255)" stroke-width="2" fill="none"></polyline>
<polyline points="1516.76,1007.86,5850.55,1426.92" stroke="rgb(233,255,0)" stroke-width="2" fill="none"></polyline>
<polyline points="1873.76,1988.35,6109.22,1629.59" stroke="rgb(0,89,255)" stroke-width="2" fill="none"></polyline>
<polyline points="1540.02,955.577,5903.96,1429.28" stroke="rgb(255,0,182)" stroke-width="2" fill="none"></polyline>
<polyline points="1653.91,961.053,5981.92,1502.95" stroke="rgb(0,255,148)" stroke-width="2" fill="none"></polyline>
<polyline points="1647.36,1741.59,5899.8,1650.95" stroke="rgb(255,0,97)" stroke-width="2" fill="none"></polyline>
<polyline points="1513.26,789.201,5420.59,1652.44" stroke="rgb(0,8,255)" stroke-width="2" fill="none"></polyline>
<polyline points="1094.52,1630.64,5100.97,1441.77" stroke="rgb(199,0,255)" stroke-width="2" fill="none"></polyline>
<polyline points="1524.16,705.804,5558.65,1677.08" stroke="rgb(0,203,255)" stroke-width="2" fill="none"></polyline>
<polyline points="821.737,2012.95,4986.83,1695.15" stroke="rgb(0,255,157)" stroke-width="2" fill="none"></polyline>
<polyline points="821.737,2012.95,4947.28,1711.22" stroke="rgb(157,255,0)" stroke-width="2" fill="none"></polyline>
<polyline points="1708.27,1000.18,5993.17,1544.68" stroke="rgb(84,255,0)" stroke-width="2" fill="none"></polyline>
<polyline points="1628.34,942.043,5977.46,1479.89" stroke="rgb(255,46,0)" stroke-width="2" fill="none"></polyline>
<polyline points="1006.48,1695.07,4997.18,1484.46" stroke="rgb(135,255,0)" stroke-width="2" fill="none"></polyline>
<polyline points="1638.77,945.592,5982.67,1487.33" stroke="rgb(0,33,255)" stroke-width="2" fill="none"></polyline>
<polyline points="1558,1375.36,5638.39,1606.59" stroke="rgb(255,0,237)" stroke-width="2" fill="none"></polyline>
<polyline points="938.51,1776.56,5302.95,1636.86" stroke="rgb(255,0,63)" stroke-width="2" fill="none"></polyline>
<polyline points="1672.01,1232.69,5813.87,1641.32" stroke="rgb(0,255,42)" stroke-width="2" fill="none"></polyline>
<polyline points="2041.99,989.786,6216.8,1539.18" stroke="rgb(255,0,182)" stroke-width="2" fill="none"></polyline>
<polyline points="1678.59,1224.54,5823.21,1641.2" stroke="rgb(131,255,0)" stroke-width="2" fill="none"></polyline>
<polyline points="1678.14,1241.54,5812.29,1649.49" stroke="rgb(255,153,0)" stroke-width="2" fill="none"></polyline>
<polyline points="1527.85,1346.78,5633.12,1552.11" stroke="rgb(255,0,242)" stroke-width="2" fill="none"></polyline>
<polyline points="1418.65,1227.73,4778.72,1553.97" stroke="rgb(255,46,0)" stroke-width="2" fill="none"></polyline>
<polyline points="1018.52,1779.01,4999.75,1680.82" stroke="rgb(118,0,255)" stroke-width="2" fill="none"></polyline>
<polyline points="1682.28,1372.73,5730.76,1685.42" stroke="rgb(255,38,0)" stroke-width="2" fill="none"></polyline>
<polyline points="851.701,1809.99,4816.48,1563.78" stroke="rgb(0,63,255)" stroke-width="2" fill="none"></polyline>
<polyline points="1674.24,1385.97,5718.25,1692.79" stroke="rgb(0,255,89)" stroke-width="2" fill="none"></polyline>
<polyline points="1682,1386.39,5724.16,1698.44" stroke="rgb(46,0,255)" stroke-width="2" fill="none"></polyline>
<polyline points="1748.67,1273.2,5839.44,1699.35" stroke="rgb(195,255,0)" stroke-width="2" fill="none"></polyline>
<polyline points="1462.7,1186.41,4805.44,1572.67" stroke="rgb(255,204,0)" stroke-width="2" fill="none"></polyline>
<polyline points="1301.51,1598.88,5028.69,1847.04" stroke="rgb(255,0,25)" stroke-width="2" fill="none"></polyline>
<polyline points="821.737,2012.95,5155.56,1622.99" stroke="rgb(0,106,255)" stroke-width="2" fill="none"></polyline>
<polyline points="1678.14,1241.54,5812.68,1648.99" stroke="rgb(25,255,0)" stroke-width="2" fill="none"></polyline>
<polyline points="1537.44,1372.57,5454.73,1654.13" stroke="rgb(0,114,255)" stroke-width="2" fill="none"></polyline>
<polyline points="1521,754.692,5453.96,1664.51" stroke="rgb(255,191,0)" stroke-width="2" fill="none"></polyline>
<polyline points="1784.72,1784.99,5847.91,1667.56" stroke="rgb(123,0,255)" stroke-width="2" fill="none"></polyline>
<polyline points="1784.72,1784.99,5847.91,1667.56" stroke="rgb(246,255,0)" stroke-width="2" fill="none"></polyline>
<polyline points="1674.88,1392.53,5716.43,1700.8" stroke="rgb(0,255,148)" stroke-width="2" fill="none"></polyline>
<polyline points="1713.54,1874.33,5881.48,1704.44" stroke="rgb(221,255,0)" stroke-width="2" fill="none"></polyline>
<polyline points="1735.47,1304.3,5811.51,1708.78" stroke="rgb(0,255,29)" stroke-width="2" fill="none"></polyline>
<polyline points="1721.63,1391.56,5748.9,1730.3" stroke="rgb(255,0,204)" stroke-width="2" fill="none"></polyline>
<polyline points="1721.63,1391.56,5748.9,1730.3" stroke="rgb(0,255,131)" stroke-width="2" fill="none"></polyline>
<polyline points="1647.36,1741.59,5717.12,1735.78" stroke="rgb(89,255,0)" stroke-width="2" fill="none"></polyline>
<polyline points="887.567,1938.54,4823.23,1761.78" stroke="rgb(255,0,153)" stroke-width="2" fill="none"></polyline>
<polyline points="1105.83,1794.7,5077.7,1776.81" stroke="rgb(0,0,255)" stroke-width="2" fill="none"></polyline>
<polyline points="821.737,2012.95,4726,1803.13" stroke="rgb(255,0,123)" stroke-width="2" fill="none"></polyline>
<polyline points="802.928,2032.69,4716.63,1807.04" stroke="rgb(0,255,84)" stroke-width="2" fill="none"></polyline>
<polyline points="1436.89,1204.72,6222.46,921.049" stroke="rgb(97,255,0)" stroke-width="2" fill="none"></polyline>
<polyline points="1514.33,669.519,6099.3,1263.02" stroke="rgb(255,0,114)" stroke-width="2" fill="none"></polyline>
<polyline points="1552.1,1978.47,5491.52,876.137" stroke="rgb(93,255,0)" stroke-width="2" fill="none"></polyline>
<polyline points="1552.1,1978.47,5491.52,876.137" stroke="rgb(255,246,0)" stroke-width="2" fill="none"></polyline>
<polyline points="1217.06,930.69,6066.66,932.767" stroke="rgb(8,0,255)" stroke-width="2" fill="none"></polyline>
<polyline points="1211.99,369.966,5907.84,1083.33" stroke="rgb(255,174,0)" stroke-width="2" fill="none"></polyline>
<polyline points="1211.99,369.966,5907.84,1083.33" stroke="rgb(255,0,246)" stroke-width="2" fill="none"></polyline>
<polyline points="1540.16,995.863,5880.12,1443.58" stroke="rgb(0,255,127)" stroke-width="2" fill="none"></polyline>
<polyline points="1653.58,936.366,5998.67,1488.53" stroke="rgb(178,0,255)" stroke-width="2" fill="none"></polyline>
<polyline points="1499.96,809.722,6417.02,1198.88" stroke="rgb(0,255,199)" stroke-width="2" fill="none"></polyline>
<polyline points="1651.69,986.271,5962.87,1514.37" stroke="rgb(0,255,182)" stroke-width="2" fill="none"></polyline>
<polyline points="1746.53,649.338,6470.3,1533.49" stroke="rgb(0,255,225)" stroke-width="2" fill="none"></polyline>
<polyline points="2001.18,1000.8,6183.78,1535.82" stroke="rgb(29,255,0)" stroke-width="2" fill="none"></polyline>
<polyline points="1499.96,809.722,5993.93,1262.42" stroke="rgb(0,119,255)" stroke-width="2" fill="none"></polyline>
<polyline points="1508.68,1010.46,5841.03,1421.09" stroke="rgb(0,255,199)" stroke-width="2" fill="none"></polyline>
<polyline points="1482.04,885.538,5917.09,1338.43" stroke="rgb(255,0,136)" stroke-width="2" fill="none"></polyline>
<polyline points="1734.7,1247.74,5846.43,1679.07" stroke="rgb(255,0,144)" stroke-width="2" fill="none"></polyline>
<polyline points="1730.11,1271.31,5830.12,1689.18" stroke="rgb(55,0,255)" stroke-width="2" fill="none"></polyline>
<polyline points="1669.32,1399.58,5706.77,1704.23" stroke="rgb(21,0,255)" stroke-width="2" fill="none"></polyline>
<polyline points="1733.63,1401.11,5750.07,1745.98" stroke="rgb(55,255,0)" stroke-width="2" fill="none"></polyline>
<polyline points="1395.29,757.849,5436.66,1749.64" stroke="rgb(255,0,191)" stroke-width="2" fill="none"></polyline>
<polyline points="1686.68,1500.63,5673.46,1767.02" stroke="rgb(255,174,0)" stroke-width="2" fill="none"></polyline>
<polyline points="1697.18,906.035,6050.17,1485.37" stroke="rgb(255,199,0)" stroke-width="2" fill="none"></polyline>
<polyline points="1705.5,1249.43,5827.14,1665.87" stroke="rgb(255,0,195)" stroke-width="2" fill="none"></polyline>
<polyline points="1704.08,1398.42,5731.12,1726.52" stroke="rgb(255,0,29)" stroke-width="2" fill="none"></polyline>
<polyline points="1520.09,763.86,6031.45,1319.96" stroke="rgb(212,255,0)" stroke-width="2" fill="none"></polyline>
<polyline points="1520.09,1299.43,5609.52,913.781" stroke="rgb(255,225,0)" stroke-width="2" fill="none"></polyline>
<polyline points="1500.97,794.414,5994.87,1318.58" stroke="rgb(0,216,255)" stroke-width="2" fill="none"></polyline>
<polyline points="1506.5,846.582,5957.05,1350.44" stroke="rgb(0,246,255)" stroke-width="2" fill="none"></polyline>
<polyline points="1497.77,894.157,5919.25,1363.8" stroke="rgb(67,0,255)" stroke-width="2" fill="none"></polyline>
<polyline points="1636.62,844.886,6046.6,1430.66" stroke="rgb(0,161,255)" stroke-width="2" fill="none"></polyline>
<polyline points="1421.2,1365.82,5534.15,1586.21" stroke="rgb(170,0,255)" stroke-width="2" fill="none"></polyline>
<polyline points="1637.27,1274.93,5760.62,1623.75" stroke="rgb(0,42,255)" stroke-width="2" fill="none"></polyline>
<polyline points="1686.41,1184.24,5852.65,1620.93" stroke="rgb(254,0,255)" stroke-width="2" fill="none"></polyline>
<polyline points="1521.69,698.134,6082.2,1284.19" stroke="rgb(0,127,255)" stroke-width="2" fill="none"></polyline>
<polyline points="1498.76,734.658,6037.82,1288.26" stroke="rgb(255,0,68)" stroke-width="2" fill="none"></polyline>
<polyline points="1719.17,1205.15,5864.22,1645.71" stroke="rgb(0,114,255)" stroke-width="2" fill="none"></polyline>
<polyline points="794.557,2019.09,4716.07,1788.59" stroke="rgb(0,255,135)" stroke-width="2" fill="none"></polyline>
<circle cx="1261.95" cy="762.517" r="4" stroke="rgb(255,17,0)" stroke-width="2" fill="none"></circle>
<circle cx="6204.28" cy="759.485" r="4" stroke="rgb(255,17,0)" stroke-width="2" fill="none"></circle>
<circle cx="725.168" cy="2074.38" r="4" stroke="rgb(0,0,255)" stroke-width="2" fill="none"></circle>
<circle cx="4630.94" cy="1810.73" r="4" stroke="rgb(0,0,255)" stroke-width="2" fill="none"></circle>
<circle cx="1405.56" cy="880.852" r="4" stroke="rgb(0,255,84)" stroke-width="2" fill="none"></circle>
<circle cx="5119.83" cy="1819.81" r="4" stroke="rgb(0,255,84)" stroke-width="2" fill="none"></circle>
<circle cx="1268.54" cy="1620.4" r="4" stroke="rgb(101,255,0)" stroke-width="2" fill="none"></circle>
<circle cx="5692.1" cy="854.725" r="4" stroke="rgb(101,255,0)" stroke-width="2" fill="none"></circle>
<circle cx="1555.29" cy="1972.03" r="4" stroke="rgb(238,0,255)" stroke-width="2" fill="none"></circle>
<circle cx="5547.29" cy="857.353" r="4" stroke="rgb(238,0,255)" stroke-width="2" fill="none"></circle>
<circle cx="1144.39" cy="2013.08" r="4" stroke="rgb(0,242,255)" stroke-width="2" fill="none"></circle>
<circle cx="5006.5" cy="1879.3" r="4" stroke="rgb(0,242,255)" stroke-width="2" fill="none"></circle>
<circle cx="1552.1" cy="1978.47" r="4" stroke="rgb(0,255,216)" stroke-width="2" fill="none"></circle>
<circle cx="5491.26" cy="875.994" r="4" stroke="rgb(0,255,216)" stroke-width="2" fill="none"></circle>
<circle cx="1552.1" cy="1978.47" r="4" stroke="rgb(0,199,255)" stroke-width="2" fill="none"></circle>
<circle cx="5491.26" cy="875.994" r="4" stroke="rgb(0,199,255)" stroke-width="2" fill="none"></circle>
<circle cx="1225.38" cy="1425.59" r="4" stroke="rgb(0,46,255)" stroke-width="2" fill="none"></circle>
<circle cx="5982.48" cy="716.573" r="4" stroke="rgb(0,46,255)" stroke-width="2" fill="none"></circle>
<circle cx="2194.42" cy="778.616" r="4" stroke="rgb(0,255,38)" stroke-width="2" fill="none"></circle>
<circle cx="6472.25" cy="1361.79" r="4" stroke="rgb(0,255,38)" stroke-width="2" fill="none"></circle>
<circle cx="1553.35" cy="1906.35" r="4" stroke="rgb(21,255,0)" stroke-width="2" fill="none"></circle>
<circle cx="5483.96" cy="963.435" r="4" stroke="rgb(21,255,0)" stroke-width="2" fill="none"></circle>
<circle cx="2562.37" cy="1921.23" r="4" stroke="rgb(255,250,0)" stroke-width="2" fill="none"></circle>
<circle cx="6067.42" cy="1368.38" r="4" stroke="rgb(255,250,0)" stroke-width="2" fill="none"></circle>
<circle cx="1557.08" cy="1915.9" r="4" stroke="rgb(67,0,255)" stroke-width="2" fill="none"></circle>
<circle cx="5377.55" cy="973.094" r="4" stroke="rgb(67,0,255)" stroke-width="2" fill="none"></circle>
<circle cx="2377.27" cy="1241.88" r="4" stroke="rgb(255,4,0)" stroke-width="2" fill="none"></circle>
<circle cx="4995.67" cy="1374.99" r="4" stroke="rgb(255,4,0)" stroke-width="2" fill="none"></circle>
<circle cx="2295.47" cy="1830.45" r="4" stroke="rgb(0,255,212)" stroke-width="2" fill="none"></circle>
<circle cx="6011.36" cy="984.838" r="4" stroke="rgb(0,255,212)" stroke-width="2" fill="none"></circle>
<circle cx="1527.41" cy="925.507" r="4" stroke="rgb(93,255,0)" stroke-width="2" fill="none"></circle>
<circle cx="5916.42" cy="1404.85" r="4" stroke="rgb(93,255,0)" stroke-width="2" fill="none"></circle>
<circle cx="1587.35" cy="1922.15" r="4" stroke="rgb(0,255,21)" stroke-width="2" fill="none"></circle>
<circle cx="5413.92" cy="947.794" r="4" stroke="rgb(0,255,21)" stroke-width="2" fill="none"></circle>
<circle cx="1587.35" cy="1922.15" r="4" stroke="rgb(170,0,255)" stroke-width="2" fill="none"></circle>
<circle cx="5413.92" cy="947.794" r="4" stroke="rgb(170,0,255)" stroke-width="2" fill="none"></circle>
<circle cx="2414.94" cy="1428.93" r="4" stroke="rgb(255,221,0)" stroke-width="2" fill="none"></circle>
<circle cx="5456.83" cy="1053.29" r="4" stroke="rgb(255,221,0)" stroke-width="2" fill="none"></circle>
<circle cx="1191.17" cy="1791.87" r="4" stroke="rgb(0,255,203)" stroke-width="2" fill="none"></circle>
<circle cx="5616.06" cy="1061.35" r="4" stroke="rgb(0,255,203)" stroke-width="2" fill="none"></circle>
<circle cx="1113.68" cy="1615" r="4" stroke="rgb(0,135,255)" stroke-width="2" fill="none"></circle>
<circle cx="5157.4" cy="1421.85" r="4" stroke="rgb(0,135,255)" stroke-width="2" fill="none"></circle>
<circle cx="1559.24" cy="1839.13" r="4" stroke="rgb(255,0,33)" stroke-width="2" fill="none"></circle>
<circle cx="5298.78" cy="996.05" r="4" stroke="rgb(255,0,33)" stroke-width="2" fill="none"></circle>
<circle cx="1886.69" cy="1984.71" r="4" stroke="rgb(0,144,255)" stroke-width="2" fill="none"></circle>
<circle cx="5810.2" cy="1423.11" r="4" stroke="rgb(0,144,255)" stroke-width="2" fill="none"></circle>
<circle cx="1086.83" cy="1799.93" r="4" stroke="rgb(50,0,255)" stroke-width="2" fill="none"></circle>
<circle cx="5134.03" cy="1116.1" r="4" stroke="rgb(50,0,255)" stroke-width="2" fill="none"></circle>
<circle cx="1647.93" cy="1202.7" r="4" stroke="rgb(0,255,25)" stroke-width="2" fill="none"></circle>
<circle cx="4883.14" cy="1433.99" r="4" stroke="rgb(0,255,25)" stroke-width="2" fill="none"></circle>
<circle cx="1536.12" cy="978.557" r="4" stroke="rgb(0,135,255)" stroke-width="2" fill="none"></circle>
<circle cx="5887.31" cy="1434.54" r="4" stroke="rgb(0,135,255)" stroke-width="2" fill="none"></circle>
<circle cx="1590.28" cy="1880.29" r="4" stroke="rgb(255,0,110)" stroke-width="2" fill="none"></circle>
<circle cx="5199.07" cy="1128.06" r="4" stroke="rgb(255,0,110)" stroke-width="2" fill="none"></circle>
<circle cx="1175.14" cy="1916.92" r="4" stroke="rgb(0,255,63)" stroke-width="2" fill="none"></circle>
<circle cx="5056.74" cy="1133.74" r="4" stroke="rgb(0,255,63)" stroke-width="2" fill="none"></circle>
<circle cx="2487.82" cy="2049.15" r="4" stroke="rgb(255,0,119)" stroke-width="2" fill="none"></circle>
<circle cx="6183.65" cy="1151.08" r="4" stroke="rgb(255,0,119)" stroke-width="2" fill="none"></circle>
<circle cx="1624.36" cy="871.966" r="4" stroke="rgb(255,0,225)" stroke-width="2" fill="none"></circle>
<circle cx="6019.37" cy="1146.33" r="4" stroke="rgb(255,0,225)" stroke-width="2" fill="none"></circle>
<circle cx="2545.19" cy="861.702" r="4" stroke="rgb(114,255,0)" stroke-width="2" fill="none"></circle>
<circle cx="6669.29" cy="1220.15" r="4" stroke="rgb(114,255,0)" stroke-width="2" fill="none"></circle>
<circle cx="1062.55" cy="1645.96" r="4" stroke="rgb(0,135,255)" stroke-width="2" fill="none"></circle>
<circle cx="5067.08" cy="1448.72" r="4" stroke="rgb(0,135,255)" stroke-width="2" fill="none"></circle>
<circle cx="1535.52" cy="583.107" r="4" stroke="rgb(255,250,0)" stroke-width="2" fill="none"></circle>
<circle cx="6183.4" cy="1210.78" r="4" stroke="rgb(255,250,0)" stroke-width="2" fill="none"></circle>
<circle cx="2394.48" cy="1115.61" r="4" stroke="rgb(0,25,255)" stroke-width="2" fill="none"></circle>
<circle cx="6396.94" cy="1470.84" r="4" stroke="rgb(0,25,255)" stroke-width="2" fill="none"></circle>
<circle cx="1477.59" cy="756.481" r="4" stroke="rgb(0,255,237)" stroke-width="2" fill="none"></circle>
<circle cx="6004.75" cy="1277.65" r="4" stroke="rgb(0,255,237)" stroke-width="2" fill="none"></circle>
<circle cx="1435.09" cy="1341.37" r="4" stroke="rgb(255,0,21)" stroke-width="2" fill="none"></circle>
<circle cx="6524.18" cy="1485.89" r="4" stroke="rgb(255,0,21)" stroke-width="2" fill="none"></circle>
<circle cx="1520.84" cy="743.278" r="4" stroke="rgb(208,0,255)" stroke-width="2" fill="none"></circle>
<circle cx="6046.24" cy="1309.85" r="4" stroke="rgb(208,0,255)" stroke-width="2" fill="none"></circle>
<circle cx="1540.02" cy="955.577" r="4" stroke="rgb(255,0,51)" stroke-width="2" fill="none"></circle>
<circle cx="5929.75" cy="1236.73" r="4" stroke="rgb(255,0,51)" stroke-width="2" fill="none"></circle>
<circle cx="1696.05" cy="965.099" r="4" stroke="rgb(255,255,0)" stroke-width="2" fill="none"></circle>
<circle cx="6008.86" cy="1519.8" r="4" stroke="rgb(255,255,0)" stroke-width="2" fill="none"></circle>
<circle cx="1593.44" cy="1514.9" r="4" stroke="rgb(0,255,161)" stroke-width="2" fill="none"></circle>
<circle cx="5147.19" cy="1330.65" r="4" stroke="rgb(0,255,161)" stroke-width="2" fill="none"></circle>
<circle cx="2226.15" cy="1030.66" r="4" stroke="rgb(255,0,46)" stroke-width="2" fill="none"></circle>
<circle cx="6324.18" cy="1529.32" r="4" stroke="rgb(255,0,46)" stroke-width="2" fill="none"></circle>
<circle cx="1526.39" cy="808.425" r="4" stroke="rgb(255,204,0)" stroke-width="2" fill="none"></circle>
<circle cx="6001.46" cy="1349.46" r="4" stroke="rgb(255,204,0)" stroke-width="2" fill="none"></circle>
<circle cx="1647.41" cy="1032.28" r="4" stroke="rgb(131,255,0)" stroke-width="2" fill="none"></circle>
<circle cx="5928.73" cy="1535.23" r="4" stroke="rgb(131,255,0)" stroke-width="2" fill="none"></circle>
<circle cx="1366.22" cy="968.507" r="4" stroke="rgb(21,0,255)" stroke-width="2" fill="none"></circle>
<circle cx="5173.44" cy="1345.85" r="4" stroke="rgb(21,0,255)" stroke-width="2" fill="none"></circle>
<circle cx="1531.84" cy="663.323" r="4" stroke="rgb(255,208,0)" stroke-width="2" fill="none"></circle>
<circle cx="6116.21" cy="1268.29" r="4" stroke="rgb(255,208,0)" stroke-width="2" fill="none"></circle>
<circle cx="1525.86" cy="907.993" r="4" stroke="rgb(0,255,50)" stroke-width="2" fill="none"></circle>
<circle cx="5928.23" cy="1395.76" r="4" stroke="rgb(0,255,50)" stroke-width="2" fill="none"></circle>
<circle cx="1524.08" cy="686.679" r="4" stroke="rgb(255,0,72)" stroke-width="2" fill="none"></circle>
<circle cx="6092.08" cy="1279.87" r="4" stroke="rgb(255,0,72)" stroke-width="2" fill="none"></circle>
<circle cx="1521.78" cy="693.326" r="4" stroke="rgb(255,195,0)" stroke-width="2" fill="none"></circle>
<circle cx="6086.64" cy="1281.16" r="4" stroke="rgb(255,195,0)" stroke-width="2" fill="none"></circle>
<circle cx="1509.99" cy="972.875" r="4" stroke="rgb(186,0,255)" stroke-width="2" fill="none"></circle>
<circle cx="5870.03" cy="1407.05" r="4" stroke="rgb(186,0,255)" stroke-width="2" fill="none"></circle>
<circle cx="1085.42" cy="1716.85" r="4" stroke="rgb(114,0,255)" stroke-width="2" fill="none"></circle>
<circle cx="5269.66" cy="1568.27" r="4" stroke="rgb(114,0,255)" stroke-width="2" fill="none"></circle>
<circle cx="1524.16" cy="705.804" r="4" stroke="rgb(0,110,255)" stroke-width="2" fill="none"></circle>
<circle cx="6078.11" cy="1290.46" r="4" stroke="rgb(0,110,255)" stroke-width="2" fill="none"></circle>
<circle cx="1127.02" cy="1604.1" r="4" stroke="rgb(255,21,0)" stroke-width="2" fill="none"></circle>
<circle cx="5142.45" cy="1426.68" r="4" stroke="rgb(255,21,0)" stroke-width="2" fill="none"></circle>
<circle cx="1515.93" cy="902.476" r="4" stroke="rgb(85,0,255)" stroke-width="2" fill="none"></circle>
<circle cx="5924.19" cy="1384.43" r="4" stroke="rgb(85,0,255)" stroke-width="2" fill="none"></circle>
<circle cx="2377.27" cy="1241.88" r="4" stroke="rgb(250,255,0)" stroke-width="2" fill="none"></circle>
<circle cx="4989.67" cy="1387.07" r="4" stroke="rgb(250,255,0)" stroke-width="2" fill="none"></circle>
<circle cx="1122.12" cy="1610.15" r="4" stroke="rgb(72,0,255)" stroke-width="2" fill="none"></circle>
<circle cx="5133.33" cy="1430.09" r="4" stroke="rgb(72,0,255)" stroke-width="2" fill="none"></circle>
<circle cx="1634.67" cy="1098.85" r="4" stroke="rgb(76,0,255)" stroke-width="2" fill="none"></circle>
<circle cx="5888.97" cy="1306.75" r="4" stroke="rgb(76,0,255)" stroke-width="2" fill="none"></circle>
<circle cx="1480.26" cy="704.167" r="4" stroke="rgb(0,255,89)" stroke-width="2" fill="none"></circle>
<circle cx="6037.6" cy="1316.51" r="4" stroke="rgb(0,255,89)" stroke-width="2" fill="none"></circle>
<circle cx="2207.05" cy="1006.5" r="4" stroke="rgb(72,255,0)" stroke-width="2" fill="none"></circle>
<circle cx="5856.01" cy="1317.07" r="4" stroke="rgb(72,255,0)" stroke-width="2" fill="none"></circle>
<circle cx="1541.09" cy="983.465" r="4" stroke="rgb(110,0,255)" stroke-width="2" fill="none"></circle>
<circle cx="5885.17" cy="1441.32" r="4" stroke="rgb(110,0,255)" stroke-width="2" fill="none"></circle>
<circle cx="1499.52" cy="1107.28" r="4" stroke="rgb(255,0,63)" stroke-width="2" fill="none"></circle>
<circle cx="5768.13" cy="1445.48" r="4" stroke="rgb(255,0,63)" stroke-width="2" fill="none"></circle>
<circle cx="1502.7" cy="965.816" r="4" stroke="rgb(255,212,0)" stroke-width="2" fill="none"></circle>
<circle cx="5869.37" cy="1397.99" r="4" stroke="rgb(255,212,0)" stroke-width="2" fill="none"></circle>
<circle cx="821.737" cy="2012.95" r="4" stroke="rgb(255,0,4)" stroke-width="2" fill="none"></circle>
<circle cx="5907.24" cy="1599.52" r="4" stroke="rgb(255,0,4)" stroke-width="2" fill="none"></circle>
<circle cx="1994.97" cy="1092.49" r="4" stroke="rgb(0,195,255)" stroke-width="2" fill="none"></circle>
<circle cx="6116.74" cy="1603.06" r="4" stroke="rgb(0,195,255)" stroke-width="2" fill="none"></circle>
<circle cx="1509.5" cy="959.895" r="4" stroke="rgb(255,0,80)" stroke-width="2" fill="none"></circle>
<circle cx="5877.53" cy="1401.96" r="4" stroke="rgb(255,0,80)" stroke-width="2" fill="none"></circle>
<circle cx="2224.65" cy="808.43" r="4" stroke="rgb(0,29,255)" stroke-width="2" fill="none"></circle>
<circle cx="6465.96" cy="1405.68" r="4" stroke="rgb(0,29,255)" stroke-width="2" fill="none"></circle>
<circle cx="1515.16" cy="966.025" r="4" stroke="rgb(255,42,0)" stroke-width="2" fill="none"></circle>
<circle cx="5878.6" cy="1409.59" r="4" stroke="rgb(255,42,0)" stroke-width="2" fill="none"></circle>
<circle cx="1612.17" cy="934.059" r="4" stroke="rgb(0,131,255)" stroke-width="2" fill="none"></circle>
<circle cx="5972.92" cy="1467.15" r="4" stroke="rgb(0,131,255)" stroke-width="2" fill="none"></circle>
<circle cx="1528.42" cy="949.564" r="4" stroke="rgb(255,148,0)" stroke-width="2" fill="none"></circle>
<circle cx="5900.14" cy="1414.37" r="4" stroke="rgb(255,148,0)" stroke-width="2" fill="none"></circle>
<circle cx="1656.54" cy="1202.69" r="4" stroke="rgb(0,42,255)" stroke-width="2" fill="none"></circle>
<circle cx="5821.83" cy="1617.95" r="4" stroke="rgb(0,42,255)" stroke-width="2" fill="none"></circle>
<circle cx="2259.66" cy="992.124" r="4" stroke="rgb(123,0,255)" stroke-width="2" fill="none"></circle>
<circle cx="5537.57" cy="1621.39" r="4" stroke="rgb(123,0,255)" stroke-width="2" fill="none"></circle>
<circle cx="1516.76" cy="1007.86" r="4" stroke="rgb(233,255,0)" stroke-width="2" fill="none"></circle>
<circle cx="5850.55" cy="1426.92" r="4" stroke="rgb(233,255,0)" stroke-width="2" fill="none"></circle>
<circle cx="1873.76" cy="1988.35" r="4" stroke="rgb(0,89,255)" stroke-width="2" fill="none"></circle>
<circle cx="6109.22" cy="1629.59" r="4" stroke="rgb(0,89,255)" stroke-width="2" fill="none"></circle>
<circle cx="1540.02" cy="955.577" r="4" stroke="rgb(255,0,182)" stroke-width="2" fill="none"></circle>
<circle cx="5903.96" cy="1429.28" r="4" stroke="rgb(255,0,182)" stroke-width="2" fill="none"></circle>
<circle cx="1653.91" cy="961.053" r="4" stroke="rgb(0,255,148)" stroke-width="2" fill="none"></circle>
<circle cx="5981.92" cy="1502.95" r="4" stroke="rgb(0,255,148)" stroke-width="2" fill="none"></circle>
<circle cx="1647.36" cy="1741.59" r="4" stroke="rgb(255,0,97)" stroke-width="2" fill="none"></circle>
<circle cx="5899.8" cy="1650.95" r="4" stroke="rgb(255,0,97)" stroke-width="2" fill="none"></circle>
<circle cx="1513.26" cy="789.201" r="4" stroke="rgb(0,8,255)" stroke-width="2" fill="none"></circle>
<circle cx="5420.59" cy="1652.44" r="4" stroke="rgb(0,8,255)" stroke-width="2" fill="none"></circle>
<circle cx="1094.52" cy="1630.64" r="4" stroke="rgb(199,0,255)" stroke-width="2" fill="none"></circle>
<circle cx="5100.97" cy="1441.77" r="4" stroke="rgb(199,0,255)" stroke-width="2" fill="none"></circle>
<circle cx="1524.16" cy="705.804" r="4" stroke="rgb(0,203,255)" stroke-width="2" fill="none"></circle>
<circle cx="5558.65" cy="1677.08" r="4" stroke="rgb(0,203,255)" stroke-width="2" fill="none"></circle>
<circle cx="821.737" cy="2012.95" r="4" stroke="rgb(0,255,157)" stroke-width="2" fill="none"></circle>
<circle cx="4986.83" cy="1695.15" r="4" stroke="rgb(0,255,157)" stroke-width="2" fill="none"></circle>
<circle cx="821.737" cy="2012.95" r="4" stroke="rgb(157,255,0)" stroke-width="2" fill="none"></circle>
<circle cx="4947.28" cy="1711.22" r="4" stroke="rgb(157,255,0)" stroke-width="2" fill="none"></circle>
<circle cx="1708.27" cy="1000.18" r="4" stroke="rgb(84,255,0)" stroke-width="2" fill="none"></circle>
<circle cx="5993.17" cy="1544.68" r="4" stroke="rgb(84,255,0)" stroke-width="2" fill="none"></circle>
<circle cx="1628.34" cy="942.043" r="4" stroke="rgb(255,46,0)" stroke-width="2" fill="none"></circle>
<circle cx="5977.46" cy="1479.89" r="4" stroke="rgb(255,46,0)" stroke-width="2" fill="none"></circle>
<circle cx="1006.48" cy="1695.07" r="4" stroke="rgb(135,255,0)" stroke-width="2" fill="none"></circle>
<circle cx="4997.18" cy="1484.46" r="4" stroke="rgb(135,255,0)" stroke-width="2" fill="none"></circle>
<circle cx="1638.77" cy="945.592" r="4" stroke="rgb(0,33,255)" stroke-width="2" fill="none"></circle>
<circle cx="5982.67" cy="1487.33" r="4" stroke="rgb(0,33,255)" stroke-width="2" fill="none"></circle>
<circle cx="1558" cy="1375.36" r="4" stroke="rgb(255,0,237)" stroke-width="2" fill="none"></circle>
<circle cx="5638.39" cy="1606.59" r="4" stroke="rgb(255,0,237)" stroke-width="2" fill="none"></circle>
<circle cx="938.51" cy="1776.56" r="4" stroke="rgb(255,0,63)" stroke-width="2" fill="none"></circle>
<circle cx="5302.95" cy="1636.86" r="4" stroke="rgb(255,0,63)" stroke-width="2" fill="none"></circle>
<circle cx="1672.01" cy="1232.69" r="4" stroke="rgb(0,255,42)" stroke-width="2" fill="none"></circle>
<circle cx="5813.87" cy="1641.32" r="4" stroke="rgb(0,255,42)" stroke-width="2" fill="none"></circle>
<circle cx="2041.99" cy="989.786" r="4" stroke="rgb(255,0,182)" stroke-width="2" fill="none"></circle>
<circle cx="6216.8" cy="1539.18" r="4" stroke="rgb(255,0,182)" stroke-width="2" fill="none"></circle>
<circle cx="1678.59" cy="1224.54" r="4" stroke="rgb(131,255,0)" stroke-width="2" fill="none"></circle>
<circle cx="5823.21" cy="1641.2" r="4" stroke="rgb(131,255,0)" stroke-width="2" fill="none"></circle>
<circle cx="1678.14" cy="1241.54" r="4" stroke="rgb(255,153,0)" stroke-width="2" fill="none"></circle>
<circle cx="5812.29" cy="1649.49" r="4" stroke="rgb(255,153,0)" stroke-width="2" fill="none"></circle>
<circle cx="1527.85" cy="1346.78" r="4" stroke="rgb(255,0,242)" stroke-width="2" fill="none"></circle>
<circle cx="5633.12" cy="1552.11" r="4" stroke="rgb(255,0,242)" stroke-width="2" fill="none"></circle>
<circle cx="1418.65" cy="1227.73" r="4" stroke="rgb(255,46,0)" stroke-width="2" fill="none"></circle>
<circle cx="4778.72" cy="1553.97" r="4" stroke="rgb(255,46,0)" stroke-width="2" fill="none"></circle>
<circle cx="1018.52" cy="1779.01" r="4" stroke="rgb(118,0,255)" stroke-width="2" fill="none"></circle>
<circle cx="4999.75" cy="1680.82" r="4" stroke="rgb(118,0,255)" stroke-width="2" fill="none"></circle>
<circle cx="1682.28" cy="1372.73" r="4" stroke="rgb(255,38,0)" stroke-width="2" fill="none"></circle>
<circle cx="5730.76" cy="1685.42" r="4" stroke="rgb(255,38,0)" stroke-width="2" fill="none"></circle>
<circle cx="851.701" cy="1809.99" r="4" stroke="rgb(0,63,255)" stroke-width="2" fill="none"></circle>
<circle cx="4816.48" cy="1563.78" r="4" stroke="rgb(0,63,255)" stroke-width="2" fill="none"></circle>
<circle cx="1674.24" cy="1385.97" r="4" stroke="rgb(0,255,89)" stroke-width="2" fill="none"></circle>
<circle cx="5718.25" cy="1692.79" r="4" stroke="rgb(0,255,89)" stroke-width="2" fill="none"></circle>
<circle cx="1682" cy="1386.39" r="4" stroke="rgb(46,0,255)" stroke-width="2" fill="none"></circle>
<circle cx="5724.16" cy="1698.44" r="4" stroke="rgb(46,0,255)" stroke-width="2" fill="none"></circle>
<circle cx="1748.67" cy="1273.2" r="4" stroke="rgb(195,255,0)" stroke-width="2" fill="none"></circle>
<circle cx="5839.44" cy="1699.35" r="4" stroke="rgb(195,255,0)" stroke-width="2" fill="none"></circle>
<circle cx="1462.7" cy="1186.41" r="4" stroke="rgb(255,204,0)" stroke-width="2" fill="none"></circle>
<circle cx="4805.44" cy="1572.67" r="4" stroke="rgb(255,204,0)" stroke-width="2" fill="none"></circle>
<circle cx="1301.51" cy="1598.88" r="4" stroke="rgb(255,0,25)" stroke-width="2" fill="none"></circle>
<circle cx="5028.69" cy="1847.04" r="4" stroke="rgb(255,0,25)" stroke-width="2" fill="none"></circle>
<circle cx="821.737" cy="2012.95" r="4" stroke="rgb(0,106,255)" stroke-width="2" fill="none"></circle>
<circle cx="5155.56" cy="1622.99" r="4" stroke="rgb(0,106,255)" stroke-width="2" fill="none"></circle>
<circle cx="1678.14" cy="1241.54" r="4" stroke="rgb(25,255,0)" stroke-width="2" fill="none"></circle>
<circle cx="5812.68" cy="1648.99" r="4" stroke="rgb(25,255,0)" stroke-width="2" fill="none"></circle>
<circle cx="1537.44" cy="1372.57" r="4" stroke="rgb(0,114,255)" stroke-width="2" fill="none"></circle>
<circle cx="5454.73" cy="1654.13" r="4" stroke="rgb(0,114,255)" stroke-width="2" fill="none"></circle>
<circle cx="1521" cy="754.692" r="4" stroke="rgb(255,191,0)" stroke-width="2" fill="none"></circle>
<circle cx="5453.96" cy="1664.51" r="4" stroke="rgb(255,191,0)" stroke-width="2" fill="none"></circle>
<circle cx="1784.72" cy="1784.99" r="4" stroke="rgb(123,0,255)" stroke-width="2" fill="none"></circle>
<circle cx="5847.91" cy="1667.56" r="4" stroke="rgb(123,0,255)" stroke-width="2" fill="none"></circle>
<circle cx="1784.72" cy="1784.99" r="4" stroke="rgb(246,255,0)" stroke-width="2" fill="none"></circle>
<circle cx="5847.91" cy="1667.56" r="4" stroke="rgb(246,255,0)" stroke-width="2" fill="none"></circle>
<circle cx="1674.88" cy="1392.53" r="4" stroke="rgb(0,255,148)" stroke-width="2" fill="none"></circle>
<circle cx="5716.43" cy="1700.8" r="4" stroke="rgb(0,255,148)" stroke-width="2" fill="none"></circle>
<circle cx="1713.54" cy="1874.33" r="4" stroke="rgb(221,255,0)" stroke-width="2" fill="none"></circle>
<circle cx="5881.48" cy="1704.44" r="4" stroke="rgb(221,255,0)" stroke-width="2" fill="none"></circle>
<circle cx="1735.47" cy="1304.3" r="4" stroke="rgb(0,255,29)" stroke-width="2" fill="none"></circle>
<circle cx="5811.51" cy="1708.78" r="4" stroke="rgb(0,255,29)" stroke-width="2" fill="none"></circle>
<circle cx="1721.63" cy="1391.56" r="4" stroke="rgb(255,0,204)" stroke-width="2" fill="none"></circle>
<circle cx="5748.9" cy="1730.3" r="4" stroke="rgb(255,0,204)" stroke-width="2" fill="none"></circle>
<circle cx="1721.63" cy="1391.56" r="4" stroke="rgb(0,255,131)" stroke-width="2" fill="none"></circle>
<circle cx="5748.9" cy="1730.3" r="4" stroke="rgb(0,255,131)" stroke-width="2" fill="none"></circle>
<circle cx="1647.36" cy="1741.59" r="4" stroke="rgb(89,255,0)" stroke-width="2" fill="none"></circle>
<circle cx="5717.12" cy="1735.78" r="4" stroke="rgb(89,255,0)" stroke-width="2" fill="none"></circle>
<circle cx="887.567" cy="1938.54" r="4" stroke="rgb(255,0,153)" stroke-width="2" fill="none"></circle>
<circle cx="4823.23" cy="1761.78" r="4" stroke="rgb(255,0,153)" stroke-width="2" fill="none"></circle>
<circle cx="1105.83" cy="1794.7" r="4" stroke="rgb(0,0,255)" stroke-width="2" fill="none"></circle>
<circle cx="5077.7" cy="1776.81" r="4" stroke="rgb(0,0,255)" stroke-width="2" fill="none"></circle>
<circle cx="821.737" cy="2012.95" r="4" stroke="rgb(255,0,123)" stroke-width="2" fill="none"></circle>
<circle cx="4726" cy="1803.13" r="4" stroke="rgb(255,0,123)" stroke-width="2" fill="none"></circle>
<circle cx="802.928" cy="2032.69" r="4" stroke="rgb(0,255,84)" stroke-width="2" fill="none"></circle>
<circle cx="4716.63" cy="1807.04" r="4" stroke="rgb(0,255,84)" stroke-width="2" fill="none"></circle>
<circle cx="1436.89" cy="1204.72" r="4" stroke="rgb(97,255,0)" stroke-width="2" fill="none"></circle>
<circle cx="6222.46" cy="921.049" r="4" stroke="rgb(97,255,0)" stroke-width="2" fill="none"></circle>
<circle cx="1514.33" cy="669.519" r="4" stroke="rgb(255,0,114)" stroke-width="2" fill="none"></circle>
<circle cx="6099.3" cy="1263.02" r="4" stroke="rgb(255,0,114)" stroke-width="2" fill="none"></circle>
<circle cx="1552.1" cy="1978.47" r="4" stroke="rgb(93,255,0)" stroke-width="2" fill="none"></circle>
<circle cx="5491.52" cy="876.137" r="4" stroke="rgb(93,255,0)" stroke-width="2" fill="none"></circle>
<circle cx="1552.1" cy="1978.47" r="4" stroke="rgb(255,246,0)" stroke-width="2" fill="none"></circle>
<circle cx="5491.52" cy="876.137" r="4" stroke="rgb(255,246,0)" stroke-width="2" fill="none"></circle>
<circle cx="1217.06" cy="930.69" r="4" stroke="rgb(8,0,255)" stroke-width="2" fill="none"></circle>
<circle cx="6066.66" cy="932.767" r="4" stroke="rgb(8,0,255)" stroke-width="2" fill="none"></circle>
<circle cx="1211.99" cy="369.966" r="4" stroke="rgb(255,174,0)" stroke-width="2" fill="none"></circle>
<circle cx="5907.84" cy="1083.33" r="4" stroke="rgb(255,174,0)" stroke-width="2" fill="none"></circle>
<circle cx="1211.99" cy="369.966" r="4" stroke="rgb(255,0,246)" stroke-width="2" fill="none"></circle>
<circle cx="5907.84" cy="1083.33" r="4" stroke="rgb(255,0,246)" stroke-width="2" fill="none"></circle>
<circle cx="1540.16" cy="995.863" r="4" stroke="rgb(0,255,127)" stroke-width="2" fill="none"></circle>
<circle cx="5880.12" cy="1443.58" r="4" stroke="rgb(0,255,127)" stroke-width="2" fill="none"></circle>
<circle cx="1653.58" cy="936.366" r="4" stroke="rgb(178,0,255)" stroke-width="2" fill="none"></circle>
<circle cx="5998.67" cy="1488.53" r="4" stroke="rgb(178,0,255)" stroke-width="2" fill="none"></circle>
<circle cx="1499.96" cy="809.722" r="4" stroke="rgb(0,255,199)" stroke-width="2" fill="none"></circle>
<circle cx="6417.02" cy="1198.88" r="4" stroke="rgb(0,255,199)" stroke-width="2" fill="none"></circle>
<circle cx="1651.69" cy="986.271" r="4" stroke="rgb(0,255,182)" stroke-width="2" fill="none"></circle>
<circle cx="5962.87" cy="1514.37" r="4" stroke="rgb(0,255,182)" stroke-width="2" fill="none"></circle>
<circle cx="1746.53" cy="649.338" r="4" stroke="rgb(0,255,225)" stroke-width="2" fill="none"></circle>
<circle cx="6470.3" cy="1533.49" r="4" stroke="rgb(0,255,225)" stroke-width="2" fill="none"></circle>
<circle cx="2001.18" cy="1000.8" r="4" stroke="rgb(29,255,0)" stroke-width="2" fill="none"></circle>
<circle cx="6183.78" cy="1535.82" r="4" stroke="rgb(29,255,0)" stroke-width="2" fill="none"></circle>
<circle cx="1499.96" cy="809.722" r="4" stroke="rgb(0,119,255)" stroke-width="2" fill="none"></circle>
<circle cx="5993.93" cy="1262.42" r="4" stroke="rgb(0,119,255)" stroke-width="2" fill="none"></circle>
<circle cx="1508.68" cy="1010.46" r="4" stroke="rgb(0,255,199)" stroke-width="2" fill="none"></circle>
<circle cx="5841.03" cy="1421.09" r="4" stroke="rgb(0,255,199)" stroke-width="2" fill="none"></circle>
<circle cx="1482.04" cy="885.538" r="4" stroke="rgb(255,0,136)" stroke-width="2" fill="none"></circle>
<circle cx="5917.09" cy="1338.43" r="4" stroke="rgb(255,0,136)" stroke-width="2" fill="none"></circle>
<circle cx="1734.7" cy="1247.74" r="4" stroke="rgb(255,0,144)" stroke-width="2" fill="none"></circle>
<circle cx="5846.43" cy="1679.07" r="4" stroke="rgb(255,0,144)" stroke-width="2" fill="none"></circle>
<circle cx="1730.11" cy="1271.31" r="4" stroke="rgb(55,0,255)" stroke-width="2" fill="none"></circle>
<circle cx="5830.12" cy="1689.18" r="4" stroke="rgb(55,0,255)" stroke-width="2" fill="none"></circle>
<circle cx="1669.32" cy="1399.58" r="4" stroke="rgb(21,0,255)" stroke-width="2" fill="none"></circle>
<circle cx="5706.77" cy="1704.23" r="4" stroke="rgb(21,0,255)" stroke-width="2" fill="none"></circle>
<circle cx="1733.63" cy="1401.11" r="4" stroke="rgb(55,255,0)" stroke-width="2" fill="none"></circle>
<circle cx="5750.07" cy="1745.98" r="4" stroke="rgb(55,255,0)" stroke-width="2" fill="none"></circle>
<circle cx="1395.29" cy="757.849" r="4" stroke="rgb(255,0,191)" stroke-width="2" fill="none"></circle>
<circle cx="5436.66" cy="1749.64" r="4" stroke="rgb(255,0,191)" stroke-width="2" fill="none"></circle>
<circle cx="1686.68" cy="1500.63" r="4" stroke="rgb(255,174,0)" stroke-width="2" fill="none"></circle>
<circle cx="5673.46" cy="1767.02" r="4" stroke="rgb(255,174,0)" stroke-width="2" fill="none"></circle>
<circle cx="1697.18" cy="906.035" r="4" stroke="rgb(255,199,0)" stroke-width="2" fill="none"></circle>
<circle cx="6050.17" cy="1485.37" r="4" stroke="rgb(255,199,0)" stroke-width="2" fill="none"></circle>
<circle cx="1705.5" cy="1249.43" r="4" stroke="rgb(255,0,195)" stroke-width="2" fill="none"></circle>
<circle cx="5827.14" cy="1665.87" r="4" stroke="rgb(255,0,195)" stroke-width="2" fill="none"></circle>
<circle cx="1704.08" cy="1398.42" r="4" stroke="rgb(255,0,29)" stroke-width="2" fill="none"></circle>
<circle cx="5731.12" cy="1726.52" r="4" stroke="rgb(255,0,29)" stroke-width="2" fill="none"></circle>
<circle cx="1520.09" cy="763.86" r="4" stroke="rgb(212,255,0)" stroke-width="2" fill="none"></circle>
<circle cx="6031.45" cy="1319.96" r="4" stroke="rgb(212,255,0)" stroke-width="2" fill="none"></circle>
<circle cx="1520.09" cy="1299.43" r="4" stroke="rgb(255,225,0)" stroke-width="2" fill="none"></circle>
<circle cx="5609.52" cy="913.781" r="4" stroke="rgb(255,225,0)" stroke-width="2" fill="none"></circle>
<circle cx="1500.97" cy="794.414" r="4" stroke="rgb(0,216,255)" stroke-width="2" fill="none"></circle>
<circle cx="5994.87" cy="1318.58" r="4" stroke="rgb(0,216,255)" stroke-width="2" fill="none"></circle>
<circle cx="1506.5" cy="846.582" r="4" stroke="rgb(0,246,255)" stroke-width="2" fill="none"></circle>
<circle cx="5957.05" cy="1350.44" r="4" stroke="rgb(0,246,255)" stroke-width="2" fill="none"></circle>
<circle cx="1497.77" cy="894.157" r="4" stroke="rgb(67,0,255)" stroke-width="2" fill="none"></circle>
<circle cx="5919.25" cy="1363.8" r="4" stroke="rgb(67,0,255)" stroke-width="2" fill="none"></circle>
<circle cx="1636.62" cy="844.886" r="4" stroke="rgb(0,161,255)" stroke-width="2" fill="none"></circle>
<circle cx="6046.6" cy="1430.66" r="4" stroke="rgb(0,161,255)" stroke-width="2" fill="none"></circle>
<circle cx="1421.2" cy="1365.82" r="4" stroke="rgb(170,0,255)" stroke-width="2" fill="none"></circle>
<circle cx="5534.15" cy="1586.21" r="4" stroke="rgb(170,0,255)" stroke-width="2" fill="none"></circle>
<circle cx="1637.27" cy="1274.93" r="4" stroke="rgb(0,42,255)" stroke-width="2" fill="none"></circle>
<circle cx="5760.62" cy="1623.75" r="4" stroke="rgb(0,42,255)" stroke-width="2" fill="none"></circle>
<circle cx="1686.41" cy="1184.24" r="4" stroke="rgb(254,0,255)" stroke-width="2" fill="none"></circle>
<circle cx="5852.65" cy="1620.93" r="4" stroke="rgb(254,0,255)" stroke-width="2" fill="none"></circle>
<circle cx="1521.69" cy="698.134" r="4" stroke="rgb(0,127,255)" stroke-width="2" fill="none"></circle>
<circle cx="6082.2" cy="1284.19" r="4" stroke="rgb(0,127,255)" stroke-width="2" fill="none"></circle>
<circle cx="1498.76" cy="734.658" r="4" stroke="rgb(255,0,68)" stroke-width="2" fill="none"></circle>
<circle cx="6037.82" cy="1288.26" r="4" stroke="rgb(255,0,68)" stroke-width="2" fill="none"></circle>
<circle cx="1719.17" cy="1205.15" r="4" stroke="rgb(0,114,255)" stroke-width="2" fill="none"></circle>
<circle cx="5864.22" cy="1645.71" r="4" stroke="rgb(0,114,255)" stroke-width="2" fill="none"></circle>
<circle cx="794.557" cy="2019.09" r="4" stroke="rgb(0,255,135)" stroke-width="2" fill="none"></circle>
<circle cx="4716.07" cy="1788.59" r="4" stroke="rgb(0,255,135)" stroke-width="2" fill="none"></circle>
</svg>