<?xml version="1.0" standalone="yes"?>
<!-- SVG graphic -->
<svg xmlns='http://www.w3.org/2000/svg' xmlns:xlink='http://www.w3.org/1999/xlink'
width="8064px" height="3024px" preserveAspectRatio="xMinYMin meet" viewBox="0 0 8064 3024" version="1.1">
<image x="0" y="0" width="4032px" height="3024px" opacity="1" xlink:href="/home/jeong/Code/2D-to-3D-Modeling-using-AI/Make3D/Image/20200227_180706.jpg"/>
<image x="4032" y="0" width="4032px" height="3024px" opacity="1" xlink:href="/home/jeong/Code/2D-to-3D-Modeling-using-AI/Make3D/Image/20200227_180732.jpg"/>
<polyline points="2308.22,2037.08,6896.83,1502.21" stroke="rgb(255,0,136)" stroke-width="2" fill="none"></polyline>
<polyline points="1490.06,546.717,5977.5,1015.72" stroke="rgb(0,255,97)" stroke-width="2" fill="none"></polyline>
<polyline points="2562.37,1921.23,6068.98,2116.53" stroke="rgb(0,255,131)" stroke-width="2" fill="none"></polyline>
<polyline points="2404.14,1384.38,6471.72,1156.07" stroke="rgb(255,0,127)" stroke-width="2" fill="none"></polyline>
<polyline points="1261.95,762.517,6506.67,1294.52" stroke="rgb(63,0,255)" stroke-width="2" fill="none"></polyline>
<polyline points="2396.01,1395.67,6567.04,2752.76" stroke="rgb(140,0,255)" stroke-width="2" fill="none"></polyline>
<polyline points="2377.27,1241.88,6010.21,1298.75" stroke="rgb(0,55,255)" stroke-width="2" fill="none"></polyline>
<polyline points="1270.4,1814.52,5821,1707.23" stroke="rgb(246,255,0)" stroke-width="2" fill="none"></polyline>
<polyline points="1283.96,1602,6636.15,1312.51" stroke="rgb(0,17,255)" stroke-width="2" fill="none"></polyline>
<polyline points="2135.32,600.275,6882.57,1314.71" stroke="rgb(255,242,0)" stroke-width="2" fill="none"></polyline>
<polyline points="1086.83,1799.93,6558.29,1350.89" stroke="rgb(0,255,89)" stroke-width="2" fill="none"></polyline>
<polyline points="1487.13,628.525,6448.97,1388.51" stroke="rgb(255,0,101)" stroke-width="2" fill="none"></polyline>
<polyline points="1261.95,762.517,6497.86,1362.3" stroke="rgb(0,76,255)" stroke-width="2" fill="none"></polyline>
<polyline points="1638.46,1420.12,6834,1781.89" stroke="rgb(0,255,25)" stroke-width="2" fill="none"></polyline>
<polyline points="1261.95,762.517,6559.32,2055.31" stroke="rgb(250,255,0)" stroke-width="2" fill="none"></polyline>
<polyline points="1261.95,762.517,6521.3,1420.08" stroke="rgb(255,0,127)" stroke-width="2" fill="none"></polyline>
<polyline points="1232.2,999.428,6240.29,1436.07" stroke="rgb(97,255,0)" stroke-width="2" fill="none"></polyline>
<polyline points="1163.17,866.466,6059.35,1449.39" stroke="rgb(255,102,0)" stroke-width="2" fill="none"></polyline>
<polyline points="1139.24,831.423,6523.15,1455.28" stroke="rgb(0,12,255)" stroke-width="2" fill="none"></polyline>
<polyline points="1633.69,366.831,5962.4,1487.58" stroke="rgb(0,255,237)" stroke-width="2" fill="none"></polyline>
<polyline points="1466.87,541.261,6167.11,2142.1" stroke="rgb(255,144,0)" stroke-width="2" fill="none"></polyline>
<polyline points="1437.22,1342.99,5939.34,2493.13" stroke="rgb(0,255,178)" stroke-width="2" fill="none"></polyline>
<polyline points="1542.64,468.197,6023.23,2524.48" stroke="rgb(182,255,0)" stroke-width="2" fill="none"></polyline>
<polyline points="1261.95,762.517,6499.71,1646.09" stroke="rgb(46,255,0)" stroke-width="2" fill="none"></polyline>
<polyline points="1261.95,762.517,6557.25,1971.65" stroke="rgb(203,255,0)" stroke-width="2" fill="none"></polyline>
<polyline points="1261.95,762.517,6506.88,1679.9" stroke="rgb(0,212,255)" stroke-width="2" fill="none"></polyline>
<polyline points="1261.95,762.517,6491.29,1588.43" stroke="rgb(0,255,59)" stroke-width="2" fill="none"></polyline>
<polyline points="1727.61,1166.64,6591.9,1760.01" stroke="rgb(0,80,255)" stroke-width="2" fill="none"></polyline>
<polyline points="2171.57,635.77,5812.28,2584.44" stroke="rgb(255,0,216)" stroke-width="2" fill="none"></polyline>
<polyline points="2573.85,1602.95,5937.07,2604.39" stroke="rgb(233,255,0)" stroke-width="2" fill="none"></polyline>
<polyline points="1330.03,734.292,6537.88,1843.33" stroke="rgb(255,0,12)" stroke-width="2" fill="none"></polyline>
<polyline points="1261.95,762.517,6503.78,2629.1" stroke="rgb(161,0,255)" stroke-width="2" fill="none"></polyline>
<polyline points="1727.61,1166.64,6559.27,2649.38" stroke="rgb(169,255,0)" stroke-width="2" fill="none"></polyline>
<polyline points="1305.8,1202.64,6686.64,2600.55" stroke="rgb(255,85,0)" stroke-width="2" fill="none"></polyline>
<polyline points="1276.89,244.243,6797.03,2701.84" stroke="rgb(0,255,0)" stroke-width="2" fill="none"></polyline>
<polyline points="1768.42,534.975,6460.59,2375.28" stroke="rgb(0,140,255)" stroke-width="2" fill="none"></polyline>
<polyline points="1261.95,762.517,6488.38,2446.16" stroke="rgb(225,0,255)" stroke-width="2" fill="none"></polyline>
<polyline points="1852.86,1527.98,6528.17,2796.83" stroke="rgb(255,0,55)" stroke-width="2" fill="none"></polyline>
<polyline points="1034.1,2073.13,5963.72,1128.46" stroke="rgb(0,255,89)" stroke-width="2" fill="none"></polyline>
<polyline points="2011.42,1196.56,5621.58,1447.98" stroke="rgb(255,178,0)" stroke-width="2" fill="none"></polyline>
<polyline points="1217.06,930.69,6133.9,1335.13" stroke="rgb(255,191,0)" stroke-width="2" fill="none"></polyline>
<polyline points="1663.07,1676.89,5905.19,1809.67" stroke="rgb(178,0,255)" stroke-width="2" fill="none"></polyline>
<polyline points="1078.09,1798.18,6550,1525.24" stroke="rgb(255,76,0)" stroke-width="2" fill="none"></polyline>
<polyline points="1444.58,755.328,5948.24,2155.02" stroke="rgb(114,0,255)" stroke-width="2" fill="none"></polyline>
<polyline points="941.946,384.802,5997.94,2317.31" stroke="rgb(255,204,0)" stroke-width="2" fill="none"></polyline>
<polyline points="1514.33,669.519,5929.46,2440.25" stroke="rgb(255,0,208)" stroke-width="2" fill="none"></polyline>
<polyline points="1626.35,1174.66,6178.22,2373.75" stroke="rgb(46,255,0)" stroke-width="2" fill="none"></polyline>
<polyline points="2133.34,828.6,6087.76,2066.27" stroke="rgb(255,72,0)" stroke-width="2" fill="none"></polyline>
<polyline points="1626.35,1174.66,6179.82,2371.81" stroke="rgb(0,140,255)" stroke-width="2" fill="none"></polyline>
<polyline points="2590.72,1383.3,6754.39,1984.36" stroke="rgb(255,0,55)" stroke-width="2" fill="none"></polyline>
<polyline points="2445.12,749.282,6850.69,1655.76" stroke="rgb(0,199,255)" stroke-width="2" fill="none"></polyline>
<circle cx="2308.22" cy="2037.08" r="4" stroke="rgb(255,0,136)" stroke-width="2" fill="none"></circle>
<circle cx="6896.83" cy="1502.21" r="4" stroke="rgb(255,0,136)" stroke-width="2" fill="none"></circle>
<circle cx="1490.06" cy="546.717" r="4" stroke="rgb(0,255,97)" stroke-width="2" fill="none"></circle>
<circle cx="5977.5" cy="1015.72" r="4" stroke="rgb(0,255,97)" stroke-width="2" fill="none"></circle>
<circle cx="2562.37" cy="1921.23" r="4" stroke="rgb(0,255,131)" stroke-width="2" fill="none"></circle>
<circle cx="6068.98" cy="2116.53" r="4" stroke="rgb(0,255,131)" stroke-width="2" fill="none"></circle>
<circle cx="2404.14" cy="1384.38" r="4" stroke="rgb(255,0,127)" stroke-width="2" fill="none"></circle>
<circle cx="6471.72" cy="1156.07" r="4" stroke="rgb(255,0,127)" stroke-width="2" fill="none"></circle>
<circle cx="1261.95" cy="762.517" r="4" stroke="rgb(63,0,255)" stroke-width="2" fill="none"></circle>
<circle cx="6506.67" cy="1294.52" r="4" stroke="rgb(63,0,255)" stroke-width="2" fill="none"></circle>
<circle cx="2396.01" cy="1395.67" r="4" stroke="rgb(140,0,255)" stroke-width="2" fill="none"></circle>
<circle cx="6567.04" cy="2752.76" r="4" stroke="rgb(140,0,255)" stroke-width="2" fill="none"></circle>
<circle cx="2377.27" cy="1241.88" r="4" stroke="rgb(0,55,255)" stroke-width="2" fill="none"></circle>
<circle cx="6010.21" cy="1298.75" r="4" stroke="rgb(0,55,255)" stroke-width="2" fill="none"></circle>
<circle cx="1270.4" cy="1814.52" r="4" stroke="rgb(246,255,0)" stroke-width="2" fill="none"></circle>
<circle cx="5821" cy="1707.23" r="4" stroke="rgb(246,255,0)" stroke-width="2" fill="none"></circle>
<circle cx="1283.96" cy="1602" r="4" stroke="rgb(0,17,255)" stroke-width="2" fill="none"></circle>
<circle cx="6636.15" cy="1312.51" r="4" stroke="rgb(0,17,255)" stroke-width="2" fill="none"></circle>
<circle cx="2135.32" cy="600.275" r="4" stroke="rgb(255,242,0)" stroke-width="2" fill="none"></circle>
<circle cx="6882.57" cy="1314.71" r="4" stroke="rgb(255,242,0)" stroke-width="2" fill="none"></circle>
<circle cx="1086.83" cy="1799.93" r="4" stroke="rgb(0,255,89)" stroke-width="2" fill="none"></circle>
<circle cx="6558.29" cy="1350.89" r="4" stroke="rgb(0,255,89)" stroke-width="2" fill="none"></circle>
<circle cx="1487.13" cy="628.525" r="4" stroke="rgb(255,0,101)" stroke-width="2" fill="none"></circle>
<circle cx="6448.97" cy="1388.51" r="4" stroke="rgb(255,0,101)" stroke-width="2" fill="none"></circle>
<circle cx="1261.95" cy="762.517" r="4" stroke="rgb(0,76,255)" stroke-width="2" fill="none"></circle>
<circle cx="6497.86" cy="1362.3" r="4" stroke="rgb(0,76,255)" stroke-width="2" fill="none"></circle>
<circle cx="1638.46" cy="1420.12" r="4" stroke="rgb(0,255,25)" stroke-width="2" fill="none"></circle>
<circle cx="6834" cy="1781.89" r="4" stroke="rgb(0,255,25)" stroke-width="2" fill="none"></circle>
<circle cx="1261.95" cy="762.517" r="4" stroke="rgb(250,255,0)" stroke-width="2" fill="none"></circle>
<circle cx="6559.32" cy="2055.31" r="4" stroke="rgb(250,255,0)" stroke-width="2" fill="none"></circle>
<circle cx="1261.95" cy="762.517" r="4" stroke="rgb(255,0,127)" stroke-width="2" fill="none"></circle>
<circle cx="6521.3" cy="1420.08" r="4" stroke="rgb(255,0,127)" stroke-width="2" fill="none"></circle>
<circle cx="1232.2" cy="999.428" r="4" stroke="rgb(97,255,0)" stroke-width="2" fill="none"></circle>
<circle cx="6240.29" cy="1436.07" r="4" stroke="rgb(97,255,0)" stroke-width="2" fill="none"></circle>
<circle cx="1163.17" cy="866.466" r="4" stroke="rgb(255,102,0)" stroke-width="2" fill="none"></circle>
<circle cx="6059.35" cy="1449.39" r="4" stroke="rgb(255,102,0)" stroke-width="2" fill="none"></circle>
<circle cx="1139.24" cy="831.423" r="4" stroke="rgb(0,12,255)" stroke-width="2" fill="none"></circle>
<circle cx="6523.15" cy="1455.28" r="4" stroke="rgb(0,12,255)" stroke-width="2" fill="none"></circle>
<circle cx="1633.69" cy="366.831" r="4" stroke="rgb(0,255,237)" stroke-width="2" fill="none"></circle>
<circle cx="5962.4" cy="1487.58" r="4" stroke="rgb(0,255,237)" stroke-width="2" fill="none"></circle>
<circle cx="1466.87" cy="541.261" r="4" stroke="rgb(255,144,0)" stroke-width="2" fill="none"></circle>
<circle cx="6167.11" cy="2142.1" r="4" stroke="rgb(255,144,0)" stroke-width="2" fill="none"></circle>
<circle cx="1437.22" cy="1342.99" r="4" stroke="rgb(0,255,178)" stroke-width="2" fill="none"></circle>
<circle cx="5939.34" cy="2493.13" r="4" stroke="rgb(0,255,178)" stroke-width="2" fill="none"></circle>
<circle cx="1542.64" cy="468.197" r="4" stroke="rgb(182,255,0)" stroke-width="2" fill="none"></circle>
<circle cx="6023.23" cy="2524.48" r="4" stroke="rgb(182,255,0)" stroke-width="2" fill="none"></circle>
<circle cx="1261.95" cy="762.517" r="4" stroke="rgb(46,255,0)" stroke-width="2" fill="none"></circle>
<circle cx="6499.71" cy="1646.09" r="4" stroke="rgb(46,255,0)" stroke-width="2" fill="none"></circle>
<circle cx="1261.95" cy="762.517" r="4" stroke="rgb(203,255,0)" stroke-width="2" fill="none"></circle>
<circle cx="6557.25" cy="1971.65" r="4" stroke="rgb(203,255,0)" stroke-width="2" fill="none"></circle>
<circle cx="1261.95" cy="762.517" r="4" stroke="rgb(0,212,255)" stroke-width="2" fill="none"></circle>
<circle cx="6506.88" cy="1679.9" r="4" stroke="rgb(0,212,255)" stroke-width="2" fill="none"></circle>
<circle cx="1261.95" cy="762.517" r="4" stroke="rgb(0,255,59)" stroke-width="2" fill="none"></circle>
<circle cx="6491.29" cy="1588.43" r="4" stroke="rgb(0,255,59)" stroke-width="2" fill="none"></circle>
<circle cx="1727.61" cy="1166.64" r="4" stroke="rgb(0,80,255)" stroke-width="2" fill="none"></circle>
<circle cx="6591.9" cy="1760.01" r="4" stroke="rgb(0,80,255)" stroke-width="2" fill="none"></circle>
<circle cx="2171.57" cy="635.77" r="4" stroke="rgb(255,0,216)" stroke-width="2" fill="none"></circle>
<circle cx="5812.28" cy="2584.44" r="4" stroke="rgb(255,0,216)" stroke-width="2" fill="none"></circle>
<circle cx="2573.85" cy="1602.95" r="4" stroke="rgb(233,255,0)" stroke-width="2" fill="none"></circle>
<circle cx="5937.07" cy="2604.39" r="4" stroke="rgb(233,255,0)" stroke-width="2" fill="none"></circle>
<circle cx="1330.03" cy="734.292" r="4" stroke="rgb(255,0,12)" stroke-width="2" fill="none"></circle>
<circle cx="6537.88" cy="1843.33" r="4" stroke="rgb(255,0,12)" stroke-width="2" fill="none"></circle>
<circle cx="1261.95" cy="762.517" r="4" stroke="rgb(161,0,255)" stroke-width="2" fill="none"></circle>
<circle cx="6503.78" cy="2629.1" r="4" stroke="rgb(161,0,255)" stroke-width="2" fill="none"></circle>
<circle cx="1727.61" cy="1166.64" r="4" stroke="rgb(169,255,0)" stroke-width="2" fill="none"></circle>
<circle cx="6559.27" cy="2649.38" r="4" stroke="rgb(169,255,0)" stroke-width="2" fill="none"></circle>
<circle cx="1305.8" cy="1202.64" r="4" stroke="rgb(255,85,0)" stroke-width="2" fill="none"></circle>
<circle cx="6686.64" cy="2600.55" r="4" stroke="rgb(255,85,0)" stroke-width="2" fill="none"></circle>
<circle cx="1276.89" cy="244.243" r="4" stroke="rgb(0,255,0)" stroke-width="2" fill="none"></circle>
<circle cx="6797.03" cy="2701.84" r="4" stroke="rgb(0,255,0)" stroke-width="2" fill="none"></circle>
<circle cx="1768.42" cy="534.975" r="4" stroke="rgb(0,140,255)" stroke-width="2" fill="none"></circle>
<circle cx="6460.59" cy="2375.28" r="4" stroke="rgb(0,140,255)" stroke-width="2" fill="none"></circle>
<circle cx="1261.95" cy="762.517" r="4" stroke="rgb(225,0,255)" stroke-width="2" fill="none"></circle>
<circle cx="6488.38" cy="2446.16" r="4" stroke="rgb(225,0,255)" stroke-width="2" fill="none"></circle>
<circle cx="1852.86" cy="1527.98" r="4" stroke="rgb(255,0,55)" stroke-width="2" fill="none"></circle>
<circle cx="6528.17" cy="2796.83" r="4" stroke="rgb(255,0,55)" stroke-width="2" fill="none"></circle>
<circle cx="1034.1" cy="2073.13" r="4" stroke="rgb(0,255,89)" stroke-width="2" fill="none"></circle>
<circle cx="5963.72" cy="1128.46" r="4" stroke="rgb(0,255,89)" stroke-width="2" fill="none"></circle>
<circle cx="2011.42" cy="1196.56" r="4" stroke="rgb(255,178,0)" stroke-width="2" fill="none"></circle>
<circle cx="5621.58" cy="1447.98" r="4" stroke="rgb(255,178,0)" stroke-width="2" fill="none"></circle>
<circle cx="1217.06" cy="930.69" r="4" stroke="rgb(255,191,0)" stroke-width="2" fill="none"></circle>
<circle cx="6133.9" cy="1335.13" r="4" stroke="rgb(255,191,0)" stroke-width="2" fill="none"></circle>
<circle cx="1663.07" cy="1676.89" r="4" stroke="rgb(178,0,255)" stroke-width="2" fill="none"></circle>
<circle cx="5905.19" cy="1809.67" r="4" stroke="rgb(178,0,255)" stroke-width="2" fill="none"></circle>
<circle cx="1078.09" cy="1798.18" r="4" stroke="rgb(255,76,0)" stroke-width="2" fill="none"></circle>
<circle cx="6550" cy="1525.24" r="4" stroke="rgb(255,76,0)" stroke-width="2" fill="none"></circle>
<circle cx="1444.58" cy="755.328" r="4" stroke="rgb(114,0,255)" stroke-width="2" fill="none"></circle>
<circle cx="5948.24" cy="2155.02" r="4" stroke="rgb(114,0,255)" stroke-width="2" fill="none"></circle>
<circle cx="941.946" cy="384.802" r="4" stroke="rgb(255,204,0)" stroke-width="2" fill="none"></circle>
<circle cx="5997.94" cy="2317.31" r="4" stroke="rgb(255,204,0)" stroke-width="2" fill="none"></circle>
<circle cx="1514.33" cy="669.519" r="4" stroke="rgb(255,0,208)" stroke-width="2" fill="none"></circle>
<circle cx="5929.46" cy="2440.25" r="4" stroke="rgb(255,0,208)" stroke-width="2" fill="none"></circle>
<circle cx="1626.35" cy="1174.66" r="4" stroke="rgb(46,255,0)" stroke-width="2" fill="none"></circle>
<circle cx="6178.22" cy="2373.75" r="4" stroke="rgb(46,255,0)" stroke-width="2" fill="none"></circle>
<circle cx="2133.34" cy="828.6" r="4" stroke="rgb(255,72,0)" stroke-width="2" fill="none"></circle>
<circle cx="6087.76" cy="2066.27" r="4" stroke="rgb(255,72,0)" stroke-width="2" fill="none"></circle>
<circle cx="1626.35" cy="1174.66" r="4" stroke="rgb(0,140,255)" stroke-width="2" fill="none"></circle>
<circle cx="6179.82" cy="2371.81" r="4" stroke="rgb(0,140,255)" stroke-width="2" fill="none"></circle>
<circle cx="2590.72" cy="1383.3" r="4" stroke="rgb(255,0,55)" stroke-width="2" fill="none"></circle>
<circle cx="6754.39" cy="1984.36" r="4" stroke="rgb(255,0,55)" stroke-width="2" fill="none"></circle>
<circle cx="2445.12" cy="749.282" r="4" stroke="rgb(0,199,255)" stroke-width="2" fill="none"></circle>
<circle cx="6850.69" cy="1655.76" r="4" stroke="rgb(0,199,255)" stroke-width="2" fill="none"></circle>
</svg>