<?xml version="1.0" standalone="yes"?>
<!-- SVG graphic -->
<svg xmlns='http://www.w3.org/2000/svg' xmlns:xlink='http://www.w3.org/1999/xlink'
width="8064px" height="3024px" preserveAspectRatio="xMinYMin meet" viewBox="0 0 8064 3024" version="1.1">
<image x="0" y="0" width="4032px" height="3024px" opacity="1" xlink:href="/home/jeong/Code/2D-to-3D-Modeling-using-AI/Make3D/Image/20200227_180706.jpg"/>
<image x="4032" y="0" width="4032px" height="3024px" opacity="1" xlink:href="/home/jeong/Code/2D-to-3D-Modeling-using-AI/Make3D/Image/20200227_180752.jpg"/>
<polyline points="2367.64,558.886,5653.4,168.114" stroke="rgb(0,153,255)" stroke-width="2" fill="none"></polyline>
<polyline points="1084.79,1850.94,4844.66,177.094" stroke="rgb(255,114,0)" stroke-width="2" fill="none"></polyline>
<polyline points="1475.41,1253.84,5851.13,774.594" stroke="rgb(255,0,33)" stroke-width="2" fill="none"></polyline>
<polyline points="1475.41,1253.84,5680.26,795.271" stroke="rgb(127,0,255)" stroke-width="2" fill="none"></polyline>
<polyline points="2479.76,1570.04,5690.09,733.723" stroke="rgb(255,42,0)" stroke-width="2" fill="none"></polyline>
<polyline points="2530.49,1816.85,5470.2,326.563" stroke="rgb(0,255,123)" stroke-width="2" fill="none"></polyline>
<polyline points="1599.17,353.968,4634.88,752.835" stroke="rgb(255,0,169)" stroke-width="2" fill="none"></polyline>
<polyline points="1677.92,968.2,5892.15,905.784" stroke="rgb(255,199,0)" stroke-width="2" fill="none"></polyline>
<polyline points="1304.52,330.494,5286.11,338.745" stroke="rgb(255,229,0)" stroke-width="2" fill="none"></polyline>
<polyline points="1475.41,1253.84,5839.84,773.893" stroke="rgb(255,0,93)" stroke-width="2" fill="none"></polyline>
<polyline points="1727.61,1166.64,5290.14,356.62" stroke="rgb(4,0,255)" stroke-width="2" fill="none"></polyline>
<polyline points="2545.04,1853.03,5605.63,369.298" stroke="rgb(255,187,0)" stroke-width="2" fill="none"></polyline>
<polyline points="1261.95,762.517,5141.9,788.667" stroke="rgb(255,0,178)" stroke-width="2" fill="none"></polyline>
<polyline points="1685.12,1595.54,5543.16,359.238" stroke="rgb(255,0,174)" stroke-width="2" fill="none"></polyline>
<polyline points="1685.12,1595.54,5543.16,359.238" stroke="rgb(0,89,255)" stroke-width="2" fill="none"></polyline>
<polyline points="2562.37,1921.23,5974.83,794.542" stroke="rgb(255,182,0)" stroke-width="2" fill="none"></polyline>
<polyline points="1760.97,669.409,5702.88,376.203" stroke="rgb(255,0,89)" stroke-width="2" fill="none"></polyline>
<polyline points="1802.7,857.056,5591.95,377.931" stroke="rgb(255,0,242)" stroke-width="2" fill="none"></polyline>
<polyline points="1475.41,1253.84,5530.95,803.87" stroke="rgb(255,0,161)" stroke-width="2" fill="none"></polyline>
<polyline points="725.168,2074.38,5906.09,805.218" stroke="rgb(0,255,33)" stroke-width="2" fill="none"></polyline>
<polyline points="2461.57,1435.56,5132.22,1001.97" stroke="rgb(255,0,76)" stroke-width="2" fill="none"></polyline>
<polyline points="1722.06,870.023,5614.21,430.891" stroke="rgb(0,187,255)" stroke-width="2" fill="none"></polyline>
<polyline points="2604.98,1524.7,5859.91,815.679" stroke="rgb(255,17,0)" stroke-width="2" fill="none"></polyline>
<polyline points="2221.21,1388.33,5750.2,437.836" stroke="rgb(255,0,76)" stroke-width="2" fill="none"></polyline>
<polyline points="1751.92,544.467,5593.2,414.379" stroke="rgb(0,255,8)" stroke-width="2" fill="none"></polyline>
<polyline points="1751.92,544.467,5593.2,414.379" stroke="rgb(161,255,0)" stroke-width="2" fill="none"></polyline>
<polyline points="1555.29,1972.03,5049.21,1046.66" stroke="rgb(255,148,0)" stroke-width="2" fill="none"></polyline>
<polyline points="1647.93,1202.7,5155.49,828.459" stroke="rgb(0,255,89)" stroke-width="2" fill="none"></polyline>
<polyline points="1698.89,864.368,5582.24,425.431" stroke="rgb(144,255,0)" stroke-width="2" fill="none"></polyline>
<polyline points="2479.76,1570.04,6723.24,458.049" stroke="rgb(255,0,169)" stroke-width="2" fill="none"></polyline>
<polyline points="1368.1,317.99,6783.98,431.938" stroke="rgb(0,144,255)" stroke-width="2" fill="none"></polyline>
<polyline points="1706.9,605.002,5804,1068.3" stroke="rgb(0,255,178)" stroke-width="2" fill="none"></polyline>
<polyline points="2286.8,1388.53,6070.19,1483.53" stroke="rgb(0,89,255)" stroke-width="2" fill="none"></polyline>
<polyline points="2550.44,1044.24,5802.71,850.493" stroke="rgb(0,178,255)" stroke-width="2" fill="none"></polyline>
<polyline points="1261.95,762.517,5271.09,1506.38" stroke="rgb(203,255,0)" stroke-width="2" fill="none"></polyline>
<polyline points="2354.91,1770.17,5142.3,1122.91" stroke="rgb(0,46,255)" stroke-width="2" fill="none"></polyline>
<polyline points="1710.22,953.61,5752.42,512.587" stroke="rgb(0,89,255)" stroke-width="2" fill="none"></polyline>
<polyline points="2580.84,1657.11,5756.41,516.721" stroke="rgb(102,0,255)" stroke-width="2" fill="none"></polyline>
<polyline points="1710.92,905.842,5610.14,463.531" stroke="rgb(0,255,123)" stroke-width="2" fill="none"></polyline>
<polyline points="1034.1,2073.13,5540.38,2434.68" stroke="rgb(0,255,110)" stroke-width="2" fill="none"></polyline>
<polyline points="2479.76,1570.04,6724.93,471.182" stroke="rgb(8,0,255)" stroke-width="2" fill="none"></polyline>
<polyline points="2545.04,1853.03,5804.13,545.002" stroke="rgb(93,0,255)" stroke-width="2" fill="none"></polyline>
<polyline points="2479.76,1570.04,6715.58,472.107" stroke="rgb(0,212,255)" stroke-width="2" fill="none"></polyline>
<polyline points="1903.26,1678.57,6674.4,908.526" stroke="rgb(199,255,0)" stroke-width="2" fill="none"></polyline>
<polyline points="2580.84,1657.11,5512.56,484.382" stroke="rgb(0,80,255)" stroke-width="2" fill="none"></polyline>
<polyline points="1159.21,319.908,5009.63,578.745" stroke="rgb(174,0,255)" stroke-width="2" fill="none"></polyline>
<polyline points="1501.87,604.565,5334.86,589.208" stroke="rgb(16,255,0)" stroke-width="2" fill="none"></polyline>
<polyline points="1717.83,873.769,5516.34,545.019" stroke="rgb(0,169,255)" stroke-width="2" fill="none"></polyline>
<polyline points="1717.54,782.851,5786.01,547.328" stroke="rgb(0,67,255)" stroke-width="2" fill="none"></polyline>
<polyline points="1722.06,870.023,5511.53,550.175" stroke="rgb(255,0,208)" stroke-width="2" fill="none"></polyline>
<polyline points="1722.06,870.023,5511.53,550.175" stroke="rgb(255,0,131)" stroke-width="2" fill="none"></polyline>
<polyline points="1722.06,870.023,5528.81,564.253" stroke="rgb(0,140,255)" stroke-width="2" fill="none"></polyline>
<polyline points="1722.06,870.023,5528.81,564.253" stroke="rgb(0,255,114)" stroke-width="2" fill="none"></polyline>
<polyline points="1815.41,858.136,5793.9,568.044" stroke="rgb(255,0,114)" stroke-width="2" fill="none"></polyline>
<polyline points="810.08,1917.49,5693.5,663.832" stroke="rgb(250,255,0)" stroke-width="2" fill="none"></polyline>
<polyline points="2545.04,1853.03,5683.92,592.581" stroke="rgb(127,0,255)" stroke-width="2" fill="none"></polyline>
<polyline points="2479.76,1570.04,5514.89,675.26" stroke="rgb(199,0,255)" stroke-width="2" fill="none"></polyline>
<polyline points="1509.22,1610.87,6037.37,1455.03" stroke="rgb(97,255,0)" stroke-width="2" fill="none"></polyline>
<polyline points="2593.94,1397.28,5978.96,1708.44" stroke="rgb(182,0,255)" stroke-width="2" fill="none"></polyline>
<polyline points="1804.08,974.992,5646.69,601.117" stroke="rgb(21,0,255)" stroke-width="2" fill="none"></polyline>
<polyline points="1804.08,974.992,5646.69,601.117" stroke="rgb(255,242,0)" stroke-width="2" fill="none"></polyline>
<polyline points="2479.76,1570.04,5547.6,680.946" stroke="rgb(255,4,0)" stroke-width="2" fill="none"></polyline>
<polyline points="2587.62,1010.41,6668.03,1459.32" stroke="rgb(255,199,0)" stroke-width="2" fill="none"></polyline>
<polyline points="2479.76,1570.04,5564.68,697.341" stroke="rgb(157,0,255)" stroke-width="2" fill="none"></polyline>
<polyline points="1744.79,663.975,5682.43,372.959" stroke="rgb(208,255,0)" stroke-width="2" fill="none"></polyline>
<polyline points="1813.1,588.128,5599.02,375.919" stroke="rgb(255,0,38)" stroke-width="2" fill="none"></polyline>
<polyline points="1514.51,1451.47,4783.9,636.549" stroke="rgb(255,76,0)" stroke-width="2" fill="none"></polyline>
<polyline points="1369.26,980.224,5122.69,1740.82" stroke="rgb(212,0,255)" stroke-width="2" fill="none"></polyline>
<polyline points="1722.06,870.023,5430.35,390.276" stroke="rgb(67,0,255)" stroke-width="2" fill="none"></polyline>
<polyline points="1163.17,866.466,5625.73,669.556" stroke="rgb(0,255,199)" stroke-width="2" fill="none"></polyline>
<polyline points="1555.29,1972.03,5224.12,1542.52" stroke="rgb(187,255,0)" stroke-width="2" fill="none"></polyline>
<polyline points="2558.29,1590.05,5472.66,428.393" stroke="rgb(0,255,76)" stroke-width="2" fill="none"></polyline>
<polyline points="1837.31,785.327,5689.7,433.963" stroke="rgb(216,255,0)" stroke-width="2" fill="none"></polyline>
<polyline points="1475.41,1253.84,5540.51,803.635" stroke="rgb(114,0,255)" stroke-width="2" fill="none"></polyline>
<polyline points="1717.83,873.769,5443.5,435.957" stroke="rgb(157,255,0)" stroke-width="2" fill="none"></polyline>
<polyline points="2513.76,1781.71,6190.17,1819.71" stroke="rgb(0,255,178)" stroke-width="2" fill="none"></polyline>
<polyline points="1722.06,870.023,5437.23,441.571" stroke="rgb(255,255,0)" stroke-width="2" fill="none"></polyline>
<polyline points="1722.06,870.023,5437.23,441.571" stroke="rgb(203,255,0)" stroke-width="2" fill="none"></polyline>
<polyline points="1511.11,1828,5180.93,450.097" stroke="rgb(255,12,0)" stroke-width="2" fill="none"></polyline>
<polyline points="1764.34,2009.9,7042.86,850.103" stroke="rgb(0,255,157)" stroke-width="2" fill="none"></polyline>
<polyline points="1710.92,905.842,5610.26,462.95" stroke="rgb(255,97,0)" stroke-width="2" fill="none"></polyline>
<polyline points="1685.12,1595.54,5730.15,520.186" stroke="rgb(255,0,119)" stroke-width="2" fill="none"></polyline>
<polyline points="1685.12,1595.54,5730.15,520.186" stroke="rgb(0,17,255)" stroke-width="2" fill="none"></polyline>
<polyline points="2545.04,1853.03,5779.98,521.614" stroke="rgb(0,255,212)" stroke-width="2" fill="none"></polyline>
<polyline points="2530.49,1816.85,5529.94,543.777" stroke="rgb(0,255,242)" stroke-width="2" fill="none"></polyline>
<polyline points="2615.03,1408.08,5458.8,561.804" stroke="rgb(242,0,255)" stroke-width="2" fill="none"></polyline>
<polyline points="1717.83,873.769,5524.11,570.616" stroke="rgb(255,0,204)" stroke-width="2" fill="none"></polyline>
<polyline points="2295.47,1830.45,5366.05,1721.79" stroke="rgb(67,255,0)" stroke-width="2" fill="none"></polyline>
<polyline points="1700.62,444.382,5650.17,578.795" stroke="rgb(255,144,0)" stroke-width="2" fill="none"></polyline>
<polyline points="1753.86,492.431,5659.07,590.613" stroke="rgb(55,255,0)" stroke-width="2" fill="none"></polyline>
<polyline points="1818.74,975.319,5667.62,595.798" stroke="rgb(0,76,255)" stroke-width="2" fill="none"></polyline>
<polyline points="1316.69,918.442,6009.29,1751.14" stroke="rgb(255,0,153)" stroke-width="2" fill="none"></polyline>
<polyline points="2558.72,1579.98,5674.86,619.311" stroke="rgb(51,255,0)" stroke-width="2" fill="none"></polyline>
<polyline points="1670.74,1666.75,5474.13,638.754" stroke="rgb(123,0,255)" stroke-width="2" fill="none"></polyline>
<polyline points="1028.65,1934.99,6454.21,668.545" stroke="rgb(29,255,0)" stroke-width="2" fill="none"></polyline>
<polyline points="2599.03,820.692,5135.41,1861.07" stroke="rgb(0,255,250)" stroke-width="2" fill="none"></polyline>
<polyline points="1261.95,762.517,5397.46,2445.96" stroke="rgb(89,0,255)" stroke-width="2" fill="none"></polyline>
<polyline points="1601.14,1818.39,5101.72,725.977" stroke="rgb(255,12,0)" stroke-width="2" fill="none"></polyline>
<polyline points="1601.14,1818.39,5101.72,725.977" stroke="rgb(255,0,76)" stroke-width="2" fill="none"></polyline>
<polyline points="1810.28,478.755,5476.78,345.574" stroke="rgb(0,255,157)" stroke-width="2" fill="none"></polyline>
<polyline points="2606.98,1634.25,5588.34,1463.45" stroke="rgb(0,255,216)" stroke-width="2" fill="none"></polyline>
<polyline points="1900,578.608,5741.72,466.417" stroke="rgb(212,0,255)" stroke-width="2" fill="none"></polyline>
<polyline points="1855.67,656.842,5480.81,451.452" stroke="rgb(0,255,199)" stroke-width="2" fill="none"></polyline>
<polyline points="2545.04,1853.03,6587.84,1303.57" stroke="rgb(33,255,0)" stroke-width="2" fill="none"></polyline>
<polyline points="2580.84,1657.11,4820.25,900.068" stroke="rgb(216,255,0)" stroke-width="2" fill="none"></polyline>
<polyline points="1804.47,931.988,5626.1,543.965" stroke="rgb(0,255,12)" stroke-width="2" fill="none"></polyline>
<polyline points="1841.61,718.226,5494.7,614.278" stroke="rgb(148,0,255)" stroke-width="2" fill="none"></polyline>
<polyline points="2432.61,1622.66,5229.21,1063.69" stroke="rgb(0,255,42)" stroke-width="2" fill="none"></polyline>
<polyline points="1753.86,492.431,5659.36,590.123" stroke="rgb(0,191,255)" stroke-width="2" fill="none"></polyline>
<polyline points="1858.58,718.472,5529.6,602.418" stroke="rgb(161,0,255)" stroke-width="2" fill="none"></polyline>
<polyline points="1852.03,723.599,5520.15,621.755" stroke="rgb(199,0,255)" stroke-width="2" fill="none"></polyline>
<polyline points="1647.93,1202.7,5851.14,823.012" stroke="rgb(0,93,255)" stroke-width="2" fill="none"></polyline>
<polyline points="1453.11,1350.93,5885.88,2135.36" stroke="rgb(0,255,8)" stroke-width="2" fill="none"></polyline>
<polyline points="2227.12,2026.82,4978.58,2142.8" stroke="rgb(0,255,182)" stroke-width="2" fill="none"></polyline>
<polyline points="1691.15,1788.48,7062.86,857.164" stroke="rgb(85,0,255)" stroke-width="2" fill="none"></polyline>
<polyline points="1626.35,1174.66,6896.43,2089.23" stroke="rgb(0,255,216)" stroke-width="2" fill="none"></polyline>
<polyline points="1520.76,446.08,6268.43,2564.08" stroke="rgb(84,255,0)" stroke-width="2" fill="none"></polyline>
<polyline points="1233.84,604.142,5122.38,2587.97" stroke="rgb(148,255,0)" stroke-width="2" fill="none"></polyline>
<polyline points="1165.57,898.667,4960.41,524.419" stroke="rgb(148,0,255)" stroke-width="2" fill="none"></polyline>
<polyline points="2563.71,1048.52,6532.92,2098.67" stroke="rgb(255,29,0)" stroke-width="2" fill="none"></polyline>
<polyline points="2354.75,2012.91,6549.35,2388.27" stroke="rgb(0,203,255)" stroke-width="2" fill="none"></polyline>
<polyline points="1667.4,405.684,7021.64,1685.81" stroke="rgb(0,255,72)" stroke-width="2" fill="none"></polyline>
<circle cx="2367.64" cy="558.886" r="4" stroke="rgb(0,153,255)" stroke-width="2" fill="none"></circle>
<circle cx="5653.4" cy="168.114" r="4" stroke="rgb(0,153,255)" stroke-width="2" fill="none"></circle>
<circle cx="1084.79" cy="1850.94" r="4" stroke="rgb(255,114,0)" stroke-width="2" fill="none"></circle>
<circle cx="4844.66" cy="177.094" r="4" stroke="rgb(255,114,0)" stroke-width="2" fill="none"></circle>
<circle cx="1475.41" cy="1253.84" r="4" stroke="rgb(255,0,33)" stroke-width="2" fill="none"></circle>
<circle cx="5851.13" cy="774.594" r="4" stroke="rgb(255,0,33)" stroke-width="2" fill="none"></circle>
<circle cx="1475.41" cy="1253.84" r="4" stroke="rgb(127,0,255)" stroke-width="2" fill="none"></circle>
<circle cx="5680.26" cy="795.271" r="4" stroke="rgb(127,0,255)" stroke-width="2" fill="none"></circle>
<circle cx="2479.76" cy="1570.04" r="4" stroke="rgb(255,42,0)" stroke-width="2" fill="none"></circle>
<circle cx="5690.09" cy="733.723" r="4" stroke="rgb(255,42,0)" stroke-width="2" fill="none"></circle>
<circle cx="2530.49" cy="1816.85" r="4" stroke="rgb(0,255,123)" stroke-width="2" fill="none"></circle>
<circle cx="5470.2" cy="326.563" r="4" stroke="rgb(0,255,123)" stroke-width="2" fill="none"></circle>
<circle cx="1599.17" cy="353.968" r="4" stroke="rgb(255,0,169)" stroke-width="2" fill="none"></circle>
<circle cx="4634.88" cy="752.835" r="4" stroke="rgb(255,0,169)" stroke-width="2" fill="none"></circle>
<circle cx="1677.92" cy="968.2" r="4" stroke="rgb(255,199,0)" stroke-width="2" fill="none"></circle>
<circle cx="5892.15" cy="905.784" r="4" stroke="rgb(255,199,0)" stroke-width="2" fill="none"></circle>
<circle cx="1304.52" cy="330.494" r="4" stroke="rgb(255,229,0)" stroke-width="2" fill="none"></circle>
<circle cx="5286.11" cy="338.745" r="4" stroke="rgb(255,229,0)" stroke-width="2" fill="none"></circle>
<circle cx="1475.41" cy="1253.84" r="4" stroke="rgb(255,0,93)" stroke-width="2" fill="none"></circle>
<circle cx="5839.84" cy="773.893" r="4" stroke="rgb(255,0,93)" stroke-width="2" fill="none"></circle>
<circle cx="1727.61" cy="1166.64" r="4" stroke="rgb(4,0,255)" stroke-width="2" fill="none"></circle>
<circle cx="5290.14" cy="356.62" r="4" stroke="rgb(4,0,255)" stroke-width="2" fill="none"></circle>
<circle cx="2545.04" cy="1853.03" r="4" stroke="rgb(255,187,0)" stroke-width="2" fill="none"></circle>
<circle cx="5605.63" cy="369.298" r="4" stroke="rgb(255,187,0)" stroke-width="2" fill="none"></circle>
<circle cx="1261.95" cy="762.517" r="4" stroke="rgb(255,0,178)" stroke-width="2" fill="none"></circle>
<circle cx="5141.9" cy="788.667" r="4" stroke="rgb(255,0,178)" stroke-width="2" fill="none"></circle>
<circle cx="1685.12" cy="1595.54" r="4" stroke="rgb(255,0,174)" stroke-width="2" fill="none"></circle>
<circle cx="5543.16" cy="359.238" r="4" stroke="rgb(255,0,174)" stroke-width="2" fill="none"></circle>
<circle cx="1685.12" cy="1595.54" r="4" stroke="rgb(0,89,255)" stroke-width="2" fill="none"></circle>
<circle cx="5543.16" cy="359.238" r="4" stroke="rgb(0,89,255)" stroke-width="2" fill="none"></circle>
<circle cx="2562.37" cy="1921.23" r="4" stroke="rgb(255,182,0)" stroke-width="2" fill="none"></circle>
<circle cx="5974.83" cy="794.542" r="4" stroke="rgb(255,182,0)" stroke-width="2" fill="none"></circle>
<circle cx="1760.97" cy="669.409" r="4" stroke="rgb(255,0,89)" stroke-width="2" fill="none"></circle>
<circle cx="5702.88" cy="376.203" r="4" stroke="rgb(255,0,89)" stroke-width="2" fill="none"></circle>
<circle cx="1802.7" cy="857.056" r="4" stroke="rgb(255,0,242)" stroke-width="2" fill="none"></circle>
<circle cx="5591.95" cy="377.931" r="4" stroke="rgb(255,0,242)" stroke-width="2" fill="none"></circle>
<circle cx="1475.41" cy="1253.84" r="4" stroke="rgb(255,0,161)" stroke-width="2" fill="none"></circle>
<circle cx="5530.95" cy="803.87" r="4" stroke="rgb(255,0,161)" stroke-width="2" fill="none"></circle>
<circle cx="725.168" cy="2074.38" r="4" stroke="rgb(0,255,33)" stroke-width="2" fill="none"></circle>
<circle cx="5906.09" cy="805.218" r="4" stroke="rgb(0,255,33)" stroke-width="2" fill="none"></circle>
<circle cx="2461.57" cy="1435.56" r="4" stroke="rgb(255,0,76)" stroke-width="2" fill="none"></circle>
<circle cx="5132.22" cy="1001.97" r="4" stroke="rgb(255,0,76)" stroke-width="2" fill="none"></circle>
<circle cx="1722.06" cy="870.023" r="4" stroke="rgb(0,187,255)" stroke-width="2" fill="none"></circle>
<circle cx="5614.21" cy="430.891" r="4" stroke="rgb(0,187,255)" stroke-width="2" fill="none"></circle>
<circle cx="2604.98" cy="1524.7" r="4" stroke="rgb(255,17,0)" stroke-width="2" fill="none"></circle>
<circle cx="5859.91" cy="815.679" r="4" stroke="rgb(255,17,0)" stroke-width="2" fill="none"></circle>
<circle cx="2221.21" cy="1388.33" r="4" stroke="rgb(255,0,76)" stroke-width="2" fill="none"></circle>
<circle cx="5750.2" cy="437.836" r="4" stroke="rgb(255,0,76)" stroke-width="2" fill="none"></circle>
<circle cx="1751.92" cy="544.467" r="4" stroke="rgb(0,255,8)" stroke-width="2" fill="none"></circle>
<circle cx="5593.2" cy="414.379" r="4" stroke="rgb(0,255,8)" stroke-width="2" fill="none"></circle>
<circle cx="1751.92" cy="544.467" r="4" stroke="rgb(161,255,0)" stroke-width="2" fill="none"></circle>
<circle cx="5593.2" cy="414.379" r="4" stroke="rgb(161,255,0)" stroke-width="2" fill="none"></circle>
<circle cx="1555.29" cy="1972.03" r="4" stroke="rgb(255,148,0)" stroke-width="2" fill="none"></circle>
<circle cx="5049.21" cy="1046.66" r="4" stroke="rgb(255,148,0)" stroke-width="2" fill="none"></circle>
<circle cx="1647.93" cy="1202.7" r="4" stroke="rgb(0,255,89)" stroke-width="2" fill="none"></circle>
<circle cx="5155.49" cy="828.459" r="4" stroke="rgb(0,255,89)" stroke-width="2" fill="none"></circle>
<circle cx="1698.89" cy="864.368" r="4" stroke="rgb(144,255,0)" stroke-width="2" fill="none"></circle>
<circle cx="5582.24" cy="425.431" r="4" stroke="rgb(144,255,0)" stroke-width="2" fill="none"></circle>
<circle cx="2479.76" cy="1570.04" r="4" stroke="rgb(255,0,169)" stroke-width="2" fill="none"></circle>
<circle cx="6723.24" cy="458.049" r="4" stroke="rgb(255,0,169)" stroke-width="2" fill="none"></circle>
<circle cx="1368.1" cy="317.99" r="4" stroke="rgb(0,144,255)" stroke-width="2" fill="none"></circle>
<circle cx="6783.98" cy="431.938" r="4" stroke="rgb(0,144,255)" stroke-width="2" fill="none"></circle>
<circle cx="1706.9" cy="605.002" r="4" stroke="rgb(0,255,178)" stroke-width="2" fill="none"></circle>
<circle cx="5804" cy="1068.3" r="4" stroke="rgb(0,255,178)" stroke-width="2" fill="none"></circle>
<circle cx="2286.8" cy="1388.53" r="4" stroke="rgb(0,89,255)" stroke-width="2" fill="none"></circle>
<circle cx="6070.19" cy="1483.53" r="4" stroke="rgb(0,89,255)" stroke-width="2" fill="none"></circle>
<circle cx="2550.44" cy="1044.24" r="4" stroke="rgb(0,178,255)" stroke-width="2" fill="none"></circle>
<circle cx="5802.71" cy="850.493" r="4" stroke="rgb(0,178,255)" stroke-width="2" fill="none"></circle>
<circle cx="1261.95" cy="762.517" r="4" stroke="rgb(203,255,0)" stroke-width="2" fill="none"></circle>
<circle cx="5271.09" cy="1506.38" r="4" stroke="rgb(203,255,0)" stroke-width="2" fill="none"></circle>
<circle cx="2354.91" cy="1770.17" r="4" stroke="rgb(0,46,255)" stroke-width="2" fill="none"></circle>
<circle cx="5142.3" cy="1122.91" r="4" stroke="rgb(0,46,255)" stroke-width="2" fill="none"></circle>
<circle cx="1710.22" cy="953.61" r="4" stroke="rgb(0,89,255)" stroke-width="2" fill="none"></circle>
<circle cx="5752.42" cy="512.587" r="4" stroke="rgb(0,89,255)" stroke-width="2" fill="none"></circle>
<circle cx="2580.84" cy="1657.11" r="4" stroke="rgb(102,0,255)" stroke-width="2" fill="none"></circle>
<circle cx="5756.41" cy="516.721" r="4" stroke="rgb(102,0,255)" stroke-width="2" fill="none"></circle>
<circle cx="1710.92" cy="905.842" r="4" stroke="rgb(0,255,123)" stroke-width="2" fill="none"></circle>
<circle cx="5610.14" cy="463.531" r="4" stroke="rgb(0,255,123)" stroke-width="2" fill="none"></circle>
<circle cx="1034.1" cy="2073.13" r="4" stroke="rgb(0,255,110)" stroke-width="2" fill="none"></circle>
<circle cx="5540.38" cy="2434.68" r="4" stroke="rgb(0,255,110)" stroke-width="2" fill="none"></circle>
<circle cx="2479.76" cy="1570.04" r="4" stroke="rgb(8,0,255)" stroke-width="2" fill="none"></circle>
<circle cx="6724.93" cy="471.182" r="4" stroke="rgb(8,0,255)" stroke-width="2" fill="none"></circle>
<circle cx="2545.04" cy="1853.03" r="4" stroke="rgb(93,0,255)" stroke-width="2" fill="none"></circle>
<circle cx="5804.13" cy="545.002" r="4" stroke="rgb(93,0,255)" stroke-width="2" fill="none"></circle>
<circle cx="2479.76" cy="1570.04" r="4" stroke="rgb(0,212,255)" stroke-width="2" fill="none"></circle>
<circle cx="6715.58" cy="472.107" r="4" stroke="rgb(0,212,255)" stroke-width="2" fill="none"></circle>
<circle cx="1903.26" cy="1678.57" r="4" stroke="rgb(199,255,0)" stroke-width="2" fill="none"></circle>
<circle cx="6674.4" cy="908.526" r="4" stroke="rgb(199,255,0)" stroke-width="2" fill="none"></circle>
<circle cx="2580.84" cy="1657.11" r="4" stroke="rgb(0,80,255)" stroke-width="2" fill="none"></circle>
<circle cx="5512.56" cy="484.382" r="4" stroke="rgb(0,80,255)" stroke-width="2" fill="none"></circle>
<circle cx="1159.21" cy="319.908" r="4" stroke="rgb(174,0,255)" stroke-width="2" fill="none"></circle>
<circle cx="5009.63" cy="578.745" r="4" stroke="rgb(174,0,255)" stroke-width="2" fill="none"></circle>
<circle cx="1501.87" cy="604.565" r="4" stroke="rgb(16,255,0)" stroke-width="2" fill="none"></circle>
<circle cx="5334.86" cy="589.208" r="4" stroke="rgb(16,255,0)" stroke-width="2" fill="none"></circle>
<circle cx="1717.83" cy="873.769" r="4" stroke="rgb(0,169,255)" stroke-width="2" fill="none"></circle>
<circle cx="5516.34" cy="545.019" r="4" stroke="rgb(0,169,255)" stroke-width="2" fill="none"></circle>
<circle cx="1717.54" cy="782.851" r="4" stroke="rgb(0,67,255)" stroke-width="2" fill="none"></circle>
<circle cx="5786.01" cy="547.328" r="4" stroke="rgb(0,67,255)" stroke-width="2" fill="none"></circle>
<circle cx="1722.06" cy="870.023" r="4" stroke="rgb(255,0,208)" stroke-width="2" fill="none"></circle>
<circle cx="5511.53" cy="550.175" r="4" stroke="rgb(255,0,208)" stroke-width="2" fill="none"></circle>
<circle cx="1722.06" cy="870.023" r="4" stroke="rgb(255,0,131)" stroke-width="2" fill="none"></circle>
<circle cx="5511.53" cy="550.175" r="4" stroke="rgb(255,0,131)" stroke-width="2" fill="none"></circle>
<circle cx="1722.06" cy="870.023" r="4" stroke="rgb(0,140,255)" stroke-width="2" fill="none"></circle>
<circle cx="5528.81" cy="564.253" r="4" stroke="rgb(0,140,255)" stroke-width="2" fill="none"></circle>
<circle cx="1722.06" cy="870.023" r="4" stroke="rgb(0,255,114)" stroke-width="2" fill="none"></circle>
<circle cx="5528.81" cy="564.253" r="4" stroke="rgb(0,255,114)" stroke-width="2" fill="none"></circle>
<circle cx="1815.41" cy="858.136" r="4" stroke="rgb(255,0,114)" stroke-width="2" fill="none"></circle>
<circle cx="5793.9" cy="568.044" r="4" stroke="rgb(255,0,114)" stroke-width="2" fill="none"></circle>
<circle cx="810.08" cy="1917.49" r="4" stroke="rgb(250,255,0)" stroke-width="2" fill="none"></circle>
<circle cx="5693.5" cy="663.832" r="4" stroke="rgb(250,255,0)" stroke-width="2" fill="none"></circle>
<circle cx="2545.04" cy="1853.03" r="4" stroke="rgb(127,0,255)" stroke-width="2" fill="none"></circle>
<circle cx="5683.92" cy="592.581" r="4" stroke="rgb(127,0,255)" stroke-width="2" fill="none"></circle>
<circle cx="2479.76" cy="1570.04" r="4" stroke="rgb(199,0,255)" stroke-width="2" fill="none"></circle>
<circle cx="5514.89" cy="675.26" r="4" stroke="rgb(199,0,255)" stroke-width="2" fill="none"></circle>
<circle cx="1509.22" cy="1610.87" r="4" stroke="rgb(97,255,0)" stroke-width="2" fill="none"></circle>
<circle cx="6037.37" cy="1455.03" r="4" stroke="rgb(97,255,0)" stroke-width="2" fill="none"></circle>
<circle cx="2593.94" cy="1397.28" r="4" stroke="rgb(182,0,255)" stroke-width="2" fill="none"></circle>
<circle cx="5978.96" cy="1708.44" r="4" stroke="rgb(182,0,255)" stroke-width="2" fill="none"></circle>
<circle cx="1804.08" cy="974.992" r="4" stroke="rgb(21,0,255)" stroke-width="2" fill="none"></circle>
<circle cx="5646.69" cy="601.117" r="4" stroke="rgb(21,0,255)" stroke-width="2" fill="none"></circle>
<circle cx="1804.08" cy="974.992" r="4" stroke="rgb(255,242,0)" stroke-width="2" fill="none"></circle>
<circle cx="5646.69" cy="601.117" r="4" stroke="rgb(255,242,0)" stroke-width="2" fill="none"></circle>
<circle cx="2479.76" cy="1570.04" r="4" stroke="rgb(255,4,0)" stroke-width="2" fill="none"></circle>
<circle cx="5547.6" cy="680.946" r="4" stroke="rgb(255,4,0)" stroke-width="2" fill="none"></circle>
<circle cx="2587.62" cy="1010.41" r="4" stroke="rgb(255,199,0)" stroke-width="2" fill="none"></circle>
<circle cx="6668.03" cy="1459.32" r="4" stroke="rgb(255,199,0)" stroke-width="2" fill="none"></circle>
<circle cx="2479.76" cy="1570.04" r="4" stroke="rgb(157,0,255)" stroke-width="2" fill="none"></circle>
<circle cx="5564.68" cy="697.341" r="4" stroke="rgb(157,0,255)" stroke-width="2" fill="none"></circle>
<circle cx="1744.79" cy="663.975" r="4" stroke="rgb(208,255,0)" stroke-width="2" fill="none"></circle>
<circle cx="5682.43" cy="372.959" r="4" stroke="rgb(208,255,0)" stroke-width="2" fill="none"></circle>
<circle cx="1813.1" cy="588.128" r="4" stroke="rgb(255,0,38)" stroke-width="2" fill="none"></circle>
<circle cx="5599.02" cy="375.919" r="4" stroke="rgb(255,0,38)" stroke-width="2" fill="none"></circle>
<circle cx="1514.51" cy="1451.47" r="4" stroke="rgb(255,76,0)" stroke-width="2" fill="none"></circle>
<circle cx="4783.9" cy="636.549" r="4" stroke="rgb(255,76,0)" stroke-width="2" fill="none"></circle>
<circle cx="1369.26" cy="980.224" r="4" stroke="rgb(212,0,255)" stroke-width="2" fill="none"></circle>
<circle cx="5122.69" cy="1740.82" r="4" stroke="rgb(212,0,255)" stroke-width="2" fill="none"></circle>
<circle cx="1722.06" cy="870.023" r="4" stroke="rgb(67,0,255)" stroke-width="2" fill="none"></circle>
<circle cx="5430.35" cy="390.276" r="4" stroke="rgb(67,0,255)" stroke-width="2" fill="none"></circle>
<circle cx="1163.17" cy="866.466" r="4" stroke="rgb(0,255,199)" stroke-width="2" fill="none"></circle>
<circle cx="5625.73" cy="669.556" r="4" stroke="rgb(0,255,199)" stroke-width="2" fill="none"></circle>
<circle cx="1555.29" cy="1972.03" r="4" stroke="rgb(187,255,0)" stroke-width="2" fill="none"></circle>
<circle cx="5224.12" cy="1542.52" r="4" stroke="rgb(187,255,0)" stroke-width="2" fill="none"></circle>
<circle cx="2558.29" cy="1590.05" r="4" stroke="rgb(0,255,76)" stroke-width="2" fill="none"></circle>
<circle cx="5472.66" cy="428.393" r="4" stroke="rgb(0,255,76)" stroke-width="2" fill="none"></circle>
<circle cx="1837.31" cy="785.327" r="4" stroke="rgb(216,255,0)" stroke-width="2" fill="none"></circle>
<circle cx="5689.7" cy="433.963" r="4" stroke="rgb(216,255,0)" stroke-width="2" fill="none"></circle>
<circle cx="1475.41" cy="1253.84" r="4" stroke="rgb(114,0,255)" stroke-width="2" fill="none"></circle>
<circle cx="5540.51" cy="803.635" r="4" stroke="rgb(114,0,255)" stroke-width="2" fill="none"></circle>
<circle cx="1717.83" cy="873.769" r="4" stroke="rgb(157,255,0)" stroke-width="2" fill="none"></circle>
<circle cx="5443.5" cy="435.957" r="4" stroke="rgb(157,255,0)" stroke-width="2" fill="none"></circle>
<circle cx="2513.76" cy="1781.71" r="4" stroke="rgb(0,255,178)" stroke-width="2" fill="none"></circle>
<circle cx="6190.17" cy="1819.71" r="4" stroke="rgb(0,255,178)" stroke-width="2" fill="none"></circle>
<circle cx="1722.06" cy="870.023" r="4" stroke="rgb(255,255,0)" stroke-width="2" fill="none"></circle>
<circle cx="5437.23" cy="441.571" r="4" stroke="rgb(255,255,0)" stroke-width="2" fill="none"></circle>
<circle cx="1722.06" cy="870.023" r="4" stroke="rgb(203,255,0)" stroke-width="2" fill="none"></circle>
<circle cx="5437.23" cy="441.571" r="4" stroke="rgb(203,255,0)" stroke-width="2" fill="none"></circle>
<circle cx="1511.11" cy="1828" r="4" stroke="rgb(255,12,0)" stroke-width="2" fill="none"></circle>
<circle cx="5180.93" cy="450.097" r="4" stroke="rgb(255,12,0)" stroke-width="2" fill="none"></circle>
<circle cx="1764.34" cy="2009.9" r="4" stroke="rgb(0,255,157)" stroke-width="2" fill="none"></circle>
<circle cx="7042.86" cy="850.103" r="4" stroke="rgb(0,255,157)" stroke-width="2" fill="none"></circle>
<circle cx="1710.92" cy="905.842" r="4" stroke="rgb(255,97,0)" stroke-width="2" fill="none"></circle>
<circle cx="5610.26" cy="462.95" r="4" stroke="rgb(255,97,0)" stroke-width="2" fill="none"></circle>
<circle cx="1685.12" cy="1595.54" r="4" stroke="rgb(255,0,119)" stroke-width="2" fill="none"></circle>
<circle cx="5730.15" cy="520.186" r="4" stroke="rgb(255,0,119)" stroke-width="2" fill="none"></circle>
<circle cx="1685.12" cy="1595.54" r="4" stroke="rgb(0,17,255)" stroke-width="2" fill="none"></circle>
<circle cx="5730.15" cy="520.186" r="4" stroke="rgb(0,17,255)" stroke-width="2" fill="none"></circle>
<circle cx="2545.04" cy="1853.03" r="4" stroke="rgb(0,255,212)" stroke-width="2" fill="none"></circle>
<circle cx="5779.98" cy="521.614" r="4" stroke="rgb(0,255,212)" stroke-width="2" fill="none"></circle>
<circle cx="2530.49" cy="1816.85" r="4" stroke="rgb(0,255,242)" stroke-width="2" fill="none"></circle>
<circle cx="5529.94" cy="543.777" r="4" stroke="rgb(0,255,242)" stroke-width="2" fill="none"></circle>
<circle cx="2615.03" cy="1408.08" r="4" stroke="rgb(242,0,255)" stroke-width="2" fill="none"></circle>
<circle cx="5458.8" cy="561.804" r="4" stroke="rgb(242,0,255)" stroke-width="2" fill="none"></circle>
<circle cx="1717.83" cy="873.769" r="4" stroke="rgb(255,0,204)" stroke-width="2" fill="none"></circle>
<circle cx="5524.11" cy="570.616" r="4" stroke="rgb(255,0,204)" stroke-width="2" fill="none"></circle>
<circle cx="2295.47" cy="1830.45" r="4" stroke="rgb(67,255,0)" stroke-width="2" fill="none"></circle>
<circle cx="5366.05" cy="1721.79" r="4" stroke="rgb(67,255,0)" stroke-width="2" fill="none"></circle>
<circle cx="1700.62" cy="444.382" r="4" stroke="rgb(255,144,0)" stroke-width="2" fill="none"></circle>
<circle cx="5650.17" cy="578.795" r="4" stroke="rgb(255,144,0)" stroke-width="2" fill="none"></circle>
<circle cx="1753.86" cy="492.431" r="4" stroke="rgb(55,255,0)" stroke-width="2" fill="none"></circle>
<circle cx="5659.07" cy="590.613" r="4" stroke="rgb(55,255,0)" stroke-width="2" fill="none"></circle>
<circle cx="1818.74" cy="975.319" r="4" stroke="rgb(0,76,255)" stroke-width="2" fill="none"></circle>
<circle cx="5667.62" cy="595.798" r="4" stroke="rgb(0,76,255)" stroke-width="2" fill="none"></circle>
<circle cx="1316.69" cy="918.442" r="4" stroke="rgb(255,0,153)" stroke-width="2" fill="none"></circle>
<circle cx="6009.29" cy="1751.14" r="4" stroke="rgb(255,0,153)" stroke-width="2" fill="none"></circle>
<circle cx="2558.72" cy="1579.98" r="4" stroke="rgb(51,255,0)" stroke-width="2" fill="none"></circle>
<circle cx="5674.86" cy="619.311" r="4" stroke="rgb(51,255,0)" stroke-width="2" fill="none"></circle>
<circle cx="1670.74" cy="1666.75" r="4" stroke="rgb(123,0,255)" stroke-width="2" fill="none"></circle>
<circle cx="5474.13" cy="638.754" r="4" stroke="rgb(123,0,255)" stroke-width="2" fill="none"></circle>
<circle cx="1028.65" cy="1934.99" r="4" stroke="rgb(29,255,0)" stroke-width="2" fill="none"></circle>
<circle cx="6454.21" cy="668.545" r="4" stroke="rgb(29,255,0)" stroke-width="2" fill="none"></circle>
<circle cx="2599.03" cy="820.692" r="4" stroke="rgb(0,255,250)" stroke-width="2" fill="none"></circle>
<circle cx="5135.41" cy="1861.07" r="4" stroke="rgb(0,255,250)" stroke-width="2" fill="none"></circle>
<circle cx="1261.95" cy="762.517" r="4" stroke="rgb(89,0,255)" stroke-width="2" fill="none"></circle>
<circle cx="5397.46" cy="2445.96" r="4" stroke="rgb(89,0,255)" stroke-width="2" fill="none"></circle>
<circle cx="1601.14" cy="1818.39" r="4" stroke="rgb(255,12,0)" stroke-width="2" fill="none"></circle>
<circle cx="5101.72" cy="725.977" r="4" stroke="rgb(255,12,0)" stroke-width="2" fill="none"></circle>
<circle cx="1601.14" cy="1818.39" r="4" stroke="rgb(255,0,76)" stroke-width="2" fill="none"></circle>
<circle cx="5101.72" cy="725.977" r="4" stroke="rgb(255,0,76)" stroke-width="2" fill="none"></circle>
<circle cx="1810.28" cy="478.755" r="4" stroke="rgb(0,255,157)" stroke-width="2" fill="none"></circle>
<circle cx="5476.78" cy="345.574" r="4" stroke="rgb(0,255,157)" stroke-width="2" fill="none"></circle>
<circle cx="2606.98" cy="1634.25" r="4" stroke="rgb(0,255,216)" stroke-width="2" fill="none"></circle>
<circle cx="5588.34" cy="1463.45" r="4" stroke="rgb(0,255,216)" stroke-width="2" fill="none"></circle>
<circle cx="1900" cy="578.608" r="4" stroke="rgb(212,0,255)" stroke-width="2" fill="none"></circle>
<circle cx="5741.72" cy="466.417" r="4" stroke="rgb(212,0,255)" stroke-width="2" fill="none"></circle>
<circle cx="1855.67" cy="656.842" r="4" stroke="rgb(0,255,199)" stroke-width="2" fill="none"></circle>
<circle cx="5480.81" cy="451.452" r="4" stroke="rgb(0,255,199)" stroke-width="2" fill="none"></circle>
<circle cx="2545.04" cy="1853.03" r="4" stroke="rgb(33,255,0)" stroke-width="2" fill="none"></circle>
<circle cx="6587.84" cy="1303.57" r="4" stroke="rgb(33,255,0)" stroke-width="2" fill="none"></circle>
<circle cx="2580.84" cy="1657.11" r="4" stroke="rgb(216,255,0)" stroke-width="2" fill="none"></circle>
<circle cx="4820.25" cy="900.068" r="4" stroke="rgb(216,255,0)" stroke-width="2" fill="none"></circle>
<circle cx="1804.47" cy="931.988" r="4" stroke="rgb(0,255,12)" stroke-width="2" fill="none"></circle>
<circle cx="5626.1" cy="543.965" r="4" stroke="rgb(0,255,12)" stroke-width="2" fill="none"></circle>
<circle cx="1841.61" cy="718.226" r="4" stroke="rgb(148,0,255)" stroke-width="2" fill="none"></circle>
<circle cx="5494.7" cy="614.278" r="4" stroke="rgb(148,0,255)" stroke-width="2" fill="none"></circle>
<circle cx="2432.61" cy="1622.66" r="4" stroke="rgb(0,255,42)" stroke-width="2" fill="none"></circle>
<circle cx="5229.21" cy="1063.69" r="4" stroke="rgb(0,255,42)" stroke-width="2" fill="none"></circle>
<circle cx="1753.86" cy="492.431" r="4" stroke="rgb(0,191,255)" stroke-width="2" fill="none"></circle>
<circle cx="5659.36" cy="590.123" r="4" stroke="rgb(0,191,255)" stroke-width="2" fill="none"></circle>
<circle cx="1858.58" cy="718.472" r="4" stroke="rgb(161,0,255)" stroke-width="2" fill="none"></circle>
<circle cx="5529.6" cy="602.418" r="4" stroke="rgb(161,0,255)" stroke-width="2" fill="none"></circle>
<circle cx="1852.03" cy="723.599" r="4" stroke="rgb(199,0,255)" stroke-width="2" fill="none"></circle>
<circle cx="5520.15" cy="621.755" r="4" stroke="rgb(199,0,255)" stroke-width="2" fill="none"></circle>
<circle cx="1647.93" cy="1202.7" r="4" stroke="rgb(0,93,255)" stroke-width="2" fill="none"></circle>
<circle cx="5851.14" cy="823.012" r="4" stroke="rgb(0,93,255)" stroke-width="2" fill="none"></circle>
<circle cx="1453.11" cy="1350.93" r="4" stroke="rgb(0,255,8)" stroke-width="2" fill="none"></circle>
<circle cx="5885.88" cy="2135.36" r="4" stroke="rgb(0,255,8)" stroke-width="2" fill="none"></circle>
<circle cx="2227.12" cy="2026.82" r="4" stroke="rgb(0,255,182)" stroke-width="2" fill="none"></circle>
<circle cx="4978.58" cy="2142.8" r="4" stroke="rgb(0,255,182)" stroke-width="2" fill="none"></circle>
<circle cx="1691.15" cy="1788.48" r="4" stroke="rgb(85,0,255)" stroke-width="2" fill="none"></circle>
<circle cx="7062.86" cy="857.164" r="4" stroke="rgb(85,0,255)" stroke-width="2" fill="none"></circle>
<circle cx="1626.35" cy="1174.66" r="4" stroke="rgb(0,255,216)" stroke-width="2" fill="none"></circle>
<circle cx="6896.43" cy="2089.23" r="4" stroke="rgb(0,255,216)" stroke-width="2" fill="none"></circle>
<circle cx="1520.76" cy="446.08" r="4" stroke="rgb(84,255,0)" stroke-width="2" fill="none"></circle>
<circle cx="6268.43" cy="2564.08" r="4" stroke="rgb(84,255,0)" stroke-width="2" fill="none"></circle>
<circle cx="1233.84" cy="604.142" r="4" stroke="rgb(148,255,0)" stroke-width="2" fill="none"></circle>
<circle cx="5122.38" cy="2587.97" r="4" stroke="rgb(148,255,0)" stroke-width="2" fill="none"></circle>
<circle cx="1165.57" cy="898.667" r="4" stroke="rgb(148,0,255)" stroke-width="2" fill="none"></circle>
<circle cx="4960.41" cy="524.419" r="4" stroke="rgb(148,0,255)" stroke-width="2" fill="none"></circle>
<circle cx="2563.71" cy="1048.52" r="4" stroke="rgb(255,29,0)" stroke-width="2" fill="none"></circle>
<circle cx="6532.92" cy="2098.67" r="4" stroke="rgb(255,29,0)" stroke-width="2" fill="none"></circle>
<circle cx="2354.75" cy="2012.91" r="4" stroke="rgb(0,203,255)" stroke-width="2" fill="none"></circle>
<circle cx="6549.35" cy="2388.27" r="4" stroke="rgb(0,203,255)" stroke-width="2" fill="none"></circle>
<circle cx="1667.4" cy="405.684" r="4" stroke="rgb(0,255,72)" stroke-width="2" fill="none"></circle>
<circle cx="7021.64" cy="1685.81" r="4" stroke="rgb(0,255,72)" stroke-width="2" fill="none"></circle>
</svg>