<?xml version="1.0" standalone="yes"?>
<!-- SVG graphic -->
<svg xmlns='http://www.w3.org/2000/svg' xmlns:xlink='http://www.w3.org/1999/xlink'
width="8064px" height="3024px" preserveAspectRatio="xMinYMin meet" viewBox="0 0 8064 3024" version="1.1">
<image x="0" y="0" width="4032px" height="3024px" opacity="1" xlink:href="/home/jeong/Code/2D-to-3D-Modeling-using-AI/Make3D/Image/20200227_180708.jpg"/>
<image x="4032" y="0" width="4032px" height="3024px" opacity="1" xlink:href="/home/jeong/Code/2D-to-3D-Modeling-using-AI/Make3D/Image/20200227_180731.jpg"/>
<polyline points="1114.99,2095.12,6021.99,598.04" stroke="rgb(242,0,255)" stroke-width="2" fill="none"></polyline>
<polyline points="1546.3,1982.59,6160.42,2640.52" stroke="rgb(0,255,110)" stroke-width="2" fill="none"></polyline>
<polyline points="1285.09,568.815,5901.46,2708.12" stroke="rgb(0,114,255)" stroke-width="2" fill="none"></polyline>
<polyline points="1242.79,344.77,5441.97,709.257" stroke="rgb(0,255,29)" stroke-width="2" fill="none"></polyline>
<polyline points="2254.97,2147.81,6184.32,707.992" stroke="rgb(110,255,0)" stroke-width="2" fill="none"></polyline>
<polyline points="2413.46,1782.63,5880.47,794.24" stroke="rgb(255,242,0)" stroke-width="2" fill="none"></polyline>
<polyline points="2245.41,792.595,5429.9,820.091" stroke="rgb(0,187,255)" stroke-width="2" fill="none"></polyline>
<polyline points="1410.93,903.566,6074.79,853.751" stroke="rgb(255,225,0)" stroke-width="2" fill="none"></polyline>
<polyline points="1389.53,379.904,5360.74,837.659" stroke="rgb(242,255,0)" stroke-width="2" fill="none"></polyline>
<polyline points="1366.85,931.088,6555.53,1983.46" stroke="rgb(178,255,0)" stroke-width="2" fill="none"></polyline>
<polyline points="1410.93,903.566,6014.84,889.356" stroke="rgb(0,255,110)" stroke-width="2" fill="none"></polyline>
<polyline points="972.693,1987.5,6028.47,788.606" stroke="rgb(255,0,144)" stroke-width="2" fill="none"></polyline>
<polyline points="1285.09,568.815,6249.99,1259.61" stroke="rgb(229,0,255)" stroke-width="2" fill="none"></polyline>
<polyline points="1659.35,2043.21,6077.81,844.117" stroke="rgb(255,55,0)" stroke-width="2" fill="none"></polyline>
<polyline points="1659.35,2043.21,6077.81,844.117" stroke="rgb(255,0,55)" stroke-width="2" fill="none"></polyline>
<polyline points="1342.34,1567.19,6159.03,1379.52" stroke="rgb(0,229,255)" stroke-width="2" fill="none"></polyline>
<polyline points="2060.83,1497,5364.62,1048.12" stroke="rgb(216,0,255)" stroke-width="2" fill="none"></polyline>
<polyline points="1218.22,366.873,6567.2,2007.99" stroke="rgb(255,0,242)" stroke-width="2" fill="none"></polyline>
<polyline points="1771.91,1647.51,6095.71,1135.94" stroke="rgb(255,8,0)" stroke-width="2" fill="none"></polyline>
<polyline points="914.786,2026.9,6092.5,1209.06" stroke="rgb(255,0,191)" stroke-width="2" fill="none"></polyline>
<polyline points="1285.09,568.815,6267.75,1537.17" stroke="rgb(255,17,0)" stroke-width="2" fill="none"></polyline>
<polyline points="1456.1,1420.69,6254.46,1387.95" stroke="rgb(0,199,255)" stroke-width="2" fill="none"></polyline>
<polyline points="1366.85,931.088,6295.07,1475.71" stroke="rgb(0,255,229)" stroke-width="2" fill="none"></polyline>
<polyline points="1456.1,1420.69,6220.35,1517.9" stroke="rgb(250,255,0)" stroke-width="2" fill="none"></polyline>
<polyline points="1366.85,931.088,6256.1,1555.06" stroke="rgb(0,76,255)" stroke-width="2" fill="none"></polyline>
<polyline points="1659.35,2043.21,6072.48,1201.79" stroke="rgb(85,0,255)" stroke-width="2" fill="none"></polyline>
<polyline points="1545.72,911.036,5736.02,1392.51" stroke="rgb(255,0,165)" stroke-width="2" fill="none"></polyline>
<polyline points="1325.91,1974.65,5919.52,1538.94" stroke="rgb(0,187,255)" stroke-width="2" fill="none"></polyline>
<polyline points="1409.35,409.584,5599.03,612.223" stroke="rgb(255,0,33)" stroke-width="2" fill="none"></polyline>
<polyline points="2435.59,1507.68,6169.25,1931.94" stroke="rgb(0,255,140)" stroke-width="2" fill="none"></polyline>
<polyline points="1320.6,1180.81,6669.94,1008.5" stroke="rgb(135,0,255)" stroke-width="2" fill="none"></polyline>
<polyline points="1586.78,1806.52,5703.03,815.251" stroke="rgb(0,255,174)" stroke-width="2" fill="none"></polyline>
<polyline points="1601.69,2168.94,6207.28,1190.3" stroke="rgb(254,0,255)" stroke-width="2" fill="none"></polyline>
<polyline points="1659.35,2043.21,6176.55,1196.06" stroke="rgb(0,255,21)" stroke-width="2" fill="none"></polyline>
<polyline points="1659.35,2043.21,6176.55,1196.06" stroke="rgb(0,255,169)" stroke-width="2" fill="none"></polyline>
<polyline points="1279.33,2332.91,6114.48,1023.56" stroke="rgb(110,0,255)" stroke-width="2" fill="none"></polyline>
<polyline points="1409.4,520.748,5774.61,1421.22" stroke="rgb(255,233,0)" stroke-width="2" fill="none"></polyline>
<polyline points="1659.35,2043.21,6287.45,1486.49" stroke="rgb(255,0,17)" stroke-width="2" fill="none"></polyline>
<polyline points="1659.35,2043.21,6287.45,1486.49" stroke="rgb(255,0,169)" stroke-width="2" fill="none"></polyline>
<polyline points="1601.69,2168.94,6318.27,1481.47" stroke="rgb(8,255,0)" stroke-width="2" fill="none"></polyline>
<polyline points="1579.52,1228.72,5827.8,1853.28" stroke="rgb(255,0,229)" stroke-width="2" fill="none"></polyline>
<polyline points="1579.08,1092.2,5856.86,1980" stroke="rgb(255,0,93)" stroke-width="2" fill="none"></polyline>
<polyline points="1872.55,2166.06,5617.61,1040.88" stroke="rgb(255,0,187)" stroke-width="2" fill="none"></polyline>
<polyline points="1269.56,1096.78,5732.55,891.798" stroke="rgb(29,255,0)" stroke-width="2" fill="none"></polyline>
<polyline points="2464.25,1599.2,6591.21,968.117" stroke="rgb(0,72,255)" stroke-width="2" fill="none"></polyline>
<polyline points="1442.38,978.025,6166.58,1239.73" stroke="rgb(0,255,233)" stroke-width="2" fill="none"></polyline>
<circle cx="1114.99" cy="2095.12" r="4" stroke="rgb(242,0,255)" stroke-width="2" fill="none"></circle>
<circle cx="6021.99" cy="598.04" r="4" stroke="rgb(242,0,255)" stroke-width="2" fill="none"></circle>
<circle cx="1546.3" cy="1982.59" r="4" stroke="rgb(0,255,110)" stroke-width="2" fill="none"></circle>
<circle cx="6160.42" cy="2640.52" r="4" stroke="rgb(0,255,110)" stroke-width="2" fill="none"></circle>
<circle cx="1285.09" cy="568.815" r="4" stroke="rgb(0,114,255)" stroke-width="2" fill="none"></circle>
<circle cx="5901.46" cy="2708.12" r="4" stroke="rgb(0,114,255)" stroke-width="2" fill="none"></circle>
<circle cx="1242.79" cy="344.77" r="4" stroke="rgb(0,255,29)" stroke-width="2" fill="none"></circle>
<circle cx="5441.97" cy="709.257" r="4" stroke="rgb(0,255,29)" stroke-width="2" fill="none"></circle>
<circle cx="2254.97" cy="2147.81" r="4" stroke="rgb(110,255,0)" stroke-width="2" fill="none"></circle>
<circle cx="6184.32" cy="707.992" r="4" stroke="rgb(110,255,0)" stroke-width="2" fill="none"></circle>
<circle cx="2413.46" cy="1782.63" r="4" stroke="rgb(255,242,0)" stroke-width="2" fill="none"></circle>
<circle cx="5880.47" cy="794.24" r="4" stroke="rgb(255,242,0)" stroke-width="2" fill="none"></circle>
<circle cx="2245.41" cy="792.595" r="4" stroke="rgb(0,187,255)" stroke-width="2" fill="none"></circle>
<circle cx="5429.9" cy="820.091" r="4" stroke="rgb(0,187,255)" stroke-width="2" fill="none"></circle>
<circle cx="1410.93" cy="903.566" r="4" stroke="rgb(255,225,0)" stroke-width="2" fill="none"></circle>
<circle cx="6074.79" cy="853.751" r="4" stroke="rgb(255,225,0)" stroke-width="2" fill="none"></circle>
<circle cx="1389.53" cy="379.904" r="4" stroke="rgb(242,255,0)" stroke-width="2" fill="none"></circle>
<circle cx="5360.74" cy="837.659" r="4" stroke="rgb(242,255,0)" stroke-width="2" fill="none"></circle>
<circle cx="1366.85" cy="931.088" r="4" stroke="rgb(178,255,0)" stroke-width="2" fill="none"></circle>
<circle cx="6555.53" cy="1983.46" r="4" stroke="rgb(178,255,0)" stroke-width="2" fill="none"></circle>
<circle cx="1410.93" cy="903.566" r="4" stroke="rgb(0,255,110)" stroke-width="2" fill="none"></circle>
<circle cx="6014.84" cy="889.356" r="4" stroke="rgb(0,255,110)" stroke-width="2" fill="none"></circle>
<circle cx="972.693" cy="1987.5" r="4" stroke="rgb(255,0,144)" stroke-width="2" fill="none"></circle>
<circle cx="6028.47" cy="788.606" r="4" stroke="rgb(255,0,144)" stroke-width="2" fill="none"></circle>
<circle cx="1285.09" cy="568.815" r="4" stroke="rgb(229,0,255)" stroke-width="2" fill="none"></circle>
<circle cx="6249.99" cy="1259.61" r="4" stroke="rgb(229,0,255)" stroke-width="2" fill="none"></circle>
<circle cx="1659.35" cy="2043.21" r="4" stroke="rgb(255,55,0)" stroke-width="2" fill="none"></circle>
<circle cx="6077.81" cy="844.117" r="4" stroke="rgb(255,55,0)" stroke-width="2" fill="none"></circle>
<circle cx="1659.35" cy="2043.21" r="4" stroke="rgb(255,0,55)" stroke-width="2" fill="none"></circle>
<circle cx="6077.81" cy="844.117" r="4" stroke="rgb(255,0,55)" stroke-width="2" fill="none"></circle>
<circle cx="1342.34" cy="1567.19" r="4" stroke="rgb(0,229,255)" stroke-width="2" fill="none"></circle>
<circle cx="6159.03" cy="1379.52" r="4" stroke="rgb(0,229,255)" stroke-width="2" fill="none"></circle>
<circle cx="2060.83" cy="1497" r="4" stroke="rgb(216,0,255)" stroke-width="2" fill="none"></circle>
<circle cx="5364.62" cy="1048.12" r="4" stroke="rgb(216,0,255)" stroke-width="2" fill="none"></circle>
<circle cx="1218.22" cy="366.873" r="4" stroke="rgb(255,0,242)" stroke-width="2" fill="none"></circle>
<circle cx="6567.2" cy="2007.99" r="4" stroke="rgb(255,0,242)" stroke-width="2" fill="none"></circle>
<circle cx="1771.91" cy="1647.51" r="4" stroke="rgb(255,8,0)" stroke-width="2" fill="none"></circle>
<circle cx="6095.71" cy="1135.94" r="4" stroke="rgb(255,8,0)" stroke-width="2" fill="none"></circle>
<circle cx="914.786" cy="2026.9" r="4" stroke="rgb(255,0,191)" stroke-width="2" fill="none"></circle>
<circle cx="6092.5" cy="1209.06" r="4" stroke="rgb(255,0,191)" stroke-width="2" fill="none"></circle>
<circle cx="1285.09" cy="568.815" r="4" stroke="rgb(255,17,0)" stroke-width="2" fill="none"></circle>
<circle cx="6267.75" cy="1537.17" r="4" stroke="rgb(255,17,0)" stroke-width="2" fill="none"></circle>
<circle cx="1456.1" cy="1420.69" r="4" stroke="rgb(0,199,255)" stroke-width="2" fill="none"></circle>
<circle cx="6254.46" cy="1387.95" r="4" stroke="rgb(0,199,255)" stroke-width="2" fill="none"></circle>
<circle cx="1366.85" cy="931.088" r="4" stroke="rgb(0,255,229)" stroke-width="2" fill="none"></circle>
<circle cx="6295.07" cy="1475.71" r="4" stroke="rgb(0,255,229)" stroke-width="2" fill="none"></circle>
<circle cx="1456.1" cy="1420.69" r="4" stroke="rgb(250,255,0)" stroke-width="2" fill="none"></circle>
<circle cx="6220.35" cy="1517.9" r="4" stroke="rgb(250,255,0)" stroke-width="2" fill="none"></circle>
<circle cx="1366.85" cy="931.088" r="4" stroke="rgb(0,76,255)" stroke-width="2" fill="none"></circle>
<circle cx="6256.1" cy="1555.06" r="4" stroke="rgb(0,76,255)" stroke-width="2" fill="none"></circle>
<circle cx="1659.35" cy="2043.21" r="4" stroke="rgb(85,0,255)" stroke-width="2" fill="none"></circle>
<circle cx="6072.48" cy="1201.79" r="4" stroke="rgb(85,0,255)" stroke-width="2" fill="none"></circle>
<circle cx="1545.72" cy="911.036" r="4" stroke="rgb(255,0,165)" stroke-width="2" fill="none"></circle>
<circle cx="5736.02" cy="1392.51" r="4" stroke="rgb(255,0,165)" stroke-width="2" fill="none"></circle>
<circle cx="1325.91" cy="1974.65" r="4" stroke="rgb(0,187,255)" stroke-width="2" fill="none"></circle>
<circle cx="5919.52" cy="1538.94" r="4" stroke="rgb(0,187,255)" stroke-width="2" fill="none"></circle>
<circle cx="1409.35" cy="409.584" r="4" stroke="rgb(255,0,33)" stroke-width="2" fill="none"></circle>
<circle cx="5599.03" cy="612.223" r="4" stroke="rgb(255,0,33)" stroke-width="2" fill="none"></circle>
<circle cx="2435.59" cy="1507.68" r="4" stroke="rgb(0,255,140)" stroke-width="2" fill="none"></circle>
<circle cx="6169.25" cy="1931.94" r="4" stroke="rgb(0,255,140)" stroke-width="2" fill="none"></circle>
<circle cx="1320.6" cy="1180.81" r="4" stroke="rgb(135,0,255)" stroke-width="2" fill="none"></circle>
<circle cx="6669.94" cy="1008.5" r="4" stroke="rgb(135,0,255)" stroke-width="2" fill="none"></circle>
<circle cx="1586.78" cy="1806.52" r="4" stroke="rgb(0,255,174)" stroke-width="2" fill="none"></circle>
<circle cx="5703.03" cy="815.251" r="4" stroke="rgb(0,255,174)" stroke-width="2" fill="none"></circle>
<circle cx="1601.69" cy="2168.94" r="4" stroke="rgb(254,0,255)" stroke-width="2" fill="none"></circle>
<circle cx="6207.28" cy="1190.3" r="4" stroke="rgb(254,0,255)" stroke-width="2" fill="none"></circle>
<circle cx="1659.35" cy="2043.21" r="4" stroke="rgb(0,255,21)" stroke-width="2" fill="none"></circle>
<circle cx="6176.55" cy="1196.06" r="4" stroke="rgb(0,255,21)" stroke-width="2" fill="none"></circle>
<circle cx="1659.35" cy="2043.21" r="4" stroke="rgb(0,255,169)" stroke-width="2" fill="none"></circle>
<circle cx="6176.55" cy="1196.06" r="4" stroke="rgb(0,255,169)" stroke-width="2" fill="none"></circle>
<circle cx="1279.33" cy="2332.91" r="4" stroke="rgb(110,0,255)" stroke-width="2" fill="none"></circle>
<circle cx="6114.48" cy="1023.56" r="4" stroke="rgb(110,0,255)" stroke-width="2" fill="none"></circle>
<circle cx="1409.4" cy="520.748" r="4" stroke="rgb(255,233,0)" stroke-width="2" fill="none"></circle>
<circle cx="5774.61" cy="1421.22" r="4" stroke="rgb(255,233,0)" stroke-width="2" fill="none"></circle>
<circle cx="1659.35" cy="2043.21" r="4" stroke="rgb(255,0,17)" stroke-width="2" fill="none"></circle>
<circle cx="6287.45" cy="1486.49" r="4" stroke="rgb(255,0,17)" stroke-width="2" fill="none"></circle>
<circle cx="1659.35" cy="2043.21" r="4" stroke="rgb(255,0,169)" stroke-width="2" fill="none"></circle>
<circle cx="6287.45" cy="1486.49" r="4" stroke="rgb(255,0,169)" stroke-width="2" fill="none"></circle>
<circle cx="1601.69" cy="2168.94" r="4" stroke="rgb(8,255,0)" stroke-width="2" fill="none"></circle>
<circle cx="6318.27" cy="1481.47" r="4" stroke="rgb(8,255,0)" stroke-width="2" fill="none"></circle>
<circle cx="1579.52" cy="1228.72" r="4" stroke="rgb(255,0,229)" stroke-width="2" fill="none"></circle>
<circle cx="5827.8" cy="1853.28" r="4" stroke="rgb(255,0,229)" stroke-width="2" fill="none"></circle>
<circle cx="1579.08" cy="1092.2" r="4" stroke="rgb(255,0,93)" stroke-width="2" fill="none"></circle>
<circle cx="5856.86" cy="1980" r="4" stroke="rgb(255,0,93)" stroke-width="2" fill="none"></circle>
<circle cx="1872.55" cy="2166.06" r="4" stroke="rgb(255,0,187)" stroke-width="2" fill="none"></circle>
<circle cx="5617.61" cy="1040.88" r="4" stroke="rgb(255,0,187)" stroke-width="2" fill="none"></circle>
<circle cx="1269.56" cy="1096.78" r="4" stroke="rgb(29,255,0)" stroke-width="2" fill="none"></circle>
<circle cx="5732.55" cy="891.798" r="4" stroke="rgb(29,255,0)" stroke-width="2" fill="none"></circle>
<circle cx="2464.25" cy="1599.2" r="4" stroke="rgb(0,72,255)" stroke-width="2" fill="none"></circle>
<circle cx="6591.21" cy="968.117" r="4" stroke="rgb(0,72,255)" stroke-width="2" fill="none"></circle>
<circle cx="1442.38" cy="978.025" r="4" stroke="rgb(0,255,233)" stroke-width="2" fill="none"></circle>
<circle cx="6166.58" cy="1239.73" r="4" stroke="rgb(0,255,233)" stroke-width="2" fill="none"></circle>
</svg>