<?xml version="1.0" standalone="yes"?>
<!-- SVG graphic -->
<svg xmlns='http://www.w3.org/2000/svg' xmlns:xlink='http://www.w3.org/1999/xlink'
width="8064px" height="3024px" preserveAspectRatio="xMinYMin meet" viewBox="0 0 8064 3024" version="1.1">
<image x="0" y="0" width="4032px" height="3024px" opacity="1" xlink:href="/home/jeong/Code/2D-to-3D-Modeling-using-AI/Make3D/Image/20200227_180708.jpg"/>
<image x="4032" y="0" width="4032px" height="3024px" opacity="1" xlink:href="/home/jeong/Code/2D-to-3D-Modeling-using-AI/Make3D/Image/20200227_180754.jpg"/>
<polyline points="1455.58,512.654,5784.3,1408.23" stroke="rgb(0,255,233)" stroke-width="2" fill="none"></polyline>
<polyline points="1280.39,514.865,5128.74,2612.61" stroke="rgb(255,225,0)" stroke-width="2" fill="none"></polyline>
<polyline points="1038.39,567.524,4653.2,628.465" stroke="rgb(80,0,255)" stroke-width="2" fill="none"></polyline>
<polyline points="1782.12,576.32,5704.41,2685.14" stroke="rgb(255,114,0)" stroke-width="2" fill="none"></polyline>
<polyline points="1395.34,576.826,6356.19,1493.24" stroke="rgb(101,255,0)" stroke-width="2" fill="none"></polyline>
<polyline points="1356.57,617.412,5351.81,2398.2" stroke="rgb(187,255,0)" stroke-width="2" fill="none"></polyline>
<polyline points="1954.12,634.411,4962.6,1332.24" stroke="rgb(255,204,0)" stroke-width="2" fill="none"></polyline>
<polyline points="1717.87,635.115,5260.01,2396.43" stroke="rgb(254,0,255)" stroke-width="2" fill="none"></polyline>
<polyline points="1391.79,643.157,4944.36,699.64" stroke="rgb(255,127,0)" stroke-width="2" fill="none"></polyline>
<polyline points="1715.07,644.29,5659.58,1083.71" stroke="rgb(0,255,254)" stroke-width="2" fill="none"></polyline>
<polyline points="2215.62,776.56,4934.17,1391.98" stroke="rgb(0,255,148)" stroke-width="2" fill="none"></polyline>
<polyline points="2269.49,817.66,5434.24,2778.28" stroke="rgb(208,255,0)" stroke-width="2" fill="none"></polyline>
<polyline points="1720.04,823.365,5112.07,451.248" stroke="rgb(0,255,140)" stroke-width="2" fill="none"></polyline>
<polyline points="1256.95,844.83,5330,2264.35" stroke="rgb(0,255,212)" stroke-width="2" fill="none"></polyline>
<polyline points="1648.68,849.052,6665.11,2447.56" stroke="rgb(123,255,0)" stroke-width="2" fill="none"></polyline>
<polyline points="1171.1,862.032,5784.18,1358.39" stroke="rgb(255,4,0)" stroke-width="2" fill="none"></polyline>
<polyline points="1275.36,881.823,5067.9,2516.7" stroke="rgb(182,255,0)" stroke-width="2" fill="none"></polyline>
<polyline points="1229.44,882.423,4801.55,908.83" stroke="rgb(97,255,0)" stroke-width="2" fill="none"></polyline>
<polyline points="1651.09,888.646,5406.28,1118.19" stroke="rgb(255,21,0)" stroke-width="2" fill="none"></polyline>
<polyline points="1592.85,890.937,5576.3,2543.69" stroke="rgb(255,0,17)" stroke-width="2" fill="none"></polyline>
<polyline points="1237.05,890.957,5148.56,1799.87" stroke="rgb(255,68,0)" stroke-width="2" fill="none"></polyline>
<polyline points="2294.43,896.59,5331.68,1198.52" stroke="rgb(0,76,255)" stroke-width="2" fill="none"></polyline>
<polyline points="1410.93,903.566,4997.64,867.453" stroke="rgb(255,0,136)" stroke-width="2" fill="none"></polyline>
<polyline points="1419.87,903.608,4916.84,313.798" stroke="rgb(255,0,12)" stroke-width="2" fill="none"></polyline>
<polyline points="2521.48,915.769,6544.18,2514.86" stroke="rgb(255,0,33)" stroke-width="2" fill="none"></polyline>
<polyline points="1425.06,917.795,5117.91,1633.01" stroke="rgb(0,255,242)" stroke-width="2" fill="none"></polyline>
<polyline points="2529.92,924.073,6851.88,839.664" stroke="rgb(67,255,0)" stroke-width="2" fill="none"></polyline>
<polyline points="1921.07,942.65,5295.4,467.667" stroke="rgb(0,80,255)" stroke-width="2" fill="none"></polyline>
<polyline points="1948.91,960.384,5520.53,649.625" stroke="rgb(29,0,255)" stroke-width="2" fill="none"></polyline>
<polyline points="1970.9,971.2,5330.46,473.251" stroke="rgb(0,85,255)" stroke-width="2" fill="none"></polyline>
<polyline points="2240.53,973.901,6596.97,1300.21" stroke="rgb(246,0,255)" stroke-width="2" fill="none"></polyline>
<polyline points="1427.03,980.421,5074.02,1515.9" stroke="rgb(229,0,255)" stroke-width="2" fill="none"></polyline>
<polyline points="2598.3,983.146,4974.52,937.175" stroke="rgb(140,0,255)" stroke-width="2" fill="none"></polyline>
<polyline points="2371.56,990.189,5668.7,2219.7" stroke="rgb(216,255,0)" stroke-width="2" fill="none"></polyline>
<polyline points="2577.26,1010.31,6725.85,688.677" stroke="rgb(0,199,255)" stroke-width="2" fill="none"></polyline>
<polyline points="2331.11,1016.05,5472.74,2467.2" stroke="rgb(8,0,255)" stroke-width="2" fill="none"></polyline>
<polyline points="2342.23,1023.59,6574.9,2526.58" stroke="rgb(0,255,106)" stroke-width="2" fill="none"></polyline>
<polyline points="2241.56,1029.31,6480.69,1162.73" stroke="rgb(4,0,255)" stroke-width="2" fill="none"></polyline>
<polyline points="2415.65,1038.77,5318.24,486.122" stroke="rgb(255,229,0)" stroke-width="2" fill="none"></polyline>
<polyline points="1999.56,1042.16,5427.66,519.848" stroke="rgb(255,199,0)" stroke-width="2" fill="none"></polyline>
<polyline points="1531.59,1056.57,5908.89,1455.76" stroke="rgb(246,255,0)" stroke-width="2" fill="none"></polyline>
<polyline points="1283.33,1089.68,4892.39,1676.64" stroke="rgb(0,131,255)" stroke-width="2" fill="none"></polyline>
<polyline points="1830.8,1127.13,5603.4,2460.9" stroke="rgb(255,0,42)" stroke-width="2" fill="none"></polyline>
<polyline points="2412.18,1142.92,6574.65,1805.04" stroke="rgb(140,255,0)" stroke-width="2" fill="none"></polyline>
<polyline points="2353.68,1172.12,6671.37,619.773" stroke="rgb(255,85,0)" stroke-width="2" fill="none"></polyline>
<polyline points="1404.29,1175.16,4699.01,1978.86" stroke="rgb(165,255,0)" stroke-width="2" fill="none"></polyline>
<polyline points="2593.37,1179.21,5872.2,2087.92" stroke="rgb(131,255,0)" stroke-width="2" fill="none"></polyline>
<polyline points="1564.6,1188.42,5288.81,490.956" stroke="rgb(97,255,0)" stroke-width="2" fill="none"></polyline>
<polyline points="1634.56,1196.08,5998.28,1257.28" stroke="rgb(0,255,246)" stroke-width="2" fill="none"></polyline>
<polyline points="1609.92,1206.24,6554.35,1765.1" stroke="rgb(110,255,0)" stroke-width="2" fill="none"></polyline>
<polyline points="1367.71,1227.74,5752.83,660.443" stroke="rgb(255,0,148)" stroke-width="2" fill="none"></polyline>
<polyline points="1339.37,1229.44,5193.2,1851.61" stroke="rgb(225,255,0)" stroke-width="2" fill="none"></polyline>
<polyline points="2152.16,1241.69,6472.96,1674.58" stroke="rgb(255,0,187)" stroke-width="2" fill="none"></polyline>
<polyline points="1764.96,1292.01,5444.35,558.231" stroke="rgb(225,0,255)" stroke-width="2" fill="none"></polyline>
<polyline points="1548.82,1301.84,4865.41,1766.22" stroke="rgb(238,0,255)" stroke-width="2" fill="none"></polyline>
<polyline points="2022.05,1323.99,5493.9,567.221" stroke="rgb(255,0,221)" stroke-width="2" fill="none"></polyline>
<polyline points="1403.9,1329.62,4905.74,1638.48" stroke="rgb(255,0,76)" stroke-width="2" fill="none"></polyline>
<polyline points="1560.18,1342.86,6342.37,688.398" stroke="rgb(255,170,0)" stroke-width="2" fill="none"></polyline>
<polyline points="1588.96,1361.42,5508.53,1423.56" stroke="rgb(0,255,208)" stroke-width="2" fill="none"></polyline>
<polyline points="2595.39,1368.35,6715.32,603" stroke="rgb(0,46,255)" stroke-width="2" fill="none"></polyline>
<polyline points="1417.26,1372.58,6891.43,2057.69" stroke="rgb(0,255,55)" stroke-width="2" fill="none"></polyline>
<polyline points="1634.6,1375.88,5464.71,480.666" stroke="rgb(255,0,89)" stroke-width="2" fill="none"></polyline>
<polyline points="1795.51,1404.07,4790.25,1844.85" stroke="rgb(255,153,0)" stroke-width="2" fill="none"></polyline>
<polyline points="2388.3,1413.12,6671.31,551.484" stroke="rgb(255,195,0)" stroke-width="2" fill="none"></polyline>
<polyline points="1456.1,1420.69,5039.83,1457.08" stroke="rgb(174,0,255)" stroke-width="2" fill="none"></polyline>
<polyline points="1510.31,1420.77,5956.84,1460.55" stroke="rgb(0,46,255)" stroke-width="2" fill="none"></polyline>
<polyline points="1495.43,1463.45,5466.54,1371.72" stroke="rgb(0,255,169)" stroke-width="2" fill="none"></polyline>
<polyline points="1899.75,1464.85,5177.15,1513.16" stroke="rgb(246,0,255)" stroke-width="2" fill="none"></polyline>
<polyline points="1709.56,1483.21,5265.4,2792.56" stroke="rgb(38,255,0)" stroke-width="2" fill="none"></polyline>
<polyline points="2091.24,1484.44,5352.28,1720.12" stroke="rgb(0,106,255)" stroke-width="2" fill="none"></polyline>
<polyline points="2170.55,1487.13,5143.72,463.145" stroke="rgb(255,0,59)" stroke-width="2" fill="none"></polyline>
<polyline points="1510.45,1505.22,5622.22,1155.26" stroke="rgb(255,191,0)" stroke-width="2" fill="none"></polyline>
<polyline points="1342.52,1514.84,4891.19,861.317" stroke="rgb(238,0,255)" stroke-width="2" fill="none"></polyline>
<polyline points="1561.55,1527.35,6592.43,1802.03" stroke="rgb(0,135,255)" stroke-width="2" fill="none"></polyline>
<polyline points="1746.73,1537.39,5840.56,1468.88" stroke="rgb(0,255,50)" stroke-width="2" fill="none"></polyline>
<polyline points="1694.97,1581.05,4794.14,1989.99" stroke="rgb(255,0,187)" stroke-width="2" fill="none"></polyline>
<polyline points="1438.77,1586.33,5918.02,1561.33" stroke="rgb(212,0,255)" stroke-width="2" fill="none"></polyline>
<polyline points="1724.92,1608.8,5489.01,659.105" stroke="rgb(0,80,255)" stroke-width="2" fill="none"></polyline>
<polyline points="1582.08,1610.89,4750.65,573.545" stroke="rgb(191,0,255)" stroke-width="2" fill="none"></polyline>
<polyline points="2644.55,1631.21,5263.24,334.279" stroke="rgb(51,255,0)" stroke-width="2" fill="none"></polyline>
<polyline points="2650.53,1636.97,5269.22,324.86" stroke="rgb(0,225,255)" stroke-width="2" fill="none"></polyline>
<polyline points="2619.03,1651.01,5692.84,2578.73" stroke="rgb(42,0,255)" stroke-width="2" fill="none"></polyline>
<polyline points="2648.02,1656.37,5682.51,2523.85" stroke="rgb(255,199,0)" stroke-width="2" fill="none"></polyline>
<polyline points="2576.03,1672.68,4983.1,302.075" stroke="rgb(0,255,97)" stroke-width="2" fill="none"></polyline>
<polyline points="1312.06,1691.12,5321.67,1270.4" stroke="rgb(255,238,0)" stroke-width="2" fill="none"></polyline>
<polyline points="1974.69,1723.62,6408.03,1659.38" stroke="rgb(255,0,68)" stroke-width="2" fill="none"></polyline>
<polyline points="1304.05,1726.99,6017.56,1593.84" stroke="rgb(123,255,0)" stroke-width="2" fill="none"></polyline>
<polyline points="2274.83,1730.04,5581.04,493.503" stroke="rgb(255,161,0)" stroke-width="2" fill="none"></polyline>
<polyline points="1181.77,1739.67,6356.19,1493.24" stroke="rgb(255,102,0)" stroke-width="2" fill="none"></polyline>
<polyline points="1788.72,1767.21,5386.87,333.671" stroke="rgb(0,255,55)" stroke-width="2" fill="none"></polyline>
<polyline points="1188.33,1804.9,5710.28,1434.28" stroke="rgb(0,255,84)" stroke-width="2" fill="none"></polyline>
<polyline points="1375.36,1847.28,4693.65,1972.08" stroke="rgb(0,255,157)" stroke-width="2" fill="none"></polyline>
<polyline points="1892.4,1849.57,6617.94,1335" stroke="rgb(255,0,68)" stroke-width="2" fill="none"></polyline>
<polyline points="1295.78,1853.15,5896.11,1509.99" stroke="rgb(0,255,237)" stroke-width="2" fill="none"></polyline>
<polyline points="1132.88,1855.27,6095.8,736.287" stroke="rgb(187,255,0)" stroke-width="2" fill="none"></polyline>
<polyline points="2431.14,1870.95,5940.7,1033.18" stroke="rgb(106,0,255)" stroke-width="2" fill="none"></polyline>
<polyline points="1583.59,1896.73,5434.64,506.765" stroke="rgb(157,0,255)" stroke-width="2" fill="none"></polyline>
<polyline points="1904.72,1909.19,5494.95,319.343" stroke="rgb(51,255,0)" stroke-width="2" fill="none"></polyline>
<polyline points="2609.05,1939.39,4688.16,1052.55" stroke="rgb(0,153,255)" stroke-width="2" fill="none"></polyline>
<polyline points="1931.17,1946.96,4853.58,507.577" stroke="rgb(255,119,0)" stroke-width="2" fill="none"></polyline>
<polyline points="1648.62,1948.56,6261.11,1631.53" stroke="rgb(255,0,157)" stroke-width="2" fill="none"></polyline>
<polyline points="1891.13,1954.57,5194.53,1146.79" stroke="rgb(246,255,0)" stroke-width="2" fill="none"></polyline>
<polyline points="993.072,1974.16,5929.77,1426.28" stroke="rgb(255,0,233)" stroke-width="2" fill="none"></polyline>
<polyline points="1763.85,1981.31,5582.62,2551.23" stroke="rgb(85,0,255)" stroke-width="2" fill="none"></polyline>
<polyline points="1546.3,1982.59,5677.89,673.049" stroke="rgb(127,0,255)" stroke-width="2" fill="none"></polyline>
<polyline points="972.693,1987.5,4855.46,556.057" stroke="rgb(255,0,212)" stroke-width="2" fill="none"></polyline>
<polyline points="1149.09,1987.95,5246.95,1731.43" stroke="rgb(135,255,0)" stroke-width="2" fill="none"></polyline>
<polyline points="1208.69,1991.95,4589.32,495.869" stroke="rgb(203,255,0)" stroke-width="2" fill="none"></polyline>
<polyline points="1659.35,2043.21,4927.91,624.725" stroke="rgb(0,255,216)" stroke-width="2" fill="none"></polyline>
<polyline points="2316.95,2045.92,5385.76,2031.3" stroke="rgb(255,59,0)" stroke-width="2" fill="none"></polyline>
<polyline points="1791.62,2046.39,5325.38,1201.93" stroke="rgb(0,250,255)" stroke-width="2" fill="none"></polyline>
<polyline points="1248.16,2047.79,6712.33,2410.7" stroke="rgb(255,0,4)" stroke-width="2" fill="none"></polyline>
<polyline points="1893.63,2050.48,6499.25,1746.58" stroke="rgb(0,255,67)" stroke-width="2" fill="none"></polyline>
<polyline points="1775.46,2053.64,5551.7,895.192" stroke="rgb(84,255,0)" stroke-width="2" fill="none"></polyline>
<polyline points="1299.29,2056.72,4802.3,714.667" stroke="rgb(255,59,0)" stroke-width="2" fill="none"></polyline>
<polyline points="1152.6,2059.52,5014.75,2718.03" stroke="rgb(237,255,0)" stroke-width="2" fill="none"></polyline>
<polyline points="891.867,2060.39,5016.4,1314.41" stroke="rgb(153,255,0)" stroke-width="2" fill="none"></polyline>
<polyline points="2616.97,2061.72,4939.47,1833.7" stroke="rgb(255,0,93)" stroke-width="2" fill="none"></polyline>
<polyline points="1155.12,2065.61,4774.74,645.007" stroke="rgb(255,0,106)" stroke-width="2" fill="none"></polyline>
<polyline points="2337.94,2073.01,4619.53,674.046" stroke="rgb(255,0,80)" stroke-width="2" fill="none"></polyline>
<polyline points="939.504,2082.2,6624.78,2085.54" stroke="rgb(38,255,0)" stroke-width="2" fill="none"></polyline>
<polyline points="1644.05,2086.96,4902.61,918.413" stroke="rgb(21,255,0)" stroke-width="2" fill="none"></polyline>
<polyline points="2294.57,2087.28,4811,2301.11" stroke="rgb(0,255,76)" stroke-width="2" fill="none"></polyline>
<polyline points="1042.03,2096.56,5684.74,914.858" stroke="rgb(255,0,140)" stroke-width="2" fill="none"></polyline>
<polyline points="1382.92,2097.58,4773.86,2798.51" stroke="rgb(0,255,182)" stroke-width="2" fill="none"></polyline>
<polyline points="1687.92,2098.15,5315.97,504.599" stroke="rgb(144,255,0)" stroke-width="2" fill="none"></polyline>
<polyline points="1361.58,2100.68,5152.69,2738.82" stroke="rgb(0,29,255)" stroke-width="2" fill="none"></polyline>
<polyline points="2423.29,2105.42,5778.39,1411.67" stroke="rgb(169,255,0)" stroke-width="2" fill="none"></polyline>
<polyline points="2595.95,2107.23,5261.55,1534.3" stroke="rgb(0,191,255)" stroke-width="2" fill="none"></polyline>
<polyline points="1102.04,2110.49,4639.65,391.941" stroke="rgb(255,0,216)" stroke-width="2" fill="none"></polyline>
<polyline points="1331.97,2118.08,5076.11,804.17" stroke="rgb(255,0,80)" stroke-width="2" fill="none"></polyline>
<polyline points="1630.31,2122.99,4873.03,764.687" stroke="rgb(0,255,161)" stroke-width="2" fill="none"></polyline>
<polyline points="1204.23,2125.31,5114.2,1111.91" stroke="rgb(12,0,255)" stroke-width="2" fill="none"></polyline>
<polyline points="1596.35,2147.35,6592.82,2320.99" stroke="rgb(195,0,255)" stroke-width="2" fill="none"></polyline>
<polyline points="1613.82,2149.19,5023.21,1667.88" stroke="rgb(212,0,255)" stroke-width="2" fill="none"></polyline>
<polyline points="2301.11,2151.11,5295.72,2358.81" stroke="rgb(0,255,140)" stroke-width="2" fill="none"></polyline>
<polyline points="1605.59,2162.67,5035.12,1388.7" stroke="rgb(0,17,255)" stroke-width="2" fill="none"></polyline>
<polyline points="2512.68,2163.37,6139.63,531.4" stroke="rgb(255,80,0)" stroke-width="2" fill="none"></polyline>
<polyline points="2279.38,2164.64,6422.4,1723.2" stroke="rgb(0,59,255)" stroke-width="2" fill="none"></polyline>
<polyline points="1170.37,2169.76,4947.43,1095.61" stroke="rgb(170,0,255)" stroke-width="2" fill="none"></polyline>
<polyline points="2488.6,2175.85,5554.41,324.12" stroke="rgb(106,0,255)" stroke-width="2" fill="none"></polyline>
<polyline points="2341.8,2176.37,5802.71,1519.53" stroke="rgb(165,0,255)" stroke-width="2" fill="none"></polyline>
<polyline points="2209.6,2177.34,6483.11,2305.67" stroke="rgb(0,255,131)" stroke-width="2" fill="none"></polyline>
<polyline points="1691.96,2181.96,5839.64,1484.88" stroke="rgb(255,174,0)" stroke-width="2" fill="none"></polyline>
<polyline points="2084.22,2186.6,4945.54,1414.05" stroke="rgb(255,80,0)" stroke-width="2" fill="none"></polyline>
<polyline points="1864.25,2199.97,6738.29,2518.55" stroke="rgb(0,255,191)" stroke-width="2" fill="none"></polyline>
<polyline points="2343.72,2204.09,5689.72,299.814" stroke="rgb(255,0,93)" stroke-width="2" fill="none"></polyline>
<polyline points="1102.92,2255.24,5230.45,1779.39" stroke="rgb(255,0,101)" stroke-width="2" fill="none"></polyline>
<polyline points="1088.53,2318.26,5719.14,2684" stroke="rgb(0,255,97)" stroke-width="2" fill="none"></polyline>
<polyline points="1162.96,2354.75,6351.27,2275.05" stroke="rgb(255,0,199)" stroke-width="2" fill="none"></polyline>
<circle cx="1455.58" cy="512.654" r="4" stroke="rgb(0,255,233)" stroke-width="2" fill="none"></circle>
<circle cx="5784.3" cy="1408.23" r="4" stroke="rgb(0,255,233)" stroke-width="2" fill="none"></circle>
<circle cx="1280.39" cy="514.865" r="4" stroke="rgb(255,225,0)" stroke-width="2" fill="none"></circle>
<circle cx="5128.74" cy="2612.61" r="4" stroke="rgb(255,225,0)" stroke-width="2" fill="none"></circle>
<circle cx="1038.39" cy="567.524" r="4" stroke="rgb(80,0,255)" stroke-width="2" fill="none"></circle>
<circle cx="4653.2" cy="628.465" r="4" stroke="rgb(80,0,255)" stroke-width="2" fill="none"></circle>
<circle cx="1782.12" cy="576.32" r="4" stroke="rgb(255,114,0)" stroke-width="2" fill="none"></circle>
<circle cx="5704.41" cy="2685.14" r="4" stroke="rgb(255,114,0)" stroke-width="2" fill="none"></circle>
<circle cx="1395.34" cy="576.826" r="4" stroke="rgb(101,255,0)" stroke-width="2" fill="none"></circle>
<circle cx="6356.19" cy="1493.24" r="4" stroke="rgb(101,255,0)" stroke-width="2" fill="none"></circle>
<circle cx="1356.57" cy="617.412" r="4" stroke="rgb(187,255,0)" stroke-width="2" fill="none"></circle>
<circle cx="5351.81" cy="2398.2" r="4" stroke="rgb(187,255,0)" stroke-width="2" fill="none"></circle>
<circle cx="1954.12" cy="634.411" r="4" stroke="rgb(255,204,0)" stroke-width="2" fill="none"></circle>
<circle cx="4962.6" cy="1332.24" r="4" stroke="rgb(255,204,0)" stroke-width="2" fill="none"></circle>
<circle cx="1717.87" cy="635.115" r="4" stroke="rgb(254,0,255)" stroke-width="2" fill="none"></circle>
<circle cx="5260.01" cy="2396.43" r="4" stroke="rgb(254,0,255)" stroke-width="2" fill="none"></circle>
<circle cx="1391.79" cy="643.157" r="4" stroke="rgb(255,127,0)" stroke-width="2" fill="none"></circle>
<circle cx="4944.36" cy="699.64" r="4" stroke="rgb(255,127,0)" stroke-width="2" fill="none"></circle>
<circle cx="1715.07" cy="644.29" r="4" stroke="rgb(0,255,254)" stroke-width="2" fill="none"></circle>
<circle cx="5659.58" cy="1083.71" r="4" stroke="rgb(0,255,254)" stroke-width="2" fill="none"></circle>
<circle cx="2215.62" cy="776.56" r="4" stroke="rgb(0,255,148)" stroke-width="2" fill="none"></circle>
<circle cx="4934.17" cy="1391.98" r="4" stroke="rgb(0,255,148)" stroke-width="2" fill="none"></circle>
<circle cx="2269.49" cy="817.66" r="4" stroke="rgb(208,255,0)" stroke-width="2" fill="none"></circle>
<circle cx="5434.24" cy="2778.28" r="4" stroke="rgb(208,255,0)" stroke-width="2" fill="none"></circle>
<circle cx="1720.04" cy="823.365" r="4" stroke="rgb(0,255,140)" stroke-width="2" fill="none"></circle>
<circle cx="5112.07" cy="451.248" r="4" stroke="rgb(0,255,140)" stroke-width="2" fill="none"></circle>
<circle cx="1256.95" cy="844.83" r="4" stroke="rgb(0,255,212)" stroke-width="2" fill="none"></circle>
<circle cx="5330" cy="2264.35" r="4" stroke="rgb(0,255,212)" stroke-width="2" fill="none"></circle>
<circle cx="1648.68" cy="849.052" r="4" stroke="rgb(123,255,0)" stroke-width="2" fill="none"></circle>
<circle cx="6665.11" cy="2447.56" r="4" stroke="rgb(123,255,0)" stroke-width="2" fill="none"></circle>
<circle cx="1171.1" cy="862.032" r="4" stroke="rgb(255,4,0)" stroke-width="2" fill="none"></circle>
<circle cx="5784.18" cy="1358.39" r="4" stroke="rgb(255,4,0)" stroke-width="2" fill="none"></circle>
<circle cx="1275.36" cy="881.823" r="4" stroke="rgb(182,255,0)" stroke-width="2" fill="none"></circle>
<circle cx="5067.9" cy="2516.7" r="4" stroke="rgb(182,255,0)" stroke-width="2" fill="none"></circle>
<circle cx="1229.44" cy="882.423" r="4" stroke="rgb(97,255,0)" stroke-width="2" fill="none"></circle>
<circle cx="4801.55" cy="908.83" r="4" stroke="rgb(97,255,0)" stroke-width="2" fill="none"></circle>
<circle cx="1651.09" cy="888.646" r="4" stroke="rgb(255,21,0)" stroke-width="2" fill="none"></circle>
<circle cx="5406.28" cy="1118.19" r="4" stroke="rgb(255,21,0)" stroke-width="2" fill="none"></circle>
<circle cx="1592.85" cy="890.937" r="4" stroke="rgb(255,0,17)" stroke-width="2" fill="none"></circle>
<circle cx="5576.3" cy="2543.69" r="4" stroke="rgb(255,0,17)" stroke-width="2" fill="none"></circle>
<circle cx="1237.05" cy="890.957" r="4" stroke="rgb(255,68,0)" stroke-width="2" fill="none"></circle>
<circle cx="5148.56" cy="1799.87" r="4" stroke="rgb(255,68,0)" stroke-width="2" fill="none"></circle>
<circle cx="2294.43" cy="896.59" r="4" stroke="rgb(0,76,255)" stroke-width="2" fill="none"></circle>
<circle cx="5331.68" cy="1198.52" r="4" stroke="rgb(0,76,255)" stroke-width="2" fill="none"></circle>
<circle cx="1410.93" cy="903.566" r="4" stroke="rgb(255,0,136)" stroke-width="2" fill="none"></circle>
<circle cx="4997.64" cy="867.453" r="4" stroke="rgb(255,0,136)" stroke-width="2" fill="none"></circle>
<circle cx="1419.87" cy="903.608" r="4" stroke="rgb(255,0,12)" stroke-width="2" fill="none"></circle>
<circle cx="4916.84" cy="313.798" r="4" stroke="rgb(255,0,12)" stroke-width="2" fill="none"></circle>
<circle cx="2521.48" cy="915.769" r="4" stroke="rgb(255,0,33)" stroke-width="2" fill="none"></circle>
<circle cx="6544.18" cy="2514.86" r="4" stroke="rgb(255,0,33)" stroke-width="2" fill="none"></circle>
<circle cx="1425.06" cy="917.795" r="4" stroke="rgb(0,255,242)" stroke-width="2" fill="none"></circle>
<circle cx="5117.91" cy="1633.01" r="4" stroke="rgb(0,255,242)" stroke-width="2" fill="none"></circle>
<circle cx="2529.92" cy="924.073" r="4" stroke="rgb(67,255,0)" stroke-width="2" fill="none"></circle>
<circle cx="6851.88" cy="839.664" r="4" stroke="rgb(67,255,0)" stroke-width="2" fill="none"></circle>
<circle cx="1921.07" cy="942.65" r="4" stroke="rgb(0,80,255)" stroke-width="2" fill="none"></circle>
<circle cx="5295.4" cy="467.667" r="4" stroke="rgb(0,80,255)" stroke-width="2" fill="none"></circle>
<circle cx="1948.91" cy="960.384" r="4" stroke="rgb(29,0,255)" stroke-width="2" fill="none"></circle>
<circle cx="5520.53" cy="649.625" r="4" stroke="rgb(29,0,255)" stroke-width="2" fill="none"></circle>
<circle cx="1970.9" cy="971.2" r="4" stroke="rgb(0,85,255)" stroke-width="2" fill="none"></circle>
<circle cx="5330.46" cy="473.251" r="4" stroke="rgb(0,85,255)" stroke-width="2" fill="none"></circle>
<circle cx="2240.53" cy="973.901" r="4" stroke="rgb(246,0,255)" stroke-width="2" fill="none"></circle>
<circle cx="6596.97" cy="1300.21" r="4" stroke="rgb(246,0,255)" stroke-width="2" fill="none"></circle>
<circle cx="1427.03" cy="980.421" r="4" stroke="rgb(229,0,255)" stroke-width="2" fill="none"></circle>
<circle cx="5074.02" cy="1515.9" r="4" stroke="rgb(229,0,255)" stroke-width="2" fill="none"></circle>
<circle cx="2598.3" cy="983.146" r="4" stroke="rgb(140,0,255)" stroke-width="2" fill="none"></circle>
<circle cx="4974.52" cy="937.175" r="4" stroke="rgb(140,0,255)" stroke-width="2" fill="none"></circle>
<circle cx="2371.56" cy="990.189" r="4" stroke="rgb(216,255,0)" stroke-width="2" fill="none"></circle>
<circle cx="5668.7" cy="2219.7" r="4" stroke="rgb(216,255,0)" stroke-width="2" fill="none"></circle>
<circle cx="2577.26" cy="1010.31" r="4" stroke="rgb(0,199,255)" stroke-width="2" fill="none"></circle>
<circle cx="6725.85" cy="688.677" r="4" stroke="rgb(0,199,255)" stroke-width="2" fill="none"></circle>
<circle cx="2331.11" cy="1016.05" r="4" stroke="rgb(8,0,255)" stroke-width="2" fill="none"></circle>
<circle cx="5472.74" cy="2467.2" r="4" stroke="rgb(8,0,255)" stroke-width="2" fill="none"></circle>
<circle cx="2342.23" cy="1023.59" r="4" stroke="rgb(0,255,106)" stroke-width="2" fill="none"></circle>
<circle cx="6574.9" cy="2526.58" r="4" stroke="rgb(0,255,106)" stroke-width="2" fill="none"></circle>
<circle cx="2241.56" cy="1029.31" r="4" stroke="rgb(4,0,255)" stroke-width="2" fill="none"></circle>
<circle cx="6480.69" cy="1162.73" r="4" stroke="rgb(4,0,255)" stroke-width="2" fill="none"></circle>
<circle cx="2415.65" cy="1038.77" r="4" stroke="rgb(255,229,0)" stroke-width="2" fill="none"></circle>
<circle cx="5318.24" cy="486.122" r="4" stroke="rgb(255,229,0)" stroke-width="2" fill="none"></circle>
<circle cx="1999.56" cy="1042.16" r="4" stroke="rgb(255,199,0)" stroke-width="2" fill="none"></circle>
<circle cx="5427.66" cy="519.848" r="4" stroke="rgb(255,199,0)" stroke-width="2" fill="none"></circle>
<circle cx="1531.59" cy="1056.57" r="4" stroke="rgb(246,255,0)" stroke-width="2" fill="none"></circle>
<circle cx="5908.89" cy="1455.76" r="4" stroke="rgb(246,255,0)" stroke-width="2" fill="none"></circle>
<circle cx="1283.33" cy="1089.68" r="4" stroke="rgb(0,131,255)" stroke-width="2" fill="none"></circle>
<circle cx="4892.39" cy="1676.64" r="4" stroke="rgb(0,131,255)" stroke-width="2" fill="none"></circle>
<circle cx="1830.8" cy="1127.13" r="4" stroke="rgb(255,0,42)" stroke-width="2" fill="none"></circle>
<circle cx="5603.4" cy="2460.9" r="4" stroke="rgb(255,0,42)" stroke-width="2" fill="none"></circle>
<circle cx="2412.18" cy="1142.92" r="4" stroke="rgb(140,255,0)" stroke-width="2" fill="none"></circle>
<circle cx="6574.65" cy="1805.04" r="4" stroke="rgb(140,255,0)" stroke-width="2" fill="none"></circle>
<circle cx="2353.68" cy="1172.12" r="4" stroke="rgb(255,85,0)" stroke-width="2" fill="none"></circle>
<circle cx="6671.37" cy="619.773" r="4" stroke="rgb(255,85,0)" stroke-width="2" fill="none"></circle>
<circle cx="1404.29" cy="1175.16" r="4" stroke="rgb(165,255,0)" stroke-width="2" fill="none"></circle>
<circle cx="4699.01" cy="1978.86" r="4" stroke="rgb(165,255,0)" stroke-width="2" fill="none"></circle>
<circle cx="2593.37" cy="1179.21" r="4" stroke="rgb(131,255,0)" stroke-width="2" fill="none"></circle>
<circle cx="5872.2" cy="2087.92" r="4" stroke="rgb(131,255,0)" stroke-width="2" fill="none"></circle>
<circle cx="1564.6" cy="1188.42" r="4" stroke="rgb(97,255,0)" stroke-width="2" fill="none"></circle>
<circle cx="5288.81" cy="490.956" r="4" stroke="rgb(97,255,0)" stroke-width="2" fill="none"></circle>
<circle cx="1634.56" cy="1196.08" r="4" stroke="rgb(0,255,246)" stroke-width="2" fill="none"></circle>
<circle cx="5998.28" cy="1257.28" r="4" stroke="rgb(0,255,246)" stroke-width="2" fill="none"></circle>
<circle cx="1609.92" cy="1206.24" r="4" stroke="rgb(110,255,0)" stroke-width="2" fill="none"></circle>
<circle cx="6554.35" cy="1765.1" r="4" stroke="rgb(110,255,0)" stroke-width="2" fill="none"></circle>
<circle cx="1367.71" cy="1227.74" r="4" stroke="rgb(255,0,148)" stroke-width="2" fill="none"></circle>
<circle cx="5752.83" cy="660.443" r="4" stroke="rgb(255,0,148)" stroke-width="2" fill="none"></circle>
<circle cx="1339.37" cy="1229.44" r="4" stroke="rgb(225,255,0)" stroke-width="2" fill="none"></circle>
<circle cx="5193.2" cy="1851.61" r="4" stroke="rgb(225,255,0)" stroke-width="2" fill="none"></circle>
<circle cx="2152.16" cy="1241.69" r="4" stroke="rgb(255,0,187)" stroke-width="2" fill="none"></circle>
<circle cx="6472.96" cy="1674.58" r="4" stroke="rgb(255,0,187)" stroke-width="2" fill="none"></circle>
<circle cx="1764.96" cy="1292.01" r="4" stroke="rgb(225,0,255)" stroke-width="2" fill="none"></circle>
<circle cx="5444.35" cy="558.231" r="4" stroke="rgb(225,0,255)" stroke-width="2" fill="none"></circle>
<circle cx="1548.82" cy="1301.84" r="4" stroke="rgb(238,0,255)" stroke-width="2" fill="none"></circle>
<circle cx="4865.41" cy="1766.22" r="4" stroke="rgb(238,0,255)" stroke-width="2" fill="none"></circle>
<circle cx="2022.05" cy="1323.99" r="4" stroke="rgb(255,0,221)" stroke-width="2" fill="none"></circle>
<circle cx="5493.9" cy="567.221" r="4" stroke="rgb(255,0,221)" stroke-width="2" fill="none"></circle>
<circle cx="1403.9" cy="1329.62" r="4" stroke="rgb(255,0,76)" stroke-width="2" fill="none"></circle>
<circle cx="4905.74" cy="1638.48" r="4" stroke="rgb(255,0,76)" stroke-width="2" fill="none"></circle>
<circle cx="1560.18" cy="1342.86" r="4" stroke="rgb(255,170,0)" stroke-width="2" fill="none"></circle>
<circle cx="6342.37" cy="688.398" r="4" stroke="rgb(255,170,0)" stroke-width="2" fill="none"></circle>
<circle cx="1588.96" cy="1361.42" r="4" stroke="rgb(0,255,208)" stroke-width="2" fill="none"></circle>
<circle cx="5508.53" cy="1423.56" r="4" stroke="rgb(0,255,208)" stroke-width="2" fill="none"></circle>
<circle cx="2595.39" cy="1368.35" r="4" stroke="rgb(0,46,255)" stroke-width="2" fill="none"></circle>
<circle cx="6715.32" cy="603" r="4" stroke="rgb(0,46,255)" stroke-width="2" fill="none"></circle>
<circle cx="1417.26" cy="1372.58" r="4" stroke="rgb(0,255,55)" stroke-width="2" fill="none"></circle>
<circle cx="6891.43" cy="2057.69" r="4" stroke="rgb(0,255,55)" stroke-width="2" fill="none"></circle>
<circle cx="1634.6" cy="1375.88" r="4" stroke="rgb(255,0,89)" stroke-width="2" fill="none"></circle>
<circle cx="5464.71" cy="480.666" r="4" stroke="rgb(255,0,89)" stroke-width="2" fill="none"></circle>
<circle cx="1795.51" cy="1404.07" r="4" stroke="rgb(255,153,0)" stroke-width="2" fill="none"></circle>
<circle cx="4790.25" cy="1844.85" r="4" stroke="rgb(255,153,0)" stroke-width="2" fill="none"></circle>
<circle cx="2388.3" cy="1413.12" r="4" stroke="rgb(255,195,0)" stroke-width="2" fill="none"></circle>
<circle cx="6671.31" cy="551.484" r="4" stroke="rgb(255,195,0)" stroke-width="2" fill="none"></circle>
<circle cx="1456.1" cy="1420.69" r="4" stroke="rgb(174,0,255)" stroke-width="2" fill="none"></circle>
<circle cx="5039.83" cy="1457.08" r="4" stroke="rgb(174,0,255)" stroke-width="2" fill="none"></circle>
<circle cx="1510.31" cy="1420.77" r="4" stroke="rgb(0,46,255)" stroke-width="2" fill="none"></circle>
<circle cx="5956.84" cy="1460.55" r="4" stroke="rgb(0,46,255)" stroke-width="2" fill="none"></circle>
<circle cx="1495.43" cy="1463.45" r="4" stroke="rgb(0,255,169)" stroke-width="2" fill="none"></circle>
<circle cx="5466.54" cy="1371.72" r="4" stroke="rgb(0,255,169)" stroke-width="2" fill="none"></circle>
<circle cx="1899.75" cy="1464.85" r="4" stroke="rgb(246,0,255)" stroke-width="2" fill="none"></circle>
<circle cx="5177.15" cy="1513.16" r="4" stroke="rgb(246,0,255)" stroke-width="2" fill="none"></circle>
<circle cx="1709.56" cy="1483.21" r="4" stroke="rgb(38,255,0)" stroke-width="2" fill="none"></circle>
<circle cx="5265.4" cy="2792.56" r="4" stroke="rgb(38,255,0)" stroke-width="2" fill="none"></circle>
<circle cx="2091.24" cy="1484.44" r="4" stroke="rgb(0,106,255)" stroke-width="2" fill="none"></circle>
<circle cx="5352.28" cy="1720.12" r="4" stroke="rgb(0,106,255)" stroke-width="2" fill="none"></circle>
<circle cx="2170.55" cy="1487.13" r="4" stroke="rgb(255,0,59)" stroke-width="2" fill="none"></circle>
<circle cx="5143.72" cy="463.145" r="4" stroke="rgb(255,0,59)" stroke-width="2" fill="none"></circle>
<circle cx="1510.45" cy="1505.22" r="4" stroke="rgb(255,191,0)" stroke-width="2" fill="none"></circle>
<circle cx="5622.22" cy="1155.26" r="4" stroke="rgb(255,191,0)" stroke-width="2" fill="none"></circle>
<circle cx="1342.52" cy="1514.84" r="4" stroke="rgb(238,0,255)" stroke-width="2" fill="none"></circle>
<circle cx="4891.19" cy="861.317" r="4" stroke="rgb(238,0,255)" stroke-width="2" fill="none"></circle>
<circle cx="1561.55" cy="1527.35" r="4" stroke="rgb(0,135,255)" stroke-width="2" fill="none"></circle>
<circle cx="6592.43" cy="1802.03" r="4" stroke="rgb(0,135,255)" stroke-width="2" fill="none"></circle>
<circle cx="1746.73" cy="1537.39" r="4" stroke="rgb(0,255,50)" stroke-width="2" fill="none"></circle>
<circle cx="5840.56" cy="1468.88" r="4" stroke="rgb(0,255,50)" stroke-width="2" fill="none"></circle>
<circle cx="1694.97" cy="1581.05" r="4" stroke="rgb(255,0,187)" stroke-width="2" fill="none"></circle>
<circle cx="4794.14" cy="1989.99" r="4" stroke="rgb(255,0,187)" stroke-width="2" fill="none"></circle>
<circle cx="1438.77" cy="1586.33" r="4" stroke="rgb(212,0,255)" stroke-width="2" fill="none"></circle>
<circle cx="5918.02" cy="1561.33" r="4" stroke="rgb(212,0,255)" stroke-width="2" fill="none"></circle>
<circle cx="1724.92" cy="1608.8" r="4" stroke="rgb(0,80,255)" stroke-width="2" fill="none"></circle>
<circle cx="5489.01" cy="659.105" r="4" stroke="rgb(0,80,255)" stroke-width="2" fill="none"></circle>
<circle cx="1582.08" cy="1610.89" r="4" stroke="rgb(191,0,255)" stroke-width="2" fill="none"></circle>
<circle cx="4750.65" cy="573.545" r="4" stroke="rgb(191,0,255)" stroke-width="2" fill="none"></circle>
<circle cx="2644.55" cy="1631.21" r="4" stroke="rgb(51,255,0)" stroke-width="2" fill="none"></circle>
<circle cx="5263.24" cy="334.279" r="4" stroke="rgb(51,255,0)" stroke-width="2" fill="none"></circle>
<circle cx="2650.53" cy="1636.97" r="4" stroke="rgb(0,225,255)" stroke-width="2" fill="none"></circle>
<circle cx="5269.22" cy="324.86" r="4" stroke="rgb(0,225,255)" stroke-width="2" fill="none"></circle>
<circle cx="2619.03" cy="1651.01" r="4" stroke="rgb(42,0,255)" stroke-width="2" fill="none"></circle>
<circle cx="5692.84" cy="2578.73" r="4" stroke="rgb(42,0,255)" stroke-width="2" fill="none"></circle>
<circle cx="2648.02" cy="1656.37" r="4" stroke="rgb(255,199,0)" stroke-width="2" fill="none"></circle>
<circle cx="5682.51" cy="2523.85" r="4" stroke="rgb(255,199,0)" stroke-width="2" fill="none"></circle>
<circle cx="2576.03" cy="1672.68" r="4" stroke="rgb(0,255,97)" stroke-width="2" fill="none"></circle>
<circle cx="4983.1" cy="302.075" r="4" stroke="rgb(0,255,97)" stroke-width="2" fill="none"></circle>
<circle cx="1312.06" cy="1691.12" r="4" stroke="rgb(255,238,0)" stroke-width="2" fill="none"></circle>
<circle cx="5321.67" cy="1270.4" r="4" stroke="rgb(255,238,0)" stroke-width="2" fill="none"></circle>
<circle cx="1974.69" cy="1723.62" r="4" stroke="rgb(255,0,68)" stroke-width="2" fill="none"></circle>
<circle cx="6408.03" cy="1659.38" r="4" stroke="rgb(255,0,68)" stroke-width="2" fill="none"></circle>
<circle cx="1304.05" cy="1726.99" r="4" stroke="rgb(123,255,0)" stroke-width="2" fill="none"></circle>
<circle cx="6017.56" cy="1593.84" r="4" stroke="rgb(123,255,0)" stroke-width="2" fill="none"></circle>
<circle cx="2274.83" cy="1730.04" r="4" stroke="rgb(255,161,0)" stroke-width="2" fill="none"></circle>
<circle cx="5581.04" cy="493.503" r="4" stroke="rgb(255,161,0)" stroke-width="2" fill="none"></circle>
<circle cx="1181.77" cy="1739.67" r="4" stroke="rgb(255,102,0)" stroke-width="2" fill="none"></circle>
<circle cx="6356.19" cy="1493.24" r="4" stroke="rgb(255,102,0)" stroke-width="2" fill="none"></circle>
<circle cx="1788.72" cy="1767.21" r="4" stroke="rgb(0,255,55)" stroke-width="2" fill="none"></circle>
<circle cx="5386.87" cy="333.671" r="4" stroke="rgb(0,255,55)" stroke-width="2" fill="none"></circle>
<circle cx="1188.33" cy="1804.9" r="4" stroke="rgb(0,255,84)" stroke-width="2" fill="none"></circle>
<circle cx="5710.28" cy="1434.28" r="4" stroke="rgb(0,255,84)" stroke-width="2" fill="none"></circle>
<circle cx="1375.36" cy="1847.28" r="4" stroke="rgb(0,255,157)" stroke-width="2" fill="none"></circle>
<circle cx="4693.65" cy="1972.08" r="4" stroke="rgb(0,255,157)" stroke-width="2" fill="none"></circle>
<circle cx="1892.4" cy="1849.57" r="4" stroke="rgb(255,0,68)" stroke-width="2" fill="none"></circle>
<circle cx="6617.94" cy="1335" r="4" stroke="rgb(255,0,68)" stroke-width="2" fill="none"></circle>
<circle cx="1295.78" cy="1853.15" r="4" stroke="rgb(0,255,237)" stroke-width="2" fill="none"></circle>
<circle cx="5896.11" cy="1509.99" r="4" stroke="rgb(0,255,237)" stroke-width="2" fill="none"></circle>
<circle cx="1132.88" cy="1855.27" r="4" stroke="rgb(187,255,0)" stroke-width="2" fill="none"></circle>
<circle cx="6095.8" cy="736.287" r="4" stroke="rgb(187,255,0)" stroke-width="2" fill="none"></circle>
<circle cx="2431.14" cy="1870.95" r="4" stroke="rgb(106,0,255)" stroke-width="2" fill="none"></circle>
<circle cx="5940.7" cy="1033.18" r="4" stroke="rgb(106,0,255)" stroke-width="2" fill="none"></circle>
<circle cx="1583.59" cy="1896.73" r="4" stroke="rgb(157,0,255)" stroke-width="2" fill="none"></circle>
<circle cx="5434.64" cy="506.765" r="4" stroke="rgb(157,0,255)" stroke-width="2" fill="none"></circle>
<circle cx="1904.72" cy="1909.19" r="4" stroke="rgb(51,255,0)" stroke-width="2" fill="none"></circle>
<circle cx="5494.95" cy="319.343" r="4" stroke="rgb(51,255,0)" stroke-width="2" fill="none"></circle>
<circle cx="2609.05" cy="1939.39" r="4" stroke="rgb(0,153,255)" stroke-width="2" fill="none"></circle>
<circle cx="4688.16" cy="1052.55" r="4" stroke="rgb(0,153,255)" stroke-width="2" fill="none"></circle>
<circle cx="1931.17" cy="1946.96" r="4" stroke="rgb(255,119,0)" stroke-width="2" fill="none"></circle>
<circle cx="4853.58" cy="507.577" r="4" stroke="rgb(255,119,0)" stroke-width="2" fill="none"></circle>
<circle cx="1648.62" cy="1948.56" r="4" stroke="rgb(255,0,157)" stroke-width="2" fill="none"></circle>
<circle cx="6261.11" cy="1631.53" r="4" stroke="rgb(255,0,157)" stroke-width="2" fill="none"></circle>
<circle cx="1891.13" cy="1954.57" r="4" stroke="rgb(246,255,0)" stroke-width="2" fill="none"></circle>
<circle cx="5194.53" cy="1146.79" r="4" stroke="rgb(246,255,0)" stroke-width="2" fill="none"></circle>
<circle cx="993.072" cy="1974.16" r="4" stroke="rgb(255,0,233)" stroke-width="2" fill="none"></circle>
<circle cx="5929.77" cy="1426.28" r="4" stroke="rgb(255,0,233)" stroke-width="2" fill="none"></circle>
<circle cx="1763.85" cy="1981.31" r="4" stroke="rgb(85,0,255)" stroke-width="2" fill="none"></circle>
<circle cx="5582.62" cy="2551.23" r="4" stroke="rgb(85,0,255)" stroke-width="2" fill="none"></circle>
<circle cx="1546.3" cy="1982.59" r="4" stroke="rgb(127,0,255)" stroke-width="2" fill="none"></circle>
<circle cx="5677.89" cy="673.049" r="4" stroke="rgb(127,0,255)" stroke-width="2" fill="none"></circle>
<circle cx="972.693" cy="1987.5" r="4" stroke="rgb(255,0,212)" stroke-width="2" fill="none"></circle>
<circle cx="4855.46" cy="556.057" r="4" stroke="rgb(255,0,212)" stroke-width="2" fill="none"></circle>
<circle cx="1149.09" cy="1987.95" r="4" stroke="rgb(135,255,0)" stroke-width="2" fill="none"></circle>
<circle cx="5246.95" cy="1731.43" r="4" stroke="rgb(135,255,0)" stroke-width="2" fill="none"></circle>
<circle cx="1208.69" cy="1991.95" r="4" stroke="rgb(203,255,0)" stroke-width="2" fill="none"></circle>
<circle cx="4589.32" cy="495.869" r="4" stroke="rgb(203,255,0)" stroke-width="2" fill="none"></circle>
<circle cx="1659.35" cy="2043.21" r="4" stroke="rgb(0,255,216)" stroke-width="2" fill="none"></circle>
<circle cx="4927.91" cy="624.725" r="4" stroke="rgb(0,255,216)" stroke-width="2" fill="none"></circle>
<circle cx="2316.95" cy="2045.92" r="4" stroke="rgb(255,59,0)" stroke-width="2" fill="none"></circle>
<circle cx="5385.76" cy="2031.3" r="4" stroke="rgb(255,59,0)" stroke-width="2" fill="none"></circle>
<circle cx="1791.62" cy="2046.39" r="4" stroke="rgb(0,250,255)" stroke-width="2" fill="none"></circle>
<circle cx="5325.38" cy="1201.93" r="4" stroke="rgb(0,250,255)" stroke-width="2" fill="none"></circle>
<circle cx="1248.16" cy="2047.79" r="4" stroke="rgb(255,0,4)" stroke-width="2" fill="none"></circle>
<circle cx="6712.33" cy="2410.7" r="4" stroke="rgb(255,0,4)" stroke-width="2" fill="none"></circle>
<circle cx="1893.63" cy="2050.48" r="4" stroke="rgb(0,255,67)" stroke-width="2" fill="none"></circle>
<circle cx="6499.25" cy="1746.58" r="4" stroke="rgb(0,255,67)" stroke-width="2" fill="none"></circle>
<circle cx="1775.46" cy="2053.64" r="4" stroke="rgb(84,255,0)" stroke-width="2" fill="none"></circle>
<circle cx="5551.7" cy="895.192" r="4" stroke="rgb(84,255,0)" stroke-width="2" fill="none"></circle>
<circle cx="1299.29" cy="2056.72" r="4" stroke="rgb(255,59,0)" stroke-width="2" fill="none"></circle>
<circle cx="4802.3" cy="714.667" r="4" stroke="rgb(255,59,0)" stroke-width="2" fill="none"></circle>
<circle cx="1152.6" cy="2059.52" r="4" stroke="rgb(237,255,0)" stroke-width="2" fill="none"></circle>
<circle cx="5014.75" cy="2718.03" r="4" stroke="rgb(237,255,0)" stroke-width="2" fill="none"></circle>
<circle cx="891.867" cy="2060.39" r="4" stroke="rgb(153,255,0)" stroke-width="2" fill="none"></circle>
<circle cx="5016.4" cy="1314.41" r="4" stroke="rgb(153,255,0)" stroke-width="2" fill="none"></circle>
<circle cx="2616.97" cy="2061.72" r="4" stroke="rgb(255,0,93)" stroke-width="2" fill="none"></circle>
<circle cx="4939.47" cy="1833.7" r="4" stroke="rgb(255,0,93)" stroke-width="2" fill="none"></circle>
<circle cx="1155.12" cy="2065.61" r="4" stroke="rgb(255,0,106)" stroke-width="2" fill="none"></circle>
<circle cx="4774.74" cy="645.007" r="4" stroke="rgb(255,0,106)" stroke-width="2" fill="none"></circle>
<circle cx="2337.94" cy="2073.01" r="4" stroke="rgb(255,0,80)" stroke-width="2" fill="none"></circle>
<circle cx="4619.53" cy="674.046" r="4" stroke="rgb(255,0,80)" stroke-width="2" fill="none"></circle>
<circle cx="939.504" cy="2082.2" r="4" stroke="rgb(38,255,0)" stroke-width="2" fill="none"></circle>
<circle cx="6624.78" cy="2085.54" r="4" stroke="rgb(38,255,0)" stroke-width="2" fill="none"></circle>
<circle cx="1644.05" cy="2086.96" r="4" stroke="rgb(21,255,0)" stroke-width="2" fill="none"></circle>
<circle cx="4902.61" cy="918.413" r="4" stroke="rgb(21,255,0)" stroke-width="2" fill="none"></circle>
<circle cx="2294.57" cy="2087.28" r="4" stroke="rgb(0,255,76)" stroke-width="2" fill="none"></circle>
<circle cx="4811" cy="2301.11" r="4" stroke="rgb(0,255,76)" stroke-width="2" fill="none"></circle>
<circle cx="1042.03" cy="2096.56" r="4" stroke="rgb(255,0,140)" stroke-width="2" fill="none"></circle>
<circle cx="5684.74" cy="914.858" r="4" stroke="rgb(255,0,140)" stroke-width="2" fill="none"></circle>
<circle cx="1382.92" cy="2097.58" r="4" stroke="rgb(0,255,182)" stroke-width="2" fill="none"></circle>
<circle cx="4773.86" cy="2798.51" r="4" stroke="rgb(0,255,182)" stroke-width="2" fill="none"></circle>
<circle cx="1687.92" cy="2098.15" r="4" stroke="rgb(144,255,0)" stroke-width="2" fill="none"></circle>
<circle cx="5315.97" cy="504.599" r="4" stroke="rgb(144,255,0)" stroke-width="2" fill="none"></circle>
<circle cx="1361.58" cy="2100.68" r="4" stroke="rgb(0,29,255)" stroke-width="2" fill="none"></circle>
<circle cx="5152.69" cy="2738.82" r="4" stroke="rgb(0,29,255)" stroke-width="2" fill="none"></circle>
<circle cx="2423.29" cy="2105.42" r="4" stroke="rgb(169,255,0)" stroke-width="2" fill="none"></circle>
<circle cx="5778.39" cy="1411.67" r="4" stroke="rgb(169,255,0)" stroke-width="2" fill="none"></circle>
<circle cx="2595.95" cy="2107.23" r="4" stroke="rgb(0,191,255)" stroke-width="2" fill="none"></circle>
<circle cx="5261.55" cy="1534.3" r="4" stroke="rgb(0,191,255)" stroke-width="2" fill="none"></circle>
<circle cx="1102.04" cy="2110.49" r="4" stroke="rgb(255,0,216)" stroke-width="2" fill="none"></circle>
<circle cx="4639.65" cy="391.941" r="4" stroke="rgb(255,0,216)" stroke-width="2" fill="none"></circle>
<circle cx="1331.97" cy="2118.08" r="4" stroke="rgb(255,0,80)" stroke-width="2" fill="none"></circle>
<circle cx="5076.11" cy="804.17" r="4" stroke="rgb(255,0,80)" stroke-width="2" fill="none"></circle>
<circle cx="1630.31" cy="2122.99" r="4" stroke="rgb(0,255,161)" stroke-width="2" fill="none"></circle>
<circle cx="4873.03" cy="764.687" r="4" stroke="rgb(0,255,161)" stroke-width="2" fill="none"></circle>
<circle cx="1204.23" cy="2125.31" r="4" stroke="rgb(12,0,255)" stroke-width="2" fill="none"></circle>
<circle cx="5114.2" cy="1111.91" r="4" stroke="rgb(12,0,255)" stroke-width="2" fill="none"></circle>
<circle cx="1596.35" cy="2147.35" r="4" stroke="rgb(195,0,255)" stroke-width="2" fill="none"></circle>
<circle cx="6592.82" cy="2320.99" r="4" stroke="rgb(195,0,255)" stroke-width="2" fill="none"></circle>
<circle cx="1613.82" cy="2149.19" r="4" stroke="rgb(212,0,255)" stroke-width="2" fill="none"></circle>
<circle cx="5023.21" cy="1667.88" r="4" stroke="rgb(212,0,255)" stroke-width="2" fill="none"></circle>
<circle cx="2301.11" cy="2151.11" r="4" stroke="rgb(0,255,140)" stroke-width="2" fill="none"></circle>
<circle cx="5295.72" cy="2358.81" r="4" stroke="rgb(0,255,140)" stroke-width="2" fill="none"></circle>
<circle cx="1605.59" cy="2162.67" r="4" stroke="rgb(0,17,255)" stroke-width="2" fill="none"></circle>
<circle cx="5035.12" cy="1388.7" r="4" stroke="rgb(0,17,255)" stroke-width="2" fill="none"></circle>
<circle cx="2512.68" cy="2163.37" r="4" stroke="rgb(255,80,0)" stroke-width="2" fill="none"></circle>
<circle cx="6139.63" cy="531.4" r="4" stroke="rgb(255,80,0)" stroke-width="2" fill="none"></circle>
<circle cx="2279.38" cy="2164.64" r="4" stroke="rgb(0,59,255)" stroke-width="2" fill="none"></circle>
<circle cx="6422.4" cy="1723.2" r="4" stroke="rgb(0,59,255)" stroke-width="2" fill="none"></circle>
<circle cx="1170.37" cy="2169.76" r="4" stroke="rgb(170,0,255)" stroke-width="2" fill="none"></circle>
<circle cx="4947.43" cy="1095.61" r="4" stroke="rgb(170,0,255)" stroke-width="2" fill="none"></circle>
<circle cx="2488.6" cy="2175.85" r="4" stroke="rgb(106,0,255)" stroke-width="2" fill="none"></circle>
<circle cx="5554.41" cy="324.12" r="4" stroke="rgb(106,0,255)" stroke-width="2" fill="none"></circle>
<circle cx="2341.8" cy="2176.37" r="4" stroke="rgb(165,0,255)" stroke-width="2" fill="none"></circle>
<circle cx="5802.71" cy="1519.53" r="4" stroke="rgb(165,0,255)" stroke-width="2" fill="none"></circle>
<circle cx="2209.6" cy="2177.34" r="4" stroke="rgb(0,255,131)" stroke-width="2" fill="none"></circle>
<circle cx="6483.11" cy="2305.67" r="4" stroke="rgb(0,255,131)" stroke-width="2" fill="none"></circle>
<circle cx="1691.96" cy="2181.96" r="4" stroke="rgb(255,174,0)" stroke-width="2" fill="none"></circle>
<circle cx="5839.64" cy="1484.88" r="4" stroke="rgb(255,174,0)" stroke-width="2" fill="none"></circle>
<circle cx="2084.22" cy="2186.6" r="4" stroke="rgb(255,80,0)" stroke-width="2" fill="none"></circle>
<circle cx="4945.54" cy="1414.05" r="4" stroke="rgb(255,80,0)" stroke-width="2" fill="none"></circle>
<circle cx="1864.25" cy="2199.97" r="4" stroke="rgb(0,255,191)" stroke-width="2" fill="none"></circle>
<circle cx="6738.29" cy="2518.55" r="4" stroke="rgb(0,255,191)" stroke-width="2" fill="none"></circle>
<circle cx="2343.72" cy="2204.09" r="4" stroke="rgb(255,0,93)" stroke-width="2" fill="none"></circle>
<circle cx="5689.72" cy="299.814" r="4" stroke="rgb(255,0,93)" stroke-width="2" fill="none"></circle>
<circle cx="1102.92" cy="2255.24" r="4" stroke="rgb(255,0,101)" stroke-width="2" fill="none"></circle>
<circle cx="5230.45" cy="1779.39" r="4" stroke="rgb(255,0,101)" stroke-width="2" fill="none"></circle>
<circle cx="1088.53" cy="2318.26" r="4" stroke="rgb(0,255,97)" stroke-width="2" fill="none"></circle>
<circle cx="5719.14" cy="2684" r="4" stroke="rgb(0,255,97)" stroke-width="2" fill="none"></circle>
<circle cx="1162.96" cy="2354.75" r="4" stroke="rgb(255,0,199)" stroke-width="2" fill="none"></circle>
<circle cx="6351.27" cy="2275.05" r="4" stroke="rgb(255,0,199)" stroke-width="2" fill="none"></circle>
</svg>