<?xml version="1.0" standalone="yes"?>
<!-- SVG graphic -->
<svg xmlns='http://www.w3.org/2000/svg' xmlns:xlink='http://www.w3.org/1999/xlink'
width="8064px" height="3024px" preserveAspectRatio="xMinYMin meet" viewBox="0 0 8064 3024" version="1.1">
<image x="0" y="0" width="4032px" height="3024px" opacity="1" xlink:href="/home/jeong/Code/2D-to-3D-Modeling-using-AI/Make3D/Image/20200227_180711.jpg"/>
<image x="4032" y="0" width="4032px" height="3024px" opacity="1" xlink:href="/home/jeong/Code/2D-to-3D-Modeling-using-AI/Make3D/Image/20200227_180720.jpg"/>
<polyline points="2103.1,1897.78,6090.1,591.171" stroke="rgb(0,182,255)" stroke-width="2" fill="none"></polyline>
<polyline points="1778.37,1880.93,5816.57,645.706" stroke="rgb(0,255,55)" stroke-width="2" fill="none"></polyline>
<polyline points="991.891,2248.62,5476.79,687.11" stroke="rgb(106,255,0)" stroke-width="2" fill="none"></polyline>
<polyline points="1569.38,2189.7,5506.35,1255.16" stroke="rgb(255,0,187)" stroke-width="2" fill="none"></polyline>
<polyline points="1664.91,1510.49,6777.97,761.668" stroke="rgb(255,110,0)" stroke-width="2" fill="none"></polyline>
<polyline points="1122.64,2400.69,6073.86,660.051" stroke="rgb(0,161,255)" stroke-width="2" fill="none"></polyline>
<polyline points="1900.33,2299.39,5516.62,1325.96" stroke="rgb(255,165,0)" stroke-width="2" fill="none"></polyline>
<polyline points="1589.41,2363.51,5763.31,671.502" stroke="rgb(0,225,255)" stroke-width="2" fill="none"></polyline>
<polyline points="1414.92,1747.57,6092.62,684.586" stroke="rgb(255,161,0)" stroke-width="2" fill="none"></polyline>
<polyline points="1900.33,2299.39,5522.88,1333.15" stroke="rgb(255,55,0)" stroke-width="2" fill="none"></polyline>
<polyline points="2427.09,1917.18,5241.84,848.899" stroke="rgb(255,72,0)" stroke-width="2" fill="none"></polyline>
<polyline points="1546.79,2222.21,5922.95,917.88" stroke="rgb(255,0,106)" stroke-width="2" fill="none"></polyline>
<polyline points="1720.78,1332.86,5359.88,921.171" stroke="rgb(85,0,255)" stroke-width="2" fill="none"></polyline>
<polyline points="2592.26,1339.02,6773.93,1367.79" stroke="rgb(0,255,59)" stroke-width="2" fill="none"></polyline>
<polyline points="1722.83,1784.59,5861.54,931.461" stroke="rgb(0,255,254)" stroke-width="2" fill="none"></polyline>
<polyline points="1589.41,2363.51,5395.52,759.124" stroke="rgb(76,255,0)" stroke-width="2" fill="none"></polyline>
<polyline points="1140.5,2094.14,5230.8,1002.32" stroke="rgb(250,0,255)" stroke-width="2" fill="none"></polyline>
<polyline points="1670.48,1927.9,5753.52,1321.16" stroke="rgb(255,225,0)" stroke-width="2" fill="none"></polyline>
<polyline points="1638.64,1468.44,6803.86,808.98" stroke="rgb(0,255,165)" stroke-width="2" fill="none"></polyline>
<polyline points="1153.33,2099.66,5238.34,1013.87" stroke="rgb(174,0,255)" stroke-width="2" fill="none"></polyline>
<polyline points="1103.5,2150.88,5165.07,1016.42" stroke="rgb(255,119,0)" stroke-width="2" fill="none"></polyline>
<polyline points="1288.51,2366.17,5208.29,1325.07" stroke="rgb(42,0,255)" stroke-width="2" fill="none"></polyline>
<polyline points="1609.23,1299.37,5940.8,901.041" stroke="rgb(0,216,255)" stroke-width="2" fill="none"></polyline>
<polyline points="1140.5,2094.14,5230.84,1002.4" stroke="rgb(255,106,0)" stroke-width="2" fill="none"></polyline>
<polyline points="1124.14,2471.39,5727.91,1016.21" stroke="rgb(85,0,255)" stroke-width="2" fill="none"></polyline>
<polyline points="1128.25,2129.13,5201.41,1017.6" stroke="rgb(255,0,12)" stroke-width="2" fill="none"></polyline>
<polyline points="1128.25,2129.13,5201.41,1017.6" stroke="rgb(0,63,255)" stroke-width="2" fill="none"></polyline>
<polyline points="1513.45,1583.76,5996.71,1538.42" stroke="rgb(0,144,255)" stroke-width="2" fill="none"></polyline>
<polyline points="1176.04,2337.28,5945.58,837.568" stroke="rgb(255,161,0)" stroke-width="2" fill="none"></polyline>
<polyline points="1475.95,1124.92,5784.03,1400.72" stroke="rgb(255,0,199)" stroke-width="2" fill="none"></polyline>
<polyline points="2654.2,1354.14,6783.69,1414.61" stroke="rgb(0,80,255)" stroke-width="2" fill="none"></polyline>
<polyline points="1414.92,1747.57,5922.14,762.669" stroke="rgb(55,255,0)" stroke-width="2" fill="none"></polyline>
<polyline points="1414.92,1747.57,5922.14,762.669" stroke="rgb(140,255,0)" stroke-width="2" fill="none"></polyline>
<polyline points="2623.07,1395.96,6734.83,1426.57" stroke="rgb(0,221,255)" stroke-width="2" fill="none"></polyline>
<polyline points="2587.99,1258.64,5900.52,831.766" stroke="rgb(237,255,0)" stroke-width="2" fill="none"></polyline>
<polyline points="2623.07,1395.96,6721.73,1439.79" stroke="rgb(255,0,63)" stroke-width="2" fill="none"></polyline>
<polyline points="2675.45,1691.04,6723.14,1453.08" stroke="rgb(255,127,0)" stroke-width="2" fill="none"></polyline>
<polyline points="2308.99,2278.07,5484.1,983.006" stroke="rgb(72,255,0)" stroke-width="2" fill="none"></polyline>
<polyline points="1601.84,1615.9,5974.58,1104.24" stroke="rgb(0,255,220)" stroke-width="2" fill="none"></polyline>
<polyline points="1562.38,2183.06,5510.2,1238.3" stroke="rgb(254,0,255)" stroke-width="2" fill="none"></polyline>
<polyline points="2632.91,1358.89,6769.11,1409.42" stroke="rgb(255,0,51)" stroke-width="2" fill="none"></polyline>
<polyline points="1670.48,1927.9,5753.54,1321.12" stroke="rgb(0,216,255)" stroke-width="2" fill="none"></polyline>
<polyline points="1414.07,2114.98,6817.67,1327.59" stroke="rgb(0,255,114)" stroke-width="2" fill="none"></polyline>
<polyline points="1562.38,2183.06,5514.25,1240.88" stroke="rgb(34,0,255)" stroke-width="2" fill="none"></polyline>
<polyline points="1611.04,2135.79,5571.13,1280.83" stroke="rgb(0,187,255)" stroke-width="2" fill="none"></polyline>
<circle cx="2103.1" cy="1897.78" r="4" stroke="rgb(0,182,255)" stroke-width="2" fill="none"></circle>
<circle cx="6090.1" cy="591.171" r="4" stroke="rgb(0,182,255)" stroke-width="2" fill="none"></circle>
<circle cx="1778.37" cy="1880.93" r="4" stroke="rgb(0,255,55)" stroke-width="2" fill="none"></circle>
<circle cx="5816.57" cy="645.706" r="4" stroke="rgb(0,255,55)" stroke-width="2" fill="none"></circle>
<circle cx="991.891" cy="2248.62" r="4" stroke="rgb(106,255,0)" stroke-width="2" fill="none"></circle>
<circle cx="5476.79" cy="687.11" r="4" stroke="rgb(106,255,0)" stroke-width="2" fill="none"></circle>
<circle cx="1569.38" cy="2189.7" r="4" stroke="rgb(255,0,187)" stroke-width="2" fill="none"></circle>
<circle cx="5506.35" cy="1255.16" r="4" stroke="rgb(255,0,187)" stroke-width="2" fill="none"></circle>
<circle cx="1664.91" cy="1510.49" r="4" stroke="rgb(255,110,0)" stroke-width="2" fill="none"></circle>
<circle cx="6777.97" cy="761.668" r="4" stroke="rgb(255,110,0)" stroke-width="2" fill="none"></circle>
<circle cx="1122.64" cy="2400.69" r="4" stroke="rgb(0,161,255)" stroke-width="2" fill="none"></circle>
<circle cx="6073.86" cy="660.051" r="4" stroke="rgb(0,161,255)" stroke-width="2" fill="none"></circle>
<circle cx="1900.33" cy="2299.39" r="4" stroke="rgb(255,165,0)" stroke-width="2" fill="none"></circle>
<circle cx="5516.62" cy="1325.96" r="4" stroke="rgb(255,165,0)" stroke-width="2" fill="none"></circle>
<circle cx="1589.41" cy="2363.51" r="4" stroke="rgb(0,225,255)" stroke-width="2" fill="none"></circle>
<circle cx="5763.31" cy="671.502" r="4" stroke="rgb(0,225,255)" stroke-width="2" fill="none"></circle>
<circle cx="1414.92" cy="1747.57" r="4" stroke="rgb(255,161,0)" stroke-width="2" fill="none"></circle>
<circle cx="6092.62" cy="684.586" r="4" stroke="rgb(255,161,0)" stroke-width="2" fill="none"></circle>
<circle cx="1900.33" cy="2299.39" r="4" stroke="rgb(255,55,0)" stroke-width="2" fill="none"></circle>
<circle cx="5522.88" cy="1333.15" r="4" stroke="rgb(255,55,0)" stroke-width="2" fill="none"></circle>
<circle cx="2427.09" cy="1917.18" r="4" stroke="rgb(255,72,0)" stroke-width="2" fill="none"></circle>
<circle cx="5241.84" cy="848.899" r="4" stroke="rgb(255,72,0)" stroke-width="2" fill="none"></circle>
<circle cx="1546.79" cy="2222.21" r="4" stroke="rgb(255,0,106)" stroke-width="2" fill="none"></circle>
<circle cx="5922.95" cy="917.88" r="4" stroke="rgb(255,0,106)" stroke-width="2" fill="none"></circle>
<circle cx="1720.78" cy="1332.86" r="4" stroke="rgb(85,0,255)" stroke-width="2" fill="none"></circle>
<circle cx="5359.88" cy="921.171" r="4" stroke="rgb(85,0,255)" stroke-width="2" fill="none"></circle>
<circle cx="2592.26" cy="1339.02" r="4" stroke="rgb(0,255,59)" stroke-width="2" fill="none"></circle>
<circle cx="6773.93" cy="1367.79" r="4" stroke="rgb(0,255,59)" stroke-width="2" fill="none"></circle>
<circle cx="1722.83" cy="1784.59" r="4" stroke="rgb(0,255,254)" stroke-width="2" fill="none"></circle>
<circle cx="5861.54" cy="931.461" r="4" stroke="rgb(0,255,254)" stroke-width="2" fill="none"></circle>
<circle cx="1589.41" cy="2363.51" r="4" stroke="rgb(76,255,0)" stroke-width="2" fill="none"></circle>
<circle cx="5395.52" cy="759.124" r="4" stroke="rgb(76,255,0)" stroke-width="2" fill="none"></circle>
<circle cx="1140.5" cy="2094.14" r="4" stroke="rgb(250,0,255)" stroke-width="2" fill="none"></circle>
<circle cx="5230.8" cy="1002.32" r="4" stroke="rgb(250,0,255)" stroke-width="2" fill="none"></circle>
<circle cx="1670.48" cy="1927.9" r="4" stroke="rgb(255,225,0)" stroke-width="2" fill="none"></circle>
<circle cx="5753.52" cy="1321.16" r="4" stroke="rgb(255,225,0)" stroke-width="2" fill="none"></circle>
<circle cx="1638.64" cy="1468.44" r="4" stroke="rgb(0,255,165)" stroke-width="2" fill="none"></circle>
<circle cx="6803.86" cy="808.98" r="4" stroke="rgb(0,255,165)" stroke-width="2" fill="none"></circle>
<circle cx="1153.33" cy="2099.66" r="4" stroke="rgb(174,0,255)" stroke-width="2" fill="none"></circle>
<circle cx="5238.34" cy="1013.87" r="4" stroke="rgb(174,0,255)" stroke-width="2" fill="none"></circle>
<circle cx="1103.5" cy="2150.88" r="4" stroke="rgb(255,119,0)" stroke-width="2" fill="none"></circle>
<circle cx="5165.07" cy="1016.42" r="4" stroke="rgb(255,119,0)" stroke-width="2" fill="none"></circle>
<circle cx="1288.51" cy="2366.17" r="4" stroke="rgb(42,0,255)" stroke-width="2" fill="none"></circle>
<circle cx="5208.29" cy="1325.07" r="4" stroke="rgb(42,0,255)" stroke-width="2" fill="none"></circle>
<circle cx="1609.23" cy="1299.37" r="4" stroke="rgb(0,216,255)" stroke-width="2" fill="none"></circle>
<circle cx="5940.8" cy="901.041" r="4" stroke="rgb(0,216,255)" stroke-width="2" fill="none"></circle>
<circle cx="1140.5" cy="2094.14" r="4" stroke="rgb(255,106,0)" stroke-width="2" fill="none"></circle>
<circle cx="5230.84" cy="1002.4" r="4" stroke="rgb(255,106,0)" stroke-width="2" fill="none"></circle>
<circle cx="1124.14" cy="2471.39" r="4" stroke="rgb(85,0,255)" stroke-width="2" fill="none"></circle>
<circle cx="5727.91" cy="1016.21" r="4" stroke="rgb(85,0,255)" stroke-width="2" fill="none"></circle>
<circle cx="1128.25" cy="2129.13" r="4" stroke="rgb(255,0,12)" stroke-width="2" fill="none"></circle>
<circle cx="5201.41" cy="1017.6" r="4" stroke="rgb(255,0,12)" stroke-width="2" fill="none"></circle>
<circle cx="1128.25" cy="2129.13" r="4" stroke="rgb(0,63,255)" stroke-width="2" fill="none"></circle>
<circle cx="5201.41" cy="1017.6" r="4" stroke="rgb(0,63,255)" stroke-width="2" fill="none"></circle>
<circle cx="1513.45" cy="1583.76" r="4" stroke="rgb(0,144,255)" stroke-width="2" fill="none"></circle>
<circle cx="5996.71" cy="1538.42" r="4" stroke="rgb(0,144,255)" stroke-width="2" fill="none"></circle>
<circle cx="1176.04" cy="2337.28" r="4" stroke="rgb(255,161,0)" stroke-width="2" fill="none"></circle>
<circle cx="5945.58" cy="837.568" r="4" stroke="rgb(255,161,0)" stroke-width="2" fill="none"></circle>
<circle cx="1475.95" cy="1124.92" r="4" stroke="rgb(255,0,199)" stroke-width="2" fill="none"></circle>
<circle cx="5784.03" cy="1400.72" r="4" stroke="rgb(255,0,199)" stroke-width="2" fill="none"></circle>
<circle cx="2654.2" cy="1354.14" r="4" stroke="rgb(0,80,255)" stroke-width="2" fill="none"></circle>
<circle cx="6783.69" cy="1414.61" r="4" stroke="rgb(0,80,255)" stroke-width="2" fill="none"></circle>
<circle cx="1414.92" cy="1747.57" r="4" stroke="rgb(55,255,0)" stroke-width="2" fill="none"></circle>
<circle cx="5922.14" cy="762.669" r="4" stroke="rgb(55,255,0)" stroke-width="2" fill="none"></circle>
<circle cx="1414.92" cy="1747.57" r="4" stroke="rgb(140,255,0)" stroke-width="2" fill="none"></circle>
<circle cx="5922.14" cy="762.669" r="4" stroke="rgb(140,255,0)" stroke-width="2" fill="none"></circle>
<circle cx="2623.07" cy="1395.96" r="4" stroke="rgb(0,221,255)" stroke-width="2" fill="none"></circle>
<circle cx="6734.83" cy="1426.57" r="4" stroke="rgb(0,221,255)" stroke-width="2" fill="none"></circle>
<circle cx="2587.99" cy="1258.64" r="4" stroke="rgb(237,255,0)" stroke-width="2" fill="none"></circle>
<circle cx="5900.52" cy="831.766" r="4" stroke="rgb(237,255,0)" stroke-width="2" fill="none"></circle>
<circle cx="2623.07" cy="1395.96" r="4" stroke="rgb(255,0,63)" stroke-width="2" fill="none"></circle>
<circle cx="6721.73" cy="1439.79" r="4" stroke="rgb(255,0,63)" stroke-width="2" fill="none"></circle>
<circle cx="2675.45" cy="1691.04" r="4" stroke="rgb(255,127,0)" stroke-width="2" fill="none"></circle>
<circle cx="6723.14" cy="1453.08" r="4" stroke="rgb(255,127,0)" stroke-width="2" fill="none"></circle>
<circle cx="2308.99" cy="2278.07" r="4" stroke="rgb(72,255,0)" stroke-width="2" fill="none"></circle>
<circle cx="5484.1" cy="983.006" r="4" stroke="rgb(72,255,0)" stroke-width="2" fill="none"></circle>
<circle cx="1601.84" cy="1615.9" r="4" stroke="rgb(0,255,220)" stroke-width="2" fill="none"></circle>
<circle cx="5974.58" cy="1104.24" r="4" stroke="rgb(0,255,220)" stroke-width="2" fill="none"></circle>
<circle cx="1562.38" cy="2183.06" r="4" stroke="rgb(254,0,255)" stroke-width="2" fill="none"></circle>
<circle cx="5510.2" cy="1238.3" r="4" stroke="rgb(254,0,255)" stroke-width="2" fill="none"></circle>
<circle cx="2632.91" cy="1358.89" r="4" stroke="rgb(255,0,51)" stroke-width="2" fill="none"></circle>
<circle cx="6769.11" cy="1409.42" r="4" stroke="rgb(255,0,51)" stroke-width="2" fill="none"></circle>
<circle cx="1670.48" cy="1927.9" r="4" stroke="rgb(0,216,255)" stroke-width="2" fill="none"></circle>
<circle cx="5753.54" cy="1321.12" r="4" stroke="rgb(0,216,255)" stroke-width="2" fill="none"></circle>
<circle cx="1414.07" cy="2114.98" r="4" stroke="rgb(0,255,114)" stroke-width="2" fill="none"></circle>
<circle cx="6817.67" cy="1327.59" r="4" stroke="rgb(0,255,114)" stroke-width="2" fill="none"></circle>
<circle cx="1562.38" cy="2183.06" r="4" stroke="rgb(34,0,255)" stroke-width="2" fill="none"></circle>
<circle cx="5514.25" cy="1240.88" r="4" stroke="rgb(34,0,255)" stroke-width="2" fill="none"></circle>
<circle cx="1611.04" cy="2135.79" r="4" stroke="rgb(0,187,255)" stroke-width="2" fill="none"></circle>
<circle cx="5571.13" cy="1280.83" r="4" stroke="rgb(0,187,255)" stroke-width="2" fill="none"></circle>
</svg>