<?xml version="1.0" standalone="yes"?>
<!-- SVG graphic -->
<svg xmlns='http://www.w3.org/2000/svg' xmlns:xlink='http://www.w3.org/1999/xlink'
width="8064px" height="3024px" preserveAspectRatio="xMinYMin meet" viewBox="0 0 8064 3024" version="1.1">
<image x="0" y="0" width="4032px" height="3024px" opacity="1" xlink:href="/home/jeong/Code/2D-to-3D-Modeling-using-AI/Make3D/Image/20200227_180711.jpg"/>
<image x="4032" y="0" width="4032px" height="3024px" opacity="1" xlink:href="/home/jeong/Code/2D-to-3D-Modeling-using-AI/Make3D/Image/20200227_180724.jpg"/>
<polyline points="991.891,2248.62,5877.17,701.945" stroke="rgb(212,255,0)" stroke-width="2" fill="none"></polyline>
<polyline points="991.891,2248.62,5934.86,762.266" stroke="rgb(16,255,0)" stroke-width="2" fill="none"></polyline>
<polyline points="2594.55,1553.76,7218.45,2165.62" stroke="rgb(187,255,0)" stroke-width="2" fill="none"></polyline>
<polyline points="1236.22,2553.13,6811.89,2432.91" stroke="rgb(0,255,233)" stroke-width="2" fill="none"></polyline>
<polyline points="1250.08,1927.82,5739.42,886.496" stroke="rgb(255,225,0)" stroke-width="2" fill="none"></polyline>
<polyline points="1355.98,936.082,6276.39,1470.6" stroke="rgb(80,0,255)" stroke-width="2" fill="none"></polyline>
<polyline points="1315.54,1864.24,6335.75,802.328" stroke="rgb(255,114,0)" stroke-width="2" fill="none"></polyline>
<polyline points="1768.28,2243.65,6078.11,1065.82" stroke="rgb(101,255,0)" stroke-width="2" fill="none"></polyline>
<polyline points="1439.93,1511.74,5943.66,1478.33" stroke="rgb(187,255,0)" stroke-width="2" fill="none"></polyline>
<polyline points="979.873,2239.93,5871.1,814.721" stroke="rgb(255,204,0)" stroke-width="2" fill="none"></polyline>
<polyline points="1301.24,1922.23,6201.41,845.036" stroke="rgb(254,0,255)" stroke-width="2" fill="none"></polyline>
<polyline points="2629.18,1448.08,5995.12,1480.21" stroke="rgb(255,127,0)" stroke-width="2" fill="none"></polyline>
<polyline points="1124.14,2471.39,5584.98,1025.59" stroke="rgb(0,255,254)" stroke-width="2" fill="none"></polyline>
<polyline points="1445.18,1284.76,5947.07,2718.52" stroke="rgb(0,255,148)" stroke-width="2" fill="none"></polyline>
<polyline points="1445.18,1284.76,5947.07,2718.52" stroke="rgb(208,255,0)" stroke-width="2" fill="none"></polyline>
<polyline points="991.891,2248.62,6032.97,902.177" stroke="rgb(0,255,140)" stroke-width="2" fill="none"></polyline>
<polyline points="991.891,2248.62,6093.89,958.044" stroke="rgb(0,255,212)" stroke-width="2" fill="none"></polyline>
<polyline points="1439.93,1511.74,6039.2,1539.29" stroke="rgb(123,255,0)" stroke-width="2" fill="none"></polyline>
<polyline points="1607.73,1615.04,6505.16,1143.81" stroke="rgb(255,4,0)" stroke-width="2" fill="none"></polyline>
<polyline points="2596.94,1662.8,6604.4,1029.31" stroke="rgb(182,255,0)" stroke-width="2" fill="none"></polyline>
<polyline points="985.256,2245.51,6107.52,1122.18" stroke="rgb(97,255,0)" stroke-width="2" fill="none"></polyline>
<polyline points="985.256,2245.51,6107.52,1122.18" stroke="rgb(255,21,0)" stroke-width="2" fill="none"></polyline>
<polyline points="985.256,2245.51,6014.56,1166.52" stroke="rgb(255,0,17)" stroke-width="2" fill="none"></polyline>
<polyline points="985.256,2245.51,6014.56,1166.52" stroke="rgb(255,68,0)" stroke-width="2" fill="none"></polyline>
<polyline points="1784.79,1407.87,6192,1600.82" stroke="rgb(0,76,255)" stroke-width="2" fill="none"></polyline>
<polyline points="991.891,2248.62,6279.36,1188.08" stroke="rgb(255,0,136)" stroke-width="2" fill="none"></polyline>
<polyline points="991.891,2248.62,6604.18,1675.05" stroke="rgb(255,0,12)" stroke-width="2" fill="none"></polyline>
<polyline points="1263.49,1898.45,5785.99,1260.17" stroke="rgb(255,0,33)" stroke-width="2" fill="none"></polyline>
<polyline points="1582.66,1252.74,5951.41,989.236" stroke="rgb(0,255,242)" stroke-width="2" fill="none"></polyline>
<polyline points="1825.04,1296.17,6916.07,1689.44" stroke="rgb(67,255,0)" stroke-width="2" fill="none"></polyline>
<polyline points="2095.73,1050.45,6227.41,1288.92" stroke="rgb(0,80,255)" stroke-width="2" fill="none"></polyline>
<polyline points="991.891,2248.62,6654.38,1706.35" stroke="rgb(29,0,255)" stroke-width="2" fill="none"></polyline>
<polyline points="991.891,2248.62,6662.75,1715.17" stroke="rgb(0,85,255)" stroke-width="2" fill="none"></polyline>
<polyline points="1439.93,1511.74,5894.85,1298.69" stroke="rgb(246,0,255)" stroke-width="2" fill="none"></polyline>
<polyline points="1411.8,2058.8,6579.14,1302.97" stroke="rgb(229,0,255)" stroke-width="2" fill="none"></polyline>
<polyline points="1439.93,1511.74,5890.26,1305.51" stroke="rgb(140,0,255)" stroke-width="2" fill="none"></polyline>
<polyline points="1521.05,1288.98,6171.31,1355.45" stroke="rgb(216,255,0)" stroke-width="2" fill="none"></polyline>
<polyline points="991.891,2248.62,6741.88,1807.88" stroke="rgb(0,199,255)" stroke-width="2" fill="none"></polyline>
<polyline points="991.891,2248.62,6465.22,1399.07" stroke="rgb(8,0,255)" stroke-width="2" fill="none"></polyline>
<polyline points="991.891,2248.62,6479.2,1427.36" stroke="rgb(0,255,106)" stroke-width="2" fill="none"></polyline>
<polyline points="991.891,2248.62,6489.14,1452.35" stroke="rgb(4,0,255)" stroke-width="2" fill="none"></polyline>
<polyline points="1521.05,1288.98,6285.31,1461.99" stroke="rgb(255,229,0)" stroke-width="2" fill="none"></polyline>
<polyline points="2548.83,1386.93,6069.46,1913.92" stroke="rgb(255,199,0)" stroke-width="2" fill="none"></polyline>
<polyline points="2095.73,1050.45,6296.24,1510.09" stroke="rgb(246,255,0)" stroke-width="2" fill="none"></polyline>
<polyline points="1881.91,1426.81,6874.18,1561.03" stroke="rgb(0,131,255)" stroke-width="2" fill="none"></polyline>
<polyline points="1489.7,1722.78,6904.49,1732.13" stroke="rgb(255,0,42)" stroke-width="2" fill="none"></polyline>
<polyline points="1503.66,1025.82,6885.22,1784.05" stroke="rgb(140,255,0)" stroke-width="2" fill="none"></polyline>
<polyline points="991.891,2248.62,6505.97,1902.66" stroke="rgb(255,85,0)" stroke-width="2" fill="none"></polyline>
<polyline points="991.891,2248.62,6437.4,1927.43" stroke="rgb(165,255,0)" stroke-width="2" fill="none"></polyline>
<polyline points="991.891,2248.62,6393.97,1941.84" stroke="rgb(131,255,0)" stroke-width="2" fill="none"></polyline>
<polyline points="2417.39,1904.75,6655.55,2026.81" stroke="rgb(97,255,0)" stroke-width="2" fill="none"></polyline>
<polyline points="1669.92,2315.88,6309.11,1996.93" stroke="rgb(0,255,246)" stroke-width="2" fill="none"></polyline>
<polyline points="2567.52,2108.72,7227.73,2160.18" stroke="rgb(110,255,0)" stroke-width="2" fill="none"></polyline>
<polyline points="1151.27,2207.95,6441.41,876.171" stroke="rgb(255,0,148)" stroke-width="2" fill="none"></polyline>
<polyline points="1492.59,1668.81,6205.69,1694.85" stroke="rgb(225,255,0)" stroke-width="2" fill="none"></polyline>
<polyline points="1492.59,1668.81,6151.5,1639.47" stroke="rgb(255,0,187)" stroke-width="2" fill="none"></polyline>
<polyline points="1579.57,1354.73,7304.37,1664.49" stroke="rgb(225,0,255)" stroke-width="2" fill="none"></polyline>
<polyline points="1486.87,2422.77,5478,1377.38" stroke="rgb(238,0,255)" stroke-width="2" fill="none"></polyline>
<polyline points="1301.24,1922.23,5489.81,1380.23" stroke="rgb(255,0,221)" stroke-width="2" fill="none"></polyline>
<polyline points="1965.46,1463.82,6206.05,1386.5" stroke="rgb(255,0,76)" stroke-width="2" fill="none"></polyline>
<polyline points="1208.5,2437.64,6411.1,1957.74" stroke="rgb(255,170,0)" stroke-width="2" fill="none"></polyline>
<polyline points="1632.62,1268.08,5747.75,1513.95" stroke="rgb(0,255,208)" stroke-width="2" fill="none"></polyline>
<polyline points="1496.71,1252.84,6114.32,2592.59" stroke="rgb(0,46,255)" stroke-width="2" fill="none"></polyline>
<polyline points="1733.52,2385.61,6110.83,1943.51" stroke="rgb(0,255,55)" stroke-width="2" fill="none"></polyline>
<polyline points="2567.52,2108.72,6271.1,1631.5" stroke="rgb(255,0,89)" stroke-width="2" fill="none"></polyline>
<polyline points="1522.66,1464.24,7183.95,1782.85" stroke="rgb(255,153,0)" stroke-width="2" fill="none"></polyline>
<polyline points="1829.93,2294.16,7225.23,1796.71" stroke="rgb(255,195,0)" stroke-width="2" fill="none"></polyline>
<polyline points="1603.91,2308.64,6031.15,1408.69" stroke="rgb(174,0,255)" stroke-width="2" fill="none"></polyline>
<circle cx="991.891" cy="2248.62" r="4" stroke="rgb(212,255,0)" stroke-width="2" fill="none"></circle>
<circle cx="5877.17" cy="701.945" r="4" stroke="rgb(212,255,0)" stroke-width="2" fill="none"></circle>
<circle cx="991.891" cy="2248.62" r="4" stroke="rgb(16,255,0)" stroke-width="2" fill="none"></circle>
<circle cx="5934.86" cy="762.266" r="4" stroke="rgb(16,255,0)" stroke-width="2" fill="none"></circle>
<circle cx="2594.55" cy="1553.76" r="4" stroke="rgb(187,255,0)" stroke-width="2" fill="none"></circle>
<circle cx="7218.45" cy="2165.62" r="4" stroke="rgb(187,255,0)" stroke-width="2" fill="none"></circle>
<circle cx="1236.22" cy="2553.13" r="4" stroke="rgb(0,255,233)" stroke-width="2" fill="none"></circle>
<circle cx="6811.89" cy="2432.91" r="4" stroke="rgb(0,255,233)" stroke-width="2" fill="none"></circle>
<circle cx="1250.08" cy="1927.82" r="4" stroke="rgb(255,225,0)" stroke-width="2" fill="none"></circle>
<circle cx="5739.42" cy="886.496" r="4" stroke="rgb(255,225,0)" stroke-width="2" fill="none"></circle>
<circle cx="1355.98" cy="936.082" r="4" stroke="rgb(80,0,255)" stroke-width="2" fill="none"></circle>
<circle cx="6276.39" cy="1470.6" r="4" stroke="rgb(80,0,255)" stroke-width="2" fill="none"></circle>
<circle cx="1315.54" cy="1864.24" r="4" stroke="rgb(255,114,0)" stroke-width="2" fill="none"></circle>
<circle cx="6335.75" cy="802.328" r="4" stroke="rgb(255,114,0)" stroke-width="2" fill="none"></circle>
<circle cx="1768.28" cy="2243.65" r="4" stroke="rgb(101,255,0)" stroke-width="2" fill="none"></circle>
<circle cx="6078.11" cy="1065.82" r="4" stroke="rgb(101,255,0)" stroke-width="2" fill="none"></circle>
<circle cx="1439.93" cy="1511.74" r="4" stroke="rgb(187,255,0)" stroke-width="2" fill="none"></circle>
<circle cx="5943.66" cy="1478.33" r="4" stroke="rgb(187,255,0)" stroke-width="2" fill="none"></circle>
<circle cx="979.873" cy="2239.93" r="4" stroke="rgb(255,204,0)" stroke-width="2" fill="none"></circle>
<circle cx="5871.1" cy="814.721" r="4" stroke="rgb(255,204,0)" stroke-width="2" fill="none"></circle>
<circle cx="1301.24" cy="1922.23" r="4" stroke="rgb(254,0,255)" stroke-width="2" fill="none"></circle>
<circle cx="6201.41" cy="845.036" r="4" stroke="rgb(254,0,255)" stroke-width="2" fill="none"></circle>
<circle cx="2629.18" cy="1448.08" r="4" stroke="rgb(255,127,0)" stroke-width="2" fill="none"></circle>
<circle cx="5995.12" cy="1480.21" r="4" stroke="rgb(255,127,0)" stroke-width="2" fill="none"></circle>
<circle cx="1124.14" cy="2471.39" r="4" stroke="rgb(0,255,254)" stroke-width="2" fill="none"></circle>
<circle cx="5584.98" cy="1025.59" r="4" stroke="rgb(0,255,254)" stroke-width="2" fill="none"></circle>
<circle cx="1445.18" cy="1284.76" r="4" stroke="rgb(0,255,148)" stroke-width="2" fill="none"></circle>
<circle cx="5947.07" cy="2718.52" r="4" stroke="rgb(0,255,148)" stroke-width="2" fill="none"></circle>
<circle cx="1445.18" cy="1284.76" r="4" stroke="rgb(208,255,0)" stroke-width="2" fill="none"></circle>
<circle cx="5947.07" cy="2718.52" r="4" stroke="rgb(208,255,0)" stroke-width="2" fill="none"></circle>
<circle cx="991.891" cy="2248.62" r="4" stroke="rgb(0,255,140)" stroke-width="2" fill="none"></circle>
<circle cx="6032.97" cy="902.177" r="4" stroke="rgb(0,255,140)" stroke-width="2" fill="none"></circle>
<circle cx="991.891" cy="2248.62" r="4" stroke="rgb(0,255,212)" stroke-width="2" fill="none"></circle>
<circle cx="6093.89" cy="958.044" r="4" stroke="rgb(0,255,212)" stroke-width="2" fill="none"></circle>
<circle cx="1439.93" cy="1511.74" r="4" stroke="rgb(123,255,0)" stroke-width="2" fill="none"></circle>
<circle cx="6039.2" cy="1539.29" r="4" stroke="rgb(123,255,0)" stroke-width="2" fill="none"></circle>
<circle cx="1607.73" cy="1615.04" r="4" stroke="rgb(255,4,0)" stroke-width="2" fill="none"></circle>
<circle cx="6505.16" cy="1143.81" r="4" stroke="rgb(255,4,0)" stroke-width="2" fill="none"></circle>
<circle cx="2596.94" cy="1662.8" r="4" stroke="rgb(182,255,0)" stroke-width="2" fill="none"></circle>
<circle cx="6604.4" cy="1029.31" r="4" stroke="rgb(182,255,0)" stroke-width="2" fill="none"></circle>
<circle cx="985.256" cy="2245.51" r="4" stroke="rgb(97,255,0)" stroke-width="2" fill="none"></circle>
<circle cx="6107.52" cy="1122.18" r="4" stroke="rgb(97,255,0)" stroke-width="2" fill="none"></circle>
<circle cx="985.256" cy="2245.51" r="4" stroke="rgb(255,21,0)" stroke-width="2" fill="none"></circle>
<circle cx="6107.52" cy="1122.18" r="4" stroke="rgb(255,21,0)" stroke-width="2" fill="none"></circle>
<circle cx="985.256" cy="2245.51" r="4" stroke="rgb(255,0,17)" stroke-width="2" fill="none"></circle>
<circle cx="6014.56" cy="1166.52" r="4" stroke="rgb(255,0,17)" stroke-width="2" fill="none"></circle>
<circle cx="985.256" cy="2245.51" r="4" stroke="rgb(255,68,0)" stroke-width="2" fill="none"></circle>
<circle cx="6014.56" cy="1166.52" r="4" stroke="rgb(255,68,0)" stroke-width="2" fill="none"></circle>
<circle cx="1784.79" cy="1407.87" r="4" stroke="rgb(0,76,255)" stroke-width="2" fill="none"></circle>
<circle cx="6192" cy="1600.82" r="4" stroke="rgb(0,76,255)" stroke-width="2" fill="none"></circle>
<circle cx="991.891" cy="2248.62" r="4" stroke="rgb(255,0,136)" stroke-width="2" fill="none"></circle>
<circle cx="6279.36" cy="1188.08" r="4" stroke="rgb(255,0,136)" stroke-width="2" fill="none"></circle>
<circle cx="991.891" cy="2248.62" r="4" stroke="rgb(255,0,12)" stroke-width="2" fill="none"></circle>
<circle cx="6604.18" cy="1675.05" r="4" stroke="rgb(255,0,12)" stroke-width="2" fill="none"></circle>
<circle cx="1263.49" cy="1898.45" r="4" stroke="rgb(255,0,33)" stroke-width="2" fill="none"></circle>
<circle cx="5785.99" cy="1260.17" r="4" stroke="rgb(255,0,33)" stroke-width="2" fill="none"></circle>
<circle cx="1582.66" cy="1252.74" r="4" stroke="rgb(0,255,242)" stroke-width="2" fill="none"></circle>
<circle cx="5951.41" cy="989.236" r="4" stroke="rgb(0,255,242)" stroke-width="2" fill="none"></circle>
<circle cx="1825.04" cy="1296.17" r="4" stroke="rgb(67,255,0)" stroke-width="2" fill="none"></circle>
<circle cx="6916.07" cy="1689.44" r="4" stroke="rgb(67,255,0)" stroke-width="2" fill="none"></circle>
<circle cx="2095.73" cy="1050.45" r="4" stroke="rgb(0,80,255)" stroke-width="2" fill="none"></circle>
<circle cx="6227.41" cy="1288.92" r="4" stroke="rgb(0,80,255)" stroke-width="2" fill="none"></circle>
<circle cx="991.891" cy="2248.62" r="4" stroke="rgb(29,0,255)" stroke-width="2" fill="none"></circle>
<circle cx="6654.38" cy="1706.35" r="4" stroke="rgb(29,0,255)" stroke-width="2" fill="none"></circle>
<circle cx="991.891" cy="2248.62" r="4" stroke="rgb(0,85,255)" stroke-width="2" fill="none"></circle>
<circle cx="6662.75" cy="1715.17" r="4" stroke="rgb(0,85,255)" stroke-width="2" fill="none"></circle>
<circle cx="1439.93" cy="1511.74" r="4" stroke="rgb(246,0,255)" stroke-width="2" fill="none"></circle>
<circle cx="5894.85" cy="1298.69" r="4" stroke="rgb(246,0,255)" stroke-width="2" fill="none"></circle>
<circle cx="1411.8" cy="2058.8" r="4" stroke="rgb(229,0,255)" stroke-width="2" fill="none"></circle>
<circle cx="6579.14" cy="1302.97" r="4" stroke="rgb(229,0,255)" stroke-width="2" fill="none"></circle>
<circle cx="1439.93" cy="1511.74" r="4" stroke="rgb(140,0,255)" stroke-width="2" fill="none"></circle>
<circle cx="5890.26" cy="1305.51" r="4" stroke="rgb(140,0,255)" stroke-width="2" fill="none"></circle>
<circle cx="1521.05" cy="1288.98" r="4" stroke="rgb(216,255,0)" stroke-width="2" fill="none"></circle>
<circle cx="6171.31" cy="1355.45" r="4" stroke="rgb(216,255,0)" stroke-width="2" fill="none"></circle>
<circle cx="991.891" cy="2248.62" r="4" stroke="rgb(0,199,255)" stroke-width="2" fill="none"></circle>
<circle cx="6741.88" cy="1807.88" r="4" stroke="rgb(0,199,255)" stroke-width="2" fill="none"></circle>
<circle cx="991.891" cy="2248.62" r="4" stroke="rgb(8,0,255)" stroke-width="2" fill="none"></circle>
<circle cx="6465.22" cy="1399.07" r="4" stroke="rgb(8,0,255)" stroke-width="2" fill="none"></circle>
<circle cx="991.891" cy="2248.62" r="4" stroke="rgb(0,255,106)" stroke-width="2" fill="none"></circle>
<circle cx="6479.2" cy="1427.36" r="4" stroke="rgb(0,255,106)" stroke-width="2" fill="none"></circle>
<circle cx="991.891" cy="2248.62" r="4" stroke="rgb(4,0,255)" stroke-width="2" fill="none"></circle>
<circle cx="6489.14" cy="1452.35" r="4" stroke="rgb(4,0,255)" stroke-width="2" fill="none"></circle>
<circle cx="1521.05" cy="1288.98" r="4" stroke="rgb(255,229,0)" stroke-width="2" fill="none"></circle>
<circle cx="6285.31" cy="1461.99" r="4" stroke="rgb(255,229,0)" stroke-width="2" fill="none"></circle>
<circle cx="2548.83" cy="1386.93" r="4" stroke="rgb(255,199,0)" stroke-width="2" fill="none"></circle>
<circle cx="6069.46" cy="1913.92" r="4" stroke="rgb(255,199,0)" stroke-width="2" fill="none"></circle>
<circle cx="2095.73" cy="1050.45" r="4" stroke="rgb(246,255,0)" stroke-width="2" fill="none"></circle>
<circle cx="6296.24" cy="1510.09" r="4" stroke="rgb(246,255,0)" stroke-width="2" fill="none"></circle>
<circle cx="1881.91" cy="1426.81" r="4" stroke="rgb(0,131,255)" stroke-width="2" fill="none"></circle>
<circle cx="6874.18" cy="1561.03" r="4" stroke="rgb(0,131,255)" stroke-width="2" fill="none"></circle>
<circle cx="1489.7" cy="1722.78" r="4" stroke="rgb(255,0,42)" stroke-width="2" fill="none"></circle>
<circle cx="6904.49" cy="1732.13" r="4" stroke="rgb(255,0,42)" stroke-width="2" fill="none"></circle>
<circle cx="1503.66" cy="1025.82" r="4" stroke="rgb(140,255,0)" stroke-width="2" fill="none"></circle>
<circle cx="6885.22" cy="1784.05" r="4" stroke="rgb(140,255,0)" stroke-width="2" fill="none"></circle>
<circle cx="991.891" cy="2248.62" r="4" stroke="rgb(255,85,0)" stroke-width="2" fill="none"></circle>
<circle cx="6505.97" cy="1902.66" r="4" stroke="rgb(255,85,0)" stroke-width="2" fill="none"></circle>
<circle cx="991.891" cy="2248.62" r="4" stroke="rgb(165,255,0)" stroke-width="2" fill="none"></circle>
<circle cx="6437.4" cy="1927.43" r="4" stroke="rgb(165,255,0)" stroke-width="2" fill="none"></circle>
<circle cx="991.891" cy="2248.62" r="4" stroke="rgb(131,255,0)" stroke-width="2" fill="none"></circle>
<circle cx="6393.97" cy="1941.84" r="4" stroke="rgb(131,255,0)" stroke-width="2" fill="none"></circle>
<circle cx="2417.39" cy="1904.75" r="4" stroke="rgb(97,255,0)" stroke-width="2" fill="none"></circle>
<circle cx="6655.55" cy="2026.81" r="4" stroke="rgb(97,255,0)" stroke-width="2" fill="none"></circle>
<circle cx="1669.92" cy="2315.88" r="4" stroke="rgb(0,255,246)" stroke-width="2" fill="none"></circle>
<circle cx="6309.11" cy="1996.93" r="4" stroke="rgb(0,255,246)" stroke-width="2" fill="none"></circle>
<circle cx="2567.52" cy="2108.72" r="4" stroke="rgb(110,255,0)" stroke-width="2" fill="none"></circle>
<circle cx="7227.73" cy="2160.18" r="4" stroke="rgb(110,255,0)" stroke-width="2" fill="none"></circle>
<circle cx="1151.27" cy="2207.95" r="4" stroke="rgb(255,0,148)" stroke-width="2" fill="none"></circle>
<circle cx="6441.41" cy="876.171" r="4" stroke="rgb(255,0,148)" stroke-width="2" fill="none"></circle>
<circle cx="1492.59" cy="1668.81" r="4" stroke="rgb(225,255,0)" stroke-width="2" fill="none"></circle>
<circle cx="6205.69" cy="1694.85" r="4" stroke="rgb(225,255,0)" stroke-width="2" fill="none"></circle>
<circle cx="1492.59" cy="1668.81" r="4" stroke="rgb(255,0,187)" stroke-width="2" fill="none"></circle>
<circle cx="6151.5" cy="1639.47" r="4" stroke="rgb(255,0,187)" stroke-width="2" fill="none"></circle>
<circle cx="1579.57" cy="1354.73" r="4" stroke="rgb(225,0,255)" stroke-width="2" fill="none"></circle>
<circle cx="7304.37" cy="1664.49" r="4" stroke="rgb(225,0,255)" stroke-width="2" fill="none"></circle>
<circle cx="1486.87" cy="2422.77" r="4" stroke="rgb(238,0,255)" stroke-width="2" fill="none"></circle>
<circle cx="5478" cy="1377.38" r="4" stroke="rgb(238,0,255)" stroke-width="2" fill="none"></circle>
<circle cx="1301.24" cy="1922.23" r="4" stroke="rgb(255,0,221)" stroke-width="2" fill="none"></circle>
<circle cx="5489.81" cy="1380.23" r="4" stroke="rgb(255,0,221)" stroke-width="2" fill="none"></circle>
<circle cx="1965.46" cy="1463.82" r="4" stroke="rgb(255,0,76)" stroke-width="2" fill="none"></circle>
<circle cx="6206.05" cy="1386.5" r="4" stroke="rgb(255,0,76)" stroke-width="2" fill="none"></circle>
<circle cx="1208.5" cy="2437.64" r="4" stroke="rgb(255,170,0)" stroke-width="2" fill="none"></circle>
<circle cx="6411.1" cy="1957.74" r="4" stroke="rgb(255,170,0)" stroke-width="2" fill="none"></circle>
<circle cx="1632.62" cy="1268.08" r="4" stroke="rgb(0,255,208)" stroke-width="2" fill="none"></circle>
<circle cx="5747.75" cy="1513.95" r="4" stroke="rgb(0,255,208)" stroke-width="2" fill="none"></circle>
<circle cx="1496.71" cy="1252.84" r="4" stroke="rgb(0,46,255)" stroke-width="2" fill="none"></circle>
<circle cx="6114.32" cy="2592.59" r="4" stroke="rgb(0,46,255)" stroke-width="2" fill="none"></circle>
<circle cx="1733.52" cy="2385.61" r="4" stroke="rgb(0,255,55)" stroke-width="2" fill="none"></circle>
<circle cx="6110.83" cy="1943.51" r="4" stroke="rgb(0,255,55)" stroke-width="2" fill="none"></circle>
<circle cx="2567.52" cy="2108.72" r="4" stroke="rgb(255,0,89)" stroke-width="2" fill="none"></circle>
<circle cx="6271.1" cy="1631.5" r="4" stroke="rgb(255,0,89)" stroke-width="2" fill="none"></circle>
<circle cx="1522.66" cy="1464.24" r="4" stroke="rgb(255,153,0)" stroke-width="2" fill="none"></circle>
<circle cx="7183.95" cy="1782.85" r="4" stroke="rgb(255,153,0)" stroke-width="2" fill="none"></circle>
<circle cx="1829.93" cy="2294.16" r="4" stroke="rgb(255,195,0)" stroke-width="2" fill="none"></circle>
<circle cx="7225.23" cy="1796.71" r="4" stroke="rgb(255,195,0)" stroke-width="2" fill="none"></circle>
<circle cx="1603.91" cy="2308.64" r="4" stroke="rgb(174,0,255)" stroke-width="2" fill="none"></circle>
<circle cx="6031.15" cy="1408.69" r="4" stroke="rgb(174,0,255)" stroke-width="2" fill="none"></circle>
</svg>