<?xml version="1.0" standalone="yes"?>
<!-- SVG graphic -->
<svg xmlns='http://www.w3.org/2000/svg' xmlns:xlink='http://www.w3.org/1999/xlink'
width="8064px" height="3024px" preserveAspectRatio="xMinYMin meet" viewBox="0 0 8064 3024" version="1.1">
<image x="0" y="0" width="4032px" height="3024px" opacity="1" xlink:href="/home/jeong/Code/2D-to-3D-Modeling-using-AI/Make3D/Image/20200227_180711.jpg"/>
<image x="4032" y="0" width="4032px" height="3024px" opacity="1" xlink:href="/home/jeong/Code/2D-to-3D-Modeling-using-AI/Make3D/Image/20200227_180732.jpg"/>
<polyline points="991.891,2248.62,6524.51,2672.35" stroke="rgb(246,0,255)" stroke-width="2" fill="none"></polyline>
<polyline points="1208.5,2437.64,6506.67,1294.52" stroke="rgb(0,255,80)" stroke-width="2" fill="none"></polyline>
<polyline points="991.891,2248.62,6534.03,2747.43" stroke="rgb(0,140,255)" stroke-width="2" fill="none"></polyline>
<polyline points="991.891,2248.62,6525.49,2767.59" stroke="rgb(0,255,84)" stroke-width="2" fill="none"></polyline>
<polyline points="1208.5,2437.64,6540.88,2790.15" stroke="rgb(0,255,216)" stroke-width="2" fill="none"></polyline>
<polyline points="1439.93,1511.74,6041.62,1246.25" stroke="rgb(187,255,0)" stroke-width="2" fill="none"></polyline>
<polyline points="1208.5,2437.64,6498.29,1259.99" stroke="rgb(255,148,0)" stroke-width="2" fill="none"></polyline>
<polyline points="1332.57,1896.16,6601.3,1285.56" stroke="rgb(255,178,0)" stroke-width="2" fill="none"></polyline>
<polyline points="1332.57,1896.16,6601.3,1285.56" stroke="rgb(255,4,0)" stroke-width="2" fill="none"></polyline>
<polyline points="1596.93,2115.48,5932.67,2223.08" stroke="rgb(0,255,254)" stroke-width="2" fill="none"></polyline>
<polyline points="2427.09,1917.18,6000.98,1303.68" stroke="rgb(225,0,255)" stroke-width="2" fill="none"></polyline>
<polyline points="991.891,2248.62,6490.7,1302.66" stroke="rgb(0,191,255)" stroke-width="2" fill="none"></polyline>
<polyline points="991.891,2248.62,6514.23,1708.53" stroke="rgb(255,0,51)" stroke-width="2" fill="none"></polyline>
<polyline points="991.891,2248.62,6549,1783.86" stroke="rgb(140,255,0)" stroke-width="2" fill="none"></polyline>
<polyline points="1439.93,1511.74,6316.18,1814.48" stroke="rgb(0,72,255)" stroke-width="2" fill="none"></polyline>
<polyline points="1504.36,1115.31,6745.87,1410.19" stroke="rgb(0,8,255)" stroke-width="2" fill="none"></polyline>
<polyline points="991.891,2248.62,6521.3,1420.08" stroke="rgb(255,178,0)" stroke-width="2" fill="none"></polyline>
<polyline points="991.891,2248.62,6522.23,1436.68" stroke="rgb(225,255,0)" stroke-width="2" fill="none"></polyline>
<polyline points="1597.67,1920,6118.6,2065.25" stroke="rgb(80,255,0)" stroke-width="2" fill="none"></polyline>
<polyline points="1551.47,2160.22,5656.71,1468.24" stroke="rgb(0,255,131)" stroke-width="2" fill="none"></polyline>
<polyline points="1475.95,1124.92,6377.85,1896.73" stroke="rgb(0,255,63)" stroke-width="2" fill="none"></polyline>
<polyline points="991.891,2248.62,6542.92,2147.46" stroke="rgb(195,255,0)" stroke-width="2" fill="none"></polyline>
<polyline points="1521.05,1288.98,6415.73,2001.29" stroke="rgb(182,255,0)" stroke-width="2" fill="none"></polyline>
<polyline points="1439.93,1511.74,6173.56,1626.36" stroke="rgb(131,255,0)" stroke-width="2" fill="none"></polyline>
<polyline points="991.891,2248.62,6521.69,1667.92" stroke="rgb(0,178,255)" stroke-width="2" fill="none"></polyline>
<polyline points="1492.89,1420.58,6405.91,1694.2" stroke="rgb(0,165,255)" stroke-width="2" fill="none"></polyline>
<polyline points="1260.44,1904.11,6202.9,2571.09" stroke="rgb(255,0,140)" stroke-width="2" fill="none"></polyline>
<polyline points="991.891,2248.62,6536.75,1730.27" stroke="rgb(0,187,255)" stroke-width="2" fill="none"></polyline>
<polyline points="991.891,2248.62,6545.19,1765.63" stroke="rgb(255,38,0)" stroke-width="2" fill="none"></polyline>
<polyline points="991.891,2248.62,6547.75,1776.16" stroke="rgb(135,0,255)" stroke-width="2" fill="none"></polyline>
<polyline points="991.891,2248.62,6539.58,2056.43" stroke="rgb(0,255,123)" stroke-width="2" fill="none"></polyline>
<polyline points="991.891,2248.62,6540.15,2070.06" stroke="rgb(0,255,254)" stroke-width="2" fill="none"></polyline>
<polyline points="991.891,2248.62,6540.81,2114.19" stroke="rgb(186,0,255)" stroke-width="2" fill="none"></polyline>
<polyline points="1208.5,2437.64,6501.91,2614.12" stroke="rgb(255,0,17)" stroke-width="2" fill="none"></polyline>
<polyline points="991.891,2248.62,6517.85,2613.85" stroke="rgb(255,0,169)" stroke-width="2" fill="none"></polyline>
<polyline points="1208.5,2437.64,6504.42,2637.73" stroke="rgb(106,255,0)" stroke-width="2" fill="none"></polyline>
<polyline points="1208.5,2437.64,6510.95,2679.17" stroke="rgb(203,255,0)" stroke-width="2" fill="none"></polyline>
<polyline points="1208.5,2437.64,6514.26,2698.99" stroke="rgb(255,0,21)" stroke-width="2" fill="none"></polyline>
<polyline points="1644.86,1673.22,5815.1,2361.3" stroke="rgb(0,255,76)" stroke-width="2" fill="none"></polyline>
<polyline points="991.891,2248.62,6488.38,2446.16" stroke="rgb(255,0,229)" stroke-width="2" fill="none"></polyline>
<polyline points="1492.59,1668.81,6196.63,2480.41" stroke="rgb(255,199,0)" stroke-width="2" fill="none"></polyline>
<polyline points="1213.82,2466.77,6202.99,1054.84" stroke="rgb(255,0,242)" stroke-width="2" fill="none"></polyline>
<polyline points="1109.14,2152.57,6023.83,1105.74" stroke="rgb(255,55,0)" stroke-width="2" fill="none"></polyline>
<polyline points="2417.39,1904.75,6118.22,2234.56" stroke="rgb(255,148,0)" stroke-width="2" fill="none"></polyline>
<polyline points="1193.49,2327.04,6024.76,2226.59" stroke="rgb(97,0,255)" stroke-width="2" fill="none"></polyline>
<polyline points="1717.31,1357.4,5929.46,2440.25" stroke="rgb(0,17,255)" stroke-width="2" fill="none"></polyline>
<polyline points="1651.03,1462.4,5839.2,2469.22" stroke="rgb(0,255,106)" stroke-width="2" fill="none"></polyline>
<polyline points="2453.6,2326.03,5948,2541.58" stroke="rgb(255,0,233)" stroke-width="2" fill="none"></polyline>
<polyline points="2337.83,1776.12,6092.02,1346.98" stroke="rgb(0,255,237)" stroke-width="2" fill="none"></polyline>
<polyline points="2240.6,2188.24,6830.78,2458.72" stroke="rgb(25,0,255)" stroke-width="2" fill="none"></polyline>
<circle cx="991.891" cy="2248.62" r="4" stroke="rgb(246,0,255)" stroke-width="2" fill="none"></circle>
<circle cx="6524.51" cy="2672.35" r="4" stroke="rgb(246,0,255)" stroke-width="2" fill="none"></circle>
<circle cx="1208.5" cy="2437.64" r="4" stroke="rgb(0,255,80)" stroke-width="2" fill="none"></circle>
<circle cx="6506.67" cy="1294.52" r="4" stroke="rgb(0,255,80)" stroke-width="2" fill="none"></circle>
<circle cx="991.891" cy="2248.62" r="4" stroke="rgb(0,140,255)" stroke-width="2" fill="none"></circle>
<circle cx="6534.03" cy="2747.43" r="4" stroke="rgb(0,140,255)" stroke-width="2" fill="none"></circle>
<circle cx="991.891" cy="2248.62" r="4" stroke="rgb(0,255,84)" stroke-width="2" fill="none"></circle>
<circle cx="6525.49" cy="2767.59" r="4" stroke="rgb(0,255,84)" stroke-width="2" fill="none"></circle>
<circle cx="1208.5" cy="2437.64" r="4" stroke="rgb(0,255,216)" stroke-width="2" fill="none"></circle>
<circle cx="6540.88" cy="2790.15" r="4" stroke="rgb(0,255,216)" stroke-width="2" fill="none"></circle>
<circle cx="1439.93" cy="1511.74" r="4" stroke="rgb(187,255,0)" stroke-width="2" fill="none"></circle>
<circle cx="6041.62" cy="1246.25" r="4" stroke="rgb(187,255,0)" stroke-width="2" fill="none"></circle>
<circle cx="1208.5" cy="2437.64" r="4" stroke="rgb(255,148,0)" stroke-width="2" fill="none"></circle>
<circle cx="6498.29" cy="1259.99" r="4" stroke="rgb(255,148,0)" stroke-width="2" fill="none"></circle>
<circle cx="1332.57" cy="1896.16" r="4" stroke="rgb(255,178,0)" stroke-width="2" fill="none"></circle>
<circle cx="6601.3" cy="1285.56" r="4" stroke="rgb(255,178,0)" stroke-width="2" fill="none"></circle>
<circle cx="1332.57" cy="1896.16" r="4" stroke="rgb(255,4,0)" stroke-width="2" fill="none"></circle>
<circle cx="6601.3" cy="1285.56" r="4" stroke="rgb(255,4,0)" stroke-width="2" fill="none"></circle>
<circle cx="1596.93" cy="2115.48" r="4" stroke="rgb(0,255,254)" stroke-width="2" fill="none"></circle>
<circle cx="5932.67" cy="2223.08" r="4" stroke="rgb(0,255,254)" stroke-width="2" fill="none"></circle>
<circle cx="2427.09" cy="1917.18" r="4" stroke="rgb(225,0,255)" stroke-width="2" fill="none"></circle>
<circle cx="6000.98" cy="1303.68" r="4" stroke="rgb(225,0,255)" stroke-width="2" fill="none"></circle>
<circle cx="991.891" cy="2248.62" r="4" stroke="rgb(0,191,255)" stroke-width="2" fill="none"></circle>
<circle cx="6490.7" cy="1302.66" r="4" stroke="rgb(0,191,255)" stroke-width="2" fill="none"></circle>
<circle cx="991.891" cy="2248.62" r="4" stroke="rgb(255,0,51)" stroke-width="2" fill="none"></circle>
<circle cx="6514.23" cy="1708.53" r="4" stroke="rgb(255,0,51)" stroke-width="2" fill="none"></circle>
<circle cx="991.891" cy="2248.62" r="4" stroke="rgb(140,255,0)" stroke-width="2" fill="none"></circle>
<circle cx="6549" cy="1783.86" r="4" stroke="rgb(140,255,0)" stroke-width="2" fill="none"></circle>
<circle cx="1439.93" cy="1511.74" r="4" stroke="rgb(0,72,255)" stroke-width="2" fill="none"></circle>
<circle cx="6316.18" cy="1814.48" r="4" stroke="rgb(0,72,255)" stroke-width="2" fill="none"></circle>
<circle cx="1504.36" cy="1115.31" r="4" stroke="rgb(0,8,255)" stroke-width="2" fill="none"></circle>
<circle cx="6745.87" cy="1410.19" r="4" stroke="rgb(0,8,255)" stroke-width="2" fill="none"></circle>
<circle cx="991.891" cy="2248.62" r="4" stroke="rgb(255,178,0)" stroke-width="2" fill="none"></circle>
<circle cx="6521.3" cy="1420.08" r="4" stroke="rgb(255,178,0)" stroke-width="2" fill="none"></circle>
<circle cx="991.891" cy="2248.62" r="4" stroke="rgb(225,255,0)" stroke-width="2" fill="none"></circle>
<circle cx="6522.23" cy="1436.68" r="4" stroke="rgb(225,255,0)" stroke-width="2" fill="none"></circle>
<circle cx="1597.67" cy="1920" r="4" stroke="rgb(80,255,0)" stroke-width="2" fill="none"></circle>
<circle cx="6118.6" cy="2065.25" r="4" stroke="rgb(80,255,0)" stroke-width="2" fill="none"></circle>
<circle cx="1551.47" cy="2160.22" r="4" stroke="rgb(0,255,131)" stroke-width="2" fill="none"></circle>
<circle cx="5656.71" cy="1468.24" r="4" stroke="rgb(0,255,131)" stroke-width="2" fill="none"></circle>
<circle cx="1475.95" cy="1124.92" r="4" stroke="rgb(0,255,63)" stroke-width="2" fill="none"></circle>
<circle cx="6377.85" cy="1896.73" r="4" stroke="rgb(0,255,63)" stroke-width="2" fill="none"></circle>
<circle cx="991.891" cy="2248.62" r="4" stroke="rgb(195,255,0)" stroke-width="2" fill="none"></circle>
<circle cx="6542.92" cy="2147.46" r="4" stroke="rgb(195,255,0)" stroke-width="2" fill="none"></circle>
<circle cx="1521.05" cy="1288.98" r="4" stroke="rgb(182,255,0)" stroke-width="2" fill="none"></circle>
<circle cx="6415.73" cy="2001.29" r="4" stroke="rgb(182,255,0)" stroke-width="2" fill="none"></circle>
<circle cx="1439.93" cy="1511.74" r="4" stroke="rgb(131,255,0)" stroke-width="2" fill="none"></circle>
<circle cx="6173.56" cy="1626.36" r="4" stroke="rgb(131,255,0)" stroke-width="2" fill="none"></circle>
<circle cx="991.891" cy="2248.62" r="4" stroke="rgb(0,178,255)" stroke-width="2" fill="none"></circle>
<circle cx="6521.69" cy="1667.92" r="4" stroke="rgb(0,178,255)" stroke-width="2" fill="none"></circle>
<circle cx="1492.89" cy="1420.58" r="4" stroke="rgb(0,165,255)" stroke-width="2" fill="none"></circle>
<circle cx="6405.91" cy="1694.2" r="4" stroke="rgb(0,165,255)" stroke-width="2" fill="none"></circle>
<circle cx="1260.44" cy="1904.11" r="4" stroke="rgb(255,0,140)" stroke-width="2" fill="none"></circle>
<circle cx="6202.9" cy="2571.09" r="4" stroke="rgb(255,0,140)" stroke-width="2" fill="none"></circle>
<circle cx="991.891" cy="2248.62" r="4" stroke="rgb(0,187,255)" stroke-width="2" fill="none"></circle>
<circle cx="6536.75" cy="1730.27" r="4" stroke="rgb(0,187,255)" stroke-width="2" fill="none"></circle>
<circle cx="991.891" cy="2248.62" r="4" stroke="rgb(255,38,0)" stroke-width="2" fill="none"></circle>
<circle cx="6545.19" cy="1765.63" r="4" stroke="rgb(255,38,0)" stroke-width="2" fill="none"></circle>
<circle cx="991.891" cy="2248.62" r="4" stroke="rgb(135,0,255)" stroke-width="2" fill="none"></circle>
<circle cx="6547.75" cy="1776.16" r="4" stroke="rgb(135,0,255)" stroke-width="2" fill="none"></circle>
<circle cx="991.891" cy="2248.62" r="4" stroke="rgb(0,255,123)" stroke-width="2" fill="none"></circle>
<circle cx="6539.58" cy="2056.43" r="4" stroke="rgb(0,255,123)" stroke-width="2" fill="none"></circle>
<circle cx="991.891" cy="2248.62" r="4" stroke="rgb(0,255,254)" stroke-width="2" fill="none"></circle>
<circle cx="6540.15" cy="2070.06" r="4" stroke="rgb(0,255,254)" stroke-width="2" fill="none"></circle>
<circle cx="991.891" cy="2248.62" r="4" stroke="rgb(186,0,255)" stroke-width="2" fill="none"></circle>
<circle cx="6540.81" cy="2114.19" r="4" stroke="rgb(186,0,255)" stroke-width="2" fill="none"></circle>
<circle cx="1208.5" cy="2437.64" r="4" stroke="rgb(255,0,17)" stroke-width="2" fill="none"></circle>
<circle cx="6501.91" cy="2614.12" r="4" stroke="rgb(255,0,17)" stroke-width="2" fill="none"></circle>
<circle cx="991.891" cy="2248.62" r="4" stroke="rgb(255,0,169)" stroke-width="2" fill="none"></circle>
<circle cx="6517.85" cy="2613.85" r="4" stroke="rgb(255,0,169)" stroke-width="2" fill="none"></circle>
<circle cx="1208.5" cy="2437.64" r="4" stroke="rgb(106,255,0)" stroke-width="2" fill="none"></circle>
<circle cx="6504.42" cy="2637.73" r="4" stroke="rgb(106,255,0)" stroke-width="2" fill="none"></circle>
<circle cx="1208.5" cy="2437.64" r="4" stroke="rgb(203,255,0)" stroke-width="2" fill="none"></circle>
<circle cx="6510.95" cy="2679.17" r="4" stroke="rgb(203,255,0)" stroke-width="2" fill="none"></circle>
<circle cx="1208.5" cy="2437.64" r="4" stroke="rgb(255,0,21)" stroke-width="2" fill="none"></circle>
<circle cx="6514.26" cy="2698.99" r="4" stroke="rgb(255,0,21)" stroke-width="2" fill="none"></circle>
<circle cx="1644.86" cy="1673.22" r="4" stroke="rgb(0,255,76)" stroke-width="2" fill="none"></circle>
<circle cx="5815.1" cy="2361.3" r="4" stroke="rgb(0,255,76)" stroke-width="2" fill="none"></circle>
<circle cx="991.891" cy="2248.62" r="4" stroke="rgb(255,0,229)" stroke-width="2" fill="none"></circle>
<circle cx="6488.38" cy="2446.16" r="4" stroke="rgb(255,0,229)" stroke-width="2" fill="none"></circle>
<circle cx="1492.59" cy="1668.81" r="4" stroke="rgb(255,199,0)" stroke-width="2" fill="none"></circle>
<circle cx="6196.63" cy="2480.41" r="4" stroke="rgb(255,199,0)" stroke-width="2" fill="none"></circle>
<circle cx="1213.82" cy="2466.77" r="4" stroke="rgb(255,0,242)" stroke-width="2" fill="none"></circle>
<circle cx="6202.99" cy="1054.84" r="4" stroke="rgb(255,0,242)" stroke-width="2" fill="none"></circle>
<circle cx="1109.14" cy="2152.57" r="4" stroke="rgb(255,55,0)" stroke-width="2" fill="none"></circle>
<circle cx="6023.83" cy="1105.74" r="4" stroke="rgb(255,55,0)" stroke-width="2" fill="none"></circle>
<circle cx="2417.39" cy="1904.75" r="4" stroke="rgb(255,148,0)" stroke-width="2" fill="none"></circle>
<circle cx="6118.22" cy="2234.56" r="4" stroke="rgb(255,148,0)" stroke-width="2" fill="none"></circle>
<circle cx="1193.49" cy="2327.04" r="4" stroke="rgb(97,0,255)" stroke-width="2" fill="none"></circle>
<circle cx="6024.76" cy="2226.59" r="4" stroke="rgb(97,0,255)" stroke-width="2" fill="none"></circle>
<circle cx="1717.31" cy="1357.4" r="4" stroke="rgb(0,17,255)" stroke-width="2" fill="none"></circle>
<circle cx="5929.46" cy="2440.25" r="4" stroke="rgb(0,17,255)" stroke-width="2" fill="none"></circle>
<circle cx="1651.03" cy="1462.4" r="4" stroke="rgb(0,255,106)" stroke-width="2" fill="none"></circle>
<circle cx="5839.2" cy="2469.22" r="4" stroke="rgb(0,255,106)" stroke-width="2" fill="none"></circle>
<circle cx="2453.6" cy="2326.03" r="4" stroke="rgb(255,0,233)" stroke-width="2" fill="none"></circle>
<circle cx="5948" cy="2541.58" r="4" stroke="rgb(255,0,233)" stroke-width="2" fill="none"></circle>
<circle cx="2337.83" cy="1776.12" r="4" stroke="rgb(0,255,237)" stroke-width="2" fill="none"></circle>
<circle cx="6092.02" cy="1346.98" r="4" stroke="rgb(0,255,237)" stroke-width="2" fill="none"></circle>
<circle cx="2240.6" cy="2188.24" r="4" stroke="rgb(25,0,255)" stroke-width="2" fill="none"></circle>
<circle cx="6830.78" cy="2458.72" r="4" stroke="rgb(25,0,255)" stroke-width="2" fill="none"></circle>
</svg>