<?xml version="1.0" standalone="yes"?>
<!-- SVG graphic -->
<svg xmlns='http://www.w3.org/2000/svg' xmlns:xlink='http://www.w3.org/1999/xlink'
width="8064px" height="3024px" preserveAspectRatio="xMinYMin meet" viewBox="0 0 8064 3024" version="1.1">
<image x="0" y="0" width="4032px" height="3024px" opacity="1" xlink:href="/home/jeong/Code/2D-to-3D-Modeling-using-AI/Make3D/Image/20200227_180711.jpg"/>
<image x="4032" y="0" width="4032px" height="3024px" opacity="1" xlink:href="/home/jeong/Code/2D-to-3D-Modeling-using-AI/Make3D/Image/20200227_180735.jpg"/>
<polyline points="1584.51,1922.23,6483.99,878.538" stroke="rgb(148,255,0)" stroke-width="2" fill="none"></polyline>
<polyline points="1722.83,1784.59,5644.28,2139.68" stroke="rgb(255,0,161)" stroke-width="2" fill="none"></polyline>
<polyline points="2453.6,2326.03,5417.12,1787.26" stroke="rgb(0,255,110)" stroke-width="2" fill="none"></polyline>
<polyline points="991.891,2248.62,6699.57,1789.27" stroke="rgb(76,255,0)" stroke-width="2" fill="none"></polyline>
<polyline points="1263.49,1898.45,5775.54,2282.86" stroke="rgb(38,0,255)" stroke-width="2" fill="none"></polyline>
<polyline points="1433.11,1082.14,6054.34,1225.87" stroke="rgb(255,208,0)" stroke-width="2" fill="none"></polyline>
<polyline points="1309.16,2486.92,6088.98,1121.36" stroke="rgb(0,85,255)" stroke-width="2" fill="none"></polyline>
<polyline points="991.891,2248.62,6793.23,1124.56" stroke="rgb(123,255,0)" stroke-width="2" fill="none"></polyline>
<polyline points="991.891,2248.62,6736.15,1161.46" stroke="rgb(255,80,0)" stroke-width="2" fill="none"></polyline>
<polyline points="1521.05,1288.98,6875.79,1198.58" stroke="rgb(0,110,255)" stroke-width="2" fill="none"></polyline>
<polyline points="1309.16,2486.92,6764.76,1092.24" stroke="rgb(246,255,0)" stroke-width="2" fill="none"></polyline>
<polyline points="991.891,2248.62,6791.25,1804.28" stroke="rgb(0,169,255)" stroke-width="2" fill="none"></polyline>
<polyline points="1562.23,1417.02,6888.85,1239.13" stroke="rgb(85,0,255)" stroke-width="2" fill="none"></polyline>
<polyline points="1893.86,1426.65,5639.74,1810.51" stroke="rgb(59,255,0)" stroke-width="2" fill="none"></polyline>
<polyline points="991.891,2248.62,6674.64,1133.19" stroke="rgb(0,255,0)" stroke-width="2" fill="none"></polyline>
<polyline points="991.891,2248.62,6697.02,1152.67" stroke="rgb(110,255,0)" stroke-width="2" fill="none"></polyline>
<polyline points="991.891,2248.62,6747.05,1190.25" stroke="rgb(157,0,255)" stroke-width="2" fill="none"></polyline>
<polyline points="1722.83,1784.59,5522.87,2372.84" stroke="rgb(255,0,123)" stroke-width="2" fill="none"></polyline>
<polyline points="1722.83,1784.59,5598.29,2238.22" stroke="rgb(89,255,0)" stroke-width="2" fill="none"></polyline>
<polyline points="1978.58,2091.66,6404.85,2032.69" stroke="rgb(255,0,4)" stroke-width="2" fill="none"></polyline>
<polyline points="1439.93,1511.74,6471.17,1270.91" stroke="rgb(0,255,101)" stroke-width="2" fill="none"></polyline>
<polyline points="1533.78,1506.43,6445.54,1341.49" stroke="rgb(102,0,255)" stroke-width="2" fill="none"></polyline>
<polyline points="1263.49,1898.45,5612.91,2384.33" stroke="rgb(67,255,0)" stroke-width="2" fill="none"></polyline>
<polyline points="1439.93,1511.74,6538.63,1274.44" stroke="rgb(0,255,114)" stroke-width="2" fill="none"></polyline>
<polyline points="991.891,2248.62,6728.8,1844.78" stroke="rgb(0,46,255)" stroke-width="2" fill="none"></polyline>
<polyline points="2236.76,1409.2,6635.42,2277.86" stroke="rgb(255,0,4)" stroke-width="2" fill="none"></polyline>
<polyline points="2642.7,1494.35,5769.07,2286.43" stroke="rgb(0,55,255)" stroke-width="2" fill="none"></polyline>
<polyline points="2279.28,2289.46,7038.17,1670.24" stroke="rgb(255,199,0)" stroke-width="2" fill="none"></polyline>
<polyline points="1643.33,1732.48,5589.59,1681.08" stroke="rgb(255,0,136)" stroke-width="2" fill="none"></polyline>
<polyline points="991.891,2248.62,6319.27,2065.82" stroke="rgb(0,255,93)" stroke-width="2" fill="none"></polyline>
<polyline points="991.891,2248.62,6210.67,2314.49" stroke="rgb(127,255,0)" stroke-width="2" fill="none"></polyline>
<polyline points="2390.35,1743.02,5879.63,1394.16" stroke="rgb(191,0,255)" stroke-width="2" fill="none"></polyline>
<polyline points="1208.5,2437.64,5812.2,2568.82" stroke="rgb(63,255,0)" stroke-width="2" fill="none"></polyline>
<polyline points="1638.49,1704.52,5565.75,1709.77" stroke="rgb(0,17,255)" stroke-width="2" fill="none"></polyline>
<polyline points="1208.5,2437.64,5795.21,2592.66" stroke="rgb(255,114,0)" stroke-width="2" fill="none"></polyline>
<polyline points="1632.39,1709.64,5574.32,1710.42" stroke="rgb(255,0,25)" stroke-width="2" fill="none"></polyline>
<polyline points="1302.95,2514.3,6052.6,1408.7" stroke="rgb(0,255,161)" stroke-width="2" fill="none"></polyline>
<polyline points="1208.5,2437.64,5777.43,2619.57" stroke="rgb(0,255,0)" stroke-width="2" fill="none"></polyline>
<polyline points="991.891,2248.62,6182.93,2362.93" stroke="rgb(255,0,182)" stroke-width="2" fill="none"></polyline>
<polyline points="2417.39,1904.75,6468.96,1402.73" stroke="rgb(255,208,0)" stroke-width="2" fill="none"></polyline>
<polyline points="991.891,2248.62,6125.92,2388.56" stroke="rgb(0,144,255)" stroke-width="2" fill="none"></polyline>
<polyline points="1945.03,1297.16,5835.83,1440.29" stroke="rgb(255,85,0)" stroke-width="2" fill="none"></polyline>
<polyline points="1613.09,1745.39,5334.42,1905.88" stroke="rgb(38,0,255)" stroke-width="2" fill="none"></polyline>
<polyline points="2379.82,1941.22,5824.37,1418.17" stroke="rgb(59,255,0)" stroke-width="2" fill="none"></polyline>
<polyline points="1670.76,1642.3,5490.17,1745.24" stroke="rgb(255,0,8)" stroke-width="2" fill="none"></polyline>
<polyline points="1641.59,1659.3,5523.97,1750.58" stroke="rgb(8,0,255)" stroke-width="2" fill="none"></polyline>
<polyline points="1751.28,1953.72,5737.03,1426.58" stroke="rgb(203,255,0)" stroke-width="2" fill="none"></polyline>
<polyline points="1452.73,1381.62,6566.4,1758.87" stroke="rgb(148,0,255)" stroke-width="2" fill="none"></polyline>
<polyline points="1208.5,2437.64,5817.19,2562.82" stroke="rgb(0,114,255)" stroke-width="2" fill="none"></polyline>
<polyline points="1673.39,1618.06,5468.3,1764.61" stroke="rgb(255,182,0)" stroke-width="2" fill="none"></polyline>
<polyline points="1710.44,1493.13,5871.19,1505.68" stroke="rgb(144,0,255)" stroke-width="2" fill="none"></polyline>
<polyline points="1651.81,1628.5,5490.29,1771.53" stroke="rgb(255,0,8)" stroke-width="2" fill="none"></polyline>
<polyline points="1842.82,1016.12,5826.03,2619.09" stroke="rgb(0,255,250)" stroke-width="2" fill="none"></polyline>
<polyline points="1722.83,1784.59,5991.76,1777.78" stroke="rgb(46,0,255)" stroke-width="2" fill="none"></polyline>
<polyline points="979.873,2239.93,6287.56,1958.8" stroke="rgb(255,72,0)" stroke-width="2" fill="none"></polyline>
<polyline points="1250.08,1927.82,6593.11,1543.23" stroke="rgb(255,208,0)" stroke-width="2" fill="none"></polyline>
<polyline points="1652.97,1603.04,5468.34,1793.98" stroke="rgb(0,255,8)" stroke-width="2" fill="none"></polyline>
<polyline points="991.891,2248.62,5563.53,2672.3" stroke="rgb(16,255,0)" stroke-width="2" fill="none"></polyline>
<polyline points="2417.39,1904.75,6455.63,1803.98" stroke="rgb(101,255,0)" stroke-width="2" fill="none"></polyline>
<polyline points="1205.39,2468.16,6920.92,1653.24" stroke="rgb(127,255,0)" stroke-width="2" fill="none"></polyline>
<polyline points="1263.49,1898.45,6091.99,1998.28" stroke="rgb(80,0,255)" stroke-width="2" fill="none"></polyline>
<polyline points="1635.01,1727.57,5589.9,1691.01" stroke="rgb(255,246,0)" stroke-width="2" fill="none"></polyline>
<polyline points="1850.6,1704,5330.41,2016.99" stroke="rgb(255,63,0)" stroke-width="2" fill="none"></polyline>
<polyline points="1746.81,1303.1,5540.6,2042.95" stroke="rgb(255,17,0)" stroke-width="2" fill="none"></polyline>
<polyline points="1642.31,1715.28,5573.46,1698.19" stroke="rgb(233,0,255)" stroke-width="2" fill="none"></polyline>
<polyline points="1628.78,1715.59,5582.21,1708.38" stroke="rgb(148,0,255)" stroke-width="2" fill="none"></polyline>
<polyline points="1664.05,1632.6,5486.02,1759.57" stroke="rgb(0,42,255)" stroke-width="2" fill="none"></polyline>
<polyline points="1521.05,1288.98,6378.13,2065.41" stroke="rgb(255,0,148)" stroke-width="2" fill="none"></polyline>
<polyline points="1533.78,1506.43,6102.56,1935.35" stroke="rgb(255,148,0)" stroke-width="2" fill="none"></polyline>
<polyline points="1049.58,2191.98,6428.48,1771.36" stroke="rgb(0,225,255)" stroke-width="2" fill="none"></polyline>
<polyline points="1671.17,1609.56,5464.26,1773.84" stroke="rgb(255,59,0)" stroke-width="2" fill="none"></polyline>
<polyline points="1836.24,983.629,6271.1,2086.73" stroke="rgb(29,255,0)" stroke-width="2" fill="none"></polyline>
<polyline points="991.891,2248.62,6273.56,1965.26" stroke="rgb(0,140,255)" stroke-width="2" fill="none"></polyline>
<polyline points="1719.37,1339.99,5420.6,1975.18" stroke="rgb(0,255,63)" stroke-width="2" fill="none"></polyline>
<polyline points="991.891,2248.62,6850.66,1745.48" stroke="rgb(123,255,0)" stroke-width="2" fill="none"></polyline>
<polyline points="1310.01,1880.31,5902,1747.55" stroke="rgb(0,148,255)" stroke-width="2" fill="none"></polyline>
<polyline points="1656.19,1577.66,5446.18,1814.36" stroke="rgb(255,72,0)" stroke-width="2" fill="none"></polyline>
<polyline points="1883.27,1576.68,5589.78,2008.41" stroke="rgb(255,148,0)" stroke-width="2" fill="none"></polyline>
<polyline points="1648.12,1582.5,5456.12,1816.01" stroke="rgb(255,0,33)" stroke-width="2" fill="none"></polyline>
<polyline points="1533.78,1506.43,5755.43,2037.38" stroke="rgb(0,38,255)" stroke-width="2" fill="none"></polyline>
<polyline points="1208.5,2437.64,5377.63,2619.75" stroke="rgb(255,0,208)" stroke-width="2" fill="none"></polyline>
<polyline points="991.891,2248.62,6513.73,2057.79" stroke="rgb(0,255,80)" stroke-width="2" fill="none"></polyline>
<polyline points="991.891,2248.62,6157.23,2064.83" stroke="rgb(80,255,0)" stroke-width="2" fill="none"></polyline>
<polyline points="1451.1,1255.93,5372.43,2638.18" stroke="rgb(0,255,42)" stroke-width="2" fill="none"></polyline>
<polyline points="1208.5,2437.64,5615.78,2703.35" stroke="rgb(255,127,0)" stroke-width="2" fill="none"></polyline>
<polyline points="979.873,2239.93,6316.76,2088.3" stroke="rgb(8,255,0)" stroke-width="2" fill="none"></polyline>
<polyline points="1768.28,2243.65,6501.31,1885.56" stroke="rgb(255,216,0)" stroke-width="2" fill="none"></polyline>
<polyline points="2063.27,1071.95,5345.69,1898.81" stroke="rgb(0,255,135)" stroke-width="2" fill="none"></polyline>
<polyline points="2642.7,1494.35,5794.68,1911.89" stroke="rgb(59,255,0)" stroke-width="2" fill="none"></polyline>
<polyline points="1660.8,1684,5533.49,1715.19" stroke="rgb(255,85,0)" stroke-width="2" fill="none"></polyline>
<polyline points="1648.93,1651.09,5511.74,1751.79" stroke="rgb(12,0,255)" stroke-width="2" fill="none"></polyline>
<polyline points="1655.34,1621.65,5619.51,1769.05" stroke="rgb(255,21,0)" stroke-width="2" fill="none"></polyline>
<polyline points="1208.5,2437.64,5440.54,2636.35" stroke="rgb(178,255,0)" stroke-width="2" fill="none"></polyline>
<polyline points="1208.5,2437.64,5555.82,2689.76" stroke="rgb(0,255,42)" stroke-width="2" fill="none"></polyline>
<polyline points="1640.59,1588.96,5469.91,1817.46" stroke="rgb(4,0,255)" stroke-width="2" fill="none"></polyline>
<polyline points="1250.08,1927.82,6593.28,1543.26" stroke="rgb(21,0,255)" stroke-width="2" fill="none"></polyline>
<polyline points="1648.35,1517.15,5404.47,1876.14" stroke="rgb(255,191,0)" stroke-width="2" fill="none"></polyline>
<polyline points="1600,1966.97,5895.99,1727.73" stroke="rgb(38,255,0)" stroke-width="2" fill="none"></polyline>
<polyline points="1661.19,1645.27,5498.45,1749.27" stroke="rgb(161,255,0)" stroke-width="2" fill="none"></polyline>
<polyline points="1736.92,1896.44,5671.41,1479.71" stroke="rgb(169,255,0)" stroke-width="2" fill="none"></polyline>
<polyline points="1655.34,1621.65,5482.03,1773.91" stroke="rgb(0,255,216)" stroke-width="2" fill="none"></polyline>
<polyline points="1372.47,1745.49,6675.93,1795.11" stroke="rgb(101,255,0)" stroke-width="2" fill="none"></polyline>
<polyline points="1679.89,1537.24,5399.93,1832.56" stroke="rgb(0,199,255)" stroke-width="2" fill="none"></polyline>
<polyline points="1652.48,1548.66,5425.49,1843.87" stroke="rgb(42,0,255)" stroke-width="2" fill="none"></polyline>
<polyline points="1672.24,1555.89,5419.32,1822.11" stroke="rgb(67,255,0)" stroke-width="2" fill="none"></polyline>
<polyline points="1651.97,1473.15,5368.01,1911.28" stroke="rgb(0,255,152)" stroke-width="2" fill="none"></polyline>
<polyline points="1659.87,1535.93,5410.3,1849.42" stroke="rgb(255,0,136)" stroke-width="2" fill="none"></polyline>
<polyline points="1664.91,1510.49,5387.36,1868.16" stroke="rgb(0,255,4)" stroke-width="2" fill="none"></polyline>
<polyline points="1651.03,1462.4,5359.25,1922.45" stroke="rgb(0,203,255)" stroke-width="2" fill="none"></polyline>
<polyline points="1193.49,2327.04,5679.86,1970.22" stroke="rgb(255,0,169)" stroke-width="2" fill="none"></polyline>
<polyline points="1631.91,1407.47,5502.89,2119.2" stroke="rgb(0,67,255)" stroke-width="2" fill="none"></polyline>
<polyline points="1492.59,1668.81,5646.13,2340.07" stroke="rgb(0,255,97)" stroke-width="2" fill="none"></polyline>
<polyline points="1722.06,2259.61,5412.22,2299.37" stroke="rgb(255,0,123)" stroke-width="2" fill="none"></polyline>
<polyline points="1135.72,2122.41,5102.55,2240.03" stroke="rgb(0,182,255)" stroke-width="2" fill="none"></polyline>
<polyline points="1492.59,1668.81,5647.21,2343.08" stroke="rgb(140,0,255)" stroke-width="2" fill="none"></polyline>
<polyline points="1517.65,1283.67,7015.71,1397.73" stroke="rgb(255,4,0)" stroke-width="2" fill="none"></polyline>
<polyline points="1880.76,2239.42,6249.88,1509.53" stroke="rgb(0,225,255)" stroke-width="2" fill="none"></polyline>
<polyline points="1678.26,1715.33,5484.68,2103.31" stroke="rgb(0,182,255)" stroke-width="2" fill="none"></polyline>
<polyline points="1575.83,2110.16,5870.97,1485.65" stroke="rgb(0,255,144)" stroke-width="2" fill="none"></polyline>
<circle cx="1584.51" cy="1922.23" r="4" stroke="rgb(148,255,0)" stroke-width="2" fill="none"></circle>
<circle cx="6483.99" cy="878.538" r="4" stroke="rgb(148,255,0)" stroke-width="2" fill="none"></circle>
<circle cx="1722.83" cy="1784.59" r="4" stroke="rgb(255,0,161)" stroke-width="2" fill="none"></circle>
<circle cx="5644.28" cy="2139.68" r="4" stroke="rgb(255,0,161)" stroke-width="2" fill="none"></circle>
<circle cx="2453.6" cy="2326.03" r="4" stroke="rgb(0,255,110)" stroke-width="2" fill="none"></circle>
<circle cx="5417.12" cy="1787.26" r="4" stroke="rgb(0,255,110)" stroke-width="2" fill="none"></circle>
<circle cx="991.891" cy="2248.62" r="4" stroke="rgb(76,255,0)" stroke-width="2" fill="none"></circle>
<circle cx="6699.57" cy="1789.27" r="4" stroke="rgb(76,255,0)" stroke-width="2" fill="none"></circle>
<circle cx="1263.49" cy="1898.45" r="4" stroke="rgb(38,0,255)" stroke-width="2" fill="none"></circle>
<circle cx="5775.54" cy="2282.86" r="4" stroke="rgb(38,0,255)" stroke-width="2" fill="none"></circle>
<circle cx="1433.11" cy="1082.14" r="4" stroke="rgb(255,208,0)" stroke-width="2" fill="none"></circle>
<circle cx="6054.34" cy="1225.87" r="4" stroke="rgb(255,208,0)" stroke-width="2" fill="none"></circle>
<circle cx="1309.16" cy="2486.92" r="4" stroke="rgb(0,85,255)" stroke-width="2" fill="none"></circle>
<circle cx="6088.98" cy="1121.36" r="4" stroke="rgb(0,85,255)" stroke-width="2" fill="none"></circle>
<circle cx="991.891" cy="2248.62" r="4" stroke="rgb(123,255,0)" stroke-width="2" fill="none"></circle>
<circle cx="6793.23" cy="1124.56" r="4" stroke="rgb(123,255,0)" stroke-width="2" fill="none"></circle>
<circle cx="991.891" cy="2248.62" r="4" stroke="rgb(255,80,0)" stroke-width="2" fill="none"></circle>
<circle cx="6736.15" cy="1161.46" r="4" stroke="rgb(255,80,0)" stroke-width="2" fill="none"></circle>
<circle cx="1521.05" cy="1288.98" r="4" stroke="rgb(0,110,255)" stroke-width="2" fill="none"></circle>
<circle cx="6875.79" cy="1198.58" r="4" stroke="rgb(0,110,255)" stroke-width="2" fill="none"></circle>
<circle cx="1309.16" cy="2486.92" r="4" stroke="rgb(246,255,0)" stroke-width="2" fill="none"></circle>
<circle cx="6764.76" cy="1092.24" r="4" stroke="rgb(246,255,0)" stroke-width="2" fill="none"></circle>
<circle cx="991.891" cy="2248.62" r="4" stroke="rgb(0,169,255)" stroke-width="2" fill="none"></circle>
<circle cx="6791.25" cy="1804.28" r="4" stroke="rgb(0,169,255)" stroke-width="2" fill="none"></circle>
<circle cx="1562.23" cy="1417.02" r="4" stroke="rgb(85,0,255)" stroke-width="2" fill="none"></circle>
<circle cx="6888.85" cy="1239.13" r="4" stroke="rgb(85,0,255)" stroke-width="2" fill="none"></circle>
<circle cx="1893.86" cy="1426.65" r="4" stroke="rgb(59,255,0)" stroke-width="2" fill="none"></circle>
<circle cx="5639.74" cy="1810.51" r="4" stroke="rgb(59,255,0)" stroke-width="2" fill="none"></circle>
<circle cx="991.891" cy="2248.62" r="4" stroke="rgb(0,255,0)" stroke-width="2" fill="none"></circle>
<circle cx="6674.64" cy="1133.19" r="4" stroke="rgb(0,255,0)" stroke-width="2" fill="none"></circle>
<circle cx="991.891" cy="2248.62" r="4" stroke="rgb(110,255,0)" stroke-width="2" fill="none"></circle>
<circle cx="6697.02" cy="1152.67" r="4" stroke="rgb(110,255,0)" stroke-width="2" fill="none"></circle>
<circle cx="991.891" cy="2248.62" r="4" stroke="rgb(157,0,255)" stroke-width="2" fill="none"></circle>
<circle cx="6747.05" cy="1190.25" r="4" stroke="rgb(157,0,255)" stroke-width="2" fill="none"></circle>
<circle cx="1722.83" cy="1784.59" r="4" stroke="rgb(255,0,123)" stroke-width="2" fill="none"></circle>
<circle cx="5522.87" cy="2372.84" r="4" stroke="rgb(255,0,123)" stroke-width="2" fill="none"></circle>
<circle cx="1722.83" cy="1784.59" r="4" stroke="rgb(89,255,0)" stroke-width="2" fill="none"></circle>
<circle cx="5598.29" cy="2238.22" r="4" stroke="rgb(89,255,0)" stroke-width="2" fill="none"></circle>
<circle cx="1978.58" cy="2091.66" r="4" stroke="rgb(255,0,4)" stroke-width="2" fill="none"></circle>
<circle cx="6404.85" cy="2032.69" r="4" stroke="rgb(255,0,4)" stroke-width="2" fill="none"></circle>
<circle cx="1439.93" cy="1511.74" r="4" stroke="rgb(0,255,101)" stroke-width="2" fill="none"></circle>
<circle cx="6471.17" cy="1270.91" r="4" stroke="rgb(0,255,101)" stroke-width="2" fill="none"></circle>
<circle cx="1533.78" cy="1506.43" r="4" stroke="rgb(102,0,255)" stroke-width="2" fill="none"></circle>
<circle cx="6445.54" cy="1341.49" r="4" stroke="rgb(102,0,255)" stroke-width="2" fill="none"></circle>
<circle cx="1263.49" cy="1898.45" r="4" stroke="rgb(67,255,0)" stroke-width="2" fill="none"></circle>
<circle cx="5612.91" cy="2384.33" r="4" stroke="rgb(67,255,0)" stroke-width="2" fill="none"></circle>
<circle cx="1439.93" cy="1511.74" r="4" stroke="rgb(0,255,114)" stroke-width="2" fill="none"></circle>
<circle cx="6538.63" cy="1274.44" r="4" stroke="rgb(0,255,114)" stroke-width="2" fill="none"></circle>
<circle cx="991.891" cy="2248.62" r="4" stroke="rgb(0,46,255)" stroke-width="2" fill="none"></circle>
<circle cx="6728.8" cy="1844.78" r="4" stroke="rgb(0,46,255)" stroke-width="2" fill="none"></circle>
<circle cx="2236.76" cy="1409.2" r="4" stroke="rgb(255,0,4)" stroke-width="2" fill="none"></circle>
<circle cx="6635.42" cy="2277.86" r="4" stroke="rgb(255,0,4)" stroke-width="2" fill="none"></circle>
<circle cx="2642.7" cy="1494.35" r="4" stroke="rgb(0,55,255)" stroke-width="2" fill="none"></circle>
<circle cx="5769.07" cy="2286.43" r="4" stroke="rgb(0,55,255)" stroke-width="2" fill="none"></circle>
<circle cx="2279.28" cy="2289.46" r="4" stroke="rgb(255,199,0)" stroke-width="2" fill="none"></circle>
<circle cx="7038.17" cy="1670.24" r="4" stroke="rgb(255,199,0)" stroke-width="2" fill="none"></circle>
<circle cx="1643.33" cy="1732.48" r="4" stroke="rgb(255,0,136)" stroke-width="2" fill="none"></circle>
<circle cx="5589.59" cy="1681.08" r="4" stroke="rgb(255,0,136)" stroke-width="2" fill="none"></circle>
<circle cx="991.891" cy="2248.62" r="4" stroke="rgb(0,255,93)" stroke-width="2" fill="none"></circle>
<circle cx="6319.27" cy="2065.82" r="4" stroke="rgb(0,255,93)" stroke-width="2" fill="none"></circle>
<circle cx="991.891" cy="2248.62" r="4" stroke="rgb(127,255,0)" stroke-width="2" fill="none"></circle>
<circle cx="6210.67" cy="2314.49" r="4" stroke="rgb(127,255,0)" stroke-width="2" fill="none"></circle>
<circle cx="2390.35" cy="1743.02" r="4" stroke="rgb(191,0,255)" stroke-width="2" fill="none"></circle>
<circle cx="5879.63" cy="1394.16" r="4" stroke="rgb(191,0,255)" stroke-width="2" fill="none"></circle>
<circle cx="1208.5" cy="2437.64" r="4" stroke="rgb(63,255,0)" stroke-width="2" fill="none"></circle>
<circle cx="5812.2" cy="2568.82" r="4" stroke="rgb(63,255,0)" stroke-width="2" fill="none"></circle>
<circle cx="1638.49" cy="1704.52" r="4" stroke="rgb(0,17,255)" stroke-width="2" fill="none"></circle>
<circle cx="5565.75" cy="1709.77" r="4" stroke="rgb(0,17,255)" stroke-width="2" fill="none"></circle>
<circle cx="1208.5" cy="2437.64" r="4" stroke="rgb(255,114,0)" stroke-width="2" fill="none"></circle>
<circle cx="5795.21" cy="2592.66" r="4" stroke="rgb(255,114,0)" stroke-width="2" fill="none"></circle>
<circle cx="1632.39" cy="1709.64" r="4" stroke="rgb(255,0,25)" stroke-width="2" fill="none"></circle>
<circle cx="5574.32" cy="1710.42" r="4" stroke="rgb(255,0,25)" stroke-width="2" fill="none"></circle>
<circle cx="1302.95" cy="2514.3" r="4" stroke="rgb(0,255,161)" stroke-width="2" fill="none"></circle>
<circle cx="6052.6" cy="1408.7" r="4" stroke="rgb(0,255,161)" stroke-width="2" fill="none"></circle>
<circle cx="1208.5" cy="2437.64" r="4" stroke="rgb(0,255,0)" stroke-width="2" fill="none"></circle>
<circle cx="5777.43" cy="2619.57" r="4" stroke="rgb(0,255,0)" stroke-width="2" fill="none"></circle>
<circle cx="991.891" cy="2248.62" r="4" stroke="rgb(255,0,182)" stroke-width="2" fill="none"></circle>
<circle cx="6182.93" cy="2362.93" r="4" stroke="rgb(255,0,182)" stroke-width="2" fill="none"></circle>
<circle cx="2417.39" cy="1904.75" r="4" stroke="rgb(255,208,0)" stroke-width="2" fill="none"></circle>
<circle cx="6468.96" cy="1402.73" r="4" stroke="rgb(255,208,0)" stroke-width="2" fill="none"></circle>
<circle cx="991.891" cy="2248.62" r="4" stroke="rgb(0,144,255)" stroke-width="2" fill="none"></circle>
<circle cx="6125.92" cy="2388.56" r="4" stroke="rgb(0,144,255)" stroke-width="2" fill="none"></circle>
<circle cx="1945.03" cy="1297.16" r="4" stroke="rgb(255,85,0)" stroke-width="2" fill="none"></circle>
<circle cx="5835.83" cy="1440.29" r="4" stroke="rgb(255,85,0)" stroke-width="2" fill="none"></circle>
<circle cx="1613.09" cy="1745.39" r="4" stroke="rgb(38,0,255)" stroke-width="2" fill="none"></circle>
<circle cx="5334.42" cy="1905.88" r="4" stroke="rgb(38,0,255)" stroke-width="2" fill="none"></circle>
<circle cx="2379.82" cy="1941.22" r="4" stroke="rgb(59,255,0)" stroke-width="2" fill="none"></circle>
<circle cx="5824.37" cy="1418.17" r="4" stroke="rgb(59,255,0)" stroke-width="2" fill="none"></circle>
<circle cx="1670.76" cy="1642.3" r="4" stroke="rgb(255,0,8)" stroke-width="2" fill="none"></circle>
<circle cx="5490.17" cy="1745.24" r="4" stroke="rgb(255,0,8)" stroke-width="2" fill="none"></circle>
<circle cx="1641.59" cy="1659.3" r="4" stroke="rgb(8,0,255)" stroke-width="2" fill="none"></circle>
<circle cx="5523.97" cy="1750.58" r="4" stroke="rgb(8,0,255)" stroke-width="2" fill="none"></circle>
<circle cx="1751.28" cy="1953.72" r="4" stroke="rgb(203,255,0)" stroke-width="2" fill="none"></circle>
<circle cx="5737.03" cy="1426.58" r="4" stroke="rgb(203,255,0)" stroke-width="2" fill="none"></circle>
<circle cx="1452.73" cy="1381.62" r="4" stroke="rgb(148,0,255)" stroke-width="2" fill="none"></circle>
<circle cx="6566.4" cy="1758.87" r="4" stroke="rgb(148,0,255)" stroke-width="2" fill="none"></circle>
<circle cx="1208.5" cy="2437.64" r="4" stroke="rgb(0,114,255)" stroke-width="2" fill="none"></circle>
<circle cx="5817.19" cy="2562.82" r="4" stroke="rgb(0,114,255)" stroke-width="2" fill="none"></circle>
<circle cx="1673.39" cy="1618.06" r="4" stroke="rgb(255,182,0)" stroke-width="2" fill="none"></circle>
<circle cx="5468.3" cy="1764.61" r="4" stroke="rgb(255,182,0)" stroke-width="2" fill="none"></circle>
<circle cx="1710.44" cy="1493.13" r="4" stroke="rgb(144,0,255)" stroke-width="2" fill="none"></circle>
<circle cx="5871.19" cy="1505.68" r="4" stroke="rgb(144,0,255)" stroke-width="2" fill="none"></circle>
<circle cx="1651.81" cy="1628.5" r="4" stroke="rgb(255,0,8)" stroke-width="2" fill="none"></circle>
<circle cx="5490.29" cy="1771.53" r="4" stroke="rgb(255,0,8)" stroke-width="2" fill="none"></circle>
<circle cx="1842.82" cy="1016.12" r="4" stroke="rgb(0,255,250)" stroke-width="2" fill="none"></circle>
<circle cx="5826.03" cy="2619.09" r="4" stroke="rgb(0,255,250)" stroke-width="2" fill="none"></circle>
<circle cx="1722.83" cy="1784.59" r="4" stroke="rgb(46,0,255)" stroke-width="2" fill="none"></circle>
<circle cx="5991.76" cy="1777.78" r="4" stroke="rgb(46,0,255)" stroke-width="2" fill="none"></circle>
<circle cx="979.873" cy="2239.93" r="4" stroke="rgb(255,72,0)" stroke-width="2" fill="none"></circle>
<circle cx="6287.56" cy="1958.8" r="4" stroke="rgb(255,72,0)" stroke-width="2" fill="none"></circle>
<circle cx="1250.08" cy="1927.82" r="4" stroke="rgb(255,208,0)" stroke-width="2" fill="none"></circle>
<circle cx="6593.11" cy="1543.23" r="4" stroke="rgb(255,208,0)" stroke-width="2" fill="none"></circle>
<circle cx="1652.97" cy="1603.04" r="4" stroke="rgb(0,255,8)" stroke-width="2" fill="none"></circle>
<circle cx="5468.34" cy="1793.98" r="4" stroke="rgb(0,255,8)" stroke-width="2" fill="none"></circle>
<circle cx="991.891" cy="2248.62" r="4" stroke="rgb(16,255,0)" stroke-width="2" fill="none"></circle>
<circle cx="5563.53" cy="2672.3" r="4" stroke="rgb(16,255,0)" stroke-width="2" fill="none"></circle>
<circle cx="2417.39" cy="1904.75" r="4" stroke="rgb(101,255,0)" stroke-width="2" fill="none"></circle>
<circle cx="6455.63" cy="1803.98" r="4" stroke="rgb(101,255,0)" stroke-width="2" fill="none"></circle>
<circle cx="1205.39" cy="2468.16" r="4" stroke="rgb(127,255,0)" stroke-width="2" fill="none"></circle>
<circle cx="6920.92" cy="1653.24" r="4" stroke="rgb(127,255,0)" stroke-width="2" fill="none"></circle>
<circle cx="1263.49" cy="1898.45" r="4" stroke="rgb(80,0,255)" stroke-width="2" fill="none"></circle>
<circle cx="6091.99" cy="1998.28" r="4" stroke="rgb(80,0,255)" stroke-width="2" fill="none"></circle>
<circle cx="1635.01" cy="1727.57" r="4" stroke="rgb(255,246,0)" stroke-width="2" fill="none"></circle>
<circle cx="5589.9" cy="1691.01" r="4" stroke="rgb(255,246,0)" stroke-width="2" fill="none"></circle>
<circle cx="1850.6" cy="1704" r="4" stroke="rgb(255,63,0)" stroke-width="2" fill="none"></circle>
<circle cx="5330.41" cy="2016.99" r="4" stroke="rgb(255,63,0)" stroke-width="2" fill="none"></circle>
<circle cx="1746.81" cy="1303.1" r="4" stroke="rgb(255,17,0)" stroke-width="2" fill="none"></circle>
<circle cx="5540.6" cy="2042.95" r="4" stroke="rgb(255,17,0)" stroke-width="2" fill="none"></circle>
<circle cx="1642.31" cy="1715.28" r="4" stroke="rgb(233,0,255)" stroke-width="2" fill="none"></circle>
<circle cx="5573.46" cy="1698.19" r="4" stroke="rgb(233,0,255)" stroke-width="2" fill="none"></circle>
<circle cx="1628.78" cy="1715.59" r="4" stroke="rgb(148,0,255)" stroke-width="2" fill="none"></circle>
<circle cx="5582.21" cy="1708.38" r="4" stroke="rgb(148,0,255)" stroke-width="2" fill="none"></circle>
<circle cx="1664.05" cy="1632.6" r="4" stroke="rgb(0,42,255)" stroke-width="2" fill="none"></circle>
<circle cx="5486.02" cy="1759.57" r="4" stroke="rgb(0,42,255)" stroke-width="2" fill="none"></circle>
<circle cx="1521.05" cy="1288.98" r="4" stroke="rgb(255,0,148)" stroke-width="2" fill="none"></circle>
<circle cx="6378.13" cy="2065.41" r="4" stroke="rgb(255,0,148)" stroke-width="2" fill="none"></circle>
<circle cx="1533.78" cy="1506.43" r="4" stroke="rgb(255,148,0)" stroke-width="2" fill="none"></circle>
<circle cx="6102.56" cy="1935.35" r="4" stroke="rgb(255,148,0)" stroke-width="2" fill="none"></circle>
<circle cx="1049.58" cy="2191.98" r="4" stroke="rgb(0,225,255)" stroke-width="2" fill="none"></circle>
<circle cx="6428.48" cy="1771.36" r="4" stroke="rgb(0,225,255)" stroke-width="2" fill="none"></circle>
<circle cx="1671.17" cy="1609.56" r="4" stroke="rgb(255,59,0)" stroke-width="2" fill="none"></circle>
<circle cx="5464.26" cy="1773.84" r="4" stroke="rgb(255,59,0)" stroke-width="2" fill="none"></circle>
<circle cx="1836.24" cy="983.629" r="4" stroke="rgb(29,255,0)" stroke-width="2" fill="none"></circle>
<circle cx="6271.1" cy="2086.73" r="4" stroke="rgb(29,255,0)" stroke-width="2" fill="none"></circle>
<circle cx="991.891" cy="2248.62" r="4" stroke="rgb(0,140,255)" stroke-width="2" fill="none"></circle>
<circle cx="6273.56" cy="1965.26" r="4" stroke="rgb(0,140,255)" stroke-width="2" fill="none"></circle>
<circle cx="1719.37" cy="1339.99" r="4" stroke="rgb(0,255,63)" stroke-width="2" fill="none"></circle>
<circle cx="5420.6" cy="1975.18" r="4" stroke="rgb(0,255,63)" stroke-width="2" fill="none"></circle>
<circle cx="991.891" cy="2248.62" r="4" stroke="rgb(123,255,0)" stroke-width="2" fill="none"></circle>
<circle cx="6850.66" cy="1745.48" r="4" stroke="rgb(123,255,0)" stroke-width="2" fill="none"></circle>
<circle cx="1310.01" cy="1880.31" r="4" stroke="rgb(0,148,255)" stroke-width="2" fill="none"></circle>
<circle cx="5902" cy="1747.55" r="4" stroke="rgb(0,148,255)" stroke-width="2" fill="none"></circle>
<circle cx="1656.19" cy="1577.66" r="4" stroke="rgb(255,72,0)" stroke-width="2" fill="none"></circle>
<circle cx="5446.18" cy="1814.36" r="4" stroke="rgb(255,72,0)" stroke-width="2" fill="none"></circle>
<circle cx="1883.27" cy="1576.68" r="4" stroke="rgb(255,148,0)" stroke-width="2" fill="none"></circle>
<circle cx="5589.78" cy="2008.41" r="4" stroke="rgb(255,148,0)" stroke-width="2" fill="none"></circle>
<circle cx="1648.12" cy="1582.5" r="4" stroke="rgb(255,0,33)" stroke-width="2" fill="none"></circle>
<circle cx="5456.12" cy="1816.01" r="4" stroke="rgb(255,0,33)" stroke-width="2" fill="none"></circle>
<circle cx="1533.78" cy="1506.43" r="4" stroke="rgb(0,38,255)" stroke-width="2" fill="none"></circle>
<circle cx="5755.43" cy="2037.38" r="4" stroke="rgb(0,38,255)" stroke-width="2" fill="none"></circle>
<circle cx="1208.5" cy="2437.64" r="4" stroke="rgb(255,0,208)" stroke-width="2" fill="none"></circle>
<circle cx="5377.63" cy="2619.75" r="4" stroke="rgb(255,0,208)" stroke-width="2" fill="none"></circle>
<circle cx="991.891" cy="2248.62" r="4" stroke="rgb(0,255,80)" stroke-width="2" fill="none"></circle>
<circle cx="6513.73" cy="2057.79" r="4" stroke="rgb(0,255,80)" stroke-width="2" fill="none"></circle>
<circle cx="991.891" cy="2248.62" r="4" stroke="rgb(80,255,0)" stroke-width="2" fill="none"></circle>
<circle cx="6157.23" cy="2064.83" r="4" stroke="rgb(80,255,0)" stroke-width="2" fill="none"></circle>
<circle cx="1451.1" cy="1255.93" r="4" stroke="rgb(0,255,42)" stroke-width="2" fill="none"></circle>
<circle cx="5372.43" cy="2638.18" r="4" stroke="rgb(0,255,42)" stroke-width="2" fill="none"></circle>
<circle cx="1208.5" cy="2437.64" r="4" stroke="rgb(255,127,0)" stroke-width="2" fill="none"></circle>
<circle cx="5615.78" cy="2703.35" r="4" stroke="rgb(255,127,0)" stroke-width="2" fill="none"></circle>
<circle cx="979.873" cy="2239.93" r="4" stroke="rgb(8,255,0)" stroke-width="2" fill="none"></circle>
<circle cx="6316.76" cy="2088.3" r="4" stroke="rgb(8,255,0)" stroke-width="2" fill="none"></circle>
<circle cx="1768.28" cy="2243.65" r="4" stroke="rgb(255,216,0)" stroke-width="2" fill="none"></circle>
<circle cx="6501.31" cy="1885.56" r="4" stroke="rgb(255,216,0)" stroke-width="2" fill="none"></circle>
<circle cx="2063.27" cy="1071.95" r="4" stroke="rgb(0,255,135)" stroke-width="2" fill="none"></circle>
<circle cx="5345.69" cy="1898.81" r="4" stroke="rgb(0,255,135)" stroke-width="2" fill="none"></circle>
<circle cx="2642.7" cy="1494.35" r="4" stroke="rgb(59,255,0)" stroke-width="2" fill="none"></circle>
<circle cx="5794.68" cy="1911.89" r="4" stroke="rgb(59,255,0)" stroke-width="2" fill="none"></circle>
<circle cx="1660.8" cy="1684" r="4" stroke="rgb(255,85,0)" stroke-width="2" fill="none"></circle>
<circle cx="5533.49" cy="1715.19" r="4" stroke="rgb(255,85,0)" stroke-width="2" fill="none"></circle>
<circle cx="1648.93" cy="1651.09" r="4" stroke="rgb(12,0,255)" stroke-width="2" fill="none"></circle>
<circle cx="5511.74" cy="1751.79" r="4" stroke="rgb(12,0,255)" stroke-width="2" fill="none"></circle>
<circle cx="1655.34" cy="1621.65" r="4" stroke="rgb(255,21,0)" stroke-width="2" fill="none"></circle>
<circle cx="5619.51" cy="1769.05" r="4" stroke="rgb(255,21,0)" stroke-width="2" fill="none"></circle>
<circle cx="1208.5" cy="2437.64" r="4" stroke="rgb(178,255,0)" stroke-width="2" fill="none"></circle>
<circle cx="5440.54" cy="2636.35" r="4" stroke="rgb(178,255,0)" stroke-width="2" fill="none"></circle>
<circle cx="1208.5" cy="2437.64" r="4" stroke="rgb(0,255,42)" stroke-width="2" fill="none"></circle>
<circle cx="5555.82" cy="2689.76" r="4" stroke="rgb(0,255,42)" stroke-width="2" fill="none"></circle>
<circle cx="1640.59" cy="1588.96" r="4" stroke="rgb(4,0,255)" stroke-width="2" fill="none"></circle>
<circle cx="5469.91" cy="1817.46" r="4" stroke="rgb(4,0,255)" stroke-width="2" fill="none"></circle>
<circle cx="1250.08" cy="1927.82" r="4" stroke="rgb(21,0,255)" stroke-width="2" fill="none"></circle>
<circle cx="6593.28" cy="1543.26" r="4" stroke="rgb(21,0,255)" stroke-width="2" fill="none"></circle>
<circle cx="1648.35" cy="1517.15" r="4" stroke="rgb(255,191,0)" stroke-width="2" fill="none"></circle>
<circle cx="5404.47" cy="1876.14" r="4" stroke="rgb(255,191,0)" stroke-width="2" fill="none"></circle>
<circle cx="1600" cy="1966.97" r="4" stroke="rgb(38,255,0)" stroke-width="2" fill="none"></circle>
<circle cx="5895.99" cy="1727.73" r="4" stroke="rgb(38,255,0)" stroke-width="2" fill="none"></circle>
<circle cx="1661.19" cy="1645.27" r="4" stroke="rgb(161,255,0)" stroke-width="2" fill="none"></circle>
<circle cx="5498.45" cy="1749.27" r="4" stroke="rgb(161,255,0)" stroke-width="2" fill="none"></circle>
<circle cx="1736.92" cy="1896.44" r="4" stroke="rgb(169,255,0)" stroke-width="2" fill="none"></circle>
<circle cx="5671.41" cy="1479.71" r="4" stroke="rgb(169,255,0)" stroke-width="2" fill="none"></circle>
<circle cx="1655.34" cy="1621.65" r="4" stroke="rgb(0,255,216)" stroke-width="2" fill="none"></circle>
<circle cx="5482.03" cy="1773.91" r="4" stroke="rgb(0,255,216)" stroke-width="2" fill="none"></circle>
<circle cx="1372.47" cy="1745.49" r="4" stroke="rgb(101,255,0)" stroke-width="2" fill="none"></circle>
<circle cx="6675.93" cy="1795.11" r="4" stroke="rgb(101,255,0)" stroke-width="2" fill="none"></circle>
<circle cx="1679.89" cy="1537.24" r="4" stroke="rgb(0,199,255)" stroke-width="2" fill="none"></circle>
<circle cx="5399.93" cy="1832.56" r="4" stroke="rgb(0,199,255)" stroke-width="2" fill="none"></circle>
<circle cx="1652.48" cy="1548.66" r="4" stroke="rgb(42,0,255)" stroke-width="2" fill="none"></circle>
<circle cx="5425.49" cy="1843.87" r="4" stroke="rgb(42,0,255)" stroke-width="2" fill="none"></circle>
<circle cx="1672.24" cy="1555.89" r="4" stroke="rgb(67,255,0)" stroke-width="2" fill="none"></circle>
<circle cx="5419.32" cy="1822.11" r="4" stroke="rgb(67,255,0)" stroke-width="2" fill="none"></circle>
<circle cx="1651.97" cy="1473.15" r="4" stroke="rgb(0,255,152)" stroke-width="2" fill="none"></circle>
<circle cx="5368.01" cy="1911.28" r="4" stroke="rgb(0,255,152)" stroke-width="2" fill="none"></circle>
<circle cx="1659.87" cy="1535.93" r="4" stroke="rgb(255,0,136)" stroke-width="2" fill="none"></circle>
<circle cx="5410.3" cy="1849.42" r="4" stroke="rgb(255,0,136)" stroke-width="2" fill="none"></circle>
<circle cx="1664.91" cy="1510.49" r="4" stroke="rgb(0,255,4)" stroke-width="2" fill="none"></circle>
<circle cx="5387.36" cy="1868.16" r="4" stroke="rgb(0,255,4)" stroke-width="2" fill="none"></circle>
<circle cx="1651.03" cy="1462.4" r="4" stroke="rgb(0,203,255)" stroke-width="2" fill="none"></circle>
<circle cx="5359.25" cy="1922.45" r="4" stroke="rgb(0,203,255)" stroke-width="2" fill="none"></circle>
<circle cx="1193.49" cy="2327.04" r="4" stroke="rgb(255,0,169)" stroke-width="2" fill="none"></circle>
<circle cx="5679.86" cy="1970.22" r="4" stroke="rgb(255,0,169)" stroke-width="2" fill="none"></circle>
<circle cx="1631.91" cy="1407.47" r="4" stroke="rgb(0,67,255)" stroke-width="2" fill="none"></circle>
<circle cx="5502.89" cy="2119.2" r="4" stroke="rgb(0,67,255)" stroke-width="2" fill="none"></circle>
<circle cx="1492.59" cy="1668.81" r="4" stroke="rgb(0,255,97)" stroke-width="2" fill="none"></circle>
<circle cx="5646.13" cy="2340.07" r="4" stroke="rgb(0,255,97)" stroke-width="2" fill="none"></circle>
<circle cx="1722.06" cy="2259.61" r="4" stroke="rgb(255,0,123)" stroke-width="2" fill="none"></circle>
<circle cx="5412.22" cy="2299.37" r="4" stroke="rgb(255,0,123)" stroke-width="2" fill="none"></circle>
<circle cx="1135.72" cy="2122.41" r="4" stroke="rgb(0,182,255)" stroke-width="2" fill="none"></circle>
<circle cx="5102.55" cy="2240.03" r="4" stroke="rgb(0,182,255)" stroke-width="2" fill="none"></circle>
<circle cx="1492.59" cy="1668.81" r="4" stroke="rgb(140,0,255)" stroke-width="2" fill="none"></circle>
<circle cx="5647.21" cy="2343.08" r="4" stroke="rgb(140,0,255)" stroke-width="2" fill="none"></circle>
<circle cx="1517.65" cy="1283.67" r="4" stroke="rgb(255,4,0)" stroke-width="2" fill="none"></circle>
<circle cx="7015.71" cy="1397.73" r="4" stroke="rgb(255,4,0)" stroke-width="2" fill="none"></circle>
<circle cx="1880.76" cy="2239.42" r="4" stroke="rgb(0,225,255)" stroke-width="2" fill="none"></circle>
<circle cx="6249.88" cy="1509.53" r="4" stroke="rgb(0,225,255)" stroke-width="2" fill="none"></circle>
<circle cx="1678.26" cy="1715.33" r="4" stroke="rgb(0,182,255)" stroke-width="2" fill="none"></circle>
<circle cx="5484.68" cy="2103.31" r="4" stroke="rgb(0,182,255)" stroke-width="2" fill="none"></circle>
<circle cx="1575.83" cy="2110.16" r="4" stroke="rgb(0,255,144)" stroke-width="2" fill="none"></circle>
<circle cx="5870.97" cy="1485.65" r="4" stroke="rgb(0,255,144)" stroke-width="2" fill="none"></circle>
</svg>