<?xml version="1.0" standalone="yes"?>
<!-- SVG graphic -->
<svg xmlns='http://www.w3.org/2000/svg' xmlns:xlink='http://www.w3.org/1999/xlink'
width="8064px" height="3024px" preserveAspectRatio="xMinYMin meet" viewBox="0 0 8064 3024" version="1.1">
<image x="0" y="0" width="4032px" height="3024px" opacity="1" xlink:href="/home/jeong/Code/2D-to-3D-Modeling-using-AI/Make3D/Image/20200227_180712.jpg"/>
<image x="4032" y="0" width="4032px" height="3024px" opacity="1" xlink:href="/home/jeong/Code/2D-to-3D-Modeling-using-AI/Make3D/Image/20200227_180722.jpg"/>
<polyline points="1504.65,796.061,6493.12,2330.16" stroke="rgb(46,255,0)" stroke-width="2" fill="none"></polyline>
<polyline points="1410.95,894.334,6504.76,2290.47" stroke="rgb(0,255,216)" stroke-width="2" fill="none"></polyline>
<polyline points="1364.14,989.44,6299.31,827.918" stroke="rgb(0,255,123)" stroke-width="2" fill="none"></polyline>
<polyline points="1365.05,995.137,5902.58,1940.55" stroke="rgb(0,255,220)" stroke-width="2" fill="none"></polyline>
<polyline points="1763.18,1002.27,6099.65,2449.47" stroke="rgb(238,0,255)" stroke-width="2" fill="none"></polyline>
<polyline points="1827.73,1012.42,6438.76,953.552" stroke="rgb(255,0,38)" stroke-width="2" fill="none"></polyline>
<polyline points="2053.05,1057.24,7009.22,1512.94" stroke="rgb(0,157,255)" stroke-width="2" fill="none"></polyline>
<polyline points="1684.7,1062.78,6513.5,962.324" stroke="rgb(106,0,255)" stroke-width="2" fill="none"></polyline>
<polyline points="1553.8,1064.44,5800.96,975.622" stroke="rgb(0,255,220)" stroke-width="2" fill="none"></polyline>
<polyline points="1897.27,1079.79,6621.48,1232.54" stroke="rgb(0,255,237)" stroke-width="2" fill="none"></polyline>
<polyline points="1675.46,1084.82,6484.72,919.397" stroke="rgb(0,97,255)" stroke-width="2" fill="none"></polyline>
<polyline points="1950.21,1090.33,5518.94,1078.26" stroke="rgb(0,255,191)" stroke-width="2" fill="none"></polyline>
<polyline points="1656.18,1098.43,6430.59,929.416" stroke="rgb(255,0,38)" stroke-width="2" fill="none"></polyline>
<polyline points="1868.41,1101.19,6734.14,1432.3" stroke="rgb(216,0,255)" stroke-width="2" fill="none"></polyline>
<polyline points="2510.78,1143.84,6116.56,1112.53" stroke="rgb(63,0,255)" stroke-width="2" fill="none"></polyline>
<polyline points="1853.82,1153.86,6662.57,1171.26" stroke="rgb(0,255,84)" stroke-width="2" fill="none"></polyline>
<polyline points="2472.22,1170.56,5872.83,1867.44" stroke="rgb(255,204,0)" stroke-width="2" fill="none"></polyline>
<polyline points="1845.64,1173.47,6210.25,881.29" stroke="rgb(255,89,0)" stroke-width="2" fill="none"></polyline>
<polyline points="1578.19,1179.52,5458.51,1296.88" stroke="rgb(255,110,0)" stroke-width="2" fill="none"></polyline>
<polyline points="1570.21,1194.41,6628.79,1389.28" stroke="rgb(0,255,148)" stroke-width="2" fill="none"></polyline>
<polyline points="1827.05,1199.41,6619.52,1229.37" stroke="rgb(212,0,255)" stroke-width="2" fill="none"></polyline>
<polyline points="1808.81,1214.95,5927.05,1742.95" stroke="rgb(255,0,25)" stroke-width="2" fill="none"></polyline>
<polyline points="2560.6,1214.99,5790.36,1689.08" stroke="rgb(246,0,255)" stroke-width="2" fill="none"></polyline>
<polyline points="2204.29,1216.09,6352.35,944.075" stroke="rgb(0,255,29)" stroke-width="2" fill="none"></polyline>
<polyline points="2706.53,1277.84,6119.96,1223.07" stroke="rgb(0,255,169)" stroke-width="2" fill="none"></polyline>
<polyline points="1582.37,1288.89,5498.53,883.173" stroke="rgb(255,216,0)" stroke-width="2" fill="none"></polyline>
<polyline points="1857.92,1299.11,5967.17,1672.53" stroke="rgb(255,63,0)" stroke-width="2" fill="none"></polyline>
<polyline points="1668.76,1310.14,5033.8,1109.58" stroke="rgb(255,144,0)" stroke-width="2" fill="none"></polyline>
<polyline points="2525.76,1316.58,5976.12,1110.95" stroke="rgb(255,0,250)" stroke-width="2" fill="none"></polyline>
<polyline points="1786.85,1330.08,5854.07,1738.81" stroke="rgb(0,67,255)" stroke-width="2" fill="none"></polyline>
<polyline points="2173.49,1353.99,5916.58,1683.55" stroke="rgb(0,255,16)" stroke-width="2" fill="none"></polyline>
<polyline points="1799.49,1361.06,5861.69,1786.81" stroke="rgb(178,0,255)" stroke-width="2" fill="none"></polyline>
<polyline points="2807.77,1366.57,5937.6,2124.36" stroke="rgb(114,0,255)" stroke-width="2" fill="none"></polyline>
<polyline points="2626.23,1375.77,5901.97,1650.03" stroke="rgb(140,0,255)" stroke-width="2" fill="none"></polyline>
<polyline points="2510.94,1386.83,6696.69,1240.14" stroke="rgb(255,0,140)" stroke-width="2" fill="none"></polyline>
<polyline points="1794.91,1388.35,5861.61,1842.75" stroke="rgb(0,157,255)" stroke-width="2" fill="none"></polyline>
<polyline points="2170.69,1390.46,5889.93,1656.66" stroke="rgb(106,0,255)" stroke-width="2" fill="none"></polyline>
<polyline points="2343.34,1403.88,5887.63,1497.6" stroke="rgb(255,178,0)" stroke-width="2" fill="none"></polyline>
<polyline points="1735.72,1433.67,6783.87,1500.81" stroke="rgb(51,255,0)" stroke-width="2" fill="none"></polyline>
<polyline points="2612.84,1436.7,5835.46,1724.9" stroke="rgb(255,0,216)" stroke-width="2" fill="none"></polyline>
<polyline points="1980.33,1450.57,5940.15,1132.28" stroke="rgb(0,93,255)" stroke-width="2" fill="none"></polyline>
<polyline points="2652.61,1480.29,5508.61,868.942" stroke="rgb(0,182,255)" stroke-width="2" fill="none"></polyline>
<polyline points="1786.26,1529.63,5870.38,1694.81" stroke="rgb(25,255,0)" stroke-width="2" fill="none"></polyline>
<polyline points="1489.55,1543.96,6119.99,1204.77" stroke="rgb(0,127,255)" stroke-width="2" fill="none"></polyline>
<polyline points="1767.94,1551.38,7181.85,1895.34" stroke="rgb(0,255,38)" stroke-width="2" fill="none"></polyline>
<polyline points="2569.11,1552.46,5666.3,994.268" stroke="rgb(4,0,255)" stroke-width="2" fill="none"></polyline>
<polyline points="1565.09,1560.2,6272.31,1781.21" stroke="rgb(255,0,42)" stroke-width="2" fill="none"></polyline>
<polyline points="1587.26,1563.6,5102.29,1474.2" stroke="rgb(255,208,0)" stroke-width="2" fill="none"></polyline>
<polyline points="2118.48,1577.36,6767.39,1220.36" stroke="rgb(97,0,255)" stroke-width="2" fill="none"></polyline>
<polyline points="1557.8,1585.84,6655.94,1327.71" stroke="rgb(34,0,255)" stroke-width="2" fill="none"></polyline>
<polyline points="1732.95,1590.07,5746.16,970.706" stroke="rgb(0,153,255)" stroke-width="2" fill="none"></polyline>
<polyline points="1696.79,1591.11,6372.37,1569.29" stroke="rgb(0,199,255)" stroke-width="2" fill="none"></polyline>
<polyline points="1614.41,1594.62,5587.43,1385.86" stroke="rgb(21,255,0)" stroke-width="2" fill="none"></polyline>
<polyline points="2721.8,1596.87,6911.1,1104.18" stroke="rgb(0,255,97)" stroke-width="2" fill="none"></polyline>
<polyline points="2546.24,1605.56,5983.02,1491.57" stroke="rgb(0,203,255)" stroke-width="2" fill="none"></polyline>
<polyline points="1560.32,1607.22,5724.82,1702.33" stroke="rgb(148,0,255)" stroke-width="2" fill="none"></polyline>
<polyline points="1459.95,1607.42,5527.14,782.853" stroke="rgb(229,255,0)" stroke-width="2" fill="none"></polyline>
<polyline points="2208.52,1607.78,5801.89,1126.41" stroke="rgb(0,140,255)" stroke-width="2" fill="none"></polyline>
<polyline points="1726.33,1623.6,5884.04,1778.46" stroke="rgb(0,246,255)" stroke-width="2" fill="none"></polyline>
<polyline points="2602.34,1653.12,6670.19,1244.73" stroke="rgb(255,29,0)" stroke-width="2" fill="none"></polyline>
<polyline points="2565.35,1664.53,6573.73,1133.43" stroke="rgb(208,255,0)" stroke-width="2" fill="none"></polyline>
<polyline points="1509.17,1667.3,6074.67,834.727" stroke="rgb(255,0,229)" stroke-width="2" fill="none"></polyline>
<polyline points="1578.35,1670.36,6668.96,1168.81" stroke="rgb(0,255,178)" stroke-width="2" fill="none"></polyline>
<polyline points="1374.31,1699.07,5836.58,1901.19" stroke="rgb(255,0,93)" stroke-width="2" fill="none"></polyline>
<polyline points="1651.64,1717.44,6316.94,1010.34" stroke="rgb(119,255,0)" stroke-width="2" fill="none"></polyline>
<polyline points="1445.05,1768.62,6463.34,988.844" stroke="rgb(0,255,38)" stroke-width="2" fill="none"></polyline>
<polyline points="1912.28,1784.8,5808.01,1862.08" stroke="rgb(255,225,0)" stroke-width="2" fill="none"></polyline>
<polyline points="1912.99,1786.18,5680.7,721.157" stroke="rgb(0,46,255)" stroke-width="2" fill="none"></polyline>
<polyline points="1921.11,1787.39,6963.42,1130.22" stroke="rgb(255,182,0)" stroke-width="2" fill="none"></polyline>
<polyline points="1888.13,1797.4,6547.89,1642.08" stroke="rgb(255,144,0)" stroke-width="2" fill="none"></polyline>
<polyline points="2543.17,1800.88,6366.32,1835.85" stroke="rgb(0,255,246)" stroke-width="2" fill="none"></polyline>
<polyline points="1795.28,1801.69,6561.95,1239.49" stroke="rgb(89,0,255)" stroke-width="2" fill="none"></polyline>
<polyline points="2147.84,1825.62,6528.46,2292.68" stroke="rgb(0,38,255)" stroke-width="2" fill="none"></polyline>
<polyline points="1987.07,1825.95,6603.13,1392.05" stroke="rgb(0,255,186)" stroke-width="2" fill="none"></polyline>
<polyline points="2037.86,1836.26,6495.03,1666.16" stroke="rgb(38,255,0)" stroke-width="2" fill="none"></polyline>
<polyline points="2185.11,1837.05,6595.14,1692.86" stroke="rgb(255,0,0)" stroke-width="2" fill="none"></polyline>
<polyline points="1569.17,1837.41,5202.66,1358.92" stroke="rgb(255,191,0)" stroke-width="2" fill="none"></polyline>
<polyline points="1572.58,1841.26,6672.05,1524.48" stroke="rgb(255,0,114)" stroke-width="2" fill="none"></polyline>
<polyline points="1382.94,1847.53,6643.13,1160.08" stroke="rgb(255,212,0)" stroke-width="2" fill="none"></polyline>
<polyline points="2522.14,1892.3,5922.68,1065.25" stroke="rgb(255,0,221)" stroke-width="2" fill="none"></polyline>
<polyline points="1615.84,1899.82,4956.25,1162.39" stroke="rgb(110,255,0)" stroke-width="2" fill="none"></polyline>
<polyline points="1486.28,1902.29,5683.01,794.102" stroke="rgb(0,255,25)" stroke-width="2" fill="none"></polyline>
<polyline points="1620.34,1920.17,5756.6,1114.5" stroke="rgb(255,55,0)" stroke-width="2" fill="none"></polyline>
<polyline points="1634.4,1942.48,5567.13,1663.89" stroke="rgb(0,131,255)" stroke-width="2" fill="none"></polyline>
<polyline points="1638.14,1949.05,6722.89,1124.62" stroke="rgb(123,0,255)" stroke-width="2" fill="none"></polyline>
<polyline points="1835.01,1961.08,6857.58,2097.66" stroke="rgb(0,148,255)" stroke-width="2" fill="none"></polyline>
<polyline points="1404.39,1961.23,5446.9,1206.25" stroke="rgb(255,0,17)" stroke-width="2" fill="none"></polyline>
<polyline points="1477.79,1962.92,5820.41,904.789" stroke="rgb(255,0,101)" stroke-width="2" fill="none"></polyline>
<polyline points="1155.33,1963.84,5168.84,1171.2" stroke="rgb(191,0,255)" stroke-width="2" fill="none"></polyline>
<polyline points="1516.29,1963.96,5632.32,790.199" stroke="rgb(0,255,246)" stroke-width="2" fill="none"></polyline>
<polyline points="1173.21,1966.36,5180.54,1192.14" stroke="rgb(0,106,255)" stroke-width="2" fill="none"></polyline>
<polyline points="2494.39,1968.11,6667.12,1390.07" stroke="rgb(0,51,255)" stroke-width="2" fill="none"></polyline>
<polyline points="1740.42,1968.78,6656.11,2275.23" stroke="rgb(255,0,12)" stroke-width="2" fill="none"></polyline>
<polyline points="1165.26,1972.03,5526.89,867.014" stroke="rgb(255,72,0)" stroke-width="2" fill="none"></polyline>
<polyline points="1385.56,1974.64,5983.66,1428.15" stroke="rgb(0,140,255)" stroke-width="2" fill="none"></polyline>
<polyline points="1602.42,1977.81,5080.79,1335.49" stroke="rgb(255,0,165)" stroke-width="2" fill="none"></polyline>
<polyline points="1164.42,1979.44,5162.54,1193.83" stroke="rgb(255,76,0)" stroke-width="2" fill="none"></polyline>
<polyline points="1138.06,1989.26,5856.88,1024.44" stroke="rgb(0,255,50)" stroke-width="2" fill="none"></polyline>
<polyline points="1226.19,2002.43,5194.11,1283.27" stroke="rgb(246,255,0)" stroke-width="2" fill="none"></polyline>
<polyline points="2572.11,2004.12,6219.96,2476.21" stroke="rgb(250,255,0)" stroke-width="2" fill="none"></polyline>
<polyline points="1111.54,2004.93,5132.54,1179.81" stroke="rgb(0,255,195)" stroke-width="2" fill="none"></polyline>
<polyline points="1118.49,2006.52,5476.75,872.283" stroke="rgb(0,0,255)" stroke-width="2" fill="none"></polyline>
<polyline points="2577.45,2009.71,7193.91,1901.56" stroke="rgb(0,191,255)" stroke-width="2" fill="none"></polyline>
<polyline points="1462.89,2014.19,5004.5,1149.48" stroke="rgb(255,161,0)" stroke-width="2" fill="none"></polyline>
<polyline points="1453.14,2025.48,6529.38,890.279" stroke="rgb(153,0,255)" stroke-width="2" fill="none"></polyline>
<polyline points="2449.73,2025.67,6591.39,1664.11" stroke="rgb(0,255,246)" stroke-width="2" fill="none"></polyline>
<polyline points="1722.83,2028.52,5527.56,1501.2" stroke="rgb(255,161,0)" stroke-width="2" fill="none"></polyline>
<polyline points="2368.24,2032.1,5995.18,2258.54" stroke="rgb(255,0,165)" stroke-width="2" fill="none"></polyline>
<polyline points="2263.9,2040.03,6741.35,1711.62" stroke="rgb(255,102,0)" stroke-width="2" fill="none"></polyline>
<polyline points="2021.83,2040.92,5610.89,1689.03" stroke="rgb(255,0,169)" stroke-width="2" fill="none"></polyline>
<polyline points="2485.93,2057.69,5782.94,1842.18" stroke="rgb(127,0,255)" stroke-width="2" fill="none"></polyline>
<polyline points="1089.64,2070.73,6470,1211.31" stroke="rgb(8,255,0)" stroke-width="2" fill="none"></polyline>
<polyline points="1657.16,2091.02,6976.19,1804.39" stroke="rgb(255,0,174)" stroke-width="2" fill="none"></polyline>
<polyline points="1989.47,2097.87,5692.76,1705.25" stroke="rgb(0,255,148)" stroke-width="2" fill="none"></polyline>
<polyline points="1409.37,2113.23,7104.38,1477.56" stroke="rgb(0,174,255)" stroke-width="2" fill="none"></polyline>
<polyline points="1434.21,2116.19,5271.64,1446.18" stroke="rgb(0,51,255)" stroke-width="2" fill="none"></polyline>
<polyline points="1042.09,2123.24,5063.39,1204.97" stroke="rgb(255,4,0)" stroke-width="2" fill="none"></polyline>
<polyline points="2185.64,2135.22,4941.49,1174.77" stroke="rgb(225,255,0)" stroke-width="2" fill="none"></polyline>
<polyline points="1718.48,2135.78,6518.14,1793.15" stroke="rgb(187,255,0)" stroke-width="2" fill="none"></polyline>
<polyline points="2329.1,2136.54,6935.98,1899.15" stroke="rgb(195,0,255)" stroke-width="2" fill="none"></polyline>
<polyline points="1940.69,2137.54,6479,908.978" stroke="rgb(8,255,0)" stroke-width="2" fill="none"></polyline>
<polyline points="1657.59,2144.62,6135.49,2463.07" stroke="rgb(0,255,186)" stroke-width="2" fill="none"></polyline>
<polyline points="1919.58,2147.3,6500.18,1318.87" stroke="rgb(0,255,144)" stroke-width="2" fill="none"></polyline>
<polyline points="1058.01,2147.32,5064.95,1200.6" stroke="rgb(255,0,55)" stroke-width="2" fill="none"></polyline>
<polyline points="1653.95,2152.74,5869.18,1298.22" stroke="rgb(255,225,0)" stroke-width="2" fill="none"></polyline>
<polyline points="1380.99,2156.63,5684.66,1069.81" stroke="rgb(0,29,255)" stroke-width="2" fill="none"></polyline>
<polyline points="1617.68,2157.55,5899.9,1105.46" stroke="rgb(255,0,221)" stroke-width="2" fill="none"></polyline>
<polyline points="1638.88,2160.45,5687.16,1055.55" stroke="rgb(255,0,237)" stroke-width="2" fill="none"></polyline>
<polyline points="1924.29,2161.12,5505.34,1518.86" stroke="rgb(255,25,0)" stroke-width="2" fill="none"></polyline>
<polyline points="1853.95,2163.62,6817.68,1127.76" stroke="rgb(255,42,0)" stroke-width="2" fill="none"></polyline>
<polyline points="1336.38,2169.13,6447.72,1290.67" stroke="rgb(255,21,0)" stroke-width="2" fill="none"></polyline>
<polyline points="1230.28,2186.89,5719.15,1512.05" stroke="rgb(255,187,0)" stroke-width="2" fill="none"></polyline>
<polyline points="1781.04,2196.28,6745.91,1552.17" stroke="rgb(0,255,8)" stroke-width="2" fill="none"></polyline>
<polyline points="1431.93,2229.65,5547.06,1308.22" stroke="rgb(203,255,0)" stroke-width="2" fill="none"></polyline>
<polyline points="1216.74,2239.62,5594.91,762.112" stroke="rgb(161,255,0)" stroke-width="2" fill="none"></polyline>
<polyline points="1560.86,2244.88,5319.88,1069.37" stroke="rgb(255,161,0)" stroke-width="2" fill="none"></polyline>
<polyline points="1265.17,2255.95,4876.34,1090.27" stroke="rgb(46,0,255)" stroke-width="2" fill="none"></polyline>
<polyline points="976.557,2267.19,5961.86,1733.65" stroke="rgb(255,0,29)" stroke-width="2" fill="none"></polyline>
<polyline points="1442.99,2270.04,5761.03,711.117" stroke="rgb(0,38,255)" stroke-width="2" fill="none"></polyline>
<circle cx="1504.65" cy="796.061" r="4" stroke="rgb(46,255,0)" stroke-width="2" fill="none"></circle>
<circle cx="6493.12" cy="2330.16" r="4" stroke="rgb(46,255,0)" stroke-width="2" fill="none"></circle>
<circle cx="1410.95" cy="894.334" r="4" stroke="rgb(0,255,216)" stroke-width="2" fill="none"></circle>
<circle cx="6504.76" cy="2290.47" r="4" stroke="rgb(0,255,216)" stroke-width="2" fill="none"></circle>
<circle cx="1364.14" cy="989.44" r="4" stroke="rgb(0,255,123)" stroke-width="2" fill="none"></circle>
<circle cx="6299.31" cy="827.918" r="4" stroke="rgb(0,255,123)" stroke-width="2" fill="none"></circle>
<circle cx="1365.05" cy="995.137" r="4" stroke="rgb(0,255,220)" stroke-width="2" fill="none"></circle>
<circle cx="5902.58" cy="1940.55" r="4" stroke="rgb(0,255,220)" stroke-width="2" fill="none"></circle>
<circle cx="1763.18" cy="1002.27" r="4" stroke="rgb(238,0,255)" stroke-width="2" fill="none"></circle>
<circle cx="6099.65" cy="2449.47" r="4" stroke="rgb(238,0,255)" stroke-width="2" fill="none"></circle>
<circle cx="1827.73" cy="1012.42" r="4" stroke="rgb(255,0,38)" stroke-width="2" fill="none"></circle>
<circle cx="6438.76" cy="953.552" r="4" stroke="rgb(255,0,38)" stroke-width="2" fill="none"></circle>
<circle cx="2053.05" cy="1057.24" r="4" stroke="rgb(0,157,255)" stroke-width="2" fill="none"></circle>
<circle cx="7009.22" cy="1512.94" r="4" stroke="rgb(0,157,255)" stroke-width="2" fill="none"></circle>
<circle cx="1684.7" cy="1062.78" r="4" stroke="rgb(106,0,255)" stroke-width="2" fill="none"></circle>
<circle cx="6513.5" cy="962.324" r="4" stroke="rgb(106,0,255)" stroke-width="2" fill="none"></circle>
<circle cx="1553.8" cy="1064.44" r="4" stroke="rgb(0,255,220)" stroke-width="2" fill="none"></circle>
<circle cx="5800.96" cy="975.622" r="4" stroke="rgb(0,255,220)" stroke-width="2" fill="none"></circle>
<circle cx="1897.27" cy="1079.79" r="4" stroke="rgb(0,255,237)" stroke-width="2" fill="none"></circle>
<circle cx="6621.48" cy="1232.54" r="4" stroke="rgb(0,255,237)" stroke-width="2" fill="none"></circle>
<circle cx="1675.46" cy="1084.82" r="4" stroke="rgb(0,97,255)" stroke-width="2" fill="none"></circle>
<circle cx="6484.72" cy="919.397" r="4" stroke="rgb(0,97,255)" stroke-width="2" fill="none"></circle>
<circle cx="1950.21" cy="1090.33" r="4" stroke="rgb(0,255,191)" stroke-width="2" fill="none"></circle>
<circle cx="5518.94" cy="1078.26" r="4" stroke="rgb(0,255,191)" stroke-width="2" fill="none"></circle>
<circle cx="1656.18" cy="1098.43" r="4" stroke="rgb(255,0,38)" stroke-width="2" fill="none"></circle>
<circle cx="6430.59" cy="929.416" r="4" stroke="rgb(255,0,38)" stroke-width="2" fill="none"></circle>
<circle cx="1868.41" cy="1101.19" r="4" stroke="rgb(216,0,255)" stroke-width="2" fill="none"></circle>
<circle cx="6734.14" cy="1432.3" r="4" stroke="rgb(216,0,255)" stroke-width="2" fill="none"></circle>
<circle cx="2510.78" cy="1143.84" r="4" stroke="rgb(63,0,255)" stroke-width="2" fill="none"></circle>
<circle cx="6116.56" cy="1112.53" r="4" stroke="rgb(63,0,255)" stroke-width="2" fill="none"></circle>
<circle cx="1853.82" cy="1153.86" r="4" stroke="rgb(0,255,84)" stroke-width="2" fill="none"></circle>
<circle cx="6662.57" cy="1171.26" r="4" stroke="rgb(0,255,84)" stroke-width="2" fill="none"></circle>
<circle cx="2472.22" cy="1170.56" r="4" stroke="rgb(255,204,0)" stroke-width="2" fill="none"></circle>
<circle cx="5872.83" cy="1867.44" r="4" stroke="rgb(255,204,0)" stroke-width="2" fill="none"></circle>
<circle cx="1845.64" cy="1173.47" r="4" stroke="rgb(255,89,0)" stroke-width="2" fill="none"></circle>
<circle cx="6210.25" cy="881.29" r="4" stroke="rgb(255,89,0)" stroke-width="2" fill="none"></circle>
<circle cx="1578.19" cy="1179.52" r="4" stroke="rgb(255,110,0)" stroke-width="2" fill="none"></circle>
<circle cx="5458.51" cy="1296.88" r="4" stroke="rgb(255,110,0)" stroke-width="2" fill="none"></circle>
<circle cx="1570.21" cy="1194.41" r="4" stroke="rgb(0,255,148)" stroke-width="2" fill="none"></circle>
<circle cx="6628.79" cy="1389.28" r="4" stroke="rgb(0,255,148)" stroke-width="2" fill="none"></circle>
<circle cx="1827.05" cy="1199.41" r="4" stroke="rgb(212,0,255)" stroke-width="2" fill="none"></circle>
<circle cx="6619.52" cy="1229.37" r="4" stroke="rgb(212,0,255)" stroke-width="2" fill="none"></circle>
<circle cx="1808.81" cy="1214.95" r="4" stroke="rgb(255,0,25)" stroke-width="2" fill="none"></circle>
<circle cx="5927.05" cy="1742.95" r="4" stroke="rgb(255,0,25)" stroke-width="2" fill="none"></circle>
<circle cx="2560.6" cy="1214.99" r="4" stroke="rgb(246,0,255)" stroke-width="2" fill="none"></circle>
<circle cx="5790.36" cy="1689.08" r="4" stroke="rgb(246,0,255)" stroke-width="2" fill="none"></circle>
<circle cx="2204.29" cy="1216.09" r="4" stroke="rgb(0,255,29)" stroke-width="2" fill="none"></circle>
<circle cx="6352.35" cy="944.075" r="4" stroke="rgb(0,255,29)" stroke-width="2" fill="none"></circle>
<circle cx="2706.53" cy="1277.84" r="4" stroke="rgb(0,255,169)" stroke-width="2" fill="none"></circle>
<circle cx="6119.96" cy="1223.07" r="4" stroke="rgb(0,255,169)" stroke-width="2" fill="none"></circle>
<circle cx="1582.37" cy="1288.89" r="4" stroke="rgb(255,216,0)" stroke-width="2" fill="none"></circle>
<circle cx="5498.53" cy="883.173" r="4" stroke="rgb(255,216,0)" stroke-width="2" fill="none"></circle>
<circle cx="1857.92" cy="1299.11" r="4" stroke="rgb(255,63,0)" stroke-width="2" fill="none"></circle>
<circle cx="5967.17" cy="1672.53" r="4" stroke="rgb(255,63,0)" stroke-width="2" fill="none"></circle>
<circle cx="1668.76" cy="1310.14" r="4" stroke="rgb(255,144,0)" stroke-width="2" fill="none"></circle>
<circle cx="5033.8" cy="1109.58" r="4" stroke="rgb(255,144,0)" stroke-width="2" fill="none"></circle>
<circle cx="2525.76" cy="1316.58" r="4" stroke="rgb(255,0,250)" stroke-width="2" fill="none"></circle>
<circle cx="5976.12" cy="1110.95" r="4" stroke="rgb(255,0,250)" stroke-width="2" fill="none"></circle>
<circle cx="1786.85" cy="1330.08" r="4" stroke="rgb(0,67,255)" stroke-width="2" fill="none"></circle>
<circle cx="5854.07" cy="1738.81" r="4" stroke="rgb(0,67,255)" stroke-width="2" fill="none"></circle>
<circle cx="2173.49" cy="1353.99" r="4" stroke="rgb(0,255,16)" stroke-width="2" fill="none"></circle>
<circle cx="5916.58" cy="1683.55" r="4" stroke="rgb(0,255,16)" stroke-width="2" fill="none"></circle>
<circle cx="1799.49" cy="1361.06" r="4" stroke="rgb(178,0,255)" stroke-width="2" fill="none"></circle>
<circle cx="5861.69" cy="1786.81" r="4" stroke="rgb(178,0,255)" stroke-width="2" fill="none"></circle>
<circle cx="2807.77" cy="1366.57" r="4" stroke="rgb(114,0,255)" stroke-width="2" fill="none"></circle>
<circle cx="5937.6" cy="2124.36" r="4" stroke="rgb(114,0,255)" stroke-width="2" fill="none"></circle>
<circle cx="2626.23" cy="1375.77" r="4" stroke="rgb(140,0,255)" stroke-width="2" fill="none"></circle>
<circle cx="5901.97" cy="1650.03" r="4" stroke="rgb(140,0,255)" stroke-width="2" fill="none"></circle>
<circle cx="2510.94" cy="1386.83" r="4" stroke="rgb(255,0,140)" stroke-width="2" fill="none"></circle>
<circle cx="6696.69" cy="1240.14" r="4" stroke="rgb(255,0,140)" stroke-width="2" fill="none"></circle>
<circle cx="1794.91" cy="1388.35" r="4" stroke="rgb(0,157,255)" stroke-width="2" fill="none"></circle>
<circle cx="5861.61" cy="1842.75" r="4" stroke="rgb(0,157,255)" stroke-width="2" fill="none"></circle>
<circle cx="2170.69" cy="1390.46" r="4" stroke="rgb(106,0,255)" stroke-width="2" fill="none"></circle>
<circle cx="5889.93" cy="1656.66" r="4" stroke="rgb(106,0,255)" stroke-width="2" fill="none"></circle>
<circle cx="2343.34" cy="1403.88" r="4" stroke="rgb(255,178,0)" stroke-width="2" fill="none"></circle>
<circle cx="5887.63" cy="1497.6" r="4" stroke="rgb(255,178,0)" stroke-width="2" fill="none"></circle>
<circle cx="1735.72" cy="1433.67" r="4" stroke="rgb(51,255,0)" stroke-width="2" fill="none"></circle>
<circle cx="6783.87" cy="1500.81" r="4" stroke="rgb(51,255,0)" stroke-width="2" fill="none"></circle>
<circle cx="2612.84" cy="1436.7" r="4" stroke="rgb(255,0,216)" stroke-width="2" fill="none"></circle>
<circle cx="5835.46" cy="1724.9" r="4" stroke="rgb(255,0,216)" stroke-width="2" fill="none"></circle>
<circle cx="1980.33" cy="1450.57" r="4" stroke="rgb(0,93,255)" stroke-width="2" fill="none"></circle>
<circle cx="5940.15" cy="1132.28" r="4" stroke="rgb(0,93,255)" stroke-width="2" fill="none"></circle>
<circle cx="2652.61" cy="1480.29" r="4" stroke="rgb(0,182,255)" stroke-width="2" fill="none"></circle>
<circle cx="5508.61" cy="868.942" r="4" stroke="rgb(0,182,255)" stroke-width="2" fill="none"></circle>
<circle cx="1786.26" cy="1529.63" r="4" stroke="rgb(25,255,0)" stroke-width="2" fill="none"></circle>
<circle cx="5870.38" cy="1694.81" r="4" stroke="rgb(25,255,0)" stroke-width="2" fill="none"></circle>
<circle cx="1489.55" cy="1543.96" r="4" stroke="rgb(0,127,255)" stroke-width="2" fill="none"></circle>
<circle cx="6119.99" cy="1204.77" r="4" stroke="rgb(0,127,255)" stroke-width="2" fill="none"></circle>
<circle cx="1767.94" cy="1551.38" r="4" stroke="rgb(0,255,38)" stroke-width="2" fill="none"></circle>
<circle cx="7181.85" cy="1895.34" r="4" stroke="rgb(0,255,38)" stroke-width="2" fill="none"></circle>
<circle cx="2569.11" cy="1552.46" r="4" stroke="rgb(4,0,255)" stroke-width="2" fill="none"></circle>
<circle cx="5666.3" cy="994.268" r="4" stroke="rgb(4,0,255)" stroke-width="2" fill="none"></circle>
<circle cx="1565.09" cy="1560.2" r="4" stroke="rgb(255,0,42)" stroke-width="2" fill="none"></circle>
<circle cx="6272.31" cy="1781.21" r="4" stroke="rgb(255,0,42)" stroke-width="2" fill="none"></circle>
<circle cx="1587.26" cy="1563.6" r="4" stroke="rgb(255,208,0)" stroke-width="2" fill="none"></circle>
<circle cx="5102.29" cy="1474.2" r="4" stroke="rgb(255,208,0)" stroke-width="2" fill="none"></circle>
<circle cx="2118.48" cy="1577.36" r="4" stroke="rgb(97,0,255)" stroke-width="2" fill="none"></circle>
<circle cx="6767.39" cy="1220.36" r="4" stroke="rgb(97,0,255)" stroke-width="2" fill="none"></circle>
<circle cx="1557.8" cy="1585.84" r="4" stroke="rgb(34,0,255)" stroke-width="2" fill="none"></circle>
<circle cx="6655.94" cy="1327.71" r="4" stroke="rgb(34,0,255)" stroke-width="2" fill="none"></circle>
<circle cx="1732.95" cy="1590.07" r="4" stroke="rgb(0,153,255)" stroke-width="2" fill="none"></circle>
<circle cx="5746.16" cy="970.706" r="4" stroke="rgb(0,153,255)" stroke-width="2" fill="none"></circle>
<circle cx="1696.79" cy="1591.11" r="4" stroke="rgb(0,199,255)" stroke-width="2" fill="none"></circle>
<circle cx="6372.37" cy="1569.29" r="4" stroke="rgb(0,199,255)" stroke-width="2" fill="none"></circle>
<circle cx="1614.41" cy="1594.62" r="4" stroke="rgb(21,255,0)" stroke-width="2" fill="none"></circle>
<circle cx="5587.43" cy="1385.86" r="4" stroke="rgb(21,255,0)" stroke-width="2" fill="none"></circle>
<circle cx="2721.8" cy="1596.87" r="4" stroke="rgb(0,255,97)" stroke-width="2" fill="none"></circle>
<circle cx="6911.1" cy="1104.18" r="4" stroke="rgb(0,255,97)" stroke-width="2" fill="none"></circle>
<circle cx="2546.24" cy="1605.56" r="4" stroke="rgb(0,203,255)" stroke-width="2" fill="none"></circle>
<circle cx="5983.02" cy="1491.57" r="4" stroke="rgb(0,203,255)" stroke-width="2" fill="none"></circle>
<circle cx="1560.32" cy="1607.22" r="4" stroke="rgb(148,0,255)" stroke-width="2" fill="none"></circle>
<circle cx="5724.82" cy="1702.33" r="4" stroke="rgb(148,0,255)" stroke-width="2" fill="none"></circle>
<circle cx="1459.95" cy="1607.42" r="4" stroke="rgb(229,255,0)" stroke-width="2" fill="none"></circle>
<circle cx="5527.14" cy="782.853" r="4" stroke="rgb(229,255,0)" stroke-width="2" fill="none"></circle>
<circle cx="2208.52" cy="1607.78" r="4" stroke="rgb(0,140,255)" stroke-width="2" fill="none"></circle>
<circle cx="5801.89" cy="1126.41" r="4" stroke="rgb(0,140,255)" stroke-width="2" fill="none"></circle>
<circle cx="1726.33" cy="1623.6" r="4" stroke="rgb(0,246,255)" stroke-width="2" fill="none"></circle>
<circle cx="5884.04" cy="1778.46" r="4" stroke="rgb(0,246,255)" stroke-width="2" fill="none"></circle>
<circle cx="2602.34" cy="1653.12" r="4" stroke="rgb(255,29,0)" stroke-width="2" fill="none"></circle>
<circle cx="6670.19" cy="1244.73" r="4" stroke="rgb(255,29,0)" stroke-width="2" fill="none"></circle>
<circle cx="2565.35" cy="1664.53" r="4" stroke="rgb(208,255,0)" stroke-width="2" fill="none"></circle>
<circle cx="6573.73" cy="1133.43" r="4" stroke="rgb(208,255,0)" stroke-width="2" fill="none"></circle>
<circle cx="1509.17" cy="1667.3" r="4" stroke="rgb(255,0,229)" stroke-width="2" fill="none"></circle>
<circle cx="6074.67" cy="834.727" r="4" stroke="rgb(255,0,229)" stroke-width="2" fill="none"></circle>
<circle cx="1578.35" cy="1670.36" r="4" stroke="rgb(0,255,178)" stroke-width="2" fill="none"></circle>
<circle cx="6668.96" cy="1168.81" r="4" stroke="rgb(0,255,178)" stroke-width="2" fill="none"></circle>
<circle cx="1374.31" cy="1699.07" r="4" stroke="rgb(255,0,93)" stroke-width="2" fill="none"></circle>
<circle cx="5836.58" cy="1901.19" r="4" stroke="rgb(255,0,93)" stroke-width="2" fill="none"></circle>
<circle cx="1651.64" cy="1717.44" r="4" stroke="rgb(119,255,0)" stroke-width="2" fill="none"></circle>
<circle cx="6316.94" cy="1010.34" r="4" stroke="rgb(119,255,0)" stroke-width="2" fill="none"></circle>
<circle cx="1445.05" cy="1768.62" r="4" stroke="rgb(0,255,38)" stroke-width="2" fill="none"></circle>
<circle cx="6463.34" cy="988.844" r="4" stroke="rgb(0,255,38)" stroke-width="2" fill="none"></circle>
<circle cx="1912.28" cy="1784.8" r="4" stroke="rgb(255,225,0)" stroke-width="2" fill="none"></circle>
<circle cx="5808.01" cy="1862.08" r="4" stroke="rgb(255,225,0)" stroke-width="2" fill="none"></circle>
<circle cx="1912.99" cy="1786.18" r="4" stroke="rgb(0,46,255)" stroke-width="2" fill="none"></circle>
<circle cx="5680.7" cy="721.157" r="4" stroke="rgb(0,46,255)" stroke-width="2" fill="none"></circle>
<circle cx="1921.11" cy="1787.39" r="4" stroke="rgb(255,182,0)" stroke-width="2" fill="none"></circle>
<circle cx="6963.42" cy="1130.22" r="4" stroke="rgb(255,182,0)" stroke-width="2" fill="none"></circle>
<circle cx="1888.13" cy="1797.4" r="4" stroke="rgb(255,144,0)" stroke-width="2" fill="none"></circle>
<circle cx="6547.89" cy="1642.08" r="4" stroke="rgb(255,144,0)" stroke-width="2" fill="none"></circle>
<circle cx="2543.17" cy="1800.88" r="4" stroke="rgb(0,255,246)" stroke-width="2" fill="none"></circle>
<circle cx="6366.32" cy="1835.85" r="4" stroke="rgb(0,255,246)" stroke-width="2" fill="none"></circle>
<circle cx="1795.28" cy="1801.69" r="4" stroke="rgb(89,0,255)" stroke-width="2" fill="none"></circle>
<circle cx="6561.95" cy="1239.49" r="4" stroke="rgb(89,0,255)" stroke-width="2" fill="none"></circle>
<circle cx="2147.84" cy="1825.62" r="4" stroke="rgb(0,38,255)" stroke-width="2" fill="none"></circle>
<circle cx="6528.46" cy="2292.68" r="4" stroke="rgb(0,38,255)" stroke-width="2" fill="none"></circle>
<circle cx="1987.07" cy="1825.95" r="4" stroke="rgb(0,255,186)" stroke-width="2" fill="none"></circle>
<circle cx="6603.13" cy="1392.05" r="4" stroke="rgb(0,255,186)" stroke-width="2" fill="none"></circle>
<circle cx="2037.86" cy="1836.26" r="4" stroke="rgb(38,255,0)" stroke-width="2" fill="none"></circle>
<circle cx="6495.03" cy="1666.16" r="4" stroke="rgb(38,255,0)" stroke-width="2" fill="none"></circle>
<circle cx="2185.11" cy="1837.05" r="4" stroke="rgb(255,0,0)" stroke-width="2" fill="none"></circle>
<circle cx="6595.14" cy="1692.86" r="4" stroke="rgb(255,0,0)" stroke-width="2" fill="none"></circle>
<circle cx="1569.17" cy="1837.41" r="4" stroke="rgb(255,191,0)" stroke-width="2" fill="none"></circle>
<circle cx="5202.66" cy="1358.92" r="4" stroke="rgb(255,191,0)" stroke-width="2" fill="none"></circle>
<circle cx="1572.58" cy="1841.26" r="4" stroke="rgb(255,0,114)" stroke-width="2" fill="none"></circle>
<circle cx="6672.05" cy="1524.48" r="4" stroke="rgb(255,0,114)" stroke-width="2" fill="none"></circle>
<circle cx="1382.94" cy="1847.53" r="4" stroke="rgb(255,212,0)" stroke-width="2" fill="none"></circle>
<circle cx="6643.13" cy="1160.08" r="4" stroke="rgb(255,212,0)" stroke-width="2" fill="none"></circle>
<circle cx="2522.14" cy="1892.3" r="4" stroke="rgb(255,0,221)" stroke-width="2" fill="none"></circle>
<circle cx="5922.68" cy="1065.25" r="4" stroke="rgb(255,0,221)" stroke-width="2" fill="none"></circle>
<circle cx="1615.84" cy="1899.82" r="4" stroke="rgb(110,255,0)" stroke-width="2" fill="none"></circle>
<circle cx="4956.25" cy="1162.39" r="4" stroke="rgb(110,255,0)" stroke-width="2" fill="none"></circle>
<circle cx="1486.28" cy="1902.29" r="4" stroke="rgb(0,255,25)" stroke-width="2" fill="none"></circle>
<circle cx="5683.01" cy="794.102" r="4" stroke="rgb(0,255,25)" stroke-width="2" fill="none"></circle>
<circle cx="1620.34" cy="1920.17" r="4" stroke="rgb(255,55,0)" stroke-width="2" fill="none"></circle>
<circle cx="5756.6" cy="1114.5" r="4" stroke="rgb(255,55,0)" stroke-width="2" fill="none"></circle>
<circle cx="1634.4" cy="1942.48" r="4" stroke="rgb(0,131,255)" stroke-width="2" fill="none"></circle>
<circle cx="5567.13" cy="1663.89" r="4" stroke="rgb(0,131,255)" stroke-width="2" fill="none"></circle>
<circle cx="1638.14" cy="1949.05" r="4" stroke="rgb(123,0,255)" stroke-width="2" fill="none"></circle>
<circle cx="6722.89" cy="1124.62" r="4" stroke="rgb(123,0,255)" stroke-width="2" fill="none"></circle>
<circle cx="1835.01" cy="1961.08" r="4" stroke="rgb(0,148,255)" stroke-width="2" fill="none"></circle>
<circle cx="6857.58" cy="2097.66" r="4" stroke="rgb(0,148,255)" stroke-width="2" fill="none"></circle>
<circle cx="1404.39" cy="1961.23" r="4" stroke="rgb(255,0,17)" stroke-width="2" fill="none"></circle>
<circle cx="5446.9" cy="1206.25" r="4" stroke="rgb(255,0,17)" stroke-width="2" fill="none"></circle>
<circle cx="1477.79" cy="1962.92" r="4" stroke="rgb(255,0,101)" stroke-width="2" fill="none"></circle>
<circle cx="5820.41" cy="904.789" r="4" stroke="rgb(255,0,101)" stroke-width="2" fill="none"></circle>
<circle cx="1155.33" cy="1963.84" r="4" stroke="rgb(191,0,255)" stroke-width="2" fill="none"></circle>
<circle cx="5168.84" cy="1171.2" r="4" stroke="rgb(191,0,255)" stroke-width="2" fill="none"></circle>
<circle cx="1516.29" cy="1963.96" r="4" stroke="rgb(0,255,246)" stroke-width="2" fill="none"></circle>
<circle cx="5632.32" cy="790.199" r="4" stroke="rgb(0,255,246)" stroke-width="2" fill="none"></circle>
<circle cx="1173.21" cy="1966.36" r="4" stroke="rgb(0,106,255)" stroke-width="2" fill="none"></circle>
<circle cx="5180.54" cy="1192.14" r="4" stroke="rgb(0,106,255)" stroke-width="2" fill="none"></circle>
<circle cx="2494.39" cy="1968.11" r="4" stroke="rgb(0,51,255)" stroke-width="2" fill="none"></circle>
<circle cx="6667.12" cy="1390.07" r="4" stroke="rgb(0,51,255)" stroke-width="2" fill="none"></circle>
<circle cx="1740.42" cy="1968.78" r="4" stroke="rgb(255,0,12)" stroke-width="2" fill="none"></circle>
<circle cx="6656.11" cy="2275.23" r="4" stroke="rgb(255,0,12)" stroke-width="2" fill="none"></circle>
<circle cx="1165.26" cy="1972.03" r="4" stroke="rgb(255,72,0)" stroke-width="2" fill="none"></circle>
<circle cx="5526.89" cy="867.014" r="4" stroke="rgb(255,72,0)" stroke-width="2" fill="none"></circle>
<circle cx="1385.56" cy="1974.64" r="4" stroke="rgb(0,140,255)" stroke-width="2" fill="none"></circle>
<circle cx="5983.66" cy="1428.15" r="4" stroke="rgb(0,140,255)" stroke-width="2" fill="none"></circle>
<circle cx="1602.42" cy="1977.81" r="4" stroke="rgb(255,0,165)" stroke-width="2" fill="none"></circle>
<circle cx="5080.79" cy="1335.49" r="4" stroke="rgb(255,0,165)" stroke-width="2" fill="none"></circle>
<circle cx="1164.42" cy="1979.44" r="4" stroke="rgb(255,76,0)" stroke-width="2" fill="none"></circle>
<circle cx="5162.54" cy="1193.83" r="4" stroke="rgb(255,76,0)" stroke-width="2" fill="none"></circle>
<circle cx="1138.06" cy="1989.26" r="4" stroke="rgb(0,255,50)" stroke-width="2" fill="none"></circle>
<circle cx="5856.88" cy="1024.44" r="4" stroke="rgb(0,255,50)" stroke-width="2" fill="none"></circle>
<circle cx="1226.19" cy="2002.43" r="4" stroke="rgb(246,255,0)" stroke-width="2" fill="none"></circle>
<circle cx="5194.11" cy="1283.27" r="4" stroke="rgb(246,255,0)" stroke-width="2" fill="none"></circle>
<circle cx="2572.11" cy="2004.12" r="4" stroke="rgb(250,255,0)" stroke-width="2" fill="none"></circle>
<circle cx="6219.96" cy="2476.21" r="4" stroke="rgb(250,255,0)" stroke-width="2" fill="none"></circle>
<circle cx="1111.54" cy="2004.93" r="4" stroke="rgb(0,255,195)" stroke-width="2" fill="none"></circle>
<circle cx="5132.54" cy="1179.81" r="4" stroke="rgb(0,255,195)" stroke-width="2" fill="none"></circle>
<circle cx="1118.49" cy="2006.52" r="4" stroke="rgb(0,0,255)" stroke-width="2" fill="none"></circle>
<circle cx="5476.75" cy="872.283" r="4" stroke="rgb(0,0,255)" stroke-width="2" fill="none"></circle>
<circle cx="2577.45" cy="2009.71" r="4" stroke="rgb(0,191,255)" stroke-width="2" fill="none"></circle>
<circle cx="7193.91" cy="1901.56" r="4" stroke="rgb(0,191,255)" stroke-width="2" fill="none"></circle>
<circle cx="1462.89" cy="2014.19" r="4" stroke="rgb(255,161,0)" stroke-width="2" fill="none"></circle>
<circle cx="5004.5" cy="1149.48" r="4" stroke="rgb(255,161,0)" stroke-width="2" fill="none"></circle>
<circle cx="1453.14" cy="2025.48" r="4" stroke="rgb(153,0,255)" stroke-width="2" fill="none"></circle>
<circle cx="6529.38" cy="890.279" r="4" stroke="rgb(153,0,255)" stroke-width="2" fill="none"></circle>
<circle cx="2449.73" cy="2025.67" r="4" stroke="rgb(0,255,246)" stroke-width="2" fill="none"></circle>
<circle cx="6591.39" cy="1664.11" r="4" stroke="rgb(0,255,246)" stroke-width="2" fill="none"></circle>
<circle cx="1722.83" cy="2028.52" r="4" stroke="rgb(255,161,0)" stroke-width="2" fill="none"></circle>
<circle cx="5527.56" cy="1501.2" r="4" stroke="rgb(255,161,0)" stroke-width="2" fill="none"></circle>
<circle cx="2368.24" cy="2032.1" r="4" stroke="rgb(255,0,165)" stroke-width="2" fill="none"></circle>
<circle cx="5995.18" cy="2258.54" r="4" stroke="rgb(255,0,165)" stroke-width="2" fill="none"></circle>
<circle cx="2263.9" cy="2040.03" r="4" stroke="rgb(255,102,0)" stroke-width="2" fill="none"></circle>
<circle cx="6741.35" cy="1711.62" r="4" stroke="rgb(255,102,0)" stroke-width="2" fill="none"></circle>
<circle cx="2021.83" cy="2040.92" r="4" stroke="rgb(255,0,169)" stroke-width="2" fill="none"></circle>
<circle cx="5610.89" cy="1689.03" r="4" stroke="rgb(255,0,169)" stroke-width="2" fill="none"></circle>
<circle cx="2485.93" cy="2057.69" r="4" stroke="rgb(127,0,255)" stroke-width="2" fill="none"></circle>
<circle cx="5782.94" cy="1842.18" r="4" stroke="rgb(127,0,255)" stroke-width="2" fill="none"></circle>
<circle cx="1089.64" cy="2070.73" r="4" stroke="rgb(8,255,0)" stroke-width="2" fill="none"></circle>
<circle cx="6470" cy="1211.31" r="4" stroke="rgb(8,255,0)" stroke-width="2" fill="none"></circle>
<circle cx="1657.16" cy="2091.02" r="4" stroke="rgb(255,0,174)" stroke-width="2" fill="none"></circle>
<circle cx="6976.19" cy="1804.39" r="4" stroke="rgb(255,0,174)" stroke-width="2" fill="none"></circle>
<circle cx="1989.47" cy="2097.87" r="4" stroke="rgb(0,255,148)" stroke-width="2" fill="none"></circle>
<circle cx="5692.76" cy="1705.25" r="4" stroke="rgb(0,255,148)" stroke-width="2" fill="none"></circle>
<circle cx="1409.37" cy="2113.23" r="4" stroke="rgb(0,174,255)" stroke-width="2" fill="none"></circle>
<circle cx="7104.38" cy="1477.56" r="4" stroke="rgb(0,174,255)" stroke-width="2" fill="none"></circle>
<circle cx="1434.21" cy="2116.19" r="4" stroke="rgb(0,51,255)" stroke-width="2" fill="none"></circle>
<circle cx="5271.64" cy="1446.18" r="4" stroke="rgb(0,51,255)" stroke-width="2" fill="none"></circle>
<circle cx="1042.09" cy="2123.24" r="4" stroke="rgb(255,4,0)" stroke-width="2" fill="none"></circle>
<circle cx="5063.39" cy="1204.97" r="4" stroke="rgb(255,4,0)" stroke-width="2" fill="none"></circle>
<circle cx="2185.64" cy="2135.22" r="4" stroke="rgb(225,255,0)" stroke-width="2" fill="none"></circle>
<circle cx="4941.49" cy="1174.77" r="4" stroke="rgb(225,255,0)" stroke-width="2" fill="none"></circle>
<circle cx="1718.48" cy="2135.78" r="4" stroke="rgb(187,255,0)" stroke-width="2" fill="none"></circle>
<circle cx="6518.14" cy="1793.15" r="4" stroke="rgb(187,255,0)" stroke-width="2" fill="none"></circle>
<circle cx="2329.1" cy="2136.54" r="4" stroke="rgb(195,0,255)" stroke-width="2" fill="none"></circle>
<circle cx="6935.98" cy="1899.15" r="4" stroke="rgb(195,0,255)" stroke-width="2" fill="none"></circle>
<circle cx="1940.69" cy="2137.54" r="4" stroke="rgb(8,255,0)" stroke-width="2" fill="none"></circle>
<circle cx="6479" cy="908.978" r="4" stroke="rgb(8,255,0)" stroke-width="2" fill="none"></circle>
<circle cx="1657.59" cy="2144.62" r="4" stroke="rgb(0,255,186)" stroke-width="2" fill="none"></circle>
<circle cx="6135.49" cy="2463.07" r="4" stroke="rgb(0,255,186)" stroke-width="2" fill="none"></circle>
<circle cx="1919.58" cy="2147.3" r="4" stroke="rgb(0,255,144)" stroke-width="2" fill="none"></circle>
<circle cx="6500.18" cy="1318.87" r="4" stroke="rgb(0,255,144)" stroke-width="2" fill="none"></circle>
<circle cx="1058.01" cy="2147.32" r="4" stroke="rgb(255,0,55)" stroke-width="2" fill="none"></circle>
<circle cx="5064.95" cy="1200.6" r="4" stroke="rgb(255,0,55)" stroke-width="2" fill="none"></circle>
<circle cx="1653.95" cy="2152.74" r="4" stroke="rgb(255,225,0)" stroke-width="2" fill="none"></circle>
<circle cx="5869.18" cy="1298.22" r="4" stroke="rgb(255,225,0)" stroke-width="2" fill="none"></circle>
<circle cx="1380.99" cy="2156.63" r="4" stroke="rgb(0,29,255)" stroke-width="2" fill="none"></circle>
<circle cx="5684.66" cy="1069.81" r="4" stroke="rgb(0,29,255)" stroke-width="2" fill="none"></circle>
<circle cx="1617.68" cy="2157.55" r="4" stroke="rgb(255,0,221)" stroke-width="2" fill="none"></circle>
<circle cx="5899.9" cy="1105.46" r="4" stroke="rgb(255,0,221)" stroke-width="2" fill="none"></circle>
<circle cx="1638.88" cy="2160.45" r="4" stroke="rgb(255,0,237)" stroke-width="2" fill="none"></circle>
<circle cx="5687.16" cy="1055.55" r="4" stroke="rgb(255,0,237)" stroke-width="2" fill="none"></circle>
<circle cx="1924.29" cy="2161.12" r="4" stroke="rgb(255,25,0)" stroke-width="2" fill="none"></circle>
<circle cx="5505.34" cy="1518.86" r="4" stroke="rgb(255,25,0)" stroke-width="2" fill="none"></circle>
<circle cx="1853.95" cy="2163.62" r="4" stroke="rgb(255,42,0)" stroke-width="2" fill="none"></circle>
<circle cx="6817.68" cy="1127.76" r="4" stroke="rgb(255,42,0)" stroke-width="2" fill="none"></circle>
<circle cx="1336.38" cy="2169.13" r="4" stroke="rgb(255,21,0)" stroke-width="2" fill="none"></circle>
<circle cx="6447.72" cy="1290.67" r="4" stroke="rgb(255,21,0)" stroke-width="2" fill="none"></circle>
<circle cx="1230.28" cy="2186.89" r="4" stroke="rgb(255,187,0)" stroke-width="2" fill="none"></circle>
<circle cx="5719.15" cy="1512.05" r="4" stroke="rgb(255,187,0)" stroke-width="2" fill="none"></circle>
<circle cx="1781.04" cy="2196.28" r="4" stroke="rgb(0,255,8)" stroke-width="2" fill="none"></circle>
<circle cx="6745.91" cy="1552.17" r="4" stroke="rgb(0,255,8)" stroke-width="2" fill="none"></circle>
<circle cx="1431.93" cy="2229.65" r="4" stroke="rgb(203,255,0)" stroke-width="2" fill="none"></circle>
<circle cx="5547.06" cy="1308.22" r="4" stroke="rgb(203,255,0)" stroke-width="2" fill="none"></circle>
<circle cx="1216.74" cy="2239.62" r="4" stroke="rgb(161,255,0)" stroke-width="2" fill="none"></circle>
<circle cx="5594.91" cy="762.112" r="4" stroke="rgb(161,255,0)" stroke-width="2" fill="none"></circle>
<circle cx="1560.86" cy="2244.88" r="4" stroke="rgb(255,161,0)" stroke-width="2" fill="none"></circle>
<circle cx="5319.88" cy="1069.37" r="4" stroke="rgb(255,161,0)" stroke-width="2" fill="none"></circle>
<circle cx="1265.17" cy="2255.95" r="4" stroke="rgb(46,0,255)" stroke-width="2" fill="none"></circle>
<circle cx="4876.34" cy="1090.27" r="4" stroke="rgb(46,0,255)" stroke-width="2" fill="none"></circle>
<circle cx="976.557" cy="2267.19" r="4" stroke="rgb(255,0,29)" stroke-width="2" fill="none"></circle>
<circle cx="5961.86" cy="1733.65" r="4" stroke="rgb(255,0,29)" stroke-width="2" fill="none"></circle>
<circle cx="1442.99" cy="2270.04" r="4" stroke="rgb(0,38,255)" stroke-width="2" fill="none"></circle>
<circle cx="5761.03" cy="711.117" r="4" stroke="rgb(0,38,255)" stroke-width="2" fill="none"></circle>
</svg>