<?xml version="1.0" standalone="yes"?>
<!-- SVG graphic -->
<svg xmlns='http://www.w3.org/2000/svg' xmlns:xlink='http://www.w3.org/1999/xlink'
width="8064px" height="3024px" preserveAspectRatio="xMinYMin meet" viewBox="0 0 8064 3024" version="1.1">
<image x="0" y="0" width="4032px" height="3024px" opacity="1" xlink:href="/home/jeong/Code/2D-to-3D-Modeling-using-AI/Make3D/Image/20200227_180712.jpg"/>
<image x="4032" y="0" width="4032px" height="3024px" opacity="1" xlink:href="/home/jeong/Code/2D-to-3D-Modeling-using-AI/Make3D/Image/20200227_180731.jpg"/>
<polyline points="1614.41,1594.62,5751.6,499.176" stroke="rgb(174,255,0)" stroke-width="2" fill="none"></polyline>
<polyline points="1079.28,2029.27,6021.99,598.04" stroke="rgb(255,216,0)" stroke-width="2" fill="none"></polyline>
<polyline points="1165.26,1972.03,5540.16,1013.44" stroke="rgb(0,140,255)" stroke-width="2" fill="none"></polyline>
<polyline points="1165.26,1972.03,5540.16,1013.44" stroke="rgb(255,76,0)" stroke-width="2" fill="none"></polyline>
<polyline points="2747.73,1374.06,6040.71,738.492" stroke="rgb(255,93,0)" stroke-width="2" fill="none"></polyline>
<polyline points="2747.73,1374.06,6040.71,738.492" stroke="rgb(59,255,0)" stroke-width="2" fill="none"></polyline>
<polyline points="1589.73,1603.81,6704.53,1943.23" stroke="rgb(246,255,0)" stroke-width="2" fill="none"></polyline>
<polyline points="1884.17,1853.09,5934.67,1946.27" stroke="rgb(0,12,255)" stroke-width="2" fill="none"></polyline>
<polyline points="2397.68,1846.13,5220.16,850.176" stroke="rgb(216,0,255)" stroke-width="2" fill="none"></polyline>
<polyline points="1847.36,1276.42,5783.08,1778.82" stroke="rgb(140,0,255)" stroke-width="2" fill="none"></polyline>
<polyline points="2399.45,2025.76,5633.6,845.034" stroke="rgb(255,0,25)" stroke-width="2" fill="none"></polyline>
<polyline points="2399.45,2025.76,5642.4,850.253" stroke="rgb(0,38,255)" stroke-width="2" fill="none"></polyline>
<polyline points="1216.74,2239.62,6510.6,877.917" stroke="rgb(0,135,255)" stroke-width="2" fill="none"></polyline>
<polyline points="1118.49,2006.52,6014.84,889.356" stroke="rgb(255,127,0)" stroke-width="2" fill="none"></polyline>
<polyline points="1589.73,1603.81,6021.01,911.078" stroke="rgb(0,255,76)" stroke-width="2" fill="none"></polyline>
<polyline points="1453.18,1720.34,6795.75,2083.55" stroke="rgb(178,0,255)" stroke-width="2" fill="none"></polyline>
<polyline points="1646.3,1949.01,5616.01,923.131" stroke="rgb(255,233,0)" stroke-width="2" fill="none"></polyline>
<polyline points="1453.14,2025.48,6866.81,1261.82" stroke="rgb(93,255,0)" stroke-width="2" fill="none"></polyline>
<polyline points="1572.58,1841.26,5631.04,954.513" stroke="rgb(255,42,0)" stroke-width="2" fill="none"></polyline>
<polyline points="2328.31,955.477,5768.41,2371.96" stroke="rgb(255,165,0)" stroke-width="2" fill="none"></polyline>
<polyline points="1481.06,2198.79,6493.43,2241.91" stroke="rgb(255,0,8)" stroke-width="2" fill="none"></polyline>
<polyline points="1481.06,2198.79,6446.76,2258.02" stroke="rgb(0,169,255)" stroke-width="2" fill="none"></polyline>
<polyline points="2505.47,2191.74,6532.43,2392.91" stroke="rgb(255,157,0)" stroke-width="2" fill="none"></polyline>
<polyline points="1422.33,1675.87,5859.92,2591.34" stroke="rgb(255,110,0)" stroke-width="2" fill="none"></polyline>
<polyline points="1422.33,1675.87,5859.92,2591.34" stroke="rgb(255,0,51)" stroke-width="2" fill="none"></polyline>
<polyline points="2469.18,887.828,6558.24,2446.74" stroke="rgb(72,0,255)" stroke-width="2" fill="none"></polyline>
<polyline points="2469.18,887.828,6339.22,2663.67" stroke="rgb(0,255,225)" stroke-width="2" fill="none"></polyline>
<polyline points="1814.31,1360.44,5921.19,1998.61" stroke="rgb(233,0,255)" stroke-width="2" fill="none"></polyline>
<polyline points="2217.5,2089.84,6537.9,1141.1" stroke="rgb(246,255,0)" stroke-width="2" fill="none"></polyline>
<polyline points="2251.59,1844.23,6846.89,1223.26" stroke="rgb(0,0,255)" stroke-width="2" fill="none"></polyline>
<polyline points="2577.45,2009.71,5628.67,1303.51" stroke="rgb(29,0,255)" stroke-width="2" fill="none"></polyline>
<polyline points="1404.39,1961.23,6397.91,2373.66" stroke="rgb(255,59,0)" stroke-width="2" fill="none"></polyline>
<polyline points="1422.33,1675.87,5859.98,2591.18" stroke="rgb(0,255,182)" stroke-width="2" fill="none"></polyline>
<polyline points="1402.94,1846.72,5870.86,1606.91" stroke="rgb(255,0,144)" stroke-width="2" fill="none"></polyline>
<polyline points="969.128,2129.21,6593.57,1100.31" stroke="rgb(102,0,255)" stroke-width="2" fill="none"></polyline>
<polyline points="2236.87,1005.44,6284.6,1392.59" stroke="rgb(255,242,0)" stroke-width="2" fill="none"></polyline>
<polyline points="1596.41,1922.82,6586.19,1699.51" stroke="rgb(203,255,0)" stroke-width="2" fill="none"></polyline>
<polyline points="1799.82,1241.75,5834.15,1843.64" stroke="rgb(255,0,144)" stroke-width="2" fill="none"></polyline>
<polyline points="1508.96,2198.19,5890.72,1371.28" stroke="rgb(229,0,255)" stroke-width="2" fill="none"></polyline>
<polyline points="1950.21,1090.33,5957.98,1569.24" stroke="rgb(0,17,255)" stroke-width="2" fill="none"></polyline>
<polyline points="1385.91,1839.89,5719.93,919.568" stroke="rgb(38,255,0)" stroke-width="2" fill="none"></polyline>
<polyline points="2577.45,2009.71,5636.75,813.718" stroke="rgb(208,0,255)" stroke-width="2" fill="none"></polyline>
<polyline points="1989.47,2097.87,5460.26,937.314" stroke="rgb(55,255,0)" stroke-width="2" fill="none"></polyline>
<polyline points="1989.47,2097.87,5474.84,945.716" stroke="rgb(255,0,174)" stroke-width="2" fill="none"></polyline>
<polyline points="1989.47,2097.87,5489.16,952.47" stroke="rgb(0,208,255)" stroke-width="2" fill="none"></polyline>
<polyline points="1989.47,2097.87,5521.37,970.449" stroke="rgb(21,0,255)" stroke-width="2" fill="none"></polyline>
<polyline points="1463.85,1700.02,6073.45,1326.99" stroke="rgb(8,0,255)" stroke-width="2" fill="none"></polyline>
<polyline points="1560.86,2244.88,5877.99,1604.13" stroke="rgb(25,0,255)" stroke-width="2" fill="none"></polyline>
<polyline points="1987.07,1825.95,5999.81,1680.41" stroke="rgb(0,101,255)" stroke-width="2" fill="none"></polyline>
<polyline points="2195.41,1237.35,5871.27,1836.16" stroke="rgb(50,0,255)" stroke-width="2" fill="none"></polyline>
<polyline points="1822.93,1187.98,6756.19,1752.83" stroke="rgb(191,0,255)" stroke-width="2" fill="none"></polyline>
<polyline points="1919.58,2147.3,6591.23,1794.81" stroke="rgb(0,110,255)" stroke-width="2" fill="none"></polyline>
<polyline points="1818.57,2194.12,5708.36,1549.26" stroke="rgb(255,0,148)" stroke-width="2" fill="none"></polyline>
<polyline points="2516.16,1320.21,5895.19,1619.42" stroke="rgb(0,195,255)" stroke-width="2" fill="none"></polyline>
<polyline points="1873.9,2064.96,6712.57,1840.94" stroke="rgb(0,0,255)" stroke-width="2" fill="none"></polyline>
<circle cx="1614.41" cy="1594.62" r="4" stroke="rgb(174,255,0)" stroke-width="2" fill="none"></circle>
<circle cx="5751.6" cy="499.176" r="4" stroke="rgb(174,255,0)" stroke-width="2" fill="none"></circle>
<circle cx="1079.28" cy="2029.27" r="4" stroke="rgb(255,216,0)" stroke-width="2" fill="none"></circle>
<circle cx="6021.99" cy="598.04" r="4" stroke="rgb(255,216,0)" stroke-width="2" fill="none"></circle>
<circle cx="1165.26" cy="1972.03" r="4" stroke="rgb(0,140,255)" stroke-width="2" fill="none"></circle>
<circle cx="5540.16" cy="1013.44" r="4" stroke="rgb(0,140,255)" stroke-width="2" fill="none"></circle>
<circle cx="1165.26" cy="1972.03" r="4" stroke="rgb(255,76,0)" stroke-width="2" fill="none"></circle>
<circle cx="5540.16" cy="1013.44" r="4" stroke="rgb(255,76,0)" stroke-width="2" fill="none"></circle>
<circle cx="2747.73" cy="1374.06" r="4" stroke="rgb(255,93,0)" stroke-width="2" fill="none"></circle>
<circle cx="6040.71" cy="738.492" r="4" stroke="rgb(255,93,0)" stroke-width="2" fill="none"></circle>
<circle cx="2747.73" cy="1374.06" r="4" stroke="rgb(59,255,0)" stroke-width="2" fill="none"></circle>
<circle cx="6040.71" cy="738.492" r="4" stroke="rgb(59,255,0)" stroke-width="2" fill="none"></circle>
<circle cx="1589.73" cy="1603.81" r="4" stroke="rgb(246,255,0)" stroke-width="2" fill="none"></circle>
<circle cx="6704.53" cy="1943.23" r="4" stroke="rgb(246,255,0)" stroke-width="2" fill="none"></circle>
<circle cx="1884.17" cy="1853.09" r="4" stroke="rgb(0,12,255)" stroke-width="2" fill="none"></circle>
<circle cx="5934.67" cy="1946.27" r="4" stroke="rgb(0,12,255)" stroke-width="2" fill="none"></circle>
<circle cx="2397.68" cy="1846.13" r="4" stroke="rgb(216,0,255)" stroke-width="2" fill="none"></circle>
<circle cx="5220.16" cy="850.176" r="4" stroke="rgb(216,0,255)" stroke-width="2" fill="none"></circle>
<circle cx="1847.36" cy="1276.42" r="4" stroke="rgb(140,0,255)" stroke-width="2" fill="none"></circle>
<circle cx="5783.08" cy="1778.82" r="4" stroke="rgb(140,0,255)" stroke-width="2" fill="none"></circle>
<circle cx="2399.45" cy="2025.76" r="4" stroke="rgb(255,0,25)" stroke-width="2" fill="none"></circle>
<circle cx="5633.6" cy="845.034" r="4" stroke="rgb(255,0,25)" stroke-width="2" fill="none"></circle>
<circle cx="2399.45" cy="2025.76" r="4" stroke="rgb(0,38,255)" stroke-width="2" fill="none"></circle>
<circle cx="5642.4" cy="850.253" r="4" stroke="rgb(0,38,255)" stroke-width="2" fill="none"></circle>
<circle cx="1216.74" cy="2239.62" r="4" stroke="rgb(0,135,255)" stroke-width="2" fill="none"></circle>
<circle cx="6510.6" cy="877.917" r="4" stroke="rgb(0,135,255)" stroke-width="2" fill="none"></circle>
<circle cx="1118.49" cy="2006.52" r="4" stroke="rgb(255,127,0)" stroke-width="2" fill="none"></circle>
<circle cx="6014.84" cy="889.356" r="4" stroke="rgb(255,127,0)" stroke-width="2" fill="none"></circle>
<circle cx="1589.73" cy="1603.81" r="4" stroke="rgb(0,255,76)" stroke-width="2" fill="none"></circle>
<circle cx="6021.01" cy="911.078" r="4" stroke="rgb(0,255,76)" stroke-width="2" fill="none"></circle>
<circle cx="1453.18" cy="1720.34" r="4" stroke="rgb(178,0,255)" stroke-width="2" fill="none"></circle>
<circle cx="6795.75" cy="2083.55" r="4" stroke="rgb(178,0,255)" stroke-width="2" fill="none"></circle>
<circle cx="1646.3" cy="1949.01" r="4" stroke="rgb(255,233,0)" stroke-width="2" fill="none"></circle>
<circle cx="5616.01" cy="923.131" r="4" stroke="rgb(255,233,0)" stroke-width="2" fill="none"></circle>
<circle cx="1453.14" cy="2025.48" r="4" stroke="rgb(93,255,0)" stroke-width="2" fill="none"></circle>
<circle cx="6866.81" cy="1261.82" r="4" stroke="rgb(93,255,0)" stroke-width="2" fill="none"></circle>
<circle cx="1572.58" cy="1841.26" r="4" stroke="rgb(255,42,0)" stroke-width="2" fill="none"></circle>
<circle cx="5631.04" cy="954.513" r="4" stroke="rgb(255,42,0)" stroke-width="2" fill="none"></circle>
<circle cx="2328.31" cy="955.477" r="4" stroke="rgb(255,165,0)" stroke-width="2" fill="none"></circle>
<circle cx="5768.41" cy="2371.96" r="4" stroke="rgb(255,165,0)" stroke-width="2" fill="none"></circle>
<circle cx="1481.06" cy="2198.79" r="4" stroke="rgb(255,0,8)" stroke-width="2" fill="none"></circle>
<circle cx="6493.43" cy="2241.91" r="4" stroke="rgb(255,0,8)" stroke-width="2" fill="none"></circle>
<circle cx="1481.06" cy="2198.79" r="4" stroke="rgb(0,169,255)" stroke-width="2" fill="none"></circle>
<circle cx="6446.76" cy="2258.02" r="4" stroke="rgb(0,169,255)" stroke-width="2" fill="none"></circle>
<circle cx="2505.47" cy="2191.74" r="4" stroke="rgb(255,157,0)" stroke-width="2" fill="none"></circle>
<circle cx="6532.43" cy="2392.91" r="4" stroke="rgb(255,157,0)" stroke-width="2" fill="none"></circle>
<circle cx="1422.33" cy="1675.87" r="4" stroke="rgb(255,110,0)" stroke-width="2" fill="none"></circle>
<circle cx="5859.92" cy="2591.34" r="4" stroke="rgb(255,110,0)" stroke-width="2" fill="none"></circle>
<circle cx="1422.33" cy="1675.87" r="4" stroke="rgb(255,0,51)" stroke-width="2" fill="none"></circle>
<circle cx="5859.92" cy="2591.34" r="4" stroke="rgb(255,0,51)" stroke-width="2" fill="none"></circle>
<circle cx="2469.18" cy="887.828" r="4" stroke="rgb(72,0,255)" stroke-width="2" fill="none"></circle>
<circle cx="6558.24" cy="2446.74" r="4" stroke="rgb(72,0,255)" stroke-width="2" fill="none"></circle>
<circle cx="2469.18" cy="887.828" r="4" stroke="rgb(0,255,225)" stroke-width="2" fill="none"></circle>
<circle cx="6339.22" cy="2663.67" r="4" stroke="rgb(0,255,225)" stroke-width="2" fill="none"></circle>
<circle cx="1814.31" cy="1360.44" r="4" stroke="rgb(233,0,255)" stroke-width="2" fill="none"></circle>
<circle cx="5921.19" cy="1998.61" r="4" stroke="rgb(233,0,255)" stroke-width="2" fill="none"></circle>
<circle cx="2217.5" cy="2089.84" r="4" stroke="rgb(246,255,0)" stroke-width="2" fill="none"></circle>
<circle cx="6537.9" cy="1141.1" r="4" stroke="rgb(246,255,0)" stroke-width="2" fill="none"></circle>
<circle cx="2251.59" cy="1844.23" r="4" stroke="rgb(0,0,255)" stroke-width="2" fill="none"></circle>
<circle cx="6846.89" cy="1223.26" r="4" stroke="rgb(0,0,255)" stroke-width="2" fill="none"></circle>
<circle cx="2577.45" cy="2009.71" r="4" stroke="rgb(29,0,255)" stroke-width="2" fill="none"></circle>
<circle cx="5628.67" cy="1303.51" r="4" stroke="rgb(29,0,255)" stroke-width="2" fill="none"></circle>
<circle cx="1404.39" cy="1961.23" r="4" stroke="rgb(255,59,0)" stroke-width="2" fill="none"></circle>
<circle cx="6397.91" cy="2373.66" r="4" stroke="rgb(255,59,0)" stroke-width="2" fill="none"></circle>
<circle cx="1422.33" cy="1675.87" r="4" stroke="rgb(0,255,182)" stroke-width="2" fill="none"></circle>
<circle cx="5859.98" cy="2591.18" r="4" stroke="rgb(0,255,182)" stroke-width="2" fill="none"></circle>
<circle cx="1402.94" cy="1846.72" r="4" stroke="rgb(255,0,144)" stroke-width="2" fill="none"></circle>
<circle cx="5870.86" cy="1606.91" r="4" stroke="rgb(255,0,144)" stroke-width="2" fill="none"></circle>
<circle cx="969.128" cy="2129.21" r="4" stroke="rgb(102,0,255)" stroke-width="2" fill="none"></circle>
<circle cx="6593.57" cy="1100.31" r="4" stroke="rgb(102,0,255)" stroke-width="2" fill="none"></circle>
<circle cx="2236.87" cy="1005.44" r="4" stroke="rgb(255,242,0)" stroke-width="2" fill="none"></circle>
<circle cx="6284.6" cy="1392.59" r="4" stroke="rgb(255,242,0)" stroke-width="2" fill="none"></circle>
<circle cx="1596.41" cy="1922.82" r="4" stroke="rgb(203,255,0)" stroke-width="2" fill="none"></circle>
<circle cx="6586.19" cy="1699.51" r="4" stroke="rgb(203,255,0)" stroke-width="2" fill="none"></circle>
<circle cx="1799.82" cy="1241.75" r="4" stroke="rgb(255,0,144)" stroke-width="2" fill="none"></circle>
<circle cx="5834.15" cy="1843.64" r="4" stroke="rgb(255,0,144)" stroke-width="2" fill="none"></circle>
<circle cx="1508.96" cy="2198.19" r="4" stroke="rgb(229,0,255)" stroke-width="2" fill="none"></circle>
<circle cx="5890.72" cy="1371.28" r="4" stroke="rgb(229,0,255)" stroke-width="2" fill="none"></circle>
<circle cx="1950.21" cy="1090.33" r="4" stroke="rgb(0,17,255)" stroke-width="2" fill="none"></circle>
<circle cx="5957.98" cy="1569.24" r="4" stroke="rgb(0,17,255)" stroke-width="2" fill="none"></circle>
<circle cx="1385.91" cy="1839.89" r="4" stroke="rgb(38,255,0)" stroke-width="2" fill="none"></circle>
<circle cx="5719.93" cy="919.568" r="4" stroke="rgb(38,255,0)" stroke-width="2" fill="none"></circle>
<circle cx="2577.45" cy="2009.71" r="4" stroke="rgb(208,0,255)" stroke-width="2" fill="none"></circle>
<circle cx="5636.75" cy="813.718" r="4" stroke="rgb(208,0,255)" stroke-width="2" fill="none"></circle>
<circle cx="1989.47" cy="2097.87" r="4" stroke="rgb(55,255,0)" stroke-width="2" fill="none"></circle>
<circle cx="5460.26" cy="937.314" r="4" stroke="rgb(55,255,0)" stroke-width="2" fill="none"></circle>
<circle cx="1989.47" cy="2097.87" r="4" stroke="rgb(255,0,174)" stroke-width="2" fill="none"></circle>
<circle cx="5474.84" cy="945.716" r="4" stroke="rgb(255,0,174)" stroke-width="2" fill="none"></circle>
<circle cx="1989.47" cy="2097.87" r="4" stroke="rgb(0,208,255)" stroke-width="2" fill="none"></circle>
<circle cx="5489.16" cy="952.47" r="4" stroke="rgb(0,208,255)" stroke-width="2" fill="none"></circle>
<circle cx="1989.47" cy="2097.87" r="4" stroke="rgb(21,0,255)" stroke-width="2" fill="none"></circle>
<circle cx="5521.37" cy="970.449" r="4" stroke="rgb(21,0,255)" stroke-width="2" fill="none"></circle>
<circle cx="1463.85" cy="1700.02" r="4" stroke="rgb(8,0,255)" stroke-width="2" fill="none"></circle>
<circle cx="6073.45" cy="1326.99" r="4" stroke="rgb(8,0,255)" stroke-width="2" fill="none"></circle>
<circle cx="1560.86" cy="2244.88" r="4" stroke="rgb(25,0,255)" stroke-width="2" fill="none"></circle>
<circle cx="5877.99" cy="1604.13" r="4" stroke="rgb(25,0,255)" stroke-width="2" fill="none"></circle>
<circle cx="1987.07" cy="1825.95" r="4" stroke="rgb(0,101,255)" stroke-width="2" fill="none"></circle>
<circle cx="5999.81" cy="1680.41" r="4" stroke="rgb(0,101,255)" stroke-width="2" fill="none"></circle>
<circle cx="2195.41" cy="1237.35" r="4" stroke="rgb(50,0,255)" stroke-width="2" fill="none"></circle>
<circle cx="5871.27" cy="1836.16" r="4" stroke="rgb(50,0,255)" stroke-width="2" fill="none"></circle>
<circle cx="1822.93" cy="1187.98" r="4" stroke="rgb(191,0,255)" stroke-width="2" fill="none"></circle>
<circle cx="6756.19" cy="1752.83" r="4" stroke="rgb(191,0,255)" stroke-width="2" fill="none"></circle>
<circle cx="1919.58" cy="2147.3" r="4" stroke="rgb(0,110,255)" stroke-width="2" fill="none"></circle>
<circle cx="6591.23" cy="1794.81" r="4" stroke="rgb(0,110,255)" stroke-width="2" fill="none"></circle>
<circle cx="1818.57" cy="2194.12" r="4" stroke="rgb(255,0,148)" stroke-width="2" fill="none"></circle>
<circle cx="5708.36" cy="1549.26" r="4" stroke="rgb(255,0,148)" stroke-width="2" fill="none"></circle>
<circle cx="2516.16" cy="1320.21" r="4" stroke="rgb(0,195,255)" stroke-width="2" fill="none"></circle>
<circle cx="5895.19" cy="1619.42" r="4" stroke="rgb(0,195,255)" stroke-width="2" fill="none"></circle>
<circle cx="1873.9" cy="2064.96" r="4" stroke="rgb(0,0,255)" stroke-width="2" fill="none"></circle>
<circle cx="6712.57" cy="1840.94" r="4" stroke="rgb(0,0,255)" stroke-width="2" fill="none"></circle>
</svg>