<?xml version="1.0" standalone="yes"?>
<!-- SVG graphic -->
<svg xmlns='http://www.w3.org/2000/svg' xmlns:xlink='http://www.w3.org/1999/xlink'
width="8064px" height="3024px" preserveAspectRatio="xMinYMin meet" viewBox="0 0 8064 3024" version="1.1">
<image x="0" y="0" width="4032px" height="3024px" opacity="1" xlink:href="/home/jeong/Code/2D-to-3D-Modeling-using-AI/Make3D/Image/20200227_180716.jpg"/>
<image x="4032" y="0" width="4032px" height="3024px" opacity="1" xlink:href="/home/jeong/Code/2D-to-3D-Modeling-using-AI/Make3D/Image/20200227_180733.jpg"/>
<polyline points="1298.86,1644.84,6389.79,1116.46" stroke="rgb(0,255,25)" stroke-width="2" fill="none"></polyline>
<polyline points="2825.32,914.65,6821.4,1173.17" stroke="rgb(255,0,89)" stroke-width="2" fill="none"></polyline>
<polyline points="1763.89,996.812,5907.06,2392.59" stroke="rgb(255,170,0)" stroke-width="2" fill="none"></polyline>
<polyline points="2026.22,578.53,6186.87,1277.33" stroke="rgb(255,0,225)" stroke-width="2" fill="none"></polyline>
<polyline points="1284.35,898.761,6659.14,1753.82" stroke="rgb(0,157,255)" stroke-width="2" fill="none"></polyline>
<polyline points="1790.57,961.842,5881.62,2430.4" stroke="rgb(0,51,255)" stroke-width="2" fill="none"></polyline>
<polyline points="1745.88,1349.07,6002.8,1804.6" stroke="rgb(0,237,255)" stroke-width="2" fill="none"></polyline>
<polyline points="1730.52,1167.18,5909.42,2231.12" stroke="rgb(255,0,97)" stroke-width="2" fill="none"></polyline>
<polyline points="1744.03,1342.74,6005.67,1810.63" stroke="rgb(0,17,255)" stroke-width="2" fill="none"></polyline>
<polyline points="1983.78,359.517,6684.79,1421.7" stroke="rgb(255,21,0)" stroke-width="2" fill="none"></polyline>
<polyline points="874.722,1509.83,6937.4,1841.24" stroke="rgb(0,255,186)" stroke-width="2" fill="none"></polyline>
<polyline points="1932.6,780.088,6000.91,2259.25" stroke="rgb(89,255,0)" stroke-width="2" fill="none"></polyline>
<polyline points="1154.37,1162.22,6562.08,1846.4" stroke="rgb(242,0,255)" stroke-width="2" fill="none"></polyline>
<polyline points="1930.24,1166.66,6188.64,2464.34" stroke="rgb(255,59,0)" stroke-width="2" fill="none"></polyline>
<polyline points="2136.15,441.587,6744.29,1824.18" stroke="rgb(0,225,255)" stroke-width="2" fill="none"></polyline>
<polyline points="1145.08,1252.62,6289.44,1484.72" stroke="rgb(140,255,0)" stroke-width="2" fill="none"></polyline>
<polyline points="1311.02,1908.86,6189.55,2488.84" stroke="rgb(255,191,0)" stroke-width="2" fill="none"></polyline>
<polyline points="1346.71,1104.61,6961.24,1876.79" stroke="rgb(17,0,255)" stroke-width="2" fill="none"></polyline>
<polyline points="2020.14,834.05,5999.07,2288.5" stroke="rgb(203,255,0)" stroke-width="2" fill="none"></polyline>
<polyline points="1344.52,896.187,6530.2,2295.63" stroke="rgb(135,0,255)" stroke-width="2" fill="none"></polyline>
<polyline points="1370.2,1826.83,6445.97,2538.4" stroke="rgb(63,255,0)" stroke-width="2" fill="none"></polyline>
<polyline points="1308.53,1025.95,6579.67,1588.92" stroke="rgb(0,255,12)" stroke-width="2" fill="none"></polyline>
<polyline points="1154.37,1162.22,6746.66,1629.09" stroke="rgb(221,255,0)" stroke-width="2" fill="none"></polyline>
<polyline points="1640.14,1525.86,6042.05,1904.73" stroke="rgb(80,0,255)" stroke-width="2" fill="none"></polyline>
<polyline points="773.94,1752.52,7050.14,1628.53" stroke="rgb(0,255,110)" stroke-width="2" fill="none"></polyline>
<polyline points="1668.38,1628.64,6965.73,1636.09" stroke="rgb(0,255,50)" stroke-width="2" fill="none"></polyline>
<polyline points="1154.37,1162.22,6752.64,1612.03" stroke="rgb(255,0,17)" stroke-width="2" fill="none"></polyline>
<polyline points="1154.37,1162.22,6739.95,1617.92" stroke="rgb(255,0,153)" stroke-width="2" fill="none"></polyline>
<polyline points="1782.8,1071.69,5876.59,2333.19" stroke="rgb(255,0,127)" stroke-width="2" fill="none"></polyline>
<polyline points="2136.15,441.587,6835.88,1641.3" stroke="rgb(255,106,0)" stroke-width="2" fill="none"></polyline>
<polyline points="1909.05,1461.25,7091.61,1646.47" stroke="rgb(169,255,0)" stroke-width="2" fill="none"></polyline>
<polyline points="1275.25,960.869,6671.79,1871.78" stroke="rgb(97,255,0)" stroke-width="2" fill="none"></polyline>
<polyline points="1327.02,837.32,6635.46,1955.62" stroke="rgb(255,17,0)" stroke-width="2" fill="none"></polyline>
<polyline points="1343.38,1011.08,6299.68,1691.48" stroke="rgb(255,0,33)" stroke-width="2" fill="none"></polyline>
<polyline points="2032.65,675.156,5975.78,2349.92" stroke="rgb(255,187,0)" stroke-width="2" fill="none"></polyline>
<polyline points="1782.99,1048.91,5875.28,2353.27" stroke="rgb(0,140,255)" stroke-width="2" fill="none"></polyline>
<polyline points="2018.61,867.264,5810.38,2371.08" stroke="rgb(0,80,255)" stroke-width="2" fill="none"></polyline>
<polyline points="1789.74,1029.43,5870.75,2371.89" stroke="rgb(80,255,0)" stroke-width="2" fill="none"></polyline>
<polyline points="1889.49,257.76,6744.26,1997.47" stroke="rgb(0,237,255)" stroke-width="2" fill="none"></polyline>
<polyline points="1932.6,780.088,5902.69,2383.59" stroke="rgb(255,0,131)" stroke-width="2" fill="none"></polyline>
<polyline points="1761.06,1001.58,5909.41,2386.6" stroke="rgb(255,0,93)" stroke-width="2" fill="none"></polyline>
<polyline points="1155.81,1051.12,6653.14,1973.8" stroke="rgb(0,80,255)" stroke-width="2" fill="none"></polyline>
<polyline points="1166.05,1162.28,6655.54,1982.14" stroke="rgb(221,255,0)" stroke-width="2" fill="none"></polyline>
<polyline points="1176.42,1127.19,6631.28,2041.96" stroke="rgb(148,0,255)" stroke-width="2" fill="none"></polyline>
<polyline points="833.846,1648.22,6469.07,2075.68" stroke="rgb(55,255,0)" stroke-width="2" fill="none"></polyline>
<polyline points="2136.15,441.587,6610.83,2408.74" stroke="rgb(63,0,255)" stroke-width="2" fill="none"></polyline>
<polyline points="1176.42,1127.19,6515.23,2069.75" stroke="rgb(0,25,255)" stroke-width="2" fill="none"></polyline>
<polyline points="2292.26,843.787,5948.65,2419.2" stroke="rgb(0,255,135)" stroke-width="2" fill="none"></polyline>
<polyline points="1188.73,1135.82,6490.01,2068.62" stroke="rgb(255,46,0)" stroke-width="2" fill="none"></polyline>
<polyline points="1304.41,857.972,6608.18,2087.13" stroke="rgb(0,255,246)" stroke-width="2" fill="none"></polyline>
<polyline points="1198.72,1132.09,6476.42,2076.13" stroke="rgb(237,255,0)" stroke-width="2" fill="none"></polyline>
<polyline points="1198.72,1132.09,6476.42,2076.13" stroke="rgb(12,255,0)" stroke-width="2" fill="none"></polyline>
<polyline points="1204.17,1127.48,6470.84,2083.54" stroke="rgb(0,255,229)" stroke-width="2" fill="none"></polyline>
<polyline points="1209.29,1120.88,6467.02,2093.98" stroke="rgb(255,17,0)" stroke-width="2" fill="none"></polyline>
<polyline points="2136.15,441.587,6713.79,2138.6" stroke="rgb(34,0,255)" stroke-width="2" fill="none"></polyline>
<polyline points="1807.25,952.263,5864.99,2443.95" stroke="rgb(255,0,169)" stroke-width="2" fill="none"></polyline>
<polyline points="1377.62,1606.93,5972.14,2106.68" stroke="rgb(0,255,67)" stroke-width="2" fill="none"></polyline>
<polyline points="1377.62,1606.93,5972.14,2106.68" stroke="rgb(16,255,0)" stroke-width="2" fill="none"></polyline>
<polyline points="1812.7,861.346,5892.96,2150.72" stroke="rgb(186,0,255)" stroke-width="2" fill="none"></polyline>
<polyline points="1209.29,1120.88,6512.44,2131.09" stroke="rgb(255,0,89)" stroke-width="2" fill="none"></polyline>
<polyline points="1344.52,896.187,6389.17,2473.01" stroke="rgb(0,255,89)" stroke-width="2" fill="none"></polyline>
<polyline points="1154.37,1162.22,6595.31,2155.71" stroke="rgb(0,17,255)" stroke-width="2" fill="none"></polyline>
<polyline points="1166.05,1162.28,6609.65,2147.77" stroke="rgb(187,255,0)" stroke-width="2" fill="none"></polyline>
<polyline points="1238.24,1002.09,6384.4,2484.56" stroke="rgb(0,255,106)" stroke-width="2" fill="none"></polyline>
<polyline points="1818.74,1248.32,5975.58,2154.02" stroke="rgb(0,46,255)" stroke-width="2" fill="none"></polyline>
<polyline points="1273.47,967.125,6602.52,2177.9" stroke="rgb(255,0,33)" stroke-width="2" fill="none"></polyline>
<polyline points="1346.71,1104.61,6278.68,2174.45" stroke="rgb(255,0,33)" stroke-width="2" fill="none"></polyline>
<polyline points="1275.25,960.869,6604.15,2186.84" stroke="rgb(255,0,161)" stroke-width="2" fill="none"></polyline>
<polyline points="1828.11,874.986,5857.96,2512.96" stroke="rgb(255,0,148)" stroke-width="2" fill="none"></polyline>
<polyline points="1245.27,1041.07,6447.47,2195.4" stroke="rgb(255,208,0)" stroke-width="2" fill="none"></polyline>
<polyline points="1702.3,1210.04,5926.42,2184.29" stroke="rgb(216,0,255)" stroke-width="2" fill="none"></polyline>
<polyline points="1706.07,1187.94,5926.11,2205.6" stroke="rgb(255,0,242)" stroke-width="2" fill="none"></polyline>
<polyline points="1240.01,946.915,6462.86,2548.99" stroke="rgb(127,0,255)" stroke-width="2" fill="none"></polyline>
<polyline points="1308.53,1025.95,6224.99,2218.85" stroke="rgb(0,38,255)" stroke-width="2" fill="none"></polyline>
<polyline points="1745.86,1130.74,5900.48,2269.27" stroke="rgb(127,255,0)" stroke-width="2" fill="none"></polyline>
<polyline points="1726.41,1149.82,5912.7,2245.79" stroke="rgb(38,0,255)" stroke-width="2" fill="none"></polyline>
<polyline points="1353.18,1210.75,6124.27,2308.6" stroke="rgb(0,255,25)" stroke-width="2" fill="none"></polyline>
<polyline points="1911.57,780.376,5912.14,2267.75" stroke="rgb(255,0,148)" stroke-width="2" fill="none"></polyline>
<polyline points="1145.08,1252.62,6132.95,2738.32" stroke="rgb(255,174,0)" stroke-width="2" fill="none"></polyline>
<polyline points="1774.05,1060.84,5882.75,2340.96" stroke="rgb(255,42,0)" stroke-width="2" fill="none"></polyline>
<polyline points="1292.7,950.192,6436.43,2301.29" stroke="rgb(0,255,97)" stroke-width="2" fill="none"></polyline>
<polyline points="1353.18,1210.75,6129.55,2312.46" stroke="rgb(255,0,97)" stroke-width="2" fill="none"></polyline>
<polyline points="1238.24,1002.09,6404.65,2320.65" stroke="rgb(255,0,4)" stroke-width="2" fill="none"></polyline>
<polyline points="1831.6,989.934,5840.29,2415.46" stroke="rgb(255,0,182)" stroke-width="2" fill="none"></polyline>
<polyline points="2301.46,843.396,5939.14,2419.65" stroke="rgb(255,0,76)" stroke-width="2" fill="none"></polyline>
<polyline points="1308.53,1025.95,6159.79,2349.1" stroke="rgb(29,0,255)" stroke-width="2" fill="none"></polyline>
<polyline points="1868.75,966.089,5817.14,2441.7" stroke="rgb(0,255,123)" stroke-width="2" fill="none"></polyline>
<polyline points="1240.01,946.915,6437.6,2363.05" stroke="rgb(255,0,42)" stroke-width="2" fill="none"></polyline>
<polyline points="1248.5,1006.28,6437.6,2363.05" stroke="rgb(255,17,0)" stroke-width="2" fill="none"></polyline>
<polyline points="1805.43,942.7,5868.34,2451.32" stroke="rgb(255,0,233)" stroke-width="2" fill="none"></polyline>
<polyline points="1802.77,1140.35,5860.76,2471.84" stroke="rgb(255,0,131)" stroke-width="2" fill="none"></polyline>
<polyline points="701.385,1989.85,5998.28,2671.25" stroke="rgb(0,255,106)" stroke-width="2" fill="none"></polyline>
<polyline points="1308.53,1025.95,6089.18,2706.62" stroke="rgb(0,246,255)" stroke-width="2" fill="none"></polyline>
<polyline points="953.26,1441.11,6091.29,2738.91" stroke="rgb(157,0,255)" stroke-width="2" fill="none"></polyline>
<polyline points="2113.89,1773.01,6538.78,2819.04" stroke="rgb(0,255,182)" stroke-width="2" fill="none"></polyline>
<polyline points="1978.3,371.621,6448.15,1479.25" stroke="rgb(182,0,255)" stroke-width="2" fill="none"></polyline>
<polyline points="1796.93,1036.71,5863.64,2367.39" stroke="rgb(0,255,93)" stroke-width="2" fill="none"></polyline>
<polyline points="2078.97,1530.1,6401.68,1463.66" stroke="rgb(255,114,0)" stroke-width="2" fill="none"></polyline>
<polyline points="1796.92,1083.68,5858.87,2319.68" stroke="rgb(21,0,255)" stroke-width="2" fill="none"></polyline>
<polyline points="1808.63,907.911,5873.49,2481.25" stroke="rgb(55,255,0)" stroke-width="2" fill="none"></polyline>
<polyline points="1306.82,843.121,6576.73,1805.85" stroke="rgb(187,255,0)" stroke-width="2" fill="none"></polyline>
<polyline points="1311.02,1908.86,6192.84,2485.5" stroke="rgb(0,255,237)" stroke-width="2" fill="none"></polyline>
<polyline points="1171.35,1044.6,6577.34,2157.54" stroke="rgb(182,0,255)" stroke-width="2" fill="none"></polyline>
<polyline points="1847.54,902.126,5832.71,2494.55" stroke="rgb(0,93,255)" stroke-width="2" fill="none"></polyline>
<polyline points="1208.9,1057.62,6495.33,2161.8" stroke="rgb(255,199,0)" stroke-width="2" fill="none"></polyline>
<polyline points="1847.54,902.126,5832.71,2494.55" stroke="rgb(255,55,0)" stroke-width="2" fill="none"></polyline>
<polyline points="1208.9,1057.62,6495.33,2161.8" stroke="rgb(55,255,0)" stroke-width="2" fill="none"></polyline>
<polyline points="1166.05,1162.28,6496.44,2173.42" stroke="rgb(255,191,0)" stroke-width="2" fill="none"></polyline>
<polyline points="2675.62,867.787,6555.06,2204.74" stroke="rgb(0,127,255)" stroke-width="2" fill="none"></polyline>
<polyline points="1811.14,1094.75,5941.08,2307.1" stroke="rgb(255,85,0)" stroke-width="2" fill="none"></polyline>
<polyline points="1214,1089.27,6471.4,2130.83" stroke="rgb(255,233,0)" stroke-width="2" fill="none"></polyline>
<polyline points="1080.63,1201.68,6556.07,2147.6" stroke="rgb(255,0,25)" stroke-width="2" fill="none"></polyline>
<polyline points="1817.46,997.793,5850.14,2407.11" stroke="rgb(255,0,8)" stroke-width="2" fill="none"></polyline>
<polyline points="1223.32,1071.43,6463.08,2152.58" stroke="rgb(255,229,0)" stroke-width="2" fill="none"></polyline>
<polyline points="1223.32,1071.43,6463.08,2152.58" stroke="rgb(0,242,255)" stroke-width="2" fill="none"></polyline>
<polyline points="1208.9,1057.62,6494.17,2162" stroke="rgb(0,119,255)" stroke-width="2" fill="none"></polyline>
<polyline points="1798.12,980.816,5869.9,2414.38" stroke="rgb(0,255,229)" stroke-width="2" fill="none"></polyline>
<polyline points="1208.9,1057.62,6494.17,2162" stroke="rgb(255,0,114)" stroke-width="2" fill="none"></polyline>
<polyline points="1771.71,1032.18,5888.12,2362.88" stroke="rgb(0,161,255)" stroke-width="2" fill="none"></polyline>
<polyline points="1771.71,1032.18,5888.12,2362.88" stroke="rgb(255,212,0)" stroke-width="2" fill="none"></polyline>
<polyline points="1787.47,1001.78,5878.07,2393.24" stroke="rgb(161,0,255)" stroke-width="2" fill="none"></polyline>
<polyline points="1758.46,780.329,6908.14,1552.39" stroke="rgb(255,187,0)" stroke-width="2" fill="none"></polyline>
<polyline points="1787.47,1001.78,5878.07,2393.24" stroke="rgb(0,191,255)" stroke-width="2" fill="none"></polyline>
<circle cx="1298.86" cy="1644.84" r="4" stroke="rgb(0,255,25)" stroke-width="2" fill="none"></circle>
<circle cx="6389.79" cy="1116.46" r="4" stroke="rgb(0,255,25)" stroke-width="2" fill="none"></circle>
<circle cx="2825.32" cy="914.65" r="4" stroke="rgb(255,0,89)" stroke-width="2" fill="none"></circle>
<circle cx="6821.4" cy="1173.17" r="4" stroke="rgb(255,0,89)" stroke-width="2" fill="none"></circle>
<circle cx="1763.89" cy="996.812" r="4" stroke="rgb(255,170,0)" stroke-width="2" fill="none"></circle>
<circle cx="5907.06" cy="2392.59" r="4" stroke="rgb(255,170,0)" stroke-width="2" fill="none"></circle>
<circle cx="2026.22" cy="578.53" r="4" stroke="rgb(255,0,225)" stroke-width="2" fill="none"></circle>
<circle cx="6186.87" cy="1277.33" r="4" stroke="rgb(255,0,225)" stroke-width="2" fill="none"></circle>
<circle cx="1284.35" cy="898.761" r="4" stroke="rgb(0,157,255)" stroke-width="2" fill="none"></circle>
<circle cx="6659.14" cy="1753.82" r="4" stroke="rgb(0,157,255)" stroke-width="2" fill="none"></circle>
<circle cx="1790.57" cy="961.842" r="4" stroke="rgb(0,51,255)" stroke-width="2" fill="none"></circle>
<circle cx="5881.62" cy="2430.4" r="4" stroke="rgb(0,51,255)" stroke-width="2" fill="none"></circle>
<circle cx="1745.88" cy="1349.07" r="4" stroke="rgb(0,237,255)" stroke-width="2" fill="none"></circle>
<circle cx="6002.8" cy="1804.6" r="4" stroke="rgb(0,237,255)" stroke-width="2" fill="none"></circle>
<circle cx="1730.52" cy="1167.18" r="4" stroke="rgb(255,0,97)" stroke-width="2" fill="none"></circle>
<circle cx="5909.42" cy="2231.12" r="4" stroke="rgb(255,0,97)" stroke-width="2" fill="none"></circle>
<circle cx="1744.03" cy="1342.74" r="4" stroke="rgb(0,17,255)" stroke-width="2" fill="none"></circle>
<circle cx="6005.67" cy="1810.63" r="4" stroke="rgb(0,17,255)" stroke-width="2" fill="none"></circle>
<circle cx="1983.78" cy="359.517" r="4" stroke="rgb(255,21,0)" stroke-width="2" fill="none"></circle>
<circle cx="6684.79" cy="1421.7" r="4" stroke="rgb(255,21,0)" stroke-width="2" fill="none"></circle>
<circle cx="874.722" cy="1509.83" r="4" stroke="rgb(0,255,186)" stroke-width="2" fill="none"></circle>
<circle cx="6937.4" cy="1841.24" r="4" stroke="rgb(0,255,186)" stroke-width="2" fill="none"></circle>
<circle cx="1932.6" cy="780.088" r="4" stroke="rgb(89,255,0)" stroke-width="2" fill="none"></circle>
<circle cx="6000.91" cy="2259.25" r="4" stroke="rgb(89,255,0)" stroke-width="2" fill="none"></circle>
<circle cx="1154.37" cy="1162.22" r="4" stroke="rgb(242,0,255)" stroke-width="2" fill="none"></circle>
<circle cx="6562.08" cy="1846.4" r="4" stroke="rgb(242,0,255)" stroke-width="2" fill="none"></circle>
<circle cx="1930.24" cy="1166.66" r="4" stroke="rgb(255,59,0)" stroke-width="2" fill="none"></circle>
<circle cx="6188.64" cy="2464.34" r="4" stroke="rgb(255,59,0)" stroke-width="2" fill="none"></circle>
<circle cx="2136.15" cy="441.587" r="4" stroke="rgb(0,225,255)" stroke-width="2" fill="none"></circle>
<circle cx="6744.29" cy="1824.18" r="4" stroke="rgb(0,225,255)" stroke-width="2" fill="none"></circle>
<circle cx="1145.08" cy="1252.62" r="4" stroke="rgb(140,255,0)" stroke-width="2" fill="none"></circle>
<circle cx="6289.44" cy="1484.72" r="4" stroke="rgb(140,255,0)" stroke-width="2" fill="none"></circle>
<circle cx="1311.02" cy="1908.86" r="4" stroke="rgb(255,191,0)" stroke-width="2" fill="none"></circle>
<circle cx="6189.55" cy="2488.84" r="4" stroke="rgb(255,191,0)" stroke-width="2" fill="none"></circle>
<circle cx="1346.71" cy="1104.61" r="4" stroke="rgb(17,0,255)" stroke-width="2" fill="none"></circle>
<circle cx="6961.24" cy="1876.79" r="4" stroke="rgb(17,0,255)" stroke-width="2" fill="none"></circle>
<circle cx="2020.14" cy="834.05" r="4" stroke="rgb(203,255,0)" stroke-width="2" fill="none"></circle>
<circle cx="5999.07" cy="2288.5" r="4" stroke="rgb(203,255,0)" stroke-width="2" fill="none"></circle>
<circle cx="1344.52" cy="896.187" r="4" stroke="rgb(135,0,255)" stroke-width="2" fill="none"></circle>
<circle cx="6530.2" cy="2295.63" r="4" stroke="rgb(135,0,255)" stroke-width="2" fill="none"></circle>
<circle cx="1370.2" cy="1826.83" r="4" stroke="rgb(63,255,0)" stroke-width="2" fill="none"></circle>
<circle cx="6445.97" cy="2538.4" r="4" stroke="rgb(63,255,0)" stroke-width="2" fill="none"></circle>
<circle cx="1308.53" cy="1025.95" r="4" stroke="rgb(0,255,12)" stroke-width="2" fill="none"></circle>
<circle cx="6579.67" cy="1588.92" r="4" stroke="rgb(0,255,12)" stroke-width="2" fill="none"></circle>
<circle cx="1154.37" cy="1162.22" r="4" stroke="rgb(221,255,0)" stroke-width="2" fill="none"></circle>
<circle cx="6746.66" cy="1629.09" r="4" stroke="rgb(221,255,0)" stroke-width="2" fill="none"></circle>
<circle cx="1640.14" cy="1525.86" r="4" stroke="rgb(80,0,255)" stroke-width="2" fill="none"></circle>
<circle cx="6042.05" cy="1904.73" r="4" stroke="rgb(80,0,255)" stroke-width="2" fill="none"></circle>
<circle cx="773.94" cy="1752.52" r="4" stroke="rgb(0,255,110)" stroke-width="2" fill="none"></circle>
<circle cx="7050.14" cy="1628.53" r="4" stroke="rgb(0,255,110)" stroke-width="2" fill="none"></circle>
<circle cx="1668.38" cy="1628.64" r="4" stroke="rgb(0,255,50)" stroke-width="2" fill="none"></circle>
<circle cx="6965.73" cy="1636.09" r="4" stroke="rgb(0,255,50)" stroke-width="2" fill="none"></circle>
<circle cx="1154.37" cy="1162.22" r="4" stroke="rgb(255,0,17)" stroke-width="2" fill="none"></circle>
<circle cx="6752.64" cy="1612.03" r="4" stroke="rgb(255,0,17)" stroke-width="2" fill="none"></circle>
<circle cx="1154.37" cy="1162.22" r="4" stroke="rgb(255,0,153)" stroke-width="2" fill="none"></circle>
<circle cx="6739.95" cy="1617.92" r="4" stroke="rgb(255,0,153)" stroke-width="2" fill="none"></circle>
<circle cx="1782.8" cy="1071.69" r="4" stroke="rgb(255,0,127)" stroke-width="2" fill="none"></circle>
<circle cx="5876.59" cy="2333.19" r="4" stroke="rgb(255,0,127)" stroke-width="2" fill="none"></circle>
<circle cx="2136.15" cy="441.587" r="4" stroke="rgb(255,106,0)" stroke-width="2" fill="none"></circle>
<circle cx="6835.88" cy="1641.3" r="4" stroke="rgb(255,106,0)" stroke-width="2" fill="none"></circle>
<circle cx="1909.05" cy="1461.25" r="4" stroke="rgb(169,255,0)" stroke-width="2" fill="none"></circle>
<circle cx="7091.61" cy="1646.47" r="4" stroke="rgb(169,255,0)" stroke-width="2" fill="none"></circle>
<circle cx="1275.25" cy="960.869" r="4" stroke="rgb(97,255,0)" stroke-width="2" fill="none"></circle>
<circle cx="6671.79" cy="1871.78" r="4" stroke="rgb(97,255,0)" stroke-width="2" fill="none"></circle>
<circle cx="1327.02" cy="837.32" r="4" stroke="rgb(255,17,0)" stroke-width="2" fill="none"></circle>
<circle cx="6635.46" cy="1955.62" r="4" stroke="rgb(255,17,0)" stroke-width="2" fill="none"></circle>
<circle cx="1343.38" cy="1011.08" r="4" stroke="rgb(255,0,33)" stroke-width="2" fill="none"></circle>
<circle cx="6299.68" cy="1691.48" r="4" stroke="rgb(255,0,33)" stroke-width="2" fill="none"></circle>
<circle cx="2032.65" cy="675.156" r="4" stroke="rgb(255,187,0)" stroke-width="2" fill="none"></circle>
<circle cx="5975.78" cy="2349.92" r="4" stroke="rgb(255,187,0)" stroke-width="2" fill="none"></circle>
<circle cx="1782.99" cy="1048.91" r="4" stroke="rgb(0,140,255)" stroke-width="2" fill="none"></circle>
<circle cx="5875.28" cy="2353.27" r="4" stroke="rgb(0,140,255)" stroke-width="2" fill="none"></circle>
<circle cx="2018.61" cy="867.264" r="4" stroke="rgb(0,80,255)" stroke-width="2" fill="none"></circle>
<circle cx="5810.38" cy="2371.08" r="4" stroke="rgb(0,80,255)" stroke-width="2" fill="none"></circle>
<circle cx="1789.74" cy="1029.43" r="4" stroke="rgb(80,255,0)" stroke-width="2" fill="none"></circle>
<circle cx="5870.75" cy="2371.89" r="4" stroke="rgb(80,255,0)" stroke-width="2" fill="none"></circle>
<circle cx="1889.49" cy="257.76" r="4" stroke="rgb(0,237,255)" stroke-width="2" fill="none"></circle>
<circle cx="6744.26" cy="1997.47" r="4" stroke="rgb(0,237,255)" stroke-width="2" fill="none"></circle>
<circle cx="1932.6" cy="780.088" r="4" stroke="rgb(255,0,131)" stroke-width="2" fill="none"></circle>
<circle cx="5902.69" cy="2383.59" r="4" stroke="rgb(255,0,131)" stroke-width="2" fill="none"></circle>
<circle cx="1761.06" cy="1001.58" r="4" stroke="rgb(255,0,93)" stroke-width="2" fill="none"></circle>
<circle cx="5909.41" cy="2386.6" r="4" stroke="rgb(255,0,93)" stroke-width="2" fill="none"></circle>
<circle cx="1155.81" cy="1051.12" r="4" stroke="rgb(0,80,255)" stroke-width="2" fill="none"></circle>
<circle cx="6653.14" cy="1973.8" r="4" stroke="rgb(0,80,255)" stroke-width="2" fill="none"></circle>
<circle cx="1166.05" cy="1162.28" r="4" stroke="rgb(221,255,0)" stroke-width="2" fill="none"></circle>
<circle cx="6655.54" cy="1982.14" r="4" stroke="rgb(221,255,0)" stroke-width="2" fill="none"></circle>
<circle cx="1176.42" cy="1127.19" r="4" stroke="rgb(148,0,255)" stroke-width="2" fill="none"></circle>
<circle cx="6631.28" cy="2041.96" r="4" stroke="rgb(148,0,255)" stroke-width="2" fill="none"></circle>
<circle cx="833.846" cy="1648.22" r="4" stroke="rgb(55,255,0)" stroke-width="2" fill="none"></circle>
<circle cx="6469.07" cy="2075.68" r="4" stroke="rgb(55,255,0)" stroke-width="2" fill="none"></circle>
<circle cx="2136.15" cy="441.587" r="4" stroke="rgb(63,0,255)" stroke-width="2" fill="none"></circle>
<circle cx="6610.83" cy="2408.74" r="4" stroke="rgb(63,0,255)" stroke-width="2" fill="none"></circle>
<circle cx="1176.42" cy="1127.19" r="4" stroke="rgb(0,25,255)" stroke-width="2" fill="none"></circle>
<circle cx="6515.23" cy="2069.75" r="4" stroke="rgb(0,25,255)" stroke-width="2" fill="none"></circle>
<circle cx="2292.26" cy="843.787" r="4" stroke="rgb(0,255,135)" stroke-width="2" fill="none"></circle>
<circle cx="5948.65" cy="2419.2" r="4" stroke="rgb(0,255,135)" stroke-width="2" fill="none"></circle>
<circle cx="1188.73" cy="1135.82" r="4" stroke="rgb(255,46,0)" stroke-width="2" fill="none"></circle>
<circle cx="6490.01" cy="2068.62" r="4" stroke="rgb(255,46,0)" stroke-width="2" fill="none"></circle>
<circle cx="1304.41" cy="857.972" r="4" stroke="rgb(0,255,246)" stroke-width="2" fill="none"></circle>
<circle cx="6608.18" cy="2087.13" r="4" stroke="rgb(0,255,246)" stroke-width="2" fill="none"></circle>
<circle cx="1198.72" cy="1132.09" r="4" stroke="rgb(237,255,0)" stroke-width="2" fill="none"></circle>
<circle cx="6476.42" cy="2076.13" r="4" stroke="rgb(237,255,0)" stroke-width="2" fill="none"></circle>
<circle cx="1198.72" cy="1132.09" r="4" stroke="rgb(12,255,0)" stroke-width="2" fill="none"></circle>
<circle cx="6476.42" cy="2076.13" r="4" stroke="rgb(12,255,0)" stroke-width="2" fill="none"></circle>
<circle cx="1204.17" cy="1127.48" r="4" stroke="rgb(0,255,229)" stroke-width="2" fill="none"></circle>
<circle cx="6470.84" cy="2083.54" r="4" stroke="rgb(0,255,229)" stroke-width="2" fill="none"></circle>
<circle cx="1209.29" cy="1120.88" r="4" stroke="rgb(255,17,0)" stroke-width="2" fill="none"></circle>
<circle cx="6467.02" cy="2093.98" r="4" stroke="rgb(255,17,0)" stroke-width="2" fill="none"></circle>
<circle cx="2136.15" cy="441.587" r="4" stroke="rgb(34,0,255)" stroke-width="2" fill="none"></circle>
<circle cx="6713.79" cy="2138.6" r="4" stroke="rgb(34,0,255)" stroke-width="2" fill="none"></circle>
<circle cx="1807.25" cy="952.263" r="4" stroke="rgb(255,0,169)" stroke-width="2" fill="none"></circle>
<circle cx="5864.99" cy="2443.95" r="4" stroke="rgb(255,0,169)" stroke-width="2" fill="none"></circle>
<circle cx="1377.62" cy="1606.93" r="4" stroke="rgb(0,255,67)" stroke-width="2" fill="none"></circle>
<circle cx="5972.14" cy="2106.68" r="4" stroke="rgb(0,255,67)" stroke-width="2" fill="none"></circle>
<circle cx="1377.62" cy="1606.93" r="4" stroke="rgb(16,255,0)" stroke-width="2" fill="none"></circle>
<circle cx="5972.14" cy="2106.68" r="4" stroke="rgb(16,255,0)" stroke-width="2" fill="none"></circle>
<circle cx="1812.7" cy="861.346" r="4" stroke="rgb(186,0,255)" stroke-width="2" fill="none"></circle>
<circle cx="5892.96" cy="2150.72" r="4" stroke="rgb(186,0,255)" stroke-width="2" fill="none"></circle>
<circle cx="1209.29" cy="1120.88" r="4" stroke="rgb(255,0,89)" stroke-width="2" fill="none"></circle>
<circle cx="6512.44" cy="2131.09" r="4" stroke="rgb(255,0,89)" stroke-width="2" fill="none"></circle>
<circle cx="1344.52" cy="896.187" r="4" stroke="rgb(0,255,89)" stroke-width="2" fill="none"></circle>
<circle cx="6389.17" cy="2473.01" r="4" stroke="rgb(0,255,89)" stroke-width="2" fill="none"></circle>
<circle cx="1154.37" cy="1162.22" r="4" stroke="rgb(0,17,255)" stroke-width="2" fill="none"></circle>
<circle cx="6595.31" cy="2155.71" r="4" stroke="rgb(0,17,255)" stroke-width="2" fill="none"></circle>
<circle cx="1166.05" cy="1162.28" r="4" stroke="rgb(187,255,0)" stroke-width="2" fill="none"></circle>
<circle cx="6609.65" cy="2147.77" r="4" stroke="rgb(187,255,0)" stroke-width="2" fill="none"></circle>
<circle cx="1238.24" cy="1002.09" r="4" stroke="rgb(0,255,106)" stroke-width="2" fill="none"></circle>
<circle cx="6384.4" cy="2484.56" r="4" stroke="rgb(0,255,106)" stroke-width="2" fill="none"></circle>
<circle cx="1818.74" cy="1248.32" r="4" stroke="rgb(0,46,255)" stroke-width="2" fill="none"></circle>
<circle cx="5975.58" cy="2154.02" r="4" stroke="rgb(0,46,255)" stroke-width="2" fill="none"></circle>
<circle cx="1273.47" cy="967.125" r="4" stroke="rgb(255,0,33)" stroke-width="2" fill="none"></circle>
<circle cx="6602.52" cy="2177.9" r="4" stroke="rgb(255,0,33)" stroke-width="2" fill="none"></circle>
<circle cx="1346.71" cy="1104.61" r="4" stroke="rgb(255,0,33)" stroke-width="2" fill="none"></circle>
<circle cx="6278.68" cy="2174.45" r="4" stroke="rgb(255,0,33)" stroke-width="2" fill="none"></circle>
<circle cx="1275.25" cy="960.869" r="4" stroke="rgb(255,0,161)" stroke-width="2" fill="none"></circle>
<circle cx="6604.15" cy="2186.84" r="4" stroke="rgb(255,0,161)" stroke-width="2" fill="none"></circle>
<circle cx="1828.11" cy="874.986" r="4" stroke="rgb(255,0,148)" stroke-width="2" fill="none"></circle>
<circle cx="5857.96" cy="2512.96" r="4" stroke="rgb(255,0,148)" stroke-width="2" fill="none"></circle>
<circle cx="1245.27" cy="1041.07" r="4" stroke="rgb(255,208,0)" stroke-width="2" fill="none"></circle>
<circle cx="6447.47" cy="2195.4" r="4" stroke="rgb(255,208,0)" stroke-width="2" fill="none"></circle>
<circle cx="1702.3" cy="1210.04" r="4" stroke="rgb(216,0,255)" stroke-width="2" fill="none"></circle>
<circle cx="5926.42" cy="2184.29" r="4" stroke="rgb(216,0,255)" stroke-width="2" fill="none"></circle>
<circle cx="1706.07" cy="1187.94" r="4" stroke="rgb(255,0,242)" stroke-width="2" fill="none"></circle>
<circle cx="5926.11" cy="2205.6" r="4" stroke="rgb(255,0,242)" stroke-width="2" fill="none"></circle>
<circle cx="1240.01" cy="946.915" r="4" stroke="rgb(127,0,255)" stroke-width="2" fill="none"></circle>
<circle cx="6462.86" cy="2548.99" r="4" stroke="rgb(127,0,255)" stroke-width="2" fill="none"></circle>
<circle cx="1308.53" cy="1025.95" r="4" stroke="rgb(0,38,255)" stroke-width="2" fill="none"></circle>
<circle cx="6224.99" cy="2218.85" r="4" stroke="rgb(0,38,255)" stroke-width="2" fill="none"></circle>
<circle cx="1745.86" cy="1130.74" r="4" stroke="rgb(127,255,0)" stroke-width="2" fill="none"></circle>
<circle cx="5900.48" cy="2269.27" r="4" stroke="rgb(127,255,0)" stroke-width="2" fill="none"></circle>
<circle cx="1726.41" cy="1149.82" r="4" stroke="rgb(38,0,255)" stroke-width="2" fill="none"></circle>
<circle cx="5912.7" cy="2245.79" r="4" stroke="rgb(38,0,255)" stroke-width="2" fill="none"></circle>
<circle cx="1353.18" cy="1210.75" r="4" stroke="rgb(0,255,25)" stroke-width="2" fill="none"></circle>
<circle cx="6124.27" cy="2308.6" r="4" stroke="rgb(0,255,25)" stroke-width="2" fill="none"></circle>
<circle cx="1911.57" cy="780.376" r="4" stroke="rgb(255,0,148)" stroke-width="2" fill="none"></circle>
<circle cx="5912.14" cy="2267.75" r="4" stroke="rgb(255,0,148)" stroke-width="2" fill="none"></circle>
<circle cx="1145.08" cy="1252.62" r="4" stroke="rgb(255,174,0)" stroke-width="2" fill="none"></circle>
<circle cx="6132.95" cy="2738.32" r="4" stroke="rgb(255,174,0)" stroke-width="2" fill="none"></circle>
<circle cx="1774.05" cy="1060.84" r="4" stroke="rgb(255,42,0)" stroke-width="2" fill="none"></circle>
<circle cx="5882.75" cy="2340.96" r="4" stroke="rgb(255,42,0)" stroke-width="2" fill="none"></circle>
<circle cx="1292.7" cy="950.192" r="4" stroke="rgb(0,255,97)" stroke-width="2" fill="none"></circle>
<circle cx="6436.43" cy="2301.29" r="4" stroke="rgb(0,255,97)" stroke-width="2" fill="none"></circle>
<circle cx="1353.18" cy="1210.75" r="4" stroke="rgb(255,0,97)" stroke-width="2" fill="none"></circle>
<circle cx="6129.55" cy="2312.46" r="4" stroke="rgb(255,0,97)" stroke-width="2" fill="none"></circle>
<circle cx="1238.24" cy="1002.09" r="4" stroke="rgb(255,0,4)" stroke-width="2" fill="none"></circle>
<circle cx="6404.65" cy="2320.65" r="4" stroke="rgb(255,0,4)" stroke-width="2" fill="none"></circle>
<circle cx="1831.6" cy="989.934" r="4" stroke="rgb(255,0,182)" stroke-width="2" fill="none"></circle>
<circle cx="5840.29" cy="2415.46" r="4" stroke="rgb(255,0,182)" stroke-width="2" fill="none"></circle>
<circle cx="2301.46" cy="843.396" r="4" stroke="rgb(255,0,76)" stroke-width="2" fill="none"></circle>
<circle cx="5939.14" cy="2419.65" r="4" stroke="rgb(255,0,76)" stroke-width="2" fill="none"></circle>
<circle cx="1308.53" cy="1025.95" r="4" stroke="rgb(29,0,255)" stroke-width="2" fill="none"></circle>
<circle cx="6159.79" cy="2349.1" r="4" stroke="rgb(29,0,255)" stroke-width="2" fill="none"></circle>
<circle cx="1868.75" cy="966.089" r="4" stroke="rgb(0,255,123)" stroke-width="2" fill="none"></circle>
<circle cx="5817.14" cy="2441.7" r="4" stroke="rgb(0,255,123)" stroke-width="2" fill="none"></circle>
<circle cx="1240.01" cy="946.915" r="4" stroke="rgb(255,0,42)" stroke-width="2" fill="none"></circle>
<circle cx="6437.6" cy="2363.05" r="4" stroke="rgb(255,0,42)" stroke-width="2" fill="none"></circle>
<circle cx="1248.5" cy="1006.28" r="4" stroke="rgb(255,17,0)" stroke-width="2" fill="none"></circle>
<circle cx="6437.6" cy="2363.05" r="4" stroke="rgb(255,17,0)" stroke-width="2" fill="none"></circle>
<circle cx="1805.43" cy="942.7" r="4" stroke="rgb(255,0,233)" stroke-width="2" fill="none"></circle>
<circle cx="5868.34" cy="2451.32" r="4" stroke="rgb(255,0,233)" stroke-width="2" fill="none"></circle>
<circle cx="1802.77" cy="1140.35" r="4" stroke="rgb(255,0,131)" stroke-width="2" fill="none"></circle>
<circle cx="5860.76" cy="2471.84" r="4" stroke="rgb(255,0,131)" stroke-width="2" fill="none"></circle>
<circle cx="701.385" cy="1989.85" r="4" stroke="rgb(0,255,106)" stroke-width="2" fill="none"></circle>
<circle cx="5998.28" cy="2671.25" r="4" stroke="rgb(0,255,106)" stroke-width="2" fill="none"></circle>
<circle cx="1308.53" cy="1025.95" r="4" stroke="rgb(0,246,255)" stroke-width="2" fill="none"></circle>
<circle cx="6089.18" cy="2706.62" r="4" stroke="rgb(0,246,255)" stroke-width="2" fill="none"></circle>
<circle cx="953.26" cy="1441.11" r="4" stroke="rgb(157,0,255)" stroke-width="2" fill="none"></circle>
<circle cx="6091.29" cy="2738.91" r="4" stroke="rgb(157,0,255)" stroke-width="2" fill="none"></circle>
<circle cx="2113.89" cy="1773.01" r="4" stroke="rgb(0,255,182)" stroke-width="2" fill="none"></circle>
<circle cx="6538.78" cy="2819.04" r="4" stroke="rgb(0,255,182)" stroke-width="2" fill="none"></circle>
<circle cx="1978.3" cy="371.621" r="4" stroke="rgb(182,0,255)" stroke-width="2" fill="none"></circle>
<circle cx="6448.15" cy="1479.25" r="4" stroke="rgb(182,0,255)" stroke-width="2" fill="none"></circle>
<circle cx="1796.93" cy="1036.71" r="4" stroke="rgb(0,255,93)" stroke-width="2" fill="none"></circle>
<circle cx="5863.64" cy="2367.39" r="4" stroke="rgb(0,255,93)" stroke-width="2" fill="none"></circle>
<circle cx="2078.97" cy="1530.1" r="4" stroke="rgb(255,114,0)" stroke-width="2" fill="none"></circle>
<circle cx="6401.68" cy="1463.66" r="4" stroke="rgb(255,114,0)" stroke-width="2" fill="none"></circle>
<circle cx="1796.92" cy="1083.68" r="4" stroke="rgb(21,0,255)" stroke-width="2" fill="none"></circle>
<circle cx="5858.87" cy="2319.68" r="4" stroke="rgb(21,0,255)" stroke-width="2" fill="none"></circle>
<circle cx="1808.63" cy="907.911" r="4" stroke="rgb(55,255,0)" stroke-width="2" fill="none"></circle>
<circle cx="5873.49" cy="2481.25" r="4" stroke="rgb(55,255,0)" stroke-width="2" fill="none"></circle>
<circle cx="1306.82" cy="843.121" r="4" stroke="rgb(187,255,0)" stroke-width="2" fill="none"></circle>
<circle cx="6576.73" cy="1805.85" r="4" stroke="rgb(187,255,0)" stroke-width="2" fill="none"></circle>
<circle cx="1311.02" cy="1908.86" r="4" stroke="rgb(0,255,237)" stroke-width="2" fill="none"></circle>
<circle cx="6192.84" cy="2485.5" r="4" stroke="rgb(0,255,237)" stroke-width="2" fill="none"></circle>
<circle cx="1171.35" cy="1044.6" r="4" stroke="rgb(182,0,255)" stroke-width="2" fill="none"></circle>
<circle cx="6577.34" cy="2157.54" r="4" stroke="rgb(182,0,255)" stroke-width="2" fill="none"></circle>
<circle cx="1847.54" cy="902.126" r="4" stroke="rgb(0,93,255)" stroke-width="2" fill="none"></circle>
<circle cx="5832.71" cy="2494.55" r="4" stroke="rgb(0,93,255)" stroke-width="2" fill="none"></circle>
<circle cx="1208.9" cy="1057.62" r="4" stroke="rgb(255,199,0)" stroke-width="2" fill="none"></circle>
<circle cx="6495.33" cy="2161.8" r="4" stroke="rgb(255,199,0)" stroke-width="2" fill="none"></circle>
<circle cx="1847.54" cy="902.126" r="4" stroke="rgb(255,55,0)" stroke-width="2" fill="none"></circle>
<circle cx="5832.71" cy="2494.55" r="4" stroke="rgb(255,55,0)" stroke-width="2" fill="none"></circle>
<circle cx="1208.9" cy="1057.62" r="4" stroke="rgb(55,255,0)" stroke-width="2" fill="none"></circle>
<circle cx="6495.33" cy="2161.8" r="4" stroke="rgb(55,255,0)" stroke-width="2" fill="none"></circle>
<circle cx="1166.05" cy="1162.28" r="4" stroke="rgb(255,191,0)" stroke-width="2" fill="none"></circle>
<circle cx="6496.44" cy="2173.42" r="4" stroke="rgb(255,191,0)" stroke-width="2" fill="none"></circle>
<circle cx="2675.62" cy="867.787" r="4" stroke="rgb(0,127,255)" stroke-width="2" fill="none"></circle>
<circle cx="6555.06" cy="2204.74" r="4" stroke="rgb(0,127,255)" stroke-width="2" fill="none"></circle>
<circle cx="1811.14" cy="1094.75" r="4" stroke="rgb(255,85,0)" stroke-width="2" fill="none"></circle>
<circle cx="5941.08" cy="2307.1" r="4" stroke="rgb(255,85,0)" stroke-width="2" fill="none"></circle>
<circle cx="1214" cy="1089.27" r="4" stroke="rgb(255,233,0)" stroke-width="2" fill="none"></circle>
<circle cx="6471.4" cy="2130.83" r="4" stroke="rgb(255,233,0)" stroke-width="2" fill="none"></circle>
<circle cx="1080.63" cy="1201.68" r="4" stroke="rgb(255,0,25)" stroke-width="2" fill="none"></circle>
<circle cx="6556.07" cy="2147.6" r="4" stroke="rgb(255,0,25)" stroke-width="2" fill="none"></circle>
<circle cx="1817.46" cy="997.793" r="4" stroke="rgb(255,0,8)" stroke-width="2" fill="none"></circle>
<circle cx="5850.14" cy="2407.11" r="4" stroke="rgb(255,0,8)" stroke-width="2" fill="none"></circle>
<circle cx="1223.32" cy="1071.43" r="4" stroke="rgb(255,229,0)" stroke-width="2" fill="none"></circle>
<circle cx="6463.08" cy="2152.58" r="4" stroke="rgb(255,229,0)" stroke-width="2" fill="none"></circle>
<circle cx="1223.32" cy="1071.43" r="4" stroke="rgb(0,242,255)" stroke-width="2" fill="none"></circle>
<circle cx="6463.08" cy="2152.58" r="4" stroke="rgb(0,242,255)" stroke-width="2" fill="none"></circle>
<circle cx="1208.9" cy="1057.62" r="4" stroke="rgb(0,119,255)" stroke-width="2" fill="none"></circle>
<circle cx="6494.17" cy="2162" r="4" stroke="rgb(0,119,255)" stroke-width="2" fill="none"></circle>
<circle cx="1798.12" cy="980.816" r="4" stroke="rgb(0,255,229)" stroke-width="2" fill="none"></circle>
<circle cx="5869.9" cy="2414.38" r="4" stroke="rgb(0,255,229)" stroke-width="2" fill="none"></circle>
<circle cx="1208.9" cy="1057.62" r="4" stroke="rgb(255,0,114)" stroke-width="2" fill="none"></circle>
<circle cx="6494.17" cy="2162" r="4" stroke="rgb(255,0,114)" stroke-width="2" fill="none"></circle>
<circle cx="1771.71" cy="1032.18" r="4" stroke="rgb(0,161,255)" stroke-width="2" fill="none"></circle>
<circle cx="5888.12" cy="2362.88" r="4" stroke="rgb(0,161,255)" stroke-width="2" fill="none"></circle>
<circle cx="1771.71" cy="1032.18" r="4" stroke="rgb(255,212,0)" stroke-width="2" fill="none"></circle>
<circle cx="5888.12" cy="2362.88" r="4" stroke="rgb(255,212,0)" stroke-width="2" fill="none"></circle>
<circle cx="1787.47" cy="1001.78" r="4" stroke="rgb(161,0,255)" stroke-width="2" fill="none"></circle>
<circle cx="5878.07" cy="2393.24" r="4" stroke="rgb(161,0,255)" stroke-width="2" fill="none"></circle>
<circle cx="1758.46" cy="780.329" r="4" stroke="rgb(255,187,0)" stroke-width="2" fill="none"></circle>
<circle cx="6908.14" cy="1552.39" r="4" stroke="rgb(255,187,0)" stroke-width="2" fill="none"></circle>
<circle cx="1787.47" cy="1001.78" r="4" stroke="rgb(0,191,255)" stroke-width="2" fill="none"></circle>
<circle cx="5878.07" cy="2393.24" r="4" stroke="rgb(0,191,255)" stroke-width="2" fill="none"></circle>
</svg>