<?xml version="1.0" standalone="yes"?>
<!-- SVG graphic -->
<svg xmlns='http://www.w3.org/2000/svg' xmlns:xlink='http://www.w3.org/1999/xlink'
width="8064px" height="3024px" preserveAspectRatio="xMinYMin meet" viewBox="0 0 8064 3024" version="1.1">
<image x="0" y="0" width="4032px" height="3024px" opacity="1" xlink:href="/home/jeong/Code/2D-to-3D-Modeling-using-AI/Make3D/Image/20200227_180716.jpg"/>
<image x="4032" y="0" width="4032px" height="3024px" opacity="1" xlink:href="/home/jeong/Code/2D-to-3D-Modeling-using-AI/Make3D/Image/20200227_180747.jpg"/>
<polyline points="940.358,1492.07,4965.69,1412.92" stroke="rgb(16,255,0)" stroke-width="2" fill="none"></polyline>
<polyline points="2195.13,949.314,5558.38,810.275" stroke="rgb(0,140,255)" stroke-width="2" fill="none"></polyline>
<polyline points="2069.83,911.601,6777.43,860.23" stroke="rgb(0,21,255)" stroke-width="2" fill="none"></polyline>
<polyline points="2025.06,326.656,4272.7,861.758" stroke="rgb(29,0,255)" stroke-width="2" fill="none"></polyline>
<polyline points="2685.02,435.882,5662.56,1431.82" stroke="rgb(0,255,46)" stroke-width="2" fill="none"></polyline>
<polyline points="1030.91,1963.13,6795.39,866.088" stroke="rgb(238,0,255)" stroke-width="2" fill="none"></polyline>
<polyline points="1851.82,113.725,5533.94,1438.32" stroke="rgb(0,85,255)" stroke-width="2" fill="none"></polyline>
<polyline points="2198.11,955.018,5551.81,815.376" stroke="rgb(153,255,0)" stroke-width="2" fill="none"></polyline>
<polyline points="1474.84,1791.97,4817.84,435.715" stroke="rgb(0,255,191)" stroke-width="2" fill="none"></polyline>
<polyline points="2309.84,641.047,5782.56,1076.09" stroke="rgb(255,0,80)" stroke-width="2" fill="none"></polyline>
<polyline points="2309.84,641.047,5782.56,1076.09" stroke="rgb(0,255,195)" stroke-width="2" fill="none"></polyline>
<polyline points="1383.75,768.936,5446.34,1439.36" stroke="rgb(0,85,255)" stroke-width="2" fill="none"></polyline>
<polyline points="1346.71,1104.61,5536.07,1444.87" stroke="rgb(242,255,0)" stroke-width="2" fill="none"></polyline>
<polyline points="1441.54,1810.79,4926.74,1455.02" stroke="rgb(153,255,0)" stroke-width="2" fill="none"></polyline>
<polyline points="1145.08,1252.62,4971.87,885.297" stroke="rgb(0,255,8)" stroke-width="2" fill="none"></polyline>
<polyline points="2696.39,438.422,6861.31,531.307" stroke="rgb(0,255,67)" stroke-width="2" fill="none"></polyline>
<polyline points="945.054,1980.14,4648.25,532.618" stroke="rgb(0,191,255)" stroke-width="2" fill="none"></polyline>
<polyline points="2215.07,454.96,4937.76,1467.93" stroke="rgb(255,0,114)" stroke-width="2" fill="none"></polyline>
<polyline points="2136.15,441.587,5210.13,2137.26" stroke="rgb(59,0,255)" stroke-width="2" fill="none"></polyline>
<polyline points="1606.22,288.874,4854,907.241" stroke="rgb(0,255,38)" stroke-width="2" fill="none"></polyline>
<polyline points="1783.07,1650.79,6379.09,575.37" stroke="rgb(153,0,255)" stroke-width="2" fill="none"></polyline>
<polyline points="2069.83,911.601,5215.97,915.88" stroke="rgb(255,0,59)" stroke-width="2" fill="none"></polyline>
<polyline points="1403.3,694.669,5624.37,916.003" stroke="rgb(0,255,148)" stroke-width="2" fill="none"></polyline>
<polyline points="1846.69,1127.82,5808.26,936.633" stroke="rgb(0,255,33)" stroke-width="2" fill="none"></polyline>
<polyline points="2159.01,717.547,4564.27,969.64" stroke="rgb(0,255,114)" stroke-width="2" fill="none"></polyline>
<polyline points="1403.3,694.669,5399.16,671.94" stroke="rgb(0,255,161)" stroke-width="2" fill="none"></polyline>
<polyline points="2113.89,1773.01,5314.35,672.844" stroke="rgb(255,221,0)" stroke-width="2" fill="none"></polyline>
<polyline points="2113.89,1773.01,5308.16,673.947" stroke="rgb(4,0,255)" stroke-width="2" fill="none"></polyline>
<polyline points="2113.89,1773.01,5301.59,674.989" stroke="rgb(0,85,255)" stroke-width="2" fill="none"></polyline>
<polyline points="2136.15,441.587,5066.36,1216.36" stroke="rgb(0,199,255)" stroke-width="2" fill="none"></polyline>
<polyline points="1606.22,288.874,4581.79,1012.89" stroke="rgb(255,0,212)" stroke-width="2" fill="none"></polyline>
<polyline points="1403.3,694.669,5370.16,1228.99" stroke="rgb(255,0,101)" stroke-width="2" fill="none"></polyline>
<polyline points="2052.75,766.601,5665.72,1247.59" stroke="rgb(255,174,0)" stroke-width="2" fill="none"></polyline>
<polyline points="1849.91,919.202,5604.58,675.848" stroke="rgb(255,242,0)" stroke-width="2" fill="none"></polyline>
<polyline points="1658.9,399.073,6051.98,2285.65" stroke="rgb(101,255,0)" stroke-width="2" fill="none"></polyline>
<polyline points="1359.25,844.466,5068.38,1668.87" stroke="rgb(255,187,0)" stroke-width="2" fill="none"></polyline>
<polyline points="773.94,1752.52,6610.28,721.574" stroke="rgb(255,0,25)" stroke-width="2" fill="none"></polyline>
<polyline points="896.029,1607.58,6188.49,2357.47" stroke="rgb(0,221,255)" stroke-width="2" fill="none"></polyline>
<polyline points="2113.89,1773.01,5589.5,1295.21" stroke="rgb(255,0,0)" stroke-width="2" fill="none"></polyline>
<polyline points="1013.1,1972.8,5395.21,1060.1" stroke="rgb(255,131,0)" stroke-width="2" fill="none"></polyline>
<polyline points="2104.83,1184.06,5650.15,735.557" stroke="rgb(255,174,0)" stroke-width="2" fill="none"></polyline>
<polyline points="2069.83,911.601,5803.63,737.786" stroke="rgb(0,255,195)" stroke-width="2" fill="none"></polyline>
<polyline points="2309.84,641.047,5684.84,710.804" stroke="rgb(0,255,12)" stroke-width="2" fill="none"></polyline>
<polyline points="2309.84,641.047,5684.84,710.804" stroke="rgb(67,255,0)" stroke-width="2" fill="none"></polyline>
<polyline points="2222.12,1755.95,5160.65,757.835" stroke="rgb(46,0,255)" stroke-width="2" fill="none"></polyline>
<polyline points="2027.55,813.759,5755.54,764.893" stroke="rgb(21,0,255)" stroke-width="2" fill="none"></polyline>
<polyline points="1891.15,1557.5,5492.19,745.508" stroke="rgb(33,255,0)" stroke-width="2" fill="none"></polyline>
<polyline points="1891.15,1557.5,5492.19,745.508" stroke="rgb(255,0,178)" stroke-width="2" fill="none"></polyline>
<polyline points="2101.09,713.065,5747.34,1031.86" stroke="rgb(0,93,255)" stroke-width="2" fill="none"></polyline>
<polyline points="618.477,2016.46,5872.78,1393.75" stroke="rgb(0,4,255)" stroke-width="2" fill="none"></polyline>
<polyline points="1403.3,694.669,5294.97,801.532" stroke="rgb(255,0,174)" stroke-width="2" fill="none"></polyline>
<polyline points="2309.84,641.047,5758.81,1044.74" stroke="rgb(255,25,0)" stroke-width="2" fill="none"></polyline>
<polyline points="1403.3,694.669,5601.28,804.609" stroke="rgb(0,63,255)" stroke-width="2" fill="none"></polyline>
<polyline points="2242.53,1059.23,5252.06,813.024" stroke="rgb(255,0,59)" stroke-width="2" fill="none"></polyline>
<polyline points="1383.75,768.936,5456.71,1424.56" stroke="rgb(0,255,59)" stroke-width="2" fill="none"></polyline>
<polyline points="1752.16,1829.9,5337.24,2736.7" stroke="rgb(17,0,255)" stroke-width="2" fill="none"></polyline>
<polyline points="1154.37,1162.22,4894.86,1055.23" stroke="rgb(255,72,0)" stroke-width="2" fill="none"></polyline>
<polyline points="1930.14,35.9677,6002.16,1880.96" stroke="rgb(0,225,255)" stroke-width="2" fill="none"></polyline>
<polyline points="1346.71,1104.61,5482.01,1143.3" stroke="rgb(0,255,21)" stroke-width="2" fill="none"></polyline>
<polyline points="1207.09,1998.84,4929.86,1150.44" stroke="rgb(0,12,255)" stroke-width="2" fill="none"></polyline>
<polyline points="2226.89,761.403,5405.4,1087.57" stroke="rgb(255,85,0)" stroke-width="2" fill="none"></polyline>
<polyline points="1382.52,1713.91,5635.88,1473.17" stroke="rgb(255,0,225)" stroke-width="2" fill="none"></polyline>
<polyline points="1625.03,206.058,4826.21,1163.58" stroke="rgb(0,114,255)" stroke-width="2" fill="none"></polyline>
<polyline points="773.94,1752.52,5357.72,1165.79" stroke="rgb(225,0,255)" stroke-width="2" fill="none"></polyline>
<polyline points="1992.57,1263.75,5458.41,1095.71" stroke="rgb(255,21,0)" stroke-width="2" fill="none"></polyline>
<polyline points="1312.25,848.064,5045.63,1491.85" stroke="rgb(255,0,216)" stroke-width="2" fill="none"></polyline>
<polyline points="1910.51,724.178,5335.64,791.471" stroke="rgb(0,127,255)" stroke-width="2" fill="none"></polyline>
<polyline points="1312.25,848.064,5045.63,1491.85" stroke="rgb(0,38,255)" stroke-width="2" fill="none"></polyline>
<polyline points="2097.02,1103.48,5759.7,1105.76" stroke="rgb(255,38,0)" stroke-width="2" fill="none"></polyline>
<polyline points="2309.84,641.047,5568.73,801.165" stroke="rgb(0,127,255)" stroke-width="2" fill="none"></polyline>
<polyline points="1211.01,976.94,4894.16,1216.71" stroke="rgb(93,0,255)" stroke-width="2" fill="none"></polyline>
<polyline points="2309.84,641.047,5645.36,1153.14" stroke="rgb(255,212,0)" stroke-width="2" fill="none"></polyline>
<polyline points="2309.84,641.047,5645.36,1153.14" stroke="rgb(38,0,255)" stroke-width="2" fill="none"></polyline>
<polyline points="2113.89,1773.01,5614.87,1248.01" stroke="rgb(72,0,255)" stroke-width="2" fill="none"></polyline>
<polyline points="721.346,1855.42,5651.87,1247.88" stroke="rgb(255,110,0)" stroke-width="2" fill="none"></polyline>
<polyline points="721.346,1855.42,5651.87,1247.88" stroke="rgb(0,255,84)" stroke-width="2" fill="none"></polyline>
<polyline points="1030.91,1963.13,6813.29,866.123" stroke="rgb(0,255,93)" stroke-width="2" fill="none"></polyline>
<polyline points="2250.76,673.202,5411.02,883.251" stroke="rgb(0,255,80)" stroke-width="2" fill="none"></polyline>
<polyline points="2113.89,1773.01,5622.55,1257.9" stroke="rgb(255,0,127)" stroke-width="2" fill="none"></polyline>
<polyline points="1150.1,1068.77,4964.2,1188.68" stroke="rgb(0,33,255)" stroke-width="2" fill="none"></polyline>
<polyline points="1910.51,724.178,5633.9,1193.36" stroke="rgb(255,76,0)" stroke-width="2" fill="none"></polyline>
<polyline points="2113.89,1773.01,5475.99,1268.48" stroke="rgb(212,0,255)" stroke-width="2" fill="none"></polyline>
<polyline points="2113.89,1773.01,5466.89,1280.27" stroke="rgb(0,4,255)" stroke-width="2" fill="none"></polyline>
<polyline points="2052.75,766.601,5507.76,1270.53" stroke="rgb(21,255,0)" stroke-width="2" fill="none"></polyline>
<polyline points="2113.89,1773.01,5507.67,1296.33" stroke="rgb(0,255,118)" stroke-width="2" fill="none"></polyline>
<polyline points="1891.15,1557.5,5629.56,1295.72" stroke="rgb(21,0,255)" stroke-width="2" fill="none"></polyline>
<polyline points="2113.89,1773.01,5654.78,1321.03" stroke="rgb(255,0,4)" stroke-width="2" fill="none"></polyline>
<polyline points="1754.1,1501.39,5448.03,1873.71" stroke="rgb(0,255,191)" stroke-width="2" fill="none"></polyline>
<polyline points="1993.79,898.777,5621.02,665.123" stroke="rgb(203,255,0)" stroke-width="2" fill="none"></polyline>
<polyline points="692,1829.32,5514.66,1341.82" stroke="rgb(255,0,12)" stroke-width="2" fill="none"></polyline>
<polyline points="1346.71,1104.61,5538.55,1415.93" stroke="rgb(255,178,0)" stroke-width="2" fill="none"></polyline>
<polyline points="2113.89,1773.01,5483.04,1348.07" stroke="rgb(255,0,148)" stroke-width="2" fill="none"></polyline>
<polyline points="924.878,1849.77,5444.59,1949.39" stroke="rgb(255,0,237)" stroke-width="2" fill="none"></polyline>
<polyline points="978.88,1355.28,5129.22,1981.95" stroke="rgb(67,0,255)" stroke-width="2" fill="none"></polyline>
<polyline points="1154.37,1162.22,4972.42,1370.79" stroke="rgb(76,0,255)" stroke-width="2" fill="none"></polyline>
<polyline points="1312.25,848.064,5045.01,1491.81" stroke="rgb(255,0,216)" stroke-width="2" fill="none"></polyline>
<polyline points="1312.25,848.064,5045.01,1491.81" stroke="rgb(182,255,0)" stroke-width="2" fill="none"></polyline>
<polyline points="2685.02,435.882,6258.13,1612.19" stroke="rgb(255,0,85)" stroke-width="2" fill="none"></polyline>
<polyline points="2307.72,1709.31,5634.7,728.983" stroke="rgb(255,221,0)" stroke-width="2" fill="none"></polyline>
<polyline points="986.555,1354.24,5128.22,1971.56" stroke="rgb(140,255,0)" stroke-width="2" fill="none"></polyline>
<polyline points="2250.76,673.202,5657.35,795.369" stroke="rgb(0,208,255)" stroke-width="2" fill="none"></polyline>
<polyline points="1930.14,35.9677,5896.36,2387.44" stroke="rgb(255,0,195)" stroke-width="2" fill="none"></polyline>
<polyline points="1891.15,1557.5,5467.59,1319.53" stroke="rgb(255,38,0)" stroke-width="2" fill="none"></polyline>
<polyline points="1419.88,1757.44,5040.28,2154.54" stroke="rgb(255,0,204)" stroke-width="2" fill="none"></polyline>
<polyline points="1302.6,1163.65,4746.25,1015.34" stroke="rgb(0,123,255)" stroke-width="2" fill="none"></polyline>
<polyline points="1284.35,898.761,5031.87,1323.81" stroke="rgb(255,153,0)" stroke-width="2" fill="none"></polyline>
<polyline points="1210.72,1625.51,5195.9,1331.91" stroke="rgb(255,0,153)" stroke-width="2" fill="none"></polyline>
<polyline points="1704.91,1000.61,4866.36,2175.62" stroke="rgb(0,63,255)" stroke-width="2" fill="none"></polyline>
<polyline points="964.224,1410.96,5051.63,2178.02" stroke="rgb(0,255,233)" stroke-width="2" fill="none"></polyline>
<polyline points="2095.74,715.039,5588.01,1042.87" stroke="rgb(229,0,255)" stroke-width="2" fill="none"></polyline>
<polyline points="1344.52,896.187,5054.04,1448.38" stroke="rgb(255,0,127)" stroke-width="2" fill="none"></polyline>
<polyline points="2123.11,1510.01,4991.06,2249.31" stroke="rgb(233,255,0)" stroke-width="2" fill="none"></polyline>
<polyline points="1021.9,1314.57,6092.44,2321.04" stroke="rgb(101,255,0)" stroke-width="2" fill="none"></polyline>
<polyline points="2123.11,1510.01,5017,2251.84" stroke="rgb(165,255,0)" stroke-width="2" fill="none"></polyline>
<polyline points="2270.22,939.504,5458.91,1083.09" stroke="rgb(0,255,254)" stroke-width="2" fill="none"></polyline>
<polyline points="2252.76,936.368,5406.98,1095.15" stroke="rgb(21,0,255)" stroke-width="2" fill="none"></polyline>
<polyline points="2323.95,888.972,5543.28,881.928" stroke="rgb(255,0,144)" stroke-width="2" fill="none"></polyline>
<polyline points="2081.46,708.932,5566.76,1114.3" stroke="rgb(255,216,0)" stroke-width="2" fill="none"></polyline>
<polyline points="2600.82,903.977,5413.91,1147.12" stroke="rgb(255,212,0)" stroke-width="2" fill="none"></polyline>
<polyline points="1970.64,935.829,5645.43,754.944" stroke="rgb(255,165,0)" stroke-width="2" fill="none"></polyline>
<polyline points="1171.35,1044.6,5019.9,1574.2" stroke="rgb(255,204,0)" stroke-width="2" fill="none"></polyline>
<polyline points="1849.91,919.202,5668.81,910.619" stroke="rgb(255,0,148)" stroke-width="2" fill="none"></polyline>
<polyline points="1606.22,288.874,6239.99,1610.66" stroke="rgb(0,17,255)" stroke-width="2" fill="none"></polyline>
<polyline points="1992.57,1263.75,5377.76,942.758" stroke="rgb(0,63,255)" stroke-width="2" fill="none"></polyline>
<polyline points="2309.84,641.047,5447.25,959.736" stroke="rgb(114,255,0)" stroke-width="2" fill="none"></polyline>
<polyline points="2309.84,641.047,5447.25,959.736" stroke="rgb(255,25,0)" stroke-width="2" fill="none"></polyline>
<polyline points="1635.93,1501.98,5412.04,1198.34" stroke="rgb(255,195,0)" stroke-width="2" fill="none"></polyline>
<polyline points="1990.56,1300.36,5707.01,967.7" stroke="rgb(255,178,0)" stroke-width="2" fill="none"></polyline>
<polyline points="1858.32,821.463,5659.49,805.091" stroke="rgb(255,0,55)" stroke-width="2" fill="none"></polyline>
<polyline points="692,1829.32,4753.55,1028.43" stroke="rgb(89,255,0)" stroke-width="2" fill="none"></polyline>
<polyline points="2309.84,641.047,5758.72,1044.16" stroke="rgb(255,4,0)" stroke-width="2" fill="none"></polyline>
<polyline points="2309.84,641.047,5758.72,1044.16" stroke="rgb(255,212,0)" stroke-width="2" fill="none"></polyline>
<polyline points="1830.98,1471.43,5811.95,1421.07" stroke="rgb(191,0,255)" stroke-width="2" fill="none"></polyline>
<polyline points="1992.57,1263.75,5458.12,1095.86" stroke="rgb(255,46,0)" stroke-width="2" fill="none"></polyline>
<polyline points="1830.98,1471.43,5650.58,1453.9" stroke="rgb(255,8,0)" stroke-width="2" fill="none"></polyline>
<polyline points="1171.35,1044.6,5048.01,1373.76" stroke="rgb(0,255,72)" stroke-width="2" fill="none"></polyline>
<polyline points="1171.35,1044.6,4953.38,1377.79" stroke="rgb(255,199,0)" stroke-width="2" fill="none"></polyline>
<polyline points="2553.89,1074.22,6508.79,597.223" stroke="rgb(255,0,144)" stroke-width="2" fill="none"></polyline>
<polyline points="1213.65,1047.43,4902.28,1210.12" stroke="rgb(0,25,255)" stroke-width="2" fill="none"></polyline>
<polyline points="986.555,1354.24,4909.39,1248.93" stroke="rgb(110,255,0)" stroke-width="2" fill="none"></polyline>
<polyline points="2120.96,1515.03,5026.51,2238.29" stroke="rgb(0,255,50)" stroke-width="2" fill="none"></polyline>
<polyline points="1992,447.443,5088.36,2097.37" stroke="rgb(0,153,255)" stroke-width="2" fill="none"></polyline>
<polyline points="1546.84,974.052,6656.06,1454.66" stroke="rgb(0,255,165)" stroke-width="2" fill="none"></polyline>
<polyline points="1501.73,1150.15,4593.15,694.865" stroke="rgb(80,255,0)" stroke-width="2" fill="none"></polyline>
<polyline points="1862.08,741.357,6272.06,1231.79" stroke="rgb(191,0,255)" stroke-width="2" fill="none"></polyline>
<polyline points="1983.02,464.736,5711.74,2650.93" stroke="rgb(0,123,255)" stroke-width="2" fill="none"></polyline>
<polyline points="2385.9,1572.88,5040.15,1725.93" stroke="rgb(255,0,59)" stroke-width="2" fill="none"></polyline>
<polyline points="1474.67,275.435,5461.7,1909.43" stroke="rgb(0,255,16)" stroke-width="2" fill="none"></polyline>
<circle cx="940.358" cy="1492.07" r="4" stroke="rgb(16,255,0)" stroke-width="2" fill="none"></circle>
<circle cx="4965.69" cy="1412.92" r="4" stroke="rgb(16,255,0)" stroke-width="2" fill="none"></circle>
<circle cx="2195.13" cy="949.314" r="4" stroke="rgb(0,140,255)" stroke-width="2" fill="none"></circle>
<circle cx="5558.38" cy="810.275" r="4" stroke="rgb(0,140,255)" stroke-width="2" fill="none"></circle>
<circle cx="2069.83" cy="911.601" r="4" stroke="rgb(0,21,255)" stroke-width="2" fill="none"></circle>
<circle cx="6777.43" cy="860.23" r="4" stroke="rgb(0,21,255)" stroke-width="2" fill="none"></circle>
<circle cx="2025.06" cy="326.656" r="4" stroke="rgb(29,0,255)" stroke-width="2" fill="none"></circle>
<circle cx="4272.7" cy="861.758" r="4" stroke="rgb(29,0,255)" stroke-width="2" fill="none"></circle>
<circle cx="2685.02" cy="435.882" r="4" stroke="rgb(0,255,46)" stroke-width="2" fill="none"></circle>
<circle cx="5662.56" cy="1431.82" r="4" stroke="rgb(0,255,46)" stroke-width="2" fill="none"></circle>
<circle cx="1030.91" cy="1963.13" r="4" stroke="rgb(238,0,255)" stroke-width="2" fill="none"></circle>
<circle cx="6795.39" cy="866.088" r="4" stroke="rgb(238,0,255)" stroke-width="2" fill="none"></circle>
<circle cx="1851.82" cy="113.725" r="4" stroke="rgb(0,85,255)" stroke-width="2" fill="none"></circle>
<circle cx="5533.94" cy="1438.32" r="4" stroke="rgb(0,85,255)" stroke-width="2" fill="none"></circle>
<circle cx="2198.11" cy="955.018" r="4" stroke="rgb(153,255,0)" stroke-width="2" fill="none"></circle>
<circle cx="5551.81" cy="815.376" r="4" stroke="rgb(153,255,0)" stroke-width="2" fill="none"></circle>
<circle cx="1474.84" cy="1791.97" r="4" stroke="rgb(0,255,191)" stroke-width="2" fill="none"></circle>
<circle cx="4817.84" cy="435.715" r="4" stroke="rgb(0,255,191)" stroke-width="2" fill="none"></circle>
<circle cx="2309.84" cy="641.047" r="4" stroke="rgb(255,0,80)" stroke-width="2" fill="none"></circle>
<circle cx="5782.56" cy="1076.09" r="4" stroke="rgb(255,0,80)" stroke-width="2" fill="none"></circle>
<circle cx="2309.84" cy="641.047" r="4" stroke="rgb(0,255,195)" stroke-width="2" fill="none"></circle>
<circle cx="5782.56" cy="1076.09" r="4" stroke="rgb(0,255,195)" stroke-width="2" fill="none"></circle>
<circle cx="1383.75" cy="768.936" r="4" stroke="rgb(0,85,255)" stroke-width="2" fill="none"></circle>
<circle cx="5446.34" cy="1439.36" r="4" stroke="rgb(0,85,255)" stroke-width="2" fill="none"></circle>
<circle cx="1346.71" cy="1104.61" r="4" stroke="rgb(242,255,0)" stroke-width="2" fill="none"></circle>
<circle cx="5536.07" cy="1444.87" r="4" stroke="rgb(242,255,0)" stroke-width="2" fill="none"></circle>
<circle cx="1441.54" cy="1810.79" r="4" stroke="rgb(153,255,0)" stroke-width="2" fill="none"></circle>
<circle cx="4926.74" cy="1455.02" r="4" stroke="rgb(153,255,0)" stroke-width="2" fill="none"></circle>
<circle cx="1145.08" cy="1252.62" r="4" stroke="rgb(0,255,8)" stroke-width="2" fill="none"></circle>
<circle cx="4971.87" cy="885.297" r="4" stroke="rgb(0,255,8)" stroke-width="2" fill="none"></circle>
<circle cx="2696.39" cy="438.422" r="4" stroke="rgb(0,255,67)" stroke-width="2" fill="none"></circle>
<circle cx="6861.31" cy="531.307" r="4" stroke="rgb(0,255,67)" stroke-width="2" fill="none"></circle>
<circle cx="945.054" cy="1980.14" r="4" stroke="rgb(0,191,255)" stroke-width="2" fill="none"></circle>
<circle cx="4648.25" cy="532.618" r="4" stroke="rgb(0,191,255)" stroke-width="2" fill="none"></circle>
<circle cx="2215.07" cy="454.96" r="4" stroke="rgb(255,0,114)" stroke-width="2" fill="none"></circle>
<circle cx="4937.76" cy="1467.93" r="4" stroke="rgb(255,0,114)" stroke-width="2" fill="none"></circle>
<circle cx="2136.15" cy="441.587" r="4" stroke="rgb(59,0,255)" stroke-width="2" fill="none"></circle>
<circle cx="5210.13" cy="2137.26" r="4" stroke="rgb(59,0,255)" stroke-width="2" fill="none"></circle>
<circle cx="1606.22" cy="288.874" r="4" stroke="rgb(0,255,38)" stroke-width="2" fill="none"></circle>
<circle cx="4854" cy="907.241" r="4" stroke="rgb(0,255,38)" stroke-width="2" fill="none"></circle>
<circle cx="1783.07" cy="1650.79" r="4" stroke="rgb(153,0,255)" stroke-width="2" fill="none"></circle>
<circle cx="6379.09" cy="575.37" r="4" stroke="rgb(153,0,255)" stroke-width="2" fill="none"></circle>
<circle cx="2069.83" cy="911.601" r="4" stroke="rgb(255,0,59)" stroke-width="2" fill="none"></circle>
<circle cx="5215.97" cy="915.88" r="4" stroke="rgb(255,0,59)" stroke-width="2" fill="none"></circle>
<circle cx="1403.3" cy="694.669" r="4" stroke="rgb(0,255,148)" stroke-width="2" fill="none"></circle>
<circle cx="5624.37" cy="916.003" r="4" stroke="rgb(0,255,148)" stroke-width="2" fill="none"></circle>
<circle cx="1846.69" cy="1127.82" r="4" stroke="rgb(0,255,33)" stroke-width="2" fill="none"></circle>
<circle cx="5808.26" cy="936.633" r="4" stroke="rgb(0,255,33)" stroke-width="2" fill="none"></circle>
<circle cx="2159.01" cy="717.547" r="4" stroke="rgb(0,255,114)" stroke-width="2" fill="none"></circle>
<circle cx="4564.27" cy="969.64" r="4" stroke="rgb(0,255,114)" stroke-width="2" fill="none"></circle>
<circle cx="1403.3" cy="694.669" r="4" stroke="rgb(0,255,161)" stroke-width="2" fill="none"></circle>
<circle cx="5399.16" cy="671.94" r="4" stroke="rgb(0,255,161)" stroke-width="2" fill="none"></circle>
<circle cx="2113.89" cy="1773.01" r="4" stroke="rgb(255,221,0)" stroke-width="2" fill="none"></circle>
<circle cx="5314.35" cy="672.844" r="4" stroke="rgb(255,221,0)" stroke-width="2" fill="none"></circle>
<circle cx="2113.89" cy="1773.01" r="4" stroke="rgb(4,0,255)" stroke-width="2" fill="none"></circle>
<circle cx="5308.16" cy="673.947" r="4" stroke="rgb(4,0,255)" stroke-width="2" fill="none"></circle>
<circle cx="2113.89" cy="1773.01" r="4" stroke="rgb(0,85,255)" stroke-width="2" fill="none"></circle>
<circle cx="5301.59" cy="674.989" r="4" stroke="rgb(0,85,255)" stroke-width="2" fill="none"></circle>
<circle cx="2136.15" cy="441.587" r="4" stroke="rgb(0,199,255)" stroke-width="2" fill="none"></circle>
<circle cx="5066.36" cy="1216.36" r="4" stroke="rgb(0,199,255)" stroke-width="2" fill="none"></circle>
<circle cx="1606.22" cy="288.874" r="4" stroke="rgb(255,0,212)" stroke-width="2" fill="none"></circle>
<circle cx="4581.79" cy="1012.89" r="4" stroke="rgb(255,0,212)" stroke-width="2" fill="none"></circle>
<circle cx="1403.3" cy="694.669" r="4" stroke="rgb(255,0,101)" stroke-width="2" fill="none"></circle>
<circle cx="5370.16" cy="1228.99" r="4" stroke="rgb(255,0,101)" stroke-width="2" fill="none"></circle>
<circle cx="2052.75" cy="766.601" r="4" stroke="rgb(255,174,0)" stroke-width="2" fill="none"></circle>
<circle cx="5665.72" cy="1247.59" r="4" stroke="rgb(255,174,0)" stroke-width="2" fill="none"></circle>
<circle cx="1849.91" cy="919.202" r="4" stroke="rgb(255,242,0)" stroke-width="2" fill="none"></circle>
<circle cx="5604.58" cy="675.848" r="4" stroke="rgb(255,242,0)" stroke-width="2" fill="none"></circle>
<circle cx="1658.9" cy="399.073" r="4" stroke="rgb(101,255,0)" stroke-width="2" fill="none"></circle>
<circle cx="6051.98" cy="2285.65" r="4" stroke="rgb(101,255,0)" stroke-width="2" fill="none"></circle>
<circle cx="1359.25" cy="844.466" r="4" stroke="rgb(255,187,0)" stroke-width="2" fill="none"></circle>
<circle cx="5068.38" cy="1668.87" r="4" stroke="rgb(255,187,0)" stroke-width="2" fill="none"></circle>
<circle cx="773.94" cy="1752.52" r="4" stroke="rgb(255,0,25)" stroke-width="2" fill="none"></circle>
<circle cx="6610.28" cy="721.574" r="4" stroke="rgb(255,0,25)" stroke-width="2" fill="none"></circle>
<circle cx="896.029" cy="1607.58" r="4" stroke="rgb(0,221,255)" stroke-width="2" fill="none"></circle>
<circle cx="6188.49" cy="2357.47" r="4" stroke="rgb(0,221,255)" stroke-width="2" fill="none"></circle>
<circle cx="2113.89" cy="1773.01" r="4" stroke="rgb(255,0,0)" stroke-width="2" fill="none"></circle>
<circle cx="5589.5" cy="1295.21" r="4" stroke="rgb(255,0,0)" stroke-width="2" fill="none"></circle>
<circle cx="1013.1" cy="1972.8" r="4" stroke="rgb(255,131,0)" stroke-width="2" fill="none"></circle>
<circle cx="5395.21" cy="1060.1" r="4" stroke="rgb(255,131,0)" stroke-width="2" fill="none"></circle>
<circle cx="2104.83" cy="1184.06" r="4" stroke="rgb(255,174,0)" stroke-width="2" fill="none"></circle>
<circle cx="5650.15" cy="735.557" r="4" stroke="rgb(255,174,0)" stroke-width="2" fill="none"></circle>
<circle cx="2069.83" cy="911.601" r="4" stroke="rgb(0,255,195)" stroke-width="2" fill="none"></circle>
<circle cx="5803.63" cy="737.786" r="4" stroke="rgb(0,255,195)" stroke-width="2" fill="none"></circle>
<circle cx="2309.84" cy="641.047" r="4" stroke="rgb(0,255,12)" stroke-width="2" fill="none"></circle>
<circle cx="5684.84" cy="710.804" r="4" stroke="rgb(0,255,12)" stroke-width="2" fill="none"></circle>
<circle cx="2309.84" cy="641.047" r="4" stroke="rgb(67,255,0)" stroke-width="2" fill="none"></circle>
<circle cx="5684.84" cy="710.804" r="4" stroke="rgb(67,255,0)" stroke-width="2" fill="none"></circle>
<circle cx="2222.12" cy="1755.95" r="4" stroke="rgb(46,0,255)" stroke-width="2" fill="none"></circle>
<circle cx="5160.65" cy="757.835" r="4" stroke="rgb(46,0,255)" stroke-width="2" fill="none"></circle>
<circle cx="2027.55" cy="813.759" r="4" stroke="rgb(21,0,255)" stroke-width="2" fill="none"></circle>
<circle cx="5755.54" cy="764.893" r="4" stroke="rgb(21,0,255)" stroke-width="2" fill="none"></circle>
<circle cx="1891.15" cy="1557.5" r="4" stroke="rgb(33,255,0)" stroke-width="2" fill="none"></circle>
<circle cx="5492.19" cy="745.508" r="4" stroke="rgb(33,255,0)" stroke-width="2" fill="none"></circle>
<circle cx="1891.15" cy="1557.5" r="4" stroke="rgb(255,0,178)" stroke-width="2" fill="none"></circle>
<circle cx="5492.19" cy="745.508" r="4" stroke="rgb(255,0,178)" stroke-width="2" fill="none"></circle>
<circle cx="2101.09" cy="713.065" r="4" stroke="rgb(0,93,255)" stroke-width="2" fill="none"></circle>
<circle cx="5747.34" cy="1031.86" r="4" stroke="rgb(0,93,255)" stroke-width="2" fill="none"></circle>
<circle cx="618.477" cy="2016.46" r="4" stroke="rgb(0,4,255)" stroke-width="2" fill="none"></circle>
<circle cx="5872.78" cy="1393.75" r="4" stroke="rgb(0,4,255)" stroke-width="2" fill="none"></circle>
<circle cx="1403.3" cy="694.669" r="4" stroke="rgb(255,0,174)" stroke-width="2" fill="none"></circle>
<circle cx="5294.97" cy="801.532" r="4" stroke="rgb(255,0,174)" stroke-width="2" fill="none"></circle>
<circle cx="2309.84" cy="641.047" r="4" stroke="rgb(255,25,0)" stroke-width="2" fill="none"></circle>
<circle cx="5758.81" cy="1044.74" r="4" stroke="rgb(255,25,0)" stroke-width="2" fill="none"></circle>
<circle cx="1403.3" cy="694.669" r="4" stroke="rgb(0,63,255)" stroke-width="2" fill="none"></circle>
<circle cx="5601.28" cy="804.609" r="4" stroke="rgb(0,63,255)" stroke-width="2" fill="none"></circle>
<circle cx="2242.53" cy="1059.23" r="4" stroke="rgb(255,0,59)" stroke-width="2" fill="none"></circle>
<circle cx="5252.06" cy="813.024" r="4" stroke="rgb(255,0,59)" stroke-width="2" fill="none"></circle>
<circle cx="1383.75" cy="768.936" r="4" stroke="rgb(0,255,59)" stroke-width="2" fill="none"></circle>
<circle cx="5456.71" cy="1424.56" r="4" stroke="rgb(0,255,59)" stroke-width="2" fill="none"></circle>
<circle cx="1752.16" cy="1829.9" r="4" stroke="rgb(17,0,255)" stroke-width="2" fill="none"></circle>
<circle cx="5337.24" cy="2736.7" r="4" stroke="rgb(17,0,255)" stroke-width="2" fill="none"></circle>
<circle cx="1154.37" cy="1162.22" r="4" stroke="rgb(255,72,0)" stroke-width="2" fill="none"></circle>
<circle cx="4894.86" cy="1055.23" r="4" stroke="rgb(255,72,0)" stroke-width="2" fill="none"></circle>
<circle cx="1930.14" cy="35.9677" r="4" stroke="rgb(0,225,255)" stroke-width="2" fill="none"></circle>
<circle cx="6002.16" cy="1880.96" r="4" stroke="rgb(0,225,255)" stroke-width="2" fill="none"></circle>
<circle cx="1346.71" cy="1104.61" r="4" stroke="rgb(0,255,21)" stroke-width="2" fill="none"></circle>
<circle cx="5482.01" cy="1143.3" r="4" stroke="rgb(0,255,21)" stroke-width="2" fill="none"></circle>
<circle cx="1207.09" cy="1998.84" r="4" stroke="rgb(0,12,255)" stroke-width="2" fill="none"></circle>
<circle cx="4929.86" cy="1150.44" r="4" stroke="rgb(0,12,255)" stroke-width="2" fill="none"></circle>
<circle cx="2226.89" cy="761.403" r="4" stroke="rgb(255,85,0)" stroke-width="2" fill="none"></circle>
<circle cx="5405.4" cy="1087.57" r="4" stroke="rgb(255,85,0)" stroke-width="2" fill="none"></circle>
<circle cx="1382.52" cy="1713.91" r="4" stroke="rgb(255,0,225)" stroke-width="2" fill="none"></circle>
<circle cx="5635.88" cy="1473.17" r="4" stroke="rgb(255,0,225)" stroke-width="2" fill="none"></circle>
<circle cx="1625.03" cy="206.058" r="4" stroke="rgb(0,114,255)" stroke-width="2" fill="none"></circle>
<circle cx="4826.21" cy="1163.58" r="4" stroke="rgb(0,114,255)" stroke-width="2" fill="none"></circle>
<circle cx="773.94" cy="1752.52" r="4" stroke="rgb(225,0,255)" stroke-width="2" fill="none"></circle>
<circle cx="5357.72" cy="1165.79" r="4" stroke="rgb(225,0,255)" stroke-width="2" fill="none"></circle>
<circle cx="1992.57" cy="1263.75" r="4" stroke="rgb(255,21,0)" stroke-width="2" fill="none"></circle>
<circle cx="5458.41" cy="1095.71" r="4" stroke="rgb(255,21,0)" stroke-width="2" fill="none"></circle>
<circle cx="1312.25" cy="848.064" r="4" stroke="rgb(255,0,216)" stroke-width="2" fill="none"></circle>
<circle cx="5045.63" cy="1491.85" r="4" stroke="rgb(255,0,216)" stroke-width="2" fill="none"></circle>
<circle cx="1910.51" cy="724.178" r="4" stroke="rgb(0,127,255)" stroke-width="2" fill="none"></circle>
<circle cx="5335.64" cy="791.471" r="4" stroke="rgb(0,127,255)" stroke-width="2" fill="none"></circle>
<circle cx="1312.25" cy="848.064" r="4" stroke="rgb(0,38,255)" stroke-width="2" fill="none"></circle>
<circle cx="5045.63" cy="1491.85" r="4" stroke="rgb(0,38,255)" stroke-width="2" fill="none"></circle>
<circle cx="2097.02" cy="1103.48" r="4" stroke="rgb(255,38,0)" stroke-width="2" fill="none"></circle>
<circle cx="5759.7" cy="1105.76" r="4" stroke="rgb(255,38,0)" stroke-width="2" fill="none"></circle>
<circle cx="2309.84" cy="641.047" r="4" stroke="rgb(0,127,255)" stroke-width="2" fill="none"></circle>
<circle cx="5568.73" cy="801.165" r="4" stroke="rgb(0,127,255)" stroke-width="2" fill="none"></circle>
<circle cx="1211.01" cy="976.94" r="4" stroke="rgb(93,0,255)" stroke-width="2" fill="none"></circle>
<circle cx="4894.16" cy="1216.71" r="4" stroke="rgb(93,0,255)" stroke-width="2" fill="none"></circle>
<circle cx="2309.84" cy="641.047" r="4" stroke="rgb(255,212,0)" stroke-width="2" fill="none"></circle>
<circle cx="5645.36" cy="1153.14" r="4" stroke="rgb(255,212,0)" stroke-width="2" fill="none"></circle>
<circle cx="2309.84" cy="641.047" r="4" stroke="rgb(38,0,255)" stroke-width="2" fill="none"></circle>
<circle cx="5645.36" cy="1153.14" r="4" stroke="rgb(38,0,255)" stroke-width="2" fill="none"></circle>
<circle cx="2113.89" cy="1773.01" r="4" stroke="rgb(72,0,255)" stroke-width="2" fill="none"></circle>
<circle cx="5614.87" cy="1248.01" r="4" stroke="rgb(72,0,255)" stroke-width="2" fill="none"></circle>
<circle cx="721.346" cy="1855.42" r="4" stroke="rgb(255,110,0)" stroke-width="2" fill="none"></circle>
<circle cx="5651.87" cy="1247.88" r="4" stroke="rgb(255,110,0)" stroke-width="2" fill="none"></circle>
<circle cx="721.346" cy="1855.42" r="4" stroke="rgb(0,255,84)" stroke-width="2" fill="none"></circle>
<circle cx="5651.87" cy="1247.88" r="4" stroke="rgb(0,255,84)" stroke-width="2" fill="none"></circle>
<circle cx="1030.91" cy="1963.13" r="4" stroke="rgb(0,255,93)" stroke-width="2" fill="none"></circle>
<circle cx="6813.29" cy="866.123" r="4" stroke="rgb(0,255,93)" stroke-width="2" fill="none"></circle>
<circle cx="2250.76" cy="673.202" r="4" stroke="rgb(0,255,80)" stroke-width="2" fill="none"></circle>
<circle cx="5411.02" cy="883.251" r="4" stroke="rgb(0,255,80)" stroke-width="2" fill="none"></circle>
<circle cx="2113.89" cy="1773.01" r="4" stroke="rgb(255,0,127)" stroke-width="2" fill="none"></circle>
<circle cx="5622.55" cy="1257.9" r="4" stroke="rgb(255,0,127)" stroke-width="2" fill="none"></circle>
<circle cx="1150.1" cy="1068.77" r="4" stroke="rgb(0,33,255)" stroke-width="2" fill="none"></circle>
<circle cx="4964.2" cy="1188.68" r="4" stroke="rgb(0,33,255)" stroke-width="2" fill="none"></circle>
<circle cx="1910.51" cy="724.178" r="4" stroke="rgb(255,76,0)" stroke-width="2" fill="none"></circle>
<circle cx="5633.9" cy="1193.36" r="4" stroke="rgb(255,76,0)" stroke-width="2" fill="none"></circle>
<circle cx="2113.89" cy="1773.01" r="4" stroke="rgb(212,0,255)" stroke-width="2" fill="none"></circle>
<circle cx="5475.99" cy="1268.48" r="4" stroke="rgb(212,0,255)" stroke-width="2" fill="none"></circle>
<circle cx="2113.89" cy="1773.01" r="4" stroke="rgb(0,4,255)" stroke-width="2" fill="none"></circle>
<circle cx="5466.89" cy="1280.27" r="4" stroke="rgb(0,4,255)" stroke-width="2" fill="none"></circle>
<circle cx="2052.75" cy="766.601" r="4" stroke="rgb(21,255,0)" stroke-width="2" fill="none"></circle>
<circle cx="5507.76" cy="1270.53" r="4" stroke="rgb(21,255,0)" stroke-width="2" fill="none"></circle>
<circle cx="2113.89" cy="1773.01" r="4" stroke="rgb(0,255,118)" stroke-width="2" fill="none"></circle>
<circle cx="5507.67" cy="1296.33" r="4" stroke="rgb(0,255,118)" stroke-width="2" fill="none"></circle>
<circle cx="1891.15" cy="1557.5" r="4" stroke="rgb(21,0,255)" stroke-width="2" fill="none"></circle>
<circle cx="5629.56" cy="1295.72" r="4" stroke="rgb(21,0,255)" stroke-width="2" fill="none"></circle>
<circle cx="2113.89" cy="1773.01" r="4" stroke="rgb(255,0,4)" stroke-width="2" fill="none"></circle>
<circle cx="5654.78" cy="1321.03" r="4" stroke="rgb(255,0,4)" stroke-width="2" fill="none"></circle>
<circle cx="1754.1" cy="1501.39" r="4" stroke="rgb(0,255,191)" stroke-width="2" fill="none"></circle>
<circle cx="5448.03" cy="1873.71" r="4" stroke="rgb(0,255,191)" stroke-width="2" fill="none"></circle>
<circle cx="1993.79" cy="898.777" r="4" stroke="rgb(203,255,0)" stroke-width="2" fill="none"></circle>
<circle cx="5621.02" cy="665.123" r="4" stroke="rgb(203,255,0)" stroke-width="2" fill="none"></circle>
<circle cx="692" cy="1829.32" r="4" stroke="rgb(255,0,12)" stroke-width="2" fill="none"></circle>
<circle cx="5514.66" cy="1341.82" r="4" stroke="rgb(255,0,12)" stroke-width="2" fill="none"></circle>
<circle cx="1346.71" cy="1104.61" r="4" stroke="rgb(255,178,0)" stroke-width="2" fill="none"></circle>
<circle cx="5538.55" cy="1415.93" r="4" stroke="rgb(255,178,0)" stroke-width="2" fill="none"></circle>
<circle cx="2113.89" cy="1773.01" r="4" stroke="rgb(255,0,148)" stroke-width="2" fill="none"></circle>
<circle cx="5483.04" cy="1348.07" r="4" stroke="rgb(255,0,148)" stroke-width="2" fill="none"></circle>
<circle cx="924.878" cy="1849.77" r="4" stroke="rgb(255,0,237)" stroke-width="2" fill="none"></circle>
<circle cx="5444.59" cy="1949.39" r="4" stroke="rgb(255,0,237)" stroke-width="2" fill="none"></circle>
<circle cx="978.88" cy="1355.28" r="4" stroke="rgb(67,0,255)" stroke-width="2" fill="none"></circle>
<circle cx="5129.22" cy="1981.95" r="4" stroke="rgb(67,0,255)" stroke-width="2" fill="none"></circle>
<circle cx="1154.37" cy="1162.22" r="4" stroke="rgb(76,0,255)" stroke-width="2" fill="none"></circle>
<circle cx="4972.42" cy="1370.79" r="4" stroke="rgb(76,0,255)" stroke-width="2" fill="none"></circle>
<circle cx="1312.25" cy="848.064" r="4" stroke="rgb(255,0,216)" stroke-width="2" fill="none"></circle>
<circle cx="5045.01" cy="1491.81" r="4" stroke="rgb(255,0,216)" stroke-width="2" fill="none"></circle>
<circle cx="1312.25" cy="848.064" r="4" stroke="rgb(182,255,0)" stroke-width="2" fill="none"></circle>
<circle cx="5045.01" cy="1491.81" r="4" stroke="rgb(182,255,0)" stroke-width="2" fill="none"></circle>
<circle cx="2685.02" cy="435.882" r="4" stroke="rgb(255,0,85)" stroke-width="2" fill="none"></circle>
<circle cx="6258.13" cy="1612.19" r="4" stroke="rgb(255,0,85)" stroke-width="2" fill="none"></circle>
<circle cx="2307.72" cy="1709.31" r="4" stroke="rgb(255,221,0)" stroke-width="2" fill="none"></circle>
<circle cx="5634.7" cy="728.983" r="4" stroke="rgb(255,221,0)" stroke-width="2" fill="none"></circle>
<circle cx="986.555" cy="1354.24" r="4" stroke="rgb(140,255,0)" stroke-width="2" fill="none"></circle>
<circle cx="5128.22" cy="1971.56" r="4" stroke="rgb(140,255,0)" stroke-width="2" fill="none"></circle>
<circle cx="2250.76" cy="673.202" r="4" stroke="rgb(0,208,255)" stroke-width="2" fill="none"></circle>
<circle cx="5657.35" cy="795.369" r="4" stroke="rgb(0,208,255)" stroke-width="2" fill="none"></circle>
<circle cx="1930.14" cy="35.9677" r="4" stroke="rgb(255,0,195)" stroke-width="2" fill="none"></circle>
<circle cx="5896.36" cy="2387.44" r="4" stroke="rgb(255,0,195)" stroke-width="2" fill="none"></circle>
<circle cx="1891.15" cy="1557.5" r="4" stroke="rgb(255,38,0)" stroke-width="2" fill="none"></circle>
<circle cx="5467.59" cy="1319.53" r="4" stroke="rgb(255,38,0)" stroke-width="2" fill="none"></circle>
<circle cx="1419.88" cy="1757.44" r="4" stroke="rgb(255,0,204)" stroke-width="2" fill="none"></circle>
<circle cx="5040.28" cy="2154.54" r="4" stroke="rgb(255,0,204)" stroke-width="2" fill="none"></circle>
<circle cx="1302.6" cy="1163.65" r="4" stroke="rgb(0,123,255)" stroke-width="2" fill="none"></circle>
<circle cx="4746.25" cy="1015.34" r="4" stroke="rgb(0,123,255)" stroke-width="2" fill="none"></circle>
<circle cx="1284.35" cy="898.761" r="4" stroke="rgb(255,153,0)" stroke-width="2" fill="none"></circle>
<circle cx="5031.87" cy="1323.81" r="4" stroke="rgb(255,153,0)" stroke-width="2" fill="none"></circle>
<circle cx="1210.72" cy="1625.51" r="4" stroke="rgb(255,0,153)" stroke-width="2" fill="none"></circle>
<circle cx="5195.9" cy="1331.91" r="4" stroke="rgb(255,0,153)" stroke-width="2" fill="none"></circle>
<circle cx="1704.91" cy="1000.61" r="4" stroke="rgb(0,63,255)" stroke-width="2" fill="none"></circle>
<circle cx="4866.36" cy="2175.62" r="4" stroke="rgb(0,63,255)" stroke-width="2" fill="none"></circle>
<circle cx="964.224" cy="1410.96" r="4" stroke="rgb(0,255,233)" stroke-width="2" fill="none"></circle>
<circle cx="5051.63" cy="2178.02" r="4" stroke="rgb(0,255,233)" stroke-width="2" fill="none"></circle>
<circle cx="2095.74" cy="715.039" r="4" stroke="rgb(229,0,255)" stroke-width="2" fill="none"></circle>
<circle cx="5588.01" cy="1042.87" r="4" stroke="rgb(229,0,255)" stroke-width="2" fill="none"></circle>
<circle cx="1344.52" cy="896.187" r="4" stroke="rgb(255,0,127)" stroke-width="2" fill="none"></circle>
<circle cx="5054.04" cy="1448.38" r="4" stroke="rgb(255,0,127)" stroke-width="2" fill="none"></circle>
<circle cx="2123.11" cy="1510.01" r="4" stroke="rgb(233,255,0)" stroke-width="2" fill="none"></circle>
<circle cx="4991.06" cy="2249.31" r="4" stroke="rgb(233,255,0)" stroke-width="2" fill="none"></circle>
<circle cx="1021.9" cy="1314.57" r="4" stroke="rgb(101,255,0)" stroke-width="2" fill="none"></circle>
<circle cx="6092.44" cy="2321.04" r="4" stroke="rgb(101,255,0)" stroke-width="2" fill="none"></circle>
<circle cx="2123.11" cy="1510.01" r="4" stroke="rgb(165,255,0)" stroke-width="2" fill="none"></circle>
<circle cx="5017" cy="2251.84" r="4" stroke="rgb(165,255,0)" stroke-width="2" fill="none"></circle>
<circle cx="2270.22" cy="939.504" r="4" stroke="rgb(0,255,254)" stroke-width="2" fill="none"></circle>
<circle cx="5458.91" cy="1083.09" r="4" stroke="rgb(0,255,254)" stroke-width="2" fill="none"></circle>
<circle cx="2252.76" cy="936.368" r="4" stroke="rgb(21,0,255)" stroke-width="2" fill="none"></circle>
<circle cx="5406.98" cy="1095.15" r="4" stroke="rgb(21,0,255)" stroke-width="2" fill="none"></circle>
<circle cx="2323.95" cy="888.972" r="4" stroke="rgb(255,0,144)" stroke-width="2" fill="none"></circle>
<circle cx="5543.28" cy="881.928" r="4" stroke="rgb(255,0,144)" stroke-width="2" fill="none"></circle>
<circle cx="2081.46" cy="708.932" r="4" stroke="rgb(255,216,0)" stroke-width="2" fill="none"></circle>
<circle cx="5566.76" cy="1114.3" r="4" stroke="rgb(255,216,0)" stroke-width="2" fill="none"></circle>
<circle cx="2600.82" cy="903.977" r="4" stroke="rgb(255,212,0)" stroke-width="2" fill="none"></circle>
<circle cx="5413.91" cy="1147.12" r="4" stroke="rgb(255,212,0)" stroke-width="2" fill="none"></circle>
<circle cx="1970.64" cy="935.829" r="4" stroke="rgb(255,165,0)" stroke-width="2" fill="none"></circle>
<circle cx="5645.43" cy="754.944" r="4" stroke="rgb(255,165,0)" stroke-width="2" fill="none"></circle>
<circle cx="1171.35" cy="1044.6" r="4" stroke="rgb(255,204,0)" stroke-width="2" fill="none"></circle>
<circle cx="5019.9" cy="1574.2" r="4" stroke="rgb(255,204,0)" stroke-width="2" fill="none"></circle>
<circle cx="1849.91" cy="919.202" r="4" stroke="rgb(255,0,148)" stroke-width="2" fill="none"></circle>
<circle cx="5668.81" cy="910.619" r="4" stroke="rgb(255,0,148)" stroke-width="2" fill="none"></circle>
<circle cx="1606.22" cy="288.874" r="4" stroke="rgb(0,17,255)" stroke-width="2" fill="none"></circle>
<circle cx="6239.99" cy="1610.66" r="4" stroke="rgb(0,17,255)" stroke-width="2" fill="none"></circle>
<circle cx="1992.57" cy="1263.75" r="4" stroke="rgb(0,63,255)" stroke-width="2" fill="none"></circle>
<circle cx="5377.76" cy="942.758" r="4" stroke="rgb(0,63,255)" stroke-width="2" fill="none"></circle>
<circle cx="2309.84" cy="641.047" r="4" stroke="rgb(114,255,0)" stroke-width="2" fill="none"></circle>
<circle cx="5447.25" cy="959.736" r="4" stroke="rgb(114,255,0)" stroke-width="2" fill="none"></circle>
<circle cx="2309.84" cy="641.047" r="4" stroke="rgb(255,25,0)" stroke-width="2" fill="none"></circle>
<circle cx="5447.25" cy="959.736" r="4" stroke="rgb(255,25,0)" stroke-width="2" fill="none"></circle>
<circle cx="1635.93" cy="1501.98" r="4" stroke="rgb(255,195,0)" stroke-width="2" fill="none"></circle>
<circle cx="5412.04" cy="1198.34" r="4" stroke="rgb(255,195,0)" stroke-width="2" fill="none"></circle>
<circle cx="1990.56" cy="1300.36" r="4" stroke="rgb(255,178,0)" stroke-width="2" fill="none"></circle>
<circle cx="5707.01" cy="967.7" r="4" stroke="rgb(255,178,0)" stroke-width="2" fill="none"></circle>
<circle cx="1858.32" cy="821.463" r="4" stroke="rgb(255,0,55)" stroke-width="2" fill="none"></circle>
<circle cx="5659.49" cy="805.091" r="4" stroke="rgb(255,0,55)" stroke-width="2" fill="none"></circle>
<circle cx="692" cy="1829.32" r="4" stroke="rgb(89,255,0)" stroke-width="2" fill="none"></circle>
<circle cx="4753.55" cy="1028.43" r="4" stroke="rgb(89,255,0)" stroke-width="2" fill="none"></circle>
<circle cx="2309.84" cy="641.047" r="4" stroke="rgb(255,4,0)" stroke-width="2" fill="none"></circle>
<circle cx="5758.72" cy="1044.16" r="4" stroke="rgb(255,4,0)" stroke-width="2" fill="none"></circle>
<circle cx="2309.84" cy="641.047" r="4" stroke="rgb(255,212,0)" stroke-width="2" fill="none"></circle>
<circle cx="5758.72" cy="1044.16" r="4" stroke="rgb(255,212,0)" stroke-width="2" fill="none"></circle>
<circle cx="1830.98" cy="1471.43" r="4" stroke="rgb(191,0,255)" stroke-width="2" fill="none"></circle>
<circle cx="5811.95" cy="1421.07" r="4" stroke="rgb(191,0,255)" stroke-width="2" fill="none"></circle>
<circle cx="1992.57" cy="1263.75" r="4" stroke="rgb(255,46,0)" stroke-width="2" fill="none"></circle>
<circle cx="5458.12" cy="1095.86" r="4" stroke="rgb(255,46,0)" stroke-width="2" fill="none"></circle>
<circle cx="1830.98" cy="1471.43" r="4" stroke="rgb(255,8,0)" stroke-width="2" fill="none"></circle>
<circle cx="5650.58" cy="1453.9" r="4" stroke="rgb(255,8,0)" stroke-width="2" fill="none"></circle>
<circle cx="1171.35" cy="1044.6" r="4" stroke="rgb(0,255,72)" stroke-width="2" fill="none"></circle>
<circle cx="5048.01" cy="1373.76" r="4" stroke="rgb(0,255,72)" stroke-width="2" fill="none"></circle>
<circle cx="1171.35" cy="1044.6" r="4" stroke="rgb(255,199,0)" stroke-width="2" fill="none"></circle>
<circle cx="4953.38" cy="1377.79" r="4" stroke="rgb(255,199,0)" stroke-width="2" fill="none"></circle>
<circle cx="2553.89" cy="1074.22" r="4" stroke="rgb(255,0,144)" stroke-width="2" fill="none"></circle>
<circle cx="6508.79" cy="597.223" r="4" stroke="rgb(255,0,144)" stroke-width="2" fill="none"></circle>
<circle cx="1213.65" cy="1047.43" r="4" stroke="rgb(0,25,255)" stroke-width="2" fill="none"></circle>
<circle cx="4902.28" cy="1210.12" r="4" stroke="rgb(0,25,255)" stroke-width="2" fill="none"></circle>
<circle cx="986.555" cy="1354.24" r="4" stroke="rgb(110,255,0)" stroke-width="2" fill="none"></circle>
<circle cx="4909.39" cy="1248.93" r="4" stroke="rgb(110,255,0)" stroke-width="2" fill="none"></circle>
<circle cx="2120.96" cy="1515.03" r="4" stroke="rgb(0,255,50)" stroke-width="2" fill="none"></circle>
<circle cx="5026.51" cy="2238.29" r="4" stroke="rgb(0,255,50)" stroke-width="2" fill="none"></circle>
<circle cx="1992" cy="447.443" r="4" stroke="rgb(0,153,255)" stroke-width="2" fill="none"></circle>
<circle cx="5088.36" cy="2097.37" r="4" stroke="rgb(0,153,255)" stroke-width="2" fill="none"></circle>
<circle cx="1546.84" cy="974.052" r="4" stroke="rgb(0,255,165)" stroke-width="2" fill="none"></circle>
<circle cx="6656.06" cy="1454.66" r="4" stroke="rgb(0,255,165)" stroke-width="2" fill="none"></circle>
<circle cx="1501.73" cy="1150.15" r="4" stroke="rgb(80,255,0)" stroke-width="2" fill="none"></circle>
<circle cx="4593.15" cy="694.865" r="4" stroke="rgb(80,255,0)" stroke-width="2" fill="none"></circle>
<circle cx="1862.08" cy="741.357" r="4" stroke="rgb(191,0,255)" stroke-width="2" fill="none"></circle>
<circle cx="6272.06" cy="1231.79" r="4" stroke="rgb(191,0,255)" stroke-width="2" fill="none"></circle>
<circle cx="1983.02" cy="464.736" r="4" stroke="rgb(0,123,255)" stroke-width="2" fill="none"></circle>
<circle cx="5711.74" cy="2650.93" r="4" stroke="rgb(0,123,255)" stroke-width="2" fill="none"></circle>
<circle cx="2385.9" cy="1572.88" r="4" stroke="rgb(255,0,59)" stroke-width="2" fill="none"></circle>
<circle cx="5040.15" cy="1725.93" r="4" stroke="rgb(255,0,59)" stroke-width="2" fill="none"></circle>
<circle cx="1474.67" cy="275.435" r="4" stroke="rgb(0,255,16)" stroke-width="2" fill="none"></circle>
<circle cx="5461.7" cy="1909.43" r="4" stroke="rgb(0,255,16)" stroke-width="2" fill="none"></circle>
</svg>