<?xml version="1.0" standalone="yes"?>
<!-- SVG graphic -->
<svg xmlns='http://www.w3.org/2000/svg' xmlns:xlink='http://www.w3.org/1999/xlink'
width="8064px" height="3024px" preserveAspectRatio="xMinYMin meet" viewBox="0 0 8064 3024" version="1.1">
<image x="0" y="0" width="4032px" height="3024px" opacity="1" xlink:href="/home/jeong/Code/2D-to-3D-Modeling-using-AI/Make3D/Image/20200227_180716.jpg"/>
<image x="4032" y="0" width="4032px" height="3024px" opacity="1" xlink:href="/home/jeong/Code/2D-to-3D-Modeling-using-AI/Make3D/Image/20200227_180744.jpg"/>
<polyline points="2701.9,1238.99,4829.66,30.052" stroke="rgb(144,255,0)" stroke-width="2" fill="none"></polyline>
<polyline points="1625.03,206.058,5559.04,2568.25" stroke="rgb(0,255,76)" stroke-width="2" fill="none"></polyline>
<polyline points="2052.75,766.601,5762.53,724.298" stroke="rgb(255,208,0)" stroke-width="2" fill="none"></polyline>
<polyline points="2309.84,641.047,5539.83,451.546" stroke="rgb(255,148,0)" stroke-width="2" fill="none"></polyline>
<polyline points="2309.84,641.047,5539.83,451.546" stroke="rgb(255,204,0)" stroke-width="2" fill="none"></polyline>
<polyline points="1026.37,1670.14,6331.12,754.908" stroke="rgb(255,0,85)" stroke-width="2" fill="none"></polyline>
<polyline points="1625.03,206.058,4929.11,729.386" stroke="rgb(0,255,101)" stroke-width="2" fill="none"></polyline>
<polyline points="1339.29,1097.98,5751.03,767.668" stroke="rgb(38,255,0)" stroke-width="2" fill="none"></polyline>
<polyline points="2119.72,1106.45,5999.95,1921.16" stroke="rgb(33,255,0)" stroke-width="2" fill="none"></polyline>
<polyline points="2025.06,326.656,5176.27,147.494" stroke="rgb(0,76,255)" stroke-width="2" fill="none"></polyline>
<polyline points="1606.22,288.874,6559.02,165.883" stroke="rgb(0,255,178)" stroke-width="2" fill="none"></polyline>
<polyline points="2701.9,1238.99,4777.79,65.9142" stroke="rgb(0,255,114)" stroke-width="2" fill="none"></polyline>
<polyline points="1851.64,936.194,6085.24,1915.52" stroke="rgb(63,255,0)" stroke-width="2" fill="none"></polyline>
<polyline points="2136.15,441.587,5127.82,799.983" stroke="rgb(170,0,255)" stroke-width="2" fill="none"></polyline>
<polyline points="1403.3,694.669,5660.32,807.409" stroke="rgb(255,144,0)" stroke-width="2" fill="none"></polyline>
<polyline points="1161.94,1856.18,5034.19,1983.91" stroke="rgb(255,0,165)" stroke-width="2" fill="none"></polyline>
<polyline points="1166.87,1410.71,4700.27,819.828" stroke="rgb(110,255,0)" stroke-width="2" fill="none"></polyline>
<polyline points="1403.3,694.669,5599.48,820.535" stroke="rgb(131,0,255)" stroke-width="2" fill="none"></polyline>
<polyline points="2113.89,1773.01,5595.68,825.848" stroke="rgb(0,237,255)" stroke-width="2" fill="none"></polyline>
<polyline points="1564.92,1718.09,5287.06,270.268" stroke="rgb(255,221,0)" stroke-width="2" fill="none"></polyline>
<polyline points="1237.91,1047.7,4978.2,807.334" stroke="rgb(0,89,255)" stroke-width="2" fill="none"></polyline>
<polyline points="692,1829.32,5611.24,813.325" stroke="rgb(0,255,220)" stroke-width="2" fill="none"></polyline>
<polyline points="1891.15,1557.5,5759.11,270.186" stroke="rgb(0,153,255)" stroke-width="2" fill="none"></polyline>
<polyline points="1176.42,1127.19,5212.35,1534.81" stroke="rgb(255,0,12)" stroke-width="2" fill="none"></polyline>
<polyline points="2328.45,1709.7,6194.24,292.103" stroke="rgb(76,255,0)" stroke-width="2" fill="none"></polyline>
<polyline points="1346.71,1104.61,5897.09,856.309" stroke="rgb(0,255,174)" stroke-width="2" fill="none"></polyline>
<polyline points="1383.75,768.936,5546.12,907.665" stroke="rgb(127,0,255)" stroke-width="2" fill="none"></polyline>
<polyline points="2240.92,923.654,5836.44,564.737" stroke="rgb(0,255,161)" stroke-width="2" fill="none"></polyline>
<polyline points="618.477,2016.46,5979.13,887.262" stroke="rgb(0,76,255)" stroke-width="2" fill="none"></polyline>
<polyline points="1302.6,1163.65,5443.89,360.053" stroke="rgb(255,216,0)" stroke-width="2" fill="none"></polyline>
<polyline points="2250.76,673.202,5744.69,333.187" stroke="rgb(255,0,29)" stroke-width="2" fill="none"></polyline>
<polyline points="1312.25,848.064,5063.47,908.933" stroke="rgb(255,0,221)" stroke-width="2" fill="none"></polyline>
<polyline points="2097.02,1103.48,5853.84,594.278" stroke="rgb(0,216,255)" stroke-width="2" fill="none"></polyline>
<polyline points="1974.16,557.279,5647.84,2179.48" stroke="rgb(255,178,0)" stroke-width="2" fill="none"></polyline>
<polyline points="1720.72,216.001,5932.52,391.983" stroke="rgb(0,106,255)" stroke-width="2" fill="none"></polyline>
<polyline points="2311.13,740.497,6705.08,2066.37" stroke="rgb(0,12,255)" stroke-width="2" fill="none"></polyline>
<polyline points="1780.45,534.113,5108.82,1644.45" stroke="rgb(255,93,0)" stroke-width="2" fill="none"></polyline>
<polyline points="1335.73,776.163,6181.22,986.081" stroke="rgb(0,33,255)" stroke-width="2" fill="none"></polyline>
<polyline points="1780.45,534.113,5108.82,1644.45" stroke="rgb(0,85,255)" stroke-width="2" fill="none"></polyline>
<polyline points="1284.05,932.101,5082.93,1012.01" stroke="rgb(255,25,0)" stroke-width="2" fill="none"></polyline>
<polyline points="1206.29,1073.73,5025.16,628.762" stroke="rgb(110,255,0)" stroke-width="2" fill="none"></polyline>
<polyline points="2069.83,911.601,5316.95,441.866" stroke="rgb(255,93,0)" stroke-width="2" fill="none"></polyline>
<polyline points="2125.04,1187.46,5792.59,436.39" stroke="rgb(255,106,0)" stroke-width="2" fill="none"></polyline>
<polyline points="1207.98,1091.95,5049.42,1020.16" stroke="rgb(208,255,0)" stroke-width="2" fill="none"></polyline>
<polyline points="1720.72,216.001,4566.42,456.037" stroke="rgb(0,255,229)" stroke-width="2" fill="none"></polyline>
<polyline points="2113.89,1773.01,7117.64,480.899" stroke="rgb(221,0,255)" stroke-width="2" fill="none"></polyline>
<polyline points="1910.51,724.178,5729.26,671.109" stroke="rgb(255,136,0)" stroke-width="2" fill="none"></polyline>
<polyline points="2113.89,1773.01,7109.5,483.083" stroke="rgb(118,0,255)" stroke-width="2" fill="none"></polyline>
<polyline points="1312.25,848.064,5137.93,1069.04" stroke="rgb(0,157,255)" stroke-width="2" fill="none"></polyline>
<polyline points="1312.25,848.064,5137.93,1069.04" stroke="rgb(135,255,0)" stroke-width="2" fill="none"></polyline>
<polyline points="2307.72,1709.31,5582.1,2398.21" stroke="rgb(255,0,169)" stroke-width="2" fill="none"></polyline>
<polyline points="1302.6,1163.65,5783.78,510.329" stroke="rgb(246,255,0)" stroke-width="2" fill="none"></polyline>
<polyline points="1319.86,826.516,5144.52,1099.73" stroke="rgb(85,0,255)" stroke-width="2" fill="none"></polyline>
<polyline points="1494.7,1321.28,5829.09,2404.41" stroke="rgb(255,153,0)" stroke-width="2" fill="none"></polyline>
<polyline points="2069.83,911.601,4953.05,511.97" stroke="rgb(221,0,255)" stroke-width="2" fill="none"></polyline>
<polyline points="1346.71,1104.61,4887.75,1105.61" stroke="rgb(0,25,255)" stroke-width="2" fill="none"></polyline>
<polyline points="2052.75,766.601,5602.56,739.888" stroke="rgb(216,255,0)" stroke-width="2" fill="none"></polyline>
<polyline points="2309.84,641.047,5632.34,538.537" stroke="rgb(0,161,255)" stroke-width="2" fill="none"></polyline>
<polyline points="1950.79,1209.08,5823.23,507.137" stroke="rgb(106,0,255)" stroke-width="2" fill="none"></polyline>
<polyline points="1950.79,1209.08,5823.23,507.137" stroke="rgb(0,255,182)" stroke-width="2" fill="none"></polyline>
<polyline points="1298.86,1644.84,5545.92,2492.68" stroke="rgb(0,255,21)" stroke-width="2" fill="none"></polyline>
<polyline points="1176.42,1127.19,5130.63,1173.73" stroke="rgb(76,0,255)" stroke-width="2" fill="none"></polyline>
<polyline points="1327.02,837.32,5116.75,1166.69" stroke="rgb(255,0,72)" stroke-width="2" fill="none"></polyline>
<polyline points="1441.54,1810.79,5043.29,1180.28" stroke="rgb(255,0,195)" stroke-width="2" fill="none"></polyline>
<polyline points="1038.81,1350.08,5025.22,1222.61" stroke="rgb(255,0,250)" stroke-width="2" fill="none"></polyline>
<polyline points="2250.76,673.202,5850.93,586.323" stroke="rgb(0,174,255)" stroke-width="2" fill="none"></polyline>
<polyline points="2478.66,1318.98,5671.72,1239.54" stroke="rgb(0,208,255)" stroke-width="2" fill="none"></polyline>
<polyline points="1403.3,694.669,5767.96,589.07" stroke="rgb(0,191,255)" stroke-width="2" fill="none"></polyline>
<polyline points="694.314,1822.76,5707.27,592.482" stroke="rgb(208,255,0)" stroke-width="2" fill="none"></polyline>
<polyline points="1311.02,1908.86,5005.55,594.493" stroke="rgb(255,216,0)" stroke-width="2" fill="none"></polyline>
<polyline points="1808.63,907.911,7255.48,833.567" stroke="rgb(195,255,0)" stroke-width="2" fill="none"></polyline>
<polyline points="2136.15,441.587,5015.85,603.668" stroke="rgb(0,255,191)" stroke-width="2" fill="none"></polyline>
<polyline points="1346.71,1104.61,5921.33,854.807" stroke="rgb(255,0,233)" stroke-width="2" fill="none"></polyline>
<polyline points="1223.53,1034.9,5153.52,885.924" stroke="rgb(89,255,0)" stroke-width="2" fill="none"></polyline>
<polyline points="1276.92,899.873,5131.47,890.055" stroke="rgb(51,255,0)" stroke-width="2" fill="none"></polyline>
<polyline points="1276.92,899.873,5131.47,890.055" stroke="rgb(4,255,0)" stroke-width="2" fill="none"></polyline>
<polyline points="1631.11,900.45,4934.87,628.881" stroke="rgb(255,131,0)" stroke-width="2" fill="none"></polyline>
<polyline points="1457.64,1814.87,5116.57,907.419" stroke="rgb(255,55,0)" stroke-width="2" fill="none"></polyline>
<polyline points="1606.22,288.874,4659.54,655.427" stroke="rgb(80,0,255)" stroke-width="2" fill="none"></polyline>
<polyline points="1382.52,1713.91,5738.31,951.471" stroke="rgb(0,21,255)" stroke-width="2" fill="none"></polyline>
<polyline points="833.846,1648.22,5060.53,674.952" stroke="rgb(255,0,114)" stroke-width="2" fill="none"></polyline>
<polyline points="2700.82,1250.05,5195.08,2642.44" stroke="rgb(0,85,255)" stroke-width="2" fill="none"></polyline>
<polyline points="1606.22,288.874,5839.75,2696.65" stroke="rgb(0,255,208)" stroke-width="2" fill="none"></polyline>
<polyline points="2392.63,1226.27,5918.86,1422.92" stroke="rgb(59,255,0)" stroke-width="2" fill="none"></polyline>
<polyline points="1207.09,1998.84,5023.94,685.612" stroke="rgb(0,255,33)" stroke-width="2" fill="none"></polyline>
<polyline points="1207.09,1998.84,5023.94,685.612" stroke="rgb(80,255,0)" stroke-width="2" fill="none"></polyline>
<polyline points="1343.38,1011.08,4929.44,1007.6" stroke="rgb(255,0,85)" stroke-width="2" fill="none"></polyline>
<polyline points="945.054,1980.14,4754.62,185.788" stroke="rgb(0,178,255)" stroke-width="2" fill="none"></polyline>
<polyline points="1327.02,837.32,5128.29,1098.47" stroke="rgb(0,255,237)" stroke-width="2" fill="none"></polyline>
<polyline points="1327.02,837.32,5128.29,1098.47" stroke="rgb(21,0,255)" stroke-width="2" fill="none"></polyline>
<polyline points="2113.89,1773.01,5731.99,730.084" stroke="rgb(255,4,0)" stroke-width="2" fill="none"></polyline>
<polyline points="2113.89,1773.01,5557.1,738.697" stroke="rgb(255,0,250)" stroke-width="2" fill="none"></polyline>
<polyline points="1086.01,1187.79,5049.28,1169.84" stroke="rgb(0,255,101)" stroke-width="2" fill="none"></polyline>
<polyline points="1889.85,776.663,6393.89,282.353" stroke="rgb(255,0,63)" stroke-width="2" fill="none"></polyline>
<polyline points="962.555,1946.63,6948.35,1326.31" stroke="rgb(67,0,255)" stroke-width="2" fill="none"></polyline>
<polyline points="1891.15,1557.5,5747.58,379.915" stroke="rgb(255,0,182)" stroke-width="2" fill="none"></polyline>
<polyline points="2696.39,438.422,6575.9,2517.76" stroke="rgb(255,238,0)" stroke-width="2" fill="none"></polyline>
<polyline points="1830.98,1471.43,5994.88,903.176" stroke="rgb(255,0,174)" stroke-width="2" fill="none"></polyline>
<polyline points="1830.98,1471.43,5917.87,911.556" stroke="rgb(255,102,0)" stroke-width="2" fill="none"></polyline>
<polyline points="1606.22,288.874,6273.38,120.017" stroke="rgb(0,255,29)" stroke-width="2" fill="none"></polyline>
<polyline points="1306.82,843.121,5028.91,976.303" stroke="rgb(12,0,255)" stroke-width="2" fill="none"></polyline>
<polyline points="2136.15,441.587,5091.94,178.262" stroke="rgb(93,255,0)" stroke-width="2" fill="none"></polyline>
<polyline points="1474.67,275.435,5818.91,237.282" stroke="rgb(0,255,186)" stroke-width="2" fill="none"></polyline>
<polyline points="1830.98,1471.43,5753.23,932.249" stroke="rgb(0,221,255)" stroke-width="2" fill="none"></polyline>
<polyline points="2052.75,766.601,5583.18,648.613" stroke="rgb(212,255,0)" stroke-width="2" fill="none"></polyline>
<polyline points="1030.91,1963.13,5948.52,2669.89" stroke="rgb(135,0,255)" stroke-width="2" fill="none"></polyline>
<polyline points="1973.6,930.398,5728.45,279.876" stroke="rgb(0,255,254)" stroke-width="2" fill="none"></polyline>
<polyline points="1315.68,867.902,5084.68,736.676" stroke="rgb(255,0,114)" stroke-width="2" fill="none"></polyline>
<polyline points="1327.02,837.32,5202.8,1198.09" stroke="rgb(0,255,157)" stroke-width="2" fill="none"></polyline>
<polyline points="1889.55,807.838,6553.57,284.957" stroke="rgb(174,255,0)" stroke-width="2" fill="none"></polyline>
<polyline points="1419.88,1757.44,5127.61,1876.55" stroke="rgb(169,255,0)" stroke-width="2" fill="none"></polyline>
<polyline points="962.555,1946.63,6953.3,1327.78" stroke="rgb(0,255,46)" stroke-width="2" fill="none"></polyline>
<polyline points="1891.15,1557.5,5563.88,788.786" stroke="rgb(0,255,216)" stroke-width="2" fill="none"></polyline>
<polyline points="968.615,1397.65,6654.12,787.944" stroke="rgb(42,0,255)" stroke-width="2" fill="none"></polyline>
<polyline points="964.224,1410.96,5143.57,1901.91" stroke="rgb(0,12,255)" stroke-width="2" fill="none"></polyline>
<polyline points="1199.39,1006.27,5104.27,823.061" stroke="rgb(0,255,220)" stroke-width="2" fill="none"></polyline>
<polyline points="1199.39,1006.27,5104.27,823.061" stroke="rgb(255,0,38)" stroke-width="2" fill="none"></polyline>
<polyline points="1205.44,1004.73,5103.56,834.882" stroke="rgb(131,255,0)" stroke-width="2" fill="none"></polyline>
<polyline points="1164.64,1348.74,5028.12,1969.15" stroke="rgb(255,42,0)" stroke-width="2" fill="none"></polyline>
<polyline points="1865.24,816.455,5743.65,325.195" stroke="rgb(255,165,0)" stroke-width="2" fill="none"></polyline>
<polyline points="1164.64,1348.74,5028.12,1969.15" stroke="rgb(255,0,106)" stroke-width="2" fill="none"></polyline>
<polyline points="1718.64,211.137,4945.49,1971.08" stroke="rgb(12,0,255)" stroke-width="2" fill="none"></polyline>
<polyline points="1930.14,35.9677,6044.92,1981.08" stroke="rgb(255,0,80)" stroke-width="2" fill="none"></polyline>
<polyline points="1865.02,822.998,5756.74,333.611" stroke="rgb(255,0,38)" stroke-width="2" fill="none"></polyline>
<polyline points="2115.56,818.117,5608.43,1597.55" stroke="rgb(84,255,0)" stroke-width="2" fill="none"></polyline>
<polyline points="1586.26,214.309,5057.33,1625.67" stroke="rgb(46,255,0)" stroke-width="2" fill="none"></polyline>
<polyline points="2095.74,715.039,5679.38,537.207" stroke="rgb(0,255,254)" stroke-width="2" fill="none"></polyline>
<polyline points="2302.25,598.902,5669.35,545.742" stroke="rgb(0,255,152)" stroke-width="2" fill="none"></polyline>
<polyline points="2270.22,939.504,5655.85,380.666" stroke="rgb(221,255,0)" stroke-width="2" fill="none"></polyline>
<polyline points="1992.57,1263.75,5470.26,431.569" stroke="rgb(0,153,255)" stroke-width="2" fill="none"></polyline>
<polyline points="1959.56,422.712,5144.64,1794.47" stroke="rgb(182,0,255)" stroke-width="2" fill="none"></polyline>
<polyline points="1250.76,1000.36,5030.29,1068.05" stroke="rgb(0,242,255)" stroke-width="2" fill="none"></polyline>
<polyline points="1080.63,1201.68,5037.2,1154.34" stroke="rgb(0,255,233)" stroke-width="2" fill="none"></polyline>
<polyline points="1993.97,1803.3,5918.93,472.173" stroke="rgb(255,0,174)" stroke-width="2" fill="none"></polyline>
<polyline points="2270.22,939.504,5552.1,560.622" stroke="rgb(255,51,0)" stroke-width="2" fill="none"></polyline>
<polyline points="2252.76,936.368,5499.34,569.159" stroke="rgb(12,255,0)" stroke-width="2" fill="none"></polyline>
<polyline points="1236.34,1068.75,4949.04,792.397" stroke="rgb(67,255,0)" stroke-width="2" fill="none"></polyline>
<polyline points="1201.23,997.424,5120.27,832.663" stroke="rgb(237,255,0)" stroke-width="2" fill="none"></polyline>
<polyline points="1635.93,1501.98,5504.49,667.992" stroke="rgb(127,255,0)" stroke-width="2" fill="none"></polyline>
<polyline points="1346.71,1104.61,4752.33,670.387" stroke="rgb(89,0,255)" stroke-width="2" fill="none"></polyline>
<polyline points="1270.34,897.173,5141.69,884.403" stroke="rgb(255,63,0)" stroke-width="2" fill="none"></polyline>
<polyline points="1084.1,1179.96,5062.18,1170.77" stroke="rgb(0,255,216)" stroke-width="2" fill="none"></polyline>
<polyline points="1492.46,1296.19,4923.92,431.219" stroke="rgb(102,0,255)" stroke-width="2" fill="none"></polyline>
<polyline points="2085.84,685.513,5160,1436.55" stroke="rgb(255,250,0)" stroke-width="2" fill="none"></polyline>
<polyline points="1992,447.443,5181.36,1802.7" stroke="rgb(225,0,255)" stroke-width="2" fill="none"></polyline>
<polyline points="1874.77,922.047,5789.02,561.694" stroke="rgb(255,55,0)" stroke-width="2" fill="none"></polyline>
<polyline points="1021.9,1314.57,6028.93,1955.65" stroke="rgb(0,38,255)" stroke-width="2" fill="none"></polyline>
<polyline points="2700.33,478.474,6531.36,889.187" stroke="rgb(0,255,152)" stroke-width="2" fill="none"></polyline>
<polyline points="1685.04,1315.85,5480.97,338.574" stroke="rgb(72,255,0)" stroke-width="2" fill="none"></polyline>
<polyline points="1315.87,1227.52,5529.15,1782.02" stroke="rgb(29,255,0)" stroke-width="2" fill="none"></polyline>
<polyline points="1511.24,264.596,4345.51,517.915" stroke="rgb(0,187,255)" stroke-width="2" fill="none"></polyline>
<polyline points="1587.17,165.751,5411.26,1348.68" stroke="rgb(255,0,212)" stroke-width="2" fill="none"></polyline>
<circle cx="2701.9" cy="1238.99" r="4" stroke="rgb(144,255,0)" stroke-width="2" fill="none"></circle>
<circle cx="4829.66" cy="30.052" r="4" stroke="rgb(144,255,0)" stroke-width="2" fill="none"></circle>
<circle cx="1625.03" cy="206.058" r="4" stroke="rgb(0,255,76)" stroke-width="2" fill="none"></circle>
<circle cx="5559.04" cy="2568.25" r="4" stroke="rgb(0,255,76)" stroke-width="2" fill="none"></circle>
<circle cx="2052.75" cy="766.601" r="4" stroke="rgb(255,208,0)" stroke-width="2" fill="none"></circle>
<circle cx="5762.53" cy="724.298" r="4" stroke="rgb(255,208,0)" stroke-width="2" fill="none"></circle>
<circle cx="2309.84" cy="641.047" r="4" stroke="rgb(255,148,0)" stroke-width="2" fill="none"></circle>
<circle cx="5539.83" cy="451.546" r="4" stroke="rgb(255,148,0)" stroke-width="2" fill="none"></circle>
<circle cx="2309.84" cy="641.047" r="4" stroke="rgb(255,204,0)" stroke-width="2" fill="none"></circle>
<circle cx="5539.83" cy="451.546" r="4" stroke="rgb(255,204,0)" stroke-width="2" fill="none"></circle>
<circle cx="1026.37" cy="1670.14" r="4" stroke="rgb(255,0,85)" stroke-width="2" fill="none"></circle>
<circle cx="6331.12" cy="754.908" r="4" stroke="rgb(255,0,85)" stroke-width="2" fill="none"></circle>
<circle cx="1625.03" cy="206.058" r="4" stroke="rgb(0,255,101)" stroke-width="2" fill="none"></circle>
<circle cx="4929.11" cy="729.386" r="4" stroke="rgb(0,255,101)" stroke-width="2" fill="none"></circle>
<circle cx="1339.29" cy="1097.98" r="4" stroke="rgb(38,255,0)" stroke-width="2" fill="none"></circle>
<circle cx="5751.03" cy="767.668" r="4" stroke="rgb(38,255,0)" stroke-width="2" fill="none"></circle>
<circle cx="2119.72" cy="1106.45" r="4" stroke="rgb(33,255,0)" stroke-width="2" fill="none"></circle>
<circle cx="5999.95" cy="1921.16" r="4" stroke="rgb(33,255,0)" stroke-width="2" fill="none"></circle>
<circle cx="2025.06" cy="326.656" r="4" stroke="rgb(0,76,255)" stroke-width="2" fill="none"></circle>
<circle cx="5176.27" cy="147.494" r="4" stroke="rgb(0,76,255)" stroke-width="2" fill="none"></circle>
<circle cx="1606.22" cy="288.874" r="4" stroke="rgb(0,255,178)" stroke-width="2" fill="none"></circle>
<circle cx="6559.02" cy="165.883" r="4" stroke="rgb(0,255,178)" stroke-width="2" fill="none"></circle>
<circle cx="2701.9" cy="1238.99" r="4" stroke="rgb(0,255,114)" stroke-width="2" fill="none"></circle>
<circle cx="4777.79" cy="65.9142" r="4" stroke="rgb(0,255,114)" stroke-width="2" fill="none"></circle>
<circle cx="1851.64" cy="936.194" r="4" stroke="rgb(63,255,0)" stroke-width="2" fill="none"></circle>
<circle cx="6085.24" cy="1915.52" r="4" stroke="rgb(63,255,0)" stroke-width="2" fill="none"></circle>
<circle cx="2136.15" cy="441.587" r="4" stroke="rgb(170,0,255)" stroke-width="2" fill="none"></circle>
<circle cx="5127.82" cy="799.983" r="4" stroke="rgb(170,0,255)" stroke-width="2" fill="none"></circle>
<circle cx="1403.3" cy="694.669" r="4" stroke="rgb(255,144,0)" stroke-width="2" fill="none"></circle>
<circle cx="5660.32" cy="807.409" r="4" stroke="rgb(255,144,0)" stroke-width="2" fill="none"></circle>
<circle cx="1161.94" cy="1856.18" r="4" stroke="rgb(255,0,165)" stroke-width="2" fill="none"></circle>
<circle cx="5034.19" cy="1983.91" r="4" stroke="rgb(255,0,165)" stroke-width="2" fill="none"></circle>
<circle cx="1166.87" cy="1410.71" r="4" stroke="rgb(110,255,0)" stroke-width="2" fill="none"></circle>
<circle cx="4700.27" cy="819.828" r="4" stroke="rgb(110,255,0)" stroke-width="2" fill="none"></circle>
<circle cx="1403.3" cy="694.669" r="4" stroke="rgb(131,0,255)" stroke-width="2" fill="none"></circle>
<circle cx="5599.48" cy="820.535" r="4" stroke="rgb(131,0,255)" stroke-width="2" fill="none"></circle>
<circle cx="2113.89" cy="1773.01" r="4" stroke="rgb(0,237,255)" stroke-width="2" fill="none"></circle>
<circle cx="5595.68" cy="825.848" r="4" stroke="rgb(0,237,255)" stroke-width="2" fill="none"></circle>
<circle cx="1564.92" cy="1718.09" r="4" stroke="rgb(255,221,0)" stroke-width="2" fill="none"></circle>
<circle cx="5287.06" cy="270.268" r="4" stroke="rgb(255,221,0)" stroke-width="2" fill="none"></circle>
<circle cx="1237.91" cy="1047.7" r="4" stroke="rgb(0,89,255)" stroke-width="2" fill="none"></circle>
<circle cx="4978.2" cy="807.334" r="4" stroke="rgb(0,89,255)" stroke-width="2" fill="none"></circle>
<circle cx="692" cy="1829.32" r="4" stroke="rgb(0,255,220)" stroke-width="2" fill="none"></circle>
<circle cx="5611.24" cy="813.325" r="4" stroke="rgb(0,255,220)" stroke-width="2" fill="none"></circle>
<circle cx="1891.15" cy="1557.5" r="4" stroke="rgb(0,153,255)" stroke-width="2" fill="none"></circle>
<circle cx="5759.11" cy="270.186" r="4" stroke="rgb(0,153,255)" stroke-width="2" fill="none"></circle>
<circle cx="1176.42" cy="1127.19" r="4" stroke="rgb(255,0,12)" stroke-width="2" fill="none"></circle>
<circle cx="5212.35" cy="1534.81" r="4" stroke="rgb(255,0,12)" stroke-width="2" fill="none"></circle>
<circle cx="2328.45" cy="1709.7" r="4" stroke="rgb(76,255,0)" stroke-width="2" fill="none"></circle>
<circle cx="6194.24" cy="292.103" r="4" stroke="rgb(76,255,0)" stroke-width="2" fill="none"></circle>
<circle cx="1346.71" cy="1104.61" r="4" stroke="rgb(0,255,174)" stroke-width="2" fill="none"></circle>
<circle cx="5897.09" cy="856.309" r="4" stroke="rgb(0,255,174)" stroke-width="2" fill="none"></circle>
<circle cx="1383.75" cy="768.936" r="4" stroke="rgb(127,0,255)" stroke-width="2" fill="none"></circle>
<circle cx="5546.12" cy="907.665" r="4" stroke="rgb(127,0,255)" stroke-width="2" fill="none"></circle>
<circle cx="2240.92" cy="923.654" r="4" stroke="rgb(0,255,161)" stroke-width="2" fill="none"></circle>
<circle cx="5836.44" cy="564.737" r="4" stroke="rgb(0,255,161)" stroke-width="2" fill="none"></circle>
<circle cx="618.477" cy="2016.46" r="4" stroke="rgb(0,76,255)" stroke-width="2" fill="none"></circle>
<circle cx="5979.13" cy="887.262" r="4" stroke="rgb(0,76,255)" stroke-width="2" fill="none"></circle>
<circle cx="1302.6" cy="1163.65" r="4" stroke="rgb(255,216,0)" stroke-width="2" fill="none"></circle>
<circle cx="5443.89" cy="360.053" r="4" stroke="rgb(255,216,0)" stroke-width="2" fill="none"></circle>
<circle cx="2250.76" cy="673.202" r="4" stroke="rgb(255,0,29)" stroke-width="2" fill="none"></circle>
<circle cx="5744.69" cy="333.187" r="4" stroke="rgb(255,0,29)" stroke-width="2" fill="none"></circle>
<circle cx="1312.25" cy="848.064" r="4" stroke="rgb(255,0,221)" stroke-width="2" fill="none"></circle>
<circle cx="5063.47" cy="908.933" r="4" stroke="rgb(255,0,221)" stroke-width="2" fill="none"></circle>
<circle cx="2097.02" cy="1103.48" r="4" stroke="rgb(0,216,255)" stroke-width="2" fill="none"></circle>
<circle cx="5853.84" cy="594.278" r="4" stroke="rgb(0,216,255)" stroke-width="2" fill="none"></circle>
<circle cx="1974.16" cy="557.279" r="4" stroke="rgb(255,178,0)" stroke-width="2" fill="none"></circle>
<circle cx="5647.84" cy="2179.48" r="4" stroke="rgb(255,178,0)" stroke-width="2" fill="none"></circle>
<circle cx="1720.72" cy="216.001" r="4" stroke="rgb(0,106,255)" stroke-width="2" fill="none"></circle>
<circle cx="5932.52" cy="391.983" r="4" stroke="rgb(0,106,255)" stroke-width="2" fill="none"></circle>
<circle cx="2311.13" cy="740.497" r="4" stroke="rgb(0,12,255)" stroke-width="2" fill="none"></circle>
<circle cx="6705.08" cy="2066.37" r="4" stroke="rgb(0,12,255)" stroke-width="2" fill="none"></circle>
<circle cx="1780.45" cy="534.113" r="4" stroke="rgb(255,93,0)" stroke-width="2" fill="none"></circle>
<circle cx="5108.82" cy="1644.45" r="4" stroke="rgb(255,93,0)" stroke-width="2" fill="none"></circle>
<circle cx="1335.73" cy="776.163" r="4" stroke="rgb(0,33,255)" stroke-width="2" fill="none"></circle>
<circle cx="6181.22" cy="986.081" r="4" stroke="rgb(0,33,255)" stroke-width="2" fill="none"></circle>
<circle cx="1780.45" cy="534.113" r="4" stroke="rgb(0,85,255)" stroke-width="2" fill="none"></circle>
<circle cx="5108.82" cy="1644.45" r="4" stroke="rgb(0,85,255)" stroke-width="2" fill="none"></circle>
<circle cx="1284.05" cy="932.101" r="4" stroke="rgb(255,25,0)" stroke-width="2" fill="none"></circle>
<circle cx="5082.93" cy="1012.01" r="4" stroke="rgb(255,25,0)" stroke-width="2" fill="none"></circle>
<circle cx="1206.29" cy="1073.73" r="4" stroke="rgb(110,255,0)" stroke-width="2" fill="none"></circle>
<circle cx="5025.16" cy="628.762" r="4" stroke="rgb(110,255,0)" stroke-width="2" fill="none"></circle>
<circle cx="2069.83" cy="911.601" r="4" stroke="rgb(255,93,0)" stroke-width="2" fill="none"></circle>
<circle cx="5316.95" cy="441.866" r="4" stroke="rgb(255,93,0)" stroke-width="2" fill="none"></circle>
<circle cx="2125.04" cy="1187.46" r="4" stroke="rgb(255,106,0)" stroke-width="2" fill="none"></circle>
<circle cx="5792.59" cy="436.39" r="4" stroke="rgb(255,106,0)" stroke-width="2" fill="none"></circle>
<circle cx="1207.98" cy="1091.95" r="4" stroke="rgb(208,255,0)" stroke-width="2" fill="none"></circle>
<circle cx="5049.42" cy="1020.16" r="4" stroke="rgb(208,255,0)" stroke-width="2" fill="none"></circle>
<circle cx="1720.72" cy="216.001" r="4" stroke="rgb(0,255,229)" stroke-width="2" fill="none"></circle>
<circle cx="4566.42" cy="456.037" r="4" stroke="rgb(0,255,229)" stroke-width="2" fill="none"></circle>
<circle cx="2113.89" cy="1773.01" r="4" stroke="rgb(221,0,255)" stroke-width="2" fill="none"></circle>
<circle cx="7117.64" cy="480.899" r="4" stroke="rgb(221,0,255)" stroke-width="2" fill="none"></circle>
<circle cx="1910.51" cy="724.178" r="4" stroke="rgb(255,136,0)" stroke-width="2" fill="none"></circle>
<circle cx="5729.26" cy="671.109" r="4" stroke="rgb(255,136,0)" stroke-width="2" fill="none"></circle>
<circle cx="2113.89" cy="1773.01" r="4" stroke="rgb(118,0,255)" stroke-width="2" fill="none"></circle>
<circle cx="7109.5" cy="483.083" r="4" stroke="rgb(118,0,255)" stroke-width="2" fill="none"></circle>
<circle cx="1312.25" cy="848.064" r="4" stroke="rgb(0,157,255)" stroke-width="2" fill="none"></circle>
<circle cx="5137.93" cy="1069.04" r="4" stroke="rgb(0,157,255)" stroke-width="2" fill="none"></circle>
<circle cx="1312.25" cy="848.064" r="4" stroke="rgb(135,255,0)" stroke-width="2" fill="none"></circle>
<circle cx="5137.93" cy="1069.04" r="4" stroke="rgb(135,255,0)" stroke-width="2" fill="none"></circle>
<circle cx="2307.72" cy="1709.31" r="4" stroke="rgb(255,0,169)" stroke-width="2" fill="none"></circle>
<circle cx="5582.1" cy="2398.21" r="4" stroke="rgb(255,0,169)" stroke-width="2" fill="none"></circle>
<circle cx="1302.6" cy="1163.65" r="4" stroke="rgb(246,255,0)" stroke-width="2" fill="none"></circle>
<circle cx="5783.78" cy="510.329" r="4" stroke="rgb(246,255,0)" stroke-width="2" fill="none"></circle>
<circle cx="1319.86" cy="826.516" r="4" stroke="rgb(85,0,255)" stroke-width="2" fill="none"></circle>
<circle cx="5144.52" cy="1099.73" r="4" stroke="rgb(85,0,255)" stroke-width="2" fill="none"></circle>
<circle cx="1494.7" cy="1321.28" r="4" stroke="rgb(255,153,0)" stroke-width="2" fill="none"></circle>
<circle cx="5829.09" cy="2404.41" r="4" stroke="rgb(255,153,0)" stroke-width="2" fill="none"></circle>
<circle cx="2069.83" cy="911.601" r="4" stroke="rgb(221,0,255)" stroke-width="2" fill="none"></circle>
<circle cx="4953.05" cy="511.97" r="4" stroke="rgb(221,0,255)" stroke-width="2" fill="none"></circle>
<circle cx="1346.71" cy="1104.61" r="4" stroke="rgb(0,25,255)" stroke-width="2" fill="none"></circle>
<circle cx="4887.75" cy="1105.61" r="4" stroke="rgb(0,25,255)" stroke-width="2" fill="none"></circle>
<circle cx="2052.75" cy="766.601" r="4" stroke="rgb(216,255,0)" stroke-width="2" fill="none"></circle>
<circle cx="5602.56" cy="739.888" r="4" stroke="rgb(216,255,0)" stroke-width="2" fill="none"></circle>
<circle cx="2309.84" cy="641.047" r="4" stroke="rgb(0,161,255)" stroke-width="2" fill="none"></circle>
<circle cx="5632.34" cy="538.537" r="4" stroke="rgb(0,161,255)" stroke-width="2" fill="none"></circle>
<circle cx="1950.79" cy="1209.08" r="4" stroke="rgb(106,0,255)" stroke-width="2" fill="none"></circle>
<circle cx="5823.23" cy="507.137" r="4" stroke="rgb(106,0,255)" stroke-width="2" fill="none"></circle>
<circle cx="1950.79" cy="1209.08" r="4" stroke="rgb(0,255,182)" stroke-width="2" fill="none"></circle>
<circle cx="5823.23" cy="507.137" r="4" stroke="rgb(0,255,182)" stroke-width="2" fill="none"></circle>
<circle cx="1298.86" cy="1644.84" r="4" stroke="rgb(0,255,21)" stroke-width="2" fill="none"></circle>
<circle cx="5545.92" cy="2492.68" r="4" stroke="rgb(0,255,21)" stroke-width="2" fill="none"></circle>
<circle cx="1176.42" cy="1127.19" r="4" stroke="rgb(76,0,255)" stroke-width="2" fill="none"></circle>
<circle cx="5130.63" cy="1173.73" r="4" stroke="rgb(76,0,255)" stroke-width="2" fill="none"></circle>
<circle cx="1327.02" cy="837.32" r="4" stroke="rgb(255,0,72)" stroke-width="2" fill="none"></circle>
<circle cx="5116.75" cy="1166.69" r="4" stroke="rgb(255,0,72)" stroke-width="2" fill="none"></circle>
<circle cx="1441.54" cy="1810.79" r="4" stroke="rgb(255,0,195)" stroke-width="2" fill="none"></circle>
<circle cx="5043.29" cy="1180.28" r="4" stroke="rgb(255,0,195)" stroke-width="2" fill="none"></circle>
<circle cx="1038.81" cy="1350.08" r="4" stroke="rgb(255,0,250)" stroke-width="2" fill="none"></circle>
<circle cx="5025.22" cy="1222.61" r="4" stroke="rgb(255,0,250)" stroke-width="2" fill="none"></circle>
<circle cx="2250.76" cy="673.202" r="4" stroke="rgb(0,174,255)" stroke-width="2" fill="none"></circle>
<circle cx="5850.93" cy="586.323" r="4" stroke="rgb(0,174,255)" stroke-width="2" fill="none"></circle>
<circle cx="2478.66" cy="1318.98" r="4" stroke="rgb(0,208,255)" stroke-width="2" fill="none"></circle>
<circle cx="5671.72" cy="1239.54" r="4" stroke="rgb(0,208,255)" stroke-width="2" fill="none"></circle>
<circle cx="1403.3" cy="694.669" r="4" stroke="rgb(0,191,255)" stroke-width="2" fill="none"></circle>
<circle cx="5767.96" cy="589.07" r="4" stroke="rgb(0,191,255)" stroke-width="2" fill="none"></circle>
<circle cx="694.314" cy="1822.76" r="4" stroke="rgb(208,255,0)" stroke-width="2" fill="none"></circle>
<circle cx="5707.27" cy="592.482" r="4" stroke="rgb(208,255,0)" stroke-width="2" fill="none"></circle>
<circle cx="1311.02" cy="1908.86" r="4" stroke="rgb(255,216,0)" stroke-width="2" fill="none"></circle>
<circle cx="5005.55" cy="594.493" r="4" stroke="rgb(255,216,0)" stroke-width="2" fill="none"></circle>
<circle cx="1808.63" cy="907.911" r="4" stroke="rgb(195,255,0)" stroke-width="2" fill="none"></circle>
<circle cx="7255.48" cy="833.567" r="4" stroke="rgb(195,255,0)" stroke-width="2" fill="none"></circle>
<circle cx="2136.15" cy="441.587" r="4" stroke="rgb(0,255,191)" stroke-width="2" fill="none"></circle>
<circle cx="5015.85" cy="603.668" r="4" stroke="rgb(0,255,191)" stroke-width="2" fill="none"></circle>
<circle cx="1346.71" cy="1104.61" r="4" stroke="rgb(255,0,233)" stroke-width="2" fill="none"></circle>
<circle cx="5921.33" cy="854.807" r="4" stroke="rgb(255,0,233)" stroke-width="2" fill="none"></circle>
<circle cx="1223.53" cy="1034.9" r="4" stroke="rgb(89,255,0)" stroke-width="2" fill="none"></circle>
<circle cx="5153.52" cy="885.924" r="4" stroke="rgb(89,255,0)" stroke-width="2" fill="none"></circle>
<circle cx="1276.92" cy="899.873" r="4" stroke="rgb(51,255,0)" stroke-width="2" fill="none"></circle>
<circle cx="5131.47" cy="890.055" r="4" stroke="rgb(51,255,0)" stroke-width="2" fill="none"></circle>
<circle cx="1276.92" cy="899.873" r="4" stroke="rgb(4,255,0)" stroke-width="2" fill="none"></circle>
<circle cx="5131.47" cy="890.055" r="4" stroke="rgb(4,255,0)" stroke-width="2" fill="none"></circle>
<circle cx="1631.11" cy="900.45" r="4" stroke="rgb(255,131,0)" stroke-width="2" fill="none"></circle>
<circle cx="4934.87" cy="628.881" r="4" stroke="rgb(255,131,0)" stroke-width="2" fill="none"></circle>
<circle cx="1457.64" cy="1814.87" r="4" stroke="rgb(255,55,0)" stroke-width="2" fill="none"></circle>
<circle cx="5116.57" cy="907.419" r="4" stroke="rgb(255,55,0)" stroke-width="2" fill="none"></circle>
<circle cx="1606.22" cy="288.874" r="4" stroke="rgb(80,0,255)" stroke-width="2" fill="none"></circle>
<circle cx="4659.54" cy="655.427" r="4" stroke="rgb(80,0,255)" stroke-width="2" fill="none"></circle>
<circle cx="1382.52" cy="1713.91" r="4" stroke="rgb(0,21,255)" stroke-width="2" fill="none"></circle>
<circle cx="5738.31" cy="951.471" r="4" stroke="rgb(0,21,255)" stroke-width="2" fill="none"></circle>
<circle cx="833.846" cy="1648.22" r="4" stroke="rgb(255,0,114)" stroke-width="2" fill="none"></circle>
<circle cx="5060.53" cy="674.952" r="4" stroke="rgb(255,0,114)" stroke-width="2" fill="none"></circle>
<circle cx="2700.82" cy="1250.05" r="4" stroke="rgb(0,85,255)" stroke-width="2" fill="none"></circle>
<circle cx="5195.08" cy="2642.44" r="4" stroke="rgb(0,85,255)" stroke-width="2" fill="none"></circle>
<circle cx="1606.22" cy="288.874" r="4" stroke="rgb(0,255,208)" stroke-width="2" fill="none"></circle>
<circle cx="5839.75" cy="2696.65" r="4" stroke="rgb(0,255,208)" stroke-width="2" fill="none"></circle>
<circle cx="2392.63" cy="1226.27" r="4" stroke="rgb(59,255,0)" stroke-width="2" fill="none"></circle>
<circle cx="5918.86" cy="1422.92" r="4" stroke="rgb(59,255,0)" stroke-width="2" fill="none"></circle>
<circle cx="1207.09" cy="1998.84" r="4" stroke="rgb(0,255,33)" stroke-width="2" fill="none"></circle>
<circle cx="5023.94" cy="685.612" r="4" stroke="rgb(0,255,33)" stroke-width="2" fill="none"></circle>
<circle cx="1207.09" cy="1998.84" r="4" stroke="rgb(80,255,0)" stroke-width="2" fill="none"></circle>
<circle cx="5023.94" cy="685.612" r="4" stroke="rgb(80,255,0)" stroke-width="2" fill="none"></circle>
<circle cx="1343.38" cy="1011.08" r="4" stroke="rgb(255,0,85)" stroke-width="2" fill="none"></circle>
<circle cx="4929.44" cy="1007.6" r="4" stroke="rgb(255,0,85)" stroke-width="2" fill="none"></circle>
<circle cx="945.054" cy="1980.14" r="4" stroke="rgb(0,178,255)" stroke-width="2" fill="none"></circle>
<circle cx="4754.62" cy="185.788" r="4" stroke="rgb(0,178,255)" stroke-width="2" fill="none"></circle>
<circle cx="1327.02" cy="837.32" r="4" stroke="rgb(0,255,237)" stroke-width="2" fill="none"></circle>
<circle cx="5128.29" cy="1098.47" r="4" stroke="rgb(0,255,237)" stroke-width="2" fill="none"></circle>
<circle cx="1327.02" cy="837.32" r="4" stroke="rgb(21,0,255)" stroke-width="2" fill="none"></circle>
<circle cx="5128.29" cy="1098.47" r="4" stroke="rgb(21,0,255)" stroke-width="2" fill="none"></circle>
<circle cx="2113.89" cy="1773.01" r="4" stroke="rgb(255,4,0)" stroke-width="2" fill="none"></circle>
<circle cx="5731.99" cy="730.084" r="4" stroke="rgb(255,4,0)" stroke-width="2" fill="none"></circle>
<circle cx="2113.89" cy="1773.01" r="4" stroke="rgb(255,0,250)" stroke-width="2" fill="none"></circle>
<circle cx="5557.1" cy="738.697" r="4" stroke="rgb(255,0,250)" stroke-width="2" fill="none"></circle>
<circle cx="1086.01" cy="1187.79" r="4" stroke="rgb(0,255,101)" stroke-width="2" fill="none"></circle>
<circle cx="5049.28" cy="1169.84" r="4" stroke="rgb(0,255,101)" stroke-width="2" fill="none"></circle>
<circle cx="1889.85" cy="776.663" r="4" stroke="rgb(255,0,63)" stroke-width="2" fill="none"></circle>
<circle cx="6393.89" cy="282.353" r="4" stroke="rgb(255,0,63)" stroke-width="2" fill="none"></circle>
<circle cx="962.555" cy="1946.63" r="4" stroke="rgb(67,0,255)" stroke-width="2" fill="none"></circle>
<circle cx="6948.35" cy="1326.31" r="4" stroke="rgb(67,0,255)" stroke-width="2" fill="none"></circle>
<circle cx="1891.15" cy="1557.5" r="4" stroke="rgb(255,0,182)" stroke-width="2" fill="none"></circle>
<circle cx="5747.58" cy="379.915" r="4" stroke="rgb(255,0,182)" stroke-width="2" fill="none"></circle>
<circle cx="2696.39" cy="438.422" r="4" stroke="rgb(255,238,0)" stroke-width="2" fill="none"></circle>
<circle cx="6575.9" cy="2517.76" r="4" stroke="rgb(255,238,0)" stroke-width="2" fill="none"></circle>
<circle cx="1830.98" cy="1471.43" r="4" stroke="rgb(255,0,174)" stroke-width="2" fill="none"></circle>
<circle cx="5994.88" cy="903.176" r="4" stroke="rgb(255,0,174)" stroke-width="2" fill="none"></circle>
<circle cx="1830.98" cy="1471.43" r="4" stroke="rgb(255,102,0)" stroke-width="2" fill="none"></circle>
<circle cx="5917.87" cy="911.556" r="4" stroke="rgb(255,102,0)" stroke-width="2" fill="none"></circle>
<circle cx="1606.22" cy="288.874" r="4" stroke="rgb(0,255,29)" stroke-width="2" fill="none"></circle>
<circle cx="6273.38" cy="120.017" r="4" stroke="rgb(0,255,29)" stroke-width="2" fill="none"></circle>
<circle cx="1306.82" cy="843.121" r="4" stroke="rgb(12,0,255)" stroke-width="2" fill="none"></circle>
<circle cx="5028.91" cy="976.303" r="4" stroke="rgb(12,0,255)" stroke-width="2" fill="none"></circle>
<circle cx="2136.15" cy="441.587" r="4" stroke="rgb(93,255,0)" stroke-width="2" fill="none"></circle>
<circle cx="5091.94" cy="178.262" r="4" stroke="rgb(93,255,0)" stroke-width="2" fill="none"></circle>
<circle cx="1474.67" cy="275.435" r="4" stroke="rgb(0,255,186)" stroke-width="2" fill="none"></circle>
<circle cx="5818.91" cy="237.282" r="4" stroke="rgb(0,255,186)" stroke-width="2" fill="none"></circle>
<circle cx="1830.98" cy="1471.43" r="4" stroke="rgb(0,221,255)" stroke-width="2" fill="none"></circle>
<circle cx="5753.23" cy="932.249" r="4" stroke="rgb(0,221,255)" stroke-width="2" fill="none"></circle>
<circle cx="2052.75" cy="766.601" r="4" stroke="rgb(212,255,0)" stroke-width="2" fill="none"></circle>
<circle cx="5583.18" cy="648.613" r="4" stroke="rgb(212,255,0)" stroke-width="2" fill="none"></circle>
<circle cx="1030.91" cy="1963.13" r="4" stroke="rgb(135,0,255)" stroke-width="2" fill="none"></circle>
<circle cx="5948.52" cy="2669.89" r="4" stroke="rgb(135,0,255)" stroke-width="2" fill="none"></circle>
<circle cx="1973.6" cy="930.398" r="4" stroke="rgb(0,255,254)" stroke-width="2" fill="none"></circle>
<circle cx="5728.45" cy="279.876" r="4" stroke="rgb(0,255,254)" stroke-width="2" fill="none"></circle>
<circle cx="1315.68" cy="867.902" r="4" stroke="rgb(255,0,114)" stroke-width="2" fill="none"></circle>
<circle cx="5084.68" cy="736.676" r="4" stroke="rgb(255,0,114)" stroke-width="2" fill="none"></circle>
<circle cx="1327.02" cy="837.32" r="4" stroke="rgb(0,255,157)" stroke-width="2" fill="none"></circle>
<circle cx="5202.8" cy="1198.09" r="4" stroke="rgb(0,255,157)" stroke-width="2" fill="none"></circle>
<circle cx="1889.55" cy="807.838" r="4" stroke="rgb(174,255,0)" stroke-width="2" fill="none"></circle>
<circle cx="6553.57" cy="284.957" r="4" stroke="rgb(174,255,0)" stroke-width="2" fill="none"></circle>
<circle cx="1419.88" cy="1757.44" r="4" stroke="rgb(169,255,0)" stroke-width="2" fill="none"></circle>
<circle cx="5127.61" cy="1876.55" r="4" stroke="rgb(169,255,0)" stroke-width="2" fill="none"></circle>
<circle cx="962.555" cy="1946.63" r="4" stroke="rgb(0,255,46)" stroke-width="2" fill="none"></circle>
<circle cx="6953.3" cy="1327.78" r="4" stroke="rgb(0,255,46)" stroke-width="2" fill="none"></circle>
<circle cx="1891.15" cy="1557.5" r="4" stroke="rgb(0,255,216)" stroke-width="2" fill="none"></circle>
<circle cx="5563.88" cy="788.786" r="4" stroke="rgb(0,255,216)" stroke-width="2" fill="none"></circle>
<circle cx="968.615" cy="1397.65" r="4" stroke="rgb(42,0,255)" stroke-width="2" fill="none"></circle>
<circle cx="6654.12" cy="787.944" r="4" stroke="rgb(42,0,255)" stroke-width="2" fill="none"></circle>
<circle cx="964.224" cy="1410.96" r="4" stroke="rgb(0,12,255)" stroke-width="2" fill="none"></circle>
<circle cx="5143.57" cy="1901.91" r="4" stroke="rgb(0,12,255)" stroke-width="2" fill="none"></circle>
<circle cx="1199.39" cy="1006.27" r="4" stroke="rgb(0,255,220)" stroke-width="2" fill="none"></circle>
<circle cx="5104.27" cy="823.061" r="4" stroke="rgb(0,255,220)" stroke-width="2" fill="none"></circle>
<circle cx="1199.39" cy="1006.27" r="4" stroke="rgb(255,0,38)" stroke-width="2" fill="none"></circle>
<circle cx="5104.27" cy="823.061" r="4" stroke="rgb(255,0,38)" stroke-width="2" fill="none"></circle>
<circle cx="1205.44" cy="1004.73" r="4" stroke="rgb(131,255,0)" stroke-width="2" fill="none"></circle>
<circle cx="5103.56" cy="834.882" r="4" stroke="rgb(131,255,0)" stroke-width="2" fill="none"></circle>
<circle cx="1164.64" cy="1348.74" r="4" stroke="rgb(255,42,0)" stroke-width="2" fill="none"></circle>
<circle cx="5028.12" cy="1969.15" r="4" stroke="rgb(255,42,0)" stroke-width="2" fill="none"></circle>
<circle cx="1865.24" cy="816.455" r="4" stroke="rgb(255,165,0)" stroke-width="2" fill="none"></circle>
<circle cx="5743.65" cy="325.195" r="4" stroke="rgb(255,165,0)" stroke-width="2" fill="none"></circle>
<circle cx="1164.64" cy="1348.74" r="4" stroke="rgb(255,0,106)" stroke-width="2" fill="none"></circle>
<circle cx="5028.12" cy="1969.15" r="4" stroke="rgb(255,0,106)" stroke-width="2" fill="none"></circle>
<circle cx="1718.64" cy="211.137" r="4" stroke="rgb(12,0,255)" stroke-width="2" fill="none"></circle>
<circle cx="4945.49" cy="1971.08" r="4" stroke="rgb(12,0,255)" stroke-width="2" fill="none"></circle>
<circle cx="1930.14" cy="35.9677" r="4" stroke="rgb(255,0,80)" stroke-width="2" fill="none"></circle>
<circle cx="6044.92" cy="1981.08" r="4" stroke="rgb(255,0,80)" stroke-width="2" fill="none"></circle>
<circle cx="1865.02" cy="822.998" r="4" stroke="rgb(255,0,38)" stroke-width="2" fill="none"></circle>
<circle cx="5756.74" cy="333.611" r="4" stroke="rgb(255,0,38)" stroke-width="2" fill="none"></circle>
<circle cx="2115.56" cy="818.117" r="4" stroke="rgb(84,255,0)" stroke-width="2" fill="none"></circle>
<circle cx="5608.43" cy="1597.55" r="4" stroke="rgb(84,255,0)" stroke-width="2" fill="none"></circle>
<circle cx="1586.26" cy="214.309" r="4" stroke="rgb(46,255,0)" stroke-width="2" fill="none"></circle>
<circle cx="5057.33" cy="1625.67" r="4" stroke="rgb(46,255,0)" stroke-width="2" fill="none"></circle>
<circle cx="2095.74" cy="715.039" r="4" stroke="rgb(0,255,254)" stroke-width="2" fill="none"></circle>
<circle cx="5679.38" cy="537.207" r="4" stroke="rgb(0,255,254)" stroke-width="2" fill="none"></circle>
<circle cx="2302.25" cy="598.902" r="4" stroke="rgb(0,255,152)" stroke-width="2" fill="none"></circle>
<circle cx="5669.35" cy="545.742" r="4" stroke="rgb(0,255,152)" stroke-width="2" fill="none"></circle>
<circle cx="2270.22" cy="939.504" r="4" stroke="rgb(221,255,0)" stroke-width="2" fill="none"></circle>
<circle cx="5655.85" cy="380.666" r="4" stroke="rgb(221,255,0)" stroke-width="2" fill="none"></circle>
<circle cx="1992.57" cy="1263.75" r="4" stroke="rgb(0,153,255)" stroke-width="2" fill="none"></circle>
<circle cx="5470.26" cy="431.569" r="4" stroke="rgb(0,153,255)" stroke-width="2" fill="none"></circle>
<circle cx="1959.56" cy="422.712" r="4" stroke="rgb(182,0,255)" stroke-width="2" fill="none"></circle>
<circle cx="5144.64" cy="1794.47" r="4" stroke="rgb(182,0,255)" stroke-width="2" fill="none"></circle>
<circle cx="1250.76" cy="1000.36" r="4" stroke="rgb(0,242,255)" stroke-width="2" fill="none"></circle>
<circle cx="5030.29" cy="1068.05" r="4" stroke="rgb(0,242,255)" stroke-width="2" fill="none"></circle>
<circle cx="1080.63" cy="1201.68" r="4" stroke="rgb(0,255,233)" stroke-width="2" fill="none"></circle>
<circle cx="5037.2" cy="1154.34" r="4" stroke="rgb(0,255,233)" stroke-width="2" fill="none"></circle>
<circle cx="1993.97" cy="1803.3" r="4" stroke="rgb(255,0,174)" stroke-width="2" fill="none"></circle>
<circle cx="5918.93" cy="472.173" r="4" stroke="rgb(255,0,174)" stroke-width="2" fill="none"></circle>
<circle cx="2270.22" cy="939.504" r="4" stroke="rgb(255,51,0)" stroke-width="2" fill="none"></circle>
<circle cx="5552.1" cy="560.622" r="4" stroke="rgb(255,51,0)" stroke-width="2" fill="none"></circle>
<circle cx="2252.76" cy="936.368" r="4" stroke="rgb(12,255,0)" stroke-width="2" fill="none"></circle>
<circle cx="5499.34" cy="569.159" r="4" stroke="rgb(12,255,0)" stroke-width="2" fill="none"></circle>
<circle cx="1236.34" cy="1068.75" r="4" stroke="rgb(67,255,0)" stroke-width="2" fill="none"></circle>
<circle cx="4949.04" cy="792.397" r="4" stroke="rgb(67,255,0)" stroke-width="2" fill="none"></circle>
<circle cx="1201.23" cy="997.424" r="4" stroke="rgb(237,255,0)" stroke-width="2" fill="none"></circle>
<circle cx="5120.27" cy="832.663" r="4" stroke="rgb(237,255,0)" stroke-width="2" fill="none"></circle>
<circle cx="1635.93" cy="1501.98" r="4" stroke="rgb(127,255,0)" stroke-width="2" fill="none"></circle>
<circle cx="5504.49" cy="667.992" r="4" stroke="rgb(127,255,0)" stroke-width="2" fill="none"></circle>
<circle cx="1346.71" cy="1104.61" r="4" stroke="rgb(89,0,255)" stroke-width="2" fill="none"></circle>
<circle cx="4752.33" cy="670.387" r="4" stroke="rgb(89,0,255)" stroke-width="2" fill="none"></circle>
<circle cx="1270.34" cy="897.173" r="4" stroke="rgb(255,63,0)" stroke-width="2" fill="none"></circle>
<circle cx="5141.69" cy="884.403" r="4" stroke="rgb(255,63,0)" stroke-width="2" fill="none"></circle>
<circle cx="1084.1" cy="1179.96" r="4" stroke="rgb(0,255,216)" stroke-width="2" fill="none"></circle>
<circle cx="5062.18" cy="1170.77" r="4" stroke="rgb(0,255,216)" stroke-width="2" fill="none"></circle>
<circle cx="1492.46" cy="1296.19" r="4" stroke="rgb(102,0,255)" stroke-width="2" fill="none"></circle>
<circle cx="4923.92" cy="431.219" r="4" stroke="rgb(102,0,255)" stroke-width="2" fill="none"></circle>
<circle cx="2085.84" cy="685.513" r="4" stroke="rgb(255,250,0)" stroke-width="2" fill="none"></circle>
<circle cx="5160" cy="1436.55" r="4" stroke="rgb(255,250,0)" stroke-width="2" fill="none"></circle>
<circle cx="1992" cy="447.443" r="4" stroke="rgb(225,0,255)" stroke-width="2" fill="none"></circle>
<circle cx="5181.36" cy="1802.7" r="4" stroke="rgb(225,0,255)" stroke-width="2" fill="none"></circle>
<circle cx="1874.77" cy="922.047" r="4" stroke="rgb(255,55,0)" stroke-width="2" fill="none"></circle>
<circle cx="5789.02" cy="561.694" r="4" stroke="rgb(255,55,0)" stroke-width="2" fill="none"></circle>
<circle cx="1021.9" cy="1314.57" r="4" stroke="rgb(0,38,255)" stroke-width="2" fill="none"></circle>
<circle cx="6028.93" cy="1955.65" r="4" stroke="rgb(0,38,255)" stroke-width="2" fill="none"></circle>
<circle cx="2700.33" cy="478.474" r="4" stroke="rgb(0,255,152)" stroke-width="2" fill="none"></circle>
<circle cx="6531.36" cy="889.187" r="4" stroke="rgb(0,255,152)" stroke-width="2" fill="none"></circle>
<circle cx="1685.04" cy="1315.85" r="4" stroke="rgb(72,255,0)" stroke-width="2" fill="none"></circle>
<circle cx="5480.97" cy="338.574" r="4" stroke="rgb(72,255,0)" stroke-width="2" fill="none"></circle>
<circle cx="1315.87" cy="1227.52" r="4" stroke="rgb(29,255,0)" stroke-width="2" fill="none"></circle>
<circle cx="5529.15" cy="1782.02" r="4" stroke="rgb(29,255,0)" stroke-width="2" fill="none"></circle>
<circle cx="1511.24" cy="264.596" r="4" stroke="rgb(0,187,255)" stroke-width="2" fill="none"></circle>
<circle cx="4345.51" cy="517.915" r="4" stroke="rgb(0,187,255)" stroke-width="2" fill="none"></circle>
<circle cx="1587.17" cy="165.751" r="4" stroke="rgb(255,0,212)" stroke-width="2" fill="none"></circle>
<circle cx="5411.26" cy="1348.68" r="4" stroke="rgb(255,0,212)" stroke-width="2" fill="none"></circle>
</svg>