<?xml version="1.0" standalone="yes"?>
<!-- SVG graphic -->
<svg xmlns='http://www.w3.org/2000/svg' xmlns:xlink='http://www.w3.org/1999/xlink'
width="8064px" height="3024px" preserveAspectRatio="xMinYMin meet" viewBox="0 0 8064 3024" version="1.1">
<image x="0" y="0" width="4032px" height="3024px" opacity="1" xlink:href="/home/jeong/Code/2D-to-3D-Modeling-using-AI/Make3D/Image/20200227_180717.jpg"/>
<image x="4032" y="0" width="4032px" height="3024px" opacity="1" xlink:href="/home/jeong/Code/2D-to-3D-Modeling-using-AI/Make3D/Image/20200227_180735.jpg"/>
<polyline points="1681.01,1306.85,6309.32,828.61" stroke="rgb(255,0,63)" stroke-width="2" fill="none"></polyline>
<polyline points="1824.87,910.563,5817.61,2677.32" stroke="rgb(0,46,255)" stroke-width="2" fill="none"></polyline>
<polyline points="1403.12,906.387,6143.83,2103.19" stroke="rgb(123,255,0)" stroke-width="2" fill="none"></polyline>
<polyline points="1904.01,1061.42,5362.47,1959.69" stroke="rgb(255,165,0)" stroke-width="2" fill="none"></polyline>
<polyline points="1869.9,601.866,4688.5,2196.23" stroke="rgb(0,51,255)" stroke-width="2" fill="none"></polyline>
<polyline points="1403.12,906.387,6198.26,2206.23" stroke="rgb(255,55,0)" stroke-width="2" fill="none"></polyline>
<polyline points="1268.48,1134.82,6082.43,2125.3" stroke="rgb(255,42,0)" stroke-width="2" fill="none"></polyline>
<polyline points="1681.01,1306.85,6527.22,895.069" stroke="rgb(0,93,255)" stroke-width="2" fill="none"></polyline>
<polyline points="1125.53,1296.23,5911.76,932.59" stroke="rgb(255,178,0)" stroke-width="2" fill="none"></polyline>
<polyline points="1907.95,1805.36,5872.13,1780.47" stroke="rgb(255,46,0)" stroke-width="2" fill="none"></polyline>
<polyline points="2209.23,589.106,6717.6,1145.69" stroke="rgb(255,0,80)" stroke-width="2" fill="none"></polyline>
<polyline points="2101.45,500.57,6607.91,1090.71" stroke="rgb(255,97,0)" stroke-width="2" fill="none"></polyline>
<polyline points="2228.59,1818.89,6659.06,1019.63" stroke="rgb(0,114,255)" stroke-width="2" fill="none"></polyline>
<polyline points="1741.88,1794.29,6408.81,1047.07" stroke="rgb(255,0,242)" stroke-width="2" fill="none"></polyline>
<polyline points="1403.12,906.387,6437.76,1797.11" stroke="rgb(12,255,0)" stroke-width="2" fill="none"></polyline>
<polyline points="1403.12,906.387,6182.34,2190.6" stroke="rgb(0,255,208)" stroke-width="2" fill="none"></polyline>
<polyline points="1268.48,1134.82,5911.47,2330.86" stroke="rgb(255,0,233)" stroke-width="2" fill="none"></polyline>
<polyline points="1048.11,1476.52,6403.8,1308.48" stroke="rgb(0,255,246)" stroke-width="2" fill="none"></polyline>
<polyline points="1048.11,1476.52,6403.8,1308.48" stroke="rgb(242,255,0)" stroke-width="2" fill="none"></polyline>
<polyline points="2054.83,829.317,5449.88,2217.46" stroke="rgb(178,0,255)" stroke-width="2" fill="none"></polyline>
<polyline points="1681.01,1306.85,6017.73,1311.47" stroke="rgb(212,255,0)" stroke-width="2" fill="none"></polyline>
<polyline points="2117.15,943.38,6968.65,1814.42" stroke="rgb(255,0,80)" stroke-width="2" fill="none"></polyline>
<polyline points="1048.11,1476.52,6595.74,1592.3" stroke="rgb(0,255,186)" stroke-width="2" fill="none"></polyline>
<polyline points="2192.5,591.09,6337.26,2230.19" stroke="rgb(84,255,0)" stroke-width="2" fill="none"></polyline>
<polyline points="2101.45,500.57,6880.44,1236.96" stroke="rgb(233,255,0)" stroke-width="2" fill="none"></polyline>
<polyline points="2101.45,500.57,6909.29,1256.8" stroke="rgb(0,255,148)" stroke-width="2" fill="none"></polyline>
<polyline points="1673.43,994.693,5797.85,1304.94" stroke="rgb(255,0,229)" stroke-width="2" fill="none"></polyline>
<polyline points="2176.06,1565.96,6194.15,1305.29" stroke="rgb(255,0,131)" stroke-width="2" fill="none"></polyline>
<polyline points="2176.06,1565.96,6203.34,1305.89" stroke="rgb(255,0,221)" stroke-width="2" fill="none"></polyline>
<polyline points="1048.11,1476.52,6578.7,1614.87" stroke="rgb(255,42,0)" stroke-width="2" fill="none"></polyline>
<polyline points="2415.73,1347.74,5478.86,1832.96" stroke="rgb(135,255,0)" stroke-width="2" fill="none"></polyline>
<polyline points="2415.73,1347.74,5478.86,1832.96" stroke="rgb(0,255,195)" stroke-width="2" fill="none"></polyline>
<polyline points="2228.59,1818.89,6263.3,1284.21" stroke="rgb(0,4,255)" stroke-width="2" fill="none"></polyline>
<polyline points="1257.41,1054.89,6081.99,2255.25" stroke="rgb(255,216,0)" stroke-width="2" fill="none"></polyline>
<polyline points="1999.25,1489.78,5507.85,2399.21" stroke="rgb(0,148,255)" stroke-width="2" fill="none"></polyline>
<polyline points="1403.12,906.387,6121.22,2269.42" stroke="rgb(255,0,85)" stroke-width="2" fill="none"></polyline>
<polyline points="1726.11,1623.07,5532.14,2285.79" stroke="rgb(237,255,0)" stroke-width="2" fill="none"></polyline>
<polyline points="1427.71,1836.77,5924.49,2323.95" stroke="rgb(0,106,255)" stroke-width="2" fill="none"></polyline>
<polyline points="1979.06,1359.3,5645.85,1703.75" stroke="rgb(0,178,255)" stroke-width="2" fill="none"></polyline>
<polyline points="1374.1,953.163,6071.87,2328.75" stroke="rgb(59,255,0)" stroke-width="2" fill="none"></polyline>
<polyline points="1262.02,1285.35,6267.04,1707.94" stroke="rgb(0,55,255)" stroke-width="2" fill="none"></polyline>
<polyline points="1403.12,906.387,6144.45,2103.48" stroke="rgb(0,255,250)" stroke-width="2" fill="none"></polyline>
<polyline points="1641.13,1715.49,5545.85,1896.46" stroke="rgb(255,4,0)" stroke-width="2" fill="none"></polyline>
<polyline points="1799.48,1558.9,5723.14,1462.4" stroke="rgb(255,0,204)" stroke-width="2" fill="none"></polyline>
<polyline points="1553.66,1633.96,5834.91,1489.33" stroke="rgb(255,0,25)" stroke-width="2" fill="none"></polyline>
<polyline points="1726.11,1623.07,6238.01,1493.09" stroke="rgb(8,255,0)" stroke-width="2" fill="none"></polyline>
<polyline points="1942.1,1182.66,5778.84,1769.25" stroke="rgb(255,0,29)" stroke-width="2" fill="none"></polyline>
<polyline points="2071.57,1318.22,5414.89,1952.75" stroke="rgb(0,255,216)" stroke-width="2" fill="none"></polyline>
<polyline points="2071.57,1318.22,5414.89,1952.75" stroke="rgb(242,0,255)" stroke-width="2" fill="none"></polyline>
<polyline points="1326.84,1210.04,6585.26,1532.11" stroke="rgb(203,0,255)" stroke-width="2" fill="none"></polyline>
<polyline points="1717.84,1647.99,5991.76,1777.78" stroke="rgb(114,255,0)" stroke-width="2" fill="none"></polyline>
<polyline points="1123.52,1387.63,6071.45,2175.13" stroke="rgb(0,4,255)" stroke-width="2" fill="none"></polyline>
<polyline points="1884.06,1267.03,5488.96,1966.96" stroke="rgb(127,0,255)" stroke-width="2" fill="none"></polyline>
<polyline points="2348.56,952.494,5421.54,1967.61" stroke="rgb(0,255,42)" stroke-width="2" fill="none"></polyline>
<polyline points="1270.99,1183.5,6312.18,1975.81" stroke="rgb(0,119,255)" stroke-width="2" fill="none"></polyline>
<polyline points="2014.11,1080.49,5413.61,1980.12" stroke="rgb(0,140,255)" stroke-width="2" fill="none"></polyline>
<polyline points="1681.01,1306.85,5730.73,2695.33" stroke="rgb(0,255,157)" stroke-width="2" fill="none"></polyline>
<polyline points="2192.5,591.09,6369.71,2203.45" stroke="rgb(0,255,161)" stroke-width="2" fill="none"></polyline>
<polyline points="1822.09,1225.63,5496.62,1808.43" stroke="rgb(0,255,237)" stroke-width="2" fill="none"></polyline>
<polyline points="1403.12,906.387,6225,1994.04" stroke="rgb(59,255,0)" stroke-width="2" fill="none"></polyline>
<polyline points="1502.05,512.807,5776.17,1631.49" stroke="rgb(0,255,203)" stroke-width="2" fill="none"></polyline>
<polyline points="1427.71,1836.77,6011.26,2222.78" stroke="rgb(102,0,255)" stroke-width="2" fill="none"></polyline>
<polyline points="1681.01,1306.85,6920.92,1653.24" stroke="rgb(135,0,255)" stroke-width="2" fill="none"></polyline>
<polyline points="1800.55,1411.56,5424.26,2000.89" stroke="rgb(165,0,255)" stroke-width="2" fill="none"></polyline>
<polyline points="1917.09,1164.98,5667.32,1679.51" stroke="rgb(255,0,191)" stroke-width="2" fill="none"></polyline>
<polyline points="1807.79,1208.14,5509.04,1830.67" stroke="rgb(255,0,46)" stroke-width="2" fill="none"></polyline>
<polyline points="1807.79,1208.14,5509.04,1830.67" stroke="rgb(80,0,255)" stroke-width="2" fill="none"></polyline>
<polyline points="1931.84,1241.78,5414.9,2015.02" stroke="rgb(46,0,255)" stroke-width="2" fill="none"></polyline>
<polyline points="2344.43,859.998,5583.97,2020.54" stroke="rgb(0,153,255)" stroke-width="2" fill="none"></polyline>
<polyline points="1226.17,1212.7,6127.57,2283.87" stroke="rgb(97,255,0)" stroke-width="2" fill="none"></polyline>
<polyline points="1226.17,1212.7,6127.57,2283.87" stroke="rgb(255,0,8)" stroke-width="2" fill="none"></polyline>
<polyline points="2206.51,633.59,6873.3,2043.23" stroke="rgb(255,0,242)" stroke-width="2" fill="none"></polyline>
<polyline points="1999.25,1489.78,6032.88,2056.42" stroke="rgb(0,255,118)" stroke-width="2" fill="none"></polyline>
<polyline points="1387.1,1164.95,6156.06,1726.84" stroke="rgb(0,38,255)" stroke-width="2" fill="none"></polyline>
<polyline points="1885.02,1079.39,5389.17,1945.98" stroke="rgb(0,255,33)" stroke-width="2" fill="none"></polyline>
<polyline points="1268.31,1128.78,6262.18,1957" stroke="rgb(0,255,97)" stroke-width="2" fill="none"></polyline>
<polyline points="1705.52,1323.61,6143.84,2087.71" stroke="rgb(255,0,42)" stroke-width="2" fill="none"></polyline>
<polyline points="1403.12,906.387,6444.95,1956.84" stroke="rgb(0,255,4)" stroke-width="2" fill="none"></polyline>
<polyline points="2337.33,1617.72,5528.65,2091.57" stroke="rgb(255,0,195)" stroke-width="2" fill="none"></polyline>
<polyline points="1132.31,1378.75,6467.14,1963.34" stroke="rgb(0,255,165)" stroke-width="2" fill="none"></polyline>
<polyline points="2052.87,980.967,5642.78,1739.15" stroke="rgb(255,212,0)" stroke-width="2" fill="none"></polyline>
<polyline points="1396.11,1152.36,5897.12,1739.59" stroke="rgb(170,0,255)" stroke-width="2" fill="none"></polyline>
<polyline points="1274.48,2014.15,6084.81,2521.18" stroke="rgb(127,0,255)" stroke-width="2" fill="none"></polyline>
<polyline points="1268.48,1134.82,6096.28,2139.7" stroke="rgb(255,0,169)" stroke-width="2" fill="none"></polyline>
<polyline points="1853.48,1491.18,5397.91,2153.75" stroke="rgb(178,0,255)" stroke-width="2" fill="none"></polyline>
<polyline points="1899.44,1217.24,5264.05,2040.44" stroke="rgb(0,255,8)" stroke-width="2" fill="none"></polyline>
<polyline points="1999.25,1489.78,5943.27,2069.66" stroke="rgb(0,255,199)" stroke-width="2" fill="none"></polyline>
<polyline points="1304.63,1166,6207.17,2071.9" stroke="rgb(174,255,0)" stroke-width="2" fill="none"></polyline>
<polyline points="1681.01,1306.85,5767.3,2643.88" stroke="rgb(0,255,135)" stroke-width="2" fill="none"></polyline>
<polyline points="1284.78,1174.28,6103.87,2087.02" stroke="rgb(0,106,255)" stroke-width="2" fill="none"></polyline>
<polyline points="1954.73,1026.63,5306.41,1981.56" stroke="rgb(255,242,0)" stroke-width="2" fill="none"></polyline>
<polyline points="1901.76,942.75,5511.74,1751.79" stroke="rgb(255,0,169)" stroke-width="2" fill="none"></polyline>
<polyline points="2037.7,1678.24,5679.4,1457.13" stroke="rgb(255,0,33)" stroke-width="2" fill="none"></polyline>
<polyline points="839.173,1715.84,5875.37,1600.82" stroke="rgb(255,0,131)" stroke-width="2" fill="none"></polyline>
<polyline points="1259.62,1087.58,6258.43,2125.26" stroke="rgb(0,0,255)" stroke-width="2" fill="none"></polyline>
<polyline points="1480.2,1226.27,6067.33,1659.04" stroke="rgb(255,0,225)" stroke-width="2" fill="none"></polyline>
<polyline points="1480.2,1226.27,6067.33,1659.04" stroke="rgb(0,212,255)" stroke-width="2" fill="none"></polyline>
<polyline points="1803.49,1271.97,5352.86,1881.11" stroke="rgb(255,46,0)" stroke-width="2" fill="none"></polyline>
<polyline points="1875.44,1127.81,5411.69,1899.45" stroke="rgb(208,255,0)" stroke-width="2" fill="none"></polyline>
<polyline points="1414.19,892.132,6432.31,1792.51" stroke="rgb(255,148,0)" stroke-width="2" fill="none"></polyline>
<polyline points="1427.71,1836.77,5996.45,2204.64" stroke="rgb(255,0,80)" stroke-width="2" fill="none"></polyline>
<polyline points="1427.71,1836.77,5996.45,2204.64" stroke="rgb(255,0,250)" stroke-width="2" fill="none"></polyline>
<polyline points="1484.5,1382.77,5351.95,2207.99" stroke="rgb(0,127,255)" stroke-width="2" fill="none"></polyline>
<polyline points="1821.33,1212.37,5493.94,1823.31" stroke="rgb(0,255,38)" stroke-width="2" fill="none"></polyline>
<polyline points="1427.71,1836.77,6157.51,2235.69" stroke="rgb(0,255,220)" stroke-width="2" fill="none"></polyline>
<polyline points="1328.34,1143.09,5934.95,2294.29" stroke="rgb(255,0,93)" stroke-width="2" fill="none"></polyline>
<polyline points="937.451,1643.11,5398.8,2296.4" stroke="rgb(135,0,255)" stroke-width="2" fill="none"></polyline>
<polyline points="1379.31,990.771,6506.48,1904.36" stroke="rgb(255,144,0)" stroke-width="2" fill="none"></polyline>
<polyline points="1916.73,1108.88,5368.01,1911.28" stroke="rgb(255,0,119)" stroke-width="2" fill="none"></polyline>
<polyline points="1916.73,1108.88,5368.01,1911.28" stroke="rgb(89,255,0)" stroke-width="2" fill="none"></polyline>
<polyline points="1705.52,1323.61,5428.24,2304.55" stroke="rgb(0,199,255)" stroke-width="2" fill="none"></polyline>
<polyline points="1661.3,819.569,5713.55,2021" stroke="rgb(255,93,0)" stroke-width="2" fill="none"></polyline>
<polyline points="1584.75,1700.94,5371.56,2015.92" stroke="rgb(46,0,255)" stroke-width="2" fill="none"></polyline>
<polyline points="1910.19,1086.92,5365.93,1932.82" stroke="rgb(255,0,101)" stroke-width="2" fill="none"></polyline>
<polyline points="1899.15,1170.85,5410.3,1849.42" stroke="rgb(0,110,255)" stroke-width="2" fill="none"></polyline>
<polyline points="1899.97,1076.84,5371.6,1945.92" stroke="rgb(0,255,225)" stroke-width="2" fill="none"></polyline>
<polyline points="1297.23,1103.18,6168.58,2082.11" stroke="rgb(93,255,0)" stroke-width="2" fill="none"></polyline>
<polyline points="1928.35,1005.16,5323.95,2006.26" stroke="rgb(55,0,255)" stroke-width="2" fill="none"></polyline>
<polyline points="1705.52,1323.61,5428.26,2303.82" stroke="rgb(50,0,255)" stroke-width="2" fill="none"></polyline>
<polyline points="1699.33,1324.91,5412.22,2299.37" stroke="rgb(46,0,255)" stroke-width="2" fill="none"></polyline>
<polyline points="2165.24,725.34,6378.26,2521.85" stroke="rgb(51,255,0)" stroke-width="2" fill="none"></polyline>
<polyline points="1849.61,1122.04,5439.31,1909.76" stroke="rgb(0,246,255)" stroke-width="2" fill="none"></polyline>
<polyline points="1849.61,1122.04,5439.31,1909.76" stroke="rgb(157,255,0)" stroke-width="2" fill="none"></polyline>
<polyline points="2836.25,1076.03,5723.94,2737.4" stroke="rgb(84,255,0)" stroke-width="2" fill="none"></polyline>
<polyline points="1896.07,1093.59,5379.85,1929.34" stroke="rgb(255,97,0)" stroke-width="2" fill="none"></polyline>
<polyline points="1890.17,1066.67,5379.87,1957.76" stroke="rgb(0,191,255)" stroke-width="2" fill="none"></polyline>
<polyline points="1930.58,1035.08,5328.39,1979.76" stroke="rgb(170,0,255)" stroke-width="2" fill="none"></polyline>
<polyline points="1903.94,1040.1,5356.35,1981.4" stroke="rgb(0,110,255)" stroke-width="2" fill="none"></polyline>
<polyline points="1548.7,1133.19,6249.88,1509.53" stroke="rgb(0,140,255)" stroke-width="2" fill="none"></polyline>
<polyline points="1869.24,1092.44,5412.91,1934.46" stroke="rgb(255,0,38)" stroke-width="2" fill="none"></polyline>
<polyline points="1304.98,1105.7,6153.56,2077.49" stroke="rgb(0,255,4)" stroke-width="2" fill="none"></polyline>
<circle cx="1681.01" cy="1306.85" r="4" stroke="rgb(255,0,63)" stroke-width="2" fill="none"></circle>
<circle cx="6309.32" cy="828.61" r="4" stroke="rgb(255,0,63)" stroke-width="2" fill="none"></circle>
<circle cx="1824.87" cy="910.563" r="4" stroke="rgb(0,46,255)" stroke-width="2" fill="none"></circle>
<circle cx="5817.61" cy="2677.32" r="4" stroke="rgb(0,46,255)" stroke-width="2" fill="none"></circle>
<circle cx="1403.12" cy="906.387" r="4" stroke="rgb(123,255,0)" stroke-width="2" fill="none"></circle>
<circle cx="6143.83" cy="2103.19" r="4" stroke="rgb(123,255,0)" stroke-width="2" fill="none"></circle>
<circle cx="1904.01" cy="1061.42" r="4" stroke="rgb(255,165,0)" stroke-width="2" fill="none"></circle>
<circle cx="5362.47" cy="1959.69" r="4" stroke="rgb(255,165,0)" stroke-width="2" fill="none"></circle>
<circle cx="1869.9" cy="601.866" r="4" stroke="rgb(0,51,255)" stroke-width="2" fill="none"></circle>
<circle cx="4688.5" cy="2196.23" r="4" stroke="rgb(0,51,255)" stroke-width="2" fill="none"></circle>
<circle cx="1403.12" cy="906.387" r="4" stroke="rgb(255,55,0)" stroke-width="2" fill="none"></circle>
<circle cx="6198.26" cy="2206.23" r="4" stroke="rgb(255,55,0)" stroke-width="2" fill="none"></circle>
<circle cx="1268.48" cy="1134.82" r="4" stroke="rgb(255,42,0)" stroke-width="2" fill="none"></circle>
<circle cx="6082.43" cy="2125.3" r="4" stroke="rgb(255,42,0)" stroke-width="2" fill="none"></circle>
<circle cx="1681.01" cy="1306.85" r="4" stroke="rgb(0,93,255)" stroke-width="2" fill="none"></circle>
<circle cx="6527.22" cy="895.069" r="4" stroke="rgb(0,93,255)" stroke-width="2" fill="none"></circle>
<circle cx="1125.53" cy="1296.23" r="4" stroke="rgb(255,178,0)" stroke-width="2" fill="none"></circle>
<circle cx="5911.76" cy="932.59" r="4" stroke="rgb(255,178,0)" stroke-width="2" fill="none"></circle>
<circle cx="1907.95" cy="1805.36" r="4" stroke="rgb(255,46,0)" stroke-width="2" fill="none"></circle>
<circle cx="5872.13" cy="1780.47" r="4" stroke="rgb(255,46,0)" stroke-width="2" fill="none"></circle>
<circle cx="2209.23" cy="589.106" r="4" stroke="rgb(255,0,80)" stroke-width="2" fill="none"></circle>
<circle cx="6717.6" cy="1145.69" r="4" stroke="rgb(255,0,80)" stroke-width="2" fill="none"></circle>
<circle cx="2101.45" cy="500.57" r="4" stroke="rgb(255,97,0)" stroke-width="2" fill="none"></circle>
<circle cx="6607.91" cy="1090.71" r="4" stroke="rgb(255,97,0)" stroke-width="2" fill="none"></circle>
<circle cx="2228.59" cy="1818.89" r="4" stroke="rgb(0,114,255)" stroke-width="2" fill="none"></circle>
<circle cx="6659.06" cy="1019.63" r="4" stroke="rgb(0,114,255)" stroke-width="2" fill="none"></circle>
<circle cx="1741.88" cy="1794.29" r="4" stroke="rgb(255,0,242)" stroke-width="2" fill="none"></circle>
<circle cx="6408.81" cy="1047.07" r="4" stroke="rgb(255,0,242)" stroke-width="2" fill="none"></circle>
<circle cx="1403.12" cy="906.387" r="4" stroke="rgb(12,255,0)" stroke-width="2" fill="none"></circle>
<circle cx="6437.76" cy="1797.11" r="4" stroke="rgb(12,255,0)" stroke-width="2" fill="none"></circle>
<circle cx="1403.12" cy="906.387" r="4" stroke="rgb(0,255,208)" stroke-width="2" fill="none"></circle>
<circle cx="6182.34" cy="2190.6" r="4" stroke="rgb(0,255,208)" stroke-width="2" fill="none"></circle>
<circle cx="1268.48" cy="1134.82" r="4" stroke="rgb(255,0,233)" stroke-width="2" fill="none"></circle>
<circle cx="5911.47" cy="2330.86" r="4" stroke="rgb(255,0,233)" stroke-width="2" fill="none"></circle>
<circle cx="1048.11" cy="1476.52" r="4" stroke="rgb(0,255,246)" stroke-width="2" fill="none"></circle>
<circle cx="6403.8" cy="1308.48" r="4" stroke="rgb(0,255,246)" stroke-width="2" fill="none"></circle>
<circle cx="1048.11" cy="1476.52" r="4" stroke="rgb(242,255,0)" stroke-width="2" fill="none"></circle>
<circle cx="6403.8" cy="1308.48" r="4" stroke="rgb(242,255,0)" stroke-width="2" fill="none"></circle>
<circle cx="2054.83" cy="829.317" r="4" stroke="rgb(178,0,255)" stroke-width="2" fill="none"></circle>
<circle cx="5449.88" cy="2217.46" r="4" stroke="rgb(178,0,255)" stroke-width="2" fill="none"></circle>
<circle cx="1681.01" cy="1306.85" r="4" stroke="rgb(212,255,0)" stroke-width="2" fill="none"></circle>
<circle cx="6017.73" cy="1311.47" r="4" stroke="rgb(212,255,0)" stroke-width="2" fill="none"></circle>
<circle cx="2117.15" cy="943.38" r="4" stroke="rgb(255,0,80)" stroke-width="2" fill="none"></circle>
<circle cx="6968.65" cy="1814.42" r="4" stroke="rgb(255,0,80)" stroke-width="2" fill="none"></circle>
<circle cx="1048.11" cy="1476.52" r="4" stroke="rgb(0,255,186)" stroke-width="2" fill="none"></circle>
<circle cx="6595.74" cy="1592.3" r="4" stroke="rgb(0,255,186)" stroke-width="2" fill="none"></circle>
<circle cx="2192.5" cy="591.09" r="4" stroke="rgb(84,255,0)" stroke-width="2" fill="none"></circle>
<circle cx="6337.26" cy="2230.19" r="4" stroke="rgb(84,255,0)" stroke-width="2" fill="none"></circle>
<circle cx="2101.45" cy="500.57" r="4" stroke="rgb(233,255,0)" stroke-width="2" fill="none"></circle>
<circle cx="6880.44" cy="1236.96" r="4" stroke="rgb(233,255,0)" stroke-width="2" fill="none"></circle>
<circle cx="2101.45" cy="500.57" r="4" stroke="rgb(0,255,148)" stroke-width="2" fill="none"></circle>
<circle cx="6909.29" cy="1256.8" r="4" stroke="rgb(0,255,148)" stroke-width="2" fill="none"></circle>
<circle cx="1673.43" cy="994.693" r="4" stroke="rgb(255,0,229)" stroke-width="2" fill="none"></circle>
<circle cx="5797.85" cy="1304.94" r="4" stroke="rgb(255,0,229)" stroke-width="2" fill="none"></circle>
<circle cx="2176.06" cy="1565.96" r="4" stroke="rgb(255,0,131)" stroke-width="2" fill="none"></circle>
<circle cx="6194.15" cy="1305.29" r="4" stroke="rgb(255,0,131)" stroke-width="2" fill="none"></circle>
<circle cx="2176.06" cy="1565.96" r="4" stroke="rgb(255,0,221)" stroke-width="2" fill="none"></circle>
<circle cx="6203.34" cy="1305.89" r="4" stroke="rgb(255,0,221)" stroke-width="2" fill="none"></circle>
<circle cx="1048.11" cy="1476.52" r="4" stroke="rgb(255,42,0)" stroke-width="2" fill="none"></circle>
<circle cx="6578.7" cy="1614.87" r="4" stroke="rgb(255,42,0)" stroke-width="2" fill="none"></circle>
<circle cx="2415.73" cy="1347.74" r="4" stroke="rgb(135,255,0)" stroke-width="2" fill="none"></circle>
<circle cx="5478.86" cy="1832.96" r="4" stroke="rgb(135,255,0)" stroke-width="2" fill="none"></circle>
<circle cx="2415.73" cy="1347.74" r="4" stroke="rgb(0,255,195)" stroke-width="2" fill="none"></circle>
<circle cx="5478.86" cy="1832.96" r="4" stroke="rgb(0,255,195)" stroke-width="2" fill="none"></circle>
<circle cx="2228.59" cy="1818.89" r="4" stroke="rgb(0,4,255)" stroke-width="2" fill="none"></circle>
<circle cx="6263.3" cy="1284.21" r="4" stroke="rgb(0,4,255)" stroke-width="2" fill="none"></circle>
<circle cx="1257.41" cy="1054.89" r="4" stroke="rgb(255,216,0)" stroke-width="2" fill="none"></circle>
<circle cx="6081.99" cy="2255.25" r="4" stroke="rgb(255,216,0)" stroke-width="2" fill="none"></circle>
<circle cx="1999.25" cy="1489.78" r="4" stroke="rgb(0,148,255)" stroke-width="2" fill="none"></circle>
<circle cx="5507.85" cy="2399.21" r="4" stroke="rgb(0,148,255)" stroke-width="2" fill="none"></circle>
<circle cx="1403.12" cy="906.387" r="4" stroke="rgb(255,0,85)" stroke-width="2" fill="none"></circle>
<circle cx="6121.22" cy="2269.42" r="4" stroke="rgb(255,0,85)" stroke-width="2" fill="none"></circle>
<circle cx="1726.11" cy="1623.07" r="4" stroke="rgb(237,255,0)" stroke-width="2" fill="none"></circle>
<circle cx="5532.14" cy="2285.79" r="4" stroke="rgb(237,255,0)" stroke-width="2" fill="none"></circle>
<circle cx="1427.71" cy="1836.77" r="4" stroke="rgb(0,106,255)" stroke-width="2" fill="none"></circle>
<circle cx="5924.49" cy="2323.95" r="4" stroke="rgb(0,106,255)" stroke-width="2" fill="none"></circle>
<circle cx="1979.06" cy="1359.3" r="4" stroke="rgb(0,178,255)" stroke-width="2" fill="none"></circle>
<circle cx="5645.85" cy="1703.75" r="4" stroke="rgb(0,178,255)" stroke-width="2" fill="none"></circle>
<circle cx="1374.1" cy="953.163" r="4" stroke="rgb(59,255,0)" stroke-width="2" fill="none"></circle>
<circle cx="6071.87" cy="2328.75" r="4" stroke="rgb(59,255,0)" stroke-width="2" fill="none"></circle>
<circle cx="1262.02" cy="1285.35" r="4" stroke="rgb(0,55,255)" stroke-width="2" fill="none"></circle>
<circle cx="6267.04" cy="1707.94" r="4" stroke="rgb(0,55,255)" stroke-width="2" fill="none"></circle>
<circle cx="1403.12" cy="906.387" r="4" stroke="rgb(0,255,250)" stroke-width="2" fill="none"></circle>
<circle cx="6144.45" cy="2103.48" r="4" stroke="rgb(0,255,250)" stroke-width="2" fill="none"></circle>
<circle cx="1641.13" cy="1715.49" r="4" stroke="rgb(255,4,0)" stroke-width="2" fill="none"></circle>
<circle cx="5545.85" cy="1896.46" r="4" stroke="rgb(255,4,0)" stroke-width="2" fill="none"></circle>
<circle cx="1799.48" cy="1558.9" r="4" stroke="rgb(255,0,204)" stroke-width="2" fill="none"></circle>
<circle cx="5723.14" cy="1462.4" r="4" stroke="rgb(255,0,204)" stroke-width="2" fill="none"></circle>
<circle cx="1553.66" cy="1633.96" r="4" stroke="rgb(255,0,25)" stroke-width="2" fill="none"></circle>
<circle cx="5834.91" cy="1489.33" r="4" stroke="rgb(255,0,25)" stroke-width="2" fill="none"></circle>
<circle cx="1726.11" cy="1623.07" r="4" stroke="rgb(8,255,0)" stroke-width="2" fill="none"></circle>
<circle cx="6238.01" cy="1493.09" r="4" stroke="rgb(8,255,0)" stroke-width="2" fill="none"></circle>
<circle cx="1942.1" cy="1182.66" r="4" stroke="rgb(255,0,29)" stroke-width="2" fill="none"></circle>
<circle cx="5778.84" cy="1769.25" r="4" stroke="rgb(255,0,29)" stroke-width="2" fill="none"></circle>
<circle cx="2071.57" cy="1318.22" r="4" stroke="rgb(0,255,216)" stroke-width="2" fill="none"></circle>
<circle cx="5414.89" cy="1952.75" r="4" stroke="rgb(0,255,216)" stroke-width="2" fill="none"></circle>
<circle cx="2071.57" cy="1318.22" r="4" stroke="rgb(242,0,255)" stroke-width="2" fill="none"></circle>
<circle cx="5414.89" cy="1952.75" r="4" stroke="rgb(242,0,255)" stroke-width="2" fill="none"></circle>
<circle cx="1326.84" cy="1210.04" r="4" stroke="rgb(203,0,255)" stroke-width="2" fill="none"></circle>
<circle cx="6585.26" cy="1532.11" r="4" stroke="rgb(203,0,255)" stroke-width="2" fill="none"></circle>
<circle cx="1717.84" cy="1647.99" r="4" stroke="rgb(114,255,0)" stroke-width="2" fill="none"></circle>
<circle cx="5991.76" cy="1777.78" r="4" stroke="rgb(114,255,0)" stroke-width="2" fill="none"></circle>
<circle cx="1123.52" cy="1387.63" r="4" stroke="rgb(0,4,255)" stroke-width="2" fill="none"></circle>
<circle cx="6071.45" cy="2175.13" r="4" stroke="rgb(0,4,255)" stroke-width="2" fill="none"></circle>
<circle cx="1884.06" cy="1267.03" r="4" stroke="rgb(127,0,255)" stroke-width="2" fill="none"></circle>
<circle cx="5488.96" cy="1966.96" r="4" stroke="rgb(127,0,255)" stroke-width="2" fill="none"></circle>
<circle cx="2348.56" cy="952.494" r="4" stroke="rgb(0,255,42)" stroke-width="2" fill="none"></circle>
<circle cx="5421.54" cy="1967.61" r="4" stroke="rgb(0,255,42)" stroke-width="2" fill="none"></circle>
<circle cx="1270.99" cy="1183.5" r="4" stroke="rgb(0,119,255)" stroke-width="2" fill="none"></circle>
<circle cx="6312.18" cy="1975.81" r="4" stroke="rgb(0,119,255)" stroke-width="2" fill="none"></circle>
<circle cx="2014.11" cy="1080.49" r="4" stroke="rgb(0,140,255)" stroke-width="2" fill="none"></circle>
<circle cx="5413.61" cy="1980.12" r="4" stroke="rgb(0,140,255)" stroke-width="2" fill="none"></circle>
<circle cx="1681.01" cy="1306.85" r="4" stroke="rgb(0,255,157)" stroke-width="2" fill="none"></circle>
<circle cx="5730.73" cy="2695.33" r="4" stroke="rgb(0,255,157)" stroke-width="2" fill="none"></circle>
<circle cx="2192.5" cy="591.09" r="4" stroke="rgb(0,255,161)" stroke-width="2" fill="none"></circle>
<circle cx="6369.71" cy="2203.45" r="4" stroke="rgb(0,255,161)" stroke-width="2" fill="none"></circle>
<circle cx="1822.09" cy="1225.63" r="4" stroke="rgb(0,255,237)" stroke-width="2" fill="none"></circle>
<circle cx="5496.62" cy="1808.43" r="4" stroke="rgb(0,255,237)" stroke-width="2" fill="none"></circle>
<circle cx="1403.12" cy="906.387" r="4" stroke="rgb(59,255,0)" stroke-width="2" fill="none"></circle>
<circle cx="6225" cy="1994.04" r="4" stroke="rgb(59,255,0)" stroke-width="2" fill="none"></circle>
<circle cx="1502.05" cy="512.807" r="4" stroke="rgb(0,255,203)" stroke-width="2" fill="none"></circle>
<circle cx="5776.17" cy="1631.49" r="4" stroke="rgb(0,255,203)" stroke-width="2" fill="none"></circle>
<circle cx="1427.71" cy="1836.77" r="4" stroke="rgb(102,0,255)" stroke-width="2" fill="none"></circle>
<circle cx="6011.26" cy="2222.78" r="4" stroke="rgb(102,0,255)" stroke-width="2" fill="none"></circle>
<circle cx="1681.01" cy="1306.85" r="4" stroke="rgb(135,0,255)" stroke-width="2" fill="none"></circle>
<circle cx="6920.92" cy="1653.24" r="4" stroke="rgb(135,0,255)" stroke-width="2" fill="none"></circle>
<circle cx="1800.55" cy="1411.56" r="4" stroke="rgb(165,0,255)" stroke-width="2" fill="none"></circle>
<circle cx="5424.26" cy="2000.89" r="4" stroke="rgb(165,0,255)" stroke-width="2" fill="none"></circle>
<circle cx="1917.09" cy="1164.98" r="4" stroke="rgb(255,0,191)" stroke-width="2" fill="none"></circle>
<circle cx="5667.32" cy="1679.51" r="4" stroke="rgb(255,0,191)" stroke-width="2" fill="none"></circle>
<circle cx="1807.79" cy="1208.14" r="4" stroke="rgb(255,0,46)" stroke-width="2" fill="none"></circle>
<circle cx="5509.04" cy="1830.67" r="4" stroke="rgb(255,0,46)" stroke-width="2" fill="none"></circle>
<circle cx="1807.79" cy="1208.14" r="4" stroke="rgb(80,0,255)" stroke-width="2" fill="none"></circle>
<circle cx="5509.04" cy="1830.67" r="4" stroke="rgb(80,0,255)" stroke-width="2" fill="none"></circle>
<circle cx="1931.84" cy="1241.78" r="4" stroke="rgb(46,0,255)" stroke-width="2" fill="none"></circle>
<circle cx="5414.9" cy="2015.02" r="4" stroke="rgb(46,0,255)" stroke-width="2" fill="none"></circle>
<circle cx="2344.43" cy="859.998" r="4" stroke="rgb(0,153,255)" stroke-width="2" fill="none"></circle>
<circle cx="5583.97" cy="2020.54" r="4" stroke="rgb(0,153,255)" stroke-width="2" fill="none"></circle>
<circle cx="1226.17" cy="1212.7" r="4" stroke="rgb(97,255,0)" stroke-width="2" fill="none"></circle>
<circle cx="6127.57" cy="2283.87" r="4" stroke="rgb(97,255,0)" stroke-width="2" fill="none"></circle>
<circle cx="1226.17" cy="1212.7" r="4" stroke="rgb(255,0,8)" stroke-width="2" fill="none"></circle>
<circle cx="6127.57" cy="2283.87" r="4" stroke="rgb(255,0,8)" stroke-width="2" fill="none"></circle>
<circle cx="2206.51" cy="633.59" r="4" stroke="rgb(255,0,242)" stroke-width="2" fill="none"></circle>
<circle cx="6873.3" cy="2043.23" r="4" stroke="rgb(255,0,242)" stroke-width="2" fill="none"></circle>
<circle cx="1999.25" cy="1489.78" r="4" stroke="rgb(0,255,118)" stroke-width="2" fill="none"></circle>
<circle cx="6032.88" cy="2056.42" r="4" stroke="rgb(0,255,118)" stroke-width="2" fill="none"></circle>
<circle cx="1387.1" cy="1164.95" r="4" stroke="rgb(0,38,255)" stroke-width="2" fill="none"></circle>
<circle cx="6156.06" cy="1726.84" r="4" stroke="rgb(0,38,255)" stroke-width="2" fill="none"></circle>
<circle cx="1885.02" cy="1079.39" r="4" stroke="rgb(0,255,33)" stroke-width="2" fill="none"></circle>
<circle cx="5389.17" cy="1945.98" r="4" stroke="rgb(0,255,33)" stroke-width="2" fill="none"></circle>
<circle cx="1268.31" cy="1128.78" r="4" stroke="rgb(0,255,97)" stroke-width="2" fill="none"></circle>
<circle cx="6262.18" cy="1957" r="4" stroke="rgb(0,255,97)" stroke-width="2" fill="none"></circle>
<circle cx="1705.52" cy="1323.61" r="4" stroke="rgb(255,0,42)" stroke-width="2" fill="none"></circle>
<circle cx="6143.84" cy="2087.71" r="4" stroke="rgb(255,0,42)" stroke-width="2" fill="none"></circle>
<circle cx="1403.12" cy="906.387" r="4" stroke="rgb(0,255,4)" stroke-width="2" fill="none"></circle>
<circle cx="6444.95" cy="1956.84" r="4" stroke="rgb(0,255,4)" stroke-width="2" fill="none"></circle>
<circle cx="2337.33" cy="1617.72" r="4" stroke="rgb(255,0,195)" stroke-width="2" fill="none"></circle>
<circle cx="5528.65" cy="2091.57" r="4" stroke="rgb(255,0,195)" stroke-width="2" fill="none"></circle>
<circle cx="1132.31" cy="1378.75" r="4" stroke="rgb(0,255,165)" stroke-width="2" fill="none"></circle>
<circle cx="6467.14" cy="1963.34" r="4" stroke="rgb(0,255,165)" stroke-width="2" fill="none"></circle>
<circle cx="2052.87" cy="980.967" r="4" stroke="rgb(255,212,0)" stroke-width="2" fill="none"></circle>
<circle cx="5642.78" cy="1739.15" r="4" stroke="rgb(255,212,0)" stroke-width="2" fill="none"></circle>
<circle cx="1396.11" cy="1152.36" r="4" stroke="rgb(170,0,255)" stroke-width="2" fill="none"></circle>
<circle cx="5897.12" cy="1739.59" r="4" stroke="rgb(170,0,255)" stroke-width="2" fill="none"></circle>
<circle cx="1274.48" cy="2014.15" r="4" stroke="rgb(127,0,255)" stroke-width="2" fill="none"></circle>
<circle cx="6084.81" cy="2521.18" r="4" stroke="rgb(127,0,255)" stroke-width="2" fill="none"></circle>
<circle cx="1268.48" cy="1134.82" r="4" stroke="rgb(255,0,169)" stroke-width="2" fill="none"></circle>
<circle cx="6096.28" cy="2139.7" r="4" stroke="rgb(255,0,169)" stroke-width="2" fill="none"></circle>
<circle cx="1853.48" cy="1491.18" r="4" stroke="rgb(178,0,255)" stroke-width="2" fill="none"></circle>
<circle cx="5397.91" cy="2153.75" r="4" stroke="rgb(178,0,255)" stroke-width="2" fill="none"></circle>
<circle cx="1899.44" cy="1217.24" r="4" stroke="rgb(0,255,8)" stroke-width="2" fill="none"></circle>
<circle cx="5264.05" cy="2040.44" r="4" stroke="rgb(0,255,8)" stroke-width="2" fill="none"></circle>
<circle cx="1999.25" cy="1489.78" r="4" stroke="rgb(0,255,199)" stroke-width="2" fill="none"></circle>
<circle cx="5943.27" cy="2069.66" r="4" stroke="rgb(0,255,199)" stroke-width="2" fill="none"></circle>
<circle cx="1304.63" cy="1166" r="4" stroke="rgb(174,255,0)" stroke-width="2" fill="none"></circle>
<circle cx="6207.17" cy="2071.9" r="4" stroke="rgb(174,255,0)" stroke-width="2" fill="none"></circle>
<circle cx="1681.01" cy="1306.85" r="4" stroke="rgb(0,255,135)" stroke-width="2" fill="none"></circle>
<circle cx="5767.3" cy="2643.88" r="4" stroke="rgb(0,255,135)" stroke-width="2" fill="none"></circle>
<circle cx="1284.78" cy="1174.28" r="4" stroke="rgb(0,106,255)" stroke-width="2" fill="none"></circle>
<circle cx="6103.87" cy="2087.02" r="4" stroke="rgb(0,106,255)" stroke-width="2" fill="none"></circle>
<circle cx="1954.73" cy="1026.63" r="4" stroke="rgb(255,242,0)" stroke-width="2" fill="none"></circle>
<circle cx="5306.41" cy="1981.56" r="4" stroke="rgb(255,242,0)" stroke-width="2" fill="none"></circle>
<circle cx="1901.76" cy="942.75" r="4" stroke="rgb(255,0,169)" stroke-width="2" fill="none"></circle>
<circle cx="5511.74" cy="1751.79" r="4" stroke="rgb(255,0,169)" stroke-width="2" fill="none"></circle>
<circle cx="2037.7" cy="1678.24" r="4" stroke="rgb(255,0,33)" stroke-width="2" fill="none"></circle>
<circle cx="5679.4" cy="1457.13" r="4" stroke="rgb(255,0,33)" stroke-width="2" fill="none"></circle>
<circle cx="839.173" cy="1715.84" r="4" stroke="rgb(255,0,131)" stroke-width="2" fill="none"></circle>
<circle cx="5875.37" cy="1600.82" r="4" stroke="rgb(255,0,131)" stroke-width="2" fill="none"></circle>
<circle cx="1259.62" cy="1087.58" r="4" stroke="rgb(0,0,255)" stroke-width="2" fill="none"></circle>
<circle cx="6258.43" cy="2125.26" r="4" stroke="rgb(0,0,255)" stroke-width="2" fill="none"></circle>
<circle cx="1480.2" cy="1226.27" r="4" stroke="rgb(255,0,225)" stroke-width="2" fill="none"></circle>
<circle cx="6067.33" cy="1659.04" r="4" stroke="rgb(255,0,225)" stroke-width="2" fill="none"></circle>
<circle cx="1480.2" cy="1226.27" r="4" stroke="rgb(0,212,255)" stroke-width="2" fill="none"></circle>
<circle cx="6067.33" cy="1659.04" r="4" stroke="rgb(0,212,255)" stroke-width="2" fill="none"></circle>
<circle cx="1803.49" cy="1271.97" r="4" stroke="rgb(255,46,0)" stroke-width="2" fill="none"></circle>
<circle cx="5352.86" cy="1881.11" r="4" stroke="rgb(255,46,0)" stroke-width="2" fill="none"></circle>
<circle cx="1875.44" cy="1127.81" r="4" stroke="rgb(208,255,0)" stroke-width="2" fill="none"></circle>
<circle cx="5411.69" cy="1899.45" r="4" stroke="rgb(208,255,0)" stroke-width="2" fill="none"></circle>
<circle cx="1414.19" cy="892.132" r="4" stroke="rgb(255,148,0)" stroke-width="2" fill="none"></circle>
<circle cx="6432.31" cy="1792.51" r="4" stroke="rgb(255,148,0)" stroke-width="2" fill="none"></circle>
<circle cx="1427.71" cy="1836.77" r="4" stroke="rgb(255,0,80)" stroke-width="2" fill="none"></circle>
<circle cx="5996.45" cy="2204.64" r="4" stroke="rgb(255,0,80)" stroke-width="2" fill="none"></circle>
<circle cx="1427.71" cy="1836.77" r="4" stroke="rgb(255,0,250)" stroke-width="2" fill="none"></circle>
<circle cx="5996.45" cy="2204.64" r="4" stroke="rgb(255,0,250)" stroke-width="2" fill="none"></circle>
<circle cx="1484.5" cy="1382.77" r="4" stroke="rgb(0,127,255)" stroke-width="2" fill="none"></circle>
<circle cx="5351.95" cy="2207.99" r="4" stroke="rgb(0,127,255)" stroke-width="2" fill="none"></circle>
<circle cx="1821.33" cy="1212.37" r="4" stroke="rgb(0,255,38)" stroke-width="2" fill="none"></circle>
<circle cx="5493.94" cy="1823.31" r="4" stroke="rgb(0,255,38)" stroke-width="2" fill="none"></circle>
<circle cx="1427.71" cy="1836.77" r="4" stroke="rgb(0,255,220)" stroke-width="2" fill="none"></circle>
<circle cx="6157.51" cy="2235.69" r="4" stroke="rgb(0,255,220)" stroke-width="2" fill="none"></circle>
<circle cx="1328.34" cy="1143.09" r="4" stroke="rgb(255,0,93)" stroke-width="2" fill="none"></circle>
<circle cx="5934.95" cy="2294.29" r="4" stroke="rgb(255,0,93)" stroke-width="2" fill="none"></circle>
<circle cx="937.451" cy="1643.11" r="4" stroke="rgb(135,0,255)" stroke-width="2" fill="none"></circle>
<circle cx="5398.8" cy="2296.4" r="4" stroke="rgb(135,0,255)" stroke-width="2" fill="none"></circle>
<circle cx="1379.31" cy="990.771" r="4" stroke="rgb(255,144,0)" stroke-width="2" fill="none"></circle>
<circle cx="6506.48" cy="1904.36" r="4" stroke="rgb(255,144,0)" stroke-width="2" fill="none"></circle>
<circle cx="1916.73" cy="1108.88" r="4" stroke="rgb(255,0,119)" stroke-width="2" fill="none"></circle>
<circle cx="5368.01" cy="1911.28" r="4" stroke="rgb(255,0,119)" stroke-width="2" fill="none"></circle>
<circle cx="1916.73" cy="1108.88" r="4" stroke="rgb(89,255,0)" stroke-width="2" fill="none"></circle>
<circle cx="5368.01" cy="1911.28" r="4" stroke="rgb(89,255,0)" stroke-width="2" fill="none"></circle>
<circle cx="1705.52" cy="1323.61" r="4" stroke="rgb(0,199,255)" stroke-width="2" fill="none"></circle>
<circle cx="5428.24" cy="2304.55" r="4" stroke="rgb(0,199,255)" stroke-width="2" fill="none"></circle>
<circle cx="1661.3" cy="819.569" r="4" stroke="rgb(255,93,0)" stroke-width="2" fill="none"></circle>
<circle cx="5713.55" cy="2021" r="4" stroke="rgb(255,93,0)" stroke-width="2" fill="none"></circle>
<circle cx="1584.75" cy="1700.94" r="4" stroke="rgb(46,0,255)" stroke-width="2" fill="none"></circle>
<circle cx="5371.56" cy="2015.92" r="4" stroke="rgb(46,0,255)" stroke-width="2" fill="none"></circle>
<circle cx="1910.19" cy="1086.92" r="4" stroke="rgb(255,0,101)" stroke-width="2" fill="none"></circle>
<circle cx="5365.93" cy="1932.82" r="4" stroke="rgb(255,0,101)" stroke-width="2" fill="none"></circle>
<circle cx="1899.15" cy="1170.85" r="4" stroke="rgb(0,110,255)" stroke-width="2" fill="none"></circle>
<circle cx="5410.3" cy="1849.42" r="4" stroke="rgb(0,110,255)" stroke-width="2" fill="none"></circle>
<circle cx="1899.97" cy="1076.84" r="4" stroke="rgb(0,255,225)" stroke-width="2" fill="none"></circle>
<circle cx="5371.6" cy="1945.92" r="4" stroke="rgb(0,255,225)" stroke-width="2" fill="none"></circle>
<circle cx="1297.23" cy="1103.18" r="4" stroke="rgb(93,255,0)" stroke-width="2" fill="none"></circle>
<circle cx="6168.58" cy="2082.11" r="4" stroke="rgb(93,255,0)" stroke-width="2" fill="none"></circle>
<circle cx="1928.35" cy="1005.16" r="4" stroke="rgb(55,0,255)" stroke-width="2" fill="none"></circle>
<circle cx="5323.95" cy="2006.26" r="4" stroke="rgb(55,0,255)" stroke-width="2" fill="none"></circle>
<circle cx="1705.52" cy="1323.61" r="4" stroke="rgb(50,0,255)" stroke-width="2" fill="none"></circle>
<circle cx="5428.26" cy="2303.82" r="4" stroke="rgb(50,0,255)" stroke-width="2" fill="none"></circle>
<circle cx="1699.33" cy="1324.91" r="4" stroke="rgb(46,0,255)" stroke-width="2" fill="none"></circle>
<circle cx="5412.22" cy="2299.37" r="4" stroke="rgb(46,0,255)" stroke-width="2" fill="none"></circle>
<circle cx="2165.24" cy="725.34" r="4" stroke="rgb(51,255,0)" stroke-width="2" fill="none"></circle>
<circle cx="6378.26" cy="2521.85" r="4" stroke="rgb(51,255,0)" stroke-width="2" fill="none"></circle>
<circle cx="1849.61" cy="1122.04" r="4" stroke="rgb(0,246,255)" stroke-width="2" fill="none"></circle>
<circle cx="5439.31" cy="1909.76" r="4" stroke="rgb(0,246,255)" stroke-width="2" fill="none"></circle>
<circle cx="1849.61" cy="1122.04" r="4" stroke="rgb(157,255,0)" stroke-width="2" fill="none"></circle>
<circle cx="5439.31" cy="1909.76" r="4" stroke="rgb(157,255,0)" stroke-width="2" fill="none"></circle>
<circle cx="2836.25" cy="1076.03" r="4" stroke="rgb(84,255,0)" stroke-width="2" fill="none"></circle>
<circle cx="5723.94" cy="2737.4" r="4" stroke="rgb(84,255,0)" stroke-width="2" fill="none"></circle>
<circle cx="1896.07" cy="1093.59" r="4" stroke="rgb(255,97,0)" stroke-width="2" fill="none"></circle>
<circle cx="5379.85" cy="1929.34" r="4" stroke="rgb(255,97,0)" stroke-width="2" fill="none"></circle>
<circle cx="1890.17" cy="1066.67" r="4" stroke="rgb(0,191,255)" stroke-width="2" fill="none"></circle>
<circle cx="5379.87" cy="1957.76" r="4" stroke="rgb(0,191,255)" stroke-width="2" fill="none"></circle>
<circle cx="1930.58" cy="1035.08" r="4" stroke="rgb(170,0,255)" stroke-width="2" fill="none"></circle>
<circle cx="5328.39" cy="1979.76" r="4" stroke="rgb(170,0,255)" stroke-width="2" fill="none"></circle>
<circle cx="1903.94" cy="1040.1" r="4" stroke="rgb(0,110,255)" stroke-width="2" fill="none"></circle>
<circle cx="5356.35" cy="1981.4" r="4" stroke="rgb(0,110,255)" stroke-width="2" fill="none"></circle>
<circle cx="1548.7" cy="1133.19" r="4" stroke="rgb(0,140,255)" stroke-width="2" fill="none"></circle>
<circle cx="6249.88" cy="1509.53" r="4" stroke="rgb(0,140,255)" stroke-width="2" fill="none"></circle>
<circle cx="1869.24" cy="1092.44" r="4" stroke="rgb(255,0,38)" stroke-width="2" fill="none"></circle>
<circle cx="5412.91" cy="1934.46" r="4" stroke="rgb(255,0,38)" stroke-width="2" fill="none"></circle>
<circle cx="1304.98" cy="1105.7" r="4" stroke="rgb(0,255,4)" stroke-width="2" fill="none"></circle>
<circle cx="6153.56" cy="2077.49" r="4" stroke="rgb(0,255,4)" stroke-width="2" fill="none"></circle>
</svg>