<?xml version="1.0" standalone="yes"?>
<!-- SVG graphic -->
<svg xmlns='http://www.w3.org/2000/svg' xmlns:xlink='http://www.w3.org/1999/xlink'
width="8064px" height="3024px" preserveAspectRatio="xMinYMin meet" viewBox="0 0 8064 3024" version="1.1">
<image x="0" y="0" width="4032px" height="3024px" opacity="1" xlink:href="/home/jeong/Code/2D-to-3D-Modeling-using-AI/Make3D/Image/20200227_180717.jpg"/>
<image x="4032" y="0" width="4032px" height="3024px" opacity="1" xlink:href="/home/jeong/Code/2D-to-3D-Modeling-using-AI/Make3D/Image/20200227_180722.jpg"/>
<polyline points="2071.89,160.376,6656.22,2067.39" stroke="rgb(255,148,0)" stroke-width="2" fill="none"></polyline>
<polyline points="1987.72,396.573,6142.96,2555.76" stroke="rgb(0,157,255)" stroke-width="2" fill="none"></polyline>
<polyline points="2036.16,451.945,6229.31,1640.23" stroke="rgb(38,255,0)" stroke-width="2" fill="none"></polyline>
<polyline points="2024.84,466.869,5855.9,919.68" stroke="rgb(0,255,199)" stroke-width="2" fill="none"></polyline>
<polyline points="2209.23,589.106,5142.8,862.965" stroke="rgb(0,255,67)" stroke-width="2" fill="none"></polyline>
<polyline points="2192.5,591.09,5928.82,974.077" stroke="rgb(0,255,174)" stroke-width="2" fill="none"></polyline>
<polyline points="2307.35,700.755,6784.95,1201.83" stroke="rgb(208,255,0)" stroke-width="2" fill="none"></polyline>
<polyline points="1551.56,707.123,6439.46,1236.17" stroke="rgb(63,0,255)" stroke-width="2" fill="none"></polyline>
<polyline points="2075.91,800.561,6351.56,885.467" stroke="rgb(255,21,0)" stroke-width="2" fill="none"></polyline>
<polyline points="2196.89,825.526,5897.93,1499.77" stroke="rgb(0,29,255)" stroke-width="2" fill="none"></polyline>
<polyline points="2559.52,829.922,6320.4,972.964" stroke="rgb(0,157,255)" stroke-width="2" fill="none"></polyline>
<polyline points="2348.51,845.181,6483.92,1081.15" stroke="rgb(255,0,106)" stroke-width="2" fill="none"></polyline>
<polyline points="2564.93,845.722,6949.66,1900.85" stroke="rgb(216,0,255)" stroke-width="2" fill="none"></polyline>
<polyline points="1447.08,870.739,5872.83,1867.44" stroke="rgb(255,0,225)" stroke-width="2" fill="none"></polyline>
<polyline points="1428.41,875.128,5897.56,1062.99" stroke="rgb(0,93,255)" stroke-width="2" fill="none"></polyline>
<polyline points="2397.69,881.467,5533.13,917.057" stroke="rgb(0,93,255)" stroke-width="2" fill="none"></polyline>
<polyline points="1937.09,884.742,6621.22,1371.82" stroke="rgb(0,255,237)" stroke-width="2" fill="none"></polyline>
<polyline points="1397.75,899.471,6067.94,1182.58" stroke="rgb(165,255,0)" stroke-width="2" fill="none"></polyline>
<polyline points="2061.88,901.11,6846.28,1592.19" stroke="rgb(93,255,0)" stroke-width="2" fill="none"></polyline>
<polyline points="1403.12,906.387,5547.26,908.243" stroke="rgb(255,0,8)" stroke-width="2" fill="none"></polyline>
<polyline points="2334,923.994,5907.21,1669.34" stroke="rgb(25,0,255)" stroke-width="2" fill="none"></polyline>
<polyline points="2139.82,936.628,5740.44,1757.16" stroke="rgb(4,0,255)" stroke-width="2" fill="none"></polyline>
<polyline points="1374.1,953.163,5969.08,1214.91" stroke="rgb(55,255,0)" stroke-width="2" fill="none"></polyline>
<polyline points="1367.78,954.949,6005.21,1171.98" stroke="rgb(0,46,255)" stroke-width="2" fill="none"></polyline>
<polyline points="1884.12,969.772,6571.06,1286.1" stroke="rgb(0,55,255)" stroke-width="2" fill="none"></polyline>
<polyline points="1958.25,977.733,5927.72,1708.77" stroke="rgb(0,255,152)" stroke-width="2" fill="none"></polyline>
<polyline points="1335.65,978.941,5545.66,815.313" stroke="rgb(0,0,255)" stroke-width="2" fill="none"></polyline>
<polyline points="2092.44,981.817,5692.13,1791.46" stroke="rgb(0,255,237)" stroke-width="2" fill="none"></polyline>
<polyline points="1321.97,1014.51,5940.15,1132.28" stroke="rgb(255,195,0)" stroke-width="2" fill="none"></polyline>
<polyline points="1999.91,1029.05,6597.12,1320.03" stroke="rgb(0,255,97)" stroke-width="2" fill="none"></polyline>
<polyline points="1930.58,1035.08,5854.07,1738.81" stroke="rgb(106,0,255)" stroke-width="2" fill="none"></polyline>
<polyline points="1875.09,1047.49,5884.04,1778.46" stroke="rgb(255,0,195)" stroke-width="2" fill="none"></polyline>
<polyline points="2146.29,1055.09,6114.56,978.841" stroke="rgb(0,89,255)" stroke-width="2" fill="none"></polyline>
<polyline points="1949.33,1056.75,5861.08,1786.18" stroke="rgb(34,0,255)" stroke-width="2" fill="none"></polyline>
<polyline points="1327.28,1061.42,5535.3,937.707" stroke="rgb(0,255,4)" stroke-width="2" fill="none"></polyline>
<polyline points="2145.42,1069.01,5578.93,715.202" stroke="rgb(0,55,255)" stroke-width="2" fill="none"></polyline>
<polyline points="2001.6,1070.48,5880.22,1736.5" stroke="rgb(255,208,0)" stroke-width="2" fill="none"></polyline>
<polyline points="1342.65,1074.59,5625.53,922.291" stroke="rgb(0,203,255)" stroke-width="2" fill="none"></polyline>
<polyline points="1574.19,1086.43,6661.57,1325.38" stroke="rgb(0,255,12)" stroke-width="2" fill="none"></polyline>
<polyline points="1259.62,1087.58,5866.05,1061.63" stroke="rgb(199,0,255)" stroke-width="2" fill="none"></polyline>
<polyline points="2703.72,1096.8,5676.61,1669.62" stroke="rgb(242,0,255)" stroke-width="2" fill="none"></polyline>
<polyline points="1321.21,1097.78,5933.11,1113.13" stroke="rgb(0,178,255)" stroke-width="2" fill="none"></polyline>
<polyline points="1235.93,1106.22,5777.77,996.375" stroke="rgb(0,255,59)" stroke-width="2" fill="none"></polyline>
<polyline points="1279.39,1122.89,6023.93,1305.08" stroke="rgb(84,255,0)" stroke-width="2" fill="none"></polyline>
<polyline points="1268.48,1134.82,5520.13,939.179" stroke="rgb(0,255,110)" stroke-width="2" fill="none"></polyline>
<polyline points="2094.46,1141.48,5775.81,748.942" stroke="rgb(255,0,33)" stroke-width="2" fill="none"></polyline>
<polyline points="2231.45,1156.78,6080.73,913.449" stroke="rgb(255,0,178)" stroke-width="2" fill="none"></polyline>
<polyline points="1387.1,1164.95,6004.48,1557.27" stroke="rgb(255,0,161)" stroke-width="2" fill="none"></polyline>
<polyline points="1261.07,1166.14,5794.15,1099.91" stroke="rgb(199,255,0)" stroke-width="2" fill="none"></polyline>
<polyline points="1284.78,1174.28,5535.3,937.707" stroke="rgb(255,242,0)" stroke-width="2" fill="none"></polyline>
<polyline points="1274.52,1175.83,6804.98,1547.88" stroke="rgb(255,0,169)" stroke-width="2" fill="none"></polyline>
<polyline points="1257.65,1197.18,5927.2,1078.7" stroke="rgb(255,0,174)" stroke-width="2" fill="none"></polyline>
<polyline points="1252.13,1201.82,5674.81,924.449" stroke="rgb(0,255,212)" stroke-width="2" fill="none"></polyline>
<polyline points="1226.17,1212.7,5479.63,786.118" stroke="rgb(254,0,255)" stroke-width="2" fill="none"></polyline>
<polyline points="2125.3,1222.28,6195.57,1355.38" stroke="rgb(250,255,0)" stroke-width="2" fill="none"></polyline>
<polyline points="2142.51,1234.79,5972.3,1253.64" stroke="rgb(255,157,0)" stroke-width="2" fill="none"></polyline>
<polyline points="2331.97,1236.49,5750.84,1440.98" stroke="rgb(101,255,0)" stroke-width="2" fill="none"></polyline>
<polyline points="2325.13,1249.08,6742.71,2012.4" stroke="rgb(0,255,225)" stroke-width="2" fill="none"></polyline>
<polyline points="1754.74,1252.86,6629.07,1691.07" stroke="rgb(0,114,255)" stroke-width="2" fill="none"></polyline>
<polyline points="1649.49,1273.99,5877.17,1931.08" stroke="rgb(255,59,0)" stroke-width="2" fill="none"></polyline>
<polyline points="2714.35,1275.8,5893.28,736.364" stroke="rgb(255,0,182)" stroke-width="2" fill="none"></polyline>
<polyline points="1914.83,1280.57,5799.95,1285.38" stroke="rgb(255,0,42)" stroke-width="2" fill="none"></polyline>
<polyline points="1262.02,1285.35,5420.27,891.791" stroke="rgb(255,0,136)" stroke-width="2" fill="none"></polyline>
<polyline points="1651.29,1288.07,5587.43,1385.86" stroke="rgb(255,204,0)" stroke-width="2" fill="none"></polyline>
<polyline points="1665.05,1289.77,4903.22,1097.57" stroke="rgb(0,4,255)" stroke-width="2" fill="none"></polyline>
<polyline points="1816.75,1296.44,6439.79,940.026" stroke="rgb(131,255,0)" stroke-width="2" fill="none"></polyline>
<polyline points="2189.34,1302.93,5687.31,1498.06" stroke="rgb(148,0,255)" stroke-width="2" fill="none"></polyline>
<polyline points="2232.29,1303.25,6353.76,1271.13" stroke="rgb(0,255,169)" stroke-width="2" fill="none"></polyline>
<polyline points="1892.25,1308.5,5961.46,1463.9" stroke="rgb(0,255,140)" stroke-width="2" fill="none"></polyline>
<polyline points="2071.57,1318.22,5953.45,1800.16" stroke="rgb(127,0,255)" stroke-width="2" fill="none"></polyline>
<polyline points="1758.85,1321.93,5758.63,1382.02" stroke="rgb(255,0,174)" stroke-width="2" fill="none"></polyline>
<polyline points="1705.52,1323.61,5754.11,1095.17" stroke="rgb(255,0,161)" stroke-width="2" fill="none"></polyline>
<polyline points="1654.08,1326.56,5235.68,1431.3" stroke="rgb(46,255,0)" stroke-width="2" fill="none"></polyline>
<polyline points="1743.43,1328.99,6790.27,1218.53" stroke="rgb(114,255,0)" stroke-width="2" fill="none"></polyline>
<polyline points="1469.67,1332.35,5586.76,831.709" stroke="rgb(246,255,0)" stroke-width="2" fill="none"></polyline>
<polyline points="1088.53,1333.12,7061.47,1296.33" stroke="rgb(63,0,255)" stroke-width="2" fill="none"></polyline>
<polyline points="1693.87,1338.6,6590.99,1100.49" stroke="rgb(148,255,0)" stroke-width="2" fill="none"></polyline>
<polyline points="2695.89,1343.94,5959.74,2296.58" stroke="rgb(255,89,0)" stroke-width="2" fill="none"></polyline>
<polyline points="1416.51,1365.63,5957.93,2288.12" stroke="rgb(131,255,0)" stroke-width="2" fill="none"></polyline>
<polyline points="1415.85,1371.92,6040.07,775.094" stroke="rgb(255,131,0)" stroke-width="2" fill="none"></polyline>
<polyline points="1252.97,1377.26,5448.17,1182.31" stroke="rgb(255,0,212)" stroke-width="2" fill="none"></polyline>
<polyline points="1123.52,1387.63,5526.89,867.014" stroke="rgb(174,0,255)" stroke-width="2" fill="none"></polyline>
<polyline points="1172.86,1396.74,6740.92,2045.61" stroke="rgb(255,0,42)" stroke-width="2" fill="none"></polyline>
<polyline points="1556.78,1409.96,6156.16,1667.81" stroke="rgb(0,255,0)" stroke-width="2" fill="none"></polyline>
<polyline points="1669.52,1440.1,5935.14,1826.99" stroke="rgb(0,80,255)" stroke-width="2" fill="none"></polyline>
<polyline points="2447.03,1444.64,6668.96,1168.81" stroke="rgb(182,0,255)" stroke-width="2" fill="none"></polyline>
<polyline points="1048.11,1476.52,5767.5,1410.75" stroke="rgb(0,255,157)" stroke-width="2" fill="none"></polyline>
<polyline points="1274.19,1485.36,5550.05,1040.57" stroke="rgb(0,216,255)" stroke-width="2" fill="none"></polyline>
<polyline points="1999.25,1489.78,5940.49,929.394" stroke="rgb(97,255,0)" stroke-width="2" fill="none"></polyline>
<polyline points="1964.92,1522.8,5808.01,1862.08" stroke="rgb(12,0,255)" stroke-width="2" fill="none"></polyline>
<polyline points="1752.1,1525.37,5882.45,1826.41" stroke="rgb(0,153,255)" stroke-width="2" fill="none"></polyline>
<polyline points="2526.78,1530.93,5269.02,1056.75" stroke="rgb(195,0,255)" stroke-width="2" fill="none"></polyline>
<polyline points="1980.49,1535.03,6010.17,983.951" stroke="rgb(63,255,0)" stroke-width="2" fill="none"></polyline>
<polyline points="1598.39,1537.26,5551.32,1508.68" stroke="rgb(255,187,0)" stroke-width="2" fill="none"></polyline>
<polyline points="2453.64,1540.04,7115.14,1815.01" stroke="rgb(0,144,255)" stroke-width="2" fill="none"></polyline>
<polyline points="1883.4,1543.16,6686.86,1361.77" stroke="rgb(0,101,255)" stroke-width="2" fill="none"></polyline>
<polyline points="960.708,1543.8,5826.57,777.046" stroke="rgb(255,25,0)" stroke-width="2" fill="none"></polyline>
<polyline points="1720.95,1566.35,6614.97,1210.87" stroke="rgb(0,255,4)" stroke-width="2" fill="none"></polyline>
<polyline points="1087.32,1566.57,6088.09,913.17" stroke="rgb(38,0,255)" stroke-width="2" fill="none"></polyline>
<polyline points="2323.53,1577.2,5278.55,1114.8" stroke="rgb(0,255,165)" stroke-width="2" fill="none"></polyline>
<polyline points="1028.32,1612.79,6076.49,2322.26" stroke="rgb(102,0,255)" stroke-width="2" fill="none"></polyline>
<polyline points="1523.25,1613.66,6564.71,1402.09" stroke="rgb(0,135,255)" stroke-width="2" fill="none"></polyline>
<polyline points="993.094,1636.27,5209.75,1207.43" stroke="rgb(0,255,8)" stroke-width="2" fill="none"></polyline>
<polyline points="934.719,1640.51,5168.84,1171.2" stroke="rgb(21,0,255)" stroke-width="2" fill="none"></polyline>
<polyline points="926.492,1667.52,5105.22,1174.55" stroke="rgb(255,0,246)" stroke-width="2" fill="none"></polyline>
<polyline points="1259.19,1681.49,6011.86,1561.83" stroke="rgb(255,238,0)" stroke-width="2" fill="none"></polyline>
<polyline points="1409.82,1693.24,5832.6,1556.14" stroke="rgb(255,51,0)" stroke-width="2" fill="none"></polyline>
<polyline points="883.966,1693.6,5094.1,1171.79" stroke="rgb(80,0,255)" stroke-width="2" fill="none"></polyline>
<polyline points="1647.75,1694.31,5590.49,1561.19" stroke="rgb(182,255,0)" stroke-width="2" fill="none"></polyline>
<polyline points="982.677,1705.69,5148.91,1241.5" stroke="rgb(80,255,0)" stroke-width="2" fill="none"></polyline>
<polyline points="860.077,1708.8,5068.04,1167.07" stroke="rgb(212,0,255)" stroke-width="2" fill="none"></polyline>
<polyline points="1633.85,1710.1,5572.47,1556.03" stroke="rgb(80,0,255)" stroke-width="2" fill="none"></polyline>
<polyline points="2257.53,1717.37,6693.62,1337.79" stroke="rgb(255,93,0)" stroke-width="2" fill="none"></polyline>
<polyline points="851.933,1728.37,5049.17,1170.97" stroke="rgb(0,255,140)" stroke-width="2" fill="none"></polyline>
<polyline points="2318.04,1732.78,5319.88,1069.37" stroke="rgb(255,80,0)" stroke-width="2" fill="none"></polyline>
<polyline points="1636.45,1747.01,6575.59,1754.59" stroke="rgb(16,255,0)" stroke-width="2" fill="none"></polyline>
<polyline points="794.116,1771.79,6567.67,1199.63" stroke="rgb(187,255,0)" stroke-width="2" fill="none"></polyline>
<polyline points="1839.94,1776.04,5598.81,979.648" stroke="rgb(255,208,0)" stroke-width="2" fill="none"></polyline>
<polyline points="1506.18,1776.51,6395.34,1200.81" stroke="rgb(0,255,242)" stroke-width="2" fill="none"></polyline>
<polyline points="2284.48,1785.36,5660.95,1513.54" stroke="rgb(255,191,0)" stroke-width="2" fill="none"></polyline>
<polyline points="1426.39,1805.24,5564.38,846.86" stroke="rgb(0,255,186)" stroke-width="2" fill="none"></polyline>
<polyline points="1738.79,1813.33,6195.23,1670" stroke="rgb(55,0,255)" stroke-width="2" fill="none"></polyline>
<polyline points="1854.79,1815.87,5915.95,823.22" stroke="rgb(255,0,123)" stroke-width="2" fill="none"></polyline>
<polyline points="782.291,1819.26,4943.68,1153.14" stroke="rgb(123,0,255)" stroke-width="2" fill="none"></polyline>
<polyline points="786.074,1824.66,4941.86,1167.57" stroke="rgb(246,0,255)" stroke-width="2" fill="none"></polyline>
<polyline points="1454.06,1825.17,5965.03,1136.89" stroke="rgb(255,208,0)" stroke-width="2" fill="none"></polyline>
<polyline points="2185.53,1827.71,5853.72,1055.02" stroke="rgb(0,255,25)" stroke-width="2" fill="none"></polyline>
<polyline points="1765.16,1832.22,5066.92,950.307" stroke="rgb(255,0,237)" stroke-width="2" fill="none"></polyline>
<polyline points="1427.71,1836.77,5978.77,1127.09" stroke="rgb(255,182,0)" stroke-width="2" fill="none"></polyline>
<polyline points="813.462,1858.84,6824.68,1225.3" stroke="rgb(255,63,0)" stroke-width="2" fill="none"></polyline>
<polyline points="661.718,1866.26,5830.11,1012.85" stroke="rgb(255,0,106)" stroke-width="2" fill="none"></polyline>
<polyline points="1503.87,1869.95,6200.01,2503.26" stroke="rgb(255,0,225)" stroke-width="2" fill="none"></polyline>
<polyline points="1222.6,1924.8,6142.64,1673.56" stroke="rgb(106,255,0)" stroke-width="2" fill="none"></polyline>
<polyline points="1046.15,1926.13,5541.23,1302.56" stroke="rgb(255,0,131)" stroke-width="2" fill="none"></polyline>
<polyline points="1038.84,1965.66,6618.36,2220.4" stroke="rgb(237,255,0)" stroke-width="2" fill="none"></polyline>
<polyline points="1137.78,1986.82,6208.93,1630.28" stroke="rgb(255,157,0)" stroke-width="2" fill="none"></polyline>
<polyline points="1090.3,1998.45,6505.8,1791.53" stroke="rgb(255,110,0)" stroke-width="2" fill="none"></polyline>
<circle cx="2071.89" cy="160.376" r="4" stroke="rgb(255,148,0)" stroke-width="2" fill="none"></circle>
<circle cx="6656.22" cy="2067.39" r="4" stroke="rgb(255,148,0)" stroke-width="2" fill="none"></circle>
<circle cx="1987.72" cy="396.573" r="4" stroke="rgb(0,157,255)" stroke-width="2" fill="none"></circle>
<circle cx="6142.96" cy="2555.76" r="4" stroke="rgb(0,157,255)" stroke-width="2" fill="none"></circle>
<circle cx="2036.16" cy="451.945" r="4" stroke="rgb(38,255,0)" stroke-width="2" fill="none"></circle>
<circle cx="6229.31" cy="1640.23" r="4" stroke="rgb(38,255,0)" stroke-width="2" fill="none"></circle>
<circle cx="2024.84" cy="466.869" r="4" stroke="rgb(0,255,199)" stroke-width="2" fill="none"></circle>
<circle cx="5855.9" cy="919.68" r="4" stroke="rgb(0,255,199)" stroke-width="2" fill="none"></circle>
<circle cx="2209.23" cy="589.106" r="4" stroke="rgb(0,255,67)" stroke-width="2" fill="none"></circle>
<circle cx="5142.8" cy="862.965" r="4" stroke="rgb(0,255,67)" stroke-width="2" fill="none"></circle>
<circle cx="2192.5" cy="591.09" r="4" stroke="rgb(0,255,174)" stroke-width="2" fill="none"></circle>
<circle cx="5928.82" cy="974.077" r="4" stroke="rgb(0,255,174)" stroke-width="2" fill="none"></circle>
<circle cx="2307.35" cy="700.755" r="4" stroke="rgb(208,255,0)" stroke-width="2" fill="none"></circle>
<circle cx="6784.95" cy="1201.83" r="4" stroke="rgb(208,255,0)" stroke-width="2" fill="none"></circle>
<circle cx="1551.56" cy="707.123" r="4" stroke="rgb(63,0,255)" stroke-width="2" fill="none"></circle>
<circle cx="6439.46" cy="1236.17" r="4" stroke="rgb(63,0,255)" stroke-width="2" fill="none"></circle>
<circle cx="2075.91" cy="800.561" r="4" stroke="rgb(255,21,0)" stroke-width="2" fill="none"></circle>
<circle cx="6351.56" cy="885.467" r="4" stroke="rgb(255,21,0)" stroke-width="2" fill="none"></circle>
<circle cx="2196.89" cy="825.526" r="4" stroke="rgb(0,29,255)" stroke-width="2" fill="none"></circle>
<circle cx="5897.93" cy="1499.77" r="4" stroke="rgb(0,29,255)" stroke-width="2" fill="none"></circle>
<circle cx="2559.52" cy="829.922" r="4" stroke="rgb(0,157,255)" stroke-width="2" fill="none"></circle>
<circle cx="6320.4" cy="972.964" r="4" stroke="rgb(0,157,255)" stroke-width="2" fill="none"></circle>
<circle cx="2348.51" cy="845.181" r="4" stroke="rgb(255,0,106)" stroke-width="2" fill="none"></circle>
<circle cx="6483.92" cy="1081.15" r="4" stroke="rgb(255,0,106)" stroke-width="2" fill="none"></circle>
<circle cx="2564.93" cy="845.722" r="4" stroke="rgb(216,0,255)" stroke-width="2" fill="none"></circle>
<circle cx="6949.66" cy="1900.85" r="4" stroke="rgb(216,0,255)" stroke-width="2" fill="none"></circle>
<circle cx="1447.08" cy="870.739" r="4" stroke="rgb(255,0,225)" stroke-width="2" fill="none"></circle>
<circle cx="5872.83" cy="1867.44" r="4" stroke="rgb(255,0,225)" stroke-width="2" fill="none"></circle>
<circle cx="1428.41" cy="875.128" r="4" stroke="rgb(0,93,255)" stroke-width="2" fill="none"></circle>
<circle cx="5897.56" cy="1062.99" r="4" stroke="rgb(0,93,255)" stroke-width="2" fill="none"></circle>
<circle cx="2397.69" cy="881.467" r="4" stroke="rgb(0,93,255)" stroke-width="2" fill="none"></circle>
<circle cx="5533.13" cy="917.057" r="4" stroke="rgb(0,93,255)" stroke-width="2" fill="none"></circle>
<circle cx="1937.09" cy="884.742" r="4" stroke="rgb(0,255,237)" stroke-width="2" fill="none"></circle>
<circle cx="6621.22" cy="1371.82" r="4" stroke="rgb(0,255,237)" stroke-width="2" fill="none"></circle>
<circle cx="1397.75" cy="899.471" r="4" stroke="rgb(165,255,0)" stroke-width="2" fill="none"></circle>
<circle cx="6067.94" cy="1182.58" r="4" stroke="rgb(165,255,0)" stroke-width="2" fill="none"></circle>
<circle cx="2061.88" cy="901.11" r="4" stroke="rgb(93,255,0)" stroke-width="2" fill="none"></circle>
<circle cx="6846.28" cy="1592.19" r="4" stroke="rgb(93,255,0)" stroke-width="2" fill="none"></circle>
<circle cx="1403.12" cy="906.387" r="4" stroke="rgb(255,0,8)" stroke-width="2" fill="none"></circle>
<circle cx="5547.26" cy="908.243" r="4" stroke="rgb(255,0,8)" stroke-width="2" fill="none"></circle>
<circle cx="2334" cy="923.994" r="4" stroke="rgb(25,0,255)" stroke-width="2" fill="none"></circle>
<circle cx="5907.21" cy="1669.34" r="4" stroke="rgb(25,0,255)" stroke-width="2" fill="none"></circle>
<circle cx="2139.82" cy="936.628" r="4" stroke="rgb(4,0,255)" stroke-width="2" fill="none"></circle>
<circle cx="5740.44" cy="1757.16" r="4" stroke="rgb(4,0,255)" stroke-width="2" fill="none"></circle>
<circle cx="1374.1" cy="953.163" r="4" stroke="rgb(55,255,0)" stroke-width="2" fill="none"></circle>
<circle cx="5969.08" cy="1214.91" r="4" stroke="rgb(55,255,0)" stroke-width="2" fill="none"></circle>
<circle cx="1367.78" cy="954.949" r="4" stroke="rgb(0,46,255)" stroke-width="2" fill="none"></circle>
<circle cx="6005.21" cy="1171.98" r="4" stroke="rgb(0,46,255)" stroke-width="2" fill="none"></circle>
<circle cx="1884.12" cy="969.772" r="4" stroke="rgb(0,55,255)" stroke-width="2" fill="none"></circle>
<circle cx="6571.06" cy="1286.1" r="4" stroke="rgb(0,55,255)" stroke-width="2" fill="none"></circle>
<circle cx="1958.25" cy="977.733" r="4" stroke="rgb(0,255,152)" stroke-width="2" fill="none"></circle>
<circle cx="5927.72" cy="1708.77" r="4" stroke="rgb(0,255,152)" stroke-width="2" fill="none"></circle>
<circle cx="1335.65" cy="978.941" r="4" stroke="rgb(0,0,255)" stroke-width="2" fill="none"></circle>
<circle cx="5545.66" cy="815.313" r="4" stroke="rgb(0,0,255)" stroke-width="2" fill="none"></circle>
<circle cx="2092.44" cy="981.817" r="4" stroke="rgb(0,255,237)" stroke-width="2" fill="none"></circle>
<circle cx="5692.13" cy="1791.46" r="4" stroke="rgb(0,255,237)" stroke-width="2" fill="none"></circle>
<circle cx="1321.97" cy="1014.51" r="4" stroke="rgb(255,195,0)" stroke-width="2" fill="none"></circle>
<circle cx="5940.15" cy="1132.28" r="4" stroke="rgb(255,195,0)" stroke-width="2" fill="none"></circle>
<circle cx="1999.91" cy="1029.05" r="4" stroke="rgb(0,255,97)" stroke-width="2" fill="none"></circle>
<circle cx="6597.12" cy="1320.03" r="4" stroke="rgb(0,255,97)" stroke-width="2" fill="none"></circle>
<circle cx="1930.58" cy="1035.08" r="4" stroke="rgb(106,0,255)" stroke-width="2" fill="none"></circle>
<circle cx="5854.07" cy="1738.81" r="4" stroke="rgb(106,0,255)" stroke-width="2" fill="none"></circle>
<circle cx="1875.09" cy="1047.49" r="4" stroke="rgb(255,0,195)" stroke-width="2" fill="none"></circle>
<circle cx="5884.04" cy="1778.46" r="4" stroke="rgb(255,0,195)" stroke-width="2" fill="none"></circle>
<circle cx="2146.29" cy="1055.09" r="4" stroke="rgb(0,89,255)" stroke-width="2" fill="none"></circle>
<circle cx="6114.56" cy="978.841" r="4" stroke="rgb(0,89,255)" stroke-width="2" fill="none"></circle>
<circle cx="1949.33" cy="1056.75" r="4" stroke="rgb(34,0,255)" stroke-width="2" fill="none"></circle>
<circle cx="5861.08" cy="1786.18" r="4" stroke="rgb(34,0,255)" stroke-width="2" fill="none"></circle>
<circle cx="1327.28" cy="1061.42" r="4" stroke="rgb(0,255,4)" stroke-width="2" fill="none"></circle>
<circle cx="5535.3" cy="937.707" r="4" stroke="rgb(0,255,4)" stroke-width="2" fill="none"></circle>
<circle cx="2145.42" cy="1069.01" r="4" stroke="rgb(0,55,255)" stroke-width="2" fill="none"></circle>
<circle cx="5578.93" cy="715.202" r="4" stroke="rgb(0,55,255)" stroke-width="2" fill="none"></circle>
<circle cx="2001.6" cy="1070.48" r="4" stroke="rgb(255,208,0)" stroke-width="2" fill="none"></circle>
<circle cx="5880.22" cy="1736.5" r="4" stroke="rgb(255,208,0)" stroke-width="2" fill="none"></circle>
<circle cx="1342.65" cy="1074.59" r="4" stroke="rgb(0,203,255)" stroke-width="2" fill="none"></circle>
<circle cx="5625.53" cy="922.291" r="4" stroke="rgb(0,203,255)" stroke-width="2" fill="none"></circle>
<circle cx="1574.19" cy="1086.43" r="4" stroke="rgb(0,255,12)" stroke-width="2" fill="none"></circle>
<circle cx="6661.57" cy="1325.38" r="4" stroke="rgb(0,255,12)" stroke-width="2" fill="none"></circle>
<circle cx="1259.62" cy="1087.58" r="4" stroke="rgb(199,0,255)" stroke-width="2" fill="none"></circle>
<circle cx="5866.05" cy="1061.63" r="4" stroke="rgb(199,0,255)" stroke-width="2" fill="none"></circle>
<circle cx="2703.72" cy="1096.8" r="4" stroke="rgb(242,0,255)" stroke-width="2" fill="none"></circle>
<circle cx="5676.61" cy="1669.62" r="4" stroke="rgb(242,0,255)" stroke-width="2" fill="none"></circle>
<circle cx="1321.21" cy="1097.78" r="4" stroke="rgb(0,178,255)" stroke-width="2" fill="none"></circle>
<circle cx="5933.11" cy="1113.13" r="4" stroke="rgb(0,178,255)" stroke-width="2" fill="none"></circle>
<circle cx="1235.93" cy="1106.22" r="4" stroke="rgb(0,255,59)" stroke-width="2" fill="none"></circle>
<circle cx="5777.77" cy="996.375" r="4" stroke="rgb(0,255,59)" stroke-width="2" fill="none"></circle>
<circle cx="1279.39" cy="1122.89" r="4" stroke="rgb(84,255,0)" stroke-width="2" fill="none"></circle>
<circle cx="6023.93" cy="1305.08" r="4" stroke="rgb(84,255,0)" stroke-width="2" fill="none"></circle>
<circle cx="1268.48" cy="1134.82" r="4" stroke="rgb(0,255,110)" stroke-width="2" fill="none"></circle>
<circle cx="5520.13" cy="939.179" r="4" stroke="rgb(0,255,110)" stroke-width="2" fill="none"></circle>
<circle cx="2094.46" cy="1141.48" r="4" stroke="rgb(255,0,33)" stroke-width="2" fill="none"></circle>
<circle cx="5775.81" cy="748.942" r="4" stroke="rgb(255,0,33)" stroke-width="2" fill="none"></circle>
<circle cx="2231.45" cy="1156.78" r="4" stroke="rgb(255,0,178)" stroke-width="2" fill="none"></circle>
<circle cx="6080.73" cy="913.449" r="4" stroke="rgb(255,0,178)" stroke-width="2" fill="none"></circle>
<circle cx="1387.1" cy="1164.95" r="4" stroke="rgb(255,0,161)" stroke-width="2" fill="none"></circle>
<circle cx="6004.48" cy="1557.27" r="4" stroke="rgb(255,0,161)" stroke-width="2" fill="none"></circle>
<circle cx="1261.07" cy="1166.14" r="4" stroke="rgb(199,255,0)" stroke-width="2" fill="none"></circle>
<circle cx="5794.15" cy="1099.91" r="4" stroke="rgb(199,255,0)" stroke-width="2" fill="none"></circle>
<circle cx="1284.78" cy="1174.28" r="4" stroke="rgb(255,242,0)" stroke-width="2" fill="none"></circle>
<circle cx="5535.3" cy="937.707" r="4" stroke="rgb(255,242,0)" stroke-width="2" fill="none"></circle>
<circle cx="1274.52" cy="1175.83" r="4" stroke="rgb(255,0,169)" stroke-width="2" fill="none"></circle>
<circle cx="6804.98" cy="1547.88" r="4" stroke="rgb(255,0,169)" stroke-width="2" fill="none"></circle>
<circle cx="1257.65" cy="1197.18" r="4" stroke="rgb(255,0,174)" stroke-width="2" fill="none"></circle>
<circle cx="5927.2" cy="1078.7" r="4" stroke="rgb(255,0,174)" stroke-width="2" fill="none"></circle>
<circle cx="1252.13" cy="1201.82" r="4" stroke="rgb(0,255,212)" stroke-width="2" fill="none"></circle>
<circle cx="5674.81" cy="924.449" r="4" stroke="rgb(0,255,212)" stroke-width="2" fill="none"></circle>
<circle cx="1226.17" cy="1212.7" r="4" stroke="rgb(254,0,255)" stroke-width="2" fill="none"></circle>
<circle cx="5479.63" cy="786.118" r="4" stroke="rgb(254,0,255)" stroke-width="2" fill="none"></circle>
<circle cx="2125.3" cy="1222.28" r="4" stroke="rgb(250,255,0)" stroke-width="2" fill="none"></circle>
<circle cx="6195.57" cy="1355.38" r="4" stroke="rgb(250,255,0)" stroke-width="2" fill="none"></circle>
<circle cx="2142.51" cy="1234.79" r="4" stroke="rgb(255,157,0)" stroke-width="2" fill="none"></circle>
<circle cx="5972.3" cy="1253.64" r="4" stroke="rgb(255,157,0)" stroke-width="2" fill="none"></circle>
<circle cx="2331.97" cy="1236.49" r="4" stroke="rgb(101,255,0)" stroke-width="2" fill="none"></circle>
<circle cx="5750.84" cy="1440.98" r="4" stroke="rgb(101,255,0)" stroke-width="2" fill="none"></circle>
<circle cx="2325.13" cy="1249.08" r="4" stroke="rgb(0,255,225)" stroke-width="2" fill="none"></circle>
<circle cx="6742.71" cy="2012.4" r="4" stroke="rgb(0,255,225)" stroke-width="2" fill="none"></circle>
<circle cx="1754.74" cy="1252.86" r="4" stroke="rgb(0,114,255)" stroke-width="2" fill="none"></circle>
<circle cx="6629.07" cy="1691.07" r="4" stroke="rgb(0,114,255)" stroke-width="2" fill="none"></circle>
<circle cx="1649.49" cy="1273.99" r="4" stroke="rgb(255,59,0)" stroke-width="2" fill="none"></circle>
<circle cx="5877.17" cy="1931.08" r="4" stroke="rgb(255,59,0)" stroke-width="2" fill="none"></circle>
<circle cx="2714.35" cy="1275.8" r="4" stroke="rgb(255,0,182)" stroke-width="2" fill="none"></circle>
<circle cx="5893.28" cy="736.364" r="4" stroke="rgb(255,0,182)" stroke-width="2" fill="none"></circle>
<circle cx="1914.83" cy="1280.57" r="4" stroke="rgb(255,0,42)" stroke-width="2" fill="none"></circle>
<circle cx="5799.95" cy="1285.38" r="4" stroke="rgb(255,0,42)" stroke-width="2" fill="none"></circle>
<circle cx="1262.02" cy="1285.35" r="4" stroke="rgb(255,0,136)" stroke-width="2" fill="none"></circle>
<circle cx="5420.27" cy="891.791" r="4" stroke="rgb(255,0,136)" stroke-width="2" fill="none"></circle>
<circle cx="1651.29" cy="1288.07" r="4" stroke="rgb(255,204,0)" stroke-width="2" fill="none"></circle>
<circle cx="5587.43" cy="1385.86" r="4" stroke="rgb(255,204,0)" stroke-width="2" fill="none"></circle>
<circle cx="1665.05" cy="1289.77" r="4" stroke="rgb(0,4,255)" stroke-width="2" fill="none"></circle>
<circle cx="4903.22" cy="1097.57" r="4" stroke="rgb(0,4,255)" stroke-width="2" fill="none"></circle>
<circle cx="1816.75" cy="1296.44" r="4" stroke="rgb(131,255,0)" stroke-width="2" fill="none"></circle>
<circle cx="6439.79" cy="940.026" r="4" stroke="rgb(131,255,0)" stroke-width="2" fill="none"></circle>
<circle cx="2189.34" cy="1302.93" r="4" stroke="rgb(148,0,255)" stroke-width="2" fill="none"></circle>
<circle cx="5687.31" cy="1498.06" r="4" stroke="rgb(148,0,255)" stroke-width="2" fill="none"></circle>
<circle cx="2232.29" cy="1303.25" r="4" stroke="rgb(0,255,169)" stroke-width="2" fill="none"></circle>
<circle cx="6353.76" cy="1271.13" r="4" stroke="rgb(0,255,169)" stroke-width="2" fill="none"></circle>
<circle cx="1892.25" cy="1308.5" r="4" stroke="rgb(0,255,140)" stroke-width="2" fill="none"></circle>
<circle cx="5961.46" cy="1463.9" r="4" stroke="rgb(0,255,140)" stroke-width="2" fill="none"></circle>
<circle cx="2071.57" cy="1318.22" r="4" stroke="rgb(127,0,255)" stroke-width="2" fill="none"></circle>
<circle cx="5953.45" cy="1800.16" r="4" stroke="rgb(127,0,255)" stroke-width="2" fill="none"></circle>
<circle cx="1758.85" cy="1321.93" r="4" stroke="rgb(255,0,174)" stroke-width="2" fill="none"></circle>
<circle cx="5758.63" cy="1382.02" r="4" stroke="rgb(255,0,174)" stroke-width="2" fill="none"></circle>
<circle cx="1705.52" cy="1323.61" r="4" stroke="rgb(255,0,161)" stroke-width="2" fill="none"></circle>
<circle cx="5754.11" cy="1095.17" r="4" stroke="rgb(255,0,161)" stroke-width="2" fill="none"></circle>
<circle cx="1654.08" cy="1326.56" r="4" stroke="rgb(46,255,0)" stroke-width="2" fill="none"></circle>
<circle cx="5235.68" cy="1431.3" r="4" stroke="rgb(46,255,0)" stroke-width="2" fill="none"></circle>
<circle cx="1743.43" cy="1328.99" r="4" stroke="rgb(114,255,0)" stroke-width="2" fill="none"></circle>
<circle cx="6790.27" cy="1218.53" r="4" stroke="rgb(114,255,0)" stroke-width="2" fill="none"></circle>
<circle cx="1469.67" cy="1332.35" r="4" stroke="rgb(246,255,0)" stroke-width="2" fill="none"></circle>
<circle cx="5586.76" cy="831.709" r="4" stroke="rgb(246,255,0)" stroke-width="2" fill="none"></circle>
<circle cx="1088.53" cy="1333.12" r="4" stroke="rgb(63,0,255)" stroke-width="2" fill="none"></circle>
<circle cx="7061.47" cy="1296.33" r="4" stroke="rgb(63,0,255)" stroke-width="2" fill="none"></circle>
<circle cx="1693.87" cy="1338.6" r="4" stroke="rgb(148,255,0)" stroke-width="2" fill="none"></circle>
<circle cx="6590.99" cy="1100.49" r="4" stroke="rgb(148,255,0)" stroke-width="2" fill="none"></circle>
<circle cx="2695.89" cy="1343.94" r="4" stroke="rgb(255,89,0)" stroke-width="2" fill="none"></circle>
<circle cx="5959.74" cy="2296.58" r="4" stroke="rgb(255,89,0)" stroke-width="2" fill="none"></circle>
<circle cx="1416.51" cy="1365.63" r="4" stroke="rgb(131,255,0)" stroke-width="2" fill="none"></circle>
<circle cx="5957.93" cy="2288.12" r="4" stroke="rgb(131,255,0)" stroke-width="2" fill="none"></circle>
<circle cx="1415.85" cy="1371.92" r="4" stroke="rgb(255,131,0)" stroke-width="2" fill="none"></circle>
<circle cx="6040.07" cy="775.094" r="4" stroke="rgb(255,131,0)" stroke-width="2" fill="none"></circle>
<circle cx="1252.97" cy="1377.26" r="4" stroke="rgb(255,0,212)" stroke-width="2" fill="none"></circle>
<circle cx="5448.17" cy="1182.31" r="4" stroke="rgb(255,0,212)" stroke-width="2" fill="none"></circle>
<circle cx="1123.52" cy="1387.63" r="4" stroke="rgb(174,0,255)" stroke-width="2" fill="none"></circle>
<circle cx="5526.89" cy="867.014" r="4" stroke="rgb(174,0,255)" stroke-width="2" fill="none"></circle>
<circle cx="1172.86" cy="1396.74" r="4" stroke="rgb(255,0,42)" stroke-width="2" fill="none"></circle>
<circle cx="6740.92" cy="2045.61" r="4" stroke="rgb(255,0,42)" stroke-width="2" fill="none"></circle>
<circle cx="1556.78" cy="1409.96" r="4" stroke="rgb(0,255,0)" stroke-width="2" fill="none"></circle>
<circle cx="6156.16" cy="1667.81" r="4" stroke="rgb(0,255,0)" stroke-width="2" fill="none"></circle>
<circle cx="1669.52" cy="1440.1" r="4" stroke="rgb(0,80,255)" stroke-width="2" fill="none"></circle>
<circle cx="5935.14" cy="1826.99" r="4" stroke="rgb(0,80,255)" stroke-width="2" fill="none"></circle>
<circle cx="2447.03" cy="1444.64" r="4" stroke="rgb(182,0,255)" stroke-width="2" fill="none"></circle>
<circle cx="6668.96" cy="1168.81" r="4" stroke="rgb(182,0,255)" stroke-width="2" fill="none"></circle>
<circle cx="1048.11" cy="1476.52" r="4" stroke="rgb(0,255,157)" stroke-width="2" fill="none"></circle>
<circle cx="5767.5" cy="1410.75" r="4" stroke="rgb(0,255,157)" stroke-width="2" fill="none"></circle>
<circle cx="1274.19" cy="1485.36" r="4" stroke="rgb(0,216,255)" stroke-width="2" fill="none"></circle>
<circle cx="5550.05" cy="1040.57" r="4" stroke="rgb(0,216,255)" stroke-width="2" fill="none"></circle>
<circle cx="1999.25" cy="1489.78" r="4" stroke="rgb(97,255,0)" stroke-width="2" fill="none"></circle>
<circle cx="5940.49" cy="929.394" r="4" stroke="rgb(97,255,0)" stroke-width="2" fill="none"></circle>
<circle cx="1964.92" cy="1522.8" r="4" stroke="rgb(12,0,255)" stroke-width="2" fill="none"></circle>
<circle cx="5808.01" cy="1862.08" r="4" stroke="rgb(12,0,255)" stroke-width="2" fill="none"></circle>
<circle cx="1752.1" cy="1525.37" r="4" stroke="rgb(0,153,255)" stroke-width="2" fill="none"></circle>
<circle cx="5882.45" cy="1826.41" r="4" stroke="rgb(0,153,255)" stroke-width="2" fill="none"></circle>
<circle cx="2526.78" cy="1530.93" r="4" stroke="rgb(195,0,255)" stroke-width="2" fill="none"></circle>
<circle cx="5269.02" cy="1056.75" r="4" stroke="rgb(195,0,255)" stroke-width="2" fill="none"></circle>
<circle cx="1980.49" cy="1535.03" r="4" stroke="rgb(63,255,0)" stroke-width="2" fill="none"></circle>
<circle cx="6010.17" cy="983.951" r="4" stroke="rgb(63,255,0)" stroke-width="2" fill="none"></circle>
<circle cx="1598.39" cy="1537.26" r="4" stroke="rgb(255,187,0)" stroke-width="2" fill="none"></circle>
<circle cx="5551.32" cy="1508.68" r="4" stroke="rgb(255,187,0)" stroke-width="2" fill="none"></circle>
<circle cx="2453.64" cy="1540.04" r="4" stroke="rgb(0,144,255)" stroke-width="2" fill="none"></circle>
<circle cx="7115.14" cy="1815.01" r="4" stroke="rgb(0,144,255)" stroke-width="2" fill="none"></circle>
<circle cx="1883.4" cy="1543.16" r="4" stroke="rgb(0,101,255)" stroke-width="2" fill="none"></circle>
<circle cx="6686.86" cy="1361.77" r="4" stroke="rgb(0,101,255)" stroke-width="2" fill="none"></circle>
<circle cx="960.708" cy="1543.8" r="4" stroke="rgb(255,25,0)" stroke-width="2" fill="none"></circle>
<circle cx="5826.57" cy="777.046" r="4" stroke="rgb(255,25,0)" stroke-width="2" fill="none"></circle>
<circle cx="1720.95" cy="1566.35" r="4" stroke="rgb(0,255,4)" stroke-width="2" fill="none"></circle>
<circle cx="6614.97" cy="1210.87" r="4" stroke="rgb(0,255,4)" stroke-width="2" fill="none"></circle>
<circle cx="1087.32" cy="1566.57" r="4" stroke="rgb(38,0,255)" stroke-width="2" fill="none"></circle>
<circle cx="6088.09" cy="913.17" r="4" stroke="rgb(38,0,255)" stroke-width="2" fill="none"></circle>
<circle cx="2323.53" cy="1577.2" r="4" stroke="rgb(0,255,165)" stroke-width="2" fill="none"></circle>
<circle cx="5278.55" cy="1114.8" r="4" stroke="rgb(0,255,165)" stroke-width="2" fill="none"></circle>
<circle cx="1028.32" cy="1612.79" r="4" stroke="rgb(102,0,255)" stroke-width="2" fill="none"></circle>
<circle cx="6076.49" cy="2322.26" r="4" stroke="rgb(102,0,255)" stroke-width="2" fill="none"></circle>
<circle cx="1523.25" cy="1613.66" r="4" stroke="rgb(0,135,255)" stroke-width="2" fill="none"></circle>
<circle cx="6564.71" cy="1402.09" r="4" stroke="rgb(0,135,255)" stroke-width="2" fill="none"></circle>
<circle cx="993.094" cy="1636.27" r="4" stroke="rgb(0,255,8)" stroke-width="2" fill="none"></circle>
<circle cx="5209.75" cy="1207.43" r="4" stroke="rgb(0,255,8)" stroke-width="2" fill="none"></circle>
<circle cx="934.719" cy="1640.51" r="4" stroke="rgb(21,0,255)" stroke-width="2" fill="none"></circle>
<circle cx="5168.84" cy="1171.2" r="4" stroke="rgb(21,0,255)" stroke-width="2" fill="none"></circle>
<circle cx="926.492" cy="1667.52" r="4" stroke="rgb(255,0,246)" stroke-width="2" fill="none"></circle>
<circle cx="5105.22" cy="1174.55" r="4" stroke="rgb(255,0,246)" stroke-width="2" fill="none"></circle>
<circle cx="1259.19" cy="1681.49" r="4" stroke="rgb(255,238,0)" stroke-width="2" fill="none"></circle>
<circle cx="6011.86" cy="1561.83" r="4" stroke="rgb(255,238,0)" stroke-width="2" fill="none"></circle>
<circle cx="1409.82" cy="1693.24" r="4" stroke="rgb(255,51,0)" stroke-width="2" fill="none"></circle>
<circle cx="5832.6" cy="1556.14" r="4" stroke="rgb(255,51,0)" stroke-width="2" fill="none"></circle>
<circle cx="883.966" cy="1693.6" r="4" stroke="rgb(80,0,255)" stroke-width="2" fill="none"></circle>
<circle cx="5094.1" cy="1171.79" r="4" stroke="rgb(80,0,255)" stroke-width="2" fill="none"></circle>
<circle cx="1647.75" cy="1694.31" r="4" stroke="rgb(182,255,0)" stroke-width="2" fill="none"></circle>
<circle cx="5590.49" cy="1561.19" r="4" stroke="rgb(182,255,0)" stroke-width="2" fill="none"></circle>
<circle cx="982.677" cy="1705.69" r="4" stroke="rgb(80,255,0)" stroke-width="2" fill="none"></circle>
<circle cx="5148.91" cy="1241.5" r="4" stroke="rgb(80,255,0)" stroke-width="2" fill="none"></circle>
<circle cx="860.077" cy="1708.8" r="4" stroke="rgb(212,0,255)" stroke-width="2" fill="none"></circle>
<circle cx="5068.04" cy="1167.07" r="4" stroke="rgb(212,0,255)" stroke-width="2" fill="none"></circle>
<circle cx="1633.85" cy="1710.1" r="4" stroke="rgb(80,0,255)" stroke-width="2" fill="none"></circle>
<circle cx="5572.47" cy="1556.03" r="4" stroke="rgb(80,0,255)" stroke-width="2" fill="none"></circle>
<circle cx="2257.53" cy="1717.37" r="4" stroke="rgb(255,93,0)" stroke-width="2" fill="none"></circle>
<circle cx="6693.62" cy="1337.79" r="4" stroke="rgb(255,93,0)" stroke-width="2" fill="none"></circle>
<circle cx="851.933" cy="1728.37" r="4" stroke="rgb(0,255,140)" stroke-width="2" fill="none"></circle>
<circle cx="5049.17" cy="1170.97" r="4" stroke="rgb(0,255,140)" stroke-width="2" fill="none"></circle>
<circle cx="2318.04" cy="1732.78" r="4" stroke="rgb(255,80,0)" stroke-width="2" fill="none"></circle>
<circle cx="5319.88" cy="1069.37" r="4" stroke="rgb(255,80,0)" stroke-width="2" fill="none"></circle>
<circle cx="1636.45" cy="1747.01" r="4" stroke="rgb(16,255,0)" stroke-width="2" fill="none"></circle>
<circle cx="6575.59" cy="1754.59" r="4" stroke="rgb(16,255,0)" stroke-width="2" fill="none"></circle>
<circle cx="794.116" cy="1771.79" r="4" stroke="rgb(187,255,0)" stroke-width="2" fill="none"></circle>
<circle cx="6567.67" cy="1199.63" r="4" stroke="rgb(187,255,0)" stroke-width="2" fill="none"></circle>
<circle cx="1839.94" cy="1776.04" r="4" stroke="rgb(255,208,0)" stroke-width="2" fill="none"></circle>
<circle cx="5598.81" cy="979.648" r="4" stroke="rgb(255,208,0)" stroke-width="2" fill="none"></circle>
<circle cx="1506.18" cy="1776.51" r="4" stroke="rgb(0,255,242)" stroke-width="2" fill="none"></circle>
<circle cx="6395.34" cy="1200.81" r="4" stroke="rgb(0,255,242)" stroke-width="2" fill="none"></circle>
<circle cx="2284.48" cy="1785.36" r="4" stroke="rgb(255,191,0)" stroke-width="2" fill="none"></circle>
<circle cx="5660.95" cy="1513.54" r="4" stroke="rgb(255,191,0)" stroke-width="2" fill="none"></circle>
<circle cx="1426.39" cy="1805.24" r="4" stroke="rgb(0,255,186)" stroke-width="2" fill="none"></circle>
<circle cx="5564.38" cy="846.86" r="4" stroke="rgb(0,255,186)" stroke-width="2" fill="none"></circle>
<circle cx="1738.79" cy="1813.33" r="4" stroke="rgb(55,0,255)" stroke-width="2" fill="none"></circle>
<circle cx="6195.23" cy="1670" r="4" stroke="rgb(55,0,255)" stroke-width="2" fill="none"></circle>
<circle cx="1854.79" cy="1815.87" r="4" stroke="rgb(255,0,123)" stroke-width="2" fill="none"></circle>
<circle cx="5915.95" cy="823.22" r="4" stroke="rgb(255,0,123)" stroke-width="2" fill="none"></circle>
<circle cx="782.291" cy="1819.26" r="4" stroke="rgb(123,0,255)" stroke-width="2" fill="none"></circle>
<circle cx="4943.68" cy="1153.14" r="4" stroke="rgb(123,0,255)" stroke-width="2" fill="none"></circle>
<circle cx="786.074" cy="1824.66" r="4" stroke="rgb(246,0,255)" stroke-width="2" fill="none"></circle>
<circle cx="4941.86" cy="1167.57" r="4" stroke="rgb(246,0,255)" stroke-width="2" fill="none"></circle>
<circle cx="1454.06" cy="1825.17" r="4" stroke="rgb(255,208,0)" stroke-width="2" fill="none"></circle>
<circle cx="5965.03" cy="1136.89" r="4" stroke="rgb(255,208,0)" stroke-width="2" fill="none"></circle>
<circle cx="2185.53" cy="1827.71" r="4" stroke="rgb(0,255,25)" stroke-width="2" fill="none"></circle>
<circle cx="5853.72" cy="1055.02" r="4" stroke="rgb(0,255,25)" stroke-width="2" fill="none"></circle>
<circle cx="1765.16" cy="1832.22" r="4" stroke="rgb(255,0,237)" stroke-width="2" fill="none"></circle>
<circle cx="5066.92" cy="950.307" r="4" stroke="rgb(255,0,237)" stroke-width="2" fill="none"></circle>
<circle cx="1427.71" cy="1836.77" r="4" stroke="rgb(255,182,0)" stroke-width="2" fill="none"></circle>
<circle cx="5978.77" cy="1127.09" r="4" stroke="rgb(255,182,0)" stroke-width="2" fill="none"></circle>
<circle cx="813.462" cy="1858.84" r="4" stroke="rgb(255,63,0)" stroke-width="2" fill="none"></circle>
<circle cx="6824.68" cy="1225.3" r="4" stroke="rgb(255,63,0)" stroke-width="2" fill="none"></circle>
<circle cx="661.718" cy="1866.26" r="4" stroke="rgb(255,0,106)" stroke-width="2" fill="none"></circle>
<circle cx="5830.11" cy="1012.85" r="4" stroke="rgb(255,0,106)" stroke-width="2" fill="none"></circle>
<circle cx="1503.87" cy="1869.95" r="4" stroke="rgb(255,0,225)" stroke-width="2" fill="none"></circle>
<circle cx="6200.01" cy="2503.26" r="4" stroke="rgb(255,0,225)" stroke-width="2" fill="none"></circle>
<circle cx="1222.6" cy="1924.8" r="4" stroke="rgb(106,255,0)" stroke-width="2" fill="none"></circle>
<circle cx="6142.64" cy="1673.56" r="4" stroke="rgb(106,255,0)" stroke-width="2" fill="none"></circle>
<circle cx="1046.15" cy="1926.13" r="4" stroke="rgb(255,0,131)" stroke-width="2" fill="none"></circle>
<circle cx="5541.23" cy="1302.56" r="4" stroke="rgb(255,0,131)" stroke-width="2" fill="none"></circle>
<circle cx="1038.84" cy="1965.66" r="4" stroke="rgb(237,255,0)" stroke-width="2" fill="none"></circle>
<circle cx="6618.36" cy="2220.4" r="4" stroke="rgb(237,255,0)" stroke-width="2" fill="none"></circle>
<circle cx="1137.78" cy="1986.82" r="4" stroke="rgb(255,157,0)" stroke-width="2" fill="none"></circle>
<circle cx="6208.93" cy="1630.28" r="4" stroke="rgb(255,157,0)" stroke-width="2" fill="none"></circle>
<circle cx="1090.3" cy="1998.45" r="4" stroke="rgb(255,110,0)" stroke-width="2" fill="none"></circle>
<circle cx="6505.8" cy="1791.53" r="4" stroke="rgb(255,110,0)" stroke-width="2" fill="none"></circle>
</svg>