<?xml version="1.0" standalone="yes"?>
<!-- SVG graphic -->
<svg xmlns='http://www.w3.org/2000/svg' xmlns:xlink='http://www.w3.org/1999/xlink'
width="8064px" height="3024px" preserveAspectRatio="xMinYMin meet" viewBox="0 0 8064 3024" version="1.1">
<image x="0" y="0" width="4032px" height="3024px" opacity="1" xlink:href="/home/jeong/Code/2D-to-3D-Modeling-using-AI/Make3D/Image/20200227_180718.jpg"/>
<image x="4032" y="0" width="4032px" height="3024px" opacity="1" xlink:href="/home/jeong/Code/2D-to-3D-Modeling-using-AI/Make3D/Image/20200227_180803.jpg"/>
<polyline points="1795.58,601.675,4303.94,2145.69" stroke="rgb(0,51,255)" stroke-width="2" fill="none"></polyline>
<polyline points="1064.58,1215.26,4578.22,743.71" stroke="rgb(0,89,255)" stroke-width="2" fill="none"></polyline>
<polyline points="1750.64,619.216,5679.85,1003.18" stroke="rgb(255,0,148)" stroke-width="2" fill="none"></polyline>
<polyline points="1624.29,1803.46,5088.13,234.979" stroke="rgb(255,0,229)" stroke-width="2" fill="none"></polyline>
<polyline points="745.176,1508.47,4659.15,282.51" stroke="rgb(67,255,0)" stroke-width="2" fill="none"></polyline>
<polyline points="2447.27,1220.09,5546.16,1013.98" stroke="rgb(255,0,0)" stroke-width="2" fill="none"></polyline>
<polyline points="1793.84,800.523,5338.72,768.396" stroke="rgb(0,255,55)" stroke-width="2" fill="none"></polyline>
<polyline points="1335.71,1027.79,4585.43,308.385" stroke="rgb(97,255,0)" stroke-width="2" fill="none"></polyline>
<polyline points="1203.58,1056.85,4678.06,789.021" stroke="rgb(123,0,255)" stroke-width="2" fill="none"></polyline>
<polyline points="1246.58,1735.13,4743.02,2214.26" stroke="rgb(255,0,8)" stroke-width="2" fill="none"></polyline>
<polyline points="745.176,1508.47,4695.11,378.674" stroke="rgb(255,0,72)" stroke-width="2" fill="none"></polyline>
<polyline points="1095.25,1460.93,4982.14,959.578" stroke="rgb(85,0,255)" stroke-width="2" fill="none"></polyline>
<polyline points="1478.19,1681.63,5421.02,2254.53" stroke="rgb(255,110,0)" stroke-width="2" fill="none"></polyline>
<polyline points="745.176,1508.47,4709.31,404.86" stroke="rgb(161,0,255)" stroke-width="2" fill="none"></polyline>
<polyline points="745.176,1508.47,4732.81,408.275" stroke="rgb(229,0,255)" stroke-width="2" fill="none"></polyline>
<polyline points="1225.05,1111.74,4649.46,866.466" stroke="rgb(101,255,0)" stroke-width="2" fill="none"></polyline>
<polyline points="1225.05,1111.74,4626.1,432.238" stroke="rgb(255,51,0)" stroke-width="2" fill="none"></polyline>
<polyline points="741.667,1540.83,4739.37,459.058" stroke="rgb(0,255,25)" stroke-width="2" fill="none"></polyline>
<polyline points="728.813,1509.9,4760.58,459.792" stroke="rgb(0,255,33)" stroke-width="2" fill="none"></polyline>
<polyline points="1798.97,1588,4981.81,2336.84" stroke="rgb(0,255,50)" stroke-width="2" fill="none"></polyline>
<polyline points="1229.16,1124.66,4555.1,489.073" stroke="rgb(161,255,0)" stroke-width="2" fill="none"></polyline>
<polyline points="684.633,1807.04,5505.06,1098.87" stroke="rgb(0,255,67)" stroke-width="2" fill="none"></polyline>
<polyline points="1099.09,1063.11,4672.22,475.245" stroke="rgb(0,255,208)" stroke-width="2" fill="none"></polyline>
<polyline points="2075.74,1685.31,4771.26,2358.86" stroke="rgb(0,203,255)" stroke-width="2" fill="none"></polyline>
<polyline points="1078.86,1340.92,5768.28,491.156" stroke="rgb(0,119,255)" stroke-width="2" fill="none"></polyline>
<polyline points="2633.19,1404.11,5705.65,514.211" stroke="rgb(67,0,255)" stroke-width="2" fill="none"></polyline>
<polyline points="2180.6,825.435,4762.84,532.317" stroke="rgb(0,225,255)" stroke-width="2" fill="none"></polyline>
<polyline points="2180.6,825.435,4763.62,544.124" stroke="rgb(0,255,21)" stroke-width="2" fill="none"></polyline>
<polyline points="1476.32,1246.83,4343.65,562.589" stroke="rgb(0,199,255)" stroke-width="2" fill="none"></polyline>
<polyline points="1284.74,1115.99,4525.99,551.348" stroke="rgb(67,255,0)" stroke-width="2" fill="none"></polyline>
<polyline points="1468.85,1246.32,4337.5,565.831" stroke="rgb(0,101,255)" stroke-width="2" fill="none"></polyline>
<polyline points="1406.83,917.835,4693.2,557.928" stroke="rgb(250,255,0)" stroke-width="2" fill="none"></polyline>
<polyline points="1468.85,1246.32,4338.51,566.01" stroke="rgb(255,0,157)" stroke-width="2" fill="none"></polyline>
<polyline points="2180.6,825.435,4763.15,570.467" stroke="rgb(0,246,255)" stroke-width="2" fill="none"></polyline>
<polyline points="2407.55,1150.63,5484,2384.99" stroke="rgb(0,0,255)" stroke-width="2" fill="none"></polyline>
<polyline points="2617.34,1337,5503.74,1033.12" stroke="rgb(254,0,255)" stroke-width="2" fill="none"></polyline>
<polyline points="1239.04,1659.27,6223.99,638.036" stroke="rgb(0,246,255)" stroke-width="2" fill="none"></polyline>
<polyline points="1468.85,1246.32,4345.46,674.375" stroke="rgb(21,0,255)" stroke-width="2" fill="none"></polyline>
<polyline points="1968.38,1285.38,5591.24,1063.05" stroke="rgb(123,0,255)" stroke-width="2" fill="none"></polyline>
<polyline points="1476.32,1246.83,4930.77,720.769" stroke="rgb(255,0,157)" stroke-width="2" fill="none"></polyline>
<polyline points="1379.44,928.799,4754.15,1263.47" stroke="rgb(12,0,255)" stroke-width="2" fill="none"></polyline>
<polyline points="1058.41,1218.03,4761.94,1284.45" stroke="rgb(55,0,255)" stroke-width="2" fill="none"></polyline>
<polyline points="1284.74,1115.99,4579.27,801.516" stroke="rgb(0,67,255)" stroke-width="2" fill="none"></polyline>
<polyline points="594.809,1715.09,5063.26,791.223" stroke="rgb(0,255,89)" stroke-width="2" fill="none"></polyline>
<polyline points="1715.37,1418.99,5222.84,266.931" stroke="rgb(0,255,216)" stroke-width="2" fill="none"></polyline>
<polyline points="1403.11,981.982,4592.42,291.176" stroke="rgb(255,127,0)" stroke-width="2" fill="none"></polyline>
<polyline points="1403.11,981.982,4592.42,291.176" stroke="rgb(42,255,0)" stroke-width="2" fill="none"></polyline>
<polyline points="1424.83,1053.29,4452.62,1822.25" stroke="rgb(255,238,0)" stroke-width="2" fill="none"></polyline>
<polyline points="1379.44,928.799,4799.7,1439.4" stroke="rgb(0,255,157)" stroke-width="2" fill="none"></polyline>
<polyline points="1058.41,1218.03,4799.7,1439.4" stroke="rgb(0,8,255)" stroke-width="2" fill="none"></polyline>
<polyline points="955.131,1482.11,5978.79,1163.81" stroke="rgb(255,255,0)" stroke-width="2" fill="none"></polyline>
<polyline points="1394.49,916.055,4719.03,945.968" stroke="rgb(0,4,255)" stroke-width="2" fill="none"></polyline>
<polyline points="2345.79,1631.36,5514.16,972.96" stroke="rgb(29,0,255)" stroke-width="2" fill="none"></polyline>
<polyline points="667.831,1795.71,5650.41,1500.73" stroke="rgb(0,46,255)" stroke-width="2" fill="none"></polyline>
<polyline points="2174.55,540.614,6048.34,1193.08" stroke="rgb(255,0,242)" stroke-width="2" fill="none"></polyline>
<polyline points="1229.16,1124.66,4541.52,451.232" stroke="rgb(89,255,0)" stroke-width="2" fill="none"></polyline>
<polyline points="1335.71,1027.79,4572.15,515.803" stroke="rgb(0,255,25)" stroke-width="2" fill="none"></polyline>
<polyline points="1335.71,1027.79,4572.15,515.803" stroke="rgb(0,255,42)" stroke-width="2" fill="none"></polyline>
<polyline points="610.855,1701.31,6404.06,1664.76" stroke="rgb(101,255,0)" stroke-width="2" fill="none"></polyline>
<polyline points="2172.28,759.485,4743.78,1273.56" stroke="rgb(0,208,255)" stroke-width="2" fill="none"></polyline>
<polyline points="1171.71,1402.16,5675.19,1276.94" stroke="rgb(59,255,0)" stroke-width="2" fill="none"></polyline>
<polyline points="1345.98,962.766,4549.94,526.773" stroke="rgb(255,0,204)" stroke-width="2" fill="none"></polyline>
<polyline points="1083.83,1150.89,5129.3,1989.24" stroke="rgb(50,0,255)" stroke-width="2" fill="none"></polyline>
<polyline points="1360.11,962.831,4551.62,554.8" stroke="rgb(216,255,0)" stroke-width="2" fill="none"></polyline>
<polyline points="1486,960.663,4596,569.219" stroke="rgb(0,255,59)" stroke-width="2" fill="none"></polyline>
<polyline points="1486,960.663,4583.9,587.868" stroke="rgb(255,17,0)" stroke-width="2" fill="none"></polyline>
<polyline points="1479.76,878.854,4614.26,627.647" stroke="rgb(255,38,0)" stroke-width="2" fill="none"></polyline>
<polyline points="1962.74,1693.69,6269.41,2051.71" stroke="rgb(0,221,255)" stroke-width="2" fill="none"></polyline>
<polyline points="1579.76,1210.91,4917.84,2005.74" stroke="rgb(38,0,255)" stroke-width="2" fill="none"></polyline>
<polyline points="1255.39,1113.95,6381.32,2099.01" stroke="rgb(165,0,255)" stroke-width="2" fill="none"></polyline>
<polyline points="1065.6,1208.95,4784.97,1435.44" stroke="rgb(0,255,135)" stroke-width="2" fill="none"></polyline>
<polyline points="1864.98,1428.7,6436.27,1854.71" stroke="rgb(255,17,0)" stroke-width="2" fill="none"></polyline>
<polyline points="1864.98,1428.7,6436.27,1854.71" stroke="rgb(0,255,220)" stroke-width="2" fill="none"></polyline>
<polyline points="1864.98,1428.7,6467.45,1933.05" stroke="rgb(34,0,255)" stroke-width="2" fill="none"></polyline>
<polyline points="2249.55,527.861,4598.96,2551.19" stroke="rgb(255,76,0)" stroke-width="2" fill="none"></polyline>
<polyline points="992.441,1224.88,6294,2111.78" stroke="rgb(0,106,255)" stroke-width="2" fill="none"></polyline>
<polyline points="1231.33,1102.88,4663.9,863.311" stroke="rgb(161,0,255)" stroke-width="2" fill="none"></polyline>
<polyline points="1653.78,1381.44,4586.63,1138.35" stroke="rgb(0,255,33)" stroke-width="2" fill="none"></polyline>
<polyline points="1739.34,1260.72,4664.51,1199.65" stroke="rgb(0,255,97)" stroke-width="2" fill="none"></polyline>
<polyline points="1756.11,1792.96,6091.65,1423.57" stroke="rgb(255,0,225)" stroke-width="2" fill="none"></polyline>
<polyline points="1278.75,1076.88,4596.58,608.06" stroke="rgb(0,8,255)" stroke-width="2" fill="none"></polyline>
<polyline points="1515.29,857.353,4671.87,503.29" stroke="rgb(0,157,255)" stroke-width="2" fill="none"></polyline>
<polyline points="1345.98,962.766,4549.42,526.808" stroke="rgb(0,229,255)" stroke-width="2" fill="none"></polyline>
<polyline points="1474.38,964.073,4576.02,571.92" stroke="rgb(0,255,21)" stroke-width="2" fill="none"></polyline>
<polyline points="1167.07,1128.06,4819.64,1457.23" stroke="rgb(255,0,233)" stroke-width="2" fill="none"></polyline>
<polyline points="1238.21,1105.64,4668.69,873.829" stroke="rgb(255,4,0)" stroke-width="2" fill="none"></polyline>
<polyline points="1343.32,1055.3,4537.36,528.97" stroke="rgb(101,255,0)" stroke-width="2" fill="none"></polyline>
<polyline points="1357.8,954.487,4562.88,547.106" stroke="rgb(208,255,0)" stroke-width="2" fill="none"></polyline>
<polyline points="1200.64,1036.99,4694.96,761.92" stroke="rgb(255,12,0)" stroke-width="2" fill="none"></polyline>
<polyline points="861.847,1437.95,5590.34,1376.81" stroke="rgb(0,203,255)" stroke-width="2" fill="none"></polyline>
<polyline points="2070.77,1261.83,5178.99,1031.76" stroke="rgb(93,0,255)" stroke-width="2" fill="none"></polyline>
<polyline points="950.421,1861.34,5738.79,2379.01" stroke="rgb(46,255,0)" stroke-width="2" fill="none"></polyline>
<polyline points="567.636,1747.92,5282.34,2389.01" stroke="rgb(255,72,0)" stroke-width="2" fill="none"></polyline>
<polyline points="913.027,1432.92,5388.15,1444.03" stroke="rgb(255,110,0)" stroke-width="2" fill="none"></polyline>
<circle cx="1795.58" cy="601.675" r="4" stroke="rgb(0,51,255)" stroke-width="2" fill="none"></circle>
<circle cx="4303.94" cy="2145.69" r="4" stroke="rgb(0,51,255)" stroke-width="2" fill="none"></circle>
<circle cx="1064.58" cy="1215.26" r="4" stroke="rgb(0,89,255)" stroke-width="2" fill="none"></circle>
<circle cx="4578.22" cy="743.71" r="4" stroke="rgb(0,89,255)" stroke-width="2" fill="none"></circle>
<circle cx="1750.64" cy="619.216" r="4" stroke="rgb(255,0,148)" stroke-width="2" fill="none"></circle>
<circle cx="5679.85" cy="1003.18" r="4" stroke="rgb(255,0,148)" stroke-width="2" fill="none"></circle>
<circle cx="1624.29" cy="1803.46" r="4" stroke="rgb(255,0,229)" stroke-width="2" fill="none"></circle>
<circle cx="5088.13" cy="234.979" r="4" stroke="rgb(255,0,229)" stroke-width="2" fill="none"></circle>
<circle cx="745.176" cy="1508.47" r="4" stroke="rgb(67,255,0)" stroke-width="2" fill="none"></circle>
<circle cx="4659.15" cy="282.51" r="4" stroke="rgb(67,255,0)" stroke-width="2" fill="none"></circle>
<circle cx="2447.27" cy="1220.09" r="4" stroke="rgb(255,0,0)" stroke-width="2" fill="none"></circle>
<circle cx="5546.16" cy="1013.98" r="4" stroke="rgb(255,0,0)" stroke-width="2" fill="none"></circle>
<circle cx="1793.84" cy="800.523" r="4" stroke="rgb(0,255,55)" stroke-width="2" fill="none"></circle>
<circle cx="5338.72" cy="768.396" r="4" stroke="rgb(0,255,55)" stroke-width="2" fill="none"></circle>
<circle cx="1335.71" cy="1027.79" r="4" stroke="rgb(97,255,0)" stroke-width="2" fill="none"></circle>
<circle cx="4585.43" cy="308.385" r="4" stroke="rgb(97,255,0)" stroke-width="2" fill="none"></circle>
<circle cx="1203.58" cy="1056.85" r="4" stroke="rgb(123,0,255)" stroke-width="2" fill="none"></circle>
<circle cx="4678.06" cy="789.021" r="4" stroke="rgb(123,0,255)" stroke-width="2" fill="none"></circle>
<circle cx="1246.58" cy="1735.13" r="4" stroke="rgb(255,0,8)" stroke-width="2" fill="none"></circle>
<circle cx="4743.02" cy="2214.26" r="4" stroke="rgb(255,0,8)" stroke-width="2" fill="none"></circle>
<circle cx="745.176" cy="1508.47" r="4" stroke="rgb(255,0,72)" stroke-width="2" fill="none"></circle>
<circle cx="4695.11" cy="378.674" r="4" stroke="rgb(255,0,72)" stroke-width="2" fill="none"></circle>
<circle cx="1095.25" cy="1460.93" r="4" stroke="rgb(85,0,255)" stroke-width="2" fill="none"></circle>
<circle cx="4982.14" cy="959.578" r="4" stroke="rgb(85,0,255)" stroke-width="2" fill="none"></circle>
<circle cx="1478.19" cy="1681.63" r="4" stroke="rgb(255,110,0)" stroke-width="2" fill="none"></circle>
<circle cx="5421.02" cy="2254.53" r="4" stroke="rgb(255,110,0)" stroke-width="2" fill="none"></circle>
<circle cx="745.176" cy="1508.47" r="4" stroke="rgb(161,0,255)" stroke-width="2" fill="none"></circle>
<circle cx="4709.31" cy="404.86" r="4" stroke="rgb(161,0,255)" stroke-width="2" fill="none"></circle>
<circle cx="745.176" cy="1508.47" r="4" stroke="rgb(229,0,255)" stroke-width="2" fill="none"></circle>
<circle cx="4732.81" cy="408.275" r="4" stroke="rgb(229,0,255)" stroke-width="2" fill="none"></circle>
<circle cx="1225.05" cy="1111.74" r="4" stroke="rgb(101,255,0)" stroke-width="2" fill="none"></circle>
<circle cx="4649.46" cy="866.466" r="4" stroke="rgb(101,255,0)" stroke-width="2" fill="none"></circle>
<circle cx="1225.05" cy="1111.74" r="4" stroke="rgb(255,51,0)" stroke-width="2" fill="none"></circle>
<circle cx="4626.1" cy="432.238" r="4" stroke="rgb(255,51,0)" stroke-width="2" fill="none"></circle>
<circle cx="741.667" cy="1540.83" r="4" stroke="rgb(0,255,25)" stroke-width="2" fill="none"></circle>
<circle cx="4739.37" cy="459.058" r="4" stroke="rgb(0,255,25)" stroke-width="2" fill="none"></circle>
<circle cx="728.813" cy="1509.9" r="4" stroke="rgb(0,255,33)" stroke-width="2" fill="none"></circle>
<circle cx="4760.58" cy="459.792" r="4" stroke="rgb(0,255,33)" stroke-width="2" fill="none"></circle>
<circle cx="1798.97" cy="1588" r="4" stroke="rgb(0,255,50)" stroke-width="2" fill="none"></circle>
<circle cx="4981.81" cy="2336.84" r="4" stroke="rgb(0,255,50)" stroke-width="2" fill="none"></circle>
<circle cx="1229.16" cy="1124.66" r="4" stroke="rgb(161,255,0)" stroke-width="2" fill="none"></circle>
<circle cx="4555.1" cy="489.073" r="4" stroke="rgb(161,255,0)" stroke-width="2" fill="none"></circle>
<circle cx="684.633" cy="1807.04" r="4" stroke="rgb(0,255,67)" stroke-width="2" fill="none"></circle>
<circle cx="5505.06" cy="1098.87" r="4" stroke="rgb(0,255,67)" stroke-width="2" fill="none"></circle>
<circle cx="1099.09" cy="1063.11" r="4" stroke="rgb(0,255,208)" stroke-width="2" fill="none"></circle>
<circle cx="4672.22" cy="475.245" r="4" stroke="rgb(0,255,208)" stroke-width="2" fill="none"></circle>
<circle cx="2075.74" cy="1685.31" r="4" stroke="rgb(0,203,255)" stroke-width="2" fill="none"></circle>
<circle cx="4771.26" cy="2358.86" r="4" stroke="rgb(0,203,255)" stroke-width="2" fill="none"></circle>
<circle cx="1078.86" cy="1340.92" r="4" stroke="rgb(0,119,255)" stroke-width="2" fill="none"></circle>
<circle cx="5768.28" cy="491.156" r="4" stroke="rgb(0,119,255)" stroke-width="2" fill="none"></circle>
<circle cx="2633.19" cy="1404.11" r="4" stroke="rgb(67,0,255)" stroke-width="2" fill="none"></circle>
<circle cx="5705.65" cy="514.211" r="4" stroke="rgb(67,0,255)" stroke-width="2" fill="none"></circle>
<circle cx="2180.6" cy="825.435" r="4" stroke="rgb(0,225,255)" stroke-width="2" fill="none"></circle>
<circle cx="4762.84" cy="532.317" r="4" stroke="rgb(0,225,255)" stroke-width="2" fill="none"></circle>
<circle cx="2180.6" cy="825.435" r="4" stroke="rgb(0,255,21)" stroke-width="2" fill="none"></circle>
<circle cx="4763.62" cy="544.124" r="4" stroke="rgb(0,255,21)" stroke-width="2" fill="none"></circle>
<circle cx="1476.32" cy="1246.83" r="4" stroke="rgb(0,199,255)" stroke-width="2" fill="none"></circle>
<circle cx="4343.65" cy="562.589" r="4" stroke="rgb(0,199,255)" stroke-width="2" fill="none"></circle>
<circle cx="1284.74" cy="1115.99" r="4" stroke="rgb(67,255,0)" stroke-width="2" fill="none"></circle>
<circle cx="4525.99" cy="551.348" r="4" stroke="rgb(67,255,0)" stroke-width="2" fill="none"></circle>
<circle cx="1468.85" cy="1246.32" r="4" stroke="rgb(0,101,255)" stroke-width="2" fill="none"></circle>
<circle cx="4337.5" cy="565.831" r="4" stroke="rgb(0,101,255)" stroke-width="2" fill="none"></circle>
<circle cx="1406.83" cy="917.835" r="4" stroke="rgb(250,255,0)" stroke-width="2" fill="none"></circle>
<circle cx="4693.2" cy="557.928" r="4" stroke="rgb(250,255,0)" stroke-width="2" fill="none"></circle>
<circle cx="1468.85" cy="1246.32" r="4" stroke="rgb(255,0,157)" stroke-width="2" fill="none"></circle>
<circle cx="4338.51" cy="566.01" r="4" stroke="rgb(255,0,157)" stroke-width="2" fill="none"></circle>
<circle cx="2180.6" cy="825.435" r="4" stroke="rgb(0,246,255)" stroke-width="2" fill="none"></circle>
<circle cx="4763.15" cy="570.467" r="4" stroke="rgb(0,246,255)" stroke-width="2" fill="none"></circle>
<circle cx="2407.55" cy="1150.63" r="4" stroke="rgb(0,0,255)" stroke-width="2" fill="none"></circle>
<circle cx="5484" cy="2384.99" r="4" stroke="rgb(0,0,255)" stroke-width="2" fill="none"></circle>
<circle cx="2617.34" cy="1337" r="4" stroke="rgb(254,0,255)" stroke-width="2" fill="none"></circle>
<circle cx="5503.74" cy="1033.12" r="4" stroke="rgb(254,0,255)" stroke-width="2" fill="none"></circle>
<circle cx="1239.04" cy="1659.27" r="4" stroke="rgb(0,246,255)" stroke-width="2" fill="none"></circle>
<circle cx="6223.99" cy="638.036" r="4" stroke="rgb(0,246,255)" stroke-width="2" fill="none"></circle>
<circle cx="1468.85" cy="1246.32" r="4" stroke="rgb(21,0,255)" stroke-width="2" fill="none"></circle>
<circle cx="4345.46" cy="674.375" r="4" stroke="rgb(21,0,255)" stroke-width="2" fill="none"></circle>
<circle cx="1968.38" cy="1285.38" r="4" stroke="rgb(123,0,255)" stroke-width="2" fill="none"></circle>
<circle cx="5591.24" cy="1063.05" r="4" stroke="rgb(123,0,255)" stroke-width="2" fill="none"></circle>
<circle cx="1476.32" cy="1246.83" r="4" stroke="rgb(255,0,157)" stroke-width="2" fill="none"></circle>
<circle cx="4930.77" cy="720.769" r="4" stroke="rgb(255,0,157)" stroke-width="2" fill="none"></circle>
<circle cx="1379.44" cy="928.799" r="4" stroke="rgb(12,0,255)" stroke-width="2" fill="none"></circle>
<circle cx="4754.15" cy="1263.47" r="4" stroke="rgb(12,0,255)" stroke-width="2" fill="none"></circle>
<circle cx="1058.41" cy="1218.03" r="4" stroke="rgb(55,0,255)" stroke-width="2" fill="none"></circle>
<circle cx="4761.94" cy="1284.45" r="4" stroke="rgb(55,0,255)" stroke-width="2" fill="none"></circle>
<circle cx="1284.74" cy="1115.99" r="4" stroke="rgb(0,67,255)" stroke-width="2" fill="none"></circle>
<circle cx="4579.27" cy="801.516" r="4" stroke="rgb(0,67,255)" stroke-width="2" fill="none"></circle>
<circle cx="594.809" cy="1715.09" r="4" stroke="rgb(0,255,89)" stroke-width="2" fill="none"></circle>
<circle cx="5063.26" cy="791.223" r="4" stroke="rgb(0,255,89)" stroke-width="2" fill="none"></circle>
<circle cx="1715.37" cy="1418.99" r="4" stroke="rgb(0,255,216)" stroke-width="2" fill="none"></circle>
<circle cx="5222.84" cy="266.931" r="4" stroke="rgb(0,255,216)" stroke-width="2" fill="none"></circle>
<circle cx="1403.11" cy="981.982" r="4" stroke="rgb(255,127,0)" stroke-width="2" fill="none"></circle>
<circle cx="4592.42" cy="291.176" r="4" stroke="rgb(255,127,0)" stroke-width="2" fill="none"></circle>
<circle cx="1403.11" cy="981.982" r="4" stroke="rgb(42,255,0)" stroke-width="2" fill="none"></circle>
<circle cx="4592.42" cy="291.176" r="4" stroke="rgb(42,255,0)" stroke-width="2" fill="none"></circle>
<circle cx="1424.83" cy="1053.29" r="4" stroke="rgb(255,238,0)" stroke-width="2" fill="none"></circle>
<circle cx="4452.62" cy="1822.25" r="4" stroke="rgb(255,238,0)" stroke-width="2" fill="none"></circle>
<circle cx="1379.44" cy="928.799" r="4" stroke="rgb(0,255,157)" stroke-width="2" fill="none"></circle>
<circle cx="4799.7" cy="1439.4" r="4" stroke="rgb(0,255,157)" stroke-width="2" fill="none"></circle>
<circle cx="1058.41" cy="1218.03" r="4" stroke="rgb(0,8,255)" stroke-width="2" fill="none"></circle>
<circle cx="4799.7" cy="1439.4" r="4" stroke="rgb(0,8,255)" stroke-width="2" fill="none"></circle>
<circle cx="955.131" cy="1482.11" r="4" stroke="rgb(255,255,0)" stroke-width="2" fill="none"></circle>
<circle cx="5978.79" cy="1163.81" r="4" stroke="rgb(255,255,0)" stroke-width="2" fill="none"></circle>
<circle cx="1394.49" cy="916.055" r="4" stroke="rgb(0,4,255)" stroke-width="2" fill="none"></circle>
<circle cx="4719.03" cy="945.968" r="4" stroke="rgb(0,4,255)" stroke-width="2" fill="none"></circle>
<circle cx="2345.79" cy="1631.36" r="4" stroke="rgb(29,0,255)" stroke-width="2" fill="none"></circle>
<circle cx="5514.16" cy="972.96" r="4" stroke="rgb(29,0,255)" stroke-width="2" fill="none"></circle>
<circle cx="667.831" cy="1795.71" r="4" stroke="rgb(0,46,255)" stroke-width="2" fill="none"></circle>
<circle cx="5650.41" cy="1500.73" r="4" stroke="rgb(0,46,255)" stroke-width="2" fill="none"></circle>
<circle cx="2174.55" cy="540.614" r="4" stroke="rgb(255,0,242)" stroke-width="2" fill="none"></circle>
<circle cx="6048.34" cy="1193.08" r="4" stroke="rgb(255,0,242)" stroke-width="2" fill="none"></circle>
<circle cx="1229.16" cy="1124.66" r="4" stroke="rgb(89,255,0)" stroke-width="2" fill="none"></circle>
<circle cx="4541.52" cy="451.232" r="4" stroke="rgb(89,255,0)" stroke-width="2" fill="none"></circle>
<circle cx="1335.71" cy="1027.79" r="4" stroke="rgb(0,255,25)" stroke-width="2" fill="none"></circle>
<circle cx="4572.15" cy="515.803" r="4" stroke="rgb(0,255,25)" stroke-width="2" fill="none"></circle>
<circle cx="1335.71" cy="1027.79" r="4" stroke="rgb(0,255,42)" stroke-width="2" fill="none"></circle>
<circle cx="4572.15" cy="515.803" r="4" stroke="rgb(0,255,42)" stroke-width="2" fill="none"></circle>
<circle cx="610.855" cy="1701.31" r="4" stroke="rgb(101,255,0)" stroke-width="2" fill="none"></circle>
<circle cx="6404.06" cy="1664.76" r="4" stroke="rgb(101,255,0)" stroke-width="2" fill="none"></circle>
<circle cx="2172.28" cy="759.485" r="4" stroke="rgb(0,208,255)" stroke-width="2" fill="none"></circle>
<circle cx="4743.78" cy="1273.56" r="4" stroke="rgb(0,208,255)" stroke-width="2" fill="none"></circle>
<circle cx="1171.71" cy="1402.16" r="4" stroke="rgb(59,255,0)" stroke-width="2" fill="none"></circle>
<circle cx="5675.19" cy="1276.94" r="4" stroke="rgb(59,255,0)" stroke-width="2" fill="none"></circle>
<circle cx="1345.98" cy="962.766" r="4" stroke="rgb(255,0,204)" stroke-width="2" fill="none"></circle>
<circle cx="4549.94" cy="526.773" r="4" stroke="rgb(255,0,204)" stroke-width="2" fill="none"></circle>
<circle cx="1083.83" cy="1150.89" r="4" stroke="rgb(50,0,255)" stroke-width="2" fill="none"></circle>
<circle cx="5129.3" cy="1989.24" r="4" stroke="rgb(50,0,255)" stroke-width="2" fill="none"></circle>
<circle cx="1360.11" cy="962.831" r="4" stroke="rgb(216,255,0)" stroke-width="2" fill="none"></circle>
<circle cx="4551.62" cy="554.8" r="4" stroke="rgb(216,255,0)" stroke-width="2" fill="none"></circle>
<circle cx="1486" cy="960.663" r="4" stroke="rgb(0,255,59)" stroke-width="2" fill="none"></circle>
<circle cx="4596" cy="569.219" r="4" stroke="rgb(0,255,59)" stroke-width="2" fill="none"></circle>
<circle cx="1486" cy="960.663" r="4" stroke="rgb(255,17,0)" stroke-width="2" fill="none"></circle>
<circle cx="4583.9" cy="587.868" r="4" stroke="rgb(255,17,0)" stroke-width="2" fill="none"></circle>
<circle cx="1479.76" cy="878.854" r="4" stroke="rgb(255,38,0)" stroke-width="2" fill="none"></circle>
<circle cx="4614.26" cy="627.647" r="4" stroke="rgb(255,38,0)" stroke-width="2" fill="none"></circle>
<circle cx="1962.74" cy="1693.69" r="4" stroke="rgb(0,221,255)" stroke-width="2" fill="none"></circle>
<circle cx="6269.41" cy="2051.71" r="4" stroke="rgb(0,221,255)" stroke-width="2" fill="none"></circle>
<circle cx="1579.76" cy="1210.91" r="4" stroke="rgb(38,0,255)" stroke-width="2" fill="none"></circle>
<circle cx="4917.84" cy="2005.74" r="4" stroke="rgb(38,0,255)" stroke-width="2" fill="none"></circle>
<circle cx="1255.39" cy="1113.95" r="4" stroke="rgb(165,0,255)" stroke-width="2" fill="none"></circle>
<circle cx="6381.32" cy="2099.01" r="4" stroke="rgb(165,0,255)" stroke-width="2" fill="none"></circle>
<circle cx="1065.6" cy="1208.95" r="4" stroke="rgb(0,255,135)" stroke-width="2" fill="none"></circle>
<circle cx="4784.97" cy="1435.44" r="4" stroke="rgb(0,255,135)" stroke-width="2" fill="none"></circle>
<circle cx="1864.98" cy="1428.7" r="4" stroke="rgb(255,17,0)" stroke-width="2" fill="none"></circle>
<circle cx="6436.27" cy="1854.71" r="4" stroke="rgb(255,17,0)" stroke-width="2" fill="none"></circle>
<circle cx="1864.98" cy="1428.7" r="4" stroke="rgb(0,255,220)" stroke-width="2" fill="none"></circle>
<circle cx="6436.27" cy="1854.71" r="4" stroke="rgb(0,255,220)" stroke-width="2" fill="none"></circle>
<circle cx="1864.98" cy="1428.7" r="4" stroke="rgb(34,0,255)" stroke-width="2" fill="none"></circle>
<circle cx="6467.45" cy="1933.05" r="4" stroke="rgb(34,0,255)" stroke-width="2" fill="none"></circle>
<circle cx="2249.55" cy="527.861" r="4" stroke="rgb(255,76,0)" stroke-width="2" fill="none"></circle>
<circle cx="4598.96" cy="2551.19" r="4" stroke="rgb(255,76,0)" stroke-width="2" fill="none"></circle>
<circle cx="992.441" cy="1224.88" r="4" stroke="rgb(0,106,255)" stroke-width="2" fill="none"></circle>
<circle cx="6294" cy="2111.78" r="4" stroke="rgb(0,106,255)" stroke-width="2" fill="none"></circle>
<circle cx="1231.33" cy="1102.88" r="4" stroke="rgb(161,0,255)" stroke-width="2" fill="none"></circle>
<circle cx="4663.9" cy="863.311" r="4" stroke="rgb(161,0,255)" stroke-width="2" fill="none"></circle>
<circle cx="1653.78" cy="1381.44" r="4" stroke="rgb(0,255,33)" stroke-width="2" fill="none"></circle>
<circle cx="4586.63" cy="1138.35" r="4" stroke="rgb(0,255,33)" stroke-width="2" fill="none"></circle>
<circle cx="1739.34" cy="1260.72" r="4" stroke="rgb(0,255,97)" stroke-width="2" fill="none"></circle>
<circle cx="4664.51" cy="1199.65" r="4" stroke="rgb(0,255,97)" stroke-width="2" fill="none"></circle>
<circle cx="1756.11" cy="1792.96" r="4" stroke="rgb(255,0,225)" stroke-width="2" fill="none"></circle>
<circle cx="6091.65" cy="1423.57" r="4" stroke="rgb(255,0,225)" stroke-width="2" fill="none"></circle>
<circle cx="1278.75" cy="1076.88" r="4" stroke="rgb(0,8,255)" stroke-width="2" fill="none"></circle>
<circle cx="4596.58" cy="608.06" r="4" stroke="rgb(0,8,255)" stroke-width="2" fill="none"></circle>
<circle cx="1515.29" cy="857.353" r="4" stroke="rgb(0,157,255)" stroke-width="2" fill="none"></circle>
<circle cx="4671.87" cy="503.29" r="4" stroke="rgb(0,157,255)" stroke-width="2" fill="none"></circle>
<circle cx="1345.98" cy="962.766" r="4" stroke="rgb(0,229,255)" stroke-width="2" fill="none"></circle>
<circle cx="4549.42" cy="526.808" r="4" stroke="rgb(0,229,255)" stroke-width="2" fill="none"></circle>
<circle cx="1474.38" cy="964.073" r="4" stroke="rgb(0,255,21)" stroke-width="2" fill="none"></circle>
<circle cx="4576.02" cy="571.92" r="4" stroke="rgb(0,255,21)" stroke-width="2" fill="none"></circle>
<circle cx="1167.07" cy="1128.06" r="4" stroke="rgb(255,0,233)" stroke-width="2" fill="none"></circle>
<circle cx="4819.64" cy="1457.23" r="4" stroke="rgb(255,0,233)" stroke-width="2" fill="none"></circle>
<circle cx="1238.21" cy="1105.64" r="4" stroke="rgb(255,4,0)" stroke-width="2" fill="none"></circle>
<circle cx="4668.69" cy="873.829" r="4" stroke="rgb(255,4,0)" stroke-width="2" fill="none"></circle>
<circle cx="1343.32" cy="1055.3" r="4" stroke="rgb(101,255,0)" stroke-width="2" fill="none"></circle>
<circle cx="4537.36" cy="528.97" r="4" stroke="rgb(101,255,0)" stroke-width="2" fill="none"></circle>
<circle cx="1357.8" cy="954.487" r="4" stroke="rgb(208,255,0)" stroke-width="2" fill="none"></circle>
<circle cx="4562.88" cy="547.106" r="4" stroke="rgb(208,255,0)" stroke-width="2" fill="none"></circle>
<circle cx="1200.64" cy="1036.99" r="4" stroke="rgb(255,12,0)" stroke-width="2" fill="none"></circle>
<circle cx="4694.96" cy="761.92" r="4" stroke="rgb(255,12,0)" stroke-width="2" fill="none"></circle>
<circle cx="861.847" cy="1437.95" r="4" stroke="rgb(0,203,255)" stroke-width="2" fill="none"></circle>
<circle cx="5590.34" cy="1376.81" r="4" stroke="rgb(0,203,255)" stroke-width="2" fill="none"></circle>
<circle cx="2070.77" cy="1261.83" r="4" stroke="rgb(93,0,255)" stroke-width="2" fill="none"></circle>
<circle cx="5178.99" cy="1031.76" r="4" stroke="rgb(93,0,255)" stroke-width="2" fill="none"></circle>
<circle cx="950.421" cy="1861.34" r="4" stroke="rgb(46,255,0)" stroke-width="2" fill="none"></circle>
<circle cx="5738.79" cy="2379.01" r="4" stroke="rgb(46,255,0)" stroke-width="2" fill="none"></circle>
<circle cx="567.636" cy="1747.92" r="4" stroke="rgb(255,72,0)" stroke-width="2" fill="none"></circle>
<circle cx="5282.34" cy="2389.01" r="4" stroke="rgb(255,72,0)" stroke-width="2" fill="none"></circle>
<circle cx="913.027" cy="1432.92" r="4" stroke="rgb(255,110,0)" stroke-width="2" fill="none"></circle>
<circle cx="5388.15" cy="1444.03" r="4" stroke="rgb(255,110,0)" stroke-width="2" fill="none"></circle>
</svg>