<?xml version="1.0" standalone="yes"?>
<!-- SVG graphic -->
<svg xmlns='http://www.w3.org/2000/svg' xmlns:xlink='http://www.w3.org/1999/xlink'
width="8064px" height="3024px" preserveAspectRatio="xMinYMin meet" viewBox="0 0 8064 3024" version="1.1">
<image x="0" y="0" width="4032px" height="3024px" opacity="1" xlink:href="/home/jeong/Code/2D-to-3D-Modeling-using-AI/Make3D/Image/20200227_180718.jpg"/>
<image x="4032" y="0" width="4032px" height="3024px" opacity="1" xlink:href="/home/jeong/Code/2D-to-3D-Modeling-using-AI/Make3D/Image/20200227_180809.jpg"/>
<polyline points="701.481,1643.63,6437.85,1043.08" stroke="rgb(255,51,0)" stroke-width="2" fill="none"></polyline>
<polyline points="1822.52,1145.63,6043.98,1995.35" stroke="rgb(255,89,0)" stroke-width="2" fill="none"></polyline>
<polyline points="1852.74,580.671,4725.33,1201.91" stroke="rgb(118,0,255)" stroke-width="2" fill="none"></polyline>
<polyline points="1852.74,580.671,4725.33,1201.91" stroke="rgb(255,0,72)" stroke-width="2" fill="none"></polyline>
<polyline points="2045.38,1145.62,6536.55,1998.75" stroke="rgb(246,0,255)" stroke-width="2" fill="none"></polyline>
<polyline points="1660.1,854.725,5986.51,1634.64" stroke="rgb(0,72,255)" stroke-width="2" fill="none"></polyline>
<polyline points="1706.61,1243.06,5509.04,1189.28" stroke="rgb(170,0,255)" stroke-width="2" fill="none"></polyline>
<polyline points="1488.18,1367.74,6361.94,1665.59" stroke="rgb(0,255,84)" stroke-width="2" fill="none"></polyline>
<polyline points="1942.43,1685.95,5501.28,2014.25" stroke="rgb(50,0,255)" stroke-width="2" fill="none"></polyline>
<polyline points="1682.84,968.783,5933.31,1702.26" stroke="rgb(0,255,72)" stroke-width="2" fill="none"></polyline>
<polyline points="1104.16,1092.19,6485.58,1294.1" stroke="rgb(0,255,76)" stroke-width="2" fill="none"></polyline>
<polyline points="1781.87,1641.32,6018.73,2048.5" stroke="rgb(254,0,255)" stroke-width="2" fill="none"></polyline>
<polyline points="2418.55,1394.19,6535.52,1335.43" stroke="rgb(255,89,0)" stroke-width="2" fill="none"></polyline>
<polyline points="2190,1353.88,6296.88,1770.16" stroke="rgb(255,114,0)" stroke-width="2" fill="none"></polyline>
<polyline points="1811.34,1171.47,6883.06,1609.06" stroke="rgb(255,0,212)" stroke-width="2" fill="none"></polyline>
<polyline points="1832.06,1165.53,6005.99,1365.98" stroke="rgb(229,0,255)" stroke-width="2" fill="none"></polyline>
<polyline points="2428.41,1311.08,6536.36,1784.49" stroke="rgb(0,33,255)" stroke-width="2" fill="none"></polyline>
<polyline points="1492.58,1307.17,6493.74,1060.64" stroke="rgb(255,0,204)" stroke-width="2" fill="none"></polyline>
<polyline points="2476.87,1073.16,5854.38,1794.05" stroke="rgb(25,255,0)" stroke-width="2" fill="none"></polyline>
<polyline points="2176.33,775.831,7027.23,1686.76" stroke="rgb(255,212,0)" stroke-width="2" fill="none"></polyline>
<polyline points="1872.2,1296.47,5834.23,1004.72" stroke="rgb(255,0,216)" stroke-width="2" fill="none"></polyline>
<polyline points="1551.59,1567.46,6195.04,1824.6" stroke="rgb(255,0,17)" stroke-width="2" fill="none"></polyline>
<polyline points="1706.61,1243.06,7178.37,1538.68" stroke="rgb(101,255,0)" stroke-width="2" fill="none"></polyline>
<polyline points="2612.96,1412.7,6872.32,1936.55" stroke="rgb(255,0,123)" stroke-width="2" fill="none"></polyline>
<polyline points="863.087,1808.71,5258.86,1361.56" stroke="rgb(255,0,0)" stroke-width="2" fill="none"></polyline>
<polyline points="1965.95,1777.55,6453.53,1366.66" stroke="rgb(0,72,255)" stroke-width="2" fill="none"></polyline>
<polyline points="2617.34,1337,6707.88,1992.6" stroke="rgb(255,182,0)" stroke-width="2" fill="none"></polyline>
<polyline points="2525.2,1478.9,6900.02,1824.31" stroke="rgb(0,123,255)" stroke-width="2" fill="none"></polyline>
<polyline points="2479.06,1513.85,6816.28,1878.54" stroke="rgb(255,216,0)" stroke-width="2" fill="none"></polyline>
<polyline points="2627.66,1286.04,7038.94,1479.39" stroke="rgb(229,255,0)" stroke-width="2" fill="none"></polyline>
<polyline points="2160.27,1493.83,5995.17,1834.81" stroke="rgb(0,255,182)" stroke-width="2" fill="none"></polyline>
<polyline points="2507.74,1482.17,6863.34,1827.03" stroke="rgb(233,0,255)" stroke-width="2" fill="none"></polyline>
<polyline points="2641.59,1280.57,7072.09,1466.3" stroke="rgb(255,0,174)" stroke-width="2" fill="none"></polyline>
<polyline points="1211.59,1343.75,5573.77,2037.7" stroke="rgb(208,255,0)" stroke-width="2" fill="none"></polyline>
<polyline points="2321.81,1541.83,6357.78,1925.59" stroke="rgb(0,255,127)" stroke-width="2" fill="none"></polyline>
<polyline points="2330.41,1543.18,6378.87,1928.07" stroke="rgb(72,0,255)" stroke-width="2" fill="none"></polyline>
<polyline points="1478.19,1681.63,6673.98,1450.32" stroke="rgb(0,255,199)" stroke-width="2" fill="none"></polyline>
<polyline points="2630.87,1292.58,7054.12,1491.85" stroke="rgb(212,255,0)" stroke-width="2" fill="none"></polyline>
<polyline points="2503.47,1297.32,6514.37,1506.5" stroke="rgb(255,157,0)" stroke-width="2" fill="none"></polyline>
<polyline points="2433.96,1405.68,6470.15,1691.01" stroke="rgb(216,0,255)" stroke-width="2" fill="none"></polyline>
<polyline points="2619.18,1316.65,7037.83,1534.14" stroke="rgb(174,255,0)" stroke-width="2" fill="none"></polyline>
<polyline points="2610.41,1336.87,7024.54,1569.87" stroke="rgb(255,199,0)" stroke-width="2" fill="none"></polyline>
<polyline points="2489.77,1344.26,6529.11,1584.83" stroke="rgb(67,255,0)" stroke-width="2" fill="none"></polyline>
<polyline points="2444.32,1376.89,6470.91,1644.63" stroke="rgb(255,0,119)" stroke-width="2" fill="none"></polyline>
<polyline points="2540.83,1377.53,6890.95,1645.83" stroke="rgb(195,255,0)" stroke-width="2" fill="none"></polyline>
<polyline points="2459.19,1393.27,6509.05,1669.8" stroke="rgb(255,229,0)" stroke-width="2" fill="none"></polyline>
<polyline points="2402.43,1439.69,6436.54,1752.36" stroke="rgb(110,0,255)" stroke-width="2" fill="none"></polyline>
<polyline points="2120.69,1536.78,5971.53,1908.45" stroke="rgb(255,0,229)" stroke-width="2" fill="none"></polyline>
<polyline points="2428.08,1384.81,6444.83,1658.77" stroke="rgb(0,4,255)" stroke-width="2" fill="none"></polyline>
<polyline points="2423.71,1442.58,6480.13,1754.69" stroke="rgb(255,85,0)" stroke-width="2" fill="none"></polyline>
<polyline points="2282.59,1543.59,6409.89,1773.72" stroke="rgb(0,51,255)" stroke-width="2" fill="none"></polyline>
<polyline points="2058.49,833.359,7041.8,1286.48" stroke="rgb(0,221,255)" stroke-width="2" fill="none"></polyline>
<polyline points="2519.29,1453.24,6875.42,1778.97" stroke="rgb(34,0,255)" stroke-width="2" fill="none"></polyline>
<polyline points="2218.02,1467.54,6076.71,1794.83" stroke="rgb(255,0,148)" stroke-width="2" fill="none"></polyline>
<polyline points="2526.07,1188.06,6448.67,1316.1" stroke="rgb(255,131,0)" stroke-width="2" fill="none"></polyline>
<polyline points="2515.85,1274.19,6522.65,1471.11" stroke="rgb(38,0,255)" stroke-width="2" fill="none"></polyline>
<polyline points="2643.64,1295.2,7086.55,1492.72" stroke="rgb(255,255,0)" stroke-width="2" fill="none"></polyline>
<polyline points="2605.55,1324.26,7003.06,1549.13" stroke="rgb(255,0,229)" stroke-width="2" fill="none"></polyline>
<polyline points="2014.6,1430.66,5504.09,1725.63" stroke="rgb(84,255,0)" stroke-width="2" fill="none"></polyline>
<polyline points="2259.57,1406.37,6094.89,1683.69" stroke="rgb(255,0,72)" stroke-width="2" fill="none"></polyline>
<polyline points="2729.62,1302.37,7419.16,1505.32" stroke="rgb(17,0,255)" stroke-width="2" fill="none"></polyline>
<circle cx="701.481" cy="1643.63" r="4" stroke="rgb(255,51,0)" stroke-width="2" fill="none"></circle>
<circle cx="6437.85" cy="1043.08" r="4" stroke="rgb(255,51,0)" stroke-width="2" fill="none"></circle>
<circle cx="1822.52" cy="1145.63" r="4" stroke="rgb(255,89,0)" stroke-width="2" fill="none"></circle>
<circle cx="6043.98" cy="1995.35" r="4" stroke="rgb(255,89,0)" stroke-width="2" fill="none"></circle>
<circle cx="1852.74" cy="580.671" r="4" stroke="rgb(118,0,255)" stroke-width="2" fill="none"></circle>
<circle cx="4725.33" cy="1201.91" r="4" stroke="rgb(118,0,255)" stroke-width="2" fill="none"></circle>
<circle cx="1852.74" cy="580.671" r="4" stroke="rgb(255,0,72)" stroke-width="2" fill="none"></circle>
<circle cx="4725.33" cy="1201.91" r="4" stroke="rgb(255,0,72)" stroke-width="2" fill="none"></circle>
<circle cx="2045.38" cy="1145.62" r="4" stroke="rgb(246,0,255)" stroke-width="2" fill="none"></circle>
<circle cx="6536.55" cy="1998.75" r="4" stroke="rgb(246,0,255)" stroke-width="2" fill="none"></circle>
<circle cx="1660.1" cy="854.725" r="4" stroke="rgb(0,72,255)" stroke-width="2" fill="none"></circle>
<circle cx="5986.51" cy="1634.64" r="4" stroke="rgb(0,72,255)" stroke-width="2" fill="none"></circle>
<circle cx="1706.61" cy="1243.06" r="4" stroke="rgb(170,0,255)" stroke-width="2" fill="none"></circle>
<circle cx="5509.04" cy="1189.28" r="4" stroke="rgb(170,0,255)" stroke-width="2" fill="none"></circle>
<circle cx="1488.18" cy="1367.74" r="4" stroke="rgb(0,255,84)" stroke-width="2" fill="none"></circle>
<circle cx="6361.94" cy="1665.59" r="4" stroke="rgb(0,255,84)" stroke-width="2" fill="none"></circle>
<circle cx="1942.43" cy="1685.95" r="4" stroke="rgb(50,0,255)" stroke-width="2" fill="none"></circle>
<circle cx="5501.28" cy="2014.25" r="4" stroke="rgb(50,0,255)" stroke-width="2" fill="none"></circle>
<circle cx="1682.84" cy="968.783" r="4" stroke="rgb(0,255,72)" stroke-width="2" fill="none"></circle>
<circle cx="5933.31" cy="1702.26" r="4" stroke="rgb(0,255,72)" stroke-width="2" fill="none"></circle>
<circle cx="1104.16" cy="1092.19" r="4" stroke="rgb(0,255,76)" stroke-width="2" fill="none"></circle>
<circle cx="6485.58" cy="1294.1" r="4" stroke="rgb(0,255,76)" stroke-width="2" fill="none"></circle>
<circle cx="1781.87" cy="1641.32" r="4" stroke="rgb(254,0,255)" stroke-width="2" fill="none"></circle>
<circle cx="6018.73" cy="2048.5" r="4" stroke="rgb(254,0,255)" stroke-width="2" fill="none"></circle>
<circle cx="2418.55" cy="1394.19" r="4" stroke="rgb(255,89,0)" stroke-width="2" fill="none"></circle>
<circle cx="6535.52" cy="1335.43" r="4" stroke="rgb(255,89,0)" stroke-width="2" fill="none"></circle>
<circle cx="2190" cy="1353.88" r="4" stroke="rgb(255,114,0)" stroke-width="2" fill="none"></circle>
<circle cx="6296.88" cy="1770.16" r="4" stroke="rgb(255,114,0)" stroke-width="2" fill="none"></circle>
<circle cx="1811.34" cy="1171.47" r="4" stroke="rgb(255,0,212)" stroke-width="2" fill="none"></circle>
<circle cx="6883.06" cy="1609.06" r="4" stroke="rgb(255,0,212)" stroke-width="2" fill="none"></circle>
<circle cx="1832.06" cy="1165.53" r="4" stroke="rgb(229,0,255)" stroke-width="2" fill="none"></circle>
<circle cx="6005.99" cy="1365.98" r="4" stroke="rgb(229,0,255)" stroke-width="2" fill="none"></circle>
<circle cx="2428.41" cy="1311.08" r="4" stroke="rgb(0,33,255)" stroke-width="2" fill="none"></circle>
<circle cx="6536.36" cy="1784.49" r="4" stroke="rgb(0,33,255)" stroke-width="2" fill="none"></circle>
<circle cx="1492.58" cy="1307.17" r="4" stroke="rgb(255,0,204)" stroke-width="2" fill="none"></circle>
<circle cx="6493.74" cy="1060.64" r="4" stroke="rgb(255,0,204)" stroke-width="2" fill="none"></circle>
<circle cx="2476.87" cy="1073.16" r="4" stroke="rgb(25,255,0)" stroke-width="2" fill="none"></circle>
<circle cx="5854.38" cy="1794.05" r="4" stroke="rgb(25,255,0)" stroke-width="2" fill="none"></circle>
<circle cx="2176.33" cy="775.831" r="4" stroke="rgb(255,212,0)" stroke-width="2" fill="none"></circle>
<circle cx="7027.23" cy="1686.76" r="4" stroke="rgb(255,212,0)" stroke-width="2" fill="none"></circle>
<circle cx="1872.2" cy="1296.47" r="4" stroke="rgb(255,0,216)" stroke-width="2" fill="none"></circle>
<circle cx="5834.23" cy="1004.72" r="4" stroke="rgb(255,0,216)" stroke-width="2" fill="none"></circle>
<circle cx="1551.59" cy="1567.46" r="4" stroke="rgb(255,0,17)" stroke-width="2" fill="none"></circle>
<circle cx="6195.04" cy="1824.6" r="4" stroke="rgb(255,0,17)" stroke-width="2" fill="none"></circle>
<circle cx="1706.61" cy="1243.06" r="4" stroke="rgb(101,255,0)" stroke-width="2" fill="none"></circle>
<circle cx="7178.37" cy="1538.68" r="4" stroke="rgb(101,255,0)" stroke-width="2" fill="none"></circle>
<circle cx="2612.96" cy="1412.7" r="4" stroke="rgb(255,0,123)" stroke-width="2" fill="none"></circle>
<circle cx="6872.32" cy="1936.55" r="4" stroke="rgb(255,0,123)" stroke-width="2" fill="none"></circle>
<circle cx="863.087" cy="1808.71" r="4" stroke="rgb(255,0,0)" stroke-width="2" fill="none"></circle>
<circle cx="5258.86" cy="1361.56" r="4" stroke="rgb(255,0,0)" stroke-width="2" fill="none"></circle>
<circle cx="1965.95" cy="1777.55" r="4" stroke="rgb(0,72,255)" stroke-width="2" fill="none"></circle>
<circle cx="6453.53" cy="1366.66" r="4" stroke="rgb(0,72,255)" stroke-width="2" fill="none"></circle>
<circle cx="2617.34" cy="1337" r="4" stroke="rgb(255,182,0)" stroke-width="2" fill="none"></circle>
<circle cx="6707.88" cy="1992.6" r="4" stroke="rgb(255,182,0)" stroke-width="2" fill="none"></circle>
<circle cx="2525.2" cy="1478.9" r="4" stroke="rgb(0,123,255)" stroke-width="2" fill="none"></circle>
<circle cx="6900.02" cy="1824.31" r="4" stroke="rgb(0,123,255)" stroke-width="2" fill="none"></circle>
<circle cx="2479.06" cy="1513.85" r="4" stroke="rgb(255,216,0)" stroke-width="2" fill="none"></circle>
<circle cx="6816.28" cy="1878.54" r="4" stroke="rgb(255,216,0)" stroke-width="2" fill="none"></circle>
<circle cx="2627.66" cy="1286.04" r="4" stroke="rgb(229,255,0)" stroke-width="2" fill="none"></circle>
<circle cx="7038.94" cy="1479.39" r="4" stroke="rgb(229,255,0)" stroke-width="2" fill="none"></circle>
<circle cx="2160.27" cy="1493.83" r="4" stroke="rgb(0,255,182)" stroke-width="2" fill="none"></circle>
<circle cx="5995.17" cy="1834.81" r="4" stroke="rgb(0,255,182)" stroke-width="2" fill="none"></circle>
<circle cx="2507.74" cy="1482.17" r="4" stroke="rgb(233,0,255)" stroke-width="2" fill="none"></circle>
<circle cx="6863.34" cy="1827.03" r="4" stroke="rgb(233,0,255)" stroke-width="2" fill="none"></circle>
<circle cx="2641.59" cy="1280.57" r="4" stroke="rgb(255,0,174)" stroke-width="2" fill="none"></circle>
<circle cx="7072.09" cy="1466.3" r="4" stroke="rgb(255,0,174)" stroke-width="2" fill="none"></circle>
<circle cx="1211.59" cy="1343.75" r="4" stroke="rgb(208,255,0)" stroke-width="2" fill="none"></circle>
<circle cx="5573.77" cy="2037.7" r="4" stroke="rgb(208,255,0)" stroke-width="2" fill="none"></circle>
<circle cx="2321.81" cy="1541.83" r="4" stroke="rgb(0,255,127)" stroke-width="2" fill="none"></circle>
<circle cx="6357.78" cy="1925.59" r="4" stroke="rgb(0,255,127)" stroke-width="2" fill="none"></circle>
<circle cx="2330.41" cy="1543.18" r="4" stroke="rgb(72,0,255)" stroke-width="2" fill="none"></circle>
<circle cx="6378.87" cy="1928.07" r="4" stroke="rgb(72,0,255)" stroke-width="2" fill="none"></circle>
<circle cx="1478.19" cy="1681.63" r="4" stroke="rgb(0,255,199)" stroke-width="2" fill="none"></circle>
<circle cx="6673.98" cy="1450.32" r="4" stroke="rgb(0,255,199)" stroke-width="2" fill="none"></circle>
<circle cx="2630.87" cy="1292.58" r="4" stroke="rgb(212,255,0)" stroke-width="2" fill="none"></circle>
<circle cx="7054.12" cy="1491.85" r="4" stroke="rgb(212,255,0)" stroke-width="2" fill="none"></circle>
<circle cx="2503.47" cy="1297.32" r="4" stroke="rgb(255,157,0)" stroke-width="2" fill="none"></circle>
<circle cx="6514.37" cy="1506.5" r="4" stroke="rgb(255,157,0)" stroke-width="2" fill="none"></circle>
<circle cx="2433.96" cy="1405.68" r="4" stroke="rgb(216,0,255)" stroke-width="2" fill="none"></circle>
<circle cx="6470.15" cy="1691.01" r="4" stroke="rgb(216,0,255)" stroke-width="2" fill="none"></circle>
<circle cx="2619.18" cy="1316.65" r="4" stroke="rgb(174,255,0)" stroke-width="2" fill="none"></circle>
<circle cx="7037.83" cy="1534.14" r="4" stroke="rgb(174,255,0)" stroke-width="2" fill="none"></circle>
<circle cx="2610.41" cy="1336.87" r="4" stroke="rgb(255,199,0)" stroke-width="2" fill="none"></circle>
<circle cx="7024.54" cy="1569.87" r="4" stroke="rgb(255,199,0)" stroke-width="2" fill="none"></circle>
<circle cx="2489.77" cy="1344.26" r="4" stroke="rgb(67,255,0)" stroke-width="2" fill="none"></circle>
<circle cx="6529.11" cy="1584.83" r="4" stroke="rgb(67,255,0)" stroke-width="2" fill="none"></circle>
<circle cx="2444.32" cy="1376.89" r="4" stroke="rgb(255,0,119)" stroke-width="2" fill="none"></circle>
<circle cx="6470.91" cy="1644.63" r="4" stroke="rgb(255,0,119)" stroke-width="2" fill="none"></circle>
<circle cx="2540.83" cy="1377.53" r="4" stroke="rgb(195,255,0)" stroke-width="2" fill="none"></circle>
<circle cx="6890.95" cy="1645.83" r="4" stroke="rgb(195,255,0)" stroke-width="2" fill="none"></circle>
<circle cx="2459.19" cy="1393.27" r="4" stroke="rgb(255,229,0)" stroke-width="2" fill="none"></circle>
<circle cx="6509.05" cy="1669.8" r="4" stroke="rgb(255,229,0)" stroke-width="2" fill="none"></circle>
<circle cx="2402.43" cy="1439.69" r="4" stroke="rgb(110,0,255)" stroke-width="2" fill="none"></circle>
<circle cx="6436.54" cy="1752.36" r="4" stroke="rgb(110,0,255)" stroke-width="2" fill="none"></circle>
<circle cx="2120.69" cy="1536.78" r="4" stroke="rgb(255,0,229)" stroke-width="2" fill="none"></circle>
<circle cx="5971.53" cy="1908.45" r="4" stroke="rgb(255,0,229)" stroke-width="2" fill="none"></circle>
<circle cx="2428.08" cy="1384.81" r="4" stroke="rgb(0,4,255)" stroke-width="2" fill="none"></circle>
<circle cx="6444.83" cy="1658.77" r="4" stroke="rgb(0,4,255)" stroke-width="2" fill="none"></circle>
<circle cx="2423.71" cy="1442.58" r="4" stroke="rgb(255,85,0)" stroke-width="2" fill="none"></circle>
<circle cx="6480.13" cy="1754.69" r="4" stroke="rgb(255,85,0)" stroke-width="2" fill="none"></circle>
<circle cx="2282.59" cy="1543.59" r="4" stroke="rgb(0,51,255)" stroke-width="2" fill="none"></circle>
<circle cx="6409.89" cy="1773.72" r="4" stroke="rgb(0,51,255)" stroke-width="2" fill="none"></circle>
<circle cx="2058.49" cy="833.359" r="4" stroke="rgb(0,221,255)" stroke-width="2" fill="none"></circle>
<circle cx="7041.8" cy="1286.48" r="4" stroke="rgb(0,221,255)" stroke-width="2" fill="none"></circle>
<circle cx="2519.29" cy="1453.24" r="4" stroke="rgb(34,0,255)" stroke-width="2" fill="none"></circle>
<circle cx="6875.42" cy="1778.97" r="4" stroke="rgb(34,0,255)" stroke-width="2" fill="none"></circle>
<circle cx="2218.02" cy="1467.54" r="4" stroke="rgb(255,0,148)" stroke-width="2" fill="none"></circle>
<circle cx="6076.71" cy="1794.83" r="4" stroke="rgb(255,0,148)" stroke-width="2" fill="none"></circle>
<circle cx="2526.07" cy="1188.06" r="4" stroke="rgb(255,131,0)" stroke-width="2" fill="none"></circle>
<circle cx="6448.67" cy="1316.1" r="4" stroke="rgb(255,131,0)" stroke-width="2" fill="none"></circle>
<circle cx="2515.85" cy="1274.19" r="4" stroke="rgb(38,0,255)" stroke-width="2" fill="none"></circle>
<circle cx="6522.65" cy="1471.11" r="4" stroke="rgb(38,0,255)" stroke-width="2" fill="none"></circle>
<circle cx="2643.64" cy="1295.2" r="4" stroke="rgb(255,255,0)" stroke-width="2" fill="none"></circle>
<circle cx="7086.55" cy="1492.72" r="4" stroke="rgb(255,255,0)" stroke-width="2" fill="none"></circle>
<circle cx="2605.55" cy="1324.26" r="4" stroke="rgb(255,0,229)" stroke-width="2" fill="none"></circle>
<circle cx="7003.06" cy="1549.13" r="4" stroke="rgb(255,0,229)" stroke-width="2" fill="none"></circle>
<circle cx="2014.6" cy="1430.66" r="4" stroke="rgb(84,255,0)" stroke-width="2" fill="none"></circle>
<circle cx="5504.09" cy="1725.63" r="4" stroke="rgb(84,255,0)" stroke-width="2" fill="none"></circle>
<circle cx="2259.57" cy="1406.37" r="4" stroke="rgb(255,0,72)" stroke-width="2" fill="none"></circle>
<circle cx="6094.89" cy="1683.69" r="4" stroke="rgb(255,0,72)" stroke-width="2" fill="none"></circle>
<circle cx="2729.62" cy="1302.37" r="4" stroke="rgb(17,0,255)" stroke-width="2" fill="none"></circle>
<circle cx="7419.16" cy="1505.32" r="4" stroke="rgb(17,0,255)" stroke-width="2" fill="none"></circle>
</svg>