<?xml version="1.0" standalone="yes"?>
<!-- SVG graphic -->
<svg xmlns='http://www.w3.org/2000/svg' xmlns:xlink='http://www.w3.org/1999/xlink'
width="8064px" height="3024px" preserveAspectRatio="xMinYMin meet" viewBox="0 0 8064 3024" version="1.1">
<image x="0" y="0" width="4032px" height="3024px" opacity="1" xlink:href="/home/jeong/Code/2D-to-3D-Modeling-using-AI/Make3D/Image/20200227_180719.jpg"/>
<image x="4032" y="0" width="4032px" height="3024px" opacity="1" xlink:href="/home/jeong/Code/2D-to-3D-Modeling-using-AI/Make3D/Image/20200227_180747.jpg"/>
<polyline points="977.707,1505.09,5287.19,323.331" stroke="rgb(42,255,0)" stroke-width="2" fill="none"></polyline>
<polyline points="1194.36,1045.85,4598.44,1031.14" stroke="rgb(12,0,255)" stroke-width="2" fill="none"></polyline>
<polyline points="1201.47,1013.58,5652.05,836.997" stroke="rgb(118,0,255)" stroke-width="2" fill="none"></polyline>
<polyline points="1523.94,1057,5515.82,843.6" stroke="rgb(0,89,255)" stroke-width="2" fill="none"></polyline>
<polyline points="1179.74,1465.12,5662.67,1409.89" stroke="rgb(0,255,97)" stroke-width="2" fill="none"></polyline>
<polyline points="1667.1,823.821,5301.54,845.661" stroke="rgb(255,0,204)" stroke-width="2" fill="none"></polyline>
<polyline points="979.615,1424.69,4958.77,2036.5" stroke="rgb(195,255,0)" stroke-width="2" fill="none"></polyline>
<polyline points="1709.6,705.955,5613.92,1046.36" stroke="rgb(59,255,0)" stroke-width="2" fill="none"></polyline>
<polyline points="1483.68,873.827,4948.27,2107.09" stroke="rgb(0,255,225)" stroke-width="2" fill="none"></polyline>
<polyline points="1554.25,1010.02,5540.51,1047.67" stroke="rgb(46,0,255)" stroke-width="2" fill="none"></polyline>
<polyline points="853.008,1179.39,5279.91,1051.63" stroke="rgb(191,255,0)" stroke-width="2" fill="none"></polyline>
<polyline points="1256.37,688.285,6796.21,860.687" stroke="rgb(0,178,255)" stroke-width="2" fill="none"></polyline>
<polyline points="1355.18,791.593,4920.89,1060.5" stroke="rgb(0,67,255)" stroke-width="2" fill="none"></polyline>
<polyline points="1124.75,1462.28,4955.08,2058.01" stroke="rgb(0,250,255)" stroke-width="2" fill="none"></polyline>
<polyline points="1614.49,701.834,4924.58,1444.6" stroke="rgb(0,255,140)" stroke-width="2" fill="none"></polyline>
<polyline points="1179.74,1465.12,5493.05,1443.52" stroke="rgb(21,255,0)" stroke-width="2" fill="none"></polyline>
<polyline points="1232.05,686.918,6810.27,875.873" stroke="rgb(186,0,255)" stroke-width="2" fill="none"></polyline>
<polyline points="1757.01,1390.64,5536.07,1444.87" stroke="rgb(0,85,255)" stroke-width="2" fill="none"></polyline>
<polyline points="1475.55,784.126,4951.38,1459.38" stroke="rgb(255,216,0)" stroke-width="2" fill="none"></polyline>
<polyline points="1712.07,757.101,5617.31,1100.04" stroke="rgb(25,0,255)" stroke-width="2" fill="none"></polyline>
<polyline points="1667.1,823.821,5309.53,895.504" stroke="rgb(255,106,0)" stroke-width="2" fill="none"></polyline>
<polyline points="1194.36,1045.85,5391.2,543.105" stroke="rgb(255,131,0)" stroke-width="2" fill="none"></polyline>
<polyline points="1667.1,823.821,6909.4,835.926" stroke="rgb(221,255,0)" stroke-width="2" fill="none"></polyline>
<polyline points="1829.05,1459.12,5350.94,898.626" stroke="rgb(255,114,0)" stroke-width="2" fill="none"></polyline>
<polyline points="894.529,1103.46,4795.93,837.425" stroke="rgb(0,242,255)" stroke-width="2" fill="none"></polyline>
<polyline points="1554.25,1010.02,5556.77,1115.44" stroke="rgb(0,255,59)" stroke-width="2" fill="none"></polyline>
<polyline points="1667.1,823.821,5624.37,916.003" stroke="rgb(182,255,0)" stroke-width="2" fill="none"></polyline>
<polyline points="1667.1,823.821,5624.37,916.003" stroke="rgb(0,4,255)" stroke-width="2" fill="none"></polyline>
<polyline points="1667.1,823.821,5314.21,921.406" stroke="rgb(191,0,255)" stroke-width="2" fill="none"></polyline>
<polyline points="1667.1,823.821,6916.52,855.623" stroke="rgb(34,0,255)" stroke-width="2" fill="none"></polyline>
<polyline points="1667.1,823.821,6916.52,855.623" stroke="rgb(255,0,199)" stroke-width="2" fill="none"></polyline>
<polyline points="1667.1,823.821,5320.13,954.618" stroke="rgb(114,0,255)" stroke-width="2" fill="none"></polyline>
<polyline points="1765.02,1468.28,6456.34,636.882" stroke="rgb(255,12,0)" stroke-width="2" fill="none"></polyline>
<polyline points="1118.8,1078.42,6103.51,1554.23" stroke="rgb(114,255,0)" stroke-width="2" fill="none"></polyline>
<polyline points="1667.1,823.821,6924.14,878.567" stroke="rgb(0,255,25)" stroke-width="2" fill="none"></polyline>
<polyline points="1667.1,823.821,5392.27,661.925" stroke="rgb(0,255,114)" stroke-width="2" fill="none"></polyline>
<polyline points="1667.1,823.821,5399.16,671.94" stroke="rgb(255,195,0)" stroke-width="2" fill="none"></polyline>
<polyline points="1667.1,823.821,5399.16,671.94" stroke="rgb(199,255,0)" stroke-width="2" fill="none"></polyline>
<polyline points="1709.6,705.955,5525.28,679.756" stroke="rgb(0,255,21)" stroke-width="2" fill="none"></polyline>
<polyline points="1541.83,897.059,5588.43,1208.77" stroke="rgb(123,255,0)" stroke-width="2" fill="none"></polyline>
<polyline points="1523.94,1057,5678.06,680.306" stroke="rgb(255,0,153)" stroke-width="2" fill="none"></polyline>
<polyline points="1667.1,823.821,5370.16,1228.99" stroke="rgb(203,255,0)" stroke-width="2" fill="none"></polyline>
<polyline points="1667.1,823.821,5330.21,1016.52" stroke="rgb(0,255,174)" stroke-width="2" fill="none"></polyline>
<polyline points="2519.29,697.145,4749.1,2268.72" stroke="rgb(0,216,255)" stroke-width="2" fill="none"></polyline>
<polyline points="1667.1,823.821,5421.75,705.539" stroke="rgb(0,255,21)" stroke-width="2" fill="none"></polyline>
<polyline points="1966.38,1047.51,4644.98,1036.16" stroke="rgb(255,0,191)" stroke-width="2" fill="none"></polyline>
<polyline points="1667.1,823.821,5502.67,1039.33" stroke="rgb(0,255,237)" stroke-width="2" fill="none"></polyline>
<polyline points="1667.1,823.821,5804.55,1045.33" stroke="rgb(255,208,0)" stroke-width="2" fill="none"></polyline>
<polyline points="1414.02,1344.49,5396.25,938.359" stroke="rgb(0,255,233)" stroke-width="2" fill="none"></polyline>
<polyline points="1828.28,1478.2,5426.96,951.295" stroke="rgb(0,51,255)" stroke-width="2" fill="none"></polyline>
<polyline points="1667.1,823.821,5438.65,736.123" stroke="rgb(0,255,199)" stroke-width="2" fill="none"></polyline>
<polyline points="2626.37,1354.28,6673.12,707.081" stroke="rgb(0,169,255)" stroke-width="2" fill="none"></polyline>
<polyline points="1667.1,823.821,5340.37,1070.39" stroke="rgb(0,255,46)" stroke-width="2" fill="none"></polyline>
<polyline points="1523.94,1057,5396.82,1069.44" stroke="rgb(55,255,0)" stroke-width="2" fill="none"></polyline>
<polyline points="1667.1,823.821,5342.92,1081.1" stroke="rgb(84,255,0)" stroke-width="2" fill="none"></polyline>
<polyline points="1667.1,823.821,5668.95,1080.93" stroke="rgb(255,0,191)" stroke-width="2" fill="none"></polyline>
<polyline points="2220.22,453.931,5160.65,757.835" stroke="rgb(25,255,0)" stroke-width="2" fill="none"></polyline>
<polyline points="2220.22,453.931,5160.65,757.835" stroke="rgb(0,255,242)" stroke-width="2" fill="none"></polyline>
<polyline points="1852.87,1440.04,4697.04,1084.92" stroke="rgb(229,255,0)" stroke-width="2" fill="none"></polyline>
<polyline points="1667.1,823.821,5591.79,759.478" stroke="rgb(255,165,0)" stroke-width="2" fill="none"></polyline>
<polyline points="1667.1,823.821,5512.65,1088.16" stroke="rgb(233,255,0)" stroke-width="2" fill="none"></polyline>
<polyline points="1623.07,1407.74,4962.92,740.075" stroke="rgb(46,0,255)" stroke-width="2" fill="none"></polyline>
<polyline points="1667.1,823.821,5343.93,1092.55" stroke="rgb(255,0,229)" stroke-width="2" fill="none"></polyline>
<polyline points="1879.94,1512.65,5492.19,745.508" stroke="rgb(216,255,0)" stroke-width="2" fill="none"></polyline>
<polyline points="1179.74,1465.12,5866.01,1376" stroke="rgb(255,0,68)" stroke-width="2" fill="none"></polyline>
<polyline points="1779.71,673.444,6739.9,780.455" stroke="rgb(255,0,237)" stroke-width="2" fill="none"></polyline>
<polyline points="1667.1,823.821,5452,781.34" stroke="rgb(135,255,0)" stroke-width="2" fill="none"></polyline>
<polyline points="1667.1,823.821,5291.42,784.551" stroke="rgb(255,127,0)" stroke-width="2" fill="none"></polyline>
<polyline points="1828.28,1478.2,5747.34,1031.86" stroke="rgb(255,72,0)" stroke-width="2" fill="none"></polyline>
<polyline points="1869.78,860.965,6094.52,2460.92" stroke="rgb(148,255,0)" stroke-width="2" fill="none"></polyline>
<polyline points="1828.28,1478.2,5593.08,1033.91" stroke="rgb(0,255,8)" stroke-width="2" fill="none"></polyline>
<polyline points="1757.01,1390.64,5829.93,1402" stroke="rgb(0,110,255)" stroke-width="2" fill="none"></polyline>
<polyline points="1667.1,823.821,5601.28,804.609" stroke="rgb(255,123,0)" stroke-width="2" fill="none"></polyline>
<polyline points="1667.1,823.821,5457.04,804.719" stroke="rgb(182,0,255)" stroke-width="2" fill="none"></polyline>
<polyline points="1667.1,823.821,5295.47,808.83" stroke="rgb(148,0,255)" stroke-width="2" fill="none"></polyline>
<polyline points="1179.74,1465.12,5580.14,1430.68" stroke="rgb(255,114,0)" stroke-width="2" fill="none"></polyline>
<polyline points="1757.01,1390.64,5668.62,1431.46" stroke="rgb(0,8,255)" stroke-width="2" fill="none"></polyline>
<polyline points="2458.76,1083.43,6002.16,1880.96" stroke="rgb(123,255,0)" stroke-width="2" fill="none"></polyline>
<polyline points="1667.1,823.821,5297.35,822.969" stroke="rgb(187,255,0)" stroke-width="2" fill="none"></polyline>
<polyline points="1519.38,1086.96,6980.59,1140.56" stroke="rgb(191,0,255)" stroke-width="2" fill="none"></polyline>
<polyline points="1667.1,823.821,5297.35,822.969" stroke="rgb(0,208,255)" stroke-width="2" fill="none"></polyline>
<polyline points="1667.1,823.821,5353.06,1143.25" stroke="rgb(16,255,0)" stroke-width="2" fill="none"></polyline>
<polyline points="1757.01,1390.64,5496.76,1456.28" stroke="rgb(255,0,8)" stroke-width="2" fill="none"></polyline>
<polyline points="1169.82,725.989,6226.71,2675.86" stroke="rgb(255,0,157)" stroke-width="2" fill="none"></polyline>
<polyline points="2325.36,828.099,5449.41,2747.07" stroke="rgb(0,72,255)" stroke-width="2" fill="none"></polyline>
<polyline points="969.501,1109.22,5761.81,1910.33" stroke="rgb(93,255,0)" stroke-width="2" fill="none"></polyline>
<polyline points="1541.83,897.059,5583.16,1155.99" stroke="rgb(0,255,127)" stroke-width="2" fill="none"></polyline>
<polyline points="2215.15,964.291,5186.94,2817.3" stroke="rgb(255,0,97)" stroke-width="2" fill="none"></polyline>
<polyline points="1667.1,823.821,5357.72,1165.79" stroke="rgb(148,0,255)" stroke-width="2" fill="none"></polyline>
<polyline points="1156.25,994.607,5335.64,791.471" stroke="rgb(135,255,0)" stroke-width="2" fill="none"></polyline>
<polyline points="1355.18,791.593,4953.77,1173.21" stroke="rgb(34,0,255)" stroke-width="2" fill="none"></polyline>
<polyline points="1667.1,823.821,5359.39,1173.76" stroke="rgb(0,114,255)" stroke-width="2" fill="none"></polyline>
<polyline points="1667.1,823.821,5362.5,1190.41" stroke="rgb(255,0,89)" stroke-width="2" fill="none"></polyline>
<polyline points="1564.86,1408.95,4707.13,803.191" stroke="rgb(229,255,0)" stroke-width="2" fill="none"></polyline>
<polyline points="1523.94,1057,5645.89,814.129" stroke="rgb(0,255,144)" stroke-width="2" fill="none"></polyline>
<polyline points="1667.1,823.821,5544.78,1231.93" stroke="rgb(255,0,157)" stroke-width="2" fill="none"></polyline>
<polyline points="2125.44,1216.77,6308.04,1605.8" stroke="rgb(12,0,255)" stroke-width="2" fill="none"></polyline>
<polyline points="1667.1,823.821,5639.79,1249.52" stroke="rgb(25,255,0)" stroke-width="2" fill="none"></polyline>
<polyline points="1667.1,823.821,5633.18,1250.74" stroke="rgb(255,0,25)" stroke-width="2" fill="none"></polyline>
<polyline points="1068.68,814.952,4839.22,1183.74" stroke="rgb(85,0,255)" stroke-width="2" fill="none"></polyline>
<polyline points="1414.02,1344.49,5557.99,907.431" stroke="rgb(208,255,0)" stroke-width="2" fill="none"></polyline>
<polyline points="1667.1,823.821,5481.61,1272.74" stroke="rgb(255,0,51)" stroke-width="2" fill="none"></polyline>
<polyline points="1712.07,757.101,5496.35,1276.05" stroke="rgb(255,0,59)" stroke-width="2" fill="none"></polyline>
<polyline points="1591.43,871.971,5037.81,1749.13" stroke="rgb(84,255,0)" stroke-width="2" fill="none"></polyline>
<polyline points="1194.36,1045.85,4572.69,986.111" stroke="rgb(131,0,255)" stroke-width="2" fill="none"></polyline>
<polyline points="1879.94,1512.65,5629.56,1295.72" stroke="rgb(89,0,255)" stroke-width="2" fill="none"></polyline>
<polyline points="1428.1,1436.92,6791.21,1811.21" stroke="rgb(0,255,29)" stroke-width="2" fill="none"></polyline>
<polyline points="1375.57,1417.54,5640.98,1838.8" stroke="rgb(255,93,0)" stroke-width="2" fill="none"></polyline>
<polyline points="1572.61,659.946,5040.12,1316.97" stroke="rgb(0,63,255)" stroke-width="2" fill="none"></polyline>
<polyline points="1375.57,1417.54,5640.98,1838.8" stroke="rgb(187,255,0)" stroke-width="2" fill="none"></polyline>
<polyline points="2312.83,597.578,4931.52,1327.67" stroke="rgb(255,0,225)" stroke-width="2" fill="none"></polyline>
<polyline points="820.421,1318.21,6538.82,1913.75" stroke="rgb(255,238,0)" stroke-width="2" fill="none"></polyline>
<polyline points="1519.38,1086.96,7127.28,1369.35" stroke="rgb(237,255,0)" stroke-width="2" fill="none"></polyline>
<polyline points="1179.74,1465.12,5789.56,1399.31" stroke="rgb(255,0,233)" stroke-width="2" fill="none"></polyline>
<polyline points="1905.79,1519.99,6803.05,778.475" stroke="rgb(46,0,255)" stroke-width="2" fill="none"></polyline>
<polyline points="1599.47,645.775,5657.35,795.369" stroke="rgb(0,255,165)" stroke-width="2" fill="none"></polyline>
<polyline points="1667.1,823.821,5190.6,801.407" stroke="rgb(148,0,255)" stroke-width="2" fill="none"></polyline>
<polyline points="1096.84,1476.16,5567.66,2209.01" stroke="rgb(255,174,0)" stroke-width="2" fill="none"></polyline>
<polyline points="1965.79,1482.26,5378.42,2296.47" stroke="rgb(0,255,72)" stroke-width="2" fill="none"></polyline>
<polyline points="1580.99,664.667,5031.87,1323.81" stroke="rgb(242,255,0)" stroke-width="2" fill="none"></polyline>
<polyline points="1429.17,696.585,5040.39,1381.97" stroke="rgb(255,4,0)" stroke-width="2" fill="none"></polyline>
<polyline points="1414.02,1344.49,5393.24,862.523" stroke="rgb(72,0,255)" stroke-width="2" fill="none"></polyline>
<polyline points="1740.97,617.509,5057.66,1457.67" stroke="rgb(0,255,118)" stroke-width="2" fill="none"></polyline>
<polyline points="1069.32,773.941,4922.19,1126.92" stroke="rgb(255,0,85)" stroke-width="2" fill="none"></polyline>
<polyline points="1414.02,1344.49,5360.04,905.398" stroke="rgb(0,187,255)" stroke-width="2" fill="none"></polyline>
<polyline points="1072.75,778.836,4916.39,1145.03" stroke="rgb(255,0,246)" stroke-width="2" fill="none"></polyline>
<polyline points="1891.54,1476.07,5114.14,1167.17" stroke="rgb(255,0,237)" stroke-width="2" fill="none"></polyline>
<polyline points="1072.75,778.836,4916.39,1145.03" stroke="rgb(174,255,0)" stroke-width="2" fill="none"></polyline>
<polyline points="1483.57,911.36,4778.65,911.744" stroke="rgb(203,0,255)" stroke-width="2" fill="none"></polyline>
<polyline points="1086.35,820.28,4847.9,1202.62" stroke="rgb(246,0,255)" stroke-width="2" fill="none"></polyline>
<polyline points="2195.32,1278.57,6676.43,831.146" stroke="rgb(0,123,255)" stroke-width="2" fill="none"></polyline>
<polyline points="1100.07,944.273,4942.57,1984.38" stroke="rgb(255,0,4)" stroke-width="2" fill="none"></polyline>
<polyline points="1449.09,745.274,5811.95,1421.07" stroke="rgb(0,255,161)" stroke-width="2" fill="none"></polyline>
<polyline points="1449.09,745.274,5811.95,1421.07" stroke="rgb(0,178,255)" stroke-width="2" fill="none"></polyline>
<polyline points="1449.09,745.274,5650.58,1453.9" stroke="rgb(255,0,123)" stroke-width="2" fill="none"></polyline>
<polyline points="987.002,1367.13,5969.84,1636.58" stroke="rgb(216,255,0)" stroke-width="2" fill="none"></polyline>
<polyline points="1144.04,833.22,5359.37,2780.16" stroke="rgb(255,0,123)" stroke-width="2" fill="none"></polyline>
<polyline points="2691.09,1101.29,6403.73,591.141" stroke="rgb(255,0,123)" stroke-width="2" fill="none"></polyline>
<polyline points="2463.56,1446.38,6646.79,2458.82" stroke="rgb(123,255,0)" stroke-width="2" fill="none"></polyline>
<polyline points="2096.39,1218.37,5625.38,795.829" stroke="rgb(0,187,255)" stroke-width="2" fill="none"></polyline>
<polyline points="1329.79,1313.19,5711.74,2650.93" stroke="rgb(165,0,255)" stroke-width="2" fill="none"></polyline>
<polyline points="1593.05,1296.17,5555.39,1082.62" stroke="rgb(131,0,255)" stroke-width="2" fill="none"></polyline>
<polyline points="1593.05,1296.17,5555.39,1082.62" stroke="rgb(0,255,21)" stroke-width="2" fill="none"></polyline>
<polyline points="2550.52,1411.54,5348.72,448.904" stroke="rgb(255,0,72)" stroke-width="2" fill="none"></polyline>
<polyline points="1979.69,1115.57,5406.6,784.245" stroke="rgb(0,101,255)" stroke-width="2" fill="none"></polyline>
<polyline points="1079.98,1503.59,5809.85,2776.37" stroke="rgb(34,0,255)" stroke-width="2" fill="none"></polyline>
<polyline points="1940,485.752,5387.16,2156.57" stroke="rgb(0,255,93)" stroke-width="2" fill="none"></polyline>
<circle cx="977.707" cy="1505.09" r="4" stroke="rgb(42,255,0)" stroke-width="2" fill="none"></circle>
<circle cx="5287.19" cy="323.331" r="4" stroke="rgb(42,255,0)" stroke-width="2" fill="none"></circle>
<circle cx="1194.36" cy="1045.85" r="4" stroke="rgb(12,0,255)" stroke-width="2" fill="none"></circle>
<circle cx="4598.44" cy="1031.14" r="4" stroke="rgb(12,0,255)" stroke-width="2" fill="none"></circle>
<circle cx="1201.47" cy="1013.58" r="4" stroke="rgb(118,0,255)" stroke-width="2" fill="none"></circle>
<circle cx="5652.05" cy="836.997" r="4" stroke="rgb(118,0,255)" stroke-width="2" fill="none"></circle>
<circle cx="1523.94" cy="1057" r="4" stroke="rgb(0,89,255)" stroke-width="2" fill="none"></circle>
<circle cx="5515.82" cy="843.6" r="4" stroke="rgb(0,89,255)" stroke-width="2" fill="none"></circle>
<circle cx="1179.74" cy="1465.12" r="4" stroke="rgb(0,255,97)" stroke-width="2" fill="none"></circle>
<circle cx="5662.67" cy="1409.89" r="4" stroke="rgb(0,255,97)" stroke-width="2" fill="none"></circle>
<circle cx="1667.1" cy="823.821" r="4" stroke="rgb(255,0,204)" stroke-width="2" fill="none"></circle>
<circle cx="5301.54" cy="845.661" r="4" stroke="rgb(255,0,204)" stroke-width="2" fill="none"></circle>
<circle cx="979.615" cy="1424.69" r="4" stroke="rgb(195,255,0)" stroke-width="2" fill="none"></circle>
<circle cx="4958.77" cy="2036.5" r="4" stroke="rgb(195,255,0)" stroke-width="2" fill="none"></circle>
<circle cx="1709.6" cy="705.955" r="4" stroke="rgb(59,255,0)" stroke-width="2" fill="none"></circle>
<circle cx="5613.92" cy="1046.36" r="4" stroke="rgb(59,255,0)" stroke-width="2" fill="none"></circle>
<circle cx="1483.68" cy="873.827" r="4" stroke="rgb(0,255,225)" stroke-width="2" fill="none"></circle>
<circle cx="4948.27" cy="2107.09" r="4" stroke="rgb(0,255,225)" stroke-width="2" fill="none"></circle>
<circle cx="1554.25" cy="1010.02" r="4" stroke="rgb(46,0,255)" stroke-width="2" fill="none"></circle>
<circle cx="5540.51" cy="1047.67" r="4" stroke="rgb(46,0,255)" stroke-width="2" fill="none"></circle>
<circle cx="853.008" cy="1179.39" r="4" stroke="rgb(191,255,0)" stroke-width="2" fill="none"></circle>
<circle cx="5279.91" cy="1051.63" r="4" stroke="rgb(191,255,0)" stroke-width="2" fill="none"></circle>
<circle cx="1256.37" cy="688.285" r="4" stroke="rgb(0,178,255)" stroke-width="2" fill="none"></circle>
<circle cx="6796.21" cy="860.687" r="4" stroke="rgb(0,178,255)" stroke-width="2" fill="none"></circle>
<circle cx="1355.18" cy="791.593" r="4" stroke="rgb(0,67,255)" stroke-width="2" fill="none"></circle>
<circle cx="4920.89" cy="1060.5" r="4" stroke="rgb(0,67,255)" stroke-width="2" fill="none"></circle>
<circle cx="1124.75" cy="1462.28" r="4" stroke="rgb(0,250,255)" stroke-width="2" fill="none"></circle>
<circle cx="4955.08" cy="2058.01" r="4" stroke="rgb(0,250,255)" stroke-width="2" fill="none"></circle>
<circle cx="1614.49" cy="701.834" r="4" stroke="rgb(0,255,140)" stroke-width="2" fill="none"></circle>
<circle cx="4924.58" cy="1444.6" r="4" stroke="rgb(0,255,140)" stroke-width="2" fill="none"></circle>
<circle cx="1179.74" cy="1465.12" r="4" stroke="rgb(21,255,0)" stroke-width="2" fill="none"></circle>
<circle cx="5493.05" cy="1443.52" r="4" stroke="rgb(21,255,0)" stroke-width="2" fill="none"></circle>
<circle cx="1232.05" cy="686.918" r="4" stroke="rgb(186,0,255)" stroke-width="2" fill="none"></circle>
<circle cx="6810.27" cy="875.873" r="4" stroke="rgb(186,0,255)" stroke-width="2" fill="none"></circle>
<circle cx="1757.01" cy="1390.64" r="4" stroke="rgb(0,85,255)" stroke-width="2" fill="none"></circle>
<circle cx="5536.07" cy="1444.87" r="4" stroke="rgb(0,85,255)" stroke-width="2" fill="none"></circle>
<circle cx="1475.55" cy="784.126" r="4" stroke="rgb(255,216,0)" stroke-width="2" fill="none"></circle>
<circle cx="4951.38" cy="1459.38" r="4" stroke="rgb(255,216,0)" stroke-width="2" fill="none"></circle>
<circle cx="1712.07" cy="757.101" r="4" stroke="rgb(25,0,255)" stroke-width="2" fill="none"></circle>
<circle cx="5617.31" cy="1100.04" r="4" stroke="rgb(25,0,255)" stroke-width="2" fill="none"></circle>
<circle cx="1667.1" cy="823.821" r="4" stroke="rgb(255,106,0)" stroke-width="2" fill="none"></circle>
<circle cx="5309.53" cy="895.504" r="4" stroke="rgb(255,106,0)" stroke-width="2" fill="none"></circle>
<circle cx="1194.36" cy="1045.85" r="4" stroke="rgb(255,131,0)" stroke-width="2" fill="none"></circle>
<circle cx="5391.2" cy="543.105" r="4" stroke="rgb(255,131,0)" stroke-width="2" fill="none"></circle>
<circle cx="1667.1" cy="823.821" r="4" stroke="rgb(221,255,0)" stroke-width="2" fill="none"></circle>
<circle cx="6909.4" cy="835.926" r="4" stroke="rgb(221,255,0)" stroke-width="2" fill="none"></circle>
<circle cx="1829.05" cy="1459.12" r="4" stroke="rgb(255,114,0)" stroke-width="2" fill="none"></circle>
<circle cx="5350.94" cy="898.626" r="4" stroke="rgb(255,114,0)" stroke-width="2" fill="none"></circle>
<circle cx="894.529" cy="1103.46" r="4" stroke="rgb(0,242,255)" stroke-width="2" fill="none"></circle>
<circle cx="4795.93" cy="837.425" r="4" stroke="rgb(0,242,255)" stroke-width="2" fill="none"></circle>
<circle cx="1554.25" cy="1010.02" r="4" stroke="rgb(0,255,59)" stroke-width="2" fill="none"></circle>
<circle cx="5556.77" cy="1115.44" r="4" stroke="rgb(0,255,59)" stroke-width="2" fill="none"></circle>
<circle cx="1667.1" cy="823.821" r="4" stroke="rgb(182,255,0)" stroke-width="2" fill="none"></circle>
<circle cx="5624.37" cy="916.003" r="4" stroke="rgb(182,255,0)" stroke-width="2" fill="none"></circle>
<circle cx="1667.1" cy="823.821" r="4" stroke="rgb(0,4,255)" stroke-width="2" fill="none"></circle>
<circle cx="5624.37" cy="916.003" r="4" stroke="rgb(0,4,255)" stroke-width="2" fill="none"></circle>
<circle cx="1667.1" cy="823.821" r="4" stroke="rgb(191,0,255)" stroke-width="2" fill="none"></circle>
<circle cx="5314.21" cy="921.406" r="4" stroke="rgb(191,0,255)" stroke-width="2" fill="none"></circle>
<circle cx="1667.1" cy="823.821" r="4" stroke="rgb(34,0,255)" stroke-width="2" fill="none"></circle>
<circle cx="6916.52" cy="855.623" r="4" stroke="rgb(34,0,255)" stroke-width="2" fill="none"></circle>
<circle cx="1667.1" cy="823.821" r="4" stroke="rgb(255,0,199)" stroke-width="2" fill="none"></circle>
<circle cx="6916.52" cy="855.623" r="4" stroke="rgb(255,0,199)" stroke-width="2" fill="none"></circle>
<circle cx="1667.1" cy="823.821" r="4" stroke="rgb(114,0,255)" stroke-width="2" fill="none"></circle>
<circle cx="5320.13" cy="954.618" r="4" stroke="rgb(114,0,255)" stroke-width="2" fill="none"></circle>
<circle cx="1765.02" cy="1468.28" r="4" stroke="rgb(255,12,0)" stroke-width="2" fill="none"></circle>
<circle cx="6456.34" cy="636.882" r="4" stroke="rgb(255,12,0)" stroke-width="2" fill="none"></circle>
<circle cx="1118.8" cy="1078.42" r="4" stroke="rgb(114,255,0)" stroke-width="2" fill="none"></circle>
<circle cx="6103.51" cy="1554.23" r="4" stroke="rgb(114,255,0)" stroke-width="2" fill="none"></circle>
<circle cx="1667.1" cy="823.821" r="4" stroke="rgb(0,255,25)" stroke-width="2" fill="none"></circle>
<circle cx="6924.14" cy="878.567" r="4" stroke="rgb(0,255,25)" stroke-width="2" fill="none"></circle>
<circle cx="1667.1" cy="823.821" r="4" stroke="rgb(0,255,114)" stroke-width="2" fill="none"></circle>
<circle cx="5392.27" cy="661.925" r="4" stroke="rgb(0,255,114)" stroke-width="2" fill="none"></circle>
<circle cx="1667.1" cy="823.821" r="4" stroke="rgb(255,195,0)" stroke-width="2" fill="none"></circle>
<circle cx="5399.16" cy="671.94" r="4" stroke="rgb(255,195,0)" stroke-width="2" fill="none"></circle>
<circle cx="1667.1" cy="823.821" r="4" stroke="rgb(199,255,0)" stroke-width="2" fill="none"></circle>
<circle cx="5399.16" cy="671.94" r="4" stroke="rgb(199,255,0)" stroke-width="2" fill="none"></circle>
<circle cx="1709.6" cy="705.955" r="4" stroke="rgb(0,255,21)" stroke-width="2" fill="none"></circle>
<circle cx="5525.28" cy="679.756" r="4" stroke="rgb(0,255,21)" stroke-width="2" fill="none"></circle>
<circle cx="1541.83" cy="897.059" r="4" stroke="rgb(123,255,0)" stroke-width="2" fill="none"></circle>
<circle cx="5588.43" cy="1208.77" r="4" stroke="rgb(123,255,0)" stroke-width="2" fill="none"></circle>
<circle cx="1523.94" cy="1057" r="4" stroke="rgb(255,0,153)" stroke-width="2" fill="none"></circle>
<circle cx="5678.06" cy="680.306" r="4" stroke="rgb(255,0,153)" stroke-width="2" fill="none"></circle>
<circle cx="1667.1" cy="823.821" r="4" stroke="rgb(203,255,0)" stroke-width="2" fill="none"></circle>
<circle cx="5370.16" cy="1228.99" r="4" stroke="rgb(203,255,0)" stroke-width="2" fill="none"></circle>
<circle cx="1667.1" cy="823.821" r="4" stroke="rgb(0,255,174)" stroke-width="2" fill="none"></circle>
<circle cx="5330.21" cy="1016.52" r="4" stroke="rgb(0,255,174)" stroke-width="2" fill="none"></circle>
<circle cx="2519.29" cy="697.145" r="4" stroke="rgb(0,216,255)" stroke-width="2" fill="none"></circle>
<circle cx="4749.1" cy="2268.72" r="4" stroke="rgb(0,216,255)" stroke-width="2" fill="none"></circle>
<circle cx="1667.1" cy="823.821" r="4" stroke="rgb(0,255,21)" stroke-width="2" fill="none"></circle>
<circle cx="5421.75" cy="705.539" r="4" stroke="rgb(0,255,21)" stroke-width="2" fill="none"></circle>
<circle cx="1966.38" cy="1047.51" r="4" stroke="rgb(255,0,191)" stroke-width="2" fill="none"></circle>
<circle cx="4644.98" cy="1036.16" r="4" stroke="rgb(255,0,191)" stroke-width="2" fill="none"></circle>
<circle cx="1667.1" cy="823.821" r="4" stroke="rgb(0,255,237)" stroke-width="2" fill="none"></circle>
<circle cx="5502.67" cy="1039.33" r="4" stroke="rgb(0,255,237)" stroke-width="2" fill="none"></circle>
<circle cx="1667.1" cy="823.821" r="4" stroke="rgb(255,208,0)" stroke-width="2" fill="none"></circle>
<circle cx="5804.55" cy="1045.33" r="4" stroke="rgb(255,208,0)" stroke-width="2" fill="none"></circle>
<circle cx="1414.02" cy="1344.49" r="4" stroke="rgb(0,255,233)" stroke-width="2" fill="none"></circle>
<circle cx="5396.25" cy="938.359" r="4" stroke="rgb(0,255,233)" stroke-width="2" fill="none"></circle>
<circle cx="1828.28" cy="1478.2" r="4" stroke="rgb(0,51,255)" stroke-width="2" fill="none"></circle>
<circle cx="5426.96" cy="951.295" r="4" stroke="rgb(0,51,255)" stroke-width="2" fill="none"></circle>
<circle cx="1667.1" cy="823.821" r="4" stroke="rgb(0,255,199)" stroke-width="2" fill="none"></circle>
<circle cx="5438.65" cy="736.123" r="4" stroke="rgb(0,255,199)" stroke-width="2" fill="none"></circle>
<circle cx="2626.37" cy="1354.28" r="4" stroke="rgb(0,169,255)" stroke-width="2" fill="none"></circle>
<circle cx="6673.12" cy="707.081" r="4" stroke="rgb(0,169,255)" stroke-width="2" fill="none"></circle>
<circle cx="1667.1" cy="823.821" r="4" stroke="rgb(0,255,46)" stroke-width="2" fill="none"></circle>
<circle cx="5340.37" cy="1070.39" r="4" stroke="rgb(0,255,46)" stroke-width="2" fill="none"></circle>
<circle cx="1523.94" cy="1057" r="4" stroke="rgb(55,255,0)" stroke-width="2" fill="none"></circle>
<circle cx="5396.82" cy="1069.44" r="4" stroke="rgb(55,255,0)" stroke-width="2" fill="none"></circle>
<circle cx="1667.1" cy="823.821" r="4" stroke="rgb(84,255,0)" stroke-width="2" fill="none"></circle>
<circle cx="5342.92" cy="1081.1" r="4" stroke="rgb(84,255,0)" stroke-width="2" fill="none"></circle>
<circle cx="1667.1" cy="823.821" r="4" stroke="rgb(255,0,191)" stroke-width="2" fill="none"></circle>
<circle cx="5668.95" cy="1080.93" r="4" stroke="rgb(255,0,191)" stroke-width="2" fill="none"></circle>
<circle cx="2220.22" cy="453.931" r="4" stroke="rgb(25,255,0)" stroke-width="2" fill="none"></circle>
<circle cx="5160.65" cy="757.835" r="4" stroke="rgb(25,255,0)" stroke-width="2" fill="none"></circle>
<circle cx="2220.22" cy="453.931" r="4" stroke="rgb(0,255,242)" stroke-width="2" fill="none"></circle>
<circle cx="5160.65" cy="757.835" r="4" stroke="rgb(0,255,242)" stroke-width="2" fill="none"></circle>
<circle cx="1852.87" cy="1440.04" r="4" stroke="rgb(229,255,0)" stroke-width="2" fill="none"></circle>
<circle cx="4697.04" cy="1084.92" r="4" stroke="rgb(229,255,0)" stroke-width="2" fill="none"></circle>
<circle cx="1667.1" cy="823.821" r="4" stroke="rgb(255,165,0)" stroke-width="2" fill="none"></circle>
<circle cx="5591.79" cy="759.478" r="4" stroke="rgb(255,165,0)" stroke-width="2" fill="none"></circle>
<circle cx="1667.1" cy="823.821" r="4" stroke="rgb(233,255,0)" stroke-width="2" fill="none"></circle>
<circle cx="5512.65" cy="1088.16" r="4" stroke="rgb(233,255,0)" stroke-width="2" fill="none"></circle>
<circle cx="1623.07" cy="1407.74" r="4" stroke="rgb(46,0,255)" stroke-width="2" fill="none"></circle>
<circle cx="4962.92" cy="740.075" r="4" stroke="rgb(46,0,255)" stroke-width="2" fill="none"></circle>
<circle cx="1667.1" cy="823.821" r="4" stroke="rgb(255,0,229)" stroke-width="2" fill="none"></circle>
<circle cx="5343.93" cy="1092.55" r="4" stroke="rgb(255,0,229)" stroke-width="2" fill="none"></circle>
<circle cx="1879.94" cy="1512.65" r="4" stroke="rgb(216,255,0)" stroke-width="2" fill="none"></circle>
<circle cx="5492.19" cy="745.508" r="4" stroke="rgb(216,255,0)" stroke-width="2" fill="none"></circle>
<circle cx="1179.74" cy="1465.12" r="4" stroke="rgb(255,0,68)" stroke-width="2" fill="none"></circle>
<circle cx="5866.01" cy="1376" r="4" stroke="rgb(255,0,68)" stroke-width="2" fill="none"></circle>
<circle cx="1779.71" cy="673.444" r="4" stroke="rgb(255,0,237)" stroke-width="2" fill="none"></circle>
<circle cx="6739.9" cy="780.455" r="4" stroke="rgb(255,0,237)" stroke-width="2" fill="none"></circle>
<circle cx="1667.1" cy="823.821" r="4" stroke="rgb(135,255,0)" stroke-width="2" fill="none"></circle>
<circle cx="5452" cy="781.34" r="4" stroke="rgb(135,255,0)" stroke-width="2" fill="none"></circle>
<circle cx="1667.1" cy="823.821" r="4" stroke="rgb(255,127,0)" stroke-width="2" fill="none"></circle>
<circle cx="5291.42" cy="784.551" r="4" stroke="rgb(255,127,0)" stroke-width="2" fill="none"></circle>
<circle cx="1828.28" cy="1478.2" r="4" stroke="rgb(255,72,0)" stroke-width="2" fill="none"></circle>
<circle cx="5747.34" cy="1031.86" r="4" stroke="rgb(255,72,0)" stroke-width="2" fill="none"></circle>
<circle cx="1869.78" cy="860.965" r="4" stroke="rgb(148,255,0)" stroke-width="2" fill="none"></circle>
<circle cx="6094.52" cy="2460.92" r="4" stroke="rgb(148,255,0)" stroke-width="2" fill="none"></circle>
<circle cx="1828.28" cy="1478.2" r="4" stroke="rgb(0,255,8)" stroke-width="2" fill="none"></circle>
<circle cx="5593.08" cy="1033.91" r="4" stroke="rgb(0,255,8)" stroke-width="2" fill="none"></circle>
<circle cx="1757.01" cy="1390.64" r="4" stroke="rgb(0,110,255)" stroke-width="2" fill="none"></circle>
<circle cx="5829.93" cy="1402" r="4" stroke="rgb(0,110,255)" stroke-width="2" fill="none"></circle>
<circle cx="1667.1" cy="823.821" r="4" stroke="rgb(255,123,0)" stroke-width="2" fill="none"></circle>
<circle cx="5601.28" cy="804.609" r="4" stroke="rgb(255,123,0)" stroke-width="2" fill="none"></circle>
<circle cx="1667.1" cy="823.821" r="4" stroke="rgb(182,0,255)" stroke-width="2" fill="none"></circle>
<circle cx="5457.04" cy="804.719" r="4" stroke="rgb(182,0,255)" stroke-width="2" fill="none"></circle>
<circle cx="1667.1" cy="823.821" r="4" stroke="rgb(148,0,255)" stroke-width="2" fill="none"></circle>
<circle cx="5295.47" cy="808.83" r="4" stroke="rgb(148,0,255)" stroke-width="2" fill="none"></circle>
<circle cx="1179.74" cy="1465.12" r="4" stroke="rgb(255,114,0)" stroke-width="2" fill="none"></circle>
<circle cx="5580.14" cy="1430.68" r="4" stroke="rgb(255,114,0)" stroke-width="2" fill="none"></circle>
<circle cx="1757.01" cy="1390.64" r="4" stroke="rgb(0,8,255)" stroke-width="2" fill="none"></circle>
<circle cx="5668.62" cy="1431.46" r="4" stroke="rgb(0,8,255)" stroke-width="2" fill="none"></circle>
<circle cx="2458.76" cy="1083.43" r="4" stroke="rgb(123,255,0)" stroke-width="2" fill="none"></circle>
<circle cx="6002.16" cy="1880.96" r="4" stroke="rgb(123,255,0)" stroke-width="2" fill="none"></circle>
<circle cx="1667.1" cy="823.821" r="4" stroke="rgb(187,255,0)" stroke-width="2" fill="none"></circle>
<circle cx="5297.35" cy="822.969" r="4" stroke="rgb(187,255,0)" stroke-width="2" fill="none"></circle>
<circle cx="1519.38" cy="1086.96" r="4" stroke="rgb(191,0,255)" stroke-width="2" fill="none"></circle>
<circle cx="6980.59" cy="1140.56" r="4" stroke="rgb(191,0,255)" stroke-width="2" fill="none"></circle>
<circle cx="1667.1" cy="823.821" r="4" stroke="rgb(0,208,255)" stroke-width="2" fill="none"></circle>
<circle cx="5297.35" cy="822.969" r="4" stroke="rgb(0,208,255)" stroke-width="2" fill="none"></circle>
<circle cx="1667.1" cy="823.821" r="4" stroke="rgb(16,255,0)" stroke-width="2" fill="none"></circle>
<circle cx="5353.06" cy="1143.25" r="4" stroke="rgb(16,255,0)" stroke-width="2" fill="none"></circle>
<circle cx="1757.01" cy="1390.64" r="4" stroke="rgb(255,0,8)" stroke-width="2" fill="none"></circle>
<circle cx="5496.76" cy="1456.28" r="4" stroke="rgb(255,0,8)" stroke-width="2" fill="none"></circle>
<circle cx="1169.82" cy="725.989" r="4" stroke="rgb(255,0,157)" stroke-width="2" fill="none"></circle>
<circle cx="6226.71" cy="2675.86" r="4" stroke="rgb(255,0,157)" stroke-width="2" fill="none"></circle>
<circle cx="2325.36" cy="828.099" r="4" stroke="rgb(0,72,255)" stroke-width="2" fill="none"></circle>
<circle cx="5449.41" cy="2747.07" r="4" stroke="rgb(0,72,255)" stroke-width="2" fill="none"></circle>
<circle cx="969.501" cy="1109.22" r="4" stroke="rgb(93,255,0)" stroke-width="2" fill="none"></circle>
<circle cx="5761.81" cy="1910.33" r="4" stroke="rgb(93,255,0)" stroke-width="2" fill="none"></circle>
<circle cx="1541.83" cy="897.059" r="4" stroke="rgb(0,255,127)" stroke-width="2" fill="none"></circle>
<circle cx="5583.16" cy="1155.99" r="4" stroke="rgb(0,255,127)" stroke-width="2" fill="none"></circle>
<circle cx="2215.15" cy="964.291" r="4" stroke="rgb(255,0,97)" stroke-width="2" fill="none"></circle>
<circle cx="5186.94" cy="2817.3" r="4" stroke="rgb(255,0,97)" stroke-width="2" fill="none"></circle>
<circle cx="1667.1" cy="823.821" r="4" stroke="rgb(148,0,255)" stroke-width="2" fill="none"></circle>
<circle cx="5357.72" cy="1165.79" r="4" stroke="rgb(148,0,255)" stroke-width="2" fill="none"></circle>
<circle cx="1156.25" cy="994.607" r="4" stroke="rgb(135,255,0)" stroke-width="2" fill="none"></circle>
<circle cx="5335.64" cy="791.471" r="4" stroke="rgb(135,255,0)" stroke-width="2" fill="none"></circle>
<circle cx="1355.18" cy="791.593" r="4" stroke="rgb(34,0,255)" stroke-width="2" fill="none"></circle>
<circle cx="4953.77" cy="1173.21" r="4" stroke="rgb(34,0,255)" stroke-width="2" fill="none"></circle>
<circle cx="1667.1" cy="823.821" r="4" stroke="rgb(0,114,255)" stroke-width="2" fill="none"></circle>
<circle cx="5359.39" cy="1173.76" r="4" stroke="rgb(0,114,255)" stroke-width="2" fill="none"></circle>
<circle cx="1667.1" cy="823.821" r="4" stroke="rgb(255,0,89)" stroke-width="2" fill="none"></circle>
<circle cx="5362.5" cy="1190.41" r="4" stroke="rgb(255,0,89)" stroke-width="2" fill="none"></circle>
<circle cx="1564.86" cy="1408.95" r="4" stroke="rgb(229,255,0)" stroke-width="2" fill="none"></circle>
<circle cx="4707.13" cy="803.191" r="4" stroke="rgb(229,255,0)" stroke-width="2" fill="none"></circle>
<circle cx="1523.94" cy="1057" r="4" stroke="rgb(0,255,144)" stroke-width="2" fill="none"></circle>
<circle cx="5645.89" cy="814.129" r="4" stroke="rgb(0,255,144)" stroke-width="2" fill="none"></circle>
<circle cx="1667.1" cy="823.821" r="4" stroke="rgb(255,0,157)" stroke-width="2" fill="none"></circle>
<circle cx="5544.78" cy="1231.93" r="4" stroke="rgb(255,0,157)" stroke-width="2" fill="none"></circle>
<circle cx="2125.44" cy="1216.77" r="4" stroke="rgb(12,0,255)" stroke-width="2" fill="none"></circle>
<circle cx="6308.04" cy="1605.8" r="4" stroke="rgb(12,0,255)" stroke-width="2" fill="none"></circle>
<circle cx="1667.1" cy="823.821" r="4" stroke="rgb(25,255,0)" stroke-width="2" fill="none"></circle>
<circle cx="5639.79" cy="1249.52" r="4" stroke="rgb(25,255,0)" stroke-width="2" fill="none"></circle>
<circle cx="1667.1" cy="823.821" r="4" stroke="rgb(255,0,25)" stroke-width="2" fill="none"></circle>
<circle cx="5633.18" cy="1250.74" r="4" stroke="rgb(255,0,25)" stroke-width="2" fill="none"></circle>
<circle cx="1068.68" cy="814.952" r="4" stroke="rgb(85,0,255)" stroke-width="2" fill="none"></circle>
<circle cx="4839.22" cy="1183.74" r="4" stroke="rgb(85,0,255)" stroke-width="2" fill="none"></circle>
<circle cx="1414.02" cy="1344.49" r="4" stroke="rgb(208,255,0)" stroke-width="2" fill="none"></circle>
<circle cx="5557.99" cy="907.431" r="4" stroke="rgb(208,255,0)" stroke-width="2" fill="none"></circle>
<circle cx="1667.1" cy="823.821" r="4" stroke="rgb(255,0,51)" stroke-width="2" fill="none"></circle>
<circle cx="5481.61" cy="1272.74" r="4" stroke="rgb(255,0,51)" stroke-width="2" fill="none"></circle>
<circle cx="1712.07" cy="757.101" r="4" stroke="rgb(255,0,59)" stroke-width="2" fill="none"></circle>
<circle cx="5496.35" cy="1276.05" r="4" stroke="rgb(255,0,59)" stroke-width="2" fill="none"></circle>
<circle cx="1591.43" cy="871.971" r="4" stroke="rgb(84,255,0)" stroke-width="2" fill="none"></circle>
<circle cx="5037.81" cy="1749.13" r="4" stroke="rgb(84,255,0)" stroke-width="2" fill="none"></circle>
<circle cx="1194.36" cy="1045.85" r="4" stroke="rgb(131,0,255)" stroke-width="2" fill="none"></circle>
<circle cx="4572.69" cy="986.111" r="4" stroke="rgb(131,0,255)" stroke-width="2" fill="none"></circle>
<circle cx="1879.94" cy="1512.65" r="4" stroke="rgb(89,0,255)" stroke-width="2" fill="none"></circle>
<circle cx="5629.56" cy="1295.72" r="4" stroke="rgb(89,0,255)" stroke-width="2" fill="none"></circle>
<circle cx="1428.1" cy="1436.92" r="4" stroke="rgb(0,255,29)" stroke-width="2" fill="none"></circle>
<circle cx="6791.21" cy="1811.21" r="4" stroke="rgb(0,255,29)" stroke-width="2" fill="none"></circle>
<circle cx="1375.57" cy="1417.54" r="4" stroke="rgb(255,93,0)" stroke-width="2" fill="none"></circle>
<circle cx="5640.98" cy="1838.8" r="4" stroke="rgb(255,93,0)" stroke-width="2" fill="none"></circle>
<circle cx="1572.61" cy="659.946" r="4" stroke="rgb(0,63,255)" stroke-width="2" fill="none"></circle>
<circle cx="5040.12" cy="1316.97" r="4" stroke="rgb(0,63,255)" stroke-width="2" fill="none"></circle>
<circle cx="1375.57" cy="1417.54" r="4" stroke="rgb(187,255,0)" stroke-width="2" fill="none"></circle>
<circle cx="5640.98" cy="1838.8" r="4" stroke="rgb(187,255,0)" stroke-width="2" fill="none"></circle>
<circle cx="2312.83" cy="597.578" r="4" stroke="rgb(255,0,225)" stroke-width="2" fill="none"></circle>
<circle cx="4931.52" cy="1327.67" r="4" stroke="rgb(255,0,225)" stroke-width="2" fill="none"></circle>
<circle cx="820.421" cy="1318.21" r="4" stroke="rgb(255,238,0)" stroke-width="2" fill="none"></circle>
<circle cx="6538.82" cy="1913.75" r="4" stroke="rgb(255,238,0)" stroke-width="2" fill="none"></circle>
<circle cx="1519.38" cy="1086.96" r="4" stroke="rgb(237,255,0)" stroke-width="2" fill="none"></circle>
<circle cx="7127.28" cy="1369.35" r="4" stroke="rgb(237,255,0)" stroke-width="2" fill="none"></circle>
<circle cx="1179.74" cy="1465.12" r="4" stroke="rgb(255,0,233)" stroke-width="2" fill="none"></circle>
<circle cx="5789.56" cy="1399.31" r="4" stroke="rgb(255,0,233)" stroke-width="2" fill="none"></circle>
<circle cx="1905.79" cy="1519.99" r="4" stroke="rgb(46,0,255)" stroke-width="2" fill="none"></circle>
<circle cx="6803.05" cy="778.475" r="4" stroke="rgb(46,0,255)" stroke-width="2" fill="none"></circle>
<circle cx="1599.47" cy="645.775" r="4" stroke="rgb(0,255,165)" stroke-width="2" fill="none"></circle>
<circle cx="5657.35" cy="795.369" r="4" stroke="rgb(0,255,165)" stroke-width="2" fill="none"></circle>
<circle cx="1667.1" cy="823.821" r="4" stroke="rgb(148,0,255)" stroke-width="2" fill="none"></circle>
<circle cx="5190.6" cy="801.407" r="4" stroke="rgb(148,0,255)" stroke-width="2" fill="none"></circle>
<circle cx="1096.84" cy="1476.16" r="4" stroke="rgb(255,174,0)" stroke-width="2" fill="none"></circle>
<circle cx="5567.66" cy="2209.01" r="4" stroke="rgb(255,174,0)" stroke-width="2" fill="none"></circle>
<circle cx="1965.79" cy="1482.26" r="4" stroke="rgb(0,255,72)" stroke-width="2" fill="none"></circle>
<circle cx="5378.42" cy="2296.47" r="4" stroke="rgb(0,255,72)" stroke-width="2" fill="none"></circle>
<circle cx="1580.99" cy="664.667" r="4" stroke="rgb(242,255,0)" stroke-width="2" fill="none"></circle>
<circle cx="5031.87" cy="1323.81" r="4" stroke="rgb(242,255,0)" stroke-width="2" fill="none"></circle>
<circle cx="1429.17" cy="696.585" r="4" stroke="rgb(255,4,0)" stroke-width="2" fill="none"></circle>
<circle cx="5040.39" cy="1381.97" r="4" stroke="rgb(255,4,0)" stroke-width="2" fill="none"></circle>
<circle cx="1414.02" cy="1344.49" r="4" stroke="rgb(72,0,255)" stroke-width="2" fill="none"></circle>
<circle cx="5393.24" cy="862.523" r="4" stroke="rgb(72,0,255)" stroke-width="2" fill="none"></circle>
<circle cx="1740.97" cy="617.509" r="4" stroke="rgb(0,255,118)" stroke-width="2" fill="none"></circle>
<circle cx="5057.66" cy="1457.67" r="4" stroke="rgb(0,255,118)" stroke-width="2" fill="none"></circle>
<circle cx="1069.32" cy="773.941" r="4" stroke="rgb(255,0,85)" stroke-width="2" fill="none"></circle>
<circle cx="4922.19" cy="1126.92" r="4" stroke="rgb(255,0,85)" stroke-width="2" fill="none"></circle>
<circle cx="1414.02" cy="1344.49" r="4" stroke="rgb(0,187,255)" stroke-width="2" fill="none"></circle>
<circle cx="5360.04" cy="905.398" r="4" stroke="rgb(0,187,255)" stroke-width="2" fill="none"></circle>
<circle cx="1072.75" cy="778.836" r="4" stroke="rgb(255,0,246)" stroke-width="2" fill="none"></circle>
<circle cx="4916.39" cy="1145.03" r="4" stroke="rgb(255,0,246)" stroke-width="2" fill="none"></circle>
<circle cx="1891.54" cy="1476.07" r="4" stroke="rgb(255,0,237)" stroke-width="2" fill="none"></circle>
<circle cx="5114.14" cy="1167.17" r="4" stroke="rgb(255,0,237)" stroke-width="2" fill="none"></circle>
<circle cx="1072.75" cy="778.836" r="4" stroke="rgb(174,255,0)" stroke-width="2" fill="none"></circle>
<circle cx="4916.39" cy="1145.03" r="4" stroke="rgb(174,255,0)" stroke-width="2" fill="none"></circle>
<circle cx="1483.57" cy="911.36" r="4" stroke="rgb(203,0,255)" stroke-width="2" fill="none"></circle>
<circle cx="4778.65" cy="911.744" r="4" stroke="rgb(203,0,255)" stroke-width="2" fill="none"></circle>
<circle cx="1086.35" cy="820.28" r="4" stroke="rgb(246,0,255)" stroke-width="2" fill="none"></circle>
<circle cx="4847.9" cy="1202.62" r="4" stroke="rgb(246,0,255)" stroke-width="2" fill="none"></circle>
<circle cx="2195.32" cy="1278.57" r="4" stroke="rgb(0,123,255)" stroke-width="2" fill="none"></circle>
<circle cx="6676.43" cy="831.146" r="4" stroke="rgb(0,123,255)" stroke-width="2" fill="none"></circle>
<circle cx="1100.07" cy="944.273" r="4" stroke="rgb(255,0,4)" stroke-width="2" fill="none"></circle>
<circle cx="4942.57" cy="1984.38" r="4" stroke="rgb(255,0,4)" stroke-width="2" fill="none"></circle>
<circle cx="1449.09" cy="745.274" r="4" stroke="rgb(0,255,161)" stroke-width="2" fill="none"></circle>
<circle cx="5811.95" cy="1421.07" r="4" stroke="rgb(0,255,161)" stroke-width="2" fill="none"></circle>
<circle cx="1449.09" cy="745.274" r="4" stroke="rgb(0,178,255)" stroke-width="2" fill="none"></circle>
<circle cx="5811.95" cy="1421.07" r="4" stroke="rgb(0,178,255)" stroke-width="2" fill="none"></circle>
<circle cx="1449.09" cy="745.274" r="4" stroke="rgb(255,0,123)" stroke-width="2" fill="none"></circle>
<circle cx="5650.58" cy="1453.9" r="4" stroke="rgb(255,0,123)" stroke-width="2" fill="none"></circle>
<circle cx="987.002" cy="1367.13" r="4" stroke="rgb(216,255,0)" stroke-width="2" fill="none"></circle>
<circle cx="5969.84" cy="1636.58" r="4" stroke="rgb(216,255,0)" stroke-width="2" fill="none"></circle>
<circle cx="1144.04" cy="833.22" r="4" stroke="rgb(255,0,123)" stroke-width="2" fill="none"></circle>
<circle cx="5359.37" cy="2780.16" r="4" stroke="rgb(255,0,123)" stroke-width="2" fill="none"></circle>
<circle cx="2691.09" cy="1101.29" r="4" stroke="rgb(255,0,123)" stroke-width="2" fill="none"></circle>
<circle cx="6403.73" cy="591.141" r="4" stroke="rgb(255,0,123)" stroke-width="2" fill="none"></circle>
<circle cx="2463.56" cy="1446.38" r="4" stroke="rgb(123,255,0)" stroke-width="2" fill="none"></circle>
<circle cx="6646.79" cy="2458.82" r="4" stroke="rgb(123,255,0)" stroke-width="2" fill="none"></circle>
<circle cx="2096.39" cy="1218.37" r="4" stroke="rgb(0,187,255)" stroke-width="2" fill="none"></circle>
<circle cx="5625.38" cy="795.829" r="4" stroke="rgb(0,187,255)" stroke-width="2" fill="none"></circle>
<circle cx="1329.79" cy="1313.19" r="4" stroke="rgb(165,0,255)" stroke-width="2" fill="none"></circle>
<circle cx="5711.74" cy="2650.93" r="4" stroke="rgb(165,0,255)" stroke-width="2" fill="none"></circle>
<circle cx="1593.05" cy="1296.17" r="4" stroke="rgb(131,0,255)" stroke-width="2" fill="none"></circle>
<circle cx="5555.39" cy="1082.62" r="4" stroke="rgb(131,0,255)" stroke-width="2" fill="none"></circle>
<circle cx="1593.05" cy="1296.17" r="4" stroke="rgb(0,255,21)" stroke-width="2" fill="none"></circle>
<circle cx="5555.39" cy="1082.62" r="4" stroke="rgb(0,255,21)" stroke-width="2" fill="none"></circle>
<circle cx="2550.52" cy="1411.54" r="4" stroke="rgb(255,0,72)" stroke-width="2" fill="none"></circle>
<circle cx="5348.72" cy="448.904" r="4" stroke="rgb(255,0,72)" stroke-width="2" fill="none"></circle>
<circle cx="1979.69" cy="1115.57" r="4" stroke="rgb(0,101,255)" stroke-width="2" fill="none"></circle>
<circle cx="5406.6" cy="784.245" r="4" stroke="rgb(0,101,255)" stroke-width="2" fill="none"></circle>
<circle cx="1079.98" cy="1503.59" r="4" stroke="rgb(34,0,255)" stroke-width="2" fill="none"></circle>
<circle cx="5809.85" cy="2776.37" r="4" stroke="rgb(34,0,255)" stroke-width="2" fill="none"></circle>
<circle cx="1940" cy="485.752" r="4" stroke="rgb(0,255,93)" stroke-width="2" fill="none"></circle>
<circle cx="5387.16" cy="2156.57" r="4" stroke="rgb(0,255,93)" stroke-width="2" fill="none"></circle>
</svg>