<?xml version="1.0" standalone="yes"?>
<!-- SVG graphic -->
<svg xmlns='http://www.w3.org/2000/svg' xmlns:xlink='http://www.w3.org/1999/xlink'
width="8064px" height="3024px" preserveAspectRatio="xMinYMin meet" viewBox="0 0 8064 3024" version="1.1">
<image x="0" y="0" width="4032px" height="3024px" opacity="1" xlink:href="/home/jeong/Code/2D-to-3D-Modeling-using-AI/Make3D/Image/20200227_180719.jpg"/>
<image x="4032" y="0" width="4032px" height="3024px" opacity="1" xlink:href="/home/jeong/Code/2D-to-3D-Modeling-using-AI/Make3D/Image/20200227_180754.jpg"/>
<polyline points="2201.91,1085.15,4977.17,154.42" stroke="rgb(0,221,255)" stroke-width="2" fill="none"></polyline>
<polyline points="1905.33,1244.46,5650.94,2457.83" stroke="rgb(157,255,0)" stroke-width="2" fill="none"></polyline>
<polyline points="2201.91,1085.15,5689.72,299.814" stroke="rgb(76,255,0)" stroke-width="2" fill="none"></polyline>
<polyline points="1013.99,904.306,4658.84,799.793" stroke="rgb(238,0,255)" stroke-width="2" fill="none"></polyline>
<polyline points="1429.17,696.585,4970.07,822.455" stroke="rgb(255,238,0)" stroke-width="2" fill="none"></polyline>
<polyline points="1483.68,873.827,4831.1,1864.18" stroke="rgb(55,0,255)" stroke-width="2" fill="none"></polyline>
<polyline points="2630.79,1383.05,5110.08,435.881" stroke="rgb(255,0,169)" stroke-width="2" fill="none"></polyline>
<polyline points="1124.75,1462.28,4794.48,1975.6" stroke="rgb(0,135,255)" stroke-width="2" fill="none"></polyline>
<polyline points="979.615,1424.69,5290.34,2165.27" stroke="rgb(255,255,0)" stroke-width="2" fill="none"></polyline>
<polyline points="2215.15,964.291,4694.18,1984.56" stroke="rgb(148,255,0)" stroke-width="2" fill="none"></polyline>
<polyline points="1461.72,751.863,4853.58,507.577" stroke="rgb(110,0,255)" stroke-width="2" fill="none"></polyline>
<polyline points="894.529,1103.46,5178.64,913.476" stroke="rgb(255,0,29)" stroke-width="2" fill="none"></polyline>
<polyline points="2393.16,626.012,6739.13,2046.61" stroke="rgb(0,255,191)" stroke-width="2" fill="none"></polyline>
<polyline points="2477.04,629.511,5317.79,688.613" stroke="rgb(255,12,0)" stroke-width="2" fill="none"></polyline>
<polyline points="894.529,1103.46,5127.93,398.297" stroke="rgb(255,0,199)" stroke-width="2" fill="none"></polyline>
<polyline points="1869.78,860.965,6336.15,2272.46" stroke="rgb(255,250,0)" stroke-width="2" fill="none"></polyline>
<polyline points="1737.14,626.765,4848.78,769" stroke="rgb(255,0,8)" stroke-width="2" fill="none"></polyline>
<polyline points="1616.5,1406.11,4381.67,782.759" stroke="rgb(255,153,0)" stroke-width="2" fill="none"></polyline>
<polyline points="750.625,1253.48,6823.62,757.53" stroke="rgb(255,0,161)" stroke-width="2" fill="none"></polyline>
<polyline points="1206.71,681.799,4991.34,793.042" stroke="rgb(67,255,0)" stroke-width="2" fill="none"></polyline>
<polyline points="1584.84,632.034,4999.14,859.615" stroke="rgb(110,0,255)" stroke-width="2" fill="none"></polyline>
<polyline points="1821.19,1056.54,5459.34,955.754" stroke="rgb(255,0,0)" stroke-width="2" fill="none"></polyline>
<polyline points="1202.23,1309.78,4850.44,2314.81" stroke="rgb(255,144,0)" stroke-width="2" fill="none"></polyline>
<polyline points="1375.57,1417.54,5512.72,987.301" stroke="rgb(255,0,25)" stroke-width="2" fill="none"></polyline>
<polyline points="1286.77,785.965,6594,2327.79" stroke="rgb(72,255,0)" stroke-width="2" fill="none"></polyline>
<polyline points="1286.77,785.965,6594,2327.79" stroke="rgb(0,153,255)" stroke-width="2" fill="none"></polyline>
<polyline points="1888.36,566.335,4807,1197.64" stroke="rgb(12,255,0)" stroke-width="2" fill="none"></polyline>
<polyline points="1343.73,731.623,4975.91,1060.23" stroke="rgb(216,255,0)" stroke-width="2" fill="none"></polyline>
<polyline points="1888.36,566.335,4797.3,1190.15" stroke="rgb(0,255,4)" stroke-width="2" fill="none"></polyline>
<polyline points="2701.49,1245.06,6054.25,1278.79" stroke="rgb(114,255,0)" stroke-width="2" fill="none"></polyline>
<polyline points="1912.36,1479.37,6157.81,2448.3" stroke="rgb(255,0,38)" stroke-width="2" fill="none"></polyline>
<polyline points="1360.1,1410.21,5697.94,1283.67" stroke="rgb(255,0,216)" stroke-width="2" fill="none"></polyline>
<polyline points="1569.15,1429.95,6101.22,2486.02" stroke="rgb(0,255,237)" stroke-width="2" fill="none"></polyline>
<polyline points="1682.3,624.968,4965.42,712.499" stroke="rgb(255,0,148)" stroke-width="2" fill="none"></polyline>
<polyline points="2118.02,591.756,5648.7,1618.19" stroke="rgb(12,255,0)" stroke-width="2" fill="none"></polyline>
<polyline points="1100.07,944.273,4925.6,1741.09" stroke="rgb(67,255,0)" stroke-width="2" fill="none"></polyline>
<polyline points="998.14,949.183,5077.85,166.205" stroke="rgb(123,255,0)" stroke-width="2" fill="none"></polyline>
<polyline points="1455.45,596.904,5124.43,1237.5" stroke="rgb(255,0,216)" stroke-width="2" fill="none"></polyline>
<polyline points="1718.17,1202.6,5236.7,354.217" stroke="rgb(255,0,199)" stroke-width="2" fill="none"></polyline>
<polyline points="1630.58,1381.03,5300.18,1860.07" stroke="rgb(0,255,131)" stroke-width="2" fill="none"></polyline>
<polyline points="1594.89,1393.75,5307.91,1897.89" stroke="rgb(255,148,0)" stroke-width="2" fill="none"></polyline>
<polyline points="1449.09,745.274,5489.01,659.105" stroke="rgb(123,255,0)" stroke-width="2" fill="none"></polyline>
<polyline points="1625.77,627.598,4898.29,635.883" stroke="rgb(255,68,0)" stroke-width="2" fill="none"></polyline>
<polyline points="1403.21,636.956,5251.96,2021.51" stroke="rgb(203,255,0)" stroke-width="2" fill="none"></polyline>
<polyline points="1620.97,657.421,4927.91,624.725" stroke="rgb(255,0,144)" stroke-width="2" fill="none"></polyline>
<polyline points="1124.75,1462.28,5106.01,719.201" stroke="rgb(255,0,127)" stroke-width="2" fill="none"></polyline>
<polyline points="1449.09,745.274,5628.54,654.482" stroke="rgb(255,12,0)" stroke-width="2" fill="none"></polyline>
<polyline points="1740.97,617.509,4858.13,759.129" stroke="rgb(255,0,148)" stroke-width="2" fill="none"></polyline>
<polyline points="1086.35,820.28,4808.85,697.833" stroke="rgb(0,8,255)" stroke-width="2" fill="none"></polyline>
<polyline points="1129.01,825.963,4856.85,738.455" stroke="rgb(0,182,255)" stroke-width="2" fill="none"></polyline>
<polyline points="1333.94,710.884,4976.54,1037.45" stroke="rgb(255,0,250)" stroke-width="2" fill="none"></polyline>
<polyline points="2102.31,1412.93,6787.83,760.443" stroke="rgb(255,68,0)" stroke-width="2" fill="none"></polyline>
<polyline points="1013.99,904.306,4659.2,798.829" stroke="rgb(216,255,0)" stroke-width="2" fill="none"></polyline>
<polyline points="1122.12,811.674,4995.14,828.176" stroke="rgb(0,140,255)" stroke-width="2" fill="none"></polyline>
<polyline points="1698.92,851.263,5105.81,834.134" stroke="rgb(255,46,0)" stroke-width="2" fill="none"></polyline>
<polyline points="894.529,1103.46,5178.95,913.617" stroke="rgb(0,255,220)" stroke-width="2" fill="none"></polyline>
<polyline points="1122.12,811.674,4978.34,1024" stroke="rgb(255,221,0)" stroke-width="2" fill="none"></polyline>
<polyline points="1337.47,697.808,4988.28,1029.33" stroke="rgb(255,0,0)" stroke-width="2" fill="none"></polyline>
<polyline points="1601.51,1418.09,5522.01,2754.86" stroke="rgb(25,255,0)" stroke-width="2" fill="none"></polyline>
<polyline points="1330.53,1400.02,6624.77,1513.98" stroke="rgb(0,255,225)" stroke-width="2" fill="none"></polyline>
<polyline points="1396.43,1344.97,5505.48,385.755" stroke="rgb(114,255,0)" stroke-width="2" fill="none"></polyline>
<polyline points="2477.04,629.511,4913.23,2736.04" stroke="rgb(255,0,97)" stroke-width="2" fill="none"></polyline>
<polyline points="1534.3,892.677,6697.83,1839.33" stroke="rgb(255,0,25)" stroke-width="2" fill="none"></polyline>
<polyline points="1367.69,1422.12,4402.44,2623.8" stroke="rgb(0,255,93)" stroke-width="2" fill="none"></polyline>
<polyline points="1491.7,1113.28,5436.06,2360.31" stroke="rgb(255,0,246)" stroke-width="2" fill="none"></polyline>
<circle cx="2201.91" cy="1085.15" r="4" stroke="rgb(0,221,255)" stroke-width="2" fill="none"></circle>
<circle cx="4977.17" cy="154.42" r="4" stroke="rgb(0,221,255)" stroke-width="2" fill="none"></circle>
<circle cx="1905.33" cy="1244.46" r="4" stroke="rgb(157,255,0)" stroke-width="2" fill="none"></circle>
<circle cx="5650.94" cy="2457.83" r="4" stroke="rgb(157,255,0)" stroke-width="2" fill="none"></circle>
<circle cx="2201.91" cy="1085.15" r="4" stroke="rgb(76,255,0)" stroke-width="2" fill="none"></circle>
<circle cx="5689.72" cy="299.814" r="4" stroke="rgb(76,255,0)" stroke-width="2" fill="none"></circle>
<circle cx="1013.99" cy="904.306" r="4" stroke="rgb(238,0,255)" stroke-width="2" fill="none"></circle>
<circle cx="4658.84" cy="799.793" r="4" stroke="rgb(238,0,255)" stroke-width="2" fill="none"></circle>
<circle cx="1429.17" cy="696.585" r="4" stroke="rgb(255,238,0)" stroke-width="2" fill="none"></circle>
<circle cx="4970.07" cy="822.455" r="4" stroke="rgb(255,238,0)" stroke-width="2" fill="none"></circle>
<circle cx="1483.68" cy="873.827" r="4" stroke="rgb(55,0,255)" stroke-width="2" fill="none"></circle>
<circle cx="4831.1" cy="1864.18" r="4" stroke="rgb(55,0,255)" stroke-width="2" fill="none"></circle>
<circle cx="2630.79" cy="1383.05" r="4" stroke="rgb(255,0,169)" stroke-width="2" fill="none"></circle>
<circle cx="5110.08" cy="435.881" r="4" stroke="rgb(255,0,169)" stroke-width="2" fill="none"></circle>
<circle cx="1124.75" cy="1462.28" r="4" stroke="rgb(0,135,255)" stroke-width="2" fill="none"></circle>
<circle cx="4794.48" cy="1975.6" r="4" stroke="rgb(0,135,255)" stroke-width="2" fill="none"></circle>
<circle cx="979.615" cy="1424.69" r="4" stroke="rgb(255,255,0)" stroke-width="2" fill="none"></circle>
<circle cx="5290.34" cy="2165.27" r="4" stroke="rgb(255,255,0)" stroke-width="2" fill="none"></circle>
<circle cx="2215.15" cy="964.291" r="4" stroke="rgb(148,255,0)" stroke-width="2" fill="none"></circle>
<circle cx="4694.18" cy="1984.56" r="4" stroke="rgb(148,255,0)" stroke-width="2" fill="none"></circle>
<circle cx="1461.72" cy="751.863" r="4" stroke="rgb(110,0,255)" stroke-width="2" fill="none"></circle>
<circle cx="4853.58" cy="507.577" r="4" stroke="rgb(110,0,255)" stroke-width="2" fill="none"></circle>
<circle cx="894.529" cy="1103.46" r="4" stroke="rgb(255,0,29)" stroke-width="2" fill="none"></circle>
<circle cx="5178.64" cy="913.476" r="4" stroke="rgb(255,0,29)" stroke-width="2" fill="none"></circle>
<circle cx="2393.16" cy="626.012" r="4" stroke="rgb(0,255,191)" stroke-width="2" fill="none"></circle>
<circle cx="6739.13" cy="2046.61" r="4" stroke="rgb(0,255,191)" stroke-width="2" fill="none"></circle>
<circle cx="2477.04" cy="629.511" r="4" stroke="rgb(255,12,0)" stroke-width="2" fill="none"></circle>
<circle cx="5317.79" cy="688.613" r="4" stroke="rgb(255,12,0)" stroke-width="2" fill="none"></circle>
<circle cx="894.529" cy="1103.46" r="4" stroke="rgb(255,0,199)" stroke-width="2" fill="none"></circle>
<circle cx="5127.93" cy="398.297" r="4" stroke="rgb(255,0,199)" stroke-width="2" fill="none"></circle>
<circle cx="1869.78" cy="860.965" r="4" stroke="rgb(255,250,0)" stroke-width="2" fill="none"></circle>
<circle cx="6336.15" cy="2272.46" r="4" stroke="rgb(255,250,0)" stroke-width="2" fill="none"></circle>
<circle cx="1737.14" cy="626.765" r="4" stroke="rgb(255,0,8)" stroke-width="2" fill="none"></circle>
<circle cx="4848.78" cy="769" r="4" stroke="rgb(255,0,8)" stroke-width="2" fill="none"></circle>
<circle cx="1616.5" cy="1406.11" r="4" stroke="rgb(255,153,0)" stroke-width="2" fill="none"></circle>
<circle cx="4381.67" cy="782.759" r="4" stroke="rgb(255,153,0)" stroke-width="2" fill="none"></circle>
<circle cx="750.625" cy="1253.48" r="4" stroke="rgb(255,0,161)" stroke-width="2" fill="none"></circle>
<circle cx="6823.62" cy="757.53" r="4" stroke="rgb(255,0,161)" stroke-width="2" fill="none"></circle>
<circle cx="1206.71" cy="681.799" r="4" stroke="rgb(67,255,0)" stroke-width="2" fill="none"></circle>
<circle cx="4991.34" cy="793.042" r="4" stroke="rgb(67,255,0)" stroke-width="2" fill="none"></circle>
<circle cx="1584.84" cy="632.034" r="4" stroke="rgb(110,0,255)" stroke-width="2" fill="none"></circle>
<circle cx="4999.14" cy="859.615" r="4" stroke="rgb(110,0,255)" stroke-width="2" fill="none"></circle>
<circle cx="1821.19" cy="1056.54" r="4" stroke="rgb(255,0,0)" stroke-width="2" fill="none"></circle>
<circle cx="5459.34" cy="955.754" r="4" stroke="rgb(255,0,0)" stroke-width="2" fill="none"></circle>
<circle cx="1202.23" cy="1309.78" r="4" stroke="rgb(255,144,0)" stroke-width="2" fill="none"></circle>
<circle cx="4850.44" cy="2314.81" r="4" stroke="rgb(255,144,0)" stroke-width="2" fill="none"></circle>
<circle cx="1375.57" cy="1417.54" r="4" stroke="rgb(255,0,25)" stroke-width="2" fill="none"></circle>
<circle cx="5512.72" cy="987.301" r="4" stroke="rgb(255,0,25)" stroke-width="2" fill="none"></circle>
<circle cx="1286.77" cy="785.965" r="4" stroke="rgb(72,255,0)" stroke-width="2" fill="none"></circle>
<circle cx="6594" cy="2327.79" r="4" stroke="rgb(72,255,0)" stroke-width="2" fill="none"></circle>
<circle cx="1286.77" cy="785.965" r="4" stroke="rgb(0,153,255)" stroke-width="2" fill="none"></circle>
<circle cx="6594" cy="2327.79" r="4" stroke="rgb(0,153,255)" stroke-width="2" fill="none"></circle>
<circle cx="1888.36" cy="566.335" r="4" stroke="rgb(12,255,0)" stroke-width="2" fill="none"></circle>
<circle cx="4807" cy="1197.64" r="4" stroke="rgb(12,255,0)" stroke-width="2" fill="none"></circle>
<circle cx="1343.73" cy="731.623" r="4" stroke="rgb(216,255,0)" stroke-width="2" fill="none"></circle>
<circle cx="4975.91" cy="1060.23" r="4" stroke="rgb(216,255,0)" stroke-width="2" fill="none"></circle>
<circle cx="1888.36" cy="566.335" r="4" stroke="rgb(0,255,4)" stroke-width="2" fill="none"></circle>
<circle cx="4797.3" cy="1190.15" r="4" stroke="rgb(0,255,4)" stroke-width="2" fill="none"></circle>
<circle cx="2701.49" cy="1245.06" r="4" stroke="rgb(114,255,0)" stroke-width="2" fill="none"></circle>
<circle cx="6054.25" cy="1278.79" r="4" stroke="rgb(114,255,0)" stroke-width="2" fill="none"></circle>
<circle cx="1912.36" cy="1479.37" r="4" stroke="rgb(255,0,38)" stroke-width="2" fill="none"></circle>
<circle cx="6157.81" cy="2448.3" r="4" stroke="rgb(255,0,38)" stroke-width="2" fill="none"></circle>
<circle cx="1360.1" cy="1410.21" r="4" stroke="rgb(255,0,216)" stroke-width="2" fill="none"></circle>
<circle cx="5697.94" cy="1283.67" r="4" stroke="rgb(255,0,216)" stroke-width="2" fill="none"></circle>
<circle cx="1569.15" cy="1429.95" r="4" stroke="rgb(0,255,237)" stroke-width="2" fill="none"></circle>
<circle cx="6101.22" cy="2486.02" r="4" stroke="rgb(0,255,237)" stroke-width="2" fill="none"></circle>
<circle cx="1682.3" cy="624.968" r="4" stroke="rgb(255,0,148)" stroke-width="2" fill="none"></circle>
<circle cx="4965.42" cy="712.499" r="4" stroke="rgb(255,0,148)" stroke-width="2" fill="none"></circle>
<circle cx="2118.02" cy="591.756" r="4" stroke="rgb(12,255,0)" stroke-width="2" fill="none"></circle>
<circle cx="5648.7" cy="1618.19" r="4" stroke="rgb(12,255,0)" stroke-width="2" fill="none"></circle>
<circle cx="1100.07" cy="944.273" r="4" stroke="rgb(67,255,0)" stroke-width="2" fill="none"></circle>
<circle cx="4925.6" cy="1741.09" r="4" stroke="rgb(67,255,0)" stroke-width="2" fill="none"></circle>
<circle cx="998.14" cy="949.183" r="4" stroke="rgb(123,255,0)" stroke-width="2" fill="none"></circle>
<circle cx="5077.85" cy="166.205" r="4" stroke="rgb(123,255,0)" stroke-width="2" fill="none"></circle>
<circle cx="1455.45" cy="596.904" r="4" stroke="rgb(255,0,216)" stroke-width="2" fill="none"></circle>
<circle cx="5124.43" cy="1237.5" r="4" stroke="rgb(255,0,216)" stroke-width="2" fill="none"></circle>
<circle cx="1718.17" cy="1202.6" r="4" stroke="rgb(255,0,199)" stroke-width="2" fill="none"></circle>
<circle cx="5236.7" cy="354.217" r="4" stroke="rgb(255,0,199)" stroke-width="2" fill="none"></circle>
<circle cx="1630.58" cy="1381.03" r="4" stroke="rgb(0,255,131)" stroke-width="2" fill="none"></circle>
<circle cx="5300.18" cy="1860.07" r="4" stroke="rgb(0,255,131)" stroke-width="2" fill="none"></circle>
<circle cx="1594.89" cy="1393.75" r="4" stroke="rgb(255,148,0)" stroke-width="2" fill="none"></circle>
<circle cx="5307.91" cy="1897.89" r="4" stroke="rgb(255,148,0)" stroke-width="2" fill="none"></circle>
<circle cx="1449.09" cy="745.274" r="4" stroke="rgb(123,255,0)" stroke-width="2" fill="none"></circle>
<circle cx="5489.01" cy="659.105" r="4" stroke="rgb(123,255,0)" stroke-width="2" fill="none"></circle>
<circle cx="1625.77" cy="627.598" r="4" stroke="rgb(255,68,0)" stroke-width="2" fill="none"></circle>
<circle cx="4898.29" cy="635.883" r="4" stroke="rgb(255,68,0)" stroke-width="2" fill="none"></circle>
<circle cx="1403.21" cy="636.956" r="4" stroke="rgb(203,255,0)" stroke-width="2" fill="none"></circle>
<circle cx="5251.96" cy="2021.51" r="4" stroke="rgb(203,255,0)" stroke-width="2" fill="none"></circle>
<circle cx="1620.97" cy="657.421" r="4" stroke="rgb(255,0,144)" stroke-width="2" fill="none"></circle>
<circle cx="4927.91" cy="624.725" r="4" stroke="rgb(255,0,144)" stroke-width="2" fill="none"></circle>
<circle cx="1124.75" cy="1462.28" r="4" stroke="rgb(255,0,127)" stroke-width="2" fill="none"></circle>
<circle cx="5106.01" cy="719.201" r="4" stroke="rgb(255,0,127)" stroke-width="2" fill="none"></circle>
<circle cx="1449.09" cy="745.274" r="4" stroke="rgb(255,12,0)" stroke-width="2" fill="none"></circle>
<circle cx="5628.54" cy="654.482" r="4" stroke="rgb(255,12,0)" stroke-width="2" fill="none"></circle>
<circle cx="1740.97" cy="617.509" r="4" stroke="rgb(255,0,148)" stroke-width="2" fill="none"></circle>
<circle cx="4858.13" cy="759.129" r="4" stroke="rgb(255,0,148)" stroke-width="2" fill="none"></circle>
<circle cx="1086.35" cy="820.28" r="4" stroke="rgb(0,8,255)" stroke-width="2" fill="none"></circle>
<circle cx="4808.85" cy="697.833" r="4" stroke="rgb(0,8,255)" stroke-width="2" fill="none"></circle>
<circle cx="1129.01" cy="825.963" r="4" stroke="rgb(0,182,255)" stroke-width="2" fill="none"></circle>
<circle cx="4856.85" cy="738.455" r="4" stroke="rgb(0,182,255)" stroke-width="2" fill="none"></circle>
<circle cx="1333.94" cy="710.884" r="4" stroke="rgb(255,0,250)" stroke-width="2" fill="none"></circle>
<circle cx="4976.54" cy="1037.45" r="4" stroke="rgb(255,0,250)" stroke-width="2" fill="none"></circle>
<circle cx="2102.31" cy="1412.93" r="4" stroke="rgb(255,68,0)" stroke-width="2" fill="none"></circle>
<circle cx="6787.83" cy="760.443" r="4" stroke="rgb(255,68,0)" stroke-width="2" fill="none"></circle>
<circle cx="1013.99" cy="904.306" r="4" stroke="rgb(216,255,0)" stroke-width="2" fill="none"></circle>
<circle cx="4659.2" cy="798.829" r="4" stroke="rgb(216,255,0)" stroke-width="2" fill="none"></circle>
<circle cx="1122.12" cy="811.674" r="4" stroke="rgb(0,140,255)" stroke-width="2" fill="none"></circle>
<circle cx="4995.14" cy="828.176" r="4" stroke="rgb(0,140,255)" stroke-width="2" fill="none"></circle>
<circle cx="1698.92" cy="851.263" r="4" stroke="rgb(255,46,0)" stroke-width="2" fill="none"></circle>
<circle cx="5105.81" cy="834.134" r="4" stroke="rgb(255,46,0)" stroke-width="2" fill="none"></circle>
<circle cx="894.529" cy="1103.46" r="4" stroke="rgb(0,255,220)" stroke-width="2" fill="none"></circle>
<circle cx="5178.95" cy="913.617" r="4" stroke="rgb(0,255,220)" stroke-width="2" fill="none"></circle>
<circle cx="1122.12" cy="811.674" r="4" stroke="rgb(255,221,0)" stroke-width="2" fill="none"></circle>
<circle cx="4978.34" cy="1024" r="4" stroke="rgb(255,221,0)" stroke-width="2" fill="none"></circle>
<circle cx="1337.47" cy="697.808" r="4" stroke="rgb(255,0,0)" stroke-width="2" fill="none"></circle>
<circle cx="4988.28" cy="1029.33" r="4" stroke="rgb(255,0,0)" stroke-width="2" fill="none"></circle>
<circle cx="1601.51" cy="1418.09" r="4" stroke="rgb(25,255,0)" stroke-width="2" fill="none"></circle>
<circle cx="5522.01" cy="2754.86" r="4" stroke="rgb(25,255,0)" stroke-width="2" fill="none"></circle>
<circle cx="1330.53" cy="1400.02" r="4" stroke="rgb(0,255,225)" stroke-width="2" fill="none"></circle>
<circle cx="6624.77" cy="1513.98" r="4" stroke="rgb(0,255,225)" stroke-width="2" fill="none"></circle>
<circle cx="1396.43" cy="1344.97" r="4" stroke="rgb(114,255,0)" stroke-width="2" fill="none"></circle>
<circle cx="5505.48" cy="385.755" r="4" stroke="rgb(114,255,0)" stroke-width="2" fill="none"></circle>
<circle cx="2477.04" cy="629.511" r="4" stroke="rgb(255,0,97)" stroke-width="2" fill="none"></circle>
<circle cx="4913.23" cy="2736.04" r="4" stroke="rgb(255,0,97)" stroke-width="2" fill="none"></circle>
<circle cx="1534.3" cy="892.677" r="4" stroke="rgb(255,0,25)" stroke-width="2" fill="none"></circle>
<circle cx="6697.83" cy="1839.33" r="4" stroke="rgb(255,0,25)" stroke-width="2" fill="none"></circle>
<circle cx="1367.69" cy="1422.12" r="4" stroke="rgb(0,255,93)" stroke-width="2" fill="none"></circle>
<circle cx="4402.44" cy="2623.8" r="4" stroke="rgb(0,255,93)" stroke-width="2" fill="none"></circle>
<circle cx="1491.7" cy="1113.28" r="4" stroke="rgb(255,0,246)" stroke-width="2" fill="none"></circle>
<circle cx="5436.06" cy="2360.31" r="4" stroke="rgb(255,0,246)" stroke-width="2" fill="none"></circle>
</svg>