<?xml version="1.0" standalone="yes"?>
<!-- SVG graphic -->
<svg xmlns='http://www.w3.org/2000/svg' xmlns:xlink='http://www.w3.org/1999/xlink'
width="8064px" height="3024px" preserveAspectRatio="xMinYMin meet" viewBox="0 0 8064 3024" version="1.1">
<image x="0" y="0" width="4032px" height="3024px" opacity="1" xlink:href="/home/jeong/Code/2D-to-3D-Modeling-using-AI/Make3D/Image/20200227_180720.jpg"/>
<image x="4032" y="0" width="4032px" height="3024px" opacity="1" xlink:href="/home/jeong/Code/2D-to-3D-Modeling-using-AI/Make3D/Image/20200227_180813.jpg"/>
<polyline points="2604.22,707.638,6257.91,524.017" stroke="rgb(140,0,255)" stroke-width="2" fill="none"></polyline>
<polyline points="2796.1,1407.31,6474.79,2398.94" stroke="rgb(16,255,0)" stroke-width="2" fill="none"></polyline>
<polyline points="1988.08,1220.89,5449.57,1455.8" stroke="rgb(255,0,204)" stroke-width="2" fill="none"></polyline>
<polyline points="1991.42,811.948,6108.36,742.076" stroke="rgb(0,63,255)" stroke-width="2" fill="none"></polyline>
<polyline points="2083.56,1169.91,5024.57,2441.68" stroke="rgb(0,255,161)" stroke-width="2" fill="none"></polyline>
<polyline points="1991.42,811.948,5718.86,713.505" stroke="rgb(0,255,72)" stroke-width="2" fill="none"></polyline>
<polyline points="1825.33,860.157,6376.88,814.639" stroke="rgb(0,255,8)" stroke-width="2" fill="none"></polyline>
<polyline points="1825.33,860.157,6378.14,824.069" stroke="rgb(16,255,0)" stroke-width="2" fill="none"></polyline>
<polyline points="1991.42,811.948,6107.87,828.135" stroke="rgb(123,255,0)" stroke-width="2" fill="none"></polyline>
<polyline points="2456.13,1480.09,6095.37,1867.74" stroke="rgb(63,255,0)" stroke-width="2" fill="none"></polyline>
<polyline points="1825.33,860.157,6313.13,833.279" stroke="rgb(255,0,59)" stroke-width="2" fill="none"></polyline>
<polyline points="2456.13,1480.09,6095.37,1867.74" stroke="rgb(191,0,255)" stroke-width="2" fill="none"></polyline>
<polyline points="1825.33,860.157,6169.87,767.906" stroke="rgb(255,255,0)" stroke-width="2" fill="none"></polyline>
<polyline points="1875.51,1282.44,5860.47,1272.13" stroke="rgb(255,0,169)" stroke-width="2" fill="none"></polyline>
<polyline points="1991.42,811.948,6182.4,778.741" stroke="rgb(110,255,0)" stroke-width="2" fill="none"></polyline>
<polyline points="1102.91,1403.51,4970.44,2534.98" stroke="rgb(0,114,255)" stroke-width="2" fill="none"></polyline>
<polyline points="1648.92,892.183,5877.42,921.947" stroke="rgb(4,255,0)" stroke-width="2" fill="none"></polyline>
<polyline points="1804.73,1269.07,5949.25,1510.3" stroke="rgb(0,25,255)" stroke-width="2" fill="none"></polyline>
<polyline points="1825.33,860.157,6241.03,797.83" stroke="rgb(0,127,255)" stroke-width="2" fill="none"></polyline>
<polyline points="1825.33,860.157,6161.72,938.489" stroke="rgb(93,0,255)" stroke-width="2" fill="none"></polyline>
<polyline points="1804.73,1269.07,6022.13,942.737" stroke="rgb(0,233,255)" stroke-width="2" fill="none"></polyline>
<polyline points="1991.42,811.948,6109.83,812.579" stroke="rgb(233,255,0)" stroke-width="2" fill="none"></polyline>
<polyline points="1991.42,811.948,6382.06,945.959" stroke="rgb(0,17,255)" stroke-width="2" fill="none"></polyline>
<polyline points="2030.54,1271.95,5748.6,1717.54" stroke="rgb(255,0,85)" stroke-width="2" fill="none"></polyline>
<polyline points="1825.33,860.157,6242.21,818.641" stroke="rgb(33,255,0)" stroke-width="2" fill="none"></polyline>
<polyline points="1991.42,811.948,5633.72,674.445" stroke="rgb(0,255,199)" stroke-width="2" fill="none"></polyline>
<polyline points="1825.33,860.157,6168.12,858.6" stroke="rgb(255,0,161)" stroke-width="2" fill="none"></polyline>
<polyline points="1991.42,811.948,6178.98,869.122" stroke="rgb(238,0,255)" stroke-width="2" fill="none"></polyline>
<polyline points="1825.33,860.157,6377.15,886.055" stroke="rgb(50,0,255)" stroke-width="2" fill="none"></polyline>
<polyline points="1810.95,1307.76,5733.83,2037.19" stroke="rgb(29,0,255)" stroke-width="2" fill="none"></polyline>
<polyline points="1964.58,1429.64,5757.96,945.458" stroke="rgb(4,255,0)" stroke-width="2" fill="none"></polyline>
<polyline points="1764.9,1435.39,5757.96,945.458" stroke="rgb(0,255,191)" stroke-width="2" fill="none"></polyline>
<polyline points="965.886,1230.14,7026.97,2049.93" stroke="rgb(0,21,255)" stroke-width="2" fill="none"></polyline>
<polyline points="1589.18,1271.33,5751.31,949.537" stroke="rgb(255,0,242)" stroke-width="2" fill="none"></polyline>
<polyline points="1648.92,892.183,5872.75,1097.94" stroke="rgb(93,0,255)" stroke-width="2" fill="none"></polyline>
<polyline points="1954.02,848.784,7024.25,1098.93" stroke="rgb(255,140,0)" stroke-width="2" fill="none"></polyline>
<polyline points="1748,1489.58,6968.87,1752.39" stroke="rgb(255,0,204)" stroke-width="2" fill="none"></polyline>
<polyline points="1825.66,1276.68,5744.91,1330.73" stroke="rgb(67,0,255)" stroke-width="2" fill="none"></polyline>
<polyline points="1991.42,811.948,5820.71,1115.98" stroke="rgb(0,255,127)" stroke-width="2" fill="none"></polyline>
<polyline points="1491.15,615.027,5866.08,2084.12" stroke="rgb(255,187,0)" stroke-width="2" fill="none"></polyline>
<polyline points="1991.42,811.948,5592.17,1118.53" stroke="rgb(255,8,0)" stroke-width="2" fill="none"></polyline>
<polyline points="1791.07,1257.27,5971.77,1346.43" stroke="rgb(0,255,67)" stroke-width="2" fill="none"></polyline>
<polyline points="2564.38,1512.69,6651.07,2110.88" stroke="rgb(255,0,131)" stroke-width="2" fill="none"></polyline>
<polyline points="1579.83,974.428,5317.14,1355.46" stroke="rgb(246,255,0)" stroke-width="2" fill="none"></polyline>
<polyline points="1823.39,1251.83,6666.58,1164.86" stroke="rgb(97,255,0)" stroke-width="2" fill="none"></polyline>
<polyline points="2671.17,1217.11,5608.16,2135.78" stroke="rgb(237,255,0)" stroke-width="2" fill="none"></polyline>
<polyline points="1991.42,811.948,5586.02,1169.03" stroke="rgb(0,255,118)" stroke-width="2" fill="none"></polyline>
<polyline points="2160.35,1450.9,6144.44,1778.43" stroke="rgb(135,255,0)" stroke-width="2" fill="none"></polyline>
<polyline points="1491.15,615.027,5972.33,2156.57" stroke="rgb(0,255,212)" stroke-width="2" fill="none"></polyline>
<polyline points="2604.97,1509.72,5356.86,1606.95" stroke="rgb(0,42,255)" stroke-width="2" fill="none"></polyline>
<polyline points="1748,1489.58,6979.23,1565.23" stroke="rgb(255,0,42)" stroke-width="2" fill="none"></polyline>
<polyline points="1964.58,1429.64,6457.05,1180.54" stroke="rgb(0,55,255)" stroke-width="2" fill="none"></polyline>
<polyline points="1929.8,1352.89,5653.92,2170.83" stroke="rgb(233,0,255)" stroke-width="2" fill="none"></polyline>
<polyline points="1810.95,1307.76,5798.15,2198.4" stroke="rgb(0,59,255)" stroke-width="2" fill="none"></polyline>
<polyline points="1376.27,721.168,6175.35,1618.47" stroke="rgb(0,140,255)" stroke-width="2" fill="none"></polyline>
<polyline points="1518.22,1293.68,6400.32,1629.47" stroke="rgb(165,0,255)" stroke-width="2" fill="none"></polyline>
<polyline points="3092.21,1085.24,5571.15,952.822" stroke="rgb(106,0,255)" stroke-width="2" fill="none"></polyline>
<polyline points="2025.36,1267.53,5598.17,1636.83" stroke="rgb(255,178,0)" stroke-width="2" fill="none"></polyline>
<polyline points="1853.77,1245.95,5801.45,2261.17" stroke="rgb(140,255,0)" stroke-width="2" fill="none"></polyline>
<polyline points="1874.9,1334.62,5798.28,2267.59" stroke="rgb(255,127,0)" stroke-width="2" fill="none"></polyline>
<polyline points="1658.13,896.571,5669.89,1399.57" stroke="rgb(0,255,174)" stroke-width="2" fill="none"></polyline>
<polyline points="2014.85,1182.66,5769.83,989.156" stroke="rgb(178,255,0)" stroke-width="2" fill="none"></polyline>
<polyline points="1825.33,860.157,6200.95,1257.22" stroke="rgb(225,255,0)" stroke-width="2" fill="none"></polyline>
<polyline points="1875.51,1282.44,5638.62,1653.24" stroke="rgb(255,153,0)" stroke-width="2" fill="none"></polyline>
<polyline points="1991.42,811.948,7026.96,1084.65" stroke="rgb(255,89,0)" stroke-width="2" fill="none"></polyline>
<polyline points="1875.51,1282.44,6017.57,1089.97" stroke="rgb(255,0,127)" stroke-width="2" fill="none"></polyline>
<polyline points="2025.36,1267.53,5909.55,1028.32" stroke="rgb(212,255,0)" stroke-width="2" fill="none"></polyline>
<polyline points="1452.1,983.006,6553.06,2353.78" stroke="rgb(255,0,110)" stroke-width="2" fill="none"></polyline>
<polyline points="1720.14,739.926,5964.14,1677.07" stroke="rgb(0,59,255)" stroke-width="2" fill="none"></polyline>
<polyline points="1791.07,1257.27,6002.19,1117.33" stroke="rgb(119,255,0)" stroke-width="2" fill="none"></polyline>
<polyline points="1885.04,656.295,6524.44,1305.54" stroke="rgb(42,0,255)" stroke-width="2" fill="none"></polyline>
<polyline points="1869.84,650.559,6982.91,1124.93" stroke="rgb(84,255,0)" stroke-width="2" fill="none"></polyline>
<polyline points="2608.13,1365.47,6499.27,1132.3" stroke="rgb(84,255,0)" stroke-width="2" fill="none"></polyline>
<polyline points="1960.66,1358.37,6436.14,1863.29" stroke="rgb(0,89,255)" stroke-width="2" fill="none"></polyline>
<polyline points="1810.95,1307.76,6495.3,1720.23" stroke="rgb(255,148,0)" stroke-width="2" fill="none"></polyline>
<polyline points="1452.1,983.006,6498.89,2470.26" stroke="rgb(216,255,0)" stroke-width="2" fill="none"></polyline>
<polyline points="1810.95,1307.76,6562.53,1436.25" stroke="rgb(0,255,148)" stroke-width="2" fill="none"></polyline>
<polyline points="1720.14,739.926,5698.67,1412.38" stroke="rgb(0,242,255)" stroke-width="2" fill="none"></polyline>
<polyline points="1991.42,811.948,5750.08,1743.29" stroke="rgb(0,255,157)" stroke-width="2" fill="none"></polyline>
<polyline points="759.784,1041.97,6953.77,1744.29" stroke="rgb(0,178,255)" stroke-width="2" fill="none"></polyline>
<polyline points="1991.42,811.948,5758.62,1745.22" stroke="rgb(255,225,0)" stroke-width="2" fill="none"></polyline>
<polyline points="1658.13,896.571,5982.81,1750.36" stroke="rgb(0,255,114)" stroke-width="2" fill="none"></polyline>
<polyline points="1823.39,1251.83,6877.32,1462.57" stroke="rgb(233,255,0)" stroke-width="2" fill="none"></polyline>
<polyline points="1222.27,1318.41,7012.46,1448.13" stroke="rgb(0,85,255)" stroke-width="2" fill="none"></polyline>
<polyline points="2015.79,1281.07,6210.46,1909.05" stroke="rgb(25,0,255)" stroke-width="2" fill="none"></polyline>
<polyline points="2025.36,1267.53,6146.73,1474.52" stroke="rgb(0,255,106)" stroke-width="2" fill="none"></polyline>
<polyline points="1518.22,1293.68,5810.52,1771.81" stroke="rgb(0,255,80)" stroke-width="2" fill="none"></polyline>
<polyline points="1709.4,1204.87,5282.36,1806.59" stroke="rgb(255,97,0)" stroke-width="2" fill="none"></polyline>
<polyline points="1826.94,1329.17,5658.32,2016.55" stroke="rgb(255,250,0)" stroke-width="2" fill="none"></polyline>
<polyline points="1361.29,880.928,5318.76,1511.11" stroke="rgb(89,255,0)" stroke-width="2" fill="none"></polyline>
<polyline points="2030.54,1271.95,5860.94,1511.22" stroke="rgb(191,0,255)" stroke-width="2" fill="none"></polyline>
<polyline points="2025.36,1267.53,5876.84,1206.76" stroke="rgb(0,85,255)" stroke-width="2" fill="none"></polyline>
<polyline points="1962.82,540.71,5988.9,2079.99" stroke="rgb(0,255,242)" stroke-width="2" fill="none"></polyline>
<polyline points="1663.76,678.718,5893.34,1515.22" stroke="rgb(255,0,29)" stroke-width="2" fill="none"></polyline>
<polyline points="1748,1489.58,6629.99,1731.81" stroke="rgb(0,255,33)" stroke-width="2" fill="none"></polyline>
<polyline points="964.064,1028.39,5363.28,1234.72" stroke="rgb(208,255,0)" stroke-width="2" fill="none"></polyline>
<polyline points="1392.17,743.627,6642.87,2183.02" stroke="rgb(255,0,157)" stroke-width="2" fill="none"></polyline>
<polyline points="1491.15,615.027,5947.82,2304.54" stroke="rgb(212,255,0)" stroke-width="2" fill="none"></polyline>
<polyline points="1660.58,1057.91,6831.13,2348.67" stroke="rgb(255,191,0)" stroke-width="2" fill="none"></polyline>
<polyline points="2002.51,672.013,7028.03,1581.29" stroke="rgb(250,255,0)" stroke-width="2" fill="none"></polyline>
<polyline points="2002.51,672.013,7028.03,1581.29" stroke="rgb(0,255,178)" stroke-width="2" fill="none"></polyline>
<polyline points="1764.9,1435.39,5712.73,1345.56" stroke="rgb(233,0,255)" stroke-width="2" fill="none"></polyline>
<polyline points="2025.36,1267.53,6127.09,1600.64" stroke="rgb(0,255,178)" stroke-width="2" fill="none"></polyline>
<polyline points="2627.77,1289.94,6617.64,1606.41" stroke="rgb(97,0,255)" stroke-width="2" fill="none"></polyline>
<polyline points="1960.66,1358.37,6467.06,1642.3" stroke="rgb(255,110,0)" stroke-width="2" fill="none"></polyline>
<polyline points="1680.34,1291.03,5665.16,2030.22" stroke="rgb(216,255,0)" stroke-width="2" fill="none"></polyline>
<polyline points="1658.13,896.571,5713.87,1648.14" stroke="rgb(255,0,119)" stroke-width="2" fill="none"></polyline>
<polyline points="2025.36,1267.53,6531.35,2071.76" stroke="rgb(255,229,0)" stroke-width="2" fill="none"></polyline>
<polyline points="1813.62,982.457,5961.82,2092.72" stroke="rgb(50,0,255)" stroke-width="2" fill="none"></polyline>
<polyline points="1683.18,742.523,5625.65,2118.97" stroke="rgb(255,8,0)" stroke-width="2" fill="none"></polyline>
<polyline points="1683.18,742.523,5616.88,2136.03" stroke="rgb(50,0,255)" stroke-width="2" fill="none"></polyline>
<polyline points="1813.62,982.457,5955.02,2138.27" stroke="rgb(0,255,242)" stroke-width="2" fill="none"></polyline>
<polyline points="1782.84,1428.8,6578.93,1681.31" stroke="rgb(0,255,123)" stroke-width="2" fill="none"></polyline>
<polyline points="1839.66,520.177,4883.63,2188.41" stroke="rgb(0,216,255)" stroke-width="2" fill="none"></polyline>
<polyline points="2633.68,1505.37,4848.53,2209.1" stroke="rgb(255,157,0)" stroke-width="2" fill="none"></polyline>
<polyline points="2086.93,1389.07,5916.48,2332.17" stroke="rgb(114,0,255)" stroke-width="2" fill="none"></polyline>
<polyline points="2796.1,1407.31,6855.69,2407.15" stroke="rgb(255,0,110)" stroke-width="2" fill="none"></polyline>
<polyline points="1167.66,1292.73,5058.41,2409.17" stroke="rgb(255,204,0)" stroke-width="2" fill="none"></polyline>
<polyline points="2265.41,497.135,6253.69,2492.27" stroke="rgb(216,0,255)" stroke-width="2" fill="none"></polyline>
<polyline points="2838.26,862.777,4921.67,737.172" stroke="rgb(255,140,0)" stroke-width="2" fill="none"></polyline>
<polyline points="927.965,1227.85,4907.69,2161.03" stroke="rgb(0,255,114)" stroke-width="2" fill="none"></polyline>
<polyline points="904.587,1017.79,4873.91,765.185" stroke="rgb(0,101,255)" stroke-width="2" fill="none"></polyline>
<polyline points="772.126,1165.87,5481.82,942.384" stroke="rgb(0,255,21)" stroke-width="2" fill="none"></polyline>
<polyline points="1452.1,983.006,5195.35,1328.08" stroke="rgb(0,182,255)" stroke-width="2" fill="none"></polyline>
<polyline points="1452.1,983.006,5195.35,1328.08" stroke="rgb(0,131,255)" stroke-width="2" fill="none"></polyline>
<polyline points="1748,1489.58,5707.82,1087.93" stroke="rgb(59,0,255)" stroke-width="2" fill="none"></polyline>
<polyline points="1612.3,1308.47,5995.59,1359.29" stroke="rgb(118,0,255)" stroke-width="2" fill="none"></polyline>
<polyline points="1862.91,815.186,5249.7,1551.68" stroke="rgb(255,187,0)" stroke-width="2" fill="none"></polyline>
<polyline points="2542.36,1436.01,6483.17,1266.24" stroke="rgb(0,187,255)" stroke-width="2" fill="none"></polyline>
<polyline points="1599.15,1278.83,5719.33,1199.6" stroke="rgb(0,233,255)" stroke-width="2" fill="none"></polyline>
<polyline points="1169.41,1017.6,5278.41,1026.79" stroke="rgb(255,0,93)" stroke-width="2" fill="none"></polyline>
<polyline points="2683.55,1481.69,7050.56,1756.45" stroke="rgb(0,38,255)" stroke-width="2" fill="none"></polyline>
<polyline points="2113.17,1521.5,6797.01,1857.74" stroke="rgb(0,255,0)" stroke-width="2" fill="none"></polyline>
<polyline points="2510.19,1454.9,6484.44,1324.77" stroke="rgb(255,51,0)" stroke-width="2" fill="none"></polyline>
<polyline points="772.126,1165.87,6977.68,2595.93" stroke="rgb(0,255,59)" stroke-width="2" fill="none"></polyline>
<polyline points="2159.31,497.661,6374.86,1284.15" stroke="rgb(255,76,0)" stroke-width="2" fill="none"></polyline>
<polyline points="2652.09,1216.26,6663.68,1934.04" stroke="rgb(165,255,0)" stroke-width="2" fill="none"></polyline>
<polyline points="2791.82,1181.09,6848.98,2568.84" stroke="rgb(255,0,93)" stroke-width="2" fill="none"></polyline>
<polyline points="772.126,1165.87,5015.39,1076.7" stroke="rgb(203,255,0)" stroke-width="2" fill="none"></polyline>
<polyline points="2072.87,1415.53,5589.95,1489.96" stroke="rgb(255,0,114)" stroke-width="2" fill="none"></polyline>
<circle cx="2604.22" cy="707.638" r="4" stroke="rgb(140,0,255)" stroke-width="2" fill="none"></circle>
<circle cx="6257.91" cy="524.017" r="4" stroke="rgb(140,0,255)" stroke-width="2" fill="none"></circle>
<circle cx="2796.1" cy="1407.31" r="4" stroke="rgb(16,255,0)" stroke-width="2" fill="none"></circle>
<circle cx="6474.79" cy="2398.94" r="4" stroke="rgb(16,255,0)" stroke-width="2" fill="none"></circle>
<circle cx="1988.08" cy="1220.89" r="4" stroke="rgb(255,0,204)" stroke-width="2" fill="none"></circle>
<circle cx="5449.57" cy="1455.8" r="4" stroke="rgb(255,0,204)" stroke-width="2" fill="none"></circle>
<circle cx="1991.42" cy="811.948" r="4" stroke="rgb(0,63,255)" stroke-width="2" fill="none"></circle>
<circle cx="6108.36" cy="742.076" r="4" stroke="rgb(0,63,255)" stroke-width="2" fill="none"></circle>
<circle cx="2083.56" cy="1169.91" r="4" stroke="rgb(0,255,161)" stroke-width="2" fill="none"></circle>
<circle cx="5024.57" cy="2441.68" r="4" stroke="rgb(0,255,161)" stroke-width="2" fill="none"></circle>
<circle cx="1991.42" cy="811.948" r="4" stroke="rgb(0,255,72)" stroke-width="2" fill="none"></circle>
<circle cx="5718.86" cy="713.505" r="4" stroke="rgb(0,255,72)" stroke-width="2" fill="none"></circle>
<circle cx="1825.33" cy="860.157" r="4" stroke="rgb(0,255,8)" stroke-width="2" fill="none"></circle>
<circle cx="6376.88" cy="814.639" r="4" stroke="rgb(0,255,8)" stroke-width="2" fill="none"></circle>
<circle cx="1825.33" cy="860.157" r="4" stroke="rgb(16,255,0)" stroke-width="2" fill="none"></circle>
<circle cx="6378.14" cy="824.069" r="4" stroke="rgb(16,255,0)" stroke-width="2" fill="none"></circle>
<circle cx="1991.42" cy="811.948" r="4" stroke="rgb(123,255,0)" stroke-width="2" fill="none"></circle>
<circle cx="6107.87" cy="828.135" r="4" stroke="rgb(123,255,0)" stroke-width="2" fill="none"></circle>
<circle cx="2456.13" cy="1480.09" r="4" stroke="rgb(63,255,0)" stroke-width="2" fill="none"></circle>
<circle cx="6095.37" cy="1867.74" r="4" stroke="rgb(63,255,0)" stroke-width="2" fill="none"></circle>
<circle cx="1825.33" cy="860.157" r="4" stroke="rgb(255,0,59)" stroke-width="2" fill="none"></circle>
<circle cx="6313.13" cy="833.279" r="4" stroke="rgb(255,0,59)" stroke-width="2" fill="none"></circle>
<circle cx="2456.13" cy="1480.09" r="4" stroke="rgb(191,0,255)" stroke-width="2" fill="none"></circle>
<circle cx="6095.37" cy="1867.74" r="4" stroke="rgb(191,0,255)" stroke-width="2" fill="none"></circle>
<circle cx="1825.33" cy="860.157" r="4" stroke="rgb(255,255,0)" stroke-width="2" fill="none"></circle>
<circle cx="6169.87" cy="767.906" r="4" stroke="rgb(255,255,0)" stroke-width="2" fill="none"></circle>
<circle cx="1875.51" cy="1282.44" r="4" stroke="rgb(255,0,169)" stroke-width="2" fill="none"></circle>
<circle cx="5860.47" cy="1272.13" r="4" stroke="rgb(255,0,169)" stroke-width="2" fill="none"></circle>
<circle cx="1991.42" cy="811.948" r="4" stroke="rgb(110,255,0)" stroke-width="2" fill="none"></circle>
<circle cx="6182.4" cy="778.741" r="4" stroke="rgb(110,255,0)" stroke-width="2" fill="none"></circle>
<circle cx="1102.91" cy="1403.51" r="4" stroke="rgb(0,114,255)" stroke-width="2" fill="none"></circle>
<circle cx="4970.44" cy="2534.98" r="4" stroke="rgb(0,114,255)" stroke-width="2" fill="none"></circle>
<circle cx="1648.92" cy="892.183" r="4" stroke="rgb(4,255,0)" stroke-width="2" fill="none"></circle>
<circle cx="5877.42" cy="921.947" r="4" stroke="rgb(4,255,0)" stroke-width="2" fill="none"></circle>
<circle cx="1804.73" cy="1269.07" r="4" stroke="rgb(0,25,255)" stroke-width="2" fill="none"></circle>
<circle cx="5949.25" cy="1510.3" r="4" stroke="rgb(0,25,255)" stroke-width="2" fill="none"></circle>
<circle cx="1825.33" cy="860.157" r="4" stroke="rgb(0,127,255)" stroke-width="2" fill="none"></circle>
<circle cx="6241.03" cy="797.83" r="4" stroke="rgb(0,127,255)" stroke-width="2" fill="none"></circle>
<circle cx="1825.33" cy="860.157" r="4" stroke="rgb(93,0,255)" stroke-width="2" fill="none"></circle>
<circle cx="6161.72" cy="938.489" r="4" stroke="rgb(93,0,255)" stroke-width="2" fill="none"></circle>
<circle cx="1804.73" cy="1269.07" r="4" stroke="rgb(0,233,255)" stroke-width="2" fill="none"></circle>
<circle cx="6022.13" cy="942.737" r="4" stroke="rgb(0,233,255)" stroke-width="2" fill="none"></circle>
<circle cx="1991.42" cy="811.948" r="4" stroke="rgb(233,255,0)" stroke-width="2" fill="none"></circle>
<circle cx="6109.83" cy="812.579" r="4" stroke="rgb(233,255,0)" stroke-width="2" fill="none"></circle>
<circle cx="1991.42" cy="811.948" r="4" stroke="rgb(0,17,255)" stroke-width="2" fill="none"></circle>
<circle cx="6382.06" cy="945.959" r="4" stroke="rgb(0,17,255)" stroke-width="2" fill="none"></circle>
<circle cx="2030.54" cy="1271.95" r="4" stroke="rgb(255,0,85)" stroke-width="2" fill="none"></circle>
<circle cx="5748.6" cy="1717.54" r="4" stroke="rgb(255,0,85)" stroke-width="2" fill="none"></circle>
<circle cx="1825.33" cy="860.157" r="4" stroke="rgb(33,255,0)" stroke-width="2" fill="none"></circle>
<circle cx="6242.21" cy="818.641" r="4" stroke="rgb(33,255,0)" stroke-width="2" fill="none"></circle>
<circle cx="1991.42" cy="811.948" r="4" stroke="rgb(0,255,199)" stroke-width="2" fill="none"></circle>
<circle cx="5633.72" cy="674.445" r="4" stroke="rgb(0,255,199)" stroke-width="2" fill="none"></circle>
<circle cx="1825.33" cy="860.157" r="4" stroke="rgb(255,0,161)" stroke-width="2" fill="none"></circle>
<circle cx="6168.12" cy="858.6" r="4" stroke="rgb(255,0,161)" stroke-width="2" fill="none"></circle>
<circle cx="1991.42" cy="811.948" r="4" stroke="rgb(238,0,255)" stroke-width="2" fill="none"></circle>
<circle cx="6178.98" cy="869.122" r="4" stroke="rgb(238,0,255)" stroke-width="2" fill="none"></circle>
<circle cx="1825.33" cy="860.157" r="4" stroke="rgb(50,0,255)" stroke-width="2" fill="none"></circle>
<circle cx="6377.15" cy="886.055" r="4" stroke="rgb(50,0,255)" stroke-width="2" fill="none"></circle>
<circle cx="1810.95" cy="1307.76" r="4" stroke="rgb(29,0,255)" stroke-width="2" fill="none"></circle>
<circle cx="5733.83" cy="2037.19" r="4" stroke="rgb(29,0,255)" stroke-width="2" fill="none"></circle>
<circle cx="1964.58" cy="1429.64" r="4" stroke="rgb(4,255,0)" stroke-width="2" fill="none"></circle>
<circle cx="5757.96" cy="945.458" r="4" stroke="rgb(4,255,0)" stroke-width="2" fill="none"></circle>
<circle cx="1764.9" cy="1435.39" r="4" stroke="rgb(0,255,191)" stroke-width="2" fill="none"></circle>
<circle cx="5757.96" cy="945.458" r="4" stroke="rgb(0,255,191)" stroke-width="2" fill="none"></circle>
<circle cx="965.886" cy="1230.14" r="4" stroke="rgb(0,21,255)" stroke-width="2" fill="none"></circle>
<circle cx="7026.97" cy="2049.93" r="4" stroke="rgb(0,21,255)" stroke-width="2" fill="none"></circle>
<circle cx="1589.18" cy="1271.33" r="4" stroke="rgb(255,0,242)" stroke-width="2" fill="none"></circle>
<circle cx="5751.31" cy="949.537" r="4" stroke="rgb(255,0,242)" stroke-width="2" fill="none"></circle>
<circle cx="1648.92" cy="892.183" r="4" stroke="rgb(93,0,255)" stroke-width="2" fill="none"></circle>
<circle cx="5872.75" cy="1097.94" r="4" stroke="rgb(93,0,255)" stroke-width="2" fill="none"></circle>
<circle cx="1954.02" cy="848.784" r="4" stroke="rgb(255,140,0)" stroke-width="2" fill="none"></circle>
<circle cx="7024.25" cy="1098.93" r="4" stroke="rgb(255,140,0)" stroke-width="2" fill="none"></circle>
<circle cx="1748" cy="1489.58" r="4" stroke="rgb(255,0,204)" stroke-width="2" fill="none"></circle>
<circle cx="6968.87" cy="1752.39" r="4" stroke="rgb(255,0,204)" stroke-width="2" fill="none"></circle>
<circle cx="1825.66" cy="1276.68" r="4" stroke="rgb(67,0,255)" stroke-width="2" fill="none"></circle>
<circle cx="5744.91" cy="1330.73" r="4" stroke="rgb(67,0,255)" stroke-width="2" fill="none"></circle>
<circle cx="1991.42" cy="811.948" r="4" stroke="rgb(0,255,127)" stroke-width="2" fill="none"></circle>
<circle cx="5820.71" cy="1115.98" r="4" stroke="rgb(0,255,127)" stroke-width="2" fill="none"></circle>
<circle cx="1491.15" cy="615.027" r="4" stroke="rgb(255,187,0)" stroke-width="2" fill="none"></circle>
<circle cx="5866.08" cy="2084.12" r="4" stroke="rgb(255,187,0)" stroke-width="2" fill="none"></circle>
<circle cx="1991.42" cy="811.948" r="4" stroke="rgb(255,8,0)" stroke-width="2" fill="none"></circle>
<circle cx="5592.17" cy="1118.53" r="4" stroke="rgb(255,8,0)" stroke-width="2" fill="none"></circle>
<circle cx="1791.07" cy="1257.27" r="4" stroke="rgb(0,255,67)" stroke-width="2" fill="none"></circle>
<circle cx="5971.77" cy="1346.43" r="4" stroke="rgb(0,255,67)" stroke-width="2" fill="none"></circle>
<circle cx="2564.38" cy="1512.69" r="4" stroke="rgb(255,0,131)" stroke-width="2" fill="none"></circle>
<circle cx="6651.07" cy="2110.88" r="4" stroke="rgb(255,0,131)" stroke-width="2" fill="none"></circle>
<circle cx="1579.83" cy="974.428" r="4" stroke="rgb(246,255,0)" stroke-width="2" fill="none"></circle>
<circle cx="5317.14" cy="1355.46" r="4" stroke="rgb(246,255,0)" stroke-width="2" fill="none"></circle>
<circle cx="1823.39" cy="1251.83" r="4" stroke="rgb(97,255,0)" stroke-width="2" fill="none"></circle>
<circle cx="6666.58" cy="1164.86" r="4" stroke="rgb(97,255,0)" stroke-width="2" fill="none"></circle>
<circle cx="2671.17" cy="1217.11" r="4" stroke="rgb(237,255,0)" stroke-width="2" fill="none"></circle>
<circle cx="5608.16" cy="2135.78" r="4" stroke="rgb(237,255,0)" stroke-width="2" fill="none"></circle>
<circle cx="1991.42" cy="811.948" r="4" stroke="rgb(0,255,118)" stroke-width="2" fill="none"></circle>
<circle cx="5586.02" cy="1169.03" r="4" stroke="rgb(0,255,118)" stroke-width="2" fill="none"></circle>
<circle cx="2160.35" cy="1450.9" r="4" stroke="rgb(135,255,0)" stroke-width="2" fill="none"></circle>
<circle cx="6144.44" cy="1778.43" r="4" stroke="rgb(135,255,0)" stroke-width="2" fill="none"></circle>
<circle cx="1491.15" cy="615.027" r="4" stroke="rgb(0,255,212)" stroke-width="2" fill="none"></circle>
<circle cx="5972.33" cy="2156.57" r="4" stroke="rgb(0,255,212)" stroke-width="2" fill="none"></circle>
<circle cx="2604.97" cy="1509.72" r="4" stroke="rgb(0,42,255)" stroke-width="2" fill="none"></circle>
<circle cx="5356.86" cy="1606.95" r="4" stroke="rgb(0,42,255)" stroke-width="2" fill="none"></circle>
<circle cx="1748" cy="1489.58" r="4" stroke="rgb(255,0,42)" stroke-width="2" fill="none"></circle>
<circle cx="6979.23" cy="1565.23" r="4" stroke="rgb(255,0,42)" stroke-width="2" fill="none"></circle>
<circle cx="1964.58" cy="1429.64" r="4" stroke="rgb(0,55,255)" stroke-width="2" fill="none"></circle>
<circle cx="6457.05" cy="1180.54" r="4" stroke="rgb(0,55,255)" stroke-width="2" fill="none"></circle>
<circle cx="1929.8" cy="1352.89" r="4" stroke="rgb(233,0,255)" stroke-width="2" fill="none"></circle>
<circle cx="5653.92" cy="2170.83" r="4" stroke="rgb(233,0,255)" stroke-width="2" fill="none"></circle>
<circle cx="1810.95" cy="1307.76" r="4" stroke="rgb(0,59,255)" stroke-width="2" fill="none"></circle>
<circle cx="5798.15" cy="2198.4" r="4" stroke="rgb(0,59,255)" stroke-width="2" fill="none"></circle>
<circle cx="1376.27" cy="721.168" r="4" stroke="rgb(0,140,255)" stroke-width="2" fill="none"></circle>
<circle cx="6175.35" cy="1618.47" r="4" stroke="rgb(0,140,255)" stroke-width="2" fill="none"></circle>
<circle cx="1518.22" cy="1293.68" r="4" stroke="rgb(165,0,255)" stroke-width="2" fill="none"></circle>
<circle cx="6400.32" cy="1629.47" r="4" stroke="rgb(165,0,255)" stroke-width="2" fill="none"></circle>
<circle cx="3092.21" cy="1085.24" r="4" stroke="rgb(106,0,255)" stroke-width="2" fill="none"></circle>
<circle cx="5571.15" cy="952.822" r="4" stroke="rgb(106,0,255)" stroke-width="2" fill="none"></circle>
<circle cx="2025.36" cy="1267.53" r="4" stroke="rgb(255,178,0)" stroke-width="2" fill="none"></circle>
<circle cx="5598.17" cy="1636.83" r="4" stroke="rgb(255,178,0)" stroke-width="2" fill="none"></circle>
<circle cx="1853.77" cy="1245.95" r="4" stroke="rgb(140,255,0)" stroke-width="2" fill="none"></circle>
<circle cx="5801.45" cy="2261.17" r="4" stroke="rgb(140,255,0)" stroke-width="2" fill="none"></circle>
<circle cx="1874.9" cy="1334.62" r="4" stroke="rgb(255,127,0)" stroke-width="2" fill="none"></circle>
<circle cx="5798.28" cy="2267.59" r="4" stroke="rgb(255,127,0)" stroke-width="2" fill="none"></circle>
<circle cx="1658.13" cy="896.571" r="4" stroke="rgb(0,255,174)" stroke-width="2" fill="none"></circle>
<circle cx="5669.89" cy="1399.57" r="4" stroke="rgb(0,255,174)" stroke-width="2" fill="none"></circle>
<circle cx="2014.85" cy="1182.66" r="4" stroke="rgb(178,255,0)" stroke-width="2" fill="none"></circle>
<circle cx="5769.83" cy="989.156" r="4" stroke="rgb(178,255,0)" stroke-width="2" fill="none"></circle>
<circle cx="1825.33" cy="860.157" r="4" stroke="rgb(225,255,0)" stroke-width="2" fill="none"></circle>
<circle cx="6200.95" cy="1257.22" r="4" stroke="rgb(225,255,0)" stroke-width="2" fill="none"></circle>
<circle cx="1875.51" cy="1282.44" r="4" stroke="rgb(255,153,0)" stroke-width="2" fill="none"></circle>
<circle cx="5638.62" cy="1653.24" r="4" stroke="rgb(255,153,0)" stroke-width="2" fill="none"></circle>
<circle cx="1991.42" cy="811.948" r="4" stroke="rgb(255,89,0)" stroke-width="2" fill="none"></circle>
<circle cx="7026.96" cy="1084.65" r="4" stroke="rgb(255,89,0)" stroke-width="2" fill="none"></circle>
<circle cx="1875.51" cy="1282.44" r="4" stroke="rgb(255,0,127)" stroke-width="2" fill="none"></circle>
<circle cx="6017.57" cy="1089.97" r="4" stroke="rgb(255,0,127)" stroke-width="2" fill="none"></circle>
<circle cx="2025.36" cy="1267.53" r="4" stroke="rgb(212,255,0)" stroke-width="2" fill="none"></circle>
<circle cx="5909.55" cy="1028.32" r="4" stroke="rgb(212,255,0)" stroke-width="2" fill="none"></circle>
<circle cx="1452.1" cy="983.006" r="4" stroke="rgb(255,0,110)" stroke-width="2" fill="none"></circle>
<circle cx="6553.06" cy="2353.78" r="4" stroke="rgb(255,0,110)" stroke-width="2" fill="none"></circle>
<circle cx="1720.14" cy="739.926" r="4" stroke="rgb(0,59,255)" stroke-width="2" fill="none"></circle>
<circle cx="5964.14" cy="1677.07" r="4" stroke="rgb(0,59,255)" stroke-width="2" fill="none"></circle>
<circle cx="1791.07" cy="1257.27" r="4" stroke="rgb(119,255,0)" stroke-width="2" fill="none"></circle>
<circle cx="6002.19" cy="1117.33" r="4" stroke="rgb(119,255,0)" stroke-width="2" fill="none"></circle>
<circle cx="1885.04" cy="656.295" r="4" stroke="rgb(42,0,255)" stroke-width="2" fill="none"></circle>
<circle cx="6524.44" cy="1305.54" r="4" stroke="rgb(42,0,255)" stroke-width="2" fill="none"></circle>
<circle cx="1869.84" cy="650.559" r="4" stroke="rgb(84,255,0)" stroke-width="2" fill="none"></circle>
<circle cx="6982.91" cy="1124.93" r="4" stroke="rgb(84,255,0)" stroke-width="2" fill="none"></circle>
<circle cx="2608.13" cy="1365.47" r="4" stroke="rgb(84,255,0)" stroke-width="2" fill="none"></circle>
<circle cx="6499.27" cy="1132.3" r="4" stroke="rgb(84,255,0)" stroke-width="2" fill="none"></circle>
<circle cx="1960.66" cy="1358.37" r="4" stroke="rgb(0,89,255)" stroke-width="2" fill="none"></circle>
<circle cx="6436.14" cy="1863.29" r="4" stroke="rgb(0,89,255)" stroke-width="2" fill="none"></circle>
<circle cx="1810.95" cy="1307.76" r="4" stroke="rgb(255,148,0)" stroke-width="2" fill="none"></circle>
<circle cx="6495.3" cy="1720.23" r="4" stroke="rgb(255,148,0)" stroke-width="2" fill="none"></circle>
<circle cx="1452.1" cy="983.006" r="4" stroke="rgb(216,255,0)" stroke-width="2" fill="none"></circle>
<circle cx="6498.89" cy="2470.26" r="4" stroke="rgb(216,255,0)" stroke-width="2" fill="none"></circle>
<circle cx="1810.95" cy="1307.76" r="4" stroke="rgb(0,255,148)" stroke-width="2" fill="none"></circle>
<circle cx="6562.53" cy="1436.25" r="4" stroke="rgb(0,255,148)" stroke-width="2" fill="none"></circle>
<circle cx="1720.14" cy="739.926" r="4" stroke="rgb(0,242,255)" stroke-width="2" fill="none"></circle>
<circle cx="5698.67" cy="1412.38" r="4" stroke="rgb(0,242,255)" stroke-width="2" fill="none"></circle>
<circle cx="1991.42" cy="811.948" r="4" stroke="rgb(0,255,157)" stroke-width="2" fill="none"></circle>
<circle cx="5750.08" cy="1743.29" r="4" stroke="rgb(0,255,157)" stroke-width="2" fill="none"></circle>
<circle cx="759.784" cy="1041.97" r="4" stroke="rgb(0,178,255)" stroke-width="2" fill="none"></circle>
<circle cx="6953.77" cy="1744.29" r="4" stroke="rgb(0,178,255)" stroke-width="2" fill="none"></circle>
<circle cx="1991.42" cy="811.948" r="4" stroke="rgb(255,225,0)" stroke-width="2" fill="none"></circle>
<circle cx="5758.62" cy="1745.22" r="4" stroke="rgb(255,225,0)" stroke-width="2" fill="none"></circle>
<circle cx="1658.13" cy="896.571" r="4" stroke="rgb(0,255,114)" stroke-width="2" fill="none"></circle>
<circle cx="5982.81" cy="1750.36" r="4" stroke="rgb(0,255,114)" stroke-width="2" fill="none"></circle>
<circle cx="1823.39" cy="1251.83" r="4" stroke="rgb(233,255,0)" stroke-width="2" fill="none"></circle>
<circle cx="6877.32" cy="1462.57" r="4" stroke="rgb(233,255,0)" stroke-width="2" fill="none"></circle>
<circle cx="1222.27" cy="1318.41" r="4" stroke="rgb(0,85,255)" stroke-width="2" fill="none"></circle>
<circle cx="7012.46" cy="1448.13" r="4" stroke="rgb(0,85,255)" stroke-width="2" fill="none"></circle>
<circle cx="2015.79" cy="1281.07" r="4" stroke="rgb(25,0,255)" stroke-width="2" fill="none"></circle>
<circle cx="6210.46" cy="1909.05" r="4" stroke="rgb(25,0,255)" stroke-width="2" fill="none"></circle>
<circle cx="2025.36" cy="1267.53" r="4" stroke="rgb(0,255,106)" stroke-width="2" fill="none"></circle>
<circle cx="6146.73" cy="1474.52" r="4" stroke="rgb(0,255,106)" stroke-width="2" fill="none"></circle>
<circle cx="1518.22" cy="1293.68" r="4" stroke="rgb(0,255,80)" stroke-width="2" fill="none"></circle>
<circle cx="5810.52" cy="1771.81" r="4" stroke="rgb(0,255,80)" stroke-width="2" fill="none"></circle>
<circle cx="1709.4" cy="1204.87" r="4" stroke="rgb(255,97,0)" stroke-width="2" fill="none"></circle>
<circle cx="5282.36" cy="1806.59" r="4" stroke="rgb(255,97,0)" stroke-width="2" fill="none"></circle>
<circle cx="1826.94" cy="1329.17" r="4" stroke="rgb(255,250,0)" stroke-width="2" fill="none"></circle>
<circle cx="5658.32" cy="2016.55" r="4" stroke="rgb(255,250,0)" stroke-width="2" fill="none"></circle>
<circle cx="1361.29" cy="880.928" r="4" stroke="rgb(89,255,0)" stroke-width="2" fill="none"></circle>
<circle cx="5318.76" cy="1511.11" r="4" stroke="rgb(89,255,0)" stroke-width="2" fill="none"></circle>
<circle cx="2030.54" cy="1271.95" r="4" stroke="rgb(191,0,255)" stroke-width="2" fill="none"></circle>
<circle cx="5860.94" cy="1511.22" r="4" stroke="rgb(191,0,255)" stroke-width="2" fill="none"></circle>
<circle cx="2025.36" cy="1267.53" r="4" stroke="rgb(0,85,255)" stroke-width="2" fill="none"></circle>
<circle cx="5876.84" cy="1206.76" r="4" stroke="rgb(0,85,255)" stroke-width="2" fill="none"></circle>
<circle cx="1962.82" cy="540.71" r="4" stroke="rgb(0,255,242)" stroke-width="2" fill="none"></circle>
<circle cx="5988.9" cy="2079.99" r="4" stroke="rgb(0,255,242)" stroke-width="2" fill="none"></circle>
<circle cx="1663.76" cy="678.718" r="4" stroke="rgb(255,0,29)" stroke-width="2" fill="none"></circle>
<circle cx="5893.34" cy="1515.22" r="4" stroke="rgb(255,0,29)" stroke-width="2" fill="none"></circle>
<circle cx="1748" cy="1489.58" r="4" stroke="rgb(0,255,33)" stroke-width="2" fill="none"></circle>
<circle cx="6629.99" cy="1731.81" r="4" stroke="rgb(0,255,33)" stroke-width="2" fill="none"></circle>
<circle cx="964.064" cy="1028.39" r="4" stroke="rgb(208,255,0)" stroke-width="2" fill="none"></circle>
<circle cx="5363.28" cy="1234.72" r="4" stroke="rgb(208,255,0)" stroke-width="2" fill="none"></circle>
<circle cx="1392.17" cy="743.627" r="4" stroke="rgb(255,0,157)" stroke-width="2" fill="none"></circle>
<circle cx="6642.87" cy="2183.02" r="4" stroke="rgb(255,0,157)" stroke-width="2" fill="none"></circle>
<circle cx="1491.15" cy="615.027" r="4" stroke="rgb(212,255,0)" stroke-width="2" fill="none"></circle>
<circle cx="5947.82" cy="2304.54" r="4" stroke="rgb(212,255,0)" stroke-width="2" fill="none"></circle>
<circle cx="1660.58" cy="1057.91" r="4" stroke="rgb(255,191,0)" stroke-width="2" fill="none"></circle>
<circle cx="6831.13" cy="2348.67" r="4" stroke="rgb(255,191,0)" stroke-width="2" fill="none"></circle>
<circle cx="2002.51" cy="672.013" r="4" stroke="rgb(250,255,0)" stroke-width="2" fill="none"></circle>
<circle cx="7028.03" cy="1581.29" r="4" stroke="rgb(250,255,0)" stroke-width="2" fill="none"></circle>
<circle cx="2002.51" cy="672.013" r="4" stroke="rgb(0,255,178)" stroke-width="2" fill="none"></circle>
<circle cx="7028.03" cy="1581.29" r="4" stroke="rgb(0,255,178)" stroke-width="2" fill="none"></circle>
<circle cx="1764.9" cy="1435.39" r="4" stroke="rgb(233,0,255)" stroke-width="2" fill="none"></circle>
<circle cx="5712.73" cy="1345.56" r="4" stroke="rgb(233,0,255)" stroke-width="2" fill="none"></circle>
<circle cx="2025.36" cy="1267.53" r="4" stroke="rgb(0,255,178)" stroke-width="2" fill="none"></circle>
<circle cx="6127.09" cy="1600.64" r="4" stroke="rgb(0,255,178)" stroke-width="2" fill="none"></circle>
<circle cx="2627.77" cy="1289.94" r="4" stroke="rgb(97,0,255)" stroke-width="2" fill="none"></circle>
<circle cx="6617.64" cy="1606.41" r="4" stroke="rgb(97,0,255)" stroke-width="2" fill="none"></circle>
<circle cx="1960.66" cy="1358.37" r="4" stroke="rgb(255,110,0)" stroke-width="2" fill="none"></circle>
<circle cx="6467.06" cy="1642.3" r="4" stroke="rgb(255,110,0)" stroke-width="2" fill="none"></circle>
<circle cx="1680.34" cy="1291.03" r="4" stroke="rgb(216,255,0)" stroke-width="2" fill="none"></circle>
<circle cx="5665.16" cy="2030.22" r="4" stroke="rgb(216,255,0)" stroke-width="2" fill="none"></circle>
<circle cx="1658.13" cy="896.571" r="4" stroke="rgb(255,0,119)" stroke-width="2" fill="none"></circle>
<circle cx="5713.87" cy="1648.14" r="4" stroke="rgb(255,0,119)" stroke-width="2" fill="none"></circle>
<circle cx="2025.36" cy="1267.53" r="4" stroke="rgb(255,229,0)" stroke-width="2" fill="none"></circle>
<circle cx="6531.35" cy="2071.76" r="4" stroke="rgb(255,229,0)" stroke-width="2" fill="none"></circle>
<circle cx="1813.62" cy="982.457" r="4" stroke="rgb(50,0,255)" stroke-width="2" fill="none"></circle>
<circle cx="5961.82" cy="2092.72" r="4" stroke="rgb(50,0,255)" stroke-width="2" fill="none"></circle>
<circle cx="1683.18" cy="742.523" r="4" stroke="rgb(255,8,0)" stroke-width="2" fill="none"></circle>
<circle cx="5625.65" cy="2118.97" r="4" stroke="rgb(255,8,0)" stroke-width="2" fill="none"></circle>
<circle cx="1683.18" cy="742.523" r="4" stroke="rgb(50,0,255)" stroke-width="2" fill="none"></circle>
<circle cx="5616.88" cy="2136.03" r="4" stroke="rgb(50,0,255)" stroke-width="2" fill="none"></circle>
<circle cx="1813.62" cy="982.457" r="4" stroke="rgb(0,255,242)" stroke-width="2" fill="none"></circle>
<circle cx="5955.02" cy="2138.27" r="4" stroke="rgb(0,255,242)" stroke-width="2" fill="none"></circle>
<circle cx="1782.84" cy="1428.8" r="4" stroke="rgb(0,255,123)" stroke-width="2" fill="none"></circle>
<circle cx="6578.93" cy="1681.31" r="4" stroke="rgb(0,255,123)" stroke-width="2" fill="none"></circle>
<circle cx="1839.66" cy="520.177" r="4" stroke="rgb(0,216,255)" stroke-width="2" fill="none"></circle>
<circle cx="4883.63" cy="2188.41" r="4" stroke="rgb(0,216,255)" stroke-width="2" fill="none"></circle>
<circle cx="2633.68" cy="1505.37" r="4" stroke="rgb(255,157,0)" stroke-width="2" fill="none"></circle>
<circle cx="4848.53" cy="2209.1" r="4" stroke="rgb(255,157,0)" stroke-width="2" fill="none"></circle>
<circle cx="2086.93" cy="1389.07" r="4" stroke="rgb(114,0,255)" stroke-width="2" fill="none"></circle>
<circle cx="5916.48" cy="2332.17" r="4" stroke="rgb(114,0,255)" stroke-width="2" fill="none"></circle>
<circle cx="2796.1" cy="1407.31" r="4" stroke="rgb(255,0,110)" stroke-width="2" fill="none"></circle>
<circle cx="6855.69" cy="2407.15" r="4" stroke="rgb(255,0,110)" stroke-width="2" fill="none"></circle>
<circle cx="1167.66" cy="1292.73" r="4" stroke="rgb(255,204,0)" stroke-width="2" fill="none"></circle>
<circle cx="5058.41" cy="2409.17" r="4" stroke="rgb(255,204,0)" stroke-width="2" fill="none"></circle>
<circle cx="2265.41" cy="497.135" r="4" stroke="rgb(216,0,255)" stroke-width="2" fill="none"></circle>
<circle cx="6253.69" cy="2492.27" r="4" stroke="rgb(216,0,255)" stroke-width="2" fill="none"></circle>
<circle cx="2838.26" cy="862.777" r="4" stroke="rgb(255,140,0)" stroke-width="2" fill="none"></circle>
<circle cx="4921.67" cy="737.172" r="4" stroke="rgb(255,140,0)" stroke-width="2" fill="none"></circle>
<circle cx="927.965" cy="1227.85" r="4" stroke="rgb(0,255,114)" stroke-width="2" fill="none"></circle>
<circle cx="4907.69" cy="2161.03" r="4" stroke="rgb(0,255,114)" stroke-width="2" fill="none"></circle>
<circle cx="904.587" cy="1017.79" r="4" stroke="rgb(0,101,255)" stroke-width="2" fill="none"></circle>
<circle cx="4873.91" cy="765.185" r="4" stroke="rgb(0,101,255)" stroke-width="2" fill="none"></circle>
<circle cx="772.126" cy="1165.87" r="4" stroke="rgb(0,255,21)" stroke-width="2" fill="none"></circle>
<circle cx="5481.82" cy="942.384" r="4" stroke="rgb(0,255,21)" stroke-width="2" fill="none"></circle>
<circle cx="1452.1" cy="983.006" r="4" stroke="rgb(0,182,255)" stroke-width="2" fill="none"></circle>
<circle cx="5195.35" cy="1328.08" r="4" stroke="rgb(0,182,255)" stroke-width="2" fill="none"></circle>
<circle cx="1452.1" cy="983.006" r="4" stroke="rgb(0,131,255)" stroke-width="2" fill="none"></circle>
<circle cx="5195.35" cy="1328.08" r="4" stroke="rgb(0,131,255)" stroke-width="2" fill="none"></circle>
<circle cx="1748" cy="1489.58" r="4" stroke="rgb(59,0,255)" stroke-width="2" fill="none"></circle>
<circle cx="5707.82" cy="1087.93" r="4" stroke="rgb(59,0,255)" stroke-width="2" fill="none"></circle>
<circle cx="1612.3" cy="1308.47" r="4" stroke="rgb(118,0,255)" stroke-width="2" fill="none"></circle>
<circle cx="5995.59" cy="1359.29" r="4" stroke="rgb(118,0,255)" stroke-width="2" fill="none"></circle>
<circle cx="1862.91" cy="815.186" r="4" stroke="rgb(255,187,0)" stroke-width="2" fill="none"></circle>
<circle cx="5249.7" cy="1551.68" r="4" stroke="rgb(255,187,0)" stroke-width="2" fill="none"></circle>
<circle cx="2542.36" cy="1436.01" r="4" stroke="rgb(0,187,255)" stroke-width="2" fill="none"></circle>
<circle cx="6483.17" cy="1266.24" r="4" stroke="rgb(0,187,255)" stroke-width="2" fill="none"></circle>
<circle cx="1599.15" cy="1278.83" r="4" stroke="rgb(0,233,255)" stroke-width="2" fill="none"></circle>
<circle cx="5719.33" cy="1199.6" r="4" stroke="rgb(0,233,255)" stroke-width="2" fill="none"></circle>
<circle cx="1169.41" cy="1017.6" r="4" stroke="rgb(255,0,93)" stroke-width="2" fill="none"></circle>
<circle cx="5278.41" cy="1026.79" r="4" stroke="rgb(255,0,93)" stroke-width="2" fill="none"></circle>
<circle cx="2683.55" cy="1481.69" r="4" stroke="rgb(0,38,255)" stroke-width="2" fill="none"></circle>
<circle cx="7050.56" cy="1756.45" r="4" stroke="rgb(0,38,255)" stroke-width="2" fill="none"></circle>
<circle cx="2113.17" cy="1521.5" r="4" stroke="rgb(0,255,0)" stroke-width="2" fill="none"></circle>
<circle cx="6797.01" cy="1857.74" r="4" stroke="rgb(0,255,0)" stroke-width="2" fill="none"></circle>
<circle cx="2510.19" cy="1454.9" r="4" stroke="rgb(255,51,0)" stroke-width="2" fill="none"></circle>
<circle cx="6484.44" cy="1324.77" r="4" stroke="rgb(255,51,0)" stroke-width="2" fill="none"></circle>
<circle cx="772.126" cy="1165.87" r="4" stroke="rgb(0,255,59)" stroke-width="2" fill="none"></circle>
<circle cx="6977.68" cy="2595.93" r="4" stroke="rgb(0,255,59)" stroke-width="2" fill="none"></circle>
<circle cx="2159.31" cy="497.661" r="4" stroke="rgb(255,76,0)" stroke-width="2" fill="none"></circle>
<circle cx="6374.86" cy="1284.15" r="4" stroke="rgb(255,76,0)" stroke-width="2" fill="none"></circle>
<circle cx="2652.09" cy="1216.26" r="4" stroke="rgb(165,255,0)" stroke-width="2" fill="none"></circle>
<circle cx="6663.68" cy="1934.04" r="4" stroke="rgb(165,255,0)" stroke-width="2" fill="none"></circle>
<circle cx="2791.82" cy="1181.09" r="4" stroke="rgb(255,0,93)" stroke-width="2" fill="none"></circle>
<circle cx="6848.98" cy="2568.84" r="4" stroke="rgb(255,0,93)" stroke-width="2" fill="none"></circle>
<circle cx="772.126" cy="1165.87" r="4" stroke="rgb(203,255,0)" stroke-width="2" fill="none"></circle>
<circle cx="5015.39" cy="1076.7" r="4" stroke="rgb(203,255,0)" stroke-width="2" fill="none"></circle>
<circle cx="2072.87" cy="1415.53" r="4" stroke="rgb(255,0,114)" stroke-width="2" fill="none"></circle>
<circle cx="5589.95" cy="1489.96" r="4" stroke="rgb(255,0,114)" stroke-width="2" fill="none"></circle>
</svg>