<?xml version="1.0" standalone="yes"?>
<!-- SVG graphic -->
<svg xmlns='http://www.w3.org/2000/svg' xmlns:xlink='http://www.w3.org/1999/xlink'
width="8064px" height="3024px" preserveAspectRatio="xMinYMin meet" viewBox="0 0 8064 3024" version="1.1">
<image x="0" y="0" width="4032px" height="3024px" opacity="1" xlink:href="/home/jeong/Code/2D-to-3D-Modeling-using-AI/Make3D/Image/20200227_180619.jpg"/>
<image x="4032" y="0" width="4032px" height="3024px" opacity="1" xlink:href="/home/jeong/Code/2D-to-3D-Modeling-using-AI/Make3D/Image/20200227_180648.jpg"/>
<polyline points="2121.03,929.64,6329.82,829.017" stroke="rgb(0,255,97)" stroke-width="2" fill="none"></polyline>
<polyline points="1969.9,1828.29,6710.1,1315.72" stroke="rgb(255,80,0)" stroke-width="2" fill="none"></polyline>
<polyline points="538.079,461.732,6024.42,886.167" stroke="rgb(255,0,106)" stroke-width="2" fill="none"></polyline>
<polyline points="1483.71,1598.02,5957.08,859.93" stroke="rgb(140,255,0)" stroke-width="2" fill="none"></polyline>
<polyline points="1403.28,1271.87,5652.24,960.312" stroke="rgb(101,255,0)" stroke-width="2" fill="none"></polyline>
<polyline points="1403.28,1271.87,5652.24,960.312" stroke="rgb(255,110,0)" stroke-width="2" fill="none"></polyline>
<polyline points="1302.38,1131.93,5640.17,973.26" stroke="rgb(255,170,0)" stroke-width="2" fill="none"></polyline>
<polyline points="1539.72,910.185,5767.04,978.425" stroke="rgb(255,0,250)" stroke-width="2" fill="none"></polyline>
<polyline points="1539.72,910.185,5767.04,978.425" stroke="rgb(0,216,255)" stroke-width="2" fill="none"></polyline>
<polyline points="2025.76,1970.14,6541.91,1253.82" stroke="rgb(0,255,114)" stroke-width="2" fill="none"></polyline>
<polyline points="1403.28,1271.87,5679.34,957.029" stroke="rgb(0,255,186)" stroke-width="2" fill="none"></polyline>
<polyline points="1982.25,1188.52,5974.9,1260.71" stroke="rgb(255,136,0)" stroke-width="2" fill="none"></polyline>
<polyline points="1473.36,661.409,5746.53,960.468" stroke="rgb(187,255,0)" stroke-width="2" fill="none"></polyline>
<polyline points="1058.14,541.695,5761.66,2122.21" stroke="rgb(255,140,0)" stroke-width="2" fill="none"></polyline>
<polyline points="2006.89,1870.1,6378.15,1026.96" stroke="rgb(255,97,0)" stroke-width="2" fill="none"></polyline>
<polyline points="1546.77,1364.12,5854.69,1051.8" stroke="rgb(0,178,255)" stroke-width="2" fill="none"></polyline>
<polyline points="1879.62,2426.05,6292.46,1608.47" stroke="rgb(102,0,255)" stroke-width="2" fill="none"></polyline>
<polyline points="1057.21,2029.37,5341.33,1150.92" stroke="rgb(255,0,242)" stroke-width="2" fill="none"></polyline>
<polyline points="2365.34,992.054,6769.85,1163.5" stroke="rgb(0,255,203)" stroke-width="2" fill="none"></polyline>
<polyline points="1384.4,1704.36,5635.97,1177.9" stroke="rgb(255,0,80)" stroke-width="2" fill="none"></polyline>
<polyline points="1403.28,1271.87,5679.43,957.002" stroke="rgb(0,182,255)" stroke-width="2" fill="none"></polyline>
<polyline points="1551.24,1430.44,5758.42,1083.75" stroke="rgb(255,238,0)" stroke-width="2" fill="none"></polyline>
<polyline points="2300.29,674.856,5871.1,1091.69" stroke="rgb(0,255,25)" stroke-width="2" fill="none"></polyline>
<polyline points="2004.88,1885.02,6620.07,1360.98" stroke="rgb(63,255,0)" stroke-width="2" fill="none"></polyline>
<polyline points="812.932,2398.31,7023.15,1653.98" stroke="rgb(42,255,0)" stroke-width="2" fill="none"></polyline>
<polyline points="1991.47,1868.69,6734.48,1366.56" stroke="rgb(255,0,42)" stroke-width="2" fill="none"></polyline>
<polyline points="1983.89,1963.76,6428.32,1136.82" stroke="rgb(0,212,255)" stroke-width="2" fill="none"></polyline>
<polyline points="1538.95,349.899,6124.21,978.191" stroke="rgb(161,255,0)" stroke-width="2" fill="none"></polyline>
<polyline points="1983.89,1963.76,6464.32,1168.33" stroke="rgb(0,97,255)" stroke-width="2" fill="none"></polyline>
<polyline points="2004.88,1885.02,6632.38,1380.53" stroke="rgb(255,0,237)" stroke-width="2" fill="none"></polyline>
<polyline points="1505.66,2397.14,6160.68,1259.9" stroke="rgb(255,174,0)" stroke-width="2" fill="none"></polyline>
<polyline points="1829.24,1663.32,5972.9,983.181" stroke="rgb(255,0,0)" stroke-width="2" fill="none"></polyline>
<polyline points="1388.02,771.464,7146.83,1261.32" stroke="rgb(255,0,157)" stroke-width="2" fill="none"></polyline>
<polyline points="1471.56,1066.07,5538.62,1000.61" stroke="rgb(255,68,0)" stroke-width="2" fill="none"></polyline>
<polyline points="1691.44,1501.5,5825.69,1002.14" stroke="rgb(255,0,169)" stroke-width="2" fill="none"></polyline>
<polyline points="2032.03,1965.38,6629.82,1214.28" stroke="rgb(255,250,0)" stroke-width="2" fill="none"></polyline>
<polyline points="1469.52,1080.09,5546.09,1008.55" stroke="rgb(144,0,255)" stroke-width="2" fill="none"></polyline>
<polyline points="2378.92,2232,6728.49,1425.87" stroke="rgb(0,33,255)" stroke-width="2" fill="none"></polyline>
<polyline points="1982.25,1188.52,5984.48,1256.72" stroke="rgb(0,33,255)" stroke-width="2" fill="none"></polyline>
<polyline points="1669.5,1629.14,5847.02,1054.78" stroke="rgb(67,255,0)" stroke-width="2" fill="none"></polyline>
<polyline points="1662.67,1646.32,5677.3,1063.69" stroke="rgb(255,80,0)" stroke-width="2" fill="none"></polyline>
<polyline points="2293.85,666.142,6356.1,1592.5" stroke="rgb(118,0,255)" stroke-width="2" fill="none"></polyline>
<polyline points="2025.08,755.697,6851.21,1956.56" stroke="rgb(255,34,0)" stroke-width="2" fill="none"></polyline>
<polyline points="2025.76,1970.14,6420.46,1135.16" stroke="rgb(106,255,0)" stroke-width="2" fill="none"></polyline>
<polyline points="2025.76,1970.14,6457.07,1166.66" stroke="rgb(255,0,250)" stroke-width="2" fill="none"></polyline>
<polyline points="1384.4,1704.36,5636.58,1176.13" stroke="rgb(255,136,0)" stroke-width="2" fill="none"></polyline>
<polyline points="2025.76,1970.14,6505.74,1180.89" stroke="rgb(0,255,191)" stroke-width="2" fill="none"></polyline>
<polyline points="1670.67,1457.57,5781.61,983.811" stroke="rgb(182,255,0)" stroke-width="2" fill="none"></polyline>
<polyline points="1473.36,661.409,5436.07,856.192" stroke="rgb(0,140,255)" stroke-width="2" fill="none"></polyline>
<polyline points="2489.96,1101.4,6570.76,856.123" stroke="rgb(0,144,255)" stroke-width="2" fill="none"></polyline>
<polyline points="1484.25,1063.59,5546.89,987.405" stroke="rgb(255,246,0)" stroke-width="2" fill="none"></polyline>
<polyline points="1483.71,1598.02,5957.35,859.562" stroke="rgb(157,0,255)" stroke-width="2" fill="none"></polyline>
<polyline points="1483.71,1598.02,5945.5,848.522" stroke="rgb(93,0,255)" stroke-width="2" fill="none"></polyline>
<polyline points="1390.94,733.753,5398.15,921.168" stroke="rgb(255,238,0)" stroke-width="2" fill="none"></polyline>
<polyline points="1390.94,733.753,5398.15,921.168" stroke="rgb(255,93,0)" stroke-width="2" fill="none"></polyline>
<polyline points="2680.45,1747.36,4826.72,1143.85" stroke="rgb(17,0,255)" stroke-width="2" fill="none"></polyline>
<polyline points="1391.31,685.103,5380.58,890.209" stroke="rgb(165,0,255)" stroke-width="2" fill="none"></polyline>
<polyline points="2429.49,2207.68,7339.04,1563.68" stroke="rgb(0,119,255)" stroke-width="2" fill="none"></polyline>
<polyline points="1314.98,1236.14,5524.15,1232.1" stroke="rgb(255,0,144)" stroke-width="2" fill="none"></polyline>
<polyline points="927.327,572.736,6652.71,1867.12" stroke="rgb(0,255,67)" stroke-width="2" fill="none"></polyline>
<polyline points="1668.42,2244.27,6040.48,1166.14" stroke="rgb(255,119,0)" stroke-width="2" fill="none"></polyline>
<polyline points="2512.47,1779.95,6774.49,893.646" stroke="rgb(255,34,0)" stroke-width="2" fill="none"></polyline>
<polyline points="1544.48,1118.75,5617.84,971.268" stroke="rgb(255,38,0)" stroke-width="2" fill="none"></polyline>
<polyline points="1858.61,1473.51,5914.32,867.914" stroke="rgb(255,0,38)" stroke-width="2" fill="none"></polyline>
<polyline points="1495.32,1025.16,5538.05,950.15" stroke="rgb(67,0,255)" stroke-width="2" fill="none"></polyline>
<circle cx="2121.03" cy="929.64" r="4" stroke="rgb(0,255,97)" stroke-width="2" fill="none"></circle>
<circle cx="6329.82" cy="829.017" r="4" stroke="rgb(0,255,97)" stroke-width="2" fill="none"></circle>
<circle cx="1969.9" cy="1828.29" r="4" stroke="rgb(255,80,0)" stroke-width="2" fill="none"></circle>
<circle cx="6710.1" cy="1315.72" r="4" stroke="rgb(255,80,0)" stroke-width="2" fill="none"></circle>
<circle cx="538.079" cy="461.732" r="4" stroke="rgb(255,0,106)" stroke-width="2" fill="none"></circle>
<circle cx="6024.42" cy="886.167" r="4" stroke="rgb(255,0,106)" stroke-width="2" fill="none"></circle>
<circle cx="1483.71" cy="1598.02" r="4" stroke="rgb(140,255,0)" stroke-width="2" fill="none"></circle>
<circle cx="5957.08" cy="859.93" r="4" stroke="rgb(140,255,0)" stroke-width="2" fill="none"></circle>
<circle cx="1403.28" cy="1271.87" r="4" stroke="rgb(101,255,0)" stroke-width="2" fill="none"></circle>
<circle cx="5652.24" cy="960.312" r="4" stroke="rgb(101,255,0)" stroke-width="2" fill="none"></circle>
<circle cx="1403.28" cy="1271.87" r="4" stroke="rgb(255,110,0)" stroke-width="2" fill="none"></circle>
<circle cx="5652.24" cy="960.312" r="4" stroke="rgb(255,110,0)" stroke-width="2" fill="none"></circle>
<circle cx="1302.38" cy="1131.93" r="4" stroke="rgb(255,170,0)" stroke-width="2" fill="none"></circle>
<circle cx="5640.17" cy="973.26" r="4" stroke="rgb(255,170,0)" stroke-width="2" fill="none"></circle>
<circle cx="1539.72" cy="910.185" r="4" stroke="rgb(255,0,250)" stroke-width="2" fill="none"></circle>
<circle cx="5767.04" cy="978.425" r="4" stroke="rgb(255,0,250)" stroke-width="2" fill="none"></circle>
<circle cx="1539.72" cy="910.185" r="4" stroke="rgb(0,216,255)" stroke-width="2" fill="none"></circle>
<circle cx="5767.04" cy="978.425" r="4" stroke="rgb(0,216,255)" stroke-width="2" fill="none"></circle>
<circle cx="2025.76" cy="1970.14" r="4" stroke="rgb(0,255,114)" stroke-width="2" fill="none"></circle>
<circle cx="6541.91" cy="1253.82" r="4" stroke="rgb(0,255,114)" stroke-width="2" fill="none"></circle>
<circle cx="1403.28" cy="1271.87" r="4" stroke="rgb(0,255,186)" stroke-width="2" fill="none"></circle>
<circle cx="5679.34" cy="957.029" r="4" stroke="rgb(0,255,186)" stroke-width="2" fill="none"></circle>
<circle cx="1982.25" cy="1188.52" r="4" stroke="rgb(255,136,0)" stroke-width="2" fill="none"></circle>
<circle cx="5974.9" cy="1260.71" r="4" stroke="rgb(255,136,0)" stroke-width="2" fill="none"></circle>
<circle cx="1473.36" cy="661.409" r="4" stroke="rgb(187,255,0)" stroke-width="2" fill="none"></circle>
<circle cx="5746.53" cy="960.468" r="4" stroke="rgb(187,255,0)" stroke-width="2" fill="none"></circle>
<circle cx="1058.14" cy="541.695" r="4" stroke="rgb(255,140,0)" stroke-width="2" fill="none"></circle>
<circle cx="5761.66" cy="2122.21" r="4" stroke="rgb(255,140,0)" stroke-width="2" fill="none"></circle>
<circle cx="2006.89" cy="1870.1" r="4" stroke="rgb(255,97,0)" stroke-width="2" fill="none"></circle>
<circle cx="6378.15" cy="1026.96" r="4" stroke="rgb(255,97,0)" stroke-width="2" fill="none"></circle>
<circle cx="1546.77" cy="1364.12" r="4" stroke="rgb(0,178,255)" stroke-width="2" fill="none"></circle>
<circle cx="5854.69" cy="1051.8" r="4" stroke="rgb(0,178,255)" stroke-width="2" fill="none"></circle>
<circle cx="1879.62" cy="2426.05" r="4" stroke="rgb(102,0,255)" stroke-width="2" fill="none"></circle>
<circle cx="6292.46" cy="1608.47" r="4" stroke="rgb(102,0,255)" stroke-width="2" fill="none"></circle>
<circle cx="1057.21" cy="2029.37" r="4" stroke="rgb(255,0,242)" stroke-width="2" fill="none"></circle>
<circle cx="5341.33" cy="1150.92" r="4" stroke="rgb(255,0,242)" stroke-width="2" fill="none"></circle>
<circle cx="2365.34" cy="992.054" r="4" stroke="rgb(0,255,203)" stroke-width="2" fill="none"></circle>
<circle cx="6769.85" cy="1163.5" r="4" stroke="rgb(0,255,203)" stroke-width="2" fill="none"></circle>
<circle cx="1384.4" cy="1704.36" r="4" stroke="rgb(255,0,80)" stroke-width="2" fill="none"></circle>
<circle cx="5635.97" cy="1177.9" r="4" stroke="rgb(255,0,80)" stroke-width="2" fill="none"></circle>
<circle cx="1403.28" cy="1271.87" r="4" stroke="rgb(0,182,255)" stroke-width="2" fill="none"></circle>
<circle cx="5679.43" cy="957.002" r="4" stroke="rgb(0,182,255)" stroke-width="2" fill="none"></circle>
<circle cx="1551.24" cy="1430.44" r="4" stroke="rgb(255,238,0)" stroke-width="2" fill="none"></circle>
<circle cx="5758.42" cy="1083.75" r="4" stroke="rgb(255,238,0)" stroke-width="2" fill="none"></circle>
<circle cx="2300.29" cy="674.856" r="4" stroke="rgb(0,255,25)" stroke-width="2" fill="none"></circle>
<circle cx="5871.1" cy="1091.69" r="4" stroke="rgb(0,255,25)" stroke-width="2" fill="none"></circle>
<circle cx="2004.88" cy="1885.02" r="4" stroke="rgb(63,255,0)" stroke-width="2" fill="none"></circle>
<circle cx="6620.07" cy="1360.98" r="4" stroke="rgb(63,255,0)" stroke-width="2" fill="none"></circle>
<circle cx="812.932" cy="2398.31" r="4" stroke="rgb(42,255,0)" stroke-width="2" fill="none"></circle>
<circle cx="7023.15" cy="1653.98" r="4" stroke="rgb(42,255,0)" stroke-width="2" fill="none"></circle>
<circle cx="1991.47" cy="1868.69" r="4" stroke="rgb(255,0,42)" stroke-width="2" fill="none"></circle>
<circle cx="6734.48" cy="1366.56" r="4" stroke="rgb(255,0,42)" stroke-width="2" fill="none"></circle>
<circle cx="1983.89" cy="1963.76" r="4" stroke="rgb(0,212,255)" stroke-width="2" fill="none"></circle>
<circle cx="6428.32" cy="1136.82" r="4" stroke="rgb(0,212,255)" stroke-width="2" fill="none"></circle>
<circle cx="1538.95" cy="349.899" r="4" stroke="rgb(161,255,0)" stroke-width="2" fill="none"></circle>
<circle cx="6124.21" cy="978.191" r="4" stroke="rgb(161,255,0)" stroke-width="2" fill="none"></circle>
<circle cx="1983.89" cy="1963.76" r="4" stroke="rgb(0,97,255)" stroke-width="2" fill="none"></circle>
<circle cx="6464.32" cy="1168.33" r="4" stroke="rgb(0,97,255)" stroke-width="2" fill="none"></circle>
<circle cx="2004.88" cy="1885.02" r="4" stroke="rgb(255,0,237)" stroke-width="2" fill="none"></circle>
<circle cx="6632.38" cy="1380.53" r="4" stroke="rgb(255,0,237)" stroke-width="2" fill="none"></circle>
<circle cx="1505.66" cy="2397.14" r="4" stroke="rgb(255,174,0)" stroke-width="2" fill="none"></circle>
<circle cx="6160.68" cy="1259.9" r="4" stroke="rgb(255,174,0)" stroke-width="2" fill="none"></circle>
<circle cx="1829.24" cy="1663.32" r="4" stroke="rgb(255,0,0)" stroke-width="2" fill="none"></circle>
<circle cx="5972.9" cy="983.181" r="4" stroke="rgb(255,0,0)" stroke-width="2" fill="none"></circle>
<circle cx="1388.02" cy="771.464" r="4" stroke="rgb(255,0,157)" stroke-width="2" fill="none"></circle>
<circle cx="7146.83" cy="1261.32" r="4" stroke="rgb(255,0,157)" stroke-width="2" fill="none"></circle>
<circle cx="1471.56" cy="1066.07" r="4" stroke="rgb(255,68,0)" stroke-width="2" fill="none"></circle>
<circle cx="5538.62" cy="1000.61" r="4" stroke="rgb(255,68,0)" stroke-width="2" fill="none"></circle>
<circle cx="1691.44" cy="1501.5" r="4" stroke="rgb(255,0,169)" stroke-width="2" fill="none"></circle>
<circle cx="5825.69" cy="1002.14" r="4" stroke="rgb(255,0,169)" stroke-width="2" fill="none"></circle>
<circle cx="2032.03" cy="1965.38" r="4" stroke="rgb(255,250,0)" stroke-width="2" fill="none"></circle>
<circle cx="6629.82" cy="1214.28" r="4" stroke="rgb(255,250,0)" stroke-width="2" fill="none"></circle>
<circle cx="1469.52" cy="1080.09" r="4" stroke="rgb(144,0,255)" stroke-width="2" fill="none"></circle>
<circle cx="5546.09" cy="1008.55" r="4" stroke="rgb(144,0,255)" stroke-width="2" fill="none"></circle>
<circle cx="2378.92" cy="2232" r="4" stroke="rgb(0,33,255)" stroke-width="2" fill="none"></circle>
<circle cx="6728.49" cy="1425.87" r="4" stroke="rgb(0,33,255)" stroke-width="2" fill="none"></circle>
<circle cx="1982.25" cy="1188.52" r="4" stroke="rgb(0,33,255)" stroke-width="2" fill="none"></circle>
<circle cx="5984.48" cy="1256.72" r="4" stroke="rgb(0,33,255)" stroke-width="2" fill="none"></circle>
<circle cx="1669.5" cy="1629.14" r="4" stroke="rgb(67,255,0)" stroke-width="2" fill="none"></circle>
<circle cx="5847.02" cy="1054.78" r="4" stroke="rgb(67,255,0)" stroke-width="2" fill="none"></circle>
<circle cx="1662.67" cy="1646.32" r="4" stroke="rgb(255,80,0)" stroke-width="2" fill="none"></circle>
<circle cx="5677.3" cy="1063.69" r="4" stroke="rgb(255,80,0)" stroke-width="2" fill="none"></circle>
<circle cx="2293.85" cy="666.142" r="4" stroke="rgb(118,0,255)" stroke-width="2" fill="none"></circle>
<circle cx="6356.1" cy="1592.5" r="4" stroke="rgb(118,0,255)" stroke-width="2" fill="none"></circle>
<circle cx="2025.08" cy="755.697" r="4" stroke="rgb(255,34,0)" stroke-width="2" fill="none"></circle>
<circle cx="6851.21" cy="1956.56" r="4" stroke="rgb(255,34,0)" stroke-width="2" fill="none"></circle>
<circle cx="2025.76" cy="1970.14" r="4" stroke="rgb(106,255,0)" stroke-width="2" fill="none"></circle>
<circle cx="6420.46" cy="1135.16" r="4" stroke="rgb(106,255,0)" stroke-width="2" fill="none"></circle>
<circle cx="2025.76" cy="1970.14" r="4" stroke="rgb(255,0,250)" stroke-width="2" fill="none"></circle>
<circle cx="6457.07" cy="1166.66" r="4" stroke="rgb(255,0,250)" stroke-width="2" fill="none"></circle>
<circle cx="1384.4" cy="1704.36" r="4" stroke="rgb(255,136,0)" stroke-width="2" fill="none"></circle>
<circle cx="5636.58" cy="1176.13" r="4" stroke="rgb(255,136,0)" stroke-width="2" fill="none"></circle>
<circle cx="2025.76" cy="1970.14" r="4" stroke="rgb(0,255,191)" stroke-width="2" fill="none"></circle>
<circle cx="6505.74" cy="1180.89" r="4" stroke="rgb(0,255,191)" stroke-width="2" fill="none"></circle>
<circle cx="1670.67" cy="1457.57" r="4" stroke="rgb(182,255,0)" stroke-width="2" fill="none"></circle>
<circle cx="5781.61" cy="983.811" r="4" stroke="rgb(182,255,0)" stroke-width="2" fill="none"></circle>
<circle cx="1473.36" cy="661.409" r="4" stroke="rgb(0,140,255)" stroke-width="2" fill="none"></circle>
<circle cx="5436.07" cy="856.192" r="4" stroke="rgb(0,140,255)" stroke-width="2" fill="none"></circle>
<circle cx="2489.96" cy="1101.4" r="4" stroke="rgb(0,144,255)" stroke-width="2" fill="none"></circle>
<circle cx="6570.76" cy="856.123" r="4" stroke="rgb(0,144,255)" stroke-width="2" fill="none"></circle>
<circle cx="1484.25" cy="1063.59" r="4" stroke="rgb(255,246,0)" stroke-width="2" fill="none"></circle>
<circle cx="5546.89" cy="987.405" r="4" stroke="rgb(255,246,0)" stroke-width="2" fill="none"></circle>
<circle cx="1483.71" cy="1598.02" r="4" stroke="rgb(157,0,255)" stroke-width="2" fill="none"></circle>
<circle cx="5957.35" cy="859.562" r="4" stroke="rgb(157,0,255)" stroke-width="2" fill="none"></circle>
<circle cx="1483.71" cy="1598.02" r="4" stroke="rgb(93,0,255)" stroke-width="2" fill="none"></circle>
<circle cx="5945.5" cy="848.522" r="4" stroke="rgb(93,0,255)" stroke-width="2" fill="none"></circle>
<circle cx="1390.94" cy="733.753" r="4" stroke="rgb(255,238,0)" stroke-width="2" fill="none"></circle>
<circle cx="5398.15" cy="921.168" r="4" stroke="rgb(255,238,0)" stroke-width="2" fill="none"></circle>
<circle cx="1390.94" cy="733.753" r="4" stroke="rgb(255,93,0)" stroke-width="2" fill="none"></circle>
<circle cx="5398.15" cy="921.168" r="4" stroke="rgb(255,93,0)" stroke-width="2" fill="none"></circle>
<circle cx="2680.45" cy="1747.36" r="4" stroke="rgb(17,0,255)" stroke-width="2" fill="none"></circle>
<circle cx="4826.72" cy="1143.85" r="4" stroke="rgb(17,0,255)" stroke-width="2" fill="none"></circle>
<circle cx="1391.31" cy="685.103" r="4" stroke="rgb(165,0,255)" stroke-width="2" fill="none"></circle>
<circle cx="5380.58" cy="890.209" r="4" stroke="rgb(165,0,255)" stroke-width="2" fill="none"></circle>
<circle cx="2429.49" cy="2207.68" r="4" stroke="rgb(0,119,255)" stroke-width="2" fill="none"></circle>
<circle cx="7339.04" cy="1563.68" r="4" stroke="rgb(0,119,255)" stroke-width="2" fill="none"></circle>
<circle cx="1314.98" cy="1236.14" r="4" stroke="rgb(255,0,144)" stroke-width="2" fill="none"></circle>
<circle cx="5524.15" cy="1232.1" r="4" stroke="rgb(255,0,144)" stroke-width="2" fill="none"></circle>
<circle cx="927.327" cy="572.736" r="4" stroke="rgb(0,255,67)" stroke-width="2" fill="none"></circle>
<circle cx="6652.71" cy="1867.12" r="4" stroke="rgb(0,255,67)" stroke-width="2" fill="none"></circle>
<circle cx="1668.42" cy="2244.27" r="4" stroke="rgb(255,119,0)" stroke-width="2" fill="none"></circle>
<circle cx="6040.48" cy="1166.14" r="4" stroke="rgb(255,119,0)" stroke-width="2" fill="none"></circle>
<circle cx="2512.47" cy="1779.95" r="4" stroke="rgb(255,34,0)" stroke-width="2" fill="none"></circle>
<circle cx="6774.49" cy="893.646" r="4" stroke="rgb(255,34,0)" stroke-width="2" fill="none"></circle>
<circle cx="1544.48" cy="1118.75" r="4" stroke="rgb(255,38,0)" stroke-width="2" fill="none"></circle>
<circle cx="5617.84" cy="971.268" r="4" stroke="rgb(255,38,0)" stroke-width="2" fill="none"></circle>
<circle cx="1858.61" cy="1473.51" r="4" stroke="rgb(255,0,38)" stroke-width="2" fill="none"></circle>
<circle cx="5914.32" cy="867.914" r="4" stroke="rgb(255,0,38)" stroke-width="2" fill="none"></circle>
<circle cx="1495.32" cy="1025.16" r="4" stroke="rgb(67,0,255)" stroke-width="2" fill="none"></circle>
<circle cx="5538.05" cy="950.15" r="4" stroke="rgb(67,0,255)" stroke-width="2" fill="none"></circle>
</svg>