<?xml version="1.0" standalone="yes"?>
<!-- SVG graphic -->
<svg xmlns='http://www.w3.org/2000/svg' xmlns:xlink='http://www.w3.org/1999/xlink'
width="8064px" height="3024px" preserveAspectRatio="xMinYMin meet" viewBox="0 0 8064 3024" version="1.1">
<image x="0" y="0" width="4032px" height="3024px" opacity="1" xlink:href="/home/jeong/Code/2D-to-3D-Modeling-using-AI/Make3D/Image/20200227_180619.jpg"/>
<image x="4032" y="0" width="4032px" height="3024px" opacity="1" xlink:href="/home/jeong/Code/2D-to-3D-Modeling-using-AI/Make3D/Image/20200227_180653.jpg"/>
<polyline points="825.871,702.141,5628.05,694.569" stroke="rgb(255,0,204)" stroke-width="2" fill="none"></polyline>
<polyline points="825.871,702.141,5638.25,694.723" stroke="rgb(42,255,0)" stroke-width="2" fill="none"></polyline>
<polyline points="1238.64,1623.26,5771.01,1125.17" stroke="rgb(255,25,0)" stroke-width="2" fill="none"></polyline>
<polyline points="1236.49,1293.28,5080.89,962.313" stroke="rgb(216,0,255)" stroke-width="2" fill="none"></polyline>
<polyline points="1184.89,1204.32,5367.34,837.808" stroke="rgb(255,0,51)" stroke-width="2" fill="none"></polyline>
<polyline points="1509.88,2067.99,5087.86,1143.32" stroke="rgb(0,255,118)" stroke-width="2" fill="none"></polyline>
<polyline points="2342.29,1373,6548.39,873.944" stroke="rgb(29,255,0)" stroke-width="2" fill="none"></polyline>
<polyline points="1620.22,2231.21,6621.97,1181.69" stroke="rgb(0,255,46)" stroke-width="2" fill="none"></polyline>
<polyline points="1015.41,729.128,6623.98,1468.92" stroke="rgb(255,0,106)" stroke-width="2" fill="none"></polyline>
<polyline points="791.15,2423.95,5137.04,1237.55" stroke="rgb(255,182,0)" stroke-width="2" fill="none"></polyline>
<polyline points="1520.41,1103.9,6645.17,1487.51" stroke="rgb(0,80,255)" stroke-width="2" fill="none"></polyline>
<polyline points="1638.79,424.539,5611.72,1888.03" stroke="rgb(0,42,255)" stroke-width="2" fill="none"></polyline>
<polyline points="1638.79,424.539,5621.28,1892.11" stroke="rgb(0,255,0)" stroke-width="2" fill="none"></polyline>
<polyline points="1085.57,2004.79,6754.41,1322" stroke="rgb(255,0,250)" stroke-width="2" fill="none"></polyline>
<polyline points="1638.79,424.539,5646.03,1902.11" stroke="rgb(97,255,0)" stroke-width="2" fill="none"></polyline>
<polyline points="1638.79,424.539,5682.65,1916.98" stroke="rgb(0,255,208)" stroke-width="2" fill="none"></polyline>
<polyline points="1565.18,1189.06,6372.48,1986.94" stroke="rgb(0,237,255)" stroke-width="2" fill="none"></polyline>
<polyline points="2572.77,1943.56,6321.85,1585.66" stroke="rgb(114,255,0)" stroke-width="2" fill="none"></polyline>
<polyline points="1940.13,1814.41,5760.03,2025.72" stroke="rgb(250,255,0)" stroke-width="2" fill="none"></polyline>
<polyline points="2130.42,1678.07,4949.88,2027.7" stroke="rgb(63,255,0)" stroke-width="2" fill="none"></polyline>
<polyline points="1615.85,1199.27,6651.17,1384.27" stroke="rgb(255,29,0)" stroke-width="2" fill="none"></polyline>
<polyline points="1728.55,2310.08,5080.84,1352.59" stroke="rgb(0,255,42)" stroke-width="2" fill="none"></polyline>
<polyline points="2458.97,915.758,6719.46,1644.86" stroke="rgb(16,255,0)" stroke-width="2" fill="none"></polyline>
<polyline points="1598.87,1286.87,6651.03,1416.48" stroke="rgb(0,255,250)" stroke-width="2" fill="none"></polyline>
<polyline points="1749.17,1513.24,5324.28,1418.08" stroke="rgb(169,255,0)" stroke-width="2" fill="none"></polyline>
<polyline points="1207.06,1264.91,5936.33,1589.48" stroke="rgb(0,255,195)" stroke-width="2" fill="none"></polyline>
<polyline points="1702.42,449.108,5998.66,1834.87" stroke="rgb(255,0,174)" stroke-width="2" fill="none"></polyline>
<polyline points="1902.96,1125.46,6182.3,1700.44" stroke="rgb(255,29,0)" stroke-width="2" fill="none"></polyline>
<polyline points="1465.48,654.281,6234.8,1952.34" stroke="rgb(0,21,255)" stroke-width="2" fill="none"></polyline>
<polyline points="2158.85,1586.3,6463.37,1764.08" stroke="rgb(255,29,0)" stroke-width="2" fill="none"></polyline>
<polyline points="1483.67,340.317,5253.3,1288.35" stroke="rgb(255,0,4)" stroke-width="2" fill="none"></polyline>
<polyline points="1483.67,340.317,5253.3,1288.35" stroke="rgb(255,250,0)" stroke-width="2" fill="none"></polyline>
<polyline points="780.049,816.939,6164.24,2014.29" stroke="rgb(255,0,46)" stroke-width="2" fill="none"></polyline>
<polyline points="2205.24,1440.4,6659.82,1660.98" stroke="rgb(0,8,255)" stroke-width="2" fill="none"></polyline>
<polyline points="1276.6,2146.05,6535.83,1619.67" stroke="rgb(255,0,38)" stroke-width="2" fill="none"></polyline>
<polyline points="2420.77,726.729,6411.01,1363.96" stroke="rgb(255,0,93)" stroke-width="2" fill="none"></polyline>
<polyline points="1689.79,2335.6,5919.99,1429.4" stroke="rgb(255,110,0)" stroke-width="2" fill="none"></polyline>
<circle cx="825.871" cy="702.141" r="4" stroke="rgb(255,0,204)" stroke-width="2" fill="none"></circle>
<circle cx="5628.05" cy="694.569" r="4" stroke="rgb(255,0,204)" stroke-width="2" fill="none"></circle>
<circle cx="825.871" cy="702.141" r="4" stroke="rgb(42,255,0)" stroke-width="2" fill="none"></circle>
<circle cx="5638.25" cy="694.723" r="4" stroke="rgb(42,255,0)" stroke-width="2" fill="none"></circle>
<circle cx="1238.64" cy="1623.26" r="4" stroke="rgb(255,25,0)" stroke-width="2" fill="none"></circle>
<circle cx="5771.01" cy="1125.17" r="4" stroke="rgb(255,25,0)" stroke-width="2" fill="none"></circle>
<circle cx="1236.49" cy="1293.28" r="4" stroke="rgb(216,0,255)" stroke-width="2" fill="none"></circle>
<circle cx="5080.89" cy="962.313" r="4" stroke="rgb(216,0,255)" stroke-width="2" fill="none"></circle>
<circle cx="1184.89" cy="1204.32" r="4" stroke="rgb(255,0,51)" stroke-width="2" fill="none"></circle>
<circle cx="5367.34" cy="837.808" r="4" stroke="rgb(255,0,51)" stroke-width="2" fill="none"></circle>
<circle cx="1509.88" cy="2067.99" r="4" stroke="rgb(0,255,118)" stroke-width="2" fill="none"></circle>
<circle cx="5087.86" cy="1143.32" r="4" stroke="rgb(0,255,118)" stroke-width="2" fill="none"></circle>
<circle cx="2342.29" cy="1373" r="4" stroke="rgb(29,255,0)" stroke-width="2" fill="none"></circle>
<circle cx="6548.39" cy="873.944" r="4" stroke="rgb(29,255,0)" stroke-width="2" fill="none"></circle>
<circle cx="1620.22" cy="2231.21" r="4" stroke="rgb(0,255,46)" stroke-width="2" fill="none"></circle>
<circle cx="6621.97" cy="1181.69" r="4" stroke="rgb(0,255,46)" stroke-width="2" fill="none"></circle>
<circle cx="1015.41" cy="729.128" r="4" stroke="rgb(255,0,106)" stroke-width="2" fill="none"></circle>
<circle cx="6623.98" cy="1468.92" r="4" stroke="rgb(255,0,106)" stroke-width="2" fill="none"></circle>
<circle cx="791.15" cy="2423.95" r="4" stroke="rgb(255,182,0)" stroke-width="2" fill="none"></circle>
<circle cx="5137.04" cy="1237.55" r="4" stroke="rgb(255,182,0)" stroke-width="2" fill="none"></circle>
<circle cx="1520.41" cy="1103.9" r="4" stroke="rgb(0,80,255)" stroke-width="2" fill="none"></circle>
<circle cx="6645.17" cy="1487.51" r="4" stroke="rgb(0,80,255)" stroke-width="2" fill="none"></circle>
<circle cx="1638.79" cy="424.539" r="4" stroke="rgb(0,42,255)" stroke-width="2" fill="none"></circle>
<circle cx="5611.72" cy="1888.03" r="4" stroke="rgb(0,42,255)" stroke-width="2" fill="none"></circle>
<circle cx="1638.79" cy="424.539" r="4" stroke="rgb(0,255,0)" stroke-width="2" fill="none"></circle>
<circle cx="5621.28" cy="1892.11" r="4" stroke="rgb(0,255,0)" stroke-width="2" fill="none"></circle>
<circle cx="1085.57" cy="2004.79" r="4" stroke="rgb(255,0,250)" stroke-width="2" fill="none"></circle>
<circle cx="6754.41" cy="1322" r="4" stroke="rgb(255,0,250)" stroke-width="2" fill="none"></circle>
<circle cx="1638.79" cy="424.539" r="4" stroke="rgb(97,255,0)" stroke-width="2" fill="none"></circle>
<circle cx="5646.03" cy="1902.11" r="4" stroke="rgb(97,255,0)" stroke-width="2" fill="none"></circle>
<circle cx="1638.79" cy="424.539" r="4" stroke="rgb(0,255,208)" stroke-width="2" fill="none"></circle>
<circle cx="5682.65" cy="1916.98" r="4" stroke="rgb(0,255,208)" stroke-width="2" fill="none"></circle>
<circle cx="1565.18" cy="1189.06" r="4" stroke="rgb(0,237,255)" stroke-width="2" fill="none"></circle>
<circle cx="6372.48" cy="1986.94" r="4" stroke="rgb(0,237,255)" stroke-width="2" fill="none"></circle>
<circle cx="2572.77" cy="1943.56" r="4" stroke="rgb(114,255,0)" stroke-width="2" fill="none"></circle>
<circle cx="6321.85" cy="1585.66" r="4" stroke="rgb(114,255,0)" stroke-width="2" fill="none"></circle>
<circle cx="1940.13" cy="1814.41" r="4" stroke="rgb(250,255,0)" stroke-width="2" fill="none"></circle>
<circle cx="5760.03" cy="2025.72" r="4" stroke="rgb(250,255,0)" stroke-width="2" fill="none"></circle>
<circle cx="2130.42" cy="1678.07" r="4" stroke="rgb(63,255,0)" stroke-width="2" fill="none"></circle>
<circle cx="4949.88" cy="2027.7" r="4" stroke="rgb(63,255,0)" stroke-width="2" fill="none"></circle>
<circle cx="1615.85" cy="1199.27" r="4" stroke="rgb(255,29,0)" stroke-width="2" fill="none"></circle>
<circle cx="6651.17" cy="1384.27" r="4" stroke="rgb(255,29,0)" stroke-width="2" fill="none"></circle>
<circle cx="1728.55" cy="2310.08" r="4" stroke="rgb(0,255,42)" stroke-width="2" fill="none"></circle>
<circle cx="5080.84" cy="1352.59" r="4" stroke="rgb(0,255,42)" stroke-width="2" fill="none"></circle>
<circle cx="2458.97" cy="915.758" r="4" stroke="rgb(16,255,0)" stroke-width="2" fill="none"></circle>
<circle cx="6719.46" cy="1644.86" r="4" stroke="rgb(16,255,0)" stroke-width="2" fill="none"></circle>
<circle cx="1598.87" cy="1286.87" r="4" stroke="rgb(0,255,250)" stroke-width="2" fill="none"></circle>
<circle cx="6651.03" cy="1416.48" r="4" stroke="rgb(0,255,250)" stroke-width="2" fill="none"></circle>
<circle cx="1749.17" cy="1513.24" r="4" stroke="rgb(169,255,0)" stroke-width="2" fill="none"></circle>
<circle cx="5324.28" cy="1418.08" r="4" stroke="rgb(169,255,0)" stroke-width="2" fill="none"></circle>
<circle cx="1207.06" cy="1264.91" r="4" stroke="rgb(0,255,195)" stroke-width="2" fill="none"></circle>
<circle cx="5936.33" cy="1589.48" r="4" stroke="rgb(0,255,195)" stroke-width="2" fill="none"></circle>
<circle cx="1702.42" cy="449.108" r="4" stroke="rgb(255,0,174)" stroke-width="2" fill="none"></circle>
<circle cx="5998.66" cy="1834.87" r="4" stroke="rgb(255,0,174)" stroke-width="2" fill="none"></circle>
<circle cx="1902.96" cy="1125.46" r="4" stroke="rgb(255,29,0)" stroke-width="2" fill="none"></circle>
<circle cx="6182.3" cy="1700.44" r="4" stroke="rgb(255,29,0)" stroke-width="2" fill="none"></circle>
<circle cx="1465.48" cy="654.281" r="4" stroke="rgb(0,21,255)" stroke-width="2" fill="none"></circle>
<circle cx="6234.8" cy="1952.34" r="4" stroke="rgb(0,21,255)" stroke-width="2" fill="none"></circle>
<circle cx="2158.85" cy="1586.3" r="4" stroke="rgb(255,29,0)" stroke-width="2" fill="none"></circle>
<circle cx="6463.37" cy="1764.08" r="4" stroke="rgb(255,29,0)" stroke-width="2" fill="none"></circle>
<circle cx="1483.67" cy="340.317" r="4" stroke="rgb(255,0,4)" stroke-width="2" fill="none"></circle>
<circle cx="5253.3" cy="1288.35" r="4" stroke="rgb(255,0,4)" stroke-width="2" fill="none"></circle>
<circle cx="1483.67" cy="340.317" r="4" stroke="rgb(255,250,0)" stroke-width="2" fill="none"></circle>
<circle cx="5253.3" cy="1288.35" r="4" stroke="rgb(255,250,0)" stroke-width="2" fill="none"></circle>
<circle cx="780.049" cy="816.939" r="4" stroke="rgb(255,0,46)" stroke-width="2" fill="none"></circle>
<circle cx="6164.24" cy="2014.29" r="4" stroke="rgb(255,0,46)" stroke-width="2" fill="none"></circle>
<circle cx="2205.24" cy="1440.4" r="4" stroke="rgb(0,8,255)" stroke-width="2" fill="none"></circle>
<circle cx="6659.82" cy="1660.98" r="4" stroke="rgb(0,8,255)" stroke-width="2" fill="none"></circle>
<circle cx="1276.6" cy="2146.05" r="4" stroke="rgb(255,0,38)" stroke-width="2" fill="none"></circle>
<circle cx="6535.83" cy="1619.67" r="4" stroke="rgb(255,0,38)" stroke-width="2" fill="none"></circle>
<circle cx="2420.77" cy="726.729" r="4" stroke="rgb(255,0,93)" stroke-width="2" fill="none"></circle>
<circle cx="6411.01" cy="1363.96" r="4" stroke="rgb(255,0,93)" stroke-width="2" fill="none"></circle>
<circle cx="1689.79" cy="2335.6" r="4" stroke="rgb(255,110,0)" stroke-width="2" fill="none"></circle>
<circle cx="5919.99" cy="1429.4" r="4" stroke="rgb(255,110,0)" stroke-width="2" fill="none"></circle>
</svg>