<?xml version="1.0" standalone="yes"?>
<!-- SVG graphic -->
<svg xmlns='http://www.w3.org/2000/svg' xmlns:xlink='http://www.w3.org/1999/xlink'
width="8064px" height="3024px" preserveAspectRatio="xMinYMin meet" viewBox="0 0 8064 3024" version="1.1">
<image x="0" y="0" width="4032px" height="3024px" opacity="1" xlink:href="/home/jeong/Code/2D-to-3D-Modeling-using-AI/Make3D/Image/20200227_180619.jpg"/>
<image x="4032" y="0" width="4032px" height="3024px" opacity="1" xlink:href="/home/jeong/Code/2D-to-3D-Modeling-using-AI/Make3D/Image/20200227_180704.jpg"/>
<polyline points="1438.52,293.453,6656.71,1364.79" stroke="rgb(0,80,255)" stroke-width="2" fill="none"></polyline>
<polyline points="1538.95,349.899,5538.53,387.774" stroke="rgb(255,127,0)" stroke-width="2" fill="none"></polyline>
<polyline points="1496.06,381.307,5227.2,2045.73" stroke="rgb(80,255,0)" stroke-width="2" fill="none"></polyline>
<polyline points="1638.79,424.539,5331.15,885.089" stroke="rgb(144,0,255)" stroke-width="2" fill="none"></polyline>
<polyline points="1789.46,484.762,6772.75,1393.85" stroke="rgb(255,123,0)" stroke-width="2" fill="none"></polyline>
<polyline points="1815.91,523.852,5693.1,806.982" stroke="rgb(255,0,123)" stroke-width="2" fill="none"></polyline>
<polyline points="1455.11,534.955,6677.63,1005.6" stroke="rgb(255,0,169)" stroke-width="2" fill="none"></polyline>
<polyline points="1827.47,575.881,6607.56,1136.23" stroke="rgb(0,85,255)" stroke-width="2" fill="none"></polyline>
<polyline points="1474.97,578.986,6650.19,1904.78" stroke="rgb(255,89,0)" stroke-width="2" fill="none"></polyline>
<polyline points="1910.8,582.972,5864.25,1274.87" stroke="rgb(161,0,255)" stroke-width="2" fill="none"></polyline>
<polyline points="1846.22,585.328,5779.88,1571.27" stroke="rgb(0,144,255)" stroke-width="2" fill="none"></polyline>
<polyline points="1994.17,606.139,5592.27,394.117" stroke="rgb(255,148,0)" stroke-width="2" fill="none"></polyline>
<polyline points="1921.86,613.303,6759.62,1679.43" stroke="rgb(0,42,255)" stroke-width="2" fill="none"></polyline>
<polyline points="978.088,638.099,6470.36,1123.37" stroke="rgb(0,255,16)" stroke-width="2" fill="none"></polyline>
<polyline points="2185.96,642.973,6820.06,821.161" stroke="rgb(191,255,0)" stroke-width="2" fill="none"></polyline>
<polyline points="1506.27,646.177,5794.16,1805.53" stroke="rgb(255,136,0)" stroke-width="2" fill="none"></polyline>
<polyline points="1348.54,646.364,5361.26,1585.25" stroke="rgb(238,0,255)" stroke-width="2" fill="none"></polyline>
<polyline points="1348.69,646.397,5361.26,1585.25" stroke="rgb(255,21,0)" stroke-width="2" fill="none"></polyline>
<polyline points="897.344,660.975,5976.78,1813.64" stroke="rgb(0,127,255)" stroke-width="2" fill="none"></polyline>
<polyline points="1959.59,674.741,6618.1,1372.72" stroke="rgb(255,0,59)" stroke-width="2" fill="none"></polyline>
<polyline points="2446.23,703.565,5697.22,1459.94" stroke="rgb(0,153,255)" stroke-width="2" fill="none"></polyline>
<polyline points="1522.25,740.939,6375.74,1167.09" stroke="rgb(255,29,0)" stroke-width="2" fill="none"></polyline>
<polyline points="2471.76,760.266,5883.12,1772.58" stroke="rgb(255,0,55)" stroke-width="2" fill="none"></polyline>
<polyline points="2506.61,778.773,5673.59,1756.91" stroke="rgb(255,0,136)" stroke-width="2" fill="none"></polyline>
<polyline points="2054.95,795.237,6076.27,1933.33" stroke="rgb(157,255,0)" stroke-width="2" fill="none"></polyline>
<polyline points="790.604,797.043,5674.7,752.375" stroke="rgb(255,4,0)" stroke-width="2" fill="none"></polyline>
<polyline points="2534.5,806.076,6205.05,952.769" stroke="rgb(0,17,255)" stroke-width="2" fill="none"></polyline>
<polyline points="780.049,816.939,6640.18,859.075" stroke="rgb(0,255,25)" stroke-width="2" fill="none"></polyline>
<polyline points="2130.79,821.406,5711.57,800.598" stroke="rgb(255,46,0)" stroke-width="2" fill="none"></polyline>
<polyline points="2559.46,824.246,6075.26,1574.17" stroke="rgb(255,140,0)" stroke-width="2" fill="none"></polyline>
<polyline points="2254.47,850.561,5688.64,2062.76" stroke="rgb(0,63,255)" stroke-width="2" fill="none"></polyline>
<polyline points="1434.1,853.268,6702.28,1806.13" stroke="rgb(0,29,255)" stroke-width="2" fill="none"></polyline>
<polyline points="1454.44,872.856,5736.18,1923.95" stroke="rgb(242,255,0)" stroke-width="2" fill="none"></polyline>
<polyline points="2243.74,889.271,5815.15,1941.97" stroke="rgb(0,178,255)" stroke-width="2" fill="none"></polyline>
<polyline points="2025.02,904.449,6070.16,590.099" stroke="rgb(255,80,0)" stroke-width="2" fill="none"></polyline>
<polyline points="2453.6,917.615,5474.03,1101.06" stroke="rgb(255,0,153)" stroke-width="2" fill="none"></polyline>
<polyline points="986.319,922.852,6321.71,1070.58" stroke="rgb(255,178,0)" stroke-width="2" fill="none"></polyline>
<polyline points="2121.03,929.64,5584.86,1121.21" stroke="rgb(0,123,255)" stroke-width="2" fill="none"></polyline>
<polyline points="2051.03,950.6,5575.51,1305.49" stroke="rgb(0,233,255)" stroke-width="2" fill="none"></polyline>
<polyline points="1127.33,978.116,5497.48,1591.85" stroke="rgb(242,255,0)" stroke-width="2" fill="none"></polyline>
<polyline points="1970.91,990.194,6308.83,1125" stroke="rgb(0,255,38)" stroke-width="2" fill="none"></polyline>
<polyline points="1476.76,990.388,5616.97,939.468" stroke="rgb(255,131,0)" stroke-width="2" fill="none"></polyline>
<polyline points="2038.76,996.473,5858.53,1996.19" stroke="rgb(93,255,0)" stroke-width="2" fill="none"></polyline>
<polyline points="2429.68,1041.06,6371.68,998.429" stroke="rgb(255,0,4)" stroke-width="2" fill="none"></polyline>
<polyline points="2429.87,1048.62,5672.45,1066.4" stroke="rgb(255,114,0)" stroke-width="2" fill="none"></polyline>
<polyline points="1520.41,1103.9,5756.98,1802.86" stroke="rgb(255,195,0)" stroke-width="2" fill="none"></polyline>
<polyline points="1902.96,1125.46,6048.88,677.441" stroke="rgb(97,0,255)" stroke-width="2" fill="none"></polyline>
<polyline points="1590.82,1133.24,6720.92,1210.09" stroke="rgb(255,0,157)" stroke-width="2" fill="none"></polyline>
<polyline points="1957.79,1160.1,5987.57,695.622" stroke="rgb(255,216,0)" stroke-width="2" fill="none"></polyline>
<polyline points="1493.52,1164.34,5774.72,1903.88" stroke="rgb(25,255,0)" stroke-width="2" fill="none"></polyline>
<polyline points="1982.25,1188.52,6828.38,1482.1" stroke="rgb(255,0,216)" stroke-width="2" fill="none"></polyline>
<polyline points="1602.08,1197.78,6719.02,1661.73" stroke="rgb(0,255,29)" stroke-width="2" fill="none"></polyline>
<polyline points="1184.89,1204.32,5268.13,1645.66" stroke="rgb(0,255,4)" stroke-width="2" fill="none"></polyline>
<polyline points="2607.87,1227.51,5766.67,1858.27" stroke="rgb(0,255,203)" stroke-width="2" fill="none"></polyline>
<polyline points="1932.41,1230.79,5943.67,677.18" stroke="rgb(106,255,0)" stroke-width="2" fill="none"></polyline>
<polyline points="1930.68,1258.95,6248.82,1097.21" stroke="rgb(187,255,0)" stroke-width="2" fill="none"></polyline>
<polyline points="1385.52,1262.86,6741.2,1598.44" stroke="rgb(0,255,208)" stroke-width="2" fill="none"></polyline>
<polyline points="1188.82,1263.33,5864.18,1683.57" stroke="rgb(0,153,255)" stroke-width="2" fill="none"></polyline>
<polyline points="1207.06,1264.91,6300.77,1029.37" stroke="rgb(0,161,255)" stroke-width="2" fill="none"></polyline>
<polyline points="2090.62,1266.7,5933.6,1072.71" stroke="rgb(255,225,0)" stroke-width="2" fill="none"></polyline>
<polyline points="2172.91,1286.78,6782.85,1014.31" stroke="rgb(0,12,255)" stroke-width="2" fill="none"></polyline>
<polyline points="1218.88,1293.19,6654.74,2015.1" stroke="rgb(250,0,255)" stroke-width="2" fill="none"></polyline>
<polyline points="2223.82,1294.58,5657.68,831.937" stroke="rgb(195,0,255)" stroke-width="2" fill="none"></polyline>
<polyline points="1615.44,1294.71,5870.73,1269.99" stroke="rgb(0,255,225)" stroke-width="2" fill="none"></polyline>
<polyline points="2061.1,1310.2,6671.59,1923.3" stroke="rgb(0,255,76)" stroke-width="2" fill="none"></polyline>
<polyline points="1993.03,1330.4,6776.79,1653.53" stroke="rgb(0,255,242)" stroke-width="2" fill="none"></polyline>
<polyline points="1648.62,1348.24,5877.79,1616.32" stroke="rgb(0,255,72)" stroke-width="2" fill="none"></polyline>
<polyline points="2251.2,1361.96,6669.19,1911.92" stroke="rgb(255,221,0)" stroke-width="2" fill="none"></polyline>
<polyline points="2071.18,1382.19,6569.15,1587.13" stroke="rgb(85,0,255)" stroke-width="2" fill="none"></polyline>
<polyline points="1474.48,1382.45,6570.16,1351.34" stroke="rgb(0,195,255)" stroke-width="2" fill="none"></polyline>
<polyline points="1549.05,1387.53,5895.18,1498.84" stroke="rgb(21,255,0)" stroke-width="2" fill="none"></polyline>
<polyline points="2710.18,1392.42,6659.11,2100.27" stroke="rgb(255,127,0)" stroke-width="2" fill="none"></polyline>
<polyline points="1568.78,1398.92,5750.86,1920.79" stroke="rgb(97,255,0)" stroke-width="2" fill="none"></polyline>
<polyline points="2430.7,1414.12,5570.85,865.723" stroke="rgb(148,255,0)" stroke-width="2" fill="none"></polyline>
<polyline points="2073.38,1417.69,5963.92,1290.35" stroke="rgb(89,0,255)" stroke-width="2" fill="none"></polyline>
<polyline points="2643.16,1425.83,5708.59,1615.73" stroke="rgb(0,255,16)" stroke-width="2" fill="none"></polyline>
<polyline points="2568.36,1426.7,6748,1436.82" stroke="rgb(255,12,0)" stroke-width="2" fill="none"></polyline>
<polyline points="1594.02,1441.62,5018.02,1825.78" stroke="rgb(0,255,191)" stroke-width="2" fill="none"></polyline>
<polyline points="1623.98,1450.12,5935.92,1933.71" stroke="rgb(140,255,0)" stroke-width="2" fill="none"></polyline>
<polyline points="2536.85,1461.65,5643.63,1688.7" stroke="rgb(255,229,0)" stroke-width="2" fill="none"></polyline>
<polyline points="2600.25,1463,5733.73,1568.95" stroke="rgb(0,255,131)" stroke-width="2" fill="none"></polyline>
<polyline points="1232.83,1464.19,5399.75,1572.77" stroke="rgb(118,0,255)" stroke-width="2" fill="none"></polyline>
<polyline points="1858.61,1473.51,5832.76,1252.77" stroke="rgb(0,250,255)" stroke-width="2" fill="none"></polyline>
<polyline points="1688.11,1483.26,6706.82,1763.51" stroke="rgb(0,255,101)" stroke-width="2" fill="none"></polyline>
<polyline points="2427.93,1493.83,6749.74,1068.46" stroke="rgb(187,255,0)" stroke-width="2" fill="none"></polyline>
<polyline points="2443.35,1505.63,5237.79,1679.1" stroke="rgb(0,255,123)" stroke-width="2" fill="none"></polyline>
<polyline points="1658.4,1523.53,6704.59,902.324" stroke="rgb(0,85,255)" stroke-width="2" fill="none"></polyline>
<polyline points="2549.79,1533.54,5938.57,1911.35" stroke="rgb(8,255,0)" stroke-width="2" fill="none"></polyline>
<polyline points="2166.96,1537.07,6381.52,1143.09" stroke="rgb(0,63,255)" stroke-width="2" fill="none"></polyline>
<polyline points="1566.34,1537.51,5781.23,1879.78" stroke="rgb(229,0,255)" stroke-width="2" fill="none"></polyline>
<polyline points="2606.19,1548.42,6342.73,737.073" stroke="rgb(0,255,216)" stroke-width="2" fill="none"></polyline>
<polyline points="2693.82,1570.18,5595.54,700.072" stroke="rgb(76,255,0)" stroke-width="2" fill="none"></polyline>
<polyline points="2158.85,1586.3,5685.88,607.855" stroke="rgb(0,25,255)" stroke-width="2" fill="none"></polyline>
<polyline points="2467.15,1598.85,6400.5,1065.79" stroke="rgb(255,0,131)" stroke-width="2" fill="none"></polyline>
<polyline points="2162.97,1606.57,5882.33,527.276" stroke="rgb(0,255,114)" stroke-width="2" fill="none"></polyline>
<polyline points="2473.57,1617.03,5571.75,1195.67" stroke="rgb(17,0,255)" stroke-width="2" fill="none"></polyline>
<polyline points="1216.54,1621.49,6734.34,987.959" stroke="rgb(255,76,0)" stroke-width="2" fill="none"></polyline>
<polyline points="1238.64,1623.26,6705.01,1385.41" stroke="rgb(191,0,255)" stroke-width="2" fill="none"></polyline>
<polyline points="2646.21,1626.95,6466.56,808.069" stroke="rgb(238,0,255)" stroke-width="2" fill="none"></polyline>
<polyline points="2157.53,1631.25,5835.01,943.83" stroke="rgb(161,0,255)" stroke-width="2" fill="none"></polyline>
<polyline points="1688.62,1642.86,5747.5,1884.06" stroke="rgb(255,0,38)" stroke-width="2" fill="none"></polyline>
<polyline points="1829.24,1663.32,6017.07,1177.63" stroke="rgb(255,216,0)" stroke-width="2" fill="none"></polyline>
<polyline points="2101.72,1672.13,6679.98,1558.41" stroke="rgb(255,0,221)" stroke-width="2" fill="none"></polyline>
<polyline points="2217.44,1690.55,6661.81,852.058" stroke="rgb(131,255,0)" stroke-width="2" fill="none"></polyline>
<polyline points="2057.76,1788.12,5747.28,622.356" stroke="rgb(255,34,0)" stroke-width="2" fill="none"></polyline>
<polyline points="2032.93,1794.49,5851.01,1278.53" stroke="rgb(161,255,0)" stroke-width="2" fill="none"></polyline>
<polyline points="1296.23,1825.74,6495.02,2077.09" stroke="rgb(148,255,0)" stroke-width="2" fill="none"></polyline>
<polyline points="1329.9,1883.67,6788.92,1550.88" stroke="rgb(255,51,0)" stroke-width="2" fill="none"></polyline>
<polyline points="1959.54,1900.77,5854.52,1072.71" stroke="rgb(29,0,255)" stroke-width="2" fill="none"></polyline>
<polyline points="2059.35,1909.91,5735.65,1080.82" stroke="rgb(0,255,225)" stroke-width="2" fill="none"></polyline>
<polyline points="1978.73,1912.76,6620.74,1416.39" stroke="rgb(229,255,0)" stroke-width="2" fill="none"></polyline>
<polyline points="2414.48,1919.03,6580.88,1411.87" stroke="rgb(127,0,255)" stroke-width="2" fill="none"></polyline>
<polyline points="2352.15,1935.59,6426,1045.67" stroke="rgb(255,0,199)" stroke-width="2" fill="none"></polyline>
<polyline points="2572.77,1943.56,5905.36,759.506" stroke="rgb(0,255,0)" stroke-width="2" fill="none"></polyline>
<polyline points="2003.67,1948.26,5762.14,1486.2" stroke="rgb(255,229,0)" stroke-width="2" fill="none"></polyline>
<polyline points="1928.02,1983.44,5552.56,324.893" stroke="rgb(255,127,0)" stroke-width="2" fill="none"></polyline>
<polyline points="1985.11,1985.8,5924.25,737.946" stroke="rgb(0,255,89)" stroke-width="2" fill="none"></polyline>
<polyline points="1815.9,2053.89,5904.04,1619.66" stroke="rgb(0,255,110)" stroke-width="2" fill="none"></polyline>
<polyline points="1925.48,2058.95,5247.59,2042.05" stroke="rgb(255,85,0)" stroke-width="2" fill="none"></polyline>
<polyline points="1987.99,2064.57,5266.58,2003.92" stroke="rgb(255,25,0)" stroke-width="2" fill="none"></polyline>
<polyline points="2088.73,2073.1,6308.04,993.968" stroke="rgb(169,255,0)" stroke-width="2" fill="none"></polyline>
<polyline points="1672.39,2075.77,5537.26,2094.93" stroke="rgb(0,208,255)" stroke-width="2" fill="none"></polyline>
<polyline points="2481.17,2112.56,5651.7,1586.97" stroke="rgb(51,255,0)" stroke-width="2" fill="none"></polyline>
<polyline points="1019.37,2117.41,5302.86,686.482" stroke="rgb(255,0,195)" stroke-width="2" fill="none"></polyline>
<polyline points="2038.24,2147.78,5935.41,664.049" stroke="rgb(0,255,169)" stroke-width="2" fill="none"></polyline>
<polyline points="2004.96,2155.02,6516.52,1884.05" stroke="rgb(0,255,33)" stroke-width="2" fill="none"></polyline>
<polyline points="1995.03,2156.55,6516.79,1858.1" stroke="rgb(0,178,255)" stroke-width="2" fill="none"></polyline>
<polyline points="2274.49,2164.18,5837.3,1779.16" stroke="rgb(0,255,246)" stroke-width="2" fill="none"></polyline>
<polyline points="2050.31,2180.86,5830.88,909.96" stroke="rgb(191,0,255)" stroke-width="2" fill="none"></polyline>
<polyline points="1287.43,2182.45,5710.96,657.601" stroke="rgb(0,255,59)" stroke-width="2" fill="none"></polyline>
<polyline points="2007.29,2185.94,6516.52,1884.05" stroke="rgb(255,0,136)" stroke-width="2" fill="none"></polyline>
<polyline points="2253.97,2194.61,5422.69,663.35" stroke="rgb(153,0,255)" stroke-width="2" fill="none"></polyline>
<polyline points="2431.38,2202.39,5613.05,1648.53" stroke="rgb(255,242,0)" stroke-width="2" fill="none"></polyline>
<polyline points="2062.41,2224.34,5557.7,1364.7" stroke="rgb(157,0,255)" stroke-width="2" fill="none"></polyline>
<polyline points="1657.19,2229.71,5437.76,1084.88" stroke="rgb(0,12,255)" stroke-width="2" fill="none"></polyline>
<polyline points="2154.11,2231.47,5270,1774.77" stroke="rgb(229,255,0)" stroke-width="2" fill="none"></polyline>
<polyline points="2027.59,2236.22,5539.87,368.206" stroke="rgb(255,0,4)" stroke-width="2" fill="none"></polyline>
<polyline points="2126.94,2236.55,5731.38,739.412" stroke="rgb(255,0,157)" stroke-width="2" fill="none"></polyline>
<polyline points="2012.08,2236.99,5995.66,1023.73" stroke="rgb(178,255,0)" stroke-width="2" fill="none"></polyline>
<polyline points="2061.98,2252.91,6094.1,1023.98" stroke="rgb(8,255,0)" stroke-width="2" fill="none"></polyline>
<polyline points="1622.13,2285.59,6559.52,668.255" stroke="rgb(0,255,67)" stroke-width="2" fill="none"></polyline>
<polyline points="2300.57,2292.2,6387.32,652.08" stroke="rgb(255,68,0)" stroke-width="2" fill="none"></polyline>
<polyline points="1644.02,2321.87,5381.46,698.413" stroke="rgb(255,119,0)" stroke-width="2" fill="none"></polyline>
<polyline points="1666.74,2331.85,5336.38,699.066" stroke="rgb(131,255,0)" stroke-width="2" fill="none"></polyline>
<polyline points="1502.45,2355.61,5450.29,427.323" stroke="rgb(0,255,67)" stroke-width="2" fill="none"></polyline>
<polyline points="812.932,2398.31,5677.15,431.333" stroke="rgb(255,0,195)" stroke-width="2" fill="none"></polyline>
<polyline points="798.254,2415.64,5297.12,414.502" stroke="rgb(255,0,38)" stroke-width="2" fill="none"></polyline>
<polyline points="1503.57,2418.52,5357.48,1777.74" stroke="rgb(157,0,255)" stroke-width="2" fill="none"></polyline>
<polyline points="1627.92,2478.86,6659.18,828.663" stroke="rgb(84,255,0)" stroke-width="2" fill="none"></polyline>
<polyline points="1328.24,2496.81,6586.64,1543.48" stroke="rgb(255,46,0)" stroke-width="2" fill="none"></polyline>
<polyline points="1528.69,2659.78,5657.29,383.947" stroke="rgb(0,255,148)" stroke-width="2" fill="none"></polyline>
<circle cx="1438.52" cy="293.453" r="4" stroke="rgb(0,80,255)" stroke-width="2" fill="none"></circle>
<circle cx="6656.71" cy="1364.79" r="4" stroke="rgb(0,80,255)" stroke-width="2" fill="none"></circle>
<circle cx="1538.95" cy="349.899" r="4" stroke="rgb(255,127,0)" stroke-width="2" fill="none"></circle>
<circle cx="5538.53" cy="387.774" r="4" stroke="rgb(255,127,0)" stroke-width="2" fill="none"></circle>
<circle cx="1496.06" cy="381.307" r="4" stroke="rgb(80,255,0)" stroke-width="2" fill="none"></circle>
<circle cx="5227.2" cy="2045.73" r="4" stroke="rgb(80,255,0)" stroke-width="2" fill="none"></circle>
<circle cx="1638.79" cy="424.539" r="4" stroke="rgb(144,0,255)" stroke-width="2" fill="none"></circle>
<circle cx="5331.15" cy="885.089" r="4" stroke="rgb(144,0,255)" stroke-width="2" fill="none"></circle>
<circle cx="1789.46" cy="484.762" r="4" stroke="rgb(255,123,0)" stroke-width="2" fill="none"></circle>
<circle cx="6772.75" cy="1393.85" r="4" stroke="rgb(255,123,0)" stroke-width="2" fill="none"></circle>
<circle cx="1815.91" cy="523.852" r="4" stroke="rgb(255,0,123)" stroke-width="2" fill="none"></circle>
<circle cx="5693.1" cy="806.982" r="4" stroke="rgb(255,0,123)" stroke-width="2" fill="none"></circle>
<circle cx="1455.11" cy="534.955" r="4" stroke="rgb(255,0,169)" stroke-width="2" fill="none"></circle>
<circle cx="6677.63" cy="1005.6" r="4" stroke="rgb(255,0,169)" stroke-width="2" fill="none"></circle>
<circle cx="1827.47" cy="575.881" r="4" stroke="rgb(0,85,255)" stroke-width="2" fill="none"></circle>
<circle cx="6607.56" cy="1136.23" r="4" stroke="rgb(0,85,255)" stroke-width="2" fill="none"></circle>
<circle cx="1474.97" cy="578.986" r="4" stroke="rgb(255,89,0)" stroke-width="2" fill="none"></circle>
<circle cx="6650.19" cy="1904.78" r="4" stroke="rgb(255,89,0)" stroke-width="2" fill="none"></circle>
<circle cx="1910.8" cy="582.972" r="4" stroke="rgb(161,0,255)" stroke-width="2" fill="none"></circle>
<circle cx="5864.25" cy="1274.87" r="4" stroke="rgb(161,0,255)" stroke-width="2" fill="none"></circle>
<circle cx="1846.22" cy="585.328" r="4" stroke="rgb(0,144,255)" stroke-width="2" fill="none"></circle>
<circle cx="5779.88" cy="1571.27" r="4" stroke="rgb(0,144,255)" stroke-width="2" fill="none"></circle>
<circle cx="1994.17" cy="606.139" r="4" stroke="rgb(255,148,0)" stroke-width="2" fill="none"></circle>
<circle cx="5592.27" cy="394.117" r="4" stroke="rgb(255,148,0)" stroke-width="2" fill="none"></circle>
<circle cx="1921.86" cy="613.303" r="4" stroke="rgb(0,42,255)" stroke-width="2" fill="none"></circle>
<circle cx="6759.62" cy="1679.43" r="4" stroke="rgb(0,42,255)" stroke-width="2" fill="none"></circle>
<circle cx="978.088" cy="638.099" r="4" stroke="rgb(0,255,16)" stroke-width="2" fill="none"></circle>
<circle cx="6470.36" cy="1123.37" r="4" stroke="rgb(0,255,16)" stroke-width="2" fill="none"></circle>
<circle cx="2185.96" cy="642.973" r="4" stroke="rgb(191,255,0)" stroke-width="2" fill="none"></circle>
<circle cx="6820.06" cy="821.161" r="4" stroke="rgb(191,255,0)" stroke-width="2" fill="none"></circle>
<circle cx="1506.27" cy="646.177" r="4" stroke="rgb(255,136,0)" stroke-width="2" fill="none"></circle>
<circle cx="5794.16" cy="1805.53" r="4" stroke="rgb(255,136,0)" stroke-width="2" fill="none"></circle>
<circle cx="1348.54" cy="646.364" r="4" stroke="rgb(238,0,255)" stroke-width="2" fill="none"></circle>
<circle cx="5361.26" cy="1585.25" r="4" stroke="rgb(238,0,255)" stroke-width="2" fill="none"></circle>
<circle cx="1348.69" cy="646.397" r="4" stroke="rgb(255,21,0)" stroke-width="2" fill="none"></circle>
<circle cx="5361.26" cy="1585.25" r="4" stroke="rgb(255,21,0)" stroke-width="2" fill="none"></circle>
<circle cx="897.344" cy="660.975" r="4" stroke="rgb(0,127,255)" stroke-width="2" fill="none"></circle>
<circle cx="5976.78" cy="1813.64" r="4" stroke="rgb(0,127,255)" stroke-width="2" fill="none"></circle>
<circle cx="1959.59" cy="674.741" r="4" stroke="rgb(255,0,59)" stroke-width="2" fill="none"></circle>
<circle cx="6618.1" cy="1372.72" r="4" stroke="rgb(255,0,59)" stroke-width="2" fill="none"></circle>
<circle cx="2446.23" cy="703.565" r="4" stroke="rgb(0,153,255)" stroke-width="2" fill="none"></circle>
<circle cx="5697.22" cy="1459.94" r="4" stroke="rgb(0,153,255)" stroke-width="2" fill="none"></circle>
<circle cx="1522.25" cy="740.939" r="4" stroke="rgb(255,29,0)" stroke-width="2" fill="none"></circle>
<circle cx="6375.74" cy="1167.09" r="4" stroke="rgb(255,29,0)" stroke-width="2" fill="none"></circle>
<circle cx="2471.76" cy="760.266" r="4" stroke="rgb(255,0,55)" stroke-width="2" fill="none"></circle>
<circle cx="5883.12" cy="1772.58" r="4" stroke="rgb(255,0,55)" stroke-width="2" fill="none"></circle>
<circle cx="2506.61" cy="778.773" r="4" stroke="rgb(255,0,136)" stroke-width="2" fill="none"></circle>
<circle cx="5673.59" cy="1756.91" r="4" stroke="rgb(255,0,136)" stroke-width="2" fill="none"></circle>
<circle cx="2054.95" cy="795.237" r="4" stroke="rgb(157,255,0)" stroke-width="2" fill="none"></circle>
<circle cx="6076.27" cy="1933.33" r="4" stroke="rgb(157,255,0)" stroke-width="2" fill="none"></circle>
<circle cx="790.604" cy="797.043" r="4" stroke="rgb(255,4,0)" stroke-width="2" fill="none"></circle>
<circle cx="5674.7" cy="752.375" r="4" stroke="rgb(255,4,0)" stroke-width="2" fill="none"></circle>
<circle cx="2534.5" cy="806.076" r="4" stroke="rgb(0,17,255)" stroke-width="2" fill="none"></circle>
<circle cx="6205.05" cy="952.769" r="4" stroke="rgb(0,17,255)" stroke-width="2" fill="none"></circle>
<circle cx="780.049" cy="816.939" r="4" stroke="rgb(0,255,25)" stroke-width="2" fill="none"></circle>
<circle cx="6640.18" cy="859.075" r="4" stroke="rgb(0,255,25)" stroke-width="2" fill="none"></circle>
<circle cx="2130.79" cy="821.406" r="4" stroke="rgb(255,46,0)" stroke-width="2" fill="none"></circle>
<circle cx="5711.57" cy="800.598" r="4" stroke="rgb(255,46,0)" stroke-width="2" fill="none"></circle>
<circle cx="2559.46" cy="824.246" r="4" stroke="rgb(255,140,0)" stroke-width="2" fill="none"></circle>
<circle cx="6075.26" cy="1574.17" r="4" stroke="rgb(255,140,0)" stroke-width="2" fill="none"></circle>
<circle cx="2254.47" cy="850.561" r="4" stroke="rgb(0,63,255)" stroke-width="2" fill="none"></circle>
<circle cx="5688.64" cy="2062.76" r="4" stroke="rgb(0,63,255)" stroke-width="2" fill="none"></circle>
<circle cx="1434.1" cy="853.268" r="4" stroke="rgb(0,29,255)" stroke-width="2" fill="none"></circle>
<circle cx="6702.28" cy="1806.13" r="4" stroke="rgb(0,29,255)" stroke-width="2" fill="none"></circle>
<circle cx="1454.44" cy="872.856" r="4" stroke="rgb(242,255,0)" stroke-width="2" fill="none"></circle>
<circle cx="5736.18" cy="1923.95" r="4" stroke="rgb(242,255,0)" stroke-width="2" fill="none"></circle>
<circle cx="2243.74" cy="889.271" r="4" stroke="rgb(0,178,255)" stroke-width="2" fill="none"></circle>
<circle cx="5815.15" cy="1941.97" r="4" stroke="rgb(0,178,255)" stroke-width="2" fill="none"></circle>
<circle cx="2025.02" cy="904.449" r="4" stroke="rgb(255,80,0)" stroke-width="2" fill="none"></circle>
<circle cx="6070.16" cy="590.099" r="4" stroke="rgb(255,80,0)" stroke-width="2" fill="none"></circle>
<circle cx="2453.6" cy="917.615" r="4" stroke="rgb(255,0,153)" stroke-width="2" fill="none"></circle>
<circle cx="5474.03" cy="1101.06" r="4" stroke="rgb(255,0,153)" stroke-width="2" fill="none"></circle>
<circle cx="986.319" cy="922.852" r="4" stroke="rgb(255,178,0)" stroke-width="2" fill="none"></circle>
<circle cx="6321.71" cy="1070.58" r="4" stroke="rgb(255,178,0)" stroke-width="2" fill="none"></circle>
<circle cx="2121.03" cy="929.64" r="4" stroke="rgb(0,123,255)" stroke-width="2" fill="none"></circle>
<circle cx="5584.86" cy="1121.21" r="4" stroke="rgb(0,123,255)" stroke-width="2" fill="none"></circle>
<circle cx="2051.03" cy="950.6" r="4" stroke="rgb(0,233,255)" stroke-width="2" fill="none"></circle>
<circle cx="5575.51" cy="1305.49" r="4" stroke="rgb(0,233,255)" stroke-width="2" fill="none"></circle>
<circle cx="1127.33" cy="978.116" r="4" stroke="rgb(242,255,0)" stroke-width="2" fill="none"></circle>
<circle cx="5497.48" cy="1591.85" r="4" stroke="rgb(242,255,0)" stroke-width="2" fill="none"></circle>
<circle cx="1970.91" cy="990.194" r="4" stroke="rgb(0,255,38)" stroke-width="2" fill="none"></circle>
<circle cx="6308.83" cy="1125" r="4" stroke="rgb(0,255,38)" stroke-width="2" fill="none"></circle>
<circle cx="1476.76" cy="990.388" r="4" stroke="rgb(255,131,0)" stroke-width="2" fill="none"></circle>
<circle cx="5616.97" cy="939.468" r="4" stroke="rgb(255,131,0)" stroke-width="2" fill="none"></circle>
<circle cx="2038.76" cy="996.473" r="4" stroke="rgb(93,255,0)" stroke-width="2" fill="none"></circle>
<circle cx="5858.53" cy="1996.19" r="4" stroke="rgb(93,255,0)" stroke-width="2" fill="none"></circle>
<circle cx="2429.68" cy="1041.06" r="4" stroke="rgb(255,0,4)" stroke-width="2" fill="none"></circle>
<circle cx="6371.68" cy="998.429" r="4" stroke="rgb(255,0,4)" stroke-width="2" fill="none"></circle>
<circle cx="2429.87" cy="1048.62" r="4" stroke="rgb(255,114,0)" stroke-width="2" fill="none"></circle>
<circle cx="5672.45" cy="1066.4" r="4" stroke="rgb(255,114,0)" stroke-width="2" fill="none"></circle>
<circle cx="1520.41" cy="1103.9" r="4" stroke="rgb(255,195,0)" stroke-width="2" fill="none"></circle>
<circle cx="5756.98" cy="1802.86" r="4" stroke="rgb(255,195,0)" stroke-width="2" fill="none"></circle>
<circle cx="1902.96" cy="1125.46" r="4" stroke="rgb(97,0,255)" stroke-width="2" fill="none"></circle>
<circle cx="6048.88" cy="677.441" r="4" stroke="rgb(97,0,255)" stroke-width="2" fill="none"></circle>
<circle cx="1590.82" cy="1133.24" r="4" stroke="rgb(255,0,157)" stroke-width="2" fill="none"></circle>
<circle cx="6720.92" cy="1210.09" r="4" stroke="rgb(255,0,157)" stroke-width="2" fill="none"></circle>
<circle cx="1957.79" cy="1160.1" r="4" stroke="rgb(255,216,0)" stroke-width="2" fill="none"></circle>
<circle cx="5987.57" cy="695.622" r="4" stroke="rgb(255,216,0)" stroke-width="2" fill="none"></circle>
<circle cx="1493.52" cy="1164.34" r="4" stroke="rgb(25,255,0)" stroke-width="2" fill="none"></circle>
<circle cx="5774.72" cy="1903.88" r="4" stroke="rgb(25,255,0)" stroke-width="2" fill="none"></circle>
<circle cx="1982.25" cy="1188.52" r="4" stroke="rgb(255,0,216)" stroke-width="2" fill="none"></circle>
<circle cx="6828.38" cy="1482.1" r="4" stroke="rgb(255,0,216)" stroke-width="2" fill="none"></circle>
<circle cx="1602.08" cy="1197.78" r="4" stroke="rgb(0,255,29)" stroke-width="2" fill="none"></circle>
<circle cx="6719.02" cy="1661.73" r="4" stroke="rgb(0,255,29)" stroke-width="2" fill="none"></circle>
<circle cx="1184.89" cy="1204.32" r="4" stroke="rgb(0,255,4)" stroke-width="2" fill="none"></circle>
<circle cx="5268.13" cy="1645.66" r="4" stroke="rgb(0,255,4)" stroke-width="2" fill="none"></circle>
<circle cx="2607.87" cy="1227.51" r="4" stroke="rgb(0,255,203)" stroke-width="2" fill="none"></circle>
<circle cx="5766.67" cy="1858.27" r="4" stroke="rgb(0,255,203)" stroke-width="2" fill="none"></circle>
<circle cx="1932.41" cy="1230.79" r="4" stroke="rgb(106,255,0)" stroke-width="2" fill="none"></circle>
<circle cx="5943.67" cy="677.18" r="4" stroke="rgb(106,255,0)" stroke-width="2" fill="none"></circle>
<circle cx="1930.68" cy="1258.95" r="4" stroke="rgb(187,255,0)" stroke-width="2" fill="none"></circle>
<circle cx="6248.82" cy="1097.21" r="4" stroke="rgb(187,255,0)" stroke-width="2" fill="none"></circle>
<circle cx="1385.52" cy="1262.86" r="4" stroke="rgb(0,255,208)" stroke-width="2" fill="none"></circle>
<circle cx="6741.2" cy="1598.44" r="4" stroke="rgb(0,255,208)" stroke-width="2" fill="none"></circle>
<circle cx="1188.82" cy="1263.33" r="4" stroke="rgb(0,153,255)" stroke-width="2" fill="none"></circle>
<circle cx="5864.18" cy="1683.57" r="4" stroke="rgb(0,153,255)" stroke-width="2" fill="none"></circle>
<circle cx="1207.06" cy="1264.91" r="4" stroke="rgb(0,161,255)" stroke-width="2" fill="none"></circle>
<circle cx="6300.77" cy="1029.37" r="4" stroke="rgb(0,161,255)" stroke-width="2" fill="none"></circle>
<circle cx="2090.62" cy="1266.7" r="4" stroke="rgb(255,225,0)" stroke-width="2" fill="none"></circle>
<circle cx="5933.6" cy="1072.71" r="4" stroke="rgb(255,225,0)" stroke-width="2" fill="none"></circle>
<circle cx="2172.91" cy="1286.78" r="4" stroke="rgb(0,12,255)" stroke-width="2" fill="none"></circle>
<circle cx="6782.85" cy="1014.31" r="4" stroke="rgb(0,12,255)" stroke-width="2" fill="none"></circle>
<circle cx="1218.88" cy="1293.19" r="4" stroke="rgb(250,0,255)" stroke-width="2" fill="none"></circle>
<circle cx="6654.74" cy="2015.1" r="4" stroke="rgb(250,0,255)" stroke-width="2" fill="none"></circle>
<circle cx="2223.82" cy="1294.58" r="4" stroke="rgb(195,0,255)" stroke-width="2" fill="none"></circle>
<circle cx="5657.68" cy="831.937" r="4" stroke="rgb(195,0,255)" stroke-width="2" fill="none"></circle>
<circle cx="1615.44" cy="1294.71" r="4" stroke="rgb(0,255,225)" stroke-width="2" fill="none"></circle>
<circle cx="5870.73" cy="1269.99" r="4" stroke="rgb(0,255,225)" stroke-width="2" fill="none"></circle>
<circle cx="2061.1" cy="1310.2" r="4" stroke="rgb(0,255,76)" stroke-width="2" fill="none"></circle>
<circle cx="6671.59" cy="1923.3" r="4" stroke="rgb(0,255,76)" stroke-width="2" fill="none"></circle>
<circle cx="1993.03" cy="1330.4" r="4" stroke="rgb(0,255,242)" stroke-width="2" fill="none"></circle>
<circle cx="6776.79" cy="1653.53" r="4" stroke="rgb(0,255,242)" stroke-width="2" fill="none"></circle>
<circle cx="1648.62" cy="1348.24" r="4" stroke="rgb(0,255,72)" stroke-width="2" fill="none"></circle>
<circle cx="5877.79" cy="1616.32" r="4" stroke="rgb(0,255,72)" stroke-width="2" fill="none"></circle>
<circle cx="2251.2" cy="1361.96" r="4" stroke="rgb(255,221,0)" stroke-width="2" fill="none"></circle>
<circle cx="6669.19" cy="1911.92" r="4" stroke="rgb(255,221,0)" stroke-width="2" fill="none"></circle>
<circle cx="2071.18" cy="1382.19" r="4" stroke="rgb(85,0,255)" stroke-width="2" fill="none"></circle>
<circle cx="6569.15" cy="1587.13" r="4" stroke="rgb(85,0,255)" stroke-width="2" fill="none"></circle>
<circle cx="1474.48" cy="1382.45" r="4" stroke="rgb(0,195,255)" stroke-width="2" fill="none"></circle>
<circle cx="6570.16" cy="1351.34" r="4" stroke="rgb(0,195,255)" stroke-width="2" fill="none"></circle>
<circle cx="1549.05" cy="1387.53" r="4" stroke="rgb(21,255,0)" stroke-width="2" fill="none"></circle>
<circle cx="5895.18" cy="1498.84" r="4" stroke="rgb(21,255,0)" stroke-width="2" fill="none"></circle>
<circle cx="2710.18" cy="1392.42" r="4" stroke="rgb(255,127,0)" stroke-width="2" fill="none"></circle>
<circle cx="6659.11" cy="2100.27" r="4" stroke="rgb(255,127,0)" stroke-width="2" fill="none"></circle>
<circle cx="1568.78" cy="1398.92" r="4" stroke="rgb(97,255,0)" stroke-width="2" fill="none"></circle>
<circle cx="5750.86" cy="1920.79" r="4" stroke="rgb(97,255,0)" stroke-width="2" fill="none"></circle>
<circle cx="2430.7" cy="1414.12" r="4" stroke="rgb(148,255,0)" stroke-width="2" fill="none"></circle>
<circle cx="5570.85" cy="865.723" r="4" stroke="rgb(148,255,0)" stroke-width="2" fill="none"></circle>
<circle cx="2073.38" cy="1417.69" r="4" stroke="rgb(89,0,255)" stroke-width="2" fill="none"></circle>
<circle cx="5963.92" cy="1290.35" r="4" stroke="rgb(89,0,255)" stroke-width="2" fill="none"></circle>
<circle cx="2643.16" cy="1425.83" r="4" stroke="rgb(0,255,16)" stroke-width="2" fill="none"></circle>
<circle cx="5708.59" cy="1615.73" r="4" stroke="rgb(0,255,16)" stroke-width="2" fill="none"></circle>
<circle cx="2568.36" cy="1426.7" r="4" stroke="rgb(255,12,0)" stroke-width="2" fill="none"></circle>
<circle cx="6748" cy="1436.82" r="4" stroke="rgb(255,12,0)" stroke-width="2" fill="none"></circle>
<circle cx="1594.02" cy="1441.62" r="4" stroke="rgb(0,255,191)" stroke-width="2" fill="none"></circle>
<circle cx="5018.02" cy="1825.78" r="4" stroke="rgb(0,255,191)" stroke-width="2" fill="none"></circle>
<circle cx="1623.98" cy="1450.12" r="4" stroke="rgb(140,255,0)" stroke-width="2" fill="none"></circle>
<circle cx="5935.92" cy="1933.71" r="4" stroke="rgb(140,255,0)" stroke-width="2" fill="none"></circle>
<circle cx="2536.85" cy="1461.65" r="4" stroke="rgb(255,229,0)" stroke-width="2" fill="none"></circle>
<circle cx="5643.63" cy="1688.7" r="4" stroke="rgb(255,229,0)" stroke-width="2" fill="none"></circle>
<circle cx="2600.25" cy="1463" r="4" stroke="rgb(0,255,131)" stroke-width="2" fill="none"></circle>
<circle cx="5733.73" cy="1568.95" r="4" stroke="rgb(0,255,131)" stroke-width="2" fill="none"></circle>
<circle cx="1232.83" cy="1464.19" r="4" stroke="rgb(118,0,255)" stroke-width="2" fill="none"></circle>
<circle cx="5399.75" cy="1572.77" r="4" stroke="rgb(118,0,255)" stroke-width="2" fill="none"></circle>
<circle cx="1858.61" cy="1473.51" r="4" stroke="rgb(0,250,255)" stroke-width="2" fill="none"></circle>
<circle cx="5832.76" cy="1252.77" r="4" stroke="rgb(0,250,255)" stroke-width="2" fill="none"></circle>
<circle cx="1688.11" cy="1483.26" r="4" stroke="rgb(0,255,101)" stroke-width="2" fill="none"></circle>
<circle cx="6706.82" cy="1763.51" r="4" stroke="rgb(0,255,101)" stroke-width="2" fill="none"></circle>
<circle cx="2427.93" cy="1493.83" r="4" stroke="rgb(187,255,0)" stroke-width="2" fill="none"></circle>
<circle cx="6749.74" cy="1068.46" r="4" stroke="rgb(187,255,0)" stroke-width="2" fill="none"></circle>
<circle cx="2443.35" cy="1505.63" r="4" stroke="rgb(0,255,123)" stroke-width="2" fill="none"></circle>
<circle cx="5237.79" cy="1679.1" r="4" stroke="rgb(0,255,123)" stroke-width="2" fill="none"></circle>
<circle cx="1658.4" cy="1523.53" r="4" stroke="rgb(0,85,255)" stroke-width="2" fill="none"></circle>
<circle cx="6704.59" cy="902.324" r="4" stroke="rgb(0,85,255)" stroke-width="2" fill="none"></circle>
<circle cx="2549.79" cy="1533.54" r="4" stroke="rgb(8,255,0)" stroke-width="2" fill="none"></circle>
<circle cx="5938.57" cy="1911.35" r="4" stroke="rgb(8,255,0)" stroke-width="2" fill="none"></circle>
<circle cx="2166.96" cy="1537.07" r="4" stroke="rgb(0,63,255)" stroke-width="2" fill="none"></circle>
<circle cx="6381.52" cy="1143.09" r="4" stroke="rgb(0,63,255)" stroke-width="2" fill="none"></circle>
<circle cx="1566.34" cy="1537.51" r="4" stroke="rgb(229,0,255)" stroke-width="2" fill="none"></circle>
<circle cx="5781.23" cy="1879.78" r="4" stroke="rgb(229,0,255)" stroke-width="2" fill="none"></circle>
<circle cx="2606.19" cy="1548.42" r="4" stroke="rgb(0,255,216)" stroke-width="2" fill="none"></circle>
<circle cx="6342.73" cy="737.073" r="4" stroke="rgb(0,255,216)" stroke-width="2" fill="none"></circle>
<circle cx="2693.82" cy="1570.18" r="4" stroke="rgb(76,255,0)" stroke-width="2" fill="none"></circle>
<circle cx="5595.54" cy="700.072" r="4" stroke="rgb(76,255,0)" stroke-width="2" fill="none"></circle>
<circle cx="2158.85" cy="1586.3" r="4" stroke="rgb(0,25,255)" stroke-width="2" fill="none"></circle>
<circle cx="5685.88" cy="607.855" r="4" stroke="rgb(0,25,255)" stroke-width="2" fill="none"></circle>
<circle cx="2467.15" cy="1598.85" r="4" stroke="rgb(255,0,131)" stroke-width="2" fill="none"></circle>
<circle cx="6400.5" cy="1065.79" r="4" stroke="rgb(255,0,131)" stroke-width="2" fill="none"></circle>
<circle cx="2162.97" cy="1606.57" r="4" stroke="rgb(0,255,114)" stroke-width="2" fill="none"></circle>
<circle cx="5882.33" cy="527.276" r="4" stroke="rgb(0,255,114)" stroke-width="2" fill="none"></circle>
<circle cx="2473.57" cy="1617.03" r="4" stroke="rgb(17,0,255)" stroke-width="2" fill="none"></circle>
<circle cx="5571.75" cy="1195.67" r="4" stroke="rgb(17,0,255)" stroke-width="2" fill="none"></circle>
<circle cx="1216.54" cy="1621.49" r="4" stroke="rgb(255,76,0)" stroke-width="2" fill="none"></circle>
<circle cx="6734.34" cy="987.959" r="4" stroke="rgb(255,76,0)" stroke-width="2" fill="none"></circle>
<circle cx="1238.64" cy="1623.26" r="4" stroke="rgb(191,0,255)" stroke-width="2" fill="none"></circle>
<circle cx="6705.01" cy="1385.41" r="4" stroke="rgb(191,0,255)" stroke-width="2" fill="none"></circle>
<circle cx="2646.21" cy="1626.95" r="4" stroke="rgb(238,0,255)" stroke-width="2" fill="none"></circle>
<circle cx="6466.56" cy="808.069" r="4" stroke="rgb(238,0,255)" stroke-width="2" fill="none"></circle>
<circle cx="2157.53" cy="1631.25" r="4" stroke="rgb(161,0,255)" stroke-width="2" fill="none"></circle>
<circle cx="5835.01" cy="943.83" r="4" stroke="rgb(161,0,255)" stroke-width="2" fill="none"></circle>
<circle cx="1688.62" cy="1642.86" r="4" stroke="rgb(255,0,38)" stroke-width="2" fill="none"></circle>
<circle cx="5747.5" cy="1884.06" r="4" stroke="rgb(255,0,38)" stroke-width="2" fill="none"></circle>
<circle cx="1829.24" cy="1663.32" r="4" stroke="rgb(255,216,0)" stroke-width="2" fill="none"></circle>
<circle cx="6017.07" cy="1177.63" r="4" stroke="rgb(255,216,0)" stroke-width="2" fill="none"></circle>
<circle cx="2101.72" cy="1672.13" r="4" stroke="rgb(255,0,221)" stroke-width="2" fill="none"></circle>
<circle cx="6679.98" cy="1558.41" r="4" stroke="rgb(255,0,221)" stroke-width="2" fill="none"></circle>
<circle cx="2217.44" cy="1690.55" r="4" stroke="rgb(131,255,0)" stroke-width="2" fill="none"></circle>
<circle cx="6661.81" cy="852.058" r="4" stroke="rgb(131,255,0)" stroke-width="2" fill="none"></circle>
<circle cx="2057.76" cy="1788.12" r="4" stroke="rgb(255,34,0)" stroke-width="2" fill="none"></circle>
<circle cx="5747.28" cy="622.356" r="4" stroke="rgb(255,34,0)" stroke-width="2" fill="none"></circle>
<circle cx="2032.93" cy="1794.49" r="4" stroke="rgb(161,255,0)" stroke-width="2" fill="none"></circle>
<circle cx="5851.01" cy="1278.53" r="4" stroke="rgb(161,255,0)" stroke-width="2" fill="none"></circle>
<circle cx="1296.23" cy="1825.74" r="4" stroke="rgb(148,255,0)" stroke-width="2" fill="none"></circle>
<circle cx="6495.02" cy="2077.09" r="4" stroke="rgb(148,255,0)" stroke-width="2" fill="none"></circle>
<circle cx="1329.9" cy="1883.67" r="4" stroke="rgb(255,51,0)" stroke-width="2" fill="none"></circle>
<circle cx="6788.92" cy="1550.88" r="4" stroke="rgb(255,51,0)" stroke-width="2" fill="none"></circle>
<circle cx="1959.54" cy="1900.77" r="4" stroke="rgb(29,0,255)" stroke-width="2" fill="none"></circle>
<circle cx="5854.52" cy="1072.71" r="4" stroke="rgb(29,0,255)" stroke-width="2" fill="none"></circle>
<circle cx="2059.35" cy="1909.91" r="4" stroke="rgb(0,255,225)" stroke-width="2" fill="none"></circle>
<circle cx="5735.65" cy="1080.82" r="4" stroke="rgb(0,255,225)" stroke-width="2" fill="none"></circle>
<circle cx="1978.73" cy="1912.76" r="4" stroke="rgb(229,255,0)" stroke-width="2" fill="none"></circle>
<circle cx="6620.74" cy="1416.39" r="4" stroke="rgb(229,255,0)" stroke-width="2" fill="none"></circle>
<circle cx="2414.48" cy="1919.03" r="4" stroke="rgb(127,0,255)" stroke-width="2" fill="none"></circle>
<circle cx="6580.88" cy="1411.87" r="4" stroke="rgb(127,0,255)" stroke-width="2" fill="none"></circle>
<circle cx="2352.15" cy="1935.59" r="4" stroke="rgb(255,0,199)" stroke-width="2" fill="none"></circle>
<circle cx="6426" cy="1045.67" r="4" stroke="rgb(255,0,199)" stroke-width="2" fill="none"></circle>
<circle cx="2572.77" cy="1943.56" r="4" stroke="rgb(0,255,0)" stroke-width="2" fill="none"></circle>
<circle cx="5905.36" cy="759.506" r="4" stroke="rgb(0,255,0)" stroke-width="2" fill="none"></circle>
<circle cx="2003.67" cy="1948.26" r="4" stroke="rgb(255,229,0)" stroke-width="2" fill="none"></circle>
<circle cx="5762.14" cy="1486.2" r="4" stroke="rgb(255,229,0)" stroke-width="2" fill="none"></circle>
<circle cx="1928.02" cy="1983.44" r="4" stroke="rgb(255,127,0)" stroke-width="2" fill="none"></circle>
<circle cx="5552.56" cy="324.893" r="4" stroke="rgb(255,127,0)" stroke-width="2" fill="none"></circle>
<circle cx="1985.11" cy="1985.8" r="4" stroke="rgb(0,255,89)" stroke-width="2" fill="none"></circle>
<circle cx="5924.25" cy="737.946" r="4" stroke="rgb(0,255,89)" stroke-width="2" fill="none"></circle>
<circle cx="1815.9" cy="2053.89" r="4" stroke="rgb(0,255,110)" stroke-width="2" fill="none"></circle>
<circle cx="5904.04" cy="1619.66" r="4" stroke="rgb(0,255,110)" stroke-width="2" fill="none"></circle>
<circle cx="1925.48" cy="2058.95" r="4" stroke="rgb(255,85,0)" stroke-width="2" fill="none"></circle>
<circle cx="5247.59" cy="2042.05" r="4" stroke="rgb(255,85,0)" stroke-width="2" fill="none"></circle>
<circle cx="1987.99" cy="2064.57" r="4" stroke="rgb(255,25,0)" stroke-width="2" fill="none"></circle>
<circle cx="5266.58" cy="2003.92" r="4" stroke="rgb(255,25,0)" stroke-width="2" fill="none"></circle>
<circle cx="2088.73" cy="2073.1" r="4" stroke="rgb(169,255,0)" stroke-width="2" fill="none"></circle>
<circle cx="6308.04" cy="993.968" r="4" stroke="rgb(169,255,0)" stroke-width="2" fill="none"></circle>
<circle cx="1672.39" cy="2075.77" r="4" stroke="rgb(0,208,255)" stroke-width="2" fill="none"></circle>
<circle cx="5537.26" cy="2094.93" r="4" stroke="rgb(0,208,255)" stroke-width="2" fill="none"></circle>
<circle cx="2481.17" cy="2112.56" r="4" stroke="rgb(51,255,0)" stroke-width="2" fill="none"></circle>
<circle cx="5651.7" cy="1586.97" r="4" stroke="rgb(51,255,0)" stroke-width="2" fill="none"></circle>
<circle cx="1019.37" cy="2117.41" r="4" stroke="rgb(255,0,195)" stroke-width="2" fill="none"></circle>
<circle cx="5302.86" cy="686.482" r="4" stroke="rgb(255,0,195)" stroke-width="2" fill="none"></circle>
<circle cx="2038.24" cy="2147.78" r="4" stroke="rgb(0,255,169)" stroke-width="2" fill="none"></circle>
<circle cx="5935.41" cy="664.049" r="4" stroke="rgb(0,255,169)" stroke-width="2" fill="none"></circle>
<circle cx="2004.96" cy="2155.02" r="4" stroke="rgb(0,255,33)" stroke-width="2" fill="none"></circle>
<circle cx="6516.52" cy="1884.05" r="4" stroke="rgb(0,255,33)" stroke-width="2" fill="none"></circle>
<circle cx="1995.03" cy="2156.55" r="4" stroke="rgb(0,178,255)" stroke-width="2" fill="none"></circle>
<circle cx="6516.79" cy="1858.1" r="4" stroke="rgb(0,178,255)" stroke-width="2" fill="none"></circle>
<circle cx="2274.49" cy="2164.18" r="4" stroke="rgb(0,255,246)" stroke-width="2" fill="none"></circle>
<circle cx="5837.3" cy="1779.16" r="4" stroke="rgb(0,255,246)" stroke-width="2" fill="none"></circle>
<circle cx="2050.31" cy="2180.86" r="4" stroke="rgb(191,0,255)" stroke-width="2" fill="none"></circle>
<circle cx="5830.88" cy="909.96" r="4" stroke="rgb(191,0,255)" stroke-width="2" fill="none"></circle>
<circle cx="1287.43" cy="2182.45" r="4" stroke="rgb(0,255,59)" stroke-width="2" fill="none"></circle>
<circle cx="5710.96" cy="657.601" r="4" stroke="rgb(0,255,59)" stroke-width="2" fill="none"></circle>
<circle cx="2007.29" cy="2185.94" r="4" stroke="rgb(255,0,136)" stroke-width="2" fill="none"></circle>
<circle cx="6516.52" cy="1884.05" r="4" stroke="rgb(255,0,136)" stroke-width="2" fill="none"></circle>
<circle cx="2253.97" cy="2194.61" r="4" stroke="rgb(153,0,255)" stroke-width="2" fill="none"></circle>
<circle cx="5422.69" cy="663.35" r="4" stroke="rgb(153,0,255)" stroke-width="2" fill="none"></circle>
<circle cx="2431.38" cy="2202.39" r="4" stroke="rgb(255,242,0)" stroke-width="2" fill="none"></circle>
<circle cx="5613.05" cy="1648.53" r="4" stroke="rgb(255,242,0)" stroke-width="2" fill="none"></circle>
<circle cx="2062.41" cy="2224.34" r="4" stroke="rgb(157,0,255)" stroke-width="2" fill="none"></circle>
<circle cx="5557.7" cy="1364.7" r="4" stroke="rgb(157,0,255)" stroke-width="2" fill="none"></circle>
<circle cx="1657.19" cy="2229.71" r="4" stroke="rgb(0,12,255)" stroke-width="2" fill="none"></circle>
<circle cx="5437.76" cy="1084.88" r="4" stroke="rgb(0,12,255)" stroke-width="2" fill="none"></circle>
<circle cx="2154.11" cy="2231.47" r="4" stroke="rgb(229,255,0)" stroke-width="2" fill="none"></circle>
<circle cx="5270" cy="1774.77" r="4" stroke="rgb(229,255,0)" stroke-width="2" fill="none"></circle>
<circle cx="2027.59" cy="2236.22" r="4" stroke="rgb(255,0,4)" stroke-width="2" fill="none"></circle>
<circle cx="5539.87" cy="368.206" r="4" stroke="rgb(255,0,4)" stroke-width="2" fill="none"></circle>
<circle cx="2126.94" cy="2236.55" r="4" stroke="rgb(255,0,157)" stroke-width="2" fill="none"></circle>
<circle cx="5731.38" cy="739.412" r="4" stroke="rgb(255,0,157)" stroke-width="2" fill="none"></circle>
<circle cx="2012.08" cy="2236.99" r="4" stroke="rgb(178,255,0)" stroke-width="2" fill="none"></circle>
<circle cx="5995.66" cy="1023.73" r="4" stroke="rgb(178,255,0)" stroke-width="2" fill="none"></circle>
<circle cx="2061.98" cy="2252.91" r="4" stroke="rgb(8,255,0)" stroke-width="2" fill="none"></circle>
<circle cx="6094.1" cy="1023.98" r="4" stroke="rgb(8,255,0)" stroke-width="2" fill="none"></circle>
<circle cx="1622.13" cy="2285.59" r="4" stroke="rgb(0,255,67)" stroke-width="2" fill="none"></circle>
<circle cx="6559.52" cy="668.255" r="4" stroke="rgb(0,255,67)" stroke-width="2" fill="none"></circle>
<circle cx="2300.57" cy="2292.2" r="4" stroke="rgb(255,68,0)" stroke-width="2" fill="none"></circle>
<circle cx="6387.32" cy="652.08" r="4" stroke="rgb(255,68,0)" stroke-width="2" fill="none"></circle>
<circle cx="1644.02" cy="2321.87" r="4" stroke="rgb(255,119,0)" stroke-width="2" fill="none"></circle>
<circle cx="5381.46" cy="698.413" r="4" stroke="rgb(255,119,0)" stroke-width="2" fill="none"></circle>
<circle cx="1666.74" cy="2331.85" r="4" stroke="rgb(131,255,0)" stroke-width="2" fill="none"></circle>
<circle cx="5336.38" cy="699.066" r="4" stroke="rgb(131,255,0)" stroke-width="2" fill="none"></circle>
<circle cx="1502.45" cy="2355.61" r="4" stroke="rgb(0,255,67)" stroke-width="2" fill="none"></circle>
<circle cx="5450.29" cy="427.323" r="4" stroke="rgb(0,255,67)" stroke-width="2" fill="none"></circle>
<circle cx="812.932" cy="2398.31" r="4" stroke="rgb(255,0,195)" stroke-width="2" fill="none"></circle>
<circle cx="5677.15" cy="431.333" r="4" stroke="rgb(255,0,195)" stroke-width="2" fill="none"></circle>
<circle cx="798.254" cy="2415.64" r="4" stroke="rgb(255,0,38)" stroke-width="2" fill="none"></circle>
<circle cx="5297.12" cy="414.502" r="4" stroke="rgb(255,0,38)" stroke-width="2" fill="none"></circle>
<circle cx="1503.57" cy="2418.52" r="4" stroke="rgb(157,0,255)" stroke-width="2" fill="none"></circle>
<circle cx="5357.48" cy="1777.74" r="4" stroke="rgb(157,0,255)" stroke-width="2" fill="none"></circle>
<circle cx="1627.92" cy="2478.86" r="4" stroke="rgb(84,255,0)" stroke-width="2" fill="none"></circle>
<circle cx="6659.18" cy="828.663" r="4" stroke="rgb(84,255,0)" stroke-width="2" fill="none"></circle>
<circle cx="1328.24" cy="2496.81" r="4" stroke="rgb(255,46,0)" stroke-width="2" fill="none"></circle>
<circle cx="6586.64" cy="1543.48" r="4" stroke="rgb(255,46,0)" stroke-width="2" fill="none"></circle>
<circle cx="1528.69" cy="2659.78" r="4" stroke="rgb(0,255,148)" stroke-width="2" fill="none"></circle>
<circle cx="5657.29" cy="383.947" r="4" stroke="rgb(0,255,148)" stroke-width="2" fill="none"></circle>
</svg>