<?xml version="1.0" standalone="yes"?>
<!-- SVG graphic -->
<svg xmlns='http://www.w3.org/2000/svg' xmlns:xlink='http://www.w3.org/1999/xlink'
width="8064px" height="3024px" preserveAspectRatio="xMinYMin meet" viewBox="0 0 8064 3024" version="1.1">
<image x="0" y="0" width="4032px" height="3024px" opacity="1" xlink:href="/home/jeong/Code/2D-to-3D-Modeling-using-AI/Make3D/Image/20200227_180721.jpg"/>
<image x="4032" y="0" width="4032px" height="3024px" opacity="1" xlink:href="/home/jeong/Code/2D-to-3D-Modeling-using-AI/Make3D/Image/20200227_180752.jpg"/>
<polyline points="1136.21,1181.44,5942.85,2742.42" stroke="rgb(148,0,255)" stroke-width="2" fill="none"></polyline>
<polyline points="1925.98,515.948,4981.59,1863.43" stroke="rgb(255,0,76)" stroke-width="2" fill="none"></polyline>
<polyline points="1653.25,1348.37,4844.66,177.094" stroke="rgb(191,255,0)" stroke-width="2" fill="none"></polyline>
<polyline points="1636.35,475.007,5824.2,201.744" stroke="rgb(0,250,255)" stroke-width="2" fill="none"></polyline>
<polyline points="1438.6,616.803,5162.7,873.263" stroke="rgb(63,255,0)" stroke-width="2" fill="none"></polyline>
<polyline points="2262.7,976.028,5278.26,1885.82" stroke="rgb(0,255,195)" stroke-width="2" fill="none"></polyline>
<polyline points="2262.7,976.028,5278.26,1885.82" stroke="rgb(255,208,0)" stroke-width="2" fill="none"></polyline>
<polyline points="2681.24,989.477,5554.43,291.937" stroke="rgb(0,255,208)" stroke-width="2" fill="none"></polyline>
<polyline points="1518.06,605.646,5154.6,837.508" stroke="rgb(191,0,255)" stroke-width="2" fill="none"></polyline>
<polyline points="1856.99,651.295,5037.02,847.089" stroke="rgb(0,255,127)" stroke-width="2" fill="none"></polyline>
<polyline points="1783.25,861.488,5839.84,773.893" stroke="rgb(0,255,106)" stroke-width="2" fill="none"></polyline>
<polyline points="2818.53,1321.04,5939.01,1370.97" stroke="rgb(255,140,0)" stroke-width="2" fill="none"></polyline>
<polyline points="2042.21,970.047,5631,364.249" stroke="rgb(255,0,114)" stroke-width="2" fill="none"></polyline>
<polyline points="1889.6,677.966,5142.44,878.743" stroke="rgb(212,255,0)" stroke-width="2" fill="none"></polyline>
<polyline points="2040.33,586.118,4826.21,789.158" stroke="rgb(255,225,0)" stroke-width="2" fill="none"></polyline>
<polyline points="1944.17,1174.28,5327.41,376.99" stroke="rgb(255,0,229)" stroke-width="2" fill="none"></polyline>
<polyline points="1473.4,671.759,5054.14,892.585" stroke="rgb(186,0,255)" stroke-width="2" fill="none"></polyline>
<polyline points="2330.6,630.835,5159.96,1397.88" stroke="rgb(255,21,0)" stroke-width="2" fill="none"></polyline>
<polyline points="2009.68,673.961,5157.13,809.461" stroke="rgb(0,106,255)" stroke-width="2" fill="none"></polyline>
<polyline points="1811.09,716.849,5132.22,1001.97" stroke="rgb(0,255,63)" stroke-width="2" fill="none"></polyline>
<polyline points="1735.43,794.325,5930.02,813.442" stroke="rgb(0,255,148)" stroke-width="2" fill="none"></polyline>
<polyline points="1735.43,794.325,5859.91,815.679" stroke="rgb(255,0,76)" stroke-width="2" fill="none"></polyline>
<polyline points="1783.25,861.488,5675.58,817.541" stroke="rgb(29,255,0)" stroke-width="2" fill="none"></polyline>
<polyline points="1962.79,684.747,5148.28,1035.13" stroke="rgb(255,0,242)" stroke-width="2" fill="none"></polyline>
<polyline points="1978.45,675.452,5176.07,964.536" stroke="rgb(216,0,255)" stroke-width="2" fill="none"></polyline>
<polyline points="2891.58,1477.96,6314.54,420.308" stroke="rgb(242,0,255)" stroke-width="2" fill="none"></polyline>
<polyline points="1962.79,684.747,5141.8,1059.88" stroke="rgb(17,0,255)" stroke-width="2" fill="none"></polyline>
<polyline points="1962.79,684.747,5141.8,1059.88" stroke="rgb(0,255,148)" stroke-width="2" fill="none"></polyline>
<polyline points="2000.29,966.005,5503.14,457.687" stroke="rgb(0,101,255)" stroke-width="2" fill="none"></polyline>
<polyline points="1209.26,748.405,6688.2,471.123" stroke="rgb(16,255,0)" stroke-width="2" fill="none"></polyline>
<polyline points="1860.89,1467.76,6837.96,493.779" stroke="rgb(0,246,255)" stroke-width="2" fill="none"></polyline>
<polyline points="2630.34,1219.15,5503.09,884.716" stroke="rgb(255,12,0)" stroke-width="2" fill="none"></polyline>
<polyline points="1446.49,560.264,5071.84,1131.55" stroke="rgb(93,255,0)" stroke-width="2" fill="none"></polyline>
<polyline points="1141.24,1113.86,6606.83,470.747" stroke="rgb(0,255,38)" stroke-width="2" fill="none"></polyline>
<polyline points="2108.96,735.026,5092.98,1152.44" stroke="rgb(0,237,255)" stroke-width="2" fill="none"></polyline>
<polyline points="2065.05,633.956,5548.01,2442.09" stroke="rgb(0,157,255)" stroke-width="2" fill="none"></polyline>
<polyline points="1453.31,884.91,5579.57,484.107" stroke="rgb(238,0,255)" stroke-width="2" fill="none"></polyline>
<polyline points="2330.6,630.835,5750.29,588.135" stroke="rgb(63,255,0)" stroke-width="2" fill="none"></polyline>
<polyline points="2033.08,536.801,5334.86,589.208" stroke="rgb(21,0,255)" stroke-width="2" fill="none"></polyline>
<polyline points="1809.87,645.076,5032.85,601.35" stroke="rgb(114,255,0)" stroke-width="2" fill="none"></polyline>
<polyline points="2065.05,633.956,5574.85,2461.92" stroke="rgb(63,0,255)" stroke-width="2" fill="none"></polyline>
<polyline points="1943.72,601.851,5055.46,644.201" stroke="rgb(255,127,0)" stroke-width="2" fill="none"></polyline>
<polyline points="2740.33,694.326,6689.77,1345.12" stroke="rgb(0,255,25)" stroke-width="2" fill="none"></polyline>
<polyline points="2021.55,730.229,6318.19,1685.04" stroke="rgb(0,46,255)" stroke-width="2" fill="none"></polyline>
<polyline points="1809.87,645.076,5044.21,589.697" stroke="rgb(84,255,0)" stroke-width="2" fill="none"></polyline>
<polyline points="1525.27,1267.45,5448.42,681.443" stroke="rgb(0,255,250)" stroke-width="2" fill="none"></polyline>
<polyline points="1121.75,1085.73,5098.78,1147.55" stroke="rgb(255,199,0)" stroke-width="2" fill="none"></polyline>
<polyline points="1643.83,696.027,5153.75,1164.77" stroke="rgb(72,0,255)" stroke-width="2" fill="none"></polyline>
<polyline points="3005.93,778.144,5684.79,1166.52" stroke="rgb(255,242,0)" stroke-width="2" fill="none"></polyline>
<polyline points="1865.84,1311.77,5979.77,1725.6" stroke="rgb(93,0,255)" stroke-width="2" fill="none"></polyline>
<polyline points="1596.07,1265.09,5474.07,379.834" stroke="rgb(102,0,255)" stroke-width="2" fill="none"></polyline>
<polyline points="1956.36,664.708,5218,1555.82" stroke="rgb(0,119,255)" stroke-width="2" fill="none"></polyline>
<polyline points="2260.55,1391.86,6505.11,727.797" stroke="rgb(17,0,255)" stroke-width="2" fill="none"></polyline>
<polyline points="1783.25,861.488,5929.24,778.341" stroke="rgb(38,0,255)" stroke-width="2" fill="none"></polyline>
<polyline points="1783.25,861.488,5624.07,792.995" stroke="rgb(255,114,0)" stroke-width="2" fill="none"></polyline>
<polyline points="1783.25,861.488,5636.21,802.176" stroke="rgb(0,255,233)" stroke-width="2" fill="none"></polyline>
<polyline points="1414.35,495.93,5982.88,1666.56" stroke="rgb(255,246,0)" stroke-width="2" fill="none"></polyline>
<polyline points="1041.97,725.332,5215.73,1819.74" stroke="rgb(131,0,255)" stroke-width="2" fill="none"></polyline>
<polyline points="1824.36,669.065,5013.23,829.166" stroke="rgb(0,157,255)" stroke-width="2" fill="none"></polyline>
<polyline points="1486.47,619.175,5110.11,832.676" stroke="rgb(144,0,255)" stroke-width="2" fill="none"></polyline>
<polyline points="1696.03,679.989,5252.5,1852.92" stroke="rgb(255,114,0)" stroke-width="2" fill="none"></polyline>
<polyline points="1414.35,495.93,5982.41,1666.43" stroke="rgb(72,0,255)" stroke-width="2" fill="none"></polyline>
<polyline points="844.971,855.448,6298.89,1781.79" stroke="rgb(157,0,255)" stroke-width="2" fill="none"></polyline>
<polyline points="2289.65,505.405,5790.21,1927.24" stroke="rgb(255,0,12)" stroke-width="2" fill="none"></polyline>
<polyline points="2248.06,598.983,5643.99,1947.04" stroke="rgb(255,114,0)" stroke-width="2" fill="none"></polyline>
<polyline points="1962.79,684.747,5054.54,680.891" stroke="rgb(255,0,114)" stroke-width="2" fill="none"></polyline>
<polyline points="1962.79,684.747,5054.54,680.891" stroke="rgb(199,255,0)" stroke-width="2" fill="none"></polyline>
<polyline points="2295.46,1017.05,5880.85,2147.58" stroke="rgb(0,191,255)" stroke-width="2" fill="none"></polyline>
<polyline points="811.814,901.51,5121.56,1846.79" stroke="rgb(174,255,0)" stroke-width="2" fill="none"></polyline>
<polyline points="1330.96,653.776,5260.12,1855.4" stroke="rgb(255,0,178)" stroke-width="2" fill="none"></polyline>
<polyline points="1665.94,548.928,5548.22,2433.23" stroke="rgb(203,0,255)" stroke-width="2" fill="none"></polyline>
<polyline points="2490.06,636.286,5642.63,2603.98" stroke="rgb(0,144,255)" stroke-width="2" fill="none"></polyline>
<polyline points="2450.39,641.018,5673.83,2623" stroke="rgb(0,85,255)" stroke-width="2" fill="none"></polyline>
<polyline points="2584.73,847.811,5329.98,2695.42" stroke="rgb(255,229,0)" stroke-width="2" fill="none"></polyline>
<polyline points="2330.6,630.835,5646.75,2100" stroke="rgb(191,255,0)" stroke-width="2" fill="none"></polyline>
<polyline points="1509.06,609.537,5140,839.534" stroke="rgb(0,203,255)" stroke-width="2" fill="none"></polyline>
<polyline points="1446.49,560.264,5080.2,722.16" stroke="rgb(0,29,255)" stroke-width="2" fill="none"></polyline>
<polyline points="1446.49,560.264,5080.2,722.16" stroke="rgb(255,0,21)" stroke-width="2" fill="none"></polyline>
<polyline points="1390.95,603.067,4965.32,755.248" stroke="rgb(131,255,0)" stroke-width="2" fill="none"></polyline>
<polyline points="1394.23,611.287,4963.43,773.143" stroke="rgb(0,255,178)" stroke-width="2" fill="none"></polyline>
<polyline points="1427.67,603.56,5023,775.935" stroke="rgb(72,0,255)" stroke-width="2" fill="none"></polyline>
<polyline points="1438.6,616.803,5034.11,797.054" stroke="rgb(0,63,255)" stroke-width="2" fill="none"></polyline>
<polyline points="2038.95,506.316,5905.76,1067.95" stroke="rgb(255,59,0)" stroke-width="2" fill="none"></polyline>
<polyline points="1795.55,628.432,5152.92,819.368" stroke="rgb(0,255,93)" stroke-width="2" fill="none"></polyline>
<polyline points="1501.54,614.287,5129.11,835.863" stroke="rgb(25,255,0)" stroke-width="2" fill="none"></polyline>
<polyline points="1731.05,1334.72,6682.91,425.857" stroke="rgb(255,174,0)" stroke-width="2" fill="none"></polyline>
<polyline points="2508.1,1500.94,6287.75,1691.54" stroke="rgb(0,216,255)" stroke-width="2" fill="none"></polyline>
<polyline points="1889.02,550.227,5282.82,1197.96" stroke="rgb(0,255,225)" stroke-width="2" fill="none"></polyline>
<polyline points="1361.63,1147.24,4861.63,1071.7" stroke="rgb(0,237,255)" stroke-width="2" fill="none"></polyline>
<polyline points="1953.35,1022.64,5038.45,1244.24" stroke="rgb(255,136,0)" stroke-width="2" fill="none"></polyline>
<polyline points="2489.92,736.943,5359.14,2556.33" stroke="rgb(255,0,174)" stroke-width="2" fill="none"></polyline>
<polyline points="1445.62,618.964,5174.1,878.52" stroke="rgb(157,255,0)" stroke-width="2" fill="none"></polyline>
<polyline points="1445.62,618.964,5174.1,878.52" stroke="rgb(212,0,255)" stroke-width="2" fill="none"></polyline>
<polyline points="2164.22,495.92,5658.41,1773.24" stroke="rgb(0,12,255)" stroke-width="2" fill="none"></polyline>
<polyline points="1521.18,1186.64,5275.97,268.447" stroke="rgb(255,0,199)" stroke-width="2" fill="none"></polyline>
<polyline points="2225.81,540.997,5680.5,1878.15" stroke="rgb(0,216,255)" stroke-width="2" fill="none"></polyline>
<polyline points="2225.81,540.997,5680.5,1878.15" stroke="rgb(0,127,255)" stroke-width="2" fill="none"></polyline>
<polyline points="2309.69,495.999,5826.38,1940.66" stroke="rgb(255,110,0)" stroke-width="2" fill="none"></polyline>
<polyline points="2337.82,505.25,5844.4,1979.52" stroke="rgb(255,102,0)" stroke-width="2" fill="none"></polyline>
<polyline points="1737.37,1383.79,5093.96,1717.4" stroke="rgb(0,255,174)" stroke-width="2" fill="none"></polyline>
<polyline points="1439.78,551.575,5078.47,699.99" stroke="rgb(0,101,255)" stroke-width="2" fill="none"></polyline>
<polyline points="1814.46,1284.65,5613.77,451.654" stroke="rgb(0,237,255)" stroke-width="2" fill="none"></polyline>
<polyline points="1441.89,570.093,5068.45,733.118" stroke="rgb(255,34,0)" stroke-width="2" fill="none"></polyline>
<polyline points="1105.49,1096.82,6876.21,1224.56" stroke="rgb(255,0,221)" stroke-width="2" fill="none"></polyline>
<polyline points="1441.89,570.093,5068.45,733.118" stroke="rgb(0,8,255)" stroke-width="2" fill="none"></polyline>
<polyline points="1179.54,1174.96,5070.56,1316.35" stroke="rgb(255,0,191)" stroke-width="2" fill="none"></polyline>
<polyline points="1499.91,605.437,5134.5,823.962" stroke="rgb(0,255,84)" stroke-width="2" fill="none"></polyline>
<polyline points="2303.54,612.028,5674.86,2029" stroke="rgb(255,0,72)" stroke-width="2" fill="none"></polyline>
<polyline points="1779.48,1473.44,4984.39,2065.19" stroke="rgb(255,0,212)" stroke-width="2" fill="none"></polyline>
<polyline points="2201.37,523.565,5671.33,1839.06" stroke="rgb(76,255,0)" stroke-width="2" fill="none"></polyline>
<polyline points="1402.37,616.995,4973.36,783.986" stroke="rgb(255,76,0)" stroke-width="2" fill="none"></polyline>
<polyline points="1434.84,625.209,5023.69,806.467" stroke="rgb(0,135,255)" stroke-width="2" fill="none"></polyline>
<polyline points="2215.08,1381.97,5917.38,345.573" stroke="rgb(0,174,255)" stroke-width="2" fill="none"></polyline>
<polyline points="1411.69,605.804,4998.21,771.502" stroke="rgb(255,136,0)" stroke-width="2" fill="none"></polyline>
<polyline points="1984.29,1304.89,6412.76,2429.53" stroke="rgb(255,0,42)" stroke-width="2" fill="none"></polyline>
<polyline points="2433.46,837.196,5151.93,2599.15" stroke="rgb(255,0,195)" stroke-width="2" fill="none"></polyline>
<polyline points="3180.69,1252.35,5062.54,305.488" stroke="rgb(255,0,229)" stroke-width="2" fill="none"></polyline>
<polyline points="2051.6,538.759,5402.2,1242.34" stroke="rgb(255,216,0)" stroke-width="2" fill="none"></polyline>
<polyline points="2697.66,750.09,5462.42,451.588" stroke="rgb(255,0,4)" stroke-width="2" fill="none"></polyline>
<polyline points="1833.03,1298.9,5551.03,1171.36" stroke="rgb(0,255,42)" stroke-width="2" fill="none"></polyline>
<polyline points="2949.33,954.966,5837.19,2447.85" stroke="rgb(153,255,0)" stroke-width="2" fill="none"></polyline>
<circle cx="1136.21" cy="1181.44" r="4" stroke="rgb(148,0,255)" stroke-width="2" fill="none"></circle>
<circle cx="5942.85" cy="2742.42" r="4" stroke="rgb(148,0,255)" stroke-width="2" fill="none"></circle>
<circle cx="1925.98" cy="515.948" r="4" stroke="rgb(255,0,76)" stroke-width="2" fill="none"></circle>
<circle cx="4981.59" cy="1863.43" r="4" stroke="rgb(255,0,76)" stroke-width="2" fill="none"></circle>
<circle cx="1653.25" cy="1348.37" r="4" stroke="rgb(191,255,0)" stroke-width="2" fill="none"></circle>
<circle cx="4844.66" cy="177.094" r="4" stroke="rgb(191,255,0)" stroke-width="2" fill="none"></circle>
<circle cx="1636.35" cy="475.007" r="4" stroke="rgb(0,250,255)" stroke-width="2" fill="none"></circle>
<circle cx="5824.2" cy="201.744" r="4" stroke="rgb(0,250,255)" stroke-width="2" fill="none"></circle>
<circle cx="1438.6" cy="616.803" r="4" stroke="rgb(63,255,0)" stroke-width="2" fill="none"></circle>
<circle cx="5162.7" cy="873.263" r="4" stroke="rgb(63,255,0)" stroke-width="2" fill="none"></circle>
<circle cx="2262.7" cy="976.028" r="4" stroke="rgb(0,255,195)" stroke-width="2" fill="none"></circle>
<circle cx="5278.26" cy="1885.82" r="4" stroke="rgb(0,255,195)" stroke-width="2" fill="none"></circle>
<circle cx="2262.7" cy="976.028" r="4" stroke="rgb(255,208,0)" stroke-width="2" fill="none"></circle>
<circle cx="5278.26" cy="1885.82" r="4" stroke="rgb(255,208,0)" stroke-width="2" fill="none"></circle>
<circle cx="2681.24" cy="989.477" r="4" stroke="rgb(0,255,208)" stroke-width="2" fill="none"></circle>
<circle cx="5554.43" cy="291.937" r="4" stroke="rgb(0,255,208)" stroke-width="2" fill="none"></circle>
<circle cx="1518.06" cy="605.646" r="4" stroke="rgb(191,0,255)" stroke-width="2" fill="none"></circle>
<circle cx="5154.6" cy="837.508" r="4" stroke="rgb(191,0,255)" stroke-width="2" fill="none"></circle>
<circle cx="1856.99" cy="651.295" r="4" stroke="rgb(0,255,127)" stroke-width="2" fill="none"></circle>
<circle cx="5037.02" cy="847.089" r="4" stroke="rgb(0,255,127)" stroke-width="2" fill="none"></circle>
<circle cx="1783.25" cy="861.488" r="4" stroke="rgb(0,255,106)" stroke-width="2" fill="none"></circle>
<circle cx="5839.84" cy="773.893" r="4" stroke="rgb(0,255,106)" stroke-width="2" fill="none"></circle>
<circle cx="2818.53" cy="1321.04" r="4" stroke="rgb(255,140,0)" stroke-width="2" fill="none"></circle>
<circle cx="5939.01" cy="1370.97" r="4" stroke="rgb(255,140,0)" stroke-width="2" fill="none"></circle>
<circle cx="2042.21" cy="970.047" r="4" stroke="rgb(255,0,114)" stroke-width="2" fill="none"></circle>
<circle cx="5631" cy="364.249" r="4" stroke="rgb(255,0,114)" stroke-width="2" fill="none"></circle>
<circle cx="1889.6" cy="677.966" r="4" stroke="rgb(212,255,0)" stroke-width="2" fill="none"></circle>
<circle cx="5142.44" cy="878.743" r="4" stroke="rgb(212,255,0)" stroke-width="2" fill="none"></circle>
<circle cx="2040.33" cy="586.118" r="4" stroke="rgb(255,225,0)" stroke-width="2" fill="none"></circle>
<circle cx="4826.21" cy="789.158" r="4" stroke="rgb(255,225,0)" stroke-width="2" fill="none"></circle>
<circle cx="1944.17" cy="1174.28" r="4" stroke="rgb(255,0,229)" stroke-width="2" fill="none"></circle>
<circle cx="5327.41" cy="376.99" r="4" stroke="rgb(255,0,229)" stroke-width="2" fill="none"></circle>
<circle cx="1473.4" cy="671.759" r="4" stroke="rgb(186,0,255)" stroke-width="2" fill="none"></circle>
<circle cx="5054.14" cy="892.585" r="4" stroke="rgb(186,0,255)" stroke-width="2" fill="none"></circle>
<circle cx="2330.6" cy="630.835" r="4" stroke="rgb(255,21,0)" stroke-width="2" fill="none"></circle>
<circle cx="5159.96" cy="1397.88" r="4" stroke="rgb(255,21,0)" stroke-width="2" fill="none"></circle>
<circle cx="2009.68" cy="673.961" r="4" stroke="rgb(0,106,255)" stroke-width="2" fill="none"></circle>
<circle cx="5157.13" cy="809.461" r="4" stroke="rgb(0,106,255)" stroke-width="2" fill="none"></circle>
<circle cx="1811.09" cy="716.849" r="4" stroke="rgb(0,255,63)" stroke-width="2" fill="none"></circle>
<circle cx="5132.22" cy="1001.97" r="4" stroke="rgb(0,255,63)" stroke-width="2" fill="none"></circle>
<circle cx="1735.43" cy="794.325" r="4" stroke="rgb(0,255,148)" stroke-width="2" fill="none"></circle>
<circle cx="5930.02" cy="813.442" r="4" stroke="rgb(0,255,148)" stroke-width="2" fill="none"></circle>
<circle cx="1735.43" cy="794.325" r="4" stroke="rgb(255,0,76)" stroke-width="2" fill="none"></circle>
<circle cx="5859.91" cy="815.679" r="4" stroke="rgb(255,0,76)" stroke-width="2" fill="none"></circle>
<circle cx="1783.25" cy="861.488" r="4" stroke="rgb(29,255,0)" stroke-width="2" fill="none"></circle>
<circle cx="5675.58" cy="817.541" r="4" stroke="rgb(29,255,0)" stroke-width="2" fill="none"></circle>
<circle cx="1962.79" cy="684.747" r="4" stroke="rgb(255,0,242)" stroke-width="2" fill="none"></circle>
<circle cx="5148.28" cy="1035.13" r="4" stroke="rgb(255,0,242)" stroke-width="2" fill="none"></circle>
<circle cx="1978.45" cy="675.452" r="4" stroke="rgb(216,0,255)" stroke-width="2" fill="none"></circle>
<circle cx="5176.07" cy="964.536" r="4" stroke="rgb(216,0,255)" stroke-width="2" fill="none"></circle>
<circle cx="2891.58" cy="1477.96" r="4" stroke="rgb(242,0,255)" stroke-width="2" fill="none"></circle>
<circle cx="6314.54" cy="420.308" r="4" stroke="rgb(242,0,255)" stroke-width="2" fill="none"></circle>
<circle cx="1962.79" cy="684.747" r="4" stroke="rgb(17,0,255)" stroke-width="2" fill="none"></circle>
<circle cx="5141.8" cy="1059.88" r="4" stroke="rgb(17,0,255)" stroke-width="2" fill="none"></circle>
<circle cx="1962.79" cy="684.747" r="4" stroke="rgb(0,255,148)" stroke-width="2" fill="none"></circle>
<circle cx="5141.8" cy="1059.88" r="4" stroke="rgb(0,255,148)" stroke-width="2" fill="none"></circle>
<circle cx="2000.29" cy="966.005" r="4" stroke="rgb(0,101,255)" stroke-width="2" fill="none"></circle>
<circle cx="5503.14" cy="457.687" r="4" stroke="rgb(0,101,255)" stroke-width="2" fill="none"></circle>
<circle cx="1209.26" cy="748.405" r="4" stroke="rgb(16,255,0)" stroke-width="2" fill="none"></circle>
<circle cx="6688.2" cy="471.123" r="4" stroke="rgb(16,255,0)" stroke-width="2" fill="none"></circle>
<circle cx="1860.89" cy="1467.76" r="4" stroke="rgb(0,246,255)" stroke-width="2" fill="none"></circle>
<circle cx="6837.96" cy="493.779" r="4" stroke="rgb(0,246,255)" stroke-width="2" fill="none"></circle>
<circle cx="2630.34" cy="1219.15" r="4" stroke="rgb(255,12,0)" stroke-width="2" fill="none"></circle>
<circle cx="5503.09" cy="884.716" r="4" stroke="rgb(255,12,0)" stroke-width="2" fill="none"></circle>
<circle cx="1446.49" cy="560.264" r="4" stroke="rgb(93,255,0)" stroke-width="2" fill="none"></circle>
<circle cx="5071.84" cy="1131.55" r="4" stroke="rgb(93,255,0)" stroke-width="2" fill="none"></circle>
<circle cx="1141.24" cy="1113.86" r="4" stroke="rgb(0,255,38)" stroke-width="2" fill="none"></circle>
<circle cx="6606.83" cy="470.747" r="4" stroke="rgb(0,255,38)" stroke-width="2" fill="none"></circle>
<circle cx="2108.96" cy="735.026" r="4" stroke="rgb(0,237,255)" stroke-width="2" fill="none"></circle>
<circle cx="5092.98" cy="1152.44" r="4" stroke="rgb(0,237,255)" stroke-width="2" fill="none"></circle>
<circle cx="2065.05" cy="633.956" r="4" stroke="rgb(0,157,255)" stroke-width="2" fill="none"></circle>
<circle cx="5548.01" cy="2442.09" r="4" stroke="rgb(0,157,255)" stroke-width="2" fill="none"></circle>
<circle cx="1453.31" cy="884.91" r="4" stroke="rgb(238,0,255)" stroke-width="2" fill="none"></circle>
<circle cx="5579.57" cy="484.107" r="4" stroke="rgb(238,0,255)" stroke-width="2" fill="none"></circle>
<circle cx="2330.6" cy="630.835" r="4" stroke="rgb(63,255,0)" stroke-width="2" fill="none"></circle>
<circle cx="5750.29" cy="588.135" r="4" stroke="rgb(63,255,0)" stroke-width="2" fill="none"></circle>
<circle cx="2033.08" cy="536.801" r="4" stroke="rgb(21,0,255)" stroke-width="2" fill="none"></circle>
<circle cx="5334.86" cy="589.208" r="4" stroke="rgb(21,0,255)" stroke-width="2" fill="none"></circle>
<circle cx="1809.87" cy="645.076" r="4" stroke="rgb(114,255,0)" stroke-width="2" fill="none"></circle>
<circle cx="5032.85" cy="601.35" r="4" stroke="rgb(114,255,0)" stroke-width="2" fill="none"></circle>
<circle cx="2065.05" cy="633.956" r="4" stroke="rgb(63,0,255)" stroke-width="2" fill="none"></circle>
<circle cx="5574.85" cy="2461.92" r="4" stroke="rgb(63,0,255)" stroke-width="2" fill="none"></circle>
<circle cx="1943.72" cy="601.851" r="4" stroke="rgb(255,127,0)" stroke-width="2" fill="none"></circle>
<circle cx="5055.46" cy="644.201" r="4" stroke="rgb(255,127,0)" stroke-width="2" fill="none"></circle>
<circle cx="2740.33" cy="694.326" r="4" stroke="rgb(0,255,25)" stroke-width="2" fill="none"></circle>
<circle cx="6689.77" cy="1345.12" r="4" stroke="rgb(0,255,25)" stroke-width="2" fill="none"></circle>
<circle cx="2021.55" cy="730.229" r="4" stroke="rgb(0,46,255)" stroke-width="2" fill="none"></circle>
<circle cx="6318.19" cy="1685.04" r="4" stroke="rgb(0,46,255)" stroke-width="2" fill="none"></circle>
<circle cx="1809.87" cy="645.076" r="4" stroke="rgb(84,255,0)" stroke-width="2" fill="none"></circle>
<circle cx="5044.21" cy="589.697" r="4" stroke="rgb(84,255,0)" stroke-width="2" fill="none"></circle>
<circle cx="1525.27" cy="1267.45" r="4" stroke="rgb(0,255,250)" stroke-width="2" fill="none"></circle>
<circle cx="5448.42" cy="681.443" r="4" stroke="rgb(0,255,250)" stroke-width="2" fill="none"></circle>
<circle cx="1121.75" cy="1085.73" r="4" stroke="rgb(255,199,0)" stroke-width="2" fill="none"></circle>
<circle cx="5098.78" cy="1147.55" r="4" stroke="rgb(255,199,0)" stroke-width="2" fill="none"></circle>
<circle cx="1643.83" cy="696.027" r="4" stroke="rgb(72,0,255)" stroke-width="2" fill="none"></circle>
<circle cx="5153.75" cy="1164.77" r="4" stroke="rgb(72,0,255)" stroke-width="2" fill="none"></circle>
<circle cx="3005.93" cy="778.144" r="4" stroke="rgb(255,242,0)" stroke-width="2" fill="none"></circle>
<circle cx="5684.79" cy="1166.52" r="4" stroke="rgb(255,242,0)" stroke-width="2" fill="none"></circle>
<circle cx="1865.84" cy="1311.77" r="4" stroke="rgb(93,0,255)" stroke-width="2" fill="none"></circle>
<circle cx="5979.77" cy="1725.6" r="4" stroke="rgb(93,0,255)" stroke-width="2" fill="none"></circle>
<circle cx="1596.07" cy="1265.09" r="4" stroke="rgb(102,0,255)" stroke-width="2" fill="none"></circle>
<circle cx="5474.07" cy="379.834" r="4" stroke="rgb(102,0,255)" stroke-width="2" fill="none"></circle>
<circle cx="1956.36" cy="664.708" r="4" stroke="rgb(0,119,255)" stroke-width="2" fill="none"></circle>
<circle cx="5218" cy="1555.82" r="4" stroke="rgb(0,119,255)" stroke-width="2" fill="none"></circle>
<circle cx="2260.55" cy="1391.86" r="4" stroke="rgb(17,0,255)" stroke-width="2" fill="none"></circle>
<circle cx="6505.11" cy="727.797" r="4" stroke="rgb(17,0,255)" stroke-width="2" fill="none"></circle>
<circle cx="1783.25" cy="861.488" r="4" stroke="rgb(38,0,255)" stroke-width="2" fill="none"></circle>
<circle cx="5929.24" cy="778.341" r="4" stroke="rgb(38,0,255)" stroke-width="2" fill="none"></circle>
<circle cx="1783.25" cy="861.488" r="4" stroke="rgb(255,114,0)" stroke-width="2" fill="none"></circle>
<circle cx="5624.07" cy="792.995" r="4" stroke="rgb(255,114,0)" stroke-width="2" fill="none"></circle>
<circle cx="1783.25" cy="861.488" r="4" stroke="rgb(0,255,233)" stroke-width="2" fill="none"></circle>
<circle cx="5636.21" cy="802.176" r="4" stroke="rgb(0,255,233)" stroke-width="2" fill="none"></circle>
<circle cx="1414.35" cy="495.93" r="4" stroke="rgb(255,246,0)" stroke-width="2" fill="none"></circle>
<circle cx="5982.88" cy="1666.56" r="4" stroke="rgb(255,246,0)" stroke-width="2" fill="none"></circle>
<circle cx="1041.97" cy="725.332" r="4" stroke="rgb(131,0,255)" stroke-width="2" fill="none"></circle>
<circle cx="5215.73" cy="1819.74" r="4" stroke="rgb(131,0,255)" stroke-width="2" fill="none"></circle>
<circle cx="1824.36" cy="669.065" r="4" stroke="rgb(0,157,255)" stroke-width="2" fill="none"></circle>
<circle cx="5013.23" cy="829.166" r="4" stroke="rgb(0,157,255)" stroke-width="2" fill="none"></circle>
<circle cx="1486.47" cy="619.175" r="4" stroke="rgb(144,0,255)" stroke-width="2" fill="none"></circle>
<circle cx="5110.11" cy="832.676" r="4" stroke="rgb(144,0,255)" stroke-width="2" fill="none"></circle>
<circle cx="1696.03" cy="679.989" r="4" stroke="rgb(255,114,0)" stroke-width="2" fill="none"></circle>
<circle cx="5252.5" cy="1852.92" r="4" stroke="rgb(255,114,0)" stroke-width="2" fill="none"></circle>
<circle cx="1414.35" cy="495.93" r="4" stroke="rgb(72,0,255)" stroke-width="2" fill="none"></circle>
<circle cx="5982.41" cy="1666.43" r="4" stroke="rgb(72,0,255)" stroke-width="2" fill="none"></circle>
<circle cx="844.971" cy="855.448" r="4" stroke="rgb(157,0,255)" stroke-width="2" fill="none"></circle>
<circle cx="6298.89" cy="1781.79" r="4" stroke="rgb(157,0,255)" stroke-width="2" fill="none"></circle>
<circle cx="2289.65" cy="505.405" r="4" stroke="rgb(255,0,12)" stroke-width="2" fill="none"></circle>
<circle cx="5790.21" cy="1927.24" r="4" stroke="rgb(255,0,12)" stroke-width="2" fill="none"></circle>
<circle cx="2248.06" cy="598.983" r="4" stroke="rgb(255,114,0)" stroke-width="2" fill="none"></circle>
<circle cx="5643.99" cy="1947.04" r="4" stroke="rgb(255,114,0)" stroke-width="2" fill="none"></circle>
<circle cx="1962.79" cy="684.747" r="4" stroke="rgb(255,0,114)" stroke-width="2" fill="none"></circle>
<circle cx="5054.54" cy="680.891" r="4" stroke="rgb(255,0,114)" stroke-width="2" fill="none"></circle>
<circle cx="1962.79" cy="684.747" r="4" stroke="rgb(199,255,0)" stroke-width="2" fill="none"></circle>
<circle cx="5054.54" cy="680.891" r="4" stroke="rgb(199,255,0)" stroke-width="2" fill="none"></circle>
<circle cx="2295.46" cy="1017.05" r="4" stroke="rgb(0,191,255)" stroke-width="2" fill="none"></circle>
<circle cx="5880.85" cy="2147.58" r="4" stroke="rgb(0,191,255)" stroke-width="2" fill="none"></circle>
<circle cx="811.814" cy="901.51" r="4" stroke="rgb(174,255,0)" stroke-width="2" fill="none"></circle>
<circle cx="5121.56" cy="1846.79" r="4" stroke="rgb(174,255,0)" stroke-width="2" fill="none"></circle>
<circle cx="1330.96" cy="653.776" r="4" stroke="rgb(255,0,178)" stroke-width="2" fill="none"></circle>
<circle cx="5260.12" cy="1855.4" r="4" stroke="rgb(255,0,178)" stroke-width="2" fill="none"></circle>
<circle cx="1665.94" cy="548.928" r="4" stroke="rgb(203,0,255)" stroke-width="2" fill="none"></circle>
<circle cx="5548.22" cy="2433.23" r="4" stroke="rgb(203,0,255)" stroke-width="2" fill="none"></circle>
<circle cx="2490.06" cy="636.286" r="4" stroke="rgb(0,144,255)" stroke-width="2" fill="none"></circle>
<circle cx="5642.63" cy="2603.98" r="4" stroke="rgb(0,144,255)" stroke-width="2" fill="none"></circle>
<circle cx="2450.39" cy="641.018" r="4" stroke="rgb(0,85,255)" stroke-width="2" fill="none"></circle>
<circle cx="5673.83" cy="2623" r="4" stroke="rgb(0,85,255)" stroke-width="2" fill="none"></circle>
<circle cx="2584.73" cy="847.811" r="4" stroke="rgb(255,229,0)" stroke-width="2" fill="none"></circle>
<circle cx="5329.98" cy="2695.42" r="4" stroke="rgb(255,229,0)" stroke-width="2" fill="none"></circle>
<circle cx="2330.6" cy="630.835" r="4" stroke="rgb(191,255,0)" stroke-width="2" fill="none"></circle>
<circle cx="5646.75" cy="2100" r="4" stroke="rgb(191,255,0)" stroke-width="2" fill="none"></circle>
<circle cx="1509.06" cy="609.537" r="4" stroke="rgb(0,203,255)" stroke-width="2" fill="none"></circle>
<circle cx="5140" cy="839.534" r="4" stroke="rgb(0,203,255)" stroke-width="2" fill="none"></circle>
<circle cx="1446.49" cy="560.264" r="4" stroke="rgb(0,29,255)" stroke-width="2" fill="none"></circle>
<circle cx="5080.2" cy="722.16" r="4" stroke="rgb(0,29,255)" stroke-width="2" fill="none"></circle>
<circle cx="1446.49" cy="560.264" r="4" stroke="rgb(255,0,21)" stroke-width="2" fill="none"></circle>
<circle cx="5080.2" cy="722.16" r="4" stroke="rgb(255,0,21)" stroke-width="2" fill="none"></circle>
<circle cx="1390.95" cy="603.067" r="4" stroke="rgb(131,255,0)" stroke-width="2" fill="none"></circle>
<circle cx="4965.32" cy="755.248" r="4" stroke="rgb(131,255,0)" stroke-width="2" fill="none"></circle>
<circle cx="1394.23" cy="611.287" r="4" stroke="rgb(0,255,178)" stroke-width="2" fill="none"></circle>
<circle cx="4963.43" cy="773.143" r="4" stroke="rgb(0,255,178)" stroke-width="2" fill="none"></circle>
<circle cx="1427.67" cy="603.56" r="4" stroke="rgb(72,0,255)" stroke-width="2" fill="none"></circle>
<circle cx="5023" cy="775.935" r="4" stroke="rgb(72,0,255)" stroke-width="2" fill="none"></circle>
<circle cx="1438.6" cy="616.803" r="4" stroke="rgb(0,63,255)" stroke-width="2" fill="none"></circle>
<circle cx="5034.11" cy="797.054" r="4" stroke="rgb(0,63,255)" stroke-width="2" fill="none"></circle>
<circle cx="2038.95" cy="506.316" r="4" stroke="rgb(255,59,0)" stroke-width="2" fill="none"></circle>
<circle cx="5905.76" cy="1067.95" r="4" stroke="rgb(255,59,0)" stroke-width="2" fill="none"></circle>
<circle cx="1795.55" cy="628.432" r="4" stroke="rgb(0,255,93)" stroke-width="2" fill="none"></circle>
<circle cx="5152.92" cy="819.368" r="4" stroke="rgb(0,255,93)" stroke-width="2" fill="none"></circle>
<circle cx="1501.54" cy="614.287" r="4" stroke="rgb(25,255,0)" stroke-width="2" fill="none"></circle>
<circle cx="5129.11" cy="835.863" r="4" stroke="rgb(25,255,0)" stroke-width="2" fill="none"></circle>
<circle cx="1731.05" cy="1334.72" r="4" stroke="rgb(255,174,0)" stroke-width="2" fill="none"></circle>
<circle cx="6682.91" cy="425.857" r="4" stroke="rgb(255,174,0)" stroke-width="2" fill="none"></circle>
<circle cx="2508.1" cy="1500.94" r="4" stroke="rgb(0,216,255)" stroke-width="2" fill="none"></circle>
<circle cx="6287.75" cy="1691.54" r="4" stroke="rgb(0,216,255)" stroke-width="2" fill="none"></circle>
<circle cx="1889.02" cy="550.227" r="4" stroke="rgb(0,255,225)" stroke-width="2" fill="none"></circle>
<circle cx="5282.82" cy="1197.96" r="4" stroke="rgb(0,255,225)" stroke-width="2" fill="none"></circle>
<circle cx="1361.63" cy="1147.24" r="4" stroke="rgb(0,237,255)" stroke-width="2" fill="none"></circle>
<circle cx="4861.63" cy="1071.7" r="4" stroke="rgb(0,237,255)" stroke-width="2" fill="none"></circle>
<circle cx="1953.35" cy="1022.64" r="4" stroke="rgb(255,136,0)" stroke-width="2" fill="none"></circle>
<circle cx="5038.45" cy="1244.24" r="4" stroke="rgb(255,136,0)" stroke-width="2" fill="none"></circle>
<circle cx="2489.92" cy="736.943" r="4" stroke="rgb(255,0,174)" stroke-width="2" fill="none"></circle>
<circle cx="5359.14" cy="2556.33" r="4" stroke="rgb(255,0,174)" stroke-width="2" fill="none"></circle>
<circle cx="1445.62" cy="618.964" r="4" stroke="rgb(157,255,0)" stroke-width="2" fill="none"></circle>
<circle cx="5174.1" cy="878.52" r="4" stroke="rgb(157,255,0)" stroke-width="2" fill="none"></circle>
<circle cx="1445.62" cy="618.964" r="4" stroke="rgb(212,0,255)" stroke-width="2" fill="none"></circle>
<circle cx="5174.1" cy="878.52" r="4" stroke="rgb(212,0,255)" stroke-width="2" fill="none"></circle>
<circle cx="2164.22" cy="495.92" r="4" stroke="rgb(0,12,255)" stroke-width="2" fill="none"></circle>
<circle cx="5658.41" cy="1773.24" r="4" stroke="rgb(0,12,255)" stroke-width="2" fill="none"></circle>
<circle cx="1521.18" cy="1186.64" r="4" stroke="rgb(255,0,199)" stroke-width="2" fill="none"></circle>
<circle cx="5275.97" cy="268.447" r="4" stroke="rgb(255,0,199)" stroke-width="2" fill="none"></circle>
<circle cx="2225.81" cy="540.997" r="4" stroke="rgb(0,216,255)" stroke-width="2" fill="none"></circle>
<circle cx="5680.5" cy="1878.15" r="4" stroke="rgb(0,216,255)" stroke-width="2" fill="none"></circle>
<circle cx="2225.81" cy="540.997" r="4" stroke="rgb(0,127,255)" stroke-width="2" fill="none"></circle>
<circle cx="5680.5" cy="1878.15" r="4" stroke="rgb(0,127,255)" stroke-width="2" fill="none"></circle>
<circle cx="2309.69" cy="495.999" r="4" stroke="rgb(255,110,0)" stroke-width="2" fill="none"></circle>
<circle cx="5826.38" cy="1940.66" r="4" stroke="rgb(255,110,0)" stroke-width="2" fill="none"></circle>
<circle cx="2337.82" cy="505.25" r="4" stroke="rgb(255,102,0)" stroke-width="2" fill="none"></circle>
<circle cx="5844.4" cy="1979.52" r="4" stroke="rgb(255,102,0)" stroke-width="2" fill="none"></circle>
<circle cx="1737.37" cy="1383.79" r="4" stroke="rgb(0,255,174)" stroke-width="2" fill="none"></circle>
<circle cx="5093.96" cy="1717.4" r="4" stroke="rgb(0,255,174)" stroke-width="2" fill="none"></circle>
<circle cx="1439.78" cy="551.575" r="4" stroke="rgb(0,101,255)" stroke-width="2" fill="none"></circle>
<circle cx="5078.47" cy="699.99" r="4" stroke="rgb(0,101,255)" stroke-width="2" fill="none"></circle>
<circle cx="1814.46" cy="1284.65" r="4" stroke="rgb(0,237,255)" stroke-width="2" fill="none"></circle>
<circle cx="5613.77" cy="451.654" r="4" stroke="rgb(0,237,255)" stroke-width="2" fill="none"></circle>
<circle cx="1441.89" cy="570.093" r="4" stroke="rgb(255,34,0)" stroke-width="2" fill="none"></circle>
<circle cx="5068.45" cy="733.118" r="4" stroke="rgb(255,34,0)" stroke-width="2" fill="none"></circle>
<circle cx="1105.49" cy="1096.82" r="4" stroke="rgb(255,0,221)" stroke-width="2" fill="none"></circle>
<circle cx="6876.21" cy="1224.56" r="4" stroke="rgb(255,0,221)" stroke-width="2" fill="none"></circle>
<circle cx="1441.89" cy="570.093" r="4" stroke="rgb(0,8,255)" stroke-width="2" fill="none"></circle>
<circle cx="5068.45" cy="733.118" r="4" stroke="rgb(0,8,255)" stroke-width="2" fill="none"></circle>
<circle cx="1179.54" cy="1174.96" r="4" stroke="rgb(255,0,191)" stroke-width="2" fill="none"></circle>
<circle cx="5070.56" cy="1316.35" r="4" stroke="rgb(255,0,191)" stroke-width="2" fill="none"></circle>
<circle cx="1499.91" cy="605.437" r="4" stroke="rgb(0,255,84)" stroke-width="2" fill="none"></circle>
<circle cx="5134.5" cy="823.962" r="4" stroke="rgb(0,255,84)" stroke-width="2" fill="none"></circle>
<circle cx="2303.54" cy="612.028" r="4" stroke="rgb(255,0,72)" stroke-width="2" fill="none"></circle>
<circle cx="5674.86" cy="2029" r="4" stroke="rgb(255,0,72)" stroke-width="2" fill="none"></circle>
<circle cx="1779.48" cy="1473.44" r="4" stroke="rgb(255,0,212)" stroke-width="2" fill="none"></circle>
<circle cx="4984.39" cy="2065.19" r="4" stroke="rgb(255,0,212)" stroke-width="2" fill="none"></circle>
<circle cx="2201.37" cy="523.565" r="4" stroke="rgb(76,255,0)" stroke-width="2" fill="none"></circle>
<circle cx="5671.33" cy="1839.06" r="4" stroke="rgb(76,255,0)" stroke-width="2" fill="none"></circle>
<circle cx="1402.37" cy="616.995" r="4" stroke="rgb(255,76,0)" stroke-width="2" fill="none"></circle>
<circle cx="4973.36" cy="783.986" r="4" stroke="rgb(255,76,0)" stroke-width="2" fill="none"></circle>
<circle cx="1434.84" cy="625.209" r="4" stroke="rgb(0,135,255)" stroke-width="2" fill="none"></circle>
<circle cx="5023.69" cy="806.467" r="4" stroke="rgb(0,135,255)" stroke-width="2" fill="none"></circle>
<circle cx="2215.08" cy="1381.97" r="4" stroke="rgb(0,174,255)" stroke-width="2" fill="none"></circle>
<circle cx="5917.38" cy="345.573" r="4" stroke="rgb(0,174,255)" stroke-width="2" fill="none"></circle>
<circle cx="1411.69" cy="605.804" r="4" stroke="rgb(255,136,0)" stroke-width="2" fill="none"></circle>
<circle cx="4998.21" cy="771.502" r="4" stroke="rgb(255,136,0)" stroke-width="2" fill="none"></circle>
<circle cx="1984.29" cy="1304.89" r="4" stroke="rgb(255,0,42)" stroke-width="2" fill="none"></circle>
<circle cx="6412.76" cy="2429.53" r="4" stroke="rgb(255,0,42)" stroke-width="2" fill="none"></circle>
<circle cx="2433.46" cy="837.196" r="4" stroke="rgb(255,0,195)" stroke-width="2" fill="none"></circle>
<circle cx="5151.93" cy="2599.15" r="4" stroke="rgb(255,0,195)" stroke-width="2" fill="none"></circle>
<circle cx="3180.69" cy="1252.35" r="4" stroke="rgb(255,0,229)" stroke-width="2" fill="none"></circle>
<circle cx="5062.54" cy="305.488" r="4" stroke="rgb(255,0,229)" stroke-width="2" fill="none"></circle>
<circle cx="2051.6" cy="538.759" r="4" stroke="rgb(255,216,0)" stroke-width="2" fill="none"></circle>
<circle cx="5402.2" cy="1242.34" r="4" stroke="rgb(255,216,0)" stroke-width="2" fill="none"></circle>
<circle cx="2697.66" cy="750.09" r="4" stroke="rgb(255,0,4)" stroke-width="2" fill="none"></circle>
<circle cx="5462.42" cy="451.588" r="4" stroke="rgb(255,0,4)" stroke-width="2" fill="none"></circle>
<circle cx="1833.03" cy="1298.9" r="4" stroke="rgb(0,255,42)" stroke-width="2" fill="none"></circle>
<circle cx="5551.03" cy="1171.36" r="4" stroke="rgb(0,255,42)" stroke-width="2" fill="none"></circle>
<circle cx="2949.33" cy="954.966" r="4" stroke="rgb(153,255,0)" stroke-width="2" fill="none"></circle>
<circle cx="5837.19" cy="2447.85" r="4" stroke="rgb(153,255,0)" stroke-width="2" fill="none"></circle>
</svg>