<?xml version="1.0" standalone="yes"?>
<!-- SVG graphic -->
<svg xmlns='http://www.w3.org/2000/svg' xmlns:xlink='http://www.w3.org/1999/xlink'
width="8064px" height="3024px" preserveAspectRatio="xMinYMin meet" viewBox="0 0 8064 3024" version="1.1">
<image x="0" y="0" width="4032px" height="3024px" opacity="1" xlink:href="/home/jeong/Code/2D-to-3D-Modeling-using-AI/Make3D/Image/20200227_180721.jpg"/>
<image x="4032" y="0" width="4032px" height="3024px" opacity="1" xlink:href="/home/jeong/Code/2D-to-3D-Modeling-using-AI/Make3D/Image/20200227_180812.jpg"/>
<polyline points="1814.46,1284.65,6344.42,1556.99" stroke="rgb(255,93,0)" stroke-width="2" fill="none"></polyline>
<polyline points="1952.91,1358.72,6239.86,2493.95" stroke="rgb(255,0,195)" stroke-width="2" fill="none"></polyline>
<polyline points="1944.17,1174.28,5417.76,1280.97" stroke="rgb(131,0,255)" stroke-width="2" fill="none"></polyline>
<polyline points="1783.25,861.488,5712.35,874.644" stroke="rgb(0,153,255)" stroke-width="2" fill="none"></polyline>
<polyline points="953.448,953.001,6335.57,1700.32" stroke="rgb(255,114,0)" stroke-width="2" fill="none"></polyline>
<polyline points="1948.76,1165.76,6335.57,1700.32" stroke="rgb(0,255,33)" stroke-width="2" fill="none"></polyline>
<polyline points="2000.29,966.005,5668.14,1288.31" stroke="rgb(0,255,123)" stroke-width="2" fill="none"></polyline>
<polyline points="2943.92,1045.32,6057.97,888.521" stroke="rgb(255,8,0)" stroke-width="2" fill="none"></polyline>
<polyline points="1059.72,935.885,6046.03,1705.07" stroke="rgb(255,0,250)" stroke-width="2" fill="none"></polyline>
<polyline points="1948.76,1165.76,6411.48,1706.58" stroke="rgb(0,255,42)" stroke-width="2" fill="none"></polyline>
<polyline points="1836.51,731.52,4810.39,947.86" stroke="rgb(255,0,199)" stroke-width="2" fill="none"></polyline>
<polyline points="2841.07,1544.96,6303.85,851.459" stroke="rgb(161,255,0)" stroke-width="2" fill="none"></polyline>
<polyline points="1948.76,1165.76,5754.11,978.465" stroke="rgb(255,0,72)" stroke-width="2" fill="none"></polyline>
<polyline points="2738.04,1536.99,7106.36,1319.67" stroke="rgb(0,80,255)" stroke-width="2" fill="none"></polyline>
<polyline points="2000.29,966.005,5734.27,1324.81" stroke="rgb(110,255,0)" stroke-width="2" fill="none"></polyline>
<polyline points="1944.17,1174.28,6372.69,1325.66" stroke="rgb(238,0,255)" stroke-width="2" fill="none"></polyline>
<polyline points="2330.6,630.835,6409.19,1729.67" stroke="rgb(255,136,0)" stroke-width="2" fill="none"></polyline>
<polyline points="2619.97,578.362,5770.89,1739.25" stroke="rgb(12,255,0)" stroke-width="2" fill="none"></polyline>
<polyline points="1948.76,1165.76,6466.24,1346.54" stroke="rgb(178,255,0)" stroke-width="2" fill="none"></polyline>
<polyline points="1729.04,1423.22,6050.46,1042.03" stroke="rgb(0,255,0)" stroke-width="2" fill="none"></polyline>
<polyline points="1511.9,927.546,6547.89,1350.24" stroke="rgb(0,255,46)" stroke-width="2" fill="none"></polyline>
<polyline points="1948.76,1165.76,6388.7,1359.47" stroke="rgb(255,0,165)" stroke-width="2" fill="none"></polyline>
<polyline points="2330.6,630.835,6589.41,1755.55" stroke="rgb(97,255,0)" stroke-width="2" fill="none"></polyline>
<polyline points="1948.76,1165.76,6326.2,1764.16" stroke="rgb(0,199,255)" stroke-width="2" fill="none"></polyline>
<polyline points="2794.81,1387.7,6572.45,1389.41" stroke="rgb(255,136,0)" stroke-width="2" fill="none"></polyline>
<polyline points="1959.58,1245.84,6673.69,1626.79" stroke="rgb(0,153,255)" stroke-width="2" fill="none"></polyline>
<polyline points="2330.6,630.835,6554.35,1426.21" stroke="rgb(255,12,0)" stroke-width="2" fill="none"></polyline>
<polyline points="1059.72,935.885,5830.09,933.182" stroke="rgb(97,0,255)" stroke-width="2" fill="none"></polyline>
<polyline points="1783.25,861.488,5922.43,1024.65" stroke="rgb(0,67,255)" stroke-width="2" fill="none"></polyline>
<polyline points="1657.49,1250.16,5806.84,936.744" stroke="rgb(255,51,0)" stroke-width="2" fill="none"></polyline>
<polyline points="1814.46,1284.65,5420.88,1448.93" stroke="rgb(0,255,229)" stroke-width="2" fill="none"></polyline>
<polyline points="1924.92,1304.06,6008.21,1048.73" stroke="rgb(8,255,0)" stroke-width="2" fill="none"></polyline>
<polyline points="953.448,953.001,6391.75,1838.2" stroke="rgb(0,178,255)" stroke-width="2" fill="none"></polyline>
<polyline points="1948.76,1165.76,6391.75,1838.2" stroke="rgb(148,255,0)" stroke-width="2" fill="none"></polyline>
<polyline points="2706.03,1529.54,6548.75,1246.64" stroke="rgb(255,0,161)" stroke-width="2" fill="none"></polyline>
<polyline points="1059.72,935.885,5845.33,1416.74" stroke="rgb(97,255,0)" stroke-width="2" fill="none"></polyline>
<polyline points="1783.25,861.488,5779.21,1085.18" stroke="rgb(144,255,0)" stroke-width="2" fill="none"></polyline>
<polyline points="953.448,953.001,6312.3,1861.87" stroke="rgb(255,0,68)" stroke-width="2" fill="none"></polyline>
<polyline points="1948.76,1165.76,6312.3,1861.87" stroke="rgb(255,0,123)" stroke-width="2" fill="none"></polyline>
<polyline points="1250.23,787.78,5319.11,1785.55" stroke="rgb(255,114,0)" stroke-width="2" fill="none"></polyline>
<polyline points="1783.25,861.488,5826.44,1871.42" stroke="rgb(25,255,0)" stroke-width="2" fill="none"></polyline>
<polyline points="2330.6,630.835,6473.09,1522.51" stroke="rgb(0,255,152)" stroke-width="2" fill="none"></polyline>
<polyline points="2794.81,1387.7,6882.95,1921.86" stroke="rgb(255,0,80)" stroke-width="2" fill="none"></polyline>
<polyline points="2141.37,642.952,6614.88,1551.63" stroke="rgb(93,255,0)" stroke-width="2" fill="none"></polyline>
<polyline points="1814.46,1284.65,6449.64,1818.22" stroke="rgb(255,72,0)" stroke-width="2" fill="none"></polyline>
<polyline points="2000.29,966.005,5774.07,1578.71" stroke="rgb(255,0,221)" stroke-width="2" fill="none"></polyline>
<polyline points="1599.97,1218.46,6530.59,1466.09" stroke="rgb(110,0,255)" stroke-width="2" fill="none"></polyline>
<polyline points="1948.76,1165.76,6429.07,1593.22" stroke="rgb(178,0,255)" stroke-width="2" fill="none"></polyline>
<polyline points="2401.43,548.567,5380.09,1155" stroke="rgb(233,255,0)" stroke-width="2" fill="none"></polyline>
<polyline points="1059.72,935.885,5729.14,1146.66" stroke="rgb(0,101,255)" stroke-width="2" fill="none"></polyline>
<polyline points="1059.72,935.885,6396.96,1833.74" stroke="rgb(255,178,0)" stroke-width="2" fill="none"></polyline>
<polyline points="1924.92,1304.06,5926.64,1607.3" stroke="rgb(0,187,255)" stroke-width="2" fill="none"></polyline>
<polyline points="1938.28,1413.73,6432.78,1995.63" stroke="rgb(255,208,0)" stroke-width="2" fill="none"></polyline>
<polyline points="2051.7,511.919,5671.34,1997.09" stroke="rgb(255,46,0)" stroke-width="2" fill="none"></polyline>
<polyline points="2735.89,1489.98,6994.55,1741.46" stroke="rgb(89,0,255)" stroke-width="2" fill="none"></polyline>
<polyline points="1511.9,927.546,6166.07,1852.11" stroke="rgb(165,255,0)" stroke-width="2" fill="none"></polyline>
<polyline points="1145.28,1230.81,5385.07,1744.48" stroke="rgb(0,101,255)" stroke-width="2" fill="none"></polyline>
<polyline points="1723.43,883.667,6453.81,1637.42" stroke="rgb(106,0,255)" stroke-width="2" fill="none"></polyline>
<polyline points="1723.43,883.667,6453.81,1637.42" stroke="rgb(0,101,255)" stroke-width="2" fill="none"></polyline>
<polyline points="1723.43,883.667,5966.88,1188.82" stroke="rgb(255,0,204)" stroke-width="2" fill="none"></polyline>
<polyline points="1996.18,1520.44,5324.06,1750.35" stroke="rgb(157,0,255)" stroke-width="2" fill="none"></polyline>
<polyline points="1059.72,935.885,6205.14,1639.06" stroke="rgb(255,131,0)" stroke-width="2" fill="none"></polyline>
<polyline points="1959.72,1416.79,5949.29,1193.78" stroke="rgb(208,255,0)" stroke-width="2" fill="none"></polyline>
<polyline points="2000.29,966.005,5752.46,1207.55" stroke="rgb(255,0,55)" stroke-width="2" fill="none"></polyline>
<polyline points="2400.57,1488.39,5883.62,2117.96" stroke="rgb(255,0,51)" stroke-width="2" fill="none"></polyline>
<polyline points="1924.92,1304.06,5867.59,1533.36" stroke="rgb(106,0,255)" stroke-width="2" fill="none"></polyline>
<polyline points="2943.92,1045.32,5657.07,2153.84" stroke="rgb(148,255,0)" stroke-width="2" fill="none"></polyline>
<polyline points="1948.76,1165.76,6342.39,1658.88" stroke="rgb(195,255,0)" stroke-width="2" fill="none"></polyline>
<polyline points="1059.72,935.885,6750.1,1662.49" stroke="rgb(38,0,255)" stroke-width="2" fill="none"></polyline>
<polyline points="1984.68,679.648,6965.66,1222.41" stroke="rgb(203,0,255)" stroke-width="2" fill="none"></polyline>
<polyline points="1948.76,1165.76,6138.21,1547.46" stroke="rgb(255,0,110)" stroke-width="2" fill="none"></polyline>
<polyline points="1938.28,1413.73,5626.61,2294.89" stroke="rgb(0,17,255)" stroke-width="2" fill="none"></polyline>
<polyline points="2001.41,1381.72,5623.38,2300.28" stroke="rgb(148,255,0)" stroke-width="2" fill="none"></polyline>
<polyline points="1453.31,884.91,5637.8,2300.03" stroke="rgb(255,0,191)" stroke-width="2" fill="none"></polyline>
<polyline points="1637.01,1169.13,5490.92,2301.94" stroke="rgb(0,144,255)" stroke-width="2" fill="none"></polyline>
<polyline points="1571.58,1219.07,6692.56,1311.77" stroke="rgb(76,255,0)" stroke-width="2" fill="none"></polyline>
<polyline points="1303.32,995.913,5586.81,1788.3" stroke="rgb(0,255,63)" stroke-width="2" fill="none"></polyline>
<polyline points="1303.32,995.913,5586.81,1788.3" stroke="rgb(255,0,68)" stroke-width="2" fill="none"></polyline>
<polyline points="1630.91,1249.1,5741.73,2358.84" stroke="rgb(255,102,0)" stroke-width="2" fill="none"></polyline>
<polyline points="1952.91,1358.72,6226.19,2416.93" stroke="rgb(0,169,255)" stroke-width="2" fill="none"></polyline>
<polyline points="1059.72,935.885,5704.89,1349.41" stroke="rgb(0,169,255)" stroke-width="2" fill="none"></polyline>
<polyline points="1596.07,1265.09,6939.52,1590.69" stroke="rgb(246,0,255)" stroke-width="2" fill="none"></polyline>
<polyline points="1956.22,1293.82,5764.79,1941.22" stroke="rgb(123,0,255)" stroke-width="2" fill="none"></polyline>
<polyline points="1836.24,1274.54,6468.05,1601.54" stroke="rgb(42,0,255)" stroke-width="2" fill="none"></polyline>
<polyline points="1814.46,1284.65,6462.24,1605.6" stroke="rgb(0,246,255)" stroke-width="2" fill="none"></polyline>
<polyline points="1959.72,1416.79,5549.9,1607.82" stroke="rgb(0,255,212)" stroke-width="2" fill="none"></polyline>
<polyline points="1758.61,1404.72,5799.56,1615.07" stroke="rgb(0,157,255)" stroke-width="2" fill="none"></polyline>
<polyline points="1303.32,995.913,6031.12,1849.6" stroke="rgb(127,0,255)" stroke-width="2" fill="none"></polyline>
<polyline points="1303.32,995.913,6031.12,1849.6" stroke="rgb(191,255,0)" stroke-width="2" fill="none"></polyline>
<polyline points="1303.32,995.913,6102.39,1863.25" stroke="rgb(221,0,255)" stroke-width="2" fill="none"></polyline>
<polyline points="1303.32,995.913,6102.39,1863.25" stroke="rgb(0,76,255)" stroke-width="2" fill="none"></polyline>
<polyline points="2671.25,980.414,5888.69,2043.06" stroke="rgb(0,67,255)" stroke-width="2" fill="none"></polyline>
<polyline points="1303.32,995.913,6244.24,1887.71" stroke="rgb(0,191,255)" stroke-width="2" fill="none"></polyline>
<polyline points="1303.32,995.913,6244.24,1887.71" stroke="rgb(0,255,191)" stroke-width="2" fill="none"></polyline>
<polyline points="1836.24,1274.54,5766.06,2294.86" stroke="rgb(153,255,0)" stroke-width="2" fill="none"></polyline>
<polyline points="2506.61,615.76,5542.56,1976.55" stroke="rgb(0,242,255)" stroke-width="2" fill="none"></polyline>
<polyline points="2822.83,1148.59,6272.08,2008.98" stroke="rgb(208,255,0)" stroke-width="2" fill="none"></polyline>
<polyline points="1959.72,1416.79,6442.27,2169.44" stroke="rgb(255,174,0)" stroke-width="2" fill="none"></polyline>
<polyline points="1122.9,897.903,4868.88,2179.16" stroke="rgb(0,255,42)" stroke-width="2" fill="none"></polyline>
<polyline points="2822.83,1148.59,5852.62,2360.39" stroke="rgb(0,203,255)" stroke-width="2" fill="none"></polyline>
<polyline points="1721.28,954.948,4954.25,2397.33" stroke="rgb(255,0,131)" stroke-width="2" fill="none"></polyline>
<polyline points="1952.91,1358.72,6275.51,2413.71" stroke="rgb(67,255,0)" stroke-width="2" fill="none"></polyline>
<polyline points="1704.56,1174.42,6427.98,2513.29" stroke="rgb(221,255,0)" stroke-width="2" fill="none"></polyline>
<polyline points="2584.73,847.811,4725.59,731.672" stroke="rgb(255,229,0)" stroke-width="2" fill="none"></polyline>
<polyline points="1941.43,1409.14,5889.2,903.867" stroke="rgb(216,0,255)" stroke-width="2" fill="none"></polyline>
<polyline points="2857.51,809.212,4887.68,2386.45" stroke="rgb(0,255,110)" stroke-width="2" fill="none"></polyline>
<polyline points="1909.69,1183.03,5962.5,1396.11" stroke="rgb(255,123,0)" stroke-width="2" fill="none"></polyline>
<polyline points="2397.34,673.087,5865.17,2048.03" stroke="rgb(225,255,0)" stroke-width="2" fill="none"></polyline>
<polyline points="2681.61,1139.13,5287.66,1056.44" stroke="rgb(0,255,42)" stroke-width="2" fill="none"></polyline>
<polyline points="1718.83,1392.35,5590.94,2173.05" stroke="rgb(255,225,0)" stroke-width="2" fill="none"></polyline>
<polyline points="1719.81,1397.47,5598.33,2178.84" stroke="rgb(114,0,255)" stroke-width="2" fill="none"></polyline>
<polyline points="2833.65,1150.72,6033.17,813.043" stroke="rgb(255,0,123)" stroke-width="2" fill="none"></polyline>
<polyline points="2735.89,1489.98,6994.63,1742.01" stroke="rgb(0,67,255)" stroke-width="2" fill="none"></polyline>
<polyline points="2288.07,590.807,5324.89,1726.02" stroke="rgb(0,255,237)" stroke-width="2" fill="none"></polyline>
<polyline points="1573.09,1313.21,5132.02,1208.53" stroke="rgb(114,255,0)" stroke-width="2" fill="none"></polyline>
<polyline points="3115.57,1225.78,5799.75,2328.72" stroke="rgb(255,195,0)" stroke-width="2" fill="none"></polyline>
<polyline points="2177.62,570.211,5882.52,2429.98" stroke="rgb(0,89,255)" stroke-width="2" fill="none"></polyline>
<polyline points="1511.9,927.546,5172.21,1362.73" stroke="rgb(0,255,203)" stroke-width="2" fill="none"></polyline>
<polyline points="1736.44,1439.93,6341.21,1572.18" stroke="rgb(0,221,255)" stroke-width="2" fill="none"></polyline>
<polyline points="1037.05,1081.46,5254.39,1829.98" stroke="rgb(0,255,195)" stroke-width="2" fill="none"></polyline>
<polyline points="1303.32,995.913,6031,1849.4" stroke="rgb(84,255,0)" stroke-width="2" fill="none"></polyline>
<polyline points="1303.32,995.913,6031,1849.4" stroke="rgb(255,212,0)" stroke-width="2" fill="none"></polyline>
<polyline points="1939.41,1328.17,6372.42,1859.08" stroke="rgb(97,0,255)" stroke-width="2" fill="none"></polyline>
<polyline points="1303.32,995.913,6102.35,1863.29" stroke="rgb(233,0,255)" stroke-width="2" fill="none"></polyline>
<polyline points="1303.32,995.913,6102.35,1863.29" stroke="rgb(135,255,0)" stroke-width="2" fill="none"></polyline>
<polyline points="1303.32,995.913,6174.96,1876.93" stroke="rgb(255,0,55)" stroke-width="2" fill="none"></polyline>
<polyline points="1303.32,995.913,6174.96,1876.93" stroke="rgb(4,255,0)" stroke-width="2" fill="none"></polyline>
<polyline points="1836.24,1274.54,5855.71,1764.44" stroke="rgb(0,255,165)" stroke-width="2" fill="none"></polyline>
<polyline points="1968.29,1519.03,5213.65,1813.07" stroke="rgb(255,119,0)" stroke-width="2" fill="none"></polyline>
<polyline points="2680.39,1515.83,6947.38,1346.78" stroke="rgb(0,255,4)" stroke-width="2" fill="none"></polyline>
<polyline points="2955.35,1010.85,6393.9,1563.93" stroke="rgb(0,72,255)" stroke-width="2" fill="none"></polyline>
<polyline points="2019.43,496.728,5104.58,1263.33" stroke="rgb(255,0,12)" stroke-width="2" fill="none"></polyline>
<polyline points="1208.41,767.816,5546.45,1831.54" stroke="rgb(0,63,255)" stroke-width="2" fill="none"></polyline>
<polyline points="2085.35,564.894,5379.72,1265.79" stroke="rgb(0,255,186)" stroke-width="2" fill="none"></polyline>
<circle cx="1814.46" cy="1284.65" r="4" stroke="rgb(255,93,0)" stroke-width="2" fill="none"></circle>
<circle cx="6344.42" cy="1556.99" r="4" stroke="rgb(255,93,0)" stroke-width="2" fill="none"></circle>
<circle cx="1952.91" cy="1358.72" r="4" stroke="rgb(255,0,195)" stroke-width="2" fill="none"></circle>
<circle cx="6239.86" cy="2493.95" r="4" stroke="rgb(255,0,195)" stroke-width="2" fill="none"></circle>
<circle cx="1944.17" cy="1174.28" r="4" stroke="rgb(131,0,255)" stroke-width="2" fill="none"></circle>
<circle cx="5417.76" cy="1280.97" r="4" stroke="rgb(131,0,255)" stroke-width="2" fill="none"></circle>
<circle cx="1783.25" cy="861.488" r="4" stroke="rgb(0,153,255)" stroke-width="2" fill="none"></circle>
<circle cx="5712.35" cy="874.644" r="4" stroke="rgb(0,153,255)" stroke-width="2" fill="none"></circle>
<circle cx="953.448" cy="953.001" r="4" stroke="rgb(255,114,0)" stroke-width="2" fill="none"></circle>
<circle cx="6335.57" cy="1700.32" r="4" stroke="rgb(255,114,0)" stroke-width="2" fill="none"></circle>
<circle cx="1948.76" cy="1165.76" r="4" stroke="rgb(0,255,33)" stroke-width="2" fill="none"></circle>
<circle cx="6335.57" cy="1700.32" r="4" stroke="rgb(0,255,33)" stroke-width="2" fill="none"></circle>
<circle cx="2000.29" cy="966.005" r="4" stroke="rgb(0,255,123)" stroke-width="2" fill="none"></circle>
<circle cx="5668.14" cy="1288.31" r="4" stroke="rgb(0,255,123)" stroke-width="2" fill="none"></circle>
<circle cx="2943.92" cy="1045.32" r="4" stroke="rgb(255,8,0)" stroke-width="2" fill="none"></circle>
<circle cx="6057.97" cy="888.521" r="4" stroke="rgb(255,8,0)" stroke-width="2" fill="none"></circle>
<circle cx="1059.72" cy="935.885" r="4" stroke="rgb(255,0,250)" stroke-width="2" fill="none"></circle>
<circle cx="6046.03" cy="1705.07" r="4" stroke="rgb(255,0,250)" stroke-width="2" fill="none"></circle>
<circle cx="1948.76" cy="1165.76" r="4" stroke="rgb(0,255,42)" stroke-width="2" fill="none"></circle>
<circle cx="6411.48" cy="1706.58" r="4" stroke="rgb(0,255,42)" stroke-width="2" fill="none"></circle>
<circle cx="1836.51" cy="731.52" r="4" stroke="rgb(255,0,199)" stroke-width="2" fill="none"></circle>
<circle cx="4810.39" cy="947.86" r="4" stroke="rgb(255,0,199)" stroke-width="2" fill="none"></circle>
<circle cx="2841.07" cy="1544.96" r="4" stroke="rgb(161,255,0)" stroke-width="2" fill="none"></circle>
<circle cx="6303.85" cy="851.459" r="4" stroke="rgb(161,255,0)" stroke-width="2" fill="none"></circle>
<circle cx="1948.76" cy="1165.76" r="4" stroke="rgb(255,0,72)" stroke-width="2" fill="none"></circle>
<circle cx="5754.11" cy="978.465" r="4" stroke="rgb(255,0,72)" stroke-width="2" fill="none"></circle>
<circle cx="2738.04" cy="1536.99" r="4" stroke="rgb(0,80,255)" stroke-width="2" fill="none"></circle>
<circle cx="7106.36" cy="1319.67" r="4" stroke="rgb(0,80,255)" stroke-width="2" fill="none"></circle>
<circle cx="2000.29" cy="966.005" r="4" stroke="rgb(110,255,0)" stroke-width="2" fill="none"></circle>
<circle cx="5734.27" cy="1324.81" r="4" stroke="rgb(110,255,0)" stroke-width="2" fill="none"></circle>
<circle cx="1944.17" cy="1174.28" r="4" stroke="rgb(238,0,255)" stroke-width="2" fill="none"></circle>
<circle cx="6372.69" cy="1325.66" r="4" stroke="rgb(238,0,255)" stroke-width="2" fill="none"></circle>
<circle cx="2330.6" cy="630.835" r="4" stroke="rgb(255,136,0)" stroke-width="2" fill="none"></circle>
<circle cx="6409.19" cy="1729.67" r="4" stroke="rgb(255,136,0)" stroke-width="2" fill="none"></circle>
<circle cx="2619.97" cy="578.362" r="4" stroke="rgb(12,255,0)" stroke-width="2" fill="none"></circle>
<circle cx="5770.89" cy="1739.25" r="4" stroke="rgb(12,255,0)" stroke-width="2" fill="none"></circle>
<circle cx="1948.76" cy="1165.76" r="4" stroke="rgb(178,255,0)" stroke-width="2" fill="none"></circle>
<circle cx="6466.24" cy="1346.54" r="4" stroke="rgb(178,255,0)" stroke-width="2" fill="none"></circle>
<circle cx="1729.04" cy="1423.22" r="4" stroke="rgb(0,255,0)" stroke-width="2" fill="none"></circle>
<circle cx="6050.46" cy="1042.03" r="4" stroke="rgb(0,255,0)" stroke-width="2" fill="none"></circle>
<circle cx="1511.9" cy="927.546" r="4" stroke="rgb(0,255,46)" stroke-width="2" fill="none"></circle>
<circle cx="6547.89" cy="1350.24" r="4" stroke="rgb(0,255,46)" stroke-width="2" fill="none"></circle>
<circle cx="1948.76" cy="1165.76" r="4" stroke="rgb(255,0,165)" stroke-width="2" fill="none"></circle>
<circle cx="6388.7" cy="1359.47" r="4" stroke="rgb(255,0,165)" stroke-width="2" fill="none"></circle>
<circle cx="2330.6" cy="630.835" r="4" stroke="rgb(97,255,0)" stroke-width="2" fill="none"></circle>
<circle cx="6589.41" cy="1755.55" r="4" stroke="rgb(97,255,0)" stroke-width="2" fill="none"></circle>
<circle cx="1948.76" cy="1165.76" r="4" stroke="rgb(0,199,255)" stroke-width="2" fill="none"></circle>
<circle cx="6326.2" cy="1764.16" r="4" stroke="rgb(0,199,255)" stroke-width="2" fill="none"></circle>
<circle cx="2794.81" cy="1387.7" r="4" stroke="rgb(255,136,0)" stroke-width="2" fill="none"></circle>
<circle cx="6572.45" cy="1389.41" r="4" stroke="rgb(255,136,0)" stroke-width="2" fill="none"></circle>
<circle cx="1959.58" cy="1245.84" r="4" stroke="rgb(0,153,255)" stroke-width="2" fill="none"></circle>
<circle cx="6673.69" cy="1626.79" r="4" stroke="rgb(0,153,255)" stroke-width="2" fill="none"></circle>
<circle cx="2330.6" cy="630.835" r="4" stroke="rgb(255,12,0)" stroke-width="2" fill="none"></circle>
<circle cx="6554.35" cy="1426.21" r="4" stroke="rgb(255,12,0)" stroke-width="2" fill="none"></circle>
<circle cx="1059.72" cy="935.885" r="4" stroke="rgb(97,0,255)" stroke-width="2" fill="none"></circle>
<circle cx="5830.09" cy="933.182" r="4" stroke="rgb(97,0,255)" stroke-width="2" fill="none"></circle>
<circle cx="1783.25" cy="861.488" r="4" stroke="rgb(0,67,255)" stroke-width="2" fill="none"></circle>
<circle cx="5922.43" cy="1024.65" r="4" stroke="rgb(0,67,255)" stroke-width="2" fill="none"></circle>
<circle cx="1657.49" cy="1250.16" r="4" stroke="rgb(255,51,0)" stroke-width="2" fill="none"></circle>
<circle cx="5806.84" cy="936.744" r="4" stroke="rgb(255,51,0)" stroke-width="2" fill="none"></circle>
<circle cx="1814.46" cy="1284.65" r="4" stroke="rgb(0,255,229)" stroke-width="2" fill="none"></circle>
<circle cx="5420.88" cy="1448.93" r="4" stroke="rgb(0,255,229)" stroke-width="2" fill="none"></circle>
<circle cx="1924.92" cy="1304.06" r="4" stroke="rgb(8,255,0)" stroke-width="2" fill="none"></circle>
<circle cx="6008.21" cy="1048.73" r="4" stroke="rgb(8,255,0)" stroke-width="2" fill="none"></circle>
<circle cx="953.448" cy="953.001" r="4" stroke="rgb(0,178,255)" stroke-width="2" fill="none"></circle>
<circle cx="6391.75" cy="1838.2" r="4" stroke="rgb(0,178,255)" stroke-width="2" fill="none"></circle>
<circle cx="1948.76" cy="1165.76" r="4" stroke="rgb(148,255,0)" stroke-width="2" fill="none"></circle>
<circle cx="6391.75" cy="1838.2" r="4" stroke="rgb(148,255,0)" stroke-width="2" fill="none"></circle>
<circle cx="2706.03" cy="1529.54" r="4" stroke="rgb(255,0,161)" stroke-width="2" fill="none"></circle>
<circle cx="6548.75" cy="1246.64" r="4" stroke="rgb(255,0,161)" stroke-width="2" fill="none"></circle>
<circle cx="1059.72" cy="935.885" r="4" stroke="rgb(97,255,0)" stroke-width="2" fill="none"></circle>
<circle cx="5845.33" cy="1416.74" r="4" stroke="rgb(97,255,0)" stroke-width="2" fill="none"></circle>
<circle cx="1783.25" cy="861.488" r="4" stroke="rgb(144,255,0)" stroke-width="2" fill="none"></circle>
<circle cx="5779.21" cy="1085.18" r="4" stroke="rgb(144,255,0)" stroke-width="2" fill="none"></circle>
<circle cx="953.448" cy="953.001" r="4" stroke="rgb(255,0,68)" stroke-width="2" fill="none"></circle>
<circle cx="6312.3" cy="1861.87" r="4" stroke="rgb(255,0,68)" stroke-width="2" fill="none"></circle>
<circle cx="1948.76" cy="1165.76" r="4" stroke="rgb(255,0,123)" stroke-width="2" fill="none"></circle>
<circle cx="6312.3" cy="1861.87" r="4" stroke="rgb(255,0,123)" stroke-width="2" fill="none"></circle>
<circle cx="1250.23" cy="787.78" r="4" stroke="rgb(255,114,0)" stroke-width="2" fill="none"></circle>
<circle cx="5319.11" cy="1785.55" r="4" stroke="rgb(255,114,0)" stroke-width="2" fill="none"></circle>
<circle cx="1783.25" cy="861.488" r="4" stroke="rgb(25,255,0)" stroke-width="2" fill="none"></circle>
<circle cx="5826.44" cy="1871.42" r="4" stroke="rgb(25,255,0)" stroke-width="2" fill="none"></circle>
<circle cx="2330.6" cy="630.835" r="4" stroke="rgb(0,255,152)" stroke-width="2" fill="none"></circle>
<circle cx="6473.09" cy="1522.51" r="4" stroke="rgb(0,255,152)" stroke-width="2" fill="none"></circle>
<circle cx="2794.81" cy="1387.7" r="4" stroke="rgb(255,0,80)" stroke-width="2" fill="none"></circle>
<circle cx="6882.95" cy="1921.86" r="4" stroke="rgb(255,0,80)" stroke-width="2" fill="none"></circle>
<circle cx="2141.37" cy="642.952" r="4" stroke="rgb(93,255,0)" stroke-width="2" fill="none"></circle>
<circle cx="6614.88" cy="1551.63" r="4" stroke="rgb(93,255,0)" stroke-width="2" fill="none"></circle>
<circle cx="1814.46" cy="1284.65" r="4" stroke="rgb(255,72,0)" stroke-width="2" fill="none"></circle>
<circle cx="6449.64" cy="1818.22" r="4" stroke="rgb(255,72,0)" stroke-width="2" fill="none"></circle>
<circle cx="2000.29" cy="966.005" r="4" stroke="rgb(255,0,221)" stroke-width="2" fill="none"></circle>
<circle cx="5774.07" cy="1578.71" r="4" stroke="rgb(255,0,221)" stroke-width="2" fill="none"></circle>
<circle cx="1599.97" cy="1218.46" r="4" stroke="rgb(110,0,255)" stroke-width="2" fill="none"></circle>
<circle cx="6530.59" cy="1466.09" r="4" stroke="rgb(110,0,255)" stroke-width="2" fill="none"></circle>
<circle cx="1948.76" cy="1165.76" r="4" stroke="rgb(178,0,255)" stroke-width="2" fill="none"></circle>
<circle cx="6429.07" cy="1593.22" r="4" stroke="rgb(178,0,255)" stroke-width="2" fill="none"></circle>
<circle cx="2401.43" cy="548.567" r="4" stroke="rgb(233,255,0)" stroke-width="2" fill="none"></circle>
<circle cx="5380.09" cy="1155" r="4" stroke="rgb(233,255,0)" stroke-width="2" fill="none"></circle>
<circle cx="1059.72" cy="935.885" r="4" stroke="rgb(0,101,255)" stroke-width="2" fill="none"></circle>
<circle cx="5729.14" cy="1146.66" r="4" stroke="rgb(0,101,255)" stroke-width="2" fill="none"></circle>
<circle cx="1059.72" cy="935.885" r="4" stroke="rgb(255,178,0)" stroke-width="2" fill="none"></circle>
<circle cx="6396.96" cy="1833.74" r="4" stroke="rgb(255,178,0)" stroke-width="2" fill="none"></circle>
<circle cx="1924.92" cy="1304.06" r="4" stroke="rgb(0,187,255)" stroke-width="2" fill="none"></circle>
<circle cx="5926.64" cy="1607.3" r="4" stroke="rgb(0,187,255)" stroke-width="2" fill="none"></circle>
<circle cx="1938.28" cy="1413.73" r="4" stroke="rgb(255,208,0)" stroke-width="2" fill="none"></circle>
<circle cx="6432.78" cy="1995.63" r="4" stroke="rgb(255,208,0)" stroke-width="2" fill="none"></circle>
<circle cx="2051.7" cy="511.919" r="4" stroke="rgb(255,46,0)" stroke-width="2" fill="none"></circle>
<circle cx="5671.34" cy="1997.09" r="4" stroke="rgb(255,46,0)" stroke-width="2" fill="none"></circle>
<circle cx="2735.89" cy="1489.98" r="4" stroke="rgb(89,0,255)" stroke-width="2" fill="none"></circle>
<circle cx="6994.55" cy="1741.46" r="4" stroke="rgb(89,0,255)" stroke-width="2" fill="none"></circle>
<circle cx="1511.9" cy="927.546" r="4" stroke="rgb(165,255,0)" stroke-width="2" fill="none"></circle>
<circle cx="6166.07" cy="1852.11" r="4" stroke="rgb(165,255,0)" stroke-width="2" fill="none"></circle>
<circle cx="1145.28" cy="1230.81" r="4" stroke="rgb(0,101,255)" stroke-width="2" fill="none"></circle>
<circle cx="5385.07" cy="1744.48" r="4" stroke="rgb(0,101,255)" stroke-width="2" fill="none"></circle>
<circle cx="1723.43" cy="883.667" r="4" stroke="rgb(106,0,255)" stroke-width="2" fill="none"></circle>
<circle cx="6453.81" cy="1637.42" r="4" stroke="rgb(106,0,255)" stroke-width="2" fill="none"></circle>
<circle cx="1723.43" cy="883.667" r="4" stroke="rgb(0,101,255)" stroke-width="2" fill="none"></circle>
<circle cx="6453.81" cy="1637.42" r="4" stroke="rgb(0,101,255)" stroke-width="2" fill="none"></circle>
<circle cx="1723.43" cy="883.667" r="4" stroke="rgb(255,0,204)" stroke-width="2" fill="none"></circle>
<circle cx="5966.88" cy="1188.82" r="4" stroke="rgb(255,0,204)" stroke-width="2" fill="none"></circle>
<circle cx="1996.18" cy="1520.44" r="4" stroke="rgb(157,0,255)" stroke-width="2" fill="none"></circle>
<circle cx="5324.06" cy="1750.35" r="4" stroke="rgb(157,0,255)" stroke-width="2" fill="none"></circle>
<circle cx="1059.72" cy="935.885" r="4" stroke="rgb(255,131,0)" stroke-width="2" fill="none"></circle>
<circle cx="6205.14" cy="1639.06" r="4" stroke="rgb(255,131,0)" stroke-width="2" fill="none"></circle>
<circle cx="1959.72" cy="1416.79" r="4" stroke="rgb(208,255,0)" stroke-width="2" fill="none"></circle>
<circle cx="5949.29" cy="1193.78" r="4" stroke="rgb(208,255,0)" stroke-width="2" fill="none"></circle>
<circle cx="2000.29" cy="966.005" r="4" stroke="rgb(255,0,55)" stroke-width="2" fill="none"></circle>
<circle cx="5752.46" cy="1207.55" r="4" stroke="rgb(255,0,55)" stroke-width="2" fill="none"></circle>
<circle cx="2400.57" cy="1488.39" r="4" stroke="rgb(255,0,51)" stroke-width="2" fill="none"></circle>
<circle cx="5883.62" cy="2117.96" r="4" stroke="rgb(255,0,51)" stroke-width="2" fill="none"></circle>
<circle cx="1924.92" cy="1304.06" r="4" stroke="rgb(106,0,255)" stroke-width="2" fill="none"></circle>
<circle cx="5867.59" cy="1533.36" r="4" stroke="rgb(106,0,255)" stroke-width="2" fill="none"></circle>
<circle cx="2943.92" cy="1045.32" r="4" stroke="rgb(148,255,0)" stroke-width="2" fill="none"></circle>
<circle cx="5657.07" cy="2153.84" r="4" stroke="rgb(148,255,0)" stroke-width="2" fill="none"></circle>
<circle cx="1948.76" cy="1165.76" r="4" stroke="rgb(195,255,0)" stroke-width="2" fill="none"></circle>
<circle cx="6342.39" cy="1658.88" r="4" stroke="rgb(195,255,0)" stroke-width="2" fill="none"></circle>
<circle cx="1059.72" cy="935.885" r="4" stroke="rgb(38,0,255)" stroke-width="2" fill="none"></circle>
<circle cx="6750.1" cy="1662.49" r="4" stroke="rgb(38,0,255)" stroke-width="2" fill="none"></circle>
<circle cx="1984.68" cy="679.648" r="4" stroke="rgb(203,0,255)" stroke-width="2" fill="none"></circle>
<circle cx="6965.66" cy="1222.41" r="4" stroke="rgb(203,0,255)" stroke-width="2" fill="none"></circle>
<circle cx="1948.76" cy="1165.76" r="4" stroke="rgb(255,0,110)" stroke-width="2" fill="none"></circle>
<circle cx="6138.21" cy="1547.46" r="4" stroke="rgb(255,0,110)" stroke-width="2" fill="none"></circle>
<circle cx="1938.28" cy="1413.73" r="4" stroke="rgb(0,17,255)" stroke-width="2" fill="none"></circle>
<circle cx="5626.61" cy="2294.89" r="4" stroke="rgb(0,17,255)" stroke-width="2" fill="none"></circle>
<circle cx="2001.41" cy="1381.72" r="4" stroke="rgb(148,255,0)" stroke-width="2" fill="none"></circle>
<circle cx="5623.38" cy="2300.28" r="4" stroke="rgb(148,255,0)" stroke-width="2" fill="none"></circle>
<circle cx="1453.31" cy="884.91" r="4" stroke="rgb(255,0,191)" stroke-width="2" fill="none"></circle>
<circle cx="5637.8" cy="2300.03" r="4" stroke="rgb(255,0,191)" stroke-width="2" fill="none"></circle>
<circle cx="1637.01" cy="1169.13" r="4" stroke="rgb(0,144,255)" stroke-width="2" fill="none"></circle>
<circle cx="5490.92" cy="2301.94" r="4" stroke="rgb(0,144,255)" stroke-width="2" fill="none"></circle>
<circle cx="1571.58" cy="1219.07" r="4" stroke="rgb(76,255,0)" stroke-width="2" fill="none"></circle>
<circle cx="6692.56" cy="1311.77" r="4" stroke="rgb(76,255,0)" stroke-width="2" fill="none"></circle>
<circle cx="1303.32" cy="995.913" r="4" stroke="rgb(0,255,63)" stroke-width="2" fill="none"></circle>
<circle cx="5586.81" cy="1788.3" r="4" stroke="rgb(0,255,63)" stroke-width="2" fill="none"></circle>
<circle cx="1303.32" cy="995.913" r="4" stroke="rgb(255,0,68)" stroke-width="2" fill="none"></circle>
<circle cx="5586.81" cy="1788.3" r="4" stroke="rgb(255,0,68)" stroke-width="2" fill="none"></circle>
<circle cx="1630.91" cy="1249.1" r="4" stroke="rgb(255,102,0)" stroke-width="2" fill="none"></circle>
<circle cx="5741.73" cy="2358.84" r="4" stroke="rgb(255,102,0)" stroke-width="2" fill="none"></circle>
<circle cx="1952.91" cy="1358.72" r="4" stroke="rgb(0,169,255)" stroke-width="2" fill="none"></circle>
<circle cx="6226.19" cy="2416.93" r="4" stroke="rgb(0,169,255)" stroke-width="2" fill="none"></circle>
<circle cx="1059.72" cy="935.885" r="4" stroke="rgb(0,169,255)" stroke-width="2" fill="none"></circle>
<circle cx="5704.89" cy="1349.41" r="4" stroke="rgb(0,169,255)" stroke-width="2" fill="none"></circle>
<circle cx="1596.07" cy="1265.09" r="4" stroke="rgb(246,0,255)" stroke-width="2" fill="none"></circle>
<circle cx="6939.52" cy="1590.69" r="4" stroke="rgb(246,0,255)" stroke-width="2" fill="none"></circle>
<circle cx="1956.22" cy="1293.82" r="4" stroke="rgb(123,0,255)" stroke-width="2" fill="none"></circle>
<circle cx="5764.79" cy="1941.22" r="4" stroke="rgb(123,0,255)" stroke-width="2" fill="none"></circle>
<circle cx="1836.24" cy="1274.54" r="4" stroke="rgb(42,0,255)" stroke-width="2" fill="none"></circle>
<circle cx="6468.05" cy="1601.54" r="4" stroke="rgb(42,0,255)" stroke-width="2" fill="none"></circle>
<circle cx="1814.46" cy="1284.65" r="4" stroke="rgb(0,246,255)" stroke-width="2" fill="none"></circle>
<circle cx="6462.24" cy="1605.6" r="4" stroke="rgb(0,246,255)" stroke-width="2" fill="none"></circle>
<circle cx="1959.72" cy="1416.79" r="4" stroke="rgb(0,255,212)" stroke-width="2" fill="none"></circle>
<circle cx="5549.9" cy="1607.82" r="4" stroke="rgb(0,255,212)" stroke-width="2" fill="none"></circle>
<circle cx="1758.61" cy="1404.72" r="4" stroke="rgb(0,157,255)" stroke-width="2" fill="none"></circle>
<circle cx="5799.56" cy="1615.07" r="4" stroke="rgb(0,157,255)" stroke-width="2" fill="none"></circle>
<circle cx="1303.32" cy="995.913" r="4" stroke="rgb(127,0,255)" stroke-width="2" fill="none"></circle>
<circle cx="6031.12" cy="1849.6" r="4" stroke="rgb(127,0,255)" stroke-width="2" fill="none"></circle>
<circle cx="1303.32" cy="995.913" r="4" stroke="rgb(191,255,0)" stroke-width="2" fill="none"></circle>
<circle cx="6031.12" cy="1849.6" r="4" stroke="rgb(191,255,0)" stroke-width="2" fill="none"></circle>
<circle cx="1303.32" cy="995.913" r="4" stroke="rgb(221,0,255)" stroke-width="2" fill="none"></circle>
<circle cx="6102.39" cy="1863.25" r="4" stroke="rgb(221,0,255)" stroke-width="2" fill="none"></circle>
<circle cx="1303.32" cy="995.913" r="4" stroke="rgb(0,76,255)" stroke-width="2" fill="none"></circle>
<circle cx="6102.39" cy="1863.25" r="4" stroke="rgb(0,76,255)" stroke-width="2" fill="none"></circle>
<circle cx="2671.25" cy="980.414" r="4" stroke="rgb(0,67,255)" stroke-width="2" fill="none"></circle>
<circle cx="5888.69" cy="2043.06" r="4" stroke="rgb(0,67,255)" stroke-width="2" fill="none"></circle>
<circle cx="1303.32" cy="995.913" r="4" stroke="rgb(0,191,255)" stroke-width="2" fill="none"></circle>
<circle cx="6244.24" cy="1887.71" r="4" stroke="rgb(0,191,255)" stroke-width="2" fill="none"></circle>
<circle cx="1303.32" cy="995.913" r="4" stroke="rgb(0,255,191)" stroke-width="2" fill="none"></circle>
<circle cx="6244.24" cy="1887.71" r="4" stroke="rgb(0,255,191)" stroke-width="2" fill="none"></circle>
<circle cx="1836.24" cy="1274.54" r="4" stroke="rgb(153,255,0)" stroke-width="2" fill="none"></circle>
<circle cx="5766.06" cy="2294.86" r="4" stroke="rgb(153,255,0)" stroke-width="2" fill="none"></circle>
<circle cx="2506.61" cy="615.76" r="4" stroke="rgb(0,242,255)" stroke-width="2" fill="none"></circle>
<circle cx="5542.56" cy="1976.55" r="4" stroke="rgb(0,242,255)" stroke-width="2" fill="none"></circle>
<circle cx="2822.83" cy="1148.59" r="4" stroke="rgb(208,255,0)" stroke-width="2" fill="none"></circle>
<circle cx="6272.08" cy="2008.98" r="4" stroke="rgb(208,255,0)" stroke-width="2" fill="none"></circle>
<circle cx="1959.72" cy="1416.79" r="4" stroke="rgb(255,174,0)" stroke-width="2" fill="none"></circle>
<circle cx="6442.27" cy="2169.44" r="4" stroke="rgb(255,174,0)" stroke-width="2" fill="none"></circle>
<circle cx="1122.9" cy="897.903" r="4" stroke="rgb(0,255,42)" stroke-width="2" fill="none"></circle>
<circle cx="4868.88" cy="2179.16" r="4" stroke="rgb(0,255,42)" stroke-width="2" fill="none"></circle>
<circle cx="2822.83" cy="1148.59" r="4" stroke="rgb(0,203,255)" stroke-width="2" fill="none"></circle>
<circle cx="5852.62" cy="2360.39" r="4" stroke="rgb(0,203,255)" stroke-width="2" fill="none"></circle>
<circle cx="1721.28" cy="954.948" r="4" stroke="rgb(255,0,131)" stroke-width="2" fill="none"></circle>
<circle cx="4954.25" cy="2397.33" r="4" stroke="rgb(255,0,131)" stroke-width="2" fill="none"></circle>
<circle cx="1952.91" cy="1358.72" r="4" stroke="rgb(67,255,0)" stroke-width="2" fill="none"></circle>
<circle cx="6275.51" cy="2413.71" r="4" stroke="rgb(67,255,0)" stroke-width="2" fill="none"></circle>
<circle cx="1704.56" cy="1174.42" r="4" stroke="rgb(221,255,0)" stroke-width="2" fill="none"></circle>
<circle cx="6427.98" cy="2513.29" r="4" stroke="rgb(221,255,0)" stroke-width="2" fill="none"></circle>
<circle cx="2584.73" cy="847.811" r="4" stroke="rgb(255,229,0)" stroke-width="2" fill="none"></circle>
<circle cx="4725.59" cy="731.672" r="4" stroke="rgb(255,229,0)" stroke-width="2" fill="none"></circle>
<circle cx="1941.43" cy="1409.14" r="4" stroke="rgb(216,0,255)" stroke-width="2" fill="none"></circle>
<circle cx="5889.2" cy="903.867" r="4" stroke="rgb(216,0,255)" stroke-width="2" fill="none"></circle>
<circle cx="2857.51" cy="809.212" r="4" stroke="rgb(0,255,110)" stroke-width="2" fill="none"></circle>
<circle cx="4887.68" cy="2386.45" r="4" stroke="rgb(0,255,110)" stroke-width="2" fill="none"></circle>
<circle cx="1909.69" cy="1183.03" r="4" stroke="rgb(255,123,0)" stroke-width="2" fill="none"></circle>
<circle cx="5962.5" cy="1396.11" r="4" stroke="rgb(255,123,0)" stroke-width="2" fill="none"></circle>
<circle cx="2397.34" cy="673.087" r="4" stroke="rgb(225,255,0)" stroke-width="2" fill="none"></circle>
<circle cx="5865.17" cy="2048.03" r="4" stroke="rgb(225,255,0)" stroke-width="2" fill="none"></circle>
<circle cx="2681.61" cy="1139.13" r="4" stroke="rgb(0,255,42)" stroke-width="2" fill="none"></circle>
<circle cx="5287.66" cy="1056.44" r="4" stroke="rgb(0,255,42)" stroke-width="2" fill="none"></circle>
<circle cx="1718.83" cy="1392.35" r="4" stroke="rgb(255,225,0)" stroke-width="2" fill="none"></circle>
<circle cx="5590.94" cy="2173.05" r="4" stroke="rgb(255,225,0)" stroke-width="2" fill="none"></circle>
<circle cx="1719.81" cy="1397.47" r="4" stroke="rgb(114,0,255)" stroke-width="2" fill="none"></circle>
<circle cx="5598.33" cy="2178.84" r="4" stroke="rgb(114,0,255)" stroke-width="2" fill="none"></circle>
<circle cx="2833.65" cy="1150.72" r="4" stroke="rgb(255,0,123)" stroke-width="2" fill="none"></circle>
<circle cx="6033.17" cy="813.043" r="4" stroke="rgb(255,0,123)" stroke-width="2" fill="none"></circle>
<circle cx="2735.89" cy="1489.98" r="4" stroke="rgb(0,67,255)" stroke-width="2" fill="none"></circle>
<circle cx="6994.63" cy="1742.01" r="4" stroke="rgb(0,67,255)" stroke-width="2" fill="none"></circle>
<circle cx="2288.07" cy="590.807" r="4" stroke="rgb(0,255,237)" stroke-width="2" fill="none"></circle>
<circle cx="5324.89" cy="1726.02" r="4" stroke="rgb(0,255,237)" stroke-width="2" fill="none"></circle>
<circle cx="1573.09" cy="1313.21" r="4" stroke="rgb(114,255,0)" stroke-width="2" fill="none"></circle>
<circle cx="5132.02" cy="1208.53" r="4" stroke="rgb(114,255,0)" stroke-width="2" fill="none"></circle>
<circle cx="3115.57" cy="1225.78" r="4" stroke="rgb(255,195,0)" stroke-width="2" fill="none"></circle>
<circle cx="5799.75" cy="2328.72" r="4" stroke="rgb(255,195,0)" stroke-width="2" fill="none"></circle>
<circle cx="2177.62" cy="570.211" r="4" stroke="rgb(0,89,255)" stroke-width="2" fill="none"></circle>
<circle cx="5882.52" cy="2429.98" r="4" stroke="rgb(0,89,255)" stroke-width="2" fill="none"></circle>
<circle cx="1511.9" cy="927.546" r="4" stroke="rgb(0,255,203)" stroke-width="2" fill="none"></circle>
<circle cx="5172.21" cy="1362.73" r="4" stroke="rgb(0,255,203)" stroke-width="2" fill="none"></circle>
<circle cx="1736.44" cy="1439.93" r="4" stroke="rgb(0,221,255)" stroke-width="2" fill="none"></circle>
<circle cx="6341.21" cy="1572.18" r="4" stroke="rgb(0,221,255)" stroke-width="2" fill="none"></circle>
<circle cx="1037.05" cy="1081.46" r="4" stroke="rgb(0,255,195)" stroke-width="2" fill="none"></circle>
<circle cx="5254.39" cy="1829.98" r="4" stroke="rgb(0,255,195)" stroke-width="2" fill="none"></circle>
<circle cx="1303.32" cy="995.913" r="4" stroke="rgb(84,255,0)" stroke-width="2" fill="none"></circle>
<circle cx="6031" cy="1849.4" r="4" stroke="rgb(84,255,0)" stroke-width="2" fill="none"></circle>
<circle cx="1303.32" cy="995.913" r="4" stroke="rgb(255,212,0)" stroke-width="2" fill="none"></circle>
<circle cx="6031" cy="1849.4" r="4" stroke="rgb(255,212,0)" stroke-width="2" fill="none"></circle>
<circle cx="1939.41" cy="1328.17" r="4" stroke="rgb(97,0,255)" stroke-width="2" fill="none"></circle>
<circle cx="6372.42" cy="1859.08" r="4" stroke="rgb(97,0,255)" stroke-width="2" fill="none"></circle>
<circle cx="1303.32" cy="995.913" r="4" stroke="rgb(233,0,255)" stroke-width="2" fill="none"></circle>
<circle cx="6102.35" cy="1863.29" r="4" stroke="rgb(233,0,255)" stroke-width="2" fill="none"></circle>
<circle cx="1303.32" cy="995.913" r="4" stroke="rgb(135,255,0)" stroke-width="2" fill="none"></circle>
<circle cx="6102.35" cy="1863.29" r="4" stroke="rgb(135,255,0)" stroke-width="2" fill="none"></circle>
<circle cx="1303.32" cy="995.913" r="4" stroke="rgb(255,0,55)" stroke-width="2" fill="none"></circle>
<circle cx="6174.96" cy="1876.93" r="4" stroke="rgb(255,0,55)" stroke-width="2" fill="none"></circle>
<circle cx="1303.32" cy="995.913" r="4" stroke="rgb(4,255,0)" stroke-width="2" fill="none"></circle>
<circle cx="6174.96" cy="1876.93" r="4" stroke="rgb(4,255,0)" stroke-width="2" fill="none"></circle>
<circle cx="1836.24" cy="1274.54" r="4" stroke="rgb(0,255,165)" stroke-width="2" fill="none"></circle>
<circle cx="5855.71" cy="1764.44" r="4" stroke="rgb(0,255,165)" stroke-width="2" fill="none"></circle>
<circle cx="1968.29" cy="1519.03" r="4" stroke="rgb(255,119,0)" stroke-width="2" fill="none"></circle>
<circle cx="5213.65" cy="1813.07" r="4" stroke="rgb(255,119,0)" stroke-width="2" fill="none"></circle>
<circle cx="2680.39" cy="1515.83" r="4" stroke="rgb(0,255,4)" stroke-width="2" fill="none"></circle>
<circle cx="6947.38" cy="1346.78" r="4" stroke="rgb(0,255,4)" stroke-width="2" fill="none"></circle>
<circle cx="2955.35" cy="1010.85" r="4" stroke="rgb(0,72,255)" stroke-width="2" fill="none"></circle>
<circle cx="6393.9" cy="1563.93" r="4" stroke="rgb(0,72,255)" stroke-width="2" fill="none"></circle>
<circle cx="2019.43" cy="496.728" r="4" stroke="rgb(255,0,12)" stroke-width="2" fill="none"></circle>
<circle cx="5104.58" cy="1263.33" r="4" stroke="rgb(255,0,12)" stroke-width="2" fill="none"></circle>
<circle cx="1208.41" cy="767.816" r="4" stroke="rgb(0,63,255)" stroke-width="2" fill="none"></circle>
<circle cx="5546.45" cy="1831.54" r="4" stroke="rgb(0,63,255)" stroke-width="2" fill="none"></circle>
<circle cx="2085.35" cy="564.894" r="4" stroke="rgb(0,255,186)" stroke-width="2" fill="none"></circle>
<circle cx="5379.72" cy="1265.79" r="4" stroke="rgb(0,255,186)" stroke-width="2" fill="none"></circle>
</svg>