<?xml version="1.0" standalone="yes"?>
<!-- SVG graphic -->
<svg xmlns='http://www.w3.org/2000/svg' xmlns:xlink='http://www.w3.org/1999/xlink'
width="8064px" height="3024px" preserveAspectRatio="xMinYMin meet" viewBox="0 0 8064 3024" version="1.1">
<image x="0" y="0" width="4032px" height="3024px" opacity="1" xlink:href="/home/jeong/Code/2D-to-3D-Modeling-using-AI/Make3D/Image/20200227_180724.jpg"/>
<image x="4032" y="0" width="4032px" height="3024px" opacity="1" xlink:href="/home/jeong/Code/2D-to-3D-Modeling-using-AI/Make3D/Image/20200227_180816.jpg"/>
<polyline points="2409.44,1382.59,5268.95,628.664" stroke="rgb(255,0,140)" stroke-width="2" fill="none"></polyline>
<polyline points="1997.91,1374.4,5619.27,2087.84" stroke="rgb(0,29,255)" stroke-width="2" fill="none"></polyline>
<polyline points="1465.93,1056.57,5770.59,1268.21" stroke="rgb(255,0,242)" stroke-width="2" fill="none"></polyline>
<polyline points="3079.47,1619.78,5716.15,655.949" stroke="rgb(0,255,233)" stroke-width="2" fill="none"></polyline>
<polyline points="2619.89,905.48,4925.02,660.77" stroke="rgb(0,255,250)" stroke-width="2" fill="none"></polyline>
<polyline points="2039.11,1932.48,5415.39,1399.15" stroke="rgb(97,255,0)" stroke-width="2" fill="none"></polyline>
<polyline points="2055.43,1966.59,5408.79,1403.51" stroke="rgb(0,203,255)" stroke-width="2" fill="none"></polyline>
<polyline points="2039.28,1908,5771.4,2129.89" stroke="rgb(0,169,255)" stroke-width="2" fill="none"></polyline>
<polyline points="2562.21,1047.86,5575.92,2174.72" stroke="rgb(127,0,255)" stroke-width="2" fill="none"></polyline>
<polyline points="2048.15,1948.68,5302.2,2176.22" stroke="rgb(42,255,0)" stroke-width="2" fill="none"></polyline>
<polyline points="2118.46,1158.44,6842.36,1290.89" stroke="rgb(0,255,8)" stroke-width="2" fill="none"></polyline>
<polyline points="2045.27,1935.46,5283.04,1292.44" stroke="rgb(0,114,255)" stroke-width="2" fill="none"></polyline>
<polyline points="2320.82,1182.78,5107.49,2209.43" stroke="rgb(0,212,255)" stroke-width="2" fill="none"></polyline>
<polyline points="2126.36,813.063,6431.04,2210.48" stroke="rgb(80,0,255)" stroke-width="2" fill="none"></polyline>
<polyline points="2060.4,1931.05,5613.98,2212.3" stroke="rgb(255,170,0)" stroke-width="2" fill="none"></polyline>
<polyline points="1476.47,1076.23,4814.16,2222.76" stroke="rgb(0,255,233)" stroke-width="2" fill="none"></polyline>
<polyline points="2674.56,1456.95,5601.23,751.992" stroke="rgb(255,148,0)" stroke-width="2" fill="none"></polyline>
<polyline points="2013.03,1937.72,5866.7,759.053" stroke="rgb(255,0,55)" stroke-width="2" fill="none"></polyline>
<polyline points="1860.54,680.792,5723.34,760.056" stroke="rgb(255,0,68)" stroke-width="2" fill="none"></polyline>
<polyline points="1676.09,914.83,6799.68,2196.22" stroke="rgb(0,4,255)" stroke-width="2" fill="none"></polyline>
<polyline points="2184.18,1834.22,6827.73,2200.95" stroke="rgb(76,0,255)" stroke-width="2" fill="none"></polyline>
<polyline points="2035.12,1651.73,5612.82,2237.67" stroke="rgb(255,255,0)" stroke-width="2" fill="none"></polyline>
<polyline points="2676.25,1724.61,5515.53,784.916" stroke="rgb(233,0,255)" stroke-width="2" fill="none"></polyline>
<polyline points="2037.46,1913.92,6612.92,1429.84" stroke="rgb(0,255,114)" stroke-width="2" fill="none"></polyline>
<polyline points="2059.99,1925.1,5538.24,793.68" stroke="rgb(59,0,255)" stroke-width="2" fill="none"></polyline>
<polyline points="2350.92,2100.97,6599.73,2214.3" stroke="rgb(255,212,0)" stroke-width="2" fill="none"></polyline>
<polyline points="2029.79,1887.92,5535.88,807.64" stroke="rgb(0,195,255)" stroke-width="2" fill="none"></polyline>
<polyline points="2013.03,1937.72,5796.03,814.516" stroke="rgb(0,255,93)" stroke-width="2" fill="none"></polyline>
<polyline points="2676.25,1724.61,5973.03,836.032" stroke="rgb(255,255,0)" stroke-width="2" fill="none"></polyline>
<polyline points="2973.87,1130.21,5343.89,2268.55" stroke="rgb(127,255,0)" stroke-width="2" fill="none"></polyline>
<polyline points="2074.22,1299.75,6645.59,1328.27" stroke="rgb(255,0,59)" stroke-width="2" fill="none"></polyline>
<polyline points="3198.99,2151.38,5652.12,1330.26" stroke="rgb(255,114,0)" stroke-width="2" fill="none"></polyline>
<polyline points="2126.36,813.063,6819.22,2288.55" stroke="rgb(255,0,153)" stroke-width="2" fill="none"></polyline>
<polyline points="2019.9,1988.03,5290.74,1362.64" stroke="rgb(0,255,174)" stroke-width="2" fill="none"></polyline>
<polyline points="2676.25,1724.61,6092.75,888.642" stroke="rgb(191,255,0)" stroke-width="2" fill="none"></polyline>
<polyline points="2060.4,1931.05,6753.52,2320.48" stroke="rgb(255,63,0)" stroke-width="2" fill="none"></polyline>
<polyline points="2126.36,813.063,5395.7,897.844" stroke="rgb(76,0,255)" stroke-width="2" fill="none"></polyline>
<polyline points="2676.25,1724.61,6092.58,896.804" stroke="rgb(0,255,80)" stroke-width="2" fill="none"></polyline>
<polyline points="2126.36,813.063,5814.9,2401.26" stroke="rgb(140,255,0)" stroke-width="2" fill="none"></polyline>
<polyline points="2013.03,1937.72,4733.4,2332.27" stroke="rgb(0,255,203)" stroke-width="2" fill="none"></polyline>
<polyline points="1933.64,1121.07,6878.33,1467.55" stroke="rgb(42,0,255)" stroke-width="2" fill="none"></polyline>
<polyline points="2579.54,1174.32,6178.85,937.143" stroke="rgb(0,131,255)" stroke-width="2" fill="none"></polyline>
<polyline points="2016.84,1945.94,6795.53,1700.7" stroke="rgb(55,0,255)" stroke-width="2" fill="none"></polyline>
<polyline points="2039.28,1908,5509.01,2424.88" stroke="rgb(255,0,204)" stroke-width="2" fill="none"></polyline>
<polyline points="2762.73,1618.28,5570.92,2533.61" stroke="rgb(51,255,0)" stroke-width="2" fill="none"></polyline>
<polyline points="2533.12,1882.38,4915.42,977.978" stroke="rgb(0,255,195)" stroke-width="2" fill="none"></polyline>
<polyline points="2126.36,813.063,6378.69,2538.63" stroke="rgb(0,255,33)" stroke-width="2" fill="none"></polyline>
<polyline points="1465.93,1056.57,6433.2,1391.6" stroke="rgb(255,68,0)" stroke-width="2" fill="none"></polyline>
<polyline points="1465.93,1056.57,6433.2,1391.6" stroke="rgb(255,106,0)" stroke-width="2" fill="none"></polyline>
<polyline points="2029.95,1421.72,5084.57,1393.65" stroke="rgb(255,0,68)" stroke-width="2" fill="none"></polyline>
<polyline points="1933.64,1121.07,6879.84,1494.9" stroke="rgb(63,0,255)" stroke-width="2" fill="none"></polyline>
<polyline points="1933.64,1121.07,6879.84,1494.9" stroke="rgb(182,0,255)" stroke-width="2" fill="none"></polyline>
<polyline points="2579.54,1174.32,6178.85,940.554" stroke="rgb(153,0,255)" stroke-width="2" fill="none"></polyline>
<polyline points="2016.84,1945.94,5513.65,2593.7" stroke="rgb(0,208,255)" stroke-width="2" fill="none"></polyline>
<polyline points="1955,1848.04,6668.73,1409.6" stroke="rgb(212,255,0)" stroke-width="2" fill="none"></polyline>
<polyline points="2943.95,2013.57,6635.2,2634.14" stroke="rgb(0,255,212)" stroke-width="2" fill="none"></polyline>
<polyline points="1465.93,1056.57,6194.09,1420.75" stroke="rgb(29,255,0)" stroke-width="2" fill="none"></polyline>
<polyline points="1465.93,1056.57,6194.09,1420.75" stroke="rgb(102,0,255)" stroke-width="2" fill="none"></polyline>
<polyline points="1465.93,1056.57,5522.18,1521.5" stroke="rgb(0,237,255)" stroke-width="2" fill="none"></polyline>
<polyline points="1465.93,1056.57,5517.51,1042.88" stroke="rgb(0,255,229)" stroke-width="2" fill="none"></polyline>
<polyline points="1740.81,1551.45,6789.53,1445.5" stroke="rgb(0,55,255)" stroke-width="2" fill="none"></polyline>
<polyline points="2024.21,1867.1,6557.82,1426.43" stroke="rgb(255,178,0)" stroke-width="2" fill="none"></polyline>
<polyline points="2039.11,1932.48,6435.45,1532.01" stroke="rgb(199,255,0)" stroke-width="2" fill="none"></polyline>
<polyline points="1726.27,1581.52,6282.53,1005.32" stroke="rgb(242,255,0)" stroke-width="2" fill="none"></polyline>
<polyline points="2039.28,1908,6183.81,1537.55" stroke="rgb(0,157,255)" stroke-width="2" fill="none"></polyline>
<polyline points="3055.38,1648.92,6587.62,2659.54" stroke="rgb(0,255,118)" stroke-width="2" fill="none"></polyline>
<polyline points="1451,670.522,5893.62,2664.67" stroke="rgb(178,255,0)" stroke-width="2" fill="none"></polyline>
<polyline points="2037.46,1913.92,5617.51,1491.13" stroke="rgb(255,0,110)" stroke-width="2" fill="none"></polyline>
<polyline points="1657.13,884.142,5762.15,1897.25" stroke="rgb(0,255,169)" stroke-width="2" fill="none"></polyline>
<polyline points="1980.52,1918.06,5518.8,1902.67" stroke="rgb(0,255,191)" stroke-width="2" fill="none"></polyline>
<polyline points="2783.22,1436.66,5472.85,1927.57" stroke="rgb(255,59,0)" stroke-width="2" fill="none"></polyline>
<polyline points="1980.52,1918.06,5630.82,1953.14" stroke="rgb(255,212,0)" stroke-width="2" fill="none"></polyline>
<polyline points="2039.28,1908,5515.56,1508.94" stroke="rgb(29,0,255)" stroke-width="2" fill="none"></polyline>
<polyline points="2013.03,1937.72,6806.77,1467.26" stroke="rgb(118,0,255)" stroke-width="2" fill="none"></polyline>
<polyline points="2023.56,2001.59,6602.91,1095.27" stroke="rgb(255,8,0)" stroke-width="2" fill="none"></polyline>
<polyline points="2169.41,845.036,6723.76,1980.26" stroke="rgb(0,55,255)" stroke-width="2" fill="none"></polyline>
<polyline points="1756.07,1642.11,6556.16,1481.58" stroke="rgb(255,0,229)" stroke-width="2" fill="none"></polyline>
<polyline points="2013.03,1937.72,5369.53,2000.87" stroke="rgb(255,8,0)" stroke-width="2" fill="none"></polyline>
<polyline points="2013.03,1937.72,5369.53,2000.87" stroke="rgb(12,0,255)" stroke-width="2" fill="none"></polyline>
<polyline points="2016.84,1945.94,5366.08,2007.78" stroke="rgb(255,0,123)" stroke-width="2" fill="none"></polyline>
<polyline points="1465.93,1056.57,5588.05,1144.7" stroke="rgb(0,93,255)" stroke-width="2" fill="none"></polyline>
<polyline points="1975.32,1096.57,6761.62,1126.01" stroke="rgb(0,255,80)" stroke-width="2" fill="none"></polyline>
<polyline points="1933.64,1121.07,6879.63,1505.56" stroke="rgb(0,255,25)" stroke-width="2" fill="none"></polyline>
<polyline points="3198.99,2151.38,5560.28,1514.49" stroke="rgb(255,29,0)" stroke-width="2" fill="none"></polyline>
<polyline points="1950.07,1911.12,5246.82,1187.36" stroke="rgb(0,161,255)" stroke-width="2" fill="none"></polyline>
<polyline points="2330.32,1423.22,6739.14,1514.29" stroke="rgb(216,255,0)" stroke-width="2" fill="none"></polyline>
<polyline points="2579.54,1174.32,5977.63,1514.84" stroke="rgb(255,208,0)" stroke-width="2" fill="none"></polyline>
<polyline points="2041.92,1926.55,6425.83,1655.95" stroke="rgb(255,0,191)" stroke-width="2" fill="none"></polyline>
<polyline points="2044.54,1898.49,6095.93,1663.45" stroke="rgb(255,0,114)" stroke-width="2" fill="none"></polyline>
<polyline points="1465.93,1056.57,6262.92,1548.07" stroke="rgb(0,25,255)" stroke-width="2" fill="none"></polyline>
<polyline points="3198.99,2151.38,5508.24,1263.78" stroke="rgb(255,4,0)" stroke-width="2" fill="none"></polyline>
<polyline points="1709.85,869.166,5148.91,1553.15" stroke="rgb(203,255,0)" stroke-width="2" fill="none"></polyline>
<polyline points="2044.54,1898.49,5693.81,1646.83" stroke="rgb(153,0,255)" stroke-width="2" fill="none"></polyline>
<polyline points="2095.18,2648.89,5210.21,1332.92" stroke="rgb(255,0,225)" stroke-width="2" fill="none"></polyline>
<polyline points="2816.74,1824.62,5997.12,1757.43" stroke="rgb(255,29,0)" stroke-width="2" fill="none"></polyline>
<polyline points="2676.25,1724.61,6150.22,1795.82" stroke="rgb(255,0,33)" stroke-width="2" fill="none"></polyline>
<polyline points="2126.36,813.063,6284.87,1860.03" stroke="rgb(255,0,140)" stroke-width="2" fill="none"></polyline>
<polyline points="2041.92,1926.55,6379.61,1922.91" stroke="rgb(255,0,182)" stroke-width="2" fill="none"></polyline>
<polyline points="1980.52,1918.06,5551.67,1924.31" stroke="rgb(255,0,144)" stroke-width="2" fill="none"></polyline>
<polyline points="2763.89,976.365,6628.91,2013.9" stroke="rgb(0,255,29)" stroke-width="2" fill="none"></polyline>
<polyline points="1942.47,1832.44,6824.21,2027.78" stroke="rgb(255,0,21)" stroke-width="2" fill="none"></polyline>
<polyline points="2776.23,2182.41,5649.18,1837.28" stroke="rgb(255,0,85)" stroke-width="2" fill="none"></polyline>
<polyline points="3134.93,2167.71,5807.47,1872.84" stroke="rgb(0,255,242)" stroke-width="2" fill="none"></polyline>
<polyline points="1975.32,1096.57,5462.43,2110.23" stroke="rgb(8,0,255)" stroke-width="2" fill="none"></polyline>
<polyline points="2785.59,1364.71,6260.89,2122.33" stroke="rgb(0,255,0)" stroke-width="2" fill="none"></polyline>
<polyline points="2055.43,1966.59,6431.29,2486.51" stroke="rgb(255,221,0)" stroke-width="2" fill="none"></polyline>
<polyline points="2023.56,2001.59,5719.53,2574.17" stroke="rgb(46,255,0)" stroke-width="2" fill="none"></polyline>
<polyline points="2044.54,1898.49,5658.42,2361.1" stroke="rgb(229,255,0)" stroke-width="2" fill="none"></polyline>
<polyline points="2061.34,1944.14,5687.29,1398.33" stroke="rgb(195,0,255)" stroke-width="2" fill="none"></polyline>
<polyline points="2473.16,1143.81,5112.66,1609.63" stroke="rgb(255,0,29)" stroke-width="2" fill="none"></polyline>
<polyline points="2067.42,1955.83,6707.84,2522.58" stroke="rgb(123,0,255)" stroke-width="2" fill="none"></polyline>
<polyline points="1731.25,1269.28,5644.73,1828.85" stroke="rgb(255,72,0)" stroke-width="2" fill="none"></polyline>
<polyline points="2429.02,1067.3,6729.85,1971.14" stroke="rgb(0,255,50)" stroke-width="2" fill="none"></polyline>
<polyline points="1754.44,876.291,5126.57,1044.59" stroke="rgb(255,153,0)" stroke-width="2" fill="none"></polyline>
<polyline points="1726.43,1518.86,6468.07,2341.56" stroke="rgb(255,102,0)" stroke-width="2" fill="none"></polyline>
<polyline points="3186.45,2165.62,6696.55,1332.71" stroke="rgb(255,0,110)" stroke-width="2" fill="none"></polyline>
<polyline points="1748.7,1697.24,5469.63,2108.83" stroke="rgb(63,255,0)" stroke-width="2" fill="none"></polyline>
<polyline points="2335.9,1432.19,6693.82,2502.67" stroke="rgb(199,255,0)" stroke-width="2" fill="none"></polyline>
<polyline points="1752.91,1620.54,5582.04,2103.12" stroke="rgb(208,0,255)" stroke-width="2" fill="none"></polyline>
<polyline points="2616.73,907.797,4643.65,2400.28" stroke="rgb(255,0,212)" stroke-width="2" fill="none"></polyline>
<polyline points="2119.5,1639.47,4895.97,2815.28" stroke="rgb(0,255,250)" stroke-width="2" fill="none"></polyline>
<polyline points="2587.12,858.922,6707.76,1387.92" stroke="rgb(0,255,182)" stroke-width="2" fill="none"></polyline>
<polyline points="3130.66,1534.84,5728.38,1566.04" stroke="rgb(255,97,0)" stroke-width="2" fill="none"></polyline>
<polyline points="2219.24,1836.93,4763.64,2315.81" stroke="rgb(255,0,136)" stroke-width="2" fill="none"></polyline>
<polyline points="3186.45,2165.62,5395.35,2490.93" stroke="rgb(42,255,0)" stroke-width="2" fill="none"></polyline>
<polyline points="1487.26,908.161,5420.43,2364.45" stroke="rgb(93,0,255)" stroke-width="2" fill="none"></polyline>
<polyline points="2847.83,1150.43,6212.74,722.579" stroke="rgb(255,0,169)" stroke-width="2" fill="none"></polyline>
<polyline points="2847.83,1150.43,6223.23,729.35" stroke="rgb(182,255,0)" stroke-width="2" fill="none"></polyline>
<circle cx="2409.44" cy="1382.59" r="4" stroke="rgb(255,0,140)" stroke-width="2" fill="none"></circle>
<circle cx="5268.95" cy="628.664" r="4" stroke="rgb(255,0,140)" stroke-width="2" fill="none"></circle>
<circle cx="1997.91" cy="1374.4" r="4" stroke="rgb(0,29,255)" stroke-width="2" fill="none"></circle>
<circle cx="5619.27" cy="2087.84" r="4" stroke="rgb(0,29,255)" stroke-width="2" fill="none"></circle>
<circle cx="1465.93" cy="1056.57" r="4" stroke="rgb(255,0,242)" stroke-width="2" fill="none"></circle>
<circle cx="5770.59" cy="1268.21" r="4" stroke="rgb(255,0,242)" stroke-width="2" fill="none"></circle>
<circle cx="3079.47" cy="1619.78" r="4" stroke="rgb(0,255,233)" stroke-width="2" fill="none"></circle>
<circle cx="5716.15" cy="655.949" r="4" stroke="rgb(0,255,233)" stroke-width="2" fill="none"></circle>
<circle cx="2619.89" cy="905.48" r="4" stroke="rgb(0,255,250)" stroke-width="2" fill="none"></circle>
<circle cx="4925.02" cy="660.77" r="4" stroke="rgb(0,255,250)" stroke-width="2" fill="none"></circle>
<circle cx="2039.11" cy="1932.48" r="4" stroke="rgb(97,255,0)" stroke-width="2" fill="none"></circle>
<circle cx="5415.39" cy="1399.15" r="4" stroke="rgb(97,255,0)" stroke-width="2" fill="none"></circle>
<circle cx="2055.43" cy="1966.59" r="4" stroke="rgb(0,203,255)" stroke-width="2" fill="none"></circle>
<circle cx="5408.79" cy="1403.51" r="4" stroke="rgb(0,203,255)" stroke-width="2" fill="none"></circle>
<circle cx="2039.28" cy="1908" r="4" stroke="rgb(0,169,255)" stroke-width="2" fill="none"></circle>
<circle cx="5771.4" cy="2129.89" r="4" stroke="rgb(0,169,255)" stroke-width="2" fill="none"></circle>
<circle cx="2562.21" cy="1047.86" r="4" stroke="rgb(127,0,255)" stroke-width="2" fill="none"></circle>
<circle cx="5575.92" cy="2174.72" r="4" stroke="rgb(127,0,255)" stroke-width="2" fill="none"></circle>
<circle cx="2048.15" cy="1948.68" r="4" stroke="rgb(42,255,0)" stroke-width="2" fill="none"></circle>
<circle cx="5302.2" cy="2176.22" r="4" stroke="rgb(42,255,0)" stroke-width="2" fill="none"></circle>
<circle cx="2118.46" cy="1158.44" r="4" stroke="rgb(0,255,8)" stroke-width="2" fill="none"></circle>
<circle cx="6842.36" cy="1290.89" r="4" stroke="rgb(0,255,8)" stroke-width="2" fill="none"></circle>
<circle cx="2045.27" cy="1935.46" r="4" stroke="rgb(0,114,255)" stroke-width="2" fill="none"></circle>
<circle cx="5283.04" cy="1292.44" r="4" stroke="rgb(0,114,255)" stroke-width="2" fill="none"></circle>
<circle cx="2320.82" cy="1182.78" r="4" stroke="rgb(0,212,255)" stroke-width="2" fill="none"></circle>
<circle cx="5107.49" cy="2209.43" r="4" stroke="rgb(0,212,255)" stroke-width="2" fill="none"></circle>
<circle cx="2126.36" cy="813.063" r="4" stroke="rgb(80,0,255)" stroke-width="2" fill="none"></circle>
<circle cx="6431.04" cy="2210.48" r="4" stroke="rgb(80,0,255)" stroke-width="2" fill="none"></circle>
<circle cx="2060.4" cy="1931.05" r="4" stroke="rgb(255,170,0)" stroke-width="2" fill="none"></circle>
<circle cx="5613.98" cy="2212.3" r="4" stroke="rgb(255,170,0)" stroke-width="2" fill="none"></circle>
<circle cx="1476.47" cy="1076.23" r="4" stroke="rgb(0,255,233)" stroke-width="2" fill="none"></circle>
<circle cx="4814.16" cy="2222.76" r="4" stroke="rgb(0,255,233)" stroke-width="2" fill="none"></circle>
<circle cx="2674.56" cy="1456.95" r="4" stroke="rgb(255,148,0)" stroke-width="2" fill="none"></circle>
<circle cx="5601.23" cy="751.992" r="4" stroke="rgb(255,148,0)" stroke-width="2" fill="none"></circle>
<circle cx="2013.03" cy="1937.72" r="4" stroke="rgb(255,0,55)" stroke-width="2" fill="none"></circle>
<circle cx="5866.7" cy="759.053" r="4" stroke="rgb(255,0,55)" stroke-width="2" fill="none"></circle>
<circle cx="1860.54" cy="680.792" r="4" stroke="rgb(255,0,68)" stroke-width="2" fill="none"></circle>
<circle cx="5723.34" cy="760.056" r="4" stroke="rgb(255,0,68)" stroke-width="2" fill="none"></circle>
<circle cx="1676.09" cy="914.83" r="4" stroke="rgb(0,4,255)" stroke-width="2" fill="none"></circle>
<circle cx="6799.68" cy="2196.22" r="4" stroke="rgb(0,4,255)" stroke-width="2" fill="none"></circle>
<circle cx="2184.18" cy="1834.22" r="4" stroke="rgb(76,0,255)" stroke-width="2" fill="none"></circle>
<circle cx="6827.73" cy="2200.95" r="4" stroke="rgb(76,0,255)" stroke-width="2" fill="none"></circle>
<circle cx="2035.12" cy="1651.73" r="4" stroke="rgb(255,255,0)" stroke-width="2" fill="none"></circle>
<circle cx="5612.82" cy="2237.67" r="4" stroke="rgb(255,255,0)" stroke-width="2" fill="none"></circle>
<circle cx="2676.25" cy="1724.61" r="4" stroke="rgb(233,0,255)" stroke-width="2" fill="none"></circle>
<circle cx="5515.53" cy="784.916" r="4" stroke="rgb(233,0,255)" stroke-width="2" fill="none"></circle>
<circle cx="2037.46" cy="1913.92" r="4" stroke="rgb(0,255,114)" stroke-width="2" fill="none"></circle>
<circle cx="6612.92" cy="1429.84" r="4" stroke="rgb(0,255,114)" stroke-width="2" fill="none"></circle>
<circle cx="2059.99" cy="1925.1" r="4" stroke="rgb(59,0,255)" stroke-width="2" fill="none"></circle>
<circle cx="5538.24" cy="793.68" r="4" stroke="rgb(59,0,255)" stroke-width="2" fill="none"></circle>
<circle cx="2350.92" cy="2100.97" r="4" stroke="rgb(255,212,0)" stroke-width="2" fill="none"></circle>
<circle cx="6599.73" cy="2214.3" r="4" stroke="rgb(255,212,0)" stroke-width="2" fill="none"></circle>
<circle cx="2029.79" cy="1887.92" r="4" stroke="rgb(0,195,255)" stroke-width="2" fill="none"></circle>
<circle cx="5535.88" cy="807.64" r="4" stroke="rgb(0,195,255)" stroke-width="2" fill="none"></circle>
<circle cx="2013.03" cy="1937.72" r="4" stroke="rgb(0,255,93)" stroke-width="2" fill="none"></circle>
<circle cx="5796.03" cy="814.516" r="4" stroke="rgb(0,255,93)" stroke-width="2" fill="none"></circle>
<circle cx="2676.25" cy="1724.61" r="4" stroke="rgb(255,255,0)" stroke-width="2" fill="none"></circle>
<circle cx="5973.03" cy="836.032" r="4" stroke="rgb(255,255,0)" stroke-width="2" fill="none"></circle>
<circle cx="2973.87" cy="1130.21" r="4" stroke="rgb(127,255,0)" stroke-width="2" fill="none"></circle>
<circle cx="5343.89" cy="2268.55" r="4" stroke="rgb(127,255,0)" stroke-width="2" fill="none"></circle>
<circle cx="2074.22" cy="1299.75" r="4" stroke="rgb(255,0,59)" stroke-width="2" fill="none"></circle>
<circle cx="6645.59" cy="1328.27" r="4" stroke="rgb(255,0,59)" stroke-width="2" fill="none"></circle>
<circle cx="3198.99" cy="2151.38" r="4" stroke="rgb(255,114,0)" stroke-width="2" fill="none"></circle>
<circle cx="5652.12" cy="1330.26" r="4" stroke="rgb(255,114,0)" stroke-width="2" fill="none"></circle>
<circle cx="2126.36" cy="813.063" r="4" stroke="rgb(255,0,153)" stroke-width="2" fill="none"></circle>
<circle cx="6819.22" cy="2288.55" r="4" stroke="rgb(255,0,153)" stroke-width="2" fill="none"></circle>
<circle cx="2019.9" cy="1988.03" r="4" stroke="rgb(0,255,174)" stroke-width="2" fill="none"></circle>
<circle cx="5290.74" cy="1362.64" r="4" stroke="rgb(0,255,174)" stroke-width="2" fill="none"></circle>
<circle cx="2676.25" cy="1724.61" r="4" stroke="rgb(191,255,0)" stroke-width="2" fill="none"></circle>
<circle cx="6092.75" cy="888.642" r="4" stroke="rgb(191,255,0)" stroke-width="2" fill="none"></circle>
<circle cx="2060.4" cy="1931.05" r="4" stroke="rgb(255,63,0)" stroke-width="2" fill="none"></circle>
<circle cx="6753.52" cy="2320.48" r="4" stroke="rgb(255,63,0)" stroke-width="2" fill="none"></circle>
<circle cx="2126.36" cy="813.063" r="4" stroke="rgb(76,0,255)" stroke-width="2" fill="none"></circle>
<circle cx="5395.7" cy="897.844" r="4" stroke="rgb(76,0,255)" stroke-width="2" fill="none"></circle>
<circle cx="2676.25" cy="1724.61" r="4" stroke="rgb(0,255,80)" stroke-width="2" fill="none"></circle>
<circle cx="6092.58" cy="896.804" r="4" stroke="rgb(0,255,80)" stroke-width="2" fill="none"></circle>
<circle cx="2126.36" cy="813.063" r="4" stroke="rgb(140,255,0)" stroke-width="2" fill="none"></circle>
<circle cx="5814.9" cy="2401.26" r="4" stroke="rgb(140,255,0)" stroke-width="2" fill="none"></circle>
<circle cx="2013.03" cy="1937.72" r="4" stroke="rgb(0,255,203)" stroke-width="2" fill="none"></circle>
<circle cx="4733.4" cy="2332.27" r="4" stroke="rgb(0,255,203)" stroke-width="2" fill="none"></circle>
<circle cx="1933.64" cy="1121.07" r="4" stroke="rgb(42,0,255)" stroke-width="2" fill="none"></circle>
<circle cx="6878.33" cy="1467.55" r="4" stroke="rgb(42,0,255)" stroke-width="2" fill="none"></circle>
<circle cx="2579.54" cy="1174.32" r="4" stroke="rgb(0,131,255)" stroke-width="2" fill="none"></circle>
<circle cx="6178.85" cy="937.143" r="4" stroke="rgb(0,131,255)" stroke-width="2" fill="none"></circle>
<circle cx="2016.84" cy="1945.94" r="4" stroke="rgb(55,0,255)" stroke-width="2" fill="none"></circle>
<circle cx="6795.53" cy="1700.7" r="4" stroke="rgb(55,0,255)" stroke-width="2" fill="none"></circle>
<circle cx="2039.28" cy="1908" r="4" stroke="rgb(255,0,204)" stroke-width="2" fill="none"></circle>
<circle cx="5509.01" cy="2424.88" r="4" stroke="rgb(255,0,204)" stroke-width="2" fill="none"></circle>
<circle cx="2762.73" cy="1618.28" r="4" stroke="rgb(51,255,0)" stroke-width="2" fill="none"></circle>
<circle cx="5570.92" cy="2533.61" r="4" stroke="rgb(51,255,0)" stroke-width="2" fill="none"></circle>
<circle cx="2533.12" cy="1882.38" r="4" stroke="rgb(0,255,195)" stroke-width="2" fill="none"></circle>
<circle cx="4915.42" cy="977.978" r="4" stroke="rgb(0,255,195)" stroke-width="2" fill="none"></circle>
<circle cx="2126.36" cy="813.063" r="4" stroke="rgb(0,255,33)" stroke-width="2" fill="none"></circle>
<circle cx="6378.69" cy="2538.63" r="4" stroke="rgb(0,255,33)" stroke-width="2" fill="none"></circle>
<circle cx="1465.93" cy="1056.57" r="4" stroke="rgb(255,68,0)" stroke-width="2" fill="none"></circle>
<circle cx="6433.2" cy="1391.6" r="4" stroke="rgb(255,68,0)" stroke-width="2" fill="none"></circle>
<circle cx="1465.93" cy="1056.57" r="4" stroke="rgb(255,106,0)" stroke-width="2" fill="none"></circle>
<circle cx="6433.2" cy="1391.6" r="4" stroke="rgb(255,106,0)" stroke-width="2" fill="none"></circle>
<circle cx="2029.95" cy="1421.72" r="4" stroke="rgb(255,0,68)" stroke-width="2" fill="none"></circle>
<circle cx="5084.57" cy="1393.65" r="4" stroke="rgb(255,0,68)" stroke-width="2" fill="none"></circle>
<circle cx="1933.64" cy="1121.07" r="4" stroke="rgb(63,0,255)" stroke-width="2" fill="none"></circle>
<circle cx="6879.84" cy="1494.9" r="4" stroke="rgb(63,0,255)" stroke-width="2" fill="none"></circle>
<circle cx="1933.64" cy="1121.07" r="4" stroke="rgb(182,0,255)" stroke-width="2" fill="none"></circle>
<circle cx="6879.84" cy="1494.9" r="4" stroke="rgb(182,0,255)" stroke-width="2" fill="none"></circle>
<circle cx="2579.54" cy="1174.32" r="4" stroke="rgb(153,0,255)" stroke-width="2" fill="none"></circle>
<circle cx="6178.85" cy="940.554" r="4" stroke="rgb(153,0,255)" stroke-width="2" fill="none"></circle>
<circle cx="2016.84" cy="1945.94" r="4" stroke="rgb(0,208,255)" stroke-width="2" fill="none"></circle>
<circle cx="5513.65" cy="2593.7" r="4" stroke="rgb(0,208,255)" stroke-width="2" fill="none"></circle>
<circle cx="1955" cy="1848.04" r="4" stroke="rgb(212,255,0)" stroke-width="2" fill="none"></circle>
<circle cx="6668.73" cy="1409.6" r="4" stroke="rgb(212,255,0)" stroke-width="2" fill="none"></circle>
<circle cx="2943.95" cy="2013.57" r="4" stroke="rgb(0,255,212)" stroke-width="2" fill="none"></circle>
<circle cx="6635.2" cy="2634.14" r="4" stroke="rgb(0,255,212)" stroke-width="2" fill="none"></circle>
<circle cx="1465.93" cy="1056.57" r="4" stroke="rgb(29,255,0)" stroke-width="2" fill="none"></circle>
<circle cx="6194.09" cy="1420.75" r="4" stroke="rgb(29,255,0)" stroke-width="2" fill="none"></circle>
<circle cx="1465.93" cy="1056.57" r="4" stroke="rgb(102,0,255)" stroke-width="2" fill="none"></circle>
<circle cx="6194.09" cy="1420.75" r="4" stroke="rgb(102,0,255)" stroke-width="2" fill="none"></circle>
<circle cx="1465.93" cy="1056.57" r="4" stroke="rgb(0,237,255)" stroke-width="2" fill="none"></circle>
<circle cx="5522.18" cy="1521.5" r="4" stroke="rgb(0,237,255)" stroke-width="2" fill="none"></circle>
<circle cx="1465.93" cy="1056.57" r="4" stroke="rgb(0,255,229)" stroke-width="2" fill="none"></circle>
<circle cx="5517.51" cy="1042.88" r="4" stroke="rgb(0,255,229)" stroke-width="2" fill="none"></circle>
<circle cx="1740.81" cy="1551.45" r="4" stroke="rgb(0,55,255)" stroke-width="2" fill="none"></circle>
<circle cx="6789.53" cy="1445.5" r="4" stroke="rgb(0,55,255)" stroke-width="2" fill="none"></circle>
<circle cx="2024.21" cy="1867.1" r="4" stroke="rgb(255,178,0)" stroke-width="2" fill="none"></circle>
<circle cx="6557.82" cy="1426.43" r="4" stroke="rgb(255,178,0)" stroke-width="2" fill="none"></circle>
<circle cx="2039.11" cy="1932.48" r="4" stroke="rgb(199,255,0)" stroke-width="2" fill="none"></circle>
<circle cx="6435.45" cy="1532.01" r="4" stroke="rgb(199,255,0)" stroke-width="2" fill="none"></circle>
<circle cx="1726.27" cy="1581.52" r="4" stroke="rgb(242,255,0)" stroke-width="2" fill="none"></circle>
<circle cx="6282.53" cy="1005.32" r="4" stroke="rgb(242,255,0)" stroke-width="2" fill="none"></circle>
<circle cx="2039.28" cy="1908" r="4" stroke="rgb(0,157,255)" stroke-width="2" fill="none"></circle>
<circle cx="6183.81" cy="1537.55" r="4" stroke="rgb(0,157,255)" stroke-width="2" fill="none"></circle>
<circle cx="3055.38" cy="1648.92" r="4" stroke="rgb(0,255,118)" stroke-width="2" fill="none"></circle>
<circle cx="6587.62" cy="2659.54" r="4" stroke="rgb(0,255,118)" stroke-width="2" fill="none"></circle>
<circle cx="1451" cy="670.522" r="4" stroke="rgb(178,255,0)" stroke-width="2" fill="none"></circle>
<circle cx="5893.62" cy="2664.67" r="4" stroke="rgb(178,255,0)" stroke-width="2" fill="none"></circle>
<circle cx="2037.46" cy="1913.92" r="4" stroke="rgb(255,0,110)" stroke-width="2" fill="none"></circle>
<circle cx="5617.51" cy="1491.13" r="4" stroke="rgb(255,0,110)" stroke-width="2" fill="none"></circle>
<circle cx="1657.13" cy="884.142" r="4" stroke="rgb(0,255,169)" stroke-width="2" fill="none"></circle>
<circle cx="5762.15" cy="1897.25" r="4" stroke="rgb(0,255,169)" stroke-width="2" fill="none"></circle>
<circle cx="1980.52" cy="1918.06" r="4" stroke="rgb(0,255,191)" stroke-width="2" fill="none"></circle>
<circle cx="5518.8" cy="1902.67" r="4" stroke="rgb(0,255,191)" stroke-width="2" fill="none"></circle>
<circle cx="2783.22" cy="1436.66" r="4" stroke="rgb(255,59,0)" stroke-width="2" fill="none"></circle>
<circle cx="5472.85" cy="1927.57" r="4" stroke="rgb(255,59,0)" stroke-width="2" fill="none"></circle>
<circle cx="1980.52" cy="1918.06" r="4" stroke="rgb(255,212,0)" stroke-width="2" fill="none"></circle>
<circle cx="5630.82" cy="1953.14" r="4" stroke="rgb(255,212,0)" stroke-width="2" fill="none"></circle>
<circle cx="2039.28" cy="1908" r="4" stroke="rgb(29,0,255)" stroke-width="2" fill="none"></circle>
<circle cx="5515.56" cy="1508.94" r="4" stroke="rgb(29,0,255)" stroke-width="2" fill="none"></circle>
<circle cx="2013.03" cy="1937.72" r="4" stroke="rgb(118,0,255)" stroke-width="2" fill="none"></circle>
<circle cx="6806.77" cy="1467.26" r="4" stroke="rgb(118,0,255)" stroke-width="2" fill="none"></circle>
<circle cx="2023.56" cy="2001.59" r="4" stroke="rgb(255,8,0)" stroke-width="2" fill="none"></circle>
<circle cx="6602.91" cy="1095.27" r="4" stroke="rgb(255,8,0)" stroke-width="2" fill="none"></circle>
<circle cx="2169.41" cy="845.036" r="4" stroke="rgb(0,55,255)" stroke-width="2" fill="none"></circle>
<circle cx="6723.76" cy="1980.26" r="4" stroke="rgb(0,55,255)" stroke-width="2" fill="none"></circle>
<circle cx="1756.07" cy="1642.11" r="4" stroke="rgb(255,0,229)" stroke-width="2" fill="none"></circle>
<circle cx="6556.16" cy="1481.58" r="4" stroke="rgb(255,0,229)" stroke-width="2" fill="none"></circle>
<circle cx="2013.03" cy="1937.72" r="4" stroke="rgb(255,8,0)" stroke-width="2" fill="none"></circle>
<circle cx="5369.53" cy="2000.87" r="4" stroke="rgb(255,8,0)" stroke-width="2" fill="none"></circle>
<circle cx="2013.03" cy="1937.72" r="4" stroke="rgb(12,0,255)" stroke-width="2" fill="none"></circle>
<circle cx="5369.53" cy="2000.87" r="4" stroke="rgb(12,0,255)" stroke-width="2" fill="none"></circle>
<circle cx="2016.84" cy="1945.94" r="4" stroke="rgb(255,0,123)" stroke-width="2" fill="none"></circle>
<circle cx="5366.08" cy="2007.78" r="4" stroke="rgb(255,0,123)" stroke-width="2" fill="none"></circle>
<circle cx="1465.93" cy="1056.57" r="4" stroke="rgb(0,93,255)" stroke-width="2" fill="none"></circle>
<circle cx="5588.05" cy="1144.7" r="4" stroke="rgb(0,93,255)" stroke-width="2" fill="none"></circle>
<circle cx="1975.32" cy="1096.57" r="4" stroke="rgb(0,255,80)" stroke-width="2" fill="none"></circle>
<circle cx="6761.62" cy="1126.01" r="4" stroke="rgb(0,255,80)" stroke-width="2" fill="none"></circle>
<circle cx="1933.64" cy="1121.07" r="4" stroke="rgb(0,255,25)" stroke-width="2" fill="none"></circle>
<circle cx="6879.63" cy="1505.56" r="4" stroke="rgb(0,255,25)" stroke-width="2" fill="none"></circle>
<circle cx="3198.99" cy="2151.38" r="4" stroke="rgb(255,29,0)" stroke-width="2" fill="none"></circle>
<circle cx="5560.28" cy="1514.49" r="4" stroke="rgb(255,29,0)" stroke-width="2" fill="none"></circle>
<circle cx="1950.07" cy="1911.12" r="4" stroke="rgb(0,161,255)" stroke-width="2" fill="none"></circle>
<circle cx="5246.82" cy="1187.36" r="4" stroke="rgb(0,161,255)" stroke-width="2" fill="none"></circle>
<circle cx="2330.32" cy="1423.22" r="4" stroke="rgb(216,255,0)" stroke-width="2" fill="none"></circle>
<circle cx="6739.14" cy="1514.29" r="4" stroke="rgb(216,255,0)" stroke-width="2" fill="none"></circle>
<circle cx="2579.54" cy="1174.32" r="4" stroke="rgb(255,208,0)" stroke-width="2" fill="none"></circle>
<circle cx="5977.63" cy="1514.84" r="4" stroke="rgb(255,208,0)" stroke-width="2" fill="none"></circle>
<circle cx="2041.92" cy="1926.55" r="4" stroke="rgb(255,0,191)" stroke-width="2" fill="none"></circle>
<circle cx="6425.83" cy="1655.95" r="4" stroke="rgb(255,0,191)" stroke-width="2" fill="none"></circle>
<circle cx="2044.54" cy="1898.49" r="4" stroke="rgb(255,0,114)" stroke-width="2" fill="none"></circle>
<circle cx="6095.93" cy="1663.45" r="4" stroke="rgb(255,0,114)" stroke-width="2" fill="none"></circle>
<circle cx="1465.93" cy="1056.57" r="4" stroke="rgb(0,25,255)" stroke-width="2" fill="none"></circle>
<circle cx="6262.92" cy="1548.07" r="4" stroke="rgb(0,25,255)" stroke-width="2" fill="none"></circle>
<circle cx="3198.99" cy="2151.38" r="4" stroke="rgb(255,4,0)" stroke-width="2" fill="none"></circle>
<circle cx="5508.24" cy="1263.78" r="4" stroke="rgb(255,4,0)" stroke-width="2" fill="none"></circle>
<circle cx="1709.85" cy="869.166" r="4" stroke="rgb(203,255,0)" stroke-width="2" fill="none"></circle>
<circle cx="5148.91" cy="1553.15" r="4" stroke="rgb(203,255,0)" stroke-width="2" fill="none"></circle>
<circle cx="2044.54" cy="1898.49" r="4" stroke="rgb(153,0,255)" stroke-width="2" fill="none"></circle>
<circle cx="5693.81" cy="1646.83" r="4" stroke="rgb(153,0,255)" stroke-width="2" fill="none"></circle>
<circle cx="2095.18" cy="2648.89" r="4" stroke="rgb(255,0,225)" stroke-width="2" fill="none"></circle>
<circle cx="5210.21" cy="1332.92" r="4" stroke="rgb(255,0,225)" stroke-width="2" fill="none"></circle>
<circle cx="2816.74" cy="1824.62" r="4" stroke="rgb(255,29,0)" stroke-width="2" fill="none"></circle>
<circle cx="5997.12" cy="1757.43" r="4" stroke="rgb(255,29,0)" stroke-width="2" fill="none"></circle>
<circle cx="2676.25" cy="1724.61" r="4" stroke="rgb(255,0,33)" stroke-width="2" fill="none"></circle>
<circle cx="6150.22" cy="1795.82" r="4" stroke="rgb(255,0,33)" stroke-width="2" fill="none"></circle>
<circle cx="2126.36" cy="813.063" r="4" stroke="rgb(255,0,140)" stroke-width="2" fill="none"></circle>
<circle cx="6284.87" cy="1860.03" r="4" stroke="rgb(255,0,140)" stroke-width="2" fill="none"></circle>
<circle cx="2041.92" cy="1926.55" r="4" stroke="rgb(255,0,182)" stroke-width="2" fill="none"></circle>
<circle cx="6379.61" cy="1922.91" r="4" stroke="rgb(255,0,182)" stroke-width="2" fill="none"></circle>
<circle cx="1980.52" cy="1918.06" r="4" stroke="rgb(255,0,144)" stroke-width="2" fill="none"></circle>
<circle cx="5551.67" cy="1924.31" r="4" stroke="rgb(255,0,144)" stroke-width="2" fill="none"></circle>
<circle cx="2763.89" cy="976.365" r="4" stroke="rgb(0,255,29)" stroke-width="2" fill="none"></circle>
<circle cx="6628.91" cy="2013.9" r="4" stroke="rgb(0,255,29)" stroke-width="2" fill="none"></circle>
<circle cx="1942.47" cy="1832.44" r="4" stroke="rgb(255,0,21)" stroke-width="2" fill="none"></circle>
<circle cx="6824.21" cy="2027.78" r="4" stroke="rgb(255,0,21)" stroke-width="2" fill="none"></circle>
<circle cx="2776.23" cy="2182.41" r="4" stroke="rgb(255,0,85)" stroke-width="2" fill="none"></circle>
<circle cx="5649.18" cy="1837.28" r="4" stroke="rgb(255,0,85)" stroke-width="2" fill="none"></circle>
<circle cx="3134.93" cy="2167.71" r="4" stroke="rgb(0,255,242)" stroke-width="2" fill="none"></circle>
<circle cx="5807.47" cy="1872.84" r="4" stroke="rgb(0,255,242)" stroke-width="2" fill="none"></circle>
<circle cx="1975.32" cy="1096.57" r="4" stroke="rgb(8,0,255)" stroke-width="2" fill="none"></circle>
<circle cx="5462.43" cy="2110.23" r="4" stroke="rgb(8,0,255)" stroke-width="2" fill="none"></circle>
<circle cx="2785.59" cy="1364.71" r="4" stroke="rgb(0,255,0)" stroke-width="2" fill="none"></circle>
<circle cx="6260.89" cy="2122.33" r="4" stroke="rgb(0,255,0)" stroke-width="2" fill="none"></circle>
<circle cx="2055.43" cy="1966.59" r="4" stroke="rgb(255,221,0)" stroke-width="2" fill="none"></circle>
<circle cx="6431.29" cy="2486.51" r="4" stroke="rgb(255,221,0)" stroke-width="2" fill="none"></circle>
<circle cx="2023.56" cy="2001.59" r="4" stroke="rgb(46,255,0)" stroke-width="2" fill="none"></circle>
<circle cx="5719.53" cy="2574.17" r="4" stroke="rgb(46,255,0)" stroke-width="2" fill="none"></circle>
<circle cx="2044.54" cy="1898.49" r="4" stroke="rgb(229,255,0)" stroke-width="2" fill="none"></circle>
<circle cx="5658.42" cy="2361.1" r="4" stroke="rgb(229,255,0)" stroke-width="2" fill="none"></circle>
<circle cx="2061.34" cy="1944.14" r="4" stroke="rgb(195,0,255)" stroke-width="2" fill="none"></circle>
<circle cx="5687.29" cy="1398.33" r="4" stroke="rgb(195,0,255)" stroke-width="2" fill="none"></circle>
<circle cx="2473.16" cy="1143.81" r="4" stroke="rgb(255,0,29)" stroke-width="2" fill="none"></circle>
<circle cx="5112.66" cy="1609.63" r="4" stroke="rgb(255,0,29)" stroke-width="2" fill="none"></circle>
<circle cx="2067.42" cy="1955.83" r="4" stroke="rgb(123,0,255)" stroke-width="2" fill="none"></circle>
<circle cx="6707.84" cy="2522.58" r="4" stroke="rgb(123,0,255)" stroke-width="2" fill="none"></circle>
<circle cx="1731.25" cy="1269.28" r="4" stroke="rgb(255,72,0)" stroke-width="2" fill="none"></circle>
<circle cx="5644.73" cy="1828.85" r="4" stroke="rgb(255,72,0)" stroke-width="2" fill="none"></circle>
<circle cx="2429.02" cy="1067.3" r="4" stroke="rgb(0,255,50)" stroke-width="2" fill="none"></circle>
<circle cx="6729.85" cy="1971.14" r="4" stroke="rgb(0,255,50)" stroke-width="2" fill="none"></circle>
<circle cx="1754.44" cy="876.291" r="4" stroke="rgb(255,153,0)" stroke-width="2" fill="none"></circle>
<circle cx="5126.57" cy="1044.59" r="4" stroke="rgb(255,153,0)" stroke-width="2" fill="none"></circle>
<circle cx="1726.43" cy="1518.86" r="4" stroke="rgb(255,102,0)" stroke-width="2" fill="none"></circle>
<circle cx="6468.07" cy="2341.56" r="4" stroke="rgb(255,102,0)" stroke-width="2" fill="none"></circle>
<circle cx="3186.45" cy="2165.62" r="4" stroke="rgb(255,0,110)" stroke-width="2" fill="none"></circle>
<circle cx="6696.55" cy="1332.71" r="4" stroke="rgb(255,0,110)" stroke-width="2" fill="none"></circle>
<circle cx="1748.7" cy="1697.24" r="4" stroke="rgb(63,255,0)" stroke-width="2" fill="none"></circle>
<circle cx="5469.63" cy="2108.83" r="4" stroke="rgb(63,255,0)" stroke-width="2" fill="none"></circle>
<circle cx="2335.9" cy="1432.19" r="4" stroke="rgb(199,255,0)" stroke-width="2" fill="none"></circle>
<circle cx="6693.82" cy="2502.67" r="4" stroke="rgb(199,255,0)" stroke-width="2" fill="none"></circle>
<circle cx="1752.91" cy="1620.54" r="4" stroke="rgb(208,0,255)" stroke-width="2" fill="none"></circle>
<circle cx="5582.04" cy="2103.12" r="4" stroke="rgb(208,0,255)" stroke-width="2" fill="none"></circle>
<circle cx="2616.73" cy="907.797" r="4" stroke="rgb(255,0,212)" stroke-width="2" fill="none"></circle>
<circle cx="4643.65" cy="2400.28" r="4" stroke="rgb(255,0,212)" stroke-width="2" fill="none"></circle>
<circle cx="2119.5" cy="1639.47" r="4" stroke="rgb(0,255,250)" stroke-width="2" fill="none"></circle>
<circle cx="4895.97" cy="2815.28" r="4" stroke="rgb(0,255,250)" stroke-width="2" fill="none"></circle>
<circle cx="2587.12" cy="858.922" r="4" stroke="rgb(0,255,182)" stroke-width="2" fill="none"></circle>
<circle cx="6707.76" cy="1387.92" r="4" stroke="rgb(0,255,182)" stroke-width="2" fill="none"></circle>
<circle cx="3130.66" cy="1534.84" r="4" stroke="rgb(255,97,0)" stroke-width="2" fill="none"></circle>
<circle cx="5728.38" cy="1566.04" r="4" stroke="rgb(255,97,0)" stroke-width="2" fill="none"></circle>
<circle cx="2219.24" cy="1836.93" r="4" stroke="rgb(255,0,136)" stroke-width="2" fill="none"></circle>
<circle cx="4763.64" cy="2315.81" r="4" stroke="rgb(255,0,136)" stroke-width="2" fill="none"></circle>
<circle cx="3186.45" cy="2165.62" r="4" stroke="rgb(42,255,0)" stroke-width="2" fill="none"></circle>
<circle cx="5395.35" cy="2490.93" r="4" stroke="rgb(42,255,0)" stroke-width="2" fill="none"></circle>
<circle cx="1487.26" cy="908.161" r="4" stroke="rgb(93,0,255)" stroke-width="2" fill="none"></circle>
<circle cx="5420.43" cy="2364.45" r="4" stroke="rgb(93,0,255)" stroke-width="2" fill="none"></circle>
<circle cx="2847.83" cy="1150.43" r="4" stroke="rgb(255,0,169)" stroke-width="2" fill="none"></circle>
<circle cx="6212.74" cy="722.579" r="4" stroke="rgb(255,0,169)" stroke-width="2" fill="none"></circle>
<circle cx="2847.83" cy="1150.43" r="4" stroke="rgb(182,255,0)" stroke-width="2" fill="none"></circle>
<circle cx="6223.23" cy="729.35" r="4" stroke="rgb(182,255,0)" stroke-width="2" fill="none"></circle>
</svg>