<?xml version="1.0" standalone="yes"?>
<!-- SVG graphic -->
<svg xmlns='http://www.w3.org/2000/svg' xmlns:xlink='http://www.w3.org/1999/xlink'
width="8064px" height="3024px" preserveAspectRatio="xMinYMin meet" viewBox="0 0 8064 3024" version="1.1">
<image x="0" y="0" width="4032px" height="3024px" opacity="1" xlink:href="/home/jeong/Code/2D-to-3D-Modeling-using-AI/Make3D/Image/20200227_180729.jpg"/>
<image x="4032" y="0" width="4032px" height="3024px" opacity="1" xlink:href="/home/jeong/Code/2D-to-3D-Modeling-using-AI/Make3D/Image/20200227_180812.jpg"/>
<polyline points="2429.08,692.842,6629.09,1261.16" stroke="rgb(38,255,0)" stroke-width="2" fill="none"></polyline>
<polyline points="2599.83,1511.78,6120.08,1261.37" stroke="rgb(0,255,148)" stroke-width="2" fill="none"></polyline>
<polyline points="2625.51,1527.74,6501.96,2508.4" stroke="rgb(255,0,21)" stroke-width="2" fill="none"></polyline>
<polyline points="1293.94,721.175,6204.08,1265.82" stroke="rgb(255,0,182)" stroke-width="2" fill="none"></polyline>
<polyline points="2599.83,1511.78,6049.75,1682" stroke="rgb(255,255,0)" stroke-width="2" fill="none"></polyline>
<polyline points="2883.12,1191.95,4997.3,2342.76" stroke="rgb(25,0,255)" stroke-width="2" fill="none"></polyline>
<polyline points="1556.8,928.318,4734.5,718.329" stroke="rgb(195,255,0)" stroke-width="2" fill="none"></polyline>
<polyline points="1981.22,1585.38,5598.43,2362.71" stroke="rgb(255,0,12)" stroke-width="2" fill="none"></polyline>
<polyline points="1964.42,1360.63,6764.58,1279.07" stroke="rgb(178,255,0)" stroke-width="2" fill="none"></polyline>
<polyline points="2229.66,2398.18,4715.09,874.758" stroke="rgb(16,255,0)" stroke-width="2" fill="none"></polyline>
<polyline points="2044.1,597.939,5453.79,825.541" stroke="rgb(0,255,216)" stroke-width="2" fill="none"></polyline>
<polyline points="2635.62,1550.3,6417.56,1701.91" stroke="rgb(0,161,255)" stroke-width="2" fill="none"></polyline>
<polyline points="1293.94,721.175,6169.81,912.856" stroke="rgb(0,221,255)" stroke-width="2" fill="none"></polyline>
<polyline points="2599.83,1511.78,6230.8,941.387" stroke="rgb(0,255,208)" stroke-width="2" fill="none"></polyline>
<polyline points="1906.63,1501.25,6461.72,2454.51" stroke="rgb(0,255,246)" stroke-width="2" fill="none"></polyline>
<polyline points="2599.83,1511.78,6156.01,957.913" stroke="rgb(255,127,0)" stroke-width="2" fill="none"></polyline>
<polyline points="2599.83,1511.78,6297.19,973.152" stroke="rgb(4,0,255)" stroke-width="2" fill="none"></polyline>
<polyline points="2451.62,622.706,4905.22,856.258" stroke="rgb(255,246,0)" stroke-width="2" fill="none"></polyline>
<polyline points="2599.83,1511.78,6041.03,1346.91" stroke="rgb(0,199,255)" stroke-width="2" fill="none"></polyline>
<polyline points="1862.24,381.458,6642.95,1742.99" stroke="rgb(255,8,0)" stroke-width="2" fill="none"></polyline>
<polyline points="1061.51,914.234,5545.02,1067.19" stroke="rgb(114,0,255)" stroke-width="2" fill="none"></polyline>
<polyline points="2599.83,1511.78,5544.08,1360.77" stroke="rgb(0,250,255)" stroke-width="2" fill="none"></polyline>
<polyline points="1567.99,1216.81,6631.2,1079.06" stroke="rgb(0,255,97)" stroke-width="2" fill="none"></polyline>
<polyline points="1567.99,1216.81,6631.2,1079.06" stroke="rgb(17,0,255)" stroke-width="2" fill="none"></polyline>
<polyline points="1958.78,2174.03,6797.65,1757.54" stroke="rgb(127,255,0)" stroke-width="2" fill="none"></polyline>
<polyline points="2599.83,1511.78,6223.2,1090.34" stroke="rgb(255,114,0)" stroke-width="2" fill="none"></polyline>
<polyline points="1154.33,774.359,5733.42,844.54" stroke="rgb(0,255,250)" stroke-width="2" fill="none"></polyline>
<polyline points="2599.83,1511.78,6221.13,1112.93" stroke="rgb(4,0,255)" stroke-width="2" fill="none"></polyline>
<polyline points="1800.39,1525.67,6825.92,1125.54" stroke="rgb(0,225,255)" stroke-width="2" fill="none"></polyline>
<polyline points="2635.62,1550.3,6394.23,1355.85" stroke="rgb(255,0,229)" stroke-width="2" fill="none"></polyline>
<polyline points="1335.13,812.58,4890.6,876.74" stroke="rgb(17,0,255)" stroke-width="2" fill="none"></polyline>
<polyline points="2599.83,1511.78,6218.87,1130.21" stroke="rgb(0,255,212)" stroke-width="2" fill="none"></polyline>
<polyline points="1860.68,1531.34,5424.47,1359.72" stroke="rgb(80,255,0)" stroke-width="2" fill="none"></polyline>
<polyline points="1929.42,849.259,6389.56,1136.47" stroke="rgb(38,255,0)" stroke-width="2" fill="none"></polyline>
<polyline points="2599.83,1511.78,5540.23,1396.83" stroke="rgb(255,0,4)" stroke-width="2" fill="none"></polyline>
<polyline points="1154.33,774.359,5835.14,886.306" stroke="rgb(255,140,0)" stroke-width="2" fill="none"></polyline>
<polyline points="2735.99,1308.11,5713.51,1792.08" stroke="rgb(255,0,8)" stroke-width="2" fill="none"></polyline>
<polyline points="2602.18,1240.24,5576.95,1746.28" stroke="rgb(199,255,0)" stroke-width="2" fill="none"></polyline>
<polyline points="2635.62,1550.3,5846.1,1003.55" stroke="rgb(255,127,0)" stroke-width="2" fill="none"></polyline>
<polyline points="2592.45,861.293,6628.02,1426.44" stroke="rgb(187,255,0)" stroke-width="2" fill="none"></polyline>
<polyline points="2535.01,1763.52,6362.66,1427.65" stroke="rgb(250,255,0)" stroke-width="2" fill="none"></polyline>
<polyline points="2020.3,1346.11,5998.22,1188.39" stroke="rgb(199,255,0)" stroke-width="2" fill="none"></polyline>
<polyline points="1154.33,774.359,5830.09,933.182" stroke="rgb(165,0,255)" stroke-width="2" fill="none"></polyline>
<polyline points="2599.83,1511.78,6249.13,1448.64" stroke="rgb(38,0,255)" stroke-width="2" fill="none"></polyline>
<polyline points="1494.2,808.17,5886.35,1240.55" stroke="rgb(8,0,255)" stroke-width="2" fill="none"></polyline>
<polyline points="2123.46,1283.13,7113.65,1406.33" stroke="rgb(255,0,131)" stroke-width="2" fill="none"></polyline>
<polyline points="2691.94,1260.83,6690.98,1857.56" stroke="rgb(0,255,131)" stroke-width="2" fill="none"></polyline>
<polyline points="1154.33,774.359,5845.33,1416.74" stroke="rgb(255,0,17)" stroke-width="2" fill="none"></polyline>
<polyline points="2599.83,1511.78,6237.25,1508.35" stroke="rgb(255,114,0)" stroke-width="2" fill="none"></polyline>
<polyline points="2249.81,2211.92,5490.15,1000.64" stroke="rgb(0,97,255)" stroke-width="2" fill="none"></polyline>
<polyline points="2599.83,1511.78,6148.75,1525.04" stroke="rgb(0,42,255)" stroke-width="2" fill="none"></polyline>
<polyline points="2599.83,1511.78,5674.92,1111.27" stroke="rgb(0,255,195)" stroke-width="2" fill="none"></polyline>
<polyline points="1154.33,774.359,6775.32,1538.18" stroke="rgb(255,161,0)" stroke-width="2" fill="none"></polyline>
<polyline points="1154.33,774.359,6800.92,1537.75" stroke="rgb(255,55,0)" stroke-width="2" fill="none"></polyline>
<polyline points="2635.62,1550.3,6219.04,1548.86" stroke="rgb(178,0,255)" stroke-width="2" fill="none"></polyline>
<polyline points="2123.46,1283.13,7116.01,1444.5" stroke="rgb(255,4,0)" stroke-width="2" fill="none"></polyline>
<polyline points="1964.42,1360.63,6242.75,1552.11" stroke="rgb(255,170,0)" stroke-width="2" fill="none"></polyline>
<polyline points="1318.92,897.009,5885.83,1129.95" stroke="rgb(76,255,0)" stroke-width="2" fill="none"></polyline>
<polyline points="2599.83,1511.78,6065.6,1578.31" stroke="rgb(8,0,255)" stroke-width="2" fill="none"></polyline>
<polyline points="1154.33,774.359,5735.11,1093.28" stroke="rgb(89,255,0)" stroke-width="2" fill="none"></polyline>
<polyline points="2043.15,662.502,7048.87,1467.97" stroke="rgb(255,204,0)" stroke-width="2" fill="none"></polyline>
<polyline points="2599.83,1511.78,6218.7,1141.88" stroke="rgb(255,0,8)" stroke-width="2" fill="none"></polyline>
<polyline points="2374.05,701.536,6744.03,1945.67" stroke="rgb(123,0,255)" stroke-width="2" fill="none"></polyline>
<polyline points="1841.47,1235.02,5691.64,1470.78" stroke="rgb(255,89,0)" stroke-width="2" fill="none"></polyline>
<polyline points="2461.53,910.842,6368.64,1144.85" stroke="rgb(42,255,0)" stroke-width="2" fill="none"></polyline>
<polyline points="1703.4,618.968,6079.03,1952.87" stroke="rgb(0,255,84)" stroke-width="2" fill="none"></polyline>
<polyline points="2257.82,721.712,5419.3,1129.48" stroke="rgb(255,229,0)" stroke-width="2" fill="none"></polyline>
<polyline points="1567.99,1216.81,6810.45,1139.15" stroke="rgb(255,0,85)" stroke-width="2" fill="none"></polyline>
<polyline points="1154.33,774.359,5729.14,1146.66" stroke="rgb(0,114,255)" stroke-width="2" fill="none"></polyline>
<polyline points="1154.33,774.359,6553.51,1998.02" stroke="rgb(153,255,0)" stroke-width="2" fill="none"></polyline>
<polyline points="2599.83,1511.78,6379.33,2005.28" stroke="rgb(203,0,255)" stroke-width="2" fill="none"></polyline>
<polyline points="2599.83,1511.78,6088.66,1511.84" stroke="rgb(148,0,255)" stroke-width="2" fill="none"></polyline>
<polyline points="1154.33,774.359,6036.89,1857.14" stroke="rgb(0,255,157)" stroke-width="2" fill="none"></polyline>
<polyline points="2635.62,1550.3,6317.54,1857.22" stroke="rgb(174,255,0)" stroke-width="2" fill="none"></polyline>
<polyline points="1154.33,774.359,6205.14,1639.06" stroke="rgb(255,153,0)" stroke-width="2" fill="none"></polyline>
<polyline points="2043.27,930.708,6951.55,1197.76" stroke="rgb(131,0,255)" stroke-width="2" fill="none"></polyline>
<polyline points="1817.8,1605.79,5867.59,1533.36" stroke="rgb(255,208,0)" stroke-width="2" fill="none"></polyline>
<polyline points="1860.68,1531.34,5426.99,1535.87" stroke="rgb(255,255,0)" stroke-width="2" fill="none"></polyline>
<polyline points="1875.94,1685.82,6917.59,1884.11" stroke="rgb(114,0,255)" stroke-width="2" fill="none"></polyline>
<polyline points="1154.33,774.359,5656.73,2259.95" stroke="rgb(255,0,221)" stroke-width="2" fill="none"></polyline>
<polyline points="1380.75,939.99,5586.81,1788.3" stroke="rgb(157,0,255)" stroke-width="2" fill="none"></polyline>
<polyline points="1380.75,939.99,5586.81,1788.3" stroke="rgb(0,255,72)" stroke-width="2" fill="none"></polyline>
<polyline points="1851.02,1106.2,6294.46,2340.11" stroke="rgb(21,255,0)" stroke-width="2" fill="none"></polyline>
<polyline points="1772.87,1441.64,5663.74,2400.53" stroke="rgb(0,225,255)" stroke-width="2" fill="none"></polyline>
<polyline points="1767.73,1506.31,5711.7,1582.84" stroke="rgb(255,97,0)" stroke-width="2" fill="none"></polyline>
<polyline points="2599.83,1511.78,6063.9,1587.02" stroke="rgb(255,157,0)" stroke-width="2" fill="none"></polyline>
<polyline points="1154.33,774.359,5704.89,1349.41" stroke="rgb(0,221,255)" stroke-width="2" fill="none"></polyline>
<polyline points="1978.9,1575.04,5899.92,1589.44" stroke="rgb(242,255,0)" stroke-width="2" fill="none"></polyline>
<polyline points="1829.03,1445.39,5854.22,1807.61" stroke="rgb(255,46,0)" stroke-width="2" fill="none"></polyline>
<polyline points="1627.27,1228.73,6000.55,1403.58" stroke="rgb(212,255,0)" stroke-width="2" fill="none"></polyline>
<polyline points="1817.8,1605.79,6488.38,1977.73" stroke="rgb(255,148,0)" stroke-width="2" fill="none"></polyline>
<polyline points="1380.75,939.99,6031.12,1849.6" stroke="rgb(255,250,0)" stroke-width="2" fill="none"></polyline>
<polyline points="2559.36,850.276,6855.25,1418.66" stroke="rgb(255,0,250)" stroke-width="2" fill="none"></polyline>
<polyline points="1380.75,939.99,6031.12,1849.6" stroke="rgb(0,255,237)" stroke-width="2" fill="none"></polyline>
<polyline points="1906.66,1361.81,5551.98,2006.82" stroke="rgb(255,0,204)" stroke-width="2" fill="none"></polyline>
<polyline points="1154.33,774.359,6305.1,2020.5" stroke="rgb(255,216,0)" stroke-width="2" fill="none"></polyline>
<polyline points="1380.75,939.99,6102.39,1863.25" stroke="rgb(255,0,182)" stroke-width="2" fill="none"></polyline>
<polyline points="1380.75,939.99,6102.39,1863.25" stroke="rgb(255,25,0)" stroke-width="2" fill="none"></polyline>
<polyline points="2028.95,864.159,6991.42,1640.41" stroke="rgb(97,0,255)" stroke-width="2" fill="none"></polyline>
<polyline points="1380.75,939.99,6244.24,1887.71" stroke="rgb(0,255,212)" stroke-width="2" fill="none"></polyline>
<polyline points="1380.75,939.99,6244.24,1887.71" stroke="rgb(255,0,161)" stroke-width="2" fill="none"></polyline>
<polyline points="2599.83,1511.78,5763.05,2153.25" stroke="rgb(0,208,255)" stroke-width="2" fill="none"></polyline>
<polyline points="2635.62,1550.3,6348.32,1654.71" stroke="rgb(255,0,182)" stroke-width="2" fill="none"></polyline>
<polyline points="1771.82,1334.6,6751.91,2213.56" stroke="rgb(4,255,0)" stroke-width="2" fill="none"></polyline>
<polyline points="1800.91,1496.89,6129.73,1957.62" stroke="rgb(131,0,255)" stroke-width="2" fill="none"></polyline>
<polyline points="1736.94,1499.06,6814.81,1538.7" stroke="rgb(0,59,255)" stroke-width="2" fill="none"></polyline>
<polyline points="1818.2,601.143,6225.63,2018.97" stroke="rgb(97,0,255)" stroke-width="2" fill="none"></polyline>
<polyline points="1818.2,601.143,6298.06,2024.64" stroke="rgb(0,203,255)" stroke-width="2" fill="none"></polyline>
<polyline points="2229.66,2398.18,6312.94,2080.43" stroke="rgb(195,0,255)" stroke-width="2" fill="none"></polyline>
<polyline points="2755.05,1274.92,4868.88,2179.16" stroke="rgb(255,178,0)" stroke-width="2" fill="none"></polyline>
<polyline points="2703.3,2088.54,5573.64,2181.54" stroke="rgb(0,255,84)" stroke-width="2" fill="none"></polyline>
<polyline points="1556.8,928.318,4736.38,727.256" stroke="rgb(0,157,255)" stroke-width="2" fill="none"></polyline>
<polyline points="1778.99,1555.75,6342.63,1296.29" stroke="rgb(255,221,0)" stroke-width="2" fill="none"></polyline>
<polyline points="1602.86,1313.57,5878.41,2186.1" stroke="rgb(0,255,29)" stroke-width="2" fill="none"></polyline>
<polyline points="2229.66,2398.18,6577.73,2329.29" stroke="rgb(93,0,255)" stroke-width="2" fill="none"></polyline>
<polyline points="2063.86,932.265,7016.39,1525.75" stroke="rgb(191,255,0)" stroke-width="2" fill="none"></polyline>
<polyline points="1885.4,1496.61,5867.72,1551.23" stroke="rgb(255,157,0)" stroke-width="2" fill="none"></polyline>
<polyline points="1917.91,1633.12,7038.42,1719.97" stroke="rgb(123,255,0)" stroke-width="2" fill="none"></polyline>
<polyline points="1898.56,1358.83,5217.8,1820" stroke="rgb(255,42,0)" stroke-width="2" fill="none"></polyline>
<polyline points="1380.75,939.99,6031,1849.4" stroke="rgb(255,204,0)" stroke-width="2" fill="none"></polyline>
<polyline points="1380.75,939.99,6031,1849.4" stroke="rgb(255,140,0)" stroke-width="2" fill="none"></polyline>
<polyline points="1380.75,939.99,6102.35,1863.29" stroke="rgb(255,191,0)" stroke-width="2" fill="none"></polyline>
<polyline points="1380.75,939.99,6102.35,1863.29" stroke="rgb(255,0,85)" stroke-width="2" fill="none"></polyline>
<polyline points="1853.02,1588.64,5662.05,1450.32" stroke="rgb(255,0,110)" stroke-width="2" fill="none"></polyline>
<polyline points="1380.75,939.99,6174.96,1876.93" stroke="rgb(0,76,255)" stroke-width="2" fill="none"></polyline>
<polyline points="1380.75,939.99,6174.96,1876.93" stroke="rgb(221,0,255)" stroke-width="2" fill="none"></polyline>
<polyline points="2063.86,932.265,7020.02,1625.38" stroke="rgb(72,0,255)" stroke-width="2" fill="none"></polyline>
<polyline points="1098.16,873.928,5299.6,1542.56" stroke="rgb(255,216,0)" stroke-width="2" fill="none"></polyline>
<polyline points="1154.33,774.359,5837.27,2068.57" stroke="rgb(250,0,255)" stroke-width="2" fill="none"></polyline>
<polyline points="1154.33,774.359,5837.27,2068.57" stroke="rgb(0,255,169)" stroke-width="2" fill="none"></polyline>
<polyline points="1897.63,1343.71,5545.64,2080.58" stroke="rgb(114,255,0)" stroke-width="2" fill="none"></polyline>
<polyline points="1777.56,1528.55,5974.03,1065.06" stroke="rgb(89,0,255)" stroke-width="2" fill="none"></polyline>
<polyline points="1815.28,1467.55,6430.42,1831.47" stroke="rgb(255,0,33)" stroke-width="2" fill="none"></polyline>
<polyline points="1767.69,1522.36,6016.35,1204.79" stroke="rgb(255,216,0)" stroke-width="2" fill="none"></polyline>
<polyline points="2695.57,1699.56,5281.07,1556.43" stroke="rgb(55,0,255)" stroke-width="2" fill="none"></polyline>
<polyline points="2852.29,1150.42,5329.11,1723.97" stroke="rgb(0,255,63)" stroke-width="2" fill="none"></polyline>
<polyline points="2580.5,847.068,6327.13,1484.9" stroke="rgb(157,0,255)" stroke-width="2" fill="none"></polyline>
<polyline points="1485.15,1137.44,5899.42,1175.34" stroke="rgb(0,255,152)" stroke-width="2" fill="none"></polyline>
<circle cx="2429.08" cy="692.842" r="4" stroke="rgb(38,255,0)" stroke-width="2" fill="none"></circle>
<circle cx="6629.09" cy="1261.16" r="4" stroke="rgb(38,255,0)" stroke-width="2" fill="none"></circle>
<circle cx="2599.83" cy="1511.78" r="4" stroke="rgb(0,255,148)" stroke-width="2" fill="none"></circle>
<circle cx="6120.08" cy="1261.37" r="4" stroke="rgb(0,255,148)" stroke-width="2" fill="none"></circle>
<circle cx="2625.51" cy="1527.74" r="4" stroke="rgb(255,0,21)" stroke-width="2" fill="none"></circle>
<circle cx="6501.96" cy="2508.4" r="4" stroke="rgb(255,0,21)" stroke-width="2" fill="none"></circle>
<circle cx="1293.94" cy="721.175" r="4" stroke="rgb(255,0,182)" stroke-width="2" fill="none"></circle>
<circle cx="6204.08" cy="1265.82" r="4" stroke="rgb(255,0,182)" stroke-width="2" fill="none"></circle>
<circle cx="2599.83" cy="1511.78" r="4" stroke="rgb(255,255,0)" stroke-width="2" fill="none"></circle>
<circle cx="6049.75" cy="1682" r="4" stroke="rgb(255,255,0)" stroke-width="2" fill="none"></circle>
<circle cx="2883.12" cy="1191.95" r="4" stroke="rgb(25,0,255)" stroke-width="2" fill="none"></circle>
<circle cx="4997.3" cy="2342.76" r="4" stroke="rgb(25,0,255)" stroke-width="2" fill="none"></circle>
<circle cx="1556.8" cy="928.318" r="4" stroke="rgb(195,255,0)" stroke-width="2" fill="none"></circle>
<circle cx="4734.5" cy="718.329" r="4" stroke="rgb(195,255,0)" stroke-width="2" fill="none"></circle>
<circle cx="1981.22" cy="1585.38" r="4" stroke="rgb(255,0,12)" stroke-width="2" fill="none"></circle>
<circle cx="5598.43" cy="2362.71" r="4" stroke="rgb(255,0,12)" stroke-width="2" fill="none"></circle>
<circle cx="1964.42" cy="1360.63" r="4" stroke="rgb(178,255,0)" stroke-width="2" fill="none"></circle>
<circle cx="6764.58" cy="1279.07" r="4" stroke="rgb(178,255,0)" stroke-width="2" fill="none"></circle>
<circle cx="2229.66" cy="2398.18" r="4" stroke="rgb(16,255,0)" stroke-width="2" fill="none"></circle>
<circle cx="4715.09" cy="874.758" r="4" stroke="rgb(16,255,0)" stroke-width="2" fill="none"></circle>
<circle cx="2044.1" cy="597.939" r="4" stroke="rgb(0,255,216)" stroke-width="2" fill="none"></circle>
<circle cx="5453.79" cy="825.541" r="4" stroke="rgb(0,255,216)" stroke-width="2" fill="none"></circle>
<circle cx="2635.62" cy="1550.3" r="4" stroke="rgb(0,161,255)" stroke-width="2" fill="none"></circle>
<circle cx="6417.56" cy="1701.91" r="4" stroke="rgb(0,161,255)" stroke-width="2" fill="none"></circle>
<circle cx="1293.94" cy="721.175" r="4" stroke="rgb(0,221,255)" stroke-width="2" fill="none"></circle>
<circle cx="6169.81" cy="912.856" r="4" stroke="rgb(0,221,255)" stroke-width="2" fill="none"></circle>
<circle cx="2599.83" cy="1511.78" r="4" stroke="rgb(0,255,208)" stroke-width="2" fill="none"></circle>
<circle cx="6230.8" cy="941.387" r="4" stroke="rgb(0,255,208)" stroke-width="2" fill="none"></circle>
<circle cx="1906.63" cy="1501.25" r="4" stroke="rgb(0,255,246)" stroke-width="2" fill="none"></circle>
<circle cx="6461.72" cy="2454.51" r="4" stroke="rgb(0,255,246)" stroke-width="2" fill="none"></circle>
<circle cx="2599.83" cy="1511.78" r="4" stroke="rgb(255,127,0)" stroke-width="2" fill="none"></circle>
<circle cx="6156.01" cy="957.913" r="4" stroke="rgb(255,127,0)" stroke-width="2" fill="none"></circle>
<circle cx="2599.83" cy="1511.78" r="4" stroke="rgb(4,0,255)" stroke-width="2" fill="none"></circle>
<circle cx="6297.19" cy="973.152" r="4" stroke="rgb(4,0,255)" stroke-width="2" fill="none"></circle>
<circle cx="2451.62" cy="622.706" r="4" stroke="rgb(255,246,0)" stroke-width="2" fill="none"></circle>
<circle cx="4905.22" cy="856.258" r="4" stroke="rgb(255,246,0)" stroke-width="2" fill="none"></circle>
<circle cx="2599.83" cy="1511.78" r="4" stroke="rgb(0,199,255)" stroke-width="2" fill="none"></circle>
<circle cx="6041.03" cy="1346.91" r="4" stroke="rgb(0,199,255)" stroke-width="2" fill="none"></circle>
<circle cx="1862.24" cy="381.458" r="4" stroke="rgb(255,8,0)" stroke-width="2" fill="none"></circle>
<circle cx="6642.95" cy="1742.99" r="4" stroke="rgb(255,8,0)" stroke-width="2" fill="none"></circle>
<circle cx="1061.51" cy="914.234" r="4" stroke="rgb(114,0,255)" stroke-width="2" fill="none"></circle>
<circle cx="5545.02" cy="1067.19" r="4" stroke="rgb(114,0,255)" stroke-width="2" fill="none"></circle>
<circle cx="2599.83" cy="1511.78" r="4" stroke="rgb(0,250,255)" stroke-width="2" fill="none"></circle>
<circle cx="5544.08" cy="1360.77" r="4" stroke="rgb(0,250,255)" stroke-width="2" fill="none"></circle>
<circle cx="1567.99" cy="1216.81" r="4" stroke="rgb(0,255,97)" stroke-width="2" fill="none"></circle>
<circle cx="6631.2" cy="1079.06" r="4" stroke="rgb(0,255,97)" stroke-width="2" fill="none"></circle>
<circle cx="1567.99" cy="1216.81" r="4" stroke="rgb(17,0,255)" stroke-width="2" fill="none"></circle>
<circle cx="6631.2" cy="1079.06" r="4" stroke="rgb(17,0,255)" stroke-width="2" fill="none"></circle>
<circle cx="1958.78" cy="2174.03" r="4" stroke="rgb(127,255,0)" stroke-width="2" fill="none"></circle>
<circle cx="6797.65" cy="1757.54" r="4" stroke="rgb(127,255,0)" stroke-width="2" fill="none"></circle>
<circle cx="2599.83" cy="1511.78" r="4" stroke="rgb(255,114,0)" stroke-width="2" fill="none"></circle>
<circle cx="6223.2" cy="1090.34" r="4" stroke="rgb(255,114,0)" stroke-width="2" fill="none"></circle>
<circle cx="1154.33" cy="774.359" r="4" stroke="rgb(0,255,250)" stroke-width="2" fill="none"></circle>
<circle cx="5733.42" cy="844.54" r="4" stroke="rgb(0,255,250)" stroke-width="2" fill="none"></circle>
<circle cx="2599.83" cy="1511.78" r="4" stroke="rgb(4,0,255)" stroke-width="2" fill="none"></circle>
<circle cx="6221.13" cy="1112.93" r="4" stroke="rgb(4,0,255)" stroke-width="2" fill="none"></circle>
<circle cx="1800.39" cy="1525.67" r="4" stroke="rgb(0,225,255)" stroke-width="2" fill="none"></circle>
<circle cx="6825.92" cy="1125.54" r="4" stroke="rgb(0,225,255)" stroke-width="2" fill="none"></circle>
<circle cx="2635.62" cy="1550.3" r="4" stroke="rgb(255,0,229)" stroke-width="2" fill="none"></circle>
<circle cx="6394.23" cy="1355.85" r="4" stroke="rgb(255,0,229)" stroke-width="2" fill="none"></circle>
<circle cx="1335.13" cy="812.58" r="4" stroke="rgb(17,0,255)" stroke-width="2" fill="none"></circle>
<circle cx="4890.6" cy="876.74" r="4" stroke="rgb(17,0,255)" stroke-width="2" fill="none"></circle>
<circle cx="2599.83" cy="1511.78" r="4" stroke="rgb(0,255,212)" stroke-width="2" fill="none"></circle>
<circle cx="6218.87" cy="1130.21" r="4" stroke="rgb(0,255,212)" stroke-width="2" fill="none"></circle>
<circle cx="1860.68" cy="1531.34" r="4" stroke="rgb(80,255,0)" stroke-width="2" fill="none"></circle>
<circle cx="5424.47" cy="1359.72" r="4" stroke="rgb(80,255,0)" stroke-width="2" fill="none"></circle>
<circle cx="1929.42" cy="849.259" r="4" stroke="rgb(38,255,0)" stroke-width="2" fill="none"></circle>
<circle cx="6389.56" cy="1136.47" r="4" stroke="rgb(38,255,0)" stroke-width="2" fill="none"></circle>
<circle cx="2599.83" cy="1511.78" r="4" stroke="rgb(255,0,4)" stroke-width="2" fill="none"></circle>
<circle cx="5540.23" cy="1396.83" r="4" stroke="rgb(255,0,4)" stroke-width="2" fill="none"></circle>
<circle cx="1154.33" cy="774.359" r="4" stroke="rgb(255,140,0)" stroke-width="2" fill="none"></circle>
<circle cx="5835.14" cy="886.306" r="4" stroke="rgb(255,140,0)" stroke-width="2" fill="none"></circle>
<circle cx="2735.99" cy="1308.11" r="4" stroke="rgb(255,0,8)" stroke-width="2" fill="none"></circle>
<circle cx="5713.51" cy="1792.08" r="4" stroke="rgb(255,0,8)" stroke-width="2" fill="none"></circle>
<circle cx="2602.18" cy="1240.24" r="4" stroke="rgb(199,255,0)" stroke-width="2" fill="none"></circle>
<circle cx="5576.95" cy="1746.28" r="4" stroke="rgb(199,255,0)" stroke-width="2" fill="none"></circle>
<circle cx="2635.62" cy="1550.3" r="4" stroke="rgb(255,127,0)" stroke-width="2" fill="none"></circle>
<circle cx="5846.1" cy="1003.55" r="4" stroke="rgb(255,127,0)" stroke-width="2" fill="none"></circle>
<circle cx="2592.45" cy="861.293" r="4" stroke="rgb(187,255,0)" stroke-width="2" fill="none"></circle>
<circle cx="6628.02" cy="1426.44" r="4" stroke="rgb(187,255,0)" stroke-width="2" fill="none"></circle>
<circle cx="2535.01" cy="1763.52" r="4" stroke="rgb(250,255,0)" stroke-width="2" fill="none"></circle>
<circle cx="6362.66" cy="1427.65" r="4" stroke="rgb(250,255,0)" stroke-width="2" fill="none"></circle>
<circle cx="2020.3" cy="1346.11" r="4" stroke="rgb(199,255,0)" stroke-width="2" fill="none"></circle>
<circle cx="5998.22" cy="1188.39" r="4" stroke="rgb(199,255,0)" stroke-width="2" fill="none"></circle>
<circle cx="1154.33" cy="774.359" r="4" stroke="rgb(165,0,255)" stroke-width="2" fill="none"></circle>
<circle cx="5830.09" cy="933.182" r="4" stroke="rgb(165,0,255)" stroke-width="2" fill="none"></circle>
<circle cx="2599.83" cy="1511.78" r="4" stroke="rgb(38,0,255)" stroke-width="2" fill="none"></circle>
<circle cx="6249.13" cy="1448.64" r="4" stroke="rgb(38,0,255)" stroke-width="2" fill="none"></circle>
<circle cx="1494.2" cy="808.17" r="4" stroke="rgb(8,0,255)" stroke-width="2" fill="none"></circle>
<circle cx="5886.35" cy="1240.55" r="4" stroke="rgb(8,0,255)" stroke-width="2" fill="none"></circle>
<circle cx="2123.46" cy="1283.13" r="4" stroke="rgb(255,0,131)" stroke-width="2" fill="none"></circle>
<circle cx="7113.65" cy="1406.33" r="4" stroke="rgb(255,0,131)" stroke-width="2" fill="none"></circle>
<circle cx="2691.94" cy="1260.83" r="4" stroke="rgb(0,255,131)" stroke-width="2" fill="none"></circle>
<circle cx="6690.98" cy="1857.56" r="4" stroke="rgb(0,255,131)" stroke-width="2" fill="none"></circle>
<circle cx="1154.33" cy="774.359" r="4" stroke="rgb(255,0,17)" stroke-width="2" fill="none"></circle>
<circle cx="5845.33" cy="1416.74" r="4" stroke="rgb(255,0,17)" stroke-width="2" fill="none"></circle>
<circle cx="2599.83" cy="1511.78" r="4" stroke="rgb(255,114,0)" stroke-width="2" fill="none"></circle>
<circle cx="6237.25" cy="1508.35" r="4" stroke="rgb(255,114,0)" stroke-width="2" fill="none"></circle>
<circle cx="2249.81" cy="2211.92" r="4" stroke="rgb(0,97,255)" stroke-width="2" fill="none"></circle>
<circle cx="5490.15" cy="1000.64" r="4" stroke="rgb(0,97,255)" stroke-width="2" fill="none"></circle>
<circle cx="2599.83" cy="1511.78" r="4" stroke="rgb(0,42,255)" stroke-width="2" fill="none"></circle>
<circle cx="6148.75" cy="1525.04" r="4" stroke="rgb(0,42,255)" stroke-width="2" fill="none"></circle>
<circle cx="2599.83" cy="1511.78" r="4" stroke="rgb(0,255,195)" stroke-width="2" fill="none"></circle>
<circle cx="5674.92" cy="1111.27" r="4" stroke="rgb(0,255,195)" stroke-width="2" fill="none"></circle>
<circle cx="1154.33" cy="774.359" r="4" stroke="rgb(255,161,0)" stroke-width="2" fill="none"></circle>
<circle cx="6775.32" cy="1538.18" r="4" stroke="rgb(255,161,0)" stroke-width="2" fill="none"></circle>
<circle cx="1154.33" cy="774.359" r="4" stroke="rgb(255,55,0)" stroke-width="2" fill="none"></circle>
<circle cx="6800.92" cy="1537.75" r="4" stroke="rgb(255,55,0)" stroke-width="2" fill="none"></circle>
<circle cx="2635.62" cy="1550.3" r="4" stroke="rgb(178,0,255)" stroke-width="2" fill="none"></circle>
<circle cx="6219.04" cy="1548.86" r="4" stroke="rgb(178,0,255)" stroke-width="2" fill="none"></circle>
<circle cx="2123.46" cy="1283.13" r="4" stroke="rgb(255,4,0)" stroke-width="2" fill="none"></circle>
<circle cx="7116.01" cy="1444.5" r="4" stroke="rgb(255,4,0)" stroke-width="2" fill="none"></circle>
<circle cx="1964.42" cy="1360.63" r="4" stroke="rgb(255,170,0)" stroke-width="2" fill="none"></circle>
<circle cx="6242.75" cy="1552.11" r="4" stroke="rgb(255,170,0)" stroke-width="2" fill="none"></circle>
<circle cx="1318.92" cy="897.009" r="4" stroke="rgb(76,255,0)" stroke-width="2" fill="none"></circle>
<circle cx="5885.83" cy="1129.95" r="4" stroke="rgb(76,255,0)" stroke-width="2" fill="none"></circle>
<circle cx="2599.83" cy="1511.78" r="4" stroke="rgb(8,0,255)" stroke-width="2" fill="none"></circle>
<circle cx="6065.6" cy="1578.31" r="4" stroke="rgb(8,0,255)" stroke-width="2" fill="none"></circle>
<circle cx="1154.33" cy="774.359" r="4" stroke="rgb(89,255,0)" stroke-width="2" fill="none"></circle>
<circle cx="5735.11" cy="1093.28" r="4" stroke="rgb(89,255,0)" stroke-width="2" fill="none"></circle>
<circle cx="2043.15" cy="662.502" r="4" stroke="rgb(255,204,0)" stroke-width="2" fill="none"></circle>
<circle cx="7048.87" cy="1467.97" r="4" stroke="rgb(255,204,0)" stroke-width="2" fill="none"></circle>
<circle cx="2599.83" cy="1511.78" r="4" stroke="rgb(255,0,8)" stroke-width="2" fill="none"></circle>
<circle cx="6218.7" cy="1141.88" r="4" stroke="rgb(255,0,8)" stroke-width="2" fill="none"></circle>
<circle cx="2374.05" cy="701.536" r="4" stroke="rgb(123,0,255)" stroke-width="2" fill="none"></circle>
<circle cx="6744.03" cy="1945.67" r="4" stroke="rgb(123,0,255)" stroke-width="2" fill="none"></circle>
<circle cx="1841.47" cy="1235.02" r="4" stroke="rgb(255,89,0)" stroke-width="2" fill="none"></circle>
<circle cx="5691.64" cy="1470.78" r="4" stroke="rgb(255,89,0)" stroke-width="2" fill="none"></circle>
<circle cx="2461.53" cy="910.842" r="4" stroke="rgb(42,255,0)" stroke-width="2" fill="none"></circle>
<circle cx="6368.64" cy="1144.85" r="4" stroke="rgb(42,255,0)" stroke-width="2" fill="none"></circle>
<circle cx="1703.4" cy="618.968" r="4" stroke="rgb(0,255,84)" stroke-width="2" fill="none"></circle>
<circle cx="6079.03" cy="1952.87" r="4" stroke="rgb(0,255,84)" stroke-width="2" fill="none"></circle>
<circle cx="2257.82" cy="721.712" r="4" stroke="rgb(255,229,0)" stroke-width="2" fill="none"></circle>
<circle cx="5419.3" cy="1129.48" r="4" stroke="rgb(255,229,0)" stroke-width="2" fill="none"></circle>
<circle cx="1567.99" cy="1216.81" r="4" stroke="rgb(255,0,85)" stroke-width="2" fill="none"></circle>
<circle cx="6810.45" cy="1139.15" r="4" stroke="rgb(255,0,85)" stroke-width="2" fill="none"></circle>
<circle cx="1154.33" cy="774.359" r="4" stroke="rgb(0,114,255)" stroke-width="2" fill="none"></circle>
<circle cx="5729.14" cy="1146.66" r="4" stroke="rgb(0,114,255)" stroke-width="2" fill="none"></circle>
<circle cx="1154.33" cy="774.359" r="4" stroke="rgb(153,255,0)" stroke-width="2" fill="none"></circle>
<circle cx="6553.51" cy="1998.02" r="4" stroke="rgb(153,255,0)" stroke-width="2" fill="none"></circle>
<circle cx="2599.83" cy="1511.78" r="4" stroke="rgb(203,0,255)" stroke-width="2" fill="none"></circle>
<circle cx="6379.33" cy="2005.28" r="4" stroke="rgb(203,0,255)" stroke-width="2" fill="none"></circle>
<circle cx="2599.83" cy="1511.78" r="4" stroke="rgb(148,0,255)" stroke-width="2" fill="none"></circle>
<circle cx="6088.66" cy="1511.84" r="4" stroke="rgb(148,0,255)" stroke-width="2" fill="none"></circle>
<circle cx="1154.33" cy="774.359" r="4" stroke="rgb(0,255,157)" stroke-width="2" fill="none"></circle>
<circle cx="6036.89" cy="1857.14" r="4" stroke="rgb(0,255,157)" stroke-width="2" fill="none"></circle>
<circle cx="2635.62" cy="1550.3" r="4" stroke="rgb(174,255,0)" stroke-width="2" fill="none"></circle>
<circle cx="6317.54" cy="1857.22" r="4" stroke="rgb(174,255,0)" stroke-width="2" fill="none"></circle>
<circle cx="1154.33" cy="774.359" r="4" stroke="rgb(255,153,0)" stroke-width="2" fill="none"></circle>
<circle cx="6205.14" cy="1639.06" r="4" stroke="rgb(255,153,0)" stroke-width="2" fill="none"></circle>
<circle cx="2043.27" cy="930.708" r="4" stroke="rgb(131,0,255)" stroke-width="2" fill="none"></circle>
<circle cx="6951.55" cy="1197.76" r="4" stroke="rgb(131,0,255)" stroke-width="2" fill="none"></circle>
<circle cx="1817.8" cy="1605.79" r="4" stroke="rgb(255,208,0)" stroke-width="2" fill="none"></circle>
<circle cx="5867.59" cy="1533.36" r="4" stroke="rgb(255,208,0)" stroke-width="2" fill="none"></circle>
<circle cx="1860.68" cy="1531.34" r="4" stroke="rgb(255,255,0)" stroke-width="2" fill="none"></circle>
<circle cx="5426.99" cy="1535.87" r="4" stroke="rgb(255,255,0)" stroke-width="2" fill="none"></circle>
<circle cx="1875.94" cy="1685.82" r="4" stroke="rgb(114,0,255)" stroke-width="2" fill="none"></circle>
<circle cx="6917.59" cy="1884.11" r="4" stroke="rgb(114,0,255)" stroke-width="2" fill="none"></circle>
<circle cx="1154.33" cy="774.359" r="4" stroke="rgb(255,0,221)" stroke-width="2" fill="none"></circle>
<circle cx="5656.73" cy="2259.95" r="4" stroke="rgb(255,0,221)" stroke-width="2" fill="none"></circle>
<circle cx="1380.75" cy="939.99" r="4" stroke="rgb(157,0,255)" stroke-width="2" fill="none"></circle>
<circle cx="5586.81" cy="1788.3" r="4" stroke="rgb(157,0,255)" stroke-width="2" fill="none"></circle>
<circle cx="1380.75" cy="939.99" r="4" stroke="rgb(0,255,72)" stroke-width="2" fill="none"></circle>
<circle cx="5586.81" cy="1788.3" r="4" stroke="rgb(0,255,72)" stroke-width="2" fill="none"></circle>
<circle cx="1851.02" cy="1106.2" r="4" stroke="rgb(21,255,0)" stroke-width="2" fill="none"></circle>
<circle cx="6294.46" cy="2340.11" r="4" stroke="rgb(21,255,0)" stroke-width="2" fill="none"></circle>
<circle cx="1772.87" cy="1441.64" r="4" stroke="rgb(0,225,255)" stroke-width="2" fill="none"></circle>
<circle cx="5663.74" cy="2400.53" r="4" stroke="rgb(0,225,255)" stroke-width="2" fill="none"></circle>
<circle cx="1767.73" cy="1506.31" r="4" stroke="rgb(255,97,0)" stroke-width="2" fill="none"></circle>
<circle cx="5711.7" cy="1582.84" r="4" stroke="rgb(255,97,0)" stroke-width="2" fill="none"></circle>
<circle cx="2599.83" cy="1511.78" r="4" stroke="rgb(255,157,0)" stroke-width="2" fill="none"></circle>
<circle cx="6063.9" cy="1587.02" r="4" stroke="rgb(255,157,0)" stroke-width="2" fill="none"></circle>
<circle cx="1154.33" cy="774.359" r="4" stroke="rgb(0,221,255)" stroke-width="2" fill="none"></circle>
<circle cx="5704.89" cy="1349.41" r="4" stroke="rgb(0,221,255)" stroke-width="2" fill="none"></circle>
<circle cx="1978.9" cy="1575.04" r="4" stroke="rgb(242,255,0)" stroke-width="2" fill="none"></circle>
<circle cx="5899.92" cy="1589.44" r="4" stroke="rgb(242,255,0)" stroke-width="2" fill="none"></circle>
<circle cx="1829.03" cy="1445.39" r="4" stroke="rgb(255,46,0)" stroke-width="2" fill="none"></circle>
<circle cx="5854.22" cy="1807.61" r="4" stroke="rgb(255,46,0)" stroke-width="2" fill="none"></circle>
<circle cx="1627.27" cy="1228.73" r="4" stroke="rgb(212,255,0)" stroke-width="2" fill="none"></circle>
<circle cx="6000.55" cy="1403.58" r="4" stroke="rgb(212,255,0)" stroke-width="2" fill="none"></circle>
<circle cx="1817.8" cy="1605.79" r="4" stroke="rgb(255,148,0)" stroke-width="2" fill="none"></circle>
<circle cx="6488.38" cy="1977.73" r="4" stroke="rgb(255,148,0)" stroke-width="2" fill="none"></circle>
<circle cx="1380.75" cy="939.99" r="4" stroke="rgb(255,250,0)" stroke-width="2" fill="none"></circle>
<circle cx="6031.12" cy="1849.6" r="4" stroke="rgb(255,250,0)" stroke-width="2" fill="none"></circle>
<circle cx="2559.36" cy="850.276" r="4" stroke="rgb(255,0,250)" stroke-width="2" fill="none"></circle>
<circle cx="6855.25" cy="1418.66" r="4" stroke="rgb(255,0,250)" stroke-width="2" fill="none"></circle>
<circle cx="1380.75" cy="939.99" r="4" stroke="rgb(0,255,237)" stroke-width="2" fill="none"></circle>
<circle cx="6031.12" cy="1849.6" r="4" stroke="rgb(0,255,237)" stroke-width="2" fill="none"></circle>
<circle cx="1906.66" cy="1361.81" r="4" stroke="rgb(255,0,204)" stroke-width="2" fill="none"></circle>
<circle cx="5551.98" cy="2006.82" r="4" stroke="rgb(255,0,204)" stroke-width="2" fill="none"></circle>
<circle cx="1154.33" cy="774.359" r="4" stroke="rgb(255,216,0)" stroke-width="2" fill="none"></circle>
<circle cx="6305.1" cy="2020.5" r="4" stroke="rgb(255,216,0)" stroke-width="2" fill="none"></circle>
<circle cx="1380.75" cy="939.99" r="4" stroke="rgb(255,0,182)" stroke-width="2" fill="none"></circle>
<circle cx="6102.39" cy="1863.25" r="4" stroke="rgb(255,0,182)" stroke-width="2" fill="none"></circle>
<circle cx="1380.75" cy="939.99" r="4" stroke="rgb(255,25,0)" stroke-width="2" fill="none"></circle>
<circle cx="6102.39" cy="1863.25" r="4" stroke="rgb(255,25,0)" stroke-width="2" fill="none"></circle>
<circle cx="2028.95" cy="864.159" r="4" stroke="rgb(97,0,255)" stroke-width="2" fill="none"></circle>
<circle cx="6991.42" cy="1640.41" r="4" stroke="rgb(97,0,255)" stroke-width="2" fill="none"></circle>
<circle cx="1380.75" cy="939.99" r="4" stroke="rgb(0,255,212)" stroke-width="2" fill="none"></circle>
<circle cx="6244.24" cy="1887.71" r="4" stroke="rgb(0,255,212)" stroke-width="2" fill="none"></circle>
<circle cx="1380.75" cy="939.99" r="4" stroke="rgb(255,0,161)" stroke-width="2" fill="none"></circle>
<circle cx="6244.24" cy="1887.71" r="4" stroke="rgb(255,0,161)" stroke-width="2" fill="none"></circle>
<circle cx="2599.83" cy="1511.78" r="4" stroke="rgb(0,208,255)" stroke-width="2" fill="none"></circle>
<circle cx="5763.05" cy="2153.25" r="4" stroke="rgb(0,208,255)" stroke-width="2" fill="none"></circle>
<circle cx="2635.62" cy="1550.3" r="4" stroke="rgb(255,0,182)" stroke-width="2" fill="none"></circle>
<circle cx="6348.32" cy="1654.71" r="4" stroke="rgb(255,0,182)" stroke-width="2" fill="none"></circle>
<circle cx="1771.82" cy="1334.6" r="4" stroke="rgb(4,255,0)" stroke-width="2" fill="none"></circle>
<circle cx="6751.91" cy="2213.56" r="4" stroke="rgb(4,255,0)" stroke-width="2" fill="none"></circle>
<circle cx="1800.91" cy="1496.89" r="4" stroke="rgb(131,0,255)" stroke-width="2" fill="none"></circle>
<circle cx="6129.73" cy="1957.62" r="4" stroke="rgb(131,0,255)" stroke-width="2" fill="none"></circle>
<circle cx="1736.94" cy="1499.06" r="4" stroke="rgb(0,59,255)" stroke-width="2" fill="none"></circle>
<circle cx="6814.81" cy="1538.7" r="4" stroke="rgb(0,59,255)" stroke-width="2" fill="none"></circle>
<circle cx="1818.2" cy="601.143" r="4" stroke="rgb(97,0,255)" stroke-width="2" fill="none"></circle>
<circle cx="6225.63" cy="2018.97" r="4" stroke="rgb(97,0,255)" stroke-width="2" fill="none"></circle>
<circle cx="1818.2" cy="601.143" r="4" stroke="rgb(0,203,255)" stroke-width="2" fill="none"></circle>
<circle cx="6298.06" cy="2024.64" r="4" stroke="rgb(0,203,255)" stroke-width="2" fill="none"></circle>
<circle cx="2229.66" cy="2398.18" r="4" stroke="rgb(195,0,255)" stroke-width="2" fill="none"></circle>
<circle cx="6312.94" cy="2080.43" r="4" stroke="rgb(195,0,255)" stroke-width="2" fill="none"></circle>
<circle cx="2755.05" cy="1274.92" r="4" stroke="rgb(255,178,0)" stroke-width="2" fill="none"></circle>
<circle cx="4868.88" cy="2179.16" r="4" stroke="rgb(255,178,0)" stroke-width="2" fill="none"></circle>
<circle cx="2703.3" cy="2088.54" r="4" stroke="rgb(0,255,84)" stroke-width="2" fill="none"></circle>
<circle cx="5573.64" cy="2181.54" r="4" stroke="rgb(0,255,84)" stroke-width="2" fill="none"></circle>
<circle cx="1556.8" cy="928.318" r="4" stroke="rgb(0,157,255)" stroke-width="2" fill="none"></circle>
<circle cx="4736.38" cy="727.256" r="4" stroke="rgb(0,157,255)" stroke-width="2" fill="none"></circle>
<circle cx="1778.99" cy="1555.75" r="4" stroke="rgb(255,221,0)" stroke-width="2" fill="none"></circle>
<circle cx="6342.63" cy="1296.29" r="4" stroke="rgb(255,221,0)" stroke-width="2" fill="none"></circle>
<circle cx="1602.86" cy="1313.57" r="4" stroke="rgb(0,255,29)" stroke-width="2" fill="none"></circle>
<circle cx="5878.41" cy="2186.1" r="4" stroke="rgb(0,255,29)" stroke-width="2" fill="none"></circle>
<circle cx="2229.66" cy="2398.18" r="4" stroke="rgb(93,0,255)" stroke-width="2" fill="none"></circle>
<circle cx="6577.73" cy="2329.29" r="4" stroke="rgb(93,0,255)" stroke-width="2" fill="none"></circle>
<circle cx="2063.86" cy="932.265" r="4" stroke="rgb(191,255,0)" stroke-width="2" fill="none"></circle>
<circle cx="7016.39" cy="1525.75" r="4" stroke="rgb(191,255,0)" stroke-width="2" fill="none"></circle>
<circle cx="1885.4" cy="1496.61" r="4" stroke="rgb(255,157,0)" stroke-width="2" fill="none"></circle>
<circle cx="5867.72" cy="1551.23" r="4" stroke="rgb(255,157,0)" stroke-width="2" fill="none"></circle>
<circle cx="1917.91" cy="1633.12" r="4" stroke="rgb(123,255,0)" stroke-width="2" fill="none"></circle>
<circle cx="7038.42" cy="1719.97" r="4" stroke="rgb(123,255,0)" stroke-width="2" fill="none"></circle>
<circle cx="1898.56" cy="1358.83" r="4" stroke="rgb(255,42,0)" stroke-width="2" fill="none"></circle>
<circle cx="5217.8" cy="1820" r="4" stroke="rgb(255,42,0)" stroke-width="2" fill="none"></circle>
<circle cx="1380.75" cy="939.99" r="4" stroke="rgb(255,204,0)" stroke-width="2" fill="none"></circle>
<circle cx="6031" cy="1849.4" r="4" stroke="rgb(255,204,0)" stroke-width="2" fill="none"></circle>
<circle cx="1380.75" cy="939.99" r="4" stroke="rgb(255,140,0)" stroke-width="2" fill="none"></circle>
<circle cx="6031" cy="1849.4" r="4" stroke="rgb(255,140,0)" stroke-width="2" fill="none"></circle>
<circle cx="1380.75" cy="939.99" r="4" stroke="rgb(255,191,0)" stroke-width="2" fill="none"></circle>
<circle cx="6102.35" cy="1863.29" r="4" stroke="rgb(255,191,0)" stroke-width="2" fill="none"></circle>
<circle cx="1380.75" cy="939.99" r="4" stroke="rgb(255,0,85)" stroke-width="2" fill="none"></circle>
<circle cx="6102.35" cy="1863.29" r="4" stroke="rgb(255,0,85)" stroke-width="2" fill="none"></circle>
<circle cx="1853.02" cy="1588.64" r="4" stroke="rgb(255,0,110)" stroke-width="2" fill="none"></circle>
<circle cx="5662.05" cy="1450.32" r="4" stroke="rgb(255,0,110)" stroke-width="2" fill="none"></circle>
<circle cx="1380.75" cy="939.99" r="4" stroke="rgb(0,76,255)" stroke-width="2" fill="none"></circle>
<circle cx="6174.96" cy="1876.93" r="4" stroke="rgb(0,76,255)" stroke-width="2" fill="none"></circle>
<circle cx="1380.75" cy="939.99" r="4" stroke="rgb(221,0,255)" stroke-width="2" fill="none"></circle>
<circle cx="6174.96" cy="1876.93" r="4" stroke="rgb(221,0,255)" stroke-width="2" fill="none"></circle>
<circle cx="2063.86" cy="932.265" r="4" stroke="rgb(72,0,255)" stroke-width="2" fill="none"></circle>
<circle cx="7020.02" cy="1625.38" r="4" stroke="rgb(72,0,255)" stroke-width="2" fill="none"></circle>
<circle cx="1098.16" cy="873.928" r="4" stroke="rgb(255,216,0)" stroke-width="2" fill="none"></circle>
<circle cx="5299.6" cy="1542.56" r="4" stroke="rgb(255,216,0)" stroke-width="2" fill="none"></circle>
<circle cx="1154.33" cy="774.359" r="4" stroke="rgb(250,0,255)" stroke-width="2" fill="none"></circle>
<circle cx="5837.27" cy="2068.57" r="4" stroke="rgb(250,0,255)" stroke-width="2" fill="none"></circle>
<circle cx="1154.33" cy="774.359" r="4" stroke="rgb(0,255,169)" stroke-width="2" fill="none"></circle>
<circle cx="5837.27" cy="2068.57" r="4" stroke="rgb(0,255,169)" stroke-width="2" fill="none"></circle>
<circle cx="1897.63" cy="1343.71" r="4" stroke="rgb(114,255,0)" stroke-width="2" fill="none"></circle>
<circle cx="5545.64" cy="2080.58" r="4" stroke="rgb(114,255,0)" stroke-width="2" fill="none"></circle>
<circle cx="1777.56" cy="1528.55" r="4" stroke="rgb(89,0,255)" stroke-width="2" fill="none"></circle>
<circle cx="5974.03" cy="1065.06" r="4" stroke="rgb(89,0,255)" stroke-width="2" fill="none"></circle>
<circle cx="1815.28" cy="1467.55" r="4" stroke="rgb(255,0,33)" stroke-width="2" fill="none"></circle>
<circle cx="6430.42" cy="1831.47" r="4" stroke="rgb(255,0,33)" stroke-width="2" fill="none"></circle>
<circle cx="1767.69" cy="1522.36" r="4" stroke="rgb(255,216,0)" stroke-width="2" fill="none"></circle>
<circle cx="6016.35" cy="1204.79" r="4" stroke="rgb(255,216,0)" stroke-width="2" fill="none"></circle>
<circle cx="2695.57" cy="1699.56" r="4" stroke="rgb(55,0,255)" stroke-width="2" fill="none"></circle>
<circle cx="5281.07" cy="1556.43" r="4" stroke="rgb(55,0,255)" stroke-width="2" fill="none"></circle>
<circle cx="2852.29" cy="1150.42" r="4" stroke="rgb(0,255,63)" stroke-width="2" fill="none"></circle>
<circle cx="5329.11" cy="1723.97" r="4" stroke="rgb(0,255,63)" stroke-width="2" fill="none"></circle>
<circle cx="2580.5" cy="847.068" r="4" stroke="rgb(157,0,255)" stroke-width="2" fill="none"></circle>
<circle cx="6327.13" cy="1484.9" r="4" stroke="rgb(157,0,255)" stroke-width="2" fill="none"></circle>
<circle cx="1485.15" cy="1137.44" r="4" stroke="rgb(0,255,152)" stroke-width="2" fill="none"></circle>
<circle cx="5899.42" cy="1175.34" r="4" stroke="rgb(0,255,152)" stroke-width="2" fill="none"></circle>
</svg>