<?xml version="1.0" standalone="yes"?>
<!-- SVG graphic -->
<svg xmlns='http://www.w3.org/2000/svg' xmlns:xlink='http://www.w3.org/1999/xlink'
width="8064px" height="3024px" preserveAspectRatio="xMinYMin meet" viewBox="0 0 8064 3024" version="1.1">
<image x="0" y="0" width="4032px" height="3024px" opacity="1" xlink:href="/home/jeong/Code/2D-to-3D-Modeling-using-AI/Make3D/Image/20200227_180732.jpg"/>
<image x="4032" y="0" width="4032px" height="3024px" opacity="1" xlink:href="/home/jeong/Code/2D-to-3D-Modeling-using-AI/Make3D/Image/20200227_180756.jpg"/>
<polyline points="1863.6,2615.44,5451.02,907.501" stroke="rgb(0,255,8)" stroke-width="2" fill="none"></polyline>
<polyline points="1724.19,1361.82,4964.83,332.161" stroke="rgb(255,0,140)" stroke-width="2" fill="none"></polyline>
<polyline points="1782.38,2501.32,5812.32,1528.51" stroke="rgb(34,0,255)" stroke-width="2" fill="none"></polyline>
<polyline points="1842.4,2238.36,5342.45,2273.21" stroke="rgb(255,0,63)" stroke-width="2" fill="none"></polyline>
<polyline points="2604.15,1312.51,5361.53,2171.22" stroke="rgb(246,255,0)" stroke-width="2" fill="none"></polyline>
<polyline points="1916,2541.58,5359.09,499.367" stroke="rgb(0,255,106)" stroke-width="2" fill="none"></polyline>
<polyline points="2532.05,1491.97,5820.65,1203.28" stroke="rgb(0,255,237)" stroke-width="2" fill="none"></polyline>
<polyline points="2439.13,1195.79,5270.59,2310.29" stroke="rgb(255,0,68)" stroke-width="2" fill="none"></polyline>
<polyline points="2389.25,1824.86,6311.51,1028.42" stroke="rgb(0,4,255)" stroke-width="2" fill="none"></polyline>
<polyline points="2701.64,1427.55,6209.2,519.813" stroke="rgb(233,0,255)" stroke-width="2" fill="none"></polyline>
<polyline points="2751.33,1439.12,5360.57,544.567" stroke="rgb(255,17,0)" stroke-width="2" fill="none"></polyline>
<polyline points="1890.85,1489.89,6492.06,1077.77" stroke="rgb(255,0,250)" stroke-width="2" fill="none"></polyline>
<polyline points="2850.78,1470.25,6182.05,519.776" stroke="rgb(255,0,131)" stroke-width="2" fill="none"></polyline>
<polyline points="1916,2541.58,5130.45,563.822" stroke="rgb(255,140,0)" stroke-width="2" fill="none"></polyline>
<polyline points="2697.24,1990.54,5470.36,2298.14" stroke="rgb(127,255,0)" stroke-width="2" fill="none"></polyline>
<polyline points="2947.93,1959.94,5486.17,575.573" stroke="rgb(229,255,0)" stroke-width="2" fill="none"></polyline>
<polyline points="1800,1731.91,6642.77,2420.01" stroke="rgb(255,127,0)" stroke-width="2" fill="none"></polyline>
<polyline points="2895.41,2074.03,5183.79,2307.19" stroke="rgb(255,0,165)" stroke-width="2" fill="none"></polyline>
<polyline points="2410.25,1544.47,4745.95,558.215" stroke="rgb(0,208,255)" stroke-width="2" fill="none"></polyline>
<polyline points="1825.3,1650.12,5532.44,2462.5" stroke="rgb(0,157,255)" stroke-width="2" fill="none"></polyline>
<polyline points="2435.79,2345.43,4747.39,577.683" stroke="rgb(255,0,157)" stroke-width="2" fill="none"></polyline>
<polyline points="2648.95,1310.36,4780.07,2359.78" stroke="rgb(55,255,0)" stroke-width="2" fill="none"></polyline>
<polyline points="2830.16,1348.05,5009.5,2367.73" stroke="rgb(255,221,0)" stroke-width="2" fill="none"></polyline>
<polyline points="1798.7,2829.12,6053.15,1726.24" stroke="rgb(63,255,0)" stroke-width="2" fill="none"></polyline>
<polyline points="2722.39,1984.36,5437.96,2510" stroke="rgb(255,114,0)" stroke-width="2" fill="none"></polyline>
<polyline points="1578.32,1341.81,5105.33,784.096" stroke="rgb(0,255,229)" stroke-width="2" fill="none"></polyline>
<polyline points="2533.25,2299.31,4338.28,790.434" stroke="rgb(0,255,212)" stroke-width="2" fill="none"></polyline>
<polyline points="2491.15,1455.28,5073.9,1814.14" stroke="rgb(157,0,255)" stroke-width="2" fill="none"></polyline>
<polyline points="2336.66,1769.75,4925.29,1495.31" stroke="rgb(246,255,0)" stroke-width="2" fill="none"></polyline>
<polyline points="1886.31,2474.58,4731.35,1827.54" stroke="rgb(0,255,233)" stroke-width="2" fill="none"></polyline>
<polyline points="1803.63,2386.57,6553,2587.19" stroke="rgb(0,255,195)" stroke-width="2" fill="none"></polyline>
<polyline points="2314.31,2977.46,4989.02,1837.68" stroke="rgb(255,238,0)" stroke-width="2" fill="none"></polyline>
<polyline points="2312.61,2047.74,4744.4,850.03" stroke="rgb(0,255,97)" stroke-width="2" fill="none"></polyline>
<polyline points="1881.87,1490.22,4369.78,859.111" stroke="rgb(255,229,0)" stroke-width="2" fill="none"></polyline>
<polyline points="2620.57,1339.42,5773.4,1529.16" stroke="rgb(255,178,0)" stroke-width="2" fill="none"></polyline>
<polyline points="2009.17,1329.83,5430.43,1359.02" stroke="rgb(0,148,255)" stroke-width="2" fill="none"></polyline>
<polyline points="2044.5,2093.15,5842.25,1646.84" stroke="rgb(208,255,0)" stroke-width="2" fill="none"></polyline>
<polyline points="1885.8,2416.19,5375.05,476.085" stroke="rgb(127,255,0)" stroke-width="2" fill="none"></polyline>
<polyline points="1890.85,1489.89,5583.47,2765.73" stroke="rgb(246,255,0)" stroke-width="2" fill="none"></polyline>
<polyline points="1899.86,2610.8,5192.89,518.572" stroke="rgb(0,246,255)" stroke-width="2" fill="none"></polyline>
<polyline points="1852.57,2105.68,5359.09,958.038" stroke="rgb(255,106,0)" stroke-width="2" fill="none"></polyline>
<polyline points="2192.54,1399.04,6634.8,1931.75" stroke="rgb(229,255,0)" stroke-width="2" fill="none"></polyline>
<polyline points="2074.75,2088.73,4508.04,989.198" stroke="rgb(255,0,17)" stroke-width="2" fill="none"></polyline>
<polyline points="1628.95,1478.59,4775.35,997.739" stroke="rgb(0,55,255)" stroke-width="2" fill="none"></polyline>
<polyline points="2690.97,2085.84,4856.7,1608.75" stroke="rgb(89,255,0)" stroke-width="2" fill="none"></polyline>
<polyline points="2836.53,2453.41,5562.38,1013.4" stroke="rgb(144,255,0)" stroke-width="2" fill="none"></polyline>
<polyline points="1843.3,2676.48,6326.23,575.648" stroke="rgb(225,0,255)" stroke-width="2" fill="none"></polyline>
<polyline points="2739.83,2567.31,5435.41,2060.04" stroke="rgb(0,255,38)" stroke-width="2" fill="none"></polyline>
<polyline points="2706.34,1423.57,5268.03,2077.71" stroke="rgb(255,199,0)" stroke-width="2" fill="none"></polyline>
<polyline points="2435.79,2345.43,4961.13,1753.3" stroke="rgb(255,0,17)" stroke-width="2" fill="none"></polyline>
<polyline points="2678.28,2660.03,5354.8,2195.43" stroke="rgb(255,0,114)" stroke-width="2" fill="none"></polyline>
<polyline points="2435.79,2345.43,4766.65,676.242" stroke="rgb(8,0,255)" stroke-width="2" fill="none"></polyline>
<polyline points="1886.31,2474.58,4732.95,1826.48" stroke="rgb(67,255,0)" stroke-width="2" fill="none"></polyline>
<polyline points="2314.31,2977.46,4988.91,1838.15" stroke="rgb(72,0,255)" stroke-width="2" fill="none"></polyline>
<polyline points="2192.54,1399.04,6526.91,1942.19" stroke="rgb(255,0,55)" stroke-width="2" fill="none"></polyline>
<polyline points="2011.46,2689.72,4510.08,859.73" stroke="rgb(255,12,0)" stroke-width="2" fill="none"></polyline>
<polyline points="1811.18,2699.17,4427.1,2798.23" stroke="rgb(255,0,242)" stroke-width="2" fill="none"></polyline>
<polyline points="2439.13,1195.79,4919.1,2855.1" stroke="rgb(0,255,161)" stroke-width="2" fill="none"></polyline>
<polyline points="2279.61,1576.15,4830.7,947.948" stroke="rgb(0,255,135)" stroke-width="2" fill="none"></polyline>
<polyline points="2496.17,2796.83,5059.74,2361.59" stroke="rgb(255,21,0)" stroke-width="2" fill="none"></polyline>
<polyline points="1886.31,2474.58,4738.03,1823.91" stroke="rgb(255,0,114)" stroke-width="2" fill="none"></polyline>
<polyline points="2677.89,2682.66,5169.85,2396.2" stroke="rgb(0,212,255)" stroke-width="2" fill="none"></polyline>
<polyline points="2781.18,2164.02,5354.5,1454.1" stroke="rgb(229,0,255)" stroke-width="2" fill="none"></polyline>
<polyline points="2023.99,1821.28,5886.27,1460.08" stroke="rgb(255,0,51)" stroke-width="2" fill="none"></polyline>
<polyline points="2752.04,2167.75,5300.65,1462.54" stroke="rgb(12,255,0)" stroke-width="2" fill="none"></polyline>
<polyline points="2704.35,1948.12,5191.53,1176.64" stroke="rgb(255,0,101)" stroke-width="2" fill="none"></polyline>
<polyline points="1739.68,1786.31,4956.12,428.264" stroke="rgb(0,195,255)" stroke-width="2" fill="none"></polyline>
<polyline points="1865.62,2667.08,6427.7,629.05" stroke="rgb(0,221,255)" stroke-width="2" fill="none"></polyline>
<polyline points="2690.97,2085.84,5183.92,1355.84" stroke="rgb(229,255,0)" stroke-width="2" fill="none"></polyline>
<polyline points="1860.22,2460.55,5961.98,1463.02" stroke="rgb(67,0,255)" stroke-width="2" fill="none"></polyline>
<polyline points="2836.53,2453.41,5575.44,1891.49" stroke="rgb(12,0,255)" stroke-width="2" fill="none"></polyline>
<polyline points="1773.7,1954.43,5930.98,769.877" stroke="rgb(255,0,153)" stroke-width="2" fill="none"></polyline>
<polyline points="2671.65,2413.44,5361.92,1850.2" stroke="rgb(255,0,161)" stroke-width="2" fill="none"></polyline>
<polyline points="2400.35,1994.73,4812.71,788.024" stroke="rgb(0,4,255)" stroke-width="2" fill="none"></polyline>
<polyline points="2400.35,1994.73,4812.71,788.024" stroke="rgb(0,208,255)" stroke-width="2" fill="none"></polyline>
<polyline points="2668.58,2588.62,5334.93,2088.89" stroke="rgb(225,0,255)" stroke-width="2" fill="none"></polyline>
<polyline points="1764.87,1470.26,4243.63,2661.07" stroke="rgb(255,0,148)" stroke-width="2" fill="none"></polyline>
<polyline points="2714.6,2596.24,5395.58,2092.78" stroke="rgb(255,0,17)" stroke-width="2" fill="none"></polyline>
<polyline points="2879.4,2146.3,5591.29,1433.26" stroke="rgb(242,255,0)" stroke-width="2" fill="none"></polyline>
<polyline points="2723.55,1922.25,5216.69,1136.96" stroke="rgb(17,0,255)" stroke-width="2" fill="none"></polyline>
<polyline points="2501.69,2808.59,5067.62,2373.81" stroke="rgb(255,0,29)" stroke-width="2" fill="none"></polyline>
<polyline points="2742.41,1279.08,5182.98,2325.29" stroke="rgb(118,0,255)" stroke-width="2" fill="none"></polyline>
<polyline points="2310.93,1880.18,6065.19,1450.84" stroke="rgb(0,255,29)" stroke-width="2" fill="none"></polyline>
<polyline points="2740.37,2508.84,5439.77,1974.79" stroke="rgb(255,0,131)" stroke-width="2" fill="none"></polyline>
<polyline points="2676.78,1843.26,5129.57,1044.98" stroke="rgb(255,157,0)" stroke-width="2" fill="none"></polyline>
<polyline points="2739.28,1943.56,5243.14,1163.8" stroke="rgb(25,255,0)" stroke-width="2" fill="none"></polyline>
<polyline points="2763.22,2593.97,5489.63,2104.82" stroke="rgb(0,153,255)" stroke-width="2" fill="none"></polyline>
<polyline points="2842.09,2112.46,5492.39,1385.63" stroke="rgb(255,0,80)" stroke-width="2" fill="none"></polyline>
<polyline points="2363.17,2966.31,4906.21,2573.87" stroke="rgb(0,255,101)" stroke-width="2" fill="none"></polyline>
<polyline points="1906.73,1394.14,4517.99,2594.93" stroke="rgb(255,0,17)" stroke-width="2" fill="none"></polyline>
<polyline points="2641.1,1868.19,5071.92,1080.79" stroke="rgb(0,93,255)" stroke-width="2" fill="none"></polyline>
<polyline points="2793.78,2151.76,5384.88,1433.06" stroke="rgb(255,0,42)" stroke-width="2" fill="none"></polyline>
<polyline points="2768.44,2559.87,5487.23,2052.11" stroke="rgb(0,229,255)" stroke-width="2" fill="none"></polyline>
<polyline points="2732.99,2574.07,5427.26,2068.42" stroke="rgb(0,255,135)" stroke-width="2" fill="none"></polyline>
<polyline points="2722.39,1984.36,5222.38,1234.04" stroke="rgb(255,0,93)" stroke-width="2" fill="none"></polyline>
<polyline points="2854.9,2002.91,5520.92,1237.81" stroke="rgb(255,0,242)" stroke-width="2" fill="none"></polyline>
<polyline points="2777.38,2057.96,5343.98,1307.05" stroke="rgb(255,0,0)" stroke-width="2" fill="none"></polyline>
<polyline points="2777.38,2057.96,5343.98,1307.05" stroke="rgb(255,187,0)" stroke-width="2" fill="none"></polyline>
<circle cx="1863.6" cy="2615.44" r="4" stroke="rgb(0,255,8)" stroke-width="2" fill="none"></circle>
<circle cx="5451.02" cy="907.501" r="4" stroke="rgb(0,255,8)" stroke-width="2" fill="none"></circle>
<circle cx="1724.19" cy="1361.82" r="4" stroke="rgb(255,0,140)" stroke-width="2" fill="none"></circle>
<circle cx="4964.83" cy="332.161" r="4" stroke="rgb(255,0,140)" stroke-width="2" fill="none"></circle>
<circle cx="1782.38" cy="2501.32" r="4" stroke="rgb(34,0,255)" stroke-width="2" fill="none"></circle>
<circle cx="5812.32" cy="1528.51" r="4" stroke="rgb(34,0,255)" stroke-width="2" fill="none"></circle>
<circle cx="1842.4" cy="2238.36" r="4" stroke="rgb(255,0,63)" stroke-width="2" fill="none"></circle>
<circle cx="5342.45" cy="2273.21" r="4" stroke="rgb(255,0,63)" stroke-width="2" fill="none"></circle>
<circle cx="2604.15" cy="1312.51" r="4" stroke="rgb(246,255,0)" stroke-width="2" fill="none"></circle>
<circle cx="5361.53" cy="2171.22" r="4" stroke="rgb(246,255,0)" stroke-width="2" fill="none"></circle>
<circle cx="1916" cy="2541.58" r="4" stroke="rgb(0,255,106)" stroke-width="2" fill="none"></circle>
<circle cx="5359.09" cy="499.367" r="4" stroke="rgb(0,255,106)" stroke-width="2" fill="none"></circle>
<circle cx="2532.05" cy="1491.97" r="4" stroke="rgb(0,255,237)" stroke-width="2" fill="none"></circle>
<circle cx="5820.65" cy="1203.28" r="4" stroke="rgb(0,255,237)" stroke-width="2" fill="none"></circle>
<circle cx="2439.13" cy="1195.79" r="4" stroke="rgb(255,0,68)" stroke-width="2" fill="none"></circle>
<circle cx="5270.59" cy="2310.29" r="4" stroke="rgb(255,0,68)" stroke-width="2" fill="none"></circle>
<circle cx="2389.25" cy="1824.86" r="4" stroke="rgb(0,4,255)" stroke-width="2" fill="none"></circle>
<circle cx="6311.51" cy="1028.42" r="4" stroke="rgb(0,4,255)" stroke-width="2" fill="none"></circle>
<circle cx="2701.64" cy="1427.55" r="4" stroke="rgb(233,0,255)" stroke-width="2" fill="none"></circle>
<circle cx="6209.2" cy="519.813" r="4" stroke="rgb(233,0,255)" stroke-width="2" fill="none"></circle>
<circle cx="2751.33" cy="1439.12" r="4" stroke="rgb(255,17,0)" stroke-width="2" fill="none"></circle>
<circle cx="5360.57" cy="544.567" r="4" stroke="rgb(255,17,0)" stroke-width="2" fill="none"></circle>
<circle cx="1890.85" cy="1489.89" r="4" stroke="rgb(255,0,250)" stroke-width="2" fill="none"></circle>
<circle cx="6492.06" cy="1077.77" r="4" stroke="rgb(255,0,250)" stroke-width="2" fill="none"></circle>
<circle cx="2850.78" cy="1470.25" r="4" stroke="rgb(255,0,131)" stroke-width="2" fill="none"></circle>
<circle cx="6182.05" cy="519.776" r="4" stroke="rgb(255,0,131)" stroke-width="2" fill="none"></circle>
<circle cx="1916" cy="2541.58" r="4" stroke="rgb(255,140,0)" stroke-width="2" fill="none"></circle>
<circle cx="5130.45" cy="563.822" r="4" stroke="rgb(255,140,0)" stroke-width="2" fill="none"></circle>
<circle cx="2697.24" cy="1990.54" r="4" stroke="rgb(127,255,0)" stroke-width="2" fill="none"></circle>
<circle cx="5470.36" cy="2298.14" r="4" stroke="rgb(127,255,0)" stroke-width="2" fill="none"></circle>
<circle cx="2947.93" cy="1959.94" r="4" stroke="rgb(229,255,0)" stroke-width="2" fill="none"></circle>
<circle cx="5486.17" cy="575.573" r="4" stroke="rgb(229,255,0)" stroke-width="2" fill="none"></circle>
<circle cx="1800" cy="1731.91" r="4" stroke="rgb(255,127,0)" stroke-width="2" fill="none"></circle>
<circle cx="6642.77" cy="2420.01" r="4" stroke="rgb(255,127,0)" stroke-width="2" fill="none"></circle>
<circle cx="2895.41" cy="2074.03" r="4" stroke="rgb(255,0,165)" stroke-width="2" fill="none"></circle>
<circle cx="5183.79" cy="2307.19" r="4" stroke="rgb(255,0,165)" stroke-width="2" fill="none"></circle>
<circle cx="2410.25" cy="1544.47" r="4" stroke="rgb(0,208,255)" stroke-width="2" fill="none"></circle>
<circle cx="4745.95" cy="558.215" r="4" stroke="rgb(0,208,255)" stroke-width="2" fill="none"></circle>
<circle cx="1825.3" cy="1650.12" r="4" stroke="rgb(0,157,255)" stroke-width="2" fill="none"></circle>
<circle cx="5532.44" cy="2462.5" r="4" stroke="rgb(0,157,255)" stroke-width="2" fill="none"></circle>
<circle cx="2435.79" cy="2345.43" r="4" stroke="rgb(255,0,157)" stroke-width="2" fill="none"></circle>
<circle cx="4747.39" cy="577.683" r="4" stroke="rgb(255,0,157)" stroke-width="2" fill="none"></circle>
<circle cx="2648.95" cy="1310.36" r="4" stroke="rgb(55,255,0)" stroke-width="2" fill="none"></circle>
<circle cx="4780.07" cy="2359.78" r="4" stroke="rgb(55,255,0)" stroke-width="2" fill="none"></circle>
<circle cx="2830.16" cy="1348.05" r="4" stroke="rgb(255,221,0)" stroke-width="2" fill="none"></circle>
<circle cx="5009.5" cy="2367.73" r="4" stroke="rgb(255,221,0)" stroke-width="2" fill="none"></circle>
<circle cx="1798.7" cy="2829.12" r="4" stroke="rgb(63,255,0)" stroke-width="2" fill="none"></circle>
<circle cx="6053.15" cy="1726.24" r="4" stroke="rgb(63,255,0)" stroke-width="2" fill="none"></circle>
<circle cx="2722.39" cy="1984.36" r="4" stroke="rgb(255,114,0)" stroke-width="2" fill="none"></circle>
<circle cx="5437.96" cy="2510" r="4" stroke="rgb(255,114,0)" stroke-width="2" fill="none"></circle>
<circle cx="1578.32" cy="1341.81" r="4" stroke="rgb(0,255,229)" stroke-width="2" fill="none"></circle>
<circle cx="5105.33" cy="784.096" r="4" stroke="rgb(0,255,229)" stroke-width="2" fill="none"></circle>
<circle cx="2533.25" cy="2299.31" r="4" stroke="rgb(0,255,212)" stroke-width="2" fill="none"></circle>
<circle cx="4338.28" cy="790.434" r="4" stroke="rgb(0,255,212)" stroke-width="2" fill="none"></circle>
<circle cx="2491.15" cy="1455.28" r="4" stroke="rgb(157,0,255)" stroke-width="2" fill="none"></circle>
<circle cx="5073.9" cy="1814.14" r="4" stroke="rgb(157,0,255)" stroke-width="2" fill="none"></circle>
<circle cx="2336.66" cy="1769.75" r="4" stroke="rgb(246,255,0)" stroke-width="2" fill="none"></circle>
<circle cx="4925.29" cy="1495.31" r="4" stroke="rgb(246,255,0)" stroke-width="2" fill="none"></circle>
<circle cx="1886.31" cy="2474.58" r="4" stroke="rgb(0,255,233)" stroke-width="2" fill="none"></circle>
<circle cx="4731.35" cy="1827.54" r="4" stroke="rgb(0,255,233)" stroke-width="2" fill="none"></circle>
<circle cx="1803.63" cy="2386.57" r="4" stroke="rgb(0,255,195)" stroke-width="2" fill="none"></circle>
<circle cx="6553" cy="2587.19" r="4" stroke="rgb(0,255,195)" stroke-width="2" fill="none"></circle>
<circle cx="2314.31" cy="2977.46" r="4" stroke="rgb(255,238,0)" stroke-width="2" fill="none"></circle>
<circle cx="4989.02" cy="1837.68" r="4" stroke="rgb(255,238,0)" stroke-width="2" fill="none"></circle>
<circle cx="2312.61" cy="2047.74" r="4" stroke="rgb(0,255,97)" stroke-width="2" fill="none"></circle>
<circle cx="4744.4" cy="850.03" r="4" stroke="rgb(0,255,97)" stroke-width="2" fill="none"></circle>
<circle cx="1881.87" cy="1490.22" r="4" stroke="rgb(255,229,0)" stroke-width="2" fill="none"></circle>
<circle cx="4369.78" cy="859.111" r="4" stroke="rgb(255,229,0)" stroke-width="2" fill="none"></circle>
<circle cx="2620.57" cy="1339.42" r="4" stroke="rgb(255,178,0)" stroke-width="2" fill="none"></circle>
<circle cx="5773.4" cy="1529.16" r="4" stroke="rgb(255,178,0)" stroke-width="2" fill="none"></circle>
<circle cx="2009.17" cy="1329.83" r="4" stroke="rgb(0,148,255)" stroke-width="2" fill="none"></circle>
<circle cx="5430.43" cy="1359.02" r="4" stroke="rgb(0,148,255)" stroke-width="2" fill="none"></circle>
<circle cx="2044.5" cy="2093.15" r="4" stroke="rgb(208,255,0)" stroke-width="2" fill="none"></circle>
<circle cx="5842.25" cy="1646.84" r="4" stroke="rgb(208,255,0)" stroke-width="2" fill="none"></circle>
<circle cx="1885.8" cy="2416.19" r="4" stroke="rgb(127,255,0)" stroke-width="2" fill="none"></circle>
<circle cx="5375.05" cy="476.085" r="4" stroke="rgb(127,255,0)" stroke-width="2" fill="none"></circle>
<circle cx="1890.85" cy="1489.89" r="4" stroke="rgb(246,255,0)" stroke-width="2" fill="none"></circle>
<circle cx="5583.47" cy="2765.73" r="4" stroke="rgb(246,255,0)" stroke-width="2" fill="none"></circle>
<circle cx="1899.86" cy="2610.8" r="4" stroke="rgb(0,246,255)" stroke-width="2" fill="none"></circle>
<circle cx="5192.89" cy="518.572" r="4" stroke="rgb(0,246,255)" stroke-width="2" fill="none"></circle>
<circle cx="1852.57" cy="2105.68" r="4" stroke="rgb(255,106,0)" stroke-width="2" fill="none"></circle>
<circle cx="5359.09" cy="958.038" r="4" stroke="rgb(255,106,0)" stroke-width="2" fill="none"></circle>
<circle cx="2192.54" cy="1399.04" r="4" stroke="rgb(229,255,0)" stroke-width="2" fill="none"></circle>
<circle cx="6634.8" cy="1931.75" r="4" stroke="rgb(229,255,0)" stroke-width="2" fill="none"></circle>
<circle cx="2074.75" cy="2088.73" r="4" stroke="rgb(255,0,17)" stroke-width="2" fill="none"></circle>
<circle cx="4508.04" cy="989.198" r="4" stroke="rgb(255,0,17)" stroke-width="2" fill="none"></circle>
<circle cx="1628.95" cy="1478.59" r="4" stroke="rgb(0,55,255)" stroke-width="2" fill="none"></circle>
<circle cx="4775.35" cy="997.739" r="4" stroke="rgb(0,55,255)" stroke-width="2" fill="none"></circle>
<circle cx="2690.97" cy="2085.84" r="4" stroke="rgb(89,255,0)" stroke-width="2" fill="none"></circle>
<circle cx="4856.7" cy="1608.75" r="4" stroke="rgb(89,255,0)" stroke-width="2" fill="none"></circle>
<circle cx="2836.53" cy="2453.41" r="4" stroke="rgb(144,255,0)" stroke-width="2" fill="none"></circle>
<circle cx="5562.38" cy="1013.4" r="4" stroke="rgb(144,255,0)" stroke-width="2" fill="none"></circle>
<circle cx="1843.3" cy="2676.48" r="4" stroke="rgb(225,0,255)" stroke-width="2" fill="none"></circle>
<circle cx="6326.23" cy="575.648" r="4" stroke="rgb(225,0,255)" stroke-width="2" fill="none"></circle>
<circle cx="2739.83" cy="2567.31" r="4" stroke="rgb(0,255,38)" stroke-width="2" fill="none"></circle>
<circle cx="5435.41" cy="2060.04" r="4" stroke="rgb(0,255,38)" stroke-width="2" fill="none"></circle>
<circle cx="2706.34" cy="1423.57" r="4" stroke="rgb(255,199,0)" stroke-width="2" fill="none"></circle>
<circle cx="5268.03" cy="2077.71" r="4" stroke="rgb(255,199,0)" stroke-width="2" fill="none"></circle>
<circle cx="2435.79" cy="2345.43" r="4" stroke="rgb(255,0,17)" stroke-width="2" fill="none"></circle>
<circle cx="4961.13" cy="1753.3" r="4" stroke="rgb(255,0,17)" stroke-width="2" fill="none"></circle>
<circle cx="2678.28" cy="2660.03" r="4" stroke="rgb(255,0,114)" stroke-width="2" fill="none"></circle>
<circle cx="5354.8" cy="2195.43" r="4" stroke="rgb(255,0,114)" stroke-width="2" fill="none"></circle>
<circle cx="2435.79" cy="2345.43" r="4" stroke="rgb(8,0,255)" stroke-width="2" fill="none"></circle>
<circle cx="4766.65" cy="676.242" r="4" stroke="rgb(8,0,255)" stroke-width="2" fill="none"></circle>
<circle cx="1886.31" cy="2474.58" r="4" stroke="rgb(67,255,0)" stroke-width="2" fill="none"></circle>
<circle cx="4732.95" cy="1826.48" r="4" stroke="rgb(67,255,0)" stroke-width="2" fill="none"></circle>
<circle cx="2314.31" cy="2977.46" r="4" stroke="rgb(72,0,255)" stroke-width="2" fill="none"></circle>
<circle cx="4988.91" cy="1838.15" r="4" stroke="rgb(72,0,255)" stroke-width="2" fill="none"></circle>
<circle cx="2192.54" cy="1399.04" r="4" stroke="rgb(255,0,55)" stroke-width="2" fill="none"></circle>
<circle cx="6526.91" cy="1942.19" r="4" stroke="rgb(255,0,55)" stroke-width="2" fill="none"></circle>
<circle cx="2011.46" cy="2689.72" r="4" stroke="rgb(255,12,0)" stroke-width="2" fill="none"></circle>
<circle cx="4510.08" cy="859.73" r="4" stroke="rgb(255,12,0)" stroke-width="2" fill="none"></circle>
<circle cx="1811.18" cy="2699.17" r="4" stroke="rgb(255,0,242)" stroke-width="2" fill="none"></circle>
<circle cx="4427.1" cy="2798.23" r="4" stroke="rgb(255,0,242)" stroke-width="2" fill="none"></circle>
<circle cx="2439.13" cy="1195.79" r="4" stroke="rgb(0,255,161)" stroke-width="2" fill="none"></circle>
<circle cx="4919.1" cy="2855.1" r="4" stroke="rgb(0,255,161)" stroke-width="2" fill="none"></circle>
<circle cx="2279.61" cy="1576.15" r="4" stroke="rgb(0,255,135)" stroke-width="2" fill="none"></circle>
<circle cx="4830.7" cy="947.948" r="4" stroke="rgb(0,255,135)" stroke-width="2" fill="none"></circle>
<circle cx="2496.17" cy="2796.83" r="4" stroke="rgb(255,21,0)" stroke-width="2" fill="none"></circle>
<circle cx="5059.74" cy="2361.59" r="4" stroke="rgb(255,21,0)" stroke-width="2" fill="none"></circle>
<circle cx="1886.31" cy="2474.58" r="4" stroke="rgb(255,0,114)" stroke-width="2" fill="none"></circle>
<circle cx="4738.03" cy="1823.91" r="4" stroke="rgb(255,0,114)" stroke-width="2" fill="none"></circle>
<circle cx="2677.89" cy="2682.66" r="4" stroke="rgb(0,212,255)" stroke-width="2" fill="none"></circle>
<circle cx="5169.85" cy="2396.2" r="4" stroke="rgb(0,212,255)" stroke-width="2" fill="none"></circle>
<circle cx="2781.18" cy="2164.02" r="4" stroke="rgb(229,0,255)" stroke-width="2" fill="none"></circle>
<circle cx="5354.5" cy="1454.1" r="4" stroke="rgb(229,0,255)" stroke-width="2" fill="none"></circle>
<circle cx="2023.99" cy="1821.28" r="4" stroke="rgb(255,0,51)" stroke-width="2" fill="none"></circle>
<circle cx="5886.27" cy="1460.08" r="4" stroke="rgb(255,0,51)" stroke-width="2" fill="none"></circle>
<circle cx="2752.04" cy="2167.75" r="4" stroke="rgb(12,255,0)" stroke-width="2" fill="none"></circle>
<circle cx="5300.65" cy="1462.54" r="4" stroke="rgb(12,255,0)" stroke-width="2" fill="none"></circle>
<circle cx="2704.35" cy="1948.12" r="4" stroke="rgb(255,0,101)" stroke-width="2" fill="none"></circle>
<circle cx="5191.53" cy="1176.64" r="4" stroke="rgb(255,0,101)" stroke-width="2" fill="none"></circle>
<circle cx="1739.68" cy="1786.31" r="4" stroke="rgb(0,195,255)" stroke-width="2" fill="none"></circle>
<circle cx="4956.12" cy="428.264" r="4" stroke="rgb(0,195,255)" stroke-width="2" fill="none"></circle>
<circle cx="1865.62" cy="2667.08" r="4" stroke="rgb(0,221,255)" stroke-width="2" fill="none"></circle>
<circle cx="6427.7" cy="629.05" r="4" stroke="rgb(0,221,255)" stroke-width="2" fill="none"></circle>
<circle cx="2690.97" cy="2085.84" r="4" stroke="rgb(229,255,0)" stroke-width="2" fill="none"></circle>
<circle cx="5183.92" cy="1355.84" r="4" stroke="rgb(229,255,0)" stroke-width="2" fill="none"></circle>
<circle cx="1860.22" cy="2460.55" r="4" stroke="rgb(67,0,255)" stroke-width="2" fill="none"></circle>
<circle cx="5961.98" cy="1463.02" r="4" stroke="rgb(67,0,255)" stroke-width="2" fill="none"></circle>
<circle cx="2836.53" cy="2453.41" r="4" stroke="rgb(12,0,255)" stroke-width="2" fill="none"></circle>
<circle cx="5575.44" cy="1891.49" r="4" stroke="rgb(12,0,255)" stroke-width="2" fill="none"></circle>
<circle cx="1773.7" cy="1954.43" r="4" stroke="rgb(255,0,153)" stroke-width="2" fill="none"></circle>
<circle cx="5930.98" cy="769.877" r="4" stroke="rgb(255,0,153)" stroke-width="2" fill="none"></circle>
<circle cx="2671.65" cy="2413.44" r="4" stroke="rgb(255,0,161)" stroke-width="2" fill="none"></circle>
<circle cx="5361.92" cy="1850.2" r="4" stroke="rgb(255,0,161)" stroke-width="2" fill="none"></circle>
<circle cx="2400.35" cy="1994.73" r="4" stroke="rgb(0,4,255)" stroke-width="2" fill="none"></circle>
<circle cx="4812.71" cy="788.024" r="4" stroke="rgb(0,4,255)" stroke-width="2" fill="none"></circle>
<circle cx="2400.35" cy="1994.73" r="4" stroke="rgb(0,208,255)" stroke-width="2" fill="none"></circle>
<circle cx="4812.71" cy="788.024" r="4" stroke="rgb(0,208,255)" stroke-width="2" fill="none"></circle>
<circle cx="2668.58" cy="2588.62" r="4" stroke="rgb(225,0,255)" stroke-width="2" fill="none"></circle>
<circle cx="5334.93" cy="2088.89" r="4" stroke="rgb(225,0,255)" stroke-width="2" fill="none"></circle>
<circle cx="1764.87" cy="1470.26" r="4" stroke="rgb(255,0,148)" stroke-width="2" fill="none"></circle>
<circle cx="4243.63" cy="2661.07" r="4" stroke="rgb(255,0,148)" stroke-width="2" fill="none"></circle>
<circle cx="2714.6" cy="2596.24" r="4" stroke="rgb(255,0,17)" stroke-width="2" fill="none"></circle>
<circle cx="5395.58" cy="2092.78" r="4" stroke="rgb(255,0,17)" stroke-width="2" fill="none"></circle>
<circle cx="2879.4" cy="2146.3" r="4" stroke="rgb(242,255,0)" stroke-width="2" fill="none"></circle>
<circle cx="5591.29" cy="1433.26" r="4" stroke="rgb(242,255,0)" stroke-width="2" fill="none"></circle>
<circle cx="2723.55" cy="1922.25" r="4" stroke="rgb(17,0,255)" stroke-width="2" fill="none"></circle>
<circle cx="5216.69" cy="1136.96" r="4" stroke="rgb(17,0,255)" stroke-width="2" fill="none"></circle>
<circle cx="2501.69" cy="2808.59" r="4" stroke="rgb(255,0,29)" stroke-width="2" fill="none"></circle>
<circle cx="5067.62" cy="2373.81" r="4" stroke="rgb(255,0,29)" stroke-width="2" fill="none"></circle>
<circle cx="2742.41" cy="1279.08" r="4" stroke="rgb(118,0,255)" stroke-width="2" fill="none"></circle>
<circle cx="5182.98" cy="2325.29" r="4" stroke="rgb(118,0,255)" stroke-width="2" fill="none"></circle>
<circle cx="2310.93" cy="1880.18" r="4" stroke="rgb(0,255,29)" stroke-width="2" fill="none"></circle>
<circle cx="6065.19" cy="1450.84" r="4" stroke="rgb(0,255,29)" stroke-width="2" fill="none"></circle>
<circle cx="2740.37" cy="2508.84" r="4" stroke="rgb(255,0,131)" stroke-width="2" fill="none"></circle>
<circle cx="5439.77" cy="1974.79" r="4" stroke="rgb(255,0,131)" stroke-width="2" fill="none"></circle>
<circle cx="2676.78" cy="1843.26" r="4" stroke="rgb(255,157,0)" stroke-width="2" fill="none"></circle>
<circle cx="5129.57" cy="1044.98" r="4" stroke="rgb(255,157,0)" stroke-width="2" fill="none"></circle>
<circle cx="2739.28" cy="1943.56" r="4" stroke="rgb(25,255,0)" stroke-width="2" fill="none"></circle>
<circle cx="5243.14" cy="1163.8" r="4" stroke="rgb(25,255,0)" stroke-width="2" fill="none"></circle>
<circle cx="2763.22" cy="2593.97" r="4" stroke="rgb(0,153,255)" stroke-width="2" fill="none"></circle>
<circle cx="5489.63" cy="2104.82" r="4" stroke="rgb(0,153,255)" stroke-width="2" fill="none"></circle>
<circle cx="2842.09" cy="2112.46" r="4" stroke="rgb(255,0,80)" stroke-width="2" fill="none"></circle>
<circle cx="5492.39" cy="1385.63" r="4" stroke="rgb(255,0,80)" stroke-width="2" fill="none"></circle>
<circle cx="2363.17" cy="2966.31" r="4" stroke="rgb(0,255,101)" stroke-width="2" fill="none"></circle>
<circle cx="4906.21" cy="2573.87" r="4" stroke="rgb(0,255,101)" stroke-width="2" fill="none"></circle>
<circle cx="1906.73" cy="1394.14" r="4" stroke="rgb(255,0,17)" stroke-width="2" fill="none"></circle>
<circle cx="4517.99" cy="2594.93" r="4" stroke="rgb(255,0,17)" stroke-width="2" fill="none"></circle>
<circle cx="2641.1" cy="1868.19" r="4" stroke="rgb(0,93,255)" stroke-width="2" fill="none"></circle>
<circle cx="5071.92" cy="1080.79" r="4" stroke="rgb(0,93,255)" stroke-width="2" fill="none"></circle>
<circle cx="2793.78" cy="2151.76" r="4" stroke="rgb(255,0,42)" stroke-width="2" fill="none"></circle>
<circle cx="5384.88" cy="1433.06" r="4" stroke="rgb(255,0,42)" stroke-width="2" fill="none"></circle>
<circle cx="2768.44" cy="2559.87" r="4" stroke="rgb(0,229,255)" stroke-width="2" fill="none"></circle>
<circle cx="5487.23" cy="2052.11" r="4" stroke="rgb(0,229,255)" stroke-width="2" fill="none"></circle>
<circle cx="2732.99" cy="2574.07" r="4" stroke="rgb(0,255,135)" stroke-width="2" fill="none"></circle>
<circle cx="5427.26" cy="2068.42" r="4" stroke="rgb(0,255,135)" stroke-width="2" fill="none"></circle>
<circle cx="2722.39" cy="1984.36" r="4" stroke="rgb(255,0,93)" stroke-width="2" fill="none"></circle>
<circle cx="5222.38" cy="1234.04" r="4" stroke="rgb(255,0,93)" stroke-width="2" fill="none"></circle>
<circle cx="2854.9" cy="2002.91" r="4" stroke="rgb(255,0,242)" stroke-width="2" fill="none"></circle>
<circle cx="5520.92" cy="1237.81" r="4" stroke="rgb(255,0,242)" stroke-width="2" fill="none"></circle>
<circle cx="2777.38" cy="2057.96" r="4" stroke="rgb(255,0,0)" stroke-width="2" fill="none"></circle>
<circle cx="5343.98" cy="1307.05" r="4" stroke="rgb(255,0,0)" stroke-width="2" fill="none"></circle>
<circle cx="2777.38" cy="2057.96" r="4" stroke="rgb(255,187,0)" stroke-width="2" fill="none"></circle>
<circle cx="5343.98" cy="1307.05" r="4" stroke="rgb(255,187,0)" stroke-width="2" fill="none"></circle>
</svg>