<?xml version="1.0" standalone="yes"?>
<!-- SVG graphic -->
<svg xmlns='http://www.w3.org/2000/svg' xmlns:xlink='http://www.w3.org/1999/xlink'
width="8064px" height="3024px" preserveAspectRatio="xMinYMin meet" viewBox="0 0 8064 3024" version="1.1">
<image x="0" y="0" width="4032px" height="3024px" opacity="1" xlink:href="/home/jeong/Code/2D-to-3D-Modeling-using-AI/Make3D/Image/20200227_180733.jpg"/>
<image x="4032" y="0" width="4032px" height="3024px" opacity="1" xlink:href="/home/jeong/Code/2D-to-3D-Modeling-using-AI/Make3D/Image/20200227_180814.jpg"/>
<polyline points="1890.63,2487.49,5925.03,1107.69" stroke="rgb(127,255,0)" stroke-width="2" fill="none"></polyline>
<polyline points="2100.86,1154.11,6367.16,493.78" stroke="rgb(97,255,0)" stroke-width="2" fill="none"></polyline>
<polyline points="1937.3,2237.78,6550.19,1545.69" stroke="rgb(0,97,255)" stroke-width="2" fill="none"></polyline>
<polyline points="1943.94,2166.05,5960.06,682.422" stroke="rgb(29,255,0)" stroke-width="2" fill="none"></polyline>
<polyline points="2897.19,1498.67,5666.54,609.469" stroke="rgb(0,25,255)" stroke-width="2" fill="none"></polyline>
<polyline points="2930.69,2180.98,5809.17,626.386" stroke="rgb(255,12,0)" stroke-width="2" fill="none"></polyline>
<polyline points="2927.41,1399.96,6297.73,1689.31" stroke="rgb(255,250,0)" stroke-width="2" fill="none"></polyline>
<polyline points="1874.1,2260.31,6201.71,1695.89" stroke="rgb(255,21,0)" stroke-width="2" fill="none"></polyline>
<polyline points="2897.19,1498.67,6061.83,651.106" stroke="rgb(0,255,4)" stroke-width="2" fill="none"></polyline>
<polyline points="2971.61,1921.49,5850.7,659.82" stroke="rgb(255,4,0)" stroke-width="2" fill="none"></polyline>
<polyline points="2897.19,1498.67,5662.17,654.664" stroke="rgb(123,255,0)" stroke-width="2" fill="none"></polyline>
<polyline points="1911.2,2348.63,6776.55,1443.08" stroke="rgb(0,144,255)" stroke-width="2" fill="none"></polyline>
<polyline points="2897.19,1498.67,6061.32,688.632" stroke="rgb(178,0,255)" stroke-width="2" fill="none"></polyline>
<polyline points="2897.19,1498.67,6267.43,726.564" stroke="rgb(80,255,0)" stroke-width="2" fill="none"></polyline>
<polyline points="2897.19,1498.67,6057.22,735.085" stroke="rgb(255,127,0)" stroke-width="2" fill="none"></polyline>
<polyline points="2531.41,2844.92,5426.94,1448.86" stroke="rgb(255,0,17)" stroke-width="2" fill="none"></polyline>
<polyline points="2897.19,1498.67,6198,746.555" stroke="rgb(0,255,191)" stroke-width="2" fill="none"></polyline>
<polyline points="1861.93,2135.46,6458.68,1146.25" stroke="rgb(0,144,255)" stroke-width="2" fill="none"></polyline>
<polyline points="2897.19,1498.67,6055.82,752.812" stroke="rgb(255,255,0)" stroke-width="2" fill="none"></polyline>
<polyline points="2897.19,1498.67,6263.94,753.415" stroke="rgb(255,225,0)" stroke-width="2" fill="none"></polyline>
<polyline points="2636.62,1703.67,6635.67,1149.12" stroke="rgb(0,212,255)" stroke-width="2" fill="none"></polyline>
<polyline points="2955.97,2099.32,6398.28,1172.64" stroke="rgb(12,0,255)" stroke-width="2" fill="none"></polyline>
<polyline points="2956.85,1563.7,6617.42,1736.67" stroke="rgb(255,42,0)" stroke-width="2" fill="none"></polyline>
<polyline points="2826.65,2467.64,5657.34,1175.03" stroke="rgb(161,255,0)" stroke-width="2" fill="none"></polyline>
<polyline points="2897.19,1498.67,5655.15,732.937" stroke="rgb(144,0,255)" stroke-width="2" fill="none"></polyline>
<polyline points="2542.16,2123.92,5301.68,1602.14" stroke="rgb(93,255,0)" stroke-width="2" fill="none"></polyline>
<polyline points="2897.19,1498.67,6264.3,760.872" stroke="rgb(255,136,0)" stroke-width="2" fill="none"></polyline>
<polyline points="2651.64,2698.69,6943.92,1180.73" stroke="rgb(212,0,255)" stroke-width="2" fill="none"></polyline>
<polyline points="2897.19,1498.67,6184.34,776.056" stroke="rgb(17,0,255)" stroke-width="2" fill="none"></polyline>
<polyline points="2897.19,1498.67,6251.88,776.202" stroke="rgb(8,0,255)" stroke-width="2" fill="none"></polyline>
<polyline points="2517.25,2901.73,5771.34,782.104" stroke="rgb(0,72,255)" stroke-width="2" fill="none"></polyline>
<polyline points="2897.19,1498.67,6186.12,751.754" stroke="rgb(0,140,255)" stroke-width="2" fill="none"></polyline>
<polyline points="1884.32,2517.29,6423.22,1759.48" stroke="rgb(0,119,255)" stroke-width="2" fill="none"></polyline>
<polyline points="2897.19,1498.67,6124.29,792.879" stroke="rgb(165,255,0)" stroke-width="2" fill="none"></polyline>
<polyline points="2436.92,2843.61,6116.22,1765.74" stroke="rgb(255,0,169)" stroke-width="2" fill="none"></polyline>
<polyline points="2897.19,1498.67,6052.1,793.902" stroke="rgb(255,0,178)" stroke-width="2" fill="none"></polyline>
<polyline points="2897.19,1498.67,6249.03,804.421" stroke="rgb(255,0,187)" stroke-width="2" fill="none"></polyline>
<polyline points="2897.19,1498.67,6262.88,772.807" stroke="rgb(46,0,255)" stroke-width="2" fill="none"></polyline>
<polyline points="1917.95,2286.14,6348.29,901.513" stroke="rgb(255,0,157)" stroke-width="2" fill="none"></polyline>
<polyline points="1963.42,1232.09,5528.07,904.143" stroke="rgb(182,255,0)" stroke-width="2" fill="none"></polyline>
<polyline points="2897.19,1498.67,6262.6,783.452" stroke="rgb(50,0,255)" stroke-width="2" fill="none"></polyline>
<polyline points="1911.2,2348.63,5951.58,814.414" stroke="rgb(199,0,255)" stroke-width="2" fill="none"></polyline>
<polyline points="3087.91,2247.53,6457.17,791.461" stroke="rgb(0,255,148)" stroke-width="2" fill="none"></polyline>
<polyline points="2020.13,1904.2,6135.12,1475.44" stroke="rgb(255,195,0)" stroke-width="2" fill="none"></polyline>
<polyline points="2897.19,1498.67,5648.66,828.835" stroke="rgb(255,119,0)" stroke-width="2" fill="none"></polyline>
<polyline points="2897.19,1498.67,6049.67,829.221" stroke="rgb(0,229,255)" stroke-width="2" fill="none"></polyline>
<polyline points="1864.63,2256.72,6378.19,832.993" stroke="rgb(255,178,0)" stroke-width="2" fill="none"></polyline>
<polyline points="2897.19,1498.67,6124.22,810.599" stroke="rgb(233,255,0)" stroke-width="2" fill="none"></polyline>
<polyline points="2930.69,2180.98,5711.99,870.35" stroke="rgb(102,0,255)" stroke-width="2" fill="none"></polyline>
<polyline points="2897.19,1498.67,6107.95,872.356" stroke="rgb(76,255,0)" stroke-width="2" fill="none"></polyline>
<polyline points="1861.93,2135.46,6022.45,879.935" stroke="rgb(8,255,0)" stroke-width="2" fill="none"></polyline>
<polyline points="1942.06,2272.96,5887.05,1948.46" stroke="rgb(255,0,140)" stroke-width="2" fill="none"></polyline>
<polyline points="2897.19,1498.67,5642.98,889.031" stroke="rgb(255,0,63)" stroke-width="2" fill="none"></polyline>
<polyline points="1954.94,2288.48,6305.3,1241.78" stroke="rgb(255,0,0)" stroke-width="2" fill="none"></polyline>
<polyline points="1875.87,2256.96,5930.62,891.924" stroke="rgb(255,208,0)" stroke-width="2" fill="none"></polyline>
<polyline points="2438.31,2968.96,5536.95,1501.03" stroke="rgb(0,255,46)" stroke-width="2" fill="none"></polyline>
<polyline points="2897.19,1498.67,6043.37,895.14" stroke="rgb(255,0,123)" stroke-width="2" fill="none"></polyline>
<polyline points="1962.73,1781.87,6372.03,897.73" stroke="rgb(255,0,199)" stroke-width="2" fill="none"></polyline>
<polyline points="2651.64,2698.69,5814.99,911.842" stroke="rgb(229,0,255)" stroke-width="2" fill="none"></polyline>
<polyline points="1905.14,1873.54,6588.12,1677.62" stroke="rgb(0,106,255)" stroke-width="2" fill="none"></polyline>
<polyline points="1954.94,2288.48,6313.54,1261.75" stroke="rgb(221,255,0)" stroke-width="2" fill="none"></polyline>
<polyline points="1954.94,2288.48,6313.54,1261.75" stroke="rgb(0,255,157)" stroke-width="2" fill="none"></polyline>
<polyline points="2897.19,1498.67,6183.7,923.838" stroke="rgb(246,255,0)" stroke-width="2" fill="none"></polyline>
<polyline points="2062.53,1187.83,5935.96,1518" stroke="rgb(170,0,255)" stroke-width="2" fill="none"></polyline>
<polyline points="1823.93,2507.79,6631.39,1517.76" stroke="rgb(42,255,0)" stroke-width="2" fill="none"></polyline>
<polyline points="2897.19,1498.67,6239.07,944.423" stroke="rgb(63,0,255)" stroke-width="2" fill="none"></polyline>
<polyline points="3009.09,1847.53,6097.67,1525.44" stroke="rgb(0,8,255)" stroke-width="2" fill="none"></polyline>
<polyline points="2927.12,1585.88,6683.86,2214.45" stroke="rgb(229,255,0)" stroke-width="2" fill="none"></polyline>
<polyline points="2927.12,1585.88,6640.22,2217.1" stroke="rgb(0,255,110)" stroke-width="2" fill="none"></polyline>
<polyline points="2927.12,1585.88,6587.47,2219.68" stroke="rgb(195,255,0)" stroke-width="2" fill="none"></polyline>
<polyline points="1876.86,2519.51,5117.36,1116.82" stroke="rgb(255,63,0)" stroke-width="2" fill="none"></polyline>
<polyline points="1963.42,1232.09,5519.32,971.861" stroke="rgb(131,0,255)" stroke-width="2" fill="none"></polyline>
<polyline points="2897.19,1498.67,6108.2,974.037" stroke="rgb(255,4,0)" stroke-width="2" fill="none"></polyline>
<polyline points="2622.42,2668.17,6832.28,1298.78" stroke="rgb(0,255,216)" stroke-width="2" fill="none"></polyline>
<polyline points="1911.2,2348.63,6007.06,976.526" stroke="rgb(255,0,182)" stroke-width="2" fill="none"></polyline>
<polyline points="1911.2,2348.63,6007.06,976.526" stroke="rgb(89,0,255)" stroke-width="2" fill="none"></polyline>
<polyline points="1922.77,2250.01,5991.92,978.617" stroke="rgb(0,46,255)" stroke-width="2" fill="none"></polyline>
<polyline points="1890.63,2487.49,5943.59,937.774" stroke="rgb(0,33,255)" stroke-width="2" fill="none"></polyline>
<polyline points="1952.45,2556.46,6292.09,1538.44" stroke="rgb(0,178,255)" stroke-width="2" fill="none"></polyline>
<polyline points="2897.19,1498.67,6246.02,993.697" stroke="rgb(255,21,0)" stroke-width="2" fill="none"></polyline>
<polyline points="2654.2,2757.29,6509.75,2292.7" stroke="rgb(0,144,255)" stroke-width="2" fill="none"></polyline>
<polyline points="3087.91,2247.53,6516.95,997.273" stroke="rgb(255,0,187)" stroke-width="2" fill="none"></polyline>
<polyline points="2506.78,2819.04,6176.8,1011.29" stroke="rgb(255,0,119)" stroke-width="2" fill="none"></polyline>
<polyline points="3022.09,1427.4,5629.95,2357.27" stroke="rgb(0,203,255)" stroke-width="2" fill="none"></polyline>
<polyline points="3037.98,1544.68,5780.17,2379.3" stroke="rgb(255,0,187)" stroke-width="2" fill="none"></polyline>
<polyline points="2938.93,2180.5,5638.91,2393.15" stroke="rgb(55,0,255)" stroke-width="2" fill="none"></polyline>
<polyline points="2436.92,2843.61,6408.5,1786.89" stroke="rgb(0,191,255)" stroke-width="2" fill="none"></polyline>
<polyline points="2897.19,1498.67,6102.23,1032.58" stroke="rgb(199,0,255)" stroke-width="2" fill="none"></polyline>
<polyline points="2936.21,1384.55,6613.46,1342.73" stroke="rgb(0,140,255)" stroke-width="2" fill="none"></polyline>
<polyline points="2897.19,1498.67,6243.26,1041.29" stroke="rgb(0,255,38)" stroke-width="2" fill="none"></polyline>
<polyline points="2927.12,1585.88,6099.3,1562.72" stroke="rgb(255,63,0)" stroke-width="2" fill="none"></polyline>
<polyline points="1892.75,2386.77,5855.09,1353.26" stroke="rgb(148,0,255)" stroke-width="2" fill="none"></polyline>
<polyline points="3009.09,1847.53,6431.67,1571.44" stroke="rgb(0,255,165)" stroke-width="2" fill="none"></polyline>
<polyline points="2853.66,1352.47,6984.55,1255.36" stroke="rgb(255,0,216)" stroke-width="2" fill="none"></polyline>
<polyline points="1893.96,1855.83,6634.07,1970.62" stroke="rgb(225,255,0)" stroke-width="2" fill="none"></polyline>
<polyline points="1906.96,1880.46,6597.19,1085.02" stroke="rgb(123,0,255)" stroke-width="2" fill="none"></polyline>
<polyline points="2572,2849.52,6550.94,1365.43" stroke="rgb(0,153,255)" stroke-width="2" fill="none"></polyline>
<polyline points="2074.26,1364.9,6833.68,1367.03" stroke="rgb(0,255,242)" stroke-width="2" fill="none"></polyline>
<polyline points="2402.25,2439.99,6920.93,1369.65" stroke="rgb(255,0,101)" stroke-width="2" fill="none"></polyline>
<polyline points="1867.21,2186.17,5558.51,1646.5" stroke="rgb(0,72,255)" stroke-width="2" fill="none"></polyline>
<polyline points="2956.85,1563.7,5562.83,1650.2" stroke="rgb(46,0,255)" stroke-width="2" fill="none"></polyline>
<polyline points="2720.17,2383.73,6855.74,2230.25" stroke="rgb(0,72,255)" stroke-width="2" fill="none"></polyline>
<polyline points="2720.17,2383.73,6460.36,2267.09" stroke="rgb(0,255,59)" stroke-width="2" fill="none"></polyline>
<polyline points="1899.47,1257.19,5844.81,1397.53" stroke="rgb(50,0,255)" stroke-width="2" fill="none"></polyline>
<polyline points="2720.17,2383.73,6427.79,2382.65" stroke="rgb(110,0,255)" stroke-width="2" fill="none"></polyline>
<polyline points="3009.09,1847.53,6570.13,1434.12" stroke="rgb(255,0,157)" stroke-width="2" fill="none"></polyline>
<polyline points="3009.09,1847.53,6478.97,1435.37" stroke="rgb(255,106,0)" stroke-width="2" fill="none"></polyline>
<polyline points="2999,1490.12,4788.54,387.616" stroke="rgb(255,29,0)" stroke-width="2" fill="none"></polyline>
<polyline points="1850.96,2070.44,5906.13,1485.93" stroke="rgb(0,191,255)" stroke-width="2" fill="none"></polyline>
<polyline points="1898.84,1781.94,6977.19,1493.35" stroke="rgb(0,72,255)" stroke-width="2" fill="none"></polyline>
<polyline points="3010.46,1653.78,6217.98,1662.98" stroke="rgb(255,55,0)" stroke-width="2" fill="none"></polyline>
<polyline points="2760.11,2586.42,5132.54,1051.94" stroke="rgb(144,0,255)" stroke-width="2" fill="none"></polyline>
<polyline points="2964.55,1351.05,4820.31,511.372" stroke="rgb(255,216,0)" stroke-width="2" fill="none"></polyline>
<polyline points="2924.99,1419.33,6710.75,1765.95" stroke="rgb(255,0,63)" stroke-width="2" fill="none"></polyline>
<polyline points="1860.57,1310.91,5229.79,539.483" stroke="rgb(59,255,0)" stroke-width="2" fill="none"></polyline>
<polyline points="2944.12,1537.04,5569.53,1836.57" stroke="rgb(255,34,0)" stroke-width="2" fill="none"></polyline>
<polyline points="1890.27,2456.34,5427.49,1292.6" stroke="rgb(38,255,0)" stroke-width="2" fill="none"></polyline>
<polyline points="1890.27,2456.34,5431.62,1350.04" stroke="rgb(0,255,225)" stroke-width="2" fill="none"></polyline>
<polyline points="1906.96,1880.46,5758.9,1817.98" stroke="rgb(0,255,199)" stroke-width="2" fill="none"></polyline>
<polyline points="2630.12,2666.78,5167.22,1930.05" stroke="rgb(255,0,178)" stroke-width="2" fill="none"></polyline>
<polyline points="2924.99,1419.33,5877.57,2011.17" stroke="rgb(255,0,242)" stroke-width="2" fill="none"></polyline>
<polyline points="2982.38,2303.71,6484.61,1420.6" stroke="rgb(255,229,0)" stroke-width="2" fill="none"></polyline>
<polyline points="3010.46,1653.78,5422.83,1481.87" stroke="rgb(63,255,0)" stroke-width="2" fill="none"></polyline>
<polyline points="2267.86,2101.8,4909.13,2445.3" stroke="rgb(76,255,0)" stroke-width="2" fill="none"></polyline>
<polyline points="3009.09,1847.53,6914.02,1925.31" stroke="rgb(255,17,0)" stroke-width="2" fill="none"></polyline>
<polyline points="1771.81,2654.87,5036.53,2416.33" stroke="rgb(0,255,220)" stroke-width="2" fill="none"></polyline>
<circle cx="1890.63" cy="2487.49" r="4" stroke="rgb(127,255,0)" stroke-width="2" fill="none"></circle>
<circle cx="5925.03" cy="1107.69" r="4" stroke="rgb(127,255,0)" stroke-width="2" fill="none"></circle>
<circle cx="2100.86" cy="1154.11" r="4" stroke="rgb(97,255,0)" stroke-width="2" fill="none"></circle>
<circle cx="6367.16" cy="493.78" r="4" stroke="rgb(97,255,0)" stroke-width="2" fill="none"></circle>
<circle cx="1937.3" cy="2237.78" r="4" stroke="rgb(0,97,255)" stroke-width="2" fill="none"></circle>
<circle cx="6550.19" cy="1545.69" r="4" stroke="rgb(0,97,255)" stroke-width="2" fill="none"></circle>
<circle cx="1943.94" cy="2166.05" r="4" stroke="rgb(29,255,0)" stroke-width="2" fill="none"></circle>
<circle cx="5960.06" cy="682.422" r="4" stroke="rgb(29,255,0)" stroke-width="2" fill="none"></circle>
<circle cx="2897.19" cy="1498.67" r="4" stroke="rgb(0,25,255)" stroke-width="2" fill="none"></circle>
<circle cx="5666.54" cy="609.469" r="4" stroke="rgb(0,25,255)" stroke-width="2" fill="none"></circle>
<circle cx="2930.69" cy="2180.98" r="4" stroke="rgb(255,12,0)" stroke-width="2" fill="none"></circle>
<circle cx="5809.17" cy="626.386" r="4" stroke="rgb(255,12,0)" stroke-width="2" fill="none"></circle>
<circle cx="2927.41" cy="1399.96" r="4" stroke="rgb(255,250,0)" stroke-width="2" fill="none"></circle>
<circle cx="6297.73" cy="1689.31" r="4" stroke="rgb(255,250,0)" stroke-width="2" fill="none"></circle>
<circle cx="1874.1" cy="2260.31" r="4" stroke="rgb(255,21,0)" stroke-width="2" fill="none"></circle>
<circle cx="6201.71" cy="1695.89" r="4" stroke="rgb(255,21,0)" stroke-width="2" fill="none"></circle>
<circle cx="2897.19" cy="1498.67" r="4" stroke="rgb(0,255,4)" stroke-width="2" fill="none"></circle>
<circle cx="6061.83" cy="651.106" r="4" stroke="rgb(0,255,4)" stroke-width="2" fill="none"></circle>
<circle cx="2971.61" cy="1921.49" r="4" stroke="rgb(255,4,0)" stroke-width="2" fill="none"></circle>
<circle cx="5850.7" cy="659.82" r="4" stroke="rgb(255,4,0)" stroke-width="2" fill="none"></circle>
<circle cx="2897.19" cy="1498.67" r="4" stroke="rgb(123,255,0)" stroke-width="2" fill="none"></circle>
<circle cx="5662.17" cy="654.664" r="4" stroke="rgb(123,255,0)" stroke-width="2" fill="none"></circle>
<circle cx="1911.2" cy="2348.63" r="4" stroke="rgb(0,144,255)" stroke-width="2" fill="none"></circle>
<circle cx="6776.55" cy="1443.08" r="4" stroke="rgb(0,144,255)" stroke-width="2" fill="none"></circle>
<circle cx="2897.19" cy="1498.67" r="4" stroke="rgb(178,0,255)" stroke-width="2" fill="none"></circle>
<circle cx="6061.32" cy="688.632" r="4" stroke="rgb(178,0,255)" stroke-width="2" fill="none"></circle>
<circle cx="2897.19" cy="1498.67" r="4" stroke="rgb(80,255,0)" stroke-width="2" fill="none"></circle>
<circle cx="6267.43" cy="726.564" r="4" stroke="rgb(80,255,0)" stroke-width="2" fill="none"></circle>
<circle cx="2897.19" cy="1498.67" r="4" stroke="rgb(255,127,0)" stroke-width="2" fill="none"></circle>
<circle cx="6057.22" cy="735.085" r="4" stroke="rgb(255,127,0)" stroke-width="2" fill="none"></circle>
<circle cx="2531.41" cy="2844.92" r="4" stroke="rgb(255,0,17)" stroke-width="2" fill="none"></circle>
<circle cx="5426.94" cy="1448.86" r="4" stroke="rgb(255,0,17)" stroke-width="2" fill="none"></circle>
<circle cx="2897.19" cy="1498.67" r="4" stroke="rgb(0,255,191)" stroke-width="2" fill="none"></circle>
<circle cx="6198" cy="746.555" r="4" stroke="rgb(0,255,191)" stroke-width="2" fill="none"></circle>
<circle cx="1861.93" cy="2135.46" r="4" stroke="rgb(0,144,255)" stroke-width="2" fill="none"></circle>
<circle cx="6458.68" cy="1146.25" r="4" stroke="rgb(0,144,255)" stroke-width="2" fill="none"></circle>
<circle cx="2897.19" cy="1498.67" r="4" stroke="rgb(255,255,0)" stroke-width="2" fill="none"></circle>
<circle cx="6055.82" cy="752.812" r="4" stroke="rgb(255,255,0)" stroke-width="2" fill="none"></circle>
<circle cx="2897.19" cy="1498.67" r="4" stroke="rgb(255,225,0)" stroke-width="2" fill="none"></circle>
<circle cx="6263.94" cy="753.415" r="4" stroke="rgb(255,225,0)" stroke-width="2" fill="none"></circle>
<circle cx="2636.62" cy="1703.67" r="4" stroke="rgb(0,212,255)" stroke-width="2" fill="none"></circle>
<circle cx="6635.67" cy="1149.12" r="4" stroke="rgb(0,212,255)" stroke-width="2" fill="none"></circle>
<circle cx="2955.97" cy="2099.32" r="4" stroke="rgb(12,0,255)" stroke-width="2" fill="none"></circle>
<circle cx="6398.28" cy="1172.64" r="4" stroke="rgb(12,0,255)" stroke-width="2" fill="none"></circle>
<circle cx="2956.85" cy="1563.7" r="4" stroke="rgb(255,42,0)" stroke-width="2" fill="none"></circle>
<circle cx="6617.42" cy="1736.67" r="4" stroke="rgb(255,42,0)" stroke-width="2" fill="none"></circle>
<circle cx="2826.65" cy="2467.64" r="4" stroke="rgb(161,255,0)" stroke-width="2" fill="none"></circle>
<circle cx="5657.34" cy="1175.03" r="4" stroke="rgb(161,255,0)" stroke-width="2" fill="none"></circle>
<circle cx="2897.19" cy="1498.67" r="4" stroke="rgb(144,0,255)" stroke-width="2" fill="none"></circle>
<circle cx="5655.15" cy="732.937" r="4" stroke="rgb(144,0,255)" stroke-width="2" fill="none"></circle>
<circle cx="2542.16" cy="2123.92" r="4" stroke="rgb(93,255,0)" stroke-width="2" fill="none"></circle>
<circle cx="5301.68" cy="1602.14" r="4" stroke="rgb(93,255,0)" stroke-width="2" fill="none"></circle>
<circle cx="2897.19" cy="1498.67" r="4" stroke="rgb(255,136,0)" stroke-width="2" fill="none"></circle>
<circle cx="6264.3" cy="760.872" r="4" stroke="rgb(255,136,0)" stroke-width="2" fill="none"></circle>
<circle cx="2651.64" cy="2698.69" r="4" stroke="rgb(212,0,255)" stroke-width="2" fill="none"></circle>
<circle cx="6943.92" cy="1180.73" r="4" stroke="rgb(212,0,255)" stroke-width="2" fill="none"></circle>
<circle cx="2897.19" cy="1498.67" r="4" stroke="rgb(17,0,255)" stroke-width="2" fill="none"></circle>
<circle cx="6184.34" cy="776.056" r="4" stroke="rgb(17,0,255)" stroke-width="2" fill="none"></circle>
<circle cx="2897.19" cy="1498.67" r="4" stroke="rgb(8,0,255)" stroke-width="2" fill="none"></circle>
<circle cx="6251.88" cy="776.202" r="4" stroke="rgb(8,0,255)" stroke-width="2" fill="none"></circle>
<circle cx="2517.25" cy="2901.73" r="4" stroke="rgb(0,72,255)" stroke-width="2" fill="none"></circle>
<circle cx="5771.34" cy="782.104" r="4" stroke="rgb(0,72,255)" stroke-width="2" fill="none"></circle>
<circle cx="2897.19" cy="1498.67" r="4" stroke="rgb(0,140,255)" stroke-width="2" fill="none"></circle>
<circle cx="6186.12" cy="751.754" r="4" stroke="rgb(0,140,255)" stroke-width="2" fill="none"></circle>
<circle cx="1884.32" cy="2517.29" r="4" stroke="rgb(0,119,255)" stroke-width="2" fill="none"></circle>
<circle cx="6423.22" cy="1759.48" r="4" stroke="rgb(0,119,255)" stroke-width="2" fill="none"></circle>
<circle cx="2897.19" cy="1498.67" r="4" stroke="rgb(165,255,0)" stroke-width="2" fill="none"></circle>
<circle cx="6124.29" cy="792.879" r="4" stroke="rgb(165,255,0)" stroke-width="2" fill="none"></circle>
<circle cx="2436.92" cy="2843.61" r="4" stroke="rgb(255,0,169)" stroke-width="2" fill="none"></circle>
<circle cx="6116.22" cy="1765.74" r="4" stroke="rgb(255,0,169)" stroke-width="2" fill="none"></circle>
<circle cx="2897.19" cy="1498.67" r="4" stroke="rgb(255,0,178)" stroke-width="2" fill="none"></circle>
<circle cx="6052.1" cy="793.902" r="4" stroke="rgb(255,0,178)" stroke-width="2" fill="none"></circle>
<circle cx="2897.19" cy="1498.67" r="4" stroke="rgb(255,0,187)" stroke-width="2" fill="none"></circle>
<circle cx="6249.03" cy="804.421" r="4" stroke="rgb(255,0,187)" stroke-width="2" fill="none"></circle>
<circle cx="2897.19" cy="1498.67" r="4" stroke="rgb(46,0,255)" stroke-width="2" fill="none"></circle>
<circle cx="6262.88" cy="772.807" r="4" stroke="rgb(46,0,255)" stroke-width="2" fill="none"></circle>
<circle cx="1917.95" cy="2286.14" r="4" stroke="rgb(255,0,157)" stroke-width="2" fill="none"></circle>
<circle cx="6348.29" cy="901.513" r="4" stroke="rgb(255,0,157)" stroke-width="2" fill="none"></circle>
<circle cx="1963.42" cy="1232.09" r="4" stroke="rgb(182,255,0)" stroke-width="2" fill="none"></circle>
<circle cx="5528.07" cy="904.143" r="4" stroke="rgb(182,255,0)" stroke-width="2" fill="none"></circle>
<circle cx="2897.19" cy="1498.67" r="4" stroke="rgb(50,0,255)" stroke-width="2" fill="none"></circle>
<circle cx="6262.6" cy="783.452" r="4" stroke="rgb(50,0,255)" stroke-width="2" fill="none"></circle>
<circle cx="1911.2" cy="2348.63" r="4" stroke="rgb(199,0,255)" stroke-width="2" fill="none"></circle>
<circle cx="5951.58" cy="814.414" r="4" stroke="rgb(199,0,255)" stroke-width="2" fill="none"></circle>
<circle cx="3087.91" cy="2247.53" r="4" stroke="rgb(0,255,148)" stroke-width="2" fill="none"></circle>
<circle cx="6457.17" cy="791.461" r="4" stroke="rgb(0,255,148)" stroke-width="2" fill="none"></circle>
<circle cx="2020.13" cy="1904.2" r="4" stroke="rgb(255,195,0)" stroke-width="2" fill="none"></circle>
<circle cx="6135.12" cy="1475.44" r="4" stroke="rgb(255,195,0)" stroke-width="2" fill="none"></circle>
<circle cx="2897.19" cy="1498.67" r="4" stroke="rgb(255,119,0)" stroke-width="2" fill="none"></circle>
<circle cx="5648.66" cy="828.835" r="4" stroke="rgb(255,119,0)" stroke-width="2" fill="none"></circle>
<circle cx="2897.19" cy="1498.67" r="4" stroke="rgb(0,229,255)" stroke-width="2" fill="none"></circle>
<circle cx="6049.67" cy="829.221" r="4" stroke="rgb(0,229,255)" stroke-width="2" fill="none"></circle>
<circle cx="1864.63" cy="2256.72" r="4" stroke="rgb(255,178,0)" stroke-width="2" fill="none"></circle>
<circle cx="6378.19" cy="832.993" r="4" stroke="rgb(255,178,0)" stroke-width="2" fill="none"></circle>
<circle cx="2897.19" cy="1498.67" r="4" stroke="rgb(233,255,0)" stroke-width="2" fill="none"></circle>
<circle cx="6124.22" cy="810.599" r="4" stroke="rgb(233,255,0)" stroke-width="2" fill="none"></circle>
<circle cx="2930.69" cy="2180.98" r="4" stroke="rgb(102,0,255)" stroke-width="2" fill="none"></circle>
<circle cx="5711.99" cy="870.35" r="4" stroke="rgb(102,0,255)" stroke-width="2" fill="none"></circle>
<circle cx="2897.19" cy="1498.67" r="4" stroke="rgb(76,255,0)" stroke-width="2" fill="none"></circle>
<circle cx="6107.95" cy="872.356" r="4" stroke="rgb(76,255,0)" stroke-width="2" fill="none"></circle>
<circle cx="1861.93" cy="2135.46" r="4" stroke="rgb(8,255,0)" stroke-width="2" fill="none"></circle>
<circle cx="6022.45" cy="879.935" r="4" stroke="rgb(8,255,0)" stroke-width="2" fill="none"></circle>
<circle cx="1942.06" cy="2272.96" r="4" stroke="rgb(255,0,140)" stroke-width="2" fill="none"></circle>
<circle cx="5887.05" cy="1948.46" r="4" stroke="rgb(255,0,140)" stroke-width="2" fill="none"></circle>
<circle cx="2897.19" cy="1498.67" r="4" stroke="rgb(255,0,63)" stroke-width="2" fill="none"></circle>
<circle cx="5642.98" cy="889.031" r="4" stroke="rgb(255,0,63)" stroke-width="2" fill="none"></circle>
<circle cx="1954.94" cy="2288.48" r="4" stroke="rgb(255,0,0)" stroke-width="2" fill="none"></circle>
<circle cx="6305.3" cy="1241.78" r="4" stroke="rgb(255,0,0)" stroke-width="2" fill="none"></circle>
<circle cx="1875.87" cy="2256.96" r="4" stroke="rgb(255,208,0)" stroke-width="2" fill="none"></circle>
<circle cx="5930.62" cy="891.924" r="4" stroke="rgb(255,208,0)" stroke-width="2" fill="none"></circle>
<circle cx="2438.31" cy="2968.96" r="4" stroke="rgb(0,255,46)" stroke-width="2" fill="none"></circle>
<circle cx="5536.95" cy="1501.03" r="4" stroke="rgb(0,255,46)" stroke-width="2" fill="none"></circle>
<circle cx="2897.19" cy="1498.67" r="4" stroke="rgb(255,0,123)" stroke-width="2" fill="none"></circle>
<circle cx="6043.37" cy="895.14" r="4" stroke="rgb(255,0,123)" stroke-width="2" fill="none"></circle>
<circle cx="1962.73" cy="1781.87" r="4" stroke="rgb(255,0,199)" stroke-width="2" fill="none"></circle>
<circle cx="6372.03" cy="897.73" r="4" stroke="rgb(255,0,199)" stroke-width="2" fill="none"></circle>
<circle cx="2651.64" cy="2698.69" r="4" stroke="rgb(229,0,255)" stroke-width="2" fill="none"></circle>
<circle cx="5814.99" cy="911.842" r="4" stroke="rgb(229,0,255)" stroke-width="2" fill="none"></circle>
<circle cx="1905.14" cy="1873.54" r="4" stroke="rgb(0,106,255)" stroke-width="2" fill="none"></circle>
<circle cx="6588.12" cy="1677.62" r="4" stroke="rgb(0,106,255)" stroke-width="2" fill="none"></circle>
<circle cx="1954.94" cy="2288.48" r="4" stroke="rgb(221,255,0)" stroke-width="2" fill="none"></circle>
<circle cx="6313.54" cy="1261.75" r="4" stroke="rgb(221,255,0)" stroke-width="2" fill="none"></circle>
<circle cx="1954.94" cy="2288.48" r="4" stroke="rgb(0,255,157)" stroke-width="2" fill="none"></circle>
<circle cx="6313.54" cy="1261.75" r="4" stroke="rgb(0,255,157)" stroke-width="2" fill="none"></circle>
<circle cx="2897.19" cy="1498.67" r="4" stroke="rgb(246,255,0)" stroke-width="2" fill="none"></circle>
<circle cx="6183.7" cy="923.838" r="4" stroke="rgb(246,255,0)" stroke-width="2" fill="none"></circle>
<circle cx="2062.53" cy="1187.83" r="4" stroke="rgb(170,0,255)" stroke-width="2" fill="none"></circle>
<circle cx="5935.96" cy="1518" r="4" stroke="rgb(170,0,255)" stroke-width="2" fill="none"></circle>
<circle cx="1823.93" cy="2507.79" r="4" stroke="rgb(42,255,0)" stroke-width="2" fill="none"></circle>
<circle cx="6631.39" cy="1517.76" r="4" stroke="rgb(42,255,0)" stroke-width="2" fill="none"></circle>
<circle cx="2897.19" cy="1498.67" r="4" stroke="rgb(63,0,255)" stroke-width="2" fill="none"></circle>
<circle cx="6239.07" cy="944.423" r="4" stroke="rgb(63,0,255)" stroke-width="2" fill="none"></circle>
<circle cx="3009.09" cy="1847.53" r="4" stroke="rgb(0,8,255)" stroke-width="2" fill="none"></circle>
<circle cx="6097.67" cy="1525.44" r="4" stroke="rgb(0,8,255)" stroke-width="2" fill="none"></circle>
<circle cx="2927.12" cy="1585.88" r="4" stroke="rgb(229,255,0)" stroke-width="2" fill="none"></circle>
<circle cx="6683.86" cy="2214.45" r="4" stroke="rgb(229,255,0)" stroke-width="2" fill="none"></circle>
<circle cx="2927.12" cy="1585.88" r="4" stroke="rgb(0,255,110)" stroke-width="2" fill="none"></circle>
<circle cx="6640.22" cy="2217.1" r="4" stroke="rgb(0,255,110)" stroke-width="2" fill="none"></circle>
<circle cx="2927.12" cy="1585.88" r="4" stroke="rgb(195,255,0)" stroke-width="2" fill="none"></circle>
<circle cx="6587.47" cy="2219.68" r="4" stroke="rgb(195,255,0)" stroke-width="2" fill="none"></circle>
<circle cx="1876.86" cy="2519.51" r="4" stroke="rgb(255,63,0)" stroke-width="2" fill="none"></circle>
<circle cx="5117.36" cy="1116.82" r="4" stroke="rgb(255,63,0)" stroke-width="2" fill="none"></circle>
<circle cx="1963.42" cy="1232.09" r="4" stroke="rgb(131,0,255)" stroke-width="2" fill="none"></circle>
<circle cx="5519.32" cy="971.861" r="4" stroke="rgb(131,0,255)" stroke-width="2" fill="none"></circle>
<circle cx="2897.19" cy="1498.67" r="4" stroke="rgb(255,4,0)" stroke-width="2" fill="none"></circle>
<circle cx="6108.2" cy="974.037" r="4" stroke="rgb(255,4,0)" stroke-width="2" fill="none"></circle>
<circle cx="2622.42" cy="2668.17" r="4" stroke="rgb(0,255,216)" stroke-width="2" fill="none"></circle>
<circle cx="6832.28" cy="1298.78" r="4" stroke="rgb(0,255,216)" stroke-width="2" fill="none"></circle>
<circle cx="1911.2" cy="2348.63" r="4" stroke="rgb(255,0,182)" stroke-width="2" fill="none"></circle>
<circle cx="6007.06" cy="976.526" r="4" stroke="rgb(255,0,182)" stroke-width="2" fill="none"></circle>
<circle cx="1911.2" cy="2348.63" r="4" stroke="rgb(89,0,255)" stroke-width="2" fill="none"></circle>
<circle cx="6007.06" cy="976.526" r="4" stroke="rgb(89,0,255)" stroke-width="2" fill="none"></circle>
<circle cx="1922.77" cy="2250.01" r="4" stroke="rgb(0,46,255)" stroke-width="2" fill="none"></circle>
<circle cx="5991.92" cy="978.617" r="4" stroke="rgb(0,46,255)" stroke-width="2" fill="none"></circle>
<circle cx="1890.63" cy="2487.49" r="4" stroke="rgb(0,33,255)" stroke-width="2" fill="none"></circle>
<circle cx="5943.59" cy="937.774" r="4" stroke="rgb(0,33,255)" stroke-width="2" fill="none"></circle>
<circle cx="1952.45" cy="2556.46" r="4" stroke="rgb(0,178,255)" stroke-width="2" fill="none"></circle>
<circle cx="6292.09" cy="1538.44" r="4" stroke="rgb(0,178,255)" stroke-width="2" fill="none"></circle>
<circle cx="2897.19" cy="1498.67" r="4" stroke="rgb(255,21,0)" stroke-width="2" fill="none"></circle>
<circle cx="6246.02" cy="993.697" r="4" stroke="rgb(255,21,0)" stroke-width="2" fill="none"></circle>
<circle cx="2654.2" cy="2757.29" r="4" stroke="rgb(0,144,255)" stroke-width="2" fill="none"></circle>
<circle cx="6509.75" cy="2292.7" r="4" stroke="rgb(0,144,255)" stroke-width="2" fill="none"></circle>
<circle cx="3087.91" cy="2247.53" r="4" stroke="rgb(255,0,187)" stroke-width="2" fill="none"></circle>
<circle cx="6516.95" cy="997.273" r="4" stroke="rgb(255,0,187)" stroke-width="2" fill="none"></circle>
<circle cx="2506.78" cy="2819.04" r="4" stroke="rgb(255,0,119)" stroke-width="2" fill="none"></circle>
<circle cx="6176.8" cy="1011.29" r="4" stroke="rgb(255,0,119)" stroke-width="2" fill="none"></circle>
<circle cx="3022.09" cy="1427.4" r="4" stroke="rgb(0,203,255)" stroke-width="2" fill="none"></circle>
<circle cx="5629.95" cy="2357.27" r="4" stroke="rgb(0,203,255)" stroke-width="2" fill="none"></circle>
<circle cx="3037.98" cy="1544.68" r="4" stroke="rgb(255,0,187)" stroke-width="2" fill="none"></circle>
<circle cx="5780.17" cy="2379.3" r="4" stroke="rgb(255,0,187)" stroke-width="2" fill="none"></circle>
<circle cx="2938.93" cy="2180.5" r="4" stroke="rgb(55,0,255)" stroke-width="2" fill="none"></circle>
<circle cx="5638.91" cy="2393.15" r="4" stroke="rgb(55,0,255)" stroke-width="2" fill="none"></circle>
<circle cx="2436.92" cy="2843.61" r="4" stroke="rgb(0,191,255)" stroke-width="2" fill="none"></circle>
<circle cx="6408.5" cy="1786.89" r="4" stroke="rgb(0,191,255)" stroke-width="2" fill="none"></circle>
<circle cx="2897.19" cy="1498.67" r="4" stroke="rgb(199,0,255)" stroke-width="2" fill="none"></circle>
<circle cx="6102.23" cy="1032.58" r="4" stroke="rgb(199,0,255)" stroke-width="2" fill="none"></circle>
<circle cx="2936.21" cy="1384.55" r="4" stroke="rgb(0,140,255)" stroke-width="2" fill="none"></circle>
<circle cx="6613.46" cy="1342.73" r="4" stroke="rgb(0,140,255)" stroke-width="2" fill="none"></circle>
<circle cx="2897.19" cy="1498.67" r="4" stroke="rgb(0,255,38)" stroke-width="2" fill="none"></circle>
<circle cx="6243.26" cy="1041.29" r="4" stroke="rgb(0,255,38)" stroke-width="2" fill="none"></circle>
<circle cx="2927.12" cy="1585.88" r="4" stroke="rgb(255,63,0)" stroke-width="2" fill="none"></circle>
<circle cx="6099.3" cy="1562.72" r="4" stroke="rgb(255,63,0)" stroke-width="2" fill="none"></circle>
<circle cx="1892.75" cy="2386.77" r="4" stroke="rgb(148,0,255)" stroke-width="2" fill="none"></circle>
<circle cx="5855.09" cy="1353.26" r="4" stroke="rgb(148,0,255)" stroke-width="2" fill="none"></circle>
<circle cx="3009.09" cy="1847.53" r="4" stroke="rgb(0,255,165)" stroke-width="2" fill="none"></circle>
<circle cx="6431.67" cy="1571.44" r="4" stroke="rgb(0,255,165)" stroke-width="2" fill="none"></circle>
<circle cx="2853.66" cy="1352.47" r="4" stroke="rgb(255,0,216)" stroke-width="2" fill="none"></circle>
<circle cx="6984.55" cy="1255.36" r="4" stroke="rgb(255,0,216)" stroke-width="2" fill="none"></circle>
<circle cx="1893.96" cy="1855.83" r="4" stroke="rgb(225,255,0)" stroke-width="2" fill="none"></circle>
<circle cx="6634.07" cy="1970.62" r="4" stroke="rgb(225,255,0)" stroke-width="2" fill="none"></circle>
<circle cx="1906.96" cy="1880.46" r="4" stroke="rgb(123,0,255)" stroke-width="2" fill="none"></circle>
<circle cx="6597.19" cy="1085.02" r="4" stroke="rgb(123,0,255)" stroke-width="2" fill="none"></circle>
<circle cx="2572" cy="2849.52" r="4" stroke="rgb(0,153,255)" stroke-width="2" fill="none"></circle>
<circle cx="6550.94" cy="1365.43" r="4" stroke="rgb(0,153,255)" stroke-width="2" fill="none"></circle>
<circle cx="2074.26" cy="1364.9" r="4" stroke="rgb(0,255,242)" stroke-width="2" fill="none"></circle>
<circle cx="6833.68" cy="1367.03" r="4" stroke="rgb(0,255,242)" stroke-width="2" fill="none"></circle>
<circle cx="2402.25" cy="2439.99" r="4" stroke="rgb(255,0,101)" stroke-width="2" fill="none"></circle>
<circle cx="6920.93" cy="1369.65" r="4" stroke="rgb(255,0,101)" stroke-width="2" fill="none"></circle>
<circle cx="1867.21" cy="2186.17" r="4" stroke="rgb(0,72,255)" stroke-width="2" fill="none"></circle>
<circle cx="5558.51" cy="1646.5" r="4" stroke="rgb(0,72,255)" stroke-width="2" fill="none"></circle>
<circle cx="2956.85" cy="1563.7" r="4" stroke="rgb(46,0,255)" stroke-width="2" fill="none"></circle>
<circle cx="5562.83" cy="1650.2" r="4" stroke="rgb(46,0,255)" stroke-width="2" fill="none"></circle>
<circle cx="2720.17" cy="2383.73" r="4" stroke="rgb(0,72,255)" stroke-width="2" fill="none"></circle>
<circle cx="6855.74" cy="2230.25" r="4" stroke="rgb(0,72,255)" stroke-width="2" fill="none"></circle>
<circle cx="2720.17" cy="2383.73" r="4" stroke="rgb(0,255,59)" stroke-width="2" fill="none"></circle>
<circle cx="6460.36" cy="2267.09" r="4" stroke="rgb(0,255,59)" stroke-width="2" fill="none"></circle>
<circle cx="1899.47" cy="1257.19" r="4" stroke="rgb(50,0,255)" stroke-width="2" fill="none"></circle>
<circle cx="5844.81" cy="1397.53" r="4" stroke="rgb(50,0,255)" stroke-width="2" fill="none"></circle>
<circle cx="2720.17" cy="2383.73" r="4" stroke="rgb(110,0,255)" stroke-width="2" fill="none"></circle>
<circle cx="6427.79" cy="2382.65" r="4" stroke="rgb(110,0,255)" stroke-width="2" fill="none"></circle>
<circle cx="3009.09" cy="1847.53" r="4" stroke="rgb(255,0,157)" stroke-width="2" fill="none"></circle>
<circle cx="6570.13" cy="1434.12" r="4" stroke="rgb(255,0,157)" stroke-width="2" fill="none"></circle>
<circle cx="3009.09" cy="1847.53" r="4" stroke="rgb(255,106,0)" stroke-width="2" fill="none"></circle>
<circle cx="6478.97" cy="1435.37" r="4" stroke="rgb(255,106,0)" stroke-width="2" fill="none"></circle>
<circle cx="2999" cy="1490.12" r="4" stroke="rgb(255,29,0)" stroke-width="2" fill="none"></circle>
<circle cx="4788.54" cy="387.616" r="4" stroke="rgb(255,29,0)" stroke-width="2" fill="none"></circle>
<circle cx="1850.96" cy="2070.44" r="4" stroke="rgb(0,191,255)" stroke-width="2" fill="none"></circle>
<circle cx="5906.13" cy="1485.93" r="4" stroke="rgb(0,191,255)" stroke-width="2" fill="none"></circle>
<circle cx="1898.84" cy="1781.94" r="4" stroke="rgb(0,72,255)" stroke-width="2" fill="none"></circle>
<circle cx="6977.19" cy="1493.35" r="4" stroke="rgb(0,72,255)" stroke-width="2" fill="none"></circle>
<circle cx="3010.46" cy="1653.78" r="4" stroke="rgb(255,55,0)" stroke-width="2" fill="none"></circle>
<circle cx="6217.98" cy="1662.98" r="4" stroke="rgb(255,55,0)" stroke-width="2" fill="none"></circle>
<circle cx="2760.11" cy="2586.42" r="4" stroke="rgb(144,0,255)" stroke-width="2" fill="none"></circle>
<circle cx="5132.54" cy="1051.94" r="4" stroke="rgb(144,0,255)" stroke-width="2" fill="none"></circle>
<circle cx="2964.55" cy="1351.05" r="4" stroke="rgb(255,216,0)" stroke-width="2" fill="none"></circle>
<circle cx="4820.31" cy="511.372" r="4" stroke="rgb(255,216,0)" stroke-width="2" fill="none"></circle>
<circle cx="2924.99" cy="1419.33" r="4" stroke="rgb(255,0,63)" stroke-width="2" fill="none"></circle>
<circle cx="6710.75" cy="1765.95" r="4" stroke="rgb(255,0,63)" stroke-width="2" fill="none"></circle>
<circle cx="1860.57" cy="1310.91" r="4" stroke="rgb(59,255,0)" stroke-width="2" fill="none"></circle>
<circle cx="5229.79" cy="539.483" r="4" stroke="rgb(59,255,0)" stroke-width="2" fill="none"></circle>
<circle cx="2944.12" cy="1537.04" r="4" stroke="rgb(255,34,0)" stroke-width="2" fill="none"></circle>
<circle cx="5569.53" cy="1836.57" r="4" stroke="rgb(255,34,0)" stroke-width="2" fill="none"></circle>
<circle cx="1890.27" cy="2456.34" r="4" stroke="rgb(38,255,0)" stroke-width="2" fill="none"></circle>
<circle cx="5427.49" cy="1292.6" r="4" stroke="rgb(38,255,0)" stroke-width="2" fill="none"></circle>
<circle cx="1890.27" cy="2456.34" r="4" stroke="rgb(0,255,225)" stroke-width="2" fill="none"></circle>
<circle cx="5431.62" cy="1350.04" r="4" stroke="rgb(0,255,225)" stroke-width="2" fill="none"></circle>
<circle cx="1906.96" cy="1880.46" r="4" stroke="rgb(0,255,199)" stroke-width="2" fill="none"></circle>
<circle cx="5758.9" cy="1817.98" r="4" stroke="rgb(0,255,199)" stroke-width="2" fill="none"></circle>
<circle cx="2630.12" cy="2666.78" r="4" stroke="rgb(255,0,178)" stroke-width="2" fill="none"></circle>
<circle cx="5167.22" cy="1930.05" r="4" stroke="rgb(255,0,178)" stroke-width="2" fill="none"></circle>
<circle cx="2924.99" cy="1419.33" r="4" stroke="rgb(255,0,242)" stroke-width="2" fill="none"></circle>
<circle cx="5877.57" cy="2011.17" r="4" stroke="rgb(255,0,242)" stroke-width="2" fill="none"></circle>
<circle cx="2982.38" cy="2303.71" r="4" stroke="rgb(255,229,0)" stroke-width="2" fill="none"></circle>
<circle cx="6484.61" cy="1420.6" r="4" stroke="rgb(255,229,0)" stroke-width="2" fill="none"></circle>
<circle cx="3010.46" cy="1653.78" r="4" stroke="rgb(63,255,0)" stroke-width="2" fill="none"></circle>
<circle cx="5422.83" cy="1481.87" r="4" stroke="rgb(63,255,0)" stroke-width="2" fill="none"></circle>
<circle cx="2267.86" cy="2101.8" r="4" stroke="rgb(76,255,0)" stroke-width="2" fill="none"></circle>
<circle cx="4909.13" cy="2445.3" r="4" stroke="rgb(76,255,0)" stroke-width="2" fill="none"></circle>
<circle cx="3009.09" cy="1847.53" r="4" stroke="rgb(255,17,0)" stroke-width="2" fill="none"></circle>
<circle cx="6914.02" cy="1925.31" r="4" stroke="rgb(255,17,0)" stroke-width="2" fill="none"></circle>
<circle cx="1771.81" cy="2654.87" r="4" stroke="rgb(0,255,220)" stroke-width="2" fill="none"></circle>
<circle cx="5036.53" cy="2416.33" r="4" stroke="rgb(0,255,220)" stroke-width="2" fill="none"></circle>
</svg>