<?xml version="1.0" standalone="yes"?>
<!-- SVG graphic -->
<svg xmlns='http://www.w3.org/2000/svg' xmlns:xlink='http://www.w3.org/1999/xlink'
width="8064px" height="3024px" preserveAspectRatio="xMinYMin meet" viewBox="0 0 8064 3024" version="1.1">
<image x="0" y="0" width="4032px" height="3024px" opacity="1" xlink:href="/home/jeong/Code/2D-to-3D-Modeling-using-AI/Make3D/Image/20200227_180741.jpg"/>
<image x="4032" y="0" width="4032px" height="3024px" opacity="1" xlink:href="/home/jeong/Code/2D-to-3D-Modeling-using-AI/Make3D/Image/20200227_180808.jpg"/>
<polyline points="1666.28,427.68,5862.67,1517.8" stroke="rgb(153,255,0)" stroke-width="2" fill="none"></polyline>
<polyline points="1052.25,2888.44,5882.35,930.988" stroke="rgb(182,255,0)" stroke-width="2" fill="none"></polyline>
<polyline points="1647.19,1464.46,6672.07,1051.48" stroke="rgb(0,255,33)" stroke-width="2" fill="none"></polyline>
<polyline points="1247.09,1187.83,7013.74,1028.7" stroke="rgb(255,21,0)" stroke-width="2" fill="none"></polyline>
<polyline points="878.979,2081.09,7023.93,1033.94" stroke="rgb(255,0,46)" stroke-width="2" fill="none"></polyline>
<polyline points="2780.74,1537.21,5886.23,1831.34" stroke="rgb(255,0,63)" stroke-width="2" fill="none"></polyline>
<polyline points="2185.12,2021.58,5855.84,1604.9" stroke="rgb(0,255,220)" stroke-width="2" fill="none"></polyline>
<polyline points="1009.86,821.074,7214.31,1524.76" stroke="rgb(76,255,0)" stroke-width="2" fill="none"></polyline>
<polyline points="1318.67,547.522,5678.57,1700.95" stroke="rgb(225,0,255)" stroke-width="2" fill="none"></polyline>
<polyline points="815.506,529.704,5431.2,1340.81" stroke="rgb(255,208,0)" stroke-width="2" fill="none"></polyline>
<polyline points="2988.68,551.078,5878.83,1236.3" stroke="rgb(76,255,0)" stroke-width="2" fill="none"></polyline>
<polyline points="1546.51,1545.43,5529.73,1411.41" stroke="rgb(0,255,42)" stroke-width="2" fill="none"></polyline>
<polyline points="1782.52,1603.3,6206.84,1414.34" stroke="rgb(255,114,0)" stroke-width="2" fill="none"></polyline>
<polyline points="2012.67,523.615,5700.3,1744.93" stroke="rgb(0,255,106)" stroke-width="2" fill="none"></polyline>
<polyline points="2191.25,680.039,5788.1,1764.53" stroke="rgb(46,255,0)" stroke-width="2" fill="none"></polyline>
<polyline points="1546.51,1545.43,5544.12,1346.28" stroke="rgb(157,255,0)" stroke-width="2" fill="none"></polyline>
<polyline points="1413.06,360.606,6737.23,1483.83" stroke="rgb(140,255,0)" stroke-width="2" fill="none"></polyline>
<polyline points="1647.19,1464.46,6899.6,1489.87" stroke="rgb(0,255,195)" stroke-width="2" fill="none"></polyline>
<polyline points="905.664,2520.61,6424.92,2035.27" stroke="rgb(119,255,0)" stroke-width="2" fill="none"></polyline>
<polyline points="2859.7,489.743,6069.42,1509.55" stroke="rgb(0,157,255)" stroke-width="2" fill="none"></polyline>
<polyline points="640.61,889.841,6654.26,2121.73" stroke="rgb(0,255,169)" stroke-width="2" fill="none"></polyline>
<polyline points="1604.78,335.205,5541.88,1901.97" stroke="rgb(127,0,255)" stroke-width="2" fill="none"></polyline>
<polyline points="1795.48,362.489,5281.6,1393.51" stroke="rgb(0,255,42)" stroke-width="2" fill="none"></polyline>
<polyline points="2760.64,548.181,7054.6,1714.96" stroke="rgb(255,80,0)" stroke-width="2" fill="none"></polyline>
<polyline points="2536.39,1565.05,6554.32,1435.91" stroke="rgb(255,157,0)" stroke-width="2" fill="none"></polyline>
<polyline points="1885.52,629.883,5791.28,1775.79" stroke="rgb(0,212,255)" stroke-width="2" fill="none"></polyline>
<polyline points="3122.26,788.125,6016.89,1727.11" stroke="rgb(174,255,0)" stroke-width="2" fill="none"></polyline>
<polyline points="1534.41,362.335,5985.3,1477.45" stroke="rgb(169,255,0)" stroke-width="2" fill="none"></polyline>
<polyline points="715.383,246.914,6125.03,1970.8" stroke="rgb(255,0,165)" stroke-width="2" fill="none"></polyline>
<polyline points="2166.18,2096.96,4982.07,1710.87" stroke="rgb(255,148,0)" stroke-width="2" fill="none"></polyline>
<polyline points="2166.18,2096.96,4981.56,1711.11" stroke="rgb(0,255,195)" stroke-width="2" fill="none"></polyline>
<polyline points="2051.6,1964.63,6406.92,1715.17" stroke="rgb(157,0,255)" stroke-width="2" fill="none"></polyline>
<polyline points="1611.58,2547.87,5743.96,1666.19" stroke="rgb(33,255,0)" stroke-width="2" fill="none"></polyline>
<polyline points="2114.86,416.292,5162.93,458.657" stroke="rgb(229,0,255)" stroke-width="2" fill="none"></polyline>
<polyline points="1757.35,1576.79,5999.04,1607.1" stroke="rgb(0,255,144)" stroke-width="2" fill="none"></polyline>
<polyline points="1609.34,1914.12,6256.74,1134.29" stroke="rgb(255,0,114)" stroke-width="2" fill="none"></polyline>
<polyline points="246.081,547.817,7043.9,1672.11" stroke="rgb(0,255,131)" stroke-width="2" fill="none"></polyline>
<circle cx="1666.28" cy="427.68" r="4" stroke="rgb(153,255,0)" stroke-width="2" fill="none"></circle>
<circle cx="5862.67" cy="1517.8" r="4" stroke="rgb(153,255,0)" stroke-width="2" fill="none"></circle>
<circle cx="1052.25" cy="2888.44" r="4" stroke="rgb(182,255,0)" stroke-width="2" fill="none"></circle>
<circle cx="5882.35" cy="930.988" r="4" stroke="rgb(182,255,0)" stroke-width="2" fill="none"></circle>
<circle cx="1647.19" cy="1464.46" r="4" stroke="rgb(0,255,33)" stroke-width="2" fill="none"></circle>
<circle cx="6672.07" cy="1051.48" r="4" stroke="rgb(0,255,33)" stroke-width="2" fill="none"></circle>
<circle cx="1247.09" cy="1187.83" r="4" stroke="rgb(255,21,0)" stroke-width="2" fill="none"></circle>
<circle cx="7013.74" cy="1028.7" r="4" stroke="rgb(255,21,0)" stroke-width="2" fill="none"></circle>
<circle cx="878.979" cy="2081.09" r="4" stroke="rgb(255,0,46)" stroke-width="2" fill="none"></circle>
<circle cx="7023.93" cy="1033.94" r="4" stroke="rgb(255,0,46)" stroke-width="2" fill="none"></circle>
<circle cx="2780.74" cy="1537.21" r="4" stroke="rgb(255,0,63)" stroke-width="2" fill="none"></circle>
<circle cx="5886.23" cy="1831.34" r="4" stroke="rgb(255,0,63)" stroke-width="2" fill="none"></circle>
<circle cx="2185.12" cy="2021.58" r="4" stroke="rgb(0,255,220)" stroke-width="2" fill="none"></circle>
<circle cx="5855.84" cy="1604.9" r="4" stroke="rgb(0,255,220)" stroke-width="2" fill="none"></circle>
<circle cx="1009.86" cy="821.074" r="4" stroke="rgb(76,255,0)" stroke-width="2" fill="none"></circle>
<circle cx="7214.31" cy="1524.76" r="4" stroke="rgb(76,255,0)" stroke-width="2" fill="none"></circle>
<circle cx="1318.67" cy="547.522" r="4" stroke="rgb(225,0,255)" stroke-width="2" fill="none"></circle>
<circle cx="5678.57" cy="1700.95" r="4" stroke="rgb(225,0,255)" stroke-width="2" fill="none"></circle>
<circle cx="815.506" cy="529.704" r="4" stroke="rgb(255,208,0)" stroke-width="2" fill="none"></circle>
<circle cx="5431.2" cy="1340.81" r="4" stroke="rgb(255,208,0)" stroke-width="2" fill="none"></circle>
<circle cx="2988.68" cy="551.078" r="4" stroke="rgb(76,255,0)" stroke-width="2" fill="none"></circle>
<circle cx="5878.83" cy="1236.3" r="4" stroke="rgb(76,255,0)" stroke-width="2" fill="none"></circle>
<circle cx="1546.51" cy="1545.43" r="4" stroke="rgb(0,255,42)" stroke-width="2" fill="none"></circle>
<circle cx="5529.73" cy="1411.41" r="4" stroke="rgb(0,255,42)" stroke-width="2" fill="none"></circle>
<circle cx="1782.52" cy="1603.3" r="4" stroke="rgb(255,114,0)" stroke-width="2" fill="none"></circle>
<circle cx="6206.84" cy="1414.34" r="4" stroke="rgb(255,114,0)" stroke-width="2" fill="none"></circle>
<circle cx="2012.67" cy="523.615" r="4" stroke="rgb(0,255,106)" stroke-width="2" fill="none"></circle>
<circle cx="5700.3" cy="1744.93" r="4" stroke="rgb(0,255,106)" stroke-width="2" fill="none"></circle>
<circle cx="2191.25" cy="680.039" r="4" stroke="rgb(46,255,0)" stroke-width="2" fill="none"></circle>
<circle cx="5788.1" cy="1764.53" r="4" stroke="rgb(46,255,0)" stroke-width="2" fill="none"></circle>
<circle cx="1546.51" cy="1545.43" r="4" stroke="rgb(157,255,0)" stroke-width="2" fill="none"></circle>
<circle cx="5544.12" cy="1346.28" r="4" stroke="rgb(157,255,0)" stroke-width="2" fill="none"></circle>
<circle cx="1413.06" cy="360.606" r="4" stroke="rgb(140,255,0)" stroke-width="2" fill="none"></circle>
<circle cx="6737.23" cy="1483.83" r="4" stroke="rgb(140,255,0)" stroke-width="2" fill="none"></circle>
<circle cx="1647.19" cy="1464.46" r="4" stroke="rgb(0,255,195)" stroke-width="2" fill="none"></circle>
<circle cx="6899.6" cy="1489.87" r="4" stroke="rgb(0,255,195)" stroke-width="2" fill="none"></circle>
<circle cx="905.664" cy="2520.61" r="4" stroke="rgb(119,255,0)" stroke-width="2" fill="none"></circle>
<circle cx="6424.92" cy="2035.27" r="4" stroke="rgb(119,255,0)" stroke-width="2" fill="none"></circle>
<circle cx="2859.7" cy="489.743" r="4" stroke="rgb(0,157,255)" stroke-width="2" fill="none"></circle>
<circle cx="6069.42" cy="1509.55" r="4" stroke="rgb(0,157,255)" stroke-width="2" fill="none"></circle>
<circle cx="640.61" cy="889.841" r="4" stroke="rgb(0,255,169)" stroke-width="2" fill="none"></circle>
<circle cx="6654.26" cy="2121.73" r="4" stroke="rgb(0,255,169)" stroke-width="2" fill="none"></circle>
<circle cx="1604.78" cy="335.205" r="4" stroke="rgb(127,0,255)" stroke-width="2" fill="none"></circle>
<circle cx="5541.88" cy="1901.97" r="4" stroke="rgb(127,0,255)" stroke-width="2" fill="none"></circle>
<circle cx="1795.48" cy="362.489" r="4" stroke="rgb(0,255,42)" stroke-width="2" fill="none"></circle>
<circle cx="5281.6" cy="1393.51" r="4" stroke="rgb(0,255,42)" stroke-width="2" fill="none"></circle>
<circle cx="2760.64" cy="548.181" r="4" stroke="rgb(255,80,0)" stroke-width="2" fill="none"></circle>
<circle cx="7054.6" cy="1714.96" r="4" stroke="rgb(255,80,0)" stroke-width="2" fill="none"></circle>
<circle cx="2536.39" cy="1565.05" r="4" stroke="rgb(255,157,0)" stroke-width="2" fill="none"></circle>
<circle cx="6554.32" cy="1435.91" r="4" stroke="rgb(255,157,0)" stroke-width="2" fill="none"></circle>
<circle cx="1885.52" cy="629.883" r="4" stroke="rgb(0,212,255)" stroke-width="2" fill="none"></circle>
<circle cx="5791.28" cy="1775.79" r="4" stroke="rgb(0,212,255)" stroke-width="2" fill="none"></circle>
<circle cx="3122.26" cy="788.125" r="4" stroke="rgb(174,255,0)" stroke-width="2" fill="none"></circle>
<circle cx="6016.89" cy="1727.11" r="4" stroke="rgb(174,255,0)" stroke-width="2" fill="none"></circle>
<circle cx="1534.41" cy="362.335" r="4" stroke="rgb(169,255,0)" stroke-width="2" fill="none"></circle>
<circle cx="5985.3" cy="1477.45" r="4" stroke="rgb(169,255,0)" stroke-width="2" fill="none"></circle>
<circle cx="715.383" cy="246.914" r="4" stroke="rgb(255,0,165)" stroke-width="2" fill="none"></circle>
<circle cx="6125.03" cy="1970.8" r="4" stroke="rgb(255,0,165)" stroke-width="2" fill="none"></circle>
<circle cx="2166.18" cy="2096.96" r="4" stroke="rgb(255,148,0)" stroke-width="2" fill="none"></circle>
<circle cx="4982.07" cy="1710.87" r="4" stroke="rgb(255,148,0)" stroke-width="2" fill="none"></circle>
<circle cx="2166.18" cy="2096.96" r="4" stroke="rgb(0,255,195)" stroke-width="2" fill="none"></circle>
<circle cx="4981.56" cy="1711.11" r="4" stroke="rgb(0,255,195)" stroke-width="2" fill="none"></circle>
<circle cx="2051.6" cy="1964.63" r="4" stroke="rgb(157,0,255)" stroke-width="2" fill="none"></circle>
<circle cx="6406.92" cy="1715.17" r="4" stroke="rgb(157,0,255)" stroke-width="2" fill="none"></circle>
<circle cx="1611.58" cy="2547.87" r="4" stroke="rgb(33,255,0)" stroke-width="2" fill="none"></circle>
<circle cx="5743.96" cy="1666.19" r="4" stroke="rgb(33,255,0)" stroke-width="2" fill="none"></circle>
<circle cx="2114.86" cy="416.292" r="4" stroke="rgb(229,0,255)" stroke-width="2" fill="none"></circle>
<circle cx="5162.93" cy="458.657" r="4" stroke="rgb(229,0,255)" stroke-width="2" fill="none"></circle>
<circle cx="1757.35" cy="1576.79" r="4" stroke="rgb(0,255,144)" stroke-width="2" fill="none"></circle>
<circle cx="5999.04" cy="1607.1" r="4" stroke="rgb(0,255,144)" stroke-width="2" fill="none"></circle>
<circle cx="1609.34" cy="1914.12" r="4" stroke="rgb(255,0,114)" stroke-width="2" fill="none"></circle>
<circle cx="6256.74" cy="1134.29" r="4" stroke="rgb(255,0,114)" stroke-width="2" fill="none"></circle>
<circle cx="246.081" cy="547.817" r="4" stroke="rgb(0,255,131)" stroke-width="2" fill="none"></circle>
<circle cx="7043.9" cy="1672.11" r="4" stroke="rgb(0,255,131)" stroke-width="2" fill="none"></circle>
</svg>