<?xml version="1.0" standalone="yes"?>
<!-- SVG graphic -->
<svg xmlns='http://www.w3.org/2000/svg' xmlns:xlink='http://www.w3.org/1999/xlink'
width="8064px" height="3024px" preserveAspectRatio="xMinYMin meet" viewBox="0 0 8064 3024" version="1.1">
<image x="0" y="0" width="4032px" height="3024px" opacity="1" xlink:href="/home/jeong/Code/2D-to-3D-Modeling-using-AI/Make3D/Image/20200227_180620.jpg"/>
<image x="4032" y="0" width="4032px" height="3024px" opacity="1" xlink:href="/home/jeong/Code/2D-to-3D-Modeling-using-AI/Make3D/Image/20200227_180638.jpg"/>
<polyline points="1969.7,868.183,5996.33,1746.4" stroke="rgb(255,0,114)" stroke-width="2" fill="none"></polyline>
<polyline points="1647.4,2617.61,6122.04,1763.83" stroke="rgb(0,33,255)" stroke-width="2" fill="none"></polyline>
<polyline points="2039.45,687.002,6831.29,2119.12" stroke="rgb(0,255,212)" stroke-width="2" fill="none"></polyline>
<polyline points="1591.07,2352.05,6127.41,1770.24" stroke="rgb(0,255,63)" stroke-width="2" fill="none"></polyline>
<polyline points="1959.27,709.388,6042.09,1022.49" stroke="rgb(255,170,0)" stroke-width="2" fill="none"></polyline>
<polyline points="1436.83,1440.35,6831.12,1398.96" stroke="rgb(255,0,237)" stroke-width="2" fill="none"></polyline>
<polyline points="2604.83,898.524,6748.89,2208.97" stroke="rgb(59,255,0)" stroke-width="2" fill="none"></polyline>
<polyline points="1294.34,2204.12,5164.31,2241.01" stroke="rgb(0,101,255)" stroke-width="2" fill="none"></polyline>
<polyline points="1086.56,2247.94,5352.47,2354.15" stroke="rgb(25,0,255)" stroke-width="2" fill="none"></polyline>
<polyline points="2337.46,727.124,5154.36,2241.21" stroke="rgb(0,250,255)" stroke-width="2" fill="none"></polyline>
<polyline points="899.061,944.202,5383.4,1072.68" stroke="rgb(4,255,0)" stroke-width="2" fill="none"></polyline>
<polyline points="1546.64,1210.91,5336.52,1116.93" stroke="rgb(0,42,255)" stroke-width="2" fill="none"></polyline>
<polyline points="1501.48,1170.3,5753.75,1130.2" stroke="rgb(187,255,0)" stroke-width="2" fill="none"></polyline>
<polyline points="1501.48,1170.3,5753.75,1130.2" stroke="rgb(0,174,255)" stroke-width="2" fill="none"></polyline>
<polyline points="2274.43,2355.61,5503.67,1540.23" stroke="rgb(0,85,255)" stroke-width="2" fill="none"></polyline>
<polyline points="2442.79,1298.65,5048.01,1148.68" stroke="rgb(195,255,0)" stroke-width="2" fill="none"></polyline>
<polyline points="1064.13,777.887,5779.15,1562.68" stroke="rgb(0,174,255)" stroke-width="2" fill="none"></polyline>
<polyline points="1602.34,1329.58,5714.98,1587.05" stroke="rgb(153,255,0)" stroke-width="2" fill="none"></polyline>
<polyline points="1869.24,678.951,6171.18,1589.24" stroke="rgb(102,0,255)" stroke-width="2" fill="none"></polyline>
<polyline points="1407.36,1728.04,4713.71,1650.18" stroke="rgb(255,0,119)" stroke-width="2" fill="none"></polyline>
<polyline points="1785.46,508.074,6017.2,1695.14" stroke="rgb(255,63,0)" stroke-width="2" fill="none"></polyline>
<polyline points="2601.13,1178.25,4196.93,1223.65" stroke="rgb(0,255,72)" stroke-width="2" fill="none"></polyline>
<polyline points="1979.25,2257.6,5882.75,1714.07" stroke="rgb(170,0,255)" stroke-width="2" fill="none"></polyline>
<polyline points="892.292,688.648,5939.51,1233.98" stroke="rgb(140,0,255)" stroke-width="2" fill="none"></polyline>
<polyline points="1055.55,764.061,5275.43,1731.77" stroke="rgb(0,255,169)" stroke-width="2" fill="none"></polyline>
<polyline points="1918.44,703.776,5634.63,1238.27" stroke="rgb(255,0,89)" stroke-width="2" fill="none"></polyline>
<polyline points="2591.71,1855.97,5131.66,1245.45" stroke="rgb(0,0,255)" stroke-width="2" fill="none"></polyline>
<polyline points="2591.71,1855.97,5131.66,1245.45" stroke="rgb(140,255,0)" stroke-width="2" fill="none"></polyline>
<polyline points="1969.7,868.183,6032.91,1785.64" stroke="rgb(0,255,242)" stroke-width="2" fill="none"></polyline>
<polyline points="2177.78,1735.79,5756.14,1268.54" stroke="rgb(0,255,106)" stroke-width="2" fill="none"></polyline>
<polyline points="892.292,688.648,5962.12,1268.08" stroke="rgb(16,255,0)" stroke-width="2" fill="none"></polyline>
<polyline points="1220.32,726.167,5373.88,1263.95" stroke="rgb(0,255,127)" stroke-width="2" fill="none"></polyline>
<polyline points="1858.29,1150.64,6464.77,1285.64" stroke="rgb(38,0,255)" stroke-width="2" fill="none"></polyline>
<polyline points="1604.17,413.124,5197.66,1905.28" stroke="rgb(0,255,161)" stroke-width="2" fill="none"></polyline>
<polyline points="908.715,2606.12,5543.99,1304.81" stroke="rgb(0,255,157)" stroke-width="2" fill="none"></polyline>
<polyline points="2314.26,813.231,5982.25,1289.28" stroke="rgb(208,0,255)" stroke-width="2" fill="none"></polyline>
<polyline points="1249.79,1447.14,6346.55,1298.68" stroke="rgb(72,255,0)" stroke-width="2" fill="none"></polyline>
<polyline points="2064.14,2304.93,6635.32,1299.49" stroke="rgb(97,0,255)" stroke-width="2" fill="none"></polyline>
<polyline points="2064.14,2304.93,6635.32,1299.49" stroke="rgb(255,72,0)" stroke-width="2" fill="none"></polyline>
<polyline points="2064.14,2304.93,6585.2,1306.89" stroke="rgb(255,0,46)" stroke-width="2" fill="none"></polyline>
<polyline points="1206.73,308.037,6611.47,1344.87" stroke="rgb(148,255,0)" stroke-width="2" fill="none"></polyline>
<polyline points="2237.09,2256.51,5501.31,1433.82" stroke="rgb(0,255,67)" stroke-width="2" fill="none"></polyline>
<polyline points="1220.08,1316.46,5335.39,1373.07" stroke="rgb(119,255,0)" stroke-width="2" fill="none"></polyline>
<polyline points="892.292,688.648,6087.97,1469.6" stroke="rgb(255,140,0)" stroke-width="2" fill="none"></polyline>
<polyline points="2064.14,2304.93,6787.39,1484.12" stroke="rgb(255,0,106)" stroke-width="2" fill="none"></polyline>
<polyline points="892.292,688.648,6172.88,1673.01" stroke="rgb(255,0,204)" stroke-width="2" fill="none"></polyline>
<polyline points="1887.16,680.258,5968.38,1671.05" stroke="rgb(55,255,0)" stroke-width="2" fill="none"></polyline>
<polyline points="1238.9,1541.78,4821.16,1732.25" stroke="rgb(0,255,229)" stroke-width="2" fill="none"></polyline>
<polyline points="1238.9,1541.78,4821.16,1732.25" stroke="rgb(118,0,255)" stroke-width="2" fill="none"></polyline>
<polyline points="2335.35,1509.59,5741.84,1059.74" stroke="rgb(12,0,255)" stroke-width="2" fill="none"></polyline>
<polyline points="1526.19,928.748,5794.08,1840.86" stroke="rgb(255,80,0)" stroke-width="2" fill="none"></polyline>
<polyline points="1786.75,584.616,5647.34,1101.37" stroke="rgb(182,0,255)" stroke-width="2" fill="none"></polyline>
<polyline points="2237.09,2256.51,5501.05,1433.93" stroke="rgb(255,85,0)" stroke-width="2" fill="none"></polyline>
<polyline points="1786.75,584.616,5647.34,1101.37" stroke="rgb(0,255,216)" stroke-width="2" fill="none"></polyline>
<polyline points="1786.75,584.616,5598.4,1114.74" stroke="rgb(0,187,255)" stroke-width="2" fill="none"></polyline>
<polyline points="1021.81,781.547,5270.14,2640.3" stroke="rgb(255,225,0)" stroke-width="2" fill="none"></polyline>
<polyline points="629.992,559.295,4887.74,1512.76" stroke="rgb(0,255,127)" stroke-width="2" fill="none"></polyline>
<polyline points="2006.64,1972.62,6167.52,1127.67" stroke="rgb(255,0,221)" stroke-width="2" fill="none"></polyline>
<polyline points="1517.56,1269.38,5780.3,1673.31" stroke="rgb(255,51,0)" stroke-width="2" fill="none"></polyline>
<polyline points="1220.28,767.168,5777.32,1768.59" stroke="rgb(255,0,140)" stroke-width="2" fill="none"></polyline>
<polyline points="2008.08,2123.39,4921.22,1060.55" stroke="rgb(255,0,148)" stroke-width="2" fill="none"></polyline>
<polyline points="2567.95,1507.41,4486.81,941.837" stroke="rgb(255,4,0)" stroke-width="2" fill="none"></polyline>
<polyline points="1730.02,499.118,6564.78,1372.94" stroke="rgb(12,255,0)" stroke-width="2" fill="none"></polyline>
<polyline points="1066.59,636.983,5262.35,1880.96" stroke="rgb(0,110,255)" stroke-width="2" fill="none"></polyline>
<circle cx="1969.7" cy="868.183" r="4" stroke="rgb(255,0,114)" stroke-width="2" fill="none"></circle>
<circle cx="5996.33" cy="1746.4" r="4" stroke="rgb(255,0,114)" stroke-width="2" fill="none"></circle>
<circle cx="1647.4" cy="2617.61" r="4" stroke="rgb(0,33,255)" stroke-width="2" fill="none"></circle>
<circle cx="6122.04" cy="1763.83" r="4" stroke="rgb(0,33,255)" stroke-width="2" fill="none"></circle>
<circle cx="2039.45" cy="687.002" r="4" stroke="rgb(0,255,212)" stroke-width="2" fill="none"></circle>
<circle cx="6831.29" cy="2119.12" r="4" stroke="rgb(0,255,212)" stroke-width="2" fill="none"></circle>
<circle cx="1591.07" cy="2352.05" r="4" stroke="rgb(0,255,63)" stroke-width="2" fill="none"></circle>
<circle cx="6127.41" cy="1770.24" r="4" stroke="rgb(0,255,63)" stroke-width="2" fill="none"></circle>
<circle cx="1959.27" cy="709.388" r="4" stroke="rgb(255,170,0)" stroke-width="2" fill="none"></circle>
<circle cx="6042.09" cy="1022.49" r="4" stroke="rgb(255,170,0)" stroke-width="2" fill="none"></circle>
<circle cx="1436.83" cy="1440.35" r="4" stroke="rgb(255,0,237)" stroke-width="2" fill="none"></circle>
<circle cx="6831.12" cy="1398.96" r="4" stroke="rgb(255,0,237)" stroke-width="2" fill="none"></circle>
<circle cx="2604.83" cy="898.524" r="4" stroke="rgb(59,255,0)" stroke-width="2" fill="none"></circle>
<circle cx="6748.89" cy="2208.97" r="4" stroke="rgb(59,255,0)" stroke-width="2" fill="none"></circle>
<circle cx="1294.34" cy="2204.12" r="4" stroke="rgb(0,101,255)" stroke-width="2" fill="none"></circle>
<circle cx="5164.31" cy="2241.01" r="4" stroke="rgb(0,101,255)" stroke-width="2" fill="none"></circle>
<circle cx="1086.56" cy="2247.94" r="4" stroke="rgb(25,0,255)" stroke-width="2" fill="none"></circle>
<circle cx="5352.47" cy="2354.15" r="4" stroke="rgb(25,0,255)" stroke-width="2" fill="none"></circle>
<circle cx="2337.46" cy="727.124" r="4" stroke="rgb(0,250,255)" stroke-width="2" fill="none"></circle>
<circle cx="5154.36" cy="2241.21" r="4" stroke="rgb(0,250,255)" stroke-width="2" fill="none"></circle>
<circle cx="899.061" cy="944.202" r="4" stroke="rgb(4,255,0)" stroke-width="2" fill="none"></circle>
<circle cx="5383.4" cy="1072.68" r="4" stroke="rgb(4,255,0)" stroke-width="2" fill="none"></circle>
<circle cx="1546.64" cy="1210.91" r="4" stroke="rgb(0,42,255)" stroke-width="2" fill="none"></circle>
<circle cx="5336.52" cy="1116.93" r="4" stroke="rgb(0,42,255)" stroke-width="2" fill="none"></circle>
<circle cx="1501.48" cy="1170.3" r="4" stroke="rgb(187,255,0)" stroke-width="2" fill="none"></circle>
<circle cx="5753.75" cy="1130.2" r="4" stroke="rgb(187,255,0)" stroke-width="2" fill="none"></circle>
<circle cx="1501.48" cy="1170.3" r="4" stroke="rgb(0,174,255)" stroke-width="2" fill="none"></circle>
<circle cx="5753.75" cy="1130.2" r="4" stroke="rgb(0,174,255)" stroke-width="2" fill="none"></circle>
<circle cx="2274.43" cy="2355.61" r="4" stroke="rgb(0,85,255)" stroke-width="2" fill="none"></circle>
<circle cx="5503.67" cy="1540.23" r="4" stroke="rgb(0,85,255)" stroke-width="2" fill="none"></circle>
<circle cx="2442.79" cy="1298.65" r="4" stroke="rgb(195,255,0)" stroke-width="2" fill="none"></circle>
<circle cx="5048.01" cy="1148.68" r="4" stroke="rgb(195,255,0)" stroke-width="2" fill="none"></circle>
<circle cx="1064.13" cy="777.887" r="4" stroke="rgb(0,174,255)" stroke-width="2" fill="none"></circle>
<circle cx="5779.15" cy="1562.68" r="4" stroke="rgb(0,174,255)" stroke-width="2" fill="none"></circle>
<circle cx="1602.34" cy="1329.58" r="4" stroke="rgb(153,255,0)" stroke-width="2" fill="none"></circle>
<circle cx="5714.98" cy="1587.05" r="4" stroke="rgb(153,255,0)" stroke-width="2" fill="none"></circle>
<circle cx="1869.24" cy="678.951" r="4" stroke="rgb(102,0,255)" stroke-width="2" fill="none"></circle>
<circle cx="6171.18" cy="1589.24" r="4" stroke="rgb(102,0,255)" stroke-width="2" fill="none"></circle>
<circle cx="1407.36" cy="1728.04" r="4" stroke="rgb(255,0,119)" stroke-width="2" fill="none"></circle>
<circle cx="4713.71" cy="1650.18" r="4" stroke="rgb(255,0,119)" stroke-width="2" fill="none"></circle>
<circle cx="1785.46" cy="508.074" r="4" stroke="rgb(255,63,0)" stroke-width="2" fill="none"></circle>
<circle cx="6017.2" cy="1695.14" r="4" stroke="rgb(255,63,0)" stroke-width="2" fill="none"></circle>
<circle cx="2601.13" cy="1178.25" r="4" stroke="rgb(0,255,72)" stroke-width="2" fill="none"></circle>
<circle cx="4196.93" cy="1223.65" r="4" stroke="rgb(0,255,72)" stroke-width="2" fill="none"></circle>
<circle cx="1979.25" cy="2257.6" r="4" stroke="rgb(170,0,255)" stroke-width="2" fill="none"></circle>
<circle cx="5882.75" cy="1714.07" r="4" stroke="rgb(170,0,255)" stroke-width="2" fill="none"></circle>
<circle cx="892.292" cy="688.648" r="4" stroke="rgb(140,0,255)" stroke-width="2" fill="none"></circle>
<circle cx="5939.51" cy="1233.98" r="4" stroke="rgb(140,0,255)" stroke-width="2" fill="none"></circle>
<circle cx="1055.55" cy="764.061" r="4" stroke="rgb(0,255,169)" stroke-width="2" fill="none"></circle>
<circle cx="5275.43" cy="1731.77" r="4" stroke="rgb(0,255,169)" stroke-width="2" fill="none"></circle>
<circle cx="1918.44" cy="703.776" r="4" stroke="rgb(255,0,89)" stroke-width="2" fill="none"></circle>
<circle cx="5634.63" cy="1238.27" r="4" stroke="rgb(255,0,89)" stroke-width="2" fill="none"></circle>
<circle cx="2591.71" cy="1855.97" r="4" stroke="rgb(0,0,255)" stroke-width="2" fill="none"></circle>
<circle cx="5131.66" cy="1245.45" r="4" stroke="rgb(0,0,255)" stroke-width="2" fill="none"></circle>
<circle cx="2591.71" cy="1855.97" r="4" stroke="rgb(140,255,0)" stroke-width="2" fill="none"></circle>
<circle cx="5131.66" cy="1245.45" r="4" stroke="rgb(140,255,0)" stroke-width="2" fill="none"></circle>
<circle cx="1969.7" cy="868.183" r="4" stroke="rgb(0,255,242)" stroke-width="2" fill="none"></circle>
<circle cx="6032.91" cy="1785.64" r="4" stroke="rgb(0,255,242)" stroke-width="2" fill="none"></circle>
<circle cx="2177.78" cy="1735.79" r="4" stroke="rgb(0,255,106)" stroke-width="2" fill="none"></circle>
<circle cx="5756.14" cy="1268.54" r="4" stroke="rgb(0,255,106)" stroke-width="2" fill="none"></circle>
<circle cx="892.292" cy="688.648" r="4" stroke="rgb(16,255,0)" stroke-width="2" fill="none"></circle>
<circle cx="5962.12" cy="1268.08" r="4" stroke="rgb(16,255,0)" stroke-width="2" fill="none"></circle>
<circle cx="1220.32" cy="726.167" r="4" stroke="rgb(0,255,127)" stroke-width="2" fill="none"></circle>
<circle cx="5373.88" cy="1263.95" r="4" stroke="rgb(0,255,127)" stroke-width="2" fill="none"></circle>
<circle cx="1858.29" cy="1150.64" r="4" stroke="rgb(38,0,255)" stroke-width="2" fill="none"></circle>
<circle cx="6464.77" cy="1285.64" r="4" stroke="rgb(38,0,255)" stroke-width="2" fill="none"></circle>
<circle cx="1604.17" cy="413.124" r="4" stroke="rgb(0,255,161)" stroke-width="2" fill="none"></circle>
<circle cx="5197.66" cy="1905.28" r="4" stroke="rgb(0,255,161)" stroke-width="2" fill="none"></circle>
<circle cx="908.715" cy="2606.12" r="4" stroke="rgb(0,255,157)" stroke-width="2" fill="none"></circle>
<circle cx="5543.99" cy="1304.81" r="4" stroke="rgb(0,255,157)" stroke-width="2" fill="none"></circle>
<circle cx="2314.26" cy="813.231" r="4" stroke="rgb(208,0,255)" stroke-width="2" fill="none"></circle>
<circle cx="5982.25" cy="1289.28" r="4" stroke="rgb(208,0,255)" stroke-width="2" fill="none"></circle>
<circle cx="1249.79" cy="1447.14" r="4" stroke="rgb(72,255,0)" stroke-width="2" fill="none"></circle>
<circle cx="6346.55" cy="1298.68" r="4" stroke="rgb(72,255,0)" stroke-width="2" fill="none"></circle>
<circle cx="2064.14" cy="2304.93" r="4" stroke="rgb(97,0,255)" stroke-width="2" fill="none"></circle>
<circle cx="6635.32" cy="1299.49" r="4" stroke="rgb(97,0,255)" stroke-width="2" fill="none"></circle>
<circle cx="2064.14" cy="2304.93" r="4" stroke="rgb(255,72,0)" stroke-width="2" fill="none"></circle>
<circle cx="6635.32" cy="1299.49" r="4" stroke="rgb(255,72,0)" stroke-width="2" fill="none"></circle>
<circle cx="2064.14" cy="2304.93" r="4" stroke="rgb(255,0,46)" stroke-width="2" fill="none"></circle>
<circle cx="6585.2" cy="1306.89" r="4" stroke="rgb(255,0,46)" stroke-width="2" fill="none"></circle>
<circle cx="1206.73" cy="308.037" r="4" stroke="rgb(148,255,0)" stroke-width="2" fill="none"></circle>
<circle cx="6611.47" cy="1344.87" r="4" stroke="rgb(148,255,0)" stroke-width="2" fill="none"></circle>
<circle cx="2237.09" cy="2256.51" r="4" stroke="rgb(0,255,67)" stroke-width="2" fill="none"></circle>
<circle cx="5501.31" cy="1433.82" r="4" stroke="rgb(0,255,67)" stroke-width="2" fill="none"></circle>
<circle cx="1220.08" cy="1316.46" r="4" stroke="rgb(119,255,0)" stroke-width="2" fill="none"></circle>
<circle cx="5335.39" cy="1373.07" r="4" stroke="rgb(119,255,0)" stroke-width="2" fill="none"></circle>
<circle cx="892.292" cy="688.648" r="4" stroke="rgb(255,140,0)" stroke-width="2" fill="none"></circle>
<circle cx="6087.97" cy="1469.6" r="4" stroke="rgb(255,140,0)" stroke-width="2" fill="none"></circle>
<circle cx="2064.14" cy="2304.93" r="4" stroke="rgb(255,0,106)" stroke-width="2" fill="none"></circle>
<circle cx="6787.39" cy="1484.12" r="4" stroke="rgb(255,0,106)" stroke-width="2" fill="none"></circle>
<circle cx="892.292" cy="688.648" r="4" stroke="rgb(255,0,204)" stroke-width="2" fill="none"></circle>
<circle cx="6172.88" cy="1673.01" r="4" stroke="rgb(255,0,204)" stroke-width="2" fill="none"></circle>
<circle cx="1887.16" cy="680.258" r="4" stroke="rgb(55,255,0)" stroke-width="2" fill="none"></circle>
<circle cx="5968.38" cy="1671.05" r="4" stroke="rgb(55,255,0)" stroke-width="2" fill="none"></circle>
<circle cx="1238.9" cy="1541.78" r="4" stroke="rgb(0,255,229)" stroke-width="2" fill="none"></circle>
<circle cx="4821.16" cy="1732.25" r="4" stroke="rgb(0,255,229)" stroke-width="2" fill="none"></circle>
<circle cx="1238.9" cy="1541.78" r="4" stroke="rgb(118,0,255)" stroke-width="2" fill="none"></circle>
<circle cx="4821.16" cy="1732.25" r="4" stroke="rgb(118,0,255)" stroke-width="2" fill="none"></circle>
<circle cx="2335.35" cy="1509.59" r="4" stroke="rgb(12,0,255)" stroke-width="2" fill="none"></circle>
<circle cx="5741.84" cy="1059.74" r="4" stroke="rgb(12,0,255)" stroke-width="2" fill="none"></circle>
<circle cx="1526.19" cy="928.748" r="4" stroke="rgb(255,80,0)" stroke-width="2" fill="none"></circle>
<circle cx="5794.08" cy="1840.86" r="4" stroke="rgb(255,80,0)" stroke-width="2" fill="none"></circle>
<circle cx="1786.75" cy="584.616" r="4" stroke="rgb(182,0,255)" stroke-width="2" fill="none"></circle>
<circle cx="5647.34" cy="1101.37" r="4" stroke="rgb(182,0,255)" stroke-width="2" fill="none"></circle>
<circle cx="2237.09" cy="2256.51" r="4" stroke="rgb(255,85,0)" stroke-width="2" fill="none"></circle>
<circle cx="5501.05" cy="1433.93" r="4" stroke="rgb(255,85,0)" stroke-width="2" fill="none"></circle>
<circle cx="1786.75" cy="584.616" r="4" stroke="rgb(0,255,216)" stroke-width="2" fill="none"></circle>
<circle cx="5647.34" cy="1101.37" r="4" stroke="rgb(0,255,216)" stroke-width="2" fill="none"></circle>
<circle cx="1786.75" cy="584.616" r="4" stroke="rgb(0,187,255)" stroke-width="2" fill="none"></circle>
<circle cx="5598.4" cy="1114.74" r="4" stroke="rgb(0,187,255)" stroke-width="2" fill="none"></circle>
<circle cx="1021.81" cy="781.547" r="4" stroke="rgb(255,225,0)" stroke-width="2" fill="none"></circle>
<circle cx="5270.14" cy="2640.3" r="4" stroke="rgb(255,225,0)" stroke-width="2" fill="none"></circle>
<circle cx="629.992" cy="559.295" r="4" stroke="rgb(0,255,127)" stroke-width="2" fill="none"></circle>
<circle cx="4887.74" cy="1512.76" r="4" stroke="rgb(0,255,127)" stroke-width="2" fill="none"></circle>
<circle cx="2006.64" cy="1972.62" r="4" stroke="rgb(255,0,221)" stroke-width="2" fill="none"></circle>
<circle cx="6167.52" cy="1127.67" r="4" stroke="rgb(255,0,221)" stroke-width="2" fill="none"></circle>
<circle cx="1517.56" cy="1269.38" r="4" stroke="rgb(255,51,0)" stroke-width="2" fill="none"></circle>
<circle cx="5780.3" cy="1673.31" r="4" stroke="rgb(255,51,0)" stroke-width="2" fill="none"></circle>
<circle cx="1220.28" cy="767.168" r="4" stroke="rgb(255,0,140)" stroke-width="2" fill="none"></circle>
<circle cx="5777.32" cy="1768.59" r="4" stroke="rgb(255,0,140)" stroke-width="2" fill="none"></circle>
<circle cx="2008.08" cy="2123.39" r="4" stroke="rgb(255,0,148)" stroke-width="2" fill="none"></circle>
<circle cx="4921.22" cy="1060.55" r="4" stroke="rgb(255,0,148)" stroke-width="2" fill="none"></circle>
<circle cx="2567.95" cy="1507.41" r="4" stroke="rgb(255,4,0)" stroke-width="2" fill="none"></circle>
<circle cx="4486.81" cy="941.837" r="4" stroke="rgb(255,4,0)" stroke-width="2" fill="none"></circle>
<circle cx="1730.02" cy="499.118" r="4" stroke="rgb(12,255,0)" stroke-width="2" fill="none"></circle>
<circle cx="6564.78" cy="1372.94" r="4" stroke="rgb(12,255,0)" stroke-width="2" fill="none"></circle>
<circle cx="1066.59" cy="636.983" r="4" stroke="rgb(0,110,255)" stroke-width="2" fill="none"></circle>
<circle cx="5262.35" cy="1880.96" r="4" stroke="rgb(0,110,255)" stroke-width="2" fill="none"></circle>
</svg>