<?xml version="1.0" standalone="yes"?>
<!-- SVG graphic -->
<svg xmlns='http://www.w3.org/2000/svg' xmlns:xlink='http://www.w3.org/1999/xlink'
width="8064px" height="3024px" preserveAspectRatio="xMinYMin meet" viewBox="0 0 8064 3024" version="1.1">
<image x="0" y="0" width="4032px" height="3024px" opacity="1" xlink:href="/home/jeong/Code/2D-to-3D-Modeling-using-AI/Make3D/Image/20200227_180620.jpg"/>
<image x="4032" y="0" width="4032px" height="3024px" opacity="1" xlink:href="/home/jeong/Code/2D-to-3D-Modeling-using-AI/Make3D/Image/20200227_180653.jpg"/>
<polyline points="1081.53,328.24,5864.22,1904.79" stroke="rgb(255,199,0)" stroke-width="2" fill="none"></polyline>
<polyline points="1523.4,408.976,4902.98,1035.69" stroke="rgb(135,0,255)" stroke-width="2" fill="none"></polyline>
<polyline points="1534.23,421.7,5253.3,1288.35" stroke="rgb(0,255,123)" stroke-width="2" fill="none"></polyline>
<polyline points="1004.11,455.819,5124.42,1213.5" stroke="rgb(38,0,255)" stroke-width="2" fill="none"></polyline>
<polyline points="1732.72,480.27,5063.14,2155.5" stroke="rgb(191,255,0)" stroke-width="2" fill="none"></polyline>
<polyline points="1187.05,484.32,5116.97,1496.42" stroke="rgb(255,0,208)" stroke-width="2" fill="none"></polyline>
<polyline points="1170.74,498.603,5542.88,1117.01" stroke="rgb(0,203,255)" stroke-width="2" fill="none"></polyline>
<polyline points="1730.02,499.118,6332.05,1287.67" stroke="rgb(85,0,255)" stroke-width="2" fill="none"></polyline>
<polyline points="1364.28,515.688,5186.46,1239.26" stroke="rgb(186,0,255)" stroke-width="2" fill="none"></polyline>
<polyline points="1841.24,534.951,6203.64,2053.39" stroke="rgb(165,255,0)" stroke-width="2" fill="none"></polyline>
<polyline points="1732.1,561.896,5581.74,1918.88" stroke="rgb(0,255,237)" stroke-width="2" fill="none"></polyline>
<polyline points="1756.56,562.148,6485.41,1567.5" stroke="rgb(255,212,0)" stroke-width="2" fill="none"></polyline>
<polyline points="1897.14,577.028,6579.18,1792.27" stroke="rgb(0,255,55)" stroke-width="2" fill="none"></polyline>
<polyline points="1842.27,577.987,5615.21,1252.65" stroke="rgb(148,0,255)" stroke-width="2" fill="none"></polyline>
<polyline points="1786.75,584.616,5840.22,1407.31" stroke="rgb(255,246,0)" stroke-width="2" fill="none"></polyline>
<polyline points="1819.47,588.07,6217.64,1885.15" stroke="rgb(255,0,119)" stroke-width="2" fill="none"></polyline>
<polyline points="1210.94,601.82,5088.29,2129.85" stroke="rgb(0,250,255)" stroke-width="2" fill="none"></polyline>
<polyline points="1888.55,610.962,5455.01,1574.21" stroke="rgb(0,106,255)" stroke-width="2" fill="none"></polyline>
<polyline points="1066.59,636.983,4999.53,2047.73" stroke="rgb(8,0,255)" stroke-width="2" fill="none"></polyline>
<polyline points="1951.28,639.178,5737.09,1860.55" stroke="rgb(0,255,229)" stroke-width="2" fill="none"></polyline>
<polyline points="1476.16,644.975,5024.84,1722.42" stroke="rgb(0,233,255)" stroke-width="2" fill="none"></polyline>
<polyline points="1850.63,646.959,5782.27,1458.97" stroke="rgb(0,12,255)" stroke-width="2" fill="none"></polyline>
<polyline points="2062.3,655.557,5095.89,1157.83" stroke="rgb(0,123,255)" stroke-width="2" fill="none"></polyline>
<polyline points="1917.55,668.753,6046.94,1290.61" stroke="rgb(255,0,33)" stroke-width="2" fill="none"></polyline>
<polyline points="1110.32,673.651,5705.24,1940.78" stroke="rgb(0,255,38)" stroke-width="2" fill="none"></polyline>
<polyline points="1331.27,682.392,4898.6,1793.26" stroke="rgb(131,0,255)" stroke-width="2" fill="none"></polyline>
<polyline points="892.292,688.648,5628.05,694.569" stroke="rgb(255,208,0)" stroke-width="2" fill="none"></polyline>
<polyline points="2038.19,695.645,5815.4,1627.49" stroke="rgb(127,0,255)" stroke-width="2" fill="none"></polyline>
<polyline points="1903.5,699.993,5807.34,1678.38" stroke="rgb(0,161,255)" stroke-width="2" fill="none"></polyline>
<polyline points="2312.06,716.928,5208.58,1250.27" stroke="rgb(255,0,0)" stroke-width="2" fill="none"></polyline>
<polyline points="1100.36,727.309,5342.2,1625.39" stroke="rgb(0,255,152)" stroke-width="2" fill="none"></polyline>
<polyline points="2368.1,750.154,5218.77,1493.77" stroke="rgb(38,0,255)" stroke-width="2" fill="none"></polyline>
<polyline points="2003.78,770.715,5906.48,1203.45" stroke="rgb(0,255,106)" stroke-width="2" fill="none"></polyline>
<polyline points="1917.28,773.569,6337.19,1261.6" stroke="rgb(255,0,233)" stroke-width="2" fill="none"></polyline>
<polyline points="1929.04,776.872,5782.42,1629.23" stroke="rgb(255,42,0)" stroke-width="2" fill="none"></polyline>
<polyline points="2073.24,778.355,6106.08,1803.22" stroke="rgb(119,255,0)" stroke-width="2" fill="none"></polyline>
<polyline points="2007.39,779.033,5519.73,1856.98" stroke="rgb(0,255,33)" stroke-width="2" fill="none"></polyline>
<polyline points="2321.82,821.868,4998.85,1607.76" stroke="rgb(0,161,255)" stroke-width="2" fill="none"></polyline>
<polyline points="1519.22,837.551,6685.4,1385.29" stroke="rgb(255,0,33)" stroke-width="2" fill="none"></polyline>
<polyline points="2252.54,860.762,5953.14,1870.19" stroke="rgb(186,0,255)" stroke-width="2" fill="none"></polyline>
<polyline points="2070.78,863.238,5073.72,2131.11" stroke="rgb(0,255,148)" stroke-width="2" fill="none"></polyline>
<polyline points="2158.33,863.856,6195.94,1753.9" stroke="rgb(0,255,203)" stroke-width="2" fill="none"></polyline>
<polyline points="1051.78,863.91,6364.31,2007.67" stroke="rgb(255,0,110)" stroke-width="2" fill="none"></polyline>
<polyline points="1969.7,868.183,5599.01,1898.32" stroke="rgb(203,0,255)" stroke-width="2" fill="none"></polyline>
<polyline points="2021.77,872.671,5580.52,1097.7" stroke="rgb(255,0,187)" stroke-width="2" fill="none"></polyline>
<polyline points="2099.45,880.795,6647.11,1698.57" stroke="rgb(106,0,255)" stroke-width="2" fill="none"></polyline>
<polyline points="2246.91,880.865,6537.82,1694.55" stroke="rgb(0,255,50)" stroke-width="2" fill="none"></polyline>
<polyline points="2252.02,886.753,6400.98,824.645" stroke="rgb(0,255,72)" stroke-width="2" fill="none"></polyline>
<polyline points="1867.17,985.373,6565.03,1756.19" stroke="rgb(255,0,33)" stroke-width="2" fill="none"></polyline>
<polyline points="1549.09,1022.05,4845.26,1826.1" stroke="rgb(255,59,0)" stroke-width="2" fill="none"></polyline>
<polyline points="1080.77,1035.08,6165.08,2016.25" stroke="rgb(0,237,255)" stroke-width="2" fill="none"></polyline>
<polyline points="2026.19,1049.25,6428.1,815.231" stroke="rgb(0,255,242)" stroke-width="2" fill="none"></polyline>
<polyline points="1499.99,1068.39,6686.02,1363.82" stroke="rgb(0,255,12)" stroke-width="2" fill="none"></polyline>
<polyline points="1505.73,1098.25,6642.47,1512.2" stroke="rgb(114,0,255)" stroke-width="2" fill="none"></polyline>
<polyline points="2130.78,1129.5,6475.75,1244.84" stroke="rgb(0,255,208)" stroke-width="2" fill="none"></polyline>
<polyline points="1889.06,1133.17,5161.47,1579.25" stroke="rgb(50,0,255)" stroke-width="2" fill="none"></polyline>
<polyline points="2467.53,1150.98,5522.17,1397.46" stroke="rgb(0,255,246)" stroke-width="2" fill="none"></polyline>
<polyline points="1598.51,1170.27,4774.39,1871.27" stroke="rgb(123,255,0)" stroke-width="2" fill="none"></polyline>
<polyline points="2037.73,1179.02,6108.2,1872.84" stroke="rgb(255,148,0)" stroke-width="2" fill="none"></polyline>
<polyline points="2078.97,1206.07,6005.33,1145.32" stroke="rgb(255,85,0)" stroke-width="2" fill="none"></polyline>
<polyline points="1546.64,1210.91,6645.17,1487.51" stroke="rgb(255,0,157)" stroke-width="2" fill="none"></polyline>
<polyline points="1597.64,1246.19,6685.76,1393.68" stroke="rgb(0,208,255)" stroke-width="2" fill="none"></polyline>
<polyline points="1921.6,1251.05,6489.57,1238.06" stroke="rgb(0,255,93)" stroke-width="2" fill="none"></polyline>
<polyline points="2232.21,1258.51,5623.73,2074.25" stroke="rgb(51,255,0)" stroke-width="2" fill="none"></polyline>
<polyline points="2526.56,1262.13,6427.51,1370.14" stroke="rgb(255,34,0)" stroke-width="2" fill="none"></polyline>
<polyline points="2243.01,1281.45,6370.27,1609.96" stroke="rgb(255,102,0)" stroke-width="2" fill="none"></polyline>
<polyline points="1777.86,1281.58,6631.17,1421.99" stroke="rgb(0,169,255)" stroke-width="2" fill="none"></polyline>
<polyline points="2430.82,1282.36,6051.49,1750.18" stroke="rgb(0,255,67)" stroke-width="2" fill="none"></polyline>
<polyline points="1220.08,1316.46,5999.51,1458.6" stroke="rgb(0,55,255)" stroke-width="2" fill="none"></polyline>
<polyline points="1638.42,1318.6,6651.17,1384.27" stroke="rgb(0,203,255)" stroke-width="2" fill="none"></polyline>
<polyline points="2336.28,1329.26,5842.58,1245.51" stroke="rgb(221,0,255)" stroke-width="2" fill="none"></polyline>
<polyline points="1602.34,1329.58,6642.47,1512.2" stroke="rgb(59,0,255)" stroke-width="2" fill="none"></polyline>
<polyline points="2244.51,1348.95,5063.99,1185.18" stroke="rgb(0,29,255)" stroke-width="2" fill="none"></polyline>
<polyline points="1425.95,1359.14,5865.09,1246.33" stroke="rgb(0,255,80)" stroke-width="2" fill="none"></polyline>
<polyline points="1956.96,1359.4,6020.34,1320.64" stroke="rgb(0,242,255)" stroke-width="2" fill="none"></polyline>
<polyline points="1419.98,1368.85,6477.85,878.082" stroke="rgb(250,255,0)" stroke-width="2" fill="none"></polyline>
<polyline points="1427.08,1416,6660.22,1367.52" stroke="rgb(255,187,0)" stroke-width="2" fill="none"></polyline>
<polyline points="2180.34,1431.89,5552.63,1250.62" stroke="rgb(255,0,191)" stroke-width="2" fill="none"></polyline>
<polyline points="2093.94,1442.98,5241.98,1582.4" stroke="rgb(212,255,0)" stroke-width="2" fill="none"></polyline>
<polyline points="2097.28,1456.89,6685.18,1503.01" stroke="rgb(255,153,0)" stroke-width="2" fill="none"></polyline>
<polyline points="1555.02,1470.42,6653.81,1334.26" stroke="rgb(0,161,255)" stroke-width="2" fill="none"></polyline>
<polyline points="2267.79,1473.44,5809.05,1631.09" stroke="rgb(59,0,255)" stroke-width="2" fill="none"></polyline>
<polyline points="1567.86,1489.52,5814.21,1655.77" stroke="rgb(144,255,0)" stroke-width="2" fill="none"></polyline>
<polyline points="2731.07,1502.12,5093.59,1524.42" stroke="rgb(0,182,255)" stroke-width="2" fill="none"></polyline>
<polyline points="2335.35,1509.59,5000.83,1987.99" stroke="rgb(0,255,174)" stroke-width="2" fill="none"></polyline>
<polyline points="2309.05,1512.64,5843.03,1697.33" stroke="rgb(0,255,29)" stroke-width="2" fill="none"></polyline>
<polyline points="2132.89,1518.1,5885.8,1244.69" stroke="rgb(127,255,0)" stroke-width="2" fill="none"></polyline>
<polyline points="2586.87,1544.3,5458.26,1644.82" stroke="rgb(255,0,85)" stroke-width="2" fill="none"></polyline>
<polyline points="1277.13,1568.01,6135.12,1953.61" stroke="rgb(0,93,255)" stroke-width="2" fill="none"></polyline>
<polyline points="2152.7,1572.07,6546.3,1806.06" stroke="rgb(0,255,21)" stroke-width="2" fill="none"></polyline>
<polyline points="2207.64,1582.37,6470.15,1731.91" stroke="rgb(0,33,255)" stroke-width="2" fill="none"></polyline>
<polyline points="1690.76,1587.16,5026.8,1098.17" stroke="rgb(0,246,255)" stroke-width="2" fill="none"></polyline>
<polyline points="1332.12,1596.51,5470.79,1274.28" stroke="rgb(0,221,255)" stroke-width="2" fill="none"></polyline>
<polyline points="2187.34,1597.05,6544.97,1659.26" stroke="rgb(255,59,0)" stroke-width="2" fill="none"></polyline>
<polyline points="1308.44,1619.61,4965.14,2041.28" stroke="rgb(0,255,178)" stroke-width="2" fill="none"></polyline>
<polyline points="2379.75,1631.01,6230.01,1857.65" stroke="rgb(0,187,255)" stroke-width="2" fill="none"></polyline>
<polyline points="2078.26,1646.47,6663.31,1458.21" stroke="rgb(255,165,0)" stroke-width="2" fill="none"></polyline>
<polyline points="1222.19,1665.06,6571.99,879.646" stroke="rgb(0,21,255)" stroke-width="2" fill="none"></polyline>
<polyline points="2192.51,1666.62,6537.39,1769.43" stroke="rgb(0,153,255)" stroke-width="2" fill="none"></polyline>
<polyline points="2179.53,1672.01,6277.5,1590.47" stroke="rgb(0,255,76)" stroke-width="2" fill="none"></polyline>
<polyline points="2193.8,1674.23,6375.9,1572.34" stroke="rgb(250,0,255)" stroke-width="2" fill="none"></polyline>
<polyline points="2204.14,1705.79,5946.68,1198.84" stroke="rgb(0,255,67)" stroke-width="2" fill="none"></polyline>
<polyline points="2088.87,1725.4,6392.95,1871.32" stroke="rgb(255,136,0)" stroke-width="2" fill="none"></polyline>
<polyline points="2178.33,1751.73,5912.92,1759.14" stroke="rgb(0,255,220)" stroke-width="2" fill="none"></polyline>
<polyline points="1693.55,1752.98,5296.38,1531.93" stroke="rgb(148,0,255)" stroke-width="2" fill="none"></polyline>
<polyline points="2128.94,1754.29,5739.25,1575.7" stroke="rgb(140,255,0)" stroke-width="2" fill="none"></polyline>
<polyline points="2117.42,1757.79,6350.89,1467.6" stroke="rgb(63,255,0)" stroke-width="2" fill="none"></polyline>
<polyline points="2170.03,1760.14,5920.79,1491.93" stroke="rgb(0,208,255)" stroke-width="2" fill="none"></polyline>
<polyline points="2027.93,1842.58,5759.15,1629.04" stroke="rgb(148,0,255)" stroke-width="2" fill="none"></polyline>
<polyline points="2057.14,1863.28,5420.98,1870.23" stroke="rgb(0,255,237)" stroke-width="2" fill="none"></polyline>
<polyline points="2358.7,1868.99,5941.24,1622.92" stroke="rgb(84,255,0)" stroke-width="2" fill="none"></polyline>
<polyline points="2066.09,1869.03,4933.23,1776.54" stroke="rgb(255,0,46)" stroke-width="2" fill="none"></polyline>
<polyline points="2060.47,1875.92,5973.5,1484.68" stroke="rgb(255,0,246)" stroke-width="2" fill="none"></polyline>
<polyline points="2186.54,1915,5455.59,1317.85" stroke="rgb(0,229,255)" stroke-width="2" fill="none"></polyline>
<polyline points="2705.52,1924.27,5897.5,1134.27" stroke="rgb(0,229,255)" stroke-width="2" fill="none"></polyline>
<polyline points="2078.31,1947.85,5245.78,1638.4" stroke="rgb(67,255,0)" stroke-width="2" fill="none"></polyline>
<polyline points="1335.12,1957.29,5792.15,1164.59" stroke="rgb(255,0,199)" stroke-width="2" fill="none"></polyline>
<polyline points="1954.83,2030.82,5893.23,1277.45" stroke="rgb(153,0,255)" stroke-width="2" fill="none"></polyline>
<polyline points="2023.91,2109.82,5833.8,1725.09" stroke="rgb(255,0,187)" stroke-width="2" fill="none"></polyline>
<polyline points="2295.18,2128.72,5926.66,1527.9" stroke="rgb(255,187,0)" stroke-width="2" fill="none"></polyline>
<polyline points="2043.55,2164.48,5955,1786.78" stroke="rgb(140,0,255)" stroke-width="2" fill="none"></polyline>
<polyline points="2048.27,2166.23,5591.54,1704.41" stroke="rgb(0,221,255)" stroke-width="2" fill="none"></polyline>
<polyline points="2057.21,2167.19,5898.75,1562.42" stroke="rgb(93,255,0)" stroke-width="2" fill="none"></polyline>
<polyline points="2062.37,2179.98,6476.25,1320.2" stroke="rgb(80,255,0)" stroke-width="2" fill="none"></polyline>
<polyline points="1010.23,2212.44,5136.17,1213.76" stroke="rgb(191,255,0)" stroke-width="2" fill="none"></polyline>
<polyline points="2086.75,2226.19,5673.89,1988.53" stroke="rgb(0,255,50)" stroke-width="2" fill="none"></polyline>
<polyline points="1998.56,2228.18,5496.36,1358.49" stroke="rgb(0,255,208)" stroke-width="2" fill="none"></polyline>
<polyline points="1957.74,2229.11,5855.98,1202.55" stroke="rgb(255,0,59)" stroke-width="2" fill="none"></polyline>
<polyline points="1955.93,2235.64,6245.51,1904.31" stroke="rgb(255,29,0)" stroke-width="2" fill="none"></polyline>
<polyline points="1977.82,2242.34,5013.17,1991.7" stroke="rgb(255,55,0)" stroke-width="2" fill="none"></polyline>
<polyline points="2082.65,2246.09,6388.66,1843.99" stroke="rgb(0,255,16)" stroke-width="2" fill="none"></polyline>
<polyline points="2254.99,2268.61,6351.8,1909.31" stroke="rgb(255,0,225)" stroke-width="2" fill="none"></polyline>
<polyline points="2251.11,2279.08,4739.14,1867.38" stroke="rgb(0,255,127)" stroke-width="2" fill="none"></polyline>
<polyline points="2006.75,2351.56,5686.73,2062.59" stroke="rgb(255,119,0)" stroke-width="2" fill="none"></polyline>
<polyline points="1666.05,2353.9,5760.63,1953.34" stroke="rgb(255,0,38)" stroke-width="2" fill="none"></polyline>
<polyline points="1639.95,2355.52,5599.01,1898.32" stroke="rgb(242,0,255)" stroke-width="2" fill="none"></polyline>
<polyline points="1571.09,2360.72,5713.19,1258.23" stroke="rgb(16,255,0)" stroke-width="2" fill="none"></polyline>
<polyline points="1665.33,2365.95,5806.84,1967.13" stroke="rgb(97,255,0)" stroke-width="2" fill="none"></polyline>
<polyline points="2011.77,2427.66,6058.82,1154.92" stroke="rgb(0,255,38)" stroke-width="2" fill="none"></polyline>
<polyline points="1669.51,2455.84,5919.99,1429.4" stroke="rgb(255,131,0)" stroke-width="2" fill="none"></polyline>
<polyline points="1864.04,2494.61,6516.36,874.384" stroke="rgb(0,255,106)" stroke-width="2" fill="none"></polyline>
<polyline points="1647.4,2617.61,5360.08,838.445" stroke="rgb(80,255,0)" stroke-width="2" fill="none"></polyline>
<polyline points="1381.95,2691.54,5361.75,1402.67" stroke="rgb(255,85,0)" stroke-width="2" fill="none"></polyline>
<circle cx="1081.53" cy="328.24" r="4" stroke="rgb(255,199,0)" stroke-width="2" fill="none"></circle>
<circle cx="5864.22" cy="1904.79" r="4" stroke="rgb(255,199,0)" stroke-width="2" fill="none"></circle>
<circle cx="1523.4" cy="408.976" r="4" stroke="rgb(135,0,255)" stroke-width="2" fill="none"></circle>
<circle cx="4902.98" cy="1035.69" r="4" stroke="rgb(135,0,255)" stroke-width="2" fill="none"></circle>
<circle cx="1534.23" cy="421.7" r="4" stroke="rgb(0,255,123)" stroke-width="2" fill="none"></circle>
<circle cx="5253.3" cy="1288.35" r="4" stroke="rgb(0,255,123)" stroke-width="2" fill="none"></circle>
<circle cx="1004.11" cy="455.819" r="4" stroke="rgb(38,0,255)" stroke-width="2" fill="none"></circle>
<circle cx="5124.42" cy="1213.5" r="4" stroke="rgb(38,0,255)" stroke-width="2" fill="none"></circle>
<circle cx="1732.72" cy="480.27" r="4" stroke="rgb(191,255,0)" stroke-width="2" fill="none"></circle>
<circle cx="5063.14" cy="2155.5" r="4" stroke="rgb(191,255,0)" stroke-width="2" fill="none"></circle>
<circle cx="1187.05" cy="484.32" r="4" stroke="rgb(255,0,208)" stroke-width="2" fill="none"></circle>
<circle cx="5116.97" cy="1496.42" r="4" stroke="rgb(255,0,208)" stroke-width="2" fill="none"></circle>
<circle cx="1170.74" cy="498.603" r="4" stroke="rgb(0,203,255)" stroke-width="2" fill="none"></circle>
<circle cx="5542.88" cy="1117.01" r="4" stroke="rgb(0,203,255)" stroke-width="2" fill="none"></circle>
<circle cx="1730.02" cy="499.118" r="4" stroke="rgb(85,0,255)" stroke-width="2" fill="none"></circle>
<circle cx="6332.05" cy="1287.67" r="4" stroke="rgb(85,0,255)" stroke-width="2" fill="none"></circle>
<circle cx="1364.28" cy="515.688" r="4" stroke="rgb(186,0,255)" stroke-width="2" fill="none"></circle>
<circle cx="5186.46" cy="1239.26" r="4" stroke="rgb(186,0,255)" stroke-width="2" fill="none"></circle>
<circle cx="1841.24" cy="534.951" r="4" stroke="rgb(165,255,0)" stroke-width="2" fill="none"></circle>
<circle cx="6203.64" cy="2053.39" r="4" stroke="rgb(165,255,0)" stroke-width="2" fill="none"></circle>
<circle cx="1732.1" cy="561.896" r="4" stroke="rgb(0,255,237)" stroke-width="2" fill="none"></circle>
<circle cx="5581.74" cy="1918.88" r="4" stroke="rgb(0,255,237)" stroke-width="2" fill="none"></circle>
<circle cx="1756.56" cy="562.148" r="4" stroke="rgb(255,212,0)" stroke-width="2" fill="none"></circle>
<circle cx="6485.41" cy="1567.5" r="4" stroke="rgb(255,212,0)" stroke-width="2" fill="none"></circle>
<circle cx="1897.14" cy="577.028" r="4" stroke="rgb(0,255,55)" stroke-width="2" fill="none"></circle>
<circle cx="6579.18" cy="1792.27" r="4" stroke="rgb(0,255,55)" stroke-width="2" fill="none"></circle>
<circle cx="1842.27" cy="577.987" r="4" stroke="rgb(148,0,255)" stroke-width="2" fill="none"></circle>
<circle cx="5615.21" cy="1252.65" r="4" stroke="rgb(148,0,255)" stroke-width="2" fill="none"></circle>
<circle cx="1786.75" cy="584.616" r="4" stroke="rgb(255,246,0)" stroke-width="2" fill="none"></circle>
<circle cx="5840.22" cy="1407.31" r="4" stroke="rgb(255,246,0)" stroke-width="2" fill="none"></circle>
<circle cx="1819.47" cy="588.07" r="4" stroke="rgb(255,0,119)" stroke-width="2" fill="none"></circle>
<circle cx="6217.64" cy="1885.15" r="4" stroke="rgb(255,0,119)" stroke-width="2" fill="none"></circle>
<circle cx="1210.94" cy="601.82" r="4" stroke="rgb(0,250,255)" stroke-width="2" fill="none"></circle>
<circle cx="5088.29" cy="2129.85" r="4" stroke="rgb(0,250,255)" stroke-width="2" fill="none"></circle>
<circle cx="1888.55" cy="610.962" r="4" stroke="rgb(0,106,255)" stroke-width="2" fill="none"></circle>
<circle cx="5455.01" cy="1574.21" r="4" stroke="rgb(0,106,255)" stroke-width="2" fill="none"></circle>
<circle cx="1066.59" cy="636.983" r="4" stroke="rgb(8,0,255)" stroke-width="2" fill="none"></circle>
<circle cx="4999.53" cy="2047.73" r="4" stroke="rgb(8,0,255)" stroke-width="2" fill="none"></circle>
<circle cx="1951.28" cy="639.178" r="4" stroke="rgb(0,255,229)" stroke-width="2" fill="none"></circle>
<circle cx="5737.09" cy="1860.55" r="4" stroke="rgb(0,255,229)" stroke-width="2" fill="none"></circle>
<circle cx="1476.16" cy="644.975" r="4" stroke="rgb(0,233,255)" stroke-width="2" fill="none"></circle>
<circle cx="5024.84" cy="1722.42" r="4" stroke="rgb(0,233,255)" stroke-width="2" fill="none"></circle>
<circle cx="1850.63" cy="646.959" r="4" stroke="rgb(0,12,255)" stroke-width="2" fill="none"></circle>
<circle cx="5782.27" cy="1458.97" r="4" stroke="rgb(0,12,255)" stroke-width="2" fill="none"></circle>
<circle cx="2062.3" cy="655.557" r="4" stroke="rgb(0,123,255)" stroke-width="2" fill="none"></circle>
<circle cx="5095.89" cy="1157.83" r="4" stroke="rgb(0,123,255)" stroke-width="2" fill="none"></circle>
<circle cx="1917.55" cy="668.753" r="4" stroke="rgb(255,0,33)" stroke-width="2" fill="none"></circle>
<circle cx="6046.94" cy="1290.61" r="4" stroke="rgb(255,0,33)" stroke-width="2" fill="none"></circle>
<circle cx="1110.32" cy="673.651" r="4" stroke="rgb(0,255,38)" stroke-width="2" fill="none"></circle>
<circle cx="5705.24" cy="1940.78" r="4" stroke="rgb(0,255,38)" stroke-width="2" fill="none"></circle>
<circle cx="1331.27" cy="682.392" r="4" stroke="rgb(131,0,255)" stroke-width="2" fill="none"></circle>
<circle cx="4898.6" cy="1793.26" r="4" stroke="rgb(131,0,255)" stroke-width="2" fill="none"></circle>
<circle cx="892.292" cy="688.648" r="4" stroke="rgb(255,208,0)" stroke-width="2" fill="none"></circle>
<circle cx="5628.05" cy="694.569" r="4" stroke="rgb(255,208,0)" stroke-width="2" fill="none"></circle>
<circle cx="2038.19" cy="695.645" r="4" stroke="rgb(127,0,255)" stroke-width="2" fill="none"></circle>
<circle cx="5815.4" cy="1627.49" r="4" stroke="rgb(127,0,255)" stroke-width="2" fill="none"></circle>
<circle cx="1903.5" cy="699.993" r="4" stroke="rgb(0,161,255)" stroke-width="2" fill="none"></circle>
<circle cx="5807.34" cy="1678.38" r="4" stroke="rgb(0,161,255)" stroke-width="2" fill="none"></circle>
<circle cx="2312.06" cy="716.928" r="4" stroke="rgb(255,0,0)" stroke-width="2" fill="none"></circle>
<circle cx="5208.58" cy="1250.27" r="4" stroke="rgb(255,0,0)" stroke-width="2" fill="none"></circle>
<circle cx="1100.36" cy="727.309" r="4" stroke="rgb(0,255,152)" stroke-width="2" fill="none"></circle>
<circle cx="5342.2" cy="1625.39" r="4" stroke="rgb(0,255,152)" stroke-width="2" fill="none"></circle>
<circle cx="2368.1" cy="750.154" r="4" stroke="rgb(38,0,255)" stroke-width="2" fill="none"></circle>
<circle cx="5218.77" cy="1493.77" r="4" stroke="rgb(38,0,255)" stroke-width="2" fill="none"></circle>
<circle cx="2003.78" cy="770.715" r="4" stroke="rgb(0,255,106)" stroke-width="2" fill="none"></circle>
<circle cx="5906.48" cy="1203.45" r="4" stroke="rgb(0,255,106)" stroke-width="2" fill="none"></circle>
<circle cx="1917.28" cy="773.569" r="4" stroke="rgb(255,0,233)" stroke-width="2" fill="none"></circle>
<circle cx="6337.19" cy="1261.6" r="4" stroke="rgb(255,0,233)" stroke-width="2" fill="none"></circle>
<circle cx="1929.04" cy="776.872" r="4" stroke="rgb(255,42,0)" stroke-width="2" fill="none"></circle>
<circle cx="5782.42" cy="1629.23" r="4" stroke="rgb(255,42,0)" stroke-width="2" fill="none"></circle>
<circle cx="2073.24" cy="778.355" r="4" stroke="rgb(119,255,0)" stroke-width="2" fill="none"></circle>
<circle cx="6106.08" cy="1803.22" r="4" stroke="rgb(119,255,0)" stroke-width="2" fill="none"></circle>
<circle cx="2007.39" cy="779.033" r="4" stroke="rgb(0,255,33)" stroke-width="2" fill="none"></circle>
<circle cx="5519.73" cy="1856.98" r="4" stroke="rgb(0,255,33)" stroke-width="2" fill="none"></circle>
<circle cx="2321.82" cy="821.868" r="4" stroke="rgb(0,161,255)" stroke-width="2" fill="none"></circle>
<circle cx="4998.85" cy="1607.76" r="4" stroke="rgb(0,161,255)" stroke-width="2" fill="none"></circle>
<circle cx="1519.22" cy="837.551" r="4" stroke="rgb(255,0,33)" stroke-width="2" fill="none"></circle>
<circle cx="6685.4" cy="1385.29" r="4" stroke="rgb(255,0,33)" stroke-width="2" fill="none"></circle>
<circle cx="2252.54" cy="860.762" r="4" stroke="rgb(186,0,255)" stroke-width="2" fill="none"></circle>
<circle cx="5953.14" cy="1870.19" r="4" stroke="rgb(186,0,255)" stroke-width="2" fill="none"></circle>
<circle cx="2070.78" cy="863.238" r="4" stroke="rgb(0,255,148)" stroke-width="2" fill="none"></circle>
<circle cx="5073.72" cy="2131.11" r="4" stroke="rgb(0,255,148)" stroke-width="2" fill="none"></circle>
<circle cx="2158.33" cy="863.856" r="4" stroke="rgb(0,255,203)" stroke-width="2" fill="none"></circle>
<circle cx="6195.94" cy="1753.9" r="4" stroke="rgb(0,255,203)" stroke-width="2" fill="none"></circle>
<circle cx="1051.78" cy="863.91" r="4" stroke="rgb(255,0,110)" stroke-width="2" fill="none"></circle>
<circle cx="6364.31" cy="2007.67" r="4" stroke="rgb(255,0,110)" stroke-width="2" fill="none"></circle>
<circle cx="1969.7" cy="868.183" r="4" stroke="rgb(203,0,255)" stroke-width="2" fill="none"></circle>
<circle cx="5599.01" cy="1898.32" r="4" stroke="rgb(203,0,255)" stroke-width="2" fill="none"></circle>
<circle cx="2021.77" cy="872.671" r="4" stroke="rgb(255,0,187)" stroke-width="2" fill="none"></circle>
<circle cx="5580.52" cy="1097.7" r="4" stroke="rgb(255,0,187)" stroke-width="2" fill="none"></circle>
<circle cx="2099.45" cy="880.795" r="4" stroke="rgb(106,0,255)" stroke-width="2" fill="none"></circle>
<circle cx="6647.11" cy="1698.57" r="4" stroke="rgb(106,0,255)" stroke-width="2" fill="none"></circle>
<circle cx="2246.91" cy="880.865" r="4" stroke="rgb(0,255,50)" stroke-width="2" fill="none"></circle>
<circle cx="6537.82" cy="1694.55" r="4" stroke="rgb(0,255,50)" stroke-width="2" fill="none"></circle>
<circle cx="2252.02" cy="886.753" r="4" stroke="rgb(0,255,72)" stroke-width="2" fill="none"></circle>
<circle cx="6400.98" cy="824.645" r="4" stroke="rgb(0,255,72)" stroke-width="2" fill="none"></circle>
<circle cx="1867.17" cy="985.373" r="4" stroke="rgb(255,0,33)" stroke-width="2" fill="none"></circle>
<circle cx="6565.03" cy="1756.19" r="4" stroke="rgb(255,0,33)" stroke-width="2" fill="none"></circle>
<circle cx="1549.09" cy="1022.05" r="4" stroke="rgb(255,59,0)" stroke-width="2" fill="none"></circle>
<circle cx="4845.26" cy="1826.1" r="4" stroke="rgb(255,59,0)" stroke-width="2" fill="none"></circle>
<circle cx="1080.77" cy="1035.08" r="4" stroke="rgb(0,237,255)" stroke-width="2" fill="none"></circle>
<circle cx="6165.08" cy="2016.25" r="4" stroke="rgb(0,237,255)" stroke-width="2" fill="none"></circle>
<circle cx="2026.19" cy="1049.25" r="4" stroke="rgb(0,255,242)" stroke-width="2" fill="none"></circle>
<circle cx="6428.1" cy="815.231" r="4" stroke="rgb(0,255,242)" stroke-width="2" fill="none"></circle>
<circle cx="1499.99" cy="1068.39" r="4" stroke="rgb(0,255,12)" stroke-width="2" fill="none"></circle>
<circle cx="6686.02" cy="1363.82" r="4" stroke="rgb(0,255,12)" stroke-width="2" fill="none"></circle>
<circle cx="1505.73" cy="1098.25" r="4" stroke="rgb(114,0,255)" stroke-width="2" fill="none"></circle>
<circle cx="6642.47" cy="1512.2" r="4" stroke="rgb(114,0,255)" stroke-width="2" fill="none"></circle>
<circle cx="2130.78" cy="1129.5" r="4" stroke="rgb(0,255,208)" stroke-width="2" fill="none"></circle>
<circle cx="6475.75" cy="1244.84" r="4" stroke="rgb(0,255,208)" stroke-width="2" fill="none"></circle>
<circle cx="1889.06" cy="1133.17" r="4" stroke="rgb(50,0,255)" stroke-width="2" fill="none"></circle>
<circle cx="5161.47" cy="1579.25" r="4" stroke="rgb(50,0,255)" stroke-width="2" fill="none"></circle>
<circle cx="2467.53" cy="1150.98" r="4" stroke="rgb(0,255,246)" stroke-width="2" fill="none"></circle>
<circle cx="5522.17" cy="1397.46" r="4" stroke="rgb(0,255,246)" stroke-width="2" fill="none"></circle>
<circle cx="1598.51" cy="1170.27" r="4" stroke="rgb(123,255,0)" stroke-width="2" fill="none"></circle>
<circle cx="4774.39" cy="1871.27" r="4" stroke="rgb(123,255,0)" stroke-width="2" fill="none"></circle>
<circle cx="2037.73" cy="1179.02" r="4" stroke="rgb(255,148,0)" stroke-width="2" fill="none"></circle>
<circle cx="6108.2" cy="1872.84" r="4" stroke="rgb(255,148,0)" stroke-width="2" fill="none"></circle>
<circle cx="2078.97" cy="1206.07" r="4" stroke="rgb(255,85,0)" stroke-width="2" fill="none"></circle>
<circle cx="6005.33" cy="1145.32" r="4" stroke="rgb(255,85,0)" stroke-width="2" fill="none"></circle>
<circle cx="1546.64" cy="1210.91" r="4" stroke="rgb(255,0,157)" stroke-width="2" fill="none"></circle>
<circle cx="6645.17" cy="1487.51" r="4" stroke="rgb(255,0,157)" stroke-width="2" fill="none"></circle>
<circle cx="1597.64" cy="1246.19" r="4" stroke="rgb(0,208,255)" stroke-width="2" fill="none"></circle>
<circle cx="6685.76" cy="1393.68" r="4" stroke="rgb(0,208,255)" stroke-width="2" fill="none"></circle>
<circle cx="1921.6" cy="1251.05" r="4" stroke="rgb(0,255,93)" stroke-width="2" fill="none"></circle>
<circle cx="6489.57" cy="1238.06" r="4" stroke="rgb(0,255,93)" stroke-width="2" fill="none"></circle>
<circle cx="2232.21" cy="1258.51" r="4" stroke="rgb(51,255,0)" stroke-width="2" fill="none"></circle>
<circle cx="5623.73" cy="2074.25" r="4" stroke="rgb(51,255,0)" stroke-width="2" fill="none"></circle>
<circle cx="2526.56" cy="1262.13" r="4" stroke="rgb(255,34,0)" stroke-width="2" fill="none"></circle>
<circle cx="6427.51" cy="1370.14" r="4" stroke="rgb(255,34,0)" stroke-width="2" fill="none"></circle>
<circle cx="2243.01" cy="1281.45" r="4" stroke="rgb(255,102,0)" stroke-width="2" fill="none"></circle>
<circle cx="6370.27" cy="1609.96" r="4" stroke="rgb(255,102,0)" stroke-width="2" fill="none"></circle>
<circle cx="1777.86" cy="1281.58" r="4" stroke="rgb(0,169,255)" stroke-width="2" fill="none"></circle>
<circle cx="6631.17" cy="1421.99" r="4" stroke="rgb(0,169,255)" stroke-width="2" fill="none"></circle>
<circle cx="2430.82" cy="1282.36" r="4" stroke="rgb(0,255,67)" stroke-width="2" fill="none"></circle>
<circle cx="6051.49" cy="1750.18" r="4" stroke="rgb(0,255,67)" stroke-width="2" fill="none"></circle>
<circle cx="1220.08" cy="1316.46" r="4" stroke="rgb(0,55,255)" stroke-width="2" fill="none"></circle>
<circle cx="5999.51" cy="1458.6" r="4" stroke="rgb(0,55,255)" stroke-width="2" fill="none"></circle>
<circle cx="1638.42" cy="1318.6" r="4" stroke="rgb(0,203,255)" stroke-width="2" fill="none"></circle>
<circle cx="6651.17" cy="1384.27" r="4" stroke="rgb(0,203,255)" stroke-width="2" fill="none"></circle>
<circle cx="2336.28" cy="1329.26" r="4" stroke="rgb(221,0,255)" stroke-width="2" fill="none"></circle>
<circle cx="5842.58" cy="1245.51" r="4" stroke="rgb(221,0,255)" stroke-width="2" fill="none"></circle>
<circle cx="1602.34" cy="1329.58" r="4" stroke="rgb(59,0,255)" stroke-width="2" fill="none"></circle>
<circle cx="6642.47" cy="1512.2" r="4" stroke="rgb(59,0,255)" stroke-width="2" fill="none"></circle>
<circle cx="2244.51" cy="1348.95" r="4" stroke="rgb(0,29,255)" stroke-width="2" fill="none"></circle>
<circle cx="5063.99" cy="1185.18" r="4" stroke="rgb(0,29,255)" stroke-width="2" fill="none"></circle>
<circle cx="1425.95" cy="1359.14" r="4" stroke="rgb(0,255,80)" stroke-width="2" fill="none"></circle>
<circle cx="5865.09" cy="1246.33" r="4" stroke="rgb(0,255,80)" stroke-width="2" fill="none"></circle>
<circle cx="1956.96" cy="1359.4" r="4" stroke="rgb(0,242,255)" stroke-width="2" fill="none"></circle>
<circle cx="6020.34" cy="1320.64" r="4" stroke="rgb(0,242,255)" stroke-width="2" fill="none"></circle>
<circle cx="1419.98" cy="1368.85" r="4" stroke="rgb(250,255,0)" stroke-width="2" fill="none"></circle>
<circle cx="6477.85" cy="878.082" r="4" stroke="rgb(250,255,0)" stroke-width="2" fill="none"></circle>
<circle cx="1427.08" cy="1416" r="4" stroke="rgb(255,187,0)" stroke-width="2" fill="none"></circle>
<circle cx="6660.22" cy="1367.52" r="4" stroke="rgb(255,187,0)" stroke-width="2" fill="none"></circle>
<circle cx="2180.34" cy="1431.89" r="4" stroke="rgb(255,0,191)" stroke-width="2" fill="none"></circle>
<circle cx="5552.63" cy="1250.62" r="4" stroke="rgb(255,0,191)" stroke-width="2" fill="none"></circle>
<circle cx="2093.94" cy="1442.98" r="4" stroke="rgb(212,255,0)" stroke-width="2" fill="none"></circle>
<circle cx="5241.98" cy="1582.4" r="4" stroke="rgb(212,255,0)" stroke-width="2" fill="none"></circle>
<circle cx="2097.28" cy="1456.89" r="4" stroke="rgb(255,153,0)" stroke-width="2" fill="none"></circle>
<circle cx="6685.18" cy="1503.01" r="4" stroke="rgb(255,153,0)" stroke-width="2" fill="none"></circle>
<circle cx="1555.02" cy="1470.42" r="4" stroke="rgb(0,161,255)" stroke-width="2" fill="none"></circle>
<circle cx="6653.81" cy="1334.26" r="4" stroke="rgb(0,161,255)" stroke-width="2" fill="none"></circle>
<circle cx="2267.79" cy="1473.44" r="4" stroke="rgb(59,0,255)" stroke-width="2" fill="none"></circle>
<circle cx="5809.05" cy="1631.09" r="4" stroke="rgb(59,0,255)" stroke-width="2" fill="none"></circle>
<circle cx="1567.86" cy="1489.52" r="4" stroke="rgb(144,255,0)" stroke-width="2" fill="none"></circle>
<circle cx="5814.21" cy="1655.77" r="4" stroke="rgb(144,255,0)" stroke-width="2" fill="none"></circle>
<circle cx="2731.07" cy="1502.12" r="4" stroke="rgb(0,182,255)" stroke-width="2" fill="none"></circle>
<circle cx="5093.59" cy="1524.42" r="4" stroke="rgb(0,182,255)" stroke-width="2" fill="none"></circle>
<circle cx="2335.35" cy="1509.59" r="4" stroke="rgb(0,255,174)" stroke-width="2" fill="none"></circle>
<circle cx="5000.83" cy="1987.99" r="4" stroke="rgb(0,255,174)" stroke-width="2" fill="none"></circle>
<circle cx="2309.05" cy="1512.64" r="4" stroke="rgb(0,255,29)" stroke-width="2" fill="none"></circle>
<circle cx="5843.03" cy="1697.33" r="4" stroke="rgb(0,255,29)" stroke-width="2" fill="none"></circle>
<circle cx="2132.89" cy="1518.1" r="4" stroke="rgb(127,255,0)" stroke-width="2" fill="none"></circle>
<circle cx="5885.8" cy="1244.69" r="4" stroke="rgb(127,255,0)" stroke-width="2" fill="none"></circle>
<circle cx="2586.87" cy="1544.3" r="4" stroke="rgb(255,0,85)" stroke-width="2" fill="none"></circle>
<circle cx="5458.26" cy="1644.82" r="4" stroke="rgb(255,0,85)" stroke-width="2" fill="none"></circle>
<circle cx="1277.13" cy="1568.01" r="4" stroke="rgb(0,93,255)" stroke-width="2" fill="none"></circle>
<circle cx="6135.12" cy="1953.61" r="4" stroke="rgb(0,93,255)" stroke-width="2" fill="none"></circle>
<circle cx="2152.7" cy="1572.07" r="4" stroke="rgb(0,255,21)" stroke-width="2" fill="none"></circle>
<circle cx="6546.3" cy="1806.06" r="4" stroke="rgb(0,255,21)" stroke-width="2" fill="none"></circle>
<circle cx="2207.64" cy="1582.37" r="4" stroke="rgb(0,33,255)" stroke-width="2" fill="none"></circle>
<circle cx="6470.15" cy="1731.91" r="4" stroke="rgb(0,33,255)" stroke-width="2" fill="none"></circle>
<circle cx="1690.76" cy="1587.16" r="4" stroke="rgb(0,246,255)" stroke-width="2" fill="none"></circle>
<circle cx="5026.8" cy="1098.17" r="4" stroke="rgb(0,246,255)" stroke-width="2" fill="none"></circle>
<circle cx="1332.12" cy="1596.51" r="4" stroke="rgb(0,221,255)" stroke-width="2" fill="none"></circle>
<circle cx="5470.79" cy="1274.28" r="4" stroke="rgb(0,221,255)" stroke-width="2" fill="none"></circle>
<circle cx="2187.34" cy="1597.05" r="4" stroke="rgb(255,59,0)" stroke-width="2" fill="none"></circle>
<circle cx="6544.97" cy="1659.26" r="4" stroke="rgb(255,59,0)" stroke-width="2" fill="none"></circle>
<circle cx="1308.44" cy="1619.61" r="4" stroke="rgb(0,255,178)" stroke-width="2" fill="none"></circle>
<circle cx="4965.14" cy="2041.28" r="4" stroke="rgb(0,255,178)" stroke-width="2" fill="none"></circle>
<circle cx="2379.75" cy="1631.01" r="4" stroke="rgb(0,187,255)" stroke-width="2" fill="none"></circle>
<circle cx="6230.01" cy="1857.65" r="4" stroke="rgb(0,187,255)" stroke-width="2" fill="none"></circle>
<circle cx="2078.26" cy="1646.47" r="4" stroke="rgb(255,165,0)" stroke-width="2" fill="none"></circle>
<circle cx="6663.31" cy="1458.21" r="4" stroke="rgb(255,165,0)" stroke-width="2" fill="none"></circle>
<circle cx="1222.19" cy="1665.06" r="4" stroke="rgb(0,21,255)" stroke-width="2" fill="none"></circle>
<circle cx="6571.99" cy="879.646" r="4" stroke="rgb(0,21,255)" stroke-width="2" fill="none"></circle>
<circle cx="2192.51" cy="1666.62" r="4" stroke="rgb(0,153,255)" stroke-width="2" fill="none"></circle>
<circle cx="6537.39" cy="1769.43" r="4" stroke="rgb(0,153,255)" stroke-width="2" fill="none"></circle>
<circle cx="2179.53" cy="1672.01" r="4" stroke="rgb(0,255,76)" stroke-width="2" fill="none"></circle>
<circle cx="6277.5" cy="1590.47" r="4" stroke="rgb(0,255,76)" stroke-width="2" fill="none"></circle>
<circle cx="2193.8" cy="1674.23" r="4" stroke="rgb(250,0,255)" stroke-width="2" fill="none"></circle>
<circle cx="6375.9" cy="1572.34" r="4" stroke="rgb(250,0,255)" stroke-width="2" fill="none"></circle>
<circle cx="2204.14" cy="1705.79" r="4" stroke="rgb(0,255,67)" stroke-width="2" fill="none"></circle>
<circle cx="5946.68" cy="1198.84" r="4" stroke="rgb(0,255,67)" stroke-width="2" fill="none"></circle>
<circle cx="2088.87" cy="1725.4" r="4" stroke="rgb(255,136,0)" stroke-width="2" fill="none"></circle>
<circle cx="6392.95" cy="1871.32" r="4" stroke="rgb(255,136,0)" stroke-width="2" fill="none"></circle>
<circle cx="2178.33" cy="1751.73" r="4" stroke="rgb(0,255,220)" stroke-width="2" fill="none"></circle>
<circle cx="5912.92" cy="1759.14" r="4" stroke="rgb(0,255,220)" stroke-width="2" fill="none"></circle>
<circle cx="1693.55" cy="1752.98" r="4" stroke="rgb(148,0,255)" stroke-width="2" fill="none"></circle>
<circle cx="5296.38" cy="1531.93" r="4" stroke="rgb(148,0,255)" stroke-width="2" fill="none"></circle>
<circle cx="2128.94" cy="1754.29" r="4" stroke="rgb(140,255,0)" stroke-width="2" fill="none"></circle>
<circle cx="5739.25" cy="1575.7" r="4" stroke="rgb(140,255,0)" stroke-width="2" fill="none"></circle>
<circle cx="2117.42" cy="1757.79" r="4" stroke="rgb(63,255,0)" stroke-width="2" fill="none"></circle>
<circle cx="6350.89" cy="1467.6" r="4" stroke="rgb(63,255,0)" stroke-width="2" fill="none"></circle>
<circle cx="2170.03" cy="1760.14" r="4" stroke="rgb(0,208,255)" stroke-width="2" fill="none"></circle>
<circle cx="5920.79" cy="1491.93" r="4" stroke="rgb(0,208,255)" stroke-width="2" fill="none"></circle>
<circle cx="2027.93" cy="1842.58" r="4" stroke="rgb(148,0,255)" stroke-width="2" fill="none"></circle>
<circle cx="5759.15" cy="1629.04" r="4" stroke="rgb(148,0,255)" stroke-width="2" fill="none"></circle>
<circle cx="2057.14" cy="1863.28" r="4" stroke="rgb(0,255,237)" stroke-width="2" fill="none"></circle>
<circle cx="5420.98" cy="1870.23" r="4" stroke="rgb(0,255,237)" stroke-width="2" fill="none"></circle>
<circle cx="2358.7" cy="1868.99" r="4" stroke="rgb(84,255,0)" stroke-width="2" fill="none"></circle>
<circle cx="5941.24" cy="1622.92" r="4" stroke="rgb(84,255,0)" stroke-width="2" fill="none"></circle>
<circle cx="2066.09" cy="1869.03" r="4" stroke="rgb(255,0,46)" stroke-width="2" fill="none"></circle>
<circle cx="4933.23" cy="1776.54" r="4" stroke="rgb(255,0,46)" stroke-width="2" fill="none"></circle>
<circle cx="2060.47" cy="1875.92" r="4" stroke="rgb(255,0,246)" stroke-width="2" fill="none"></circle>
<circle cx="5973.5" cy="1484.68" r="4" stroke="rgb(255,0,246)" stroke-width="2" fill="none"></circle>
<circle cx="2186.54" cy="1915" r="4" stroke="rgb(0,229,255)" stroke-width="2" fill="none"></circle>
<circle cx="5455.59" cy="1317.85" r="4" stroke="rgb(0,229,255)" stroke-width="2" fill="none"></circle>
<circle cx="2705.52" cy="1924.27" r="4" stroke="rgb(0,229,255)" stroke-width="2" fill="none"></circle>
<circle cx="5897.5" cy="1134.27" r="4" stroke="rgb(0,229,255)" stroke-width="2" fill="none"></circle>
<circle cx="2078.31" cy="1947.85" r="4" stroke="rgb(67,255,0)" stroke-width="2" fill="none"></circle>
<circle cx="5245.78" cy="1638.4" r="4" stroke="rgb(67,255,0)" stroke-width="2" fill="none"></circle>
<circle cx="1335.12" cy="1957.29" r="4" stroke="rgb(255,0,199)" stroke-width="2" fill="none"></circle>
<circle cx="5792.15" cy="1164.59" r="4" stroke="rgb(255,0,199)" stroke-width="2" fill="none"></circle>
<circle cx="1954.83" cy="2030.82" r="4" stroke="rgb(153,0,255)" stroke-width="2" fill="none"></circle>
<circle cx="5893.23" cy="1277.45" r="4" stroke="rgb(153,0,255)" stroke-width="2" fill="none"></circle>
<circle cx="2023.91" cy="2109.82" r="4" stroke="rgb(255,0,187)" stroke-width="2" fill="none"></circle>
<circle cx="5833.8" cy="1725.09" r="4" stroke="rgb(255,0,187)" stroke-width="2" fill="none"></circle>
<circle cx="2295.18" cy="2128.72" r="4" stroke="rgb(255,187,0)" stroke-width="2" fill="none"></circle>
<circle cx="5926.66" cy="1527.9" r="4" stroke="rgb(255,187,0)" stroke-width="2" fill="none"></circle>
<circle cx="2043.55" cy="2164.48" r="4" stroke="rgb(140,0,255)" stroke-width="2" fill="none"></circle>
<circle cx="5955" cy="1786.78" r="4" stroke="rgb(140,0,255)" stroke-width="2" fill="none"></circle>
<circle cx="2048.27" cy="2166.23" r="4" stroke="rgb(0,221,255)" stroke-width="2" fill="none"></circle>
<circle cx="5591.54" cy="1704.41" r="4" stroke="rgb(0,221,255)" stroke-width="2" fill="none"></circle>
<circle cx="2057.21" cy="2167.19" r="4" stroke="rgb(93,255,0)" stroke-width="2" fill="none"></circle>
<circle cx="5898.75" cy="1562.42" r="4" stroke="rgb(93,255,0)" stroke-width="2" fill="none"></circle>
<circle cx="2062.37" cy="2179.98" r="4" stroke="rgb(80,255,0)" stroke-width="2" fill="none"></circle>
<circle cx="6476.25" cy="1320.2" r="4" stroke="rgb(80,255,0)" stroke-width="2" fill="none"></circle>
<circle cx="1010.23" cy="2212.44" r="4" stroke="rgb(191,255,0)" stroke-width="2" fill="none"></circle>
<circle cx="5136.17" cy="1213.76" r="4" stroke="rgb(191,255,0)" stroke-width="2" fill="none"></circle>
<circle cx="2086.75" cy="2226.19" r="4" stroke="rgb(0,255,50)" stroke-width="2" fill="none"></circle>
<circle cx="5673.89" cy="1988.53" r="4" stroke="rgb(0,255,50)" stroke-width="2" fill="none"></circle>
<circle cx="1998.56" cy="2228.18" r="4" stroke="rgb(0,255,208)" stroke-width="2" fill="none"></circle>
<circle cx="5496.36" cy="1358.49" r="4" stroke="rgb(0,255,208)" stroke-width="2" fill="none"></circle>
<circle cx="1957.74" cy="2229.11" r="4" stroke="rgb(255,0,59)" stroke-width="2" fill="none"></circle>
<circle cx="5855.98" cy="1202.55" r="4" stroke="rgb(255,0,59)" stroke-width="2" fill="none"></circle>
<circle cx="1955.93" cy="2235.64" r="4" stroke="rgb(255,29,0)" stroke-width="2" fill="none"></circle>
<circle cx="6245.51" cy="1904.31" r="4" stroke="rgb(255,29,0)" stroke-width="2" fill="none"></circle>
<circle cx="1977.82" cy="2242.34" r="4" stroke="rgb(255,55,0)" stroke-width="2" fill="none"></circle>
<circle cx="5013.17" cy="1991.7" r="4" stroke="rgb(255,55,0)" stroke-width="2" fill="none"></circle>
<circle cx="2082.65" cy="2246.09" r="4" stroke="rgb(0,255,16)" stroke-width="2" fill="none"></circle>
<circle cx="6388.66" cy="1843.99" r="4" stroke="rgb(0,255,16)" stroke-width="2" fill="none"></circle>
<circle cx="2254.99" cy="2268.61" r="4" stroke="rgb(255,0,225)" stroke-width="2" fill="none"></circle>
<circle cx="6351.8" cy="1909.31" r="4" stroke="rgb(255,0,225)" stroke-width="2" fill="none"></circle>
<circle cx="2251.11" cy="2279.08" r="4" stroke="rgb(0,255,127)" stroke-width="2" fill="none"></circle>
<circle cx="4739.14" cy="1867.38" r="4" stroke="rgb(0,255,127)" stroke-width="2" fill="none"></circle>
<circle cx="2006.75" cy="2351.56" r="4" stroke="rgb(255,119,0)" stroke-width="2" fill="none"></circle>
<circle cx="5686.73" cy="2062.59" r="4" stroke="rgb(255,119,0)" stroke-width="2" fill="none"></circle>
<circle cx="1666.05" cy="2353.9" r="4" stroke="rgb(255,0,38)" stroke-width="2" fill="none"></circle>
<circle cx="5760.63" cy="1953.34" r="4" stroke="rgb(255,0,38)" stroke-width="2" fill="none"></circle>
<circle cx="1639.95" cy="2355.52" r="4" stroke="rgb(242,0,255)" stroke-width="2" fill="none"></circle>
<circle cx="5599.01" cy="1898.32" r="4" stroke="rgb(242,0,255)" stroke-width="2" fill="none"></circle>
<circle cx="1571.09" cy="2360.72" r="4" stroke="rgb(16,255,0)" stroke-width="2" fill="none"></circle>
<circle cx="5713.19" cy="1258.23" r="4" stroke="rgb(16,255,0)" stroke-width="2" fill="none"></circle>
<circle cx="1665.33" cy="2365.95" r="4" stroke="rgb(97,255,0)" stroke-width="2" fill="none"></circle>
<circle cx="5806.84" cy="1967.13" r="4" stroke="rgb(97,255,0)" stroke-width="2" fill="none"></circle>
<circle cx="2011.77" cy="2427.66" r="4" stroke="rgb(0,255,38)" stroke-width="2" fill="none"></circle>
<circle cx="6058.82" cy="1154.92" r="4" stroke="rgb(0,255,38)" stroke-width="2" fill="none"></circle>
<circle cx="1669.51" cy="2455.84" r="4" stroke="rgb(255,131,0)" stroke-width="2" fill="none"></circle>
<circle cx="5919.99" cy="1429.4" r="4" stroke="rgb(255,131,0)" stroke-width="2" fill="none"></circle>
<circle cx="1864.04" cy="2494.61" r="4" stroke="rgb(0,255,106)" stroke-width="2" fill="none"></circle>
<circle cx="6516.36" cy="874.384" r="4" stroke="rgb(0,255,106)" stroke-width="2" fill="none"></circle>
<circle cx="1647.4" cy="2617.61" r="4" stroke="rgb(80,255,0)" stroke-width="2" fill="none"></circle>
<circle cx="5360.08" cy="838.445" r="4" stroke="rgb(80,255,0)" stroke-width="2" fill="none"></circle>
<circle cx="1381.95" cy="2691.54" r="4" stroke="rgb(255,85,0)" stroke-width="2" fill="none"></circle>
<circle cx="5361.75" cy="1402.67" r="4" stroke="rgb(255,85,0)" stroke-width="2" fill="none"></circle>
</svg>