<?xml version="1.0" standalone="yes"?>
<!-- SVG graphic -->
<svg xmlns='http://www.w3.org/2000/svg' xmlns:xlink='http://www.w3.org/1999/xlink'
width="8064px" height="3024px" preserveAspectRatio="xMinYMin meet" viewBox="0 0 8064 3024" version="1.1">
<image x="0" y="0" width="4032px" height="3024px" opacity="1" xlink:href="/home/jeong/Code/2D-to-3D-Modeling-using-AI/Make3D/Image/20200227_180620.jpg"/>
<image x="4032" y="0" width="4032px" height="3024px" opacity="1" xlink:href="/home/jeong/Code/2D-to-3D-Modeling-using-AI/Make3D/Image/20200227_180657.jpg"/>
<polyline points="2381.83,2352.4,6666.07,930.958" stroke="rgb(38,255,0)" stroke-width="2" fill="none"></polyline>
<polyline points="2407.01,2255.89,5020.69,1103.35" stroke="rgb(203,0,255)" stroke-width="2" fill="none"></polyline>
<polyline points="1004.11,455.819,4986.94,1128.27" stroke="rgb(255,0,17)" stroke-width="2" fill="none"></polyline>
<polyline points="2003.78,770.715,6038.64,1842.19" stroke="rgb(0,255,67)" stroke-width="2" fill="none"></polyline>
<polyline points="2003.78,770.715,6038.64,1842.19" stroke="rgb(0,33,255)" stroke-width="2" fill="none"></polyline>
<polyline points="2500.65,2088.91,4602.35,2599.96" stroke="rgb(255,110,0)" stroke-width="2" fill="none"></polyline>
<polyline points="1969.7,868.183,5792.83,1227.15" stroke="rgb(153,255,0)" stroke-width="2" fill="none"></polyline>
<polyline points="1942.7,760.144,5735.83,1318.84" stroke="rgb(255,212,0)" stroke-width="2" fill="none"></polyline>
<polyline points="1969.7,868.183,5841.06,1285.44" stroke="rgb(178,0,255)" stroke-width="2" fill="none"></polyline>
<polyline points="1786.75,584.616,5975.14,1373.77" stroke="rgb(0,255,89)" stroke-width="2" fill="none"></polyline>
<polyline points="1869.24,678.951,5681.28,1964.02" stroke="rgb(255,0,46)" stroke-width="2" fill="none"></polyline>
<polyline points="1869.24,678.951,5681.28,1964.02" stroke="rgb(153,0,255)" stroke-width="2" fill="none"></polyline>
<polyline points="1701.6,1764.82,6586.21,1510.25" stroke="rgb(255,250,0)" stroke-width="2" fill="none"></polyline>
<polyline points="1701.6,1764.82,6586.21,1510.25" stroke="rgb(225,255,0)" stroke-width="2" fill="none"></polyline>
<polyline points="1644.52,1332.98,6597.53,1524.81" stroke="rgb(255,4,0)" stroke-width="2" fill="none"></polyline>
<polyline points="1644.52,1332.98,6597.53,1524.81" stroke="rgb(67,0,255)" stroke-width="2" fill="none"></polyline>
<polyline points="2034.47,2214.04,6325.76,2059.46" stroke="rgb(0,246,255)" stroke-width="2" fill="none"></polyline>
<polyline points="1969.7,868.183,5938.24,2078.89" stroke="rgb(153,255,0)" stroke-width="2" fill="none"></polyline>
<polyline points="2601.73,902.955,6383.93,1968.03" stroke="rgb(255,76,0)" stroke-width="2" fill="none"></polyline>
<polyline points="2022.88,2285.08,5709.16,1561.95" stroke="rgb(0,119,255)" stroke-width="2" fill="none"></polyline>
<polyline points="2178.33,1751.73,6349.44,1600.38" stroke="rgb(0,174,255)" stroke-width="2" fill="none"></polyline>
<polyline points="1969.7,868.183,5564.06,2107.23" stroke="rgb(233,255,0)" stroke-width="2" fill="none"></polyline>
<polyline points="1326.1,1527.98,5276.24,1592.97" stroke="rgb(0,255,208)" stroke-width="2" fill="none"></polyline>
<polyline points="1066.59,636.983,5744.84,2147.93" stroke="rgb(0,255,186)" stroke-width="2" fill="none"></polyline>
<polyline points="2591.71,1855.97,5717.27,1638.97" stroke="rgb(0,178,255)" stroke-width="2" fill="none"></polyline>
<polyline points="1990.3,648.55,6172.76,2319.64" stroke="rgb(0,255,12)" stroke-width="2" fill="none"></polyline>
<polyline points="1990.3,648.55,6172.76,2319.64" stroke="rgb(255,97,0)" stroke-width="2" fill="none"></polyline>
<polyline points="2031.75,725.308,6064.2,2236.24" stroke="rgb(131,0,255)" stroke-width="2" fill="none"></polyline>
<polyline points="1878.8,996.179,5245.07,1888.34" stroke="rgb(255,250,0)" stroke-width="2" fill="none"></polyline>
<polyline points="1560.75,1010.14,5149.92,1761.96" stroke="rgb(255,0,131)" stroke-width="2" fill="none"></polyline>
<polyline points="1134.04,588.566,4931.7,1989.35" stroke="rgb(255,127,0)" stroke-width="2" fill="none"></polyline>
<polyline points="1978.77,1398.37,5136.84,1811.21" stroke="rgb(0,255,216)" stroke-width="2" fill="none"></polyline>
<polyline points="1947.31,1223.38,6328.28,1653.38" stroke="rgb(72,0,255)" stroke-width="2" fill="none"></polyline>
<polyline points="1134.21,619.979,5119.99,1846.7" stroke="rgb(76,0,255)" stroke-width="2" fill="none"></polyline>
<polyline points="1867.17,985.373,6535.51,1836.44" stroke="rgb(0,255,250)" stroke-width="2" fill="none"></polyline>
<polyline points="1328.83,2519.49,6359.58,2217.01" stroke="rgb(0,255,38)" stroke-width="2" fill="none"></polyline>
<polyline points="2477.37,812.88,6088.68,1203.44" stroke="rgb(191,0,255)" stroke-width="2" fill="none"></polyline>
<polyline points="2006.75,2351.56,6601.65,1508.75" stroke="rgb(97,0,255)" stroke-width="2" fill="none"></polyline>
<polyline points="2179.53,1672.01,5910.48,1535.99" stroke="rgb(0,255,250)" stroke-width="2" fill="none"></polyline>
<circle cx="2381.83" cy="2352.4" r="4" stroke="rgb(38,255,0)" stroke-width="2" fill="none"></circle>
<circle cx="6666.07" cy="930.958" r="4" stroke="rgb(38,255,0)" stroke-width="2" fill="none"></circle>
<circle cx="2407.01" cy="2255.89" r="4" stroke="rgb(203,0,255)" stroke-width="2" fill="none"></circle>
<circle cx="5020.69" cy="1103.35" r="4" stroke="rgb(203,0,255)" stroke-width="2" fill="none"></circle>
<circle cx="1004.11" cy="455.819" r="4" stroke="rgb(255,0,17)" stroke-width="2" fill="none"></circle>
<circle cx="4986.94" cy="1128.27" r="4" stroke="rgb(255,0,17)" stroke-width="2" fill="none"></circle>
<circle cx="2003.78" cy="770.715" r="4" stroke="rgb(0,255,67)" stroke-width="2" fill="none"></circle>
<circle cx="6038.64" cy="1842.19" r="4" stroke="rgb(0,255,67)" stroke-width="2" fill="none"></circle>
<circle cx="2003.78" cy="770.715" r="4" stroke="rgb(0,33,255)" stroke-width="2" fill="none"></circle>
<circle cx="6038.64" cy="1842.19" r="4" stroke="rgb(0,33,255)" stroke-width="2" fill="none"></circle>
<circle cx="2500.65" cy="2088.91" r="4" stroke="rgb(255,110,0)" stroke-width="2" fill="none"></circle>
<circle cx="4602.35" cy="2599.96" r="4" stroke="rgb(255,110,0)" stroke-width="2" fill="none"></circle>
<circle cx="1969.7" cy="868.183" r="4" stroke="rgb(153,255,0)" stroke-width="2" fill="none"></circle>
<circle cx="5792.83" cy="1227.15" r="4" stroke="rgb(153,255,0)" stroke-width="2" fill="none"></circle>
<circle cx="1942.7" cy="760.144" r="4" stroke="rgb(255,212,0)" stroke-width="2" fill="none"></circle>
<circle cx="5735.83" cy="1318.84" r="4" stroke="rgb(255,212,0)" stroke-width="2" fill="none"></circle>
<circle cx="1969.7" cy="868.183" r="4" stroke="rgb(178,0,255)" stroke-width="2" fill="none"></circle>
<circle cx="5841.06" cy="1285.44" r="4" stroke="rgb(178,0,255)" stroke-width="2" fill="none"></circle>
<circle cx="1786.75" cy="584.616" r="4" stroke="rgb(0,255,89)" stroke-width="2" fill="none"></circle>
<circle cx="5975.14" cy="1373.77" r="4" stroke="rgb(0,255,89)" stroke-width="2" fill="none"></circle>
<circle cx="1869.24" cy="678.951" r="4" stroke="rgb(255,0,46)" stroke-width="2" fill="none"></circle>
<circle cx="5681.28" cy="1964.02" r="4" stroke="rgb(255,0,46)" stroke-width="2" fill="none"></circle>
<circle cx="1869.24" cy="678.951" r="4" stroke="rgb(153,0,255)" stroke-width="2" fill="none"></circle>
<circle cx="5681.28" cy="1964.02" r="4" stroke="rgb(153,0,255)" stroke-width="2" fill="none"></circle>
<circle cx="1701.6" cy="1764.82" r="4" stroke="rgb(255,250,0)" stroke-width="2" fill="none"></circle>
<circle cx="6586.21" cy="1510.25" r="4" stroke="rgb(255,250,0)" stroke-width="2" fill="none"></circle>
<circle cx="1701.6" cy="1764.82" r="4" stroke="rgb(225,255,0)" stroke-width="2" fill="none"></circle>
<circle cx="6586.21" cy="1510.25" r="4" stroke="rgb(225,255,0)" stroke-width="2" fill="none"></circle>
<circle cx="1644.52" cy="1332.98" r="4" stroke="rgb(255,4,0)" stroke-width="2" fill="none"></circle>
<circle cx="6597.53" cy="1524.81" r="4" stroke="rgb(255,4,0)" stroke-width="2" fill="none"></circle>
<circle cx="1644.52" cy="1332.98" r="4" stroke="rgb(67,0,255)" stroke-width="2" fill="none"></circle>
<circle cx="6597.53" cy="1524.81" r="4" stroke="rgb(67,0,255)" stroke-width="2" fill="none"></circle>
<circle cx="2034.47" cy="2214.04" r="4" stroke="rgb(0,246,255)" stroke-width="2" fill="none"></circle>
<circle cx="6325.76" cy="2059.46" r="4" stroke="rgb(0,246,255)" stroke-width="2" fill="none"></circle>
<circle cx="1969.7" cy="868.183" r="4" stroke="rgb(153,255,0)" stroke-width="2" fill="none"></circle>
<circle cx="5938.24" cy="2078.89" r="4" stroke="rgb(153,255,0)" stroke-width="2" fill="none"></circle>
<circle cx="2601.73" cy="902.955" r="4" stroke="rgb(255,76,0)" stroke-width="2" fill="none"></circle>
<circle cx="6383.93" cy="1968.03" r="4" stroke="rgb(255,76,0)" stroke-width="2" fill="none"></circle>
<circle cx="2022.88" cy="2285.08" r="4" stroke="rgb(0,119,255)" stroke-width="2" fill="none"></circle>
<circle cx="5709.16" cy="1561.95" r="4" stroke="rgb(0,119,255)" stroke-width="2" fill="none"></circle>
<circle cx="2178.33" cy="1751.73" r="4" stroke="rgb(0,174,255)" stroke-width="2" fill="none"></circle>
<circle cx="6349.44" cy="1600.38" r="4" stroke="rgb(0,174,255)" stroke-width="2" fill="none"></circle>
<circle cx="1969.7" cy="868.183" r="4" stroke="rgb(233,255,0)" stroke-width="2" fill="none"></circle>
<circle cx="5564.06" cy="2107.23" r="4" stroke="rgb(233,255,0)" stroke-width="2" fill="none"></circle>
<circle cx="1326.1" cy="1527.98" r="4" stroke="rgb(0,255,208)" stroke-width="2" fill="none"></circle>
<circle cx="5276.24" cy="1592.97" r="4" stroke="rgb(0,255,208)" stroke-width="2" fill="none"></circle>
<circle cx="1066.59" cy="636.983" r="4" stroke="rgb(0,255,186)" stroke-width="2" fill="none"></circle>
<circle cx="5744.84" cy="2147.93" r="4" stroke="rgb(0,255,186)" stroke-width="2" fill="none"></circle>
<circle cx="2591.71" cy="1855.97" r="4" stroke="rgb(0,178,255)" stroke-width="2" fill="none"></circle>
<circle cx="5717.27" cy="1638.97" r="4" stroke="rgb(0,178,255)" stroke-width="2" fill="none"></circle>
<circle cx="1990.3" cy="648.55" r="4" stroke="rgb(0,255,12)" stroke-width="2" fill="none"></circle>
<circle cx="6172.76" cy="2319.64" r="4" stroke="rgb(0,255,12)" stroke-width="2" fill="none"></circle>
<circle cx="1990.3" cy="648.55" r="4" stroke="rgb(255,97,0)" stroke-width="2" fill="none"></circle>
<circle cx="6172.76" cy="2319.64" r="4" stroke="rgb(255,97,0)" stroke-width="2" fill="none"></circle>
<circle cx="2031.75" cy="725.308" r="4" stroke="rgb(131,0,255)" stroke-width="2" fill="none"></circle>
<circle cx="6064.2" cy="2236.24" r="4" stroke="rgb(131,0,255)" stroke-width="2" fill="none"></circle>
<circle cx="1878.8" cy="996.179" r="4" stroke="rgb(255,250,0)" stroke-width="2" fill="none"></circle>
<circle cx="5245.07" cy="1888.34" r="4" stroke="rgb(255,250,0)" stroke-width="2" fill="none"></circle>
<circle cx="1560.75" cy="1010.14" r="4" stroke="rgb(255,0,131)" stroke-width="2" fill="none"></circle>
<circle cx="5149.92" cy="1761.96" r="4" stroke="rgb(255,0,131)" stroke-width="2" fill="none"></circle>
<circle cx="1134.04" cy="588.566" r="4" stroke="rgb(255,127,0)" stroke-width="2" fill="none"></circle>
<circle cx="4931.7" cy="1989.35" r="4" stroke="rgb(255,127,0)" stroke-width="2" fill="none"></circle>
<circle cx="1978.77" cy="1398.37" r="4" stroke="rgb(0,255,216)" stroke-width="2" fill="none"></circle>
<circle cx="5136.84" cy="1811.21" r="4" stroke="rgb(0,255,216)" stroke-width="2" fill="none"></circle>
<circle cx="1947.31" cy="1223.38" r="4" stroke="rgb(72,0,255)" stroke-width="2" fill="none"></circle>
<circle cx="6328.28" cy="1653.38" r="4" stroke="rgb(72,0,255)" stroke-width="2" fill="none"></circle>
<circle cx="1134.21" cy="619.979" r="4" stroke="rgb(76,0,255)" stroke-width="2" fill="none"></circle>
<circle cx="5119.99" cy="1846.7" r="4" stroke="rgb(76,0,255)" stroke-width="2" fill="none"></circle>
<circle cx="1867.17" cy="985.373" r="4" stroke="rgb(0,255,250)" stroke-width="2" fill="none"></circle>
<circle cx="6535.51" cy="1836.44" r="4" stroke="rgb(0,255,250)" stroke-width="2" fill="none"></circle>
<circle cx="1328.83" cy="2519.49" r="4" stroke="rgb(0,255,38)" stroke-width="2" fill="none"></circle>
<circle cx="6359.58" cy="2217.01" r="4" stroke="rgb(0,255,38)" stroke-width="2" fill="none"></circle>
<circle cx="2477.37" cy="812.88" r="4" stroke="rgb(191,0,255)" stroke-width="2" fill="none"></circle>
<circle cx="6088.68" cy="1203.44" r="4" stroke="rgb(191,0,255)" stroke-width="2" fill="none"></circle>
<circle cx="2006.75" cy="2351.56" r="4" stroke="rgb(97,0,255)" stroke-width="2" fill="none"></circle>
<circle cx="6601.65" cy="1508.75" r="4" stroke="rgb(97,0,255)" stroke-width="2" fill="none"></circle>
<circle cx="2179.53" cy="1672.01" r="4" stroke="rgb(0,255,250)" stroke-width="2" fill="none"></circle>
<circle cx="5910.48" cy="1535.99" r="4" stroke="rgb(0,255,250)" stroke-width="2" fill="none"></circle>
</svg>