<?xml version="1.0" standalone="yes"?>
<!-- SVG graphic -->
<svg xmlns='http://www.w3.org/2000/svg' xmlns:xlink='http://www.w3.org/1999/xlink'
width="8064px" height="3024px" preserveAspectRatio="xMinYMin meet" viewBox="0 0 8064 3024" version="1.1">
<image x="0" y="0" width="4032px" height="3024px" opacity="1" xlink:href="/home/jeong/Code/2D-to-3D-Modeling-using-AI/Make3D/Image/20200227_180620.jpg"/>
<image x="4032" y="0" width="4032px" height="3024px" opacity="1" xlink:href="/home/jeong/Code/2D-to-3D-Modeling-using-AI/Make3D/Image/20200227_180701.jpg"/>
<polyline points="959.199,2737.66,5566.41,406.781" stroke="rgb(255,0,221)" stroke-width="2" fill="none"></polyline>
<polyline points="1869.24,678.951,6527.9,1892.29" stroke="rgb(250,255,0)" stroke-width="2" fill="none"></polyline>
<polyline points="1378.3,2693.57,5103.84,822.851" stroke="rgb(255,114,0)" stroke-width="2" fill="none"></polyline>
<polyline points="1959.27,709.388,5819.03,640.826" stroke="rgb(0,237,255)" stroke-width="2" fill="none"></polyline>
<polyline points="1148.24,1039.91,6047.44,674.453" stroke="rgb(255,51,0)" stroke-width="2" fill="none"></polyline>
<polyline points="1958.27,1032.89,5520.81,670.75" stroke="rgb(255,208,0)" stroke-width="2" fill="none"></polyline>
<polyline points="2096.54,689.739,6021.53,677.82" stroke="rgb(84,255,0)" stroke-width="2" fill="none"></polyline>
<polyline points="1680.72,1641.53,6469.16,1974.4" stroke="rgb(0,212,255)" stroke-width="2" fill="none"></polyline>
<polyline points="1534.23,421.7,5040.78,906.833" stroke="rgb(255,199,0)" stroke-width="2" fill="none"></polyline>
<polyline points="1546.64,1210.91,5487.6,2063.83" stroke="rgb(255,0,21)" stroke-width="2" fill="none"></polyline>
<polyline points="1055.55,764.061,5833.27,2065.67" stroke="rgb(42,255,0)" stroke-width="2" fill="none"></polyline>
<polyline points="892.292,688.648,5823.34,2077.8" stroke="rgb(255,85,0)" stroke-width="2" fill="none"></polyline>
<polyline points="1453.5,1099.25,5510.14,2122.78" stroke="rgb(255,221,0)" stroke-width="2" fill="none"></polyline>
<polyline points="892.292,688.648,4990.01,2125.68" stroke="rgb(144,255,0)" stroke-width="2" fill="none"></polyline>
<polyline points="1663.95,1723.72,5516.48,2125.57" stroke="rgb(255,0,55)" stroke-width="2" fill="none"></polyline>
<polyline points="1534.65,1237.4,5517.91,2132.65" stroke="rgb(255,0,21)" stroke-width="2" fill="none"></polyline>
<polyline points="2375.32,1314.74,5222.68,1050.01" stroke="rgb(140,255,0)" stroke-width="2" fill="none"></polyline>
<polyline points="892.292,688.648,4976.26,2151.95" stroke="rgb(21,0,255)" stroke-width="2" fill="none"></polyline>
<polyline points="1647.4,2617.61,5688.41,1459.29" stroke="rgb(255,0,33)" stroke-width="2" fill="none"></polyline>
<polyline points="2198.52,1851.03,5860.05,972.097" stroke="rgb(0,255,118)" stroke-width="2" fill="none"></polyline>
<polyline points="2460.73,1821.3,4857.38,2172.19" stroke="rgb(255,174,0)" stroke-width="2" fill="none"></polyline>
<polyline points="1063.16,770.093,6455.75,2196.28" stroke="rgb(255,165,0)" stroke-width="2" fill="none"></polyline>
<polyline points="1517.56,1269.38,5467.33,2204.9" stroke="rgb(0,255,191)" stroke-width="2" fill="none"></polyline>
<polyline points="2024.9,2289.79,5770.53,1100.94" stroke="rgb(255,0,76)" stroke-width="2" fill="none"></polyline>
<polyline points="1440.2,442.984,5393.06,1009.96" stroke="rgb(0,191,255)" stroke-width="2" fill="none"></polyline>
<polyline points="1109.11,803.071,6154.97,2237.78" stroke="rgb(55,255,0)" stroke-width="2" fill="none"></polyline>
<polyline points="2314.26,813.231,6048.93,2245.63" stroke="rgb(0,55,255)" stroke-width="2" fill="none"></polyline>
<polyline points="2067.55,868.499,5486.01,2248.03" stroke="rgb(255,68,0)" stroke-width="2" fill="none"></polyline>
<polyline points="1650.07,2448.14,4948.87,2250.53" stroke="rgb(72,255,0)" stroke-width="2" fill="none"></polyline>
<polyline points="1896.2,740.932,6307.27,1557.82" stroke="rgb(255,242,0)" stroke-width="2" fill="none"></polyline>
<polyline points="2115.38,649.654,5646.41,2380.98" stroke="rgb(242,0,255)" stroke-width="2" fill="none"></polyline>
<polyline points="2376.31,1302.28,5172.28,1587.18" stroke="rgb(186,0,255)" stroke-width="2" fill="none"></polyline>
<polyline points="2362.29,740.203,5299.26,426.973" stroke="rgb(4,255,0)" stroke-width="2" fill="none"></polyline>
<polyline points="2173.03,1968.81,5441.96,1605.67" stroke="rgb(0,187,255)" stroke-width="2" fill="none"></polyline>
<polyline points="2064.14,2304.93,6456.92,1642.07" stroke="rgb(255,0,85)" stroke-width="2" fill="none"></polyline>
<polyline points="2064.14,2304.93,6455.76,1648.32" stroke="rgb(255,12,0)" stroke-width="2" fill="none"></polyline>
<polyline points="2246.91,880.865,6512.92,1163.86" stroke="rgb(21,0,255)" stroke-width="2" fill="none"></polyline>
<polyline points="895.022,550.894,5284.61,1124.73" stroke="rgb(169,255,0)" stroke-width="2" fill="none"></polyline>
<polyline points="695.94,668.838,5408.07,1841.07" stroke="rgb(233,255,0)" stroke-width="2" fill="none"></polyline>
<polyline points="1979.25,2257.6,6350.52,1859.23" stroke="rgb(0,255,186)" stroke-width="2" fill="none"></polyline>
<polyline points="2003.78,770.715,6086.44,1187.64" stroke="rgb(255,0,225)" stroke-width="2" fill="none"></polyline>
<polyline points="2003.78,770.715,6086.44,1187.64" stroke="rgb(255,199,0)" stroke-width="2" fill="none"></polyline>
<polyline points="1871.85,1599.79,5912.43,1247.46" stroke="rgb(255,238,0)" stroke-width="2" fill="none"></polyline>
<polyline points="2293.15,1761.47,6536.03,1282.18" stroke="rgb(255,0,0)" stroke-width="2" fill="none"></polyline>
<polyline points="1634.8,2354.2,6576.03,1477.7" stroke="rgb(0,255,59)" stroke-width="2" fill="none"></polyline>
<polyline points="1513.03,365.665,5055.88,1711.9" stroke="rgb(148,0,255)" stroke-width="2" fill="none"></polyline>
<polyline points="1693.9,1760.56,5472.82,2125.85" stroke="rgb(255,0,21)" stroke-width="2" fill="none"></polyline>
<polyline points="2191.88,1622.68,6154.65,818.453" stroke="rgb(0,80,255)" stroke-width="2" fill="none"></polyline>
<polyline points="2615.24,1400.77,5281.2,1538.8" stroke="rgb(0,255,174)" stroke-width="2" fill="none"></polyline>
<polyline points="1513.03,365.665,5056.34,1711.07" stroke="rgb(0,89,255)" stroke-width="2" fill="none"></polyline>
<polyline points="2006.75,2351.56,6552.06,1003.79" stroke="rgb(255,38,0)" stroke-width="2" fill="none"></polyline>
<polyline points="1640.78,1529.86,5915.5,1472.2" stroke="rgb(195,255,0)" stroke-width="2" fill="none"></polyline>
<polyline points="2302.95,1490.12,5610.21,1540.29" stroke="rgb(76,0,255)" stroke-width="2" fill="none"></polyline>
<polyline points="2751.07,1614.01,5607.12,1961.2" stroke="rgb(255,195,0)" stroke-width="2" fill="none"></polyline>
<circle cx="959.199" cy="2737.66" r="4" stroke="rgb(255,0,221)" stroke-width="2" fill="none"></circle>
<circle cx="5566.41" cy="406.781" r="4" stroke="rgb(255,0,221)" stroke-width="2" fill="none"></circle>
<circle cx="1869.24" cy="678.951" r="4" stroke="rgb(250,255,0)" stroke-width="2" fill="none"></circle>
<circle cx="6527.9" cy="1892.29" r="4" stroke="rgb(250,255,0)" stroke-width="2" fill="none"></circle>
<circle cx="1378.3" cy="2693.57" r="4" stroke="rgb(255,114,0)" stroke-width="2" fill="none"></circle>
<circle cx="5103.84" cy="822.851" r="4" stroke="rgb(255,114,0)" stroke-width="2" fill="none"></circle>
<circle cx="1959.27" cy="709.388" r="4" stroke="rgb(0,237,255)" stroke-width="2" fill="none"></circle>
<circle cx="5819.03" cy="640.826" r="4" stroke="rgb(0,237,255)" stroke-width="2" fill="none"></circle>
<circle cx="1148.24" cy="1039.91" r="4" stroke="rgb(255,51,0)" stroke-width="2" fill="none"></circle>
<circle cx="6047.44" cy="674.453" r="4" stroke="rgb(255,51,0)" stroke-width="2" fill="none"></circle>
<circle cx="1958.27" cy="1032.89" r="4" stroke="rgb(255,208,0)" stroke-width="2" fill="none"></circle>
<circle cx="5520.81" cy="670.75" r="4" stroke="rgb(255,208,0)" stroke-width="2" fill="none"></circle>
<circle cx="2096.54" cy="689.739" r="4" stroke="rgb(84,255,0)" stroke-width="2" fill="none"></circle>
<circle cx="6021.53" cy="677.82" r="4" stroke="rgb(84,255,0)" stroke-width="2" fill="none"></circle>
<circle cx="1680.72" cy="1641.53" r="4" stroke="rgb(0,212,255)" stroke-width="2" fill="none"></circle>
<circle cx="6469.16" cy="1974.4" r="4" stroke="rgb(0,212,255)" stroke-width="2" fill="none"></circle>
<circle cx="1534.23" cy="421.7" r="4" stroke="rgb(255,199,0)" stroke-width="2" fill="none"></circle>
<circle cx="5040.78" cy="906.833" r="4" stroke="rgb(255,199,0)" stroke-width="2" fill="none"></circle>
<circle cx="1546.64" cy="1210.91" r="4" stroke="rgb(255,0,21)" stroke-width="2" fill="none"></circle>
<circle cx="5487.6" cy="2063.83" r="4" stroke="rgb(255,0,21)" stroke-width="2" fill="none"></circle>
<circle cx="1055.55" cy="764.061" r="4" stroke="rgb(42,255,0)" stroke-width="2" fill="none"></circle>
<circle cx="5833.27" cy="2065.67" r="4" stroke="rgb(42,255,0)" stroke-width="2" fill="none"></circle>
<circle cx="892.292" cy="688.648" r="4" stroke="rgb(255,85,0)" stroke-width="2" fill="none"></circle>
<circle cx="5823.34" cy="2077.8" r="4" stroke="rgb(255,85,0)" stroke-width="2" fill="none"></circle>
<circle cx="1453.5" cy="1099.25" r="4" stroke="rgb(255,221,0)" stroke-width="2" fill="none"></circle>
<circle cx="5510.14" cy="2122.78" r="4" stroke="rgb(255,221,0)" stroke-width="2" fill="none"></circle>
<circle cx="892.292" cy="688.648" r="4" stroke="rgb(144,255,0)" stroke-width="2" fill="none"></circle>
<circle cx="4990.01" cy="2125.68" r="4" stroke="rgb(144,255,0)" stroke-width="2" fill="none"></circle>
<circle cx="1663.95" cy="1723.72" r="4" stroke="rgb(255,0,55)" stroke-width="2" fill="none"></circle>
<circle cx="5516.48" cy="2125.57" r="4" stroke="rgb(255,0,55)" stroke-width="2" fill="none"></circle>
<circle cx="1534.65" cy="1237.4" r="4" stroke="rgb(255,0,21)" stroke-width="2" fill="none"></circle>
<circle cx="5517.91" cy="2132.65" r="4" stroke="rgb(255,0,21)" stroke-width="2" fill="none"></circle>
<circle cx="2375.32" cy="1314.74" r="4" stroke="rgb(140,255,0)" stroke-width="2" fill="none"></circle>
<circle cx="5222.68" cy="1050.01" r="4" stroke="rgb(140,255,0)" stroke-width="2" fill="none"></circle>
<circle cx="892.292" cy="688.648" r="4" stroke="rgb(21,0,255)" stroke-width="2" fill="none"></circle>
<circle cx="4976.26" cy="2151.95" r="4" stroke="rgb(21,0,255)" stroke-width="2" fill="none"></circle>
<circle cx="1647.4" cy="2617.61" r="4" stroke="rgb(255,0,33)" stroke-width="2" fill="none"></circle>
<circle cx="5688.41" cy="1459.29" r="4" stroke="rgb(255,0,33)" stroke-width="2" fill="none"></circle>
<circle cx="2198.52" cy="1851.03" r="4" stroke="rgb(0,255,118)" stroke-width="2" fill="none"></circle>
<circle cx="5860.05" cy="972.097" r="4" stroke="rgb(0,255,118)" stroke-width="2" fill="none"></circle>
<circle cx="2460.73" cy="1821.3" r="4" stroke="rgb(255,174,0)" stroke-width="2" fill="none"></circle>
<circle cx="4857.38" cy="2172.19" r="4" stroke="rgb(255,174,0)" stroke-width="2" fill="none"></circle>
<circle cx="1063.16" cy="770.093" r="4" stroke="rgb(255,165,0)" stroke-width="2" fill="none"></circle>
<circle cx="6455.75" cy="2196.28" r="4" stroke="rgb(255,165,0)" stroke-width="2" fill="none"></circle>
<circle cx="1517.56" cy="1269.38" r="4" stroke="rgb(0,255,191)" stroke-width="2" fill="none"></circle>
<circle cx="5467.33" cy="2204.9" r="4" stroke="rgb(0,255,191)" stroke-width="2" fill="none"></circle>
<circle cx="2024.9" cy="2289.79" r="4" stroke="rgb(255,0,76)" stroke-width="2" fill="none"></circle>
<circle cx="5770.53" cy="1100.94" r="4" stroke="rgb(255,0,76)" stroke-width="2" fill="none"></circle>
<circle cx="1440.2" cy="442.984" r="4" stroke="rgb(0,191,255)" stroke-width="2" fill="none"></circle>
<circle cx="5393.06" cy="1009.96" r="4" stroke="rgb(0,191,255)" stroke-width="2" fill="none"></circle>
<circle cx="1109.11" cy="803.071" r="4" stroke="rgb(55,255,0)" stroke-width="2" fill="none"></circle>
<circle cx="6154.97" cy="2237.78" r="4" stroke="rgb(55,255,0)" stroke-width="2" fill="none"></circle>
<circle cx="2314.26" cy="813.231" r="4" stroke="rgb(0,55,255)" stroke-width="2" fill="none"></circle>
<circle cx="6048.93" cy="2245.63" r="4" stroke="rgb(0,55,255)" stroke-width="2" fill="none"></circle>
<circle cx="2067.55" cy="868.499" r="4" stroke="rgb(255,68,0)" stroke-width="2" fill="none"></circle>
<circle cx="5486.01" cy="2248.03" r="4" stroke="rgb(255,68,0)" stroke-width="2" fill="none"></circle>
<circle cx="1650.07" cy="2448.14" r="4" stroke="rgb(72,255,0)" stroke-width="2" fill="none"></circle>
<circle cx="4948.87" cy="2250.53" r="4" stroke="rgb(72,255,0)" stroke-width="2" fill="none"></circle>
<circle cx="1896.2" cy="740.932" r="4" stroke="rgb(255,242,0)" stroke-width="2" fill="none"></circle>
<circle cx="6307.27" cy="1557.82" r="4" stroke="rgb(255,242,0)" stroke-width="2" fill="none"></circle>
<circle cx="2115.38" cy="649.654" r="4" stroke="rgb(242,0,255)" stroke-width="2" fill="none"></circle>
<circle cx="5646.41" cy="2380.98" r="4" stroke="rgb(242,0,255)" stroke-width="2" fill="none"></circle>
<circle cx="2376.31" cy="1302.28" r="4" stroke="rgb(186,0,255)" stroke-width="2" fill="none"></circle>
<circle cx="5172.28" cy="1587.18" r="4" stroke="rgb(186,0,255)" stroke-width="2" fill="none"></circle>
<circle cx="2362.29" cy="740.203" r="4" stroke="rgb(4,255,0)" stroke-width="2" fill="none"></circle>
<circle cx="5299.26" cy="426.973" r="4" stroke="rgb(4,255,0)" stroke-width="2" fill="none"></circle>
<circle cx="2173.03" cy="1968.81" r="4" stroke="rgb(0,187,255)" stroke-width="2" fill="none"></circle>
<circle cx="5441.96" cy="1605.67" r="4" stroke="rgb(0,187,255)" stroke-width="2" fill="none"></circle>
<circle cx="2064.14" cy="2304.93" r="4" stroke="rgb(255,0,85)" stroke-width="2" fill="none"></circle>
<circle cx="6456.92" cy="1642.07" r="4" stroke="rgb(255,0,85)" stroke-width="2" fill="none"></circle>
<circle cx="2064.14" cy="2304.93" r="4" stroke="rgb(255,12,0)" stroke-width="2" fill="none"></circle>
<circle cx="6455.76" cy="1648.32" r="4" stroke="rgb(255,12,0)" stroke-width="2" fill="none"></circle>
<circle cx="2246.91" cy="880.865" r="4" stroke="rgb(21,0,255)" stroke-width="2" fill="none"></circle>
<circle cx="6512.92" cy="1163.86" r="4" stroke="rgb(21,0,255)" stroke-width="2" fill="none"></circle>
<circle cx="895.022" cy="550.894" r="4" stroke="rgb(169,255,0)" stroke-width="2" fill="none"></circle>
<circle cx="5284.61" cy="1124.73" r="4" stroke="rgb(169,255,0)" stroke-width="2" fill="none"></circle>
<circle cx="695.94" cy="668.838" r="4" stroke="rgb(233,255,0)" stroke-width="2" fill="none"></circle>
<circle cx="5408.07" cy="1841.07" r="4" stroke="rgb(233,255,0)" stroke-width="2" fill="none"></circle>
<circle cx="1979.25" cy="2257.6" r="4" stroke="rgb(0,255,186)" stroke-width="2" fill="none"></circle>
<circle cx="6350.52" cy="1859.23" r="4" stroke="rgb(0,255,186)" stroke-width="2" fill="none"></circle>
<circle cx="2003.78" cy="770.715" r="4" stroke="rgb(255,0,225)" stroke-width="2" fill="none"></circle>
<circle cx="6086.44" cy="1187.64" r="4" stroke="rgb(255,0,225)" stroke-width="2" fill="none"></circle>
<circle cx="2003.78" cy="770.715" r="4" stroke="rgb(255,199,0)" stroke-width="2" fill="none"></circle>
<circle cx="6086.44" cy="1187.64" r="4" stroke="rgb(255,199,0)" stroke-width="2" fill="none"></circle>
<circle cx="1871.85" cy="1599.79" r="4" stroke="rgb(255,238,0)" stroke-width="2" fill="none"></circle>
<circle cx="5912.43" cy="1247.46" r="4" stroke="rgb(255,238,0)" stroke-width="2" fill="none"></circle>
<circle cx="2293.15" cy="1761.47" r="4" stroke="rgb(255,0,0)" stroke-width="2" fill="none"></circle>
<circle cx="6536.03" cy="1282.18" r="4" stroke="rgb(255,0,0)" stroke-width="2" fill="none"></circle>
<circle cx="1634.8" cy="2354.2" r="4" stroke="rgb(0,255,59)" stroke-width="2" fill="none"></circle>
<circle cx="6576.03" cy="1477.7" r="4" stroke="rgb(0,255,59)" stroke-width="2" fill="none"></circle>
<circle cx="1513.03" cy="365.665" r="4" stroke="rgb(148,0,255)" stroke-width="2" fill="none"></circle>
<circle cx="5055.88" cy="1711.9" r="4" stroke="rgb(148,0,255)" stroke-width="2" fill="none"></circle>
<circle cx="1693.9" cy="1760.56" r="4" stroke="rgb(255,0,21)" stroke-width="2" fill="none"></circle>
<circle cx="5472.82" cy="2125.85" r="4" stroke="rgb(255,0,21)" stroke-width="2" fill="none"></circle>
<circle cx="2191.88" cy="1622.68" r="4" stroke="rgb(0,80,255)" stroke-width="2" fill="none"></circle>
<circle cx="6154.65" cy="818.453" r="4" stroke="rgb(0,80,255)" stroke-width="2" fill="none"></circle>
<circle cx="2615.24" cy="1400.77" r="4" stroke="rgb(0,255,174)" stroke-width="2" fill="none"></circle>
<circle cx="5281.2" cy="1538.8" r="4" stroke="rgb(0,255,174)" stroke-width="2" fill="none"></circle>
<circle cx="1513.03" cy="365.665" r="4" stroke="rgb(0,89,255)" stroke-width="2" fill="none"></circle>
<circle cx="5056.34" cy="1711.07" r="4" stroke="rgb(0,89,255)" stroke-width="2" fill="none"></circle>
<circle cx="2006.75" cy="2351.56" r="4" stroke="rgb(255,38,0)" stroke-width="2" fill="none"></circle>
<circle cx="6552.06" cy="1003.79" r="4" stroke="rgb(255,38,0)" stroke-width="2" fill="none"></circle>
<circle cx="1640.78" cy="1529.86" r="4" stroke="rgb(195,255,0)" stroke-width="2" fill="none"></circle>
<circle cx="5915.5" cy="1472.2" r="4" stroke="rgb(195,255,0)" stroke-width="2" fill="none"></circle>
<circle cx="2302.95" cy="1490.12" r="4" stroke="rgb(76,0,255)" stroke-width="2" fill="none"></circle>
<circle cx="5610.21" cy="1540.29" r="4" stroke="rgb(76,0,255)" stroke-width="2" fill="none"></circle>
<circle cx="2751.07" cy="1614.01" r="4" stroke="rgb(255,195,0)" stroke-width="2" fill="none"></circle>
<circle cx="5607.12" cy="1961.2" r="4" stroke="rgb(255,195,0)" stroke-width="2" fill="none"></circle>
</svg>