<?xml version="1.0" standalone="yes"?>
<!-- SVG graphic -->
<svg xmlns='http://www.w3.org/2000/svg' xmlns:xlink='http://www.w3.org/1999/xlink'
width="8064px" height="3024px" preserveAspectRatio="xMinYMin meet" viewBox="0 0 8064 3024" version="1.1">
<image x="0" y="0" width="4032px" height="3024px" opacity="1" xlink:href="/home/jeong/Code/2D-to-3D-Modeling-using-AI/Make3D/Image/20200227_180620.jpg"/>
<image x="4032" y="0" width="4032px" height="3024px" opacity="1" xlink:href="/home/jeong/Code/2D-to-3D-Modeling-using-AI/Make3D/Image/20200227_180718.jpg"/>
<polyline points="1669.17,1593.53,5344.04,997.845" stroke="rgb(255,131,0)" stroke-width="2" fill="none"></polyline>
<polyline points="1669.17,1593.53,5344.04,997.845" stroke="rgb(76,0,255)" stroke-width="2" fill="none"></polyline>
<polyline points="860.449,2510.12,5831.77,686.353" stroke="rgb(0,178,255)" stroke-width="2" fill="none"></polyline>
<polyline points="1348.29,543.371,5993.91,538.436" stroke="rgb(216,0,255)" stroke-width="2" fill="none"></polyline>
<polyline points="1004.11,455.819,6218.84,742.959" stroke="rgb(255,0,174)" stroke-width="2" fill="none"></polyline>
<polyline points="2139.05,1908.12,5479.3,1330.54" stroke="rgb(55,0,255)" stroke-width="2" fill="none"></polyline>
<polyline points="1123.91,833.363,5251.08,1828.39" stroke="rgb(255,0,212)" stroke-width="2" fill="none"></polyline>
<polyline points="1546.64,1210.91,5232.64,1036.99" stroke="rgb(0,255,152)" stroke-width="2" fill="none"></polyline>
<polyline points="1546.64,1210.91,5232.64,1036.99" stroke="rgb(0,255,216)" stroke-width="2" fill="none"></polyline>
<polyline points="1593.11,1105.73,5226.01,1044.07" stroke="rgb(38,255,0)" stroke-width="2" fill="none"></polyline>
<polyline points="1175.55,818.494,5110.86,1340.92" stroke="rgb(0,255,144)" stroke-width="2" fill="none"></polyline>
<polyline points="1679.53,1537.17,5491.26,875.994" stroke="rgb(106,255,0)" stroke-width="2" fill="none"></polyline>
<polyline points="1279.86,292.814,6212.6,825.435" stroke="rgb(63,0,255)" stroke-width="2" fill="none"></polyline>
<polyline points="1518.12,1218.71,5235.58,1056.85" stroke="rgb(0,101,255)" stroke-width="2" fill="none"></polyline>
<polyline points="1518.12,1218.71,5235.58,1056.85" stroke="rgb(0,255,225)" stroke-width="2" fill="none"></polyline>
<polyline points="884.024,2356.41,5897.27,857.113" stroke="rgb(0,63,255)" stroke-width="2" fill="none"></polyline>
<polyline points="1572.12,947.117,5520.95,867.487" stroke="rgb(0,255,229)" stroke-width="2" fill="none"></polyline>
<polyline points="1553.12,1109.15,5218.36,1066.81" stroke="rgb(0,255,199)" stroke-width="2" fill="none"></polyline>
<polyline points="1640.78,1529.86,5444.86,889.1" stroke="rgb(59,0,255)" stroke-width="2" fill="none"></polyline>
<polyline points="1578.29,1537.14,5506.38,964.073" stroke="rgb(255,97,0)" stroke-width="2" fill="none"></polyline>
<polyline points="1572.97,1502.11,5477.35,970.106" stroke="rgb(80,0,255)" stroke-width="2" fill="none"></polyline>
<polyline points="1572.97,1502.11,5477.35,970.106" stroke="rgb(0,21,255)" stroke-width="2" fill="none"></polyline>
<polyline points="1643.87,1462.74,5438.83,917.835" stroke="rgb(89,255,0)" stroke-width="2" fill="none"></polyline>
<polyline points="1573.66,1481.37,5459.29,972.224" stroke="rgb(80,255,0)" stroke-width="2" fill="none"></polyline>
<polyline points="1643.87,1462.74,5438.83,917.835" stroke="rgb(255,0,212)" stroke-width="2" fill="none"></polyline>
<polyline points="1693.17,1729.61,5411.44,928.799" stroke="rgb(0,255,21)" stroke-width="2" fill="none"></polyline>
<polyline points="1512.55,1160.43,5263.33,1102.88" stroke="rgb(29,0,255)" stroke-width="2" fill="none"></polyline>
<polyline points="1693.17,1729.61,5403.62,947.927" stroke="rgb(0,174,255)" stroke-width="2" fill="none"></polyline>
<polyline points="1692.44,1565.18,5513.07,863.058" stroke="rgb(0,8,255)" stroke-width="2" fill="none"></polyline>
<polyline points="1559.94,1484.2,5463.06,983.583" stroke="rgb(255,0,25)" stroke-width="2" fill="none"></polyline>
<polyline points="1420.41,838.482,5396.05,958.005" stroke="rgb(255,0,42)" stroke-width="2" fill="none"></polyline>
<polyline points="1429.89,864.722,5518,960.663" stroke="rgb(0,255,89)" stroke-width="2" fill="none"></polyline>
<polyline points="884.024,2356.41,6001.85,986.929" stroke="rgb(0,255,16)" stroke-width="2" fill="none"></polyline>
<polyline points="1613.75,1384.14,5392.11,962.831" stroke="rgb(250,255,0)" stroke-width="2" fill="none"></polyline>
<polyline points="1613.75,1384.14,5392.11,962.831" stroke="rgb(203,255,0)" stroke-width="2" fill="none"></polyline>
<polyline points="1560.6,936.728,5318.86,994.098" stroke="rgb(157,255,0)" stroke-width="2" fill="none"></polyline>
<polyline points="1567.86,1489.52,5466.25,976.095" stroke="rgb(255,0,195)" stroke-width="2" fill="none"></polyline>
<polyline points="1506.11,1186.72,5287.39,1113.95" stroke="rgb(255,93,0)" stroke-width="2" fill="none"></polyline>
<polyline points="1567.86,1489.52,5466.25,976.095" stroke="rgb(33,255,0)" stroke-width="2" fill="none"></polyline>
<polyline points="884.024,2356.41,5908.98,878.075" stroke="rgb(255,0,12)" stroke-width="2" fill="none"></polyline>
<polyline points="2034.19,837.78,5608.08,978.072" stroke="rgb(255,21,0)" stroke-width="2" fill="none"></polyline>
<polyline points="1563.61,1497.67,5472.88,979.308" stroke="rgb(110,0,255)" stroke-width="2" fill="none"></polyline>
<polyline points="1458.8,909.159,5511.76,878.854" stroke="rgb(114,255,0)" stroke-width="2" fill="none"></polyline>
<polyline points="1563.61,1497.67,5472.88,979.308" stroke="rgb(0,255,50)" stroke-width="2" fill="none"></polyline>
<polyline points="1555.02,1470.42,5452.95,990.6" stroke="rgb(255,0,21)" stroke-width="2" fill="none"></polyline>
<polyline points="2312.06,716.928,5782.4,990.454" stroke="rgb(110,0,255)" stroke-width="2" fill="none"></polyline>
<polyline points="1470.35,1158.23,5253.49,1125.56" stroke="rgb(0,42,255)" stroke-width="2" fill="none"></polyline>
<polyline points="1470.35,1158.23,5253.49,1125.56" stroke="rgb(0,255,208)" stroke-width="2" fill="none"></polyline>
<polyline points="2271.67,2181.05,5203.71,1402.16" stroke="rgb(255,0,229)" stroke-width="2" fill="none"></polyline>
<polyline points="1526.19,928.748,5315.58,1020.41" stroke="rgb(0,255,16)" stroke-width="2" fill="none"></polyline>
<polyline points="1631.59,1486.65,5457.52,923.469" stroke="rgb(237,255,0)" stroke-width="2" fill="none"></polyline>
<polyline points="1557.17,876.01,5367.71,1027.79" stroke="rgb(0,148,255)" stroke-width="2" fill="none"></polyline>
<polyline points="1663.95,1723.72,5413.92,947.794" stroke="rgb(0,38,255)" stroke-width="2" fill="none"></polyline>
<polyline points="1663.95,1723.72,5413.92,947.794" stroke="rgb(0,255,182)" stroke-width="2" fill="none"></polyline>
<polyline points="1426.68,810.912,5372.98,1044" stroke="rgb(255,0,229)" stroke-width="2" fill="none"></polyline>
<polyline points="1426.68,810.912,5372.98,1044" stroke="rgb(0,250,255)" stroke-width="2" fill="none"></polyline>
<polyline points="1547.21,1302.8,5348.63,1040.45" stroke="rgb(208,0,255)" stroke-width="2" fill="none"></polyline>
<polyline points="1584.42,1476.48,5454.66,964.412" stroke="rgb(0,199,255)" stroke-width="2" fill="none"></polyline>
<polyline points="1549.72,970.63,5325.02,1057.39" stroke="rgb(55,0,255)" stroke-width="2" fill="none"></polyline>
<polyline points="1663.95,1723.72,5519.63,966.779" stroke="rgb(255,165,0)" stroke-width="2" fill="none"></polyline>
<polyline points="1422.38,865.802,5519.63,966.779" stroke="rgb(255,250,0)" stroke-width="2" fill="none"></polyline>
<polyline points="1700.31,1602.53,5347.02,970.136" stroke="rgb(12,0,255)" stroke-width="2" fill="none"></polyline>
<polyline points="1206.73,308.037,5145.51,1068.44" stroke="rgb(0,255,254)" stroke-width="2" fill="none"></polyline>
<polyline points="1565.87,1112.64,5227.63,1060.84" stroke="rgb(0,237,255)" stroke-width="2" fill="none"></polyline>
<polyline points="1565.87,1112.64,5227.63,1060.84" stroke="rgb(255,0,237)" stroke-width="2" fill="none"></polyline>
<polyline points="1407.93,1405.29,5449.04,1164.7" stroke="rgb(0,255,21)" stroke-width="2" fill="none"></polyline>
<polyline points="1562.67,1475.01,5455.22,982.533" stroke="rgb(0,255,80)" stroke-width="2" fill="none"></polyline>
<polyline points="1684.4,1589.02,5338.77,985.058" stroke="rgb(0,255,42)" stroke-width="2" fill="none"></polyline>
<polyline points="1684.4,1589.02,5338.77,985.058" stroke="rgb(255,80,0)" stroke-width="2" fill="none"></polyline>
<polyline points="2138.28,1925.07,6158.28,1171.56" stroke="rgb(46,0,255)" stroke-width="2" fill="none"></polyline>
<polyline points="1969.7,868.183,5891.7,1076.3" stroke="rgb(0,255,33)" stroke-width="2" fill="none"></polyline>
<polyline points="1668.58,1475.07,5039.83,1179.11" stroke="rgb(255,106,0)" stroke-width="2" fill="none"></polyline>
<polyline points="1577.13,1112.2,5303.44,1100.12" stroke="rgb(255,127,0)" stroke-width="2" fill="none"></polyline>
<polyline points="1577.13,1112.2,5303.44,1100.12" stroke="rgb(114,255,0)" stroke-width="2" fill="none"></polyline>
<polyline points="1574.71,1121.16,5309.59,1100.76" stroke="rgb(255,123,0)" stroke-width="2" fill="none"></polyline>
<polyline points="1816.1,521.834,5136.16,1092.19" stroke="rgb(255,106,0)" stroke-width="2" fill="none"></polyline>
<polyline points="2373.63,1525.7,6374.11,1109.42" stroke="rgb(255,0,4)" stroke-width="2" fill="none"></polyline>
<polyline points="1858.29,1150.64,6670.94,1433.26" stroke="rgb(80,0,255)" stroke-width="2" fill="none"></polyline>
<polyline points="1453.5,1099.25,5199.07,1128.06" stroke="rgb(0,195,255)" stroke-width="2" fill="none"></polyline>
<polyline points="1372.14,1740.9,5417.42,1183.62" stroke="rgb(0,255,242)" stroke-width="2" fill="none"></polyline>
<polyline points="1008.4,990.591,5002.01,1464.39" stroke="rgb(255,102,0)" stroke-width="2" fill="none"></polyline>
<polyline points="2007.39,779.033,5862.05,1316.58" stroke="rgb(0,255,42)" stroke-width="2" fill="none"></polyline>
<polyline points="2561.35,1551.72,6668.44,1237.72" stroke="rgb(63,0,255)" stroke-width="2" fill="none"></polyline>
<polyline points="941.22,884.187,5648.87,1343.45" stroke="rgb(0,255,29)" stroke-width="2" fill="none"></polyline>
<polyline points="1372.14,1740.9,5173.44,1345.85" stroke="rgb(229,0,255)" stroke-width="2" fill="none"></polyline>
<polyline points="1372.14,1740.9,5173.44,1345.85" stroke="rgb(0,165,255)" stroke-width="2" fill="none"></polyline>
<polyline points="1306.58,1301.8,5368.25,1278.96" stroke="rgb(255,0,216)" stroke-width="2" fill="none"></polyline>
<polyline points="940.697,874.283,4666.37,1613.99" stroke="rgb(106,255,0)" stroke-width="2" fill="none"></polyline>
<polyline points="2026.17,1501.08,5479.02,1773.88" stroke="rgb(114,0,255)" stroke-width="2" fill="none"></polyline>
<polyline points="2653.27,1928.14,4856.53,1539.18" stroke="rgb(0,161,255)" stroke-width="2" fill="none"></polyline>
<polyline points="2363.55,1955.11,5515.19,1757.59" stroke="rgb(0,255,59)" stroke-width="2" fill="none"></polyline>
<polyline points="2327.78,1773.35,5115.79,1814.61" stroke="rgb(0,178,255)" stroke-width="2" fill="none"></polyline>
<polyline points="1859.7,647.228,5889.05,1700.35" stroke="rgb(255,0,182)" stroke-width="2" fill="none"></polyline>
<polyline points="1566.18,1466.08,5448.81,981.243" stroke="rgb(0,229,255)" stroke-width="2" fill="none"></polyline>
<polyline points="1088.85,717.89,6109.04,809.686" stroke="rgb(255,93,0)" stroke-width="2" fill="none"></polyline>
<polyline points="1669.51,2455.84,6090.49,833.359" stroke="rgb(0,255,59)" stroke-width="2" fill="none"></polyline>
<polyline points="1679.53,1537.17,5491.52,876.137" stroke="rgb(255,0,208)" stroke-width="2" fill="none"></polyline>
<polyline points="1428.06,830.012,5389.8,954.487" stroke="rgb(255,144,0)" stroke-width="2" fill="none"></polyline>
<polyline points="1372.14,1740.9,5171.44,1344.1" stroke="rgb(102,0,255)" stroke-width="2" fill="none"></polyline>
<polyline points="1510.79,1168.66,5270.21,1105.64" stroke="rgb(0,157,255)" stroke-width="2" fill="none"></polyline>
<polyline points="1510.79,1168.66,5270.21,1105.64" stroke="rgb(191,0,255)" stroke-width="2" fill="none"></polyline>
<polyline points="1512.08,1208.65,5304.19,1107.43" stroke="rgb(102,0,255)" stroke-width="2" fill="none"></polyline>
<polyline points="849.111,811.637,6612.77,1439.09" stroke="rgb(0,51,255)" stroke-width="2" fill="none"></polyline>
<polyline points="1372.14,1740.9,5417.8,1183.39" stroke="rgb(255,0,191)" stroke-width="2" fill="none"></polyline>
<polyline points="2125.72,2278.11,6219.91,1337.91" stroke="rgb(255,0,12)" stroke-width="2" fill="none"></polyline>
<polyline points="2458.33,2178.77,6227.76,1695.49" stroke="rgb(0,255,38)" stroke-width="2" fill="none"></polyline>
<polyline points="2552.55,1786.58,5788.11,1792.96" stroke="rgb(0,119,255)" stroke-width="2" fill="none"></polyline>
<polyline points="2350.91,2307.29,6092.32,1147.61" stroke="rgb(0,46,255)" stroke-width="2" fill="none"></polyline>
<polyline points="2035.5,1113.5,6331.42,1174.58" stroke="rgb(255,123,0)" stroke-width="2" fill="none"></polyline>
<polyline points="1249.79,1447.14,5802.75,1214.82" stroke="rgb(161,0,255)" stroke-width="2" fill="none"></polyline>
<polyline points="2302.95,1490.12,5760.62,1623.75" stroke="rgb(255,195,0)" stroke-width="2" fill="none"></polyline>
<polyline points="2167.95,927.514,6141.04,1679.17" stroke="rgb(191,0,255)" stroke-width="2" fill="none"></polyline>
<polyline points="2522.61,1221.32,6415.13,1588.21" stroke="rgb(255,208,0)" stroke-width="2" fill="none"></polyline>
<circle cx="1669.17" cy="1593.53" r="4" stroke="rgb(255,131,0)" stroke-width="2" fill="none"></circle>
<circle cx="5344.04" cy="997.845" r="4" stroke="rgb(255,131,0)" stroke-width="2" fill="none"></circle>
<circle cx="1669.17" cy="1593.53" r="4" stroke="rgb(76,0,255)" stroke-width="2" fill="none"></circle>
<circle cx="5344.04" cy="997.845" r="4" stroke="rgb(76,0,255)" stroke-width="2" fill="none"></circle>
<circle cx="860.449" cy="2510.12" r="4" stroke="rgb(0,178,255)" stroke-width="2" fill="none"></circle>
<circle cx="5831.77" cy="686.353" r="4" stroke="rgb(0,178,255)" stroke-width="2" fill="none"></circle>
<circle cx="1348.29" cy="543.371" r="4" stroke="rgb(216,0,255)" stroke-width="2" fill="none"></circle>
<circle cx="5993.91" cy="538.436" r="4" stroke="rgb(216,0,255)" stroke-width="2" fill="none"></circle>
<circle cx="1004.11" cy="455.819" r="4" stroke="rgb(255,0,174)" stroke-width="2" fill="none"></circle>
<circle cx="6218.84" cy="742.959" r="4" stroke="rgb(255,0,174)" stroke-width="2" fill="none"></circle>
<circle cx="2139.05" cy="1908.12" r="4" stroke="rgb(55,0,255)" stroke-width="2" fill="none"></circle>
<circle cx="5479.3" cy="1330.54" r="4" stroke="rgb(55,0,255)" stroke-width="2" fill="none"></circle>
<circle cx="1123.91" cy="833.363" r="4" stroke="rgb(255,0,212)" stroke-width="2" fill="none"></circle>
<circle cx="5251.08" cy="1828.39" r="4" stroke="rgb(255,0,212)" stroke-width="2" fill="none"></circle>
<circle cx="1546.64" cy="1210.91" r="4" stroke="rgb(0,255,152)" stroke-width="2" fill="none"></circle>
<circle cx="5232.64" cy="1036.99" r="4" stroke="rgb(0,255,152)" stroke-width="2" fill="none"></circle>
<circle cx="1546.64" cy="1210.91" r="4" stroke="rgb(0,255,216)" stroke-width="2" fill="none"></circle>
<circle cx="5232.64" cy="1036.99" r="4" stroke="rgb(0,255,216)" stroke-width="2" fill="none"></circle>
<circle cx="1593.11" cy="1105.73" r="4" stroke="rgb(38,255,0)" stroke-width="2" fill="none"></circle>
<circle cx="5226.01" cy="1044.07" r="4" stroke="rgb(38,255,0)" stroke-width="2" fill="none"></circle>
<circle cx="1175.55" cy="818.494" r="4" stroke="rgb(0,255,144)" stroke-width="2" fill="none"></circle>
<circle cx="5110.86" cy="1340.92" r="4" stroke="rgb(0,255,144)" stroke-width="2" fill="none"></circle>
<circle cx="1679.53" cy="1537.17" r="4" stroke="rgb(106,255,0)" stroke-width="2" fill="none"></circle>
<circle cx="5491.26" cy="875.994" r="4" stroke="rgb(106,255,0)" stroke-width="2" fill="none"></circle>
<circle cx="1279.86" cy="292.814" r="4" stroke="rgb(63,0,255)" stroke-width="2" fill="none"></circle>
<circle cx="6212.6" cy="825.435" r="4" stroke="rgb(63,0,255)" stroke-width="2" fill="none"></circle>
<circle cx="1518.12" cy="1218.71" r="4" stroke="rgb(0,101,255)" stroke-width="2" fill="none"></circle>
<circle cx="5235.58" cy="1056.85" r="4" stroke="rgb(0,101,255)" stroke-width="2" fill="none"></circle>
<circle cx="1518.12" cy="1218.71" r="4" stroke="rgb(0,255,225)" stroke-width="2" fill="none"></circle>
<circle cx="5235.58" cy="1056.85" r="4" stroke="rgb(0,255,225)" stroke-width="2" fill="none"></circle>
<circle cx="884.024" cy="2356.41" r="4" stroke="rgb(0,63,255)" stroke-width="2" fill="none"></circle>
<circle cx="5897.27" cy="857.113" r="4" stroke="rgb(0,63,255)" stroke-width="2" fill="none"></circle>
<circle cx="1572.12" cy="947.117" r="4" stroke="rgb(0,255,229)" stroke-width="2" fill="none"></circle>
<circle cx="5520.95" cy="867.487" r="4" stroke="rgb(0,255,229)" stroke-width="2" fill="none"></circle>
<circle cx="1553.12" cy="1109.15" r="4" stroke="rgb(0,255,199)" stroke-width="2" fill="none"></circle>
<circle cx="5218.36" cy="1066.81" r="4" stroke="rgb(0,255,199)" stroke-width="2" fill="none"></circle>
<circle cx="1640.78" cy="1529.86" r="4" stroke="rgb(59,0,255)" stroke-width="2" fill="none"></circle>
<circle cx="5444.86" cy="889.1" r="4" stroke="rgb(59,0,255)" stroke-width="2" fill="none"></circle>
<circle cx="1578.29" cy="1537.14" r="4" stroke="rgb(255,97,0)" stroke-width="2" fill="none"></circle>
<circle cx="5506.38" cy="964.073" r="4" stroke="rgb(255,97,0)" stroke-width="2" fill="none"></circle>
<circle cx="1572.97" cy="1502.11" r="4" stroke="rgb(80,0,255)" stroke-width="2" fill="none"></circle>
<circle cx="5477.35" cy="970.106" r="4" stroke="rgb(80,0,255)" stroke-width="2" fill="none"></circle>
<circle cx="1572.97" cy="1502.11" r="4" stroke="rgb(0,21,255)" stroke-width="2" fill="none"></circle>
<circle cx="5477.35" cy="970.106" r="4" stroke="rgb(0,21,255)" stroke-width="2" fill="none"></circle>
<circle cx="1643.87" cy="1462.74" r="4" stroke="rgb(89,255,0)" stroke-width="2" fill="none"></circle>
<circle cx="5438.83" cy="917.835" r="4" stroke="rgb(89,255,0)" stroke-width="2" fill="none"></circle>
<circle cx="1573.66" cy="1481.37" r="4" stroke="rgb(80,255,0)" stroke-width="2" fill="none"></circle>
<circle cx="5459.29" cy="972.224" r="4" stroke="rgb(80,255,0)" stroke-width="2" fill="none"></circle>
<circle cx="1643.87" cy="1462.74" r="4" stroke="rgb(255,0,212)" stroke-width="2" fill="none"></circle>
<circle cx="5438.83" cy="917.835" r="4" stroke="rgb(255,0,212)" stroke-width="2" fill="none"></circle>
<circle cx="1693.17" cy="1729.61" r="4" stroke="rgb(0,255,21)" stroke-width="2" fill="none"></circle>
<circle cx="5411.44" cy="928.799" r="4" stroke="rgb(0,255,21)" stroke-width="2" fill="none"></circle>
<circle cx="1512.55" cy="1160.43" r="4" stroke="rgb(29,0,255)" stroke-width="2" fill="none"></circle>
<circle cx="5263.33" cy="1102.88" r="4" stroke="rgb(29,0,255)" stroke-width="2" fill="none"></circle>
<circle cx="1693.17" cy="1729.61" r="4" stroke="rgb(0,174,255)" stroke-width="2" fill="none"></circle>
<circle cx="5403.62" cy="947.927" r="4" stroke="rgb(0,174,255)" stroke-width="2" fill="none"></circle>
<circle cx="1692.44" cy="1565.18" r="4" stroke="rgb(0,8,255)" stroke-width="2" fill="none"></circle>
<circle cx="5513.07" cy="863.058" r="4" stroke="rgb(0,8,255)" stroke-width="2" fill="none"></circle>
<circle cx="1559.94" cy="1484.2" r="4" stroke="rgb(255,0,25)" stroke-width="2" fill="none"></circle>
<circle cx="5463.06" cy="983.583" r="4" stroke="rgb(255,0,25)" stroke-width="2" fill="none"></circle>
<circle cx="1420.41" cy="838.482" r="4" stroke="rgb(255,0,42)" stroke-width="2" fill="none"></circle>
<circle cx="5396.05" cy="958.005" r="4" stroke="rgb(255,0,42)" stroke-width="2" fill="none"></circle>
<circle cx="1429.89" cy="864.722" r="4" stroke="rgb(0,255,89)" stroke-width="2" fill="none"></circle>
<circle cx="5518" cy="960.663" r="4" stroke="rgb(0,255,89)" stroke-width="2" fill="none"></circle>
<circle cx="884.024" cy="2356.41" r="4" stroke="rgb(0,255,16)" stroke-width="2" fill="none"></circle>
<circle cx="6001.85" cy="986.929" r="4" stroke="rgb(0,255,16)" stroke-width="2" fill="none"></circle>
<circle cx="1613.75" cy="1384.14" r="4" stroke="rgb(250,255,0)" stroke-width="2" fill="none"></circle>
<circle cx="5392.11" cy="962.831" r="4" stroke="rgb(250,255,0)" stroke-width="2" fill="none"></circle>
<circle cx="1613.75" cy="1384.14" r="4" stroke="rgb(203,255,0)" stroke-width="2" fill="none"></circle>
<circle cx="5392.11" cy="962.831" r="4" stroke="rgb(203,255,0)" stroke-width="2" fill="none"></circle>
<circle cx="1560.6" cy="936.728" r="4" stroke="rgb(157,255,0)" stroke-width="2" fill="none"></circle>
<circle cx="5318.86" cy="994.098" r="4" stroke="rgb(157,255,0)" stroke-width="2" fill="none"></circle>
<circle cx="1567.86" cy="1489.52" r="4" stroke="rgb(255,0,195)" stroke-width="2" fill="none"></circle>
<circle cx="5466.25" cy="976.095" r="4" stroke="rgb(255,0,195)" stroke-width="2" fill="none"></circle>
<circle cx="1506.11" cy="1186.72" r="4" stroke="rgb(255,93,0)" stroke-width="2" fill="none"></circle>
<circle cx="5287.39" cy="1113.95" r="4" stroke="rgb(255,93,0)" stroke-width="2" fill="none"></circle>
<circle cx="1567.86" cy="1489.52" r="4" stroke="rgb(33,255,0)" stroke-width="2" fill="none"></circle>
<circle cx="5466.25" cy="976.095" r="4" stroke="rgb(33,255,0)" stroke-width="2" fill="none"></circle>
<circle cx="884.024" cy="2356.41" r="4" stroke="rgb(255,0,12)" stroke-width="2" fill="none"></circle>
<circle cx="5908.98" cy="878.075" r="4" stroke="rgb(255,0,12)" stroke-width="2" fill="none"></circle>
<circle cx="2034.19" cy="837.78" r="4" stroke="rgb(255,21,0)" stroke-width="2" fill="none"></circle>
<circle cx="5608.08" cy="978.072" r="4" stroke="rgb(255,21,0)" stroke-width="2" fill="none"></circle>
<circle cx="1563.61" cy="1497.67" r="4" stroke="rgb(110,0,255)" stroke-width="2" fill="none"></circle>
<circle cx="5472.88" cy="979.308" r="4" stroke="rgb(110,0,255)" stroke-width="2" fill="none"></circle>
<circle cx="1458.8" cy="909.159" r="4" stroke="rgb(114,255,0)" stroke-width="2" fill="none"></circle>
<circle cx="5511.76" cy="878.854" r="4" stroke="rgb(114,255,0)" stroke-width="2" fill="none"></circle>
<circle cx="1563.61" cy="1497.67" r="4" stroke="rgb(0,255,50)" stroke-width="2" fill="none"></circle>
<circle cx="5472.88" cy="979.308" r="4" stroke="rgb(0,255,50)" stroke-width="2" fill="none"></circle>
<circle cx="1555.02" cy="1470.42" r="4" stroke="rgb(255,0,21)" stroke-width="2" fill="none"></circle>
<circle cx="5452.95" cy="990.6" r="4" stroke="rgb(255,0,21)" stroke-width="2" fill="none"></circle>
<circle cx="2312.06" cy="716.928" r="4" stroke="rgb(110,0,255)" stroke-width="2" fill="none"></circle>
<circle cx="5782.4" cy="990.454" r="4" stroke="rgb(110,0,255)" stroke-width="2" fill="none"></circle>
<circle cx="1470.35" cy="1158.23" r="4" stroke="rgb(0,42,255)" stroke-width="2" fill="none"></circle>
<circle cx="5253.49" cy="1125.56" r="4" stroke="rgb(0,42,255)" stroke-width="2" fill="none"></circle>
<circle cx="1470.35" cy="1158.23" r="4" stroke="rgb(0,255,208)" stroke-width="2" fill="none"></circle>
<circle cx="5253.49" cy="1125.56" r="4" stroke="rgb(0,255,208)" stroke-width="2" fill="none"></circle>
<circle cx="2271.67" cy="2181.05" r="4" stroke="rgb(255,0,229)" stroke-width="2" fill="none"></circle>
<circle cx="5203.71" cy="1402.16" r="4" stroke="rgb(255,0,229)" stroke-width="2" fill="none"></circle>
<circle cx="1526.19" cy="928.748" r="4" stroke="rgb(0,255,16)" stroke-width="2" fill="none"></circle>
<circle cx="5315.58" cy="1020.41" r="4" stroke="rgb(0,255,16)" stroke-width="2" fill="none"></circle>
<circle cx="1631.59" cy="1486.65" r="4" stroke="rgb(237,255,0)" stroke-width="2" fill="none"></circle>
<circle cx="5457.52" cy="923.469" r="4" stroke="rgb(237,255,0)" stroke-width="2" fill="none"></circle>
<circle cx="1557.17" cy="876.01" r="4" stroke="rgb(0,148,255)" stroke-width="2" fill="none"></circle>
<circle cx="5367.71" cy="1027.79" r="4" stroke="rgb(0,148,255)" stroke-width="2" fill="none"></circle>
<circle cx="1663.95" cy="1723.72" r="4" stroke="rgb(0,38,255)" stroke-width="2" fill="none"></circle>
<circle cx="5413.92" cy="947.794" r="4" stroke="rgb(0,38,255)" stroke-width="2" fill="none"></circle>
<circle cx="1663.95" cy="1723.72" r="4" stroke="rgb(0,255,182)" stroke-width="2" fill="none"></circle>
<circle cx="5413.92" cy="947.794" r="4" stroke="rgb(0,255,182)" stroke-width="2" fill="none"></circle>
<circle cx="1426.68" cy="810.912" r="4" stroke="rgb(255,0,229)" stroke-width="2" fill="none"></circle>
<circle cx="5372.98" cy="1044" r="4" stroke="rgb(255,0,229)" stroke-width="2" fill="none"></circle>
<circle cx="1426.68" cy="810.912" r="4" stroke="rgb(0,250,255)" stroke-width="2" fill="none"></circle>
<circle cx="5372.98" cy="1044" r="4" stroke="rgb(0,250,255)" stroke-width="2" fill="none"></circle>
<circle cx="1547.21" cy="1302.8" r="4" stroke="rgb(208,0,255)" stroke-width="2" fill="none"></circle>
<circle cx="5348.63" cy="1040.45" r="4" stroke="rgb(208,0,255)" stroke-width="2" fill="none"></circle>
<circle cx="1584.42" cy="1476.48" r="4" stroke="rgb(0,199,255)" stroke-width="2" fill="none"></circle>
<circle cx="5454.66" cy="964.412" r="4" stroke="rgb(0,199,255)" stroke-width="2" fill="none"></circle>
<circle cx="1549.72" cy="970.63" r="4" stroke="rgb(55,0,255)" stroke-width="2" fill="none"></circle>
<circle cx="5325.02" cy="1057.39" r="4" stroke="rgb(55,0,255)" stroke-width="2" fill="none"></circle>
<circle cx="1663.95" cy="1723.72" r="4" stroke="rgb(255,165,0)" stroke-width="2" fill="none"></circle>
<circle cx="5519.63" cy="966.779" r="4" stroke="rgb(255,165,0)" stroke-width="2" fill="none"></circle>
<circle cx="1422.38" cy="865.802" r="4" stroke="rgb(255,250,0)" stroke-width="2" fill="none"></circle>
<circle cx="5519.63" cy="966.779" r="4" stroke="rgb(255,250,0)" stroke-width="2" fill="none"></circle>
<circle cx="1700.31" cy="1602.53" r="4" stroke="rgb(12,0,255)" stroke-width="2" fill="none"></circle>
<circle cx="5347.02" cy="970.136" r="4" stroke="rgb(12,0,255)" stroke-width="2" fill="none"></circle>
<circle cx="1206.73" cy="308.037" r="4" stroke="rgb(0,255,254)" stroke-width="2" fill="none"></circle>
<circle cx="5145.51" cy="1068.44" r="4" stroke="rgb(0,255,254)" stroke-width="2" fill="none"></circle>
<circle cx="1565.87" cy="1112.64" r="4" stroke="rgb(0,237,255)" stroke-width="2" fill="none"></circle>
<circle cx="5227.63" cy="1060.84" r="4" stroke="rgb(0,237,255)" stroke-width="2" fill="none"></circle>
<circle cx="1565.87" cy="1112.64" r="4" stroke="rgb(255,0,237)" stroke-width="2" fill="none"></circle>
<circle cx="5227.63" cy="1060.84" r="4" stroke="rgb(255,0,237)" stroke-width="2" fill="none"></circle>
<circle cx="1407.93" cy="1405.29" r="4" stroke="rgb(0,255,21)" stroke-width="2" fill="none"></circle>
<circle cx="5449.04" cy="1164.7" r="4" stroke="rgb(0,255,21)" stroke-width="2" fill="none"></circle>
<circle cx="1562.67" cy="1475.01" r="4" stroke="rgb(0,255,80)" stroke-width="2" fill="none"></circle>
<circle cx="5455.22" cy="982.533" r="4" stroke="rgb(0,255,80)" stroke-width="2" fill="none"></circle>
<circle cx="1684.4" cy="1589.02" r="4" stroke="rgb(0,255,42)" stroke-width="2" fill="none"></circle>
<circle cx="5338.77" cy="985.058" r="4" stroke="rgb(0,255,42)" stroke-width="2" fill="none"></circle>
<circle cx="1684.4" cy="1589.02" r="4" stroke="rgb(255,80,0)" stroke-width="2" fill="none"></circle>
<circle cx="5338.77" cy="985.058" r="4" stroke="rgb(255,80,0)" stroke-width="2" fill="none"></circle>
<circle cx="2138.28" cy="1925.07" r="4" stroke="rgb(46,0,255)" stroke-width="2" fill="none"></circle>
<circle cx="6158.28" cy="1171.56" r="4" stroke="rgb(46,0,255)" stroke-width="2" fill="none"></circle>
<circle cx="1969.7" cy="868.183" r="4" stroke="rgb(0,255,33)" stroke-width="2" fill="none"></circle>
<circle cx="5891.7" cy="1076.3" r="4" stroke="rgb(0,255,33)" stroke-width="2" fill="none"></circle>
<circle cx="1668.58" cy="1475.07" r="4" stroke="rgb(255,106,0)" stroke-width="2" fill="none"></circle>
<circle cx="5039.83" cy="1179.11" r="4" stroke="rgb(255,106,0)" stroke-width="2" fill="none"></circle>
<circle cx="1577.13" cy="1112.2" r="4" stroke="rgb(255,127,0)" stroke-width="2" fill="none"></circle>
<circle cx="5303.44" cy="1100.12" r="4" stroke="rgb(255,127,0)" stroke-width="2" fill="none"></circle>
<circle cx="1577.13" cy="1112.2" r="4" stroke="rgb(114,255,0)" stroke-width="2" fill="none"></circle>
<circle cx="5303.44" cy="1100.12" r="4" stroke="rgb(114,255,0)" stroke-width="2" fill="none"></circle>
<circle cx="1574.71" cy="1121.16" r="4" stroke="rgb(255,123,0)" stroke-width="2" fill="none"></circle>
<circle cx="5309.59" cy="1100.76" r="4" stroke="rgb(255,123,0)" stroke-width="2" fill="none"></circle>
<circle cx="1816.1" cy="521.834" r="4" stroke="rgb(255,106,0)" stroke-width="2" fill="none"></circle>
<circle cx="5136.16" cy="1092.19" r="4" stroke="rgb(255,106,0)" stroke-width="2" fill="none"></circle>
<circle cx="2373.63" cy="1525.7" r="4" stroke="rgb(255,0,4)" stroke-width="2" fill="none"></circle>
<circle cx="6374.11" cy="1109.42" r="4" stroke="rgb(255,0,4)" stroke-width="2" fill="none"></circle>
<circle cx="1858.29" cy="1150.64" r="4" stroke="rgb(80,0,255)" stroke-width="2" fill="none"></circle>
<circle cx="6670.94" cy="1433.26" r="4" stroke="rgb(80,0,255)" stroke-width="2" fill="none"></circle>
<circle cx="1453.5" cy="1099.25" r="4" stroke="rgb(0,195,255)" stroke-width="2" fill="none"></circle>
<circle cx="5199.07" cy="1128.06" r="4" stroke="rgb(0,195,255)" stroke-width="2" fill="none"></circle>
<circle cx="1372.14" cy="1740.9" r="4" stroke="rgb(0,255,242)" stroke-width="2" fill="none"></circle>
<circle cx="5417.42" cy="1183.62" r="4" stroke="rgb(0,255,242)" stroke-width="2" fill="none"></circle>
<circle cx="1008.4" cy="990.591" r="4" stroke="rgb(255,102,0)" stroke-width="2" fill="none"></circle>
<circle cx="5002.01" cy="1464.39" r="4" stroke="rgb(255,102,0)" stroke-width="2" fill="none"></circle>
<circle cx="2007.39" cy="779.033" r="4" stroke="rgb(0,255,42)" stroke-width="2" fill="none"></circle>
<circle cx="5862.05" cy="1316.58" r="4" stroke="rgb(0,255,42)" stroke-width="2" fill="none"></circle>
<circle cx="2561.35" cy="1551.72" r="4" stroke="rgb(63,0,255)" stroke-width="2" fill="none"></circle>
<circle cx="6668.44" cy="1237.72" r="4" stroke="rgb(63,0,255)" stroke-width="2" fill="none"></circle>
<circle cx="941.22" cy="884.187" r="4" stroke="rgb(0,255,29)" stroke-width="2" fill="none"></circle>
<circle cx="5648.87" cy="1343.45" r="4" stroke="rgb(0,255,29)" stroke-width="2" fill="none"></circle>
<circle cx="1372.14" cy="1740.9" r="4" stroke="rgb(229,0,255)" stroke-width="2" fill="none"></circle>
<circle cx="5173.44" cy="1345.85" r="4" stroke="rgb(229,0,255)" stroke-width="2" fill="none"></circle>
<circle cx="1372.14" cy="1740.9" r="4" stroke="rgb(0,165,255)" stroke-width="2" fill="none"></circle>
<circle cx="5173.44" cy="1345.85" r="4" stroke="rgb(0,165,255)" stroke-width="2" fill="none"></circle>
<circle cx="1306.58" cy="1301.8" r="4" stroke="rgb(255,0,216)" stroke-width="2" fill="none"></circle>
<circle cx="5368.25" cy="1278.96" r="4" stroke="rgb(255,0,216)" stroke-width="2" fill="none"></circle>
<circle cx="940.697" cy="874.283" r="4" stroke="rgb(106,255,0)" stroke-width="2" fill="none"></circle>
<circle cx="4666.37" cy="1613.99" r="4" stroke="rgb(106,255,0)" stroke-width="2" fill="none"></circle>
<circle cx="2026.17" cy="1501.08" r="4" stroke="rgb(114,0,255)" stroke-width="2" fill="none"></circle>
<circle cx="5479.02" cy="1773.88" r="4" stroke="rgb(114,0,255)" stroke-width="2" fill="none"></circle>
<circle cx="2653.27" cy="1928.14" r="4" stroke="rgb(0,161,255)" stroke-width="2" fill="none"></circle>
<circle cx="4856.53" cy="1539.18" r="4" stroke="rgb(0,161,255)" stroke-width="2" fill="none"></circle>
<circle cx="2363.55" cy="1955.11" r="4" stroke="rgb(0,255,59)" stroke-width="2" fill="none"></circle>
<circle cx="5515.19" cy="1757.59" r="4" stroke="rgb(0,255,59)" stroke-width="2" fill="none"></circle>
<circle cx="2327.78" cy="1773.35" r="4" stroke="rgb(0,178,255)" stroke-width="2" fill="none"></circle>
<circle cx="5115.79" cy="1814.61" r="4" stroke="rgb(0,178,255)" stroke-width="2" fill="none"></circle>
<circle cx="1859.7" cy="647.228" r="4" stroke="rgb(255,0,182)" stroke-width="2" fill="none"></circle>
<circle cx="5889.05" cy="1700.35" r="4" stroke="rgb(255,0,182)" stroke-width="2" fill="none"></circle>
<circle cx="1566.18" cy="1466.08" r="4" stroke="rgb(0,229,255)" stroke-width="2" fill="none"></circle>
<circle cx="5448.81" cy="981.243" r="4" stroke="rgb(0,229,255)" stroke-width="2" fill="none"></circle>
<circle cx="1088.85" cy="717.89" r="4" stroke="rgb(255,93,0)" stroke-width="2" fill="none"></circle>
<circle cx="6109.04" cy="809.686" r="4" stroke="rgb(255,93,0)" stroke-width="2" fill="none"></circle>
<circle cx="1669.51" cy="2455.84" r="4" stroke="rgb(0,255,59)" stroke-width="2" fill="none"></circle>
<circle cx="6090.49" cy="833.359" r="4" stroke="rgb(0,255,59)" stroke-width="2" fill="none"></circle>
<circle cx="1679.53" cy="1537.17" r="4" stroke="rgb(255,0,208)" stroke-width="2" fill="none"></circle>
<circle cx="5491.52" cy="876.137" r="4" stroke="rgb(255,0,208)" stroke-width="2" fill="none"></circle>
<circle cx="1428.06" cy="830.012" r="4" stroke="rgb(255,144,0)" stroke-width="2" fill="none"></circle>
<circle cx="5389.8" cy="954.487" r="4" stroke="rgb(255,144,0)" stroke-width="2" fill="none"></circle>
<circle cx="1372.14" cy="1740.9" r="4" stroke="rgb(102,0,255)" stroke-width="2" fill="none"></circle>
<circle cx="5171.44" cy="1344.1" r="4" stroke="rgb(102,0,255)" stroke-width="2" fill="none"></circle>
<circle cx="1510.79" cy="1168.66" r="4" stroke="rgb(0,157,255)" stroke-width="2" fill="none"></circle>
<circle cx="5270.21" cy="1105.64" r="4" stroke="rgb(0,157,255)" stroke-width="2" fill="none"></circle>
<circle cx="1510.79" cy="1168.66" r="4" stroke="rgb(191,0,255)" stroke-width="2" fill="none"></circle>
<circle cx="5270.21" cy="1105.64" r="4" stroke="rgb(191,0,255)" stroke-width="2" fill="none"></circle>
<circle cx="1512.08" cy="1208.65" r="4" stroke="rgb(102,0,255)" stroke-width="2" fill="none"></circle>
<circle cx="5304.19" cy="1107.43" r="4" stroke="rgb(102,0,255)" stroke-width="2" fill="none"></circle>
<circle cx="849.111" cy="811.637" r="4" stroke="rgb(0,51,255)" stroke-width="2" fill="none"></circle>
<circle cx="6612.77" cy="1439.09" r="4" stroke="rgb(0,51,255)" stroke-width="2" fill="none"></circle>
<circle cx="1372.14" cy="1740.9" r="4" stroke="rgb(255,0,191)" stroke-width="2" fill="none"></circle>
<circle cx="5417.8" cy="1183.39" r="4" stroke="rgb(255,0,191)" stroke-width="2" fill="none"></circle>
<circle cx="2125.72" cy="2278.11" r="4" stroke="rgb(255,0,12)" stroke-width="2" fill="none"></circle>
<circle cx="6219.91" cy="1337.91" r="4" stroke="rgb(255,0,12)" stroke-width="2" fill="none"></circle>
<circle cx="2458.33" cy="2178.77" r="4" stroke="rgb(0,255,38)" stroke-width="2" fill="none"></circle>
<circle cx="6227.76" cy="1695.49" r="4" stroke="rgb(0,255,38)" stroke-width="2" fill="none"></circle>
<circle cx="2552.55" cy="1786.58" r="4" stroke="rgb(0,119,255)" stroke-width="2" fill="none"></circle>
<circle cx="5788.11" cy="1792.96" r="4" stroke="rgb(0,119,255)" stroke-width="2" fill="none"></circle>
<circle cx="2350.91" cy="2307.29" r="4" stroke="rgb(0,46,255)" stroke-width="2" fill="none"></circle>
<circle cx="6092.32" cy="1147.61" r="4" stroke="rgb(0,46,255)" stroke-width="2" fill="none"></circle>
<circle cx="2035.5" cy="1113.5" r="4" stroke="rgb(255,123,0)" stroke-width="2" fill="none"></circle>
<circle cx="6331.42" cy="1174.58" r="4" stroke="rgb(255,123,0)" stroke-width="2" fill="none"></circle>
<circle cx="1249.79" cy="1447.14" r="4" stroke="rgb(161,0,255)" stroke-width="2" fill="none"></circle>
<circle cx="5802.75" cy="1214.82" r="4" stroke="rgb(161,0,255)" stroke-width="2" fill="none"></circle>
<circle cx="2302.95" cy="1490.12" r="4" stroke="rgb(255,195,0)" stroke-width="2" fill="none"></circle>
<circle cx="5760.62" cy="1623.75" r="4" stroke="rgb(255,195,0)" stroke-width="2" fill="none"></circle>
<circle cx="2167.95" cy="927.514" r="4" stroke="rgb(191,0,255)" stroke-width="2" fill="none"></circle>
<circle cx="6141.04" cy="1679.17" r="4" stroke="rgb(191,0,255)" stroke-width="2" fill="none"></circle>
<circle cx="2522.61" cy="1221.32" r="4" stroke="rgb(255,208,0)" stroke-width="2" fill="none"></circle>
<circle cx="6415.13" cy="1588.21" r="4" stroke="rgb(255,208,0)" stroke-width="2" fill="none"></circle>
</svg>