<?xml version="1.0" standalone="yes"?>
<!-- SVG graphic -->
<svg xmlns='http://www.w3.org/2000/svg' xmlns:xlink='http://www.w3.org/1999/xlink'
width="8064px" height="3024px" preserveAspectRatio="xMinYMin meet" viewBox="0 0 8064 3024" version="1.1">
<image x="0" y="0" width="4032px" height="3024px" opacity="1" xlink:href="/home/jeong/Code/2D-to-3D-Modeling-using-AI/Make3D/Image/20200227_180620.jpg"/>
<image x="4032" y="0" width="4032px" height="3024px" opacity="1" xlink:href="/home/jeong/Code/2D-to-3D-Modeling-using-AI/Make3D/Image/20200227_180814.jpg"/>
<polyline points="2634,1207.11,4737.97,549.085" stroke="rgb(0,42,255)" stroke-width="2" fill="none"></polyline>
<polyline points="1547.65,1446.36,4851.77,670.653" stroke="rgb(0,255,50)" stroke-width="2" fill="none"></polyline>
<polyline points="1977.82,2242.34,5900.1,1144.27" stroke="rgb(255,204,0)" stroke-width="2" fill="none"></polyline>
<polyline points="2188.66,1631.84,6934.98,1152.31" stroke="rgb(255,119,0)" stroke-width="2" fill="none"></polyline>
<polyline points="2309.05,1512.64,6138.38,1459.78" stroke="rgb(0,255,212)" stroke-width="2" fill="none"></polyline>
<polyline points="1949.96,1163.68,6470.27,1192.63" stroke="rgb(76,0,255)" stroke-width="2" fill="none"></polyline>
<polyline points="1969.7,868.183,6232.21,1768.99" stroke="rgb(255,0,161)" stroke-width="2" fill="none"></polyline>
<polyline points="1969.7,868.183,6304.85,1771.36" stroke="rgb(255,0,221)" stroke-width="2" fill="none"></polyline>
<polyline points="1898.7,849.225,5546.72,1781.78" stroke="rgb(157,255,0)" stroke-width="2" fill="none"></polyline>
<polyline points="2379.1,1473.54,5578.39,1784.86" stroke="rgb(255,0,63)" stroke-width="2" fill="none"></polyline>
<polyline points="1960.84,1173.81,5707.95,1892.5" stroke="rgb(161,255,0)" stroke-width="2" fill="none"></polyline>
<polyline points="854.311,716.783,5453.88,1486.22" stroke="rgb(255,250,0)" stroke-width="2" fill="none"></polyline>
<polyline points="2778.98,1777.08,6545.93,1917.55" stroke="rgb(0,135,255)" stroke-width="2" fill="none"></polyline>
<polyline points="2185.56,1672,5742.22,1921.19" stroke="rgb(255,0,4)" stroke-width="2" fill="none"></polyline>
<polyline points="1088.85,717.89,5384.88,880.718" stroke="rgb(51,255,0)" stroke-width="2" fill="none"></polyline>
<polyline points="1899.92,839.167,5753.94,828.131" stroke="rgb(21,0,255)" stroke-width="2" fill="none"></polyline>
<polyline points="1220.32,726.167,5999.55,939.615" stroke="rgb(255,242,0)" stroke-width="2" fill="none"></polyline>
<polyline points="1871.85,1599.79,6528.85,1703.78" stroke="rgb(25,0,255)" stroke-width="2" fill="none"></polyline>
<polyline points="1705.13,510.099,6858.92,960.777" stroke="rgb(255,97,0)" stroke-width="2" fill="none"></polyline>
<polyline points="1578.68,425.755,6959.45,985.207" stroke="rgb(221,0,255)" stroke-width="2" fill="none"></polyline>
<polyline points="2377.32,890.615,5361.17,959.858" stroke="rgb(255,127,0)" stroke-width="2" fill="none"></polyline>
<polyline points="2141.39,1322.92,6671.72,1540.86" stroke="rgb(255,51,0)" stroke-width="2" fill="none"></polyline>
<polyline points="892.292,688.648,5511.42,1765.04" stroke="rgb(0,255,50)" stroke-width="2" fill="none"></polyline>
<polyline points="892.292,688.648,5513.61,1772.4" stroke="rgb(237,255,0)" stroke-width="2" fill="none"></polyline>
<polyline points="2110.1,1552.51,5636.88,1892.25" stroke="rgb(255,0,148)" stroke-width="2" fill="none"></polyline>
<polyline points="2302.95,1490.12,6915.76,1943.76" stroke="rgb(67,0,255)" stroke-width="2" fill="none"></polyline>
<polyline points="2309.05,1512.64,5860.43,1357.69" stroke="rgb(80,0,255)" stroke-width="2" fill="none"></polyline>
<polyline points="948.101,2391.53,5695.41,2004.92" stroke="rgb(4,255,0)" stroke-width="2" fill="none"></polyline>
<polyline points="948.101,2391.53,5422.96,2008.25" stroke="rgb(255,0,46)" stroke-width="2" fill="none"></polyline>
<polyline points="2211.66,1893.36,6939.73,1065.36" stroke="rgb(0,93,255)" stroke-width="2" fill="none"></polyline>
<polyline points="2174.14,2091.71,5769.3,2087.31" stroke="rgb(255,225,0)" stroke-width="2" fill="none"></polyline>
<polyline points="1785.46,508.074,7029.19,1339.08" stroke="rgb(0,89,255)" stroke-width="2" fill="none"></polyline>
<polyline points="2348.83,2025.33,6662.68,1392.55" stroke="rgb(0,76,255)" stroke-width="2" fill="none"></polyline>
<polyline points="2243.01,1281.45,5778.63,1440.8" stroke="rgb(76,255,0)" stroke-width="2" fill="none"></polyline>
<polyline points="1979.1,2282.5,5869.9,1444.74" stroke="rgb(0,255,0)" stroke-width="2" fill="none"></polyline>
<polyline points="2348.85,901.424,6057.49,1478.61" stroke="rgb(255,136,0)" stroke-width="2" fill="none"></polyline>
<polyline points="1372.14,1740.9,5813.76,1482.81" stroke="rgb(0,33,255)" stroke-width="2" fill="none"></polyline>
<polyline points="2070.78,863.238,5905.03,1497.31" stroke="rgb(161,255,0)" stroke-width="2" fill="none"></polyline>
<polyline points="2070.78,863.238,5905.03,1497.31" stroke="rgb(255,0,85)" stroke-width="2" fill="none"></polyline>
<polyline points="2740.89,1550.96,5876.42,2318.01" stroke="rgb(0,221,255)" stroke-width="2" fill="none"></polyline>
<polyline points="1688.64,452.786,6454.91,2323.97" stroke="rgb(254,0,255)" stroke-width="2" fill="none"></polyline>
<polyline points="2064.14,2304.93,6662.06,2336.52" stroke="rgb(246,255,0)" stroke-width="2" fill="none"></polyline>
<polyline points="892.292,688.648,5879.15,2376.83" stroke="rgb(29,0,255)" stroke-width="2" fill="none"></polyline>
<polyline points="1942.7,760.144,5724.63,2363.17" stroke="rgb(255,85,0)" stroke-width="2" fill="none"></polyline>
<polyline points="2230.11,1246.36,5132.54,1051.94" stroke="rgb(229,0,255)" stroke-width="2" fill="none"></polyline>
<polyline points="2561.26,850.851,5311.5,1651.12" stroke="rgb(255,0,21)" stroke-width="2" fill="none"></polyline>
<polyline points="892.292,688.648,5183.51,1750.9" stroke="rgb(110,0,255)" stroke-width="2" fill="none"></polyline>
<polyline points="892.292,688.648,5936.12,2063.36" stroke="rgb(255,0,38)" stroke-width="2" fill="none"></polyline>
<polyline points="2036.29,1959.99,5406.59,1460.93" stroke="rgb(8,0,255)" stroke-width="2" fill="none"></polyline>
<polyline points="1877.75,892.903,6320.25,2207.26" stroke="rgb(0,255,174)" stroke-width="2" fill="none"></polyline>
<polyline points="2302.95,1490.12,5996.87,1123.91" stroke="rgb(182,0,255)" stroke-width="2" fill="none"></polyline>
<polyline points="2672.09,1901.48,5802.41,2044.66" stroke="rgb(0,255,101)" stroke-width="2" fill="none"></polyline>
<polyline points="1969.7,868.183,5835.02,1836.84" stroke="rgb(255,191,0)" stroke-width="2" fill="none"></polyline>
<polyline points="1867.17,985.373,6908.5,1451.66" stroke="rgb(203,0,255)" stroke-width="2" fill="none"></polyline>
<polyline points="2034.19,837.78,4809.53,2154.45" stroke="rgb(0,135,255)" stroke-width="2" fill="none"></polyline>
<circle cx="2634" cy="1207.11" r="4" stroke="rgb(0,42,255)" stroke-width="2" fill="none"></circle>
<circle cx="4737.97" cy="549.085" r="4" stroke="rgb(0,42,255)" stroke-width="2" fill="none"></circle>
<circle cx="1547.65" cy="1446.36" r="4" stroke="rgb(0,255,50)" stroke-width="2" fill="none"></circle>
<circle cx="4851.77" cy="670.653" r="4" stroke="rgb(0,255,50)" stroke-width="2" fill="none"></circle>
<circle cx="1977.82" cy="2242.34" r="4" stroke="rgb(255,204,0)" stroke-width="2" fill="none"></circle>
<circle cx="5900.1" cy="1144.27" r="4" stroke="rgb(255,204,0)" stroke-width="2" fill="none"></circle>
<circle cx="2188.66" cy="1631.84" r="4" stroke="rgb(255,119,0)" stroke-width="2" fill="none"></circle>
<circle cx="6934.98" cy="1152.31" r="4" stroke="rgb(255,119,0)" stroke-width="2" fill="none"></circle>
<circle cx="2309.05" cy="1512.64" r="4" stroke="rgb(0,255,212)" stroke-width="2" fill="none"></circle>
<circle cx="6138.38" cy="1459.78" r="4" stroke="rgb(0,255,212)" stroke-width="2" fill="none"></circle>
<circle cx="1949.96" cy="1163.68" r="4" stroke="rgb(76,0,255)" stroke-width="2" fill="none"></circle>
<circle cx="6470.27" cy="1192.63" r="4" stroke="rgb(76,0,255)" stroke-width="2" fill="none"></circle>
<circle cx="1969.7" cy="868.183" r="4" stroke="rgb(255,0,161)" stroke-width="2" fill="none"></circle>
<circle cx="6232.21" cy="1768.99" r="4" stroke="rgb(255,0,161)" stroke-width="2" fill="none"></circle>
<circle cx="1969.7" cy="868.183" r="4" stroke="rgb(255,0,221)" stroke-width="2" fill="none"></circle>
<circle cx="6304.85" cy="1771.36" r="4" stroke="rgb(255,0,221)" stroke-width="2" fill="none"></circle>
<circle cx="1898.7" cy="849.225" r="4" stroke="rgb(157,255,0)" stroke-width="2" fill="none"></circle>
<circle cx="5546.72" cy="1781.78" r="4" stroke="rgb(157,255,0)" stroke-width="2" fill="none"></circle>
<circle cx="2379.1" cy="1473.54" r="4" stroke="rgb(255,0,63)" stroke-width="2" fill="none"></circle>
<circle cx="5578.39" cy="1784.86" r="4" stroke="rgb(255,0,63)" stroke-width="2" fill="none"></circle>
<circle cx="1960.84" cy="1173.81" r="4" stroke="rgb(161,255,0)" stroke-width="2" fill="none"></circle>
<circle cx="5707.95" cy="1892.5" r="4" stroke="rgb(161,255,0)" stroke-width="2" fill="none"></circle>
<circle cx="854.311" cy="716.783" r="4" stroke="rgb(255,250,0)" stroke-width="2" fill="none"></circle>
<circle cx="5453.88" cy="1486.22" r="4" stroke="rgb(255,250,0)" stroke-width="2" fill="none"></circle>
<circle cx="2778.98" cy="1777.08" r="4" stroke="rgb(0,135,255)" stroke-width="2" fill="none"></circle>
<circle cx="6545.93" cy="1917.55" r="4" stroke="rgb(0,135,255)" stroke-width="2" fill="none"></circle>
<circle cx="2185.56" cy="1672" r="4" stroke="rgb(255,0,4)" stroke-width="2" fill="none"></circle>
<circle cx="5742.22" cy="1921.19" r="4" stroke="rgb(255,0,4)" stroke-width="2" fill="none"></circle>
<circle cx="1088.85" cy="717.89" r="4" stroke="rgb(51,255,0)" stroke-width="2" fill="none"></circle>
<circle cx="5384.88" cy="880.718" r="4" stroke="rgb(51,255,0)" stroke-width="2" fill="none"></circle>
<circle cx="1899.92" cy="839.167" r="4" stroke="rgb(21,0,255)" stroke-width="2" fill="none"></circle>
<circle cx="5753.94" cy="828.131" r="4" stroke="rgb(21,0,255)" stroke-width="2" fill="none"></circle>
<circle cx="1220.32" cy="726.167" r="4" stroke="rgb(255,242,0)" stroke-width="2" fill="none"></circle>
<circle cx="5999.55" cy="939.615" r="4" stroke="rgb(255,242,0)" stroke-width="2" fill="none"></circle>
<circle cx="1871.85" cy="1599.79" r="4" stroke="rgb(25,0,255)" stroke-width="2" fill="none"></circle>
<circle cx="6528.85" cy="1703.78" r="4" stroke="rgb(25,0,255)" stroke-width="2" fill="none"></circle>
<circle cx="1705.13" cy="510.099" r="4" stroke="rgb(255,97,0)" stroke-width="2" fill="none"></circle>
<circle cx="6858.92" cy="960.777" r="4" stroke="rgb(255,97,0)" stroke-width="2" fill="none"></circle>
<circle cx="1578.68" cy="425.755" r="4" stroke="rgb(221,0,255)" stroke-width="2" fill="none"></circle>
<circle cx="6959.45" cy="985.207" r="4" stroke="rgb(221,0,255)" stroke-width="2" fill="none"></circle>
<circle cx="2377.32" cy="890.615" r="4" stroke="rgb(255,127,0)" stroke-width="2" fill="none"></circle>
<circle cx="5361.17" cy="959.858" r="4" stroke="rgb(255,127,0)" stroke-width="2" fill="none"></circle>
<circle cx="2141.39" cy="1322.92" r="4" stroke="rgb(255,51,0)" stroke-width="2" fill="none"></circle>
<circle cx="6671.72" cy="1540.86" r="4" stroke="rgb(255,51,0)" stroke-width="2" fill="none"></circle>
<circle cx="892.292" cy="688.648" r="4" stroke="rgb(0,255,50)" stroke-width="2" fill="none"></circle>
<circle cx="5511.42" cy="1765.04" r="4" stroke="rgb(0,255,50)" stroke-width="2" fill="none"></circle>
<circle cx="892.292" cy="688.648" r="4" stroke="rgb(237,255,0)" stroke-width="2" fill="none"></circle>
<circle cx="5513.61" cy="1772.4" r="4" stroke="rgb(237,255,0)" stroke-width="2" fill="none"></circle>
<circle cx="2110.1" cy="1552.51" r="4" stroke="rgb(255,0,148)" stroke-width="2" fill="none"></circle>
<circle cx="5636.88" cy="1892.25" r="4" stroke="rgb(255,0,148)" stroke-width="2" fill="none"></circle>
<circle cx="2302.95" cy="1490.12" r="4" stroke="rgb(67,0,255)" stroke-width="2" fill="none"></circle>
<circle cx="6915.76" cy="1943.76" r="4" stroke="rgb(67,0,255)" stroke-width="2" fill="none"></circle>
<circle cx="2309.05" cy="1512.64" r="4" stroke="rgb(80,0,255)" stroke-width="2" fill="none"></circle>
<circle cx="5860.43" cy="1357.69" r="4" stroke="rgb(80,0,255)" stroke-width="2" fill="none"></circle>
<circle cx="948.101" cy="2391.53" r="4" stroke="rgb(4,255,0)" stroke-width="2" fill="none"></circle>
<circle cx="5695.41" cy="2004.92" r="4" stroke="rgb(4,255,0)" stroke-width="2" fill="none"></circle>
<circle cx="948.101" cy="2391.53" r="4" stroke="rgb(255,0,46)" stroke-width="2" fill="none"></circle>
<circle cx="5422.96" cy="2008.25" r="4" stroke="rgb(255,0,46)" stroke-width="2" fill="none"></circle>
<circle cx="2211.66" cy="1893.36" r="4" stroke="rgb(0,93,255)" stroke-width="2" fill="none"></circle>
<circle cx="6939.73" cy="1065.36" r="4" stroke="rgb(0,93,255)" stroke-width="2" fill="none"></circle>
<circle cx="2174.14" cy="2091.71" r="4" stroke="rgb(255,225,0)" stroke-width="2" fill="none"></circle>
<circle cx="5769.3" cy="2087.31" r="4" stroke="rgb(255,225,0)" stroke-width="2" fill="none"></circle>
<circle cx="1785.46" cy="508.074" r="4" stroke="rgb(0,89,255)" stroke-width="2" fill="none"></circle>
<circle cx="7029.19" cy="1339.08" r="4" stroke="rgb(0,89,255)" stroke-width="2" fill="none"></circle>
<circle cx="2348.83" cy="2025.33" r="4" stroke="rgb(0,76,255)" stroke-width="2" fill="none"></circle>
<circle cx="6662.68" cy="1392.55" r="4" stroke="rgb(0,76,255)" stroke-width="2" fill="none"></circle>
<circle cx="2243.01" cy="1281.45" r="4" stroke="rgb(76,255,0)" stroke-width="2" fill="none"></circle>
<circle cx="5778.63" cy="1440.8" r="4" stroke="rgb(76,255,0)" stroke-width="2" fill="none"></circle>
<circle cx="1979.1" cy="2282.5" r="4" stroke="rgb(0,255,0)" stroke-width="2" fill="none"></circle>
<circle cx="5869.9" cy="1444.74" r="4" stroke="rgb(0,255,0)" stroke-width="2" fill="none"></circle>
<circle cx="2348.85" cy="901.424" r="4" stroke="rgb(255,136,0)" stroke-width="2" fill="none"></circle>
<circle cx="6057.49" cy="1478.61" r="4" stroke="rgb(255,136,0)" stroke-width="2" fill="none"></circle>
<circle cx="1372.14" cy="1740.9" r="4" stroke="rgb(0,33,255)" stroke-width="2" fill="none"></circle>
<circle cx="5813.76" cy="1482.81" r="4" stroke="rgb(0,33,255)" stroke-width="2" fill="none"></circle>
<circle cx="2070.78" cy="863.238" r="4" stroke="rgb(161,255,0)" stroke-width="2" fill="none"></circle>
<circle cx="5905.03" cy="1497.31" r="4" stroke="rgb(161,255,0)" stroke-width="2" fill="none"></circle>
<circle cx="2070.78" cy="863.238" r="4" stroke="rgb(255,0,85)" stroke-width="2" fill="none"></circle>
<circle cx="5905.03" cy="1497.31" r="4" stroke="rgb(255,0,85)" stroke-width="2" fill="none"></circle>
<circle cx="2740.89" cy="1550.96" r="4" stroke="rgb(0,221,255)" stroke-width="2" fill="none"></circle>
<circle cx="5876.42" cy="2318.01" r="4" stroke="rgb(0,221,255)" stroke-width="2" fill="none"></circle>
<circle cx="1688.64" cy="452.786" r="4" stroke="rgb(254,0,255)" stroke-width="2" fill="none"></circle>
<circle cx="6454.91" cy="2323.97" r="4" stroke="rgb(254,0,255)" stroke-width="2" fill="none"></circle>
<circle cx="2064.14" cy="2304.93" r="4" stroke="rgb(246,255,0)" stroke-width="2" fill="none"></circle>
<circle cx="6662.06" cy="2336.52" r="4" stroke="rgb(246,255,0)" stroke-width="2" fill="none"></circle>
<circle cx="892.292" cy="688.648" r="4" stroke="rgb(29,0,255)" stroke-width="2" fill="none"></circle>
<circle cx="5879.15" cy="2376.83" r="4" stroke="rgb(29,0,255)" stroke-width="2" fill="none"></circle>
<circle cx="1942.7" cy="760.144" r="4" stroke="rgb(255,85,0)" stroke-width="2" fill="none"></circle>
<circle cx="5724.63" cy="2363.17" r="4" stroke="rgb(255,85,0)" stroke-width="2" fill="none"></circle>
<circle cx="2230.11" cy="1246.36" r="4" stroke="rgb(229,0,255)" stroke-width="2" fill="none"></circle>
<circle cx="5132.54" cy="1051.94" r="4" stroke="rgb(229,0,255)" stroke-width="2" fill="none"></circle>
<circle cx="2561.26" cy="850.851" r="4" stroke="rgb(255,0,21)" stroke-width="2" fill="none"></circle>
<circle cx="5311.5" cy="1651.12" r="4" stroke="rgb(255,0,21)" stroke-width="2" fill="none"></circle>
<circle cx="892.292" cy="688.648" r="4" stroke="rgb(110,0,255)" stroke-width="2" fill="none"></circle>
<circle cx="5183.51" cy="1750.9" r="4" stroke="rgb(110,0,255)" stroke-width="2" fill="none"></circle>
<circle cx="892.292" cy="688.648" r="4" stroke="rgb(255,0,38)" stroke-width="2" fill="none"></circle>
<circle cx="5936.12" cy="2063.36" r="4" stroke="rgb(255,0,38)" stroke-width="2" fill="none"></circle>
<circle cx="2036.29" cy="1959.99" r="4" stroke="rgb(8,0,255)" stroke-width="2" fill="none"></circle>
<circle cx="5406.59" cy="1460.93" r="4" stroke="rgb(8,0,255)" stroke-width="2" fill="none"></circle>
<circle cx="1877.75" cy="892.903" r="4" stroke="rgb(0,255,174)" stroke-width="2" fill="none"></circle>
<circle cx="6320.25" cy="2207.26" r="4" stroke="rgb(0,255,174)" stroke-width="2" fill="none"></circle>
<circle cx="2302.95" cy="1490.12" r="4" stroke="rgb(182,0,255)" stroke-width="2" fill="none"></circle>
<circle cx="5996.87" cy="1123.91" r="4" stroke="rgb(182,0,255)" stroke-width="2" fill="none"></circle>
<circle cx="2672.09" cy="1901.48" r="4" stroke="rgb(0,255,101)" stroke-width="2" fill="none"></circle>
<circle cx="5802.41" cy="2044.66" r="4" stroke="rgb(0,255,101)" stroke-width="2" fill="none"></circle>
<circle cx="1969.7" cy="868.183" r="4" stroke="rgb(255,191,0)" stroke-width="2" fill="none"></circle>
<circle cx="5835.02" cy="1836.84" r="4" stroke="rgb(255,191,0)" stroke-width="2" fill="none"></circle>
<circle cx="1867.17" cy="985.373" r="4" stroke="rgb(203,0,255)" stroke-width="2" fill="none"></circle>
<circle cx="6908.5" cy="1451.66" r="4" stroke="rgb(203,0,255)" stroke-width="2" fill="none"></circle>
<circle cx="2034.19" cy="837.78" r="4" stroke="rgb(0,135,255)" stroke-width="2" fill="none"></circle>
<circle cx="4809.53" cy="2154.45" r="4" stroke="rgb(0,135,255)" stroke-width="2" fill="none"></circle>
</svg>