<?xml version="1.0" standalone="yes"?>
<!-- SVG graphic -->
<svg xmlns='http://www.w3.org/2000/svg' xmlns:xlink='http://www.w3.org/1999/xlink'
width="8064px" height="3024px" preserveAspectRatio="xMinYMin meet" viewBox="0 0 8064 3024" version="1.1">
<image x="0" y="0" width="4032px" height="3024px" opacity="1" xlink:href="/home/jeong/Code/2D-to-3D-Modeling-using-AI/Make3D/Image/20200227_180753.jpg"/>
<image x="4032" y="0" width="4032px" height="3024px" opacity="1" xlink:href="/home/jeong/Code/2D-to-3D-Modeling-using-AI/Make3D/Image/20200227_180808.jpg"/>
<polyline points="1363.54,321.436,6102.43,1312.77" stroke="rgb(0,59,255)" stroke-width="2" fill="none"></polyline>
<polyline points="1374.16,324.369,6790.88,1543.47" stroke="rgb(255,0,80)" stroke-width="2" fill="none"></polyline>
<polyline points="1501.89,339.947,6278.33,1658.41" stroke="rgb(80,255,0)" stroke-width="2" fill="none"></polyline>
<polyline points="1503.89,361.111,6794.94,1225.3" stroke="rgb(255,246,0)" stroke-width="2" fill="none"></polyline>
<polyline points="1640.85,388.627,6279.8,1947.18" stroke="rgb(0,17,255)" stroke-width="2" fill="none"></polyline>
<polyline points="2721.07,403.324,5853.69,1339.18" stroke="rgb(0,119,255)" stroke-width="2" fill="none"></polyline>
<polyline points="2042.31,404.846,4642.94,874.99" stroke="rgb(174,0,255)" stroke-width="2" fill="none"></polyline>
<polyline points="2726.9,413.324,5936.66,1177.93" stroke="rgb(0,255,178)" stroke-width="2" fill="none"></polyline>
<polyline points="2534.85,427.808,5471.12,1304.77" stroke="rgb(255,0,68)" stroke-width="2" fill="none"></polyline>
<polyline points="1445,459.686,6167.73,1229.95" stroke="rgb(255,216,0)" stroke-width="2" fill="none"></polyline>
<polyline points="1430.25,465.859,6268.44,1797.01" stroke="rgb(0,250,255)" stroke-width="2" fill="none"></polyline>
<polyline points="2684.59,468.773,5733.87,1951.25" stroke="rgb(221,255,0)" stroke-width="2" fill="none"></polyline>
<polyline points="1683.23,470.728,6532.48,1775.9" stroke="rgb(255,29,0)" stroke-width="2" fill="none"></polyline>
<polyline points="815.794,473.885,5431.2,1340.81" stroke="rgb(0,255,233)" stroke-width="2" fill="none"></polyline>
<polyline points="1380.71,475.1,6319.68,1905.96" stroke="rgb(255,0,29)" stroke-width="2" fill="none"></polyline>
<polyline points="1683.17,477.936,6866.99,1966.18" stroke="rgb(255,0,110)" stroke-width="2" fill="none"></polyline>
<polyline points="1524.85,492.264,6207.15,1841.97" stroke="rgb(0,255,42)" stroke-width="2" fill="none"></polyline>
<polyline points="1445.66,508.276,6423.2,2005.62" stroke="rgb(0,21,255)" stroke-width="2" fill="none"></polyline>
<polyline points="1567.13,512.98,6961.23,1326.53" stroke="rgb(255,191,0)" stroke-width="2" fill="none"></polyline>
<polyline points="2652.12,513.2,6174.61,1993.77" stroke="rgb(0,255,89)" stroke-width="2" fill="none"></polyline>
<polyline points="2666.45,516.471,6369.09,1005.43" stroke="rgb(144,255,0)" stroke-width="2" fill="none"></polyline>
<polyline points="2671.11,531.563,5668.46,1925.21" stroke="rgb(255,0,204)" stroke-width="2" fill="none"></polyline>
<polyline points="2679.61,536.044,5238.44,1228.84" stroke="rgb(255,0,46)" stroke-width="2" fill="none"></polyline>
<polyline points="286.819,543.418,4653.82,896.896" stroke="rgb(255,114,0)" stroke-width="2" fill="none"></polyline>
<polyline points="1511.07,559.621,6908.55,1203.96" stroke="rgb(255,114,0)" stroke-width="2" fill="none"></polyline>
<polyline points="2831.13,579.707,6059.54,1548.24" stroke="rgb(255,63,0)" stroke-width="2" fill="none"></polyline>
<polyline points="2913.56,620.729,6219.54,1677.02" stroke="rgb(255,199,0)" stroke-width="2" fill="none"></polyline>
<polyline points="876.95,682.749,6770.42,1353.93" stroke="rgb(255,0,131)" stroke-width="2" fill="none"></polyline>
<polyline points="2211.96,716.353,5918.7,1808.22" stroke="rgb(76,0,255)" stroke-width="2" fill="none"></polyline>
<polyline points="2230.11,716.797,5816.86,1366.9" stroke="rgb(0,157,255)" stroke-width="2" fill="none"></polyline>
<polyline points="1874.14,779.258,6041.58,1285.72" stroke="rgb(59,0,255)" stroke-width="2" fill="none"></polyline>
<polyline points="1067.66,785.136,6689.17,1904" stroke="rgb(255,0,17)" stroke-width="2" fill="none"></polyline>
<polyline points="1926.66,789.587,5913.09,1929.77" stroke="rgb(0,237,255)" stroke-width="2" fill="none"></polyline>
<polyline points="1052.59,791.395,5159.63,1901.87" stroke="rgb(255,0,21)" stroke-width="2" fill="none"></polyline>
<polyline points="2989.65,807.997,7225.4,1512.2" stroke="rgb(255,233,0)" stroke-width="2" fill="none"></polyline>
<polyline points="1571.83,951.112,6000.22,1844.74" stroke="rgb(225,0,255)" stroke-width="2" fill="none"></polyline>
<polyline points="1440.25,956.874,6485.87,1747.39" stroke="rgb(174,255,0)" stroke-width="2" fill="none"></polyline>
<polyline points="1629.99,996.799,5872.13,1271.07" stroke="rgb(0,135,255)" stroke-width="2" fill="none"></polyline>
<polyline points="1060.83,1028.71,6050.07,1732.7" stroke="rgb(255,0,140)" stroke-width="2" fill="none"></polyline>
<polyline points="1127.99,1038.48,6181.74,1343.55" stroke="rgb(237,255,0)" stroke-width="2" fill="none"></polyline>
<polyline points="1613.66,1042.64,5961.48,1720.38" stroke="rgb(85,0,255)" stroke-width="2" fill="none"></polyline>
<polyline points="1841.23,1070.13,6168.62,1768.85" stroke="rgb(255,85,0)" stroke-width="2" fill="none"></polyline>
<polyline points="2365.27,1091.23,5730.26,1752.48" stroke="rgb(255,17,0)" stroke-width="2" fill="none"></polyline>
<polyline points="1627.57,1099.58,6031.78,1812.04" stroke="rgb(114,0,255)" stroke-width="2" fill="none"></polyline>
<polyline points="1709.78,1127.02,5528.51,1754.25" stroke="rgb(221,255,0)" stroke-width="2" fill="none"></polyline>
<polyline points="1745.63,1127.08,6703.75,1567.11" stroke="rgb(0,42,255)" stroke-width="2" fill="none"></polyline>
<polyline points="1569.8,1152.2,6672.07,1051.48" stroke="rgb(4,0,255)" stroke-width="2" fill="none"></polyline>
<polyline points="1454.54,1171.18,5818.41,1743.44" stroke="rgb(0,178,255)" stroke-width="2" fill="none"></polyline>
<polyline points="2569.48,1204.83,5901.02,1900.72" stroke="rgb(63,255,0)" stroke-width="2" fill="none"></polyline>
<polyline points="1781.18,1216.4,6183.58,991.158" stroke="rgb(195,0,255)" stroke-width="2" fill="none"></polyline>
<polyline points="1449.89,1219.16,6748.76,1594.05" stroke="rgb(0,123,255)" stroke-width="2" fill="none"></polyline>
<polyline points="1521.16,1219.58,6626.04,1662.73" stroke="rgb(0,208,255)" stroke-width="2" fill="none"></polyline>
<polyline points="1951.69,1229.19,6134.51,1324.81" stroke="rgb(38,255,0)" stroke-width="2" fill="none"></polyline>
<polyline points="1911.29,1239.62,5827.37,1386.28" stroke="rgb(203,255,0)" stroke-width="2" fill="none"></polyline>
<polyline points="1685.5,1285.86,6926.31,1867.14" stroke="rgb(123,255,0)" stroke-width="2" fill="none"></polyline>
<polyline points="1715.46,1303.68,6807.84,1828.66" stroke="rgb(0,255,76)" stroke-width="2" fill="none"></polyline>
<polyline points="2005.42,1310.73,5851.94,1176.58" stroke="rgb(140,255,0)" stroke-width="2" fill="none"></polyline>
<polyline points="1040.77,1311.58,6216.47,1238.28" stroke="rgb(255,42,0)" stroke-width="2" fill="none"></polyline>
<polyline points="2911.05,1312.82,6711.41,1664.84" stroke="rgb(255,0,89)" stroke-width="2" fill="none"></polyline>
<polyline points="1042.75,1314.32,6026.94,1868.9" stroke="rgb(0,97,255)" stroke-width="2" fill="none"></polyline>
<polyline points="1708.83,1349.69,6710.9,1153.18" stroke="rgb(0,114,255)" stroke-width="2" fill="none"></polyline>
<polyline points="1446.49,1366.39,6656.06,1832.17" stroke="rgb(0,29,255)" stroke-width="2" fill="none"></polyline>
<polyline points="1867.57,1374.19,6772.88,1978.41" stroke="rgb(144,255,0)" stroke-width="2" fill="none"></polyline>
<polyline points="1775.62,1395.77,6735.23,1692.82" stroke="rgb(127,0,255)" stroke-width="2" fill="none"></polyline>
<polyline points="1072.92,1422.5,5962.92,1871.62" stroke="rgb(0,46,255)" stroke-width="2" fill="none"></polyline>
<polyline points="1463.34,1430.82,6123.14,1813.65" stroke="rgb(255,55,0)" stroke-width="2" fill="none"></polyline>
<polyline points="1801.45,1443.44,6372.07,1845.9" stroke="rgb(191,255,0)" stroke-width="2" fill="none"></polyline>
<polyline points="2176.76,1443.48,5938.39,1357.34" stroke="rgb(255,0,221)" stroke-width="2" fill="none"></polyline>
<polyline points="1773.97,1455.48,6002.8,1666.45" stroke="rgb(0,80,255)" stroke-width="2" fill="none"></polyline>
<polyline points="1879.72,1475.81,6695.69,2102.82" stroke="rgb(255,178,0)" stroke-width="2" fill="none"></polyline>
<polyline points="2155.59,1475.93,6263.1,1022.71" stroke="rgb(17,0,255)" stroke-width="2" fill="none"></polyline>
<polyline points="1832.65,1476.08,6155.24,1500.42" stroke="rgb(0,255,4)" stroke-width="2" fill="none"></polyline>
<polyline points="2155.29,1483.52,6923.05,1469.72" stroke="rgb(229,0,255)" stroke-width="2" fill="none"></polyline>
<polyline points="1119.86,1492.36,6149.88,1513.26" stroke="rgb(38,0,255)" stroke-width="2" fill="none"></polyline>
<polyline points="1848.33,1498.14,6687.1,1980.01" stroke="rgb(255,119,0)" stroke-width="2" fill="none"></polyline>
<polyline points="1883.61,1507.03,5867.04,1646.33" stroke="rgb(255,8,0)" stroke-width="2" fill="none"></polyline>
<polyline points="2588.63,1509.55,5561.87,1218.24" stroke="rgb(4,255,0)" stroke-width="2" fill="none"></polyline>
<polyline points="2117.68,1521.52,6756.25,1507.36" stroke="rgb(0,255,93)" stroke-width="2" fill="none"></polyline>
<polyline points="1388.71,1524.29,6733.85,1346.03" stroke="rgb(203,255,0)" stroke-width="2" fill="none"></polyline>
<polyline points="1875.8,1535.01,6553.38,1947.7" stroke="rgb(101,255,0)" stroke-width="2" fill="none"></polyline>
<polyline points="1591.53,1537.01,7210.02,1038.11" stroke="rgb(254,0,255)" stroke-width="2" fill="none"></polyline>
<polyline points="1135.04,1537.74,5904.26,1739.75" stroke="rgb(182,0,255)" stroke-width="2" fill="none"></polyline>
<polyline points="1879.37,1545.98,6134.85,1352.49" stroke="rgb(199,0,255)" stroke-width="2" fill="none"></polyline>
<polyline points="2541.94,1546.23,5533.2,1590.81" stroke="rgb(255,216,0)" stroke-width="2" fill="none"></polyline>
<polyline points="1913.89,1559.64,6694.32,1683.91" stroke="rgb(255,0,21)" stroke-width="2" fill="none"></polyline>
<polyline points="1973.21,1567.91,6961.23,1326.53" stroke="rgb(42,0,255)" stroke-width="2" fill="none"></polyline>
<polyline points="1959.08,1572.71,6882.8,1821.63" stroke="rgb(250,255,0)" stroke-width="2" fill="none"></polyline>
<polyline points="1986.48,1578.67,6974.51,1155.68" stroke="rgb(255,0,191)" stroke-width="2" fill="none"></polyline>
<polyline points="2024.46,1593.44,5943.71,2080.39" stroke="rgb(85,0,255)" stroke-width="2" fill="none"></polyline>
<polyline points="1978.08,1595.37,6435.55,2009.72" stroke="rgb(255,170,0)" stroke-width="2" fill="none"></polyline>
<polyline points="1912.27,1603.45,7185.69,1654.23" stroke="rgb(0,255,220)" stroke-width="2" fill="none"></polyline>
<polyline points="1105.51,1605.5,6882.96,2020.18" stroke="rgb(255,0,59)" stroke-width="2" fill="none"></polyline>
<polyline points="1610.95,1628.61,6901.39,1944.86" stroke="rgb(144,0,255)" stroke-width="2" fill="none"></polyline>
<polyline points="2100.53,1641.88,7094.03,1196.18" stroke="rgb(76,0,255)" stroke-width="2" fill="none"></polyline>
<polyline points="2753.75,1668.74,6779.05,1836.59" stroke="rgb(67,0,255)" stroke-width="2" fill="none"></polyline>
<polyline points="2115.25,1669.2,5863.73,1622.21" stroke="rgb(255,63,0)" stroke-width="2" fill="none"></polyline>
<polyline points="957.668,1732.05,7135.27,1775.05" stroke="rgb(131,0,255)" stroke-width="2" fill="none"></polyline>
<polyline points="2535.6,1783.71,5972.12,1323.88" stroke="rgb(255,0,123)" stroke-width="2" fill="none"></polyline>
<polyline points="2564.2,1786.56,6000.22,1844.74" stroke="rgb(255,0,157)" stroke-width="2" fill="none"></polyline>
<polyline points="1745.68,1797.74,6194.98,1113.53" stroke="rgb(0,255,55)" stroke-width="2" fill="none"></polyline>
<polyline points="965.844,1798.29,6514.9,2101.8" stroke="rgb(21,0,255)" stroke-width="2" fill="none"></polyline>
<polyline points="1640.99,1835.53,6491.92,1699.65" stroke="rgb(169,255,0)" stroke-width="2" fill="none"></polyline>
<polyline points="1682.39,1842.21,7268.88,1603.57" stroke="rgb(59,0,255)" stroke-width="2" fill="none"></polyline>
<polyline points="2660.51,1852.49,5781.59,1667.97" stroke="rgb(0,255,250)" stroke-width="2" fill="none"></polyline>
<polyline points="2647.59,1864.34,6708.75,1875.2" stroke="rgb(255,0,131)" stroke-width="2" fill="none"></polyline>
<polyline points="1263.8,1876.87,4764.12,1063.8" stroke="rgb(0,255,148)" stroke-width="2" fill="none"></polyline>
<polyline points="1603.51,1911.58,6582.62,1389.93" stroke="rgb(0,246,255)" stroke-width="2" fill="none"></polyline>
<polyline points="1935.08,1923.28,5816.92,2089.57" stroke="rgb(255,0,169)" stroke-width="2" fill="none"></polyline>
<polyline points="1920.05,1923.61,5804.59,2090.81" stroke="rgb(242,0,255)" stroke-width="2" fill="none"></polyline>
<polyline points="1818.29,1929.7,7121.05,1190.63" stroke="rgb(59,0,255)" stroke-width="2" fill="none"></polyline>
<polyline points="2249.32,1973.31,5332.65,1513.87" stroke="rgb(255,238,0)" stroke-width="2" fill="none"></polyline>
<polyline points="827.177,1975.02,6602.68,999.619" stroke="rgb(0,12,255)" stroke-width="2" fill="none"></polyline>
<polyline points="1853.96,1975.39,5456.2,1721.51" stroke="rgb(255,212,0)" stroke-width="2" fill="none"></polyline>
<polyline points="911.054,1977.97,7140.21,1040.39" stroke="rgb(0,106,255)" stroke-width="2" fill="none"></polyline>
<polyline points="1659.54,1986.03,5845.08,1805.51" stroke="rgb(0,255,174)" stroke-width="2" fill="none"></polyline>
<polyline points="1859.96,1995.24,6988.02,1940.52" stroke="rgb(157,0,255)" stroke-width="2" fill="none"></polyline>
<polyline points="1841.68,2032.02,5011.17,1698.11" stroke="rgb(59,255,0)" stroke-width="2" fill="none"></polyline>
<polyline points="2780.55,2041.07,7291.58,1285.84" stroke="rgb(110,255,0)" stroke-width="2" fill="none"></polyline>
<polyline points="2089.82,2069.93,6545.07,1603.95" stroke="rgb(0,33,255)" stroke-width="2" fill="none"></polyline>
<polyline points="879.684,2115.25,5320.64,2114.09" stroke="rgb(255,25,0)" stroke-width="2" fill="none"></polyline>
<polyline points="1774.33,2125.22,6963.23,1862.66" stroke="rgb(255,29,0)" stroke-width="2" fill="none"></polyline>
<polyline points="1673.93,2139.83,6628.32,1355.63" stroke="rgb(255,191,0)" stroke-width="2" fill="none"></polyline>
<polyline points="1513.18,2142.14,6282.81,1978.89" stroke="rgb(0,67,255)" stroke-width="2" fill="none"></polyline>
<polyline points="1718.91,2198.45,6681.76,1664.28" stroke="rgb(0,255,140)" stroke-width="2" fill="none"></polyline>
<polyline points="1571.82,2289.54,5760.85,2004.24" stroke="rgb(0,255,233)" stroke-width="2" fill="none"></polyline>
<polyline points="2263.87,2302.44,6134.92,1198.2" stroke="rgb(0,255,0)" stroke-width="2" fill="none"></polyline>
<polyline points="1449.4,2303.73,5677.49,1918.46" stroke="rgb(0,255,203)" stroke-width="2" fill="none"></polyline>
<polyline points="1793.61,2306.21,5841.54,2052.18" stroke="rgb(140,255,0)" stroke-width="2" fill="none"></polyline>
<polyline points="1574.34,2307.69,5941.27,1082.7" stroke="rgb(255,0,157)" stroke-width="2" fill="none"></polyline>
<polyline points="1598.2,2318.12,6388.22,1638.42" stroke="rgb(255,12,0)" stroke-width="2" fill="none"></polyline>
<polyline points="1801.37,2320.03,5558.6,750.914" stroke="rgb(119,255,0)" stroke-width="2" fill="none"></polyline>
<polyline points="2746.61,2322.33,6480.67,1795.12" stroke="rgb(0,135,255)" stroke-width="2" fill="none"></polyline>
<polyline points="1562.47,2349.92,5486.3,1570.88" stroke="rgb(157,255,0)" stroke-width="2" fill="none"></polyline>
<polyline points="1684.01,2451.07,6668.62,1045.08" stroke="rgb(255,0,59)" stroke-width="2" fill="none"></polyline>
<polyline points="1476.66,2549.3,6401.63,982.498" stroke="rgb(255,119,0)" stroke-width="2" fill="none"></polyline>
<polyline points="1249.02,2668.4,6748.55,1540.01" stroke="rgb(186,0,255)" stroke-width="2" fill="none"></polyline>
<circle cx="1363.54" cy="321.436" r="4" stroke="rgb(0,59,255)" stroke-width="2" fill="none"></circle>
<circle cx="6102.43" cy="1312.77" r="4" stroke="rgb(0,59,255)" stroke-width="2" fill="none"></circle>
<circle cx="1374.16" cy="324.369" r="4" stroke="rgb(255,0,80)" stroke-width="2" fill="none"></circle>
<circle cx="6790.88" cy="1543.47" r="4" stroke="rgb(255,0,80)" stroke-width="2" fill="none"></circle>
<circle cx="1501.89" cy="339.947" r="4" stroke="rgb(80,255,0)" stroke-width="2" fill="none"></circle>
<circle cx="6278.33" cy="1658.41" r="4" stroke="rgb(80,255,0)" stroke-width="2" fill="none"></circle>
<circle cx="1503.89" cy="361.111" r="4" stroke="rgb(255,246,0)" stroke-width="2" fill="none"></circle>
<circle cx="6794.94" cy="1225.3" r="4" stroke="rgb(255,246,0)" stroke-width="2" fill="none"></circle>
<circle cx="1640.85" cy="388.627" r="4" stroke="rgb(0,17,255)" stroke-width="2" fill="none"></circle>
<circle cx="6279.8" cy="1947.18" r="4" stroke="rgb(0,17,255)" stroke-width="2" fill="none"></circle>
<circle cx="2721.07" cy="403.324" r="4" stroke="rgb(0,119,255)" stroke-width="2" fill="none"></circle>
<circle cx="5853.69" cy="1339.18" r="4" stroke="rgb(0,119,255)" stroke-width="2" fill="none"></circle>
<circle cx="2042.31" cy="404.846" r="4" stroke="rgb(174,0,255)" stroke-width="2" fill="none"></circle>
<circle cx="4642.94" cy="874.99" r="4" stroke="rgb(174,0,255)" stroke-width="2" fill="none"></circle>
<circle cx="2726.9" cy="413.324" r="4" stroke="rgb(0,255,178)" stroke-width="2" fill="none"></circle>
<circle cx="5936.66" cy="1177.93" r="4" stroke="rgb(0,255,178)" stroke-width="2" fill="none"></circle>
<circle cx="2534.85" cy="427.808" r="4" stroke="rgb(255,0,68)" stroke-width="2" fill="none"></circle>
<circle cx="5471.12" cy="1304.77" r="4" stroke="rgb(255,0,68)" stroke-width="2" fill="none"></circle>
<circle cx="1445" cy="459.686" r="4" stroke="rgb(255,216,0)" stroke-width="2" fill="none"></circle>
<circle cx="6167.73" cy="1229.95" r="4" stroke="rgb(255,216,0)" stroke-width="2" fill="none"></circle>
<circle cx="1430.25" cy="465.859" r="4" stroke="rgb(0,250,255)" stroke-width="2" fill="none"></circle>
<circle cx="6268.44" cy="1797.01" r="4" stroke="rgb(0,250,255)" stroke-width="2" fill="none"></circle>
<circle cx="2684.59" cy="468.773" r="4" stroke="rgb(221,255,0)" stroke-width="2" fill="none"></circle>
<circle cx="5733.87" cy="1951.25" r="4" stroke="rgb(221,255,0)" stroke-width="2" fill="none"></circle>
<circle cx="1683.23" cy="470.728" r="4" stroke="rgb(255,29,0)" stroke-width="2" fill="none"></circle>
<circle cx="6532.48" cy="1775.9" r="4" stroke="rgb(255,29,0)" stroke-width="2" fill="none"></circle>
<circle cx="815.794" cy="473.885" r="4" stroke="rgb(0,255,233)" stroke-width="2" fill="none"></circle>
<circle cx="5431.2" cy="1340.81" r="4" stroke="rgb(0,255,233)" stroke-width="2" fill="none"></circle>
<circle cx="1380.71" cy="475.1" r="4" stroke="rgb(255,0,29)" stroke-width="2" fill="none"></circle>
<circle cx="6319.68" cy="1905.96" r="4" stroke="rgb(255,0,29)" stroke-width="2" fill="none"></circle>
<circle cx="1683.17" cy="477.936" r="4" stroke="rgb(255,0,110)" stroke-width="2" fill="none"></circle>
<circle cx="6866.99" cy="1966.18" r="4" stroke="rgb(255,0,110)" stroke-width="2" fill="none"></circle>
<circle cx="1524.85" cy="492.264" r="4" stroke="rgb(0,255,42)" stroke-width="2" fill="none"></circle>
<circle cx="6207.15" cy="1841.97" r="4" stroke="rgb(0,255,42)" stroke-width="2" fill="none"></circle>
<circle cx="1445.66" cy="508.276" r="4" stroke="rgb(0,21,255)" stroke-width="2" fill="none"></circle>
<circle cx="6423.2" cy="2005.62" r="4" stroke="rgb(0,21,255)" stroke-width="2" fill="none"></circle>
<circle cx="1567.13" cy="512.98" r="4" stroke="rgb(255,191,0)" stroke-width="2" fill="none"></circle>
<circle cx="6961.23" cy="1326.53" r="4" stroke="rgb(255,191,0)" stroke-width="2" fill="none"></circle>
<circle cx="2652.12" cy="513.2" r="4" stroke="rgb(0,255,89)" stroke-width="2" fill="none"></circle>
<circle cx="6174.61" cy="1993.77" r="4" stroke="rgb(0,255,89)" stroke-width="2" fill="none"></circle>
<circle cx="2666.45" cy="516.471" r="4" stroke="rgb(144,255,0)" stroke-width="2" fill="none"></circle>
<circle cx="6369.09" cy="1005.43" r="4" stroke="rgb(144,255,0)" stroke-width="2" fill="none"></circle>
<circle cx="2671.11" cy="531.563" r="4" stroke="rgb(255,0,204)" stroke-width="2" fill="none"></circle>
<circle cx="5668.46" cy="1925.21" r="4" stroke="rgb(255,0,204)" stroke-width="2" fill="none"></circle>
<circle cx="2679.61" cy="536.044" r="4" stroke="rgb(255,0,46)" stroke-width="2" fill="none"></circle>
<circle cx="5238.44" cy="1228.84" r="4" stroke="rgb(255,0,46)" stroke-width="2" fill="none"></circle>
<circle cx="286.819" cy="543.418" r="4" stroke="rgb(255,114,0)" stroke-width="2" fill="none"></circle>
<circle cx="4653.82" cy="896.896" r="4" stroke="rgb(255,114,0)" stroke-width="2" fill="none"></circle>
<circle cx="1511.07" cy="559.621" r="4" stroke="rgb(255,114,0)" stroke-width="2" fill="none"></circle>
<circle cx="6908.55" cy="1203.96" r="4" stroke="rgb(255,114,0)" stroke-width="2" fill="none"></circle>
<circle cx="2831.13" cy="579.707" r="4" stroke="rgb(255,63,0)" stroke-width="2" fill="none"></circle>
<circle cx="6059.54" cy="1548.24" r="4" stroke="rgb(255,63,0)" stroke-width="2" fill="none"></circle>
<circle cx="2913.56" cy="620.729" r="4" stroke="rgb(255,199,0)" stroke-width="2" fill="none"></circle>
<circle cx="6219.54" cy="1677.02" r="4" stroke="rgb(255,199,0)" stroke-width="2" fill="none"></circle>
<circle cx="876.95" cy="682.749" r="4" stroke="rgb(255,0,131)" stroke-width="2" fill="none"></circle>
<circle cx="6770.42" cy="1353.93" r="4" stroke="rgb(255,0,131)" stroke-width="2" fill="none"></circle>
<circle cx="2211.96" cy="716.353" r="4" stroke="rgb(76,0,255)" stroke-width="2" fill="none"></circle>
<circle cx="5918.7" cy="1808.22" r="4" stroke="rgb(76,0,255)" stroke-width="2" fill="none"></circle>
<circle cx="2230.11" cy="716.797" r="4" stroke="rgb(0,157,255)" stroke-width="2" fill="none"></circle>
<circle cx="5816.86" cy="1366.9" r="4" stroke="rgb(0,157,255)" stroke-width="2" fill="none"></circle>
<circle cx="1874.14" cy="779.258" r="4" stroke="rgb(59,0,255)" stroke-width="2" fill="none"></circle>
<circle cx="6041.58" cy="1285.72" r="4" stroke="rgb(59,0,255)" stroke-width="2" fill="none"></circle>
<circle cx="1067.66" cy="785.136" r="4" stroke="rgb(255,0,17)" stroke-width="2" fill="none"></circle>
<circle cx="6689.17" cy="1904" r="4" stroke="rgb(255,0,17)" stroke-width="2" fill="none"></circle>
<circle cx="1926.66" cy="789.587" r="4" stroke="rgb(0,237,255)" stroke-width="2" fill="none"></circle>
<circle cx="5913.09" cy="1929.77" r="4" stroke="rgb(0,237,255)" stroke-width="2" fill="none"></circle>
<circle cx="1052.59" cy="791.395" r="4" stroke="rgb(255,0,21)" stroke-width="2" fill="none"></circle>
<circle cx="5159.63" cy="1901.87" r="4" stroke="rgb(255,0,21)" stroke-width="2" fill="none"></circle>
<circle cx="2989.65" cy="807.997" r="4" stroke="rgb(255,233,0)" stroke-width="2" fill="none"></circle>
<circle cx="7225.4" cy="1512.2" r="4" stroke="rgb(255,233,0)" stroke-width="2" fill="none"></circle>
<circle cx="1571.83" cy="951.112" r="4" stroke="rgb(225,0,255)" stroke-width="2" fill="none"></circle>
<circle cx="6000.22" cy="1844.74" r="4" stroke="rgb(225,0,255)" stroke-width="2" fill="none"></circle>
<circle cx="1440.25" cy="956.874" r="4" stroke="rgb(174,255,0)" stroke-width="2" fill="none"></circle>
<circle cx="6485.87" cy="1747.39" r="4" stroke="rgb(174,255,0)" stroke-width="2" fill="none"></circle>
<circle cx="1629.99" cy="996.799" r="4" stroke="rgb(0,135,255)" stroke-width="2" fill="none"></circle>
<circle cx="5872.13" cy="1271.07" r="4" stroke="rgb(0,135,255)" stroke-width="2" fill="none"></circle>
<circle cx="1060.83" cy="1028.71" r="4" stroke="rgb(255,0,140)" stroke-width="2" fill="none"></circle>
<circle cx="6050.07" cy="1732.7" r="4" stroke="rgb(255,0,140)" stroke-width="2" fill="none"></circle>
<circle cx="1127.99" cy="1038.48" r="4" stroke="rgb(237,255,0)" stroke-width="2" fill="none"></circle>
<circle cx="6181.74" cy="1343.55" r="4" stroke="rgb(237,255,0)" stroke-width="2" fill="none"></circle>
<circle cx="1613.66" cy="1042.64" r="4" stroke="rgb(85,0,255)" stroke-width="2" fill="none"></circle>
<circle cx="5961.48" cy="1720.38" r="4" stroke="rgb(85,0,255)" stroke-width="2" fill="none"></circle>
<circle cx="1841.23" cy="1070.13" r="4" stroke="rgb(255,85,0)" stroke-width="2" fill="none"></circle>
<circle cx="6168.62" cy="1768.85" r="4" stroke="rgb(255,85,0)" stroke-width="2" fill="none"></circle>
<circle cx="2365.27" cy="1091.23" r="4" stroke="rgb(255,17,0)" stroke-width="2" fill="none"></circle>
<circle cx="5730.26" cy="1752.48" r="4" stroke="rgb(255,17,0)" stroke-width="2" fill="none"></circle>
<circle cx="1627.57" cy="1099.58" r="4" stroke="rgb(114,0,255)" stroke-width="2" fill="none"></circle>
<circle cx="6031.78" cy="1812.04" r="4" stroke="rgb(114,0,255)" stroke-width="2" fill="none"></circle>
<circle cx="1709.78" cy="1127.02" r="4" stroke="rgb(221,255,0)" stroke-width="2" fill="none"></circle>
<circle cx="5528.51" cy="1754.25" r="4" stroke="rgb(221,255,0)" stroke-width="2" fill="none"></circle>
<circle cx="1745.63" cy="1127.08" r="4" stroke="rgb(0,42,255)" stroke-width="2" fill="none"></circle>
<circle cx="6703.75" cy="1567.11" r="4" stroke="rgb(0,42,255)" stroke-width="2" fill="none"></circle>
<circle cx="1569.8" cy="1152.2" r="4" stroke="rgb(4,0,255)" stroke-width="2" fill="none"></circle>
<circle cx="6672.07" cy="1051.48" r="4" stroke="rgb(4,0,255)" stroke-width="2" fill="none"></circle>
<circle cx="1454.54" cy="1171.18" r="4" stroke="rgb(0,178,255)" stroke-width="2" fill="none"></circle>
<circle cx="5818.41" cy="1743.44" r="4" stroke="rgb(0,178,255)" stroke-width="2" fill="none"></circle>
<circle cx="2569.48" cy="1204.83" r="4" stroke="rgb(63,255,0)" stroke-width="2" fill="none"></circle>
<circle cx="5901.02" cy="1900.72" r="4" stroke="rgb(63,255,0)" stroke-width="2" fill="none"></circle>
<circle cx="1781.18" cy="1216.4" r="4" stroke="rgb(195,0,255)" stroke-width="2" fill="none"></circle>
<circle cx="6183.58" cy="991.158" r="4" stroke="rgb(195,0,255)" stroke-width="2" fill="none"></circle>
<circle cx="1449.89" cy="1219.16" r="4" stroke="rgb(0,123,255)" stroke-width="2" fill="none"></circle>
<circle cx="6748.76" cy="1594.05" r="4" stroke="rgb(0,123,255)" stroke-width="2" fill="none"></circle>
<circle cx="1521.16" cy="1219.58" r="4" stroke="rgb(0,208,255)" stroke-width="2" fill="none"></circle>
<circle cx="6626.04" cy="1662.73" r="4" stroke="rgb(0,208,255)" stroke-width="2" fill="none"></circle>
<circle cx="1951.69" cy="1229.19" r="4" stroke="rgb(38,255,0)" stroke-width="2" fill="none"></circle>
<circle cx="6134.51" cy="1324.81" r="4" stroke="rgb(38,255,0)" stroke-width="2" fill="none"></circle>
<circle cx="1911.29" cy="1239.62" r="4" stroke="rgb(203,255,0)" stroke-width="2" fill="none"></circle>
<circle cx="5827.37" cy="1386.28" r="4" stroke="rgb(203,255,0)" stroke-width="2" fill="none"></circle>
<circle cx="1685.5" cy="1285.86" r="4" stroke="rgb(123,255,0)" stroke-width="2" fill="none"></circle>
<circle cx="6926.31" cy="1867.14" r="4" stroke="rgb(123,255,0)" stroke-width="2" fill="none"></circle>
<circle cx="1715.46" cy="1303.68" r="4" stroke="rgb(0,255,76)" stroke-width="2" fill="none"></circle>
<circle cx="6807.84" cy="1828.66" r="4" stroke="rgb(0,255,76)" stroke-width="2" fill="none"></circle>
<circle cx="2005.42" cy="1310.73" r="4" stroke="rgb(140,255,0)" stroke-width="2" fill="none"></circle>
<circle cx="5851.94" cy="1176.58" r="4" stroke="rgb(140,255,0)" stroke-width="2" fill="none"></circle>
<circle cx="1040.77" cy="1311.58" r="4" stroke="rgb(255,42,0)" stroke-width="2" fill="none"></circle>
<circle cx="6216.47" cy="1238.28" r="4" stroke="rgb(255,42,0)" stroke-width="2" fill="none"></circle>
<circle cx="2911.05" cy="1312.82" r="4" stroke="rgb(255,0,89)" stroke-width="2" fill="none"></circle>
<circle cx="6711.41" cy="1664.84" r="4" stroke="rgb(255,0,89)" stroke-width="2" fill="none"></circle>
<circle cx="1042.75" cy="1314.32" r="4" stroke="rgb(0,97,255)" stroke-width="2" fill="none"></circle>
<circle cx="6026.94" cy="1868.9" r="4" stroke="rgb(0,97,255)" stroke-width="2" fill="none"></circle>
<circle cx="1708.83" cy="1349.69" r="4" stroke="rgb(0,114,255)" stroke-width="2" fill="none"></circle>
<circle cx="6710.9" cy="1153.18" r="4" stroke="rgb(0,114,255)" stroke-width="2" fill="none"></circle>
<circle cx="1446.49" cy="1366.39" r="4" stroke="rgb(0,29,255)" stroke-width="2" fill="none"></circle>
<circle cx="6656.06" cy="1832.17" r="4" stroke="rgb(0,29,255)" stroke-width="2" fill="none"></circle>
<circle cx="1867.57" cy="1374.19" r="4" stroke="rgb(144,255,0)" stroke-width="2" fill="none"></circle>
<circle cx="6772.88" cy="1978.41" r="4" stroke="rgb(144,255,0)" stroke-width="2" fill="none"></circle>
<circle cx="1775.62" cy="1395.77" r="4" stroke="rgb(127,0,255)" stroke-width="2" fill="none"></circle>
<circle cx="6735.23" cy="1692.82" r="4" stroke="rgb(127,0,255)" stroke-width="2" fill="none"></circle>
<circle cx="1072.92" cy="1422.5" r="4" stroke="rgb(0,46,255)" stroke-width="2" fill="none"></circle>
<circle cx="5962.92" cy="1871.62" r="4" stroke="rgb(0,46,255)" stroke-width="2" fill="none"></circle>
<circle cx="1463.34" cy="1430.82" r="4" stroke="rgb(255,55,0)" stroke-width="2" fill="none"></circle>
<circle cx="6123.14" cy="1813.65" r="4" stroke="rgb(255,55,0)" stroke-width="2" fill="none"></circle>
<circle cx="1801.45" cy="1443.44" r="4" stroke="rgb(191,255,0)" stroke-width="2" fill="none"></circle>
<circle cx="6372.07" cy="1845.9" r="4" stroke="rgb(191,255,0)" stroke-width="2" fill="none"></circle>
<circle cx="2176.76" cy="1443.48" r="4" stroke="rgb(255,0,221)" stroke-width="2" fill="none"></circle>
<circle cx="5938.39" cy="1357.34" r="4" stroke="rgb(255,0,221)" stroke-width="2" fill="none"></circle>
<circle cx="1773.97" cy="1455.48" r="4" stroke="rgb(0,80,255)" stroke-width="2" fill="none"></circle>
<circle cx="6002.8" cy="1666.45" r="4" stroke="rgb(0,80,255)" stroke-width="2" fill="none"></circle>
<circle cx="1879.72" cy="1475.81" r="4" stroke="rgb(255,178,0)" stroke-width="2" fill="none"></circle>
<circle cx="6695.69" cy="2102.82" r="4" stroke="rgb(255,178,0)" stroke-width="2" fill="none"></circle>
<circle cx="2155.59" cy="1475.93" r="4" stroke="rgb(17,0,255)" stroke-width="2" fill="none"></circle>
<circle cx="6263.1" cy="1022.71" r="4" stroke="rgb(17,0,255)" stroke-width="2" fill="none"></circle>
<circle cx="1832.65" cy="1476.08" r="4" stroke="rgb(0,255,4)" stroke-width="2" fill="none"></circle>
<circle cx="6155.24" cy="1500.42" r="4" stroke="rgb(0,255,4)" stroke-width="2" fill="none"></circle>
<circle cx="2155.29" cy="1483.52" r="4" stroke="rgb(229,0,255)" stroke-width="2" fill="none"></circle>
<circle cx="6923.05" cy="1469.72" r="4" stroke="rgb(229,0,255)" stroke-width="2" fill="none"></circle>
<circle cx="1119.86" cy="1492.36" r="4" stroke="rgb(38,0,255)" stroke-width="2" fill="none"></circle>
<circle cx="6149.88" cy="1513.26" r="4" stroke="rgb(38,0,255)" stroke-width="2" fill="none"></circle>
<circle cx="1848.33" cy="1498.14" r="4" stroke="rgb(255,119,0)" stroke-width="2" fill="none"></circle>
<circle cx="6687.1" cy="1980.01" r="4" stroke="rgb(255,119,0)" stroke-width="2" fill="none"></circle>
<circle cx="1883.61" cy="1507.03" r="4" stroke="rgb(255,8,0)" stroke-width="2" fill="none"></circle>
<circle cx="5867.04" cy="1646.33" r="4" stroke="rgb(255,8,0)" stroke-width="2" fill="none"></circle>
<circle cx="2588.63" cy="1509.55" r="4" stroke="rgb(4,255,0)" stroke-width="2" fill="none"></circle>
<circle cx="5561.87" cy="1218.24" r="4" stroke="rgb(4,255,0)" stroke-width="2" fill="none"></circle>
<circle cx="2117.68" cy="1521.52" r="4" stroke="rgb(0,255,93)" stroke-width="2" fill="none"></circle>
<circle cx="6756.25" cy="1507.36" r="4" stroke="rgb(0,255,93)" stroke-width="2" fill="none"></circle>
<circle cx="1388.71" cy="1524.29" r="4" stroke="rgb(203,255,0)" stroke-width="2" fill="none"></circle>
<circle cx="6733.85" cy="1346.03" r="4" stroke="rgb(203,255,0)" stroke-width="2" fill="none"></circle>
<circle cx="1875.8" cy="1535.01" r="4" stroke="rgb(101,255,0)" stroke-width="2" fill="none"></circle>
<circle cx="6553.38" cy="1947.7" r="4" stroke="rgb(101,255,0)" stroke-width="2" fill="none"></circle>
<circle cx="1591.53" cy="1537.01" r="4" stroke="rgb(254,0,255)" stroke-width="2" fill="none"></circle>
<circle cx="7210.02" cy="1038.11" r="4" stroke="rgb(254,0,255)" stroke-width="2" fill="none"></circle>
<circle cx="1135.04" cy="1537.74" r="4" stroke="rgb(182,0,255)" stroke-width="2" fill="none"></circle>
<circle cx="5904.26" cy="1739.75" r="4" stroke="rgb(182,0,255)" stroke-width="2" fill="none"></circle>
<circle cx="1879.37" cy="1545.98" r="4" stroke="rgb(199,0,255)" stroke-width="2" fill="none"></circle>
<circle cx="6134.85" cy="1352.49" r="4" stroke="rgb(199,0,255)" stroke-width="2" fill="none"></circle>
<circle cx="2541.94" cy="1546.23" r="4" stroke="rgb(255,216,0)" stroke-width="2" fill="none"></circle>
<circle cx="5533.2" cy="1590.81" r="4" stroke="rgb(255,216,0)" stroke-width="2" fill="none"></circle>
<circle cx="1913.89" cy="1559.64" r="4" stroke="rgb(255,0,21)" stroke-width="2" fill="none"></circle>
<circle cx="6694.32" cy="1683.91" r="4" stroke="rgb(255,0,21)" stroke-width="2" fill="none"></circle>
<circle cx="1973.21" cy="1567.91" r="4" stroke="rgb(42,0,255)" stroke-width="2" fill="none"></circle>
<circle cx="6961.23" cy="1326.53" r="4" stroke="rgb(42,0,255)" stroke-width="2" fill="none"></circle>
<circle cx="1959.08" cy="1572.71" r="4" stroke="rgb(250,255,0)" stroke-width="2" fill="none"></circle>
<circle cx="6882.8" cy="1821.63" r="4" stroke="rgb(250,255,0)" stroke-width="2" fill="none"></circle>
<circle cx="1986.48" cy="1578.67" r="4" stroke="rgb(255,0,191)" stroke-width="2" fill="none"></circle>
<circle cx="6974.51" cy="1155.68" r="4" stroke="rgb(255,0,191)" stroke-width="2" fill="none"></circle>
<circle cx="2024.46" cy="1593.44" r="4" stroke="rgb(85,0,255)" stroke-width="2" fill="none"></circle>
<circle cx="5943.71" cy="2080.39" r="4" stroke="rgb(85,0,255)" stroke-width="2" fill="none"></circle>
<circle cx="1978.08" cy="1595.37" r="4" stroke="rgb(255,170,0)" stroke-width="2" fill="none"></circle>
<circle cx="6435.55" cy="2009.72" r="4" stroke="rgb(255,170,0)" stroke-width="2" fill="none"></circle>
<circle cx="1912.27" cy="1603.45" r="4" stroke="rgb(0,255,220)" stroke-width="2" fill="none"></circle>
<circle cx="7185.69" cy="1654.23" r="4" stroke="rgb(0,255,220)" stroke-width="2" fill="none"></circle>
<circle cx="1105.51" cy="1605.5" r="4" stroke="rgb(255,0,59)" stroke-width="2" fill="none"></circle>
<circle cx="6882.96" cy="2020.18" r="4" stroke="rgb(255,0,59)" stroke-width="2" fill="none"></circle>
<circle cx="1610.95" cy="1628.61" r="4" stroke="rgb(144,0,255)" stroke-width="2" fill="none"></circle>
<circle cx="6901.39" cy="1944.86" r="4" stroke="rgb(144,0,255)" stroke-width="2" fill="none"></circle>
<circle cx="2100.53" cy="1641.88" r="4" stroke="rgb(76,0,255)" stroke-width="2" fill="none"></circle>
<circle cx="7094.03" cy="1196.18" r="4" stroke="rgb(76,0,255)" stroke-width="2" fill="none"></circle>
<circle cx="2753.75" cy="1668.74" r="4" stroke="rgb(67,0,255)" stroke-width="2" fill="none"></circle>
<circle cx="6779.05" cy="1836.59" r="4" stroke="rgb(67,0,255)" stroke-width="2" fill="none"></circle>
<circle cx="2115.25" cy="1669.2" r="4" stroke="rgb(255,63,0)" stroke-width="2" fill="none"></circle>
<circle cx="5863.73" cy="1622.21" r="4" stroke="rgb(255,63,0)" stroke-width="2" fill="none"></circle>
<circle cx="957.668" cy="1732.05" r="4" stroke="rgb(131,0,255)" stroke-width="2" fill="none"></circle>
<circle cx="7135.27" cy="1775.05" r="4" stroke="rgb(131,0,255)" stroke-width="2" fill="none"></circle>
<circle cx="2535.6" cy="1783.71" r="4" stroke="rgb(255,0,123)" stroke-width="2" fill="none"></circle>
<circle cx="5972.12" cy="1323.88" r="4" stroke="rgb(255,0,123)" stroke-width="2" fill="none"></circle>
<circle cx="2564.2" cy="1786.56" r="4" stroke="rgb(255,0,157)" stroke-width="2" fill="none"></circle>
<circle cx="6000.22" cy="1844.74" r="4" stroke="rgb(255,0,157)" stroke-width="2" fill="none"></circle>
<circle cx="1745.68" cy="1797.74" r="4" stroke="rgb(0,255,55)" stroke-width="2" fill="none"></circle>
<circle cx="6194.98" cy="1113.53" r="4" stroke="rgb(0,255,55)" stroke-width="2" fill="none"></circle>
<circle cx="965.844" cy="1798.29" r="4" stroke="rgb(21,0,255)" stroke-width="2" fill="none"></circle>
<circle cx="6514.9" cy="2101.8" r="4" stroke="rgb(21,0,255)" stroke-width="2" fill="none"></circle>
<circle cx="1640.99" cy="1835.53" r="4" stroke="rgb(169,255,0)" stroke-width="2" fill="none"></circle>
<circle cx="6491.92" cy="1699.65" r="4" stroke="rgb(169,255,0)" stroke-width="2" fill="none"></circle>
<circle cx="1682.39" cy="1842.21" r="4" stroke="rgb(59,0,255)" stroke-width="2" fill="none"></circle>
<circle cx="7268.88" cy="1603.57" r="4" stroke="rgb(59,0,255)" stroke-width="2" fill="none"></circle>
<circle cx="2660.51" cy="1852.49" r="4" stroke="rgb(0,255,250)" stroke-width="2" fill="none"></circle>
<circle cx="5781.59" cy="1667.97" r="4" stroke="rgb(0,255,250)" stroke-width="2" fill="none"></circle>
<circle cx="2647.59" cy="1864.34" r="4" stroke="rgb(255,0,131)" stroke-width="2" fill="none"></circle>
<circle cx="6708.75" cy="1875.2" r="4" stroke="rgb(255,0,131)" stroke-width="2" fill="none"></circle>
<circle cx="1263.8" cy="1876.87" r="4" stroke="rgb(0,255,148)" stroke-width="2" fill="none"></circle>
<circle cx="4764.12" cy="1063.8" r="4" stroke="rgb(0,255,148)" stroke-width="2" fill="none"></circle>
<circle cx="1603.51" cy="1911.58" r="4" stroke="rgb(0,246,255)" stroke-width="2" fill="none"></circle>
<circle cx="6582.62" cy="1389.93" r="4" stroke="rgb(0,246,255)" stroke-width="2" fill="none"></circle>
<circle cx="1935.08" cy="1923.28" r="4" stroke="rgb(255,0,169)" stroke-width="2" fill="none"></circle>
<circle cx="5816.92" cy="2089.57" r="4" stroke="rgb(255,0,169)" stroke-width="2" fill="none"></circle>
<circle cx="1920.05" cy="1923.61" r="4" stroke="rgb(242,0,255)" stroke-width="2" fill="none"></circle>
<circle cx="5804.59" cy="2090.81" r="4" stroke="rgb(242,0,255)" stroke-width="2" fill="none"></circle>
<circle cx="1818.29" cy="1929.7" r="4" stroke="rgb(59,0,255)" stroke-width="2" fill="none"></circle>
<circle cx="7121.05" cy="1190.63" r="4" stroke="rgb(59,0,255)" stroke-width="2" fill="none"></circle>
<circle cx="2249.32" cy="1973.31" r="4" stroke="rgb(255,238,0)" stroke-width="2" fill="none"></circle>
<circle cx="5332.65" cy="1513.87" r="4" stroke="rgb(255,238,0)" stroke-width="2" fill="none"></circle>
<circle cx="827.177" cy="1975.02" r="4" stroke="rgb(0,12,255)" stroke-width="2" fill="none"></circle>
<circle cx="6602.68" cy="999.619" r="4" stroke="rgb(0,12,255)" stroke-width="2" fill="none"></circle>
<circle cx="1853.96" cy="1975.39" r="4" stroke="rgb(255,212,0)" stroke-width="2" fill="none"></circle>
<circle cx="5456.2" cy="1721.51" r="4" stroke="rgb(255,212,0)" stroke-width="2" fill="none"></circle>
<circle cx="911.054" cy="1977.97" r="4" stroke="rgb(0,106,255)" stroke-width="2" fill="none"></circle>
<circle cx="7140.21" cy="1040.39" r="4" stroke="rgb(0,106,255)" stroke-width="2" fill="none"></circle>
<circle cx="1659.54" cy="1986.03" r="4" stroke="rgb(0,255,174)" stroke-width="2" fill="none"></circle>
<circle cx="5845.08" cy="1805.51" r="4" stroke="rgb(0,255,174)" stroke-width="2" fill="none"></circle>
<circle cx="1859.96" cy="1995.24" r="4" stroke="rgb(157,0,255)" stroke-width="2" fill="none"></circle>
<circle cx="6988.02" cy="1940.52" r="4" stroke="rgb(157,0,255)" stroke-width="2" fill="none"></circle>
<circle cx="1841.68" cy="2032.02" r="4" stroke="rgb(59,255,0)" stroke-width="2" fill="none"></circle>
<circle cx="5011.17" cy="1698.11" r="4" stroke="rgb(59,255,0)" stroke-width="2" fill="none"></circle>
<circle cx="2780.55" cy="2041.07" r="4" stroke="rgb(110,255,0)" stroke-width="2" fill="none"></circle>
<circle cx="7291.58" cy="1285.84" r="4" stroke="rgb(110,255,0)" stroke-width="2" fill="none"></circle>
<circle cx="2089.82" cy="2069.93" r="4" stroke="rgb(0,33,255)" stroke-width="2" fill="none"></circle>
<circle cx="6545.07" cy="1603.95" r="4" stroke="rgb(0,33,255)" stroke-width="2" fill="none"></circle>
<circle cx="879.684" cy="2115.25" r="4" stroke="rgb(255,25,0)" stroke-width="2" fill="none"></circle>
<circle cx="5320.64" cy="2114.09" r="4" stroke="rgb(255,25,0)" stroke-width="2" fill="none"></circle>
<circle cx="1774.33" cy="2125.22" r="4" stroke="rgb(255,29,0)" stroke-width="2" fill="none"></circle>
<circle cx="6963.23" cy="1862.66" r="4" stroke="rgb(255,29,0)" stroke-width="2" fill="none"></circle>
<circle cx="1673.93" cy="2139.83" r="4" stroke="rgb(255,191,0)" stroke-width="2" fill="none"></circle>
<circle cx="6628.32" cy="1355.63" r="4" stroke="rgb(255,191,0)" stroke-width="2" fill="none"></circle>
<circle cx="1513.18" cy="2142.14" r="4" stroke="rgb(0,67,255)" stroke-width="2" fill="none"></circle>
<circle cx="6282.81" cy="1978.89" r="4" stroke="rgb(0,67,255)" stroke-width="2" fill="none"></circle>
<circle cx="1718.91" cy="2198.45" r="4" stroke="rgb(0,255,140)" stroke-width="2" fill="none"></circle>
<circle cx="6681.76" cy="1664.28" r="4" stroke="rgb(0,255,140)" stroke-width="2" fill="none"></circle>
<circle cx="1571.82" cy="2289.54" r="4" stroke="rgb(0,255,233)" stroke-width="2" fill="none"></circle>
<circle cx="5760.85" cy="2004.24" r="4" stroke="rgb(0,255,233)" stroke-width="2" fill="none"></circle>
<circle cx="2263.87" cy="2302.44" r="4" stroke="rgb(0,255,0)" stroke-width="2" fill="none"></circle>
<circle cx="6134.92" cy="1198.2" r="4" stroke="rgb(0,255,0)" stroke-width="2" fill="none"></circle>
<circle cx="1449.4" cy="2303.73" r="4" stroke="rgb(0,255,203)" stroke-width="2" fill="none"></circle>
<circle cx="5677.49" cy="1918.46" r="4" stroke="rgb(0,255,203)" stroke-width="2" fill="none"></circle>
<circle cx="1793.61" cy="2306.21" r="4" stroke="rgb(140,255,0)" stroke-width="2" fill="none"></circle>
<circle cx="5841.54" cy="2052.18" r="4" stroke="rgb(140,255,0)" stroke-width="2" fill="none"></circle>
<circle cx="1574.34" cy="2307.69" r="4" stroke="rgb(255,0,157)" stroke-width="2" fill="none"></circle>
<circle cx="5941.27" cy="1082.7" r="4" stroke="rgb(255,0,157)" stroke-width="2" fill="none"></circle>
<circle cx="1598.2" cy="2318.12" r="4" stroke="rgb(255,12,0)" stroke-width="2" fill="none"></circle>
<circle cx="6388.22" cy="1638.42" r="4" stroke="rgb(255,12,0)" stroke-width="2" fill="none"></circle>
<circle cx="1801.37" cy="2320.03" r="4" stroke="rgb(119,255,0)" stroke-width="2" fill="none"></circle>
<circle cx="5558.6" cy="750.914" r="4" stroke="rgb(119,255,0)" stroke-width="2" fill="none"></circle>
<circle cx="2746.61" cy="2322.33" r="4" stroke="rgb(0,135,255)" stroke-width="2" fill="none"></circle>
<circle cx="6480.67" cy="1795.12" r="4" stroke="rgb(0,135,255)" stroke-width="2" fill="none"></circle>
<circle cx="1562.47" cy="2349.92" r="4" stroke="rgb(157,255,0)" stroke-width="2" fill="none"></circle>
<circle cx="5486.3" cy="1570.88" r="4" stroke="rgb(157,255,0)" stroke-width="2" fill="none"></circle>
<circle cx="1684.01" cy="2451.07" r="4" stroke="rgb(255,0,59)" stroke-width="2" fill="none"></circle>
<circle cx="6668.62" cy="1045.08" r="4" stroke="rgb(255,0,59)" stroke-width="2" fill="none"></circle>
<circle cx="1476.66" cy="2549.3" r="4" stroke="rgb(255,119,0)" stroke-width="2" fill="none"></circle>
<circle cx="6401.63" cy="982.498" r="4" stroke="rgb(255,119,0)" stroke-width="2" fill="none"></circle>
<circle cx="1249.02" cy="2668.4" r="4" stroke="rgb(186,0,255)" stroke-width="2" fill="none"></circle>
<circle cx="6748.55" cy="1540.01" r="4" stroke="rgb(186,0,255)" stroke-width="2" fill="none"></circle>
</svg>