<?xml version="1.0" standalone="yes"?>
<!-- SVG graphic -->
<svg xmlns='http://www.w3.org/2000/svg' xmlns:xlink='http://www.w3.org/1999/xlink'
width="8064px" height="3024px" preserveAspectRatio="xMinYMin meet" viewBox="0 0 8064 3024" version="1.1">
<image x="0" y="0" width="4032px" height="3024px" opacity="1" xlink:href="/home/jeong/Code/2D-to-3D-Modeling-using-AI/Make3D/Image/20200227_180754.jpg"/>
<image x="4032" y="0" width="4032px" height="3024px" opacity="1" xlink:href="/home/jeong/Code/2D-to-3D-Modeling-using-AI/Make3D/Image/20200227_180814.jpg"/>
<polyline points="1408.07,480.087,5662.36,1077.94" stroke="rgb(255,0,136)" stroke-width="2" fill="none"></polyline>
<polyline points="1840.04,2071.9,6355.22,1672.14" stroke="rgb(255,212,0)" stroke-width="2" fill="none"></polyline>
<polyline points="1266.6,1897.01,5583.75,679.949" stroke="rgb(0,255,254)" stroke-width="2" fill="none"></polyline>
<polyline points="758.253,1844.85,6257.17,721.522" stroke="rgb(255,34,0)" stroke-width="2" fill="none"></polyline>
<polyline points="479.072,2347.65,5502.01,1716.88" stroke="rgb(165,0,255)" stroke-width="2" fill="none"></polyline>
<polyline points="758.253,1844.85,6189.05,727.367" stroke="rgb(0,72,255)" stroke-width="2" fill="none"></polyline>
<polyline points="1394.53,2274.1,6002.41,731.377" stroke="rgb(29,255,0)" stroke-width="2" fill="none"></polyline>
<polyline points="2388.84,1188.58,5733.32,732.038" stroke="rgb(127,255,0)" stroke-width="2" fill="none"></polyline>
<polyline points="1432.65,1904.16,5869.83,1142.62" stroke="rgb(0,203,255)" stroke-width="2" fill="none"></polyline>
<polyline points="1746.39,1411.67,6172.11,1723.95" stroke="rgb(195,0,255)" stroke-width="2" fill="none"></polyline>
<polyline points="2609.18,1861.64,6952.13,1160.52" stroke="rgb(0,46,255)" stroke-width="2" fill="none"></polyline>
<polyline points="1339.27,1980.11,5583.21,746.768" stroke="rgb(46,0,255)" stroke-width="2" fill="none"></polyline>
<polyline points="918.347,690.475,5769.58,768.437" stroke="rgb(0,255,140)" stroke-width="2" fill="none"></polyline>
<polyline points="758.253,1844.85,6320.37,771.514" stroke="rgb(255,157,0)" stroke-width="2" fill="none"></polyline>
<polyline points="1629.19,982.301,5766.13,1612.77" stroke="rgb(255,233,0)" stroke-width="2" fill="none"></polyline>
<polyline points="758.253,1844.85,6186.12,751.754" stroke="rgb(216,0,255)" stroke-width="2" fill="none"></polyline>
<polyline points="1365.02,456.064,6400.97,1196.1" stroke="rgb(0,255,199)" stroke-width="2" fill="none"></polyline>
<polyline points="1365.02,456.064,6400.97,1196.1" stroke="rgb(0,229,255)" stroke-width="2" fill="none"></polyline>
<polyline points="1854.07,1450.63,5546.72,1781.78" stroke="rgb(0,255,38)" stroke-width="2" fill="none"></polyline>
<polyline points="683.832,1955.51,5150.98,1179.52" stroke="rgb(255,216,0)" stroke-width="2" fill="none"></polyline>
<polyline points="758.253,1844.85,6249.03,804.421" stroke="rgb(255,0,221)" stroke-width="2" fill="none"></polyline>
<polyline points="1274.43,461.033,5915.97,901.157" stroke="rgb(255,131,0)" stroke-width="2" fill="none"></polyline>
<polyline points="758.253,1844.85,6317.99,806.078" stroke="rgb(4,0,255)" stroke-width="2" fill="none"></polyline>
<polyline points="1502.3,400.059,6520.26,1204.79" stroke="rgb(233,0,255)" stroke-width="2" fill="none"></polyline>
<polyline points="758.253,1844.85,6248.1,819.726" stroke="rgb(114,0,255)" stroke-width="2" fill="none"></polyline>
<polyline points="2545.89,432.68,6240.8,1481.55" stroke="rgb(0,169,255)" stroke-width="2" fill="none"></polyline>
<polyline points="1654.96,965.745,5178.67,1237.62" stroke="rgb(33,255,0)" stroke-width="2" fill="none"></polyline>
<polyline points="758.253,1844.85,6176.2,884.545" stroke="rgb(0,246,255)" stroke-width="2" fill="none"></polyline>
<polyline points="1354.4,337.85,5987.77,1498.89" stroke="rgb(250,0,255)" stroke-width="2" fill="none"></polyline>
<polyline points="758.253,1844.85,5642.98,889.031" stroke="rgb(0,212,255)" stroke-width="2" fill="none"></polyline>
<polyline points="758.253,1844.85,5758.87,1998.81" stroke="rgb(0,110,255)" stroke-width="2" fill="none"></polyline>
<polyline points="1080.07,451.248,5528.4,893.45" stroke="rgb(114,0,255)" stroke-width="2" fill="none"></polyline>
<polyline points="1076.95,300.37,6583.54,2015.62" stroke="rgb(29,255,0)" stroke-width="2" fill="none"></polyline>
<polyline points="1197.84,318.708,6372.03,897.73" stroke="rgb(114,0,255)" stroke-width="2" fill="none"></polyline>
<polyline points="1730.32,1404.97,6438.88,1667.53" stroke="rgb(148,0,255)" stroke-width="2" fill="none"></polyline>
<polyline points="1199.94,1393.23,6514.3,2046.01" stroke="rgb(102,0,255)" stroke-width="2" fill="none"></polyline>
<polyline points="2545.89,432.68,6237.22,1507.56" stroke="rgb(0,255,42)" stroke-width="2" fill="none"></polyline>
<polyline points="1502.97,2740.8,7254.84,925.149" stroke="rgb(89,0,255)" stroke-width="2" fill="none"></polyline>
<polyline points="1804.79,1491.09,5691.74,929.859" stroke="rgb(255,0,21)" stroke-width="2" fill="none"></polyline>
<polyline points="952.076,1798.99,5300.01,1277.89" stroke="rgb(0,195,255)" stroke-width="2" fill="none"></polyline>
<polyline points="1394.53,2274.1,5979.16,963.138" stroke="rgb(0,225,255)" stroke-width="2" fill="none"></polyline>
<polyline points="1760.95,1809.31,5809.43,1292.45" stroke="rgb(0,67,255)" stroke-width="2" fill="none"></polyline>
<polyline points="2545.89,432.68,6235.03,1532.59" stroke="rgb(255,0,182)" stroke-width="2" fill="none"></polyline>
<polyline points="1384.73,2295.18,6739.72,2259.49" stroke="rgb(0,119,255)" stroke-width="2" fill="none"></polyline>
<polyline points="1239.26,475.297,5696.74,947.417" stroke="rgb(0,255,55)" stroke-width="2" fill="none"></polyline>
<polyline points="1162.53,1146.79,5788.9,2300.98" stroke="rgb(17,0,255)" stroke-width="2" fill="none"></polyline>
<polyline points="1102.33,1219.59,6868.02,1001.48" stroke="rgb(0,255,101)" stroke-width="2" fill="none"></polyline>
<polyline points="1551.77,1174.62,5920.4,1321.25" stroke="rgb(254,0,255)" stroke-width="2" fill="none"></polyline>
<polyline points="1557.73,2730.57,5778.35,2388.12" stroke="rgb(208,255,0)" stroke-width="2" fill="none"></polyline>
<polyline points="1822.43,1464.55,5752.79,996.055" stroke="rgb(140,0,255)" stroke-width="2" fill="none"></polyline>
<polyline points="1092.43,1237.5,6872.26,995.967" stroke="rgb(255,0,38)" stroke-width="2" fill="none"></polyline>
<polyline points="1673.18,2009.54,6958.65,1236.51" stroke="rgb(255,80,0)" stroke-width="2" fill="none"></polyline>
<polyline points="2662.31,2487.49,6952.99,1258.12" stroke="rgb(0,255,237)" stroke-width="2" fill="none"></polyline>
<polyline points="1752.3,1408.23,6821.29,1571.94" stroke="rgb(67,255,0)" stroke-width="2" fill="none"></polyline>
<polyline points="1654.96,965.745,6489.66,1966.68" stroke="rgb(255,0,195)" stroke-width="2" fill="none"></polyline>
<polyline points="1296.28,883.512,6903.51,2018.19" stroke="rgb(157,255,0)" stroke-width="2" fill="none"></polyline>
<polyline points="758.253,1844.85,6296.35,1089.7" stroke="rgb(0,255,237)" stroke-width="2" fill="none"></polyline>
<polyline points="1673.56,2067.48,5871.65,2105.55" stroke="rgb(229,255,0)" stroke-width="2" fill="none"></polyline>
<polyline points="933.015,1591.91,6861.88,2177.91" stroke="rgb(0,255,72)" stroke-width="2" fill="none"></polyline>
<polyline points="1089.25,1211.77,6993.01,1642.23" stroke="rgb(255,0,51)" stroke-width="2" fill="none"></polyline>
<polyline points="695.932,1112.26,5906.1,2288.28" stroke="rgb(0,255,38)" stroke-width="2" fill="none"></polyline>
<polyline points="2540.89,2462.98,6809.09,1436.7" stroke="rgb(0,67,255)" stroke-width="2" fill="none"></polyline>
<polyline points="2613.97,2188.13,5738.91,596.171" stroke="rgb(63,0,255)" stroke-width="2" fill="none"></polyline>
<polyline points="2293.66,698.739,5434.11,1928.21" stroke="rgb(8,0,255)" stroke-width="2" fill="none"></polyline>
<polyline points="1045.85,166.205,6872.37,2166.74" stroke="rgb(255,12,0)" stroke-width="2" fill="none"></polyline>
<polyline points="1491.54,449.725,6728,2426.96" stroke="rgb(255,182,0)" stroke-width="2" fill="none"></polyline>
<polyline points="2613.97,2188.13,5739.64,596.621" stroke="rgb(0,255,110)" stroke-width="2" fill="none"></polyline>
<polyline points="2819.88,839.664,6887.51,912.43" stroke="rgb(255,21,0)" stroke-width="2" fill="none"></polyline>
<polyline points="617.181,567.145,4965.39,590.876" stroke="rgb(0,255,237)" stroke-width="2" fill="none"></polyline>
<polyline points="787.292,1750.08,4919.08,2059.67" stroke="rgb(0,255,89)" stroke-width="2" fill="none"></polyline>
<polyline points="1045.85,166.205,6864.17,2206.17" stroke="rgb(0,174,255)" stroke-width="2" fill="none"></polyline>
<polyline points="1821.65,2581.41,5404.01,1228.41" stroke="rgb(0,21,255)" stroke-width="2" fill="none"></polyline>
<polyline points="405.049,688.63,5017.17,582.217" stroke="rgb(0,12,255)" stroke-width="2" fill="none"></polyline>
<polyline points="1672.49,2055.45,5911.49,1340.81" stroke="rgb(255,119,0)" stroke-width="2" fill="none"></polyline>
<polyline points="1248.62,508.223,6326.41,2181.8" stroke="rgb(140,255,0)" stroke-width="2" fill="none"></polyline>
<polyline points="2125.81,2448.3,5420.04,1988.48" stroke="rgb(255,42,0)" stroke-width="2" fill="none"></polyline>
<polyline points="1689.56,2053.2,6466.98,2464.4" stroke="rgb(140,0,255)" stroke-width="2" fill="none"></polyline>
<polyline points="1378.88,1425.44,4812.16,546.181" stroke="rgb(0,38,255)" stroke-width="2" fill="none"></polyline>
<circle cx="1408.07" cy="480.087" r="4" stroke="rgb(255,0,136)" stroke-width="2" fill="none"></circle>
<circle cx="5662.36" cy="1077.94" r="4" stroke="rgb(255,0,136)" stroke-width="2" fill="none"></circle>
<circle cx="1840.04" cy="2071.9" r="4" stroke="rgb(255,212,0)" stroke-width="2" fill="none"></circle>
<circle cx="6355.22" cy="1672.14" r="4" stroke="rgb(255,212,0)" stroke-width="2" fill="none"></circle>
<circle cx="1266.6" cy="1897.01" r="4" stroke="rgb(0,255,254)" stroke-width="2" fill="none"></circle>
<circle cx="5583.75" cy="679.949" r="4" stroke="rgb(0,255,254)" stroke-width="2" fill="none"></circle>
<circle cx="758.253" cy="1844.85" r="4" stroke="rgb(255,34,0)" stroke-width="2" fill="none"></circle>
<circle cx="6257.17" cy="721.522" r="4" stroke="rgb(255,34,0)" stroke-width="2" fill="none"></circle>
<circle cx="479.072" cy="2347.65" r="4" stroke="rgb(165,0,255)" stroke-width="2" fill="none"></circle>
<circle cx="5502.01" cy="1716.88" r="4" stroke="rgb(165,0,255)" stroke-width="2" fill="none"></circle>
<circle cx="758.253" cy="1844.85" r="4" stroke="rgb(0,72,255)" stroke-width="2" fill="none"></circle>
<circle cx="6189.05" cy="727.367" r="4" stroke="rgb(0,72,255)" stroke-width="2" fill="none"></circle>
<circle cx="1394.53" cy="2274.1" r="4" stroke="rgb(29,255,0)" stroke-width="2" fill="none"></circle>
<circle cx="6002.41" cy="731.377" r="4" stroke="rgb(29,255,0)" stroke-width="2" fill="none"></circle>
<circle cx="2388.84" cy="1188.58" r="4" stroke="rgb(127,255,0)" stroke-width="2" fill="none"></circle>
<circle cx="5733.32" cy="732.038" r="4" stroke="rgb(127,255,0)" stroke-width="2" fill="none"></circle>
<circle cx="1432.65" cy="1904.16" r="4" stroke="rgb(0,203,255)" stroke-width="2" fill="none"></circle>
<circle cx="5869.83" cy="1142.62" r="4" stroke="rgb(0,203,255)" stroke-width="2" fill="none"></circle>
<circle cx="1746.39" cy="1411.67" r="4" stroke="rgb(195,0,255)" stroke-width="2" fill="none"></circle>
<circle cx="6172.11" cy="1723.95" r="4" stroke="rgb(195,0,255)" stroke-width="2" fill="none"></circle>
<circle cx="2609.18" cy="1861.64" r="4" stroke="rgb(0,46,255)" stroke-width="2" fill="none"></circle>
<circle cx="6952.13" cy="1160.52" r="4" stroke="rgb(0,46,255)" stroke-width="2" fill="none"></circle>
<circle cx="1339.27" cy="1980.11" r="4" stroke="rgb(46,0,255)" stroke-width="2" fill="none"></circle>
<circle cx="5583.21" cy="746.768" r="4" stroke="rgb(46,0,255)" stroke-width="2" fill="none"></circle>
<circle cx="918.347" cy="690.475" r="4" stroke="rgb(0,255,140)" stroke-width="2" fill="none"></circle>
<circle cx="5769.58" cy="768.437" r="4" stroke="rgb(0,255,140)" stroke-width="2" fill="none"></circle>
<circle cx="758.253" cy="1844.85" r="4" stroke="rgb(255,157,0)" stroke-width="2" fill="none"></circle>
<circle cx="6320.37" cy="771.514" r="4" stroke="rgb(255,157,0)" stroke-width="2" fill="none"></circle>
<circle cx="1629.19" cy="982.301" r="4" stroke="rgb(255,233,0)" stroke-width="2" fill="none"></circle>
<circle cx="5766.13" cy="1612.77" r="4" stroke="rgb(255,233,0)" stroke-width="2" fill="none"></circle>
<circle cx="758.253" cy="1844.85" r="4" stroke="rgb(216,0,255)" stroke-width="2" fill="none"></circle>
<circle cx="6186.12" cy="751.754" r="4" stroke="rgb(216,0,255)" stroke-width="2" fill="none"></circle>
<circle cx="1365.02" cy="456.064" r="4" stroke="rgb(0,255,199)" stroke-width="2" fill="none"></circle>
<circle cx="6400.97" cy="1196.1" r="4" stroke="rgb(0,255,199)" stroke-width="2" fill="none"></circle>
<circle cx="1365.02" cy="456.064" r="4" stroke="rgb(0,229,255)" stroke-width="2" fill="none"></circle>
<circle cx="6400.97" cy="1196.1" r="4" stroke="rgb(0,229,255)" stroke-width="2" fill="none"></circle>
<circle cx="1854.07" cy="1450.63" r="4" stroke="rgb(0,255,38)" stroke-width="2" fill="none"></circle>
<circle cx="5546.72" cy="1781.78" r="4" stroke="rgb(0,255,38)" stroke-width="2" fill="none"></circle>
<circle cx="683.832" cy="1955.51" r="4" stroke="rgb(255,216,0)" stroke-width="2" fill="none"></circle>
<circle cx="5150.98" cy="1179.52" r="4" stroke="rgb(255,216,0)" stroke-width="2" fill="none"></circle>
<circle cx="758.253" cy="1844.85" r="4" stroke="rgb(255,0,221)" stroke-width="2" fill="none"></circle>
<circle cx="6249.03" cy="804.421" r="4" stroke="rgb(255,0,221)" stroke-width="2" fill="none"></circle>
<circle cx="1274.43" cy="461.033" r="4" stroke="rgb(255,131,0)" stroke-width="2" fill="none"></circle>
<circle cx="5915.97" cy="901.157" r="4" stroke="rgb(255,131,0)" stroke-width="2" fill="none"></circle>
<circle cx="758.253" cy="1844.85" r="4" stroke="rgb(4,0,255)" stroke-width="2" fill="none"></circle>
<circle cx="6317.99" cy="806.078" r="4" stroke="rgb(4,0,255)" stroke-width="2" fill="none"></circle>
<circle cx="1502.3" cy="400.059" r="4" stroke="rgb(233,0,255)" stroke-width="2" fill="none"></circle>
<circle cx="6520.26" cy="1204.79" r="4" stroke="rgb(233,0,255)" stroke-width="2" fill="none"></circle>
<circle cx="758.253" cy="1844.85" r="4" stroke="rgb(114,0,255)" stroke-width="2" fill="none"></circle>
<circle cx="6248.1" cy="819.726" r="4" stroke="rgb(114,0,255)" stroke-width="2" fill="none"></circle>
<circle cx="2545.89" cy="432.68" r="4" stroke="rgb(0,169,255)" stroke-width="2" fill="none"></circle>
<circle cx="6240.8" cy="1481.55" r="4" stroke="rgb(0,169,255)" stroke-width="2" fill="none"></circle>
<circle cx="1654.96" cy="965.745" r="4" stroke="rgb(33,255,0)" stroke-width="2" fill="none"></circle>
<circle cx="5178.67" cy="1237.62" r="4" stroke="rgb(33,255,0)" stroke-width="2" fill="none"></circle>
<circle cx="758.253" cy="1844.85" r="4" stroke="rgb(0,246,255)" stroke-width="2" fill="none"></circle>
<circle cx="6176.2" cy="884.545" r="4" stroke="rgb(0,246,255)" stroke-width="2" fill="none"></circle>
<circle cx="1354.4" cy="337.85" r="4" stroke="rgb(250,0,255)" stroke-width="2" fill="none"></circle>
<circle cx="5987.77" cy="1498.89" r="4" stroke="rgb(250,0,255)" stroke-width="2" fill="none"></circle>
<circle cx="758.253" cy="1844.85" r="4" stroke="rgb(0,212,255)" stroke-width="2" fill="none"></circle>
<circle cx="5642.98" cy="889.031" r="4" stroke="rgb(0,212,255)" stroke-width="2" fill="none"></circle>
<circle cx="758.253" cy="1844.85" r="4" stroke="rgb(0,110,255)" stroke-width="2" fill="none"></circle>
<circle cx="5758.87" cy="1998.81" r="4" stroke="rgb(0,110,255)" stroke-width="2" fill="none"></circle>
<circle cx="1080.07" cy="451.248" r="4" stroke="rgb(114,0,255)" stroke-width="2" fill="none"></circle>
<circle cx="5528.4" cy="893.45" r="4" stroke="rgb(114,0,255)" stroke-width="2" fill="none"></circle>
<circle cx="1076.95" cy="300.37" r="4" stroke="rgb(29,255,0)" stroke-width="2" fill="none"></circle>
<circle cx="6583.54" cy="2015.62" r="4" stroke="rgb(29,255,0)" stroke-width="2" fill="none"></circle>
<circle cx="1197.84" cy="318.708" r="4" stroke="rgb(114,0,255)" stroke-width="2" fill="none"></circle>
<circle cx="6372.03" cy="897.73" r="4" stroke="rgb(114,0,255)" stroke-width="2" fill="none"></circle>
<circle cx="1730.32" cy="1404.97" r="4" stroke="rgb(148,0,255)" stroke-width="2" fill="none"></circle>
<circle cx="6438.88" cy="1667.53" r="4" stroke="rgb(148,0,255)" stroke-width="2" fill="none"></circle>
<circle cx="1199.94" cy="1393.23" r="4" stroke="rgb(102,0,255)" stroke-width="2" fill="none"></circle>
<circle cx="6514.3" cy="2046.01" r="4" stroke="rgb(102,0,255)" stroke-width="2" fill="none"></circle>
<circle cx="2545.89" cy="432.68" r="4" stroke="rgb(0,255,42)" stroke-width="2" fill="none"></circle>
<circle cx="6237.22" cy="1507.56" r="4" stroke="rgb(0,255,42)" stroke-width="2" fill="none"></circle>
<circle cx="1502.97" cy="2740.8" r="4" stroke="rgb(89,0,255)" stroke-width="2" fill="none"></circle>
<circle cx="7254.84" cy="925.149" r="4" stroke="rgb(89,0,255)" stroke-width="2" fill="none"></circle>
<circle cx="1804.79" cy="1491.09" r="4" stroke="rgb(255,0,21)" stroke-width="2" fill="none"></circle>
<circle cx="5691.74" cy="929.859" r="4" stroke="rgb(255,0,21)" stroke-width="2" fill="none"></circle>
<circle cx="952.076" cy="1798.99" r="4" stroke="rgb(0,195,255)" stroke-width="2" fill="none"></circle>
<circle cx="5300.01" cy="1277.89" r="4" stroke="rgb(0,195,255)" stroke-width="2" fill="none"></circle>
<circle cx="1394.53" cy="2274.1" r="4" stroke="rgb(0,225,255)" stroke-width="2" fill="none"></circle>
<circle cx="5979.16" cy="963.138" r="4" stroke="rgb(0,225,255)" stroke-width="2" fill="none"></circle>
<circle cx="1760.95" cy="1809.31" r="4" stroke="rgb(0,67,255)" stroke-width="2" fill="none"></circle>
<circle cx="5809.43" cy="1292.45" r="4" stroke="rgb(0,67,255)" stroke-width="2" fill="none"></circle>
<circle cx="2545.89" cy="432.68" r="4" stroke="rgb(255,0,182)" stroke-width="2" fill="none"></circle>
<circle cx="6235.03" cy="1532.59" r="4" stroke="rgb(255,0,182)" stroke-width="2" fill="none"></circle>
<circle cx="1384.73" cy="2295.18" r="4" stroke="rgb(0,119,255)" stroke-width="2" fill="none"></circle>
<circle cx="6739.72" cy="2259.49" r="4" stroke="rgb(0,119,255)" stroke-width="2" fill="none"></circle>
<circle cx="1239.26" cy="475.297" r="4" stroke="rgb(0,255,55)" stroke-width="2" fill="none"></circle>
<circle cx="5696.74" cy="947.417" r="4" stroke="rgb(0,255,55)" stroke-width="2" fill="none"></circle>
<circle cx="1162.53" cy="1146.79" r="4" stroke="rgb(17,0,255)" stroke-width="2" fill="none"></circle>
<circle cx="5788.9" cy="2300.98" r="4" stroke="rgb(17,0,255)" stroke-width="2" fill="none"></circle>
<circle cx="1102.33" cy="1219.59" r="4" stroke="rgb(0,255,101)" stroke-width="2" fill="none"></circle>
<circle cx="6868.02" cy="1001.48" r="4" stroke="rgb(0,255,101)" stroke-width="2" fill="none"></circle>
<circle cx="1551.77" cy="1174.62" r="4" stroke="rgb(254,0,255)" stroke-width="2" fill="none"></circle>
<circle cx="5920.4" cy="1321.25" r="4" stroke="rgb(254,0,255)" stroke-width="2" fill="none"></circle>
<circle cx="1557.73" cy="2730.57" r="4" stroke="rgb(208,255,0)" stroke-width="2" fill="none"></circle>
<circle cx="5778.35" cy="2388.12" r="4" stroke="rgb(208,255,0)" stroke-width="2" fill="none"></circle>
<circle cx="1822.43" cy="1464.55" r="4" stroke="rgb(140,0,255)" stroke-width="2" fill="none"></circle>
<circle cx="5752.79" cy="996.055" r="4" stroke="rgb(140,0,255)" stroke-width="2" fill="none"></circle>
<circle cx="1092.43" cy="1237.5" r="4" stroke="rgb(255,0,38)" stroke-width="2" fill="none"></circle>
<circle cx="6872.26" cy="995.967" r="4" stroke="rgb(255,0,38)" stroke-width="2" fill="none"></circle>
<circle cx="1673.18" cy="2009.54" r="4" stroke="rgb(255,80,0)" stroke-width="2" fill="none"></circle>
<circle cx="6958.65" cy="1236.51" r="4" stroke="rgb(255,80,0)" stroke-width="2" fill="none"></circle>
<circle cx="2662.31" cy="2487.49" r="4" stroke="rgb(0,255,237)" stroke-width="2" fill="none"></circle>
<circle cx="6952.99" cy="1258.12" r="4" stroke="rgb(0,255,237)" stroke-width="2" fill="none"></circle>
<circle cx="1752.3" cy="1408.23" r="4" stroke="rgb(67,255,0)" stroke-width="2" fill="none"></circle>
<circle cx="6821.29" cy="1571.94" r="4" stroke="rgb(67,255,0)" stroke-width="2" fill="none"></circle>
<circle cx="1654.96" cy="965.745" r="4" stroke="rgb(255,0,195)" stroke-width="2" fill="none"></circle>
<circle cx="6489.66" cy="1966.68" r="4" stroke="rgb(255,0,195)" stroke-width="2" fill="none"></circle>
<circle cx="1296.28" cy="883.512" r="4" stroke="rgb(157,255,0)" stroke-width="2" fill="none"></circle>
<circle cx="6903.51" cy="2018.19" r="4" stroke="rgb(157,255,0)" stroke-width="2" fill="none"></circle>
<circle cx="758.253" cy="1844.85" r="4" stroke="rgb(0,255,237)" stroke-width="2" fill="none"></circle>
<circle cx="6296.35" cy="1089.7" r="4" stroke="rgb(0,255,237)" stroke-width="2" fill="none"></circle>
<circle cx="1673.56" cy="2067.48" r="4" stroke="rgb(229,255,0)" stroke-width="2" fill="none"></circle>
<circle cx="5871.65" cy="2105.55" r="4" stroke="rgb(229,255,0)" stroke-width="2" fill="none"></circle>
<circle cx="933.015" cy="1591.91" r="4" stroke="rgb(0,255,72)" stroke-width="2" fill="none"></circle>
<circle cx="6861.88" cy="2177.91" r="4" stroke="rgb(0,255,72)" stroke-width="2" fill="none"></circle>
<circle cx="1089.25" cy="1211.77" r="4" stroke="rgb(255,0,51)" stroke-width="2" fill="none"></circle>
<circle cx="6993.01" cy="1642.23" r="4" stroke="rgb(255,0,51)" stroke-width="2" fill="none"></circle>
<circle cx="695.932" cy="1112.26" r="4" stroke="rgb(0,255,38)" stroke-width="2" fill="none"></circle>
<circle cx="5906.1" cy="2288.28" r="4" stroke="rgb(0,255,38)" stroke-width="2" fill="none"></circle>
<circle cx="2540.89" cy="2462.98" r="4" stroke="rgb(0,67,255)" stroke-width="2" fill="none"></circle>
<circle cx="6809.09" cy="1436.7" r="4" stroke="rgb(0,67,255)" stroke-width="2" fill="none"></circle>
<circle cx="2613.97" cy="2188.13" r="4" stroke="rgb(63,0,255)" stroke-width="2" fill="none"></circle>
<circle cx="5738.91" cy="596.171" r="4" stroke="rgb(63,0,255)" stroke-width="2" fill="none"></circle>
<circle cx="2293.66" cy="698.739" r="4" stroke="rgb(8,0,255)" stroke-width="2" fill="none"></circle>
<circle cx="5434.11" cy="1928.21" r="4" stroke="rgb(8,0,255)" stroke-width="2" fill="none"></circle>
<circle cx="1045.85" cy="166.205" r="4" stroke="rgb(255,12,0)" stroke-width="2" fill="none"></circle>
<circle cx="6872.37" cy="2166.74" r="4" stroke="rgb(255,12,0)" stroke-width="2" fill="none"></circle>
<circle cx="1491.54" cy="449.725" r="4" stroke="rgb(255,182,0)" stroke-width="2" fill="none"></circle>
<circle cx="6728" cy="2426.96" r="4" stroke="rgb(255,182,0)" stroke-width="2" fill="none"></circle>
<circle cx="2613.97" cy="2188.13" r="4" stroke="rgb(0,255,110)" stroke-width="2" fill="none"></circle>
<circle cx="5739.64" cy="596.621" r="4" stroke="rgb(0,255,110)" stroke-width="2" fill="none"></circle>
<circle cx="2819.88" cy="839.664" r="4" stroke="rgb(255,21,0)" stroke-width="2" fill="none"></circle>
<circle cx="6887.51" cy="912.43" r="4" stroke="rgb(255,21,0)" stroke-width="2" fill="none"></circle>
<circle cx="617.181" cy="567.145" r="4" stroke="rgb(0,255,237)" stroke-width="2" fill="none"></circle>
<circle cx="4965.39" cy="590.876" r="4" stroke="rgb(0,255,237)" stroke-width="2" fill="none"></circle>
<circle cx="787.292" cy="1750.08" r="4" stroke="rgb(0,255,89)" stroke-width="2" fill="none"></circle>
<circle cx="4919.08" cy="2059.67" r="4" stroke="rgb(0,255,89)" stroke-width="2" fill="none"></circle>
<circle cx="1045.85" cy="166.205" r="4" stroke="rgb(0,174,255)" stroke-width="2" fill="none"></circle>
<circle cx="6864.17" cy="2206.17" r="4" stroke="rgb(0,174,255)" stroke-width="2" fill="none"></circle>
<circle cx="1821.65" cy="2581.41" r="4" stroke="rgb(0,21,255)" stroke-width="2" fill="none"></circle>
<circle cx="5404.01" cy="1228.41" r="4" stroke="rgb(0,21,255)" stroke-width="2" fill="none"></circle>
<circle cx="405.049" cy="688.63" r="4" stroke="rgb(0,12,255)" stroke-width="2" fill="none"></circle>
<circle cx="5017.17" cy="582.217" r="4" stroke="rgb(0,12,255)" stroke-width="2" fill="none"></circle>
<circle cx="1672.49" cy="2055.45" r="4" stroke="rgb(255,119,0)" stroke-width="2" fill="none"></circle>
<circle cx="5911.49" cy="1340.81" r="4" stroke="rgb(255,119,0)" stroke-width="2" fill="none"></circle>
<circle cx="1248.62" cy="508.223" r="4" stroke="rgb(140,255,0)" stroke-width="2" fill="none"></circle>
<circle cx="6326.41" cy="2181.8" r="4" stroke="rgb(140,255,0)" stroke-width="2" fill="none"></circle>
<circle cx="2125.81" cy="2448.3" r="4" stroke="rgb(255,42,0)" stroke-width="2" fill="none"></circle>
<circle cx="5420.04" cy="1988.48" r="4" stroke="rgb(255,42,0)" stroke-width="2" fill="none"></circle>
<circle cx="1689.56" cy="2053.2" r="4" stroke="rgb(140,0,255)" stroke-width="2" fill="none"></circle>
<circle cx="6466.98" cy="2464.4" r="4" stroke="rgb(140,0,255)" stroke-width="2" fill="none"></circle>
<circle cx="1378.88" cy="1425.44" r="4" stroke="rgb(0,38,255)" stroke-width="2" fill="none"></circle>
<circle cx="4812.16" cy="546.181" r="4" stroke="rgb(0,38,255)" stroke-width="2" fill="none"></circle>
</svg>