<?xml version="1.0" standalone="yes"?>
<!-- SVG graphic -->
<svg xmlns='http://www.w3.org/2000/svg' xmlns:xlink='http://www.w3.org/1999/xlink'
width="8064px" height="3024px" preserveAspectRatio="xMinYMin meet" viewBox="0 0 8064 3024" version="1.1">
<image x="0" y="0" width="4032px" height="3024px" opacity="1" xlink:href="/home/jeong/Code/2D-to-3D-Modeling-using-AI/Make3D/Image/20200227_180756.jpg"/>
<image x="4032" y="0" width="4032px" height="3024px" opacity="1" xlink:href="/home/jeong/Code/2D-to-3D-Modeling-using-AI/Make3D/Image/20200227_180809.jpg"/>
<polyline points="1097.96,406.763,6597.45,1102.64" stroke="rgb(255,0,169)" stroke-width="2" fill="none"></polyline>
<polyline points="995.304,437.78,5912.91,1388.15" stroke="rgb(0,17,255)" stroke-width="2" fill="none"></polyline>
<polyline points="1006.01,446.385,6729.44,1884.93" stroke="rgb(255,0,68)" stroke-width="2" fill="none"></polyline>
<polyline points="1329,449.495,6472.3,1129.42" stroke="rgb(21,255,0)" stroke-width="2" fill="none"></polyline>
<polyline points="1355.18,469.304,5637.92,1902.69" stroke="rgb(0,174,255)" stroke-width="2" fill="none"></polyline>
<polyline points="2324.2,513.074,6626.88,1828.88" stroke="rgb(255,178,0)" stroke-width="2" fill="none"></polyline>
<polyline points="2177.2,519.813,6731.62,1994.31" stroke="rgb(255,255,0)" stroke-width="2" fill="none"></polyline>
<polyline points="1093.05,522.792,6514.34,1422.52" stroke="rgb(0,72,255)" stroke-width="2" fill="none"></polyline>
<polyline points="1260,543.81,5717.41,1117.33" stroke="rgb(255,140,0)" stroke-width="2" fill="none"></polyline>
<polyline points="1328.57,544.567,6048.72,1982.81" stroke="rgb(255,136,0)" stroke-width="2" fill="none"></polyline>
<polyline points="1285.67,555.62,5873.83,1254.54" stroke="rgb(255,148,0)" stroke-width="2" fill="none"></polyline>
<polyline points="1769.77,611.901,6019.73,1865.73" stroke="rgb(33,255,0)" stroke-width="2" fill="none"></polyline>
<polyline points="1941.51,763.004,5078.53,1260.96" stroke="rgb(0,255,216)" stroke-width="2" fill="none"></polyline>
<polyline points="526.146,794.644,5530.29,1316.92" stroke="rgb(0,221,255)" stroke-width="2" fill="none"></polyline>
<polyline points="515.163,809.267,6310.91,1626.02" stroke="rgb(0,255,16)" stroke-width="2" fill="none"></polyline>
<polyline points="507.757,817.901,6647.96,1988.12" stroke="rgb(0,255,123)" stroke-width="2" fill="none"></polyline>
<polyline points="1788.02,825.682,6599.88,2105.31" stroke="rgb(255,221,0)" stroke-width="2" fill="none"></polyline>
<polyline points="1151.12,887.629,5554.46,1829.98" stroke="rgb(46,255,0)" stroke-width="2" fill="none"></polyline>
<polyline points="1327.7,921.674,5893.83,1852.17" stroke="rgb(140,0,255)" stroke-width="2" fill="none"></polyline>
<polyline points="940.491,925.425,7005.15,1226.37" stroke="rgb(255,131,0)" stroke-width="2" fill="none"></polyline>
<polyline points="456.291,932.939,5977.77,1972.71" stroke="rgb(50,0,255)" stroke-width="2" fill="none"></polyline>
<polyline points="1372.91,944.867,5755.91,1726.38" stroke="rgb(255,153,0)" stroke-width="2" fill="none"></polyline>
<polyline points="1394.21,960.525,5768.97,1336.63" stroke="rgb(140,0,255)" stroke-width="2" fill="none"></polyline>
<polyline points="468.104,982.292,5469.31,1454.82" stroke="rgb(0,255,55)" stroke-width="2" fill="none"></polyline>
<polyline points="2048.84,1000.85,6625.85,1906.13" stroke="rgb(140,255,0)" stroke-width="2" fill="none"></polyline>
<polyline points="600.203,1061.07,6720.98,2304.1" stroke="rgb(255,170,0)" stroke-width="2" fill="none"></polyline>
<polyline points="1396.94,1070.58,6258.47,1924.4" stroke="rgb(0,255,169)" stroke-width="2" fill="none"></polyline>
<polyline points="1503.94,1140.9,6845.78,1422.74" stroke="rgb(0,255,152)" stroke-width="2" fill="none"></polyline>
<polyline points="1503.99,1147.81,6769.44,1651.76" stroke="rgb(255,165,0)" stroke-width="2" fill="none"></polyline>
<polyline points="1485.19,1156.26,5671.86,1209.69" stroke="rgb(255,178,0)" stroke-width="2" fill="none"></polyline>
<polyline points="896.638,1187.82,6097.74,2098.92" stroke="rgb(0,255,195)" stroke-width="2" fill="none"></polyline>
<polyline points="2463.3,1221.94,5396.38,1998.74" stroke="rgb(255,0,0)" stroke-width="2" fill="none"></polyline>
<polyline points="1501.09,1311.31,5736.32,1983.25" stroke="rgb(165,0,255)" stroke-width="2" fill="none"></polyline>
<polyline points="1688.98,1345.41,6522.65,1471.11" stroke="rgb(255,93,0)" stroke-width="2" fill="none"></polyline>
<polyline points="1538.06,1354.25,6140.54,1963.52" stroke="rgb(255,0,55)" stroke-width="2" fill="none"></polyline>
<polyline points="1537.39,1361.69,5367.24,1450.21" stroke="rgb(255,0,42)" stroke-width="2" fill="none"></polyline>
<polyline points="2439.59,1371.11,5943.37,1238.23" stroke="rgb(237,255,0)" stroke-width="2" fill="none"></polyline>
<polyline points="1517.34,1373.76,6050.47,1265" stroke="rgb(255,199,0)" stroke-width="2" fill="none"></polyline>
<polyline points="2580.25,1380.19,6643.87,2020.06" stroke="rgb(148,255,0)" stroke-width="2" fill="none"></polyline>
<polyline points="1937.77,1403.67,5424.13,1169.28" stroke="rgb(93,255,0)" stroke-width="2" fill="none"></polyline>
<polyline points="1613.93,1408.29,5723.58,1194.77" stroke="rgb(255,0,208)" stroke-width="2" fill="none"></polyline>
<polyline points="1613.89,1414.64,6510.16,1130.3" stroke="rgb(0,255,4)" stroke-width="2" fill="none"></polyline>
<polyline points="1550.85,1433.81,5360.3,1549.62" stroke="rgb(161,255,0)" stroke-width="2" fill="none"></polyline>
<polyline points="1602.94,1436.45,5808.33,2210.04" stroke="rgb(0,255,8)" stroke-width="2" fill="none"></polyline>
<polyline points="1588.98,1440.02,5362.58,1407.74" stroke="rgb(255,0,216)" stroke-width="2" fill="none"></polyline>
<polyline points="1815.9,1442.61,6666.82,1818.56" stroke="rgb(0,144,255)" stroke-width="2" fill="none"></polyline>
<polyline points="1615.3,1447.24,6735.53,1541.29" stroke="rgb(0,255,97)" stroke-width="2" fill="none"></polyline>
<polyline points="1604.26,1448.93,6286.3,1998.12" stroke="rgb(255,4,0)" stroke-width="2" fill="none"></polyline>
<polyline points="938.979,1461.66,4686.87,1134.71" stroke="rgb(0,225,255)" stroke-width="2" fill="none"></polyline>
<polyline points="1718.17,1462.84,5566.24,2136.85" stroke="rgb(255,238,0)" stroke-width="2" fill="none"></polyline>
<polyline points="1603.95,1463.89,6280.93,1951.19" stroke="rgb(102,0,255)" stroke-width="2" fill="none"></polyline>
<polyline points="1739.42,1465.46,6588.98,2000.56" stroke="rgb(255,0,208)" stroke-width="2" fill="none"></polyline>
<polyline points="1686.1,1476.81,5665.55,1892.15" stroke="rgb(255,0,148)" stroke-width="2" fill="none"></polyline>
<polyline points="1755.17,1488.11,6025.08,2038.24" stroke="rgb(255,208,0)" stroke-width="2" fill="none"></polyline>
<polyline points="774.923,1495.18,5349.57,2032.58" stroke="rgb(153,255,0)" stroke-width="2" fill="none"></polyline>
<polyline points="1309.71,1507.2,6718.34,1924.51" stroke="rgb(255,221,0)" stroke-width="2" fill="none"></polyline>
<polyline points="1363.73,1545.15,6412.55,1746.04" stroke="rgb(131,255,0)" stroke-width="2" fill="none"></polyline>
<polyline points="2352.16,1551.64,5690.02,1786.77" stroke="rgb(17,0,255)" stroke-width="2" fill="none"></polyline>
<polyline points="1781.81,1563.42,5595.95,2123.11" stroke="rgb(0,135,255)" stroke-width="2" fill="none"></polyline>
<polyline points="1760.28,1571.87,5877.27,1836.5" stroke="rgb(0,255,38)" stroke-width="2" fill="none"></polyline>
<polyline points="2329.13,1573.97,5081.08,1236.57" stroke="rgb(0,255,165)" stroke-width="2" fill="none"></polyline>
<polyline points="1435.42,1577.65,6430.59,1616.99" stroke="rgb(25,0,255)" stroke-width="2" fill="none"></polyline>
<polyline points="962.72,1646.68,6095.26,1868.91" stroke="rgb(255,4,0)" stroke-width="2" fill="none"></polyline>
<polyline points="2237.37,1662.38,5718,1995.77" stroke="rgb(178,255,0)" stroke-width="2" fill="none"></polyline>
<polyline points="953.335,1690.84,6408.32,1964.85" stroke="rgb(118,0,255)" stroke-width="2" fill="none"></polyline>
<polyline points="2251.85,1707.77,6730.33,1250.77" stroke="rgb(255,0,51)" stroke-width="2" fill="none"></polyline>
<polyline points="2354.68,1746.74,6112.35,1832.64" stroke="rgb(221,255,0)" stroke-width="2" fill="none"></polyline>
<polyline points="1456.83,1780.56,6320.16,2022.71" stroke="rgb(255,0,119)" stroke-width="2" fill="none"></polyline>
<polyline points="1730.49,1846.03,6066.05,1072.41" stroke="rgb(114,0,255)" stroke-width="2" fill="none"></polyline>
<polyline points="2409.47,1849.75,6476.77,1230.24" stroke="rgb(0,255,140)" stroke-width="2" fill="none"></polyline>
<polyline points="1661.46,1871.03,6625.26,1724.45" stroke="rgb(255,0,246)" stroke-width="2" fill="none"></polyline>
<polyline points="1690.18,1898.09,5688.22,1089.99" stroke="rgb(0,93,255)" stroke-width="2" fill="none"></polyline>
<polyline points="1579.49,1924.24,6539.02,1666.48" stroke="rgb(0,255,110)" stroke-width="2" fill="none"></polyline>
<polyline points="1546.33,1981.26,6254.5,1986.49" stroke="rgb(255,102,0)" stroke-width="2" fill="none"></polyline>
<polyline points="1410.51,2039.49,6113.69,1947.78" stroke="rgb(0,119,255)" stroke-width="2" fill="none"></polyline>
<polyline points="1396.35,2066.65,6242.47,2003.54" stroke="rgb(255,0,140)" stroke-width="2" fill="none"></polyline>
<polyline points="1853.79,2090.47,5918.21,1373.48" stroke="rgb(76,255,0)" stroke-width="2" fill="none"></polyline>
<polyline points="2457.29,2091.95,6496.28,1947.85" stroke="rgb(255,0,21)" stroke-width="2" fill="none"></polyline>
<polyline points="1714.86,2104.77,5998.59,2072.18" stroke="rgb(0,169,255)" stroke-width="2" fill="none"></polyline>
<polyline points="1294.69,2129.49,6501.78,1104.98" stroke="rgb(212,0,255)" stroke-width="2" fill="none"></polyline>
<polyline points="1283.72,2200.35,5897.65,1698.8" stroke="rgb(182,0,255)" stroke-width="2" fill="none"></polyline>
<polyline points="1884.72,2225.57,5699.87,1442.61" stroke="rgb(255,0,101)" stroke-width="2" fill="none"></polyline>
<polyline points="1346.58,2292.82,6452.79,1218.7" stroke="rgb(29,255,0)" stroke-width="2" fill="none"></polyline>
<polyline points="1335.04,2293.42,6495.02,2074.06" stroke="rgb(34,0,255)" stroke-width="2" fill="none"></polyline>
<polyline points="1030.32,2365.01,4416.6,908.458" stroke="rgb(255,106,0)" stroke-width="2" fill="none"></polyline>
<polyline points="2576.2,2432.99,6884.65,1721.23" stroke="rgb(0,178,255)" stroke-width="2" fill="none"></polyline>
<polyline points="1313.71,2434.89,5656.6,1863.79" stroke="rgb(254,0,255)" stroke-width="2" fill="none"></polyline>
<polyline points="1617.91,2440.8,6785.56,1850.32" stroke="rgb(255,0,55)" stroke-width="2" fill="none"></polyline>
<polyline points="2576.36,2442.85,6720.46,1351.16" stroke="rgb(255,0,195)" stroke-width="2" fill="none"></polyline>
<polyline points="1799.14,2494.16,5883.11,1892.11" stroke="rgb(255,85,0)" stroke-width="2" fill="none"></polyline>
<polyline points="1211.71,2530.22,5582.11,962.656" stroke="rgb(255,0,51)" stroke-width="2" fill="none"></polyline>
<polyline points="1207.71,2537.93,5478.58,1828.56" stroke="rgb(255,0,63)" stroke-width="2" fill="none"></polyline>
<polyline points="1296.76,2540.18,6439.3,2104.99" stroke="rgb(0,255,76)" stroke-width="2" fill="none"></polyline>
<polyline points="1374.27,2555.97,5488.48,1806.65" stroke="rgb(255,0,46)" stroke-width="2" fill="none"></polyline>
<polyline points="1633.48,2563.14,5770.23,1618.64" stroke="rgb(242,255,0)" stroke-width="2" fill="none"></polyline>
<polyline points="1493.36,2582.45,5478.21,1838.76" stroke="rgb(255,195,0)" stroke-width="2" fill="none"></polyline>
<polyline points="1510.67,2592.85,6484.41,1687.61" stroke="rgb(0,131,255)" stroke-width="2" fill="none"></polyline>
<polyline points="1624.35,2620.59,5832.19,1839.23" stroke="rgb(255,12,0)" stroke-width="2" fill="none"></polyline>
<polyline points="1759.95,2639.79,5470.78,1992.42" stroke="rgb(46,0,255)" stroke-width="2" fill="none"></polyline>
<polyline points="1591.87,2663.89,6771.8,1620.85" stroke="rgb(16,255,0)" stroke-width="2" fill="none"></polyline>
<polyline points="700.202,2681.34,4971.11,537.166" stroke="rgb(255,123,0)" stroke-width="2" fill="none"></polyline>
<polyline points="181.499,2726.45,6666.96,1441.67" stroke="rgb(233,255,0)" stroke-width="2" fill="none"></polyline>
<polyline points="1510.84,2737.37,5359.68,1680.23" stroke="rgb(0,144,255)" stroke-width="2" fill="none"></polyline>
<polyline points="887.1,2855.1,4503.53,935.776" stroke="rgb(255,199,0)" stroke-width="2" fill="none"></polyline>
<polyline points="1271.37,2856.15,5310.72,906.961" stroke="rgb(255,0,161)" stroke-width="2" fill="none"></polyline>
<circle cx="1097.96" cy="406.763" r="4" stroke="rgb(255,0,169)" stroke-width="2" fill="none"></circle>
<circle cx="6597.45" cy="1102.64" r="4" stroke="rgb(255,0,169)" stroke-width="2" fill="none"></circle>
<circle cx="995.304" cy="437.78" r="4" stroke="rgb(0,17,255)" stroke-width="2" fill="none"></circle>
<circle cx="5912.91" cy="1388.15" r="4" stroke="rgb(0,17,255)" stroke-width="2" fill="none"></circle>
<circle cx="1006.01" cy="446.385" r="4" stroke="rgb(255,0,68)" stroke-width="2" fill="none"></circle>
<circle cx="6729.44" cy="1884.93" r="4" stroke="rgb(255,0,68)" stroke-width="2" fill="none"></circle>
<circle cx="1329" cy="449.495" r="4" stroke="rgb(21,255,0)" stroke-width="2" fill="none"></circle>
<circle cx="6472.3" cy="1129.42" r="4" stroke="rgb(21,255,0)" stroke-width="2" fill="none"></circle>
<circle cx="1355.18" cy="469.304" r="4" stroke="rgb(0,174,255)" stroke-width="2" fill="none"></circle>
<circle cx="5637.92" cy="1902.69" r="4" stroke="rgb(0,174,255)" stroke-width="2" fill="none"></circle>
<circle cx="2324.2" cy="513.074" r="4" stroke="rgb(255,178,0)" stroke-width="2" fill="none"></circle>
<circle cx="6626.88" cy="1828.88" r="4" stroke="rgb(255,178,0)" stroke-width="2" fill="none"></circle>
<circle cx="2177.2" cy="519.813" r="4" stroke="rgb(255,255,0)" stroke-width="2" fill="none"></circle>
<circle cx="6731.62" cy="1994.31" r="4" stroke="rgb(255,255,0)" stroke-width="2" fill="none"></circle>
<circle cx="1093.05" cy="522.792" r="4" stroke="rgb(0,72,255)" stroke-width="2" fill="none"></circle>
<circle cx="6514.34" cy="1422.52" r="4" stroke="rgb(0,72,255)" stroke-width="2" fill="none"></circle>
<circle cx="1260" cy="543.81" r="4" stroke="rgb(255,140,0)" stroke-width="2" fill="none"></circle>
<circle cx="5717.41" cy="1117.33" r="4" stroke="rgb(255,140,0)" stroke-width="2" fill="none"></circle>
<circle cx="1328.57" cy="544.567" r="4" stroke="rgb(255,136,0)" stroke-width="2" fill="none"></circle>
<circle cx="6048.72" cy="1982.81" r="4" stroke="rgb(255,136,0)" stroke-width="2" fill="none"></circle>
<circle cx="1285.67" cy="555.62" r="4" stroke="rgb(255,148,0)" stroke-width="2" fill="none"></circle>
<circle cx="5873.83" cy="1254.54" r="4" stroke="rgb(255,148,0)" stroke-width="2" fill="none"></circle>
<circle cx="1769.77" cy="611.901" r="4" stroke="rgb(33,255,0)" stroke-width="2" fill="none"></circle>
<circle cx="6019.73" cy="1865.73" r="4" stroke="rgb(33,255,0)" stroke-width="2" fill="none"></circle>
<circle cx="1941.51" cy="763.004" r="4" stroke="rgb(0,255,216)" stroke-width="2" fill="none"></circle>
<circle cx="5078.53" cy="1260.96" r="4" stroke="rgb(0,255,216)" stroke-width="2" fill="none"></circle>
<circle cx="526.146" cy="794.644" r="4" stroke="rgb(0,221,255)" stroke-width="2" fill="none"></circle>
<circle cx="5530.29" cy="1316.92" r="4" stroke="rgb(0,221,255)" stroke-width="2" fill="none"></circle>
<circle cx="515.163" cy="809.267" r="4" stroke="rgb(0,255,16)" stroke-width="2" fill="none"></circle>
<circle cx="6310.91" cy="1626.02" r="4" stroke="rgb(0,255,16)" stroke-width="2" fill="none"></circle>
<circle cx="507.757" cy="817.901" r="4" stroke="rgb(0,255,123)" stroke-width="2" fill="none"></circle>
<circle cx="6647.96" cy="1988.12" r="4" stroke="rgb(0,255,123)" stroke-width="2" fill="none"></circle>
<circle cx="1788.02" cy="825.682" r="4" stroke="rgb(255,221,0)" stroke-width="2" fill="none"></circle>
<circle cx="6599.88" cy="2105.31" r="4" stroke="rgb(255,221,0)" stroke-width="2" fill="none"></circle>
<circle cx="1151.12" cy="887.629" r="4" stroke="rgb(46,255,0)" stroke-width="2" fill="none"></circle>
<circle cx="5554.46" cy="1829.98" r="4" stroke="rgb(46,255,0)" stroke-width="2" fill="none"></circle>
<circle cx="1327.7" cy="921.674" r="4" stroke="rgb(140,0,255)" stroke-width="2" fill="none"></circle>
<circle cx="5893.83" cy="1852.17" r="4" stroke="rgb(140,0,255)" stroke-width="2" fill="none"></circle>
<circle cx="940.491" cy="925.425" r="4" stroke="rgb(255,131,0)" stroke-width="2" fill="none"></circle>
<circle cx="7005.15" cy="1226.37" r="4" stroke="rgb(255,131,0)" stroke-width="2" fill="none"></circle>
<circle cx="456.291" cy="932.939" r="4" stroke="rgb(50,0,255)" stroke-width="2" fill="none"></circle>
<circle cx="5977.77" cy="1972.71" r="4" stroke="rgb(50,0,255)" stroke-width="2" fill="none"></circle>
<circle cx="1372.91" cy="944.867" r="4" stroke="rgb(255,153,0)" stroke-width="2" fill="none"></circle>
<circle cx="5755.91" cy="1726.38" r="4" stroke="rgb(255,153,0)" stroke-width="2" fill="none"></circle>
<circle cx="1394.21" cy="960.525" r="4" stroke="rgb(140,0,255)" stroke-width="2" fill="none"></circle>
<circle cx="5768.97" cy="1336.63" r="4" stroke="rgb(140,0,255)" stroke-width="2" fill="none"></circle>
<circle cx="468.104" cy="982.292" r="4" stroke="rgb(0,255,55)" stroke-width="2" fill="none"></circle>
<circle cx="5469.31" cy="1454.82" r="4" stroke="rgb(0,255,55)" stroke-width="2" fill="none"></circle>
<circle cx="2048.84" cy="1000.85" r="4" stroke="rgb(140,255,0)" stroke-width="2" fill="none"></circle>
<circle cx="6625.85" cy="1906.13" r="4" stroke="rgb(140,255,0)" stroke-width="2" fill="none"></circle>
<circle cx="600.203" cy="1061.07" r="4" stroke="rgb(255,170,0)" stroke-width="2" fill="none"></circle>
<circle cx="6720.98" cy="2304.1" r="4" stroke="rgb(255,170,0)" stroke-width="2" fill="none"></circle>
<circle cx="1396.94" cy="1070.58" r="4" stroke="rgb(0,255,169)" stroke-width="2" fill="none"></circle>
<circle cx="6258.47" cy="1924.4" r="4" stroke="rgb(0,255,169)" stroke-width="2" fill="none"></circle>
<circle cx="1503.94" cy="1140.9" r="4" stroke="rgb(0,255,152)" stroke-width="2" fill="none"></circle>
<circle cx="6845.78" cy="1422.74" r="4" stroke="rgb(0,255,152)" stroke-width="2" fill="none"></circle>
<circle cx="1503.99" cy="1147.81" r="4" stroke="rgb(255,165,0)" stroke-width="2" fill="none"></circle>
<circle cx="6769.44" cy="1651.76" r="4" stroke="rgb(255,165,0)" stroke-width="2" fill="none"></circle>
<circle cx="1485.19" cy="1156.26" r="4" stroke="rgb(255,178,0)" stroke-width="2" fill="none"></circle>
<circle cx="5671.86" cy="1209.69" r="4" stroke="rgb(255,178,0)" stroke-width="2" fill="none"></circle>
<circle cx="896.638" cy="1187.82" r="4" stroke="rgb(0,255,195)" stroke-width="2" fill="none"></circle>
<circle cx="6097.74" cy="2098.92" r="4" stroke="rgb(0,255,195)" stroke-width="2" fill="none"></circle>
<circle cx="2463.3" cy="1221.94" r="4" stroke="rgb(255,0,0)" stroke-width="2" fill="none"></circle>
<circle cx="5396.38" cy="1998.74" r="4" stroke="rgb(255,0,0)" stroke-width="2" fill="none"></circle>
<circle cx="1501.09" cy="1311.31" r="4" stroke="rgb(165,0,255)" stroke-width="2" fill="none"></circle>
<circle cx="5736.32" cy="1983.25" r="4" stroke="rgb(165,0,255)" stroke-width="2" fill="none"></circle>
<circle cx="1688.98" cy="1345.41" r="4" stroke="rgb(255,93,0)" stroke-width="2" fill="none"></circle>
<circle cx="6522.65" cy="1471.11" r="4" stroke="rgb(255,93,0)" stroke-width="2" fill="none"></circle>
<circle cx="1538.06" cy="1354.25" r="4" stroke="rgb(255,0,55)" stroke-width="2" fill="none"></circle>
<circle cx="6140.54" cy="1963.52" r="4" stroke="rgb(255,0,55)" stroke-width="2" fill="none"></circle>
<circle cx="1537.39" cy="1361.69" r="4" stroke="rgb(255,0,42)" stroke-width="2" fill="none"></circle>
<circle cx="5367.24" cy="1450.21" r="4" stroke="rgb(255,0,42)" stroke-width="2" fill="none"></circle>
<circle cx="2439.59" cy="1371.11" r="4" stroke="rgb(237,255,0)" stroke-width="2" fill="none"></circle>
<circle cx="5943.37" cy="1238.23" r="4" stroke="rgb(237,255,0)" stroke-width="2" fill="none"></circle>
<circle cx="1517.34" cy="1373.76" r="4" stroke="rgb(255,199,0)" stroke-width="2" fill="none"></circle>
<circle cx="6050.47" cy="1265" r="4" stroke="rgb(255,199,0)" stroke-width="2" fill="none"></circle>
<circle cx="2580.25" cy="1380.19" r="4" stroke="rgb(148,255,0)" stroke-width="2" fill="none"></circle>
<circle cx="6643.87" cy="2020.06" r="4" stroke="rgb(148,255,0)" stroke-width="2" fill="none"></circle>
<circle cx="1937.77" cy="1403.67" r="4" stroke="rgb(93,255,0)" stroke-width="2" fill="none"></circle>
<circle cx="5424.13" cy="1169.28" r="4" stroke="rgb(93,255,0)" stroke-width="2" fill="none"></circle>
<circle cx="1613.93" cy="1408.29" r="4" stroke="rgb(255,0,208)" stroke-width="2" fill="none"></circle>
<circle cx="5723.58" cy="1194.77" r="4" stroke="rgb(255,0,208)" stroke-width="2" fill="none"></circle>
<circle cx="1613.89" cy="1414.64" r="4" stroke="rgb(0,255,4)" stroke-width="2" fill="none"></circle>
<circle cx="6510.16" cy="1130.3" r="4" stroke="rgb(0,255,4)" stroke-width="2" fill="none"></circle>
<circle cx="1550.85" cy="1433.81" r="4" stroke="rgb(161,255,0)" stroke-width="2" fill="none"></circle>
<circle cx="5360.3" cy="1549.62" r="4" stroke="rgb(161,255,0)" stroke-width="2" fill="none"></circle>
<circle cx="1602.94" cy="1436.45" r="4" stroke="rgb(0,255,8)" stroke-width="2" fill="none"></circle>
<circle cx="5808.33" cy="2210.04" r="4" stroke="rgb(0,255,8)" stroke-width="2" fill="none"></circle>
<circle cx="1588.98" cy="1440.02" r="4" stroke="rgb(255,0,216)" stroke-width="2" fill="none"></circle>
<circle cx="5362.58" cy="1407.74" r="4" stroke="rgb(255,0,216)" stroke-width="2" fill="none"></circle>
<circle cx="1815.9" cy="1442.61" r="4" stroke="rgb(0,144,255)" stroke-width="2" fill="none"></circle>
<circle cx="6666.82" cy="1818.56" r="4" stroke="rgb(0,144,255)" stroke-width="2" fill="none"></circle>
<circle cx="1615.3" cy="1447.24" r="4" stroke="rgb(0,255,97)" stroke-width="2" fill="none"></circle>
<circle cx="6735.53" cy="1541.29" r="4" stroke="rgb(0,255,97)" stroke-width="2" fill="none"></circle>
<circle cx="1604.26" cy="1448.93" r="4" stroke="rgb(255,4,0)" stroke-width="2" fill="none"></circle>
<circle cx="6286.3" cy="1998.12" r="4" stroke="rgb(255,4,0)" stroke-width="2" fill="none"></circle>
<circle cx="938.979" cy="1461.66" r="4" stroke="rgb(0,225,255)" stroke-width="2" fill="none"></circle>
<circle cx="4686.87" cy="1134.71" r="4" stroke="rgb(0,225,255)" stroke-width="2" fill="none"></circle>
<circle cx="1718.17" cy="1462.84" r="4" stroke="rgb(255,238,0)" stroke-width="2" fill="none"></circle>
<circle cx="5566.24" cy="2136.85" r="4" stroke="rgb(255,238,0)" stroke-width="2" fill="none"></circle>
<circle cx="1603.95" cy="1463.89" r="4" stroke="rgb(102,0,255)" stroke-width="2" fill="none"></circle>
<circle cx="6280.93" cy="1951.19" r="4" stroke="rgb(102,0,255)" stroke-width="2" fill="none"></circle>
<circle cx="1739.42" cy="1465.46" r="4" stroke="rgb(255,0,208)" stroke-width="2" fill="none"></circle>
<circle cx="6588.98" cy="2000.56" r="4" stroke="rgb(255,0,208)" stroke-width="2" fill="none"></circle>
<circle cx="1686.1" cy="1476.81" r="4" stroke="rgb(255,0,148)" stroke-width="2" fill="none"></circle>
<circle cx="5665.55" cy="1892.15" r="4" stroke="rgb(255,0,148)" stroke-width="2" fill="none"></circle>
<circle cx="1755.17" cy="1488.11" r="4" stroke="rgb(255,208,0)" stroke-width="2" fill="none"></circle>
<circle cx="6025.08" cy="2038.24" r="4" stroke="rgb(255,208,0)" stroke-width="2" fill="none"></circle>
<circle cx="774.923" cy="1495.18" r="4" stroke="rgb(153,255,0)" stroke-width="2" fill="none"></circle>
<circle cx="5349.57" cy="2032.58" r="4" stroke="rgb(153,255,0)" stroke-width="2" fill="none"></circle>
<circle cx="1309.71" cy="1507.2" r="4" stroke="rgb(255,221,0)" stroke-width="2" fill="none"></circle>
<circle cx="6718.34" cy="1924.51" r="4" stroke="rgb(255,221,0)" stroke-width="2" fill="none"></circle>
<circle cx="1363.73" cy="1545.15" r="4" stroke="rgb(131,255,0)" stroke-width="2" fill="none"></circle>
<circle cx="6412.55" cy="1746.04" r="4" stroke="rgb(131,255,0)" stroke-width="2" fill="none"></circle>
<circle cx="2352.16" cy="1551.64" r="4" stroke="rgb(17,0,255)" stroke-width="2" fill="none"></circle>
<circle cx="5690.02" cy="1786.77" r="4" stroke="rgb(17,0,255)" stroke-width="2" fill="none"></circle>
<circle cx="1781.81" cy="1563.42" r="4" stroke="rgb(0,135,255)" stroke-width="2" fill="none"></circle>
<circle cx="5595.95" cy="2123.11" r="4" stroke="rgb(0,135,255)" stroke-width="2" fill="none"></circle>
<circle cx="1760.28" cy="1571.87" r="4" stroke="rgb(0,255,38)" stroke-width="2" fill="none"></circle>
<circle cx="5877.27" cy="1836.5" r="4" stroke="rgb(0,255,38)" stroke-width="2" fill="none"></circle>
<circle cx="2329.13" cy="1573.97" r="4" stroke="rgb(0,255,165)" stroke-width="2" fill="none"></circle>
<circle cx="5081.08" cy="1236.57" r="4" stroke="rgb(0,255,165)" stroke-width="2" fill="none"></circle>
<circle cx="1435.42" cy="1577.65" r="4" stroke="rgb(25,0,255)" stroke-width="2" fill="none"></circle>
<circle cx="6430.59" cy="1616.99" r="4" stroke="rgb(25,0,255)" stroke-width="2" fill="none"></circle>
<circle cx="962.72" cy="1646.68" r="4" stroke="rgb(255,4,0)" stroke-width="2" fill="none"></circle>
<circle cx="6095.26" cy="1868.91" r="4" stroke="rgb(255,4,0)" stroke-width="2" fill="none"></circle>
<circle cx="2237.37" cy="1662.38" r="4" stroke="rgb(178,255,0)" stroke-width="2" fill="none"></circle>
<circle cx="5718" cy="1995.77" r="4" stroke="rgb(178,255,0)" stroke-width="2" fill="none"></circle>
<circle cx="953.335" cy="1690.84" r="4" stroke="rgb(118,0,255)" stroke-width="2" fill="none"></circle>
<circle cx="6408.32" cy="1964.85" r="4" stroke="rgb(118,0,255)" stroke-width="2" fill="none"></circle>
<circle cx="2251.85" cy="1707.77" r="4" stroke="rgb(255,0,51)" stroke-width="2" fill="none"></circle>
<circle cx="6730.33" cy="1250.77" r="4" stroke="rgb(255,0,51)" stroke-width="2" fill="none"></circle>
<circle cx="2354.68" cy="1746.74" r="4" stroke="rgb(221,255,0)" stroke-width="2" fill="none"></circle>
<circle cx="6112.35" cy="1832.64" r="4" stroke="rgb(221,255,0)" stroke-width="2" fill="none"></circle>
<circle cx="1456.83" cy="1780.56" r="4" stroke="rgb(255,0,119)" stroke-width="2" fill="none"></circle>
<circle cx="6320.16" cy="2022.71" r="4" stroke="rgb(255,0,119)" stroke-width="2" fill="none"></circle>
<circle cx="1730.49" cy="1846.03" r="4" stroke="rgb(114,0,255)" stroke-width="2" fill="none"></circle>
<circle cx="6066.05" cy="1072.41" r="4" stroke="rgb(114,0,255)" stroke-width="2" fill="none"></circle>
<circle cx="2409.47" cy="1849.75" r="4" stroke="rgb(0,255,140)" stroke-width="2" fill="none"></circle>
<circle cx="6476.77" cy="1230.24" r="4" stroke="rgb(0,255,140)" stroke-width="2" fill="none"></circle>
<circle cx="1661.46" cy="1871.03" r="4" stroke="rgb(255,0,246)" stroke-width="2" fill="none"></circle>
<circle cx="6625.26" cy="1724.45" r="4" stroke="rgb(255,0,246)" stroke-width="2" fill="none"></circle>
<circle cx="1690.18" cy="1898.09" r="4" stroke="rgb(0,93,255)" stroke-width="2" fill="none"></circle>
<circle cx="5688.22" cy="1089.99" r="4" stroke="rgb(0,93,255)" stroke-width="2" fill="none"></circle>
<circle cx="1579.49" cy="1924.24" r="4" stroke="rgb(0,255,110)" stroke-width="2" fill="none"></circle>
<circle cx="6539.02" cy="1666.48" r="4" stroke="rgb(0,255,110)" stroke-width="2" fill="none"></circle>
<circle cx="1546.33" cy="1981.26" r="4" stroke="rgb(255,102,0)" stroke-width="2" fill="none"></circle>
<circle cx="6254.5" cy="1986.49" r="4" stroke="rgb(255,102,0)" stroke-width="2" fill="none"></circle>
<circle cx="1410.51" cy="2039.49" r="4" stroke="rgb(0,119,255)" stroke-width="2" fill="none"></circle>
<circle cx="6113.69" cy="1947.78" r="4" stroke="rgb(0,119,255)" stroke-width="2" fill="none"></circle>
<circle cx="1396.35" cy="2066.65" r="4" stroke="rgb(255,0,140)" stroke-width="2" fill="none"></circle>
<circle cx="6242.47" cy="2003.54" r="4" stroke="rgb(255,0,140)" stroke-width="2" fill="none"></circle>
<circle cx="1853.79" cy="2090.47" r="4" stroke="rgb(76,255,0)" stroke-width="2" fill="none"></circle>
<circle cx="5918.21" cy="1373.48" r="4" stroke="rgb(76,255,0)" stroke-width="2" fill="none"></circle>
<circle cx="2457.29" cy="2091.95" r="4" stroke="rgb(255,0,21)" stroke-width="2" fill="none"></circle>
<circle cx="6496.28" cy="1947.85" r="4" stroke="rgb(255,0,21)" stroke-width="2" fill="none"></circle>
<circle cx="1714.86" cy="2104.77" r="4" stroke="rgb(0,169,255)" stroke-width="2" fill="none"></circle>
<circle cx="5998.59" cy="2072.18" r="4" stroke="rgb(0,169,255)" stroke-width="2" fill="none"></circle>
<circle cx="1294.69" cy="2129.49" r="4" stroke="rgb(212,0,255)" stroke-width="2" fill="none"></circle>
<circle cx="6501.78" cy="1104.98" r="4" stroke="rgb(212,0,255)" stroke-width="2" fill="none"></circle>
<circle cx="1283.72" cy="2200.35" r="4" stroke="rgb(182,0,255)" stroke-width="2" fill="none"></circle>
<circle cx="5897.65" cy="1698.8" r="4" stroke="rgb(182,0,255)" stroke-width="2" fill="none"></circle>
<circle cx="1884.72" cy="2225.57" r="4" stroke="rgb(255,0,101)" stroke-width="2" fill="none"></circle>
<circle cx="5699.87" cy="1442.61" r="4" stroke="rgb(255,0,101)" stroke-width="2" fill="none"></circle>
<circle cx="1346.58" cy="2292.82" r="4" stroke="rgb(29,255,0)" stroke-width="2" fill="none"></circle>
<circle cx="6452.79" cy="1218.7" r="4" stroke="rgb(29,255,0)" stroke-width="2" fill="none"></circle>
<circle cx="1335.04" cy="2293.42" r="4" stroke="rgb(34,0,255)" stroke-width="2" fill="none"></circle>
<circle cx="6495.02" cy="2074.06" r="4" stroke="rgb(34,0,255)" stroke-width="2" fill="none"></circle>
<circle cx="1030.32" cy="2365.01" r="4" stroke="rgb(255,106,0)" stroke-width="2" fill="none"></circle>
<circle cx="4416.6" cy="908.458" r="4" stroke="rgb(255,106,0)" stroke-width="2" fill="none"></circle>
<circle cx="2576.2" cy="2432.99" r="4" stroke="rgb(0,178,255)" stroke-width="2" fill="none"></circle>
<circle cx="6884.65" cy="1721.23" r="4" stroke="rgb(0,178,255)" stroke-width="2" fill="none"></circle>
<circle cx="1313.71" cy="2434.89" r="4" stroke="rgb(254,0,255)" stroke-width="2" fill="none"></circle>
<circle cx="5656.6" cy="1863.79" r="4" stroke="rgb(254,0,255)" stroke-width="2" fill="none"></circle>
<circle cx="1617.91" cy="2440.8" r="4" stroke="rgb(255,0,55)" stroke-width="2" fill="none"></circle>
<circle cx="6785.56" cy="1850.32" r="4" stroke="rgb(255,0,55)" stroke-width="2" fill="none"></circle>
<circle cx="2576.36" cy="2442.85" r="4" stroke="rgb(255,0,195)" stroke-width="2" fill="none"></circle>
<circle cx="6720.46" cy="1351.16" r="4" stroke="rgb(255,0,195)" stroke-width="2" fill="none"></circle>
<circle cx="1799.14" cy="2494.16" r="4" stroke="rgb(255,85,0)" stroke-width="2" fill="none"></circle>
<circle cx="5883.11" cy="1892.11" r="4" stroke="rgb(255,85,0)" stroke-width="2" fill="none"></circle>
<circle cx="1211.71" cy="2530.22" r="4" stroke="rgb(255,0,51)" stroke-width="2" fill="none"></circle>
<circle cx="5582.11" cy="962.656" r="4" stroke="rgb(255,0,51)" stroke-width="2" fill="none"></circle>
<circle cx="1207.71" cy="2537.93" r="4" stroke="rgb(255,0,63)" stroke-width="2" fill="none"></circle>
<circle cx="5478.58" cy="1828.56" r="4" stroke="rgb(255,0,63)" stroke-width="2" fill="none"></circle>
<circle cx="1296.76" cy="2540.18" r="4" stroke="rgb(0,255,76)" stroke-width="2" fill="none"></circle>
<circle cx="6439.3" cy="2104.99" r="4" stroke="rgb(0,255,76)" stroke-width="2" fill="none"></circle>
<circle cx="1374.27" cy="2555.97" r="4" stroke="rgb(255,0,46)" stroke-width="2" fill="none"></circle>
<circle cx="5488.48" cy="1806.65" r="4" stroke="rgb(255,0,46)" stroke-width="2" fill="none"></circle>
<circle cx="1633.48" cy="2563.14" r="4" stroke="rgb(242,255,0)" stroke-width="2" fill="none"></circle>
<circle cx="5770.23" cy="1618.64" r="4" stroke="rgb(242,255,0)" stroke-width="2" fill="none"></circle>
<circle cx="1493.36" cy="2582.45" r="4" stroke="rgb(255,195,0)" stroke-width="2" fill="none"></circle>
<circle cx="5478.21" cy="1838.76" r="4" stroke="rgb(255,195,0)" stroke-width="2" fill="none"></circle>
<circle cx="1510.67" cy="2592.85" r="4" stroke="rgb(0,131,255)" stroke-width="2" fill="none"></circle>
<circle cx="6484.41" cy="1687.61" r="4" stroke="rgb(0,131,255)" stroke-width="2" fill="none"></circle>
<circle cx="1624.35" cy="2620.59" r="4" stroke="rgb(255,12,0)" stroke-width="2" fill="none"></circle>
<circle cx="5832.19" cy="1839.23" r="4" stroke="rgb(255,12,0)" stroke-width="2" fill="none"></circle>
<circle cx="1759.95" cy="2639.79" r="4" stroke="rgb(46,0,255)" stroke-width="2" fill="none"></circle>
<circle cx="5470.78" cy="1992.42" r="4" stroke="rgb(46,0,255)" stroke-width="2" fill="none"></circle>
<circle cx="1591.87" cy="2663.89" r="4" stroke="rgb(16,255,0)" stroke-width="2" fill="none"></circle>
<circle cx="6771.8" cy="1620.85" r="4" stroke="rgb(16,255,0)" stroke-width="2" fill="none"></circle>
<circle cx="700.202" cy="2681.34" r="4" stroke="rgb(255,123,0)" stroke-width="2" fill="none"></circle>
<circle cx="4971.11" cy="537.166" r="4" stroke="rgb(255,123,0)" stroke-width="2" fill="none"></circle>
<circle cx="181.499" cy="2726.45" r="4" stroke="rgb(233,255,0)" stroke-width="2" fill="none"></circle>
<circle cx="6666.96" cy="1441.67" r="4" stroke="rgb(233,255,0)" stroke-width="2" fill="none"></circle>
<circle cx="1510.84" cy="2737.37" r="4" stroke="rgb(0,144,255)" stroke-width="2" fill="none"></circle>
<circle cx="5359.68" cy="1680.23" r="4" stroke="rgb(0,144,255)" stroke-width="2" fill="none"></circle>
<circle cx="887.1" cy="2855.1" r="4" stroke="rgb(255,199,0)" stroke-width="2" fill="none"></circle>
<circle cx="4503.53" cy="935.776" r="4" stroke="rgb(255,199,0)" stroke-width="2" fill="none"></circle>
<circle cx="1271.37" cy="2856.15" r="4" stroke="rgb(255,0,161)" stroke-width="2" fill="none"></circle>
<circle cx="5310.72" cy="906.961" r="4" stroke="rgb(255,0,161)" stroke-width="2" fill="none"></circle>
</svg>