<?xml version="1.0" standalone="yes"?>
<!-- SVG graphic -->
<svg xmlns='http://www.w3.org/2000/svg' xmlns:xlink='http://www.w3.org/1999/xlink'
width="8064px" height="3024px" preserveAspectRatio="xMinYMin meet" viewBox="0 0 8064 3024" version="1.1">
<image x="0" y="0" width="4032px" height="3024px" opacity="1" xlink:href="/home/jeong/Code/2D-to-3D-Modeling-using-AI/Make3D/Image/20200227_180621.jpg"/>
<image x="4032" y="0" width="4032px" height="3024px" opacity="1" xlink:href="/home/jeong/Code/2D-to-3D-Modeling-using-AI/Make3D/Image/20200227_180649.jpg"/>
<polyline points="2317.02,1414.77,7148.52,1327.58" stroke="rgb(0,255,233)" stroke-width="2" fill="none"></polyline>
<polyline points="1612.62,941.013,5775.7,1066.57" stroke="rgb(0,255,178)" stroke-width="2" fill="none"></polyline>
<polyline points="2022.78,1989.96,6765.14,1367.9" stroke="rgb(0,76,255)" stroke-width="2" fill="none"></polyline>
<polyline points="961.734,616.052,5090.46,1524.02" stroke="rgb(0,25,255)" stroke-width="2" fill="none"></polyline>
<polyline points="961.734,616.052,5223.54,1133.27" stroke="rgb(0,255,46)" stroke-width="2" fill="none"></polyline>
<polyline points="2022.78,1989.96,6769.29,1432.45" stroke="rgb(12,255,0)" stroke-width="2" fill="none"></polyline>
<polyline points="1139.96,746.864,5299.61,1261.76" stroke="rgb(144,0,255)" stroke-width="2" fill="none"></polyline>
<polyline points="1622.83,1507.82,5837.7,1107.11" stroke="rgb(255,63,0)" stroke-width="2" fill="none"></polyline>
<polyline points="1489.51,772.303,5784.02,1141.34" stroke="rgb(101,255,0)" stroke-width="2" fill="none"></polyline>
<polyline points="1489.51,772.303,5779,1145.8" stroke="rgb(0,46,255)" stroke-width="2" fill="none"></polyline>
<polyline points="2017.17,2039.74,6680.32,1223.56" stroke="rgb(250,0,255)" stroke-width="2" fill="none"></polyline>
<polyline points="1578.88,671.027,5758.74,1065.58" stroke="rgb(255,0,208)" stroke-width="2" fill="none"></polyline>
<polyline points="1578.88,671.027,5758.74,1065.58" stroke="rgb(174,0,255)" stroke-width="2" fill="none"></polyline>
<polyline points="1532.62,1104.84,5560.09,1087.34" stroke="rgb(0,255,186)" stroke-width="2" fill="none"></polyline>
<polyline points="1199.41,720.954,6080.48,1374.07" stroke="rgb(255,119,0)" stroke-width="2" fill="none"></polyline>
<polyline points="2007.81,1962.18,6810.14,1436.68" stroke="rgb(0,135,255)" stroke-width="2" fill="none"></polyline>
<polyline points="2007.81,1962.18,6810.14,1436.68" stroke="rgb(161,255,0)" stroke-width="2" fill="none"></polyline>
<polyline points="1982.33,1540.39,6458.48,815.771" stroke="rgb(123,0,255)" stroke-width="2" fill="none"></polyline>
<polyline points="1677.76,1590.3,5789.61,1105.47" stroke="rgb(0,255,67)" stroke-width="2" fill="none"></polyline>
<polyline points="2017.17,2039.74,6681.56,1307.56" stroke="rgb(255,0,237)" stroke-width="2" fill="none"></polyline>
<polyline points="1452.75,754.752,5406.07,1042.82" stroke="rgb(255,0,127)" stroke-width="2" fill="none"></polyline>
<polyline points="1452.75,754.752,5406.07,1042.82" stroke="rgb(255,0,191)" stroke-width="2" fill="none"></polyline>
<polyline points="1456,706.69,5387.31,1013.48" stroke="rgb(0,161,255)" stroke-width="2" fill="none"></polyline>
<polyline points="1892.27,1554.74,5926.28,930.472" stroke="rgb(0,255,144)" stroke-width="2" fill="none"></polyline>
<circle cx="2317.02" cy="1414.77" r="4" stroke="rgb(0,255,233)" stroke-width="2" fill="none"></circle>
<circle cx="7148.52" cy="1327.58" r="4" stroke="rgb(0,255,233)" stroke-width="2" fill="none"></circle>
<circle cx="1612.62" cy="941.013" r="4" stroke="rgb(0,255,178)" stroke-width="2" fill="none"></circle>
<circle cx="5775.7" cy="1066.57" r="4" stroke="rgb(0,255,178)" stroke-width="2" fill="none"></circle>
<circle cx="2022.78" cy="1989.96" r="4" stroke="rgb(0,76,255)" stroke-width="2" fill="none"></circle>
<circle cx="6765.14" cy="1367.9" r="4" stroke="rgb(0,76,255)" stroke-width="2" fill="none"></circle>
<circle cx="961.734" cy="616.052" r="4" stroke="rgb(0,25,255)" stroke-width="2" fill="none"></circle>
<circle cx="5090.46" cy="1524.02" r="4" stroke="rgb(0,25,255)" stroke-width="2" fill="none"></circle>
<circle cx="961.734" cy="616.052" r="4" stroke="rgb(0,255,46)" stroke-width="2" fill="none"></circle>
<circle cx="5223.54" cy="1133.27" r="4" stroke="rgb(0,255,46)" stroke-width="2" fill="none"></circle>
<circle cx="2022.78" cy="1989.96" r="4" stroke="rgb(12,255,0)" stroke-width="2" fill="none"></circle>
<circle cx="6769.29" cy="1432.45" r="4" stroke="rgb(12,255,0)" stroke-width="2" fill="none"></circle>
<circle cx="1139.96" cy="746.864" r="4" stroke="rgb(144,0,255)" stroke-width="2" fill="none"></circle>
<circle cx="5299.61" cy="1261.76" r="4" stroke="rgb(144,0,255)" stroke-width="2" fill="none"></circle>
<circle cx="1622.83" cy="1507.82" r="4" stroke="rgb(255,63,0)" stroke-width="2" fill="none"></circle>
<circle cx="5837.7" cy="1107.11" r="4" stroke="rgb(255,63,0)" stroke-width="2" fill="none"></circle>
<circle cx="1489.51" cy="772.303" r="4" stroke="rgb(101,255,0)" stroke-width="2" fill="none"></circle>
<circle cx="5784.02" cy="1141.34" r="4" stroke="rgb(101,255,0)" stroke-width="2" fill="none"></circle>
<circle cx="1489.51" cy="772.303" r="4" stroke="rgb(0,46,255)" stroke-width="2" fill="none"></circle>
<circle cx="5779" cy="1145.8" r="4" stroke="rgb(0,46,255)" stroke-width="2" fill="none"></circle>
<circle cx="2017.17" cy="2039.74" r="4" stroke="rgb(250,0,255)" stroke-width="2" fill="none"></circle>
<circle cx="6680.32" cy="1223.56" r="4" stroke="rgb(250,0,255)" stroke-width="2" fill="none"></circle>
<circle cx="1578.88" cy="671.027" r="4" stroke="rgb(255,0,208)" stroke-width="2" fill="none"></circle>
<circle cx="5758.74" cy="1065.58" r="4" stroke="rgb(255,0,208)" stroke-width="2" fill="none"></circle>
<circle cx="1578.88" cy="671.027" r="4" stroke="rgb(174,0,255)" stroke-width="2" fill="none"></circle>
<circle cx="5758.74" cy="1065.58" r="4" stroke="rgb(174,0,255)" stroke-width="2" fill="none"></circle>
<circle cx="1532.62" cy="1104.84" r="4" stroke="rgb(0,255,186)" stroke-width="2" fill="none"></circle>
<circle cx="5560.09" cy="1087.34" r="4" stroke="rgb(0,255,186)" stroke-width="2" fill="none"></circle>
<circle cx="1199.41" cy="720.954" r="4" stroke="rgb(255,119,0)" stroke-width="2" fill="none"></circle>
<circle cx="6080.48" cy="1374.07" r="4" stroke="rgb(255,119,0)" stroke-width="2" fill="none"></circle>
<circle cx="2007.81" cy="1962.18" r="4" stroke="rgb(0,135,255)" stroke-width="2" fill="none"></circle>
<circle cx="6810.14" cy="1436.68" r="4" stroke="rgb(0,135,255)" stroke-width="2" fill="none"></circle>
<circle cx="2007.81" cy="1962.18" r="4" stroke="rgb(161,255,0)" stroke-width="2" fill="none"></circle>
<circle cx="6810.14" cy="1436.68" r="4" stroke="rgb(161,255,0)" stroke-width="2" fill="none"></circle>
<circle cx="1982.33" cy="1540.39" r="4" stroke="rgb(123,0,255)" stroke-width="2" fill="none"></circle>
<circle cx="6458.48" cy="815.771" r="4" stroke="rgb(123,0,255)" stroke-width="2" fill="none"></circle>
<circle cx="1677.76" cy="1590.3" r="4" stroke="rgb(0,255,67)" stroke-width="2" fill="none"></circle>
<circle cx="5789.61" cy="1105.47" r="4" stroke="rgb(0,255,67)" stroke-width="2" fill="none"></circle>
<circle cx="2017.17" cy="2039.74" r="4" stroke="rgb(255,0,237)" stroke-width="2" fill="none"></circle>
<circle cx="6681.56" cy="1307.56" r="4" stroke="rgb(255,0,237)" stroke-width="2" fill="none"></circle>
<circle cx="1452.75" cy="754.752" r="4" stroke="rgb(255,0,127)" stroke-width="2" fill="none"></circle>
<circle cx="5406.07" cy="1042.82" r="4" stroke="rgb(255,0,127)" stroke-width="2" fill="none"></circle>
<circle cx="1452.75" cy="754.752" r="4" stroke="rgb(255,0,191)" stroke-width="2" fill="none"></circle>
<circle cx="5406.07" cy="1042.82" r="4" stroke="rgb(255,0,191)" stroke-width="2" fill="none"></circle>
<circle cx="1456" cy="706.69" r="4" stroke="rgb(0,161,255)" stroke-width="2" fill="none"></circle>
<circle cx="5387.31" cy="1013.48" r="4" stroke="rgb(0,161,255)" stroke-width="2" fill="none"></circle>
<circle cx="1892.27" cy="1554.74" r="4" stroke="rgb(0,255,144)" stroke-width="2" fill="none"></circle>
<circle cx="5926.28" cy="930.472" r="4" stroke="rgb(0,255,144)" stroke-width="2" fill="none"></circle>
</svg>