<?xml version="1.0" standalone="yes"?>
<!-- SVG graphic -->
<svg xmlns='http://www.w3.org/2000/svg' xmlns:xlink='http://www.w3.org/1999/xlink'
width="8064px" height="3024px" preserveAspectRatio="xMinYMin meet" viewBox="0 0 8064 3024" version="1.1">
<image x="0" y="0" width="4032px" height="3024px" opacity="1" xlink:href="/home/jeong/Code/2D-to-3D-Modeling-using-AI/Make3D/Image/20200227_180621.jpg"/>
<image x="4032" y="0" width="4032px" height="3024px" opacity="1" xlink:href="/home/jeong/Code/2D-to-3D-Modeling-using-AI/Make3D/Image/20200227_180716.jpg"/>
<polyline points="2085.18,556.13,5775.78,45.3327" stroke="rgb(255,110,0)" stroke-width="2" fill="none"></polyline>
<polyline points="1504.75,1549.97,5636.2,182.119" stroke="rgb(42,255,0)" stroke-width="2" fill="none"></polyline>
<polyline points="1993.92,469.763,5799.83,258.566" stroke="rgb(59,0,255)" stroke-width="2" fill="none"></polyline>
<polyline points="1015.01,240.501,5711.21,211.113" stroke="rgb(0,101,255)" stroke-width="2" fill="none"></polyline>
<polyline points="2715.38,959.722,5792.71,744.175" stroke="rgb(255,238,0)" stroke-width="2" fill="none"></polyline>
<polyline points="1511.64,258.548,5704.78,428.099" stroke="rgb(0,89,255)" stroke-width="2" fill="none"></polyline>
<polyline points="1511.64,258.548,5718.16,434.848" stroke="rgb(255,4,0)" stroke-width="2" fill="none"></polyline>
<polyline points="1558.18,314.769,5758.89,456.618" stroke="rgb(255,0,72)" stroke-width="2" fill="none"></polyline>
<polyline points="2513.23,690.531,5988.84,762.985" stroke="rgb(255,131,0)" stroke-width="2" fill="none"></polyline>
<polyline points="1202.06,1200.34,6113.46,708.932" stroke="rgb(131,0,255)" stroke-width="2" fill="none"></polyline>
<polyline points="2521.6,686.824,5895.74,776.357" stroke="rgb(0,246,255)" stroke-width="2" fill="none"></polyline>
<polyline points="1858.79,505.513,6365.09,559.933" stroke="rgb(0,255,16)" stroke-width="2" fill="none"></polyline>
<polyline points="1922.8,598.714,6038.12,1300.09" stroke="rgb(51,255,0)" stroke-width="2" fill="none"></polyline>
<polyline points="2209.24,1812.64,6142.06,683.085" stroke="rgb(29,255,0)" stroke-width="2" fill="none"></polyline>
<polyline points="1514.83,242.918,6747.79,641.379" stroke="rgb(0,76,255)" stroke-width="2" fill="none"></polyline>
<polyline points="1686.91,1416.95,5351.86,826.516" stroke="rgb(0,114,255)" stroke-width="2" fill="none"></polyline>
<polyline points="883.602,809.434,5790.46,780.329" stroke="rgb(97,0,255)" stroke-width="2" fill="none"></polyline>
<polyline points="1194.27,738.069,5197.58,1342.31" stroke="rgb(106,255,0)" stroke-width="2" fill="none"></polyline>
<polyline points="1386.22,1595.13,5381.24,685.697" stroke="rgb(255,68,0)" stroke-width="2" fill="none"></polyline>
<polyline points="1053.19,940.904,5491.05,689.971" stroke="rgb(255,0,46)" stroke-width="2" fill="none"></polyline>
<polyline points="1053.19,940.904,5491.05,689.971" stroke="rgb(135,0,255)" stroke-width="2" fill="none"></polyline>
<polyline points="1191.43,743.098,5196.64,1348.74" stroke="rgb(8,255,0)" stroke-width="2" fill="none"></polyline>
<polyline points="1710.47,1514.8,5357.37,823.431" stroke="rgb(0,246,255)" stroke-width="2" fill="none"></polyline>
<polyline points="1710.47,1514.8,5357.37,823.431" stroke="rgb(0,255,38)" stroke-width="2" fill="none"></polyline>
<polyline points="1655.41,1423.08,5308.92,899.873" stroke="rgb(255,85,0)" stroke-width="2" fill="none"></polyline>
<polyline points="1698.64,1487.11,5338.82,843.121" stroke="rgb(0,225,255)" stroke-width="2" fill="none"></polyline>
<polyline points="1194.27,738.069,5057.2,1406.45" stroke="rgb(97,0,255)" stroke-width="2" fill="none"></polyline>
<polyline points="1708.69,1678.71,5277.52,926.75" stroke="rgb(216,0,255)" stroke-width="2" fill="none"></polyline>
<polyline points="2521.6,686.824,6072.39,1416.46" stroke="rgb(255,0,174)" stroke-width="2" fill="none"></polyline>
<polyline points="1581.37,1440.82,5341.54,940.127" stroke="rgb(21,0,255)" stroke-width="2" fill="none"></polyline>
<polyline points="1581.37,1440.82,5341.54,940.127" stroke="rgb(255,0,144)" stroke-width="2" fill="none"></polyline>
<polyline points="1602.25,1421.08,5316.35,898.761" stroke="rgb(0,97,255)" stroke-width="2" fill="none"></polyline>
<polyline points="1708.69,1678.71,5272.01,946.915" stroke="rgb(0,55,255)" stroke-width="2" fill="none"></polyline>
<polyline points="1572.9,1413.18,5324.98,959.357" stroke="rgb(0,85,255)" stroke-width="2" fill="none"></polyline>
<polyline points="1572.9,1413.18,5324.98,959.357" stroke="rgb(199,255,0)" stroke-width="2" fill="none"></polyline>
<polyline points="1591.08,1446.06,5344.38,931.195" stroke="rgb(182,0,255)" stroke-width="2" fill="none"></polyline>
<polyline points="1652.89,1508.84,6320.51,961.927" stroke="rgb(174,255,0)" stroke-width="2" fill="none"></polyline>
<polyline points="1591.91,1425.29,5326.03,939.889" stroke="rgb(255,0,229)" stroke-width="2" fill="none"></polyline>
<polyline points="1578.01,1427.34,5332.17,948.692" stroke="rgb(0,255,80)" stroke-width="2" fill="none"></polyline>
<polyline points="1602.25,1421.08,5321.45,935.902" stroke="rgb(38,255,0)" stroke-width="2" fill="none"></polyline>
<polyline points="1602.25,1421.08,5321.45,935.902" stroke="rgb(131,255,0)" stroke-width="2" fill="none"></polyline>
<polyline points="2002.11,669.074,6530.78,1003.75" stroke="rgb(255,0,165)" stroke-width="2" fill="none"></polyline>
<polyline points="1700.9,1550.76,5231.39,1006.27" stroke="rgb(55,255,0)" stroke-width="2" fill="none"></polyline>
<polyline points="1700.9,1550.76,5231.39,1006.27" stroke="rgb(216,255,0)" stroke-width="2" fill="none"></polyline>
<polyline points="2200.15,1630.41,6559.49,997.148" stroke="rgb(191,255,0)" stroke-width="2" fill="none"></polyline>
<polyline points="1624.41,1625.84,5282.76,1000.36" stroke="rgb(0,165,255)" stroke-width="2" fill="none"></polyline>
<polyline points="1805.22,469.585,6551.52,1024.44" stroke="rgb(182,0,255)" stroke-width="2" fill="none"></polyline>
<polyline points="1805.22,469.585,6551.52,1024.44" stroke="rgb(0,127,255)" stroke-width="2" fill="none"></polyline>
<polyline points="1572.42,1206.44,5285.11,1026.27" stroke="rgb(238,0,255)" stroke-width="2" fill="none"></polyline>
<polyline points="1461.36,1446.32,5394.04,1028.2" stroke="rgb(0,255,216)" stroke-width="2" fill="none"></polyline>
<polyline points="991.202,396.783,5707.65,1050.35" stroke="rgb(208,255,0)" stroke-width="2" fill="none"></polyline>
<polyline points="1552.04,857.77,5207.88,1055.96" stroke="rgb(0,135,255)" stroke-width="2" fill="none"></polyline>
<polyline points="1423.81,1338.46,5359.93,1128.47" stroke="rgb(208,0,255)" stroke-width="2" fill="none"></polyline>
<polyline points="1554.91,787.938,5225.19,1078.82" stroke="rgb(0,255,25)" stroke-width="2" fill="none"></polyline>
<polyline points="1546.6,1302,5230.72,1132.09" stroke="rgb(0,127,255)" stroke-width="2" fill="none"></polyline>
<polyline points="1598.79,1060.07,5220.73,1135.82" stroke="rgb(0,250,255)" stroke-width="2" fill="none"></polyline>
<polyline points="1598.79,1060.07,5220.73,1135.82" stroke="rgb(255,0,199)" stroke-width="2" fill="none"></polyline>
<polyline points="1628.76,340.018,5130.5,1697.44" stroke="rgb(29,255,0)" stroke-width="2" fill="none"></polyline>
<polyline points="1539.02,1155.17,5143.07,1126.12" stroke="rgb(33,255,0)" stroke-width="2" fill="none"></polyline>
<polyline points="1384.67,1682.3,5334.6,1163.65" stroke="rgb(0,255,101)" stroke-width="2" fill="none"></polyline>
<polyline points="1195.63,605.302,5379.78,1720.1" stroke="rgb(0,42,255)" stroke-width="2" fill="none"></polyline>
<polyline points="1949.97,477.689,6312.47,1755.24" stroke="rgb(178,255,0)" stroke-width="2" fill="none"></polyline>
<polyline points="2038.02,1747.93,4790.5,1767.17" stroke="rgb(255,4,0)" stroke-width="2" fill="none"></polyline>
<polyline points="1492.16,1093.31,5169.73,1175.57" stroke="rgb(93,255,0)" stroke-width="2" fill="none"></polyline>
<polyline points="1805.22,469.585,6022.86,1248.03" stroke="rgb(250,0,255)" stroke-width="2" fill="none"></polyline>
<polyline points="1257.72,236.292,5207.33,1339.07" stroke="rgb(255,0,225)" stroke-width="2" fill="none"></polyline>
<polyline points="2345.78,1731.14,5176.16,1905.92" stroke="rgb(55,0,255)" stroke-width="2" fill="none"></polyline>
<polyline points="1951.55,1894.47,6024.79,1648.42" stroke="rgb(42,0,255)" stroke-width="2" fill="none"></polyline>
<polyline points="2331.78,2268.77,6831.55,860.997" stroke="rgb(55,0,255)" stroke-width="2" fill="none"></polyline>
<polyline points="1949.27,1890.3,6006.16,557.279" stroke="rgb(255,136,0)" stroke-width="2" fill="none"></polyline>
<polyline points="2070.75,1128.1,5901.29,1714.55" stroke="rgb(0,29,255)" stroke-width="2" fill="none"></polyline>
<polyline points="1563.94,1284.45,5261.99,1039.56" stroke="rgb(0,106,255)" stroke-width="2" fill="none"></polyline>
<polyline points="1568.01,1243.28,5240.9,1057.62" stroke="rgb(255,0,25)" stroke-width="2" fill="none"></polyline>
<polyline points="1437.91,1371.73,5371.29,1097.98" stroke="rgb(0,119,255)" stroke-width="2" fill="none"></polyline>
<polyline points="2562.06,1206.23,5820.11,1129.14" stroke="rgb(186,0,255)" stroke-width="2" fill="none"></polyline>
<polyline points="2129.27,1916.13,6125.69,1321.71" stroke="rgb(255,0,250)" stroke-width="2" fill="none"></polyline>
<polyline points="1116.94,573.682,4655.46,1891.92" stroke="rgb(255,225,0)" stroke-width="2" fill="none"></polyline>
<polyline points="2337.73,1475.89,5868.19,1111.59" stroke="rgb(174,255,0)" stroke-width="2" fill="none"></polyline>
<polyline points="1418.12,1299.62,5817.89,1462.22" stroke="rgb(255,97,0)" stroke-width="2" fill="none"></polyline>
<polyline points="2238.2,1757.24,5586.06,1517.75" stroke="rgb(255,0,42)" stroke-width="2" fill="none"></polyline>
<polyline points="2238.2,1757.24,5586.06,1517.75" stroke="rgb(42,0,255)" stroke-width="2" fill="none"></polyline>
<polyline points="959.671,556.989,6559.6,607.347" stroke="rgb(255,0,140)" stroke-width="2" fill="none"></polyline>
<circle cx="2085.18" cy="556.13" r="4" stroke="rgb(255,110,0)" stroke-width="2" fill="none"></circle>
<circle cx="5775.78" cy="45.3327" r="4" stroke="rgb(255,110,0)" stroke-width="2" fill="none"></circle>
<circle cx="1504.75" cy="1549.97" r="4" stroke="rgb(42,255,0)" stroke-width="2" fill="none"></circle>
<circle cx="5636.2" cy="182.119" r="4" stroke="rgb(42,255,0)" stroke-width="2" fill="none"></circle>
<circle cx="1993.92" cy="469.763" r="4" stroke="rgb(59,0,255)" stroke-width="2" fill="none"></circle>
<circle cx="5799.83" cy="258.566" r="4" stroke="rgb(59,0,255)" stroke-width="2" fill="none"></circle>
<circle cx="1015.01" cy="240.501" r="4" stroke="rgb(0,101,255)" stroke-width="2" fill="none"></circle>
<circle cx="5711.21" cy="211.113" r="4" stroke="rgb(0,101,255)" stroke-width="2" fill="none"></circle>
<circle cx="2715.38" cy="959.722" r="4" stroke="rgb(255,238,0)" stroke-width="2" fill="none"></circle>
<circle cx="5792.71" cy="744.175" r="4" stroke="rgb(255,238,0)" stroke-width="2" fill="none"></circle>
<circle cx="1511.64" cy="258.548" r="4" stroke="rgb(0,89,255)" stroke-width="2" fill="none"></circle>
<circle cx="5704.78" cy="428.099" r="4" stroke="rgb(0,89,255)" stroke-width="2" fill="none"></circle>
<circle cx="1511.64" cy="258.548" r="4" stroke="rgb(255,4,0)" stroke-width="2" fill="none"></circle>
<circle cx="5718.16" cy="434.848" r="4" stroke="rgb(255,4,0)" stroke-width="2" fill="none"></circle>
<circle cx="1558.18" cy="314.769" r="4" stroke="rgb(255,0,72)" stroke-width="2" fill="none"></circle>
<circle cx="5758.89" cy="456.618" r="4" stroke="rgb(255,0,72)" stroke-width="2" fill="none"></circle>
<circle cx="2513.23" cy="690.531" r="4" stroke="rgb(255,131,0)" stroke-width="2" fill="none"></circle>
<circle cx="5988.84" cy="762.985" r="4" stroke="rgb(255,131,0)" stroke-width="2" fill="none"></circle>
<circle cx="1202.06" cy="1200.34" r="4" stroke="rgb(131,0,255)" stroke-width="2" fill="none"></circle>
<circle cx="6113.46" cy="708.932" r="4" stroke="rgb(131,0,255)" stroke-width="2" fill="none"></circle>
<circle cx="2521.6" cy="686.824" r="4" stroke="rgb(0,246,255)" stroke-width="2" fill="none"></circle>
<circle cx="5895.74" cy="776.357" r="4" stroke="rgb(0,246,255)" stroke-width="2" fill="none"></circle>
<circle cx="1858.79" cy="505.513" r="4" stroke="rgb(0,255,16)" stroke-width="2" fill="none"></circle>
<circle cx="6365.09" cy="559.933" r="4" stroke="rgb(0,255,16)" stroke-width="2" fill="none"></circle>
<circle cx="1922.8" cy="598.714" r="4" stroke="rgb(51,255,0)" stroke-width="2" fill="none"></circle>
<circle cx="6038.12" cy="1300.09" r="4" stroke="rgb(51,255,0)" stroke-width="2" fill="none"></circle>
<circle cx="2209.24" cy="1812.64" r="4" stroke="rgb(29,255,0)" stroke-width="2" fill="none"></circle>
<circle cx="6142.06" cy="683.085" r="4" stroke="rgb(29,255,0)" stroke-width="2" fill="none"></circle>
<circle cx="1514.83" cy="242.918" r="4" stroke="rgb(0,76,255)" stroke-width="2" fill="none"></circle>
<circle cx="6747.79" cy="641.379" r="4" stroke="rgb(0,76,255)" stroke-width="2" fill="none"></circle>
<circle cx="1686.91" cy="1416.95" r="4" stroke="rgb(0,114,255)" stroke-width="2" fill="none"></circle>
<circle cx="5351.86" cy="826.516" r="4" stroke="rgb(0,114,255)" stroke-width="2" fill="none"></circle>
<circle cx="883.602" cy="809.434" r="4" stroke="rgb(97,0,255)" stroke-width="2" fill="none"></circle>
<circle cx="5790.46" cy="780.329" r="4" stroke="rgb(97,0,255)" stroke-width="2" fill="none"></circle>
<circle cx="1194.27" cy="738.069" r="4" stroke="rgb(106,255,0)" stroke-width="2" fill="none"></circle>
<circle cx="5197.58" cy="1342.31" r="4" stroke="rgb(106,255,0)" stroke-width="2" fill="none"></circle>
<circle cx="1386.22" cy="1595.13" r="4" stroke="rgb(255,68,0)" stroke-width="2" fill="none"></circle>
<circle cx="5381.24" cy="685.697" r="4" stroke="rgb(255,68,0)" stroke-width="2" fill="none"></circle>
<circle cx="1053.19" cy="940.904" r="4" stroke="rgb(255,0,46)" stroke-width="2" fill="none"></circle>
<circle cx="5491.05" cy="689.971" r="4" stroke="rgb(255,0,46)" stroke-width="2" fill="none"></circle>
<circle cx="1053.19" cy="940.904" r="4" stroke="rgb(135,0,255)" stroke-width="2" fill="none"></circle>
<circle cx="5491.05" cy="689.971" r="4" stroke="rgb(135,0,255)" stroke-width="2" fill="none"></circle>
<circle cx="1191.43" cy="743.098" r="4" stroke="rgb(8,255,0)" stroke-width="2" fill="none"></circle>
<circle cx="5196.64" cy="1348.74" r="4" stroke="rgb(8,255,0)" stroke-width="2" fill="none"></circle>
<circle cx="1710.47" cy="1514.8" r="4" stroke="rgb(0,246,255)" stroke-width="2" fill="none"></circle>
<circle cx="5357.37" cy="823.431" r="4" stroke="rgb(0,246,255)" stroke-width="2" fill="none"></circle>
<circle cx="1710.47" cy="1514.8" r="4" stroke="rgb(0,255,38)" stroke-width="2" fill="none"></circle>
<circle cx="5357.37" cy="823.431" r="4" stroke="rgb(0,255,38)" stroke-width="2" fill="none"></circle>
<circle cx="1655.41" cy="1423.08" r="4" stroke="rgb(255,85,0)" stroke-width="2" fill="none"></circle>
<circle cx="5308.92" cy="899.873" r="4" stroke="rgb(255,85,0)" stroke-width="2" fill="none"></circle>
<circle cx="1698.64" cy="1487.11" r="4" stroke="rgb(0,225,255)" stroke-width="2" fill="none"></circle>
<circle cx="5338.82" cy="843.121" r="4" stroke="rgb(0,225,255)" stroke-width="2" fill="none"></circle>
<circle cx="1194.27" cy="738.069" r="4" stroke="rgb(97,0,255)" stroke-width="2" fill="none"></circle>
<circle cx="5057.2" cy="1406.45" r="4" stroke="rgb(97,0,255)" stroke-width="2" fill="none"></circle>
<circle cx="1708.69" cy="1678.71" r="4" stroke="rgb(216,0,255)" stroke-width="2" fill="none"></circle>
<circle cx="5277.52" cy="926.75" r="4" stroke="rgb(216,0,255)" stroke-width="2" fill="none"></circle>
<circle cx="2521.6" cy="686.824" r="4" stroke="rgb(255,0,174)" stroke-width="2" fill="none"></circle>
<circle cx="6072.39" cy="1416.46" r="4" stroke="rgb(255,0,174)" stroke-width="2" fill="none"></circle>
<circle cx="1581.37" cy="1440.82" r="4" stroke="rgb(21,0,255)" stroke-width="2" fill="none"></circle>
<circle cx="5341.54" cy="940.127" r="4" stroke="rgb(21,0,255)" stroke-width="2" fill="none"></circle>
<circle cx="1581.37" cy="1440.82" r="4" stroke="rgb(255,0,144)" stroke-width="2" fill="none"></circle>
<circle cx="5341.54" cy="940.127" r="4" stroke="rgb(255,0,144)" stroke-width="2" fill="none"></circle>
<circle cx="1602.25" cy="1421.08" r="4" stroke="rgb(0,97,255)" stroke-width="2" fill="none"></circle>
<circle cx="5316.35" cy="898.761" r="4" stroke="rgb(0,97,255)" stroke-width="2" fill="none"></circle>
<circle cx="1708.69" cy="1678.71" r="4" stroke="rgb(0,55,255)" stroke-width="2" fill="none"></circle>
<circle cx="5272.01" cy="946.915" r="4" stroke="rgb(0,55,255)" stroke-width="2" fill="none"></circle>
<circle cx="1572.9" cy="1413.18" r="4" stroke="rgb(0,85,255)" stroke-width="2" fill="none"></circle>
<circle cx="5324.98" cy="959.357" r="4" stroke="rgb(0,85,255)" stroke-width="2" fill="none"></circle>
<circle cx="1572.9" cy="1413.18" r="4" stroke="rgb(199,255,0)" stroke-width="2" fill="none"></circle>
<circle cx="5324.98" cy="959.357" r="4" stroke="rgb(199,255,0)" stroke-width="2" fill="none"></circle>
<circle cx="1591.08" cy="1446.06" r="4" stroke="rgb(182,0,255)" stroke-width="2" fill="none"></circle>
<circle cx="5344.38" cy="931.195" r="4" stroke="rgb(182,0,255)" stroke-width="2" fill="none"></circle>
<circle cx="1652.89" cy="1508.84" r="4" stroke="rgb(174,255,0)" stroke-width="2" fill="none"></circle>
<circle cx="6320.51" cy="961.927" r="4" stroke="rgb(174,255,0)" stroke-width="2" fill="none"></circle>
<circle cx="1591.91" cy="1425.29" r="4" stroke="rgb(255,0,229)" stroke-width="2" fill="none"></circle>
<circle cx="5326.03" cy="939.889" r="4" stroke="rgb(255,0,229)" stroke-width="2" fill="none"></circle>
<circle cx="1578.01" cy="1427.34" r="4" stroke="rgb(0,255,80)" stroke-width="2" fill="none"></circle>
<circle cx="5332.17" cy="948.692" r="4" stroke="rgb(0,255,80)" stroke-width="2" fill="none"></circle>
<circle cx="1602.25" cy="1421.08" r="4" stroke="rgb(38,255,0)" stroke-width="2" fill="none"></circle>
<circle cx="5321.45" cy="935.902" r="4" stroke="rgb(38,255,0)" stroke-width="2" fill="none"></circle>
<circle cx="1602.25" cy="1421.08" r="4" stroke="rgb(131,255,0)" stroke-width="2" fill="none"></circle>
<circle cx="5321.45" cy="935.902" r="4" stroke="rgb(131,255,0)" stroke-width="2" fill="none"></circle>
<circle cx="2002.11" cy="669.074" r="4" stroke="rgb(255,0,165)" stroke-width="2" fill="none"></circle>
<circle cx="6530.78" cy="1003.75" r="4" stroke="rgb(255,0,165)" stroke-width="2" fill="none"></circle>
<circle cx="1700.9" cy="1550.76" r="4" stroke="rgb(55,255,0)" stroke-width="2" fill="none"></circle>
<circle cx="5231.39" cy="1006.27" r="4" stroke="rgb(55,255,0)" stroke-width="2" fill="none"></circle>
<circle cx="1700.9" cy="1550.76" r="4" stroke="rgb(216,255,0)" stroke-width="2" fill="none"></circle>
<circle cx="5231.39" cy="1006.27" r="4" stroke="rgb(216,255,0)" stroke-width="2" fill="none"></circle>
<circle cx="2200.15" cy="1630.41" r="4" stroke="rgb(191,255,0)" stroke-width="2" fill="none"></circle>
<circle cx="6559.49" cy="997.148" r="4" stroke="rgb(191,255,0)" stroke-width="2" fill="none"></circle>
<circle cx="1624.41" cy="1625.84" r="4" stroke="rgb(0,165,255)" stroke-width="2" fill="none"></circle>
<circle cx="5282.76" cy="1000.36" r="4" stroke="rgb(0,165,255)" stroke-width="2" fill="none"></circle>
<circle cx="1805.22" cy="469.585" r="4" stroke="rgb(182,0,255)" stroke-width="2" fill="none"></circle>
<circle cx="6551.52" cy="1024.44" r="4" stroke="rgb(182,0,255)" stroke-width="2" fill="none"></circle>
<circle cx="1805.22" cy="469.585" r="4" stroke="rgb(0,127,255)" stroke-width="2" fill="none"></circle>
<circle cx="6551.52" cy="1024.44" r="4" stroke="rgb(0,127,255)" stroke-width="2" fill="none"></circle>
<circle cx="1572.42" cy="1206.44" r="4" stroke="rgb(238,0,255)" stroke-width="2" fill="none"></circle>
<circle cx="5285.11" cy="1026.27" r="4" stroke="rgb(238,0,255)" stroke-width="2" fill="none"></circle>
<circle cx="1461.36" cy="1446.32" r="4" stroke="rgb(0,255,216)" stroke-width="2" fill="none"></circle>
<circle cx="5394.04" cy="1028.2" r="4" stroke="rgb(0,255,216)" stroke-width="2" fill="none"></circle>
<circle cx="991.202" cy="396.783" r="4" stroke="rgb(208,255,0)" stroke-width="2" fill="none"></circle>
<circle cx="5707.65" cy="1050.35" r="4" stroke="rgb(208,255,0)" stroke-width="2" fill="none"></circle>
<circle cx="1552.04" cy="857.77" r="4" stroke="rgb(0,135,255)" stroke-width="2" fill="none"></circle>
<circle cx="5207.88" cy="1055.96" r="4" stroke="rgb(0,135,255)" stroke-width="2" fill="none"></circle>
<circle cx="1423.81" cy="1338.46" r="4" stroke="rgb(208,0,255)" stroke-width="2" fill="none"></circle>
<circle cx="5359.93" cy="1128.47" r="4" stroke="rgb(208,0,255)" stroke-width="2" fill="none"></circle>
<circle cx="1554.91" cy="787.938" r="4" stroke="rgb(0,255,25)" stroke-width="2" fill="none"></circle>
<circle cx="5225.19" cy="1078.82" r="4" stroke="rgb(0,255,25)" stroke-width="2" fill="none"></circle>
<circle cx="1546.6" cy="1302" r="4" stroke="rgb(0,127,255)" stroke-width="2" fill="none"></circle>
<circle cx="5230.72" cy="1132.09" r="4" stroke="rgb(0,127,255)" stroke-width="2" fill="none"></circle>
<circle cx="1598.79" cy="1060.07" r="4" stroke="rgb(0,250,255)" stroke-width="2" fill="none"></circle>
<circle cx="5220.73" cy="1135.82" r="4" stroke="rgb(0,250,255)" stroke-width="2" fill="none"></circle>
<circle cx="1598.79" cy="1060.07" r="4" stroke="rgb(255,0,199)" stroke-width="2" fill="none"></circle>
<circle cx="5220.73" cy="1135.82" r="4" stroke="rgb(255,0,199)" stroke-width="2" fill="none"></circle>
<circle cx="1628.76" cy="340.018" r="4" stroke="rgb(29,255,0)" stroke-width="2" fill="none"></circle>
<circle cx="5130.5" cy="1697.44" r="4" stroke="rgb(29,255,0)" stroke-width="2" fill="none"></circle>
<circle cx="1539.02" cy="1155.17" r="4" stroke="rgb(33,255,0)" stroke-width="2" fill="none"></circle>
<circle cx="5143.07" cy="1126.12" r="4" stroke="rgb(33,255,0)" stroke-width="2" fill="none"></circle>
<circle cx="1384.67" cy="1682.3" r="4" stroke="rgb(0,255,101)" stroke-width="2" fill="none"></circle>
<circle cx="5334.6" cy="1163.65" r="4" stroke="rgb(0,255,101)" stroke-width="2" fill="none"></circle>
<circle cx="1195.63" cy="605.302" r="4" stroke="rgb(0,42,255)" stroke-width="2" fill="none"></circle>
<circle cx="5379.78" cy="1720.1" r="4" stroke="rgb(0,42,255)" stroke-width="2" fill="none"></circle>
<circle cx="1949.97" cy="477.689" r="4" stroke="rgb(178,255,0)" stroke-width="2" fill="none"></circle>
<circle cx="6312.47" cy="1755.24" r="4" stroke="rgb(178,255,0)" stroke-width="2" fill="none"></circle>
<circle cx="2038.02" cy="1747.93" r="4" stroke="rgb(255,4,0)" stroke-width="2" fill="none"></circle>
<circle cx="4790.5" cy="1767.17" r="4" stroke="rgb(255,4,0)" stroke-width="2" fill="none"></circle>
<circle cx="1492.16" cy="1093.31" r="4" stroke="rgb(93,255,0)" stroke-width="2" fill="none"></circle>
<circle cx="5169.73" cy="1175.57" r="4" stroke="rgb(93,255,0)" stroke-width="2" fill="none"></circle>
<circle cx="1805.22" cy="469.585" r="4" stroke="rgb(250,0,255)" stroke-width="2" fill="none"></circle>
<circle cx="6022.86" cy="1248.03" r="4" stroke="rgb(250,0,255)" stroke-width="2" fill="none"></circle>
<circle cx="1257.72" cy="236.292" r="4" stroke="rgb(255,0,225)" stroke-width="2" fill="none"></circle>
<circle cx="5207.33" cy="1339.07" r="4" stroke="rgb(255,0,225)" stroke-width="2" fill="none"></circle>
<circle cx="2345.78" cy="1731.14" r="4" stroke="rgb(55,0,255)" stroke-width="2" fill="none"></circle>
<circle cx="5176.16" cy="1905.92" r="4" stroke="rgb(55,0,255)" stroke-width="2" fill="none"></circle>
<circle cx="1951.55" cy="1894.47" r="4" stroke="rgb(42,0,255)" stroke-width="2" fill="none"></circle>
<circle cx="6024.79" cy="1648.42" r="4" stroke="rgb(42,0,255)" stroke-width="2" fill="none"></circle>
<circle cx="2331.78" cy="2268.77" r="4" stroke="rgb(55,0,255)" stroke-width="2" fill="none"></circle>
<circle cx="6831.55" cy="860.997" r="4" stroke="rgb(55,0,255)" stroke-width="2" fill="none"></circle>
<circle cx="1949.27" cy="1890.3" r="4" stroke="rgb(255,136,0)" stroke-width="2" fill="none"></circle>
<circle cx="6006.16" cy="557.279" r="4" stroke="rgb(255,136,0)" stroke-width="2" fill="none"></circle>
<circle cx="2070.75" cy="1128.1" r="4" stroke="rgb(0,29,255)" stroke-width="2" fill="none"></circle>
<circle cx="5901.29" cy="1714.55" r="4" stroke="rgb(0,29,255)" stroke-width="2" fill="none"></circle>
<circle cx="1563.94" cy="1284.45" r="4" stroke="rgb(0,106,255)" stroke-width="2" fill="none"></circle>
<circle cx="5261.99" cy="1039.56" r="4" stroke="rgb(0,106,255)" stroke-width="2" fill="none"></circle>
<circle cx="1568.01" cy="1243.28" r="4" stroke="rgb(255,0,25)" stroke-width="2" fill="none"></circle>
<circle cx="5240.9" cy="1057.62" r="4" stroke="rgb(255,0,25)" stroke-width="2" fill="none"></circle>
<circle cx="1437.91" cy="1371.73" r="4" stroke="rgb(0,119,255)" stroke-width="2" fill="none"></circle>
<circle cx="5371.29" cy="1097.98" r="4" stroke="rgb(0,119,255)" stroke-width="2" fill="none"></circle>
<circle cx="2562.06" cy="1206.23" r="4" stroke="rgb(186,0,255)" stroke-width="2" fill="none"></circle>
<circle cx="5820.11" cy="1129.14" r="4" stroke="rgb(186,0,255)" stroke-width="2" fill="none"></circle>
<circle cx="2129.27" cy="1916.13" r="4" stroke="rgb(255,0,250)" stroke-width="2" fill="none"></circle>
<circle cx="6125.69" cy="1321.71" r="4" stroke="rgb(255,0,250)" stroke-width="2" fill="none"></circle>
<circle cx="1116.94" cy="573.682" r="4" stroke="rgb(255,225,0)" stroke-width="2" fill="none"></circle>
<circle cx="4655.46" cy="1891.92" r="4" stroke="rgb(255,225,0)" stroke-width="2" fill="none"></circle>
<circle cx="2337.73" cy="1475.89" r="4" stroke="rgb(174,255,0)" stroke-width="2" fill="none"></circle>
<circle cx="5868.19" cy="1111.59" r="4" stroke="rgb(174,255,0)" stroke-width="2" fill="none"></circle>
<circle cx="1418.12" cy="1299.62" r="4" stroke="rgb(255,97,0)" stroke-width="2" fill="none"></circle>
<circle cx="5817.89" cy="1462.22" r="4" stroke="rgb(255,97,0)" stroke-width="2" fill="none"></circle>
<circle cx="2238.2" cy="1757.24" r="4" stroke="rgb(255,0,42)" stroke-width="2" fill="none"></circle>
<circle cx="5586.06" cy="1517.75" r="4" stroke="rgb(255,0,42)" stroke-width="2" fill="none"></circle>
<circle cx="2238.2" cy="1757.24" r="4" stroke="rgb(42,0,255)" stroke-width="2" fill="none"></circle>
<circle cx="5586.06" cy="1517.75" r="4" stroke="rgb(42,0,255)" stroke-width="2" fill="none"></circle>
<circle cx="959.671" cy="556.989" r="4" stroke="rgb(255,0,140)" stroke-width="2" fill="none"></circle>
<circle cx="6559.6" cy="607.347" r="4" stroke="rgb(255,0,140)" stroke-width="2" fill="none"></circle>
</svg>