<?xml version="1.0" standalone="yes"?>
<!-- SVG graphic -->
<svg xmlns='http://www.w3.org/2000/svg' xmlns:xlink='http://www.w3.org/1999/xlink'
width="8064px" height="3024px" preserveAspectRatio="xMinYMin meet" viewBox="0 0 8064 3024" version="1.1">
<image x="0" y="0" width="4032px" height="3024px" opacity="1" xlink:href="/home/jeong/Code/2D-to-3D-Modeling-using-AI/Make3D/Image/20200227_180622.jpg"/>
<image x="4032" y="0" width="4032px" height="3024px" opacity="1" xlink:href="/home/jeong/Code/2D-to-3D-Modeling-using-AI/Make3D/Image/20200227_180811.jpg"/>
<polyline points="2069.09,1855.73,4770.83,757.045" stroke="rgb(255,0,246)" stroke-width="2" fill="none"></polyline>
<polyline points="1546.63,968.738,4781.28,778.111" stroke="rgb(0,255,4)" stroke-width="2" fill="none"></polyline>
<polyline points="2080.04,848.658,5567.91,2177" stroke="rgb(0,153,255)" stroke-width="2" fill="none"></polyline>
<polyline points="1422.35,737.961,5952.74,1243.93" stroke="rgb(0,221,255)" stroke-width="2" fill="none"></polyline>
<polyline points="2290.04,633.784,5648.64,1251.75" stroke="rgb(255,0,165)" stroke-width="2" fill="none"></polyline>
<polyline points="2290.04,633.784,5737.7,2218.38" stroke="rgb(255,0,101)" stroke-width="2" fill="none"></polyline>
<polyline points="2444.64,753.171,5881.92,933.452" stroke="rgb(255,8,0)" stroke-width="2" fill="none"></polyline>
<polyline points="2089.11,885.158,5637.66,2262.04" stroke="rgb(255,178,0)" stroke-width="2" fill="none"></polyline>
<polyline points="2392.44,2103.25,6560.27,1447.33" stroke="rgb(63,0,255)" stroke-width="2" fill="none"></polyline>
<polyline points="2481.61,931.229,5708.36,1269.83" stroke="rgb(170,0,255)" stroke-width="2" fill="none"></polyline>
<polyline points="2495.55,912.874,5846.83,2287.68" stroke="rgb(255,233,0)" stroke-width="2" fill="none"></polyline>
<polyline points="1865.64,1499.18,5975.07,1792.79" stroke="rgb(4,255,0)" stroke-width="2" fill="none"></polyline>
<polyline points="2106.02,444.628,6529.7,960.145" stroke="rgb(161,0,255)" stroke-width="2" fill="none"></polyline>
<polyline points="2869.12,1184.9,5750.3,2309.72" stroke="rgb(0,255,178)" stroke-width="2" fill="none"></polyline>
<polyline points="2290.04,633.784,6388.02,965.392" stroke="rgb(29,255,0)" stroke-width="2" fill="none"></polyline>
<polyline points="2078.94,379.025,5473.44,2315.08" stroke="rgb(255,34,0)" stroke-width="2" fill="none"></polyline>
<polyline points="2064.03,915.546,5910.72,1463.37" stroke="rgb(123,255,0)" stroke-width="2" fill="none"></polyline>
<polyline points="2290.04,633.784,6242.95,1006.7" stroke="rgb(0,255,157)" stroke-width="2" fill="none"></polyline>
<polyline points="3044.94,704.699,6727.26,2400.75" stroke="rgb(216,0,255)" stroke-width="2" fill="none"></polyline>
<polyline points="2290.04,633.784,6381.67,1044.86" stroke="rgb(8,255,0)" stroke-width="2" fill="none"></polyline>
<polyline points="2492.3,2006.79,5649.35,2392.92" stroke="rgb(255,0,97)" stroke-width="2" fill="none"></polyline>
<polyline points="2508.24,819.998,6626.71,2392.97" stroke="rgb(0,255,203)" stroke-width="2" fill="none"></polyline>
<polyline points="2495.55,912.874,6684.71,1298.52" stroke="rgb(0,255,199)" stroke-width="2" fill="none"></polyline>
<polyline points="2405.26,693.65,6388.01,1485.9" stroke="rgb(0,255,89)" stroke-width="2" fill="none"></polyline>
<polyline points="1772.21,2553.63,5572.05,1815.75" stroke="rgb(255,0,144)" stroke-width="2" fill="none"></polyline>
<polyline points="2290.04,633.784,5694.02,810.574" stroke="rgb(255,0,72)" stroke-width="2" fill="none"></polyline>
<polyline points="2405.26,693.65,6388.01,1485.9" stroke="rgb(221,255,0)" stroke-width="2" fill="none"></polyline>
<polyline points="2290.04,633.784,5670.77,1066.77" stroke="rgb(255,106,0)" stroke-width="2" fill="none"></polyline>
<polyline points="2290.04,633.784,5693.36,846.281" stroke="rgb(0,246,255)" stroke-width="2" fill="none"></polyline>
<polyline points="1905.08,1600.88,5610.21,795.275" stroke="rgb(221,0,255)" stroke-width="2" fill="none"></polyline>
<polyline points="2290.04,633.784,5692.63,834.854" stroke="rgb(255,246,0)" stroke-width="2" fill="none"></polyline>
<polyline points="2405.26,693.65,6710.98,1109.69" stroke="rgb(0,255,16)" stroke-width="2" fill="none"></polyline>
<polyline points="2290.04,633.784,6237.07,1114.65" stroke="rgb(255,225,0)" stroke-width="2" fill="none"></polyline>
<polyline points="2088.42,1331.11,5911.81,1333.16" stroke="rgb(93,0,255)" stroke-width="2" fill="none"></polyline>
<polyline points="2290.04,633.784,6075.96,1139.7" stroke="rgb(0,237,255)" stroke-width="2" fill="none"></polyline>
<polyline points="2290.04,633.784,6160.97,1142.21" stroke="rgb(255,59,0)" stroke-width="2" fill="none"></polyline>
<polyline points="2290.04,633.784,7059.02,1538.95" stroke="rgb(0,8,255)" stroke-width="2" fill="none"></polyline>
<polyline points="2290.04,633.784,7046.97,1347.23" stroke="rgb(0,229,255)" stroke-width="2" fill="none"></polyline>
<polyline points="2495.55,912.874,6850.16,1148.82" stroke="rgb(208,0,255)" stroke-width="2" fill="none"></polyline>
<polyline points="2290.04,633.784,6074.51,1149.15" stroke="rgb(255,25,0)" stroke-width="2" fill="none"></polyline>
<polyline points="2472.97,604.364,5772.78,1855.56" stroke="rgb(255,0,93)" stroke-width="2" fill="none"></polyline>
<polyline points="2238.06,2249.17,5411.13,1161.8" stroke="rgb(255,0,68)" stroke-width="2" fill="none"></polyline>
<polyline points="2405.26,693.65,6860.6,1547.57" stroke="rgb(0,255,21)" stroke-width="2" fill="none"></polyline>
<polyline points="2392.44,2103.25,6845.83,1862.28" stroke="rgb(67,0,255)" stroke-width="2" fill="none"></polyline>
<polyline points="1620.49,1194.93,6118.33,1783.68" stroke="rgb(255,76,0)" stroke-width="2" fill="none"></polyline>
<polyline points="2290.04,633.784,6247.45,948.729" stroke="rgb(0,8,255)" stroke-width="2" fill="none"></polyline>
<polyline points="2181.53,552.236,5600.61,952.139" stroke="rgb(106,0,255)" stroke-width="2" fill="none"></polyline>
<polyline points="2485.04,713.171,5962.3,1653.17" stroke="rgb(255,0,76)" stroke-width="2" fill="none"></polyline>
<polyline points="2325.82,580.016,5483.79,1184.03" stroke="rgb(114,0,255)" stroke-width="2" fill="none"></polyline>
<polyline points="2290.04,633.784,5657.97,1190.14" stroke="rgb(221,255,0)" stroke-width="2" fill="none"></polyline>
<polyline points="2471.59,929.241,6574.4,1880.62" stroke="rgb(84,255,0)" stroke-width="2" fill="none"></polyline>
<polyline points="2495.55,912.874,5946.29,1374.87" stroke="rgb(12,255,0)" stroke-width="2" fill="none"></polyline>
<polyline points="2290.04,633.784,5678.27,989.576" stroke="rgb(0,12,255)" stroke-width="2" fill="none"></polyline>
<polyline points="1756.88,1411,6383.1,1890.38" stroke="rgb(0,255,80)" stroke-width="2" fill="none"></polyline>
<polyline points="2064.03,915.546,6572.02,1890.32" stroke="rgb(76,0,255)" stroke-width="2" fill="none"></polyline>
<polyline points="2290.04,633.784,5654.6,1212.99" stroke="rgb(191,255,0)" stroke-width="2" fill="none"></polyline>
<polyline points="2481.61,931.229,5918.76,1219.77" stroke="rgb(255,0,25)" stroke-width="2" fill="none"></polyline>
<polyline points="2290.04,633.784,5598.94,1027.1" stroke="rgb(0,174,255)" stroke-width="2" fill="none"></polyline>
<polyline points="2139.99,464.135,5854.73,1028.45" stroke="rgb(84,255,0)" stroke-width="2" fill="none"></polyline>
<polyline points="1756.88,1411,6302.58,1910.71" stroke="rgb(0,255,237)" stroke-width="2" fill="none"></polyline>
<polyline points="1621.74,1803.92,5855.27,1601.69" stroke="rgb(0,255,46)" stroke-width="2" fill="none"></polyline>
<polyline points="1772.21,2553.63,5563.87,1923.66" stroke="rgb(255,127,0)" stroke-width="2" fill="none"></polyline>
<polyline points="2044.9,1838.8,6959.72,1266.59" stroke="rgb(0,255,220)" stroke-width="2" fill="none"></polyline>
<polyline points="1621.74,1803.92,5963.24,1280.74" stroke="rgb(255,238,0)" stroke-width="2" fill="none"></polyline>
<polyline points="2613.55,837.632,6729,1940.23" stroke="rgb(0,255,191)" stroke-width="2" fill="none"></polyline>
<polyline points="2508.67,877.404,6030.02,1088" stroke="rgb(255,0,17)" stroke-width="2" fill="none"></polyline>
<polyline points="2238.06,2249.17,6073.78,1947.77" stroke="rgb(208,255,0)" stroke-width="2" fill="none"></polyline>
<polyline points="2427.46,638.33,6526.55,1947.52" stroke="rgb(148,0,255)" stroke-width="2" fill="none"></polyline>
<polyline points="2290.04,633.784,5642.91,1296.68" stroke="rgb(255,229,0)" stroke-width="2" fill="none"></polyline>
<polyline points="2238.06,2249.17,5969.72,1831.72" stroke="rgb(0,33,255)" stroke-width="2" fill="none"></polyline>
<polyline points="2290.04,633.784,5689.61,1303.97" stroke="rgb(174,0,255)" stroke-width="2" fill="none"></polyline>
<polyline points="2508.67,877.404,5621.02,1725.35" stroke="rgb(255,140,0)" stroke-width="2" fill="none"></polyline>
<polyline points="2238.06,2249.17,6376.74,1640.99" stroke="rgb(135,255,0)" stroke-width="2" fill="none"></polyline>
<polyline points="2486.03,747.962,6764.68,1330.35" stroke="rgb(161,0,255)" stroke-width="2" fill="none"></polyline>
<polyline points="2056.31,1642.34,7012.22,1453.04" stroke="rgb(0,255,174)" stroke-width="2" fill="none"></polyline>
<polyline points="2481.61,931.229,5556.95,1658.25" stroke="rgb(255,0,93)" stroke-width="2" fill="none"></polyline>
<polyline points="2508.67,877.404,6501.79,1463.64" stroke="rgb(255,123,0)" stroke-width="2" fill="none"></polyline>
<polyline points="2471.59,929.241,5561.5,1665.35" stroke="rgb(246,0,255)" stroke-width="2" fill="none"></polyline>
<polyline points="2290.04,633.784,6262.84,1381.1" stroke="rgb(255,0,169)" stroke-width="2" fill="none"></polyline>
<polyline points="1621.74,1803.92,5914.1,1670.6" stroke="rgb(238,0,255)" stroke-width="2" fill="none"></polyline>
<polyline points="2290.04,633.784,5629.24,1394.28" stroke="rgb(255,29,0)" stroke-width="2" fill="none"></polyline>
<polyline points="2064.03,915.546,5560.27,1675.42" stroke="rgb(255,255,0)" stroke-width="2" fill="none"></polyline>
<polyline points="3034.94,708.604,5904.12,1177.54" stroke="rgb(255,225,0)" stroke-width="2" fill="none"></polyline>
<polyline points="3034.94,708.604,5904.12,1177.54" stroke="rgb(17,0,255)" stroke-width="2" fill="none"></polyline>
<polyline points="1785.91,1420.45,6665.63,1405.53" stroke="rgb(208,255,0)" stroke-width="2" fill="none"></polyline>
<polyline points="2290.04,633.784,5849.87,1879.52" stroke="rgb(0,237,255)" stroke-width="2" fill="none"></polyline>
<polyline points="1707.8,1184.32,6531.66,1219.03" stroke="rgb(255,0,174)" stroke-width="2" fill="none"></polyline>
<polyline points="2056.31,1642.34,7022.8,1498.03" stroke="rgb(229,255,0)" stroke-width="2" fill="none"></polyline>
<polyline points="1389.23,587.927,5382.63,1779.41" stroke="rgb(255,97,0)" stroke-width="2" fill="none"></polyline>
<polyline points="2436.93,1124.73,5550.2,2040.23" stroke="rgb(216,0,255)" stroke-width="2" fill="none"></polyline>
<polyline points="2571.18,888.939,6515.92,2066.91" stroke="rgb(25,255,0)" stroke-width="2" fill="none"></polyline>
<polyline points="1785.2,1795.98,6999.1,1211.19" stroke="rgb(0,255,144)" stroke-width="2" fill="none"></polyline>
<polyline points="2290.04,633.784,5652.72,1223.25" stroke="rgb(0,199,255)" stroke-width="2" fill="none"></polyline>
<polyline points="2481.61,931.229,5708.42,1269.76" stroke="rgb(199,0,255)" stroke-width="2" fill="none"></polyline>
<polyline points="1772.21,2553.63,6308.14,1906.85" stroke="rgb(0,127,255)" stroke-width="2" fill="none"></polyline>
<polyline points="2476.01,637.157,5907.58,1541.29" stroke="rgb(255,0,8)" stroke-width="2" fill="none"></polyline>
<polyline points="2502.3,691.772,6875.23,1964.41" stroke="rgb(182,0,255)" stroke-width="2" fill="none"></polyline>
<polyline points="2427.46,638.33,6408.04,1972.02" stroke="rgb(0,255,140)" stroke-width="2" fill="none"></polyline>
<polyline points="2047.91,1500.01,6140.74,1757.51" stroke="rgb(144,0,255)" stroke-width="2" fill="none"></polyline>
<polyline points="2238.06,2249.17,5772.42,1631.8" stroke="rgb(255,0,93)" stroke-width="2" fill="none"></polyline>
<polyline points="1645.25,957.795,5321.92,1634.46" stroke="rgb(72,0,255)" stroke-width="2" fill="none"></polyline>
<polyline points="1772.21,2553.63,6434.29,1648.96" stroke="rgb(225,255,0)" stroke-width="2" fill="none"></polyline>
<polyline points="1536.91,782.102,5867.92,1648.77" stroke="rgb(12,0,255)" stroke-width="2" fill="none"></polyline>
<polyline points="2320.8,586.584,6313.51,2030.71" stroke="rgb(255,0,63)" stroke-width="2" fill="none"></polyline>
<polyline points="3000.41,1733.65,6076.69,2031.63" stroke="rgb(255,0,59)" stroke-width="2" fill="none"></polyline>
<polyline points="2538.55,1761.75,5708,1429.33" stroke="rgb(255,187,0)" stroke-width="2" fill="none"></polyline>
<polyline points="2538.55,1761.75,5708,1429.33" stroke="rgb(255,0,153)" stroke-width="2" fill="none"></polyline>
<polyline points="2538.55,1761.75,5849.22,1493.25" stroke="rgb(29,0,255)" stroke-width="2" fill="none"></polyline>
<polyline points="2495.55,912.874,6450.58,1698.29" stroke="rgb(255,0,72)" stroke-width="2" fill="none"></polyline>
<polyline points="1620.49,1194.93,6133.39,1700.74" stroke="rgb(186,0,255)" stroke-width="2" fill="none"></polyline>
<polyline points="1756.07,852.4,5159.44,1347.65" stroke="rgb(0,242,255)" stroke-width="2" fill="none"></polyline>
<polyline points="2052.85,1448.42,5406.63,1612.98" stroke="rgb(0,76,255)" stroke-width="2" fill="none"></polyline>
<polyline points="1781.88,1306.87,5213.57,1726.17" stroke="rgb(255,0,63)" stroke-width="2" fill="none"></polyline>
<polyline points="3179.92,825.886,5760.88,1135.38" stroke="rgb(46,255,0)" stroke-width="2" fill="none"></polyline>
<polyline points="3115.46,723.398,7009.61,1737.13" stroke="rgb(59,255,0)" stroke-width="2" fill="none"></polyline>
<polyline points="2065.63,1306.27,4929.8,1037.61" stroke="rgb(203,0,255)" stroke-width="2" fill="none"></polyline>
<polyline points="1594.52,1914.08,5436.4,1775.62" stroke="rgb(225,0,255)" stroke-width="2" fill="none"></polyline>
<polyline points="2485.04,713.171,6185.9,1845.72" stroke="rgb(242,0,255)" stroke-width="2" fill="none"></polyline>
<polyline points="2799.57,1805.44,5763.59,1226.73" stroke="rgb(0,59,255)" stroke-width="2" fill="none"></polyline>
<polyline points="2485.04,713.171,5956.99,1665" stroke="rgb(0,221,255)" stroke-width="2" fill="none"></polyline>
<polyline points="1636.59,764.944,5986.9,2075.81" stroke="rgb(84,255,0)" stroke-width="2" fill="none"></polyline>
<polyline points="2391.23,596.834,5615.98,2182.43" stroke="rgb(255,0,80)" stroke-width="2" fill="none"></polyline>
<polyline points="1995.58,1105.42,5879.96,2086.46" stroke="rgb(0,110,255)" stroke-width="2" fill="none"></polyline>
<polyline points="2451.09,854.183,5420.16,1389.22" stroke="rgb(225,0,255)" stroke-width="2" fill="none"></polyline>
<polyline points="2064.03,915.546,6836.98,2186.4" stroke="rgb(0,255,84)" stroke-width="2" fill="none"></polyline>
<polyline points="2508.24,819.998,5858.34,2207.87" stroke="rgb(238,0,255)" stroke-width="2" fill="none"></polyline>
<polyline points="2188.47,455.388,5451.52,2326.78" stroke="rgb(221,0,255)" stroke-width="2" fill="none"></polyline>
<polyline points="1675.14,824.84,5883.41,2417.27" stroke="rgb(242,255,0)" stroke-width="2" fill="none"></polyline>
<circle cx="2069.09" cy="1855.73" r="4" stroke="rgb(255,0,246)" stroke-width="2" fill="none"></circle>
<circle cx="4770.83" cy="757.045" r="4" stroke="rgb(255,0,246)" stroke-width="2" fill="none"></circle>
<circle cx="1546.63" cy="968.738" r="4" stroke="rgb(0,255,4)" stroke-width="2" fill="none"></circle>
<circle cx="4781.28" cy="778.111" r="4" stroke="rgb(0,255,4)" stroke-width="2" fill="none"></circle>
<circle cx="2080.04" cy="848.658" r="4" stroke="rgb(0,153,255)" stroke-width="2" fill="none"></circle>
<circle cx="5567.91" cy="2177" r="4" stroke="rgb(0,153,255)" stroke-width="2" fill="none"></circle>
<circle cx="1422.35" cy="737.961" r="4" stroke="rgb(0,221,255)" stroke-width="2" fill="none"></circle>
<circle cx="5952.74" cy="1243.93" r="4" stroke="rgb(0,221,255)" stroke-width="2" fill="none"></circle>
<circle cx="2290.04" cy="633.784" r="4" stroke="rgb(255,0,165)" stroke-width="2" fill="none"></circle>
<circle cx="5648.64" cy="1251.75" r="4" stroke="rgb(255,0,165)" stroke-width="2" fill="none"></circle>
<circle cx="2290.04" cy="633.784" r="4" stroke="rgb(255,0,101)" stroke-width="2" fill="none"></circle>
<circle cx="5737.7" cy="2218.38" r="4" stroke="rgb(255,0,101)" stroke-width="2" fill="none"></circle>
<circle cx="2444.64" cy="753.171" r="4" stroke="rgb(255,8,0)" stroke-width="2" fill="none"></circle>
<circle cx="5881.92" cy="933.452" r="4" stroke="rgb(255,8,0)" stroke-width="2" fill="none"></circle>
<circle cx="2089.11" cy="885.158" r="4" stroke="rgb(255,178,0)" stroke-width="2" fill="none"></circle>
<circle cx="5637.66" cy="2262.04" r="4" stroke="rgb(255,178,0)" stroke-width="2" fill="none"></circle>
<circle cx="2392.44" cy="2103.25" r="4" stroke="rgb(63,0,255)" stroke-width="2" fill="none"></circle>
<circle cx="6560.27" cy="1447.33" r="4" stroke="rgb(63,0,255)" stroke-width="2" fill="none"></circle>
<circle cx="2481.61" cy="931.229" r="4" stroke="rgb(170,0,255)" stroke-width="2" fill="none"></circle>
<circle cx="5708.36" cy="1269.83" r="4" stroke="rgb(170,0,255)" stroke-width="2" fill="none"></circle>
<circle cx="2495.55" cy="912.874" r="4" stroke="rgb(255,233,0)" stroke-width="2" fill="none"></circle>
<circle cx="5846.83" cy="2287.68" r="4" stroke="rgb(255,233,0)" stroke-width="2" fill="none"></circle>
<circle cx="1865.64" cy="1499.18" r="4" stroke="rgb(4,255,0)" stroke-width="2" fill="none"></circle>
<circle cx="5975.07" cy="1792.79" r="4" stroke="rgb(4,255,0)" stroke-width="2" fill="none"></circle>
<circle cx="2106.02" cy="444.628" r="4" stroke="rgb(161,0,255)" stroke-width="2" fill="none"></circle>
<circle cx="6529.7" cy="960.145" r="4" stroke="rgb(161,0,255)" stroke-width="2" fill="none"></circle>
<circle cx="2869.12" cy="1184.9" r="4" stroke="rgb(0,255,178)" stroke-width="2" fill="none"></circle>
<circle cx="5750.3" cy="2309.72" r="4" stroke="rgb(0,255,178)" stroke-width="2" fill="none"></circle>
<circle cx="2290.04" cy="633.784" r="4" stroke="rgb(29,255,0)" stroke-width="2" fill="none"></circle>
<circle cx="6388.02" cy="965.392" r="4" stroke="rgb(29,255,0)" stroke-width="2" fill="none"></circle>
<circle cx="2078.94" cy="379.025" r="4" stroke="rgb(255,34,0)" stroke-width="2" fill="none"></circle>
<circle cx="5473.44" cy="2315.08" r="4" stroke="rgb(255,34,0)" stroke-width="2" fill="none"></circle>
<circle cx="2064.03" cy="915.546" r="4" stroke="rgb(123,255,0)" stroke-width="2" fill="none"></circle>
<circle cx="5910.72" cy="1463.37" r="4" stroke="rgb(123,255,0)" stroke-width="2" fill="none"></circle>
<circle cx="2290.04" cy="633.784" r="4" stroke="rgb(0,255,157)" stroke-width="2" fill="none"></circle>
<circle cx="6242.95" cy="1006.7" r="4" stroke="rgb(0,255,157)" stroke-width="2" fill="none"></circle>
<circle cx="3044.94" cy="704.699" r="4" stroke="rgb(216,0,255)" stroke-width="2" fill="none"></circle>
<circle cx="6727.26" cy="2400.75" r="4" stroke="rgb(216,0,255)" stroke-width="2" fill="none"></circle>
<circle cx="2290.04" cy="633.784" r="4" stroke="rgb(8,255,0)" stroke-width="2" fill="none"></circle>
<circle cx="6381.67" cy="1044.86" r="4" stroke="rgb(8,255,0)" stroke-width="2" fill="none"></circle>
<circle cx="2492.3" cy="2006.79" r="4" stroke="rgb(255,0,97)" stroke-width="2" fill="none"></circle>
<circle cx="5649.35" cy="2392.92" r="4" stroke="rgb(255,0,97)" stroke-width="2" fill="none"></circle>
<circle cx="2508.24" cy="819.998" r="4" stroke="rgb(0,255,203)" stroke-width="2" fill="none"></circle>
<circle cx="6626.71" cy="2392.97" r="4" stroke="rgb(0,255,203)" stroke-width="2" fill="none"></circle>
<circle cx="2495.55" cy="912.874" r="4" stroke="rgb(0,255,199)" stroke-width="2" fill="none"></circle>
<circle cx="6684.71" cy="1298.52" r="4" stroke="rgb(0,255,199)" stroke-width="2" fill="none"></circle>
<circle cx="2405.26" cy="693.65" r="4" stroke="rgb(0,255,89)" stroke-width="2" fill="none"></circle>
<circle cx="6388.01" cy="1485.9" r="4" stroke="rgb(0,255,89)" stroke-width="2" fill="none"></circle>
<circle cx="1772.21" cy="2553.63" r="4" stroke="rgb(255,0,144)" stroke-width="2" fill="none"></circle>
<circle cx="5572.05" cy="1815.75" r="4" stroke="rgb(255,0,144)" stroke-width="2" fill="none"></circle>
<circle cx="2290.04" cy="633.784" r="4" stroke="rgb(255,0,72)" stroke-width="2" fill="none"></circle>
<circle cx="5694.02" cy="810.574" r="4" stroke="rgb(255,0,72)" stroke-width="2" fill="none"></circle>
<circle cx="2405.26" cy="693.65" r="4" stroke="rgb(221,255,0)" stroke-width="2" fill="none"></circle>
<circle cx="6388.01" cy="1485.9" r="4" stroke="rgb(221,255,0)" stroke-width="2" fill="none"></circle>
<circle cx="2290.04" cy="633.784" r="4" stroke="rgb(255,106,0)" stroke-width="2" fill="none"></circle>
<circle cx="5670.77" cy="1066.77" r="4" stroke="rgb(255,106,0)" stroke-width="2" fill="none"></circle>
<circle cx="2290.04" cy="633.784" r="4" stroke="rgb(0,246,255)" stroke-width="2" fill="none"></circle>
<circle cx="5693.36" cy="846.281" r="4" stroke="rgb(0,246,255)" stroke-width="2" fill="none"></circle>
<circle cx="1905.08" cy="1600.88" r="4" stroke="rgb(221,0,255)" stroke-width="2" fill="none"></circle>
<circle cx="5610.21" cy="795.275" r="4" stroke="rgb(221,0,255)" stroke-width="2" fill="none"></circle>
<circle cx="2290.04" cy="633.784" r="4" stroke="rgb(255,246,0)" stroke-width="2" fill="none"></circle>
<circle cx="5692.63" cy="834.854" r="4" stroke="rgb(255,246,0)" stroke-width="2" fill="none"></circle>
<circle cx="2405.26" cy="693.65" r="4" stroke="rgb(0,255,16)" stroke-width="2" fill="none"></circle>
<circle cx="6710.98" cy="1109.69" r="4" stroke="rgb(0,255,16)" stroke-width="2" fill="none"></circle>
<circle cx="2290.04" cy="633.784" r="4" stroke="rgb(255,225,0)" stroke-width="2" fill="none"></circle>
<circle cx="6237.07" cy="1114.65" r="4" stroke="rgb(255,225,0)" stroke-width="2" fill="none"></circle>
<circle cx="2088.42" cy="1331.11" r="4" stroke="rgb(93,0,255)" stroke-width="2" fill="none"></circle>
<circle cx="5911.81" cy="1333.16" r="4" stroke="rgb(93,0,255)" stroke-width="2" fill="none"></circle>
<circle cx="2290.04" cy="633.784" r="4" stroke="rgb(0,237,255)" stroke-width="2" fill="none"></circle>
<circle cx="6075.96" cy="1139.7" r="4" stroke="rgb(0,237,255)" stroke-width="2" fill="none"></circle>
<circle cx="2290.04" cy="633.784" r="4" stroke="rgb(255,59,0)" stroke-width="2" fill="none"></circle>
<circle cx="6160.97" cy="1142.21" r="4" stroke="rgb(255,59,0)" stroke-width="2" fill="none"></circle>
<circle cx="2290.04" cy="633.784" r="4" stroke="rgb(0,8,255)" stroke-width="2" fill="none"></circle>
<circle cx="7059.02" cy="1538.95" r="4" stroke="rgb(0,8,255)" stroke-width="2" fill="none"></circle>
<circle cx="2290.04" cy="633.784" r="4" stroke="rgb(0,229,255)" stroke-width="2" fill="none"></circle>
<circle cx="7046.97" cy="1347.23" r="4" stroke="rgb(0,229,255)" stroke-width="2" fill="none"></circle>
<circle cx="2495.55" cy="912.874" r="4" stroke="rgb(208,0,255)" stroke-width="2" fill="none"></circle>
<circle cx="6850.16" cy="1148.82" r="4" stroke="rgb(208,0,255)" stroke-width="2" fill="none"></circle>
<circle cx="2290.04" cy="633.784" r="4" stroke="rgb(255,25,0)" stroke-width="2" fill="none"></circle>
<circle cx="6074.51" cy="1149.15" r="4" stroke="rgb(255,25,0)" stroke-width="2" fill="none"></circle>
<circle cx="2472.97" cy="604.364" r="4" stroke="rgb(255,0,93)" stroke-width="2" fill="none"></circle>
<circle cx="5772.78" cy="1855.56" r="4" stroke="rgb(255,0,93)" stroke-width="2" fill="none"></circle>
<circle cx="2238.06" cy="2249.17" r="4" stroke="rgb(255,0,68)" stroke-width="2" fill="none"></circle>
<circle cx="5411.13" cy="1161.8" r="4" stroke="rgb(255,0,68)" stroke-width="2" fill="none"></circle>
<circle cx="2405.26" cy="693.65" r="4" stroke="rgb(0,255,21)" stroke-width="2" fill="none"></circle>
<circle cx="6860.6" cy="1547.57" r="4" stroke="rgb(0,255,21)" stroke-width="2" fill="none"></circle>
<circle cx="2392.44" cy="2103.25" r="4" stroke="rgb(67,0,255)" stroke-width="2" fill="none"></circle>
<circle cx="6845.83" cy="1862.28" r="4" stroke="rgb(67,0,255)" stroke-width="2" fill="none"></circle>
<circle cx="1620.49" cy="1194.93" r="4" stroke="rgb(255,76,0)" stroke-width="2" fill="none"></circle>
<circle cx="6118.33" cy="1783.68" r="4" stroke="rgb(255,76,0)" stroke-width="2" fill="none"></circle>
<circle cx="2290.04" cy="633.784" r="4" stroke="rgb(0,8,255)" stroke-width="2" fill="none"></circle>
<circle cx="6247.45" cy="948.729" r="4" stroke="rgb(0,8,255)" stroke-width="2" fill="none"></circle>
<circle cx="2181.53" cy="552.236" r="4" stroke="rgb(106,0,255)" stroke-width="2" fill="none"></circle>
<circle cx="5600.61" cy="952.139" r="4" stroke="rgb(106,0,255)" stroke-width="2" fill="none"></circle>
<circle cx="2485.04" cy="713.171" r="4" stroke="rgb(255,0,76)" stroke-width="2" fill="none"></circle>
<circle cx="5962.3" cy="1653.17" r="4" stroke="rgb(255,0,76)" stroke-width="2" fill="none"></circle>
<circle cx="2325.82" cy="580.016" r="4" stroke="rgb(114,0,255)" stroke-width="2" fill="none"></circle>
<circle cx="5483.79" cy="1184.03" r="4" stroke="rgb(114,0,255)" stroke-width="2" fill="none"></circle>
<circle cx="2290.04" cy="633.784" r="4" stroke="rgb(221,255,0)" stroke-width="2" fill="none"></circle>
<circle cx="5657.97" cy="1190.14" r="4" stroke="rgb(221,255,0)" stroke-width="2" fill="none"></circle>
<circle cx="2471.59" cy="929.241" r="4" stroke="rgb(84,255,0)" stroke-width="2" fill="none"></circle>
<circle cx="6574.4" cy="1880.62" r="4" stroke="rgb(84,255,0)" stroke-width="2" fill="none"></circle>
<circle cx="2495.55" cy="912.874" r="4" stroke="rgb(12,255,0)" stroke-width="2" fill="none"></circle>
<circle cx="5946.29" cy="1374.87" r="4" stroke="rgb(12,255,0)" stroke-width="2" fill="none"></circle>
<circle cx="2290.04" cy="633.784" r="4" stroke="rgb(0,12,255)" stroke-width="2" fill="none"></circle>
<circle cx="5678.27" cy="989.576" r="4" stroke="rgb(0,12,255)" stroke-width="2" fill="none"></circle>
<circle cx="1756.88" cy="1411" r="4" stroke="rgb(0,255,80)" stroke-width="2" fill="none"></circle>
<circle cx="6383.1" cy="1890.38" r="4" stroke="rgb(0,255,80)" stroke-width="2" fill="none"></circle>
<circle cx="2064.03" cy="915.546" r="4" stroke="rgb(76,0,255)" stroke-width="2" fill="none"></circle>
<circle cx="6572.02" cy="1890.32" r="4" stroke="rgb(76,0,255)" stroke-width="2" fill="none"></circle>
<circle cx="2290.04" cy="633.784" r="4" stroke="rgb(191,255,0)" stroke-width="2" fill="none"></circle>
<circle cx="5654.6" cy="1212.99" r="4" stroke="rgb(191,255,0)" stroke-width="2" fill="none"></circle>
<circle cx="2481.61" cy="931.229" r="4" stroke="rgb(255,0,25)" stroke-width="2" fill="none"></circle>
<circle cx="5918.76" cy="1219.77" r="4" stroke="rgb(255,0,25)" stroke-width="2" fill="none"></circle>
<circle cx="2290.04" cy="633.784" r="4" stroke="rgb(0,174,255)" stroke-width="2" fill="none"></circle>
<circle cx="5598.94" cy="1027.1" r="4" stroke="rgb(0,174,255)" stroke-width="2" fill="none"></circle>
<circle cx="2139.99" cy="464.135" r="4" stroke="rgb(84,255,0)" stroke-width="2" fill="none"></circle>
<circle cx="5854.73" cy="1028.45" r="4" stroke="rgb(84,255,0)" stroke-width="2" fill="none"></circle>
<circle cx="1756.88" cy="1411" r="4" stroke="rgb(0,255,237)" stroke-width="2" fill="none"></circle>
<circle cx="6302.58" cy="1910.71" r="4" stroke="rgb(0,255,237)" stroke-width="2" fill="none"></circle>
<circle cx="1621.74" cy="1803.92" r="4" stroke="rgb(0,255,46)" stroke-width="2" fill="none"></circle>
<circle cx="5855.27" cy="1601.69" r="4" stroke="rgb(0,255,46)" stroke-width="2" fill="none"></circle>
<circle cx="1772.21" cy="2553.63" r="4" stroke="rgb(255,127,0)" stroke-width="2" fill="none"></circle>
<circle cx="5563.87" cy="1923.66" r="4" stroke="rgb(255,127,0)" stroke-width="2" fill="none"></circle>
<circle cx="2044.9" cy="1838.8" r="4" stroke="rgb(0,255,220)" stroke-width="2" fill="none"></circle>
<circle cx="6959.72" cy="1266.59" r="4" stroke="rgb(0,255,220)" stroke-width="2" fill="none"></circle>
<circle cx="1621.74" cy="1803.92" r="4" stroke="rgb(255,238,0)" stroke-width="2" fill="none"></circle>
<circle cx="5963.24" cy="1280.74" r="4" stroke="rgb(255,238,0)" stroke-width="2" fill="none"></circle>
<circle cx="2613.55" cy="837.632" r="4" stroke="rgb(0,255,191)" stroke-width="2" fill="none"></circle>
<circle cx="6729" cy="1940.23" r="4" stroke="rgb(0,255,191)" stroke-width="2" fill="none"></circle>
<circle cx="2508.67" cy="877.404" r="4" stroke="rgb(255,0,17)" stroke-width="2" fill="none"></circle>
<circle cx="6030.02" cy="1088" r="4" stroke="rgb(255,0,17)" stroke-width="2" fill="none"></circle>
<circle cx="2238.06" cy="2249.17" r="4" stroke="rgb(208,255,0)" stroke-width="2" fill="none"></circle>
<circle cx="6073.78" cy="1947.77" r="4" stroke="rgb(208,255,0)" stroke-width="2" fill="none"></circle>
<circle cx="2427.46" cy="638.33" r="4" stroke="rgb(148,0,255)" stroke-width="2" fill="none"></circle>
<circle cx="6526.55" cy="1947.52" r="4" stroke="rgb(148,0,255)" stroke-width="2" fill="none"></circle>
<circle cx="2290.04" cy="633.784" r="4" stroke="rgb(255,229,0)" stroke-width="2" fill="none"></circle>
<circle cx="5642.91" cy="1296.68" r="4" stroke="rgb(255,229,0)" stroke-width="2" fill="none"></circle>
<circle cx="2238.06" cy="2249.17" r="4" stroke="rgb(0,33,255)" stroke-width="2" fill="none"></circle>
<circle cx="5969.72" cy="1831.72" r="4" stroke="rgb(0,33,255)" stroke-width="2" fill="none"></circle>
<circle cx="2290.04" cy="633.784" r="4" stroke="rgb(174,0,255)" stroke-width="2" fill="none"></circle>
<circle cx="5689.61" cy="1303.97" r="4" stroke="rgb(174,0,255)" stroke-width="2" fill="none"></circle>
<circle cx="2508.67" cy="877.404" r="4" stroke="rgb(255,140,0)" stroke-width="2" fill="none"></circle>
<circle cx="5621.02" cy="1725.35" r="4" stroke="rgb(255,140,0)" stroke-width="2" fill="none"></circle>
<circle cx="2238.06" cy="2249.17" r="4" stroke="rgb(135,255,0)" stroke-width="2" fill="none"></circle>
<circle cx="6376.74" cy="1640.99" r="4" stroke="rgb(135,255,0)" stroke-width="2" fill="none"></circle>
<circle cx="2486.03" cy="747.962" r="4" stroke="rgb(161,0,255)" stroke-width="2" fill="none"></circle>
<circle cx="6764.68" cy="1330.35" r="4" stroke="rgb(161,0,255)" stroke-width="2" fill="none"></circle>
<circle cx="2056.31" cy="1642.34" r="4" stroke="rgb(0,255,174)" stroke-width="2" fill="none"></circle>
<circle cx="7012.22" cy="1453.04" r="4" stroke="rgb(0,255,174)" stroke-width="2" fill="none"></circle>
<circle cx="2481.61" cy="931.229" r="4" stroke="rgb(255,0,93)" stroke-width="2" fill="none"></circle>
<circle cx="5556.95" cy="1658.25" r="4" stroke="rgb(255,0,93)" stroke-width="2" fill="none"></circle>
<circle cx="2508.67" cy="877.404" r="4" stroke="rgb(255,123,0)" stroke-width="2" fill="none"></circle>
<circle cx="6501.79" cy="1463.64" r="4" stroke="rgb(255,123,0)" stroke-width="2" fill="none"></circle>
<circle cx="2471.59" cy="929.241" r="4" stroke="rgb(246,0,255)" stroke-width="2" fill="none"></circle>
<circle cx="5561.5" cy="1665.35" r="4" stroke="rgb(246,0,255)" stroke-width="2" fill="none"></circle>
<circle cx="2290.04" cy="633.784" r="4" stroke="rgb(255,0,169)" stroke-width="2" fill="none"></circle>
<circle cx="6262.84" cy="1381.1" r="4" stroke="rgb(255,0,169)" stroke-width="2" fill="none"></circle>
<circle cx="1621.74" cy="1803.92" r="4" stroke="rgb(238,0,255)" stroke-width="2" fill="none"></circle>
<circle cx="5914.1" cy="1670.6" r="4" stroke="rgb(238,0,255)" stroke-width="2" fill="none"></circle>
<circle cx="2290.04" cy="633.784" r="4" stroke="rgb(255,29,0)" stroke-width="2" fill="none"></circle>
<circle cx="5629.24" cy="1394.28" r="4" stroke="rgb(255,29,0)" stroke-width="2" fill="none"></circle>
<circle cx="2064.03" cy="915.546" r="4" stroke="rgb(255,255,0)" stroke-width="2" fill="none"></circle>
<circle cx="5560.27" cy="1675.42" r="4" stroke="rgb(255,255,0)" stroke-width="2" fill="none"></circle>
<circle cx="3034.94" cy="708.604" r="4" stroke="rgb(255,225,0)" stroke-width="2" fill="none"></circle>
<circle cx="5904.12" cy="1177.54" r="4" stroke="rgb(255,225,0)" stroke-width="2" fill="none"></circle>
<circle cx="3034.94" cy="708.604" r="4" stroke="rgb(17,0,255)" stroke-width="2" fill="none"></circle>
<circle cx="5904.12" cy="1177.54" r="4" stroke="rgb(17,0,255)" stroke-width="2" fill="none"></circle>
<circle cx="1785.91" cy="1420.45" r="4" stroke="rgb(208,255,0)" stroke-width="2" fill="none"></circle>
<circle cx="6665.63" cy="1405.53" r="4" stroke="rgb(208,255,0)" stroke-width="2" fill="none"></circle>
<circle cx="2290.04" cy="633.784" r="4" stroke="rgb(0,237,255)" stroke-width="2" fill="none"></circle>
<circle cx="5849.87" cy="1879.52" r="4" stroke="rgb(0,237,255)" stroke-width="2" fill="none"></circle>
<circle cx="1707.8" cy="1184.32" r="4" stroke="rgb(255,0,174)" stroke-width="2" fill="none"></circle>
<circle cx="6531.66" cy="1219.03" r="4" stroke="rgb(255,0,174)" stroke-width="2" fill="none"></circle>
<circle cx="2056.31" cy="1642.34" r="4" stroke="rgb(229,255,0)" stroke-width="2" fill="none"></circle>
<circle cx="7022.8" cy="1498.03" r="4" stroke="rgb(229,255,0)" stroke-width="2" fill="none"></circle>
<circle cx="1389.23" cy="587.927" r="4" stroke="rgb(255,97,0)" stroke-width="2" fill="none"></circle>
<circle cx="5382.63" cy="1779.41" r="4" stroke="rgb(255,97,0)" stroke-width="2" fill="none"></circle>
<circle cx="2436.93" cy="1124.73" r="4" stroke="rgb(216,0,255)" stroke-width="2" fill="none"></circle>
<circle cx="5550.2" cy="2040.23" r="4" stroke="rgb(216,0,255)" stroke-width="2" fill="none"></circle>
<circle cx="2571.18" cy="888.939" r="4" stroke="rgb(25,255,0)" stroke-width="2" fill="none"></circle>
<circle cx="6515.92" cy="2066.91" r="4" stroke="rgb(25,255,0)" stroke-width="2" fill="none"></circle>
<circle cx="1785.2" cy="1795.98" r="4" stroke="rgb(0,255,144)" stroke-width="2" fill="none"></circle>
<circle cx="6999.1" cy="1211.19" r="4" stroke="rgb(0,255,144)" stroke-width="2" fill="none"></circle>
<circle cx="2290.04" cy="633.784" r="4" stroke="rgb(0,199,255)" stroke-width="2" fill="none"></circle>
<circle cx="5652.72" cy="1223.25" r="4" stroke="rgb(0,199,255)" stroke-width="2" fill="none"></circle>
<circle cx="2481.61" cy="931.229" r="4" stroke="rgb(199,0,255)" stroke-width="2" fill="none"></circle>
<circle cx="5708.42" cy="1269.76" r="4" stroke="rgb(199,0,255)" stroke-width="2" fill="none"></circle>
<circle cx="1772.21" cy="2553.63" r="4" stroke="rgb(0,127,255)" stroke-width="2" fill="none"></circle>
<circle cx="6308.14" cy="1906.85" r="4" stroke="rgb(0,127,255)" stroke-width="2" fill="none"></circle>
<circle cx="2476.01" cy="637.157" r="4" stroke="rgb(255,0,8)" stroke-width="2" fill="none"></circle>
<circle cx="5907.58" cy="1541.29" r="4" stroke="rgb(255,0,8)" stroke-width="2" fill="none"></circle>
<circle cx="2502.3" cy="691.772" r="4" stroke="rgb(182,0,255)" stroke-width="2" fill="none"></circle>
<circle cx="6875.23" cy="1964.41" r="4" stroke="rgb(182,0,255)" stroke-width="2" fill="none"></circle>
<circle cx="2427.46" cy="638.33" r="4" stroke="rgb(0,255,140)" stroke-width="2" fill="none"></circle>
<circle cx="6408.04" cy="1972.02" r="4" stroke="rgb(0,255,140)" stroke-width="2" fill="none"></circle>
<circle cx="2047.91" cy="1500.01" r="4" stroke="rgb(144,0,255)" stroke-width="2" fill="none"></circle>
<circle cx="6140.74" cy="1757.51" r="4" stroke="rgb(144,0,255)" stroke-width="2" fill="none"></circle>
<circle cx="2238.06" cy="2249.17" r="4" stroke="rgb(255,0,93)" stroke-width="2" fill="none"></circle>
<circle cx="5772.42" cy="1631.8" r="4" stroke="rgb(255,0,93)" stroke-width="2" fill="none"></circle>
<circle cx="1645.25" cy="957.795" r="4" stroke="rgb(72,0,255)" stroke-width="2" fill="none"></circle>
<circle cx="5321.92" cy="1634.46" r="4" stroke="rgb(72,0,255)" stroke-width="2" fill="none"></circle>
<circle cx="1772.21" cy="2553.63" r="4" stroke="rgb(225,255,0)" stroke-width="2" fill="none"></circle>
<circle cx="6434.29" cy="1648.96" r="4" stroke="rgb(225,255,0)" stroke-width="2" fill="none"></circle>
<circle cx="1536.91" cy="782.102" r="4" stroke="rgb(12,0,255)" stroke-width="2" fill="none"></circle>
<circle cx="5867.92" cy="1648.77" r="4" stroke="rgb(12,0,255)" stroke-width="2" fill="none"></circle>
<circle cx="2320.8" cy="586.584" r="4" stroke="rgb(255,0,63)" stroke-width="2" fill="none"></circle>
<circle cx="6313.51" cy="2030.71" r="4" stroke="rgb(255,0,63)" stroke-width="2" fill="none"></circle>
<circle cx="3000.41" cy="1733.65" r="4" stroke="rgb(255,0,59)" stroke-width="2" fill="none"></circle>
<circle cx="6076.69" cy="2031.63" r="4" stroke="rgb(255,0,59)" stroke-width="2" fill="none"></circle>
<circle cx="2538.55" cy="1761.75" r="4" stroke="rgb(255,187,0)" stroke-width="2" fill="none"></circle>
<circle cx="5708" cy="1429.33" r="4" stroke="rgb(255,187,0)" stroke-width="2" fill="none"></circle>
<circle cx="2538.55" cy="1761.75" r="4" stroke="rgb(255,0,153)" stroke-width="2" fill="none"></circle>
<circle cx="5708" cy="1429.33" r="4" stroke="rgb(255,0,153)" stroke-width="2" fill="none"></circle>
<circle cx="2538.55" cy="1761.75" r="4" stroke="rgb(29,0,255)" stroke-width="2" fill="none"></circle>
<circle cx="5849.22" cy="1493.25" r="4" stroke="rgb(29,0,255)" stroke-width="2" fill="none"></circle>
<circle cx="2495.55" cy="912.874" r="4" stroke="rgb(255,0,72)" stroke-width="2" fill="none"></circle>
<circle cx="6450.58" cy="1698.29" r="4" stroke="rgb(255,0,72)" stroke-width="2" fill="none"></circle>
<circle cx="1620.49" cy="1194.93" r="4" stroke="rgb(186,0,255)" stroke-width="2" fill="none"></circle>
<circle cx="6133.39" cy="1700.74" r="4" stroke="rgb(186,0,255)" stroke-width="2" fill="none"></circle>
<circle cx="1756.07" cy="852.4" r="4" stroke="rgb(0,242,255)" stroke-width="2" fill="none"></circle>
<circle cx="5159.44" cy="1347.65" r="4" stroke="rgb(0,242,255)" stroke-width="2" fill="none"></circle>
<circle cx="2052.85" cy="1448.42" r="4" stroke="rgb(0,76,255)" stroke-width="2" fill="none"></circle>
<circle cx="5406.63" cy="1612.98" r="4" stroke="rgb(0,76,255)" stroke-width="2" fill="none"></circle>
<circle cx="1781.88" cy="1306.87" r="4" stroke="rgb(255,0,63)" stroke-width="2" fill="none"></circle>
<circle cx="5213.57" cy="1726.17" r="4" stroke="rgb(255,0,63)" stroke-width="2" fill="none"></circle>
<circle cx="3179.92" cy="825.886" r="4" stroke="rgb(46,255,0)" stroke-width="2" fill="none"></circle>
<circle cx="5760.88" cy="1135.38" r="4" stroke="rgb(46,255,0)" stroke-width="2" fill="none"></circle>
<circle cx="3115.46" cy="723.398" r="4" stroke="rgb(59,255,0)" stroke-width="2" fill="none"></circle>
<circle cx="7009.61" cy="1737.13" r="4" stroke="rgb(59,255,0)" stroke-width="2" fill="none"></circle>
<circle cx="2065.63" cy="1306.27" r="4" stroke="rgb(203,0,255)" stroke-width="2" fill="none"></circle>
<circle cx="4929.8" cy="1037.61" r="4" stroke="rgb(203,0,255)" stroke-width="2" fill="none"></circle>
<circle cx="1594.52" cy="1914.08" r="4" stroke="rgb(225,0,255)" stroke-width="2" fill="none"></circle>
<circle cx="5436.4" cy="1775.62" r="4" stroke="rgb(225,0,255)" stroke-width="2" fill="none"></circle>
<circle cx="2485.04" cy="713.171" r="4" stroke="rgb(242,0,255)" stroke-width="2" fill="none"></circle>
<circle cx="6185.9" cy="1845.72" r="4" stroke="rgb(242,0,255)" stroke-width="2" fill="none"></circle>
<circle cx="2799.57" cy="1805.44" r="4" stroke="rgb(0,59,255)" stroke-width="2" fill="none"></circle>
<circle cx="5763.59" cy="1226.73" r="4" stroke="rgb(0,59,255)" stroke-width="2" fill="none"></circle>
<circle cx="2485.04" cy="713.171" r="4" stroke="rgb(0,221,255)" stroke-width="2" fill="none"></circle>
<circle cx="5956.99" cy="1665" r="4" stroke="rgb(0,221,255)" stroke-width="2" fill="none"></circle>
<circle cx="1636.59" cy="764.944" r="4" stroke="rgb(84,255,0)" stroke-width="2" fill="none"></circle>
<circle cx="5986.9" cy="2075.81" r="4" stroke="rgb(84,255,0)" stroke-width="2" fill="none"></circle>
<circle cx="2391.23" cy="596.834" r="4" stroke="rgb(255,0,80)" stroke-width="2" fill="none"></circle>
<circle cx="5615.98" cy="2182.43" r="4" stroke="rgb(255,0,80)" stroke-width="2" fill="none"></circle>
<circle cx="1995.58" cy="1105.42" r="4" stroke="rgb(0,110,255)" stroke-width="2" fill="none"></circle>
<circle cx="5879.96" cy="2086.46" r="4" stroke="rgb(0,110,255)" stroke-width="2" fill="none"></circle>
<circle cx="2451.09" cy="854.183" r="4" stroke="rgb(225,0,255)" stroke-width="2" fill="none"></circle>
<circle cx="5420.16" cy="1389.22" r="4" stroke="rgb(225,0,255)" stroke-width="2" fill="none"></circle>
<circle cx="2064.03" cy="915.546" r="4" stroke="rgb(0,255,84)" stroke-width="2" fill="none"></circle>
<circle cx="6836.98" cy="2186.4" r="4" stroke="rgb(0,255,84)" stroke-width="2" fill="none"></circle>
<circle cx="2508.24" cy="819.998" r="4" stroke="rgb(238,0,255)" stroke-width="2" fill="none"></circle>
<circle cx="5858.34" cy="2207.87" r="4" stroke="rgb(238,0,255)" stroke-width="2" fill="none"></circle>
<circle cx="2188.47" cy="455.388" r="4" stroke="rgb(221,0,255)" stroke-width="2" fill="none"></circle>
<circle cx="5451.52" cy="2326.78" r="4" stroke="rgb(221,0,255)" stroke-width="2" fill="none"></circle>
<circle cx="1675.14" cy="824.84" r="4" stroke="rgb(242,255,0)" stroke-width="2" fill="none"></circle>
<circle cx="5883.41" cy="2417.27" r="4" stroke="rgb(242,255,0)" stroke-width="2" fill="none"></circle>
</svg>