<?xml version="1.0" standalone="yes"?>
<!-- SVG graphic -->
<svg xmlns='http://www.w3.org/2000/svg' xmlns:xlink='http://www.w3.org/1999/xlink'
width="8064px" height="3024px" preserveAspectRatio="xMinYMin meet" viewBox="0 0 8064 3024" version="1.1">
<image x="0" y="0" width="4032px" height="3024px" opacity="1" xlink:href="/home/jeong/Code/2D-to-3D-Modeling-using-AI/Make3D/Image/20200227_180624.jpg"/>
<image x="4032" y="0" width="4032px" height="3024px" opacity="1" xlink:href="/home/jeong/Code/2D-to-3D-Modeling-using-AI/Make3D/Image/20200227_180647.jpg"/>
<polyline points="1514.27,1810.09,5417.97,912.107" stroke="rgb(0,255,42)" stroke-width="2" fill="none"></polyline>
<polyline points="1679.28,2474.69,5700.69,942.248" stroke="rgb(0,255,50)" stroke-width="2" fill="none"></polyline>
<polyline points="666.424,1235.19,6998.4,1940.44" stroke="rgb(63,255,0)" stroke-width="2" fill="none"></polyline>
<polyline points="833.226,1329.31,5986.66,1955.49" stroke="rgb(131,255,0)" stroke-width="2" fill="none"></polyline>
<polyline points="2659.7,1081.92,6313.65,1361.27" stroke="rgb(0,255,118)" stroke-width="2" fill="none"></polyline>
<polyline points="1725.08,1015.57,6173.71,760.725" stroke="rgb(255,208,0)" stroke-width="2" fill="none"></polyline>
<polyline points="2659.7,1081.92,6401.94,1368.41" stroke="rgb(229,0,255)" stroke-width="2" fill="none"></polyline>
<polyline points="1725.08,1015.57,6239.76,769.788" stroke="rgb(0,255,89)" stroke-width="2" fill="none"></polyline>
<polyline points="1180.86,2431.84,5648.84,842.698" stroke="rgb(255,80,0)" stroke-width="2" fill="none"></polyline>
<polyline points="1180.86,2431.84,5655.04,847.485" stroke="rgb(0,255,203)" stroke-width="2" fill="none"></polyline>
<polyline points="1096.49,804.413,5072.33,2054.31" stroke="rgb(255,229,0)" stroke-width="2" fill="none"></polyline>
<polyline points="2146.48,2553.81,6241.77,863.106" stroke="rgb(255,63,0)" stroke-width="2" fill="none"></polyline>
<polyline points="1677.57,1517.48,5411.11,991.764" stroke="rgb(165,0,255)" stroke-width="2" fill="none"></polyline>
<polyline points="2659.7,1081.92,6349.39,1398.88" stroke="rgb(131,0,255)" stroke-width="2" fill="none"></polyline>
<polyline points="1428.03,2855.25,5355.47,2339.59" stroke="rgb(17,0,255)" stroke-width="2" fill="none"></polyline>
<polyline points="1540.58,992.588,5743.33,1001.82" stroke="rgb(255,0,233)" stroke-width="2" fill="none"></polyline>
<polyline points="1540.58,992.588,5753.86,1012.58" stroke="rgb(140,255,0)" stroke-width="2" fill="none"></polyline>
<polyline points="2238.17,2203.52,6347.97,866.81" stroke="rgb(110,255,0)" stroke-width="2" fill="none"></polyline>
<polyline points="2060,1124.83,5818.67,2167.71" stroke="rgb(0,255,50)" stroke-width="2" fill="none"></polyline>
<polyline points="1491.67,1876.59,5346.25,953.546" stroke="rgb(255,55,0)" stroke-width="2" fill="none"></polyline>
<polyline points="1491.67,1876.59,5346.25,953.546" stroke="rgb(0,216,255)" stroke-width="2" fill="none"></polyline>
<polyline points="1864.1,2515.59,6038.48,1047.19" stroke="rgb(59,255,0)" stroke-width="2" fill="none"></polyline>
<polyline points="1690.25,1503.65,5593.93,1035.64" stroke="rgb(250,0,255)" stroke-width="2" fill="none"></polyline>
<polyline points="1864.1,2515.59,6041.67,1049.95" stroke="rgb(255,0,55)" stroke-width="2" fill="none"></polyline>
<polyline points="1491.67,1876.59,7063.63,1439.99" stroke="rgb(0,161,255)" stroke-width="2" fill="none"></polyline>
<polyline points="1528.41,2291.84,5678.82,1045.89" stroke="rgb(255,221,0)" stroke-width="2" fill="none"></polyline>
<polyline points="1615.55,1861.05,5655.26,1067.68" stroke="rgb(255,0,63)" stroke-width="2" fill="none"></polyline>
<polyline points="784.995,2698.32,4733.47,1092.06" stroke="rgb(169,255,0)" stroke-width="2" fill="none"></polyline>
<polyline points="1790.87,2606.63,6022.14,1093.4" stroke="rgb(195,255,0)" stroke-width="2" fill="none"></polyline>
<polyline points="1065.78,1449.11,5072.95,1016.44" stroke="rgb(255,0,246)" stroke-width="2" fill="none"></polyline>
<polyline points="1650.04,1685.05,5591.8,1022.16" stroke="rgb(0,255,157)" stroke-width="2" fill="none"></polyline>
<polyline points="1738.77,2813.13,6240.2,1111.7" stroke="rgb(0,153,255)" stroke-width="2" fill="none"></polyline>
<polyline points="1535.94,1790.11,5727.97,1117.17" stroke="rgb(195,255,0)" stroke-width="2" fill="none"></polyline>
<polyline points="1658.77,1793.68,5710.16,1125.69" stroke="rgb(0,255,59)" stroke-width="2" fill="none"></polyline>
<polyline points="2024.1,1110.2,6981.53,1517.75" stroke="rgb(225,0,255)" stroke-width="2" fill="none"></polyline>
<polyline points="1658.77,1793.68,5718.5,1137.21" stroke="rgb(106,255,0)" stroke-width="2" fill="none"></polyline>
<polyline points="2983.17,1339.02,6617.92,1528.31" stroke="rgb(255,238,0)" stroke-width="2" fill="none"></polyline>
<polyline points="1657.18,1811.75,5696.09,1120.28" stroke="rgb(89,255,0)" stroke-width="2" fill="none"></polyline>
<polyline points="1640.31,1903.15,5768.32,1157.07" stroke="rgb(51,255,0)" stroke-width="2" fill="none"></polyline>
<polyline points="1073.73,2479.47,5209.98,1217.51" stroke="rgb(191,255,0)" stroke-width="2" fill="none"></polyline>
<polyline points="1679.28,2474.69,5668.15,917.322" stroke="rgb(114,0,255)" stroke-width="2" fill="none"></polyline>
<polyline points="2277.44,1205.16,5792.22,1578.2" stroke="rgb(0,255,178)" stroke-width="2" fill="none"></polyline>
<polyline points="1263.25,2421.8,5444.77,1176.68" stroke="rgb(255,0,161)" stroke-width="2" fill="none"></polyline>
<polyline points="2653.29,1084.57,6267.48,1239.02" stroke="rgb(0,229,255)" stroke-width="2" fill="none"></polyline>
<polyline points="2653.29,1084.57,6286.38,1257.77" stroke="rgb(199,255,0)" stroke-width="2" fill="none"></polyline>
<polyline points="2659.7,1081.92,6293.74,1257.65" stroke="rgb(0,140,255)" stroke-width="2" fill="none"></polyline>
<polyline points="2653.29,1084.57,6286.38,1257.89" stroke="rgb(255,12,0)" stroke-width="2" fill="none"></polyline>
<polyline points="2659.7,1081.92,6256.79,1263.19" stroke="rgb(255,140,0)" stroke-width="2" fill="none"></polyline>
<polyline points="2659.7,1081.92,6630.83,1609.31" stroke="rgb(0,255,225)" stroke-width="2" fill="none"></polyline>
<polyline points="1804.16,2655.89,6287.21,1299.11" stroke="rgb(255,29,0)" stroke-width="2" fill="none"></polyline>
<polyline points="2659.7,1081.92,6236.5,1248.55" stroke="rgb(255,195,0)" stroke-width="2" fill="none"></polyline>
<polyline points="1967.47,1060.31,7057.07,1364.88" stroke="rgb(255,8,0)" stroke-width="2" fill="none"></polyline>
<polyline points="2659.7,1081.92,6597.01,1697.39" stroke="rgb(29,255,0)" stroke-width="2" fill="none"></polyline>
<polyline points="2659.7,1081.92,6294.33,1298.23" stroke="rgb(255,0,63)" stroke-width="2" fill="none"></polyline>
<polyline points="2659.7,1081.92,6313.08,1316.63" stroke="rgb(0,80,255)" stroke-width="2" fill="none"></polyline>
<polyline points="1439.89,2781.6,6755.82,1767.4" stroke="rgb(255,0,191)" stroke-width="2" fill="none"></polyline>
<polyline points="1273.18,1205.5,5913.03,1488.06" stroke="rgb(255,157,0)" stroke-width="2" fill="none"></polyline>
<polyline points="1804.16,2655.89,6522.87,1574.02" stroke="rgb(178,255,0)" stroke-width="2" fill="none"></polyline>
<polyline points="2283.87,2349.47,6363.23,1850.72" stroke="rgb(114,0,255)" stroke-width="2" fill="none"></polyline>
<polyline points="2443.62,927.117,6680.81,1693.14" stroke="rgb(38,255,0)" stroke-width="2" fill="none"></polyline>
<polyline points="3020.96,1443.04,6590.01,1696.45" stroke="rgb(255,85,0)" stroke-width="2" fill="none"></polyline>
<polyline points="1044.55,1459.49,7261.35,1934.76" stroke="rgb(233,255,0)" stroke-width="2" fill="none"></polyline>
<polyline points="2784.24,1115.84,6835.99,1977.6" stroke="rgb(0,221,255)" stroke-width="2" fill="none"></polyline>
<polyline points="1894.36,888.967,6721.39,1731.86" stroke="rgb(255,0,140)" stroke-width="2" fill="none"></polyline>
<polyline points="2165.12,2453.78,5358.8,837.506" stroke="rgb(208,255,0)" stroke-width="2" fill="none"></polyline>
<polyline points="1919.92,2511.29,6073.85,1010.54" stroke="rgb(255,0,29)" stroke-width="2" fill="none"></polyline>
<polyline points="1600.67,2163.78,5262.94,863.482" stroke="rgb(229,0,255)" stroke-width="2" fill="none"></polyline>
<polyline points="1600.67,2163.78,5262.94,863.482" stroke="rgb(0,255,29)" stroke-width="2" fill="none"></polyline>
<polyline points="817.108,1062.69,6028.95,1994.51" stroke="rgb(114,255,0)" stroke-width="2" fill="none"></polyline>
<polyline points="1801.18,1109.73,6422.54,915.613" stroke="rgb(255,178,0)" stroke-width="2" fill="none"></polyline>
<polyline points="1746.93,2735.64,6118.74,1162.42" stroke="rgb(195,255,0)" stroke-width="2" fill="none"></polyline>
<polyline points="1658.77,1793.68,5719.12,1137.37" stroke="rgb(255,0,0)" stroke-width="2" fill="none"></polyline>
<polyline points="2443.62,927.117,6526.84,1564.45" stroke="rgb(187,255,0)" stroke-width="2" fill="none"></polyline>
<polyline points="1930.59,2656.97,6786.22,2068.13" stroke="rgb(255,157,0)" stroke-width="2" fill="none"></polyline>
<polyline points="2185.86,1335.36,6544.2,1563.15" stroke="rgb(255,250,0)" stroke-width="2" fill="none"></polyline>
<polyline points="2185.86,1335.36,6568.96,1606" stroke="rgb(255,93,0)" stroke-width="2" fill="none"></polyline>
<polyline points="2725.03,1127.86,6651.67,1124.55" stroke="rgb(16,255,0)" stroke-width="2" fill="none"></polyline>
<polyline points="2573.28,1480.19,6816.5,1578.51" stroke="rgb(246,255,0)" stroke-width="2" fill="none"></polyline>
<polyline points="1817.1,2535.77,6023.3,1083.31" stroke="rgb(255,233,0)" stroke-width="2" fill="none"></polyline>
<polyline points="2247.54,2368.04,6236.91,1084.14" stroke="rgb(0,255,174)" stroke-width="2" fill="none"></polyline>
<circle cx="1514.27" cy="1810.09" r="4" stroke="rgb(0,255,42)" stroke-width="2" fill="none"></circle>
<circle cx="5417.97" cy="912.107" r="4" stroke="rgb(0,255,42)" stroke-width="2" fill="none"></circle>
<circle cx="1679.28" cy="2474.69" r="4" stroke="rgb(0,255,50)" stroke-width="2" fill="none"></circle>
<circle cx="5700.69" cy="942.248" r="4" stroke="rgb(0,255,50)" stroke-width="2" fill="none"></circle>
<circle cx="666.424" cy="1235.19" r="4" stroke="rgb(63,255,0)" stroke-width="2" fill="none"></circle>
<circle cx="6998.4" cy="1940.44" r="4" stroke="rgb(63,255,0)" stroke-width="2" fill="none"></circle>
<circle cx="833.226" cy="1329.31" r="4" stroke="rgb(131,255,0)" stroke-width="2" fill="none"></circle>
<circle cx="5986.66" cy="1955.49" r="4" stroke="rgb(131,255,0)" stroke-width="2" fill="none"></circle>
<circle cx="2659.7" cy="1081.92" r="4" stroke="rgb(0,255,118)" stroke-width="2" fill="none"></circle>
<circle cx="6313.65" cy="1361.27" r="4" stroke="rgb(0,255,118)" stroke-width="2" fill="none"></circle>
<circle cx="1725.08" cy="1015.57" r="4" stroke="rgb(255,208,0)" stroke-width="2" fill="none"></circle>
<circle cx="6173.71" cy="760.725" r="4" stroke="rgb(255,208,0)" stroke-width="2" fill="none"></circle>
<circle cx="2659.7" cy="1081.92" r="4" stroke="rgb(229,0,255)" stroke-width="2" fill="none"></circle>
<circle cx="6401.94" cy="1368.41" r="4" stroke="rgb(229,0,255)" stroke-width="2" fill="none"></circle>
<circle cx="1725.08" cy="1015.57" r="4" stroke="rgb(0,255,89)" stroke-width="2" fill="none"></circle>
<circle cx="6239.76" cy="769.788" r="4" stroke="rgb(0,255,89)" stroke-width="2" fill="none"></circle>
<circle cx="1180.86" cy="2431.84" r="4" stroke="rgb(255,80,0)" stroke-width="2" fill="none"></circle>
<circle cx="5648.84" cy="842.698" r="4" stroke="rgb(255,80,0)" stroke-width="2" fill="none"></circle>
<circle cx="1180.86" cy="2431.84" r="4" stroke="rgb(0,255,203)" stroke-width="2" fill="none"></circle>
<circle cx="5655.04" cy="847.485" r="4" stroke="rgb(0,255,203)" stroke-width="2" fill="none"></circle>
<circle cx="1096.49" cy="804.413" r="4" stroke="rgb(255,229,0)" stroke-width="2" fill="none"></circle>
<circle cx="5072.33" cy="2054.31" r="4" stroke="rgb(255,229,0)" stroke-width="2" fill="none"></circle>
<circle cx="2146.48" cy="2553.81" r="4" stroke="rgb(255,63,0)" stroke-width="2" fill="none"></circle>
<circle cx="6241.77" cy="863.106" r="4" stroke="rgb(255,63,0)" stroke-width="2" fill="none"></circle>
<circle cx="1677.57" cy="1517.48" r="4" stroke="rgb(165,0,255)" stroke-width="2" fill="none"></circle>
<circle cx="5411.11" cy="991.764" r="4" stroke="rgb(165,0,255)" stroke-width="2" fill="none"></circle>
<circle cx="2659.7" cy="1081.92" r="4" stroke="rgb(131,0,255)" stroke-width="2" fill="none"></circle>
<circle cx="6349.39" cy="1398.88" r="4" stroke="rgb(131,0,255)" stroke-width="2" fill="none"></circle>
<circle cx="1428.03" cy="2855.25" r="4" stroke="rgb(17,0,255)" stroke-width="2" fill="none"></circle>
<circle cx="5355.47" cy="2339.59" r="4" stroke="rgb(17,0,255)" stroke-width="2" fill="none"></circle>
<circle cx="1540.58" cy="992.588" r="4" stroke="rgb(255,0,233)" stroke-width="2" fill="none"></circle>
<circle cx="5743.33" cy="1001.82" r="4" stroke="rgb(255,0,233)" stroke-width="2" fill="none"></circle>
<circle cx="1540.58" cy="992.588" r="4" stroke="rgb(140,255,0)" stroke-width="2" fill="none"></circle>
<circle cx="5753.86" cy="1012.58" r="4" stroke="rgb(140,255,0)" stroke-width="2" fill="none"></circle>
<circle cx="2238.17" cy="2203.52" r="4" stroke="rgb(110,255,0)" stroke-width="2" fill="none"></circle>
<circle cx="6347.97" cy="866.81" r="4" stroke="rgb(110,255,0)" stroke-width="2" fill="none"></circle>
<circle cx="2060" cy="1124.83" r="4" stroke="rgb(0,255,50)" stroke-width="2" fill="none"></circle>
<circle cx="5818.67" cy="2167.71" r="4" stroke="rgb(0,255,50)" stroke-width="2" fill="none"></circle>
<circle cx="1491.67" cy="1876.59" r="4" stroke="rgb(255,55,0)" stroke-width="2" fill="none"></circle>
<circle cx="5346.25" cy="953.546" r="4" stroke="rgb(255,55,0)" stroke-width="2" fill="none"></circle>
<circle cx="1491.67" cy="1876.59" r="4" stroke="rgb(0,216,255)" stroke-width="2" fill="none"></circle>
<circle cx="5346.25" cy="953.546" r="4" stroke="rgb(0,216,255)" stroke-width="2" fill="none"></circle>
<circle cx="1864.1" cy="2515.59" r="4" stroke="rgb(59,255,0)" stroke-width="2" fill="none"></circle>
<circle cx="6038.48" cy="1047.19" r="4" stroke="rgb(59,255,0)" stroke-width="2" fill="none"></circle>
<circle cx="1690.25" cy="1503.65" r="4" stroke="rgb(250,0,255)" stroke-width="2" fill="none"></circle>
<circle cx="5593.93" cy="1035.64" r="4" stroke="rgb(250,0,255)" stroke-width="2" fill="none"></circle>
<circle cx="1864.1" cy="2515.59" r="4" stroke="rgb(255,0,55)" stroke-width="2" fill="none"></circle>
<circle cx="6041.67" cy="1049.95" r="4" stroke="rgb(255,0,55)" stroke-width="2" fill="none"></circle>
<circle cx="1491.67" cy="1876.59" r="4" stroke="rgb(0,161,255)" stroke-width="2" fill="none"></circle>
<circle cx="7063.63" cy="1439.99" r="4" stroke="rgb(0,161,255)" stroke-width="2" fill="none"></circle>
<circle cx="1528.41" cy="2291.84" r="4" stroke="rgb(255,221,0)" stroke-width="2" fill="none"></circle>
<circle cx="5678.82" cy="1045.89" r="4" stroke="rgb(255,221,0)" stroke-width="2" fill="none"></circle>
<circle cx="1615.55" cy="1861.05" r="4" stroke="rgb(255,0,63)" stroke-width="2" fill="none"></circle>
<circle cx="5655.26" cy="1067.68" r="4" stroke="rgb(255,0,63)" stroke-width="2" fill="none"></circle>
<circle cx="784.995" cy="2698.32" r="4" stroke="rgb(169,255,0)" stroke-width="2" fill="none"></circle>
<circle cx="4733.47" cy="1092.06" r="4" stroke="rgb(169,255,0)" stroke-width="2" fill="none"></circle>
<circle cx="1790.87" cy="2606.63" r="4" stroke="rgb(195,255,0)" stroke-width="2" fill="none"></circle>
<circle cx="6022.14" cy="1093.4" r="4" stroke="rgb(195,255,0)" stroke-width="2" fill="none"></circle>
<circle cx="1065.78" cy="1449.11" r="4" stroke="rgb(255,0,246)" stroke-width="2" fill="none"></circle>
<circle cx="5072.95" cy="1016.44" r="4" stroke="rgb(255,0,246)" stroke-width="2" fill="none"></circle>
<circle cx="1650.04" cy="1685.05" r="4" stroke="rgb(0,255,157)" stroke-width="2" fill="none"></circle>
<circle cx="5591.8" cy="1022.16" r="4" stroke="rgb(0,255,157)" stroke-width="2" fill="none"></circle>
<circle cx="1738.77" cy="2813.13" r="4" stroke="rgb(0,153,255)" stroke-width="2" fill="none"></circle>
<circle cx="6240.2" cy="1111.7" r="4" stroke="rgb(0,153,255)" stroke-width="2" fill="none"></circle>
<circle cx="1535.94" cy="1790.11" r="4" stroke="rgb(195,255,0)" stroke-width="2" fill="none"></circle>
<circle cx="5727.97" cy="1117.17" r="4" stroke="rgb(195,255,0)" stroke-width="2" fill="none"></circle>
<circle cx="1658.77" cy="1793.68" r="4" stroke="rgb(0,255,59)" stroke-width="2" fill="none"></circle>
<circle cx="5710.16" cy="1125.69" r="4" stroke="rgb(0,255,59)" stroke-width="2" fill="none"></circle>
<circle cx="2024.1" cy="1110.2" r="4" stroke="rgb(225,0,255)" stroke-width="2" fill="none"></circle>
<circle cx="6981.53" cy="1517.75" r="4" stroke="rgb(225,0,255)" stroke-width="2" fill="none"></circle>
<circle cx="1658.77" cy="1793.68" r="4" stroke="rgb(106,255,0)" stroke-width="2" fill="none"></circle>
<circle cx="5718.5" cy="1137.21" r="4" stroke="rgb(106,255,0)" stroke-width="2" fill="none"></circle>
<circle cx="2983.17" cy="1339.02" r="4" stroke="rgb(255,238,0)" stroke-width="2" fill="none"></circle>
<circle cx="6617.92" cy="1528.31" r="4" stroke="rgb(255,238,0)" stroke-width="2" fill="none"></circle>
<circle cx="1657.18" cy="1811.75" r="4" stroke="rgb(89,255,0)" stroke-width="2" fill="none"></circle>
<circle cx="5696.09" cy="1120.28" r="4" stroke="rgb(89,255,0)" stroke-width="2" fill="none"></circle>
<circle cx="1640.31" cy="1903.15" r="4" stroke="rgb(51,255,0)" stroke-width="2" fill="none"></circle>
<circle cx="5768.32" cy="1157.07" r="4" stroke="rgb(51,255,0)" stroke-width="2" fill="none"></circle>
<circle cx="1073.73" cy="2479.47" r="4" stroke="rgb(191,255,0)" stroke-width="2" fill="none"></circle>
<circle cx="5209.98" cy="1217.51" r="4" stroke="rgb(191,255,0)" stroke-width="2" fill="none"></circle>
<circle cx="1679.28" cy="2474.69" r="4" stroke="rgb(114,0,255)" stroke-width="2" fill="none"></circle>
<circle cx="5668.15" cy="917.322" r="4" stroke="rgb(114,0,255)" stroke-width="2" fill="none"></circle>
<circle cx="2277.44" cy="1205.16" r="4" stroke="rgb(0,255,178)" stroke-width="2" fill="none"></circle>
<circle cx="5792.22" cy="1578.2" r="4" stroke="rgb(0,255,178)" stroke-width="2" fill="none"></circle>
<circle cx="1263.25" cy="2421.8" r="4" stroke="rgb(255,0,161)" stroke-width="2" fill="none"></circle>
<circle cx="5444.77" cy="1176.68" r="4" stroke="rgb(255,0,161)" stroke-width="2" fill="none"></circle>
<circle cx="2653.29" cy="1084.57" r="4" stroke="rgb(0,229,255)" stroke-width="2" fill="none"></circle>
<circle cx="6267.48" cy="1239.02" r="4" stroke="rgb(0,229,255)" stroke-width="2" fill="none"></circle>
<circle cx="2653.29" cy="1084.57" r="4" stroke="rgb(199,255,0)" stroke-width="2" fill="none"></circle>
<circle cx="6286.38" cy="1257.77" r="4" stroke="rgb(199,255,0)" stroke-width="2" fill="none"></circle>
<circle cx="2659.7" cy="1081.92" r="4" stroke="rgb(0,140,255)" stroke-width="2" fill="none"></circle>
<circle cx="6293.74" cy="1257.65" r="4" stroke="rgb(0,140,255)" stroke-width="2" fill="none"></circle>
<circle cx="2653.29" cy="1084.57" r="4" stroke="rgb(255,12,0)" stroke-width="2" fill="none"></circle>
<circle cx="6286.38" cy="1257.89" r="4" stroke="rgb(255,12,0)" stroke-width="2" fill="none"></circle>
<circle cx="2659.7" cy="1081.92" r="4" stroke="rgb(255,140,0)" stroke-width="2" fill="none"></circle>
<circle cx="6256.79" cy="1263.19" r="4" stroke="rgb(255,140,0)" stroke-width="2" fill="none"></circle>
<circle cx="2659.7" cy="1081.92" r="4" stroke="rgb(0,255,225)" stroke-width="2" fill="none"></circle>
<circle cx="6630.83" cy="1609.31" r="4" stroke="rgb(0,255,225)" stroke-width="2" fill="none"></circle>
<circle cx="1804.16" cy="2655.89" r="4" stroke="rgb(255,29,0)" stroke-width="2" fill="none"></circle>
<circle cx="6287.21" cy="1299.11" r="4" stroke="rgb(255,29,0)" stroke-width="2" fill="none"></circle>
<circle cx="2659.7" cy="1081.92" r="4" stroke="rgb(255,195,0)" stroke-width="2" fill="none"></circle>
<circle cx="6236.5" cy="1248.55" r="4" stroke="rgb(255,195,0)" stroke-width="2" fill="none"></circle>
<circle cx="1967.47" cy="1060.31" r="4" stroke="rgb(255,8,0)" stroke-width="2" fill="none"></circle>
<circle cx="7057.07" cy="1364.88" r="4" stroke="rgb(255,8,0)" stroke-width="2" fill="none"></circle>
<circle cx="2659.7" cy="1081.92" r="4" stroke="rgb(29,255,0)" stroke-width="2" fill="none"></circle>
<circle cx="6597.01" cy="1697.39" r="4" stroke="rgb(29,255,0)" stroke-width="2" fill="none"></circle>
<circle cx="2659.7" cy="1081.92" r="4" stroke="rgb(255,0,63)" stroke-width="2" fill="none"></circle>
<circle cx="6294.33" cy="1298.23" r="4" stroke="rgb(255,0,63)" stroke-width="2" fill="none"></circle>
<circle cx="2659.7" cy="1081.92" r="4" stroke="rgb(0,80,255)" stroke-width="2" fill="none"></circle>
<circle cx="6313.08" cy="1316.63" r="4" stroke="rgb(0,80,255)" stroke-width="2" fill="none"></circle>
<circle cx="1439.89" cy="2781.6" r="4" stroke="rgb(255,0,191)" stroke-width="2" fill="none"></circle>
<circle cx="6755.82" cy="1767.4" r="4" stroke="rgb(255,0,191)" stroke-width="2" fill="none"></circle>
<circle cx="1273.18" cy="1205.5" r="4" stroke="rgb(255,157,0)" stroke-width="2" fill="none"></circle>
<circle cx="5913.03" cy="1488.06" r="4" stroke="rgb(255,157,0)" stroke-width="2" fill="none"></circle>
<circle cx="1804.16" cy="2655.89" r="4" stroke="rgb(178,255,0)" stroke-width="2" fill="none"></circle>
<circle cx="6522.87" cy="1574.02" r="4" stroke="rgb(178,255,0)" stroke-width="2" fill="none"></circle>
<circle cx="2283.87" cy="2349.47" r="4" stroke="rgb(114,0,255)" stroke-width="2" fill="none"></circle>
<circle cx="6363.23" cy="1850.72" r="4" stroke="rgb(114,0,255)" stroke-width="2" fill="none"></circle>
<circle cx="2443.62" cy="927.117" r="4" stroke="rgb(38,255,0)" stroke-width="2" fill="none"></circle>
<circle cx="6680.81" cy="1693.14" r="4" stroke="rgb(38,255,0)" stroke-width="2" fill="none"></circle>
<circle cx="3020.96" cy="1443.04" r="4" stroke="rgb(255,85,0)" stroke-width="2" fill="none"></circle>
<circle cx="6590.01" cy="1696.45" r="4" stroke="rgb(255,85,0)" stroke-width="2" fill="none"></circle>
<circle cx="1044.55" cy="1459.49" r="4" stroke="rgb(233,255,0)" stroke-width="2" fill="none"></circle>
<circle cx="7261.35" cy="1934.76" r="4" stroke="rgb(233,255,0)" stroke-width="2" fill="none"></circle>
<circle cx="2784.24" cy="1115.84" r="4" stroke="rgb(0,221,255)" stroke-width="2" fill="none"></circle>
<circle cx="6835.99" cy="1977.6" r="4" stroke="rgb(0,221,255)" stroke-width="2" fill="none"></circle>
<circle cx="1894.36" cy="888.967" r="4" stroke="rgb(255,0,140)" stroke-width="2" fill="none"></circle>
<circle cx="6721.39" cy="1731.86" r="4" stroke="rgb(255,0,140)" stroke-width="2" fill="none"></circle>
<circle cx="2165.12" cy="2453.78" r="4" stroke="rgb(208,255,0)" stroke-width="2" fill="none"></circle>
<circle cx="5358.8" cy="837.506" r="4" stroke="rgb(208,255,0)" stroke-width="2" fill="none"></circle>
<circle cx="1919.92" cy="2511.29" r="4" stroke="rgb(255,0,29)" stroke-width="2" fill="none"></circle>
<circle cx="6073.85" cy="1010.54" r="4" stroke="rgb(255,0,29)" stroke-width="2" fill="none"></circle>
<circle cx="1600.67" cy="2163.78" r="4" stroke="rgb(229,0,255)" stroke-width="2" fill="none"></circle>
<circle cx="5262.94" cy="863.482" r="4" stroke="rgb(229,0,255)" stroke-width="2" fill="none"></circle>
<circle cx="1600.67" cy="2163.78" r="4" stroke="rgb(0,255,29)" stroke-width="2" fill="none"></circle>
<circle cx="5262.94" cy="863.482" r="4" stroke="rgb(0,255,29)" stroke-width="2" fill="none"></circle>
<circle cx="817.108" cy="1062.69" r="4" stroke="rgb(114,255,0)" stroke-width="2" fill="none"></circle>
<circle cx="6028.95" cy="1994.51" r="4" stroke="rgb(114,255,0)" stroke-width="2" fill="none"></circle>
<circle cx="1801.18" cy="1109.73" r="4" stroke="rgb(255,178,0)" stroke-width="2" fill="none"></circle>
<circle cx="6422.54" cy="915.613" r="4" stroke="rgb(255,178,0)" stroke-width="2" fill="none"></circle>
<circle cx="1746.93" cy="2735.64" r="4" stroke="rgb(195,255,0)" stroke-width="2" fill="none"></circle>
<circle cx="6118.74" cy="1162.42" r="4" stroke="rgb(195,255,0)" stroke-width="2" fill="none"></circle>
<circle cx="1658.77" cy="1793.68" r="4" stroke="rgb(255,0,0)" stroke-width="2" fill="none"></circle>
<circle cx="5719.12" cy="1137.37" r="4" stroke="rgb(255,0,0)" stroke-width="2" fill="none"></circle>
<circle cx="2443.62" cy="927.117" r="4" stroke="rgb(187,255,0)" stroke-width="2" fill="none"></circle>
<circle cx="6526.84" cy="1564.45" r="4" stroke="rgb(187,255,0)" stroke-width="2" fill="none"></circle>
<circle cx="1930.59" cy="2656.97" r="4" stroke="rgb(255,157,0)" stroke-width="2" fill="none"></circle>
<circle cx="6786.22" cy="2068.13" r="4" stroke="rgb(255,157,0)" stroke-width="2" fill="none"></circle>
<circle cx="2185.86" cy="1335.36" r="4" stroke="rgb(255,250,0)" stroke-width="2" fill="none"></circle>
<circle cx="6544.2" cy="1563.15" r="4" stroke="rgb(255,250,0)" stroke-width="2" fill="none"></circle>
<circle cx="2185.86" cy="1335.36" r="4" stroke="rgb(255,93,0)" stroke-width="2" fill="none"></circle>
<circle cx="6568.96" cy="1606" r="4" stroke="rgb(255,93,0)" stroke-width="2" fill="none"></circle>
<circle cx="2725.03" cy="1127.86" r="4" stroke="rgb(16,255,0)" stroke-width="2" fill="none"></circle>
<circle cx="6651.67" cy="1124.55" r="4" stroke="rgb(16,255,0)" stroke-width="2" fill="none"></circle>
<circle cx="2573.28" cy="1480.19" r="4" stroke="rgb(246,255,0)" stroke-width="2" fill="none"></circle>
<circle cx="6816.5" cy="1578.51" r="4" stroke="rgb(246,255,0)" stroke-width="2" fill="none"></circle>
<circle cx="1817.1" cy="2535.77" r="4" stroke="rgb(255,233,0)" stroke-width="2" fill="none"></circle>
<circle cx="6023.3" cy="1083.31" r="4" stroke="rgb(255,233,0)" stroke-width="2" fill="none"></circle>
<circle cx="2247.54" cy="2368.04" r="4" stroke="rgb(0,255,174)" stroke-width="2" fill="none"></circle>
<circle cx="6236.91" cy="1084.14" r="4" stroke="rgb(0,255,174)" stroke-width="2" fill="none"></circle>
</svg>