<?xml version="1.0" standalone="yes"?>
<!-- SVG graphic -->
<svg xmlns='http://www.w3.org/2000/svg' xmlns:xlink='http://www.w3.org/1999/xlink'
width="8064px" height="3024px" preserveAspectRatio="xMinYMin meet" viewBox="0 0 8064 3024" version="1.1">
<image x="0" y="0" width="4032px" height="3024px" opacity="1" xlink:href="/home/jeong/Code/2D-to-3D-Modeling-using-AI/Make3D/Image/20200227_180624.jpg"/>
<image x="4032" y="0" width="4032px" height="3024px" opacity="1" xlink:href="/home/jeong/Code/2D-to-3D-Modeling-using-AI/Make3D/Image/20200227_180651.jpg"/>
<polyline points="1096.49,804.413,5977.32,872.88" stroke="rgb(0,80,255)" stroke-width="2" fill="none"></polyline>
<polyline points="1921.24,863.131,7304.42,1167.65" stroke="rgb(0,25,255)" stroke-width="2" fill="none"></polyline>
<polyline points="2459.54,899.64,6414.13,1457.84" stroke="rgb(148,255,0)" stroke-width="2" fill="none"></polyline>
<polyline points="2340.16,937.445,6778.18,1967.86" stroke="rgb(0,255,250)" stroke-width="2" fill="none"></polyline>
<polyline points="1463.15,950.982,6684.26,1513.2" stroke="rgb(0,255,148)" stroke-width="2" fill="none"></polyline>
<polyline points="1228.03,958.922,5689.09,1765.73" stroke="rgb(101,255,0)" stroke-width="2" fill="none"></polyline>
<polyline points="1295.63,960.23,5775.91,1613.52" stroke="rgb(255,42,0)" stroke-width="2" fill="none"></polyline>
<polyline points="1107.2,960.691,5254.46,1889.42" stroke="rgb(165,0,255)" stroke-width="2" fill="none"></polyline>
<polyline points="1958.42,969.804,6888.67,1948.47" stroke="rgb(0,255,118)" stroke-width="2" fill="none"></polyline>
<polyline points="1178.02,970.266,5230.61,1901.93" stroke="rgb(0,93,255)" stroke-width="2" fill="none"></polyline>
<polyline points="1758.8,972.62,5885.35,1079.02" stroke="rgb(0,255,101)" stroke-width="2" fill="none"></polyline>
<polyline points="2510.45,975.038,6429.77,1705.86" stroke="rgb(0,106,255)" stroke-width="2" fill="none"></polyline>
<polyline points="1341.07,975.822,5910.57,1246.48" stroke="rgb(0,255,208)" stroke-width="2" fill="none"></polyline>
<polyline points="1738.12,998.091,6802.49,1687.69" stroke="rgb(25,0,255)" stroke-width="2" fill="none"></polyline>
<polyline points="1985.65,1001.69,5993.02,1751.83" stroke="rgb(255,51,0)" stroke-width="2" fill="none"></polyline>
<polyline points="2277.25,1002.66,7158.16,1503.32" stroke="rgb(0,255,80)" stroke-width="2" fill="none"></polyline>
<polyline points="2039.55,1009.14,6061.68,1645.47" stroke="rgb(255,216,0)" stroke-width="2" fill="none"></polyline>
<polyline points="2334.16,1034.39,6346.37,892.232" stroke="rgb(110,255,0)" stroke-width="2" fill="none"></polyline>
<polyline points="2602.13,1040.86,5887.6,1937.17" stroke="rgb(255,0,29)" stroke-width="2" fill="none"></polyline>
<polyline points="2150,1043.34,6532.67,1585.33" stroke="rgb(255,0,131)" stroke-width="2" fill="none"></polyline>
<polyline points="2643.75,1055.16,6398.6,2005.57" stroke="rgb(0,89,255)" stroke-width="2" fill="none"></polyline>
<polyline points="2535.8,1064.15,6738.34,976.815" stroke="rgb(212,255,0)" stroke-width="2" fill="none"></polyline>
<polyline points="2577.5,1065.99,6532.9,1631.34" stroke="rgb(0,255,50)" stroke-width="2" fill="none"></polyline>
<polyline points="2640.59,1075.75,6708.62,1937.82" stroke="rgb(0,203,255)" stroke-width="2" fill="none"></polyline>
<polyline points="2632.87,1094.04,6668.93,955.2" stroke="rgb(46,255,0)" stroke-width="2" fill="none"></polyline>
<polyline points="587.76,1096.87,5745.35,1574.37" stroke="rgb(0,174,255)" stroke-width="2" fill="none"></polyline>
<polyline points="2911.09,1100.93,6051.48,1562.62" stroke="rgb(208,255,0)" stroke-width="2" fill="none"></polyline>
<polyline points="2679.69,1101.37,6539.3,1875.02" stroke="rgb(0,140,255)" stroke-width="2" fill="none"></polyline>
<polyline points="2647.98,1101.59,6644.5,897.339" stroke="rgb(255,212,0)" stroke-width="2" fill="none"></polyline>
<polyline points="593.518,1106.87,5875.22,1723.83" stroke="rgb(0,255,21)" stroke-width="2" fill="none"></polyline>
<polyline points="2450.68,1151.02,7132.2,849.99" stroke="rgb(0,97,255)" stroke-width="2" fill="none"></polyline>
<polyline points="2895.3,1157.43,5300.71,1556.61" stroke="rgb(135,0,255)" stroke-width="2" fill="none"></polyline>
<polyline points="1939.4,1163.28,6621.57,1528.43" stroke="rgb(0,38,255)" stroke-width="2" fill="none"></polyline>
<polyline points="2146.45,1169.71,6401.89,1669.41" stroke="rgb(255,0,246)" stroke-width="2" fill="none"></polyline>
<polyline points="2455.95,1169.76,5554.07,1573.64" stroke="rgb(255,0,157)" stroke-width="2" fill="none"></polyline>
<polyline points="1268.72,1179.78,5681.27,1743.71" stroke="rgb(255,114,0)" stroke-width="2" fill="none"></polyline>
<polyline points="1016.09,1253.49,7493.13,1222.95" stroke="rgb(127,0,255)" stroke-width="2" fill="none"></polyline>
<polyline points="2131.9,1256.04,6580.78,1890.35" stroke="rgb(255,0,114)" stroke-width="2" fill="none"></polyline>
<polyline points="2052.48,1280.7,6184.11,1623.8" stroke="rgb(0,255,246)" stroke-width="2" fill="none"></polyline>
<polyline points="1013.89,1281.15,5494.6,1514.11" stroke="rgb(255,246,0)" stroke-width="2" fill="none"></polyline>
<polyline points="2094.14,1292.32,6445.05,1590.12" stroke="rgb(242,255,0)" stroke-width="2" fill="none"></polyline>
<polyline points="1776.29,1294.39,5519.3,1288.1" stroke="rgb(0,195,255)" stroke-width="2" fill="none"></polyline>
<polyline points="1250.22,1297.56,5273.65,1936.07" stroke="rgb(144,0,255)" stroke-width="2" fill="none"></polyline>
<polyline points="773.192,1298.26,5750.62,1553.05" stroke="rgb(0,29,255)" stroke-width="2" fill="none"></polyline>
<polyline points="1793.23,1325.81,5669.22,1375.42" stroke="rgb(255,0,204)" stroke-width="2" fill="none"></polyline>
<polyline points="2185.86,1335.36,6470.16,1982.85" stroke="rgb(0,255,161)" stroke-width="2" fill="none"></polyline>
<polyline points="1954.79,1338.58,5868.94,2007.95" stroke="rgb(255,51,0)" stroke-width="2" fill="none"></polyline>
<polyline points="2247.01,1345.84,6494.62,1704.92" stroke="rgb(255,12,0)" stroke-width="2" fill="none"></polyline>
<polyline points="2461.58,1399.52,6018.38,2019.28" stroke="rgb(0,255,16)" stroke-width="2" fill="none"></polyline>
<polyline points="2082.88,1412.54,6849.61,1743.66" stroke="rgb(255,21,0)" stroke-width="2" fill="none"></polyline>
<polyline points="2175.57,1438.82,6924.51,1934.06" stroke="rgb(0,153,255)" stroke-width="2" fill="none"></polyline>
<polyline points="2177.61,1453.98,6452.02,1493.21" stroke="rgb(255,0,68)" stroke-width="2" fill="none"></polyline>
<polyline points="1044.55,1459.49,5750.11,1422.92" stroke="rgb(255,0,225)" stroke-width="2" fill="none"></polyline>
<polyline points="2236.98,1467.82,6603.34,1619.05" stroke="rgb(255,0,101)" stroke-width="2" fill="none"></polyline>
<polyline points="2573.28,1480.19,6177.72,1669.97" stroke="rgb(255,204,0)" stroke-width="2" fill="none"></polyline>
<polyline points="3019.37,1481.98,5993.91,1882.2" stroke="rgb(203,0,255)" stroke-width="2" fill="none"></polyline>
<polyline points="2586.78,1489.52,6732.45,935.096" stroke="rgb(255,204,0)" stroke-width="2" fill="none"></polyline>
<polyline points="1838.05,1507.08,6285.98,1899.35" stroke="rgb(0,255,0)" stroke-width="2" fill="none"></polyline>
<polyline points="2195.74,1521.2,6924.45,1474.25" stroke="rgb(0,255,63)" stroke-width="2" fill="none"></polyline>
<polyline points="3028.14,1561.89,6648.35,1973.77" stroke="rgb(255,0,127)" stroke-width="2" fill="none"></polyline>
<polyline points="1533.01,1604.86,6404.05,1572.87" stroke="rgb(21,0,255)" stroke-width="2" fill="none"></polyline>
<polyline points="2235.62,1614.67,6416.78,1471.21" stroke="rgb(0,67,255)" stroke-width="2" fill="none"></polyline>
<polyline points="2231.91,1621.8,6741.36,1486.24" stroke="rgb(25,255,0)" stroke-width="2" fill="none"></polyline>
<polyline points="1652.15,1706.02,6754.86,1743.37" stroke="rgb(12,255,0)" stroke-width="2" fill="none"></polyline>
<polyline points="2332.8,1728.13,6146.39,1366.21" stroke="rgb(0,255,199)" stroke-width="2" fill="none"></polyline>
<polyline points="1556.64,1740.71,7034.19,1016.01" stroke="rgb(182,255,0)" stroke-width="2" fill="none"></polyline>
<polyline points="2262.47,1781.5,6398.9,1443.24" stroke="rgb(255,68,0)" stroke-width="2" fill="none"></polyline>
<polyline points="2123.72,1901.67,7104.25,1750.9" stroke="rgb(182,255,0)" stroke-width="2" fill="none"></polyline>
<polyline points="1304.52,1950.94,5336.52,1476.06" stroke="rgb(182,0,255)" stroke-width="2" fill="none"></polyline>
<polyline points="1295.87,1986.38,7132.98,1600.7" stroke="rgb(229,255,0)" stroke-width="2" fill="none"></polyline>
<polyline points="1193.24,2003.87,6111.91,2006.77" stroke="rgb(255,34,0)" stroke-width="2" fill="none"></polyline>
<polyline points="2736.44,2014.99,4984.85,1707.88" stroke="rgb(255,0,59)" stroke-width="2" fill="none"></polyline>
<polyline points="2684.27,2055.03,5952.81,2004.2" stroke="rgb(0,255,50)" stroke-width="2" fill="none"></polyline>
<polyline points="2139.86,2090.38,7075.18,1008.33" stroke="rgb(0,255,144)" stroke-width="2" fill="none"></polyline>
<polyline points="2125.83,2118.75,6739.94,1465.96" stroke="rgb(0,89,255)" stroke-width="2" fill="none"></polyline>
<polyline points="1584.71,2127.7,5399.9,1365.88" stroke="rgb(153,255,0)" stroke-width="2" fill="none"></polyline>
<polyline points="2023.51,2128.1,6081.22,1701.84" stroke="rgb(255,0,204)" stroke-width="2" fill="none"></polyline>
<polyline points="1590.36,2137.82,5558.46,1243.65" stroke="rgb(72,255,0)" stroke-width="2" fill="none"></polyline>
<polyline points="1151.41,2151.4,5897.21,1872.61" stroke="rgb(255,0,169)" stroke-width="2" fill="none"></polyline>
<polyline points="2763.45,2188.11,6992.48,1915.18" stroke="rgb(187,255,0)" stroke-width="2" fill="none"></polyline>
<polyline points="2188.15,2222.62,6947.13,1649.63" stroke="rgb(255,0,85)" stroke-width="2" fill="none"></polyline>
<polyline points="2224.84,2295.22,6187.53,1830.41" stroke="rgb(0,255,186)" stroke-width="2" fill="none"></polyline>
<polyline points="2263.25,2314.58,6949.65,1640.56" stroke="rgb(221,0,255)" stroke-width="2" fill="none"></polyline>
<polyline points="1632.53,2356.44,6513.38,1711.15" stroke="rgb(0,255,165)" stroke-width="2" fill="none"></polyline>
<polyline points="1975.04,2366.22,6920.24,1684.13" stroke="rgb(0,255,89)" stroke-width="2" fill="none"></polyline>
<polyline points="1758.44,2370.19,6526.48,1915.43" stroke="rgb(255,0,80)" stroke-width="2" fill="none"></polyline>
<polyline points="1599.95,2414.05,6971.8,1414.24" stroke="rgb(255,0,174)" stroke-width="2" fill="none"></polyline>
<polyline points="1691.71,2417.47,5782.11,1608.6" stroke="rgb(250,255,0)" stroke-width="2" fill="none"></polyline>
<polyline points="1327.57,2441.32,7164.68,1520.44" stroke="rgb(255,0,114)" stroke-width="2" fill="none"></polyline>
<polyline points="2170.9,2502.64,6948.4,1877.74" stroke="rgb(110,255,0)" stroke-width="2" fill="none"></polyline>
<polyline points="2066.99,2525.21,6544.23,876.025" stroke="rgb(255,131,0)" stroke-width="2" fill="none"></polyline>
<polyline points="2230.93,2561.43,5391.63,1350.7" stroke="rgb(0,93,255)" stroke-width="2" fill="none"></polyline>
<polyline points="2001.4,2562.1,6768.97,2013.89" stroke="rgb(0,208,255)" stroke-width="2" fill="none"></polyline>
<polyline points="2019.08,2571.08,7061.4,974.314" stroke="rgb(0,255,110)" stroke-width="2" fill="none"></polyline>
<polyline points="1911.01,2643.03,5176.54,1848.84" stroke="rgb(0,140,255)" stroke-width="2" fill="none"></polyline>
<polyline points="1804.16,2655.89,6176.16,1524.49" stroke="rgb(255,0,8)" stroke-width="2" fill="none"></polyline>
<polyline points="787.731,2663.47,7437.08,1141.46" stroke="rgb(106,255,0)" stroke-width="2" fill="none"></polyline>
<polyline points="1919.59,2664.9,6910.92,1688.85" stroke="rgb(106,255,0)" stroke-width="2" fill="none"></polyline>
<polyline points="1791.35,2695.41,6591.66,1903.21" stroke="rgb(255,0,225)" stroke-width="2" fill="none"></polyline>
<polyline points="1860.48,2719.38,5852.57,1902.17" stroke="rgb(42,0,255)" stroke-width="2" fill="none"></polyline>
<polyline points="1837.5,2728.6,6705.99,1837.38" stroke="rgb(255,140,0)" stroke-width="2" fill="none"></polyline>
<polyline points="1698.45,2736.06,6295.3,791.194" stroke="rgb(255,0,191)" stroke-width="2" fill="none"></polyline>
<polyline points="1715.39,2740.67,6885.53,1957.64" stroke="rgb(0,12,255)" stroke-width="2" fill="none"></polyline>
<polyline points="1775.84,2763.26,6063.5,2016.91" stroke="rgb(0,255,191)" stroke-width="2" fill="none"></polyline>
<polyline points="1776.51,2768.42,6069.91,2041.12" stroke="rgb(46,255,0)" stroke-width="2" fill="none"></polyline>
<circle cx="1096.49" cy="804.413" r="4" stroke="rgb(0,80,255)" stroke-width="2" fill="none"></circle>
<circle cx="5977.32" cy="872.88" r="4" stroke="rgb(0,80,255)" stroke-width="2" fill="none"></circle>
<circle cx="1921.24" cy="863.131" r="4" stroke="rgb(0,25,255)" stroke-width="2" fill="none"></circle>
<circle cx="7304.42" cy="1167.65" r="4" stroke="rgb(0,25,255)" stroke-width="2" fill="none"></circle>
<circle cx="2459.54" cy="899.64" r="4" stroke="rgb(148,255,0)" stroke-width="2" fill="none"></circle>
<circle cx="6414.13" cy="1457.84" r="4" stroke="rgb(148,255,0)" stroke-width="2" fill="none"></circle>
<circle cx="2340.16" cy="937.445" r="4" stroke="rgb(0,255,250)" stroke-width="2" fill="none"></circle>
<circle cx="6778.18" cy="1967.86" r="4" stroke="rgb(0,255,250)" stroke-width="2" fill="none"></circle>
<circle cx="1463.15" cy="950.982" r="4" stroke="rgb(0,255,148)" stroke-width="2" fill="none"></circle>
<circle cx="6684.26" cy="1513.2" r="4" stroke="rgb(0,255,148)" stroke-width="2" fill="none"></circle>
<circle cx="1228.03" cy="958.922" r="4" stroke="rgb(101,255,0)" stroke-width="2" fill="none"></circle>
<circle cx="5689.09" cy="1765.73" r="4" stroke="rgb(101,255,0)" stroke-width="2" fill="none"></circle>
<circle cx="1295.63" cy="960.23" r="4" stroke="rgb(255,42,0)" stroke-width="2" fill="none"></circle>
<circle cx="5775.91" cy="1613.52" r="4" stroke="rgb(255,42,0)" stroke-width="2" fill="none"></circle>
<circle cx="1107.2" cy="960.691" r="4" stroke="rgb(165,0,255)" stroke-width="2" fill="none"></circle>
<circle cx="5254.46" cy="1889.42" r="4" stroke="rgb(165,0,255)" stroke-width="2" fill="none"></circle>
<circle cx="1958.42" cy="969.804" r="4" stroke="rgb(0,255,118)" stroke-width="2" fill="none"></circle>
<circle cx="6888.67" cy="1948.47" r="4" stroke="rgb(0,255,118)" stroke-width="2" fill="none"></circle>
<circle cx="1178.02" cy="970.266" r="4" stroke="rgb(0,93,255)" stroke-width="2" fill="none"></circle>
<circle cx="5230.61" cy="1901.93" r="4" stroke="rgb(0,93,255)" stroke-width="2" fill="none"></circle>
<circle cx="1758.8" cy="972.62" r="4" stroke="rgb(0,255,101)" stroke-width="2" fill="none"></circle>
<circle cx="5885.35" cy="1079.02" r="4" stroke="rgb(0,255,101)" stroke-width="2" fill="none"></circle>
<circle cx="2510.45" cy="975.038" r="4" stroke="rgb(0,106,255)" stroke-width="2" fill="none"></circle>
<circle cx="6429.77" cy="1705.86" r="4" stroke="rgb(0,106,255)" stroke-width="2" fill="none"></circle>
<circle cx="1341.07" cy="975.822" r="4" stroke="rgb(0,255,208)" stroke-width="2" fill="none"></circle>
<circle cx="5910.57" cy="1246.48" r="4" stroke="rgb(0,255,208)" stroke-width="2" fill="none"></circle>
<circle cx="1738.12" cy="998.091" r="4" stroke="rgb(25,0,255)" stroke-width="2" fill="none"></circle>
<circle cx="6802.49" cy="1687.69" r="4" stroke="rgb(25,0,255)" stroke-width="2" fill="none"></circle>
<circle cx="1985.65" cy="1001.69" r="4" stroke="rgb(255,51,0)" stroke-width="2" fill="none"></circle>
<circle cx="5993.02" cy="1751.83" r="4" stroke="rgb(255,51,0)" stroke-width="2" fill="none"></circle>
<circle cx="2277.25" cy="1002.66" r="4" stroke="rgb(0,255,80)" stroke-width="2" fill="none"></circle>
<circle cx="7158.16" cy="1503.32" r="4" stroke="rgb(0,255,80)" stroke-width="2" fill="none"></circle>
<circle cx="2039.55" cy="1009.14" r="4" stroke="rgb(255,216,0)" stroke-width="2" fill="none"></circle>
<circle cx="6061.68" cy="1645.47" r="4" stroke="rgb(255,216,0)" stroke-width="2" fill="none"></circle>
<circle cx="2334.16" cy="1034.39" r="4" stroke="rgb(110,255,0)" stroke-width="2" fill="none"></circle>
<circle cx="6346.37" cy="892.232" r="4" stroke="rgb(110,255,0)" stroke-width="2" fill="none"></circle>
<circle cx="2602.13" cy="1040.86" r="4" stroke="rgb(255,0,29)" stroke-width="2" fill="none"></circle>
<circle cx="5887.6" cy="1937.17" r="4" stroke="rgb(255,0,29)" stroke-width="2" fill="none"></circle>
<circle cx="2150" cy="1043.34" r="4" stroke="rgb(255,0,131)" stroke-width="2" fill="none"></circle>
<circle cx="6532.67" cy="1585.33" r="4" stroke="rgb(255,0,131)" stroke-width="2" fill="none"></circle>
<circle cx="2643.75" cy="1055.16" r="4" stroke="rgb(0,89,255)" stroke-width="2" fill="none"></circle>
<circle cx="6398.6" cy="2005.57" r="4" stroke="rgb(0,89,255)" stroke-width="2" fill="none"></circle>
<circle cx="2535.8" cy="1064.15" r="4" stroke="rgb(212,255,0)" stroke-width="2" fill="none"></circle>
<circle cx="6738.34" cy="976.815" r="4" stroke="rgb(212,255,0)" stroke-width="2" fill="none"></circle>
<circle cx="2577.5" cy="1065.99" r="4" stroke="rgb(0,255,50)" stroke-width="2" fill="none"></circle>
<circle cx="6532.9" cy="1631.34" r="4" stroke="rgb(0,255,50)" stroke-width="2" fill="none"></circle>
<circle cx="2640.59" cy="1075.75" r="4" stroke="rgb(0,203,255)" stroke-width="2" fill="none"></circle>
<circle cx="6708.62" cy="1937.82" r="4" stroke="rgb(0,203,255)" stroke-width="2" fill="none"></circle>
<circle cx="2632.87" cy="1094.04" r="4" stroke="rgb(46,255,0)" stroke-width="2" fill="none"></circle>
<circle cx="6668.93" cy="955.2" r="4" stroke="rgb(46,255,0)" stroke-width="2" fill="none"></circle>
<circle cx="587.76" cy="1096.87" r="4" stroke="rgb(0,174,255)" stroke-width="2" fill="none"></circle>
<circle cx="5745.35" cy="1574.37" r="4" stroke="rgb(0,174,255)" stroke-width="2" fill="none"></circle>
<circle cx="2911.09" cy="1100.93" r="4" stroke="rgb(208,255,0)" stroke-width="2" fill="none"></circle>
<circle cx="6051.48" cy="1562.62" r="4" stroke="rgb(208,255,0)" stroke-width="2" fill="none"></circle>
<circle cx="2679.69" cy="1101.37" r="4" stroke="rgb(0,140,255)" stroke-width="2" fill="none"></circle>
<circle cx="6539.3" cy="1875.02" r="4" stroke="rgb(0,140,255)" stroke-width="2" fill="none"></circle>
<circle cx="2647.98" cy="1101.59" r="4" stroke="rgb(255,212,0)" stroke-width="2" fill="none"></circle>
<circle cx="6644.5" cy="897.339" r="4" stroke="rgb(255,212,0)" stroke-width="2" fill="none"></circle>
<circle cx="593.518" cy="1106.87" r="4" stroke="rgb(0,255,21)" stroke-width="2" fill="none"></circle>
<circle cx="5875.22" cy="1723.83" r="4" stroke="rgb(0,255,21)" stroke-width="2" fill="none"></circle>
<circle cx="2450.68" cy="1151.02" r="4" stroke="rgb(0,97,255)" stroke-width="2" fill="none"></circle>
<circle cx="7132.2" cy="849.99" r="4" stroke="rgb(0,97,255)" stroke-width="2" fill="none"></circle>
<circle cx="2895.3" cy="1157.43" r="4" stroke="rgb(135,0,255)" stroke-width="2" fill="none"></circle>
<circle cx="5300.71" cy="1556.61" r="4" stroke="rgb(135,0,255)" stroke-width="2" fill="none"></circle>
<circle cx="1939.4" cy="1163.28" r="4" stroke="rgb(0,38,255)" stroke-width="2" fill="none"></circle>
<circle cx="6621.57" cy="1528.43" r="4" stroke="rgb(0,38,255)" stroke-width="2" fill="none"></circle>
<circle cx="2146.45" cy="1169.71" r="4" stroke="rgb(255,0,246)" stroke-width="2" fill="none"></circle>
<circle cx="6401.89" cy="1669.41" r="4" stroke="rgb(255,0,246)" stroke-width="2" fill="none"></circle>
<circle cx="2455.95" cy="1169.76" r="4" stroke="rgb(255,0,157)" stroke-width="2" fill="none"></circle>
<circle cx="5554.07" cy="1573.64" r="4" stroke="rgb(255,0,157)" stroke-width="2" fill="none"></circle>
<circle cx="1268.72" cy="1179.78" r="4" stroke="rgb(255,114,0)" stroke-width="2" fill="none"></circle>
<circle cx="5681.27" cy="1743.71" r="4" stroke="rgb(255,114,0)" stroke-width="2" fill="none"></circle>
<circle cx="1016.09" cy="1253.49" r="4" stroke="rgb(127,0,255)" stroke-width="2" fill="none"></circle>
<circle cx="7493.13" cy="1222.95" r="4" stroke="rgb(127,0,255)" stroke-width="2" fill="none"></circle>
<circle cx="2131.9" cy="1256.04" r="4" stroke="rgb(255,0,114)" stroke-width="2" fill="none"></circle>
<circle cx="6580.78" cy="1890.35" r="4" stroke="rgb(255,0,114)" stroke-width="2" fill="none"></circle>
<circle cx="2052.48" cy="1280.7" r="4" stroke="rgb(0,255,246)" stroke-width="2" fill="none"></circle>
<circle cx="6184.11" cy="1623.8" r="4" stroke="rgb(0,255,246)" stroke-width="2" fill="none"></circle>
<circle cx="1013.89" cy="1281.15" r="4" stroke="rgb(255,246,0)" stroke-width="2" fill="none"></circle>
<circle cx="5494.6" cy="1514.11" r="4" stroke="rgb(255,246,0)" stroke-width="2" fill="none"></circle>
<circle cx="2094.14" cy="1292.32" r="4" stroke="rgb(242,255,0)" stroke-width="2" fill="none"></circle>
<circle cx="6445.05" cy="1590.12" r="4" stroke="rgb(242,255,0)" stroke-width="2" fill="none"></circle>
<circle cx="1776.29" cy="1294.39" r="4" stroke="rgb(0,195,255)" stroke-width="2" fill="none"></circle>
<circle cx="5519.3" cy="1288.1" r="4" stroke="rgb(0,195,255)" stroke-width="2" fill="none"></circle>
<circle cx="1250.22" cy="1297.56" r="4" stroke="rgb(144,0,255)" stroke-width="2" fill="none"></circle>
<circle cx="5273.65" cy="1936.07" r="4" stroke="rgb(144,0,255)" stroke-width="2" fill="none"></circle>
<circle cx="773.192" cy="1298.26" r="4" stroke="rgb(0,29,255)" stroke-width="2" fill="none"></circle>
<circle cx="5750.62" cy="1553.05" r="4" stroke="rgb(0,29,255)" stroke-width="2" fill="none"></circle>
<circle cx="1793.23" cy="1325.81" r="4" stroke="rgb(255,0,204)" stroke-width="2" fill="none"></circle>
<circle cx="5669.22" cy="1375.42" r="4" stroke="rgb(255,0,204)" stroke-width="2" fill="none"></circle>
<circle cx="2185.86" cy="1335.36" r="4" stroke="rgb(0,255,161)" stroke-width="2" fill="none"></circle>
<circle cx="6470.16" cy="1982.85" r="4" stroke="rgb(0,255,161)" stroke-width="2" fill="none"></circle>
<circle cx="1954.79" cy="1338.58" r="4" stroke="rgb(255,51,0)" stroke-width="2" fill="none"></circle>
<circle cx="5868.94" cy="2007.95" r="4" stroke="rgb(255,51,0)" stroke-width="2" fill="none"></circle>
<circle cx="2247.01" cy="1345.84" r="4" stroke="rgb(255,12,0)" stroke-width="2" fill="none"></circle>
<circle cx="6494.62" cy="1704.92" r="4" stroke="rgb(255,12,0)" stroke-width="2" fill="none"></circle>
<circle cx="2461.58" cy="1399.52" r="4" stroke="rgb(0,255,16)" stroke-width="2" fill="none"></circle>
<circle cx="6018.38" cy="2019.28" r="4" stroke="rgb(0,255,16)" stroke-width="2" fill="none"></circle>
<circle cx="2082.88" cy="1412.54" r="4" stroke="rgb(255,21,0)" stroke-width="2" fill="none"></circle>
<circle cx="6849.61" cy="1743.66" r="4" stroke="rgb(255,21,0)" stroke-width="2" fill="none"></circle>
<circle cx="2175.57" cy="1438.82" r="4" stroke="rgb(0,153,255)" stroke-width="2" fill="none"></circle>
<circle cx="6924.51" cy="1934.06" r="4" stroke="rgb(0,153,255)" stroke-width="2" fill="none"></circle>
<circle cx="2177.61" cy="1453.98" r="4" stroke="rgb(255,0,68)" stroke-width="2" fill="none"></circle>
<circle cx="6452.02" cy="1493.21" r="4" stroke="rgb(255,0,68)" stroke-width="2" fill="none"></circle>
<circle cx="1044.55" cy="1459.49" r="4" stroke="rgb(255,0,225)" stroke-width="2" fill="none"></circle>
<circle cx="5750.11" cy="1422.92" r="4" stroke="rgb(255,0,225)" stroke-width="2" fill="none"></circle>
<circle cx="2236.98" cy="1467.82" r="4" stroke="rgb(255,0,101)" stroke-width="2" fill="none"></circle>
<circle cx="6603.34" cy="1619.05" r="4" stroke="rgb(255,0,101)" stroke-width="2" fill="none"></circle>
<circle cx="2573.28" cy="1480.19" r="4" stroke="rgb(255,204,0)" stroke-width="2" fill="none"></circle>
<circle cx="6177.72" cy="1669.97" r="4" stroke="rgb(255,204,0)" stroke-width="2" fill="none"></circle>
<circle cx="3019.37" cy="1481.98" r="4" stroke="rgb(203,0,255)" stroke-width="2" fill="none"></circle>
<circle cx="5993.91" cy="1882.2" r="4" stroke="rgb(203,0,255)" stroke-width="2" fill="none"></circle>
<circle cx="2586.78" cy="1489.52" r="4" stroke="rgb(255,204,0)" stroke-width="2" fill="none"></circle>
<circle cx="6732.45" cy="935.096" r="4" stroke="rgb(255,204,0)" stroke-width="2" fill="none"></circle>
<circle cx="1838.05" cy="1507.08" r="4" stroke="rgb(0,255,0)" stroke-width="2" fill="none"></circle>
<circle cx="6285.98" cy="1899.35" r="4" stroke="rgb(0,255,0)" stroke-width="2" fill="none"></circle>
<circle cx="2195.74" cy="1521.2" r="4" stroke="rgb(0,255,63)" stroke-width="2" fill="none"></circle>
<circle cx="6924.45" cy="1474.25" r="4" stroke="rgb(0,255,63)" stroke-width="2" fill="none"></circle>
<circle cx="3028.14" cy="1561.89" r="4" stroke="rgb(255,0,127)" stroke-width="2" fill="none"></circle>
<circle cx="6648.35" cy="1973.77" r="4" stroke="rgb(255,0,127)" stroke-width="2" fill="none"></circle>
<circle cx="1533.01" cy="1604.86" r="4" stroke="rgb(21,0,255)" stroke-width="2" fill="none"></circle>
<circle cx="6404.05" cy="1572.87" r="4" stroke="rgb(21,0,255)" stroke-width="2" fill="none"></circle>
<circle cx="2235.62" cy="1614.67" r="4" stroke="rgb(0,67,255)" stroke-width="2" fill="none"></circle>
<circle cx="6416.78" cy="1471.21" r="4" stroke="rgb(0,67,255)" stroke-width="2" fill="none"></circle>
<circle cx="2231.91" cy="1621.8" r="4" stroke="rgb(25,255,0)" stroke-width="2" fill="none"></circle>
<circle cx="6741.36" cy="1486.24" r="4" stroke="rgb(25,255,0)" stroke-width="2" fill="none"></circle>
<circle cx="1652.15" cy="1706.02" r="4" stroke="rgb(12,255,0)" stroke-width="2" fill="none"></circle>
<circle cx="6754.86" cy="1743.37" r="4" stroke="rgb(12,255,0)" stroke-width="2" fill="none"></circle>
<circle cx="2332.8" cy="1728.13" r="4" stroke="rgb(0,255,199)" stroke-width="2" fill="none"></circle>
<circle cx="6146.39" cy="1366.21" r="4" stroke="rgb(0,255,199)" stroke-width="2" fill="none"></circle>
<circle cx="1556.64" cy="1740.71" r="4" stroke="rgb(182,255,0)" stroke-width="2" fill="none"></circle>
<circle cx="7034.19" cy="1016.01" r="4" stroke="rgb(182,255,0)" stroke-width="2" fill="none"></circle>
<circle cx="2262.47" cy="1781.5" r="4" stroke="rgb(255,68,0)" stroke-width="2" fill="none"></circle>
<circle cx="6398.9" cy="1443.24" r="4" stroke="rgb(255,68,0)" stroke-width="2" fill="none"></circle>
<circle cx="2123.72" cy="1901.67" r="4" stroke="rgb(182,255,0)" stroke-width="2" fill="none"></circle>
<circle cx="7104.25" cy="1750.9" r="4" stroke="rgb(182,255,0)" stroke-width="2" fill="none"></circle>
<circle cx="1304.52" cy="1950.94" r="4" stroke="rgb(182,0,255)" stroke-width="2" fill="none"></circle>
<circle cx="5336.52" cy="1476.06" r="4" stroke="rgb(182,0,255)" stroke-width="2" fill="none"></circle>
<circle cx="1295.87" cy="1986.38" r="4" stroke="rgb(229,255,0)" stroke-width="2" fill="none"></circle>
<circle cx="7132.98" cy="1600.7" r="4" stroke="rgb(229,255,0)" stroke-width="2" fill="none"></circle>
<circle cx="1193.24" cy="2003.87" r="4" stroke="rgb(255,34,0)" stroke-width="2" fill="none"></circle>
<circle cx="6111.91" cy="2006.77" r="4" stroke="rgb(255,34,0)" stroke-width="2" fill="none"></circle>
<circle cx="2736.44" cy="2014.99" r="4" stroke="rgb(255,0,59)" stroke-width="2" fill="none"></circle>
<circle cx="4984.85" cy="1707.88" r="4" stroke="rgb(255,0,59)" stroke-width="2" fill="none"></circle>
<circle cx="2684.27" cy="2055.03" r="4" stroke="rgb(0,255,50)" stroke-width="2" fill="none"></circle>
<circle cx="5952.81" cy="2004.2" r="4" stroke="rgb(0,255,50)" stroke-width="2" fill="none"></circle>
<circle cx="2139.86" cy="2090.38" r="4" stroke="rgb(0,255,144)" stroke-width="2" fill="none"></circle>
<circle cx="7075.18" cy="1008.33" r="4" stroke="rgb(0,255,144)" stroke-width="2" fill="none"></circle>
<circle cx="2125.83" cy="2118.75" r="4" stroke="rgb(0,89,255)" stroke-width="2" fill="none"></circle>
<circle cx="6739.94" cy="1465.96" r="4" stroke="rgb(0,89,255)" stroke-width="2" fill="none"></circle>
<circle cx="1584.71" cy="2127.7" r="4" stroke="rgb(153,255,0)" stroke-width="2" fill="none"></circle>
<circle cx="5399.9" cy="1365.88" r="4" stroke="rgb(153,255,0)" stroke-width="2" fill="none"></circle>
<circle cx="2023.51" cy="2128.1" r="4" stroke="rgb(255,0,204)" stroke-width="2" fill="none"></circle>
<circle cx="6081.22" cy="1701.84" r="4" stroke="rgb(255,0,204)" stroke-width="2" fill="none"></circle>
<circle cx="1590.36" cy="2137.82" r="4" stroke="rgb(72,255,0)" stroke-width="2" fill="none"></circle>
<circle cx="5558.46" cy="1243.65" r="4" stroke="rgb(72,255,0)" stroke-width="2" fill="none"></circle>
<circle cx="1151.41" cy="2151.4" r="4" stroke="rgb(255,0,169)" stroke-width="2" fill="none"></circle>
<circle cx="5897.21" cy="1872.61" r="4" stroke="rgb(255,0,169)" stroke-width="2" fill="none"></circle>
<circle cx="2763.45" cy="2188.11" r="4" stroke="rgb(187,255,0)" stroke-width="2" fill="none"></circle>
<circle cx="6992.48" cy="1915.18" r="4" stroke="rgb(187,255,0)" stroke-width="2" fill="none"></circle>
<circle cx="2188.15" cy="2222.62" r="4" stroke="rgb(255,0,85)" stroke-width="2" fill="none"></circle>
<circle cx="6947.13" cy="1649.63" r="4" stroke="rgb(255,0,85)" stroke-width="2" fill="none"></circle>
<circle cx="2224.84" cy="2295.22" r="4" stroke="rgb(0,255,186)" stroke-width="2" fill="none"></circle>
<circle cx="6187.53" cy="1830.41" r="4" stroke="rgb(0,255,186)" stroke-width="2" fill="none"></circle>
<circle cx="2263.25" cy="2314.58" r="4" stroke="rgb(221,0,255)" stroke-width="2" fill="none"></circle>
<circle cx="6949.65" cy="1640.56" r="4" stroke="rgb(221,0,255)" stroke-width="2" fill="none"></circle>
<circle cx="1632.53" cy="2356.44" r="4" stroke="rgb(0,255,165)" stroke-width="2" fill="none"></circle>
<circle cx="6513.38" cy="1711.15" r="4" stroke="rgb(0,255,165)" stroke-width="2" fill="none"></circle>
<circle cx="1975.04" cy="2366.22" r="4" stroke="rgb(0,255,89)" stroke-width="2" fill="none"></circle>
<circle cx="6920.24" cy="1684.13" r="4" stroke="rgb(0,255,89)" stroke-width="2" fill="none"></circle>
<circle cx="1758.44" cy="2370.19" r="4" stroke="rgb(255,0,80)" stroke-width="2" fill="none"></circle>
<circle cx="6526.48" cy="1915.43" r="4" stroke="rgb(255,0,80)" stroke-width="2" fill="none"></circle>
<circle cx="1599.95" cy="2414.05" r="4" stroke="rgb(255,0,174)" stroke-width="2" fill="none"></circle>
<circle cx="6971.8" cy="1414.24" r="4" stroke="rgb(255,0,174)" stroke-width="2" fill="none"></circle>
<circle cx="1691.71" cy="2417.47" r="4" stroke="rgb(250,255,0)" stroke-width="2" fill="none"></circle>
<circle cx="5782.11" cy="1608.6" r="4" stroke="rgb(250,255,0)" stroke-width="2" fill="none"></circle>
<circle cx="1327.57" cy="2441.32" r="4" stroke="rgb(255,0,114)" stroke-width="2" fill="none"></circle>
<circle cx="7164.68" cy="1520.44" r="4" stroke="rgb(255,0,114)" stroke-width="2" fill="none"></circle>
<circle cx="2170.9" cy="2502.64" r="4" stroke="rgb(110,255,0)" stroke-width="2" fill="none"></circle>
<circle cx="6948.4" cy="1877.74" r="4" stroke="rgb(110,255,0)" stroke-width="2" fill="none"></circle>
<circle cx="2066.99" cy="2525.21" r="4" stroke="rgb(255,131,0)" stroke-width="2" fill="none"></circle>
<circle cx="6544.23" cy="876.025" r="4" stroke="rgb(255,131,0)" stroke-width="2" fill="none"></circle>
<circle cx="2230.93" cy="2561.43" r="4" stroke="rgb(0,93,255)" stroke-width="2" fill="none"></circle>
<circle cx="5391.63" cy="1350.7" r="4" stroke="rgb(0,93,255)" stroke-width="2" fill="none"></circle>
<circle cx="2001.4" cy="2562.1" r="4" stroke="rgb(0,208,255)" stroke-width="2" fill="none"></circle>
<circle cx="6768.97" cy="2013.89" r="4" stroke="rgb(0,208,255)" stroke-width="2" fill="none"></circle>
<circle cx="2019.08" cy="2571.08" r="4" stroke="rgb(0,255,110)" stroke-width="2" fill="none"></circle>
<circle cx="7061.4" cy="974.314" r="4" stroke="rgb(0,255,110)" stroke-width="2" fill="none"></circle>
<circle cx="1911.01" cy="2643.03" r="4" stroke="rgb(0,140,255)" stroke-width="2" fill="none"></circle>
<circle cx="5176.54" cy="1848.84" r="4" stroke="rgb(0,140,255)" stroke-width="2" fill="none"></circle>
<circle cx="1804.16" cy="2655.89" r="4" stroke="rgb(255,0,8)" stroke-width="2" fill="none"></circle>
<circle cx="6176.16" cy="1524.49" r="4" stroke="rgb(255,0,8)" stroke-width="2" fill="none"></circle>
<circle cx="787.731" cy="2663.47" r="4" stroke="rgb(106,255,0)" stroke-width="2" fill="none"></circle>
<circle cx="7437.08" cy="1141.46" r="4" stroke="rgb(106,255,0)" stroke-width="2" fill="none"></circle>
<circle cx="1919.59" cy="2664.9" r="4" stroke="rgb(106,255,0)" stroke-width="2" fill="none"></circle>
<circle cx="6910.92" cy="1688.85" r="4" stroke="rgb(106,255,0)" stroke-width="2" fill="none"></circle>
<circle cx="1791.35" cy="2695.41" r="4" stroke="rgb(255,0,225)" stroke-width="2" fill="none"></circle>
<circle cx="6591.66" cy="1903.21" r="4" stroke="rgb(255,0,225)" stroke-width="2" fill="none"></circle>
<circle cx="1860.48" cy="2719.38" r="4" stroke="rgb(42,0,255)" stroke-width="2" fill="none"></circle>
<circle cx="5852.57" cy="1902.17" r="4" stroke="rgb(42,0,255)" stroke-width="2" fill="none"></circle>
<circle cx="1837.5" cy="2728.6" r="4" stroke="rgb(255,140,0)" stroke-width="2" fill="none"></circle>
<circle cx="6705.99" cy="1837.38" r="4" stroke="rgb(255,140,0)" stroke-width="2" fill="none"></circle>
<circle cx="1698.45" cy="2736.06" r="4" stroke="rgb(255,0,191)" stroke-width="2" fill="none"></circle>
<circle cx="6295.3" cy="791.194" r="4" stroke="rgb(255,0,191)" stroke-width="2" fill="none"></circle>
<circle cx="1715.39" cy="2740.67" r="4" stroke="rgb(0,12,255)" stroke-width="2" fill="none"></circle>
<circle cx="6885.53" cy="1957.64" r="4" stroke="rgb(0,12,255)" stroke-width="2" fill="none"></circle>
<circle cx="1775.84" cy="2763.26" r="4" stroke="rgb(0,255,191)" stroke-width="2" fill="none"></circle>
<circle cx="6063.5" cy="2016.91" r="4" stroke="rgb(0,255,191)" stroke-width="2" fill="none"></circle>
<circle cx="1776.51" cy="2768.42" r="4" stroke="rgb(46,255,0)" stroke-width="2" fill="none"></circle>
<circle cx="6069.91" cy="2041.12" r="4" stroke="rgb(46,255,0)" stroke-width="2" fill="none"></circle>
</svg>