<?xml version="1.0" standalone="yes"?>
<!-- SVG graphic -->
<svg xmlns='http://www.w3.org/2000/svg' xmlns:xlink='http://www.w3.org/1999/xlink'
width="8064px" height="3024px" preserveAspectRatio="xMinYMin meet" viewBox="0 0 8064 3024" version="1.1">
<image x="0" y="0" width="4032px" height="3024px" opacity="1" xlink:href="/home/jeong/Code/2D-to-3D-Modeling-using-AI/Make3D/Image/20200227_180625.jpg"/>
<image x="4032" y="0" width="4032px" height="3024px" opacity="1" xlink:href="/home/jeong/Code/2D-to-3D-Modeling-using-AI/Make3D/Image/20200227_180717.jpg"/>
<polyline points="2265.35,1581.01,6456.62,680.24" stroke="rgb(0,135,255)" stroke-width="2" fill="none"></polyline>
<polyline points="2265.35,1581.01,6456.62,680.24" stroke="rgb(255,136,0)" stroke-width="2" fill="none"></polyline>
<polyline points="1655.5,1773.59,5737.52,1323.61" stroke="rgb(254,0,255)" stroke-width="2" fill="none"></polyline>
<polyline points="3053.67,1118.71,5804.02,837.169" stroke="rgb(0,255,144)" stroke-width="2" fill="none"></polyline>
<polyline points="1083.96,1623.91,5555.44,868.361" stroke="rgb(0,255,254)" stroke-width="2" fill="none"></polyline>
<polyline points="2237.82,1335.95,6043.89,1359.36" stroke="rgb(255,0,165)" stroke-width="2" fill="none"></polyline>
<polyline points="2385.55,1551.51,6421.88,957.133" stroke="rgb(255,0,174)" stroke-width="2" fill="none"></polyline>
<polyline points="2354.31,2246.55,6018.36,965.978" stroke="rgb(46,0,255)" stroke-width="2" fill="none"></polyline>
<polyline points="2318.12,1297.4,6338.21,999.544" stroke="rgb(0,255,216)" stroke-width="2" fill="none"></polyline>
<polyline points="2341.33,1326,6596.73,1016.6" stroke="rgb(153,0,255)" stroke-width="2" fill="none"></polyline>
<polyline points="1464.38,1659.34,5285.86,1392.29" stroke="rgb(0,255,42)" stroke-width="2" fill="none"></polyline>
<polyline points="2144.96,1219.68,6247.7,1399.08" stroke="rgb(0,119,255)" stroke-width="2" fill="none"></polyline>
<polyline points="2189.47,1547.21,6041.02,1047.4" stroke="rgb(46,0,255)" stroke-width="2" fill="none"></polyline>
<polyline points="2326.55,1535.65,6202.65,1415.97" stroke="rgb(195,0,255)" stroke-width="2" fill="none"></polyline>
<polyline points="1435.5,1953.53,5300.48,1134.82" stroke="rgb(255,0,110)" stroke-width="2" fill="none"></polyline>
<polyline points="1427.24,2158.08,5331.05,1170.69" stroke="rgb(255,0,199)" stroke-width="2" fill="none"></polyline>
<polyline points="2197.72,1297.8,6173.09,1175.28" stroke="rgb(0,178,255)" stroke-width="2" fill="none"></polyline>
<polyline points="1646.69,1746.67,5258.17,1212.7" stroke="rgb(254,0,255)" stroke-width="2" fill="none"></polyline>
<polyline points="2309,1839.75,6187.84,1188.41" stroke="rgb(161,0,255)" stroke-width="2" fill="none"></polyline>
<polyline points="2233.15,1958.15,6351.6,1205.54" stroke="rgb(255,182,0)" stroke-width="2" fill="none"></polyline>
<polyline points="2233.15,1958.15,6386.55,1205.59" stroke="rgb(0,216,255)" stroke-width="2" fill="none"></polyline>
<polyline points="1096.87,1617.05,6590.86,1225.35" stroke="rgb(255,0,8)" stroke-width="2" fill="none"></polyline>
<polyline points="2560.26,1107.25,6185.18,1569.21" stroke="rgb(0,255,242)" stroke-width="2" fill="none"></polyline>
<polyline points="2346.26,1275.18,6130,1240.42" stroke="rgb(97,0,255)" stroke-width="2" fill="none"></polyline>
<polyline points="2346.26,1275.18,6130,1240.42" stroke="rgb(148,255,0)" stroke-width="2" fill="none"></polyline>
<polyline points="2146.03,1230.13,6140.92,1269.44" stroke="rgb(255,8,0)" stroke-width="2" fill="none"></polyline>
<polyline points="2200.85,1600.04,5548.66,1713.98" stroke="rgb(225,255,0)" stroke-width="2" fill="none"></polyline>
<polyline points="2118.97,1156.34,5548.66,1713.98" stroke="rgb(51,255,0)" stroke-width="2" fill="none"></polyline>
<polyline points="1392.13,2132.02,5294.02,1285.35" stroke="rgb(178,0,255)" stroke-width="2" fill="none"></polyline>
<polyline points="2317.74,1692.19,6218.58,1725.77" stroke="rgb(255,4,0)" stroke-width="2" fill="none"></polyline>
<polyline points="2167.17,1627.91,6224.75,1771.68" stroke="rgb(255,59,0)" stroke-width="2" fill="none"></polyline>
<polyline points="2198.71,1319.94,6084.63,1385.91" stroke="rgb(0,255,42)" stroke-width="2" fill="none"></polyline>
<polyline points="1527.98,2504.13,6278.75,1815.58" stroke="rgb(255,140,0)" stroke-width="2" fill="none"></polyline>
<polyline points="2397.17,1589.07,6093.06,1374.92" stroke="rgb(255,0,195)" stroke-width="2" fill="none"></polyline>
<polyline points="2291.56,1931.05,6045.29,1393.46" stroke="rgb(0,255,152)" stroke-width="2" fill="none"></polyline>
<polyline points="2209.26,1672.28,6114.68,1584.98" stroke="rgb(148,255,0)" stroke-width="2" fill="none"></polyline>
<polyline points="2177.18,2510.02,5617.26,1615.24" stroke="rgb(0,255,118)" stroke-width="2" fill="none"></polyline>
<polyline points="2385.55,1551.51,5665.23,1691.29" stroke="rgb(21,255,0)" stroke-width="2" fill="none"></polyline>
<polyline points="2185.68,2430.77,5421.5,1712.92" stroke="rgb(255,0,97)" stroke-width="2" fill="none"></polyline>
<polyline points="1622.16,1958.46,6648,1387.41" stroke="rgb(0,208,255)" stroke-width="2" fill="none"></polyline>
<polyline points="2258.1,2076.33,6162.23,547.118" stroke="rgb(102,0,255)" stroke-width="2" fill="none"></polyline>
<polyline points="3101.81,1200.82,5456.58,1152.56" stroke="rgb(255,0,89)" stroke-width="2" fill="none"></polyline>
<polyline points="1478.84,2111.36,5325.41,1129.34" stroke="rgb(255,182,0)" stroke-width="2" fill="none"></polyline>
<polyline points="2107.57,1209.05,5986.73,1026.63" stroke="rgb(0,255,148)" stroke-width="2" fill="none"></polyline>
<polyline points="2195.43,1938.82,5732.64,1537.34" stroke="rgb(110,0,255)" stroke-width="2" fill="none"></polyline>
<polyline points="2373.49,1548.32,6100.34,916.039" stroke="rgb(38,0,255)" stroke-width="2" fill="none"></polyline>
<polyline points="1664.84,1776.24,5271.23,1192.48" stroke="rgb(255,0,85)" stroke-width="2" fill="none"></polyline>
<polyline points="2892.6,1085.22,6139.14,1243.26" stroke="rgb(255,0,101)" stroke-width="2" fill="none"></polyline>
<polyline points="2862.5,819.553,6301.94,1789.24" stroke="rgb(0,212,255)" stroke-width="2" fill="none"></polyline>
<polyline points="2209.26,1672.28,6112.16,1586.01" stroke="rgb(0,255,42)" stroke-width="2" fill="none"></polyline>
<polyline points="1346.1,2126.7,4862.33,2050.88" stroke="rgb(46,0,255)" stroke-width="2" fill="none"></polyline>
<polyline points="954.234,817.128,5798.21,273.699" stroke="rgb(46,0,255)" stroke-width="2" fill="none"></polyline>
<polyline points="1491.07,2435.97,6006.69,513.636" stroke="rgb(0,255,33)" stroke-width="2" fill="none"></polyline>
<polyline points="2044.74,1923.42,6265.26,1571.63" stroke="rgb(221,255,0)" stroke-width="2" fill="none"></polyline>
<polyline points="2326.55,1535.65,5936.94,1125.12" stroke="rgb(255,110,0)" stroke-width="2" fill="none"></polyline>
<polyline points="2858.62,1122.73,5348.3,1297.88" stroke="rgb(148,255,0)" stroke-width="2" fill="none"></polyline>
<polyline points="1893.18,2419.37,5553.92,1739.72" stroke="rgb(255,0,242)" stroke-width="2" fill="none"></polyline>
<circle cx="2265.35" cy="1581.01" r="4" stroke="rgb(0,135,255)" stroke-width="2" fill="none"></circle>
<circle cx="6456.62" cy="680.24" r="4" stroke="rgb(0,135,255)" stroke-width="2" fill="none"></circle>
<circle cx="2265.35" cy="1581.01" r="4" stroke="rgb(255,136,0)" stroke-width="2" fill="none"></circle>
<circle cx="6456.62" cy="680.24" r="4" stroke="rgb(255,136,0)" stroke-width="2" fill="none"></circle>
<circle cx="1655.5" cy="1773.59" r="4" stroke="rgb(254,0,255)" stroke-width="2" fill="none"></circle>
<circle cx="5737.52" cy="1323.61" r="4" stroke="rgb(254,0,255)" stroke-width="2" fill="none"></circle>
<circle cx="3053.67" cy="1118.71" r="4" stroke="rgb(0,255,144)" stroke-width="2" fill="none"></circle>
<circle cx="5804.02" cy="837.169" r="4" stroke="rgb(0,255,144)" stroke-width="2" fill="none"></circle>
<circle cx="1083.96" cy="1623.91" r="4" stroke="rgb(0,255,254)" stroke-width="2" fill="none"></circle>
<circle cx="5555.44" cy="868.361" r="4" stroke="rgb(0,255,254)" stroke-width="2" fill="none"></circle>
<circle cx="2237.82" cy="1335.95" r="4" stroke="rgb(255,0,165)" stroke-width="2" fill="none"></circle>
<circle cx="6043.89" cy="1359.36" r="4" stroke="rgb(255,0,165)" stroke-width="2" fill="none"></circle>
<circle cx="2385.55" cy="1551.51" r="4" stroke="rgb(255,0,174)" stroke-width="2" fill="none"></circle>
<circle cx="6421.88" cy="957.133" r="4" stroke="rgb(255,0,174)" stroke-width="2" fill="none"></circle>
<circle cx="2354.31" cy="2246.55" r="4" stroke="rgb(46,0,255)" stroke-width="2" fill="none"></circle>
<circle cx="6018.36" cy="965.978" r="4" stroke="rgb(46,0,255)" stroke-width="2" fill="none"></circle>
<circle cx="2318.12" cy="1297.4" r="4" stroke="rgb(0,255,216)" stroke-width="2" fill="none"></circle>
<circle cx="6338.21" cy="999.544" r="4" stroke="rgb(0,255,216)" stroke-width="2" fill="none"></circle>
<circle cx="2341.33" cy="1326" r="4" stroke="rgb(153,0,255)" stroke-width="2" fill="none"></circle>
<circle cx="6596.73" cy="1016.6" r="4" stroke="rgb(153,0,255)" stroke-width="2" fill="none"></circle>
<circle cx="1464.38" cy="1659.34" r="4" stroke="rgb(0,255,42)" stroke-width="2" fill="none"></circle>
<circle cx="5285.86" cy="1392.29" r="4" stroke="rgb(0,255,42)" stroke-width="2" fill="none"></circle>
<circle cx="2144.96" cy="1219.68" r="4" stroke="rgb(0,119,255)" stroke-width="2" fill="none"></circle>
<circle cx="6247.7" cy="1399.08" r="4" stroke="rgb(0,119,255)" stroke-width="2" fill="none"></circle>
<circle cx="2189.47" cy="1547.21" r="4" stroke="rgb(46,0,255)" stroke-width="2" fill="none"></circle>
<circle cx="6041.02" cy="1047.4" r="4" stroke="rgb(46,0,255)" stroke-width="2" fill="none"></circle>
<circle cx="2326.55" cy="1535.65" r="4" stroke="rgb(195,0,255)" stroke-width="2" fill="none"></circle>
<circle cx="6202.65" cy="1415.97" r="4" stroke="rgb(195,0,255)" stroke-width="2" fill="none"></circle>
<circle cx="1435.5" cy="1953.53" r="4" stroke="rgb(255,0,110)" stroke-width="2" fill="none"></circle>
<circle cx="5300.48" cy="1134.82" r="4" stroke="rgb(255,0,110)" stroke-width="2" fill="none"></circle>
<circle cx="1427.24" cy="2158.08" r="4" stroke="rgb(255,0,199)" stroke-width="2" fill="none"></circle>
<circle cx="5331.05" cy="1170.69" r="4" stroke="rgb(255,0,199)" stroke-width="2" fill="none"></circle>
<circle cx="2197.72" cy="1297.8" r="4" stroke="rgb(0,178,255)" stroke-width="2" fill="none"></circle>
<circle cx="6173.09" cy="1175.28" r="4" stroke="rgb(0,178,255)" stroke-width="2" fill="none"></circle>
<circle cx="1646.69" cy="1746.67" r="4" stroke="rgb(254,0,255)" stroke-width="2" fill="none"></circle>
<circle cx="5258.17" cy="1212.7" r="4" stroke="rgb(254,0,255)" stroke-width="2" fill="none"></circle>
<circle cx="2309" cy="1839.75" r="4" stroke="rgb(161,0,255)" stroke-width="2" fill="none"></circle>
<circle cx="6187.84" cy="1188.41" r="4" stroke="rgb(161,0,255)" stroke-width="2" fill="none"></circle>
<circle cx="2233.15" cy="1958.15" r="4" stroke="rgb(255,182,0)" stroke-width="2" fill="none"></circle>
<circle cx="6351.6" cy="1205.54" r="4" stroke="rgb(255,182,0)" stroke-width="2" fill="none"></circle>
<circle cx="2233.15" cy="1958.15" r="4" stroke="rgb(0,216,255)" stroke-width="2" fill="none"></circle>
<circle cx="6386.55" cy="1205.59" r="4" stroke="rgb(0,216,255)" stroke-width="2" fill="none"></circle>
<circle cx="1096.87" cy="1617.05" r="4" stroke="rgb(255,0,8)" stroke-width="2" fill="none"></circle>
<circle cx="6590.86" cy="1225.35" r="4" stroke="rgb(255,0,8)" stroke-width="2" fill="none"></circle>
<circle cx="2560.26" cy="1107.25" r="4" stroke="rgb(0,255,242)" stroke-width="2" fill="none"></circle>
<circle cx="6185.18" cy="1569.21" r="4" stroke="rgb(0,255,242)" stroke-width="2" fill="none"></circle>
<circle cx="2346.26" cy="1275.18" r="4" stroke="rgb(97,0,255)" stroke-width="2" fill="none"></circle>
<circle cx="6130" cy="1240.42" r="4" stroke="rgb(97,0,255)" stroke-width="2" fill="none"></circle>
<circle cx="2346.26" cy="1275.18" r="4" stroke="rgb(148,255,0)" stroke-width="2" fill="none"></circle>
<circle cx="6130" cy="1240.42" r="4" stroke="rgb(148,255,0)" stroke-width="2" fill="none"></circle>
<circle cx="2146.03" cy="1230.13" r="4" stroke="rgb(255,8,0)" stroke-width="2" fill="none"></circle>
<circle cx="6140.92" cy="1269.44" r="4" stroke="rgb(255,8,0)" stroke-width="2" fill="none"></circle>
<circle cx="2200.85" cy="1600.04" r="4" stroke="rgb(225,255,0)" stroke-width="2" fill="none"></circle>
<circle cx="5548.66" cy="1713.98" r="4" stroke="rgb(225,255,0)" stroke-width="2" fill="none"></circle>
<circle cx="2118.97" cy="1156.34" r="4" stroke="rgb(51,255,0)" stroke-width="2" fill="none"></circle>
<circle cx="5548.66" cy="1713.98" r="4" stroke="rgb(51,255,0)" stroke-width="2" fill="none"></circle>
<circle cx="1392.13" cy="2132.02" r="4" stroke="rgb(178,0,255)" stroke-width="2" fill="none"></circle>
<circle cx="5294.02" cy="1285.35" r="4" stroke="rgb(178,0,255)" stroke-width="2" fill="none"></circle>
<circle cx="2317.74" cy="1692.19" r="4" stroke="rgb(255,4,0)" stroke-width="2" fill="none"></circle>
<circle cx="6218.58" cy="1725.77" r="4" stroke="rgb(255,4,0)" stroke-width="2" fill="none"></circle>
<circle cx="2167.17" cy="1627.91" r="4" stroke="rgb(255,59,0)" stroke-width="2" fill="none"></circle>
<circle cx="6224.75" cy="1771.68" r="4" stroke="rgb(255,59,0)" stroke-width="2" fill="none"></circle>
<circle cx="2198.71" cy="1319.94" r="4" stroke="rgb(0,255,42)" stroke-width="2" fill="none"></circle>
<circle cx="6084.63" cy="1385.91" r="4" stroke="rgb(0,255,42)" stroke-width="2" fill="none"></circle>
<circle cx="1527.98" cy="2504.13" r="4" stroke="rgb(255,140,0)" stroke-width="2" fill="none"></circle>
<circle cx="6278.75" cy="1815.58" r="4" stroke="rgb(255,140,0)" stroke-width="2" fill="none"></circle>
<circle cx="2397.17" cy="1589.07" r="4" stroke="rgb(255,0,195)" stroke-width="2" fill="none"></circle>
<circle cx="6093.06" cy="1374.92" r="4" stroke="rgb(255,0,195)" stroke-width="2" fill="none"></circle>
<circle cx="2291.56" cy="1931.05" r="4" stroke="rgb(0,255,152)" stroke-width="2" fill="none"></circle>
<circle cx="6045.29" cy="1393.46" r="4" stroke="rgb(0,255,152)" stroke-width="2" fill="none"></circle>
<circle cx="2209.26" cy="1672.28" r="4" stroke="rgb(148,255,0)" stroke-width="2" fill="none"></circle>
<circle cx="6114.68" cy="1584.98" r="4" stroke="rgb(148,255,0)" stroke-width="2" fill="none"></circle>
<circle cx="2177.18" cy="2510.02" r="4" stroke="rgb(0,255,118)" stroke-width="2" fill="none"></circle>
<circle cx="5617.26" cy="1615.24" r="4" stroke="rgb(0,255,118)" stroke-width="2" fill="none"></circle>
<circle cx="2385.55" cy="1551.51" r="4" stroke="rgb(21,255,0)" stroke-width="2" fill="none"></circle>
<circle cx="5665.23" cy="1691.29" r="4" stroke="rgb(21,255,0)" stroke-width="2" fill="none"></circle>
<circle cx="2185.68" cy="2430.77" r="4" stroke="rgb(255,0,97)" stroke-width="2" fill="none"></circle>
<circle cx="5421.5" cy="1712.92" r="4" stroke="rgb(255,0,97)" stroke-width="2" fill="none"></circle>
<circle cx="1622.16" cy="1958.46" r="4" stroke="rgb(0,208,255)" stroke-width="2" fill="none"></circle>
<circle cx="6648" cy="1387.41" r="4" stroke="rgb(0,208,255)" stroke-width="2" fill="none"></circle>
<circle cx="2258.1" cy="2076.33" r="4" stroke="rgb(102,0,255)" stroke-width="2" fill="none"></circle>
<circle cx="6162.23" cy="547.118" r="4" stroke="rgb(102,0,255)" stroke-width="2" fill="none"></circle>
<circle cx="3101.81" cy="1200.82" r="4" stroke="rgb(255,0,89)" stroke-width="2" fill="none"></circle>
<circle cx="5456.58" cy="1152.56" r="4" stroke="rgb(255,0,89)" stroke-width="2" fill="none"></circle>
<circle cx="1478.84" cy="2111.36" r="4" stroke="rgb(255,182,0)" stroke-width="2" fill="none"></circle>
<circle cx="5325.41" cy="1129.34" r="4" stroke="rgb(255,182,0)" stroke-width="2" fill="none"></circle>
<circle cx="2107.57" cy="1209.05" r="4" stroke="rgb(0,255,148)" stroke-width="2" fill="none"></circle>
<circle cx="5986.73" cy="1026.63" r="4" stroke="rgb(0,255,148)" stroke-width="2" fill="none"></circle>
<circle cx="2195.43" cy="1938.82" r="4" stroke="rgb(110,0,255)" stroke-width="2" fill="none"></circle>
<circle cx="5732.64" cy="1537.34" r="4" stroke="rgb(110,0,255)" stroke-width="2" fill="none"></circle>
<circle cx="2373.49" cy="1548.32" r="4" stroke="rgb(38,0,255)" stroke-width="2" fill="none"></circle>
<circle cx="6100.34" cy="916.039" r="4" stroke="rgb(38,0,255)" stroke-width="2" fill="none"></circle>
<circle cx="1664.84" cy="1776.24" r="4" stroke="rgb(255,0,85)" stroke-width="2" fill="none"></circle>
<circle cx="5271.23" cy="1192.48" r="4" stroke="rgb(255,0,85)" stroke-width="2" fill="none"></circle>
<circle cx="2892.6" cy="1085.22" r="4" stroke="rgb(255,0,101)" stroke-width="2" fill="none"></circle>
<circle cx="6139.14" cy="1243.26" r="4" stroke="rgb(255,0,101)" stroke-width="2" fill="none"></circle>
<circle cx="2862.5" cy="819.553" r="4" stroke="rgb(0,212,255)" stroke-width="2" fill="none"></circle>
<circle cx="6301.94" cy="1789.24" r="4" stroke="rgb(0,212,255)" stroke-width="2" fill="none"></circle>
<circle cx="2209.26" cy="1672.28" r="4" stroke="rgb(0,255,42)" stroke-width="2" fill="none"></circle>
<circle cx="6112.16" cy="1586.01" r="4" stroke="rgb(0,255,42)" stroke-width="2" fill="none"></circle>
<circle cx="1346.1" cy="2126.7" r="4" stroke="rgb(46,0,255)" stroke-width="2" fill="none"></circle>
<circle cx="4862.33" cy="2050.88" r="4" stroke="rgb(46,0,255)" stroke-width="2" fill="none"></circle>
<circle cx="954.234" cy="817.128" r="4" stroke="rgb(46,0,255)" stroke-width="2" fill="none"></circle>
<circle cx="5798.21" cy="273.699" r="4" stroke="rgb(46,0,255)" stroke-width="2" fill="none"></circle>
<circle cx="1491.07" cy="2435.97" r="4" stroke="rgb(0,255,33)" stroke-width="2" fill="none"></circle>
<circle cx="6006.69" cy="513.636" r="4" stroke="rgb(0,255,33)" stroke-width="2" fill="none"></circle>
<circle cx="2044.74" cy="1923.42" r="4" stroke="rgb(221,255,0)" stroke-width="2" fill="none"></circle>
<circle cx="6265.26" cy="1571.63" r="4" stroke="rgb(221,255,0)" stroke-width="2" fill="none"></circle>
<circle cx="2326.55" cy="1535.65" r="4" stroke="rgb(255,110,0)" stroke-width="2" fill="none"></circle>
<circle cx="5936.94" cy="1125.12" r="4" stroke="rgb(255,110,0)" stroke-width="2" fill="none"></circle>
<circle cx="2858.62" cy="1122.73" r="4" stroke="rgb(148,255,0)" stroke-width="2" fill="none"></circle>
<circle cx="5348.3" cy="1297.88" r="4" stroke="rgb(148,255,0)" stroke-width="2" fill="none"></circle>
<circle cx="1893.18" cy="2419.37" r="4" stroke="rgb(255,0,242)" stroke-width="2" fill="none"></circle>
<circle cx="5553.92" cy="1739.72" r="4" stroke="rgb(255,0,242)" stroke-width="2" fill="none"></circle>
</svg>