<?xml version="1.0" standalone="yes"?>
<!-- SVG graphic -->
<svg xmlns='http://www.w3.org/2000/svg' xmlns:xlink='http://www.w3.org/1999/xlink'
 version="1.1">
<rect x="0" y="0" width="6" height="200" stroke="black" stroke-width="1" fill="blue"><title>(0,31771)</title></rect>
<rect x="6" y="88.458" width="6" height="111.542" stroke="black" stroke-width="1" fill="blue"><title>(0.0399029,17719)</title></rect>
<rect x="12" y="107.431" width="6" height="92.5687" stroke="black" stroke-width="1" fill="blue"><title>(0.0798058,14705)</title></rect>
<rect x="18" y="115.898" width="6" height="84.1019" stroke="black" stroke-width="1" fill="blue"><title>(0.119709,13360)</title></rect>
<rect x="24" y="121.721" width="6" height="78.2789" stroke="black" stroke-width="1" fill="blue"><title>(0.159612,12435)</title></rect>
<rect x="30" y="125.649" width="6" height="74.3508" stroke="black" stroke-width="1" fill="blue"><title>(0.199515,11811)</title></rect>
<rect x="36" y="129.565" width="6" height="70.4353" stroke="black" stroke-width="1" fill="blue"><title>(0.239417,11189)</title></rect>
<rect x="42" y="132.07" width="6" height="67.9299" stroke="black" stroke-width="1" fill="blue"><title>(0.27932,10791)</title></rect>
<rect x="48" y="136.54" width="6" height="63.4604" stroke="black" stroke-width="1" fill="blue"><title>(0.319223,10081)</title></rect>
<rect x="54" y="139.297" width="6" height="60.7032" stroke="black" stroke-width="1" fill="blue"><title>(0.359126,9643)</title></rect>
<rect x="60" y="140.997" width="6" height="59.0035" stroke="black" stroke-width="1" fill="blue"><title>(0.399029,9373)</title></rect>
<rect x="66" y="144.188" width="6" height="55.8119" stroke="black" stroke-width="1" fill="blue"><title>(0.438932,8866)</title></rect>
<rect x="72" y="147.713" width="6" height="52.2867" stroke="black" stroke-width="1" fill="blue"><title>(0.478835,8306)</title></rect>
<rect x="78" y="149.703" width="6" height="50.2974" stroke="black" stroke-width="1" fill="blue"><title>(0.518738,7990)</title></rect>
<rect x="84" y="154.235" width="6" height="45.765" stroke="black" stroke-width="1" fill="blue"><title>(0.558641,7270)</title></rect>
<rect x="90" y="154.443" width="6" height="45.5573" stroke="black" stroke-width="1" fill="blue"><title>(0.598544,7237)</title></rect>
<rect x="96" y="156.898" width="6" height="43.1022" stroke="black" stroke-width="1" fill="blue"><title>(0.638447,6847)</title></rect>
<rect x="102" y="159.422" width="6" height="40.5779" stroke="black" stroke-width="1" fill="blue"><title>(0.67835,6446)</title></rect>
<rect x="108" y="162.689" width="6" height="37.3108" stroke="black" stroke-width="1" fill="blue"><title>(0.718252,5927)</title></rect>
<rect x="114" y="163.294" width="6" height="36.7064" stroke="black" stroke-width="1" fill="blue"><title>(0.758155,5831)</title></rect>
<rect x="120" y="165.661" width="6" height="34.3395" stroke="black" stroke-width="1" fill="blue"><title>(0.798058,5455)</title></rect>
<rect x="126" y="167.203" width="6" height="32.7972" stroke="black" stroke-width="1" fill="blue"><title>(0.837961,5210)</title></rect>
<rect x="132" y="168.959" width="6" height="31.0409" stroke="black" stroke-width="1" fill="blue"><title>(0.877864,4931)</title></rect>
<rect x="138" y="170.697" width="6" height="29.3035" stroke="black" stroke-width="1" fill="blue"><title>(0.917767,4655)</title></rect>
<rect x="144" y="172.805" width="6" height="27.1946" stroke="black" stroke-width="1" fill="blue"><title>(0.95767,4320)</title></rect>
<rect x="150" y="173.983" width="6" height="26.0174" stroke="black" stroke-width="1" fill="blue"><title>(0.997573,4133)</title></rect>
<rect x="156" y="175.04" width="6" height="24.9599" stroke="black" stroke-width="1" fill="blue"><title>(1.03748,3965)</title></rect>
<rect x="162" y="176.803" width="6" height="23.1973" stroke="black" stroke-width="1" fill="blue"><title>(1.07738,3685)</title></rect>
<rect x="168" y="178.37" width="6" height="21.6298" stroke="black" stroke-width="1" fill="blue"><title>(1.11728,3436)</title></rect>
<rect x="174" y="179.025" width="6" height="20.9751" stroke="black" stroke-width="1" fill="blue"><title>(1.15718,3332)</title></rect>
<rect x="180" y="180.907" width="6" height="19.0929" stroke="black" stroke-width="1" fill="blue"><title>(1.19709,3033)</title></rect>
<rect x="186" y="180.882" width="6" height="19.1181" stroke="black" stroke-width="1" fill="blue"><title>(1.23699,3037)</title></rect>
<rect x="192" y="183.01" width="6" height="16.9903" stroke="black" stroke-width="1" fill="blue"><title>(1.27689,2699)</title></rect>
<rect x="198" y="183.992" width="6" height="16.0083" stroke="black" stroke-width="1" fill="blue"><title>(1.3168,2543)</title></rect>
<rect x="204" y="183.948" width="6" height="16.0524" stroke="black" stroke-width="1" fill="blue"><title>(1.3567,2550)</title></rect>
<rect x="210" y="185.288" width="6" height="14.7115" stroke="black" stroke-width="1" fill="blue"><title>(1.3966,2337)</title></rect>
<rect x="216" y="185.868" width="6" height="14.1324" stroke="black" stroke-width="1" fill="blue"><title>(1.4365,2245)</title></rect>
<rect x="222" y="187.177" width="6" height="12.823" stroke="black" stroke-width="1" fill="blue"><title>(1.47641,2037)</title></rect>
<rect x="228" y="187.416" width="6" height="12.5838" stroke="black" stroke-width="1" fill="blue"><title>(1.51631,1999)</title></rect>
<rect x="234" y="188.851" width="6" height="11.1485" stroke="black" stroke-width="1" fill="blue"><title>(1.55621,1771)</title></rect>
<rect x="240" y="188.669" width="6" height="11.3311" stroke="black" stroke-width="1" fill="blue"><title>(1.59612,1800)</title></rect>
<rect x="246" y="189.361" width="6" height="10.6386" stroke="black" stroke-width="1" fill="blue"><title>(1.63602,1690)</title></rect>
<rect x="252" y="190.048" width="6" height="9.95247" stroke="black" stroke-width="1" fill="blue"><title>(1.67592,1581)</title></rect>
<rect x="258" y="190.715" width="6" height="9.2852" stroke="black" stroke-width="1" fill="blue"><title>(1.71583,1475)</title></rect>
<rect x="264" y="191.212" width="6" height="8.78789" stroke="black" stroke-width="1" fill="blue"><title>(1.75573,1396)</title></rect>
<rect x="270" y="191.728" width="6" height="8.27169" stroke="black" stroke-width="1" fill="blue"><title>(1.79563,1314)</title></rect>
<rect x="276" y="192.414" width="6" height="7.58553" stroke="black" stroke-width="1" fill="blue"><title>(1.83553,1205)</title></rect>
<rect x="282" y="192.389" width="6" height="7.61071" stroke="black" stroke-width="1" fill="blue"><title>(1.87544,1209)</title></rect>
<rect x="288" y="192.918" width="6" height="7.08193" stroke="black" stroke-width="1" fill="blue"><title>(1.91534,1125)</title></rect>
<rect x="294" y="193.063" width="6" height="6.93714" stroke="black" stroke-width="1" fill="blue"><title>(1.95524,1102)</title></rect>
<rect x="300" y="193.51" width="6" height="6.4902" stroke="black" stroke-width="1" fill="blue"><title>(1.99515,1031)</title></rect>
<rect x="306" y="194.026" width="6" height="5.974" stroke="black" stroke-width="1" fill="blue"><title>(2.03505,949)</title></rect>
<rect x="312" y="194.146" width="6" height="5.8544" stroke="black" stroke-width="1" fill="blue"><title>(2.07495,930)</title></rect>
<rect x="318" y="194.196" width="6" height="5.80404" stroke="black" stroke-width="1" fill="blue"><title>(2.11485,922)</title></rect>
<rect x="324" y="194.794" width="6" height="5.20601" stroke="black" stroke-width="1" fill="blue"><title>(2.15476,827)</title></rect>
<rect x="330" y="195.411" width="6" height="4.58909" stroke="black" stroke-width="1" fill="blue"><title>(2.19466,729)</title></rect>
<rect x="336" y="195.379" width="6" height="4.62057" stroke="black" stroke-width="1" fill="blue"><title>(2.23456,734)</title></rect>
<rect x="342" y="195.625" width="6" height="4.37506" stroke="black" stroke-width="1" fill="blue"><title>(2.27447,695)</title></rect>
<rect x="348" y="195.902" width="6" height="4.09808" stroke="black" stroke-width="1" fill="blue"><title>(2.31437,651)</title></rect>
<rect x="354" y="195.921" width="6" height="4.07919" stroke="black" stroke-width="1" fill="blue"><title>(2.35427,648)</title></rect>
<rect x="360" y="196.116" width="6" height="3.88405" stroke="black" stroke-width="1" fill="blue"><title>(2.39417,617)</title></rect>
<rect x="366" y="196.292" width="6" height="3.70778" stroke="black" stroke-width="1" fill="blue"><title>(2.43408,589)</title></rect>
<rect x="372" y="196.406" width="6" height="3.59447" stroke="black" stroke-width="1" fill="blue"><title>(2.47398,571)</title></rect>
<rect x="378" y="196.657" width="6" height="3.34267" stroke="black" stroke-width="1" fill="blue"><title>(2.51388,531)</title></rect>
<rect x="384" y="196.733" width="6" height="3.26713" stroke="black" stroke-width="1" fill="blue"><title>(2.55379,519)</title></rect>
<rect x="390" y="197.255" width="6" height="2.74464" stroke="black" stroke-width="1" fill="blue"><title>(2.59369,436)</title></rect>
<rect x="396" y="197.249" width="6" height="2.75094" stroke="black" stroke-width="1" fill="blue"><title>(2.63359,437)</title></rect>
<rect x="402" y="197.356" width="6" height="2.64392" stroke="black" stroke-width="1" fill="blue"><title>(2.6735,420)</title></rect>
<rect x="408" y="197.627" width="6" height="2.37323" stroke="black" stroke-width="1" fill="blue"><title>(2.7134,377)</title></rect>
<rect x="414" y="197.759" width="6" height="2.24104" stroke="black" stroke-width="1" fill="blue"><title>(2.7533,356)</title></rect>
<rect x="420" y="197.797" width="6" height="2.20327" stroke="black" stroke-width="1" fill="blue"><title>(2.7932,350)</title></rect>
<rect x="426" y="198.086" width="6" height="1.91369" stroke="black" stroke-width="1" fill="blue"><title>(2.83311,304)</title></rect>
<rect x="432" y="197.904" width="6" height="2.09625" stroke="black" stroke-width="1" fill="blue"><title>(2.87301,333)</title></rect>
<rect x="438" y="198.307" width="6" height="1.69337" stroke="black" stroke-width="1" fill="blue"><title>(2.91291,269)</title></rect>
<rect x="444" y="198.426" width="6" height="1.57376" stroke="black" stroke-width="1" fill="blue"><title>(2.95282,250)</title></rect>
<rect x="450" y="198.407" width="6" height="1.59265" stroke="black" stroke-width="1" fill="blue"><title>(2.99272,253)</title></rect>
<rect x="456" y="198.552" width="6" height="1.44786" stroke="black" stroke-width="1" fill="blue"><title>(3.03262,230)</title></rect>
<rect x="462" y="198.722" width="6" height="1.27789" stroke="black" stroke-width="1" fill="blue"><title>(3.07252,203)</title></rect>
<rect x="468" y="198.703" width="6" height="1.29678" stroke="black" stroke-width="1" fill="blue"><title>(3.11243,206)</title></rect>
<rect x="474" y="198.798" width="6" height="1.20235" stroke="black" stroke-width="1" fill="blue"><title>(3.15233,191)</title></rect>
<rect x="480" y="199.005" width="6" height="0.994618" stroke="black" stroke-width="1" fill="blue"><title>(3.19223,158)</title></rect>
<rect x="486" y="199.15" width="6" height="0.849832" stroke="black" stroke-width="1" fill="blue"><title>(3.23214,135)</title></rect>
<rect x="492" y="199.056" width="6" height="0.944257" stroke="black" stroke-width="1" fill="blue"><title>(3.27204,150)</title></rect>
<rect x="498" y="199.131" width="6" height="0.868717" stroke="black" stroke-width="1" fill="blue"><title>(3.31194,138)</title></rect>
<rect x="504" y="199.238" width="6" height="0.761701" stroke="black" stroke-width="1" fill="blue"><title>(3.35184,121)</title></rect>
<rect x="510" y="199.15" width="6" height="0.849832" stroke="black" stroke-width="1" fill="blue"><title>(3.39175,135)</title></rect>
<rect x="516" y="199.383" width="6" height="0.616915" stroke="black" stroke-width="1" fill="blue"><title>(3.43165,98)</title></rect>
<rect x="522" y="199.433" width="6" height="0.566554" stroke="black" stroke-width="1" fill="blue"><title>(3.47155,90)</title></rect>
<rect x="528" y="199.44" width="6" height="0.560259" stroke="black" stroke-width="1" fill="blue"><title>(3.51146,89)</title></rect>
<rect x="534" y="199.509" width="6" height="0.491014" stroke="black" stroke-width="1" fill="blue"><title>(3.55136,78)</title></rect>
<rect x="540" y="199.452" width="6" height="0.547669" stroke="black" stroke-width="1" fill="blue"><title>(3.59126,87)</title></rect>
<rect x="546" y="199.578" width="6" height="0.421768" stroke="black" stroke-width="1" fill="blue"><title>(3.63117,67)</title></rect>
<rect x="552" y="199.717" width="6" height="0.283277" stroke="black" stroke-width="1" fill="blue"><title>(3.67107,45)</title></rect>
<rect x="558" y="199.616" width="6" height="0.383998" stroke="black" stroke-width="1" fill="blue"><title>(3.71097,61)</title></rect>
<rect x="564" y="199.723" width="6" height="0.276982" stroke="black" stroke-width="1" fill="blue"><title>(3.75087,44)</title></rect>
<rect x="570" y="199.729" width="6" height="0.270687" stroke="black" stroke-width="1" fill="blue"><title>(3.79078,43)</title></rect>
<rect x="576" y="199.799" width="6" height="0.201442" stroke="black" stroke-width="1" fill="blue"><title>(3.83068,32)</title></rect>
<rect x="582" y="199.862" width="6" height="0.138491" stroke="black" stroke-width="1" fill="blue"><title>(3.87058,22)</title></rect>
<rect x="588" y="199.874" width="6" height="0.125901" stroke="black" stroke-width="1" fill="blue"><title>(3.91049,20)</title></rect>
<rect x="594" y="199.95" width="6" height="0.0503604" stroke="black" stroke-width="1" fill="blue"><title>(3.95039,8)</title></rect>
<text x="30" y="240" font-size="20" fill="black">0</text>
<text x="600" y="240" font-size="20" fill="black">3.99029</text>
<polyline points="0,220,600,220" stroke="black" stroke-width="1" fill="none"></polyline>
<text x="720" y="20" font-size="20" fill="black">31771</text>
<text x="720" y="200" font-size="20" fill="black">0</text>
<polyline points="660,0,660,200" stroke="black" stroke-width="1" fill="none"></polyline>
</svg>