<?xml version="1.0" standalone="yes"?>
<!-- SVG graphic -->
<svg xmlns='http://www.w3.org/2000/svg' xmlns:xlink='http://www.w3.org/1999/xlink'
width="8064px" height="3024px" preserveAspectRatio="xMinYMin meet" viewBox="0 0 8064 3024" version="1.1">
<image x="0" y="0" width="4032px" height="3024px" opacity="1" xlink:href="/home/jeong/Code/2D-to-3D-Modeling-using-AI/Make3D/Image/20200227_180756.jpg"/>
<image x="4032" y="0" width="4032px" height="3024px" opacity="1" xlink:href="/home/jeong/Code/2D-to-3D-Modeling-using-AI/Make3D/Image/20200227_180808.jpg"/>
<polyline points="2808.8,5.95036,8037.03,1825.84" stroke="rgb(255,0,25)" stroke-width="2" fill="none"></polyline>
<polyline points="3652.76,57.237,5962.05,1493.12" stroke="rgb(51,255,0)" stroke-width="2" fill="none"></polyline>
<polyline points="1253.82,69.0285,6209.47,1040.91" stroke="rgb(255,8,0)" stroke-width="2" fill="none"></polyline>
<polyline points="3564.08,78.7058,5580.38,1301.39" stroke="rgb(255,0,195)" stroke-width="2" fill="none"></polyline>
<polyline points="2685.66,98.1363,7873.77,2250.85" stroke="rgb(255,0,59)" stroke-width="2" fill="none"></polyline>
<polyline points="3467.1,102.638,6887.57,1576.54" stroke="rgb(174,0,255)" stroke-width="2" fill="none"></polyline>
<polyline points="3413.11,103.485,6693.1,1174.79" stroke="rgb(255,212,0)" stroke-width="2" fill="none"></polyline>
<polyline points="3532.89,136.043,5973.93,1181.36" stroke="rgb(255,0,131)" stroke-width="2" fill="none"></polyline>
<polyline points="828.57,246.733,6612.25,1878.69" stroke="rgb(0,187,255)" stroke-width="2" fill="none"></polyline>
<polyline points="3638.69,318.188,6053.32,1668.06" stroke="rgb(0,135,255)" stroke-width="2" fill="none"></polyline>
<polyline points="3851.07,327.259,7672.33,2533.6" stroke="rgb(114,255,0)" stroke-width="2" fill="none"></polyline>
<polyline points="1529.3,395.301,6894.88,1041.11" stroke="rgb(225,0,255)" stroke-width="2" fill="none"></polyline>
<polyline points="3588.23,413.74,5991.35,1550.65" stroke="rgb(0,135,255)" stroke-width="2" fill="none"></polyline>
<polyline points="3533.26,413.891,6086.74,1113.57" stroke="rgb(255,0,97)" stroke-width="2" fill="none"></polyline>
<polyline points="1418.22,432.014,5488.85,1004.95" stroke="rgb(255,0,55)" stroke-width="2" fill="none"></polyline>
<polyline points="3468.62,447.786,4279.62,2538.33" stroke="rgb(0,255,157)" stroke-width="2" fill="none"></polyline>
<polyline points="1906.71,476.836,6331.86,343.302" stroke="rgb(178,255,0)" stroke-width="2" fill="none"></polyline>
<polyline points="2071.97,483.244,6591.64,374.525" stroke="rgb(255,170,0)" stroke-width="2" fill="none"></polyline>
<polyline points="3558.73,491.046,5892.34,983.663" stroke="rgb(0,255,216)" stroke-width="2" fill="none"></polyline>
<polyline points="3517.53,491.877,7986.95,976.082" stroke="rgb(182,255,0)" stroke-width="2" fill="none"></polyline>
<polyline points="2751.11,509.35,7505.81,1908.17" stroke="rgb(255,12,0)" stroke-width="2" fill="none"></polyline>
<polyline points="3475.64,516.294,7908.86,1275.88" stroke="rgb(0,12,255)" stroke-width="2" fill="none"></polyline>
<polyline points="1454.17,575.573,7965.97,2266.93" stroke="rgb(101,255,0)" stroke-width="2" fill="none"></polyline>
<polyline points="2784.83,614.874,7571.09,2954.87" stroke="rgb(255,106,0)" stroke-width="2" fill="none"></polyline>
<polyline points="2508.87,658.259,4607.97,2794.04" stroke="rgb(255,0,157)" stroke-width="2" fill="none"></polyline>
<polyline points="2459.4,662.182,6642.83,1701.68" stroke="rgb(85,0,255)" stroke-width="2" fill="none"></polyline>
<polyline points="62.5535,667.454,7046.34,1940.04" stroke="rgb(0,255,225)" stroke-width="2" fill="none"></polyline>
<polyline points="2729.01,694.214,7616.91,2776.77" stroke="rgb(255,0,29)" stroke-width="2" fill="none"></polyline>
<polyline points="1882.57,721.127,5918.7,1808.22" stroke="rgb(242,0,255)" stroke-width="2" fill="none"></polyline>
<polyline points="2583.92,735.582,6487.68,1838.43" stroke="rgb(255,170,0)" stroke-width="2" fill="none"></polyline>
<polyline points="1100.46,764.533,6366.14,1656.5" stroke="rgb(0,255,186)" stroke-width="2" fill="none"></polyline>
<polyline points="2162.67,779.478,7329.05,417.236" stroke="rgb(0,255,182)" stroke-width="2" fill="none"></polyline>
<polyline points="3562.66,781.707,6969.97,1338.29" stroke="rgb(255,85,0)" stroke-width="2" fill="none"></polyline>
<polyline points="526.146,794.644,7554.66,2698.58" stroke="rgb(255,161,0)" stroke-width="2" fill="none"></polyline>
<polyline points="3807.8,800.665,7270.82,1415.11" stroke="rgb(8,255,0)" stroke-width="2" fill="none"></polyline>
<polyline points="1161.28,808.758,5897.44,2039.52" stroke="rgb(255,25,0)" stroke-width="2" fill="none"></polyline>
<polyline points="3720.57,863.158,6185.09,1926.86" stroke="rgb(255,0,169)" stroke-width="2" fill="none"></polyline>
<polyline points="2267.21,867.81,5480.41,1567.05" stroke="rgb(255,170,0)" stroke-width="2" fill="none"></polyline>
<polyline points="1543.56,877.592,5667.32,1909.07" stroke="rgb(255,0,106)" stroke-width="2" fill="none"></polyline>
<polyline points="761.82,886.71,5374.04,1316.61" stroke="rgb(0,255,152)" stroke-width="2" fill="none"></polyline>
<polyline points="2869.57,897.096,7712.54,2468.69" stroke="rgb(0,255,4)" stroke-width="2" fill="none"></polyline>
<polyline points="1129.98,918.12,5544.46,1172.75" stroke="rgb(216,255,0)" stroke-width="2" fill="none"></polyline>
<polyline points="1679.98,936.867,5959,979.637" stroke="rgb(255,0,161)" stroke-width="2" fill="none"></polyline>
<polyline points="460.757,943.822,7415.98,3007.08" stroke="rgb(255,0,131)" stroke-width="2" fill="none"></polyline>
<polyline points="876.581,944.011,6940.27,593.916" stroke="rgb(161,0,255)" stroke-width="2" fill="none"></polyline>
<polyline points="526.461,974.339,4683.53,751.658" stroke="rgb(255,0,216)" stroke-width="2" fill="none"></polyline>
<polyline points="3742.06,1030.25,6424.81,1807.94" stroke="rgb(0,255,29)" stroke-width="2" fill="none"></polyline>
<polyline points="1473.97,1034.4,6937.73,1919.28" stroke="rgb(255,0,17)" stroke-width="2" fill="none"></polyline>
<polyline points="3526.8,1145.03,5537.27,1517.2" stroke="rgb(255,0,46)" stroke-width="2" fill="none"></polyline>
<polyline points="2252.96,1172.85,6729.19,1904.12" stroke="rgb(0,255,212)" stroke-width="2" fill="none"></polyline>
<polyline points="1170.13,1186.02,5663.31,1140.4" stroke="rgb(255,0,233)" stroke-width="2" fill="none"></polyline>
<polyline points="1401.2,1203.67,5712.73,1790.87" stroke="rgb(255,0,33)" stroke-width="2" fill="none"></polyline>
<polyline points="3740.12,1247.37,6557.61,1481.35" stroke="rgb(170,0,255)" stroke-width="2" fill="none"></polyline>
<polyline points="3779.78,1294.44,6208.37,980.3" stroke="rgb(255,178,0)" stroke-width="2" fill="none"></polyline>
<polyline points="3769.94,1322.69,7842.21,2203.67" stroke="rgb(38,0,255)" stroke-width="2" fill="none"></polyline>
<polyline points="3812.54,1363.38,8047.83,2227.73" stroke="rgb(21,255,0)" stroke-width="2" fill="none"></polyline>
<polyline points="3822.18,1370.65,7582.2,2600" stroke="rgb(0,255,229)" stroke-width="2" fill="none"></polyline>
<polyline points="714.402,1373.63,5311.42,1380.96" stroke="rgb(229,0,255)" stroke-width="2" fill="none"></polyline>
<polyline points="785.938,1380.52,4417.33,1861.86" stroke="rgb(255,0,80)" stroke-width="2" fill="none"></polyline>
<polyline points="3069.67,1390.45,6751.86,1757.25" stroke="rgb(38,255,0)" stroke-width="2" fill="none"></polyline>
<polyline points="3585.9,1400.12,6731.14,1816.32" stroke="rgb(255,0,110)" stroke-width="2" fill="none"></polyline>
<polyline points="3697.1,1421.47,6662.74,1877.53" stroke="rgb(0,255,106)" stroke-width="2" fill="none"></polyline>
<polyline points="1572.2,1429.94,6640.66,1798.39" stroke="rgb(0,255,110)" stroke-width="2" fill="none"></polyline>
<polyline points="2491.6,1437.21,4861.98,1319.81" stroke="rgb(0,55,255)" stroke-width="2" fill="none"></polyline>
<polyline points="1658.49,1442.65,7792.71,1705.52" stroke="rgb(0,242,255)" stroke-width="2" fill="none"></polyline>
<polyline points="2090.94,1445.96,7225.82,1680.72" stroke="rgb(102,0,255)" stroke-width="2" fill="none"></polyline>
<polyline points="1593.23,1450.18,6134.85,1352.49" stroke="rgb(0,29,255)" stroke-width="2" fill="none"></polyline>
<polyline points="1313.2,1451.61,5403.25,2342.09" stroke="rgb(255,63,0)" stroke-width="2" fill="none"></polyline>
<polyline points="3761.46,1483.55,7297.91,2391.97" stroke="rgb(255,0,233)" stroke-width="2" fill="none"></polyline>
<polyline points="1325.81,1490.21,6866.48,1727.18" stroke="rgb(0,131,255)" stroke-width="2" fill="none"></polyline>
<polyline points="1137.08,1511.28,5786.79,1493.63" stroke="rgb(255,187,0)" stroke-width="2" fill="none"></polyline>
<polyline points="3513.79,1529.28,6406.92,1715.17" stroke="rgb(229,255,0)" stroke-width="2" fill="none"></polyline>
<polyline points="3734.03,1535.34,7784.26,2566.29" stroke="rgb(0,255,127)" stroke-width="2" fill="none"></polyline>
<polyline points="1945.96,1573.72,6691.8,1732.25" stroke="rgb(255,25,0)" stroke-width="2" fill="none"></polyline>
<polyline points="3567.07,1593.51,6272.74,1101.94" stroke="rgb(114,0,255)" stroke-width="2" fill="none"></polyline>
<polyline points="1799.36,1613.81,6887.37,1410.23" stroke="rgb(221,255,0)" stroke-width="2" fill="none"></polyline>
<polyline points="3028.58,1642.88,7537.62,1785.86" stroke="rgb(0,225,255)" stroke-width="2" fill="none"></polyline>
<polyline points="2443.55,1644.04,6508.15,1864.36" stroke="rgb(255,144,0)" stroke-width="2" fill="none"></polyline>
<polyline points="2169.77,1645.05,6733.85,1346.03" stroke="rgb(238,0,255)" stroke-width="2" fill="none"></polyline>
<polyline points="765.282,1678.5,5573.37,1966.24" stroke="rgb(255,208,0)" stroke-width="2" fill="none"></polyline>
<polyline points="1917.03,1697.52,4943.27,2768.21" stroke="rgb(182,255,0)" stroke-width="2" fill="none"></polyline>
<polyline points="733.3,1750.38,4674.25,963.135" stroke="rgb(25,255,0)" stroke-width="2" fill="none"></polyline>
<polyline points="3496.76,1759.15,6907.92,1244.54" stroke="rgb(140,0,255)" stroke-width="2" fill="none"></polyline>
<polyline points="2409.47,1849.75,7184.72,1727.08" stroke="rgb(0,46,255)" stroke-width="2" fill="none"></polyline>
<polyline points="1248.49,1856.46,6993.36,1876.08" stroke="rgb(0,255,152)" stroke-width="2" fill="none"></polyline>
<polyline points="2302.53,1872.59,6114.99,1576.73" stroke="rgb(255,148,0)" stroke-width="2" fill="none"></polyline>
<polyline points="1302.76,1897.41,4384.64,1649.61" stroke="rgb(255,0,68)" stroke-width="2" fill="none"></polyline>
<polyline points="3054.08,1908.58,7191.56,2654.97" stroke="rgb(0,161,255)" stroke-width="2" fill="none"></polyline>
<polyline points="1351.32,1956.86,5914.46,1179.42" stroke="rgb(255,0,131)" stroke-width="2" fill="none"></polyline>
<polyline points="3525.8,2058.05,5940.93,1689.7" stroke="rgb(255,0,148)" stroke-width="2" fill="none"></polyline>
<polyline points="2188.25,2060.56,5902.01,1268.48" stroke="rgb(0,233,255)" stroke-width="2" fill="none"></polyline>
<polyline points="1524.26,2064.74,6636.39,1753.56" stroke="rgb(0,255,237)" stroke-width="2" fill="none"></polyline>
<polyline points="1379.65,2093.11,5597.01,1855.57" stroke="rgb(255,0,76)" stroke-width="2" fill="none"></polyline>
<polyline points="2467.07,2099.34,6983.96,2981.09" stroke="rgb(255,0,123)" stroke-width="2" fill="none"></polyline>
<polyline points="3865.19,2158.44,6859.15,1640.97" stroke="rgb(255,182,0)" stroke-width="2" fill="none"></polyline>
<polyline points="1306.1,2194.16,5743.96,1666.19" stroke="rgb(0,255,195)" stroke-width="2" fill="none"></polyline>
<polyline points="1322.8,2195.43,7708.92,1474.34" stroke="rgb(0,17,255)" stroke-width="2" fill="none"></polyline>
<polyline points="2015.22,2211.99,6858.27,1407.07" stroke="rgb(153,0,255)" stroke-width="2" fill="none"></polyline>
<polyline points="1330.18,2253.09,6388.22,1638.42" stroke="rgb(255,225,0)" stroke-width="2" fill="none"></polyline>
<polyline points="3752.78,2318.29,7674.59,1764.71" stroke="rgb(255,225,0)" stroke-width="2" fill="none"></polyline>
<polyline points="1030.32,2365.01,5517.85,2011.62" stroke="rgb(255,0,12)" stroke-width="2" fill="none"></polyline>
<polyline points="1458.89,2447.34,6573.19,1669.96" stroke="rgb(97,255,0)" stroke-width="2" fill="none"></polyline>
<polyline points="3215.82,2458.53,7555.79,2809.25" stroke="rgb(255,0,38)" stroke-width="2" fill="none"></polyline>
<polyline points="3906.43,2470.57,5064.35,2898.72" stroke="rgb(255,80,0)" stroke-width="2" fill="none"></polyline>
<polyline points="2493.38,2484.18,6620.47,1024.03" stroke="rgb(255,0,106)" stroke-width="2" fill="none"></polyline>
<polyline points="1515.11,2535.74,5543.5,1561.82" stroke="rgb(76,0,255)" stroke-width="2" fill="none"></polyline>
<polyline points="885.371,2557.84,7196.45,1061.06" stroke="rgb(255,0,174)" stroke-width="2" fill="none"></polyline>
<polyline points="2420.69,2599.77,5672.96,1952.48" stroke="rgb(0,255,182)" stroke-width="2" fill="none"></polyline>
<polyline points="2611.35,2604.61,6543.63,1939.59" stroke="rgb(0,255,191)" stroke-width="2" fill="none"></polyline>
<polyline points="2684.24,2616.57,7790.85,1084.46" stroke="rgb(67,0,255)" stroke-width="2" fill="none"></polyline>
<polyline points="1926.48,2650.58,5998.2,1757.72" stroke="rgb(153,255,0)" stroke-width="2" fill="none"></polyline>
<polyline points="910.291,2680.28,7085.22,1840.01" stroke="rgb(8,0,255)" stroke-width="2" fill="none"></polyline>
<polyline points="3753.09,2700.44,6263.1,1022.71" stroke="rgb(255,42,0)" stroke-width="2" fill="none"></polyline>
<polyline points="3899.34,2705.01,5882.55,1243.67" stroke="rgb(255,0,12)" stroke-width="2" fill="none"></polyline>
<polyline points="2722.79,2774.92,5105.42,2868.06" stroke="rgb(38,255,0)" stroke-width="2" fill="none"></polyline>
<polyline points="735.273,2781.67,6783.94,1859.93" stroke="rgb(255,161,0)" stroke-width="2" fill="none"></polyline>
<polyline points="734.003,2783.12,6430.57,986.084" stroke="rgb(255,136,0)" stroke-width="2" fill="none"></polyline>
<polyline points="395.095,2798.23,6436.14,993.075" stroke="rgb(255,0,140)" stroke-width="2" fill="none"></polyline>
<polyline points="2918.68,2866,7592.87,2478.11" stroke="rgb(33,255,0)" stroke-width="2" fill="none"></polyline>
<polyline points="2648.12,2923.87,7917.53,2093.38" stroke="rgb(0,25,255)" stroke-width="2" fill="none"></polyline>
<circle cx="2808.8" cy="5.95036" r="4" stroke="rgb(255,0,25)" stroke-width="2" fill="none"></circle>
<circle cx="8037.03" cy="1825.84" r="4" stroke="rgb(255,0,25)" stroke-width="2" fill="none"></circle>
<circle cx="3652.76" cy="57.237" r="4" stroke="rgb(51,255,0)" stroke-width="2" fill="none"></circle>
<circle cx="5962.05" cy="1493.12" r="4" stroke="rgb(51,255,0)" stroke-width="2" fill="none"></circle>
<circle cx="1253.82" cy="69.0285" r="4" stroke="rgb(255,8,0)" stroke-width="2" fill="none"></circle>
<circle cx="6209.47" cy="1040.91" r="4" stroke="rgb(255,8,0)" stroke-width="2" fill="none"></circle>
<circle cx="3564.08" cy="78.7058" r="4" stroke="rgb(255,0,195)" stroke-width="2" fill="none"></circle>
<circle cx="5580.38" cy="1301.39" r="4" stroke="rgb(255,0,195)" stroke-width="2" fill="none"></circle>
<circle cx="2685.66" cy="98.1363" r="4" stroke="rgb(255,0,59)" stroke-width="2" fill="none"></circle>
<circle cx="7873.77" cy="2250.85" r="4" stroke="rgb(255,0,59)" stroke-width="2" fill="none"></circle>
<circle cx="3467.1" cy="102.638" r="4" stroke="rgb(174,0,255)" stroke-width="2" fill="none"></circle>
<circle cx="6887.57" cy="1576.54" r="4" stroke="rgb(174,0,255)" stroke-width="2" fill="none"></circle>
<circle cx="3413.11" cy="103.485" r="4" stroke="rgb(255,212,0)" stroke-width="2" fill="none"></circle>
<circle cx="6693.1" cy="1174.79" r="4" stroke="rgb(255,212,0)" stroke-width="2" fill="none"></circle>
<circle cx="3532.89" cy="136.043" r="4" stroke="rgb(255,0,131)" stroke-width="2" fill="none"></circle>
<circle cx="5973.93" cy="1181.36" r="4" stroke="rgb(255,0,131)" stroke-width="2" fill="none"></circle>
<circle cx="828.57" cy="246.733" r="4" stroke="rgb(0,187,255)" stroke-width="2" fill="none"></circle>
<circle cx="6612.25" cy="1878.69" r="4" stroke="rgb(0,187,255)" stroke-width="2" fill="none"></circle>
<circle cx="3638.69" cy="318.188" r="4" stroke="rgb(0,135,255)" stroke-width="2" fill="none"></circle>
<circle cx="6053.32" cy="1668.06" r="4" stroke="rgb(0,135,255)" stroke-width="2" fill="none"></circle>
<circle cx="3851.07" cy="327.259" r="4" stroke="rgb(114,255,0)" stroke-width="2" fill="none"></circle>
<circle cx="7672.33" cy="2533.6" r="4" stroke="rgb(114,255,0)" stroke-width="2" fill="none"></circle>
<circle cx="1529.3" cy="395.301" r="4" stroke="rgb(225,0,255)" stroke-width="2" fill="none"></circle>
<circle cx="6894.88" cy="1041.11" r="4" stroke="rgb(225,0,255)" stroke-width="2" fill="none"></circle>
<circle cx="3588.23" cy="413.74" r="4" stroke="rgb(0,135,255)" stroke-width="2" fill="none"></circle>
<circle cx="5991.35" cy="1550.65" r="4" stroke="rgb(0,135,255)" stroke-width="2" fill="none"></circle>
<circle cx="3533.26" cy="413.891" r="4" stroke="rgb(255,0,97)" stroke-width="2" fill="none"></circle>
<circle cx="6086.74" cy="1113.57" r="4" stroke="rgb(255,0,97)" stroke-width="2" fill="none"></circle>
<circle cx="1418.22" cy="432.014" r="4" stroke="rgb(255,0,55)" stroke-width="2" fill="none"></circle>
<circle cx="5488.85" cy="1004.95" r="4" stroke="rgb(255,0,55)" stroke-width="2" fill="none"></circle>
<circle cx="3468.62" cy="447.786" r="4" stroke="rgb(0,255,157)" stroke-width="2" fill="none"></circle>
<circle cx="4279.62" cy="2538.33" r="4" stroke="rgb(0,255,157)" stroke-width="2" fill="none"></circle>
<circle cx="1906.71" cy="476.836" r="4" stroke="rgb(178,255,0)" stroke-width="2" fill="none"></circle>
<circle cx="6331.86" cy="343.302" r="4" stroke="rgb(178,255,0)" stroke-width="2" fill="none"></circle>
<circle cx="2071.97" cy="483.244" r="4" stroke="rgb(255,170,0)" stroke-width="2" fill="none"></circle>
<circle cx="6591.64" cy="374.525" r="4" stroke="rgb(255,170,0)" stroke-width="2" fill="none"></circle>
<circle cx="3558.73" cy="491.046" r="4" stroke="rgb(0,255,216)" stroke-width="2" fill="none"></circle>
<circle cx="5892.34" cy="983.663" r="4" stroke="rgb(0,255,216)" stroke-width="2" fill="none"></circle>
<circle cx="3517.53" cy="491.877" r="4" stroke="rgb(182,255,0)" stroke-width="2" fill="none"></circle>
<circle cx="7986.95" cy="976.082" r="4" stroke="rgb(182,255,0)" stroke-width="2" fill="none"></circle>
<circle cx="2751.11" cy="509.35" r="4" stroke="rgb(255,12,0)" stroke-width="2" fill="none"></circle>
<circle cx="7505.81" cy="1908.17" r="4" stroke="rgb(255,12,0)" stroke-width="2" fill="none"></circle>
<circle cx="3475.64" cy="516.294" r="4" stroke="rgb(0,12,255)" stroke-width="2" fill="none"></circle>
<circle cx="7908.86" cy="1275.88" r="4" stroke="rgb(0,12,255)" stroke-width="2" fill="none"></circle>
<circle cx="1454.17" cy="575.573" r="4" stroke="rgb(101,255,0)" stroke-width="2" fill="none"></circle>
<circle cx="7965.97" cy="2266.93" r="4" stroke="rgb(101,255,0)" stroke-width="2" fill="none"></circle>
<circle cx="2784.83" cy="614.874" r="4" stroke="rgb(255,106,0)" stroke-width="2" fill="none"></circle>
<circle cx="7571.09" cy="2954.87" r="4" stroke="rgb(255,106,0)" stroke-width="2" fill="none"></circle>
<circle cx="2508.87" cy="658.259" r="4" stroke="rgb(255,0,157)" stroke-width="2" fill="none"></circle>
<circle cx="4607.97" cy="2794.04" r="4" stroke="rgb(255,0,157)" stroke-width="2" fill="none"></circle>
<circle cx="2459.4" cy="662.182" r="4" stroke="rgb(85,0,255)" stroke-width="2" fill="none"></circle>
<circle cx="6642.83" cy="1701.68" r="4" stroke="rgb(85,0,255)" stroke-width="2" fill="none"></circle>
<circle cx="62.5535" cy="667.454" r="4" stroke="rgb(0,255,225)" stroke-width="2" fill="none"></circle>
<circle cx="7046.34" cy="1940.04" r="4" stroke="rgb(0,255,225)" stroke-width="2" fill="none"></circle>
<circle cx="2729.01" cy="694.214" r="4" stroke="rgb(255,0,29)" stroke-width="2" fill="none"></circle>
<circle cx="7616.91" cy="2776.77" r="4" stroke="rgb(255,0,29)" stroke-width="2" fill="none"></circle>
<circle cx="1882.57" cy="721.127" r="4" stroke="rgb(242,0,255)" stroke-width="2" fill="none"></circle>
<circle cx="5918.7" cy="1808.22" r="4" stroke="rgb(242,0,255)" stroke-width="2" fill="none"></circle>
<circle cx="2583.92" cy="735.582" r="4" stroke="rgb(255,170,0)" stroke-width="2" fill="none"></circle>
<circle cx="6487.68" cy="1838.43" r="4" stroke="rgb(255,170,0)" stroke-width="2" fill="none"></circle>
<circle cx="1100.46" cy="764.533" r="4" stroke="rgb(0,255,186)" stroke-width="2" fill="none"></circle>
<circle cx="6366.14" cy="1656.5" r="4" stroke="rgb(0,255,186)" stroke-width="2" fill="none"></circle>
<circle cx="2162.67" cy="779.478" r="4" stroke="rgb(0,255,182)" stroke-width="2" fill="none"></circle>
<circle cx="7329.05" cy="417.236" r="4" stroke="rgb(0,255,182)" stroke-width="2" fill="none"></circle>
<circle cx="3562.66" cy="781.707" r="4" stroke="rgb(255,85,0)" stroke-width="2" fill="none"></circle>
<circle cx="6969.97" cy="1338.29" r="4" stroke="rgb(255,85,0)" stroke-width="2" fill="none"></circle>
<circle cx="526.146" cy="794.644" r="4" stroke="rgb(255,161,0)" stroke-width="2" fill="none"></circle>
<circle cx="7554.66" cy="2698.58" r="4" stroke="rgb(255,161,0)" stroke-width="2" fill="none"></circle>
<circle cx="3807.8" cy="800.665" r="4" stroke="rgb(8,255,0)" stroke-width="2" fill="none"></circle>
<circle cx="7270.82" cy="1415.11" r="4" stroke="rgb(8,255,0)" stroke-width="2" fill="none"></circle>
<circle cx="1161.28" cy="808.758" r="4" stroke="rgb(255,25,0)" stroke-width="2" fill="none"></circle>
<circle cx="5897.44" cy="2039.52" r="4" stroke="rgb(255,25,0)" stroke-width="2" fill="none"></circle>
<circle cx="3720.57" cy="863.158" r="4" stroke="rgb(255,0,169)" stroke-width="2" fill="none"></circle>
<circle cx="6185.09" cy="1926.86" r="4" stroke="rgb(255,0,169)" stroke-width="2" fill="none"></circle>
<circle cx="2267.21" cy="867.81" r="4" stroke="rgb(255,170,0)" stroke-width="2" fill="none"></circle>
<circle cx="5480.41" cy="1567.05" r="4" stroke="rgb(255,170,0)" stroke-width="2" fill="none"></circle>
<circle cx="1543.56" cy="877.592" r="4" stroke="rgb(255,0,106)" stroke-width="2" fill="none"></circle>
<circle cx="5667.32" cy="1909.07" r="4" stroke="rgb(255,0,106)" stroke-width="2" fill="none"></circle>
<circle cx="761.82" cy="886.71" r="4" stroke="rgb(0,255,152)" stroke-width="2" fill="none"></circle>
<circle cx="5374.04" cy="1316.61" r="4" stroke="rgb(0,255,152)" stroke-width="2" fill="none"></circle>
<circle cx="2869.57" cy="897.096" r="4" stroke="rgb(0,255,4)" stroke-width="2" fill="none"></circle>
<circle cx="7712.54" cy="2468.69" r="4" stroke="rgb(0,255,4)" stroke-width="2" fill="none"></circle>
<circle cx="1129.98" cy="918.12" r="4" stroke="rgb(216,255,0)" stroke-width="2" fill="none"></circle>
<circle cx="5544.46" cy="1172.75" r="4" stroke="rgb(216,255,0)" stroke-width="2" fill="none"></circle>
<circle cx="1679.98" cy="936.867" r="4" stroke="rgb(255,0,161)" stroke-width="2" fill="none"></circle>
<circle cx="5959" cy="979.637" r="4" stroke="rgb(255,0,161)" stroke-width="2" fill="none"></circle>
<circle cx="460.757" cy="943.822" r="4" stroke="rgb(255,0,131)" stroke-width="2" fill="none"></circle>
<circle cx="7415.98" cy="3007.08" r="4" stroke="rgb(255,0,131)" stroke-width="2" fill="none"></circle>
<circle cx="876.581" cy="944.011" r="4" stroke="rgb(161,0,255)" stroke-width="2" fill="none"></circle>
<circle cx="6940.27" cy="593.916" r="4" stroke="rgb(161,0,255)" stroke-width="2" fill="none"></circle>
<circle cx="526.461" cy="974.339" r="4" stroke="rgb(255,0,216)" stroke-width="2" fill="none"></circle>
<circle cx="4683.53" cy="751.658" r="4" stroke="rgb(255,0,216)" stroke-width="2" fill="none"></circle>
<circle cx="3742.06" cy="1030.25" r="4" stroke="rgb(0,255,29)" stroke-width="2" fill="none"></circle>
<circle cx="6424.81" cy="1807.94" r="4" stroke="rgb(0,255,29)" stroke-width="2" fill="none"></circle>
<circle cx="1473.97" cy="1034.4" r="4" stroke="rgb(255,0,17)" stroke-width="2" fill="none"></circle>
<circle cx="6937.73" cy="1919.28" r="4" stroke="rgb(255,0,17)" stroke-width="2" fill="none"></circle>
<circle cx="3526.8" cy="1145.03" r="4" stroke="rgb(255,0,46)" stroke-width="2" fill="none"></circle>
<circle cx="5537.27" cy="1517.2" r="4" stroke="rgb(255,0,46)" stroke-width="2" fill="none"></circle>
<circle cx="2252.96" cy="1172.85" r="4" stroke="rgb(0,255,212)" stroke-width="2" fill="none"></circle>
<circle cx="6729.19" cy="1904.12" r="4" stroke="rgb(0,255,212)" stroke-width="2" fill="none"></circle>
<circle cx="1170.13" cy="1186.02" r="4" stroke="rgb(255,0,233)" stroke-width="2" fill="none"></circle>
<circle cx="5663.31" cy="1140.4" r="4" stroke="rgb(255,0,233)" stroke-width="2" fill="none"></circle>
<circle cx="1401.2" cy="1203.67" r="4" stroke="rgb(255,0,33)" stroke-width="2" fill="none"></circle>
<circle cx="5712.73" cy="1790.87" r="4" stroke="rgb(255,0,33)" stroke-width="2" fill="none"></circle>
<circle cx="3740.12" cy="1247.37" r="4" stroke="rgb(170,0,255)" stroke-width="2" fill="none"></circle>
<circle cx="6557.61" cy="1481.35" r="4" stroke="rgb(170,0,255)" stroke-width="2" fill="none"></circle>
<circle cx="3779.78" cy="1294.44" r="4" stroke="rgb(255,178,0)" stroke-width="2" fill="none"></circle>
<circle cx="6208.37" cy="980.3" r="4" stroke="rgb(255,178,0)" stroke-width="2" fill="none"></circle>
<circle cx="3769.94" cy="1322.69" r="4" stroke="rgb(38,0,255)" stroke-width="2" fill="none"></circle>
<circle cx="7842.21" cy="2203.67" r="4" stroke="rgb(38,0,255)" stroke-width="2" fill="none"></circle>
<circle cx="3812.54" cy="1363.38" r="4" stroke="rgb(21,255,0)" stroke-width="2" fill="none"></circle>
<circle cx="8047.83" cy="2227.73" r="4" stroke="rgb(21,255,0)" stroke-width="2" fill="none"></circle>
<circle cx="3822.18" cy="1370.65" r="4" stroke="rgb(0,255,229)" stroke-width="2" fill="none"></circle>
<circle cx="7582.2" cy="2600" r="4" stroke="rgb(0,255,229)" stroke-width="2" fill="none"></circle>
<circle cx="714.402" cy="1373.63" r="4" stroke="rgb(229,0,255)" stroke-width="2" fill="none"></circle>
<circle cx="5311.42" cy="1380.96" r="4" stroke="rgb(229,0,255)" stroke-width="2" fill="none"></circle>
<circle cx="785.938" cy="1380.52" r="4" stroke="rgb(255,0,80)" stroke-width="2" fill="none"></circle>
<circle cx="4417.33" cy="1861.86" r="4" stroke="rgb(255,0,80)" stroke-width="2" fill="none"></circle>
<circle cx="3069.67" cy="1390.45" r="4" stroke="rgb(38,255,0)" stroke-width="2" fill="none"></circle>
<circle cx="6751.86" cy="1757.25" r="4" stroke="rgb(38,255,0)" stroke-width="2" fill="none"></circle>
<circle cx="3585.9" cy="1400.12" r="4" stroke="rgb(255,0,110)" stroke-width="2" fill="none"></circle>
<circle cx="6731.14" cy="1816.32" r="4" stroke="rgb(255,0,110)" stroke-width="2" fill="none"></circle>
<circle cx="3697.1" cy="1421.47" r="4" stroke="rgb(0,255,106)" stroke-width="2" fill="none"></circle>
<circle cx="6662.74" cy="1877.53" r="4" stroke="rgb(0,255,106)" stroke-width="2" fill="none"></circle>
<circle cx="1572.2" cy="1429.94" r="4" stroke="rgb(0,255,110)" stroke-width="2" fill="none"></circle>
<circle cx="6640.66" cy="1798.39" r="4" stroke="rgb(0,255,110)" stroke-width="2" fill="none"></circle>
<circle cx="2491.6" cy="1437.21" r="4" stroke="rgb(0,55,255)" stroke-width="2" fill="none"></circle>
<circle cx="4861.98" cy="1319.81" r="4" stroke="rgb(0,55,255)" stroke-width="2" fill="none"></circle>
<circle cx="1658.49" cy="1442.65" r="4" stroke="rgb(0,242,255)" stroke-width="2" fill="none"></circle>
<circle cx="7792.71" cy="1705.52" r="4" stroke="rgb(0,242,255)" stroke-width="2" fill="none"></circle>
<circle cx="2090.94" cy="1445.96" r="4" stroke="rgb(102,0,255)" stroke-width="2" fill="none"></circle>
<circle cx="7225.82" cy="1680.72" r="4" stroke="rgb(102,0,255)" stroke-width="2" fill="none"></circle>
<circle cx="1593.23" cy="1450.18" r="4" stroke="rgb(0,29,255)" stroke-width="2" fill="none"></circle>
<circle cx="6134.85" cy="1352.49" r="4" stroke="rgb(0,29,255)" stroke-width="2" fill="none"></circle>
<circle cx="1313.2" cy="1451.61" r="4" stroke="rgb(255,63,0)" stroke-width="2" fill="none"></circle>
<circle cx="5403.25" cy="2342.09" r="4" stroke="rgb(255,63,0)" stroke-width="2" fill="none"></circle>
<circle cx="3761.46" cy="1483.55" r="4" stroke="rgb(255,0,233)" stroke-width="2" fill="none"></circle>
<circle cx="7297.91" cy="2391.97" r="4" stroke="rgb(255,0,233)" stroke-width="2" fill="none"></circle>
<circle cx="1325.81" cy="1490.21" r="4" stroke="rgb(0,131,255)" stroke-width="2" fill="none"></circle>
<circle cx="6866.48" cy="1727.18" r="4" stroke="rgb(0,131,255)" stroke-width="2" fill="none"></circle>
<circle cx="1137.08" cy="1511.28" r="4" stroke="rgb(255,187,0)" stroke-width="2" fill="none"></circle>
<circle cx="5786.79" cy="1493.63" r="4" stroke="rgb(255,187,0)" stroke-width="2" fill="none"></circle>
<circle cx="3513.79" cy="1529.28" r="4" stroke="rgb(229,255,0)" stroke-width="2" fill="none"></circle>
<circle cx="6406.92" cy="1715.17" r="4" stroke="rgb(229,255,0)" stroke-width="2" fill="none"></circle>
<circle cx="3734.03" cy="1535.34" r="4" stroke="rgb(0,255,127)" stroke-width="2" fill="none"></circle>
<circle cx="7784.26" cy="2566.29" r="4" stroke="rgb(0,255,127)" stroke-width="2" fill="none"></circle>
<circle cx="1945.96" cy="1573.72" r="4" stroke="rgb(255,25,0)" stroke-width="2" fill="none"></circle>
<circle cx="6691.8" cy="1732.25" r="4" stroke="rgb(255,25,0)" stroke-width="2" fill="none"></circle>
<circle cx="3567.07" cy="1593.51" r="4" stroke="rgb(114,0,255)" stroke-width="2" fill="none"></circle>
<circle cx="6272.74" cy="1101.94" r="4" stroke="rgb(114,0,255)" stroke-width="2" fill="none"></circle>
<circle cx="1799.36" cy="1613.81" r="4" stroke="rgb(221,255,0)" stroke-width="2" fill="none"></circle>
<circle cx="6887.37" cy="1410.23" r="4" stroke="rgb(221,255,0)" stroke-width="2" fill="none"></circle>
<circle cx="3028.58" cy="1642.88" r="4" stroke="rgb(0,225,255)" stroke-width="2" fill="none"></circle>
<circle cx="7537.62" cy="1785.86" r="4" stroke="rgb(0,225,255)" stroke-width="2" fill="none"></circle>
<circle cx="2443.55" cy="1644.04" r="4" stroke="rgb(255,144,0)" stroke-width="2" fill="none"></circle>
<circle cx="6508.15" cy="1864.36" r="4" stroke="rgb(255,144,0)" stroke-width="2" fill="none"></circle>
<circle cx="2169.77" cy="1645.05" r="4" stroke="rgb(238,0,255)" stroke-width="2" fill="none"></circle>
<circle cx="6733.85" cy="1346.03" r="4" stroke="rgb(238,0,255)" stroke-width="2" fill="none"></circle>
<circle cx="765.282" cy="1678.5" r="4" stroke="rgb(255,208,0)" stroke-width="2" fill="none"></circle>
<circle cx="5573.37" cy="1966.24" r="4" stroke="rgb(255,208,0)" stroke-width="2" fill="none"></circle>
<circle cx="1917.03" cy="1697.52" r="4" stroke="rgb(182,255,0)" stroke-width="2" fill="none"></circle>
<circle cx="4943.27" cy="2768.21" r="4" stroke="rgb(182,255,0)" stroke-width="2" fill="none"></circle>
<circle cx="733.3" cy="1750.38" r="4" stroke="rgb(25,255,0)" stroke-width="2" fill="none"></circle>
<circle cx="4674.25" cy="963.135" r="4" stroke="rgb(25,255,0)" stroke-width="2" fill="none"></circle>
<circle cx="3496.76" cy="1759.15" r="4" stroke="rgb(140,0,255)" stroke-width="2" fill="none"></circle>
<circle cx="6907.92" cy="1244.54" r="4" stroke="rgb(140,0,255)" stroke-width="2" fill="none"></circle>
<circle cx="2409.47" cy="1849.75" r="4" stroke="rgb(0,46,255)" stroke-width="2" fill="none"></circle>
<circle cx="7184.72" cy="1727.08" r="4" stroke="rgb(0,46,255)" stroke-width="2" fill="none"></circle>
<circle cx="1248.49" cy="1856.46" r="4" stroke="rgb(0,255,152)" stroke-width="2" fill="none"></circle>
<circle cx="6993.36" cy="1876.08" r="4" stroke="rgb(0,255,152)" stroke-width="2" fill="none"></circle>
<circle cx="2302.53" cy="1872.59" r="4" stroke="rgb(255,148,0)" stroke-width="2" fill="none"></circle>
<circle cx="6114.99" cy="1576.73" r="4" stroke="rgb(255,148,0)" stroke-width="2" fill="none"></circle>
<circle cx="1302.76" cy="1897.41" r="4" stroke="rgb(255,0,68)" stroke-width="2" fill="none"></circle>
<circle cx="4384.64" cy="1649.61" r="4" stroke="rgb(255,0,68)" stroke-width="2" fill="none"></circle>
<circle cx="3054.08" cy="1908.58" r="4" stroke="rgb(0,161,255)" stroke-width="2" fill="none"></circle>
<circle cx="7191.56" cy="2654.97" r="4" stroke="rgb(0,161,255)" stroke-width="2" fill="none"></circle>
<circle cx="1351.32" cy="1956.86" r="4" stroke="rgb(255,0,131)" stroke-width="2" fill="none"></circle>
<circle cx="5914.46" cy="1179.42" r="4" stroke="rgb(255,0,131)" stroke-width="2" fill="none"></circle>
<circle cx="3525.8" cy="2058.05" r="4" stroke="rgb(255,0,148)" stroke-width="2" fill="none"></circle>
<circle cx="5940.93" cy="1689.7" r="4" stroke="rgb(255,0,148)" stroke-width="2" fill="none"></circle>
<circle cx="2188.25" cy="2060.56" r="4" stroke="rgb(0,233,255)" stroke-width="2" fill="none"></circle>
<circle cx="5902.01" cy="1268.48" r="4" stroke="rgb(0,233,255)" stroke-width="2" fill="none"></circle>
<circle cx="1524.26" cy="2064.74" r="4" stroke="rgb(0,255,237)" stroke-width="2" fill="none"></circle>
<circle cx="6636.39" cy="1753.56" r="4" stroke="rgb(0,255,237)" stroke-width="2" fill="none"></circle>
<circle cx="1379.65" cy="2093.11" r="4" stroke="rgb(255,0,76)" stroke-width="2" fill="none"></circle>
<circle cx="5597.01" cy="1855.57" r="4" stroke="rgb(255,0,76)" stroke-width="2" fill="none"></circle>
<circle cx="2467.07" cy="2099.34" r="4" stroke="rgb(255,0,123)" stroke-width="2" fill="none"></circle>
<circle cx="6983.96" cy="2981.09" r="4" stroke="rgb(255,0,123)" stroke-width="2" fill="none"></circle>
<circle cx="3865.19" cy="2158.44" r="4" stroke="rgb(255,182,0)" stroke-width="2" fill="none"></circle>
<circle cx="6859.15" cy="1640.97" r="4" stroke="rgb(255,182,0)" stroke-width="2" fill="none"></circle>
<circle cx="1306.1" cy="2194.16" r="4" stroke="rgb(0,255,195)" stroke-width="2" fill="none"></circle>
<circle cx="5743.96" cy="1666.19" r="4" stroke="rgb(0,255,195)" stroke-width="2" fill="none"></circle>
<circle cx="1322.8" cy="2195.43" r="4" stroke="rgb(0,17,255)" stroke-width="2" fill="none"></circle>
<circle cx="7708.92" cy="1474.34" r="4" stroke="rgb(0,17,255)" stroke-width="2" fill="none"></circle>
<circle cx="2015.22" cy="2211.99" r="4" stroke="rgb(153,0,255)" stroke-width="2" fill="none"></circle>
<circle cx="6858.27" cy="1407.07" r="4" stroke="rgb(153,0,255)" stroke-width="2" fill="none"></circle>
<circle cx="1330.18" cy="2253.09" r="4" stroke="rgb(255,225,0)" stroke-width="2" fill="none"></circle>
<circle cx="6388.22" cy="1638.42" r="4" stroke="rgb(255,225,0)" stroke-width="2" fill="none"></circle>
<circle cx="3752.78" cy="2318.29" r="4" stroke="rgb(255,225,0)" stroke-width="2" fill="none"></circle>
<circle cx="7674.59" cy="1764.71" r="4" stroke="rgb(255,225,0)" stroke-width="2" fill="none"></circle>
<circle cx="1030.32" cy="2365.01" r="4" stroke="rgb(255,0,12)" stroke-width="2" fill="none"></circle>
<circle cx="5517.85" cy="2011.62" r="4" stroke="rgb(255,0,12)" stroke-width="2" fill="none"></circle>
<circle cx="1458.89" cy="2447.34" r="4" stroke="rgb(97,255,0)" stroke-width="2" fill="none"></circle>
<circle cx="6573.19" cy="1669.96" r="4" stroke="rgb(97,255,0)" stroke-width="2" fill="none"></circle>
<circle cx="3215.82" cy="2458.53" r="4" stroke="rgb(255,0,38)" stroke-width="2" fill="none"></circle>
<circle cx="7555.79" cy="2809.25" r="4" stroke="rgb(255,0,38)" stroke-width="2" fill="none"></circle>
<circle cx="3906.43" cy="2470.57" r="4" stroke="rgb(255,80,0)" stroke-width="2" fill="none"></circle>
<circle cx="5064.35" cy="2898.72" r="4" stroke="rgb(255,80,0)" stroke-width="2" fill="none"></circle>
<circle cx="2493.38" cy="2484.18" r="4" stroke="rgb(255,0,106)" stroke-width="2" fill="none"></circle>
<circle cx="6620.47" cy="1024.03" r="4" stroke="rgb(255,0,106)" stroke-width="2" fill="none"></circle>
<circle cx="1515.11" cy="2535.74" r="4" stroke="rgb(76,0,255)" stroke-width="2" fill="none"></circle>
<circle cx="5543.5" cy="1561.82" r="4" stroke="rgb(76,0,255)" stroke-width="2" fill="none"></circle>
<circle cx="885.371" cy="2557.84" r="4" stroke="rgb(255,0,174)" stroke-width="2" fill="none"></circle>
<circle cx="7196.45" cy="1061.06" r="4" stroke="rgb(255,0,174)" stroke-width="2" fill="none"></circle>
<circle cx="2420.69" cy="2599.77" r="4" stroke="rgb(0,255,182)" stroke-width="2" fill="none"></circle>
<circle cx="5672.96" cy="1952.48" r="4" stroke="rgb(0,255,182)" stroke-width="2" fill="none"></circle>
<circle cx="2611.35" cy="2604.61" r="4" stroke="rgb(0,255,191)" stroke-width="2" fill="none"></circle>
<circle cx="6543.63" cy="1939.59" r="4" stroke="rgb(0,255,191)" stroke-width="2" fill="none"></circle>
<circle cx="2684.24" cy="2616.57" r="4" stroke="rgb(67,0,255)" stroke-width="2" fill="none"></circle>
<circle cx="7790.85" cy="1084.46" r="4" stroke="rgb(67,0,255)" stroke-width="2" fill="none"></circle>
<circle cx="1926.48" cy="2650.58" r="4" stroke="rgb(153,255,0)" stroke-width="2" fill="none"></circle>
<circle cx="5998.2" cy="1757.72" r="4" stroke="rgb(153,255,0)" stroke-width="2" fill="none"></circle>
<circle cx="910.291" cy="2680.28" r="4" stroke="rgb(8,0,255)" stroke-width="2" fill="none"></circle>
<circle cx="7085.22" cy="1840.01" r="4" stroke="rgb(8,0,255)" stroke-width="2" fill="none"></circle>
<circle cx="3753.09" cy="2700.44" r="4" stroke="rgb(255,42,0)" stroke-width="2" fill="none"></circle>
<circle cx="6263.1" cy="1022.71" r="4" stroke="rgb(255,42,0)" stroke-width="2" fill="none"></circle>
<circle cx="3899.34" cy="2705.01" r="4" stroke="rgb(255,0,12)" stroke-width="2" fill="none"></circle>
<circle cx="5882.55" cy="1243.67" r="4" stroke="rgb(255,0,12)" stroke-width="2" fill="none"></circle>
<circle cx="2722.79" cy="2774.92" r="4" stroke="rgb(38,255,0)" stroke-width="2" fill="none"></circle>
<circle cx="5105.42" cy="2868.06" r="4" stroke="rgb(38,255,0)" stroke-width="2" fill="none"></circle>
<circle cx="735.273" cy="2781.67" r="4" stroke="rgb(255,161,0)" stroke-width="2" fill="none"></circle>
<circle cx="6783.94" cy="1859.93" r="4" stroke="rgb(255,161,0)" stroke-width="2" fill="none"></circle>
<circle cx="734.003" cy="2783.12" r="4" stroke="rgb(255,136,0)" stroke-width="2" fill="none"></circle>
<circle cx="6430.57" cy="986.084" r="4" stroke="rgb(255,136,0)" stroke-width="2" fill="none"></circle>
<circle cx="395.095" cy="2798.23" r="4" stroke="rgb(255,0,140)" stroke-width="2" fill="none"></circle>
<circle cx="6436.14" cy="993.075" r="4" stroke="rgb(255,0,140)" stroke-width="2" fill="none"></circle>
<circle cx="2918.68" cy="2866" r="4" stroke="rgb(33,255,0)" stroke-width="2" fill="none"></circle>
<circle cx="7592.87" cy="2478.11" r="4" stroke="rgb(33,255,0)" stroke-width="2" fill="none"></circle>
<circle cx="2648.12" cy="2923.87" r="4" stroke="rgb(0,25,255)" stroke-width="2" fill="none"></circle>
<circle cx="7917.53" cy="2093.38" r="4" stroke="rgb(0,25,255)" stroke-width="2" fill="none"></circle>
</svg>