<?xml version="1.0" standalone="yes"?>
<!-- SVG graphic -->
<svg xmlns='http://www.w3.org/2000/svg' xmlns:xlink='http://www.w3.org/1999/xlink'
width="8064px" height="3024px" preserveAspectRatio="xMinYMin meet" viewBox="0 0 8064 3024" version="1.1">
<image x="0" y="0" width="4032px" height="3024px" opacity="1" xlink:href="/home/jeong/Code/2D-to-3D-Modeling-using-AI/Make3D/Image/20200227_180801.jpg"/>
<image x="4032" y="0" width="4032px" height="3024px" opacity="1" xlink:href="/home/jeong/Code/2D-to-3D-Modeling-using-AI/Make3D/Image/20200227_180808.jpg"/>
<polyline points="3518.11,11.2479,7746.51,2865.53" stroke="rgb(255,0,38)" stroke-width="2" fill="none"></polyline>
<polyline points="2836.54,30.3498,7790.43,2673.92" stroke="rgb(250,255,0)" stroke-width="2" fill="none"></polyline>
<polyline points="3622.44,38.2322,7999.86,2331.79" stroke="rgb(0,187,255)" stroke-width="2" fill="none"></polyline>
<polyline points="3303.48,58.7753,6996.26,1273.94" stroke="rgb(0,255,118)" stroke-width="2" fill="none"></polyline>
<polyline points="3542.17,77.013,6685.68,1704.92" stroke="rgb(0,255,76)" stroke-width="2" fill="none"></polyline>
<polyline points="3760.12,80.0279,5870.05,1829.12" stroke="rgb(255,221,0)" stroke-width="2" fill="none"></polyline>
<polyline points="1066.49,168.374,5936.5,2085.44" stroke="rgb(255,0,250)" stroke-width="2" fill="none"></polyline>
<polyline points="3538.62,174.718,7107.82,1381.71" stroke="rgb(0,229,255)" stroke-width="2" fill="none"></polyline>
<polyline points="1135.04,182.984,5683.07,1998.05" stroke="rgb(255,17,0)" stroke-width="2" fill="none"></polyline>
<polyline points="4000.71,196.76,6794.94,1225.3" stroke="rgb(208,0,255)" stroke-width="2" fill="none"></polyline>
<polyline points="4002.72,201.962,6190.65,1837.74" stroke="rgb(0,255,25)" stroke-width="2" fill="none"></polyline>
<polyline points="1260.33,233.285,6604.16,1819.06" stroke="rgb(169,255,0)" stroke-width="2" fill="none"></polyline>
<polyline points="1802.55,283.083,6529.95,2135.16" stroke="rgb(55,255,0)" stroke-width="2" fill="none"></polyline>
<polyline points="2136.18,311.799,4514.13,806.234" stroke="rgb(255,0,204)" stroke-width="2" fill="none"></polyline>
<polyline points="1265.31,322.283,7965.97,2266.93" stroke="rgb(255,191,0)" stroke-width="2" fill="none"></polyline>
<polyline points="1197.99,331.64,6432.97,1956.71" stroke="rgb(0,17,255)" stroke-width="2" fill="none"></polyline>
<polyline points="3812.96,364.374,6946.78,1777.47" stroke="rgb(0,17,255)" stroke-width="2" fill="none"></polyline>
<polyline points="3298.5,368.218,6950.92,1345.37" stroke="rgb(0,38,255)" stroke-width="2" fill="none"></polyline>
<polyline points="3867.72,372.319,6240.32,1978.14" stroke="rgb(255,0,80)" stroke-width="2" fill="none"></polyline>
<polyline points="1354.57,406.915,6603.23,2116.35" stroke="rgb(161,0,255)" stroke-width="2" fill="none"></polyline>
<polyline points="3690.13,411.274,6783.52,1225.3" stroke="rgb(140,0,255)" stroke-width="2" fill="none"></polyline>
<polyline points="2888.96,423.808,7001.97,2931.72" stroke="rgb(255,110,0)" stroke-width="2" fill="none"></polyline>
<polyline points="3604.14,443.869,5923.13,1788.31" stroke="rgb(51,255,0)" stroke-width="2" fill="none"></polyline>
<polyline points="723.992,450.307,6993.48,1306.23" stroke="rgb(255,0,38)" stroke-width="2" fill="none"></polyline>
<polyline points="698.87,455.516,5311.42,1380.96" stroke="rgb(250,255,0)" stroke-width="2" fill="none"></polyline>
<polyline points="2493.5,460.131,5388.58,1268.94" stroke="rgb(89,0,255)" stroke-width="2" fill="none"></polyline>
<polyline points="3714.26,460.856,6390.95,1809.03" stroke="rgb(212,255,0)" stroke-width="2" fill="none"></polyline>
<polyline points="1494.09,480.292,4350.92,1004.82" stroke="rgb(0,127,255)" stroke-width="2" fill="none"></polyline>
<polyline points="3346.1,491.346,6410.33,1999.88" stroke="rgb(255,0,68)" stroke-width="2" fill="none"></polyline>
<polyline points="2893.92,500.409,7842.94,2475.87" stroke="rgb(0,119,255)" stroke-width="2" fill="none"></polyline>
<polyline points="3519.11,548.056,7533.9,2951.84" stroke="rgb(0,33,255)" stroke-width="2" fill="none"></polyline>
<polyline points="3568.22,562.222,6737.41,1945.19" stroke="rgb(0,140,255)" stroke-width="2" fill="none"></polyline>
<polyline points="625.854,584.801,7554.66,2698.58" stroke="rgb(144,0,255)" stroke-width="2" fill="none"></polyline>
<polyline points="3296.85,587.696,6672.82,1665.9" stroke="rgb(254,0,255)" stroke-width="2" fill="none"></polyline>
<polyline points="2275.23,599.86,5462.64,1190.06" stroke="rgb(0,51,255)" stroke-width="2" fill="none"></polyline>
<polyline points="598.929,617.8,7530.53,2445.69" stroke="rgb(186,0,255)" stroke-width="2" fill="none"></polyline>
<polyline points="885.766,634.59,6247.66,1291.08" stroke="rgb(0,67,255)" stroke-width="2" fill="none"></polyline>
<polyline points="1628.99,637.152,6873.25,1255.76" stroke="rgb(0,255,208)" stroke-width="2" fill="none"></polyline>
<polyline points="3667.99,640.107,5479.87,1551.4" stroke="rgb(42,255,0)" stroke-width="2" fill="none"></polyline>
<polyline points="3510.03,646.607,5847.23,1749.95" stroke="rgb(80,255,0)" stroke-width="2" fill="none"></polyline>
<polyline points="1612.54,663.329,5667.32,1909.07" stroke="rgb(255,0,127)" stroke-width="2" fill="none"></polyline>
<polyline points="831.391,695.305,6008.84,1239.27" stroke="rgb(0,17,255)" stroke-width="2" fill="none"></polyline>
<polyline points="1429.9,725.889,6437.8,1892" stroke="rgb(0,250,255)" stroke-width="2" fill="none"></polyline>
<polyline points="577.377,779.443,6516.7,2109.96" stroke="rgb(182,255,0)" stroke-width="2" fill="none"></polyline>
<polyline points="1479.09,785.806,6103.89,1463.55" stroke="rgb(255,255,0)" stroke-width="2" fill="none"></polyline>
<polyline points="3109.67,822.973,6077.06,1589.89" stroke="rgb(0,59,255)" stroke-width="2" fill="none"></polyline>
<polyline points="1399.17,823.253,5925.04,1761.5" stroke="rgb(0,233,255)" stroke-width="2" fill="none"></polyline>
<polyline points="1709.12,825.949,6275.34,1905.62" stroke="rgb(238,0,255)" stroke-width="2" fill="none"></polyline>
<polyline points="3242.82,845.012,6268.79,1226.1" stroke="rgb(255,0,127)" stroke-width="2" fill="none"></polyline>
<polyline points="109.596,859.746,5188.29,377.449" stroke="rgb(0,255,195)" stroke-width="2" fill="none"></polyline>
<polyline points="3137.54,890.859,6626,1576.25" stroke="rgb(140,255,0)" stroke-width="2" fill="none"></polyline>
<polyline points="3566.51,909.618,6641.76,1469.51" stroke="rgb(12,0,255)" stroke-width="2" fill="none"></polyline>
<polyline points="2164.49,931.418,5754.86,1757.51" stroke="rgb(0,199,255)" stroke-width="2" fill="none"></polyline>
<polyline points="1271.14,957.842,5529.73,1411.41" stroke="rgb(0,191,255)" stroke-width="2" fill="none"></polyline>
<polyline points="1243.3,963.102,5663.31,1140.4" stroke="rgb(0,25,255)" stroke-width="2" fill="none"></polyline>
<polyline points="3368.85,981.459,6535.95,1874.6" stroke="rgb(0,255,25)" stroke-width="2" fill="none"></polyline>
<polyline points="1738.88,1062.89,6786.51,1903.11" stroke="rgb(101,255,0)" stroke-width="2" fill="none"></polyline>
<polyline points="3853.33,1175.56,6685.52,1170.78" stroke="rgb(0,255,237)" stroke-width="2" fill="none"></polyline>
<polyline points="1663.07,1223.17,6134.85,1352.49" stroke="rgb(255,0,101)" stroke-width="2" fill="none"></polyline>
<polyline points="1347.12,1241.63,5854.08,1388.6" stroke="rgb(255,0,204)" stroke-width="2" fill="none"></polyline>
<polyline points="3143.95,1245.79,7845.58,2042.33" stroke="rgb(89,0,255)" stroke-width="2" fill="none"></polyline>
<polyline points="1244.34,1292.78,6039.07,1228.71" stroke="rgb(169,255,0)" stroke-width="2" fill="none"></polyline>
<polyline points="1280.48,1418.48,5762.07,1527.54" stroke="rgb(255,136,0)" stroke-width="2" fill="none"></polyline>
<polyline points="3713.23,1494.67,7910.73,2063.03" stroke="rgb(255,199,0)" stroke-width="2" fill="none"></polyline>
<polyline points="1581.82,1524.49,6712.28,1122.27" stroke="rgb(255,89,0)" stroke-width="2" fill="none"></polyline>
<polyline points="995.904,1573.37,4899.53,1771.09" stroke="rgb(85,0,255)" stroke-width="2" fill="none"></polyline>
<polyline points="1668.38,1589.42,5754.56,1831.22" stroke="rgb(255,0,123)" stroke-width="2" fill="none"></polyline>
<polyline points="2265.16,1613.95,5393.61,1445.78" stroke="rgb(21,0,255)" stroke-width="2" fill="none"></polyline>
<polyline points="1886.57,1615.15,6675.04,1928.48" stroke="rgb(216,255,0)" stroke-width="2" fill="none"></polyline>
<polyline points="2561.11,1617.32,6311.92,1917.73" stroke="rgb(165,255,0)" stroke-width="2" fill="none"></polyline>
<polyline points="770.626,1619.37,6514.9,2101.8" stroke="rgb(0,93,255)" stroke-width="2" fill="none"></polyline>
<polyline points="1651.71,1635.18,5456.2,1721.51" stroke="rgb(255,165,0)" stroke-width="2" fill="none"></polyline>
<polyline points="3047.17,1693.25,7772.1,2326.64" stroke="rgb(0,216,255)" stroke-width="2" fill="none"></polyline>
<polyline points="1690.23,1731.85,6723.67,1247.54" stroke="rgb(255,165,0)" stroke-width="2" fill="none"></polyline>
<polyline points="1400.44,1747.62,5816.08,2039.52" stroke="rgb(255,0,51)" stroke-width="2" fill="none"></polyline>
<polyline points="1652.45,1756.91,6636.39,1753.56" stroke="rgb(38,0,255)" stroke-width="2" fill="none"></polyline>
<polyline points="1409.21,1800.11,6083.98,975.962" stroke="rgb(110,0,255)" stroke-width="2" fill="none"></polyline>
<polyline points="2562.66,1828.93,7140.43,1127.9" stroke="rgb(0,255,225)" stroke-width="2" fill="none"></polyline>
<polyline points="3701.01,1837.51,7434.38,3003.29" stroke="rgb(255,242,0)" stroke-width="2" fill="none"></polyline>
<polyline points="3960.4,1849.24,6218.34,1941.86" stroke="rgb(0,17,255)" stroke-width="2" fill="none"></polyline>
<polyline points="1884.2,1869.08,5073.57,1507.96" stroke="rgb(255,0,89)" stroke-width="2" fill="none"></polyline>
<polyline points="1749.94,1904.79,7001.36,1650.65" stroke="rgb(0,255,101)" stroke-width="2" fill="none"></polyline>
<polyline points="3016.82,1987.26,7012.12,2139.1" stroke="rgb(255,0,38)" stroke-width="2" fill="none"></polyline>
<polyline points="1578.69,2003.92,6866.65,1398.56" stroke="rgb(255,187,0)" stroke-width="2" fill="none"></polyline>
<polyline points="3970.23,2006.31,6087.11,1308.39" stroke="rgb(0,119,255)" stroke-width="2" fill="none"></polyline>
<polyline points="1608.39,2011.37,5686.5,1964.34" stroke="rgb(93,255,0)" stroke-width="2" fill="none"></polyline>
<polyline points="2569.09,2032.56,6716.59,2094.73" stroke="rgb(0,255,212)" stroke-width="2" fill="none"></polyline>
<polyline points="1223.19,2093.29,6030.54,1324.6" stroke="rgb(255,0,221)" stroke-width="2" fill="none"></polyline>
<polyline points="2115.53,2129.52,6724.47,1389.02" stroke="rgb(144,0,255)" stroke-width="2" fill="none"></polyline>
<polyline points="3945.17,2174.07,6856.34,1771.85" stroke="rgb(255,80,0)" stroke-width="2" fill="none"></polyline>
<polyline points="525.349,2181.65,5851.94,1176.58" stroke="rgb(0,255,55)" stroke-width="2" fill="none"></polyline>
<polyline points="1511.15,2186.99,5773.98,1987.39" stroke="rgb(255,199,0)" stroke-width="2" fill="none"></polyline>
<polyline points="3985.47,2209.01,6619.54,2044.7" stroke="rgb(89,255,0)" stroke-width="2" fill="none"></polyline>
<polyline points="3549.55,2268.2,7616.91,2776.77" stroke="rgb(255,157,0)" stroke-width="2" fill="none"></polyline>
<polyline points="2083.7,2278.63,4389.53,1544.55" stroke="rgb(110,255,0)" stroke-width="2" fill="none"></polyline>
<polyline points="2563.81,2308.34,6620.47,1024.03" stroke="rgb(255,0,33)" stroke-width="2" fill="none"></polyline>
<polyline points="3562.06,2343.71,6526.92,1985.02" stroke="rgb(242,0,255)" stroke-width="2" fill="none"></polyline>
<polyline points="1660.72,2375.93,6787.64,1620.39" stroke="rgb(233,255,0)" stroke-width="2" fill="none"></polyline>
<polyline points="915.234,2448.24,4121.92,2023.16" stroke="rgb(42,255,0)" stroke-width="2" fill="none"></polyline>
<polyline points="1451.49,2475.58,5449.87,1783.25" stroke="rgb(0,8,255)" stroke-width="2" fill="none"></polyline>
<polyline points="2542.32,2493.32,6436.14,993.075" stroke="rgb(0,255,110)" stroke-width="2" fill="none"></polyline>
<polyline points="2587.87,2495.11,7035.13,1068.22" stroke="rgb(255,0,136)" stroke-width="2" fill="none"></polyline>
<polyline points="1546.51,2518.74,7931.9,1822.13" stroke="rgb(0,255,123)" stroke-width="2" fill="none"></polyline>
<polyline points="2424.2,2524.74,5820.24,1609.08" stroke="rgb(0,140,255)" stroke-width="2" fill="none"></polyline>
<polyline points="3726.15,2551.55,7706.97,2764.13" stroke="rgb(255,34,0)" stroke-width="2" fill="none"></polyline>
<polyline points="481.321,2589.65,5657.72,248.842" stroke="rgb(0,255,72)" stroke-width="2" fill="none"></polyline>
<polyline points="2741,2603.05,7257.56,1416.16" stroke="rgb(255,0,136)" stroke-width="2" fill="none"></polyline>
<polyline points="1697.06,2621.95,6602.68,999.619" stroke="rgb(0,255,110)" stroke-width="2" fill="none"></polyline>
<polyline points="840.174,2625.36,5882.35,930.988" stroke="rgb(255,0,212)" stroke-width="2" fill="none"></polyline>
<polyline points="2978.25,2643.7,5741.57,2100.67" stroke="rgb(255,110,0)" stroke-width="2" fill="none"></polyline>
<polyline points="3867.27,2648.89,6684.73,1884.09" stroke="rgb(59,0,255)" stroke-width="2" fill="none"></polyline>
<polyline points="3286.81,2664.57,7494.26,2987.55" stroke="rgb(208,0,255)" stroke-width="2" fill="none"></polyline>
<polyline points="3695.05,2687.69,6767.96,1824.88" stroke="rgb(0,255,212)" stroke-width="2" fill="none"></polyline>
<polyline points="3691.49,2703.62,6551.4,2092.01" stroke="rgb(12,255,0)" stroke-width="2" fill="none"></polyline>
<polyline points="2682.13,2704.79,6889.06,1135.07" stroke="rgb(255,0,110)" stroke-width="2" fill="none"></polyline>
<polyline points="465.004,2705.16,5437.53,1325.13" stroke="rgb(255,93,0)" stroke-width="2" fill="none"></polyline>
<polyline points="3586.53,2709.28,7685.4,2684.44" stroke="rgb(0,106,255)" stroke-width="2" fill="none"></polyline>
<polyline points="3011.87,2715.62,7729.16,2459.99" stroke="rgb(255,68,0)" stroke-width="2" fill="none"></polyline>
<polyline points="2987.55,2727.76,7397,2946.97" stroke="rgb(0,157,255)" stroke-width="2" fill="none"></polyline>
<polyline points="3934.98,2750.3,6027.03,957.642" stroke="rgb(255,8,0)" stroke-width="2" fill="none"></polyline>
<polyline points="3915.73,2765.88,5201.66,2077.25" stroke="rgb(114,0,255)" stroke-width="2" fill="none"></polyline>
<polyline points="2876.21,2779.14,7285.1,1251.56" stroke="rgb(0,135,255)" stroke-width="2" fill="none"></polyline>
<polyline points="3839.17,2789.8,6071.48,1421.6" stroke="rgb(255,208,0)" stroke-width="2" fill="none"></polyline>
<polyline points="764.156,2795.8,4705.35,1013.03" stroke="rgb(0,4,255)" stroke-width="2" fill="none"></polyline>
<polyline points="2358.23,2888.55,7406.08,2794.13" stroke="rgb(21,0,255)" stroke-width="2" fill="none"></polyline>
<polyline points="2965.82,2889.64,8015.74,2337.82" stroke="rgb(0,255,101)" stroke-width="2" fill="none"></polyline>
<polyline points="2624.86,2947.89,7525.51,1797.38" stroke="rgb(0,38,255)" stroke-width="2" fill="none"></polyline>
<polyline points="3919.95,3013.21,8061.09,2595.16" stroke="rgb(0,246,255)" stroke-width="2" fill="none"></polyline>
<circle cx="3518.11" cy="11.2479" r="4" stroke="rgb(255,0,38)" stroke-width="2" fill="none"></circle>
<circle cx="7746.51" cy="2865.53" r="4" stroke="rgb(255,0,38)" stroke-width="2" fill="none"></circle>
<circle cx="2836.54" cy="30.3498" r="4" stroke="rgb(250,255,0)" stroke-width="2" fill="none"></circle>
<circle cx="7790.43" cy="2673.92" r="4" stroke="rgb(250,255,0)" stroke-width="2" fill="none"></circle>
<circle cx="3622.44" cy="38.2322" r="4" stroke="rgb(0,187,255)" stroke-width="2" fill="none"></circle>
<circle cx="7999.86" cy="2331.79" r="4" stroke="rgb(0,187,255)" stroke-width="2" fill="none"></circle>
<circle cx="3303.48" cy="58.7753" r="4" stroke="rgb(0,255,118)" stroke-width="2" fill="none"></circle>
<circle cx="6996.26" cy="1273.94" r="4" stroke="rgb(0,255,118)" stroke-width="2" fill="none"></circle>
<circle cx="3542.17" cy="77.013" r="4" stroke="rgb(0,255,76)" stroke-width="2" fill="none"></circle>
<circle cx="6685.68" cy="1704.92" r="4" stroke="rgb(0,255,76)" stroke-width="2" fill="none"></circle>
<circle cx="3760.12" cy="80.0279" r="4" stroke="rgb(255,221,0)" stroke-width="2" fill="none"></circle>
<circle cx="5870.05" cy="1829.12" r="4" stroke="rgb(255,221,0)" stroke-width="2" fill="none"></circle>
<circle cx="1066.49" cy="168.374" r="4" stroke="rgb(255,0,250)" stroke-width="2" fill="none"></circle>
<circle cx="5936.5" cy="2085.44" r="4" stroke="rgb(255,0,250)" stroke-width="2" fill="none"></circle>
<circle cx="3538.62" cy="174.718" r="4" stroke="rgb(0,229,255)" stroke-width="2" fill="none"></circle>
<circle cx="7107.82" cy="1381.71" r="4" stroke="rgb(0,229,255)" stroke-width="2" fill="none"></circle>
<circle cx="1135.04" cy="182.984" r="4" stroke="rgb(255,17,0)" stroke-width="2" fill="none"></circle>
<circle cx="5683.07" cy="1998.05" r="4" stroke="rgb(255,17,0)" stroke-width="2" fill="none"></circle>
<circle cx="4000.71" cy="196.76" r="4" stroke="rgb(208,0,255)" stroke-width="2" fill="none"></circle>
<circle cx="6794.94" cy="1225.3" r="4" stroke="rgb(208,0,255)" stroke-width="2" fill="none"></circle>
<circle cx="4002.72" cy="201.962" r="4" stroke="rgb(0,255,25)" stroke-width="2" fill="none"></circle>
<circle cx="6190.65" cy="1837.74" r="4" stroke="rgb(0,255,25)" stroke-width="2" fill="none"></circle>
<circle cx="1260.33" cy="233.285" r="4" stroke="rgb(169,255,0)" stroke-width="2" fill="none"></circle>
<circle cx="6604.16" cy="1819.06" r="4" stroke="rgb(169,255,0)" stroke-width="2" fill="none"></circle>
<circle cx="1802.55" cy="283.083" r="4" stroke="rgb(55,255,0)" stroke-width="2" fill="none"></circle>
<circle cx="6529.95" cy="2135.16" r="4" stroke="rgb(55,255,0)" stroke-width="2" fill="none"></circle>
<circle cx="2136.18" cy="311.799" r="4" stroke="rgb(255,0,204)" stroke-width="2" fill="none"></circle>
<circle cx="4514.13" cy="806.234" r="4" stroke="rgb(255,0,204)" stroke-width="2" fill="none"></circle>
<circle cx="1265.31" cy="322.283" r="4" stroke="rgb(255,191,0)" stroke-width="2" fill="none"></circle>
<circle cx="7965.97" cy="2266.93" r="4" stroke="rgb(255,191,0)" stroke-width="2" fill="none"></circle>
<circle cx="1197.99" cy="331.64" r="4" stroke="rgb(0,17,255)" stroke-width="2" fill="none"></circle>
<circle cx="6432.97" cy="1956.71" r="4" stroke="rgb(0,17,255)" stroke-width="2" fill="none"></circle>
<circle cx="3812.96" cy="364.374" r="4" stroke="rgb(0,17,255)" stroke-width="2" fill="none"></circle>
<circle cx="6946.78" cy="1777.47" r="4" stroke="rgb(0,17,255)" stroke-width="2" fill="none"></circle>
<circle cx="3298.5" cy="368.218" r="4" stroke="rgb(0,38,255)" stroke-width="2" fill="none"></circle>
<circle cx="6950.92" cy="1345.37" r="4" stroke="rgb(0,38,255)" stroke-width="2" fill="none"></circle>
<circle cx="3867.72" cy="372.319" r="4" stroke="rgb(255,0,80)" stroke-width="2" fill="none"></circle>
<circle cx="6240.32" cy="1978.14" r="4" stroke="rgb(255,0,80)" stroke-width="2" fill="none"></circle>
<circle cx="1354.57" cy="406.915" r="4" stroke="rgb(161,0,255)" stroke-width="2" fill="none"></circle>
<circle cx="6603.23" cy="2116.35" r="4" stroke="rgb(161,0,255)" stroke-width="2" fill="none"></circle>
<circle cx="3690.13" cy="411.274" r="4" stroke="rgb(140,0,255)" stroke-width="2" fill="none"></circle>
<circle cx="6783.52" cy="1225.3" r="4" stroke="rgb(140,0,255)" stroke-width="2" fill="none"></circle>
<circle cx="2888.96" cy="423.808" r="4" stroke="rgb(255,110,0)" stroke-width="2" fill="none"></circle>
<circle cx="7001.97" cy="2931.72" r="4" stroke="rgb(255,110,0)" stroke-width="2" fill="none"></circle>
<circle cx="3604.14" cy="443.869" r="4" stroke="rgb(51,255,0)" stroke-width="2" fill="none"></circle>
<circle cx="5923.13" cy="1788.31" r="4" stroke="rgb(51,255,0)" stroke-width="2" fill="none"></circle>
<circle cx="723.992" cy="450.307" r="4" stroke="rgb(255,0,38)" stroke-width="2" fill="none"></circle>
<circle cx="6993.48" cy="1306.23" r="4" stroke="rgb(255,0,38)" stroke-width="2" fill="none"></circle>
<circle cx="698.87" cy="455.516" r="4" stroke="rgb(250,255,0)" stroke-width="2" fill="none"></circle>
<circle cx="5311.42" cy="1380.96" r="4" stroke="rgb(250,255,0)" stroke-width="2" fill="none"></circle>
<circle cx="2493.5" cy="460.131" r="4" stroke="rgb(89,0,255)" stroke-width="2" fill="none"></circle>
<circle cx="5388.58" cy="1268.94" r="4" stroke="rgb(89,0,255)" stroke-width="2" fill="none"></circle>
<circle cx="3714.26" cy="460.856" r="4" stroke="rgb(212,255,0)" stroke-width="2" fill="none"></circle>
<circle cx="6390.95" cy="1809.03" r="4" stroke="rgb(212,255,0)" stroke-width="2" fill="none"></circle>
<circle cx="1494.09" cy="480.292" r="4" stroke="rgb(0,127,255)" stroke-width="2" fill="none"></circle>
<circle cx="4350.92" cy="1004.82" r="4" stroke="rgb(0,127,255)" stroke-width="2" fill="none"></circle>
<circle cx="3346.1" cy="491.346" r="4" stroke="rgb(255,0,68)" stroke-width="2" fill="none"></circle>
<circle cx="6410.33" cy="1999.88" r="4" stroke="rgb(255,0,68)" stroke-width="2" fill="none"></circle>
<circle cx="2893.92" cy="500.409" r="4" stroke="rgb(0,119,255)" stroke-width="2" fill="none"></circle>
<circle cx="7842.94" cy="2475.87" r="4" stroke="rgb(0,119,255)" stroke-width="2" fill="none"></circle>
<circle cx="3519.11" cy="548.056" r="4" stroke="rgb(0,33,255)" stroke-width="2" fill="none"></circle>
<circle cx="7533.9" cy="2951.84" r="4" stroke="rgb(0,33,255)" stroke-width="2" fill="none"></circle>
<circle cx="3568.22" cy="562.222" r="4" stroke="rgb(0,140,255)" stroke-width="2" fill="none"></circle>
<circle cx="6737.41" cy="1945.19" r="4" stroke="rgb(0,140,255)" stroke-width="2" fill="none"></circle>
<circle cx="625.854" cy="584.801" r="4" stroke="rgb(144,0,255)" stroke-width="2" fill="none"></circle>
<circle cx="7554.66" cy="2698.58" r="4" stroke="rgb(144,0,255)" stroke-width="2" fill="none"></circle>
<circle cx="3296.85" cy="587.696" r="4" stroke="rgb(254,0,255)" stroke-width="2" fill="none"></circle>
<circle cx="6672.82" cy="1665.9" r="4" stroke="rgb(254,0,255)" stroke-width="2" fill="none"></circle>
<circle cx="2275.23" cy="599.86" r="4" stroke="rgb(0,51,255)" stroke-width="2" fill="none"></circle>
<circle cx="5462.64" cy="1190.06" r="4" stroke="rgb(0,51,255)" stroke-width="2" fill="none"></circle>
<circle cx="598.929" cy="617.8" r="4" stroke="rgb(186,0,255)" stroke-width="2" fill="none"></circle>
<circle cx="7530.53" cy="2445.69" r="4" stroke="rgb(186,0,255)" stroke-width="2" fill="none"></circle>
<circle cx="885.766" cy="634.59" r="4" stroke="rgb(0,67,255)" stroke-width="2" fill="none"></circle>
<circle cx="6247.66" cy="1291.08" r="4" stroke="rgb(0,67,255)" stroke-width="2" fill="none"></circle>
<circle cx="1628.99" cy="637.152" r="4" stroke="rgb(0,255,208)" stroke-width="2" fill="none"></circle>
<circle cx="6873.25" cy="1255.76" r="4" stroke="rgb(0,255,208)" stroke-width="2" fill="none"></circle>
<circle cx="3667.99" cy="640.107" r="4" stroke="rgb(42,255,0)" stroke-width="2" fill="none"></circle>
<circle cx="5479.87" cy="1551.4" r="4" stroke="rgb(42,255,0)" stroke-width="2" fill="none"></circle>
<circle cx="3510.03" cy="646.607" r="4" stroke="rgb(80,255,0)" stroke-width="2" fill="none"></circle>
<circle cx="5847.23" cy="1749.95" r="4" stroke="rgb(80,255,0)" stroke-width="2" fill="none"></circle>
<circle cx="1612.54" cy="663.329" r="4" stroke="rgb(255,0,127)" stroke-width="2" fill="none"></circle>
<circle cx="5667.32" cy="1909.07" r="4" stroke="rgb(255,0,127)" stroke-width="2" fill="none"></circle>
<circle cx="831.391" cy="695.305" r="4" stroke="rgb(0,17,255)" stroke-width="2" fill="none"></circle>
<circle cx="6008.84" cy="1239.27" r="4" stroke="rgb(0,17,255)" stroke-width="2" fill="none"></circle>
<circle cx="1429.9" cy="725.889" r="4" stroke="rgb(0,250,255)" stroke-width="2" fill="none"></circle>
<circle cx="6437.8" cy="1892" r="4" stroke="rgb(0,250,255)" stroke-width="2" fill="none"></circle>
<circle cx="577.377" cy="779.443" r="4" stroke="rgb(182,255,0)" stroke-width="2" fill="none"></circle>
<circle cx="6516.7" cy="2109.96" r="4" stroke="rgb(182,255,0)" stroke-width="2" fill="none"></circle>
<circle cx="1479.09" cy="785.806" r="4" stroke="rgb(255,255,0)" stroke-width="2" fill="none"></circle>
<circle cx="6103.89" cy="1463.55" r="4" stroke="rgb(255,255,0)" stroke-width="2" fill="none"></circle>
<circle cx="3109.67" cy="822.973" r="4" stroke="rgb(0,59,255)" stroke-width="2" fill="none"></circle>
<circle cx="6077.06" cy="1589.89" r="4" stroke="rgb(0,59,255)" stroke-width="2" fill="none"></circle>
<circle cx="1399.17" cy="823.253" r="4" stroke="rgb(0,233,255)" stroke-width="2" fill="none"></circle>
<circle cx="5925.04" cy="1761.5" r="4" stroke="rgb(0,233,255)" stroke-width="2" fill="none"></circle>
<circle cx="1709.12" cy="825.949" r="4" stroke="rgb(238,0,255)" stroke-width="2" fill="none"></circle>
<circle cx="6275.34" cy="1905.62" r="4" stroke="rgb(238,0,255)" stroke-width="2" fill="none"></circle>
<circle cx="3242.82" cy="845.012" r="4" stroke="rgb(255,0,127)" stroke-width="2" fill="none"></circle>
<circle cx="6268.79" cy="1226.1" r="4" stroke="rgb(255,0,127)" stroke-width="2" fill="none"></circle>
<circle cx="109.596" cy="859.746" r="4" stroke="rgb(0,255,195)" stroke-width="2" fill="none"></circle>
<circle cx="5188.29" cy="377.449" r="4" stroke="rgb(0,255,195)" stroke-width="2" fill="none"></circle>
<circle cx="3137.54" cy="890.859" r="4" stroke="rgb(140,255,0)" stroke-width="2" fill="none"></circle>
<circle cx="6626" cy="1576.25" r="4" stroke="rgb(140,255,0)" stroke-width="2" fill="none"></circle>
<circle cx="3566.51" cy="909.618" r="4" stroke="rgb(12,0,255)" stroke-width="2" fill="none"></circle>
<circle cx="6641.76" cy="1469.51" r="4" stroke="rgb(12,0,255)" stroke-width="2" fill="none"></circle>
<circle cx="2164.49" cy="931.418" r="4" stroke="rgb(0,199,255)" stroke-width="2" fill="none"></circle>
<circle cx="5754.86" cy="1757.51" r="4" stroke="rgb(0,199,255)" stroke-width="2" fill="none"></circle>
<circle cx="1271.14" cy="957.842" r="4" stroke="rgb(0,191,255)" stroke-width="2" fill="none"></circle>
<circle cx="5529.73" cy="1411.41" r="4" stroke="rgb(0,191,255)" stroke-width="2" fill="none"></circle>
<circle cx="1243.3" cy="963.102" r="4" stroke="rgb(0,25,255)" stroke-width="2" fill="none"></circle>
<circle cx="5663.31" cy="1140.4" r="4" stroke="rgb(0,25,255)" stroke-width="2" fill="none"></circle>
<circle cx="3368.85" cy="981.459" r="4" stroke="rgb(0,255,25)" stroke-width="2" fill="none"></circle>
<circle cx="6535.95" cy="1874.6" r="4" stroke="rgb(0,255,25)" stroke-width="2" fill="none"></circle>
<circle cx="1738.88" cy="1062.89" r="4" stroke="rgb(101,255,0)" stroke-width="2" fill="none"></circle>
<circle cx="6786.51" cy="1903.11" r="4" stroke="rgb(101,255,0)" stroke-width="2" fill="none"></circle>
<circle cx="3853.33" cy="1175.56" r="4" stroke="rgb(0,255,237)" stroke-width="2" fill="none"></circle>
<circle cx="6685.52" cy="1170.78" r="4" stroke="rgb(0,255,237)" stroke-width="2" fill="none"></circle>
<circle cx="1663.07" cy="1223.17" r="4" stroke="rgb(255,0,101)" stroke-width="2" fill="none"></circle>
<circle cx="6134.85" cy="1352.49" r="4" stroke="rgb(255,0,101)" stroke-width="2" fill="none"></circle>
<circle cx="1347.12" cy="1241.63" r="4" stroke="rgb(255,0,204)" stroke-width="2" fill="none"></circle>
<circle cx="5854.08" cy="1388.6" r="4" stroke="rgb(255,0,204)" stroke-width="2" fill="none"></circle>
<circle cx="3143.95" cy="1245.79" r="4" stroke="rgb(89,0,255)" stroke-width="2" fill="none"></circle>
<circle cx="7845.58" cy="2042.33" r="4" stroke="rgb(89,0,255)" stroke-width="2" fill="none"></circle>
<circle cx="1244.34" cy="1292.78" r="4" stroke="rgb(169,255,0)" stroke-width="2" fill="none"></circle>
<circle cx="6039.07" cy="1228.71" r="4" stroke="rgb(169,255,0)" stroke-width="2" fill="none"></circle>
<circle cx="1280.48" cy="1418.48" r="4" stroke="rgb(255,136,0)" stroke-width="2" fill="none"></circle>
<circle cx="5762.07" cy="1527.54" r="4" stroke="rgb(255,136,0)" stroke-width="2" fill="none"></circle>
<circle cx="3713.23" cy="1494.67" r="4" stroke="rgb(255,199,0)" stroke-width="2" fill="none"></circle>
<circle cx="7910.73" cy="2063.03" r="4" stroke="rgb(255,199,0)" stroke-width="2" fill="none"></circle>
<circle cx="1581.82" cy="1524.49" r="4" stroke="rgb(255,89,0)" stroke-width="2" fill="none"></circle>
<circle cx="6712.28" cy="1122.27" r="4" stroke="rgb(255,89,0)" stroke-width="2" fill="none"></circle>
<circle cx="995.904" cy="1573.37" r="4" stroke="rgb(85,0,255)" stroke-width="2" fill="none"></circle>
<circle cx="4899.53" cy="1771.09" r="4" stroke="rgb(85,0,255)" stroke-width="2" fill="none"></circle>
<circle cx="1668.38" cy="1589.42" r="4" stroke="rgb(255,0,123)" stroke-width="2" fill="none"></circle>
<circle cx="5754.56" cy="1831.22" r="4" stroke="rgb(255,0,123)" stroke-width="2" fill="none"></circle>
<circle cx="2265.16" cy="1613.95" r="4" stroke="rgb(21,0,255)" stroke-width="2" fill="none"></circle>
<circle cx="5393.61" cy="1445.78" r="4" stroke="rgb(21,0,255)" stroke-width="2" fill="none"></circle>
<circle cx="1886.57" cy="1615.15" r="4" stroke="rgb(216,255,0)" stroke-width="2" fill="none"></circle>
<circle cx="6675.04" cy="1928.48" r="4" stroke="rgb(216,255,0)" stroke-width="2" fill="none"></circle>
<circle cx="2561.11" cy="1617.32" r="4" stroke="rgb(165,255,0)" stroke-width="2" fill="none"></circle>
<circle cx="6311.92" cy="1917.73" r="4" stroke="rgb(165,255,0)" stroke-width="2" fill="none"></circle>
<circle cx="770.626" cy="1619.37" r="4" stroke="rgb(0,93,255)" stroke-width="2" fill="none"></circle>
<circle cx="6514.9" cy="2101.8" r="4" stroke="rgb(0,93,255)" stroke-width="2" fill="none"></circle>
<circle cx="1651.71" cy="1635.18" r="4" stroke="rgb(255,165,0)" stroke-width="2" fill="none"></circle>
<circle cx="5456.2" cy="1721.51" r="4" stroke="rgb(255,165,0)" stroke-width="2" fill="none"></circle>
<circle cx="3047.17" cy="1693.25" r="4" stroke="rgb(0,216,255)" stroke-width="2" fill="none"></circle>
<circle cx="7772.1" cy="2326.64" r="4" stroke="rgb(0,216,255)" stroke-width="2" fill="none"></circle>
<circle cx="1690.23" cy="1731.85" r="4" stroke="rgb(255,165,0)" stroke-width="2" fill="none"></circle>
<circle cx="6723.67" cy="1247.54" r="4" stroke="rgb(255,165,0)" stroke-width="2" fill="none"></circle>
<circle cx="1400.44" cy="1747.62" r="4" stroke="rgb(255,0,51)" stroke-width="2" fill="none"></circle>
<circle cx="5816.08" cy="2039.52" r="4" stroke="rgb(255,0,51)" stroke-width="2" fill="none"></circle>
<circle cx="1652.45" cy="1756.91" r="4" stroke="rgb(38,0,255)" stroke-width="2" fill="none"></circle>
<circle cx="6636.39" cy="1753.56" r="4" stroke="rgb(38,0,255)" stroke-width="2" fill="none"></circle>
<circle cx="1409.21" cy="1800.11" r="4" stroke="rgb(110,0,255)" stroke-width="2" fill="none"></circle>
<circle cx="6083.98" cy="975.962" r="4" stroke="rgb(110,0,255)" stroke-width="2" fill="none"></circle>
<circle cx="2562.66" cy="1828.93" r="4" stroke="rgb(0,255,225)" stroke-width="2" fill="none"></circle>
<circle cx="7140.43" cy="1127.9" r="4" stroke="rgb(0,255,225)" stroke-width="2" fill="none"></circle>
<circle cx="3701.01" cy="1837.51" r="4" stroke="rgb(255,242,0)" stroke-width="2" fill="none"></circle>
<circle cx="7434.38" cy="3003.29" r="4" stroke="rgb(255,242,0)" stroke-width="2" fill="none"></circle>
<circle cx="3960.4" cy="1849.24" r="4" stroke="rgb(0,17,255)" stroke-width="2" fill="none"></circle>
<circle cx="6218.34" cy="1941.86" r="4" stroke="rgb(0,17,255)" stroke-width="2" fill="none"></circle>
<circle cx="1884.2" cy="1869.08" r="4" stroke="rgb(255,0,89)" stroke-width="2" fill="none"></circle>
<circle cx="5073.57" cy="1507.96" r="4" stroke="rgb(255,0,89)" stroke-width="2" fill="none"></circle>
<circle cx="1749.94" cy="1904.79" r="4" stroke="rgb(0,255,101)" stroke-width="2" fill="none"></circle>
<circle cx="7001.36" cy="1650.65" r="4" stroke="rgb(0,255,101)" stroke-width="2" fill="none"></circle>
<circle cx="3016.82" cy="1987.26" r="4" stroke="rgb(255,0,38)" stroke-width="2" fill="none"></circle>
<circle cx="7012.12" cy="2139.1" r="4" stroke="rgb(255,0,38)" stroke-width="2" fill="none"></circle>
<circle cx="1578.69" cy="2003.92" r="4" stroke="rgb(255,187,0)" stroke-width="2" fill="none"></circle>
<circle cx="6866.65" cy="1398.56" r="4" stroke="rgb(255,187,0)" stroke-width="2" fill="none"></circle>
<circle cx="3970.23" cy="2006.31" r="4" stroke="rgb(0,119,255)" stroke-width="2" fill="none"></circle>
<circle cx="6087.11" cy="1308.39" r="4" stroke="rgb(0,119,255)" stroke-width="2" fill="none"></circle>
<circle cx="1608.39" cy="2011.37" r="4" stroke="rgb(93,255,0)" stroke-width="2" fill="none"></circle>
<circle cx="5686.5" cy="1964.34" r="4" stroke="rgb(93,255,0)" stroke-width="2" fill="none"></circle>
<circle cx="2569.09" cy="2032.56" r="4" stroke="rgb(0,255,212)" stroke-width="2" fill="none"></circle>
<circle cx="6716.59" cy="2094.73" r="4" stroke="rgb(0,255,212)" stroke-width="2" fill="none"></circle>
<circle cx="1223.19" cy="2093.29" r="4" stroke="rgb(255,0,221)" stroke-width="2" fill="none"></circle>
<circle cx="6030.54" cy="1324.6" r="4" stroke="rgb(255,0,221)" stroke-width="2" fill="none"></circle>
<circle cx="2115.53" cy="2129.52" r="4" stroke="rgb(144,0,255)" stroke-width="2" fill="none"></circle>
<circle cx="6724.47" cy="1389.02" r="4" stroke="rgb(144,0,255)" stroke-width="2" fill="none"></circle>
<circle cx="3945.17" cy="2174.07" r="4" stroke="rgb(255,80,0)" stroke-width="2" fill="none"></circle>
<circle cx="6856.34" cy="1771.85" r="4" stroke="rgb(255,80,0)" stroke-width="2" fill="none"></circle>
<circle cx="525.349" cy="2181.65" r="4" stroke="rgb(0,255,55)" stroke-width="2" fill="none"></circle>
<circle cx="5851.94" cy="1176.58" r="4" stroke="rgb(0,255,55)" stroke-width="2" fill="none"></circle>
<circle cx="1511.15" cy="2186.99" r="4" stroke="rgb(255,199,0)" stroke-width="2" fill="none"></circle>
<circle cx="5773.98" cy="1987.39" r="4" stroke="rgb(255,199,0)" stroke-width="2" fill="none"></circle>
<circle cx="3985.47" cy="2209.01" r="4" stroke="rgb(89,255,0)" stroke-width="2" fill="none"></circle>
<circle cx="6619.54" cy="2044.7" r="4" stroke="rgb(89,255,0)" stroke-width="2" fill="none"></circle>
<circle cx="3549.55" cy="2268.2" r="4" stroke="rgb(255,157,0)" stroke-width="2" fill="none"></circle>
<circle cx="7616.91" cy="2776.77" r="4" stroke="rgb(255,157,0)" stroke-width="2" fill="none"></circle>
<circle cx="2083.7" cy="2278.63" r="4" stroke="rgb(110,255,0)" stroke-width="2" fill="none"></circle>
<circle cx="4389.53" cy="1544.55" r="4" stroke="rgb(110,255,0)" stroke-width="2" fill="none"></circle>
<circle cx="2563.81" cy="2308.34" r="4" stroke="rgb(255,0,33)" stroke-width="2" fill="none"></circle>
<circle cx="6620.47" cy="1024.03" r="4" stroke="rgb(255,0,33)" stroke-width="2" fill="none"></circle>
<circle cx="3562.06" cy="2343.71" r="4" stroke="rgb(242,0,255)" stroke-width="2" fill="none"></circle>
<circle cx="6526.92" cy="1985.02" r="4" stroke="rgb(242,0,255)" stroke-width="2" fill="none"></circle>
<circle cx="1660.72" cy="2375.93" r="4" stroke="rgb(233,255,0)" stroke-width="2" fill="none"></circle>
<circle cx="6787.64" cy="1620.39" r="4" stroke="rgb(233,255,0)" stroke-width="2" fill="none"></circle>
<circle cx="915.234" cy="2448.24" r="4" stroke="rgb(42,255,0)" stroke-width="2" fill="none"></circle>
<circle cx="4121.92" cy="2023.16" r="4" stroke="rgb(42,255,0)" stroke-width="2" fill="none"></circle>
<circle cx="1451.49" cy="2475.58" r="4" stroke="rgb(0,8,255)" stroke-width="2" fill="none"></circle>
<circle cx="5449.87" cy="1783.25" r="4" stroke="rgb(0,8,255)" stroke-width="2" fill="none"></circle>
<circle cx="2542.32" cy="2493.32" r="4" stroke="rgb(0,255,110)" stroke-width="2" fill="none"></circle>
<circle cx="6436.14" cy="993.075" r="4" stroke="rgb(0,255,110)" stroke-width="2" fill="none"></circle>
<circle cx="2587.87" cy="2495.11" r="4" stroke="rgb(255,0,136)" stroke-width="2" fill="none"></circle>
<circle cx="7035.13" cy="1068.22" r="4" stroke="rgb(255,0,136)" stroke-width="2" fill="none"></circle>
<circle cx="1546.51" cy="2518.74" r="4" stroke="rgb(0,255,123)" stroke-width="2" fill="none"></circle>
<circle cx="7931.9" cy="1822.13" r="4" stroke="rgb(0,255,123)" stroke-width="2" fill="none"></circle>
<circle cx="2424.2" cy="2524.74" r="4" stroke="rgb(0,140,255)" stroke-width="2" fill="none"></circle>
<circle cx="5820.24" cy="1609.08" r="4" stroke="rgb(0,140,255)" stroke-width="2" fill="none"></circle>
<circle cx="3726.15" cy="2551.55" r="4" stroke="rgb(255,34,0)" stroke-width="2" fill="none"></circle>
<circle cx="7706.97" cy="2764.13" r="4" stroke="rgb(255,34,0)" stroke-width="2" fill="none"></circle>
<circle cx="481.321" cy="2589.65" r="4" stroke="rgb(0,255,72)" stroke-width="2" fill="none"></circle>
<circle cx="5657.72" cy="248.842" r="4" stroke="rgb(0,255,72)" stroke-width="2" fill="none"></circle>
<circle cx="2741" cy="2603.05" r="4" stroke="rgb(255,0,136)" stroke-width="2" fill="none"></circle>
<circle cx="7257.56" cy="1416.16" r="4" stroke="rgb(255,0,136)" stroke-width="2" fill="none"></circle>
<circle cx="1697.06" cy="2621.95" r="4" stroke="rgb(0,255,110)" stroke-width="2" fill="none"></circle>
<circle cx="6602.68" cy="999.619" r="4" stroke="rgb(0,255,110)" stroke-width="2" fill="none"></circle>
<circle cx="840.174" cy="2625.36" r="4" stroke="rgb(255,0,212)" stroke-width="2" fill="none"></circle>
<circle cx="5882.35" cy="930.988" r="4" stroke="rgb(255,0,212)" stroke-width="2" fill="none"></circle>
<circle cx="2978.25" cy="2643.7" r="4" stroke="rgb(255,110,0)" stroke-width="2" fill="none"></circle>
<circle cx="5741.57" cy="2100.67" r="4" stroke="rgb(255,110,0)" stroke-width="2" fill="none"></circle>
<circle cx="3867.27" cy="2648.89" r="4" stroke="rgb(59,0,255)" stroke-width="2" fill="none"></circle>
<circle cx="6684.73" cy="1884.09" r="4" stroke="rgb(59,0,255)" stroke-width="2" fill="none"></circle>
<circle cx="3286.81" cy="2664.57" r="4" stroke="rgb(208,0,255)" stroke-width="2" fill="none"></circle>
<circle cx="7494.26" cy="2987.55" r="4" stroke="rgb(208,0,255)" stroke-width="2" fill="none"></circle>
<circle cx="3695.05" cy="2687.69" r="4" stroke="rgb(0,255,212)" stroke-width="2" fill="none"></circle>
<circle cx="6767.96" cy="1824.88" r="4" stroke="rgb(0,255,212)" stroke-width="2" fill="none"></circle>
<circle cx="3691.49" cy="2703.62" r="4" stroke="rgb(12,255,0)" stroke-width="2" fill="none"></circle>
<circle cx="6551.4" cy="2092.01" r="4" stroke="rgb(12,255,0)" stroke-width="2" fill="none"></circle>
<circle cx="2682.13" cy="2704.79" r="4" stroke="rgb(255,0,110)" stroke-width="2" fill="none"></circle>
<circle cx="6889.06" cy="1135.07" r="4" stroke="rgb(255,0,110)" stroke-width="2" fill="none"></circle>
<circle cx="465.004" cy="2705.16" r="4" stroke="rgb(255,93,0)" stroke-width="2" fill="none"></circle>
<circle cx="5437.53" cy="1325.13" r="4" stroke="rgb(255,93,0)" stroke-width="2" fill="none"></circle>
<circle cx="3586.53" cy="2709.28" r="4" stroke="rgb(0,106,255)" stroke-width="2" fill="none"></circle>
<circle cx="7685.4" cy="2684.44" r="4" stroke="rgb(0,106,255)" stroke-width="2" fill="none"></circle>
<circle cx="3011.87" cy="2715.62" r="4" stroke="rgb(255,68,0)" stroke-width="2" fill="none"></circle>
<circle cx="7729.16" cy="2459.99" r="4" stroke="rgb(255,68,0)" stroke-width="2" fill="none"></circle>
<circle cx="2987.55" cy="2727.76" r="4" stroke="rgb(0,157,255)" stroke-width="2" fill="none"></circle>
<circle cx="7397" cy="2946.97" r="4" stroke="rgb(0,157,255)" stroke-width="2" fill="none"></circle>
<circle cx="3934.98" cy="2750.3" r="4" stroke="rgb(255,8,0)" stroke-width="2" fill="none"></circle>
<circle cx="6027.03" cy="957.642" r="4" stroke="rgb(255,8,0)" stroke-width="2" fill="none"></circle>
<circle cx="3915.73" cy="2765.88" r="4" stroke="rgb(114,0,255)" stroke-width="2" fill="none"></circle>
<circle cx="5201.66" cy="2077.25" r="4" stroke="rgb(114,0,255)" stroke-width="2" fill="none"></circle>
<circle cx="2876.21" cy="2779.14" r="4" stroke="rgb(0,135,255)" stroke-width="2" fill="none"></circle>
<circle cx="7285.1" cy="1251.56" r="4" stroke="rgb(0,135,255)" stroke-width="2" fill="none"></circle>
<circle cx="3839.17" cy="2789.8" r="4" stroke="rgb(255,208,0)" stroke-width="2" fill="none"></circle>
<circle cx="6071.48" cy="1421.6" r="4" stroke="rgb(255,208,0)" stroke-width="2" fill="none"></circle>
<circle cx="764.156" cy="2795.8" r="4" stroke="rgb(0,4,255)" stroke-width="2" fill="none"></circle>
<circle cx="4705.35" cy="1013.03" r="4" stroke="rgb(0,4,255)" stroke-width="2" fill="none"></circle>
<circle cx="2358.23" cy="2888.55" r="4" stroke="rgb(21,0,255)" stroke-width="2" fill="none"></circle>
<circle cx="7406.08" cy="2794.13" r="4" stroke="rgb(21,0,255)" stroke-width="2" fill="none"></circle>
<circle cx="2965.82" cy="2889.64" r="4" stroke="rgb(0,255,101)" stroke-width="2" fill="none"></circle>
<circle cx="8015.74" cy="2337.82" r="4" stroke="rgb(0,255,101)" stroke-width="2" fill="none"></circle>
<circle cx="2624.86" cy="2947.89" r="4" stroke="rgb(0,38,255)" stroke-width="2" fill="none"></circle>
<circle cx="7525.51" cy="1797.38" r="4" stroke="rgb(0,38,255)" stroke-width="2" fill="none"></circle>
<circle cx="3919.95" cy="3013.21" r="4" stroke="rgb(0,246,255)" stroke-width="2" fill="none"></circle>
<circle cx="8061.09" cy="2595.16" r="4" stroke="rgb(0,246,255)" stroke-width="2" fill="none"></circle>
</svg>