<?xml version="1.0" standalone="yes"?>
<!-- SVG graphic -->
<svg xmlns='http://www.w3.org/2000/svg' xmlns:xlink='http://www.w3.org/1999/xlink'
width="8064px" height="3024px" preserveAspectRatio="xMinYMin meet" viewBox="0 0 8064 3024" version="1.1">
<image x="0" y="0" width="4032px" height="3024px" opacity="1" xlink:href="/home/jeong/Code/2D-to-3D-Modeling-using-AI/Make3D/Image/20200227_180621.jpg"/>
<image x="4032" y="0" width="4032px" height="3024px" opacity="1" xlink:href="/home/jeong/Code/2D-to-3D-Modeling-using-AI/Make3D/Image/20200227_180808.jpg"/>
<polyline points="191.091,87.0135,6976.79,1839.11" stroke="rgb(84,255,0)" stroke-width="2" fill="none"></polyline>
<polyline points="2907.78,92.6959,6390.95,1809.03" stroke="rgb(0,157,255)" stroke-width="2" fill="none"></polyline>
<polyline points="3520.38,142.294,6302.6,1841.11" stroke="rgb(0,255,97)" stroke-width="2" fill="none"></polyline>
<polyline points="2052.06,149.016,6780.99,1875.39" stroke="rgb(0,63,255)" stroke-width="2" fill="none"></polyline>
<polyline points="3887.93,175.305,6225.96,1309.68" stroke="rgb(0,203,255)" stroke-width="2" fill="none"></polyline>
<polyline points="2531.58,189.632,4389.53,1544.55" stroke="rgb(255,89,0)" stroke-width="2" fill="none"></polyline>
<polyline points="124.904,207.456,6039.88,1097.54" stroke="rgb(255,208,0)" stroke-width="2" fill="none"></polyline>
<polyline points="2672.92,213.003,5846.42,1339.56" stroke="rgb(0,255,203)" stroke-width="2" fill="none"></polyline>
<polyline points="3446.12,263.453,6632.48,1930.77" stroke="rgb(255,246,0)" stroke-width="2" fill="none"></polyline>
<polyline points="2260.58,266.805,7999.86,2331.79" stroke="rgb(0,63,255)" stroke-width="2" fill="none"></polyline>
<polyline points="1951.42,275.166,7595.88,2870.06" stroke="rgb(33,255,0)" stroke-width="2" fill="none"></polyline>
<polyline points="1945.47,291.445,6480.9,1132.36" stroke="rgb(255,0,46)" stroke-width="2" fill="none"></polyline>
<polyline points="1945.25,303.45,7965.97,2266.93" stroke="rgb(72,0,255)" stroke-width="2" fill="none"></polyline>
<polyline points="1603.02,319.328,5977.89,934.896" stroke="rgb(38,255,0)" stroke-width="2" fill="none"></polyline>
<polyline points="1940.25,335.064,6707.27,1444.38" stroke="rgb(191,255,0)" stroke-width="2" fill="none"></polyline>
<polyline points="1778.83,342.609,5990.77,2758.7" stroke="rgb(255,97,0)" stroke-width="2" fill="none"></polyline>
<polyline points="3760.92,383.828,6711.41,1664.84" stroke="rgb(255,0,233)" stroke-width="2" fill="none"></polyline>
<polyline points="3964.64,427.354,6358.19,1814.17" stroke="rgb(254,0,255)" stroke-width="2" fill="none"></polyline>
<polyline points="3055.6,429.627,5783.72,1680.56" stroke="rgb(233,0,255)" stroke-width="2" fill="none"></polyline>
<polyline points="1368.32,459.374,4674.25,963.135" stroke="rgb(212,0,255)" stroke-width="2" fill="none"></polyline>
<polyline points="886.055,460.08,4340.72,1504.12" stroke="rgb(0,255,63)" stroke-width="2" fill="none"></polyline>
<polyline points="2957.79,476.466,6194.41,1008.61" stroke="rgb(34,0,255)" stroke-width="2" fill="none"></polyline>
<polyline points="2921.85,489.033,4309.84,2189.89" stroke="rgb(0,255,225)" stroke-width="2" fill="none"></polyline>
<polyline points="3891.77,504.196,5870.31,1495.7" stroke="rgb(0,165,255)" stroke-width="2" fill="none"></polyline>
<polyline points="1928.41,505.281,4910.34,2746.01" stroke="rgb(255,0,89)" stroke-width="2" fill="none"></polyline>
<polyline points="2226.03,513.818,7769.33,2251.88" stroke="rgb(0,85,255)" stroke-width="2" fill="none"></polyline>
<polyline points="658.236,530.758,4603.28,1144.98" stroke="rgb(67,0,255)" stroke-width="2" fill="none"></polyline>
<polyline points="3904.86,541.748,5514.88,1339.49" stroke="rgb(12,255,0)" stroke-width="2" fill="none"></polyline>
<polyline points="1143.46,589.749,5693.21,2061.03" stroke="rgb(255,144,0)" stroke-width="2" fill="none"></polyline>
<polyline points="877.305,596.043,6524.91,359.364" stroke="rgb(255,0,165)" stroke-width="2" fill="none"></polyline>
<polyline points="3011.67,614.081,7210.74,1548.11" stroke="rgb(216,255,0)" stroke-width="2" fill="none"></polyline>
<polyline points="2395.24,619.289,6532.49,2036.34" stroke="rgb(0,255,63)" stroke-width="2" fill="none"></polyline>
<polyline points="3004.97,619.952,6278.55,1809.04" stroke="rgb(0,255,191)" stroke-width="2" fill="none"></polyline>
<polyline points="3941.96,630.467,7579.59,2734.56" stroke="rgb(0,119,255)" stroke-width="2" fill="none"></polyline>
<polyline points="3851.94,680.945,6914.06,1145.29" stroke="rgb(0,33,255)" stroke-width="2" fill="none"></polyline>
<polyline points="1725.02,706.067,6067.6,1968.85" stroke="rgb(0,46,255)" stroke-width="2" fill="none"></polyline>
<polyline points="525.768,713.3,6223.28,1742.7" stroke="rgb(0,25,255)" stroke-width="2" fill="none"></polyline>
<polyline points="1573.23,752.851,6607.06,1792.97" stroke="rgb(174,0,255)" stroke-width="2" fill="none"></polyline>
<polyline points="2074.17,800.017,6530.37,1723.26" stroke="rgb(123,0,255)" stroke-width="2" fill="none"></polyline>
<polyline points="1999.27,801.198,5860.76,261.554" stroke="rgb(0,255,186)" stroke-width="2" fill="none"></polyline>
<polyline points="2171.09,810.729,6430.05,1966.68" stroke="rgb(255,76,0)" stroke-width="2" fill="none"></polyline>
<polyline points="1909.7,835.321,5311.42,1380.96" stroke="rgb(55,0,255)" stroke-width="2" fill="none"></polyline>
<polyline points="3425.79,862.978,6908.55,1203.96" stroke="rgb(0,255,140)" stroke-width="2" fill="none"></polyline>
<polyline points="3774.98,907.924,4591.71,2422.76" stroke="rgb(0,255,114)" stroke-width="2" fill="none"></polyline>
<polyline points="2509.86,910.329,6667.71,417.493" stroke="rgb(255,17,0)" stroke-width="2" fill="none"></polyline>
<polyline points="1991.63,940.291,6772.49,1686.67" stroke="rgb(84,255,0)" stroke-width="2" fill="none"></polyline>
<polyline points="3991,966.922,7458.56,2985.78" stroke="rgb(0,255,212)" stroke-width="2" fill="none"></polyline>
<polyline points="2815.18,974.843,7804.69,2499.83" stroke="rgb(255,0,212)" stroke-width="2" fill="none"></polyline>
<polyline points="1993.33,976.701,6485.87,1747.39" stroke="rgb(135,0,255)" stroke-width="2" fill="none"></polyline>
<polyline points="1980.65,1111.52,5541.41,1572.48" stroke="rgb(255,0,97)" stroke-width="2" fill="none"></polyline>
<polyline points="2218.99,1120.41,4728.1,2588.35" stroke="rgb(0,0,255)" stroke-width="2" fill="none"></polyline>
<polyline points="2176.4,1123.15,5528.51,1754.25" stroke="rgb(255,204,0)" stroke-width="2" fill="none"></polyline>
<polyline points="2042.99,1127.41,6592.47,1915.79" stroke="rgb(0,63,255)" stroke-width="2" fill="none"></polyline>
<polyline points="2094.93,1135.38,7020.17,1477.76" stroke="rgb(191,0,255)" stroke-width="2" fill="none"></polyline>
<polyline points="1978.28,1195.79,5536.04,1540.09" stroke="rgb(38,0,255)" stroke-width="2" fill="none"></polyline>
<polyline points="2148.81,1219.43,6247.76,1235.14" stroke="rgb(187,255,0)" stroke-width="2" fill="none"></polyline>
<polyline points="2409.86,1251.42,7044.84,1034.18" stroke="rgb(0,255,110)" stroke-width="2" fill="none"></polyline>
<polyline points="2174.91,1288.42,6652.58,1167.85" stroke="rgb(255,76,0)" stroke-width="2" fill="none"></polyline>
<polyline points="2513.75,1373.49,6835.35,1527.9" stroke="rgb(233,255,0)" stroke-width="2" fill="none"></polyline>
<polyline points="3272.55,1390.46,6245.24,1197.6" stroke="rgb(0,255,254)" stroke-width="2" fill="none"></polyline>
<polyline points="3976.07,1397.39,7856.8,2337.12" stroke="rgb(255,0,89)" stroke-width="2" fill="none"></polyline>
<polyline points="3735.97,1466.31,6913.53,1720.76" stroke="rgb(0,255,59)" stroke-width="2" fill="none"></polyline>
<polyline points="2732.02,1496.95,6703.97,1304.55" stroke="rgb(0,225,255)" stroke-width="2" fill="none"></polyline>
<polyline points="1237.82,1525.04,5461.06,1771.66" stroke="rgb(255,68,0)" stroke-width="2" fill="none"></polyline>
<polyline points="1778.59,1549.74,7608.1,527.121" stroke="rgb(255,0,59)" stroke-width="2" fill="none"></polyline>
<polyline points="2241.67,1575.7,5661.88,1709.54" stroke="rgb(255,250,0)" stroke-width="2" fill="none"></polyline>
<polyline points="3553.01,1604.59,6066.95,1158.17" stroke="rgb(25,0,255)" stroke-width="2" fill="none"></polyline>
<polyline points="1485.82,1759.51,6094.22,2014.86" stroke="rgb(119,255,0)" stroke-width="2" fill="none"></polyline>
<polyline points="2450.81,1763.81,6152.28,1853.11" stroke="rgb(255,0,85)" stroke-width="2" fill="none"></polyline>
<polyline points="2209.24,1812.64,6172.26,1043.34" stroke="rgb(255,114,0)" stroke-width="2" fill="none"></polyline>
<polyline points="2226.03,1851.71,6801.08,1851.84" stroke="rgb(0,255,33)" stroke-width="2" fill="none"></polyline>
<polyline points="3784.84,1903.49,6639.08,1759.17" stroke="rgb(0,42,255)" stroke-width="2" fill="none"></polyline>
<polyline points="2106.14,1920.75,5597.01,1855.57" stroke="rgb(174,0,255)" stroke-width="2" fill="none"></polyline>
<polyline points="3632.55,1950.18,6193.63,1403.95" stroke="rgb(174,0,255)" stroke-width="2" fill="none"></polyline>
<polyline points="2041.67,2015.53,5986.93,1767.14" stroke="rgb(255,72,0)" stroke-width="2" fill="none"></polyline>
<polyline points="2167.73,2030.06,4394.46,1072.91" stroke="rgb(191,0,255)" stroke-width="2" fill="none"></polyline>
<polyline points="2971.8,2033.53,7835.96,2048.15" stroke="rgb(255,89,0)" stroke-width="2" fill="none"></polyline>
<polyline points="2188.64,2049.56,7325.55,2772.27" stroke="rgb(0,225,255)" stroke-width="2" fill="none"></polyline>
<polyline points="1898.64,2099.73,6030.54,1324.6" stroke="rgb(55,255,0)" stroke-width="2" fill="none"></polyline>
<polyline points="3541.75,2111.74,7507.92,2977.34" stroke="rgb(229,0,255)" stroke-width="2" fill="none"></polyline>
<polyline points="2418.86,2139.9,6684.93,2045.49" stroke="rgb(255,153,0)" stroke-width="2" fill="none"></polyline>
<polyline points="1265.22,2174.56,5300.46,1359.72" stroke="rgb(0,89,255)" stroke-width="2" fill="none"></polyline>
<polyline points="2348,2183.52,5511.14,1346.96" stroke="rgb(0,110,255)" stroke-width="2" fill="none"></polyline>
<polyline points="1092.15,2187.18,4926.41,832.265" stroke="rgb(89,0,255)" stroke-width="2" fill="none"></polyline>
<polyline points="2661.81,2197.36,6685.92,1601.01" stroke="rgb(255,72,0)" stroke-width="2" fill="none"></polyline>
<polyline points="1989.42,2209.76,6640.41,1275.87" stroke="rgb(72,255,0)" stroke-width="2" fill="none"></polyline>
<polyline points="2511.94,2231.77,6874.16,1237.06" stroke="rgb(0,131,255)" stroke-width="2" fill="none"></polyline>
<polyline points="2354.72,2274.22,6600.29,1008.16" stroke="rgb(0,255,182)" stroke-width="2" fill="none"></polyline>
<polyline points="2274,2276.36,7040.55,1073.9" stroke="rgb(0,255,4)" stroke-width="2" fill="none"></polyline>
<polyline points="2151.57,2292.92,5870.09,171.804" stroke="rgb(144,0,255)" stroke-width="2" fill="none"></polyline>
<polyline points="2543.87,2296.95,6094.18,1105.84" stroke="rgb(0,106,255)" stroke-width="2" fill="none"></polyline>
<polyline points="3885.54,2299.82,6811.77,1074.82" stroke="rgb(80,255,0)" stroke-width="2" fill="none"></polyline>
<polyline points="3799.1,2301.41,6691.59,1793.18" stroke="rgb(255,204,0)" stroke-width="2" fill="none"></polyline>
<polyline points="952.248,2327.62,5747.05,1770.18" stroke="rgb(255,182,0)" stroke-width="2" fill="none"></polyline>
<polyline points="2029.26,2328.84,5299.1,1383.7" stroke="rgb(12,255,0)" stroke-width="2" fill="none"></polyline>
<polyline points="84.7145,2388.71,6793.06,1282.71" stroke="rgb(114,0,255)" stroke-width="2" fill="none"></polyline>
<polyline points="819.161,2423.4,5681.37,1912.24" stroke="rgb(255,0,110)" stroke-width="2" fill="none"></polyline>
<polyline points="2538.88,2474.17,6654.43,1646.54" stroke="rgb(0,21,255)" stroke-width="2" fill="none"></polyline>
<polyline points="183.856,2488.3,5545.81,1661.28" stroke="rgb(0,38,255)" stroke-width="2" fill="none"></polyline>
<polyline points="2337.94,2511.53,6181.39,1448.99" stroke="rgb(0,225,255)" stroke-width="2" fill="none"></polyline>
<polyline points="381.258,2512.17,5437.53,1325.13" stroke="rgb(0,255,63)" stroke-width="2" fill="none"></polyline>
<polyline points="3707.47,2523.1,7750.61,2236.42" stroke="rgb(255,0,0)" stroke-width="2" fill="none"></polyline>
<polyline points="4016.12,2549.87,7749.28,1407.94" stroke="rgb(255,242,0)" stroke-width="2" fill="none"></polyline>
<polyline points="3403.57,2562.44,6005.89,1226.04" stroke="rgb(255,238,0)" stroke-width="2" fill="none"></polyline>
<polyline points="3943.14,2563.51,6912.52,1208.38" stroke="rgb(0,255,140)" stroke-width="2" fill="none"></polyline>
<polyline points="2468.34,2575.32,6260.94,1818.92" stroke="rgb(191,255,0)" stroke-width="2" fill="none"></polyline>
<polyline points="2010.45,2579.79,6647.19,1874.5" stroke="rgb(0,114,255)" stroke-width="2" fill="none"></polyline>
<polyline points="2308.47,2660.07,6129.51,1609.11" stroke="rgb(0,255,233)" stroke-width="2" fill="none"></polyline>
<polyline points="144.017,2666.78,5851.94,1176.58" stroke="rgb(0,255,59)" stroke-width="2" fill="none"></polyline>
<polyline points="3450.19,2674.82,7076.41,2961.98" stroke="rgb(0,199,255)" stroke-width="2" fill="none"></polyline>
<polyline points="3187.05,2679.76,6794.94,1225.3" stroke="rgb(255,0,80)" stroke-width="2" fill="none"></polyline>
<polyline points="1924.78,2730.82,6647.2,2205.71" stroke="rgb(255,182,0)" stroke-width="2" fill="none"></polyline>
<polyline points="3157.57,2756.04,7019.34,2797.38" stroke="rgb(255,221,0)" stroke-width="2" fill="none"></polyline>
<polyline points="3763.73,2765.07,7016.62,1785.41" stroke="rgb(0,191,255)" stroke-width="2" fill="none"></polyline>
<polyline points="3777.61,2808.77,6076.13,1760.81" stroke="rgb(255,0,237)" stroke-width="2" fill="none"></polyline>
<polyline points="3943.88,2822.38,5967.24,1099.06" stroke="rgb(216,255,0)" stroke-width="2" fill="none"></polyline>
<polyline points="2369.46,2852.04,6032.61,1445.17" stroke="rgb(0,255,212)" stroke-width="2" fill="none"></polyline>
<polyline points="3011.5,2863.39,5954.44,1812.34" stroke="rgb(255,110,0)" stroke-width="2" fill="none"></polyline>
<polyline points="3818.47,2868.09,6382.93,1773.48" stroke="rgb(67,255,0)" stroke-width="2" fill="none"></polyline>
<polyline points="3065.37,2869.58,7977.44,855.914" stroke="rgb(221,0,255)" stroke-width="2" fill="none"></polyline>
<polyline points="3330.7,2873.55,6379.33,1824.89" stroke="rgb(254,0,255)" stroke-width="2" fill="none"></polyline>
<polyline points="2931.7,2890.51,5897.2,1830.25" stroke="rgb(0,203,255)" stroke-width="2" fill="none"></polyline>
<polyline points="2214.16,2915.41,7440.49,2880.56" stroke="rgb(106,0,255)" stroke-width="2" fill="none"></polyline>
<polyline points="2635.05,2935.73,7062.67,1654.38" stroke="rgb(0,80,255)" stroke-width="2" fill="none"></polyline>
<polyline points="3396.39,2941.6,7232.65,2638.94" stroke="rgb(55,255,0)" stroke-width="2" fill="none"></polyline>
<polyline points="2890.3,2989.09,7726.97,2267.77" stroke="rgb(59,0,255)" stroke-width="2" fill="none"></polyline>
<polyline points="3822.35,2993.44,6919.64,1642.98" stroke="rgb(255,0,0)" stroke-width="2" fill="none"></polyline>
<circle cx="191.091" cy="87.0135" r="4" stroke="rgb(84,255,0)" stroke-width="2" fill="none"></circle>
<circle cx="6976.79" cy="1839.11" r="4" stroke="rgb(84,255,0)" stroke-width="2" fill="none"></circle>
<circle cx="2907.78" cy="92.6959" r="4" stroke="rgb(0,157,255)" stroke-width="2" fill="none"></circle>
<circle cx="6390.95" cy="1809.03" r="4" stroke="rgb(0,157,255)" stroke-width="2" fill="none"></circle>
<circle cx="3520.38" cy="142.294" r="4" stroke="rgb(0,255,97)" stroke-width="2" fill="none"></circle>
<circle cx="6302.6" cy="1841.11" r="4" stroke="rgb(0,255,97)" stroke-width="2" fill="none"></circle>
<circle cx="2052.06" cy="149.016" r="4" stroke="rgb(0,63,255)" stroke-width="2" fill="none"></circle>
<circle cx="6780.99" cy="1875.39" r="4" stroke="rgb(0,63,255)" stroke-width="2" fill="none"></circle>
<circle cx="3887.93" cy="175.305" r="4" stroke="rgb(0,203,255)" stroke-width="2" fill="none"></circle>
<circle cx="6225.96" cy="1309.68" r="4" stroke="rgb(0,203,255)" stroke-width="2" fill="none"></circle>
<circle cx="2531.58" cy="189.632" r="4" stroke="rgb(255,89,0)" stroke-width="2" fill="none"></circle>
<circle cx="4389.53" cy="1544.55" r="4" stroke="rgb(255,89,0)" stroke-width="2" fill="none"></circle>
<circle cx="124.904" cy="207.456" r="4" stroke="rgb(255,208,0)" stroke-width="2" fill="none"></circle>
<circle cx="6039.88" cy="1097.54" r="4" stroke="rgb(255,208,0)" stroke-width="2" fill="none"></circle>
<circle cx="2672.92" cy="213.003" r="4" stroke="rgb(0,255,203)" stroke-width="2" fill="none"></circle>
<circle cx="5846.42" cy="1339.56" r="4" stroke="rgb(0,255,203)" stroke-width="2" fill="none"></circle>
<circle cx="3446.12" cy="263.453" r="4" stroke="rgb(255,246,0)" stroke-width="2" fill="none"></circle>
<circle cx="6632.48" cy="1930.77" r="4" stroke="rgb(255,246,0)" stroke-width="2" fill="none"></circle>
<circle cx="2260.58" cy="266.805" r="4" stroke="rgb(0,63,255)" stroke-width="2" fill="none"></circle>
<circle cx="7999.86" cy="2331.79" r="4" stroke="rgb(0,63,255)" stroke-width="2" fill="none"></circle>
<circle cx="1951.42" cy="275.166" r="4" stroke="rgb(33,255,0)" stroke-width="2" fill="none"></circle>
<circle cx="7595.88" cy="2870.06" r="4" stroke="rgb(33,255,0)" stroke-width="2" fill="none"></circle>
<circle cx="1945.47" cy="291.445" r="4" stroke="rgb(255,0,46)" stroke-width="2" fill="none"></circle>
<circle cx="6480.9" cy="1132.36" r="4" stroke="rgb(255,0,46)" stroke-width="2" fill="none"></circle>
<circle cx="1945.25" cy="303.45" r="4" stroke="rgb(72,0,255)" stroke-width="2" fill="none"></circle>
<circle cx="7965.97" cy="2266.93" r="4" stroke="rgb(72,0,255)" stroke-width="2" fill="none"></circle>
<circle cx="1603.02" cy="319.328" r="4" stroke="rgb(38,255,0)" stroke-width="2" fill="none"></circle>
<circle cx="5977.89" cy="934.896" r="4" stroke="rgb(38,255,0)" stroke-width="2" fill="none"></circle>
<circle cx="1940.25" cy="335.064" r="4" stroke="rgb(191,255,0)" stroke-width="2" fill="none"></circle>
<circle cx="6707.27" cy="1444.38" r="4" stroke="rgb(191,255,0)" stroke-width="2" fill="none"></circle>
<circle cx="1778.83" cy="342.609" r="4" stroke="rgb(255,97,0)" stroke-width="2" fill="none"></circle>
<circle cx="5990.77" cy="2758.7" r="4" stroke="rgb(255,97,0)" stroke-width="2" fill="none"></circle>
<circle cx="3760.92" cy="383.828" r="4" stroke="rgb(255,0,233)" stroke-width="2" fill="none"></circle>
<circle cx="6711.41" cy="1664.84" r="4" stroke="rgb(255,0,233)" stroke-width="2" fill="none"></circle>
<circle cx="3964.64" cy="427.354" r="4" stroke="rgb(254,0,255)" stroke-width="2" fill="none"></circle>
<circle cx="6358.19" cy="1814.17" r="4" stroke="rgb(254,0,255)" stroke-width="2" fill="none"></circle>
<circle cx="3055.6" cy="429.627" r="4" stroke="rgb(233,0,255)" stroke-width="2" fill="none"></circle>
<circle cx="5783.72" cy="1680.56" r="4" stroke="rgb(233,0,255)" stroke-width="2" fill="none"></circle>
<circle cx="1368.32" cy="459.374" r="4" stroke="rgb(212,0,255)" stroke-width="2" fill="none"></circle>
<circle cx="4674.25" cy="963.135" r="4" stroke="rgb(212,0,255)" stroke-width="2" fill="none"></circle>
<circle cx="886.055" cy="460.08" r="4" stroke="rgb(0,255,63)" stroke-width="2" fill="none"></circle>
<circle cx="4340.72" cy="1504.12" r="4" stroke="rgb(0,255,63)" stroke-width="2" fill="none"></circle>
<circle cx="2957.79" cy="476.466" r="4" stroke="rgb(34,0,255)" stroke-width="2" fill="none"></circle>
<circle cx="6194.41" cy="1008.61" r="4" stroke="rgb(34,0,255)" stroke-width="2" fill="none"></circle>
<circle cx="2921.85" cy="489.033" r="4" stroke="rgb(0,255,225)" stroke-width="2" fill="none"></circle>
<circle cx="4309.84" cy="2189.89" r="4" stroke="rgb(0,255,225)" stroke-width="2" fill="none"></circle>
<circle cx="3891.77" cy="504.196" r="4" stroke="rgb(0,165,255)" stroke-width="2" fill="none"></circle>
<circle cx="5870.31" cy="1495.7" r="4" stroke="rgb(0,165,255)" stroke-width="2" fill="none"></circle>
<circle cx="1928.41" cy="505.281" r="4" stroke="rgb(255,0,89)" stroke-width="2" fill="none"></circle>
<circle cx="4910.34" cy="2746.01" r="4" stroke="rgb(255,0,89)" stroke-width="2" fill="none"></circle>
<circle cx="2226.03" cy="513.818" r="4" stroke="rgb(0,85,255)" stroke-width="2" fill="none"></circle>
<circle cx="7769.33" cy="2251.88" r="4" stroke="rgb(0,85,255)" stroke-width="2" fill="none"></circle>
<circle cx="658.236" cy="530.758" r="4" stroke="rgb(67,0,255)" stroke-width="2" fill="none"></circle>
<circle cx="4603.28" cy="1144.98" r="4" stroke="rgb(67,0,255)" stroke-width="2" fill="none"></circle>
<circle cx="3904.86" cy="541.748" r="4" stroke="rgb(12,255,0)" stroke-width="2" fill="none"></circle>
<circle cx="5514.88" cy="1339.49" r="4" stroke="rgb(12,255,0)" stroke-width="2" fill="none"></circle>
<circle cx="1143.46" cy="589.749" r="4" stroke="rgb(255,144,0)" stroke-width="2" fill="none"></circle>
<circle cx="5693.21" cy="2061.03" r="4" stroke="rgb(255,144,0)" stroke-width="2" fill="none"></circle>
<circle cx="877.305" cy="596.043" r="4" stroke="rgb(255,0,165)" stroke-width="2" fill="none"></circle>
<circle cx="6524.91" cy="359.364" r="4" stroke="rgb(255,0,165)" stroke-width="2" fill="none"></circle>
<circle cx="3011.67" cy="614.081" r="4" stroke="rgb(216,255,0)" stroke-width="2" fill="none"></circle>
<circle cx="7210.74" cy="1548.11" r="4" stroke="rgb(216,255,0)" stroke-width="2" fill="none"></circle>
<circle cx="2395.24" cy="619.289" r="4" stroke="rgb(0,255,63)" stroke-width="2" fill="none"></circle>
<circle cx="6532.49" cy="2036.34" r="4" stroke="rgb(0,255,63)" stroke-width="2" fill="none"></circle>
<circle cx="3004.97" cy="619.952" r="4" stroke="rgb(0,255,191)" stroke-width="2" fill="none"></circle>
<circle cx="6278.55" cy="1809.04" r="4" stroke="rgb(0,255,191)" stroke-width="2" fill="none"></circle>
<circle cx="3941.96" cy="630.467" r="4" stroke="rgb(0,119,255)" stroke-width="2" fill="none"></circle>
<circle cx="7579.59" cy="2734.56" r="4" stroke="rgb(0,119,255)" stroke-width="2" fill="none"></circle>
<circle cx="3851.94" cy="680.945" r="4" stroke="rgb(0,33,255)" stroke-width="2" fill="none"></circle>
<circle cx="6914.06" cy="1145.29" r="4" stroke="rgb(0,33,255)" stroke-width="2" fill="none"></circle>
<circle cx="1725.02" cy="706.067" r="4" stroke="rgb(0,46,255)" stroke-width="2" fill="none"></circle>
<circle cx="6067.6" cy="1968.85" r="4" stroke="rgb(0,46,255)" stroke-width="2" fill="none"></circle>
<circle cx="525.768" cy="713.3" r="4" stroke="rgb(0,25,255)" stroke-width="2" fill="none"></circle>
<circle cx="6223.28" cy="1742.7" r="4" stroke="rgb(0,25,255)" stroke-width="2" fill="none"></circle>
<circle cx="1573.23" cy="752.851" r="4" stroke="rgb(174,0,255)" stroke-width="2" fill="none"></circle>
<circle cx="6607.06" cy="1792.97" r="4" stroke="rgb(174,0,255)" stroke-width="2" fill="none"></circle>
<circle cx="2074.17" cy="800.017" r="4" stroke="rgb(123,0,255)" stroke-width="2" fill="none"></circle>
<circle cx="6530.37" cy="1723.26" r="4" stroke="rgb(123,0,255)" stroke-width="2" fill="none"></circle>
<circle cx="1999.27" cy="801.198" r="4" stroke="rgb(0,255,186)" stroke-width="2" fill="none"></circle>
<circle cx="5860.76" cy="261.554" r="4" stroke="rgb(0,255,186)" stroke-width="2" fill="none"></circle>
<circle cx="2171.09" cy="810.729" r="4" stroke="rgb(255,76,0)" stroke-width="2" fill="none"></circle>
<circle cx="6430.05" cy="1966.68" r="4" stroke="rgb(255,76,0)" stroke-width="2" fill="none"></circle>
<circle cx="1909.7" cy="835.321" r="4" stroke="rgb(55,0,255)" stroke-width="2" fill="none"></circle>
<circle cx="5311.42" cy="1380.96" r="4" stroke="rgb(55,0,255)" stroke-width="2" fill="none"></circle>
<circle cx="3425.79" cy="862.978" r="4" stroke="rgb(0,255,140)" stroke-width="2" fill="none"></circle>
<circle cx="6908.55" cy="1203.96" r="4" stroke="rgb(0,255,140)" stroke-width="2" fill="none"></circle>
<circle cx="3774.98" cy="907.924" r="4" stroke="rgb(0,255,114)" stroke-width="2" fill="none"></circle>
<circle cx="4591.71" cy="2422.76" r="4" stroke="rgb(0,255,114)" stroke-width="2" fill="none"></circle>
<circle cx="2509.86" cy="910.329" r="4" stroke="rgb(255,17,0)" stroke-width="2" fill="none"></circle>
<circle cx="6667.71" cy="417.493" r="4" stroke="rgb(255,17,0)" stroke-width="2" fill="none"></circle>
<circle cx="1991.63" cy="940.291" r="4" stroke="rgb(84,255,0)" stroke-width="2" fill="none"></circle>
<circle cx="6772.49" cy="1686.67" r="4" stroke="rgb(84,255,0)" stroke-width="2" fill="none"></circle>
<circle cx="3991" cy="966.922" r="4" stroke="rgb(0,255,212)" stroke-width="2" fill="none"></circle>
<circle cx="7458.56" cy="2985.78" r="4" stroke="rgb(0,255,212)" stroke-width="2" fill="none"></circle>
<circle cx="2815.18" cy="974.843" r="4" stroke="rgb(255,0,212)" stroke-width="2" fill="none"></circle>
<circle cx="7804.69" cy="2499.83" r="4" stroke="rgb(255,0,212)" stroke-width="2" fill="none"></circle>
<circle cx="1993.33" cy="976.701" r="4" stroke="rgb(135,0,255)" stroke-width="2" fill="none"></circle>
<circle cx="6485.87" cy="1747.39" r="4" stroke="rgb(135,0,255)" stroke-width="2" fill="none"></circle>
<circle cx="1980.65" cy="1111.52" r="4" stroke="rgb(255,0,97)" stroke-width="2" fill="none"></circle>
<circle cx="5541.41" cy="1572.48" r="4" stroke="rgb(255,0,97)" stroke-width="2" fill="none"></circle>
<circle cx="2218.99" cy="1120.41" r="4" stroke="rgb(0,0,255)" stroke-width="2" fill="none"></circle>
<circle cx="4728.1" cy="2588.35" r="4" stroke="rgb(0,0,255)" stroke-width="2" fill="none"></circle>
<circle cx="2176.4" cy="1123.15" r="4" stroke="rgb(255,204,0)" stroke-width="2" fill="none"></circle>
<circle cx="5528.51" cy="1754.25" r="4" stroke="rgb(255,204,0)" stroke-width="2" fill="none"></circle>
<circle cx="2042.99" cy="1127.41" r="4" stroke="rgb(0,63,255)" stroke-width="2" fill="none"></circle>
<circle cx="6592.47" cy="1915.79" r="4" stroke="rgb(0,63,255)" stroke-width="2" fill="none"></circle>
<circle cx="2094.93" cy="1135.38" r="4" stroke="rgb(191,0,255)" stroke-width="2" fill="none"></circle>
<circle cx="7020.17" cy="1477.76" r="4" stroke="rgb(191,0,255)" stroke-width="2" fill="none"></circle>
<circle cx="1978.28" cy="1195.79" r="4" stroke="rgb(38,0,255)" stroke-width="2" fill="none"></circle>
<circle cx="5536.04" cy="1540.09" r="4" stroke="rgb(38,0,255)" stroke-width="2" fill="none"></circle>
<circle cx="2148.81" cy="1219.43" r="4" stroke="rgb(187,255,0)" stroke-width="2" fill="none"></circle>
<circle cx="6247.76" cy="1235.14" r="4" stroke="rgb(187,255,0)" stroke-width="2" fill="none"></circle>
<circle cx="2409.86" cy="1251.42" r="4" stroke="rgb(0,255,110)" stroke-width="2" fill="none"></circle>
<circle cx="7044.84" cy="1034.18" r="4" stroke="rgb(0,255,110)" stroke-width="2" fill="none"></circle>
<circle cx="2174.91" cy="1288.42" r="4" stroke="rgb(255,76,0)" stroke-width="2" fill="none"></circle>
<circle cx="6652.58" cy="1167.85" r="4" stroke="rgb(255,76,0)" stroke-width="2" fill="none"></circle>
<circle cx="2513.75" cy="1373.49" r="4" stroke="rgb(233,255,0)" stroke-width="2" fill="none"></circle>
<circle cx="6835.35" cy="1527.9" r="4" stroke="rgb(233,255,0)" stroke-width="2" fill="none"></circle>
<circle cx="3272.55" cy="1390.46" r="4" stroke="rgb(0,255,254)" stroke-width="2" fill="none"></circle>
<circle cx="6245.24" cy="1197.6" r="4" stroke="rgb(0,255,254)" stroke-width="2" fill="none"></circle>
<circle cx="3976.07" cy="1397.39" r="4" stroke="rgb(255,0,89)" stroke-width="2" fill="none"></circle>
<circle cx="7856.8" cy="2337.12" r="4" stroke="rgb(255,0,89)" stroke-width="2" fill="none"></circle>
<circle cx="3735.97" cy="1466.31" r="4" stroke="rgb(0,255,59)" stroke-width="2" fill="none"></circle>
<circle cx="6913.53" cy="1720.76" r="4" stroke="rgb(0,255,59)" stroke-width="2" fill="none"></circle>
<circle cx="2732.02" cy="1496.95" r="4" stroke="rgb(0,225,255)" stroke-width="2" fill="none"></circle>
<circle cx="6703.97" cy="1304.55" r="4" stroke="rgb(0,225,255)" stroke-width="2" fill="none"></circle>
<circle cx="1237.82" cy="1525.04" r="4" stroke="rgb(255,68,0)" stroke-width="2" fill="none"></circle>
<circle cx="5461.06" cy="1771.66" r="4" stroke="rgb(255,68,0)" stroke-width="2" fill="none"></circle>
<circle cx="1778.59" cy="1549.74" r="4" stroke="rgb(255,0,59)" stroke-width="2" fill="none"></circle>
<circle cx="7608.1" cy="527.121" r="4" stroke="rgb(255,0,59)" stroke-width="2" fill="none"></circle>
<circle cx="2241.67" cy="1575.7" r="4" stroke="rgb(255,250,0)" stroke-width="2" fill="none"></circle>
<circle cx="5661.88" cy="1709.54" r="4" stroke="rgb(255,250,0)" stroke-width="2" fill="none"></circle>
<circle cx="3553.01" cy="1604.59" r="4" stroke="rgb(25,0,255)" stroke-width="2" fill="none"></circle>
<circle cx="6066.95" cy="1158.17" r="4" stroke="rgb(25,0,255)" stroke-width="2" fill="none"></circle>
<circle cx="1485.82" cy="1759.51" r="4" stroke="rgb(119,255,0)" stroke-width="2" fill="none"></circle>
<circle cx="6094.22" cy="2014.86" r="4" stroke="rgb(119,255,0)" stroke-width="2" fill="none"></circle>
<circle cx="2450.81" cy="1763.81" r="4" stroke="rgb(255,0,85)" stroke-width="2" fill="none"></circle>
<circle cx="6152.28" cy="1853.11" r="4" stroke="rgb(255,0,85)" stroke-width="2" fill="none"></circle>
<circle cx="2209.24" cy="1812.64" r="4" stroke="rgb(255,114,0)" stroke-width="2" fill="none"></circle>
<circle cx="6172.26" cy="1043.34" r="4" stroke="rgb(255,114,0)" stroke-width="2" fill="none"></circle>
<circle cx="2226.03" cy="1851.71" r="4" stroke="rgb(0,255,33)" stroke-width="2" fill="none"></circle>
<circle cx="6801.08" cy="1851.84" r="4" stroke="rgb(0,255,33)" stroke-width="2" fill="none"></circle>
<circle cx="3784.84" cy="1903.49" r="4" stroke="rgb(0,42,255)" stroke-width="2" fill="none"></circle>
<circle cx="6639.08" cy="1759.17" r="4" stroke="rgb(0,42,255)" stroke-width="2" fill="none"></circle>
<circle cx="2106.14" cy="1920.75" r="4" stroke="rgb(174,0,255)" stroke-width="2" fill="none"></circle>
<circle cx="5597.01" cy="1855.57" r="4" stroke="rgb(174,0,255)" stroke-width="2" fill="none"></circle>
<circle cx="3632.55" cy="1950.18" r="4" stroke="rgb(174,0,255)" stroke-width="2" fill="none"></circle>
<circle cx="6193.63" cy="1403.95" r="4" stroke="rgb(174,0,255)" stroke-width="2" fill="none"></circle>
<circle cx="2041.67" cy="2015.53" r="4" stroke="rgb(255,72,0)" stroke-width="2" fill="none"></circle>
<circle cx="5986.93" cy="1767.14" r="4" stroke="rgb(255,72,0)" stroke-width="2" fill="none"></circle>
<circle cx="2167.73" cy="2030.06" r="4" stroke="rgb(191,0,255)" stroke-width="2" fill="none"></circle>
<circle cx="4394.46" cy="1072.91" r="4" stroke="rgb(191,0,255)" stroke-width="2" fill="none"></circle>
<circle cx="2971.8" cy="2033.53" r="4" stroke="rgb(255,89,0)" stroke-width="2" fill="none"></circle>
<circle cx="7835.96" cy="2048.15" r="4" stroke="rgb(255,89,0)" stroke-width="2" fill="none"></circle>
<circle cx="2188.64" cy="2049.56" r="4" stroke="rgb(0,225,255)" stroke-width="2" fill="none"></circle>
<circle cx="7325.55" cy="2772.27" r="4" stroke="rgb(0,225,255)" stroke-width="2" fill="none"></circle>
<circle cx="1898.64" cy="2099.73" r="4" stroke="rgb(55,255,0)" stroke-width="2" fill="none"></circle>
<circle cx="6030.54" cy="1324.6" r="4" stroke="rgb(55,255,0)" stroke-width="2" fill="none"></circle>
<circle cx="3541.75" cy="2111.74" r="4" stroke="rgb(229,0,255)" stroke-width="2" fill="none"></circle>
<circle cx="7507.92" cy="2977.34" r="4" stroke="rgb(229,0,255)" stroke-width="2" fill="none"></circle>
<circle cx="2418.86" cy="2139.9" r="4" stroke="rgb(255,153,0)" stroke-width="2" fill="none"></circle>
<circle cx="6684.93" cy="2045.49" r="4" stroke="rgb(255,153,0)" stroke-width="2" fill="none"></circle>
<circle cx="1265.22" cy="2174.56" r="4" stroke="rgb(0,89,255)" stroke-width="2" fill="none"></circle>
<circle cx="5300.46" cy="1359.72" r="4" stroke="rgb(0,89,255)" stroke-width="2" fill="none"></circle>
<circle cx="2348" cy="2183.52" r="4" stroke="rgb(0,110,255)" stroke-width="2" fill="none"></circle>
<circle cx="5511.14" cy="1346.96" r="4" stroke="rgb(0,110,255)" stroke-width="2" fill="none"></circle>
<circle cx="1092.15" cy="2187.18" r="4" stroke="rgb(89,0,255)" stroke-width="2" fill="none"></circle>
<circle cx="4926.41" cy="832.265" r="4" stroke="rgb(89,0,255)" stroke-width="2" fill="none"></circle>
<circle cx="2661.81" cy="2197.36" r="4" stroke="rgb(255,72,0)" stroke-width="2" fill="none"></circle>
<circle cx="6685.92" cy="1601.01" r="4" stroke="rgb(255,72,0)" stroke-width="2" fill="none"></circle>
<circle cx="1989.42" cy="2209.76" r="4" stroke="rgb(72,255,0)" stroke-width="2" fill="none"></circle>
<circle cx="6640.41" cy="1275.87" r="4" stroke="rgb(72,255,0)" stroke-width="2" fill="none"></circle>
<circle cx="2511.94" cy="2231.77" r="4" stroke="rgb(0,131,255)" stroke-width="2" fill="none"></circle>
<circle cx="6874.16" cy="1237.06" r="4" stroke="rgb(0,131,255)" stroke-width="2" fill="none"></circle>
<circle cx="2354.72" cy="2274.22" r="4" stroke="rgb(0,255,182)" stroke-width="2" fill="none"></circle>
<circle cx="6600.29" cy="1008.16" r="4" stroke="rgb(0,255,182)" stroke-width="2" fill="none"></circle>
<circle cx="2274" cy="2276.36" r="4" stroke="rgb(0,255,4)" stroke-width="2" fill="none"></circle>
<circle cx="7040.55" cy="1073.9" r="4" stroke="rgb(0,255,4)" stroke-width="2" fill="none"></circle>
<circle cx="2151.57" cy="2292.92" r="4" stroke="rgb(144,0,255)" stroke-width="2" fill="none"></circle>
<circle cx="5870.09" cy="171.804" r="4" stroke="rgb(144,0,255)" stroke-width="2" fill="none"></circle>
<circle cx="2543.87" cy="2296.95" r="4" stroke="rgb(0,106,255)" stroke-width="2" fill="none"></circle>
<circle cx="6094.18" cy="1105.84" r="4" stroke="rgb(0,106,255)" stroke-width="2" fill="none"></circle>
<circle cx="3885.54" cy="2299.82" r="4" stroke="rgb(80,255,0)" stroke-width="2" fill="none"></circle>
<circle cx="6811.77" cy="1074.82" r="4" stroke="rgb(80,255,0)" stroke-width="2" fill="none"></circle>
<circle cx="3799.1" cy="2301.41" r="4" stroke="rgb(255,204,0)" stroke-width="2" fill="none"></circle>
<circle cx="6691.59" cy="1793.18" r="4" stroke="rgb(255,204,0)" stroke-width="2" fill="none"></circle>
<circle cx="952.248" cy="2327.62" r="4" stroke="rgb(255,182,0)" stroke-width="2" fill="none"></circle>
<circle cx="5747.05" cy="1770.18" r="4" stroke="rgb(255,182,0)" stroke-width="2" fill="none"></circle>
<circle cx="2029.26" cy="2328.84" r="4" stroke="rgb(12,255,0)" stroke-width="2" fill="none"></circle>
<circle cx="5299.1" cy="1383.7" r="4" stroke="rgb(12,255,0)" stroke-width="2" fill="none"></circle>
<circle cx="84.7145" cy="2388.71" r="4" stroke="rgb(114,0,255)" stroke-width="2" fill="none"></circle>
<circle cx="6793.06" cy="1282.71" r="4" stroke="rgb(114,0,255)" stroke-width="2" fill="none"></circle>
<circle cx="819.161" cy="2423.4" r="4" stroke="rgb(255,0,110)" stroke-width="2" fill="none"></circle>
<circle cx="5681.37" cy="1912.24" r="4" stroke="rgb(255,0,110)" stroke-width="2" fill="none"></circle>
<circle cx="2538.88" cy="2474.17" r="4" stroke="rgb(0,21,255)" stroke-width="2" fill="none"></circle>
<circle cx="6654.43" cy="1646.54" r="4" stroke="rgb(0,21,255)" stroke-width="2" fill="none"></circle>
<circle cx="183.856" cy="2488.3" r="4" stroke="rgb(0,38,255)" stroke-width="2" fill="none"></circle>
<circle cx="5545.81" cy="1661.28" r="4" stroke="rgb(0,38,255)" stroke-width="2" fill="none"></circle>
<circle cx="2337.94" cy="2511.53" r="4" stroke="rgb(0,225,255)" stroke-width="2" fill="none"></circle>
<circle cx="6181.39" cy="1448.99" r="4" stroke="rgb(0,225,255)" stroke-width="2" fill="none"></circle>
<circle cx="381.258" cy="2512.17" r="4" stroke="rgb(0,255,63)" stroke-width="2" fill="none"></circle>
<circle cx="5437.53" cy="1325.13" r="4" stroke="rgb(0,255,63)" stroke-width="2" fill="none"></circle>
<circle cx="3707.47" cy="2523.1" r="4" stroke="rgb(255,0,0)" stroke-width="2" fill="none"></circle>
<circle cx="7750.61" cy="2236.42" r="4" stroke="rgb(255,0,0)" stroke-width="2" fill="none"></circle>
<circle cx="4016.12" cy="2549.87" r="4" stroke="rgb(255,242,0)" stroke-width="2" fill="none"></circle>
<circle cx="7749.28" cy="1407.94" r="4" stroke="rgb(255,242,0)" stroke-width="2" fill="none"></circle>
<circle cx="3403.57" cy="2562.44" r="4" stroke="rgb(255,238,0)" stroke-width="2" fill="none"></circle>
<circle cx="6005.89" cy="1226.04" r="4" stroke="rgb(255,238,0)" stroke-width="2" fill="none"></circle>
<circle cx="3943.14" cy="2563.51" r="4" stroke="rgb(0,255,140)" stroke-width="2" fill="none"></circle>
<circle cx="6912.52" cy="1208.38" r="4" stroke="rgb(0,255,140)" stroke-width="2" fill="none"></circle>
<circle cx="2468.34" cy="2575.32" r="4" stroke="rgb(191,255,0)" stroke-width="2" fill="none"></circle>
<circle cx="6260.94" cy="1818.92" r="4" stroke="rgb(191,255,0)" stroke-width="2" fill="none"></circle>
<circle cx="2010.45" cy="2579.79" r="4" stroke="rgb(0,114,255)" stroke-width="2" fill="none"></circle>
<circle cx="6647.19" cy="1874.5" r="4" stroke="rgb(0,114,255)" stroke-width="2" fill="none"></circle>
<circle cx="2308.47" cy="2660.07" r="4" stroke="rgb(0,255,233)" stroke-width="2" fill="none"></circle>
<circle cx="6129.51" cy="1609.11" r="4" stroke="rgb(0,255,233)" stroke-width="2" fill="none"></circle>
<circle cx="144.017" cy="2666.78" r="4" stroke="rgb(0,255,59)" stroke-width="2" fill="none"></circle>
<circle cx="5851.94" cy="1176.58" r="4" stroke="rgb(0,255,59)" stroke-width="2" fill="none"></circle>
<circle cx="3450.19" cy="2674.82" r="4" stroke="rgb(0,199,255)" stroke-width="2" fill="none"></circle>
<circle cx="7076.41" cy="2961.98" r="4" stroke="rgb(0,199,255)" stroke-width="2" fill="none"></circle>
<circle cx="3187.05" cy="2679.76" r="4" stroke="rgb(255,0,80)" stroke-width="2" fill="none"></circle>
<circle cx="6794.94" cy="1225.3" r="4" stroke="rgb(255,0,80)" stroke-width="2" fill="none"></circle>
<circle cx="1924.78" cy="2730.82" r="4" stroke="rgb(255,182,0)" stroke-width="2" fill="none"></circle>
<circle cx="6647.2" cy="2205.71" r="4" stroke="rgb(255,182,0)" stroke-width="2" fill="none"></circle>
<circle cx="3157.57" cy="2756.04" r="4" stroke="rgb(255,221,0)" stroke-width="2" fill="none"></circle>
<circle cx="7019.34" cy="2797.38" r="4" stroke="rgb(255,221,0)" stroke-width="2" fill="none"></circle>
<circle cx="3763.73" cy="2765.07" r="4" stroke="rgb(0,191,255)" stroke-width="2" fill="none"></circle>
<circle cx="7016.62" cy="1785.41" r="4" stroke="rgb(0,191,255)" stroke-width="2" fill="none"></circle>
<circle cx="3777.61" cy="2808.77" r="4" stroke="rgb(255,0,237)" stroke-width="2" fill="none"></circle>
<circle cx="6076.13" cy="1760.81" r="4" stroke="rgb(255,0,237)" stroke-width="2" fill="none"></circle>
<circle cx="3943.88" cy="2822.38" r="4" stroke="rgb(216,255,0)" stroke-width="2" fill="none"></circle>
<circle cx="5967.24" cy="1099.06" r="4" stroke="rgb(216,255,0)" stroke-width="2" fill="none"></circle>
<circle cx="2369.46" cy="2852.04" r="4" stroke="rgb(0,255,212)" stroke-width="2" fill="none"></circle>
<circle cx="6032.61" cy="1445.17" r="4" stroke="rgb(0,255,212)" stroke-width="2" fill="none"></circle>
<circle cx="3011.5" cy="2863.39" r="4" stroke="rgb(255,110,0)" stroke-width="2" fill="none"></circle>
<circle cx="5954.44" cy="1812.34" r="4" stroke="rgb(255,110,0)" stroke-width="2" fill="none"></circle>
<circle cx="3818.47" cy="2868.09" r="4" stroke="rgb(67,255,0)" stroke-width="2" fill="none"></circle>
<circle cx="6382.93" cy="1773.48" r="4" stroke="rgb(67,255,0)" stroke-width="2" fill="none"></circle>
<circle cx="3065.37" cy="2869.58" r="4" stroke="rgb(221,0,255)" stroke-width="2" fill="none"></circle>
<circle cx="7977.44" cy="855.914" r="4" stroke="rgb(221,0,255)" stroke-width="2" fill="none"></circle>
<circle cx="3330.7" cy="2873.55" r="4" stroke="rgb(254,0,255)" stroke-width="2" fill="none"></circle>
<circle cx="6379.33" cy="1824.89" r="4" stroke="rgb(254,0,255)" stroke-width="2" fill="none"></circle>
<circle cx="2931.7" cy="2890.51" r="4" stroke="rgb(0,203,255)" stroke-width="2" fill="none"></circle>
<circle cx="5897.2" cy="1830.25" r="4" stroke="rgb(0,203,255)" stroke-width="2" fill="none"></circle>
<circle cx="2214.16" cy="2915.41" r="4" stroke="rgb(106,0,255)" stroke-width="2" fill="none"></circle>
<circle cx="7440.49" cy="2880.56" r="4" stroke="rgb(106,0,255)" stroke-width="2" fill="none"></circle>
<circle cx="2635.05" cy="2935.73" r="4" stroke="rgb(0,80,255)" stroke-width="2" fill="none"></circle>
<circle cx="7062.67" cy="1654.38" r="4" stroke="rgb(0,80,255)" stroke-width="2" fill="none"></circle>
<circle cx="3396.39" cy="2941.6" r="4" stroke="rgb(55,255,0)" stroke-width="2" fill="none"></circle>
<circle cx="7232.65" cy="2638.94" r="4" stroke="rgb(55,255,0)" stroke-width="2" fill="none"></circle>
<circle cx="2890.3" cy="2989.09" r="4" stroke="rgb(59,0,255)" stroke-width="2" fill="none"></circle>
<circle cx="7726.97" cy="2267.77" r="4" stroke="rgb(59,0,255)" stroke-width="2" fill="none"></circle>
<circle cx="3822.35" cy="2993.44" r="4" stroke="rgb(255,0,0)" stroke-width="2" fill="none"></circle>
<circle cx="6919.64" cy="1642.98" r="4" stroke="rgb(255,0,0)" stroke-width="2" fill="none"></circle>
</svg>