<?xml version="1.0" standalone="yes"?>
<!-- SVG graphic -->
<svg xmlns='http://www.w3.org/2000/svg' xmlns:xlink='http://www.w3.org/1999/xlink'
width="8064px" height="3024px" preserveAspectRatio="xMinYMin meet" viewBox="0 0 8064 3024" version="1.1">
<image x="0" y="0" width="4032px" height="3024px" opacity="1" xlink:href="/home/jeong/Code/2D-to-3D-Modeling-using-AI/Make3D/Image/20200227_180625.jpg"/>
<image x="4032" y="0" width="4032px" height="3024px" opacity="1" xlink:href="/home/jeong/Code/2D-to-3D-Modeling-using-AI/Make3D/Image/20200227_180651.jpg"/>
<polyline points="3942.1,25.9386,7622.57,124.302" stroke="rgb(0,255,242)" stroke-width="2" fill="none"></polyline>
<polyline points="3235.45,53.6874,5010.47,244.648" stroke="rgb(0,255,199)" stroke-width="2" fill="none"></polyline>
<polyline points="2658.98,55.3915,6603.34,1619.05" stroke="rgb(127,255,0)" stroke-width="2" fill="none"></polyline>
<polyline points="3126.85,56.0838,5317.32,805.181" stroke="rgb(0,255,46)" stroke-width="2" fill="none"></polyline>
<polyline points="2741.19,70.0267,7942.95,717.581" stroke="rgb(0,255,135)" stroke-width="2" fill="none"></polyline>
<polyline points="3730.05,96.02,6805.84,1876.63" stroke="rgb(182,255,0)" stroke-width="2" fill="none"></polyline>
<polyline points="2840.33,100.343,7607.2,642.584" stroke="rgb(50,0,255)" stroke-width="2" fill="none"></polyline>
<polyline points="3185.91,100.378,6842.5,1632.84" stroke="rgb(85,0,255)" stroke-width="2" fill="none"></polyline>
<polyline points="3489.67,107.584,7169.38,1652.8" stroke="rgb(0,8,255)" stroke-width="2" fill="none"></polyline>
<polyline points="3923.25,113.819,7819.25,1015.46" stroke="rgb(42,0,255)" stroke-width="2" fill="none"></polyline>
<polyline points="3519.78,141.174,7369.38,454.092" stroke="rgb(16,255,0)" stroke-width="2" fill="none"></polyline>
<polyline points="3412.5,146.841,4281.84,1906.47" stroke="rgb(255,0,174)" stroke-width="2" fill="none"></polyline>
<polyline points="3329.16,191.987,7199.13,48.4488" stroke="rgb(255,0,8)" stroke-width="2" fill="none"></polyline>
<polyline points="3708.89,195.698,6601.9,1866.96" stroke="rgb(0,38,255)" stroke-width="2" fill="none"></polyline>
<polyline points="3486.34,197.134,7626.72,665.954" stroke="rgb(255,0,140)" stroke-width="2" fill="none"></polyline>
<polyline points="3947.01,216.637,6859.76,1827.51" stroke="rgb(182,0,255)" stroke-width="2" fill="none"></polyline>
<polyline points="3773.64,245.714,5944.57,2008.92" stroke="rgb(76,0,255)" stroke-width="2" fill="none"></polyline>
<polyline points="3644.02,249.624,7509.31,853.702" stroke="rgb(255,250,0)" stroke-width="2" fill="none"></polyline>
<polyline points="3864.6,280.295,5887.6,1937.17" stroke="rgb(255,195,0)" stroke-width="2" fill="none"></polyline>
<polyline points="2812.22,287.597,7629.82,1129.29" stroke="rgb(148,0,255)" stroke-width="2" fill="none"></polyline>
<polyline points="2826.99,301.758,7110.49,627.968" stroke="rgb(212,255,0)" stroke-width="2" fill="none"></polyline>
<polyline points="2759.65,365.37,6584.98,157.448" stroke="rgb(106,0,255)" stroke-width="2" fill="none"></polyline>
<polyline points="3936.46,399.074,7235.5,84.7697" stroke="rgb(0,174,255)" stroke-width="2" fill="none"></polyline>
<polyline points="2994.58,405.433,7998.17,261.575" stroke="rgb(255,0,212)" stroke-width="2" fill="none"></polyline>
<polyline points="3567.08,426.547,7073.71,74.6524" stroke="rgb(0,255,131)" stroke-width="2" fill="none"></polyline>
<polyline points="3077.75,453.02,7011.75,745.439" stroke="rgb(255,0,136)" stroke-width="2" fill="none"></polyline>
<polyline points="3977.79,484.538,7408.49,725.024" stroke="rgb(0,246,255)" stroke-width="2" fill="none"></polyline>
<polyline points="3663.73,499.785,7606.57,710.109" stroke="rgb(255,102,0)" stroke-width="2" fill="none"></polyline>
<polyline points="3761.34,545.924,6249.37,1746.61" stroke="rgb(80,0,255)" stroke-width="2" fill="none"></polyline>
<polyline points="3559.41,560.93,6408.5,1910.76" stroke="rgb(0,114,255)" stroke-width="2" fill="none"></polyline>
<polyline points="3355.94,586.195,4395.27,2496.26" stroke="rgb(0,255,46)" stroke-width="2" fill="none"></polyline>
<polyline points="3295.14,595.485,5897.21,1872.61" stroke="rgb(255,0,221)" stroke-width="2" fill="none"></polyline>
<polyline points="606.595,621.215,5149.77,387.918" stroke="rgb(255,85,0)" stroke-width="2" fill="none"></polyline>
<polyline points="3330.08,627.845,5979.77,1111.84" stroke="rgb(0,80,255)" stroke-width="2" fill="none"></polyline>
<polyline points="3386.64,650.611,6989.38,761.807" stroke="rgb(255,0,208)" stroke-width="2" fill="none"></polyline>
<polyline points="3314.53,657.694,4440.73,2329.09" stroke="rgb(255,187,0)" stroke-width="2" fill="none"></polyline>
<polyline points="1413.07,673.789,5744.72,1982.3" stroke="rgb(250,0,255)" stroke-width="2" fill="none"></polyline>
<polyline points="2983.94,677.455,6992.22,742.943" stroke="rgb(0,157,255)" stroke-width="2" fill="none"></polyline>
<polyline points="681.095,687.781,5649.75,1779.65" stroke="rgb(0,255,242)" stroke-width="2" fill="none"></polyline>
<polyline points="3300.53,696.812,7055.06,1910.15" stroke="rgb(255,208,0)" stroke-width="2" fill="none"></polyline>
<polyline points="3854.5,720.083,6848.31,948.276" stroke="rgb(255,0,148)" stroke-width="2" fill="none"></polyline>
<polyline points="3883.14,775.367,6540.57,1968.76" stroke="rgb(225,0,255)" stroke-width="2" fill="none"></polyline>
<polyline points="2920.16,816.781,7448.66,260.876" stroke="rgb(255,34,0)" stroke-width="2" fill="none"></polyline>
<polyline points="2925.59,819.422,5309.91,782.247" stroke="rgb(0,191,255)" stroke-width="2" fill="none"></polyline>
<polyline points="1166.83,870.264,6500.57,997.77" stroke="rgb(255,157,0)" stroke-width="2" fill="none"></polyline>
<polyline points="3679.15,879.863,6839.72,1770.58" stroke="rgb(0,140,255)" stroke-width="2" fill="none"></polyline>
<polyline points="814.883,880.775,5556.12,1420.72" stroke="rgb(8,255,0)" stroke-width="2" fill="none"></polyline>
<polyline points="738.59,912.422,5303.03,1491.4" stroke="rgb(233,0,255)" stroke-width="2" fill="none"></polyline>
<polyline points="3853.98,922.957,6419.18,1995.64" stroke="rgb(0,255,76)" stroke-width="2" fill="none"></polyline>
<polyline points="3887.2,937.779,4203.31,2713.41" stroke="rgb(255,157,0)" stroke-width="2" fill="none"></polyline>
<polyline points="1572.31,951.001,5270.39,505.872" stroke="rgb(0,123,255)" stroke-width="2" fill="none"></polyline>
<polyline points="1206.06,953.407,6626.03,1841.47" stroke="rgb(0,135,255)" stroke-width="2" fill="none"></polyline>
<polyline points="1611.95,983.398,5650.49,1353.26" stroke="rgb(255,0,246)" stroke-width="2" fill="none"></polyline>
<polyline points="2780.3,1013.4,6684.86,923.675" stroke="rgb(178,0,255)" stroke-width="2" fill="none"></polyline>
<polyline points="2492.84,1070.35,5071.55,701.05" stroke="rgb(255,127,0)" stroke-width="2" fill="none"></polyline>
<polyline points="3838.23,1092.93,6857.13,1600.02" stroke="rgb(110,255,0)" stroke-width="2" fill="none"></polyline>
<polyline points="89.0704,1103.15,6833.59,1467.86" stroke="rgb(42,0,255)" stroke-width="2" fill="none"></polyline>
<polyline points="2506.45,1114.06,5466.04,854.737" stroke="rgb(0,119,255)" stroke-width="2" fill="none"></polyline>
<polyline points="797.528,1115.57,6727.78,971.139" stroke="rgb(8,255,0)" stroke-width="2" fill="none"></polyline>
<polyline points="1420.81,1122.42,4212.37,2911.35" stroke="rgb(255,89,0)" stroke-width="2" fill="none"></polyline>
<polyline points="799.104,1124.05,5194.01,1981.59" stroke="rgb(233,255,0)" stroke-width="2" fill="none"></polyline>
<polyline points="409.782,1147.98,5484.48,1990.72" stroke="rgb(38,0,255)" stroke-width="2" fill="none"></polyline>
<polyline points="3976.42,1156.89,6609.61,924.967" stroke="rgb(0,165,255)" stroke-width="2" fill="none"></polyline>
<polyline points="2179.66,1168.89,5400.98,1853.59" stroke="rgb(255,0,178)" stroke-width="2" fill="none"></polyline>
<polyline points="2893.49,1171.46,6714.21,951.433" stroke="rgb(255,0,76)" stroke-width="2" fill="none"></polyline>
<polyline points="3085.22,1193.59,5864.69,2000.9" stroke="rgb(0,255,135)" stroke-width="2" fill="none"></polyline>
<polyline points="3206.79,1196.65,6051.73,1561.97" stroke="rgb(0,25,255)" stroke-width="2" fill="none"></polyline>
<polyline points="2023.73,1201.42,6396.16,1908.28" stroke="rgb(174,0,255)" stroke-width="2" fill="none"></polyline>
<polyline points="3080.62,1205.76,5868.94,2007.95" stroke="rgb(0,55,255)" stroke-width="2" fill="none"></polyline>
<polyline points="2869.6,1210.95,6063.5,2016.91" stroke="rgb(255,216,0)" stroke-width="2" fill="none"></polyline>
<polyline points="1649.69,1220.29,5660.22,1363.88" stroke="rgb(0,161,255)" stroke-width="2" fill="none"></polyline>
<polyline points="2357.18,1225.44,7135.74,1734.13" stroke="rgb(0,203,255)" stroke-width="2" fill="none"></polyline>
<polyline points="1846.94,1241.36,6020.89,414.225" stroke="rgb(255,0,63)" stroke-width="2" fill="none"></polyline>
<polyline points="963.657,1271.36,5402.59,1121.81" stroke="rgb(0,123,255)" stroke-width="2" fill="none"></polyline>
<polyline points="2169.62,1301.47,6533.93,1839.73" stroke="rgb(255,114,0)" stroke-width="2" fill="none"></polyline>
<polyline points="533.448,1320.91,5307.4,730.602" stroke="rgb(255,93,0)" stroke-width="2" fill="none"></polyline>
<polyline points="673.216,1352.04,5773.56,1629.71" stroke="rgb(212,0,255)" stroke-width="2" fill="none"></polyline>
<polyline points="2159.87,1433.54,5619.21,1053.72" stroke="rgb(255,76,0)" stroke-width="2" fill="none"></polyline>
<polyline points="3965.14,1448.55,6249.48,1746.23" stroke="rgb(0,216,255)" stroke-width="2" fill="none"></polyline>
<polyline points="3687.34,1469.26,7966.21,1708.06" stroke="rgb(216,255,0)" stroke-width="2" fill="none"></polyline>
<polyline points="1387.57,1476.25,5022.06,317.265" stroke="rgb(255,233,0)" stroke-width="2" fill="none"></polyline>
<polyline points="3591.71,1477.99,7651.55,861.872" stroke="rgb(135,0,255)" stroke-width="2" fill="none"></polyline>
<polyline points="1134.49,1482.34,5160,678.825" stroke="rgb(0,255,123)" stroke-width="2" fill="none"></polyline>
<polyline points="2274.15,1487.57,6644.5,897.339" stroke="rgb(255,0,12)" stroke-width="2" fill="none"></polyline>
<polyline points="801.46,1488.71,5644.13,1197.03" stroke="rgb(229,255,0)" stroke-width="2" fill="none"></polyline>
<polyline points="2213.14,1489.47,6408.28,1847.07" stroke="rgb(0,255,254)" stroke-width="2" fill="none"></polyline>
<polyline points="2051.92,1573.48,7130.31,1812.03" stroke="rgb(123,255,0)" stroke-width="2" fill="none"></polyline>
<polyline points="3963.34,1577.84,4381.33,118.778" stroke="rgb(255,0,182)" stroke-width="2" fill="none"></polyline>
<polyline points="1096.87,1617.05,5623.07,1066.65" stroke="rgb(255,136,0)" stroke-width="2" fill="none"></polyline>
<polyline points="2111.03,1729.59,4393.84,1370.07" stroke="rgb(165,255,0)" stroke-width="2" fill="none"></polyline>
<polyline points="2294.72,1756.9,6437.09,1523.34" stroke="rgb(0,127,255)" stroke-width="2" fill="none"></polyline>
<polyline points="2403.11,1813.91,5711.92,1871.46" stroke="rgb(93,255,0)" stroke-width="2" fill="none"></polyline>
<polyline points="3947.99,1823.44,6044.24,1849.43" stroke="rgb(255,0,127)" stroke-width="2" fill="none"></polyline>
<polyline points="1785.88,1874.18,5597.94,1231.39" stroke="rgb(255,221,0)" stroke-width="2" fill="none"></polyline>
<polyline points="1215.16,1876.11,7045.83,1833.77" stroke="rgb(203,0,255)" stroke-width="2" fill="none"></polyline>
<polyline points="1795.38,1909.95,7923.83,963.171" stroke="rgb(255,0,199)" stroke-width="2" fill="none"></polyline>
<polyline points="2334.59,1924.04,6311.97,1659.79" stroke="rgb(187,255,0)" stroke-width="2" fill="none"></polyline>
<polyline points="1298.6,1928.87,5263.36,1527.05" stroke="rgb(0,255,178)" stroke-width="2" fill="none"></polyline>
<polyline points="4012.89,1929.38,7420.24,762.289" stroke="rgb(59,255,0)" stroke-width="2" fill="none"></polyline>
<polyline points="1321.81,1994.11,5757.94,2035.69" stroke="rgb(255,0,237)" stroke-width="2" fill="none"></polyline>
<polyline points="2178.12,1996.18,5184.53,548.169" stroke="rgb(0,110,255)" stroke-width="2" fill="none"></polyline>
<polyline points="3742.15,2009.52,8014.97,3.93237" stroke="rgb(255,0,216)" stroke-width="2" fill="none"></polyline>
<polyline points="2676.62,2019.14,4284.01,2932.95" stroke="rgb(255,34,0)" stroke-width="2" fill="none"></polyline>
<polyline points="3855.93,2032.82,6400.08,2167.99" stroke="rgb(208,255,0)" stroke-width="2" fill="none"></polyline>
<polyline points="1061.06,2039.57,6921.23,1978.92" stroke="rgb(255,136,0)" stroke-width="2" fill="none"></polyline>
<polyline points="1487.38,2056.29,5391.39,989.011" stroke="rgb(118,0,255)" stroke-width="2" fill="none"></polyline>
<polyline points="3896.94,2066.81,5987.57,1885.73" stroke="rgb(255,0,148)" stroke-width="2" fill="none"></polyline>
<polyline points="4023,2122.57,5885.8,1961.92" stroke="rgb(255,0,161)" stroke-width="2" fill="none"></polyline>
<polyline points="1568,2160.12,5079.69,214.443" stroke="rgb(195,0,255)" stroke-width="2" fill="none"></polyline>
<polyline points="3968.29,2212.82,7039.04,178.984" stroke="rgb(255,110,0)" stroke-width="2" fill="none"></polyline>
<polyline points="1411.83,2215.42,5370.6,961.384" stroke="rgb(97,0,255)" stroke-width="2" fill="none"></polyline>
<polyline points="778.767,2224.78,5859.67,1728.87" stroke="rgb(255,0,80)" stroke-width="2" fill="none"></polyline>
<polyline points="4011.15,2284.65,5916.66,1986" stroke="rgb(250,0,255)" stroke-width="2" fill="none"></polyline>
<polyline points="1158.89,2291.88,5398.32,1533.78" stroke="rgb(255,225,0)" stroke-width="2" fill="none"></polyline>
<polyline points="1635.81,2300.66,4855.49,255.985" stroke="rgb(255,0,93)" stroke-width="2" fill="none"></polyline>
<polyline points="3697.71,2337.48,7108.68,1918.62" stroke="rgb(255,21,0)" stroke-width="2" fill="none"></polyline>
<polyline points="3946.6,2448.4,6295.22,1700.42" stroke="rgb(0,29,255)" stroke-width="2" fill="none"></polyline>
<polyline points="3939.51,2480.46,7463.27,443.105" stroke="rgb(255,0,246)" stroke-width="2" fill="none"></polyline>
<polyline points="1805.32,2514.78,4962.71,560.004" stroke="rgb(0,195,255)" stroke-width="2" fill="none"></polyline>
<polyline points="2439.33,2532.3,5401.55,795.271" stroke="rgb(106,0,255)" stroke-width="2" fill="none"></polyline>
<polyline points="3942.59,2547.54,7037.31,482.732" stroke="rgb(255,97,0)" stroke-width="2" fill="none"></polyline>
<polyline points="3842.67,2561.09,7604.34,410.034" stroke="rgb(157,0,255)" stroke-width="2" fill="none"></polyline>
<polyline points="1504.85,2605.06,5161.88,1653.03" stroke="rgb(0,21,255)" stroke-width="2" fill="none"></polyline>
<polyline points="905.783,2677.79,5681.27,1743.71" stroke="rgb(255,0,25)" stroke-width="2" fill="none"></polyline>
<polyline points="3893.4,2680.59,6750.81,1705.81" stroke="rgb(0,165,255)" stroke-width="2" fill="none"></polyline>
<polyline points="3914.8,2705.51,6679.04,1850.97" stroke="rgb(0,255,182)" stroke-width="2" fill="none"></polyline>
<polyline points="1439.44,2721.97,5292.14,668.786" stroke="rgb(0,255,250)" stroke-width="2" fill="none"></polyline>
<polyline points="3764.18,2739.65,7866.12,152.348" stroke="rgb(157,0,255)" stroke-width="2" fill="none"></polyline>
<polyline points="3826.64,2742.09,7196.05,660.434" stroke="rgb(0,178,255)" stroke-width="2" fill="none"></polyline>
<polyline points="3772.4,2827.05,7982,230.278" stroke="rgb(0,255,157)" stroke-width="2" fill="none"></polyline>
<polyline points="3938.04,2848.99,7655.69,392.529" stroke="rgb(0,80,255)" stroke-width="2" fill="none"></polyline>
<polyline points="3476.04,2932.06,7731.83,463.697" stroke="rgb(255,221,0)" stroke-width="2" fill="none"></polyline>
<circle cx="3942.1" cy="25.9386" r="4" stroke="rgb(0,255,242)" stroke-width="2" fill="none"></circle>
<circle cx="7622.57" cy="124.302" r="4" stroke="rgb(0,255,242)" stroke-width="2" fill="none"></circle>
<circle cx="3235.45" cy="53.6874" r="4" stroke="rgb(0,255,199)" stroke-width="2" fill="none"></circle>
<circle cx="5010.47" cy="244.648" r="4" stroke="rgb(0,255,199)" stroke-width="2" fill="none"></circle>
<circle cx="2658.98" cy="55.3915" r="4" stroke="rgb(127,255,0)" stroke-width="2" fill="none"></circle>
<circle cx="6603.34" cy="1619.05" r="4" stroke="rgb(127,255,0)" stroke-width="2" fill="none"></circle>
<circle cx="3126.85" cy="56.0838" r="4" stroke="rgb(0,255,46)" stroke-width="2" fill="none"></circle>
<circle cx="5317.32" cy="805.181" r="4" stroke="rgb(0,255,46)" stroke-width="2" fill="none"></circle>
<circle cx="2741.19" cy="70.0267" r="4" stroke="rgb(0,255,135)" stroke-width="2" fill="none"></circle>
<circle cx="7942.95" cy="717.581" r="4" stroke="rgb(0,255,135)" stroke-width="2" fill="none"></circle>
<circle cx="3730.05" cy="96.02" r="4" stroke="rgb(182,255,0)" stroke-width="2" fill="none"></circle>
<circle cx="6805.84" cy="1876.63" r="4" stroke="rgb(182,255,0)" stroke-width="2" fill="none"></circle>
<circle cx="2840.33" cy="100.343" r="4" stroke="rgb(50,0,255)" stroke-width="2" fill="none"></circle>
<circle cx="7607.2" cy="642.584" r="4" stroke="rgb(50,0,255)" stroke-width="2" fill="none"></circle>
<circle cx="3185.91" cy="100.378" r="4" stroke="rgb(85,0,255)" stroke-width="2" fill="none"></circle>
<circle cx="6842.5" cy="1632.84" r="4" stroke="rgb(85,0,255)" stroke-width="2" fill="none"></circle>
<circle cx="3489.67" cy="107.584" r="4" stroke="rgb(0,8,255)" stroke-width="2" fill="none"></circle>
<circle cx="7169.38" cy="1652.8" r="4" stroke="rgb(0,8,255)" stroke-width="2" fill="none"></circle>
<circle cx="3923.25" cy="113.819" r="4" stroke="rgb(42,0,255)" stroke-width="2" fill="none"></circle>
<circle cx="7819.25" cy="1015.46" r="4" stroke="rgb(42,0,255)" stroke-width="2" fill="none"></circle>
<circle cx="3519.78" cy="141.174" r="4" stroke="rgb(16,255,0)" stroke-width="2" fill="none"></circle>
<circle cx="7369.38" cy="454.092" r="4" stroke="rgb(16,255,0)" stroke-width="2" fill="none"></circle>
<circle cx="3412.5" cy="146.841" r="4" stroke="rgb(255,0,174)" stroke-width="2" fill="none"></circle>
<circle cx="4281.84" cy="1906.47" r="4" stroke="rgb(255,0,174)" stroke-width="2" fill="none"></circle>
<circle cx="3329.16" cy="191.987" r="4" stroke="rgb(255,0,8)" stroke-width="2" fill="none"></circle>
<circle cx="7199.13" cy="48.4488" r="4" stroke="rgb(255,0,8)" stroke-width="2" fill="none"></circle>
<circle cx="3708.89" cy="195.698" r="4" stroke="rgb(0,38,255)" stroke-width="2" fill="none"></circle>
<circle cx="6601.9" cy="1866.96" r="4" stroke="rgb(0,38,255)" stroke-width="2" fill="none"></circle>
<circle cx="3486.34" cy="197.134" r="4" stroke="rgb(255,0,140)" stroke-width="2" fill="none"></circle>
<circle cx="7626.72" cy="665.954" r="4" stroke="rgb(255,0,140)" stroke-width="2" fill="none"></circle>
<circle cx="3947.01" cy="216.637" r="4" stroke="rgb(182,0,255)" stroke-width="2" fill="none"></circle>
<circle cx="6859.76" cy="1827.51" r="4" stroke="rgb(182,0,255)" stroke-width="2" fill="none"></circle>
<circle cx="3773.64" cy="245.714" r="4" stroke="rgb(76,0,255)" stroke-width="2" fill="none"></circle>
<circle cx="5944.57" cy="2008.92" r="4" stroke="rgb(76,0,255)" stroke-width="2" fill="none"></circle>
<circle cx="3644.02" cy="249.624" r="4" stroke="rgb(255,250,0)" stroke-width="2" fill="none"></circle>
<circle cx="7509.31" cy="853.702" r="4" stroke="rgb(255,250,0)" stroke-width="2" fill="none"></circle>
<circle cx="3864.6" cy="280.295" r="4" stroke="rgb(255,195,0)" stroke-width="2" fill="none"></circle>
<circle cx="5887.6" cy="1937.17" r="4" stroke="rgb(255,195,0)" stroke-width="2" fill="none"></circle>
<circle cx="2812.22" cy="287.597" r="4" stroke="rgb(148,0,255)" stroke-width="2" fill="none"></circle>
<circle cx="7629.82" cy="1129.29" r="4" stroke="rgb(148,0,255)" stroke-width="2" fill="none"></circle>
<circle cx="2826.99" cy="301.758" r="4" stroke="rgb(212,255,0)" stroke-width="2" fill="none"></circle>
<circle cx="7110.49" cy="627.968" r="4" stroke="rgb(212,255,0)" stroke-width="2" fill="none"></circle>
<circle cx="2759.65" cy="365.37" r="4" stroke="rgb(106,0,255)" stroke-width="2" fill="none"></circle>
<circle cx="6584.98" cy="157.448" r="4" stroke="rgb(106,0,255)" stroke-width="2" fill="none"></circle>
<circle cx="3936.46" cy="399.074" r="4" stroke="rgb(0,174,255)" stroke-width="2" fill="none"></circle>
<circle cx="7235.5" cy="84.7697" r="4" stroke="rgb(0,174,255)" stroke-width="2" fill="none"></circle>
<circle cx="2994.58" cy="405.433" r="4" stroke="rgb(255,0,212)" stroke-width="2" fill="none"></circle>
<circle cx="7998.17" cy="261.575" r="4" stroke="rgb(255,0,212)" stroke-width="2" fill="none"></circle>
<circle cx="3567.08" cy="426.547" r="4" stroke="rgb(0,255,131)" stroke-width="2" fill="none"></circle>
<circle cx="7073.71" cy="74.6524" r="4" stroke="rgb(0,255,131)" stroke-width="2" fill="none"></circle>
<circle cx="3077.75" cy="453.02" r="4" stroke="rgb(255,0,136)" stroke-width="2" fill="none"></circle>
<circle cx="7011.75" cy="745.439" r="4" stroke="rgb(255,0,136)" stroke-width="2" fill="none"></circle>
<circle cx="3977.79" cy="484.538" r="4" stroke="rgb(0,246,255)" stroke-width="2" fill="none"></circle>
<circle cx="7408.49" cy="725.024" r="4" stroke="rgb(0,246,255)" stroke-width="2" fill="none"></circle>
<circle cx="3663.73" cy="499.785" r="4" stroke="rgb(255,102,0)" stroke-width="2" fill="none"></circle>
<circle cx="7606.57" cy="710.109" r="4" stroke="rgb(255,102,0)" stroke-width="2" fill="none"></circle>
<circle cx="3761.34" cy="545.924" r="4" stroke="rgb(80,0,255)" stroke-width="2" fill="none"></circle>
<circle cx="6249.37" cy="1746.61" r="4" stroke="rgb(80,0,255)" stroke-width="2" fill="none"></circle>
<circle cx="3559.41" cy="560.93" r="4" stroke="rgb(0,114,255)" stroke-width="2" fill="none"></circle>
<circle cx="6408.5" cy="1910.76" r="4" stroke="rgb(0,114,255)" stroke-width="2" fill="none"></circle>
<circle cx="3355.94" cy="586.195" r="4" stroke="rgb(0,255,46)" stroke-width="2" fill="none"></circle>
<circle cx="4395.27" cy="2496.26" r="4" stroke="rgb(0,255,46)" stroke-width="2" fill="none"></circle>
<circle cx="3295.14" cy="595.485" r="4" stroke="rgb(255,0,221)" stroke-width="2" fill="none"></circle>
<circle cx="5897.21" cy="1872.61" r="4" stroke="rgb(255,0,221)" stroke-width="2" fill="none"></circle>
<circle cx="606.595" cy="621.215" r="4" stroke="rgb(255,85,0)" stroke-width="2" fill="none"></circle>
<circle cx="5149.77" cy="387.918" r="4" stroke="rgb(255,85,0)" stroke-width="2" fill="none"></circle>
<circle cx="3330.08" cy="627.845" r="4" stroke="rgb(0,80,255)" stroke-width="2" fill="none"></circle>
<circle cx="5979.77" cy="1111.84" r="4" stroke="rgb(0,80,255)" stroke-width="2" fill="none"></circle>
<circle cx="3386.64" cy="650.611" r="4" stroke="rgb(255,0,208)" stroke-width="2" fill="none"></circle>
<circle cx="6989.38" cy="761.807" r="4" stroke="rgb(255,0,208)" stroke-width="2" fill="none"></circle>
<circle cx="3314.53" cy="657.694" r="4" stroke="rgb(255,187,0)" stroke-width="2" fill="none"></circle>
<circle cx="4440.73" cy="2329.09" r="4" stroke="rgb(255,187,0)" stroke-width="2" fill="none"></circle>
<circle cx="1413.07" cy="673.789" r="4" stroke="rgb(250,0,255)" stroke-width="2" fill="none"></circle>
<circle cx="5744.72" cy="1982.3" r="4" stroke="rgb(250,0,255)" stroke-width="2" fill="none"></circle>
<circle cx="2983.94" cy="677.455" r="4" stroke="rgb(0,157,255)" stroke-width="2" fill="none"></circle>
<circle cx="6992.22" cy="742.943" r="4" stroke="rgb(0,157,255)" stroke-width="2" fill="none"></circle>
<circle cx="681.095" cy="687.781" r="4" stroke="rgb(0,255,242)" stroke-width="2" fill="none"></circle>
<circle cx="5649.75" cy="1779.65" r="4" stroke="rgb(0,255,242)" stroke-width="2" fill="none"></circle>
<circle cx="3300.53" cy="696.812" r="4" stroke="rgb(255,208,0)" stroke-width="2" fill="none"></circle>
<circle cx="7055.06" cy="1910.15" r="4" stroke="rgb(255,208,0)" stroke-width="2" fill="none"></circle>
<circle cx="3854.5" cy="720.083" r="4" stroke="rgb(255,0,148)" stroke-width="2" fill="none"></circle>
<circle cx="6848.31" cy="948.276" r="4" stroke="rgb(255,0,148)" stroke-width="2" fill="none"></circle>
<circle cx="3883.14" cy="775.367" r="4" stroke="rgb(225,0,255)" stroke-width="2" fill="none"></circle>
<circle cx="6540.57" cy="1968.76" r="4" stroke="rgb(225,0,255)" stroke-width="2" fill="none"></circle>
<circle cx="2920.16" cy="816.781" r="4" stroke="rgb(255,34,0)" stroke-width="2" fill="none"></circle>
<circle cx="7448.66" cy="260.876" r="4" stroke="rgb(255,34,0)" stroke-width="2" fill="none"></circle>
<circle cx="2925.59" cy="819.422" r="4" stroke="rgb(0,191,255)" stroke-width="2" fill="none"></circle>
<circle cx="5309.91" cy="782.247" r="4" stroke="rgb(0,191,255)" stroke-width="2" fill="none"></circle>
<circle cx="1166.83" cy="870.264" r="4" stroke="rgb(255,157,0)" stroke-width="2" fill="none"></circle>
<circle cx="6500.57" cy="997.77" r="4" stroke="rgb(255,157,0)" stroke-width="2" fill="none"></circle>
<circle cx="3679.15" cy="879.863" r="4" stroke="rgb(0,140,255)" stroke-width="2" fill="none"></circle>
<circle cx="6839.72" cy="1770.58" r="4" stroke="rgb(0,140,255)" stroke-width="2" fill="none"></circle>
<circle cx="814.883" cy="880.775" r="4" stroke="rgb(8,255,0)" stroke-width="2" fill="none"></circle>
<circle cx="5556.12" cy="1420.72" r="4" stroke="rgb(8,255,0)" stroke-width="2" fill="none"></circle>
<circle cx="738.59" cy="912.422" r="4" stroke="rgb(233,0,255)" stroke-width="2" fill="none"></circle>
<circle cx="5303.03" cy="1491.4" r="4" stroke="rgb(233,0,255)" stroke-width="2" fill="none"></circle>
<circle cx="3853.98" cy="922.957" r="4" stroke="rgb(0,255,76)" stroke-width="2" fill="none"></circle>
<circle cx="6419.18" cy="1995.64" r="4" stroke="rgb(0,255,76)" stroke-width="2" fill="none"></circle>
<circle cx="3887.2" cy="937.779" r="4" stroke="rgb(255,157,0)" stroke-width="2" fill="none"></circle>
<circle cx="4203.31" cy="2713.41" r="4" stroke="rgb(255,157,0)" stroke-width="2" fill="none"></circle>
<circle cx="1572.31" cy="951.001" r="4" stroke="rgb(0,123,255)" stroke-width="2" fill="none"></circle>
<circle cx="5270.39" cy="505.872" r="4" stroke="rgb(0,123,255)" stroke-width="2" fill="none"></circle>
<circle cx="1206.06" cy="953.407" r="4" stroke="rgb(0,135,255)" stroke-width="2" fill="none"></circle>
<circle cx="6626.03" cy="1841.47" r="4" stroke="rgb(0,135,255)" stroke-width="2" fill="none"></circle>
<circle cx="1611.95" cy="983.398" r="4" stroke="rgb(255,0,246)" stroke-width="2" fill="none"></circle>
<circle cx="5650.49" cy="1353.26" r="4" stroke="rgb(255,0,246)" stroke-width="2" fill="none"></circle>
<circle cx="2780.3" cy="1013.4" r="4" stroke="rgb(178,0,255)" stroke-width="2" fill="none"></circle>
<circle cx="6684.86" cy="923.675" r="4" stroke="rgb(178,0,255)" stroke-width="2" fill="none"></circle>
<circle cx="2492.84" cy="1070.35" r="4" stroke="rgb(255,127,0)" stroke-width="2" fill="none"></circle>
<circle cx="5071.55" cy="701.05" r="4" stroke="rgb(255,127,0)" stroke-width="2" fill="none"></circle>
<circle cx="3838.23" cy="1092.93" r="4" stroke="rgb(110,255,0)" stroke-width="2" fill="none"></circle>
<circle cx="6857.13" cy="1600.02" r="4" stroke="rgb(110,255,0)" stroke-width="2" fill="none"></circle>
<circle cx="89.0704" cy="1103.15" r="4" stroke="rgb(42,0,255)" stroke-width="2" fill="none"></circle>
<circle cx="6833.59" cy="1467.86" r="4" stroke="rgb(42,0,255)" stroke-width="2" fill="none"></circle>
<circle cx="2506.45" cy="1114.06" r="4" stroke="rgb(0,119,255)" stroke-width="2" fill="none"></circle>
<circle cx="5466.04" cy="854.737" r="4" stroke="rgb(0,119,255)" stroke-width="2" fill="none"></circle>
<circle cx="797.528" cy="1115.57" r="4" stroke="rgb(8,255,0)" stroke-width="2" fill="none"></circle>
<circle cx="6727.78" cy="971.139" r="4" stroke="rgb(8,255,0)" stroke-width="2" fill="none"></circle>
<circle cx="1420.81" cy="1122.42" r="4" stroke="rgb(255,89,0)" stroke-width="2" fill="none"></circle>
<circle cx="4212.37" cy="2911.35" r="4" stroke="rgb(255,89,0)" stroke-width="2" fill="none"></circle>
<circle cx="799.104" cy="1124.05" r="4" stroke="rgb(233,255,0)" stroke-width="2" fill="none"></circle>
<circle cx="5194.01" cy="1981.59" r="4" stroke="rgb(233,255,0)" stroke-width="2" fill="none"></circle>
<circle cx="409.782" cy="1147.98" r="4" stroke="rgb(38,0,255)" stroke-width="2" fill="none"></circle>
<circle cx="5484.48" cy="1990.72" r="4" stroke="rgb(38,0,255)" stroke-width="2" fill="none"></circle>
<circle cx="3976.42" cy="1156.89" r="4" stroke="rgb(0,165,255)" stroke-width="2" fill="none"></circle>
<circle cx="6609.61" cy="924.967" r="4" stroke="rgb(0,165,255)" stroke-width="2" fill="none"></circle>
<circle cx="2179.66" cy="1168.89" r="4" stroke="rgb(255,0,178)" stroke-width="2" fill="none"></circle>
<circle cx="5400.98" cy="1853.59" r="4" stroke="rgb(255,0,178)" stroke-width="2" fill="none"></circle>
<circle cx="2893.49" cy="1171.46" r="4" stroke="rgb(255,0,76)" stroke-width="2" fill="none"></circle>
<circle cx="6714.21" cy="951.433" r="4" stroke="rgb(255,0,76)" stroke-width="2" fill="none"></circle>
<circle cx="3085.22" cy="1193.59" r="4" stroke="rgb(0,255,135)" stroke-width="2" fill="none"></circle>
<circle cx="5864.69" cy="2000.9" r="4" stroke="rgb(0,255,135)" stroke-width="2" fill="none"></circle>
<circle cx="3206.79" cy="1196.65" r="4" stroke="rgb(0,25,255)" stroke-width="2" fill="none"></circle>
<circle cx="6051.73" cy="1561.97" r="4" stroke="rgb(0,25,255)" stroke-width="2" fill="none"></circle>
<circle cx="2023.73" cy="1201.42" r="4" stroke="rgb(174,0,255)" stroke-width="2" fill="none"></circle>
<circle cx="6396.16" cy="1908.28" r="4" stroke="rgb(174,0,255)" stroke-width="2" fill="none"></circle>
<circle cx="3080.62" cy="1205.76" r="4" stroke="rgb(0,55,255)" stroke-width="2" fill="none"></circle>
<circle cx="5868.94" cy="2007.95" r="4" stroke="rgb(0,55,255)" stroke-width="2" fill="none"></circle>
<circle cx="2869.6" cy="1210.95" r="4" stroke="rgb(255,216,0)" stroke-width="2" fill="none"></circle>
<circle cx="6063.5" cy="2016.91" r="4" stroke="rgb(255,216,0)" stroke-width="2" fill="none"></circle>
<circle cx="1649.69" cy="1220.29" r="4" stroke="rgb(0,161,255)" stroke-width="2" fill="none"></circle>
<circle cx="5660.22" cy="1363.88" r="4" stroke="rgb(0,161,255)" stroke-width="2" fill="none"></circle>
<circle cx="2357.18" cy="1225.44" r="4" stroke="rgb(0,203,255)" stroke-width="2" fill="none"></circle>
<circle cx="7135.74" cy="1734.13" r="4" stroke="rgb(0,203,255)" stroke-width="2" fill="none"></circle>
<circle cx="1846.94" cy="1241.36" r="4" stroke="rgb(255,0,63)" stroke-width="2" fill="none"></circle>
<circle cx="6020.89" cy="414.225" r="4" stroke="rgb(255,0,63)" stroke-width="2" fill="none"></circle>
<circle cx="963.657" cy="1271.36" r="4" stroke="rgb(0,123,255)" stroke-width="2" fill="none"></circle>
<circle cx="5402.59" cy="1121.81" r="4" stroke="rgb(0,123,255)" stroke-width="2" fill="none"></circle>
<circle cx="2169.62" cy="1301.47" r="4" stroke="rgb(255,114,0)" stroke-width="2" fill="none"></circle>
<circle cx="6533.93" cy="1839.73" r="4" stroke="rgb(255,114,0)" stroke-width="2" fill="none"></circle>
<circle cx="533.448" cy="1320.91" r="4" stroke="rgb(255,93,0)" stroke-width="2" fill="none"></circle>
<circle cx="5307.4" cy="730.602" r="4" stroke="rgb(255,93,0)" stroke-width="2" fill="none"></circle>
<circle cx="673.216" cy="1352.04" r="4" stroke="rgb(212,0,255)" stroke-width="2" fill="none"></circle>
<circle cx="5773.56" cy="1629.71" r="4" stroke="rgb(212,0,255)" stroke-width="2" fill="none"></circle>
<circle cx="2159.87" cy="1433.54" r="4" stroke="rgb(255,76,0)" stroke-width="2" fill="none"></circle>
<circle cx="5619.21" cy="1053.72" r="4" stroke="rgb(255,76,0)" stroke-width="2" fill="none"></circle>
<circle cx="3965.14" cy="1448.55" r="4" stroke="rgb(0,216,255)" stroke-width="2" fill="none"></circle>
<circle cx="6249.48" cy="1746.23" r="4" stroke="rgb(0,216,255)" stroke-width="2" fill="none"></circle>
<circle cx="3687.34" cy="1469.26" r="4" stroke="rgb(216,255,0)" stroke-width="2" fill="none"></circle>
<circle cx="7966.21" cy="1708.06" r="4" stroke="rgb(216,255,0)" stroke-width="2" fill="none"></circle>
<circle cx="1387.57" cy="1476.25" r="4" stroke="rgb(255,233,0)" stroke-width="2" fill="none"></circle>
<circle cx="5022.06" cy="317.265" r="4" stroke="rgb(255,233,0)" stroke-width="2" fill="none"></circle>
<circle cx="3591.71" cy="1477.99" r="4" stroke="rgb(135,0,255)" stroke-width="2" fill="none"></circle>
<circle cx="7651.55" cy="861.872" r="4" stroke="rgb(135,0,255)" stroke-width="2" fill="none"></circle>
<circle cx="1134.49" cy="1482.34" r="4" stroke="rgb(0,255,123)" stroke-width="2" fill="none"></circle>
<circle cx="5160" cy="678.825" r="4" stroke="rgb(0,255,123)" stroke-width="2" fill="none"></circle>
<circle cx="2274.15" cy="1487.57" r="4" stroke="rgb(255,0,12)" stroke-width="2" fill="none"></circle>
<circle cx="6644.5" cy="897.339" r="4" stroke="rgb(255,0,12)" stroke-width="2" fill="none"></circle>
<circle cx="801.46" cy="1488.71" r="4" stroke="rgb(229,255,0)" stroke-width="2" fill="none"></circle>
<circle cx="5644.13" cy="1197.03" r="4" stroke="rgb(229,255,0)" stroke-width="2" fill="none"></circle>
<circle cx="2213.14" cy="1489.47" r="4" stroke="rgb(0,255,254)" stroke-width="2" fill="none"></circle>
<circle cx="6408.28" cy="1847.07" r="4" stroke="rgb(0,255,254)" stroke-width="2" fill="none"></circle>
<circle cx="2051.92" cy="1573.48" r="4" stroke="rgb(123,255,0)" stroke-width="2" fill="none"></circle>
<circle cx="7130.31" cy="1812.03" r="4" stroke="rgb(123,255,0)" stroke-width="2" fill="none"></circle>
<circle cx="3963.34" cy="1577.84" r="4" stroke="rgb(255,0,182)" stroke-width="2" fill="none"></circle>
<circle cx="4381.33" cy="118.778" r="4" stroke="rgb(255,0,182)" stroke-width="2" fill="none"></circle>
<circle cx="1096.87" cy="1617.05" r="4" stroke="rgb(255,136,0)" stroke-width="2" fill="none"></circle>
<circle cx="5623.07" cy="1066.65" r="4" stroke="rgb(255,136,0)" stroke-width="2" fill="none"></circle>
<circle cx="2111.03" cy="1729.59" r="4" stroke="rgb(165,255,0)" stroke-width="2" fill="none"></circle>
<circle cx="4393.84" cy="1370.07" r="4" stroke="rgb(165,255,0)" stroke-width="2" fill="none"></circle>
<circle cx="2294.72" cy="1756.9" r="4" stroke="rgb(0,127,255)" stroke-width="2" fill="none"></circle>
<circle cx="6437.09" cy="1523.34" r="4" stroke="rgb(0,127,255)" stroke-width="2" fill="none"></circle>
<circle cx="2403.11" cy="1813.91" r="4" stroke="rgb(93,255,0)" stroke-width="2" fill="none"></circle>
<circle cx="5711.92" cy="1871.46" r="4" stroke="rgb(93,255,0)" stroke-width="2" fill="none"></circle>
<circle cx="3947.99" cy="1823.44" r="4" stroke="rgb(255,0,127)" stroke-width="2" fill="none"></circle>
<circle cx="6044.24" cy="1849.43" r="4" stroke="rgb(255,0,127)" stroke-width="2" fill="none"></circle>
<circle cx="1785.88" cy="1874.18" r="4" stroke="rgb(255,221,0)" stroke-width="2" fill="none"></circle>
<circle cx="5597.94" cy="1231.39" r="4" stroke="rgb(255,221,0)" stroke-width="2" fill="none"></circle>
<circle cx="1215.16" cy="1876.11" r="4" stroke="rgb(203,0,255)" stroke-width="2" fill="none"></circle>
<circle cx="7045.83" cy="1833.77" r="4" stroke="rgb(203,0,255)" stroke-width="2" fill="none"></circle>
<circle cx="1795.38" cy="1909.95" r="4" stroke="rgb(255,0,199)" stroke-width="2" fill="none"></circle>
<circle cx="7923.83" cy="963.171" r="4" stroke="rgb(255,0,199)" stroke-width="2" fill="none"></circle>
<circle cx="2334.59" cy="1924.04" r="4" stroke="rgb(187,255,0)" stroke-width="2" fill="none"></circle>
<circle cx="6311.97" cy="1659.79" r="4" stroke="rgb(187,255,0)" stroke-width="2" fill="none"></circle>
<circle cx="1298.6" cy="1928.87" r="4" stroke="rgb(0,255,178)" stroke-width="2" fill="none"></circle>
<circle cx="5263.36" cy="1527.05" r="4" stroke="rgb(0,255,178)" stroke-width="2" fill="none"></circle>
<circle cx="4012.89" cy="1929.38" r="4" stroke="rgb(59,255,0)" stroke-width="2" fill="none"></circle>
<circle cx="7420.24" cy="762.289" r="4" stroke="rgb(59,255,0)" stroke-width="2" fill="none"></circle>
<circle cx="1321.81" cy="1994.11" r="4" stroke="rgb(255,0,237)" stroke-width="2" fill="none"></circle>
<circle cx="5757.94" cy="2035.69" r="4" stroke="rgb(255,0,237)" stroke-width="2" fill="none"></circle>
<circle cx="2178.12" cy="1996.18" r="4" stroke="rgb(0,110,255)" stroke-width="2" fill="none"></circle>
<circle cx="5184.53" cy="548.169" r="4" stroke="rgb(0,110,255)" stroke-width="2" fill="none"></circle>
<circle cx="3742.15" cy="2009.52" r="4" stroke="rgb(255,0,216)" stroke-width="2" fill="none"></circle>
<circle cx="8014.97" cy="3.93237" r="4" stroke="rgb(255,0,216)" stroke-width="2" fill="none"></circle>
<circle cx="2676.62" cy="2019.14" r="4" stroke="rgb(255,34,0)" stroke-width="2" fill="none"></circle>
<circle cx="4284.01" cy="2932.95" r="4" stroke="rgb(255,34,0)" stroke-width="2" fill="none"></circle>
<circle cx="3855.93" cy="2032.82" r="4" stroke="rgb(208,255,0)" stroke-width="2" fill="none"></circle>
<circle cx="6400.08" cy="2167.99" r="4" stroke="rgb(208,255,0)" stroke-width="2" fill="none"></circle>
<circle cx="1061.06" cy="2039.57" r="4" stroke="rgb(255,136,0)" stroke-width="2" fill="none"></circle>
<circle cx="6921.23" cy="1978.92" r="4" stroke="rgb(255,136,0)" stroke-width="2" fill="none"></circle>
<circle cx="1487.38" cy="2056.29" r="4" stroke="rgb(118,0,255)" stroke-width="2" fill="none"></circle>
<circle cx="5391.39" cy="989.011" r="4" stroke="rgb(118,0,255)" stroke-width="2" fill="none"></circle>
<circle cx="3896.94" cy="2066.81" r="4" stroke="rgb(255,0,148)" stroke-width="2" fill="none"></circle>
<circle cx="5987.57" cy="1885.73" r="4" stroke="rgb(255,0,148)" stroke-width="2" fill="none"></circle>
<circle cx="4023" cy="2122.57" r="4" stroke="rgb(255,0,161)" stroke-width="2" fill="none"></circle>
<circle cx="5885.8" cy="1961.92" r="4" stroke="rgb(255,0,161)" stroke-width="2" fill="none"></circle>
<circle cx="1568" cy="2160.12" r="4" stroke="rgb(195,0,255)" stroke-width="2" fill="none"></circle>
<circle cx="5079.69" cy="214.443" r="4" stroke="rgb(195,0,255)" stroke-width="2" fill="none"></circle>
<circle cx="3968.29" cy="2212.82" r="4" stroke="rgb(255,110,0)" stroke-width="2" fill="none"></circle>
<circle cx="7039.04" cy="178.984" r="4" stroke="rgb(255,110,0)" stroke-width="2" fill="none"></circle>
<circle cx="1411.83" cy="2215.42" r="4" stroke="rgb(97,0,255)" stroke-width="2" fill="none"></circle>
<circle cx="5370.6" cy="961.384" r="4" stroke="rgb(97,0,255)" stroke-width="2" fill="none"></circle>
<circle cx="778.767" cy="2224.78" r="4" stroke="rgb(255,0,80)" stroke-width="2" fill="none"></circle>
<circle cx="5859.67" cy="1728.87" r="4" stroke="rgb(255,0,80)" stroke-width="2" fill="none"></circle>
<circle cx="4011.15" cy="2284.65" r="4" stroke="rgb(250,0,255)" stroke-width="2" fill="none"></circle>
<circle cx="5916.66" cy="1986" r="4" stroke="rgb(250,0,255)" stroke-width="2" fill="none"></circle>
<circle cx="1158.89" cy="2291.88" r="4" stroke="rgb(255,225,0)" stroke-width="2" fill="none"></circle>
<circle cx="5398.32" cy="1533.78" r="4" stroke="rgb(255,225,0)" stroke-width="2" fill="none"></circle>
<circle cx="1635.81" cy="2300.66" r="4" stroke="rgb(255,0,93)" stroke-width="2" fill="none"></circle>
<circle cx="4855.49" cy="255.985" r="4" stroke="rgb(255,0,93)" stroke-width="2" fill="none"></circle>
<circle cx="3697.71" cy="2337.48" r="4" stroke="rgb(255,21,0)" stroke-width="2" fill="none"></circle>
<circle cx="7108.68" cy="1918.62" r="4" stroke="rgb(255,21,0)" stroke-width="2" fill="none"></circle>
<circle cx="3946.6" cy="2448.4" r="4" stroke="rgb(0,29,255)" stroke-width="2" fill="none"></circle>
<circle cx="6295.22" cy="1700.42" r="4" stroke="rgb(0,29,255)" stroke-width="2" fill="none"></circle>
<circle cx="3939.51" cy="2480.46" r="4" stroke="rgb(255,0,246)" stroke-width="2" fill="none"></circle>
<circle cx="7463.27" cy="443.105" r="4" stroke="rgb(255,0,246)" stroke-width="2" fill="none"></circle>
<circle cx="1805.32" cy="2514.78" r="4" stroke="rgb(0,195,255)" stroke-width="2" fill="none"></circle>
<circle cx="4962.71" cy="560.004" r="4" stroke="rgb(0,195,255)" stroke-width="2" fill="none"></circle>
<circle cx="2439.33" cy="2532.3" r="4" stroke="rgb(106,0,255)" stroke-width="2" fill="none"></circle>
<circle cx="5401.55" cy="795.271" r="4" stroke="rgb(106,0,255)" stroke-width="2" fill="none"></circle>
<circle cx="3942.59" cy="2547.54" r="4" stroke="rgb(255,97,0)" stroke-width="2" fill="none"></circle>
<circle cx="7037.31" cy="482.732" r="4" stroke="rgb(255,97,0)" stroke-width="2" fill="none"></circle>
<circle cx="3842.67" cy="2561.09" r="4" stroke="rgb(157,0,255)" stroke-width="2" fill="none"></circle>
<circle cx="7604.34" cy="410.034" r="4" stroke="rgb(157,0,255)" stroke-width="2" fill="none"></circle>
<circle cx="1504.85" cy="2605.06" r="4" stroke="rgb(0,21,255)" stroke-width="2" fill="none"></circle>
<circle cx="5161.88" cy="1653.03" r="4" stroke="rgb(0,21,255)" stroke-width="2" fill="none"></circle>
<circle cx="905.783" cy="2677.79" r="4" stroke="rgb(255,0,25)" stroke-width="2" fill="none"></circle>
<circle cx="5681.27" cy="1743.71" r="4" stroke="rgb(255,0,25)" stroke-width="2" fill="none"></circle>
<circle cx="3893.4" cy="2680.59" r="4" stroke="rgb(0,165,255)" stroke-width="2" fill="none"></circle>
<circle cx="6750.81" cy="1705.81" r="4" stroke="rgb(0,165,255)" stroke-width="2" fill="none"></circle>
<circle cx="3914.8" cy="2705.51" r="4" stroke="rgb(0,255,182)" stroke-width="2" fill="none"></circle>
<circle cx="6679.04" cy="1850.97" r="4" stroke="rgb(0,255,182)" stroke-width="2" fill="none"></circle>
<circle cx="1439.44" cy="2721.97" r="4" stroke="rgb(0,255,250)" stroke-width="2" fill="none"></circle>
<circle cx="5292.14" cy="668.786" r="4" stroke="rgb(0,255,250)" stroke-width="2" fill="none"></circle>
<circle cx="3764.18" cy="2739.65" r="4" stroke="rgb(157,0,255)" stroke-width="2" fill="none"></circle>
<circle cx="7866.12" cy="152.348" r="4" stroke="rgb(157,0,255)" stroke-width="2" fill="none"></circle>
<circle cx="3826.64" cy="2742.09" r="4" stroke="rgb(0,178,255)" stroke-width="2" fill="none"></circle>
<circle cx="7196.05" cy="660.434" r="4" stroke="rgb(0,178,255)" stroke-width="2" fill="none"></circle>
<circle cx="3772.4" cy="2827.05" r="4" stroke="rgb(0,255,157)" stroke-width="2" fill="none"></circle>
<circle cx="7982" cy="230.278" r="4" stroke="rgb(0,255,157)" stroke-width="2" fill="none"></circle>
<circle cx="3938.04" cy="2848.99" r="4" stroke="rgb(0,80,255)" stroke-width="2" fill="none"></circle>
<circle cx="7655.69" cy="392.529" r="4" stroke="rgb(0,80,255)" stroke-width="2" fill="none"></circle>
<circle cx="3476.04" cy="2932.06" r="4" stroke="rgb(255,221,0)" stroke-width="2" fill="none"></circle>
<circle cx="7731.83" cy="463.697" r="4" stroke="rgb(255,221,0)" stroke-width="2" fill="none"></circle>
</svg>